<?xml version="1.0" encoding="utf-8"?>
<!-- Generator: Adobe Illustrator 23.0.1, SVG Export Plug-In . SVG Version: 6.00 Build 0)  -->
<svg version="1.2" baseProfile="tiny" id="Layer_1" xmlns="http://www.w3.org/2000/svg" xmlns:xlink="http://www.w3.org/1999/xlink"
	 x="0px" y="0px" viewBox="0 0 900 600" xml:space="preserve">
<g>
	<path d="M446.17,442.24c-7.68,0-10.42-3.4-24-11.29c-6.18-3.59-11.29-8.44-15.66-14.44c2.23-1.94,0.91-3.56-0.41-5.19
		c-5.24-7.21-5.86-7.25-10.27-4.88c0.31-4.68,1.24-9.16,0.92-13.63c-1.68-23.44,10.08-44.99,9.56-76.28
		c-0.02-1.69,2.94-11.66-0.2-21.36c-2.09-6.46,3.78-12.59-2.54-15.66c-0.51-0.3-1.12-0.81-1.22-1.42c-1.83-5.9-7.23-7.5-12-9.56
		c-31.61-13.65-35.71-22.68-69.37-30.11c-4.77-1.05-5.42-7.4-21.87,5.39c17.67-8.48,22.83-2.2,32.24-1.02
		c-15.69,12.09-10.94,31.52-26.34,44.45c-3.65,3.06-6,7.12-8.95,10.27c1.93,2.85-0.3,6.31,2.34,9.26
		c-8.11-1.25-2.53-3.45-11.09-7.22c7.53-10.17,11.53-22.12,18.31-32.45c2.01-3.06,0.81-6.61,2.34-10.17
		c17.71-11.23,17.7-10.83-0.51-1.53c0.21-3.05-3.25-4.78-2.54-8.14c-1.42-0.41-3.25,0-4.88-1.22c-12.22-9.1-27.74-5.26-38.96,2.85
		c-3.14,2.26-4.58,4.88-7.43,12.1c2.85,2.13,0.82,5.39,2.14,7.93c-1.52,0.31-1.52-0.91-2.03-1.42c-1.94-2.44-3.88-4.98-5.7-7.63
		c-8.04-11.69-26.42-10.24-36.11-7.53c-5.22,1.46-5.39,4.94,3.87,2.24c4.88-1.42,22.95-4.06,28.17,3.66
		c11.39,16.86,12,7.02-15.87,7.73c-3.06,7.65-19.2,6.44-20.14,26.04c-0.63,13.33,2.7,25.86,12.21,35.9
		c-4.27,1.42-8.03-2.14-12.1-0.51c3.86,2.45,8.44,2.85,12.61,3.87c1.77-3.53,1.11-3.02,2.24-2.64c-0.41,3.36-2.04,6.31-2.85,9.26
		c-1.42,0.61-2.24,0.01-3.15-0.51c-14.12-8.04-19.03-36.09-22.99-39.26c0.61,6.61,3.96,12.31,6.1,18.51
		c-17.12-10.27-15.25-7.67-15.97-14.14c1.83,0.91,1.22,3.86,3.97,3.76c2.08-3.32-4.27-5.54-4.27-29.9c0-5.49,2.84-9.66,6.2-13.53
		c-1.43-2.44-2.65-0.2-4.68,0c13.44-14.14,21.08-31.25,47.5-15.46c0.83,0.49,1.33,1.02,0.41,2.34c2.04-1.12,3.46,0.1,5.09,0.1
		c-4.07-4.47-9.67-6.41-15.16-8.34c5.29-0.2,10.17-1.62,15.05-3.05c7.04-2.07,3.07-2.94,8.54-3.36c19.23-1.46,20,0.15,21.16-3.05
		c4.17-0.4,8.14,0.11,12.51,0.31c-2.13,2.04-4.98,0.51-6.71,2.24c3.46-1.02,7.02-0.01,10.48-0.92c1.94-0.51,3.36,0.4,4.58,1.93
		c-10.6,4.18-30.09,6.88-29.09,9.87c35.94-9.16,29.64-7.83,35.4-9.15c8.43-1.94,9.06,2.63,11.19,0.81
		c-1.43-3.56-9.87-5.9-15.97-4.27c-1.52-2.23-4.17-2.24-6.61-2.54c-15.14-1.84-7.52,1.78-14.24-1.02
		c-24.29-10.12-12.56-5.84-9.56-29.19c2.92-22.72,1.76-25.74,4.68-28.17c6.09,2.16,16.34,3.48,21.87-0.61
		c18.48-13.68,16.67-27.18,12.51-45.16c-1.44-6.2-13.12-17.44-21.87-17.09c-4.58,0.18-9.36,0.41-13.53,3.46
		c-15.85-17.55-36.99-6.28-40.58,4.48c-1.42,4.27-3.54,8.34-4.78,12.71c-4.47,15.78,4.94,37.31,20.85,38.96
		c8.94,0.93,5.93-3.85-7.43,28.89c-15.97-17.09-19.77-15.5-20.24-18.82c-1.22-8.68-7.26-17.01-13.73-21.77
		c-6.16-4.53-13.63-4.67-20.65-6.2c-1.27,6.37,20.73-3.06,30.31,26.14c2.28,6.97,2.19,1.9,21.05,22.28
		c5.93,6.41-1.7,14.83,9.87,19.63c-9.56,1.63-19.22,1.02-28.48,3.97c35.98-3.39,32.07-0.91,32.65-3.25
		c4.28,1.12,4.48,1.32,6.92,4.27c-12.1,1.63-24.1,2.44-35.7,5.8c3.36,0.71,6.72-0.17,9.97-0.61c44.59-5.98,32.15-0.83,39.16-0.31
		c-1.21,3.63-23.09-6.84-27.26,6c-6.2-1.32-12.41,0.29-18.61,0.71c-7.22,0.49-13.93,4.07-19.02,9.66
		c-6.23,6.85-14.83,16.25-14.34,19.22c-3.76,3.05-3.66,8.64-7.73,10.27c-0.51,4.37,2.54,8.54-0.61,12.51
		c1.02,0.92,1.32-0.61,2.44-0.2c1.02,6.71,4.58,13.22,4.27,21.05c-10.37-9.36-16.68-21.36-25.53-31.43
		c3.76-3.05,8.24-4.78,11.49-8.44c2.95,1.02,5.29,3.76,8.85,4.27c0.51-2.13-1.72-2.13-2.03-3.66c2.95-7.63,7.53-14.24,13.43-20.14
		c-7.52,4.47-11.29,12-14.95,19.83c-3.54,0.93-4.44-1.34-4.75-1.44c2.03-1.04,1.04-3.7-0.02,0c-4.26-0.95,3.25-13.04,5.79-16.56
		c5.65-7.82,11.74-12.76,12.31-14.75c-8.95,7.43-16.57,15.87-20.44,27.16c-4.83-2.57-3.53-4.88,4.17-16.78
		c-3.56,2.44-5.39,6.3-7.53,10.27c-1.93-1.93-4.17-2.34-6.71-2.34c-0.1-1.22-0.21-2.34-0.41-3.46c-1.71-1.2-4.3-1.12-5.25-3.37
		c1.1,0.51,3.94-3.72,4.73-4.46c-1.9,1.1-3.51,2.6-4.91,4.39c-18.5-6.64-12.7-8.61-20.72-10.5c-13.09-3.09-10.58-2.96-10.58-8.04
		c8.46-0.7,8.69-6.77,10.99-9.56c8.73-10.62,10.61-28.53,1.53-40.99c-1.84-2.54-3.36-5.29-4.98-8.04
		c-3.48-5.9-8.92-8.28-15.87-14.24c5.7-0.99,10.99,1.2,17.8,0.51c14.67-1.47,26.05,8.19,40.28,2.85c1.53-0.57,2.95-1.43,4.98-0.81
		c1.94,0.59,2.95-1.53,2.14-3.87c-5.9-0.81-11.7-0.41-16.68-0.1c-2.95-2.64-5.21-4.75-7.63-6.81c-5.75-4.9,3.63-10.98-2.85-17.6
		c-1.58-1.61-1.94-9.9-8.24-10.98c-1.85-2.77,3.74-6.06-3.46-9.46c-1.73-0.81-1.94-2.13-2.14-3.76c-3.86-1.07-5.37-1.26-5.65-0.96
		c1.41-2.01-4.21-3.21-5.23-4.94c0.1-1.72,2.54-1.62,2.95-3.25c-0.3-1.32-1.42-0.1-1.93-0.71c-0.92-2.92,2.41-8.04-5.19-3.76
		c0-2.03,2.55-2.34,2.14-4.37c-2.54-0.91-4.58,1.43-7.02,1.12c-0.61,0.48,0.22,2.92-2.44,4.37c0.03-0.11,1.14-5.58,2.24-4.48
		c-0.2-1.02,1.33-1.22,1.02-2.44c-2.14-0.3-2.75,1.73-4.17,2.75c-1.02-0.41,0.2-1.73-0.92-2.14c-1.42-0.1-1.42,1.43-2.03,2.24
		c-4.04,5.4-3.15-0.04-9.76,5.09c-3.26,2.54-7.32,3.87-9.56,8.04c-0.41-2.04,1.73-3.26,0.81-5.09c-2.24,0.31-1.83,2.54-2.85,3.56
		c-0.71,0.61-1.22-0.61-2.34-0.1c-2.23,2.04,1.33,5.19-0.81,7.53c-1.63-0.3-1.63-2.34-3.56-2.44c-3.15,1.53,0.1,3.36,0.1,5.09
		c-0.2,1.02-1.73,0.91-1.93,2.44c2.44,2.14-1.73,5.19,1.02,7.53c-6.07,4.05-26.48,1.34-29.09,10.07
		c-4.23,14.18-10.19,8.9,24.31,53.6c0.71,0.91,1.12,2.23,2.44,2.64c1.12-1.63-0.81-2.54-0.81-4.07c0.71-1.63,1.52-3.46,2.64-5.9
		c-1.53,0.71-1.73,1.73-2.14,2.44c-2.51,5.02,0.43,3.3-16.78-17.7c-3.67-4.47-6.31-9.76-9.87-14.34
		c-3.82-4.92-0.08-11.72,2.03-16.99c1.12,2.65,1.53,4.99,3.56,6.92c0.2-2.24-1.33-3.66-1.63-5.39c-0.97-5.55,3.02-5.5,22.68-8.14
		c1.55,4.64,2.83,11.57,7.53,14.04c6.69,3.5,8.79,13.39,19.43,16.27c1.22,0.32,2.24,1.52,3.87,2.64c-5.51,1.27-14.63,4.19-18,8.75
		c-1.68,2.28-4.68,3.16-5.8,6.31c-3.97-3.87-7.23-7.93-10.48-12.41c-0.91,2.23,0.82,3.05,0.92,4.37c0.2,1.22-1.12,1.93-1.22,2.95
		c1.22,1.01,2.33,0.91,3.25-0.41c2.24,2.34,4.27,4.58,6.41,6.92c-5.69,10.98-6,22.17-1.93,33.97c-0.3,0.81-1.21,1.83-1.22,3.15
		c-0.17,33.47,7.48,41.12,6.2,46.28c-1.98,7.99,1.58,12.47-0.92,22.38c-1.74,6.91-0.7,16.02,0.61,29.4
		c0.32,3.3,1.28,0.05-9.87,24.61c-1.9,4.17-13.18,3.29-18.21,33.46c-16.34,4.27-31.37,4.55-44.96,8.44c-3.5,1-2.27-0.26-12.51,19.53
		c6.21-3.67,8.14-10.48,11.8-16.38c14.65-3.76,30.01-4.78,44.96-8.54c0.3,2.13,0.5,3.86,0.81,6.2c-15.15,1.22-29.7,7.22-45.36,3.66
		c8,8.01,13.15-2.86,1.83,19.33c-4.48-1.12-8.55-3.26-13.18-3.58c-0.4,2.14,1.02,2.44,2.14,2.75c14.1,3.88,11.89,0.54,41.19-3.87
		c19.22-2.89,20.77-4.26,23.6-1.83c2.65,2.27,5.15,0.09,8.44,1.32c11.12,4.15,14.64-9.55,22.38-7.83
		c1.13,2.04,1.17,27.76,19.63,24.21c8.25-1.58,15.98-4.57,21.16-12.1c2.24-3.26,6.11-5.39,6.31-10.48
		c24.41,3.76,48.82,4.47,72.32,10.98c0.52,1.03,4.25,30.3,2.75,46.79c-0.92,0.92-2.04-0.41-2.75,0.51c-1.22,1.12,0.1,2.55-0.61,3.87
		c-5.75-0.22-4.45,11.95-6,18.72c-0.99,6.94-2.69,3.03-1.22,16.68c0.79,7.38,8.39,3.22,12.71,9.36
		c9.04,12.83,29.88,16.13,45.47,15.66c8.01-0.25,9.84-2.85,13.12-2.85c8.67,0.46,6.9-14.34-4.07-14.34
		c-6.91-7.43-14.34-14.08-18-23.5c-0.4-1.02,0.92-0.31,1.12-1.12c0.1-1.63-1.72-2.84-1.63-4.67c6.75,0.79,88.17-19.8,88.29-19.84
		c1.7,13.22,22.39,16.85,31.53,13.83c8.19-2.7,37.79,8.76,53.4,10.99c4.07,0.58,7.93-1.01,10.78-4.37
		c5.53-6.51,10.37-4.2,10.07-12.41C452.86,448.24,451.04,442.24,446.17,442.24z M270.04,153.91c-1.63,3.35-3.15,6.81-4.88,10.27
		C261.26,162.88,267.77,156.17,270.04,153.91z M270.04,133.87c11.29,6,9.97,12,1.93,20.24c-0.71-0.11-1.32-0.21-1.93-0.31
		c0.81-2.84,3.76-4.78,3.87-8.03c-3.26,3.35-5.09,7.83-8.65,10.88C269.23,149.53,270.24,141.91,270.04,133.87z M272.56,113.32
		c9.63-2.53,14.72,5.73,16.38,7.56c11.01,19.06,1.53,36.11,1.53,40.45c4.19-5.3,9.24-23.56,0.93-39.25
		c3.47,1.64,13.73,20.16,2.74,38.03c-6.93,11.28-17.8,14.85-29.41,9.76c2.12-6.82,8.18-11.45,15.56-24.31
		c2.49-4.33-0.61-6.21-6.1-11.7c-1.33-1.32-2.65-2.54-4.48-2.34c-2.13-5.49-3.05-11.08-5.49-16.27
		C267.07,113.93,269.91,114.02,272.56,113.32z M262.41,121.35c-1.12-2.33-2.34-4.57-3.56-6.81
		C260.68,116.58,262.1,118.71,262.41,121.35z M228.65,162.87c-6.06-6.53-11.62-18.85-9.56-27.67c3.87-16.59,9.79-28.54,25.63-28.28
		c7.22,0.12,9.38,2.13,12.71,8.65c5.73,11.2,8.53,32.38-2.55,43.44c3.29,0.59,11.37-12.97,9.67-25.54
		c-0.55-4.07-1.43-8.14-2.14-12.21c3.56,6.1,4.77,12.61,4.48,19.54C265.78,166.8,237.76,172.68,228.65,162.87z M252.04,222.76
		c-6.79-9.12-18.34-2.35-18.21-13.83c0.03-2.65-0.72-5.19-1.53-7.63c9.45-20.37,10.84-19.47,13.83-31.43
		c8.14-0.2,12.92-5.39,17.7-10.88c-3.05,7.63-4.43,15.57-4.98,23.6C257.15,207.49,251.37,220.61,252.04,222.76z M253.66,231.72
		c-5.29,1.32-10.88,0.91-15.97,3.05C242.37,230.19,248.17,231.82,253.66,231.72z M228.48,238.51c0.11-0.08,0.99-0.27,1.28,0.02
		c-0.41,0-0.91,0.2-1.22,0c-0.03-0.01-0.07-0.03-0.1,0C228.15,238.82,228.14,238.39,228.48,238.51z M180.43,284.81
		c-1.32-3.56-2.95-7.12,0.81-10.78C180.63,277.89,180.43,281.35,180.43,284.81z M86.96,132.44c-0.3-0.91-0.71-1.83,0.51-3.05
		C87.47,130.61,88.49,131.43,86.96,132.44z M89.91,132.04c-0.3-0.51-0.4-1.02,0.41-1.12C90.52,131.43,90.42,131.83,89.91,132.04z
		 M93.47,128.48c0-0.3-0.2-0.51-0.1-0.71C94.04,126.09,95.41,128.16,93.47,128.48z M417.12,434.32c-0.71,0.2-1.32,0.4-2.34,0.71
		C415.39,432.89,416.1,433.1,417.12,434.32z M413.25,431.17c-1.02,0.91-2.03,1.12-3.56,0.81
		C411.01,431.27,411.83,430.35,413.25,431.17z M399.82,408.89c1.12,5.39,3.97,9.66,5.8,14.54c-2.74,0.51-2.54-2.85-4.88-2.95
		c-0.21,1.63,1.42,2.14,1.42,3.46c-3.36,0.61-3.56-2.44-4.68-3.66C398.5,416.42,396.77,412.45,399.82,408.89z M301.97,294.48
		c19.37-15.27,12.85-26.25,27.87-46.28c1.31-1.74,3.37-3.48,5.9-2.54c34.75,12.94,10.19,5.31,46.28,23.09
		c6.9,3.4,14.96,4.63,19.63,12c1.49,2.36,2.84,4.37,1.83,7.22c-1.92,5.45,2.45,12.17,1.02,22.07c-3.67,25.42-3.46,37.26-7.93,52.48
		c-3.73,12.67-1.63,52.48-4.07,54.92c-5.8,0.71-11.39,4.27-17.9,4.07c-0.71-2.85,0-5.59-1.12-8.95c-1.73,3.35-0.2,6.51-2.44,9.15
		c-2.55,0.11-4.28-2.54-7.43-2.03c5.23-9.31,7.9-45.44,2.03-55.64c-1.71-2.96-1.4-6.83-2.95-9.66c-4.99-9.11,1.17-31.49,4.78-41.8
		c0.92-0.51,1.73,1.42,2.75,0.1c-0.51-2.23-3.15-3.35-3.46-6.1c-15.56-1.42-29.6-8.75-45.16-9.46c8.64,2.75,17.59,3.97,26.24,6.92
		c-9.05,3.56-45.16,0.61-48.82-3.76C299.02,296.43,298.41,297.29,301.97,294.48z M366.26,425.97c-0.71-1.22-1.73-1.93-1.93-3.25
		C366.66,423.94,366.66,423.94,366.26,425.97z M314.07,308c-5.89,3.96-11.39,2.44-13.93-3.97
		C304.11,307.49,308.99,307.59,314.07,308z M281.83,300.67c7.42-4.45-6.83,9.52-18.31,33.87c-0.41-1.83-0.4-2.84,0.1-3.76
		c4.93-9,0.92-14.26,3.46-19.83c5.05-11.07,0.03-26.63-4.17-30.11c-1.44-1.2-2.85-2.65-4.27-4.07
		c17.09-13.73,26.34-16.88,45.67-15.56C300.25,276.57,289.16,287.56,281.83,300.67z M285.5,297.22c-0.21,0.41-0.11,1.12-0.92,1.02
		C284.58,297.63,284.99,297.32,285.5,297.22z M257.92,259.39c1.53,2.74,0.71,5.69,4.07,7.22c-0.61-3.87-2.33-6.62-3.25-9.26
		c1.22-3.56,14.8-16.98,32.45-12.41c7.24,1.87,9.77,7.32,12.6,13.23c-13.41-0.88-27.01,1.77-41.5,12.51
		c-2.95-1.64-1.96-1.19-3.66-1.53C256.9,266.31,257.92,263.26,257.92,259.39z M258.75,269.24c0.1,1.22,1.52,1.63,1.93,2.85
		c-1.02,1.22-1.93,2.24-2.85,3.36C257.83,273.21,256.41,270.88,258.75,269.24z M251.22,269.04c0.51,0.51,1.02,1.02,1.12,2.03
		C251.42,270.57,250.81,270.06,251.22,269.04z M203.72,327.01c-4.68-2.44-5.9-6.82-8.14-10.58
		C199.04,319.19,202.2,322.14,203.72,327.01z M192.94,318.99c-3.26-1.83-6.41-3.87-8.75-6.92
		C187.75,313.59,190.9,315.53,192.94,318.99z M150.26,247.05C150.16,247.01,150.23,247.01,150.26,247.05L150.26,247.05z
		 M149.53,250.54c-2.44,3.46-4.68,6.72-6.92,9.97c3.56-1.33,4.57-4.99,6.81-7.53c0.92,0,1.93,0,2.85,0c0.61,3.96,0.72,4.1,4.58,3.76
		c2.14-0.19,3.86,0.2,4.27,2.64c-0.92,0.71-1.94-0.81-3.36,0.51c13.65,10.67,5.97,10.19-3.15,17.3
		c-6.2-10.17-15.35-17.09-23.39-24.92c1.63-3.15,4.17-5.08,6.51-7.32C141.6,246.78,145.46,248.61,149.53,250.54z M123.07,266.82
		c9.56-19.35,3.47-11.86,10.58-6.92c-8.74,16.47-13.22,34.68-21.56,51.36C115.73,286.85,108.32,296.68,123.07,266.82z
		 M120.52,244.64c2.55,2.44,4.58,4.98,6.31,7.83c-17.06,40.69-13.19,23.9-13.12,23.8C118.85,265.43,110.24,260.65,120.52,244.64z
		 M118.5,241.17c0.1,0.81,0.1,1.32-0.92,1.73C117.68,242.19,117.27,241.48,118.5,241.17z M130.29,251.66
		c-1.67-4.18-7.7-1.21,3.46-8.65C139.74,245.4,133.66,244.69,130.29,251.66z M123.17,238.43c0,0.92-1.42,1.22-0.81,2.34
		c5.19-2.34,7.63-2.14,10.17,1.12c-1.93,1.73-4.17,3.05-6.71,4.58c-2.85-3.46-6.41-5.9-8.14-10.58
		C120.12,237.01,121.64,237.72,123.17,238.43z M126.12,220.02c-1.04,3.65-3.76,4.98-7.12,6.61c0.92-8.04,0.92-15.67,0.51-24.11
		c4.17,4.48,9.56-0.2,13.83,2.75C132.28,212.93,126.89,217.34,126.12,220.02z M120.43,94.61c0.4,0.3,0.81,0.61,1.94,1.42
		c-1.33,0-1.83,0.21-2.14-0.1C119.72,95.63,119.82,95.02,120.43,94.61z M118.3,91.86c-0.11,2.44-2.04,2.44-3.36,3.15
		C115.85,93.89,116.05,91.96,118.3,91.86z M96.83,135.6c-1.02-2.44,0-3.56,3.25-3.76C98.25,133.16,97.54,134.38,96.83,135.6z
		 M102.12,147.8c-0.51-1.32-1.53-2.03-1.02-3.46C101.81,145.36,102.73,146.17,102.12,147.8z M99.07,137.33
		c2.14,0.71,4.07,1.32,5.7,1.93c1.32-0.4,0.71-1.52,1.42-1.93c1.01,0.2,0.2,1.73,1.32,1.83c1.12,0.2,1.53-0.92,2.95-1.02
		C107,141.29,101.2,140.78,99.07,137.33z M104.06,143.95c2.65-2.65,8.24,0.1,8.75-5.7c-2.44-1.22-4.99-2.65-7.53-3.97
		c-1.83-0.61-3.05,2.95-5.49,0.51c2.14-0.51,2.65-2.53,4.07-3.05c2.15-0.8,2.65-1.94,2.14-3.87c-0.78-3.9,1.72-7.8-2.03-21.66
		c-1.84-6.82,3.02-3.76,8.75-8.85c0.79,2.88,2.41-0.31,10.68,5.29c5.17,3.5,5.43,1.3,5.61,2.03c-0.33,0.64,3.47,2.91,3.95,4.17
		c-1.22,0-2.34-1.22-3.56-0.1c1.52,1.72,3.66,1.73,5.59,2.03c7.42,1.14-1.29,8.04,7.32,11.39c-3.66-0.31-5.7,2.95-8.75,3.56
		c2.44,0.41,4.56-0.34,6.71-1.22c5.61-2.29,4.2,3.09,6.1,5.29c5.4,6.23-0.78,12.88,2.24,17.39c10.11,15.1,15.62,6.72,21.66,9.26
		c-3.68,0,0.34,3.4-16.38,1.12c-9.15-1.25-18-4.47-27.46-3.36c-6.1,0.72-12.21-1.32-18.3-0.09
		C106.09,150.66,105.48,147.1,104.06,143.95z M85.85,317.87c1.62,4.17,1.22,7.73,1.11,11.8c-2.64-0.51-4.67,1.32-7.42,2.03
		C81.07,326.61,84.32,322.96,85.85,317.87z M17.19,398c2.95-4.68,4.38-9.35,6.92-13.83c49.1-5.75,26.56-10.46,39.26,4.68
		C47.8,392.11,32.55,393.33,17.19,398z M85.23,390.27c-4.05,1.57-8.74,1.25-13.12,1.53c-1.72,0.11-3.24-0.62-4.37-1.83
		c-12.57-13.55-7.87-22.91-2.45-39.38c3.39-10.26,10.95-15.78,20.55-19.12c1.46-0.5,1.15,1.77,0.51,3.36
		c-9.26,2.23-15.36,7.83-18.21,16.88c-6.41,6.23-6.2,23.22-2.95,31.94c-3.28-20.75,1.85-40.79,21.77-47.19
		c-2.94,10.16,0.97,8.75-6.51,21.36c-1.75,2.94-0.21,5.8,0.1,8.75c0.45,4.31,2.71,5.9,11.19,12.61c1.98,1.32,0.63-1,1.83-1.22
		C98.65,378.39,90.09,388.39,85.23,390.27z M96.02,383.46c0.3-0.82,0.3-1.63,1.22-1.63C98.95,382.57,99.07,384.38,96.02,383.46z
		 M98.16,379.69c-0.61-1.52,0.2-3.15-0.92-4.27c-1.73-1.22-3.66-0.61-5.39-0.71c-0.61-1.12-1.12-2.03-1.73-3.15
		c-4.07,1.33-6-1.22-7.53-4.37c12.91-47.32,3.06-37.73,3.87-92.86c2.54,3.66,1.32,7.62,3.15,10.98c2.36-2.7-3.81-16.46-1.93-27.06
		c0.59-3.36,2.54-6.31,2.44-9.87c-2.04,0.41-1.02,2.75-2.14,3.36c-4.88-16.07-8.04-32.04-4.68-48.31
		c-4.58-6.21-4.07-24.41,3.25-31.43c3.17,17.22,1.98,15.73,3.87,15.26c-1.84-8.52-0.55-10.34-1.22-12.31
		c-1.1-3.26,2.13-10.41,5.39-11.19c5.27-1.27,10.17-3.67,15.66-5.09c1.45,3.64,7.61,3.61,12.71,11.09
		c12.65,18.55,12.56,26.59,10.88,32.95c-6.61-1.42-9.96-7.12-15.05-10.78c0.41-1.02,0.92-2.34-0.2-3.66
		c-2.66,2.66-1.52-0.46-3.66-1.53c-1.12,3.15-1.12,3.15-1.22,4.88c7.55,41.54-2.9,55.78-1.12,80.05c0,2.29-0.11,3.05-1.63,3.05
		c-3.45-5.8-7.93-11.19-8.54-18.51c-0.51,8.44,2.54,15.46,8.44,22.58c1.46,7.78-1.31,30.59-1.42,37.74
		c-0.25,16.78-9.29-3.45,2.85,36.01C103.14,359.05,101.51,369.83,98.16,379.69z M121.14,407.26c-4.17,1.94-7.93,1.53-11.9-0.1
		c-0.31-0.81,0.71-0.51,0.71-1.32c-12.52-8.27-9.61-32.14-1.62-44.95c5.68-9.12,22.34-18.47,30.41-8.65
		c4.28,4.67,5.19,5.44,5.39,9.05C145.46,385.15,143.81,396.69,121.14,407.26z M114.42,349.48c-1.93-8.03-7.32-15.66-3.66-24.61
		c0.47-2.33-0.95-2.1,2.34-9.46c12.99-29.04,12.39-32.89,21.77-53.81c7.29,0,50.09,61.37,53.4,60.82c0.63-2.51-1.88-1.89,11.9,5.7
		c11.66,6.42,4.76,6.47,18.21,14.34c-9.86,18.64,11.27,5.22-54.82,20.04c-4.71,0.53,2.27-0.72-16.38-5.59
		C128.05,332.25,116.16,354.7,114.42,349.48z M155.62,362.51c-4.86,1-9.74,1.91-7.83-2.54
		C150.13,360.78,152.77,360.58,155.62,362.51z M146.36,384.99c0.41-6.31,0.81-12.41,1.12-18.92c22.58-0.61,43.94-7.32,66.32-9.56
		c-0.91,13.42,3.16,26.14,4.48,39.26C194.77,388.85,170.56,388.85,146.36,384.99z M219.59,380.12c-6.87-32.58,2.48-31.06,5.09-46.47
		c1.82-10.72,4.77-16.41,0.51-16.58c2.68,6.25-3.42,13.81-6,7.93c-1.7-3.88-4.17-7.32-5.29-11.49c1.91,1.81,4.33,3.03,5.56,5.44
		c-0.3-0.36-1.61-0.29-1.09,0.75c0.71,1.02,1.42,2.13,2.95,2.44c0.1-1.36-1.16-1.79-1.56-2.7c2.49-0.99,8.18,6.47-8.51-13.88
		c-6.15-24.07,11.61-29,18.41-36.31c6.1,1.01,12.51,0.51,18.92,1.93c9.59,10.62,24.04,18.89,16.58,37.02
		c-3.78,9.18,2.73,12.14-4.78,24c-0.4,0.62-1.02,1.01-1.02,1.93c1.93,36.69,2.88,38.33-5.39,56.76c-3.71,8.26-4.6,17.28-8.24,25.53
		c-5.86,13.24-0.33,25.27-0.92,28.58c-14.83-1.65-8.53,6.2-16.99,6.2c-1.83-1.33-3.66-2.65-5.49-3.97
		c2.24-9.66,2.84-19.12,1.63-28.78C219.93,386.38,221.39,388.65,219.59,380.12z M230.78,453.64c-0.41,3.46-0.72,3.66-6.1,4.58
		c-0.91-1.83-2.74-3.25-3.05-6C224.78,453.95,227.73,453.84,230.78,453.64z M255.9,486.69c0.96,4.15,7.54,0.33,8.65-0.1
		c5.09,1.52,8.32,5.13,11.19,9.05c1.13,1.55,5.48,2.14,6.2,3.46c0.1,1.73,0.31,3.47-1.73,4.48c-12.87,6.35-30.58,3.39-43.84-1.32
		c-11.23-3.99-9.44-14.61-18.82-14.24c-4.11,0.16-5.77-3.3-4.78-5.29c1.12,0.1,0.92,1.93,2.24,1.73c1.21-1.21-4.88-5.68-0.71-13.73
		c6.14-11.85-0.15-14.6,2.34-17.09c3.56,1.63,4.17,6,7.44,7.95c2.95-2.13,6.62-2.24,9.26-4.88c-0.41-1.43-0.1-2.95,0.61-4.48
		c5.33-2.96,1.83-1.88,1.83-3.15c1.93-1.53,7.92-2.23,11.49-1.02c3.35,1.13,3.05,4.58,4.37,7.83c-4.27,2.14-9.25,1.83-12.71,4.68
		c-3.46,2.84-8.44,3.05-11.29,6.2c0.71,1.93,2.13,0.3,2.64,1.42c1.02,1.42-0.82,2.64,0.1,4.27c1.93,0.71,3.46-1.63,5.49-1.12
		c-0.61,1.12-2.04,1.42-1.63,3.15c2.23,3.05,5.49-0.81,7.93,0.61c0.1,3.76-4.38,1.73-5.7,4.98c8.24,2.85,15.57,0.91,22.38-3.46
		C267.32,489.1,262.33,483.05,255.9,486.69z M234.24,467.48c6.2-3.26,13.02-3.16,19.63-3.87
		C247.25,464.93,240.64,465.54,234.24,467.48z M255.79,472.25c-1.01-1.22-1.01-2.95-2.54-3.76
		C255.9,468.7,255.9,470.43,255.79,472.25z M245.53,460.76c2.03-1.02,4.27-2.03,7.32-0.71C250.1,461.07,247.86,460.86,245.53,460.76
		z M347.95,441.95c-29.94,8.3-88.73,20.7-89.07,21.4c-0.44,0.84,1.05,2.94-5.18-6.76c1.83-1.42,1.93-3.46,1.73-5.39
		c5.69-2.24,11.9-1.83,17.29-4.58c-6.11,0.41-12.11,1.63-18.21,2.85c-1.73-3.15-4.78-3.97-7.73-4.78c-0.72-3.87,0.32-7.53,0.2-11.19
		c-0.79-23.4,9.18-39.47,13.02-48.42c13.95,33.52,16.39,47.18,18.1,46.94c0.41-1.78-0.71-3.12-0.01-4.53
		c2.09,2.29,2.85,5.57,6.04,7.64c2.3-0.67-4.84-9.56-6.26-14.44c4.58,5.39,9.05,9.87,14.34,13.63c1.83-2.24,4.17-2.56,6.51-2.75
		c21.49-1.72,28.33-7.02,32.24-5.49C336.42,428.22,349.35,429.79,347.95,441.95z M345.81,428.32c-27.73-8.67-6.92-4.23-41.19,0.41
		c-4.28,0.57-8.64,0.4-12.51,2.64c-16.38-13.75-17.3-14.32-18.21-17.09c-6.41-19.55-12.99-31.23-12-34.48
		c6.02-19.75-2.67-29.8,2.95-41.19c5.03-10.21,19.97-34.07,21.05-34.79c5.04,0,2.55,2.47,10.17,5.19
		c5.31,1.89,10.15,5.65,16.48,2.64c1.53-0.72,3.56-0.2,4.48-2.34c0.79-1.58,32.49-0.03,33.26-0.81c2.25-2.3,4.47-1.22,12.61,1.22
		c1.32,1.94,1.53,3.87,1.12,5.7c-1.83,5.09-2.21,10.38-3.66,15.46c-7.03,24.53,7.57,35.63,6.1,53.5
		c-0.18,2.19-0.91,21.89-3.76,31.53c-5.91-4.16-7.94,4.87-8.44,12.1c-0.23,3.25-1.02,6.41-4.38,8.04
		C347.84,433.61,347.13,430.76,345.81,428.32z M448.94,455.07c-2.18,6.7-7.73,7.93-13.73,7.83c-0.51,0.81,0.31,1.22,0.41,1.83
		c-4.93,2.96-28.7-7.38-50.55-9.56c-4.05-0.41-27.49,4.71-34.68-8.63c1.52-2.34,0.55-5.76,2.64-8.24c6.54-7.8,4.23-16.34,7.22-19.53
		c4.58,14.34,9.46,16.47,17.09,14.44c0.81,0.21,0.5,1.73,2.03,1.63c6.07-2.11,4.9-8.7,11.7-10.58c0.71-0.2,1.22-0.81,0.81-1.83
		c-0.92-0.92-1.94-0.12-2.85,0c-4.89,0.62-5.19,6.2-8.95,8.54c-5.01-2-7.19,2.46-11.7-2.85c-1.03-1.21-0.2-2.34,1.02-3.56
		c7.93,1.22,15.36-1.93,22.58-4.27c1.33,1.01,0.82,2.54,2.14,3.15c1.43-0.71,2.85-1.22,3.46,1.22c-6.97,2.09-10.28,2.29-11.6,6.61
		c19.87-4.77,22.68-8.38,22.68-4.78c-4.99,1.83-10.89,1.52-15.16,5.39c1.43,2.95,3.77,1.93,5.8,2.34c2.34,4.88,6.71,2.95,10.58,2.85
		c-1.12,1.93-3.87,1.12-4.68,3.15c2.5,5.82,9.57,0.23,14.34-3.97c9.26,3.87,17.19,9.87,27.26,11.19
		C449.25,450.49,449.94,452.01,448.94,455.07z"/>
	<path d="M897.41,447.77c-2.7-4.26-6.64,1.31-18.21-7.12c-7.73-5.64-15.85-6.99-25.73-20.55c2.44-2.22,0.96-4.01-2.85-8.65
		c-7.1-8.66-8.24,5.62-7.32-7.32c0.97-13.66-0.43-22.32,4.07-39.26c7.99-30.08,5.14-37.94,6.71-49.33
		c2.2-15.88-2.84-14.36-0.81-24.72c1.64-8.41-3.46-6.82-3.87-9.26c-2.83-9.12-10.96-6.27-42.92-25.53
		c-16.54-9.97-35.76-13.55-38.45-14.14c-4.6-1.02-5.82-7.45-21.87,5.39c17.67-8.48,22.83-2.2,32.24-1.02
		c-9.53,7.34-10.24,15-17.29,32.04c-3.74,9.04-4.74,6.95-18,22.78c2.03,2.74-0.51,6.2,2.64,9.05c-8.55-0.88-2.86-3.74-11.39-7.22
		c7.63-10.17,11.67-22.13,18.31-32.45c1.96-3.04,0.82-6.61,2.24-10.17c16.53-10.49,18.85-11.42-0.51-1.53
		c0.21-3.15-3.35-4.88-2.54-8.24c-1.42-0.3-3.35-0.01-4.98-1.22c-8.71-6.46-18.23-6.57-28.07-2.95
		c-16.41,6.04-14.99,12.02-18.72,17.7c3.15,2.14,1.02,5.5,2.34,8.14c-3.39,0.68-7.64-16.29-22.38-17.9
		c-5.46-0.6-24.21-1.13-25.02,4.27c5.07,1.76,6.11-2.85,26.24-1.83c7.02,0.36,7.76,2.6,16.67,14.81c-7.56-1.7-15.22-2.4-23.18-2.2
		c-1.63,4.07-5.6,5.17-8.85,7.12c-18.26,10.95-12.56,42.44,1.12,54.82c-4.48,1.42-8.24-2.04-12.21-0.51
		c3.86,2.55,8.44,2.85,12.61,3.97c0.61-1.32,1.01-2.13,1.42-3.05c1.88,0.62-1,5.7-1.93,9.56c-2.97,1.37-10.93-5.52-13.93-12.41
		c-11.24-25.79-10.56-26.03-12.1-27.26c1.31,17.39,17.58,25.56-9.26,9.46c-0.2-1.63-0.5-3.26-0.81-5.09
		c1.83,1.02,1.33,3.87,3.97,3.87c2.08-3.32-4.27-5.54-4.27-29.9c0-5.49,2.75-9.76,6.31-13.63c-1.42-2.34-2.64-0.31-4.88,0.2
		c18.15-20.26,20.43-26.89,46.79-15.97c1.01,0.41,2.03,0.81,1.42,2.64c1.73-1.02,3.15-0.1,4.78,0c-4.07-4.47-9.57-6.41-15.16-8.34
		c5.5-0.1,10.58-1.84,15.77-3.15c5.22-1.32,2.5-2.98,8.14-3.36c18.49-1.24,19.8,0.17,20.85-3.15c4.17-0.2,8.14,0.2,12.51,0.51
		c-2.23,1.93-4.88,0.51-6.71,1.93c4.98,0.92,10.17-2.44,15.46,1.12c-9.97,3.87-20.34,4.99-29.7,9.26c0.95,0.47,0.08,1.08,29.09-7.12
		c2.94-0.83,6.11-0.6,8.95-2.34c2.4-1.47,6.59,2.94,8.54,1.83c-0.81-3.66-9.66-6.1-15.56-4.37c-4.88-4.87-12.01-0.69-16.38-5.59
		c-2.64-2.95-4.78-3.15-8.75-1.22c-4.58-2.99-16.61-7.42-17.9-10.37c-2.2-5-5.89-9.06-9.36-13.22
		c-8.38-10.02-5.92-18.51-15.77-27.46c-8.5-7.72-10.81-5.72-15.16-12.21c-4.15-6.2-9.74-13.85-15.87-16.48
		c-5.63-2.42-6.21-6.78-10.37-15.26c-3.49-7.1-7-6.5-8.04-8.85c-2.85-5.29-12.33-5.3-15.16-1.42c-5.25,7.22-4.88,12.65-5.39,21.77
		c-0.81,0.81-1.22-0.61-2.44,0.2c1.01-2.64,0.66-4.69,1.32-6.71c1.22-3.75-1.67-4.48-4.27-11.29c-3.54-9.27-7.27-3.66-6.61-8.95
		c1.96-8.82-3.7-3.79-5.7-10.78c-1.93,0.4-3.76-0.1-5.49-0.41c0.3,2.13,3.15,2.13,3.76,4.27c-1.22-0.1-2.34-1.32-3.66-0.1
		c1.73,1.42,3.77,1.64,5.7,1.93c8.01,1.2-1.98,7.95,7.93,11.49c-3.05,0.1-6.41,1.52-9.56,3.76c2.75,0.3,4.88-0.62,7.02-1.53
		c2.65-1.13,5.09-0.41,5.09,1.42c0,2.75,1.54,4.47,2.85,6.41c2.11,3.12-0.58,3.11,0.1,10.27c0.2,1.22-0.82,1.83-1.02,2.64
		c0.82,0.92,2.14-0.4,2.75,1.02c-2.13,0.61-4.27,0.71-6,1.83c-4.58-2.54-10.78-3.35-15.26-2.03c2.75,0.41,5.29,0.81,8.14,1.22
		c-2.34,3.05-5.8,1.73-8.44,3.46c-2.14-6.41-5.51-11.79-9.36-16.78c-7.03-9.11-14.39,0.66-13.12-9.05
		c2.11-16.07-6.64-22.13,0.71-24.11c2.24-0.61,4.27-1.73,6.1-3.36c0.31,1.12,0.92,1.43,1.73,1.53c7.7,0.95,10.31,6.66,14.54,5.7
		c-0.2-3.35-3.97-2.64-5.29-4.88c0.1-1.72,2.64-1.62,2.95-3.25c-0.3-1.32-1.42-0.1-1.93-0.81c-0.51-1.63,0.51-3.56-0.41-5.29
		c-1.83-0.51-3.15,0.3-4.98,2.03c0.4-2.54,2.54-2.95,2.54-4.88c-2.64-0.91-4.68,1.43-7.12,1.12c-0.63,0.47,0.31,3.16-2.24,4.37
		c0.3-1.94,0.4-3.56,2.03-4.48c0-0.91,1.01-1.32,1.32-2.44c-2.55-0.3-3.16,1.73-4.48,2.75c-1.02-0.41,0.2-1.73-0.92-2.14
		c-1.42-0.1-1.42,1.43-2.03,2.24c-3.74,4.98-3.97,1.18-6.92,3.15c-4.07,3.16-9.16,5.09-12.41,9.87c-0.2-2.04,1.63-3.26,0.92-5.09
		c-2.24,0.4-2.03,2.44-3.05,3.76c-0.61,0.51-1.35-1.14-2.24-0.2c-2.08,2.19,1.33,5.09-0.81,7.43c-1.63-0.21-1.53-2.44-3.87-2.24
		c-2.84,1.32,0.41,3.15,0.41,4.88c-0.1,1.12-1.83,0.91-1.83,2.54c2.23,2.04-1.94,4.99,0.81,7.43c-1.43,0.92-2.65,1.42-4.07,1.53
		c-6.21,0.47-12.21,2.13-18.31,3.15c-3.05,0.51-5.75,1.92-6.71,5.29c-0.93,3.25-6.13,9.51-0.92,18.31
		c12.22,20.65,21.83,27.47,30.82,44.45c2.26,4.26,5.7,7.72,8.85,11.29c5.92,6.7,10.76,14.28,16.38,21.36
		c1.5,1.88,0.37,10.92,6.41,20.85c5.81,9.54-21.72,40.43-48.01,119.31c-37.91,7.36-52.9,7.71-54.72,11.49
		c-2.82,5.86-6.2,11.49-9.15,17.39c6.21-3.67,8.14-10.48,11.8-16.38c18.21-4.06,37.13-5.79,55.74-10.98
		c4.34,2.76,12.01,5.87,10.62,1.01c-14.75-6.04-12.3,4.52-4.82-16.68c1.08-3.06,1.73-11.68,11.39-30.72
		c5.87-11.56,6.51-16.45,30.92-66.52c2.44,2.75,4.78,5.4,7.12,8.04c-3.46,8.04-7.22,15.97-11.29,23.6
		c-18.1,33.88-17.25,45.79-31.23,65.91c-2.74,3.94-3.84,8.42-3.69,8.49c0.67-0.51,1.84-1.75,1.24,0.19
		c-2.25,7.28,2.15,0.71,1.48-1.42c12.7-18.48,17.01-32.14,25.68-54.45c4.87-12.52,6.96-11.84,19.43-40.07
		c1.32,2.34,3.15,3.56,4.88,4.98c-5.39,12.71-9.32,25.85-14.95,38.24c-7.57,16.67-13.53,20.8-15.97,32.45
		c-0.2,1.32-1.02,2.64-1.73,3.76c-3.45,5.4-4.94,11.56-7.63,17.29c-0.1,0.21,0.31,0.61,0.51,1.12c2.85-0.4,3.35-2.85,3.87-4.88
		c2.06-8.04,7.03-13.9,8.34-19.83c2.32-10.5,10.2-13.24,24.11-53.2c1.71-4.89,3.67-9.76,5.7-15.05c5.29,2.85,10.47,2.95,14.95,0.51
		c14.24,17.7,26.95,35.9,41.6,52.28c1.32-0.2,0.2-1.22,1.32-1.42c8.07,6.31,15.87,8.36,18.61,12.41c2.75,4.06,6.41,6.61,10.68,8.95
		c-1.83,3.56-3.15,7.12-4.07,10.88c-55.75,9.86-52.86,10.2-56.55,6.41c-0.36-0.47-10.42-4.37-21.87-3.05
		c-7.94,0.92-15.67,2.74-23.6,3.66c-7.17,0.83-14.41,1.14-21.49,2.56c-0.86,0.62-0.5,0.52-1.26,0.24
		c-12.39,2.79-10.58,5.3-11.29,5.41c2.79,0.13,31.13-0.46,41.27-0.8c68.41-2.31,90.51-13.35,94.08-10.58
		c-1.04,18.89,7.98,41.93,2.85,38.85c-4.58-2.74-9.76-3.05-14.85-3.66c-6-0.71-11.79-2.68-17.9-3.05
		c-0.27-0.01-80.81-7.16-104.46-10.27c-2.34-0.31-4.78-1.22-7.12,0.51c7.73,1.94,15.77,2.65,23.6,3.87
		c-25.94,5.39-52.38,8.03-78.32,14.34c2.03-4.27,3.96-8.64,6.1-13.12c18.11-3.36,36.72-4.99,55.13-11.19
		c-2.34-2.03-3.87-1.04-5.29-0.71c-57.86,13.37-75.13,1.82-52.59,12c-2.24,4.78-4.27,9.66-7.02,14.54
		c-4.47-0.61-8.54-3.46-13.22-3.05c-0.1,2.24,1.63,2.32,2.87,2.67c12.24,3.23,7.71,0.72,61.84-7.42
		c51.06-7.68,23.45-8.69,82.49-2.95c12.22,1.18,59.12,5.92,70.28,10.98c0.05,0.1,4.07,26.52,2.54,46.38
		c-0.92,1.02-2.14-0.3-2.75,0.51c-1.22,1.12,0.1,2.55-0.61,3.87c-6.41-0.27-4.87,18.52-6.2,20.85c-2.66,4.67-1.62,9.66-1.02,14.54
		c0.42,3.35,2.75,4.98,5.8,5.39c10.61,1.44,6.03,13.74,33.16,18c26.9,4.23,27.39-1.22,32.34-1.22c8.67,0.46,6.9-14.34-4.07-14.34
		c-7.22-7.42-14.54-14.24-18.1-23.9c2.86-0.95-0.64-3.04-0.51-5.59c-0.04-0.1,25.69-2.9,52.18-11.19
		c11.91-3.73,24.21-4.88,36.31-8.75c1.22,9.46,8.56,11.66,15.87,13.63c12.71,3.42,14.94-1.14,20.55-0.1
		c34.89,6.44,27.53,8.3,48.52,11.29c8.64,1.23,10.09-5.9,16.99-9.36C901.44,460.03,900.71,452.99,897.41,447.77z M567.33,97.25
		c0,1.12,1.23,0.81,0.92,1.93C566.93,99.49,566.42,99.18,567.33,97.25z M565.4,94.91c-0.61,2.44-2.13,2.85-3.66,3.25
		C562.65,96.94,562.96,95.22,565.4,94.91z M676.57,241.68c-0.5,0-0.91,0-1.83,0C676.76,241.46,676.57,241.34,676.57,241.68z
		 M684.61,237.92c4.68-4.47,10.48-2.95,15.97-3.05C695.29,236.19,689.69,235.78,684.61,237.92z M633.14,149.23
		c1.43,1.12,0.21,1.83,0.31,2.75C633.04,151.16,632.53,150.35,633.14,149.23z M608.72,126.64c13,13.37,15.44,22.14,18.82,39.26
		c1.55,7.83-0.3,14.95-5.49,21.26c2.55,0,4.29-1.32,4.58-3.66c0.52-4.15,3.17-5.81,2.95-10.78c-0.59-13.3-5.16-31.73-13.43-40.48
		c-6.95-7.35-6.09-6.24-4.58-8.65c1.23,0.71,2.95-0.2,3.87,1.02c3.36,4.47,8,7.95,10.58,13.22c17.05,34.76-0.13,66.88-13.64,45.66
		c-0.98-1.54-2.13-3.15-1.42-4.88c2.23-5.4-0.43-11.03,1.22-16.38c0.19-0.61-0.11-1.82-0.51-2.03c-3.28-1.69-2.85-5.29-4.17-7.93
		c-2.03-1.83-3.15-4.98-6.71-4.98C601.91,139.56,599.67,131.01,608.72,126.64z M552.58,136.81c8.97-8.81,18.86,12.05,20.65,18.82
		c1.32,4.99,2.83,9.98,4.07,14.95c3.48,13.91-0.04,36.59-11.9,28.68c-7.56-5.04-11.09-12.71-13.63-20.95
		c2.54-1.83,5.59-1.73,7.22-3.97c2.88-3.95,2.76-7.84-1.42-10.78c-2.87-2.01-5.29,0.82-8.04,0.51c-0.41-2.13-0.54-4.26-1.22-6.1
		C546.36,152.71,547.41,141.89,552.58,136.81z M547.4,167.13c5.91-1.87,10.17-3.63,11.49,0.61c1.67,5.34-5.63,7.54-11.19,8.14
		C548.22,171.08,545.18,166.39,547.4,167.13z M543.33,136.82c0.32-1.53,1.63-1.94,3.36-1.53c-2.13,3.04,4.74,0.86-0.31,5.9
		C544.65,140.07,542.84,139.16,543.33,136.82z M541.5,130.72c-0.4,0.4-0.71,0.71-1.32,1.42
		C540.28,130.92,540.18,130.21,541.5,130.72z M537.02,133.97c0.51,0.61,0.31,0.92-0.31,1.12
		C536.51,134.58,536.41,134.17,537.02,133.97z M533.97,132.75c0.71,0.91,0.71,1.83,0.31,3.15
		C533.16,134.68,533.26,133.77,533.97,132.75z M567.35,259.38c4.76,1.21,5.99,0.81,8.42-2.95c-0.61,0.17-7.3,2.04-8.43,2.94
		c0,0,0,0,0,0c-13.88-11.65-8.01-34.06-18.21-59.1c-4.29-10.54,1.36-12.25,0-20.04c-4.88,2.54-3.25,7.32-4.37,11.19
		c-3.56-3.05-5.89-7.22-10.37-9.15c-3.05,2.95-4.07,6.72-5.8,9.97c1.03,0.52-0.33,1.82,6.61-8.24c2.04,2.34,4.28,3.97,5.7,6.31
		c-0.1,1.63-1.42,2.64-1.83,4.17c1.73-0.4,2.03-2.03,3.05-2.64c3.15,1.53,2.94,4.48,3.76,7.12c1.01,3.26-2.34,5.09-2.44,8.04
		c1.63-1.02,1.73-2.95,3.46-4.07c3.46,7.12,6,14.45,5.39,22.99c-6.31-8.74-12.63-16.86-19.53-24.61c-3.97-4.46-6.1-10.06-9.66-14.54
		c0.61-2.34,2.03-3.97,2.34-6.41c-1.83,1.42-1.83,3.56-3.15,4.88c-0.44-0.26-27.61-35.06-26.95-38.96c0.71-4.17,1.22-8.34,4.07-12
		c0.81,2.44,1.42,4.68,3.25,6.51c1.68-4.72-13.08-10.45,20.85-13.22c2.85,5.18,2.53,11,8.24,14.54c4.46,2.76,8.13,7.42,10.98,11.49
		c3.02,2.08,2.92-5.36,3.87,10.78c0,0.4-0.1,0.71-0.2,1.42c-8.46-0.98-11.51,8.88-3.76,13.02c-4.02-7.03-0.96-12.05,2.95-8.44
		c-0.71,2.84,1.02,6-2.03,9.15c10.03-0.87,2.97-1.61,9.15,8.75c7.23,12.12,8.6,12.14,16.58,14.65c8.14,2.56,10.88-11.35,12.1-19.73
		c1.22,1.53,2.14,2.65,2.75,3.36c0.1,8.24-3.33,15.26-5.49,22.58c-3.9,13.17-7.58,13.31-12.82,18.61
		c-5.01,5.06-6.31,12.21-3.36,18.82c0.1-2.14,0.38-4.07,0.2-5.9c-0.89-8.93,10.02-13.09,13.63-20.75c0.36,0.71-0.09,3.75,1.73,0.71
		c1.73-2.44,0.91-5.39,1.93-8.14c4.14-11.18,11.52-27.55,0.71-32.85c-0.5-8.04-1.83-15.66-4.98-23.09c1.73-0.71,2.96-2.57,4.88-1.63
		c3.81,1.85,0.46,8.34,3.25,8.54c1.83-3.25,0-6.51-0.31-9.66c3.05-2.14,3.05-2.14,7.32-0.41c0.2,2.34-1.12,4.99,1.12,7.53
		c1.96-3.54-1.41-8.64,3.25-8.85c4.23-0.19,2.43,5.84,3.87,8.85c2.64-3.56,1.32-6.71,0.51-9.89c4.29-1.75,4.17,1.75,8.14,6.92
		c3.62,4.7,2.01,17.32,0.61,22.78c-1.47,5.75,2.49,9.02-0.61,18.31c-2.14,6.41-2.44,13.02-2.85,19.63c0.71-1.62,0.41-3.45,1.73-4.98
		c0.68,9.45-1.13,34.3-8.95,46.18c-0.73,1.11-1.11,2.45-1.42,3.87C593.63,275.73,577.49,275.42,567.35,259.38z M602.43,281.05
		c13.03-8.69,13.35-8.56,13.83-10.48c-14.89,8.04-14.09,14.75-20.54,0.11c2.95-4.28,2.64-10.48,7.73-12.82
		c-0.51-3.77,1.62-6.31,1.93-9.26c8.44,1.56,6.68,7.01,11.6,8.65c0.92,0.31,1.94,0.61,2.75,1.53c-0.3,1.83-1.84,4.51,1.02,5.39
		c4.15,1.27,4.98,4.78,6.81,7.93c-1.63,1.94-3.05,3.77-4.58,5.7c-4.39-4.39-5.37-7.83-6.61-7.83c-0.29,1.17-0.13,0.08,4.17,8.95
		c4.38,9.05,0.37,11.51,1.12,13.02c2.49-1.25,1.32-1.21,3.15,3.15c0.81,1.93-0.39,4.46,0.81,5.9c2.79,3.32,1.73,7.22,2.24,10.98
		C617.59,303.22,611.28,291.12,602.43,281.05z M627.24,287.96c-1.32-3.56-2.84-7.12,0.92-10.88
		C627.45,281.05,627.45,284.5,627.24,287.96z M626.23,264.18c1.32-4.28,5.09-6.82,7.02-10.48c-3.56,2.14-5.9,5.6-8.34,8.75
		c-1.43-1.02,0.61-2.04-0.41-2.75c-1.22,0.21-0.92,2.14-2.75,2.14c0.21-1.62,1.21-3.34-0.1-4.98c-3.94-4.94-7.89,2.88,1.73-11.8
		c-3.66,1.12-5.9,3.97-8.24,7.12c-2.74-2.95-6-4.68-9.15-6.61c2.84-9.87,2.33-20.04,2.64-30.11c2.14,0,3.05,2.24,5.19,1.83
		c-1.22-2.14-3.66-2.75-4.88-4.48c-0.72-9.46,2.74-18.51,0.81-28.58c3.46,2.95,5.7,5.9,9.46,6.31c3.87,2.23,5.99,1.91,8.75-1.02
		c2.12-2.25,3.56-4.78,4.58-7.73c6.7-19.37-0.48-25.59,3.56-28.28c2.13-0.51,3.65,0.2,4.88,2.03c1.92,2.86,4.58,5.19,6.2,8.14
		c7.84,14.28,21.23,14.93,24.11,24.92c2.92,10.14,11.18,18.62,10.07,19.73c-7.42-2.85-12.1-8.65-16.27-15.16
		c2.54,7.43,7.84,12.4,14.44,15.87c10.66,5.62,8.05,13.14,21.05,19.43c-8.84-1.63-16.57-3.87-25.22-6.31
		c5.15,5.88,30.15,7.87,32.45,10.17c-16.02,0-24.14-1.53-26.45,6.61c-2.13,0.4-3.66-1.02-5.49-0.41
		c-13.02,4.34-17.78-8.5-43.74,24.41c-1.53,1.93-2.75,4.07-2.85,6.83C627.45,267.94,629.18,264.59,626.23,264.18z M630.4,314.61
		c4.17,2.04,7.32,4.07,9.36,7.53C636.71,320,633.25,318.48,630.4,314.61z M642.4,319.7c3.56,2.64,6.71,5.69,8.14,10.27
		C645.76,328.03,644.94,323.15,642.4,319.7z M539.67,369.12c1.22-3.53,12.23-1.49,23.09-3.56c11.64-2.22,30.37-6.09,39.36,0.41
		C581.17,367.7,560.62,368.51,539.67,369.12z M863.81,437.57c-0.61,0.1-1.12,0.31-1.93,0.51
		C862.13,435.9,863.44,436.24,863.81,437.57z M857,434.83c0.92-0.51,1.73-1.43,2.95-0.61C859.16,435.79,856.04,435.47,857,434.83z
		 M846.63,412.04c1.32,5.29,3.96,9.67,6,14.44c-2.85,0.81-2.64-3.06-4.78-2.75c-0.71,1.53,1.43,2.04,1.02,3.36
		C843.19,428.19,843.65,416.01,846.63,412.04z M748.79,297.82c19.96-15.34,13.41-27.15,28.17-46.58c1.23-1.62,3.24-3.24,5.59-2.34
		c7.91,3.02,16.09,5.25,23.19,10.07c25.9,17.58,36.36,14.65,42.62,24.82c1.43,2.33,2.86,4.28,1.93,7.12
		c-1.89,5.79,2.39,12.97,0.92,22.48c-3.47,22.42-3.29,36.28-7.12,49.64c-5.32,18.58-1.62,54.2-4.88,57.66
		c-5.9,0.61-11.49,4.38-17.9,3.97c-0.81-2.85,0.21-5.7-1.32-8.65c-1.42,3.16-0.1,6.21-1.93,8.65c-2.95,1.12-4.38-2.65-7.63-1.73
		c4.84-8.87,8.15-44.97,2.54-54.31c-2.02-3.37-1.95-7.72-3.56-11.09c-4.82-10.09,1.23-31.39,4.98-41.91c0.92-0.31,1.73,1.42,2.85,0
		c-2.44-3.15-3.69-8.16-9.56-6.61c-1.92,0.5-21.9-7.44-30.72-7.53c-0.99-0.01-5.17-2.81-9.36-1.22c9.46,2.74,18.51,3.86,27.26,7.22
		c-9.05,3.56-44.04,0.82-48.82-3.76C746.04,298.46,745.62,301.78,748.79,297.82z M813.38,429.34c-1.02-1.33-2.14-2.14-2.14-4.58
		C812.26,426.59,814.39,426.79,813.38,429.34z M760.59,311.46c-6.41,3.36-11.09,1.93-14.14-4.68
		C751.13,310.34,755.81,310.95,760.59,311.46z M741.16,318.68c1.77,12.08-0.28,21.51-12.51,28.18c-6.39,3.48-12.31,2.44-17.8-2.95
		c5.16-10.96,5.56-11.33,8.75-16.38c12.86,2.37,14.41-7.62,9.05-13.53c0.61-2.54,1.93-4.88,3.76-7.12
		C738.92,307.72,740.27,312.57,741.16,318.68z M715.43,349.79c-2.44-0.31-5.29,0.2-5.29-3.56
		C711.87,347.35,713.6,348.57,715.43,349.79z M726.82,316.44c3.54,6.41,0.26,10-4.27,8.24
		C721.43,320.71,725.09,319.39,726.82,316.44z M731.4,302c0.1-1.32,0.51-1.63,1.22-1.63C732.21,300.88,732.01,301.19,731.4,302z
		 M727.73,304.45c1.42-0.72,1.93-1.02,2.95-1.53c-6.71,11.9-14.34,22.48-20.14,34.58c-0.82-1.73-0.42-2.75,0.1-3.76
		c4.84-9.31,0.54-13.14,3.36-19.53c5.01-11.37,0.08-26.71-4.17-30.11c-1.42-1.32-2.84-2.75-4.37-4.17
		c13.33-11.09,27.57-18.51,45.67-15.46C747.06,279.72,735.97,290.81,727.73,304.45z M705.54,272.3c-1.62,0-0.69-9.37-0.69-9.47
		c1.63,2.44,0.71,5.5,4.07,6.92c-1.77-10.88-8.12-7.14,4.27-16.68c7.7-5.93,16.07-7.42,25.63-4.78c7.02,1.94,8.85,7.63,12.01,13.02
		c-13.82-0.71-27.36,1.92-41.7,12.61c-1.19-0.89-2.29-1.49-3.56-1.61c0.12,1.3,1.62,1.72,2.03,2.93c-1.02,1.12-1.93,2.14-3.46,3.97
		C704.54,276.26,703.42,274.03,705.54,272.3z M698.14,272.2c0.4,0.51,1.01,1.01,1.12,2.03C698.34,273.73,697.73,273.22,698.14,272.2
		z M667.02,386.2c-7.1-41.59,0.68-27.71,4.68-49.84c1.98-10.94,4.44-16,0.51-16.26c0.41,2.54,1.21,4.86-0.71,7.41
		c-2.05,2.74-3.93,3.34-5.49,0.31c-1.89-3.68-4.27-7.22-5.39-11.39c1.93,1.83,4.37,3.05,5.59,5.49c-2.43-0.34-0.1,2.93,2.03,3.36
		c0.09-1.3-0.99-1.56-1.66-2.9c1.84-0.91,8.43,6.76-8.41-13.78c-6.79-23.26,12.85-30.22,18.41-36.21
		c6.21,0.81,12.51,0.51,18.92,1.83c9.58,10.61,24.04,18.88,16.58,37.02c-3.78,9.18,2.73,12.14-4.78,24
		c-0.4,0.62-1.02,1.01-1.02,1.93c1.94,36.86,2.53,39.18-5.29,56.45c-3.77,8.34-4.68,17.6-8.34,25.94
		c-5.83,13.26-0.33,25.27-0.92,28.58c-0.91,0-1.73-0.1-2.44-0.2c-10.71-1.45-6.68,6.41-14.54,6.41c-6.88-5.07-5.61-2.73-4.68-7.83
		c1.88-10.3,1.72-20.65,0.1-30.92C668.63,405.84,668.66,395.87,667.02,386.2z M678,456.8c-0.31,4.37-3.77,3.76-6.41,4.88
		c-0.92-2.24-2.85-3.56-2.95-6.41C671.8,457,674.85,456.8,678,456.8z M705.76,479.67c1.73,2.95,3.26,5.39,4.68,7.83
		c-1.72,1.57-6.41,1.02-7.63,2.24c1.93,2.75,3.26,2.65,8.24-0.2c4.58,2.13,8.66,4.61,11.19,9.05c1.11,1.95,5.65,2.08,6.51,3.66
		c1.52,12.9-45.64,9.64-54.72-4.37c-2.44-3.76-4.69-7-9.87-6.71c-3.72,0.21-5.47-3.22-4.48-5.19c1.12,0.1,0.92,1.93,2.24,1.73
		c1-1.66-4.75-6.12-0.71-13.93c6.14-11.86-0.15-14.6,2.34-17.09c3.46,1.53,4.07,5.9,7.35,7.84c2.95-2.04,6.61-2.14,9.15-4.68
		c0-1.53-0.11-3.05,0.81-4.58c5.37-2.98,1.83-1.92,1.83-3.25c1.23-2.67,4.39-0.77,9.97-1.02c4.19-0.19,5.61,5.59,5.49,8.34
		c-3.97,1.52-8.83,1.55-12.31,4.37c-3.43,2.77-8.44,2.95-11.39,6.2c0.81,1.63,2.13,0.3,2.44,0.71c1.01,1.93-0.31,3.26,0.2,4.68
		c2.03,0.91,3.56-1.53,5.59-0.92c-0.61,1.12-2.04,1.42-1.63,3.15c2.23,3.05,5.49-0.81,7.93,0.61c0.1,3.97-4.48,1.84-5.7,5.09
		C691.52,486.08,698.74,484.04,705.76,479.67z M681.05,470.73c6.1-3.56,13.02-3.25,19.73-4.17
		C694.27,468.29,687.46,468.49,681.05,470.73z M702.31,475.51c-0.2-1.63-1.12-2.75-2.95-4.17
		C702.61,472.36,702.82,472.77,702.31,475.51z M692.24,463.91c2.24-0.81,4.27-2.13,7.63-0.71
		C696.81,464.22,694.58,464.22,692.24,463.91z M794.76,445.2c-12.4,3.82-26.94,4.9-38.14,9.46c-2.97,1.21-50.56,10.82-51.03,12.13
		c-0.72,0,1.88,3.69-4.79-6.54c1.63-1.52,1.94-3.46,1.63-5.49c5.8-2.24,11.9-1.83,17.29-4.58c-6,0.41-12.01,1.43-18.21,2.85
		c-1.63-3.15-4.78-3.97-7.73-4.78c0-31.24-1.89-25.38,13.12-59.91c9.62,22.78,17.67,47.9,17.9,47.9c0.99-2.34-0.62-3.75,0.19-5.58
		c2.13,2.65,3.05,5.9,6.2,7.53c-0.51-5.19-4.88-8.75-6.51-14.24c4.58,5.39,8.95,9.87,14.34,13.63c4.01-4.9,9.57-0.47,35.09-8.24
		c3.15-0.73,1.94-0.44,13.02,3.15C791.81,434,795.37,439.81,794.76,445.2z M792.53,431.57c-16.32-4.99-15.45-5.62-17.9-4.88
		c-22.52,6.76-29.84,4.51-36.11,7.73c-15.37-13.17-17.05-13.92-18-16.88c-6.51-20.24-13.17-31.45-12-35.29
		c4.26-13.95,0.41-26.81,1.12-31.23c8.68,3.41,34.04-0.19,34.58-22.78c0.12-4.99,0.41-9.97-0.61-15.16c2.54,0,4.58,0.81,6.41,1.83
		c4.38,2.43,8.24-0.87,12.41-0.92c0.2,0,0.61-0.4,0.71-0.71c1.3-4.01,32.3-0.16,34.07-1.93c2.19-2.2,4.6-0.92,12.41,1.42
		c1.32,1.93,1.51,3.96,0.81,5.9c-1.76,4.87-2.14,10.17-3.56,15.05c-7.25,24.99,7.36,35.27,6.1,54.01
		c-0.53,7.94-1.33,22.39-3.66,31.23c-6-3.85-8.02,5.3-8.44,12.41c-0.19,3.15-1.22,6.1-4.27,7.93
		C794.56,436.96,793.75,434.11,792.53,431.57z M881.92,465.95c-0.92,0.81,0.71,1.32,0.1,2.03c-5.15,2.3-28.85-6.89-50.24-9.66
		c-3.53-0.45-28.01,4.82-34.77-8.74c1.52-2.54,0.63-5.98,2.64-8.34c3.18-3.74,4.16-8.34,4.98-12.92c1.85-10.3,3.08-4.85,3.05-4.68
		c-0.46,2.86,1.19,4.8,2.54,6.92c3.19,5.03,7.02,8.45,13.12,5.7c1.42,0.41,1.11,2.23,2.54,1.83c1.83-0.51,3.06-1.82,4.07-3.25
		c7.27-10.3,8.23-6.17,8.75-9.26c-7.02-1.22-7.93,5.9-11.8,8.65c-2.24-0.82-4.37-0.42-6.51-0.31c-3.97,0.2-6.1-2.74-4.27-6.2
		c7.93,1.32,15.36-1.83,22.07-4.17c1.63,0.91,0.92,2.54,2.34,3.15c1.53-1.32,2.65-0.71,3.46,1.02c-3.87,1.93-8.75,1.52-11.8,5.59
		c2.95,0.92,12.92-1.73,21.26-5.39c5.99,3.43-7.35,1.71-13.63,7.12c1.53,3.25,4.07,1.83,5.9,2.54c2.44,4.67,6.72,2.74,10.48,2.64
		c-1.02,2.03-3.66,1.22-4.58,3.15c2.32,5.9,9.81,0.31,14.44-3.97c9.25,3.97,17.19,9.87,27.46,11.29
		C899.28,456.02,894.36,467.12,881.92,465.95z"/>
	<path d="M525.35,371.74c-0.13,0-0.23-0.01-0.24-0.02C525.22,371.75,525.29,371.76,525.35,371.74z"/>
	<path d="M215.82,246.46c-16.93,5.04-24.11,28.47-22.38,46.38C195.68,274.84,199.14,257.65,215.82,246.46z"/>
	<path d="M662.74,249.72c-17.08,4.99-24.38,28.93-22.28,46.28C642.79,279.33,646.21,259.76,662.74,249.72z"/>
	<path d="M198.64,281.25c3.35-6.72,6.3-13.63,10.88-19.33c-1.22-1.42-2.03-1.21-2.54-0.3C203.46,267.85,200.27,274.23,198.64,281.25
		z"/>
	<path d="M656.33,264.87c-1.01-1.01-1.73-1.11-2.13-0.61c-3.87,6.31-7.02,12.92-8.75,20.24
		C648.91,277.79,651.85,270.77,656.33,264.87z"/>
	<path d="M202.5,232.94c-0.3-0.41-0.51-0.71-0.71-1.02c-6.91,4.17-12.92,9.35-19.12,14.44C183.55,247.68,181.29,248.42,202.5,232.94
		z"/>
	<path d="M159.69,225.61c-9.05,1.94-18.31,2.95-26.65,7.53C141.99,230.59,150.84,228.15,159.69,225.61z"/>
	<path d="M227.73,213.2c-2.14-2.23-7.23-1.62-16.99,1.83C216.44,215.23,221.73,212.49,227.73,213.2z"/>
	<path d="M65.71,148.62c-1.33-3.77-4.58-6.31-6.52-9.56c0.31,3.36,3.16,5.39,4.48,8.14c0,2.04-1.93,3.36-1.93,5.29
		C63.68,151.87,63.17,149.03,65.71,148.62z"/>
	<path d="M202.09,239.65c4.28-1.42,8.45-2.95,12.1-5.39C209.82,235.48,205.45,236.5,202.09,239.65z"/>
	<path d="M253.05,254.2c-2.14-2.04-4.78-2.65-7.53-2.85C247.97,252.67,249.9,255.31,253.05,254.2z"/>
	<path d="M700.68,257.24c-2.75-1.83-5.39-2.44-8.24-3.25C694.88,257.04,697.73,258.26,700.68,257.24z"/>
	<path d="M304.82,271.18c2.75,0.51,4.78-0.92,7.12-1.53C311.63,268.72,312.64,268.34,304.82,271.18z"/>
	<path d="M758.76,272.2c-2.34,0.71-4.89,0.91-6.92,2.64C754.28,274.44,756.62,273.62,758.76,272.2z"/>
	<path d="M214.3,201.41c2.13,0.61,4.47,0,6.71,1.93C219.38,200.29,218.88,200.18,214.3,201.41z"/>
	<path d="M53.3,147.19c1.73-1.22,2.44-3.05,3.15-4.88C54.52,143.43,53.91,145.26,53.3,147.19z"/>
	<path d="M247.77,242.4c0.91,0.51,1.73,0.31,3.15,0C249.49,242.09,248.68,241.99,247.77,242.4z"/>
	<path d="M694.78,245.45c0.71,0.51,1.63,0.51,2.44,0.2C696.51,244.94,695.7,245.55,694.78,245.45z"/>
	<path d="M190.09,226.53c-0.31-0.72-0.71-0.51-1.12-0.41C186.11,227.84,188.8,227.39,190.09,226.53z"/>
	<path d="M378.16,363.22c10.81-19.88,6.23-10.62,8.44-26.85c0.74-5.46-3.7,0.19-3.05,6.81C384.7,354.9,371.02,356.94,378.16,363.22z
		"/>
	<path d="M373.88,294.99c-2.03-3.46-10.07-6.01-15.56-5.09C361.07,295.9,370.02,298.95,373.88,294.99z"/>
	<path d="M351.09,290.81c-0.23-6.28-7.82-2.56-15.05-8.54c-2.11-1.75-5.18-1.11-7.93-1.42c-0.1,0.2-0.1,0.51-0.2,0.71
		c4.37,1.62,8.54,3.56,13.02,4.98C344.49,287.66,348.36,287.56,351.09,290.81z"/>
	<path d="M389.25,361.49c2.13-8.85,2.33-17.9,2.75-26.95C390.37,343.39,389.15,352.34,389.25,361.49z"/>
	<path d="M387.92,287.05c-0.83-1.66,0.37-1.83-10.17,5.9C382.13,292.34,385.48,290.4,387.92,287.05z"/>
	<path d="M390.97,291.63c3.87,1.01,1.53,5.59,4.07,7.42C397.38,293.99,393.39,287.76,390.97,291.63z"/>
	<path d="M396.36,308.61c0.82-3.15-0.5-5.08-1.93-7.43C393.41,304.44,393.72,306.07,396.36,308.61z"/>
	<path d="M390.57,276.67c-0.61,2.65,1.32,4.68,1.42,7.02C393.52,279.52,393.21,278.4,390.57,276.67z"/>
	<path d="M385.38,330.27c2.34-2.55,2.14-4.99-0.51-8.04C385.07,324.98,385.18,327.63,385.38,330.27z"/>
	<path d="M389.75,320.71c-1.02,1.83,0,3.26,0.51,5.19C391.18,323.35,391.08,322.85,389.75,320.71z"/>
	<path d="M380.5,395.46c1.12-2.23,0.91-4.27,1.02-6.1C380.4,391.09,379.38,392.82,380.5,395.46z"/>
	<path d="M384.46,299.66c-0.61-1.53-1.93-1.83-3.15-2.34C381.51,300.07,381.51,300.07,384.46,299.66z"/>
	<path d="M318.15,295.59c-2.03-0.81-3.25-1.02-5.49-0.61C314.69,296,315.91,296.71,318.15,295.59z"/>
	<path d="M386.8,367.7c-0.81,0.71-1.52,1.52-0.81,3.05C388.16,368.36,387.31,367.19,386.8,367.7z"/>
	<path d="M385.89,317.46c-0.82,0.3-1.12,0.61-1.02,1.22C385.48,318.78,385.79,318.48,385.89,317.46z"/>
	<path d="M257.33,321.23c4.05,2.25,10.85-23.18,0.2-24.11c9.23,15.39,2.64,9.61,2.65,17.7
		C259.97,317.26,258.14,319.09,257.33,321.23z"/>
	<path d="M245.83,318.07c0-11.45-5.89-11.27-4.27-19.02c-2.85,1.63-2.78,3.67-2.24,5.29C240.86,308.95,242.88,313.39,245.83,318.07z
		"/>
	<path d="M247.25,408.89c1.22-7.53,2.55-14.95,3.76-22.78C248.27,390.38,245.72,403.8,247.25,408.89z"/>
	<path d="M229.15,428.52c0.71,6-3.15,10.88-4.07,17.09C229.46,442.15,231.39,433.4,229.15,428.52z"/>
	<path d="M252.64,357.42c0,6.51-2.44,13.02-0.61,19.43C251.93,370.34,253.36,363.83,252.64,357.42z"/>
	<path d="M246.84,336.16c0.21-0.2,0.51-0.41,0.41-0.51c-3.77-9.54,4.43-13.51-2.34-15.66C248.73,325.89,240.21,327.04,246.84,336.16
		z"/>
	<path d="M224.57,308.41c1.63,2.64,1.43,5.29,2.54,7.93C229.55,313.39,228.64,310.65,224.57,308.41z"/>
	<path d="M227.83,416.73c1.62-2.65,1.83-5.29,0.81-8.04C227.56,408.69,227.83,407.47,227.83,416.73z"/>
	<path d="M218.27,303.42c0.3,2.55,2.84,2.95,4.58,4.07C222.64,304.64,220.41,304.13,218.27,303.42z"/>
	<path d="M254.07,343.9c-1.63,3.15-1.73,5.59-1.22,8.24C253.87,349.7,254.48,347.26,254.07,343.9z"/>
	<path d="M223.15,314.41c-0.19,2.72,1.99,2.78,2.05,2.49C225.2,314.78,224.4,315.38,223.15,314.41z"/>
	<path d="M107.81,291.33c-6.69,12.75-6.44,39.16-6.71,44.65c1.53-1.53,1.22-3.06,1.22-4.48
		C102.32,308.44,105.9,301.85,107.81,291.33z"/>
	<path d="M86.04,368.4c0,4.15,6.58-11.38,5.09-21.66C91.74,354.47,87.17,360.98,86.04,368.4z"/>
	<path d="M95.31,320.31c-1.12,6.3,1.42,12.31,1.32,18.51C99.68,332.4,94.69,326.5,95.31,320.31z"/>
	<path d="M92.86,300.47c-0.61-3.45-0.4-7.12-2.34-10.27C91.44,293.55,90.72,297.32,92.86,300.47z"/>
	<path d="M91.85,305.25c-0.11,1.53,0.61,2.45,1.53,3.15C93.27,307.18,93.17,306.06,91.85,305.25z"/>
	<path d="M98.46,371.56c1.22-1.12,1.02-2.03,0.51-2.95C97.85,369.32,97.54,370.14,98.46,371.56z"/>
	<path d="M91.34,192.56c0.61-1.12-0.21-1.63-1.02-2.95C89.81,191.44,90.32,192.05,91.34,192.56z"/>
	<path d="M98.97,365.36c0.38,0.38,1.4,0.34,0.81-1.42C98.97,364.24,98.56,364.65,98.97,365.36z"/>
	<path d="M107.82,289.08c0,1.02,0,1.63-0.1,2.24C108.02,290.71,108.43,290.2,107.82,289.08z"/>
	<path d="M108.83,285.42c-0.1,0.31-0.21,0.72,0.1,0.92C109.04,286.03,109.14,285.73,108.83,285.42z"/>
	<path d="M101.92,246.46c0,0.41,0,0.72,0,1.12C102.33,247.17,102.43,246.87,101.92,246.46z"/>
	<path d="M253.26,428.93c1.42,3.45,2.64,7.01,4.88,10.37c-3.46,1.12-7.22-0.41-9.56,3.15c4.17-0.61,8.44-1.32,12.51-1.92
		c-3.36-7.84-5.7-15.87-11.19-22.38C249.29,422.32,251.84,425.47,253.26,428.93z"/>
	<path d="M250.1,414.18c7.64,7.62,18.07,15.11,26.55,23.29C276.19,434.18,259.4,418.83,250.1,414.18z"/>
	<path d="M287.95,443.07c1.52,0.61,3.06-0.07,4.37-0.41c8.7-2.23,17.56-3.64,26.34-5.29C326.19,435.95,313.46,435.84,287.95,443.07z
		"/>
	<path d="M320.69,436.66c4.98,0.61,9.57-1.86,14.44-2.44C340.67,433.56,346.56,429.15,320.69,436.66z"/>
	<path d="M424.85,442.24c-3.26,0.21-6.51,1.43-9.97,2.14c2.03,3.86,2.34,3.86,10.27-0.41c0.51,1.53,0.1,3.91,2.54,3.97
		c2.24,0.05,3.86-1.32,4.88-4.17c-2.23,0.41-3.66,0.71-4.98,1.02C426.17,444.39,426.07,442.96,424.85,442.24z"/>
	<path d="M374.4,438.79c-2.34,1.02-2.75,2.24-2.54,7.53c3.05,0.71,6.01,2.14,8.34-1.22C382.39,441.93,379.12,437.22,374.4,438.79z
		 M375.41,445.61c1.93-2.95-0.61-2.24-1.83-2.75C375.62,436.08,382.97,444.95,375.41,445.61z"/>
	<path d="M386.19,439.2c-5.78,0-5.96,8.85,0.1,8.85C392.38,448.05,392.4,439.2,386.19,439.2z M386.19,446.22
		c-2.8,0-3.63-4.51,0.2-5.19C390.04,441.87,389.38,446.22,386.19,446.22z"/>
	<path d="M399.11,441.03c-2.26-1.46-9.23-1.21-6.71,3.26c0.91,1.62-0.21,2.54-0.31,3.76c2.24,1.22,2.34-2.03,4.07-1.83
		c1.12,0.4,0,2.03,1.73,2.64C399.62,446.32,399.01,443.67,399.11,441.03z M393.82,442.76c1.42-0.81,2.54-1.12,3.66,1.02
		C395.75,444.39,394.64,444.49,393.82,442.76z"/>
	<path d="M241.15,129.09c-5.33-1.34-11.58,3.33-9.15,9.15c1.8,4.33,4.26,3.22,8.95,2.85C246.93,140.62,250.85,129.9,241.15,129.09z
		 M237.49,140.18c-3.96-0.74-4.55-7.4-0.31-8.14C239.02,134.68,239.83,137.22,237.49,140.18z M239.32,139.67
		c2.54-2.75,2.44-5.39,1.73-8.34C246.75,133.91,244.38,139.37,239.32,139.67z"/>
	<path d="M254.42,159.33c-2.19,0.55-4.41,2.79-6.45,4.03C251.99,163.1,255.93,158.83,254.42,159.33z"/>
	<path d="M244.61,164.18c-1.42,0.61-2.85,1.22-4.27,1.83C242.17,166.31,243.8,166.11,244.61,164.18z"/>
	<path d="M146.67,142.09c2.95-1.4-15.66,0.62-20.24,0.83C133.09,145.38,139.67,145.41,146.67,142.09z"/>
	<path d="M124.9,106.71c-6.61-1.83-10.68,2.75-15.46,5.8c0.53,1.05-1.65,1.35,15.66-4.88C125.1,107.32,125,107.02,124.9,106.71z"/>
	<path d="M115.75,115.86c2.75-0.71,6.51,0.82,8.14-3.25C120.12,112.2,118.39,112.81,115.75,115.86z"/>
	<path d="M129.38,145.97c4.07-0.1,7.83,2.44,11.9,1.12C137.82,145.46,134.36,145.16,129.38,145.97z"/>
	<path d="M136.3,114.75c-1.73,0.5-2.85,1.73-4.27,3.05C135.99,117.5,136.1,117.5,136.3,114.75z"/>
	<path d="M143.82,127.15c-1.59-1.49-3.17-1.35-4.78,0C140.26,127.73,141.71,127.91,143.82,127.15z"/>
	<path d="M248.17,482.22c0.82,3.36,4.68,3.56,9.97,0.41C254.58,481.21,251.42,482.43,248.17,482.22z"/>
	<path d="M131.61,371.96c-1.22-0.6-2.23,0-3.25,0.31c-3.56,1.33-5.22,4.56-7.12,7.53c-2.46,3.83,9.01,14.7,13.32,7.93
		c4.95-7.78,2.74-8.77,4.78-10.68C137.2,374.3,134.35,373.3,131.61,371.96z M123.06,381.13c1.73-2.95,3.56-5.8,6.92-6.92
		c8.88,4.09,0.15-1.09-3.25,10.98C125.11,384.07,123.58,383.26,123.06,381.13z M130.29,387.83c-1.11-5.08,1.12-8.34,5.9-8.44
		C135.07,383.05,133.24,385.69,130.29,387.83z"/>
	<path d="M132.02,349.39c-7.2-1.44-11.81,5.39-15.57,10.27c-13.89,18.06-14.02,21.38-11.39,39.77c0.82-3.26-1.02-6.61-0.2-9.97
		c5.87-24.16,2.26-12.19,14.24-30.92C124.14,350.67,129.73,351.11,132.02,349.39z"/>
	<path d="M286.92,163.57c-2.34,2.24-4.68,4.37-7.02,6.61C283.06,168.86,285.9,167.13,286.92,163.57z"/>
	<path d="M290.58,161.43c-0.81,0.61-0.91,1.43-1.22,2.44C290.68,163.26,290.48,162.24,290.58,161.43z"/>
	<path d="M254.88,196.21c2.34-4.27,2.65-8.74,1.53-13.32C255.19,187.27,255.9,191.84,254.88,196.21z"/>
	<path d="M253.97,208.42c1.42-3.15,0.81-6.4,1.42-9.46C253.26,201.5,252.55,206.08,253.97,208.42z"/>
	<path d="M243.9,191.84c0.71-0.5,0.8-1.22,0.92-1.93C245.25,187.08,243.9,187.98,243.9,191.84z"/>
	<path d="M282.96,249.72c1.32,2.44,0.81,5.39,2.64,7.63C286.93,254.7,286.11,252.06,282.96,249.72z"/>
	<path d="M299.03,255.52c-1.22-2.65-1.22-2.65-3.56-4.07C296.28,253.08,297.4,254.5,299.03,255.52z"/>
	<path d="M280.41,258.06c0.21-1.83-0.91-3.05-2.64-4.88C278.17,255.62,278.89,257.04,280.41,258.06z"/>
	<path d="M281.74,245.45c-0.82,1.22-0.51,2.13,0.1,3.05C283.06,247.58,282.75,246.67,281.74,245.45z"/>
	<path d="M157.45,263.35c-1.02,0.71-1.32,1.63-1.02,3.15C157.45,265.38,158.06,264.67,157.45,263.35z"/>
	<path d="M826.39,364.34c1.76-4.5,5.27-8.34,6-13.02c0.7-4.48,0.41-9.26,1.22-14.65c-6.91,9.04,0.42,12.18-6.41,19.84
		C818.17,366.66,825.36,366.97,826.39,364.34z"/>
	<path d="M820.6,297.93c-1.83-3.25-9.76-5.79-15.46-4.98C807.89,299.15,817.45,302.3,820.6,297.93z"/>
	<path d="M797.92,293.96c-0.48-6.22-7.91-2.64-15.05-8.54c-2.12-1.75-5.19-1.32-8.14-0.71c4.27,1.62,8.54,3.56,13.02,4.98
		C791.3,290.82,795.27,290.61,797.92,293.96z"/>
	<path d="M836.05,364.64c2.14-8.84,2.34-17.9,2.75-26.95C837.17,346.54,836.05,355.59,836.05,364.64z"/>
	<path d="M834.73,290.2c-1.11-1.11,0.71-2.37-10.07,5.9C828.93,295.49,832.29,293.66,834.73,290.2z"/>
	<path d="M837.47,294.57c4.07,1.33,2.14,5.5,4.88,8.14C843.51,297.58,841.77,291.5,837.47,294.57z"/>
	<path d="M842.56,311.76c1.32-2.84,1.12-3.86-1.83-7.63C840.32,307.28,840.83,309.52,842.56,311.76z"/>
	<path d="M838.29,287.46c2.14-3.05,1.93-5.09-0.61-8.14C836.66,282.47,838.9,284.4,838.29,287.46z"/>
	<path d="M832.08,333.52c2.44-2.54,2.34-4.98-0.2-8.04C831.28,326.87,832.08,326.06,832.08,333.52z"/>
	<path d="M837.06,323.96c-0.81,2.24-0.81,2.24,0.31,5.09C838.59,327.01,837.27,325.49,837.06,323.96z"/>
	<path d="M827.3,398.62c1.22-2.24,1.12-4.28,1.12-6.2C827.1,394.14,826.38,395.87,827.3,398.62z"/>
	<path d="M831.58,303.12c-0.92-1.73-2.14-2.14-4.07-2.85C828.22,302.91,829.13,303.73,831.58,303.12z"/>
	<path d="M764.15,298.85c-1.12-0.82-2.34-1.02-3.76-0.51C761.61,299.05,762.83,299.76,764.15,298.85z"/>
	<path d="M832.49,373.8c1.42-0.82,1.73-1.83,1.83-3.46C832.79,371.26,832.39,372.17,832.49,373.8z"/>
	<path d="M832.7,320.91c-0.72,0-1.02,0.31-0.92,0.92C832.69,322.04,832.39,321.32,832.7,320.91z"/>
	<path d="M520.25,162.86c-1.67,3.33,2.7,2.25-0.41,7.22c1.22,0.71,2.24,0.91,3.36-0.51c3.45,4.17,7.42,7.63,10.98,11.39
		C537.11,179.66,530.72,177.48,520.25,162.86z"/>
	<path d="M600.9,208.83c1.62-5.19,2.54-10.48,2.64-15.87c-1.93-0.48-0.91-2.11-3.66,15.77C600.29,208.73,600.59,208.73,600.9,208.83
		z"/>
	<path d="M510.48,150.35c0,2.14-1.93,3.36-1.83,5.39c1.83-0.92,1.52-3.56,3.97-4.07c-1.63-3.56-4.58-6.11-6.51-9.36
		C506.31,145.67,509.36,147.71,510.48,150.35z"/>
	<path d="M595.71,229.78c2.95-3.35,4.28-9.15,3.36-14.54C598.05,219.82,597.44,224.49,595.71,229.78z"/>
	<path d="M595.81,232.73c-1.83,3.87-4.07,7.53-5.49,11.6C592.46,240.56,595.92,237.51,595.81,232.73z"/>
	<path d="M599.88,166.01c-1.42,2.74-3.97,2.23-6.51,3.15C598.12,171.97,601.99,169.17,599.88,166.01z"/>
	<path d="M603.44,237c1.53-3.35,0.82-6.91,0.92-10.48C602.32,229.78,603.44,233.44,603.44,237z"/>
	<path d="M584.42,173.94c-0.91,3.36,1.93,4.27,3.87,5.8C588.08,177.19,586.25,175.57,584.42,173.94z"/>
	<path d="M581.27,214.43c1.42-2.14,2.95-4.27,2.54-7.63C581.88,209.54,581.57,210.36,581.27,214.43z"/>
	<path d="M560.82,222.05c2.04-2.24,3.05-4.88,3.97-7.63C562.55,216.46,560.93,218.9,560.82,222.05z"/>
	<path d="M575.67,266.5c0.81-1.73,1.83-3.46,1.12-6.1C574.45,262.53,574.76,264.47,575.67,266.5z"/>
	<path d="M592.97,161.64c-2.55,1.12-1.12,2.64-1.02,4.78C594.19,164.48,594.49,163.26,592.97,161.64z"/>
	<path d="M600.7,160.82c-1.12,1.43-1.02,2.55-0.31,3.87C602.22,163.57,603.14,162.55,600.7,160.82z"/>
	<path d="M500.1,150.35c1.73-1.23,2.34-3.06,3.15-4.88C501.32,146.59,500.71,148.42,500.1,150.35z"/>
	<path d="M591.85,185.33c0,1.84,0.4,2.85,1.93,3.46C593.99,187.16,593.17,186.35,591.85,185.33z"/>
	<path d="M597.54,179.94c-1.12,1.83,0.21,2.85,0.1,4.78C598.96,182.58,598.15,181.47,597.54,179.94z"/>
	<path d="M589.71,169.77c-1.73-0.81-2.54,0-3.76,0.92C587.68,171.4,588.59,171.09,589.71,169.77z"/>
	<path d="M607,162.75c-1.22,0.41-1.83,1.33-2.44,2.75C606.49,165.19,607.31,164.38,607,162.75z"/>
	<path d="M568.15,209.03c-1.12,0.72-1.32,1.43-1.12,2.75C568.46,211.27,568.35,210.25,568.15,209.03z"/>
	<path d="M588.9,267.52c1.12-0.41,1.93-0.92,1.73-2.34C589.3,265.59,588.9,266.3,588.9,267.52z"/>
	<path d="M592.05,183.61c0.2-1.02-0.1-1.73-1.02-2.14C590.73,182.59,590.93,183.2,592.05,183.61z"/>
	<path d="M593.78,191.33c-0.92,0.31-0.61,1.12-0.51,1.73C594.08,192.56,594.49,192.05,593.78,191.33z"/>
	<path d="M584.22,250.33c0.51,0,0.71-0.31,0.51-0.92C583.88,249.24,583.68,250.33,584.22,250.33z"/>
	<path d="M704.44,324.47c5.8-3.35,3.29-7.49,5.29-10.78c2.47-4.06,0-10.99-4.98-12.92c2.75,4.96,6.04,8.13,3.25,13.53
		C706.37,317.46,706.78,321.53,704.44,324.47z"/>
	<path d="M692.85,320.71c-1.42-13.12-5.45-9.03-4.58-18.61c-2.44,1.73-2.61,3.45-2.13,4.88
		C687.76,311.83,689.7,316.54,692.85,320.71z"/>
	<path d="M697.93,389.67c-1.58-0.53-4.78,14.31-4.78,22.28C694.51,412.4,693.63,414.12,697.93,389.67z"/>
	<path d="M676.07,431.67c0.5,5.9-2.95,10.89-3.66,16.58C676.58,444.59,678.41,436.15,676.07,431.67z"/>
	<path d="M698.85,359.76c0.41,7.22-1.63,13.73-0.51,20.95C699.77,377.15,700.17,362.3,698.85,359.76z"/>
	<path d="M693.97,339.42c0.1-0.71,0.2-1.02,0.2-1.22c-4.3-8.35,4.64-12.33-2.44-15.16C695.24,330.84,686.71,329.26,693.97,339.42z"
		/>
	<path d="M671.59,311.87c1.53,2.33,1.22,4.98,2.44,7.83C676.37,316.35,675.46,313.6,671.59,311.87z"/>
	<path d="M674.95,419.67c1.32-2.54,1.63-5.08,0.1-7.83C675.15,414.48,674.44,417.13,674.95,419.67z"/>
	<path d="M664.47,305.97c1.02,3.25,3.46,3.66,5.49,5.39C669.56,307.9,667.32,307.19,664.47,305.97z"/>
	<path d="M700.88,347.86c-1.62,2.24-1.52,4.88-1.22,7.42C700.98,352.95,701.19,350.4,700.88,347.86z"/>
	<path d="M669.66,316.95c0.49,3.45,2.33,3.49,2.47,3.08C672.49,318.38,671.03,318.13,669.66,316.95z"/>
	<path d="M626.53,252.57c2.64-4.88,6.92-8.14,11.29-12.31c-6.81,2.75-13.93,10.78-15.05,17.29c5.69-3.86,9.25-9.26,14.34-12.71
		C632.73,246.26,629.68,249.52,626.53,252.57z"/>
	<path d="M627.14,225.61c5.6-10.07,11.8-19.83,12.92-31.53C637.62,205.37,631.52,215.14,627.14,225.61z"/>
	<path d="M640.67,248.6c6-5.19,13.63-7.33,20.34-11.09C653.38,239.55,646.06,242.19,640.67,248.6z"/>
	<path d="M616.16,219c-0.21,0,0,0.31,0.51,0.41C616.57,219.31,616.36,219,616.16,219z"/>
	<path d="M696.91,424.75c5.51,12.59,7.81,16.68,7.53,17.8c-2.95,1.02-6.71-0.61-8.95,2.95c4.17-0.61,8.44-1.32,12.51-1.93
		c-3.35-7.83-5.69-15.86-10.78-22.69C695.49,422.31,696.42,423.62,696.91,424.75z"/>
	<path d="M697.12,417.02c10.3,10.3,16.68,14.29,26.65,22.89C715.1,430.11,703.41,420.8,697.12,417.02z"/>
	<path d="M740.66,445.4c9.6-2.58,20.08-3.53,26.95-5.49C744.71,441.67,724.49,449.75,740.66,445.4z"/>
	<path d="M767.61,439.91c4.98,0.61,9.57-1.86,14.44-2.44C789.21,436.62,790.83,432.79,767.61,439.91z"/>
	<path d="M873.68,447.54c-2.92-3.51-0.12-2.53-11.9-0.1c1.93,3.86,2.44,3.86,10.27-0.41c0.51,1.63,0.21,4.18,2.85,4.07
		c2.13-0.09,3.56-1.42,4.37-3.66C877.34,446.62,875.92,448.15,873.68,447.54z"/>
	<path d="M821.91,442.86c-3.48,1.38-2.54,4.38-2.44,7.42c3.15,0.71,6.13,2.15,8.34-1.22C830.03,445.69,826.37,441.09,821.91,442.86z
		 M823.34,449.37c0.61-1.83,0.3-2.95-2.34-2.03C823.65,439.38,830.09,449.05,823.34,449.37z"/>
	<path d="M833.81,443.17c-5.74,0-5.93,8.73,0.1,8.85C840,452.14,840.02,443.17,833.81,443.17z M834.02,450.18
		c-3.55,0-3.37-5.51,0.1-5.09C837.61,445.33,837.22,450.18,834.02,450.18z"/>
	<path d="M846.73,445c-1.31-1.32-9.47-1.78-6.72,3.26c1.01,1.83-0.61,2.64-0.2,3.76c2.14,0.82,2.24-1.83,3.87-1.93
		c1.42,0.1,0,2.24,1.83,2.44C847.34,450.29,846.53,447.54,846.73,445z M841.34,446.53c1.73-0.51,3.16-1.12,3.36,1.42
		C843.37,448.25,842.25,448.35,841.34,446.53z"/>
	<path d="M704.65,486.09c-2.85-1.22-2.85-1.22-10.07-0.41C696.82,488.63,699.56,488.63,704.65,486.09z"/>
	<path d="M593.37,144.84c-6.99-0.28-13.49,0.92-20.34,0.92C578.88,150.78,596.43,144.96,593.37,144.84z"/>
	<path d="M556.65,116.28c4.99-2.34,10.38-3.26,15.36-5.7C568.45,108.03,561.64,110.47,556.65,116.28z"/>
	<path d="M570.49,115.56c-3.36-0.2-6,0.81-8.44,3.25C566.83,119.43,569.17,118.51,570.49,115.56z"/>
	<path d="M583.2,118c-0.93,0-0.56-0.24-4.27,2.85C582.69,120.75,582.79,120.64,583.2,118z"/>
	<path d="M591.24,130.72c-2.63-1.82-2.62-1.85-5.19-0.41C587.66,131.12,589.3,130.62,591.24,130.72z"/>
	<path d="M610.87,152.68c2.95,3.87,3.46,6,2.34,9.36c3.82,2.87,2.62-15.55-5.7-9.77C608.63,152.78,609.85,153.09,610.87,152.68z"/>
	<path d="M561.53,145.87c2.02,6.69,16.86,35.63,8.65,51.47c11.8-7.08-0.35-36.87-5.71-49.54c-1.93-4.57-5.9-7.11-8.54-10.88
		c-0.71-1.02-1.83-0.51-2.44,0.51C556.55,139.97,560.43,142.2,561.53,145.87z"/>
	<path d="M732.61,260.7c1.12-3.25,0.21-5.8-3.25-8.34C730.89,255.31,730.69,258.26,732.61,260.7z"/>
	<path d="M746.45,259.18c-2.13-5.33-5.78-5.57-3.56-3.36C743.81,256.74,744.42,258.16,746.45,259.18z"/>
	<path d="M727.03,261.42c0.2-2.03,0.2-2.03-2.14-4.17C725.19,258.87,725.6,260.4,727.03,261.42z"/>
	<path d="M728.45,248.6c-0.61,1.22-0.51,2.14,0.41,3.15C729.77,250.53,729.67,249.72,728.45,248.6z"/>
	<path d="M609.65,260.91c0.61,1.93,1.12,3.76,3.15,5.29C613.21,263.25,611.68,261.82,609.65,260.91z"/>
	<path d="M603.44,269.25c0.82-1.52,2.65-2.74,1.63-4.88C603.04,265.69,603.85,267.72,603.44,269.25z"/>
<path fill="#e6e6e6" d="m206.8 163.6c0-5.1 4.1-9.2 9.3-9.2s9.2 4.2 9.2 9.2-4.1 9.2-9.3 9.2-9.2-4.1-9.2-9.2zm17.3-.1c0-4.5-3.5-8.2-8.2-8.2s-8.2 3.7-8.2 8.3c0 4.5 3.5 8.2 8.2 8.2s8.2-3.7 8.2-8.3zm-13 0c0-2.8 2.1-5.1 5.1-5.1 1.9 0 2.9.6 3.9 1.5l-1.4 1.7c-.8-.7-1.5-1.1-2.5-1.1-1.7 0-2.8 1.4-2.8 3.1s1.1 3 2.8 3c1.1 0 1.7-.5 2.5-1.1l1.4 1.4c-1.1 1.1-2.1 1.7-4 1.7-2.9 0-5-2.3-5-5.1z"/><path fill="#e6e6e6" d="m226.6 154.7h3.4l4.2 13.2 4.4-13.3h2.6l4.4 13.3 4.2-13.2h3.3l-6.2 18h-2.7l-4.4-12.8-4.4 12.8h-2.7z"/><path fill="#e6e6e6" d="m252.8 165.8c0-3.9 3.1-7 7.2-7 4.2 0 7.2 3.2 7.2 7s-3.1 7-7.3 7c-4 0-7.1-3.1-7.1-7zm11.3 0c0-2.3-1.7-4.3-4.2-4.3s-4.1 2-4.1 4.3 1.7 4.3 4.1 4.3c2.7.1 4.2-1.9 4.2-4.3z"/><path fill="#e6e6e6" d="m269.5 159.1h3.1v3c.8-2 2.4-3.4 4.8-3.3v3.2h-.2c-2.7 0-4.6 1.7-4.6 5.4v5.1h-3.1z"/><path fill="#e6e6e6" d="m279.1 153.9h3.1v11.1l5.6-6h3.8l-5.4 5.5 5.5 8h-3.5l-4.1-5.8-1.9 2v3.9h-3.1z"/><path fill="#e6e6e6" d="m291.7 165.8c0-3.9 3.1-7 7.2-7 4.2 0 7.2 3.2 7.2 7s-3.1 7-7.3 7c-4 0-7.1-3.1-7.1-7zm11.3 0c0-2.3-1.7-4.3-4.2-4.3s-4.1 2-4.1 4.3 1.7 4.3 4.1 4.3c2.6.1 4.2-1.9 4.2-4.3z"/><path fill="#e6e6e6" d="m308.2 167.6v-8.6h3.1v7.6c0 2.1 1.1 3.3 2.9 3.3s3-1.3 3-3.3v-7.6h3.1v13.4h-3.1v-2.1c-.8 1.3-2.1 2.3-4.2 2.3-3.1.2-4.8-1.8-4.8-5z"/><path fill="#e6e6e6" d="m323.9 168.8v-7.1h-1.7v-2.6h1.7v-3.7h3.1v3.7h3.6v2.6h-3.6v6.6c0 1.2.6 1.7 1.7 1.7.7 0 1.3-.2 1.9-.5v2.5c-.8.5-1.7.7-2.8.7-2.3 0-3.9-.9-3.9-3.9z"/><path fill="#e6e6e6" d="m333.2 154.7h3.2v15h9.4v2.9h-12.5v-17.9z"/><path fill="#e6e6e6" d="m356 172.5v-1.7c-.9 1.1-2.3 2-4.4 2-2.6 0-4.8-1.4-4.8-4.2 0-3 2.3-4.4 5.4-4.4 1.7 0 2.6.2 3.7.5v-.2c0-1.9-1.2-2.9-3.3-2.9-1.5 0-2.6.3-3.9.8l-.8-2.5c1.5-.7 2.9-1.1 5.1-1.1 4 0 5.9 2.1 5.9 5.7v8zm.1-5.6c-.8-.3-1.9-.5-3.1-.5-2 0-3.1.8-3.1 2.1s1.1 2 2.6 2c2 0 3.5-1.1 3.5-2.9z"/><path fill="#e6e6e6" d="m364.9 170.5v2.1h-3.1v-18.7h3.1v7.4c1-1.4 2.4-2.5 4.5-2.5 3.2 0 6.3 2.5 6.3 7s-3.1 7-6.3 7c-2.1 0-3.5-1.1-4.5-2.3zm7.7-4.7c0-2.6-1.7-4.3-3.9-4.3s-3.9 1.7-3.9 4.4c0 2.6 1.8 4.3 3.9 4.3s3.9-1.7 3.9-4.4z"/><path fill="#e6e6e6" d="m376.9 170.8 1.4-2.1c1.4 1.1 3 1.7 4.4 1.7s2.1-.5 2.1-1.5-1.3-1.4-2.8-1.8c-.1 0-.2-.1-.2-.1-2-.6-4.2-1.4-4.2-4s2.1-4.1 4.8-4.1c1.7 0 3.5.6 5 1.5l-1.2 2.2c-1.3-.8-2.6-1.3-3.8-1.3s-1.9.5-1.9 1.4 1.3 1.4 2.8 1.8c.1 0 .2.1.2.1 2 .6 4.2 1.5 4.2 4 0 2.9-2.2 4.2-5 4.2-1.9 0-4-.7-5.8-2z"/><path fill="#e6e6e6" d="m505.6 163.6c0-5.1 4.1-9.2 9.3-9.2s9.2 4.2 9.2 9.2-4.1 9.2-9.3 9.2-9.2-4.1-9.2-9.2zm17.4-.1c0-4.5-3.5-8.2-8.2-8.2s-8.2 3.7-8.2 8.3c0 4.5 3.5 8.2 8.2 8.2s8.2-3.7 8.2-8.3zm-13.1 0c0-2.8 2.1-5.1 5.1-5.1 1.9 0 2.9.6 3.9 1.5l-1.4 1.7c-.8-.7-1.5-1.1-2.5-1.1-1.7 0-2.8 1.4-2.8 3.1s1.1 3 2.8 3c1.1 0 1.7-.5 2.5-1.1l1.4 1.4c-1.1 1.1-2.1 1.7-4 1.7-2.9 0-5-2.3-5-5.1z"/><path fill="#e6e6e6" d="m525.4 154.7h3.4l4.2 13.2 4.4-13.3h2.6l4.4 13.3 4.2-13.2h3.3l-6.2 18h-2.7l-4.4-12.8-4.4 12.8h-2.7z"/><path fill="#e6e6e6" d="m551.7 165.8c0-3.9 3.1-7 7.2-7 4.2 0 7.2 3.2 7.2 7s-3.1 7-7.3 7c-4.1 0-7.1-3.1-7.1-7zm11.2 0c0-2.3-1.7-4.3-4.2-4.3s-4.1 2-4.1 4.3 1.7 4.3 4.1 4.3c2.7.1 4.2-1.9 4.2-4.3z"/><path fill="#e6e6e6" d="m568.3 159.1h3.1v3c.8-2 2.4-3.4 4.8-3.3v3.2h-.2c-2.7 0-4.6 1.7-4.6 5.4v5.1h-3.1z"/><path fill="#e6e6e6" d="m577.9 153.9h3.1v11.1l5.6-6h3.8l-5.4 5.5 5.5 8h-3.5l-4.1-5.8-1.9 2v3.9h-3.1z"/><path fill="#e6e6e6" d="m590.6 165.8c0-3.9 3.1-7 7.2-7 4.2 0 7.2 3.2 7.2 7s-3.1 7-7.3 7c-4.1 0-7.1-3.1-7.1-7zm11.2 0c0-2.3-1.7-4.3-4.2-4.3s-4.1 2-4.1 4.3 1.7 4.3 4.1 4.3c2.6.1 4.2-1.9 4.2-4.3z"/><path fill="#e6e6e6" d="m607 167.6v-8.6h3.1v7.6c0 2.1 1.1 3.3 2.9 3.3s3-1.3 3-3.3v-7.6h3.1v13.4h-3.1v-2.1c-.8 1.3-2.1 2.3-4.2 2.3-3 .2-4.8-1.8-4.8-5z"/><path fill="#e6e6e6" d="m622.7 168.8v-7.1h-1.7v-2.6h1.7v-3.7h3.1v3.7h3.6v2.6h-3.6v6.6c0 1.2.6 1.7 1.7 1.7.7 0 1.3-.2 1.9-.5v2.5c-.8.5-1.7.7-2.8.7-2.3 0-3.9-.9-3.9-3.9z"/><path fill="#e6e6e6" d="m632 154.7h3.2v15h9.4v2.9h-12.6z"/><path fill="#e6e6e6" d="m654.8 172.5v-1.7c-.9 1.1-2.3 2-4.4 2-2.6 0-4.8-1.4-4.8-4.2 0-3 2.3-4.4 5.4-4.4 1.7 0 2.6.2 3.7.5v-.2c0-1.9-1.2-2.9-3.3-2.9-1.5 0-2.6.3-3.9.8l-.8-2.5c1.5-.7 2.9-1.1 5.1-1.1 4 0 5.9 2.1 5.9 5.7v8zm.1-5.6c-.8-.3-1.9-.5-3.1-.5-2 0-3.1.8-3.1 2.1s1.1 2 2.6 2c2 0 3.5-1.1 3.5-2.9z"/><path fill="#e6e6e6" d="m663.7 170.5v2.1h-3.1v-18.7h3.1v7.4c1-1.4 2.4-2.5 4.5-2.5 3.2 0 6.3 2.5 6.3 7s-3.1 7-6.3 7c-2.1 0-3.5-1.1-4.5-2.3zm7.8-4.7c0-2.6-1.7-4.3-3.9-4.3-2.1 0-3.9 1.7-3.9 4.4 0 2.6 1.8 4.3 3.9 4.3s3.9-1.7 3.9-4.4z"/><path fill="#e6e6e6" d="m675.8 170.8 1.4-2.1c1.4 1.1 3 1.7 4.4 1.7s2.1-.5 2.1-1.5-1.3-1.4-2.8-1.8c-.1 0-.2-.1-.2-.1-2-.6-4.2-1.4-4.2-4s2.1-4.1 4.8-4.1c1.7 0 3.5.6 5 1.5l-1.2 2.2c-1.3-.8-2.6-1.3-3.8-1.3s-1.9.5-1.9 1.4 1.3 1.4 2.8 1.8c.1 0 .2.1.2.1 2 .6 4.2 1.5 4.2 4 0 2.9-2.2 4.2-5 4.2-2 0-4.1-.7-5.8-2z"/><path fill="#e6e6e6" d="m61 298.6c0-5.1 4.1-9.2 9.3-9.2s9.2 4.2 9.2 9.2-4.1 9.2-9.3 9.2c-5.1 0-9.2-4.2-9.2-9.2zm17.4-.1c0-4.5-3.5-8.2-8.2-8.2s-8.2 3.7-8.2 8.3c0 4.5 3.5 8.2 8.2 8.2s8.2-3.7 8.2-8.3zm-13.1-.1c0-2.8 2.1-5.1 5.1-5.1 1.9 0 2.9.6 3.9 1.5l-1.4 1.7c-.8-.7-1.5-1.1-2.5-1.1-1.7 0-2.8 1.4-2.8 3.1s1.1 3 2.8 3c1.1 0 1.7-.5 2.5-1.1l1.4 1.4c-1.1 1.1-2.1 1.7-4 1.7-2.8.1-5-2.2-5-5.1z"/><path fill="#e6e6e6" d="m80.9 289.7h3.4l4.2 13.2 4.4-13.3h2.6l4.4 13.3 4.2-13.2h3.3l-6.2 18h-2.7l-4.4-12.8-4.4 12.8h-2.7z"/><path fill="#e6e6e6" d="m107.1 300.8c0-3.9 3.1-7 7.2-7s7.2 3.2 7.2 7-3.1 7-7.3 7c-4 0-7.1-3.1-7.1-7zm11.3 0c0-2.3-1.7-4.3-4.2-4.3s-4.1 2-4.1 4.3 1.7 4.3 4.1 4.3c2.6.1 4.2-1.9 4.2-4.3z"/><path fill="#e6e6e6" d="m123.7 294h3.1v3c.8-2 2.4-3.4 4.8-3.3v3.2h-.2c-2.7 0-4.6 1.7-4.6 5.4v5.1h-3.1z"/><path fill="#e6e6e6" d="m133.4 288.9h3.1v11.1l5.6-6h3.8l-5.4 5.5 5.5 8h-3.5l-4.1-5.8-1.9 1.9v3.9h-3.1z"/><path fill="#e6e6e6" d="m146 300.8c0-3.9 3.1-7 7.2-7s7.2 3.2 7.2 7-3.1 7-7.3 7c-4.1 0-7.1-3.1-7.1-7zm11.2 0c0-2.3-1.7-4.3-4.2-4.3s-4.1 2-4.1 4.3 1.7 4.3 4.1 4.3c2.6.1 4.2-1.9 4.2-4.3z"/><path fill="#e6e6e6" d="m162.4 302.6v-8.6h3.1v7.6c0 2.1 1.1 3.3 2.9 3.3s3-1.3 3-3.3v-7.6h3.1v13.4h-3.1v-2.1c-.8 1.3-2.1 2.3-4.2 2.3-3 .2-4.8-1.8-4.8-5z"/><path fill="#e6e6e6" d="m178.1 303.8v-7.1h-1.7v-2.7h1.7v-3.7h3.1v3.7h3.6v2.6h-3.6v6.6c0 1.2.6 1.7 1.7 1.7.7 0 1.3-.2 1.9-.5v2.5c-.8.5-1.7.7-2.8.7-2.3.1-3.9-.9-3.9-3.8z"/><path fill="#e6e6e6" d="m187.4 289.7h3.2v15h9.4v2.9h-12.5v-17.9z"/><path fill="#e6e6e6" d="m210.2 307.5v-1.7c-.9 1.1-2.3 2-4.4 2-2.6 0-4.8-1.4-4.8-4.2 0-3 2.3-4.4 5.4-4.4 1.7 0 2.6.2 3.7.5v-.2c0-1.9-1.2-2.9-3.3-2.9-1.5 0-2.6.3-3.9.8l-.8-2.5c1.5-.7 2.9-1.1 5.1-1.1 4 0 5.9 2.1 5.9 5.7v8zm.1-5.6c-.8-.3-1.9-.5-3.1-.5-2 0-3.1.8-3.1 2.1s1.1 2 2.6 2c2 0 3.5-1.1 3.5-2.9z"/><path fill="#e6e6e6" d="m219.2 305.5v2.1h-3.1v-18.7h3.1v7.4c1-1.4 2.4-2.5 4.5-2.5 3.2 0 6.3 2.5 6.3 7s-3.1 7-6.3 7c-2.2 0-3.6-1.1-4.5-2.3zm7.7-4.7c0-2.6-1.7-4.3-3.9-4.3s-3.9 1.7-3.9 4.4c0 2.6 1.8 4.3 3.9 4.3s3.9-1.7 3.9-4.4z"/><path fill="#e6e6e6" d="m231.2 305.8 1.4-2.1c1.4 1.1 3 1.7 4.4 1.7s2.1-.5 2.1-1.5-1.3-1.4-2.8-1.8c-.1 0-.2-.1-.2-.1-2-.6-4.2-1.4-4.2-4s2.1-4.1 4.8-4.1c1.7 0 3.5.6 5 1.5l-1.2 2.2c-1.3-.8-2.6-1.3-3.8-1.3s-1.9.5-1.9 1.4 1.3 1.4 2.8 1.8c.1 0 .2.1.2.1 2 .6 4.2 1.5 4.2 4 0 2.9-2.2 4.2-5 4.2-2 0-4.1-.7-5.8-2z"/><path fill="#e6e6e6" d="m360.6 298.6c0-5.1 4.1-9.2 9.3-9.2s9.2 4.2 9.2 9.2-4.1 9.2-9.3 9.2-9.2-4.2-9.2-9.2zm17.4-.1c0-4.5-3.5-8.2-8.2-8.2s-8.2 3.7-8.2 8.3c0 4.5 3.5 8.2 8.2 8.2s8.2-3.7 8.2-8.3zm-13.1-.1c0-2.8 2.1-5.1 5.1-5.1 1.9 0 2.9.6 3.9 1.5l-1.4 1.7c-.8-.7-1.5-1.1-2.5-1.1-1.7 0-2.8 1.4-2.8 3.1s1.1 3 2.8 3c1.1 0 1.7-.5 2.5-1.1l1.4 1.4c-1.1 1.1-2.1 1.7-4 1.7-2.8.1-5-2.2-5-5.1z"/><path fill="#e6e6e6" d="m380.5 289.7h3.4l4.2 13.2 4.4-13.3h2.6l4.4 13.3 4.2-13.2h3.3l-6.2 18h-2.7l-4.4-12.8-4.4 12.8h-2.7z"/><path fill="#e6e6e6" d="m406.7 300.8c0-3.9 3.1-7 7.2-7 4.2 0 7.2 3.2 7.2 7s-3.1 7-7.3 7c-4.1 0-7.1-3.1-7.1-7zm11.3 0c0-2.3-1.7-4.3-4.2-4.3s-4.1 2-4.1 4.3 1.7 4.3 4.1 4.3c2.7.1 4.2-1.9 4.2-4.3z"/><path fill="#e6e6e6" d="m423.3 294h3.1v3c.8-2 2.4-3.4 4.8-3.3v3.2h-.2c-2.7 0-4.6 1.7-4.6 5.4v5.1h-3.1z"/><path fill="#e6e6e6" d="m433 288.9h3.1v11.1l5.6-6h3.8l-5.4 5.5 5.5 8h-3.5l-4.1-5.8-1.9 2v3.9h-3.1z"/><path fill="#e6e6e6" d="m445.6 300.8c0-3.9 3.1-7 7.2-7 4.2 0 7.2 3.2 7.2 7s-3.1 7-7.3 7c-4.1 0-7.1-3.1-7.1-7zm11.3 0c0-2.3-1.7-4.3-4.2-4.3s-4.1 2-4.1 4.3 1.7 4.3 4.1 4.3c2.6.1 4.2-1.9 4.2-4.3z"/><path fill="#e6e6e6" d="m462.1 302.6v-8.6h3.1v7.6c0 2.1 1.1 3.3 2.9 3.3s3-1.3 3-3.3v-7.6h3.1v13.4h-3.1v-2.1c-.8 1.3-2.1 2.3-4.2 2.3-3.1.2-4.8-1.8-4.8-5z"/><path fill="#e6e6e6" d="m477.8 303.8v-7.1h-1.8v-2.7h1.7v-3.7h3.1v3.7h3.6v2.6h-3.6v6.6c0 1.2.6 1.7 1.7 1.7.7 0 1.3-.2 1.9-.5v2.5c-.8.5-1.7.7-2.8.7-2.2.1-3.8-.9-3.8-3.8z"/><path fill="#e6e6e6" d="m487.1 289.7h3.2v15h9.4v2.9h-12.5v-17.9z"/><path fill="#e6e6e6" d="m509.9 307.5v-1.7c-.9 1.1-2.3 2-4.4 2-2.6 0-4.8-1.4-4.8-4.2 0-3 2.3-4.4 5.4-4.4 1.7 0 2.6.2 3.7.5v-.2c0-1.9-1.2-2.9-3.3-2.9-1.5 0-2.6.3-3.9.8l-.8-2.5c1.5-.7 2.9-1.1 5.1-1.1 4 0 5.9 2.1 5.9 5.7v8zm.1-5.6c-.8-.3-1.9-.5-3.1-.5-2 0-3.1.8-3.1 2.1s1.1 2 2.6 2c2 0 3.5-1.1 3.5-2.9z"/><path fill="#e6e6e6" d="m518.8 305.5v2.1h-3.1v-18.7h3.1v7.4c1-1.4 2.4-2.5 4.5-2.5 3.2 0 6.3 2.5 6.3 7s-3.1 7-6.3 7c-2.2 0-3.5-1.1-4.5-2.3zm7.7-4.7c0-2.6-1.7-4.3-3.9-4.3s-3.9 1.7-3.9 4.4c0 2.6 1.8 4.3 3.9 4.3s3.9-1.7 3.9-4.4z"/><path fill="#e6e6e6" d="m530.8 305.8 1.4-2.1c1.4 1.1 3 1.7 4.4 1.7s2.1-.5 2.1-1.5-1.3-1.4-2.8-1.8c-.1 0-.2-.1-.2-.1-2-.6-4.2-1.4-4.2-4s2.1-4.1 4.8-4.1c1.7 0 3.5.6 5 1.5l-1.2 2.2c-1.3-.8-2.6-1.3-3.8-1.3s-1.9.5-1.9 1.4 1.3 1.4 2.8 1.8c.1 0 .2.1.2.1 2 .6 4.2 1.5 4.2 4 0 2.9-2.2 4.2-5 4.2-1.9 0-4.1-.7-5.8-2z"/><path fill="#e6e6e6" d="m659.5 298.6c0-5.1 4.1-9.2 9.3-9.2s9.2 4.2 9.2 9.2-4.1 9.2-9.3 9.2-9.2-4.2-9.2-9.2zm17.3-.1c0-4.5-3.5-8.2-8.2-8.2s-8.2 3.7-8.2 8.3c0 4.5 3.5 8.2 8.2 8.2 4.8 0 8.2-3.7 8.2-8.3zm-13-.1c0-2.8 2.1-5.1 5.1-5.1 1.9 0 2.9.6 3.9 1.5l-1.4 1.7c-.8-.7-1.5-1.1-2.5-1.1-1.7 0-2.8 1.4-2.8 3.1s1.1 3 2.8 3c1.1 0 1.7-.5 2.5-1.1l1.4 1.4c-1.1 1.1-2.1 1.7-4 1.7-2.9.1-5-2.2-5-5.1z"/><path fill="#e6e6e6" d="m679.3 289.7h3.4l4.2 13.2 4.4-13.3h2.6l4.4 13.3 4.2-13.2h3.3l-6.2 18h-2.6l-4.4-12.8-4.4 12.8h-2.7z"/><path fill="#e6e6e6" d="m705.5 300.8c0-3.9 3.1-7 7.2-7 4.2 0 7.2 3.2 7.2 7s-3.1 7-7.3 7c-4 0-7.1-3.1-7.1-7zm11.3 0c0-2.3-1.7-4.3-4.2-4.3s-4.1 2-4.1 4.3 1.7 4.3 4.1 4.3c2.7.1 4.2-1.9 4.2-4.3z"/><path fill="#e6e6e6" d="m722.1 294h3.1v3c.8-2 2.4-3.4 4.8-3.3v3.2h-.2c-2.7 0-4.6 1.7-4.6 5.4v5.1h-3.1z"/><path fill="#e6e6e6" d="m731.8 288.9h3.1v11.1l5.6-6h3.8l-5.4 5.5 5.5 8h-3.5l-4.1-5.8-1.9 2v3.9h-3.1z"/><path fill="#e6e6e6" d="m744.4 300.8c0-3.9 3.1-7 7.2-7 4.2 0 7.2 3.2 7.2 7s-3.1 7-7.3 7c-4.1 0-7.1-3.1-7.1-7zm11.3 0c0-2.3-1.7-4.3-4.2-4.3s-4.1 2-4.1 4.3 1.7 4.3 4.1 4.3c2.6.1 4.2-1.9 4.2-4.3z"/><path fill="#e6e6e6" d="m760.9 302.6v-8.6h3.1v7.6c0 2.1 1.1 3.3 2.9 3.3s3-1.3 3-3.3v-7.6h3.1v13.4h-3.1v-2.1c-.8 1.3-2.1 2.3-4.2 2.3-3.1.2-4.8-1.8-4.8-5z"/><path fill="#e6e6e6" d="m776.6 303.8v-7.1h-1.7v-2.7h1.7v-3.7h3.1v3.7h3.6v2.6h-3.6v6.6c0 1.2.6 1.7 1.7 1.7.7 0 1.3-.2 1.9-.5v2.5c-.8.5-1.7.7-2.8.7-2.3.1-3.9-.9-3.9-3.8z"/><path fill="#e6e6e6" d="m785.9 289.7h3.2v15h9.4v2.9h-12.5v-17.9z"/><path fill="#e6e6e6" d="m808.7 307.5v-1.7c-.9 1.1-2.3 2-4.4 2-2.6 0-4.8-1.4-4.8-4.2 0-3 2.3-4.4 5.4-4.4 1.7 0 2.6.2 3.7.5v-.2c0-1.9-1.2-2.9-3.3-2.9-1.5 0-2.6.3-3.9.8l-.8-2.5c1.5-.7 2.9-1.1 5.1-1.1 4 0 5.9 2.1 5.9 5.7v8zm.1-5.6c-.8-.3-1.9-.5-3.1-.5-2 0-3.1.8-3.1 2.1s1.1 2 2.6 2c2 0 3.5-1.1 3.5-2.9z"/><path fill="#e6e6e6" d="m817.6 305.5v2.1h-3.1v-18.7h3.1v7.4c1-1.4 2.4-2.5 4.5-2.5 3.2 0 6.3 2.5 6.3 7s-3.1 7-6.3 7c-2.1 0-3.5-1.1-4.5-2.3zm7.7-4.7c0-2.6-1.7-4.3-3.9-4.3-2.1 0-3.9 1.7-3.9 4.4 0 2.6 1.8 4.3 3.9 4.3 2.2 0 3.9-1.7 3.9-4.4z"/><path fill="#e6e6e6" d="m829.6 305.8 1.4-2.1c1.4 1.1 3 1.7 4.4 1.7s2.1-.5 2.1-1.5-1.3-1.4-2.8-1.8c-.1 0-.2-.1-.2-.1-2-.6-4.2-1.4-4.2-4s2.1-4.1 4.8-4.1c1.7 0 3.5.6 5 1.5l-1.2 2.2c-1.3-.8-2.6-1.3-3.8-1.3s-1.9.5-1.9 1.4 1.3 1.4 2.8 1.8c.1 0 .2.1.2.1 2 .6 4.2 1.5 4.2 4 0 2.9-2.2 4.2-5 4.2-1.9 0-4-.7-5.8-2z"/><path fill="#e6e6e6" d="m206.3 434.2c0-5.1 4.1-9.2 9.3-9.2s9.2 4.2 9.2 9.2-4.1 9.2-9.3 9.2-9.2-4.1-9.2-9.2zm17.4-.1c0-4.5-3.5-8.2-8.2-8.2s-8.2 3.7-8.2 8.3c0 4.5 3.5 8.2 8.2 8.2s8.2-3.7 8.2-8.3zm-13.1-.1c0-2.8 2.1-5.1 5.1-5.1 1.9 0 2.9.6 3.9 1.5l-1.4 1.7c-.8-.7-1.5-1.1-2.5-1.1-1.7 0-2.8 1.4-2.8 3.1s1.1 3 2.8 3c1.1 0 1.7-.5 2.5-1.1l1.4 1.4c-1.1 1.1-2.1 1.7-4 1.7-2.9.1-5-2.2-5-5.1z"/><path fill="#e6e6e6" d="m226.1 425.3h3.4l4.2 13.2 4.4-13.3h2.6l4.4 13.3 4.2-13.2h3.3l-6.2 18h-2.7l-4.4-12.8-4.4 12.8h-2.7z"/><path fill="#e6e6e6" d="m252.4 436.4c0-3.9 3.1-7 7.2-7 4.2 0 7.2 3.2 7.2 7s-3.1 7-7.3 7c-4.1 0-7.1-3.1-7.1-7zm11.2 0c0-2.3-1.7-4.3-4.2-4.3s-4.1 2-4.1 4.3 1.7 4.3 4.1 4.3c2.7.1 4.2-1.9 4.2-4.3z"/><path fill="#e6e6e6" d="m269 429.7h3.1v3c.8-2 2.4-3.4 4.8-3.3v3.2h-.2c-2.7 0-4.6 1.7-4.6 5.4v5.1h-3.1z"/><path fill="#e6e6e6" d="m278.6 424.5h3.1v11.1l5.6-6h3.8l-5.4 5.5 5.5 8h-3.5l-4.1-5.8-1.9 2v3.9h-3.1z"/><path fill="#e6e6e6" d="m291.3 436.4c0-3.9 3.1-7 7.2-7 4.2 0 7.2 3.2 7.2 7s-3.1 7-7.3 7c-4.1 0-7.1-3.1-7.1-7zm11.2 0c0-2.3-1.7-4.3-4.2-4.3s-4.1 2-4.1 4.3 1.7 4.3 4.1 4.3c2.6.1 4.2-1.9 4.2-4.3z"/><path fill="#e6e6e6" d="m307.7 438.2v-8.6h3.1v7.6c0 2.1 1.1 3.3 2.9 3.3s3-1.3 3-3.3v-7.6h3.1v13.4h-3.1v-2.1c-.8 1.3-2.1 2.3-4.2 2.3-3 .2-4.8-1.8-4.8-5z"/><path fill="#e6e6e6" d="m323.4 439.4v-7.1h-1.7v-2.6h1.7v-3.7h3.1v3.7h3.6v2.6h-3.6v6.6c0 1.2.6 1.7 1.7 1.7.7 0 1.3-.2 1.9-.5v2.5c-.8.5-1.7.7-2.8.7-2.3 0-3.9-.9-3.9-3.9z"/><path fill="#e6e6e6" d="m332.7 425.3h3.2v15h9.4v2.9h-12.5v-17.9z"/><path fill="#e6e6e6" d="m355.5 443.1v-1.7c-.9 1.1-2.3 2-4.4 2-2.6 0-4.8-1.4-4.8-4.2 0-3 2.3-4.4 5.4-4.4 1.7 0 2.6.2 3.7.5v-.2c0-1.9-1.2-2.9-3.3-2.9-1.5 0-2.6.3-3.9.8l-.8-2.5c1.5-.7 2.9-1.1 5.1-1.1 4 0 5.9 2.1 5.9 5.7v8zm.1-5.6c-.8-.3-1.9-.5-3.1-.5-2 0-3.1.8-3.1 2.1s1.1 2 2.6 2c2 0 3.5-1.1 3.5-2.9z"/><path fill="#e6e6e6" d="m364.4 441.1v2.1h-3.1v-18.7h3.1v7.4c1-1.4 2.4-2.5 4.5-2.5 3.2 0 6.3 2.5 6.3 7s-3.1 7-6.3 7c-2.1 0-3.5-1.1-4.5-2.3zm7.7-4.7c0-2.6-1.7-4.3-3.9-4.3-2.1 0-3.9 1.7-3.9 4.4 0 2.6 1.8 4.3 3.9 4.3 2.2 0 3.9-1.7 3.9-4.4z"/><path fill="#e6e6e6" d="m376.5 441.4 1.4-2.1c1.4 1.1 3 1.7 4.4 1.7s2.1-.5 2.1-1.5-1.3-1.4-2.8-1.8c-.1 0-.2-.1-.2-.1-2-.6-4.2-1.4-4.2-4s2.1-4.1 4.8-4.1c1.7 0 3.5.6 5 1.5l-1.2 2.2c-1.3-.8-2.6-1.3-3.8-1.3s-1.9.5-1.9 1.4 1.3 1.4 2.8 1.8c.1 0 .2.1.2.1 2 .6 4.2 1.5 4.2 4 0 2.9-2.2 4.2-5 4.2-2 0-4.1-.7-5.8-2z"/><path fill="#e6e6e6" d="m505.1 434.2c0-5.1 4.1-9.2 9.3-9.2s9.2 4.2 9.2 9.2-4.1 9.2-9.3 9.2-9.2-4.1-9.2-9.2zm17.4-.1c0-4.5-3.5-8.2-8.2-8.2s-8.2 3.7-8.2 8.3c0 4.5 3.5 8.2 8.2 8.2s8.2-3.7 8.2-8.3zm-13.1-.1c0-2.8 2.1-5.1 5.1-5.1 1.9 0 2.9.6 3.9 1.5l-1.4 1.7c-.8-.7-1.5-1.1-2.5-1.1-1.7 0-2.8 1.4-2.8 3.1s1.1 3 2.8 3c1.1 0 1.7-.5 2.5-1.1l1.4 1.4c-1.1 1.1-2.1 1.7-4 1.7-2.9.1-5-2.2-5-5.1z"/><path fill="#e6e6e6" d="m525 425.3h3.4l4.2 13.2 4.4-13.3h2.6l4.4 13.3 4.2-13.2h3.3l-6.2 18h-2.7l-4.4-12.8-4.4 12.8h-2.7z"/><path fill="#e6e6e6" d="m551.2 436.4c0-3.9 3.1-7 7.2-7 4.2 0 7.2 3.2 7.2 7s-3.1 7-7.3 7c-4.1 0-7.1-3.1-7.1-7zm11.2 0c0-2.3-1.7-4.3-4.2-4.3s-4.1 2-4.1 4.3 1.7 4.3 4.1 4.3c2.7.1 4.2-1.9 4.2-4.3z"/><path fill="#e6e6e6" d="m567.8 429.7h3.1v3c.8-2 2.4-3.4 4.8-3.3v3.2h-.2c-2.7 0-4.6 1.7-4.6 5.4v5.1h-3.1z"/><path fill="#e6e6e6" d="m577.5 424.5h3.1v11.1l5.6-6h3.8l-5.4 5.5 5.5 8h-3.5l-4.1-5.8-1.9 2v3.9h-3.1z"/><path fill="#e6e6e6" d="m590.1 436.4c0-3.9 3.1-7 7.2-7 4.2 0 7.2 3.2 7.2 7s-3.1 7-7.3 7c-4.1 0-7.1-3.1-7.1-7zm11.2 0c0-2.3-1.7-4.3-4.2-4.3s-4.1 2-4.1 4.3 1.7 4.3 4.1 4.3c2.6.1 4.2-1.9 4.2-4.3z"/><path fill="#e6e6e6" d="m606.5 438.2v-8.6h3.1v7.6c0 2.1 1.1 3.3 2.9 3.3s3-1.3 3-3.3v-7.6h3.1v13.4h-3.1v-2.1c-.8 1.3-2.1 2.3-4.2 2.3-3 .2-4.8-1.8-4.8-5z"/><path fill="#e6e6e6" d="m622.2 439.4v-7.1h-1.7v-2.6h1.7v-3.7h3.1v3.7h3.6v2.6h-3.6v6.6c0 1.2.6 1.7 1.7 1.7.7 0 1.3-.2 1.9-.5v2.5c-.8.5-1.7.7-2.8.7-2.3 0-3.9-.9-3.9-3.9z"/><path fill="#e6e6e6" d="m631.5 425.3h3.2v15h9.4v2.9h-12.5v-17.9z"/><path fill="#e6e6e6" d="m654.3 443.1v-1.7c-.9 1.1-2.3 2-4.4 2-2.6 0-4.8-1.4-4.8-4.2 0-3 2.3-4.4 5.4-4.4 1.7 0 2.6.2 3.7.5v-.2c0-1.9-1.2-2.9-3.3-2.9-1.5 0-2.6.3-3.9.8l-.8-2.5c1.5-.7 2.9-1.1 5.1-1.1 4 0 5.9 2.1 5.9 5.7v8zm.1-5.6c-.8-.3-1.9-.5-3.1-.5-2 0-3.1.8-3.1 2.1s1.1 2 2.6 2c2 0 3.5-1.1 3.5-2.9z"/><path fill="#e6e6e6" d="m663.3 441.1v2.1h-3.1v-18.7h3.1v7.4c1-1.4 2.4-2.5 4.5-2.5 3.2 0 6.3 2.5 6.3 7s-3.1 7-6.3 7c-2.2 0-3.6-1.1-4.5-2.3zm7.7-4.7c0-2.6-1.7-4.3-3.9-4.3s-3.9 1.7-3.9 4.4c0 2.6 1.8 4.3 3.9 4.3s3.9-1.7 3.9-4.4z"/><path fill="#e6e6e6" d="m675.3 441.4 1.4-2.1c1.4 1.1 3 1.7 4.4 1.7s2.1-.5 2.1-1.5-1.3-1.4-2.8-1.8c-.1 0-.2-.1-.2-.1-2-.6-4.2-1.4-4.2-4s2.1-4.1 4.8-4.1c1.7 0 3.5.6 5 1.5l-1.2 2.2c-1.3-.8-2.6-1.3-3.8-1.3s-1.9.5-1.9 1.4 1.3 1.4 2.8 1.8c.1 0 .2.1.2.1 2 .6 4.2 1.5 4.2 4 0 2.9-2.2 4.2-5 4.2-2 0-4.1-.7-5.8-2z"/></g>
</svg>
