<?xml version="1.0" encoding="utf-8"?>
<!-- Generator: Adobe Illustrator 23.0.1, SVG Export Plug-In . SVG Version: 6.00 Build 0)  -->
<svg version="1.2" baseProfile="tiny" id="Layer_1" xmlns="http://www.w3.org/2000/svg" xmlns:xlink="http://www.w3.org/1999/xlink"
	 x="0px" y="0px" viewBox="0 0 900 600" xml:space="preserve">
<g>
	<path d="M640.22,276.62c5.81-4.18-0.91-8.67,4.11-12.24c2-1.42,2.77-3.41,3.01-5.52c0.95-8.44,6.11-14.75,10.83-21.26
		c0.8-1.1,2.23-0.68,3.21-1.5c9.64-8.09,13.43-11.19,26.58-11.84c1.3,0.2,0.4,1,0.3,1c4.71,0.7,8.02,3.21,11.43,5.52
		c1.4-1.2,1-2.51-0.6-3.81c2.51-0.6,3.61,0.3,4.41,2.01c0.71,0.71-0.37-0.41-1.7,4.12c1.3,2.21,2.71,4.01,5.62,4.71
		c-1-2.21-3.21-2.81-4.01-4.81c0.53-1.25,1.01-2.34,0.49-3.6c4.98,5.16,8.17,11.75,13.35,16.53c0.61,2.28-2.09,4.54,1.4,2.21
		c4.01,3.11,4.81,8.02,7.42,11.94c-2.71,1.3-1.6-1.4-2.61-2.21c-3.31,0.9-4.01-2.51-5.82-4.41c-2.11,3.21-6.82,1.81-8.53,5.72
		c3.71,0.6,6.52-1.1,9.53-2.21c3.38,6.23,6.48,7.36,4.11,14.84c-1.37,4.32-3.21,8.53-3.91,13.04c4.11-6.22,4.01-14.44,9.33-20.06
		c-0.7-1.5-1.71,0.1-2.31-0.3c-0.4-0.5-0.3-0.8-0.1-1.1c2.19-2.55,3.4,1.19,5.02,4.41c-7.06,4.71-4.3,9.04-14.74,23.87
		c-15.05-7.89-26.12,3.31-37.01,13.24c0-2.02,0-4.03,0-6.05c-1.7,2.57-1.79,5.42-1,8.66c-6.72,9.63-17.05,16.15-24.37,25.68
		c4.29-14.18,4.44-12.86,3.31-13.24c-12.22,25.2-7.2,19.12,0.59,30.19c2.01,3.31,5.42,4.71,8.93,6.02
		c3.41-6.52,8.61-10.66,13.94-14.74c17.2-13.18-4.09,3.41,25.08-22.17c8.51,9.82,1.9-2.28-15.05,22.07
		c-9.91,14.24-7.56,9.53-52.16,49.35c-7,6.25-12.74,14.04-20.56,19.36c-8.98,6.11-74.09,64.45-76.83,74.92
		c1.7,2.46,68.59,4.97,110.53,0.2c-3.65-3.86-53.05,4.07-107.12-1.81c31.87-37.63,35.29-32.77,45.54-46.04
		c23.17,13.84,44.93,28.49,63.99,47.04c-7.4-13.66-47.23-40.26-62.79-48.04c3.01-2.61,5.22-5.42,8.32-7.32
		c10.13,4.51,19.65,10.04,28.08,16.95c28.74,23.54,36.96,27.89,42.33,36.81c2.34,3.88,3.19,2.98,13.14,3.81
		c11.07,0.92-15.9-14.91,66.3-19.96c15.66-0.96-5.34-0.46,81.14-7.52c23.49-1.92,16.74-4.08,18.66-5.52c1.71,1.5,3.92,0.78,5.92,1.2
		c2.21,0.47,3.41-2.51,5.82-1.3c2.85,31.33,1.46,34.04,6.92,32.4c-3.55-1.66-2.51-0.64-5.62-34.8c-5.32,1.2-10.53,0.1-15.65,0.9
		c-3.01,5.58,11.51,2.97-45.74,7.62c-41.48,3.38-31.3,3.95-56.67,5.32c-3.55,0.19-30.29-0.58-48.95,8.32
		c-4.82,2.3-9.73,4.61-10.03,11.03c-22.49,0-4.44,2.12-25.88-15.45c-36.16-29.62-41.29-31.3-58.37-41.02
		c3.91-4.11,7.44-8.1,12.04-11.13c11.26-7.42,3.52-4.29,48.85-44.63c6.6-5.88,21.59-16.02,30.49-30.19
		c5.33-8.48,19.28-16.87,19.76-17.35c-0.25-4.82-11.77-6.86,0.4-8.73c9.23-1.42,14.42-13.82,5.92-21.56
		c4.79-6.39,7.62-10.17,8.63-14.54c2.47-10.75,16.05-22.83,19.46-31.19c2.37-5.8,10.01-5.87,13.84-14.84
		c0.84-1.96,5.26-2.63,7.52-9.43c3.41,9.53,16.55,19.76,24.07,18.76c2.51-3.21,3.31-7.62,7.12-11.03c0.7,1.2,1.4,2.41,1.81,3.01
		c2.41,0.4,3.51-0.4,4.51-1.4c5.96-6.65,7.44-9.27,9.03-22.47c2.24-18.71-1.41-21.88-3.31-30.19c-0.76-3.33,2.26-8.15-5.32-15.15
		c-19.6-18.09-7.22-5.07-13.84-19.96c5.96-6.45,8.52-9.71,16.55-5.92c3.93,1.86,3.38,2.55,6.22,2.51c3.71-0.05,5.42-1.81,6.72-6.62
		c2.21-1.1,4.01-2.51,3.91-5.62c2.81,0.6,2.61-2.01,3.61-3.31c4.21-0.8,4.4-1.2,4.71-5.72c1-14.45,3.5-5.19,5.52-14.44
		c2.78-12.79,1.82-7.22,10.53-6.82c2.81-0.8,3.24-3.09,4.41-4.61c1.75-2.27,1.1-3.61-1.81-4.31c-3.29-1.32-0.22-0.61,0.2-2.01
		c-1-0.8-1-2.31-1.6-3.41c-2.63-0.66-4.57,3.59-3.61-1.2c-1.81-3.31-4.91-4.51-7.62-6.12c0.45-0.89,3.56-2.24-2.01-3.21
		c-7.92-1.38-6.55-5.65-13.64-6.72c-0.6-1.1,1.1-1.6-0.1-2.61c-4.74,1.98-7.71-3.65-13.94-1.1c-0.9-0.6-0.8-1.71-1.91-1.91
		c-2.51,1.5-5.72-0.7-8.22,0.9c-0.6,1.2,1.1,1.71,0.2,2.91c-1,0.3-2.5,0.11-3.31,1.2c-3.07,4.14-7.38,7.6-9.33,12.64
		c-3.3,8.55-4.16,6.48-6.72,15.05c-1.38,4.62-2.01,9.43-4.71,12.94c-0.5,1.6,1.1,1.71,1.1,2.71c-2.44,5.16-5.42,6.95-21.56,10.33
		c-10.9,2.28-7.43,6.12-20.86,12.24c-5.4,2.46-7.27,4.59-14.64,14.24c-5.05,6.62-1,10.17-4.81,17.55
		c-5.97,11.55-8.85,28.54-10.33,41.52c-4.21,3.31-4.91,8.93-8.83,12.64c-1.1-0.7-2.19-0.19-3.11,0.9
		c-6.3,7.44-15.43-2.62-34.3,15.55c-12.91,12.43-10.36,23.83-15.15,27.68c-5.67,4.57,1.91,8.76-4.41,12.64
		c-3.21,1.96-2.69,4.38-5.69,9.81C637.62,285.87,634.89,280.46,640.22,276.62z M708.22,314.13c-5.69,0.89-3.7,3.26-8.53,6.92
		c-10.43,7.9-12.17,12-15.75,14.44c-7.06,4.81-13.94,9.83-19.26,17.15c-6.52-2.31-7.92-9.33-13.04-11.94
		c-0.3-1.3-0.19-2.09,0.6-2.51c3.25-1.73,5.14-4.89,7.42-7.62c5.17-6.17,11.55-11.22,16.65-17.45
		c10.68-13.05,25.47-29.68,39.72-17.95C724.87,302.43,716.38,312.85,708.22,314.13z M841.42,83.74c0.8,1.1,0.3,2.71,2.01,3.11
		c-0.4,1-1,1.1-2.01,0.9C841.22,86.55,842.02,85.14,841.42,83.74z M849.04,95.68c-3.21,1.4-6.02-0.3-9.03-0.5
		C843.03,94.57,846.04,96.08,849.04,95.68z M695.69,226.97c0.3-1.3,1.3-1.91,2.31-2.91c0.4,0.5,0.7,0.8,1.3,1.3
		C698.09,226.17,697.89,228.17,695.69,226.97z M796.59,160.27c4.31,2.97,12.95,10.75,11.74,15.85c-2.14,8.98,4.72,5.93,3.21,32.5
		c-0.22,3.91-0.71,7.82-1.81,11.53c-2.02,6.82-2.31,7.22-8.53,11.23c-0.8-1.1-1.4-2.51-3.11-3.11c6.02-10.83,7.82-21.77,0.5-32.5
		c1.91-2.81,1.81-5.92,3.01-8.83c1,1.2,0,2.61,1,3.91c1-2.21,1.4-4.11-1-5.62c1.2-0.5,2.71,0.8,3.71-0.9
		c-7.22-2.81-6.22-9.03-6.42-14.94c-2.31-1.4-5.02-5.72-4.71-8.32c2.31,1.81,3.61,4.51,6.42,5.72
		C801.44,163.92,796.75,162.94,796.59,160.27c-1.2-0.7-2.81-0.8-3.41-3.11C794.88,158.16,796.29,158.46,796.59,160.27z
		 M796.59,180.23c3.11,1.1,4.01,1.91,1.5,13.84C795.58,189.16,796.99,184.64,796.59,180.23z M796.99,170.9
		c-0.1,2.01-0.5,4.01,0.3,6.52c-2.81-1.1-3.41-3.31-4.81-5.12C794.48,165.1,793.06,165.4,796.99,170.9z M793.28,177.72
		c3.3,5.25-0.04,10.53,2.41,15.65c8.95,18.68,6.7,15.48,3.01,30.99c-1.1-0.3-1-2.71-2.81-1.81c0.44,0,2.09,3.73-1,9.13
		c-5.92,10.32-2.92,12.29-19.96-0.1c-6.19-4.5-0.51-10.5-15.45-34.1c-6.06-9.57-6.91-18.54-9.13-20.16
		c-5.88-4.29-8.58-15.65-8.02-17.45c0.22-0.7-0.4-1.81-2.21-2.01c1.81,5.72,0.5,12.04,5.52,16.65c-1.6,0.6-2.61-1.1-4.21-0.6
		c1.81,2.51,4.31,3.21,7.32,3.71c1.2,6.72,5.72,12.24,7.12,19.16c-1.4,0.1-2.81,0.1-4.31,0.2c-0.6,0.8,0.7,1.1,0.2,2.01
		c-10.29-5.61-10.27-5.71-9.67-8.38c4.63-8.07,2.06-17.47-0.93,0.48c-1.3-0.29-6.99-8.99-6.85-16.28c1.2-1.2,3.41-0.3,3.81-2.41
		c-3.46-2.83-6.58,7.35-1.1-22.37c1.2,2.41-0.7,4.11,0.3,6.02c1.89-9.44,2.85-14.81,13.14-23.17c4.33-3.52,1.62,2.04,5.22-1.1
		c-0.5-0.2-0.9-0.4-1.3-0.5c5.22-3.41,10.53-3.11,16.05-0.7c-0.5,0.9-1.71,0.2-2.01,1.3c0.5,1.66,8-0.33,19.16,12.54
		C794.61,152.55,787.89,169.16,793.28,177.72z M757.07,199.39c-0.7,0.3-1.1,0.2-1.4-0.1C755.97,198.38,756.47,198.28,757.07,199.39z
		 M833.9,77.62c0-0.19,0.8-0.34,0.8,0.2C834.31,78.6,833.6,78.07,833.9,77.62z M835.3,90.56c-1.4-0.1-2.71-0.4-4.41-1.91
		C833,89.26,834.4,89.46,835.3,90.56z M827.08,89.56c-0.4,0.1-1.1,0.4-1.2,0.2C825.13,89.01,827.08,88.85,827.08,89.56z
		 M822.16,91.46c-1.2,0.9-2.41,1.1-3.71,0.8C819.46,90.96,820.66,91.26,822.16,91.46z M812.94,65.08c0.2,0.2,0.8,0.3,0.3,0.8
		C812.77,65.65,812.45,65.57,812.94,65.08z M814.14,77.32c0.5,1.6,0,2.11-1.6,1.6C812.64,77.52,813.34,77.52,814.14,77.32z
		 M809.43,72.11c0.8,3.6,0.69,2.42,0.1,3.01C808.32,73.66,806.92,73.18,809.43,72.11z M802.71,70.6c0.5,0.7-0.1,0.9-1.2,1.1
		C802,71,802.51,70.4,802.71,70.6z M800,83.44c0.1,0.1-0.1,0.3-0.1,0.5C798.32,84.17,799.31,81.71,800,83.44z M798.39,91.46
		c-0.9,0-1-0.5-1-1.1C798.59,90.26,798.59,90.76,798.39,91.46z M793.58,79.93c-0.5,0.9-1,1.4-2.11,1
		C791.97,79.93,792.48,79.33,793.58,79.93z M795.48,92.47c-1.64,3.28-5.92,3.73-5.82,3.41C790.39,95.88,788.37,94.63,795.48,92.47z
		 M787.66,100.99c0.8,0.4,0.6,1,0.2,1.91C787.16,102.09,786.96,101.49,787.66,100.99z M786.46,90.86c0.8,0.8,0,0.9-0.7,1.3
		C785.65,91.26,786.16,91.06,786.46,90.86z M705.92,208.92c-0.2,1.6-0.9,2.01-2.31,2.71C704.21,210.32,704.61,209.62,705.92,208.92z
		 M701,212.73c2.21,0.3,1.71,1.6,1.5,2.81c1.1,0.4,1.1-1,2.01-0.9c1.3,0.4,2.21,1.81,4.11,1.91c-0.3-1.91-2.21-2.41-3.01-4.41
		c-0.1-0.4,0.8-0.7,1.2-1.3c1-0.7,1.6,1,2.71,0.2c-0.8-1.91-2.91-2.51-4.11-4.21c0.3-1.4-0.2-3.21,1.71-4.31
		c-2.27-1.78-1-0.61,5.72-29.09c2.22-9.42,2.58-0.88,4.51-15.95c0.73-5.7,5.28-10.5,10.33-17.65c3.49-4.95,4.73-1.39,17.55-11.84
		c5.09-4.14,11.13-5.22,17.25-6.62c5.18,8.22,7.19,0.77,26.18,19.76c-0.78-5.61-8.23-8.4-12.44-15.95
		c-0.79-1.41-2.01-3.31-4.11-1.81c-0.9,1.3,0.6,1.81,0.4,2.81c-3.01-1.1-5.72-2.81-8.43-4.81c1.2-1.3,2.51-1.6,4.01-2.01
		c10.78-2.22,6.94-8.43,13.34-8.43c1.38,0,1.94-0.66,7.12-5.32c1.6,2.21,2.11,5.42,5.62,5.42c0.63,0.63-3.08,5.02,1.91,9.53
		c-2.24-6.72,1.65-9.28-0.9-10.13c0-2.36-1-0.91-2.21-1.71c-2.19-1.44-4.29-9.3-3.45-12.4c-0.18,1.38-0.25,2.76,1.04,3.87
		c1.1-0.7-0.3-2.41,1.6-2.71c1.4,1.2-0.4,2.71,0.3,4.01c3.72-0.74-0.11-4.19,3.51-6.23c1.67,2.6,0.01,1.89-3.21,8.32
		c1.5,1.1,2.91,2.91,4.71,0.8c0.3-1.81-1.6-2.11-1.6-3.51c0-2.31,2.11-0.7,3.01-1.4c-0.39-1.68-1.16-3.15-1.1-4.72
		c0.26-0.39,3.65,1.88,2.31,6.42c-0.39,1.31-0.3,2.71,0,4.01c1.1,0.6,1.2-0.9,1.81-0.9c1.2,0.5,1.1,1.91,2.71,2.31
		c-3.36-11.05,19.82-11.08,23.27-14.34c1.81,1.3,3.41,3.01,6.02,2.31c-0.1-0.5-0.1-0.9-0.2-1.3c2.71,0,4.51,1.2,5.52,3.61
		c-1.4,2.81-2.21,5.82-2.61,8.93c-0.73,5.74-4.98,1.69-5.12,8.43c-0.18,8.73-0.37,9.27-1.81,9.93c-2.01-0.3-3.71-1.5-5.02-3.41
		c-2.61,2.61,0.2,3.41,1.5,4.61c-0.4,1-0.41,2.09-1.4,2.71c-1.92,1.18-4.11-1.6-6.02,0.4c0.7,1.81,2.41,0.5,3.21,1.2
		c1,1.4,0.3,2.31-0.8,2.81c-4.8,2.16-1.19,8.84-8.63,6.92c-3.75-0.97-9.19-6.84-16.35-2.11c-7.62,5.04-5.47,7.63-9.03,3.51
		c-7.28-8.42-20.81-16.44-31.8-12.54c-27.86,9.89-24.12,42.34-26.28,44.93c0.1,1.1,1.59,1,1.6,2.41c0.1,7.22,3.31,13.24,8.22,18.36
		c-0.7,1.6-2.21,2.71-2.41,4.51c2.21-0.7,2.21-0.7,4.21-3.61c4.11,6.02,9.63,7.92,16.75,5.52c4.88,5.43,3.04,1.75-1.49,5.33
		c1.65-0.1,3.69,0.46,4.54-1.73c1.78,3.81,3.71,7.54,4.98,11.65c-10.27,17.12-5.93,9.78,0.8,3.61
		c-0.17,6.02-19.26,23.75-19.36,23.77c0.53-2.14,1.98-1.64,1.71-1.91c0.96-0.82-1.55,1.23,4.31-5.72c1.19-1.41,1.6-2.91,2.21-5.32
		c-4.21,2.11-5.02,6.22-7.52,8.83c-1.2-0.3-1.6-1.6-2.81-2.21c0.2,1.4,1.3,2.21,1.81,3.61c-3.11,8.83-9.13,16.05-14.14,24.17
		c-3.92-4.7-4.22-10.72-7.33-15.44c-0.8-0.6-0.6,0.7-1.5,0.6c-5.32-7.12-11.69-13.58-17.15-20.96c-2.68-3.63-6.72-5.92-10.13-9.03
		C697.99,217.34,699.5,214.93,701,212.73z M695.99,223.16c-1,0-1.71-1.1-2.81-0.9C694.88,220.65,695.28,222.36,695.99,223.16z"/>
	<path d="M896.49,523.66c-6.71-4-9.13-2.33-9.13-7.32c0-21.19,0.01-26.42-1.1-33.4c-3.91-0.71-18.19-2.25-17.85,1.5
		c0.32,3.65-1.1,3.71-12.04,3.71c-18.57,0-7.99,1.65-7.72-5.92c-3.71-2.78,1.38-1.65-15.65,0c-113.43,10.99-95.5,4.44-118.35,4.61
		c-2.21,0.02-4.21,0.49-6.42-0.5c-1.6-0.71-3.91-0.6-5.92,0.5c2.72,2.42,43.82,4.9,44.63,4.91c11.64,0.18,23.17-2.24,34.8-1.3
		c0.1,0.01,63.41,0.49,86.46-1.4c1-1.4,2.61-2.21,2.51-4.11c3.18,1.46,11.27,1.31,14.04-0.5c1.34,42.83-1.13,35.24,10.23,40.92
		c-2.01,1.3-4.31,0.2-5.92,1.81c2.81,1,5.12-0.4,7.62-0.6c1.4,1.81,0.8,3.91,1.2,5.72c-12.34,2.61-24.27,0.8-36.51-0.9
		c-6.63-7.57,9.73-5.21,10.33-13.94c-4.82-2.22-121.55,3.27-158.47-4.91c-19.56-4.33-24.07-1.32-30.09-14.74
		c-1.5-0.5-3.21-0.08-4.91,0.2c-13.39,2.22-6.86,0.82-54.56,0.3c-7.02-0.08-13.94,1.82-20.96,1c-3.92-0.46-52.28-1.91-52.36-1.91
		c-11.44,0.99-18.52-11.93-16.25-23.07c0.39-0.3,4.25-1.34,16.95-15.85c6.23-7.11,14.46-11.92,20.96-18.86
		c7.14-7.61,15.18-14.31,22.97-21.36c12.92-11.7,6.14-8.86,21.77-22.07c3.8-3.21,43.08-38.11,42.23-43.03
		c-32.02,34.58-46.52,42.17-48.04,45.03c-2.4,4.52-8.86,8.78-9.93,10.53c-3.18,5.23-8.53,8.12-12.64,12.34
		c-6.82-4.91-14.84-6.52-21.66-10.83c15.49-11.45,13.34-11,26.48-26.48c14.86-17.52,24.67-3.94,34-16.55
		c6.02-0.5,10.13-4.51,14.34-8.43c0.8,0.1,1.5,1.1,2.91,0.3c6.01-9.91,9.56-10.89,7.5-15c-2.47,0.84-2,3.2-2.59,4.97
		c-1.81,1.4-3.61,2.81-5.12,4.01c-1,1.1,1,2.71-1.3,3.21c-1.37-0.41-14.28-20.46-14.34-20.56c-3-5.06-3.02-2.02-13.84-14.84
		c-1.7-2.01-0.7-5.12-3.31-6.92c3.51-2.51,5.01-5.92,7.32-8.83c12.92-16.22,14.07-14.97,14.14-18.51
		c-2.94,5.06-3.46,4.43-10.73,12.99c-3.59,4.23-6.45,9.2-10.53,13.14c-1.38,1.33-2.51,3.51-1,5.62
		c-9.32,14.85-7.87,18.39-15.75,20.76c-15.2,4.58-28.32,16.74-38.72,26.28c-11.02,10.11-6.68,13.3-11.94,19.26
		c-4.01-4.21-8.62-6.84-14.14-8.43c-6.01-1.73-9.43,1.2-12.74,4.31c-0.7,1.5,1.3,1,0.5,2.41c-3.01-0.9-4.92,1.6-7.32,2.71
		c-8.41,3.87-13.35,10.53-17.05,19.06c-2.47,5.7,2.04,8.51,2.81,10.23c5.38,12.02,10.46,7.9,1.81,11.33
		c-10.2,4.05-5.81,5.98-10.63,8.12c-2.71,1.2-5.42,2.21-7.72,4.11c-7.52-5.32-10.63-4.61-15.85,3.31
		c11.82,24.19,7.5,12.11,19.06,25.18c-1.71,2.21,0.2,5.12-1.71,7.12c6.01,11.15,15.08,19.48,16.15,28.39
		c-2.71,0.4-5.31,0.61-7.92,1.1c-5.41,1.02-7.62,5.92-4.71,10.03c0.4-11.9,9.97-5.84,13.94-10.23c-0.26-8,1.68-7.82-15.95-29.69
		c1.81-0.8,1.2-2.91,2.01-4.51c3.41,3.31,6.62,6.53,11.23,7.52c10.4,2.25,1.08,7.67,12.04,16.65c12.9,10.56,12.72,12.95,22.14,18.65
		c-1.69,6.75-41.47,2.11-44.3,1.51c0.4,2.81,0.4,2.8,3.51,3.21c1.54,0.2,29.63,2.64,35.81,0.7c2.21-0.69,4.71-1.2,6.02-3.71
		c-0.36-0.55-0.64-1.09-0.92-1.64c0.73,0.42,0.83,0.55,0.62,0.34c2.94,0.49,6.5,3.66,8.73,0.1c2.01-3.21,4.81-6.22,4.51-10.53
		c-0.72-5.03-2.01-0.31,97.19-1.3c11.03-0.11,22.07,1.05,33.1-0.4c2.21-0.29,4.41-1.2,6.82-0.6c5.39,12.58,8.88,15.08,81.24,19.46
		c19.2,1.16,105.53-1.6,106.72,0.3c-0.44,2.34-2.49,2.28-9.53,5.72c-5.54,2.7,2.06,8.64,3.81,8.73c10.47,0.48,13.21,4.21,36.01,0.3
		C900.22,529.12,900.8,526.23,896.49,523.66z M788.56,488.35c0.4-0.3,0.7-0.4,1.1,0C789.27,488.35,788.96,488.35,788.56,488.35z
		 M798.79,487.25c15.95-1.4,31.9-2.21,48.14-4.11C843.77,491.58,822.39,486.6,798.79,487.25z M587.26,421.85
		c-3.21,2.71-5.02,6.12-7.92,8.43c-7.72-3.81-15.15-8.22-24.07-10.83c3.31-2.81,6.32-5.32,9.43-7.92
		C572.11,414.93,579.54,418.34,587.26,421.85z M549.75,376.32c2.52-5.85,20.03-23.16,37.71-33.1c4.43-2.49,11.37-0.82,16.85-11.63
		c1.99-3.92,4.11-7.62,6.52-11.94c3.81,5.22,7.32,10.13,12.04,13.84c-0.37,2.02-3.36,1.4-3.21,3.51c2.31,0.9,2.81-1.81,4.91-2.31
		c5.22,6.52,8.93,14.54,14.84,20.86c0.2,1.5-0.91,2.3-1.91,3.11c-3.22,2.6-5.9,5.91-10.23,6.72c-3.11,0.58-3.35,6.09-15.65,6.02
		c-12.2-0.07-19.76,8.34-26.78,18.05c-12.7,17.58-47.28,35.43-52.26,53.26c4.81-8.93,13.04-14.54,20.26-21.16
		c8.93,1.6,16.45,6.22,24.67,10.23c-14.84,13.04-29.19,26.18-43.43,40.32c-2.47-13.85,8.25-36.48,1.2-30.29
		c-7.76,6.81-6.47,5.42-9.03,3.71c1.2-2.31,2.41-4.51,3.61-6.82c-3.01,1.2-3.71,4.11-5.52,6.62c-4.31-2.21-7.12-5.52-8.83-10.23
		c9.31-9.31-0.3-3.23-0.4-3.21c-1.91-3.41-1.61-4.37,2.21-4.91c2.4-0.34,4.51-2.41,7.12-1.1c15.87-17.77,5.13-4.81,15.15-26.48
		C543.14,391.77,546.43,384.03,549.75,376.32z M524.67,448.13c-6.02,1.91-15.95-3.21-18.76-11.33c1.81-3.01,3.91-6.02,5.42-9.43
		C512.74,436.3,515.34,444.12,524.67,448.13z M528.28,377.62c4.04,1.03,15.1,6.73,13.64,10.33c-1.39,3.42-1.91,7.12-4.61,10.23
		c1.4-8.22-1.3-13.54-9.73-15.15c2.21,2.51,6.82,2.31,7.62,7.32c-3.61-4.81-8.32-6.42-13.24-7.62c0.5-0.8,1.6,0,2.11-0.8
		c-1.1-1.2-2.71-0.9-4.31-1.4C522.27,378.12,524.77,376.72,528.28,377.62z M497.49,412.63c-6.18-16.68,18.08-29.46,20.36-28.89
		c4.21,0.8,8.43,1.3,11.94,4.01c9.38,7.25,5.45,24.64-2.31,32.4C519.29,428.34,502.75,426.81,497.49,412.63z M465.39,440.91
		c2.31-1.81,4.71-3.11,7.02-4.51c2.31,0.7,4.21,1.91,6.22,3.31c-1.71,2.51-5.22,1.1-6.82,3.81c0.4,5.52,4.31,10.23,5.22,15.85
		C471.71,454.15,468.7,447.53,465.39,440.91z M536.41,511.32c-20.07-8.98-15.67-12.29-28.69-20.86c-2.72-1.79-4.71-4.31-3.91-8.43
		c0.7-3.61-3.21-7.34-6.92-8.02c-13.37-2.45-18.69-20.13-23.17-29.49c6.12-2.31,10.51-6.66,16.05-8.93
		c3.31-1.35-3.18-2.02,14.04-10.63c4.51,1.93,6.49,0.69-0.5,11.53c3.75,12.1,11.65,12.79,15.75,14.64
		c6.28,2.84,10.01-1.08,15.45-5.32c-0.1,4.91-1,9.03-3.21,12.64c-2.11,1.1-4.51,0.7-6.42,1.81c0.6,1.2,1.91,1,2.71,1.6
		c-0.4,0.9-1.71,0.9-1.81,2.21c1.2,1.71,3.11,1,5.42,0.7c-1.81,1.71-4.31,1.1-5.12,3.11c1.4,1.71,3.31,0.3,5.12,1.2
		c-1.81,1.81-5.02,0.9-6.02,3.61c1.6,2.41,3.61,1,5.42,0.6c0.7,0.6,0.2,1.3,0.2,2.11c-1.3,0.3-3.01-0.2-3.91,1.5
		c-0.1,0.9,0.6,1.6,0.9,2.41c1,0.3,1.1-1.1,2.01-1.1c1,2.01-0.4,6.74,3.91,11.63c2.3,2.61,3.55,6.19,6.32,8.63
		C541.54,499.82,540.37,506.48,536.41,511.32z"/>
	<path d="M652.02,344.03c-0.04-0.02-0.08-0.03-0.12-0.05C651.94,344.08,651.92,344.06,652.02,344.03z"/>
	<path d="M67.3,514.23h0.1C67.37,514.19,67.33,514.2,67.3,514.23z"/>
	<path d="M395.79,526.87c-4.55,2.28,1.72,9.12,6.32,8.83c7.75-0.49,6.48,4.05,33.8,0.1c0.72-5.05,1.35-8.03-3.01-10.53
		c-13.64-7.83-7.35,4.75-9.93-37.61c-0.1-1.7,0-3.51-2.31-3.61c-9.12-0.4-16.25-1.25-16.05,2.61c0.18,3.3-1.21,3.14-17.45,3.31
		c-11.17,0.12-0.88-0.92-2.21-6.02c-4.12-4.71-80.08,11.22-123.77,5.22c-5.92-0.81-11.94,0.2-17.75-1.2c-1.3-0.4-3.01-0.2-4.41,0.6
		c14.55,3.47,44.42,4.71,46.44,4.61c69.9-3.18,84.42,0.48,118.96-2.51c1.3-1.2,2.61-2.31,2.81-3.81c4.81,0.6,9.43,1.1,13.84-0.5
		c1.4,12.04,0.4,24.27,1.6,35.81c2.91,2.51,6.12,3.01,8.93,5.02c-7.68,1.75-8.5,1.18-1.91,1.71c1.58,0.13,4.31-2.61,4.31,2.21
		c0,1,0.7,1.91,0.3,2.81c-12.24,2.81-24.17,0.6-36.41-0.7c-4.34-6.2,1.67-4.58,5.82-8.93c-0.3-0.6-0.61-0.15-0.22-0.75
		c-0.91,0.11-1.18,0.19-1.27,0.21C403.17,524.2,403.28,523.11,395.79,526.87z M335,489.26c16.25-1.71,32.5-2.11,49.15-4.41
		C379.78,493.95,358.42,488.16,335,489.26z"/>
	<path d="M402.21,523.72c-0.04-0.02-0.07-0.03-0.11-0.06C402.16,523.71,402.15,523.73,402.21,523.72z"/>
	<path d="M441.32,362.27c0.64-3.6,0.6-7.12-2.01-10.03c0.2-0.9,1.3-1.1,1.2-2.11c-2.01-2.21-1.3-5.62-3.41-7.62
		c-1.3-0.2-1.4,1.3-2.51,1.3c-0.9-0.9-1.1-2.71-2.51-3.01c-3.41-0.72-6.22-3.1-9.63-3.61c-23.42-3.53-17.32-2.98-31.8-1.6
		c-3.14-10.21,0.41-18.07-11.43-31.09c-7.36-8.1-9.16-18.02-26.88-20.26c-1.51-0.19-3.22,0.02-4.41-0.7
		c-6.17-3.72-12.94-6.62-18.15-11.84c-13.77-13.77-41.47-25.92-50.35-27.98c-19.58-4.54-24.69-15.08-47.74-14.04
		c-7.12,0.32-21.56,4.11-26.58,9.13c-8.29,8.29-10.7,10.86-12.04,14.54c-9.26,25.48-21.04,16.2-51.86,52.26
		c1.5,4.71,3.91,8.93,5.92,13.24c-10.4,15.78-8.01,18.88-17.15,22.07c-15.15,5.28-25.69,14.05-37.81,25.88
		c-9.26,9.04-6.38,9.05-11.94,19.66c-6.53-7.93-20.8-13.83-27.18-3.71c0,0.9,1.3,0.4,1.3,1.5c-6.98-1-33.39,20.34-22.97,30.89
		c1.51,1.53,2.26,6.7,7.52,10.53c-8.86,3.75-10.99,4.43-12.04,6.82c-1.94,4.43-6.57,3.53-11.03,7.52
		c-6.42-4.61-7.92-6.82-15.85,3.11c10.92,23.34,9.62,14.06,18.96,25.18c-1.2,2.41,0.1,5.22-1.5,7.22
		c6.19,11.19,14.75,19.18,16.15,28.28c-2.91,0.4-5.63,0.65-8.32,1.3c-4.32,1.04-8.35,5.82-4.01,10.43
		c-1.13-12.65,13.48-7.07,13.54-10.93c0.12-7.89,1.28-8.21-15.75-29.49c1.81-1,1.2-3.01,2.11-4.51
		c11.94,12.51,16.19,4.31,17.05,14.14c0.3,3.41,1.72,6.4,4.31,8.32c6.45,4.77,11.67,10.8,17.75,15.95c2.27,1.92,5.1,3,7.09,5.19
		c2.49-1,5.71,4.7,10.06-2.18c2.1-3.32,3.71-6.72,3.21-10.93c4.55-0.05,57.17,1.6,57.27,1.6c9.91,0.58-2.91-0.5,67.6-0.5
		c4.01,0,7.92-1,12.04-1.4c7.67,15.34,13.29,11.82,22.67,13.94c50.87,11.49,162.7,3.29,165.3,6.12c-0.09,1.34-1.45,1.74-2.03,2.66
		c2.88-0.37,3.2-2.86,3.93-5.27c-6.57-2.81-173.51,7.47-186.96-15.95c-4.9-8.53,6.82,0.29-50.35-3.11
		c-15.11-0.9,2.21,2.89-85.66-0.7c-9.34-0.38-8.99-4.62-10.83-6.52c-4.59-4.74-5.12-10.43-3.71-16.55
		c20.71-18.12,18.01-18.95,26.58-24.17c5.34-3.25,1.32-2.32,35.11-32.6c12.34-11.06,3.93-6.88,20.96-21.36
		c48.51-41.24,42.78-44.55,41.73-42.43c-11.47,13.47-37.94,36.98-44.63,41.62c-4,2.77,0.16,0.94-9.73,10.13
		c-0.99,0.92-2.21,1.8-2.91,2.91c-3.23,5.11-8.43,8.12-12.64,12.34c-6.72-5.02-14.94-6.42-21.77-11.03
		c20.75-12.89,25.17-30.06,37.21-34.9c5.43-2.18,16.52,0.19,23.11-7.42c-16.34,9.91-17.48,0.17-30.13,10.63
		c-10.65,8.81-8.76,13.9-28.18,29.19c-29.78,23.43-32.34,28.26-35.11,36.01c5.18-4.48-1.51-1.47,20.46-21.06
		c8.93,1.71,16.55,6.22,24.67,10.33c-14.84,13.04-29.19,26.18-43.43,40.32c-1.6-11.82,1.23-13.14,2.51-23.37
		c0.29-2.31,0.7-4.51,1.91-6.52c-1.1-2.01-2.3-1.3-3.41-0.3c-8.57,7.76-6.44,3.81-8.83,3.81c0.8-2.61,2.71-4.51,3.11-7.12
		c-2.41,1.5-3.41,4.11-4.91,6.62c-4.41-2.21-7.22-5.62-8.93-10.23c9.65-9.65,0.08-3.25-0.5-3.11c-1.6-3.61-1.19-4.33,2.61-5.12
		c4.89-1.01,5.6-2.66,6.62-0.5c2.42-3.58,9.32-9.75,10.03-13.04c2.38-11.02,9.19-20.17,12.74-30.79
		c4.65-13.92,29.58-36.15,47.34-41.62c7.29-2.25,8.97-7.8,16.95-22.17c4.21,5.82,6.22,12.14,8.83,18.46
		c-2.61,3.31-6.12,5.92-8.22,9.73c3.51-1.81,5.52-5.52,8.93-7.82c1.5,3.71,3.8,7.02,4.61,10.93c1.23,5.88,5.97,10.02,6.32,12.64
		c-0.61,1.23,0.93-0.14-4.92,3.48c2.68,1.01,4.36-3.12,7.23-1.88c12.98-11.92,16.67-14.24,17.85-20.56
		c4.01,4.21,6.42,9.83,13.04,10.73c6.24-11.76,16.75-14.5,25.08-24.27c4.01-4.71,9.23-8.12,13.84-12.34c1.4,1.6,2.61,2.91,3.91,4.21
		c-7.94,4.76-13.93,10.65-18.86,17.75c-11.02,15.87-8.6,9.7-49.65,46.94c-7.42,6.73-14.05,14.44-21.77,20.66
		c-40.41,32.59-32.18,31.95-43.73,39.02c-6.98,4.27-32.78,31.25-34.6,37.91c36.91,2.41,73.62,3.11,110.73-0.2
		c-1.97-3.18-64.69,3.27-107.12-2.21c27.24-33.29,34.45-32.68,44.83-45.14c1.07-2.13,42.1,24.4,64.39,46.34
		c-7.85-15.11-47.78-39.81-62.59-48.14c2.81-2.41,5.22-5.22,8.12-7.22c10.33,4.71,20.05,10.34,28.69,17.45
		c27.71,22.83,36.17,27.28,42.03,36.71c3.03,4.88,6.11,2.13,12.64,3.61c10.09,2.29-11.48-15.69,61.89-19.46
		c0.11-0.01,96.61-8.26,104.11-11.13c0.4-0.7-0.2-1.6,0.7-2.21c3.91,2.51,7.72,0.9,11.63-0.8c3.13,31.86,1.36,34.65,6.92,32.8
		c-3.78-1.66-2.25-1.44-5.42-34c-5.42,0-10.43,0-15.15,0c-2.73,2.53,3.79,4.25-10.13,5.22c-100.85,6.98-150.25,8.08-152.16,27.68
		c-3.81,0.2-7.42-0.56-10.93-0.2c-4.18,0.43,2.57-1.73-17.95-18.05c-39.84-31.69-23.6-20.56-55.17-38.52
		c3.81-4.01,7.33-8.12,11.94-11.13c11.74-7.68,3.71-4.41,48.34-44.13c6.75-6.01,21.84-16.2,30.89-30.69
		c5.45-8.73,19.22-16.77,19.76-17.35c0-3.81-4.41-3.91-5.22-7.32c8.02-1.6,15.55-3.81,16.05-13.24
		c10.26-6.84,11.41,16.3,31.19,27.88c0.7,0.41,1.71,0.6,2.31,2.11c-7.12-0.5-11.87,3.19-15.45,8.43c-3.34,4.89-8.12,9.23-7.22,16.05
		c3.61,2.61,8.02,3.41,11.03,6.52c-1.9,2.09-4.52,3.75-1.1,6.82c6.33,5.67,9.27,7.43,23.67,8.63c19.52,1.62,20.86-2.13,29.09-4.11
		c4.18-1,8.33,1.58,14.74-5.62c3.5-3.92,6.92-7.92,10.53-12.04c2.41,0.2,4.81-0.9,7.12-1.3c5.36,7.14,7.19,8.92,5.92,10.33
		c-2.81,3.11-1.77,7.03-2.91,10.43c-1.13,3.35,1.82,8.22,8.73,7.42c1.81,2.01,3.91,2.81,6.62,1.91c0.4,2.71,2.61,1.81,4.11,2.21
		c3.21,5.01,2.1,3.69,15.55,0.7c3.7,5.65,9.35,0.42,15.75,2.41c0.2,2.11,0.7,4.21,0.7,6.22c0,2.21,1.8,3.69,3.01,3.61
		c2.2-0.14,4.81,3.01,6.82-0.7c-0.63-6.31,0.38-1.8,1.91-2.31c0.4-1.2,1.81-1.71,2.71-2.41c-0.1-1.6-1.81-2.11-2.31-3.41
		c5.42-1.3,4.11-6.22,5.62-9.63c0.7,0,1.3,1.1,2.21,0.2c1.03-1.55-1.35-5.35-0.1-8.32c1.35-3.19,2.51-6.52,1.91-9.83
		c1-0.9,2.01,0.4,2.41-0.9C442.93,364.48,441.04,363.88,441.32,362.27z M92.38,421.35c3.31-2.81,6.32-5.32,9.63-8.12
		c7.32,4.11,15.05,6.52,22.37,10.73c-3.21,2.41-4.81,5.82-7.92,8.12C108.63,428.37,101.2,423.86,92.38,421.35z M2.61,442.62
		c2.21-1.6,4.41-3.11,6.92-4.31c2.21,0.8,4.21,1.81,6.22,3.51c-2.11,2.11-5.22,1-6.82,3.61c0.5,5.52,4.31,10.23,5.52,16.05
		C10.73,458.66,4.91,449.34,2.61,442.62z M71.71,447.63c-0.2,4.91-1,9.03-3.41,12.84c-2.11,0.5-4.11,0.9-6.12,1.3
		c0.3,1.71,1.91,1.1,2.71,1.6c-0.2,1.1-1.71,0.9-1.81,2.31c1,1.91,3.11,0.6,4.91,1.1c-1.4,1.5-4.01,0.6-4.71,2.81
		c1.3,1.81,3.31,0.5,5.42,0.9c-2.01,2.11-5.42,1-6.32,3.91c2.58,3.71,6.34-2.39,5.62,2.71c-5.96,0.92-3.36,2.35-2.81,3.81
		c1,0.2,1.1-1.2,2.21-1c0.6,1.8-0.64,6.53,3.61,11.43c2.37,2.74,3.71,6.32,6.52,8.83c1.11,0.89,0.82,7.47-3.81,12.74
		c-3.91-1.81-7.74-2.98-11.13-5.62c-6.26-4.86-11.23-11.24-17.95-15.55c-2.51-1.61-4.37-4.1-3.51-7.92c0.74-3.3-2.91-7.5-6.32-8.12
		c-15.43-2.84-19.21-22.03-24.17-29.69c6.02-1.81,9.89-6.53,15.45-8.32c3.96-1.28,0.35-4.58,10.13-8.73
		c7.18-1.92,1.32-3.85,8.93-0.3c-0.6,3.61-2.81,6.52-4.81,9.63c1.91,5.82,5.03,10.39,11.03,12.74
		C61.74,455.11,62.17,454.93,71.71,447.63z M61.89,450.14c-6.12,1.6-15.85-3.01-18.96-11.33c1.71-3.01,3.71-5.82,5.42-9.23
		C49.95,438.3,52.56,446.13,61.89,450.14z M64.59,422.05c-4.67,5.37-16.49,6.96-24.67,0.6c-5.81-4.52-7.81-14.54-4.61-21.06
		c3.73-7.61,10.63-11.43,17.25-15.65c4.61-2.3,16.62,2.53,19.26,10.93C72.92,400.41,73.06,412.31,64.59,422.05z M63.99,385.85
		c4.51,0.6,6.92,2.21,7.92,5.62C70.01,388.55,66.8,387.55,63.99,385.85z M78.84,389.96c-1.57,3.28-1.91,7.02-4.31,10.13
		c-1.5-2.21,0.4-4.21-0.2-6.52c-1.53-5.94-8.62-11.25-10.33-7.82c-6.81-1.57-2.66-0.86-2.81-2.21c-1-1.3-2.91-0.3-4.11-1.4
		C64.2,374.05,80.46,386.55,78.84,389.96z M421.06,376.42c0.6,0.2,0.8,0.6,0.8,1.1C421.16,377.52,420.86,377.22,421.06,376.42z
		 M419.86,342.72c-1,0.5-1.2-0.4-2.21-1.1C419.36,341.31,419.86,341.71,419.86,342.72z M418.15,350.44c0.1-0.9,0.4-1,0.9-1.1
		C419.16,350.34,418.65,350.24,418.15,350.44z M418.45,374.21c-1.3-1.2-1.81-2.31-2.41-4.01
		C417.85,371.2,417.95,372.51,418.45,374.21z M415.75,339.91c-0.8,0-1-0.2-1-0.7C415.34,338.9,415.55,339.21,415.75,339.91z
		 M415.34,346.83c0.33,0.33-0.8,1.13-0.8-0.1C414.84,346.53,415.14,346.53,415.34,346.83z M411.33,350.04c0.4,0.6,0.5,1.1-0.7,1.3
		C410.43,350.54,410.73,350.24,411.33,350.04z M250.95,313.23c-6.93,4.31-9.12,1.94-10.63,5.62c-0.3,0.6-0.59,1.31-1.1,1.71
		c-6.93,5.34-12.54,12.13-19.46,17.45c-18,13.85-14.83,13.53-18.35,16.35c-6.12-2.31-7.72-9.23-12.74-11.94
		c-0.2-1.3,0-1.81,0.5-2.41c28.46-28.12,44.19-55.25,61.58-44.73C258.86,300.18,258.99,308.23,250.95,313.23z M258.78,302.19
		c-1.81-5.82-6.22-8.83-11.33-11.33c-0.4-1.91-0.5-4.01-2.21-5.72c-0.8,2.11,0.9,3.61,0.5,5.72c-12.84-0.5-21.36,7.32-29.29,16.35
		c-0.7-2.11,0.1-3.91-0.6-5.72c-1.4,3.11-1.6,4.31-0.8,7.82c-5.79,8.5-12.28,12.08-23.67,24.97c0.6-4.21,2.11-8.22,3.11-12.34
		c-3.77,6.28-10.6,17.35-5.92,22.97c0.1,0.8-0.6,1.1-0.7,1.6c-0.6,4.61-4.3,6.63-7.52,9.23c-3,2.42-5.22,5.92-8.93,7.72
		c-3.31-4.91-5.77-10.11-7.92-15.75c-12.74-33.31-10.69-21.9-19.16-40.62c6.92-10.63,16.75-17.76,26.48-24.87
		c34.63-25.34,13.16-18.99,35.11-40.72c4.63-4.58,18.75-10.03,30.19-10.03c11.08,0,29.74,8.18,32.2,10.63
		c1.78,1.56,4.01-0.73,6.62,2.31c-2.11,0.3-3.61-1.2-5.42-0.2c-0.4,2.61-0.9,5.32-2.51,7.72c0.8,2.01,1.1,4.21,2.81,5.32
		c-0.5,1.71-1.5,0.1-2.21,1c-0.6,1.71,0,3.41,1.1,5.12c1.4-0.8,0-2.41,1.3-3.01c0.9,3.21,0.9,3.21-1.2,5.22
		c0.2,0.9,1.3,0.2,1.81,1.2c0.49,6.8,0.52,4.9-1.4,4.51c-0.22-1.01,2.88-2.14-1.81-4.01c0.9,1.71,0.3,2.71-0.8,3.21
		c0.4,1.71,1.81,1.81,2.41,2.81c-0.9,0.9,0,2.01-0.2,3.01c1.1,0.2,0.8-1.3,2.11-1.2c0.5,4.21-0.4,8.12-1.91,12.14
		c-3.61-1.2,2.77-4.67-2.51-9.23c2.73,10-0.8,3.99-4.61,14.74c-2.11,5.93-2.11-2.97-2.11,6.82c1.2,0.3,0.9-1.1,1.5-1.4
		C264.39,300.51,265.12,299.73,258.78,302.19z M270.41,253.55c-1.3-0.8-1-1.3-0.3-1.81C271.11,252.24,270.71,252.85,270.41,253.55z
		 M266.5,292.47c-0.1-1.71,0.6-2.11,1.2-2.61C268.1,290.96,267.5,291.46,266.5,292.47z M266.3,287.65c-0.5,0.9-1.1,1.81-1.91,3.21
		C264.29,288.96,264.99,288.15,266.3,287.65z M263.39,293.17c-0.95-1.58,1.61-1.72,1.3-0.5
		C264.69,293.37,263.99,293.37,263.39,293.17z M264.19,295.68c0.2-0.9,0.8-0.6,1.71-0.9C265.4,296.18,264.89,295.98,264.19,295.68z
		 M284.95,325.16c-0.4-1.81-2.4-4.23-4.81-4.91c-2.34-0.66-8.95-13.39-9.83-15.15c0.48-1.26,0.89-2.52,1.83-3.51
		c0.55,3.22-0.32,3.39,3.69-2.41c1.01-0.27,3.66,1.78,1.2-1.91c1.21-2.55,9.22-13.83,13.04-21.46c-1.71,0.37-1.47,1.5-8.12,11.23
		c-18.27,26.74-7.02,11.28,1.5-9.03c-5.12,7.72-9.33,15.95-13.54,24.77c-0.7-1.5-0.5-2.41,0-3.31c2.92-5.31,1.32-4.4,9.33-23.97
		c0.17-0.85,1.56-1.32,1.2-2.91c-2.02,1.42-7.03,13.09-8.22,15.05c-2.77,15.23-7.12,13.4-4.61,16.75
		c-4.18-1.08-2.81-1.71,4.41-16.85c0.25,0.12,0.24,0.14,0.1,0c0-3.61,2.68-2.41,1.1-21.46c-1.09-13.17-0.52-16.93,3.81-20.66
		c23.43,5.5,46.48,22.99,65.8,37.51c8.15,6.12,22.25,0.71,29.79,17.75c0.37,0.84,14.74,10.43,14.74,28.18
		c-5.82,0.3-4.31,5.82-6.82,8.83c0.58-9.79,2.99-21.75-11.33-29.69c-23.79-13.18-20.64-5.97-24.37-10.33
		c-4.34,3.04-12.69-0.52-21.46,12.44c-1.74,2.57-3.08-1.98-5.72-2.21c0,2.71,3.11,2.81,4.11,4.91c-1.5,3.41-1.71,7.32-0.6,11.63
		c-9.53,0.3-17.05,5.72-25.28,9.23C287.11,328.62,285.58,328,284.95,325.16z M272.13,301.56c0,0.01,0,0.02,0,0.03
		C272.08,301.59,272.13,301.59,272.13,301.56z M327.58,376.42c-9.35,4.52-43.14,5.54-46.24-7.32c2.43-1.35,2.79-2.2,2.74-2.58
		c0.63,0.57,3.45,2.16,14.21,4.69c5.44,1.28,10.71-1.67,18.56-4.91c5.88,2.94,14.63,2,4.31,3.21c2.51,1.6,4.31,1.6,5.92-0.6
		c0.7,1-0.7,2.51,1,3.41c2.41-6.52,8.02-6.62,13.64-6.62c1.81,0,2.01-1.89,3.41-2.41c1.31-0.49,2.01-1.81,3.01-2.81
		c6.97-0.7,0.47,1.26-2.71,6.62c3,0.79,4.18-3.88,6.82-4.21C338.52,381.48,336.82,371.95,327.58,376.42z M318.86,365.28
		c3.91-2.41,7.82-1.4,11.84-1.6c-0.1,1.4-0.6,2.11-1.3,3.01C325.98,366.59,322.57,366.59,318.86,365.28z M334,363.88
		c1.3-2.31,3.91-2.91,5.82-4.61c1.81,0.5,3.61,1,5.72,1c-2.61,2.31-2.61,2.31-4.51,1.4C339.52,365.08,336.21,362.88,334,363.88z
		 M352.36,362.98c0.5-1.2,0.3-2.91,2.81-2.91C354.16,361.27,353.76,362.68,352.36,362.98z M353.86,357.26
		c-3.41-0.19-6.92,0.21-10.33,0.1c-3.01-0.09-5.8,0.53-8.12,2.21c-5.51,3.98-11.26,0.76-15.95,2.91c-17.7,8.1-14.5,8.06-31.49,4.01
		c1.4-2.51,4.11-1.4,6.12-2.91c-4.66-3.49-3.68,4.13-13.84-1.1c-9.56-4.93-3.46-2.4-3.11-5.22c-1.71,0-3.21,0.2-4.51,1.6
		c-1.1-3.21-0.25-5.67,1.91-7.72c5.34-5.09,3.06-10.39,13.74-12.84c12.82-2.93,24.28-12.84,39.92-12.14
		c8.37,0.38,18.56-5.75,18.56-8.02c-1.1-0.8-1.91,0.5-3.21,0.2c-1.4-3.51-2.11-7.22-0.6-11.43c-3.41,4.21-3.91,7.42-1.91,13.24
		c-4.81,4.11-10.83,3.61-16.95,3.81c0.2-2.81,0.5-5.22,0.7-7.82c4.81,0.7,8.73,3.41,13.44,4.11c-2.91-4.01-7.42-5.32-11.53-7.42
		c4.04-10.9,16.07-12.26,16.75-9.13c1.2,0.1,1-1.2,1.81-1.6c9.63-0.56,24.95,6.81,30.39,14.34
		C385.18,329.67,375.27,358.46,353.86,357.26z M418.96,391.76c-7.27-1.17-11.28,2.35-13.34-0.3c-2.22-2.86-4.21-1.8-13.14,0.9
		c-3.94,1.19-2.79-4.73-0.8-6.12c-2.61-1.3-2.91-1.1-3.91,2.51c-6.66,0-1.98-4.19-5.22-6.02c-1.71,1.2,0,2.41-0.3,3.61
		c-0.8,1.2-1.92,1.02-2.81,0.1c-3.67-3.81-9.55,1.64-9.33-5.72c0.1-3.31-0.19-6.81,2.01-9.73c0.91-1.2,1.09-3,0.5-4.61
		c-0.51-1.4-4.71-7.02-6.12-8.22c15.46-13.25,9.93-4.79,18.15-23.27c0.58-1.31,1-2.91,2.81-3.21c2.11,1.3,0.4,2.81,0.2,4.21
		c0.5,1.4,2.01,2.11,3.01,3.51c-1.4,0.1-2.31,0.9-3.51,1.81c0.5,0.9,1.91,0.7,2.31,2.01c-2.61,0.4-5.12,0.9-7.22,2.81
		c3.91-0.9,7.82-1.5,11.53,1.1c-0.7,2.41-5.82,4.01-2.01,7.62c2.85-1.43-1.36-1.75,1.91-4.61c4.48-3.92,8.2-7.98,12.14-4.61
		c7.74,6.63-0.01,3.36-2.71-0.6c-1.6,0-2.61,0.8-3.41,1.81c1,1.2,2.31-1,3.21,0.7c-0.6,1.71-2.61,0.5-3.81,1.6
		c1.91,2.71,5.12-1.3,7.02,1.5c-3.01,2.91-5.72-2.01-8.93-0.1c-0.6,1.3-1.4,2.91,0.3,4.21c2.41,0.3,2.01-2.75,3.61-2.61
		c3.69,0.32-1.72,4.8,6.12-0.1c-1.2,5.42-6.62,3.31-9.23,5.82c0,1,1,0.8,1.5,1.3c0.4,1.2-1.71,1.5-1.1,3.11
		c9.22-6.22,16.55,14.71,20.96,17.35c-0.2,2.11-1.71,4.21,0,6.22c1.11,1.11,1.3-3.68,1.3,3.81
		C420.26,390.16,419.56,390.96,418.96,391.76z M420.56,391.56c1.6,2.61,1.1,5.52,1.91,8.22
		C421.06,397.28,420.56,394.47,420.56,391.56z M423.47,385.85c-0.4-1.3-0.6-2.51,0.3-3.61
		C423.77,383.44,424.37,384.64,423.47,385.85z M425.98,372.61c-1.73-1.15,0.4-1.68,0.4-1.2C426.28,371.8,426.08,372.2,425.98,372.61
		z M426.48,371.4c-0.63-0.63,0.28-1.4,1-1.71C427.88,370.8,427.18,371.1,426.48,371.4z M427.48,360.37c0.8-0.1,1.2,0.4,1.4,1.1
		C427.38,362.07,427.38,362.07,427.48,360.37z M428.08,390.86c1.4,0,1.4,0,1.4,1.71C428.38,392.26,428.08,391.66,428.08,390.86z
		 M430.89,390.36c-0.1-0.8,0.2-1.3,1-1.4C432.3,389.96,432.1,390.46,430.89,390.36z M430.09,356.96c-0.7-1.2,0.9-1.6,0.3-2.81
		C433.53,355.46,432.19,355.65,430.09,356.96z M434.8,380.63c-0.1-0.1,0.2-0.2,0.4-0.3c0.1,0.1,0.4,0.3,0.4,0.4
		C435.61,381.33,434.8,381.6,434.8,380.63z"/>
	<path d="M22.77,515.73c-0.2,4.57,3.99,2.55,31.59,4.61c5.91,0.44,16.25-2.63,12.94-6.12C63.7,520.92,30.31,516.49,22.77,515.73z"/>
	<path d="M390.97,472.71c0-3.51,0-7.02,0.1-10.43c-1.6-1.5-3.21-2.31-5.92-2.11c1.71,1.81,3.91,0.8,5.02,2.71
		C389.37,465.99,389.47,469.3,390.97,472.71z"/>
	<path d="M515.75,511.22c3.41,0.2,6.52,0.8,9.43-0.9C522.06,509.62,518.96,509.72,515.75,511.22z"/>
	<path d="M853.16,459.57c0,1-1.93-2.45-4.71-0.9c1.3,1.4,2.8,0.9,4.7,1.1c-0.22,3.75-1.15,7.58,0.81,11.03
		C853.46,467.09,854.76,463.28,853.16,459.57z"/>
	<path d="M243.23,493.77c2.71,1.4,5.52,1.2,8.32,0C248.75,493.77,245.94,493.77,243.23,493.77z"/>
	<path d="M54.26,513.13c2.91,0.4,5.42,0.5,7.92-0.8C58.98,511.22,57.17,511.52,54.26,513.13z"/>
	<path d="M420.36,521.15c-3.11-0.9-6.02-0.1-8.93,0.4C414.44,521.65,417.55,522.45,420.36,521.15z"/>
	<path d="M277.83,471.2c-2.81-0.4-5.42,0.3-8.02,1.3C272.52,472.61,275.22,472.2,277.83,471.2z"/>
	<path d="M741.02,469.5c-3.41-0.7-5.82,0.4-8.43,1C735.2,470.9,737.71,470.2,741.02,469.5z"/>
	<path d="M706.02,492.06c2.81,0.9,5.72,0.9,8.53,0C711.73,492.06,708.82,492.06,706.02,492.06z"/>
	<path d="M883.25,519.45c-2.91-1-5.82-0.2-8.83,0.1C877.33,519.85,880.24,520.35,883.25,519.45z"/>
	<path d="M869.21,491.16c1.1,1.6,2.11,3.01,3.01,4.31C871.71,491.86,871.71,491.86,869.21,491.16z"/>
	<path d="M39.22,512.93c1.3,0.9,2.71,1.3,4.71-0.1C41.93,512.02,40.62,512.12,39.22,512.93z"/>
	<path d="M501.4,511.02c1.81,1,3.21,1.6,5.32,0.1C504.61,510.22,503.21,510.62,501.4,511.02z"/>
	<path d="M406.52,493.07c0.6,1.71,1.91,2.71,3.01,4.51C408.93,493.77,408.93,493.77,406.52,493.07z"/>
	<path d="M415.55,528.17c-1.2-0.2-2.21-0.3-3.61,0.8C414.14,529.38,414.14,529.38,415.55,528.17z"/>
	<path d="M536.01,487.25c1.6,0,2.71,0,3.61-1.71C537.91,485.44,537.01,485.95,536.01,487.25z"/>
	<path d="M222.17,488.05c3.47,4.46,4.75,3.23,4.11,2.81C225.07,490.06,224.47,488.55,222.17,488.05z"/>
	<path d="M409.03,503.5c-0.1,1.4-0.2,2.41,1.1,3.71C410.43,505.7,410.93,504.5,409.03,503.5z"/>
	<path d="M685.86,486.45c1.2,2.11,1.2,2.11,3.31,2.51C687.96,488.15,687.46,486.85,685.86,486.45z"/>
	<path d="M196.29,487.05c-1,0-2.11-1.1-3.41,0.2C194.18,487.85,195.29,488.05,196.29,487.05z"/>
	<path d="M659.08,485.24c-1.2-0.3-2.11-1-3.21-0.2C656.12,486.2,658.53,486.11,659.08,485.24z"/>
	<path d="M872.31,501.79c-0.7,1.2-0.4,2.11,0.7,3.41C873.52,503.8,873.72,502.6,872.31,501.79z"/>
	<path d="M878.83,526.47c-1.5-0.7-2.41,0-3.41,0.6C876.63,527.47,877.73,527.87,878.83,526.47z"/>
	<path d="M374.12,463.38c1.6,0.5,2.81,0.4,4.21,0.2C377.13,462.98,376.03,463.48,374.12,463.38z"/>
	<path d="M842.32,461.37c-1.1-0.3-2.01-0.3-3.11,0.1C840.32,461.97,841.22,461.77,842.32,461.37z"/>
	<path d="M871.21,515.63c1-1.1,1.5-1.81,1-3.01C871.21,513.23,870.91,513.93,871.21,515.63z"/>
	<path d="M873.82,510.52c0-1.1,0.3-2.01-1.2-2.41C872.92,509.01,872.11,509.82,873.82,510.52z"/>
	<path d="M408.22,517.44c1.1-1,1.95-2.81,0.9-2.81C408.32,515.13,407.92,515.84,408.22,517.44z"/>
	<path d="M824.37,492.57c1,0.4,1.81,0.3,2.61-0.2C826.18,492.57,825.17,491.66,824.37,492.57z"/>
	<path d="M410.83,512.22c0-1,0.4-1.71-0.9-2.31C409.63,510.92,409.33,511.72,410.83,512.22z"/>
	<path d="M774.32,467.49c0,0.42-0.36,0.53,2.31,0.2C776.63,467.42,776.97,467.49,774.32,467.49z"/>
	<path d="M73.92,488.55c1.1,0.6,2.01,0.5,2.51-0.8C75.23,486.85,74.52,487.65,73.92,488.55z"/>
	<path d="M490.07,509.82c-0.7-0.5-1.2-0.6-2.11,0.2C488.87,510.52,489.47,511.12,490.07,509.82z"/>
	<path d="M692.98,480.43c1.4-0.2,1.71-0.9,1.6-2.01C693.58,478.72,693.08,479.23,692.98,480.43z"/>
	<path d="M850.55,491.86c0-0.15-1.5-0.2-1.6-0.2C848.94,491.92,848.69,491.86,850.55,491.86z"/>
	<path d="M696.89,486.15c0.6,0.5,1.1,0.6,1.71,0C697.99,485.34,697.39,485.34,696.89,486.15z"/>
	<path d="M230.49,482.23c0.9-0.3,1.3-1,1.3-2.01C229.79,481.53,229.59,481.83,230.49,482.23z"/>
	<path d="M233.9,487.85c0.6,0.6,1.1,0.8,2.01-0.5C234.9,487.55,234.3,487.05,233.9,487.85z"/>
	<path d="M361.18,494.47c0.7,0.3,1.3,0.6,2.01-0.1C362.59,494.57,361.98,493.07,361.18,494.47z"/>
	<path d="M310.93,469.5c-0.6,0.1-1.1,0.1-0.9,0.1C309.83,469.7,310.43,470.3,310.93,469.5z"/>
	<path d="M702,475.92c0.3-0.3,1.1-0.1,0.7-1.2C702.2,474.91,701.6,474.81,702,475.92z"/>
	<path d="M238.82,477.12c-0.54,0.72,1.3,0.98,1.1-0.2C239.42,476.52,239.02,476.72,238.82,477.12z"/>
	<path d="M246.14,476.12c0.5-0.2,1.1-0.1,1.2-1.2C246.84,475.21,245.94,474.61,246.14,476.12z"/>
	<path d="M27.18,511.92c-0.8-0.6-1.3-1-1.81-0.1C25.78,512.63,26.38,512.42,27.18,511.92z"/>
	<path d="M31.7,511.92c-0.7-0.4-1.3-0.5-1.3,0C30.29,512.32,30.99,512.32,31.7,511.92z"/>
	<path d="M494.18,510.02c-0.2-0.6-0.6-0.4-1.3-0.2C493.48,510.22,493.78,510.52,494.18,510.02z"/>
	<path d="M324.97,467.69c-0.3-0.3-0.7-0.3-1.1,0C324.27,468.09,324.67,467.89,324.97,467.69z"/>
	<path d="M771.51,468.19C771.01,468.29,771.21,468.29,771.51,468.19L771.51,468.19z"/>
	<path d="M674.52,246.23c7.12-1.5,13.74-0.9,20.76-0.8C691.97,241.31,678.23,241.91,674.52,246.23z"/>
	<path d="M695.69,268.79c0,0.7,0,1.5-0.2,2.51c-3.05,0.22,1.08-0.2-18.05,12.84c-3.33,2.27-5.72,5.42-7.02,9.33
		c2.81-2.61,4.29-6.36,7.72-8.43c4.93-2.97,17.07-12.29,19.06-12.94C697.19,269.7,697.19,269.7,695.69,268.79z"/>
	<path d="M671.41,234.19c4.31,1.81,21.97,3.41,24.77,2.11C688.16,235.09,680.04,233.89,671.41,234.19z"/>
	<path d="M643.33,268.69c2.46,3.74,6.52,5.11,9.13,8.63C653.06,273.28,647.72,268.4,643.33,268.69z"/>
	<path d="M713.24,278.22c1.64-6.35,5.22-11.21,7.82-15.55C716.04,265.69,711.79,274.83,713.24,278.22z"/>
	<path d="M698.09,256.16c2.11-1.71,5.32-5.22,7.42-7.52C703.31,250.84,700,254.25,698.09,256.16z"/>
	<path d="M680.34,256.86c-3.11-1.71-6.42-2.61-10.03-3.01C673.52,255.45,676.63,257.36,680.34,256.86z"/>
	<path d="M632.19,328.37c6.26-4.07,14.42-11.4,14.95-12.48C645.98,316.25,631.68,327.86,632.19,328.37z"/>
	<path d="M638.81,296.38c-1-2.51-2.31-3.81-3.81-5.32C634.9,294.17,635,294.37,638.81,296.38z"/>
	<path d="M712.34,243.42c-0.6-1.3-1.3-2.31-3.31-3.21c1,1.91,1.6,3.31,1.3,4.81C711.73,245.02,711.63,243.92,712.34,243.42z"/>
	<path d="M639.02,281.03c0.1,1.91,1.71,2.21,2.91,3.01C641.32,281.63,641.32,281.63,639.02,281.03z"/>
	<path d="M673.52,285.85c1-1.2,2.11-2.41,3.11-3.61C674.92,282.94,673.62,283.94,673.52,285.85z"/>
	<path d="M647.15,315.9c0.07-0.02,0.12-0.04,0.19-0.06C649.12,315.78,648.6,313.48,647.15,315.9z"/>
	<path d="M719.16,251.24c-0.3-1.1-1.8-0.91-2.21-1.91C717.09,251.69,717.03,251.98,719.16,251.24z"/>
	<path d="M684.95,295.17c0.5-1.2,0.6-2.61,0.1-4.21C684.25,292.47,684.45,293.77,684.95,295.17z"/>
	<path d="M629.79,330.38c0.77-0.54,2.83-1.58,2.21-2.21C631.09,328.47,630.09,328.87,629.79,330.38z"/>
	<path d="M682.04,274.81c-0.6,0.5-1.1,0.8-1.1,1.81C681.54,276.12,682.04,275.82,682.04,274.81z"/>
	<path d="M679.2,298.24c0.08,0.58-0.04,0.58,0.21,0.04C680.12,296.76,678.93,296.26,679.2,298.24z"/>
	<path d="M695.79,268.69c-0.3-0.2,0-0.8-0.6-0.9C694.47,268.5,694.56,269.1,695.79,268.69z"/>
	<path d="M715.54,251.44c-0.2,0.6,0.1,0.8,0.6,1C716.35,251.94,715.95,251.74,715.54,251.44z"/>
	<path d="M723.47,225.57c0.71,12.36-0.46,10.73,1.5,10.73c-0.8-4.19,1.97-7.69,1.31-11.87c1.11,0.81,2.51,2.34,4.91,4.45
		c1.16-1.16-3.23-4.4-6.32-6.82c-0.8-2.51-0.4-5.32-2.71-7.92c-0.5,2.81,0.4,4.61,0.8,6.32c-0.5,0.4-1-0.1-1.3,0.7
		C723.37,222.05,723.37,223.86,723.47,225.57z M726.23,224.38c-0.78,0.38-1.47,0.56-2.16-0.52
		C724.81,223.64,725.45,223.83,726.23,224.38z"/>
	<path d="M821.16,102.2c7.7,0.42,9.64,7.83,11.94,3.81C826.93,97.06,817.13,102.2,821.16,102.2z"/>
	<path d="M821.86,107.21c2.41,1,3.71,3.31,6.32,2.91c0.4-0.7,0.9-1.4,1.6-2.51C827.08,106.81,824.87,105.61,821.86,107.21z"/>
	<path d="M792.88,133.89c0.8-2.01,1.81-3.91,0.5-5.82c0.6-1.4,2.21-2.01,1.91-3.61c-0.9-0.6-1.1,0.8-1.91,0.4
		c0-1.2-0.4-2.11-1.81-2.41C791.27,126.27,792.98,129.98,792.88,133.89z"/>
	<path d="M791.47,114.53c-1.4,2.61-0.6,5.22,0.2,7.82C791.97,119.85,793.38,117.14,791.47,114.53z"/>
	<path d="M722.97,242.72c0.2-1.2,0.4-2.41,0.6-3.61C722.06,240.21,721.56,241.41,722.97,242.72z"/>
	<path d="M719.86,232.49c-0.8-1.5-2.01-2.51-3.41-3.21C717.25,230.68,718.25,231.88,719.86,232.49z"/>
	<path d="M735.6,222.05c5.08,5.08,2.4,0.33,0.4-0.5c-0.62,0-6.95-6.79-12.85-10.43C727.94,216.82,735.56,221.95,735.6,222.05z"/>
	<path d="M782.34,115.64c1.1-0.5,1.5-1.1,1.3-2.71C782.65,114.03,781.84,114.43,782.34,115.64z"/>
	<path d="M727.18,206.11c-1.1,0.1-1.81,0.2-2.01,1.71C726.18,207.31,726.98,207.41,727.18,206.11z"/>
	<path d="M720.56,208.92c-0.27-0.55-0.93-1.35-1.2-0.8C719.26,208.41,719.96,208.92,720.56,208.92z"/>
	<path d="M720.16,213.33c0.3-0.9,0-1.4-0.8-1.81C718.95,212.43,718.95,213.13,720.16,213.33z"/>
	<path d="M734,201.89c-0.7,0.3-1.5,0.2-1.4,1.6C733.4,203.2,734.2,203.3,734,201.89z"/>
	<path d="M755.36,227.87c-0.3-1.1-0.7-1.5-1.91-1C753.96,227.47,754.16,228.07,755.36,227.87z"/>
	<path d="M805.82,111.22c-0.3-1.2-0.1-2.01-1.3-1.91C804.11,110.22,804.71,110.52,805.82,111.22z"/>
	<path d="M700.8,220.85c0.9-0.1,1.3-0.4,1.5-1.2C701.2,219.75,701,220.15,700.8,220.85z"/>
	<path d="M731.49,147.53c0.2-1.2-0.1-1.3-1-0.7C730.69,147.33,730.99,147.53,731.49,147.53z"/>
	<path d="M781.04,120.35c0,0.81,1.5,0.27,0.7-0.8C781.24,119.65,780.94,119.85,781.04,120.35z"/>
	<path d="M807.22,114.13c0.3-0.8,0-1.3-0.9-1.5C806.02,113.63,806.22,114.13,807.22,114.13z"/>
	<path d="M753.56,206.21c-1.08,0-0.9-0.03-0.9,0.1C753.7,206.31,753.56,206.35,753.56,206.21z"/>
	<path d="M749.25,207.11c0.3,0,0.6,0,1-0.1C749.75,206.81,749.45,206.61,749.25,207.11z"/>
	<path d="M718.25,209.52c0.3-0.7-0.1-0.9-0.9-1.1C717.15,209.32,717.35,209.62,718.25,209.52z"/>
	<path d="M580.54,377.22c-7.45,15.22-12.32,10.3-14.74,17.85C579.09,391.7,586.22,365.62,580.54,377.22z"/>
	<path d="M606.42,329.28c-1.81,3.51-3.11,6.72-3.51,10.83C606.12,336.8,607.62,332.49,606.42,329.28z"/>
	<path d="M619.76,337.8c-3.01,2.81-5.82,5.52-7.82,8.93C615.95,344.22,619.86,339.91,619.76,337.8z"/>
	<path d="M610.63,348.03c-2.91,2.11-4.81,4.11-5.52,7.02C607.62,353.55,609.33,351.44,610.63,348.03z"/>
	<path d="M625.47,363.48c-1.1-1.3-2.21-2.51-4.41-1.2C622.97,365.28,623.47,365.48,625.47,363.48z"/>
	<path d="M592.98,361.37c-1,2.21-1.1,4.41-1.3,6.62C593.88,365.18,594.18,363.48,592.98,361.37z"/>
	<path d="M592.17,371.9c-1.1,1.81-2.41,3.41-2.31,6.52C592.17,376.32,592.28,374.11,592.17,371.9z"/>
	<path d="M616.15,357.96c-2.21-1.2-4.31-1.3-6.12,0.8C612.13,359.37,614.04,357.86,616.15,357.96z"/>
	<path d="M602.31,370.8c1.2-0.9,2.91-1.6,2.51-4.01C603.21,367.89,602.61,369.2,602.31,370.8z"/>
	<path d="M584.25,366.99c-1.5,1.1-1.4,2.41-1,4.41C583.95,369.7,584.75,368.79,584.25,366.99z"/>
	<path d="M562.99,396.68c-1.81,0.2-2.91,0.7-4.41,1.91C560.58,398.68,561.78,398.28,562.99,396.68z"/>
	<path d="M603.41,341.41c-1.5,0.3-1.4,1.5-1.3,2.81C603.21,343.62,604.11,342.92,603.41,341.41z"/>
	<path d="M531.79,436.7c1.5-1.2,2.21-2.21,1.91-3.91C532.5,433.69,531.89,434.69,531.79,436.7z"/>
	<path d="M601.5,346.53c-1.5,0.9-1.4,2.01-1,3.31C601.7,349.04,601.9,348.03,601.5,346.53z"/>
	<path d="M556.97,399.29c-1.6,0.6-2.81,0.8-3.61,2.11C554.96,401.59,556.07,401.19,556.97,399.29z"/>
	<path d="M535.51,429.58c-0.92,1.84,1.02,0.81,1.2-0.5C535.91,428.27,536.27,428.04,535.51,429.58z"/>
	<path d="M616.15,358.06c0.3,1.2,1.1,1.71,2.91,1.71C617.95,358.66,617.35,357.86,616.15,358.06z"/>
	<path d="M548.14,402.09c-1.2,0.5-1.81,0.8-2.61,1.1C546.54,403.7,547.24,403.5,548.14,402.09z"/>
	<path d="M520.76,427.07c-1.76,1.05,0.97,2.37,1.4,0C521.56,426.57,521.16,426.87,520.76,427.07z"/>
	<path d="M541.22,424.46c-1,0.3-1.6,0.6-1.4,1.6C540.52,425.87,541.02,425.56,541.22,424.46z"/>
	<path d="M592.78,347.93c-0.6-0.3-1.1-0.3-1.81,0.2C591.87,348.53,592.48,348.93,592.78,347.93z"/>
	<path d="M594.58,357.66c0.5-0.9,0.5-1.6-0.4-2.31C593.68,356.36,593.68,357.06,594.58,357.66z"/>
	<path d="M780.54,174.21c-11.73-5.87-14.77-4.23-20.36-8.73c4.58,7.39,10.9,5.06,19.86,9.43
		C780.24,174.61,780.44,174.41,780.54,174.21z"/>
	<path d="M770.21,194.27c3.91,1.71,6.12,5.82,10.43,6.92C772.11,193.27,772.11,193.27,770.21,194.27z"/>
	<path d="M795.68,218.44c-1.6,1.5-1.2,2.81,0,4.21C796.99,221.35,797.09,219.95,795.68,218.44z"/>
	<path d="M762.79,131.88c1.4,0.1,2.51,0.1,3.61,0.2C765.29,130.18,764.19,130.28,762.79,131.88z"/>
	<path d="M788.96,235.09c0.2,1.6,0.2,2.81,1.1,3.91c0.4-0.3,0.7-0.5,1-0.7C790.67,237.3,790.77,235.8,788.96,235.09z"/>
	<path d="M770.21,201.19c0.2-1.5,1-2.31-0.4-3.61C769.61,198.99,769.41,199.79,770.21,201.19z"/>
	<path d="M782.65,202.2c0.6,0.5,0.8,1.81,2.21,0.8C784.25,202.2,783.75,201.59,782.65,202.2z"/>
	<path d="M784.65,175.62c-0.2-0.9-0.6-1.5-1.6-1.2C783.15,175.52,783.75,175.82,784.65,175.62z"/>
	<path d="M758.27,131.68c-0.39,0.39,0.45,1.23,1.2,0.1C758.97,131.28,758.67,131.28,758.27,131.68z"/>
	<path d="M791.47,205c-0.3-0.6-0.7-0.9-1.91-1C790.07,204.9,790.27,205.61,791.47,205z"/>
	<path d="M747.04,192.67c-0.4-0.8-0.8-0.9-1.3-0.4C746.04,192.97,746.44,193.27,747.04,192.67z"/>
	<path d="M738.81,154.45c-0.4,0.8,0,1.2,0.8,1.4C740.02,155.05,739.52,154.75,738.81,154.45z"/>
	<path d="M513.44,466.59c1.13-9.29-8.51-8.47-9.03-2.71c-0.28,3.11,1.91,4.91,6.52,5.22c0,4.21,0,4.21,4.51,7.82
		c2.51-1.71,5.84-2.92,4.61-7.02C519.37,467.59,517.25,466.49,513.44,466.59z M509.03,466.89c-3.34,0-3.52-4.76,0.1-5.22
		C512.57,461.89,512.5,466.66,509.03,466.89z M517.15,473.21c-1.1-0.2-2.01-3.21-3.11,0.1c-1.3-1.71-1.29-3,0.1-4.11
		C516.61,467.21,520.01,470.35,517.15,473.21z"/>
	<path d="M507.82,457.06c0.4-2.81-1.81-4.11-3.71-5.62c-2.31,2.01-4.61,3.51-6.22,5.72c1.51,2.2,4.13-2.77,3.51,2.51
		c-0.11,0.9-0.4,1.81,0.8,2.31c1.2-0.3,0.5-1.91,1.81-2.51C505.62,459.37,507.52,459.17,507.82,457.06z M503.71,454.25
		c1.4,0.4,1.91,1.3,2.11,3.01C502.61,456.76,502.31,456.36,503.71,454.25z"/>
	<path d="M663.69,345.52c0.7-9.63,5.72-17.55,9.83-25.88c-6.72,7.32-10.53,15.75-11.23,25.48
		C662.79,345.22,663.19,345.32,663.69,345.52z"/>
	<path d="M698.89,298.48c2.21,2.91,3.81,6.22,5.92,9.13C704.71,303.5,702.2,299.59,698.89,298.48z"/>
	<path d="M706.32,305.2c1.71-2.31,1.81-3.51,1-5.92C705.72,301.49,705.61,302.3,706.32,305.2z"/>
	<path d="M688.66,308.81c2.11,0,4.21,0,6.32,0C692.78,306.91,690.67,307.91,688.66,308.81z"/>
	<path d="M519.36,390.86c2.11,1.5,4.01,1.81,5.92,1.91C523.77,391.56,522.37,390.06,519.36,390.86z"/>
	<path d="M510.43,389.26c1.81-0.1,2.91,0.2,4.01-1.1C512.94,387.65,511.83,387.45,510.43,389.26z"/>
	<path d="M530.89,397.18c0.4,1.3,1.1,2.31,2.31,3.71C532.5,398.08,532.5,398.08,530.89,397.18z"/>
	<path d="M249.95,264.08c-0.66,2.63,1.24-0.96-5.92,4.41c-1.71-0.6-2.71-2.41-4.71-2.31c0.4,1.62,5.15,4.01,2.61,4.01
		c-3.61-0.6-7.82-2.81-9.63,2.81c-0.1,0.2-0.4,0.3-0.6,0.4c-16.87,14.37-20.47,11.79-24.67,22.57
		c6.22-10.73,18.25-14.24,26.78-22.17c1.89-1.13-3.68-4.93,12.54-1.6c-3.56-8.9,9.42-5.07,19.56-3.11
		C264.03,266.4,255.28,266.95,249.95,264.08z"/>
	<path d="M255.67,283.64c1.37-3.26-6.36-8-9.63-9.73c-3.52-1.86-6.39,1.12-0.4,4.31c11.41,6.09,7.65,16.24,10.53,15.95
		C257.53,289.87,254.39,286.69,255.67,283.64z"/>
	<path d="M206.32,288.55c3.11-8.73,6.62-16.45,9.63-24.37C211.94,268.89,206.02,283.94,206.32,288.55z"/>
	<path d="M195.59,295.37c3.91-10.13,7.92-20.16,10.83-30.59C201.8,274.61,198.7,284.94,195.59,295.37z"/>
	<path d="M191.98,279.73c-0.86,3.48-4.25,22.81-0.7,23.47C190.68,293.35,193.72,272.64,191.98,279.73z"/>
	<path d="M232.1,260.27c-0.2,3.51-0.4,6.52,0.1,9.83C234.9,266.09,235,262.78,232.1,260.27z"/>
	<path d="M267.2,276.42c-4.21-1.2-7.22-0.2-7.92,2.71c2.51-0.4,4.71-1.91,7.22-1.1C266.7,277.52,267.6,277.22,267.2,276.42z"/>
	<path d="M261.58,250.84c0.9,3.41,1.5,7.02,4.41,9.53C265.5,257.06,263.39,252.45,261.58,250.84z"/>
	<path d="M265.4,263.48c-2.61-1.2-5.62-1.71-7.22-5.02C258.07,262.98,260.98,264.88,265.4,263.48z"/>
	<path d="M187.06,315.03c0.42,0.85-0.03,0.83,5.32-4.51C191.84,309.98,192.72,309.38,187.06,315.03z"/>
	<path d="M222.07,297.18c0.4-1.4,0.7-2.81-0.2-4.21C221.66,294.37,221.26,295.78,222.07,297.18z"/>
	<path d="M170.71,329.28c1.79-0.77,13.48-10.75,14.24-12.14C183.15,317.97,169.98,328.55,170.71,329.28z"/>
	<path d="M263.39,270.9c0.6,0.6,1.2,1.5,2.51,0.7C265.19,270.8,264.29,270.9,263.39,270.9z"/>
	<path d="M261.38,285.75c-0.2,1-1.2,1.71-0.7,3.11C261.68,287.85,261.99,286.85,261.38,285.75z"/>
	<path d="M165.2,333.19c0.9-0.6,2.11-0.8,2.51-2.11C166.5,331.28,165.6,331.98,165.2,333.19z"/>
	<path d="M250.05,264.08c-0.2-1.4-1.3-1.91-2.31-2.41C248.24,262.68,248.85,263.68,250.05,264.08z"/>
	<path d="M167.8,331.18c1.45-0.11,3.08-1.73,2.61-2.21C169.31,329.38,168.3,329.98,167.8,331.18z"/>
	<path d="M267.7,248.03c-0.5-0.4-0.5-1.3-1.6-1.1c-0.3,0.5,0.2,0.8,0.4,1.1C266.7,248.43,267.1,248.94,267.7,248.03z"/>
	<path d="M192.68,278.62c0,0.19,0.79-0.52,0-2.11C192.68,277.55,192.68,278.14,192.68,278.62z"/>
	<path d="M102.51,397.28c9.73-2.95,12.31-13.1,12.84-12.04c2.91-2.21,3.91-5.42,4.41-8.83c-5.09,6.07-4.36,8.78-4.71,8.43
		C111.73,389.56,105.52,391.26,102.51,397.28z"/>
	<path d="M143.83,331.88c-2.11,2.91-3.51,6.02-3.41,9.73C142.43,338.7,144.43,335.7,143.83,331.88z"/>
	<path d="M147.34,350.54c-2.61,1.4-4.41,3.41-5.22,6.32C144.93,355.65,146.14,353.05,147.34,350.54z"/>
	<path d="M151.15,360.07c1.91-0.6,2.61,1.71,4.41,1.4C149.53,355.02,142.39,363.72,151.15,360.07z"/>
	<path d="M130.39,363.48c-1.2,2.01-1.5,4.11-1.5,6.32C130.49,367.99,130.99,365.89,130.39,363.48z"/>
	<path d="M158.27,364.08c1.5,2.91,1.71,3.01,4.21,1.5C161.58,363.78,160.28,362.98,158.27,364.08z"/>
	<path d="M126.98,380.03c2.41-2.51,2.51-3.01,1.91-6.62C128.28,375.82,126.78,377.32,126.98,380.03z"/>
	<path d="M139.52,373.11c1.2-1.4,2.51-2.21,2.61-4.21C139.82,370.5,139.62,370.7,139.52,373.11z"/>
	<path d="M94.08,401.29c-1.81,0.4-2.91,0.9-4.31,2.21C91.78,403.5,92.98,403.2,94.08,401.29z"/>
	<path d="M95.99,400.49c1.4-0.2,2.81-0.2,3.61-1.81C98.19,398.88,96.89,399.19,95.99,400.49z"/>
	<path d="M120.56,372.41c0.6-1.1,1.4-2.11,0.7-3.41C120.06,370.6,120.06,370.6,120.56,372.41z"/>
	<path d="M140.32,343.02c-1.2,0.9-1.6,1.81-1.1,3.51C140.32,345.32,141.22,344.62,140.32,343.02z"/>
	<path d="M137.61,351.64c1.2-0.9,1.4-1.81,0.8-3.11C137.11,349.44,137.11,350.44,137.61,351.64z"/>
	<path d="M68.81,438.6c1.5-1.2,2.21-2.21,2.01-3.91C69.51,435.59,69.01,436.6,68.81,438.6z"/>
	<path d="M82.65,405.3c1,0.1,1.6,0,2.11-0.7C83.95,404.3,83.35,404.4,82.65,405.3z"/>
	<path d="M76.63,428.07c1-0.4,1.71-0.7,1.3-1.71C77.23,426.57,76.83,427.07,76.63,428.07z"/>
	<path d="M57.47,430.28c1,0,1.71-0.3,1.71-1.71C58.07,428.67,57.07,428.57,57.47,430.28z"/>
	<path d="M131.69,359.37c0.5-0.9,0.5-1.6-0.4-2.21C130.79,358.16,130.79,358.86,131.69,359.37z"/>
	<path d="M129.79,350.14c-0.4-0.7-0.9-0.6-1.4-0.1C128.79,350.64,129.29,350.64,129.79,350.14z"/>
	<path d="M72.72,432.59c0.4-0.7,1-0.9,0.8-1.6C72.72,431.08,72.42,431.38,72.72,432.59z"/>
	<path d="M288.36,307.81c-0.5,5.12,1.3,10.23,4.81,11.53C287.66,313.17,293.29,308.3,288.36,307.81z"/>
	<path d="M279.74,300.79c0.48,1.93-1.04,2.81-5.82,7.02c4.21-0.2,5.02-4.21,7.92-4.91C281.64,301.79,281.54,300.79,279.74,300.79z"
		/>
	<path d="M281.74,253.15c1.2,2.91,3.21,5.42,4.71,8.12C286.96,257.96,285.66,255.86,281.74,253.15z"/>
	<path d="M281.44,297.28c2.01-3.21,4.51-6.12,5.92-9.63C284.45,290.26,282.55,293.47,281.44,297.28z"/>
	<path d="M291.57,320.15c0.8,2.41,2.11,3.91,3.21,6.12C294.78,321.35,294.58,320.85,291.57,320.15z"/>
	<path d="M309.63,311.82c1.91-0.1,4.01-0.1,4.81-2.71C311.83,308.51,310.83,310.32,309.63,311.82z"/>
	<path d="M310.93,319.35c1.6-0.7,3.11-0.8,3.51-3.01C312.24,316.34,311.53,317.44,310.93,319.35z"/>
	<path d="M306.82,295.68c-0.9-1.4-1.91-2.41-3.61-3.01C304.21,295.57,304.21,295.57,306.82,295.68z"/>
	<path d="M303.81,290.76c-0.8-1.6-2.01-2.21-3.51-2.51C301,289.66,301.4,291.46,303.81,290.76z"/>
	<path d="M311.83,302.3c-0.2-2.01-0.9-2.81-2.51-3.21C309.33,300.79,310.03,301.59,311.83,302.3z"/>
	<path d="M316.25,305.71c-1-1.6-1.71-2.41-3.81-2.81C313.54,304.6,314.14,305.71,316.25,305.71z"/>
	<path d="M282.35,303.9c1.2,1.5,1.81,2.51,3.81,3.31C285.15,305.3,284.45,304.3,282.35,303.9z"/>
	<path d="M277.33,312.73c2.01,0.1,2.91-0.7,3.51-2.01C279.64,311.12,278.33,311.22,277.33,312.73z"/>
	<path d="M293.78,274.91c0.3,1.71,0.7,2.81,2.61,3.61C295.89,276.82,295.59,275.72,293.78,274.91z"/>
	<path d="M319.76,273.21c-1.6-0.1-2.61-0.2-3.21,0.9C317.65,274.61,318.55,274.31,319.76,273.21z"/>
	<path d="M303.51,307.41c1-0.5,2.31-0.1,3.41-1.4C305.11,305.6,304.21,306.51,303.51,307.41z"/>
	<path d="M278.13,247.63c0.2,1.2,0.2,2.11,1.6,1.6C279.84,248.33,279.44,247.93,278.13,247.63z"/>
	<path d="M303.21,317.54c1.3-1,2.01-1.6,1.81-3.21C304.01,315.23,303.31,315.84,303.21,317.54z"/>
	<path d="M291.07,296.68c-0.7,0.2-1.5,0.4-1.4,1.71C290.57,298.08,291.37,297.88,291.07,296.68z"/>
	<path d="M280.14,251.34c0,1.1,0.9,1.4,1.71,1.71C281.44,252.45,281.64,251.24,280.14,251.34z"/>
	<path d="M299.4,283.54c-0.3-1.1-0.5-1.71-1.71-1.81C297.79,282.64,298.09,283.34,299.4,283.54z"/>
	<path d="M325.17,277.52c-0.8-0.2-1.4-0.7-1.6,0.4C324.07,278.12,324.57,278.22,325.17,277.52z"/>
	<path d="M308.52,312.73c-1.1-0.4-1.5,0.1-1.81,0.9C308.02,314.13,308.12,313.43,308.52,312.73z"/>
	<path d="M287.26,287.55c0.7-0.2,1.1-0.6,1.1-1.4C287.46,286.25,287.26,286.85,287.26,287.55z"/>
	<path d="M290.97,274.61c-0.8,0.1-1,0.6-0.9,1.2C290.77,275.72,290.97,275.21,290.97,274.61z"/>
	<path d="M337.41,347.13c4.61-6.12,3.71-14.44,8.73-20.36C338.82,331.78,340.52,340.41,337.41,347.13z"/>
	<path d="M311.13,345.93c-0.49,0.81-0.8,1.6,0.1,2.61c2.21-3.71,5.92-6.22,7.62-10.93C317.45,338.3,312.05,344.43,311.13,345.93z"/>
	<path d="M347.74,317.94c2.21,0,2.21,0,3.51-1.71C349.85,316.34,348.44,316.34,347.74,317.94z"/>
	<path d="M312.74,338c2.11,0,0.31-2.21-1.71-0.2C311.83,337.9,312.24,338.1,312.74,338z"/>
	<path d="M352.36,315.74c1.2,0.6,2.01,0.6,2.81-0.6C353.96,314.33,353.16,314.73,352.36,315.74z"/>
	<path d="M308.93,352.24c0.8-0.6,1.5-1.1,1-2.31C308.93,350.54,308.42,351.04,308.93,352.24z"/>
	<path d="M356.47,313.93c1.1,0.3,1.6,0,1.81-1.1C357.27,312.63,356.67,312.83,356.47,313.93z"/>
	<path d="M336.81,351.34c0.6-0.3,1-0.6,0.8-2.01C336.91,350.24,336.11,350.44,336.81,351.34z"/>
	<path d="M337.31,354.25c-0.5-0.1-0.7,0.2-0.7,0.7C337.89,355.91,337.73,354.25,337.31,354.25z"/>
	<path d="M350.35,324.66c0.5-0.1,0.8-0.3,0.5-0.9C350.05,323.76,349.95,324.06,350.35,324.66z"/>
	<path d="M358.88,309.72c1.3-0.1,1.4-0.5,0.8-1.4C359.08,308.51,358.88,308.91,358.88,309.72z"/>
	<path d="M295.69,362.38c-0.66,0-0.85,0.8-0.2,0.8C295.95,363.18,296.04,362.55,295.69,362.38z"/>
	<path d="M306.92,359.17c1-0.5,1.6-0.8,0.9-1.71C307.22,357.66,306.82,357.96,306.92,359.17z"/>
	<path d="M50.55,468.79c0.92-9.48-8.43-8.44-8.93-2.91c-0.28,3.11,1.91,4.91,6.72,5.22c-1.2,4.01,1.5,6.02,4.21,7.92
		c2.61-1.71,5.95-3.02,4.51-7.22C56.28,469.49,54.26,468.59,50.55,468.79z M46.04,468.99c-3.35,0-3.51-4.89,0.3-5.12
		C49.75,464.11,49.27,468.99,46.04,468.99z M54.26,475.41c-1.1,0.1-0.8-1.2-1.71-1.2c-1-0.5-0.9,1.2-1.91,1
		c-2.1-3.26,1.85-5.47,3.61-3.71C55.77,472.71,55.57,474.01,54.26,475.41z"/>
	<path d="M41.02,453.65c-2.21,2.01-4.61,3.51-6.32,5.82c1.6,1.4,2.21-0.4,3.41,0c1.4,1.3-1,3.61,1.4,4.91c0.4-1,0.8-1.81,1.1-2.51
		C45.5,461,46.79,458.5,41.02,453.65z M42.53,459.67c-3.11-1-3.31-1.3-1.4-3.21C42.13,457.06,43.13,457.76,42.53,459.67z"/>
	<path d="M407.82,376.62c2.08,7.47-4.22,11.6,0.2,12.34c3.21-3.71,3.41-10.03,0.6-13.44C408.12,375.72,407.72,376.12,407.82,376.62z
		"/>
	<path d="M402.91,380.83c-0.78,3.88-2.07,4.88,2.51,5.02C406.33,380.35,402.91,377.08,402.91,380.83z"/>
	<path d="M382.25,358.96c5.45-4.82,8.45-1.71,9.53-4.21C387.16,353.15,383.95,354.35,382.25,358.96z"/>
	<path d="M376.93,357.96c-2.25-0.51-1.22,1.62,0.9,1.4c0.3-0.1,0.6-0.2,0.6-0.7C378.23,357.86,377.43,358.07,376.93,357.96z"/>
	<path d="M386.76,347.73c-1.91-0.7-3.01-0.2-4.81,0.4C383.85,348.73,385.05,348.63,386.76,347.73z"/>
	<path d="M391.87,367.09c1,0.1,1.4-0.3,1.3-1.4C392.18,365.58,391.67,366.09,391.87,367.09z"/>
	<path d="M394.48,364.08c1,0.4,1.3,0.1,1.2-1C394.88,362.88,394.68,363.48,394.48,364.08z"/>
	<path d="M200.8,347.83c0.6-10.23,5.62-18.05,10.33-26.28C205.32,324.16,197.59,342.82,200.8,347.83z"/>
	<path d="M236.11,300.29c2.21,2.91,3.61,6.32,6.02,9.83C241.82,305.6,239.52,301.89,236.11,300.29z"/>
	<path d="M243.43,307.11c1.3-1.91,2.01-3.91,1-6.62C242.73,302.8,242.83,304.9,243.43,307.11z"/>
	<path d="M225.48,310.92c2.21,0,4.41,0,6.62,0C229.89,309.02,227.58,309.42,225.48,310.92z"/>
	<path d="M56.97,392.97c1.71,1.2,3.51,1.6,5.72,2.01C59.98,392.47,59.38,392.26,56.97,392.97z"/>
	<path d="M68,398.58c0.2,1.71,0.9,2.71,2.21,3.91C70.01,400.69,69.71,399.59,68,398.58z"/>
	<path d="M47.84,390.36c1.13,1.38,3.21,0.49,3.11-0.4C49.95,389.56,48.95,389.46,47.84,390.36z"/>
<path fill="#e6e6e6" d="m206.8 163.6c0-5.1 4.1-9.2 9.3-9.2s9.2 4.2 9.2 9.2-4.1 9.2-9.3 9.2-9.2-4.1-9.2-9.2zm17.3-.1c0-4.5-3.5-8.2-8.2-8.2s-8.2 3.7-8.2 8.3c0 4.5 3.5 8.2 8.2 8.2s8.2-3.7 8.2-8.3zm-13 0c0-2.8 2.1-5.1 5.1-5.1 1.9 0 2.9.6 3.9 1.5l-1.4 1.7c-.8-.7-1.5-1.1-2.5-1.1-1.7 0-2.8 1.4-2.8 3.1s1.1 3 2.8 3c1.1 0 1.7-.5 2.5-1.1l1.4 1.4c-1.1 1.1-2.1 1.7-4 1.7-2.9 0-5-2.3-5-5.1z"/><path fill="#e6e6e6" d="m226.6 154.7h3.4l4.2 13.2 4.4-13.3h2.6l4.4 13.3 4.2-13.2h3.3l-6.2 18h-2.7l-4.4-12.8-4.4 12.8h-2.7z"/><path fill="#e6e6e6" d="m252.8 165.8c0-3.9 3.1-7 7.2-7 4.2 0 7.2 3.2 7.2 7s-3.1 7-7.3 7c-4 0-7.1-3.1-7.1-7zm11.3 0c0-2.3-1.7-4.3-4.2-4.3s-4.1 2-4.1 4.3 1.7 4.3 4.1 4.3c2.7.1 4.2-1.9 4.2-4.3z"/><path fill="#e6e6e6" d="m269.5 159.1h3.1v3c.8-2 2.4-3.4 4.8-3.3v3.2h-.2c-2.7 0-4.6 1.7-4.6 5.4v5.1h-3.1z"/><path fill="#e6e6e6" d="m279.1 153.9h3.1v11.1l5.6-6h3.8l-5.4 5.5 5.5 8h-3.5l-4.1-5.8-1.9 2v3.9h-3.1z"/><path fill="#e6e6e6" d="m291.7 165.8c0-3.9 3.1-7 7.2-7 4.2 0 7.2 3.2 7.2 7s-3.1 7-7.3 7c-4 0-7.1-3.1-7.1-7zm11.3 0c0-2.3-1.7-4.3-4.2-4.3s-4.1 2-4.1 4.3 1.7 4.3 4.1 4.3c2.6.1 4.2-1.9 4.2-4.3z"/><path fill="#e6e6e6" d="m308.2 167.6v-8.6h3.1v7.6c0 2.1 1.1 3.3 2.9 3.3s3-1.3 3-3.3v-7.6h3.1v13.4h-3.1v-2.1c-.8 1.3-2.1 2.3-4.2 2.3-3.1.2-4.8-1.8-4.8-5z"/><path fill="#e6e6e6" d="m323.9 168.8v-7.1h-1.7v-2.6h1.7v-3.7h3.1v3.7h3.6v2.6h-3.6v6.6c0 1.2.6 1.7 1.7 1.7.7 0 1.3-.2 1.9-.5v2.5c-.8.5-1.7.7-2.8.7-2.3 0-3.9-.9-3.9-3.9z"/><path fill="#e6e6e6" d="m333.2 154.7h3.2v15h9.4v2.9h-12.5v-17.9z"/><path fill="#e6e6e6" d="m356 172.5v-1.7c-.9 1.1-2.3 2-4.4 2-2.6 0-4.8-1.4-4.8-4.2 0-3 2.3-4.4 5.4-4.4 1.7 0 2.6.2 3.7.5v-.2c0-1.9-1.2-2.9-3.3-2.9-1.5 0-2.6.3-3.9.8l-.8-2.5c1.5-.7 2.9-1.1 5.1-1.1 4 0 5.9 2.1 5.9 5.7v8zm.1-5.6c-.8-.3-1.9-.5-3.1-.5-2 0-3.1.8-3.1 2.1s1.1 2 2.6 2c2 0 3.5-1.1 3.5-2.9z"/><path fill="#e6e6e6" d="m364.9 170.5v2.1h-3.1v-18.7h3.1v7.4c1-1.4 2.4-2.5 4.5-2.5 3.2 0 6.3 2.5 6.3 7s-3.1 7-6.3 7c-2.1 0-3.5-1.1-4.5-2.3zm7.7-4.7c0-2.6-1.7-4.3-3.9-4.3s-3.9 1.7-3.9 4.4c0 2.6 1.8 4.3 3.9 4.3s3.9-1.7 3.9-4.4z"/><path fill="#e6e6e6" d="m376.9 170.8 1.4-2.1c1.4 1.1 3 1.7 4.4 1.7s2.1-.5 2.1-1.5-1.3-1.4-2.8-1.8c-.1 0-.2-.1-.2-.1-2-.6-4.2-1.4-4.2-4s2.1-4.1 4.8-4.1c1.7 0 3.5.6 5 1.5l-1.2 2.2c-1.3-.8-2.6-1.3-3.8-1.3s-1.9.5-1.9 1.4 1.3 1.4 2.8 1.8c.1 0 .2.1.2.1 2 .6 4.2 1.5 4.2 4 0 2.9-2.2 4.2-5 4.2-1.9 0-4-.7-5.8-2z"/><path fill="#e6e6e6" d="m505.6 163.6c0-5.1 4.1-9.2 9.3-9.2s9.2 4.2 9.2 9.2-4.1 9.2-9.3 9.2-9.2-4.1-9.2-9.2zm17.4-.1c0-4.5-3.5-8.2-8.2-8.2s-8.2 3.7-8.2 8.3c0 4.5 3.5 8.2 8.2 8.2s8.2-3.7 8.2-8.3zm-13.1 0c0-2.8 2.1-5.1 5.1-5.1 1.9 0 2.9.6 3.9 1.5l-1.4 1.7c-.8-.7-1.5-1.1-2.5-1.1-1.7 0-2.8 1.4-2.8 3.1s1.1 3 2.8 3c1.1 0 1.7-.5 2.5-1.1l1.4 1.4c-1.1 1.1-2.1 1.7-4 1.7-2.9 0-5-2.3-5-5.1z"/><path fill="#e6e6e6" d="m525.4 154.7h3.4l4.2 13.2 4.4-13.3h2.6l4.4 13.3 4.2-13.2h3.3l-6.2 18h-2.7l-4.4-12.8-4.4 12.8h-2.7z"/><path fill="#e6e6e6" d="m551.7 165.8c0-3.9 3.1-7 7.2-7 4.2 0 7.2 3.2 7.2 7s-3.1 7-7.3 7c-4.1 0-7.1-3.1-7.1-7zm11.2 0c0-2.3-1.7-4.3-4.2-4.3s-4.1 2-4.1 4.3 1.7 4.3 4.1 4.3c2.7.1 4.2-1.9 4.2-4.3z"/><path fill="#e6e6e6" d="m568.3 159.1h3.1v3c.8-2 2.4-3.4 4.8-3.3v3.2h-.2c-2.7 0-4.6 1.7-4.6 5.4v5.1h-3.1z"/><path fill="#e6e6e6" d="m577.9 153.9h3.1v11.1l5.6-6h3.8l-5.4 5.5 5.5 8h-3.5l-4.1-5.8-1.9 2v3.9h-3.1z"/><path fill="#e6e6e6" d="m590.6 165.8c0-3.9 3.1-7 7.2-7 4.2 0 7.2 3.2 7.2 7s-3.1 7-7.3 7c-4.1 0-7.1-3.1-7.1-7zm11.2 0c0-2.3-1.7-4.3-4.2-4.3s-4.1 2-4.1 4.3 1.7 4.3 4.1 4.3c2.6.1 4.2-1.9 4.2-4.3z"/><path fill="#e6e6e6" d="m607 167.6v-8.6h3.1v7.6c0 2.1 1.1 3.3 2.9 3.3s3-1.3 3-3.3v-7.6h3.1v13.4h-3.1v-2.1c-.8 1.3-2.1 2.3-4.2 2.3-3 .2-4.8-1.8-4.8-5z"/><path fill="#e6e6e6" d="m622.7 168.8v-7.1h-1.7v-2.6h1.7v-3.7h3.1v3.7h3.6v2.6h-3.6v6.6c0 1.2.6 1.7 1.7 1.7.7 0 1.3-.2 1.9-.5v2.5c-.8.5-1.7.7-2.8.7-2.3 0-3.9-.9-3.9-3.9z"/><path fill="#e6e6e6" d="m632 154.7h3.2v15h9.4v2.9h-12.6z"/><path fill="#e6e6e6" d="m654.8 172.5v-1.7c-.9 1.1-2.3 2-4.4 2-2.6 0-4.8-1.4-4.8-4.2 0-3 2.3-4.4 5.4-4.4 1.7 0 2.6.2 3.7.5v-.2c0-1.9-1.2-2.9-3.3-2.9-1.5 0-2.6.3-3.9.8l-.8-2.5c1.5-.7 2.9-1.1 5.1-1.1 4 0 5.9 2.1 5.9 5.7v8zm.1-5.6c-.8-.3-1.9-.5-3.1-.5-2 0-3.1.8-3.1 2.1s1.1 2 2.6 2c2 0 3.5-1.1 3.5-2.9z"/><path fill="#e6e6e6" d="m663.7 170.5v2.1h-3.1v-18.7h3.1v7.4c1-1.4 2.4-2.5 4.5-2.5 3.2 0 6.3 2.5 6.3 7s-3.1 7-6.3 7c-2.1 0-3.5-1.1-4.5-2.3zm7.8-4.7c0-2.6-1.7-4.3-3.9-4.3-2.1 0-3.9 1.7-3.9 4.4 0 2.6 1.8 4.3 3.9 4.3s3.9-1.7 3.9-4.4z"/><path fill="#e6e6e6" d="m675.8 170.8 1.4-2.1c1.4 1.1 3 1.7 4.4 1.7s2.1-.5 2.1-1.5-1.3-1.4-2.8-1.8c-.1 0-.2-.1-.2-.1-2-.6-4.2-1.4-4.2-4s2.1-4.1 4.8-4.1c1.7 0 3.5.6 5 1.5l-1.2 2.2c-1.3-.8-2.6-1.3-3.8-1.3s-1.9.5-1.9 1.4 1.3 1.4 2.8 1.8c.1 0 .2.1.2.1 2 .6 4.2 1.5 4.2 4 0 2.9-2.2 4.2-5 4.2-2 0-4.1-.7-5.8-2z"/><path fill="#e6e6e6" d="m61 298.6c0-5.1 4.1-9.2 9.3-9.2s9.2 4.2 9.2 9.2-4.1 9.2-9.3 9.2c-5.1 0-9.2-4.2-9.2-9.2zm17.4-.1c0-4.5-3.5-8.2-8.2-8.2s-8.2 3.7-8.2 8.3c0 4.5 3.5 8.2 8.2 8.2s8.2-3.7 8.2-8.3zm-13.1-.1c0-2.8 2.1-5.1 5.1-5.1 1.9 0 2.9.6 3.9 1.5l-1.4 1.7c-.8-.7-1.5-1.1-2.5-1.1-1.7 0-2.8 1.4-2.8 3.1s1.1 3 2.8 3c1.1 0 1.7-.5 2.5-1.1l1.4 1.4c-1.1 1.1-2.1 1.7-4 1.7-2.8.1-5-2.2-5-5.1z"/><path fill="#e6e6e6" d="m80.9 289.7h3.4l4.2 13.2 4.4-13.3h2.6l4.4 13.3 4.2-13.2h3.3l-6.2 18h-2.7l-4.4-12.8-4.4 12.8h-2.7z"/><path fill="#e6e6e6" d="m107.1 300.8c0-3.9 3.1-7 7.2-7s7.2 3.2 7.2 7-3.1 7-7.3 7c-4 0-7.1-3.1-7.1-7zm11.3 0c0-2.3-1.7-4.3-4.2-4.3s-4.1 2-4.1 4.3 1.7 4.3 4.1 4.3c2.6.1 4.2-1.9 4.2-4.3z"/><path fill="#e6e6e6" d="m123.7 294h3.1v3c.8-2 2.4-3.4 4.8-3.3v3.2h-.2c-2.7 0-4.6 1.7-4.6 5.4v5.1h-3.1z"/><path fill="#e6e6e6" d="m133.4 288.9h3.1v11.1l5.6-6h3.8l-5.4 5.5 5.5 8h-3.5l-4.1-5.8-1.9 1.9v3.9h-3.1z"/><path fill="#e6e6e6" d="m146 300.8c0-3.9 3.1-7 7.2-7s7.2 3.2 7.2 7-3.1 7-7.3 7c-4.1 0-7.1-3.1-7.1-7zm11.2 0c0-2.3-1.7-4.3-4.2-4.3s-4.1 2-4.1 4.3 1.7 4.3 4.1 4.3c2.6.1 4.2-1.9 4.2-4.3z"/><path fill="#e6e6e6" d="m162.4 302.6v-8.6h3.1v7.6c0 2.1 1.1 3.3 2.9 3.3s3-1.3 3-3.3v-7.6h3.1v13.4h-3.1v-2.1c-.8 1.3-2.1 2.3-4.2 2.3-3 .2-4.8-1.8-4.8-5z"/><path fill="#e6e6e6" d="m178.1 303.8v-7.1h-1.7v-2.7h1.7v-3.7h3.1v3.7h3.6v2.6h-3.6v6.6c0 1.2.6 1.7 1.7 1.7.7 0 1.3-.2 1.9-.5v2.5c-.8.5-1.7.7-2.8.7-2.3.1-3.9-.9-3.9-3.8z"/><path fill="#e6e6e6" d="m187.4 289.7h3.2v15h9.4v2.9h-12.5v-17.9z"/><path fill="#e6e6e6" d="m210.2 307.5v-1.7c-.9 1.1-2.3 2-4.4 2-2.6 0-4.8-1.4-4.8-4.2 0-3 2.3-4.4 5.4-4.4 1.7 0 2.6.2 3.7.5v-.2c0-1.9-1.2-2.9-3.3-2.9-1.5 0-2.6.3-3.9.8l-.8-2.5c1.5-.7 2.9-1.1 5.1-1.1 4 0 5.9 2.1 5.9 5.7v8zm.1-5.6c-.8-.3-1.9-.5-3.1-.5-2 0-3.1.8-3.1 2.1s1.1 2 2.6 2c2 0 3.5-1.1 3.5-2.9z"/><path fill="#e6e6e6" d="m219.2 305.5v2.1h-3.1v-18.7h3.1v7.4c1-1.4 2.4-2.5 4.5-2.5 3.2 0 6.3 2.5 6.3 7s-3.1 7-6.3 7c-2.2 0-3.6-1.1-4.5-2.3zm7.7-4.7c0-2.6-1.7-4.3-3.9-4.3s-3.9 1.7-3.9 4.4c0 2.6 1.8 4.3 3.9 4.3s3.9-1.7 3.9-4.4z"/><path fill="#e6e6e6" d="m231.2 305.8 1.4-2.1c1.4 1.1 3 1.7 4.4 1.7s2.1-.5 2.1-1.5-1.3-1.4-2.8-1.8c-.1 0-.2-.1-.2-.1-2-.6-4.2-1.4-4.2-4s2.1-4.1 4.8-4.1c1.7 0 3.5.6 5 1.5l-1.2 2.2c-1.3-.8-2.6-1.3-3.8-1.3s-1.9.5-1.9 1.4 1.3 1.4 2.8 1.8c.1 0 .2.1.2.1 2 .6 4.2 1.5 4.2 4 0 2.9-2.2 4.2-5 4.2-2 0-4.1-.7-5.8-2z"/><path fill="#e6e6e6" d="m360.6 298.6c0-5.1 4.1-9.2 9.3-9.2s9.2 4.2 9.2 9.2-4.1 9.2-9.3 9.2-9.2-4.2-9.2-9.2zm17.4-.1c0-4.5-3.5-8.2-8.2-8.2s-8.2 3.7-8.2 8.3c0 4.5 3.5 8.2 8.2 8.2s8.2-3.7 8.2-8.3zm-13.1-.1c0-2.8 2.1-5.1 5.1-5.1 1.9 0 2.9.6 3.9 1.5l-1.4 1.7c-.8-.7-1.5-1.1-2.5-1.1-1.7 0-2.8 1.4-2.8 3.1s1.1 3 2.8 3c1.1 0 1.7-.5 2.5-1.1l1.4 1.4c-1.1 1.1-2.1 1.7-4 1.7-2.8.1-5-2.2-5-5.1z"/><path fill="#e6e6e6" d="m380.5 289.7h3.4l4.2 13.2 4.4-13.3h2.6l4.4 13.3 4.2-13.2h3.3l-6.2 18h-2.7l-4.4-12.8-4.4 12.8h-2.7z"/><path fill="#e6e6e6" d="m406.7 300.8c0-3.9 3.1-7 7.2-7 4.2 0 7.2 3.2 7.2 7s-3.1 7-7.3 7c-4.1 0-7.1-3.1-7.1-7zm11.3 0c0-2.3-1.7-4.3-4.2-4.3s-4.1 2-4.1 4.3 1.7 4.3 4.1 4.3c2.7.1 4.2-1.9 4.2-4.3z"/><path fill="#e6e6e6" d="m423.3 294h3.1v3c.8-2 2.4-3.4 4.8-3.3v3.2h-.2c-2.7 0-4.6 1.7-4.6 5.4v5.1h-3.1z"/><path fill="#e6e6e6" d="m433 288.9h3.1v11.1l5.6-6h3.8l-5.4 5.5 5.5 8h-3.5l-4.1-5.8-1.9 2v3.9h-3.1z"/><path fill="#e6e6e6" d="m445.6 300.8c0-3.9 3.1-7 7.2-7 4.2 0 7.2 3.2 7.2 7s-3.1 7-7.3 7c-4.1 0-7.1-3.1-7.1-7zm11.3 0c0-2.3-1.7-4.3-4.2-4.3s-4.1 2-4.1 4.3 1.7 4.3 4.1 4.3c2.6.1 4.2-1.9 4.2-4.3z"/><path fill="#e6e6e6" d="m462.1 302.6v-8.6h3.1v7.6c0 2.1 1.1 3.3 2.9 3.3s3-1.3 3-3.3v-7.6h3.1v13.4h-3.1v-2.1c-.8 1.3-2.1 2.3-4.2 2.3-3.1.2-4.8-1.8-4.8-5z"/><path fill="#e6e6e6" d="m477.8 303.8v-7.1h-1.8v-2.7h1.7v-3.7h3.1v3.7h3.6v2.6h-3.6v6.6c0 1.2.6 1.7 1.7 1.7.7 0 1.3-.2 1.9-.5v2.5c-.8.5-1.7.7-2.8.7-2.2.1-3.8-.9-3.8-3.8z"/><path fill="#e6e6e6" d="m487.1 289.7h3.2v15h9.4v2.9h-12.5v-17.9z"/><path fill="#e6e6e6" d="m509.9 307.5v-1.7c-.9 1.1-2.3 2-4.4 2-2.6 0-4.8-1.4-4.8-4.2 0-3 2.3-4.4 5.4-4.4 1.7 0 2.6.2 3.7.5v-.2c0-1.9-1.2-2.9-3.3-2.9-1.5 0-2.6.3-3.9.8l-.8-2.5c1.5-.7 2.9-1.1 5.1-1.1 4 0 5.9 2.1 5.9 5.7v8zm.1-5.6c-.8-.3-1.9-.5-3.1-.5-2 0-3.1.8-3.1 2.1s1.1 2 2.6 2c2 0 3.5-1.1 3.5-2.9z"/><path fill="#e6e6e6" d="m518.8 305.5v2.1h-3.1v-18.7h3.1v7.4c1-1.4 2.4-2.5 4.5-2.5 3.2 0 6.3 2.5 6.3 7s-3.1 7-6.3 7c-2.2 0-3.5-1.1-4.5-2.3zm7.7-4.7c0-2.6-1.7-4.3-3.9-4.3s-3.9 1.7-3.9 4.4c0 2.6 1.8 4.3 3.9 4.3s3.9-1.7 3.9-4.4z"/><path fill="#e6e6e6" d="m530.8 305.8 1.4-2.1c1.4 1.1 3 1.7 4.4 1.7s2.1-.5 2.1-1.5-1.3-1.4-2.8-1.8c-.1 0-.2-.1-.2-.1-2-.6-4.2-1.4-4.2-4s2.1-4.1 4.8-4.1c1.7 0 3.5.6 5 1.5l-1.2 2.2c-1.3-.8-2.6-1.3-3.8-1.3s-1.9.5-1.9 1.4 1.3 1.4 2.8 1.8c.1 0 .2.1.2.1 2 .6 4.2 1.5 4.2 4 0 2.9-2.2 4.2-5 4.2-1.9 0-4.1-.7-5.8-2z"/><path fill="#e6e6e6" d="m659.5 298.6c0-5.1 4.1-9.2 9.3-9.2s9.2 4.2 9.2 9.2-4.1 9.2-9.3 9.2-9.2-4.2-9.2-9.2zm17.3-.1c0-4.5-3.5-8.2-8.2-8.2s-8.2 3.7-8.2 8.3c0 4.5 3.5 8.2 8.2 8.2 4.8 0 8.2-3.7 8.2-8.3zm-13-.1c0-2.8 2.1-5.1 5.1-5.1 1.9 0 2.9.6 3.9 1.5l-1.4 1.7c-.8-.7-1.5-1.1-2.5-1.1-1.7 0-2.8 1.4-2.8 3.1s1.1 3 2.8 3c1.1 0 1.7-.5 2.5-1.1l1.4 1.4c-1.1 1.1-2.1 1.7-4 1.7-2.9.1-5-2.2-5-5.1z"/><path fill="#e6e6e6" d="m679.3 289.7h3.4l4.2 13.2 4.4-13.3h2.6l4.4 13.3 4.2-13.2h3.3l-6.2 18h-2.6l-4.4-12.8-4.4 12.8h-2.7z"/><path fill="#e6e6e6" d="m705.5 300.8c0-3.9 3.1-7 7.2-7 4.2 0 7.2 3.2 7.2 7s-3.1 7-7.3 7c-4 0-7.1-3.1-7.1-7zm11.3 0c0-2.3-1.7-4.3-4.2-4.3s-4.1 2-4.1 4.3 1.7 4.3 4.1 4.3c2.7.1 4.2-1.9 4.2-4.3z"/><path fill="#e6e6e6" d="m722.1 294h3.1v3c.8-2 2.4-3.4 4.8-3.3v3.2h-.2c-2.7 0-4.6 1.7-4.6 5.4v5.1h-3.1z"/><path fill="#e6e6e6" d="m731.8 288.9h3.1v11.1l5.6-6h3.8l-5.4 5.5 5.5 8h-3.5l-4.1-5.8-1.9 2v3.9h-3.1z"/><path fill="#e6e6e6" d="m744.4 300.8c0-3.9 3.1-7 7.2-7 4.2 0 7.2 3.2 7.2 7s-3.1 7-7.3 7c-4.1 0-7.1-3.1-7.1-7zm11.3 0c0-2.3-1.7-4.3-4.2-4.3s-4.1 2-4.1 4.3 1.7 4.3 4.1 4.3c2.6.1 4.2-1.9 4.2-4.3z"/><path fill="#e6e6e6" d="m760.9 302.6v-8.6h3.1v7.6c0 2.1 1.1 3.3 2.9 3.3s3-1.3 3-3.3v-7.6h3.1v13.4h-3.1v-2.1c-.8 1.3-2.1 2.3-4.2 2.3-3.1.2-4.8-1.8-4.8-5z"/><path fill="#e6e6e6" d="m776.6 303.8v-7.1h-1.7v-2.7h1.7v-3.7h3.1v3.7h3.6v2.6h-3.6v6.6c0 1.2.6 1.7 1.7 1.7.7 0 1.3-.2 1.9-.5v2.5c-.8.5-1.7.7-2.8.7-2.3.1-3.9-.9-3.9-3.8z"/><path fill="#e6e6e6" d="m785.9 289.7h3.2v15h9.4v2.9h-12.5v-17.9z"/><path fill="#e6e6e6" d="m808.7 307.5v-1.7c-.9 1.1-2.3 2-4.4 2-2.6 0-4.8-1.4-4.8-4.2 0-3 2.3-4.4 5.4-4.4 1.7 0 2.6.2 3.7.5v-.2c0-1.9-1.2-2.9-3.3-2.9-1.5 0-2.6.3-3.9.8l-.8-2.5c1.5-.7 2.9-1.1 5.1-1.1 4 0 5.9 2.1 5.9 5.7v8zm.1-5.6c-.8-.3-1.9-.5-3.1-.5-2 0-3.1.8-3.1 2.1s1.1 2 2.6 2c2 0 3.5-1.1 3.5-2.9z"/><path fill="#e6e6e6" d="m817.6 305.5v2.1h-3.1v-18.7h3.1v7.4c1-1.4 2.4-2.5 4.5-2.5 3.2 0 6.3 2.5 6.3 7s-3.1 7-6.3 7c-2.1 0-3.5-1.1-4.5-2.3zm7.7-4.7c0-2.6-1.7-4.3-3.9-4.3-2.1 0-3.9 1.7-3.9 4.4 0 2.6 1.8 4.3 3.9 4.3 2.2 0 3.9-1.7 3.9-4.4z"/><path fill="#e6e6e6" d="m829.6 305.8 1.4-2.1c1.4 1.1 3 1.7 4.4 1.7s2.1-.5 2.1-1.5-1.3-1.4-2.8-1.8c-.1 0-.2-.1-.2-.1-2-.6-4.2-1.4-4.2-4s2.1-4.1 4.8-4.1c1.7 0 3.5.6 5 1.5l-1.2 2.2c-1.3-.8-2.6-1.3-3.8-1.3s-1.9.5-1.9 1.4 1.3 1.4 2.8 1.8c.1 0 .2.1.2.1 2 .6 4.2 1.5 4.2 4 0 2.9-2.2 4.2-5 4.2-1.9 0-4-.7-5.8-2z"/><path fill="#e6e6e6" d="m206.3 434.2c0-5.1 4.1-9.2 9.3-9.2s9.2 4.2 9.2 9.2-4.1 9.2-9.3 9.2-9.2-4.1-9.2-9.2zm17.4-.1c0-4.5-3.5-8.2-8.2-8.2s-8.2 3.7-8.2 8.3c0 4.5 3.5 8.2 8.2 8.2s8.2-3.7 8.2-8.3zm-13.1-.1c0-2.8 2.1-5.1 5.1-5.1 1.9 0 2.9.6 3.9 1.5l-1.4 1.7c-.8-.7-1.5-1.1-2.5-1.1-1.7 0-2.8 1.4-2.8 3.1s1.1 3 2.8 3c1.1 0 1.7-.5 2.5-1.1l1.4 1.4c-1.1 1.1-2.1 1.7-4 1.7-2.9.1-5-2.2-5-5.1z"/><path fill="#e6e6e6" d="m226.1 425.3h3.4l4.2 13.2 4.4-13.3h2.6l4.4 13.3 4.2-13.2h3.3l-6.2 18h-2.7l-4.4-12.8-4.4 12.8h-2.7z"/><path fill="#e6e6e6" d="m252.4 436.4c0-3.9 3.1-7 7.2-7 4.2 0 7.2 3.2 7.2 7s-3.1 7-7.3 7c-4.1 0-7.1-3.1-7.1-7zm11.2 0c0-2.3-1.7-4.3-4.2-4.3s-4.1 2-4.1 4.3 1.7 4.3 4.1 4.3c2.7.1 4.2-1.9 4.2-4.3z"/><path fill="#e6e6e6" d="m269 429.7h3.1v3c.8-2 2.4-3.4 4.8-3.3v3.2h-.2c-2.7 0-4.6 1.7-4.6 5.4v5.1h-3.1z"/><path fill="#e6e6e6" d="m278.6 424.5h3.1v11.1l5.6-6h3.8l-5.4 5.5 5.5 8h-3.5l-4.1-5.8-1.9 2v3.9h-3.1z"/><path fill="#e6e6e6" d="m291.3 436.4c0-3.9 3.1-7 7.2-7 4.2 0 7.2 3.2 7.2 7s-3.1 7-7.3 7c-4.1 0-7.1-3.1-7.1-7zm11.2 0c0-2.3-1.7-4.3-4.2-4.3s-4.1 2-4.1 4.3 1.7 4.3 4.1 4.3c2.6.1 4.2-1.9 4.2-4.3z"/><path fill="#e6e6e6" d="m307.7 438.2v-8.6h3.1v7.6c0 2.1 1.1 3.3 2.9 3.3s3-1.3 3-3.3v-7.6h3.1v13.4h-3.1v-2.1c-.8 1.3-2.1 2.3-4.2 2.3-3 .2-4.8-1.8-4.8-5z"/><path fill="#e6e6e6" d="m323.4 439.4v-7.1h-1.7v-2.6h1.7v-3.7h3.1v3.7h3.6v2.6h-3.6v6.6c0 1.2.6 1.7 1.7 1.7.7 0 1.3-.2 1.9-.5v2.5c-.8.5-1.7.7-2.8.7-2.3 0-3.9-.9-3.9-3.9z"/><path fill="#e6e6e6" d="m332.7 425.3h3.2v15h9.4v2.9h-12.5v-17.9z"/><path fill="#e6e6e6" d="m355.5 443.1v-1.7c-.9 1.1-2.3 2-4.4 2-2.6 0-4.8-1.4-4.8-4.2 0-3 2.3-4.4 5.4-4.4 1.7 0 2.6.2 3.7.5v-.2c0-1.9-1.2-2.9-3.3-2.9-1.5 0-2.6.3-3.9.8l-.8-2.5c1.5-.7 2.9-1.1 5.1-1.1 4 0 5.9 2.1 5.9 5.7v8zm.1-5.6c-.8-.3-1.9-.5-3.1-.5-2 0-3.1.8-3.1 2.1s1.1 2 2.6 2c2 0 3.5-1.1 3.5-2.9z"/><path fill="#e6e6e6" d="m364.4 441.1v2.1h-3.1v-18.7h3.1v7.4c1-1.4 2.4-2.5 4.5-2.5 3.2 0 6.3 2.5 6.3 7s-3.1 7-6.3 7c-2.1 0-3.5-1.1-4.5-2.3zm7.7-4.7c0-2.6-1.7-4.3-3.9-4.3-2.1 0-3.9 1.7-3.9 4.4 0 2.6 1.8 4.3 3.9 4.3 2.2 0 3.9-1.7 3.9-4.4z"/><path fill="#e6e6e6" d="m376.5 441.4 1.4-2.1c1.4 1.1 3 1.7 4.4 1.7s2.1-.5 2.1-1.5-1.3-1.4-2.8-1.8c-.1 0-.2-.1-.2-.1-2-.6-4.2-1.4-4.2-4s2.1-4.1 4.8-4.1c1.7 0 3.5.6 5 1.5l-1.2 2.2c-1.3-.8-2.6-1.3-3.8-1.3s-1.9.5-1.9 1.4 1.3 1.4 2.8 1.8c.1 0 .2.1.2.1 2 .6 4.2 1.5 4.2 4 0 2.9-2.2 4.2-5 4.2-2 0-4.1-.7-5.8-2z"/><path fill="#e6e6e6" d="m505.1 434.2c0-5.1 4.1-9.2 9.3-9.2s9.2 4.2 9.2 9.2-4.1 9.2-9.3 9.2-9.2-4.1-9.2-9.2zm17.4-.1c0-4.5-3.5-8.2-8.2-8.2s-8.2 3.7-8.2 8.3c0 4.5 3.5 8.2 8.2 8.2s8.2-3.7 8.2-8.3zm-13.1-.1c0-2.8 2.1-5.1 5.1-5.1 1.9 0 2.9.6 3.9 1.5l-1.4 1.7c-.8-.7-1.5-1.1-2.5-1.1-1.7 0-2.8 1.4-2.8 3.1s1.1 3 2.8 3c1.1 0 1.7-.5 2.5-1.1l1.4 1.4c-1.1 1.1-2.1 1.7-4 1.7-2.9.1-5-2.2-5-5.1z"/><path fill="#e6e6e6" d="m525 425.3h3.4l4.2 13.2 4.4-13.3h2.6l4.4 13.3 4.2-13.2h3.3l-6.2 18h-2.7l-4.4-12.8-4.4 12.8h-2.7z"/><path fill="#e6e6e6" d="m551.2 436.4c0-3.9 3.1-7 7.2-7 4.2 0 7.2 3.2 7.2 7s-3.1 7-7.3 7c-4.1 0-7.1-3.1-7.1-7zm11.2 0c0-2.3-1.7-4.3-4.2-4.3s-4.1 2-4.1 4.3 1.7 4.3 4.1 4.3c2.7.1 4.2-1.9 4.2-4.3z"/><path fill="#e6e6e6" d="m567.8 429.7h3.1v3c.8-2 2.4-3.4 4.8-3.3v3.2h-.2c-2.7 0-4.6 1.7-4.6 5.4v5.1h-3.1z"/><path fill="#e6e6e6" d="m577.5 424.5h3.1v11.1l5.6-6h3.8l-5.4 5.5 5.5 8h-3.5l-4.1-5.8-1.9 2v3.9h-3.1z"/><path fill="#e6e6e6" d="m590.1 436.4c0-3.9 3.1-7 7.2-7 4.2 0 7.2 3.2 7.2 7s-3.1 7-7.3 7c-4.1 0-7.1-3.1-7.1-7zm11.2 0c0-2.3-1.7-4.3-4.2-4.3s-4.1 2-4.1 4.3 1.7 4.3 4.1 4.3c2.6.1 4.2-1.9 4.2-4.3z"/><path fill="#e6e6e6" d="m606.5 438.2v-8.6h3.1v7.6c0 2.1 1.1 3.3 2.9 3.3s3-1.3 3-3.3v-7.6h3.1v13.4h-3.1v-2.1c-.8 1.3-2.1 2.3-4.2 2.3-3 .2-4.8-1.8-4.8-5z"/><path fill="#e6e6e6" d="m622.2 439.4v-7.1h-1.7v-2.6h1.7v-3.7h3.1v3.7h3.6v2.6h-3.6v6.6c0 1.2.6 1.7 1.7 1.7.7 0 1.3-.2 1.9-.5v2.5c-.8.5-1.7.7-2.8.7-2.3 0-3.9-.9-3.9-3.9z"/><path fill="#e6e6e6" d="m631.5 425.3h3.2v15h9.4v2.9h-12.5v-17.9z"/><path fill="#e6e6e6" d="m654.3 443.1v-1.7c-.9 1.1-2.3 2-4.4 2-2.6 0-4.8-1.4-4.8-4.2 0-3 2.3-4.4 5.4-4.4 1.7 0 2.6.2 3.7.5v-.2c0-1.9-1.2-2.9-3.3-2.9-1.5 0-2.6.3-3.9.8l-.8-2.5c1.5-.7 2.9-1.1 5.1-1.1 4 0 5.9 2.1 5.9 5.7v8zm.1-5.6c-.8-.3-1.9-.5-3.1-.5-2 0-3.1.8-3.1 2.1s1.1 2 2.6 2c2 0 3.5-1.1 3.5-2.9z"/><path fill="#e6e6e6" d="m663.3 441.1v2.1h-3.1v-18.7h3.1v7.4c1-1.4 2.4-2.5 4.5-2.5 3.2 0 6.3 2.5 6.3 7s-3.1 7-6.3 7c-2.2 0-3.6-1.1-4.5-2.3zm7.7-4.7c0-2.6-1.7-4.3-3.9-4.3s-3.9 1.7-3.9 4.4c0 2.6 1.8 4.3 3.9 4.3s3.9-1.7 3.9-4.4z"/><path fill="#e6e6e6" d="m675.3 441.4 1.4-2.1c1.4 1.1 3 1.7 4.4 1.7s2.1-.5 2.1-1.5-1.3-1.4-2.8-1.8c-.1 0-.2-.1-.2-.1-2-.6-4.2-1.4-4.2-4s2.1-4.1 4.8-4.1c1.7 0 3.5.6 5 1.5l-1.2 2.2c-1.3-.8-2.6-1.3-3.8-1.3s-1.9.5-1.9 1.4 1.3 1.4 2.8 1.8c.1 0 .2.1.2.1 2 .6 4.2 1.5 4.2 4 0 2.9-2.2 4.2-5 4.2-2 0-4.1-.7-5.8-2z"/></g>
</svg>
