<?xml version="1.0" encoding="utf-8"?>
<!-- Generator: Adobe Illustrator 23.0.1, SVG Export Plug-In . SVG Version: 6.00 Build 0)  -->
<svg version="1.2" baseProfile="tiny" id="Layer_1" xmlns="http://www.w3.org/2000/svg" xmlns:xlink="http://www.w3.org/1999/xlink"
	 x="0px" y="0px" viewBox="0 0 900 600" xml:space="preserve">
<g>
	<path d="M463.71,387.96l0.1-0.1C463.67,387.82,463.74,387.86,463.71,387.96z"/>
	<path d="M390.91,348.91l0.1-0.1C390.82,348.84,390.71,348.77,390.91,348.91z"/>
	<path d="M522.34,377.18l0.1,0.1C522.65,377.12,522.52,377.18,522.34,377.18z"/>
	<path d="M333.38,425.61l-0.1-0.1C333.28,425.52,333.27,425.5,333.38,425.61z"/>
	<path d="M300.43,414.73l0.1,0.1C300.79,414.65,300.75,414.69,300.43,414.73z"/>
	<path d="M351.76,363.2l-0.1-0.1C351.57,363.37,351.61,363.27,351.76,363.2z"/>
	<path d="M494.77,389.86h0.1C494.83,389.62,494.89,389.62,494.77,389.86z"/>
	<path d="M465.01,407.24l-0.1-0.1C464.83,407.26,464.83,407.24,465.01,407.24z"/>
	<path d="M484.49,391.36l0.1,0.1C484.61,391.3,484.69,391.15,484.49,391.36z"/>
	<path d="M324.6,382.87l-0.1,0.1C324.52,382.97,324.58,382.89,324.6,382.87z"/>
	<path d="M707.2,555.15c-6.63-0.45-5.27-4.78-19.27-10.69c-6.68-2.82-9.72-3.21-10.69-6.79c-0.67-2.49-1.72-2.9-4.69-9.59
		c-3.19-2.94-6.88,0.83-5.79-3.99c5.09-22.62,4.46-21.83,4.89-27.46c0.47-6.18,2.85-2.32,10.79-29.46
		c2.07-7.09,3.17-33.5,5.49-42.05c2.5-9.21-0.63-23.15-0.1-24.47c-1.69-2.53-4.73-4.56-8.29-11.68c-3.3-1.8-6.49-4.99-10.79-6.59
		c11.65-30.57-7.23-23.82,19.08-27.86c1.23-2.71,2.9-4.97,0.4-6.89c-2.83-2.18-2.68-1.61-16.78,0.5
		c-2.39-4.78-4.43-12.25-12.28-19.97c-24.2-23.77-64.69-10.2-68.11,23.67c-1.02,10.08,1.24,6.88-3.5,4.29c-1.1-0.7-2.4-1-3.89-1.6
		c-2.37-4.41-0.63-5.34-9.89-2.5c0.7,2.81,1.6,3.38,2,5.29c0.36,1.71,1.3,2.2,3.5,2.2c0.8-1.6,0.09,1.55-2.8-6.39
		c1.2-0.3,2.3-0.5,3.2-0.7c5.53,2.76,1.05,5.4,5.29,9.29c0.1,1.2,0.1,2.3,0.2,3.5c-3.21,2.14-2.06-1.96-3.89-3.8
		c-0.4-0.5-0.9-0.9-1.6-0.3c0.2,1.5,0.3,3,0.5,4.69c-6.47,0.68-5.39,1.02-5.39-2c-0.1-0.04-4.79-2.23-4.89-2.3
		c-3.17-2.07-3.68,1.01-8.09,1.6c-28.52,3.78-10.16,2.68-27.86,1c4.96-1.13,35.63-7.85,37.75-12.38
		c-0.84-0.84-52.79,19.35-73.3,12.18c-5.67-1.98-22.07-0.76-28.06,0.2c-4.61,1.15-20.99-5.07-37.35,0.2
		c-3.57,1.15-9.91-20.7-34.26-23.27c-19.02-2-29.07,5.46-36.85,11.68c-5.16-7.98-3.89-8.33-11.19-5.59c-1-0.3-2-1.11-2.8-0.9
		c-2.51,0.66-4.79-1.2-6.99,0.1c-2.2-0.6-2.1-3-3.7-4.19c-1.2,0-1.9,1.39-3.3,1.1c-2.21-0.46-8.01,10.37-14.38,7.69
		c-4.83-1.61-6.42,2.22-11.78,3.3c-0.2,0.9-0.9,1.3-1.9,1.5c-2.22-2.22-0.32-0.69,1.9-1.8c-0.4-2-2.2-2.7-3.3-4.49
		c-1.19,2.67-0.04,3.48-5.49-3.8c-2.74,2.74-2.14,1.91-1.2,4.09c-0.5,0.3-0.9,0.7-1.5,1.2c3.2,3.55,3.85,3.53-2.8,2.7
		c-0.34,2.75-0.86,2.45-1.7,3.5c0.9,1.6,1.4,3.1,0.8,4.89c-1.3,0-0.6-2.2-2.3-2c-0.36,4.24,0.32,3.15-1.3,3.8
		c-0.19,3.44,2.53,4.92-0.4,5.89c2.5,25.03-2.17,14.1,0.2,30.66c2.2,0.3,2.2,0.3,3.89,2.3c-2.18,2.91-1.94,2.64-1,6.09
		c3.63,0.98,3.62-5.83,4.39-1.2c5.38,3.13,15.78,3.98,5.39,6.69c-4.95,1.65,22.87-2.68,22.97-2.7c2.85,3.99,0.63,5.85,7.49,12.48
		c3.27,3.16,2.14,1.18,5.49,3.99c-10.27,2.66-7.03,1.82-9.29,1.8c-4.24-0.05-12.48,1.3-13.58,3.5c0.71,0.36-0.76,0.79,9.99-0.8
		c2.23-0.33,2.55,0.78,4.89-0.6c4.6-2.71,12.97-1.53,13.48-1.2c3.41,2.18,13.09,0.22-16.08,4.39
		c-109.91,15.72-45.56,16.99-148.31,10.79c-12.84-0.78-14.64,0.99,4.29,2.3c37.31,2.58,34.88,1.12,34.85,4.39
		c-0.1,14.49-3.43,38.97-2.1,56.03c0.99,12.61-0.98,16.24,0.4,20.47c0.64,1.97-1.14,1.75-1.2,5.99c-0.09,6.65-0.05,13.24-0.4,14.98
		c-0.92,4.56,4.3,3.98-40.95,0.7c-3.75-0.27-5.74-1.04-7.99-0.1c-2.23,0.93-3.59-1.02-4.79,2.3c-1.85,5.08-2.7,9.29-2.5,12.08
		c32.91,7.12-15.62-2.79,66.61,8.79c154.47,21.75-26.98-8.58-47.44-7.49c-5.5,0.29-14.05-1.81-15.68-2.9
		c3.59-15.69-4.71-10.8,43.04-9.39c16.87,0.5,10.46,11.37,14.08-63.52c2.17-44.82-0.49-39.95,3.5-39.95c11.08,0,12.95,1.09,15.68,0
		c1.5-0.38,0.7,0.82,6.09,0.4c18.85-1.46,106.3-18.35,108.36-15.88c4.39,4.73,10.92,4.04-12.58,8.09
		c-3.7-0.29-64.06,12.28-83.89,16.18c-10.08,1.98-6.59,3.45-5.89,3.3c8.13-1.82,16.48-2.4,24.57-4.09
		c47.71-10,32.65-7.85,39.85-8.79c7.41-0.96,37.83-4.94,45.64-9.09c23.78,6.66,14.62,6.38,52.73,1.5c0.56,0.37,3.7,23.17,4.39,41.35
		c0.22,5.66-2.21,14.11,3.3,20.17c0.9-0.3,0.88-1.19,0.7-1.8c-1.95-6.41-0.25-10.17-1.1-24.07c-1.64-26.82-2.66-23.17-3.89-36.15
		c19.44-10.8,13.5-5.83,17.78,21.27c0.89-5.81-0.62-19.61-1.3-25.47c5.42-6.2,4.64,27.22,6.69,57.03
		c0.77,11.22,3.52,11.39-3.6,11.39c4.26,2.34,5.94,2.06,5.99-4.39c0.37-42.42-5.48-62.89-2.9-62.92c6.44-0.06,21.79-2.97,26.77-9.49
		c1.6-0.18,0.54,1.95,3.7,4.39c8.31,6.44,9.57,7.24,10.99,10.49c1.56,3.57,4.29,5.54,7.99,6.29c18.49,3.78,21.02,4.92,28.06,3.7
		c47.29-8.21,53.76,6.88,55.13,0.5c-6.79-1.13-8.08-3.37-25.37-4.99c-22.28-2.09-22.22,6.61-54.03-0.2
		c-4.58-0.98-7.74-1.39-9.49-5.19c-1.11-2.4-2.41-5.15-4.69-6.29c-2.33-1.17-9.26-6.69-8.79-9.99c0.49-1.48-2.17-1.1-2.6-1.1
		c-1.64-4.92-2.66-9.94-3.7-15.08c-0.19-0.92,0.95-2.46,2.04-4.39c-2.98,0-2.06,0.97-1.74-5.89c-5.78-0.39-4.42-0.49-4.79-1.6
		c-6.92,9.23-1.13,20.08,4.59,28.26c-5.55,5.55-27.24,11.71-29.96,4.89c-2.42,0.61-9.8,4.1-5.49-0.2
		c13.15-13.15,12.38-30.63,12.38-41.25c16.07-3.86,14.69-2.42,17.88,1.4c-2.31,1.85-2.45,1.06,2,3.8c-0.6,1.1-1.1,2.1-1.6,3
		c3.04-0.38,2.16,0,3.5-1c-0.4-0.4-0.7-0.6-1-0.9c2.31-6.16,2.1-5.79,4.09-4.99c-0.82,4.51-0.56,4.5,1.4,0.2
		c1.6,0.5,3.09,0.7,4.29,2c2.89,3.11,6.19,3,9.79-0.1c0-7.62-0.38-4.99,1.4-6.29c2.93-2.15,1.97-1.17,2.3-3.8
		c1.6-0.5,3.1-0.8,4.99-0.5c-3.57,4.59-6.96,9.51-0.82,4.3c-1.33,10.3-2.93,11.4-1.58,12.07c1.45-1.13,0.47-5.77,4.79-11.29
		c3.63-4.62,3.6-5.86,4.89-4.89c-0.39,1.65-1.61,3.3-1.32,5.21c4.64-9.67,3.32-9.09,13.1-12.2c5.87-1.87,6.86-1.49,9.49-3.6
		c3.06-2.45,9.56-3.29,10.69-1.6c-10.53,7.37-4.28,5.51,2.6,0.6c1.8-1.29,3.7-1.3,6.29-1.1c-9.37,6.44,0.1-0.4,11.49-0.4
		c11.52,0,15.49-0.76,21.27,0.3c-10.68,1.36-19.39,10.56-23.67,19.47c0.36,5.79-0.01,8.96,1.4,15.28c1.47,6.57,3.69,10.14,2.5,4.99
		c-1.57-6.76-2.1-7.68-2.1-18.08c0-8.55,16.65-22.3,27.86-20.37c3.02,3.53,5.82,4.76,1.8,3.99c-2.63-0.5-11.63-2.72-13.08-0.4
		c-1.03,2.06,0.47-1.01,19.37,4.49c18.15,5.28,33.74,5.63,40.55,16.68c9.28,15.06,8.39,0.2,8.69,26.96c0.01,0.79-0.68,1.94,0.1,4.29
		c0.4,1,0.6,2.1,0,3.6c-2.2,0.1-2.1,2.7-3.5,3.99c-2.1-1.26-3.31-1.92-3.6,17.08c-0.38,25.09-11.17,59.93-10.79,73.9
		c0.17,6.2,0.6,13.75,0.6,14.08c-2.93,2.56,1.38-1.55-10.69,10.09c-2.43,3.25,0.98,0.71-5.29,6.79c-1.18,1.15-3.3,0.99-5.79,1.2
		c-2.8-5.84-4.53-7.99-0.5-5.89c6.34,3.3,11.84-0.15,8.69-1.2c-1.03-0.34-1.24-0.04-5.49-0.4c-4.27-0.36-4.44,1.48-2.6-4.49
		c2.36-1.18,1.51,0.08,1.9-4.19c0.79-8.64,1.55-10.88,0.8-12.68c-1.4,2.2-1.3,4.59-2.4,6.59c-1-0.6-0.68-1.4-0.7-2.1
		c-0.91-42.06-3.52-25.45-5.69-45.54c-2.69-24.92-2.94-22.48-2.7-24.67c1.38-12.23,2.25-16.73,4.89-20.07
		c1.79-2.27,2.2-6.25,5.19-7.69c0.17,0,2.08-4.06,2.5-6.99c-2.58,3.31-1.26,3.69-18.78,7.39c-12.36,2.61-12.26,0.64-15.48,1.8
		c-0.3,0.11-1-0.5-1.5-0.8c0,9.75,9.89,10.98,8.79,15.38c2.44,1.9,6.05-0.73,6.79-2.4c6.6-14.91-3.31-8.66,14.08-15.28
		c-0.2,1.8-0.92,3.18-1.8,4.19c-2.97,3.44-3.99,7.79-6.09,11.49c0,1.3,0.89,2,0.6,3.3c-0.41,1.8-0.39,3.7-0.5,5.49
		c-0.34,5.36-1.55,2.83-1.1,7.49c3.18,33.08,5.63,25.59,4.59,27.66c-0.8,1.4-0.1,2.7,0.3,3.89c4.45,13.53,3,9.74,3,42.44
		c0,10.65,2.97,8.19-1,9.89c-2.27-1.62-2.29-1.83-2.7-0.6c-0.22,1.34,0.19,2.01,4.29,6.49c-0.77,1.55-1.4,3.09,0.2,3.89
		c8.28,3.55,13.36-6.56,19.97-10.29c4.21-2.37,1.58-2.12,1.1-2.6c0-1.09,2.38-3.21,3.1-3.7c5.31-3.61-0.19-2.86,6.19-3.5
		c3.29,1.85,2.09,2.88,3.89,5.59c2.01,3.69,1.94,2.31,0.8,6.49c-7.94,5.61-5.68,4.13-9.49,7.39c-1.14,1.14,0.02,2.31,1.4,2
		c1.79-0.4,2.7-1.41,8.89-5.69c3.68-2.54,3.55-0.88,4.89-7.59c1.67-6.36,0.52-6.43,2.5-8.69c-0.55-8.3,0.35-7.83,3.8-10.59
		c-0.41-1.82-1.63-0.51-4.89,1.5c-0.6,5.59-2.2,10.99-3.5,16.28c-1.4,0-1.4-0.9-1.8-1.4c-3.73-4.66-2.4-7.29-8.99-7.29
		c0-26.71-3.76-1.08,5.39-53.63c7.26-41.67,3.36-41.01,6.59-46.04c5.34-8.3,4.15-8.54,3.4-12.68c1.67-1.33-0.02,2.19,6.79-1.4
		c3.26-1.72,2.5-2.43,5.79,0.5c-0.7,4.92-3.01,9.14-6.29,17.58c-7.37,18.96,1.22,29.59,2.6,40.45c0.73,5.73-0.96,3.82-1,7.09
		c-0.25,20.1-0.88,22.06-1.8,32.56c-1.25,14.3,2.41,7.82,2.9,3.5c6.19-55.17-7.45-61.8-1.7-78c6.31-21.47,8.41-21.23,6.39-24.17
		c1,0.3,1.5,0.4,1.9,0.5c0.2-2.4-0.5-3.6-2.6-3.8c-5.3-0.81-7.05,0.96-12.38,3.3c-1.19-0.93-0.26-4.03-0.8-6.49
		c-0.63-2.88,3.4-9.16-3.99-15.78c-1.74-1.74-1.1-2.49-4.19-7.99c-0.61-1.52-1.1-0.5-4.29-3.2c-2.33-1.97-4.98-4.42-8.19-4.49
		c-5.73-0.14,2.83-11.9,7.39-15.58c25.15,3.59,34.75,5.9,54.63,16.48c1.66,0.88,1.08,3.69,5.49,7.19c0.7,0.56,3.17,3.88,3.7,4.59
		c0,1.8,0,1.8,1.3,3.89c0,12.56,1.75,11.7-1.8,20.97c-3.46,9.04-4.7,7.73-0.7,7.29c0,28.82-10.31,51.06-16.58,68.51
		c1.67,2.79,2.68-2.3-3.7,28.66c-2.2,2.7-5.69,5.19-7.09,9.49c-20.38,0-14.58-2.65-17.08-3.89c-4.79-1.6,4.16,19.8,18.68,6.79
		c2.88-2.58,1.71-3.75,5.89-8.69c4.55-5.37,3.54-5.1,7.79-3.4c1.4,3.4,3.89,6.39,4.39,10.59c-1.32,1.32-6.66,3.22-8.19,5.89
		c-0.33,0.5-0.11,1.8,1.3,1.8c1.09-0.18,1.56-0.69,9.49-5.09c1.6,0.2,2.9,1.2,4.69,2.3c-12.14,4.42-8.13,8.2-4.49,5.59
		c7.74-5.54,7.21-5.05,9.69-3.2c-1.19,1.43-6.26,3.43-4.89,4.79c2.32,2.61,6.76-2.92,10.39-2.2c-2,1.45-1.92,1.12-3.99,3.2
		c-0.64,0.64-1,5.5,6.09-1.6c0.9,0.5,1.6,0.9,2.5,1.5c-0.9,0.5-1.6,1-2,1.2c0.35,2.65,1.85,1.12,4.09,0
		c5.07,2.54,5.98,2.62,10.69,2.9c9.25,0.55,3.81-1.79,11.19,11.49c-3.88,3.68-16.13,6.89-17.28,6.89c-26,2.26-22.83,0.05-37.55-4.29
		c-3.8-1.12-4.82-0.5-15.28,1c-1.36-3.6-3.85-5.98-13.18-13.38c-1.88-1.49-5.4-4.29-7.09-2.6c0.42,1.25,1.65,1.89,0.8,2.3
		c-13.13,6.19-10.99,12.34-5.19,8.29c0.12-0.08,6.22-4.22,8.89-5.89c5.32,4.73,2.02,0.58-5.29,7.89c0.18,2.17,2.79,1.75,4.59,0.5
		c7.08-4.92,5.28-4.93,8.39-2.1c-10.17,5.09-6.48,6.85-4.59,6.09c1.53-0.61,3.63-2.49,6.69-4.59c5.65,3.39,4.49,6.35,7.99,6.99
		c3.56,0.65,5.63,2.98,13.38,3.4c3.61,0.9,1.48,6.19,4.89,9.49c0.72-4.12,0-11.4-5.79-11.49c-3.4-0.05-6.39-1.5-10.09-2.7
		c14.39-3.51,14.12,3.23,28.26,4.29c6.85,0.51,21.6-1.33,23.37-1.7c19.05-3.96,16.62-7.53,10.99-21.37
		C715.98,555.16,711.16,555.41,707.2,555.15z M290.24,363.49c0.14,0,0.2,0.1,0.2,0.2C290.37,363.62,290.31,363.56,290.24,363.49z
		 M295.73,387.56c0,0.39,0.05,0.33-0.2,0.2L295.73,387.56z M294.13,380.87c1.3,1,1.2,2.2,1,3.89
		C293.93,383.47,293.54,382.37,294.13,380.87z M294.33,398.15c0-0.33-0.02-0.21,0.08,0.06
		C294.39,398.19,294.36,398.18,294.33,398.15z M294.64,398.44c1.47-0.23,2.45,4.14,2.69,5.6
		C296.05,402.07,294.77,400.49,294.64,398.44z M459.52,415.93c1.66,0,2.2-0.55,2.2,2.2C462.22,421.74,460.56,419.45,459.52,415.93z
		 M461.02,414.03c-3.28-3.28-3.33-2.5-1.1-3.4c-0.7-0.5-0.9-1.1-0.2-1.8c-2.19-1.09-2.65-0.6-2.3-4.49c0.38-2.26,0.25-1.82,3.8-1.5
		c0.39,0.19,0.59,0.81,0.2,1.2c-2.06,0.41-1.69,0.3-2.9,1.3c1.3,0.3,2.2,0.5,3,0.7C462.02,409.63,461.92,411.63,461.02,414.03z
		 M488.98,365.39c-0.2,0.2-0.2,0.5-0.4,0.6c-7.82,2.71-7.93,3.55-9.89,1.2C476.97,365.12,472.49,365.39,488.98,365.39z
		 M482.19,371.48c-0.9,0.9-0.9,0.9-2,1.3C480.29,371.68,480.89,371.48,482.19,371.48z M456.62,365.69c5.63,1.13-2.81-1.97,14.28,0.6
		c-0.1,0.02-23.97,4.69-24.07,4.69c-15.12,0.21-10.42,4.01-13.98-3.99C439.92,365.22,451.85,365.01,456.62,365.69z M301.62,358.2
		c-0.13,0.26-0.07,0.25-0.2,0H301.62z M299.23,373.88c0.13-0.26,0.07-0.25,0.2,0H299.23z M303.42,375.98c-0.24,0-0.27,0.03,0-0.1
		V375.98z M304.12,373.88c-0.1,0.02-1.29,0.08-0.8-0.9C303.86,373.25,304.89,373.88,304.12,373.88z M305.92,380.97
		c-0.1,0,0-0.2,0.1-0.2C308.65,380.77,306.38,381.44,305.92,380.97z M311.91,386.86c-0.35-0.23-1.1-0.3-1.1-0.8
		C310.81,385.55,312.38,385.01,311.91,386.86z M310.81,380.37c0.1,0,0.1-0.2,0.2-0.2c0.61,0,0.73,0.16,0.4,0.5
		C311.21,380.57,311.01,380.47,310.81,380.37z M307.52,373.78c1-0.4,1.8-0.8,2.9-1.3C316.14,375.66,308.97,374.47,307.52,373.78z
		 M314.21,399.65c-0.1,0-0.82-0.08-0.5-0.4C314.64,399.25,314.38,399.15,314.21,399.65z M315.51,396.55c0-0.51,0.24-0.2,0.4-0.2
		C315.81,396.45,315.61,396.45,315.51,396.55z M315.11,390.16c-2.7-6.4-2.52-5.49-2.1-6.69c2.62-7.44,17.39-7.1,9.39-9.19
		c-5.36-1.4-5.51,0.43-11.09-3.1c-3.59-2.27-7.66-1.98-9.09-2.7c-0.5-0.6-1-1.3-1.7-2.2c-1,1.2,0.4,2.1,0.2,3.2
		c-0.6,0-1.1,0.1-1.6,0.2c-2-3.3,0.6-5.89,0.7-8.59c5.97-0.85,5.72-5.27,12.88-7.39c0,1.66-0.4,3.55,1.2,3.1c0.5-2,2.2-3.2,3.6-4.79
		c8.5,4.07,14.66-7.98,18.58-7.59c2.7,3.4,2.7,3.4,7.19,3.5c1.59,7.96-0.16-1.88,5.49,0.1c3.7,1.06,5-1.66,7.59-0.8
		c7.95,12.72,2.13-0.31-5.59,28.66c-12.95,1.77-3.02,0.13-1.4-4.79c3.36-10.2,1.71-8.74,0.7-4.89c-1.07,4.07-4.58,5.86-7.19,7.89
		c-5.39,4.17,2.47,2.01-11.68,9.09c-1.12-2.24-1.68-4.01-2.9-3c0,1.94,0.76,1.42-3.78,2.79c-3.04,3.67-1.87,3.47-7.41,4.2
		c-2.23-4.09-1.19-3.1-2-3.1c0.68,4.08-0.45,4.75,6.59,3.7c1.4-0.21,1.7-1.7,2.5-2.5c2.46-2.46,3.99-1.69,3.99-1.5
		c-3.05,5.85-6.24,6.89-11.98,6.89C315.81,390.66,315.51,390.36,315.11,390.16z M349.86,385.47c-0.2,2.8,0.4,5.79,0.1,8.79
		c-4.59,1-22.47,3.7-25.17,3.5c0.1-3.4,1.3-6.49,3.4-9.39c5.62-1.12-4.21,0.35,21.77-9.89c0.5,3.1,0.5,3.7-0.8,5.79
		c-1.3,0.2-2.6-1.2-3.6,0.6C346.97,384.97,348.46,384.37,349.86,385.47z M328.3,383.69c0.04-0.26,0.1-0.22,0.29-0.22
		C328.52,383.54,328.4,383.62,328.3,383.69z M343.27,377.18c0.25-0.25,0.18-0.2,0.94-0.2C343.83,377.66,343.64,377.36,343.27,377.18
		z M323.7,391.46c-0.19,0.1-0.38,0.1-0.58,0.19C323.2,391.29,323.25,391.01,323.7,391.46z M323.05,391.76
		c-0.32,0.68-0.15,0.21-2.55,0.9C321.19,391.58,322.17,391.75,323.05,391.76z M319.3,405.74c-5.19,2.01-2.29-8.72,1.2-3.1
		C321.3,403.94,320.89,405.12,319.3,405.74z M322.9,396.75c0,2.02,1.04,1.26-1.6,1.7C321.3,397.25,321.7,396.65,322.9,396.75z
		 M322.7,406.04c1.37-7.56-5-4.94,4.49-6.49c6.16-1.01,28-4.02,36.25-5.19c32.51-4.6,30.16-5.63,30.16,0.6
		C389.93,397.41,324.39,405.99,322.7,406.04z M394.7,396.05c1.88-1.95,1.29-7.03-3.1-7.29c-0.9,0-1.9,0-3.4,0
		c8.9-8.9,17.15,7.6,6.99,10.99C393.08,396.92,392.85,397.98,394.7,396.05z M396.2,417.22c-1.91-5.18-2.87-13.12-4.79-17.98
		c-0.3-0.6,0-1.2,1-1.3C405.23,415.05,397.63,421.09,396.2,417.22z M389.71,398.55c-4.6,15.63-2.41,7.45-4.59,20.17
		c-10.07-1.95-4.59-11.5,1.9-19.47C387.71,398.25,388.71,398.05,389.71,398.55z M350.76,431.71c-0.78-1.05,0.91,0.02-10.19-3.5
		c-5.8-1.84-16.1-17.24-14.38-20.67c5.09-1.2,21.97-3.6,25.37-3.5c8.15,22.4,10.53,19.42,4.99,19.97c0.8,0.7,1.6,1.01,2.4,1.2
		c4.02,0.95,1.98-0.55,4.89,3.2c2.25,2.89,3.23,3.06,0.9,3.6C355.44,434.13,353.47,434.24,350.76,431.71z M375.03,442.79
		c-5.72-0.27-15.37-4.69-19.27-7.29c18.31-2.13,6.7-5.29,22.37,4.39C381.48,441.97,389.6,443.49,375.03,442.79z M353.06,404.14
		c7.46-3.11,0.54,4.01,15.08,21.27c5.36,6.36,16.49,15.61,24.37,12.98c-15.7-1.59-28.67-17.87-33.56-33.76
		c-0.38-2.27-0.51-1.93,8.49-3.2c15.02-2.11,14.79-2.17,17.08-2.1c-7.1,9.18-4.34,5.91-8.59,12.98c1.02,2.79,1.9,7.51,9.59,8.89
		c4.1,0.74,1.21-12.81,4.89-19.18c0.82,12,2.26,10.68,1.8,13.88c-0.53,2.65,2.68,5.07,5.39,5.19c7.47,0.34,6.25-10.51-1.5-19.97
		c1.81-1.45,2.45-1,4.59-4.09c5.58-8.05-8.35-17.88-14.08-9.29c-1.51,2.26,0.07,1.59-9.59,3c-19.78,2.88-18.93,2.69-19.77,2.2
		c-1.71-6.84,0.5-22.08,7.79-32.46c11.22-15.98,21.61-11.43,25.76-11.67c-2-1.65-9.59-2.27-14.57,0.29
		c-25.14,12.9-20.51,43.2-21.67,44.94c-2.1,0.94-3.1,0.21-3.1-0.3c-1.51-20.51,5.54-34.76,13.78-41.95
		c28.07-24.48,66.76,13.92,60.02,55.83C416.92,459.55,362.16,449.65,353.06,404.14z M432.85,421.92c-4.04,8.64-10.22,15-19.37,17.68
		c-2.86,0.84-5.45,3.5-12.48,3.1c2.22-1.03,7.38-2.84,11.68-6.59c28.2-24.57,14.44-86.34-22.07-92.98c-0.7-0.2-1.4-0.4-2.1-0.7
		C422.22,335.58,450.51,384.16,432.85,421.92z M450.73,387.56c-12.73,1.4-11.01,4.17-12.28-4.29c6.69-2.2,13.48-1.9,20.27-3.4
		C461.16,386.58,466.38,385.85,450.73,387.56z M478.49,393.66c-2.1,1.1-4.31,1.42-6.19,0c-1.31-0.99-2.8-1.3-4.29-2.2
		c0.88-2.35,1.55,0.44,3.5,0.2c6.7-0.83,6.09-1.25,6.99-0.8C478.59,391.76,478.89,392.66,478.49,393.66z M478.49,386.96
		c0.7-2.5-0.75-4.49-0.7-6.79c0.04-1.9-0.4-2.3-1.9-3.4c0.63,4.1,0.27,4.78,0.5,7.59c0.1,1.3,1,2.5,0.3,4.09c-0.4,0.1-1,0.3-1.7,0.6
		c-1-10,2.2,0.6-2-16.18c-0.58-1.75-1.65-0.39-1.2,1.4c2.5,13.23,2.81,9.99,0.3,14.58c-4.92,0.55-15.56,3.27-13.58-0.3
		c1.67-0.3,3.35-1.36,5.2-0.72c0.68-5.08-4.14-7.93-4.6-10.47c-0.8-3.18,0.58-0.04-4.99,1.2c-13.36,1.67-14.23,2.5-16.48,1.7
		c-0.5-2-1.4-3.89-1.8-6.09c2.92-1.46,9.72-1.98,12.98-1.9c5.65,0.14,25.16-6.57,28.56-4.09c0.49,0.24,0.98,2.46-0.8,2.2
		c-2.15-0.32-1.88,0.35-0.7,4.29c5.61-1.27,3.64,5.35,6.39,10.59C481.29,386.37,480.29,386.86,478.49,386.96z M491.88,384.87
		c-0.61,0-0.62-1-0.3-1c2.22-0.37,1.58-0.24,1.9,0.4C492.98,384.47,492.38,384.67,491.88,384.87z M514.35,373.98
		c-5.27,0.92-10.64,1.45-13.25,5.65c-7.54,1.56-4.51,0.86-13.81,2.34c-5.58,0.89-2.74,1.09-5.29-5.29
		c3.35-1.12,20.01-2.79,32.16-5.49C521.45,369.56,517.51,373.43,514.35,373.98z M482.97,373.98c1.97-2.58,9.92-7.65,17.6-6.99
		c13.62,1.17,14.65-0.3,26.67,0.7C526.73,368.06,488.93,374.02,482.97,373.98z M578.36,443.19c-3.82,12.15-2.87,11.53-11.09,3.6
		c-1.47-1.42-1.9-2.3-2.4-4.69C573.24,443.65,579.33,440.12,578.36,443.19z M673.24,349.61c0.9-0.14,9.89-1.49,10.89-1.6
		c3.79-0.43,4.95,4.11,1.1,5.39c-0.13,0.03-8.79,1.6-12.78,1.6C671.18,349.66,670.8,350,673.24,349.61z M586.65,357.1
		c0.5,3,2.3,5.39,3.99,7.99c-1.1,1-2.1,0.9-3.2,0.5c-0.43-1.73,0.17-4.1-2.1-5.99C584.23,358.66,583.69,355.62,586.65,357.1z
		 M529.13,367.09c2.64,0,2.3-0.07,2.3,0.2C528.78,367.29,529.13,367.58,529.13,367.09z M533.92,368.99
		c36.35-4.78,36.93-6.07,38.35-3C567.68,369.43,514.33,371.56,533.92,368.99z M617.61,372.28c-3.04,2.47-4.99,5.59-6.99,8.89
		c1.2,1.9,0.9,3.7-0.5,5.69c-9.09-4.39-19.18-5.49-28.56-8.69c-1.5-2.8-1.7-6.29-5.09-7.89c-1.4,0.7-2.9,0.7-4.19-0.9
		c4.69-0.7,9-1.24,13.28-1.9c4-0.61,2.71,1.58,6.19,1.2c7.51-0.83,11.94,1.75,23.97,0.7c1.2-0.1,2.4,0,3.6,0.6
		C619.21,371.18,618.33,371.7,617.61,372.28z M592.55,367.39c1.97-5.26-4.14-6.45,1.8-7.19c24.74-1.65,28.14-6.51,32.06-1.5
		c0.7,0.9,0.09,2.58-1,3.1C625.3,361.85,592.65,367.37,592.55,367.39z M615.12,366.29c-1.04,0.21-1.59,0.54-2.4,0
		C612.72,366.05,612.36,366.06,615.12,366.29z M625,369.59c0-3.79-4.2,0.77-8.09-3.89c2.2-0.5,3.89-0.8,5.49-1.2
		c7.07-1.77,7.06-6.85,3.3-8.89c-2.91-1.57-5.32-0.22-10.49-0.8c5.92-12.83,16.45-6.21,18.88,2.7
		C636.35,365.79,628.92,371.15,625,369.59z M630.3,348.71c0.45,0,0.01-0.39,0.8,0.4c1.36,0.34,0,1.19,0,0
		C630.9,349.01,630.6,348.91,630.3,348.71z M632.62,350.71c0.3,0.05,0.43,0.27,0.45,0.59C632.83,351.22,632.7,350.97,632.62,350.71z
		 M655.56,376.98c-2.13-0.27-8.86-3.63-20.17-5.09c-10.51-1.36-1.64-1.36,0.1-5.19c-4.43,0,3.76-2.55-1.6-13.38
		c-2.34-4.73,4.46,2.07,2.8,10.59c3.57-3.29,0.06-15.14-8.69-17.18c-4.48-1.04-10.05-0.13-12.38,3.99
		c-3.81,6.71,1.51,4.27-22.37,7.89c-3.71,0.93-1.85-13.75,4.49-23.17c29.09-43.2,80.82,6.85,62.32,43.84
		C657.42,378.75,658.86,377.4,655.56,376.98z M663.95,372.58c2.7-15.59-0.84-30.81-12.78-43.24c-11.53-12-26.94-11.64-19.67-11.68
		c31.96-0.2,49.63,42.46,35.25,64.02C659.54,379.13,662.41,381.52,663.95,372.58z M645.38,543.76c-4.27-3.14-2.94-2.41,6.99-0.7
		C649.77,545.36,647.86,545.58,645.38,543.76z"/>
	<path d="M161.01,261.73c9.48,1.6,10.88,2.58,14.38,2.5c13.59-0.31,83.69,11.8,110.76,13.88c0.53,0,4.32-1.19-1.8-2.1
		c-128.48-19.15-121.74-15.02-121.74-17.08c3.13-11.84,1.25-11.02,7.59-10.59c21.82,1.48,8.5,0.94,40.95,2.1
		c7.64,0.76,6.58,9.41,8.79-71.31c0.98-35.64,0.82-30.78,1.1-32.46c10.71-0.89,10.51,2.54,44.94-3c0.15-0.02,44.6-6.98,48.84-7.19
		c1.67-0.28,14-3.5,15.38-3.5c3.4,9.02-1.06,8.11-3.99,14.38c-10.12,21.65-0.8,30.59-5.79,32.26
		c-16.79,7.92-23.08,29.02-20.77,47.44c0.29,4.33,1.15,4.53-1,4.99c-0.1,0.02-26.95,6.28-27.46,6.19c-3.31-0.29-7.76,4.43-4.69,7.49
		c3.3,3.71,1.93,2.44,35.65-4.89c0.4,0.8,0.89,1.5,1.2,2.3c18.81,49.33,78.14,43.74,85.99-1.1c3.13-17.86-4.99-22.18,4.69-21.17
		c16.99,1.77,13.27-0.66,14.38,9.69c1.15,10.7,2.25,15.23,14.88,26.27c2.12,1.85,2.61,1.65,0.3,2c0,1.59,0.5,1.85,8.49,4.29
		c7.27,2.22,6.75,4.39,32.46,2.8c13.56-0.84,12.66-0.33,12.78-3.5c15.72-7.59,4.75-2.09,15.28-4.49
		c10.89-2.49,17.62-9.34,29.66-17.48c17.95-12.13,16.61-10.86,17.08-11.39c2.84-3.2,7.03-3.33,12.98-6.99
		c-5.96-2.98-38.78,21.03-41.65,23.07c-1.4,1-4.03,6.88-19.47,9.69c1-2.49,29.91-26.22,38.45-31.66c5.29-3.37,5.59-1.56,2.7-23.77
		c-2.27-0.38,0.88,17.1-1.1,20.07c-2.88,0.89-10.02,2.24-11.61-0.3c-5.22,0.34-27.78-15.28-26.84-17.18c0-0.07-0.11-0.15-0.2-0.18
		c0,0.23-0.02,0.45-0.08,0.61c-1.78-2.96-7.95-2.36,13.47,12.65c6.51,4.57,10.18,4.89,11.09,5.49c4.99,4.42,12.47,0.08,7.89,3.6
		c-18.84,14.44-4.28,1.43-27.56,22.07c-2.41,3.42-5.25,5.3-18.78,12.38c-4.29,2.25-2.49,3.3-4.59,3.3
		c-35.64,2.6-40.6,1.95-49.74-6.49c-2.51-2.32-14.08-14.83-14.08-18.08c0-15.97-0.31-15.75,0.1-17.78c1.59-0.79,3.86,1.62,7.29-1.3
		c2.15-1.63,0.46,0.7,2.5,0.7c4.01,0,2.73-2.46,5.89-3.1c1.83-0.15,2.64-1.8,5.09-4.79c12.52-3.13,8.56-2.69,8.19,2.7
		c-0.01,0.1-1.09,8.79-1.1,8.89c-2.5,1.04-2.66,0.23-2.35-2.48c-1.13,2.37,0.47,1.98-2.35,3.68c1.63,2.28,0.77,1.68,4.19,1
		c1.37,2.06,1.3,7.81,2.2-0.3c1.9-1,3.89-1.1,5.99-1.2c0.5,0.8,0.9,1.5,1.5,2.6c0.37-4.11-0.47-2.31,2.27-4.59
		c-3.58,0-2.34,1.48-4.16-7.99c-0.72-3.75,0.16-9.6-3.3-7.59c-3.29,1.91-7.01,1.92-10.49,3c-2.43,0.75-0.88-3.72-1-5.79
		c2.6-1.3,8.19-2.7,14.08-3.6c0.4,1.5-0.5,2.8-0.3,4.49c4.68-5.46,3.93-9.99,7.09-9.99c0.05-0.1,1.4-3.68,1.4-3.3
		c1.84-0.31,0.84-1.45,3.8-5.49c5.96-8.18,16.42-18.51,23.77-24.17c1.08,10.76-4.14,7.35,4.69,29.76c2.22,5.64,6.98,11.02,4.59,5.29
		c-10.45-25.01-8.42-25.3-7.39-36.65c16.47-12.87,13.66-11.69,0.1-2.5c-5.64,3.82-13.67-0.91-21.57-4.39
		c-4.34-1.92,0.78-4.97-6.59-12.88c-2.26-2.42-3-4.37-3-2.1c0.27,3.84,4.31,5.25,6.49,14.98c4.93,22.01,7.73,19.12,6.29,20.57
		c-8.47,8.59-7.99,13.83-12.78,15.08c-3.11,0.81-10.68,4.55-10.79,4.59c-12.17,5.75-7.21,8.15-9.79,3c-1.03-1.71-3.66-2.19-5.39-2.3
		c-4.09-0.25-7.18-1.18-10.49-1c-5.51,0.3-17.14-1.29-20.37-2.1c-0.09-0.1-6.16-6.79-6.29-6.99c-4.27-7.64-7.31-3.92-21.97-20.67
		c3.74,0.04,7.45,0.02,10.69-2.4c4.1-3.05,19.63-5.06,23.07-23.57c4.02-21.61-13.37-38.04-31.66-50.23c3.72-3.44,3.23-4.04,6.39-1.4
		c12.96,10.83,43.81,39.33,57.82,32.06c8.06-3.22,7.79-5.51,7.79-12.78c3.96,0.66,16.4,21.39,10.39,27.66
		c-0.78,0.82-1.3,1.7-1.3,2.9c6.55,2.29,6.19-11.2,2.5-18.58c-8.93-17.86-30.05-28.07-19.37-18.58c3.14,2.24,6.09,2.55,6.09,8.29
		c0,2.7-0.5,5.29-2.5,7.69c-3.69-5.28-5.78-8.04-11.58-11.78c-8.18-5.28,5.7,6.59,9.19,12.78c-11.3,4.73-28.74-8.08-42.54-18.88
		c-1.04-0.82-13.33-8.92-16.98-13.48c2.68-2.14,11.52-4.14,11.78-14.78c0.05-1.9,2.76-5.33,0.7-8.59c2.04-5.88,2.68-9.74,6.99-7.09
		c2.86,2,5.08,3.53,6.99,1.1c-0.22,0.22-0.02,0.12-0.3-1c-1.33,0.12-3.9,1.36-6.99-2.4c-1.92-2.33-7.79-4.32-3.89-9.89
		c3.12-4.46,2.31-3.81,4.23-2.83c-2.13,0.09-0.31,1.7-4.53,6.52c0.5,1.2,1.3,2.1,2.4,2.7c0.7-1-0.7-1.5-0.6-2.5
		c2.05-2.05,2.03,1.23,3.1,2.3c0.8-1.8-0.2-3.3-1-4.89c0.56-1.3,1.14-3.37,2.9-0.2c-1.33,4.42-0.99,2.85-0.4,6.69
		c2.5,1.25,5.55-0.87,3.7-2.2c-0.5-0.3-1.1-0.4-1.7-0.7c-1.59-0.68-1.51-2.76,0.4-3c1.74,0-2.86-3.59-3.56-4.5
		c2.79,0.96,3.44,1.5,3.97,0.64c3.7,7.46,1.48,4.11,4.27,7.96c1.65-2.96,0.96-1.99,3.6-1c0.42-0.85,0.69,0.19-0.7-2
		c-4.14-6.55,12.05-17.75,14.88-22.47c2,0.4,3.89,0.8,5.69-0.7c0-0.4-0.1-0.8-0.2-1.4c4.78-1.91,5.1-0.98,6.69,0.8
		c0.36,4.56,2.1,8,2.7,10.09c0.75,3.76-3.56,3.56-0.7,8.49c1.17,2.02,3.11,5.61,3.89,7.79c1.14,2.5-3.43,3.09-6.09,1.5
		c-2.11,1.9,0.73,3.48,2.7,2.5c0.2,0.3,0.5,0.5,0.5,0.7c0.94,5.85-2.56,2.59-4.89,6.09c1.5,1.2,2.2-0.6,3.4-0.6
		c1.58,0.79,1.36,2.22,0.4,3.7c-2.87,4.41,5.57,8.17-6.79,10.09c-4.8,0.74-5.58,0.09-6.35-0.09c-2.6,4.61-3.46,4.62-2.84,12.97
		c0.1,0.78,0.58,1.28,1.26,1.58c1.61-2.75-0.42-6.55,3.64-12.76c2.7-0.1,5.09-0.11,7.49-0.4c4.71-0.57,6.22-4.65,5.09-7.19
		c-1.77-2.96,3.15-4.54,0-8.89c2.45-1.4,2.35-0.64,1.6-4.39c0.2-0.3,0.4-0.6,0.6-0.9c4.72-2.36,0.85-5.46-2.8-14.58
		c5.03-5.03-2.41-10.91-0.6-15.98c12-4,6.57-3.41,8.99-5.59c-0.9-1.6,0.1-3.1,0.1-4.49c-1.49-2.79-3.13-1.47-5.49-0.8
		c-0.9-1,0.9-1,0.5-1.5c-0.1-1.3-1.1-1.1-1.6-1.5c-2.09-2.09-1.05-2.13-4.09,1.3c-1.23-0.31-0.85-2.91-2.7-2.5
		c-0.2,0.1-0.3,0.1-0.4,0.1c-2.6-1.9-5.49-0.5-8.29-0.9c0.2-0.6,0.5-1.3,0.8-2.2c-4.53-0.5-6.59,2.68-10.6,1.4
		c-4.21-1.35-6.27,0-8.79,0c-1.76-3.52,0.6-1.57-4.19,0.1c-2.38,0.83-5.66-0.28-9.79,4.09c-2.65-0.99-1.97-1.46-3.8,1.1
		c-0.3-0.1-0.9-0.3-1-0.2c-1.27,1.22-3.3,1.5-4.39,3.3c2.43,1.73,2.26,1.99,1,3c-2.37,1.64-1.28,2.99-2.1,5.89
		c-2.68,9.55-0.24,14.03-0.5,19.27c-0.58,11.46,3.29,11.32,3.7,20.67c0.55,5.5,2.12,1.59,1.5,11.78c-0.4,6.5-16.05,6.27-27.86,24.67
		c-5.6,8.73-3.55,6.41-8.69,6.79c-1.62,0.12,0.7,0.02-12.28,1.9c-28.38,4.1-28.45,3.07-30.66,5.87
		c60.04-5.08,40.24-10.59,30.96,5.11c-9.95,2.21-3.72,1.07-1.3,1.4c-0.14,2.29-1.13,0.49-2.5,8.79c-1.29,7.82,8.58,3.8-85.39,19.27
		c-4.14,0.68-70.57-3.37-76.3-2.9c1.07,1.07-0.12,1.02,3.8,1.4c40.42,3.95,45.18,1.47,45.14,4.59c-0.26,19.9-2.01,31.72-2.4,43.94
		c0,0.15,0.73,34.5,0.6,34.75c-2.91,7.71,0.07,18.99-2.7,22.87c-27.69-2.37-15.9-0.95-34.55-2.1c-6.31-0.39-16.61-2.55-17.68,1.3
		C157.86,263.25,158.72,261.34,161.01,261.73z M443.14,208.6c0.2,0.3,0.59,0.5,0.6,0.8c0.36,14.91,5.25,12.61-3.1,14.08
		C440.07,219.87,441.3,209.91,443.14,208.6z M460.52,154.07c0.1,0.04,7.92,3.53,8.09,3.7c5.7,6.56,16.16-4.01-2.1,12.68
		C462.67,164.86,460.52,158.84,460.52,154.07z M452.53,189.12c0.45,1.39,0.53,1.48-0.4,1.8c-1,0.5-1,0.5-1.5-1
		C451.23,189.72,451.83,189.42,452.53,189.12z M449.63,192.62c-2.22,3.33-2.49,2.02-3.1-0.4
		C448.33,191.32,448.33,191.32,449.63,192.62z M440.84,194.81c3.12-1.56,2.16-1.79,5.39,2.1
		C439.1,199.64,440.6,197.61,440.84,194.81z M438.15,196.71c0.78,0.39,1.18,1.52,2.21,1.4
		C439.16,199.53,436.78,198.08,438.15,196.71z M436.55,199.41c-1.9,0.3-3.3,1.3-5.59,0.7C436.97,197.44,435.38,197.47,436.55,199.41
		z M390.41,49.8c-0.75-0.37-1.05-1.02-1.17-1.84C390.8,48.7,390.8,48.73,390.41,49.8z M423.07,18.14c-0.53,0-0.38-0.2,0.1-0.2
		C423.17,18.04,423.07,18.14,423.07,18.14z M441.44,11.75c-0.14,0-0.24,0.04-0.35,0.07C441.12,11.63,441.13,11.36,441.44,11.75z
		 M435.65,5.26c0.47,0.47,0.92,0.38,0,1.3c0,0.1-0.3-0.1-0.5-0.2C435.35,5.96,435.55,5.66,435.65,5.26z M433.95,15.55
		c2.57-0.7,4.94-1.88,7.02-3.55c0.2,0.92-0.37,1.56-1.03,1.95C432.1,18.56,427.81,17.21,433.95,15.55z M431.36,7.76
		c-0.1,1.7-0.1,1.7-1.8,2.2C429.25,8.06,429.33,8.34,431.36,7.76z M429.26,7.26c0.47,1.4,0.29,1.11-2.7-0.9
		C428.58,5.91,428.77,5.79,429.26,7.26z M424.76,6.96c0.1,0,0.39,0.2,0,0.4C424.1,7.03,424.1,7.29,424.76,6.96z M426.56,15.15
		c-2.8,1.3-2.8,1.3-5.29,0.4C423.37,15.55,424.56,14.45,426.56,15.15z M408.89,29.73c-0.1,0-0.41,0.02,0.04-0.13
		C408.91,29.64,408.89,29.69,408.89,29.73z M409.11,29.39c0.09-0.47,0.03-0.61,0.48-0.16C409.42,29.31,409.26,29.34,409.11,29.39z
		 M416.35,19.86c0.67-0.78,1.27-1.62,2.43-1.72C418.1,19,417.69,20.04,416.35,19.86z M419.07,4.96c-0.2,0.1-0.3,0.3-0.5,0.3
		c-0.1,0-0.3-0.2-0.6-0.3C419.02,4.44,418.43,4.64,419.07,4.96z M417.47,16.45c-0.37,0.37-0.23,0.39-0.45-0.18
		C417.18,16.34,417.29,16.36,417.47,16.45z M416.38,14.85c0.18,0.45,0.36,0.82,0.54,1.26C416.29,15.65,416.28,15.62,416.38,14.85z
		 M415.88,22.54c-1,1.3-2.3,1.9-3.3,2.8c-0.1,0.1-0.3-0.1-0.5-0.1C413.08,23.44,413.08,23.44,415.88,22.54z M412.48,15.65
		c-1.3,0.7-1.3,0.7-3.89-1.5C410.58,14.15,411.38,15.15,412.48,15.65z M405.09,25.63c0.91,0,0.4,0.55,0.3,0.6
		c-0.2,0.1-0.4-0.1-0.6-0.1C404.89,26.03,404.89,25.73,405.09,25.63z M401.1,28.23c0-1.62,1.49-0.35,0.6,0.1
		C401.49,28.33,401.3,28.23,401.1,28.23z M402.09,32.13c-0.36,0-0.3-0.13-0.3-0.4C402.12,31.73,402.32,31.9,402.09,32.13z
		 M401.2,14.55c0.2,0.3,0.5,0.8,0.9,1.3C398.69,18.45,399.42,14.55,401.2,14.55z M398.29,37.57c-0.18-0.06-0.19-0.08-0.19-0.25
		C398.16,37.38,398.23,37.48,398.29,37.57z M394.5,4.96c-1.08,0.36-0.46,0.43-0.9,0C394.05,4.74,393.95,4.41,394.5,4.96z
		 M396.3,14.55c-1.4,1.1-2.2-0.1-3.3-0.2C394.24,11.46,393.6,11.84,396.3,14.55z M393.61,34.92c-0.3-0.1-0.5-0.4-0.8-0.7
		C394.73,32.94,394.18,35.5,393.61,34.92z M391.91,27.13c-0.85,0.85,0.2,1.32-2.03-0.44C390.63,26.52,391.35,26.48,391.91,27.13z
		 M389.81,9.66c0.41,0.82,0.48,0.31-0.3,0.7C389.17,10.02,389.38,9.87,389.81,9.66z M389.01,25.34c0.8,0.18,0.81,0.67,0.73,1.2
		C389.48,26.19,388.83,25.97,389.01,25.34z M388.61,30.53c1,0.8,1,0.8,0,1.5C388.61,31.43,388.61,31.03,388.61,30.53z M387.31,14.45
		c0-0.22,0.6-0.07,0.6,0.4C387.48,16.14,386.49,16.09,387.31,14.45z M387.41,37.82c-0.12,0-0.3,0.25-0.3-0.2
		C387.21,37.72,387.31,37.72,387.41,37.82z M387.11,43.01c0.6,1.2,0.58,0.96-0.1,1.3C386.51,42.81,386.41,43.36,387.11,43.01z
		 M384.12,16.05c0.32,0,0.23-0.02-0.07,0.07C384.07,16.1,384.09,16.08,384.12,16.05z M383.72,16.45c0-0.1,0.25-0.27,0,0.2
		C383.72,16.55,383.72,16.45,383.72,16.45z M381.22,33.22c-0.2-0.8-0.3-1.6,1-1.2C382.02,32.63,382.02,33.22,381.22,33.22z
		 M383.32,27.43c0.2-0.1,0.6,0,0.9,0C383.4,30.7,381.92,28.27,383.32,27.43z M383.32,40.52c0-0.56,0.6-0.08,0.6,0.1
		C383.92,41.65,383.32,42.33,383.32,40.52z M270.57,245.65c-3.23,1.68-5.27-2.76-1.2-4.79
		C271.37,242.57,273.27,244.25,270.57,245.65z M293.93,241.25c-22.99,5.2-17.47,4.29-20.77,4.29c5.83-8.94-28.2,0.32,65.32-20.67
		c2.31-0.52,4.37-0.51,4.79,1.7C344.13,231.08,339.54,230.95,293.93,241.25z M344.77,224.98c-1.05-2.92-4.5-2.13-7.29-1.9
		c0.94-2.52,4.32-3.44,6.19-2.9c9.08,2.66,6.03,11.97,2,13.18C338.91,230.02,347.46,232.44,344.77,224.98z M350.76,245.55
		c0.24,1.17,0.77,5.12-1.1,5.89c-2.98,1.23-4.96-11.43-8.19-18.18c-0.29-0.78,0.09-1.18,1.41-1.48
		C344.23,236.25,349.12,237.58,350.76,245.55z M340.07,232.86c-5.61,13.5-0.18,22.77-5.49,19.97c-2.82-1.48-4.79-3.02-3.89-6.09
		c1.4-4.79,3.6-9.09,6.39-13.08C337.78,232.67,338.68,232.37,340.07,232.86z M343.27,276.11c-22.44-1.16-37.01-25.67-38.95-35.35
		c6.6-3.6,2.6,11.07,24.07,26.17c7.87,5.53,13.34,6.64,21.87,4.39c0.3-0.1,0.5-0.5,0.7-0.7c-18.85,4.71-34.95-14.67-40.95-29.46
		c-1.14-2.28-1.84-1.31,17.38-5.89c12.06-2.88,7.36-3.51,0.4,11.68c1,4.99,4.39,8.05,9.49,8.39c3.93,0.26,1.92-2.64,3.1-17.98
		c0-0.6,0.1-1.2,1-1.2c0.25,7.87,3.16,10.59,2.7,13.88c-0.59,4.14,12.71,8.58,9.99-3.8c-0.87-3.97-2.36-6.85-5.59-10.09
		c-2.31-2.77-2.46-0.38,0.7-3.5c9.8-9.68-7.81-20.69-12.98-10.79c-0.85,1.62-0.61,2.03-2.8,2.4c-29.56,6.65-23.39,5.35-26.17,5.69
		c-5.41-20.56,8.6-49.29,25.27-46.84c1.22,0.18,4.05-0.05,5.09-1c-2.45-0.54-9.77-1.08-14.38,1.6
		c-24.48,14.19-17.26,45.11-18.28,47.14c-2.81,0.7-4.19,2.31-4.19-12.98c0-36.07,35.21-54.54,61.02-24.47
		C390.01,226.34,375.29,277.77,343.27,276.11z M360.55,274.71c-8.52,2.2-5.5,0.92-2.8-0.5c29.16-15.28,25.65-65.74-1-87.69
		c-9.21-7.58-15.72-8.19-22.37-10.09C386.85,166.32,411.37,261.56,360.55,274.71z M385.42,208.3c3.72-0.25,5.2-0.66,5.39,1.3
		C385.76,212.12,385.82,209.52,385.42,208.3z M387.01,213.29c26.15-7.99,22.92-8.62,25.37-0.8
		C385.04,220.01,389.4,221.64,387.01,213.29z M426.86,194.02c1.81,1.61,3.65,2.64,2,4.29c-1.94,0-1.73-0.07-2,0.2
		c-1.73,4.43,1.1,3.93,1.3,5.59c0.35,1.94,1.19,4.2,0.5,4.89c-1.04,0.91-1-0.7-2.3-0.7c-0.6,2,0.3,4.19-1.4,6.19
		c-1.59-5.28-0.19-9.18-1.6-10.59c-1.93,4.71,3.22,12.48-3.7,12.87c0.19-1.35,1.87-8.41-1.5-11.77c-0.98,8.84,3.91,6.96-4.09,13.18
		c-2.56-0.64-3.02-0.25-3.3-2.2c-7.35,1.34-0.8,2.27-3.5,4.19c-1.16-0.33-15.84-1.35-8.39-2.6c1.8-0.5,3.7-0.88,5.59-1.4
		c6.47-1.78,7-2.8,7.69-1.6c1.76-0.32,1.25-1.58,0-7.19c-0.2-0.9,0.4-1.9-0.7-2.6c-1.1-0.7,0.4-1.9-0.4-2.7c-0.3-0.3-0.6-0.7-0.8-1
		c-2,0.9,0,2.3-0.8,3.3c-1.72,0.86,3.91-0.7-14.08,3.3c-2.73,0.61-2.44-0.13-3.3-0.7c0.57-1.42,0.74-1.36-0.6-3.3
		c-0.49-0.71-0.3-1.7-1.5-2.1c-0.1,0.5-0.4,0.9-0.4,1.3c0.48,4.49,1.42,1.86-2.2,2.2c-5.4,0.51-2.51,0.36-8.79-9.39
		c-3.14-4.88-7.45-8.89-5.99-8.89C392.81,193.28,426.75,194.01,426.86,194.02z M346.87,104.93c-0.35,0.09-0.68,0.11-0.96,0.17
		C346.04,104.64,346.32,104.57,346.87,104.93z M333.88,126.3c0.03-3.23,0.65-4.59,3.2-9.19c6.08-10.97,12.83-10,16.98-14.38
		c8.81-9.31,7.19-12.94,13.28-15.48c2.64,2.15,11.36,9.73,13.48,12.38c-2.74,0.91-2.2,0.71-2.2,1.2c3.61,0,3.43-2.39,17.58,16.98
		c4.55,6.23,2.22,20.24,0.1,23.27c-2.65-0.53-3.27-0.75-3.7,0.1c0,1.16,1.05,1.08,2.9,1.9c-4.19,9.77-21.17,17.53-24.77,17.98
		c-4.61,0-3.76-0.07-4.59,1.42c-1.9-3.36-2.07-1.44,0.8-5.81c4.69-7.16,4.36-10.1,5.39-19.08c0.6-5.2,3.37,0.14,9.89,1.8
		c2.79,0.71,7.29,1.1,8.99,0.6c-3.47-1.39-3.67-0.79-18.68-10.29c-1.89-1.19,2.34-6.2-8.19,3.89c2.3,0.1,3.7-1.6,5.69-2.2
		c2.45,2.45,2.39,1.44-0.9,5.09c1.21,1.61,2.2,2.02,1.1,5.79c-5.35,18.33-16.2,21.85-18.68,25.97c-0.3,0.7-1.2,1.1-1.9,1.6
		c-12.63-8.84,1.26,5.05,4.99,5.79c-0.9-1.3-1.8-2.7-2.8-4.09c7.56-1.84,6.14-6.27,10.89-9.19c2.32,2.32,6.49,8.97,14.58,13.88
		c8.87,6.34,0.03-0.37,11.39,10.99c0.4,0.4,0.6,1,1,1.6c-1.84,0-18.55-3.42-21.97-5.49c-4.34-2.63-8.49-5.69-13.18-7.69
		c-0.5,0.7-1.1,0.81-1.9,0.6c-7.47-2.03-18.73-1.07-23.77,0.8c-6.98,2.59-5.38,1.67-5.69-2.1c-0.2-2.4,0.44-4.77-0.6-7.19
		c-0.55-1.28,4.34-19.67,8.09-23.67C333.57,140.38,333.84,130.45,333.88,126.3z"/>
	<path d="M419.77,83.86l0.1-0.1C419.82,83.71,419.82,83.76,419.77,83.86z"/>
	<path d="M492.28,201.41l0.1-0.1C492.21,201.4,492.21,201.37,492.28,201.41z"/>
	<path d="M492.28,202.11l0.1,0.1C492.38,202.2,492.41,202.24,492.28,202.11z"/>
	<path d="M421.47,69.08l-0.1,0.1C421.43,69.18,421.36,69.23,421.47,69.08z"/>
	<path d="M519.64,219.18l-0.1-0.1C519.56,219.11,519.6,219.18,519.64,219.18z"/>
	<path d="M426.76,202.5l0.1,0.1C426.86,202.56,426.8,202.53,426.76,202.5z"/>
	<path d="M494.07,150.07l-0.08-0.33C494.13,149.48,493.68,149.98,494.07,150.07z"/>
	<path d="M490.18,198.81l0.1-0.1C490.2,198.63,490.26,198.61,490.18,198.81z"/>
	<path d="M435.95,219.88l-0.1-0.1C435.81,220.3,435.72,220.35,435.95,219.88z"/>
	<path d="M449.83,221.38l-0.1-0.1C449.61,221.41,449.48,221.38,449.83,221.38z"/>
	<path d="M520.24,179.13c0.07-0.26,0.17-0.24-0.1-0.1L520.24,179.13z"/>
	<path d="M519.74,218.78c0.04-0.3,0.06-0.2-0.1-0.1L519.74,218.78z"/>
	<path d="M568.5,125.95C568.46,125.96,568.48,125.96,568.5,125.95L568.5,125.95z"/>
	<path d="M738.26,261.13c-0.52-1.56-2.56-5.59-4.29-5.59c-4.86,0.5-6.97-1.58-13.68-2.2c-3.54-0.32-8.12-5.16-9.29-6.69
		c-3.55-4.65-8.72-7.37-13.08-9.99c-5.35-11.46-3.92-9.84-9.69-12.98c-1.5,0.6-3.6-0.2-5.19,1.6c1.03,7.24-4.29-0.06-19.27-15.48
		c-6.62-6.81-31.09-42.35-31.16-42.44c-2.48-3.33-2.43-2.58,0.4-3.99c0.96-2.41,2.31-4.98-0.5-6.79c-3.2-1.71-2.9-1.08-8.89,0.3
		c-1.4-0.6-2.21-1.69-3.1-2.7c-4.64-5.25-9.65-10.02-14.88-14.68c-3.4-3.04-3.56-5.06-5.59-6.69c-4.61-3.3-5.08-7.69-9.99-9.39
		c-1.43-0.5-3.67-2.82-5.09-4.09c-11.92,2.88-10.02,3.46-13.48,3.1c-8.51-0.89-15.19,4.63-23.57,9.79
		c-11.47-5.73-13.29-3.59-18.78-1.5c-0.3,0-0.4,0.5-0.7,1c6.11,0,4.74-1.83,8.69-0.8c9.98,2.61,4.69-1.31,9.49,3.89
		c4.98,5.41,6.04,5.47,6.39,7.29c0.37,1.93,3.28,4.39,5.69,6.99c-0.41,10.25,13.78,17.56,27.66,44.44
		c1.31,2.54,13.75,24.18,14.65,21.47c0.14,0,4.94,5.25,5.92,6.39c24.11,27.97,28.5,19.89,24.17,25.67
		c-3.55,5.32-3.25,3.12-7.39,6.89c-2.88,2.63-6.57,3.4-10.49,3.8c1.45-4.82-3.58-5.36,1-5.89c4.63-0.54,15.08-3.12,14.48-8.19
		c-6.29,3.02-6.98,4.31-15.28,5.79c-5.24-5.68-6.38-6.62-6.58-6.71c0.09-1.75,0.01-1.8-1.71-2.48c0.28,1.32,0.32,1.41,1.57,2.41
		c-0.18,2.95,1.83,4.77,3.92,6.88c-3.89,1.3-23.52-21.05-27.06-21.47c-0.27-0.05-25.8-19.11-26.47-19.37
		c-7.52-2.96-19.24-5.35-23.67-20.47c-5.76-19.67-1.5-14.35-1.5-25.37c-1.14,0-1.27,0.55-1.8,3.2c-4.47,2.05-8.19,8.59-9.81,12.88
		c2.11-1.11,3.5-2.68,7.31-6.49c0.91,1.13,0.36,1.85,0.8,5.39c3.42,17.09,4.97,12.02,2.6,15.98c-4.92,8.23-10.09,14.58-11.26,24.77
		c2.56-1.91,2.39-4.04,13.35-23.77c2.53-0.23,5.38,9.63,8.29,13.88c10.33,15.11,10.41,9.99,13.78,11.98c1.7-2.2,2-4.79,2.7-7.49
		c4.34,2.41,24.96,16.1,43.04,32.46c1.3,0.98,1.43,1.07,0.3,2.2c-3.91,3.22-0.16,4.9-2.7,11.98c-1.49,4.17-1.64,9.74-5.29,18.28
		c0.7,0.8,1.31,1.01,1.7,0.3c4.01-7.35,1.59-5.17,2.8-9.39c3.29-9.13,5.17-11.08,4.09-16.78c-0.71-3.75,3.07-5.66,4.69-1.6
		c1.86,4.66,3.4,4.99,3.8,6.99c0.57,4,10.29,0.63,12.38-0.9c3.9-2.85,7.26-5.03,7.59-5.69c1.1-2.8,3.71-4.79,4.59-7.79
		c0.2-0.7,0.79-1.21,1.2-1.8c1.44-2.06,3.24-1.6,5.89-1.6c1.6,2.1,3.8,6.89,5.09,11.49c-2.23,1.06-10.97,4.68-12.28,5.99
		c0,3.87,7.7-0.21,9.69-1.5c1.7-1.1,3.7-0.7,5.49-1.3c0.1-0.1,0.5,0.1,0.6,0.3c0.96,1.91-7.1,3.46-6.29,5.89
		c0.43,1.28,2.95,0.41,4.19-0.1c7.9-3.24,3.87-3.51,8.49-1.2c-0.73,1.09-0.65,0.42-3.99,2.6c-3.05,1.99-1.5,3.7-0.5,3.7
		c1.79,0,2.74-0.52,8.89-3.6c4.74,3.02,2.9,3.08,1.6,3.7c-1.47,0.69-4.07,1.34-3.4,2.7c0.96,1.92,4.33,1.03,5.99-0.5
		c4.09-3.27,14.66,7.23,19.77,3.4c0.5,0.5,1.1,0.9,1.3,1.4c6.22,12.85,1.33,9.06,6.79,14.18c1.26-3.37-2.18-9.25-4.89-14.68
		c-0.5-1-1.4-1.5-2.4-1.5c-2.61,0-2.71-1.77-4.09-2.1c-17.58-4.12-3.96,0.74-20.37-9.39c-12.85-7.93-10.44-7.01-8.79-10.59
		c2.28-4.94-1.14-6.17,1.6-14.38c1.51-0.5,0.61-0.32,4.09,0c1.4,1.8,3.3,3.09,4.49,5.19c0.9,1.59,3.09,1.91,4.79,2.5
		c3.08,1.06,8.46-2.58,10.99-6.59c5.35-8.51,5.04-2.5,6.09-9.69c3.4-0.49,5.59,1.22,6.39,3.3c2.85,7.41,5.07,3.7-4.69,8.59
		c-3.28,1.64-3.17,3.32-3.5,4.29c10.91-1.47,8.36-7.77,15.48-1.6c-3,1.8-6.69,2.4-7.89,6.49c2.33,0.33,9.98-3.43,11.39-4.19
		c1.2,0.4,2,1.1,2.6,2c-4.49,2.8-4.49,2.8-4.69,5.09c3.2,0.8,5.59-0.9,8.09-2.8c0.9,0.7,1.8,1.5,2.9,2.5
		c-6.17,2.8-4.44,4.89-2.7,4.89c2.08-0.35,2.53-1.4,3.99-2.7c3.08,2.82,5.49,5.07,7.69,4.79c1.18,0,5.79,1.56,13.08,1.9
		c1.7,3.7,3.5,7.29,5.29,11.09c-1.4,0.6-2.6,1.28-3.89,1.6c-17.29,4.2-17.81,4.77-19.87,3.4c-2.11-1.58,2.9,1.25-22.17-1.7
		c-0.5,0-0.9,0-1.8,0c2.65,3.71,5.61,3.45,15.38,4.19c7.01,0.53,14.64,2.63,25.77-2.3c8.67-3.84,8.18-1.65,9.29-3.5
		C743.11,268.54,741.21,269.93,738.26,261.13z M546.21,212.19c-4.26-5.48-3.82-4.63-4.69-6.59
		C549.98,210,549.81,208.59,546.21,212.19z M555.59,212.99c-0.2,2-0.7,3.99-1.1,5.89c-3.7-0.1-5.39-2.3-6.59-4.99
		c1.4-1,2.71-1.98,4.09-3C553.54,209.77,555.76,211.32,555.59,212.99z M629,157.56c2.21-0.39,3.75,1.34,3.5,2.6
		c-0.18,1.81-2.44,3.63-3.99,2.3c-1.1-1.1-2.2-2.3-3.6-3.8C626.7,158.16,627.8,157.77,629,157.56z M576.27,172.84
		c2.8-0.5,2.8-0.5,4.69,2.7C579.88,178.42,580.27,179.71,576.27,172.84z M582.36,182.03c-1.22-2.45,0.87-2.1-1.6-2.6
		c1.04-2.78,0.73-2,1.2-2c0,3.02,0.16,2.32,1.6,1.6c5.3,8.48,2.41,12.89,19.57,21.47C597.91,207.82,599.64,211.13,582.36,182.03z
		 M599.44,208c-0.24-0.96-0.44-0.83,5.29-6.89c1.5,0.1,2.8,0.1,3.89,1C607.01,204.52,600.28,210.54,599.44,208z M652.57,234.46
		c-1.22,3.84-2.25,6.87-1,9.89c0.82,1.23-0.92,4.72-2.5,6.09c-3.77-4.02-1.21-8.14-6.39-12.38c-8.51,0.45-5.65,0.75-9.49,4.29
		c-9.58-5.64-26.32-23.59-31.86-31.96c10.06-8.11,7.29-7.68,16.48-6.29c4.83,0.73,33.83,25.31,34.95,26.27
		C655.95,233.08,653.52,231.45,652.57,234.46z M678.73,231.67c-3.36,6.88-3.16,6.42-7.99,8.19c-4.85,1.78-4.15-1.51-10.79-5.79
		c-2.78-1.79-2.78-4.16-8.89-8.39c-14.03-9.71-27.73-24.8-33.66-23.77c-5.33,0.93-18.56-6.79-22.87-10.09
		c-7.8-5.97-10.79-25-20.47-21.77c-4.41-5.77-5.3-3.63,2.5-7.94c-2.71-0.78-5.05,0.48-7.39,2.05c-7.33-9.33-3.27-2.38-8.69-13.78
		c-0.93-1.97-9.16-14.02-10.89-16.18c5.92-3.7,13.58-9.55,18.78-8.29c0.18,0,0.15,0.03,0.13,0.04c0.17-0.06,1.46-0.45,8.76-2.14
		c8.81-2.04,6.78-2.22,10.79,1.6c4.33,4.13,2.52,0.1,6.09,4.99c2.47,3.38,4.86,3.81,6.19,6.69c0.88,1.9,1.26,2,13.08,12.78
		c-1.01,1.59,0.01,2.78,3.89,5.99c14.03,11.6,12.06,15.32,45.44,57.53C674.35,228.05,680.93,227.17,678.73,231.67z"/>
	<path d="M576.77,162.16l-0.1-0.1C576.51,162.16,576.53,162.06,576.77,162.16z"/>
	<path d="M500.07,525.48c0.11-3.23-2.03-10.78-3.1-13.48c-1.11-2.8-1.57-0.71-7.29-1.3c-29.64-3.05-44.89-6.33-47.74-4.19
		c0.16,1.58,39.65,6.08,39.75,6.09c4.38,0.43,3.64,0.12,3.99,1.9c-1.38,0.69,0.82-0.23-13.88-0.4c-2.48-0.03-3.12-1.08-7.49-1.4
		c-22.33-1.63-16.15-2.3-19.57-2.3c-19.54,0,11.97,1.92,21.37,4.09c5.99,1.38,6.05,0.74,16.58,1.8c0.5,3.7,0.8,7.29,2.2,10.99
		c-7.07,0,19.61,2.69-65.51-7.99c-4.79-0.6,2.11,1.13-50.33-4.69c1.9-5.89,3.4-9.59,4.79-11.29c3.54,0.53,6.7,0.72,7.09,1.1
		c3.31,3.22,23.56,0.06,36.95,2.8c3.56-4.75,3.15-1.97-20.27-3.89c-23.92-1.96-23.02-3.66-27.26-2.6
		c-1.27,5.91-6.87,16.53-4.29,16.48c3.21-0.07,89.7,8.42,107.76,11.29C495.94,531.99,509.06,528.86,500.07,525.48z M493.67,512.9
		c0,0.26,0.05,0.23-0.2,0.1L493.67,512.9z M486.08,527.78c0.6-3.8-0.7-7.19-0.9-10.79c4.29-4.29-1.48,0.16,9.09-2.8
		c1.4,3.99,1.5,8.19,3.8,12.08C490.2,528.25,486.22,527.78,486.08,527.78z"/>
	<path d="M290.94,277.41c21.53-4.08,20.02-1.68,13.58-22.07c-6.68,0.14-22.57,1.23-50.33-2.5c-9.72-1.3-7.77-1.15-7.49-3.7
		c1.13-10.19-1.29-13.21-0.8-20.47c2.65-39.32,2.31-63.92,2.5-67.71c0.53-3.69-1.77-1.14,51.23-11.98
		c18.64-3.81,0.95-1.52,26.47-5.09c2.64-0.37,2.2,0.65,2.2-1.8c-9.6-0.96-47.46,10-70.01,12.88c-12.45,1.59-12.18,3.84-12.18,16.08
		c0,17.44-3.51,61.58-1.3,69.61c1.46,5.29-0.71,5.83-0.4,10.49c-1.2,0-2.3,0-3.4,0c0.3,1.7,2.1,0.9,2.7,1.9
		c-1.9,0.8-3.89-0.7-5.79,0c-0.83,3.72,27.82,3.76,49.14,5.79c3.56,0.34,2.88-1.3,4.69-1.3c3.4,0,6.79-0.9,10.19,0.1
		c2.2,4.09,3.99,9.69,4.09,13.28c-1.4,1.18-10.98,2.95-13.68,3.6c-0.77-3.46-0.39,2.18-1.5-10.59c-0.29-3.39-2.2-4.21-2.2-2
		c0,10.6,1.75,10.83,0.2,15.28C289.54,277.21,290.34,277.52,290.94,277.41z M248.49,253.64c-1.42,0-2.07,0.47-2.2-0.4
		C248.84,253.24,248.49,253.32,248.49,253.64z M252.19,254.24c-1.84,0-1.6,0.07-1.6-0.2C252.43,254.04,252.19,253.97,252.19,254.24z
		"/>
	<path d="M297.13,559.94c-11.21,0.22-7,1.19-12.38,0.4c-3.97-0.58-39.55-1.21-39.55-5.19c0.7-5.29,0.28-10.47-0.5-15.68
		c-0.01-0.1,2.65-75.45,2.7-76c-3.23-3.23-4.63,78.42-3.8,80.79c1.52,4.28-0.65,11.55-0.7,11.68c-1.1,0.7-2.3-0.8-3.5,0.6
		c1.33,0.53,2.41,0.93,3.28,1.21c-1.55-0.19-3.68-0.26-6.17,0.08c0.16,0.31,0.13,1.54,3.2,1.9c12.54,1.46,47.85,4.38,48.74,3.5
		c1.73-1.39,2.98-1.1,12.08-1.1c1.8,2.9,3.89,9.39,4.49,13.28c-0.96,1.44-12.99,3.74-14.08,3.5c-0.9-5.4-0.62-4.09-1.2-10.39
		c-0.22-2.42-2.25-4.46-2.2-1.6c0.26,13.97,1.47,11,0.1,14.78c0.7,2.09,2.2,0.2,19.27-3.6c1.29-5.18-0.41-7.82-2.2-13.18
		C303.17,559.11,304.59,559.8,297.13,559.94z M247.6,558.64c0-0.46,0.13-0.53,2.1-0.2C249.69,559.03,248.23,558.85,247.6,558.64z"/>
	<path d="M173.39,427.61c-3.42-0.08-3.81,1.18-5.59,10.09c-0.3,1.5-1.01,5.82-0.6,7.89c2.17,0.33,1.85-1.55,3.5-9.99
		c1.37-7.05,0.68-7.16,14.28-4.89c-2.38,10.71-0.18,3.99,1.3,0.2c10.6-0.59,16.48-1.6,5.59-1.6c-33.3,0,63.24-5.77,107.76-13.38
		C301.14,413.65,173.49,427.61,173.39,427.61z"/>
	<path d="M168.8,140.78c2.23,1.11,2.26-11.63,4.69-15.68c6.24-1.53,13.36,1.27,13.08,1c21.2-1.55,11.38-0.77,1.4-2.1
		c4.54-2.02,64.69-6.18,69.31-6.69c55.71-6.21,68.61-9.71-40.05,0.5c-35.14,3.3-39.92,5.82-42.44,5.19
		c-2.29-0.31-3.86,0.33-4.49,3.5C169.77,128.43,166.98,139.88,168.8,140.78z"/>
	<path d="M672.74,590.9c-11.83,7.4-5.66,6.19-40.85,6.19c-5.52,0-11.73-2.7-17.18-4.89c-6.14-2.47-12.37-0.84-15.18-0.5
		c-1.46,0.18-1.34,0.88-14.78-3.7c-3.33-1.13-1.45-1.07-4.49-2.9c-3.85-1.75-3.67-1.51-2.6-3.4c3.14-5.5,1.65-7.19,2.9-9.69
		c2.18-3.49,1.25-5.71,2.4-13.58c0.35-2.4,2.46-8.59,4.89-8.29c0.4,0,0.9-0.1,1.5-0.2c-0.2-1.7-1.5-1.9-2.7-2.5
		c-3.77,3.77-5.99,10.29-5.89,10.69c1.12,4.42-2.84,13.83-2.7,16.68c0.18,3.5-3.81,6.24-4.29,9.49c6.18,6.18,14.68,8.7,23.37,9.59
		c3.18,0.33,5.82-1.2,10.49-1.2c5.42,0,5.32,3.82,19.67,6.49c1.76,0.33,7.04,1.1,8.79,0.7c10.49-2.41,25.48,4.3,37.95-7.59
		c0.31-0.29,0.3-0.3,0-1.8C673.64,590.6,673.14,590.7,672.74,590.9z"/>
	<path d="M629.8,290.69c4.1,2.86,35.01,7.56,55.43,1.9c8.75-2.43,8.36-7.96,4.19-4.69c-8.85,6.93-46.7,6.76-56.83,1.7
		c-1.94-1.11-4.16-3.36-8.39-3.1c-11.03,0.7-22.14-3.57-27.16-7.59c-1.48,0.85,0.02,2.68,1.4,3.7
		C609.78,290.98,624.98,287.33,629.8,290.69z"/>
	<path d="M499.87,147.28c18.08-12.28,21.65-8.58,27.46-14.88c-13.7,0.7-31.16,15.72-31.26,15.78
		C497.47,148.47,498.68,148.09,499.87,147.28z"/>
	<path d="M333.48,426.11l-0.1-0.1C333.34,426.23,333.36,426.15,333.48,426.11z"/>
	<path d="M276.96,426.91c-4.3,0-3.03,1.63-2.8,1.4c2.81-0.84,13.91-0.65,15.68-0.6c11.61,0.32,9.25-1.49,17.78-1.4
		c24.44,0.25,25.3,2.56,25.75-0.15c-2.35,0.92-5.39-4.54-14.56-4.54c0.32,1.26,3.26,0.66,9.99,3.89c7.81,2.6-20.93-1.97-26.37-0.1
		C296.51,427.44,291.2,426.91,276.96,426.91z"/>
	<path d="M235.71,510.9c-0.59,2.94,1.43,4.87-0.1,19.27c-1.27,11.93-2.76,18.02-0.8,24.57c1.77-3.98-1.15-2.07,2-23.87
		C237.43,526.61,237.91,513.65,235.71,510.9z"/>
	<path d="M236.41,249.34c0-16.06,1.2-18.56,2.1-31.16c0.48-6.78-2.65-14.98-1.7-9.49C239.19,222.45,231.82,248.93,236.41,249.34z"/>
	<path d="M430.76,188.52c0.3-0.3,0.8-0.7,0.8-1c0-1,0.1-2.1-0.4-2.8c-5.06-8.68,0.3-20.61-4.89-25.07c0,4.42,1.64,5.59,0.9,14.58
		c-0.59,7.19,3.63,10.03,2.9,14.08C430.26,188.32,430.56,188.42,430.76,188.52z"/>
	<path d="M407.79,97.54c4.88,0.42,6.5,3.54,12.28,2.1c-3.86-2.46-16.68-6.69-19.87-3.5C400.08,97.08,400.45,96.9,407.79,97.54z"/>
	<path d="M243.3,431.71c-0.2,0-0.3,0.3-0.5,0.5c0.28,1.99,22.46-2.16,24.77-2.7C267.02,428.96,270.66,429,243.3,431.71z"/>
	<path d="M247.8,126.5c-4.26,0.39-3.85,1.06-4.49,1.7C254.62,127.94,290.08,122.63,247.8,126.5z"/>
	<path d="M456.02,214.29c0.31,4.2,3.19,27.56,4.89,27.56c-2.92-17.91-3.7-23.43-3.7-29.56
		C455.92,212.79,456.02,213.59,456.02,214.29z"/>
	<path d="M240.11,454.78c-2.1,1.72-0.4,7.15-0.4,29.76c1.12,0.56-0.96-5.03,1.1-26.96C240.89,456.67,241.1,455.67,240.11,454.78z"/>
	<path d="M431.76,29.73c-2-1.2-10.33-2.42-13.28,2.6c1.2-0.2,2.1,0,2.7-0.4C425.78,28.81,432.1,34.15,431.76,29.73z"/>
	<path d="M448.03,146.18c-2.53,0,0.74,2.23,4.49,12.98C455.08,154.69,449.32,146.18,448.03,146.18z"/>
	<path d="M661.66,442.79c0.68,3.78,1.3,7.49,2,11.78C666.32,437.8,660.73,437.59,661.66,442.79z"/>
	<path d="M538.72,166.75c3.2,3.89,6.79,6.69,10.99,9.99c-1.81-3.98-4.49-6.99-8.19-9.89C540.73,166.23,540.71,166.25,538.72,166.75z
		"/>
	<path d="M645.58,534.17c0.96-3.58,1.8-7.09,2.6-10.59c-2.5,2.3-3.82,5.29-4.49,8.49C642.84,536.1,645.13,535.83,645.58,534.17z"/>
	<path d="M216.24,430.81c-2.1-0.4-4.39-0.5-6.69,0.1c6.31,0.23,16.95,3.28,18.98,0.5C226.24,430.95,222.8,432.07,216.24,430.81z"/>
	<path d="M240.5,160.86c-0.33,3.28-0.05,56.09,0.6-0.8C240.9,160.36,240.5,160.56,240.5,160.86z"/>
	<path d="M402.09,53.1c-1.83-0.37-1.02-0.69-0.7,3.8c0.9,0.9,1.7,1.8,2.5,2.7c0.72,5.27,6.33,12.27,1.3,2.2c0.5-0.4,0.9-0.8,1.4-1.3
		C403.79,58.79,403.09,55.8,402.09,53.1z"/>
	<path d="M407.39,66.98c-0.16-0.13-0.14-0.25-0.1,0.1L407.39,66.98z"/>
	<path d="M675.84,400.95c-1.72,2.58-0.68,2.98-4.29,6.59C681.26,404.17,678.01,396.6,675.84,400.95z"/>
	<path d="M431.16,220.28c-0.6-0.3-1.3-0.7-2-1c-0.58,1.15,1.16,3.72,2,4.69c0.63-2.75,4.32-10.33,5.69-10.49
		c-0.1-0.3-0.2-0.7-0.4-1.3C433.85,214.49,433.15,217.58,431.16,220.28z"/>
	<path d="M227.72,127.7c0.7,0.1,1.3-0.1,2.1-1.2c-5.94,0.57-3.42,0.7-20.37-1C213.4,127.02,223.26,127.56,227.72,127.7z"/>
	<path d="M402.19,161.86c-3.37-0.42-5.85-4.19-10.49-4.19c3.3,4.09,7.59,3.7,11.19,5.19C403.09,162.06,402.49,161.86,402.19,161.86z
		"/>
	<path d="M423.47,36.12c5.68,0.36,4.65,0.61,5.99-0.4c0.23-1.87,0.42-2.6-0.7-2.6C424.35,33.79,422.41,36.12,423.47,36.12z"/>
	<path d="M424.56,249.24c0.96-1.6,2.58-11.34,2.9-13.18C425.49,238.8,423.4,246.42,424.56,249.24z"/>
	<path d="M416.28,237.96c-1.43,4.29,6.59-7.29,6.59-7.49C420.77,230.47,417.48,234.33,416.28,237.96z"/>
	<path d="M537.62,147.48c-3.62-2.29-4.44,0.42-0.8,2.5C543.82,154.87,539.45,148.63,537.62,147.48z"/>
	<path d="M239.91,154.57c-0.24,2.37,1.8,12.92,1.8-3.99C240.07,149.76,240.43,151.41,239.91,154.57z"/>
	<path d="M650.17,572.72c0,0-0.01-0.02-0.02-0.03C650.15,572.71,650.17,572.75,650.17,572.72z"/>
	<path d="M644.58,576.52c0.46,1.39,4.65,0.31,5.69-3c0.4-1.27-0.95-0.48-5.29,1.8C644.68,575.52,644.38,576.22,644.58,576.52z"/>
	<path d="M650.07,572.42c0,0.16,0.05,0.23,0.08,0.27C650.12,572.6,650.09,572.51,650.07,572.42z"/>
	<path d="M311.04,118.14c-4.45,0.5-9.67,0.97-14.11,1.57C286.92,121.05,308.56,119.92,311.04,118.14z"/>
	<path d="M311.21,118.01c-0.06,0.04-0.12,0.09-0.17,0.13C311.38,118.11,311.35,118.15,311.21,118.01z"/>
	<path d="M675.24,414.73c-1.46,1.46-0.07-0.71-1.4,5.19c-0.27,1.21,0.3,2.5,1.8,3.7c0.1-1.5,0.49-2.69,0.1-3.5
		C674.13,416.82,676.85,415.27,675.24,414.73z"/>
	<path d="M428.06,90.95c-1.8-1.5-3.7-2.7-5.88-3.5C422.27,91.46,429.38,92.26,428.06,90.95z"/>
	<path d="M422.18,87.45C422.18,87.35,422.16,87.29,422.18,87.45L422.18,87.45z"/>
	<path d="M433.95,495.12c0.2,2.6,0.4,5.09,0.7,8.09c0.5-0.7,1-1,1-1.3C435.65,500.4,435.41,495.61,433.95,495.12z"/>
	<path d="M392.71,166.45c5.17,4.9,11.36,6.14,0.2-1.3C392.81,165.75,392.61,166.25,392.71,166.45z"/>
	<path d="M662.16,466.26c0.77-0.77,1.13-0.05,1.5-4.79c0.1-0.5-0.2-0.9-0.5-1.4C661.76,461.87,661.76,461.87,662.16,466.26z"/>
	<path d="M428.76,95.74c-5.94-0.66-4.42-0.95-5.69,1.6C425.06,97.54,426.86,97.54,428.76,95.74z"/>
	<path d="M453.93,161.46c-0.1-0.1-0.6,0.2-1,0.3c1,2.1,2.3,3.8,3.99,5.09C456.72,164.55,455.52,162.86,453.93,161.46z"/>
	<path d="M468.81,211.09c0.61-9.19-0.08-5.89-0.3-8.99C468.51,212.08,468.38,211.09,468.81,211.09z"/>
	<path d="M557.69,152.87c-1.1-0.3-1.4,0.2-1.4,0.8c0,0.7-0.1,1.5,0.1,2.2C558.02,165.6,558.13,155.3,557.69,152.87z"/>
	<path d="M440.04,250.74c0.2-2,0.4-3.99-0.7-6.29C438.85,246.95,439.85,248.84,440.04,250.74z"/>
	<path d="M428.96,159.16c2.1-2.4,2.1-2.4,2.4-4.69C428.96,156.56,428.46,157.36,428.96,159.16z"/>
	<path d="M232.71,127.7c5.28,1.51,3.64,1.54,4.99,1C236.11,127.5,234.61,126.8,232.71,127.7z"/>
	<path d="M440.94,126.5c-1.76,0-1,1.79-0.5,4.79C441.65,130.69,441.65,127.92,440.94,126.5z"/>
	<path d="M239.11,488.63c0,6.99-0.08,6.29,0.2,6.29C239.31,487.94,239.39,488.63,239.11,488.63z"/>
	<path d="M179.98,132c0.75-4.9,0.92-3.46,0.4-4.49C179.48,128.6,179.48,128.6,179.98,132z"/>
	<path d="M307.02,122.61c1.6,2.1,2.7,2.8,5.09,3.7C310.51,124.21,309.22,123.31,307.02,122.61z"/>
	<path d="M236.41,433.2c-1.5-1.2-3-1.7-4.99-1.6C233.51,433.1,233.91,433.3,236.41,433.2z"/>
	<path d="M319.3,417.72c3.1,0.6,3.8,0.6,5.79,0.1C322.9,417.03,322.9,417.03,319.3,417.72z"/>
	<path d="M425.46,226.57c1.2-1.3,2-2.5,2.2-3.99C426.06,223.88,426.06,223.88,425.46,226.57z"/>
	<path d="M550.7,178.54c0.3,1.4,1.1,2.3,2.3,3.1C552.5,179.04,552.5,179.04,550.7,178.54z"/>
	<path d="M185.58,131.6c0.6-2.4,1.6-3.7,1.2-5.29C185.28,127.5,185.28,129,185.58,131.6z"/>
	<path d="M500.67,193.82c0.7-1.2,1.5-1.8,1.7-3C501.98,189.66,500.51,190.37,500.67,193.82z"/>
	<path d="M311.31,118.11c6.32,0,5.51-0.04,6.41-0.6C315.62,117.58,313.42,117.16,311.31,118.11z"/>
	<path d="M317.72,117.52c0.1,0,0.19,0,0.28,0C317.86,117.38,317.95,117.4,317.72,117.52z"/>
	<path d="M412.98,81.66c0.1-1.1,0.6-2.4-0.7-3.3C411.38,79.66,412.68,80.56,412.98,81.66z"/>
	<path d="M393.01,57.29c1.3-1.5,1.3-1.5,1-3.2C392.81,54.9,392.91,56,393.01,57.29z"/>
	<path d="M476,199.31c-0.9,0.8-1.7,1.6-2.7,2.3C475.66,201.35,478.23,197.79,476,199.31z"/>
	<path d="M477.19,198.73c-0.03,0.03-0.17,0.18-0.21,0.23C477.19,198.9,477.22,198.95,477.19,198.73z"/>
	<path d="M511.85,198.41c0.8-0.8,1-1.7,0.9-2.9C511.45,196.31,511.45,196.31,511.85,198.41z"/>
	<path d="M311.91,431.81c-1.3-2.2-1.3-2.2-3.3-2.4C309.41,430.61,310.51,431.11,311.91,431.81z"/>
	<path d="M405.49,141.08c1.1,2,1.4,2.1,2.8,1.1C407.49,141.48,406.79,140.68,405.49,141.08z"/>
	<path d="M512.25,176.14c1.8-1.3,2.7-2.2,3.1-3.6C515.17,172.37,514.26,172.12,512.25,176.14z"/>
	<path d="M178.68,435.8c0.7-2.2,0.7-2.2,0.3-4.49C178.59,433.2,178.39,434.5,178.68,435.8z"/>
	<path d="M652.77,505.71c-1.3,1.5-1.3,1.6,0.3,2.6C652.97,507.41,652.87,506.71,652.77,505.71z"/>
	<path d="M422.05,87.27c0.01,0.06,0.02,0.12,0.02,0.18C422.2,87.33,422.19,87.38,422.05,87.27z"/>
	<path d="M422.05,87.28c-0.12-1.47-0.61-2.75-2.02-3.44C420.47,85.15,420.73,86.51,422.05,87.28z"/>
	<path d="M419.97,83.66l-0.1,0.1C420.06,83.85,420.06,83.92,419.97,83.66z"/>
	<path d="M657.16,412.03c0-0.44-1.46-1.79-2.2-0.9C654.69,411.41,654.76,412.51,657.16,412.03z"/>
	<path d="M596.04,231.97c0.6,1.3,1.4,2,2.8,2.8C597.94,232.47,597.94,232.47,596.04,231.97z"/>
	<path d="M438.25,134.89c1.6-1.1,2-2.3,2.3-3.5C439.05,131.9,438.85,133.19,438.25,134.89z"/>
	<path d="M661.36,411.03c1.2,0.5,1.9,0,2.6-0.7C663.15,409.14,663.15,409.14,661.36,411.03z"/>
	<path d="M668.35,408.64c-0.6,0.5-1.2,1.1-1.9,1.7C667.95,409.93,667.95,409.93,668.35,408.64z"/>
	<path d="M456.42,169.55c0.5,1.2,0.7,1.7,1,2.5C458.02,171.05,457.82,170.45,456.42,169.55z"/>
	<path d="M558.29,188.92c0.2,1.2,0.2,1.2,1.6,1.9C559.99,189.62,559.19,189.32,558.29,188.92z"/>
	<path d="M651.27,512.8c0.66-3.97-1.51,0.3-0.5,0.3C650.87,513.2,651.27,513,651.27,512.8z"/>
	<path d="M557.39,186.33c-0.3-1.4-1.2-1.6-2-1.9C555.59,185.43,556.29,186.03,557.39,186.33z"/>
	<path d="M238.71,132.2c-1.4,1.3-1.4,1.3-0.2,2.6C238.61,133.89,238.71,133.09,238.71,132.2z"/>
	<path d="M237.61,436.7c-1.2,1.3-1.3,1.7-0.6,2.7C237.81,438.7,237.61,437.8,237.61,436.7z"/>
	<path d="M300.93,110.32c-0.4,0-0.8,0.3-1.3,0.4C303.44,110.97,306.26,109.84,300.93,110.32z"/>
	<path d="M304.22,110.22l-0.01-0.01l0.01-0.01C303.93,110.2,303.83,110.22,304.22,110.22z"/>
	<path d="M405.59,162.36c0.6,0.8,1.2,1.3,2.3,0.9C407.39,162.26,406.69,161.86,405.59,162.36z"/>
	<path d="M237.61,139.99c1.19-1.49,0.84-0.77,0.5-1.8C237.48,138.5,237.61,138.11,237.61,139.99z"/>
	<path d="M394.5,96.04c0.9,1.4,1.8,0.8,2.9,0.7C396.3,95.04,395.5,96.44,394.5,96.04z"/>
	<path d="M294.63,120.51c-1,0-2.1,0-3.1,0C292.64,121.11,293.64,121.31,294.63,120.51z"/>
	<path d="M518.34,184.53c-1.4,0.7-1.4,0.7-1.4,2.4C517.44,186.03,517.84,185.43,518.34,184.53z"/>
	<path d="M514.85,191.82c0.6-0.7,1.2-1.1,0.7-2C514.65,190.22,514.35,190.72,514.85,191.82z"/>
	<path d="M601.93,236.26c-0.6,1-0.6,1,1.1,1.7C602.63,237.46,602.33,236.86,601.93,236.26z"/>
	<path d="M327.39,117.02c-1.38,0-1.2-0.04-1.2,0.1C327.57,117.12,327.39,117.15,327.39,117.02z"/>
	<path d="M408.79,70.38c-0.92,0.92,1.66,2.04,0.3,0C409.09,70.28,408.79,70.28,408.79,70.38z"/>
	<path d="M479.29,196.61c0.6-0.3,1.2-0.5,2.2-0.9C480.19,195.61,480.19,195.61,479.29,196.61z"/>
	<path d="M316.81,421.52c1.95,0,3.25,0.65,0.1-0.4C316.91,421.22,316.81,421.42,316.81,421.52z"/>
	<path d="M496.17,148.28c-0.96,0.19-1.74,0.48-2.15,1.4C495,149.66,495.88,149.35,496.17,148.28z"/>
	<path d="M400.4,141.18c-0.22,0.67-0.4,0.5,0.6,1C401.19,141.6,401.64,141.18,400.4,141.18z"/>
	<path d="M287.84,121.41c0,0.27-0.24,0.2,1.7,0.2C289.54,121.32,289.8,121.41,287.84,121.41z"/>
	<path d="M436.25,217.68c0,1,0,1.8-0.2,2.5C436.55,219.48,436.85,218.78,436.25,217.68z"/>
	<path d="M436.85,213.39c0,0.8,0.1,1.5,0.2,2.4C437.65,214.89,437.25,214.09,436.85,213.39z"/>
	<path d="M469.51,215.69c0-0.36,0.05-0.35-0.2-0.6C469.31,215.22,469.28,215.46,469.51,215.69z"/>
	<path d="M649.17,520.39c0-1.41,0.1-1.2-0.3-1.2C648.87,520.61,648.77,520.39,649.17,520.39z"/>
	<path d="M297.03,123.01c0.5,0.4,0.8,0.7,1.1,1.1C298.23,123.51,298.23,122.91,297.03,123.01z"/>
	<path d="M200.86,129.6c0,1.41-0.1,1.2,0.3,1.2C201.16,129.38,201.26,129.6,200.86,129.6z"/>
	<path d="M661.46,470.96c0.51-0.51,0.54,0.35,0-1.8C661.26,470.73,661.12,470.62,661.46,470.96z"/>
	<path d="M419.18,68.47L419.18,68.47C419.18,68.48,419.18,68.48,419.18,68.47z"/>
	<path d="M419.17,68.46L419.17,68.46C419.18,68.42,419.17,68.23,419.17,68.46z"/>
	<path d="M419.18,68.47c0.67,0.6,1.43,0.7,2.19,0.61C420.89,68.12,420.04,68.36,419.18,68.47z"/>
	<path d="M658.36,477.15c-0.45-0.45-0.19-0.01-0.5,0.3C658.06,477.64,658.08,477.7,658.36,477.15z"/>
	<path d="M237.01,442.69c-0.8,0.6-0.4,1.3-0.3,1.8C237.11,443.99,237.81,443.49,237.01,442.69z"/>
	<path d="M413.18,49.7c-0.79-1.19-0.44-0.73-1.1-0.4C413.06,49.96,412.68,50.03,413.18,49.7z"/>
	<path d="M410.18,47.41c-0.53-0.53-0.26-0.64-1.3-0.3C409.81,48.03,409.7,47.65,410.18,47.41z"/>
	<path d="M520.44,179.73c-0.6,0.2-0.9,0.5-0.7,1.2C520.44,180.73,520.34,180.23,520.44,179.73z"/>
	<path d="M199.66,434.7c0.33-0.33,0.21-0.09-0.1-0.7c0,0,0,0.1-0.1,0.2C199.56,434.4,199.66,434.5,199.66,434.7z"/>
	<path d="M318.7,117.12c-0.55,0-0.2,0.1-0.8,0.3C318.41,117.42,318.7,117.49,318.7,117.12z"/>
	<path d="M285.65,122.31l0.2-0.1C285.61,122.21,285.65,122.18,285.65,122.31z"/>
	<path d="M449.93,221.58c0.57,0,1.13-0.01,1.36-0.68C450.79,220.93,450.11,220.76,449.93,221.58z"/>
	<path d="M451.29,220.9c0.05-0.01,0.1-0.01,0.14-0.02C451.33,220.78,451.33,220.74,451.29,220.9z"/>
	<path d="M451.43,220.78c0.63,0,0.76-0.2,0.9-0.2C451.46,220.15,451.88,220.56,451.43,220.78z"/>
	<path d="M556.49,166.65c0.27-0.27,0.36-0.5,0-0.5C556.27,166.37,556.49,166.5,556.49,166.65z"/>
	<path d="M399.8,170.65c0.23,0,0.63-0.3,0.1-0.3C399.35,170.35,399.16,170,399.8,170.65z"/>
	<path d="M509.05,180.63c0-0.13,0.28-0.4-0.1-0.4C508.96,180.37,508.67,180.63,509.05,180.63z"/>
	<path d="M269.87,433.2c0.5-0.5,0-0.4-0.2-0.5C269.77,432.9,269.87,433.1,269.87,433.2z"/>
	<path d="M271.26,128.7c0-0.1-0.1-0.2-0.1-0.3C271.16,128.6,271.16,128.7,271.26,128.7z"/>
	<path d="M271.06,128.5c-0.1-0.2-0.2-0.4-0.2-0.6C270.27,128.5,270.86,128.4,271.06,128.5z"/>
	<path d="M269.57,432.8c0-0.2,0-0.3-0.1-0.3C269.47,432.6,269.57,432.7,269.57,432.8z"/>
	<path d="M515.55,171.94c-0.29,0.59-0.39,0.41-0.2,0.6C516.02,172.21,515.82,172.22,515.55,171.94z"/>
	<path d="M560.19,190.72c0,0.1-0.1,0.1-0.2,0C560.47,191.2,560.29,190.82,560.19,190.72z"/>
	<path d="M478.69,197.41c-0.01-0.04,0-0.06,0-0.09C478.57,197.32,478.55,197.27,478.69,197.41z"/>
	<path d="M478.69,197.32c0.43,0.05,0.7-0.15,0.7-0.61C478.93,196.71,478.65,196.89,478.69,197.32z"/>
	<path d="M655.66,481.54l0.1-0.1C655.51,481.44,655.53,481.41,655.66,481.54z"/>
	<path d="M407.49,66.88C407.39,66.98,407.69,67.08,407.49,66.88L407.49,66.88z"/>
	<path d="M410.78,74.67c0.26-0.13,0.25-0.07,0-0.2V74.67z"/>
	<path d="M306.82,122.51c0.12,0,0.38,0.57,0-0.2C306.82,122.41,306.82,122.51,306.82,122.51z"/>
	<path d="M236.61,444.59h0.2C236.68,444.46,236.74,444.46,236.61,444.59z"/>
	<path d="M298.23,124.01C298.03,124.01,298.53,124.41,298.23,124.01L298.23,124.01z"/>
	<path d="M312.71,127.1c0.2-0.6,0-0.8-0.6-0.8C312.41,126.5,312.61,126.8,312.71,127.1z"/>
	<path d="M674.64,391.06c-1.09-1.25-2.19-0.68-2.69-0.93c0,0,1.68,1.72,2.09,2.13C674.94,392.06,675.24,391.66,674.64,391.06z"/>
	<path d="M671.84,389.86c0,0.1,0,0.2,0,0.2C672.01,390.23,671.94,390.03,671.84,389.86z"/>
	<path d="M478.49,197.41c0.01,0.04,0,0.06,0,0.09C478.61,197.5,478.64,197.55,478.49,197.41z"/>
	<path d="M478.49,197.5c-0.44-0.05-0.7,0.14-0.7,0.61C478.26,198.11,478.53,197.93,478.49,197.5z"/>
	<path d="M477.19,198.73c0.25-0.2,0.44-0.44,0.71-0.62C477.37,198.11,477.17,198.28,477.19,198.73z"/>
	<path d="M490.28,198.81l-0.1,0.1C491.74,199.95,490.91,199.44,490.28,198.81z"/>
	<path d="M491.08,199.51l0.1,0.2C491.07,199.38,491.08,199.34,491.08,199.51z"/>
	<path d="M492.58,201.71l-0.1,0.1C492.59,201.81,492.58,201.89,492.58,201.71z"/>
	<path d="M473.5,201.71c-0.15-0.15-0.58,0.36-0.8,0.7C473,202.3,473.2,202.01,473.5,201.71z"/>
	<path d="M472.1,203.2c1.43-1.43,0.06-0.26-0.1-0.1L472.1,203.2z"/>
	<path d="M472,203.2c-0.13-0.13,0-0.25-0.7,0.8C471.6,203.8,471.9,203.5,472,203.2z"/>
	<path d="M471.2,204.1h0.2C471.28,203.98,471.33,203.98,471.2,204.1z"/>
	<path d="M423.87,229.27c-0.1,0-0.2,0-0.2,0.1C423.67,229.5,423.59,229.55,423.87,229.27z"/>
	<path d="M423.57,229.57c0.06,0,0.08-0.04,0.09-0.09C423.63,229.51,423.6,229.54,423.57,229.57z"/>
	<path d="M422.9,230.18c0.26-0.17,0.51-0.34,0.77-0.51C423.24,229.67,422.98,229.83,422.9,230.18z"/>
	<path d="M422.9,230.18c-0.16,0.12-0.16,0.06-0.03,0.19C422.87,230.3,422.89,230.24,422.9,230.18z"/>
	<path d="M558.29,429.71c-6.11-9.16-6.81-14.3-7.89-15.38c-1.84,4.51-0.19,3.29,2.4,10.19c-5.69,0.36-7.5,0.18,1.1,1.9
		c2.33,3.5,12.85,22.66,5.99,6.19c3.89-0.5,7.49-1,10.89-3.5C566.48,428.71,562.59,430.31,558.29,429.71z"/>
	<path d="M600.74,441.99c-2.43,0.61-3.95,10.4-3.3,14.98c1.32-2.86,1.07-2.37,4.19-12.98C601.83,443.09,601.83,442.29,600.74,441.99
		z"/>
	<path d="M583.06,386.47c-0.4-0.1-0.8,0.1-1.9,0.4C618.46,400.19,591.34,388.45,583.06,386.47z"/>
	<path d="M616.71,436.2c-4.96-8.36-6.26-5.5-4.69-2.9C615.61,438.01,619.76,441.33,616.71,436.2z"/>
	<path d="M618.91,443.09c4.28,14.98,3.03,2.54,0.6-1.3C619.21,442.49,618.91,442.89,618.91,443.09z"/>
	<path d="M603.73,393.86c-0.66-0.11-1.86,0.14-1.2,0.8c1,0.75,0,0.37,6.49,2.9C610.66,397.55,605.47,394.15,603.73,393.86z"/>
	<path d="M628.9,408.44c-1.1-1.5-1.9-3.3-4.19-4.29c-0.3,0.3-0.6,0.6-1,1C625.3,407.04,626.6,408.64,628.9,408.44z"/>
	<path d="M600.14,509.41c-1.34,0.15-1.58,3.34-0.1,4.69C600.64,512.4,600.54,510.9,600.14,509.41z"/>
	<path d="M597.84,528.08c1.1-1.4,0.7-3,0.8-4.89C596.94,526.18,596.84,526.28,597.84,528.08z"/>
	<path d="M621.71,450.18c-0.4,1.9,0.3,3.4,1.3,5.19C623.87,453.23,623.73,456.26,621.71,450.18z"/>
	<path d="M575.07,428.81c2.1,0.4,3.5-0.1,4.79-1.1C576.56,426.61,575.47,428.48,575.07,428.81z"/>
	<path d="M620.51,399.95c1.1,0.7,2.1,1.9,3.89,1.1C623.31,399.25,621.81,399.95,620.51,399.95z"/>
	<path d="M610.82,398.25c0.9,1.79,0.79,1.12,1.7,1.8C612.62,398.75,612.22,398.15,610.82,398.25z"/>
	<path d="M630.5,412.63c-0.6,1.1,0,2.2,0.1,3.5C631.9,413.53,631.8,413.53,630.5,412.63z"/>
	<path d="M585.16,425.71c-1.1-0.3-1.9,0-2.6,0.7C583.76,427.31,583.76,427.31,585.16,425.71z"/>
	<path d="M599.54,520.79c0-0.8,0.1-1.6,0.1-2.7C598.74,519.49,598.74,519.49,599.54,520.79z"/>
	<path d="M623.51,461.67c0.38-0.76-0.13-0.66-0.5-1.4C622.41,460.86,622.76,461.29,623.51,461.67z"/>
	<path d="M598.34,461.67c-0.31,0-1.4,0.74-0.5,1.8C599.02,461.89,598.65,462.28,598.34,461.67z"/>
	<path d="M591.85,424.91c-0.6,0-1.1,0-1.7,0C590.75,425.81,591.25,425.71,591.85,424.91z"/>
	<path d="M596.94,469.16c-0.1-0.1-0.4-0.2-0.6-0.4c-0.1,0.3-0.2,0.6-0.2,0.9C596.41,469.79,596.94,469.95,596.94,469.16z"/>
	<path d="M594.64,475.65c0,1.38-0.06,1.2,0.2,1.2C594.84,475.47,594.91,475.65,594.64,475.65z"/>
	<path d="M593.84,481.24c0,0.6,0,1.1,0,1.8C594.44,482.34,594.64,481.84,593.84,481.24z"/>
	<path d="M611.12,401.05c0,0.25-0.07,0.18,0.3,0.3C611.17,401.22,611.24,401.29,611.12,401.05z"/>
	<path d="M629,408.64v-0.3C628.87,408.46,628.88,408.4,629,408.64z"/>
	<path d="M519.54,436.7c-8.76-9.85-18.42-20.3-13.28-32.46c0-2.07,0.08-1.2-0.7-1.2c-3.79,6.2-3.29,5.39-3.6,6.29
		c-0.83,2.07-0.7,6.29,0.7,7.29c3.51,3.22-1.01,5.78,15.68,22.47C520.19,441.56,524.19,441.34,519.54,436.7z"/>
	<path d="M494.87,447.98c4.2-2.1-15.05-18.9-17.28-25.37c-0.62,1.54,2.63,11.46,7.99,16.88C491.54,445.52,492.84,449,494.87,447.98z
		"/>
	<path d="M536.82,431.01c-0.69-0.58-1.37-1.35-2.52-1.02C562.51,458.31,549.08,441.37,536.82,431.01z"/>
	<path d="M534.22,430.01c0.05-0.02,0.14-0.01,0-0.1V430.01z"/>
	<path d="M476.2,418.22c-0.89-1.93-2.84,0.46-3.89-4.29c-1.2,0-0.7,1.2-1.7,1.8c-2,0.2-3.89-1.9-6.69-1.9c2.3,2.2,4.99,2.6,7.19,3.3
		c1.3,0.9,0.9,2.9,2.8,3.1C473.9,418.06,472.7,418.22,476.2,418.22z"/>
	<path d="M508.06,447.89c0.31,0.42,2.04,1.49,0.8-0.3c-3.21-4.61-5.99-9.39-8.59-14.38C498.41,428.56,499.8,436.91,508.06,447.89z"
		/>
	<path d="M509.4,448.83c0.49,0.49,0.03-0.03,0.05-0.05C509.2,448.6,509.33,448.91,509.4,448.83z"/>
	<path d="M558.29,445.89c0.1,0.1,0.4-0.2,0.8-0.3C537.45,423.95,553.92,443.08,558.29,445.89z"/>
	<path d="M470.01,398.35c-3.3,0-5.29-0.48-5.29,1.2C464.71,401.59,466.74,399.9,470.01,398.35z"/>
	<path d="M547.21,380.27c2.9-0.6,3.2-0.8,5.69-2.7C551,377.48,549.9,377.98,547.21,380.27z"/>
	<path d="M512.95,385.87l-0.1-0.1C512.85,386,512.81,386.06,512.95,385.87z"/>
	<path d="M518.74,424.12c-2.3,0-4.69,0-6.99,0C514.05,424.62,516.45,424.91,518.74,424.12z"/>
	<path d="M507.06,384.97c-1.8,1-1.8,1-2.1,3C506.06,387.36,506.26,386.17,507.06,384.97z"/>
	<path d="M498.37,430.51c-0.5-1.1-1-2.2-1.7-3.7C496.87,429.11,496.87,429.11,498.37,430.51z"/>
	<path d="M487.88,420.62c-1.1-0.1-2.2-0.3-3.3-0.5C485.59,421.32,486.78,420.62,487.88,420.62z"/>
	<path d="M484.35,420.13c-1.07-0.75-2.31-0.32-3.46-0.71C481.92,420.36,483.13,420.15,484.35,420.13z"/>
	<path d="M484.58,420.13c0.01-0.01,0.01-0.01,0.01-0.01C484.24,420.12,484.43,420.28,484.58,420.13z"/>
	<path d="M493.18,421.42c0-0.26-0.22,0.05-1.2-0.2C491.98,421.49,491.79,421.42,493.18,421.42z"/>
	<path d="M504.36,390.26l0.1,0.1C504.46,390,504.45,390.17,504.36,390.26z"/>
	<path d="M504.45,390.13c0.51-0.67,0.61-1.41,0.61-2.07C504.05,388.52,504.38,389.31,504.45,390.13z"/>
	<path d="M480.79,419.62l0.1-0.1C480.62,419.43,480.73,419.52,480.79,419.62z"/>
	<path d="M478.69,418.72c0.37,1.01,1.25,0.67,2.01,0.77C480.19,418.76,479.35,419,478.69,418.72z"/>
	<path d="M476.42,418.2c-0.04-0.03-0.08-0.05-0.12-0.08C476.14,418.28,476.17,418.2,476.42,418.2z"/>
	<path d="M476.42,418.2c0.68,0.51,1.52,0.53,2.18,0.62C478.05,418.09,477.25,418.11,476.42,418.2z"/>
	<path d="M462.82,399.95c0.13-0.38,0.16-0.3-0.1-0.3L462.82,399.95z"/>
	<path d="M498.97,432.11l0.1-0.1C498.94,431.92,499.04,431.9,498.97,432.11z"/>
	<path d="M498.47,430.41c-0.19,0.67-0.01,1.15,0.53,1.54C499.14,431.34,499.02,430.87,498.47,430.41z"/>
	<path d="M521.14,378.68c0.3,0,0.5-0.1,0.7-0.1C521.64,378.58,521.34,378.68,521.14,378.68z"/>
	<path d="M484.49,391.66c-0.2,0.1-0.4,0.2-0.6,0.3C484.49,392.46,484.39,391.96,484.49,391.66z"/>
	<path d="M510.05,391.86c0.01-0.1,2.83-2.29,2.8-5.87C509.73,389.59,510.05,392.29,510.05,391.86z"/>
	<path d="M494.67,390.36c0.25-0.13,0.23-0.07,0.1-0.2L494.67,390.36z"/>
	<path d="M504.26,390.16l-0.1,0.2C504.41,390.23,504.39,390.29,504.26,390.16z"/>
	<path d="M522.64,377.78c-0.4,0.1-0.6,0.4-0.8,0.8C521.94,378.68,521.9,378.88,522.64,377.78z"/>
	<path d="M513.15,385.67c-0.1,0-0.2,0-0.3,0C513.05,385.77,513.05,385.77,513.15,385.67z"/>
	<path d="M464.91,406.94c-0.1,0.1-0.2,0.1-0.3,0.2C464.81,407.14,464.81,407.04,464.91,406.94z"/>
	<path d="M394.5,438c1.3,0.7,2.3-0.2,3.8-0.3C396.3,437.3,396.3,437.3,394.5,438z"/>
	<path d="M393.8,348.81c0.78,0.39,0.74,0.38,1.5,0C393.85,348.45,394.73,348.35,393.8,348.81z"/>
	<path d="M403.09,435.7c0.27-0.27,0.3-0.23-0.1-0.1L403.09,435.7z"/>
	<path d="M402.79,436c0.1,0,0.1,0,0.2-0.1C402.99,435.77,403.07,435.72,402.79,436z"/>
	<path d="M403,435.79c0.03-0.03,0.06-0.06,0.09-0.09C403.03,435.7,403.01,435.74,403,435.79z"/>
	<path d="M391.51,348.51c0,0-0.1-0.1-0.1-0.2C391.31,348.51,391.41,348.51,391.51,348.51z"/>
	<path d="M636.19,365.24c-0.69,0.32-0.7,0.98-0.7,1.55c0.91-2.23,1.5-1.36,1.5-3C636.15,363.98,636.18,364.59,636.19,365.24z"/>
	<path d="M324.5,382.97c0.45-2.71,0.73-1.34-2.2-3.3c-1.93-0.13,0.48,1.03-5.79,2c1.2,0.4,2.2,0.5,2.8,1.1
		C320.3,383.64,324.5,382.7,324.5,382.97z"/>
	<path d="M319.8,359.2c2.66-4.66,5.42-3.48-1.2-4.49C318.5,356.8,318.5,356.8,319.8,359.2z"/>
	<path d="M336.28,349.81c0-1.2,0-2.3,0-3.4C334.58,348.11,334.58,348.51,336.28,349.81z"/>
	<path d="M352.56,361c-0.74,0.56-0.79,1.29-0.72,2.03C352.54,362.52,352.37,361.67,352.56,361z"/>
	<path d="M351.76,363.1l0.1,0.1C351.82,362.95,351.88,363.02,351.76,363.1z"/>
	<path d="M352.65,360.49c0.18-0.35,0.42-0.67,0.71-0.89C352.88,359.74,352.73,360.11,352.65,360.49z"/>
	<path d="M352.65,360.49c-0.07,0.13-0.13,0.27-0.19,0.41C352.63,361.07,352.52,361.05,352.65,360.49z"/>
	<path d="M353.96,358c-0.25,0.33-0.75,1.35-0.6,1.5C353.56,359,353.76,358.5,353.96,358z"/>
	<path d="M353.86,357.9C353.86,358,353.96,358,353.86,357.9L353.86,357.9z"/>
	<path d="M460.92,428.01c0-0.9-0.5-1.2-1.1-1C451.68,429.82,458.26,429.01,460.92,428.01z"/>
	<path d="M443.84,429.01c0.77,0.39,0.32,0.77,2.1-0.3C445.94,428.16,444.26,428.17,443.84,429.01z"/>
	<path d="M446.84,399.15c0.3,0,0.7-0.3,0.7-0.5c0.2-0.2-0.2-0.6-0.5-1.1c-0.4,0.5-0.7,0.8-1,1.1
		C446.34,398.85,446.54,399.15,446.84,399.15z"/>
	<path d="M450.93,396.25c0.31,0.62,0.32,0.58,0.8,0.1C451.54,396.17,451.5,395.97,450.93,396.25z"/>
	<path d="M353.56,424.72c-0.29,0,0.06,0.6,0.5,0.6C355.56,424.94,355.51,423.94,353.56,424.72z"/>
	<path d="M467.61,382.57c-0.2,1.3,0.2,2.6,1.2,3.99c0.4-0.5,0.9-0.9,0.9-1.1c-0.62-2.48,0.37-6.44-2.8-11.19
		C465.29,377.11,468.11,379.33,467.61,382.57z"/>
	<path d="M463.91,387.96l-0.1,0.1C464.19,388.19,464.18,388.23,463.91,387.96z"/>
	<path d="M496.67,369.09c2.31,1.21,10.54,0.89,13.48-0.7C505.16,367.99,500.97,369.19,496.67,369.09z"/>
	<path d="M339.58,182.53c0.41,0.81,0.81,0.6,1.7,0.6C339.88,182.02,340.1,182.27,339.58,182.53z"/>
	<path d="M351.26,270.52c0.1-0.1-0.1,0.1-0.3,0.1C351.26,270.62,351.46,270.52,351.26,270.52z"/>
	<path d="M356.25,268.52c0.13-0.26,0.16-0.23-0.1-0.1L356.25,268.52z"/>
	<path d="M356.05,268.69c0.08-0.06,0.14-0.12,0.2-0.17C356.07,268.52,356.05,268.6,356.05,268.69z"/>
	<path d="M355.85,268.82c0.1,0,0.1,0,0.2-0.1C356.05,268.67,355.9,268.79,355.85,268.82z"/>
	<path d="M366.24,104.63c-3.4-1.4-6.69-1.4-9.99-0.1C355.56,106.61,357.73,106.33,366.24,104.63z"/>
	<path d="M325.39,174.94c0.86,1.18,1.48,1.03,3.7,1.2c-1.68-2.72-1.54-1.96-2-4.69C325.35,170.23,324.01,173.04,325.39,174.94z"/>
	<path d="M334.08,152.47c1.48-5.34,1.78-5.75,1.1-6.09c-2.63-0.88-2.1,4.25-2.1,6.99C333.58,152.87,333.98,152.67,334.08,152.47z"/>
	<path d="M333.98,155.27c0-1.9-3.7-1.03-1.5,3.1C333.58,157.26,333.98,156.26,333.98,155.27z"/>
	<path d="M348.96,111.02c2.51-1.51,1.42-0.66,4.29-2.9C350.86,108.33,350.86,108.33,348.96,111.02z"/>
	<path d="M343.27,166.35c0.41,0-0.15-1.29-1.3-1.1C341.21,165.25,342.18,166.82,343.27,166.35z"/>
	<path d="M352.56,138.29c0.85,0,0.42-0.12,1.1-0.8C352.55,137.71,352.56,137.48,352.56,138.29z"/>
	<path d="M422.37,203.3c1.59-0.45,2.86-1.68,2-3.4C423.72,199.05,421.91,200.54,422.37,203.3z"/>
	<path d="M422.27,197.01c1.16-0.55,0.5-2.4-3.4-0.9C420.17,197.11,421.18,197.53,422.27,197.01z"/>
	<path d="M419.57,200.81c-0.32-1.92-2.82-1.92-2.2-1.3C417.87,200.41,418.37,201.21,419.57,200.81z"/>
	<path d="M388.81,199.91c-0.3-1-0.9-1.2-1.8-1C387.31,200.01,387.81,200.41,388.81,199.91z"/>
	<path d="M412.68,214.89c-0.5,0.5-1.1,1.1-1.6,1.6C412.08,216.49,412.58,215.89,412.68,214.89z"/>
	<path d="M427.17,203.42c-0.17,0.43-0.37,0.91-0.71,1.68C427.3,204.43,427.09,203.83,427.17,203.42z"/>
	<path d="M414.78,195.81c0.4,0,0.8-0.1,1.4-0.1C415.38,195.11,414.98,195.11,414.78,195.81z"/>
	<path d="M414.65,195.99c0.08-0.03,0.15-0.08,0.23-0.08C414.74,195.91,414.7,195.96,414.65,195.99z"/>
	<path d="M599.24,162.56c0.28,0.55,0.97,0.66,8.29,6.29C606.03,163.99,598.07,157.87,599.24,162.56z"/>
	<path d="M576.77,126.2c1.6,2.4,1.6,2.4,7.39,3.4C581.96,127.6,579.96,126,576.77,126.2z"/>
	<path d="M592.05,144.78c-1.42,1.14,1.73,2.81,4.19,3.5C594.34,145.88,594.34,145.88,592.05,144.78z"/>
	<path d="M610.12,171.54c0.3,1.9,0.8,2.9,2.3,3.4C612.22,172.94,612.22,172.94,610.12,171.54z"/>
	<path d="M585.95,141.68c1.37,2.35,3.13,2.07,0.6-1.3C585.56,140.49,585.66,141.18,585.95,141.68z"/>
	<path d="M577.27,161.06c-0.27,0.18-0.22,0.74-0.28,1.15c1.06-0.48,2.13-0.87,3.58-1.55C578.96,160.06,578.06,160.55,577.27,161.06z
		"/>
	<path d="M576.87,162.26l0.1,0.1C577.01,162.19,576.99,162.2,576.87,162.26z"/>
	<path d="M597.34,157.96c-0.8-0.3-1.4-0.6-2.2-0.9C595.84,158.56,595.84,158.56,597.34,157.96z"/>
	<path d="M615.22,178.44c-0.4,1.2,0,1.9,0.9,2.6C616.71,179.83,616.42,179.04,615.22,178.44z"/>
	<path d="M582.66,131.7c-0.1,1.1,0.9,1.2,1.6,1.5C583.86,132.6,583.56,131.8,582.66,131.7z"/>
	<path d="M588.49,143.72c0.11,0.43,0.42,0.51,0.16,0.16C588.59,143.82,588.54,143.77,588.49,143.72z"/>
	<path d="M587.85,143.08c0.24,0.24,0.42,0.42,0.64,0.64C588.39,143.38,588.25,143.16,587.85,143.08z"/>
<path fill="#e6e6e6" d="m206.8 163.6c0-5.1 4.1-9.2 9.3-9.2s9.2 4.2 9.2 9.2-4.1 9.2-9.3 9.2-9.2-4.1-9.2-9.2zm17.3-.1c0-4.5-3.5-8.2-8.2-8.2s-8.2 3.7-8.2 8.3c0 4.5 3.5 8.2 8.2 8.2s8.2-3.7 8.2-8.3zm-13 0c0-2.8 2.1-5.1 5.1-5.1 1.9 0 2.9.6 3.9 1.5l-1.4 1.7c-.8-.7-1.5-1.1-2.5-1.1-1.7 0-2.8 1.4-2.8 3.1s1.1 3 2.8 3c1.1 0 1.7-.5 2.5-1.1l1.4 1.4c-1.1 1.1-2.1 1.7-4 1.7-2.9 0-5-2.3-5-5.1z"/><path fill="#e6e6e6" d="m226.6 154.7h3.4l4.2 13.2 4.4-13.3h2.6l4.4 13.3 4.2-13.2h3.3l-6.2 18h-2.7l-4.4-12.8-4.4 12.8h-2.7z"/><path fill="#e6e6e6" d="m252.8 165.8c0-3.9 3.1-7 7.2-7 4.2 0 7.2 3.2 7.2 7s-3.1 7-7.3 7c-4 0-7.1-3.1-7.1-7zm11.3 0c0-2.3-1.7-4.3-4.2-4.3s-4.1 2-4.1 4.3 1.7 4.3 4.1 4.3c2.7.1 4.2-1.9 4.2-4.3z"/><path fill="#e6e6e6" d="m269.5 159.1h3.1v3c.8-2 2.4-3.4 4.8-3.3v3.2h-.2c-2.7 0-4.6 1.7-4.6 5.4v5.1h-3.1z"/><path fill="#e6e6e6" d="m279.1 153.9h3.1v11.1l5.6-6h3.8l-5.4 5.5 5.5 8h-3.5l-4.1-5.8-1.9 2v3.9h-3.1z"/><path fill="#e6e6e6" d="m291.7 165.8c0-3.9 3.1-7 7.2-7 4.2 0 7.2 3.2 7.2 7s-3.1 7-7.3 7c-4 0-7.1-3.1-7.1-7zm11.3 0c0-2.3-1.7-4.3-4.2-4.3s-4.1 2-4.1 4.3 1.7 4.3 4.1 4.3c2.6.1 4.2-1.9 4.2-4.3z"/><path fill="#e6e6e6" d="m308.2 167.6v-8.6h3.1v7.6c0 2.1 1.1 3.3 2.9 3.3s3-1.3 3-3.3v-7.6h3.1v13.4h-3.1v-2.1c-.8 1.3-2.1 2.3-4.2 2.3-3.1.2-4.8-1.8-4.8-5z"/><path fill="#e6e6e6" d="m323.9 168.8v-7.1h-1.7v-2.6h1.7v-3.7h3.1v3.7h3.6v2.6h-3.6v6.6c0 1.2.6 1.7 1.7 1.7.7 0 1.3-.2 1.9-.5v2.5c-.8.5-1.7.7-2.8.7-2.3 0-3.9-.9-3.9-3.9z"/><path fill="#e6e6e6" d="m333.2 154.7h3.2v15h9.4v2.9h-12.5v-17.9z"/><path fill="#e6e6e6" d="m356 172.5v-1.7c-.9 1.1-2.3 2-4.4 2-2.6 0-4.8-1.4-4.8-4.2 0-3 2.3-4.4 5.4-4.4 1.7 0 2.6.2 3.7.5v-.2c0-1.9-1.2-2.9-3.3-2.9-1.5 0-2.6.3-3.9.8l-.8-2.5c1.5-.7 2.9-1.1 5.1-1.1 4 0 5.9 2.1 5.9 5.7v8zm.1-5.6c-.8-.3-1.9-.5-3.1-.5-2 0-3.1.8-3.1 2.1s1.1 2 2.6 2c2 0 3.5-1.1 3.5-2.9z"/><path fill="#e6e6e6" d="m364.9 170.5v2.1h-3.1v-18.7h3.1v7.4c1-1.4 2.4-2.5 4.5-2.5 3.2 0 6.3 2.5 6.3 7s-3.1 7-6.3 7c-2.1 0-3.5-1.1-4.5-2.3zm7.7-4.7c0-2.6-1.7-4.3-3.9-4.3s-3.9 1.7-3.9 4.4c0 2.6 1.8 4.3 3.9 4.3s3.9-1.7 3.9-4.4z"/><path fill="#e6e6e6" d="m376.9 170.8 1.4-2.1c1.4 1.1 3 1.7 4.4 1.7s2.1-.5 2.1-1.5-1.3-1.4-2.8-1.8c-.1 0-.2-.1-.2-.1-2-.6-4.2-1.4-4.2-4s2.1-4.1 4.8-4.1c1.7 0 3.5.6 5 1.5l-1.2 2.2c-1.3-.8-2.6-1.3-3.8-1.3s-1.9.5-1.9 1.4 1.3 1.4 2.8 1.8c.1 0 .2.1.2.1 2 .6 4.2 1.5 4.2 4 0 2.9-2.2 4.2-5 4.2-1.9 0-4-.7-5.8-2z"/><path fill="#e6e6e6" d="m505.6 163.6c0-5.1 4.1-9.2 9.3-9.2s9.2 4.2 9.2 9.2-4.1 9.2-9.3 9.2-9.2-4.1-9.2-9.2zm17.4-.1c0-4.5-3.5-8.2-8.2-8.2s-8.2 3.7-8.2 8.3c0 4.5 3.5 8.2 8.2 8.2s8.2-3.7 8.2-8.3zm-13.1 0c0-2.8 2.1-5.1 5.1-5.1 1.9 0 2.9.6 3.9 1.5l-1.4 1.7c-.8-.7-1.5-1.1-2.5-1.1-1.7 0-2.8 1.4-2.8 3.1s1.1 3 2.8 3c1.1 0 1.7-.5 2.5-1.1l1.4 1.4c-1.1 1.1-2.1 1.7-4 1.7-2.9 0-5-2.3-5-5.1z"/><path fill="#e6e6e6" d="m525.4 154.7h3.4l4.2 13.2 4.4-13.3h2.6l4.4 13.3 4.2-13.2h3.3l-6.2 18h-2.7l-4.4-12.8-4.4 12.8h-2.7z"/><path fill="#e6e6e6" d="m551.7 165.8c0-3.9 3.1-7 7.2-7 4.2 0 7.2 3.2 7.2 7s-3.1 7-7.3 7c-4.1 0-7.1-3.1-7.1-7zm11.2 0c0-2.3-1.7-4.3-4.2-4.3s-4.1 2-4.1 4.3 1.7 4.3 4.1 4.3c2.7.1 4.2-1.9 4.2-4.3z"/><path fill="#e6e6e6" d="m568.3 159.1h3.1v3c.8-2 2.4-3.4 4.8-3.3v3.2h-.2c-2.7 0-4.6 1.7-4.6 5.4v5.1h-3.1z"/><path fill="#e6e6e6" d="m577.9 153.9h3.1v11.1l5.6-6h3.8l-5.4 5.5 5.5 8h-3.5l-4.1-5.8-1.9 2v3.9h-3.1z"/><path fill="#e6e6e6" d="m590.6 165.8c0-3.9 3.1-7 7.2-7 4.2 0 7.2 3.2 7.2 7s-3.1 7-7.3 7c-4.1 0-7.1-3.1-7.1-7zm11.2 0c0-2.3-1.7-4.3-4.2-4.3s-4.1 2-4.1 4.3 1.7 4.3 4.1 4.3c2.6.1 4.2-1.9 4.2-4.3z"/><path fill="#e6e6e6" d="m607 167.6v-8.6h3.1v7.6c0 2.1 1.1 3.3 2.9 3.3s3-1.3 3-3.3v-7.6h3.1v13.4h-3.1v-2.1c-.8 1.3-2.1 2.3-4.2 2.3-3 .2-4.8-1.8-4.8-5z"/><path fill="#e6e6e6" d="m622.7 168.8v-7.1h-1.7v-2.6h1.7v-3.7h3.1v3.7h3.6v2.6h-3.6v6.6c0 1.2.6 1.7 1.7 1.7.7 0 1.3-.2 1.9-.5v2.5c-.8.5-1.7.7-2.8.7-2.3 0-3.9-.9-3.9-3.9z"/><path fill="#e6e6e6" d="m632 154.7h3.2v15h9.4v2.9h-12.6z"/><path fill="#e6e6e6" d="m654.8 172.5v-1.7c-.9 1.1-2.3 2-4.4 2-2.6 0-4.8-1.4-4.8-4.2 0-3 2.3-4.4 5.4-4.4 1.7 0 2.6.2 3.7.5v-.2c0-1.9-1.2-2.9-3.3-2.9-1.5 0-2.6.3-3.9.8l-.8-2.5c1.5-.7 2.9-1.1 5.1-1.1 4 0 5.9 2.1 5.9 5.7v8zm.1-5.6c-.8-.3-1.9-.5-3.1-.5-2 0-3.1.8-3.1 2.1s1.1 2 2.6 2c2 0 3.5-1.1 3.5-2.9z"/><path fill="#e6e6e6" d="m663.7 170.5v2.1h-3.1v-18.7h3.1v7.4c1-1.4 2.4-2.5 4.5-2.5 3.2 0 6.3 2.5 6.3 7s-3.1 7-6.3 7c-2.1 0-3.5-1.1-4.5-2.3zm7.8-4.7c0-2.6-1.7-4.3-3.9-4.3-2.1 0-3.9 1.7-3.9 4.4 0 2.6 1.8 4.3 3.9 4.3s3.9-1.7 3.9-4.4z"/><path fill="#e6e6e6" d="m675.8 170.8 1.4-2.1c1.4 1.1 3 1.7 4.4 1.7s2.1-.5 2.1-1.5-1.3-1.4-2.8-1.8c-.1 0-.2-.1-.2-.1-2-.6-4.2-1.4-4.2-4s2.1-4.1 4.8-4.1c1.7 0 3.5.6 5 1.5l-1.2 2.2c-1.3-.8-2.6-1.3-3.8-1.3s-1.9.5-1.9 1.4 1.3 1.4 2.8 1.8c.1 0 .2.1.2.1 2 .6 4.2 1.5 4.2 4 0 2.9-2.2 4.2-5 4.2-2 0-4.1-.7-5.8-2z"/><path fill="#e6e6e6" d="m61 298.6c0-5.1 4.1-9.2 9.3-9.2s9.2 4.2 9.2 9.2-4.1 9.2-9.3 9.2c-5.1 0-9.2-4.2-9.2-9.2zm17.4-.1c0-4.5-3.5-8.2-8.2-8.2s-8.2 3.7-8.2 8.3c0 4.5 3.5 8.2 8.2 8.2s8.2-3.7 8.2-8.3zm-13.1-.1c0-2.8 2.1-5.1 5.1-5.1 1.9 0 2.9.6 3.9 1.5l-1.4 1.7c-.8-.7-1.5-1.1-2.5-1.1-1.7 0-2.8 1.4-2.8 3.1s1.1 3 2.8 3c1.1 0 1.7-.5 2.5-1.1l1.4 1.4c-1.1 1.1-2.1 1.7-4 1.7-2.8.1-5-2.2-5-5.1z"/><path fill="#e6e6e6" d="m80.9 289.7h3.4l4.2 13.2 4.4-13.3h2.6l4.4 13.3 4.2-13.2h3.3l-6.2 18h-2.7l-4.4-12.8-4.4 12.8h-2.7z"/><path fill="#e6e6e6" d="m107.1 300.8c0-3.9 3.1-7 7.2-7s7.2 3.2 7.2 7-3.1 7-7.3 7c-4 0-7.1-3.1-7.1-7zm11.3 0c0-2.3-1.7-4.3-4.2-4.3s-4.1 2-4.1 4.3 1.7 4.3 4.1 4.3c2.6.1 4.2-1.9 4.2-4.3z"/><path fill="#e6e6e6" d="m123.7 294h3.1v3c.8-2 2.4-3.4 4.8-3.3v3.2h-.2c-2.7 0-4.6 1.7-4.6 5.4v5.1h-3.1z"/><path fill="#e6e6e6" d="m133.4 288.9h3.1v11.1l5.6-6h3.8l-5.4 5.5 5.5 8h-3.5l-4.1-5.8-1.9 1.9v3.9h-3.1z"/><path fill="#e6e6e6" d="m146 300.8c0-3.9 3.1-7 7.2-7s7.2 3.2 7.2 7-3.1 7-7.3 7c-4.1 0-7.1-3.1-7.1-7zm11.2 0c0-2.3-1.7-4.3-4.2-4.3s-4.1 2-4.1 4.3 1.7 4.3 4.1 4.3c2.6.1 4.2-1.9 4.2-4.3z"/><path fill="#e6e6e6" d="m162.4 302.6v-8.6h3.1v7.6c0 2.1 1.1 3.3 2.9 3.3s3-1.3 3-3.3v-7.6h3.1v13.4h-3.1v-2.1c-.8 1.3-2.1 2.3-4.2 2.3-3 .2-4.8-1.8-4.8-5z"/><path fill="#e6e6e6" d="m178.1 303.8v-7.1h-1.7v-2.7h1.7v-3.7h3.1v3.7h3.6v2.6h-3.6v6.6c0 1.2.6 1.7 1.7 1.7.7 0 1.3-.2 1.9-.5v2.5c-.8.5-1.7.7-2.8.7-2.3.1-3.9-.9-3.9-3.8z"/><path fill="#e6e6e6" d="m187.4 289.7h3.2v15h9.4v2.9h-12.5v-17.9z"/><path fill="#e6e6e6" d="m210.2 307.5v-1.7c-.9 1.1-2.3 2-4.4 2-2.6 0-4.8-1.4-4.8-4.2 0-3 2.3-4.4 5.4-4.4 1.7 0 2.6.2 3.7.5v-.2c0-1.9-1.2-2.9-3.3-2.9-1.5 0-2.6.3-3.9.8l-.8-2.5c1.5-.7 2.9-1.1 5.1-1.1 4 0 5.9 2.1 5.9 5.7v8zm.1-5.6c-.8-.3-1.9-.5-3.1-.5-2 0-3.1.8-3.1 2.1s1.1 2 2.6 2c2 0 3.5-1.1 3.5-2.9z"/><path fill="#e6e6e6" d="m219.2 305.5v2.1h-3.1v-18.7h3.1v7.4c1-1.4 2.4-2.5 4.5-2.5 3.2 0 6.3 2.5 6.3 7s-3.1 7-6.3 7c-2.2 0-3.6-1.1-4.5-2.3zm7.7-4.7c0-2.6-1.7-4.3-3.9-4.3s-3.9 1.7-3.9 4.4c0 2.6 1.8 4.3 3.9 4.3s3.9-1.7 3.9-4.4z"/><path fill="#e6e6e6" d="m231.2 305.8 1.4-2.1c1.4 1.1 3 1.7 4.4 1.7s2.1-.5 2.1-1.5-1.3-1.4-2.8-1.8c-.1 0-.2-.1-.2-.1-2-.6-4.2-1.4-4.2-4s2.1-4.1 4.8-4.1c1.7 0 3.5.6 5 1.5l-1.2 2.2c-1.3-.8-2.6-1.3-3.8-1.3s-1.9.5-1.9 1.4 1.3 1.4 2.8 1.8c.1 0 .2.1.2.1 2 .6 4.2 1.5 4.2 4 0 2.9-2.2 4.2-5 4.2-2 0-4.1-.7-5.8-2z"/><path fill="#e6e6e6" d="m360.6 298.6c0-5.1 4.1-9.2 9.3-9.2s9.2 4.2 9.2 9.2-4.1 9.2-9.3 9.2-9.2-4.2-9.2-9.2zm17.4-.1c0-4.5-3.5-8.2-8.2-8.2s-8.2 3.7-8.2 8.3c0 4.5 3.5 8.2 8.2 8.2s8.2-3.7 8.2-8.3zm-13.1-.1c0-2.8 2.1-5.1 5.1-5.1 1.9 0 2.9.6 3.9 1.5l-1.4 1.7c-.8-.7-1.5-1.1-2.5-1.1-1.7 0-2.8 1.4-2.8 3.1s1.1 3 2.8 3c1.1 0 1.7-.5 2.5-1.1l1.4 1.4c-1.1 1.1-2.1 1.7-4 1.7-2.8.1-5-2.2-5-5.1z"/><path fill="#e6e6e6" d="m380.5 289.7h3.4l4.2 13.2 4.4-13.3h2.6l4.4 13.3 4.2-13.2h3.3l-6.2 18h-2.7l-4.4-12.8-4.4 12.8h-2.7z"/><path fill="#e6e6e6" d="m406.7 300.8c0-3.9 3.1-7 7.2-7 4.2 0 7.2 3.2 7.2 7s-3.1 7-7.3 7c-4.1 0-7.1-3.1-7.1-7zm11.3 0c0-2.3-1.7-4.3-4.2-4.3s-4.1 2-4.1 4.3 1.7 4.3 4.1 4.3c2.7.1 4.2-1.9 4.2-4.3z"/><path fill="#e6e6e6" d="m423.3 294h3.1v3c.8-2 2.4-3.4 4.8-3.3v3.2h-.2c-2.7 0-4.6 1.7-4.6 5.4v5.1h-3.1z"/><path fill="#e6e6e6" d="m433 288.9h3.1v11.1l5.6-6h3.8l-5.4 5.5 5.5 8h-3.5l-4.1-5.8-1.9 2v3.9h-3.1z"/><path fill="#e6e6e6" d="m445.6 300.8c0-3.9 3.1-7 7.2-7 4.2 0 7.2 3.2 7.2 7s-3.1 7-7.3 7c-4.1 0-7.1-3.1-7.1-7zm11.3 0c0-2.3-1.7-4.3-4.2-4.3s-4.1 2-4.1 4.3 1.7 4.3 4.1 4.3c2.6.1 4.2-1.9 4.2-4.3z"/><path fill="#e6e6e6" d="m462.1 302.6v-8.6h3.1v7.6c0 2.1 1.1 3.3 2.9 3.3s3-1.3 3-3.3v-7.6h3.1v13.4h-3.1v-2.1c-.8 1.3-2.1 2.3-4.2 2.3-3.1.2-4.8-1.8-4.8-5z"/><path fill="#e6e6e6" d="m477.8 303.8v-7.1h-1.8v-2.7h1.7v-3.7h3.1v3.7h3.6v2.6h-3.6v6.6c0 1.2.6 1.7 1.7 1.7.7 0 1.3-.2 1.9-.5v2.5c-.8.5-1.7.7-2.8.7-2.2.1-3.8-.9-3.8-3.8z"/><path fill="#e6e6e6" d="m487.1 289.7h3.2v15h9.4v2.9h-12.5v-17.9z"/><path fill="#e6e6e6" d="m509.9 307.5v-1.7c-.9 1.1-2.3 2-4.4 2-2.6 0-4.8-1.4-4.8-4.2 0-3 2.3-4.4 5.4-4.4 1.7 0 2.6.2 3.7.5v-.2c0-1.9-1.2-2.9-3.3-2.9-1.5 0-2.6.3-3.9.8l-.8-2.5c1.5-.7 2.9-1.1 5.1-1.1 4 0 5.9 2.1 5.9 5.7v8zm.1-5.6c-.8-.3-1.9-.5-3.1-.5-2 0-3.1.8-3.1 2.1s1.1 2 2.6 2c2 0 3.5-1.1 3.5-2.9z"/><path fill="#e6e6e6" d="m518.8 305.5v2.1h-3.1v-18.7h3.1v7.4c1-1.4 2.4-2.5 4.5-2.5 3.2 0 6.3 2.5 6.3 7s-3.1 7-6.3 7c-2.2 0-3.5-1.1-4.5-2.3zm7.7-4.7c0-2.6-1.7-4.3-3.9-4.3s-3.9 1.7-3.9 4.4c0 2.6 1.8 4.3 3.9 4.3s3.9-1.7 3.9-4.4z"/><path fill="#e6e6e6" d="m530.8 305.8 1.4-2.1c1.4 1.1 3 1.7 4.4 1.7s2.1-.5 2.1-1.5-1.3-1.4-2.8-1.8c-.1 0-.2-.1-.2-.1-2-.6-4.2-1.4-4.2-4s2.1-4.1 4.8-4.1c1.7 0 3.5.6 5 1.5l-1.2 2.2c-1.3-.8-2.6-1.3-3.8-1.3s-1.9.5-1.9 1.4 1.3 1.4 2.8 1.8c.1 0 .2.1.2.1 2 .6 4.2 1.5 4.2 4 0 2.9-2.2 4.2-5 4.2-1.9 0-4.1-.7-5.8-2z"/><path fill="#e6e6e6" d="m659.5 298.6c0-5.1 4.1-9.2 9.3-9.2s9.2 4.2 9.2 9.2-4.1 9.2-9.3 9.2-9.2-4.2-9.2-9.2zm17.3-.1c0-4.5-3.5-8.2-8.2-8.2s-8.2 3.7-8.2 8.3c0 4.5 3.5 8.2 8.2 8.2 4.8 0 8.2-3.7 8.2-8.3zm-13-.1c0-2.8 2.1-5.1 5.1-5.1 1.9 0 2.9.6 3.9 1.5l-1.4 1.7c-.8-.7-1.5-1.1-2.5-1.1-1.7 0-2.8 1.4-2.8 3.1s1.1 3 2.8 3c1.1 0 1.7-.5 2.5-1.1l1.4 1.4c-1.1 1.1-2.1 1.7-4 1.7-2.9.1-5-2.2-5-5.1z"/><path fill="#e6e6e6" d="m679.3 289.7h3.4l4.2 13.2 4.4-13.3h2.6l4.4 13.3 4.2-13.2h3.3l-6.2 18h-2.6l-4.4-12.8-4.4 12.8h-2.7z"/><path fill="#e6e6e6" d="m705.5 300.8c0-3.9 3.1-7 7.2-7 4.2 0 7.2 3.2 7.2 7s-3.1 7-7.3 7c-4 0-7.1-3.1-7.1-7zm11.3 0c0-2.3-1.7-4.3-4.2-4.3s-4.1 2-4.1 4.3 1.7 4.3 4.1 4.3c2.7.1 4.2-1.9 4.2-4.3z"/><path fill="#e6e6e6" d="m722.1 294h3.1v3c.8-2 2.4-3.4 4.8-3.3v3.2h-.2c-2.7 0-4.6 1.7-4.6 5.4v5.1h-3.1z"/><path fill="#e6e6e6" d="m731.8 288.9h3.1v11.1l5.6-6h3.8l-5.4 5.5 5.5 8h-3.5l-4.1-5.8-1.9 2v3.9h-3.1z"/><path fill="#e6e6e6" d="m744.4 300.8c0-3.9 3.1-7 7.2-7 4.2 0 7.2 3.2 7.2 7s-3.1 7-7.3 7c-4.1 0-7.1-3.1-7.1-7zm11.3 0c0-2.3-1.7-4.3-4.2-4.3s-4.1 2-4.1 4.3 1.7 4.3 4.1 4.3c2.6.1 4.2-1.9 4.2-4.3z"/><path fill="#e6e6e6" d="m760.9 302.6v-8.6h3.1v7.6c0 2.1 1.1 3.3 2.9 3.3s3-1.3 3-3.3v-7.6h3.1v13.4h-3.1v-2.1c-.8 1.3-2.1 2.3-4.2 2.3-3.1.2-4.8-1.8-4.8-5z"/><path fill="#e6e6e6" d="m776.6 303.8v-7.1h-1.7v-2.7h1.7v-3.7h3.1v3.7h3.6v2.6h-3.6v6.6c0 1.2.6 1.7 1.7 1.7.7 0 1.3-.2 1.9-.5v2.5c-.8.5-1.7.7-2.8.7-2.3.1-3.9-.9-3.9-3.8z"/><path fill="#e6e6e6" d="m785.9 289.7h3.2v15h9.4v2.9h-12.5v-17.9z"/><path fill="#e6e6e6" d="m808.7 307.5v-1.7c-.9 1.1-2.3 2-4.4 2-2.6 0-4.8-1.4-4.8-4.2 0-3 2.3-4.4 5.4-4.4 1.7 0 2.6.2 3.7.5v-.2c0-1.9-1.2-2.9-3.3-2.9-1.5 0-2.6.3-3.9.8l-.8-2.5c1.5-.7 2.9-1.1 5.1-1.1 4 0 5.9 2.1 5.9 5.7v8zm.1-5.6c-.8-.3-1.9-.5-3.1-.5-2 0-3.1.8-3.1 2.1s1.1 2 2.6 2c2 0 3.5-1.1 3.5-2.9z"/><path fill="#e6e6e6" d="m817.6 305.5v2.1h-3.1v-18.7h3.1v7.4c1-1.4 2.4-2.5 4.5-2.5 3.2 0 6.3 2.5 6.3 7s-3.1 7-6.3 7c-2.1 0-3.5-1.1-4.5-2.3zm7.7-4.7c0-2.6-1.7-4.3-3.9-4.3-2.1 0-3.9 1.7-3.9 4.4 0 2.6 1.8 4.3 3.9 4.3 2.2 0 3.9-1.7 3.9-4.4z"/><path fill="#e6e6e6" d="m829.6 305.8 1.4-2.1c1.4 1.1 3 1.7 4.4 1.7s2.1-.5 2.1-1.5-1.3-1.4-2.8-1.8c-.1 0-.2-.1-.2-.1-2-.6-4.2-1.4-4.2-4s2.1-4.1 4.8-4.1c1.7 0 3.5.6 5 1.5l-1.2 2.2c-1.3-.8-2.6-1.3-3.8-1.3s-1.9.5-1.9 1.4 1.3 1.4 2.8 1.8c.1 0 .2.1.2.1 2 .6 4.2 1.5 4.2 4 0 2.9-2.2 4.2-5 4.2-1.9 0-4-.7-5.8-2z"/><path fill="#e6e6e6" d="m206.3 434.2c0-5.1 4.1-9.2 9.3-9.2s9.2 4.2 9.2 9.2-4.1 9.2-9.3 9.2-9.2-4.1-9.2-9.2zm17.4-.1c0-4.5-3.5-8.2-8.2-8.2s-8.2 3.7-8.2 8.3c0 4.5 3.5 8.2 8.2 8.2s8.2-3.7 8.2-8.3zm-13.1-.1c0-2.8 2.1-5.1 5.1-5.1 1.9 0 2.9.6 3.9 1.5l-1.4 1.7c-.8-.7-1.5-1.1-2.5-1.1-1.7 0-2.8 1.4-2.8 3.1s1.1 3 2.8 3c1.1 0 1.7-.5 2.5-1.1l1.4 1.4c-1.1 1.1-2.1 1.7-4 1.7-2.9.1-5-2.2-5-5.1z"/><path fill="#e6e6e6" d="m226.1 425.3h3.4l4.2 13.2 4.4-13.3h2.6l4.4 13.3 4.2-13.2h3.3l-6.2 18h-2.7l-4.4-12.8-4.4 12.8h-2.7z"/><path fill="#e6e6e6" d="m252.4 436.4c0-3.9 3.1-7 7.2-7 4.2 0 7.2 3.2 7.2 7s-3.1 7-7.3 7c-4.1 0-7.1-3.1-7.1-7zm11.2 0c0-2.3-1.7-4.3-4.2-4.3s-4.1 2-4.1 4.3 1.7 4.3 4.1 4.3c2.7.1 4.2-1.9 4.2-4.3z"/><path fill="#e6e6e6" d="m269 429.7h3.1v3c.8-2 2.4-3.4 4.8-3.3v3.2h-.2c-2.7 0-4.6 1.7-4.6 5.4v5.1h-3.1z"/><path fill="#e6e6e6" d="m278.6 424.5h3.1v11.1l5.6-6h3.8l-5.4 5.5 5.5 8h-3.5l-4.1-5.8-1.9 2v3.9h-3.1z"/><path fill="#e6e6e6" d="m291.3 436.4c0-3.9 3.1-7 7.2-7 4.2 0 7.2 3.2 7.2 7s-3.1 7-7.3 7c-4.1 0-7.1-3.1-7.1-7zm11.2 0c0-2.3-1.7-4.3-4.2-4.3s-4.1 2-4.1 4.3 1.7 4.3 4.1 4.3c2.6.1 4.2-1.9 4.2-4.3z"/><path fill="#e6e6e6" d="m307.7 438.2v-8.6h3.1v7.6c0 2.1 1.1 3.3 2.9 3.3s3-1.3 3-3.3v-7.6h3.1v13.4h-3.1v-2.1c-.8 1.3-2.1 2.3-4.2 2.3-3 .2-4.8-1.8-4.8-5z"/><path fill="#e6e6e6" d="m323.4 439.4v-7.1h-1.7v-2.6h1.7v-3.7h3.1v3.7h3.6v2.6h-3.6v6.6c0 1.2.6 1.7 1.7 1.7.7 0 1.3-.2 1.9-.5v2.5c-.8.5-1.7.7-2.8.7-2.3 0-3.9-.9-3.9-3.9z"/><path fill="#e6e6e6" d="m332.7 425.3h3.2v15h9.4v2.9h-12.5v-17.9z"/><path fill="#e6e6e6" d="m355.5 443.1v-1.7c-.9 1.1-2.3 2-4.4 2-2.6 0-4.8-1.4-4.8-4.2 0-3 2.3-4.4 5.4-4.4 1.7 0 2.6.2 3.7.5v-.2c0-1.9-1.2-2.9-3.3-2.9-1.5 0-2.6.3-3.9.8l-.8-2.5c1.5-.7 2.9-1.1 5.1-1.1 4 0 5.9 2.1 5.9 5.7v8zm.1-5.6c-.8-.3-1.9-.5-3.1-.5-2 0-3.1.8-3.1 2.1s1.1 2 2.6 2c2 0 3.5-1.1 3.5-2.9z"/><path fill="#e6e6e6" d="m364.4 441.1v2.1h-3.1v-18.7h3.1v7.4c1-1.4 2.4-2.5 4.5-2.5 3.2 0 6.3 2.5 6.3 7s-3.1 7-6.3 7c-2.1 0-3.5-1.1-4.5-2.3zm7.7-4.7c0-2.6-1.7-4.3-3.9-4.3-2.1 0-3.9 1.7-3.9 4.4 0 2.6 1.8 4.3 3.9 4.3 2.2 0 3.9-1.7 3.9-4.4z"/><path fill="#e6e6e6" d="m376.5 441.4 1.4-2.1c1.4 1.1 3 1.7 4.4 1.7s2.1-.5 2.1-1.5-1.3-1.4-2.8-1.8c-.1 0-.2-.1-.2-.1-2-.6-4.2-1.4-4.2-4s2.1-4.1 4.8-4.1c1.7 0 3.5.6 5 1.5l-1.2 2.2c-1.3-.8-2.6-1.3-3.8-1.3s-1.9.5-1.9 1.4 1.3 1.4 2.8 1.8c.1 0 .2.1.2.1 2 .6 4.2 1.5 4.2 4 0 2.9-2.2 4.2-5 4.2-2 0-4.1-.7-5.8-2z"/><path fill="#e6e6e6" d="m505.1 434.2c0-5.1 4.1-9.2 9.3-9.2s9.2 4.2 9.2 9.2-4.1 9.2-9.3 9.2-9.2-4.1-9.2-9.2zm17.4-.1c0-4.5-3.5-8.2-8.2-8.2s-8.2 3.7-8.2 8.3c0 4.5 3.5 8.2 8.2 8.2s8.2-3.7 8.2-8.3zm-13.1-.1c0-2.8 2.1-5.1 5.1-5.1 1.9 0 2.9.6 3.9 1.5l-1.4 1.7c-.8-.7-1.5-1.1-2.5-1.1-1.7 0-2.8 1.4-2.8 3.1s1.1 3 2.8 3c1.1 0 1.7-.5 2.5-1.1l1.4 1.4c-1.1 1.1-2.1 1.7-4 1.7-2.9.1-5-2.2-5-5.1z"/><path fill="#e6e6e6" d="m525 425.3h3.4l4.2 13.2 4.4-13.3h2.6l4.4 13.3 4.2-13.2h3.3l-6.2 18h-2.7l-4.4-12.8-4.4 12.8h-2.7z"/><path fill="#e6e6e6" d="m551.2 436.4c0-3.9 3.1-7 7.2-7 4.2 0 7.2 3.2 7.2 7s-3.1 7-7.3 7c-4.1 0-7.1-3.1-7.1-7zm11.2 0c0-2.3-1.7-4.3-4.2-4.3s-4.1 2-4.1 4.3 1.7 4.3 4.1 4.3c2.7.1 4.2-1.9 4.2-4.3z"/><path fill="#e6e6e6" d="m567.8 429.7h3.1v3c.8-2 2.4-3.4 4.8-3.3v3.2h-.2c-2.7 0-4.6 1.7-4.6 5.4v5.1h-3.1z"/><path fill="#e6e6e6" d="m577.5 424.5h3.1v11.1l5.6-6h3.8l-5.4 5.5 5.5 8h-3.5l-4.1-5.8-1.9 2v3.9h-3.1z"/><path fill="#e6e6e6" d="m590.1 436.4c0-3.9 3.1-7 7.2-7 4.2 0 7.2 3.2 7.2 7s-3.1 7-7.3 7c-4.1 0-7.1-3.1-7.1-7zm11.2 0c0-2.3-1.7-4.3-4.2-4.3s-4.1 2-4.1 4.3 1.7 4.3 4.1 4.3c2.6.1 4.2-1.9 4.2-4.3z"/><path fill="#e6e6e6" d="m606.5 438.2v-8.6h3.1v7.6c0 2.1 1.1 3.3 2.9 3.3s3-1.3 3-3.3v-7.6h3.1v13.4h-3.1v-2.1c-.8 1.3-2.1 2.3-4.2 2.3-3 .2-4.8-1.8-4.8-5z"/><path fill="#e6e6e6" d="m622.2 439.4v-7.1h-1.7v-2.6h1.7v-3.7h3.1v3.7h3.6v2.6h-3.6v6.6c0 1.2.6 1.7 1.7 1.7.7 0 1.3-.2 1.9-.5v2.5c-.8.5-1.7.7-2.8.7-2.3 0-3.9-.9-3.9-3.9z"/><path fill="#e6e6e6" d="m631.5 425.3h3.2v15h9.4v2.9h-12.5v-17.9z"/><path fill="#e6e6e6" d="m654.3 443.1v-1.7c-.9 1.1-2.3 2-4.4 2-2.6 0-4.8-1.4-4.8-4.2 0-3 2.3-4.4 5.4-4.4 1.7 0 2.6.2 3.7.5v-.2c0-1.9-1.2-2.9-3.3-2.9-1.5 0-2.6.3-3.9.8l-.8-2.5c1.5-.7 2.9-1.1 5.1-1.1 4 0 5.9 2.1 5.9 5.7v8zm.1-5.6c-.8-.3-1.9-.5-3.1-.5-2 0-3.1.8-3.1 2.1s1.1 2 2.6 2c2 0 3.5-1.1 3.5-2.9z"/><path fill="#e6e6e6" d="m663.3 441.1v2.1h-3.1v-18.7h3.1v7.4c1-1.4 2.4-2.5 4.5-2.5 3.2 0 6.3 2.5 6.3 7s-3.1 7-6.3 7c-2.2 0-3.6-1.1-4.5-2.3zm7.7-4.7c0-2.6-1.7-4.3-3.9-4.3s-3.9 1.7-3.9 4.4c0 2.6 1.8 4.3 3.9 4.3s3.9-1.7 3.9-4.4z"/><path fill="#e6e6e6" d="m675.3 441.4 1.4-2.1c1.4 1.1 3 1.7 4.4 1.7s2.1-.5 2.1-1.5-1.3-1.4-2.8-1.8c-.1 0-.2-.1-.2-.1-2-.6-4.2-1.4-4.2-4s2.1-4.1 4.8-4.1c1.7 0 3.5.6 5 1.5l-1.2 2.2c-1.3-.8-2.6-1.3-3.8-1.3s-1.9.5-1.9 1.4 1.3 1.4 2.8 1.8c.1 0 .2.1.2.1 2 .6 4.2 1.5 4.2 4 0 2.9-2.2 4.2-5 4.2-2 0-4.1-.7-5.8-2z"/></g>
</svg>
