<?xml version="1.0" encoding="utf-8"?>
<!-- Generator: Adobe Illustrator 23.0.1, SVG Export Plug-In . SVG Version: 6.00 Build 0)  -->
<svg version="1.2" baseProfile="tiny" id="Layer_1" xmlns="http://www.w3.org/2000/svg" xmlns:xlink="http://www.w3.org/1999/xlink"
	 x="0px" y="0px" viewBox="0 0 900 600" xml:space="preserve">
<g>
	<path d="M428.59,474.03c-70.37-4.4-61.95-4.21-63.07-4.14c-0.3,3.94,53.85,4.61,63.27,5.79c0,3.31,0,6.62,0,10.24
		c-14.89,2.69-29.47,8.06-46.01,5.89c-5.49,3.09-107.74-8.41-124.27-9.1c-8.19-0.34-6.92,1.57-4.86-13.85
		c20.65,0,19.82,0.01,32.36-1.34c7.08-0.76,1.92,1.96,12.82,1.65c3.32-0.09,11.34,1.65,17.27,0.41c6.09-1.27,12.2-0.01,18.3,0.72
		c7.55,0.91,15.2,0.62,22.75,1.76c2.89,0.21,5.48-1.96,8.37-2.17c1.11-2.88,10.05-1.6,6-10.96c-2.64-6.09-15.15-3.63-24.92-9.62
		c-5.19-3.18-9.82-7.44-15.61-9.51c-2.3-9.18-3.3-13.31,6.72-27.19c22.87-31.69,19.27-23.59,30.19-54.69
		c1.85-5.28,1.49-11.05,3.31-16.34c1.98-5.78-11.05-12.19-14.99-13.54c-7.24-2.47-13.96-6-21.09-8.58
		c-25.25-9.15-26.59-1.57-32.46-5.58c-2.16-1.48-4.26,1.32-7.03,1.14c-1.24-2.48-3.93-0.72-5.79-1.34
		c-0.72-1.34-0.52-2.79-1.34-3.72c-1.03-0.93-2.27-0.21-3.21-0.83c-0.62-1.34-0.93-3-2.79-3.41c2.89-3.21,3.4-7.34,5.27-10.96
		c6.8-13.14,14.63-25.95,14.27-41.56c-0.12-5.27,1.21-9.74,5.07-13.65c3.29-3.33,5.48-7.65,9.41-10.75
		c8.95,11.77,21.74,14.83,32.67,11.27c1.51-0.38,14.26,1.08,25.85-20.16c3.83,1.65,5.62,1.36,7.03-1.03
		c1.69-2.87,0.83-5.38-2.89-7.96c0.52-3.52,0.09-7.13,0-10.65c-0.57-23.49-23.85-32.21-27.4-34.32c-2.54-1.27-20.09-2.73-31.02,9.93
		c-3.74,4.33-7.96,8.06-10.13,13.65c-4.45-1.34-8.48-2.69-12.41-3.93c-1.39-6.72,1.17-16.72,10.44-15.4
		c11.62,1.64,8.19-7.38,8.99-8.68c1.78-2.88,1.24-6.41,2.89-9.62c3.77-1.8,1.93-3.92-1.14-13.13c4.73-4.28-0.73-8.74,0.83-14.06
		c8.06-2.07,8.06-2.07,8.79-8.68c-1.14-2.27-3-1.03-4.55-0.83c-0.56-1.69,2.72-0.02-1.86-4.03c-1.24,0.31-1.55,1.55-2.58,2.07
		c-1.76-4.34-5.89-2.89-8.99-4.03c0-0.72,0.72-1.34-0.62-2.17c-4.96,2.89-10.34-0.93-15.61,0c-0.62-0.62,0-1.76-1.34-1.76
		c-1.24,1.14-2.89,1.65-4.76,1.55c-5.34-0.28-5.85,2.61-6.93,2.27c-3.5-1.1-5.58,1.86-8.17,2.69c0,1.34,1.34,1.45,1.14,2.69
		c-2.58,0.72-2.28,3.31-3,5.38c-5.28,15.27-0.06,30.56-1.24,37.12c0.62,0.83,1.86,0.93,1.76,2.17c-1.55,6.1-5.38,11.27-11.06,14.47
		c-36.92-11.98-40.93-11.92-47.46-17.89c-1.17-7.51,2.08-16.45-5.58-29.67c-3.16-5.45-0.5,0.48-8.68-9.1
		c-4.14-4.84-13.76-8.57-19.85-10.44c-14.89-4.58-22.78,2.92-29.16,5.89c-7.43,3.47-13.86,11-16.44,16.75
		c-1.92,4.28-0.13,4.03-16.44-1.34c-7.59-2.5-11.84,1.12-12.2,6.31c-0.5,7.22,6.08,7.66,22.44,12.51
		c-5.02,50.98,49.58,66.23,74.75,34.01c1.24,1.96,1.86,3.93,0.62,6.2c-13.42,24.52-19.92,27.5-17.06,40.53
		c1.09,4.95-3.31,17.08,8.99,17.16c2.79,0.02,5.27,1.03,7.65,2.17c8.58-4.24,17.68-7.34,25.23-13.54c1.14,2.27,1.55,4.55,3.41,6
		c-3.09,12.35,5.47,54.92-7.65,60.07c-0.56,2.93-17.45,22.49-18.4,35.05c-1.14,15,1.48,18.82,1.24,23.37
		c-0.2,3.72,0.31,6.93,4.14,8.79c-1.03,2.38-0.21,5.27-2.79,6.93c0.62,1.34,1.14,2.38,1.55,3.31c-2.17,5.58-2.17,10.13,0,10.03
		c1.03-0.31,0.31-1.45,0.93-1.96c1.03,0.1,0.83,1.76,2.58,1.65c-3.52-3.72-2.27-7.34-0.1-11.79c0.83,4.03,0.62,7.75,3.1,10.86
		c1.45-3.41-2.07-5.89-0.62-8.89c1.45-0.31,2.48,1.14,4.03,0.72c-1.24-1.76-4.03-1.24-4.24-3.83c-1.45,1.03-2.48,0.41-3.62-0.62
		c0.72-2.38,0.52-4.86,1.96-6.93c-1.24-1.96-3.41-2.07-4.86-3.93c0.9-6.75-3.45-24.62,0.21-32.88
		c8.16-18.41,10.08-21.22,14.78-24.09c1.65-0.21,1.65,1.45,2.38,1.55c1.76-0.21,1.34-1.86,2.27-2.38c0.72,0.62-0.52,1.96,0.93,2.38
		c1.14-0.72,0.93-2.38,2.27-3.1c0.72,1.34-1.14,2.69,0.41,4.03c1.55-2.21,1.86-4.31,6-1.55c-0.31,1.03-1.34,1.96-0.31,3.1
		c7.73,2.21,3,0.74,3-0.72c1.65,0.72,2.27-1.63,4.14-1.03c4.74,1.51,9.61,2.84,14.58,3.31c1.24,0.12,1.86,1.37,3.62,1.14
		c6.81-0.92,12.98,3.42,19.02-1.86c1.65,6.1-4.45,7.44-6.72,11.27c8.22-4.34,9.5-8.26,8.99-7.75c1.95-5.86,2.05,0.63,4.76,2.79
		c-1.55,4.76-3.83,8.99-4.76,13.75c0.85-0.85,5.69-11.61,6.31-13.54c1.14-0.52,1.96-0.72,2.79,0c-1.23,2.05-4.47,5.8-5.53,9.99
		c3.69-3.19,6.4-8.81,5.62-9.87c8.93-0.64,0.39,2.69-8.35,16.43c6.41-4.96,11.89-10.75,15.51-18.3c4.84,4.11,9.74-0.25,22.23,2.48
		c2.79,0.61,5.79,0.83,8.48,2.79c-4.86,5.69-7.87,12.25-11.17,18.51c-4.38,8.33-8.02,7.36-10.86,26.67c-0.57,3.88,2.6,4.7,2.79,7.34
		c-12.01-5.57-37.23-3.73-39.49-7.24c3.62-0.21,6.72,0.62,9.82-0.31c-2.69-1.24-5.58-0.21-8.27-1.34c0.62-4.45,5.17-2.48,7.24-4.76
		c-1.76-0.41-3.21,0.72-4.76,0.21c-0.62-0.62,0.41-1.65-0.62-2.17c-1.31,0.87-3.25,8.09-8.37,11.48c-3.39,2.24-9.05,7.8-8.06,8.79
		c19.48-18.19,3.82-8.43-1.03,40.11c-9.93,6.2-37.53,3.52-51.07-5.07c0-14.37,3.67-21.35,0.31-24.5
		c-1.03,8.99-3.52,17.06-2.58,25.54c1.03,1.55,2.89,1.96,4.34,3.41c-1.21,16.47,1.35,17.85-3.93,23.47
		c-4.69,4.99-9.14,15.64-10.55,19.23c-8.46,21.56-0.67,29.37-1.65,45.39c-0.58,9.41-0.62,18.82-1.03,28.12
		c-9.39,4.7-8.17,32.47-14.68,33.5c6.25,7.5,43.79,12.71,53.55,12.1c8.94-0.56,13.15,2.54,18.2-4.24c1.85-1.85,1.02,5.58,1.45,7.24
		c2,2.17,123.39,22.43,138.54,16.96c0-7.34,0-14.47,0-22.13c-19.44-2.79-39.18-5.69-58.93-8.58c-0.21-25.74,1.76-50.97,2.79-76.71
		c6.62,1.24,12.51,1.86,19.23,1.45c-2.38,22.44-1.96,44.46-3,66.27c-4.34,1.03-8.58-0.93-12.92,0.93c23.34-0.49,9.62,16.68,17.68-67
		c5.17-0.1,10.24,0.83,16.03,1.14c-1.45,22.64-0.83,45.39-2.58,67.82c-2.17,0.72-4.14,0.31-5.79,1.45
		c1.76,2.07,4.45,2.58,10.03,2.07c-24.26-4.41,32.17,3.64,46.83,4.24c-0.7,1.88-4.96,1.86,4.14,1.86
		c0.93,5.58-0.31,11.06-0.31,16.44c-0.62,1.03-2.27,0.41-2.38,1.96c1.24,0,2.58,0,4.45,0c-0.31-6.82,0.31-13.54-0.31-20.68
		c-18.2-2.79-36.81-3.52-55.11-7.44c1.45-22.64,1.34-45.08,2.38-68.03c20.16,3,39.49-1.45,59.14-6.31
		c0.93-3.72-0.93-7.96,0.41-11.79C430.24,474.14,429.42,474.14,428.59,474.03z M225.02,304.37c-0.1-1.45,0.31-2.17,1.45-2.79
		C226.57,302.82,226.47,303.75,225.02,304.37z M308.35,234.59c2.79-7.13,1.86-13.96,2.38-20.99c3.1-1.86,3.62-6.51,7.55-8.27
		c-1.76-0.31-3.41-0.62-4.14,1.34c-3-3.21-8.89-3.1-8.79-9.1c4.14-1.03,8.06-1.76,10.55,3.1c4.34-0.1,7.32,1.45,8.68,5.69
		C327.98,216.92,324.73,215.47,308.35,234.59z M308.45,205.33c4.57,3.59,5.5,3.24,1.65,5.69
		C309.18,209.26,308.56,207.5,308.45,205.33z M379.79,218.67c-1.45,0.52-2.69-0.1-4.03-0.83c0.21-1.86,1.34-3.31,2.38-4.86
		C381.34,214.94,381.55,215.77,379.79,218.67z M325.2,174.73c6.7-6.14,13.92-7.53,22.85-6c6.4,1.1,10.65,5.38,15.71,9.51
		c0-1.86-1.45-2.17-1.76-3.72c21.35,14.23,18.61,41.59-1.03,58.53c-10.13,8.73-35.42,8.89-43.42-6.1
		c5.69-5.89,13.23-11.27,8.37-21.5c3.25,0.65,0.72,3.67,5.38,6.72c9.54,6.26,17.94-6.31,15.61-15.09
		c-1.57-5.94-10.5-8.63-16.75-1.34c-1.45-0.52-3-0.93-4.55-1.45C321.51,181.05,301.47,196.49,325.2,174.73z M337.3,197.99
		c-3.27-1.28-5.32-1.61-4.65-2.27c1.47-1.31,13.3-6.12,12.92,5.79c-0.27,8.58-11.7,16.46-15.3,5.27c1.92-0.26,8.67,3.29,10.44-2.38
		C341.52,201.81,339.98,199.04,337.3,197.99z M318.07,192.51c-1.45-0.83-1.55-1.03-2.27-2.48c-0.93-0.41-2.07,0.83-3.41-0.31
		C316.41,188.27,317.14,188.68,318.07,192.51z M298.63,187.55c6.41,2.38,13.34,3.1,18.92,7.24c4.03,0,2.03-8.04,3.62-0.1
		c-0.62,0.93-1.76,0.31-2.17,1.24c0.1,1.34,1.34,1.24,4.55-0.41c4.96,1.55,10.13,2.89,14.78,4.96c1.63,4.07-0.32,5.95-3.93,5.17
		c-14.11-3.07-3.87-2.04-14.99-6.41c-9.32-3.66,0.4-4.03-16.34-4.03c-1.55-1.03-1.03-4.34-3.83-4.14
		C298.37,188.41,298.38,189.54,298.63,187.55z M326.03,119.21c-1.45,2.38-3.62,3.31-8.37,3.41
		C320.76,121.07,323.96,121.38,326.03,119.21z M316.93,116.31c-0.72-0.31-0.52-1.03-0.83-1.45c0.06,0,0.1,0,0.13-0.01
		c0.48-0.01,0.95-0.09,1.42-0.09C318.07,115.9,317.45,116,316.93,116.31z M315.07,112.9c1.41,0,1.03,1.02,1.11,1.75
		C315.82,114.33,314.81,113.68,315.07,112.9z M313.11,121.07c-1.45,0-2.17,0-3,0C310.93,120.76,311.66,120.14,313.11,121.07z
		 M305.25,121.07c-0.52,0.21-0.72-0.1-0.72-0.62C304.94,120.45,305.35,120.45,305.25,121.07z M305.97,122.31
		c-0.41,1.03-0.62,1.34-1.86,1.45C304.83,123.24,305.14,122.93,305.97,122.31z M301.84,126.75c-0.31,0.93-0.83,1.14-1.34,1.34
		C300.18,126.86,301.01,127.06,301.84,126.75z M298.63,118.38c0.52,0.1,1.03,0.31,1.03,1.14
		C298.84,119.52,298.22,119.41,298.63,118.38z M290.77,117.86c1.23,0.2,1.03,2.2-0.62,1.65
		C289.84,118.59,290.26,118.28,290.77,117.86z M285.29,115.48c0.41,0.62,0.83,1.14,1.34,1.76
		C284.67,117.04,284.67,117.04,285.29,115.48z M282.71,139.06c2.17,1.14,1.24,2.27,0.31,3.62
		C282.4,141.54,281.47,140.61,282.71,139.06z M280.95,137.2c0.1,2.07-1.14,3.21-2.79,4.14C278.26,139.26,279.81,138.33,280.95,137.2
		z M278.88,147.64c-0.72,0.1-0.93-0.31-0.93-1.34C278.68,146.71,279.19,146.91,278.88,147.64z M275.27,127.58
		c-0.21,0.83-0.41,1.34-1.24,1.03C273.92,127.99,274.23,127.58,275.27,127.58z M271.44,167.28c2.17-3,1.96-7.13,4.86-9.82
		c0.52,4.55,0.72,8.99,1.45,13.34c0.93,0.31,1.24-0.41,1.24-0.93c-0.83-4.14,0.08-8.37-0.93-12.51c-0.63-2.58,1.96-4.65,2.69-7.44
		c2.07,1.45,3.72,3.31,6.51,2.69c0.1,3.1,1.24,5.58,4.45,6.72c-3.81-5.72-2.1-9.51-5.58-8.68c-2.17,0.51-6.2-3.21-5.79-5.27
		c0.31-1.14-1.14-2.27,0.1-3.21c4.03,5.89,4.14,5.89,6.82,3.72c0-1.9-2.25-1.2-2.48-2.79c-0.31-1.34,1.24-0.93,1.86-1.76
		c-0.62-0.83-1.14-1.65-1.86-2.69c3.96-0.34,2.68,4.31,4.76,6.62c1.14,0.52,0.83-0.83,0.83-0.83c1.55-0.41,1.96,0.83,2.89,0.62
		c0.7-1.4-3.26-2.36,1.24-8.27c4.92-6.47,11.59-8.4,12.72-11.58c2.07-0.52,4.42,1.95,5.89-1.65c0.51-1.24,3.52-0.93,4.96,1.34
		c0.49,8.29,2.91,9.63-0.1,12.51c-3.63,3.46,10.36,15.85-3.1,11.89c-0.72,2.89,1.55,2.69,2.89,3.21c1.24,4.55-3.62,2.69-4.76,4.65
		c1.03,1.86,2.38-0.52,3.31,0.41c0.52,0.62,0.72,1.34,0.21,1.96c-3.25,3.95,1.46,8.55-4.03,8.99c-5.56,0.45-14.28-2.45-16.85,9.82
		c-0.84,3.99,0.15,13.58,3.52,12.61c1.45,4.55,2.25,9.2,2.17,13.96c-0.05,3.31-0.72,4.14-3.93,5.58c-0.93-1.14-0.41-2.79-1.55-3.83
		c-1.03,1.55,0.21,3.31-0.83,5.07c-15.28-3.17-13.53-11.81-21.19-24.92c5.07,0.62,8.79,3.93,13.44,4.55
		c-10.02-7.66-14.26-4.22-19.33-10.65c-1.46-1.85-3.52-3.1-4.86-5.17C265.96,172.76,269.06,170.59,271.44,167.28z M268.75,184.44
		c-2.32-0.09-1.88-0.79-7.86-7.86C263.79,178.55,266.06,181.34,268.75,184.44z M213.44,158.7c2.07,1.55,2.07,2.58-0.31,5.27
		C212.61,161.91,213.23,160.35,213.44,158.7z M118.84,142.16c-5.1-1.45-15.24-2.71-11.27-10.44c1.16-2.26,3.21-2.58,5.58-2.79
		c4.55,4.45,4.55,7.44,0.21,10.44c4.24,0.21,5.48-3.31,3.52-10.13c51.34,16.49,54.75,15.8,52.62,23.37
		C167.86,158.42,168.35,156.2,118.84,142.16z M193.9,186.72c-3.18,3.02-7.34,4.55-11.68,4.96c-3.41,2.58-7.55,2.44-11.48,2.69
		c-13.27,0.82-11.25,0.9-18.92-2.79c-19.59-9.44-25.31-34.21-20.99-43.94c0.65,0.05,28.72,7.2,31.02,10.03
		c5.24,6.45,16.78-9.97,3.31-14.89c1.45-0.93,2.89-1.03,4.76-0.52c3.41-8.06,7.96-15.4,13.44-22.02c4.86,2.17,5.27,8.58,1.03,11.99
		c-11.61,9.34-14.24,12.01-10.96,14.47c26.19-4.49,19.98-4.65,26.78,7.24c-9.41-0.21-17.27-5.27-26.57-6.1
		c0.93,5.27,2.07,10.76-3.72,12.61c-5.17,1.66-10.65,0.83-14.06-4.96c-0.72,3-0.01,4.47,2.38,5.79c4.73,2.6,16.85,4.17,18.2-7.75
		c0.4-3.59-3.28-4.12,14.37,1.45c3.39,1.07,10.46,2.7,11.79-0.62c-7.43-18.59-8.38-11.7-28.22-9.72
		c11.69-12.69,18.81-12.92,12.92-24.09c-1.64-3.11-4.63-3.19-6.72-0.31c-4.51,6.23-9.2,12.41-11.68,19.75
		c-20.11-1.22,5.71,5.94-34.22-6.72c2.69-3.93,4.23-8.07,7.75-10.96c31.09-25.5,42.19-11.97,55.93,0.1
		c-1.07-3.75-4.78-5.56-3.93-6.41c-0.59,0.59-1.35-0.18-1.45-0.83c0.83-0.31,1.14,0.31,1.45,0.83
		c19.94,16.47,15.87,32.65,15.61,45.59C209.93,166.28,199.24,181.64,193.9,186.72z M219.44,235.62
		c-25.92,15.3-13.24,5.13-25.54,7.24c-4.96,0.85-7.85-10.5-4.76-15.71c1.23-2.07,0.93-4.34,1.55-6.51c-1.86,0.1-0.93,2.07-2.58,2.48
		c0.83-4.24,1.03-8.37,3.52-11.99c4.96-7.24,9.77-14.53,12.92-22.85c0.59-1.56,2.07-2.48,3-4.14c-2.07-1.24-3-3.1-4.24-5.17
		c3.52-3.93,6.2-8.48,8.37-13.34c3.72,1.03,4.34-1.86,5.27-4.14c13.54,3.72,26.57,8.37,40.63,12.72
		c-20.75,4.61-13.31,5.33-33.5-1.03c-5.58-1.76-1.69-5.93-10.86-5.38c2.38,1.45,6.51,0.52,6.31,5.38
		c-5.27,5.48-4.3,13.45-5.79,20.57c-3.12,14.93,0.53,19.35-1.14,29.67c1.14,0.72,2.07,1.76,3.31,2.89c-3-6.51,1.03-13.23-1.45-19.54
		c2.69-3.83,7.34-4.55,10.34-7.65c-1.14-1.24-2.38,0.62-3.62,0c0.22-2.29,6.91-18.04,28.02-20.88c1.26-0.17,1.53-0.22,5.89,1.96
		c0.1,0,0.31-0.21,0.83-0.41c-0.31-2.27-2.27-1.45-3.41-2.17c3.41-1.34,4.65-1.14,7.13,1.45c-0.31,0.72-1.45,0-1.65,0.93
		c16.44,8.61,18.1,39.4,7.65,51.07c-9.98-7.76-12.66-26.99-22.95-28.64c4.24,2.27,4.76,6.72,6.31,10.75
		c-3.87,3.71-10.35,5.34-15.82,12.41C229.58,230.25,224.31,232.75,219.44,235.62z M237.01,178.86
		c-19.92,11.83-14.1,19.15-22.44,23.68C220.16,170.88,215.21,172.15,237.01,178.86z M230.6,232c6-5.58,11.37-11.79,18.82-16.65
		c4.04,10.96,1.94,2.76-3.83,5.27c2.69,1.24,4.86,2.17,7.34,3.31c1.75,3.38,0.38,15.89,2.69,5.89c2.17,1.65,4.24,3.1,6.62,4.86
		c-3.41,1.65-5.69,4.86-9.93,4.03c-3.19,6.38-10.74,2.5-16.23,1.65c-2.59-0.4-4.03-1.76-4.45-4.34
		C231.33,234.9,230.39,233.66,230.6,232z M270.51,309.65c0.31-0.52,0.62-0.93,0.93-1.45c-1.34-1.34-0.71,2.61-8.99,1.03
		c-18.78-3.58-22.74-3.4-34.95-9.62c3.93-6.31,5.89-13.34,7.03-20.88c7.44,2.17,14.78,3.52,22.33,4.03
		c-7.13-2.69-14.89-2.69-22.44-5.17c-0.72-11.58-2.07-23.26-1.14-35.36c7.13,1.55,14.06,3.21,21.3,0.21
		c2.58,1.55,5.69,2.36,8.58,3.41c2.8,1.02,4.76,0.41,6.72-1.76c-5.17,2.79-8.79-1.76-13.34-2.38c3.21-2.17,6.2-4.14,8.79-6.72
		c1.65,0.52,2.89,2.17,4.86,1.45c-0.41-1.55-1.96-2.38-2.69-4.24c9.82-14.78,8.17-30.19,1.03-45.7c2.43-1.1,2.44-1.2,10.96,16.54
		c5.39,11.23,21.31,15.62,23.47,3.52c0.54-2.99-0.1-5.89-0.52-8.79c7.23,13.78,8.34,34.05-1.34,46.32
		c-3.8,4.82,1.98,19.48-9.3,36.91C279.73,299.66,284.28,311.02,270.51,309.65z M330.78,442.5c-1.03,1.65-3.62,1.45-3.93,3.62
		c1.65,0.83,3.31,0,4.86,0c0.21,0.93-1.03,1.34-0.72,2.27c1.14,1.24,2.58,0.31,3.83,0.21c1.2,0.75-1.94,3.75,5.17,0.83
		c-0.31,1.03-1.34,1.76-0.62,3.1c1.86,0,3.83,1.45,5.89-0.1c0.83,0.62-0.21,1.86,0.93,2.48c1.14,0.52,1.14-1.45,2.38-1.14
		c10.85,4.93,21.34,0.74,21.61,10.24c-6.76,4.22-9.33,6.6-12.51,5.79c-8.01-2.03-22.45-1.6-23.68-2.07
		c-9.74-3.74-26.63,2.26-43.01-1.76c4.14-7.55,6.2-15.09,6.51-23.68c3.93,5.27,6.09,5.86,11.79,4.34c4.34-1.16,8.15-2.91,10.86-6.82
		c1.64-2.38,4.14-4.03,5.69-6.51c2.58,1.65,1.55,4.03,2.17,5.79c-0.52,1.65-2.69,1.86-2.89,3.62
		C326.96,443.84,328.72,441.67,330.78,442.5z M300.8,442.81c1.55-2.07,2.38-4.45,3.21-6.93c5.69-0.21,10.96,0.52,16.65-0.21
		C315.43,442.13,305.94,449.35,300.8,442.81z M317.24,357.31c-1.03-0.72-2.27,0-3.41-0.52c0.93-8.06,7.75-13.03,10.03-19.85
		c1.24-0.93,2.27-0.1,3.1-0.72c0.31-1.24-1.34-1.24-1.24-3c1.86-4.03,4.24-8.48,7.55-12.51c24.54,10.86,37.69,14.52,35.46,21.4
		c-3.41,10.52,2.26,22.19-30.91,66.27c-12.25,16.28-10.29,25.23-18.2,25.23c-0.93-1.03-0.21-2.79-1.65-3.72
		c-3.05,4.19,5.5,4.38-11.79,3.93c0.48-2.78,13.61-26.54,11.68-31.84c-4.85-16.18,15.14-32.9,15.82-41.04
		c-1.86-2.69-4.45-2.07-6.93-1.24c-4.65,1.55-9.51,1.45-14.27,2.58C311.86,358.14,315.79,359.27,317.24,357.31z M311.55,366.1
		c2.79-1.86,6.31-1.24,9.51-2.69c-1.86,3.21-4.45,5.17-7.03,7.65C313.83,368.99,311.76,368.16,311.55,366.1z M193.38,475.69
		c-0.18-5.15,7.96-28.12,14.37-35.15c6.68-7.33,2.15-12.8,4.03-22.85c13.44,1.41,8.58,21.43,8.58,32.98
		c5.5-6.73,3.15-21.59,0.93-29.36c7.86,2.69,15.4,0.62,22.75,2.07c0.41,3.62-0.72,6.31-3.21,7.55c0.72,14.35-13.23,17.71-16.34,36.5
		c-2.1,12.73-7.42,24.51-11.06,36.81c-4.57,15.43-4.18,26.99-1.86,28.95c-5.58,2.58-11.48,2.07-17.68,1.34
		c-0.41-9.62,1.96-18.71,4.14-28.12c-1.65,1.03-1.14,2.58-2.27,3.62c-0.83-4.65-0.52-9.1,0-13.65c3-1.14,3.65-3.92,4.03-6.51
		c1.32-9.03,5.94-15.65,3.83-19.64C195.59,495.21,194.42,505.85,193.38,475.69z M192.04,536.17c4.65,2.07,9.62,1.14,14.78,0.72
		c-0.31,1.76-0.62,3.21-0.83,4.45c-4.86,1.24-8.27,5.89-13.65,4.55C190.28,542.79,190.59,539.58,192.04,536.17z M243.84,576.49
		c-7.23,1.29-41.75-1.78-62.65-9.62c2.79-8.06,6-15.92,6.93-24.4c0.93,0.62,0.83,1.76,1.03,2.58c3.06,9.47,12.62-1.02,18.2-1.24
		c2.17-2.17-0.21-8.37,6.2-6.72c3.3,6.94,6.15,6.47,5.79,8.79c-3.1,0.83-6.51,0.62-9.51,3.21c2.48,0.62,4.45,0.62,6.62,0
		c-0.21,1.45-1.96,1.14-2.07,2.58c3.83,0.93,7.86-1.65,11.68,0.1c-2.58,1.24-5.79,0.41-7.86,2.69c0.83,1.55,2.38,0.41,3.21,1.24
		c-0.34,1.69-1.82,1.45,4.34,1.45c1.86,2.17,4.14,3.93,7.34,1.96c3,3.72,6.73,6.07,11.27,7.34
		C250.3,568.12,248.32,575.69,243.84,576.49z M250.66,564.6c0,1.76,0,3.52-0.31,5.58c0-4.14-3-5.27-5.89-6.31
		c-5.38-1.92-28.88-22.64-28.12-28.33c-1.21-2.02-3.61-0.4-4.68-2.06c0.32-0.08,0.97-0.43,0.75-1.56
		c-3.9-20.14,10.05-35.64,16.34-72.37c1.06-6.2,4.96-3.32,13.03-20.47c0.83-1.76,0.41-3.72,0.31-5.79c3-2.48,4.76-5.69,5.07-10.03
		c4.96-0.31,9.62-1.86,14.16-4.45c-0.1-8.37,2.28-16.64,3.1-25.12c0.83-8.58,5.58-16.13,6.82-25.02
		c14.06,3.21,28.22,2.69,41.87,7.44c2.48-5.38,8.27-7.96,10.86-13.54c2.07-0.93,4.65-1.24,7.55-1.34c-3.1,4.03-4.66,8.88-7.75,12.82
		c-3.73,4.75-5.58,10.44-7.86,15.82c-3.61,8.53,6.49,6.46-11.48,43.42c-2.07,0.21-3.31,1.76-3.62,3.93
		c-2.91,0.87-1.37-6.45-6.51,12.1c-1.49,5.36-1.76,11.58-6.62,16.44c-31.09,3.96-35.51-1.31-36.29,4.96
		c-2.53,20.53-4.94,10.65,29.78,15.61c10.13,1.45,20.26,2.17,30.19,3.21c0.93,25.74,0.62,51.18-1.03,76.82
		c-6.2,0.62-11.99-0.31-17.89-1.45c-0.62-2.58,0.31-5.17,0.52-7.86c3.21-1.45,6.51-0.62,9.61-0.1c2.27-1.86,4.76,0.21,7.24-0.62
		c-7.96-2.74-8.88-1.02-15.92-1.34c-4.13-0.19-3.62,2.61-4.24,9.1C267.41,564.08,250.66,558.3,250.66,564.6z M310.21,568.43
		c-9.1-0.62-18.09-1.55-27.09-2.69C292.32,565.22,301.22,567.7,310.21,568.43z M335.85,570.08c10.12,2.58,45.55,5.17,51.07,8.06
		c0.93,4.34,0.72,16.23-0.31,19.23c-11.22,3.74-126.19-14.79-134.3-16.23c0-5.69,0-11.17,0-16.65c6.82-1.03,13.13,2.27,19.64,0.62
		c-3-0.41-6-0.72-8.99-1.14c4.34-0.41,8.37-0.61,12.41,1.86c5.52,3.38,10.35,1.38,36.19,5.27c1.45-27.09,2.58-54.18,1.86-81.68
		c6.31,0.31,11.89,0.62,17.47,0.93C330.89,580.9,322.6,566.7,335.85,570.08z"/>
	<path d="M586.98,355.96c2.07-0.21,3.2-1.34,4.14-3.83c-2.27,0.93-3.52,1.96-4.34,3.62c-6.32,2.3-5.06,4.14-5.45,4.53
		C584.45,360.81,585.62,357.6,586.98,355.96z"/>
	<path d="M790.45,106.08c1.34-4.34,0.21-8.48,0-12.61c-1.06-21.14-22.32-29.6-26.88-32.36c-2.19-1.56-19.02-2.17-28.12,6.93
		c-16.11,16.11-10.74,14.53-13.75,16.34c-11.64-4.23-13.75-2.65-11.89-10.55c1.83-7.74,4.67-9.1,9.82-8.79c0.12,0,10.16,2,9.72-5.17
		c-0.16-2.62,2.58-9.69,2.58-12.72c3.96-3.14,3.01-2.13-0.72-13.34c4.76-4.55-1.14-9.72,0.83-14.37c7.75-1.45,7.77-1.44,8.58-6.62
		c0.79-5.05-3.69-2.18-4.34-3c0-1.54,2.51,0.1-1.86-3.72c-1.34,0.21-1.45,1.65-2.58,1.96c-1.65-4.14-5.69-3.1-8.89-3.83
		c-0.41-0.72,1.03-1.55-0.72-2.38c-4.96,3-10.34-1.03-15.61,0c-0.52-0.62,0.21-1.76-1.24-1.86c-1.24,1.45-3.21,1.65-5.27,1.65
		c-5.03,0-5.13,2.49-6.62,2.27c-3.41-0.72-5.48,1.86-7.96,2.79c0,1.45,1.45,1.45,1.14,2.69c-2.69,0.83-2.17,3.51-3,5.48
		c-5.17,12.35-0.42,32.37-1.34,36.91c0.31,1.24,1.86,0.93,1.86,2.58c-1.65,6-5.27,10.86-10.96,14.37
		c-51.03-16.4-48.4-13.41-48.08-27.5c0.27-11.47-5.97-22.2-7.34-22.85c-5.53-2.61-6.04-8.54-14.89-12.3
		c-8.48-3.61-14.71-6.53-23.88-5.89c-6.48,0.45-21.22,9-24.3,11.99c-11.04,10.75-8.28,13.26-11.27,15.09
		c-14.8-4.6-15.94-5.6-19.75-5.38c-8.03,0.47-8.9,12.38-2.17,14.37c2.68,0.8,16.77,4.7,18.2,5.69
		c-8.74,51.69,55.22,64.68,74.13,33.29c0.72,1.55,1.24,2.69,1.76,3.83c-0.88,4.09-8.97,17.91-13.85,24.81
		c-7.15,10.11-3.36,18.23-4.24,23.99c-2.08,13.67,10.04,10.24,16.54,13.96c8.79-4.14,17.78-7.44,25.64-13.65
		c0.72,2.69,1.76,4.65,3.21,6.41c-2.73,8.19,4.84,56.94-7.03,58.93c-2.39,0.4-1.33,3.35-4.24,5.27c-4.82,3.19-6.34,8.27-11.99,17.89
		c-3.6,6.12-2.42,22.07-1.65,26.98c0.96,6.13-2.85,8.74,1.45,13.96c2.16,2.63,0.9,3.88-0.52,6.72c-0.1,2.27,1.96,3,2.17,3.93
		c-0.93,12.92-4.14,24.92-3.52,36.91c-0.93,0.93-2.17,0.31-2.27,1.65c1.45,1.76,4.24,0.72,5.79,2.58c-0.62,1.86-0.3,3.72,0,5.58
		c1.08,6.71-3.31,12.7-10.13,13.65c-8.11,1.13-21.83,9.83-28.33,14.99c-12.59,10-4.58,13.22-38.05,51.59
		c-3.83-1.03-7.33,0.94-9.72,3c-7.73,6.66-18.7,16.11-21.92,15.09c-0.1,0.72-0.31,1.34-0.1,1.65c3.52,6.2,6.43,12.79,12.2,17.37
		c3.63,2.88,13.31,16.47,22.54,22.13c7.55,4.62,9.53,10.32,16.96,8.17c4.34-1.25,6.41-5.27,4.34-9.41
		c-1.96-3.93-4.02-7.65-4.65-12.2c-2.52-18.05-5.1-22.85-1.76-30.29c-4.17-4.17-2.47-1.38-0.1-5.79
		c9.32-17.39,32.59-23.86,56.35-47.14c1.04-1.02,2.38-1.77,3.83-1.76c5.89,0.05,10.87-3.15,16.13-5.07c4.1-1.49,5.61-5.85,0.83-3.21
		c-10.93,6.06-16.06,5.07-20.57,7.65c-7,4-12.04,9.93-26.36,19.95c-12.29,8.6-25.99,15.75-32.77,30.29
		c-0.53,1.13-1.55,1.85-2.58,1.24c-19.65-11.6-10.99-8.83-1.55-22.02c1.5-2.09-0.13,1.89,9.41-7.65c-2.17,0.41-2.79,2.07-4.76,2.48
		c2.89-4.24,5.58-8.06,8.89-11.68c3.81,2.01,10.3-5.33,12.13-7.77c-1.28-0.19-0.61-0.2-10.89,6.22c-0.31-0.21-0.52-0.52-0.72-0.72
		c5.38-7.86,8.8-17.14,17.89-22.33c8.28-4.73,15.93-10.52,25.54-12.92c9.6-2.4,12.73-10.79,10.34-20.37
		c0.93-0.72,1.65-0.52,2.17-0.1c3.41,2.27,0,6.62,3.1,9.82c0.31-3.62,1.24-6.41,0.41-9.3c1.45-0.62,2.69-0.41,3.83-0.1
		c0.83,0.52-0.1,1.86,1.14,2.07c0.93-0.41,0.41-1.65,1.34-1.96c8.79-1.34,16.54,2.89,25.12,4.24c-1.86,7.03-2.89,13.85-7.75,19.23
		c-0.72-0.83,0.41-1.86-0.83-2.89c-1.76,6.62-3.41,13.13-9.62,17.78c3,0.41,4.55-1.24,6.31-2.17c-3.57,4.42-4.42,11.13-5.79,14.89
		c-2.93,8.03-11.87,22.47-10.86,32.67c0.8,8.1,4.88,5.21-6,39.29c-1.96,0.21-2.89,1.65-3.21,3.41c-1.24,0.1-1.55-1.86-2.38-1.34
		c-5.54,7.43-4.13,20.5-10.86,29.36c-33.94,3.04-35.31,0.1-35.98,3c-1.13,4.86-1.96,9.72-1.65,15.4
		c20.88,0.52,41.25,3.62,61.93,5.38c-1.28,9.61-1.75,13.84-0.93,17.37c2.62,11.25-0.92,33.28-0.41,49.32
		c0.11,3.31,0,6.72-1.14,10.13c-6,0.21-11.68-0.41-17.47-1.76c-0.1-2.79,0-5.38,0.72-7.96c9.77-1.58,11.32,3.29,15.71,1.76
		c-2.14-0.51-4.18-1.51-6.5-1.25c2.27-1.95,5.06,0.22,7.95-0.51c-2.07-2.33-13.02-1.38-16.23-1.55c-4.07-0.22-3.55,2.68-4.24,9.2
		c-13.03,0-25.64-3.1-38.67-1.86c-0.65,20.66-2.17,19.76,4.24,20.88c157.8,27.76,130.81,17.08,134.2,3.93
		c32.89,3.77,28.81,3.46,29.16,2.07c-9.51-1.96-19.33-2.27-29.16-3.52c-0.21-3.1-0.72-6,0.62-9.3c-19.85-2.89-39.6-5.79-59.45-8.68
		c-0.52-25.74,2.07-50.97,2.79-76.71c6.62,1.24,12.72,1.86,19.54,1.45c-3.1,22.44-1.76,44.35-3.41,66.38
		c-15.16,0-20.8-0.04,0.62,1.34c2.84,0-0.79-10.55,4.45-67.82c5.07,0.21,10.44,0.62,16.03,1.45c-1.45,22.75-0.83,45.28-2.48,67.62
		c-2.07,0.83-4.24,0.31-6.31,1.76c3.31,2.69,6.82,1.86,10.13,1.96c-1.65-0.83-3.72-0.52-5.27-1.65c17.58,1.34,34.84,5.17,52.52,5.79
		c0,0.93-1.96,0.41-1.55,1.86c8.09,0,5.38-2.44,5.38,16.13c-0.52,1.34-2.27,0.72-2.38,2.38c5.33-1,4.45,5.63,4.45-20.78
		c-18.51-2.79-37.01-3.41-55.31-7.44c1.45-22.64,1.14-45.08,2.38-67.51c10.03-0.41,19.75,1.15,29.57-0.52
		c9.72-1.65,19.33-4.34,29.57-6c0.21-4.03-0.41-8.27,0.21-12.72c-6.05-1.62-35.74-1.65-66.06-4.86c-0.29,1.1,0.81,1.63,1.55,1.76
		c73.28,8.84,60.01-3.7,62.14,14.37c-35.32,4.61,6.6,12.16-177.21-3.83c0.21-4.55,0.93-8.79,1.55-13.34c5.38,0,10.65-0.11,15.92,0
		c12.49,0.27,18.06-3.36,23.06,0c1.94,1.3,4.95-0.64,12.3,1.03c6.82,1.55,6.51-2.17,30.29,0.41c7.34,0.8,14.69,0.65,22.02,1.65
		c2.8,0.38,5.27-1.24,7.86-2.07c0.22,0.44,0.21,0.43,0.41,0c7.15-4.55,9.38-4.25,6.41-11.06c-1.5-3.45-8.88-4.85-12.61-5.27
		c-13.54-1.53-17.13-9.34-26.88-13.13c-1.03-0.31-1.56-1.14-1.65-2.17c-0.22-2.38-1.53-4.54-0.52-7.03
		c0.63-1.55-0.52-2.38-1.76-3.31c-2.27,1.86-3.83,4.55-6.31,6c-2.38-0.62-3-2.79-4.24-4.45c-0.83,1.24,0,2.58-0.83,3.83
		c-3.31,1.14-7.03,0.52-10.44,1.14c-1.31-1.57,11.03-26.75,6.51-36.7c-4.23-9.33,10.33-29.81,12.61-40.32
		c0.81-3.73,3.28-6.83,4.34-10.44c0.43-1.45,1.11,0.09,2.27-1.65c-3.26-3.26-0.39-7.13,2.58-10.65c3.23-3.83,4.3-8.34,6.51-18.51
		c16.12,1.13,21.31,7.04,20.06,5.79c2.69,1.24,5.58,2.27,7.86,4.14c5.57-1.24,7.01-34.3,7.86-38.15
		c8.44-38.51-7.84-39.51-0.21-47.14c4.5-4.5,1.46-10.64-3.1-15.2c1.24-3.31,2.69-6.51-0.52-8.99c-0.21-2.17,1.76-3.41,1.24-5.38
		c-0.33-3.58-4.01,5.3,0.83-13.54c0.42-1.65,0.1-3.52,1.03-5.17c25.32-45,8.97-45.88,20.57-57.48c3.31-3.31,5.58-7.55,9.3-10.65
		c11.76,17.63,31.9,11.27,34.84,11.06c10.16-0.73,18.64-11.07,23.78-19.85C793.7,118.12,798.47,109.85,790.45,106.08z
		 M558.75,410.97c-1.6,10,1.28,7.82-0.52,11.17c-2.89-1.34-5.69-3.41-9.51-3.52c1.34,2.27,3.41,3.21,5.48,4.45
		c-1.45,0.41-2.58-0.83-3.62,0.21c2.27,3.41,7.55,3.21,9.72,7.75c-3.31-1.03-5.27-3.62-8.48-3.1c0,1.55,1.55,1.86,2.07,2.89
		c-0.21,0.62-1.14,0-1.24,1.03c8.08,5.14,0.61,6.71,8.37,8.99c0.21,4.86,1.84,9.22,5.07,13.03c2.9,3.42-2.31,9.42-6.82,7.03
		c-7.96-4.22-39.66-34.28-43.94-45.39c6.72-4.65,14.06-8.79,19.85-15.2c0.99,1.13-4.52,6.89,2.89,9.62c4.32,1.59,8.77,0.85,11.79,3
		C553.36,412.39,553.69,406.46,558.75,410.97z M553.48,407.04c-1.34,0.93-2.58,1.76-4.24,2.79c-3.31-1.55-9.1,0.31-12.72-4.24
		c0.31-3.52,2.48-5.79,5.58-7.86C544.9,402.08,549.14,404.56,553.48,407.04z M631.75,567.81c-8.99-0.62-17.99-1.55-27.09-2.69
		C613.76,564.7,622.65,567.08,631.75,567.81z M652.32,489.33c0.98,1.37-2.06,75.27-2.07,75.37c-0.38,4.15-7.15,2.92,51.59,10.75
		c1.76,0.41,3.62,0.41,4.96,1.55c0.62,0.1,1.14,0.21,1.96,0.31c0.41,6.31,0.41,12.72,0.1,19.02c-2.69,1.14-5.07,1.65-7.65,1.34
		c-13.05-1.55-106.33-12.71-127.58-17.68c0.52-5.48,0.62-10.96,0.62-16.54c6.72-0.93,12.92,2.38,19.44,0.72
		c-2.89-0.41-5.79-0.72-8.68-1.14c13.09-1.28,5.93,2.55,26.16,4.45c7.34,0.69,14.58,1.45,22.13,2.58c1.24-27.09,3-54.07,1.76-81.68
		C641.36,488.71,647.05,489.02,652.32,489.33z M647.46,432.68c2.69,2.07,1.76,4.34,2.17,6c-0.83,1.55-2.69,1.76-2.89,3.52
		c1.86,1.14,3.62-1.24,5.69,0c-1.34,1.24-3.41,1.45-4.03,3.41c1.34,0.83,2.79,0,4.14,0.31c0.64,0.54-1.82,5.09,5.48,1.03
		c-0.21,1.24-1.45,1.65-1.24,2.79c1.24,0.93,2.38-0.1,3.62-0.1c1.03,0.52-0.72,1.65,0.52,2.27c1.86,0.41,3.93,1.24,6,0
		c0.62,0.72-0.21,1.86,0.83,2.38c1.03,0.21,0.93-0.93,1.65-1.34c11.58,4.92,21.88,1.15,22.13,10.55c-8.12,5.2-9.57,6.44-12.3,5.79
		c-8.34-1.99-22.81-1.49-23.68-2.07c-9.78-3.56-29.18,2.13-43.11-1.55c4.14-7.24,6.31-14.68,6.72-23.57
		c2.27,3.62,4.76,5.63,8.48,4.96c4.87-0.87,9.78-1.71,12.82-6C642.75,437.78,645.91,436.09,647.46,432.68z M642.29,435.16
		c-5.34,6.79-16.97,13.92-19.85,6.72c2.89-0.72,3-3.41,3.41-5.69C643.26,434.26,641.82,434.21,642.29,435.16z M735.96,15.82
		c-1.76,1.45-3.83,1.96-5.89,2.48C730.07,16.95,728.26,18.25,735.96,15.82z M728.1,10.65c0.1-0.72,0.72-0.52,1.34-0.41
		C729.22,12.24,727.85,11.16,728.1,10.65z M723.87,15.92c-0.83,0.52-1.76,0.52-2.69,0.21C722,15.61,722.93,16.03,723.87,15.92z
		 M712.29,15.51c-1.45,0.1-1.86-0.72-2.69-1.76C711.05,13.85,711.56,14.58,712.29,15.51z M714.25,21.71
		c-2.43,2.43-3.39,1.83-2.48,0.93C712.29,22.23,713.01,21.92,714.25,21.71z M702.46,12.72c0.83,1.86,0.52,2.38-0.72,2.17
		C701.12,13.85,701.95,13.75,702.46,12.72z M701.53,24.61c0.85,0,0.54,0.61,0.31,0.72C701.73,25.45,701.05,25.09,701.53,24.61z
		 M696.36,10.96c1.14,0.21,1.34,1.03,1.76,2.07C696.88,12.61,695.85,12.61,696.36,10.96z M694.09,29.47
		c0.83-0.1,0.62,0.52,0.52,0.93C693.88,30.29,693.68,29.98,694.09,29.47z M694.4,34.32c1.96,1.03,1.34,2.17,0.21,3.62
		C693.68,36.7,692.85,35.67,694.4,34.32z M693.26,31.64c-0.83,1.86-1.14,4.14-3.52,5.17C689.64,34.12,692.02,33.19,693.26,31.64z
		 M689.64,41.67c0.72,0.52,0.93,0.83,0.52,1.34C689.54,42.8,689.64,42.39,689.64,41.67z M686.44,22.95
		c0.45,1.12-0.83,1.51-0.83,0.62C685.61,23.26,685.82,22.95,686.44,22.95z M689.44,65.96c0.31,0,0.72,0,1.03,0
		c0-12.6-1.85-16.04,2.38-20.78c1.65,1.34,3.41,3,6.2,2.58c-0.1,3.21,1.45,5.38,4.45,6.72c-3.36-5.27-2.66-9.95-5.27-8.68
		c-2.47,1.2-4.44-2.18-8.48-6.72c1.14-0.31,1.24,1.03,2.17,0.93c1.14-0.72-1.24-1.96,0.31-2.58c4.34,5.89,4.34,5.89,6.82,3.62
		c-0.1-1.65-2.29-1.34-2.48-2.58c-0.23-1.55,1.34-1.03,1.86-1.86c-0.31-1.34-1.86-1.96-2.38-3.41c4.34,0.52,3,5.27,5.38,7.44
		c0.93-1.14,2.07-1.96,3.72,0c-5.84-9.65,12.69-16.42,13.54-20.47c2.38,0.1,4.51,1.53,6.2-1.45c0.71-1.25,3.21-0.62,4.45,0.83
		c1.71,9.86,2.54,10.74,0.31,13.03c-1.43,1.47,0.18,3.74,2.27,9.3c1.62,4.32-1.65,4.45-5.38,2.38c-0.83,2.58,0.93,3,2.69,3.1
		c1.77,5-3.76,2.54-4.55,5.07c1.14,1.45,2.27-0.52,3.93,0.41c-1.65,2.89-0.87,6.43-2.07,9.51c-1.6,4.11-16.08-3.59-18.71,8.79
		c-1.12,5.28-1.55,10.55,2.17,15.3c1.03-1.03-0.52-2.17,0.21-3.21c4.65,0.52,15.4,4.34,19.02,6.82c2.27-0.21,2.27-2.07,2.79-3.83
		c1.72,6.9-0.67,2.83-1.45,5.17c1.65,1.76,2.89-0.1,4.55-0.72c4.76,1.55,9.82,3.21,14.68,4.65c2.06,4.42-0.43,6.15-3.52,5.48
		c-14.39-3.13-4.61-2.16-14.37-6.2c-8.06-3.34-4.79-4.81-10.86-4.34c-10.68,0.82-5.08-1.75-10.03-4.45
		c1.67,9.75,4.09,18.92-2.27,19.75c-0.83-1.45-0.21-3.21-1.45-4.45c-1.14,1.65,0.21,3.62-0.83,5.79
		c-14.69-3.6-12.9-9.51-20.88-24.92c4.86,0.41,8.58,3.93,13.34,4.34c-16.53-10.72-6.92,0.61-25.12-15.4
		C690.65,61.53,686.75,37.05,689.44,65.96z M723.97,85.19c3.21-2.17,4.86-1.24,5.79,3.21c-1.65-0.83-2.17-1.96-2.27-3.31
		C726.14,85.4,725.11,85.81,723.97,85.19z M749.3,93.46c-1.75-0.64-3.52-1.24-5.58-1.86c3-3.52,6.81-2.32,10.03-1.86
		c5.07,0.73,5.37,15.09-4.55,17.89c-3.19,0.9-5.69-0.83-7.34-5.38c1.86-0.41,3.31,0.51,4.76,0.72
		C753.11,103.94,754.58,95.4,749.3,93.46z M680.44,79.92c-2.79-0.31-2.89-2.58-4.14-3.72C677.96,76.82,678.99,78.16,680.44,79.92z
		 M673.72,73.1c-1.03,0.52-1.24-0.52-1.65-0.93C673.1,71.96,673.41,72.47,673.72,73.1z M625.03,53.55c1.96,3.1,1.86,3.72-0.62,5.58
		C623.89,57.07,625.13,55.42,625.03,53.55z M523.29,35.67c-6.21-1.46-7.73-10.56,1.24-11.37c4.34,3.93,4.45,7.13,0.31,10.34
		c4.03,0.1,5.07-2.38,3.93-9.93c0.41,0.13,42.99,13.68,48.08,15.61c5.38,2.05,6.1,7.34,1.24,11.17
		C535.28,38.8,531.84,37.67,523.29,35.67z M613.34,71.13c-5.7,7.2-6.32,13.11-21.47,16.62c2.45-2.27,9.48-3.16,9.69-7
		c-4.37,3.96-13.85,5.97-9.75,7.02c-4.61,1.06-10.53,1.9-18.37,2.49c-4.82,0.36-26.28-6.84-31.64-32.36
		c-0.61-2.91-2.61-11.42,0.83-15.2c9.51,2.79,19.11,5.74,28.85,8.58c1.45,0.42,1.97,2.16,3.62,2.58c7.66,1.98,12.4-12.56,1.45-15.82
		c1.55-1.03,3.1-0.93,4.96-0.72c3.31-7.96,7.96-15.2,13.34-21.92c4.86,2.38,5.39,8.49,1.03,11.99
		c-26.66,21.45-4.51,11.79,10.13,11.58c2.38,2.89,3.62,6.31,5.27,9.72c-6.52,1.45-21.64-7.03-26.05-5.17
		c0.72,4.45,1.96,9.71-3.31,11.79c-5.48,2.16-10.96,0.93-14.78-4.86c-0.41,4.76,2.38,6.8,7.96,7.24c9.93,0.78,12.72-3.72,12.82-12.1
		c12.99,3.87,23.95,8.12,26.26,3.72c-6.12-16.19-7.15-13.61-26.47-10.13c-4.06,1.01,6.66-8.02,8.89-9.82
		c6.22-5.05,4.72-8.88,2.27-13.85c-4.72-9.6-16.22,13-18.51,19.33c-3.31-0.1-6.72-1.55-9.72,1.14c-7.96-2.58-15.92-5.07-24.3-7.75
		c1.76-3.72,3.4-7.45,6.31-9.93c38.05-32.38,50.96-3.69,56.45-1.86c-0.72-2.58-3-4.03-5.07-6.2c1.45,0,2.06,0.74,2.58,1.24
		c15.88,15.16,14.99,26.68,14.99,36.91C622.55,57.28,618.59,64.5,613.34,71.13z M630.3,131.2c-26.58,15.42-12.11,4.9-25.12,7.13
		c-5.04,0.86-7.7-10.62-4.65-15.92c1.06-1.85,1.14-3.93,1.34-6.1c-1.55,0.21-1.03,1.65-2.27,2.17c2.68-18.32,9.31-14.71,16.34-35.05
		c0.53-1.55,2.38-1.96,2.38-4.03c-1.55-1.14-2.48-3-3.72-5.07c3.52-3.72,6.1-8.27,8.27-13.23c3.62,0.93,4.45-1.65,5.17-4.14
		c13.65,3.83,26.88,8.37,40.73,12.72c-21.08,4.55-12.83,4.45-33.19-1.03c-4.94-1.33-1.46-6.76-10.96-5.38
		c1.3,2.75,3.79-2.39,6.82,4.96c-4.45,3.93-4.36,9.61-5.27,14.89c-5.04,29.05-0.04,20.66-2.17,36.08c1.86-0.1,1.86,1.86,3.83,2.89
		c-3.41-7.03,0.41-13.75-1.86-20.06c2.79-3.72,7.24-4.55,10.34-7.44c-1.24-1.14-2.27,0.31-3.41,0.21
		c0.93-9.93,17.06-21.19,30.29-21.3c2.58-2.07,5.07-1.76,8.06,0.83c-0.31,0.93-1.76-0.21-1.86,1.45c0.43,0.65,4.03,0.06,7.44,5.58
		c11.23,18.19,7.37,38.69-0.31,45.59c-1.55-4.45-6.21-6.2-7.65-10.75c-1.96-6.16-8.16-16.01-14.68-18.51
		c4.14,2.48,4.45,7.03,6.1,10.86c-3.47,3.19-10.94,6-15.92,12.51C640.73,125.81,635.27,128.32,630.3,131.2z M648.5,74.23
		c-20.52,12.18-14.22,19.48-22.02,23.57c-0.62-1.45-0.03-2.59,0.21-3.83C631.77,66.98,624.92,67.25,648.5,74.23z M642.29,127.06
		c5.79-5.17,11.17-11.68,18.51-16.34c4.85,10.23,0.93,3.31-3.62,5.38c9.76,4.29,7.61,1.92,8.27,12.51c1.76-0.62,0.93-2.38,1.86-3.52
		c1.65,1.96,4.34,2.69,5.89,4.96c-2.17,2.07-4.76,3.1-7.03,4.45c-0.93,0-1.14-1.03-2.17-0.72c-0.93,0.72-0.62,2.5-2.48,3
		c-2.37,0.64-4.65,1.64-7.24,0.52C651.56,136.12,641.84,137.53,642.29,127.06z M637.74,195.92c0.93-0.41,1.34,0.21,1.86,0.62
		c-0.72,0.83-0.62,2.17-2.17,2.27C636.3,197.68,637.33,196.85,637.74,195.92z M694.71,220.63c-1.28,6.21-11.72,12.87-0.41,6.51
		c4.86,3.86,6.4,12.14-0.52,13.13c-0.52,1.24,1.23,0.82,0.93,1.65c-1.53,4.31,0.54,7.74,2.27,11.58
		c6.06,13.37,1.36,12.52-2.07,52.62c-0.69,8.07-1.96,12.72-4.65,16.75c-6.82-3.31-13.23-7.96-21.3-8.48
		c1.24-13.03,1.86-25.74,8.17-37.32c3.52,3.41,8.06,4.34,13.54,4.45c-3.43-2.74-13.72-2.57-15.61-11.89
		c-0.29-1.45-1.03-2.58-2.48-3.21c-1.24,1.45,0,2.58,0.31,3.72c3.78,10.16-1.5,9.82-3.83,24.09c-5.57,34.19,11.03,13.03-49.32,13.03
		c0.83-8.06-0.42-15.51,1.55-22.85c0.72-2.69,0.7-5.58,0.83-8.48c0.39-8.54,1.97-5.72-1.34-10.55c1.65-2.79,3.31-5.79-0.62-9.2
		c2.87,0.41,4.93-1.01,6.29,1.41c2.56-1.47,5.32,0.13,7.98-0.37c-2.38-2.58-7.96-3.72-14.37-2.79c-1.98-2.97,1.84-2.1-0.31-14.37
		c-2.48-14.19,2.15-26.02,10.65-37.43c3.88-5.21,8.32-1.51,20.68,0c-3.41-2.05,0.12-1.24,0-2.48c-0.41-0.62-0.41-0.62-3.72,0.72
		c-0.83-0.62,0.62-1.24-0.1-1.96c-1.34-0.31-2.27,2.69-4.14,0.93c-0.41-1.14,0.41-2.17,0.83-3.52c19.52,5.14,18.69,4.44,17.99,6.31
		c3.62-1.24,6.93,0.52,10.44,1.14c-0.3,0.79-0.79,1-1.46,1.02c0.1,0.1,0.01-0.46,0.01,1.77c1.45-0.83,3.62,0.31,4.03-2.48
		c1.55,1.03-0.21,2.27,0.93,3c2.52-0.46-1.58-5.45,14.27,2.27c-0.31,0.93,0,2.07-1.03,2.58c-1.86-0.83,0.62-1.76-0.31-2.79
		c-1.14,0.52-1.76,1.86-3.72,1.76c2.38,1.76,4.76,2.27,6.72,3.41c1.55-0.62,0.31-2.69,2.07-3.1c-0.21,2.38-0.41,4.65-0.62,7.13
		C687.96,223,692.74,219.93,694.71,220.63z M641.36,196.33c0.62,1.34-0.31,1.96-0.41,3.21
		C640.12,197.99,641.15,197.37,641.36,196.33z M719.11,120.34c-0.38,15.26-8.48,16.11-8.48,26.47c0,25.04-8.62,25.91-16.54,49.32
		c-2.43,7.19,1.29,2.95-2.07,11.58c-4.13,1.55,1.08-5.25-1.24-12.2c-1.03,3.41-0.52,7.24-2.27,11.06c-6.31-3.31-13.13-4.76-20.06-6
		c-0.21-2.69,0.31-5.38-2.27-7.44c1.33,10.61,1.55,5.45-26.16,0.62c11.75-29.15-3.93-17.8,28.43-15.61
		c-7.24-2.69-14.99-2.69-22.75-5.27c-0.31-11.58-2.27-23.16-0.93-35.26c7.03,1.55,14.06,3.1,20.78,0.41
		c4.96,1.34,9.2,5.48,14.68,2.48c-2.07-0.93-4.91,1.48-6.51-1.24c-1.39-2.35-4.96,1.03-5.69-2.69c3-1.65,6-3.52,8.58-6.2
		c1.55,0.72,2.79,2.17,4.65,1.55c-0.21-1.76-1.86-2.48-2.48-4.24c9.82-14.78,8.06-30.09,1.03-45.49c2.17-0.31,2.25-0.4,3.31,1.65
		c8.6,16.68,9.19,21.66,19.75,25.12c4.88,1.6,9.47-0.94,11.06-6c1.01-3.21-0.1-6.31-0.21-9.51
		C718.26,101.65,719.34,111.07,719.11,120.34z M720.45,128.72c2.38-6.41,1.14-13.13,1.76-19.95c3.31-1.65,3.52-6.41,7.75-7.86
		c-2.79-0.72-2.79-0.72-4.34,1.03c-2.69-3.31-8.79-3.1-8.79-8.89c5.07-1.86,6.82-1.45,10.75,2.89c4.24-0.1,7.25,1.65,8.68,6.2
		C739.05,110.98,736.65,111.39,720.45,128.72z M724.38,103.9c-0.83,1.14-1.65,1.96-3,2.27C718.15,97.01,719.25,101.02,724.38,103.9z
		 M772.87,128.1c-10.74,9.25-35.88,8.69-43.63-6c5.58-5.89,13.34-11.06,8.37-21.19c1.86-0.41,1.77,0.72,2.07,1.55
		c2.69,7.51,9.77,9.05,15.2,3.21c11.79-12.69-3.38-26.71-12.92-14.78c-7.92-2.26-3.44-1.86-7.24-6c-6.7-2.09-5.81-2.58-9.41-2.58
		c1.13-4.19,19.26-24.72,34.84-18.3c4.24,1.75,9.25,2.04,11.99,6.51c0.39,0.63,1.44,1.03,2.27,1.24c0.21-1.24-1.45-1.34-1.34-2.58
		c3.21,2.27,6.51,4.14,7.86,7.86c6,6.82,9.04,14.56,6.93,23.78C785.69,110.29,786.38,116.46,772.87,128.1z M790.96,114.24
		c-1.24,0.1-2.48-0.31-3.62-1.24c0.41-1.86,1.24-3.21,2.27-4.45C792.82,109.8,793.24,111.25,790.96,114.24z"/>
	<path d="M649.49,568.24c0.04-0.03,0.08-0.07,0.14-0.12C649.54,568.19,649.51,568.22,649.49,568.24z"/>
	<path d="M657.49,558.09l-0.1,0.1C658.19,558.19,657.86,558.21,657.49,558.09z"/>
	<path d="M682.92,321.43c-0.93,2.27-2.79,4.34-2.58,7.03c0.52,2.58,0.1,4.96-0.93,7.24c-2.05,5.32,2.02,6.71-3.72,17.37
		c-4.32,8.03,0.25,9.05-4.45,23.37c-3.72,11.33-17.97,28.82-24.19,50.45c5.25-2,1.6-7.61,20.99-38.46
		c11.22-17.86,4.99-27.31,10.55-37.12c4.92-8.69,1.6-10.21,3.52-16.44c1.23-4.01-0.16-7.52,1.03-9.1
		C684.29,324.24,683.75,322.88,682.92,321.43z"/>
	<path d="M632.06,322.98c-5.67,17-5.75,7.96-15.82,23.68c1.49-1.02,8.62-0.73,17.16-20.68
		C633.93,324.75,633.81,323.71,632.06,322.98z"/>
	<path d="M677.55,326.6c-1.55,1.14-2.19,2.68-3.2,3.93c-4.87,5.98-6.99-0.82-10.03-0.21c1.65,3.62,4.65,4.55,8.27,4.55
		c-1.55,4.03-0.62,7.44,1.55,10.86c1.57-1.74-3.05-6.88,1.14-12.72C678.22,328.91,678.87,327.92,677.55,326.6z"/>
	<path d="M224.61,369.82c-1.86-1.96-4.76-0.62-6.51-2.27c0.93-2.07,3.1-0.52,4.34-1.65c-1.82-2.27-2.31,2.14-4.45-6.41
		c2.27-1.86,5.38-1.96,7.24-4.45c-4.55,1.76-9.41,2.69-14.27,5.79c2.58,0.93,4.03-0.83,5.89-0.62c1.03,2.58,0.62,4.96-0.21,7.34
		C211.6,367.54,219.02,370.64,224.61,369.82z"/>
	<path d="M266.68,360.62c1.15-4.61-21.3-23.81-24.61-18.4C252.52,345.32,259.86,352.45,266.68,360.62z"/>
	<path d="M256.55,332.08c4.62,8.59,3.67,6.86,5.07,6.51c-6.98-17.27-13.61-12.91-24.09-22.23
		C238.9,321.52,252.65,324.83,256.55,332.08z"/>
	<path d="M287.36,345.52c4.65-10.44,11.89-19.02,19.33-27.4C297.6,325.36,290.77,334.36,287.36,345.52z"/>
	<path d="M581.71,374.88c-3.21,2-1.16,4.28,0.52,0.52c6.62-4.65,12.72-9.82,16.34-17.37C592.87,363.51,586.46,368.47,581.71,374.88z
		"/>
	<path d="M660.7,364.03c2.24,14.37-3.98,19.83-4.76,24.92C661.73,383.98,664.83,367.75,660.7,364.03z"/>
	<path d="M390.23,587.14c9.3,1.03,18.61,2.07,28.12,3.1C415.67,587.76,396.33,585.28,390.23,587.14z"/>
	<path d="M285.6,313.27c-2.88-0.72,0.53,4.82-6.31,11.89c-3.11,3.22-9.84,9.25-8.37,11.27C281.23,324.4,286.45,320.87,285.6,313.27z
		"/>
	<path d="M560,392.46c5.89-3.93,18.09-14.37,18.51-15.82C574.78,378.19,563.1,388.01,560,392.46z"/>
	<path d="M267.1,327.84c-2.79-5.17-11.79-8.99-16.44-6.82C256.76,322.36,262.24,324.43,267.1,327.84z"/>
	<path d="M212.3,389.15c-2.89,6.2-2.17,12.92-2.17,19.44c1.14-3.21,1.71-6.4,1.34-9.72C211.11,395.57,212.82,392.46,212.3,389.15z"
		/>
	<path d="M611.07,338.39c-2.07,3.83-3.62,7.44-3.52,11.68C610.24,346.45,612.31,340.46,611.07,338.39z"/>
	<path d="M218.3,350.07c0.83-5.89,2.58-11.27,4.65-16.54C219.54,338.7,217.57,345.94,218.3,350.07z"/>
	<path d="M617.58,355.14c3.79-4.05,1.75-2.25,7.65-7.75C620.99,347.59,619.75,348.93,617.58,355.14z"/>
	<path d="M640.74,340.04c1.03-3.72-0.41-6.1-2.38-8.89C639.09,334.15,637.95,337.15,640.74,340.04z"/>
	<path d="M658.21,358.96c0.1-3.93-1.65-7.13-3.72-10.13C655.01,352.45,657.49,355.34,658.21,358.96z"/>
	<path d="M239.7,334.25c1.36-0.91,1.65,0.68-4.76-8.58c-0.21,0.1-0.41,0.21-0.62,0.41C235.98,328.88,237.22,332.08,239.7,334.25z"/>
	<path d="M365.73,496.68c-0.52,4.03-0.93,8.17-0.52,12.3C364.9,504.84,366.35,500.81,365.73,496.68z"/>
	<path d="M684.27,544.23c0-12.54,0.11-11.27-0.21-11.27C684.06,545.48,683.97,544.23,684.27,544.23z"/>
	<path d="M665.66,561.19c1.96,0.83,3.93,1.14,5.79-0.31C669.59,561.09,667.62,560.67,665.66,561.19z"/>
	<path d="M362.21,534.31c0,3.41,0,6.93,0,10.44C362.83,541.24,362.63,537.72,362.21,534.31z"/>
	<path d="M344.22,561.5c1.96,1.03,3.83,1.45,5.69,0.41C349.28,560.64,351.36,561.1,344.22,561.5z"/>
	<path d="M687.37,506.29c0-11.36,0.13-10.24-0.31-10.24C687.06,507.41,686.93,506.29,687.37,506.29z"/>
	<path d="M278.06,352.97c0.72-2.17,1.45-4.24,2.17-6.41C277.95,348.21,277.54,350.48,278.06,352.97z"/>
	<path d="M637.95,420.89c-0.72,2.27,0.1,3.93,1.14,5.48C639.71,424.51,639.71,422.75,637.95,420.89z"/>
	<path d="M651.18,394.73c2.27-1.24,4.03-1.76,4.34-4.45C653.66,391.43,652.53,392.67,651.18,394.73z"/>
	<path d="M739.37,572.25c-1.03,2.07-0.93,4.14-0.21,6.31C739.17,576.49,740.1,574.42,739.37,572.25z"/>
	<path d="M631.64,343.35c-2.89-0.21-3.93,1.55-4.96,3.1C628.33,345.94,630.2,345.73,631.64,343.35z"/>
	<path d="M604.76,355.86c2.69-1.65,2.89-3.62,2.79-5.79C605.9,351.42,605.59,353.38,604.76,355.86z"/>
	<path d="M418.04,572.25c-1.86,2.38-1.03,4.34-0.83,6.41C417.73,576.8,418.56,574.94,418.04,572.25z"/>
	<path d="M213.13,330.43c0.21,2.07,0.83,4.03,1.96,5.89C214.89,334.25,215.3,331.88,213.13,330.43z"/>
	<path d="M226.57,314.3c1.14-2.07,1.76-3.52,1.65-5.27C226.98,310.27,226.67,311.82,226.57,314.3z"/>
	<path d="M612,336.53c-0.41-2.07,1.14-2.58,1.34-4.24C610.26,332.55,610.43,334.83,612,336.53z"/>
	<path d="M257.59,313.68c-1.55-1.03-2.89-0.93-4.24-0.62C254.59,313.68,255.72,314.4,257.59,313.68z"/>
	<path d="M642.71,329.39c-0.1,1.65-0.1,2.69,1.03,4.03C644.26,331.88,643.53,330.94,642.71,329.39z"/>
	<path d="M256.86,379.85c0.97-0.44,2.92-2.15,2.17-2.89C257.9,377.68,257.38,378.71,256.86,379.85z"/>
	<path d="M631.54,341.59c1.34,0.1,1.96-1.03,2.89-1.76C632.47,340.04,632.47,340.04,631.54,341.59z"/>
	<path d="M331.2,558.91c1.24,0.62,1.96,0.62,2.48-0.41C332.96,558.4,332.34,558.09,331.2,558.91z"/>
	<path d="M613.14,357c0.41-1.03,1.14-1.86,0.62-2.89C612.52,354.26,611.91,356.39,613.14,357z"/>
	<path d="M315.59,318.85c-0.41,0.31-1.14,0.41-1.03,1.34C315.28,320.09,315.48,319.47,315.59,318.85z"/>
	<path d="M628.44,321.95c-1.14,0.72-1.34,1.34-0.41,2.89C628.23,323.6,628.85,323.09,628.44,321.95z"/>
	<path d="M602.59,352.66c-0.83,0.62-1.45,1.03-1.14,2.27C602.59,354.41,602.9,353.79,602.59,352.66z"/>
	<path d="M602.38,341.9c-2.03,0.45-2.25,2.88-0.21,1.34C602.49,342.83,603,342.52,602.38,341.9z"/>
	<path d="M613.14,347.59c0.62-0.83,1.14-1.34-0.21-1.76C612.52,346.35,612.62,346.87,613.14,347.59z"/>
	<path d="M640.12,377.88c-0.62,0.52-0.62,1.14-0.83,2.27C640.53,379.43,640.33,378.71,640.12,377.88z"/>
	<path d="M637.74,415.41c-0.21,0.83-0.83,1.76,0.1,2.69C638.57,417.17,638.47,416.34,637.74,415.41z"/>
	<path d="M338.23,560.67c-0.93,0-1.55,0-2.17,0C336.68,560.88,337.3,561.4,338.23,560.67z"/>
	<path d="M653.46,558.19c1.14,0.83,2.38,0.21,3.52,0.1C655.84,557.78,654.7,557.57,653.46,558.19z"/>
	<path d="M659.35,560.16c-0.52,0-1.03-0.31-1.55,0.1C658.32,560.47,658.83,560.57,659.35,560.16z"/>
	<path d="M709.8,566.67c-0.41-0.21-0.72-0.31-1.24,0C709.08,566.67,709.39,566.67,709.8,566.67z"/>
	<path d="M362.21,558.4c0.21-1.67,0.09-1.45-0.1-1.45C362.11,557.26,362.11,557.57,362.21,558.4z"/>
	<path d="M235.56,305.82c-0.62,0.83-1.76,0.72-0.62,2.17C235.46,307.68,235.87,307.37,235.56,305.82z"/>
	<path d="M647.25,420.27c-0.21,0.52-0.52,1.03,0.21,1.34C648.19,421,647.77,420.69,647.25,420.27z"/>
	<path d="M551.52,398.87c1.03-0.1,1.55-0.41,1.24-1.34C552.03,397.63,551.62,397.94,551.52,398.87z"/>
	<path d="M620.79,327.22c-1.03-0.21-1.34,0.52-1.55,1.34C620.27,328.67,620.79,328.26,620.79,327.22z"/>
	<path d="M215.61,338.8c0-0.93,0-1.65-0.52-2.38C215.09,337.15,214.89,337.97,215.61,338.8z"/>
	<path d="M593.49,350.48c1.34-0.1,1.76-0.72,2.07-1.65C594.32,348.83,593.8,349.35,593.49,350.48z"/>
	<path d="M603.73,359.38c0.83-0.31,1.34-0.83,1.03-2.07C603.83,357.93,603.31,358.45,603.73,359.38z"/>
	<path d="M387.85,567.08c-0.21,0-0.41,0-0.52,0C387.34,567.08,387.65,567.6,387.85,567.08z"/>
	<path d="M739.06,586.31c0,0.1,0.21,1.06,0.21-0.21C739.17,585.9,739.06,586,739.06,586.31z"/>
	<path d="M649.94,395.87c-1.03,0.1-1.55,0.41-1.34,1.34C649.43,397.32,649.84,397.01,649.94,395.87z"/>
	<path d="M663.9,326.29c-0.1-0.41-0.41-0.62-0.72-0.52c-0.68,0.68,0,0.62,0.41,1.03C663.69,326.6,663.8,326.5,663.9,326.29z"/>
	<path d="M286.84,328.15c0.61-0.4,0.91-0.91,0.83-1.6c-0.49,0.21-0.96,0.49-1.34,0.67C286.53,327.53,286.33,328.05,286.84,328.15z"
		/>
	<path d="M286.22,327.33l0.1-0.1C286.33,327.19,286.26,327.29,286.22,327.33z"/>
	<path d="M308.66,558.5c-1.86-1.34-4.03-1.24-6.1-1.55C304.42,558.4,306.49,558.81,308.66,558.5z"/>
	<path d="M282.4,287.31c-2.38,2.07-5.07,13.34-5.07,20.06C281.78,302.66,279.05,293.32,282.4,287.31z"/>
	<path d="M272.06,235.21c-0.1,3.62,1.45,4.86,5.48,4.14C275.68,237.79,274.96,235.21,272.06,235.21z"/>
	<path d="M255.62,305.61c1.86-2.48,1.76-3.93-0.62-7.24C255.31,300.76,254.28,303.24,255.62,305.61z"/>
	<path d="M295.94,237.17c-1.24,1.14-3.62,1.14-3.83,3.83C294.39,240.27,295.32,238.93,295.94,237.17z"/>
	<path d="M244.56,251.13c0.93,2.48,2.58,2.27,3.72,2.89C248.6,253.05,249.61,253.65,244.56,251.13z"/>
	<path d="M252.73,292.38c0.1,1.14-0.62,2.58,1.14,3.41C254.79,294.35,254.17,293.21,252.73,292.38z"/>
	<path d="M282.92,239.86c0.72,1.45,2.07,1.03,3.1,1.03C285.09,240.17,284.36,238.72,282.92,239.86z"/>
	<path d="M248.49,244.62c-0.21,1.76,0.62,2.38,2.38,3C250.35,245.96,250.04,244.82,248.49,244.62z"/>
	<path d="M252.73,248.13c0.41,1.55,1.24,1.86,2.48,1.76C255,248.44,254.28,248.03,252.73,248.13z"/>
	<path d="M278.37,231.49c-0.21-1.14-0.83-1.34-2.27-1.03C276.82,231.38,277.23,232.21,278.37,231.49z"/>
	<path d="M256.66,249.89c0.62,1.14,1.24,1.24,2.17,0.72C258.31,249.79,257.79,249.27,256.66,249.89z"/>
	<path d="M293.05,252.89c0.72-0.52,1.14-0.93,0.62-1.65C293.15,251.65,292.74,251.96,293.05,252.89z"/>
	<path d="M250.45,274.7c-1.03-0.1-1.86-0.21-2.58-0.31C248.59,275.01,249.31,275.12,250.45,274.7z"/>
	<path d="M285.29,279.97c0.31-0.41,0.62-0.72,0.83-1.03C285.4,278.94,284.88,279.15,285.29,279.97z"/>
	<path d="M246.11,274.08c0.62,0.41,1.24,0.21,1.86,0.21C247.35,273.98,246.83,273.67,246.11,274.08z"/>
	<path d="M240.94,272.63c0.31,0.31,0.62,0.31,0.93,0.1C241.56,272.43,241.25,272.43,240.94,272.63z"/>
	<path d="M201.55,166.97c0.21,0.1,0.52,0.1,0.72,0.21c1.55-4.24,3.21-8.58,3.52-13.23C204.28,153.94,205.58,151.58,201.55,166.97z"
		/>
	<path d="M189.97,184.86c-3.41,3.52-7.75,4.45-11.27,7.13c1.34,0.62,2.38-0.62,3.52-0.31C183.91,189.56,190.48,188.95,189.97,184.86
		z"/>
	<path d="M200.72,171.93c-2.79,3.31-5.27,6.2-7.75,9.2C196.79,179.27,200.41,175.04,200.72,171.93z"/>
	<path d="M202.69,127.37c0.41,2.79,0.72,5.48,2.58,7.75C204.44,132.54,204.65,129.54,202.69,127.37z"/>
	<path d="M205.17,146.4c1.55-2.48,1.34-5.17,0.62-7.86C205.58,141.12,205.38,143.81,205.17,146.4z"/>
	<path d="M350.12,575.87c9.41,0.83,18.71,2.38,28.02,2.27C368.83,577.63,359.53,575.35,350.12,575.87z"/>
	<path d="M343.4,574.63c-5.07-1.03-10.24-1.65-15.51-1.65C333.06,574.11,338.23,574.42,343.4,574.63z"/>
	<path d="M383,586.73c-1.24,1.86-1.55,3.83-0.41,5.69C383.41,590.65,383.72,588.69,383,586.73z"/>
	<path d="M325.3,527.9c-1.34,2.58-1.03,5.38-0.93,9.1C324.79,533.38,324.99,530.59,325.3,527.9z"/>
	<path d="M383,579.39c-0.62,1.34-0.62,2.38,0.72,4.03C383.82,581.76,384.65,580.52,383,579.39z"/>
	<path d="M384.13,577.83c-0.62-0.21-1.14-0.41-1.86,0.1C382.89,578.56,383.41,578.77,384.13,577.83z"/>
	<path d="M326.13,570.18c1.14,0,1.76-0.62,2.38-1.03C327.58,568.94,326.65,568.63,326.13,570.18z"/>
	<path d="M325.1,519.32c0.1-0.21,0.1-0.41,0.1-0.52C325.2,518.9,325.1,519.11,325.1,519.32z"/>
	<path d="M241.04,212.15c-2.89,2.07-4.76,4.86-6.41,7.86C237.63,218.04,239.8,215.46,241.04,212.15z"/>
	<path d="M207.55,206.88c0.72-3.21,2.27-6.2,2.07-9.51C208.89,200.47,207.24,203.47,207.55,206.88z"/>
	<path d="M213.75,176.59c-1.03-1.76-1.03-4.24-3.83-5.38C210.54,173.79,211.47,175.66,213.75,176.59z"/>
	<path d="M231.95,192.2c-1.65,1.34-3.52,2.58-3.72,5.58C230.39,196.02,231.43,194.27,231.95,192.2z"/>
	<path d="M211.58,188.99c0.83-1.96,1.96-3.41,1.24-5.48C211.06,185.89,211.06,186.1,211.58,188.99z"/>
	<path d="M205.27,236.86c0.31-1.65,0.72-3.21,1.14-4.76C204.44,233.24,204.44,235,205.27,236.86z"/>
	<path d="M203,240.89c-1.96-0.21-3.83-0.41-5.79-0.62C198.96,241.62,200.93,241.72,203,240.89z"/>
	<path d="M227.5,198.92c1.65,0.93,2.48,0,3.41-0.62C229.77,197.68,228.64,197.68,227.5,198.92z"/>
	<path d="M229.05,224.97c1.45-0.21,2.58-0.31,3.31-2.27C230.6,223.01,229.67,223.42,229.05,224.97z"/>
	<path d="M202.89,234.79c-0.62-1.45-1.76-1.24-3.31-1.86C200.62,234.59,201.45,235.21,202.89,234.79z"/>
	<path d="M210.85,227.56c0.62-0.52,1.24-1.03,0.83-2.38C210.85,226.01,210.03,226.52,210.85,227.56z"/>
	<path d="M211.06,191.89c-1.03,0.72-0.93,1.45-0.72,2.27C210.75,193.54,211.58,193.03,211.06,191.89z"/>
	<path d="M194.83,238.31c0.41,1.45,1.24,1.96,2.38,1.86C196.59,239.45,196.07,238.62,194.83,238.31z"/>
	<path d="M193.69,211.32c1.14,0.31,1.24-0.21,1.03-1.14C194,210.29,193.69,210.7,193.69,211.32z"/>
	<path d="M191.83,217.11c0.62-0.1,0.93-0.52,0.83-1.14C191.52,215.67,191.31,216.08,191.83,217.11z"/>
	<path d="M208.17,229.11c0.52-0.72,0.62-1.14,0.21-1.65C207.75,227.76,207.75,228.28,208.17,229.11z"/>
	<path d="M225.85,226.83c0,0.31,1.36,0.82,1.14-0.72C226.26,226.11,225.85,226.32,225.85,226.83z"/>
	<path d="M241.87,209.05c-0.52,0.52-1.34,0.72-0.52,1.45C241.87,210.39,242.18,210.19,241.87,209.05z"/>
	<path d="M242.39,184.86c-0.83,0-0.83,0-1.03,0.62C241.77,185.48,242.28,185.37,242.39,184.86z"/>
	<path d="M356.73,342.94c-1.86-0.21-3.32,1.13-3.72,2.17c-1.89,4.89-10.95,2.8-14.89,7.34
		C347.33,353.59,353.32,348.93,356.73,342.94z"/>
	<path d="M339.47,392.15c6.31-4.24,11.17-19.13,7.75-23.47C347.64,377.47,344.12,385.02,339.47,392.15z"/>
	<path d="M343.29,357.93c1.03,2.17,3.21,1.76,5.27,2.89C346.5,357.1,345.57,356.58,343.29,357.93z"/>
	<path d="M360.04,363.93c0-2.38-0.72-3.72-3.21-4.86C357.15,361.65,358.18,362.79,360.04,363.93z"/>
	<path d="M318.58,427.72c1.03-1.86,0.41-3.62-0.41-6C317.14,425.13,317.24,425.44,318.58,427.72z"/>
	<path d="M335.02,396.7c3-0.83,3-0.83,3.52-3.1C337.09,394.42,335.95,395.25,335.02,396.7z"/>
	<path d="M331.4,354c-1.45-0.72-2.58-0.41-4.34,1.14C329.23,355.45,330.47,355.76,331.4,354z"/>
	<path d="M359.01,369.2c1.34-2.38,1.34-2.38,0.52-4.03C358.7,366.51,359.11,367.85,359.01,369.2z"/>
	<path d="M318.07,416.14c-0.31,1.24-0.72,2.17,0,3.31C318.89,418.31,319.21,417.48,318.07,416.14z"/>
	<path d="M366.04,343.25c0.8-2.41-0.49-2.98-1.55-2.27C364.59,341.8,364.7,342.73,366.04,343.25z"/>
	<path d="M323.96,355.45c-1.03-0.41-1.96-0.52-2.58,0.93C322.51,356.69,323.44,357,323.96,355.45z"/>
	<path d="M336.88,340.35c-0.41-1.03-1.03-1.45-2.38-0.83C335.13,340.77,335.85,341.08,336.88,340.35z"/>
	<path d="M364.59,348.31c-1.24,0.62-1.34,1.34-1.24,2.58C364.7,350.28,364.9,349.55,364.59,348.31z"/>
	<path d="M331.61,338.39c-0.31-0.62-0.62-0.93-1.45-0.72C330.47,338.8,330.89,338.7,331.61,338.39z"/>
	<path d="M330.99,399.9c1.14,0,1.65-0.21,1.45-1.24C331.61,398.56,331.2,398.87,330.99,399.9z"/>
	<path d="M327.27,423.79c0.52-0.52,0.41-0.93,0.1-1.45C326.96,422.86,326.75,423.27,327.27,423.79z"/>
	<path d="M340.19,342.11c0.83-0.28-0.15-1.87-0.93-0.83C339.37,341.8,339.68,342.11,340.19,342.11z"/>
	<path d="M379.27,479.72c-9.41-0.52-18.82-1.76-28.33-1.86C360.35,479.72,369.76,480.13,379.27,479.72z"/>
	<path d="M326.96,477.34c-5.79-0.62-11.58-1.24-17.27-1.86C315.38,477.45,321.17,477.86,326.96,477.34z"/>
	<path d="M415.56,476.62c-3.1,0.21-6.2-0.72-8.99,0.62C409.57,477.45,412.67,478.17,415.56,476.62z"/>
	<path d="M277.75,473.1c3.83,0.31,7.55,1.45,11.48,0.62C285.4,473.93,281.68,472.38,277.75,473.1z"/>
	<path d="M301.42,473.62c-3.31,0.21-6,0.41-8.68,0.62C295.43,474.65,298.22,475.07,301.42,473.62z"/>
	<path d="M390.23,479.51c-1.76-0.52-3.41-0.52-5.38,1.14C387.23,480.75,388.89,480.86,390.23,479.51z"/>
	<path d="M332.65,477.45c6.21,0,5.58,0.09,5.58-0.21C331.71,477.24,332.92,477.17,332.65,477.45z"/>
	<path d="M398.3,479.41c-1.86-0.21-3.21-0.62-4.45,0.31C395.2,479.93,396.54,480.24,398.3,479.41z"/>
	<path d="M383.51,485.61c-1.03,0.83-1.03,1.65-0.21,2.69C384.24,487.37,384.34,486.65,383.51,485.61z"/>
	<path d="M383.62,479.93c-0.83,1.14-0.41,1.86,0.1,3.1C384.34,481.68,384.34,480.96,383.62,479.93z"/>
	<path d="M264.62,470.83c0.41,0.31,0.83,0.31,1.24,0C265.44,470.62,265.03,470.62,264.62,470.83z"/>
	<path d="M372.86,190.44c-0.52,1.76,0.1,3.21,0.83,5.48C374.1,193.65,373.79,191.99,372.86,190.44z"/>
	<path d="M372.86,207.6c1.24-2.07,1.03-3.72,0.62-5.48C373.38,203.67,373.17,205.33,372.86,207.6z"/>
	<path d="M367.59,223.73c-1.24,1.24-2.07,1.96-2.89,3.83C366.14,226.32,367.07,225.49,367.59,223.73z"/>
	<path d="M368.31,181.76c0.31,1.34,0.83,2.58,1.86,3.41C369.76,183.93,369.76,182.48,368.31,181.76z"/>
	<path d="M368.31,181.76c0-0.48,0-0.95,0-1.43c-0.65,0-0.95-1.06-1.65-0.54C366.97,180.72,367.38,181.45,368.31,181.76z"/>
	<path d="M210.44,496.68c1.24-8.58,5.17-16.85,2.89-26.16C210.44,480.24,208.89,495.12,210.44,496.68z"/>
	<path d="M203.31,520.14c1.55-3.41,5.58-21.19,5.07-23.06C205.48,503.91,202.69,517.04,203.31,520.14z"/>
	<path d="M212.1,447.36c-0.31,3.93,1.14,7.34,3.31,10.55C214.37,454.39,214.89,450.36,212.1,447.36z"/>
	<path d="M228.43,446.12c-3.31,2.17-3.93,4.96-1.96,8.48C227.81,451.6,226.88,448.81,228.43,446.12z"/>
	<path d="M229.88,439.19c-1.03,1.65-1.55,3.31-1.45,5.48C231.12,441.26,231.12,441.26,229.88,439.19z"/>
	<path d="M210.44,444.88c-1.06-1.51-0.02-6.58-2.58-0.93C209.3,443.53,208.99,445.39,210.44,444.88z"/>
	<path d="M215.82,459.46c-0.52,1.96,0.41,3.21,0.93,5.27C217.99,462.35,217.26,461.01,215.82,459.46z"/>
	<path d="M205.17,464.83c-0.93,0.72-1.14,1.45-0.52,2.48C205.48,466.69,206.2,465.97,205.17,464.83z"/>
	<path d="M224.19,461.52c0.21-1.65-0.31-2.48-1.65-3.31C222.64,459.77,222.85,460.7,224.19,461.52z"/>
	<path d="M230.71,434.23c-1.03,0.93-1.96,1.76-1.14,3.31C230.71,435.99,230.71,435.99,230.71,434.23z"/>
	<path d="M213.75,466.28c0.1-1.34,0.1-1.34-0.62-2.07C212.92,464.83,212.72,465.56,213.75,466.28z"/>
	<path d="M218.82,453.56c-0.1-1.14-0.52-1.76-1.55-1.76C217.26,452.84,217.78,453.15,218.82,453.56z"/>
	<path d="M206.62,455.63c-0.41,0.62-1.03,1.14,0.1,2.17C207.03,456.87,207.65,456.35,206.62,455.63z"/>
	<path d="M218.09,468.45c0.62-0.72,0.52-1.34-0.1-2.17C217.16,467.21,217.37,467.83,218.09,468.45z"/>
	<path d="M212.1,432.78c-0.1,0.52-0.21,1.14-0.41,2.07C213.21,434.39,213.17,432.66,212.1,432.78z"/>
	<path d="M226.57,455.22c-0.79,0-0.61,1.03-0.1,1.03C227.34,456.25,226.96,455.22,226.57,455.22z"/>
	<path d="M317.03,135.33c-2.89-3.83-9.41-3.72-12.3,0C308.66,133.16,312.48,135.64,317.03,135.33z"/>
	<path d="M308.66,139.06c5.07,0.62,5.07,0.62,5.69-2.17C310.31,136.78,310.11,136.89,308.66,139.06z"/>
	<path d="M288.6,182.17c0,1.45,0,3,0,4.45C289.95,185.17,289.84,183.62,288.6,182.17z"/>
	<path d="M279.3,178.86c0-1.65,0.41-3-0.72-4.76C277.64,176.07,277.23,177.31,279.3,178.86z"/>
	<path d="M280.12,183c0.52-1.55,0.52-2.48-1.03-2.79C278.26,181.55,278.99,182.17,280.12,183z"/>
	<path d="M293.05,193.23c-0.72-0.31-1.14-1.24-2.17-0.1C291.5,193.75,292.01,194.27,293.05,193.23z"/>
	<path d="M290.36,172.76c-0.72,0.72-0.72,1.34-0.21,1.96C291.19,174.21,290.98,173.59,290.36,172.76z"/>
	<path d="M289.64,178.96c0.62-0.93,0.72-1.76-0.1-2.58C288.91,177.21,288.5,178.03,289.64,178.96z"/>
	<path d="M293.88,200.88c0.1-0.72-0.31-0.93-1.14-1.24C292.84,200.57,293.05,201.09,293.88,200.88z"/>
	<path d="M298.73,150.02c-0.21-0.83-0.52-1.24-1.55-0.83C297.6,149.81,297.8,150.43,298.73,150.02z"/>
	<path d="M296.25,147.84c-0.21-0.52-0.31-1.03-1.45-0.83C295.01,147.74,295.22,148.36,296.25,147.84z"/>
	<path d="M214.58,557.57c-2.69-1.44-4.86-0.31-6.51,2.07c-2.38-3.41-4.88-4.27-7.24-2.58c-4.13,2.96-0.02,11.34,7.13,4.86
		c1.96,4.14,5.07,3.41,8.17,2.79C216.33,562.02,217.67,559.23,214.58,557.57z M203.31,562.74c-2.89-0.2-3.03-4.76,0.21-4.76
		C206.95,558.23,206.47,562.96,203.31,562.74z M211.99,563.46c-2.78-0.52-2.69-4.65,0.21-4.65c1.65,0,2.58,0.72,2.58,2.69
		C213.34,561.71,212.51,562.33,211.99,563.46z"/>
	<path d="M192.45,556.02c-0.52,2.38-0.83,4.86-0.1,7.24c1.86,0.21,0.93-1.96,2.27-1.96c1.55,0,1.34,2.89,3.83,2.07
		c-1.14-1.34-0.92-2.37,0-3.72C200.8,556.18,194.74,554.8,192.45,556.02z M193.9,557.98c1.24-1.03,2.17-0.62,3.1,0
		C195.66,559.74,195.66,559.74,193.9,557.98z"/>
	<path d="M217.78,543.2c-6.93,0.41-9.1,0.93-10.65,3.21C216.12,545.48,218.31,545.86,217.78,543.2z"/>
	<path d="M111.5,132.34c-0.21,1.24-0.41,2.38-0.72,4.24C113.98,133.89,114.08,133.47,111.5,132.34z"/>
	<path d="M254.69,234.48c-0.72,0.52-0.62,1.03-0.21,1.65C255.41,235.62,255.41,235.1,254.69,234.48z"/>
	<path d="M317.14,220.53c2.69-1.03,2.69-1.03,3-3.31C318.69,218.04,317.65,218.87,317.14,220.53z"/>
	<path d="M322,215.98c0.93-0.93,2.17-1.65,1.96-3.93C322.31,213.5,321.89,214.63,322,215.98z"/>
	<path d="M665.55,277.39c-8.21,8.21-3.51,13.52-9.2,23.37c-0.95,1.64-2.38,3.41-1.96,6.41c1.03-2.17,1.78-3.81,2.69-5.27
		c7.13-11.53,2.77-21.23,14.37-26.67C668.55,274.8,666.9,275.74,665.55,277.39z"/>
	<path d="M641.36,225.08c-3.62-7.03-4.96-14.47-9.3-20.57C633.19,213.29,637.74,223.32,641.36,225.08z"/>
	<path d="M680.03,251.65c-1.35,5.76-6.9,10.77-5.89,13.96c8.85-11.8,5.03-11.94,9.82-17.58
		C690.32,239.28,680.88,248.01,680.03,251.65z"/>
	<path d="M677.24,268.08c6.1,1.24,12.2,2.07,18.4,1.76C689.64,267.67,683.54,267.15,677.24,268.08z"/>
	<path d="M671.65,300.34c3.52,4.86,7.13,9.62,7.86,15.82C681.37,311.09,677.55,303.34,671.65,300.34z"/>
	<path d="M627.3,212.67c1.03,4.76,1.24,9.3,2.79,13.65C630.51,216.49,630.09,214.01,627.3,212.67z"/>
	<path d="M646.01,203.26c-0.72,2.38-0.41,7.44,0.72,10.13C649.01,208.64,648.7,204.4,646.01,203.26z"/>
	<path d="M624.89,261.51c0-2.56,1.03-2.28,1.17-4.07c-1.34,0.72-2.07,2.17-2.07,3.62c0.52,3.72,0.16,7.34,0.21,11.06
		c0,0.1,1.2,1.98,1.28-4.23c0.02-1.65,0.24-3.34,1.2-4.65C626.4,262.47,625.18,262.65,624.89,261.51z"/>
	<path d="M654.7,206.36c1.45,4.14,2.79,8.06,4.14,11.99C659.14,212.67,657.18,207.4,654.7,206.36z"/>
	<path d="M669.38,207.19c-2.07,3.1-1.96,6.51-1.76,9.93C668.45,213.91,670.93,210.91,669.38,207.19z"/>
	<path d="M682.2,210.08c-2.07,1.76-2.17,3.62-0.41,5.38C681.89,213.7,682.1,211.84,682.2,210.08z"/>
	<path d="M639.4,203.05c-0.72,2.07-1.55,4.03-1.45,6.31C638.67,207.29,639.71,205.33,639.4,203.05z"/>
	<path d="M629.27,272.22c0.72,1.96,1.76,3.72,3.72,4.96C632.26,275.22,631.13,273.46,629.27,272.22z"/>
	<path d="M676.31,290.73c-0.52-1.65-0.62-3-2.79-3.41C673.72,289.07,674.34,290,676.31,290.73z"/>
	<path d="M665.87,202.95c-1.45,0.52-2.55,1.53-4.04,1.03C663.73,205.12,664.99,205.8,665.87,202.95z"/>
	<path d="M632.68,232.21c0.62-0.41,1.34-0.83,1.55-1.65C633.3,230.87,632.88,231.49,632.68,232.21z"/>
	<path d="M667.52,206.05c1.24-0.21,1.76-1.65,3.1-1.55C668.04,203.88,668.04,203.88,667.52,206.05z"/>
	<path d="M689.85,214.43c-0.52,1.24,0,1.96,1.24,2.48C691.3,215.67,691.3,214.74,689.85,214.43z"/>
	<path d="M653.97,203.78c-1.03-1.03-1.96-1.24-2.89-1.14C651.7,203.47,652.63,203.67,653.97,203.78z"/>
	<path d="M661.66,202.59c-0.3,0.63-1.21,0.51-1.7,1.09c0.59,0.29,1.26,0.3,1.85,0.22c0.41,0-0.22,0.21,0.12-1.25
		C661.62,203.16,661.79,203.4,661.66,202.59z"/>
	<path d="M661.73,202.43l-0.1-0.1C661.65,202.57,661.68,202.72,661.73,202.43z"/>
	<path d="M628.64,240.58c0.1-0.1,0.1-0.31,0.1-1.14C628.58,240.77,628.49,240.58,628.64,240.58z"/>
	<path d="M635.57,220.84c0,0.94,0.48,0.6,0.21-0.21C635.68,220.73,635.57,220.73,635.57,220.84z"/>
	<path d="M685.82,208.74c-0.49-0.82-1.31-0.17-0.72,0.41C685.4,209.26,685.71,209.15,685.82,208.74z"/>
	<path d="M665.24,207.19c0.52,0,0.77-0.84-0.21-1.03C664.62,206.57,664.62,206.98,665.24,207.19z"/>
	<path d="M683.54,130.58c0,3.52,1.45,4.65,5.38,4.03C687.16,133.06,686.44,130.58,683.54,130.58z"/>
	<path d="M690.47,192.82c0.89,0,0.56,1.14,2.69-6.31C691.97,185.92,689.88,189.84,690.47,192.82z"/>
	<path d="M704.01,136.47c1.86-1.24,3.1-2.58,3.83-4.65C704.12,134.92,704.12,134.92,704.01,136.47z"/>
	<path d="M664.21,187.65c-0.31,1.45-0.1,2.48,1.03,3.72C666.28,189.51,665.86,188.48,664.21,187.65z"/>
	<path d="M660.28,148.67c-1.14-0.72-2.38-1.34-3.52-2.07C656.97,148.88,658.52,148.88,660.28,148.67z"/>
	<path d="M694.61,185.06c1.76-1.45,1.55-2.79,1.55-3.93C695.33,182.17,694.61,183.2,694.61,185.06z"/>
	<path d="M654.6,168.52c1.86,0.93,3.41,1.14,4.96,1.24C658.21,168.94,656.66,168.73,654.6,168.52z"/>
	<path d="M659.76,140.3c0.1,1.24,0.72,1.96,2.48,2.58C661.73,141.33,661.94,139.78,659.76,140.3z"/>
	<path d="M694.19,134.82c0.83,1.34,1.55,1.76,2.89,1.24C696.57,134.92,695.85,134.51,694.19,134.82z"/>
	<path d="M664.42,143.61c0.21,1.34,1.03,1.65,2.58,1.76C666.38,143.81,665.76,143.3,664.42,143.61z"/>
	<path d="M687.06,124.89c1.45,1.86,1.45,1.86,3,1.65C689.54,125.31,688.4,125.51,687.06,124.89z"/>
	<path d="M668.24,145.57c0.52,0.52,1.14,1.14,2.17,0.21C669.69,145.26,669.28,144.23,668.24,145.57z"/>
	<path d="M662.04,169.87c-1.34,0-1.86,0-2.48,0C660.07,170.28,660.7,170.38,662.04,169.87z"/>
	<path d="M704.95,148.46c0.1-0.62,0.62-0.93-0.1-1.55C704.63,147.33,704.12,147.64,704.95,148.46z"/>
	<path d="M673,146.81c-0.23,0.46,0.05,1.09,0.83,0.31C673.72,146.91,673.63,146.17,673,146.81z"/>
	<path d="M613.24,62.34c2.38-3.52,4.24-10.44,3.52-13.34C615.41,53.24,613.96,57.48,613.24,62.34z"/>
	<path d="M604.25,76.82c0.21,0.1,0.41,0.31,0.62,0.52c2.89-2.89,5.89-5.58,7.96-8.99C611.85,67.36,612.91,66.41,604.25,76.82z"/>
	<path d="M617.07,33.81c0,2.38,0,4.86,0,7.24C617.79,38.97,619,33.16,617.07,33.81z"/>
	<path d="M614.17,22.64c0.41,2.79,0.62,5.48,2.58,7.65C615.93,27.71,616.03,24.81,614.17,22.64z"/>
	<path d="M671.65,575.04c6.41,1.24,12.92,1.55,19.33,1.96C684.68,574.73,678.06,575.66,671.65,575.04z"/>
	<path d="M665.45,573.91c-5.17-0.72-10.34-1.76-15.71-1.34C655.01,573.08,660.18,574.11,665.45,573.91z"/>
	<path d="M701.22,577.63c-3.41-0.62-6.82-0.62-10.34-0.52C694.4,578.14,697.81,577.32,701.22,577.63z"/>
	<path d="M704.43,585.28c-0.93,2.69-1.03,4.65-0.1,6.51C704.53,589.93,705.98,588.07,704.43,585.28z"/>
	<path d="M647.88,492.44c0,0.94,0,1.73-0.01,2.39c0.02-0.74,0.06-1.56,0.11-2.39C647.88,492.44,647.88,492.44,647.88,492.44z"/>
	<path d="M647.87,494.83C647.77,497.82,647.85,499.39,647.87,494.83L647.87,494.83z"/>
	<path d="M646.63,527.69c-0.52,1.14-0.62,2.48-0.31,4.24C646.94,530.38,646.63,529.04,646.63,527.69z"/>
	<path d="M704.95,579.08c-1.14,1.14-0.41,2.07,0,3.93C705.46,581.14,706.08,580.11,704.95,579.08z"/>
	<path d="M649.63,568.43c-0.62,0-1.45-0.21-1.65,1.03C648.81,569.56,649.43,569.25,649.63,568.43z"/>
	<path d="M704.43,595.2c0-0.07,0-0.14,0-0.21C704.22,594.69,703.7,595,704.43,595.2z"/>
	<path d="M704.32,577.42c1.14,0.83,1.76-0.1,2.48-0.41C706.08,577.42,705.26,576.7,704.32,577.42z"/>
	<path d="M652.42,107.32c-3,3.31-6.1,6.51-8.37,10.34C647.46,114.76,650.98,111.97,652.42,107.32z"/>
	<path d="M619.13,102.35c0.62-3.21,2.27-6.2,2.07-9.51C619.96,95.94,618.82,98.94,619.13,102.35z"/>
	<path d="M607.97,135.23c3.41,1.86,4.24,1.96,7.13,0.62C612.41,136.06,610.35,135.44,607.97,135.23z"/>
	<path d="M624.72,70.82c-0.31-1.76-1.03-3.1-3-4.34C622.55,70.3,622.55,70.3,624.72,70.82z"/>
	<path d="M643.53,87.57c-1.86,1.14-3.52,2.48-3.93,5.58C641.88,91.29,642.81,89.53,643.53,87.57z"/>
	<path d="M622.86,83.74c1.24-1.34,2.07-2.79,1.24-5.38C622.96,80.33,622.44,81.88,622.86,83.74z"/>
	<path d="M616.14,132.03c0.88,0.44,0.71,0.26,1.65-4.76C615.82,128.61,616.14,130.37,616.14,132.03z"/>
	<path d="M667.21,75.06c-0.72-2.07-2.38-1.76-4.03-1.55C664.11,75.16,665.76,74.96,667.21,75.06z"/>
	<path d="M621.3,92.84c0.41-1.86,0.93-3.62,1.45-5.48C621.1,88.91,621.41,90.88,621.3,92.84z"/>
	<path d="M642.6,93.26c-1.55-0.1-2.58-0.31-3.93,1.45C640.64,94.81,641.67,94.6,642.6,93.26z"/>
	<path d="M643.95,117.55c-1.03,0.72-2.69,0.72-3.21,2.58C642.6,120.03,643.74,119.41,643.95,117.55z"/>
	<path d="M614.58,130.17c-0.93-1.34-1.96-1.45-3.41-1.55C612.21,129.75,612.83,130.48,614.58,130.17z"/>
	<path d="M619.44,124.38c0.93-0.21,0.93-0.83,0.72-1.86C619.24,123.03,618.93,123.55,619.44,124.38z"/>
	<path d="M637.12,122.31c1.14,0.41,1.55,0.1,1.45-0.72C637.74,121.17,637.33,121.38,637.12,122.31z"/>
	<path d="M622.23,122.72c0.72-0.41,1.24-0.93,0.62-1.96C622.55,121.38,621.61,121.79,622.23,122.72z"/>
	<path d="M605.49,106.9c0.93-0.21,1.03-0.62,0.72-1.45C605.28,105.66,605.18,106.08,605.49,106.9z"/>
	<path d="M653.87,80.02c-0.62-0.31-1.03-0.21-1.45,0.83C653.25,80.85,653.87,80.85,653.87,80.02z"/>
	<path d="M652.84,105.87c0.52-0.31,1.03-0.62,0.31-1.24C652.42,104.84,652.32,105.25,652.84,105.87z"/>
	<path d="M700.71,479c-9.3-0.31-18.51-1.65-27.71-1.65C682.2,479,691.4,479.72,700.71,479z"/>
	<path d="M647.98,476.72c-5.38-0.62-10.86-1.24-16.34-1.86C637.54,477.03,643.53,477.45,647.98,476.72z"/>
	<path d="M728,476.62c3.21,0.52,6.31,0.83,9.51-0.41C734.41,476.1,731.21,475.58,728,476.62z"/>
	<path d="M712.29,478.58c-2.17-0.1-3.83-0.21-5.17,1.34C708.77,479.82,710.53,480.55,712.29,478.58z"/>
	<path d="M653.87,477.13c0.27,0,5.17-0.02,5.17-0.41C653.12,476.72,653.87,476.58,653.87,477.13z"/>
	<path d="M604.14,472.79c2.07,1.24,4.34,0.52,6.51,0.83C610.66,472.52,611.64,472.79,604.14,472.79z"/>
	<path d="M620.27,473.41c-1.96,0.1-4.03,0.1-6.2,0.1C616.14,473.83,618.31,474.86,620.27,473.41z"/>
	<path d="M706.19,482.41c-0.41-1.24,0.31-2.17-1.24-3C704.53,480.75,704.53,481.58,706.19,482.41z"/>
	<path d="M715.49,478.69c1.34,0.93,2.89,0.83,5.17,0C718.39,478.69,716.94,478.69,715.49,478.69z"/>
	<path d="M604.14,472.69c-1.45-0.72-3-0.31-4.45-0.21C601.14,472.9,602.59,472.9,604.14,472.69z"/>
	<path d="M704.95,488.4c0.62-1.24,1.14-2.17,0.1-3.31C704.22,486.23,704.32,487.16,704.95,488.4z"/>
	<path d="M587.39,470.31c-0.31,0-0.52-0.1-0.72-0.1C586.88,470.62,587.08,470.52,587.39,470.31z"/>
	<path d="M622.23,473.21c-0.72-0.31-1.24,0-1.86,0.31C620.99,473.52,621.61,473.93,622.23,473.21z"/>
	<path d="M782.18,81.78c0-2.27-1.34-3.31-1.24-4.76C777.57,75.01,777.89,73.92,782.18,81.78z"/>
	<path d="M784.97,102.04c0.31-1.55,0.52-3.1,0.72-4.55C784.55,98.94,784.45,100.49,784.97,102.04z"/>
	<path d="M785.48,89.43c-0.62-1.34,0.21-2.89-1.76-4.65C784.9,90.65,784.31,89.43,785.48,89.43z"/>
	<path d="M776.7,121.48c-0.83,0.93-1.55,1.96-2.27,2.89C775.66,123.76,776.7,123.03,776.7,121.48z"/>
	<path d="M778.35,120.24c0.93-0.41,1.34-1.03,1.76-2.27C778.97,118.69,778.35,119.21,778.35,120.24z"/>
	<path d="M728.31,29.78c-3.72-3-9.3-2.69-11.99,0.41C717.87,30.4,727.48,30.19,728.31,29.78z"/>
	<path d="M719.52,34.01c5.89,1.45,5.89,1.45,6.1-1.86C723.45,31.74,721.59,32.36,719.52,34.01z"/>
	<path d="M689.95,70.1c-0.41,1.24-1.14,2.69,0.62,3.93C691.09,72.47,691.19,71.23,689.95,70.1z"/>
	<path d="M700.5,77.95c-0.21,1.34-0.72,2.69,0.1,4.03C701.12,80.64,701.33,79.3,700.5,77.95z"/>
	<path d="M701.12,74.13c0.93-0.72,0.72-1.55,0-2.89C700.4,72.58,699.67,73.3,701.12,74.13z"/>
	<path d="M690.78,75.58c-0.93,1.14-0.41,1.86,1.03,2.69C691.81,76.82,692.33,75.78,690.78,75.58z"/>
	<path d="M702.15,68.24c-0.72,0.93-0.72,0.93-0.21,1.76C702.57,69.48,702.57,68.86,702.15,68.24z"/>
	<path d="M705.26,96.05c-0.21-0.72-0.41-1.24-1.45-1.55C704.12,95.43,704.32,96.05,705.26,96.05z"/>
	<path d="M704.22,88.81c-0.31-0.93-0.72-1.24-1.65-0.72C702.77,89.43,703.39,89.22,704.22,88.81z"/>
	<path d="M709.91,45.49c0.31-1.03,0.1-1.45-0.93-0.93C709.08,45.08,709.39,45.39,709.91,45.49z"/>
	<path d="M707.74,43.42c-0.1-0.93-0.41-1.34-1.14-1.24C706.19,43.32,706.81,43.42,707.74,43.42z"/>
	<path d="M540.46,425.85c-1.96,4.34-1.76,5.27,2.69,8.58c0.57-0.82,6.05-2.53,4.14-6.72C545.44,423.7,541.88,425.54,540.46,425.85z
		 M544.59,431.23c-0.93-0.83-1.86-2.27-2.89,0c-1.24-2.07-0.52-3.11,0.83-3.93C544.64,426.02,547.64,429.05,544.59,431.23z"/>
	<path d="M536.42,417.79c0.93-3,0.52-4.03-2.89-6.51c-1.76,1.76-4.55,2.48-5.48,5.07c1.45,0.93,2.07-0.72,3-0.1
		c0.93,1.34-1.34,3.1,0.72,4.24C533.6,416.82,532.39,418.89,536.42,417.79z M533.73,413.76c0.93,0.52,1.65,1.24,1.03,2.38
		C532.18,415.62,532.18,415.62,533.73,413.76z"/>
	<path d="M540.56,425.65c-0.04,0-0.08,0.07-0.1,0.1L540.56,425.65z"/>
	<path d="M541.7,420.38c-1.11-2.29-3.21-2.48-5.38-2.48c-0.72,1.03-2.07,1.65-2.38,3.1C532.31,428.62,545.19,427.53,541.7,420.38z
		 M537.77,424.51c-2.99,0.22-3.05-4.4,0.31-4.65C540.97,419.64,541.13,424.26,537.77,424.51z"/>
	<path d="M548.21,414.79c2.48,1.86,5.07,3.29,7.65,4.86c1.35,0.82,2.27,0.72,2.48-1.03C555.03,417.38,552.34,414.17,548.21,414.79z"
		/>
	<path d="M523.09,27.6c-0.21,1.24-0.41,2.38-0.83,4.24C525.57,29.26,525.57,28.95,523.09,27.6z"/>
	<path d="M666.38,131.3c0.41-0.62,0.62-1.14-0.21-1.45C665.55,130.27,665.45,130.68,666.38,131.3z"/>
	<path d="M732.96,111.87c1.65-1.34,2.79-2.17,2.27-4.34C733.89,108.76,733.38,109.9,732.96,111.87z"/>
	<path d="M728.41,116.31c1.86-0.93,3.1-1.65,3.72-3.83C730.17,113.21,729.14,114.24,728.41,116.31z"/>
<path fill="#e6e6e6" d="m206.8 163.6c0-5.1 4.1-9.2 9.3-9.2s9.2 4.2 9.2 9.2-4.1 9.2-9.3 9.2-9.2-4.1-9.2-9.2zm17.3-.1c0-4.5-3.5-8.2-8.2-8.2s-8.2 3.7-8.2 8.3c0 4.5 3.5 8.2 8.2 8.2s8.2-3.7 8.2-8.3zm-13 0c0-2.8 2.1-5.1 5.1-5.1 1.9 0 2.9.6 3.9 1.5l-1.4 1.7c-.8-.7-1.5-1.1-2.5-1.1-1.7 0-2.8 1.4-2.8 3.1s1.1 3 2.8 3c1.1 0 1.7-.5 2.5-1.1l1.4 1.4c-1.1 1.1-2.1 1.7-4 1.7-2.9 0-5-2.3-5-5.1z"/><path fill="#e6e6e6" d="m226.6 154.7h3.4l4.2 13.2 4.4-13.3h2.6l4.4 13.3 4.2-13.2h3.3l-6.2 18h-2.7l-4.4-12.8-4.4 12.8h-2.7z"/><path fill="#e6e6e6" d="m252.8 165.8c0-3.9 3.1-7 7.2-7 4.2 0 7.2 3.2 7.2 7s-3.1 7-7.3 7c-4 0-7.1-3.1-7.1-7zm11.3 0c0-2.3-1.7-4.3-4.2-4.3s-4.1 2-4.1 4.3 1.7 4.3 4.1 4.3c2.7.1 4.2-1.9 4.2-4.3z"/><path fill="#e6e6e6" d="m269.5 159.1h3.1v3c.8-2 2.4-3.4 4.8-3.3v3.2h-.2c-2.7 0-4.6 1.7-4.6 5.4v5.1h-3.1z"/><path fill="#e6e6e6" d="m279.1 153.9h3.1v11.1l5.6-6h3.8l-5.4 5.5 5.5 8h-3.5l-4.1-5.8-1.9 2v3.9h-3.1z"/><path fill="#e6e6e6" d="m291.7 165.8c0-3.9 3.1-7 7.2-7 4.2 0 7.2 3.2 7.2 7s-3.1 7-7.3 7c-4 0-7.1-3.1-7.1-7zm11.3 0c0-2.3-1.7-4.3-4.2-4.3s-4.1 2-4.1 4.3 1.7 4.3 4.1 4.3c2.6.1 4.2-1.9 4.2-4.3z"/><path fill="#e6e6e6" d="m308.2 167.6v-8.6h3.1v7.6c0 2.1 1.1 3.3 2.9 3.3s3-1.3 3-3.3v-7.6h3.1v13.4h-3.1v-2.1c-.8 1.3-2.1 2.3-4.2 2.3-3.1.2-4.8-1.8-4.8-5z"/><path fill="#e6e6e6" d="m323.9 168.8v-7.1h-1.7v-2.6h1.7v-3.7h3.1v3.7h3.6v2.6h-3.6v6.6c0 1.2.6 1.7 1.7 1.7.7 0 1.3-.2 1.9-.5v2.5c-.8.5-1.7.7-2.8.7-2.3 0-3.9-.9-3.9-3.9z"/><path fill="#e6e6e6" d="m333.2 154.7h3.2v15h9.4v2.9h-12.5v-17.9z"/><path fill="#e6e6e6" d="m356 172.5v-1.7c-.9 1.1-2.3 2-4.4 2-2.6 0-4.8-1.4-4.8-4.2 0-3 2.3-4.4 5.4-4.4 1.7 0 2.6.2 3.7.5v-.2c0-1.9-1.2-2.9-3.3-2.9-1.5 0-2.6.3-3.9.8l-.8-2.5c1.5-.7 2.9-1.1 5.1-1.1 4 0 5.9 2.1 5.9 5.7v8zm.1-5.6c-.8-.3-1.9-.5-3.1-.5-2 0-3.1.8-3.1 2.1s1.1 2 2.6 2c2 0 3.5-1.1 3.5-2.9z"/><path fill="#e6e6e6" d="m364.9 170.5v2.1h-3.1v-18.7h3.1v7.4c1-1.4 2.4-2.5 4.5-2.5 3.2 0 6.3 2.5 6.3 7s-3.1 7-6.3 7c-2.1 0-3.5-1.1-4.5-2.3zm7.7-4.7c0-2.6-1.7-4.3-3.9-4.3s-3.9 1.7-3.9 4.4c0 2.6 1.8 4.3 3.9 4.3s3.9-1.7 3.9-4.4z"/><path fill="#e6e6e6" d="m376.9 170.8 1.4-2.1c1.4 1.1 3 1.7 4.4 1.7s2.1-.5 2.1-1.5-1.3-1.4-2.8-1.8c-.1 0-.2-.1-.2-.1-2-.6-4.2-1.4-4.2-4s2.1-4.1 4.8-4.1c1.7 0 3.5.6 5 1.5l-1.2 2.2c-1.3-.8-2.6-1.3-3.8-1.3s-1.9.5-1.9 1.4 1.3 1.4 2.8 1.8c.1 0 .2.1.2.1 2 .6 4.2 1.5 4.2 4 0 2.9-2.2 4.2-5 4.2-1.9 0-4-.7-5.8-2z"/><path fill="#e6e6e6" d="m505.6 163.6c0-5.1 4.1-9.2 9.3-9.2s9.2 4.2 9.2 9.2-4.1 9.2-9.3 9.2-9.2-4.1-9.2-9.2zm17.4-.1c0-4.5-3.5-8.2-8.2-8.2s-8.2 3.7-8.2 8.3c0 4.5 3.5 8.2 8.2 8.2s8.2-3.7 8.2-8.3zm-13.1 0c0-2.8 2.1-5.1 5.1-5.1 1.9 0 2.9.6 3.9 1.5l-1.4 1.7c-.8-.7-1.5-1.1-2.5-1.1-1.7 0-2.8 1.4-2.8 3.1s1.1 3 2.8 3c1.1 0 1.7-.5 2.5-1.1l1.4 1.4c-1.1 1.1-2.1 1.7-4 1.7-2.9 0-5-2.3-5-5.1z"/><path fill="#e6e6e6" d="m525.4 154.7h3.4l4.2 13.2 4.4-13.3h2.6l4.4 13.3 4.2-13.2h3.3l-6.2 18h-2.7l-4.4-12.8-4.4 12.8h-2.7z"/><path fill="#e6e6e6" d="m551.7 165.8c0-3.9 3.1-7 7.2-7 4.2 0 7.2 3.2 7.2 7s-3.1 7-7.3 7c-4.1 0-7.1-3.1-7.1-7zm11.2 0c0-2.3-1.7-4.3-4.2-4.3s-4.1 2-4.1 4.3 1.7 4.3 4.1 4.3c2.7.1 4.2-1.9 4.2-4.3z"/><path fill="#e6e6e6" d="m568.3 159.1h3.1v3c.8-2 2.4-3.4 4.8-3.3v3.2h-.2c-2.7 0-4.6 1.7-4.6 5.4v5.1h-3.1z"/><path fill="#e6e6e6" d="m577.9 153.9h3.1v11.1l5.6-6h3.8l-5.4 5.5 5.5 8h-3.5l-4.1-5.8-1.9 2v3.9h-3.1z"/><path fill="#e6e6e6" d="m590.6 165.8c0-3.9 3.1-7 7.2-7 4.2 0 7.2 3.2 7.2 7s-3.1 7-7.3 7c-4.1 0-7.1-3.1-7.1-7zm11.2 0c0-2.3-1.7-4.3-4.2-4.3s-4.1 2-4.1 4.3 1.7 4.3 4.1 4.3c2.6.1 4.2-1.9 4.2-4.3z"/><path fill="#e6e6e6" d="m607 167.6v-8.6h3.1v7.6c0 2.1 1.1 3.3 2.9 3.3s3-1.3 3-3.3v-7.6h3.1v13.4h-3.1v-2.1c-.8 1.3-2.1 2.3-4.2 2.3-3 .2-4.8-1.8-4.8-5z"/><path fill="#e6e6e6" d="m622.7 168.8v-7.1h-1.7v-2.6h1.7v-3.7h3.1v3.7h3.6v2.6h-3.6v6.6c0 1.2.6 1.7 1.7 1.7.7 0 1.3-.2 1.9-.5v2.5c-.8.5-1.7.7-2.8.7-2.3 0-3.9-.9-3.9-3.9z"/><path fill="#e6e6e6" d="m632 154.7h3.2v15h9.4v2.9h-12.6z"/><path fill="#e6e6e6" d="m654.8 172.5v-1.7c-.9 1.1-2.3 2-4.4 2-2.6 0-4.8-1.4-4.8-4.2 0-3 2.3-4.4 5.4-4.4 1.7 0 2.6.2 3.7.5v-.2c0-1.9-1.2-2.9-3.3-2.9-1.5 0-2.6.3-3.9.8l-.8-2.5c1.5-.7 2.9-1.1 5.1-1.1 4 0 5.9 2.1 5.9 5.7v8zm.1-5.6c-.8-.3-1.9-.5-3.1-.5-2 0-3.1.8-3.1 2.1s1.1 2 2.6 2c2 0 3.5-1.1 3.5-2.9z"/><path fill="#e6e6e6" d="m663.7 170.5v2.1h-3.1v-18.7h3.1v7.4c1-1.4 2.4-2.5 4.5-2.5 3.2 0 6.3 2.5 6.3 7s-3.1 7-6.3 7c-2.1 0-3.5-1.1-4.5-2.3zm7.8-4.7c0-2.6-1.7-4.3-3.9-4.3-2.1 0-3.9 1.7-3.9 4.4 0 2.6 1.8 4.3 3.9 4.3s3.9-1.7 3.9-4.4z"/><path fill="#e6e6e6" d="m675.8 170.8 1.4-2.1c1.4 1.1 3 1.7 4.4 1.7s2.1-.5 2.1-1.5-1.3-1.4-2.8-1.8c-.1 0-.2-.1-.2-.1-2-.6-4.2-1.4-4.2-4s2.1-4.1 4.8-4.1c1.7 0 3.5.6 5 1.5l-1.2 2.2c-1.3-.8-2.6-1.3-3.8-1.3s-1.9.5-1.9 1.4 1.3 1.4 2.8 1.8c.1 0 .2.1.2.1 2 .6 4.2 1.5 4.2 4 0 2.9-2.2 4.2-5 4.2-2 0-4.1-.7-5.8-2z"/><path fill="#e6e6e6" d="m61 298.6c0-5.1 4.1-9.2 9.3-9.2s9.2 4.2 9.2 9.2-4.1 9.2-9.3 9.2c-5.1 0-9.2-4.2-9.2-9.2zm17.4-.1c0-4.5-3.5-8.2-8.2-8.2s-8.2 3.7-8.2 8.3c0 4.5 3.5 8.2 8.2 8.2s8.2-3.7 8.2-8.3zm-13.1-.1c0-2.8 2.1-5.1 5.1-5.1 1.9 0 2.9.6 3.9 1.5l-1.4 1.7c-.8-.7-1.5-1.1-2.5-1.1-1.7 0-2.8 1.4-2.8 3.1s1.1 3 2.8 3c1.1 0 1.7-.5 2.5-1.1l1.4 1.4c-1.1 1.1-2.1 1.7-4 1.7-2.8.1-5-2.2-5-5.1z"/><path fill="#e6e6e6" d="m80.9 289.7h3.4l4.2 13.2 4.4-13.3h2.6l4.4 13.3 4.2-13.2h3.3l-6.2 18h-2.7l-4.4-12.8-4.4 12.8h-2.7z"/><path fill="#e6e6e6" d="m107.1 300.8c0-3.9 3.1-7 7.2-7s7.2 3.2 7.2 7-3.1 7-7.3 7c-4 0-7.1-3.1-7.1-7zm11.3 0c0-2.3-1.7-4.3-4.2-4.3s-4.1 2-4.1 4.3 1.7 4.3 4.1 4.3c2.6.1 4.2-1.9 4.2-4.3z"/><path fill="#e6e6e6" d="m123.7 294h3.1v3c.8-2 2.4-3.4 4.8-3.3v3.2h-.2c-2.7 0-4.6 1.7-4.6 5.4v5.1h-3.1z"/><path fill="#e6e6e6" d="m133.4 288.9h3.1v11.1l5.6-6h3.8l-5.4 5.5 5.5 8h-3.5l-4.1-5.8-1.9 1.9v3.9h-3.1z"/><path fill="#e6e6e6" d="m146 300.8c0-3.9 3.1-7 7.2-7s7.2 3.2 7.2 7-3.1 7-7.3 7c-4.1 0-7.1-3.1-7.1-7zm11.2 0c0-2.3-1.7-4.3-4.2-4.3s-4.1 2-4.1 4.3 1.7 4.3 4.1 4.3c2.6.1 4.2-1.9 4.2-4.3z"/><path fill="#e6e6e6" d="m162.4 302.6v-8.6h3.1v7.6c0 2.1 1.1 3.3 2.9 3.3s3-1.3 3-3.3v-7.6h3.1v13.4h-3.1v-2.1c-.8 1.3-2.1 2.3-4.2 2.3-3 .2-4.8-1.8-4.8-5z"/><path fill="#e6e6e6" d="m178.1 303.8v-7.1h-1.7v-2.7h1.7v-3.7h3.1v3.7h3.6v2.6h-3.6v6.6c0 1.2.6 1.7 1.7 1.7.7 0 1.3-.2 1.9-.5v2.5c-.8.5-1.7.7-2.8.7-2.3.1-3.9-.9-3.9-3.8z"/><path fill="#e6e6e6" d="m187.4 289.7h3.2v15h9.4v2.9h-12.5v-17.9z"/><path fill="#e6e6e6" d="m210.2 307.5v-1.7c-.9 1.1-2.3 2-4.4 2-2.6 0-4.8-1.4-4.8-4.2 0-3 2.3-4.4 5.4-4.4 1.7 0 2.6.2 3.7.5v-.2c0-1.9-1.2-2.9-3.3-2.9-1.5 0-2.6.3-3.9.8l-.8-2.5c1.5-.7 2.9-1.1 5.1-1.1 4 0 5.9 2.1 5.9 5.7v8zm.1-5.6c-.8-.3-1.9-.5-3.1-.5-2 0-3.1.8-3.1 2.1s1.1 2 2.6 2c2 0 3.5-1.1 3.5-2.9z"/><path fill="#e6e6e6" d="m219.2 305.5v2.1h-3.1v-18.7h3.1v7.4c1-1.4 2.4-2.5 4.5-2.5 3.2 0 6.3 2.5 6.3 7s-3.1 7-6.3 7c-2.2 0-3.6-1.1-4.5-2.3zm7.7-4.7c0-2.6-1.7-4.3-3.9-4.3s-3.9 1.7-3.9 4.4c0 2.6 1.8 4.3 3.9 4.3s3.9-1.7 3.9-4.4z"/><path fill="#e6e6e6" d="m231.2 305.8 1.4-2.1c1.4 1.1 3 1.7 4.4 1.7s2.1-.5 2.1-1.5-1.3-1.4-2.8-1.8c-.1 0-.2-.1-.2-.1-2-.6-4.2-1.4-4.2-4s2.1-4.1 4.8-4.1c1.7 0 3.5.6 5 1.5l-1.2 2.2c-1.3-.8-2.6-1.3-3.8-1.3s-1.9.5-1.9 1.4 1.3 1.4 2.8 1.8c.1 0 .2.1.2.1 2 .6 4.2 1.5 4.2 4 0 2.9-2.2 4.2-5 4.2-2 0-4.1-.7-5.8-2z"/><path fill="#e6e6e6" d="m360.6 298.6c0-5.1 4.1-9.2 9.3-9.2s9.2 4.2 9.2 9.2-4.1 9.2-9.3 9.2-9.2-4.2-9.2-9.2zm17.4-.1c0-4.5-3.5-8.2-8.2-8.2s-8.2 3.7-8.2 8.3c0 4.5 3.5 8.2 8.2 8.2s8.2-3.7 8.2-8.3zm-13.1-.1c0-2.8 2.1-5.1 5.1-5.1 1.9 0 2.9.6 3.9 1.5l-1.4 1.7c-.8-.7-1.5-1.1-2.5-1.1-1.7 0-2.8 1.4-2.8 3.1s1.1 3 2.8 3c1.1 0 1.7-.5 2.5-1.1l1.4 1.4c-1.1 1.1-2.1 1.7-4 1.7-2.8.1-5-2.2-5-5.1z"/><path fill="#e6e6e6" d="m380.5 289.7h3.4l4.2 13.2 4.4-13.3h2.6l4.4 13.3 4.2-13.2h3.3l-6.2 18h-2.7l-4.4-12.8-4.4 12.8h-2.7z"/><path fill="#e6e6e6" d="m406.7 300.8c0-3.9 3.1-7 7.2-7 4.2 0 7.2 3.2 7.2 7s-3.1 7-7.3 7c-4.1 0-7.1-3.1-7.1-7zm11.3 0c0-2.3-1.7-4.3-4.2-4.3s-4.1 2-4.1 4.3 1.7 4.3 4.1 4.3c2.7.1 4.2-1.9 4.2-4.3z"/><path fill="#e6e6e6" d="m423.3 294h3.1v3c.8-2 2.4-3.4 4.8-3.3v3.2h-.2c-2.7 0-4.6 1.7-4.6 5.4v5.1h-3.1z"/><path fill="#e6e6e6" d="m433 288.9h3.1v11.1l5.6-6h3.8l-5.4 5.5 5.5 8h-3.5l-4.1-5.8-1.9 2v3.9h-3.1z"/><path fill="#e6e6e6" d="m445.6 300.8c0-3.9 3.1-7 7.2-7 4.2 0 7.2 3.2 7.2 7s-3.1 7-7.3 7c-4.1 0-7.1-3.1-7.1-7zm11.3 0c0-2.3-1.7-4.3-4.2-4.3s-4.1 2-4.1 4.3 1.7 4.3 4.1 4.3c2.6.1 4.2-1.9 4.2-4.3z"/><path fill="#e6e6e6" d="m462.1 302.6v-8.6h3.1v7.6c0 2.1 1.1 3.3 2.9 3.3s3-1.3 3-3.3v-7.6h3.1v13.4h-3.1v-2.1c-.8 1.3-2.1 2.3-4.2 2.3-3.1.2-4.8-1.8-4.8-5z"/><path fill="#e6e6e6" d="m477.8 303.8v-7.1h-1.8v-2.7h1.7v-3.7h3.1v3.7h3.6v2.6h-3.6v6.6c0 1.2.6 1.7 1.7 1.7.7 0 1.3-.2 1.9-.5v2.5c-.8.5-1.7.7-2.8.7-2.2.1-3.8-.9-3.8-3.8z"/><path fill="#e6e6e6" d="m487.1 289.7h3.2v15h9.4v2.9h-12.5v-17.9z"/><path fill="#e6e6e6" d="m509.9 307.5v-1.7c-.9 1.1-2.3 2-4.4 2-2.6 0-4.8-1.4-4.8-4.2 0-3 2.3-4.4 5.4-4.4 1.7 0 2.6.2 3.7.5v-.2c0-1.9-1.2-2.9-3.3-2.9-1.5 0-2.6.3-3.9.8l-.8-2.5c1.5-.7 2.9-1.1 5.1-1.1 4 0 5.9 2.1 5.9 5.7v8zm.1-5.6c-.8-.3-1.9-.5-3.1-.5-2 0-3.1.8-3.1 2.1s1.1 2 2.6 2c2 0 3.5-1.1 3.5-2.9z"/><path fill="#e6e6e6" d="m518.8 305.5v2.1h-3.1v-18.7h3.1v7.4c1-1.4 2.4-2.5 4.5-2.5 3.2 0 6.3 2.5 6.3 7s-3.1 7-6.3 7c-2.2 0-3.5-1.1-4.5-2.3zm7.7-4.7c0-2.6-1.7-4.3-3.9-4.3s-3.9 1.7-3.9 4.4c0 2.6 1.8 4.3 3.9 4.3s3.9-1.7 3.9-4.4z"/><path fill="#e6e6e6" d="m530.8 305.8 1.4-2.1c1.4 1.1 3 1.7 4.4 1.7s2.1-.5 2.1-1.5-1.3-1.4-2.8-1.8c-.1 0-.2-.1-.2-.1-2-.6-4.2-1.4-4.2-4s2.1-4.1 4.8-4.1c1.7 0 3.5.6 5 1.5l-1.2 2.2c-1.3-.8-2.6-1.3-3.8-1.3s-1.9.5-1.9 1.4 1.3 1.4 2.8 1.8c.1 0 .2.1.2.1 2 .6 4.2 1.5 4.2 4 0 2.9-2.2 4.2-5 4.2-1.9 0-4.1-.7-5.8-2z"/><path fill="#e6e6e6" d="m659.5 298.6c0-5.1 4.1-9.2 9.3-9.2s9.2 4.2 9.2 9.2-4.1 9.2-9.3 9.2-9.2-4.2-9.2-9.2zm17.3-.1c0-4.5-3.5-8.2-8.2-8.2s-8.2 3.7-8.2 8.3c0 4.5 3.5 8.2 8.2 8.2 4.8 0 8.2-3.7 8.2-8.3zm-13-.1c0-2.8 2.1-5.1 5.1-5.1 1.9 0 2.9.6 3.9 1.5l-1.4 1.7c-.8-.7-1.5-1.1-2.5-1.1-1.7 0-2.8 1.4-2.8 3.1s1.1 3 2.8 3c1.1 0 1.7-.5 2.5-1.1l1.4 1.4c-1.1 1.1-2.1 1.7-4 1.7-2.9.1-5-2.2-5-5.1z"/><path fill="#e6e6e6" d="m679.3 289.7h3.4l4.2 13.2 4.4-13.3h2.6l4.4 13.3 4.2-13.2h3.3l-6.2 18h-2.6l-4.4-12.8-4.4 12.8h-2.7z"/><path fill="#e6e6e6" d="m705.5 300.8c0-3.9 3.1-7 7.2-7 4.2 0 7.2 3.2 7.2 7s-3.1 7-7.3 7c-4 0-7.1-3.1-7.1-7zm11.3 0c0-2.3-1.7-4.3-4.2-4.3s-4.1 2-4.1 4.3 1.7 4.3 4.1 4.3c2.7.1 4.2-1.9 4.2-4.3z"/><path fill="#e6e6e6" d="m722.1 294h3.1v3c.8-2 2.4-3.4 4.8-3.3v3.2h-.2c-2.7 0-4.6 1.7-4.6 5.4v5.1h-3.1z"/><path fill="#e6e6e6" d="m731.8 288.9h3.1v11.1l5.6-6h3.8l-5.4 5.5 5.5 8h-3.5l-4.1-5.8-1.9 2v3.9h-3.1z"/><path fill="#e6e6e6" d="m744.4 300.8c0-3.9 3.1-7 7.2-7 4.2 0 7.2 3.2 7.2 7s-3.1 7-7.3 7c-4.1 0-7.1-3.1-7.1-7zm11.3 0c0-2.3-1.7-4.3-4.2-4.3s-4.1 2-4.1 4.3 1.7 4.3 4.1 4.3c2.6.1 4.2-1.9 4.2-4.3z"/><path fill="#e6e6e6" d="m760.9 302.6v-8.6h3.1v7.6c0 2.1 1.1 3.3 2.9 3.3s3-1.3 3-3.3v-7.6h3.1v13.4h-3.1v-2.1c-.8 1.3-2.1 2.3-4.2 2.3-3.1.2-4.8-1.8-4.8-5z"/><path fill="#e6e6e6" d="m776.6 303.8v-7.1h-1.7v-2.7h1.7v-3.7h3.1v3.7h3.6v2.6h-3.6v6.6c0 1.2.6 1.7 1.7 1.7.7 0 1.3-.2 1.9-.5v2.5c-.8.5-1.7.7-2.8.7-2.3.1-3.9-.9-3.9-3.8z"/><path fill="#e6e6e6" d="m785.9 289.7h3.2v15h9.4v2.9h-12.5v-17.9z"/><path fill="#e6e6e6" d="m808.7 307.5v-1.7c-.9 1.1-2.3 2-4.4 2-2.6 0-4.8-1.4-4.8-4.2 0-3 2.3-4.4 5.4-4.4 1.7 0 2.6.2 3.7.5v-.2c0-1.9-1.2-2.9-3.3-2.9-1.5 0-2.6.3-3.9.8l-.8-2.5c1.5-.7 2.9-1.1 5.1-1.1 4 0 5.9 2.1 5.9 5.7v8zm.1-5.6c-.8-.3-1.9-.5-3.1-.5-2 0-3.1.8-3.1 2.1s1.1 2 2.6 2c2 0 3.5-1.1 3.5-2.9z"/><path fill="#e6e6e6" d="m817.6 305.5v2.1h-3.1v-18.7h3.1v7.4c1-1.4 2.4-2.5 4.5-2.5 3.2 0 6.3 2.5 6.3 7s-3.1 7-6.3 7c-2.1 0-3.5-1.1-4.5-2.3zm7.7-4.7c0-2.6-1.7-4.3-3.9-4.3-2.1 0-3.9 1.7-3.9 4.4 0 2.6 1.8 4.3 3.9 4.3 2.2 0 3.9-1.7 3.9-4.4z"/><path fill="#e6e6e6" d="m829.6 305.8 1.4-2.1c1.4 1.1 3 1.7 4.4 1.7s2.1-.5 2.1-1.5-1.3-1.4-2.8-1.8c-.1 0-.2-.1-.2-.1-2-.6-4.2-1.4-4.2-4s2.1-4.1 4.8-4.1c1.7 0 3.5.6 5 1.5l-1.2 2.2c-1.3-.8-2.6-1.3-3.8-1.3s-1.9.5-1.9 1.4 1.3 1.4 2.8 1.8c.1 0 .2.1.2.1 2 .6 4.2 1.5 4.2 4 0 2.9-2.2 4.2-5 4.2-1.9 0-4-.7-5.8-2z"/><path fill="#e6e6e6" d="m206.3 434.2c0-5.1 4.1-9.2 9.3-9.2s9.2 4.2 9.2 9.2-4.1 9.2-9.3 9.2-9.2-4.1-9.2-9.2zm17.4-.1c0-4.5-3.5-8.2-8.2-8.2s-8.2 3.7-8.2 8.3c0 4.5 3.5 8.2 8.2 8.2s8.2-3.7 8.2-8.3zm-13.1-.1c0-2.8 2.1-5.1 5.1-5.1 1.9 0 2.9.6 3.9 1.5l-1.4 1.7c-.8-.7-1.5-1.1-2.5-1.1-1.7 0-2.8 1.4-2.8 3.1s1.1 3 2.8 3c1.1 0 1.7-.5 2.5-1.1l1.4 1.4c-1.1 1.1-2.1 1.7-4 1.7-2.9.1-5-2.2-5-5.1z"/><path fill="#e6e6e6" d="m226.1 425.3h3.4l4.2 13.2 4.4-13.3h2.6l4.4 13.3 4.2-13.2h3.3l-6.2 18h-2.7l-4.4-12.8-4.4 12.8h-2.7z"/><path fill="#e6e6e6" d="m252.4 436.4c0-3.9 3.1-7 7.2-7 4.2 0 7.2 3.2 7.2 7s-3.1 7-7.3 7c-4.1 0-7.1-3.1-7.1-7zm11.2 0c0-2.3-1.7-4.3-4.2-4.3s-4.1 2-4.1 4.3 1.7 4.3 4.1 4.3c2.7.1 4.2-1.9 4.2-4.3z"/><path fill="#e6e6e6" d="m269 429.7h3.1v3c.8-2 2.4-3.4 4.8-3.3v3.2h-.2c-2.7 0-4.6 1.7-4.6 5.4v5.1h-3.1z"/><path fill="#e6e6e6" d="m278.6 424.5h3.1v11.1l5.6-6h3.8l-5.4 5.5 5.5 8h-3.5l-4.1-5.8-1.9 2v3.9h-3.1z"/><path fill="#e6e6e6" d="m291.3 436.4c0-3.9 3.1-7 7.2-7 4.2 0 7.2 3.2 7.2 7s-3.1 7-7.3 7c-4.1 0-7.1-3.1-7.1-7zm11.2 0c0-2.3-1.7-4.3-4.2-4.3s-4.1 2-4.1 4.3 1.7 4.3 4.1 4.3c2.6.1 4.2-1.9 4.2-4.3z"/><path fill="#e6e6e6" d="m307.7 438.2v-8.6h3.1v7.6c0 2.1 1.1 3.3 2.9 3.3s3-1.3 3-3.3v-7.6h3.1v13.4h-3.1v-2.1c-.8 1.3-2.1 2.3-4.2 2.3-3 .2-4.8-1.8-4.8-5z"/><path fill="#e6e6e6" d="m323.4 439.4v-7.1h-1.7v-2.6h1.7v-3.7h3.1v3.7h3.6v2.6h-3.6v6.6c0 1.2.6 1.7 1.7 1.7.7 0 1.3-.2 1.9-.5v2.5c-.8.5-1.7.7-2.8.7-2.3 0-3.9-.9-3.9-3.9z"/><path fill="#e6e6e6" d="m332.7 425.3h3.2v15h9.4v2.9h-12.5v-17.9z"/><path fill="#e6e6e6" d="m355.5 443.1v-1.7c-.9 1.1-2.3 2-4.4 2-2.6 0-4.8-1.4-4.8-4.2 0-3 2.3-4.4 5.4-4.4 1.7 0 2.6.2 3.7.5v-.2c0-1.9-1.2-2.9-3.3-2.9-1.5 0-2.6.3-3.9.8l-.8-2.5c1.5-.7 2.9-1.1 5.1-1.1 4 0 5.9 2.1 5.9 5.7v8zm.1-5.6c-.8-.3-1.9-.5-3.1-.5-2 0-3.1.8-3.1 2.1s1.1 2 2.6 2c2 0 3.5-1.1 3.5-2.9z"/><path fill="#e6e6e6" d="m364.4 441.1v2.1h-3.1v-18.7h3.1v7.4c1-1.4 2.4-2.5 4.5-2.5 3.2 0 6.3 2.5 6.3 7s-3.1 7-6.3 7c-2.1 0-3.5-1.1-4.5-2.3zm7.7-4.7c0-2.6-1.7-4.3-3.9-4.3-2.1 0-3.9 1.7-3.9 4.4 0 2.6 1.8 4.3 3.9 4.3 2.2 0 3.9-1.7 3.9-4.4z"/><path fill="#e6e6e6" d="m376.5 441.4 1.4-2.1c1.4 1.1 3 1.7 4.4 1.7s2.1-.5 2.1-1.5-1.3-1.4-2.8-1.8c-.1 0-.2-.1-.2-.1-2-.6-4.2-1.4-4.2-4s2.1-4.1 4.8-4.1c1.7 0 3.5.6 5 1.5l-1.2 2.2c-1.3-.8-2.6-1.3-3.8-1.3s-1.9.5-1.9 1.4 1.3 1.4 2.8 1.8c.1 0 .2.1.2.1 2 .6 4.2 1.5 4.2 4 0 2.9-2.2 4.2-5 4.2-2 0-4.1-.7-5.8-2z"/><path fill="#e6e6e6" d="m505.1 434.2c0-5.1 4.1-9.2 9.3-9.2s9.2 4.2 9.2 9.2-4.1 9.2-9.3 9.2-9.2-4.1-9.2-9.2zm17.4-.1c0-4.5-3.5-8.2-8.2-8.2s-8.2 3.7-8.2 8.3c0 4.5 3.5 8.2 8.2 8.2s8.2-3.7 8.2-8.3zm-13.1-.1c0-2.8 2.1-5.1 5.1-5.1 1.9 0 2.9.6 3.9 1.5l-1.4 1.7c-.8-.7-1.5-1.1-2.5-1.1-1.7 0-2.8 1.4-2.8 3.1s1.1 3 2.8 3c1.1 0 1.7-.5 2.5-1.1l1.4 1.4c-1.1 1.1-2.1 1.7-4 1.7-2.9.1-5-2.2-5-5.1z"/><path fill="#e6e6e6" d="m525 425.3h3.4l4.2 13.2 4.4-13.3h2.6l4.4 13.3 4.2-13.2h3.3l-6.2 18h-2.7l-4.4-12.8-4.4 12.8h-2.7z"/><path fill="#e6e6e6" d="m551.2 436.4c0-3.9 3.1-7 7.2-7 4.2 0 7.2 3.2 7.2 7s-3.1 7-7.3 7c-4.1 0-7.1-3.1-7.1-7zm11.2 0c0-2.3-1.7-4.3-4.2-4.3s-4.1 2-4.1 4.3 1.7 4.3 4.1 4.3c2.7.1 4.2-1.9 4.2-4.3z"/><path fill="#e6e6e6" d="m567.8 429.7h3.1v3c.8-2 2.4-3.4 4.8-3.3v3.2h-.2c-2.7 0-4.6 1.7-4.6 5.4v5.1h-3.1z"/><path fill="#e6e6e6" d="m577.5 424.5h3.1v11.1l5.6-6h3.8l-5.4 5.5 5.5 8h-3.5l-4.1-5.8-1.9 2v3.9h-3.1z"/><path fill="#e6e6e6" d="m590.1 436.4c0-3.9 3.1-7 7.2-7 4.2 0 7.2 3.2 7.2 7s-3.1 7-7.3 7c-4.1 0-7.1-3.1-7.1-7zm11.2 0c0-2.3-1.7-4.3-4.2-4.3s-4.1 2-4.1 4.3 1.7 4.3 4.1 4.3c2.6.1 4.2-1.9 4.2-4.3z"/><path fill="#e6e6e6" d="m606.5 438.2v-8.6h3.1v7.6c0 2.1 1.1 3.3 2.9 3.3s3-1.3 3-3.3v-7.6h3.1v13.4h-3.1v-2.1c-.8 1.3-2.1 2.3-4.2 2.3-3 .2-4.8-1.8-4.8-5z"/><path fill="#e6e6e6" d="m622.2 439.4v-7.1h-1.7v-2.6h1.7v-3.7h3.1v3.7h3.6v2.6h-3.6v6.6c0 1.2.6 1.7 1.7 1.7.7 0 1.3-.2 1.9-.5v2.5c-.8.5-1.7.7-2.8.7-2.3 0-3.9-.9-3.9-3.9z"/><path fill="#e6e6e6" d="m631.5 425.3h3.2v15h9.4v2.9h-12.5v-17.9z"/><path fill="#e6e6e6" d="m654.3 443.1v-1.7c-.9 1.1-2.3 2-4.4 2-2.6 0-4.8-1.4-4.8-4.2 0-3 2.3-4.4 5.4-4.4 1.7 0 2.6.2 3.7.5v-.2c0-1.9-1.2-2.9-3.3-2.9-1.5 0-2.6.3-3.9.8l-.8-2.5c1.5-.7 2.9-1.1 5.1-1.1 4 0 5.9 2.1 5.9 5.7v8zm.1-5.6c-.8-.3-1.9-.5-3.1-.5-2 0-3.1.8-3.1 2.1s1.1 2 2.6 2c2 0 3.5-1.1 3.5-2.9z"/><path fill="#e6e6e6" d="m663.3 441.1v2.1h-3.1v-18.7h3.1v7.4c1-1.4 2.4-2.5 4.5-2.5 3.2 0 6.3 2.5 6.3 7s-3.1 7-6.3 7c-2.2 0-3.6-1.1-4.5-2.3zm7.7-4.7c0-2.6-1.7-4.3-3.9-4.3s-3.9 1.7-3.9 4.4c0 2.6 1.8 4.3 3.9 4.3s3.9-1.7 3.9-4.4z"/><path fill="#e6e6e6" d="m675.3 441.4 1.4-2.1c1.4 1.1 3 1.7 4.4 1.7s2.1-.5 2.1-1.5-1.3-1.4-2.8-1.8c-.1 0-.2-.1-.2-.1-2-.6-4.2-1.4-4.2-4s2.1-4.1 4.8-4.1c1.7 0 3.5.6 5 1.5l-1.2 2.2c-1.3-.8-2.6-1.3-3.8-1.3s-1.9.5-1.9 1.4 1.3 1.4 2.8 1.8c.1 0 .2.1.2.1 2 .6 4.2 1.5 4.2 4 0 2.9-2.2 4.2-5 4.2-2 0-4.1-.7-5.8-2z"/></g>
</svg>
