<?xml version="1.0" encoding="utf-8"?>
<!-- Generator: Adobe Illustrator 23.0.1, SVG Export Plug-In . SVG Version: 6.00 Build 0)  -->
<svg version="1.2" baseProfile="tiny" id="Layer_1" xmlns="http://www.w3.org/2000/svg" xmlns:xlink="http://www.w3.org/1999/xlink"
	 x="0px" y="0px" viewBox="0 0 900 600" xml:space="preserve">
<g>
	<path d="M436.84,306.98c-21.9,0-13.48,2.83-18-15.17c-14.18-56.52-77.04-55.96-94.74-6.37c-1.52,4.26-1.91-3.22-1.62-5.16
		c0.92-5.98-2.46-18.92,0-29.93c0.35-0.88,0.51-14.11,0.51-15.07c0-9.31-1.54-1.24,1.21-13.35c0.32-1.92,1.38-4.26,0.4-8.19
		c-1.71-6.9-3.17-15.87-4.94-10.53c-0.04-0.13,0.3-0.09-1.73-0.09c-2.93,2.93-4.45,4.95-5.36,7.38c2.28-1.4,6.87-4.14,7.13-6.57
		c0.63,1.17,1.32,7.13,2.38,11.22c1.32,5.12-1.85,6.83-1.21,20.32c0.84,17.85-2.26,14.16-1.01,32.96
		c1.48,22.2,1.03,26.36,3.64,29.52c0.88,0.88,0.46,4.28,3.34,8.59c-1.42,2.93-3.84,5.16-4.65,8.9c-3.12-14.02-1.96-27.2-4.85-31.55
		c0.76-5.57,1.06-16.84-2.73-21.03c0.65-2.59,0.46-2.07,0.1-3.34c-0.51,0.81-0.81,1.31-1.31,2.02c-8.59-8.95-6.76-3.27-8.8-16.89
		c-1.47-9.83,3.3-38.97,4.75-42.36c5.81-13.61,2.23-23.74,3.94-30.23c8.6-2.64,7.46-10.09,10.72-13.35c0.1-1.42,0.01-2.53,0.3-3.64
		c1.99-7.53-0.54-11.99,1.72-18.5c4.36-12.56-1.16-28.71-20.22-33.57c-2.12-2.43-4.35-4.95-6.47-7.58
		c-3.64-4.53-2.89,1.38-2.02-10.72c6.24-2.6,10.19-23.83,11.73-29.22c1.47-5.12-0.75-15.98-1.42-2.33c-0.1,2.12-1.44,3.94-1.82,6.07
		c-0.54,3.01-4.18,22.05-7.89,23.76c-0.91-0.05-11.86-0.76-12.74-0.51c-0.25,1.96,2.87,2.1,4.75,2.22c6.77,0.44,5.55-0.96,5.16,4.75
		c-0.33,4.71-0.63,4.09,2.93,8.7c5.58,7.22,4.25,16.1,4.25,22.75c0,3.87-2.99,4.95-6.77,5.66c-0.93-1.14-0.54-5.91-2.93-7.99
		c0.1,3.24,1.82,5.76,1.52,8.8c-3.34,0.51-6.39,0.43-8.9-2.02c-2.79-2.73-6.64-4.04-10.41-7.99c-7.46-7.81-3.55-4.86-12.34-12.84
		c-21.43-19.46-20.69-5.3-1.21-23.15c4.05-0.81,0.9,7.64,1.72-24.97c0.51-0.81,1.52-1.01,1.21-1.92c-0.51-1.01-1.82-0.3-2.33-1.11
		c-1.37-4.11,0.11-0.56,2.12-2.83c-0.1-1.82,1.11-3.54,0.81-5.56c-1.21-1.31-3.03-2.12-2.63-4.25c4.26-3.41,3,15.86,6.57,7.79
		c3.27-7.4,3.4-9.47,5.16-11.22c5.57-5.57,2.43-8.29,7.89-8.29c0.2-1.82,2.53-1.01,3.03-2.83c-0.4-1.01-1.01-2.22-1.62-3.54
		c-1.2,0.3-2.21-0.29-3.32-0.6c0.45-3.5,5.17-0.41,6.96,3.02c0.3-0.2,1.01-1.42,1.11-1.92c2.33-0.1,4.64-0.99,6.98,0.2
		c0.4,0.21,1.01,0.1,1.52,0c2.18-0.73,5.09,2.27,10.21,0.3c2.26-1.13,0.1,7.84,3.24,12.54c-0.54,3.22-0.67,2.49-5.56,4.45
		c-3.12,1.25-4.83,4.51-3.54,8.39c1.31-1.01,0.3-2.63,1.72-3.44c2.12,0.91,4.25-0.1,6.37-0.51c1.01-2.93,2.12-5.76,2.63-8.59
		c-2.22-4.55-1.11-9.3-1.82-13.65c2.96-4.44,6.09-2.71,8.29-6.47c-0.81-1.11,0.4-2.22,0.1-3.24c-0.51-0.61-0.81-1.31-1.62-1.62
		c-1.17,0.21-2.46,1.99-3.54,0.91c0.52-1.16,3.53-0.82,0.91-3.44c-1.42-0.4-1.92,0.91-2.83,0.4c-0.4-2.12,1.01-4.35-0.51-6.37
		c-1.7,0.9-2.61,2.68-4.39,3.01c-0.17-0.38-0.27-0.84-0.47-1.29c-3.74-0.71-6.98,0.81-9.5,1.11c-5.36-1.01-9.91-0.71-14.05-1.01
		c-1.82,0.51-1.72,2.63-3.54,2.53c-0.91-0.61,0.3-2.43-1.72-2.53c-2.53,2.73-5.66,4.45-9.71,4.25c-0.91-0.81-1.82-1.72-2.73-2.53
		c-5.94-0.74-1.35,2.07-1.01,3.54c-0.61,0.4-1.21,0.81-1.92,1.42c0.89,2.08-1.71,2.2-0.89,4.14c-2.81-0.16-1.09,0.85-1.33,1.32
		c-0.69,1.33-0.61,2.93-1.82,3.94c-0.71,0.71-1.13,1.62-1.21,2.63c-0.38,4.94-4.53,7.29-2.33,12.54c1.18,2.81-0.06,13.42,4.04,26.9
		c1.11,3.64,2.22,7.18,1.21,10.72c1.11,3.54,2.87,1.93,0,6.17c-2.41,3.55-10,7.41-13.35,8.8c-22.15,9.21-14.53,12.07-29.83,19.72
		c-12.66,6.33-17.03,19.31-15.37,23.26c-0.4,2.02-2.31,2.63-2.83,4.25c-0.35,1.09-2,5.25-2.73,6.17c-6.88,9.7-3.07,27.67-3.84,31.45
		c-4.01,19.67-1.83,12.27-4.35,13.95c-1.75,3.5-2.19,6.17-4.65,9c-0.95,1.27-0.71,2.47-0.71,10.52c-0.4,1.52-2.02,2.22-3.13,3.64
		c-2,9-8.25,13.62-6.57,44.08c0.32,5.79-2.19,7.8-2.43,16.28c-0.29,10.65-0.92,9.45-3.74,14.56c-3.38,6.12-2.35,4.22-2.02,9.91
		c0.25,4.32,1.38,7.01-4.75,5.26c-1.64-3.29,1.41-32.73-17.19-56.72c-16.75-21.6-55.35-25.4-76.74,2.63
		c-20.62,27.03-14.65,50.3-20.63,50.25c-43.15-0.38-38.73-1.95-42.06,1.31c-4.61,4.51-0.71,10.04,0.91,11.22
		c64.34,7.15,31.98-13.5,47.72,34.28c5.34,16.22,16.62,32.4,33.16,36.1c63.98,18.28,72.72-63.04,73.51-64.61
		c3.03-1.01,4.04,1.62,5.97,2.93c2.11,0.53-0.36-0.73,8.19,2.83c1.31,0.1,1.82-1.11,2.93-1.21c1.92,0.51,3.84,0.91,5.76,1.31
		c6.37-7.12,0.91-5.34,25.18-5.16c0.4,0,0.71,0.3,1.42,0.51c-0.9,5.32,3.26,11.59,2.14,14.04c-2.79,6.1-1.13,15.67-0.53,25.59
		c1.13,18.61-3.98,27.3,1.21,28.41c4.23,0.3,4.85-3.4,3.54,6.98c-2.29,18.19,4.88,11.23-13.85,39.33
		c-5.11,7.66-3.86,12.71-5.76,21.54c-3.98,18.48-3.29,40.21-1.31,59.96c0.62,6.23-1.87,10.59-0.91,16.18
		c-2.48,1.34-1.34,2.18-4.85,10.62c-0.5,1.01,0.38,0.79,1.21,1.42c0.4,0.2,0.4,1.01,1.11,0.61c1.31-1.21,1.21-3.24,2.63-4.65
		c2.02,1.52,4.45,1.31,6.77,1.21c0.86,3.72-2.45,3.32-12.84,4.65c-0.61,1.01-0.41,1.62,0.3,2.12c2.48,1.75,4.49-0.85,9.2-0.61
		c11.03,0.57,3.32-15.82,17.19-14.86c3.63,6.05,2.07-0.95,3.13,9.4c0.78,7.64,1.67,5.54-3.64,6.67c-7.43,1.58-12.54,5.76-12.15,7.48
		c2.77,0.14,12.36-5.73,17.11-4.15c1.31,5.22-7.56,0.62-12.34,7.79c-0.4,0.51-0.51,1.11,0.2,1.52c1.01-0.3,1.82-1.12,3.03-1.31
		c1.82-0.29,9.56-2.22,11.32-2.02c2.94,4.62,1.33,3.03-0.81,3.64c-6.47,1.18-7.89,1.61-7.89,3.13c0,2.84,7.51,0.19,9.61,0
		c2.11-0.19,1.69-4.28,5.46,2.33c4.22,7.39,12.65,14.43,14.66,15.67c0.3,4.35,0.1,7.08-0.81,10.11c-9.95,2.95-55.3-0.67-49.64-12.54
		c0.35-0.74-0.72-5.49-4.55-7.18c-3.82-1.69-6.43-2.25-8.09-6.17c-3.81-9.02-0.89-6.41-1.82-9.2c-1.42,0.2-1.81,1.22-2.12,2.33
		c-0.88,3.15,1.2,1.52-9.71,1.52c-10.66,0-14.18-0.86-18.71,0.51c-2.65,0.8-7.02,0.72-9,1.11c-30.31,5.96-26.9,7.9-25.29,21.44
		c21.46,9.39,54.67,7.27,77.65,3.44c2.31,1.11,10.92,6.2,21.44,7.28c10.91,1.12,21.05,2.82,30.64,0.51
		c1.11-2.63,3.44-4.55,3.44-7.48c0-14.65-0.48-2.73-8.7-14.76c1.92-0.3,3.84-0.11,5.66-0.1c17.93,0.09,35.91-3.07,41.96-3.64
		c14.48-1.36,8.82-4.69,10.21-7.08c3.17-1.9,6.63,5.17,12.23,5.56c2.36,0,3.45,4.85,21.64,4.85c21.29,0,24.18,1.25,24.87-2.22
		c1.7-6.38,3.23-0.68-0.2-10.21c-0.99-2.74-2.83-3.95-5.66-4.25c-6.1-0.64-16.19-4.16-18.6-9.81c-1.51-3.54-4.55-4.49-8.09-9.91
		c0.2-5.56-1.01-10.62-5.16-14.36c-1.42-0.1-1.72,1.52-3.24,1.42c1.93-18.7,6.24-10.89,8.19-80.28c0.1-0.91,0.32-1.93-0.1-2.63
		c-1.17-1.95-0.71-3.94-0.71-5.86c0-4.6-1.03-5.02-0.1-10.82c0.38-2.33,0.91-4.65-0.1-6.88c5.89-11.02,0.68-22.17-1.31-20.22
		c-9.94,9.72-6.07,5-6.07,10.92c0,1.4,0.66,4.82,2.33,4.35c1.99-11.16-1.98-6.68,5.16-12.03c1.99,10.63-4.25,21.42-1.21,30.74
		c-1.21,4.45-1.21,8.59,0.2,12.54c-1.59,37.67-5.32,59.64-6.67,64.81c-3.29,12.57-1.8,16.85-2.83,18.91
		c-8.6,0.33-9.19-2.84-12.74-0.71c-2.12-1.01-3.64-3.03-6.17-2.12c-0.3-1.11,0.92-1.11,1.01-1.92c1.18-10.02,3.43-14.26,1.52-16.18
		c-2.14-2.14-2.67-24.18-2.63-27.2c0.06-4.7-0.95-2.11-5.06-21.94c-3.64-17.6,8.27-39.94,3.34-39.94
		c-1.37,0.41-1.39,0.72-3.03,11.73c-1.79,11.99-3.34,12.9-2.83,19.62c0.75,10.03,1.46,19.45,5.76,26.29c1.08,1.44-0.32,1.45,0,13.04
		c1.16,42.75,2.03,29.05-3.74,34.38c0.1,1.92-1.5,3.44-2.02,5.36c-1.38,5.1-4.15,7.97-12.13,19.21c0.69,4.32,2.95-1.67,12.54-14.16
		c1.57-2.05,1.53-3.57,2.63-6.17c0.47-1.12,1.36-2.56,1.62-3.13c1.68,3.57,2.85,5.23,2.63,6.77c-1.99,9.96,17.95,2.47,25.3-4.48
		c0.42-0.28,1.87,1.92,2.91,3.27c-0.61,2.63-0.3,5.46-0.51,8.19c-2.59,2.98-7.29,6.26-5.32,7.32c2.33,1.25,5.94-3.89,7.77-3.53
		c3.23,0.64-2.38,1.57-3.15,5.31c2.78,1.07,3.98-0.88,5.6-2.47c0.19-0.19,3.58,1.82,5.42,7.02c-0.29,0.86-1.21,4.24-1.21,4.35
		c2.29,0.46,2.23-0.56,3.34-1.11c3.53,2.23,7.62,3.2,11.53,4.55c3.41,1.18,4.4-0.42,6.64,0.27c2.38,0.74,1.25,5.47,3.87,8.93
		c-0.87,2.25-2.27,2.77-10.41,2.12c-18-1.43-22.22,3.61-39.94-8.09c-6.02-5.02-7.74-0.12-17.12-3.76c-1.58-0.61-1.9-0.73-2.19-0.99
		c-3.24-3.24-5.7-3.32-11.73-8.59c-0.81,0-1.25,0.31-1.52,1.11c1.63,5.98,13.2,10.3,5.36,9.3c-0.7-0.09-8.01-0.38-7.58,1.11
		c1.99,0.46,8.41-0.88,12.74-0.61c2.57,0.16,4.86,2.69,12.34,3.44c2.07,5.17-7,5.76-30.03,7.48c-37,2.77-26.73,1.67-40.85-16.48
		c0.92-5.55,0.23-2.28,7.58-3.74c10.91-2.17,31.91-1.23,37.81-0.91c1.61,0,1.5-0.99,0.51-1.01c-45.96-1.17-45.79,3.03-46.51-1.31
		c-1.74-10.42-0.39-13.65-3.94-14.36c-3.64-3.97,1.13-26.33,4.65-36.7c2.01-5.9,2.09-2.14,3.24-5.66
		c7.11-21.79,6.54-20.55,6.88-22.24c1.71-19.61,6.24-32.76,2.73-32.76c-1.29,0.86-0.9,2.07-1.92,8.19c-0.8,7.25-3.7,4.5-2.83,21.33
		c0.47,9.14-13.81,22.47-16.99,62.59c-0.1,0.71,0,1.52-0.71,2.12c-13.37,3.44-7.58,5.66-10.62,9c-2.33-0.91-5.16,0.4-7.58-1.52
		c5.08-20.97,3.12-8.04,2.83-25.78c-0.53-31.93-0.34-26.97-0.91-28.11c-1.32-0.99-1.37-0.08-0.61-7.38
		c4.34-41.57,3.78-29.9,20.42-59.65c1.24-2.21,2.22-4.45,1.52-7.08c-0.26-1.57,0.06-20.46,1.62-21.44c3.03,0.61,6.37,0.1,9.5,1.72
		c0.51,2.83-0.2,5.76,0.2,8.59c0.27,1.2-1.36,4.15,0.61,4.15c0.81-0.61,1.01-1.42,0.71-2.33c-0.27-1.63-0.63-0.75,2.12-7.99
		c11,6.52,17.94,6.57,18.4,9.1c-11.31,30.7-4.4,15.7-15.37,31.65c-0.65,1.08-0.24,2.47,0.91,1.31
		c12.65-12.77,10.16-17.3,13.04-22.04c6.8-11.18,1.21-13.53,12.34-7.28c6.89,3.87,7.67-5.88,10.21-12.54c2.63,2.53,6.37,1.31,9,3.24
		c1.92,6.17,3.7,13.68,6.07,13.35c-0.75-14.57-6.53-11.8,2.12-11.22c14.96,1,27.34-7.94,30.84-8.19c1.01,1.92-0.3,4.15,1.01,6.37
		c2.02-2.43,1.52-5.06,1.62-7.68c12.67-7.98,8.85,2.11,4.04-24.17c-0.46-2.51-3.11-18.65-1.42-19.92
		c11.65,33.01,29.21,37.04,52.88,37.21c16.46,0.11,29.48-12.51,37.11-26.9c8.92-16.83,7.44-28.94,9.4-30.03
		c1.32,0,17.1,0.12,18.4-0.1c0.39-0.66,2.34-3.18,3.03-5.36C444.18,310.84,441.09,306.98,436.84,306.98z M305.3,42.38
		c0.71-0.61,1.52-0.3,3.13-0.51C307.02,43.01,306.28,42.63,305.3,42.38z M313.93,15.96c-0.81,1.06-0.87,0.69-1.39,0.25
		C310.28,14.3,316.56,12.51,313.93,15.96z M307.83,7.49c0.61,1.21,0.61,1.21-1.21,2.73C307.02,8.91,307.02,8,307.83,7.49z
		 M304.09,21.04c0.1,0,0.76,0.3-0.3,0.3C303.58,21.14,303.78,21.04,304.09,21.04z M291.55,18.11c-0.24,0.24-0.91,0.23-0.91-0.4
		C290.64,17.21,291.96,17.49,291.55,18.11z M297.52,10.53c0,0.07,0,0.13,0,0.2C297.25,10.6,297.26,10.65,297.52,10.53z
		 M296.81,14.17c0,0.1,0.1,0.2,0.2,0.2c0,0.1-0.1,0.2-0.2,0.2s-0.1-0.1-0.2-0.2C296.61,14.27,296.71,14.27,296.81,14.17z
		 M294.78,18.89c0.39,1.07,1.02-0.36,2.94,1.74c-1.41-0.3-2.29-0.6-3.33-1.63C294.17,18.83,294.71,18.71,294.78,18.89z
		 M293.67,16.19c0.32,0.32-0.6,0.84-0.6,0.39C293.27,16.39,293.47,16.29,293.67,16.19z M292.46,10.53
		c-0.97,0.72-1.67,1.15-2.53,1.82C288.92,8.62,294.33,9.59,292.46,10.53z M284.42,7.61c0.02,0,0.03-0.02,0.05-0.02
		C285,8.12,283.75,7.87,284.42,7.61z M279.69,22.15c-0.1,0.07-0.2,0.13-0.27,0.2C279.42,22.12,279.46,22.15,279.69,22.15z
		 M262.13,48.14c0,0.1,0.39,0.51,0.1,0.51C262.01,48.87,261.76,48.5,262.13,48.14z M262.13,33.98c-0.3-2.83-0.3-2.83,1.31-4.04
		C263.44,31.66,262.73,32.67,262.13,33.98z M267.28,46.62c0-0.1-0.25-0.74,0.07-0.6C267.47,46.06,267.65,46.26,267.28,46.62z
		 M276.15,28.99c-0.03,0.01-0.05,0.03-0.07,0.04C274.94,25.04,279.67,26.94,276.15,28.99z M274.36,10.63c0.2-0.2,0.61-0.2,1.42-0.51
		C274.92,12.52,272.72,11.99,274.36,10.63z M276.59,17c-0.84,2.05-3.99,4.92-3.99,3.25C272.59,18.99,276.25,17.19,276.59,17z
		 M272.54,16.09c0.23,0.23,0,0.16,0,0.4C272.33,16.28,272.54,16.3,272.54,16.09z M271.13,29.54c0,0.1,0.1,0.2,0.1,0.3
		c-0.05,0.05-0.07,0.09-0.09,0.14C271.08,30.21,270.94,29.72,271.13,29.54z M270.42,32.37c0.3,1.11,0.3,1.11-0.91,1.72
		C269.31,33.07,269.31,33.07,270.42,32.37z M268.7,42.48c0.84,0.84-0.23,0.98-0.17,0.81C268.6,43.08,268.62,42.83,268.7,42.48z
		 M268.29,43.49c0.14,0,0.18-0.08-0.1,0.2C268.19,43.59,268.29,43.49,268.29,43.49z M266.78,31.65c0.33-0.11,0.66,0.01,1.21,0.01
		C267.27,34,265.11,32.32,266.78,31.65z M267.17,10.32c0.38,0.45-0.7,0.74-0.7-0.3C266.74,10.16,267.01,10.11,267.17,10.32z
		 M260.32,18.82c0.39-0.57,1.41-1.94,1.41-2.03c-0.87-1.13-1.14-0.9-0.49-1.05c3.61-0.85,1.87,0.08,3.72,1.47
		c0.81,0.61,1.82-0.4,2.73,0.2c0.23,0.41,0.2,0.71,0.06,0.95c-1.32,2.21-1.16-1.76-7.34,0.97C260.1,19.02,259.97,19.32,260.32,18.82
		z M258.86,52.33c-0.19,0.19-0.76-0.34,0.03-0.34c0.1,0,0.1,0.1,0.2,0.2C259.01,52.18,258.94,52.24,258.86,52.33z M259.45,47.51
		c-0.2,0.95-1.22-0.76-1.67-1.99c-0.43-1.2,0.13-1.69,1.31-2.54C262.75,44.2,259.45,46.67,259.45,47.51z M6.93,305.26
		c-3.66,3.25-8.77-1.58-2.12-6.37c1.75,0.88,1.45,1.16,2.43,3.03C7.82,303.05,7.33,304.05,6.93,305.26z M12.58,307.7
		c-6.58-0.05-2.74-0.9-2.53-3.6c0-5.69-2.58-5.35,3.04-5.3c86.33,0.76,90.1-0.62,86.58,8.06C98.08,310.77,93.14,308.35,12.58,307.7z
		 M95.6,314.66c-0.58-0.87-0.16-3.29,1.62-2.53c0.67,3.09,1.47,6.47,2.93,9.51c2.9,6.03,1.75,25.86-3.44,20.72
		C95.19,340.86,96.48,315.98,95.6,314.66z M100.25,315.57c-1.21-0.71-1.11-2.22-1.72-3.24c0-2.07,4.17-1.96,4.07-8.59
		c-0.08-5.82-4.83-5.17-7.71-5.97c-0.21-0.49-0.25-0.91,0.2-1.21c6.61-6.61,16.08,3.87,11.83,12.34
		C104.56,313.61,103.28,315.75,100.25,315.57z M93.58,313.25c-7.44,9.88-9.41,25.7-11.73,27.81c-12.32-6.49-0.75-18.85,8.7-29.02
		C91.55,311.65,95.3,310.96,93.58,313.25z M47.37,314.16c-0.03-3.49-0.6-3.13,3.94-3.13c2.5,1.5-0.72,23.85,15.77,48.03
		c5.93,8.7,7.69,8.81,15.77,12.64c1.92,0.91,4.14-0.18,6.27,0.61c1.65,0.61,9.1-1.63-1.42-1.11c-23.28,1.14-39.06-60.34-31.55-60.26
		c45.44,0.46,29.53-2.61,19.21,15.27c-0.61,0.81-1.52,0.71-2.22,2.22c-1.8,5.41,1.8,14.3,9.81,16.38c3.13-0.59,7.69-26.24,10.72-27
		c-2.5,23.18-1.17,17.43-2.12,20.73c-2.23,7.67,10.56,15.06,13.14,1.72c1.68-8.64-1.89-19.6-3.84-22.24c0.64-1.43,5.66-1.69,9-9.4
		c1.73-4.01,0.4-11.41-5.87-15.65c-3.09-2.09-2.42-1.81-8.38,0.08c-2.07,0.65-2.85,2.31-4.55,4.65c-0.43,0.05-17.26-0.3-17.8-0.3
		c-19.48,0-18.69,0.06-18.3-2.73c6.15-44.06,35.24-61.79,45.9-57.94c3.13,1.13,6.47,1.72,9.81,2.33c-1.38-1.95-1.35-2.6-10.72-4.85
		c-14.77-3.56-41.42,21.08-46.71,57.73c-0.62,4.27-0.25,5.43-4.52,4.67c-2.65-0.66,4.88-43.31,28.99-60.48
		c39.51-28.14,76.5,34.22,58.54,94.03C113.35,406.38,47.91,385.15,47.37,314.16z M93.78,380.69c0.42-1.27,21.04-0.51,36.9-30.54
		c13.19-24.96,15.31-57.78,8.19-81.9c-10.18-34.48-30.35-37.95-30.94-39.43c-0.51-0.1-1.01-0.1-1.72-0.2
		c0.26-0.22,12.57-1.32,25.78,9C173.82,270.3,159.47,387.6,93.78,380.69z M111.57,579.47c-0.47-2.37-1.5-10.96,0.4-11.93
		c12.42-6.37,50.63-10.2,60.87-7.28c3.3,8.48,6.89,9.2,11.23,11.64c3.37,1.89,3.01,6.22,3.24,11.12
		C177.75,585.91,124.82,587.41,111.57,579.47z M300.33,526.5c-0.86-0.02,0.57,0.8-2.41,0.8c-1.37,1.47-6.59,2.41-8.8,0.4
		c0-0.06,0.04-0.26,0.3-3.13c3.93,1.69,1.62,1.44,8.3,2.71c0.08,0.03,0.68-0.79,2.32-0.79C301.4,525.47,301.47,526.52,300.33,526.5z
		 M309.42,105.83c10.27,5.37,12.29,11.27,14.59,17.93c1.03,2.97,0.36,5.59,0,9.5c-0.91,0.3-0.82,0.58-2.22-3.64
		c-0.61-0.3-1.21-0.51-1.72-0.81c-1.31-1.82-0.61-4.25-2.02-5.97c-0.63,0.18-0.63,0.68-1.17,1.5c0.07-0.17-0.01-0.28-0.14-0.49
		c-3.55-5.34-4.58-12.48-8.19-17.29c-0.16-0.16-0.19-0.45-0.32-0.88C308.01,105.04,307.74,104.95,309.42,105.83z M162.64,312.14
		c-1.82,0.2-3.13,0.2-4.65-0.1c-0.7-2.1-0.29-6.41,0-8.59c7.63,0,6.62-0.49,7.99,4.04C164.86,309.31,162.43,309.81,162.64,312.14z
		 M170.32,318.51c1.31-1.31,1.98-2.2,3.09-2.21C173.68,316.29,173.21,317.93,170.32,318.51z M173.66,316.17
		c-0.04-0.54,0.68-0.74,0.61-0.41C174.2,316.04,173.98,316.15,173.66,316.17z M175.9,314.77c-1.95,1.84-1.41-0.67,0.48-0.64
		C176.54,314.13,176.01,314.67,175.9,314.77z M179.42,318.3c-6.76,0.61,1.54-4.69,3.74-6.89c0-1.55-1-1.29-2.33-0.46
		c-8.13,5.15,5.39-7.9-11.74,5.11c-2.26,1.71-3.35,1.25,0.61-1.92c3.58-2.39,5.57-3.89,4.38-4.69c-2.36-1.58-14.26,12.22-9.03,1.76
		c5.08-5.08,2.88-1.06,2.02-7.89c-0.2-1.62-1.31-2.93-1.52-4.85c1.82-4.63-1.75-8.04-0.2-10.11c12.46-14.43,4.35-51.53,14.2-71.95
		c0.08,0.69,0.23,1.3,1.27,1.48c0.3-0.81,0.51-1.62,0-2.43c-0.75-0.13-1.13,0.67-1.13,0.47c6.35-19.75,3.75-10.4,4.47-17.95
		c2.2-2.9,3.61-6.61,4.62-10.41c3.47,0,1.85-4.64,4.68-12.23c0.45-1.21,0.65-10.23,1.21-20.73c0.69-12.87,3.75-12.95,5-14.33
		c1.91-2.1,0.73-4.94,3.59-5.48c1.39-2.77-2.7-14.89,13.04-24.77c2.16-1.53,5.7-2.27,8.24-4.65c3.01-2.81-2.08-0.1,13.7-9.3
		c1.62,1.52,3.35,2.63,3.84,4.95c0.31,1.49,1.97,2.2,2.41,3.87c0.3,0.6-4.23,0.01-5.76,0.84c-0.18,0.06-0.36,0.69,0.12,0.85
		c8.44,1.35,8.24,0.34,10.62,6.07c5.64,13.56,5.73,36.23-4.15,46.11c-9.22-8.82-7.26-5.69-3.09-9.93c1.62-1.65,1.91-3.47-0.24-2.61
		c-3.2,1.28-4.18,2.52-6.33,3.32c-0.11,0-2.29,2.37-2.87,7c-0.76,5.98-1.08,5.92-8.7,21.94c-6.33,13.31-14.87,16.49-15.87,21.94
		c-4.4,24.01-13.64,28.06-23.15,70.17c-0.37,2.22-1.16,1.18-1.92,4.85c-1.16,5.65-2.88,5.42-2.12,12.03
		c1.06,9.21,3.35,10.85,4.35,13.85C187.73,309.95,192.57,305.16,179.42,318.3z M176.66,313.94c0-0.3,0.09-0.52,0.61-0.57
		C177.18,313.74,176.79,313.94,176.66,313.94z M177.43,313.13c0-0.34,0.67-0.68,0.58-0.49C178,312.83,177.81,313.08,177.43,313.13z
		 M207.83,306.17c-1.32,8.36,1.24,6.72-8.96,6.47c-15.54-0.37-9.59,1.04-8.53-4.95c-2.03-4.56-3.99-3.51,16.17-3.35
		C207.55,304.35,207.97,305.32,207.83,306.17z M325.22,378.67c-2.34,1.76-22.6,9.44-27.2,10.92c-8.3,2.67-13.53,1.62-17.29,0.1
		c-11.26-4.55-11.71-1.43-9.3-10.92c2.52-9.91,3.95-13.98,8.09-19.72c3.71-5.14,4.45-9.7,2.4-7.51
		c-10.18,10.88-9.26,14.61-15.24,38.15c-2.97,11.69-3.24,9.07-8.59,6.17c-9.82-5.31-17.09-6.26-24.94-10.4
		c-3.97-2.09-4.22-0.88-1.24-16.09c-2.49,4.19-2.73,8.32-3.74,12.03c-1.09,0.48-0.91-1.13-1.73-0.55c-1.26,0.9-2.93,0.04-7.37-0.26
		c-9.8-0.67-7.65,3.02-8.7-4.85c1.75-3.95,2.69-4.08,2.43-8.7c-1.17-20.23-2.53-20.76-2.53-30.84c9.7-9.7,4.74-15.83,4.04-11.73
		c-0.49,4.94-7.04,23.08-3.13-12.44c1.44-13.1-1.19-7.86,2.22-27.7c3.5-20.36-3.48-1.71,2.93-24.57c1.39-4.95,4.96-5.73,7.68-12.44
		c0.98-2.41-1.16-3.41-1.92-1.21c-2.97,8.52-9.5,7.75-9.5,23.56c0,2.63-0.64,5.25-0.2,7.89c0.12,0.71-0.22,1.51-0.4,2.22
		c-6.93,26.27-1.9,19.49-4.04,21.64c-3.13,0.4-16.18,0.1-20.02-0.61c-2.03-4.58-8.77-18.91-1.52-20.53
		c2.03-9.48,11.65-45.7,18.2-57.53c4.55-8.22,4.33-12.32,6.47-22.65c2.35-2.27,7.11-9.03,9.09-9.88c1.09-0.47,1.34,1.35,1.53,1.79
		c2.1,5.02,7.68,13.96,6.37,20.12c-1.12,5.28,0.62,5.51-0.4,10.01c-0.97,4.27-0.08,9.39,0.71,13.04c5.01-5.95,1.42-6.9,1.42-11.12
		c1.21-1.52,1.03-3.44,0.81-5.46c-1.04-9.44,2.15-5.97,0.4-11.43c-5.98-18.65-2.35-2.9-8.8-19.01c4.96-6.45,12.95-22.1,12.54-30.23
		c-0.47-9.28,1.78-1.98,7.38,2.43c2.17,1.71-1.42,4.59-3.54,5.97c-1.52,0.22-3.38,0.07-4.45,1.31c0.95,2.05,1.09,4.51,4.7,6.29
		c3.99,1.97-1.04-2.24-1.36-3.56c4.17-1.47,3.97-1.75,8.19-5.97c1.62,0.92,4,2.34,4.99,2.79c1.6,0.73,6.94,1.88,6.94-0.47
		c-2.63-2.33-6.47-2.93-9.2-5.36c17.43-22.77,5.11-60.28-7.38-66.23c1.02-1.11,2.29-1.6,3.84-2.22c2.8,3.35,7.02,2.46,21.74,17.69
		c0.13,0.14,11.14,11.92,12.13,12.34c7.62,3.15,9.89,12.72,24.17,2.33c3.8-2.76,3.08-17.51,0.2-23.25c-0.77-1.8,3.91,1.38,8.8,16.47
		c3.35,10.36,7.17,7.59,8.9,16.58c1.93,10.01-0.19,19.86-0.81,26.19c-0.43,4.39-3.16,4.73-6.07,9.1c-4.29,1.84-0.64,6.43-5.46,26.39
		c-3.12,12.91-7.72,49.71-8.39,51.06c-22.66,1.92-17.4-1.33-34.88-4.75c-7.03-1.37-12.87-4.14-16.67-4.79
		c-3.37-0.58-10.6,0.19-20.43-1.68c-0.61-0.2-1.21,0-2.02,0.1c-0.4,1.31-0.81,2.53-1.21,3.84c1.8,1.35,1.55,2.8,0,4.35
		c2.56,2.66,6.03,1.85,9.2,2.24c1.25,0.16-0.27,4.2,1.72,6.8c0.29,0.38,1.01,0.14,1.01-0.76c0-6.32-0.53-6,2.73-6.37
		c8.74-0.98-6.34-0.23-6.51-0.91c-0.62-1.16,0.05-2.05,0.14-2.93c0-0.91-0.2-1.82,0.4-2.53c0.58-0.39,1.89-0.42,2.38,0.58
		c3.39,6.93,0.62-2.42,5.12,0.18c0.1,0.07,1.08,4.72,1.08,4.82c0.09,0.27,0.63-0.51,1.33-0.63c-0.59-7.72,6.41-3.03,16.99,0.71
		c0.1,1.21-0.3,2.22-0.91,3.44c-3.24-0.91-6.37-1.82-9.61-2.73c-2.55,5.11-12.03,9.27-12.03,11.53c0.73,0.97,0.36-0.16,6.67-3.54
		c2.51-1.34,4.75-2.93,6.17-5.56c13.26,3.99,7.52-1.71,10.11,9.5c1.42-0.32-0.03-1.16,1.31-5.16c1.31-3.91-1-3.13,1.52-3.13
		c1.61-0.5,1.76-2.74,3.44-2.83c1.21,0.8,0.2,2.13,0.81,3.24c2.42-0.74,0.04-3.45,5.46-2.54c1.43,0.24,0.6,0.64,2.38,1.75
		c3.92,2.45,8.63-0.6,10.76,3.59c1.65,3.24,1.1-4.95,3.45-0.29c0.93,1.84,1.74-0.89,2.19-1.28c0.66-0.66,1.64,1.72,1.87,1.99
		c1.34,1.62,1.88-0.91,3.57,0.39c2,1.54,1.5-0.27,1.97-3.1c4.36-2.66,1.04,6.33,3.99,4.14c0.78-0.58,0.52-0.48,1.77,2.34
		c2.79,1.72,9.16,8,9.5,11.32c2.47,23.51-5.29,18.33-0.2,34.78c1.64,5.29,0.12,4.57,1.03-10.77c0.39-6.48,0.67-0.39,0.89,0.25
		c2.37,7.11,0.22,3.57,2.63,22.24C321.98,337.57,313.52,338.09,325.22,378.67z M295.29,252.58c-0.28,0-0.29-0.78,0.14-0.96
		C296.06,251.35,296.37,252.58,295.29,252.58z M262.35,250.27c-1.13,0.19-1.25-0.8-0.68-1.11
		C262.23,248.85,262.56,249.68,262.35,250.27z M231.18,244.84c0,1.34-2.86,0.45-4.03-0.55c1.05-2.51,1.24-0.4,2.13-0.31
		C229.81,243.98,231.18,243.33,231.18,244.84z M230.48,239.64c0.52,0.71,0.27,1.51,0.1,2.33
		C229.79,241.37,228.21,238.82,230.48,239.64z M329.36,307.49c0.94-0.71-0.65-0.17,26.59,0c10.02,0.06,8.45,6.78,5.26,8.19
		c-0.63,0.28-22.23-0.3-36.1-0.3C326.74,312.34,328.05,309.91,329.36,307.49z M371.74,302.33c8.55,22.39-16.07,39.4-22.55,16.38
		c4.54-1.41,15.38,3.12,17.28-8.29c-3.41-8.52-7.69-4.15-16.38-5.76C350.09,295.42,366.14,287.67,371.74,302.33z M371.13,297.62
		c0.19,0.07,0.34,0.25,0.4,0.39C371,297.51,371.03,297.62,371.13,297.62z M371.9,298.28c0.27,0.03,0.41,0.24,0.51,0.51
		C372.41,299.08,371.44,298.28,371.9,298.28z M373.57,302.32c-2.83-8.8,10.22,12.8-3.28,24.4
		C370.01,324.79,378.48,317.57,373.57,302.32z M373.16,300.26c0,0.27-0.9-0.25-0.65-1.31C372.67,299.1,373.24,299.3,373.16,300.26z
		 M370.08,326.93c-0.15,0.15-0.54,0.54-0.58,0.58C369.61,327.1,369.78,326.97,370.08,326.93z M323.4,335.8c-1.92,0-0.58,1.36-0.4-9
		c0.13-8.02-1.07-8.9,0.51-8.9c27.66,0,23.29,0.17,24.77,3.03c3.59,6.92,5.47,10.28,15.17,10.41c13.46,0.18,19.24-21.29,10.92-33.37
		c-5.05-7.33-18.97-9.23-25.38,3.94c-0.4,0.81-0.51,1.92-1.62,2.83c-4.08,0.13-18.58-0.55-18.69-0.61c-1.35-0.7-0.68-0.77-3.96-9.4
		c-2.63-6.92,9.98-27.72,20.32-35.79c17.72-13.83,40.88-8.98,53.89,12.34C441.23,340.61,353.6,426.41,323.4,335.8z M416.22,334.68
		c-11.03,37.91-34.13,39.37-43.78,40.85c4.73-2.58,14.72-4.14,25.58-19.82c28.88-41.7,5.27-100.69-20.42-104.55
		c0.92-0.41,10.89,0.39,20.31,7.59C414.75,271.63,425.19,303.83,416.22,334.68z M436.54,317.6c-1.42,0-10.44-0.32-14.56-0.4
		c-0.71-2.22-0.81-4.15-0.2-7.79c3.36-0.77,13.2-0.28,17.09,0.2C442.35,310.72,441.44,317.6,436.54,317.6z"/>
	<path d="M199.44,552.47l0.1,0.1C199.5,552.46,199.57,552.47,199.44,552.47z"/>
	<path d="M319.56,168.16l0.1-0.1C319.57,168.08,319.59,168.12,319.56,168.16z"/>
	<path d="M712.96,436.91l-0.09-0.1C712.87,436.91,712.85,436.83,712.96,436.91z"/>
	<path d="M656.86,392.42l0.1,0.1C656.96,392.43,657.03,392.42,656.86,392.42z"/>
	<path d="M893.56,478.26c-29.72,3.61-6.38,4.6-28.31-28.11c-3.05-4.54-6.67-8.39-10.92-12.13c4.49-4.24,1.06-15.38-0.1-20.02
		c-1.08-6.48-1.83-2.42-9.2-8.19c-6.52-5.1-25.8-2.51-49.64-0.2c-5.93,0.99,0.62-15.83-0.71-41.76c-0.32-6.26,2.53-9.3,2.63-18.1
		c0.03-2.61,2.26-3.62,3.34-12.23c1.15-9.2-3.97-22.46-21.33-27.2c-5.32-5.86-12.18-11.75-7.28-17.8c-2.83-3.3,3.75-2.57,4.04-2.63
		c4.27-2.33,3-1.68,5.36-7.58c1.91-4.79,8.74-29.71,3.84-31.34c-0.55,4.99,0.26,6.42-0.3,8.19c-2.6,8.18-3.59,26.82-7.99,28.82
		c-14.69,0-11.97-0.46-12.84,0.4c0.71,2.12,2.93,1.01,4.25,2.22c0.1,3.44-1.72,6.77-0.3,10.72c8.2,10.02,7.28,13.38,7.28,25.78
		c0,3.55-1.01,5.57-6.77,6.88c-1.11-2.83-0.81-6.07-3.24-8.9c0.4,3.54,1.72,6.27,1.92,9.4c-6.87,1.5-7.59-1.68-14.05-5.56
		c-4.23-2.54-6.4-5.08-14.33-14.11c9.47,2.95,17.06,0.42,22.82,5.12c2.54,2.07,6.64,0.56,0.61-2.12
		c-6.32-2.37-22.49-4.37-23.46-4.04c0,2.88-4.83-5.35-18.4-13.25c-2.38-1.19-1.65-0.57,12.64-10.31c2.74-1.87,5.66-6.98,4.45-7.99
		c-1.89,1.89-1.9,4.76-5.26,5.36c-0.28,0-1.73,3.55-13.45,8.7c-5.91,2.59-15.93,7.71-19.72,12.84c-5.5,7.46-18.38,5.42-24.67,23.05
		c-2.32,6.51-0.35,4.97-0.71,7.48c-2.66,1.71-2.38,3.98-5.86,8.59c-5.02,6.65-6.9,19.1-6.17,26.19c0.49,2.95-3.82,12.51-4.73,18.01
		c3.42,0.37,1.57-0.39,5.64-10.83c3.11-7.98,2.4-30.89,9.71-34.68c1.22-0.63,2.19-3.48,2.73-4.55c0.71-1.11,1.62-0.4,2.12-1.62
		c-0.66-1.32-2.24-15.54,12.94-23.56c15.23-8.05-0.18-1.4,18.5-11.93c0.91-0.51,1.72-1.42,3.03-1.52c1.52,1.62,3.34,2.93,3.84,5.36
		c0.3,1.11,1.82,1.72,2.02,3.24c-2.22,0.51-4.55,0.1-6.77,1.31c7.34,2.84,10.41-2.83,14.46,14.26c5.03,21.24-4.47,36.44-5.26,38.52
		c-0.72,1.92-3.13,1.92-4.35,3.44c-0.1,0.2-0.4,0.1-0.61,0.2c-1.82-0.61-1.11-3.54-3.34-3.74c-2.01,2.19-0.69,3.29,0.81,5.86
		c0.6,1.2-2.96,3.86-5.76-0.81c1.42-3.03,2.73-5.97,5.86-7.58c0.41-0.24,2-2.07,1.52-2.83c-0.83-1.3-2.02-0.51-2.93-1.31
		c1.82-1.92,4.95-2.63,5.56-5.97c-3.54-0.3-5.36,2.63-8.09,3.44c-0.81,1.11-1.52,2.12-2.12,3.03c-0.71,2.33,1.62,5.16-1.31,7.08
		c-2.87-4.3,3.11-1.87-14.96,23.96c-3.44,4.92-12.12,11.94-12.23,12.03c-5.04,4.08-3.3,9.6-8.8,19.31
		c-22.57,39.9-23.52,51.71-25.48,53.59c-0.57,0.55-7.85,12.69-5.16,23.46c5.56,6.6,7.21,6.55,8.9,9.5c0.91,1.59,3.07,3.94,4.45,2.73
		c0.39-2.75-1.52-3.38-1.52-4.75c1.06-0.79,36.79-4.56,38.02-3.94c-0.43,11.2,0.84,7.82-12.23,9.3c-0.61,0.07-23.57,2.75-24.27,2.43
		c-0.9-0.43,0.4-1.92-1.01-2.02c-1.11,0.1-1.11,1.52-2.02,1.62c-0.23,0.45,0.14-1.36-1.42-1.62c-5.3,3.09-3.77,1.98-4.25,2.93
		c1.46,1.83,2.48-0.78-2.53,7.89c-0.83,1.44-1.45,2.04-2.95,2.04c-0.31,0-0.3,0.57,3.66-8.31c-0.66-2.32,0.35-2.65-5.86-0.71
		c-0.43,0-0.4,0.29-0.51,0.51c1.74,1.49,3.14-1.41,4.35,0.2c-3.24,6.01-1.57,2.41-3.44,8.39c-0.2,0.4-1.21,0.51-1.11,1.52
		c3.13,0.61,6.07-1.21,9.4-1.21c1.42-1.31,3.03-2.33,4.25-3.74c1.21-1.42,1.42-3.44,2.83-4.85c0.1-0.01,36.41-4.27,36.4-3.34
		c-0.3,20.01-1.86,11.64-6.67,12.84c-2.12,0.71-2.63,2.83-3.74,4.35c-4.96,1.42-2.52,7.25-5.86,12.13
		c-5.92,8.65-6.11,10.4-8.09,13.04c-22.64-4.53-50.71,3.94-53.89,3.94c0.61-2.75,1.9-6.21,2.83-9.5
		c4.87-17.21,2.99-27.92,4.35-29.73c0.74-0.2,5.15-0.8,4.65-0.3c1.86-1.49,3.98,0.45,6.07-1.11c1.06-1.91,2.76-3.25-0.51-6.98
		c-4.93-5.64-3.71-10.74-4.25-12.34c-2.94,1.47-1.43,4.07-2.02,6.67c-5.1,1.2-5.31,0.43-5.86-3.03
		c-14.46-90.37-110.53-82.49-111.02,9.61c-0.02,4.48,0.32,4.02-1.82,4.45c-41.02,4.51-39.49,2.43-42.47,7.79
		c-2.51,4.52,1.23,9.03,3.24,10.11c3.7-1.01,1.81,0.18,7.08-0.3c36.06-3.32,33.93-3.91,35.09-3.13c1.67,8.35,3.55,21.86,12.64,37.31
		c19.4,32.99,55.11,30.82,71.48,19.31c7.24-5.09,9.32-9.86,11.12-10.01c3.25,1.08,9.41,4.67,17.49,5.06
		c11.48,0.55,23.28,3.97,54.5-0.51c8.11-1.16,5.85-1.66,9.81-2.22c12.06,10.05,11.53,8.12,43.07,11.73
		c7.32,0.84,14.65-8.26,9.71-13.65c-3.09-3.37-5.46-7.38-9-10.52c-1.72-1.72,57.13-1.77,57.13-8.59c0.1-0.51,0.2-1.01,0.91-1.31
		c1.92,0.51,4.15,0.3,6.07,1.42c6.41,6.41,9.24,11.77,46.21,9.3c3.23-0.22,3.81-1.12,6.88-3.03c1.72-3.84,0.3-7.18-1.01-10.52
		c1.54-1.93,21.62-2.59,32.25-32.25c6.28-17.52,3.99-28.34,5.06-30.74c19.17-3.46,17.5,0.28,19.92-5.16
		C902.2,481.11,896.93,477.85,893.56,478.26z M708.67,361.81c-0.01,0.34-0.87,1.3-1,0.23C707.54,361.02,708.68,360.79,708.67,361.81
		z M643.51,523.96c-0.91-0.76-0.51-0.37,2.73-7.18C647.79,513.53,651.94,512.74,643.51,523.96z M615.61,510.31
		c6.35-0.67,5.47-1.28,7.84,1.79c3.88,5.03,3.48,5.19,1.36,6.1c-3,0.78-8.22,0.94-8.32,0.61
		C615.63,516.03,615.1,513.3,615.61,510.31z M811.66,411.43c12.44-0.98,19.35-4.41,28.52-0.55c3.66,1.54,3.72,2.78,7.39,4.25
		c2.07,0.83,2.88,0.82,3.08,1.03c1.1,1.15,0.72,5.49,1.75,8.11c1.4,3.55,1.01,7.08,0.91,10.82c-4.81,5.05-6.61,19.62-8.03,14.58
		c-0.64-2.25-0.7,2.54-0.58,3.42c2.57,17.91-33.83,50.86-38.22,66.23c-2.22,1.21-4.45,2.43-5.97,4.25c-1.01,0.51-2.03-0.12-3.03,0.4
		c-2.49,1.32-4.2,0.19-2.43-4.65c-4.12,2.68,0.78,7.57-10.35,4.58c-0.96-0.26-0.88-1.21-0.57-2.15
		c9.62-21.85,17.14-43.34,17.09-43.98c0-2.5,2.8-15.98,1.72-17.59c9.13-10.43,19.07-17.1,19.62-17.9c-3.09-0.77-7.75,3.26-9.61,5.76
		c-5.64,7.57-38.96,30.64-42.47,30.43c-0.1-7.89,7.08-52.88,11.83-63.9C785.76,413.41,811.56,411.43,811.66,411.43z M813.97,511.73
		C813.97,511.73,813.98,511.73,813.97,511.73c0.08-0.08,0.06-0.02,0.03,0.01c11.17,3.86,21.75-3.57,20.89-19.52
		c-0.38-7.02-2.65-5.93,1.11-10.11c3.52-3.52,15.02-25.55,12.24-29.63c1.26-4.42,1.33-4.63,2.21-4.05
		c2.84,1.84,12.85,21.38,12.85,25.89c7.97,29.39-0.51,67.82-26.99,78.66c-10.16-4.4-10.53-3.54-24.7-17.3
		c-1.32-1.28-2.74-3.05-3.51-4.84c1.19-2.2,1.42-4.28,1.42-12.14C812.86,513.21,813.76,511.96,813.97,511.73
		C813.97,511.73,813.97,511.73,813.97,511.73z M831.88,487.65c3.38,1.69,0.59,17.66-2.62,18.48c0.09-0.5,0.1-0.99,0.29-1.39
		C834.02,495.71,830.5,489.19,831.88,487.65z M815.9,510.41c-0.94-1.6,11.68-18.54,13.75-19.92
		C832.44,492.88,828.99,513.56,815.9,510.41z M829.13,506.29c-0.03,0.42-0.23,0.69-0.7,0.69c-0.09,0.27-0.4,0.53-0.63,0.62
		C828.45,506.91,829.13,505.78,829.13,506.29z M708.84,528.61c0.33-4.77,3.04-13.48,5.35-17.49c6.57-1.31,49.85-5.76,55.51-5.76
		c1.92,2.22,4.75,2.53,7.79,2.73c0.34,0.95,2.65,7.51,3.44,8.7c-1.01,0.67-6.37-5.19-9.71,6.77c-1.72,6.18-3.33,3.61-12.84,16.89
		c-1.85,2.58-0.95,3.02-5.06,2.63c-32.36-3.06-41.49,3.32-41.65-1.05c-0.03-0.94,0.5-1.67,1.3-2.18
		C715.04,527.97,708.84,529.67,708.84,528.61z M768.08,406.36c-1.42,2.63-2.93,5.06-2.22,8.29c-3.79,1.9-7.45,1.96-10.62,4.25
		c-0.71-1.24-1.11-2.84-1.11-3.93c2.97-1.49,10.86-15.02,13.65-15.58C767.29,401.75,767.25,404.09,768.08,406.36z M761.34,420.34
		c-1.11,3.14-0.34,1.71-1.28,2.42c-2.91,2.18-6.66,12.18-7.96,8.3C757.18,422.67,749.65,420.34,761.34,420.34z M762.1,420.21
		c-0.08-0.01-0.61-0.08-0.69-0.08c0-2.22,1.18-1.82,2.33-2.22c3.39-1.2,12.92-4.06,16.18-2.53c-0.01,0.11-17.18,58.96-11.22,79.98
		c0.4,1.42,0.1,2.93-0.51,4.45c-10.85,0.29-32.95-1.6-33.06-1.62c-12.54-1.98-16.04,0.01-12.85-3.25
		c7.75-7.9,15.6-21.14,19.62-39.13C743.97,446.5,761.33,423.7,762.1,420.21z M770.71,394.64c1.57-2.19,3.34-4.35,4.25-7.18
		c16.01-3.9,19.59-30.72,16.89-6.27c-0.74,6.69-1.72,22.24-0.2,28.82c-3.14,0.79-9.67,1.17-10.71,2.21c-0.11,0,0,0.33-1.43,0.31
		c-3.64-0.05-7.18,0.3-10.82,1.62c-0.71-1.82-0.5-3.64-0.2-5.26C771.02,395.24,768.61,397.57,770.71,394.64z M770.4,481.29
		c2.22,0.4,4.25,0,6.77-1.21C770.32,495.3,770.4,493.65,770.4,481.29z M721.47,498.99c1.41,1.41,32.29,4.26,48.63,2.63
		c0.61-2.12,1.62-3.84,2.83-5.56c2.08,1.3,1.12,2.84-0.61,5.86c-59.77,7.07-58.03,7.19-56.32,4.45
		C718.75,500.48,717.65,499.18,721.47,498.99z M779.61,507.38c1.92-0.81,3.26-2.21,4.35-3.94c1.95-3.13,4.9-3.67,5.16-6.77
		c-1.86-1.86-7.02,7.35-10.01,7.99c0.73-2.92,2.75-3.92,3.24-5.97c-1.27-2.35-5.18,5.05-6.47,7.38c-2.68,0.97-4.05-0.9-1.72-3.64
		c1.12-1.31,1.62-2.83,1.92-4.55c-0.71-1.31-1.52-2.73-1.82-4.55c7.91-18.99,3.63-13.43,11.27-19.18c1.02-0.51,0.15,7.17,1.74,9.82
		c0.05,0.1,4.17,4.24,6.7,4.41c2.93-1.83-5.06-6.7-5.06-7.69c-0.81-2.93,0.51-5.66-0.51-8.48c20.34-18.08,8.29-7.97,10.72,5.97
		c-1.95,4.74-4.82,11.84-6.77,17.9c-1.45,4.5-4.08,5.16-5.26,8.7c-3.09,1.03-2.66,1.01-2.73,1.01c1.56,1.56,1.72,0.81,3.64,0.81
		c-0.58,3.62-4.09,10.46-4.44,9.99C781.56,513.87,780.1,510.97,779.61,507.38z M796.69,341.46c-1.42-1.11-1.01-2.83-2.12-4.25
		c-0.4-0.3-1.11-0.61-1.82-1.01c-0.79-2.25-0.72-7-2.63-4.95c0.13,0.38,0.46,0.86,0.42,1.07c-0.32,2.06-0.26-0.19-0.43-1.07
		c-3.33-2.21-3.82-10.16-9.05-17.83C778.83,311.19,800.34,319.58,796.69,341.46z M677.28,407.28c3.44-2.73,5.97-6.57,10.21-8.9
		c3.13,1.04,1.95-1.55,2.18-1.79c5.87-6.08,3.28-4.78,5.3-2.76c0.38,0.38,1.81,1.53,1.81,0.91c0-3.94-1.94-4.16-1.61-4.72
		c7.27-12.38,3.02-3.52,8.29-14.59c1.11-0.61,2.02-0.1,2.93,0.1c1.52,1.62,1.11,4.55,3.74,5.26c2.33,0-1.32-2.73,0.3-2.73
		c3.62-0.28,4.25-3.38,6.88-2.63c0-1.87-1.03-2.46,3.64-4.65c0.42-0.53-0.02-1,0.1-1.42c7.66-7.66,8.61-23.37,8.61-34.19
		c-1.18-13.79-10.07-28.63-16.5-32.24c1.23-0.61,2.64-1.3,4.15-2.12c2.95,3.68,6.66,2.22,21.84,17.8
		c3.11,3.19,16.74,20.39,28.11,19.21c2.18-0.23,4.99-2.38,6.27-3.24c4.53-2.57,4.46-7.74,4.4-13.1c-0.09-8.19-2.58-12.07-2.58-12.17
		c4.23,2.11,8.27,14.54,9.5,18.3c3.44,10.52,8.98,5.73,9,23.08c0.03,32.35-15.67,21.48-40.44,62.46c-1.42-3.08-6.68-4.18-9.61-6.27
		c-1.67-1.43-15.84-1.67-18.2-1.42c-31.15,3.43-42.25,13.2-49.75,18.2C671.5,421.72,671.93,425.2,677.28,407.28z M674.85,497.06
		c-6.87-1.21-11.34-5.67-15.37-9c-6.96-5.76-7.42-11.75-8.29-17.39c-0.51-0.4-0.9-0.1-1.42-0.1c0,8.89,1.44,15.66,14.46,25.17
		c7.74,5.65,12.55,3.86,12.12,4.71c-0.07,1.77-27.63,3.49-28.29,3.49c-6.16-3.42-9.44-8.93-6.68-16.28c1.84-4.92,1.53,1,4.75-8.49
		c0.97-2.87,2.2-5.94,3.64-8.6c3.31-7.71,8.96-29.19,17.19-36.6c0.19-0.15,1.25-1.2,1.15-1.46c-0.47-1.21-1.45,0.17-1.86,0.44
		c-0.78-0.26,0.94-2.07,1.72-2.33c0-0.98,0.47-1.78,1.52-2.22c-0.1-1.42,1.01-2.22,1.52-3.34c2.12,0.2,2.83,1.92,4.04,3.13
		c-4.9,14.69,0.45,21.51,0.91,26.38c1.46,15.38,14.1,27.02,13.84,27.8c-0.49,6.55-0.69,16.07-0.7,16.09
		C684.85,499.38,678.46,497.69,674.85,497.06z M689.21,523.46c0.05-0.19,3.24-34.97,3.24-37.11c0-0.71-0.51-1.11-0.71-1.42
		c4.19-22.61-0.42-16.45,0.81-18.91c4.8-17.6,5.79-17.06,16.28-27c1.59-0.9,3.51-0.23,4.02-2.17c-2.93-1.37-11.02,6.35-13.27,8.68
		c-8.35,8.64-7.86,19.06-7.86,31.92c-0.62,0.4-1.63,1.58-2.01,0.81c-4.15-5.86-7.79-11.93-10.52-18.6c0.35-1.29,2.66-3.48,2.29-3.85
		c-1.59-0.52-3.03,3.02-3.6-0.39c-3.76-9.4-1.74-9.41-3.24-14.46c-0.3-1.01,0.18-1.93,0.51-2.93c5.01-15.58,2.55-12.22,5.56-14.36
		c36.52-23.07,69.84-15.15,70.98-9.5c0.67,3.29,0.75,10.93-0.81,14.05c-2.59,4.32-1.5,6.71-2.93,9.78c-0.05,0.1,0.82-1.1-8.28,14.08
		c0.84,5.07-12.89,36.3-15.98,36.3c-1.16,0.1-1.43,0.65-2.88,3.94c-6.96,15.81-9.23,11.27-15.48,35.92
		c-0.19,1.16-5.29,1.09-7.22,2.19c-1.38,1.47-1.16,3.77-3.03,5.06c-3.95-1.21-14.82,2.52-10.62-2.33
		C686.94,530.32,688.25,527.08,689.21,523.46z M691.03,541.45c-0.74,0-6.43,2-12.54-0.61c0.61-1.62,1.92-2.43,2.73-3.64
		C690.71,541.54,697.58,533.47,691.03,541.45z M684.66,530.03c-1.52,2.43-3.13,4.65-5.97,5.76c0,0-0.37-2.07-0.4-2.33
		C680.33,530.18,681.35,527.08,684.66,530.03z M465.86,531.44c-3.06,3.88-8.75-1.13-2.82-6.27
		C466,527.31,466.27,528.02,465.86,531.44z M470.61,533.16c-6.06,0.62,0.27-0.35-3.34-8.02c-0.67-1.43-4.1-0.41,31.65-4.12
		c57.66-5.97,56.58-7.36,59.05-3.94c1.93,7.71-3.97,7.01-24.97,9.3C526.64,527.08,474.76,532.74,470.61,533.16z M558.88,514.15
		c-2.15-1.61-4.55-1.11-6.88-1.21c-1.29-2.36,7.91-7.64,12.44,0.51c2.9,5.22,1.54,8.15-0.71,13.14c-0.78,1.73-2.02,2.93-4.04,3.24
		C553.83,523.97,564.94,523.67,558.88,514.15z M558.28,551.16c-1.46-6.75-3.38-23.99-3.34-24.27c2.36-0.59,0.58-0.09,4.18,6.67
		C567.93,550.13,561.75,567.15,558.28,551.16z M553.42,527.1c-4.79,9.58-4.27,7.82-8.39,30c0,0.58-9.2-2.67-6.37-10.69
		c2.39-6.75,4.33-9.29,10.72-18.71C550.71,527.09,551.9,526.78,553.42,527.1z M537.25,588.47c-18.83-11.17-29.36-40.96-30.43-56.52
		c9.57-1.2,0.59,4.56,13.95,29.52c4.47,8.36,14.64,23.36,25.38,25.38c0.62,0.12,2.47,1.21,3.54,1.21c3.06-0.2,7.99,0.4,9.91-1.52
		c0.1,0-0.99-0.44-4.04,0.2c-24.88,5.22-46.19-53.96-41.86-55.17c3.5-0.97,24.91-3.39,32.15-3.58c0.4,0.51,0,0.91-0.3,1.21
		c-7.13,7.13-8.3,13.29-9.56,14.65c-0.5,0.54-1.15,1.02-1.56,1.54c-1.24,11.43,10.12,17.45,12.53,15.22c1.38-1.28,4.53-28.68,5.9-28
		c1.99,0.83-1.27-1.8,1.18,16.52c0.22,1.62,0.49,3.23,0,4.85c-1.14,3.73,3.34,8.74,8.09,8.09c7.38-1.01,5.72-15.71,2.43-22.85
		c-5.2-11.29-5.13-4.83-0.1-10.05c11.4-11.83-2.74-25.88-9-22.3c-16.78,8.39,12.67,4.83-42.77,10.52
		c-1.77-2.95,0.36-20.29,4.25-31.85c5.25-15.6,19.85-36.75,33.57-33.77c1.77,0.38,5.8,0.91,9.91,0.91c-0.7-0.97-1.98-1.76-3.64-2.02
		c-4.95-0.78-15.1-5.31-29.83,12.34c-18.33,21.96-16.47,52.71-16.78,54.3c-1.49,0.57-4.54,1.41-4.55-0.81
		c-0.2-57.85,38.49-89.9,68.86-60.97C624.47,503.16,590.77,620.2,537.25,588.47z M563.33,595c-5-0.42,9.24,0.03,22.14-18.06
		c27.57-38.66,18.52-120.81-31.04-134.58C628.36,434.97,634.69,595,563.33,595z M612.67,581.29c-4.14-0.44-7.99-1.72-11.63-4.15
		c1.01-2.83,2.73-5.16,4.35-7.48c0.12-0.22,0.56-0.11,0.71-0.2c-0.4-2.27,1.41-3.95,1.72-5.97c15.9-5.07,43.17-7.72,54.4-5.06
		c1.52,5.87,4.65,9.34,9.61,11.43c8.05,3.38,3.95,1.97,7.89,6.37C687.91,585.39,634.96,583.64,612.67,581.29z M730.67,588.37
		c-3.4,3.28-4.29,2.2-12.13,1.52c-8.37-0.73-10.99-0.14-16.08-1.82c-6.49-2.14-10.92-1.5-14.86-5.06c-7.41-6.67-3.02-2.61-4.91-6.83
		c-0.35-0.79-0.96-1.47-1.86-1.96c-1.01-0.91-1.11-2.22-1.62-3.34c-6.87-4.87-21.56-4.29-9.81-19.72
		c7.71-10.12,5.02-13.18,7.08-14.05c0.1,2.02-1.21,4.25,0.51,6.27c4.27,2.13,13.29,3.11,15.47-0.4c1.83-2.95,5.65-5.94,7.08-11.02
		c3.25-0.65,6.18-1.28,10.01-0.81c3.89,6.49-0.65,8.86-1.09,13.7c0,0.8-13.27,1.91-13.27,6.12c1.77,0.44,10.87-3.21,13.35-2.93
		c4.88,6.99,2.23,1.49-8.8,5.76c-1,0.39-1.59,0.97-1.42,2.02c8.68,0.36,14.46-2.32,15.07-1.11c2.34,3.5-7.11,0.59-9.3,5.56
		c10.74,0.75,12.13-3.44,12.74-0.4c0,1.15-6.83,0.68-8.7,3.54c8.01,3.56,9.04-5.27,12.64,2.22
		C726.17,576.88,738.82,580.49,730.67,588.37z M780.21,560.26c-6.73,4.81-46.54,5.66-55.81,5.66c-2.19-2.4-4.78-6.46-5.82-8.91
		c-0.2-0.59,7.13-0.18,10.47-0.6c-8-3.37-12.64,3.29-17.31-8.86c-1.44-3.74,0.79-1.48,2.86-2.07c12.89-2.89,25.03-2.06,40.24-1.21
		c1.69,3.2,3.98,5.1,9.4,9.2c-3.26,0-5.99-0.06-9.5,0.91c2.2,0.88,3.84,0,5.97,0c2.02,0,4.04,0,6.37,0
		C774.2,560.49,781.86,555.32,780.21,560.26z M840.17,566.22c-1.37,1.96-3.02,0.14-10.72,1.62c-3.82,0.74-18.35-0.05-23.66-0.71
		c-6.31-0.79-10.63-3.99-14.78-8.28c-1.19-1.23-5.05-1.09-5.64-1.52c-4.22-3.04-11-0.75-16.99-5.16c-2.89-2.13-7.05-3.82-9.55-5.9
		c-2.33-2.16,7.61-13.95,10.46-15.63c6.77-4,2.47-10.87,8.39-12.84c4.87,2.25,6.66,1.61,2.43,7.18c-0.35,2.7,3.91,1.98,7.78,3.64
		c-9.59,1.32-9.8,1.1-8.7-6.98c-0.49-0.65-1.34-0.77-1.82,0.2c-1.63,3.28,0,7.14,0,7.38c5.51,4.18,12.78,1.21,15.47,0.81
		c4.65-0.69,7.1-3.05,10.62-6.57c1.64-1.82,3.24-2.22,3.34-2.33c0.86,1.03-0.28,2.73-0.1,3.64c0.71,2.63-0.4,4.95-1.21,7.38
		c-1.06,1.15-4.25,2.04-4.25,3.84c4.07,1.66,6.28-4.97,7.99,0.81c-10.5,7.67,1.59,1.83,2.8,2.68c2.71,1.91-0.63,2.35,0.09,3.9
		c0.25,0.74,2.44-0.52,3.17-0.52c1.38,0.51,1.12,1.83,1.41,2.71c0,0.61,1.56,0.08,1.72,0.11c0.97,0.49,0.63,0.67,2.39,2.36
		c7.25,6.99,15.82,6.45,18.35,8.97C840.57,560.06,841.38,563.19,840.17,566.22z M876.67,498.68c-1.18,24.7-12.7,52.23-37.31,55.51
		c1.09-1.37,33.05-15.53,28.72-64.91c-1.36-15.45-6.41-30.52-16.38-42.57c-1.68-1.68-1.12-1.19,1.31-6.07
		C857.41,439.88,878.18,466.93,876.67,498.68z M897.6,484.73c-0.82,5.13-2.58,4.4-19.21,6.07c-1.12-10.41-4.19-7.66,14.66-9.91
		C895.86,480.55,897.87,483.03,897.6,484.73z"/>
	<path d="M814.01,511.74c-0.01,0-0.02-0.01-0.03-0.01c0,0,0,0-0.01,0.01C813.98,511.76,813.99,511.75,814.01,511.74z"/>
	<path d="M731.28,252.28c0.11,6.65,6.73,21.65,6.07,25.78c-0.59,3.72,3.03,4.48,3.03-14.96c2.86-2.86-0.41-1.82-1.21-2.63
		c-0.1-0.51-1.11-1.01-0.71-2.02c0.81-0.3,1.82,0.1,2.53-1.01c0.71-10.59,1.99-0.61,2.73-0.2c2.48-0.83,3.88-10.54,5.97-13.14
		c4.29-4.77,3.42-8.16,5.76-9.1c2.61,0,2.18,0.28,2.53-1.11c1.52-0.71,1.52-0.71,2.53-2.12c-1.11-0.61-0.91-2.12-2.12-3.13
		c-1.86,0.41-4.7-0.83-1.72-2.33c4.04,1.52,4.15,1.62,5.86,4.45c1.42-0.1,0.3-1.52,1.11-2.12c1.21,0,2.53-0.4,3.74-0.91
		c1.82,0.4,3.44,1.11,5.26,0.4c0.69-0.34,5.2,2.05,9.5-0.1c2.3-1.15,0.49,7.85,3.94,12.34c-0.55,2.73-0.34,2.5-4.45,4.25
		c-6.12,2.6-4.95,8.81-3.64,9.1c0.71-1.11,0-2.53,1.11-3.64c2.12,0.91,4.15-0.3,6.27-0.81c0.91-3.03,1.72-5.86,2.22-8.8
		c-2.43-4.45-1.72-9.3-2.63-13.75c3.84-5.61,8.56-2.3,7.89-9.71c-0.61-0.71-0.91-1.62-1.92-1.72c-1.01,0.4-1.52,1.92-2.93,0.91
		c0.61-0.51,1.11-1.01,1.72-1.52c-1.71-2.56-2.11-1.85-3.84-0.81c-0.81-0.81,0.91-4.34-1.31-6.37c-1.52,0.81-2.12,2.83-4.04,3.13
		c-1.06-2.66-2.53-1.82-10.52,0.51c-2.29-0.76,1.76-0.7-13.85-0.3c-1.32,1.64-2.28,3.58-3.44,2.43c-0.35-5.54-2.53,2.41-10.82,2.83
		c-0.89-0.7-4.13-3.86-5.86-2.12c-0.1,1.52,1.62,1.92,1.82,3.54c-0.91,0.51-1.41,1.31-1.52,2.53c-0.13,1.55-2.02,3.62-2.02,3.94
		c-0.3,2.93-0.3,3.03-1.62,4.95c-0.4,0.71-0.81,1.31-0.81,2.12c0,4.8-3.74,7.92-2.02,12.03
		C731.08,246.01,731.22,249.14,731.28,252.28z M783.4,247.7c-2.43-0.14-0.32-0.84,0.23-0.79C784.69,247,784.32,247.75,783.4,247.7z
		 M788.7,220.57c-0.58,0.65-0.98,1.39-1.41-1.15C787.88,218.6,791.17,217.79,788.7,220.57z M782.03,212.44
		c1.31,1.23,1.34,1.28-0.3,2.02C781.83,213.86,781.93,213.25,782.03,212.44z M781.61,214.61c-0.06,0.06-0.08,0.17-0.08,0.26
		C781.53,214.61,781.53,214.66,781.61,214.61z M779.71,226.6c0,0.3-0.1,0.2-0.3,0C779.5,226.7,779.71,226.7,779.71,226.6z
		 M779.31,226.47l0.01,0.01C779.12,226.34,779.25,226.39,779.31,226.47z M772.33,216.18c0.12,0.25,0.26,0.2-0.2,0.2L772.33,216.18z
		 M771.83,219.85c0.2-0.05,0.15-0.19,0.29-0.33c0.23,0.12,0.05,0.22-0.2,0.3C772.33,220.65,770.62,220.15,771.83,219.85z
		 M770.83,224.89c3.72,1.27,0.78,1.6-1.18,0.16C768.58,224.27,770.68,224.84,770.83,224.89z M768.58,222.35
		c-0.13,0.26-0.07,0.25-0.2,0H768.58z M766.69,224.18c-0.38,0.2-0.73,0.01-1.04-0.3C765.98,222.55,767.34,223.78,766.69,224.18z
		 M764.74,216.49c2.15-1.23,1.86-0.4,2.53-0.4C766.54,217.64,763.66,219.19,764.74,216.49z M758.98,213.96c0.93,0-0.06,0.7-0.2,0.2
		C758.75,214.09,758.82,214.01,758.98,213.96z M755.25,228.1c-0.07,0.07-0.14,0.14-0.21,0.21
		C755.04,228.11,755.1,228.1,755.25,228.1z M751.91,233.78c0.25-0.19,0.5-0.29,0.7-0.3C755.05,233.32,750.58,238.44,751.91,233.78z
		 M750.69,216.89c-1.11,1.82-1.11,1.82-2.83,1.72C748.67,218,749.17,217.19,750.69,216.89z M751.29,223.67
		c1.58,0.95-2.46,3.96-3.54,4.55C748.36,225.59,750.28,224.88,751.29,223.67z M747.43,223.43c0.07-0.13,0.12,0.09,0.12,0.23
		C747.55,224.18,747.27,223.85,747.43,223.43z M746.74,239.64c0.7,0.9-0.31,1.22-0.61,1.82
		C744.82,240.45,744.82,240.45,746.74,239.64z M745.41,250.01c0.17-0.09-0.06,0.85-0.08,0.95
		C744.94,250.57,744.92,250.27,745.41,250.01z M744.42,253.19c0.46,0.46-0.2,0.86-0.2,0.2
		C744.22,253.39,744.32,253.29,744.42,253.19z M736.13,260.27c-0.44,0,0-0.82,0.2-0.2C736.23,260.17,736.13,260.17,736.13,260.27z
		 M738.25,242.37c-0.19-1.89-0.6-3.34,0.2-4.45C739.63,238.32,739.61,237.48,738.25,242.37z M739.16,256.42
		c-0.46-0.46-0.1-0.61,0-0.71C739.28,255.83,739.44,256.42,739.16,256.42z M741.49,251.27c-2.22-1.01-2.22-1.01-2.83-3.34
		C740.61,246.85,742.13,249.21,741.49,251.27z M742.5,240.04c0,0.57-0.46,0.41-0.3,0.1c0.85,0-0.18-1.53,1.62-0.81
		C743.64,240.02,743.19,240.21,742.5,240.04z M741.39,217.6c0.56,0.28,0.53,0.16,0.46,0.27
		C741.67,218.12,741.04,217.94,741.39,217.6z M736.43,225.38c1.64-1.91-0.83-1.88,1.72-2.73c0.82,0,1.53,1.57,2.53,2.02
		c0.89-0.11,1.64-0.7,2.22-0.2c0.54,0.75-0.04,1.54-0.59,1.76c-1.03,0.48-2.26-2.09-6.69,0.87
		C735.12,226.19,736.03,225.79,736.43,225.38z M735.62,250.86c0.77,0.06,1.31,0.53,1.74,1.16c1.1,1.63-1.36,1.67-0.72,3.99
		C733.77,252.62,733.86,252.52,735.62,250.86z"/>
	<path d="M656.66,392.32c-0.06,0.18-0.11,0.2,0.1,0.2L656.66,392.32z"/>
	<path d="M623.49,499.19c3.21-2.14,4.5-10.6,7.89-30.03c0.88-5.06,1.94-2.52,2.93-8.8c0.75-4.75,1.42-9.4,3.24-13.95
		c-4.55-6.82,12.93-35.03,13.25-43.78c3.81-4.23,7.94-12.55,4.04-10.41c-1.51,1.38,0.39,0.48-6.27,9.71
		c-1.57,11.39,0.12,8.59-4.45,12.34c-9.39,21.12-8.28,17.72-11.02,37.81c-7.22,6.86-5.7,23.01-7.79,36.5
		C624.06,496.66,621.7,498.74,623.49,499.19z"/>
	<path d="M319.35,200.92c5.77-4.81,4.17-30.86,1.62-33.77c-0.46,0.27-0.83,0.55-1.2,0.74C320.78,170.14,318.21,184.83,319.35,200.92
		z"/>
	<path d="M319.66,167.95c0.1-0.05,0.1,0,0.1-0.1L319.66,167.95z"/>
	<path d="M288.72,41.26c-5.95,1.32-6.2,0.26-6.98,1.82c2.93,1.11,7.89,1.52,9.81,0.91c0.51-0.61,0.91-1.21,1.11-1.42
		c1.21-0.81,2.53,0.1,3.03-1.11c-0.1-1.82-1.01-2.73-2.63-3.24c-8.57-2.02-10.49,0.13-13.25,1.82c2.12,0.81,3.34-1.11,5.16-1.01
		c1.62,1.01,3.74,1.11,5.66,2.33C290.03,41.26,289.43,41.06,288.72,41.26z"/>
	<path d="M768.08,249.95c0.71-0.51,0.81-1.62,1.62-1.92c0.81-0.4,1.92,0.1,2.53-0.91c-0.3-0.71-0.3-1.62-1.21-2.43
		c-3.13-1.62-6.78-0.93-10.31-0.71c-1.52,0.09-3.03,1.42-3.94,2.83c1.72,0.2,2.73-1.31,4.75-1.52c1.42,1.62,4.25,0.1,6.27,2.02
		c-1.21,0.4-2.11-0.28-3.24,0.2c-4.19,1.79-5.51,0.12-6.07,2.33C761.61,250.36,764.84,250.56,768.08,249.95z"/>
	<path d="M265.95,107.22c0.69,0.59,9.63,1.6,11.14,1.68c12.25,0.62,10.31,4.25,15.17,4.25c0.61-0.4,0.71-1.42,1.11-1.52
		c2.12-0.81,4.25-0.61,5.86-2.53c-3.13-0.61-5.66,0.1-7.89,2.02c-2.27-1.14-3.27-2.55-11.32-3.53
		C274.2,106.88,262.93,104.64,265.95,107.22z"/>
	<path d="M178.41,550.86c10.97-21.59,0.41-1.29,8.39-22.04c0.3-0.4,1.42-0.4,1.82-1.72c-2.43-0.2-3.22,0.21-3.94,1.92
		c-8.87,21.11,3.36,1.8-8.9,22.04C174.22,553.64,177.44,552.76,178.41,550.86z"/>
	<path d="M636.54,518.4c-3.24,1.42-6.27,3.34-9.5,4.45c-1.92-0.91-4.04-0.61-5.86-1.62c-1.78,3.57,3.57,1.99,5.26,2.53
		c0.51,1.01,1.91,1.33,2.83,2.12C633.02,529.12,637.67,519.53,636.54,518.4z M632.09,524.47c-0.44,0-1.07-0.91,0.4-0.91
		C632.59,523.96,632.59,524.37,632.09,524.47z"/>
	<path d="M264.65,67.45c11.4,11.07,22.65,14.67,2.73,0.61c0-0.62-1.69-7.58-1.72-7.68c-0.32-1.31,0.3-2.63-0.2-4.04
		c-1.42,1.62-1.42,1.62-1.52,2.22c-0.32,2.02-0.17,4.03,0.71,5.86C265.18,65.52,264.35,66.34,264.65,67.45z"/>
	<path d="M756.65,283.12c-6.89-7.81-13.35-3.8-13.35-19.21c-4.07,0.68,0.1,8.96-0.4,11.12c3.94,3.03,8.29,5.86,12.54,8.7
		C755.84,283.93,756.45,283.93,756.65,283.12z"/>
	<path d="M221.58,562.79c-2.74-0.11-8.46,0.83-8.09,3.24c8.5,0.5,4.2,0.74,4.75,2.22c4.44,2.96,7.87-0.79,4.85-1.92
		c-0.8-0.4-0.94,0.08,0-2.12C222.69,563.39,222.19,562.99,221.58,562.79z"/>
	<path d="M684.66,356.83c-3.91-11.13-6.37-5.46-4.85-17.09C674,338.08,680.01,359.93,684.66,356.83z"/>
	<path d="M301.86,447.83c-1.6,2.39-5.02,11.31-5.26,15.87C298.9,460.07,307.06,448.34,301.86,447.83z"/>
	<path d="M658.38,399.29c-0.73,0.48-0.99,0.05-2.43,3.84c-2.05,5.42,0.42,4.48,1.52,8.59c0.3,0.71,0.81,1.31,1.82,0.91
		c1.42-1.82-1.01-2.53-1.11-3.84C659.39,401.5,660.37,399.96,658.38,399.29z"/>
	<path d="M229.37,417.69c1.62-1.62-0.1-2.26-0.1-9.3c0-0.51-0.1-0.91-0.2-1.82c-0.71,0.4-1.11,0.4-1.42,0.71
		C224.8,411.18,226.64,419.26,229.37,417.69z"/>
	<path d="M239.58,552.27c24.02,0.75,10.14-4.66-1.42-1.21C238.06,552.17,238.87,552.37,239.58,552.27z"/>
	<path d="M302.77,67.15c-1.1-2.2-6.02,0.19-12.84-0.71c-0.79-0.16-1.44,1.37-0.1,1.82c4.15,0.4,8.19-0.25,12.34-0.3
		C302.37,67.95,302.57,67.35,302.77,67.15z"/>
	<path d="M300.04,73.01c0.37-2.04-0.79-2.15-3.44-3.03C292.16,68.99,289.62,75.93,300.04,73.01z"/>
	<path d="M225.93,426.39c-0.1-0.4-0.2-1.01-1.01-1.31C224.52,446.96,230.05,437.92,225.93,426.39z"/>
	<path d="M770.91,278.26c1.3,1.73,5.19,1.05,7.18,0.2C781.31,277.39,772.04,272.62,770.91,278.26z"/>
	<path d="M780.72,272.4c-1.31-1.87-7.45,0.45-12.54,0c-0.29-0.15-1.24,0.3-1.01,1.21c0.76,0.76,0.18,0.94,12.94-0.4
		C780.31,273.21,780.52,272.7,780.72,272.4z"/>
	<path d="M302.77,446.21c1.06-3.27,1.37-11.05-1.92-10.82c-0.1,0.4-0.4,0.81-0.3,1.01C302.51,444.53,300.91,446.44,302.77,446.21z"
		/>
	<path d="M238.87,558.14c-4.45-1.72-8.9-1.21-13.65-1.42C227.83,558.5,225.9,558.14,238.87,558.14z"/>
	<path d="M228.55,445c-0.15-5.81-4.06,2.72-4.24,10.51C228.14,445.55,227.5,445.64,228.55,445z"/>
	<path d="M285.58,406.88c-2.98,1.49,4.05,7.41,5.56,8.8C290.34,414.01,287.31,406.88,285.58,406.88z"/>
	<path d="M274.26,85.95c0.71-1.43,0.4-0.91-5.56-12.34c-0.35-0.67-1.42,0.04-0.71,1.11c5.45,9.73,5.58,9.11,5.26,10.52
		C273.05,85.65,273.65,86.06,274.26,85.95z"/>
	<path d="M202.88,444.99c-0.85,5.24-3.25,5.63-2.43,7.89c3.54-1.77,1.15-4.94,5.16-10.11C207.15,440.77,203.78,439.46,202.88,444.99
		z"/>
	<path d="M669.9,358.95c-2.8-0.31-2.78,7.05,0.3,8.59C670,364.61,670.31,361.68,669.9,358.95z"/>
	<path d="M670.2,378.06c3.58,0.4,2.13-4.71,1.31-9.4c-0.09-0.51-0.61-1.01-1.31-1.11C669.57,375.52,671.26,373.33,670.2,378.06z"/>
	<path d="M296.5,60.47c2.67-1.25,4.92,0.59,5.76-1.52c-0.71-1.62-2.12-1.01-3.24-1.01C294.7,57.95,295.88,60.77,296.5,60.47z"/>
	<path d="M211.37,427.91c-1.68-0.56-4.57,5.68-4.65,8.19C207.95,434.79,212.11,429.39,211.37,427.91z"/>
	<path d="M752.41,289.79c-3.74-9.14-10.48-14.91-1.62-1.31C751.19,288.98,751.5,289.79,752.41,289.79z"/>
	<path d="M765.05,319.11c0.55,0.55,5.28-1,6.27-1.52C774.5,315.92,765.05,315.82,765.05,319.11z"/>
	<path d="M778.39,265.42c0.25,0,1.84-0.58,1.01-1.82c-3.27-0.57-6.43-0.64-5.46,2.53C775.36,265.52,776.88,265.12,778.39,265.42z"/>
	<path d="M296.91,395.55c-1.29,3,1.57,3.45,4.75,4.25C300.04,398.48,299.34,396.16,296.91,395.55z"/>
	<path d="M654.53,414.96c-1.01,2.43-1.11,3.84-0.4,5.76c1.11-2.12,1.82-4.15,2.22-6.77C654.63,414.56,654.74,414.56,654.53,414.96z"
		/>
	<path d="M319.15,226.8c-1.47,3.31-0.63,1.79-3.13,5.97C319.49,231.26,322.05,225.93,319.15,226.8z"/>
	<path d="M221.48,417.49c0.1-0.2,0.4-0.51,0.3-0.61c-0.71-1.82-1.31-3.74-2.43-5.97C219.16,414.86,219.36,415.47,221.48,417.49z"/>
	<path d="M668.28,384.33c0.61-2.12,1.21-4.25,1.82-6.37C668.47,379.16,666.03,384.61,668.28,384.33z"/>
	<path d="M292.86,86.16c-1.82,0.63-5.51,3.66-3.74,4.45C290.24,89.39,291.75,88.58,292.86,86.16z"/>
	<path d="M651.2,443.68c0.2-1.62,0.51-2.93,0.71-4.35C649.25,438.45,649.66,441.86,651.2,443.68z"/>
	<path d="M222.69,419.82c-0.1,1.62-0.51,3.03,0.71,4.15C224.72,422.65,224.62,421.54,222.69,419.82z"/>
	<path d="M208.84,447.42c-1.72,1.72-1.52,3.54-2.12,5.86C208.34,451.26,209.04,449.65,208.84,447.42z"/>
	<path d="M651.7,432.36c-2.22,1.54-0.64,3.98,0,3.34C652.4,434.99,653.36,432.59,651.7,432.36z"/>
	<path d="M313.39,233.78c-1.42,1.42-1.52,1.82-0.81,4.35C312.68,236.71,314.4,235.6,313.39,233.78z"/>
	<path d="M263.54,90.4c0.51-2.02,0-3.84-0.81-5.56C260.94,84.84,263.4,87.74,263.54,90.4z"/>
	<path d="M653.32,423.96c-1.72,1.01-1.82,2.33-1.62,4.25C652.61,426.69,653.72,425.68,653.32,423.96z"/>
	<path d="M291.25,495.25c-0.91,1.21-0.81,2.43-0.71,4.35C291.85,497.27,291.85,497.27,291.25,495.25z"/>
	<path d="M195.5,509.7c1.52-0.91,1.52-0.91,1.42-3.64C195.8,506.97,194.89,508.09,195.5,509.7z"/>
	<path d="M293.77,467.24c-1.72,1.31-2.22,2.02-3.13,4.04C295.05,467.5,294.3,468.3,293.77,467.24z"/>
	<path d="M675.87,388.07c1.01-1.31,1.01-1.31,1.11-3.54C675.36,386.65,675.36,386.65,675.87,388.07z"/>
	<path d="M694.37,320.73c2.53-0.71,2.63-0.81,3.34-2.33C695.89,319.11,695.89,319.11,694.37,320.73z"/>
	<path d="M292.97,485.13c1.11-1.62,1.62-2.83,0.71-4.65C292.86,482,292.36,483.11,292.97,485.13z"/>
	<path d="M735.72,289.39c0.62,2.49,4.09,2.27,2.93,1.11C737.85,289.89,737.14,288.98,735.72,289.39z"/>
	<path d="M199.64,494.44c1.34-3.36-0.25-5.05-0.91-0.81C198.64,494.24,198.93,494.54,199.64,494.44z"/>
	<path d="M229.67,400.61c-1.42-1.89-2.67,0.82-0.4,2.33C229.57,402.22,230.08,401.52,229.67,400.61z"/>
	<path d="M708.22,355.31c-1.31-0.51-1.31-0.51-3.13,2.53C706.5,356.83,707.62,356.52,708.22,355.31z"/>
	<path d="M688.81,361.17c0.91,2.63,0.91,2.63,2.43,3.74C690.73,363.5,690.43,362.39,688.81,361.17z"/>
	<path d="M291.55,492.11c1.01-1.21,1.01-1.21,0.51-3.13C291.45,490.09,290.74,490.9,291.55,492.11z"/>
	<path d="M753.42,293.13c0.88-1.31,0.13-2.96-1.11-3.24C752.71,290.9,751.6,292.42,753.42,293.13z"/>
	<path d="M197.62,501.62c1.47-2.35-1.2-5.04-0.61-0.3C197.11,501.62,197.21,501.82,197.62,501.62z"/>
	<path d="M292.97,511.52c1.11-1.62,1.01-2.73,0.4-3.84C292.06,508.59,292.66,509.81,292.97,511.52z"/>
	<path d="M679.81,379.98c1.52-0.51,1.52-0.51,1.31-2.12C680.11,378.67,680.11,378.67,679.81,379.98z"/>
	<path d="M644.52,420.32c0.33,0.66,0.22,2.21,1.21,1.72c0.3-0.81,0.71-1.52,0.1-2.33C645.23,419.51,644.93,420.12,644.52,420.32z"/>
	<path d="M300.65,424.87c-1.31-3.28-3.23-2.64-1.11-0.1C299.74,425.08,300.14,425.48,300.65,424.87z"/>
	<path d="M293.07,513.45c-1.31,0.3-1.31,1.31-1.72,2.73C293.17,515.67,293.17,514.66,293.07,513.45z"/>
	<path d="M302.98,512.84c0.4-1.92,0.2-3.13-0.2-5.06C301.96,509.7,302.07,511.02,302.98,512.84z"/>
	<path d="M205.1,462.99c-0.1,1.92-0.3,3.34,0.4,4.65C205.51,466.33,206.72,464.91,205.1,462.99z"/>
	<path d="M294.28,503.64c-0.4,1.52-1.01,2.63-0.91,4.04C294.68,505.66,294.68,505.66,294.28,503.64z"/>
	<path d="M202.47,485.44c-0.3,1.72-0.3,1.72,0.91,2.33C203.79,486.65,203.48,485.94,202.47,485.44z"/>
	<path d="M704.78,313.45c-1.21-0.4-2.02-0.2-2.53,0.81C703.27,314.66,703.98,314.36,704.78,313.45z"/>
	<path d="M204.49,473.81c0.81-1.21,0.61-2.43,0-3.64C204.49,471.38,204.49,472.6,204.49,473.81z"/>
	<path d="M687.39,360.37c0.3-1.01,0.2-1.82-1.11-2.63C685.98,359.76,686.38,360.57,687.39,360.37z"/>
	<path d="M222.09,464.41c0.81-0.71,1.42-1.31,0.81-2.33C221.89,462.59,221.68,463.29,222.09,464.41z"/>
	<path d="M662.02,419.51c1.61-0.97-1.54-2.79-0.51,0.3C661.81,419.72,662.02,419.72,662.02,419.51z"/>
	<path d="M203.38,477.15c0,0.34-0.2-0.71-0.2,1.92C203.79,479.07,203.38,477.54,203.38,477.15z"/>
	<path d="M296,431.95c0-1.31-0.1-2.22-1.21-2.63C294.79,430.23,294.89,431.14,296,431.95z"/>
	<path d="M757.97,301.82c0.61,0.61,1.01,1.42,1.92,1.62C759.18,301.72,759.18,301.72,757.97,301.82z"/>
	<path d="M219.96,472.09c0.3-0.71,1.31-1.01,0.51-2.02C219.96,470.68,219.26,470.98,219.96,472.09z"/>
	<path d="M746.04,305.97c0,0.91,0,0.91,0.81,1.11C746.74,306.58,746.44,306.17,746.04,305.97z"/>
	<path d="M666.06,389.89c0,0.71-0.2,1.31,1.11,1.52C666.97,390.7,667.17,390.09,666.06,389.89z"/>
	<path d="M311.17,241.36c0.79-1.57-1.81-0.97-1.21,1.01C310.66,242.37,310.96,241.76,311.17,241.36z"/>
	<path d="M309.95,243.48c0-0.4,0-0.71,0-1.11C308.32,243.39,309.95,244.78,309.95,243.48z"/>
	<path d="M660.3,415.57c-0.1-0.2-0.2-0.51-0.2-0.61C659.21,414.52,659.25,416.62,660.3,415.57z"/>
	<path d="M260.81,556.42l0.4-0.1C260.71,556.19,260.81,556.15,260.81,556.42z"/>
	<path d="M198.83,552.57c0.1-0.2,0.2-0.3,0.3-0.51C198.83,552.17,198.53,552.07,198.83,552.57z"/>
	<path d="M634.72,527.2c0,0.1-0.1,0.1-0.1,0.2C634.72,527.4,634.72,527.4,634.72,527.2z"/>
	<path d="M301.86,400.1c0,0-0.1-0.1-0.3-0.2C301.66,400,301.76,400.1,301.86,400.1z"/>
	<path d="M229.17,402.93l0.2,0.1C229.25,402.91,229.29,402.93,229.17,402.93z"/>
	<path d="M742.19,297.88v-0.2C742.07,297.8,742.07,297.75,742.19,297.88z"/>
	<path d="M760.09,303.54c0,0-0.2-0.1-0.3-0.1C759.99,303.74,760.09,303.85,760.09,303.54z"/>
	<path d="M694.27,320.63l-0.1,0.2C694.42,320.7,694.4,320.76,694.27,320.63z"/>
	<path d="M199.14,467.64C198.83,468.05,199.24,467.74,199.14,467.64L199.14,467.64z"/>
	<path d="M204.39,473.71c-0.1,0.1-0.2,0.2-0.2,0.2S204.39,473.91,204.39,473.71z"/>
	<path d="M291.25,415.87c-0.07-0.06-0.13-0.1-0.2-0.1C291.09,415.82,291.18,415.85,291.25,415.87z"/>
	<path d="M291.25,415.87c0.03,0.03,0.07,0.06,0.1,0.1C291.35,415.93,291.3,415.9,291.25,415.87z"/>
	<path d="M298.43,422.24c0,0.1,0.1,0.2,0.3,0.2C298.63,422.35,298.53,422.35,298.43,422.24z"/>
	<path d="M294.89,429.32c-0.1,0-0.1-0.1-0.2-0.1C294.68,429.22,294.79,429.32,294.89,429.32z"/>
	<path d="M206.52,436.2c0.1,0,0.2-0.1,0.1-0.2C206.62,436.1,206.62,436.2,206.52,436.2z"/>
	<path d="M200.85,459.86c-0.1,0.1-0.1,0.2-0.2,0.3C200.96,460.06,201.06,459.96,200.85,459.86z"/>
	<path d="M200.55,460.06c-0.1,0.1-0.1,0.3-0.1,0.3S200.55,460.26,200.55,460.06z"/>
	<path d="M701.1,381.09c0.03,0,0.1,0,0.13,0C701.24,380.34,700.6,382.24,701.1,381.09z"/>
	<path d="M291.04,320.12c-0.2,3.84-1.21,7.18-2.53,10.52c-0.59,2.06-1.85,13.96-5.86,17.8c5.12,5.12,6.3-34.19,11.73,6.17
		c2.05-5.45,0.54-17.29-4.85-22.14C291.53,326.46,293.91,321.43,291.04,320.12z"/>
	<path d="M222.49,286.86c-0.54,16.75-4.57,50.88-3.24,51.97c1.1-1.4,0.83-2.85,0.81-4.45c-0.3-19.89,5.42-26.62,3.34-41.76
		c-0.93-6.72,1.18-10.6,1.18-11.46C224.59,279.28,222.65,281.84,222.49,286.86z"/>
	<path d="M285.28,264.82c1.25-1.25-1-4.3,0.21-7.08c5.04,1.26,9.11-0.42,14.57-1.53c-4.65-0.51-9.4-1.01-14.05,0.51
		c-2.55-0.71-9.52-2.63-12.03-1.82c3.03,2.73,6.47,1.82,9.2,2.63C283.22,258.99,283.98,264.17,285.28,264.82z"/>
	<path d="M233.39,274.89c0.06,0.1,6.3,5.66,4.27,10.86c-2.64,6.75-4.21,18.17-2.53,19.05c0.56,0.29-0.87,0.22,1.62-8.84
		c3.04-11.08,5.4-13.39-1.01-21.44C233.91,272.23,232.81,274.01,233.39,274.89z"/>
	<path d="M291.35,276.16c-2.45,0.26-0.88,38.54-0.82,41.03c0.01,0.51,0.3,0.91,1.21,1.01c0-0.02-0.51-16.69-0.29-33.16
		C291.52,279.9,292.6,276.16,291.35,276.16z"/>
	<path d="M232.14,322.64c-2.78-1.55,2.05,8.24,3.3,11.74c3.1,8.69-3.69,12.08-3.84,14.26c5.03-5.03,8.76-7.17,4.15-17.9
		C235.51,330.21,232.27,322.71,232.14,322.64z"/>
	<path d="M288.82,167.04c10.26-7.56,9.86-24.79,3.44-7.38c-1,2.72-2.16,3.28-6.07,7.18C287.3,168.16,288.11,167.75,288.82,167.04z"
		/>
	<path d="M283.75,361.07c-6.71-1.68,4.52,32.66,1.73,13.85C284.81,370.41,283.36,365.87,283.75,361.07z"/>
	<path d="M222.3,375.94c-2.92-3.34-2.93-23.3-3.04-24.77C216.06,359.33,221.25,385.37,222.3,375.94z"/>
	<path d="M263.34,277.35c-11.28-9.99-11.13-10.07-12.84-10.72c-1.24-0.74-1.96,0.89-1.31,1.21c4.45,4.04,9.5,7.28,14.26,11.12
		C264.15,278.06,263.74,277.66,263.34,277.35z"/>
	<path d="M310.76,288.27c-1.37-3.9-6.98-9.88-10.52-15.47C299.04,270.9,295.38,275.53,310.76,288.27z"/>
	<path d="M290.49,202.99c-0.1,1.02,0.87,0.32,0.18,10.17c-0.23,3.28-0.08,3.58,0.48,3.93C296.84,208.87,291.02,197.63,290.49,202.99
		z"/>
	<path d="M310.56,309.31c-14.73,4.87-14.85,3.83-16.38,5.36C295.27,317.93,309.52,311.38,310.56,309.31z"/>
	<path d="M259.28,292.09c0.54-1.07-1.19,0.69-9.79-8.77c-0.89,0.82-1.09,1.71-0.4,2.73c1.92,3.84,5.61,5.08,9.1,6.67
		C258.58,292.91,259.05,292.82,259.28,292.09z"/>
	<path d="M299.34,262.79c0.15,1.61,1.2,2.3,6.57,5.76c0.61-0.71,0.61-1.11,0.51-1.42C301.93,259.81,298.9,260.62,299.34,262.79z"/>
	<path d="M285.08,286.06c-0.8-6.41-1.5-4.73-1.5-3.55c0,17.19,5.81,23.2,4.01,17.81C285.89,296.52,285.26,289.11,285.08,286.06z"/>
	<path d="M292.46,185.24c0.71,4.55-0.61,8.9-0.3,13.45C294.14,195.03,295.25,184.48,292.46,185.24z"/>
	<path d="M256.46,387.24c0,0.08,0.01,0.1,0.01,0.16C257.94,395.91,262.46,349.1,256.46,387.24z"/>
	<path d="M301.76,298.39c-4.92,2.81-7.46,3.4-8.38,4C291.99,303.3,292.46,307.28,301.76,298.39z"/>
	<path d="M226.54,261.38c0.82-1.64,3.82-11.29,2.33-12.03C227.17,251.03,226.54,259.19,226.54,261.38z"/>
	<path d="M295.43,176.94c0.04,0.18,6.02,5.27,6.63,5.77C301.81,177.9,294.89,175.19,295.43,176.94z"/>
	<path d="M286.09,310.52c-3.44-0.81-6.27-2.53-10.21-3.34C277.15,309.87,283.23,311.34,286.09,310.52z"/>
	<path d="M287.56,272.49c-0.38-0.1-7.63,4.6-7.73,4.66C282.95,276.43,289.63,273.05,287.56,272.49z"/>
	<path d="M222.9,277.86c-1.01,0.2-1.42,1.21-2.22,1.92c-0.81,0.61-1.92,1.11-2.33,2.33C222.29,281.1,223.3,280.08,222.9,277.86z"/>
	<path d="M218.45,304.45c-1.52,1.21-2.93,2.33-4.35,3.44C218.14,307.38,218.75,306.78,218.45,304.45z"/>
	<path d="M263.14,168.16c-1.42-0.71-2.63-1.62-4.65-1.01C260.96,168.99,261.37,169.05,263.14,168.16z"/>
	<path d="M309.95,169.17c-0.73-0.8-1.58-1.34-2.66-1.42C303.27,167.46,307.6,169.64,309.95,169.17z"/>
	<path d="M289.73,227c-0.1-1.31,0.81-2.53,0.2-3.94C288.62,225.59,288.62,225.59,289.73,227z"/>
	<path d="M247.67,242.27c-1.42,0.91-1.01,2.02-0.81,3.44C247.97,244.6,248.68,243.69,247.67,242.27z"/>
	<path d="M235.03,186.36c1.86-0.37-4.45-3.84-2.31-1.32C233.38,185.79,234.35,185.9,235.03,186.36z"/>
	<path d="M267.49,191.51c-1.62,0.3-2.12,1.11-2.63,2.33C266.52,193.52,266.5,193.66,267.49,191.51z"/>
	<path d="M259.6,199.8c1.16-0.46,1.67-1.21,2.02-2.43C259.4,198.08,259.4,198.08,259.6,199.8z"/>
	<path d="M250.8,179.68c-1.02-0.82-1.94-1.11-3.44-0.71C248.57,180.08,249.37,180.19,250.8,179.68z"/>
	<path d="M276.59,168.85c-1.14-0.45-3.51-0.77-3.24,0.62C274.38,169.98,275.31,169.31,276.59,168.85z"/>
	<path d="M245.95,177.96c-0.81-0.89-0.75-0.91-2.54-1.21C244.43,177.76,245.04,178.27,245.95,177.96z"/>
	<path d="M303.18,326.8c-0.19,0-0.2,0.75,2.33,1.92C304.9,327.64,304.32,326.73,303.18,326.8z"/>
	<path d="M295.3,319.12c-0.76-0.38-1.03,0.8-1.05,1.56c-0.07,2.06,5.6,5.56,8.93,6.12C300.98,323.8,297.98,321.69,295.3,319.12z"/>
	<path d="M269.41,256.22c0.3,1.01,1.52,1.21,2.02,2.02C271.33,256.12,271.33,256.12,269.41,256.22z"/>
	<path d="M277.09,278.37c1.11-0.51,2.12-0.4,2.73-1.31C278.91,277.05,278,277.15,277.09,278.37z"/>
	<path d="M269.51,169.27c-0.39-0.58-0.89-0.83-1.51-0.41C268.7,169.88,268.7,169.88,269.51,169.27z"/>
	<path d="M226.64,373.61c0.43-0.54,0.21-1.33,0.3-1.62C226.46,372.58,226.28,372.94,226.64,373.61z"/>
	<path d="M225.93,265.73c0.1-0.1,0.1-0.1,0.1-0.2C226.03,264.27,225.72,265.3,225.93,265.73z"/>
	<path d="M242.71,189.69c0.19,0.19,0.51,0.21,0.61-0.1C243.69,188.41,241.21,188.94,242.71,189.69z"/>
	<path d="M311.45,289.58c-0.15-0.72-0.03-1.2-0.79-1.2C310.5,288.85,311.45,289.7,311.45,289.58z"/>
	<path d="M226.33,380.28c-0.2-0.2-0.2-0.4-0.3-0.81C225.83,379.98,226.13,380.08,226.33,380.28z"/>
	<path d="M238.67,187.67c0.28,0.14,0.26,0.19,0.54,0.19C239.8,187.73,239.09,187.22,238.67,187.67z"/>
	<path d="M239.48,199.2l-0.1,0.3C239.64,199.5,239.61,199.58,239.48,199.2z"/>
	<path d="M310.66,309.41c0.2-0.1,0.51-0.1,0.91-0.2C311.06,308.8,310.86,309.2,310.66,309.41z"/>
	<path d="M227.06,371.93c0,0.03-0.01,0.07-0.01,0.11C227.08,371.9,227.17,371.64,227.06,371.93z"/>
	<path d="M227.05,372.04c0,0.02-0.01,0.04-0.01,0.05C227.04,372.07,227.05,372.06,227.05,372.04z"/>
	<path d="M271.43,258.24h-0.1C271.58,258.37,271.57,258.39,271.43,258.24z"/>
	<path d="M282.25,185.55c0-1.93,7.42-7.25,6.27-9.2c-2.06-0.32-0.81-0.66-4.75,4.35C280.96,184.26,253.86,197.71,282.25,185.55z"/>
	<path d="M99.3,370.88c0.38-0.04,0.92-0.31,1.25-0.81C98.16,370.07,98.36,370.99,99.3,370.88z"/>
	<path d="M112.08,239.54c1.53,0.85,2.13,1.39,2.83,0.81C114.27,239.32,113.3,239.33,112.08,239.54z"/>
	<path d="M210.36,148.84c4.15,2.34,1.88-1.01-0.71-4.55c-1.11-1.82-2.22-3.64-3.64-4.85c-0.1-2.53,0.3-4.75-0.2-6.98
		C201.9,134.88,206.45,146.64,210.36,148.84z"/>
	<path d="M193.57,207.08c0.79-1.18,0.32-1.12-1.62-3.44c0-3.57,1.34-9.37-0.59-9.44c-1.57-0.06-4.44,6.06-1.18,9.94
		C190.58,204.61,192.71,208.81,193.57,207.08z"/>
	<path d="M200.65,171.49c-2.05,1.85-2.44,4.11-1.93,6.85c0,0.12,1.02-0.21,1.02-1.07c-0.09-1.73,0.91-6.23,0.91-5.66
		c1.25,0,1.75-0.82,2.12-2.02c-1.04-3.05-0.81-6.46-3.13-9.3c-0.6-0.6-1.14-6.07-1.31-7.58c-2.48-0.71-2.26,5.78,0.81,8.99
		C201.47,173.83,200.44,168.9,200.65,171.49z"/>
	<path d="M189.16,215.55c2.62-10.23-0.13-7.57-0.74-3.31C188.11,214.4,189.08,215.92,189.16,215.55z"/>
	<path d="M173.25,272.3c-0.99,2.98-0.19,2.94,0.61,3.74C175.61,272.53,174.95,269.46,173.25,272.3z"/>
	<path d="M175.39,276.34c-0.4,2.12-0.1,2.53,2.43,3.24C177.1,276.9,177.13,276.84,175.39,276.34z"/>
	<path d="M187.1,235.09c-0.2,1.31,0.2,2.53,1.21,4.15C189.44,231.76,187.1,234.82,187.1,235.09z"/>
	<path d="M188.72,219.22c-1.62,0.91-1.62,0.91-1.21,3.54C188.52,221.14,188.52,221.14,188.72,219.22z"/>
	<path d="M225.22,110.22c-1.72,0.91-2.93,1.42-4.15,3.34C224.11,112.04,224.11,112.04,225.22,110.22z"/>
	<path d="M188.01,227.41c-1.21,1.11-1.31,2.22-0.2,3.84C188.82,228.92,188.82,228.92,188.01,227.41z"/>
	<path d="M206.67,180.04c0.01,2.07,1.89,0.55,1.16-2.58C207.31,178.29,206.66,179.07,206.67,180.04z"/>
	<path d="M217.03,152.99c0.07,0.1,2.06,3.23,2.12,3.34C218.95,154.2,218.95,154.2,217.03,152.99z"/>
	<path d="M233.41,149.45c3.89-1.94,0.36-3.91-1.01,0.2C233.04,150.05,233.09,149.55,233.41,149.45z"/>
	<path d="M175.48,306.58c0.02,1.46,3,0.12,0.4-3.45C175.68,304.74,175.46,305.65,175.48,306.58z"/>
	<path d="M210.58,170.9c-0.35,0.49-0.41,1.91,0.18,1.49C212.48,171.16,211.59,169.47,210.58,170.9z"/>
	<path d="M215.72,152.48c-0.2-1.72-0.2-1.72-1.21-2.53C214,151.47,214,151.47,215.72,152.48z"/>
	<path d="M174.57,301.62c0.88-1.02,0.88-1.3,0.53-2.39C173.85,295.46,174.05,299.74,174.57,301.62z"/>
	<path d="M232.2,105.97c-1.24-0.66-1.81-0.28-2.73,0.51C230.48,106.94,231.25,106.67,232.2,105.97z"/>
	<path d="M167.69,287.36c-1.31,1.01-1.31,1.21,0.4,2.12C168.5,288.68,168.5,287.97,167.69,287.36z"/>
	<path d="M183.16,307.09c0-0.21-0.03-0.68-0.08-0.78C182.53,304.12,180.55,306.66,183.16,307.09z"/>
	<path d="M198.52,184.84c0.18-0.23,0.21-0.44,0.05-0.7C197.26,181.93,197.64,186,198.52,184.84z"/>
	<path d="M196.51,212.34c-0.3,0.81-0.3,0.81,0,1.72C196.91,213.15,196.91,213.15,196.51,212.34z"/>
	<path d="M193.98,210.32c0.63,0.21,0.6-0.71,0.2-0.91C193.98,209.21,192.89,209.59,193.98,210.32z"/>
	<path d="M216.22,120.23c-0.1-0.1-0.1-0.2-0.1-0.3c-0.1,0.1-0.2,0.2-0.2,0.3C215.92,120.9,216.12,120.33,216.22,120.23z"/>
	<path d="M320.26,546.41c1.21-0.32,2.43-0.71,2.83-2.22C321.82,540.36,314.95,547.83,320.26,546.41z"/>
	<path d="M166.48,563.6c-1.41-0.38-3.27-1.41-5.12-1.36c-2.01,0.05-1.99,0.96-3.58,0.96c-10.15,1.35-9.25,1.02-9.61,1.72
		C148.41,567.03,167.3,568.94,166.48,563.6z"/>
	<path d="M150.6,572.59c-50.6-5.6-20.37,1.66,14.05,1.42c2.49-0.02,5.26,0.03,5.7-0.81C170.56,572.82,160.08,573.64,150.6,572.59z"
		/>
	<path d="M172.75,572.62c-0.87,0-1.62,0.12-2.33,0.58C173.98,572.9,175.98,572.62,172.75,572.62z"/>
	<path d="M116.83,571.38c0.61,0.3,1.21,0.3,1.72,0C118.05,571.08,117.44,571.08,116.83,571.38z"/>
	<path d="M561.92,452.68c1.52,0.71,1.52,0.71,2.83,0.61C564.04,452.48,563.13,452.48,561.92,452.68z"/>
	<path d="M565.62,584.18c-0.41,0.61,0.63,0.45,0.81,0.02C566.49,584.02,565.89,583.77,565.62,584.18z"/>
	<path d="M565.15,584.73c-0.08,0-0.1,0.13-0.1,0.21C565.36,584.94,565.52,584.36,565.15,584.73z"/>
	<path d="M564.95,453.59c-0.08-0.08-0.19-0.2-0.3-0.2C564.75,453.49,564.85,453.49,564.95,453.59z"/>
	<path d="M739.75,388.02c2.99,2.58,19.92-4.36,18.83-11.27c5.88-5.36,5.02-12.54,3.37-10.73c-1.01,1.11-0.9,14.14-16.92,19.52
		C739.16,387.52,738.9,387.29,739.75,388.02z"/>
	<path d="M737.44,403.44c7.32-8.02,6.17-6.83,6.17-7.79C739.2,395.65,732.71,405.02,737.44,403.44z"/>
	<path d="M762.51,377.76c-3.65,2.43,2.22,5.16,5.06,6.98c1.01-0.2,1.62-0.4,2.12-1.21c-0.9-2.53-3.23-1.52-4.94-2.02
		C763.12,380.69,764.14,378.49,762.51,377.76z"/>
	<path d="M756.86,391.91c-2.03-0.65,0.72,2.93,5.66,4.35C761.51,393.63,759.59,392.21,756.86,391.91z"/>
	<path d="M752.51,400.3c-6.12,12.24-0.21,6.34,1.11,0.62C753.62,400.8,753.83,399.97,752.51,400.3z"/>
	<path d="M701.56,382.92c0.74,1.49,5.05,5.31,5.58,4.97c0.04,0.04,0.08,0.08,0.13,0.12c-0.04-0.06-0.07-0.11-0.12-0.13
		c0.05-0.04,0.07-0.13,0.02-0.28c-0.74-2.94-2.39-1.68-3.46-4.13C702.5,379.83,700.42,380.62,701.56,382.92z"/>
	<path d="M707.27,387.71c0.05-0.05,0.05-0.04-0.01-0.04C707.16,387.67,707.17,387.81,707.27,387.71z"/>
	<path d="M762.82,360.06c1.66-2.34,3.31-7.36,0.71-7.68C762.32,354.6,762.62,357.03,762.82,360.06z"/>
	<path d="M747.45,394.64c1.72-0.6,6.29-1.39,6.29-2.88C753.62,389.59,748.91,393.02,747.45,394.64z"/>
	<path d="M732.52,387.01c-2.8-2.42-7.03-3.85-5.89-1.57C728.35,386.3,732.95,387.38,732.52,387.01z"/>
	<path d="M763.33,347.52c-1.31-2.12-3.03-3.64-5.16-4.55C761.41,347.12,761.41,347.12,763.33,347.52z"/>
	<path d="M721.27,380.79c-2.8-3.7-4.22-3.11-4.04-1.62C717.87,379.61,718.17,380.02,721.27,380.79z"/>
	<path d="M767.88,350.15c0.19-0.19,1.48-1.7,2.53-3.03C767.6,347.95,765.65,349.66,767.88,350.15z"/>
	<path d="M699.02,397.88c1.1,0.73,1.53-1.67-0.61-2.33C698.07,397.28,698.19,397.2,699.02,397.88z"/>
	<path d="M756.96,359.56c-0.71-1.11-0.71-1.11-3.84-1.82C754.93,359.46,754.93,359.46,756.96,359.56z"/>
	<path d="M775.17,344.31c-0.31-0.61-1.91,0.3-1.32,0.89C774.52,345.88,775.37,344.71,775.17,344.31z"/>
	<path d="M768.89,358.14c0.81,0.2,1.31-0.4,1.92-0.81C769.29,357.03,769.29,357.03,768.89,358.14z"/>
	<path d="M746.98,336.48c-0.43-0.91-1.24-1.28-2.24-1.28C745.44,335.91,746,336.42,746.98,336.48z"/>
	<path d="M747.05,336.6c0.18-0.18-0.16-0.12-0.06-0.12C747,336.53,747.03,336.56,747.05,336.6z"/>
	<path d="M748.31,337.66c0.99-0.01-0.14-1.05-1.26-1.05C747.7,337.49,747.83,337.66,748.31,337.66z"/>
	<path d="M762.32,361.82c0,0.84,0.64,0.22,0.2-0.44C762.37,361.53,762.33,361.67,762.32,361.82z"/>
	<path d="M743.76,334c-0.3-0.15-1.75,0.18,0.35,0.18C744,334.14,743.88,334.06,743.76,334z"/>
	<path d="M752.99,357.63c0.42,0.08,0.02-0.09-0.08-0.09C752.91,357.59,752.96,357.59,752.99,357.63z"/>
	<path d="M707.31,388.07c0,0.1,0.1,0.1,0.2,0.1C707.35,388.09,707.19,387.95,707.31,388.07z"/>
	<path d="M744.51,334.53c-0.13-0.13-0.32-0.21-0.5-0.25C744.01,335.08,745.3,335.32,744.51,334.53z"/>
	<path d="M744.72,335.19c0.03-0.03,0.07-0.07,0.1-0.1C744.62,335.09,744.72,334.98,744.72,335.19z"/>
	<path d="M828.34,464.1c-2,1,2.96-2.34-10.2,10.82c-0.58,0.58-0.91,1.02-0.91,1.77C817.23,478.4,832.85,465.61,828.34,464.1z"/>
	<path d="M828.74,462.69c3.12-4.3,4.35-11.91,4.37-12.43C833.47,441.75,828.5,461.55,828.74,462.69z"/>
	<path d="M844.01,423.96c-2.87,4.44-5.44,4.39-10.62,6.98C831.55,432.79,845.9,429.63,844.01,423.96z"/>
	<path d="M822.57,442.26c2.12-2.22,5.06-3.24,7.69-5.06C825.99,437.35,822.57,437.49,822.57,442.26z"/>
	<path d="M796.38,513.81c-1.5,1.68,1.16,2.63,1.73-1.07C797.24,512.97,796.75,513.4,796.38,513.81z"/>
	<path d="M845.33,445.1c0.55-1.21-0.86-5.81-1.15-1.78C844.17,444.85,844.27,445.45,845.33,445.1z"/>
	<path d="M781.42,429.29c-2.31-1.01-2.53,2.43,1.32,1.24C782.34,429.95,781.92,429.51,781.42,429.29z"/>
	<path d="M796.49,497.37c-1.4,0.25-2.53,2-1.31,2.73C796.29,499.59,796.9,498.78,796.49,497.37z"/>
	<path d="M794.87,431.95c-0.71-0.91-1.31-1.52-2.43-0.91C793.05,432.22,793.71,432.37,794.87,431.95z"/>
	<path d="M794.45,454.34c-0.98-0.07-1.34,0.61-1.7,1.68C794.82,455.67,795.34,454.4,794.45,454.34z"/>
	<path d="M802.36,503.64c0.78-0.78,1.24-1.53,1.21-2.59C803.56,500.78,801.59,501.49,802.36,503.64z"/>
	<path d="M809.64,482c1.24,0.22,2.33-0.58,3.03-1.52C811.28,480.48,810.2,480.78,809.64,482z"/>
	<path d="M799.71,510.01c1.19-1.37,0.83-1.69,0.83-2.33C798.97,507.68,798.69,511.02,799.71,510.01z"/>
	<path d="M832.01,445.1c0.4-1.13-0.76-0.75-0.75,0.06C831.27,446.05,831.94,445.29,832.01,445.1z"/>
	<path d="M787.59,457.84c-0.77-0.39-1.19-0.15-1.52,0.61C786.83,458.65,787.41,458.61,787.59,457.84z"/>
	<path d="M805.49,482.51c-0.68-0.58-1.3-0.34-1.62,0.51C804.68,483.52,805.19,483.31,805.49,482.51z"/>
	<path d="M843.91,417.39c-0.51,0.51-0.4,1.01,0,1.42C844.52,418.4,844.32,417.9,843.91,417.39z"/>
	<path d="M805.17,498.53c0.58-0.3,0.76-0.93,0.63-1.47C805.14,497.35,805.1,497.88,805.17,498.53z"/>
	<path d="M805.17,498.53c-0.03,0.01-0.05,0.04-0.08,0.05C805.19,498.69,805.21,498.75,805.17,498.53z"/>
	<path d="M803.47,451.26c-0.02,0-0.03-0.01-0.1,0.03C803.33,451.31,803.33,451.31,803.47,451.26z"/>
	<path d="M810.03,448.63c-1.69-1.69-7.56,2.63-6.59,2.63C803.65,451.16,807.16,450.76,810.03,448.63z"/>
	<path d="M806.1,496.74c-0.13,0.01-0.2,0.18-0.2,0.42C805.89,497.07,806.51,496.74,806.1,496.74z"/>
	<path d="M805.09,498.58c-0.1,0.1-0.2,0.2-0.2,0.3C804.88,498.89,804.98,498.78,805.09,498.58z"/>
	<path d="M800.69,507.63c-0.01,0-0.03,0-0.03,0.01C800.66,507.66,800.59,507.73,800.69,507.63z"/>
	<path d="M800.94,507.38c-0.21,0.21-0.25,0.25-0.25,0.25C800.95,507.63,800.94,507.48,800.94,507.38z"/>
	<path d="M803.67,501.01c0.1-0.1,0.1-0.3,0.2-0.3C803.77,500.71,803.67,500.81,803.67,501.01z"/>
	<path d="M816.51,477.55l0.1,0.1C816.57,477.48,816.68,477.33,816.51,477.55z"/>
	<path d="M817.11,476.85c0.14-0.18,0.18-0.13-0.05-0.05C816.66,476.94,816.21,478.01,817.11,476.85z"/>
	<path d="M816.11,477.75c0.07,0,0.31-0.12,0.09-0.06C816.17,477.71,816.14,477.72,816.11,477.75z"/>
	<path d="M816.41,477.55c-0.03,0.03-0.07,0.07-0.1,0.1C816.36,477.62,816.41,477.6,816.41,477.55z"/>
	<path d="M809.43,482.3c0.1-0.1,0.2-0.2,0.1-0.3C809.53,482.1,809.43,482.2,809.43,482.3z"/>
	<path d="M717.57,457.15c-0.97,0.98-3.32,5.79-2.88,7.56C720.26,458.58,719.97,454.74,717.57,457.15z"/>
	<path d="M736.43,441.05c-0.78,0.91,0.32,1.66,0.3,2.57c0,0.02-0.2,1.87-0.2,3.09c-0.48,4.76,2.81,2.69,1.92,0.91
		C735.96,444.17,737.95,441.05,736.43,441.05z"/>
	<path d="M725.01,416.99c-3.03,2.53-4.15,4.55-3.94,6.88C727.07,417.19,725.94,417.69,725.01,416.99z"/>
	<path d="M742.7,416.99c1.79,0.85,3.04,1.71,5.06,1.92C747.05,416.78,746.14,416.38,742.7,416.99z"/>
	<path d="M703.38,458.18c4.64-4.93,0.69-6.45-1.12,1.08C702.64,458.97,703.18,458.42,703.38,458.18z"/>
	<path d="M712.67,470.47c-1.52,1.01-1.92,1.82-2.33,5.16C712.06,474.11,712.37,473.61,712.67,470.47z"/>
	<path d="M735.83,419.72c3.45-3.88,4.42-3.24,1.42-3.24C735.81,417.05,734.03,419.04,735.83,419.72z"/>
	<path d="M736.72,431.99c-1.71-0.57-0.64,2.91,0.31,4.71C737.4,435.39,737.62,432.35,736.72,431.99z"/>
	<path d="M709.64,479.47c-1.91,1.4-1.39,1.51-1.72,4.15c0.94-1.14,1.82-3.44,1.82-3.54C709.82,479.92,709.64,479.67,709.64,479.47z"
		/>
	<path d="M696.8,477.25c-2.43,1.31-2.43,1.31-2.02,3.03C695.48,479.17,696.19,478.26,696.8,477.25z"/>
	<path d="M702.16,499.19c0.91-1.21,1.72-2.12,2.53-3.13C702.86,496.26,702.76,496.36,702.16,499.19z"/>
	<path d="M729.66,474.71c-1.44,1.22-1.43,2.38-1.43,3.56C728.23,478.47,729.72,476.65,729.66,474.71z"/>
	<path d="M729.76,474.62c-0.17-0.17-0.1-0.12-0.1,0.01C729.66,474.76,729.63,474.71,729.76,474.62z"/>
	<path d="M733.8,425.78c0.1,1.31,0.1,1.31,0.81,2.43C734.81,426.59,734.81,426.59,733.8,425.78z"/>
	<path d="M698.01,470.37c-1.11,0.4-1.72,0.71-1.42,1.72C697.3,471.89,697.71,471.48,698.01,470.37z"/>
	<path d="M721.34,435.08c1.17,0.21,0.62-1.27-0.48-1.09C720.18,433.98,720.84,435.08,721.34,435.08z"/>
	<path d="M684.46,452.78c-0.05,0.54,0.73,0.96,1.62-0.81C685.1,452.06,684.53,452.07,684.46,452.78z"/>
	<path d="M699.31,465.37c-0.28-1.08-1.75,0.2-0.28,1.76C698.63,466.27,699.46,465.95,699.31,465.37z"/>
	<path d="M713.08,436.8c0.4-0.1,0.91-0.2,1.31-0.2C713.88,436.3,713.38,436.4,713.08,436.8z"/>
	<path d="M705.32,464.87c-0.29,0.29-0.38,0.49,0.07,1.04C705.39,464.65,705.68,464.51,705.32,464.87z"/>
	<path d="M713.9,466.1c-0.07,0.29,0.52,0.27,0.67-1.25C713.96,464.98,713.97,465.56,713.9,466.1z"/>
	<path d="M714.69,464.81l-0.1-0.1C714.59,464.83,714.5,464.85,714.69,464.81z"/>
	<path d="M713.45,466.92c0.39,1.18,0.33-0.42,0.33-0.8C713.64,466.42,713.34,466.6,713.45,466.92z"/>
	<path d="M728.24,478.37c-0.01-0.01,0-0.01,0-0.01C728.09,478.21,728.12,478.41,728.24,478.37z"/>
	<path d="M728.07,479.11c0.36-1.41-0.9-0.41-0.55,0.67C727.52,480.01,727.95,479.56,728.07,479.11z"/>
	<path d="M730.37,473.07c0-0.37-0.5,0.27-0.61,1.3C730.38,474.16,730.37,473.61,730.37,473.07z"/>
	<path d="M729.76,474.5c0-0.21-0.16-0.14-0.01,0.01C729.76,474.51,729.76,474.51,729.76,474.5z"/>
	<path d="M705.49,490.59c0-0.1,0.1-0.2,0-0.3C705.49,490.39,705.49,490.49,705.49,490.59z"/>
	<path d="M705.59,464.71c0.1-0.1,0.1-0.2,0.2-0.3C705.69,464.51,705.59,464.61,705.59,464.71z"/>
	<path d="M727.33,479.87c-0.02,0-0.06,0-0.08,0C726.99,479.87,726.9,480.3,727.33,479.87z"/>
	<path d="M707.82,483.52c-0.13,0.26-0.16,0.23,0.1,0.1L707.82,483.52z"/>
	<path d="M706.3,489.58c0,0.08-0.02,0.11-0.01,0.11c0.01,0.01,0.03-0.01,0.11-0.01L706.3,489.58z"/>
	<path d="M706.29,489.69c-0.44,0.04-0.59,0.27-0.7,0.7C706.06,490.39,706.26,490.13,706.29,489.69z"/>
	<path d="M692.25,447.83l0.2,0.1C692.45,447.66,692.5,447.7,692.25,447.83z"/>
	<path d="M681.55,455.69C681.52,455.81,681.54,455.9,681.55,455.69L681.55,455.69z"/>
	<path d="M681.55,455.58c0,0.04,0,0.07,0,0.11c0.01-0.06,0.04-0.13,0.08-0.18C681.59,455.51,681.57,455.54,681.55,455.58z"/>
	<path d="M755.41,446.43c0.01,0.05,0,0.1,0.01,0.15c0.14,0,0.64-0.15,0.63-1.32c0-0.29-0.42,0.04-0.59,0.59
		c-0.2,0.15-0.68,0.82-1.52,2.18c-7.9,12.75-9.98,15.73-13.25,17.19C742.65,471.1,753.94,450.33,755.41,446.43z"/>
	<path d="M734.92,477.45c0,0.34,0.33,0.18,0.23,0.18C735.1,477.59,734.95,477.49,734.92,477.45z"/>
	<path d="M732.39,488.37c-0.16,0.49-0.09,0.97,0.4,1.11C736.58,490.11,734.66,488.16,732.39,488.37z"/>
	<path d="M762.11,420.12c-0.02,0.07-0.03,0.1,0.1,0.1L762.11,420.12z"/>
	<path d="M745.54,471.47c-0.56-0.11-5.39,2.69-9.13,5.62c-1.45,1.13-1.79-0.13-0.18,1.48c7.37-4.99,9.65-6.92,9.34-7.08
		c0.35-0.01,0.68-0.11,0.98-0.29C747.56,470.6,745.99,470.82,745.54,471.47z"/>
	<path d="M747.05,470.78c-0.03,0.04-0.07,0.07-0.11,0.1C747.19,470.88,747.18,470.91,747.05,470.78z"/>
	<path d="M755.41,446.68l0.03,0.03C755.44,446.55,755.28,446.56,755.41,446.68z"/>
	<path d="M747.96,469.87h-0.2C747.88,469.99,747.83,469.99,747.96,469.87z"/>
	<path d="M747.86,469.97c-0.3,0.2-0.61,0.51-0.71,0.91C748.11,469.92,747.97,470.08,747.86,469.97z"/>
	<path d="M762.32,420.02c0,0-0.1,0.1-0.1,0.3C762.32,420.22,762.32,420.02,762.32,420.02z"/>
	<path d="M756.15,445.2l0.1-0.3C756,445.14,756.01,445.06,756.15,445.2z"/>
	<path d="M717.67,564.95c-2.01-0.3-3.8,0.31-5.29,1.47C717.65,570.18,720.58,565.39,717.67,564.95z"/>
	<path d="M639.09,564.38c2.53,1.27,18.15,2.68,17.58-2.4c-2.73-0.81-5.16-2.02-7.89-0.3C648.35,562.13,635.32,562.49,639.09,564.38z
		"/>
	<path d="M638.07,571.17c-65.87-5.91,19.42,4.98,22.84,0.61C661.11,571.52,649.01,572.15,638.07,571.17z"/>
	<path d="M661.11,571.79c1.01-0.2,2.02-0.2,3.03-0.2C663.13,571.18,662.02,571.08,661.11,571.79z"/>
	<path d="M608.73,569.56c-1.11,0-1.92,0-2.73,0C606.81,569.86,607.62,570.37,608.73,569.56z"/>
	<path d="M668.08,448.54c-7.9,19.55-3.94,37.23-3.94,30.42c0-17.7,4.55-27.15,4.55-29.22C668.92,448.75,668.08,448.44,668.08,448.54
		z"/>
	<path d="M678.39,495.35c1.76-0.98,0.33-2.34-0.81-14.16C676.05,465.2,675.36,493.83,678.39,495.35z"/>
	<path d="M685.57,483.31c-0.38,8.37-4.83,8.51-3.29,9.21C685.06,493.79,688.87,483.73,685.57,483.31z"/>
	<path d="M670.33,473.93c-0.31,1.31-0.87,11.61,0.59,12.62C670.91,477.9,671.22,470.18,670.33,473.93z"/>
	<path d="M671.92,426.59c-1.19,0.1-1.53,1.92-2.53,1.92c0,1.1-0.7,1.49-0.81,2.33C670.52,430.43,673.48,427.3,671.92,426.59z"/>
	<path d="M675.77,472.8c0.2-0.91,0.51-1.72,0-2.53C675.77,471.18,675.77,471.99,675.77,472.8z"/>
	<path d="M671.01,473.1c0.2-0.3,0.51-0.51,0.1-1.01C671.11,472.5,671.01,472.8,671.01,473.1z"/>
	<path d="M668.79,430.84c-0.02,0-0.12,0-0.2,0c-0.05,0-0.09,0-0.1,0C667.43,430.84,668.47,431.05,668.79,430.84z"/>
	<path d="M728.65,549.54c-0.11,0-0.1,0.4-0.2,0.61c0.81,1.61,11.22,0.9,13.45,0.3C746.27,549.58,738.05,546.55,728.65,549.54z"/>
	<path d="M750.49,554.7c0.4,0.1,0.51,0.2,0.61,0.2C752.49,554.9,750.59,554.71,750.49,554.7z"/>
	<path d="M786.72,404.38c-0.4-0.2-5.29,3.41-6.51,4.63C782.72,409.2,789.88,406.52,786.72,404.38z"/>
	<path d="M776.47,408.9c0-0.99-0.59-1.59-1.57-1.9C773.85,406.47,774.05,409.64,776.47,408.9z"/>
	<path d="M776.66,409.09c-0.05-0.04-0.1-0.07-0.15-0.08C776.2,408.95,776.66,409.34,776.66,409.09z"/>
	<path d="M780.11,409.2c0.1-0.1,0.1-0.2,0.1-0.3C780.21,409,780.11,409.1,780.11,409.2z"/>
	<path d="M781.32,493.02c-1.11,0.89,0.5,1.65,0.5,0.61C781.79,493.37,781.54,493.16,781.32,493.02z"/>
	<path d="M790.63,492.82c0.11-0.37-0.06-0.62-0.4-0.71C789.58,492.75,790.4,493.58,790.63,492.82z"/>
	<path d="M788.74,489.99c0.09,0.27,0.02,0.28,0.27-0.1C788.64,489.89,788.69,489.85,788.74,489.99z"/>
<path fill="#e6e6e6" d="m206.8 163.6c0-5.1 4.1-9.2 9.3-9.2s9.2 4.2 9.2 9.2-4.1 9.2-9.3 9.2-9.2-4.1-9.2-9.2zm17.3-.1c0-4.5-3.5-8.2-8.2-8.2s-8.2 3.7-8.2 8.3c0 4.5 3.5 8.2 8.2 8.2s8.2-3.7 8.2-8.3zm-13 0c0-2.8 2.1-5.1 5.1-5.1 1.9 0 2.9.6 3.9 1.5l-1.4 1.7c-.8-.7-1.5-1.1-2.5-1.1-1.7 0-2.8 1.4-2.8 3.1s1.1 3 2.8 3c1.1 0 1.7-.5 2.5-1.1l1.4 1.4c-1.1 1.1-2.1 1.7-4 1.7-2.9 0-5-2.3-5-5.1z"/><path fill="#e6e6e6" d="m226.6 154.7h3.4l4.2 13.2 4.4-13.3h2.6l4.4 13.3 4.2-13.2h3.3l-6.2 18h-2.7l-4.4-12.8-4.4 12.8h-2.7z"/><path fill="#e6e6e6" d="m252.8 165.8c0-3.9 3.1-7 7.2-7 4.2 0 7.2 3.2 7.2 7s-3.1 7-7.3 7c-4 0-7.1-3.1-7.1-7zm11.3 0c0-2.3-1.7-4.3-4.2-4.3s-4.1 2-4.1 4.3 1.7 4.3 4.1 4.3c2.7.1 4.2-1.9 4.2-4.3z"/><path fill="#e6e6e6" d="m269.5 159.1h3.1v3c.8-2 2.4-3.4 4.8-3.3v3.2h-.2c-2.7 0-4.6 1.7-4.6 5.4v5.1h-3.1z"/><path fill="#e6e6e6" d="m279.1 153.9h3.1v11.1l5.6-6h3.8l-5.4 5.5 5.5 8h-3.5l-4.1-5.8-1.9 2v3.9h-3.1z"/><path fill="#e6e6e6" d="m291.7 165.8c0-3.9 3.1-7 7.2-7 4.2 0 7.2 3.2 7.2 7s-3.1 7-7.3 7c-4 0-7.1-3.1-7.1-7zm11.3 0c0-2.3-1.7-4.3-4.2-4.3s-4.1 2-4.1 4.3 1.7 4.3 4.1 4.3c2.6.1 4.2-1.9 4.2-4.3z"/><path fill="#e6e6e6" d="m308.2 167.6v-8.6h3.1v7.6c0 2.1 1.1 3.3 2.9 3.3s3-1.3 3-3.3v-7.6h3.1v13.4h-3.1v-2.1c-.8 1.3-2.1 2.3-4.2 2.3-3.1.2-4.8-1.8-4.8-5z"/><path fill="#e6e6e6" d="m323.9 168.8v-7.1h-1.7v-2.6h1.7v-3.7h3.1v3.7h3.6v2.6h-3.6v6.6c0 1.2.6 1.7 1.7 1.7.7 0 1.3-.2 1.9-.5v2.5c-.8.5-1.7.7-2.8.7-2.3 0-3.9-.9-3.9-3.9z"/><path fill="#e6e6e6" d="m333.2 154.7h3.2v15h9.4v2.9h-12.5v-17.9z"/><path fill="#e6e6e6" d="m356 172.5v-1.7c-.9 1.1-2.3 2-4.4 2-2.6 0-4.8-1.4-4.8-4.2 0-3 2.3-4.4 5.4-4.4 1.7 0 2.6.2 3.7.5v-.2c0-1.9-1.2-2.9-3.3-2.9-1.5 0-2.6.3-3.9.8l-.8-2.5c1.5-.7 2.9-1.1 5.1-1.1 4 0 5.9 2.1 5.9 5.7v8zm.1-5.6c-.8-.3-1.9-.5-3.1-.5-2 0-3.1.8-3.1 2.1s1.1 2 2.6 2c2 0 3.5-1.1 3.5-2.9z"/><path fill="#e6e6e6" d="m364.9 170.5v2.1h-3.1v-18.7h3.1v7.4c1-1.4 2.4-2.5 4.5-2.5 3.2 0 6.3 2.5 6.3 7s-3.1 7-6.3 7c-2.1 0-3.5-1.1-4.5-2.3zm7.7-4.7c0-2.6-1.7-4.3-3.9-4.3s-3.9 1.7-3.9 4.4c0 2.6 1.8 4.3 3.9 4.3s3.9-1.7 3.9-4.4z"/><path fill="#e6e6e6" d="m376.9 170.8 1.4-2.1c1.4 1.1 3 1.7 4.4 1.7s2.1-.5 2.1-1.5-1.3-1.4-2.8-1.8c-.1 0-.2-.1-.2-.1-2-.6-4.2-1.4-4.2-4s2.1-4.1 4.8-4.1c1.7 0 3.5.6 5 1.5l-1.2 2.2c-1.3-.8-2.6-1.3-3.8-1.3s-1.9.5-1.9 1.4 1.3 1.4 2.8 1.8c.1 0 .2.1.2.1 2 .6 4.2 1.5 4.2 4 0 2.9-2.2 4.2-5 4.2-1.9 0-4-.7-5.8-2z"/><path fill="#e6e6e6" d="m505.6 163.6c0-5.1 4.1-9.2 9.3-9.2s9.2 4.2 9.2 9.2-4.1 9.2-9.3 9.2-9.2-4.1-9.2-9.2zm17.4-.1c0-4.5-3.5-8.2-8.2-8.2s-8.2 3.7-8.2 8.3c0 4.5 3.5 8.2 8.2 8.2s8.2-3.7 8.2-8.3zm-13.1 0c0-2.8 2.1-5.1 5.1-5.1 1.9 0 2.9.6 3.9 1.5l-1.4 1.7c-.8-.7-1.5-1.1-2.5-1.1-1.7 0-2.8 1.4-2.8 3.1s1.1 3 2.8 3c1.1 0 1.7-.5 2.5-1.1l1.4 1.4c-1.1 1.1-2.1 1.7-4 1.7-2.9 0-5-2.3-5-5.1z"/><path fill="#e6e6e6" d="m525.4 154.7h3.4l4.2 13.2 4.4-13.3h2.6l4.4 13.3 4.2-13.2h3.3l-6.2 18h-2.7l-4.4-12.8-4.4 12.8h-2.7z"/><path fill="#e6e6e6" d="m551.7 165.8c0-3.9 3.1-7 7.2-7 4.2 0 7.2 3.2 7.2 7s-3.1 7-7.3 7c-4.1 0-7.1-3.1-7.1-7zm11.2 0c0-2.3-1.7-4.3-4.2-4.3s-4.1 2-4.1 4.3 1.7 4.3 4.1 4.3c2.7.1 4.2-1.9 4.2-4.3z"/><path fill="#e6e6e6" d="m568.3 159.1h3.1v3c.8-2 2.4-3.4 4.8-3.3v3.2h-.2c-2.7 0-4.6 1.7-4.6 5.4v5.1h-3.1z"/><path fill="#e6e6e6" d="m577.9 153.9h3.1v11.1l5.6-6h3.8l-5.4 5.5 5.5 8h-3.5l-4.1-5.8-1.9 2v3.9h-3.1z"/><path fill="#e6e6e6" d="m590.6 165.8c0-3.9 3.1-7 7.2-7 4.2 0 7.2 3.2 7.2 7s-3.1 7-7.3 7c-4.1 0-7.1-3.1-7.1-7zm11.2 0c0-2.3-1.7-4.3-4.2-4.3s-4.1 2-4.1 4.3 1.7 4.3 4.1 4.3c2.6.1 4.2-1.9 4.2-4.3z"/><path fill="#e6e6e6" d="m607 167.6v-8.6h3.1v7.6c0 2.1 1.1 3.3 2.9 3.3s3-1.3 3-3.3v-7.6h3.1v13.4h-3.1v-2.1c-.8 1.3-2.1 2.3-4.2 2.3-3 .2-4.8-1.8-4.8-5z"/><path fill="#e6e6e6" d="m622.7 168.8v-7.1h-1.7v-2.6h1.7v-3.7h3.1v3.7h3.6v2.6h-3.6v6.6c0 1.2.6 1.7 1.7 1.7.7 0 1.3-.2 1.9-.5v2.5c-.8.5-1.7.7-2.8.7-2.3 0-3.9-.9-3.9-3.9z"/><path fill="#e6e6e6" d="m632 154.7h3.2v15h9.4v2.9h-12.6z"/><path fill="#e6e6e6" d="m654.8 172.5v-1.7c-.9 1.1-2.3 2-4.4 2-2.6 0-4.8-1.4-4.8-4.2 0-3 2.3-4.4 5.4-4.4 1.7 0 2.6.2 3.7.5v-.2c0-1.9-1.2-2.9-3.3-2.9-1.5 0-2.6.3-3.9.8l-.8-2.5c1.5-.7 2.9-1.1 5.1-1.1 4 0 5.9 2.1 5.9 5.7v8zm.1-5.6c-.8-.3-1.9-.5-3.1-.5-2 0-3.1.8-3.1 2.1s1.1 2 2.6 2c2 0 3.5-1.1 3.5-2.9z"/><path fill="#e6e6e6" d="m663.7 170.5v2.1h-3.1v-18.7h3.1v7.4c1-1.4 2.4-2.5 4.5-2.5 3.2 0 6.3 2.5 6.3 7s-3.1 7-6.3 7c-2.1 0-3.5-1.1-4.5-2.3zm7.8-4.7c0-2.6-1.7-4.3-3.9-4.3-2.1 0-3.9 1.7-3.9 4.4 0 2.6 1.8 4.3 3.9 4.3s3.9-1.7 3.9-4.4z"/><path fill="#e6e6e6" d="m675.8 170.8 1.4-2.1c1.4 1.1 3 1.7 4.4 1.7s2.1-.5 2.1-1.5-1.3-1.4-2.8-1.8c-.1 0-.2-.1-.2-.1-2-.6-4.2-1.4-4.2-4s2.1-4.1 4.8-4.1c1.7 0 3.5.6 5 1.5l-1.2 2.2c-1.3-.8-2.6-1.3-3.8-1.3s-1.9.5-1.9 1.4 1.3 1.4 2.8 1.8c.1 0 .2.1.2.1 2 .6 4.2 1.5 4.2 4 0 2.9-2.2 4.2-5 4.2-2 0-4.1-.7-5.8-2z"/><path fill="#e6e6e6" d="m61 298.6c0-5.1 4.1-9.2 9.3-9.2s9.2 4.2 9.2 9.2-4.1 9.2-9.3 9.2c-5.1 0-9.2-4.2-9.2-9.2zm17.4-.1c0-4.5-3.5-8.2-8.2-8.2s-8.2 3.7-8.2 8.3c0 4.5 3.5 8.2 8.2 8.2s8.2-3.7 8.2-8.3zm-13.1-.1c0-2.8 2.1-5.1 5.1-5.1 1.9 0 2.9.6 3.9 1.5l-1.4 1.7c-.8-.7-1.5-1.1-2.5-1.1-1.7 0-2.8 1.4-2.8 3.1s1.1 3 2.8 3c1.1 0 1.7-.5 2.5-1.1l1.4 1.4c-1.1 1.1-2.1 1.7-4 1.7-2.8.1-5-2.2-5-5.1z"/><path fill="#e6e6e6" d="m80.9 289.7h3.4l4.2 13.2 4.4-13.3h2.6l4.4 13.3 4.2-13.2h3.3l-6.2 18h-2.7l-4.4-12.8-4.4 12.8h-2.7z"/><path fill="#e6e6e6" d="m107.1 300.8c0-3.9 3.1-7 7.2-7s7.2 3.2 7.2 7-3.1 7-7.3 7c-4 0-7.1-3.1-7.1-7zm11.3 0c0-2.3-1.7-4.3-4.2-4.3s-4.1 2-4.1 4.3 1.7 4.3 4.1 4.3c2.6.1 4.2-1.9 4.2-4.3z"/><path fill="#e6e6e6" d="m123.7 294h3.1v3c.8-2 2.4-3.4 4.8-3.3v3.2h-.2c-2.7 0-4.6 1.7-4.6 5.4v5.1h-3.1z"/><path fill="#e6e6e6" d="m133.4 288.9h3.1v11.1l5.6-6h3.8l-5.4 5.5 5.5 8h-3.5l-4.1-5.8-1.9 1.9v3.9h-3.1z"/><path fill="#e6e6e6" d="m146 300.8c0-3.9 3.1-7 7.2-7s7.2 3.2 7.2 7-3.1 7-7.3 7c-4.1 0-7.1-3.1-7.1-7zm11.2 0c0-2.3-1.7-4.3-4.2-4.3s-4.1 2-4.1 4.3 1.7 4.3 4.1 4.3c2.6.1 4.2-1.9 4.2-4.3z"/><path fill="#e6e6e6" d="m162.4 302.6v-8.6h3.1v7.6c0 2.1 1.1 3.3 2.9 3.3s3-1.3 3-3.3v-7.6h3.1v13.4h-3.1v-2.1c-.8 1.3-2.1 2.3-4.2 2.3-3 .2-4.8-1.8-4.8-5z"/><path fill="#e6e6e6" d="m178.1 303.8v-7.1h-1.7v-2.7h1.7v-3.7h3.1v3.7h3.6v2.6h-3.6v6.6c0 1.2.6 1.7 1.7 1.7.7 0 1.3-.2 1.9-.5v2.5c-.8.5-1.7.7-2.8.7-2.3.1-3.9-.9-3.9-3.8z"/><path fill="#e6e6e6" d="m187.4 289.7h3.2v15h9.4v2.9h-12.5v-17.9z"/><path fill="#e6e6e6" d="m210.2 307.5v-1.7c-.9 1.1-2.3 2-4.4 2-2.6 0-4.8-1.4-4.8-4.2 0-3 2.3-4.4 5.4-4.4 1.7 0 2.6.2 3.7.5v-.2c0-1.9-1.2-2.9-3.3-2.9-1.5 0-2.6.3-3.9.8l-.8-2.5c1.5-.7 2.9-1.1 5.1-1.1 4 0 5.9 2.1 5.9 5.7v8zm.1-5.6c-.8-.3-1.9-.5-3.1-.5-2 0-3.1.8-3.1 2.1s1.1 2 2.6 2c2 0 3.5-1.1 3.5-2.9z"/><path fill="#e6e6e6" d="m219.2 305.5v2.1h-3.1v-18.7h3.1v7.4c1-1.4 2.4-2.5 4.5-2.5 3.2 0 6.3 2.5 6.3 7s-3.1 7-6.3 7c-2.2 0-3.6-1.1-4.5-2.3zm7.7-4.7c0-2.6-1.7-4.3-3.9-4.3s-3.9 1.7-3.9 4.4c0 2.6 1.8 4.3 3.9 4.3s3.9-1.7 3.9-4.4z"/><path fill="#e6e6e6" d="m231.2 305.8 1.4-2.1c1.4 1.1 3 1.7 4.4 1.7s2.1-.5 2.1-1.5-1.3-1.4-2.8-1.8c-.1 0-.2-.1-.2-.1-2-.6-4.2-1.4-4.2-4s2.1-4.1 4.8-4.1c1.7 0 3.5.6 5 1.5l-1.2 2.2c-1.3-.8-2.6-1.3-3.8-1.3s-1.9.5-1.9 1.4 1.3 1.4 2.8 1.8c.1 0 .2.1.2.1 2 .6 4.2 1.5 4.2 4 0 2.9-2.2 4.2-5 4.2-2 0-4.1-.7-5.8-2z"/><path fill="#e6e6e6" d="m360.6 298.6c0-5.1 4.1-9.2 9.3-9.2s9.2 4.2 9.2 9.2-4.1 9.2-9.3 9.2-9.2-4.2-9.2-9.2zm17.4-.1c0-4.5-3.5-8.2-8.2-8.2s-8.2 3.7-8.2 8.3c0 4.5 3.5 8.2 8.2 8.2s8.2-3.7 8.2-8.3zm-13.1-.1c0-2.8 2.1-5.1 5.1-5.1 1.9 0 2.9.6 3.9 1.5l-1.4 1.7c-.8-.7-1.5-1.1-2.5-1.1-1.7 0-2.8 1.4-2.8 3.1s1.1 3 2.8 3c1.1 0 1.7-.5 2.5-1.1l1.4 1.4c-1.1 1.1-2.1 1.7-4 1.7-2.8.1-5-2.2-5-5.1z"/><path fill="#e6e6e6" d="m380.5 289.7h3.4l4.2 13.2 4.4-13.3h2.6l4.4 13.3 4.2-13.2h3.3l-6.2 18h-2.7l-4.4-12.8-4.4 12.8h-2.7z"/><path fill="#e6e6e6" d="m406.7 300.8c0-3.9 3.1-7 7.2-7 4.2 0 7.2 3.2 7.2 7s-3.1 7-7.3 7c-4.1 0-7.1-3.1-7.1-7zm11.3 0c0-2.3-1.7-4.3-4.2-4.3s-4.1 2-4.1 4.3 1.7 4.3 4.1 4.3c2.7.1 4.2-1.9 4.2-4.3z"/><path fill="#e6e6e6" d="m423.3 294h3.1v3c.8-2 2.4-3.4 4.8-3.3v3.2h-.2c-2.7 0-4.6 1.7-4.6 5.4v5.1h-3.1z"/><path fill="#e6e6e6" d="m433 288.9h3.1v11.1l5.6-6h3.8l-5.4 5.5 5.5 8h-3.5l-4.1-5.8-1.9 2v3.9h-3.1z"/><path fill="#e6e6e6" d="m445.6 300.8c0-3.9 3.1-7 7.2-7 4.2 0 7.2 3.2 7.2 7s-3.1 7-7.3 7c-4.1 0-7.1-3.1-7.1-7zm11.3 0c0-2.3-1.7-4.3-4.2-4.3s-4.1 2-4.1 4.3 1.7 4.3 4.1 4.3c2.6.1 4.2-1.9 4.2-4.3z"/><path fill="#e6e6e6" d="m462.1 302.6v-8.6h3.1v7.6c0 2.1 1.1 3.3 2.9 3.3s3-1.3 3-3.3v-7.6h3.1v13.4h-3.1v-2.1c-.8 1.3-2.1 2.3-4.2 2.3-3.1.2-4.8-1.8-4.8-5z"/><path fill="#e6e6e6" d="m477.8 303.8v-7.1h-1.8v-2.7h1.7v-3.7h3.1v3.7h3.6v2.6h-3.6v6.6c0 1.2.6 1.7 1.7 1.7.7 0 1.3-.2 1.9-.5v2.5c-.8.5-1.7.7-2.8.7-2.2.1-3.8-.9-3.8-3.8z"/><path fill="#e6e6e6" d="m487.1 289.7h3.2v15h9.4v2.9h-12.5v-17.9z"/><path fill="#e6e6e6" d="m509.9 307.5v-1.7c-.9 1.1-2.3 2-4.4 2-2.6 0-4.8-1.4-4.8-4.2 0-3 2.3-4.4 5.4-4.4 1.7 0 2.6.2 3.7.5v-.2c0-1.9-1.2-2.9-3.3-2.9-1.5 0-2.6.3-3.9.8l-.8-2.5c1.5-.7 2.9-1.1 5.1-1.1 4 0 5.9 2.1 5.9 5.7v8zm.1-5.6c-.8-.3-1.9-.5-3.1-.5-2 0-3.1.8-3.1 2.1s1.1 2 2.6 2c2 0 3.5-1.1 3.5-2.9z"/><path fill="#e6e6e6" d="m518.8 305.5v2.1h-3.1v-18.7h3.1v7.4c1-1.4 2.4-2.5 4.5-2.5 3.2 0 6.3 2.5 6.3 7s-3.1 7-6.3 7c-2.2 0-3.5-1.1-4.5-2.3zm7.7-4.7c0-2.6-1.7-4.3-3.9-4.3s-3.9 1.7-3.9 4.4c0 2.6 1.8 4.3 3.9 4.3s3.9-1.7 3.9-4.4z"/><path fill="#e6e6e6" d="m530.8 305.8 1.4-2.1c1.4 1.1 3 1.7 4.4 1.7s2.1-.5 2.1-1.5-1.3-1.4-2.8-1.8c-.1 0-.2-.1-.2-.1-2-.6-4.2-1.4-4.2-4s2.1-4.1 4.8-4.1c1.7 0 3.5.6 5 1.5l-1.2 2.2c-1.3-.8-2.6-1.3-3.8-1.3s-1.9.5-1.9 1.4 1.3 1.4 2.8 1.8c.1 0 .2.1.2.1 2 .6 4.2 1.5 4.2 4 0 2.9-2.2 4.2-5 4.2-1.9 0-4.1-.7-5.8-2z"/><path fill="#e6e6e6" d="m659.5 298.6c0-5.1 4.1-9.2 9.3-9.2s9.2 4.2 9.2 9.2-4.1 9.2-9.3 9.2-9.2-4.2-9.2-9.2zm17.3-.1c0-4.5-3.5-8.2-8.2-8.2s-8.2 3.7-8.2 8.3c0 4.5 3.5 8.2 8.2 8.2 4.8 0 8.2-3.7 8.2-8.3zm-13-.1c0-2.8 2.1-5.1 5.1-5.1 1.9 0 2.9.6 3.9 1.5l-1.4 1.7c-.8-.7-1.5-1.1-2.5-1.1-1.7 0-2.8 1.4-2.8 3.1s1.1 3 2.8 3c1.1 0 1.7-.5 2.5-1.1l1.4 1.4c-1.1 1.1-2.1 1.7-4 1.7-2.9.1-5-2.2-5-5.1z"/><path fill="#e6e6e6" d="m679.3 289.7h3.4l4.2 13.2 4.4-13.3h2.6l4.4 13.3 4.2-13.2h3.3l-6.2 18h-2.6l-4.4-12.8-4.4 12.8h-2.7z"/><path fill="#e6e6e6" d="m705.5 300.8c0-3.9 3.1-7 7.2-7 4.2 0 7.2 3.2 7.2 7s-3.1 7-7.3 7c-4 0-7.1-3.1-7.1-7zm11.3 0c0-2.3-1.7-4.3-4.2-4.3s-4.1 2-4.1 4.3 1.7 4.3 4.1 4.3c2.7.1 4.2-1.9 4.2-4.3z"/><path fill="#e6e6e6" d="m722.1 294h3.1v3c.8-2 2.4-3.4 4.8-3.3v3.2h-.2c-2.7 0-4.6 1.7-4.6 5.4v5.1h-3.1z"/><path fill="#e6e6e6" d="m731.8 288.9h3.1v11.1l5.6-6h3.8l-5.4 5.5 5.5 8h-3.5l-4.1-5.8-1.9 2v3.9h-3.1z"/><path fill="#e6e6e6" d="m744.4 300.8c0-3.9 3.1-7 7.2-7 4.2 0 7.2 3.2 7.2 7s-3.1 7-7.3 7c-4.1 0-7.1-3.1-7.1-7zm11.3 0c0-2.3-1.7-4.3-4.2-4.3s-4.1 2-4.1 4.3 1.7 4.3 4.1 4.3c2.6.1 4.2-1.9 4.2-4.3z"/><path fill="#e6e6e6" d="m760.9 302.6v-8.6h3.1v7.6c0 2.1 1.1 3.3 2.9 3.3s3-1.3 3-3.3v-7.6h3.1v13.4h-3.1v-2.1c-.8 1.3-2.1 2.3-4.2 2.3-3.1.2-4.8-1.8-4.8-5z"/><path fill="#e6e6e6" d="m776.6 303.8v-7.1h-1.7v-2.7h1.7v-3.7h3.1v3.7h3.6v2.6h-3.6v6.6c0 1.2.6 1.7 1.7 1.7.7 0 1.3-.2 1.9-.5v2.5c-.8.5-1.7.7-2.8.7-2.3.1-3.9-.9-3.9-3.8z"/><path fill="#e6e6e6" d="m785.9 289.7h3.2v15h9.4v2.9h-12.5v-17.9z"/><path fill="#e6e6e6" d="m808.7 307.5v-1.7c-.9 1.1-2.3 2-4.4 2-2.6 0-4.8-1.4-4.8-4.2 0-3 2.3-4.4 5.4-4.4 1.7 0 2.6.2 3.7.5v-.2c0-1.9-1.2-2.9-3.3-2.9-1.5 0-2.6.3-3.9.8l-.8-2.5c1.5-.7 2.9-1.1 5.1-1.1 4 0 5.9 2.1 5.9 5.7v8zm.1-5.6c-.8-.3-1.9-.5-3.1-.5-2 0-3.1.8-3.1 2.1s1.1 2 2.6 2c2 0 3.5-1.1 3.5-2.9z"/><path fill="#e6e6e6" d="m817.6 305.5v2.1h-3.1v-18.7h3.1v7.4c1-1.4 2.4-2.5 4.5-2.5 3.2 0 6.3 2.5 6.3 7s-3.1 7-6.3 7c-2.1 0-3.5-1.1-4.5-2.3zm7.7-4.7c0-2.6-1.7-4.3-3.9-4.3-2.1 0-3.9 1.7-3.9 4.4 0 2.6 1.8 4.3 3.9 4.3 2.2 0 3.9-1.7 3.9-4.4z"/><path fill="#e6e6e6" d="m829.6 305.8 1.4-2.1c1.4 1.1 3 1.7 4.4 1.7s2.1-.5 2.1-1.5-1.3-1.4-2.8-1.8c-.1 0-.2-.1-.2-.1-2-.6-4.2-1.4-4.2-4s2.1-4.1 4.8-4.1c1.7 0 3.5.6 5 1.5l-1.2 2.2c-1.3-.8-2.6-1.3-3.8-1.3s-1.9.5-1.9 1.4 1.3 1.4 2.8 1.8c.1 0 .2.1.2.1 2 .6 4.2 1.5 4.2 4 0 2.9-2.2 4.2-5 4.2-1.9 0-4-.7-5.8-2z"/><path fill="#e6e6e6" d="m206.3 434.2c0-5.1 4.1-9.2 9.3-9.2s9.2 4.2 9.2 9.2-4.1 9.2-9.3 9.2-9.2-4.1-9.2-9.2zm17.4-.1c0-4.5-3.5-8.2-8.2-8.2s-8.2 3.7-8.2 8.3c0 4.5 3.5 8.2 8.2 8.2s8.2-3.7 8.2-8.3zm-13.1-.1c0-2.8 2.1-5.1 5.1-5.1 1.9 0 2.9.6 3.9 1.5l-1.4 1.7c-.8-.7-1.5-1.1-2.5-1.1-1.7 0-2.8 1.4-2.8 3.1s1.1 3 2.8 3c1.1 0 1.7-.5 2.5-1.1l1.4 1.4c-1.1 1.1-2.1 1.7-4 1.7-2.9.1-5-2.2-5-5.1z"/><path fill="#e6e6e6" d="m226.1 425.3h3.4l4.2 13.2 4.4-13.3h2.6l4.4 13.3 4.2-13.2h3.3l-6.2 18h-2.7l-4.4-12.8-4.4 12.8h-2.7z"/><path fill="#e6e6e6" d="m252.4 436.4c0-3.9 3.1-7 7.2-7 4.2 0 7.2 3.2 7.2 7s-3.1 7-7.3 7c-4.1 0-7.1-3.1-7.1-7zm11.2 0c0-2.3-1.7-4.3-4.2-4.3s-4.1 2-4.1 4.3 1.7 4.3 4.1 4.3c2.7.1 4.2-1.9 4.2-4.3z"/><path fill="#e6e6e6" d="m269 429.7h3.1v3c.8-2 2.4-3.4 4.8-3.3v3.2h-.2c-2.7 0-4.6 1.7-4.6 5.4v5.1h-3.1z"/><path fill="#e6e6e6" d="m278.6 424.5h3.1v11.1l5.6-6h3.8l-5.4 5.5 5.5 8h-3.5l-4.1-5.8-1.9 2v3.9h-3.1z"/><path fill="#e6e6e6" d="m291.3 436.4c0-3.9 3.1-7 7.2-7 4.2 0 7.2 3.2 7.2 7s-3.1 7-7.3 7c-4.1 0-7.1-3.1-7.1-7zm11.2 0c0-2.3-1.7-4.3-4.2-4.3s-4.1 2-4.1 4.3 1.7 4.3 4.1 4.3c2.6.1 4.2-1.9 4.2-4.3z"/><path fill="#e6e6e6" d="m307.7 438.2v-8.6h3.1v7.6c0 2.1 1.1 3.3 2.9 3.3s3-1.3 3-3.3v-7.6h3.1v13.4h-3.1v-2.1c-.8 1.3-2.1 2.3-4.2 2.3-3 .2-4.8-1.8-4.8-5z"/><path fill="#e6e6e6" d="m323.4 439.4v-7.1h-1.7v-2.6h1.7v-3.7h3.1v3.7h3.6v2.6h-3.6v6.6c0 1.2.6 1.7 1.7 1.7.7 0 1.3-.2 1.9-.5v2.5c-.8.5-1.7.7-2.8.7-2.3 0-3.9-.9-3.9-3.9z"/><path fill="#e6e6e6" d="m332.7 425.3h3.2v15h9.4v2.9h-12.5v-17.9z"/><path fill="#e6e6e6" d="m355.5 443.1v-1.7c-.9 1.1-2.3 2-4.4 2-2.6 0-4.8-1.4-4.8-4.2 0-3 2.3-4.4 5.4-4.4 1.7 0 2.6.2 3.7.5v-.2c0-1.9-1.2-2.9-3.3-2.9-1.5 0-2.6.3-3.9.8l-.8-2.5c1.5-.7 2.9-1.1 5.1-1.1 4 0 5.9 2.1 5.9 5.7v8zm.1-5.6c-.8-.3-1.9-.5-3.1-.5-2 0-3.1.8-3.1 2.1s1.1 2 2.6 2c2 0 3.5-1.1 3.5-2.9z"/><path fill="#e6e6e6" d="m364.4 441.1v2.1h-3.1v-18.7h3.1v7.4c1-1.4 2.4-2.5 4.5-2.5 3.2 0 6.3 2.5 6.3 7s-3.1 7-6.3 7c-2.1 0-3.5-1.1-4.5-2.3zm7.7-4.7c0-2.6-1.7-4.3-3.9-4.3-2.1 0-3.9 1.7-3.9 4.4 0 2.6 1.8 4.3 3.9 4.3 2.2 0 3.9-1.7 3.9-4.4z"/><path fill="#e6e6e6" d="m376.5 441.4 1.4-2.1c1.4 1.1 3 1.7 4.4 1.7s2.1-.5 2.1-1.5-1.3-1.4-2.8-1.8c-.1 0-.2-.1-.2-.1-2-.6-4.2-1.4-4.2-4s2.1-4.1 4.8-4.1c1.7 0 3.5.6 5 1.5l-1.2 2.2c-1.3-.8-2.6-1.3-3.8-1.3s-1.9.5-1.9 1.4 1.3 1.4 2.8 1.8c.1 0 .2.1.2.1 2 .6 4.2 1.5 4.2 4 0 2.9-2.2 4.2-5 4.2-2 0-4.1-.7-5.8-2z"/><path fill="#e6e6e6" d="m505.1 434.2c0-5.1 4.1-9.2 9.3-9.2s9.2 4.2 9.2 9.2-4.1 9.2-9.3 9.2-9.2-4.1-9.2-9.2zm17.4-.1c0-4.5-3.5-8.2-8.2-8.2s-8.2 3.7-8.2 8.3c0 4.5 3.5 8.2 8.2 8.2s8.2-3.7 8.2-8.3zm-13.1-.1c0-2.8 2.1-5.1 5.1-5.1 1.9 0 2.9.6 3.9 1.5l-1.4 1.7c-.8-.7-1.5-1.1-2.5-1.1-1.7 0-2.8 1.4-2.8 3.1s1.1 3 2.8 3c1.1 0 1.7-.5 2.5-1.1l1.4 1.4c-1.1 1.1-2.1 1.7-4 1.7-2.9.1-5-2.2-5-5.1z"/><path fill="#e6e6e6" d="m525 425.3h3.4l4.2 13.2 4.4-13.3h2.6l4.4 13.3 4.2-13.2h3.3l-6.2 18h-2.7l-4.4-12.8-4.4 12.8h-2.7z"/><path fill="#e6e6e6" d="m551.2 436.4c0-3.9 3.1-7 7.2-7 4.2 0 7.2 3.2 7.2 7s-3.1 7-7.3 7c-4.1 0-7.1-3.1-7.1-7zm11.2 0c0-2.3-1.7-4.3-4.2-4.3s-4.1 2-4.1 4.3 1.7 4.3 4.1 4.3c2.7.1 4.2-1.9 4.2-4.3z"/><path fill="#e6e6e6" d="m567.8 429.7h3.1v3c.8-2 2.4-3.4 4.8-3.3v3.2h-.2c-2.7 0-4.6 1.7-4.6 5.4v5.1h-3.1z"/><path fill="#e6e6e6" d="m577.5 424.5h3.1v11.1l5.6-6h3.8l-5.4 5.5 5.5 8h-3.5l-4.1-5.8-1.9 2v3.9h-3.1z"/><path fill="#e6e6e6" d="m590.1 436.4c0-3.9 3.1-7 7.2-7 4.2 0 7.2 3.2 7.2 7s-3.1 7-7.3 7c-4.1 0-7.1-3.1-7.1-7zm11.2 0c0-2.3-1.7-4.3-4.2-4.3s-4.1 2-4.1 4.3 1.7 4.3 4.1 4.3c2.6.1 4.2-1.9 4.2-4.3z"/><path fill="#e6e6e6" d="m606.5 438.2v-8.6h3.1v7.6c0 2.1 1.1 3.3 2.9 3.3s3-1.3 3-3.3v-7.6h3.1v13.4h-3.1v-2.1c-.8 1.3-2.1 2.3-4.2 2.3-3 .2-4.8-1.8-4.8-5z"/><path fill="#e6e6e6" d="m622.2 439.4v-7.1h-1.7v-2.6h1.7v-3.7h3.1v3.7h3.6v2.6h-3.6v6.6c0 1.2.6 1.7 1.7 1.7.7 0 1.3-.2 1.9-.5v2.5c-.8.5-1.7.7-2.8.7-2.3 0-3.9-.9-3.9-3.9z"/><path fill="#e6e6e6" d="m631.5 425.3h3.2v15h9.4v2.9h-12.5v-17.9z"/><path fill="#e6e6e6" d="m654.3 443.1v-1.7c-.9 1.1-2.3 2-4.4 2-2.6 0-4.8-1.4-4.8-4.2 0-3 2.3-4.4 5.4-4.4 1.7 0 2.6.2 3.7.5v-.2c0-1.9-1.2-2.9-3.3-2.9-1.5 0-2.6.3-3.9.8l-.8-2.5c1.5-.7 2.9-1.1 5.1-1.1 4 0 5.9 2.1 5.9 5.7v8zm.1-5.6c-.8-.3-1.9-.5-3.1-.5-2 0-3.1.8-3.1 2.1s1.1 2 2.6 2c2 0 3.5-1.1 3.5-2.9z"/><path fill="#e6e6e6" d="m663.3 441.1v2.1h-3.1v-18.7h3.1v7.4c1-1.4 2.4-2.5 4.5-2.5 3.2 0 6.3 2.5 6.3 7s-3.1 7-6.3 7c-2.2 0-3.6-1.1-4.5-2.3zm7.7-4.7c0-2.6-1.7-4.3-3.9-4.3s-3.9 1.7-3.9 4.4c0 2.6 1.8 4.3 3.9 4.3s3.9-1.7 3.9-4.4z"/><path fill="#e6e6e6" d="m675.3 441.4 1.4-2.1c1.4 1.1 3 1.7 4.4 1.7s2.1-.5 2.1-1.5-1.3-1.4-2.8-1.8c-.1 0-.2-.1-.2-.1-2-.6-4.2-1.4-4.2-4s2.1-4.1 4.8-4.1c1.7 0 3.5.6 5 1.5l-1.2 2.2c-1.3-.8-2.6-1.3-3.8-1.3s-1.9.5-1.9 1.4 1.3 1.4 2.8 1.8c.1 0 .2.1.2.1 2 .6 4.2 1.5 4.2 4 0 2.9-2.2 4.2-5 4.2-2 0-4.1-.7-5.8-2z"/></g>
</svg>
