<?xml version="1.0" encoding="utf-8"?>
<!-- Generator: Adobe Illustrator 23.0.1, SVG Export Plug-In . SVG Version: 6.00 Build 0)  -->
<svg version="1.2" baseProfile="tiny" id="Layer_1" xmlns="http://www.w3.org/2000/svg" xmlns:xlink="http://www.w3.org/1999/xlink"
	 x="0px" y="0px" viewBox="0 0 900 600" xml:space="preserve">
<g>
	<path d="M487.62,238.02c-1.12-6.5-2.13-13.21-6.3-18.49c-20.38-25.83-27.08-30.7-51.8-31.18c-8.69-0.17-12.22,1.13-16.25,3.15
		c-16.68,11.45-17.27,10.16-26.31,28.24c-3.7,7.41-1.99,6.68-4.57,29.15c-4.47,1.02-5.18,0.71-6.7-2.54
		c-2.03-1.02-4.47-0.1-7.11-0.81c2.34-2.44,5.79-2.54,7.41-5.79c-2.03,0.61-3.55,1.22-5.28,1.73c-3.9-1.92-22.19-11.07-26.41-10.36
		c-8.87,1.49-11.57-0.78-14.73,1.32c-1.42-1.93-3.86,0-4.98-1.52c-1.42,0.51-1.32,1.42-1.02,2.34c-1.63,0.2-2.95-2.03-4.57-0.1
		c0.2,2.03,2.44,2.13,3.56,3.25c-4.2,5.6-10.07,5.34-10.46,12.39c-0.13,2.44-0.2,4.98-1.32,7.72
		c-45.61,4.67-91.31,9.34-137.43,14.12c-3.25-24.04-11.64-43.59-31.49-57.69c-10.8-7.67-11.27-10.52-25.49-10.26
		c-36.81,0.68-50.4,32.39-54.04,68.76c-2.34,0.71-5.35-0.8-6.4,2.44c-4.12,12.76,29.5,5.22-46.82,14.02
		c-12.81,1.48-12.84,22.32,4.57,20.21c13.3-1.61,46-5.59,52.61-6.2c-0.2,3.25,1.47,5.89,1.42,8.94c-0.02,1.02,0,2.13,0.71,2.95
		c5.38,5.38-3.24,3.34,19.91,36.26c8.68,12.35,27.59,18.78,37.58,16.56c5.29-1.18,10.87-1.02,16.05-3.86
		c4.13,6.31,21.86,32.32,18.89,36.77c0.51,0.91,1.22,0.91,1.93,0.71c4.47-1.02,8.84-0.08,13.31,0.41
		c3.33,0.36,17.01,12.95,20.52,17.57c4.92,6.49,5.54,17.75,3.66,20.62c-3.59,5.46-5.6,11.68-7.92,17.78
		c-2.86,7.51-2.39,15.52,0.2,23.16c3.87,11.39,6.26,39.41,13.2,59.62c-2.74,0.1-3.33,2.03-3.45,3.96
		c-0.34,5.39-2.49,10.36-2.84,15.74c-0.23,3.55-9.03,16.08,6.4,17.17c13.69,0.96,9.95,9.38,26.81,14.32
		c9.75,2.85,14.07,4.48,26.82-0.71c4.8-1.96,13.31-4.08,8.43-13c-4.38-8.01-8.77-3.65-19.4-14.93c-3.14-3.33-7.77-6.5-10.97-14.63
		c-2.76-7.01-3.06-8.92-6.7-8.74c-14.45,0.72-12.81,9.29-22.45,4.98c-2.32-16.13-7.73-29.57-9.75-49.77
		c-0.88-8.75-7.49-24.13-4.67-35.85c1.72-7.17,1.37-2.78,8.43-17.47c3.12-6.49-0.16-8.48,0.2-10.46c1.55-8.47-5.59-14.94,2.74-6.6
		c-1.52,3.05,0.3,5.48,1.32,8.13c1.12-9.51,0.72-6.97-7.21-17.27c-0.62-0.8-1.52,0.4-2.13-0.3c-4.02-4.61-8.13-9.14-13.41-12.8
		c37.42-7.56,30.05-1.5,48.25-10.77c4.67,5.89,6.91,12.29,4.16,19.6c-0.61,0.3-1.22-0.81-2.03,0.41c2.84,3.66,4.77,8.02,5.48,12.9
		c3.15-4.73-1.65-6.64-0.3-12.7c0.87-3.95,1.12-7.92-0.2-12.09c1.83,1.32,3.65,1.01,5.48,0.51c2.64-0.72,5.29-0.04,7.82-0.41
		c1.22-0.18,1.94,0.6,2.64,1.42c19.73,23.11,19.41,7.04,14.52,40.32c-4.54,30.93,5.15,22.63,7.72,65.21
		c0.15,2.53-0.4,10.24-0.41,10.26c-3.56,3.55-1.13,8.52-3.35,12.49c-2.15,3.85-2.45,8.43-3.55,12.8c-1.99,7.87-8.74,4.64,6.81,11.99
		c13.38,6.32,15.9-1.08,25.7,3.45c17.63,8.16,22.89,11.41,34.33,5.69c3.05-1.52,6.3-2.95,8.63-6.81
		c-17.05,8.77-14.92,9.92-39.11,0.61c-5.27-2.03-4.26-4.8-14.42-3.56c-8.03,0.99-15.03-0.91-21.63-5.79
		c3.05-8.13,4.47-16.66,7.41-24.58c3.04,11.35,10.56,7.29,20.21,2.23c4.27,2.03,8.33-1.22,12.9-0.2c-3.55,1.83-7.72,0.3-11.07,3.66
		c4.67,1.32,8.74-0.51,12.8-0.51c0.91,0.41,1.32,1.32,2.03,2.13c-3.45,1.83-7.41,0.51-10.77,2.44c2.95,1.12,5.08,4.06,8.84,2.34
		c2.34,7.31,7.52,4.06,12.09,3.55c5.57,5.34,12.03,2.8,15.13,10.16c1.06,2.52,3.76,3.76,4.47,6.5c0.61-0.3,0.91-0.51,0.91-0.51
		c-0.91-7.41-0.2-12.01-9.24-13.92c-7.31-1.54-12.35-6.65-17.88-10.87c-1.61-1.23-2.89-2.84-2.84-5.18
		c0.05-2.3-5.11-5.69-5.69-10.26c-0.09-0.71-1.12-1.12-2.13-1.32c-1.02,0.81-2.13,1.83-3.66,1.83c-3.74-2.76-3.06-20.89-2.34-25.49
		c1.48-9.42,4.7-17.9,8.13-50.99c1.1-10.64-2.86-16.49-0.3-22.55c8.05-19.04-5.56-25.85-12.49-43.57
		c-8.63-22.06-12.7-20.08-16.25-26.81c8.43-0.91,16.46-3.75,24.78-4.98c9.63-1.42,10.26-6.16,26-20.11
		c1.83-1.62,2.62-3.98,4.16-5.79c0.7-0.82,0.51-1.83-0.61-2.64c3.05-0.51,5.09,1,7.31,2.13c6.81,3.46,14.07,2.89,14.52-0.91
		c0.83-6.99,6.81-6.23,6.81-14.83c7.31-0.1,4.06-5.89,5.18-9.65c7.52-1.73,15.64,0.41,22.96-3.35c5.37,7.7,17.9,28.54,36.06,30.27
		c38.26,3.63,59.58-26.04,60.74-62.37c2.83-0.98,8.79-0.57,7.92-7.72C496.04,240.56,492.49,237.92,487.62,238.02z M221.7,544.06
		c3.35-2.34,7.72-0.51,10.77-3.66c1.02,3.05,0.71,6.2,2.13,9.45C212.26,553.57,223.09,552.75,221.7,544.06z M237.65,554.52
		c-4.27,2.13-9.14,2.64-13.81,4.67c1.63,1.63,3.76,1.42,4.37,3.05c5.28-0.3,9.95-3.15,15.13-2.03c-3.55,2.34-8.13,2.13-11.48,4.88
		c2.7,4.05,13.57-4.46,15.13-0.3c-11.73,1.58-12.15,5.46-8.23,4.57c8.05-1.82,9.94-4.68,11.58-1.73c-1.52,1.32-3.86,0.61-5.28,2.03
		c2.13,1.93,2.64,1.93,7.41-1.32c7.24,6.2,14.01,3.53,14.32,11.78c0.1,2.64-1.93,4.68-4.67,5.69c-15.71,5.79-14.86,5.14-29.56,1.42
		c-14.78-3.74-11.56-12.9-24.89-14.22c-6.97-0.69-10.43-2.51-7.21-8.94c2.68-5.35,1.14-9.25,2.64-11.58c1.1,0.88-1.14,4.7,2.23-0.61
		c5.04,3.53,8.69-1.26,14.52,3.35C217.04,559.48,228.94,555.87,237.65,554.52z M219.06,544.87c2.32,9.26-4.7,5.24-8.53,6.09
		c-2.84,0.63-3.86-0.51-4.16-4.37C210.63,546.29,215.1,548.73,219.06,544.87z M204.64,543.65c-0.2-0.71,0.2-1.22,0.71-1.73
		C206.06,543.15,206.06,543.15,204.64,543.65z M319.52,534.41c-0.41,0.51-1.02,0.2-1.63,0.2
		C318.4,534.21,318.91,533.7,319.52,534.41z M383.51,258.44c-0.41-1.12-1.12-1.12-2.34-0.51c0.39-2.74-1.18-6.49,3.86-5.89
		c3.75,0.44,2,0.08,19.91-1.32c5.04,5.69,4.93,3.03,6.91,1.93c1.52,1.02,3.13,1.99,5.08,1.22c2.42-0.96,0.51-3.66,2.03-5.28
		c2.54,0.61,5.69-1.53,7.92,1.73c1.53,2.23,0.41,4.06-0.71,6.09C348.45,265.95,381.57,261.45,383.51,258.44z M409.31,243.1
		c0.41,0.51,2,0.51,0.83,1.8c0.19,0.06,1.85,4.38-0.53,7.55c-2.84-1.52-3.25-3.66-2.23-6.3c-2.74,1.42-3.05-3.05-5.59-1.63
		c1.22-0.81,2.23-1.73,3.55-2.03C412.94,246.29,409.08,244.87,409.31,243.1z M402.4,246.25c0.3,1.02,0.41,1.83-0.3,2.64
		c-2.44,0.2-5.18,0.61-7.52-1.42C397.32,246.76,400.06,247.37,402.4,246.25z M412.25,251.53c0-2.23,0.2-4.27-0.3-6.81
		C417.5,247.68,418.85,255.3,412.25,251.53z M415.81,244.73c0.81,0.61,2.54,0.71,2.23,2.74
		C416.92,246.66,416.21,245.84,415.81,244.73z M369.29,255.29c0.81-0.61,1.52-1.22,2.95-1.32
		C371.32,254.99,370.71,255.9,369.29,255.29z M371.42,259.56c-0.91,0.51-1.63,0.91-2.64,0.51
		C369.49,259.15,370.3,259.15,371.42,259.56z M371.62,249.7c-1.22,0.41-2.44,0.91-4.16-0.2C369.29,249.1,370.51,249.2,371.62,249.7z
		 M366.34,258.13c0.3,0.81,0.61,1.42-0.2,2.13C360.78,260.57,358.14,258.57,366.34,258.13z M358.72,256.81
		c-1.12,1.12-2.23,0.91-4.16,0.71C356.29,256.81,357.3,256.21,358.72,256.81z M353.14,257.53c-0.3,0.61-0.71,0.71-1.52,0.71
		C352.02,257.12,352.53,257.22,353.14,257.53z M350.19,258.34c-0.3,0.51-0.71,0.81-1.63,0.61
		C349.07,258.54,349.38,257.83,350.19,258.34z M346.03,234.77c0.71-0.1,1.42-0.41,2.23,0.2
		C347.45,235.48,346.74,234.77,346.03,234.77c-1.12-0.81-2.54,0.2-4.06-0.41C343.79,233.05,344.91,233.76,346.03,234.77z
		 M339.32,260.47c-0.61,0.1-1.32,0.61-1.63-0.51C338.31,259.86,338.92,259.86,339.32,260.47z M337.5,242.39
		c-0.71,0.51-1.12,1.22-1.93,0.71C335.87,242.29,336.38,242.19,337.5,242.39z M333.23,273.07c-0.41,0.81-0.61,1.93-1.93,2.34
		C331.71,274.28,331.4,272.96,333.23,273.07z M329.88,273.98c-1.32-0.61-1.42-1.42-2.13-2.54
		C329.07,272.05,329.27,272.86,329.88,273.98z M327.03,274.39c-0.61-0.2-0.81-0.81-0.91-1.42
		C326.83,273.17,327.03,273.78,327.03,274.39z M323.78,276.11c0.1-0.91,0.1-1.83,0.3-3.35C324.8,274.78,327.78,277.45,323.78,276.11
		z M319.31,275.81c0.91,0,1.32-1.32,2.23-1.32c0.51,1.93-0.2,3.35-1.32,4.16c0.91,2.03,1.32,4.16,3.35,4.88
		c-0.1,1.02-0.41,1.63-1.32,1.83c-1.32-2.13-3.46-3.75-4.37-6.3c-1.44-4.06,2.44-9.14,7.31-8.84
		C319.82,273.27,319.82,273.27,319.31,275.81z M323.88,265.85c0.51,0.41,1.02,0.71,0.51,1.42
		C323.38,267.07,323.68,266.46,323.88,265.85z M324.9,256c-0.71,1.02-1.63,0.91-3.25,0.81C323.07,255.9,323.88,255.39,324.9,256z
		 M321.95,244.32c-0.3,0.61-0.61,1.12-1.42,0.81C320.84,244.42,321.14,244.02,321.95,244.32z M318.4,265.24
		c-0.51,0.61-1.02,1.02-1.83-0.1C317.28,264.94,317.89,264.43,318.4,265.24z M319.92,269.21c-4.04,4.38-3.41,4.1-4.16,3.35
		C316.98,271.24,317.89,269.71,319.92,269.21z M308.95,265.04c1.73,1.83,0.41,3.35-0.3,5.18c-44.49,5.28-88.88,10.46-133.57,15.74
		c0-4.06-0.3-7.82-0.91-11.99C330.46,257.97,311.39,258.21,308.95,265.04z M174.68,299.98c0.51,1.32,0.2,2.95,2.54,4.27
		c-1.12-4.47-0.41-8.33-0.2-12.59c-2.13,1.22-1.42,3.25-2.74,4.47c0.41-2.44-0.3-4.67,0.81-7.01c16.6-2.12,77.64-9.11,88.06-10.56
		c10.53-1.46,11.78,3.73,12.8,2.03c-0.2-1.32-1.83-1.63-2.13-3.15c4.16-0.51,8.23-1.32,12.49-1.32c1.67,18.74,4.61,27.32-8.02,45.3
		c-1.63-0.1-2.13-1.83-3.66-2.03c0.2,1.32,1.32,2.13,1.02,3.56c-0.94,0.63-9.52,5.25-13.2,2.95c-1.6,0,0.45,1.16-0.3,2.23
		c-8.02,2.54-16.24,2.4-24.48,0.71c-5.07-1.04-6.5-3.45-6.3-9.24c1.52,1.52,3.66,1.42,4.98,3.05c0.3-1.73,0-3.25-0.3-4.06
		c-8.43-3.96-13.2-11.38-20.52-16.05c1.73,4.16,4.16,7.52,8.43,9.75c-10.93,4.32-12.35,3.37-21.63,2.34
		c-18.45-2.06-17.11-7.49-27.93-8.53C173.66,301.71,173.66,301.71,174.68,299.98z M228.61,321.41c-1.42-2.03-2.34-4.27-2.64-7.01
		C229.52,315.93,227.8,319.08,228.61,321.41z M210.73,339.29c-7.52-2.95-13.71-8.02-20.62-13.41c2.03,0.1,2.54,1.63,4.27,1.12
		c-3.34-3.65-5.61-5.31-6.5-7.62c-0.82-2.13-0.91-4.67-3.55-5.69c-0.2-0.1-0.51-0.81,0.2-1.22c1.83,0.41,3.35,1.84,5.18,2.34
		c3.04,0.83,4.06,3.05,4.16,5.59c0.21,4.91,6.39,6.37,10.97,11.48c-2.03-0.3-3.15-1.93-4.98-1.83
		C203.62,332.99,206.77,336.55,210.73,339.29z M191.13,329.03c-1.63-1.22-2.84-2.13-3.35-3.76
		C189.1,326.19,190.62,327,191.13,329.03z M187.68,323.95c-4.88-3.15-6.3-8.33-8.13-13.2c0.91-0.3,1.73,0,2.64,0.81
		C182.19,316.34,185.65,319.79,187.68,323.95z M173.76,309.73c2.23-0.71,4.16-0.51,5.79,1.12c-1.42-0.91-1.12,0.71-1.73,1.22
		c-9.31-0.85,2.26-0.48,3.25,7.62C171.73,311.73,172.87,313.74,173.76,309.73z M172.34,318.27c0-1.52,0.3-2.64,0.91-3.96
		C179,320.41,180.63,320.22,172.34,318.27z M58.58,274.08c8.63,0,16.25,4.67,24.48,6.09c-5.69,0.61-11.47,1.38-17.27,2.03
		C61.83,282.65,57.46,277.94,58.58,274.08z M8.81,305.06c-8.9-0.64-6.85-10.81-1.52-13.71C12.97,295.61,13.58,301.61,8.81,305.06z
		 M12.47,305.06c2.84-5.99,2.74-8.63-0.61-14.42c32-3.35,63.89-6.6,95.58-9.85c4.57,4.16,5.18,7.72,2.44,12.8
		C77.57,297.44,45.17,301.2,12.47,305.06z M103.58,274.69c0.71-0.81,6-1.74,6.81-1.12c3.92,3.02,8.94,6.14,8.53,17.78
		c-0.3,8.4-8.92,10.21-11.17,7.62c1.63-0.61,2.44-2.54,4.47-2.74c-0.1-3.15,1.8-5.58,1.52-8.53c-0.73-7.86-9.17-10.39-10.06-11.27
		c-0.2,0.51-0.2,1.02-0.3,1.73c-1.12,0-2.13,0.51-3.25,0c0.2-2.64,2.54-0.91,3.56-1.73C104.17,276.75,102.72,275.68,103.58,274.69z
		 M107.64,299.07c-1.73,0.41-3.35,0-5.28-1.32C108.99,297.12,107.64,296.3,107.64,299.07z M68.23,303.44
		c1.12-2.64,2.74-2.13,4.67-2.34C71.17,301.91,70.06,302.52,68.23,303.44z M71.89,312.78c-1.22-2.84-2.13-5.59-0.71-8.23
		c5.79-3.45,11.78-5.59,19.1-5.28C76.99,307.43,77.26,313.14,71.89,312.78z M129.58,362.86c-4.34,0.28-16.32,2.18-23.06-1.22
		c-21.61-10.91-33.62-40.24-33.62-45.81c5.48-0.61,7.73-5.48,11.17-8.53c3.66-3.24,8.13-5.38,11.99-8.84
		c1.32-0.2,2.84-0.41,4.47-0.61c4.67,6.42,19.58,4.92,20.01-4.27c0.96-20.6-12.16-25.77-19.5-19.5c-5.78,4.94,2.35,4.19-12.49,5.59
		c-0.73-2.73-0.73-0.32-23.36-7.41c0-23.57,14.12-50.75,22.35-56.68c18.38-13.24,37.67-11.39,51.29-1.52
		c10.06,7.28,25.47,27.67,28.24,37.89c2.42,8.94,3.14,18.08,4.98,27.12c1.82,8.94-0.53,17.67-0.81,26.51
		C170.54,327.09,152.81,361.33,129.58,362.86z M197.43,396.17c-8.94,0-4.9,3.95-33.62,1.63c-3.17-11.81-11.57-20.09-14.93-31.28
		c-2.17-0.36,2.15,4.69-5.89-3.86c3.75-4.22,3.83,2.06,16.25,6.33c-3.83-3.65-8.81-5.68-12.9-9.07c1.32-2.23,3.45-3.15,5.18-4.47
		c3.66,2.13,7.41,3.55,11.48,4.37c-3.05-2.64-7.21-2.95-10.36-5.59c5.38-7.72,11.58-14.73,14.73-23.36
		c16.85,0.46,25.56,10.43,35.14,8.13c-10.97-4.27-21.84-9.75-34.64-9.14c1.42-3.55,2.64-6.6,3.86-9.65
		c18.53,5.05,4.83-0.2,21.63,11.88c0.81-1.12-1.63-1.42-0.3-2.64c3.78,3.41,18.16,15.51,19.91,10.77
		c11.25,5.8,11.63,2.38,16.09,6.84c0.85,3.37,2.9,4.15,2.9,4.54c0.81,3.25,3.45,5.79,3.86,9.45c-22.81-2.63-18.79-2.01-22.14-12.09
		c18.95,5.57,4.04,0.14,2.23-0.3c-6.03-1.48-3.25-5.44-8.13-6.5c5.99,16.45,15.34,30.57,23.16,45.61
		C223.13,391.7,213.42,396.17,197.43,396.17z M280.51,524.35c-0.2-1.42-0.41-2.74,0.3-4.27c5.08,2.44,9.95-0.1,14.83-1.32
		c0.71,1.22,1.32,2.23,2.13,3.55C288.35,525.95,286.04,528.77,280.51,524.35z M306.82,515.11c0,2.74,2.95,3.35,3.05,5.99
		c-3.15,1.02-6.6,0.61-9.85,1.83C295.67,512.62,300.09,519.77,306.82,515.11z M308.95,407.85c-3.6,12.32-1.07,17.09-1.42,23.46
		c-2.46,44.56-11.71,51.62-7.52,76.28c1.01,5.94,0.49,7.34-6.4,9.14c-0.81-1.73-1.22-3.56-2.95-4.47c-0.1,1.63,1.73,2.95,1.02,5.28
		c-2.54,0.71-4.98,1.93-7.72,0.71c-0.61-5.28,1.52-10.36-0.2-15.44c-1.42,4.88,0.2,10.26-2.54,15.24c-1.32-1.22-2.43-2.34-2.34-4.27
		c0.64-12.73,0.09-26.77-3.86-38.9c-7.27-22.33-2.52-31.85-1.12-46.62c1.9-20.04-14.51-23.71-17.47-30.37
		c2.44-0.3,4.06-1.91,6.3-2.13c11.29-1.12,27.18-5.27,37.68-12.39C305.62,392.73,312.43,395.96,308.95,407.85z M281.33,350.16
		c-6.91,2.84-14.22,3.25-21.43,3.76c7.72,1.32,15.03-0.3,21.74-2.44c7.41,8.94,11.78,19.1,17.17,28.85
		c-7.6,5.07-40.64,15.24-49.77,15.24c-2.44,0-4.98-0.2-7.11,1.52c-9.89-10.78-2.39-3.34-8.84-13.51c-1.42-2.24-2.03-5.08-5.18-6.3
		c1.32-0.2,1.93,0.11,2.54,0.3c30.8,9.59,29.67,5.23,27.63,5.18c-8.3-0.18-10.46-7.22-11.38-5.99c1.41,3.77,13.19,8.49-19.81-1.63
		c-1.63-3.86-2.54-8.02-5.69-11.78c3.86,0.3,6.81,1.63,9.85,1.42c-3.5-2.74-11.02-1.15-11.99-5.38c1.41,0.3,18.97,3.73,20.92,2.13
		c-4.47-1.49-3.27-6.82-7.59-9.9v-0.01c0.1,0.1-0.97-3.13-3.23-4.6c-1.19-1.48,17.23,0.54,21.08,1.31
		C271.97,352.7,276.08,338.34,281.33,350.16z M313.12,334.11c-5.96,5.38-14.76,3.88-28.54,6.7c-8.84,1.81-17.27,5.18-26.41,5.28
		c-10.84,0.12-16.46-4.25-27.93-2.54c-3.05,0-15.86-5.01-21.33-10.16c-11.7-11.02-13.24-7.43-13.81-16.66
		c2.64,1.12,5.79-0.1,7.01,2.84c1.73-2.64,4.16-0.81,6.09-1.02c1.35,7.2,0.91,7.21,2.23,8.13c0.71-2.95-1.02-5.89,0.91-8.63
		c4.47,0.81,8.43-1.73,12.7-2.44c1.6,2.4-0.65,9.67,9.24,14.12c8.35,3.75,23.44,5.39,41.14-3.45c2.08-0.69,0.1,0.82,1.42,1.12
		c5.12-0.9,16.84-18.74,14.12-36.97c-0.71-4.77-1.02-9.55-1.42-14.42c2.13-0.61,4.27-0.91,6.4-0.91c-0.3,2.03-0.02,4.05-1.02,5.89
		c-1.76,3.23-1.92,6.7-1.42,10.36c3.28,24.1-0.08,15.48,1.73,21.43c5.6,18.51-0.13,23.02,35.45,3.86
		C329.82,319.47,327.93,320.74,313.12,334.11z M366.65,283.63c-0.19,4.16,0.91,8.33-0.1,12.8c-2.74-0.61-5.38-0.91-6.7-3.66
		c-1.52,0.51-1.63,1.42-1.12,2.64c1.32,0.61,2.64,1.42,4.06,2.13c-0.41,1.63-0.71,3.15-1.02,4.57c-3.35,1.22-6.91-1.22-10.67,1.02
		c3.05,1.63,6.3,0,8.63,2.44c-6.28,2.32-0.42,11.07-12.59,8.02c-3.66-0.91-6.3-3.55-9.65-4.88c-4.14,3.47-7.95-1.8-17.06,7.31
		c3.86-0.61,6.4-3.56,10.67-3.56c-9.45,6.09-18.38,11.68-29.05,13.51c-1.22-1.02-2.34-1.93-3.35-2.74
		c-0.51-4.57-2.74-8.63-3.15-13.71c3.86,3.35,7.41,6.09,10.36,9.65c-2.03-5.18-6.5-8.33-10.26-12.39
		c1.32-9.24-1.32-18.69,1.63-28.14c2.13,0.81,3.05-3.05,5.69-1.32c-0.91,1.32-2.74,1.83-3.05,3.86c1.42-0.51,2.23-2.13,3.76-1.73
		c0.41,1.52-1.22,3.35,1.32,4.37c0.1-2.03-0.61-4.37,2.13-5.18c-2.28,11.95-0.74,10.14-1.63,13.41c2.84-2.64,2.84-2.64,3.86-15.44
		c1.32,0.41,2.54,0.41,3.66-0.2c0.41,0.81-0.4,1.32,0.2,1.83c0.72,0.6,1.83-0.3,2.54,0.71c2.07,6.21,9.07,7.65,6.6,13.81
		c-0.26,0.77,3.45,7.63,7.82,10.06c-1.58-2.08-6.6-8.79-5.79-11.27c1.45-4.46,0.81-9.04,1.63-13.51c0.61-0.81,1.52,0.91,2.13-0.3
		c0.2-1.22-0.91-2.23-1.02-3.45c3.76,3.05,0.81,7.41,1.83,11.17c2.26-0.17,3.93-7.88,10.46-10.87c9.29-4.24,8.2-9.52,15.64-10.16
		c1.91,1.04,6.29,4.07,8.43,1.93c2.23-2.23,4.88-1.22,7.31-2.13c0.91,4.06-0.2,8.02,0.61,11.78
		C372.14,279.35,366.94,277.16,366.65,283.63z M368.78,285.97c-1.52-4.98,2.54-5.48,4.67-6.91c0.2-3.55,0.41-6.81,0.61-10.46
		c3.15,1.73,6.09,1.52,9.04,1.93c1.22-2.23,1.22-2.23,0.3-4.37c-3.15,3.96-6.2,1.63-9.34-0.1c3.96,0.2,7.92-3.15,11.88,0.1
		c0.81-0.41,0.51-1.52,1.22-2.03c3.66-0.41,7.41-0.81,10.77-1.22c3.05,5.18,2.44,9.95-0.71,14.52c6.91-3.45,2.95-9.55,3.96-14.63
		c2.34-0.81,4.77-0.81,7.72-0.91c-5.82,12.61-2.63,17.77-12.39,20.21C375.69,287.31,376.55,284.3,368.78,285.97z M414.18,306.89
		c-8.94-4.87-13.1-13.92-19.1-21.84c16.77-6.1,7.94-13.15,16.25-23.67c4.88-0.1,9.78-1.81,14.93-3.15c3.58-0.93,4.25-2.74,3.55-6.4
		c-0.73-3.86-3.45-4.68-6.5-5.48c-9.05-2.4-4.16-3.71-13.41-5.18c-5.18-0.82-8.02,2.13-11.99,4.27c-2.64-0.3-2.64-0.3-6.6,3.55
		c-9.34,0-4.74,2.71-4.67-13.41c0.07-14.44,11.75-29.99,12.39-30.17c8.14-2.19,14.77-17.49,30.17-13c0.71,0.21,1.42,0.61,2.34,0
		c-11.53-4.19,17.42,0.63,23.67,4.37c26.46,15.84,28.97,33.51,30.07,44.29C490.87,296.01,451.03,326.95,414.18,306.89z
		 M492.09,249.1c-1.02-0.41-2.44,0.3-3.86-0.61c1.12-2.13,0.1-4.27,0.3-6.3c2.74-0.71,3.96,0.1,5.69,3.66
		C493.81,246.96,493.41,248.18,492.09,249.1z"/>
	<path d="M665.06,166.42c2.13,10.97,2.03,22.04,8.84,31.28c-4.21,3.93,0.17,20.31-3.45,22.24c6.63,5.8-8.57,36.87-4.06,36.87
		c2.44-7.72,5.99-14.63,7.01-22.75c7.27,2.52,13.84,4.64,20.81,5.46c-1.19-1.75-11.31-3.37-19.29-6.78
		c-0.41-1.32,0.41-2.13,0.51-3.25c14.18,4.93,2.26,0.01,0.3-1.73c-0.41-1.42,0.2-2.74,0.41-4.47c7.21,2.64,14.63,3.45,21.84,5.48
		c-6.91-3.25-14.63-4.47-21.63-7.52c-2.87-17.24,3.23-18.54-2.95-31.39c6.3,4.57,12.39,6.4,18.99,1.93
		c3.45,2.74,7.31,4.16,11.99,4.06c-5.2-3.19-14.17-5.75-4.06-11.68c11.31-6.63,35.46-37.24,17.17-68.87
		c-3.28-5.67-4.47-12.19-7.31-17.67c0.71-2.13,2.24-0.9,3.35-1.42c6.44-3.03,4.88-7.16,4.88-18.08c0-2.23-0.15-1.38,15.03,9.04
		c-0.71-3.05-0.71-3.05-10.97-9.75c-1.22-3.96-3.05-7.82-2.44-12.29c-2.23,0.41-1.83,2.23-2.64,3.86c-0.71-2.44-0.51-4.37,1.32-6.2
		c-1.73-0.81-4.16-0.41-3.86-3.05c0.81-0.2,1.93,0.41,2.84-0.91c-0.09-1.66,0.61-11.05,2.64,0.2c3.05-3.35,3.68-7.81,5.38-11.68
		c1.75-3.95,4.88-7.31,6.09-10.97c1.52-1.22,2.74-0.2,3.76-0.71c-0.51-2.13,2.34-1.32,2.54-2.95c-0.51-1.52-1.12-3.05-1.83-4.57
		c-1.22,1.32-2.95-0.41-4.37,0.51c0.71-0.71,1.12-1.83,2.44-2.34c0.51,0.61,1.93,0.41,1.93,1.83c2.54-0.41,3.15,1.52,3.66,3.25
		c1.83-0.2,1.02-1.42,1.22-2.23c10.75-2.15,11.45,2.21,20.21-0.71c1.82,1.66-0.13,8.14,3.05,12.39c0.83,1.11-0.3,2.13-0.1,3.15
		c-8.94,3.76-10.56,6.09-8.02,11.88c0.81-1.32,0.1-2.84,1.02-4.06c2.34,0.91,4.47-0.3,6.91-0.91c4.28-15.89,1.55-1.17-0.3-23.46
		c1.73-3.05,5.38-3.86,8.02-6.3c0.1-1.22-0.2-2.64,0.51-3.96c-1.73-1.32-3.66-0.3-5.48-0.61c1.12-1.52,3.45-1.32,3.76-3.55
		c-2.34-1.93-4.06-0.1-5.99,1.02c-0.3-2.44,0.81-4.88-0.91-7.31c-1.34,0.92-3.34,3.76-4.47,3.76c-1.8-4.49-7.99,0.84-12.8-0.2
		c-4.07-0.88-8.33-0.2-12.59,0c-1.32,0.61-1.22,2.74-3.05,2.74c-1.12-0.3,0.1-2.03-1.63-2.54c-2.54,2.54-5.48,4.98-10.06,5.08
		c-1.73-0.81-3.05-3.86-6.2-2.44c-0.61,1.83,1.52,2.34,1.83,3.76c-1.69,1.25-2.72,5.9-2.62,5.9c-0.39,0.09-0.86,0.1-1.44,0.19
		c0.71,1.93,0.11,3.76-0.91,5.18c-2.21,3.06-1.11,4.73-2.74,8.23c-4.5,9.63,1.96,16.17,1.52,17.27c-2.03,5.07,3.54,11.54,2.95,17.06
		c-0.1,0.91,0.2,1.83,0.71,2.64c3.66,5.18,1.28,10.97,1.52,16.45c0.25,5.48-28.16,10.7-28.64,16.45
		c-14.08,2.61-91.17,5.59-108.99,5.59c-2.66-20.84-1.54-20.65-10.56-38.6c-7.74-15.39-20.26-22.89-24.48-26.92
		c-11.45-10.91-38.16-5.63-50.79,3.86c-7.62,5.72-21.09,26.92-25.39,54.44c-1.19,0.93-8.52-1.21-6.91,5.08
		c2.61,10.16,16.8,4.46-47.74,8.02c-13.08,0.72-12.72,20.88,1.83,20.21c36.14-1.67,37.54-2.13,54.54-2.13
		c-0.41,3.15,1.34,6.1,0.81,9.34c-0.1,0.61,0,1.52,0.41,1.93c2.34,2.74,2.55,6.29,3.35,9.55c2.59,10.55,8.84,19.1,14.32,28.24
		c6.7,11.17,17.38,15.4,28.85,18.89c3.97,1.21,7.92-0.53,11.88-0.2c16.57,1.37,34.78-20.98,39.31-32.3
		c25.29,18.97,25.67,16.06,35.25,19.5c2.03,0.73,4.27,0.71,5.99-0.3c3.96-2.03,8.56-2.49,12.49-4.47
		c8.54-4.29,11.79,1.43,27.63-8.94C652.69,173.35,659.07,170.68,665.06,166.42z M759.93,48.69c1.42-0.3,2.23-1.02,3.35,0.3
		C762.17,49.3,761.35,49.2,759.93,48.69z M766.43,18.93c0.71-0.1,1.52-0.41,2.44,0c-0.71,1.02-0.81,2.13-2.03,2.64
		C766.43,20.76,766.03,20.05,766.43,18.93z M761.25,12.23c0.81,1.22,0.2,1.83-1.02,2.34C760.64,13.85,760.14,12.53,761.25,12.23z
		 M750.69,26.04c-1.52,0-2.34-0.41-3.15-1.22C748.86,24.62,749.57,25.23,750.69,26.04z M743.78,23.61c0.81-0.51,1.12-0.1,1.32,1.02
		C744.29,24.32,743.68,24.32,743.78,23.61z M746.93,21.88c-0.1,0.71-0.3,1.02-0.71,1.22C745.81,22.29,746.22,22.08,746.93,21.88z
		 M745.71,15.38c-0.71,1.32-1.73,2.03-3.15,2.74C742.46,15.58,743.68,15.18,745.71,15.38z M736.98,13.35
		c0.52,0.52,0.02,1.25-0.51,0.2C736.67,13.55,736.88,13.35,736.98,13.35z M715.04,42.09c-0.41-1.42-0.81-2.95,0.91-4.47
		C716.26,39.65,715.34,40.77,715.04,42.09z M715.34,48.29c3.19,0.3,2.96,2.56,3.14,4.56C718.48,52.97,714.99,51.35,715.34,48.29z
		 M729.97,33.66c1.42,1.32-0.1,1.73-0.51,2.54c0,0-0.3,0-0.51,0C728.95,35.29,728.85,34.37,729.97,33.66z M727.84,16.8
		c-0.41,1.42-1.22,1.93-2.64,1.42C726.01,17.61,726.52,16.6,727.84,16.8z M729.26,23.91c-1.12,1.63-2.13,3.25-4.47,4.37
		C725.8,25.74,727.43,24.72,729.26,23.91z M724.08,36.81c0.3,0.61,0.2,0.91-0.2,0.91C723.87,37.52,723.98,37.22,724.08,36.81z
		 M723.87,39.86c0.1,1.63-0.41,2.13-1.52,2.34C721.84,40.77,722.76,40.47,723.87,39.86z M718.69,41.08
		c0.61-1.02,0.81-2.64,2.34-1.12C720.32,40.47,719.81,40.97,718.69,41.08z M712.3,22.69c1.12,0.61,2.13-0.41,3.15-0.1
		c0.81,0.81,1.42,1.52,2.03,2.13c1.12,0.1,2.03-1.22,3.05-0.01c-0.43,3.03-2.13,0.41-4.67,0.61c-1.32,0.1-2.13,1.42-3.55,1.42
		c0.3-1.32,1.73-1.63,1.73-2.95C713.62,23.54,712.67,22.99,712.3,22.69z M712.6,56.92c-1.32-1.83-2.95-3.25-0.71-5.08
		c1.22,0.1,1.63,0.91,2.54,2.03C713.51,54.59,713.01,55.6,712.6,56.92z M576.6,114.92c112.24-3.74,80.24-6.23,71.3,7.52
		c-0.96,1.48,2.07,0.67-68.46,4.27C575.86,127.1,576.6,127.29,576.6,114.92z M575.99,130.05c22.96-1.12,45.3-2.23,68.26-3.35
		c-1.42,2.95-2.53,5.18-3.55,7.62c-6.24,14.82-15.29,1.1-31.69,18.99c-16.41-7.38-24.91,1.69-35.14-8.33
		C574.56,140.11,575.27,135.03,575.99,130.05z M461.01,107.2c8.53,0.71,15.85,5.69,24.17,7.62c-6.09,0.61-12.08,0.64-18.08,1.02
		C463.55,116.05,459.99,110.86,461.01,107.2z M409,134.93c-1.22-0.3-2.34-0.61-3.55-0.91c-3.25-4.77-1.83-10.67,3.15-12.9
		C414.18,125.89,414.28,131.78,409,134.93z M412.66,135.03c3.45-4.77,3.56-9.34,0.61-14.42c32.4-1.12,64.4-2.23,96.19-3.35
		c4.06,5.28,4.37,7.92,1.42,12.9C478.38,131.78,445.77,133.4,412.66,135.03z M512.81,132.9c2.18-6.99,4.44-11.01-1.52-16.05
		c-2.04-1.72-3.76-3.66-6.7-5.18c13.15-7.45,19.54,13.51,13.1,23.26c-3.44,1.06-7.65,3.41-9.65,0.2c-1.83,1.02-3.05-0.1-4.88-1.32
		c4.84-0.46,6.35-1.14,4.88,1.32C510.07,135.23,510.98,132.9,512.81,132.9z M505.29,114.31c-1.02,0-2.03,0-3.45,0
		c0.41-1.02,0.91-1.52,1.73-1.93C504.17,112.99,505.6,112.68,505.29,114.31z M473.3,135.44c-1.52,0-2.74,1.02-4.06,1.12
		C470.15,134.62,471.77,135.33,473.3,135.44z M471.67,146.81c-1.12-2.95-1.73-5.79-0.1-8.53c5.99-2.03,11.68-5.28,18.49-3.35
		C478.01,141.41,477.07,147.41,471.67,146.81z M525.71,200.75c-5.5,0.09-16.27,0.88-22.35-2.64c-23.34-13.53-32.13-46.9-30.78-48.25
		c5.38-0.3,7.89-5.02,11.58-7.82c3.93-2.99,8.43-4.88,12.8-8.02c0.91,0,2.44-0.1,4.37-0.2c4.15,7.12,18.95,6.53,20.11-3.05
		c2.43-19.95-10.25-26.23-18.08-20.42c-6.67,4.95,2.02,4.47-12.39,4.47c-3.25-2.95-7.73-2.52-11.38-4.16
		c-3.77-1.7-7.82-2.95-11.88-4.47c0-6.3,4.36-23.63,10.36-34.53c19.39-35.24,50.53-34.6,70.49-15.64
		c6.01,5.71,20.38,26.35,22.35,36.77C583.43,159.31,552.21,200.32,525.71,200.75z M604.83,187.95c-0.81-1.12-1.93-1.71-3.35-1.83
		c-13.65-1.17-29.26-11.06-33.62-18.79c3.96-5.59,4.27-12.7,6.3-19.3c4.44,2.47,6.04,4.88,13.51,5.28
		c4.93,0.26,13.77-1.7,20.52,2.23c14.69-6.57,13.28-9.74,21.33-10.36c19.45-1.51,14.6-29.62,43.17-34.13
		c-7.92,4.67-10.26,6.6-11.38,9.45c4.88-4.77,11.48-6.2,17.27-8.53c0.1-1.52-1.02-1.42-1.32-2.03c2.13-1.12,4.26-1.68,6.6-1.63
		c4.31,0.09,0.12-2.06,8.13-4.77c1.65-0.56,12.7-4.47,14.32-3.96c1.93,3.66,3.96,7.62,5.99,11.48c-0.81,1.12-2.44,1.22-2.74,2.64
		c1.32,0.81,2.64-0.2,3.96,0.1c3.99,8.64,2.78,1.39-6.6,3.15c2.74,3.86,6.81,1.93,9.75,3.86c7.1,13.95,7.2,26.82-1.52,41.04
		c-9.4,15.33-10.6,15.46-23.06,25.09c-1.63-0.41-1.63-2.34-3.15-1.83c-1.22,1.12,0.61,1.83,0.3,2.74c-9.88,4.94-10.87,0.33-13.2,0
		c-8.58-1.21-3.14-10.18-8.53-22.55c0.3-0.81,1.93-1.12,1.22-2.64c-1.83-1.22-3.25,1.02-5.48,0.81c2.03-1.22,3.56-2.33,5.28-3.25
		c7.81-4.15,9.27,1.76,13.92,3.96c8.28,3.93,8.23,7.29,16.86,5.99c-1.02-1.86-6.73-4.95-8.33-6.2
		c-10.97-8.53-18.14-8.75-22.24-10.87c-0.3,1.83,1.93,2.13,1.73,3.76c-5.27,1.88-10.62,6.96-11.88,7.31
		c-5.27,1.46-10.06,4.34-15.34,5.69c-6.9,1.76-9.11,5.57-12.7,4.16c-2.04-0.8-3.66-0.2-5.59,0.2c1.83,0.51,1.42,2.03,1.32,2.95
		c5.08-0.3,9.04-3.56,13.81-3.96c4.88-0.41,9.24-2.44,13.81-3.96c-5.92,4.11-19.72,12.04-25.19,11.68
		C618.78,180.29,610.96,187.07,604.83,187.95z"/>
	<path d="M751.49,276.93C751.41,276.9,751.43,276.92,751.49,276.93L751.49,276.93z"/>
	<path d="M727.23,508.2l-0.1,0.1C727.18,508.36,727.12,508.38,727.23,508.2z"/>
	<path d="M755.87,262.71l-0.1,0.1C755.8,262.81,755.85,262.74,755.87,262.71z"/>
	<path d="M735.37,278.69c-0.01,0.02-0.01,0.04-0.02,0.06C735.45,278.65,735.51,278.6,735.37,278.69z"/>
	<path d="M891.47,100.5c-0.61-6.91-1.32-14.02-5.48-19.81c-21.85-30.38-24.01-28.87-45-33.52c-5.17-1.15-10.46,0.13-15.64,0.41
		c-4.26,0.23-7.89,2.88-11.27,5.48c-4.14,3.18-5.93,0.78-11.17,7.31c-16.79,20.93-12.35,20.19-17.17,44.29
		c-10.06,0-20.11,1.12-30.47,0.51c0.71,2.13,1.01,4.37,2.23,6.4c11.81,19.47,0.55,27.93-3.25,27.02c-1.02-1.42-1.83-3.15-3.66-4.47
		c-1.06,2.58,3.71,8.25-5.48,3.15c-0.91,0.81,0.3,1.22,0,1.93c-6.63-1.86-9.63-6.6-13-13.1c-4.47-8.63-10.06-16.56-14.42-25.29
		c-3.29-6.57-7.44-4.1-3.05,2.84c18.21,28.84,15.07,37.68,36.87,37.68c2.44,8.43,4.06,16.45,4.57,24.89
		c1.93-0.51,1.85-1.92,2.13-2.95c2.73-9.81-2.77-9.88-2.84-13.71c-0.05-2.54-0.81-4.98-1.73-7.41c8.99-1.08,12.8-11.99,10.77-20.92
		c2.23,6.5,6.58,11.79,8.23,18.38c6.04,24.19,10.1,27.36,4.37,36.36c-2.99,4.7-5.56,5.95-5.08,9.34c1.23,8.74-5.51,25.61-8.84,33.32
		c-6.74,15.6-1.28,14.55-9.04,34.43c-0.82,4.26,1.06,9.19,2.06,9.78c-0.1-0.01-0.19-0.03-0.31-0.03c-3.44,4.71-7.89,7.55-13.73,8.53
		c-2.24,0.38-4.37,1.83-7.01,1.32c1.06-3.5,6.26-7.65,5.08-8.84c-10.37,10.37,0.13,10.34-27.32,8.02
		c3.53-5.59,10.24-9.74,11.58-11.58c-2.79,0.18-11.38,9.02-13.31,11.07c-8.02-0.1-14.93-3.45-21.53-8.02
		c-1.13-0.9-0.47-0.42-18.49-6.91c-0.82-0.29-1.73-0.71-2.64,0.3c0.2,1.93,3.35,1.63,3.05,4.16c-1.32-0.91-2.44-2.13-4.27-2.34
		c-6.76,6.47-9.8-5.53-13.81,30.17c-0.61,1.42-1.52,0.81-2.03,1.42c0,7.71-5.67,30.17-0.81,31.39c-8.18,32.71-0.37,55.37-1.83,61.25
		c-0.37,1.48-5.41,22.04-3.15,23.26c3.01-1.34,4.98-23.67,4.98-23.77c2.03-7.41,0.09-14.83-0.3-22.24
		c-0.76-14.29,1.55-34.49,1.63-40.63c0.28-23.15,4.42-36.39,9.04-54.85c9.18-3.57,4.24-1.37,6.2-0.81c1.12,0.2,1.93-1.42,3.25-0.41
		c1.88,4.36,7.04,4.66,10.22,7.6c-3.32-1.14-4.3,4.55-4.63,8.04c1.32-2.93,3.43-5.26,4.96-7.88c1.75,0.33,3.33,1.01,5,1.99
		c0.91,6.81,0.81,13.31-3.86,19.2c2.84-0.61,3.36-3.15,4.57-4.88c3.17-4.52,3.32-7.75,3.86-13.71c-0.71-0.61-1.42-1.22-2.13-1.83
		c-0.71-1.12-2.03,0.41-3.05-1.12c0.81-0.91,1.73-1.93,2.54-2.84c1.93,0,1.73,1.73,2.13,2.64c4.16-0.1,4.16-0.1,7.11,1.52
		c-0.94,0.67-2.36-1.18-3.66-0.1c0.41,1.63,2.34,1.42,3.35,2.44c0.2,1.12-1.02,0.71-1.63,1.73c5.08-0.1,10.06-2.03,14.22,1.22
		c0.41,2.54,0.71,4.77,1.12,7.62c1.32-1.42,0.49-2.44,0.41-3.35c-0.61-6.9,5.09-2.95,17.47-2.95c1,0,1.51,0.79,1.34,1.45
		c-1.56,2.49,0.73,3.3,3.64,21.91c0.24-17.6-2.95-18.63-2.95-21.94c1.29-0.62,1.17-2.46,2.03-2.84c1.9-0.41,1.15,2.54,2.97,1.46
		c1.01-2.78,1.61-2.98,3.64-1.06c0.61,0,0.61-0.61,0.71-0.91c1.42-2.83,1.6,0.16,2.64-0.3c0.81-0.3,0.3-1.52,1.02-1.83
		c1.22,0.61,0.41,1.83,1.22,2.54c1.63-0.41,1.73-1.83,2.03-3.66c0.3,2.03,0.91,3.55-0.71,4.77c2.23,2.44,2.54,12.19,0.71,18.89
		c1.73-0.41,2.03-1.83,2.44-2.95c4.82-16.52-0.38-14.24,2.23-16.86c-0.12-0.65-0.91,0.08-1.73-1.02c0.81-1.52,0.1-3.55,1.52-5.18
		c2,5.71,0.69,5.84,0.4,5.8c0.04,0.02,0.11,0.04,0.21,0.1c0.71-0.81,1.93,1.73,2.44-0.1c7.74,7.1,1.23,0.15,5.18,17.27
		c-1.83-0.81-0.91-2.95-2.64-3.35c-0.41,2.23-0.18,4.26,0.51,6.6c3.74,12.67-3.71,78.51,3.25,96.09
		c-16.68,13.45-22.29,7.21-48.45,8.63c2.74,2.54,5.59,3.05,8.63,3.55c1.22,0.41,1.12,2.23,2.64,2.34c1.12-0.3,0.3-1.42,1.12-2.13
		c30.08,0,9.92-3.04,14.93,19.91c1.24,5.68,1.64,11.28,1.02,16.96c-0.6,5.49,0.5,10.97-0.1,16.35c-2.06,18.41,0.39,31.66-1.02,40.93
		c-0.24,1.59-0.08,9.53,2.34,10.56c1.51,0.64,1.83,1.93,1.63,3.45c-3.25,2.64-7.21,3.76-11.27,5.18c-1.02-0.51-2.03-1.12-3.25-1.73
		c1.21-3.44,0.81-6.47-1.49-9.2c-1.3,2.41-0.35,5.09-0.84,7.78c-1.42,0.2-2.54-0.61-4.06-0.91c0.37-2.67-0.29-19.51-2.95-29.76
		c-2.13-8.23-5.15-16.26-8.53-24.07c-2.11-4.88-1.9-10.57-3.35-15.64c-3.35-11.74,3.75-23.22,1.42-29.66
		c-1.28-3.53-0.54-7.51-1.32-11.17c-1.38-6.49-1.22-6.6,1.52-13.51c1.32,1.22,1.52,3.66,4.37,3.76c-3.25-3.86-4.05-7.92-3.15-12.49
		c1.57-7.99,0.35-13.2,4.57-21.63c0.51,0.2,0.91,0.3,1.42,0.51c-1.12-4.67,2.23-7.41,4.37-10.87c2.74,3.45,4.27,7.31,6.6,10.77
		c-1.96-6.59-8.29-14.92-4.77-21.43c-1.83,1.22-5.25,7.72-5.48,10.16c-0.39,4.03-7.63,9.13-9.65,31.39
		c-0.6,6.6-2.83,12.87-4.67,19.2c-0.53,1.82-1.61,2.88-3.35,3.55c-14.8,5.74-14.59,6.27-15.64,5.48c-3.85-2.89,1.33,4.17-37.18-1.63
		c-3.11,3.44-4.35,11.31-3.86,15.34c0.66,5.48-1.22,10.16-3.66,14.93c-8.88,17.38,10.93,89.68,12.7,94.66
		c0.61,1.73,0.61,3.86,3.15,4.37c1.12-1.32,0.83-2.75,0.51-4.06c-18.44-75.21-12.29-59.92-15.24-76.18
		c-1.69-9.33,1.28-17.55,4.37-25.8c2.43-6.49,0.49-12.58,4.16-20.92c3.81-1.47,3.18,5.33,27.73,4.47c2.24-0.08,4.06-1.93,6.7-1.83
		c-1.02,3.35-2.09,6.51-3.05,9.75c-0.79,2.67-4.94,3.79-4.27,6.81c0.31,0.25,1.62,0.32,1.69,0.25c-2.08,2.64-1.71,6.56-4.63,8.79
		c-0.1,4.88-2.34,9.55-1.32,15.13c2.44-4.57,2.23-9.34,3.15-14.02c3.96-1.52,2.23-6.4,4.98-8.74c-0.4-1.5-1.39-1.13-2.1-1.22
		c6.56-4.66,4.64-12.4,9.01-17.47c6.2-1.22,12.7-1.73,17.57-6.81c9.47,16.81-9.19,22.18,4.98,56.58
		c13.63,33.09,8.17,37.12,11.07,49.16c-4.37,0.41-3.05,3.45-3.15,5.69c-0.1,2.23-1.32,4.88,1.22,6.3c0.67,2.67-5.37,5.17-4.37,11.68
		c0.39,2.54-2.03,4.16-2.95,6.3c1.83,3.55,4.37,5.79,8.43,6.7c6.3,1.42,12.6,3.87,19.1,3.15c6.4-0.71,10.46,3.56,15.44,5.89
		c20.58,9.65,22.91,1.82,26.1,5.79c1.83,2.27,12.3-6.84,14.02-8.33c-2.54-1.32-0.1-4.27-2.54-5.38c-1.73-7.11-7.63-8.26-13.51-9.24
		c-8.02-1.34-3.9-1.41-19.4-15.24c-1.45-1.29-3.15-2.44-3.15-4.67c0-1.32-1.52-0.61-2.03-1.32c0-2.03,2.54-4.27-0.61-6.2
		c-1.63,0.61-3.25,2.34-5.79,1.22c-0.61-1.22-0.81-3.25-3.05-3.25c-4.82-44.17,2.74-63.42-2.64-89.18c-0.32-1.52,0-3.25-1.12-4.67
		c2.95-3.15,3.25-7.21,4.27-11.27c4.67-0.51,8.89-1.97,12.49-5.08c10.88-9.37,0.81-3.33,4.06-55.97c0.31-5.06-2.08-3.86-1.32-6.5
		c0.69-3.9,2.56-29.82,1.93-33.42c-1.85-10.5,1-22.06-2.34-25.49c-3.56-3.67-2.18-7.49-5.48-9.85c2.26-2.26,4.54-5.61,2.62-6.12
		c0.2-0.07,0.33-0.44,0.32-1.19c-0.05-7.62,4-14.22,4.57-21.84c1.14-15.08,13.23-33.12,12.9-46.22c-0.07-2.74,1.52-5.48,0.71-8.33
		c4.64-8.56,7.69-7.04,7.82-15.44c0.21-13.2-3.42-7.08,12.9-24.78c11.04,22.96,31.74,34.78,58.3,26.41
		c33.42-10.54,36.85-54.5,37.99-56.78c5.02-0.65,7.74-0.75,8.13-6.6C900,103.85,896.24,100.6,891.47,100.5z M761.46,111.16
		c-0.81-0.51-1.22-1.02-1.02-1.93C761.96,109.54,761.86,110.25,761.46,111.16z M674.1,264.64c-0.77,0.39-0.89-1.25,0.3-1.02
		C674.61,264.03,674.51,264.43,674.1,264.64z M676.95,266.06c1.22-0.3,1.12-1.93,2.74-2.64C680.3,265.84,679.8,269.31,676.95,266.06
		z M681.32,268.5c1.42-0.3,1.22-2.23,2.95-3.05C684.58,271.11,681.82,270.02,681.32,268.5z M723.77,275.91c0.2,0,0.41,0.1,0.71,0.1
		C724.08,276.21,723.21,276.1,723.77,275.91z M727.02,276.82c0.61-0.1,1.22-0.51,2.03,0.3
		C728.24,277.03,727.63,276.93,727.02,276.82z M721.54,516.64c2.23,2.03,5.46,2.36,7.72,4.16c3.62,2.89,6.41-0.85,7.82,0
		c-4.36,4.76-2.48,4.44-10.67,3.45C721.88,518.51,718.63,518.2,721.54,516.64z M757.09,535.93c3.71-0.37,4.26,2.3,10.26,0.91
		c2.34,2.54,4.16,5.38,7.41,6.5c2.74-1.52,2.74-1.52,10.16,0.41c1.32,2.23,2.74,4.57,4.57,6.5c-1.32,6.3-2.12,6.96-8.63,8.02
		c-7.81,1.28-15.24-0.41-22.96-1.73c0-2.03-1.31-2.46-2.84-2.84c-7-1.74-6.96-6.12-19.4-5.38c-6.19,0.37-12.21-2.36-18.18-4.27
		c-1.22-0.39-2.54-1.22-3.05-2.74c4.56-10.79,1.75-10.52,3.05-11.99c2.05-2.32,3.66-4.98,3.15-8.43c3.13,3.3-0.17,6.91,13.61,6.4
		c2.7-2.03,4.82-8.09,6.5-3.05c-0.81,0.81-2.64,0.71-2.44,2.64c1.42,1.93,3.45,0.1,5.28,0.81c0.41,2.95,3.05,2.64,4.57,3.05
		C751.1,533.6,753.14,536.33,757.09,535.93z M756.48,526.49c-2.74,0.71-5.08,0.51-7.52,0.3
		C751.3,525.98,753.53,523.75,756.48,526.49z M745.81,517.35c0.41,0,0.3,1.93,1.63,1.52c0.71-0.51-0.41-1.32,0.41-1.83
		c0.81-0.1,1.63-0.3,2.44,0.61c0,1.73,1.52,3.25,1.73,5.48c-3.15,0.3-6.2,0.71-9.24,1.12c-0.61-2.03-1.83-3.55-1.32-5.79
		C742.56,517.65,743.78,516.84,745.81,517.35z M810.62,107.1c0,2.84-0.81,5.59,1.12,8.13c-55.31,2.68-28.13,4.51-44.39-6.5
		C781.87,107.4,796.19,107.2,810.62,107.1z M799.95,101.61c2.34-0.3,4.67-0.51,6.91-0.81c0.81,0.81,1.32,1.42,1.22,2.74
		c-2.74,1.12-5.48,2.74-8.94,1.02C798.63,103.24,799.44,102.53,799.95,101.61z M819.66,102.43c-0.56,5.32,3.58,10.61-3.96,12.39
		C821.5,106.31,814.77,98.94,819.66,102.43z M812.65,113.8c-0.3-2.95-0.2-5.38,0.2-7.92c-2.64-0.61-2.74-2.84-3.45-5.18
		c5.96,1.88,2.96-4.5,8.02,6.09C816,109.03,816,112.18,812.65,113.8z M792.74,119.49c0.91,2.74-0.61,3.45-3.05,4.06
		C789.99,121.3,787.41,118.6,792.74,119.49z M772.22,133.3c-2.54-7.01-5.38-13.81-6.7-21.43c6.91,4.37,10.06,10.56,9.14,17.78
		C772.32,129.65,772.53,131.58,772.22,133.3z M781.97,156.46c-4.79-18.56-8.77-19.94-6.6-23.87c2.16-3.9,2.95-7.82,1.42-12.29
		c3.66-0.2,6.81-0.91,10.26-0.41c0.7,6.34,1.77,4.7-3.05,7.21c-11.65,6.07-7.86,8.82-5.08,6.6c12.42-9.92,16.04-4.33,16.76-14.52
		c5.79,0.3,11.78-1.93,17.78,0.81c-4.46,6.81-8.38,3.66-9.14,5.69c5.99,1.32,10.26-1.63,10.56-7.41c5.12-0.73,4.27-0.29,4.27,4.77
		c-2.13,1.93-3.47,4.45-5.69,6.3C791.84,147.37,796.77,140.02,781.97,156.46z M798.12,143.87c2.76-4.49,21.67-10.98,23.16-25.29
		c3.83-4.28,14,0.08,11.17-10.26c-1.07-3.91-6.46-3.82-9.34-6.7c-3.62-3.62-8.27-1.39-12.29-2.44c-4.27-1.12-8.33,0.1-12.29,0.51
		c-2.66,2.13-0.55,6.46-9.75,4.16c0.91-5.99,1.72-11.99,2.74-17.88c1.89-10.83,12.7-24.5,13.81-24.78
		c7.95-1.29,15.7-16.12,30.67-10.77c0.6,0.22,1.32,0.2,2.13,0.3c-0.61-1.12-2.03-0.61-2.44-1.73c1.56-0.67,11.6,2.52,15.24,3.35
		c17.25,3.94,38.55,26.61,37.99,52.82C887.37,177.72,820.21,192.91,798.12,143.87z M821.89,102.43c2.29,3.11,0.71,6.05,0.07,9.05
		C822.34,108.52,821.34,105.43,821.89,102.43z M826.87,106.29c4.67,1.42,5.08,4.37,1.73,8.13c-1.42,0-3.05,0-4.57,0
		C824.02,111.36,827.07,109.64,826.87,106.29z M891.47,110.75c0.81-2.13,0.3-4.37,0.71-6.91
		C899.56,103.3,898.22,114.39,891.47,110.75z"/>
	<path d="M711.69,576.26c-11.48-8.02-20.21-18.49-28.44-30.98c-0.51-1.73,2.44-4.98,0-8.23c-2.74,0.71-5.38,1.02-8.33,0.41
		c-3.91-25.62-4.94-26.15-2.03-45.5c0.19-1.27,6.93-47.52,4.37-52.21c-2.85,0.2,0.39,5.1-2.44,21.43c-4.58,26.41-2.11,18.19-3.45,26
		c-1.44,8.35-2.38,1.48-3.15,11.38c-0.96,12.41,3.27,34.26,5.08,39.31c-3.45,0.1-6.6,1.63-10.06,0.3
		c-2.54,4.06-7.52,0.91-10.97,3.05c-0.51-0.81-0.1-2.03-1.52-2.13c-1.52,0.51-1.23,1.93-1.32,3.05c-0.52,6.21-1.48,5.9-2.54,8.02
		c-1.83,4.77-2.24,9.95-3.66,14.83c-1.98,6.83,8.85,11.01,12.9,11.07c9.83,0.15,10.95,9.64,23.97,15.13
		c8.26,3.48,27.68,3.35,35.55-6.6C714.98,582.5,716.18,574.46,711.69,576.26z M694.01,565.29c-2.99-0.43-11.68,2.38-1.22-1.93
		C693.4,563.97,694.01,564.37,694.01,565.29z M683.45,550.97c1.12,0.61,1.63,1.32,1.93,2.44
		C668.83,556.1,667.11,556.41,683.45,550.97z M656.02,543.15c2.84-0.41,5.69-1.52,8.53,0.3c0.51-1.63,1.63-2.54,3.66-2.13
		c0.1,1.02,0.81,1.83,0.51,3.05c-4.06,2.13-8.53,1.52-13.1,2.95C655.72,545.58,655.21,544.36,656.02,543.15z M703.26,588.14
		c-4.99-0.48-14.55,2.25-19.91,0.3c-4.77-1.73-8.17-5.57-12.9-7.41c-4.46-1.73-2.77-7.94-17.67-9.55c-12.25-1.32-5.3-6.14-5.4-13.31
		c-0.06-3.66,2.23-6.3,3.45-9.45c1.04-1.56,1.02-0.02,1.73,1.63c7.11,1.22,17.47-1.83,19.91-6.09c-0.2-1.02-1.02-1.93-0.71-3.25
		c2.64-0.2,5.38,0.1,8.63-0.71c-0.91,3.25,0.81,5.69,1.02,8.43c-4.98,1.42-9.95,1.93-14.12,5.59c3.05,2.44,5.08,5.48,9.75,3.45
		c-1.52,1.83-3.57,2.34-2.44,4.27c1.55,2.62,12.62-1.42,15.54-2.23c0.71,0.71,1.52,1.22,1.12,2.34c-2.9,0-11.93-0.63-12.39,2.74
		c0.87,2.77,3.46,0.62,8.65,0.81c0.11-0.15,0.31,0,0.01,0c-0.66,0.87-2.25,0.58-2.45,2.44c3.96,2.44,7.82-0.51,11.68-0.71
		c4.77,4.37,10.56,7.52,15.34,11.99C712.19,584.18,708.13,588.61,703.26,588.14z"/>
	<path d="M240.49,428.17c2.68-4.42-0.56-4.91-1.42-2.84c-1.76,4.19-4.19,8.02-4.67,12.8c-0.52,5.21-4.82,11.47-4.57,23.67
		c-0.2,1.32,0.3,2.64-0.71,3.66c0.1,0.71-0.2,1.32,0.3,2.13c2.13-1.93,1.52-4.67,2.23-7.01c0.41,4.57-0.38,9.15-1.73,13.31
		c-5.42,16.78-10.59,51.1-1.02,63.28c0.08-0.67-4.19-23.95-2.64-37.48c1.4-12.21,5.44-18.8,7.52-37.48c1.1-9.9-2.91-6.23-1.12-10.77
		C235.83,443.46,235.99,435.6,240.49,428.17z"/>
	<path d="M759.53,85.36c5.76-13.96,2.71-16.23,5.08-20.62c2.35-4.36,0.51-8.43-0.71-12.39c-0.27,2.18-3.77,35.05-9.24,38.7
		c-4.37-0.2-8.94,0.3-13.81-0.61c0.96,3.5,2.98,2.95,10.97,2.95c1.2,5.32-2.3,12.7,2.84,11.78c-0.81-3.96-0.51-7.82-0.3-12.09
		C757.39,91.56,758.27,88.39,759.53,85.36z"/>
	<path d="M659.88,349.45c-0.18,3.45,0.2,6.7,0.41,10.16c0.2,0,0.51,0,0.71,0c0-73.04-7.05-26.97,3.96-74.96
		c-3.58,2.21-2.42,9.45-7.21,22.65C655.49,313.53,661.81,313.33,659.88,349.45z"/>
	<path d="M740.53,278.96c-1.83,0.71-3.15-1.63-4.88-0.51c-1.92,24.99-0.11,25.39,0.81,9.65c0.81,0.2,0.1,1.32,1.22,1.52
		c0.3-1.22,0.51-2.54,0.91-4.06c2.34,2.34,4.37,4.77,8.02,5.99C744.38,286.04,741.44,290.72,740.53,278.96z"/>
	<path d="M747.34,45.04c-4.77-0.66-9.55-1.42-13.71,2.64c2.23,0.71,3.35-1.02,5.08-1.42c1.83,1.12,4.27,1.12,6.5,1.73
		c-19.03,3.57-2.69,3.88,1.12,3.45c0.3-2.23,2.23-2.44,4.16-2.54C750.49,46.56,749.37,45.32,747.34,45.04z"/>
	<path d="M718.29,327.51c0.83,1.61,1.73,3.35,4.27,3.35C698.1,286.41,701.52,295.05,718.29,327.51z"/>
	<path d="M719.91,429.49c-3.37,2.32,0.91-0.53,10.36,23.77c0.91-2.13,0.21-8.03-1.63-9.75
		C725.04,440.11,726.51,433.44,719.91,429.49z"/>
	<path d="M753.23,125.28c1.32-1.52,3.66-1.22,4.88-3.15c-1.83-1.32-3.54-0.19-4.16,0.71c-3.44,5-9.52,4.52-13.41-0.51
		c-2.03,0.51-3.96,0.3-6.09,0.1C742.02,126.11,746.36,133.2,753.23,125.28z"/>
	<path d="M733.12,313.59c-1.12,7.62-4.47,14.42-7.62,21.33c5.18-5.18,8.94-11.07,10.36-18.89c-2.23,1.83-2.13,4.27-3.55,6.3
		C732.41,319.18,734.03,316.54,733.12,313.59z"/>
	<path d="M659.27,372.5c-3.96,11.07-6.6,22.45-11.27,33.32C654.2,395.56,656.74,383.98,659.27,372.5z"/>
	<path d="M679.79,360.32c0.61-1.02-0.11-1.62-0.51-2.03c-2.39-2.49-2.03-6.09-3.55-9.04c-2.94-5.69-5.38-11.58-7.41-17.57
		c-0.53-4.25-4.89-4,7.01,19.6C676.54,353.69,675.58,356.42,679.79,360.32z"/>
	<path d="M664.56,423.8c-4.65,0.39-1.09,10.94,1.52,15.03c1.42-1.22,2.13-2.94,1.02-4.57C664.95,431.12,664.86,427.56,664.56,423.8z
		"/>
	<path d="M717.07,335.74c0.27-5.08-18.38-7.5-22.96-7.82C692.76,329.27,703.72,328.97,717.07,335.74z"/>
	<path d="M200.98,403.48c8.78,7.53,6.92,10.14,13,9.34C209.62,410.09,207.89,403.89,200.98,403.48z"/>
	<path d="M711.89,233.15c-9.04-0.81-17.78-2.95-26.92-5.38C690.25,231.22,706.61,234.57,711.89,233.15z"/>
	<path d="M222.31,430.2c0.2-2.54,1.63-5.08,0.2-7.72c-4.16,7.01-3.76,10.67,3.76,13C224.75,433.45,223.53,431.82,222.31,430.2z"/>
	<path d="M663.24,276.93c1.12-4.47,2.64-8.53,8.02-10.06C667.4,261.21,661.17,270.89,663.24,276.93z"/>
	<path d="M744.49,75.1c-0.1,1.12,0.61,1.54,1.22,1.52c19.3-0.44,13.22-3.79,6.09-2.23C749.37,74.92,746.73,73.58,744.49,75.1z"/>
	<path d="M713.31,371.39c0,4.06,10.46,15.64,18.18,19.7C727.79,387.57,715.43,376.98,713.31,371.39z"/>
	<path d="M671.16,464.83c2.44-2.44,2.74-5.69,0.81-9.65C669.23,457.01,669.03,460.57,671.16,464.83z"/>
	<path d="M651.66,431.92c1.17-6.53-5.61-4.4-1.52-14.63c-3.66,1.93-1.73,5.69-3.15,8.33C650,429.34,649.78,431.75,651.66,431.92z"/>
	<path d="M747.13,225.73c1.22-5.08,4.47-9.95,2.03-15.85C748.45,211.01,746.63,224.41,747.13,225.73z"/>
	<path d="M724.08,408.77c-0.61,1.63-0.3,2.84,0.81,3.96c1.02,1.02,7.31,4.47,9.55,5.08C734.01,411.11,726.27,415.11,724.08,408.77z"
		/>
	<path d="M751.3,78.05c-1.83,0.1-2.54,1.42-3.15,3.45c3.35,0.91,5.99,0.71,8.84-0.81C755.56,77.95,753.33,78.05,751.3,78.05z"/>
	<path d="M673.9,392.72c-0.3-8.23,2.74-15.03,4.67-22.45C674.92,374.94,671.87,388.45,673.9,392.72z"/>
	<path d="M647.29,449.8c1.68-1.26,0.54-12.61,2.74-19.1c-4.15,0-1.75,10.28-3.45,16.05C646.27,447.57,646.17,448.79,647.29,449.8z"
		/>
	<path d="M205.35,520.09c0-5.38-0.81-10.67-2.13-15.85C202.61,509.73,202.91,515.01,205.35,520.09z"/>
	<path d="M752.92,195.57c1.83-2.64,2.03-8.43,0.41-11.07C751.3,185.92,751.2,188.36,752.92,195.57z"/>
	<path d="M228.1,445.84c-1.12-0.2-1.51,0.51-1.42,0.91C226.88,447.61,228.1,479.11,228.1,445.84z"/>
	<path d="M742.16,246.76c2.13-4.47,2.54-8.74,4.37-12.8C743.58,234.47,742.56,237.62,742.16,246.76z"/>
	<path d="M710.47,352.5c-4.16,1.02-8.13,2.95-12.39,3.76C701.53,357.37,708.13,355.44,710.47,352.5z"/>
	<path d="M734.95,345.99c-2.84-2.74-6.3-4.47-10.26-5.89C725.51,344.06,726.85,342.16,734.95,345.99z"/>
	<path d="M730.48,94.71c-2.54-3.96-4.06-8.53-7.62-11.78C724.59,87.39,727.23,91.25,730.48,94.71z"/>
	<path d="M729.46,455.18c-1.51,1.78,0.77,4.99-0.1,7.82c-0.61,1.32-0.81,2.54,0.1,4.37C731.49,463.92,731.39,459.35,729.46,455.18z"
		/>
	<path d="M693.61,202.27c-2.23-2.54-4.16-5.28-7.52-6.4C687.31,199.53,690.36,201.05,693.61,202.27z"/>
	<path d="M748.25,208.57c2.54-2.54,4.57-5.38,4.67-9.24c-0.87-0.43-0.07-1.9-5.38,8.74C747.74,208.26,747.95,208.47,748.25,208.57z"
		/>
	<path d="M742.36,333.7c-3.45-0.41-6.4-2.03-9.85-2.34C734.54,333.7,739.62,334.92,742.36,333.7z"/>
	<path d="M758.21,66.16c-3.45-1.93-6.3-1.02-6.5,2.13C753.43,66.27,756.68,69.11,758.21,66.16z"/>
	<path d="M745.71,209.48c-2.74-1.02-5.18,0.51-7.72,0.61C740.63,211.41,743.27,212.33,745.71,209.48z"/>
	<path d="M730.27,96.13c1.02,2.64,2.74,4.77,3.15,7.41C737.52,104.77,733.28,97.43,730.27,96.13z"/>
	<path d="M740.23,253.06c0.61,3.66-2.34,6.5-2.23,9.95C739.82,259.86,742.36,256.92,740.23,253.06z"/>
	<path d="M684.46,214.97c0,0.41-0.2,0.71-0.3,0.91c3.66,2.34,8.02,2.64,11.88,4.16C696.56,219.02,697.56,220,684.46,214.97z"/>
	<path d="M737.99,514.6c-0.71-3.05-3.35-4.98-4.47-8.23C733.42,509.93,734.74,512.47,737.99,514.6z"/>
	<path d="M202.1,498.86c0.91-2.84,0-5.79-0.1-8.63C200.17,493.07,200.58,495.91,202.1,498.86z"/>
	<path d="M205.45,439.85c2.54-1.83,2.84-3.56,0.91-6.81C206.06,435.17,205.76,437.41,205.45,439.85z"/>
	<path d="M655.52,442.28c1.02-3.45,1.02-5.99,0-8.53C654.4,436.19,654.4,438.93,655.52,442.28z"/>
	<path d="M209.72,509.53c1.12-2.95,1.12-5.99,1.02-9.04C209.52,503.33,209.21,506.38,209.72,509.53z"/>
	<path d="M224.34,437.41c0.61,2.34,0.91,4.47,2.03,6.5C227.7,440.76,227.19,438.63,224.34,437.41z"/>
	<path d="M229.02,465.44c-1.94-3.87-2.68,4.66-1.73,8.74C228.71,471.44,227.09,468.08,229.02,465.44z"/>
	<path d="M665.98,441.17c0.51,2.64-0.2,5.69,2.95,7.31C667.4,446.25,668.52,443.1,665.98,441.17z"/>
	<path d="M742.67,230.3c-2.74-1.02-2.74-1.02-5.59,0.3C740.23,232.03,740.23,232.03,742.67,230.3z"/>
	<path d="M713.21,420.95c-0.71-2.44-1.22-4.88-3.15-6.6C709.65,417.3,711.79,418.92,713.21,420.95z"/>
	<path d="M744.19,111.16c-1.22-2.54-1.73-4.67-4.37-5.69C740.13,108.32,741.24,109.94,744.19,111.16z"/>
	<path d="M728.45,487.69c0,2.84-0.2,5.79,2.03,8.02C729.46,493.07,729.97,490.12,728.45,487.69z"/>
	<path d="M210.84,482.1c-1.32,2.13-1.12,4.37-0.71,6.7C211.55,486.37,211.65,485.76,210.84,482.1z"/>
	<path d="M721.44,288c-0.41-2.64-0.41-5.48-1.93-7.92C719.81,282.92,719.71,285.66,721.44,288z"/>
	<path d="M702.85,207.55c-2.13-0.51-4.16-1.42-6.09-2.54C697.87,207.86,700.41,207.55,702.85,207.55z"/>
	<path d="M688.12,209.28c-1.63-1.52-3.25-3.05-4.88-4.57C683.35,207.76,685.58,208.77,688.12,209.28z"/>
	<path d="M726.62,502.21c-0.41,2.03-2.13,4.37,0.81,5.99C727.53,506.17,727.94,504.04,726.62,502.21z"/>
	<path d="M223.33,448.48c0.2,1.93,0.3,3.96,2.03,5.48C225.87,451.73,225.16,449.9,223.33,448.48z"/>
	<path d="M749.47,95.01c-2.54,1.22-3.45,2.95-4.16,4.88C746.93,98.77,748.76,97.75,749.47,95.01z"/>
	<path d="M216.93,438.22c0.51-1.93,0-3.05-1.73-4.27C214.19,436.29,215.51,437.1,216.93,438.22z"/>
	<path d="M210.23,437.92c-0.3,2.03,1.02,2.95,2.84,3.56C212.66,439.85,211.95,438.53,210.23,437.92z"/>
	<path d="M209.82,491.04c-0.61,2.03-0.41,3.96,0,6.3C211.14,494.39,211.14,493.07,209.82,491.04z"/>
	<path d="M722.35,176.78c-3.86-1.22-3.86-1.22-6.7-0.71C718.19,177.79,720.32,176.47,722.35,176.78z"/>
	<path d="M698.89,234.57c1.63,1.52,3.66,1.93,5.79,2.13C702.75,235.99,700.82,235.28,698.89,234.57z"/>
	<path d="M210.23,479.26c1.12-2.54,1.12-2.54,0-4.27C209.72,476.31,209.82,477.53,210.23,479.26z"/>
	<path d="M669.74,471.03c1.02-1.32,1.42-2.44,1.32-4.27C669.43,468.69,669.43,468.69,669.74,471.03z"/>
	<path d="M726.62,494.59c-0.61,1.83-1.32,3.15-0.41,4.77C726.82,498.05,727.84,496.73,726.62,494.59z"/>
	<path d="M765.93,149.96c-2.54-0.51-4.06,0.2-5.69,0.61C760.65,151.81,759.7,151.66,765.93,149.96z"/>
	<path d="M215.1,413.64c0.91,1.93,2.23,1.83,4.27,2.44C218.05,414.05,217.03,413.44,215.1,413.64z"/>
	<path d="M222.11,446.75c0.61-2.23-0.1-3.35-1.83-4.27C220.08,444.21,220.79,445.33,222.11,446.75z"/>
	<path d="M658.26,518.57c-1.12,1.83-1.22,3.66,0.61,5.89C658.67,522.02,658.46,520.29,658.26,518.57z"/>
	<path d="M710.06,198.72c1.02,1.63,2.34,2.23,4.16,3.15C713.41,199.73,712.3,198.82,710.06,198.72z"/>
	<path d="M709.25,198.31c-1.32-1.52-1.32-1.52-3.96-1.73C706.61,198.21,707.72,198.51,709.25,198.31z"/>
	<path d="M758.41,211.11c-1.32-0.61-2.54-1.12-3.76-1.63C755.16,211.72,756.99,210.9,758.41,211.11z"/>
	<path d="M674.41,428.88c-1.32-0.91-2.13,0.2-3.35,0.71C673.19,430.4,673.19,430.4,674.41,428.88z"/>
	<path d="M730.78,232.54c1.22,0.91,2.23,0.91,3.35,0C732.71,231.73,732.71,231.73,730.78,232.54z"/>
	<path d="M736.57,418.92c-1.32,0.61-1.83,1.42-1.52,2.54C736.98,421.26,736.98,421.26,736.57,418.92z"/>
	<path d="M201.19,487.89c1.12-1.83,1.12-2.84,0.1-4.27C200.58,484.94,200.78,486.06,201.19,487.89z"/>
	<path d="M755.46,171.39c2.13-0.81,2.13-0.81,0.61-3.25C754.85,169.16,755.56,170.38,755.46,171.39z"/>
	<path d="M227.09,406.23c-0.41,1.42,0,2.23,0.91,3.05C228.51,407.95,228.51,406.94,227.09,406.23z"/>
	<path d="M231.25,434.57c1.12,0.71,1.12,0.71,2.44-0.2C232.77,433.45,231.96,433.75,231.25,434.57z"/>
	<path d="M729.66,472.76c-1.12,1.42-0.91,2.64-0.91,3.76C729.87,475.6,730.48,474.69,729.66,472.76z"/>
	<path d="M668.82,476.01c1.32-0.61,0.81-1.42,0.41-2.74C668.31,474.48,668.31,475.19,668.82,476.01z"/>
	<path d="M738.5,175.66c1.32,1.12,2.23,0.91,3.45,0.3C740.84,175.35,739.92,175.25,738.5,175.66z"/>
	<path d="M210.84,469.3c-1.12,0.51-1.22,1.22-0.51,2.34C211.24,470.93,211.24,470.22,210.84,469.3z"/>
	<path d="M201.49,478.85c-0.71,0.91-0.61,1.63,0.2,2.44C202.51,480.27,202.3,479.66,201.49,478.85z"/>
	<path d="M739.21,104.56c-0.3-1.22-0.91-1.73-1.83-1.73C736.98,104.05,738.07,104.56,739.21,104.56z"/>
	<path d="M753.64,174.74c-0.79-0.56-1.91,0.96-1.22,1.83C753.33,176.17,753.74,175.56,753.64,174.74z"/>
	<path d="M740.43,269.71c5.09,0.53,8.23-7.72,8.43-7.52c0.81-0.71,1.52-1.52,2.03-3.15C750.61,259.23,744.4,266.86,740.43,269.71z"
		/>
	<path d="M685.79,232.74c0.1,0.81,0.71,0.61,1.12,0.71C686.7,232.84,686.39,232.64,685.79,232.74z"/>
	<path d="M734.64,303.03c0,1.41-0.04,1.22,0.1,1.22C734.64,303.74,734.64,303.44,734.64,303.03z"/>
	<path d="M660.09,526.89c-1.02,1.32-0.81,2.13-0.3,3.15C660.7,529.03,660.39,528.21,660.09,526.89z"/>
	<path d="M227.19,436.29c0.61,0.71,1.02,0.71,1.63,0.3C228.41,434.87,227.9,435.68,227.19,436.29z"/>
	<path d="M694.21,239.53c0,0.1,1.79,0.15,3.57,0.63C696.51,239.02,695.07,239.53,694.21,239.53z"/>
	<path d="M674.92,241.27c0-0.51-0.3-0.71-0.61-1.02C673.7,241.17,674.1,241.38,674.92,241.27z"/>
	<path d="M739.52,342.34c0.2-0.51,0.1-0.81-0.2-1.32C739.21,341.53,739.21,341.93,739.52,342.34z"/>
	<path d="M211.44,461.99c-0.51,0.81-0.3,1.52,0.1,2.64C212.26,463.51,212.26,462.8,211.44,461.99z"/>
	<path d="M222.11,415.98c0-1.22-1.55-0.6-1.02,0.2C221.4,416.49,221.81,416.38,222.11,415.98z"/>
	<path d="M733.32,393.23c0.1-0.51-0.2-0.71-0.71-0.81C732.51,393.02,733.02,393.02,733.32,393.23z"/>
	<path d="M702.44,240.87c-0.51,0-1.12-0.1-1.63-0.3C701.22,241.17,701.83,241.17,702.44,240.87z"/>
	<path d="M700.82,240.56c-0.34,0-0.37-0.51-2.95-0.51C698.79,240.66,699.8,240.66,700.82,240.56z"/>
	<path d="M730.07,270.32c-0.61,0.51-0.91,0.71-0.81,1.22C729.87,271.64,729.97,271.24,730.07,270.32z"/>
	<path d="M741.65,262.91c-1.02-0.1-1.12,0.51-1.32,1.02C740.76,264.35,740.43,264.43,741.65,262.91z"/>
	<path d="M754.96,173.12c1.02-0.41,0.51-1.12,0.51-1.63C754.65,171.8,754.04,172.21,754.96,173.12z"/>
	<path d="M728.45,478.55c0.91-0.61,0.41-1.32,0.41-1.93C727.33,476.92,728.04,477.73,728.45,478.55z"/>
	<path d="M153.35,270.83c0.3-1.42-0.17-2.75-0.41-4.06c-2.38-13.49-6.14-25.56-24.58-46.93c-0.41-0.41-0.91-1.12-2.23-0.3
		c3.76,4.98,7.39,9.88,11.17,14.63C149.52,249.5,149.2,270.55,153.35,270.83z"/>
	<path d="M147.45,342.54c6.09-8.84,8.53-18.79,8.43-29.35C154.64,318.72,153.14,326.81,147.45,342.54z"/>
	<path d="M154.87,310.44c1.02-7.52,2.74-14.93,0.2-22.45C155.38,295.51,154.06,303.03,154.87,310.44z"/>
	<path d="M127.75,359.2c0.2,0.3,0.41,0.51,0.61,0.81c6.7-3.15,12.59-7.31,17.78-12.59C145.02,346.3,147.82,344.67,127.75,359.2z"/>
	<path d="M125.41,218.42c-5.18-3.05-10.06-6.81-16.15-8.13c-0.37,1.12-2.87-0.25,15.64,8.84
		C125.11,219.03,125.21,218.73,125.41,218.42z"/>
	<path d="M126.12,360.01c-2.13,0-3.45,0.71-4.57,1.83C123.18,361.84,124.6,361.64,126.12,360.01z"/>
	<path d="M153.65,276.32c1.02-0.91,0.71-1.83,0.41-3.25C153.14,274.28,152.74,275.1,153.65,276.32z"/>
	<path d="M98.4,211.31c1.93-0.41,3.25-0.71,4.88-1.12C101.54,209.69,100.02,209.38,98.4,211.31z"/>
	<path d="M477.56,244.02c0.52-5.48-1.22-10.46-2.74-15.54c-0.41-0.61-0.81-0.81-1.42-0.71c-1.08,3.02,2.27,2.62,2.44,18.28
		c0.13,11.88,3.55,5.91,0.61,26.1c-0.47,3.22-5.98,12.68-5.79,15.13c2.23,0,7.35-16.1,8.02-22.04
		C479.81,255.36,476.65,253.69,477.56,244.02z"/>
	<path d="M456.44,205.72c-6.09-4.88-11.99-9.85-19.91-11.38C443.84,197.09,449.83,202.07,456.44,205.72z"/>
	<path d="M461.72,210.5c2.95,5.48,6.7,10.56,8.94,17.27C470.35,222.48,466.19,214.46,461.72,210.5z"/>
	<path d="M466.39,293.58c-1.93,2.74-3.96,5.38-5.99,8.33C463.34,300.59,465.58,297.75,466.39,293.58z"/>
	<path d="M454.81,307.4c-5.14,1.84-4.37,1.79-5.18,2.44C452.38,309.7,456.27,308.13,454.81,307.4z"/>
	<path d="M468.62,290.84c0.41-0.1,0.71-0.3,0.61-0.81C468.83,290.13,468.52,290.33,468.62,290.84z"/>
	<path d="M187.68,343.76c-4.16-1.12-8.23-2.23-12.29-3.45C178.94,342.85,183.11,344.06,187.68,343.76z"/>
	<path d="M164.82,387.54c1.02,2.13,2.03,4.27,3.05,6.3C167.97,391.09,166.75,389.06,164.82,387.54z"/>
	<path d="M159.85,368.85c1.02,1.42,2.44,2.23,4.06,2.74C162.89,370.17,161.47,369.25,159.85,368.85z"/>
	<path d="M163.91,371.69c0.2,0.71,0.71,1.02,1.83,1.32C165.13,372,164.72,371.59,163.91,371.69z"/>
	<path d="M273.71,299.68c0-4.24-23.7-4.86-23.97-3.25C256.64,298.87,270.76,300.9,273.71,299.68z"/>
	<path d="M213.37,307.8c-5.59,1.42-11.17,0.3-16.76-0.3C202.2,309.23,207.69,310.24,213.37,307.8z"/>
	<path d="M280.92,300.39c0.2-0.2,0.3-0.41,0.51-0.61c-1.52-1.22-2.84-2.84-4.57-3.55c-1.42-0.71-1.42-4.06-4.77-2.23
		C274.83,296.94,277.87,298.66,280.92,300.39z"/>
	<path d="M248.82,295.41c-1.73-1.52-1.93-1.52-6.4-0.81C246.08,296.43,246.89,296.53,248.82,295.41z"/>
	<path d="M213.58,294.5c-0.1-2.13-0.1-2.13-2.95-3.05C211.44,293.08,211.85,294.5,213.58,294.5z"/>
	<path d="M215.61,299.68c-0.1-1.52-1.12-2.44-1.73-4.06C213.27,298.56,213.27,298.56,215.61,299.68z"/>
	<path d="M239.38,293.38c-1.02-1.73-2.54-1.32-3.86-1.32C236.43,293.08,237.55,293.99,239.38,293.38z"/>
	<path d="M278.99,284.75c-0.22,2.12,1.75,2.25,2.95,3.15c-0.65-2.45-2.65-3.54-2.75-3.44c-0.04-1.26-0.84-1.85-2.22-2.14
		C276.76,283.93,277.97,284.24,278.99,284.75z"/>
	<path d="M271.78,312.78c0.3,1.02,0.51,1.83,0.71,2.74C273.3,314.41,273.1,313.49,271.78,312.78z"/>
	<path d="M230.13,284.24c-1.02-1.32-1.52-0.61-2.23-0.1C228.71,284.95,229.22,284.65,230.13,284.24z"/>
	<path d="M187.68,304.35c0-0.91-0.51-0.81-1.02-0.81C186.86,304.15,187.17,304.35,187.68,304.35z"/>
	<path d="M232.77,291.76c0.71-0.91,0.1-1.22-0.91-1.42C231.76,291.35,232.17,291.55,232.77,291.76z"/>
	<path d="M269.24,310.14c-0.61,1.12-0.1,1.22,0.61,1.32C270.15,310.55,269.65,310.44,269.24,310.14z"/>
	<path d="M285.8,430.71c-2.19,2.65,1.21,1.56,3.05,11.68c1.25,6.88-0.76,15.57,1.63,17.17C295.45,454.78,290.8,432.37,285.8,430.71z
		"/>
	<path d="M297.78,409.48c-7.36-3.11-2.54,6.33-18.08-7.92C281.53,409.98,290.67,413.84,297.78,409.48z"/>
	<path d="M302.05,394.44c-3.86,3.86-1.32,9.45-4.16,13.31C302.35,404.8,303.57,399.83,302.05,394.44z M301.44,399.83
		c0.1,0.61,0.2,1.12-0.2,1.32C300.37,401.44,299.82,400.03,301.44,399.83z"/>
	<path d="M279.19,408.26c-2.84-3.35-5.79-6.7-10.36-7.72C270.97,404.8,276.04,405.21,279.19,408.26z"/>
	<path d="M288.84,501.6c0.2-5.08,2.64-10.06,0-15.03C290.57,491.65,287.93,496.63,288.84,501.6z"/>
	<path d="M301.34,419.33c1.63-1.83,1.83-4.57,0.2-6.91C302.45,414.76,299.91,416.99,301.34,419.33z"/>
	<path d="M288.23,461.58c0.71,1.63-1.32,2.95-0.41,4.67C290.26,462.8,290.26,462.8,288.23,461.58z"/>
	<path d="M290.67,512.27c-0.1-2.34-2.03-3.76-2.44-5.99C287.22,509.02,289.25,510.54,290.67,512.27z"/>
	<path d="M299.91,407.85c-0.2,1.52,0.41,2.23,1.52,2.95C301.84,409.38,301.84,408.26,299.91,407.85z"/>
	<path d="M283.97,491.95c-1.12,0.61-0.71,1.52-0.61,2.74C284.47,493.78,284.68,493.07,283.97,491.95z"/>
	<path d="M299.3,425.02c1.02-0.71,1.42-1.63,1.02-3.25C299.2,422.78,298.8,423.7,299.3,425.02z"/>
	<path d="M275.33,418.52c-0.1,1.42,0.71,1.83,2.03,2.44C276.96,419.53,276.55,418.62,275.33,418.52z"/>
	<path d="M284.17,500.08c0.81-0.81,1.02-1.52,0.51-2.44C283.76,498.25,283.87,499.06,284.17,500.08z"/>
	<path d="M283.56,488.7c1.32-0.3,0.81-1.12,1.02-2.13C283.46,487.28,283.15,487.79,283.56,488.7z"/>
	<path d="M282.55,424.92c-0.3,1.02,0,1.52,1.22,1.52C284.07,425.12,283.46,424.92,282.55,424.92z"/>
	<path d="M280.82,411.2c0.3,1.52,0.81,1.93,1.93,2.03C282.65,412.12,282.14,411.61,280.82,411.2z"/>
	<path d="M285.29,472.15c1.02-0.81,1.52-1.42,0.61-2.23C284.78,470.32,285.08,471.03,285.29,472.15z"/>
	<path d="M347.75,278.55c2.34,1.22,2.44,1.42,4.98,0.61c6.93-2.22,8.48,4.06,13.41,0.2C359.94,275,353.95,276.11,347.75,278.55z"/>
	<path d="M349.89,281.7c3.76,2.54,6.6,2.23,9.14-0.91C354.15,279.67,353.44,279.77,349.89,281.7z"/>
	<path d="M319.52,304.76c1.63,3.76-2.44,5.69-2.74,8.94C321.95,310.65,322.97,307.7,319.52,304.76z"/>
	<path d="M310.99,278.35c-1.73,2.74-1.73,6.3,0,10.06C310.99,284.75,310.99,281.8,310.99,278.35z"/>
	<path d="M303.16,301.3c1.42-1.22,1.63-3.05,2.64-4.88C303.57,298.15,303.57,298.15,303.16,301.3z"/>
	<path d="M322.46,300.69c0.81-1.63,1.42-2.54,0.61-3.76C322.06,298.05,322.06,298.05,322.46,300.69z"/>
	<path d="M307.33,319.18c1.12,1.42,2.44,1.02,3.86,0.91C310.17,318.47,308.95,318.47,307.33,319.18z"/>
	<path d="M266.29,383.47c-2.3,0-4.7-0.05-7.1-0.1C259.02,383.37,259.37,384.06,266.29,383.47z"/>
	<path d="M256.34,390.58c-0.61-0.71-1.22-1.42-1.83-2.13C254.1,390.08,255.02,390.48,256.34,390.58z"/>
	<path d="M233.28,371.9c-0.41,0-0.71,0-1.22,0.1C232.57,372.2,232.88,372.3,233.28,371.9z"/>
	<path d="M233.89,365.5c0.37,0.09,0.21,0.03,0.1-0.1L233.89,365.5z"/>
	<path d="M234.3,365.7c1.31,0.65,0.97,0.31,2.13,0.61C235.92,365.63,233.85,365.33,234.3,365.7z"/>
	<path d="M238.26,366.51c-0.61-0.41-1.22-0.2-1.73-0.3C237.04,366.61,237.55,366.92,238.26,366.51z"/>
	<path d="M231.18,364.88c-0.42,0.05-0.08,0.52,2.71,0.52C232.59,364.82,231.08,364.8,231.18,364.88z"/>
	<path d="M224.45,338.58c0.81,1.32,1.83,2.23,3.86,2.23C227.09,339.39,225.77,338.78,224.45,338.58z"/>
	<path d="M217.95,559.4c-2.45-1.92-4.16-1.02-7.41,3.66C218.07,571.01,221.81,562.43,217.95,559.4z M214.09,564.48
		c0.61-1.52,0.61-1.63-0.2-3.25c1.02-1.22,2.15-1.34,3.25-0.41C219.1,562.49,216.51,566.21,214.09,564.48z"/>
	<path d="M224.34,573.62c1.02,2.13,2.52-0.18,3.56,0.61c1.1,0.84-1.32,2.13,0.81,3.05c1.63-1.63,2.95-3.66,4.57-5.79
		c-1.02-0.81-1.73-1.52-2.64-2.13c-2.13-1.42-3.95-0.81-4.27,1.63C226.18,572.5,225.16,572.91,224.34,573.62z M229.63,572.91
		c-0.81-0.2-1.42-0.71-1.63-1.63C229.49,569.29,231.94,572.04,229.63,572.91z"/>
	<path d="M222.31,571.99c5.31-0.12,5.18-7.92-0.2-7.92C216.86,564.07,216.97,572.11,222.31,571.99z M222.31,565.9
		c2.85-0.2,2.95,4.03-0.1,4.47C218.88,570.37,219.43,566.1,222.31,565.9z"/>
	<path d="M387.27,276.62c2.44,1.32,4.98,2.13,7.72,0.81C392.45,276.93,389.91,276.21,387.27,276.62z"/>
	<path d="M384.93,271.24c0.3-1.12,0.91-2.13,0-3.25C383.81,269.21,384.83,270.32,384.93,271.24z"/>
	<path d="M398.84,278.65c-2.03,0.2-2.44,1.32-3.55,2.34C397.22,280.99,397.93,280.18,398.84,278.65z"/>
	<path d="M194.69,325.58c0,0,0.2,0.2,0.41,0.51C195.7,325.27,194.69,325.38,194.69,325.58z"/>
	<path d="M4.34,299.37c0,1.73,0,1.73,1.73,2.54C6.27,300.49,4.75,300.29,4.34,299.37z"/>
	<path d="M555.87,110.55c-1.68-28.12-21.68-54.52-23.77-53.12c12.1,21.18,14.49,13.72,21.74,50.68
		C554.04,109.13,554.25,110.14,555.87,110.55z"/>
	<path d="M555.47,152.91c-2.23,10.06-6.3,19.3-10.26,28.64C551.71,173.12,554.86,163.47,555.47,152.91z"/>
	<path d="M524.29,196.79c0.2,0.3,0.3,0.51,0.51,0.81c6.91-2.64,13.1-6.4,18.59-11.38C542.53,184.94,544.8,184,524.29,196.79z"/>
	<path d="M555.06,150.57c1.12-8.02,3.45-15.44,1.22-23.16C556.07,142.18,552.28,147.79,555.06,150.57z"/>
	<path d="M515.04,47.68c5.59,3.25,10.67,6.3,16.05,9.45C529.06,53.57,519.21,47.58,515.04,47.68z"/>
	<path d="M517.89,199.12c1.52-0.1,2.95-0.1,4.37-1.32C520.32,197.29,519,198.21,517.89,199.12z"/>
	<path d="M555.57,115.73c1.32-0.71,1.22-1.73,0.51-3.05C555.16,113.8,555.06,114.72,555.57,115.73z"/>
	<path d="M505.29,46.97c1.42,0.61,2.34-0.3,3.25-0.61C507.32,45.75,506.31,45.75,505.29,46.97z"/>
	<path d="M685.89,111.16c4.16,1.83,9.04,0.91,12.8,4.16C696.55,110.96,689.54,108.62,685.89,111.16z"/>
	<path d="M592.03,179.11c4.88,3.15,10.97,2.84,13.71-0.71C600.97,177.79,596.5,180.74,592.03,179.11z"/>
	<path d="M580.15,154.33c2.23,0.1,3.25,3.35,5.79,2.03c-3.86-1.73-6.81-5.89-12.19-5.69C575.38,153.72,578.02,154.23,580.15,154.33z
		"/>
	<path d="M677.05,147.52c0.2-0.91,1.22-1.32,1.02-2.23c-1.2-1.2,0.74,1.52-10.46,1.52C670.96,149.96,674,147.62,677.05,147.52z"/>
	<path d="M706.71,117.86c-2.13-2.74-3.66-3.35-5.38-2.13C702.75,117.86,704.68,117.86,706.71,117.86z"/>
	<path d="M666.38,147.62c-1.52-1.93-1.63-1.93-5.59-1.93C662.32,146.91,663.74,148.84,666.38,147.62z"/>
	<path d="M703.97,171.19c0-0.41,1.3,0.79,2.44-0.2c-1.52-1.83-1.52-1.83-2.74-0.1c0.61,0.81-2.06-1.57-2.23-1.63
		c-1.12-0.51-1.52,0.61-2.13,0.91C701.22,172.51,702.04,172.71,703.97,171.19z"/>
	<path d="M685.48,184.39c-1.22,0.71-0.41,1.52-0.51,2.23c-2.99-2.83-2.62-9.1-5.18-10.06c-3.15,0.5-2.33,8.42,5.28,11.68
		c0.51-0.2,0.3-0.71,0.41-1.12c0.91,0,1.52,1.02,2.74,0.51C687.71,186.12,686.8,185.1,685.48,184.39z"/>
	<path d="M581.67,174.24c1.42,1.63,3.35,2.03,4.98,3.25C585.74,174.95,583.81,174.44,581.67,174.24z"/>
	<path d="M608.39,162.05c0.3-1.83-0.91-3.35-0.81-5.08C606.15,160.22,606.15,160.22,608.39,162.05z"/>
	<path d="M676.44,178.6c0.83-0.83,1.08,0.39-2.54-5.18C674,176.17,674.41,177.79,676.44,178.6z"/>
	<path d="M611.54,170.88c1.42,1.22,2.64,2.03,4.47,0.81C614.68,169.87,613.47,169.77,611.54,170.88z"/>
	<path d="M657.45,121.01c-2.13,0-2.13,0-2.54,2.23C656.74,122.54,656.74,122.54,657.45,121.01z"/>
	<path d="M618.75,173.83c1.42,1.63,2.34,1.32,3.45,0.1C620.88,173.22,619.97,173.32,618.75,173.83z"/>
	<path d="M588.58,156.56c0.3,1.42,1.22,1.42,2.54,1.42C590.41,156.77,589.8,156.16,588.58,156.56z"/>
	<path d="M572.84,168.55c0.61,1.22,1.52,1.22,2.74,1.63C575.07,168.55,574.16,168.65,572.84,168.55z"/>
	<path d="M578.83,171.6c-0.51,1.32,0.61,1.42,1.52,2.44C580.25,172.21,579.64,171.9,578.83,171.6z"/>
	<path d="M652.27,142.44c-0.61-0.91-1.12-0.91-1.83-0.2C651.15,143.05,651.66,142.75,652.27,142.44z"/>
	<path d="M646.58,141.53c-0.3-1.22-0.91-1.02-1.73-0.71C645.36,141.73,645.87,141.63,646.58,141.53z"/>
	<path d="M406.46,131.58c0.41-1.42-0.81-1.93-1.63-3.15C404.33,130.56,405.55,130.97,406.46,131.58z"/>
	<path d="M879.08,107.2c-0.47,3.76,0.66,7.52,0.71,11.17c0.21,14.88-2.07,15.16-9.04,29.96c1.32-0.1,1.62-0.92,1.93-1.52
		c6.04-11.82,10.63-21.7,7.82-34.94c-1.03-4.83,2.85-5.54-1.22-22.14c-0.2-0.51-0.41-1.02-1.73-0.81
		C878.57,95.02,879.89,100.73,879.08,107.2z"/>
	<path d="M843.32,53.06c6.6,2.64,11.58,7.72,17.67,11.17C855.61,59.87,850.74,54.48,843.32,53.06z"/>
	<path d="M875.22,87.49c-1.02-6.3-3.55-11.88-7.72-16.66C869.93,76.52,873.39,81.7,875.22,87.49z"/>
	<path d="M860.49,161.54c3.45-1.12,4.98-4.06,6.81-6.7C866.59,153.78,867.01,153.39,860.49,161.54z"/>
	<path d="M855.11,167.13c-2.64,0.41-4.37,0.81-5.89,1.93C851.04,168.85,852.87,168.75,855.11,167.13z"/>
	<path d="M868.92,151.48c0.61,0.41,0.51-0.3,0.51-0.71C869.22,150.98,869.12,151.18,868.92,151.48z"/>
	<path d="M792.23,139.6c4.47-2.64,7.92-6.4,11.27-10.36C798.23,131.17,796.3,136.45,792.23,139.6z"/>
	<path d="M807.67,132.39c1.12-2.23-0.2-3.45-1.02-4.67C806.66,129.34,806.25,130.87,807.67,132.39z"/>
	<path d="M800.26,125.18c1.42,0.91,2.44,2.34,4.06,0.51C803.1,125.58,801.98,124.26,800.26,125.18z"/>
	<path d="M802.59,132.8c1.22,0.3,1.12-0.91,1.52-1.32C803.1,131.37,802.59,131.88,802.59,132.8z"/>
	<path d="M799.85,127.72c-0.1-1.02-0.61-0.91-1.32-0.61C798.73,127.72,799.14,127.92,799.85,127.72z"/>
	<path d="M662.22,557.37c-2.31-1.86-4.06-1.02-7.62,3.66C662.7,568.51,665.93,560.36,662.22,557.37z M657.55,562.44
		c3.66-1.32,0.1-2.23,0.61-3.35C661.92,554.96,664.53,564.68,657.55,562.44z"/>
	<path d="M670.45,568.84c-0.44,1.52-0.71,2.03-1.93,2.95c1.32,1.42,2.56-0.54,3.96,0.61c0.72,0.59-1.83,1.93,0.41,2.64
		c1.63-1.52,2.95-3.55,4.37-5.59C676.89,568.72,672,563.44,670.45,568.84z M674.1,570.87c-1.12-0.2-1.93-0.61-1.73-1.93
		C674.71,568.84,674.71,568.84,674.1,570.87z"/>
	<path d="M666.28,562.04c-4.97,0.11-5.28,7.69,0,7.92C671.92,570.21,671.92,561.92,666.28,562.04z M666.38,568.34
		c-3.13,0.22-2.85-4.37,0-4.57C669.49,563.55,669.32,568.13,666.38,568.34z"/>
<path fill="#e6e6e6" d="m206.8 163.6c0-5.1 4.1-9.2 9.3-9.2s9.2 4.2 9.2 9.2-4.1 9.2-9.3 9.2-9.2-4.1-9.2-9.2zm17.3-.1c0-4.5-3.5-8.2-8.2-8.2s-8.2 3.7-8.2 8.3c0 4.5 3.5 8.2 8.2 8.2s8.2-3.7 8.2-8.3zm-13 0c0-2.8 2.1-5.1 5.1-5.1 1.9 0 2.9.6 3.9 1.5l-1.4 1.7c-.8-.7-1.5-1.1-2.5-1.1-1.7 0-2.8 1.4-2.8 3.1s1.1 3 2.8 3c1.1 0 1.7-.5 2.5-1.1l1.4 1.4c-1.1 1.1-2.1 1.7-4 1.7-2.9 0-5-2.3-5-5.1z"/><path fill="#e6e6e6" d="m226.6 154.7h3.4l4.2 13.2 4.4-13.3h2.6l4.4 13.3 4.2-13.2h3.3l-6.2 18h-2.7l-4.4-12.8-4.4 12.8h-2.7z"/><path fill="#e6e6e6" d="m252.8 165.8c0-3.9 3.1-7 7.2-7 4.2 0 7.2 3.2 7.2 7s-3.1 7-7.3 7c-4 0-7.1-3.1-7.1-7zm11.3 0c0-2.3-1.7-4.3-4.2-4.3s-4.1 2-4.1 4.3 1.7 4.3 4.1 4.3c2.7.1 4.2-1.9 4.2-4.3z"/><path fill="#e6e6e6" d="m269.5 159.1h3.1v3c.8-2 2.4-3.4 4.8-3.3v3.2h-.2c-2.7 0-4.6 1.7-4.6 5.4v5.1h-3.1z"/><path fill="#e6e6e6" d="m279.1 153.9h3.1v11.1l5.6-6h3.8l-5.4 5.5 5.5 8h-3.5l-4.1-5.8-1.9 2v3.9h-3.1z"/><path fill="#e6e6e6" d="m291.7 165.8c0-3.9 3.1-7 7.2-7 4.2 0 7.2 3.2 7.2 7s-3.1 7-7.3 7c-4 0-7.1-3.1-7.1-7zm11.3 0c0-2.3-1.7-4.3-4.2-4.3s-4.1 2-4.1 4.3 1.7 4.3 4.1 4.3c2.6.1 4.2-1.9 4.2-4.3z"/><path fill="#e6e6e6" d="m308.2 167.6v-8.6h3.1v7.6c0 2.1 1.1 3.3 2.9 3.3s3-1.3 3-3.3v-7.6h3.1v13.4h-3.1v-2.1c-.8 1.3-2.1 2.3-4.2 2.3-3.1.2-4.8-1.8-4.8-5z"/><path fill="#e6e6e6" d="m323.9 168.8v-7.1h-1.7v-2.6h1.7v-3.7h3.1v3.7h3.6v2.6h-3.6v6.6c0 1.2.6 1.7 1.7 1.7.7 0 1.3-.2 1.9-.5v2.5c-.8.5-1.7.7-2.8.7-2.3 0-3.9-.9-3.9-3.9z"/><path fill="#e6e6e6" d="m333.2 154.7h3.2v15h9.4v2.9h-12.5v-17.9z"/><path fill="#e6e6e6" d="m356 172.5v-1.7c-.9 1.1-2.3 2-4.4 2-2.6 0-4.8-1.4-4.8-4.2 0-3 2.3-4.4 5.4-4.4 1.7 0 2.6.2 3.7.5v-.2c0-1.9-1.2-2.9-3.3-2.9-1.5 0-2.6.3-3.9.8l-.8-2.5c1.5-.7 2.9-1.1 5.1-1.1 4 0 5.9 2.1 5.9 5.7v8zm.1-5.6c-.8-.3-1.9-.5-3.1-.5-2 0-3.1.8-3.1 2.1s1.1 2 2.6 2c2 0 3.5-1.1 3.5-2.9z"/><path fill="#e6e6e6" d="m364.9 170.5v2.1h-3.1v-18.7h3.1v7.4c1-1.4 2.4-2.5 4.5-2.5 3.2 0 6.3 2.5 6.3 7s-3.1 7-6.3 7c-2.1 0-3.5-1.1-4.5-2.3zm7.7-4.7c0-2.6-1.7-4.3-3.9-4.3s-3.9 1.7-3.9 4.4c0 2.6 1.8 4.3 3.9 4.3s3.9-1.7 3.9-4.4z"/><path fill="#e6e6e6" d="m376.9 170.8 1.4-2.1c1.4 1.1 3 1.7 4.4 1.7s2.1-.5 2.1-1.5-1.3-1.4-2.8-1.8c-.1 0-.2-.1-.2-.1-2-.6-4.2-1.4-4.2-4s2.1-4.1 4.8-4.1c1.7 0 3.5.6 5 1.5l-1.2 2.2c-1.3-.8-2.6-1.3-3.8-1.3s-1.9.5-1.9 1.4 1.3 1.4 2.8 1.8c.1 0 .2.1.2.1 2 .6 4.2 1.5 4.2 4 0 2.9-2.2 4.2-5 4.2-1.9 0-4-.7-5.8-2z"/><path fill="#e6e6e6" d="m505.6 163.6c0-5.1 4.1-9.2 9.3-9.2s9.2 4.2 9.2 9.2-4.1 9.2-9.3 9.2-9.2-4.1-9.2-9.2zm17.4-.1c0-4.5-3.5-8.2-8.2-8.2s-8.2 3.7-8.2 8.3c0 4.5 3.5 8.2 8.2 8.2s8.2-3.7 8.2-8.3zm-13.1 0c0-2.8 2.1-5.1 5.1-5.1 1.9 0 2.9.6 3.9 1.5l-1.4 1.7c-.8-.7-1.5-1.1-2.5-1.1-1.7 0-2.8 1.4-2.8 3.1s1.1 3 2.8 3c1.1 0 1.7-.5 2.5-1.1l1.4 1.4c-1.1 1.1-2.1 1.7-4 1.7-2.9 0-5-2.3-5-5.1z"/><path fill="#e6e6e6" d="m525.4 154.7h3.4l4.2 13.2 4.4-13.3h2.6l4.4 13.3 4.2-13.2h3.3l-6.2 18h-2.7l-4.4-12.8-4.4 12.8h-2.7z"/><path fill="#e6e6e6" d="m551.7 165.8c0-3.9 3.1-7 7.2-7 4.2 0 7.2 3.2 7.2 7s-3.1 7-7.3 7c-4.1 0-7.1-3.1-7.1-7zm11.2 0c0-2.3-1.7-4.3-4.2-4.3s-4.1 2-4.1 4.3 1.7 4.3 4.1 4.3c2.7.1 4.2-1.9 4.2-4.3z"/><path fill="#e6e6e6" d="m568.3 159.1h3.1v3c.8-2 2.4-3.4 4.8-3.3v3.2h-.2c-2.7 0-4.6 1.7-4.6 5.4v5.1h-3.1z"/><path fill="#e6e6e6" d="m577.9 153.9h3.1v11.1l5.6-6h3.8l-5.4 5.5 5.5 8h-3.5l-4.1-5.8-1.9 2v3.9h-3.1z"/><path fill="#e6e6e6" d="m590.6 165.8c0-3.9 3.1-7 7.2-7 4.2 0 7.2 3.2 7.2 7s-3.1 7-7.3 7c-4.1 0-7.1-3.1-7.1-7zm11.2 0c0-2.3-1.7-4.3-4.2-4.3s-4.1 2-4.1 4.3 1.7 4.3 4.1 4.3c2.6.1 4.2-1.9 4.2-4.3z"/><path fill="#e6e6e6" d="m607 167.6v-8.6h3.1v7.6c0 2.1 1.1 3.3 2.9 3.3s3-1.3 3-3.3v-7.6h3.1v13.4h-3.1v-2.1c-.8 1.3-2.1 2.3-4.2 2.3-3 .2-4.8-1.8-4.8-5z"/><path fill="#e6e6e6" d="m622.7 168.8v-7.1h-1.7v-2.6h1.7v-3.7h3.1v3.7h3.6v2.6h-3.6v6.6c0 1.2.6 1.7 1.7 1.7.7 0 1.3-.2 1.9-.5v2.5c-.8.5-1.7.7-2.8.7-2.3 0-3.9-.9-3.9-3.9z"/><path fill="#e6e6e6" d="m632 154.7h3.2v15h9.4v2.9h-12.6z"/><path fill="#e6e6e6" d="m654.8 172.5v-1.7c-.9 1.1-2.3 2-4.4 2-2.6 0-4.8-1.4-4.8-4.2 0-3 2.3-4.4 5.4-4.4 1.7 0 2.6.2 3.7.5v-.2c0-1.9-1.2-2.9-3.3-2.9-1.5 0-2.6.3-3.9.8l-.8-2.5c1.5-.7 2.9-1.1 5.1-1.1 4 0 5.9 2.1 5.9 5.7v8zm.1-5.6c-.8-.3-1.9-.5-3.1-.5-2 0-3.1.8-3.1 2.1s1.1 2 2.6 2c2 0 3.5-1.1 3.5-2.9z"/><path fill="#e6e6e6" d="m663.7 170.5v2.1h-3.1v-18.7h3.1v7.4c1-1.4 2.4-2.5 4.5-2.5 3.2 0 6.3 2.5 6.3 7s-3.1 7-6.3 7c-2.1 0-3.5-1.1-4.5-2.3zm7.8-4.7c0-2.6-1.7-4.3-3.9-4.3-2.1 0-3.9 1.7-3.9 4.4 0 2.6 1.8 4.3 3.9 4.3s3.9-1.7 3.9-4.4z"/><path fill="#e6e6e6" d="m675.8 170.8 1.4-2.1c1.4 1.1 3 1.7 4.4 1.7s2.1-.5 2.1-1.5-1.3-1.4-2.8-1.8c-.1 0-.2-.1-.2-.1-2-.6-4.2-1.4-4.2-4s2.1-4.1 4.8-4.1c1.7 0 3.5.6 5 1.5l-1.2 2.2c-1.3-.8-2.6-1.3-3.8-1.3s-1.9.5-1.9 1.4 1.3 1.4 2.8 1.8c.1 0 .2.1.2.1 2 .6 4.2 1.5 4.2 4 0 2.9-2.2 4.2-5 4.2-2 0-4.1-.7-5.8-2z"/><path fill="#e6e6e6" d="m61 298.6c0-5.1 4.1-9.2 9.3-9.2s9.2 4.2 9.2 9.2-4.1 9.2-9.3 9.2c-5.1 0-9.2-4.2-9.2-9.2zm17.4-.1c0-4.5-3.5-8.2-8.2-8.2s-8.2 3.7-8.2 8.3c0 4.5 3.5 8.2 8.2 8.2s8.2-3.7 8.2-8.3zm-13.1-.1c0-2.8 2.1-5.1 5.1-5.1 1.9 0 2.9.6 3.9 1.5l-1.4 1.7c-.8-.7-1.5-1.1-2.5-1.1-1.7 0-2.8 1.4-2.8 3.1s1.1 3 2.8 3c1.1 0 1.7-.5 2.5-1.1l1.4 1.4c-1.1 1.1-2.1 1.7-4 1.7-2.8.1-5-2.2-5-5.1z"/><path fill="#e6e6e6" d="m80.9 289.7h3.4l4.2 13.2 4.4-13.3h2.6l4.4 13.3 4.2-13.2h3.3l-6.2 18h-2.7l-4.4-12.8-4.4 12.8h-2.7z"/><path fill="#e6e6e6" d="m107.1 300.8c0-3.9 3.1-7 7.2-7s7.2 3.2 7.2 7-3.1 7-7.3 7c-4 0-7.1-3.1-7.1-7zm11.3 0c0-2.3-1.7-4.3-4.2-4.3s-4.1 2-4.1 4.3 1.7 4.3 4.1 4.3c2.6.1 4.2-1.9 4.2-4.3z"/><path fill="#e6e6e6" d="m123.7 294h3.1v3c.8-2 2.4-3.4 4.8-3.3v3.2h-.2c-2.7 0-4.6 1.7-4.6 5.4v5.1h-3.1z"/><path fill="#e6e6e6" d="m133.4 288.9h3.1v11.1l5.6-6h3.8l-5.4 5.5 5.5 8h-3.5l-4.1-5.8-1.9 1.9v3.9h-3.1z"/><path fill="#e6e6e6" d="m146 300.8c0-3.9 3.1-7 7.2-7s7.2 3.2 7.2 7-3.1 7-7.3 7c-4.1 0-7.1-3.1-7.1-7zm11.2 0c0-2.3-1.7-4.3-4.2-4.3s-4.1 2-4.1 4.3 1.7 4.3 4.1 4.3c2.6.1 4.2-1.9 4.2-4.3z"/><path fill="#e6e6e6" d="m162.4 302.6v-8.6h3.1v7.6c0 2.1 1.1 3.3 2.9 3.3s3-1.3 3-3.3v-7.6h3.1v13.4h-3.1v-2.1c-.8 1.3-2.1 2.3-4.2 2.3-3 .2-4.8-1.8-4.8-5z"/><path fill="#e6e6e6" d="m178.1 303.8v-7.1h-1.7v-2.7h1.7v-3.7h3.1v3.7h3.6v2.6h-3.6v6.6c0 1.2.6 1.7 1.7 1.7.7 0 1.3-.2 1.9-.5v2.5c-.8.5-1.7.7-2.8.7-2.3.1-3.9-.9-3.9-3.8z"/><path fill="#e6e6e6" d="m187.4 289.7h3.2v15h9.4v2.9h-12.5v-17.9z"/><path fill="#e6e6e6" d="m210.2 307.5v-1.7c-.9 1.1-2.3 2-4.4 2-2.6 0-4.8-1.4-4.8-4.2 0-3 2.3-4.4 5.4-4.4 1.7 0 2.6.2 3.7.5v-.2c0-1.9-1.2-2.9-3.3-2.9-1.5 0-2.6.3-3.9.8l-.8-2.5c1.5-.7 2.9-1.1 5.1-1.1 4 0 5.9 2.1 5.9 5.7v8zm.1-5.6c-.8-.3-1.9-.5-3.1-.5-2 0-3.1.8-3.1 2.1s1.1 2 2.6 2c2 0 3.5-1.1 3.5-2.9z"/><path fill="#e6e6e6" d="m219.2 305.5v2.1h-3.1v-18.7h3.1v7.4c1-1.4 2.4-2.5 4.5-2.5 3.2 0 6.3 2.5 6.3 7s-3.1 7-6.3 7c-2.2 0-3.6-1.1-4.5-2.3zm7.7-4.7c0-2.6-1.7-4.3-3.9-4.3s-3.9 1.7-3.9 4.4c0 2.6 1.8 4.3 3.9 4.3s3.9-1.7 3.9-4.4z"/><path fill="#e6e6e6" d="m231.2 305.8 1.4-2.1c1.4 1.1 3 1.7 4.4 1.7s2.1-.5 2.1-1.5-1.3-1.4-2.8-1.8c-.1 0-.2-.1-.2-.1-2-.6-4.2-1.4-4.2-4s2.1-4.1 4.8-4.1c1.7 0 3.5.6 5 1.5l-1.2 2.2c-1.3-.8-2.6-1.3-3.8-1.3s-1.9.5-1.9 1.4 1.3 1.4 2.8 1.8c.1 0 .2.1.2.1 2 .6 4.2 1.5 4.2 4 0 2.9-2.2 4.2-5 4.2-2 0-4.1-.7-5.8-2z"/><path fill="#e6e6e6" d="m360.6 298.6c0-5.1 4.1-9.2 9.3-9.2s9.2 4.2 9.2 9.2-4.1 9.2-9.3 9.2-9.2-4.2-9.2-9.2zm17.4-.1c0-4.5-3.5-8.2-8.2-8.2s-8.2 3.7-8.2 8.3c0 4.5 3.5 8.2 8.2 8.2s8.2-3.7 8.2-8.3zm-13.1-.1c0-2.8 2.1-5.1 5.1-5.1 1.9 0 2.9.6 3.9 1.5l-1.4 1.7c-.8-.7-1.5-1.1-2.5-1.1-1.7 0-2.8 1.4-2.8 3.1s1.1 3 2.8 3c1.1 0 1.7-.5 2.5-1.1l1.4 1.4c-1.1 1.1-2.1 1.7-4 1.7-2.8.1-5-2.2-5-5.1z"/><path fill="#e6e6e6" d="m380.5 289.7h3.4l4.2 13.2 4.4-13.3h2.6l4.4 13.3 4.2-13.2h3.3l-6.2 18h-2.7l-4.4-12.8-4.4 12.8h-2.7z"/><path fill="#e6e6e6" d="m406.7 300.8c0-3.9 3.1-7 7.2-7 4.2 0 7.2 3.2 7.2 7s-3.1 7-7.3 7c-4.1 0-7.1-3.1-7.1-7zm11.3 0c0-2.3-1.7-4.3-4.2-4.3s-4.1 2-4.1 4.3 1.7 4.3 4.1 4.3c2.7.1 4.2-1.9 4.2-4.3z"/><path fill="#e6e6e6" d="m423.3 294h3.1v3c.8-2 2.4-3.4 4.8-3.3v3.2h-.2c-2.7 0-4.6 1.7-4.6 5.4v5.1h-3.1z"/><path fill="#e6e6e6" d="m433 288.9h3.1v11.1l5.6-6h3.8l-5.4 5.5 5.5 8h-3.5l-4.1-5.8-1.9 2v3.9h-3.1z"/><path fill="#e6e6e6" d="m445.6 300.8c0-3.9 3.1-7 7.2-7 4.2 0 7.2 3.2 7.2 7s-3.1 7-7.3 7c-4.1 0-7.1-3.1-7.1-7zm11.3 0c0-2.3-1.7-4.3-4.2-4.3s-4.1 2-4.1 4.3 1.7 4.3 4.1 4.3c2.6.1 4.2-1.9 4.2-4.3z"/><path fill="#e6e6e6" d="m462.1 302.6v-8.6h3.1v7.6c0 2.1 1.1 3.3 2.9 3.3s3-1.3 3-3.3v-7.6h3.1v13.4h-3.1v-2.1c-.8 1.3-2.1 2.3-4.2 2.3-3.1.2-4.8-1.8-4.8-5z"/><path fill="#e6e6e6" d="m477.8 303.8v-7.1h-1.8v-2.7h1.7v-3.7h3.1v3.7h3.6v2.6h-3.6v6.6c0 1.2.6 1.7 1.7 1.7.7 0 1.3-.2 1.9-.5v2.5c-.8.5-1.7.7-2.8.7-2.2.1-3.8-.9-3.8-3.8z"/><path fill="#e6e6e6" d="m487.1 289.7h3.2v15h9.4v2.9h-12.5v-17.9z"/><path fill="#e6e6e6" d="m509.9 307.5v-1.7c-.9 1.1-2.3 2-4.4 2-2.6 0-4.8-1.4-4.8-4.2 0-3 2.3-4.4 5.4-4.4 1.7 0 2.6.2 3.7.5v-.2c0-1.9-1.2-2.9-3.3-2.9-1.5 0-2.6.3-3.9.8l-.8-2.5c1.5-.7 2.9-1.1 5.1-1.1 4 0 5.9 2.1 5.9 5.7v8zm.1-5.6c-.8-.3-1.9-.5-3.1-.5-2 0-3.1.8-3.1 2.1s1.1 2 2.6 2c2 0 3.5-1.1 3.5-2.9z"/><path fill="#e6e6e6" d="m518.8 305.5v2.1h-3.1v-18.7h3.1v7.4c1-1.4 2.4-2.5 4.5-2.5 3.2 0 6.3 2.5 6.3 7s-3.1 7-6.3 7c-2.2 0-3.5-1.1-4.5-2.3zm7.7-4.7c0-2.6-1.7-4.3-3.9-4.3s-3.9 1.7-3.9 4.4c0 2.6 1.8 4.3 3.9 4.3s3.9-1.7 3.9-4.4z"/><path fill="#e6e6e6" d="m530.8 305.8 1.4-2.1c1.4 1.1 3 1.7 4.4 1.7s2.1-.5 2.1-1.5-1.3-1.4-2.8-1.8c-.1 0-.2-.1-.2-.1-2-.6-4.2-1.4-4.2-4s2.1-4.1 4.8-4.1c1.7 0 3.5.6 5 1.5l-1.2 2.2c-1.3-.8-2.6-1.3-3.8-1.3s-1.9.5-1.9 1.4 1.3 1.4 2.8 1.8c.1 0 .2.1.2.1 2 .6 4.2 1.5 4.2 4 0 2.9-2.2 4.2-5 4.2-1.9 0-4.1-.7-5.8-2z"/><path fill="#e6e6e6" d="m659.5 298.6c0-5.1 4.1-9.2 9.3-9.2s9.2 4.2 9.2 9.2-4.1 9.2-9.3 9.2-9.2-4.2-9.2-9.2zm17.3-.1c0-4.5-3.5-8.2-8.2-8.2s-8.2 3.7-8.2 8.3c0 4.5 3.5 8.2 8.2 8.2 4.8 0 8.2-3.7 8.2-8.3zm-13-.1c0-2.8 2.1-5.1 5.1-5.1 1.9 0 2.9.6 3.9 1.5l-1.4 1.7c-.8-.7-1.5-1.1-2.5-1.1-1.7 0-2.8 1.4-2.8 3.1s1.1 3 2.8 3c1.1 0 1.7-.5 2.5-1.1l1.4 1.4c-1.1 1.1-2.1 1.7-4 1.7-2.9.1-5-2.2-5-5.1z"/><path fill="#e6e6e6" d="m679.3 289.7h3.4l4.2 13.2 4.4-13.3h2.6l4.4 13.3 4.2-13.2h3.3l-6.2 18h-2.6l-4.4-12.8-4.4 12.8h-2.7z"/><path fill="#e6e6e6" d="m705.5 300.8c0-3.9 3.1-7 7.2-7 4.2 0 7.2 3.2 7.2 7s-3.1 7-7.3 7c-4 0-7.1-3.1-7.1-7zm11.3 0c0-2.3-1.7-4.3-4.2-4.3s-4.1 2-4.1 4.3 1.7 4.3 4.1 4.3c2.7.1 4.2-1.9 4.2-4.3z"/><path fill="#e6e6e6" d="m722.1 294h3.1v3c.8-2 2.4-3.4 4.8-3.3v3.2h-.2c-2.7 0-4.6 1.7-4.6 5.4v5.1h-3.1z"/><path fill="#e6e6e6" d="m731.8 288.9h3.1v11.1l5.6-6h3.8l-5.4 5.5 5.5 8h-3.5l-4.1-5.8-1.9 2v3.9h-3.1z"/><path fill="#e6e6e6" d="m744.4 300.8c0-3.9 3.1-7 7.2-7 4.2 0 7.2 3.2 7.2 7s-3.1 7-7.3 7c-4.1 0-7.1-3.1-7.1-7zm11.3 0c0-2.3-1.7-4.3-4.2-4.3s-4.1 2-4.1 4.3 1.7 4.3 4.1 4.3c2.6.1 4.2-1.9 4.2-4.3z"/><path fill="#e6e6e6" d="m760.9 302.6v-8.6h3.1v7.6c0 2.1 1.1 3.3 2.9 3.3s3-1.3 3-3.3v-7.6h3.1v13.4h-3.1v-2.1c-.8 1.3-2.1 2.3-4.2 2.3-3.1.2-4.8-1.8-4.8-5z"/><path fill="#e6e6e6" d="m776.6 303.8v-7.1h-1.7v-2.7h1.7v-3.7h3.1v3.7h3.6v2.6h-3.6v6.6c0 1.2.6 1.7 1.7 1.7.7 0 1.3-.2 1.9-.5v2.5c-.8.5-1.7.7-2.8.7-2.3.1-3.9-.9-3.9-3.8z"/><path fill="#e6e6e6" d="m785.9 289.7h3.2v15h9.4v2.9h-12.5v-17.9z"/><path fill="#e6e6e6" d="m808.7 307.5v-1.7c-.9 1.1-2.3 2-4.4 2-2.6 0-4.8-1.4-4.8-4.2 0-3 2.3-4.4 5.4-4.4 1.7 0 2.6.2 3.7.5v-.2c0-1.9-1.2-2.9-3.3-2.9-1.5 0-2.6.3-3.9.8l-.8-2.5c1.5-.7 2.9-1.1 5.1-1.1 4 0 5.9 2.1 5.9 5.7v8zm.1-5.6c-.8-.3-1.9-.5-3.1-.5-2 0-3.1.8-3.1 2.1s1.1 2 2.6 2c2 0 3.5-1.1 3.5-2.9z"/><path fill="#e6e6e6" d="m817.6 305.5v2.1h-3.1v-18.7h3.1v7.4c1-1.4 2.4-2.5 4.5-2.5 3.2 0 6.3 2.5 6.3 7s-3.1 7-6.3 7c-2.1 0-3.5-1.1-4.5-2.3zm7.7-4.7c0-2.6-1.7-4.3-3.9-4.3-2.1 0-3.9 1.7-3.9 4.4 0 2.6 1.8 4.3 3.9 4.3 2.2 0 3.9-1.7 3.9-4.4z"/><path fill="#e6e6e6" d="m829.6 305.8 1.4-2.1c1.4 1.1 3 1.7 4.4 1.7s2.1-.5 2.1-1.5-1.3-1.4-2.8-1.8c-.1 0-.2-.1-.2-.1-2-.6-4.2-1.4-4.2-4s2.1-4.1 4.8-4.1c1.7 0 3.5.6 5 1.5l-1.2 2.2c-1.3-.8-2.6-1.3-3.8-1.3s-1.9.5-1.9 1.4 1.3 1.4 2.8 1.8c.1 0 .2.1.2.1 2 .6 4.2 1.5 4.2 4 0 2.9-2.2 4.2-5 4.2-1.9 0-4-.7-5.8-2z"/><path fill="#e6e6e6" d="m206.3 434.2c0-5.1 4.1-9.2 9.3-9.2s9.2 4.2 9.2 9.2-4.1 9.2-9.3 9.2-9.2-4.1-9.2-9.2zm17.4-.1c0-4.5-3.5-8.2-8.2-8.2s-8.2 3.7-8.2 8.3c0 4.5 3.5 8.2 8.2 8.2s8.2-3.7 8.2-8.3zm-13.1-.1c0-2.8 2.1-5.1 5.1-5.1 1.9 0 2.9.6 3.9 1.5l-1.4 1.7c-.8-.7-1.5-1.1-2.5-1.1-1.7 0-2.8 1.4-2.8 3.1s1.1 3 2.8 3c1.1 0 1.7-.5 2.5-1.1l1.4 1.4c-1.1 1.1-2.1 1.7-4 1.7-2.9.1-5-2.2-5-5.1z"/><path fill="#e6e6e6" d="m226.1 425.3h3.4l4.2 13.2 4.4-13.3h2.6l4.4 13.3 4.2-13.2h3.3l-6.2 18h-2.7l-4.4-12.8-4.4 12.8h-2.7z"/><path fill="#e6e6e6" d="m252.4 436.4c0-3.9 3.1-7 7.2-7 4.2 0 7.2 3.2 7.2 7s-3.1 7-7.3 7c-4.1 0-7.1-3.1-7.1-7zm11.2 0c0-2.3-1.7-4.3-4.2-4.3s-4.1 2-4.1 4.3 1.7 4.3 4.1 4.3c2.7.1 4.2-1.9 4.2-4.3z"/><path fill="#e6e6e6" d="m269 429.7h3.1v3c.8-2 2.4-3.4 4.8-3.3v3.2h-.2c-2.7 0-4.6 1.7-4.6 5.4v5.1h-3.1z"/><path fill="#e6e6e6" d="m278.6 424.5h3.1v11.1l5.6-6h3.8l-5.4 5.5 5.5 8h-3.5l-4.1-5.8-1.9 2v3.9h-3.1z"/><path fill="#e6e6e6" d="m291.3 436.4c0-3.9 3.1-7 7.2-7 4.2 0 7.2 3.2 7.2 7s-3.1 7-7.3 7c-4.1 0-7.1-3.1-7.1-7zm11.2 0c0-2.3-1.7-4.3-4.2-4.3s-4.1 2-4.1 4.3 1.7 4.3 4.1 4.3c2.6.1 4.2-1.9 4.2-4.3z"/><path fill="#e6e6e6" d="m307.7 438.2v-8.6h3.1v7.6c0 2.1 1.1 3.3 2.9 3.3s3-1.3 3-3.3v-7.6h3.1v13.4h-3.1v-2.1c-.8 1.3-2.1 2.3-4.2 2.3-3 .2-4.8-1.8-4.8-5z"/><path fill="#e6e6e6" d="m323.4 439.4v-7.1h-1.7v-2.6h1.7v-3.7h3.1v3.7h3.6v2.6h-3.6v6.6c0 1.2.6 1.7 1.7 1.7.7 0 1.3-.2 1.9-.5v2.5c-.8.5-1.7.7-2.8.7-2.3 0-3.9-.9-3.9-3.9z"/><path fill="#e6e6e6" d="m332.7 425.3h3.2v15h9.4v2.9h-12.5v-17.9z"/><path fill="#e6e6e6" d="m355.5 443.1v-1.7c-.9 1.1-2.3 2-4.4 2-2.6 0-4.8-1.4-4.8-4.2 0-3 2.3-4.4 5.4-4.4 1.7 0 2.6.2 3.7.5v-.2c0-1.9-1.2-2.9-3.3-2.9-1.5 0-2.6.3-3.9.8l-.8-2.5c1.5-.7 2.9-1.1 5.1-1.1 4 0 5.9 2.1 5.9 5.7v8zm.1-5.6c-.8-.3-1.9-.5-3.1-.5-2 0-3.1.8-3.1 2.1s1.1 2 2.6 2c2 0 3.5-1.1 3.5-2.9z"/><path fill="#e6e6e6" d="m364.4 441.1v2.1h-3.1v-18.7h3.1v7.4c1-1.4 2.4-2.5 4.5-2.5 3.2 0 6.3 2.5 6.3 7s-3.1 7-6.3 7c-2.1 0-3.5-1.1-4.5-2.3zm7.7-4.7c0-2.6-1.7-4.3-3.9-4.3-2.1 0-3.9 1.7-3.9 4.4 0 2.6 1.8 4.3 3.9 4.3 2.2 0 3.9-1.7 3.9-4.4z"/><path fill="#e6e6e6" d="m376.5 441.4 1.4-2.1c1.4 1.1 3 1.7 4.4 1.7s2.1-.5 2.1-1.5-1.3-1.4-2.8-1.8c-.1 0-.2-.1-.2-.1-2-.6-4.2-1.4-4.2-4s2.1-4.1 4.8-4.1c1.7 0 3.5.6 5 1.5l-1.2 2.2c-1.3-.8-2.6-1.3-3.8-1.3s-1.9.5-1.9 1.4 1.3 1.4 2.8 1.8c.1 0 .2.1.2.1 2 .6 4.2 1.5 4.2 4 0 2.9-2.2 4.2-5 4.2-2 0-4.1-.7-5.8-2z"/><path fill="#e6e6e6" d="m505.1 434.2c0-5.1 4.1-9.2 9.3-9.2s9.2 4.2 9.2 9.2-4.1 9.2-9.3 9.2-9.2-4.1-9.2-9.2zm17.4-.1c0-4.5-3.5-8.2-8.2-8.2s-8.2 3.7-8.2 8.3c0 4.5 3.5 8.2 8.2 8.2s8.2-3.7 8.2-8.3zm-13.1-.1c0-2.8 2.1-5.1 5.1-5.1 1.9 0 2.9.6 3.9 1.5l-1.4 1.7c-.8-.7-1.5-1.1-2.5-1.1-1.7 0-2.8 1.4-2.8 3.1s1.1 3 2.8 3c1.1 0 1.7-.5 2.5-1.1l1.4 1.4c-1.1 1.1-2.1 1.7-4 1.7-2.9.1-5-2.2-5-5.1z"/><path fill="#e6e6e6" d="m525 425.3h3.4l4.2 13.2 4.4-13.3h2.6l4.4 13.3 4.2-13.2h3.3l-6.2 18h-2.7l-4.4-12.8-4.4 12.8h-2.7z"/><path fill="#e6e6e6" d="m551.2 436.4c0-3.9 3.1-7 7.2-7 4.2 0 7.2 3.2 7.2 7s-3.1 7-7.3 7c-4.1 0-7.1-3.1-7.1-7zm11.2 0c0-2.3-1.7-4.3-4.2-4.3s-4.1 2-4.1 4.3 1.7 4.3 4.1 4.3c2.7.1 4.2-1.9 4.2-4.3z"/><path fill="#e6e6e6" d="m567.8 429.7h3.1v3c.8-2 2.4-3.4 4.8-3.3v3.2h-.2c-2.7 0-4.6 1.7-4.6 5.4v5.1h-3.1z"/><path fill="#e6e6e6" d="m577.5 424.5h3.1v11.1l5.6-6h3.8l-5.4 5.5 5.5 8h-3.5l-4.1-5.8-1.9 2v3.9h-3.1z"/><path fill="#e6e6e6" d="m590.1 436.4c0-3.9 3.1-7 7.2-7 4.2 0 7.2 3.2 7.2 7s-3.1 7-7.3 7c-4.1 0-7.1-3.1-7.1-7zm11.2 0c0-2.3-1.7-4.3-4.2-4.3s-4.1 2-4.1 4.3 1.7 4.3 4.1 4.3c2.6.1 4.2-1.9 4.2-4.3z"/><path fill="#e6e6e6" d="m606.5 438.2v-8.6h3.1v7.6c0 2.1 1.1 3.3 2.9 3.3s3-1.3 3-3.3v-7.6h3.1v13.4h-3.1v-2.1c-.8 1.3-2.1 2.3-4.2 2.3-3 .2-4.8-1.8-4.8-5z"/><path fill="#e6e6e6" d="m622.2 439.4v-7.1h-1.7v-2.6h1.7v-3.7h3.1v3.7h3.6v2.6h-3.6v6.6c0 1.2.6 1.7 1.7 1.7.7 0 1.3-.2 1.9-.5v2.5c-.8.5-1.7.7-2.8.7-2.3 0-3.9-.9-3.9-3.9z"/><path fill="#e6e6e6" d="m631.5 425.3h3.2v15h9.4v2.9h-12.5v-17.9z"/><path fill="#e6e6e6" d="m654.3 443.1v-1.7c-.9 1.1-2.3 2-4.4 2-2.6 0-4.8-1.4-4.8-4.2 0-3 2.3-4.4 5.4-4.4 1.7 0 2.6.2 3.7.5v-.2c0-1.9-1.2-2.9-3.3-2.9-1.5 0-2.6.3-3.9.8l-.8-2.5c1.5-.7 2.9-1.1 5.1-1.1 4 0 5.9 2.1 5.9 5.7v8zm.1-5.6c-.8-.3-1.9-.5-3.1-.5-2 0-3.1.8-3.1 2.1s1.1 2 2.6 2c2 0 3.5-1.1 3.5-2.9z"/><path fill="#e6e6e6" d="m663.3 441.1v2.1h-3.1v-18.7h3.1v7.4c1-1.4 2.4-2.5 4.5-2.5 3.2 0 6.3 2.5 6.3 7s-3.1 7-6.3 7c-2.2 0-3.6-1.1-4.5-2.3zm7.7-4.7c0-2.6-1.7-4.3-3.9-4.3s-3.9 1.7-3.9 4.4c0 2.6 1.8 4.3 3.9 4.3s3.9-1.7 3.9-4.4z"/><path fill="#e6e6e6" d="m675.3 441.4 1.4-2.1c1.4 1.1 3 1.7 4.4 1.7s2.1-.5 2.1-1.5-1.3-1.4-2.8-1.8c-.1 0-.2-.1-.2-.1-2-.6-4.2-1.4-4.2-4s2.1-4.1 4.8-4.1c1.7 0 3.5.6 5 1.5l-1.2 2.2c-1.3-.8-2.6-1.3-3.8-1.3s-1.9.5-1.9 1.4 1.3 1.4 2.8 1.8c.1 0 .2.1.2.1 2 .6 4.2 1.5 4.2 4 0 2.9-2.2 4.2-5 4.2-2 0-4.1-.7-5.8-2z"/></g>
</svg>
