<?xml version="1.0" encoding="utf-8"?>
<!-- Generator: Adobe Illustrator 23.0.1, SVG Export Plug-In . SVG Version: 6.00 Build 0)  -->
<svg version="1.2" baseProfile="tiny" id="Layer_1" xmlns="http://www.w3.org/2000/svg" xmlns:xlink="http://www.w3.org/1999/xlink"
	 x="0px" y="0px" viewBox="0 0 900 600" xml:space="preserve">
<g>
	<path d="M269.75,222.73c0,0.01,0,0.02,0,0.03C270.37,223.05,270.44,223.04,269.75,222.73z"/>
	<path d="M419.11,176.98c-1.56-10.89-2.68-22.28-10.78-35.37c-17.75-28.67-56.93-30.24-77.4-2.22
		c-12.34,16.89-12.19,33.55-13.71,35.07c-3.73,0.91-5.95-4.13-10.08-2.62c7.6,2.32,4.97,7.97,6.85,13.6
		c-1.31,1.81-2.82,1.81-5.54,0.71c4.03,0,4.02-1.61,3.43-4.03c-0.82-3.32-0.61-6.85-4.64-8.57c-3.5-1.49,3.37-4.37,0.1-9.98
		c2.62-1.11,2.42-3.33,1.71-5.34c5.64-4.7,3.85-3.03-1.81-18.14c5.86-4.81-1.3-11.55-0.3-18.54c3.83-1.91,9.76-0.71,10.78-6.15
		c0.4-2.12,2.62-5.95-1.51-7.76c-1.61-0.3-2.92,1.01-4.64,0.91c-0.1-1.01,1.41-1.11,1.31-2.52c-1.21-0.6-2.72-1.21-3.22-2.82
		c-2.22,0.3-2.42,2.32-3.63,3.43c-1.86-0.93,1.66-5.29-12.7-4.53c-0.1-1.01,1.21-1.41,0.5-2.62c-1.94-1.94-6.69,3.35-13.6,0.6
		c-2.82-1.12-5.85,0-8.36,0.4c-1.41-0.81,0.81-2.12-1.41-2.62c-2.85,4.95-10.29,0.24-15.02,6.65c-1.59,0-2.27-3.33-4.13,1.01
		c-3.19,0.77-8.75,2.95-5.95,4.64c0.4,0.3,1.21,0.3,1.21,1.51c-4.64,1.91-3.35,6.85-4.53,10.58c-3.07,9.68,0.06,12.69-0.71,19.75
		c-0.96,8.91,1.52,6.72,0.81,15.22c-0.91,10.85,1.74,6.18-1.31,11.89c-10.97,1.94-7.52,3.59-13.2,3.53
		c-53.88-0.63-52.22-2.1-55.43-0.1c0.5-3.53-1.4-7.01-4.74-7.46c-3.52-0.47-6.55-2.42-10.28-2.62c-4.33-35.9-16.9-64.06-53.01-65
		c-33.82-0.88-52.56,30.75-57.44,64.5c-0.77,5.32-0.65,5.16-3.22,5.14c-40.73-0.37-38.06-1.58-40.21,0.3
		c-5.45,4.8-3.1,7.98-0.4,12.29c13.81,1.61,27.81,0.71,41.82,1.71c1.05,0.93,1.85,50.53,28.42,63.89
		c33.63,16.91,49.21,0.83,54.12-0.81c0,9.03-12.08,18.38,0.5,39.2c2.42,0.6,4.94,1.12,7.46,1.91c14.56,4.62,18.29-5.46,28.72-9.57
		c1.51-0.6,2.95-1.59,4.03-2.82c5.99-6.83,14.31-10.48,21.26-16.63c4.58,17.87,7.62,26.84,7.96,40.51
		c0.26,10.47-1.37,11.58-0.6,18.44c0.78,6.97-2.73,20.24-5.64,24.79c-0.91,1.41-1.11,3.43,0.3,5.14c-1.91,1.21-2.19,3.13-2.52,4.94
		c-3.63,19.78-6.8,27.93,1.21,44.34c2.12,4.33,4.84,8.36,6.65,13.4c-3.63,8.57-4.84,18.04-3.12,27.71c-2.75,0.46-7.49-6.29-26-5.64
		c-16.01,0.56-46.48-4.43-50.69-4.13c-1.12,0-6.13,6-4.64,11.99c1.05,4.22,0.71,9.17,5.24,12.19c-2.2,0.9-3.79,2.27-5.97,1.53
		c-2.05,2.44,2.55,3.3,5.56,2.7c0.91-0.71-0.81-1.21,0.4-2.22c14.61-2.12,27.63,3.8,40.31,10.58c14.16,7.57,21.99,10.93,30.94,16.83
		c11.59,7.64,21.46,9.02,21.57,9.07c3.93,3.02,7.04,0.37,10.18-1.41c5.41-3.07,10.58-6.45,13.2-12.5c0.8-1.6,8.72-7.52,13.71-18.14
		c23.86,8.47,19.33,1.99,22.98-11.29c16.83,9.18,10.95,9.68,22.47-9.37c9.78,1.71,19.65,1.51,29.63,1.31
		c-1.18,5.9-14.58,16.1-12.19,41.92c1.34,14.48,4.72,12.11,3.43,19.05c-4.41,23.57-2.33,20.37-3.73,28.12
		c-1.48,8.19-6.84,10.39-8.67,17.64c-1.73,6.86-8.19,19.85-8.26,19.95c-2.25,2.93,5.62,10.38,16.73,14.11
		c8.71,2.93,18.19-0.68,27.41,3.43c11.69,5.2,26.38,4.4,30.23,5.95c4.04,1.62,15-3.2,18.44-5.14c6.55-3.69,4.82-6.96,5.64-14.81
		c0.2-1.91-0.6-3.53-2.42-3.93c-2.72-0.6-5.04-2.1-7.76-2.42c-8.5-0.99-5.43-4.45-13.1-7.16c-10.74-3.78-5.6-7.9-22.27-18.04
		c0.3-3.73,0.71-7.56-1.41-10.98c-2.12,0.5-1.41,3.53-3.73,3.12c-0.68-0.85-0.37-0.57,3.93-16.53c6.6-24.49,16.97-21.94,19.55-48.78
		c1.88-19.53,3.31-9.84,5.14-25.7c1.24-10.72,7.16-14.62,3.93-20.86c-1.28-2.47,0.38-7.68-3.63-12.4c-2.48-2.92,0.7-7.74-6.95-11.79
		c-81.95-37.82-93.33-26.59-83.04-32.15c8.76-78.83,13.96-40.65,17.84-88.68c5.34-3.83,3.54-10.68,5.74-16.02
		c2.33-5.64,1.41-11.69,1.01-16.93c5.54-10.28,10.58-20.16,15.12-31.14c11.03,33.09,27.89,39.8,52.1,39.91
		c26.12,0.11,42.43-26.67,46.46-52.81c0.83-5.37-2.25-4.03,19.35-4.03c1.94-3.05,5.32-6.4,2.72-10.08
		C436.87,175.82,436.45,176.98,419.11,176.98z M369.32,168.72c0.81,0.5,1.21,1.11,1.21,1.81
		C370.24,170.82,369.46,170.06,369.32,168.72z M367.61,196.53c6.26-8.61,5.8-16.98,2.82-25.9
		C372.22,168.84,378.37,188.89,367.61,196.53z M355.72,199.55c-4.23-1.11-8.06-5.85-8.57-10.78c6.88,0,8.98-0.02,11.29-0.71
		c3.21-0.95,5.81-4.43,5.34-7.46c-1-6.46-9.32-5.14-16.43-5.14c1.57-9.84,14.44-16.57,20.76-4.53
		C376.33,186.59,364.61,201.89,355.72,199.55z M355.72,178.09c6.41,0.03,8.04,8.39-0.81,8.26c-36.38-0.53-33.81-0.48-35.57-1.41
		c0.3-2.42,0.4-4.94,1.21-6.95C332.64,177.99,344.23,178.04,355.72,178.09z M317.72,178.29c-1.01,2.72,1.11,6.05-2.32,8.97
		c-0.71-3.73-0.6-6.85-0.81-9.98C315.91,176.88,316.72,177.48,317.72,178.29z M308.05,174.66c1.11,3.43,0.81,6.65,2.32,9.47
		c-2.92-0.3-3.73-2.42-4.84-4.74C306.84,178.29,306.44,176.27,308.05,174.66z M308.96,106.13c0.4,0.81-0.3,0.91-1.11,1.41
		C307.95,106.54,308.15,106.03,308.96,106.13z M314.6,114.2c-2.42,3.83-6.85,3.83-10.68,5.14
		C307.14,117.22,311.48,116.92,314.6,114.2z M303.01,108.55c0.93,1.64-0.89,2.8-1.61,2.32
		C300.46,108.99,301.97,108.97,303.01,108.55z M301.2,109.26c-0.91-0.91-1.81-1.61-2.92-2.52
		C301.1,105.83,300.69,108.05,301.2,109.26z M296.96,117.32c-1.61,0.1-3.22,1.21-4.84,0.4
		C293.64,117.12,295.25,116.41,296.96,117.32z M289.51,104.52c-0.3,0.4-0.4,1.11-1.11,0.71
		C287.64,104.85,288.4,103.63,289.51,104.52z M287.49,120.95c-0.5,0.91-1.11,1.21-1.91,1.31
		C286.08,121.65,286.28,120.75,287.49,120.95z M285.17,116.11c0.5,0.1,0.81,0.3,0.81,0.91
		C285.44,117.28,284.75,116.74,285.17,116.11z M284.27,125.68c-1.31,1.01-2.62,1.91-3.93,2.92
		C280.74,126.49,282.35,125.89,284.27,125.68z M281.54,117.52c-2.52,0.2-3.22-1.11-4.33-1.81
		C277.84,114.77,277.46,114.72,281.54,117.52z M277.21,132.23c-0.1,0.71-0.2,1.31-1.11,0.81
		C276.2,132.44,276.41,132.03,277.21,132.23z M272.58,128.3c0.2,0.81-0.3,0.91-1.01,1.21C271.57,128.51,271.87,128.2,272.58,128.3z
		 M267.64,115.1c0.91,0.2,0.91,1.01,1.31,1.71c-0.81,0.5-1.31,1.41-2.42,0.5C266.23,116.21,266.93,115.61,267.64,115.1z
		 M260.89,103.41c-0.2,0.71-0.71,0.81-1.61,0.6C259.78,103.21,260.18,102.71,260.89,103.41z M260.18,112.48
		c2.15,3.87,3.27,3.15-1.41,2.22C259.07,113.79,259.27,112.89,260.18,112.48z M257.76,137.37c0.81-0.1,1.41,0,1.21,1.51
		C258.16,138.68,257.36,138.58,257.76,137.37z M256.26,129.38c-0.03-0.04-0.06-0.07-0.1-0.11c-0.87-0.7-1.82-0.94-1.82-2.18
		C254.89,127.78,255.67,128.71,256.26,129.38z M253.23,133.54c0.71,0.5,0.71,0.91-0.2,1.51
		C252.82,134.35,252.52,133.85,253.23,133.54z M252.42,114.4c0.4,0.91,0.4,1.51-0.81,1.41C251.51,115.1,251.92,114.7,252.42,114.4z
		 M247.99,129.41c-0.2,1.21-0.4,2.02-2.12,1.91C246.27,130.12,246.37,129.01,247.99,129.41z M245.47,134.75
		c-0.5,0.5-0.2,1.31-1.31,1.01C244.26,135.26,244.06,134.55,245.47,134.75z M241.64,172.04c1.71-0.22,3.53-0.5,3.63-2.42
		c1.51-1.41,3.43,0.1,4.74-1.11c-0.3-1.31-1.91-0.6-2.32-2.12c1.11-1.71,0.6-3.93,0.81-5.85c9.82-8.14,13.99,6.1,17.94-0.81
		c-0.2-0.4-0.3-0.81-0.4-2.32c-2.9,3.02-4.98,1.14-12.6-6.65c-3.47-3.55,2.35-8.97,3.63-10.98c0.43-0.68,1.46,0.46,1.51,0.3
		c6.05,1.31,8.16,6.45,9.98,11.29c1.91,0,0.81-2.12,2.02-2.22c1.21,0.2,1.91,1.61,3.63,1.01c-9.68-9.45,14.68-22.74,16.12-27.61
		c5.14,0.6,5.14,0.6,7.56-1.41c-0.2-0.6-1.21,0-1.21-0.91c2.82-1.31,5.54-1.41,7.96,0.71c0.1,3.83,0.96,7.37,2.32,10.78
		c2.47,6.21-4.36,4.28-0.71,11.59c5.17,10.34,5.86,11.29,0.81,11.59c-1.61,0.1-2.82-0.1-3.93-1.11c-1.82,1.65-0.96,4.24,3.63,3.63
		c0.1,1.51,0.59,2.61,0.1,3.73c-1.14,2.61-5.24,0.81-6.35,3.93c1.91,1.21,2.92-0.6,4.23-0.71c1.51,0.81,1.92,2.02,0.91,3.22
		c-3.94,4.68,3.02,10.55-4.23,11.89c-12.94,2.39-12.66-2.28-15.22-1.01c0.91,1.41,2.42,1.31,3.33,2.22
		c-4.13,6.05-7.56,12.29-6.45,20.05c2.08-0.45,1.19-7.55,3.91,3.76c0.2-0.2,4.24,8.82,0.22,17.81c-2.88,6.44-9.87,3.46-15.72,0.91
		c-0.55,0.37,0.49,0.84-0.1,1.31c-0.9-0.3-1.69-0.7-1.61-1.78c-2.73-1.26-16.31-8.32-24.49-21.9c4.94,1.41,9.78,2.32,14.71,2.92
		c-10.69-3.43-18.14-5.99-20.26-9.27c0.2-0.81,2.02-0.2,1.71-1.51c-1.11-1.01-2.12,0.81-3.12-0.1c-4.13-4.94-9.67-8.57-12.9-14.71
		C230.75,176.07,235.68,172.79,241.64,172.04z M253.13,153.8c0.6,0.6,1.61,0.91,0.91,2.22C253.83,155.21,252.32,155.01,253.13,153.8
		z M286.79,195.52c-1.41-0.6-1.21-1.21-1.11-2.52C286.18,194.11,286.38,194.62,286.79,195.52z M170.79,174.76
		c0-0.81,0.6-1.51,1.01-2.22c1.75,2.71-0.22,1.26,51.09,2.52c7.36,0.92-2.9,2.57-5.34,8.36
		C143.68,182.13,170.79,181.69,170.79,174.76z M170.59,211.65c0.72,1.4-2.22,5.04-4.13,5.74c1.01-6.75,5.34-12.7,4.84-20.16
		c5.14-2.22,3.63-6.95,3.63-11.19c8.16-0.91,16.02-0.5,24.39-0.3c-11.73,6.43-22.47,9.5-28.02,22.57
		C170.87,209.32,169.7,209.92,170.59,211.65z M168.67,172.44c-1.01-1.41-1.11-2.82-1.31-4.33
		C169.28,169.92,169.28,169.92,168.67,172.44z M168.27,175.27c-0.81,0.5-1.41,1.31-2.42,1.51c-7.1-13.01-5.28-6.05-9.37-12.19
		C164.68,165.65,160.6,163.93,168.27,175.27z M157.19,169.12c4.74,2.02,4.94,6.75,6.85,10.58
		C158.07,183.54,160.64,175.29,157.19,169.12z M159.71,183.03c-0.1,0.71-0.5,1.01-1.51,0.91
		C158.6,183.13,158.9,182.52,159.71,183.03z M157.19,180.81c-1.11-1.61-0.4-3.02-0.2-4.23C157.59,177.89,158.19,179.1,157.19,180.81
		z M3.3,176.68c-2.42-3.22-2.02-4.64,1.91-7.46C9.54,173.54,7.25,177.33,3.3,176.68z M8.94,178.19c-0.1-0.3-0.2-0.5-0.3-0.81
		c10.24-10.66-33.48-8.92,85.96-6.45c5.14,0.11,6.15,2.12,3.83,7.26C91.85,181.48,87.21,178.19,8.94,178.19z M94.91,184.74
		c-0.4-0.71-0.2-2.12,1.21-2.42c3.43,10.18,7.76,20.16,2.72,31.04c-2.42,0.1-3.16-0.8-3.22-2.52c-0.25-6.85-0.98-13.71-0.3-20.56
		C95.49,188.47,95.92,186.55,94.91,184.74z M101.76,172.24c-1.1-3.83-4.43-3.83-7.96-4.03c6.3-7.22,14.8-0.44,13.3,8.87
		c-0.71,4.43-4.13,8.16-7.66,8.67C95.11,179.79,104.35,181.31,101.76,172.24z M93.7,182.42c-6.65,8.77-8.77,19.05-12.19,28.82
		c-10-6.66-5.5-13.07,6.85-27.11C89.77,182.53,91.18,181.82,93.7,182.42z M47.94,191.59c-0.39-3.33-1.11-6.75-0.4-10.08
		c4.98-0.66,4.43,0.19,4.43,4.84c2.26,31.26,21.66,64.56,41.72,55.53c-6.48-1.21-10.9,2.44-21.06-8.06
		c-8.04-8.31-17.85-26.95-18.34-49.18c-0.07-3.17-5.5-2.22,32.25-2.22c0.2,0.3,0.3,0.6,0.4,0.91c-6.15,3.43-8.77,10.08-13.6,14.71
		c-1.75,1.5-1.5,11.9,6.85,16.53c7.12,3.95,6.47-16.81,13.1-26.61c-1.11,5.74-1.51,11.49-1.31,17.33c0.23,2.28-3.47,10.38,4.53,12.7
		c9.93,2.87,10.64-16.39,4.23-29.73c8.94-2.98,14.93-15.44,3.22-24.79c-3.59-2.87-10.8,0.06-13,4.94
		C53.22,167.48,55,168.03,55,166.7c0-25.69,27.65-67.26,47.47-58.35c1.3,0.58,6.72,1.92,7.96,1.21c-5.95-3.22-11.98-6.21-19.05-3.53
		c-24.45,9.28-34.48,35.63-39,61.27c-1.51,0.3-2.82,0.4-4.33-0.3c6.81-58.4,49.3-84.61,75.38-52.81
		c13.81,16.84,23.21,51.24,10.98,89.99C114.55,267.13,56.17,262.6,47.94,191.59z M118.89,246.72c-7.76,3.31-15.62,5.14-24.09,3.73
		c43.81-8.61,61.34-88.67,34.57-131.51c-10.26-16.42-20.64-17.7-22.88-19.65c52.34,2.75,61.27,88.24,30.43,131.21
		c-0.5-0.5-0.5-1.31-1.71-1.61C131.39,236.44,126.95,243.28,118.89,246.72z M190.34,255.79c13.02-9.64,9.27-11.42,13.91-14.51
		c5.95,3.73,12.19,6.35,17.33,11.39c1.91-7.43-9.75-15.52-16.93-18.04c-3.36-1.18-3.43-3.94-11.09-7.05
		c0.6,3.22,6.25,2.82,4.13,6.85c1.41,2.22,3.43,3.33,5.54,4.53c-1.81,1.31-2.42,3.33-3.83,4.64c-2.42-0.6-2.54-0.62-4.13,1.01
		c-8.91,9.09-11.1,6.18-11.59,10.08c0,1.11,1.21,0.71,1.41,1.61c-18.75,11.72-21.67,17.82-23.68,18.54
		c-9.27,3.34-11.81,13.93-32.75,6.25c-4.64-7.66-5.63-15.42-2.32-23.68c1.25-3.11,3.19-14.53,7.05-18.85
		c20.85-23.29,21.06-50.19,22.88-52.91c1.11,0.5,2.02,1.01,3.12,1.51c1.21-1.61,2.82-3.22,4.64-2.72c2.62,0.72,5.24,0.3,7.66,0.91
		c2.02,2.12,0.1,4.94,1.41,6.75c-0.91,2.32-2.42,3.83-3.73,5.44c-0.5-0.5,0.1-1.51-1.11-1.71c-1.78,2.59,0.02,6.44-0.5,7.36
		c-0.68,0.99-6.52,19.55-6.55,19.65c-4.04,12.77,0.69,18.88-0.5,29.63c-0.31,2.82-1.61,5.64-0.6,8.57
		c5.64-9.37,2.22-19.75,2.92-29.53c7.93-3.68,12.08-9.2,0.1-2.22c1.21-2.92-0.31-6.77,3.22-8.67c10.47-5.62,4.07-14.47,19.15-23.78
		c10.78-6.66,10.39-7.39,13.1-7.76c18.51-2.51,2.72-1.72,22.17-2.72c11.67,20.84,13.89,19.49,13.4,44.74
		c-14.02-3.32-14.75-4.47,0,1.51c-1.51,7.66-0.2,15.82-6.65,21.97c-1.31-0.81-2.52-1.91-4.03-0.71c-0.6,1.91,1.71,2.12,2.02,3.63
		c-2.02,2.02-3.53,4.64-5.85,6.45c-1.31-0.5-1.11-2.62-2.92-2.42c-1.61,1.71,1.01,2.92,0.6,4.64c-1.81,1.21-3.33,2.82-5.24,3.53
		c-2.52-2.52-1.01-5.74-2.22-8.36c-3.22,2.72,0,6.35-1.01,9.37c-4.33,2.12-8.97,2.32-12.7,0.6
		C194.37,266.17,194.07,260.32,190.34,255.79z M193.87,341.55c0.6,1.91-0.81,4.03,1.01,5.64c-2.22,2.22-3.22,4.94-4.64,7.36
		C190.04,349.81,193.06,345.98,193.87,341.55z M234.89,468.73c-6.81,6.9-2.83,6.18-9.57,11.79c-2.64,2.2-5.82,3.56-8.77,5.34
		c-8.63,5.22-39.19-17.05-46.86-20.16c-1.21-0.49-3.21-0.91-3.63-1.91c-1.92-4.62-9.56-3.85-11.29-8.16
		c-0.57-1.42-2.32-2.52-4.23-3.12c0.4,2.72,2.52,3.73,4.23,5.64c-12.09-4.74-23.48-9.98-36.08-10.18
		c-2.92-4.53-4.84-8.97-3.33-14.31c3.02,0.91,5.85,1.71,8.67,2.52c-1.41-3.33-5.24-3.02-7.76-5.04c3.21-4.59-1.69-1.51,18.54,0
		c18.41,1.38,9.68,3.46,27.61,2.82c12.2-0.43,20.51-0.14,30.33,5.34c0,4.84-0.3,9.37-1.11,13.6c0.5,1.41,1.91,1.31,2.52,2.22
		c0.64,3.38-2.77,13.36,3.12,0.1c8.36-1.21,16.53-1.61,22.88-7.26c8.87,1.31,17.84,1.81,24.89,8.47
		C242.14,460.87,238.64,464.92,234.89,468.73z M265.22,457.44c-7.97,0.89-17.81-3.43-24.39-7.96c-9.21-6.35-21.52-3.46-21.69-4.15
		c0.29,0-0.34-2.07,2.57-4.4c1.52-1.22,5.63-3.24,8.84-6.86c1.11-0.2,1.81-0.81,2.22-1.91c-9.77,6.09-12.18,9.55-13.3,7.05
		c-0.1,2.2-2.76,4-0.36,6.09c-6.24,4.49-13.56,5.34-20.8,6.11c-6.73,0.71,0.4-2.88-2.02-17.54c-1.08-6.56-0.8-13,0.5-19.45
		c1.71-8.49-1.35-4,11.89,2.62c3.83,1.91,8.06,2.42,11.79,4.53c-0.2,3.63-1.41,6.95-0.2,10.88c2.02-3.43-0.4-7.36,2.22-9.98
		c5.54,1.21,10.58,2.82,15.82,4.74c-1.51,2.22-3.83,2.92-5.24,4.74c3.02-0.1,4.74-2.72,7.46-3.83c5.13,2.8,4.71-0.09-7.56,10.38
		c0.97,1.46-1.31,1.89,13.5-7.76c8.21,4.62,3.53,0,1.91,8.86c-0.3-0.3-1.66,1.88-1.91,3.94c1.6-1.62,4.49-7.67,6.85-9.47
		c2.52,1.61,5.74,2.12,6.35,4.64c3.73,0.81,5.54,3.43,8.16,5.04C266.63,448.27,265.62,452.81,265.22,457.44z M364.99,555.8
		c1.71,1.71,4.33,1.01,5.54,3.12c-1.61-0.91-3.12-0.4-4.94,0.4C367.21,557.71,364.18,557.51,364.99,555.8z M342.62,531.01
		c-0.2,2.22,0.6,3.73,0.6,5.24c-3.73,2.82-8.06,4.74-10.18,9.78c3.12,0.1,5.24-1.41,7.96-3.02c-1.61,2.82-4.23,4.23-4.74,7.56
		c6.35-1.11,8.36-5.85,10.58-10.58c0.81,0.71,1.61,0.81,1.81,1.81c-2.52,3.93-6.85,6.35-9.17,10.48c0.4,0.4,0.81,0.91,1.21,1.31
		c5.54-0.6,7.96-5.34,10.68-9.67c5.59,3.91-3.88,5.43-6.75,10.88c3.65,3.23,8.53-2.03,11.59-5.85c0.71,0.91,1.61,1.31,1.31,2.22
		c-2.52,3.63-7.05,4.74-10.18,7.66c7.47,5.4,12.89-9.1,15.12-3.53c-1.31,3.22-5.54,3.93-6.85,7.56c3.53,0.71,5.14-1.61,7.26-2.92
		c0.6,0.71,0.81,1.7,1.91,1.61c1.41-0.11,2.12-2.02,3.73-1.71c1.01,2.32-0.71,3.83-1.51,5.74c1.71,0.2,2.72-0.4,3.43-1.61
		c1-1.71,0.3-3.43,0.1-5.14c2.62,2.52,5.34,4.74,9.37,5.04c3.02,0.4,5.74,1.91,8.67,2.62c0.4,3.43-0.66,6.55-0.6,9.78
		c0.02,1.21-0.7,2.03-1.71,2.52c-10.82,5.18-11.02,6.12-22.67,4.84c-30.92-3.4-20.7-6.31-36.88-7.56c-7.8-0.6-10.49,2.18-24.69-5.14
		c-7.87-4.06-7.37-3.34-1.01-17.13c1.34-2.91,1.42-6.55,3.33-8.87c1.82-2.21,3.33-4.53,4.84-7.56c0,13.54,2.12,13.17,9.88,14.92
		c4.53,1.02,8.67-0.71,10.88-5.04c-18.67,5.7-17.72-2.61-18.54-7.96c6.85,4.13,13.81,4.74,21.06,1.21c-0.5,2.42-3.02,3.53-2.92,5.95
		c5.14-2.62,6.85-7.05,6.05-12.5C337.98,532.72,340.4,532.72,342.62,531.01z M299.79,370.77c9.17,2.11,18.45,5.02,26.61,9.98
		c9.08,5.52,19.53,7.2,28.92,11.79c10.15,4.96,7.15,9.6,10.88,12.9c4.26,3.76,2.79,8.58,4.43,12.09c2.14,4.58-2.62,7.96-3.83,15.42
		c-1.04,6.46-0.91,13.3-4.33,19.25c-0.58,0.58-1.23,23.97-10.18,35.47c-7.61,9.78-13.02,27.98-14.41,38.4
		c-0.96,7.15-3.26,3.58-4.84,5.95c-1.01,1.31,0.1,3.12-0.81,4.53c-3.02,1.81-6.15,2.72-9.78,1.81c0-4.45,3.85-8.71,4.13-13
		c-3.33,4.13-5.95,7.96-6.65,12.7c-3.73,0.4-6.45-0.81-8.36-4.53c0.14-0.87,6.18-38.81,3.83-45.85c-5.47-16.4,1.31-34.78,9.57-50.09
		c36.97-5.44-32.83-2.54-30.64-4.74c5.44-9.17,2.52-7.82,13.5-8.26c3.23-0.13,12.01-2.32-4.74-3.22
		c5.98-5.84,29.22-35.57,23.38-40.51c-3.3,0.33-1.24,3.86-11.59,20.76c-3.45,5.63-9.09,9.46-12.6,15.02c-1.52,2.41-4.24,2-6.25,3.02
		c-11.07,5.62-29.39,3.89-36.48,6.95c12.4-1.41,25.19-0.4,36.78-5.44c-3.22,9.98-10.28,17.74-14.81,27.41
		c-22.12-14.35-25.17-19.74-58.15-29.02c-9.5-2.67-23.3-8.51-27.81-17.74c-2.92-5.97-8.57-22.39-7.05-27.01
		c1.22-3.72,1.31-7.66,1.31-11.59c0-5.34,3.02-9.57,5.14-14.21c0.3-0.81,1.31-0.91,1.41-0.91c6.35,3.43,12.8,2.92,19.05,3.93
		c0-1.15-3.27-3.03,5.64-0.81c0,3.43-2.42-0.1-3.12,1.21c3.53,5.14,9.67,2.42,14.11,4.84c-7.05,2.12-14.01,3.93-20.56,7.46
		c-0.5-2.52,0-4.84-1.51-7.26c-1.24,7.13,3.78,15.34-0.4,21.26c1.86-0.35,2.49-2.61,3.24-1.64c2.24,5.36,7.56,6.99,7.67,6.99
		c-0.33,0.24,1.07,1.1,1.88,1.2c0-0.71-7.95-5.71-9.47-8.77c2.03-5.08,13.81-10.29,19.95-12.4c-2.72,2.82-6.85,3.73-10.08,6.75
		c1.01,0.1,1.41,0.3,1.61,0.2c7.82-4.86,23.2-9.92,24.19-14.61c0.1-0.1,0.6-0.1,0.91-0.2c1.21,0.81-0.1,1.81,0.5,2.82
		c1.41-0.6,1.71,1.71,3.22,1.21c0.6-0.6,0.2-1.31,0.2-2.02c0.81,0.5,1.41,1.31,2.12,1.51C262.8,360.22,263.03,362.32,299.79,370.77z
		 M200.72,346.28c1.01-0.1,1.71,0.3,2.02,1.31c1.71,0.2,3.43,0.4,4.53,2.02c-1.41-0.91-3.53-0.3-4.53-2.02
		C201.93,347.49,200.72,347.9,200.72,346.28z M223.09,351.63c0.4,0.2,0.81,0.4,0.4,1.01C222.69,352.53,222.69,352.13,223.09,351.63z
		 M225.31,354.55c0.5-1.11,0.2-2.52,2.02-2.42c0.5,0.71,0.81,1.51,0.1,2.42C226.82,354.55,226.22,354.55,225.31,354.55z
		 M229.24,354.95c0.6-1.11,0.71-1.91,1.81-2.12C231.36,354.14,230.85,354.65,229.24,354.95z M233.68,359.08
		c0.76-0.91-1.65-2.1,3.43-1.61c1.1,0.11,2.5-0.09,2.81,1.49c0.01-0.03,0.01-0.05,0.01-0.08c0.4,0.3,1.11-0.1,1.31,0.81
		c-0.98,0.48-1.47,0.48-1.32-0.71c-9.27,4.23-19.54,6.65-26.9,14.81c-1.11-2.62-0.91-5.04-1.01-7.66
		C218.76,362.31,226.52,361.4,233.68,359.08z M232.97,355.35c0.4-0.91,0.6-1.71,1.91-1.61
		C234.58,354.55,234.89,355.76,232.97,355.35z M237.51,353.94c2.94,0.53,5.09,0.25,2.52,2.82c-1.01-0.3-2.02-0.6-2.92-0.91
		C237,355.15,236.9,354.55,237.51,353.94z M243.65,357.27c0.2-1.91,1.11-2.02,2.62-1.21C245.97,358.08,245.06,357.97,243.65,357.27z
		 M252.92,356.46c0.6,0.6,0.5,1.31,0.4,1.91C252.72,357.97,251.51,357.77,252.92,356.46z M258.67,358.18c0.1-0.1,0.2-0.4,0.3-0.4
		c0.69-0.34,0.94,0.81,0.1,0.81C258.97,358.58,258.77,358.28,258.67,358.18z M262.3,357.87c0.71-1.31,1.31-0.91,2.72,0.3
		C263.61,358.18,262.9,358.58,262.3,357.87z M266.43,358.38c0.6-1.81,1.51-2.72,3.33-1.81
		C269.45,358.88,267.84,358.08,266.43,358.38z M271.89,359.87c1.97-0.35,4.3-1.21,4.3,1.81c0.13,0.9-3.56-0.5-4.22-0.69
		c-1.37-0.21,0.48-1.28-0.2-1.11c-0.1-0.71-1.31-0.81-0.91-2.02C272.22,358.21,271.89,359.01,271.89,359.87z M272.27,355.66
		c0.71,0.5,0.4,1.01,0.1,1.51C271.77,356.66,271.37,356.16,272.27,355.66z M274.79,355.35c0.2-1.01,0.81-1.11,2.12-1.31
		C275.9,354.65,275.7,355.56,274.79,355.35z M297.87,265.86c-6.77,19.95-2.65,21.41-8.36,34.06c-0.05,0.11-6.62,10.16-8.87,26.81
		c-2.78,20.52-3.18,16.59-2.92,18.44c0.46,3.33-0.91,5.44-3.12,7.26c-35.4,2.62-28.59-1.68-39.1-3.12
		c-22.68-3.12-27.21-0.67-41.42-10.68c5.8-13.22,3.24-18.3,4.74-24.79c4.58-19.85-3.21-33.98-1.91-38.09
		c4.13,1.01,8.06-0.2,11.99-0.81c0.2,0.5,0.4,0.91,0.6,1.41c2.03,0-1.75-3.43,5.24,1.81c-0.2-1.91-1.81-3.02-1.61-5.04
		c3.22-0.81,5.04-4.33,7.86-4.64c2.62-3.33,4.94-6.25,7.46-9.37c1.01,1.01,2.22,0.4,3.53,1.41c0.6,0.6,0.5,2.62,2.42,2.52
		c2.71-4.45,4.36,3.65,11.99,1.11c-5.54-3.12-11.89-3.12-15.92-7.56c5.64-11.99,8.06-24.69,7.16-37.49c0.6-1.01,1.51-0.2,1.71-1.41
		c-3.35-0.93-2.04-8.94-6.05-17.03c-7.25-14.65-11.41-14.97-9.57-19.15c3.43,4.94,7.57,8.45,11.19,12.5
		c5.47,6.13,9.97,13.01,15.62,18.85c24.67,25.49,28.16,12.84,33.96,18.85c0.4-2.02-1.51-1.81-1.41-3.12c1.11-0.5,1.81-2.2,3.12-1.91
		c2.01,0.43,2.93-0.8,3.63-2.12c5.29-10.05,0.86-10.41,2.02-15.62c2.39,3.59,2.64,10.87,4.33,13.91c4.08,7.33,5.15,15.32,5.74,23.38
		C302.41,253.17,299.99,259.62,297.87,265.86z M289.51,195.93c4.13,4.74,6.55,9.98,6.05,16.43
		C293.94,206.71,291.52,201.37,289.51,195.93z M290.92,207.41c-0.91-0.81-1.21-1.71-0.71-2.82
		C290.72,205.5,291.52,206.2,290.92,207.41z M316.11,209.23c-2.3,8.17-7.71,14.89-10.88,22.67c-0.41,1.01-0.71,2.02-1.91,3.02
		c-1.01-5.04-3.02-9.32-5.34-13.6c-0.95-1.76,0.35-12.45,3.93-16.23c4.16-4.99-1.26,0.36-6.15-8.77c-1.21-0.3-0.6,1.21-1.61,0.81
		c-1.51-3.33-4.33-5.24-7.26-7.16c2.34-6.25,2.56-7.29,8.67-7.46c2.92-0.08,5.85,0.71,8.47-1.41c0.81,1.41,1.41,2.52,2.02,3.63
		c-2.26,2.01-14.21-2.31-13.4,2.52c1.91,1.21,2.92-0.71,4.74-0.81c1.61,1.01,3.83,1.01,6.05,1.41c-1.11,1.31-2.92,0.5-4.23,2.12
		c3.73,0.91,7.05,1.01,9.88-0.1c3.53,0.81,4.53,4.13,7.16,5.54c-1.41-2.22-1.51-5.14-4.03-6.65c3.43-1.11,3.43-1.11,4.94,5.04
		C325.09,198.98,317.18,205.44,316.11,209.23z M296.66,201.47c3.33,1.04,3.8,4.45,1.21,5.74
		C297.67,205.2,296.36,203.58,296.66,201.47z M339.89,237.04c-13.57-10.63-19.68-30.28-18.14-33.36c4.03-8.06-4.23-12.36-2.32-15.22
		c29.97,0,23.99-1.66,27.11,5.14c4.65,10.12,19.67,11.59,25.6,0.91c13.53-24.36-14.48-46.67-26.91-19.75c-8.57,0-17.03,0-25.5,0
		c-0.43-16.28,18.84-59.46,51.5-52c30.11,6.87,41,49.56,31.64,82.44C393.78,237.17,364.77,256.52,339.89,237.04z M401.07,229.38
		c-7.45,9.78-17.13,15.52-30.33,15.82c44.29-15.13,50.88-94.05,11.59-119.82c-3.55-2.33-9.46-4.06-0.2-2.42
		C410.76,128.03,432.48,188.13,401.07,229.38z M434.73,187.56c-5.44,0.1-10.78,0.1-16.12,0.1c0-3.02,0-5.44,0-7.86
		c16.56,0,18.81-1.12,19.55,3.33C438.44,184.84,436.44,187.53,434.73,187.56z"/>
	<path d="M893.16,86.88c-4.84,0.09-9.78,0-14.91,0c-1.42-9.96-2.24-21.91-10.88-35.67c-17.51-27.87-56.71-30.9-77.8-1.11
		c-11.22,15.86-11.6,31.97-13,34.06c-2.82,1.11-5.24-1.81-8.36-0.81c5.24,1.61,5.9,5.54,5.85,9.98c-0.04,3.21,2.54,2.41-1.61,6.05
		c-4.23-2.22-7.66,1.31-11.49,1.81c3.33,1.01,6.65,1.81,9.78,0.4c3.12,1.11,4.64,3.83,6.85,5.85c0.1-1.87-1.72-2.97-1.42-4.82
		c3.43,4.36,2.14-1.7,5.75,6.53c1.73,3.94-2.34,4.92-5.24,13.91c-2.7,8.34-8.47,15.02-11.59,23.28c-1.51-4.94-3.59-9.34-5.85-13.71
		c-0.85-1.64-0.49-11.51,5.95-18.44c-4.43-0.81-6.65-3.33-8.06-6.45c-1.21-0.1-0.71,1.01-1.41,1.21c-3.9-5.46-0.72-2.25-7.36-7.46
		c0.81-2.42,1.51-4.74,3.43-6.55c0.81,0.6-0.3,1.41,0.4,2.02c1.61,1.01,2.82-0.5,4.23-1.01c5.04,2.02,10.48,1.11,15.62,1.71
		c1.91-3.63,0.3-10.58-3.02-12.5c-4.72-2.72,3.01-4.5-0.6-10.18c0.4-1.01,1.71-0.91,2.12-2.32c-0.1-0.81-0.2-2.02-0.3-3.12
		c5.04-4.56,4.31-2.67-1.91-18.24c5.79-4.76-1.2-11.08-0.4-18.64c3.22-1.11,6.75-1.51,9.98-3.22c0.3-3.53,2.92-7.26-0.6-10.78
		c-8.86,2.61-2.85,0.61-3.43-1.41c-1.31-0.4-2.72-1.21-3.33-2.72c-2.02,0.5-2.32,2.32-3.43,3.33c-2.34-0.67,2.14-5.11-12.7-4.33
		c-0.4-1.01,1.34-1.53,0.3-2.72c-0.98-1.13-2.22-0.2-3.33,0.2c-9.88,3.59-9.01-1.51-15.82,0.4c-5.35,1.51-1.96-1.21-4.03-2.12
		c-3.64,4.59-10.79,0.74-14.81,6.45c-1.31,0.4-1.71-1.12-2.92-0.91c-1.11,0.19-1.11,1.51-1.61,2.22c-3.12-0.3-4.64,1.91-6.65,3.02
		c-0.4,1.91,1.91,1.51,2.02,3.12c-4.74,2.22-3.45,7.35-4.74,11.29c-1.54,4.73-1.46,9.87-0.5,14.81c0.6,3.12-1.34,7.28,0.4,12.8
		c1.46,4.62-0.91,9.72,0.5,14.21c3.74,11.83-47.86,3.34-69.03,4.94c-4.03-5.44-10.28-5.54-16.02-6.65c1.01,2.32,3.22,1.81,5.14,2.42
		c2.92,2.72,4.23,6.65,6.65,9.88c-0.81,0.6-1.61,1.11-2.52,1.81c-1.91-4.53-4.13-8.67-9.27-10.38c3.63,3.63,6.15,7.86,7.26,12.9
		c-1.01,1.01-2.22,0.71-3.53,0.5c-2-4.18-0.59-10.14-4.43-9.78c1.31,3.22,2.22,6.65,2.22,10.18c-6.77,4.51,0.34-6.51-4.23-31.44
		c-5.55-30.27-20.58-52.24-51.6-53.01c-33.55-0.83-52.1,30.39-57.04,62.68c-1.11,7.28-0.65,6.88-3.43,6.85
		c-40.66-0.37-38.03-1.6-40.21,0.4c-3.73,3.42-4.38,5.91-1.81,10.28c2.73,4.64,0.6,0.98,43.64,3.73
		c0.71,7.94,0.56,29.89,13.71,49.88c13.87,21.1,41.86,25.46,59.26,18.14c4.33-1.82,8.16-4.74,12.09-7.76
		c-1.96,15.65-13.03,24.39-1.01,43.64c27.75,7.47,22.25-2.44,36.28-7.46c1.11-0.4,2.22-1,3.02-1.91
		c8.96-10.2,29.42-19.25,35.57-31.34c0.4-0.91,1.11-1.51,2.32-1.71c5.64,3.43,11.89,6.25,17.03,11.29
		c1.63-6.37-6.3-13.39-12.7-16.12c-6.9-2.95-12.18-8.87-15.32-8.87c0.2,3.12,6.25,2.32,4.13,6.65c4.57,7.03,8.16,0.44,1.71,9.37
		c-1.31-1.01-2.52-0.71-3.63,0.5c-8.64,9.52-11.11,6.29-11.99,10.68c0.28,2.21,6.95-2.03-12.29,10.68
		c-3.08,2.03-7.93,8.44-9.17,8.97c-8.41,2.86-11.83,10.67-22.88,9.17c-0.26-0.04-10.55-1.67-11.39-3.33
		c-2.98-5.87-4.97-11.9-3.02-18.54c2.87-9.79,5.33-19.81,10.38-28.72c21.08-37.19,16.45-45.49,19.25-49.68
		c1.51,0.2,0.81,1.9,1.81,2.32c0.91,0.39,1.61,0.91,2.52,1.51c3.53-3.22,7.56-4.84,12.6-2.52c3.22,10.21-0.39,8.33-2.19,13.58
		c0.07-0.86,0.13-1.81-0.84-3.1c-0.46,2.28-1.64,4.06-0.31,5.95c0.28,2.82-11.32,26.26-8.56,37.99c3.23,13.73-1.72,20.48-0.1,22.37
		c4.48-4.48,3.62-10.61,3.02-29.43c2.72-1.71,5.44-3.12,7.96-5.64c-3.22,0-5.24,1.71-7.76,3.83c2.98-16.78,7.55-5.51,11.09-19.15
		c2.64-10.18,14.17-15.42,22.17-21.06c2.18-1.53,16.15-1.76,23.98-5.14c10.22,22.99,13.57,13.03,13.91,46.56
		c-3.63-1.21-6.75-2.22-9.98-3.22c2.82,2.42,6.35,2.92,9.78,4.74c-1.31,7.36-0.1,15.42-6.35,21.67c-1.31-0.2-2.52-1.71-4.23-0.6
		c-0.81,1.91,1.31,2.22,2.12,3.53c-1.81,2.12-3.73,4.33-5.64,6.55c-1.71-0.1-1.31-2.42-3.33-2.22c-1.21,1.51,0.5,2.62,0.91,4.13
		c-1.41,1.61-3.33,2.62-5.14,3.83c-3.67-3.1-0.5-5.97-2.82-7.96c-2.32,2.92-0.1,6.05-0.5,8.87c-4.03,2.12-9.07,2.42-12.8,0.81
		c-1.41-4.64-2.22-9.67-4.64-14.11c-0.24-0.59-2.95-2.18-1.61,3.63c3.37,14.61,8.59,26.6,6.55,45.15
		c-1.27,11.57,2.1,11.26-4.43,31.74c-2.92,9.16-2.61,10.11-7.96,14.21c-10.16,7.77-5.19,25.19-11.29,111.46
		c-0.19,2.72,1.3,5.14,1.21,7.96c-0.22,6.55-0.1,13.1-0.1,18.85c6.35,5.14,12.09,10.08,20.05,11.29
		c0.71,10.08,0.22,19.66-4.94,28.52c-16.96,29.11,6.45,68.42,6.45,93.52c-4.65,1.55-2.73,16.78-14.11,33.56
		c15.09,15.35,19.42,8.83,30.74,14.81c10.8,5.71,30.64,10.79,41.72,7.26c6.04-1.93,11.4-5.52,16.73-8.97
		c2.32-1.5,0.54-7.62-2.52-9.07c-12.01-5.69-11.24-4.11-20.66-10.98c11.21-2.24,9.02,4.11,20.16,6.75c9.68,2.3,19.34,2.18,29.02,0.6
		c6.06-0.99,10.43-10.89,7.26-13c-2.82-2.12-4.93-4.84-7.46-7.05c-5.39-4.72-16.85-5.5-23.18-13.2c-2.32-2.82-4.68-5.7-7.05-8.36
		c-0.62-0.69-0.2-1.61-0.81-2.32c-1.11-0.3-2.32-0.3-3.22-1.41c-0.65-4.38,1.22-7-2.12-9.67c-1.31,0.5-1.41,2.52-3.43,2.02
		c-0.17-0.59,1-20.67,5.54-45.95c2.01-11.19,5.47-22.36,3.93-34.16c-2.76-21.07,5.74-14.51,5.74-27.81
		c5.34-1.41,11.09-0.6,15.82-4.23c-1.31-5.34-1.33-10.49-0.1-15.62c5.63-23.49,2.66-98.01-4.84-110.85
		c-2.81-5.62-4.13-6.16-2.32-18.04c8.84-57.87,15.47-38.93,16.83-76.49c3.02-2.72,4.33-6.35,4.33-10.58c0-4.01,3.95-6.68,2.62-20.66
		c-0.44-4.62-1.02,1.13,7.05-16.02c1-2.12,1.91-4.34,3.43-6.25c2.01-2.53,1.81-6.05,4.03-9.07c6.31,16.74,16.62,31.83,34.16,34.97
		c39.24,7.02,58.43-17.68,63.59-55.53c20.34,0,18.65,0.94,21.16-3.63C901.68,91.7,898.7,86.78,893.16,86.88z M769.61,86.78
		c1.31,2.92,1.21,6.25,2.42,9.17c-2.82-0.5-3.63-2.52-4.53-4.74C768.5,90.01,768.6,88.3,769.61,86.78z M463.35,86.68
		c-2.32-2.92-2.02-4.13,1.71-7.46C469.23,82.67,467.85,87.06,463.35,86.68z M468.18,87.79c3.43-2.92,1.01-5.74,1.31-8.57
		c99.21,0,92.14,0.89,88.99,9.07C550.99,90.68,476.06,88.18,468.18,87.79z M554.95,94.34c-0.11-0.8,0.2-1.71,1.31-2.02
		c3.22,10.28,7.96,20.36,2.52,31.04C552.75,123.59,556.83,107.84,554.95,94.34z M559.19,95.65c-0.4-1.21-1.21-2.42-1.01-4.03
		c3.63-2.02,4.39-5.35,3.63-9.07c-0.85-4.14-4.53-4.03-7.96-4.33c8.43-9.74,20.19,6.44,8.47,16.83
		C561.61,95.66,560.5,96.16,559.19,95.65z M553.74,92.53c-6.45,8.57-8.77,18.85-11.99,28.72c-11.83-6.13-2.53-16.6,6.75-27.11
		C549.92,92.53,551.32,91.82,553.74,92.53z M508.8,109.46c-1.04-5.84-1.81-11.69-1.41-17.84c1.52,0,3.33-0.4,4.03,0.3
		c1.34,1.88-1.02,29.11,19.25,52.61c8.31,9.64,21.92,9.58,22.88,6.95c-8.01,0-12.96,0.79-21.36-8.36
		c-15.43-16.82-19.13-46.41-17.94-50.99c35.25,0,32.13-0.37,32.55,0.91c-6.05,3.63-8.72,10.13-13.5,14.81
		c-1.58,1.55-1.75,11.5,6.55,16.33c5.16,3,4.4,0.87,10.68-20.46c0.53-1.81,1.01-3.73,2.82-5.85c-1.21,6.45-1.71,12.4-1.51,18.34
		c0.17,1.19-3.06,9.47,4.64,11.69c10.06,2.91,10.34-17.47,4.13-29.73c0.3-0.2,0.6-0.4,0.91-0.5c8.97-4.13,13.39-14.99,2.62-24.19
		c-3.85-3.29-11.22,0.06-13.2,4.74c-12.09-0.3-24.09-0.5-35.98-0.81c1.6-31.17,27.94-66.97,47.47-59.26
		c2.73,1.08,5.64,1.81,8.67,1.81c-24.38-17.07-49.7,15.48-56.54,45.15c-0.93,4.03-1.51,8.16-2.32,12.19c-1.51,0.4-2.72,0.5-4.23-0.3
		c0.85-15.78,9.07-40.8,24.39-55.63c45.49-44.01,90.93,46.56,53.92,110.96C562.21,174.22,518.77,165.2,508.8,109.46z M564.73,160.85
		c-3.23,0.39-6.55,0.71-9.78-0.4c53.51-10.48,66.88-127.53,11.79-151.06C633.44,10.05,628.7,153.09,564.73,160.85z M620.26,95.55
		c0.3-0.4,0.5-1.21,1.41-0.91C621.67,95.45,621.26,95.85,620.26,95.55z M761.75,116.11c-1.97,3.61-1.55,4.44-3.63-2.82
		C760.03,113.69,760.74,114.9,761.75,116.11z M757.31,124.07c-1.51-5.64-3.93-10.88-6.05-16.23
		C755.4,112.48,758.02,117.62,757.31,124.07z M752.88,119.54c-1.31-1.31-0.91-3.02-1.51-4.33
		C752.17,116.41,753.28,117.62,752.88,119.54z M754.79,94.85c0-0.27-0.81-0.2,5.54-0.2C760.34,94.93,760.96,94.85,754.79,94.85z
		 M763.56,94.75c2.22-1.61,2.22-1.61,2.92,0.2C765.58,95.35,764.77,95.45,763.56,94.75z M776.66,25.81
		c-2.82,3.73-6.85,4.74-11.29,5.34C768.9,28.84,773.64,28.94,776.66,25.81z M765.27,20.67c-0.5,1.41-0.5,1.41-2.02,2.02
		c-0.3-0.91-0.5-1.81-0.81-2.72C763.16,20.78,764.27,20.47,765.27,20.67z M762.35,19.97c-0.71-0.2-1.41-0.6-2.02-1.41
		C761.85,18.26,762.65,18.36,762.35,19.97z M759.33,28.94c-1.91,1.01-3.53,1.01-5.24,0.5C755.7,29.44,757.21,27.93,759.33,28.94z
		 M751.57,16.04c-0.71,1.31-1.21,1.41-1.71,0.2C750.36,15.74,750.76,15.84,751.57,16.04z M747.94,29.24c0.6,0.1,0.91,0.4,0.6,1.31
		C747.94,30.15,747.54,29.85,747.94,29.24z M749.96,31.56c0.97,0.97-1.61,2.36-2.92,2.62C748.44,32.97,749.15,32.26,749.96,31.56z
		 M745.62,37.1c1.4,0.28-0.5,1.13-3.43,3.33C742.7,38.31,744.21,37.71,745.62,37.1z M742.6,29.24c-1.71,0.2-2.52-0.91-3.43-2.02
		C740.78,27.12,741.59,28.43,742.6,29.24z M729.7,27.12c0.6,0.4,1.01,0.81,1.01,1.51C728.43,31.37,727.21,27.8,729.7,27.12z
		 M730.61,47.28c0,0.2-0.4,0.4-0.6,0.71C729.63,46.86,730.5,46.85,730.61,47.28z M729.2,42.54c0-0.14,1.01-0.69,1.01,0.4
		C729.53,43.62,729.05,42.96,729.2,42.54z M726.17,53.93c-0.6,0-0.71-0.3-0.71-0.81C725.87,53.33,726.17,53.43,726.17,53.93z
		 M722.65,15.23c-0.3,0.71-0.71,1.11-1.41,0.5C721.54,14.83,722.04,14.93,722.65,15.23z M722.14,24.3c0.3,1.11,1.71,1.61,1.61,3.22
		c-1.21-0.5-2.22-0.91-3.22-1.31C721.03,25.41,721.03,24.6,722.14,24.3z M720.83,49.6c0.4,0.8-1.31,1.58-1.31-0.2
		C720.02,49.3,720.53,48.99,720.83,49.6z M718.51,41.84c-0.81,0.3-1.11-0.2-1.31-1.01C717.71,41.03,718.71,40.43,718.51,41.84z
		 M717.1,20.78c0.3,0.4,0.4,0.81-0.1,1.11C716.47,22.15,715.75,21.05,717.1,20.78z M715.09,45.36c0.81,0.4,0.81,0.91-0.1,1.61
		C714.58,46.27,714.48,45.77,715.09,45.36z M714.58,26.42c0,0.6,0,1.31-0.81,1.41C713.17,26.92,713.68,26.62,714.58,26.42z
		 M712.06,59.68c0.3,0.4,0.5,0.5,0.5,0.71C713.24,61.73,711.34,61.37,712.06,59.68z M709.64,40.83c-0.5,1.71-0.5,1.71-1.71,2.22
		C707.83,41.94,708.23,41.23,709.64,40.83z M708.44,57.76c-0.5-0.6-0.6-1.11,0.3-1.31C709.04,56.95,709.04,57.46,708.44,57.76z
		 M707.02,46.57c0.1,0.6-0.2,1.01-0.91,1.51C706.02,47.08,705.82,46.37,707.02,46.57z M707.63,81.44c1.51-1.01,3.22-0.1,4.94-1.01
		c-1.21-0.71-2.02-1.11-2.92-1.61c2.67-5.33-1.86-5.61,4.33-8.57c6.44-3.07,8.37,6.23,14.21,2.06c-0.13,5.48,1.88,8.43,6.65,9.33
		c-5.87-4.45-4.19-11.27-6.45-9.74c0-0.54-0.09-1.16-0.91-1.65c-2.96,3.94-8.8-4.19-10.18-5.24c-4.57-3.49-3.02-10.58,2.62-12.7
		c-1.41,2.82-2.42,5.95-4.94,8.06c0.71,1.71,1.61,3.02,3.12,3.73c1.11-1.51-2.52-3.02,0.4-4.23c1.71,1.01,1.01,3.33,2.32,4.53
		c2.32-3.02-2.72-5.85,0.2-8.67c1.11,0.5,1.71,1.31,2.22,2.52c-2.12,2.22-0.81,4.94-1.11,7.76c2.22,0.5,4.33,1.31,5.44-1.21
		c-0.2-2.72-3.33-1.61-3.83-3.93c-0.2-1.81,1.41-1.61,3.02-1.91c-1.61-1.81-3.02-3.33-4.74-5.14c8.12,1.67,5.63,8.21,9.17,9.98
		c1.21-0.2,0.1-2.02,1.31-2.12c1.31-0.1,1.81,1.71,3.53,0.91c-9.4-9.85,14.48-22.48,16.12-27.61c4.94,0.4,4.94,0.4,7.36-1.21
		c0.3-0.71-0.91-0.71-0.6-1.31c2.72-1.21,5.24-1.21,7.56,0.91c0,3.43,0.9,6.96,2.22,10.38c2.56,6.65-4.41,4.69-0.81,11.59
		c4.71,9.02,4.92,9.73,3.93,10.98c-1.37,1.74-3.53,0.4-5.34,0.71c-0.6,0.1-0.81-1.21-1.71-0.91c-1.11,3.02-0.1,3.93,3.83,3.53
		c0.1,1.21,0.6,2.52,0.4,3.12c-1.71,3.02-5.54,1.51-6.65,4.43c1.81,1.61,2.82-0.71,4.23-0.6c4.06,2.28-1.76,2.97-0.1,9.67
		c1.8,7.3-10.98,7.07-16.02,4.74c-0.71-0.4-1.51-0.71-2.42-0.5c0.71,1.61,2.72,1.21,3.43,2.62c-2.82,2.62-3.42,6.25-5.34,9.27
		c-2.11,3.33-0.6,6.95-1.51,10.48c1.61-0.3,1.01-2.32,2.62-2.62c3.16,12.1,5.37,15.66,1.91,23.48c-3.31,7.5-8.56,3.9-15.52,1.91
		c-0.61,0,0.52-0.04,0.1,0.81c-3.01-0.46-2.7-2.28-2.53-2.17c-0.06-0.1-20.27-9.98-24.38-22.12c4.74,2.02,9.78,2.72,14.81,3.53
		c-17.09-6.03-18.7-6.59-20.66-10.18c-4.53-4.94-10.18-9.07-13.4-15.02C704.66,81.45,707.12,85.73,707.63,81.44z M715.09,65.32
		c0.5,1.01,1.51,1.21,1.21,2.52C715.19,67.43,714.89,66.83,715.09,65.32z M748.14,107.14c-0.81-0.4-0.91-1.01-0.5-1.71
		C748.04,105.93,748.54,106.33,748.14,107.14z M628.42,79.02c3.02,2.32,3.22,2.92,1.71,5.14C629.73,82.35,629.22,80.74,628.42,79.02
		z M631.04,110.57c0,0.97-0.23,2.15-0.81,2.92C630.63,112.48,630.34,111.47,631.04,110.57z M631.95,121.85
		c1.01,2.62-0.5,5.95-3.63,7.66c1.01-7.05,5.44-13.3,4.94-20.56c5.85-3.22,3.12-8.36,3.02-13c12.09-0.91,23.98,0,35.88,0.2
		C654.52,98.37,640.41,105.73,631.95,121.85z M673.57,93.54c-62.59-1.72-43.44-0.73-41.42-5.04c2.27-4.86-8.75-5.61,56.94-2.72
		c-1.41,1.71-3.15,2.8-4.53,4.23C681.48,93.18,677.8,93.65,673.57,93.54z M656.54,253.17c-2.57,8.81,3.94,4.26-3.53,7.66
		C656.33,259.41,653.21,255.08,656.54,253.17z M653.92,442.83c7.92-16.67,3.26-23.84,4.43-28.32c1.41,0.81,1.41,0.81,3.12,5.04
		c0.81-1.01-0.3-2.72,1.51-3.63c19.85,4.49,16.13,1.64,17.64,5.64c-5.41,5.41,0.36,5,2.32,11.99c3.52-4.89-1.81-8.33-0.5-14.51
		c5.64,0.2,11.09,1.31,16.12-2.92c0.67,11.05-11.45,12.72-12.6,32.55c-3.38,58.53-10.54,41.5-5.64,85.56
		c-2.42,1.51-6.15,1.51-5.64,5.44c-9.41,0.67-7.86,0.85-7.86-8.57c-1.91,2.82-1.01,5.74-1.91,8.26c-5.73,0.72-4.16,1.19-6.55-12.8
		c2.22-3.83,2.42-8.97,0.4-11.99c-0.1,2.42-0.2,4.53-1.11,6.65C655.79,497.95,639.15,473.91,653.92,442.83z M687.78,524.56
		c0.67,3.13-1.04,5.47-2.32,7.96c-4.13,8.06-7.71-17.53,1.51-55.43C697.05,527.1,686.52,518.65,687.78,524.56z M675.99,546.23
		c-9.74,1.22-12.48,8.5-16.12,1.61c1.01-1.51,0-3.53,1.01-5.24c4.74-0.71,9.57,0.81,14.31-0.71
		C675.48,543.3,675.68,544.51,675.99,546.23z M656.94,540.18c1.81,1.91,0.5,4.13,1.51,5.85
		C655.93,544.61,656.74,542.6,656.94,540.18z M709.64,565.57c19.79,11.96,21.7,6,20.96,14.71c-4.13,2.92-8.97,5.14-13.5,7.46
		c-9.64,4.92-30.8,0.31-42.43-6.15c-9.8-5.44-20.66-2.09-27.92-12.7c1.39-5.83,6.25-9.07,6.25-13.71c0-3.33,1.51-5.85,3.33-8.67
		c2.89,4.96,5.75,9,10.88,5.44c9.95-6.89,11.34,0.59,9.78-13c1.51-0.6,2.92-2.22,4.64,0.2c1.11-4.42,6.03-2.5,5.14,4.03
		c7.7,1.93-10.73,1.28-9.57,9.17c1.61-0.1,2.71-1.32,3.93-2.22c2.48-1.83,9.09-4.98,9.88-1.81c-4.94,1.71-10.48,1.81-14.21,6.75
		c3.93,1.41,6.25-2.12,9.37-1.71c-1.51,1.81-4.94,1.41-5.44,4.64c2.92,1.51,5.04-1.31,7.86-1.11c-2.22,1.61-2.22,1.61-3.43,4.13
		c5.54,0.1,9.98-2.22,14.71-3.83c6.56,3.65-5.51,1.86-9.67,7.66c9.62,1.66,15.03-6.06,16.33-1.31c-2.92,0.91-6.15,1.01-8.77,3.22
		c2.32,2.42,4.74,0.7,6.85,1.31C706.32,568.59,707.63,566.08,709.64,565.57z M693.82,555.09c0.76-0.76,1.79-1.25,2.72-0.71
		c-0.91,0.4-1.71,0.6-2.32,0.91C694.02,555.09,693.92,555.09,693.82,555.09z M726.27,529.19c-0.81,0.4-1.41,0.71-2.02,0.1
		C724.76,528.59,725.27,527.88,726.27,529.19z M720.33,519.02c0.71,2.52-0.71,5.64,2.22,7.36c-2.02,2.02-5.74,2.92-4.94,6.85
		c1.81,0.4,2.22-1.01,3.22-1.21c4.15,1.78,0.01,0.73,0.71,3.33c1.51,0.4,2.42,1.71,3.12,3.02c2.62,0.4,4.43-1.91,6.95-1.41
		c-1.01,1.41-3.83,1.11-3.33,3.83c2.22,1.81,4.43-1.51,6.85-0.3c-1.21,1.51-3.33,1.71-3.33,4.03c3.12,2.62,6.15-2.32,9.67-0.81
		c-1.51,1.31-3.73,0.5-4.13,3.12c2.72,0.4,5.24-0.2,6.95-0.91c7.86,2.92,14.81,6.35,19.65,12.9c-0.91,3.63-2.02,7.26-6.45,7.96
		c-36.01,5.71-34.41-11.26-52.4-7.66c-6.25-8.16-15.62-13.5-16.63-25.6c1.01-2.22,3.63-4.94,2.22-8.97c3.33-0.1,3.74,1.71,4.03,3.83
		c0.73,5.34,6.36,7.78,10.58,4.64c2.02-1.5,4.12-2.76,6.55-3.53c3.63-1.15,3.43-6.09-9.67,2.52c-3.02-1.31-4.03-4.13-6.05-6.85
		c6.35,0.6,11.99,0.6,17.33-2.02c0.81,1.61,0.3,3.43,2.22,4.33c1.11-2.42-0.5-4.74,0.6-7.05
		C717.81,520.83,718.61,518.81,720.33,519.02z M724.26,430.84c-0.54,4.73,1.31,9.27,0.4,14.11c-1.31,6.95-1.23,14.2-2.72,21.16
		c-7.82,36.55-4.26,43.66-6.25,51.6c-0.81,0.6-2.13,0.6-2.22,2.02c-0.11,1.71-1.51,1.11-2.42,1.31c-2.62,1.81-5.64,1.51-8.77,1.21
		c0-3.22,0.3-6.35-1.51-9.27c-2.12,2.92-0.81,6.45-2.42,9.88c-1.31-1.81-3.43-0.81-4.84-1.81c-1.53-1.96,2.91-13.71-2.82-41.52
		c-9.36-45.39,10.72-49.19,10.18-63.39c2.62-1.01,5.13-1.32,7.16-2.92c2.31-1.83,1.31-4.94,3.53-7.05
		c5.95,5.24,13.1,1.71,19.85,2.42C731.75,419,726.26,413.13,724.26,430.84z M744.82,403.73c-2.52,0.57-25.36,3.71-33.66,0.3
		c0.5-6.05,1.51-12.19,3.12-18.74c2.02,3.22,3.33,6.25,6.35,7.96c-2.32-3.12-3.83-6.55-5.74-10.28c1.41-5.64,3.02-11.69,4.84-18.85
		c4.43,10.78,13,11.69,22.07,11.39c-5.36-4.02-8.19,3.19-17.33-7.56c-4.72-5.55-4.43-11.29-2.72-17.54
		c0.32-13.93,10.73-21.87,8.77-27.01c-2.12,4.53-4.11,8.38-6.35,12.09c-8.29,13.75-5.5,25.01-7.66,31.44
		c-4.91,14.62-8.47,29.63-9.67,45.25c-8.48,0.89-17.28,10.36-56.54-2.92c0.64-2.25,2.65-27.93,2.32-35.47
		c-0.14,0.14-2.94,25.49-2.62,28.22c0.3,2.52,0,4.53-1.11,6.65c-3.02-1.31-5.54-3.33-8.06-5.34c-2.17-1.99-1.84-0.74-2.52-23.98
		c-0.54-18.34,7.64-0.92,9.88-47.47c-3.38,6.09,1.63,22.94-9.67,36.99c1.63-8.96,1.91-62.13,2.52-72.16
		c0.49-8.06,3.74-15.62,3.33-23.88c-0.13-2.52,1.51-4.53,3.93-5.85c0.37,1.28,0.01,1.31,1.01,1.31c2.72-4.94,7.86-9.07,10.18-8.26
		c0.4,0.91-0.5,2.12,0.6,2.62c2.01,0.72,2.7-3.12,3.83,1.41c0.2,0.8-0.4,18.33-8.97,27.92c-3.91,4.37-0.27,6.85-1.71,15.52
		c-3.28,19.72,2.41,23.8-0.5,38.7c-2.5,12.77,0.16,10.93-0.2,27.71c2.16-3.37-0.75-16.9,1.51-27.51c2.58-12.11-1.52-20.62-0.3-32.35
		c1.71-16.44-2.26-16.81,2.52-22.47c6.75-8,7.14-15.42,9.37-29.12c1.71-0.1,1.31,2.12,2.82,2.12c1.64-2.11,4.34-2.42,3.12,3.43
		c-1.45,6.97-2.13,14.09-3.02,21.16c-0.11,0.91-0.71,2.12,1.51,2.72c1.21-9.27,4.13-18.14,4.03-27.21c1.41-1.01,1.91,0.91,2.52,0.3
		c1.81-1.61,3.32-0.2,4.33,0.6c2.64,2.1,4.7,1.73,12.6,2.72c-4.03,5.54-4.94,11.29-2.42,17.54c0.4-5.95,2.92-11.19,5.04-16.53
		c1.51,0,3.22-0.91,4.74,0.3c0.2,0.71-1.1,1.5,0.2,2.02c1.72,0.69,2.52-0.91,4.13-1.31c3.22,2.82,4.23-0.71,6.65-2.72
		c-2.32,3.12,1.32,3.12,1.51,4.84c2.17,19.43,3.77,16.4,3.33,13.6c-1.34-8.44-0.16-12.89-1.54-15.37c-0.06-0.03-0.07-0.02-0.07,0.05
		c0-0.76-1.6-1.12-0.5-2.22c1.42,0.59,0.36,1.84,0.57,2.17c7.64,2.2,10.46-1,15.95,0.86c3.21,1.09,2.86-0.8,7.66,0
		C754.9,297.11,749.26,394.84,744.82,403.73z M662.38,258.21c1.31-0.1,2.32,0.4,2.92,1.61
		C664.09,259.72,663.09,259.21,662.38,258.21z M665.3,259.72c1.31,0,2.52,0,3.53,1.51C667.42,260.72,666.11,260.83,665.3,259.72z
		 M676.09,262.14c2.32,0.5,4.84,0.1,6.85,1.81C680.52,264.25,678.3,263.24,676.09,262.14z M684.95,263.55c0.6,0.1,0.81,0.3,0.4,0.91
		C684.65,264.35,684.65,264.05,684.95,263.55z M687.27,265.97c0.4-1.01,0.4-2.22,2.02-1.81
		C690.07,265.41,689.77,267.63,687.27,265.97z M691.1,266.67c0.5-0.81,0.5-1.81,1.91-1.71C692.71,265.86,692.92,266.77,691.1,266.67
		z M694.63,267.38c0.5-1.01,0.71-1.81,1.91-2.02C696.44,266.37,696.85,267.58,694.63,267.38z M703.09,266.67
		c-0.91,2.52-2.52,1.61-3.93,1.21C697.85,265.26,700.47,265.36,703.09,266.67z M705.51,268.99c0-1.39,0.75-2.04,2.72-0.81
		C707.53,270.2,706.62,269.9,705.51,268.99z M721.34,269.79c0.3,0.3,0.1,0.6-0.3,0.6C720.28,270.4,720.54,269,721.34,269.79z
		 M724.06,269.69c0.81-0.81,1.51-0.91,2.52,0.6C725.57,270.2,724.76,270.8,724.06,269.69z M727.58,270.4
		c1.41-1.61,2.02-3.02,3.93-2.22C731.51,270.7,729.8,270.2,727.58,270.4z M734.84,266.87c-0.3,1.11,0,1.81-0.6,2.32
		C733.83,268.08,733.83,268.08,734.84,266.87z M736.65,267.28c0.2-1.21,0.91-1.21,2.02-1.41
		C737.86,266.47,737.76,267.17,736.65,267.28z M755.8,192.3c-1.87,22.65-9.88,25.12-9.88,31.95c0,6.34-3.95,9.71-3.63,14.41
		c0.4,5.81-2.84,16.63-2.72,20.66c0.18,5.9-7,5.11-13,5.85c-18.26,2.25-15.79-2.93-49.88-5.95c-7.35-0.65-14.75-4.4-20.86-8.57
		c5.71-11.41,3.49-19.67,4.74-24.89c4.53-19-2.98-33.63-2.02-37.89c7.62,1.56,10.64-3.11,17.74,2.22c-0.2-1.81-1.71-2.82-1.61-4.74
		c13.7-6.32,12.82-16.8,18.95-12.9c0.6,0.81,0.71,2.22,2.12,2.52c1.11,0.3,0.5-1.11,1.31-1.21c3.63,0.1,6.25,4.84,10.88,2.12
		c-5.34-2.72-11.59-2.92-15.62-7.26c5.64-12.29,8.06-24.89,7.16-37.89c0.6-0.81,1.41,0.2,1.71-0.91
		c-4.77-1.76,1.25-7.55-14.51-31.24c-0.93-1.4-2.32-2.72-1.21-5.24c7.76,9.47,16.06,17.78,23.08,27.31
		c5.64,7.66,21.09,21.93,30.54,20.96c6.08-0.62,6.58,2.66,7.36,1.11c0-1.11-1.61-1.01-1.71-2.32c0.91-0.5,2.02-1.73,3.12-1.71
		c4.61,0.08,7.31-9.31,5.74-14.21c-0.29-0.91-0.6-2.02,0.3-3.43c3.6,10.79,2.44,11.04,4.13,14.11c4.12,7.47,5.14,15.62,5.64,23.78
		C764.39,170.81,756.72,181.22,755.8,192.3z M774.44,100.49c0.71-0.4,1.31-0.6,2.02-0.31C777.84,103.28,776.06,103.46,774.44,100.49
		z M778.07,98.07c-1.26-0.42-0.99,1.58-1.71-9.27c1.21-0.1,2.12,0.5,3.33,1.21C778.88,92.73,780.29,95.85,778.07,98.07z
		 M783.11,122.06c-2.6-6.85,4.38-7.36,0.2-15.92c-3.6-7.37-6.59-2.53-2.02-7.76c28.9,0,21.45-2.12,25.9,6.35
		c4.44,8.46,18.94,9.87,24.29,1.01c14.53-24.07-11-44.54-23.38-26.4c-5.01,7.34,3.93,5.44-28.52,5.44
		c0.7-11.98,7.8-32.75,22.78-44.85c18.31-14.8,42.06-7.98,53.92,12.4c18.42,31.66,10.58,73.09-11.79,93.02
		C825.04,162.65,796.11,156.36,783.11,122.06z M781.6,87.99c11.19,0,22.27,0,33.46,0c7.55,0,8.45,8.48,0.2,8.36
		C767.09,95.66,785.52,97.79,781.6,87.99z M810.12,105.53c-1.51-1.92-2.82-4.03-3.12-6.65c1.51-0.6,2.92-0.31,4.33-0.2
		c9.25,0.7,13.01-3.72,12.5-7.96c-0.79-6.59-9.46-5.24-16.53-5.24c4.68-12.71,13.76-13.64,19.35-7.05
		C839.52,93.59,821.8,120.37,810.12,105.53z M828.46,77.81c1.11,0.5,1.61,1.11,1.71,2.12C829.27,79.63,828.96,78.72,828.46,77.81z
		 M830.27,79.83c7,9.58,3.11,23.61-3.53,28.12C836.84,96.28,830.65,81.62,830.27,79.83z M859.4,141.51
		c-7.26,8.86-16.73,13.3-28.62,13.81c48.41-18.15,50.48-103.27,5.74-123.15C869.99,32.16,894.66,98.48,859.4,141.51z M878.85,97.77
		c-0.3-3.02-0.2-5.54,0-7.96c15.67,0,18.62-0.89,19.25,3.43C898.97,99.19,890.95,97.77,878.85,97.77z"/>
	<path d="M119.51,470.44c-5.88-3.63,4.54-6.13,4.74-17.54c-2.92,0-2.62,2.52-3.93,3.63c-3.73-1.01-7.16,0.5-10.98,1.21
		c0.6,1.31,0.4,2.42-1.31,2.92c1.31,1.01,2.12,1.71,2.92,2.32c-1.01,1.01-2.82,1.01-3.12,2.72c0.91,2.02,2.92,0.81,4.33,1.61
		c-1.21,1.41-3.33,1.51-4.23,3.22c2.02,1.01,2.02,1.01,7.26-2.02c1.51,2.12,3.6,3.65,5.24,5.64c1.59,1.93,1.31,4.64,3.02,6.85
		c-8.47,3.43-16.73,6.16-26,3.33c-6.25-1.91-7.85-4.03-8.26-10.68c-0.93-15,6.58-14.8-0.3-22.37c-3.65-4.01-4.51-9.08-6.15-13.81
		c-1.78-5.15,6.13-13,10.08-16.73c6.75,2.32,14.11,1.31,20.66,3.83c-0.4,0.6-1.52,0.78-2.52,1.21c-6.31,2.68-9.64,11.14-7.36,17.54
		c0.99,2.78,7.35,7.88,7.79,8.43c1.66-1.89,0.16-3.09-1.14-3.99c-7.69-5.38-5.69-19.57,6-21.64c0.11-0.04,0.21-0.03,0.08-0.03
		c0.67-1.73,3.1,0.06,3.89-2.02c-2.91-3.08-7.66-2.25-7.76-2.32c-4.64-3.11-10.38-1.2-15.12-2.92c-4.94-1.8-7.54,0.32-10.18,3.73
		c-3.36,4.33-10.69,10.98-5.43,20.05c2.29,3.95,4.35,11.66,5.34,11.99c5.52,2.24-1.26,9.73-0.3,20.36c0.27,3.03,1.9,5.44,2.42,8.36
		c0.72,4.06,28.26,9.29,36.48-2.22C122.59,475,123.24,472.75,119.51,470.44z"/>
	<path d="M111.37,451.76c-0.01,0.01-0.02,0.03-0.03,0.04C111.42,451.84,111.42,451.81,111.37,451.76z"/>
	<path d="M111.23,452c-0.06-0.06-0.02-0.04-0.1,0H111.23z"/>
	<path d="M671.75,101.3c-1.5,1.02-2.92,2.02-2.22,4.53c4.33-3.12,8.77-4.43,13.91-3.02C679.51,101.9,676.12,98.32,671.75,101.3z"/>
	<path d="M623.78,110.16c-2.02-1.01-3.63,0.4-5.85,0.91c3.21,2.98,4.83-3.47,3.53,12.6C624.29,119.54,623.28,114.8,623.78,110.16z"
		/>
	<path d="M657.04,111.88c3.83-2.12,7.05-4.53,11.89-4.43C665.5,104.42,659.86,106.84,657.04,111.88z"/>
	<path d="M597.98,155.72c0.3,5.54-1.21,10.98-1.31,16.53C598.59,166.8,599.4,161.36,597.98,155.72z"/>
	<path d="M615.52,179.4c-0.5-3.12-4.33-5.14-11.69-5.95C607.76,175.47,612.6,175.57,615.52,179.4z"/>
	<path d="M616.53,151.48c-1.41-0.4-1.41,0.4-1.31,0.91c1.41,3.63-0.1,7.16-0.71,10.68C614.51,169.71,617.1,160.31,616.53,151.48z"/>
	<path d="M600.81,185.95c-3.53-3.12-5.24-6.85-4.03-11.59C594.15,179.8,595.26,182.93,600.81,185.95z"/>
	<path d="M673.26,162.87c-1.71,3.12,0.3,6.55-1.31,9.57C674.07,170.13,674.68,165.19,673.26,162.87z"/>
	<path d="M621.36,174.06c-2.12,1.71-2.92,4.03-3.93,6.65C620.76,179.2,621.97,177.08,621.36,174.06z"/>
	<path d="M766.68,112.68c1.41,1.51,2.92,2.52,4.33-0.2C769.3,112.58,767.99,112.58,766.68,112.68z"/>
	<path d="M654.82,114.8c-2.32,0.5-3.02,1.81-3.53,3.53C652.91,117.82,654.12,116.92,654.82,114.8z"/>
	<path d="M772.03,111.78c1.91-0.4,2.92-1.71,3.73-4.13C773.54,108.85,772.83,110.37,772.03,111.78z"/>
	<path d="M615.62,113.39c1.41,1.41,2.42,1.41,3.73,0.71C618.34,112.18,617.13,113.19,615.62,113.39z"/>
	<path d="M636.18,129.01c1.41,0.91,2.42,0.6,3.43,0.2C638.6,128.2,637.59,128.51,636.18,129.01z"/>
	<path d="M775.55,112.28c-1.81,0.71-0.91,2.12-1.01,3.63C776.33,115.16,776.47,113.2,775.55,112.28z"/>
	<path d="M777.77,113.29c-1.51,1.21-1.21,2.42-0.81,4.03C778.27,116.01,778.68,114.9,777.77,113.29z"/>
	<path d="M610.38,191.59c-0.6-1.91-0.6-1.91-3.22-2.32C608.36,190.18,609.67,190.38,610.38,191.59z"/>
	<path d="M644.14,167.61c-1.81,0-2.32,1.11-3.02,2.12C643.03,169.52,643.03,169.52,644.14,167.61z"/>
	<path d="M773.13,117.72c-1.21,0.5-1.31,1.41-1.41,2.82C773.13,119.74,773.94,119.13,773.13,117.72z"/>
	<path d="M768.1,127.6c-1.41,0.71-1.31,1.91-1.51,2.82C767.69,129.92,768.3,129.11,768.1,127.6z"/>
	<path d="M617.84,134.55c-1.11,0.4-1.21,0.91-0.4,1.81C618.44,135.66,618.14,135.16,617.84,134.55z"/>
	<path d="M617.03,139.69c-1.41,0.1-0.6,1.11-0.71,1.61C616.93,140.9,617.13,140.4,617.03,139.69z"/>
	<path d="M769.81,124.47c1.01-0.2,1.21-0.81,1.01-1.71C769.51,122.86,769.41,123.47,769.81,124.47z"/>
	<path d="M653.11,137.58c0.1-0.81-0.4-0.91-0.91-1.01C651.25,137.33,652.76,138.28,653.11,137.58z"/>
	<path d="M638.4,170.53c0,0.4,0.3,0.6,0.6,0.4c0.2-0.1,0.2-0.4,0.3-0.6C638.76,169.78,638.4,170.42,638.4,170.53z"/>
	<path d="M616.43,146.24c-0.6,0.4-0.5,0.91-0.3,1.41C617.23,147.35,616.73,146.75,616.43,146.24z"/>
	<path d="M648.37,121.75c1.21,0.6,1.21-0.1,1.11-1.01C648.78,121.05,648.47,121.25,648.37,121.75z"/>
	<path d="M766.68,130.52c-0.5,0.4-0.71,0.91-0.71,1.81C766.79,131.73,766.48,131.03,766.68,130.52z"/>
	<path d="M255.65,365.03c-13.3,6.05-13.71,6.25-16.23,10.68c5.64-6.35,13.91-7.46,21.36-10.48c-4.12,0-9.51-6.45-17.64-0.71
		c-2.31,1.63-4.64,3.33-7.16,5.04C242.22,370.31,244.87,359.42,255.65,365.03z"/>
	<path d="M201.13,353.84c-4.33,5.04-1.91,21.57,4.03,27.71C202.54,372.49,199.11,363.62,201.13,353.84z"/>
	<path d="M232.47,375.81c2.42-1.81,5.24-3.02,8.06-4.94c-1.61-1.11-3.43,0.1-4.43-1.21c-2.81,2.93-12.04,7.21-10.18,12.8
		C228.64,380.45,230.05,377.63,232.47,375.81z"/>
	<path d="M201.02,383.57c-3.33-4.03-6.65-7.96-9.78-12.19C190.95,376.32,195.78,382.26,201.02,383.57z"/>
	<path d="M256.05,399.7c19.29,6.1-7.36-3.05-25.28-11.49C221.07,381.76,229.41,391.27,256.05,399.7z"/>
	<path d="M224.3,410.28c10.78-1.21,20.66-3.63,30.94-6.35C253.03,403.22,230.85,407.86,224.3,410.28z"/>
	<path d="M315.61,422.47c1.71,1.31,12.8,1.51,17.03,0.5C327,421.56,321.25,421.67,315.61,422.47z"/>
	<path d="M350.58,440.21c-4.08,1.11,1.01,5.53,4.43,11.19C354.51,447.16,353.8,443.13,350.58,440.21z"/>
	<path d="M327.9,504.4c4.03-3.53,4.03-8.26,3.63-13.1C329.41,495.43,328.41,499.77,327.9,504.4z"/>
	<path d="M237,412.6c7.67-0.63,11-3.86,26.81-4.94C259.58,406.25,243.35,409.37,237,412.6z"/>
	<path d="M334.25,483.54c2.02-4.43,2.52-10.58,1.31-13.81C333.85,471.45,333.34,476.79,334.25,483.54z"/>
	<path d="M334.55,457.84c-3.02,4.13-2.22,9.27-3.43,14.01C332.84,467.32,334.96,462.88,334.55,457.84z"/>
	<path d="M221.48,388.11c-3.53,0-13.4,3.43-17.54,6.45C209.69,392.44,215.44,390.32,221.48,388.11z"/>
	<path d="M237,389.32c2.82-0.81,8.67-5.04,11.59-8.47C245.37,382.16,238.61,387.1,237,389.32z"/>
	<path d="M350.78,412.19c2.12,2.02,3.53,2.52,8.16,2.82C356.52,412.19,353.2,410.98,350.78,412.19z"/>
	<path d="M230.05,401.21c4.33-0.3,8.67-0.81,12.9-2.02C238.61,399.7,234.18,399.6,230.05,401.21z"/>
	<path d="M209.99,354.35c-3.12,0.3-4.13,2.92-5.54,5.14C206.06,357.57,209.09,357.07,209.99,354.35z"/>
	<path d="M225.21,396.98c2.92-0.1,5.74-0.3,8.36-1.91C230.85,395.66,228.03,396.27,225.21,396.98z"/>
	<path d="M278.82,429.32c-2.52,1.01-5.14,1.71-7.46,3.33C274.29,432.55,277.11,432.15,278.82,429.32z"/>
	<path d="M350.38,434.36c2.12,1.61,4.53,1.41,6.65,2.62C355.92,434.36,353.8,433.46,350.38,434.36z"/>
	<path d="M360.15,444.44c2.32-2.32,2.02-3.43-1.51-5.74C358.74,440.91,361.36,442.02,360.15,444.44z"/>
	<path d="M326.89,480.22c2.02-1.01,2.52-2.52,2.72-5.04C327.1,476.59,326.79,478.1,326.89,480.22z"/>
	<path d="M362.07,415.42c-0.2,2.72,2.62,3.53,3.12,5.64C365.29,418.84,365.29,418.84,362.07,415.42z"/>
	<path d="M251.51,388.31c-2.32,1.41-4.03,3.12-5.14,5.54C247.99,392.14,249.7,390.32,251.51,388.31z"/>
	<path d="M263.1,363.01c-2.32-0.91-4.64-1.71-7.86-1.71C258.06,363.11,260.68,362.71,263.1,363.01z"/>
	<path d="M343.62,432.75c-2.12-0.1-3.83,0.5-5.44,1.41C340.2,434.87,341.91,434.16,343.62,432.75z"/>
	<path d="M327.7,523.75c1.61-1.71,2.12-3.22,1.81-5.04C328.2,520.02,327.5,521.43,327.7,523.75z"/>
	<path d="M329.72,438.39c-1.71,1.21-3.02,2.72-3.53,4.84C328.31,442.32,329.11,440.41,329.72,438.39z"/>
	<path d="M316.11,536.45c1.11-1.31,1.21-2.82,1.21-5.14C315.81,533.33,315.31,534.74,316.11,536.45z"/>
	<path d="M283.46,369.36c-1.61,0.4-3.33,0.2-5.54,1.91C283.9,370.03,284.01,370.47,283.46,369.36z"/>
	<path d="M366.1,406.25c-0.81,1.21-0.81,1.21,0.3,3.22C367,408.26,366.8,407.25,366.1,406.25z"/>
	<path d="M349.87,427.21c1.71,0.91,2.82,1.01,4.43,1.01C353,426.7,351.79,426.7,349.87,427.21z"/>
	<path d="M324.68,518.01c0.81-1.41,1.01-2.42,0.81-3.93C324.27,515.29,324.07,516.29,324.68,518.01z"/>
	<path d="M293.74,416.32c1.11,0.71,2.12,1.21,3.93,1.21C296.06,416.83,295.05,416.22,293.74,416.32z"/>
	<path d="M303.21,381.66c1.71,0.1,2.52-1.31,3.63-2.22C304.93,379.14,304.32,380.75,303.21,381.66z"/>
	<path d="M267.94,403.63c0.71,0.71,1.61,1.51,3.02,1.61C270.16,404.03,269.05,403.93,267.94,403.63z"/>
	<path d="M319.03,491.3c1.71-0.81,2.32-1.61,2.72-3.02C319.94,488.38,319.84,489.69,319.03,491.3z"/>
	<path d="M327.7,507.53c-1.31,0.4-1.61,1.01-1.31,2.12C327.8,509.54,327.7,508.74,327.7,507.53z"/>
	<path d="M255.34,385.18c-0.71,0.2-1.11,0.71-1.71,1.51C254.64,386.39,255.54,386.49,255.34,385.18z"/>
	<path d="M323.17,450.19c-0.71,0.4-1.21,0.91-0.81,1.81C323.27,451.7,323.57,451.09,323.17,450.19z"/>
	<path d="M230.05,401.31c-0.71,0-1.51,0-2.42,0C228.54,401.81,229.24,401.31,230.05,401.31z"/>
	<path d="M323.37,485.56c1.01,0,0.91-0.81,1.41-1.71C323.17,484.05,323.17,484.65,323.37,485.56z"/>
	<path d="M201.73,390.73c0.81,0.5,1.41,0.1,2.02-0.71C202.64,389.62,202.23,390.22,201.73,390.73z"/>
	<path d="M258.97,397.38c0.91-0.1,1.21-0.6,1.51-1.71C259.58,396.07,259.17,396.47,258.97,397.38z"/>
	<path d="M289.2,414.31c-0.2-0.6-0.6-0.81-1.81-0.81C288.2,414.01,288.5,414.61,289.2,414.31z"/>
	<path d="M237.1,412.6c-0.6,0-1.31,0.1-2.32,0.1C235.89,413.3,236.5,413.2,237.1,412.6z"/>
	<path d="M271.47,432.65c-0.02,0-0.07,0-0.1,0c-0.26,0-0.95,0-2.02,0C270.26,433.36,270.76,432.75,271.47,432.65z"/>
	<path d="M303.31,381.76c-0.3,0.4-0.6,0.81-1.01,1.31C303.31,382.97,303.31,382.36,303.31,381.76z"/>
	<path d="M325.28,444.74c0.81-0.2,1.01-0.81,1.01-1.51C325.58,443.43,325.08,443.84,325.28,444.74z"/>
	<path d="M283.46,277.55c-2.48,13.83-9.34,14.48-8.26,28.52c3.41-1.85,2.74-4.1,6.05-17.03c0.44-1.71,4.95-9.06,3.43-14.21
		C283.06,275.34,283.56,276.65,283.46,277.55z"/>
	<path d="M271.27,324.82c5.74-3.83,8.36-13.2,4.74-17.33C276.41,313.83,273.89,319.38,271.27,324.82z"/>
	<path d="M225.82,327.44c1.61,4.53,2.82,8.67,5.14,13.3C232.27,332.58,230.85,328.65,225.82,327.44z"/>
	<path d="M251.61,290.25c6.05-4.64,11.29-10.48,19.15-12.4C266.33,276.04,255.24,283.3,251.61,290.25z"/>
	<path d="M232.47,303.35c6.05-1.41,11.59-2.12,15.22-7.36C246.07,295.9,233.98,301.54,232.47,303.35z"/>
	<path d="M218.76,314.74c-1.21,2.32,0.5,5.04,5.95,9.47C223.3,320.69,221.89,317.26,218.76,314.74z"/>
	<path d="M271.27,329.96c-0.3,5.03-4.37,11.55-0.71,11.19C270.24,335.08,273.59,335.66,271.27,329.96z"/>
	<path d="M223.6,285.52c-2.52-2.72-5.44-4.13-6.65-7.05C215.94,281.38,218.76,284.31,223.6,285.52z"/>
	<path d="M281.75,265.16c3.73,0.2,4.64-0.71,4.03-4.23C285.58,263.45,282.45,263.14,281.75,265.16z"/>
	<path d="M285.37,236.24c-1.23,2.55-0.31,5.11-0.19,7.66C285.37,241.28,286.61,238.8,285.37,236.24z"/>
	<path d="M226.22,272.62c-0.6-1.91-1.71-2.62-2.82-3.73C222.89,271.51,222.89,271.51,226.22,272.62z"/>
	<path d="M214.13,290.66c0.5-2.12-0.3-3.33-1.71-4.94C211.51,288.24,212.41,289.35,214.13,290.66z"/>
	<path d="M218.26,306.98c0.6,2.32,1.31,3.63,2.32,5.34C221.08,309.6,221.08,309.6,218.26,306.98z"/>
	<path d="M232.06,275.34c-0.6-1.61-1.51-2.62-3.63-2.72C229.04,274.83,229.95,275.64,232.06,275.34z"/>
	<path d="M216.64,292.37c-0.4,2.22,1.31,2.62,2.32,3.43C218.96,294.18,218.36,293.17,216.64,292.37z"/>
	<path d="M207.37,281.28c0.71-1.21,1.61-2.32,1.01-3.83C206.57,278.56,206.57,278.56,207.37,281.28z"/>
	<path d="M270.66,341.04c-0.71,1.21-0.81,2.42,0.3,4.13C272.07,343.36,273.48,342.15,270.66,341.04z"/>
	<path d="M231.46,345.38c0.71-1.41,1.31-2.42,0-3.63C230.05,342.96,230.55,343.97,231.46,345.38z"/>
	<path d="M228.44,287.03c-0.71-1.51-1.31-2.42-3.22-2.12C225.61,286.93,226.72,287.03,228.44,287.03z"/>
	<path d="M284.57,255.69c-1.41,0.71-1.11,1.81-0.81,3.22C285.07,257.9,285.27,256.9,284.57,255.69z"/>
	<path d="M235.59,277.25c0.83-0.71-0.64-2.39-1.81-1.41C233.98,276.95,234.68,277.25,235.59,277.25z"/>
	<path d="M255.65,265.16c-1.81-0.5-2.82-0.81-3.83,0.71C253.23,266.07,254.23,265.97,255.65,265.16z"/>
	<path d="M239.22,277.45c0-1.11-0.4-1.51-1.81-1.41C237.71,277.15,238.21,277.55,239.22,277.45z"/>
	<path d="M259.98,266.17c-0.4-0.91-1.01-0.81-1.81-0.3C258.87,266.67,259.37,266.97,259.98,266.17z"/>
	<path d="M111.43,109.96c0.5,1.61,1.81,1.31,2.92,1.51C113.75,110.27,112.95,109.56,111.43,109.96z"/>
	<path d="M97.43,240.87c1.11,0.6,1.91,0.3,2.92-0.71C99.04,239.66,98.23,239.86,97.43,240.87z"/>
	<path d="M135.52,260.02c0.62-3.32,3.06-15.01,0.2-16.73c1.2,18.19-7.72,25.31,3.53,31.44
		C138.78,271.19,132.96,273.79,135.52,260.02z"/>
	<path d="M207.57,194.11c4.43-3.43,8.97-4.23,13.91-2.82C214.13,186.75,207.78,187.86,207.57,194.11z"/>
	<path d="M159.6,211.75c2.82-4.23,1.81-9.07,2.32-13.81c-2.12-0.2-3.83,0.6-5.54,1.31C158.32,202.05,161.38,195.28,159.6,211.75z"/>
	<path d="M195.08,199.86c3.53-2.02,6.95-4.13,11.09-4.43C206.83,191.08,197.95,195.03,195.08,199.86z"/>
	<path d="M153.05,253.57c1.59-4.29,1.94-8.6,1.03-13.06C154.82,244.95,152.68,249.18,153.05,253.57z"/>
	<path d="M142.07,261.63c3.93,2.12,8.77,2.22,11.99,5.54C151.04,263.35,146.81,261.93,142.07,261.63z"/>
	<path d="M211.2,250.65c-0.5,3.93-0.81,7.36-1.31,10.68C212.01,259.11,212.92,253.77,211.2,250.65z"/>
	<path d="M155.57,268.79c3.02-1.21,4.43-3.43,3.93-6.85C157.39,264.15,156.28,266.27,155.57,268.79z"/>
	<path d="M188.73,207.11c2.22-0.81,3.22-2.02,3.93-3.63C190.54,203.48,189.84,205,188.73,207.11z"/>
	<path d="M144.99,277.15c0.91,1.41,2.82,1.11,3.63,2.42C147.61,277.66,147.61,277.66,144.99,277.15z"/>
	<path d="M157.79,201.97c-1.51-1.11-2.62-1.01-3.83-0.4C155.07,203.18,156.18,203.08,157.79,201.97z"/>
	<path d="M179.26,258.31c1.71-0.1,2.42-1.01,3.33-2.62C180.47,255.89,179.86,256.9,179.26,258.31z"/>
	<path d="M154.06,229.58c1.51-0.3,0.91-1.31,1.51-2.02C153.86,227.97,154.57,228.88,154.06,229.58z"/>
	<path d="M155.98,222.83c-1.21,0.2-1.11,0.81-0.5,1.81C156.58,224.04,156.48,223.54,155.98,222.83z"/>
	<path d="M174.32,217.39c1.51,0.4,2.32,0.4,3.43,0C176.64,216.79,175.73,216.69,174.32,217.39z"/>
	<path d="M167.57,257.1c0,0.6,0.5,0.3,0.91,0.4C168.17,257.1,167.87,257,167.57,257.1z"/>
	<path d="M154.47,235.93c0.71-0.5,0.6-1.11,0.1-1.71C153.86,234.72,153.96,235.33,154.47,235.93z"/>
	<path d="M261.59,148.46c0-1.61,1.71-1.21,2.62-1.91c-1.37-1.96-2.79-2.89-5.85-5.95c-3.33,1.85,0.06,2.05-5.54,7.66
		c0.4,1.71,1.51,2.92,3.12,3.83c1.01-1.51-2.52-3.02,0.4-4.23c1.51,1.11,1.11,3.02,2.02,4.53c2.82-2.92-2.52-5.95,0.4-8.67
		c1.11,0.2,1.31,1.31,2.32,1.91c-1.81,2.62-1.31,5.34-1.01,8.26c2.02,0.5,4.13,1.21,5.44-1.31
		C265.23,149.35,261.59,151.37,261.59,148.46z"/>
	<path d="M299.28,136.37c1.41,0.28,3.12,0.91,3.83-1.31c-3.02-3.83-11.89-3.12-16.02,1.51
		C291.45,138.75,287.33,133.97,299.28,136.37z"/>
	<path d="M270.76,189.88c2.32,1.91-0.6,4.84,1.41,6.95c1.01-3.12,1.28-6.14,0.1-9.27c-1.14-3.01,0.3-6.15-0.71-9.17
		c-1.31,4.13-1.11,8.47-3.02,12.29C270.16,191.69,270.16,190.18,270.76,189.88z"/>
	<path d="M292.53,141.41c2.62-0.1,5.14,1.81,7.76-0.1c0-0.91,0.1-1.91,0.2-3.12C297.37,137.98,294.75,138.89,292.53,141.41z"/>
	<path d="M272.47,169.72c0.4-1.4-3.66-2.7-3.83-7.05c-0.1-0.91-0.1-3.12-2.22-2.92C265.92,165.49,268.04,168.92,272.47,169.72z"/>
	<path d="M254.13,189.88c-2.22-0.2-2.52,2.02-4.33,2.42c-1.91-1.71-3.73-0.81-5.64,0.71C250.61,194.72,254.03,193.61,254.13,189.88z
		"/>
	<path d="M286.68,209.43c-0.96-1.54,1.02-4.63,0.11-4.63c-2.93,0.26-3.05,3.43-5.35,4.73C283.46,211.75,284.97,210.54,286.68,209.43
		z"/>
	<path d="M279.63,211.85c0.5,0.81-0.3,2.12,0.91,3.22c2.66-2.3,0.35-8.22-6.45-7.05C276,209.33,278.12,209.93,279.63,211.85z"/>
	<path d="M258.97,175.47c0.91-2.52,0.1-5.04-0.4-7.46C257.36,170.53,258.77,172.95,258.97,175.47z"/>
	<path d="M270.36,207.21c-2.12-1.11-4.33-1.51-6.85-2.02C265.32,207.11,266.63,207.41,270.36,207.21z"/>
	<path d="M258.27,161.16c-2.12,2.12-1.61,3.73-0.3,5.44C258.47,164.99,258.77,163.27,258.27,161.16z"/>
	<path d="M281.24,175.27c-1.91-0.1-2.42,1.01-3.22,1.91C279.63,177.18,279.63,177.18,281.24,175.27z"/>
	<path d="M281.04,157.23c-0.2-1.21-0.91-1.51-2.32-1.71C279.23,156.92,279.73,157.53,281.04,157.23z"/>
	<path d="M272.07,198.85c0,1.71,0.4,2.72,1.61,3.22C273.79,200.76,273.38,199.75,272.07,198.85z"/>
	<path d="M277.51,154.91c-0.3-1.21-0.81-1.81-2.32-1.71C275.5,154.61,276.2,155.01,277.51,154.91z"/>
	<path d="M283.76,222.13c0.1-1.41-0.2-2.22-0.71-3.43C282.55,220.11,282.96,220.92,283.76,222.13z"/>
	<path d="M257.76,179.1c0.4,0.91,0.6,1.61,1.41,1.91C259.78,179.8,259.37,179.3,257.76,179.1z"/>
	<path d="M183.09,470.74c4.53,1.81,8.26,1.21,10.28-1.61C189.23,466.21,186.51,471.05,183.09,470.74z"/>
	<path d="M124.23,436.08c1.37,1.67,2.63,2.83,4.84,2.92C127.96,436.68,126.25,436.18,124.23,436.08z"/>
	<path d="M167.97,435.67c2.42,0,4.53,0.81,6.95,1.01C172.81,435.17,170.49,435.17,167.97,435.67z"/>
	<path d="M150.03,451.9c0.71-1.81,0.1-2.92-1.31-4.43C148.22,449.68,148.72,450.79,150.03,451.9z"/>
	<path d="M194.68,467.42c0.96-0.48,1.04,0.26-1.61-5.04C192.36,465.3,193.97,466.11,194.68,467.42z"/>
	<path d="M151.85,436.58c1.71,0.5,2.72,0.4,4.13-0.4C154.36,435.57,153.36,435.67,151.85,436.58z"/>
	<path d="M177.64,469.53c1.71-0.4,2.62,1.81,4.74,1.41C180.97,469.03,179.36,469.03,177.64,469.53z"/>
	<path d="M196.69,471.25c-0.1,1.51,0.71,1.91,1.71,2.42C198.4,472.36,197.9,471.75,196.69,471.25z"/>
	<path d="M201.43,475.88c0.4,1.31,1.01,1.81,2.12,1.81C203.54,476.19,202.54,476.29,201.43,475.88z"/>
	<path d="M133.6,441.92c-0.5,1.11,0.1,1.51,0.71,1.81C135.22,442.83,134.41,442.53,133.6,441.92z"/>
	<path d="M148.32,444.64c-1.11,0.4-0.91,1.01-0.2,1.61C148.92,445.75,148.82,445.25,148.32,444.64z"/>
	<path d="M324.88,559.02c-2.41,0.72-3.02,2.02-2.82,6.75c2.82,1.21,5.74,2.22,8.16-0.91c5.4,7.77,11.13,0.88,8.16-2.92
		c-1.81-2.32-4.43-2.22-7.56,0.6C328.81,559.33,327.2,558.33,324.88,559.02z M325.89,565.07c-0.3-1.71-0.3-1.71-2.02-2.52
		c0.6-1.81,1.62-2.34,3.12-1.91C329.1,561.23,329.06,565.27,325.89,565.07z M334.65,562.05c3.29-0.24,3.38,4.53,0.3,4.53
		C332.1,566.58,331.77,562.25,334.65,562.05z"/>
	<path d="M343.52,567.49c1.21,0.5,0.1,2.02,1.51,2.52c1.71-2.02,1.11-4.74,1.71-7.05c-1.54-1.16-7.63-2.43-6.75,2.62
		c0.3,1.31,0.2,2.02-0.3,3.43C341.13,570.08,341.86,567.49,343.52,567.49z M344.33,565.68c-1.01-0.1-2.12,0-2.62-1.21
		C344.13,563.36,344.23,563.36,344.33,565.68z"/>
	<path d="M304.62,200.86c2.42,2.22,3.02,2.12,4.43-0.3C307.65,200.56,306.13,200.46,304.62,200.86z"/>
	<path d="M304.6,219.48c-0.18,0.29-0.32,0.59-0.38,0.94C304.4,220.12,304.51,219.81,304.6,219.48z"/>
	<path d="M304.6,219.48c0.71-1.16,2.06-2.07,1.73-4C304.73,216.59,304.92,218.17,304.6,219.48z"/>
	<path d="M308.96,200.46c2.52-0.2,3.73-1.81,4.43-4.03C311.58,197.44,310.47,199.05,308.96,200.46z"/>
	<path d="M315.1,205.8c1.21-1.71,1.81-2.92,0.81-4.43C314.3,202.58,314.7,203.99,315.1,205.8z"/>
	<path d="M312.89,204.29c1.51-1.41,1.51-2.52,1.11-4.03C311.98,201.37,312.68,202.78,312.89,204.29z"/>
	<path d="M310.06,208.62c1.21-0.6,1.81-1.21,1.61-2.32C310.77,205.7,310.57,205.9,310.06,208.62z"/>
	<path d="M307.95,213.06c0.96-1.19,1.55-1.38,0.71-2.22C307.44,211.24,307.65,211.95,307.95,213.06z"/>
	<path d="M716.9,275.54c1.16,8.99,3.49,17.69,5.85,26.4c1.6,5.93-0.15-15.2-4.64-29.23C716.6,273.42,716.78,274.63,716.9,275.54z"/>
	<path d="M703.7,295.09c1.71-7.66,3.02-15.42,1.81-23.28C704.81,279.57,703.8,287.33,703.7,295.09z"/>
	<path d="M733.33,313.23c-0.1-1.21-0.2-2.52-0.3-3.73c-0.6,4.43-4.74,8.06-3.53,13.1c3.5-8.76,0.97-8.51,12.6-5.14
		C739.78,314.84,736.15,315.04,733.33,313.23z"/>
	<path d="M664.6,303.76c-0.4,8.36,0.91,16.63,2.62,24.79C666.71,320.28,665,312.02,664.6,303.76z"/>
	<path d="M690.8,351.02c-3.53-6.75-7.26-13.3-10.08-20.36C682.33,338.32,685.66,345.08,690.8,351.02z"/>
	<path d="M729.7,276.14c-0.91,6.65,1.61,12.7,1.61,18.95C732.22,287.33,731.51,279.07,729.7,276.14z"/>
	<path d="M734.94,273.52c0.1,2.02,0.81,3.43,1.31,5.04c0.91-0.4,0.2-1.11,0.6-1.71c1.21,0.2,1.01,2.02,2.22,2.22
		C739.07,275.44,737.66,273.42,734.94,273.52z"/>
	<path d="M678.4,377.12c-4.03-3.12-8.77-5.34-12.9-8.77C666.92,371.28,672.86,375.31,678.4,377.12z"/>
	<path d="M719.72,342.86c-0.71-0.2-1.01-0.3-1.11-0.3C705.34,352.37,715.11,347.47,719.72,342.86z"/>
	<path d="M730.51,354.45c-3.33-0.6-5.85-2.72-8.77-4.03C723.65,354.04,726.88,354.75,730.51,354.45z"/>
	<path d="M745.52,303.86c-3.22-1.01-6.45-0.81-9.57,0.71C739.17,304.66,742.3,303.96,745.52,303.86z"/>
	<path d="M675.88,272.41c1.71-1.61,2.12-3.83,2.52-6.05C676.29,267.88,676.09,270.1,675.88,272.41z"/>
	<path d="M736.55,345.68c-1.81-1.91-3.53-3.83-5.34-5.74C731.51,343.16,733.93,344.47,736.55,345.68z"/>
	<path d="M713.47,360.59c-2.22,0.3-3.02,2.22-4.53,2.72C710.65,363.21,712.37,362.91,713.47,360.59z"/>
	<path d="M667.12,389.42c0.47,1.65,2.07,3.4,2.46,3.16c-0.17,0.22,8.73,15.48,20.52,19.61
		C680.47,407.27,668.04,390.03,667.12,389.42z"/>
	<path d="M725.57,342.96c0.4,1.21,1.21,1.21,2.42,1.71C727.18,343.56,726.78,342.76,725.57,342.96z"/>
	<path d="M675.88,296.3c0.1,0.4,0.2,0.91,0.4,1.31C676.59,297.11,676.19,296.8,675.88,296.3z"/>
	<path d="M675.88,296.3c0-0.54,0-1.08,0-1.61c-0.6,0.6,0,1.11,0,1.71C675.88,296.37,675.88,296.33,675.88,296.3z"/>
	<path d="M664.8,386.9c0.3,0.3,0.5,0.71,0.81,1.01C666.21,387.1,665.4,387,664.8,386.9z"/>
	<path d="M741.39,200.86c-3.15,4.89-4.84,10.58-4.33,17.03c2.82-2.32,10.08-27.01,9.47-31.14
		C744.72,187.09,745.86,193.91,741.39,200.86z"/>
	<path d="M736.75,228.27c-0.72,3.02-3.53,5.14-3.43,8.57c5.54-3.93,8.06-12.8,4.74-17.64C737.26,222.23,737.45,225.35,736.75,228.27
		z"/>
	<path d="M713.37,202.17c6.15-4.74,11.49-10.58,19.85-12.5C728.79,187.56,718.01,194.51,713.37,202.17z"/>
	<path d="M687.98,239.16c1.01,4.64,2.62,8.77,4.74,13.2C694.33,244.9,692.92,240.77,687.98,239.16z"/>
	<path d="M709.04,207.31c-4.23,3.33-9.78,3.83-14.21,6.95C700.47,214.97,706.92,211.85,709.04,207.31z"/>
	<path d="M680.62,226.66c-0.4,0.3-0.81,0.6-1.31,1.01c1.71,3.43,4.43,6.05,7.26,8.67C685.26,232.61,683.75,229.08,680.62,226.66z"/>
	<path d="M733.33,241.78c-0.2,3.83-2.72,7.05-1.81,11.09C732.52,249.24,734.94,245.91,733.33,241.78z"/>
	<path d="M685.66,197.03c-3.02-2.22-5.44-3.93-6.85-7.36C677.6,193.2,680.82,196.53,685.66,197.03z"/>
	<path d="M743.61,176.68c3.12,1.01,4.33,0,4.13-3.83C747.23,175.17,744.72,175.06,743.61,176.68z"/>
	<path d="M746.93,156.72c0.2-2.92,1.71-5.74,0.4-9.47C746.01,149.39,746.6,154.23,746.93,156.72z"/>
	<path d="M690.5,184.24c0.2,2.42,1.21,3.12,3.83,2.92C693.12,185.65,692.31,184.74,690.5,184.24z"/>
	<path d="M669.23,193.71c0.71-1.61,1.31-2.72,1.21-4.13C668.33,189.88,668.23,189.98,669.23,193.71z"/>
	<path d="M674.27,198.14c-0.4,2.52-0.4,2.52,1.71,3.83C675.88,199.55,675.88,199.55,674.27,198.14z"/>
	<path d="M687.17,196.33c0.2,2.62,1.61,2.42,3.12,2.72C689.79,197.34,688.99,196.73,687.17,196.33z"/>
	<path d="M682.74,223.54c-0.1-2.32-0.1-2.32-2.22-4.33C680.62,221.22,681.43,222.43,682.74,223.54z"/>
	<path d="M687.98,184.03c-0.6-1.51-1.51-2.42-3.22-3.22C685.36,183.63,685.36,183.63,687.98,184.03z"/>
	<path d="M732.62,256.79c1.51-1.11,1.91-2.12,0.71-3.83C731.31,254.17,732.12,255.38,732.62,256.79z"/>
	<path d="M678.5,204.39c-0.2,2.02,1.11,2.62,2.42,3.12C680.82,206.1,680.32,204.89,678.5,204.39z"/>
	<path d="M746.53,167.71c-1.51,0.5-1.11,1.61-1.11,3.12C746.83,169.82,746.93,168.92,746.53,167.71z"/>
	<path d="M693.42,257.1c0.71-1.41,1.11-2.32,0-3.53C691.91,254.78,692.41,255.69,693.42,257.1z"/>
	<path d="M717.2,177.48c-1.31-1.51-2.22-1.21-3.33-0.2C715.09,178.19,715.99,177.58,717.2,177.48z"/>
	<path d="M697.35,188.97c0.91-0.45-0.35-2.39-1.81-1.41C695.84,188.67,696.34,189.17,697.35,188.97z"/>
	<path d="M700.98,189.17c0-1.31-0.5-1.61-1.61-1.21C699.47,188.97,699.87,189.48,700.98,189.17z"/>
	<path d="M721.54,178.29c0-1.01-0.4-1.31-1.51-0.71C720.43,178.59,721.03,178.49,721.54,178.29z"/>
	<path d="M575.21,22.09c-1.41-1.91-2.52-2.52-4.13-2.12C571.78,21.48,573.29,21.38,575.21,22.09z"/>
	<path d="M557.67,150.98c1.11,0.5,2.02,0.3,2.72-0.91C559.08,149.97,558.18,149.97,557.67,150.98z"/>
	<path d="M751.57,48.69c6-3.97,12.62,2.98,13.5-2.32c-4.64-3.02-12.29-2.22-16.02,1.91C749.85,48.99,750.96,49.09,751.57,48.69z"/>
	<path d="M732.72,101.5c2.12,2.02-0.4,4.84,1.31,7.05c1.21-3.33,1.32-6.35,0.1-9.47c-1.1-2.82,0.4-5.85-0.71-8.87
		c-1.11,4.13-1.61,8.36-2.92,12.7C732.42,102.91,732.02,101.6,732.72,101.5z"/>
	<path d="M754.49,53.02c2.52,0.1,5.04,2.02,7.56,0.1c0.6-0.91-0.1-2.02,0.4-3.12C759.23,49.7,756.71,50.91,754.49,53.02z"/>
	<path d="M715.59,101.5c-1.71,0.4-2.22,2.02-3.73,2.62c-1.81-1.71-3.63-0.71-5.54,0.4C712.19,107.55,718.57,103.68,715.59,101.5z"/>
	<path d="M748.44,121.25c-0.36-1.65,0.4-3.48,0.4-4.13c-1.99-0.66-1.03-0.95-5.34,4.53C745.32,123.77,746.73,122.46,748.44,121.25z"
		/>
	<path d="M741.09,123.27c0.81,1.21-0.1,2.52,1.11,3.63c2.57-2.02,1-7.91-6.15-7.16C737.76,121.05,739.88,121.75,741.09,123.27z"/>
	<path d="M732.02,118.63c-2.22-0.6-4.43-1.11-6.65-1.71C727.18,119.03,729.5,119.33,732.02,118.63z"/>
	<path d="M720.53,79.02c-0.1-1.81-0.2-3.63-0.3-5.74C718.01,75.8,718.11,77.11,720.53,79.02z"/>
	<path d="M720.63,83.36c1.11-1.61,0.4-3.02,0-4.43C719.32,80.33,719.02,81.64,720.63,83.36z"/>
	<path d="M721.13,87.39c0.81-1.41,0.91-2.42-0.6-3.12C719.92,85.47,720.02,86.48,721.13,87.39z"/>
	<path d="M734.03,110.87c-0.2,1.51,0.3,2.42,1.41,3.63C735.95,112.68,735.24,111.78,734.03,110.87z"/>
	<path d="M743.1,86.99c-1.81,0.2-2.52,1.21-2.92,2.42C741.49,89.2,742.5,88.6,743.1,86.99z"/>
	<path d="M738.87,66.83c0.1-0.1,0.4-0.3,0.4-0.4C738.42,63.59,735.24,65.47,738.87,66.83z"/>
	<path d="M742.9,69.05c-0.3-1.11-0.91-1.61-2.22-1.41C740.99,68.85,741.59,69.45,742.9,69.05z"/>
	<path d="M719.62,90.71c0.1,1.31,0.81,1.71,1.61,2.62C721.54,91.72,721.23,91.02,719.62,90.71z"/>
	<path d="M745.52,133.85c0.3-1.11,0-2.02-0.81-3.22C744.41,132.23,744.82,133.04,745.52,133.85z"/>
	<path d="M703.3,105.13c-1.01-0.91-1.71-0.5-2.32,0.4C701.78,105.63,702.49,106.03,703.3,105.13z"/>
	<path d="M671.75,434.77c-3.12,1.51-3.63,8.16-1.01,13.3C670.95,443.63,672.76,439.3,671.75,434.77z"/>
	<path d="M658.65,467.52c1-1.82,0.6-2.82-0.91-5.04c-1.81,5.74-1.41,11.19-1.21,16.53C658.14,477.86,656.59,471.3,658.65,467.52z"/>
	<path d="M671.25,463.79c0.2-4.23,3.73-8.47,0-12.6C673.47,455.43,669.74,459.56,671.25,463.79z"/>
	<path d="M658.33,458.97c0.43-3.08,1.76-6.12,0.83-9.49C656.62,452.4,658.55,455.76,658.33,458.97z"/>
	<path d="M662.58,425.39c-1.71,3.22-1.71,3.33-0.81,6.65C662.88,430.13,662.28,428.01,662.58,425.39z"/>
	<path d="M658.65,508.94c0-1.41,0-2.72,0-4.03C657.44,506.42,657.85,507.63,658.65,508.94z"/>
	<path d="M666.81,521.84c-0.81,1.01-0.91,1.91,0,3.02C667.62,523.75,667.52,522.95,666.81,521.84z"/>
	<path d="M657.74,499.57c-0.91,0.71-1.21,1.61-0.4,2.82C658.79,501.07,658.09,499.22,657.74,499.57z"/>
	<path d="M670.95,473.87c2.02-1.31,1.11-2.82,0.5-5.04C670.54,470.95,671.45,472.46,670.95,473.87z"/>
	<path d="M669.13,477.7c1.61-1.21,1.51-2.62,1.91-3.83C670.14,474.77,669.13,475.68,669.13,477.7z"/>
	<path d="M656.23,481.73c-0.6,0.91-0.2,1.51,0.71,2.52C657.14,482.74,657.04,482.13,656.23,481.73z"/>
	<path d="M667.92,516.5c-0.81,0.71-0.5,1.21-0.2,1.81C668.63,517.71,668.23,517.2,667.92,516.5z"/>
	<path d="M707.23,428.12c-0.6,5.74,2.22,10.18,3.02,15.12C711.86,438.7,710.35,431.14,707.23,428.12z"/>
	<path d="M720.02,416.93c2.33,0.42,3.63-3.78,0.91-7.05C717.99,411.28,717.49,416.65,720.02,416.93z"/>
	<path d="M708.33,457.24c3.02-5.24,3.53-8.36,1.81-11.89C709.14,449.48,709.64,453.11,708.33,457.24z"/>
	<path d="M701.58,512.16c0.81-2.62,1.11-5.44,0.4-8.16C701.78,506.82,699.87,509.44,701.58,512.16z"/>
	<path d="M701.89,488.58c-0.81,2.12-1.01,3.73-0.71,6.15C702.49,492.51,702.59,490.9,701.89,488.58z"/>
	<path d="M705.51,469.03c2.02-2.42,2.02-2.52,1.71-5.44C705.31,465,706.22,467.02,705.51,469.03z"/>
	<path d="M700.78,477.4c2.62-1.11,2.32-3.02,3.02-4.43C702.49,473.97,701.28,474.98,700.78,477.4z"/>
	<path d="M704.81,421.56c-0.2,1.41-0.6,2.82,0.91,4.03C706.52,423.78,705.61,422.67,704.81,421.56z"/>
	<path d="M708.84,517c0.5,1.71-0.5,3.83,2.22,4.03C709.95,519.92,710.75,518.01,708.84,517z"/>
	<path d="M702.29,501.98c1.21-1.61,1.11-2.72-0.3-4.64C701.99,499.26,701.68,500.47,702.29,501.98z"/>
	<path d="M671.35,565.27c-2.12-3.22-3.82-4.22-6.15-3.43c-3.32,1.13-2.82,3.93-2.82,6.65c2.92,1.21,5.74,2.42,8.36-0.91
		c5.34,8.01,11.3,0.78,7.96-3.02C676.78,562.36,674.17,562.65,671.35,565.27z M666.01,567.99c0.91-1.71-0.2-2.22-1.91-2.32
		C667.54,559.12,671.95,568.62,666.01,567.99z M675.38,569.4c-2.9,0-3.04-4.53,0.1-4.53C678.67,564.62,678.57,569.6,675.38,569.4z"
		/>
	<path d="M680.42,567.99c0.81,1.51,0.1,2.52-0.5,3.93c2.22,0.5,2.62-1.81,4.03-1.51c1.31,0.5,0.1,2.02,1.51,2.52
		c1.81-2.02,1.11-4.64,1.71-7.05C684.42,563.97,678.97,564.73,680.42,567.99z M684.85,568.5c-1.01,0-2.02,0-2.62-1.11
		C684.55,566.18,684.65,566.18,684.85,568.5z"/>
	<path d="M646.46,320.28c0.91-0.6,0.89-1.31,0.91-2.02C648.5,268.75,647.86,279.5,646.46,320.28z"/>
<path fill="#e6e6e6" d="m206.8 163.6c0-5.1 4.1-9.2 9.3-9.2s9.2 4.2 9.2 9.2-4.1 9.2-9.3 9.2-9.2-4.1-9.2-9.2zm17.3-.1c0-4.5-3.5-8.2-8.2-8.2s-8.2 3.7-8.2 8.3c0 4.5 3.5 8.2 8.2 8.2s8.2-3.7 8.2-8.3zm-13 0c0-2.8 2.1-5.1 5.1-5.1 1.9 0 2.9.6 3.9 1.5l-1.4 1.7c-.8-.7-1.5-1.1-2.5-1.1-1.7 0-2.8 1.4-2.8 3.1s1.1 3 2.8 3c1.1 0 1.7-.5 2.5-1.1l1.4 1.4c-1.1 1.1-2.1 1.7-4 1.7-2.9 0-5-2.3-5-5.1z"/><path fill="#e6e6e6" d="m226.6 154.7h3.4l4.2 13.2 4.4-13.3h2.6l4.4 13.3 4.2-13.2h3.3l-6.2 18h-2.7l-4.4-12.8-4.4 12.8h-2.7z"/><path fill="#e6e6e6" d="m252.8 165.8c0-3.9 3.1-7 7.2-7 4.2 0 7.2 3.2 7.2 7s-3.1 7-7.3 7c-4 0-7.1-3.1-7.1-7zm11.3 0c0-2.3-1.7-4.3-4.2-4.3s-4.1 2-4.1 4.3 1.7 4.3 4.1 4.3c2.7.1 4.2-1.9 4.2-4.3z"/><path fill="#e6e6e6" d="m269.5 159.1h3.1v3c.8-2 2.4-3.4 4.8-3.3v3.2h-.2c-2.7 0-4.6 1.7-4.6 5.4v5.1h-3.1z"/><path fill="#e6e6e6" d="m279.1 153.9h3.1v11.1l5.6-6h3.8l-5.4 5.5 5.5 8h-3.5l-4.1-5.8-1.9 2v3.9h-3.1z"/><path fill="#e6e6e6" d="m291.7 165.8c0-3.9 3.1-7 7.2-7 4.2 0 7.2 3.2 7.2 7s-3.1 7-7.3 7c-4 0-7.1-3.1-7.1-7zm11.3 0c0-2.3-1.7-4.3-4.2-4.3s-4.1 2-4.1 4.3 1.7 4.3 4.1 4.3c2.6.1 4.2-1.9 4.2-4.3z"/><path fill="#e6e6e6" d="m308.2 167.6v-8.6h3.1v7.6c0 2.1 1.1 3.3 2.9 3.3s3-1.3 3-3.3v-7.6h3.1v13.4h-3.1v-2.1c-.8 1.3-2.1 2.3-4.2 2.3-3.1.2-4.8-1.8-4.8-5z"/><path fill="#e6e6e6" d="m323.9 168.8v-7.1h-1.7v-2.6h1.7v-3.7h3.1v3.7h3.6v2.6h-3.6v6.6c0 1.2.6 1.7 1.7 1.7.7 0 1.3-.2 1.9-.5v2.5c-.8.5-1.7.7-2.8.7-2.3 0-3.9-.9-3.9-3.9z"/><path fill="#e6e6e6" d="m333.2 154.7h3.2v15h9.4v2.9h-12.5v-17.9z"/><path fill="#e6e6e6" d="m356 172.5v-1.7c-.9 1.1-2.3 2-4.4 2-2.6 0-4.8-1.4-4.8-4.2 0-3 2.3-4.4 5.4-4.4 1.7 0 2.6.2 3.7.5v-.2c0-1.9-1.2-2.9-3.3-2.9-1.5 0-2.6.3-3.9.8l-.8-2.5c1.5-.7 2.9-1.1 5.1-1.1 4 0 5.9 2.1 5.9 5.7v8zm.1-5.6c-.8-.3-1.9-.5-3.1-.5-2 0-3.1.8-3.1 2.1s1.1 2 2.6 2c2 0 3.5-1.1 3.5-2.9z"/><path fill="#e6e6e6" d="m364.9 170.5v2.1h-3.1v-18.7h3.1v7.4c1-1.4 2.4-2.5 4.5-2.5 3.2 0 6.3 2.5 6.3 7s-3.1 7-6.3 7c-2.1 0-3.5-1.1-4.5-2.3zm7.7-4.7c0-2.6-1.7-4.3-3.9-4.3s-3.9 1.7-3.9 4.4c0 2.6 1.8 4.3 3.9 4.3s3.9-1.7 3.9-4.4z"/><path fill="#e6e6e6" d="m376.9 170.8 1.4-2.1c1.4 1.1 3 1.7 4.4 1.7s2.1-.5 2.1-1.5-1.3-1.4-2.8-1.8c-.1 0-.2-.1-.2-.1-2-.6-4.2-1.4-4.2-4s2.1-4.1 4.8-4.1c1.7 0 3.5.6 5 1.5l-1.2 2.2c-1.3-.8-2.6-1.3-3.8-1.3s-1.9.5-1.9 1.4 1.3 1.4 2.8 1.8c.1 0 .2.1.2.1 2 .6 4.2 1.5 4.2 4 0 2.9-2.2 4.2-5 4.2-1.9 0-4-.7-5.8-2z"/><path fill="#e6e6e6" d="m505.6 163.6c0-5.1 4.1-9.2 9.3-9.2s9.2 4.2 9.2 9.2-4.1 9.2-9.3 9.2-9.2-4.1-9.2-9.2zm17.4-.1c0-4.5-3.5-8.2-8.2-8.2s-8.2 3.7-8.2 8.3c0 4.5 3.5 8.2 8.2 8.2s8.2-3.7 8.2-8.3zm-13.1 0c0-2.8 2.1-5.1 5.1-5.1 1.9 0 2.9.6 3.9 1.5l-1.4 1.7c-.8-.7-1.5-1.1-2.5-1.1-1.7 0-2.8 1.4-2.8 3.1s1.1 3 2.8 3c1.1 0 1.7-.5 2.5-1.1l1.4 1.4c-1.1 1.1-2.1 1.7-4 1.7-2.9 0-5-2.3-5-5.1z"/><path fill="#e6e6e6" d="m525.4 154.7h3.4l4.2 13.2 4.4-13.3h2.6l4.4 13.3 4.2-13.2h3.3l-6.2 18h-2.7l-4.4-12.8-4.4 12.8h-2.7z"/><path fill="#e6e6e6" d="m551.7 165.8c0-3.9 3.1-7 7.2-7 4.2 0 7.2 3.2 7.2 7s-3.1 7-7.3 7c-4.1 0-7.1-3.1-7.1-7zm11.2 0c0-2.3-1.7-4.3-4.2-4.3s-4.1 2-4.1 4.3 1.7 4.3 4.1 4.3c2.7.1 4.2-1.9 4.2-4.3z"/><path fill="#e6e6e6" d="m568.3 159.1h3.1v3c.8-2 2.4-3.4 4.8-3.3v3.2h-.2c-2.7 0-4.6 1.7-4.6 5.4v5.1h-3.1z"/><path fill="#e6e6e6" d="m577.9 153.9h3.1v11.1l5.6-6h3.8l-5.4 5.5 5.5 8h-3.5l-4.1-5.8-1.9 2v3.9h-3.1z"/><path fill="#e6e6e6" d="m590.6 165.8c0-3.9 3.1-7 7.2-7 4.2 0 7.2 3.2 7.2 7s-3.1 7-7.3 7c-4.1 0-7.1-3.1-7.1-7zm11.2 0c0-2.3-1.7-4.3-4.2-4.3s-4.1 2-4.1 4.3 1.7 4.3 4.1 4.3c2.6.1 4.2-1.9 4.2-4.3z"/><path fill="#e6e6e6" d="m607 167.6v-8.6h3.1v7.6c0 2.1 1.1 3.3 2.9 3.3s3-1.3 3-3.3v-7.6h3.1v13.4h-3.1v-2.1c-.8 1.3-2.1 2.3-4.2 2.3-3 .2-4.8-1.8-4.8-5z"/><path fill="#e6e6e6" d="m622.7 168.8v-7.1h-1.7v-2.6h1.7v-3.7h3.1v3.7h3.6v2.6h-3.6v6.6c0 1.2.6 1.7 1.7 1.7.7 0 1.3-.2 1.9-.5v2.5c-.8.5-1.7.7-2.8.7-2.3 0-3.9-.9-3.9-3.9z"/><path fill="#e6e6e6" d="m632 154.7h3.2v15h9.4v2.9h-12.6z"/><path fill="#e6e6e6" d="m654.8 172.5v-1.7c-.9 1.1-2.3 2-4.4 2-2.6 0-4.8-1.4-4.8-4.2 0-3 2.3-4.4 5.4-4.4 1.7 0 2.6.2 3.7.5v-.2c0-1.9-1.2-2.9-3.3-2.9-1.5 0-2.6.3-3.9.8l-.8-2.5c1.5-.7 2.9-1.1 5.1-1.1 4 0 5.9 2.1 5.9 5.7v8zm.1-5.6c-.8-.3-1.9-.5-3.1-.5-2 0-3.1.8-3.1 2.1s1.1 2 2.6 2c2 0 3.5-1.1 3.5-2.9z"/><path fill="#e6e6e6" d="m663.7 170.5v2.1h-3.1v-18.7h3.1v7.4c1-1.4 2.4-2.5 4.5-2.5 3.2 0 6.3 2.5 6.3 7s-3.1 7-6.3 7c-2.1 0-3.5-1.1-4.5-2.3zm7.8-4.7c0-2.6-1.7-4.3-3.9-4.3-2.1 0-3.9 1.7-3.9 4.4 0 2.6 1.8 4.3 3.9 4.3s3.9-1.7 3.9-4.4z"/><path fill="#e6e6e6" d="m675.8 170.8 1.4-2.1c1.4 1.1 3 1.7 4.4 1.7s2.1-.5 2.1-1.5-1.3-1.4-2.8-1.8c-.1 0-.2-.1-.2-.1-2-.6-4.2-1.4-4.2-4s2.1-4.1 4.8-4.1c1.7 0 3.5.6 5 1.5l-1.2 2.2c-1.3-.8-2.6-1.3-3.8-1.3s-1.9.5-1.9 1.4 1.3 1.4 2.8 1.8c.1 0 .2.1.2.1 2 .6 4.2 1.5 4.2 4 0 2.9-2.2 4.2-5 4.2-2 0-4.1-.7-5.8-2z"/><path fill="#e6e6e6" d="m61 298.6c0-5.1 4.1-9.2 9.3-9.2s9.2 4.2 9.2 9.2-4.1 9.2-9.3 9.2c-5.1 0-9.2-4.2-9.2-9.2zm17.4-.1c0-4.5-3.5-8.2-8.2-8.2s-8.2 3.7-8.2 8.3c0 4.5 3.5 8.2 8.2 8.2s8.2-3.7 8.2-8.3zm-13.1-.1c0-2.8 2.1-5.1 5.1-5.1 1.9 0 2.9.6 3.9 1.5l-1.4 1.7c-.8-.7-1.5-1.1-2.5-1.1-1.7 0-2.8 1.4-2.8 3.1s1.1 3 2.8 3c1.1 0 1.7-.5 2.5-1.1l1.4 1.4c-1.1 1.1-2.1 1.7-4 1.7-2.8.1-5-2.2-5-5.1z"/><path fill="#e6e6e6" d="m80.9 289.7h3.4l4.2 13.2 4.4-13.3h2.6l4.4 13.3 4.2-13.2h3.3l-6.2 18h-2.7l-4.4-12.8-4.4 12.8h-2.7z"/><path fill="#e6e6e6" d="m107.1 300.8c0-3.9 3.1-7 7.2-7s7.2 3.2 7.2 7-3.1 7-7.3 7c-4 0-7.1-3.1-7.1-7zm11.3 0c0-2.3-1.7-4.3-4.2-4.3s-4.1 2-4.1 4.3 1.7 4.3 4.1 4.3c2.6.1 4.2-1.9 4.2-4.3z"/><path fill="#e6e6e6" d="m123.7 294h3.1v3c.8-2 2.4-3.4 4.8-3.3v3.2h-.2c-2.7 0-4.6 1.7-4.6 5.4v5.1h-3.1z"/><path fill="#e6e6e6" d="m133.4 288.9h3.1v11.1l5.6-6h3.8l-5.4 5.5 5.5 8h-3.5l-4.1-5.8-1.9 1.9v3.9h-3.1z"/><path fill="#e6e6e6" d="m146 300.8c0-3.9 3.1-7 7.2-7s7.2 3.2 7.2 7-3.1 7-7.3 7c-4.1 0-7.1-3.1-7.1-7zm11.2 0c0-2.3-1.7-4.3-4.2-4.3s-4.1 2-4.1 4.3 1.7 4.3 4.1 4.3c2.6.1 4.2-1.9 4.2-4.3z"/><path fill="#e6e6e6" d="m162.4 302.6v-8.6h3.1v7.6c0 2.1 1.1 3.3 2.9 3.3s3-1.3 3-3.3v-7.6h3.1v13.4h-3.1v-2.1c-.8 1.3-2.1 2.3-4.2 2.3-3 .2-4.8-1.8-4.8-5z"/><path fill="#e6e6e6" d="m178.1 303.8v-7.1h-1.7v-2.7h1.7v-3.7h3.1v3.7h3.6v2.6h-3.6v6.6c0 1.2.6 1.7 1.7 1.7.7 0 1.3-.2 1.9-.5v2.5c-.8.5-1.7.7-2.8.7-2.3.1-3.9-.9-3.9-3.8z"/><path fill="#e6e6e6" d="m187.4 289.7h3.2v15h9.4v2.9h-12.5v-17.9z"/><path fill="#e6e6e6" d="m210.2 307.5v-1.7c-.9 1.1-2.3 2-4.4 2-2.6 0-4.8-1.4-4.8-4.2 0-3 2.3-4.4 5.4-4.4 1.7 0 2.6.2 3.7.5v-.2c0-1.9-1.2-2.9-3.3-2.9-1.5 0-2.6.3-3.9.8l-.8-2.5c1.5-.7 2.9-1.1 5.1-1.1 4 0 5.9 2.1 5.9 5.7v8zm.1-5.6c-.8-.3-1.9-.5-3.1-.5-2 0-3.1.8-3.1 2.1s1.1 2 2.6 2c2 0 3.5-1.1 3.5-2.9z"/><path fill="#e6e6e6" d="m219.2 305.5v2.1h-3.1v-18.7h3.1v7.4c1-1.4 2.4-2.5 4.5-2.5 3.2 0 6.3 2.5 6.3 7s-3.1 7-6.3 7c-2.2 0-3.6-1.1-4.5-2.3zm7.7-4.7c0-2.6-1.7-4.3-3.9-4.3s-3.9 1.7-3.9 4.4c0 2.6 1.8 4.3 3.9 4.3s3.9-1.7 3.9-4.4z"/><path fill="#e6e6e6" d="m231.2 305.8 1.4-2.1c1.4 1.1 3 1.7 4.4 1.7s2.1-.5 2.1-1.5-1.3-1.4-2.8-1.8c-.1 0-.2-.1-.2-.1-2-.6-4.2-1.4-4.2-4s2.1-4.1 4.8-4.1c1.7 0 3.5.6 5 1.5l-1.2 2.2c-1.3-.8-2.6-1.3-3.8-1.3s-1.9.5-1.9 1.4 1.3 1.4 2.8 1.8c.1 0 .2.1.2.1 2 .6 4.2 1.5 4.2 4 0 2.9-2.2 4.2-5 4.2-2 0-4.1-.7-5.8-2z"/><path fill="#e6e6e6" d="m360.6 298.6c0-5.1 4.1-9.2 9.3-9.2s9.2 4.2 9.2 9.2-4.1 9.2-9.3 9.2-9.2-4.2-9.2-9.2zm17.4-.1c0-4.5-3.5-8.2-8.2-8.2s-8.2 3.7-8.2 8.3c0 4.5 3.5 8.2 8.2 8.2s8.2-3.7 8.2-8.3zm-13.1-.1c0-2.8 2.1-5.1 5.1-5.1 1.9 0 2.9.6 3.9 1.5l-1.4 1.7c-.8-.7-1.5-1.1-2.5-1.1-1.7 0-2.8 1.4-2.8 3.1s1.1 3 2.8 3c1.1 0 1.7-.5 2.5-1.1l1.4 1.4c-1.1 1.1-2.1 1.7-4 1.7-2.8.1-5-2.2-5-5.1z"/><path fill="#e6e6e6" d="m380.5 289.7h3.4l4.2 13.2 4.4-13.3h2.6l4.4 13.3 4.2-13.2h3.3l-6.2 18h-2.7l-4.4-12.8-4.4 12.8h-2.7z"/><path fill="#e6e6e6" d="m406.7 300.8c0-3.9 3.1-7 7.2-7 4.2 0 7.2 3.2 7.2 7s-3.1 7-7.3 7c-4.1 0-7.1-3.1-7.1-7zm11.3 0c0-2.3-1.7-4.3-4.2-4.3s-4.1 2-4.1 4.3 1.7 4.3 4.1 4.3c2.7.1 4.2-1.9 4.2-4.3z"/><path fill="#e6e6e6" d="m423.3 294h3.1v3c.8-2 2.4-3.4 4.8-3.3v3.2h-.2c-2.7 0-4.6 1.7-4.6 5.4v5.1h-3.1z"/><path fill="#e6e6e6" d="m433 288.9h3.1v11.1l5.6-6h3.8l-5.4 5.5 5.5 8h-3.5l-4.1-5.8-1.9 2v3.9h-3.1z"/><path fill="#e6e6e6" d="m445.6 300.8c0-3.9 3.1-7 7.2-7 4.2 0 7.2 3.2 7.2 7s-3.1 7-7.3 7c-4.1 0-7.1-3.1-7.1-7zm11.3 0c0-2.3-1.7-4.3-4.2-4.3s-4.1 2-4.1 4.3 1.7 4.3 4.1 4.3c2.6.1 4.2-1.9 4.2-4.3z"/><path fill="#e6e6e6" d="m462.1 302.6v-8.6h3.1v7.6c0 2.1 1.1 3.3 2.9 3.3s3-1.3 3-3.3v-7.6h3.1v13.4h-3.1v-2.1c-.8 1.3-2.1 2.3-4.2 2.3-3.1.2-4.8-1.8-4.8-5z"/><path fill="#e6e6e6" d="m477.8 303.8v-7.1h-1.8v-2.7h1.7v-3.7h3.1v3.7h3.6v2.6h-3.6v6.6c0 1.2.6 1.7 1.7 1.7.7 0 1.3-.2 1.9-.5v2.5c-.8.5-1.7.7-2.8.7-2.2.1-3.8-.9-3.8-3.8z"/><path fill="#e6e6e6" d="m487.1 289.7h3.2v15h9.4v2.9h-12.5v-17.9z"/><path fill="#e6e6e6" d="m509.9 307.5v-1.7c-.9 1.1-2.3 2-4.4 2-2.6 0-4.8-1.4-4.8-4.2 0-3 2.3-4.4 5.4-4.4 1.7 0 2.6.2 3.7.5v-.2c0-1.9-1.2-2.9-3.3-2.9-1.5 0-2.6.3-3.9.8l-.8-2.5c1.5-.7 2.9-1.1 5.1-1.1 4 0 5.9 2.1 5.9 5.7v8zm.1-5.6c-.8-.3-1.9-.5-3.1-.5-2 0-3.1.8-3.1 2.1s1.1 2 2.6 2c2 0 3.5-1.1 3.5-2.9z"/><path fill="#e6e6e6" d="m518.8 305.5v2.1h-3.1v-18.7h3.1v7.4c1-1.4 2.4-2.5 4.5-2.5 3.2 0 6.3 2.5 6.3 7s-3.1 7-6.3 7c-2.2 0-3.5-1.1-4.5-2.3zm7.7-4.7c0-2.6-1.7-4.3-3.9-4.3s-3.9 1.7-3.9 4.4c0 2.6 1.8 4.3 3.9 4.3s3.9-1.7 3.9-4.4z"/><path fill="#e6e6e6" d="m530.8 305.8 1.4-2.1c1.4 1.1 3 1.7 4.4 1.7s2.1-.5 2.1-1.5-1.3-1.4-2.8-1.8c-.1 0-.2-.1-.2-.1-2-.6-4.2-1.4-4.2-4s2.1-4.1 4.8-4.1c1.7 0 3.5.6 5 1.5l-1.2 2.2c-1.3-.8-2.6-1.3-3.8-1.3s-1.9.5-1.9 1.4 1.3 1.4 2.8 1.8c.1 0 .2.1.2.1 2 .6 4.2 1.5 4.2 4 0 2.9-2.2 4.2-5 4.2-1.9 0-4.1-.7-5.8-2z"/><path fill="#e6e6e6" d="m659.5 298.6c0-5.1 4.1-9.2 9.3-9.2s9.2 4.2 9.2 9.2-4.1 9.2-9.3 9.2-9.2-4.2-9.2-9.2zm17.3-.1c0-4.5-3.5-8.2-8.2-8.2s-8.2 3.7-8.2 8.3c0 4.5 3.5 8.2 8.2 8.2 4.8 0 8.2-3.7 8.2-8.3zm-13-.1c0-2.8 2.1-5.1 5.1-5.1 1.9 0 2.9.6 3.9 1.5l-1.4 1.7c-.8-.7-1.5-1.1-2.5-1.1-1.7 0-2.8 1.4-2.8 3.1s1.1 3 2.8 3c1.1 0 1.7-.5 2.5-1.1l1.4 1.4c-1.1 1.1-2.1 1.7-4 1.7-2.9.1-5-2.2-5-5.1z"/><path fill="#e6e6e6" d="m679.3 289.7h3.4l4.2 13.2 4.4-13.3h2.6l4.4 13.3 4.2-13.2h3.3l-6.2 18h-2.6l-4.4-12.8-4.4 12.8h-2.7z"/><path fill="#e6e6e6" d="m705.5 300.8c0-3.9 3.1-7 7.2-7 4.2 0 7.2 3.2 7.2 7s-3.1 7-7.3 7c-4 0-7.1-3.1-7.1-7zm11.3 0c0-2.3-1.7-4.3-4.2-4.3s-4.1 2-4.1 4.3 1.7 4.3 4.1 4.3c2.7.1 4.2-1.9 4.2-4.3z"/><path fill="#e6e6e6" d="m722.1 294h3.1v3c.8-2 2.4-3.4 4.8-3.3v3.2h-.2c-2.7 0-4.6 1.7-4.6 5.4v5.1h-3.1z"/><path fill="#e6e6e6" d="m731.8 288.9h3.1v11.1l5.6-6h3.8l-5.4 5.5 5.5 8h-3.5l-4.1-5.8-1.9 2v3.9h-3.1z"/><path fill="#e6e6e6" d="m744.4 300.8c0-3.9 3.1-7 7.2-7 4.2 0 7.2 3.2 7.2 7s-3.1 7-7.3 7c-4.1 0-7.1-3.1-7.1-7zm11.3 0c0-2.3-1.7-4.3-4.2-4.3s-4.1 2-4.1 4.3 1.7 4.3 4.1 4.3c2.6.1 4.2-1.9 4.2-4.3z"/><path fill="#e6e6e6" d="m760.9 302.6v-8.6h3.1v7.6c0 2.1 1.1 3.3 2.9 3.3s3-1.3 3-3.3v-7.6h3.1v13.4h-3.1v-2.1c-.8 1.3-2.1 2.3-4.2 2.3-3.1.2-4.8-1.8-4.8-5z"/><path fill="#e6e6e6" d="m776.6 303.8v-7.1h-1.7v-2.7h1.7v-3.7h3.1v3.7h3.6v2.6h-3.6v6.6c0 1.2.6 1.7 1.7 1.7.7 0 1.3-.2 1.9-.5v2.5c-.8.5-1.7.7-2.8.7-2.3.1-3.9-.9-3.9-3.8z"/><path fill="#e6e6e6" d="m785.9 289.7h3.2v15h9.4v2.9h-12.5v-17.9z"/><path fill="#e6e6e6" d="m808.7 307.5v-1.7c-.9 1.1-2.3 2-4.4 2-2.6 0-4.8-1.4-4.8-4.2 0-3 2.3-4.4 5.4-4.4 1.7 0 2.6.2 3.7.5v-.2c0-1.9-1.2-2.9-3.3-2.9-1.5 0-2.6.3-3.9.8l-.8-2.5c1.5-.7 2.9-1.1 5.1-1.1 4 0 5.9 2.1 5.9 5.7v8zm.1-5.6c-.8-.3-1.9-.5-3.1-.5-2 0-3.1.8-3.1 2.1s1.1 2 2.6 2c2 0 3.5-1.1 3.5-2.9z"/><path fill="#e6e6e6" d="m817.6 305.5v2.1h-3.1v-18.7h3.1v7.4c1-1.4 2.4-2.5 4.5-2.5 3.2 0 6.3 2.5 6.3 7s-3.1 7-6.3 7c-2.1 0-3.5-1.1-4.5-2.3zm7.7-4.7c0-2.6-1.7-4.3-3.9-4.3-2.1 0-3.9 1.7-3.9 4.4 0 2.6 1.8 4.3 3.9 4.3 2.2 0 3.9-1.7 3.9-4.4z"/><path fill="#e6e6e6" d="m829.6 305.8 1.4-2.1c1.4 1.1 3 1.7 4.4 1.7s2.1-.5 2.1-1.5-1.3-1.4-2.8-1.8c-.1 0-.2-.1-.2-.1-2-.6-4.2-1.4-4.2-4s2.1-4.1 4.8-4.1c1.7 0 3.5.6 5 1.5l-1.2 2.2c-1.3-.8-2.6-1.3-3.8-1.3s-1.9.5-1.9 1.4 1.3 1.4 2.8 1.8c.1 0 .2.1.2.1 2 .6 4.2 1.5 4.2 4 0 2.9-2.2 4.2-5 4.2-1.9 0-4-.7-5.8-2z"/><path fill="#e6e6e6" d="m206.3 434.2c0-5.1 4.1-9.2 9.3-9.2s9.2 4.2 9.2 9.2-4.1 9.2-9.3 9.2-9.2-4.1-9.2-9.2zm17.4-.1c0-4.5-3.5-8.2-8.2-8.2s-8.2 3.7-8.2 8.3c0 4.5 3.5 8.2 8.2 8.2s8.2-3.7 8.2-8.3zm-13.1-.1c0-2.8 2.1-5.1 5.1-5.1 1.9 0 2.9.6 3.9 1.5l-1.4 1.7c-.8-.7-1.5-1.1-2.5-1.1-1.7 0-2.8 1.4-2.8 3.1s1.1 3 2.8 3c1.1 0 1.7-.5 2.5-1.1l1.4 1.4c-1.1 1.1-2.1 1.7-4 1.7-2.9.1-5-2.2-5-5.1z"/><path fill="#e6e6e6" d="m226.1 425.3h3.4l4.2 13.2 4.4-13.3h2.6l4.4 13.3 4.2-13.2h3.3l-6.2 18h-2.7l-4.4-12.8-4.4 12.8h-2.7z"/><path fill="#e6e6e6" d="m252.4 436.4c0-3.9 3.1-7 7.2-7 4.2 0 7.2 3.2 7.2 7s-3.1 7-7.3 7c-4.1 0-7.1-3.1-7.1-7zm11.2 0c0-2.3-1.7-4.3-4.2-4.3s-4.1 2-4.1 4.3 1.7 4.3 4.1 4.3c2.7.1 4.2-1.9 4.2-4.3z"/><path fill="#e6e6e6" d="m269 429.7h3.1v3c.8-2 2.4-3.4 4.8-3.3v3.2h-.2c-2.7 0-4.6 1.7-4.6 5.4v5.1h-3.1z"/><path fill="#e6e6e6" d="m278.6 424.5h3.1v11.1l5.6-6h3.8l-5.4 5.5 5.5 8h-3.5l-4.1-5.8-1.9 2v3.9h-3.1z"/><path fill="#e6e6e6" d="m291.3 436.4c0-3.9 3.1-7 7.2-7 4.2 0 7.2 3.2 7.2 7s-3.1 7-7.3 7c-4.1 0-7.1-3.1-7.1-7zm11.2 0c0-2.3-1.7-4.3-4.2-4.3s-4.1 2-4.1 4.3 1.7 4.3 4.1 4.3c2.6.1 4.2-1.9 4.2-4.3z"/><path fill="#e6e6e6" d="m307.7 438.2v-8.6h3.1v7.6c0 2.1 1.1 3.3 2.9 3.3s3-1.3 3-3.3v-7.6h3.1v13.4h-3.1v-2.1c-.8 1.3-2.1 2.3-4.2 2.3-3 .2-4.8-1.8-4.8-5z"/><path fill="#e6e6e6" d="m323.4 439.4v-7.1h-1.7v-2.6h1.7v-3.7h3.1v3.7h3.6v2.6h-3.6v6.6c0 1.2.6 1.7 1.7 1.7.7 0 1.3-.2 1.9-.5v2.5c-.8.5-1.7.7-2.8.7-2.3 0-3.9-.9-3.9-3.9z"/><path fill="#e6e6e6" d="m332.7 425.3h3.2v15h9.4v2.9h-12.5v-17.9z"/><path fill="#e6e6e6" d="m355.5 443.1v-1.7c-.9 1.1-2.3 2-4.4 2-2.6 0-4.8-1.4-4.8-4.2 0-3 2.3-4.4 5.4-4.4 1.7 0 2.6.2 3.7.5v-.2c0-1.9-1.2-2.9-3.3-2.9-1.5 0-2.6.3-3.9.8l-.8-2.5c1.5-.7 2.9-1.1 5.1-1.1 4 0 5.9 2.1 5.9 5.7v8zm.1-5.6c-.8-.3-1.9-.5-3.1-.5-2 0-3.1.8-3.1 2.1s1.1 2 2.6 2c2 0 3.5-1.1 3.5-2.9z"/><path fill="#e6e6e6" d="m364.4 441.1v2.1h-3.1v-18.7h3.1v7.4c1-1.4 2.4-2.5 4.5-2.5 3.2 0 6.3 2.5 6.3 7s-3.1 7-6.3 7c-2.1 0-3.5-1.1-4.5-2.3zm7.7-4.7c0-2.6-1.7-4.3-3.9-4.3-2.1 0-3.9 1.7-3.9 4.4 0 2.6 1.8 4.3 3.9 4.3 2.2 0 3.9-1.7 3.9-4.4z"/><path fill="#e6e6e6" d="m376.5 441.4 1.4-2.1c1.4 1.1 3 1.7 4.4 1.7s2.1-.5 2.1-1.5-1.3-1.4-2.8-1.8c-.1 0-.2-.1-.2-.1-2-.6-4.2-1.4-4.2-4s2.1-4.1 4.8-4.1c1.7 0 3.5.6 5 1.5l-1.2 2.2c-1.3-.8-2.6-1.3-3.8-1.3s-1.9.5-1.9 1.4 1.3 1.4 2.8 1.8c.1 0 .2.1.2.1 2 .6 4.2 1.5 4.2 4 0 2.9-2.2 4.2-5 4.2-2 0-4.1-.7-5.8-2z"/><path fill="#e6e6e6" d="m505.1 434.2c0-5.1 4.1-9.2 9.3-9.2s9.2 4.2 9.2 9.2-4.1 9.2-9.3 9.2-9.2-4.1-9.2-9.2zm17.4-.1c0-4.5-3.5-8.2-8.2-8.2s-8.2 3.7-8.2 8.3c0 4.5 3.5 8.2 8.2 8.2s8.2-3.7 8.2-8.3zm-13.1-.1c0-2.8 2.1-5.1 5.1-5.1 1.9 0 2.9.6 3.9 1.5l-1.4 1.7c-.8-.7-1.5-1.1-2.5-1.1-1.7 0-2.8 1.4-2.8 3.1s1.1 3 2.8 3c1.1 0 1.7-.5 2.5-1.1l1.4 1.4c-1.1 1.1-2.1 1.7-4 1.7-2.9.1-5-2.2-5-5.1z"/><path fill="#e6e6e6" d="m525 425.3h3.4l4.2 13.2 4.4-13.3h2.6l4.4 13.3 4.2-13.2h3.3l-6.2 18h-2.7l-4.4-12.8-4.4 12.8h-2.7z"/><path fill="#e6e6e6" d="m551.2 436.4c0-3.9 3.1-7 7.2-7 4.2 0 7.2 3.2 7.2 7s-3.1 7-7.3 7c-4.1 0-7.1-3.1-7.1-7zm11.2 0c0-2.3-1.7-4.3-4.2-4.3s-4.1 2-4.1 4.3 1.7 4.3 4.1 4.3c2.7.1 4.2-1.9 4.2-4.3z"/><path fill="#e6e6e6" d="m567.8 429.7h3.1v3c.8-2 2.4-3.4 4.8-3.3v3.2h-.2c-2.7 0-4.6 1.7-4.6 5.4v5.1h-3.1z"/><path fill="#e6e6e6" d="m577.5 424.5h3.1v11.1l5.6-6h3.8l-5.4 5.5 5.5 8h-3.5l-4.1-5.8-1.9 2v3.9h-3.1z"/><path fill="#e6e6e6" d="m590.1 436.4c0-3.9 3.1-7 7.2-7 4.2 0 7.2 3.2 7.2 7s-3.1 7-7.3 7c-4.1 0-7.1-3.1-7.1-7zm11.2 0c0-2.3-1.7-4.3-4.2-4.3s-4.1 2-4.1 4.3 1.7 4.3 4.1 4.3c2.6.1 4.2-1.9 4.2-4.3z"/><path fill="#e6e6e6" d="m606.5 438.2v-8.6h3.1v7.6c0 2.1 1.1 3.3 2.9 3.3s3-1.3 3-3.3v-7.6h3.1v13.4h-3.1v-2.1c-.8 1.3-2.1 2.3-4.2 2.3-3 .2-4.8-1.8-4.8-5z"/><path fill="#e6e6e6" d="m622.2 439.4v-7.1h-1.7v-2.6h1.7v-3.7h3.1v3.7h3.6v2.6h-3.6v6.6c0 1.2.6 1.7 1.7 1.7.7 0 1.3-.2 1.9-.5v2.5c-.8.5-1.7.7-2.8.7-2.3 0-3.9-.9-3.9-3.9z"/><path fill="#e6e6e6" d="m631.5 425.3h3.2v15h9.4v2.9h-12.5v-17.9z"/><path fill="#e6e6e6" d="m654.3 443.1v-1.7c-.9 1.1-2.3 2-4.4 2-2.6 0-4.8-1.4-4.8-4.2 0-3 2.3-4.4 5.4-4.4 1.7 0 2.6.2 3.7.5v-.2c0-1.9-1.2-2.9-3.3-2.9-1.5 0-2.6.3-3.9.8l-.8-2.5c1.5-.7 2.9-1.1 5.1-1.1 4 0 5.9 2.1 5.9 5.7v8zm.1-5.6c-.8-.3-1.9-.5-3.1-.5-2 0-3.1.8-3.1 2.1s1.1 2 2.6 2c2 0 3.5-1.1 3.5-2.9z"/><path fill="#e6e6e6" d="m663.3 441.1v2.1h-3.1v-18.7h3.1v7.4c1-1.4 2.4-2.5 4.5-2.5 3.2 0 6.3 2.5 6.3 7s-3.1 7-6.3 7c-2.2 0-3.6-1.1-4.5-2.3zm7.7-4.7c0-2.6-1.7-4.3-3.9-4.3s-3.9 1.7-3.9 4.4c0 2.6 1.8 4.3 3.9 4.3s3.9-1.7 3.9-4.4z"/><path fill="#e6e6e6" d="m675.3 441.4 1.4-2.1c1.4 1.1 3 1.7 4.4 1.7s2.1-.5 2.1-1.5-1.3-1.4-2.8-1.8c-.1 0-.2-.1-.2-.1-2-.6-4.2-1.4-4.2-4s2.1-4.1 4.8-4.1c1.7 0 3.5.6 5 1.5l-1.2 2.2c-1.3-.8-2.6-1.3-3.8-1.3s-1.9.5-1.9 1.4 1.3 1.4 2.8 1.8c.1 0 .2.1.2.1 2 .6 4.2 1.5 4.2 4 0 2.9-2.2 4.2-5 4.2-2 0-4.1-.7-5.8-2z"/></g>
</svg>
