<?xml version="1.0" encoding="utf-8"?>
<!-- Generator: Adobe Illustrator 23.0.1, SVG Export Plug-In . SVG Version: 6.00 Build 0)  -->
<svg version="1.2" baseProfile="tiny" id="Layer_1" xmlns="http://www.w3.org/2000/svg" xmlns:xlink="http://www.w3.org/1999/xlink"
	 x="0px" y="0px" viewBox="0 0 900 600" xml:space="preserve">
<g>
	<path d="M896.39,302.43c-25.68,6.98-51.15,13.85-76.83,20.82c-0.21-1.35,5.49-11.97-4.35-19.31c-5.49-4.09-4.95,1.76-9.5,8.59
		c-2.36-2.36,0.04-2.83,0.2-13.75c0.1-6.47-4.45-10.01-10.82-8.49c-3.14-1.57-9.31-22.31-27.29-16.17
		c-7.66,2.61-13.22,2.72-15.67,11.83c-4.74,17.61,1.1,41.38,1.92,47.92c-2.33-0.2-4.14-1.21-5.96-2.53
		c0.73-17.82-6.51-18.86-5.76-34.27c0.75-15.52-2.81-21.21-3.44-23.96c-3.26-14.21,6.71-17.13,8.39-41.35
		c0.61-8.84,16.05-17.72,8.39-39.63c-0.92-2.63-1.62-5.26-2.53-8.09c3.03-2.53,5.86-6.07,9.4-7.58c9.3-3.98,6.72-3.35,15.06-2.43
		c7.28,0.81,10.61-2.53,9.4-9.81c1.52-2.12,3.54-4.25,1.62-7.48c3.13-0.61,2.33-3.13,2.33-5.05c5.63-3.53,4.22-2.48,0-17.49
		c2.93-2.02,3.05-4.86,2.43-7.89c-2.57-12.48-1.5-9.67,6.27-11.32c4.43-0.94,3.12-2.65,4.45-6.77c2.08-6.44-5.1-3.36-5.86-3.74
		c0-1.11,1.62-0.91,1.52-2.33c-1.01-0.81-2.53-1.42-2.83-3.03c-2.22,0.1-2.53,2.12-3.94,2.93c-1.75-1.96,2.8-3.73-11.42-5.76
		c-0.2-0.91,1.31-1.42,0.3-2.53c-2.79-1.39-7.08,2.3-11.32,0.1c-5.07-2.63-7.87-0.77-9.81-1.42c-0.81-0.81,0.61-1.63-0.1-2.12
		c-0.6-0.41-1.11-0.4-1.52-0.1c-3.51,3.51-9.85-0.64-14.46,4.55c-1.21,0.1-1.31-1.42-2.43-1.31c-1.11,0.1-1.21,1.21-1.72,1.82
		c-2.93-0.4-4.75,1.42-6.87,2.33c-0.2,1.62,1.42,1.62,1.62,2.73c-1.07,2.15-1.19-0.96-4.04,6.57c-1.3,3.44-2.92,6.87-3.03,10.51
		c-0.27,8.49-2.93,16.98-0.61,25.47c-3.13,2.33-3.94,4.35-2.73,7.08c-10.11,5.29-34.46-2.09-50.34,13.14
		c-8.76,8.4-4.45,0.88-27.29,20.82c-4.52,3.95-9.31,4.11-20.22,14.76c-9.92,9.68-13.36,5.34-20.02,14.76
		c25.3-9.35,21.57-13.98,32.15-20.72c17.24-10.99,11-7.58,13.85-7.58c5.86-5.05,10.72-10.31,16.68-14.05
		c9.89-6.21,10.79-14.41,36.39-15.77c4.5-0.24,3.06,1.71,5.16,2.12c7.98,1.56,10.69,8.63,15.06,13.95c0.41,0.5,0.81,1.11,1.01,1.82
		c7.5,35.63,3.33,8.76,4.75,39.43c0.41,8.84,7.64,8.38,12.23-1.52c2.16-4.66,7.76-22.43,3.64-22.85c-0.89,0.78,0.11,3.91-5.86,19.61
		c-0.81-0.1-0.2-1.52-1.52-1.21c-1.21,3.23-1.62,7.08-4.55,10.31c-3.03-5.56-0.57-11.23-1.42-16.48c-0.88-5.46-0.2-11.02-1.62-16.48
		c2.63,1.92,3.84,4.65,5.96,7.18c8.31-5.23,8.37-2.11,8.9-3.03c0.51-1.42,2.12-1.52,3.44-2.83c4.36,12.89,5.51,29.35-4.58,38.68
		c2.25-4.39,3.59-9.06,4.07-14.01c-2.33,2.83-2.02,6.67-3.74,10.11c-3.15-0.98-1.89,5.37-12.54,11.93
		c-6.18,3.81-12.64,7.18-19.51,10.72c0.71-4.25,0.37-7.88-0.51-11.63c-1.41-6.08,5.34-6.08,13.75-28
		c2.62-6.84-1.09-10.67-1.52-20.62c-0.26-5.95-5.08-17.49-14.15-18.6c-22.35-2.73-35.86,9.3-50.95,25.98
		c-7.55,8.35-8.05,16.74-5.26,26.99c-1.59,0.59-3.46-0.06-4.86,0.95c-1.12,3.72,6.58,2.09,6.68,2.08c3.74,3.34,7.68,6.67,13.45,7.58
		c-4.35,8.49,1.42,14.66,4.35,21.43c0.4-1.72-0.49-3.34-0.91-4.85c-3.91-14.2,4.58-23.66,0.4-33.36c-2.19-5.09-1.44-6.87-0.61-13.55
		c-3.54,3.13-3.74,10.92-0.51,17.39c-1.92,1.11-3.74,2.54-5.86,3.34c-1.92,0.72-4.25-0.51-6.17,0.81c-2.02-2.12-1.94-4.75-2.63-7.08
		c-3.61-12.16,3.69-20.38,19.51-34.27c9.8-8.6,21.54-10.77,34.07-9.6c3.14,0.29,5.85,1.92,7.08,5.26c1,2.73,3.13,5.16,3.23,7.89
		c0.19,4.75,2.28,9.01,3.23,13.65c0.58,2.84-1.31,5.05-1.11,7.78c-1.31-1.11-0.91-3.23-3.03-3.94c0.51,2.53-0.3,5.05,1.52,6.77
		c-4.04,3.84-3.44,9.81-6.67,13.85c-0.4-0.29-0.34-4.4-2.12-0.4c-4.09,9.17-9.1,9.57-9.19,11.14c2.74,0.6,3.66-2.36,6.06-3.26
		c-0.81,2.63,0.67,4.55,0.81,6.77c0.99,16.41-9.09,22.63-9.91,27.8c-3.1,19.63-1.83,6,4.55,25.17c5.75,17.28-2.89,19.32,11.52,53.98
		c8.26,2.22,9.51-2.1,13.45,1.42c2.87,2.56,5.15-1.34,1.72,6.07c-3.56,7.67,3.39,9.73-2.43,17.49c-2.02,0.4-3.13-1.11-4.65-1.52
		c-1.31,0.4-1.31,1.92-2.93,2.53c-0.81,0.2-1.62-0.91-3.13-1.01c-2.53,2.33-5.66-0.61-8.49,0.61c-11.27-7.51-3.83-20.28-10.92-30.33
		c-25.82-36.61-21.39-49.52-27.6-85.52c-6.66,4.95-10.2-0.72-17.19,3.84c5.46,1.42,10.11,0.61,14.86-0.2
		c1.82,3.19-0.25,2.24-26.18,8.39c-4.65,1.1-9.24,1.65-13.04-2.53c-2.55-2.81-6.77-3.23-9.81-5.56c1.82,2.53,4.35,4.25,7.18,6.37
		c-5.76-0.43-9.04-2.68-6.07-2.33c-16.17-7.68-26.49-19.01-29.42-36.49c4.25-3.03,9.1-4.35,12.03-8.29
		c-1.01-1.01-1.62-0.51-2.12-0.2c-4.46,2.77-21.18,8.11-34.98,26.38c-6.29,8.34-5.01,29.31,0.3,38.72
		c10.22,18.1,4.39,11.47,21.63,37c4.44,6.58,7.72,14.07,10.21,21.73c1.28,3.95,3.65,7.38,5.05,11.32c0.61,1.72,2.73,1.52,3.34,2.63
		c7.18-2.73,14.15-4.75,20.72-8.39c7.1,6.54,17.13,7.75,13.95,15.87c-2.15,5.5-2.41,13.43-9.2,15.26
		c-130.81,35.33-241.82,66.77-290.03,78.85c-10.06,2.52-3.51,12.37,2.43,10.82c22.44-5.88,278.29-74.69,286.69-76.63
		c-1.62,25.86,3.16,14.91,4.85,31.14c3.14,30.05,6.35,39.59,6.17,51.66c9.3,8.21-8.44-55.06-8.19-79.56
		c0.21-21.23,11.07-25.88,9.91-34.47c-0.66-4.86-3.23-8.6-7.78-10.61c-5.05-2.23-8.59-6.47-13.55-8.9
		c5.24-5.24,1.69-0.05,14.25,4.55c-2.53-2.93-4.95-5.86-7.48-8.79c11.32-8.09,23.55-13.95,37-17.69
		c5.96,7.38,12.84,14.25,12.43,24.87c-0.61,0.71-1.31-0.71-1.82,0.3c0,1.82,2.22,1.82,2.83,3.54c2.2,6.17,2.75,12.45-0.81,18.1
		c-8.14,12.93-6.77,37.79-12.03,51.35c-1.18,3.05-5.2,23.03-4.04,29.52c1.22,6.87,1.82,13.85,3.03,20.93
		c-1.82,1.01-2.12,2.93-2.33,5.05c-22.56,4.01-9.18,5.22-15.77-9.69c-2.25,15.05,2.47,12.36-5.05,13.43
		c-0.71-0.51-0.71-1.21-0.61-1.92c-0.91,0-0.91-1.42-2.53-0.91c-2.63,2.98-0.25,8.22-2.53,12.23c-2.95,5.21-3.57,15.71-5.05,17.69
		c-3.84,4.45-2.32,8.88,3.44,10.11c17.35,3.72,84.11,15.03,85.22-3.84c0-4.88,3.21-5.21-3.74-8.19c-1.26-0.63-11.91-2.58-21.13-8.39
		c-2.76-1.74,4.78-0.57,7.38,0.4c6.94,2.59,24.72,2.54,32.15,2.02c7.92-0.56,13.23-3.86,12.13-11.73c-0.55-3.93-4.55-2.07-9-5.26
		c-5.85-4.19-8.96-0.85-13.75-5.56c-10.46-10.28-20.53-7.7-16.58-22.04c0.2-0.61,0.4-1.11,0.1-1.92c-2.53,0.2-3.74-2.12-5.86-3.13
		c-1.19-7.67,6.77-47.53,6.77-72.48c1.27-2.29,1.53-1.1,9.4-0.1c3.13,0.4,3.13,0.71,5.96-1.42c3.84,2.12,5.76-0.3,7.38-3.44
		c3.64,1.11,7.08,0.1,10.61,0.1c0.72,0,1.4-1.53,1.29-1.53c4.53-0.69,9.54-0.12,12.56-4.94c0.81,0.61,0.91,1.52,1.21,2.33
		c19.79,52.63,30.68,55.93,52.16,44.08c12.81-7.07,3.68-50.82,0.51-65.1c89.03-24.39,83.28-22.82,84.51-21.43
		C901.34,311.53,900.13,306.88,896.39,302.43z M796.31,102.17c-0.4,0.61-0.61,1.11-1.52,0.81
		C795.1,102.57,795.2,101.97,796.31,102.17z M800.96,109.85c-2.83,3.94-7.28,3.64-11.32,4.45
		C791.83,111.67,795.38,113.79,800.96,109.85z M790.24,103.79c-0.1,1.72-0.81,2.02-2.02,2.12c-0.1-1.72-1.01-3.13-2.43-4.35
		C788.73,100.45,787.51,105.2,790.24,103.79z M783.17,111.47c-1.52,0.2-3.03,0.71-4.45-0.3
		C780.24,111.47,781.75,110.26,783.17,111.47z M777.51,98.23c-0.4,0.91-0.91,1.21-1.72,0.1C776.5,97.92,776.9,97.82,777.51,98.23z
		 M774.78,113.39c-0.4,0.4-0.71,0.91-1.72,0.71C773.77,113.59,773.97,112.78,774.78,113.39z M772.45,109.15
		c0.4,0.71,0.81,1.42,1.11,2.02C772.86,110.86,771.95,110.36,772.45,109.15z M768.11,110.16c-2.02,0.1-2.43-1.52-3.23-2.43
		C765.98,108.24,767.3,108.54,768.11,110.16z M769.82,118.14c-1.01,1.01-2.12,1.82-4.14,2.53
		C766.99,118.65,768.41,118.34,769.82,118.14z M762.75,123.9c-0.3,0.51-0.4,1.21-1.11,0.51C761.84,124.01,762.04,123.6,762.75,123.9
		z M755.67,106.42c0.2,0.51,0.51,1.01,0.71,1.52C754.39,110.48,752.6,106.97,755.67,106.42z M750.11,94.69
		c-0.51,0.3-0.81,0.61-1.62,0C749,94.49,749.2,93.88,750.11,94.69z M748.49,103.08c2.39,4.31,3.07,3.86-1.82,1.82
		C747.58,104.29,747.48,103.18,748.49,103.08z M744.65,128.05c-1.6,0-1.13-1.01-0.71-1.01
		C744.55,126.94,744.65,127.24,744.65,128.05z M744.45,99.34c0.1,0.51-0.2,0.71-0.81,0.91C743,98.96,744.45,98.94,744.45,99.34z
		 M743.24,118.95c0.1,0.1-0.2,0.71-0.3,0.71c-0.4,0-0.71-0.3-0.71-0.81C742.63,118.55,743.03,118.65,743.24,118.95z M741.11,103.89
		c0.1,0.91-0.1,1.42-1.01,1.72C739.9,104.8,740.31,104.39,741.11,103.89z M736.97,105.61c0,0.51-0.4,0.71-0.91,0.71
		C736.16,105.91,736.16,105.2,736.97,105.61z M735.05,118.04c-0.3,1.21-0.61,1.92-1.92,1.62
		C733.23,118.45,733.73,117.94,735.05,118.04z M732.42,132.5c0.3,0.61,0.2,1.11-0.61,1.21C731.71,133.21,731.51,132.6,732.42,132.5z
		 M731.61,122.79c0.2,1.01-0.2,1.31-1.01,1.62C730.4,123.4,730.6,122.89,731.61,122.79z M741.92,187.09
		c-1.62,0.61-1.21,2.43-2.53,2.73c-4.12-6.34-7.88-6.38-8.49-11.42c-0.77-6.27-5.51-10.39-8.39-15.47
		c-2.06-3.62-5.96-5.76-10.01-7.38c6.27-0.91,12.33-1.92,17.89-4.95c8.35,3.8,8.89,3.83,1.11-1.11c2.83-0.4,4.14-2.22,5.76-3.44
		c6.91,0.94,6.41,6.94,12.15,3.68c-0.21-0.21,0.32-1.33-0.63-2.16c-3.6,3.6-7.86-4.74-10.21-6.98c-4.1-3.9,0.52-7.75,3.94-11.42
		c0.65,0.27,1.11,0.57,1.34,1.07c-2.17-0.48-0.59,1.62-6.2,6.61c0.51,1.62,1.21,3.03,2.73,3.84c1.01-1.31-1.82-2.83,0.61-4.04
		c1.52,1.01,1.01,2.93,1.72,4.85c2.57-3.43-1.54-6.2,1.01-8.39c1.31,0.1,1.31,1.31,2.33,2.02c-2.12,2.33-1.72,5.05-1.92,7.78
		c6.24,2.3,5.91-2.15,4.04-2.73c-1.22-0.38-2.22-0.91-2.02-2.33c0.45-3.23,7.61,2.33-1.89-7.34c9.13,3.89,5.73,9.82,8.87,11.38
		c0.91-0.3,0.31-1.59,1.31-1.82c1.22-0.27,1.72,1.92,3.23,1.01c-6.77-12,16.15-18.94,18.4-24.87c4.45,1.31,4.45,1.31,7.38-0.3
		c0.29-0.88-3.61-1.2,3.64-1.72c5.87,4.11,0.22,0.46,4.04,12.84c1.64,5.3-4.28,4.15-2.12,10.01c2.7,7.32,4.14,9.3,2.93,11.83
		c-2.43,0.61-4.85,0.3-6.98-1.42c-0.81,3.23-0.2,3.94,3.54,3.94c0,1.11,0,2.22,0,3.03c-1.42,2.83-5.36,0.81-6.77,3.54
		c1.72,1.52,2.83-0.4,4.25,0c1.31,0.91,1.31,2.12,0.3,3.13c-4.19,4.19,2.02,10.2-5.36,10.92c-11.49,1.12-12.2-3.45-14.35-2.73
		c0.3,1.62,2.33,1.31,3.03,3.03C758.4,170.42,752.31,186.5,741.92,187.09z M737.17,141.7c0.91,1.01,1.92,1.42,1.21,2.63
		C737.47,144.02,737.37,143.31,737.17,141.7z M673.59,219.13c0.51,2.43-1.31,3.34-1.42,5.26c-3.44-0.3-5.86-1.31-8.59-3.64
		C667.42,220.55,670.76,221.15,673.59,219.13z M346.25,460.94c-1.82-0.71-2.93-1.62-2.63-3.44c0.48-2.9,2.61-2.97,5.56-3.74
		c307.24-80.22,286.14-78.23,287.91-77.84C633.69,386.99,666.39,375.26,346.25,460.94z M671.46,259.06c-0.2,2.22,0.2,4.25,0.61,6.17
		c-1.42,0.2-2.53,0.2-3.74-0.4C668.75,259.3,663.55,262.23,671.46,259.06z M611.01,253.6c0.81-0.3,2.43,1.21,1.31,2.93
		c-1.69-2.18-4.84,0.59-5.66-4.04C608.18,252.9,609.09,254.32,611.01,253.6z M608.79,250.07c-2.83-0.3-2.83-0.3-2.83-2.33
		C606.97,248.25,607.88,248.85,608.79,250.07z M602.92,248.65c-0.51,0-0.71-0.3-1.01-0.91
		C602.82,247.54,603.43,247.44,602.92,248.65z M599.18,243.9c0.3,0.3,1.21,0.2,0.4,1.21C599.18,244.81,598.78,244.71,599.18,243.9z
		 M592.71,226.82c0,0.2,0.2,0,0.61,0.2c0.35,0,0.56,1.11-0.3,1.11C592.61,228.03,592.41,227.83,592.71,226.82z M627.39,340.14
		c-3.94,2.93-7.78,5.56-13.14,6.37C625.06,335.69,622.75,335.92,627.39,340.14z M672.07,312.94c-0.1-1.01,1.01-1.42,0.81-2.02
		c-0.71-1.31-2.06-0.18-2.73-1.62c-1.92-4.1-5.36-7.68-7.68-11.93c1.52-0.51,2.83,0.91,4.85-0.2c-4.95-1.01-9.1-2.33-10.72-7.48
		c2.63-0.3,4.85,1.21,7.28,0.3c-10.71-2.95-7.92-1.41-11.32-7.08c5.16-1.82,10.61-1.92,15.47-4.25c-5.76,0.1-11.32,1.42-16.98,2.93
		c-0.81-2.83-2.93-4.65-4.04-7.18c-1.92-0.2-1.85-1.81-2.33-3.54c-1.08-3.92-5.26-5.76-8.09-3.54c5.97,2.29,5.58,6.04,6.67,7.18
		c0.1,0.1,23.32,32.03,25.78,36.7c-15.57,3.23-28.61,11.42-41.65,19.61c-11.1-13.89-6.27-5.76,1.92-7.08
		c-4.04-2.53-10.01-1.11-12.23-6.57c-1.01,0.51-0.2,1.21-0.4,1.92c-5.08-1.16-15.76-7.4-19.21-9.4c0.75,3.27,15.38,9.8,18.5,11.02
		c1.82,0.71,3.13,1.82,4.14,3.74c-6.27,0.61-12.13,1.62-17.99-1.11c2.48,4.52,11.84,3.23,16.78,2.43c3.66-0.59,3.24,0.82,3.58,0.48
		c5.92,10.91,6.6-2.17-13.18,21.56c-1.72-4.55-4.14-8.49-5.76-12.74c-8.99-23.46-7.38-13.32-23.86-45.59
		c-2.74-6.39,0.49,0.76,22.54,6.17c3.83,0.94,5.76,3.23,7.48,6.98c-18-5.24-15.61-4.57-15.97-3.84c3.74,1.21,7.27,2.85,11.02,3.54
		c8.52,1.56,6.5,7.58,7.99,7.58c-1.01-8.59-4.79-4.56,21.63-2.02c-26.14-5.58-21.65-3.4-25.98-10.61
		c50.95,9.91,0.56,0.19-29.32-11.52c-6.53-2.56-15.55-33.58-7.18-44.08c4.44-5.56,18.16-22.46,17.19-14.66
		c-0.91,0.51-2.73-0.4-2.93,1.62c1.64,0.6,4.69-0.73,4.35,4.04c-0.91,0.4-2.22,0.71-2.33,2.12c4.17,1.92-1-6.98,9.81,10.31
		c2.33,3.73,6.05,6.28,8.39,10.01c2.25,3.58,6.27,1.31,6.37,1.31c-0.1,0.1,32.72,14.64,40.84,6.17c0.68-0.82,1.43-0.89,9.6-1.21
		c1.11,1.01,2.63,1.72,3.23,3.34c-0.71,0.71-1.92,0.71-1.82,2.12c2.03,4.06,9.15-0.89,10.82,7.58c1.5,7.58,0.18,26.77,10.82,41.04
		c1.01,1.01-0.21,1.29-7.78,4.65C676.52,317.39,674.19,315.27,672.07,312.94z M679.45,321.74c11.12-5.56,5.56-6.47,13.55,5.05
		c5.75,8.3,9.91,17.08,10.51,27.9c-5.56,1.52-11.22,3.03-17.08,4.65C687.74,349.13,684.2,330.64,679.45,321.74z M685.51,362.28
		c5.98-1.77,12.03-3.34,18.2-5.05c0.61,2.73,1.92,4.75,3.34,6.98c-8.49,2.22-16.48,4.45-24.57,6.57
		C681.98,367.53,683.4,362.9,685.51,362.28z M676.01,405.14c2.83,14.96,4.75,29.22,2.33,43.47c-1.01,0.61-1.82-0.4-2.83,0.51
		c-1.52,2.22-2.02,5.56-3.84,7.89C666.31,439.41,671.26,422.73,676.01,405.14z M676.92,464.38c-0.1,3.44,0.91,6.57,2.33,9.91
		c-3.13-0.71-5.76,1.72-8.69,0.2C670.23,464.76,668.29,465.1,676.92,464.38z M667.32,470.24c0.3,1.92,0.61,3.54,0.91,5.36
		c-7.03,3.88-7.87,8.25-10.51,7.18c-4.63-1.87-10.41-2.33-11.22-9.4C653.47,472.97,660.34,471.15,667.32,470.24z M700.58,491.98
		c17.06,8.93,22.28,2.26,20.42,15.77c-14.42,9.83-64.64,0.95-81.78-2.43c-1.93-0.38-2.93-1.52-2.93-3.54
		c0.91-1.31,2.54-1.82,2.83-3.74c1.04-6.77,1.72-13.65,5.36-19.81c2.02,4.85,6.89,5.33,10.92,7.18c6.96,3.2,7.38-4.45,14.05-7.78
		c3.94,2.43,7.18-1.72,11.42-1.11c-2.93,2.33-7.08,1.72-8.79,5.05c2.46,3.44,10.34-4.84,12.43-1.11c-3.34,1.42-6.98,2.02-9.6,4.65
		c2.75,4.75,11.51-5.57,14.05-1.21c-2.43,1.72-5.96,1.52-7.18,5.05c4.25,1.62,6.98-2.33,10.51-2.33c-1.62,1.92-4.45,1.92-5.46,4.25
		c1.7,3.39,8.15-2.46,9.5-1.52c-0.62,1.38-4.55,0.7-3.84,3.94c1.72-0.3,3.54-0.71,4.85,0.3
		C698.86,493.39,699.26,491.87,700.58,491.98z M705.83,444.97c0.81,0.4,1.62,0.4,2.22,1.31c-1.21,3.74-2.43,7.58,0,11.22
		c-0.51,1.82-1.92,3.03-1.92,4.85c2.22,0.51,3.44-1.42,5.16-1.82c1.21,1.52-0.81,2.12-0.1,3.64c1.5,2.09,3.42-0.76,4.85,0.1
		c0,1.31-1.92,1.82-1.31,3.03c2.12,1.92,4.14-2.22,6.17,0.1c-0.2,1.21-1.92,1.72-0.91,3.13c1.52,1.11,2.33-1.01,3.84-0.91
		c4,5.34,23.26,7.3,24.36,9.5c-0.1,5.66-1.01,6.96-6.67,7.89c-31.91,5.22-36.59-6.01-46-1.11c-7.48-9.58-14.82-8.04-15.16-18.5
		c-0.26-7.93-7.22-4.24-8.79-6.17c3.74-1.92,4.04-5.96,5.86-9.3c1.72,7.08,6.07,10.92,12.54,12.84c2.73-0.81,4.64-2.95,7.08-4.14
		C706.23,456.12,705.21,448.73,705.83,444.97z M680.16,451.74c7.38,1.72,14.66,0.91,22.04-0.2c-0.4,4.35-4.14,4.85-12.43,10.01
		C682.28,458.51,680.46,456.8,680.16,451.74z M702.7,440.32c0,9.39,0.88,8.1-4.65,8.49c-2.45-3.67-5.59-4.4-5.16-11.32
		c0.16-2.52-0.2-5.05-1.21-7.48c-0.1,3.44,0.12,6.88-0.2,10.31c-0.38,4.05,3.64,5.56,4.75,8.9c-14.85,1.31-7.94-0.47-10.72-4.35
		c-1.62,1.21-0.3,3.23-1.42,4.45c-4.35,0.44-2.82,0.38-2.12-13.34c0.88-17.25-4.15-43.47-4.14-43.57c0.39-6.17,1.42-12.33,2.83-18.6
		c16.98-4.5,13.17-5.22,16.28,0.1c-3.64,4.45,0.1,8.49,0.2,13.24c4.25-4.25,0.39-13.49,0.3-17.79c3.74-1.31,7.68-2.12,11.42-3.13
		C714.48,370.58,702.7,412.3,702.7,440.32z M804.4,318.2c9.14-15.06,5.98-13.7,9.1-11.12c6.15,5.08,2.73,18.38-5.66,19.21
		c-2.74,0.27-9.74,3.39-13.85,3.13C796.82,324.57,801.76,322.54,804.4,318.2z M801.26,318.71c0.1-2.33,1.01-3.64,1.82-5.46
		C804.3,315.88,802.78,316.89,801.26,318.71z M797.02,293.13c2.02,0.4,3.54,1.11,4.95,2.53c-0.51,10.41-4.65,19.51-10.41,28.1
		C793.88,313.65,795.1,303.34,797.02,293.13z M795.7,343.68c0.3,2.33,1.52,4.65-0.51,7.08c-5.76-5.76-11.22-16.88-7.68-25.68
		c1.38,0.29,0.76,0.74,3.84,5.36C788.32,334.07,790.95,341.96,795.7,343.68z M714.83,222.47c0.2,0.51-0.3,0.71-0.61,1.01
		C713.82,222.87,714.43,222.67,714.83,222.47z M706.34,275.64c-6.33-7.11-0.31-14.72,4.85-22.75c1.72,10.01-0.2,19.41-1.92,28.81
		C707.86,279.89,707.86,277.35,706.34,275.64z M724.64,338.62c-6.28,2.13-6.86-9.31-9.81-18.3c-2.82-8.6-2.12-17.39-3.03-26.79
		c6.37,15.97,14.76,30.33,21.63,46C730.1,338.22,727.36,337.7,724.64,338.62z M735.25,339.94c0-7.51,0.37,0.76-4.95-11.73
		c-13.75-32.23-20.44-40.56-17.08-55.5c1.86-8.28,0.41-10.67,0.91-18.1c0.18-2.63,1.21-5.36-0.4-7.99c-0.3-0.3-0.1-1.31,0.71-1.82
		c3.15,0.83,1.99-0.09,19.81-8.39c8.43-3.93,11.3-10.02,11.84-11.46c-0.09,0.31-0.24,0.86-0.41,1.72
		c-2.86,13.95-3.81,33.44-16.69,39.47c-0.1,0.1,0,0.2-0.1,0.61c2.73,0.1,4.45-2.12,7.18-3.34c-2.22,4.45-0.48,8.18,0.51,11.73
		c5.43,19.51-0.57,23.23,6.87,41.55c3.52,8.66-0.84,15.38,5.86,17.69c3.84,1.32,6.21,2.94,5.56,7.99c-0.78,6.09-0.66,4.51-4.75,7.58
		c-1.21-0.4-1.92-1.11-2.12-2.22c-0.4-2.12,2.22-2.02,2.63-3.74c-3.94-0.51-7.08-2.93-11.02-3.23c0.13,1.96,5.69,3.31-1.42,2.12
		C737.37,341.65,736.67,340.34,735.25,339.94z M735.35,348.93c1.52,3.94,2.12,7.18,1.11,10.61
		C735.76,356.31,734.54,353.08,735.35,348.93z M736.06,361.37c0.51-0.4,0.91-0.2,1.21,0.2
		C736.77,361.97,736.36,361.97,736.06,361.37z M738.99,360.46c0.81-5.05-2.12-10.01-1.43-15.36c1.72-0.51,2.93-0.51,4.04,0.81
		c0,9.16,2.8,12.14-0.2,15.15c0.52,0,3.72-0.84,5.47,0.91C744.35,361.57,741.62,362.68,738.99,360.46z M744.85,359.55
		c0.51-5.05-1.72-9.7-1.42-14.56c1.01-0.81,2.02-1.21,3.13,0c-1.11,3.03,0.2,5.16,2.93,6.67c-1.96-0.79-0.95,1.49-0.4,4.75
		c-0.2,1.21-2.02,1.01-1.92,2.33c1.21,1.11,3.13-1.52,4.25,0.91C749.3,361.16,747.18,360.25,744.85,359.55z M758.59,355.62
		c-0.62-3.03-1.94,0.16-2.62,0.59c0.77,0.99,1.92-0.18,1.92,0.2c-3.34,3.13-5.63,2.61-7.28-1.62c-2.41-6.18,1-0.1,5.76-9
		c0.51,1.72,1.52,3.13,1.21,4.55c-1.21,1.11-2.12-0.91-3.03,0.4c0.71,2.02,1.82,3.54,4.35,2.73
		C759.1,354.26,759.29,355.03,758.59,355.62z M796.92,406.76c-19.22,2.73-39.51-55.7-39.22-69.65c-1.92-2.12-2.01-2.12-2.33-3.74
		c-4.32-22.3-9.19-58.49,13.34-56.21c-12.78,25.56,10.67,111.44,37.3,127.48C802.78,405.75,799.85,406.34,796.92,406.76z
		 M793.78,389.27c-32.71-50.96-37.74-150.06-2.02-99.27c1.92,2.73,2.43,5.46,1.01,8.9c-5.97-8.76-5.89-9.47-9.5-12.43
		c-4.69-3.85-7.88,3.78-6.87,7.78c1.11-2.22,1.42-4.85,4.35-6.27c14.35,15.37,12.17,10.14,8.49,33.87c-8.1,0.83-4.91,5.76-5.36,7.99
		c-1.17,8.58,4.69,24.19,12.94,24.67c3.74-3.44,1.62-7.89,2.02-12.03c7.19-2.7,7.63-2.3,8.59,1.82c2.56,11,5.76,39.24,0.71,44.88
		c-1.01,0.1-1.42-1.01-2.63-1.11c2.33,3.23,3.84,3.54,4.95,1.31c3.25-6.49,3.21-7.27,2.73-23.25c-0.81-26.61-9.42-25.89-1.62-27.09
		C824.65,393.49,814.36,421.33,793.78,389.27z M893.05,314.26c-106.89,28.87-99.25,29.22-100.69,21.23
		c-1.07-3.22-8.26-0.13,100.38-29.82C894.91,314.31,897.26,313.66,893.05,314.26z M897.6,312.84c-1.01-1.31-1.31-2.83-1.42-4.55
		C897.1,309.61,897.91,311.02,897.6,312.84z"/>
	<path d="M706.04,229.75l0.1,0.1C706.14,229.73,706.2,229.79,706.04,229.75z"/>
	<path d="M651.35,217.92c0.04-0.04,0.06-0.02,0.1-0.1L651.35,217.92z"/>
	<path d="M358.79,220.85c2.64-4.17-0.13-12.12-4.55-13.85c-83.51,39.28-71.66,36.13-71.37,28.71c0.4-10.31-11.67-18.44-13.24-11.22
		c-0.6,2.73-1.31,5.46-2.53,8.19c-1.42-0.91-1.62-2.02-1.62-3.34c0.67-11.66-1.71-19.85-12.94-16.48
		c-3.74-3.84-7.38-7.99-12.13-11.02c-0.24-9.21,11.14-13.08,2.83-23.05c11.5-9.41,9.36-8.84,11.02-7.18
		c3.94-4.35,8.89-3.42,13.85-2.63c6.47,1.03,10.11-2.93,8.79-9.5c2.83-4.65,2.83-4.65,1.92-7.78c2.12-1.52,2.12-1.52,2.12-5.05
		c5-3.37,4.61-1.88-0.1-17.59c5.93-4.09,0.1-10.19,1.42-17.89c3.13-0.61,6.37-0.81,9.91-1.92c0.61-3.23,3.44-6.57,0.81-10.51
		c-8.77,1.39-3.34,0.39-3.34-1.62c-0.71-1.01-3.13-0.81-2.43-3.03c-2.43,0-2.83,2.02-4.45,2.93c-0.44-0.88,0.71-5.32-11.42-5.66
		c-0.3-1.01,1.62-1.31,0.3-2.83c-2.12-1.21-4.46,1.48-7.08,0.81c-0.71-0.18-1.51,0.4-2.33,0c-3.62-1.76-7.48-2.63-11.22-1.72
		c-1.31-0.91,0.4-2.02-1.31-2.83c-3.44,4.37-8.79-0.81-15.26,4.95c-0.71-0.61-1.31-1.11-1.82-1.52c-1.42,0.1-1.52,1.42-1.72,1.62
		c-3.13,0.3-5.26,1.42-7.18,2.73c-0.2,1.62,1.42,1.62,1.62,2.53c-0.1,0.3-0.1,0.71-0.2,0.81c-2.73,1.11-2.92,3.54-3.84,5.96
		c-1.3,3.44-2.92,6.87-3.03,10.51c-0.27,8.49-2.93,16.98-0.61,25.58c-2.22,0.91-2.73,2.93-3.34,4.04c-0.73,1.66,1.45,2.56,0.1,3.23
		c-9,3.18-18.57-6.43-35.89,2.83c-3.2,1.71-14.87,4.17-26.89,17.99c-2.46,2.83-14.83,13.78-20.72,16.88
		c-14.52,7.65-7.26,9.13-31.84,21.33c-0.61,0.3-1.42,0.3-1.92,0.81c-4.98,5.03-12.02,6.58-17.59,10.41
		c-28.88,19.88-23.85,30.18-24.36,42.76c-0.43,10.59,8.93,20.26,11.63,27.9c4.29,12.16,18.58,24.7,24.26,44.99
		c-93.47,45.32-92.37,41.22-90.68,45.59c30.53-14.35,60.86-28.71,91.28-43.17c1.42,1.92,2.33,3.94,3.23,6.07
		c-3.5,3.82-95.69,41.78-94.01,47.01c107.12-50.13,92.55-44.69,98.77-41.35c6.98-2.73,14.05-4.75,20.62-8.39
		c3.74,3.34,8.27,5.28,12.13,8.39c6.18,5-2,16.93-5.76,26.38c-2.05,5.15-2.36,10.71-2.83,16.17c-0.54,6.26,1.1,11.63,3.74,17.08
		c2.01,4.15,1.51,9,2.02,13.55c2.23,19.72,7.73,46.88,5.56,45.79c-0.61-0.61-0.61-1.82-2.22-1.62c-1.62,2.12-1.57,4.75-1.52,7.28
		c0.1,5.24-0.81-0.3-5.86,22.44c-4.71,2.24-2.55,9.49,2.53,10.51c16.6,3.33,66.43,11.3,81.18,3.03c5.14-2.88,4.36-6.93,4.65-7.78
		c0.89-4.03,2.15-5.66-6.67-8.19c-3.09-0.89-17.7-5.77-19.01-8.39c0.11,0,38.18,7.49,48.73,0.81c1.5-0.95,7.9-10.83-0.61-12.54
		c-4.58-0.51-5.31-4.03-12.03-4.55c-6.37-0.49-5.21-4.06-17.39-10.61c-11.45-6.17-4.65-13.6-5.76-16.48
		c-2.43,0.2-3.64-2.02-5.66-3.03c-0.76-3.89,3.04-34.11,4.04-38.21c3.25-13.28,2.05-39.21,8.79-53.98c1.8-3.95,1.4-8.38-0.3-12.43
		c-0.87-2.08-10.6-26.49-12.74-26.49c-2.53,1.42-5.36,1.31-8.39,1.82c1.46-2.92,2.78-1.82,8.39-1.82c0-2.35,3.29,2.22,6.17-3.54
		c4.35,1.42,5.76-1.42,6.47-4.75c4.14-0.2,7.58-1.62,11.83-3.13c-4.31-1.94-7.77,2.96-9.2-2.93c-1.92-7.93-6.01-10.34-3.84-12.74
		c0.91-1.01,2.02-0.81,3.34-0.2c1.11,2.22,1.13,4.94,2.43,7.38c1.13,2.12,2.73,4.45,1.11,7.58c3.34-1.21,6.67,0.7,9.5-1.52
		c2.32-1.82,6.07-1.52,6.87-6.17c2.22,3.94,4.02,7.09,5.76,10.11c27.92,48.32,40.82,35.45,51.05,29.42
		c16.58-9.77,0.11-49.34-7.38-66.92C366.2,215.95,357.48,219.87,358.79,220.85z M358.08,217.31c-1.01-1.01-1.31-2.02-1.31-3.34
		C357.37,214.89,358.99,215.49,358.08,217.31z M352.12,210.74c1.21,2.83,2.43,5.05,4.35,7.28c-104.32,48.39-95.12,47.13-97.96,40.03
		C257.22,254.18,248.05,259.93,352.12,210.74z M265.08,233.79c1.82,2.33,0.1,3.64-0.71,5.05
		C263.87,237.13,264.57,235.71,265.08,233.79z M272.26,224.69c5.46,2.43,7.11,6.88,6.67,12.23c-0.59,7.25-6.38,8.97-15.06,12.74
		c-1.41,0.61-2.63,1.62-4.75,1.62C261.89,241.58,262.02,253.82,272.26,224.69z M255.58,215.09c4.95,0.4,5.51,0.91,5.76,5.16
		c0.59,10.1-4.46,26.58-5.96,25.58C256.08,235.61,255.78,225.5,255.58,215.09z M256.38,252.49c-2.02,4.75,2.02,12.03,6.87,12.33
		c1.52,5.16,1.52,5.16,0.1,7.08c-8.29-7.08-13.55-16.17-11.12-23.96C253.66,249.56,255.07,251.08,256.38,252.49z M236.27,199.02
		c-0.41,0.71-1.42,0.2-2.02-0.81c5.7-11.69,3.15-17.71,5.96-6.47c2.22-3.94,0.4-7.58,0.3-11.52
		C247.95,185.07,237.26,197.29,236.27,199.02z M225.05,200.03c-0.61-6.77-0.41-13.67-1.82-20.42c-0.19-0.91,0.51-0.91,0.91-1.21
		c1.01,2.83,3.44,4.75,4.75,7.28c2.93,0.61,3.94-4.45,7.18-1.82C231.85,200.29,230.73,200.03,225.05,200.03z M286.51,96.81
		c0.1,0.81-0.51,0.91-1.52,1.01C285.4,96.91,285.6,96.21,286.51,96.81z M290.76,105.3c-3.13,2.93-6.98,3.13-10.82,3.54
		C283.38,107.02,287.42,107.33,290.76,105.3z M280.55,99.34c-0.58,1.75-2.69,1.49-1.94-0.93c-0.01,0-0.01-0.01-0.02-0.01
		c0.01-0.02,0.02-0.03,0.04-0.07C279.13,98.83,280.14,98.23,280.55,99.34z M278.49,98.32c-0.76-0.66-1.54-1.24-2.39-1.91
		C278.69,95.48,278.5,97.67,278.49,98.32z M273.77,106.52c-1.72-0.1-3.34,0.3-4.85-0.3C272.26,105.3,272.26,105.3,273.77,106.52z
		 M267.81,93.17c-0.71,1.11-1.11,0.71-1.52-0.2C267,92.36,267.5,92.57,267.81,93.17z M265.69,107.53c-1.11,1.11-1.52,1.92-2.73,1.82
		C263.46,108.44,264.17,108.03,265.69,107.53z M263.36,106.52c-0.3-0.81-0.61-1.62-1.01-2.43
		C263.06,104.7,263.97,105.2,263.36,106.52z M258.81,104.8c-2.53,0.1-2.83-1.42-3.84-2.12C255.37,101.88,255.32,101.8,258.81,104.8z
		 M260.73,112.89c-1.31,0.81-2.73,1.62-4.04,2.43C257.29,113.19,259.01,112.99,260.73,112.89z M253.25,118.55
		c-0.4,0.71-0.71,1.21-1.31,0.71C252.04,118.75,252.34,118.45,253.25,118.55z M249.31,114.5c-0.2,0.4-0.51,0.71-1.21,0.81
		C248.3,114.6,248.2,114,249.31,114.5z M245.67,101.06c0.71,0.51,1.11,1.01,0.91,1.92C244,104.27,243.43,102.66,245.67,101.06z
		 M244.15,115.92c0.32-0.32,1.03,0.53,0.2,0.81C243.99,116.73,243.61,116.19,244.15,115.92z M241.02,89.43
		c-1.01-0.2-1.11,1.01-2.12,0C239.3,88.83,239.81,88.62,241.02,89.43z M239,97.92c0.13,1.38,4.18,4.9-1.72,1.62
		C237.78,98.83,237.78,97.82,239,97.92z M235.16,123c-1.11-0.2-1.62-0.51-1.11-1.52C234.85,121.48,235.36,121.78,235.16,123z
		 M234.15,93.78c0.83,0,0.78,1.11-0.4,0.91C233.84,94.18,233.84,93.88,234.15,93.78z M233.64,114.4c-1.01-0.1-1.52-0.61-1.62-1.62
		C232.83,113.09,233.74,113.09,233.64,114.4z M231.31,98.73c0.2,0.81-0.1,1.21-1.01,1.72C230.4,99.34,230.71,98.94,231.31,98.73z
		 M225.35,112.58c0,1.31-0.61,1.82-1.92,2.02C223.53,113.19,223.93,112.38,225.35,112.58z M222.82,127.34c0.4,0.4,0,0.81-0.61,1.31
		C221.97,127.45,222.1,126.62,222.82,127.34z M222.01,117.84c-0.3,0.51,0,1.42-1.21,1.11C220.9,118.34,221,117.74,222.01,117.84z
		 M219.89,146.03c1.41-2.29,3.33,1.52,7.38,1.52c-1.62-1.11-3.13-2.12-5.05-3.44c2.53-0.61,3.94-2.22,5.56-3.64
		c7.3,1.66,7.13,7.42,12.21,3.43c-1.07,5.5,0.56,8.71,5.38,10.42c-5.43-5.64-2.69-10.49-5.27-10.49c-0.59-3.61-1.47,1.64-5.15-2.03
		c-10.31-10.31-8.51-10.06-2.02-17.69c0.68-0.68,2.04,1.13,1.31,0.4c-2.98,0.99-0.59,2.92-6.27,6.98c0.61,1.62,1.31,3.03,2.73,3.94
		c1.21-1.31-2.02-3.13,0.71-4.14c1.42,1.21,1.01,3.13,1.62,4.75c2.53-2.73-1.62-5.96,1.11-8.39c1.01,0.3,1.31,1.31,2.02,2.22
		c-1.72,2.12-1.72,4.75-1.82,7.48c3.13,1.62,3.34,1.52,5.36-0.61c0-1.01-0.6-1.74-1.62-2.02c-2.54-0.7-2.66-4.65,1.62-2.73
		c-0.34-0.47-3.97-5.42-3.74-5.96c7.34,2.13,5.26,10.94,7.78,10.41c0.91-0.19,0.3-1.52,1.11-1.82c1.42-0.2,1.82,1.82,3.84,1.21
		c-9.39-8.29,16.44-20.82,17.99-24.87c2.63,0.71,5.05,1.62,7.28-0.1c0.4-0.81-1.42-0.61-0.71-1.42c2.93-0.91,5.46-0.61,7.28,1.62
		c-0.3,10.88,3.39,12.47,0.3,15.06c-3.53,2.96-1.02,6.2,1.62,14.05c1.91,5.7-5.03,3.96-6.98,2.02c-2.18,2.18,0.13,4.06,3.44,3.84
		c0,1.31,0,2.33,0,3.03c-1.42,2.93-5.46,0.81-6.87,3.64c1.72,1.82,2.93-0.61,4.25-0.1c1.11,0.91,1.31,2.12,0.4,3.03
		c-4.4,4.4,1.95,10.17-5.66,11.12c-3.23,0.4-10.41-0.71-10.31-0.81c-0.81-1.52-2.53-1.52-3.94-2.12c0.81,1.52,2.12,2.22,3.74,2.33
		c-2.73,2.73-4.08-1.74-11.63,4.65c-10.95,9.28-12.72,10.84-14.35,10.6c-2.73-0.4-3.34,1.42-4.45,3.03
		c-1.82-2.43-3.34-4.95-6.07-6.17c-3.94-4.93-2.32-10.93-8.49-16.38c-1.4-1.4-4.31-9.71-10.72-13.55c-0.51-0.3-1.01-0.61-1.62-1.92
		C210.96,150.79,219.99,146.13,219.89,146.03z M227.88,136.74c0.71,0.71,1.42,1.11,0.81,2.12
		C227.88,138.36,227.47,137.75,227.88,136.74z M200.99,149.99c-0.61,4.26,7.15,2.83,9.3,7.38c4.78,10.15,9.65,2.24,12.33,44.38
		c-12.28,6.5-14.53,6.21-11.73,32.05c-18.75,6.99-15.51,16.9-41.14,18.3c-1.62-3.03-3.23-5.96-5.26-9.6
		c5.36,1.42,10.31,1.33,15.06,2.53c3.23,0.82,6.27,0.4,8.9-1.62c-0.54-1.63,1.43-1.11-2.83-0.1c-7.64,1.8-5.46-0.98-11.83-1.72
		c-3.54-0.41-7.08-0.91-10.51-1.42c-1.62-2.73-3.44-5.16-4.45-8.29c2.12-0.61,3.94-2.12,6.37,0.4c-0.71-3.23,0.91-3.84,2.63-4.55
		c0.81,0.91,0.2,2.63,1.82,2.83c0.71-1.52,0.3-3.03,0.81-4.14c2.02-1.82,3.84-3.84,5.56-6.07c2.02-2.63,5.35-1.64,7.89-2.83
		c3.52-1.66,7.97-4.35,9-4.95c1.62,2.02,1.31,4.95,3.64,6.77c0.51-3.13-0.91-5.66-1.01-8.39c14.46-16.27,17.08-37.48,14.15-45.79
		c-6.16-17.48-22.96-15.91-24.16-17.39C191.18,145.03,195.83,147.96,200.99,149.99z M206.75,238.64c8.14-2.4,1.73-4.96,13.45,24.16
		c-9.21,1.02-5.97-3.25-8.59-5.66C203.8,249.99,208.81,242.29,206.75,238.64z M184.71,260.68c1.23,4.46,7.18,5.05,13.04,9.5
		c7.13,5.41,0.08-0.17-7.18,4.75c-2.78-0.74-2.76-4.9-9-9.7c-5.53-4.26-9.05-6.57-10.82-11.22c3.23,1.01,5.86,0.3,8.79-0.1
		C179.87,256.92,184.16,258.68,184.71,260.68z M116.37,198.81c5.56-4.55,10.13-10.07,16.68-13.55c2.64-1.4,5.36-3.23,8.19-5.36
		c-0.2,2.12-0.91,3.94,0,5.56c-5.96,6.87-8.59,15.37-12.43,23.15c0.4-0.1,0.81-0.1,1.72,0c-0.91,2.83-1.05,5.94-2.83,8.39
		c-20.99,28.85,3.28,31.46,6.77,40.94c-3.22-1.53-8.05,0.35-10.31-2.43c-2.67-3.28-6.47-4.45-10.11-5.86
		c1.21,2.22,3.54,3.23,5.66,5.36c-10.72-1.99-5.91-2.33-5.96-2.93c-0.81-0.81-2.02-1.43-3.23-1.52c-7.07-0.5-24.05-16.7-25.78-34.37
		C87.16,213.4,110.79,203.39,116.37,198.81z M99.39,244c-0.51,1.42-1.62,0.71-2.53,0.61c-1.21-0.2-0.91-1.21-0.71-2.12
		C97.37,242.59,97.98,244.2,99.39,244z M93.63,243.7c-0.61-0.51-1.31-0.51-1.21-1.31C93.22,242.08,93.73,242.38,93.63,243.7z
		 M89.99,239.86c-0.51-0.3-0.91-0.51-0.71-1.62C90.29,238.74,90.39,239.25,89.99,239.86z M83.42,221.36
		c0.81,0.91,0.61,1.42-0.3,1.62C82.51,222.47,82.81,221.96,83.42,221.36z M93.73,328.71c-2.83-7.68-6.06-15.27-10.82-21.84
		c-5.56-7.68-8.69-16.58-13.65-24.57c-0.1,0,0.1-0.3,0.3-0.61c26.06,11.47,26.65,6.91,30.23,15.26c-1.87-0.28-34.03-8.91,0.51,1.72
		c1.31,1.62,1.11,3.54,2.22,5.05c0.61-1.62-0.4-3.03,0-4.55c6.37,1.52,12.64,2.83,19.11,3.03c-16.07-4.1-20.34-2.48-22.64-10.11
		c43.08,7.64,5.12,2.06-30.02-11.83c-6.14-2.84-17.96-34.81-2.73-49.23c9.64-9.13,0.12-2.93,12.33-11.73
		c0.91,0.71,0.81,1.52,0.61,2.53c-1.11,0-2.53-0.4-2.93,1.52c1.31,0,2.53,0,3.74,0.81c1.96,5.22-1.51,2.22-1.72,5.16
		c1.11,0.91,2.02-0.51,2.73-0.51c12.5,19.57,12.24,15.95,15.57,21.03c1.35,2.05,3.65,2.19,5.97,0.96c-3.43-1.92-3.52,1.03-6.18-3.99
		c1.33,0,0.43-0.51,3.03,1.72c2.69-0.7,3.32-0.21,3.23,2.22c1.18-0.68,16.81,10.09,34.57,9.1c0.71,0.71,2.02,1.11,2.53,2.43
		c-1.21,1.82-3.74,2.53-3.94,5.05c-1.01-0.71-0.61-1.92-1.01-2.83c-1.52-2.93-5.36-4.14-8.09-1.92c6.85,0.34,6.02,5.77,7.08,6.87
		c0.1,0.1,21.18,29.33,25.88,36.49c-15.57,3.34-28.81,11.42-41.95,19.81c-2.02-3.34-4.35-5.96-7.28-8.9
		c3.23,0.51,5.76,1.82,9.3,1.01c-2.83-0.81-4.86-1.39-6.98-1.92c-5.1-1.27-4.3-3.62-5.56-4.25c-0.71,0.51,0.4,1.21-0.2,2.02
		c-7.08-2.93-14.05-6.07-20.32-10.82c1.71,4.39,15.42,10.47,19.81,12.23c1.72,0.69,3.23,1.52,3.84,4.04
		c-6.17,0.1-12.13,1.31-18.2-1.62c1.26,4,10.36,3.72,14.86,3.03c5.46-0.83,7.48,0.4,9.3,5.96c-6.37,4.04-11.42,9.6-16.48,15.77
		C97.98,337.51,95.45,333.37,93.73,328.71z M162.57,308.29c-0.91-1.52,1.01-1.82,0.3-3.13c-0.3-1.11-1.72,0.51-2.43-0.71
		c-1.71-3.42-3.41-1.53,15.16-10.31c0.1,2.73,1.42,4.65,3.13,6.98C173.09,303.44,168.13,306.58,162.57,308.29z M186.13,306.47
		c-6.07,3.13-12.64,3.94-17.29,8.59c-1.42-1.82-2.63-3.23-3.94-4.85C186.13,300.39,179.31,302.05,186.13,306.47z M157.92,299.8
		c-2.02-2.63-3.84-4.95-5.46-7.78c2.12,0.3,3.74,0.51,5.46,0.71c-4.45-1.72-9.6-2.53-11.12-8.49c2.53,0.1,4.75,1.42,7.78,1.01
		c-3.34-1.72-6.67-1.72-9.6-3.23c-0.2-1.62-1.31-2.73-2.33-4.45c14.12-3.11,16.23-4.32,17.08-2.12c1.97,5.03,13.03,5.86,14.35,16.68
		C168.84,294.55,163.38,297.07,157.92,299.8z M141.34,276.35c-0.39-3.18-3.54-4.71-3.82-7.75c-0.04-0.01-0.08-0.01-0.12-0.03
		c0.1-0.1,0.12-0.15,0.12,0.03c0.43,0.08,0.72-0.35,1.09-0.54c0.81,1.11,2.02,0.69,3.13,0.51c6.38-1.06,5.41-2.71,14.25,4.55
		C150.85,274.02,146.2,274.83,141.34,276.35z M135.89,267.25c0.81,0.23,1.07,1.39,1.52,1.21
		C137.07,268.8,135.36,269.24,135.89,267.25z M138.51,267.96c1.11-1.52,1.92-3.34,3.94-4.04c1.01,0.4,1.92,1.01,2.02,2.33
		C142.46,266.85,140.54,267.35,138.51,267.96z M105.25,340.85c9.55-10.2,8-10,12.43-5.96C113.75,337.81,110.01,340.34,105.25,340.85
		z M133.46,425.26c-1.29-6.88-1.3-13.96-3.94-20.52c-4.14-10.25-3.71-31.96,6.37-47.92c3.47-5.5,1.04-14.19-6.17-17.49
		c-4.98-2.27-8.69-6.37-13.44-9c1.01-1.11,2.02-1.92,3.44-2.33c2.73,3.44,6.67,5.26,10.72,6.98c-2.43-2.93-4.95-5.96-7.48-8.9
		c11.42-7.99,23.66-13.95,37-17.59c5.86,7.28,12.84,14.25,12.43,24.67c-0.71,0.61-1.62-0.51-1.82,0.71c0.4,1.62,2.32,1.82,2.93,3.54
		c2.29,6.38,2.45,12.75-1.01,18.5c-6.53,10.86-7.2,31.53-9.81,45.19c-1.32,6.92-10.31,22.83-2.93,56.31
		c-2.43,0.71-1.92,3.03-2.63,4.85c-4.55,0.81-8.9,2.22-13.55,2.53c-1.07-21.44-3.88-5.67-2.22,0.51c-2.45-0.22-3.57,2.28-5.56-0.71
		C138.66,465.42,141,465.39,133.46,425.26z M167.22,459.12c0.1,3.54,0.91,6.57,2.43,10.01c-3.23-1.01-5.86,1.62-8.9-0.1
		C160.99,462.28,157.94,458.75,167.22,459.12z M160.15,425.66c1.64-8.49,4.35-16.68,5.96-25.17c4.65,21.23,4.35,33.87,2.43,42.86
		c-0.81,0.71-1.52-0.51-2.73,0.4c-1.42,2.53-2.02,5.76-4.55,8.9C161.26,443.15,158.45,434.46,160.15,425.66z M158.33,470.24
		c-1.52,1.21-3.22,1.93-4.25,3.23c-5.61,7.15-15.59,2.11-17.39-5.66c7.18-0.1,13.95-1.92,21.23-3.03
		C157.62,466.91,158.83,468.52,158.33,470.24z M205.44,492.18c5.61,1.27,7.16,1.57,6.07,10.31c-15.01,9.84-64.11,1.24-81.78-2.33
		c-1.92-0.39-2.93-1.62-3.03-3.64c1.11-1.21,2.63-1.92,2.93-3.94c1.01-6.67,1.62-13.45,5.26-19.31c2.73,3.74,3.03,3.94,10.72,6.87
		c7.6,2.9,7.54-4.43,14.25-7.78c4.14,2.33,7.38-1.72,11.63-1.21c-3.03,2.43-7.28,1.82-9,5.16c2.27,3.4,10.17-4.64,12.43-1.11
		c-8.19,2.83-8.49,3.03-9.5,5.76c4.75,0.61,8.19-2.43,12.33-3.74c4.25,2.84-3.49,1.48-5.86,6.37c4.35,1.72,7.28-2.12,11.32-2.73
		c-1.82,2.63-5.36,2.12-5.86,5.36c3.64,1.31,6.07-2.12,9.4-2.33c-1.11,1.72-3.84,1.31-3.94,3.84c1.82,0.71,3.84-0.81,5.26,1.01
		C193.81,484.55,189.62,488.59,205.44,492.18z M196.03,440.92c-0.04-1.57,1.23-1.02,2.43,0c-1.11,3.74-2.53,7.48,0,11.22
		c-0.61,1.82-2.02,3.03-1.72,4.65c2.33,0.91,3.34-1.52,4.95-1.52c1.42,1.31-0.81,2.22,0.4,3.64c1.31,1.31,2.93-0.61,4.55-0.4
		c0.1,1.31-1.72,1.92-1.21,3.34c2.02,1.62,3.94-1.82,6.07-0.1c0.1,1.31-2.02,1.92-0.91,3.34c1.62,1.01,2.33-1.11,3.74-1.01
		c2.73,3.34,6.47,4.15,10.51,4.95c1.92,0.38,13.46,3.57,14.05,4.75c-0.15,4.16-0.97,8.09-7.78,8.09
		c-32.36,4.55-35.81-6.28-44.78-1.21c-7.6-9.43-14.93-8.19-15.26-18.3c-0.2-5.96-3.43-5.3-9.2-6.07c3.94-2.22,4.45-6.27,6.17-9.7
		c1.81,8.45,7.04,11.05,11.73,12.64c2.42,0.82,4.04-1.72,5.96-2.73C190.55,453.6,196.25,450.69,196.03,440.92z M170.15,446.28
		c7.78,1.92,15.06,1.01,23.15-0.1c-2.93,6.07-9.1,6.77-12.84,10.21C172.78,453.36,171.47,452.04,170.15,446.28z M194.62,306.98
		c10.03,12.94,5.29,12.24,10.51,21.33c2.21,3.85,3.46,8.3,1.92,12.23c-1.9,4.86-2.24,10-4.14,14.86c-4.75,12.14-1.3,21.1-6.37,46.1
		c-8.25,40.73,2.03,41.28-8.09,42.05c-3.15-4.72-5.56-4.63-5.16-10.51c0.2-2.93-0.2-5.86-1.31-8.69c0.1,3.34,0.24,6.57,0,9.81
		c-0.44,6.02,3.81,5.82,4.55,9.5c-13.16,2.39-8.83-0.26-10.61-9.5c-2.64,3.78,1.97,12.22-4.45,9.3c3.04-42.53-4.68-53.52-2.63-63.48
		c6.88-33.43,12.3-25.34,6.17-45.49c4.75,3.23,9.6,2.93,14.46,2.93c-21.05-4.77-11.33-8.73-19.71-21.03
		C177.74,311.93,185.72,308.4,194.62,306.98z M204.93,297.98c-1.92,1.21-3.54-0.3-5.16-0.1c-0.91,0.91-0.72,2.41-1.92,2.93
		c-1.12,0.49-2.12-0.61-3.54-0.1c-2.02,2.73-5.76,0.61-7.68,2.22c-2.83,0.61-2.23-2.3-3.94-2.63c-6.66-1.29-5-13.33-12.23-18.9
		c-11.39-8.77-1.17-2.85-23.15-17.29c-10.57-6.94-26.07-24.05-26.99-26.18c2.83-4.95,3.63-10.62,6.67-15.26
		c9.34-14.28,6.36-28.32,23.45-41.75c0.91-0.71,2.12-1.42,1.62-3.44c-3.13,1.21-5.56,3.44-8.69,5.66
		c5.11-15.34,2.29-6.09,11.52-16.48c0.51,3.44-2.63,6.27-0.4,9.81c2.17-4.18,2.57-16.25,16.88-23.05c3.64-1.73,7.68-2.22,11.02-4.35
		c5.16,2.02,10.83,2.1,15.37,5.66c10.92,8.56,11.28,15.65,7.99,28.81c-1.11,0.1-1.42-1.52-2.53-0.71
		c3.91,7.39-4.08,16.49-7.89,23.96c-0.3,0.4-0.61,0.91-1.52,0.81c-1.78-8.55,4.86-5.93-3.74-9c-0.2-0.61,0.81-1.01-0.2-1.72
		c-1.72,1.92-4.55,1.92-6.67,3.54c2.63,3.44,6.17,5.66,8.29,9.4c-23.86,13.92-1.87-0.86-8.69-7.68c-1.21,0.71-0.99,2.03-1.21,2.93
		c-3.39,13.72-21.49,25.45-26.28,23.86c-1.64,2.19,11.31,21.14,12.03,23.76c2.15,7.75,8.9,9.17,19.51,21.84
		c4.73,5.65,7.53-1.55,11.63,0c1.83,0.69,3.64,1.01,5.66,1.11C200.61,292.16,209.28,288.2,204.93,297.98z M209.88,293.43
		c-0.4,0.51-0.81,0.81-1.52,0C208.97,292.93,209.48,292.83,209.88,293.43z M208.47,292.12c-1.42-3.64-3.34-6.57-3.54-10.51
		C207.76,285.14,208.87,288.48,208.47,292.12z M209.58,274.83c-7.6,0.69-0.52-0.4-6.67-1.82c-0.3-1.31-0.51-2.43-0.71-3.23
		c-7.48-5.36-15.37-9.2-20.52-16.68c8.09-2.22,15.16-6.37,22.14-12.64c0.61,8.69,2.93,15.97,8.49,22.75
		c4.75,2.56,8.89,0.67,9.1,3.23c0.86,10.55,4.98,6.09-2.22,12.74c-2.83-1.52-2.83-1.82-0.2-5.96c-4.04,0.61-7.78-1.11-11.73-0.3
		C207.96,274.02,209.28,273.72,209.58,274.83z M216.66,289.69c-0.71-4.95-3.64-9-4.85-13.75c0.81-1.01,1.72-1.62,3.03-0.91
		c0.1,4.35,5.05,6.57,5.05,11.32c-0.1,0.61-1.31,1.01-1.42,2.02c1.72,0.81,2.83-2.12,4.65,0
		C221.21,290.3,219.08,290.1,216.66,289.69z M228.78,283.45c-1.17,4.17-5.59,5.13-8.78-1.84c2.12-2.12,3.64-4.45,5.16-6.98
		c4.22,5.8,0.15,2.68-0.81,4.04c0.61,2.33,2.93,2.22,4.55,3.03c-1.21,0.81-1.21,0.81-1.82,2.53
		C227.93,284.62,228.16,283.57,228.78,283.45z M277.11,325.98c-25.12,10.7-66.59-75.05-65.61-107.05
		c0.26-8.59,2.63-11.73,13.34-14.96c-6.6,25.1,16.52,70.83,31.14,92.6C279.41,331.47,292.32,319.51,277.11,325.98z M265.99,306.78
		c-38.04-44.31-60.23-136.5-16.68-94.52c2.52,2.43,3.64,5.16,2.93,9c-5.58-6.04-12.31-13.2-15.77-10.72
		c-1.82,1.31-2.43,6.77-0.81,9.1c-0.3-2.83,0.4-4.95,2.43-7.18c16.29,12.46,14.25,6.89,14.25,32.25c-4.14,1.11-4.54,1.41-4.35,4.55
		c0.81,13.04,9.45,27.34,17.79,26.18c3.44-4.04-0.2-8.29,0.1-12.43c2.42-1.21,3.76-1.92,6.67-3.13
		c8.86,17.85,13.54,43.14,10.31,47.71c-1.01,0.3-1.52-1.01-2.83-0.51c12.12,10.1,4.83-30.84-4.14-44.78
		c-1.68-2.6-1.48-3.43,0.3-4.14c0.88-0.44,1.67-0.55,2.02,0.51C302.12,313.43,292.7,337.89,265.99,306.78z"/>
	<path d="M698.76,284.84c-5.41-2.74-2.98-8.68-7.48-11.02c-2.02,3.74,0.4,6.67,1.21,9.7c1.11,0.2,1.72,1.11,2.63,1.62
		c-1.11,4.65,0.71,8.69,2.02,12.94c-1.72,4.65-1.31,6.47,1.62,8.79c0.51-6.67-1.52-13.04-1.82-19.71c4.95,0,6.27,4.04,8.29,7.28
		C704.62,290.1,702.51,286.74,698.76,284.84z"/>
	<path d="M718.98,189.11c3.15-5.46-6.66-7.64-9.91-11.83C709.98,183.25,715.74,184.66,718.98,189.11z"/>
	<path d="M686.32,295.66c-1.51-3.84-1.26-9.4-3.13-12.03c-1.62,9.3,3.74,15.87,6.57,23.45
		C690.93,303.06,689.17,302.88,686.32,295.66z"/>
	<path d="M642.35,201.24c2.73-3.74,3.74-8.29,6.17-12.23C644.98,191.53,642.15,196.99,642.35,201.24z"/>
	<path d="M700.48,310.82c-0.61,2.73,3.54,12.33,6.37,15.16c0.51-3.05-1.51-2.24-5.16-13.65
		C701.49,311.73,701.18,311.02,700.48,310.82z"/>
	<path d="M680.46,250.67c-0.4,4.45,0.91,8.59,3.13,10.41C683.8,255.83,682.99,253.2,680.46,250.67z"/>
	<path d="M682.38,217.82c-3.3-8.66-2.19-6.32-4.14-12.74C676.42,207.81,678.24,213.57,682.38,217.82z"/>
	<path d="M697.85,243.19c-2.22,3.74-1.31,8.19-4.14,11.12C697.65,252.69,699.57,248.04,697.85,243.19z"/>
	<path d="M704.42,187.59c-0.81,5.76-1.62,11.42-3.23,16.98C704.32,199.32,705.02,193.56,704.42,187.59z"/>
	<path d="M723.63,231.26c4.25-2.02,8.09-4.35,9.7-9.1C730.5,225.6,726.66,228.03,723.63,231.26z"/>
	<path d="M679.35,182.64c1.52-4.35,5.56-6.27,8.69-8.9C688.04,172.81,680.47,175.76,679.35,182.64z"/>
	<path d="M620.31,225.4c1.01-2.43,1.92-4.95,0-8.09C618.39,220.45,619.2,222.87,620.31,225.4z"/>
	<path d="M661.56,228.03c-1.72-2.33-4.14-3.54-5.16-6.07C656.3,225.1,658.42,227.62,661.56,228.03z"/>
	<path d="M654.38,254.11c-2.53-1.01-3.74,0.81-5.16,1.92C651.24,256.64,652.96,256.13,654.38,254.11z"/>
	<path d="M722.47,233.07c-2.65-0.07-3.99,0.77-5.32,3.04C719.97,236.77,720.26,233.25,722.47,233.07z"/>
	<path d="M686.32,281.91c2.02,2.12,3.74,3.34,6.17,1.72C690.87,282.11,688.95,281.81,686.32,281.91z"/>
	<path d="M658.42,236.72c-0.61-2.12-2.53-2.33-3.94-3.03C654.68,236.82,655.19,237.23,658.42,236.72z"/>
	<path d="M668.03,231.36c-1.42-2.02-3.44-1.82-5.05-2.22C664.08,230.86,665.3,232.48,668.03,231.36z"/>
	<path d="M688.45,225c-0.81-2.53-1.82-3.94-3.03-5.56C684.91,222.27,685.21,222.77,688.45,225z"/>
	<path d="M676.11,191.74c0.61-2.43-1.82-3.23-2.22-4.85C673.99,190.32,673.99,190.32,676.11,191.74z"/>
	<path d="M615.86,244.81c2.02-0.91,2.73-2.33,2.63-5.16C616.97,241.27,616.57,242.99,615.86,244.81z"/>
	<path d="M619.91,235.21c1.42-0.91,2.12-1.92,1.42-3.94C619.7,232.88,619.7,232.88,619.91,235.21z"/>
	<path d="M675.71,244.4c0.3,2.43,1.72,3.23,2.73,4.45C678.03,247.24,677.83,245.62,675.71,244.4z"/>
	<path d="M729.69,362.38c-1.11-1.42-1.82-2.43-2.53-3.34C726.35,361.16,727.16,362.18,729.69,362.38z"/>
	<path d="M721.91,350.95c1.11,1.42,2.22,2.73,3.34,4.14C725.98,354.61,726,351.89,721.91,350.95z"/>
	<path d="M643.16,233.49c-0.3,2.43-0.3,2.43,2.02,3.03C645.08,235.1,644.27,234.3,643.16,233.49z"/>
	<path d="M704.82,178.19c0,2.02,0,3.44,0,5.36C706.24,181.63,706.14,180.21,704.82,178.19z"/>
	<path d="M637.7,205.69c-1.31,1.01-1.11,2.12-0.91,3.74C638.31,208.11,637.8,206.8,637.7,205.69z"/>
	<path d="M692.19,313.45c0.61-1.72-0.71-2.53-1.01-3.64C690.57,311.12,691.18,312.14,692.19,313.45z"/>
	<path d="M652.46,229.85c-0.4,2.02,0.4,3.13,1.92,3.84C654.38,232.17,654.28,230.76,652.46,229.85z"/>
	<path d="M625.26,213.17c-1.72,1.11-1.31,2.43-1.11,3.74C625.57,215.9,625.57,214.68,625.26,213.17z"/>
	<path d="M643.66,216.81c0.81,1.52,1.92,1.21,3.54,0.61C645.89,216.1,644.88,216.2,643.66,216.81z"/>
	<path d="M651.45,228.43c0.71-1.11,0.71-1.11-0.2-3.03C650.23,226.71,650.84,227.52,651.45,228.43z"/>
	<path d="M701.89,231.16c1.82,0.1,2.93-0.2,3.64-1.52C703.91,228.74,702.9,229.54,701.89,231.16z"/>
	<path d="M700.58,237.63c-1.52,0.71-2.02,1.52-1.82,3.23C700.37,240.06,700.27,238.95,700.58,237.63z"/>
	<path d="M716.14,355.5c0.71,1.62,1.31,2.33,3.03,2.43C718.47,356.41,717.56,356.21,716.14,355.5z"/>
	<path d="M689.86,260.78c1.31-0.51,1.21-1.62,1.31-3.13C689.46,258.46,689.36,259.47,689.86,260.78z"/>
	<path d="M692.69,227.22c-0.61-2.12-0.61-2.12-3.03-3.23C690.27,225.8,691.48,226.41,692.69,227.22z"/>
	<path d="M698.35,230.66c1.42,0.61,2.02-0.3,3.13-0.71C699.87,229.24,699.87,229.24,698.35,230.66z"/>
	<path d="M695.83,320.73c0.2-1.21,0.2-2.02-1.21-2.93C694.92,319.21,694.92,320.02,695.83,320.73z"/>
	<path d="M720.19,360.56c-0.1,1.42,0.71,1.72,1.92,2.12C722.01,361.16,721.2,360.96,720.19,360.56z"/>
	<path d="M648.01,217.41c1.21,1.31,2.12,0.51,2.93,0.4C650.13,215.9,649.22,216.5,648.01,217.41z"/>
	<path d="M642.05,216.3c-0.81-1.21-1.52-0.91-2.43-0.1C640.32,217.88,642.05,217.21,642.05,216.3z"/>
	<path d="M692.29,257.14c1.52-0.61,1.72-1.62,1.52-2.73C691.98,254.61,692.19,255.83,692.29,257.14z"/>
	<path d="M722.92,191.94c-0.2,1.01-0.4,1.82,0.51,2.63C724.13,193.46,723.73,192.75,722.92,191.94z"/>
	<path d="M725.55,354.9c-0.47,0.47-0.25,2.54,1.31,2.83C727.47,356.31,726.56,355.6,725.55,354.9z"/>
	<path d="M687.23,275.74c0.1,1.21,0.71,1.52,1.82,1.42C689.05,275.95,688.55,275.64,687.23,275.74z"/>
	<path d="M618.79,238.54c1.21-0.71,1.62-1.31,1.11-2.43C618.29,236.42,618.39,237.33,618.79,238.54z"/>
	<path d="M692.29,172.33c1.21-1.61-1.53-1.54-1.31,0.4C691.58,173.24,691.98,172.73,692.29,172.33z"/>
	<path d="M701.59,175.97c0.2,0.91,0.2,0.91,1.31,0.91C702.8,176.07,702.4,175.76,701.59,175.97z"/>
	<path d="M713.11,360.56c0.2,0.71,0.2,1.52,1.31,1.72C714.63,361.06,714.12,360.56,713.11,360.56z"/>
	<path d="M713.01,360.66c-0.1-0.71-0.3-1.31-0.91-1.72C711.09,360.36,712.51,360.15,713.01,360.66z"/>
	<path d="M711.9,331.65c0,0.4-0.1,0.71-0.1,1.11C712.3,332.45,712.2,332.05,711.9,331.65z"/>
	<path d="M705.13,296.16c-0.61,1.01,0.2,1.21,0.91,1.72C706.34,296.67,705.83,296.37,705.13,296.16z"/>
	<path d="M698.25,324.77c0.81-0.81,0-1.01-0.61-2.02C697.44,324.17,697.75,324.47,698.25,324.77z"/>
	<path d="M706.95,325.98c0.1,0.61-0.2,1.62,1.11,1.62C708.26,326.49,707.25,326.49,706.95,325.98z"/>
	<path d="M694.81,226.01c0.1-0.71-0.2-1.01-0.91-1.01C693.5,226.01,693.8,226.31,694.81,226.01z"/>
	<path d="M701.18,207.3c0-1.42,0-2.12,0.1-2.63C701.08,205.28,700.68,205.79,701.18,207.3z"/>
	<path d="M612.63,264.83c-12.43-1.72-24.77-3.13-37,1.82C610.58,262.35,612.63,269.1,612.63,264.83z"/>
	<path d="M603.53,272.41c17.44-6.5,23.03-3.27,32.65-5.26C631.13,263.51,612.43,266.85,603.53,272.41z"/>
	<path d="M665.5,269.68c-5.76,0.4-11.32,2.02-16.98,3.44c1.52-4.75,6.27-4.45,9.7-5.96c0.32-4.52-10.03,0.87-12.74,4.65
		c0.61,0.91,1.11,1.82,1.52,2.63c6.17-0.81,12.27-1.6,18.2-3.44C665.5,270.9,665.8,270.69,665.5,269.68z"/>
	<path d="M613.84,258.66c-30.33-3.03-31.44-3.23-41.85-8.49c2.31,6.92,29.09,9.33,35.68,9.81
		C609.59,260.11,611.52,260.07,613.84,258.66z"/>
	<path d="M595.75,276.05c-2.39,1.59,7.23,5.82-18.5-0.61c5.96,3.03,12.54,3.94,19.11,4.65c2.33,2.93,3.34,6.67,6.27,9.4
		c-7.09-14.69-5.75-6.71,5.76-9.5c-3.54-1.01-7.18-0.61-10.51-0.91C596.45,278.37,596.55,276.96,595.75,276.05z"/>
	<path d="M585.64,236.92c-5.95-0.5-2.94,8.11,0.61,12.84C586.14,245.42,582.5,241.47,585.64,236.92z"/>
	<path d="M592.41,241.07c-2.12,2.33-2.12,3.23,0.1,5.36C592.61,244.61,591.9,242.99,592.41,241.07z"/>
	<path d="M671.66,306.88c0.61,0.81,1.21,1.01,2.33,1.01C673.38,306.78,672.78,306.68,671.66,306.88z"/>
	<path d="M573.61,245.62c0.1-0.91-0.51-1.11-1.11-1.62C572.29,245.31,572.8,245.52,573.61,245.62z"/>
	<path d="M672.78,340.95c1.01,0.2,1.91,0.3,1.62-1.2c3.48,0.54,1.22-2.24,1.92-3.45c-1.71,0.51-1.13,2.39-2,3.41
		c-5.47-2.54-12.48-0.48-16.9-4.11C654.86,333.49,650.63,338.87,672.78,340.95z"/>
	<path d="M658.52,415.65c1.21-5.76,1.52-11.63,2.93-17.29c-0.4-0.1-0.91-0.1-1.31-0.2C658.52,403.82,658.83,409.79,658.52,415.65z"
		/>
	<path d="M643.36,411c0.71-3.64,0.1-6.47-0.3-10.01C640.53,404.94,640.63,408.58,643.36,411z"/>
	<path d="M670.45,350.65c-3.64-2.12-6.87-2.22-10.31-2.63C662.06,350.25,666.41,351.36,670.45,350.65z"/>
	<path d="M651.55,364.9c0,3.34,0.61,5.76,3.03,7.58C655.89,370.16,655.29,368.54,651.55,364.9z"/>
	<path d="M657.01,361.77c0.71,2.93,1.21,3.34,5.16,4.55C660.65,364.4,659.53,362.78,657.01,361.77z"/>
	<path d="M642.15,341.86c1.42,2.12,4.04,2.83,5.76,4.95C647.61,344.08,646.19,342.77,642.15,341.86z"/>
	<path d="M667.01,377.64c-0.51-2.33-1.11-4.65-1.72-7.18C664.08,372.69,664.29,373.9,667.01,377.64z"/>
	<path d="M645.18,392.7c1.23-2.63,0.86-5.19,1.27-7.47C645.75,387.47,644.13,389.63,645.18,392.7z"/>
	<path d="M666.91,365.01c1.92-1.21,4.65-1.21,5.76-4.65C665.47,364.86,666.15,363.85,666.91,365.01z"/>
	<path d="M643.46,399.28c0.81-1.82,1.82-3.64,1.42-6.27C642.96,395.13,642.75,397.05,643.46,399.28z"/>
	<path d="M671.46,395.74c0.61-3.23,0.4-4.85-0.81-7.28C670.35,391.09,670.76,393.11,671.46,395.74z"/>
	<path d="M669.04,381.38c-0.71,1.92,0.81,2.83,1.21,4.14C670.55,384.01,670.65,382.6,669.04,381.38z"/>
	<path d="M647.1,379.87c1.42-1.92,1.42-1.92,0.61-4.14C647.5,377.04,647.3,378.35,647.1,379.87z"/>
	<path d="M658.22,421.11c0.51-0.91,0.91-1.82,0.71-3.13C657.82,418.89,657.92,420,658.22,421.11z"/>
	<path d="M651.04,435.26c1.21-1.31-0.1-2.02,0-3.64C650.23,433.34,650.64,434.25,651.04,435.26z"/>
	<path d="M650.13,332.25c0-0.91-0.2-1.52-1.42-1.62C648.72,331.75,649.02,332.15,650.13,332.25z"/>
	<path d="M654.08,334.98c0.83-1.33-1.24-1.43-2.53-1.72C652.26,334.68,652.86,335.29,654.08,334.98z"/>
	<path d="M651.04,350.15c-0.2-1.42-0.71-2.02-1.82-2.22C649.32,348.93,650.03,349.44,651.04,350.15z"/>
	<path d="M674.09,329.52c-0.71,1.01-0.1,1.62,0.71,2.43C675.51,330.64,674.8,330.13,674.09,329.52z"/>
	<path d="M650.44,361.06c-0.3,1.11-0.4,1.82,1.11,2.02C651.35,362.18,651.35,361.47,650.44,361.06z"/>
	<path d="M652.66,352.07c-0.51,0.61-0.3,1.11,0.1,1.62C653.47,353.18,653.27,352.67,652.66,352.07z"/>
	<path d="M651.35,450.73c0.81-1.01,0.71-1.82,0.1-2.63C650.64,448.91,650.74,449.62,651.35,450.73z"/>
	<path d="M651.14,455.89c0.71-0.81,0.61-1.31,0.2-1.82C650.33,454.47,650.23,454.98,651.14,455.89z"/>
	<path d="M651.35,442.85c0.61-0.51,0.51-1.01-0.2-1.42C650.54,441.94,650.74,442.44,651.35,442.85z"/>
	<path d="M775.08,301.82c0.4-1.11,0.51-1.82-0.1-2.63C774.17,300,774.37,300.71,775.08,301.82z"/>
	<path d="M802.27,385.02c-0.1,0.71,0.2,1.01,0.91,1.11C803.49,385.22,802.88,385.12,802.27,385.02z"/>
	<path d="M774.58,129.57c5.89-3.13,11.92,4.08,12.94-0.81c-3.84-3.64-11.73-3.54-15.37,0.2
		C772.76,129.87,773.98,129.88,774.58,129.57z"/>
	<path d="M776.5,134.22c2.53,0.1,4.75,2.22,7.58,0.51c0.2-0.81,0.3-1.72,0.51-3.03C781.45,131.59,778.72,131.89,776.5,134.22z"/>
	<path d="M749.61,149.58c-0.59,4.73-0.3,7.47,4.65,10.01c0.1-0.2,0.3-0.51,0.3-0.51C749.28,152.75,752.25,147.88,749.61,149.58z"/>
	<path d="M741.52,149.58c-3.54,3.44,0.71,6.77-1.11,9.81C741.52,158.68,741.92,153.12,741.52,149.58z"/>
	<path d="M750.21,176.47c-4.27,3.91-2.85,8.98-2.85,8.37c0.64-1.76,0.9-3.68,2.45-5.03c1.54-1.52,0.18-2.51,0.86-3.79
		c1.93-2.44,2.55-4.65,2.07-8.64C750.49,170.94,750.72,177.49,750.21,176.47z"/>
	<path d="M729.49,151.6c1.21,2.02,2.63,3.03,4.35,3.94C732.93,153.93,732.02,152.31,729.49,151.6z"/>
	<path d="M740.91,163.73c1.01-1.11,1.21-2.02,0.3-3.03C740,161.51,740.51,162.42,740.91,163.73z"/>
	<path d="M759.21,167.37c1.42,0.1,2.22-0.4,2.93-1.92C760.52,165.55,759.82,166.16,759.21,167.37z"/>
	<path d="M759.21,143.72c-0.71,0.4-0.51,0.81,0,1.21C760.81,146.54,761.33,143.95,759.21,143.72z"/>
	<path d="M762.14,146.45c-0.3,1.31,0.4,1.62,1.82,1.92C763.66,147.05,763.15,146.65,762.14,146.45z"/>
	<path d="M718.17,278.78c0.51-2.73,1.72-5.26,2.63-8.19C717.76,272.31,716.95,274.93,718.17,278.78z"/>
	<path d="M721.4,267.15c-0.71-3.23-2.12-5.66-3.64-8.29C716.55,261.59,717.46,263.61,721.4,267.15z"/>
	<path d="M718.47,250.67c-1.31,2.12-1.62,3.94-0.2,6.47C719.48,254.01,719.48,253.6,718.47,250.67z"/>
	<path d="M733.53,325.38c0.51,2.33,1.11,4.45,3.23,5.86C737.17,328.41,735.05,327,733.53,325.38z"/>
	<path d="M725.14,266.85c-1.21,1.52-3.34,2.53-1.92,5.26C725.04,270.59,725.34,268.87,725.14,266.85z"/>
	<path d="M727.87,272.61c1.92-0.61,3.54-1.82,5.36-3.64C729.79,268.67,729.08,270.99,727.87,272.61z"/>
	<path d="M723.42,281.91c1.42-2.33,1.62-4.25,2.12-6.47C723.22,277.56,722.82,278.67,723.42,281.91z"/>
	<path d="M725.34,308.19c0.51,2.22,1.31,3.64,2.63,4.85C727.57,311.43,727.37,309.71,725.34,308.19z"/>
	<path d="M717.56,267.05c-1.72,2.12-1.72,3.94-1.31,5.86C716.95,271.19,717.66,269.58,717.56,267.05z"/>
	<path d="M743.64,332.45c-2.12-0.61-3.34,0.1-4.65,1.01C741.22,333.77,741.22,333.77,743.64,332.45z"/>
	<path d="M718.07,286.46c-0.51,1.42-0.4,2.33,0.71,3.34C719.28,288.48,718.77,287.57,718.07,286.46z"/>
	<path d="M736.06,256.33c-1.31,0.71-1.09,2.62-0.99,2.52C736.04,258.06,736.37,257.47,736.06,256.33z"/>
	<path d="M730.3,315.88c-0.71,0.91-0.3,1.52,0.51,2.43C731.21,317.29,731.21,316.58,730.3,315.88z"/>
	<path d="M718.57,292.93c-0.51,0.81,0,1.31,0.71,2.22C719.58,293.94,719.38,293.43,718.57,292.93z"/>
	<path d="M718.17,281.3c-0.43-0.43-1.38,0.24-0.51,1.11C718.27,282.11,718.47,281.71,718.17,281.3z"/>
	<path d="M718.98,247.03c-1.01,0.51-0.91,1.01-0.3,2.02C719.58,248.25,719.48,247.64,718.98,247.03z"/>
	<path d="M740.41,336.09c-0.81-0.51-1.21-0.3-1.52,0.71C739.9,337,740.2,336.7,740.41,336.09z"/>
	<path d="M753.55,345.9c-0.3-0.71-0.61-1.11-1.31-0.81C752.08,345.79,752.33,346.21,753.55,345.9z"/>
	<path d="M685.21,444.16c1.11-1.82,1.11-3.03,0.3-4.85C684.3,440.92,683.9,442.24,685.21,444.16z"/>
	<path d="M685.21,436.88c1.52-1.72,1.11-2.83,0.61-4.45C684.2,433.95,684.71,435.06,685.21,436.88z"/>
	<path d="M696.74,392.1c0.71-1.01,1.31-2.02,0.2-3.34C695.42,389.87,696.23,390.99,696.74,392.1z"/>
	<path d="M685.01,425.96c-0.61,1.01-0.71,2.02,0.2,3.44C685.82,427.48,685.82,427.48,685.01,425.96z"/>
	<path d="M694.01,396.34c0.81-0.51,0.4-1.11,0.2-2.12C692.69,395.33,693.2,395.84,694.01,396.34z"/>
	<path d="M692.09,399.98c-0.51,0.61-0.61,1.01,0.1,1.52C692.89,400.89,693,400.49,692.09,399.98z"/>
	<path d="M657.82,491.07c-3.25,1.48-2.02,4.35-2.02,6.87c2.83,0.51,5.49,1.68,7.38-1.42C665.15,493.29,661.61,489.33,657.82,491.07z
		 M659.33,496.93c0.71-2.02-0.61-2.22-2.02-2.12C658.31,488.12,665.94,496.27,659.33,496.93z"/>
	<path d="M673.28,492.08c-1.01,1.32-0.3,2.63,1.01,3.54c-0.4,0.91-0.81,1.72-1.21,2.53c2.12,0.91,2.22-1.72,3.84-1.92
		c1.31,0,0.3,1.92,2.02,2.33c0.91-2.53,0.4-4.95,0.4-7.58C677.12,490.86,674.9,489.96,673.28,492.08z M674.6,493.49
		c1.42-1.52,2.22-1.31,3.23,0C676.62,494.71,675.81,494.6,674.6,493.49z"/>
	<path d="M664.08,494.6c0,4.95,8.63,5.42,8.49-0.2C672.45,489.21,664.08,489.71,664.08,494.6z M668.23,496.93
		c-2.99-0.21-2.74-4.78,0.51-4.55C671.74,492.59,671.32,497.14,668.23,496.93z"/>
	<path d="M700.98,350.45c-3.74-1.82-0.2-5.16-2.22-7.38c-1.92,2.12-2.33,5.26-1.21,7.28C698.25,351.36,698.35,351.36,700.98,350.45z
		"/>
	<path d="M698.55,341.15c0.88-0.22,0.38-1.01-0.1-1.01C698.07,340.14,697.64,340.69,698.55,341.15z"/>
	<path d="M744.05,191.74c-2.12-0.71-3.44,0.91-5.16,1.11C740.61,194.36,740.61,194.36,744.05,191.74z"/>
	<path d="M738.28,196.99c-0.3-1.82-0.91-3.34-3.13-4.65C735.15,195.17,737.17,195.78,738.28,196.99z"/>
	<path d="M147.81,246.43c-6.37-2.33-10.31-6.67-11.42-13.55C131.54,239.15,140.74,247.24,147.81,246.43z"/>
	<path d="M159.03,186.28c0-6.47,0-12.54,0-18.5c-2.83,0.26-0.78,12.32-1.52,13.45C156.28,183.13,157.32,184.56,159.03,186.28z"/>
	<path d="M144.88,254.92c1.21,4.55,5.16,8.29,9.3,9.5C153.07,261.99,149.23,258.05,144.88,254.92z"/>
	<path d="M197.55,159.29c0.51,1.31-0.2,3.54,0.91,5.76c4.19-3.14,1.23-8.81-3.13-9.6C194.92,157.57,196.74,157.57,197.55,159.29z"/>
	<path d="M158.02,197.5c1.21,5.46-1.72,9.5-2.22,14.15C159.24,208.72,160.75,201.04,158.02,197.5z"/>
	<path d="M146.2,221.86c-3.23,0.1-10.31,5.26-11.42,8.59c2.83-2.22,5.34-4.91,9-5.96C144.88,224.17,145.89,223.28,146.2,221.86z"/>
	<path d="M156.41,258.25c-2.53-3.54-4.65-6.67-7.48-9.1C149.53,253,152.06,255.93,156.41,258.25z"/>
	<path d="M181.07,200.83c-2.73-0.91-5.56-1.72-8.59-1.01C174.4,202.05,175.51,202.15,181.07,200.83z"/>
	<path d="M192.6,286.56c3.13,1.11,3.44,5.36,6.87,6.07C197.75,289.9,196.44,286.86,192.6,286.56z"/>
	<path d="M186.23,155.45c2.83-0.1,4.85-0.81,6.87-1.62C190.78,153.32,188.65,153.73,186.23,155.45z"/>
	<path d="M198.36,171.01c-2.63,1.92-3.03,4.35-4.04,6.37C195.93,175.76,197.75,174.15,198.36,171.01z"/>
	<path d="M143.06,252.39c-1.01-1.82-2.02-3.74-3.03-5.56C138.45,247.62,141.43,251.12,143.06,252.39z"/>
	<path d="M153.07,248.15c-1.31-1.31-2.43-1.82-3.94-1.62C149.84,248.15,150.95,248.75,153.07,248.15z"/>
	<path d="M175.51,163.63c-1.82,0.2-2.53,1.52-3.03,2.93C174,166.16,175.01,165.15,175.51,163.63z"/>
	<path d="M154.18,215.09c-0.1-0.2-0.3-0.4-0.51-0.61c-4.09,3.35-3.43,2.14-2.83,3.34C152.46,217.72,153.27,216.4,154.18,215.09z"/>
	<path d="M192.19,196.08c1.62,0.91,1.62,0.91,4.35-1.21C194.42,194.26,193.3,195.07,192.19,196.08z"/>
	<path d="M199.57,292.63c-0.71,2.83-0.51,3.13,2.53,3.34C201.8,294.34,199.67,294.24,199.57,292.63z"/>
	<path d="M153.98,247.84c0.91,1.21,2.02,1.82,3.54,1.31C156.61,247.74,155.29,247.54,153.98,247.84z"/>
	<path d="M171.17,197.8c-1.62-0.91-2.53-0.51-3.64-0.2C168.54,198.81,169.55,198.71,171.17,197.8z"/>
	<path d="M159.14,267.25c-1.31-1.21-2.22-2.02-4.25-2.33C156.1,266.64,157.11,267.35,159.14,267.25z"/>
	<path d="M160.55,268.16c0.4,1.52,1.31,2.02,2.83,2.43C162.78,269.07,161.87,268.57,160.55,268.16z"/>
	<path d="M166.41,261.08c0.61,1.01,1.52,1.31,2.73,1.01C168.44,260.68,167.32,260.98,166.41,261.08z"/>
	<path d="M160.96,259.47c-1.11-1.21-1.72-1.82-2.93-1.62C158.33,259.37,159.24,259.47,160.96,259.47z"/>
	<path d="M203.11,168.99c-0.1-1.21-0.1-2.43-1.62-2.93C200.79,167.78,202.4,168.28,203.11,168.99z"/>
	<path d="M158.93,189.61c0.4-1.52,0.4-1.52-0.71-2.63C157.62,188.1,158.53,188.81,158.93,189.61z"/>
	<path d="M197.95,193.96c1.11,0.71,1.82-0.1,2.93-1.01C199.37,192.65,198.56,192.95,197.95,193.96z"/>
	<path d="M188.25,292.73c0.71,1.11,1.52,1.62,2.83,1.31C190.47,292.73,189.56,292.63,188.25,292.73z"/>
	<path d="M192.7,296.06c0.71,1.72,1.42,2.02,2.53,1.92C195.02,296.57,193.91,296.77,192.7,296.06z"/>
	<path d="M161.16,193.76c0.4-1.52-0.4-2.02-1.01-2.73C159.44,192.44,160.25,192.95,161.16,193.76z"/>
	<path d="M148.12,217.92c-1.01-1.21-1.42-0.2-2.33-0.1C146.9,218.83,147.41,218.42,148.12,217.92z"/>
	<path d="M171.47,275.54c0,1.42,0.51,2.02,1.62,2.33C173.29,276.55,172.68,276.05,171.47,275.54z"/>
	<path d="M141.44,218.02c-1.01-0.61-1.42,0-1.92,0.51C140.43,219.13,141.04,219.23,141.44,218.02z"/>
	<path d="M186.13,275.14c-0.3-0.3-0.61-0.71-1.01-0.2C185.55,276.46,187.25,276.82,186.13,275.14z"/>
	<path d="M161.97,259.77c0.2,1.11,0.81,1.42,1.92,1.11C163.68,259.77,163.08,259.47,161.97,259.77z"/>
	<path d="M165.71,173.94c-0.3,0.1-0.61,0.51-0.51,1.01C166.33,175.63,166.59,173.5,165.71,173.94z"/>
	<path d="M186.53,298.08c-0.2,0.81,0.2,1.31,1.11,1.62C187.85,298.59,187.54,298.08,186.53,298.08z"/>
	<path d="M168.74,170.41c-0.61,0.3-1.11,0.51-0.91,1.31C168.74,171.72,169.24,171.52,168.74,170.41z"/>
	<path d="M175.31,279.18c-0.3,1.21,0.1,1.52,0.91,1.52C176.93,279.69,176.02,279.58,175.31,279.18z"/>
	<path d="M184.61,296.47c-0.61,1.21,0.1,1.21,0.61,1.52C185.72,296.97,185.01,296.87,184.61,296.47z"/>
	<path d="M154.99,227.52c0.61-0.61,0.2-1.01-0.3-1.31C153.98,226.82,154.08,227.22,154.99,227.52z"/>
	<path d="M103.03,260.68c-6.17-4.25-31.74-3.44-37,1.11C78.26,259.57,90.6,259.67,103.03,260.68z"/>
	<path d="M104.55,253.1c-14.96-0.71-29.32-1.31-42.66-8.49C63.16,250.97,99.48,256.84,104.55,253.1z"/>
	<path d="M126.28,260.48c-26.21-0.96-34.91,7.64-29.32,5.56C114.57,259.48,124.15,264.91,126.28,260.48z"/>
	<path d="M85.85,270.69c-1.73,1.95,6.7,5.72-18.2-0.61c3.59,3.17,17.19,4.18,19.31,4.95c6.65,11.65,7.13,10.93,1.21-0.2
		c29.08,0,18.33,0.57,0.2-1.11C86.65,272.91,87.06,271.29,85.85,270.69z"/>
	<path d="M76.34,231.16c-6.43,0.2-3.09,9.2,0.4,13.45C76.54,240.26,72.8,236.22,76.34,231.16z"/>
	<path d="M82.81,241.07c0.2-1.72-0.61-3.34-0.3-4.95C80.69,238.54,80.69,239.05,82.81,241.07z"/>
	<path d="M122.64,296.57c-0.61-0.61-1.31-0.81-2.22-0.61C121.23,296.16,121.63,296.97,122.64,296.57z"/>
	<path d="M111.12,275.95c0.4,0.2,0.71,0.4,1.01,0C111.83,275.74,111.42,275.54,111.12,275.95z"/>
	<path d="M63.71,240.16c0.3-0.71-0.1-0.91-0.91-1.11C62.8,239.96,63,240.26,63.71,240.16z"/>
	<path d="M163.08,335.79c2.34,0.17,4.44-2.14,3.54-4.85c-1.82,0.3-0.91,2.22-2.33,3.13c-2.83-0.51-6.16-1.77-9.3-1.21
		c-3.73,0.66-5.76-3.13-9.91-2.73C148.86,335.05,157.48,335.09,163.08,335.79z"/>
	<path d="M151.15,393.01c-2.43,5.66-1.82,11.63-2.33,17.49C150.04,404.63,150.44,398.77,151.15,393.01z"/>
	<path d="M133.26,405.64c1.62-3.34,0.1-6.27,0-9.2C130.93,399.78,131.03,402.81,133.26,405.64z"/>
	<path d="M145.79,366.83c-0.2-3.44-0.91-4.75-3.54-6.67C141.95,363.99,142.86,365.92,145.79,366.83z"/>
	<path d="M149.84,343.27c3.44,1.82,6.67,2.22,10.31,3.03C158.63,343.68,154.99,342.66,149.84,343.27z"/>
	<path d="M138.31,341.55c-0.51-2.93-1.62-3.94-6.27-5.56C133.86,338.82,136.59,339.23,138.31,341.55z"/>
	<path d="M147.21,356.82c1.21,2.63,1.31,2.73,4.75,4.04C150.95,358.54,149.94,357.63,147.21,356.82z"/>
	<path d="M156.61,372.39c1.14,0,0.77,0.67-0.91-7.08C153.98,368.04,156,370.16,156.61,372.39z"/>
	<path d="M133.46,393.82c1.62-1.52,1.82-3.54,1.62-5.66C133.36,389.77,133.46,391.79,133.46,393.82z"/>
	<path d="M157.32,359.85c1.72-1.42,4.55-1.42,5.76-4.75C155.6,359.59,156.63,358.82,157.32,359.85z"/>
	<path d="M161.16,383.51c-0.3,2.33-0.2,4.45,1.01,6.47C161.76,387.85,162.57,385.53,161.16,383.51z"/>
	<path d="M141.44,426.06c-0.91,1.42-0.81,2.63,0.2,4.25C142.46,428.59,141.14,427.38,141.44,426.06z"/>
	<path d="M138.11,370.26c-0.2,1.31-0.4,2.63-0.61,4.14C138.92,372.59,138.92,372.59,138.11,370.26z"/>
	<path d="M160.75,380.37c0.2-1.72,0.1-3.03-1.21-4.25C159.44,378.05,159.44,378.05,160.75,380.37z"/>
	<path d="M135.99,382.19c1.42-1.21,2.02-2.12,0.91-3.74C136.09,379.56,136.09,380.57,135.99,382.19z"/>
	<path d="M135.08,387.14c1.72-1.21,1.72-2.43,1.01-4.04C134.57,384.31,135.08,385.53,135.08,387.14z"/>
	<path d="M148.32,414.54c0,3.18,1.01,1.09,1.01-1.42C148.42,413.23,148.42,414.03,148.32,414.54z"/>
	<path d="M141.65,358.13c0.3-1.72-0.61-2.73-1.31-3.64C140.64,355.71,140.23,357.12,141.65,358.13z"/>
	<path d="M165.4,326.49c0.1-1.42-0.4-2.12-1.62-2.53C164.09,324.87,163.89,326.09,165.4,326.49z"/>
	<path d="M144.98,329.93c-0.71-1.52-1.42-2.02-2.73-1.72C142.46,329.52,143.37,329.83,144.98,329.93z"/>
	<path d="M141.44,344.59c-0.51-1.31-0.91-1.92-2.22-2.22C139.63,343.47,140.23,343.98,141.44,344.59z"/>
	<path d="M141.44,450.53c0.91-0.61,0.61-1.11,0.4-1.82C140.84,449.11,140.43,449.52,141.44,450.53z"/>
	<path d="M141.75,445.27c0.91-0.71,0.4-1.42,0.2-2.83C141.14,443.76,140.94,444.56,141.75,445.27z"/>
	<path d="M140.03,326.89c0.1-0.91,0.1-0.91-1.01-1.72C139.02,326.29,139.32,326.79,140.03,326.89z"/>
	<path d="M141.85,437.59c0.3-0.71,0.2-1.11-0.1-1.52C140.64,436.48,141.14,436.98,141.85,437.59z"/>
	<path d="M187.44,369.05c-3.9,2.55,0.36,9.95,0,12.94c3.13-4.04,2.22-15.57-1.11-19.51C184.71,363.99,184.71,363.99,187.44,369.05z"
		/>
	<path d="M199.27,341.35c0.4-1.42,0.4-1.92,0.1-3.44c-3.03,1.31-3.13,2.83-1.01,9.2C201.19,346.61,201.39,345.39,199.27,341.35z"/>
	<path d="M175.71,431.12c1.42-1.21,0.91-2.33,0.3-4.04C175.01,429.2,175.01,429.2,175.71,431.12z"/>
	<path d="M186.83,387.14c1.11-1.42,1.62-2.43,0.3-3.84C185.92,384.62,186.43,385.63,186.83,387.14z"/>
	<path d="M198.46,328.41c-0.71,1.31-1.42,2.73-0.2,4.55C199.17,331.24,198.66,329.83,198.46,328.41z"/>
	<path d="M175.71,420.61c-1.11,1.01-1.01,2.02-0.3,3.44C176.62,422.73,176.22,421.82,175.71,420.61z"/>
	<path d="M184.21,389.37c-1.01,0.61-0.51,1.11,0.2,2.02C184.91,390.38,185.12,389.77,184.21,389.37z"/>
	<path d="M182.49,396.04c0.51-0.1,0.71-0.51,0.51-0.91C182.42,394.28,181.42,395.61,182.49,396.04z"/>
	<path d="M235.16,227.42c0.81-1.31,0.4-1.92,0-2.73C233.84,225.91,235.05,226.31,235.16,227.42z"/>
	<path d="M276.6,304.35c0.1,0.81,0.51,1.21,1.31,1.31C278.12,304.45,277.11,304.65,276.6,304.35z"/>
	<path d="M264.78,124.21c5.9-3.37,11.91,4.1,13.14-0.81c-4.25-3.44-11.52-3.34-15.47,0.1C262.96,124.51,264.26,124.5,264.78,124.21z
		"/>
	<path d="M266.9,128.76c2.53,0.2,4.65,2.53,7.38,0.81c0.61-0.91,0-2.02,1.11-2.93C271.95,126.13,269.32,126.74,266.9,128.76z"/>
	<path d="M243.24,162.22c-1.82,2.53-1.72,5.66-2.83,8.49C243.65,168.69,242.94,165.25,243.24,162.22z"/>
	<path d="M240.51,170.71c-1.42,2.53-3.44,4.85-3.13,7.99C237.58,175.76,242.33,174.45,240.51,170.71z"/>
	<path d="M232.43,145.13c-2.53,0.3-2.83,1.72-1.01,4.75C231.72,148.27,232.12,146.75,232.43,145.13z"/>
	<path d="M231.52,154.43c1.01-1.31,1.11-2.43,0-3.84C230.51,152.01,230.3,153.12,231.52,154.43z"/>
	<path d="M223.72,149.98c-1.31-2.94-3.82-4.53-3.67-3.71C220.44,148.31,222.3,148.93,223.72,149.98z"/>
	<path d="M252.75,160.3c-1.92-0.2-2.63,0.71-3.54,2.22C250.82,162.12,251.84,161.71,252.75,160.3z"/>
	<path d="M231.21,158.28c0.91-0.51,1.11-1.11,1.01-1.82C232.22,154.85,229.91,154.69,231.21,158.28z"/>
	<path d="M254.26,143.11c-0.1-1.31-0.71-1.72-1.92-1.92C252.34,142.51,253.05,142.81,254.26,143.11z"/>
	<path d="M251.03,139.78c-0.1-0.91-0.71-1.42-1.82-1.31C249.21,140.71,251.5,140.25,251.03,139.78z"/>
	<path d="M194.42,219.94c-1.62,2.22-1.21,3.03,2.93,5.56C196.44,223.38,196.44,221.26,194.42,219.94z"/>
	<path d="M198.66,226.21c0,2.02,1.52,2.43,3.34,3.44C201.09,227.62,200.38,226.51,198.66,226.21z"/>
	<path d="M204.22,230.15c0,1.21,0.61,1.42,1.72,1.11C205.64,230.15,205.03,230.05,204.22,230.15z"/>
	<path d="M132.45,195.88c2.83-3.64,4.14-8.19,6.17-12.23C134.77,186.88,133.26,191.23,132.45,195.88z"/>
	<path d="M110.51,212.26c-1.92,3.03-0.91,5.46-0.1,8.39C112.13,216.71,112.13,215.29,110.51,212.26z"/>
	<path d="M109.1,234.9c-1.82,1.11-2.02,2.93-2.43,4.65C108.79,238.54,108.39,236.52,109.1,234.9z"/>
	<path d="M110.01,229.95c1.72-0.91,2.53-2.02,1.42-4.25C109.9,227.02,109.6,228.23,110.01,229.95z"/>
	<path d="M115.87,207.61c-1.92,1.21-1.42,2.63-1.42,3.94C115.97,210.74,115.87,209.43,115.87,207.61z"/>
	<path d="M128.4,199.82c-1.31,1.92-1.31,1.92-1.01,4.14C128.51,202.76,128.3,201.54,128.4,199.82z"/>
	<path d="M110.01,230.76c-1.42,0.81-1.21,1.62-0.91,2.53C110.21,232.68,111.02,231.97,110.01,230.76z"/>
	<path d="M128.81,208.62c-0.3,0.71-0.71,1.31-1.31,2.63C128.91,210.24,128.91,209.43,128.81,208.62z"/>
	<path d="M148.72,485.71c-3.23,0-4.25,1.82-3.84,7.28c5.36,0.91,7.46,0.1,7.78-2.83C152.95,487.63,151.25,485.71,148.72,485.71z
		 M148.32,491.98c0.81-2.02-0.71-2.12-2.02-2.12c0.2-2.02,1.31-2.61,2.93-2.43C151.43,487.67,152.06,491.79,148.32,491.98z"/>
	<path d="M161.97,488.74c0.92,1.72,1.01,3.13,0.2,4.65c2.02,0.2,2.12-1.92,3.44-2.12c1.54,0,3.16,7.77,2.63-5.05
		C165.61,484.9,160.63,486.25,161.97,488.74z M163.58,488.44c1.42-1.31,2.33-1.42,3.13,0.3
		C165.61,489.65,164.8,489.65,163.58,488.44z"/>
	<path d="M157.32,485.71c-2.33,0-4.35,1.92-4.35,3.94c0.2,2.02,2.43,4.04,4.55,3.94C162.7,493.36,162.91,485.71,157.32,485.71z
		 M157.32,491.87c-2.83,0-3.02-4.55,0.3-4.55C160.65,487.79,160.42,491.87,157.32,491.87z"/>
	<path d="M189.56,252.59c1.42,2.22,4.14,3.03,5.76,5.56C195.43,255.83,195.43,255.83,189.56,252.59z"/>
	<path d="M200.28,261.69c0.51,1.62,0.71,3.34,2.83,4.04C204.02,263.01,202.2,262.3,200.28,261.69z"/>
	<path d="M205.03,265.63c2.22-0.1,2.22-0.1,4.45-2.33C207.25,263.71,206.24,264.62,205.03,265.63z"/>
	<path d="M196.34,258.25c0.4,1.72,1.11,2.43,2.43,2.93C199.17,259.06,198.06,258.76,196.34,258.25z"/>
	<path d="M221.91,274.63c-0.2-0.91-0.61-1.11-1.31-0.81C220.4,274.83,220.9,274.93,221.91,274.63z"/>
	<path d="M170.66,290.2c-0.91,0.61-0.4,1.11,0.1,1.92C171.87,291.21,171.47,290.7,170.66,290.2z"/>
	<path d="M229.19,187.79c2.22,1.72,3.34-0.2,5.46-1.31C232.22,185.77,230.91,187.39,229.19,187.79z"/>
	<path d="M225.45,186.88c0,2.93,2.12,3.44,3.13,4.75C228.18,189.82,227.68,188.2,225.45,186.88z"/>
	<path d="M162.27,301.22c0.1,1.31,0.91,1.21,2.02,1.21C163.68,301.52,163.08,301.32,162.27,301.22z"/>
<path fill="#e6e6e6" d="m206.8 163.6c0-5.1 4.1-9.2 9.3-9.2s9.2 4.2 9.2 9.2-4.1 9.2-9.3 9.2-9.2-4.1-9.2-9.2zm17.3-.1c0-4.5-3.5-8.2-8.2-8.2s-8.2 3.7-8.2 8.3c0 4.5 3.5 8.2 8.2 8.2s8.2-3.7 8.2-8.3zm-13 0c0-2.8 2.1-5.1 5.1-5.1 1.9 0 2.9.6 3.9 1.5l-1.4 1.7c-.8-.7-1.5-1.1-2.5-1.1-1.7 0-2.8 1.4-2.8 3.1s1.1 3 2.8 3c1.1 0 1.7-.5 2.5-1.1l1.4 1.4c-1.1 1.1-2.1 1.7-4 1.7-2.9 0-5-2.3-5-5.1z"/><path fill="#e6e6e6" d="m226.6 154.7h3.4l4.2 13.2 4.4-13.3h2.6l4.4 13.3 4.2-13.2h3.3l-6.2 18h-2.7l-4.4-12.8-4.4 12.8h-2.7z"/><path fill="#e6e6e6" d="m252.8 165.8c0-3.9 3.1-7 7.2-7 4.2 0 7.2 3.2 7.2 7s-3.1 7-7.3 7c-4 0-7.1-3.1-7.1-7zm11.3 0c0-2.3-1.7-4.3-4.2-4.3s-4.1 2-4.1 4.3 1.7 4.3 4.1 4.3c2.7.1 4.2-1.9 4.2-4.3z"/><path fill="#e6e6e6" d="m269.5 159.1h3.1v3c.8-2 2.4-3.4 4.8-3.3v3.2h-.2c-2.7 0-4.6 1.7-4.6 5.4v5.1h-3.1z"/><path fill="#e6e6e6" d="m279.1 153.9h3.1v11.1l5.6-6h3.8l-5.4 5.5 5.5 8h-3.5l-4.1-5.8-1.9 2v3.9h-3.1z"/><path fill="#e6e6e6" d="m291.7 165.8c0-3.9 3.1-7 7.2-7 4.2 0 7.2 3.2 7.2 7s-3.1 7-7.3 7c-4 0-7.1-3.1-7.1-7zm11.3 0c0-2.3-1.7-4.3-4.2-4.3s-4.1 2-4.1 4.3 1.7 4.3 4.1 4.3c2.6.1 4.2-1.9 4.2-4.3z"/><path fill="#e6e6e6" d="m308.2 167.6v-8.6h3.1v7.6c0 2.1 1.1 3.3 2.9 3.3s3-1.3 3-3.3v-7.6h3.1v13.4h-3.1v-2.1c-.8 1.3-2.1 2.3-4.2 2.3-3.1.2-4.8-1.8-4.8-5z"/><path fill="#e6e6e6" d="m323.9 168.8v-7.1h-1.7v-2.6h1.7v-3.7h3.1v3.7h3.6v2.6h-3.6v6.6c0 1.2.6 1.7 1.7 1.7.7 0 1.3-.2 1.9-.5v2.5c-.8.5-1.7.7-2.8.7-2.3 0-3.9-.9-3.9-3.9z"/><path fill="#e6e6e6" d="m333.2 154.7h3.2v15h9.4v2.9h-12.5v-17.9z"/><path fill="#e6e6e6" d="m356 172.5v-1.7c-.9 1.1-2.3 2-4.4 2-2.6 0-4.8-1.4-4.8-4.2 0-3 2.3-4.4 5.4-4.4 1.7 0 2.6.2 3.7.5v-.2c0-1.9-1.2-2.9-3.3-2.9-1.5 0-2.6.3-3.9.8l-.8-2.5c1.5-.7 2.9-1.1 5.1-1.1 4 0 5.9 2.1 5.9 5.7v8zm.1-5.6c-.8-.3-1.9-.5-3.1-.5-2 0-3.1.8-3.1 2.1s1.1 2 2.6 2c2 0 3.5-1.1 3.5-2.9z"/><path fill="#e6e6e6" d="m364.9 170.5v2.1h-3.1v-18.7h3.1v7.4c1-1.4 2.4-2.5 4.5-2.5 3.2 0 6.3 2.5 6.3 7s-3.1 7-6.3 7c-2.1 0-3.5-1.1-4.5-2.3zm7.7-4.7c0-2.6-1.7-4.3-3.9-4.3s-3.9 1.7-3.9 4.4c0 2.6 1.8 4.3 3.9 4.3s3.9-1.7 3.9-4.4z"/><path fill="#e6e6e6" d="m376.9 170.8 1.4-2.1c1.4 1.1 3 1.7 4.4 1.7s2.1-.5 2.1-1.5-1.3-1.4-2.8-1.8c-.1 0-.2-.1-.2-.1-2-.6-4.2-1.4-4.2-4s2.1-4.1 4.8-4.1c1.7 0 3.5.6 5 1.5l-1.2 2.2c-1.3-.8-2.6-1.3-3.8-1.3s-1.9.5-1.9 1.4 1.3 1.4 2.8 1.8c.1 0 .2.1.2.1 2 .6 4.2 1.5 4.2 4 0 2.9-2.2 4.2-5 4.2-1.9 0-4-.7-5.8-2z"/><path fill="#e6e6e6" d="m505.6 163.6c0-5.1 4.1-9.2 9.3-9.2s9.2 4.2 9.2 9.2-4.1 9.2-9.3 9.2-9.2-4.1-9.2-9.2zm17.4-.1c0-4.5-3.5-8.2-8.2-8.2s-8.2 3.7-8.2 8.3c0 4.5 3.5 8.2 8.2 8.2s8.2-3.7 8.2-8.3zm-13.1 0c0-2.8 2.1-5.1 5.1-5.1 1.9 0 2.9.6 3.9 1.5l-1.4 1.7c-.8-.7-1.5-1.1-2.5-1.1-1.7 0-2.8 1.4-2.8 3.1s1.1 3 2.8 3c1.1 0 1.7-.5 2.5-1.1l1.4 1.4c-1.1 1.1-2.1 1.7-4 1.7-2.9 0-5-2.3-5-5.1z"/><path fill="#e6e6e6" d="m525.4 154.7h3.4l4.2 13.2 4.4-13.3h2.6l4.4 13.3 4.2-13.2h3.3l-6.2 18h-2.7l-4.4-12.8-4.4 12.8h-2.7z"/><path fill="#e6e6e6" d="m551.7 165.8c0-3.9 3.1-7 7.2-7 4.2 0 7.2 3.2 7.2 7s-3.1 7-7.3 7c-4.1 0-7.1-3.1-7.1-7zm11.2 0c0-2.3-1.7-4.3-4.2-4.3s-4.1 2-4.1 4.3 1.7 4.3 4.1 4.3c2.7.1 4.2-1.9 4.2-4.3z"/><path fill="#e6e6e6" d="m568.3 159.1h3.1v3c.8-2 2.4-3.4 4.8-3.3v3.2h-.2c-2.7 0-4.6 1.7-4.6 5.4v5.1h-3.1z"/><path fill="#e6e6e6" d="m577.9 153.9h3.1v11.1l5.6-6h3.8l-5.4 5.5 5.5 8h-3.5l-4.1-5.8-1.9 2v3.9h-3.1z"/><path fill="#e6e6e6" d="m590.6 165.8c0-3.9 3.1-7 7.2-7 4.2 0 7.2 3.2 7.2 7s-3.1 7-7.3 7c-4.1 0-7.1-3.1-7.1-7zm11.2 0c0-2.3-1.7-4.3-4.2-4.3s-4.1 2-4.1 4.3 1.7 4.3 4.1 4.3c2.6.1 4.2-1.9 4.2-4.3z"/><path fill="#e6e6e6" d="m607 167.6v-8.6h3.1v7.6c0 2.1 1.1 3.3 2.9 3.3s3-1.3 3-3.3v-7.6h3.1v13.4h-3.1v-2.1c-.8 1.3-2.1 2.3-4.2 2.3-3 .2-4.8-1.8-4.8-5z"/><path fill="#e6e6e6" d="m622.7 168.8v-7.1h-1.7v-2.6h1.7v-3.7h3.1v3.7h3.6v2.6h-3.6v6.6c0 1.2.6 1.7 1.7 1.7.7 0 1.3-.2 1.9-.5v2.5c-.8.5-1.7.7-2.8.7-2.3 0-3.9-.9-3.9-3.9z"/><path fill="#e6e6e6" d="m632 154.7h3.2v15h9.4v2.9h-12.6z"/><path fill="#e6e6e6" d="m654.8 172.5v-1.7c-.9 1.1-2.3 2-4.4 2-2.6 0-4.8-1.4-4.8-4.2 0-3 2.3-4.4 5.4-4.4 1.7 0 2.6.2 3.7.5v-.2c0-1.9-1.2-2.9-3.3-2.9-1.5 0-2.6.3-3.9.8l-.8-2.5c1.5-.7 2.9-1.1 5.1-1.1 4 0 5.9 2.1 5.9 5.7v8zm.1-5.6c-.8-.3-1.9-.5-3.1-.5-2 0-3.1.8-3.1 2.1s1.1 2 2.6 2c2 0 3.5-1.1 3.5-2.9z"/><path fill="#e6e6e6" d="m663.7 170.5v2.1h-3.1v-18.7h3.1v7.4c1-1.4 2.4-2.5 4.5-2.5 3.2 0 6.3 2.5 6.3 7s-3.1 7-6.3 7c-2.1 0-3.5-1.1-4.5-2.3zm7.8-4.7c0-2.6-1.7-4.3-3.9-4.3-2.1 0-3.9 1.7-3.9 4.4 0 2.6 1.8 4.3 3.9 4.3s3.9-1.7 3.9-4.4z"/><path fill="#e6e6e6" d="m675.8 170.8 1.4-2.1c1.4 1.1 3 1.7 4.4 1.7s2.1-.5 2.1-1.5-1.3-1.4-2.8-1.8c-.1 0-.2-.1-.2-.1-2-.6-4.2-1.4-4.2-4s2.1-4.1 4.8-4.1c1.7 0 3.5.6 5 1.5l-1.2 2.2c-1.3-.8-2.6-1.3-3.8-1.3s-1.9.5-1.9 1.4 1.3 1.4 2.8 1.8c.1 0 .2.1.2.1 2 .6 4.2 1.5 4.2 4 0 2.9-2.2 4.2-5 4.2-2 0-4.1-.7-5.8-2z"/><path fill="#e6e6e6" d="m61 298.6c0-5.1 4.1-9.2 9.3-9.2s9.2 4.2 9.2 9.2-4.1 9.2-9.3 9.2c-5.1 0-9.2-4.2-9.2-9.2zm17.4-.1c0-4.5-3.5-8.2-8.2-8.2s-8.2 3.7-8.2 8.3c0 4.5 3.5 8.2 8.2 8.2s8.2-3.7 8.2-8.3zm-13.1-.1c0-2.8 2.1-5.1 5.1-5.1 1.9 0 2.9.6 3.9 1.5l-1.4 1.7c-.8-.7-1.5-1.1-2.5-1.1-1.7 0-2.8 1.4-2.8 3.1s1.1 3 2.8 3c1.1 0 1.7-.5 2.5-1.1l1.4 1.4c-1.1 1.1-2.1 1.7-4 1.7-2.8.1-5-2.2-5-5.1z"/><path fill="#e6e6e6" d="m80.9 289.7h3.4l4.2 13.2 4.4-13.3h2.6l4.4 13.3 4.2-13.2h3.3l-6.2 18h-2.7l-4.4-12.8-4.4 12.8h-2.7z"/><path fill="#e6e6e6" d="m107.1 300.8c0-3.9 3.1-7 7.2-7s7.2 3.2 7.2 7-3.1 7-7.3 7c-4 0-7.1-3.1-7.1-7zm11.3 0c0-2.3-1.7-4.3-4.2-4.3s-4.1 2-4.1 4.3 1.7 4.3 4.1 4.3c2.6.1 4.2-1.9 4.2-4.3z"/><path fill="#e6e6e6" d="m123.7 294h3.1v3c.8-2 2.4-3.4 4.8-3.3v3.2h-.2c-2.7 0-4.6 1.7-4.6 5.4v5.1h-3.1z"/><path fill="#e6e6e6" d="m133.4 288.9h3.1v11.1l5.6-6h3.8l-5.4 5.5 5.5 8h-3.5l-4.1-5.8-1.9 1.9v3.9h-3.1z"/><path fill="#e6e6e6" d="m146 300.8c0-3.9 3.1-7 7.2-7s7.2 3.2 7.2 7-3.1 7-7.3 7c-4.1 0-7.1-3.1-7.1-7zm11.2 0c0-2.3-1.7-4.3-4.2-4.3s-4.1 2-4.1 4.3 1.7 4.3 4.1 4.3c2.6.1 4.2-1.9 4.2-4.3z"/><path fill="#e6e6e6" d="m162.4 302.6v-8.6h3.1v7.6c0 2.1 1.1 3.3 2.9 3.3s3-1.3 3-3.3v-7.6h3.1v13.4h-3.1v-2.1c-.8 1.3-2.1 2.3-4.2 2.3-3 .2-4.8-1.8-4.8-5z"/><path fill="#e6e6e6" d="m178.1 303.8v-7.1h-1.7v-2.7h1.7v-3.7h3.1v3.7h3.6v2.6h-3.6v6.6c0 1.2.6 1.7 1.7 1.7.7 0 1.3-.2 1.9-.5v2.5c-.8.5-1.7.7-2.8.7-2.3.1-3.9-.9-3.9-3.8z"/><path fill="#e6e6e6" d="m187.4 289.7h3.2v15h9.4v2.9h-12.5v-17.9z"/><path fill="#e6e6e6" d="m210.2 307.5v-1.7c-.9 1.1-2.3 2-4.4 2-2.6 0-4.8-1.4-4.8-4.2 0-3 2.3-4.4 5.4-4.4 1.7 0 2.6.2 3.7.5v-.2c0-1.9-1.2-2.9-3.3-2.9-1.5 0-2.6.3-3.9.8l-.8-2.5c1.5-.7 2.9-1.1 5.1-1.1 4 0 5.9 2.1 5.9 5.7v8zm.1-5.6c-.8-.3-1.9-.5-3.1-.5-2 0-3.1.8-3.1 2.1s1.1 2 2.6 2c2 0 3.5-1.1 3.5-2.9z"/><path fill="#e6e6e6" d="m219.2 305.5v2.1h-3.1v-18.7h3.1v7.4c1-1.4 2.4-2.5 4.5-2.5 3.2 0 6.3 2.5 6.3 7s-3.1 7-6.3 7c-2.2 0-3.6-1.1-4.5-2.3zm7.7-4.7c0-2.6-1.7-4.3-3.9-4.3s-3.9 1.7-3.9 4.4c0 2.6 1.8 4.3 3.9 4.3s3.9-1.7 3.9-4.4z"/><path fill="#e6e6e6" d="m231.2 305.8 1.4-2.1c1.4 1.1 3 1.7 4.4 1.7s2.1-.5 2.1-1.5-1.3-1.4-2.8-1.8c-.1 0-.2-.1-.2-.1-2-.6-4.2-1.4-4.2-4s2.1-4.1 4.8-4.1c1.7 0 3.5.6 5 1.5l-1.2 2.2c-1.3-.8-2.6-1.3-3.8-1.3s-1.9.5-1.9 1.4 1.3 1.4 2.8 1.8c.1 0 .2.1.2.1 2 .6 4.2 1.5 4.2 4 0 2.9-2.2 4.2-5 4.2-2 0-4.1-.7-5.8-2z"/><path fill="#e6e6e6" d="m360.6 298.6c0-5.1 4.1-9.2 9.3-9.2s9.2 4.2 9.2 9.2-4.1 9.2-9.3 9.2-9.2-4.2-9.2-9.2zm17.4-.1c0-4.5-3.5-8.2-8.2-8.2s-8.2 3.7-8.2 8.3c0 4.5 3.5 8.2 8.2 8.2s8.2-3.7 8.2-8.3zm-13.1-.1c0-2.8 2.1-5.1 5.1-5.1 1.9 0 2.9.6 3.9 1.5l-1.4 1.7c-.8-.7-1.5-1.1-2.5-1.1-1.7 0-2.8 1.4-2.8 3.1s1.1 3 2.8 3c1.1 0 1.7-.5 2.5-1.1l1.4 1.4c-1.1 1.1-2.1 1.7-4 1.7-2.8.1-5-2.2-5-5.1z"/><path fill="#e6e6e6" d="m380.5 289.7h3.4l4.2 13.2 4.4-13.3h2.6l4.4 13.3 4.2-13.2h3.3l-6.2 18h-2.7l-4.4-12.8-4.4 12.8h-2.7z"/><path fill="#e6e6e6" d="m406.7 300.8c0-3.9 3.1-7 7.2-7 4.2 0 7.2 3.2 7.2 7s-3.1 7-7.3 7c-4.1 0-7.1-3.1-7.1-7zm11.3 0c0-2.3-1.7-4.3-4.2-4.3s-4.1 2-4.1 4.3 1.7 4.3 4.1 4.3c2.7.1 4.2-1.9 4.2-4.3z"/><path fill="#e6e6e6" d="m423.3 294h3.1v3c.8-2 2.4-3.4 4.8-3.3v3.2h-.2c-2.7 0-4.6 1.7-4.6 5.4v5.1h-3.1z"/><path fill="#e6e6e6" d="m433 288.9h3.1v11.1l5.6-6h3.8l-5.4 5.5 5.5 8h-3.5l-4.1-5.8-1.9 2v3.9h-3.1z"/><path fill="#e6e6e6" d="m445.6 300.8c0-3.9 3.1-7 7.2-7 4.2 0 7.2 3.2 7.2 7s-3.1 7-7.3 7c-4.1 0-7.1-3.1-7.1-7zm11.3 0c0-2.3-1.7-4.3-4.2-4.3s-4.1 2-4.1 4.3 1.7 4.3 4.1 4.3c2.6.1 4.2-1.9 4.2-4.3z"/><path fill="#e6e6e6" d="m462.1 302.6v-8.6h3.1v7.6c0 2.1 1.1 3.3 2.9 3.3s3-1.3 3-3.3v-7.6h3.1v13.4h-3.1v-2.1c-.8 1.3-2.1 2.3-4.2 2.3-3.1.2-4.8-1.8-4.8-5z"/><path fill="#e6e6e6" d="m477.8 303.8v-7.1h-1.8v-2.7h1.7v-3.7h3.1v3.7h3.6v2.6h-3.6v6.6c0 1.2.6 1.7 1.7 1.7.7 0 1.3-.2 1.9-.5v2.5c-.8.5-1.7.7-2.8.7-2.2.1-3.8-.9-3.8-3.8z"/><path fill="#e6e6e6" d="m487.1 289.7h3.2v15h9.4v2.9h-12.5v-17.9z"/><path fill="#e6e6e6" d="m509.9 307.5v-1.7c-.9 1.1-2.3 2-4.4 2-2.6 0-4.8-1.4-4.8-4.2 0-3 2.3-4.4 5.4-4.4 1.7 0 2.6.2 3.7.5v-.2c0-1.9-1.2-2.9-3.3-2.9-1.5 0-2.6.3-3.9.8l-.8-2.5c1.5-.7 2.9-1.1 5.1-1.1 4 0 5.9 2.1 5.9 5.7v8zm.1-5.6c-.8-.3-1.9-.5-3.1-.5-2 0-3.1.8-3.1 2.1s1.1 2 2.6 2c2 0 3.5-1.1 3.5-2.9z"/><path fill="#e6e6e6" d="m518.8 305.5v2.1h-3.1v-18.7h3.1v7.4c1-1.4 2.4-2.5 4.5-2.5 3.2 0 6.3 2.5 6.3 7s-3.1 7-6.3 7c-2.2 0-3.5-1.1-4.5-2.3zm7.7-4.7c0-2.6-1.7-4.3-3.9-4.3s-3.9 1.7-3.9 4.4c0 2.6 1.8 4.3 3.9 4.3s3.9-1.7 3.9-4.4z"/><path fill="#e6e6e6" d="m530.8 305.8 1.4-2.1c1.4 1.1 3 1.7 4.4 1.7s2.1-.5 2.1-1.5-1.3-1.4-2.8-1.8c-.1 0-.2-.1-.2-.1-2-.6-4.2-1.4-4.2-4s2.1-4.1 4.8-4.1c1.7 0 3.5.6 5 1.5l-1.2 2.2c-1.3-.8-2.6-1.3-3.8-1.3s-1.9.5-1.9 1.4 1.3 1.4 2.8 1.8c.1 0 .2.1.2.1 2 .6 4.2 1.5 4.2 4 0 2.9-2.2 4.2-5 4.2-1.9 0-4.1-.7-5.8-2z"/><path fill="#e6e6e6" d="m659.5 298.6c0-5.1 4.1-9.2 9.3-9.2s9.2 4.2 9.2 9.2-4.1 9.2-9.3 9.2-9.2-4.2-9.2-9.2zm17.3-.1c0-4.5-3.5-8.2-8.2-8.2s-8.2 3.7-8.2 8.3c0 4.5 3.5 8.2 8.2 8.2 4.8 0 8.2-3.7 8.2-8.3zm-13-.1c0-2.8 2.1-5.1 5.1-5.1 1.9 0 2.9.6 3.9 1.5l-1.4 1.7c-.8-.7-1.5-1.1-2.5-1.1-1.7 0-2.8 1.4-2.8 3.1s1.1 3 2.8 3c1.1 0 1.7-.5 2.5-1.1l1.4 1.4c-1.1 1.1-2.1 1.7-4 1.7-2.9.1-5-2.2-5-5.1z"/><path fill="#e6e6e6" d="m679.3 289.7h3.4l4.2 13.2 4.4-13.3h2.6l4.4 13.3 4.2-13.2h3.3l-6.2 18h-2.6l-4.4-12.8-4.4 12.8h-2.7z"/><path fill="#e6e6e6" d="m705.5 300.8c0-3.9 3.1-7 7.2-7 4.2 0 7.2 3.2 7.2 7s-3.1 7-7.3 7c-4 0-7.1-3.1-7.1-7zm11.3 0c0-2.3-1.7-4.3-4.2-4.3s-4.1 2-4.1 4.3 1.7 4.3 4.1 4.3c2.7.1 4.2-1.9 4.2-4.3z"/><path fill="#e6e6e6" d="m722.1 294h3.1v3c.8-2 2.4-3.4 4.8-3.3v3.2h-.2c-2.7 0-4.6 1.7-4.6 5.4v5.1h-3.1z"/><path fill="#e6e6e6" d="m731.8 288.9h3.1v11.1l5.6-6h3.8l-5.4 5.5 5.5 8h-3.5l-4.1-5.8-1.9 2v3.9h-3.1z"/><path fill="#e6e6e6" d="m744.4 300.8c0-3.9 3.1-7 7.2-7 4.2 0 7.2 3.2 7.2 7s-3.1 7-7.3 7c-4.1 0-7.1-3.1-7.1-7zm11.3 0c0-2.3-1.7-4.3-4.2-4.3s-4.1 2-4.1 4.3 1.7 4.3 4.1 4.3c2.6.1 4.2-1.9 4.2-4.3z"/><path fill="#e6e6e6" d="m760.9 302.6v-8.6h3.1v7.6c0 2.1 1.1 3.3 2.9 3.3s3-1.3 3-3.3v-7.6h3.1v13.4h-3.1v-2.1c-.8 1.3-2.1 2.3-4.2 2.3-3.1.2-4.8-1.8-4.8-5z"/><path fill="#e6e6e6" d="m776.6 303.8v-7.1h-1.7v-2.7h1.7v-3.7h3.1v3.7h3.6v2.6h-3.6v6.6c0 1.2.6 1.7 1.7 1.7.7 0 1.3-.2 1.9-.5v2.5c-.8.5-1.7.7-2.8.7-2.3.1-3.9-.9-3.9-3.8z"/><path fill="#e6e6e6" d="m785.9 289.7h3.2v15h9.4v2.9h-12.5v-17.9z"/><path fill="#e6e6e6" d="m808.7 307.5v-1.7c-.9 1.1-2.3 2-4.4 2-2.6 0-4.8-1.4-4.8-4.2 0-3 2.3-4.4 5.4-4.4 1.7 0 2.6.2 3.7.5v-.2c0-1.9-1.2-2.9-3.3-2.9-1.5 0-2.6.3-3.9.8l-.8-2.5c1.5-.7 2.9-1.1 5.1-1.1 4 0 5.9 2.1 5.9 5.7v8zm.1-5.6c-.8-.3-1.9-.5-3.1-.5-2 0-3.1.8-3.1 2.1s1.1 2 2.6 2c2 0 3.5-1.1 3.5-2.9z"/><path fill="#e6e6e6" d="m817.6 305.5v2.1h-3.1v-18.7h3.1v7.4c1-1.4 2.4-2.5 4.5-2.5 3.2 0 6.3 2.5 6.3 7s-3.1 7-6.3 7c-2.1 0-3.5-1.1-4.5-2.3zm7.7-4.7c0-2.6-1.7-4.3-3.9-4.3-2.1 0-3.9 1.7-3.9 4.4 0 2.6 1.8 4.3 3.9 4.3 2.2 0 3.9-1.7 3.9-4.4z"/><path fill="#e6e6e6" d="m829.6 305.8 1.4-2.1c1.4 1.1 3 1.7 4.4 1.7s2.1-.5 2.1-1.5-1.3-1.4-2.8-1.8c-.1 0-.2-.1-.2-.1-2-.6-4.2-1.4-4.2-4s2.1-4.1 4.8-4.1c1.7 0 3.5.6 5 1.5l-1.2 2.2c-1.3-.8-2.6-1.3-3.8-1.3s-1.9.5-1.9 1.4 1.3 1.4 2.8 1.8c.1 0 .2.1.2.1 2 .6 4.2 1.5 4.2 4 0 2.9-2.2 4.2-5 4.2-1.9 0-4-.7-5.8-2z"/><path fill="#e6e6e6" d="m206.3 434.2c0-5.1 4.1-9.2 9.3-9.2s9.2 4.2 9.2 9.2-4.1 9.2-9.3 9.2-9.2-4.1-9.2-9.2zm17.4-.1c0-4.5-3.5-8.2-8.2-8.2s-8.2 3.7-8.2 8.3c0 4.5 3.5 8.2 8.2 8.2s8.2-3.7 8.2-8.3zm-13.1-.1c0-2.8 2.1-5.1 5.1-5.1 1.9 0 2.9.6 3.9 1.5l-1.4 1.7c-.8-.7-1.5-1.1-2.5-1.1-1.7 0-2.8 1.4-2.8 3.1s1.1 3 2.8 3c1.1 0 1.7-.5 2.5-1.1l1.4 1.4c-1.1 1.1-2.1 1.7-4 1.7-2.9.1-5-2.2-5-5.1z"/><path fill="#e6e6e6" d="m226.1 425.3h3.4l4.2 13.2 4.4-13.3h2.6l4.4 13.3 4.2-13.2h3.3l-6.2 18h-2.7l-4.4-12.8-4.4 12.8h-2.7z"/><path fill="#e6e6e6" d="m252.4 436.4c0-3.9 3.1-7 7.2-7 4.2 0 7.2 3.2 7.2 7s-3.1 7-7.3 7c-4.1 0-7.1-3.1-7.1-7zm11.2 0c0-2.3-1.7-4.3-4.2-4.3s-4.1 2-4.1 4.3 1.7 4.3 4.1 4.3c2.7.1 4.2-1.9 4.2-4.3z"/><path fill="#e6e6e6" d="m269 429.7h3.1v3c.8-2 2.4-3.4 4.8-3.3v3.2h-.2c-2.7 0-4.6 1.7-4.6 5.4v5.1h-3.1z"/><path fill="#e6e6e6" d="m278.6 424.5h3.1v11.1l5.6-6h3.8l-5.4 5.5 5.5 8h-3.5l-4.1-5.8-1.9 2v3.9h-3.1z"/><path fill="#e6e6e6" d="m291.3 436.4c0-3.9 3.1-7 7.2-7 4.2 0 7.2 3.2 7.2 7s-3.1 7-7.3 7c-4.1 0-7.1-3.1-7.1-7zm11.2 0c0-2.3-1.7-4.3-4.2-4.3s-4.1 2-4.1 4.3 1.7 4.3 4.1 4.3c2.6.1 4.2-1.9 4.2-4.3z"/><path fill="#e6e6e6" d="m307.7 438.2v-8.6h3.1v7.6c0 2.1 1.1 3.3 2.9 3.3s3-1.3 3-3.3v-7.6h3.1v13.4h-3.1v-2.1c-.8 1.3-2.1 2.3-4.2 2.3-3 .2-4.8-1.8-4.8-5z"/><path fill="#e6e6e6" d="m323.4 439.4v-7.1h-1.7v-2.6h1.7v-3.7h3.1v3.7h3.6v2.6h-3.6v6.6c0 1.2.6 1.7 1.7 1.7.7 0 1.3-.2 1.9-.5v2.5c-.8.5-1.7.7-2.8.7-2.3 0-3.9-.9-3.9-3.9z"/><path fill="#e6e6e6" d="m332.7 425.3h3.2v15h9.4v2.9h-12.5v-17.9z"/><path fill="#e6e6e6" d="m355.5 443.1v-1.7c-.9 1.1-2.3 2-4.4 2-2.6 0-4.8-1.4-4.8-4.2 0-3 2.3-4.4 5.4-4.4 1.7 0 2.6.2 3.7.5v-.2c0-1.9-1.2-2.9-3.3-2.9-1.5 0-2.6.3-3.9.8l-.8-2.5c1.5-.7 2.9-1.1 5.1-1.1 4 0 5.9 2.1 5.9 5.7v8zm.1-5.6c-.8-.3-1.9-.5-3.1-.5-2 0-3.1.8-3.1 2.1s1.1 2 2.6 2c2 0 3.5-1.1 3.5-2.9z"/><path fill="#e6e6e6" d="m364.4 441.1v2.1h-3.1v-18.7h3.1v7.4c1-1.4 2.4-2.5 4.5-2.5 3.2 0 6.3 2.5 6.3 7s-3.1 7-6.3 7c-2.1 0-3.5-1.1-4.5-2.3zm7.7-4.7c0-2.6-1.7-4.3-3.9-4.3-2.1 0-3.9 1.7-3.9 4.4 0 2.6 1.8 4.3 3.9 4.3 2.2 0 3.9-1.7 3.9-4.4z"/><path fill="#e6e6e6" d="m376.5 441.4 1.4-2.1c1.4 1.1 3 1.7 4.4 1.7s2.1-.5 2.1-1.5-1.3-1.4-2.8-1.8c-.1 0-.2-.1-.2-.1-2-.6-4.2-1.4-4.2-4s2.1-4.1 4.8-4.1c1.7 0 3.5.6 5 1.5l-1.2 2.2c-1.3-.8-2.6-1.3-3.8-1.3s-1.9.5-1.9 1.4 1.3 1.4 2.8 1.8c.1 0 .2.1.2.1 2 .6 4.2 1.5 4.2 4 0 2.9-2.2 4.2-5 4.2-2 0-4.1-.7-5.8-2z"/><path fill="#e6e6e6" d="m505.1 434.2c0-5.1 4.1-9.2 9.3-9.2s9.2 4.2 9.2 9.2-4.1 9.2-9.3 9.2-9.2-4.1-9.2-9.2zm17.4-.1c0-4.5-3.5-8.2-8.2-8.2s-8.2 3.7-8.2 8.3c0 4.5 3.5 8.2 8.2 8.2s8.2-3.7 8.2-8.3zm-13.1-.1c0-2.8 2.1-5.1 5.1-5.1 1.9 0 2.9.6 3.9 1.5l-1.4 1.7c-.8-.7-1.5-1.1-2.5-1.1-1.7 0-2.8 1.4-2.8 3.1s1.1 3 2.8 3c1.1 0 1.7-.5 2.5-1.1l1.4 1.4c-1.1 1.1-2.1 1.7-4 1.7-2.9.1-5-2.2-5-5.1z"/><path fill="#e6e6e6" d="m525 425.3h3.4l4.2 13.2 4.4-13.3h2.6l4.4 13.3 4.2-13.2h3.3l-6.2 18h-2.7l-4.4-12.8-4.4 12.8h-2.7z"/><path fill="#e6e6e6" d="m551.2 436.4c0-3.9 3.1-7 7.2-7 4.2 0 7.2 3.2 7.2 7s-3.1 7-7.3 7c-4.1 0-7.1-3.1-7.1-7zm11.2 0c0-2.3-1.7-4.3-4.2-4.3s-4.1 2-4.1 4.3 1.7 4.3 4.1 4.3c2.7.1 4.2-1.9 4.2-4.3z"/><path fill="#e6e6e6" d="m567.8 429.7h3.1v3c.8-2 2.4-3.4 4.8-3.3v3.2h-.2c-2.7 0-4.6 1.7-4.6 5.4v5.1h-3.1z"/><path fill="#e6e6e6" d="m577.5 424.5h3.1v11.1l5.6-6h3.8l-5.4 5.5 5.5 8h-3.5l-4.1-5.8-1.9 2v3.9h-3.1z"/><path fill="#e6e6e6" d="m590.1 436.4c0-3.9 3.1-7 7.2-7 4.2 0 7.2 3.2 7.2 7s-3.1 7-7.3 7c-4.1 0-7.1-3.1-7.1-7zm11.2 0c0-2.3-1.7-4.3-4.2-4.3s-4.1 2-4.1 4.3 1.7 4.3 4.1 4.3c2.6.1 4.2-1.9 4.2-4.3z"/><path fill="#e6e6e6" d="m606.5 438.2v-8.6h3.1v7.6c0 2.1 1.1 3.3 2.9 3.3s3-1.3 3-3.3v-7.6h3.1v13.4h-3.1v-2.1c-.8 1.3-2.1 2.3-4.2 2.3-3 .2-4.8-1.8-4.8-5z"/><path fill="#e6e6e6" d="m622.2 439.4v-7.1h-1.7v-2.6h1.7v-3.7h3.1v3.7h3.6v2.6h-3.6v6.6c0 1.2.6 1.7 1.7 1.7.7 0 1.3-.2 1.9-.5v2.5c-.8.5-1.7.7-2.8.7-2.3 0-3.9-.9-3.9-3.9z"/><path fill="#e6e6e6" d="m631.5 425.3h3.2v15h9.4v2.9h-12.5v-17.9z"/><path fill="#e6e6e6" d="m654.3 443.1v-1.7c-.9 1.1-2.3 2-4.4 2-2.6 0-4.8-1.4-4.8-4.2 0-3 2.3-4.4 5.4-4.4 1.7 0 2.6.2 3.7.5v-.2c0-1.9-1.2-2.9-3.3-2.9-1.5 0-2.6.3-3.9.8l-.8-2.5c1.5-.7 2.9-1.1 5.1-1.1 4 0 5.9 2.1 5.9 5.7v8zm.1-5.6c-.8-.3-1.9-.5-3.1-.5-2 0-3.1.8-3.1 2.1s1.1 2 2.6 2c2 0 3.5-1.1 3.5-2.9z"/><path fill="#e6e6e6" d="m663.3 441.1v2.1h-3.1v-18.7h3.1v7.4c1-1.4 2.4-2.5 4.5-2.5 3.2 0 6.3 2.5 6.3 7s-3.1 7-6.3 7c-2.2 0-3.6-1.1-4.5-2.3zm7.7-4.7c0-2.6-1.7-4.3-3.9-4.3s-3.9 1.7-3.9 4.4c0 2.6 1.8 4.3 3.9 4.3s3.9-1.7 3.9-4.4z"/><path fill="#e6e6e6" d="m675.3 441.4 1.4-2.1c1.4 1.1 3 1.7 4.4 1.7s2.1-.5 2.1-1.5-1.3-1.4-2.8-1.8c-.1 0-.2-.1-.2-.1-2-.6-4.2-1.4-4.2-4s2.1-4.1 4.8-4.1c1.7 0 3.5.6 5 1.5l-1.2 2.2c-1.3-.8-2.6-1.3-3.8-1.3s-1.9.5-1.9 1.4 1.3 1.4 2.8 1.8c.1 0 .2.1.2.1 2 .6 4.2 1.5 4.2 4 0 2.9-2.2 4.2-5 4.2-2 0-4.1-.7-5.8-2z"/></g>
</svg>
