<?xml version="1.0" encoding="utf-8"?>
<svg version="1.2" baseProfile="tiny" id="Layer_1" xmlns="http://www.w3.org/2000/svg" xmlns:xlink="http://www.w3.org/1999/xlink"
	 x="0px" y="0px" viewBox="0 0 900 600" xml:space="preserve">
<g>
	<path d="M448.44,354.89c-4.42-5.55-14.46-0.02-20.02-1.26c-10.7-40.49-33.2-51.06-59.93-44.22c-33.19,8.51-32.64,54.04-33.29,55.07
		c-15.34,1.68-15.31,2.05-18.24,1.76c-0.1-0.01,0.37,0.85-3.68-8.61c0.73-3.43,2.47-6.54,0.32-9.6c-0.75-1.07-2.59-15.12-1.15-23.19
		c0.39-2.2,2.84-19.24,0.54-24.38c-0.93-2.08,3.15-12.43,0.54-15.83c-0.67-0.87-1.01-1.71-1.11-2.76
		c-0.95-9.65-3.16-10.51-2.84-14.74c0.37-4.87-1.2-6.62,0.1-11.24c2.74-9.74,2.3-11.45,0.88-14.68c-2.78-6.3,4.44-11.48,5.49-22.19
		c0.81-8.25,1.91-12.81-1.21-21.32c-0.89-2.44-0.23-4.58-0.34-6.83c6.91-0.84,3.44-4.97,3.8-12.07c0.17-3.31,1.74-3.42,4.77-5.17
		c-0.59-2.15,0.68-4.26-0.36-6.2c-1.2-2.22,0.72-4.23,0.26-6.37c-0.15-0.71,1.54-3.33,4.75-3.66c1.18-0.12,3.77-0.62,4.24-2.11
		c0.02-0.05-1.41-1.13-1.38-1.09c-0.21-0.01-0.28,0.73-0.43,0.16c-0.03-0.1,0.31-0.27,0.42-0.19c-1.36-2.49-1.15-1.6-0.61-3.61
		c-1.37-1.35-2.07-3.17-3.86-3.52c-0.39-0.91-0.68-1.61-0.98-2.32c-12.31-0.86-2.12-0.97,0.29-5.58c-1.9,0.58-3.39,1.03-4.66,1.42
		c-8.25-3.82-15.98-8.16-24.57-9.61c-5.01,1.45-5.18,1.61-6.12,1.29c-4.63-1.58-5.47,0.39-6.45-0.16c-0.59-0.33-1.06-0.86-1.84-0.39
		c-1.07,0.64-3.24-2.44-3.44,1.42c-1.34,0.18-2.7-1.87-3.93,0.07c0.35,0.84-0.45,0.1,3.01,2.81c-4.17,5.09-8.65,5.69-8.95,9.79
		c-0.34,4.61-0.41,3.94-3.69,9.18c-11.17-1.96-15.61-3.08-22.77-3.03c-11.61,0.07-26.53,0.68-26.64,0.71
		c-7.08,2.21-12.34,5.33-14.41,5.05c-4.7-0.64-12.64,2.14-20.1,1.8c-7.99-0.36-15.31,2.07-17.48-0.12
		c-6.52,0.26-7.99,0.05-11.65,0.88c-16.35,3.69-36.5,18.91-38.66,37.97c-0.59,5.21-3.54,6.08-1.59,15.76
		c0.87,4.35,2.34,7.7,2.44,8.2c0.21,1.08-0.6,1.42-0.26,3.09c0.53,2.6,5.75,9.67,8.24,12.52c3.91,4.45,15.38,43.49,15.62,43.68
		c2.31,1.83-0.1,5.27,2.56,4.88c0.63-0.09,0.5-0.06,8.65-2.27c8.44,6.81,25.17,19.89,19.92,29.35c-3.41,6.14-5.06,12.99-8.1,19.27
		c-6.03,12.5,5.82,49.8,5.69,50.71c-25,3.17-22.77,3.07-23.41,0.1c-8.02-37.47-24.41-62.75-62.1-55.87
		c-27.99,5.13-39.2,37.95-39.4,66.3c-0.01,1.47,0.47,3.51-1.33,3.71c-3.21,0.37-31.39,3.78-34.17,3.47
		c-2.41-0.27-8.22,5.16-4.77,10.24c3.6,5.31,2.29,2.15,41.23-0.83c5.01,24.73,17.14,54.67,42.17,57.59
		c13.53,1.56,24.68,2.06,35.8-6.21c25.41-18.94,23.94-61.88,24.27-63.06c2.73-0.5,21.61-2.7,24.96-2.78
		c5.2,18.27,1.57,6.23,0.04,14.51c-0.02,0.1-2.47,14.52-3.13,16.09c-8.02,18.87,10.2,8.49,18.03,19.29
		c3.72,5.13,20.71,11.35,29.53,8.53c12.78-4.1,13.76-4.73,14.79-6.58c1.47-2.65,1.75-5.01-0.35-7.24c-0.88-0.92-0.86-4.36-6.35-5.68
		c-6.41-1.54-17.85-13.26-20.65-19.91c-2.71-6.45-2.41-8.84-6.64-8.67c-12.74,0.53-11.39,8.46-19.83,4.23
		c-0.12-5.1-2.46-9.67-2.65-14.96c5.62-0.82,11.05-1.38,16.6-1.93c1.09,3.03,1.98,9.9,4.55,11.44c-1.34-9.63-2.85-9.16,4.03-7.12
		c3.87,1.14,4.3,0.07,9.05-7.49c0.1-0.16,0-0.44-0.06-0.71c-0.23-0.94-2.68,1.51-3.78,4.04c-1.07,2.48-4,4.25-4.57,2.27
		c-0.22-0.77,5.54-5.9,2.81-6.59c-3.49,4.25-5.12,8.78-8.95,3.91c-0.08-0.1,3.09-4.37,2.08-7.26c-2.79,1.9-0.84,1.14-3-2.48
		c-1.25-2.08-0.97-3.28-0.97-8.31c-2.12-1.41-1.84-1.22-1.87-1.24c0.16-2.96,1.57-6.88,2.27-8.53c2.91-6.9,1.27-6.58,1.52-11.17
		c0.29-5.48-1.34-5.75-1.19-8.7c0.01-0.19-0.17-0.44-0.31-0.57c-3.92-3.64-1.61-15.78-2.86-21.12c-1.61-6.87-0.41,3.17-1.23,8.76
		c-2.75-11.74-1.89-25.28-1.43-26.86c1.05,4.22,0.95,5.15,2.1,4.77c1.2-2.25-0.95-3.92,0.13-10.15c2.73-15.73-2.33-4.56-0.68-10.89
		c0.82-3.11,1.19-0.74,0.41-5.48c1.21-1.58,1.23-1.58-0.39-3.78c-0.13-0.17,1.68-1.83,1.56-6.86c-0.15-6.61,2.59-1.56-0.78-18.19
		c-0.14-0.7-0.14-1.23,0.55-1.53c1.55,1.43,3.68,2.15,4.9,4.04c1.14,1.78,2.45-3.7-2.03-4.3c-8.59-16.04,2.29-21.66,0.85-33.4
		c-0.26-2.16,2.05-15.8,2.07-15.9c1.97-11.27,6.4-13.34,6.23-14.66c-0.23-1.9-3.83,0.53-5.27,3.11c-0.77,1.37-1.03,2.9-2.32,3.97
		c0,0.74,0.04,1.25-0.68,1.44c0.01,0.06-0.2,1.4-0.32,1.66c-1.56,3.53-1.17,5.81-1.65,12.82c-0.54,7.64-0.96,5.52-0.86,6.66
		c0.2,2.2,1.76,2.7-0.4,7.68c-10.4-1.91-2.28-2.06-7.93-4.52c-1.15-0.5-2.28-1.15-3.48-1.42c-5.56-1.23-8.71-11.38-10.29-10.34
		c-0.1,0.06,0.08-0.23,0.19-0.14c-0.41-2.19-1.6-1.97-2.13-1.97c-0.82-1.55,3.25,4.34-3.6-8.54c-0.36,0.31-0.61,0.52-0.98,0.84
		c-2.71-1.64-5.03-3.68-6.52-6.71c-0.05-0.1-0.22,0.05,2.25-0.61c1.29-0.35-17.1-17.07-7.47-27.55c1.08-0.49,19.68-3.06,19.78-3.08
		c3.97-0.55,7.11,1.09,18.47-0.7c7.41-1.17,10.03,0.39,14.28-1.23c16.13-6.15,22.35-5.4,40.79-5.94c4.03-0.12,2.35,1.39,8.23,1.95
		c16.57,1.58,16.94,1.1,15.63,3.46c-0.61,1.1,0.33,0.62,0.31,2.42c-0.04,3.52-2.46,3.68,1.07,3.81c-1.54,1.36-1.67-0.91-3.47-0.59
		c-9.15,1.62-8.89,1.55-9.95,3.52c-0.35,0.65-3.33,10.06-3.38,10.78c-0.22,3.08,0.7,8.53,1.38,12.62c0.27,1.6-2.71,8.97,1.41,17.7
		c3.57,7.57-1.46,4.84,10.78,7.2c2.46,0.48,26.19-6.91,26.92-14.67c3.48,0.34,4.4,2.1,4.47,1.75c-3.48,18.91-8.28,12.36-8.28,16.86
		c-1.13,1.2-12.55,9.28-29.18,12.22c-4.99,0.88-14.6,0.83-10.02-1.45c3.33-1.65,5.79-4.34,8.52-6.89
		c-2.02-1.19-1.01,3.38-18.99,7.14c-3.02,0.63-5.17,1.78-3.67-0.51c4.25-6.48,5.49-13.25,5.44-13.96c-0.28-4.34,2.51-6,6.52-14.87
		c4.83-10.71,2.29-18.6,1.93-25.98c-0.37-7.7-1.28-6.59-2.64-6.45c-20.92-18.29-65.26,11.07-54.44,27.34
		c1.41-0.24,1.26-0.29,1.28-0.29c-0.18-1.24,0.54-1.28,0.43-1.24c1.95-0.77-4.22-9.6,10.29-19.23c4.39-2.92,2.11-2.53,5.19-4.34
		c8.54-5.01,2.87-1.6,18.27-6.45c5.67-1.79,17.24,3.47,19.34,9.39c0.46,1.3,1.11,8.95,1.21,11.28c0.25,5.93-0.9,13.64-8.61,24.5
		c-5.33,7.5,2.31,9.76-13.32,25.11c-2.99,2.93-2.32,23.33-5.28,28.76c-8.11,14.86-6.53,13.36-8.29,12.22
		c-0.32-0.21,0.85,6.17,0.82,18.38c-0.04,13.28-9.41,29.67-6.29,59.39c1.9,18.13,2.35,7.74,5.77,16.62c0.83,2.15,0.69,3.65,1.5,5.86
		c1.2,3.29,3.54,3.41,3.51,6.54c-1.56,2.31-2.23,3.21-3.62,3.45c-3.43,0.6-4.26,6.03-8.58,8.25c0.23,0.76,0.64,1.14,1.38,0.84
		c18.61-7.72-2.68-5.35,20.17-8c8.8-1.03,8.57-1.02,9.17-0.26c0.57,2.59,0.1,5.17-1.02,7.54c-2.45,5.2-2.24,10.56-4.41,14.34
		c-2.1,3.66-1.72,3.44-1.82,3.35c1.79,1.64,13.8,8.89,23.13,6.86c9.54-2.09,21.44,10.02,31.54,8.67c8.18-1.1,13.55-4.64,15.77-8.16
		c0.81-1.28-10.31,5.99-12.99,5.92c-3.39-0.08-6.91,0.23-10.18-1.11c-7.42-3.03-13.51-5.09-14.3-5.79
		c-6.66-5.88-12.04,2.79-26.53-5.14c-5.68-3.11-2.22-0.83-0.86-9.19c1.23-7.54,1.76-5.05,4.27-14.94
		c3.95,10.99,10.5,6.01,18.11,2.32c0.55-0.27,1,0.16,2.22,0.96c1.47-0.44,7.94-2.12,9.09-1.13c-1.6,1.14-9.53,0.72-8.82,3.04
		c0.36,1.16,2.03,0.73,10.97-0.38c1.95,3.08,3.61,2.21-6.93,3.37c-1.56,0.18-0.75,1.39-0.96,1.24c0.99,0.72,2.63,0.46,3.49,1.73
		c0.19,0.28,0.84,0.3,1.29,0.32c3.79,0.19,2.27-0.95,5.2,3.44c2.8,0.82,5.58-0.11,8.51-0.59c7.68,6.53,8.37-0.03,14.95,11.36
		c1.93,0.04,2.21,5.08,3.7,2.47c0.35-0.59-0.9-3.33-1.02-6.02c-0.08-1.64-1.22-3-2.59-3.89c-7.04-4.53-4.94,1.08-18.06-9.32
		c-6.67-5.31-4.35-4.93-5.86-8.21c-1.69-3.67-4.83-3.53-3.73-7.35c2.57-0.51,23.39-2.81,23.62-2.83c2.95-0.26-2.1,1.74,8.49,6.08
		c0.12,0.02-0.61,0.76,6.09-7.66c0.08-0.1-0.82-1.24-1.56-0.39c-5.49,6.34-3.88,8.31-9.05,3.59c2.17-2.76,2-1.92,2.85-5.58
		c0.09-0.4,0.22-0.97,0.04-1.35c-2.54-5.49-2.27-4.82-7.75-7.53c-0.13-0.06,1.06-0.54,1.94-4.47c3.02-13.59,15.82,5.99-1.14-58.01
		c-2.98-11.23-6.75-21.04-3.27-33.34c0.37-1.3,0.31-2.68,1.25-3.82c0.89-1.09-0.15-1.93-0.28-2.63c-0.16-0.85,2.38-8.32,0.41-9.03
		c-1.3-0.47-1.1,2.13-1.37,5.04c-4.25-8.63-4.46-15.96-4.07-24.85c0.16-3.52-0.35-1.86-2.31-7.25c1.08-1.63,3.43-2.01,3.09-4.25
		c0.85,0.06,13.23,3.51,4.21-2.68c-0.1-0.07,2.07-1.57,2.17-1.63c3.85-2.33,5.88-9.35,6.62-13.17c0.52-2.69,0.33-3.23,3.8-2.4
		c5.5,1.3,7.53-0.93,8.49-4.44c1.11-4.07,3.48-4.65,4.21-0.24c3.85,23.38-6.1,26.42-4.92,38.69c0.53,5.44,2.57,0.72-0.1,10.89
		c-0.67-0.23-1.16-0.41-1.82-0.63c0,0.77-0.19,1.58-0.11,2.22c0.09,0.72,0.62,0.95,0.69,2.21c0.09,1.5-1.01,3.9-0.59,9.02
		c0.62,7.55,5.99,21.5,5.8,24.05c-0.61,8.02-1.83,2-0.25,14.25c1.01,7.86-3.82,20.38-1.52,40.37c0.35,3.08,1.38,4.51,0.21,5.03
		c0.11,1.44,0.89,2.51,2,3.43c-0.37,2.14,0.21,4.28-0.47,6.46c-0.44,1.41,0.42,2.87,0.99,4.25c5.57,13.53,4.83,10.34,1.36,13.26
		c-0.75,0.64-1.2,1.76-1.27,1.66c0.69,1.01,0.46,0.91,0.56,0.83c-2.54,2.03-6.4,10.79-7.33,8.19c-0.17-0.48,0.04-0.6,3.13-6.08
		c0.06-0.1,0.15,0.16-0.53-0.59c-5.59,3.72-3.2,10.13-9.51,7.75c-1.28,1.57,0.37,1.74,2.26,1.98c2.85,0.36,1.7-1.23,4.11-1.17
		c4.46,0.12,2.11-3.3,8.47-3.64c3.09-5.39-0.44-5.56,12.32-6.54c17.13-1.31,4.93-4.74,16.05,18.76
		c16.18,34.17,43.18,27.74,44.41,27.99c17.69,3.5,42.66-17,42.5-56.2c-0.01-3.57,0.15-1.79,9.05-3.28
		c8.88-1.49,7.65,1.08,10.39-6.12C449.78,357.59,449.42,356.12,448.44,354.89z M6.98,410.1c-2.27,0.99-4.39,2.35-4.97-1.24
		c-0.31-1.92,0.91-3.28,2.37-4.56C6.7,405.72,7.54,407.47,6.98,410.1z M8.69,411.46c4.78-11.34-19.74-5.66,52.46-13.75
		c32.43-3.64,30.72-4.81,29.87,3.23c-2.16,1.34-4.24,2.04-6.58,2.29C58.74,405.88,15.13,411.46,8.69,411.46z M74.14,429
		c-2.99-5.31,6.32-19.25,9.04-22.4c0.91-1.05,2.11-1.33,3.67-1.06c-7.12,16.31-5.22,20.76-7.45,27.89
		C77.14,432.53,75.33,431.12,74.14,429z M89.44,405.12c2.88,6.7,7.64,13.62,7.11,22.67c-0.37,6.41-1.72,5.88-3.9,4.78
		c-4.4-24.98-2.74-22.54-4.28-25.55C88.12,406.54,88.2,405.66,89.44,405.12z M97.95,394.99c1.55,4.36-0.81,12.06-5.37,13
		c-1.85-3.19-1.72-3.2-1.79-3.1c1.72-2.65,2.93-3.25,3-5.93c0.21-8.56-6.93-6.01-8.09-7.13C86.48,387.92,95.17,387.2,97.95,394.99z
		 M89.28,466.42C61.16,468.16,43,421.56,44.64,410.4c4.1-0.97,3.9-1.11,4.5,1.98c6.85,35.59,30.32,51.02,36.9,48.96
		c2.49-0.78,5.33,0.37,7.63-1.42c0.8-0.62-5.82,0.27-5.94,0.29c-16.51,2.16-35.48-32.65-36.91-50.63
		c6.61-1.04,25.03-3.06,30.02-3.46c1.29-0.1-4.45,3.39-8.55,13.15c-0.39,0.94-0.73,1.86-1.72,2.47c-1.82,1.11-1,11.7,9.32,14.97
		c5.04,1.6,2.79-18.02,7.06-25.75c-0.08-1.47-0.03,7.86,1.16,15.23c0.41,2.56-1.82,9.3,4.98,11.13c11.21,3.01,7.47-21.94,0.65-27.3
		c9.56-6.8,9.31-14.75,3.99-20.27c-6-6.21-8.4-3.02-10.5-2.25c-2.77,1.03-3.33,2.89-4.52,5.15c-12.23,2.37-33.01,3.42-32.99,3.52
		c-2.18-11.99,5.29-50.13,28.21-59.14c3.86-1.52,5.32-0.7,15.79,0.25c-1.31-2.63-11.63-4.89-17.95-1.62
		c-29.49,15.26-28.33,60.41-28.47,60.88c-13.82,8.59,2.88-81.99,46.8-64.53C142.08,351.08,138.61,463.33,89.28,466.42z M95.5,467.71
		c48.03-18.72,43.34-109.45,5.93-134.16c-6.06-4.01-8.62-3.81-12.57-5.65C154.37,322.64,162.94,467.71,95.5,467.71z M289.7,141.64
		c0.03-0.45-0.05-0.4,0.32-0.29C290,141.59,290.1,141.54,289.7,141.64z M292.26,157.35c-0.48,0.09-0.99,0.32-1.3-0.32
		C291.5,156.73,291.9,156.97,292.26,157.35z M296.57,133.93c-0.72,0.09-1.24,0.15-2.08,0.25
		C295.26,133.47,295.75,133.14,296.57,133.93z M314.98,145.61c-0.49,0.13-0.63-0.13-0.23-0.13
		C314.83,145.49,314.9,145.57,314.98,145.61z M309.5,153.71c-0.95,1.01-0.95,1.01-3.15,0.85C307.61,154.22,308.4,154,309.5,153.71z
		 M304.3,154.66c0.13-0.26,0.04-0.23,0.4-0.13C304.58,154.77,304.76,154.79,304.3,154.66z M301.4,155.72
		C301.35,155.75,301.35,155.75,301.4,155.72C301.52,155.6,302,155.34,301.4,155.72z M300.64,134.56c0.41-0.18,0.81-0.04,0.16,0.16
		C300.69,134.72,300.8,134.74,300.64,134.56z M311.51,156.6c0.27-0.35,0.44-0.76,0.67-0.81c1.37-0.33,2.89-0.49,4.46-0.44
		c0.04,0.5,0.08,1,0.11,1.48C316.75,156.93,314.32,157.37,311.51,156.6z M320.94,156.33c0.01,0.5,0.28,0.37-1.55,0.37
		C319.38,156.37,319.15,156.33,320.94,156.33z M321.65,151.46c-0.21,0.02,0.07,0.51-0.67,0.64c0.02,0.82-2.16,0.36,0,0
		C320.98,151.65,321.95,151.04,321.65,151.46z M320.46,147.41c0.72,0.04,1.25,0.55-2.52,0.63
		C319.05,147.18,319.8,147.37,320.46,147.41z M285.84,169.01c0.59-1.14,1.2-0.18,1.1-0.04
		C286.94,169.38,284.66,171.28,285.84,169.01z M282.75,167.71c-0.16-0.12-0.2-0.09,0.02-0.18L282.75,167.71z M279.38,153.92
		c-0.68,0-1.3,0-1.98,0C278.93,152.69,278.91,152.74,279.38,153.92z M279.65,166.47c0.04-0.02,0.08-0.04,0.12-0.06
		C279.78,167.13,279.96,166.78,279.65,166.47c-4.87,2.19-4.14,1.28-4.14,1.49c-0.1,0,0.16,0.41-0.32,0.59
		c-0.51,0.19-0.28-0.48-0.95,2.64c-0.02,0.1,0.03-0.01,1.98-0.95c0.72,0.56,0.37,1.43,0.52,2.15c-0.4,0.31-1.33,0.73-1.38,1.81
		c-0.01,0.25,1.36,3.19,2.62,3.57c0.26,0.08,0.56,0.87-0.44,1.64c-0.66-0.17-4.03-3.47-4.58-6.45c-0.61-3.32,1.76-4.02,1.83-4.35
		c0.17,0.02-0.14-0.66,0.72-0.66c0-1.18,1.66-1.97,3.09-2.15C278.95,165.76,279.56,166.47,279.65,166.47z M274.94,165.04
		c0.01,0.37,0.08,0.3-0.23,0.39c-3.38,3.56-3.04,3.4-2.75,2.45C272.68,165.45,274.65,165.91,274.94,165.04z M276.1,143.25
		c0.03-0.03,0.1-0.1,0.1-0.1c0.03-0.02,0.08-0.03,0.13-0.03c0.1,0,0.04-0.5,0.17-0.34c0.31,0.37,0.02,0.32-0.17,0.34
		c-0.02,0.04-0.03,0.08-0.05,0.12c-0.39,0.03-0.42,0.35-0.42,0.25C275.93,143.31,275.88,143.26,276.1,143.25z M278.45,162.38
		c-0.01-0.07,0.12-0.16,0.19-0.24C278.98,162.99,278.66,163.2,278.45,162.38z M273.19,161.49c-0.05,0.02-0.16,0.1-0.26,0.16
		c-0.25-0.08-0.29-0.1-0.29-0.1C273.07,161.2,272.92,161.26,273.19,161.49z M278.34,171.29c0.55-1.58,0.89-2.1,0.28-2.28
		c0.25,0.07,1.22,0.95,1.38,1.72C280.21,171.8,280.09,171.45,278.34,171.29z M206.72,426.01c-2.48,1.63-9.13,2.15-10.43,4.26
		c1.3,3.59,11.02-3.59,13.15-0.51c-4.49,1.06-6.04,1.3-8.23,2.29c-1.27,0.57-1.27,1.81-0.2,2.1c2.62,0.71,10.52-4.92,11.52-1.63
		c-1.12,0.92-2.57,0.86-3.85,1.3c-1.08,0.37-0.53,2.52,2.59,1.28c0.26-0.1,3.34-1.64,3.23-1.7c3.42,2.04,3.26,2.41,4.78,3.01
		c3.01,1.2,3.68-0.67,8.09,6.61c-0.68,5.36-3.87,5.76-10.86,8.4c-9.77,3.68-27.46-2.81-30.26-6.86c-5.41-7.85-11.94-6.51-15.98-7.71
		c-6.96-2.08-1.4-8.26-1.09-11.09c0.01-0.1,0.7-6.27,0.64-6.37c0.82,1.31,0.7,1.33,0.78,1.23c1.66-2.24,1.42-1.95,2.68-1.42
		c3.95,1.68,9.56-1.14,11.23,1.95c0.44,0.81,0.45,1.97,0.35,1.96c5.11,0.22,15.84-2.2,15.94-2.26c-3.62,2.07-7.94,2.2-11.77,4.07
		c0.31,0.44,0.45,0.9,0.67,0.94c1.54,0.29,3.2,1.99,3.09,2.01C207.02,424.57,204.34,424.91,206.72,426.01z M197.96,416.5
		c-7.61,1.98-11.39,1.44-11.99,2.04c0.32-0.67-0.17-1.51,0.15-2.15c2-4.03-1.59-6.02,5.37-6.32c1.83-0.08,3.53-0.47,5.14-1.95
		C197.21,411.04,197.64,413.68,197.96,416.5z M179.13,414.19c2.89,0.04,3.15-1.05,5.3-1.35c0.54,1.41,0.37,2.78-0.07,4.22
		c-0.99,0.75-1.94,0.63-3.04,0.6c-5.67-0.14-8.04,1.17-8.12-3.61C175.62,412.8,176.44,414.15,179.13,414.19z M172.49,409.76
		c0.54,0.92,0.45,0.64-0.47,1.45c-0.11-0.41-0.31-0.72-0.23-0.96C171.83,410.1,172.41,409.63,172.49,409.76z M190.77,390.82
		c-1.11-0.56-1.6-0.81-1.65-0.84c-1.27,2.02,4.46,0.65-44.81,6.35c-0.1,0.01,0.04,0.5-0.7-7.54c1.72-0.73-4.15,0.07,42.87-5.14
		C189.63,386.81,190.77,387.8,190.77,390.82z M185.01,286.68c-4.54,23.75-5.84,31.18,3.91,66.08c2.41,8.62,0.21,12.15-2.23,17.49
		c-1.9,4.19,2.18,12.68,1.23,11.73c-5.08-1.96-18.69,2.71-19.02,0.4c-1-6.95-9.85-24.36-6.96-36.96c0.85-3.71-3.29,0.02,2.37-15.09
		c3.59-9.59,9.37-17.19,7.49-25.83c-0.02-0.1-0.12,0,0.95,0c0.82-1.59,1.08-3.18,0.37-4.81c-2.69-6.14-2.56-5.54-3.69-6.43
		c-0.52-0.41-1.08,0.33-1.13,0.73c-0.29,2.46,2.11,2.07,2.54,5.74c0.18,1.54-0.17,1.46,0.4,1.9c0.32,0.25,0.02,1.48-0.24-0.14
		c-0.15,0-0.11-0.12-0.11-0.26c0.01-0.66-8.17-9.2-8.26-9.31c-9.97-11.13-12.87-8.36-3.11-9.73c3.71-0.52,4.51-1.64,6.25-0.72
		c0.59,0.31-0.77-0.09,7.82-0.71c4.74-0.34,9.3-2.95,11.08-2.67c0.26,2.51-0.67,3.08-0.64,5.42
		C184.06,285.66,185.04,286.58,185.01,286.68z M185.14,231.9c0.96-2.41,0.56-2.01,1.87-1.71c-0.02,1.52-0.52,2.72-1.55,3.99
		c-3.27-4.45-4.25-3.65-3.16-4.85C182.4,229.43,185.09,232,185.14,231.9z M168.15,218.12c0.57,0.65,0.31,1.25,1.07,1.73
		c-0.17-0.02-0.19,0.1-0.28-0.17c-0.01-0.02-0.09-0.02-0.14-0.13c-1.76,0.29-1.92-0.31,4.43,5.14c8.09,6.96-9.62-4.94-10.1-5.13
		c1.34,2.95,7.87,7.07,9.05,7.78c4.48,2.7,6.55,2.06,6.96,4.55c0.33,0,1.63,1.05-8.28-2.89c-1.75-0.7-1.24-0.96-0.97-1.51
		c-2.21-1.57-1.66,0.31-5.19-0.68c-1.01-0.28,1.33,0.35-7.48-2.21c0,3.52,27.87,6.48,27.75,15.12c-0.23,16.43-3.3-0.76,2.39,30.48
		c0.1,0.55,0.23,1.3-0.04,1.67c-0.88,1.18-0.52,2.68-1.2,4.04c-4.46,0.25-12.47,4.24-20.77,2.85c-1.67-0.28-4.66,2.17-7.29,0.86
		c-1.26-0.63-11.52,2.72-13.63,3.08c-5.12,0.88-4.39-1.7-5.87-8.96c-2.6-12.67-3.07-6.34-7.51-20.88
		c-8.76-28.65-19.88-25.13-15.62-50c1.81-10.57,12.68-28.58,26.48-35.48c0.5,0.93-0.28,1.33-0.51,1.89
		c-4.44,10.7,2.66,7.66-5.87,9.99c-0.18,2.25,4.96-0.2,6.43,2.63c3.82,7.36,3.52,5.87,2.87,7.51c1.01,1.8,2.15,0.96,7.48,7.62
		c7.24,9.05,7.07,8.8,6.94,9.65C158.88,208.93,161.81,210.91,168.15,218.12z M151.2,191.67l0.17,0.03
		C151.22,191.88,151.27,191.88,151.2,191.67z M159.98,202.41c2.26-0.89,3.18,4.01,3.83,4.33c-0.18,0.12-0.45,0.34-0.49-0.37
		C160.49,204.75,159.98,201.71,159.98,202.41z M263.37,169.02c-0.26-0.27-0.28-0.05,0-0.79
		C263.75,168.67,263.79,168.48,263.37,169.02z M263.57,297.2c-0.38,6.49-0.43,6.17-0.3,6.5c1.21,3.09,0.43,11.51,0.1,11.85
		c-1.68,1.75-0.48,3.64-1.66,14.16c-1.94,17.36-5.42,24.47-5.42,43.52c-8.55,1.3-9.08,1.25-9-0.13c0.4-7.42,2.4-10.01-0.02-13.46
		c-1.39,1.86,1.33-3.22-0.72,14.32c-1.01,1.04-2.41,0.33-3.68,0.51c-5.06,0.74-3.85,3.14-4.98-10.15
		c-1.13-13.23-8.96-22.13-5.28-48.11c3.05-21.53,0.46-21.32-11-32.06c-3.47-3.25-2.95-3.05-3.14-3.7c0.1-0.1,3.63-1.69,6.67-2.18
		c33.52-5.43,30.21-13.78,33.39-9.24C271.07,286.94,264.27,285.09,263.57,297.2z M285.81,370.07c-29.85,3.33-25.95,2.97-27.5,2.69
		c-1.03-10.34,11.57-60.73,6.49-72.64c3.86-14.08,2.55-4.69,3.09-14.57c0.43-7.74-8.67-17.28-12.47-26.28
		c-2.26-5.35-7.31-17.9-12.4-21.97c-0.22-0.18-1.44-1.79-1.34-1.83c1.22-0.43,1.46-1.38,6.32,0.38c7.72,2.8,11.03,0.84,13.17,0.96
		c7.79,0.46,12.6-2.61,17.46-4.94c1.15,3.97-0.36,4.67,1.59,7.71c0,28.46,6.74,15.44,3.82,43.08c-1.65,15.54,6.79,33.52,7.48,38.48
		c2.75,19.9,9.3,27.54,1.91,36.68C286.97,365.84,288.26,369.78,285.81,370.07z M241.33,239.15c2.5,5.14,7.4,9.64,10.1,17.06
		c0.55,1.52,1.15,2.39,4.83,8.5c-14.77,7.39-37.01,13.07-40.54,13.07c3.28-5.67,6.74-11.48,6.83-15.2c0.06-2.52,3.5-7.39,2.36-16.29
		c-0.51-3.95,0.99-4.73,0.58-5.73C223.53,235.76,237.7,231.69,241.33,239.15z M215.45,377.93c-2.75-3.53-1.4-4.56-2.99-6.53
		c-4.23-5.27-5-16.36-5-18.54c0.06-23.78-1.82-4.05,3.42-34.97c2.5-14.77,3.88-12.22,3.32-26.43c-0.32-8.06-0.62-7.23-1.17-8.73
		c4.84-4.33,0.89-0.64,18.53,13.68c1.75,1.41,0.1,12.84-0.38,15.14c-6.76,32.12,5.79,40.6,5.79,63.92
		C230.23,376.33,222.29,377.22,215.45,377.93z M210.58,392.64c-0.37-0.63-0.5-0.35,0.3-1.06
		C211.29,392.02,211.38,391.79,210.58,392.64z M248.51,394.56c-4.6,2.6-10.83,0.05-8.68-4.28c14.61,1.43,11.77-4.88,15.02,1.19
		C255.41,392.5,251.09,393.1,248.51,394.56z M248.69,387.33c-1.76,1.11-3.66,1.45-5.96,0.99c0.4-0.5,0.5-0.75,0.63-0.77
		C250.6,386.6,249.69,386.7,248.69,387.33z M261.74,391.55c-6.6,1.17-3.82,1.14-6.47-3.76c5.1-1.81,2.72,0.22,7.54-2.19
		c0.63,1.16,1.51,2.1,2.17,2.99C267.28,391.69,265.07,390.96,261.74,391.55z M293.27,382.22c0.33-0.06,0.27-0.09,0.25,0.09
		L293.27,382.22z M295.12,380.05c-3.41-1.37-55.08,5.86-77.83,7.94c0.16-1.47,0.45-2.89,0.39-4.07c-0.16-2.92-2.08-3.59,0.95-3.94
		C293.25,371.63,298.69,368.43,295.12,380.05z M313.21,188.41c-2.33-0.18-1.88-3.25-3.37-1.8c-0.66,0.65-0.25,1.74,0.5,2.25
		c3.42,2.29,3.21-0.23,2.16,5.9c-0.11,0.62-8.8-1.14-8.74,0.72c0.06,1.5,2.87-0.05,6.67,1.85c-4.61,5.3-2.2,4.08-3.84,6.63
		c-3.32,5.18-15.95-3.76-16.43-3.11c-1.22,1.66-8.26-0.48-12.99,4.8c4.71-0.29,4.32-2.66,9.05-0.75
		c-3.34,5.21-19.48,9.57-20.36,9.74c-6.42,1.23-11.88-3.33-11.61-5.47c0.29-2.28-1.02-5.36-1-9.51c0.1-17.02-1.97-27.75,5.68-30.27
		c-0.06,0.62-0.11,1.08-0.16,1.56c1.52,0.08,2.75-1.15,4.29-0.75c-5.03,10.1-0.99,3.93,0.1,3.52c0.37,1.86-2.55,8.14,0.29,10.6
		c0.8-1.28,2.15-12.23,2.05-12.23c3.56,0,2.84-0.32,3.48,1.24c3.94,0.71,0.65,0.77,5.49,5.31c7.49,7.04-1.85,4.18,6.93,14.42
		c0.51,0.59,1.48,0.7,1.55,0.82c-3.42-5.84-4.61-6.9-3.7-9.95c1.9-6.38-0.18-6.06,0.46-6.98c1.09-1.56,0.52-3.85,0.33-3.85
		c2.63,0,2.31-0.1,2.31,0c0-2.77-1.04-3.33-0.54-3.12c1.08,3.24,1.08,1.67,1.08,9.24c0.61,0.32,1.02,0.18,1.33-0.31
		c0.06-0.1,4.38-6.86,4.28-6.79c8.23-5.16,9.59-5.76,11.09-7.74c6.79-9.03,11.38,3.11,16-3.21c5.14,0,5.25-2.13,5.38,2.77
		c0.21,7.77,0.63,7.38-0.28,8.57c-1.8,2.36-5.59-0.4-3.5,13.1C318.1,191.48,314.15,188.48,313.21,188.41z M314.61,380.69
		c-0.39,0.78-0.85,1.52-1.28,2.28C312.68,379.63,315.47,378.99,314.61,380.69z M322.08,376.13c-5.99,0.69-0.62,0.07-3.83-7.13
		c7.41-1.15-2.12,0.1,25.36-2.99c24.75-2.78,33.79-5.56,32.96,1.04C376.02,371.31,377.3,369.78,322.08,376.13z M382.18,352.22
		c7.7,7.7,7.61,18.41,3.89,24.46c-0.19,0.31-0.35,0.18-0.38,0.51c-0.25,0-0.17,0.62-0.8,0.48c-0.06,0.13-0.57,1.48-0.58,1.51
		c-0.43,0.17-0.24,0.1-0.08-0.07c0.24-0.66,0.6-2.15,1.35-1.94c5.32-17.56-4.35-24.9-1.95-23.37
		C383.52,353.73,381.58,351.99,382.18,352.22z M377.31,351.01c13.29,6.5,9.6,32.64-3.12,31.57c-3.58-0.3-7.92-3.5-9.53-8.8
		c1.48-0.23,3.25-0.58,4.75-0.69c13.7-1.01,10.53-13.64,3.56-12.84c-9.75,1.13-6.29,0.86-9.72,0.86
		C364.59,353.45,370.63,347.75,377.31,351.01z M377.2,423.2c-20.74-1.97-34.39-24.31-38.27-45.14c-0.34-1.83,0.9-1.57,11.85-2.81
		c4.74-0.53,6.69-1.06,11.7-1.06c2.96,5.34,6.21,10.08,12.45,9.83c2.96-0.11,7.88,0.49,11.7-5.04c4.24-6.16,4.12-15.27,1.59-21.12
		c-5.93-13.69-20.78-11.89-25.26-1.49c-3.25,7.53,1.01,4.25-9.41,6.09c-2.12,0.38-14.3,1.59-14.63,1.57
		c-3.76-0.15,0.23-23.63,8.99-37.1c12.2-18.76,33.94-22.12,50.21-7.81C434.67,351.26,419.11,427.18,377.2,423.2z M427.88,371.09
		c-1.04,46.63-32.9,50.88-32.8,50.8c-0.1,0.01,12.77-6.73,20.07-23.84c12.18-28.54,5.29-76.52-31.92-88.87
		c-2.58-0.86,33.88-2.31,43.1,44.57C427.68,360.64,428,365.68,427.88,371.09z M446.61,360.2c-1.11,2.34-3.75,2.19-7.35,2.57
		c-11.2,1.2-9.42,1.65-9.73-0.98c-0.5-4.19-1-5.26,0.6-5.45C438.69,355.35,450.3,352.47,446.61,360.2z"/>
	<path d="M895.09,247.87c-0.65-0.07-0.99,0.1-14.63,1.82c-1.6,0.2-1.5-0.4-2.35-3.88c-13.87-57.02-77.59-56.8-90.06-2.66
		c-4.75,20.62,5.57,16.2-17.52,18.9c-3.01,0.35-2.97,0.06-3.56-0.16c-3.51-7.88-3.41-7.51-3.08-12.92
		c0.33-6.26-4.28-3.23-9.66-28.53c-0.36-1.72-1.22-2.35-1.25-2.25c-2.61,0.87,4,23.98,7.12,28.08c2.44,3.21-0.24,4.46,2.81,11.06
		c6.51,14.06,2.93,10.43,0.63,13.66c-1.63,2.3,1.07,1.57,1.86,0.77c0.24-2.5,0.54,2.14-2.9,6.22c-0.84-1.77,1.14-2.72,1.12-4.24
		c-0.05-3.95-5.56,8.97-7.65,7.41c-0.65-0.65,2.88-4.07,2.96-6.67c0.07-2.42-4.91,6.13-6.25,8.16c-4.25-0.52-4.08,0.44,1.31-6.58
		c0.46-0.6,0.48-1.07-0.17-1.56c-2.78,1.37-3.42,4.71-5.62,6.58c-2.27,0.39-2.73-1.81-4.35-2.57c-0.2-0.13,4.46-3.18,2.6-8.14
		c-1.54-4.08-3.01-4.94-8.16-5.05c-0.1,0,0.53-1.55,0.8-1.72c1.43-0.86,1.66-2.26,2.03-3.88c1.66-7.21-0.12-1.11,6.06-8.42
		c0.1-0.1,0.24-2.28-1.59-3.24c-1.32-0.69-0.75-1.59-0.88-1.73c1.38-2.77-0.2-2.64-0.02-3.27c-0.72,2.52-0.64,2.6-0.71,2.5
		c-1.12-1.5-7.97-12.45-8.54-13.6c13.44-11.15,17.16-6.85,20.21-24.01c0.37-2.02,0.65-1.42,4.12-0.63c8.23,1.86,7.36-6.33,9.13-7.35
		c1.34-0.77,0.98-2.2,1.62-3.22c0.33-0.53,1.53-0.37,2.36-3.97c0.27-1.15,0.02-1.64,0.42-1.69c1.07-0.13,2.08,0.26,2.86-0.61
		c2.43-2.72,0.73-5.68,0.82-11.98c0.03-2.66,1.89-3.01,4.5-4.37c0-12.83-1.65-2.6,0.25-13.62c3.99-4.81,6.19-1.38,9.12-5.11
		c-0.88-0.26-1.48-0.43-2.06-0.6c0.03,0.13-0.34,0.48-0.08-0.02c0.27,0.08-0.06-1.12-0.16-1.24c-1.35-1.56,1.37-1.96-1.78-4.94
		c-2.4-2.27-2.05,0-2.78-3.24c-3.19-1.16-4.21,0.25-6.41-1.14c1.9-1.81,4.79-1.89,6.14-4.63c-4.44,1.29-4.6,1.26-4.49,1.31
		c-6.92-3.36-22.23-11.48-27.27-8.74c-2.65,1.44-3.3-0.04-6.73-0.35c-0.71-0.07-2.87,0.8-2.76,0.86c-0.67-0.4-1.22-0.99-1.61-0.9
		c-0.72,0.17-1.25,0.44-1.92-0.01c-2.07-1.38-1.73,1.62-2.48,1.56c-1.1-0.08-2.19-1.19-3.37,0c-0.16,3.46,7.8,0.78-2.61,7.86
		c-4.78,3.26-3.2,5.73-3.89,8.6c-0.66,2.72-1.54,0.69-2.84,5.67c-32.13-6.15-33-1.85-48.17-2.53c-3.34-0.15-14.8,5.53-16.07,5.12
		c-2.73-0.89-8.94,1.46-17.69,1.84c-25,1.11-20.1-0.98-28.28,0.12c-17.95,2.41-37.58,18.74-41.07,33.95
		c-1.25,5.44-0.9,7.48-2.42,9.95c-2.92,4.72,3.05,18.85,2.14,20.35c-0.68,1.12,2.3,5.97,3,7.09c3.92,6.29,3.9,1.79,10.89,19.49
		c2.15,5.44,1.52,4.09,1.83,6.59c0.67,0.31,0.47,0.97,0.2,1.66c-0.5-4.17-9.27-19.58-17.65-26.93
		c-26.84-23.53-78.13-9.04-78.51,57.42c-0.03,4.01,0.52,3.66-4.29,4.21c-36.27,4.12-32.33,2.2-35.5,5.92
		c-3.6,4.23-0.53,7.46,1.78,10.16c0.93,1.24,35.27-3.67,38.93-3.44c1.4,5.53,5.4,37,28.59,52.32c12.1,8,36.46,9.65,50.8-2.15
		c24.76-20.4,22.23-60.31,22.88-61.8c2.88-0.68,17.11-2.38,21.68-2.51c15.85,14.99,11.68,18.85,5.96,31.41
		c-1.37,3.01-1.74,6.43-3.69,9.21c-8.46,12.17,12.8,70.79,11.7,74.62c-3.16-0.15-1.7,1.4-7.72,25.87c-0.46,1.88,0.2,3.37,1.57,4.62
		c2.74,2.49,6.39,2.26,9.39,2.76c7.09,1.17,8.24,5.63,11.3,7.76c6.03,4.21,16.48,6.65,19.56,6.97c6.38,0.67,11.17-1.83,19.45-4.82
		c2.06-0.74,3.19-2.27,3.74-4.18c1.16-4.04-0.7-4.5-1.99-7.2c-1.31-2.73-4.69-3.87-5.68-4.04c-3.72-0.62-10.18-6.02-10.99-8.21
		c-0.11-0.29-1.8-0.96-2.48-1.72c-5.15-5.73-4.45-5.02-4.36-6.92c-2.07-0.76-2.23-2.02-5.11-9.48c-0.88-2.3-3.13-2.2-2.85-2.18
		c-11.67-0.95-12.64,6.78-18.24,5.18c-6.19-1.78,0.68-0.09-14.27-47.17c-1.12-3.52-3.52-14.5-1.97-18.22
		c1.35-3.25-1.76-2.6,0.37-8.62c6.72-18.91,12.15-26.68,10.03-33.03c0.11,0.11,3.11-1.49,0.39-6.75c-0.05-0.1-2.55-4.94-2.45-4.96
		c-4.04,0.87,0.51,2.49,1.36,9.64c-2.68-5.36-3.76-5.08-8.85-10.97c1.75-0.5,3.04-1.18,4.3,0.26c0.59,0.68,0.54-1.06,3.15,0.98
		c0.06,0.11,0.15,0.13-0.01-0.02c4.32-0.08,6.58,4.1,10.11-1c4.29-6.21,3.4-5.08,3.4-6.54c-3.54,1.98-5.71,10.57-8.26,6.64
		c3.04-4.61,4.66-6.14,2.67-6.45c-1.52,1.52-3.51,6.02-5.75,5.93c-1.33-0.06-2.27-0.56-2.79-1.81c4.35-11.66-0.04-6.41-0.02-6.31
		c-1.22-5.95-4.54-8.43-3.2-11.57c4.49-10.5-0.85-16.41-14.61-40.02c-11.07-19.01-12.04-38.1-15.49-47.17
		c-0.05,0.11-1.35,2.9-1.39,3c-2.63-0.65-12.42-0.19-12.46-0.09c2.76-6.6,13.43-18.71,20.33-19.71c0.48-0.07-4.11,3.96-2.45,10.22
		c-1.43,1.32-4.87,0.26-4.19,2.09c0.04,0.1-0.5-0.05,3.03,0.34c0.11,0.01-0.58,1.87-2.13,1.53c-1.77-0.39-3.13,0.27-4.35,1.62
		c1.92-0.35,2.96,0.96,9.72-1.97c17.64-7.65,47.64-12.89,53.34-12.7c5.35,0.18,9.47,3.13,16.21,1.59c0.25-0.06,0.83-0.05,0.94-0.05
		c0.99-1.84,9.23-3,12.59-4.01c5.52-1.66,19.34,4.5,20.34,11.27c0.55,3.71,1.05,9.36,0.72,13.33c-1.77-1.83-3.31-3.86-6.2-3.41
		c-2.73,0.42-2.47,1.24-2.67,1.77c3.48-0.2,5.9,1.14,7.11,4.18c0.99,0.07,0.66-0.01,1.42,0.25c0.19,4.22-4.2,12.15-6.39,15.74
		c-1.15,1.89-7.91,5.73-10.57,6.89c-7.64,3.31-27.07-1.28-28.74-6c0-0.27-0.79-0.28-0.18-0.43c0.1-0.02,12.72,6.73,17.99,3.45
		c-2.25-1.17-1.31-0.45-5.03-0.97c-7.74-1.07-7.6-2.44-7.21-2.03c-0.45-1.04-28.43-3.11-40.53-11.34c-1.4-0.96-2.93-0.73-2.83-0.63
		c8.96,9.36,4.92-0.61,8.64,11.76c0.57,1.89-0.64,1.99-0.1,3.99c11.31,41.77,4.84,31.64,16.29,52.41c2.46,4.45,0.65,5.18,5.11,11.81
		c0.59,0.88,1.29,2.46,0.21,3.43c-3.01,2.71-3.44,6.1-5.13,6.48c-0.74-1.02,1.23-1.69,0.16-2.95c-2.51,2.38-3.51,5.73-6.63,7.06
		c0.31,1.59,0.96,1.3,6.07-1.02c8.99-4.08-4.62-2.06,13.8-4.65c3.51,17.33-5.82,23.68-5.11,51.57c0.35,13.33-6.84,31.98-6.38,55.39
		c0.11,5.86,4.49,14.35,4,10.4c-0.5-4.1-1.53-6.9-1.35-10.54c0.36-7.04,0.63-15.24,0.7-15.43c3.32-9.14,6.22-57.76,6.23-57.86
		c1.11-10.76,6.68-19.75,4.24-31.31c-0.57-2.69-0.26-2.51,16.21-4.04c16.17,16.65,18.04,14.83,3.38,0.16
		c4.42-2.42,6.73-0.66,7.87,0.01c6.44,3.75,6.14,2.89,6.04,2.99c0.26,1.21,1.55,1.58,2.26,2.01c-3.46-7.08-18.3-6.25,17.39-9.49
		c1.04,1.97,0.86,1.76,1.14,1.77c1.02,0.02,1.24,0.89,0.65,1c-1.46,0.27-0.6-1.69-2.62,5.79c1.13,0.27,0.98,0.25,1.08,0.27
		c3.01-4.93,2.2-2.96,3.18-8.63c2-1.04,2.1-1.07,5.19-0.8c2.97,8.06-1.56,9.6-1.4,19.12c0.22,12.36,1.03,1.01,0.12,14.23
		c-0.3,4.37-0.89,1.81-1.24,4.86c-6.72,57.48-7.63,42.59-4.99,65.87c-2.01,1.8-5.67,2.86-5.77,2.81c-1.3-1.21-0.91-0.94-1.01-0.94
		c-0.98,0.06-0.62,1.08-1.17,1.58c-1.46,0.53-2.99,1.03-4.66,1.04c-2.07,0.01-1.71-0.13-2.47-1.9c-2-1.02-2.42,6.72-2.88-8.76
		c-0.13-4.18-0.81-3.17-1.38-11.89c-0.61-9.24-3.69-11.4-3.56-17.7c0.06-2.72-1.54-1.69-2.66-13.76
		c-1.39-14.89,4.98-35.62,0.68-37.64c0.03,0.1-0.14,8.03-0.77,11.6c-7.89,45.02,5.9,34.52,5.31,74.87c-0.08,5-2.56,2.96-2.28,7.3
		c0.23,3.62-0.87,5.08-2.57,10.57c-1.24,4.02-1.49,8.37-4.09,11.93c-0.34,0.46-0.25,1.23-0.35,1.76c26.95,14.4,15.57,0.72,35.58,9.3
		c11.13,4.78,17.54,9.92,31.37,0.94c2.38-1.54,2.69-3.31,2.95-3.46c-5.78,3.17-9.57,5.41-12.04,5.86
		c-9.29,1.69-24.92-6.48-26.03-7.31c-6.27-4.69-11.54,3.64-27.54-5.5c-2.98-1.7-0.52-0.3,1.1-8.79c1.44-7.53,3.26-8.8,3.79-14.15
		c0.26-2.63,0.32,8.29,9.67,6.21c2.75-0.61,4.85-2.95,8.94-4.1c0.2-0.06,1.99,0.98,2.57,0.72c1.8-0.81,11.71-1.95,6.88-0.57
		c-3.98,1.14-8.11,0.77-6.83,3.16c3.57,0.82,7.12-0.96,10.62-0.6c5.28,4.75-8.56,0.99-7.83,4.37c0.98,0.84,2.69,0.38,3.52,1.73
		c0.63,1.04,4.03-1.49,5.63,2.53c0.97,2.44,2.52,1.73,9.37,0.7c5.71,4.73,10.96,2.65,13.65,9.14c1.44,3.46,0.9,0.23,3.45,4.88
		c1.67,3.05,1.58-5.76-0.62-8.64c-2.93-3.84-9.17-3.37-13.42-6.3c-1.89-1.3-8.22-5.8-10.19-8.1c-2.4-2.81-0.14-4-3.61-7.19
		c-3.61-3.34-0.63-4.49-4.7-6.51c-1.09,0.68-2.05,1.82-3.78,1.52c-6.61-16.73,10.3-71.32,4.59-84.76c-0.25-0.6,1.26-4.83,1.63-5.55
		c1.76-3.47,1.19-5.18,0.99-15.14c0-0.1,14.52-1.65,14.62-1.66c4.4,3.62,4.32,3.85,5.67,4.23c1.03,0.29,2.3,0.13,2.88,1.37
		c3.84,1.43,4.56-0.27,5.72-0.59c0.43-0.12,0.71,0.14,1.62-0.01c2.42-0.38,2.71-2.9,4.94-3.55c1.12-0.33,1.59,0.05,1.96-0.02
		c1.62-0.3,1.18-2.84,3.12-4.32c0.1-0.08,14.45-1.77,20.36-2.32c1.88,2.37,8.69,59.03,61.58,46.46
		c14.91-3.57,24.67-17.82,28.99-32.61c9.86-33.78-8.74-20.87,20.38-26.76c0.11-0.02,1.76-4.24,2.06-5.44
		C900.57,251.68,897.87,248.19,895.09,247.87z M595.79,281.17c-2.17,0.74-1.31,2.42-4.45-12.4
		C591.34,268.52,594.94,274.57,595.79,281.17z M590.88,266.96c0.15,0,0.13-0.07,0.06,0.28L590.88,266.96z M556.53,226.05
		c49.91,19.46,48.46,132.35-5.68,137.27c-13.22,1.2,15.75,0.48,26.63-38.1c9.82-34.87,0.16-89.61-37.51-101.08
		C538.08,223.57,547.55,222.56,556.53,226.05z M546.3,328.09c-0.44,1.56-2.96,1.14-3.23-0.57c-0.93-5.86-2.31-11.65-2.79-17.59
		c-0.19-2.35-0.08-4.79-1.25-7.02c-0.24-0.45,0.2-1.27,0.38-1.9c0.02-0.07,0.4-0.03,0.83-0.05
		C542.98,308.71,549.57,316.52,546.3,328.09z M542.93,303.63c-2.87-6.3-0.91-1.43,1.1-6.88c1.13-3.07,0-8.74-5.27-8.7
		c-2.96,0.02-2.17,0.17-2.66-0.09c-0.24-0.12,3.23-5.26,8.34-2.37C552.3,290.05,548.73,303.4,542.93,303.63z M452.94,305.73
		c-1.14-2.58,1.33-7.31,3.59-4.54C460.48,306.02,454.23,308.66,452.94,305.73z M485.45,304.62c-29.78,3.41-26.89,4.12-25.09,0.15
		c-0.48-1.65-0.99-3.39-1.53-5.27c2.37-0.32,79.91-10.42,82.65-7.65c0.8,0.8,0.38,3.5,0.04,4.84
		C537.97,299.06,541.11,298.25,485.45,304.62z M529.98,329.09c-10.27-3.61-5.23-13.61,1.02-22.68c2.57-3.73,2.73-4.08,3.11-4.45
		c0.74-0.73,3.48-0.71,3.07,0.06C532.04,311.67,531.93,322.16,529.98,329.09z M499.05,305.55c5.24,19.89,13.75,46.75,36.34,51.57
		c4.05,0.86,13.21-2.49,7.62-1.83c-4.28,0.5-6.94,1.41-10.44-0.35c-3.32-1.67-6.43-1.59-13.24-9.97c-4.05-4.98-5.29-6.36-6.39-8.07
		c-8.58-13.43-11.77-29.56-11.34-31.4c0-0.59,28.52-3.68,29.53-2.99c-10.16,12.94-7.68,13.71-9.92,15c-0.48,0.28-0.75,1.2-0.77,1.77
		c-0.37,8.05,7.88,13.97,11.15,13.12c2.75-0.72,2.97-20.46,5.92-24.91c0.07-0.1,0.21,1.06,0.21,1.16
		c-0.14,10.54,1.56,12.81,0.93,16.74c-0.97,6.02,5.96,9.71,9.59,6.97c4.59-3.46,3.15-17.44-3.64-26.72c2.16-1.62,1.42-0.8,2.68-1.85
		c12.15-10.12-2.21-25.44-7.96-21.27c-2.74,1.98-1.95-0.89-6.11,5.96c-0.11,0-30.14,4.03-32.93,3.47
		c-3.27-21.27,14.71-62.43,34.3-59.95c20.47,2.6,5.78,1.43,13.84,1.88c-24.29-13.2-42.03,10.97-47.89,35.13
		c-4.89,20.14,0.97,24.9-6.36,23.83c-1.82-10.97,3.05-49.75,25.54-63c45.55-26.83,83.19,75.88,42.25,121.04
		c-19.21,21.19-51.68,12.8-64.12-31.88C493.7,304.22,495.11,305.77,499.05,305.55z M630.98,410.08c0.25,0.25,1.2,0.71-0.32,1.22
		c-0.04,0.02-0.38-0.34-0.36-0.37C630.5,410.62,630.74,410.35,630.98,410.08z M628.58,419.56c0.7,0,0.21-0.17,0.49,1.53
		C628.28,421.08,628.45,421.42,628.58,419.56z M661.18,451.93c-4.05-1.71-8.31-0.38-15.61-6.14c-1.15-0.91-3.8-7.12-13.48-8.09
		c-11.97-1.21-4.49-7.73-4.36-11.91c0.17-5.43-0.17-2.43,2.81-6.74c0.6,0.3,3.41,1.39,4.11,1.21c2.4-0.63,4.74,0.3,6.83-0.04
		c3.19,1.37,0.1,3.79,4.04,3.28c14.33-1.78,12.55-2.76,13.65-2.03c1.04,0.69-1.56-0.03-1.87,0.34c-0.33,0.02-0.18,0.7-1.96,1.06
		c-0.28,0.06-6.57,1.76-6.68,1.79c-0.38,0.11-0.68,0.5-1.07,0.81c1.44,1.68,1.01,0.63,2.07,1.23c1.9,1.08,0.52,1.72,4.89,0.74
		c8.84-1.96,9.07-2.24,9.66-1.82c2.81,1.98-5.81,1.96-9.44,4.68c0.17,4.24,12.96-4.08,13.09-0.05c-7.72,1.69-6.76,1.24-8.96,2.88
		c-0.19,0.14-0.28,1.79,1.52,1.27c10.6-3.05,8.77-3.28,10.54-1.67c-1.15,1.31-3.04,0.81-4.32,1.76c-0.29,0.59-0.11,0.95,0.22,1.16
		c2.44,1.55,5.4-3.16,7.53-1.2c6.45,5.94,5.61-0.96,11.45,8.92C684.97,450.95,668.23,454.92,661.18,451.93z M645.48,411.66
		c3.36-2.04,6.93-0.39,9.66-3.24c1.84,10.54,4.52,8.25-10.51,10.46C644.1,415.04,645.48,418.08,645.48,411.66z M642.58,413.08
		c1.19,0.36,0.72,1.6,0.31,4.27c-1.51,0.91-2.62,0.5-4.1,0.56c-4.54,0.16-5.03,0.57-6.48-0.79c-0.78-0.73-1.53-3.21,1.58-3.14
		C637.29,414.06,636.69,415.71,642.58,413.08z M623.87,288.85c-34.45,3.98-28.85,4.57-29.47-2.22c-0.34-3.75-2.54-1.68,26.62-5.1
		c1.11-0.13,3.91-0.41,3.92-0.41C625.54,284.41,628.37,288.34,623.87,288.85z M585.1,188.81c3.01,0.06,6.4-0.64,8.5,0.55
		c3.55,13.59,3.91,13.95,4.84,18.9c5.54,29.58,28.67,47.56,23.69,58.19c-1.59,3.4,0.2,7,1.34,12c-8.39,1.07-16.56,1.93-24.81,2.82
		c-1.99-7.76-1.55-6.39-3.48-14.4c-0.68-2.76-1.97-1.57-5.39-12.96c-8.66-28.76-11.65-16.06-16.91-39.84
		c-1.43-6.49,4.77-23.95,7.3-25.43C580.8,188.29,581.27,188.74,585.1,188.81z M679.1,272.28c-15.99,1.24-7.28,2.03-15.54,0.14
		c-0.18-0.04,0.04-0.18-1.66,1.3c-2.01-1.9,2.82,2.64-7.13-21.03c1.73-0.13,1.89-0.03,1.79-0.13c-0.52-1.03-1.69-0.88-2.4-1.41
		c-13.04-21.45-13.93-20.41-6.25-17.19c0.67,0.28,8.1,3.28,7.47,2.65c-2.77-2.11-13.05-5.81-11.21-5.81
		c2.74-1.01,10.31,4.71,30.41,6.53c9.01,0.82,12.85-0.09,23.17-0.85c0.2,0.13,9.97,14.89,11.1,17.56
		C713.8,265.72,724.89,268.72,679.1,272.28z M640.96,230.99c-0.35-0.1-0.66-0.3-1.14-0.54c0.4-0.4,0.61-0.77,0.79-0.76
		C641.72,229.76,641.35,231.1,640.96,230.99z M638.76,229.8c0.13,0.26,0.07,0.19,0.25,0.31
		C637.89,229.42,638.66,229.76,638.76,229.8z M714.4,267.95c1.7,0,1.48-0.05,1.48,0.15C714.18,268.1,714.4,268.15,714.4,267.95z
		 M711.73,254.41c-5.05-12.37-8.99-15.09-11.56-18.73c5.58-1.5,7.45,2.89,17.28,1.74c2.6-0.31,10.59,0.68,16.05-4.35
		c13.97,24.45,9.65,16.6,5.65,25.5c-4.47,9.94-1.24,6.62-12.12,8.33c-2.56,0.4-8.63,0.89-8.73,0.89
		C715.51,263.44,713.57,258.95,711.73,254.41z M765.82,154.43c0.7-0.06,1.29-0.12,1.87-0.17C767.09,155,766.51,155.11,765.82,154.43
		z M762.26,155.2c1.12-0.41,0.7,0.23,0.54,0.2C762.36,155.32,762.36,155.16,762.26,155.2z M760.17,155.76l0.1,0.2
		C759.96,155.94,760.01,155.97,760.17,155.76z M758.23,134.54C758.97,134.41,758.44,134.96,758.23,134.54L758.23,134.54z
		 M769.55,156.63c1.97-0.76,3.64-1.21,5.71-0.88c0,1.89,0.36,1.73-1.38,1.74C772.51,157.49,771.14,157.29,769.55,156.63z
		 M778.56,156.88c0.48-0.71,2.47,0.12-0.25,0.12c-0.56,0.56-0.88,0.11-0.43,0.05C778.45,156.98,778.63,156.78,778.56,156.88z
		 M776,149.61c0,0-0.01,0.09-0.02,0.16C775.85,149.64,775.68,149.71,776,149.61z M775.99,148.41c1.41-1.15,1.98-0.87,2.6,0
		C777.87,148.41,777.28,148.41,775.99,148.41z M773.83,145.67c-0.1-0.03-0.2-0.07-0.3-0.1C773.84,145.5,773.74,145.48,773.83,145.67
		z M779.69,152.2c0.03-0.17,0.01-0.13,0.15-0.13c0.08-0.14,0.16-0.27,0.25-0.41C780.42,152.16,780.05,152.04,779.69,152.2
		c0,0.71-1.15,0.85-1.58,0.9C777.48,153.17,777.16,153.37,779.69,152.2z M755.9,133.63c-0.73,0.73-1.26,0.9-2.1,0.21
		C754.52,133.77,754.97,133.72,755.9,133.63z M747.86,142.06c0.15-0.28,1.39-1.17,0.34-0.22
		C747.95,141.91,748.02,141.87,747.86,142.06z M750.05,157.14c0.1,0.44,0.18,0.37,0.08,0.37
		C749.7,157.45,749.64,157.27,750.05,157.14z M745.14,168.74c1.33-0.51-1.06,3.04-0.97,1.09
		C744.19,169.33,744.49,168.98,745.14,168.74z M747.09,172.37c0.78-0.78,8.13-4.21,10.94-7.53c8.21-9.68,9.57,3.13,16.24-3.52
		c1.53-0.07,3.1-0.14,4.8-0.22c0.18,0.77,0.46,1.42,0.46,2.07c0,11.38,1.28,8.53-2.68,11.18c-3.19,2.14-0.19,6.88-1.5,15.38
		c-0.02,0.1-4.46-0.5-5.64-2.63c-0.41-0.75-1.2-0.62-1.51,0.21c-0.53,1.45,0.14,1.51,1.71,2.44c2.84,1.66,1.36,0.73,0.99,4.61
		c0,0.1-2.12,1.15-5.32,0.72c-2.74-0.37-2.99-0.11-3.29,0.69c-0.72,1.93,4.51-0.18,6.45,2.14c0.1,0.1-1.08,0.84-1.78,1.93
		c-1.13,1.73-1.22,10.3-12.6,4.03c-8.66-4.78-1.01-2.34-10.67-1.61c-5.91,0.45-9.49,4.47-6.51,3.6c2.67-0.78,3.88-2.17,7.28-0.57
		c-0.96,1.84-2.38,3.2-4.32,3.97c-13.59,5.35-16.79,6.93-21.24,5.51c-2.07-0.66-6.65-3.35-6.13-5.27c0.03-0.1-4.97-39.94,3.98-39.4
		c1.21,1.53,0.3,1.41,4.26,0.24c0.5-0.22,0.2-0.99,0.53-1.33c0.78-0.8,0.82,0.66-0.2,2.44c-5.1,8.87-1.81,4.81,0.52,2.21
		c0.61-0.68-1.37,4.2-0.99,9.2c0.12,1.65,1.41,1.33,1.36,1.46c1.12-2.85,0.85-8.65,1.77-9.4c0-0.04-0.08-0.81-0.19-2.18
		c0.74-0.98,1.27,0.04,1.91-0.13c1.95-0.52,1.54-0.82,1.63,1.2c4.04,0.32,0.81,0.74,5.76,5.32c6.51,6.02,0,5.98,4.53,11.3
		c0.87,1.02,1.35,2.38,2.48,3.2c2.01,1.44,0.46-0.8-2.86-6.83c0.5-3.32,2.19-6.22,0.76-9.19c0.93-1.62,0.93-1.62,0.86-4.04
		c3.37,0,2.74-0.51,2.54,4.31C741.23,182.43,743.44,178.09,747.09,172.37z M741.12,171.79c-0.02,0.1-0.04,0.19-0.05,0.29
		c-0.07,0.02-0.18,0.07-0.19,0.05C740.66,171.83,740.79,171.86,741.12,171.79z M739.77,169.9
		C740.22,170.22,740.19,170.41,739.77,169.9L739.77,169.9z M738.8,171.61c-0.8,0.53-1.3,0.32-1.87-0.39
		c-0.08-0.1-0.14,0.12,0.66-1.66C737.59,169.46,737.75,169.83,738.8,171.61z M737.5,163.49c-0.19,0.12-0.29-0.37-0.3-0.47
		C737.13,162.56,737.94,163.21,737.5,163.49z M737.04,153.38c0.82-0.29,0.86,0.68,0.02,0.83
		C736.86,154.24,735.23,154.02,737.04,153.38z M734.48,143.83c-0.08-0.74,1.12-0.8,0.5-0.63
		C735.04,143.8,734.2,143.91,734.48,143.83z M733.65,168.67c0.11,0,1.98-3.95,4.41-2.02c-0.15,0.75-0.95,0.42-1.31,0.66
		c-3.03,1.9-3.89,0.46-3.65,4.03c2.5-1.26,1.97-1.48,1.97,1.37c-1.49,1.71-1.31,1.33-1.25,1.43c1.5,1.86-0.94,1.16,3.23,4.42
		c-0.07,0.14,0.29-0.43-1.09,1.63c-2.17-2.71-4.45-4.81-4.55-7.45C731.35,170.61,733.09,168.64,733.65,168.67z M731.39,161.88
		c0.77-0.2-0.21,0.91-0.26,0.18C731.12,161.96,731.28,161.9,731.39,161.88z M730.72,167.73c0.79-1.56,2.93-2.5,2.4-1.91
		C731.3,167.84,729.7,169.76,730.72,167.73z M698.34,214.23c10.72-16.06,9.32-24.11,6.81-42.4c-2.44-0.78-15.59-10.66-31.89-6.17
		c-5.95,1.64-3.98,5.13-11.3,2.68c-19.72-6.62-36.37,7.32-37.65,1.77c-1.74,2.32-1.45,1.83-6.65,2.88c-0.21-2.21-0.37-0.8,0.46-4.9
		c-2.45,2.53-0.34,6-4.33,5.16c-0.86-0.18-6.75,2.79-9.1,2.92c-0.95-3.01-0.88-4.97,0.57-7.39c4.49-7.46,46.87-4.97,53.38-7.14
		c18.29-6.1,15.11-5.23,41.82-6.14c3.54-0.12,1.36,1.94,23.79,3.56c1.34,1.64-1.48,0.89,0.35,3.85c-1.83,6.29-1,2.16,0.9,4.48
		c-2.17-0.36-1.72-0.79-2.18-0.79c0.24-0.3-10.1,0.15-11.22,3.44c-1.15,3.36-2.41,6.7-3.14,10.12c-1.15,5.4,2.33,13.67,0.71,16.24
		c-0.52,3.61-0.44,9.44,1.3,13.54c2.64,6.22,1.87,7.53,5.15,7.5c4.35-0.04,5.31,1.53,10.75-0.04c5.89-1.7,24.09-8.24,21.99-13.94
		c-0.04-0.1,1.76-0.21,4.84,1.92c-1.37,6.33-2.43,12.93-8.11,15.3c-0.18,0.66-0.21,1.36-0.56,1.87
		c-0.97,1.45-14.05,8.64-21.12,10.37c-11.68,2.85-22.36,2.58-17.74,0.11c2.06-1.1,6.1-3.86,6.83-5.87
		c-21.9,9.3-23.81,9.86-58.1,4.11c-7.71-1.29-6.07-2.38-8.28-2.92c-5.9-1.45-5.63-2.52-11.46-3.74c-0.76-2.91-0.84-5.86-1.19-8.78
		c-0.35-2.84-1.82-5.96-1.65-8.75c0.8-1.11,11.42,2.74,22.3,3.63C669.54,225.65,694.79,219.54,698.34,214.23z M635.51,230.11
		c1.28,0.19,1.83,1.11,2.6,2.48C635.44,231.57,635.44,231.57,635.51,230.11z M645.38,261.3c-4.52-4.35-9.62-27.03-8.97-27.91
		c2.75,0.92,5.04,1.91,6.49,4.36c7.2,12.21,2.96,2.08,13.65,24.53c0.68,1.44,0.18,0.9,1.08,6.47c-2.91,0.59-5.45,1.11-8.46,1.72
		C648.71,266.84,643.9,264.12,645.38,261.3z M650.14,272.3c0-0.1,3.78-1.47,7.46-1.8c1.5,1.12,1.24,3.49,1.54,3.18
		c-0.86,0.9-1.35,0.85-7.4,1.72C650.85,274.34,650.22,273.56,650.14,272.3z M653.18,280.77c-0.13-5.45-8.64-2.04,72.86-11.36
		c19.09-2.17,16.46-2.21,17.95-0.5c1.74,2,1.96,3.93,0.32,6.17c-2.09,0.25-76.49,8.94-93.22,10.18
		C650.76,285.25,653.24,283.36,653.18,280.77z M700.07,395.2c-1.52-0.76-2.83-1.23-2.01-4.09c0.48-1.67,2.72,0.72,6.94-0.25
		c8.22-1.87,6.13-2.7,8.66,1.27c0.08,0.1-1.47,0.74-1.57,0.78C705.36,395.61,703.57,396.95,700.07,395.2z M715.58,392.58
		c-0.53-1.38-1.05-2.74-1.63-4.25c0.11-0.11,0.98-0.85,1.38-0.85c8.11-0.08,3.85-4.34,9.37,3.27
		C725.26,391.53,716.78,392.42,715.58,392.58z M732.87,402.99c-0.07-0.04-0.13-0.09-0.2-0.13
		C732.57,402.75,733.48,402.87,732.87,402.99z M832.79,204.74C833.21,204.75,833,204.74,832.79,204.74
		C833.21,204.77,833,204.76,832.79,204.74z M768.61,272.36c-2.34,0.25,0.9-0.73,0.02-7.43c1-0.39,54.19-7.09,56.69-5.59
		c2.76,1.66,2.99,5.82-2.05,6.87C822.99,266.27,768.71,272.36,768.61,272.36z M834.8,270.84c-3.92,10.04-14.82,10.19-19.7-0.89
		c1.69-1.55,5.14-0.09,10.65-2.5c3.85-1.68,4.89-6.58,2.81-9.19c-2.67-3.34-6.01-2.11-12.96-1.38c-2.12,0.23-2.11,0.53-1.27-2.27
		C819.98,235.69,842.75,250.45,834.8,270.84z M834.2,249.9c0.17,0,0.45,0.03,0.55,0.48c6.39,5.52,4.37,20.22,2.1,20.8
		c0,1.86-0.65,0.93-0.65,1.37c-0.31,0.12,0.62,0.57-1.46,1.96c-0.89,2.97,7.23-10.05,0.25-23.03c-0.11-0.21-0.11-0.52-0.12-0.76
		c-0.02-0.36-2.06-2.01-1.47-1.6C834.34,250.03,834.19,249.89,834.2,249.9z M833,319.17c-26.5,2.68-44.05-34.31-43.39-46.68
		c7.07-1.01,22.69-2.73,23.42-2.73c9.32,16.94,25.12,10.9,27.13-2.22c3.64-23.75-18.82-29.75-25.61-17.23
		c-5.18,9.55,1.63,6.17-14.13,8.34c-6,0.82-11.83,1.21-11.81,1.31c-2.92-14.1,8.7-52.13,36.12-53.91
		C876.98,202.66,886.76,313.69,833,319.17z M846.47,317.28c-0.15,0.3-0.17,0.57-0.57,0.47c-0.89-0.21,12.84-5.99,20.38-25.25
		c10.02-25.58,3.93-57.03-11.85-74.47c-9.25-10.21-17.14-11.46-19.15-12.82c12.14-2.02,35.19,11.77,41.72,44.7
		C883.01,280.16,869.77,314.88,846.47,317.28z M881.56,259.43c-1.61,0.15-1.34-0.74-2-6.92c1.73-0.67,14.19-2.43,16.22-1.6
		c3.43,1.39,2,6.03-0.65,6.94C894.61,258.03,881.67,259.43,881.56,259.43z"/>
	<path d="M590.67,183.81c0.1,0.09,0.06,0.11,0.19-0.03C590.8,183.79,590.73,183.8,590.67,183.81z"/>
	<path d="M694.41,179.12c5.05,2.42,3.7-5.9-13.35-4.78c-7.13,0.47-3.95,1.68-3.4,1.61c3.45-0.4,5.03,0.53,6.04-0.04
		C686.19,174.52,688.53,176.3,694.41,179.12z"/>
	<path d="M197.48,297.74c3.18,2.38,0.13,5.78,2.2,9.79c-0.63,2.3-1.07,3.91,0.75,5.61c0.45-14.48,0.59-14.68-1.86-16.61
		c-3.45-2.71-0.42-3.32-3.7-3.21C194.91,295.48,196.1,296.71,197.48,297.74z"/>
	<path d="M196.43,293.26c0.12,0,0.12,0.02-0.03-0.11C196.4,293.19,196.42,293.22,196.43,293.26z"/>
	<path d="M220.29,213.03c0.01,1.62,0.33,1.53,1.35,2.7c1.32-7.43-0.49-14.87-2.63-15.19C217.62,203.13,220.21,203.44,220.29,213.03z
		"/>
	<path d="M196.39,293.15c0.12,0.12,0.2,0.16,0.04,0C196.44,293.16,196.43,293.15,196.39,293.15z"/>
	<path d="M196.44,293.16c2.79,0.27,2.46,0.23,2.5,0.24c0.41-1.45-0.69-1.66-2.59-4.71c-1.88-3.02-1.53-4.22-2.98-4.22
		C193.36,284.57,191.27,286.56,196.44,293.16z"/>
	<path d="M611.12,204.4c-0.24-1.35-3.44-3.88-3.98-4.24c-4.32-2.93-3.16-5.34-4.06-6.22c-1-0.97-0.89-0.03-0.92,1.02
		C602.04,198.14,608.54,204.4,611.12,204.4z"/>
	<path d="M602.24,193.43c-0.14-0.05,0,0-0.11,0.08C602.24,193.51,602.24,193.61,602.24,193.43z"/>
	<path d="M611.14,204.49c0.1-0.1,0.11-0.09-0.01-0.08C611.13,204.43,611.13,204.46,611.14,204.49z"/>
	<path d="M644.82,195.79c-0.17-0.13-5.38-0.25-7.1,0.49C639.99,199.94,647.23,197.57,644.82,195.79z"/>
	<path d="M197.01,222.62c2.09,5.58,6.68,6.81,6.68,6.71C203.75,228.62,194.9,216.98,197.01,222.62z"/>
	<path d="M603.14,208.57c0,4.35,1.49,7.38,3.83,11.45C606.78,217.81,604.77,208.64,603.14,208.57z"/>
	<path d="M657.12,195.63c-12.67,1.84-10.52,1.36-8.8,1.78C651.97,198.3,658.42,199.14,657.12,195.63z"/>
	<path d="M633.05,328.1c0.11-0.85-2.48-3.11-2.76,5.24c-0.03,0.86,0.08,1.75,0.6,2.69C631.86,335.15,631.98,336.41,633.05,328.1z"/>
	<path d="M207.66,266.01c-0.09,3.72,4.5-3.43,0.55-10.68C208.01,259.32,207.74,262.66,207.66,266.01z"/>
	<path d="M648.62,329.06c3.95-8.94-2.39-13.72-1.49-11.55c1.24,2.89,1.49,5.95,1.06,9.01C648.05,327.47,647.93,328.34,648.62,329.06
		z"/>
	<path d="M665.47,210.64c2.89-0.65-8.21-16.3-2.39-2.74C663.9,209.83,663.93,210.98,665.47,210.64z"/>
	<path d="M190.37,271.16c-1.41,0.07-0.78,1.34,1.17,6.54C193.38,282.62,192.66,271.04,190.37,271.16z"/>
	<path d="M644.73,309.61c-0.11-0.17-0.51-0.17-1.03-0.32c0.03,0.13,1.36,7.7,1.44,7.82C646.73,316.32,646.28,312.23,644.73,309.61z"
		/>
	<path d="M602.79,185.72c-1.05,0.67-1.22-0.32-1.59,6.1C601.09,193.62,603.47,195.54,602.79,185.72z"/>
	<path d="M201.45,379.41c-0.45-1.41-1.08-2.98-2.13-1.93c0.58,2.86,3.1,5.02,3.21,8.2C204.4,383.98,202.69,383.28,201.45,379.41z"/>
	<path d="M638.16,278.5c-1.26-1.89-1.77-6.29-3.2-5.07c-0.5,0.43,0.95,3.33,1.52,4.04c1.05,1.3,0.73,3.01,1.67,4.83
		C639.49,279.86,638.1,278.4,638.16,278.5z"/>
	<path d="M192.21,301.28c0.28-0.95,1.23-4.12,2.06-6.87C192.73,292.77,190.77,296.26,192.21,301.28z"/>
	<path d="M648.67,303.04c-1.37-4.45-0.57-9.82-1.93-7.82c-0.69,1.02-0.35,2.19-0.4,3.3C646.25,300.35,647.69,301.54,648.67,303.04z"
		/>
	<path d="M608.2,209.24c0.15,1.09,0.44,2.21,1.59,3.28C609.82,202.76,607.49,204.2,608.2,209.24z"/>
	<path d="M640.45,332.74c-1.14,1.89-1.86,5.77-0.21,7.07C641.24,337.32,641.39,334.64,640.45,332.74z"/>
	<path d="M193.89,361.44c1.55,1.27,4.6,0.43,4.47-1.65C195.02,359.78,191.31,359.32,193.89,361.44z"/>
	<path d="M228.32,197.52c3.79,0.33,5.51-3.26,3.58-2.66c-0.06,0.02,0.59-0.2-4.72,1.49C227.12,197.24,227.54,197.45,228.32,197.52z"
		/>
	<path d="M178.66,405.24c-0.07-0.12-0.99-0.8-1.02-0.7C175.96,412.7,180.97,409.47,178.66,405.24z"/>
	<path d="M186.68,314.07c-1.37,3.75,1.03,8.4,1,5.64C187.67,318.51,187.14,312.81,186.68,314.07z"/>
	<path d="M679.96,205.13c1.78,0.51,4.37,0.8,5.5-0.68C679.47,204.11,674.14,203.46,679.96,205.13z"/>
	<path d="M194.4,215.8c0.15,1.36,0.67,2.32,1.3,3.45C195.7,207.81,194.15,213.56,194.4,215.8z"/>
	<path d="M205.95,230.13c-1.35,0.44,1.61,4.2,2.7,5.15C208.58,231.93,206.77,229.87,205.95,230.13z"/>
	<path d="M204.14,363.67c0.91-1.37-5.32,1.19-6.14,1.53C202.37,365.41,203.07,365.3,204.14,363.67z"/>
	<path d="M597.59,186.76c-0.14,1.63-0.11,1.74,0.51,3.27C599.5,186.14,597.83,183.93,597.59,186.76z"/>
	<path d="M631.64,343.01c-0.76-2.19-3.38,1.37-0.26,3.28C631.95,344.98,631.97,343.98,631.64,343.01z"/>
	<path d="M636.48,410.29c1.38-2.12,1.64-4-0.37-5.59C635.75,406.79,635.57,408.36,636.48,410.29z"/>
	<path d="M611.86,230.23c-0.23-1.98-0.89-3.39-2.25-4.47C609.71,227.47,609.9,229.1,611.86,230.23z"/>
	<path d="M218.87,194.11c0.94-2.28,0.81-1.57,0.04-2.69C217.7,192.63,217.23,193.59,218.87,194.11z"/>
	<path d="M200.09,315.4c-0.22,1.33-0.02,2.46,0.98,3.69C201.37,317.52,201.27,316.41,200.09,315.4z"/>
	<path d="M631.26,351.35c-0.16-0.89-0.12-0.54-0.9-1.14C628.86,353.13,631.88,354.88,631.26,351.35z"/>
	<path d="M192.88,305.79c-0.15-1.65-1.9-1.69-1.71-0.77C191.17,306.54,193.05,307.69,192.88,305.79z"/>
	<path d="M629.51,183.21c0.67,1.54,0.86,1.65,1.99,2.26c-0.38-1.24-0.5-1.74-1.3-2.32C628.93,182.23,629.16,182.41,629.51,183.21z"
		/>
	<path d="M629.21,182.51C629.13,182.31,629.03,182.4,629.21,182.51L629.21,182.51z"/>
	<path d="M204.82,182.7c-0.12,0.8,0.93,0.97,0.93,0.87c0.39-0.78,0.71-1.42,1.16-2.32C205.46,181.2,204.96,181.76,204.82,182.7z"/>
	<path d="M612.5,215.13c-1.22-3.67-1.9-0.07,0.78,2.5C612.94,216.54,612.72,215.78,612.5,215.13z"/>
	<path d="M176.72,400.47c-0.73,2.3,0.8,3.51,1,1.45C177.78,401.33,177.54,400.85,176.72,400.47z"/>
	<path d="M205.5,251.01c1.94,5.52,2.33,1.19,0.54,0.27C205.88,251.2,205.7,251.11,205.5,251.01z"/>
	<path d="M195.42,261.71c0.35-1.02-0.21-1.61-1.23-2.37C193.83,261.15,193.83,261.16,195.42,261.71z"/>
	<path d="M630.56,359c-1.02-1.53-1.67,1.78,0.14,1.78C630.94,360.13,630.93,359.56,630.56,359z"/>
	<path d="M617.04,222.44c-0.71,3.16,2.05,4.75,0.15,0.36C617.14,222.69,617.08,222.57,617.04,222.44z"/>
	<path d="M204.08,361.9c0.25-0.37-0.91-0.49-0.77-0.49c-0.59-0.01-1.09,0.54-1.62,0.93C202.6,362.44,203.5,362.97,204.08,361.9z"/>
	<path d="M199.14,237.19c-0.07-0.88-0.13-1.55-0.18-2.22C197.78,235.88,197.83,236.58,199.14,237.19z"/>
	<path d="M639.58,343.21c-0.14,0-0.52,0.18-0.54,0.33c-0.21,2.23,0,1.86,0.73,1.87C639.77,345.1,640.31,343.13,639.58,343.21z"/>
	<path d="M636.11,401.71c-0.62-2.5-2.16,0.46-0.36,1.66C636.17,402.88,636.27,402.35,636.11,401.71z"/>
	<path d="M615.93,221.22c0.03-1.33-0.4-2.27-1.24-3.91C614.69,219.05,614.61,220.23,615.93,221.22z"/>
	<path d="M659.52,192.75c-0.26,0.89-0.29,1.7,0.59,2.33C660.86,193.47,660.82,193.48,659.52,192.75z"/>
	<path d="M211.61,237.53c0.55,0.22,0.97-1.35-0.79-1.75C210.69,236.8,210.98,237.27,211.61,237.53z"/>
	<path d="M643.28,308.09c0.1-1.59,0.1-1.59-0.89-2.17C642.2,306.83,642.41,307.55,643.28,308.09z"/>
	<path d="M192.99,310.45c0.25,0.54,1.47,0.23,1.07-0.17C193.05,308.03,192.58,309.57,192.99,310.45z"/>
	<path d="M647.38,336.96c0,0.29,0.26,0.46,0.44,0.73c0.12-0.12,0.37-0.24,0.4-0.38C648.71,334.49,647.4,335.93,647.38,336.96z"/>
	<path d="M636.57,195.11c-0.52-0.92-1.26-1.11-2.28-0.82C635.34,195.55,635.34,195.55,636.57,195.11z"/>
	<path d="M218.35,198.88c0-0.98,0-1.69,0-2.49C217.13,197.36,217.12,197.36,218.35,198.88z"/>
	<path d="M613.51,233.88c-0.45-1.56-0.45-1.55-1.55-2.19C612.37,232.55,612.23,233.42,613.51,233.88z"/>
	<path d="M639.54,350.16c0.66,0.11,0.68-0.7,0.61-1.36C640,347.53,638.18,349.94,639.54,350.16z"/>
	<path d="M202.32,323.57c-0.18-0.47-0.37-0.93-0.63-1.61C201.16,322.96,201.23,323.92,202.32,323.57z"/>
	<path d="M641.07,303.47c-0.06-0.73,0.07-0.5-0.5-0.93C640.56,303.24,640.43,303.09,641.07,303.47z"/>
	<path d="M648.79,307.87c-0.53-0.09-0.63,0.33-0.63,0.85c0,0.26,0.25,0.51,0.66,1.29C648.95,309.56,649.64,308.01,648.79,307.87z"/>
	<path d="M202.95,327.06c0.08-0.3,0.34-0.33-0.51-0.92c-0.02-0.01-0.14,0.12-0.22,0.18C202.47,326.56,202.71,326.81,202.95,327.06z"
		/>
	<path d="M209.13,272.85c0.29,1.4,0.23,1.07,0.7,1.38C210.21,273.28,209.03,272.4,209.13,272.85z"/>
	<path d="M647.61,344.88c0-0.1,0.04-0.91,0.04-1.5c0-0.45-0.59-0.05-0.59,0.08C647.04,345.17,647.23,344.89,647.61,344.88z"/>
	<path d="M630.28,191.07c1.02,1.19,0.77,0.93,1.4,0.61c-0.07-0.32,0.21-0.27-1.17-0.82C630.47,190.84,630.28,191.07,630.28,191.07z"
		/>
	<path d="M209.29,179.01c-0.33-0.44-0.35-0.79-1.03,0.05c-0.03,0.04,0.19,0.29,0.3,0.45C208.8,179.34,209.04,179.18,209.29,179.01z"
		/>
	<path d="M210.13,381.32c0.79,0.82,0.46-0.55,0.42-0.65C210.21,379.7,208.58,379.72,210.13,381.32z"/>
	<path d="M209.5,379.83c-0.1,0.1-0.12,0.08,0.01,0.1C209.52,379.89,209.5,379.87,209.5,379.83z"/>
	<path d="M645.31,277.06c1.62,2.41,0.92-0.97-0.32-0.97C644.99,276.22,645.02,276.63,645.31,277.06z"/>
	<path d="M644.98,275.95c-0.12-0.12-0.11-0.15-0.08,0.08C645.05,276.13,644.97,276.08,644.98,275.95z"/>
	<path d="M214.51,240.31c0.4-0.79,0.46-0.52-0.42-1.14C213.71,239.93,213.65,239.45,214.51,240.31z"/>
	<path d="M640.73,275.56c-0.29,1.34,1.46,0.65,0.38-0.49C640.88,275.23,640.76,275.4,640.73,275.56z"/>
	<path d="M238.15,195.39c-0.34-0.03-0.11,0.66,0.06,0.66C239.58,196.05,240,195.54,238.15,195.39z"/>
	<path d="M233.58,196.1c0.8,0,1.34,0,2.05,0C234.94,195.21,234.39,195.33,233.58,196.1z"/>
	<path d="M210.84,278.05c-0.1-0.14-0.08-0.15-0.08,0.07C210.86,278.12,210.84,278.25,210.84,278.05z"/>
	<path d="M210.76,276.4c-0.45,0.65-0.36,1.06,0,1.54C210.76,277.41,210.76,276.94,210.76,276.4z"/>
	<path d="M641.69,277.83c-0.1,1.98,0.47,1.27,0.45,1.17C641.93,277.45,641.69,277.72,641.69,277.83z"/>
	<path d="M201.52,240.69c0.23-0.68,0.2-0.51-0.32-0.85C201.01,240.42,200.95,240.24,201.52,240.69z"/>
	<path d="M661.65,179.3c-0.07,0.15,0.07,0.4,0.12,0.61C663.01,179.1,661.81,178.93,661.65,179.3z"/>
	<path d="M205.31,379.29c0.11,1.14,0.27,0.84,0.71,0.59c-0.1-0.27-0.2-0.55-0.3-0.83C205.58,379.14,205.3,379.23,205.31,379.29z"/>
	<path d="M670.15,176.93c0.07-0.1-0.3-0.52-0.51-0.27C669.55,176.77,669.93,177.23,670.15,176.93z"/>
	<path d="M206.28,382.98c0,0.02,0.15,0.01,0.23,0.02C207.02,383,205.83,379.7,206.28,382.98z"/>
	<path d="M673.57,175.43c0.01,0.09,0.02,0.18,0.03,0.27C674.55,175.22,673.51,174.75,673.57,175.43z"/>
	<path d="M663.13,175.03c-0.23-0.17-0.46-0.34-0.71-0.53c-0.08,0.25-0.26,0.54-0.19,0.65C662.6,175.75,663.03,175.13,663.13,175.03z
		"/>
	<path d="M666.26,196.5c-0.69,0.07-0.3,0.03,0.55,0.88C666.77,196.96,666.89,196.44,666.26,196.5z"/>
	<path d="M202.31,243.47c-0.09,0.26-0.11,0.21,0.07,0.21L202.31,243.47z"/>
	<path d="M661.64,199.81c0.1,0.17,0.24,0.22,0.24-0.29C661.62,199.69,661.56,199.68,661.64,199.81z"/>
	<path d="M614.8,193.45L614.8,193.45C614.8,194.1,616.21,193.93,614.8,193.45z"/>
	<path d="M193.97,313.43c0.24-0.3,0.32-0.53-0.07-0.57C193.93,313.05,193.95,313.24,193.97,313.43z"/>
	<path d="M204.59,248.57c-0.08-0.62-0.76,0.41-0.21,0.41C204.55,249.06,204.68,249.2,204.59,248.57z"/>
	<path d="M590.36,183.92c-0.13,0-0.09,0.05,0.01,0L590.36,183.92z"/>
	<path d="M590.37,183.92c0.09-0.01,0.23-0.02,0.38-0.03C590.64,183.79,590.48,183.88,590.37,183.92z"/>
	<path d="M590.37,183.92L590.37,183.92C590.28,183.96,590.24,183.97,590.37,183.92z"/>
	<path d="M630.89,364.48c0.27-0.48,0.38-0.46,0.06-0.66C630.76,363.69,630.49,364.13,630.89,364.48z"/>
	<path d="M196.46,220.93c0.06-0.06-0.75-1.42-0.66-1.5C195.22,218.49,196.68,221.7,196.46,220.93z"/>
	<path d="M612.08,205.41c0.03,0.03,0.16-0.01,0.2-0.01C612.18,205.36,611.81,205.14,612.08,205.41z"/>
	<path d="M612,205.28L612,205.28C611.88,205.07,611.75,205.18,612,205.28z"/>
	<path d="M611.83,205.04c0,0.22-0.02,0.19,0.09,0.09C611.82,205.04,611.83,205.04,611.83,205.04z"/>
	<path d="M611.3,204.5c0.18,0.18,0.35,0.37,0.53,0.55C611.82,204.7,611.65,204.52,611.3,204.5z"/>
	<path d="M611.3,204.5L611.3,204.5C611.19,204.38,611.03,204.47,611.3,204.5z"/>
	<path d="M666.85,197.59c0.1-0.1,0.64,0.4-0.04-0.2C666.81,197.48,666.81,197.48,666.85,197.59z"/>
	<path d="M618.19,195.62c-0.08-0.46,0.28,0.12-0.72-0.84C617.34,194.91,618.21,195.72,618.19,195.62z"/>
	<path d="M618.42,195.81l-0.23-0.19C618.22,195.81,618.25,195.75,618.42,195.81z"/>
	<path d="M617.47,194.78c-0.08-0.04-0.17-0.09-0.26-0.13C617.42,194.9,617.36,194.89,617.47,194.78z"/>
	<path d="M614.7,193.41c0.16,0.06,0.09,0.05,0.08-0.09C614.49,193.23,614.53,193.21,614.7,193.41z"/>
	<path d="M614.37,193.19c0.17,0.05,0.09,0.03,0.19,0.06C614.66,193.25,614.47,193.19,614.37,193.19z"/>
	<path d="M204.72,249.29c0.04,0.13,0.52,0.31-0.02-0.05C204.7,249.26,204.72,249.28,204.72,249.29z"/>
	<path d="M204.67,249.1L204.67,249.1C204.47,248.99,204.76,249.43,204.67,249.1z"/>
	<path d="M607.17,220.32c-0.26-0.31-0.2-0.45-0.17-0.04L607.17,220.32z"/>
	<path d="M628.79,182.01c-0.22,0.13-0.21,0.09,0.31,0.33C629.09,182.22,629.17,181.78,628.79,182.01z"/>
	<path d="M629.08,182.43c0.08-0.08,0.09-0.06,0.01-0.09L629.08,182.43z"/>
	<path d="M209.23,379.56c0.08,0.08,0.12,0.12,0.18,0.17C209.38,379.59,209.38,379.64,209.23,379.56z"/>
	<path d="M209.4,379.73C209.4,380,209.56,379.88,209.4,379.73L209.4,379.73z"/>
	<path d="M644.7,275.68c-0.1-0.05,0.07,0.07,0.18,0.17C644.85,275.71,644.85,275.76,644.7,275.68z"/>
	<path d="M93.91,459.7c0.39-0.32,0.23-0.17-0.08-0.09C93.77,459.72,93.78,459.71,93.91,459.7z"/>
	<path d="M283.88,194.71L283.88,194.71C281.67,192.48,284.39,195.56,283.88,194.71z"/>
	<path d="M624.35,170.07c-0.02-0.14,0.01-0.1-0.07-0.06C624.32,170.15,624.31,170.12,624.35,170.07z"/>
	<path d="M714.98,289.8c0.16,0.01,0.2,0.05,0.08-0.09l-0.02-0.01L714.98,289.8z"/>
	<path d="M741.26,194.05C743.43,196.29,740.75,193.14,741.26,194.05L741.26,194.05z"/>
	<path d="M724.07,174.84c-0.1,5.88,1.15,6.85,1.07,7.19c0.63-2.61,0.55-6.13-0.29-8.38c-0.18,0.27-0.85,1.28-0.85,1.3
		C724.03,174.9,724.03,174.9,724.07,174.84z"/>
	<path d="M656.59,252.61c0.03,0.01,0.07,0.01,0.1,0.01c-0.01-0.03-0.03-0.05-0.05-0.08C656.52,252.55,656.57,252.54,656.59,252.61z"
		/>
	<path d="M733.03,171.38c0.12,0.12,0.07,0.09,0.07-0.04C733.07,171.35,733.05,171.36,733.03,171.38z"/>
	<path d="M671.02,170.75l0.01,0C671.19,170.67,671.22,170.59,671.02,170.75z"/>
	<path d="M665.06,175.27c0.45,0.68,0.97,0.68,1.26,0.33c2.21-2.61,7.11-2.2,12-5.18C675.73,166.73,668.86,172.39,665.06,175.27z"/>
	<path d="M672.42,170.05l0.08-0.01c0.01-0.03,0.02-0.05,0.03-0.08C672.43,169.96,672.45,169.95,672.42,170.05z"/>
	<path d="M95.8,337.97c3.4,0.56,0.29-1.78-1.92-0.67C95.57,337.99,95.9,337.99,95.8,337.97z"/>
	<path d="M93.75,337.38c0.04-0.03,0.09-0.05,0.13-0.08c-0.02-0.01-0.06-0.02-0.06-0.02C93.64,337.26,93.7,337.25,93.75,337.38z"/>
	<path d="M98.01,458.76c0.6-0.29,1.12-0.55,1.64-0.8C99,457.95,97.94,457.13,98.01,458.76z"/>
	<path d="M94.12,459.53L94.12,459.53C94.22,459.45,94.19,459.47,94.12,459.53z"/>
	<path d="M94.12,459.53L94.12,459.53C94.22,459.53,94.24,459.49,94.12,459.53z"/>
	<path d="M152.05,216.63c-20.79-5.56-15.56-6.07-18.88-6.67c-0.1-0.02,0.09,1.09,2.38,2.27
		C147.45,218.33,159.61,218.65,152.05,216.63z"/>
	<path d="M133.15,209.88l-0.07-0.03c0,0.03,0.01,0.06,0.01,0.09c0.03,0.01,0.06,0.01,0.09,0.01
		C133.17,209.93,133.15,209.91,133.15,209.88z"/>
	<path d="M124,188.37c1.59,0.54,4.76-0.39,12.27,0.47C136.27,186.35,118.92,186.65,124,188.37z"/>
	<path d="M165.36,231.8c25.61,12.03,3.47-0.56-1.48-1.22C164.68,231.25,164.98,231.62,165.36,231.8z"/>
	<path d="M127.42,231.59c-4.94-6.94-7.91-12.08-7.9-11.94c0.27,3.24,8.13,14.91,9.32,14.91
		C128.69,233.32,128.19,232.68,127.42,231.59z"/>
	<path d="M140.18,196.46c-4.49-0.36-8.84,0.66-13.51,1.48C141.43,198.39,142.11,196.62,140.18,196.46z"/>
	<path d="M155.77,209.68c-11.44-2.74-10.81-4.02-12.29-3.85C144.31,209.28,162.79,211.37,155.77,209.68z"/>
	<path d="M143.39,205.83c0.06,0,0.06-0.01,0.09-0.01C143.46,205.74,143.38,205.67,143.39,205.83z"/>
	<path d="M148.22,197.18c0.28,0.19,1.57,0.2,1.63,0.25C146.19,194.3,132.97,186.88,148.22,197.18z"/>
	<path d="M140.66,192.08c0.06,0.01,0.12,0.01,0.19,0.01C140.72,191.97,140.77,191.97,140.66,192.08z"/>
	<path d="M137.01,182.81c-0.99-1.76-1.99-1.33-3.55,0.08C135.33,183.33,135.33,183.31,137.01,182.81z"/>
	<path d="M172.56,241.69c-7.67,0.11,3.01,0.88,3,0C174.56,241.68,173.56,241.67,172.56,241.69z"/>
	<path d="M124.06,220.85c0.1,0.06,0.14-1.2-1.2-1.93C122.79,219.85,123.35,220.39,124.06,220.85z"/>
	<path d="M122.8,218.87c0.11,0.06,0.06,0.07,0.08-0.08C122.7,218.82,122.62,218.72,122.8,218.87z"/>
	<path d="M124.08,220.86c0,0.05,0,0.09,0,0.14C124.18,220.89,124.18,220.92,124.08,220.86z"/>
	<path d="M121.11,212.5l0.07,0.01c-0.11-0.07-0.08-0.05,0,0C121.16,212.51,121.11,212.5,121.11,212.5z"/>
	<path d="M121.46,212.56c-0.2-0.03-0.28-0.05-0.28-0.05C121.42,212.66,121.37,212.66,121.46,212.56z"/>
	<path d="M121.86,217.98c0.2,0.13,0.2,0.2,0.17-0.26C121.98,217.12,121.38,217.68,121.86,217.98z"/>
	<path d="M140.59,191.92c-0.31-0.59-1.12-0.48-1.02-0.48C139.67,191.49,140.48,191.87,140.59,191.92z"/>
	<path d="M140.59,191.92c0.03,0.05,0.06,0.1,0.08,0.17C140.78,191.97,140.77,192.01,140.59,191.92z"/>
	<path d="M139.57,191.44c-0.27-0.13-0.2-0.13-0.32-0.01C139.33,191.43,139.57,191.44,139.57,191.44z"/>
	<path d="M138.93,190.89c-0.03-0.04-0.19,0.03-0.3,0.05C139.12,191.21,139.3,191.36,138.93,190.89z"/>
	<path d="M139.34,191.33l-0.21-0.12C139.28,191.48,139.23,191.45,139.34,191.33z"/>
	<path d="M132.06,183.47c-0.33-0.19-0.17-0.18-0.56-0.07C131.82,183.59,131.67,183.58,132.06,183.47z"/>
	<path d="M125.35,222.21c-0.07-0.19-0.17-0.33-0.34-0.45C125.72,223.52,125.38,222.32,125.35,222.21z"/>
	<path d="M125.4,223.06c-0.1,0.1,1.12,0.99,0.89,0.62C125.21,222.82,125.45,222.57,125.4,223.06z"/>
	<path d="M143.36,205.53c-0.05-0.09-0.36-0.18,0.03,0.17C143.39,205.6,143.41,205.63,143.36,205.53z"/>
	<path d="M129.7,235.28c0.12-0.12,0.17,0.1-0.74-0.63C128.85,234.76,129.55,235.43,129.7,235.28z"/>
	<path d="M129.76,235.38c-0.02-0.04-0.05-0.07-0.06-0.1C129.65,235.2,129.92,235.63,129.76,235.38z"/>
	<path d="M124.84,221.65L124.84,221.65C125.88,222.16,122.72,219.82,124.84,221.65z"/>
	<path d="M122.17,218.34c0.02,0.06,0.04,0.12,0.07,0.17C122.32,218.66,123.17,219.19,122.17,218.34z"/>
	<path d="M122.03,218.23L122.03,218.23C122.39,218.53,122.11,218.14,122.03,218.23z"/>
	<path d="M121.38,212.64c0.2,0.22,0.17,0.25,0.08-0.08C121.36,212.66,121.39,212.63,121.38,212.64z"/>
	<path d="M133.06,209.72c-0.04-0.32-0.14-0.36-0.46-0.04C133.15,209.88,133.09,210.01,133.06,209.72z"/>
	<path d="M169.49,201.38c-2.64-13.11-8.37-10.67-2.84-33.61c0.02-0.1-3.88,5.72-3.54,14.81c0.31,8.39,5.02,17.82,5.71,18.47
		C169.71,201.88,169.47,201.26,169.49,201.38z"/>
	<path d="M157.4,175.54c-0.02,0.4-0.02,0.81,0,1.23C161.24,161.62,157.56,171.17,157.4,175.54z"/>
	<path d="M154.09,176.95c0.23-1.44,1.4-2.72,0.56-4.83C153.67,173.92,153.61,175.39,154.09,176.95z"/>
	<path d="M170.56,182.94c0.25,0,0.19,0.47,0.19-3.88C170.5,179.07,170.56,178.6,170.56,182.94z"/>
	<path d="M170.16,202.54c-0.24-1.68-1.14-0.26,0.05,0.31C170.19,202.76,170.17,202.61,170.16,202.54z"/>
	<path d="M169.62,201.6c-0.17-0.13-0.08,0.06,0,0.09C169.62,201.66,169.62,201.64,169.62,201.6z"/>
	<path d="M176.5,207.79c0.63,0.02,0.61,0.25,0-1.13C176.5,206.67,176.5,207.59,176.5,207.79z"/>
	<path d="M177.04,207.89c0.12-0.12,0.62,0.87,0.85,0.63C177.77,208.41,176.82,207.39,177.04,207.89z"/>
	<path d="M156.83,178.09l-0.01-0.01c0,0.47,0.12,0.37,0.13,0.09C156.93,178.14,156.87,178.11,156.83,178.09z"/>
	<path d="M170.42,203.29C170.44,203.32,170.42,203.29,170.42,203.29L170.42,203.29z"/>
	<path d="M170.32,202.92L170.32,202.92C170.27,202.9,170.52,203.69,170.32,202.92z"/>
	<path d="M170.42,203.29L170.42,203.29C170.43,203.32,170.43,203.34,170.42,203.29z"/>
	<path d="M171.21,176.11c0.01,0.1,0,0.35,0.03,0.25C171.33,176.09,171.35,176.13,171.21,176.11z"/>
	<path d="M176.4,207.9c-0.83-0.01-0.66-0.23-0.02,1.09C176.38,208.98,176.38,209.12,176.4,207.9z"/>
	<path d="M176.38,208.99c-0.05-0.1,0,0.16,0,0.27C176.49,209.14,176.49,209.21,176.38,208.99z"/>
	<path d="M177.65,211.1c0,0,0,0.01,0.09,0.23C177.87,211.19,177.85,211.3,177.65,211.1z"/>
	<path d="M177.26,210.11c-0.01,0.39,0.09,0.74,0.39,0.99C177.6,210.99,177.26,210.12,177.26,210.11z"/>
	<path d="M177.27,209.82c-1.64-1.33-0.25-0.31-0.01,0.29C177.26,210.04,177.26,209.9,177.27,209.82z"/>
	<path d="M175.63,206.52c-0.6,0-0.59-0.22,0.08,1.11C175.72,206.36,175.74,206.52,175.63,206.52z"/>
	<path d="M179.14,213.38c1.09,0-3.09-3.5-0.61-1.37C178.53,213.04,179.75,213.71,179.14,213.38z"/>
	<path d="M177.81,208.61c0.46,0.44,1.52,1.41,1.56,1.45C179.32,209.73,177.9,208.52,177.81,208.61z"/>
	<path d="M176.34,206.42c-0.28-0.28-0.29-0.28-0.53-0.52C175.81,206.56,175.71,206.43,176.34,206.42z"/>
	<path d="M292.98,288.52c-6.52-5.96-5.34-5.09-6.43-4.69c1.33,3.82,3.18,5.13,3.38,4.94c1.16-0.73,2.06,0.63,3.16,0.53
		C293.04,288.91,293.09,288.63,292.98,288.52z"/>
	<path d="M295.81,231.09c0.26,0.35,0.93,0.33,1.15-0.12c0.56-1.1-0.8-2.03-2.99-3.94c-1.18-1.04-2.38,0.89-1.58,1.49
		C293.53,229.37,294.91,229.88,295.81,231.09z"/>
	<path d="M301.47,282.44c0.7-2.1-6.55,3.74-3.78,5.37C299.09,286.12,300.77,284.53,301.47,282.44z"/>
	<path d="M306.84,245.69c1.67-2.4,0.37-4.36,0.17-6.52C305.99,241.05,306.02,241.07,306.84,245.69z"/>
	<path d="M304.42,365.1c-0.15,2.36,0.81,3.81,1.03,5.94c0.45-0.61,0.81-0.87,0.78-1.07C305.52,365.74,304.42,365,304.42,365.1z"/>
	<path d="M295.22,293.29c-1.62,2.49,2.25,0.75,2.24-3.2C296.68,291.2,295.72,292.54,295.22,293.29z"/>
	<path d="M289,251.98c-2.22,0.51-1.66,2.55-0.66,2.68C289.78,254.83,289.11,252.75,289,251.98z"/>
	<path d="M293.82,298.25c-1.22,2.43-1.29,2.63,0.21,3.44C293.94,300.28,293.88,299.22,293.82,298.25z"/>
	<path d="M307.06,235c-1.38,1.34-1.38,1.34-0.14,2.7C306.96,236.87,307.01,236.04,307.06,235z"/>
	<path d="M305.63,378.82c1.37-0.95-0.54-2.37-1.82-0.51C304.54,379.07,304.89,379.34,305.63,378.82z"/>
	<path d="M306.11,375.12c1.36-0.97,1.2-1.23-0.32-2.34C305.91,373.65,306.01,374.33,306.11,375.12z"/>
	<path d="M287.14,246.04c-0.92,0.01-0.53,1.77,0.14,1.32C288.35,246.62,287.33,246.04,287.14,246.04z"/>
	<path d="M288.79,272.56c-0.06,0.72-0.11,1.33-0.16,1.93C289.81,273.36,289.81,273.36,288.79,272.56z"/>
	<path d="M310.41,377.79c-0.85-0.74-0.43-0.75-1.56,0.06C310.22,378.72,309.55,378.37,310.41,377.79z"/>
	<path d="M311.18,373.44c-0.23-2.55-0.99-1.17-0.9-0.96C310.66,373.79,310.95,373.52,311.18,373.44z"/>
	<path d="M300.27,339.96c-0.19-0.21,0.01-0.01-0.09,0.09C300.28,339.95,300.4,340.13,300.27,339.96z"/>
	<path d="M300.33,340.03c0.08,0.12,1.04,1.22,1.93,1.22C302.26,341.14,301.8,340.03,300.33,340.03z"/>
	<path d="M302.26,341.25c0.05,0.12,0.02,0.12,0.12,0.02C302.33,341.27,302.3,341.25,302.26,341.25z"/>
	<path d="M311.08,368.12c-0.27-0.01-0.2-0.19-0.28,1.07C311.17,369.19,311.08,369.4,311.08,368.12z"/>
	<path d="M307.94,280.9c0.03,0.42,0.06,0.83,0.09,1.25C308.12,282.01,308.58,281.38,307.94,280.9z"/>
	<path d="M307.72,280.62c-0.04-0.09-0.22-0.4-0.27-0.5C307.38,280.44,307.27,280.37,307.72,280.62z"/>
	<path d="M307.83,280.81c0.25,0.13-0.01,0,0.09-0.09C307.65,280.57,307.7,280.58,307.83,280.81z"/>
	<path d="M304.58,343.08c-0.77-0.27-0.87-0.35-0.21,0.14C304.39,343.24,304.51,343.13,304.58,343.08z"/>
	<path d="M303.94,342.86L303.94,342.86C303.63,342.55,303.5,342.71,303.94,342.86z"/>
	<path d="M299.51,339.01c-0.03-0.09-0.34-0.27,0.01,0.13C299.53,339.09,299.53,339.05,299.51,339.01z"/>
	<path d="M299.6,339.22c-0.05-0.05-0.07-0.08-0.07-0.08C299.51,339.35,299.48,339.35,299.6,339.22z"/>
	<path d="M299.6,339.22c-0.11,0.11-0.14,0.09,0.09,0.1C299.67,339.31,299.69,339.32,299.6,339.22z"/>
	<path d="M300.19,339.87C300.22,339.4,299.17,338.85,300.19,339.87L300.19,339.87z"/>
	<path d="M302.39,341.36c-0.1-0.01,0.02,0.53,0.58,0.61C303,341.62,302.85,341.38,302.39,341.36z"/>
	<path d="M302.3,341.35c0.02,0,0.08,0.01,0.08,0.01C302.39,341.25,302.4,341.24,302.3,341.35z"/>
	<path d="M303.04,341.98c-0.12-0.01-0.05-0.05-0.08,0.08C303.12,342.04,303.18,342.12,303.04,341.98z"/>
	<path d="M303.12,342.06c-0.1,0,0.03,0.05,0.53,0.55C303.66,342.36,303.58,342.06,303.12,342.06z"/>
	<path d="M310.72,348.13l0-0.01C308.46,346.13,310.79,348.57,310.72,348.13z"/>
	<path d="M247.76,314.85c-0.7-2.24-2.88-4.32-2.34-1.27c0.27,1.51,1.27,2.8,1.78,4.28c-1.08,2.85,0.63,5.45,1.09,8.07
		c-0.36,0.74-0.89,1.35-0.9,1.96C247.16,343.09,253.81,334.25,247.76,314.85z"/>
	<path d="M248.42,291.09c-5.38-2.95-8.7-7.42-9.29-6.4c-0.22,0.39,3.46,10.52,14.94,7.02c0.3-0.09,0.47-0.59,0.81-1.03
		C252.53,289.95,250.58,291.09,248.42,291.09z"/>
	<path d="M256.94,288.94L256.94,288.94C256.83,289.15,257.01,288.94,256.94,288.94z"/>
	<path d="M255.53,288.99c-0.1,0.15,0.07,0.07,0.08,0C255.58,288.99,255.55,288.99,255.53,288.99z"/>
	<path d="M259.06,277.39c-2.99,2.8-1.35,2.32-2.94,9.35c-0.56,2.47-0.62,2.25-0.52,2.24C258.45,288.93,260.79,280.84,259.06,277.39z
		 M257.94,283.26c-0.35-0.46-0.16-0.79,0.14-0.78C258.03,282.74,257.98,283,257.94,283.26z"/>
	<path d="M229.04,283.15c-0.42,0.64,0.45,1.05,8.88,6.38C240.98,291.44,230.73,280.55,229.04,283.15z"/>
	<path d="M258.51,293.75c0.36,2.88-1.6,4.33,0.28,6.09C260.81,293.48,258.44,293.19,258.51,293.75z"/>
	<path d="M247.56,337.62c-0.76-0.48-0.67-0.16-0.87,0.56c-0.81,2.87-0.64,1.99-0.49,3.87c0.01,0.1,1.51-2.64,1.71-3.14
		C248.1,338.43,248.06,337.93,247.56,337.62z"/>
	<path d="M258.52,291.89c0-2.05-0.59-2.28-1.53-2.8C256.91,290.43,257.25,291.41,258.52,291.89z"/>
	<path d="M256.99,288.93c-0.1,0.1-0.12,0.16-0.01,0.16C256.99,289.09,256.99,288.97,256.99,288.93z"/>
	<path d="M236.98,300.65c-0.56-0.68-0.97-1.18-1.38-1.68C235.58,300.3,235.58,300.3,236.98,300.65z"/>
	<path d="M257.36,302.39c-0.26-0.38-1.44,0.72-0.78,2.16C257.31,304,257.86,303.15,257.36,302.39z"/>
	<path d="M243.15,371.81c0.6-2.02,0.65-1.66,0.08-1.84C242.61,371.99,242.55,371.62,243.15,371.81z"/>
	<path d="M240.15,292.78c1.12,1.46,0.76,1.11,1.41,1.37C241.56,293.15,240.94,292.25,240.15,292.78z"/>
	<path d="M242.34,305.82c0.28-0.29,0.31-1.18-0.94-1C241.27,304.82,241.83,306.34,242.34,305.82z"/>
	<path d="M244.52,345.11c-0.84,0.65-0.77,0.32-0.26,1.26C245.2,345.8,245.12,346.1,244.52,345.11z"/>
	<path d="M242.92,366.36c0.47-2.14-0.61-1.3-0.72-0.04C242.17,366.65,242.88,366.51,242.92,366.36z"/>
	<path d="M243.03,360.4c-0.48-0.02-0.35-0.25-0.45,1.13C243.12,361.57,242.96,361.9,243.03,360.4z"/>
	<path d="M245.64,343.34l-0.13-0.04C245.53,343.65,245.49,343.67,245.64,343.34z"/>
	<path d="M237.88,302.95c-0.38-0.14-0.16,0.39,0.02,0.28C238.06,303.13,237.99,302.99,237.88,302.95z"/>
	<path d="M255.29,289.13c-0.1,0.06,0.05,0.13-0.02,0.23C255.64,288.83,255.19,289.19,255.29,289.13z"/>
	<path d="M316.24,174.37c-1.97-2.52-4.08-2.02-6.33-2.62c-3.2-0.85-3.59-0.15-8.6,1.16c-4.34,1.15,1.21,1.8,3.82,0.86
		C309.9,172.07,309.85,176.5,316.24,174.37z"/>
	<path d="M301.7,176.42c2.61,1.96,8.19,1.71,8.19-1.16C306.94,174.6,304.24,174.56,301.7,176.42z"/>
	<path d="M259.69,203.65c2.58,1.07,10.58,3.07,8.93,1.28C268,204.26,260.47,203.08,259.69,203.65z"/>
	<path d="M265.94,179.39c0.07,1.05,0.11,1.89,1.13,2.46c0-2.56,0.02-5.07-0.03-7.57C267.03,174.17,265.4,171.15,265.94,179.39z"/>
	<path d="M275.72,187.09c-1.19,1.89-1.19,1.89-1.33,4.6C275.36,190.17,276.79,189.28,275.72,187.09z"/>
	<path d="M255.02,201.08c-0.22,0.26,0.11,1.8,2.58,0.89C255.71,200.52,255.72,200.26,255.02,201.08z"/>
	<path d="M271.59,193.79c0.99,0.51,1.62,0.13,2.15-0.86C272.69,192.4,272.14,192.99,271.59,193.79z"/>
	<path d="M268.98,195.77c0.28,0.28,0.13,0.16,0.72-0.03C269.37,195.27,269.54,195.29,268.98,195.77z"/>
	<path d="M267.5,198.44C268.08,198.23,267.35,197.85,267.5,198.44L267.5,198.44z"/>
	<path d="M173.6,326.96c-1.24-0.43-2.64,5.74-1.31,8.83C173.96,334.85,175.37,327.58,173.6,326.96z"/>
	<path d="M180.88,335.33c-0.78,6.48,2.67,5.59,1.47-3.14C181.32,333.12,181.03,334.07,180.88,335.33z"/>
	<path d="M172.71,353.08c0.24-1.29,0.45-2.26-0.65-3.42C171.1,350.92,171.28,353.46,172.71,353.08z"/>
	<path d="M171.83,342.28c-0.44,0.39-0.56,2.26,0.13,2.99C173.85,347.3,173.58,340.73,171.83,342.28z"/>
	<path d="M164.21,285.65c-0.99-0.65-1.19,3.41,1.08,1.15C164.9,286.36,164.61,285.91,164.21,285.65z"/>
	<path d="M172.04,358.03c-1.32,0.79-1.41,0.88,0.33,2.92C172.21,359.52,172.13,358.81,172.04,358.03z"/>
	<path d="M167.37,290.39c-0.34-0.14-0.98,0.26-0.98,0.43c0,0.36,0.26,0.73,0.46,1.2c0.3-0.21,0.63-0.39,0.8-0.54
		C168.11,291.09,167.69,290.52,167.37,290.39z"/>
	<path d="M181.36,348.09c-0.19,0-0.53,0.15-0.56,0.29C180.09,352.23,183,348.13,181.36,348.09z"/>
	<path d="M180.89,345.18c0.52-1.15,0.52-1.15,0.07-2.25C180.41,344.06,180.41,344.07,180.89,345.18z"/>
	<path d="M172.01,363.67c0.58,0.38,0.42,0.42,0.74-0.08C172.08,363.42,172.28,363.44,172.01,363.67z"/>
	<path d="M550.25,353.04c-0.77,0.35-1.37,0.62-2.18,0.98C549.69,354.18,549.69,354.18,550.25,353.04z"/>
	<path d="M625.45,167.62c0.04-0.1-0.91,0.59-1.09,1.44c-0.07,0.34-0.04,0.72-0.04,0.6C624.38,171.1,625.41,167.72,625.45,167.62z"/>
	<path d="M713.84,225.98c-0.5,0.2-0.73,0.62-0.76,1.11C714.64,227.09,714.76,225.62,713.84,225.98z"/>
	<path d="M713.07,227.13l0.01-0.04c-0.02,0-0.03,0-0.05,0C712.99,227.18,712.99,227.16,713.07,227.13z"/>
	<path d="M637.27,213.26c0.07,0.26,0.02,0.21,0.25,0.27C637.32,213.38,637.38,213.45,637.27,213.26z"/>
	<path d="M708.07,321c-2.27-9.05-4.51-9.21-4.51-9.11c1.73,6.42,1.85,5.02,2.02,6.25c0.15,1.04-0.75,1.74,0.73,6.24
		c1.34,4.05-0.65,1.08-0.18,5.24c0.22,1.9-0.66,7.16,1.32,5.91C709.6,334.18,709.12,325.17,708.07,321z"/>
	<path d="M711.94,292.33c0.64-0.04,1.39-0.84,1.44-0.74c-0.87-1.79-3.19-0.23-6.5-0.16c-3.27-1.87-6.11-4.49-9.23-6.76
		C700.78,293.66,706.3,292.65,711.94,292.33z"/>
	<path d="M701.5,374.77c-1.36,0.69-1.15,4.7-0.73,5.12C701.92,381.04,702.42,377.72,701.5,374.77z"/>
	<path d="M717.36,300.22c1.39-6.42-0.18-5.46-0.18-6.56C717.18,297.2,715.56,298.38,717.36,300.22z"/>
	<path d="M705.97,337.94c-0.66-0.27-0.64-0.46-1.43,2.83c-0.18,0.75,0.58,0.99,0.68,0.89C706.3,339.44,707.15,338.42,705.97,337.94z
		"/>
	<path d="M701.32,381.61c-0.98,0-0.54,1.4-0.44,2.12C702.65,383.4,701.94,381.62,701.32,381.61z"/>
	<path d="M716.07,291.61c1.17,1.29,1.19-1.44,0.31-1.65c-0.26-0.06-0.99-0.13-1.24-0.13C715.52,290.3,715.61,291.1,716.07,291.61z"
		/>
	<path d="M700.08,293.92c-0.39-0.42-0.79-0.85-1.19-1.28C698.47,294.49,700.67,294.56,700.08,293.92z"/>
	<path d="M715.31,304.94c0.82-1.75,0.82-1.75,0.07-2.51C715.22,303.19,714.62,303.85,715.31,304.94z"/>
	<path d="M701.6,360.35c-0.64,0.85-0.64,0.85-0.6,1.94C701.76,361.15,701.6,361.65,701.6,360.35z"/>
	<path d="M693.32,299.53c0.58,0.68,0.95,1.13,1.33,1.58C694.56,299.83,694.56,299.83,693.32,299.53z"/>
	<path d="M702.73,346.57c0.05,0.02,0.09,0.03,0.09,0.03c0.73-0.79,0.44-0.76-0.11-1.1C702.31,346.27,702.15,346.3,702.73,346.57z"/>
	<path d="M700.88,367.32c0.67-0.8,0.74-1.4,0-2.41C700.88,365.94,700.88,366.54,700.88,367.32z"/>
	<path d="M701.13,305.91c-0.19-0.25-0.36-0.53-0.59-0.74c-0.05-0.05-0.48,0.2-0.47,0.23C700.37,306.58,700.62,306.08,701.13,305.91z
		"/>
	<path d="M701.84,371.79c0-1.38,0.08-1.17-0.23-1.17C701.61,372,701.53,371.79,701.84,371.79z"/>
	<path d="M696.29,303.13l-0.22-0.02C696.19,303.42,696.12,303.44,696.29,303.13z"/>
	<path d="M578.41,220.74c-1.67-0.19,4.46,9.45,8.62,13.84C587.27,233.18,578.51,220.75,578.41,220.74z"/>
	<path d="M586.59,198.31c0.33-0.12,0.56-0.15-0.08-0.09C586.35,198.33,586.31,198.32,586.59,198.31z"/>
	<path d="M592.49,198.27c3.41-0.17,2.13-1.36,0.7-1.31C591.3,197.02,580.52,198.87,592.49,198.27z"/>
	<path d="M592.03,210.9c2.64,3.72,8.08,3.35,5.35,2.29C596.47,212.83,591.08,209.56,592.03,210.9z"/>
	<path d="M592,210.58c-0.1,0.09-0.1,0.05,0,0.07C592,210.62,592,210.6,592,210.58z"/>
	<path d="M582.92,221.47c0.1,0.05-0.39-1.95-1.87-2.5C581.29,220.08,581.89,220.95,582.92,221.47z"/>
	<path d="M582.93,221.48c0.01,0.05,0.03,0.1,0.04,0.15C583.07,221.54,583.08,221.56,582.93,221.48z"/>
	<path d="M580.92,218.91c0.04,0.02,0.08,0.04,0.12,0.06C580.99,218.8,581.03,218.81,580.92,218.91z"/>
	<path d="M580.92,218.91c0.12-0.1,0.1-0.07-0.05-0.12C580.87,218.8,580.87,218.81,580.92,218.91z"/>
	<path d="M579.97,216.9c0.01,0.46,0.07,1.14,0.34,1.51C581.42,219.98,580.02,217.01,579.97,216.9z"/>
	<path d="M586.38,198.31c-0.69,0-0.77,0.47-0.36,0.25C586.15,198.48,586.26,198.39,586.38,198.31z"/>
	<path d="M580.07,213.27L580.07,213.27C579.87,213.08,579.97,213.24,580.07,213.27z"/>
	<path d="M580.07,213.27L580.07,213.27C579.9,213.2,579.89,213.2,580.07,213.27z"/>
	<path d="M585.07,224.46l0.16,0.07C585.23,224.25,583.23,222.8,585.07,224.46z"/>
	<path d="M588.89,236.6c0,0.1,0.14-0.32-1.03-1.32C585.75,233.47,588.21,235.46,588.89,236.6z"/>
	<path d="M583.6,222.2c0.1,0-0.08-0.07-0.5-0.44C583.11,221.99,583.43,222.18,583.6,222.2z"/>
	<path d="M583.11,221.76L583.11,221.76C583.01,221.47,582.91,221.59,583.11,221.76z"/>
	<path d="M583.73,222.32c1.2,3.14-0.04,0.04,0.1-0.1C583.61,222.24,583.51,222.12,583.73,222.32z"/>
	<path d="M580.38,213.46c-0.14-0.12-0.13-0.12-0.31-0.19C580.2,213.4,580.13,213.36,580.38,213.46z"/>
	<path d="M591.35,209.94c-0.1-0.02-0.09,0.63,0.59,0.63C591.94,210.06,591.69,209.97,591.35,209.94z"/>
	<path d="M592,210.58c-0.1,0-0.04-0.04-0.06,0.06L592,210.58z"/>
	<path d="M591.35,209.85c-0.14-0.07-0.17-0.12-0.07,0.08C591.39,209.93,591.33,209.97,591.35,209.85z"/>
	<path d="M591.16,209.67c-0.01-0.02-0.05-0.02-0.08-0.02C590.87,209.67,591.4,209.91,591.16,209.67z"/>
	<path d="M768.72,174.66c2.17,1.37,4,0.96,6.12-0.1c-2.97-2.77-6.66-2.11-9.63-3.01c-3.62,1.41-1.9,0.91-6.63,2.08
		C760.21,176.79,764.26,171.84,768.72,174.66z"/>
	<path d="M759.85,176.75c1.48,0.65,2.76,1.51,4.15,1.41C772.44,177.53,767.15,172.7,759.85,176.75z"/>
	<path d="M718.06,204.06c3.21,1.04,6.14,1.93,9.25,1.74C724.61,204.24,721.68,203.76,718.06,204.06z"/>
	<path d="M734.4,187.88c-1.42-0.13-1.57,2.04-1.38,3.37C734.91,190.52,735.07,187.94,734.4,187.88z"/>
	<path d="M732.95,191.28c-0.08,0.14-0.12,0.14,0.08,0.07C732.98,191.31,733.1,191.42,732.95,191.28z"/>
	<path d="M714.38,201.04c-0.72-0.17-1.41,0.74-0.25,1.4C716.22,203.63,716.33,201.51,714.38,201.04z"/>
	<path d="M730.61,193.71c-1.15,1.32,1.11,1.02,1.77-1.04C731.56,193.07,730.91,193.37,730.61,193.71z"/>
	<path d="M727.87,195.77C726.88,196.73,728.29,196.52,727.87,195.77L727.87,195.77z"/>
	<path d="M726.23,198.61c-0.4-0.34-0.3-0.06-0.49-0.06C726.01,198.78,725.91,198.75,726.23,198.61z"/>
	<path d="M742.67,195.47c0.1,0.08,0.13,0.17,0.12,0.07C742.76,195.32,742.79,195.35,742.67,195.47z"/>
	<path d="M742.1,194.9L742.1,194.9C742.16,195.21,742.96,195.77,742.1,194.9z"/>
	<path d="M742.76,195.37c-0.23,0-0.29-0.1-0.09,0.09L742.76,195.37z"/>
	<path d="M732.73,191.46c-0.04,0.03-0.02,0.12-0.02,0.2C732.71,191.76,733.06,191.21,732.73,191.46z"/>
	<path d="M658.85,254.14c53.87,22.99,4.91,1.32,5.44,0.46c-0.01,0-0.21,0-0.23,0c0.32,0.15-0.43,0.71-1.22,0.08
		c-0.75-0.61-4.65-1.8-6.14-2.05C656.82,252.86,656.93,253.32,658.85,254.14z"/>
	<path d="M660.75,261.03c-2.22-0.75,4.75,3.81,12.25,5.84C673.52,265.65,662.01,261.46,660.75,261.03z"/>
	<path d="M654.84,245.17L654.84,245.17C654.96,245.29,669.01,252.14,654.84,245.17z"/>
	<path d="M654.57,245.04c0.41,0.2,0.25,0.16,0.09-0.09L654.57,245.04z"/>
	<path d="M661.53,248.32c-0.22-0.04-0.49-0.05-0.39-0.05C661.5,248.44,661.42,248.44,661.53,248.32z"/>
	<path d="M662.91,253.91c-0.75-0.25,0-0.01-0.09,0.09C662.92,254.05,662.89,254.07,662.91,253.91z"/>
	<path d="M677.83,267.43c0.13,0.22,0.52,0.04,0.23-0.15C677.96,267.21,677.7,267.21,677.83,267.43z"/>
	<path d="M654.24,244.63c-0.26-0.19-0.58-0.22-0.91-0.2C654.28,244.79,654.82,245.06,654.24,244.63z"/>
	<path d="M653.17,244.38c-0.03,0.04-1.57-1.79-0.08,0.09C653.25,244.3,653.54,244.56,653.17,244.38z"/>
	<path d="M654.66,244.94c-0.06-0.02-0.13-0.05-0.19-0.07C654.63,245.08,654.53,245.07,654.66,244.94z"/>
	<path d="M652.3,243.44l0.14,0.2C652.55,243.52,652.59,243.58,652.3,243.44z"/>
	<path d="M661.53,248.32C661.4,248.45,661.56,248.72,661.53,248.32L661.53,248.32z"/>
	<path d="M661.55,248.56l0,0.02c0,0.01,0.02,0.03,0.03,0.04C661.8,248.9,661.55,248.46,661.55,248.56z"/>
	<path d="M658.55,251.05c0.1,0.17,0.03,0.11,0.26,0.26C658.68,251.07,658.75,251.13,658.55,251.05z"/>
	<path d="M660.5,252.41C660.77,252.67,660.89,252.54,660.5,252.41L660.5,252.41z"/>
	<path d="M660.69,252.59c0.34,0.15,0.33,0.19,0.08-0.08L660.69,252.59z"/>
	<path d="M755.41,265.61c0.77-2.14-0.39-3.68-0.66-5.57c-0.42,0.33-0.88,0.56-0.85,0.69C754.24,262.46,754.46,263.98,755.41,265.61z
		"/>
	<path d="M755.52,272.53c-0.75-1.14-2.15,0.51-2.23,0.41C755.06,275.01,755.66,272.74,755.52,272.53z"/>
	<path d="M756.08,270.06c0.77-1.02,0.86-0.32-0.1-2.53C755.37,268.48,755.25,269.31,756.08,270.06z"/>
	<path d="M760.59,268.16c0.11-0.21,0.64-0.44-0.42-1.5C759.83,268.13,759.81,267.7,760.59,268.16z"/>
	<path d="M759.67,272.87c0.14-0.07,0.36-0.01-0.01-0.69C759.23,271.36,758.02,273.69,759.67,272.87z"/>
	<path d="M743.98,241.04c-0.07-0.04-0.46,0.19-0.45,0.27c0.02,0.28,0.15,0.56,0.24,0.84C744.35,241.9,745.14,241.75,743.98,241.04z"
		/>
	<path d="M760.87,263.78c0.07-1.11,0.15-0.94-0.25-0.88C760.64,263.01,760.71,263.24,760.87,263.78z"/>
	<path d="M732.85,171.5c0.32-0.06,0.28-0.02,0.17-0.13C732.93,171.45,732.75,171.5,732.85,171.5z"/>
	<path d="M176.4,207.79C176.56,207.98,176.53,207.79,176.4,207.79L176.4,207.79z"/>
	<path d="M176.46,207.9c0.1,0,0.03,0-0.06-0.12C176.4,207.93,176.39,207.9,176.46,207.9z"/>
	<path d="M175.82,207.83c-0.13-0.27-0.1-0.29-0.1,0.07C175.88,207.9,175.86,207.91,175.82,207.83z"/>
	<path d="M176.44,206.53c0.13,0.3,0,0,0.06-0.1C176.3,206.42,176.3,206.39,176.44,206.53z"/>
	<path d="M175.03,205.9L175.03,205.9C174.87,206.03,175.03,206.67,175.03,205.9z"/>
	<path d="M175.09,205.85c1.06-0.07,0.86-0.1-0.07-0.1C175.09,205.84,174.96,205.98,175.09,205.85z"/>
	<path d="M175.03,206.29c0,0.08,0,0.15,0,0.23C175.19,206.52,175.19,206.57,175.03,206.29z"/>
	<path d="M175.72,206.43L175.72,206.43C175.89,206.6,175.83,206.43,175.72,206.43z"/>
	<path d="M175.81,205.91c0-0.06,0-0.11,0-0.17C175.67,205.82,175.68,205.78,175.81,205.91z"/>
	<path d="M175.81,206.52c-0.12-0.12-0.09-0.12-0.09,0C175.8,206.52,175.8,206.52,175.81,206.52z"/>
	<path d="M662.9,254.04c-0.1-0.05-0.05-0.06-0.05,0.57C664.5,254.61,664.41,254.76,662.9,254.04z"/>
<path fill="#e6e6e6" d="m206.8 163.6c0-5.1 4.1-9.2 9.3-9.2s9.2 4.2 9.2 9.2-4.1 9.2-9.3 9.2-9.2-4.1-9.2-9.2zm17.3-.1c0-4.5-3.5-8.2-8.2-8.2s-8.2 3.7-8.2 8.3c0 4.5 3.5 8.2 8.2 8.2s8.2-3.7 8.2-8.3zm-13 0c0-2.8 2.1-5.1 5.1-5.1 1.9 0 2.9.6 3.9 1.5l-1.4 1.7c-.8-.7-1.5-1.1-2.5-1.1-1.7 0-2.8 1.4-2.8 3.1s1.1 3 2.8 3c1.1 0 1.7-.5 2.5-1.1l1.4 1.4c-1.1 1.1-2.1 1.7-4 1.7-2.9 0-5-2.3-5-5.1z"/><path fill="#e6e6e6" d="m226.6 154.7h3.4l4.2 13.2 4.4-13.3h2.6l4.4 13.3 4.2-13.2h3.3l-6.2 18h-2.7l-4.4-12.8-4.4 12.8h-2.7z"/><path fill="#e6e6e6" d="m252.8 165.8c0-3.9 3.1-7 7.2-7 4.2 0 7.2 3.2 7.2 7s-3.1 7-7.3 7c-4 0-7.1-3.1-7.1-7zm11.3 0c0-2.3-1.7-4.3-4.2-4.3s-4.1 2-4.1 4.3 1.7 4.3 4.1 4.3c2.7.1 4.2-1.9 4.2-4.3z"/><path fill="#e6e6e6" d="m269.5 159.1h3.1v3c.8-2 2.4-3.4 4.8-3.3v3.2h-.2c-2.7 0-4.6 1.7-4.6 5.4v5.1h-3.1z"/><path fill="#e6e6e6" d="m279.1 153.9h3.1v11.1l5.6-6h3.8l-5.4 5.5 5.5 8h-3.5l-4.1-5.8-1.9 2v3.9h-3.1z"/><path fill="#e6e6e6" d="m291.7 165.8c0-3.9 3.1-7 7.2-7 4.2 0 7.2 3.2 7.2 7s-3.1 7-7.3 7c-4 0-7.1-3.1-7.1-7zm11.3 0c0-2.3-1.7-4.3-4.2-4.3s-4.1 2-4.1 4.3 1.7 4.3 4.1 4.3c2.6.1 4.2-1.9 4.2-4.3z"/><path fill="#e6e6e6" d="m308.2 167.6v-8.6h3.1v7.6c0 2.1 1.1 3.3 2.9 3.3s3-1.3 3-3.3v-7.6h3.1v13.4h-3.1v-2.1c-.8 1.3-2.1 2.3-4.2 2.3-3.1.2-4.8-1.8-4.8-5z"/><path fill="#e6e6e6" d="m323.9 168.8v-7.1h-1.7v-2.6h1.7v-3.7h3.1v3.7h3.6v2.6h-3.6v6.6c0 1.2.6 1.7 1.7 1.7.7 0 1.3-.2 1.9-.5v2.5c-.8.5-1.7.7-2.8.7-2.3 0-3.9-.9-3.9-3.9z"/><path fill="#e6e6e6" d="m333.2 154.7h3.2v15h9.4v2.9h-12.5v-17.9z"/><path fill="#e6e6e6" d="m356 172.5v-1.7c-.9 1.1-2.3 2-4.4 2-2.6 0-4.8-1.4-4.8-4.2 0-3 2.3-4.4 5.4-4.4 1.7 0 2.6.2 3.7.5v-.2c0-1.9-1.2-2.9-3.3-2.9-1.5 0-2.6.3-3.9.8l-.8-2.5c1.5-.7 2.9-1.1 5.1-1.1 4 0 5.9 2.1 5.9 5.7v8zm.1-5.6c-.8-.3-1.9-.5-3.1-.5-2 0-3.1.8-3.1 2.1s1.1 2 2.6 2c2 0 3.5-1.1 3.5-2.9z"/><path fill="#e6e6e6" d="m364.9 170.5v2.1h-3.1v-18.7h3.1v7.4c1-1.4 2.4-2.5 4.5-2.5 3.2 0 6.3 2.5 6.3 7s-3.1 7-6.3 7c-2.1 0-3.5-1.1-4.5-2.3zm7.7-4.7c0-2.6-1.7-4.3-3.9-4.3s-3.9 1.7-3.9 4.4c0 2.6 1.8 4.3 3.9 4.3s3.9-1.7 3.9-4.4z"/><path fill="#e6e6e6" d="m376.9 170.8 1.4-2.1c1.4 1.1 3 1.7 4.4 1.7s2.1-.5 2.1-1.5-1.3-1.4-2.8-1.8c-.1 0-.2-.1-.2-.1-2-.6-4.2-1.4-4.2-4s2.1-4.1 4.8-4.1c1.7 0 3.5.6 5 1.5l-1.2 2.2c-1.3-.8-2.6-1.3-3.8-1.3s-1.9.5-1.9 1.4 1.3 1.4 2.8 1.8c.1 0 .2.1.2.1 2 .6 4.2 1.5 4.2 4 0 2.9-2.2 4.2-5 4.2-1.9 0-4-.7-5.8-2z"/><path fill="#e6e6e6" d="m505.6 163.6c0-5.1 4.1-9.2 9.3-9.2s9.2 4.2 9.2 9.2-4.1 9.2-9.3 9.2-9.2-4.1-9.2-9.2zm17.4-.1c0-4.5-3.5-8.2-8.2-8.2s-8.2 3.7-8.2 8.3c0 4.5 3.5 8.2 8.2 8.2s8.2-3.7 8.2-8.3zm-13.1 0c0-2.8 2.1-5.1 5.1-5.1 1.9 0 2.9.6 3.9 1.5l-1.4 1.7c-.8-.7-1.5-1.1-2.5-1.1-1.7 0-2.8 1.4-2.8 3.1s1.1 3 2.8 3c1.1 0 1.7-.5 2.5-1.1l1.4 1.4c-1.1 1.1-2.1 1.7-4 1.7-2.9 0-5-2.3-5-5.1z"/><path fill="#e6e6e6" d="m525.4 154.7h3.4l4.2 13.2 4.4-13.3h2.6l4.4 13.3 4.2-13.2h3.3l-6.2 18h-2.7l-4.4-12.8-4.4 12.8h-2.7z"/><path fill="#e6e6e6" d="m551.7 165.8c0-3.9 3.1-7 7.2-7 4.2 0 7.2 3.2 7.2 7s-3.1 7-7.3 7c-4.1 0-7.1-3.1-7.1-7zm11.2 0c0-2.3-1.7-4.3-4.2-4.3s-4.1 2-4.1 4.3 1.7 4.3 4.1 4.3c2.7.1 4.2-1.9 4.2-4.3z"/><path fill="#e6e6e6" d="m568.3 159.1h3.1v3c.8-2 2.4-3.4 4.8-3.3v3.2h-.2c-2.7 0-4.6 1.7-4.6 5.4v5.1h-3.1z"/><path fill="#e6e6e6" d="m577.9 153.9h3.1v11.1l5.6-6h3.8l-5.4 5.5 5.5 8h-3.5l-4.1-5.8-1.9 2v3.9h-3.1z"/><path fill="#e6e6e6" d="m590.6 165.8c0-3.9 3.1-7 7.2-7 4.2 0 7.2 3.2 7.2 7s-3.1 7-7.3 7c-4.1 0-7.1-3.1-7.1-7zm11.2 0c0-2.3-1.7-4.3-4.2-4.3s-4.1 2-4.1 4.3 1.7 4.3 4.1 4.3c2.6.1 4.2-1.9 4.2-4.3z"/><path fill="#e6e6e6" d="m607 167.6v-8.6h3.1v7.6c0 2.1 1.1 3.3 2.9 3.3s3-1.3 3-3.3v-7.6h3.1v13.4h-3.1v-2.1c-.8 1.3-2.1 2.3-4.2 2.3-3 .2-4.8-1.8-4.8-5z"/><path fill="#e6e6e6" d="m622.7 168.8v-7.1h-1.7v-2.6h1.7v-3.7h3.1v3.7h3.6v2.6h-3.6v6.6c0 1.2.6 1.7 1.7 1.7.7 0 1.3-.2 1.9-.5v2.5c-.8.5-1.7.7-2.8.7-2.3 0-3.9-.9-3.9-3.9z"/><path fill="#e6e6e6" d="m632 154.7h3.2v15h9.4v2.9h-12.6z"/><path fill="#e6e6e6" d="m654.8 172.5v-1.7c-.9 1.1-2.3 2-4.4 2-2.6 0-4.8-1.4-4.8-4.2 0-3 2.3-4.4 5.4-4.4 1.7 0 2.6.2 3.7.5v-.2c0-1.9-1.2-2.9-3.3-2.9-1.5 0-2.6.3-3.9.8l-.8-2.5c1.5-.7 2.9-1.1 5.1-1.1 4 0 5.9 2.1 5.9 5.7v8zm.1-5.6c-.8-.3-1.9-.5-3.1-.5-2 0-3.1.8-3.1 2.1s1.1 2 2.6 2c2 0 3.5-1.1 3.5-2.9z"/><path fill="#e6e6e6" d="m663.7 170.5v2.1h-3.1v-18.7h3.1v7.4c1-1.4 2.4-2.5 4.5-2.5 3.2 0 6.3 2.5 6.3 7s-3.1 7-6.3 7c-2.1 0-3.5-1.1-4.5-2.3zm7.8-4.7c0-2.6-1.7-4.3-3.9-4.3-2.1 0-3.9 1.7-3.9 4.4 0 2.6 1.8 4.3 3.9 4.3s3.9-1.7 3.9-4.4z"/><path fill="#e6e6e6" d="m675.8 170.8 1.4-2.1c1.4 1.1 3 1.7 4.4 1.7s2.1-.5 2.1-1.5-1.3-1.4-2.8-1.8c-.1 0-.2-.1-.2-.1-2-.6-4.2-1.4-4.2-4s2.1-4.1 4.8-4.1c1.7 0 3.5.6 5 1.5l-1.2 2.2c-1.3-.8-2.6-1.3-3.8-1.3s-1.9.5-1.9 1.4 1.3 1.4 2.8 1.8c.1 0 .2.1.2.1 2 .6 4.2 1.5 4.2 4 0 2.9-2.2 4.2-5 4.2-2 0-4.1-.7-5.8-2z"/><path fill="#e6e6e6" d="m61 298.6c0-5.1 4.1-9.2 9.3-9.2s9.2 4.2 9.2 9.2-4.1 9.2-9.3 9.2c-5.1 0-9.2-4.2-9.2-9.2zm17.4-.1c0-4.5-3.5-8.2-8.2-8.2s-8.2 3.7-8.2 8.3c0 4.5 3.5 8.2 8.2 8.2s8.2-3.7 8.2-8.3zm-13.1-.1c0-2.8 2.1-5.1 5.1-5.1 1.9 0 2.9.6 3.9 1.5l-1.4 1.7c-.8-.7-1.5-1.1-2.5-1.1-1.7 0-2.8 1.4-2.8 3.1s1.1 3 2.8 3c1.1 0 1.7-.5 2.5-1.1l1.4 1.4c-1.1 1.1-2.1 1.7-4 1.7-2.8.1-5-2.2-5-5.1z"/><path fill="#e6e6e6" d="m80.9 289.7h3.4l4.2 13.2 4.4-13.3h2.6l4.4 13.3 4.2-13.2h3.3l-6.2 18h-2.7l-4.4-12.8-4.4 12.8h-2.7z"/><path fill="#e6e6e6" d="m107.1 300.8c0-3.9 3.1-7 7.2-7s7.2 3.2 7.2 7-3.1 7-7.3 7c-4 0-7.1-3.1-7.1-7zm11.3 0c0-2.3-1.7-4.3-4.2-4.3s-4.1 2-4.1 4.3 1.7 4.3 4.1 4.3c2.6.1 4.2-1.9 4.2-4.3z"/><path fill="#e6e6e6" d="m123.7 294h3.1v3c.8-2 2.4-3.4 4.8-3.3v3.2h-.2c-2.7 0-4.6 1.7-4.6 5.4v5.1h-3.1z"/><path fill="#e6e6e6" d="m133.4 288.9h3.1v11.1l5.6-6h3.8l-5.4 5.5 5.5 8h-3.5l-4.1-5.8-1.9 1.9v3.9h-3.1z"/><path fill="#e6e6e6" d="m146 300.8c0-3.9 3.1-7 7.2-7s7.2 3.2 7.2 7-3.1 7-7.3 7c-4.1 0-7.1-3.1-7.1-7zm11.2 0c0-2.3-1.7-4.3-4.2-4.3s-4.1 2-4.1 4.3 1.7 4.3 4.1 4.3c2.6.1 4.2-1.9 4.2-4.3z"/><path fill="#e6e6e6" d="m162.4 302.6v-8.6h3.1v7.6c0 2.1 1.1 3.3 2.9 3.3s3-1.3 3-3.3v-7.6h3.1v13.4h-3.1v-2.1c-.8 1.3-2.1 2.3-4.2 2.3-3 .2-4.8-1.8-4.8-5z"/><path fill="#e6e6e6" d="m178.1 303.8v-7.1h-1.7v-2.7h1.7v-3.7h3.1v3.7h3.6v2.6h-3.6v6.6c0 1.2.6 1.7 1.7 1.7.7 0 1.3-.2 1.9-.5v2.5c-.8.5-1.7.7-2.8.7-2.3.1-3.9-.9-3.9-3.8z"/><path fill="#e6e6e6" d="m187.4 289.7h3.2v15h9.4v2.9h-12.5v-17.9z"/><path fill="#e6e6e6" d="m210.2 307.5v-1.7c-.9 1.1-2.3 2-4.4 2-2.6 0-4.8-1.4-4.8-4.2 0-3 2.3-4.4 5.4-4.4 1.7 0 2.6.2 3.7.5v-.2c0-1.9-1.2-2.9-3.3-2.9-1.5 0-2.6.3-3.9.8l-.8-2.5c1.5-.7 2.9-1.1 5.1-1.1 4 0 5.9 2.1 5.9 5.7v8zm.1-5.6c-.8-.3-1.9-.5-3.1-.5-2 0-3.1.8-3.1 2.1s1.1 2 2.6 2c2 0 3.5-1.1 3.5-2.9z"/><path fill="#e6e6e6" d="m219.2 305.5v2.1h-3.1v-18.7h3.1v7.4c1-1.4 2.4-2.5 4.5-2.5 3.2 0 6.3 2.5 6.3 7s-3.1 7-6.3 7c-2.2 0-3.6-1.1-4.5-2.3zm7.7-4.7c0-2.6-1.7-4.3-3.9-4.3s-3.9 1.7-3.9 4.4c0 2.6 1.8 4.3 3.9 4.3s3.9-1.7 3.9-4.4z"/><path fill="#e6e6e6" d="m231.2 305.8 1.4-2.1c1.4 1.1 3 1.7 4.4 1.7s2.1-.5 2.1-1.5-1.3-1.4-2.8-1.8c-.1 0-.2-.1-.2-.1-2-.6-4.2-1.4-4.2-4s2.1-4.1 4.8-4.1c1.7 0 3.5.6 5 1.5l-1.2 2.2c-1.3-.8-2.6-1.3-3.8-1.3s-1.9.5-1.9 1.4 1.3 1.4 2.8 1.8c.1 0 .2.1.2.1 2 .6 4.2 1.5 4.2 4 0 2.9-2.2 4.2-5 4.2-2 0-4.1-.7-5.8-2z"/><path fill="#e6e6e6" d="m360.6 298.6c0-5.1 4.1-9.2 9.3-9.2s9.2 4.2 9.2 9.2-4.1 9.2-9.3 9.2-9.2-4.2-9.2-9.2zm17.4-.1c0-4.5-3.5-8.2-8.2-8.2s-8.2 3.7-8.2 8.3c0 4.5 3.5 8.2 8.2 8.2s8.2-3.7 8.2-8.3zm-13.1-.1c0-2.8 2.1-5.1 5.1-5.1 1.9 0 2.9.6 3.9 1.5l-1.4 1.7c-.8-.7-1.5-1.1-2.5-1.1-1.7 0-2.8 1.4-2.8 3.1s1.1 3 2.8 3c1.1 0 1.7-.5 2.5-1.1l1.4 1.4c-1.1 1.1-2.1 1.7-4 1.7-2.8.1-5-2.2-5-5.1z"/><path fill="#e6e6e6" d="m380.5 289.7h3.4l4.2 13.2 4.4-13.3h2.6l4.4 13.3 4.2-13.2h3.3l-6.2 18h-2.7l-4.4-12.8-4.4 12.8h-2.7z"/><path fill="#e6e6e6" d="m406.7 300.8c0-3.9 3.1-7 7.2-7 4.2 0 7.2 3.2 7.2 7s-3.1 7-7.3 7c-4.1 0-7.1-3.1-7.1-7zm11.3 0c0-2.3-1.7-4.3-4.2-4.3s-4.1 2-4.1 4.3 1.7 4.3 4.1 4.3c2.7.1 4.2-1.9 4.2-4.3z"/><path fill="#e6e6e6" d="m423.3 294h3.1v3c.8-2 2.4-3.4 4.8-3.3v3.2h-.2c-2.7 0-4.6 1.7-4.6 5.4v5.1h-3.1z"/><path fill="#e6e6e6" d="m433 288.9h3.1v11.1l5.6-6h3.8l-5.4 5.5 5.5 8h-3.5l-4.1-5.8-1.9 2v3.9h-3.1z"/><path fill="#e6e6e6" d="m445.6 300.8c0-3.9 3.1-7 7.2-7 4.2 0 7.2 3.2 7.2 7s-3.1 7-7.3 7c-4.1 0-7.1-3.1-7.1-7zm11.3 0c0-2.3-1.7-4.3-4.2-4.3s-4.1 2-4.1 4.3 1.7 4.3 4.1 4.3c2.6.1 4.2-1.9 4.2-4.3z"/><path fill="#e6e6e6" d="m462.1 302.6v-8.6h3.1v7.6c0 2.1 1.1 3.3 2.9 3.3s3-1.3 3-3.3v-7.6h3.1v13.4h-3.1v-2.1c-.8 1.3-2.1 2.3-4.2 2.3-3.1.2-4.8-1.8-4.8-5z"/><path fill="#e6e6e6" d="m477.8 303.8v-7.1h-1.8v-2.7h1.7v-3.7h3.1v3.7h3.6v2.6h-3.6v6.6c0 1.2.6 1.7 1.7 1.7.7 0 1.3-.2 1.9-.5v2.5c-.8.5-1.7.7-2.8.7-2.2.1-3.8-.9-3.8-3.8z"/><path fill="#e6e6e6" d="m487.1 289.7h3.2v15h9.4v2.9h-12.5v-17.9z"/><path fill="#e6e6e6" d="m509.9 307.5v-1.7c-.9 1.1-2.3 2-4.4 2-2.6 0-4.8-1.4-4.8-4.2 0-3 2.3-4.4 5.4-4.4 1.7 0 2.6.2 3.7.5v-.2c0-1.9-1.2-2.9-3.3-2.9-1.5 0-2.6.3-3.9.8l-.8-2.5c1.5-.7 2.9-1.1 5.1-1.1 4 0 5.9 2.1 5.9 5.7v8zm.1-5.6c-.8-.3-1.9-.5-3.1-.5-2 0-3.1.8-3.1 2.1s1.1 2 2.6 2c2 0 3.5-1.1 3.5-2.9z"/><path fill="#e6e6e6" d="m518.8 305.5v2.1h-3.1v-18.7h3.1v7.4c1-1.4 2.4-2.5 4.5-2.5 3.2 0 6.3 2.5 6.3 7s-3.1 7-6.3 7c-2.2 0-3.5-1.1-4.5-2.3zm7.7-4.7c0-2.6-1.7-4.3-3.9-4.3s-3.9 1.7-3.9 4.4c0 2.6 1.8 4.3 3.9 4.3s3.9-1.7 3.9-4.4z"/><path fill="#e6e6e6" d="m530.8 305.8 1.4-2.1c1.4 1.1 3 1.7 4.4 1.7s2.1-.5 2.1-1.5-1.3-1.4-2.8-1.8c-.1 0-.2-.1-.2-.1-2-.6-4.2-1.4-4.2-4s2.1-4.1 4.8-4.1c1.7 0 3.5.6 5 1.5l-1.2 2.2c-1.3-.8-2.6-1.3-3.8-1.3s-1.9.5-1.9 1.4 1.3 1.4 2.8 1.8c.1 0 .2.1.2.1 2 .6 4.2 1.5 4.2 4 0 2.9-2.2 4.2-5 4.2-1.9 0-4.1-.7-5.8-2z"/><path fill="#e6e6e6" d="m659.5 298.6c0-5.1 4.1-9.2 9.3-9.2s9.2 4.2 9.2 9.2-4.1 9.2-9.3 9.2-9.2-4.2-9.2-9.2zm17.3-.1c0-4.5-3.5-8.2-8.2-8.2s-8.2 3.7-8.2 8.3c0 4.5 3.5 8.2 8.2 8.2 4.8 0 8.2-3.7 8.2-8.3zm-13-.1c0-2.8 2.1-5.1 5.1-5.1 1.9 0 2.9.6 3.9 1.5l-1.4 1.7c-.8-.7-1.5-1.1-2.5-1.1-1.7 0-2.8 1.4-2.8 3.1s1.1 3 2.8 3c1.1 0 1.7-.5 2.5-1.1l1.4 1.4c-1.1 1.1-2.1 1.7-4 1.7-2.9.1-5-2.2-5-5.1z"/><path fill="#e6e6e6" d="m679.3 289.7h3.4l4.2 13.2 4.4-13.3h2.6l4.4 13.3 4.2-13.2h3.3l-6.2 18h-2.6l-4.4-12.8-4.4 12.8h-2.7z"/><path fill="#e6e6e6" d="m705.5 300.8c0-3.9 3.1-7 7.2-7 4.2 0 7.2 3.2 7.2 7s-3.1 7-7.3 7c-4 0-7.1-3.1-7.1-7zm11.3 0c0-2.3-1.7-4.3-4.2-4.3s-4.1 2-4.1 4.3 1.7 4.3 4.1 4.3c2.7.1 4.2-1.9 4.2-4.3z"/><path fill="#e6e6e6" d="m722.1 294h3.1v3c.8-2 2.4-3.4 4.8-3.3v3.2h-.2c-2.7 0-4.6 1.7-4.6 5.4v5.1h-3.1z"/><path fill="#e6e6e6" d="m731.8 288.9h3.1v11.1l5.6-6h3.8l-5.4 5.5 5.5 8h-3.5l-4.1-5.8-1.9 2v3.9h-3.1z"/><path fill="#e6e6e6" d="m744.4 300.8c0-3.9 3.1-7 7.2-7 4.2 0 7.2 3.2 7.2 7s-3.1 7-7.3 7c-4.1 0-7.1-3.1-7.1-7zm11.3 0c0-2.3-1.7-4.3-4.2-4.3s-4.1 2-4.1 4.3 1.7 4.3 4.1 4.3c2.6.1 4.2-1.9 4.2-4.3z"/><path fill="#e6e6e6" d="m760.9 302.6v-8.6h3.1v7.6c0 2.1 1.1 3.3 2.9 3.3s3-1.3 3-3.3v-7.6h3.1v13.4h-3.1v-2.1c-.8 1.3-2.1 2.3-4.2 2.3-3.1.2-4.8-1.8-4.8-5z"/><path fill="#e6e6e6" d="m776.6 303.8v-7.1h-1.7v-2.7h1.7v-3.7h3.1v3.7h3.6v2.6h-3.6v6.6c0 1.2.6 1.7 1.7 1.7.7 0 1.3-.2 1.9-.5v2.5c-.8.5-1.7.7-2.8.7-2.3.1-3.9-.9-3.9-3.8z"/><path fill="#e6e6e6" d="m785.9 289.7h3.2v15h9.4v2.9h-12.5v-17.9z"/><path fill="#e6e6e6" d="m808.7 307.5v-1.7c-.9 1.1-2.3 2-4.4 2-2.6 0-4.8-1.4-4.8-4.2 0-3 2.3-4.4 5.4-4.4 1.7 0 2.6.2 3.7.5v-.2c0-1.9-1.2-2.9-3.3-2.9-1.5 0-2.6.3-3.9.8l-.8-2.5c1.5-.7 2.9-1.1 5.1-1.1 4 0 5.9 2.1 5.9 5.7v8zm.1-5.6c-.8-.3-1.9-.5-3.1-.5-2 0-3.1.8-3.1 2.1s1.1 2 2.6 2c2 0 3.5-1.1 3.5-2.9z"/><path fill="#e6e6e6" d="m817.6 305.5v2.1h-3.1v-18.7h3.1v7.4c1-1.4 2.4-2.5 4.5-2.5 3.2 0 6.3 2.5 6.3 7s-3.1 7-6.3 7c-2.1 0-3.5-1.1-4.5-2.3zm7.7-4.7c0-2.6-1.7-4.3-3.9-4.3-2.1 0-3.9 1.7-3.9 4.4 0 2.6 1.8 4.3 3.9 4.3 2.2 0 3.9-1.7 3.9-4.4z"/><path fill="#e6e6e6" d="m829.6 305.8 1.4-2.1c1.4 1.1 3 1.7 4.4 1.7s2.1-.5 2.1-1.5-1.3-1.4-2.8-1.8c-.1 0-.2-.1-.2-.1-2-.6-4.2-1.4-4.2-4s2.1-4.1 4.8-4.1c1.7 0 3.5.6 5 1.5l-1.2 2.2c-1.3-.8-2.6-1.3-3.8-1.3s-1.9.5-1.9 1.4 1.3 1.4 2.8 1.8c.1 0 .2.1.2.1 2 .6 4.2 1.5 4.2 4 0 2.9-2.2 4.2-5 4.2-1.9 0-4-.7-5.8-2z"/><path fill="#e6e6e6" d="m206.3 434.2c0-5.1 4.1-9.2 9.3-9.2s9.2 4.2 9.2 9.2-4.1 9.2-9.3 9.2-9.2-4.1-9.2-9.2zm17.4-.1c0-4.5-3.5-8.2-8.2-8.2s-8.2 3.7-8.2 8.3c0 4.5 3.5 8.2 8.2 8.2s8.2-3.7 8.2-8.3zm-13.1-.1c0-2.8 2.1-5.1 5.1-5.1 1.9 0 2.9.6 3.9 1.5l-1.4 1.7c-.8-.7-1.5-1.1-2.5-1.1-1.7 0-2.8 1.4-2.8 3.1s1.1 3 2.8 3c1.1 0 1.7-.5 2.5-1.1l1.4 1.4c-1.1 1.1-2.1 1.7-4 1.7-2.9.1-5-2.2-5-5.1z"/><path fill="#e6e6e6" d="m226.1 425.3h3.4l4.2 13.2 4.4-13.3h2.6l4.4 13.3 4.2-13.2h3.3l-6.2 18h-2.7l-4.4-12.8-4.4 12.8h-2.7z"/><path fill="#e6e6e6" d="m252.4 436.4c0-3.9 3.1-7 7.2-7 4.2 0 7.2 3.2 7.2 7s-3.1 7-7.3 7c-4.1 0-7.1-3.1-7.1-7zm11.2 0c0-2.3-1.7-4.3-4.2-4.3s-4.1 2-4.1 4.3 1.7 4.3 4.1 4.3c2.7.1 4.2-1.9 4.2-4.3z"/><path fill="#e6e6e6" d="m269 429.7h3.1v3c.8-2 2.4-3.4 4.8-3.3v3.2h-.2c-2.7 0-4.6 1.7-4.6 5.4v5.1h-3.1z"/><path fill="#e6e6e6" d="m278.6 424.5h3.1v11.1l5.6-6h3.8l-5.4 5.5 5.5 8h-3.5l-4.1-5.8-1.9 2v3.9h-3.1z"/><path fill="#e6e6e6" d="m291.3 436.4c0-3.9 3.1-7 7.2-7 4.2 0 7.2 3.2 7.2 7s-3.1 7-7.3 7c-4.1 0-7.1-3.1-7.1-7zm11.2 0c0-2.3-1.7-4.3-4.2-4.3s-4.1 2-4.1 4.3 1.7 4.3 4.1 4.3c2.6.1 4.2-1.9 4.2-4.3z"/><path fill="#e6e6e6" d="m307.7 438.2v-8.6h3.1v7.6c0 2.1 1.1 3.3 2.9 3.3s3-1.3 3-3.3v-7.6h3.1v13.4h-3.1v-2.1c-.8 1.3-2.1 2.3-4.2 2.3-3 .2-4.8-1.8-4.8-5z"/><path fill="#e6e6e6" d="m323.4 439.4v-7.1h-1.7v-2.6h1.7v-3.7h3.1v3.7h3.6v2.6h-3.6v6.6c0 1.2.6 1.7 1.7 1.7.7 0 1.3-.2 1.9-.5v2.5c-.8.5-1.7.7-2.8.7-2.3 0-3.9-.9-3.9-3.9z"/><path fill="#e6e6e6" d="m332.7 425.3h3.2v15h9.4v2.9h-12.5v-17.9z"/><path fill="#e6e6e6" d="m355.5 443.1v-1.7c-.9 1.1-2.3 2-4.4 2-2.6 0-4.8-1.4-4.8-4.2 0-3 2.3-4.4 5.4-4.4 1.7 0 2.6.2 3.7.5v-.2c0-1.9-1.2-2.9-3.3-2.9-1.5 0-2.6.3-3.9.8l-.8-2.5c1.5-.7 2.9-1.1 5.1-1.1 4 0 5.9 2.1 5.9 5.7v8zm.1-5.6c-.8-.3-1.9-.5-3.1-.5-2 0-3.1.8-3.1 2.1s1.1 2 2.6 2c2 0 3.5-1.1 3.5-2.9z"/><path fill="#e6e6e6" d="m364.4 441.1v2.1h-3.1v-18.7h3.1v7.4c1-1.4 2.4-2.5 4.5-2.5 3.2 0 6.3 2.5 6.3 7s-3.1 7-6.3 7c-2.1 0-3.5-1.1-4.5-2.3zm7.7-4.7c0-2.6-1.7-4.3-3.9-4.3-2.1 0-3.9 1.7-3.9 4.4 0 2.6 1.8 4.3 3.9 4.3 2.2 0 3.9-1.7 3.9-4.4z"/><path fill="#e6e6e6" d="m376.5 441.4 1.4-2.1c1.4 1.1 3 1.7 4.4 1.7s2.1-.5 2.1-1.5-1.3-1.4-2.8-1.8c-.1 0-.2-.1-.2-.1-2-.6-4.2-1.4-4.2-4s2.1-4.1 4.8-4.1c1.7 0 3.5.6 5 1.5l-1.2 2.2c-1.3-.8-2.6-1.3-3.8-1.3s-1.9.5-1.9 1.4 1.3 1.4 2.8 1.8c.1 0 .2.1.2.1 2 .6 4.2 1.5 4.2 4 0 2.9-2.2 4.2-5 4.2-2 0-4.1-.7-5.8-2z"/><path fill="#e6e6e6" d="m505.1 434.2c0-5.1 4.1-9.2 9.3-9.2s9.2 4.2 9.2 9.2-4.1 9.2-9.3 9.2-9.2-4.1-9.2-9.2zm17.4-.1c0-4.5-3.5-8.2-8.2-8.2s-8.2 3.7-8.2 8.3c0 4.5 3.5 8.2 8.2 8.2s8.2-3.7 8.2-8.3zm-13.1-.1c0-2.8 2.1-5.1 5.1-5.1 1.9 0 2.9.6 3.9 1.5l-1.4 1.7c-.8-.7-1.5-1.1-2.5-1.1-1.7 0-2.8 1.4-2.8 3.1s1.1 3 2.8 3c1.1 0 1.7-.5 2.5-1.1l1.4 1.4c-1.1 1.1-2.1 1.7-4 1.7-2.9.1-5-2.2-5-5.1z"/><path fill="#e6e6e6" d="m525 425.3h3.4l4.2 13.2 4.4-13.3h2.6l4.4 13.3 4.2-13.2h3.3l-6.2 18h-2.7l-4.4-12.8-4.4 12.8h-2.7z"/><path fill="#e6e6e6" d="m551.2 436.4c0-3.9 3.1-7 7.2-7 4.2 0 7.2 3.2 7.2 7s-3.1 7-7.3 7c-4.1 0-7.1-3.1-7.1-7zm11.2 0c0-2.3-1.7-4.3-4.2-4.3s-4.1 2-4.1 4.3 1.7 4.3 4.1 4.3c2.7.1 4.2-1.9 4.2-4.3z"/><path fill="#e6e6e6" d="m567.8 429.7h3.1v3c.8-2 2.4-3.4 4.8-3.3v3.2h-.2c-2.7 0-4.6 1.7-4.6 5.4v5.1h-3.1z"/><path fill="#e6e6e6" d="m577.5 424.5h3.1v11.1l5.6-6h3.8l-5.4 5.5 5.5 8h-3.5l-4.1-5.8-1.9 2v3.9h-3.1z"/><path fill="#e6e6e6" d="m590.1 436.4c0-3.9 3.1-7 7.2-7 4.2 0 7.2 3.2 7.2 7s-3.1 7-7.3 7c-4.1 0-7.1-3.1-7.1-7zm11.2 0c0-2.3-1.7-4.3-4.2-4.3s-4.1 2-4.1 4.3 1.7 4.3 4.1 4.3c2.6.1 4.2-1.9 4.2-4.3z"/><path fill="#e6e6e6" d="m606.5 438.2v-8.6h3.1v7.6c0 2.1 1.1 3.3 2.9 3.3s3-1.3 3-3.3v-7.6h3.1v13.4h-3.1v-2.1c-.8 1.3-2.1 2.3-4.2 2.3-3 .2-4.8-1.8-4.8-5z"/><path fill="#e6e6e6" d="m622.2 439.4v-7.1h-1.7v-2.6h1.7v-3.7h3.1v3.7h3.6v2.6h-3.6v6.6c0 1.2.6 1.7 1.7 1.7.7 0 1.3-.2 1.9-.5v2.5c-.8.5-1.7.7-2.8.7-2.3 0-3.9-.9-3.9-3.9z"/><path fill="#e6e6e6" d="m631.5 425.3h3.2v15h9.4v2.9h-12.5v-17.9z"/><path fill="#e6e6e6" d="m654.3 443.1v-1.7c-.9 1.1-2.3 2-4.4 2-2.6 0-4.8-1.4-4.8-4.2 0-3 2.3-4.4 5.4-4.4 1.7 0 2.6.2 3.7.5v-.2c0-1.9-1.2-2.9-3.3-2.9-1.5 0-2.6.3-3.9.8l-.8-2.5c1.5-.7 2.9-1.1 5.1-1.1 4 0 5.9 2.1 5.9 5.7v8zm.1-5.6c-.8-.3-1.9-.5-3.1-.5-2 0-3.1.8-3.1 2.1s1.1 2 2.6 2c2 0 3.5-1.1 3.5-2.9z"/><path fill="#e6e6e6" d="m663.3 441.1v2.1h-3.1v-18.7h3.1v7.4c1-1.4 2.4-2.5 4.5-2.5 3.2 0 6.3 2.5 6.3 7s-3.1 7-6.3 7c-2.2 0-3.6-1.1-4.5-2.3zm7.7-4.7c0-2.6-1.7-4.3-3.9-4.3s-3.9 1.7-3.9 4.4c0 2.6 1.8 4.3 3.9 4.3s3.9-1.7 3.9-4.4z"/><path fill="#e6e6e6" d="m675.3 441.4 1.4-2.1c1.4 1.1 3 1.7 4.4 1.7s2.1-.5 2.1-1.5-1.3-1.4-2.8-1.8c-.1 0-.2-.1-.2-.1-2-.6-4.2-1.4-4.2-4s2.1-4.1 4.8-4.1c1.7 0 3.5.6 5 1.5l-1.2 2.2c-1.3-.8-2.6-1.3-3.8-1.3s-1.9.5-1.9 1.4 1.3 1.4 2.8 1.8c.1 0 .2.1.2.1 2 .6 4.2 1.5 4.2 4 0 2.9-2.2 4.2-5 4.2-2 0-4.1-.7-5.8-2z"/></g>
</svg>
