<?xml version="1.0" encoding="utf-8"?>
<!-- Generator: Adobe Illustrator 23.0.1, SVG Export Plug-In . SVG Version: 6.00 Build 0)  -->
<svg version="1.2" baseProfile="tiny" id="Layer_1" xmlns="http://www.w3.org/2000/svg" xmlns:xlink="http://www.w3.org/1999/xlink"
	 x="0px" y="0px" viewBox="0 0 900 600" xml:space="preserve">
<g>
	<path d="M823.99,304.07l0.1-0.1C823.83,303.97,823.84,303.87,823.99,304.07z"/>
	<path d="M869.99,587.01c3.85-7.76,4.87-15.85,2.69-24.24c2.63-4.01-7.89-14.57-10.05-25.28c-1.34-6.63-4.15-13.15-8.18-18.23
		c-9.19-11.58-6.35-43.72-2.8-58.74c2.97-12.54,6.94-24.97,6.94-38.13c0-4.35,1.16-8.5,1.14-12.85
		c-0.1-27.57-10.02-43.13-8.91-55.32c0.09-1.04,0.62-2.49-1.04-2.9c-5.13,5.13,9.38,35.27,7.15,60.92
		c-2.79,32.07-14.63,64.73-10.26,92.21c-9.2,2.76-4.42-2.98-7.46-6.53c-1.24,2.59,0.21,5.18-0.93,7.67
		c-3.73-0.21-6.84,3.94-11.19,2.07c-0.41-1.66,0.62-3.63-1.14-5.08c-0.73,1.45,0.21,3.11-0.73,4.45c-1.97,0.1-2.19-1.04-1.76-2.59
		c2.19-7.86,0.13-4.59-0.83-32.84c-0.06-1.87-0.21-3.42-2.49-3.83c1.16-11.73-7.92-30.87-7.98-30.98
		c-21.77-37.36,16.17-57.16-16.37-82.47c-1.24,0.41-0.3,1.57-1.14,1.86c-6.27,2.2-11.4-2.04-17.09-3.32
		c-4.05-0.91-8.18-1.55-12.12-3.83c6.11-8.91,8.39-19.48,13.26-28.59c1.24,0,1.55,1.86,2.8,0.93c0.41-1.76-1.45-2.28-1.55-3.63
		c4.36-9.72,18.86-16.38,28.59-18.13c11.27-2.03,12.1,4.15,15.33,4.33c-3.62-4.39-2.07-2.75,9.22-0.08
		c4.78,1.13,2.8,2.72,13.36,23.52c1.99,3.92,3.32,8.18,2.18,13.36c-1.04-2.8-0.21-5.59-2.69-7.36c0.41,5.7,2.18,11.5-0.73,17.4
		c2.07-0.41,1.66-2.18,2.69-2.38c0.73,0.21,0.73,1.45,1.55,0.83c1.97-7.46,2.9-14.81-0.62-21.55c1.55-2.69,3.72-3.84,5.49-5.49
		c7.33-6.86,9.22-16.27,12.22-25.28c1.46-4.38,3.41-48.71,2.49-68.17c-0.24-5-3.33-34.45-1.86-40.82c1.05-4.56,0.58-8.8,0.1-13.16
		c-0.46-4.24-1.45-5.01-5.59-5.49c-7.37-0.86-18.43-0.6-18.86,6.84c-0.24,4.25-0.1,8.5,1.86,12.54c-3.42,0.73-6.53,1.45-9.84,2.18
		c-0.31-1.76-0.93-3.21-2.28-3.63c-0.21-10.46-4.35-18.96-10.57-26.73c3.55-2.61,2.12-5.24,2.28-23.62
		c0.05-5.71,4.83-11.13-1.55-15.33c-6.9-4.55-4.88-10.05-21.45-24.76c-8.26-7.33-27.99-5.63-36.99-0.52
		c-5.49-3.21-11.71-2.59-17.4-3.94c-2.69-9.12-2.38-18.13-1.97-27.14c1.86,0,2.18,1.86,3.83,1.55c0.31-0.21,0.93-0.41,1.14-0.83
		c8.63-17.42-1.58-20.29,2.28-30.77c0.97-1.94-1.19-1.31-1.86-9.22c-0.36-4.22-11.89-21.41-23.72-18.86
		c-3.93-3.22-4.56-5.49-6.94-4.77C718,2.78,718.52,4.56,718,5.8c-1.24-2.69-2.07-5.7-5.91-5.8c-0.21,2.38,1.55,3.32,2.18,5.39
		c-2.69-1.35-4.56-3.32-7.46-3.73c-2.72,8.17-5.72,0.24-2.28,8.5c-1.04,0.83-1.04,2.83-2.59,2.8c-2.8-0.05-3.42,1.97-4.14,3.73
		c-2.82,6.87-6.44,18.17-3.83,25.18c-10.5,10.88-0.53,15.61-1.55,19.37c-1.37,5.05,5.18,0.8,5.18,8.7c-10.48,0-12.69-0.4-12.02,11.4
		c0.56,9.74,3.5,19.15,2.8,29.11c-0.57,8.1,1.9,5.61-0.31,10.67c-1.55-5.28-2.28-13.05-1.55-14.5c-0.21-1.24-2.07-1.35-1.76-2.8
		c0.1-1.76,3.63-1.86,1.86-4.35c-5.46-0.73-1.81,6.78-15.13,1.66c-6.88-2.64-20.21-1.08-23.93,2.28
		c-5.86,5.29-11.28,9.54-10.26,19.68c0.09,0.93,0.31,2.49,2.38,2.59c-0.73-6.63,2.51-11.58,6.53-16.27
		c10.49-12.25,23.52-5.06,36.36-3c2.49,4.87,1.86,10.05,2.8,14.92c-4.77,3.11-6.94,7.67-8.91,12.43c-6.13-4.33,0.73-6.25,0.73-12.12
		c-1.76-0.52-1.24,1.66-2.69,1.66c-0.83-1.55-1.14-3.73-3.52-4.77c0.31,3.83,3.94,7.36,0.73,10.88c1.66,2.49,1.55,5.39,3.52,7.87
		c-6.01,1.66-11.25,5.07-17.2,0.83c-1.99-1.42-4.77-1.97-7.36-0.93c12.01,3.79,11.42,5.77,16.27,4.56
		c11.13-2.78,7.9-1.35,14.09-11.6c5.37-8.89,7.31-6.22,12.22-6.22c4.77,0.41,9.56,0.06,13.88,3.11c3.76,2.65,4.35,3.32,3.52,7.98
		c-5.18-0.52-10.67-0.31-14.92-4.25c6.39,10.28,18.88,0.57,15.64,14.19c-5.08,0.62-9.95-0.52-14.81-1.76
		c4.04,4.14,9.74,3.21,14.61,4.56c4.14,11.25-5.92,5.44-12.33,7.25c3.42,2.18,6.84,1.04,9.53,2.18c1.04,1.35,0.1,2.59,0.62,3.73
		c0.83,0.52,1.04-0.73,1.86-0.41c1.04,3.32-1.88,3.5-3.73,4.35c-2.19,1.01-4.66-0.93-6.94,0c0,1.55,2.07,1.24,2.07,2.69
		c-8,20.01-40.49,14.71-67.65,12.74c-0.62,2.69-3.42,4.04-3.73,6.94s2.07,4.77,2.9,7.25c-15.1,4.89-8.66-2.58-9.32-10.67
		c-0.68-8.28,10.91-14.28,17.3-13.05c3.4,0.65,27.29-2.64,42.37,0.1c5.38,0.98,10.15-1.86,14.09-5.8
		c-7.98,4.56-16.16,4.97-23.83,1.76c-13.99,1.04-27.35,2.18-40.82,0.83c-0.21-2.38-2.18-4.35-1.66-6.84
		c1.13-5.39,1.03-10.46-0.21-15.85c-1.57-6.84,2.62-13.38,9.12-15.75c4.76-1.73,4.12-2.61,4.35-2.38c2.07-0.1,3.52-1.14,4.45-3
		c-1.79,0.4-3.58,0.82-4.45,2.69c-2.69-0.1-5.28,3.52-8.08,0.41c-1.45,1.14-1.98,2.89-3.21,4.14c-8.24,8.4-3.31,17.4-3.42,22.17
		c-0.34,15.05,2.42,12.55,1.24,16.47c-4.96,2.48-9.99,5.11-10.46,10.67c-0.4,4.66-0.93,9.53,0.21,14.19
		c-4.14-0.31-3.32,3.21-4.25,5.7c-3.21-0.83-6.22-1.66-9.53-2.49c0.93-4.25-0.02-8.18-0.62-12.12c-1.29-8.44-4.89-6.85-19.68-4.04
		c-8.05,1.53-3.7,6.26-2.49,12.33c3.38,16.92-1.75,117.95,21.65,134.06c-0.1,2.69-0.1,5.39,0.62,8.18
		c-8.05,7.54-0.52,11.98-4.04,33.15c-2.46,14.77-7.68,44.4-4.87,59.88c7.49,41.32,2.04,30.59,6.73,58.53
		c4.76,28.35,1.17,14.01,0.41,36.67c0.43,0.43,2.66-1.94,4.97-0.62c-1.86-5.18-0.31-9.74,1.66-14.19c6.22-0.73,9.22,0,12.85,2.8
		c-0.1,3.73-1.45,7.67-0.62,11.29c5.49,1.66,10.57,3,14.5-2.8c-2.59-3-2.69-6.42-2.07-10.26c-3.74,0-1.24-6.32-1.04-10.98
		c0.46-10.47,1.44-20.83,5.28-30.77c4.58-11.84-0.54-12.84,4.97-23.72c19.52-38.56-4.35-61.58,6.84-73.45
		c10.89,8.58,25.78,7.53,41.65,6.11c4.04-0.36,10.01-0.52,10.67-4.45c0.88-5.19,3.32-10.15,3.21-15.64
		c-0.01-0.62,0.31-1.04,1.24-0.93c1.73,9.52-2.41,5.12-0.62,11.81c3.49,13.08-0.6,27.87,1.14,36.78
		c2.33,11.92,1.66,23.93,2.07,36.26c-4.25,1.45-8.5,3.11-10.57,7.46c3.32-2.07,6.73-3.42,10.36-4.66c0.93,4.41,1.17,8.04,4.87,9.01
		c4.35,1.14,8.6,3.21,13.26,2.28c7.77-1.55,16.68-1.04,19.48-11.29c3.52,1.45,6.94,2.9,10.36,4.35
		c2.56,12.47,3.48,13.61-11.71,16.47c-8.86,1.67-36.91,0.56-38.13,0.41c-7.98-0.95-9.27-1.96-9.43-10.36
		c-0.03-1.55,1.04-3.11,0-4.66c-1.45,0.31-1.76,1.35-2.07,2.38c-1.23,4.04,0.42,7.66,1.86,11.19c1.12,2.72,7.32,3.24,10.26,3.42
		c25.91,1.58,30.89,2.1,44.76-1.76c6.63-1.85,8.08-4.25,8.08-10.98c0-9.03-6.62-10.27-14.4-13.78c-1.08-2.94,0.52-15.83,0.21-23.41
		c-0.27-6.59-1.51-9.24-1.66-34.4c-0.07-13.13-2.21-12.33-2.18-7.67c0.67,80.18,0.19,60.7,0.83,68.38
		c0.74,8.93-17.2,10.63-26.42,8.5c-6.16-1.43-4.74-3.17-5.39-26c-0.12-4.25,0.19-8.7-0.73-12.85c-2.85-12.94-0.31-26.21-1.76-39.26
		c0-2.09,17.05-0.79,27.66-1.04c0,0.52,0,1.14,0,1.66c-6.94,1.86-14.09-0.21-21.13-0.1c4.87,2.8,10.46,1.86,15.85,3
		c0,74.53,0.62,32.15,0.62,65.48c-4.56,1.24-8.81,0.1-12.85-0.1c-0.93-0.52-0.21-2.07-1.66-2.07c-0.63,1.38-0.92,3.71,0.41,3.73
		c19.1,0.33,17.45,6.44,14.09-37.3c-0.77-10.05,0.93-19.99,1.24-29.94c1.97-0.62,3.83-0.21,5.7-1.66c-1.24-1.24-0.62-2.69,0.21-4.77
		c-37.18-1.79-31.69,2.47-30.77-6.73c30.22,0,29.76-0.68,31.39,1.66c0.83,1.76-0.31,3.42,0.73,4.97c0.41,0,0.83-0.1,1.14,0
		c23.44,7.29,60.94-1.86,56.05-8.29c-17.2,8.91-39.37,10.98-52.53,6.94c0.1-1.55,2.59-2.18,1.55-4.25
		c-1.76,0.93-2.18,3.21-4.14,3.73c0.72-21.49-2.29-16.29-1.55-19.99c3.25-10.96-3.52-12.19,9.95-3.21c-1.97-3.94-5.49-6.11-8.7-8.81
		c-1.45-5.8-1.86-12.33-8.81-15.44c6.53,2.49,12.43,5.49,17.82,9.53c-6.7-6.83-18.51-12.74-19.17-12.74
		c-6.39,2.81-21.18-8.76-26.42,8.08c-5.86,18.81-1,27.86-3.73,36.88c-3.94-1.66-1.14-4.66-1.45-6.94c-0.83-0.93-2.05,0.4-3-1.14
		c-2.57-4.13-24.74-20.38-36.88-34.08c-14.31-16.15-32.07-8.55-49.94-1.24c9.95-17.3,24.97-29.53,38.13-42.79
		c0.31-1.45-1.45-1.35-0.62-2.69c2.07-0.62,3.32-2.59,4.77-4.97c14.5,1.14,29.01,3.11,43.72,2.38c-9.74-1.97-19.68-1.55-29.53-3.63
		c1.81-7.51,2.09-11.32,3.94-11.29c3.94,0.05,7.55-2.36,11.81-0.62c7.27,2.97,21.57,4.12,24.97,0.73c-7.04-0.1-13.57,0.93-20.1-1.35
		c4.56-4.04,9.63,1.35,13.57-1.66c1.66,0.21,1.97,1.66,2.8,1.97c5.28-2.38,10.36,1.45,15.33-0.52c0.1,0,0.31,0.21,0.52,0.31
		c-0.41,0.83-1.66,0-1.86,0.83c3.83,3.94-0.73,8.7,1.45,13.05c1.03-11,0.99-12.25,3.83-12.74c15-2.59,22.59-1.14,22.69-0.73
		c-0.22,0.94-4.69,2.86,3,1.66c9.14-1.43,18.32-1.77,27.56-2.9c8.86-1.09,4.33,13.1,16.06,16.78c14.43,4.53,10.27,5.99,12.85,6.63
		c9.55,3.87,21.83,14.75,26.42,23.93c-5.91-2.07-11.48-2.66-16.78-4.35c-14.47-4.61-27.83,8.02-29.84,8.5
		c-9.41,2.21-15.12,17.93-18.03,27.14c-5.97,18.91-12.53,15.68-17.92,27.25c-0.63,1.34-1.55,2.59-0.73,4.14
		c1.24,0,1.24-1.76,2.38-1.86c0.83,0.21,0.93,1.35,2.07,0.93c-2.07-6.22,3.52-8.18,6.63-12.64c1.24,7.46,4.77,12.33,10.98,15.02
		c-4.56-3.52-7.67-7.87-8.7-13.88c3.96,0.99,15.03,7.56,29.84,6.84c4.07-0.2,9.31,2.97,10.15,4.87c6.41,14.49-1.35,24.19-3,44.03
		c-1.4,16.79,2.66,15.6,10.46,35.54c5.39,13.77,4.52,14.07,8.91,52.94c0.74,6.52-1.46,7.95-1.86,11.6
		c3.73,0.83,7.25,2.18,10.88,1.35c0.1,2.9,0.21,5.28,0.31,7.67c-10.9,6.93-6.93-1.75-11.4-4.97c1.55,3.32-0.41,7.87,3.94,10.36
		c2.8-1.14,5.59-2.28,8.29-3.42c1.14,0.83-0.31,2.49,1.55,2.9c4.25-4.04-1.35-9.63,1.97-14.09c4.25,0.21,8.5-1.35,12.95-0.73
		c1.66,3.21,0.41,6.73,1.66,9.84c3.32,2.07,3.32,2.07,3.21,4.97c-5.08-2.07-10.05-1.25-15.02,0.21c-3.52,1.03-4.45,2.49-4.35,6.22
		c3.83-4.25,9.01-4.67,13.99-4.97c15.93-0.97,9.78,26.47,21.34,32.12c0.93,5.7,3.44,11.09,2.38,16.78
		c-1.02,5.49-1.04,11.19-4.66,15.64c-3.73,0.73-7.15-1.03-10.36,0.1c-7.04,2.49-13.58,1.88-20.41-1.66
		c-20.68-10.71-0.66-30.78-13.78-38.75c-0.52,1.97,1.55,3.21,1.45,5.18c-2.07-1.14-3.75-2.14-5.49-3.11
		c-5.83-3.24-12.31-11.39-8.5-16.47c2.8-3.73,4.09-8.36,6.53-12.33c0.63-1.03,0.94-2.39,0.52-3.52c-2.17-5.79,3.24-9.92,1.24-11.91
		c-8.9,10.45,2.03,9.18-10.88,26.21c-5.83,7.69,6.21,20.91,17.4,23.41c1.24,2.49,1.14,4.46,0.21,6.84
		c-3.82,9.74-1.76,23.31,11.81,26.73c4.86,1.62,1.16,4.01,10.88,3.32c6.53-0.47,12.83-2,19.48-0.93c2.07,0.33,3.13-1.24,3.52-3.11
		C870.3,588.04,869.78,587.42,869.99,587.01z M694.59,58.95c-1.04-1.97-3.63-3.21-2.9-6.73C693.14,54.7,695.32,56.15,694.59,58.95z
		 M694.8,47.86c-0.83-0.52-1.45-1.04-1.14-1.97C695.11,46,695.11,46.72,694.8,47.86z M712,362.29c0.29-5.3-0.44-8.44,4.25-9.95
		c12.99-4.18,20.74,3.39,24.97,2.28c0.93,3.11,1.04,6.22,1.55,9.22C732.72,361.98,722.56,362.81,712,362.29z M707.85,349.86
		c1.11-5.32,1.34-22.93,6.42-24.76c1.45-0.52,1.66-1.86,1.55-3c6.11-3.11,11.79-1.08,17.4,0.52c2.11,0.6,2.57,2.49,2.27,2.49
		c-6.61-3.33-11-3.92-13.87-1.86c17.34,0.34,13.89,4.51,19.17,19.37c-0.39-10.26-4.06-15.84-4.45-15.45
		c-1.42-7.12,11.84,13.27,3.42,24.15c-10.77-4.14-21.34-5.59-31.39,2.8C707.44,352.97,707.55,351.31,707.85,349.86z M834.35,193.63
		c6.01-2.07,12.54-1.35,18.96-3.73c-2.18-2.49-4.35-0.93-6.63-1.66c-0.31-4.56-0.73-9.32-1.04-14.09c6.01-2.69,11.81-3,18.03-1.45
		c3.42,9.87-1.19,4.3-0.62,12.02c1.52,20.78,10.07,93.85-5.7,130.23c-1.94,4.47-6.11,7.36-9.63,10.57
		c-2.37-1.19-8.46-18.23-8.5-18.34c1.03-3.61,8.86-3.49,11.4-21.24c2.47-17.28-1.47-35.01,1.24-38.13
		c1.29-1.48-3.36-24.61-1.76-28.49c-4.14-2.9-9.12-2.38-14.61,1.35c-0.83,1.24,0.1,2.69-0.52,3.94c-0.62,1.24-0.41,2.59-1.04,4.14
		c-5.39,2.18-10.88-0.73-16.89,0.62c-2.07-13.47-2.07-26.42-2.69-39.68c5.28-1.35,10.57-0.41,15.54-1.04
		C831.97,189.8,832.79,191.97,834.35,193.63z M830.41,186.69c-3.73,0.73-7.46,0.52-11.19,0.83c-0.83-1.86-2.28-3.52-0.73-5.39
		c-4.04-5.59-9.22-7.14-15.64-5.91c-6.83,1.31-31.24,0.96-44.03,2.59c-5.49,0.7-10.87,0.09-16.27-1.45
		c-7.66-2.19-9.95-8.08-12.22-15.13c4.14,1.45,7.77,2.18,10.77,4.56c7.97,6.31,14.37-1.6,23.1-1.66c8.08-0.05,15.96-2.29,24.04-1.45
		c18.14,1.89,13.14-2.63,32.32,0.93C826.42,165.71,829.83,183.91,830.41,186.69z M764.11,98.01c0.21,1.04-1.35,1.66-0.93,3.21
		c-5.89,0.33-5.02,1.52-5.39-3.32C759.86,97.28,761.83,96.87,764.11,98.01z M746.91,97.18c2.38,2.38,0.1,4.77,0,7.04
		C746.91,101.84,746.91,99.56,746.91,97.18z M748.36,110.23c2.69-5.3,0.92-10.28,2.69-12.85c8-1.85,0.99,3.71,8.7,38.95
		c-5.18-4.77-8.39-10.05-13.05-14.09C746.08,118.11,746.41,114.08,748.36,110.23z M749.81,128.57c16.79,19.61,11.43,10.69,17.2,11.4
		c7.77,0.95,14.83-1.71,21.86-4.25c3.95-1.42,8.5-1.66,11.6-5.08c1.04-1.14,3.11,0.31,5.28-1.35c-10.15-0.41-18.34,3.52-26.73,6.73
		c-2.8-5.59-0.21-13.05,6.73-18.86c-6.63,1.14-11.6,11.29-9.74,19.89c-3.11,1.55-4.14,1.55-11.91-0.21
		c-3.42-10.05-4.14-21.03-6.63-31.49c2.28-1.86,5.18-1.24,7.56-2.59c-0.83-2.69,0.61-4.27,3.11-5.08c4.34-1.39,8.71-2.82,13.36-2.07
		c18.85,3.04,12.29-3.38,39.06,26.73c2.49,2.8,3.21,4.97,3.11,9.32c-1.67-0.3-1.12-3.45-3.11-3.63c-1.04,1.14-0.1,2.07,0.41,2.8
		c3.99,5.6,0.37,9.44,1.66,21.96c0.32,3.11-0.62,5.8-2.69,8.29c-9.63-1.97-19.37,2.38-29.22-0.62c3-1.04,6.32,0.52,8.91-1.66
		c-4.14,0.52-8.49-0.2-12.64,1.55c-2.69,1.14-5.8,1.44-8.7,1.14c-4.14-0.43-8.29,1.86-12.22-0.41c-2.28,0.93-4.04,2.59-6.22,2.9
		c-1.04,0-0.52-1.35-1.35-1.24c-1.3,0.65-7.2,7.69-16.27,2.49c-1.86-1.55-4.04-2.59-5.91-3.83c-4.14-0.21-7.7-2.31-11.29-3.83
		c-2.09-0.89-2.28-2.07-1.35-4.97c0.93-1.24,2.69,0.93,3.42-0.93c-5.18-2.18-6.32-3.83-4.87-7.46c1.24-0.62,6.02,0.4,7.25-1.66
		c-1.24-0.73-2.49-0.34-3.73-0.21c-3.86,0.4-6.22-2.17-1.86-8.7c4.35-1.04,8.18-3.32,12.74-3.21c-6.31-2.88-14.61,5.89-15.23-2.8
		c6.01-4.87,13.15-5.15,20.2-4.45C744.94,123.51,747.51,125.89,749.81,128.57z M729.92,73.56c4.25-1.76,7.98-3.32,11.91-0.41
		c2.59,15.64,2.59,31.49,2.07,47.66c-3.94,0-7.98,0-12.33,0C731.06,105.16,730.44,89.51,729.92,73.56z M751.05,52.53
		c0.62,1.55,0.62,2.9,0.21,4.56C749.81,55.53,749.19,54.29,751.05,52.53z M749.6,48.07c0.83,1.45,0.41,1.97-0.73,2.28
		C748.26,49.52,748.98,49,749.6,48.07z M747.43,61.02c6.34-4.93,1.58-1.3,1.35,2.59C747.22,62.99,747.32,62.06,747.43,61.02z
		 M730.13,11.91c0.31-0.21,0.62-0.21,1.04,0.21C730.36,13.33,729.76,12.28,730.13,11.91z M731.58,19.79
		c-0.1,0.73-0.31,1.04-0.93,1.14C730.23,20.2,730.33,19.79,731.58,19.79z M723.49,20.31c0.62,0.73,0.73,1.35-0.21,1.86
		C722.77,21.45,722.56,20.82,723.49,20.31z M702.26,23.93c-0.93,0.62-1.55,0.31-2.28-0.41C701.12,22.59,701.64,23.21,702.26,23.93z
		 M702.26,32.84c0.2-2.49,3.52-3.42,2.59-6.11c1.24-0.31,1.24,0.83,1.97,0.83c2.28-3,7.77-3.83,11.29-1.24
		c5.3,3.9,3.78-3.43,15.64-0.62c0.31,0.62-0.52,1.66,0.73,2.07c0.93,0.41,0.62-1.35,1.24-1.24c8.29,13.68,13.57,27.77,5.28,43.62
		c-7.83-2.99-11.44,2.2-15.54,1.14c-4.55-1.18-9.01,0.69-13.57,0c-0.72-0.11-1.35,0.21-1.66,1.76c5.49,1.76,11.29-1.76,16.78,1.04
		c0,18.37,0.98,15.99-4.56,15.23c-6.32-0.87-8.29,1.13-11.4-1.66c-9.74-8.74-4.23-12.55-12.12-22.59
		C694.16,58.98,701.84,38.16,702.26,32.84z M703.71,122.66c-4.35-0.41-8.18-0.73-12.85-1.14c0.41-15.85-2.28-31.49-3.21-47.55
		c4.25-2.07,8.39-2.28,12.85-0.41C701.12,89.93,704.12,105.98,703.71,122.66z M710.65,126.39c-5.76-3.54-4.87,0.59-4.87-13.99
		c4.35,1.14,7.15,4.97,11.29,6.32c-3.21-3.52-7.25-6.11-11.6-8.7c-0.1-8.91-1.45-17.82-2.59-27.35c3.73,2.28,4.25,7.25,8.7,7.25
		c0.73,1.24-0.1,2.69,1.35,3.52c1.14-0.1,0.21-1.45,1.04-1.76c14.51,0.38,12.76-2.38,10.26,6.11c-1.45,1.55-3.94,1.14-5.28,2.8
		c3.52,1.45,4.14,1.04,8.81-6.01c1.35,8.91,1.14,17.61,0.83,26.63c-18.5,9.25-2.74,8.64-8.08,13.99
		C709.42,129.9,714.75,129.47,710.65,126.39z M635.54,521.53c-3.83,2.9-5.49,3-9.63,0.52c-0.41-1.04-0.21-2.07,0.41-3.32
		C635.19,517.04,633.02,516.81,635.54,521.53z M693.45,353.59c10.79,8.39,5.31,8.73,5.7,11.09c0.62,0.53,3.3-2.33,3.21,4.77
		c-0.05,4.15-1.87,6.31-5.91,6.53c-32.38,1.74-37.21,0.92-42.99-5.08c5.18-4.66,11.89-3.25,17.3-5.8
		c26.06-12.28,15.13-5.97,9.43,1.86C687.03,364.22,690.06,355.89,693.45,353.59z M647.97,316.61c9.22,3.91,17.92,8.08,22.9,16.99
		c6.73,5.91,13.36,11.81,20.41,18.03c-4.57,5.19-22.46,11.69-30.15,12.33c-7.15,0.59-11.07,4.67-13.68,13.16
		c-4.63,15.08,5.25,18.55,0.21,51.7c-1.35,8.91-6.71,16.27-8.6,24.86c-2.76,12.54-5.9,24.97-6.22,37.92
		c-0.33,13.34-3.08,16.78,0.41,20.82c1.18,1.36,0.25,4.78-2.8,2.07c-0.31-2.18-0.62-4.56-0.93-7.25c-2.8,2.49-0.31,5.8-2.07,8.7
		c-1.45-1.76-0.13-3.71-1.24-5.08c-1.1-1.36-2.71-1.82-4.03-2.84c0.71-2.58,0.7-5.05-0.32-7.31c-1.91,5.72,0.1,7.2,0.1,7.1
		c0.6,0.8-3.89-1.76-11.28-0.98c-1.04-3.94-1.57-7.77-1.86-11.6c-2.13-27.33-3.76-19.84-2.69-30.36
		c1.99-19.74-12.78-36.43-0.83-86.4c2.19-9.16-0.92-10,0.52-13.36c3.86-9.04-3.98-14.97,0-23.1c1.78-3.64,5.53-9.44,2.28-11.4
		c0.93-2.8,1.86-5.28,3.42-7.67C621.23,320.95,637.81,312.29,647.97,316.61z M683.71,254.34c1.97-0.41,3.63-1.14,5.59-0.62
		C687.65,254.86,686.09,256.52,683.71,254.34z M703.5,252.58c2.69-1.24,4.66-1.04,6.53,0C708.06,252.99,706.19,253.72,703.5,252.58z
		 M713.34,254.03c-1.04,0.1-1.45-0.21-1.04-1.24C713.24,252.68,713.45,253.2,713.34,254.03z M718,252.58
		c2.28-0.31,4.35-0.41,7.46,0.41C719.97,255.17,719.25,255.07,718,252.58z M726.6,252.68c1.14,0.83,1.76,1.45,1.76,2.8
		C726.08,255.58,726.91,254.03,726.6,252.68z M728.99,252.27c1.97,0.52,1.55,1.76,2.28,3.42
		C729.19,254.55,729.3,253.62,728.99,252.27z M733.75,254.44c-0.93-1.24-0.93-1.24,0-2.8C734.89,252.89,734.89,253.72,733.75,254.44
		z M737.07,253.41c0.31-2.38,1.66-1.45,3.63-1.14C738.93,253.82,738.93,253.82,737.07,253.41z M742.14,252.58
		c0.73-1.24,1.66-0.73,2.59-0.83C745.76,256.18,741.98,254.98,742.14,252.58z M749.4,255.07c-3.9,1.17-3.32-5.13,1.14-2.69
		C750.12,253.31,749.81,254.24,749.4,255.07z M754.37,255.17c-0.28-1.83,1.86-3.33,2.59-1.86
		C756.96,255.07,756.44,256.21,754.37,255.17z M758.72,255.48c0.21-2.28,0.21-2.28,3.52-1.86
		C761.41,255.48,760.17,255.58,758.72,255.48z M763.28,254.65c1.55-0.73,2.59-0.52,3.83-0.1
		C765.87,255.48,764.94,255.69,763.28,254.65z M828.55,290.71c-12.68-11.29-12.1-13.36-19.48-15.02c-0.52-0.12-1.34,0-1.55-0.31
		c-2.65-3.87-7.26-3.61-11.09-4.97c-9.29-3.31-5.53-7.37-9.74-13.57c-1.39-2.05-3.2-3.58-5.7-3c-5.78,1.34-11.08-0.74-16.47-1.97
		c-4.14-0.94-8.5-0.73-12.54-2.38c43.7-3.64-19.56,0.51-35.02-0.93c0.73,0.62,1.76,0,2.18,0.83c0,1.32-17.92-0.09-18.03-0.1
		c-6.42-0.55-12.33,2.07-18.54,2.49c-2.45,0-0.86,3.93-5.7,3.63c-6.11-0.39-6.94,4.35-8.5,8.39c-2.04,5.31,0.82,4.69-8.5,4.35
		c-10.15-0.37-5.24,3.07-14.3,11.6c-13.74,12.95-16.75,12.48-27.14,28.08c-9.23-6.64-11.7-75.34-11.81-79.88
		c-2.18-0.62-2.59,0.52-2.59,1.76c0,2.18-0.33,4.35,0.1,6.42c3.22,15.57-0.62,55.95,12.85,74.8c-2.28,5.59-7.25,9.43-9.53,15.64
		c-8.76-11.06-7.88-8.32-12.43-37.81c-4.7-30.43-7.04-75.93-7.04-103.91c17.65-3.38,15.07-4.3,16.99,11.81
		c-1.24,1.45-2.38,0.93-3.63,0.62c-0.93-0.93-0.21-2.69-1.86-3.42c-0.73,1.55-0.1,3.11-0.31,4.77c7.25,1.24,14.09,3.83,21.34,4.25
		c-2.86-11.8,6.55-2.32,14.82-7.77c-0.03-0.63-3.74-10.69,5.18-11.29c6.03-0.41,23.44,0.61,24.55,0.83
		c6.87,12.51,14.25,39.78,14.09,53.25c-0.05,4.46,2.49,8.18,3.21,12.54c1.76-2.69,2.2-5.71,0.93-8.29
		c-2.99-6.11-0.25-10.98-2.59-19.68c-10.66-39.72-2.66-16.45-11.29-37.61c7.67-0.52,15.13-1.14,22.27-1.66
		c4.35-5.08,12.02-7.67,12.85-15.95c3,0.1,5.18-2.07,7.77-3.11c1.04-4.56,1.04-4.56-1.24-7.36c5.54-0.17,2.33-4.79,2.9-13.57
		c0.54-8.31-2.69-3.74-0.41-8.29c2.8-0.52,4.04,2.28,6.63,2.38c-0.62,1.97-0.31,3.73,1.04,5.49c-4.12,3.14,0.31,6.27,0.31,11.81
		c0.21,3.73,3.21,4.87,6.53,6.01c1.45,3.94,1.14,8.5,3.52,12.54c-1.45-0.1-2.07-0.31-2.59-0.52c2.08,3.98,10.57,5.6,21.76,16.78
		c-0.93-4.04-3.42-5.91-5.59-8.08c11.4,2.49,22.69-1.14,34.19-0.31c-0.21,2.59-1.55,4.87-2.49,7.46c3.21-1.14,3.21-1.14,5.28-7.36
		c0.93-0.73,1.86-0.73,3.11,0.21c-2.38,10.88-3.66,21.95-7.25,32.84c-11.51,34.89-5.72,41.29-4.56,37.81
		c0.31-8.7,3.64-10.27,4.66-25.69c1.13-16.99,10.53-26.11,13.05-46.1c18.5-1.25,22.18-3.88,24.86,6.84
		c-0.83,1.24-2.49-0.21-2.9,0.62c-0.93,1.24-1.03,2.17-0.93,3.11c3.49,34.14,0.2,40.74,6.32,41.54
		c13.66,1.79,21.48,1.94,19.58-10.05c2.69-1.76,5.7-1.55,9.22-1.24c2.29,19.66,1.07,36.16,1.55,60.3c0.19,9.22-3.42,16.47-10.15,23
		C835.8,299.3,832.82,294.51,828.55,290.71z"/>
	<path d="M59.93,138.31l-0.1-0.1C59.86,138.26,59.89,138.35,59.93,138.31z"/>
	<path d="M457.55,148.88c-1.97-0.09-2.69-1.14-2.18-3.32c3.94,0,7.67,0,11.4,0c0.52,0.52-0.1,1.97,1.45,1.97
		c0.62-0.83,0-2.18,1.76-3.32c1.14-1.24,3.83,0.62,6.63-1.24c-11.36-0.81-21.62,4.51-21.76-1.66c-0.07-3.19,1.89-1.55,10.67-2.69
		l-0.1,0.1c3.83-1.24,8.18-0.73,11.71-3.11c-31.4,3.23-22.29,0.99-23.83,15.85c-10.98,3.94-21.44,8.93-32.43,12.22
		c-18.4,5.52-31.9-1.37-36.88-0.21c-3.62,0.85-7.26,0.23-10.67-0.93c-15.1-5.12-31.06-0.03-43.2-12.43
		c-13.99-14.29-8.49,7.36-10.36,20.31c-18.42-12.06-26.24-41.31-28.9-66.1c2.59-0.62,4.97-1.24,7.56-1.86
		c-2.71-9.2,26.72-9.96,36.99-1.14c5.07,4.36,8.6,10.26,13.68,15.02c-1.66,0.52-3.42-1.04-4.14,1.14c2.07,1.45,2.28,1.35,4.66,1.76
		c8.91,1.55,17.37,4.5,25.07,9.22c10.98,6.73,7.17,1.49,39.37,9.12c10.1,2.39,25.02,2.66,33.26-1.66c-0.83-3.21,1.14-6.01,0.21-9.12
		c-1.97,2.18-2.18,4.77-1.97,7.56c-4.79-0.44-13.15,3.57-24.55,1.14c-9.85-2.1-30.57-6.47-41.23-6.32
		c-5.48-5.32-14.51-8.3-22.27-10.57c-9.64-2.81-7.41-8.27-22.79-21.96c-8.24-7.33-27.97-5.54-36.99-0.52
		c-6.01-3.42-12.85-2.69-19.37-4.14c-0.52-9.12-0.73-18.03,0-27.14c1.86,0.52,2.18,2.18,3.94,1.76c0.21-0.21,0.83-0.41,1.04-0.83
		c8.67-17.8-1.78-19.41,2.18-30.36c0.97-2.27-1.49-1.35-2.07-9.95c-0.12-1.76-0.72-3.53-1.97-4.77
		c-3.54-3.49-11.21-16.06-21.45-13.57c-9.91-8.6-7.55-3-8.7-1.35c-1.86-4.77-3-5.7-5.91-5.28c-0.21,1.86,1.76,2.8,2.07,4.77
		c-12.81-6.66-3.01-2.84-11.19,1.04c0.62,1.45,1.24,2.69,1.76,3.83c-2.28,3.03-4.97,2.43-6.01,5.08c-3.39,8.65-6.94,17.3-4.97,27.14
		c-8.34,7.54-3.07,13.44-2.07,16.47c1.02,3.11,1.9,5.43,4.97,7.46c4.24,2.8,1.86,19.01,3.73,30.67c-7.15,1.45-14.71,0.83-20,6.53
		c-3.11-0.52-6.02-1.01-8.81-2.07c-7.9-3.02-21.64-0.25-23.93,2.28c-3.39,3.76-7.33,6.96-9.84,11.6c-1.74,3.22-3.02,6.92-6.84,8.7
		c-17.11,7.99-19.15,6.77-26.73,11.71c-10.22,6.65-18.86-0.27-33.26,4.14c-9.22,2.83-28.87,6.23-42.48,4.45
		c-0.1-2.24-0.81-4.16-1.91-6c-2.84,0.24-1.32,3.21-2.96,4.44c-6.88-0.66-7.23-9.05-2.49-11.5C55.68,118,56.3,105.16,53.71,92
		c-5.34-3.08-14.45-4.16-15.33,3.21c-2.6,21.74,2.48,29.18,0.1,35.43c-6.94-0.52-9.63,2.69-8.91,7.77
		c-2.07,0.73-3.74,2.49-3.32,4.45c0.68,3.18-0.34,18.79,3.42,20.1c3.44,1.2,6.11,3.94,9.74,4.45c11.53,1.65-4.75,23.83,41.54,7.36
		c0.52,3.42,0.83,6.22,1.35,9.63c-5.52,0.18-0.87,17.78-1.66,30.04c-0.12,1.86,1.14,2.8,2.69,3.63c6.42,3.42,11.4-0.1,16.47-2.9
		c0.63-6.89-7.28-6.59,20-5.8c-0.63,4.46,0.07,40.86,3.63,66.72c5.27,38.32,7.37,45.76,16.68,52.22c-0.62,3.83,1.06,8-1.97,11.71
		c-1.86,2.28-1.67,5.01-0.39,7.59c0.35-6.66,7.86-12.78,3.81-17.02c0.83-2.8,1.86-5.08,3.32-7.36c8.29-1.76,16.06-5.71,24.66-6.94
		c13.3-1.91,26.89,6.75,33.77,15.64c6.41,8.29,19.99,17.29,21.03,19.89c-22.64,19.47-52.07,0.28-42.99,47.14
		c6.93,35.8-15.75,48.26-15.75,98.63c-0.52,1.14-1.24,0.31-2.07,0.41c-0.31,1.97-1.35,4.14,1.66,5.59
		c-2.69,5.84,5.95,14.78-1.45,11.09c-0.31-2.38-0.52-4.87-0.93-7.67c-2.69,2.8-0.31,6.22-1.97,9.43c-1.45-2.28,0-4.35-1.45-5.8
		c-3.32-3.32-10.7-4.1-15.02-3.73c-2.8-7.39-1.52-18.98-3.32-26.73c-1.66-7.15-1.28-14.3-1.45-21.55
		c-0.37-15.56-11.95-34.68-0.62-81.12c1.61-6.59-1.08-9.1,0.93-15.33c1.59-4.9-1.23-9.31-2.08-13.9
		c-4.28-1.37,0.16,10.32-0.51,11.73c-1.73,3.64-0.82,7.56-1.76,11.29c-2.77,10.99-3.56,22.17-4.66,33.36
		c-3.02,30.58,4.17,32.78,4.56,63.71c0.18,14.62,6.26,38.56,4.77,40.82c-2.99,4.52-1.16,9.57-2.33,15.47
		c-3.11,0.89-12.3,18.68-13,27.42c-0.57,4.02-8.57,4.49-7.77,38.13c0.11,4.56,6.01,8.51,10.98,7.87
		c24.34-3.12,16.33,10.05,34.29-7.15c16.28-15.59-0.77-29.76,6.63-32.43c2.81-1.01,5.08-3,7.56-4.56c5.09-3.2,8.66-9.35,4.97-17.92
		c-1.43-3.32-3.83-5.8-5.7-8.7c0.8-18.96-8.68-21.82-7.46-19.37c0.57,2.28,4.17,0.6,4.97,15.64c0.3,5.71,2.02,6.34,4.56,10.26
		c3.71,5.71,3.54,13.49-0.83,16.99c-2.48,1.98-5.28,3.42-8.39,5.39c0.21-2.18,2.28-3.52,0.93-5.91
		c-10.02,12.28-0.77,18.33-3.11,27.56c-1.37,5.41-3.23,10.34-7.87,14.09c-12.81,10.35-11.34,0.16-30.77,3.21
		c-3.31,0.52-9.45-4.87-8.6-7.77c1.67-5.71-0.97-18,4.66-27.87c3.33-5.85,5.36-14.43,8.39-17.92c1.76,0.33,19.19,4.16,22.9,1.66
		c-6.42-5.59-14.3-4.97-22.07-4.77c0-2.49,1.45-2.08,2.8-1.86c6.43,1.01,13.08,1.05,19.37,3.32c0.83,0.3,1.76,0.83,2.59-0.52
		c-0.31-3.11-3.83-2.59-5.39-4.45c-0.93,0-1.86,0-3.73,0c3.64-1.21,7.6,1.44,10.15,1.55c1.04-1.86-0.31-3.94,1.14-5.18
		c-2.57-3.85-12.98-5.13-20.93-6.59c0.91-0.39,1.81-0.74,2.9-0.04c-1.76-5.28,0-9.63,1.97-14.19c18.59-0.86,10.46,5.72,11.91,14.19
		c5.59,1.55,10.67,2.9,14.5-2.59c-1.97-3.21-3.21-6.42-1.86-10.15c-2.38-0.73-2.5-2.59-2.07-4.45c1.52-6.63,0.11-22.38,6.63-39.06
		c3.32-8.5,0.7-13.17,2.8-18.13c5.25-12.44,8.47-16.18,9.95-35.43c1.26-16.46-9.43-30.89-1.66-42.17c3.73,2.59,7.36,4.85,11.6,5.7
		c13.34,2.66,34.44,0.24,37.19-0.52c2.38-0.65,3.62-1.97,4.14-4.35c1.12-5.08,2.9-10.05,3.21-15.33c0.1-0.41,0.52-0.52,1.24-0.41
		c0.1,2.28,1.03,4.66-0.83,7.04c-0.73,0.93-0.62,2.38-0.31,3.52c3.46,12.61-0.04,31.3,1.55,38.54c2.61,11.81,1.14,23.72,2.07,35.54
		c-8.81,4.14-8.81,4.14-10.57,7.87c3.32-2.18,6.63-3.83,10.46-4.77c0.52,3.42,0.3,7.18,3.83,8.5c3.41,1.27,6.94,2.7,10.77,2.8
		c7.42,0.19,21.88-2.14,22.48-11.5c3.73,1.55,7.25,3,10.67,4.45c1.04,3.94,1.97,7.77,1.66,11.81c-10.15,7.29-31.96,5.33-41.03,5.28
		c-12.84-0.07-19.79,0.87-19.79-9.95c0-3.13,1.36-4.7-0.1-5.28c-1.14,0-1.34,0.83-1.66,1.55c-1.83,4.16,0.18,7.88,1.35,11.6
		c1,3.18,8.03,3.78,10.88,3.94c25.29,1.43,30.4,2.17,44.34-1.76c6.85-1.93,8.18-4.25,8.18-11.29c0-8.33-7.23-10.51-15.02-13.88
		c2.38-22.79-1.66-45.58-0.41-68.58c29.85,4.26,57.31-4.43,53.04-9.22c-17.09,7.77-34.4,10.77-52.73,7.04
		c0.31-1.86,2.59-2.59,1.76-4.56c-1.97,0.52-2.07,3.21-4.35,3.32c2.14-19.58-3.19-9.99,0.21-28.7c4.04,2.8,7.77,5.28,11.19,8.18
		c-5.56-8.96-11.67-7.56-12.85-16.47c-1.18-8.91-10.6-10.8-6.63-7.46c6.58,5.53,5.8,13.26,5.7,20.72c-0.03,1.86-0.52,3.73-2.18,5.28
		c-10.88-4.14-21.55-5.59-31.49,2.8c-0.93-0.83-0.83-2.28-0.62-3.52c1.16-6.95,1.78-23.75,6.22-25.28c1.55-0.53,2.18-1.66,1.97-3.21
		c8.46-4.44,18.18,1.56,19.54,1.09c0.54-2.67,13.97,7.99,15.27,6.68c-1.95-1.82-15.83-11.65-17.82-10.15
		c-2.46,1.85-3.83-0.86-14.09-1.45c-14.44-0.83-15.09,26.72-13.99,36.57c0.39,3.52-0.1,6.53-0.83,9.84
		c-2.18-1.86-2.18-1.86-1.76-7.04c-0.62-0.73-1.46,0.42-2.28-0.52c-5.55-6.37-12.35-11.47-18.75-16.99
		c-14.86-12.8-25.41-29.71-41.96-27.35c-17.47,2.49-23.92,8.08-26.42,8.08c9.74-16.99,24.66-29.32,37.92-42.58
		c0.31-1.45-1.35-1.45-0.52-2.8c2.18-0.52,3.32-2.49,4.77-4.97c14.4,1.24,28.9,3.11,43.51,2.49c-9.53-2.07-19.37-1.45-29.22-3.63
		c1.68-7.2,1.95-11.32,3.83-11.29c3.83,0.05,7.35-2.48,11.4-0.83c9.37,3.82,23.16,3.79,25.28,1.14c-10.27,0-14.98,0.39-19.89-1.45
		c3.52-1.86,4.03-1.94,7.25-1.14c5.91,1.47,5.77-0.99,6.63-0.41c1.55,0.31,1.76,1.97,3.21,2.07c1.24-2.38,3.31-0.53,4.97-0.73
		c1.97-0.23,3.74,1.27,5.91,0.62c1.66-0.5,3.42-0.52,5.28-0.73c-0.73,1.55-2.28,0.31-2.69,1.14c3.11,4.77-0.73,9.74,0.83,14.5
		c2.55-8.66-0.44-13.5,5.18-14.3c9.45-1.34,8.64-2.67,22.17-0.52c-0.31,1.14-1.45,0.52-1.55,1.55c3.08,0,30.98-2.89,31.08-2.9
		c3.84-0.5,5.14,0.54,6.73,4.14c8.69,19.69,5.75,3.84,37.71,28.9c4.47,3.5,8.39,7.77,11.5,13.68c-19.8-4.78-26.98-8.44-43.1,2.59
		c-5.56,3.8-7.44,2.05-11.71,8.08c-10.86,15.35-8.08,28.07-21.24,39.68c-3.1,2.73-8.06,9.1-7.15,12.74c1.45-0.1,1.35-1.66,2.38-1.97
		c1.09-0.11,3.54,4.41,1.45-2.9c1.76-2.17,5.39-7.21,7.25-7.87c3.11,8.91,6.22,12.74,12.02,14.09c-5.39-3.63-8.5-7.98-9.63-14.09
		c3.32,1.14,5.99,2,8.5,3.32c12.41,6.55,19.08,0.12,31.49,7.03c-1.92-4.19-6.16-5.74-9.01-8.59c-1.35,0.52-0.41,1.76-1.35,1.97
		c-6.32,1.86-11.4-2.14-17.09-3.42c-4.05-0.91-8.18-1.55-12.02-3.83c5.91-8.91,8.29-19.27,13.05-28.39c1.35-0.41,1.66,1.55,2.9,0.93
		c0.73-1.76-1.66-2.38-1.45-3.83c5.68-11.77,31.47-24.08,41.54-15.13c1.71-1.95,0.95-1.23,11.5,1.24c4.65,1.09,2.91,2.94,13.16,23.1
		c2.1,4.13,3.63,8.5,2.59,13.88c-1.76-2.59-0.1-5.8-2.9-7.46c0.73,5.8,1.97,11.6-0.52,17.3c0.31,0.1,0.62,0.21,0.93,0.21
		c2.95-5.3,1.15-1.45,3-1.45c2.07-7.46,3-14.82-0.73-22.27c7.36-5.7,12.62-12.44,15.13-21.34c1.34-4.77,3.5-9.32,3.63-14.4
		c0.35-13.88,2.5-27.77,1.97-41.75c-1.54-40.41,1.54-44.37-2.69-49.42c6.01,0.52,10.98-0.83,16.58-2.8
		c-4.35-0.73-22.69-0.21-23.72,0.41c1.35,2.07,4.04,1.24,5.91,2.69c-1.53,33.4,3.51,46.24-1.14,91.79
		c-2.62,25.69-18.8,36.64-17.3,30.5c-2.75-1.36-6.68-13.9-7.56-16.82c14.91-12.78,13.26-30.85,11.4-54.49
		c-2.17-27.52,1.31-12.59-0.73-44.13c-2.99-46.47-1.45-11.25-1.45-42.27c6.01,1.24,11.6,3.21,17.61,3.52
		c-1.66,4.35,0.93,8.08,0.62,11.81c-2.07,1.55-4.35-0.62-6.32,0.83c3.83,2.69,9.32,2.69,13.57,0.21c-1.66-0.83-3.52,0.21-5.18-0.83
		c-0.93-16.71-4.58-9.32,19.58-13.16c0.92,2.15,0.74,4.6,2.84,5.76c-1.43,1.41-2.96-1.08-4.6,0.25c-0.41,2.07,0.1,4.14,1.14,6.32
		c1.86-1.35,0.52-3.32,1.55-4.66c4.66,1.04,9.43,0,14.5-0.93c-0.83,12.12,1.04,24.14-0.1,36.47c-4.77-0.52-9.22,0.73-13.57,0.1
		c-1.45-3.73-0.41-7.56-2.38-10.88c-1.04,4.04-0.62,8.08,0.41,12.33c4.97,2.18,9.85,0.79,14.81-0.1c5.97-1.07,3.04-6.75,2.18-38.02
		c-3.83-1.76-2.69-5.18-3.21-8.18c9.99-1.11,18.85,7.52,27.56-1.04c3.08-3.03,5.18-6.42,6.01-10.36c3.68-2.04,8.06-2.38,10.46-6.16
		C470.37,151.22,474.46,149.67,457.55,148.88z M291.27,97.8c3.52-0.73,3.52-0.73,6.42,0.21c-0.52,1.04-1.04,1.97-1.55,3
		C291.36,102.38,290.67,101.4,291.27,97.8z M228.28,58.85c-3.73-3.42-3.94-3.94-2.28-6.73C226.11,54.91,228.8,56.15,228.28,58.85z
		 M228.49,47.86c-1.35-0.21-1.55-1.04-1.86-2.69C228.18,46.1,228.7,46.72,228.49,47.86z M134.94,534.58
		c-0.32-3.5,2.53-2.19,11.6-0.52C142.29,534.38,138.56,533.86,134.94,534.58z M144.67,529.09c-2.28,0.62-4.35-0.31-7.46-0.41
		C140.53,527.02,142.5,528.88,144.67,529.09z M168.81,521.32c-3.42,3.11-5.18,3.21-9.84,0.52c-0.1-1.35,0.1-2.38,0.93-3.32
		C168.32,517.32,166.24,516.17,168.81,521.32z M245.69,357.32c0.4-8.09,15.24-6.93,23.31-3.83c1.97,0.62,3.73,1.66,6.01,1.14
		c0.41,3.52,0.83,6.42,1.14,9.12c-10.36-1.55-20.62-1.04-30.98-1.35C245.37,360.53,245.6,358.98,245.69,357.32z M244.24,365.51
		c6.53-1.24,28.18-0.41,30.98,1.14c0.83,1.45,0,3.21,0.52,4.97c0.41,1.04,2.07-0.52,2.59,0.83c-1.19,19.57,1.93,48.94,0.52,61.33
		c-0.97,8.5,2.9,16.36-6.84,18.65c-28.94,6.81-24.44-6.04-24.76-16.68c-1-33.14-2.55-24.24-2.38-36.88
		c0.1-7.98,0.93-15.95-0.73-24.45c9.84-1.04,18.86-0.1,27.87-0.31c0.52,2.69-1.35,2.18-2.49,2.28c-11.68,0.97-16.82-2.69-18.65-0.31
		c5.28,2.18,10.77,1.45,16.37,2.49c0.1,10.88-2.3,21.76-0.52,32.74c1.75,10.78,0.21,21.65,1.14,32.63c-4.56,1.55-8.7,0.21-12.74,0.1
		c-1.45-0.31-0.83-1.76-1.76-2.28c-1.04,0.93-0.31,2.28-0.83,3.21c0.41,0.41,0.62,0.72,0.83,0.73c12.93,0.17,16.92,1.59,16.37-4.04
		c-0.72-7.36-0.23-14.71-1.14-22.07c-1.06-8.6-1.56-17.3-0.83-26.11c1.94-23.42,0.47-11.92,6.42-16.47c0.62-1.14-1.35-2.9,0.83-4.45
		C245.69,369.13,240.39,375.4,244.24,365.51z M233.56,360.95c0.31,1.76-1.24,2.8-1.35,4.25c1.04,0.41,1.24-0.83,2.07-0.83
		c2.59,4.04,1.97,7.67-1.35,11.4c-35.55,2.73-41.09,0.72-46-4.97c4.97-4.66,11.6-3.21,16.99-5.59c27.85-12.32,13.61-4.62,8.08,3.21
		c6.63-3.11,10.26-9.22,14.4-15.02C229.63,355.56,231.91,358.05,233.56,360.95z M284.54,52.53c0.62,1.55,0.52,2.9,0.1,4.35
		C283.4,55.63,282.36,54.29,284.54,52.53z M283.19,48.49c0.73,1.14,0.1,1.55-0.73,2.18C282.05,49.63,281.74,49,283.19,48.49z
		 M283.5,59.67c-1.72,4.13-1.57,5.04-2.8,1.97C281.12,60.09,282.57,60.4,283.5,59.67z M265.99,13.78c0.13,0.26,0.9,0.73-0.1,0.73
		C265.7,14.5,265.51,14.26,265.99,13.78z M263.92,11.81c0.34-0.17,0.98,0.55,0.21,0.93C263.76,13.11,262.76,11.81,263.92,11.81z
		 M264.85,20.1c-0.1,0.52-0.31,0.93-1.04,0.62C263.82,19.89,264.13,19.68,264.85,20.1z M256.56,20.31c1,0.57,0.52,2.8-0.1,1.86
		C256.15,21.55,256.15,20.93,256.56,20.31z M235.74,24.04c-0.93,0.62-1.66,0.21-2.59-0.41C234.6,22.59,235.22,23.1,235.74,24.04z
		 M232.53,65.17c-3-3.94-0.82-8.5-0.93-12.74c-0.19-6.84,3.69-12.75,4.14-19.37c0.29-4.2,4.66-3.2,1.76-7.25
		c1.55-0.21,1.86,1.45,3.11,2.18c0.52-3.32,3.41-3.29,5.28-2.9c2.17,0.45,4.75-0.19,6.63,1.97c0.82,0.94,2.92,0.75,4.45-0.31
		c3.56-2.44,11.15-2.41,10.57,1.86c0.3-0.75,0.21-0.11,1.76-2.18c0.21,0.1,0.52,0.31,0.52,0.41c-0.52,2.59,1.96,3.53,2.8,5.39
		c11.03,24.54,4.23,28.91,2.69,36.57c-1.92,9.59-1.3,11.07-12.95,20.1c-3.42,2.65-7.89-1.41-13.36,0.41
		c-2.03,0.68-8.91-3.44-10.77-10.98C237.07,73.66,235.53,69.1,232.53,65.17z M230.87,101.01c0.73-1.24,1.76-1.35,2.8-1.24
		c1.04,0.41,0.31,1.66,1.97,2.38c0.62-6.63-0.93-13.16,0.83-19.58c3.52,1.55,3.73,7.15,8.5,7.25c0.83,0.93,0,2.28,1.04,3.11
		c1.04,0.21,0.62-0.83,0.83-1.24c4.04,0.21,8.08-1.04,12.22,0.31c0.21,2.18-1.14,3.94-1.35,6.01c-1.86,1.24-3.94,1.14-5.39,2.59
		c4.14,1.97,7.46-1.24,8.5-8.5c7.36-0.83,8.91-8.5,14.61-12.95c0,18.02-0.24,17.86,0.73,20c0.9,1.98-0.83,3.73-1.04,6.11
		c6.1-5.44-1.26-10.91,6.53-8.08c-0.93,12.02-6.71,21.37-14.61,29.73c-1.96,2.08-4.56,1.76-7.25,2.59c0.83,1.66,2.38,0,3.21,1.04
		c-1.66,1.76-3,3.83-5.28,4.97c-1.55-1.24-0.62-2.69-1.04-3.94c-1.76,0.83-0.41,2.59-1.04,4.35
		C238.61,127.61,228.06,120.32,230.87,101.01z M29.47,160.69c0.93-3.94-3.01-7.82-0.93-12.22c0.53-1.14-3.51-6.79,2.59-9.84
		c0.83-1.55-0.83-2.59,0-3.94c3.63-3.21,4.56-3.42,7.67-1.35c0.41,2.18-3.52,3.11-1.45,6.32c2.73-8.65,3.39-1.79,10.77-1.55
		c-1.3-3.02-8.72-2.79-7.46-8.81c1.36-6.45-3.33-14.2-0.41-36.47c3.83-1.97,7.36-0.31,10.88,0.31c3.21,12.43,1.66,24.86,1.55,37.4
		c-4.25,3.63-4.66,6.42-1.45,13.47c-8.2,2.38-14.47-3.55-18.34-4.35c2.49,5.28,14.09,7.77,20.72,4.87
		c7.95,12.58-10.88,5.89-20.51,5.08c2.59,2.07,6.63,1.97,7.98,5.7c1.35,0.1,0.52-1.35,1.97-1.86c4.04,0.41,8.7,1.35,12.85-0.83
		c1.74,1.43,0.15,2.66,0.61,3.9c1.37-0.54,1.78-1.75,2.19-3.27c-2.69-2.07-0.73-5.7-2.59-7.87c1.04-1.14,1.97-2.28,3.21-3.73
		c1.7,9.57,9.92,5.04,27.66,4.14c15.47-0.78,11.42-4.73,34.81-4.56c14.44,0.11,11.84-1.86,34.91-10.46
		c9.94-3.7,15.98-12.55,22.38-20.1c13.52-15.94,33.11-1.11,38.57-4.65c4.41,3.57,2.99-0.5,0.06-0.13c-0.02-0.89-1.25-0.87-1.54-2.15
		c2.9-0.83,5.91-1.55,9.84-2.69c-4.04,7.77-4.14,16.06-8.08,23c-2.18,0.93-4.35-0.31-6.73,0.62c6.7,4.73,8.52-9.93-2.69,33.67
		c-2.49-1.86-5.04-3.23-6.22-6.22c-3.13-7.95-10.5-3.74-13.78-15.85c-1.9-7.03-10.88-8.77-12.12-5.28c2.18,2.38,6.11,0.93,9.01,3.73
		c1.04,3.11,2.38,6.94,4.35,10.57c-0.21,1.55-2.18,1.55-2.28,3.21c1.66,0.21,2.59-1.35,4.25-1.66c16.49,10.99,7.1,9.01,16.37,13.88
		c-1.86,5.91-4.35,11.29-7.04,16.89c-3.21-8.29-3.32-17.41-7.67-25.49c-0.3,0.02-10.12,13.63-29.84,14.4
		c-19.47,0.76-27.12,4.78-31.29,2.8c-2.56-1.22-21.9,6.75-41.34,1.86c-12.68-3.18-2.21-0.67-29.42-7.87
		c-1.86-0.49-5.55,1.53-5.45,1.51c0.31-1.05,2.45-1.94,1.21-3.38c2.89,0.21,3.87,0.38,7.03,0.73c-1.76-1.86-3.52-2.43-5.28-2.69
		c-1.64-0.25-1.55,0.92-1.76,1.96c-1.57-1.63-1.9-3.18-0.85-4.82c-13.14,4.56-17.22,1.14-22.88,0.68
		c4.69,3.52,14.42,3.33,18.03,2.18c1.87-0.6,2.8,0.1,3.52,1.97C50.33,166,41.03,167.84,29.47,160.69z M83.65,173.01
		c3.73-0.41,6.22,1.04,9.32,1.45c-0.83,3-0.1,6.01,0.62,9.95c-2.28-2.69-4.56-2.38-6.73-2.59c-1.55,0-0.93,2.28-2.8,2.28
		C83.76,180.47,84.38,176.95,83.65,173.01z M60.76,165.66c-1.24,0.62-1.97,0.73-2.59,0.1C58.89,164.93,59.51,165.45,60.76,165.66z
		 M45.74,170.63c-1.51-6.71,0.62-1.95,9.84-6.11c1.35,4.25,4.35,5.79,8.18,3.73c2.9-1.56,5.49-1.54,8.39-0.31
		c3.21,1.36,6.73,1.66,10.46,3.52C70.74,176.63,48.63,183.5,45.74,170.63z M141.05,326.45c-7.66-7.28-8.91-8.51-11.81-31.91
		c-0.01-0.1-6.59-38.04-6.01-71.17c0.09-5.18-1.35-10.26-1.45-15.85c-7.56-0.52-14.81-1.14-22.27-0.83
		c-3.14-10.67,0.02-1.27-3.21,1.45c0.62,1.97,1.14,3.73,1.04,5.7c-4.77,3.83-9.12,3.94-14.71,0.21c-0.1-9.01-0.1-18.13-1.24-27.56
		c4.97,0.31,9.32,0.1,13.68-0.31c1.76,2.07-0.1,4.87,2.38,7.56c0-4.25,1.45-7.67-1.97-10.67c0.73-2.49-0.21-5.18-0.21-8.08
		c7.15,0.31,14.09,0.73,21.24-0.52c0.41,5.08,0.83,9.84-0.52,15.02c-5.08,2.38-12.22-1.66-17.51,3.21c7.04-1.55,14.4,0.1,21.96-1.76
		c0-5.39-1.55-10.88-1.35-16.68c5.49-0.41,10.46-5.8,16.78-1.66c1.38,16.78-1.16-19.05,4.87,106.19c0.43,9.01,3.87,17.19,5.7,25.8
		c0.53,2.48,2.38,4.14,3.94,6.32C148.3,316.5,143.12,320.34,141.05,326.45z M216.99,254.34c2.07-0.52,3.83-1.14,6.22-0.93
		C221.13,255.17,219.58,256.31,216.99,254.34z M237.09,252.48c2.49-1.14,4.25-0.73,6.01-0.1
		C241.33,252.99,239.57,253.72,237.09,252.48z M246.62,254.13c-0.93,0-1.24-0.41-1.24-1.45
		C246.83,252.58,246.93,253.2,246.62,254.13z M251.49,253.1c2.28-0.73,4.35-0.93,6.42,0C255.63,254.03,253.46,255.48,251.49,253.1z
		 M259.88,252.89c1.45-0.1,1.14,1.76,2.38,1.76c1.14-0.31-0.41-1.86,0.93-2.18c1.04,0.41,0.73,1.45,1.04,2.59
		C259.67,255.83,260.62,256.24,259.88,252.89z M266.61,254.76c-0.73-1.24-1.04-2.07,0.41-3
		C268.58,252.89,268.48,253.82,266.61,254.76z M270.14,252.89c2.28-1.35,2.28-1.35,3.42,0.62
		C272.21,254.13,271.07,254.24,270.14,252.89z M275.73,252.17c1.04-0.62,1.76-0.41,2.28-0.31
		C279.63,254.4,275.21,256.36,275.73,252.17z M280.6,254.86c-0.83-1.04-0.21-1.97,0.21-2.9c0.93-0.31,1.86-0.1,3.32,0.31
		C283.09,253.62,283.4,256.21,280.6,254.86z M289.61,255.58c-3.06,0.44-2.05-3.09,0.31-2.8
		C290.65,253.93,290.03,254.76,289.61,255.58z M292.1,255.27c0.52-2.49,0.62-2.49,4.35-1.24C295,254.44,293.96,256.21,292.1,255.27z
		 M296.35,254.13c1.35-0.1,2.59-0.21,3.94,0.21C298.21,255.48,298.21,255.48,296.35,254.13z M381.2,232.58
		c-0.37,51.81,5.09,58.29-9.43,72c-8.56-15.28-12.28-13.72-19.99-22.79c-4.73-5.56-10.44-5.68-10.67-5.91
		c-5.36-6.33-16.59-2.62-18.54-12.02c-2.09-10.08-6.73-10.05-10.77-9.53c-3.24,0.42-26.62-4.43-26.73-4.45
		c46.84-3.9-28.41,0.33-56.77-0.73c-3.34,3.87-13.01-0.41-14.4,4.87c-0.22,0.83-2.38,1.53-3.52,1.45c-6.21-0.44-7.21,4.43-8.7,8.7
		c-1.69,4.83,0.32,4.55-7.98,4.14c-10.39-0.5-5.31,2.67-15.33,12.12c-13.17,12.41-16.27,12.07-26.52,27.45
		c-10.72-6.06-11.35-84.09-11.6-91.27c-0.85-24.05-3.08-40.99-2.07-44.34c21.65-6.33,32.9,3.51,51.28-14.09
		c0.85-0.81,1.66-1.76,3.32-1.97c8.2,44.5,11.24,38.11,12.85,44.55c1.97,12.95,7.86,25.17,7.15,38.64c-0.21,4.04,2.38,7.36,3,11.29
		c4.07-6.7-1.2-7.44-0.83-18.44c0.29-8.8-3.45-15.41-7.04-32.84c-1.24-6.01-4.14-11.6-6.32-17.51c4.04-5.91,5.91-12.85,8.7-18.96
		c1.27-1.07,6.22,2.42,1.04-3.63c5.91-19.17,10.36-38.85,17.3-57.91c0,19.92,1.84,26.58,24.45,35.95
		c9.05,3.75,30.12-17.33,30.67-38.23c0.06-2.35,2.16-1.98,4.35-1.14c2.07,4.95-0.63,25.03,7.36,44.45c1.45,3.52,4.87,5.7,5.91,9.63
		c-0.31,0.52-0.83,1.04-1.24,1.66c1.17,1.17,2.13-0.47,3.73,2.28c9.14,15.72,2.64,7.28,13.68,16.89c1.83,1.59,3.68-1.81-3.73,32.84
		c-0.74,3.48-8.62,24.78-9.53,41.75c-0.36,6.77,1.96,5.58,1.97,5.18c0.05-4.66,1.9-9,3-13.47c2.46-9.93,1.9-20.4,6.11-30.04
		c6.16-14.09,12.55-32.16,10.36-58.43c7.35,6.46,10.75,10.52,18.44,10.88c3.96,0.18,34.45,4.23,35.74,4.87
		C377.46,210.38,381.43,199.97,381.2,232.58z M424.61,173.53c0.41-8.26-0.87-5.89,7.98-9.63c0.62,2.28,0.73,4.45,0.73,6.84
		C428.8,172.34,430.71,173.53,424.61,173.53z M452.37,167.11c-5.7-0.35-10.88-2.38-16.89-4.45c4.56-1.86,8.29-3.52,12.12-5.08
		c6.32,2.59,8.39-2.28,8.29-7.15c3.42,0.31,6.84,0.52,10.26,0.83C467.5,159.65,460.76,167.62,452.37,167.11z M468.53,151.88
		c1.14-1.45,2.07-0.93,3.32-0.41C470.6,152.71,469.78,152.71,468.53,151.88z"/>
	<path d="M479.1,148.98c-0.03,0.05-0.07,0.1-0.1,0.16C479.25,149.06,479.24,149.12,479.1,148.98z"/>
	<path d="M338.1,363.74c-0.3-0.17-0.21-0.15-0.1,0.1L338.1,363.74z"/>
	<path d="M379.95,323.65l-0.1-0.1C379.85,323.6,379.83,323.57,379.95,323.65z"/>
	<path d="M405.54,557.17c-12.17-18.62-7.38-19.64-14.09-31.29c-4.7-8.16-8.82-12.64-9.53-25.07c-2.25-39.35,13.63-64.69,11.19-94.9
		c-2.8-34.62-11.23-41.43-8.81-52.73c0.1-0.73-0.41-1.35-1.45-1.45c-3.27,11.44,4.05,20.28,6.63,43.93
		c3.84,35.12-15.32,78.08-9.43,109.51c-10.14,1.93-3.76-2.42-7.56-6.22c-0.93,2.28,0.21,4.66-0.83,7.46
		c-3.83-1.04-6.84,4.14-11.29,1.66c-0.1-2.28,0.1-4.45-1.35-6.22c-0.73,1.86,0.31,3.94-0.62,5.8c-3.88,0-0.22-3.55-1.04-10.67
		c-0.73-6.42-1.3-12.85-1.24-19.27c0.06-7.56-3.68-14.5-3.73-21.96c0-0.21-5.27-15.78-9.95-24.86c-9.54-18.52-0.1-38.26,0.41-49.11
		c0.19-4.03-1.41-18.13-4.45-18.13c-0.21,1.14-0.1,2.28,0.62,3.42c7.01,13.48-9.41,41.16-2.07,57.6
		c8.74,19.58,11.68,23.87,13.68,35.02c1.93,10.79,4.32,38.85,4.04,42.79c-0.18,2.49-2.69,4.45-1.76,6.53
		c3.73,0.73,7.15,2.07,11.6,0.83c-1.55,3.11-0.1,5.59-0.52,8.18c-11.48,6.26-6.12-0.56-11.29-5.28c1.55,3.32-0.52,7.98,3.83,10.57
		c2.8-1.24,5.49-2.38,8.08-3.42c1.45,0.52-0.31,2.69,1.86,2.69c4.14-4.04-1.35-9.63,1.86-13.99c4.35,0.1,8.7-1.45,13.16-0.73
		c1.04,3.32,0.31,6.84,1.55,10.15c1.76,0.83,3.94,1.55,3.32,4.56c-6.87-2.69-20.43-1.29-19.79,6.42c5.34-5.21,19.93-8.45,23.72,1.04
		c5.78,14.44,4.34,22.28,10.77,25.28c1.42,0.66,1.14,1.61,2.59,6.94c2.94,10.79-1.26,24.56-4.04,26.42
		c-3.42,0.62-6.84-1.05-10.05,0.1c-13.96,5.04-32.43-4.22-30.25-19.17c2.09-14.37,1.99-11.62-3.11-22.07
		c-2.27,4.09,5.81,9.55-6.22,2.07c-5.04-3.14-10.6-10.79-7.04-15.54c2.88-3.85,4.35-8.5,6.73-12.64c0.52-1.04,0.63-2.38,0.21-3.52
		c-1.92-5.24,2.97-8.73,1.76-12.02c-9.42,12.56,2.11,9.53-11.29,26.83c-1.63,2.1-2.38,3.94-1.24,6.53
		c3.73,8.49,9.43,14.61,18.75,16.58c2.91,6.4-2.81,7.56-1.35,19.27c1.19,9.54,8.97,12.3,15.95,16.06
		c6.43,3.46,13.46-0.35,24.86,0.31c7.52,0.44,4.43-2.24,6.73-5.7c3-5.91,3.89-12.32,2.8-18.75
		C406.35,563.8,407.71,560.49,405.54,557.17z"/>
	<path d="M635.43,508.79c7.78,7.78,0.78,16.87,9.43,26c1.56,1.65,2.58,4.25,2.38,7.04c-0.53,7.35-2.28,9.53-11.6,13.68
		c0-1.66,2.18-2.8,0.73-5.08c-3.32,4.25-5.55,8.18-4.66,13.68c0.51,3.15,7.52,20.13-10.36,31.08c-7.74,4.74-10.49-2.38-26.31-0.1
		c-4.77,0.69-9.33-4.35-8.6-9.22c0.31-2.07,0.45-4.35,0.31-6.42c-0.87-13.31,10.46-34.59,10.77-34.59
		c0.07-4.53,1.65-2.66,19.79-0.22c1.55,0.21,3.42,1.14,4.87-1.86c-6.73-4.77-14.4-4.66-22.17-4.14c-0.21-0.83-0.1-1.55,0.73-2.18
		c7.87,0.93,15.85,1.86,23.83,3.94c0-3.63-2.9-3.42-4.25-4.87c1.97-1.14,3.21,1.76,5.59,0.73c0-1.45-0.41-3.32,0.83-4.66
		c-2.81-4.22-21.44-7.04-21.55-7.04c-1.97,0.21-2.99,1.66-3.83,3.21c-4.19,7.7-9.03,15.13-9.95,24.24
		c-0.2,1.98-8.38,10.17-7.87,26.52c0.33,10.68-0.68,20.91,12.02,19.48c23.17-2.61,15.84,9.74,33.57-7.04
		c6.18-5.85,8.35-12.73,6.42-21.03c-2.79-12.01-4.79-8.05,6.32-15.02c15.98-10.02,2.56-24.04,0.62-27.66
		C643.48,506.54,632.14,505.5,635.43,508.79z M617.72,534.79c-0.52,0.31-0.93,0.31-1.35-0.1
		C616.89,534.48,617.3,534.48,617.72,534.79z M611.29,529.09c-2.28,0.73-4.45-0.52-6.63-0.62
		C607.05,527.12,609.12,528.88,611.29,529.09z M602.7,532.2c20.61,3.55,4.05,0.86-1.14,2.59
		C601.45,533.65,601.76,533.03,602.7,532.2z"/>
	<path d="M597.52,544.94l0.1-0.1C597.49,544.84,597.52,544.84,597.52,544.94z"/>
	<path d="M456.1,126.5c-2.49,3.83-4.25-0.1-6.42-0.73c0.1,4.14,5.28,3.21,5.8,6.53c-3,2.9-3,2.9-0.52,5.28
		c-0.95-4.88,1.54-2.98,19.27-9.01c0.52-0.1,1.76,0,1.24-1.45c-6.32,1.35-12.12,4.04-18.23,5.08c-2.38-2.9,0.73-4.77,0.62-7.04
		c7.84,0,15.1-9.67,20-0.1c2.69-7.33-7.7-5.31-10.36-6.42c0.21-13.26,0.73-26.42,0.31-39.47c-5.91-2.38-10.57-2.59-13.57-0.83
		c-1.97,13.05-0.1,26,0,38.85c-2.59,1.76-6.32,1.55-7.98,5.7C454.85,119.19,452.47,117.43,456.1,126.5z M455.17,79.88
		c3.94-0.83,7.36-0.31,10.57,1.35c0,13.05,0,26.21,0,39.06c-3.19,4.12-8.32,2.13-8.11,4.56c0.08,0.98-2.72-2.68-1.83-8.29
		c0.92-5.8,0.01-11.81-0.83-17.61C454.04,92.51,455.89,86.2,455.17,79.88z"/>
	<path d="M311.47,148.98c2.57-4.64,14.23-2.89,17.09-15.44c0.87-3.82,3-7.36,4.66-11.09c1.55-1.04,4.25-0.73,4.77-3.32
		c-1.73-1.73-9.45,1.92-11.71,10.36c-1.8,6.72-5.49,11.29-12.22,13.47c-4.15,1.34-5.08,5.39-7.77,8.91
		C308.88,151.15,310.66,150.44,311.47,148.98z"/>
	<path d="M131.21,546.19c6.94,3.21,19.68,4.87,23.21,2.9C150.58,544.32,134.11,542.46,131.21,546.19z"/>
	<path d="M620.93,547.84c-19.99-7.5-39.83-1.71-2.69,2.49C619.48,550.54,620.72,550.23,620.93,547.84z"/>
	<path d="M340.48,141.21c3.5,2.21,6.94,5.27,10.77,5.91c3.63,0.61,7.36,3.32,11.81,1.45c-4.77-4.45-11.38-2.93-15.95-6.63
		c-4.64-3.76-10.57-5.08-16.27-8.39C332.5,139.14,337.25,139.17,340.48,141.21z"/>
	<path d="M130.17,552.51c9.22,4.25,17.61,5.18,20.82,2.38C146.44,551.37,133.69,550.12,130.17,552.51z"/>
	<path d="M617.72,553.96c-25.99-6.21-26.64-0.13-3.94,2.8C615.34,556.95,616.99,556.75,617.72,553.96z"/>
	<path d="M367.31,535.41c6.53-4.66,13.05-7.98,21.34-4.77C389.01,522.15,362.25,528.9,367.31,535.41z"/>
	<path d="M199.38,291.12c2.28,1.52,34.59,2.44,56.05,6.22c0.64,0.11,2.84-1.26-6.32-2.28C240.27,294.08,206.4,290.64,199.38,291.12z
		"/>
	<path d="M666,291.43c0.1,0,49.25,4.85,55.53,5.91c0.73,0.21,1.24,0.1,1.66-0.62C715.87,294.39,672.07,290.59,666,291.43z"/>
	<path d="M601.04,559.76c1.66,3.83,5.28,3.21,7.77,4.45c1.86-1.14,2.07-2.9,4.04-3.63c-4.25-3.94-12.22-5.08-15.23-2.49
		C598.86,558.62,600.62,558.93,601.04,559.76z"/>
	<path d="M835.07,530.96c-1.89,1.31-1.86,2.07-0.83,4.25c6.22-4.35,12.74-7.77,21.34-4.35C854.45,523.78,841.52,526.5,835.07,530.96
		z"/>
	<path d="M368.25,541.01c5.8-7.77,14.09-6.53,22.69-5.49C386.17,528.28,364.95,532.58,368.25,541.01z"/>
	<path d="M370.11,543.7c7.36-2.49,14.71-3.11,22.48-3.73C388.34,535,372.7,537.79,370.11,543.7z"/>
	<path d="M130.79,558.1c1.24,0.52,3.21,0.73,3.52,1.55c1.44,3.84,5.18,3.11,8.91,5.39c-0.1-2.9,2.18-3.11,2.59-4.87
		C141.57,556.55,133.8,555.51,130.79,558.1z"/>
	<path d="M850.61,537.48c-5.28,0.15-10.36,1.14-13.99,5.7c7.25-1.97,14.61-2.59,22.07-3.63
		C856.62,536.45,853.31,537.41,850.61,537.48z"/>
	<path d="M834.66,541.52c5.91-8.39,14.3-6.94,22.69-6.11C853.68,529.48,834.42,530.37,834.66,541.52z"/>
	<path d="M720.39,306.14c-13.05,4.97-26.73,6.42-39.26,11.71c0.11-0.02,28.41-5.94,35.33-8.6
		C718.84,308.33,718.83,308.32,720.39,306.14z"/>
	<path d="M256.67,310.18c-1.07-4.82,0.47-0.56-3.42,1.14c2.68,1.88,2.93,2.69,2.38,1.04c10.98-1.14,22.07-2.18,32.43-6.42
		C277.7,308.01,267.34,309.77,256.67,310.18z"/>
	<path d="M214.5,317.95c12.95-4.14,27.04-4.25,39.16-11.09C240.71,311.11,226.93,312.46,214.5,317.95z"/>
	<path d="M723.39,310.18c-0.21-0.93-0.31-1.76-0.52-2.49c-0.1,1.97-1.55,2.8-2.8,3.83c3.05,2.67,2.18,1.88,2.18,0.93
		c11.19-1.45,22.38-2.28,32.84-6.63C744.63,308.01,734.17,309.66,723.39,310.18z"/>
	<path d="M722.67,285.63c-13.68-5.08-28.08-4.87-42.27-6.22C694.49,282.31,708.89,282.21,722.67,285.63z"/>
	<path d="M255.94,285.63c-13.68-5.28-28.28-4.87-42.58-6.32C227.45,282.31,242.06,282.11,255.94,285.63z"/>
	<path d="M840.46,546.6c6.73-0.31,12.95,0,19.48-1.76C855.9,541.94,844.6,542.97,840.46,546.6z"/>
	<path d="M788.56,336.6c1.97,8.39,13.05,12.33,20.2,7.04C800.37,344.99,794.05,342.71,788.56,336.6z"/>
	<path d="M342.03,343.65c-8.18,1.24-14.61-0.83-19.79-6.42c0.73,6.94,6.66,6.97,11.29,8.7
		C336.46,347.02,339.13,346.24,342.03,343.65z"/>
	<path d="M374.46,545.77c6.42,1.24,16.58,0.1,18.54-2.07C386.38,542.66,380.26,542.97,374.46,545.77z"/>
	<path d="M297.8,292.05c12.43-1.04,24.35-4.25,35.95-8.18C321.73,286.56,309.81,289.36,297.8,292.05z"/>
	<path d="M798.92,284.49c-2.72,0.1-28.86,5.82-34.08,7.87C773.38,291.78,794.55,286.72,798.92,284.49z"/>
	<path d="M727.95,285.63c0.41,1.64-2.69,2.1,26.21-5.91C745.15,280.76,736.24,282.21,727.95,285.63z"/>
	<path d="M783.79,267.4c-8.18,1.55-16.58,2.49-24.45,5.59C767.63,271.75,776.02,271.12,783.79,267.4z"/>
	<path d="M377.57,385.19c1.04-5.59,1.04-10.98,3.52-15.85c0.21-0.62,0.41-1.45,0.21-1.97c-1.58-4.03-1.04-8.29-1.24-12.54
		c-1.55,1.86-1.88,4.46-1.14,6.32C382.52,370.24,373.92,381.54,377.57,385.19z"/>
	<path d="M261.23,285.73c0.1,0.41,0.21,0.73,0.31,1.14C316,271.78,268.88,282.48,261.23,285.73z"/>
	<path d="M317.27,267.5c-8.29,1.24-16.47,2.49-24.24,5.49C301.32,271.64,309.71,271.23,317.27,267.5z"/>
	<path d="M843.15,550.12c5.7,0.52,11.29,0.31,16.47-2.28C853.93,547.12,848.44,547.53,843.15,550.12z"/>
	<path d="M253.87,300.03c-9.74-1.35-19.37-0.93-29.11,0.21C234.5,301.38,244.13,299.61,253.87,300.03z"/>
	<path d="M720.39,299.93c-9.74-1.14-19.58-0.83-29.32,0.31C700.81,301.27,710.54,299.72,720.39,299.93z"/>
	<path d="M391.35,555.41c0-1.97-1.55-1.45-2.18-2.07c0.52-0.83,2.18-1.04,1.24-2.69c-2.8,0.73-5.7,1.55-9.32,2.59
		c2.28,0.31,2.38,1.55,2.28,3C386.17,556.13,388.97,558,391.35,555.41z"/>
	<path d="M846.57,354.63c-2.96,8.63,1.6,11.93-0.1,15.23c-1.82,3.54-1.92,7.47-3.11,11.19c-0.4,1.25-0.52,2.8,0.62,4.25
		c1.35-5.8,1.26-11.49,3.83-16.58C848.85,366.68,845.75,365.88,846.57,354.63z"/>
	<path d="M393.21,547.22c-5.8-0.1-11.29,0.41-16.47,2.8C385.03,550.95,391.45,549.81,393.21,547.22z"/>
	<path d="M857.87,554.79c-0.21-1.35-1.45-0.93-2.28-1.35c0.41-1.04,2.49-0.93,1.66-2.9c-15.86,4.53-6.83,0.43-7.25,5.49
		C856,556.96,857.87,556.65,857.87,554.79z"/>
	<path d="M479.62,148.67c0-0.26,0.06-0.22-0.1-0.1L479.62,148.67z"/>
	<path d="M477.75,125.15c0.21,1.86,2.71,1.65,3.11,3.21c0.53,2.07-2.27,3.62-1.24,5.59c1.46,2.79,0.83,5.28-0.73,7.98
		c2.01,2.01,0.81,4.32,0.74,6.54c2.49-1.95,2.97-4.2,1.13-6.64c0.52-1.86,1.97-3.42,1.24-5.18c-1.24-3.01-1.04-5.8,1.04-8.6
		C481.28,126.6,480.03,125.15,477.75,125.15z"/>
	<path d="M734.27,315.57c7.36,2.69,15.13,1.14,22.69,2.38C753.33,316.19,741.83,314.84,734.27,315.57z"/>
	<path d="M719.45,414.82c-2.38,5.8-1.66,21.86,1.24,25.18C719.97,431.4,718.94,423.11,719.45,414.82z"/>
	<path d="M825.96,403.94c-2.07,3.94-1.86,9.84,0.62,16.06C827.3,414.61,826.79,409.23,825.96,403.94z"/>
	<path d="M719.87,402.08c-0.73-7.87-1.14-15.44-0.73-23.83C716.97,387.68,717.28,397.1,719.87,402.08z"/>
	<path d="M360.17,405.39c0.04-3.56-5.12-0.62-0.31,14.4C360.79,415.03,360.11,410.16,360.17,405.39z"/>
	<path d="M267.75,315.47c7.36,2.69,15.02,1.24,22.48,2.38C282.98,315.36,275.32,316.09,267.75,315.47z"/>
	<path d="M257.7,295.89c1.16-5.48,3.23-12.78-2.18-19.79c4.13,8.38,0.73,17.62,0.73,20.62C256.77,296.61,257.51,296.82,257.7,295.89
		z"/>
	<path d="M723.29,296.71c6.93-12.48-2.83-24.45-1.04-19.27C726.46,289.58,721.87,291.53,723.29,296.71z"/>
	<path d="M749.08,294.54c-8.39,0.52-16.16,2.59-23,7.67C733.34,298.48,741.21,296.51,749.08,294.54z"/>
	<path d="M259.26,302.83c7.67-4.25,15.23-6.32,23.62-8.18C274.8,294.23,262.57,298.37,259.26,302.83z"/>
	<path d="M348.87,386.43c6.69,9.36,4.95,7.29,9.22,14.4C357.16,393.27,352.6,386.54,348.87,386.43z"/>
	<path d="M815.08,386.54c4.14,4.14,6.42,9.12,9.74,14.61C823.88,393.48,819.33,386.54,815.08,386.54z"/>
	<path d="M670.66,164.42c-2.28-0.62-4.66-0.1-6.94-0.83s-4.56-2.59-7.36,0.31C661.54,163.59,665.89,168.46,670.66,164.42z"/>
	<path d="M824.09,347.38c0.41,3.73,2.49,5.39,9.12,6.84C830.31,350.9,827.3,349.14,824.09,347.38z"/>
	<path d="M366.48,354.11c-2.8-3.21-5.8-4.97-9.12-6.84C357.78,351.1,360.06,352.97,366.48,354.11z"/>
	<path d="M409.58,182.65c3.42,0.62,6.94,1.14,10.26-0.73C416.32,180.27,412.9,180.78,409.58,182.65z"/>
	<path d="M424.29,185.65c-1.04,3.11-0.52,6.22,0,9.43C425.85,191.87,425.23,188.76,424.29,185.65z"/>
	<path d="M438.9,154.57c-3.42,1.14-7.15,1.14-9.74,3.94C432.48,157.47,436.42,157.78,438.9,154.57z"/>
	<path d="M442.42,143.28c2.8,0.21,5.7,0.93,8.39-1.76C447.29,140.59,444.81,141.83,442.42,143.28z"/>
	<path d="M59.82,138.2c3.48-2.41,0.08-7.52-3.83-7.67C58.58,132.51,60.45,134.79,59.82,138.2z"/>
	<path d="M827.61,311.22c0.83,2.8,1.86,5.59,3.94,7.87C831.76,315.78,830.2,313.19,827.61,311.22z"/>
	<path d="M372.8,150.01c-3.42,0-6.22,0-9.12,0C365.14,152.09,368.87,152.19,372.8,150.01z"/>
	<path d="M356.85,344.06c0.52-2.59,2.28-4.87,1.45-7.98C356.33,338.88,355.92,340.74,356.85,344.06z"/>
	<path d="M360.79,311.53c1.24,2.9,2.07,5.49,4.04,7.67C364.93,315.26,363.89,313.29,360.79,311.53z"/>
	<path d="M378.61,156.65c2.69,2.28,5.91,2.8,9.22,2.8C384.82,158.3,381.92,156.85,378.61,156.65z"/>
	<path d="M823.26,344.16c0.73-2.59,2.38-4.97,1.45-7.87C823.16,338.67,822.54,341.26,823.26,344.16z"/>
	<path d="M695.21,161.72c-1.97,1.04-3.94,2.07-5.8,3.11C693.14,165.66,694.49,164.83,695.21,161.72z"/>
	<path d="M379.85,391.3c-2.49,2.8-3,5.49-3.73,8.18C378.81,396.28,379.43,394.72,379.85,391.3z"/>
	<path d="M299.25,122.97c2.8,2.18,5.39,1.66,7.87,1.35C304.84,122.97,302.46,122.87,299.25,122.97z"/>
	<path d="M841.08,402.28c-2.38,2.38-1.97,4.66-2.18,6.94C840.67,407.67,841.19,405.5,841.08,402.28z"/>
	<path d="M846.57,391.3c-2.69,2.8-3.32,5.49-3.73,8.29C844.29,397.31,846.37,395.24,846.57,391.3z"/>
	<path d="M359.54,421.86c-1.35,2.9-1.14,5.28-1.24,7.67C359.54,427.46,360.89,425.39,359.54,421.86z"/>
	<path d="M835.28,364.68c0.31-2.28,0.52-4.56-1.55-7.15C833.42,360.64,833.93,362.71,835.28,364.68z"/>
	<path d="M368.97,365.61c0-3.11,0.21-5.49-2.07-7.36C367.62,360.53,366.8,363.02,368.97,365.61z"/>
	<path d="M374.36,403.22c-2.28,2.49-2.38,2.8-1.55,6.11C373.94,407.36,374.46,405.39,374.36,403.22z"/>
	<path d="M825.85,421.86c-0.62,3-1.45,5.08-0.73,7.98C826.16,427.15,827.82,425.28,825.85,421.86z"/>
	<path d="M255.42,458.75c-2.28-1.04-4.56-1.04-6.84-0.52C250.87,458.64,253.04,459.68,255.42,458.75z"/>
	<path d="M386.17,147.32c-2.07,0.83-3.94,2.07-4.66,4.45C384.2,151.36,385.03,149.19,386.17,147.32z"/>
	<path d="M715.31,458.02c2.18,1.04,4.45,1.55,6.94,0.62C720.08,457.71,717.8,457.71,715.31,458.02z"/>
	<path d="M328.46,349.45c1.76,1.55,3.73,2.18,6.73,2.49C332.81,349.97,330.85,349.14,328.46,349.45z"/>
	<path d="M265.99,458.13c2.07,1.86,3.94,0.41,6.01-0.31C270.03,457.92,268.06,458.02,265.99,458.13z"/>
	<path d="M638.23,151.05c0.62-0.41,1.45-0.93,2.18-1.35c-1.86,0.1-2.8-1.45-4.45-2.69C636.06,149.19,636.57,150.33,638.23,151.05z"
		/>
	<path d="M794.88,349.24c2.49,2.07,3.32,2.28,6.73,2.07C799.23,350.07,797.47,348.83,794.88,349.24z"/>
	<path d="M739.24,370.37c0.31-3.32,0.31-3.32-1.97-4.25C737.38,368.92,737.38,368.92,739.24,370.37z"/>
	<path d="M732.82,458.23c2.18,1.55,4.14,0.41,5.91-0.41C736.76,457.92,734.79,458.02,732.82,458.23z"/>
	<path d="M381.51,139.24c-0.31,1.35-0.83,2.9,1.14,4.25C383.16,141.62,382.96,140.38,381.51,139.24z"/>
	<path d="M705.26,456.99c-1.04-1.04-1.97-2.49-4.45-3C701.95,456.05,703.4,456.78,705.26,456.99z"/>
	<path d="M270.03,290.5c-2.28-0.31-3.63,0.41-5.08,1.45C266.61,292.05,268.17,291.53,270.03,290.5z"/>
	<path d="M333.02,118.93c-0.62-1.97-1.86-2.8-3.63-3.11C330.33,116.86,330.74,118.62,333.02,118.93z"/>
	<path d="M285.99,455.74c1.97-0.31,4.04-0.31,4.87-2.69C289.2,453.88,287.64,454.81,285.99,455.74z"/>
	<path d="M824.71,435.33c-1.45,1.14-1.66,2.28-0.31,3.94C824.51,437.61,824.61,436.47,824.71,435.33z"/>
	<path d="M384.24,318.58c2.66-1.59-0.33-2.28,0.15-0.13C384.28,318.34,384.32,318.31,384.24,318.58z"/>
	<path d="M380.47,323.44c1.5-1.4,3.19-2.62,3.77-4.86C382.44,319.81,380.88,321.24,380.47,323.44z"/>
	<path d="M743.49,457.61c1.35,0.83,2.59,0.93,4.35-0.31C745.98,456.88,744.73,456.88,743.49,457.61z"/>
	<path d="M832.9,321.99c1.14,1.66,2.28,2.18,4.35,2.49C836.01,322.82,835.18,321.79,832.9,321.99z"/>
	<path d="M731.58,292.05c1.76-0.52,3.83-0.41,5.18-1.97C734.89,290.29,733.03,290.6,731.58,292.05z"/>
	<path d="M276.04,457.5c1.76,0.93,3.11,0.83,4.45,0C279.25,456.88,277.91,456.88,276.04,457.5z"/>
	<path d="M238.85,457.3c-1.45-1.86-2.49-2.9-4.56-3.11C235.33,456.05,236.57,456.57,238.85,457.3z"/>
	<path d="M324.01,110.65c1.14,0.83,1.97,2.38,4.04,2.38C327.22,111.06,325.67,110.65,324.01,110.65z"/>
	<path d="M695.21,146.29c-0.21,1.35-0.62,2.38,0,4.35C696.45,148.88,697.39,147.74,695.21,146.29z"/>
	<path d="M466.36,122.87c1.04,0.83,1.66,2.28,3.63,2.69C469.67,123.08,468.43,122.46,466.36,122.87z"/>
	<path d="M693.66,136.34c-1.14,1.24-1.04,2.18,0.31,3.63C694.59,138.31,694.9,137.38,693.66,136.34z"/>
	<path d="M758.3,452.94c-2.28,0.73-3.52,1.24-4.35,2.59C755.61,455.53,756.85,455.02,758.3,452.94z"/>
	<path d="M638.13,152.5c-1.55,0.52-1.97,1.55-1.97,2.9C637.3,154.88,638.13,154.16,638.13,152.5z"/>
	<path d="M826.06,477.91c-0.62,1.14,0.1,2.07,0.73,3.52C827.2,479.88,827.51,478.74,826.06,477.91z"/>
	<path d="M357.47,439.58c0.21-1.97,0.62-3.11,0.1-4.77C356.64,436.47,356.85,437.72,357.47,439.58z"/>
	<path d="M826.68,488.48c-0.83,0.83-0.93,1.55,0,2.69C827.3,490.03,827.41,489.21,826.68,488.48z"/>
	<path d="M284.23,329.87c0.83,1.04,1.55,2.07,3.42,2.59C286.96,331.23,285.48,329.24,284.23,329.87z"/>
	<path d="M370.01,323.96c-0.83-1.45-1.76-2.07-3.52-1.97C367.42,323.55,368.35,324.06,370.01,323.96z"/>
	<path d="M355.4,455.12c0.93-0.83,1.04-1.76,1.14-2.9C355.3,452.94,355.09,453.77,355.4,455.12z"/>
	<path d="M466.77,141.93c1.14-1.55-0.1-2.38-1.04-3.21C465.94,139.76,464.91,141.21,466.77,141.93z"/>
	<path d="M691.17,133.33c-1.76,0-2.59,0.52-3,2.07C689.51,135.41,690.45,134.99,691.17,133.33z"/>
	<path d="M337.37,352.24c-0.31,1.35-0.1,2.38,1.24,3.63C339.34,353.8,338.72,352.97,337.37,352.24z"/>
	<path d="M640.72,164.73c-0.93-1.97-1.97-2.28-3.63-2.49C637.71,163.79,638.85,164.1,640.72,164.73z"/>
	<path d="M691.79,144.42c-1.86,0.21-2.59,1.04-3.63,2.49C690.03,146.7,691.17,146.29,691.79,144.42z"/>
	<path d="M381.09,148.88c-1.04-0.83-1.86-0.52-2.9,0.83C379.54,150.33,380.47,150.43,381.09,148.88z"/>
	<path d="M359.54,478.22c0,0.93-0.62,1.97,0.52,2.49C360.48,479.88,360.48,478.95,359.54,478.22z"/>
	<path d="M750.64,456.78c1.55-0.31,2.59-0.52,3.32-1.35C752.81,455.33,751.78,455.53,750.64,456.78z"/>
	<path d="M647.24,137.17c-1.35,0.21-2.18,0.52-2.59,1.76C645.9,139.03,646.73,138.62,647.24,137.17z"/>
	<path d="M194.2,290.6c0,0.28-0.25,0.21,1.76,0.21C195.64,290.81,196.59,290.6,194.2,290.6z"/>
	<path d="M822.02,455.12c0.73-0.93,1.14-1.55,0.73-2.49C822.02,453.36,821.5,453.88,822.02,455.12z"/>
	<path d="M680.91,143.18c1.24-0.52,1.76-1.14,1.97-2.59C681.64,141.21,680.91,141.83,680.91,143.18z"/>
	<path d="M815.7,336.81c-0.52,0.83-1.45,0.93-1.14,2.18C815.08,338.47,816.32,338.78,815.7,336.81z"/>
	<path d="M811.76,340.43c-1.24,0.41-1.86,1.04-2.07,2.59C811.04,342.4,811.56,341.68,811.76,340.43z"/>
	<path d="M374.25,150.33c1.14,0.73,1.55,0.21,1.86-0.62C375.19,148.98,374.57,149.19,374.25,150.33z"/>
	<path d="M805.34,355.25c0.52-1.35,0.1-2.28-1.24-2.8C803.68,353.69,803.58,354.83,805.34,355.25z"/>
	<path d="M305.15,104.53c-0.83-1.14-1.66-1.66-2.9-0.93C302.98,104.64,303.81,105.16,305.15,104.53z"/>
	<path d="M827.3,467.97c-0.41,0.31-0.62,0.73-0.31,1.55C827.92,469,828.34,468.59,827.3,467.97z"/>
	<path d="M360.06,490.97c0.31-0.93,0.52-1.66-0.52-2.9C359.54,489.41,359.13,490.14,360.06,490.97z"/>
	<path d="M685.06,136.96c-0.52,0.52-1.14,0.93-0.83,2.49C685.16,138.62,685.89,138.2,685.06,136.96z"/>
	<path d="M439.63,143.07c-0.73,0-1.24,0.21-1.45,1.14C439.11,144.32,440.25,144.94,439.63,143.07z"/>
	<path d="M450.09,147.01c-0.83,0.1-1.55,0.21-1.66,1.14C449.68,148.15,449.68,148.15,450.09,147.01z"/>
	<path d="M380.68,160.89c0,1.24,0.62,1.24,1.97,1.04C382.02,161,381.71,160.17,380.68,160.89z"/>
	<path d="M662.27,290.81c-0.41-0.41-0.93-0.21-1.35-0.1C661.33,291.02,661.75,290.91,662.27,290.81z"/>
	<path d="M357.06,305.11c0.73,0.73,0.31,1.76,2.07,1.76C358.51,306.14,358.92,305,357.06,305.11z"/>
	<path d="M347.42,339.09c1.24-0.31,1.76-0.73,2.07-1.86C348.25,337.22,347.73,337.74,347.42,339.09z"/>
	<path d="M344.94,340.43c-1.04,0.31-1.35,0.93-1.66,1.86C344.62,342.4,345.04,341.78,344.94,340.43z"/>
	<path d="M280.29,355.46c0.1-0.73-0.1-1.14-0.83-1.24C278.94,355.15,279.25,355.56,280.29,355.46z"/>
	<path d="M371.56,413.99c0.92,0.44,0.73-0.62,1.45-1.35C371.66,413.06,371.35,413.89,371.56,413.99z"/>
	<path d="M838.18,414.92c0.31-0.62,1.04-1.04,0.52-1.97C838.39,413.68,837.56,413.99,838.18,414.92z"/>
	<path d="M415.8,162.45c0.62,0.31,0.83-0.1,1.24-0.73C416.11,161.51,415.7,161.62,415.8,162.45z"/>
	<path d="M697.91,160.58c0.21-0.73-0.31-1.14-0.93-1.35C696.35,160.27,696.66,160.79,697.91,160.58z"/>
	<path d="M437.04,150.53c0.83-0.83,1.55,0,1.97-1.45C438.28,149.19,437.66,148.88,437.04,150.53z"/>
	<path d="M466.15,134.47c0.31-0.83,0.62-1.35-0.21-1.76C465.32,133.23,465.22,133.75,466.15,134.47z"/>
	<path d="M746.91,355.35c0-0.52-0.21-1.04-0.83-1.14C745.77,355.15,745.67,355.77,746.91,355.35z"/>
	<path d="M821.09,333.39c-0.93,0.1-1.35,0.31-1.24,1.04C820.67,334.63,820.88,334.22,821.09,333.39z"/>
	<path d="M354.26,333.39c-0.41,0.21-1.24,0.1-0.93,1.04C353.95,334.43,354.36,334.22,354.26,333.39z"/>
	<path d="M782.75,325.72c0.1,0.1,0.31-0.21,0.52-0.31C782.39,323.65,781.66,325.72,782.75,325.72z"/>
	<path d="M825.44,306.66c-0.1-1.04-0.52-1.66-1.45-1.97C823.78,305.73,823.99,306.56,825.44,306.66z"/>
	<path d="M738.83,289.77c-0.83-0.21-1.45,0.1-1.97,0.41C737.48,290.19,738.1,290.39,738.83,289.77z"/>
	<path d="M800.89,284.18c-0.73-0.41-1.35-0.1-1.97,0.41C799.54,284.59,800.26,284.8,800.89,284.18z"/>
	<path d="M422.64,198.71c-0.83-0.62-1.55-0.73-2.28,0.1C421.19,199.43,421.91,199.54,422.64,198.71z"/>
	<path d="M160.63,398.55c2.69,0.1,2.08,1.66,1.76,2.8c-1.43,5.18,0.1,10.98-3.42,15.75c-1.31,2.18,1.56,9.19,0.52,13.26
		c0.52-2.18,3.11-2.07,3.32-4.04c0.62-3.32,1.2-6.72,0.31-9.95c-1.44-5.19,3.34-10.69,1.76-19.79c1.45-2.9,4.35-4.66,5.28-8.39
		C166.33,391.41,164.26,395.24,160.63,398.55z"/>
	<path d="M155.03,366.13c1.68-4.45,2.07-9.01,0.1-13.26c2.59-4.04,6.63-6.22,9.43-9.84c-1.66-3-1.86-6.53-4.56-9.32
		c-1.66,3.11,1.04,5.49,0.93,8.5c-4.04,1.97-4.04,7.25-7.98,10.26c3.32,5.59,1.45,10.77-2.18,15.85
		C153.17,368.3,154.52,367.48,155.03,366.13z"/>
	<path d="M177.62,357.11c-2.18,6.73,0.1,13.68-2.49,20.1C178.45,374.73,180,360.64,177.62,357.11z"/>
	<path d="M197.51,344.47c-4.77,1.45-8.5,4.35-11.91,7.67C190.26,350.69,194.09,347.89,197.51,344.47z"/>
	<path d="M174.1,347.06c2.59,2.18,5.18,4.35,7.77,6.53C180.52,350.07,178.34,347.48,174.1,347.06z"/>
	<path d="M164.57,336.81c1.55,3.21,3.32,6.22,6.73,7.77C169.12,341.99,167.98,338.47,164.57,336.81z"/>
	<path d="M149.44,388.71c0.73-3.63-0.41-6.63-3.32-8.81C147.89,382.6,147.06,386.33,149.44,388.71z"/>
	<path d="M159.28,431.71c-0.52,3.42,1.04,6.73,1.14,10.05c0.41,0,0.73-0.1,1.04-0.1C160.35,429.86,161.33,431.71,159.28,431.71z"/>
	<path d="M142.19,353.07c2.38,2.59,4.56,1.66,6.73,0.93C146.95,352.87,145.09,351.31,142.19,353.07z"/>
	<path d="M154.83,507.85c2.46-2.26,0.82-4.82,0.41-7.15C154.18,503.04,154.33,505.38,154.83,507.85z"/>
	<path d="M171.71,381.77c-2.38,0.83-3.11,2.49-3.83,4.04C169.64,385.09,171.2,384.26,171.71,381.77z"/>
	<path d="M142.4,374.31c0.52-1.76-0.31-2.8-1.45-4.45C140.84,372.03,141.46,373.07,142.4,374.31z"/>
	<path d="M163.74,493.36c-0.22,0.57-0.03,1.16,0.32,1.65C165.92,493.38,164.62,491.13,163.74,493.36z"/>
	<path d="M161.67,457.5c-1.55,0.93-1.76,1.86-1.04,3.21C161.67,459.89,162.29,459.16,161.67,457.5z"/>
	<path d="M203.61,335.44c0.11-0.3,0.15-0.69,0.01-1.22C201.13,335.38,202.95,337.2,203.61,335.44z"/>
	<path d="M161.35,445.28c-0.93,0.73-1.55,1.35-0.62,2.49C161.77,447.14,162.29,446.63,161.35,445.28z"/>
	<path d="M199.38,340.23c-0.93,0.31-1.86,0.83-2.28,2.49C200.1,340.95,200.2,340.85,199.38,340.23z"/>
	<path d="M155.97,493.76c0.52-1.03-1.12-1.95-0.83,0.93C155.45,494.39,155.76,494.18,155.97,493.76z"/>
	<path d="M154.62,486.82c0,0.31,0.21,0.73,0.31,1.04c0.21-0.1,0.31-0.21,0.41-0.21c-0.1-0.31,0-0.73-0.21-1.04
		C155.03,486.3,154.62,486.51,154.62,486.82z"/>
	<path d="M160.73,453.88c0.62-0.62,1.55-0.83,0.52-1.97C160.53,452.32,160.11,452.74,160.73,453.88z"/>
	<path d="M641.65,218.39c1.77-7.17-0.61-13.47-1.76-20.1c-0.31-1.76-0.83-3.52-3.42-3.42c3.11,14.3,2.18,28.59,3.94,42.58
		c-5.59,3-10.77,2-15.95,1.55c-2.95-0.25-1.7-5.6-3.94-9.74c-0.93,3.83-0.41,6.84,0.41,9.74c0.62,1.04,1.75,0.32,2.28,0.83
		c3.37,3.26,7.56,3,11.71,2.38C649.35,240.06,639.27,228.06,641.65,218.39z"/>
	<path d="M620.93,225.95c-7.15-1.55-14.4-0.73-21.55-1.24c7.04,2.18,14.19,3.11,21.45,2.8
		C620.83,226.99,620.93,226.47,620.93,225.95z"/>
	<path d="M759.96,200.36c-3.95-1.72-4.25-6.22-7.36-9.01c1.14,5.91,4.87,11.29,8.7,13.05c0-0.62-0.93-1.04-0.52-1.86
		c3.11,0.93,6.01,2.8,10.26,1.86C767.01,202.54,763.37,201.85,759.96,200.36z"/>
	<path d="M698.94,197.05c1.45-6.42,6.53-9.63,9.84-14.19C702.26,185.65,697.59,192.18,698.94,197.05z"/>
	<path d="M724.53,181.51c-2.07,3.11-2.28,7.56-0.83,12.85C724.12,190,724.01,185.76,724.53,181.51z"/>
	<path d="M601.97,304.69c0.1-4.04-2.18-7.56-3.32-11.19C598.76,297.65,600.31,301.17,601.97,304.69z"/>
	<path d="M725.57,217.46c-0.41-3.83-0.21-7.67-0.31-11.6C724.01,209.79,723.6,213.73,725.57,217.46z"/>
	<path d="M620.31,223.36c2.38-0.52,2.07,1.35,3,2.28c-0.83-2.9,1.14-5.91-1.24-9.43C621.45,218.91,621.97,221.09,620.31,223.36z"/>
	<path d="M720.18,245.33c5.49-0.1,10.98-0.1,16.58,0C733.94,244.67,722.56,243.71,720.18,245.33z"/>
	<path d="M721.01,172.19c-3,2.8-5.91,5.59-7.67,7.36C715.41,178.09,718.11,175.09,721.01,172.19z"/>
	<path d="M724.32,224.81c-0.31,3.42,0.83,6.42,0.21,9.63C726.29,231.13,726.08,227.2,724.32,224.81z"/>
	<path d="M705.16,246.99c4.97-0.62,9.95-1.14,14.92-1.76C715.1,244.71,710.13,245.43,705.16,246.99z"/>
	<path d="M595.55,246.16c0.21-3.42-0.1-6.73-1.04-10.05C594.61,239.53,594.2,242.95,595.55,246.16z"/>
	<path d="M595.86,220.98c0.52-4.04-0.31-7.15-1.55-10.05C593.89,214.14,594.2,217.25,595.86,220.98z"/>
	<path d="M677.81,186.48c0.41,2.38,1.86,3.94,4.25,4.66C680.5,189.69,680.19,187.21,677.81,186.48z"/>
	<path d="M605.39,313.81c0,1.97,0.83,3.63,2.8,5.7C607.46,316.71,606.74,315.16,605.39,313.81z"/>
	<path d="M736.34,228.65c2.07-0.41,4.25-0.31,6.22-0.73C740.49,227.72,738.31,226.99,736.34,228.65z"/>
	<path d="M773.74,188.35c-1.45,0.73-2.59,1.76-3.83,3.83C773.33,190.52,773.33,190.52,773.74,188.35z"/>
	<path d="M597.41,278.38c0.31,1.86,0.41,3.83,1.76,6.22C598.86,282,598.66,280.03,597.41,278.38z"/>
	<path d="M769.29,192.18c-1.86,0.73-3.32,1.04-3.32,3.11C767.53,194.77,768.67,194.36,769.29,192.18z"/>
	<path d="M688.17,206.17c1.35-0.21,2.59-0.41,3-2.07C690.45,205.13,688.89,204.82,688.17,206.17z"/>
	<path d="M621.24,213.11c1.35-1.35,1.04-2.59-0.21-3.63C621.03,210.62,620.1,211.86,621.24,213.11z"/>
	<path d="M620.31,203.06c-0.1,1.24-0.83,2.59,0.62,3.94C622.17,205.34,620.62,204.3,620.31,203.06z"/>
	<path d="M597.41,273.92c-0.62,2.18-0.41,3.32,0.1,4.35C597.41,277.24,597.41,276.1,597.41,273.92z"/>
	<path d="M727.02,171.46c0.62,0.83,1.04,1.35,1.97,1.14C728.57,171.87,728.16,171.36,727.02,171.46z"/>
	<path d="M777.47,198.19c-0.62,0.21-0.93,0.52-0.83,1.66C777.26,199.23,778.09,199.02,777.47,198.19z"/>
	<path d="M629.32,400.11c-0.43,4.36-1.66,8.7-1.45,13.16c0.1,0.41-0.31,1.04-0.62,1.35c-4.14,4.14-0.25,10.39-0.83,11.6
		c-1.49,3.12-0.5,13.49,1.55,15.85c0.65-7.83-3.24-11.31,1.66-15.64c0.21-0.11,1.3-6.31,0.41-9.12c-1.85-5.89,3.04-10.1,1.66-20.62
		c1.24-2.8,4.04-4.25,3.94-7.46C623.12,403.75,629.71,396.18,629.32,400.11z"/>
	<path d="M621.86,352.97c2.49-4.25,6.73-6.22,9.43-10.05c-1.66-2.9-1.66-6.63-4.87-9.22c-1.04,3.21,1.55,5.59,0.93,8.6
		c-3.94,1.86-3.83,6.94-7.15,9.53c-0.52,2.69,1.04,4.87,1.45,7.56c-1.66,2.59-1.66,6.01-4.77,8.7
		C624.34,368.67,624.07,358.3,621.86,352.97z"/>
	<path d="M643.93,357.22c-1.55,6.63,0.31,13.57-2.8,20.2c4.41-0.18,2-5.07,3.21-7.77c1.39-3.09,0.83-6.53,1.24-9.84
		C645.79,358.87,645.69,357.63,643.93,357.22z"/>
	<path d="M664.34,343.85c-4.97,2.28-8.81,4.97-12.95,8.08C654.91,352.04,661.33,348,664.34,343.85z"/>
	<path d="M638.33,345.2c-2.28-2.9-3.83-6.42-7.04-8.5C632.64,340.33,635.02,343.13,638.33,345.2z"/>
	<path d="M612.54,379.8c1.86,2.69,1.24,6.42,3.52,8.91C616.58,385.09,615.75,381.98,612.54,379.8z"/>
	<path d="M615.85,354.52c-2.59-2.69-4.35-2.9-6.73-1.14C611.09,355.77,613.47,354.42,615.85,354.52z"/>
	<path d="M640.61,347.17c2.49,1.97,4.87,4.04,7.25,6.01C646.83,349.55,644.55,347.27,640.61,347.17z"/>
	<path d="M631.29,503.09c0.52-1.97,0.73-3.52-0.73-4.97C630.15,499.77,629.01,501.43,631.29,503.09z"/>
	<path d="M634.4,385.71c3-1.45,3-1.45,3.21-3.94C635.95,382.7,635.23,384.26,634.4,385.71z"/>
	<path d="M607.15,369.96c0.62,2.07,0.83,3.52,2.07,4.56C609.22,372.96,609.12,371.41,607.15,369.96z"/>
	<path d="M626.94,460.3c0,0.88,1.89,0.47,1.45-2.8C626.94,458.33,626.42,459.16,626.94,460.3z"/>
	<path d="M666.62,340.02c-1.14,0.52-2.38,0.83-2.9,2.8C665.37,342.2,666.41,341.47,666.62,340.02z"/>
	<path d="M627.97,445.28c-0.83,0.73-1.55,1.24-0.73,2.49C628.49,447.14,628.8,446.52,627.97,445.28z"/>
	<path d="M621.86,487.96c0.21-0.83,0-1.57-0.52-1.45C620.93,486.61,621.03,487.44,621.86,487.96z"/>
	<path d="M627.77,453.88c0.31-0.62,0.83-1.04,0.1-1.97C627.04,452.53,626.32,453.05,627.77,453.88z"/>
	<path d="M631.08,492.52c-0.83,0.62-0.93,1.24-0.41,2.38C631.7,494.07,631.7,493.35,631.08,492.52z"/>
	<path d="M669.41,336.19c1.14-0.52,0.93-1.76,1.45-2.59C670.29,334.41,668.47,334.4,669.41,336.19z"/>
	<path d="M622.07,495.11c0.52-1.14,0.83-1.76,0-2.8C621.76,493.14,621.14,493.76,622.07,495.11z"/>
	<path d="M812.18,142.87c0.94,1.24,2.59,0.41,4.25-1.45c-5.28-0.52-6.73-7.25-13.26-6.01C806.79,138.1,809.91,139.86,812.18,142.87z
		"/>
	<path d="M734.68,158.82c-0.39,3.88,7,3.64,10.88-1.35C741.31,158.51,738.21,160.58,734.68,158.82z"/>
	<path d="M809.07,141.93c-0.93,3.83-4.87,4.56-7.36,7.04C806.79,148.77,810.21,145.66,809.07,141.93z"/>
	<path d="M818.39,136.55c-2.07-5.28-4.56-6.42-9.22-4.04C813.32,131.16,815.08,135.2,818.39,136.55z"/>
	<path d="M808.66,155.3c1.86,2.38,4.14,2.28,7.46,1.55C813.32,155.3,811.04,155.09,808.66,155.3z"/>
	<path d="M796.53,141.21c3.52,0,6.11-0.52,8.39-2.07C802.13,138.72,799.54,139.24,796.53,141.21z"/>
	<path d="M743.59,134.27c-0.73,2.07,0.1,3.73,0.21,5.39C745.77,137.89,745.25,136.34,743.59,134.27z"/>
	<path d="M818.08,142.76c1.97-1.14,2.59-2.8,1.45-5.7C816.82,143.09,817.02,142.05,818.08,142.76z"/>
	<path d="M810.93,150.22c-1.35,1.14-2.69,2.18-4.04,3.32C809.17,153.43,810.73,152.6,810.93,150.22z"/>
	<path d="M749.19,134.99c-1.35-0.62-2.38-2.28-4.77-0.93C746.08,135.3,747.43,135.82,749.19,134.99z"/>
	<path d="M744.22,143.07c2.49,1.66,2.49,1.66,4.87,1.14C747.63,143.59,746.39,142.87,744.22,143.07z"/>
	<path d="M758.2,140.79c-1.35-1.86-2.49-3-4.45-2.59C755.09,139.14,756.03,140.48,758.2,140.79z"/>
	<path d="M793.32,152.4c-1.76-0.41-2.8-0.31-3.83,0.52C790.73,153.54,791.66,153.43,793.32,152.4z"/>
	<path d="M785.76,142.97c-1.24-0.1-2.38-0.31-3.21,1.35C784.1,144.42,785.03,144.01,785.76,142.97z"/>
	<path d="M743.7,151.47c-0.1,1.45-1.04,2.18,0.21,3.52C744.32,153.85,745.35,153.12,743.7,151.47z"/>
	<path d="M790.21,116.24c1.55,0.31,2.28-0.21,2.69-1.24C791.66,114.38,790.94,115.1,790.21,116.24z"/>
	<path d="M753.85,138.1c-0.31-1.45-0.93-2.49-2.8-2.28C751.47,137.48,753.12,137.17,753.85,138.1z"/>
	<path d="M743.18,143.49c-1.04,0.62-1.35,1.35-1.04,2.8C743.8,145.56,743.8,144.73,743.18,143.49z"/>
	<path d="M730.95,142.45c1.04,0.41,1.66,0.21,2.18-1.04C732.2,141.21,731.37,140.9,730.95,142.45z"/>
	<path d="M728.57,152.5c1.24-0.41,2.18,0.21,2.8-1.24C730.44,151.36,729.61,151.26,728.57,152.5z"/>
	<path d="M784.1,153.43c-1.66-0.41-2.28,0.31-3.42,1.35C782.44,154.99,783.17,154.47,784.1,153.43z"/>
	<path d="M793.01,142.35c-1.14-0.83-1.97-0.62-3.21,0.41C791.04,142.87,791.98,143.18,793.01,142.35z"/>
	<path d="M796.74,151.67c0.93,0.21,1.76,0.41,2.28-1.14C796.39,151.19,796.74,150.54,796.74,151.67z"/>
	<path d="M772.19,159.03c0.62-0.31,1.04-0.73,0.41-1.66C771.46,157.89,771.46,158.41,772.19,159.03z"/>
	<path d="M746.08,157.06c0.73,0.52,1.14,0.93,1.86-0.31C747.22,156.65,746.81,156.23,746.08,157.06z"/>
	<path d="M804.2,157.37c0.73,0.1,1.24-0.1,1.35-0.93C804.51,155.82,804.2,156.33,804.2,157.37z"/>
	<path d="M773.02,150.01c-0.31-0.41-0.31-1.35-1.45-0.73C771.77,149.91,771.98,150.33,773.02,150.01z"/>
	<path d="M746.29,127.64c-1.04-0.21-1.35,0.21-0.83,1.24C746.18,128.78,746.6,128.47,746.29,127.64z"/>
	<path d="M833.31,197.88c-1.45,5.28,1.04,10.05,1.66,15.02C835.18,207.82,834.45,202.85,833.31,197.88z"/>
	<path d="M859.94,213.32c0.83-4.14,0.73-8.18-0.93-12.02c-0.31,0-0.73,0.1-1.04,0.1C859.04,215,858.2,213.32,859.94,213.32z"/>
	<path d="M861.91,259.62c-0.62-6.42-1.24-12.95-1.86-19.37C859.63,246.88,859.94,253.31,861.91,259.62z"/>
	<path d="M854.76,177.57c-1.04,1.86-1.45,3.63,0.21,5.7C855.59,181.1,855.48,179.33,854.76,177.57z"/>
	<path d="M856.31,192.18c0.31,0.62,0.62,1.24,1.04,2.07C857.87,193.11,857.66,192.39,856.31,192.18z"/>
	<path d="M853,220.15c0.31-1.45-0.1-1.76-1.24-1.66C851.55,219.43,851.86,219.84,853,220.15z"/>
	<path d="M846.47,323.34c1.04-0.31,1.97-0.62,2.18-2.07C847.4,321.58,846.99,322.51,846.47,323.34z"/>
	<path d="M850.1,319.71c1.04-0.41,1.24-1.14,1.24-2.07C850.51,318.06,849.99,318.57,850.1,319.71z"/>
	<path d="M851.44,317.75c0.73-0.21,0.83-0.73,1.04-1.66C851.75,316.61,851.34,317.02,851.44,317.75z"/>
	<path d="M860.04,215.49c-0.52,0.62-1.14,0.83-0.52,1.35C860.25,216.84,860.35,216.42,860.04,215.49z"/>
	<path d="M712.2,45.38c-6.53,0.73-8.5,1.35-9.53,3.11c4.97-0.1,10.26,2.07,14.3-2.59c-2.28-5.28-11.19-5.8-16.06-0.83
		C704.54,42.79,707.95,44.34,712.2,45.38z"/>
	<path d="M739.86,48.49c-3.63-1.97-6.84-2.18-10.15-2.59c2.28-1.55,4.87-0.41,6.42-1.76c1.76,0.21,2.9,2.18,4.97,1.45
		c-6.11-5.18-14.82-4.77-16.27,0.21C728.99,49.42,733.75,49.94,739.86,48.49z"/>
	<path d="M725.77,78.22c-0.41-2.59-1.66-4.24-3.73-3.63c-2.8,0.83-6.94-1.45-8.29,3.83C717.9,79.05,721.73,78.53,725.77,78.22z"/>
	<path d="M723.29,64.96c0.21-2.38-1.24-2.79-2.69-2.69c-1.76,0.11-3.42,0.41-3.52,3.83C719.35,64.34,721.32,64.96,723.29,64.96z"/>
	<path d="M726.91,117.9c-2.49,0.41-4.66,1.55-7.04,2.28C722.77,121.11,725.15,120.38,726.91,117.9z"/>
	<path d="M677.81,369.13c0.62-0.41,0.93-0.62,1.76-1.14C678.43,367.89,678.22,368.2,677.81,369.13z"/>
	<path d="M719.77,358.25c0.31-1.76,0.31-3.42-0.21-5.8C718.73,354.94,719.14,356.6,719.77,358.25z"/>
	<path d="M246.41,166.49c0.1-2.69,1.34-5.38-1.35-7.46c-2.8-2.17-5.28-0.41-7.56,0.83c-16.82-6.27-10.76,14.83-0.41,4.14
		C239.47,168.04,242.78,167.42,246.41,166.49z M239.37,162.14c0.27-2.71,4.62-3.52,5.39,0.73c-1.55,0-3.21,0.1-2.49,2.49
		C239.99,165.14,239.18,164,239.37,162.14z M231.7,165.24c-3.77-0.35-3.06-5.49,0.31-5.28C235.63,160.18,235.17,165.56,231.7,165.24
		z"/>
	<path d="M224.34,158.2c-2.99-0.79-6.01,0.21-9.12,0.1c0.21,2.8,2.69,1.97,3.42,3.11c0.83,1.86-0.52,4.14,1.14,5.59
		c1.86-0.21,0.62-2.49,2.28-2.59c1.66,0.1,1.66,2.9,4.45,2.38c-0.93-1.45-1.58-2.51-0.21-4.35
		C227.63,160.67,226.53,158.78,224.34,158.2z M221.24,161.93c1.04-1.55,1.97-2.07,3.21-0.83
		C223.72,162.65,222.69,162.34,221.24,161.93z"/>
	<path d="M265.97,175.11c0.1-0.1,14.47,10.06,17.84,13.24C279.68,181.53,273.6,177.29,265.97,175.11z"/>
	<path d="M286.09,191.56c1.97,10.15,7.15,11.91,17.3,13.16c0.31,0,0.41-0.31,0-1.04C284.23,198.12,292.91,197.91,286.09,191.56z"/>
	<path d="M238.23,246.67c10.67-1.04,21.45-1.76,32.22-1.76C259.67,244.29,248.9,244.71,238.23,246.67z"/>
	<path d="M231.8,196.64c1.66-6.01,7.15-9.12,10.05-14.09C237.29,186.38,231.6,189.38,231.8,196.64z"/>
	<path d="M212.64,172.81c-0.31,4.14,3.11,6.94,9.01,7.77C218.54,178.09,215.02,176.23,212.64,172.81z"/>
	<path d="M314.37,179.75c-2.69,2.38-2.28,5.91-4.25,8.5C313.65,187.62,315.41,184.1,314.37,179.75z"/>
	<path d="M256.46,193.11c1.31,0,0.62,1.28,1.66-11.5C255.39,181.61,256.34,190.9,256.46,193.11z"/>
	<path d="M254.39,172.19c-3.11,3-6.32,6.01-7.98,7.67C248.38,178.51,251.28,175.19,254.39,172.19z"/>
	<path d="M258.53,211.66c-0.2-1.87,0.83-3.83-0.1-5.7C256.29,216.13,259.8,223.36,258.53,211.66z"/>
	<path d="M257.91,234.45c1.76-3.52,1.66-6.22,0-9.43C257.91,228.23,257.91,231.34,257.91,234.45z"/>
	<path d="M307.85,177.68c-2.69,0.21-4.25,2.18-6.11,3.83C304.74,181.72,307.22,181.2,307.85,177.68z"/>
	<path d="M307.95,177.68c1.86-2.28,4.35-4.25,5.08-7.46C310.33,172.08,308.47,174.46,307.95,177.68z"/>
	<path d="M210.56,185.96c0.83,2.38,1.66,3.73,3.63,4.14C213.57,188.76,213.26,186.9,210.56,185.96z"/>
	<path d="M255.84,142.76c0,1.66-0.93,3.42,0.62,5.59C256.56,145.97,256.56,144.32,255.84,142.76z"/>
	<path d="M303.08,191.97c2.28,0,3.73-1.14,4.77-4.04C305.46,189.18,304.12,190.42,303.08,191.97z"/>
	<path d="M221.55,180.68c0.41,2.07,1.76,2.8,4.25,2.9C224.45,181.82,223,181.2,221.55,180.68z"/>
	<path d="M276.14,227.92c-1.66,0-2.8,0-3.94,0C273.35,228.44,274.59,228.34,276.14,227.92z"/>
	<path d="M302.98,191.97c-1.45,0.52-3.21,0.83-3.83,3.21C301.32,194.87,302.25,193.63,302.98,191.97z"/>
	<path d="M279.46,126.08c-1.04-0.21-1.86,0-2.69,1.45C278.22,127.43,279.15,127.53,279.46,126.08z"/>
	<path d="M288.99,156.44c-1.04-1.24-1.86-1.14-2.9-0.31C286.82,157.06,287.64,157.47,288.99,156.44z"/>
	<path d="M250.87,248.95c1.04,0,2.18,0.1,3.21,0.1C252.94,248.85,251.9,248.44,250.87,248.95z"/>
	<path d="M293.34,155.51c1.92-0.96-0.38-1.98-1.45-0.1C292.41,155.82,292.93,155.71,293.34,155.51z"/>
	<path d="M265.84,175.08c-0.42-1.05-1.23-1.44-2.33-1.54C263.81,174.62,264.68,175.04,265.84,175.08z"/>
	<path d="M263.51,173.43c-0.31-0.93-1.04-1.14-2.38-1.35C262.05,173.12,262.57,173.64,263.51,173.43z"/>
	<path d="M228.38,243.05c0.21-0.21,0.73-0.21,0.52-0.73C228.49,242.43,228.18,242.53,228.38,243.05z"/>
	<path d="M292.1,184.1c-0.62-0.62-1.04-0.41-1.45,0.31C291.37,185.03,291.79,184.93,292.1,184.1z"/>
	<path d="M154.21,159.55c12.49-9.81,20.23-5.74,29.42-17.72c-11.71,6.32-24.35,10.88-35.43,19.17
		C150.79,162.03,152.64,160.78,154.21,159.55z"/>
	<path d="M216.37,110.13c-3.32-0.73-6.73-0.31-10.15,0.52C217.86,111,216.37,111.78,216.37,110.13z"/>
	<path d="M135.35,144.73c-3.11,3-3.21,3.63-1.97,6.42C134.11,148.77,134.73,146.8,135.35,144.73z"/>
	<path d="M122.81,143.18c2.69,1.35,4.56,2.38,6.53,3.42C128.31,143.8,126.23,143.07,122.81,143.18z"/>
	<path d="M202.59,110.96c-1.97-0.73-3.21,0-4.87,1.14C199.69,112.51,201.14,112.1,202.59,110.96z"/>
	<path d="M123.33,164.73c2.38-0.41,3.83-1.04,5.18-3.42C126.23,162.34,124.89,163.07,123.33,164.73z"/>
	<path d="M191.5,104.33c-0.83,0.83-2.69,0-2.9,1.97C189.74,105.67,190.98,105.57,191.5,104.33z"/>
	<path d="M145.3,161.41c-0.55-0.16-2.53-1.09-2.07,0.52C143.85,162.24,144.36,162.34,145.3,161.41z"/>
	<path d="M71.64,164.21c0.21-0.52-0.1-0.73-1.04-1.14C71.01,163.9,71.12,164.31,71.64,164.21z"/>
	<path d="M185.18,150.33c-0.62,0.21-0.83,0.52-0.52,1.04C185.39,151.26,185.7,151.05,185.18,150.33z"/>
	<path d="M175.55,129.09c-0.21-1.04-0.73-0.73-1.35-0.41C174.51,129.4,174.93,129.71,175.55,129.09z"/>
	<path d="M127.02,203.56C127.16,202.56,127.02,202.12,127.02,203.56L127.02,203.56z"/>
	<path d="M128.72,222.95c-1.49-12.08-1.71-17.45-1.7-19.39c-0.19,1.3-0.87,3.54-2.96,3.75c2.68-0.2,2.33-0.35,3.94,15.75
		C128.2,223.05,128.51,222.95,128.72,222.95z"/>
	<path d="M128.62,246.05c0.41-4.14,0.1-8.29-1.04-12.74C127.17,237.97,128.31,242.01,128.62,246.05z"/>
	<path d="M130.17,274.03c0.16,0,0.1,0.79,0.1-9.95C130.11,263.92,130.17,262.73,130.17,274.03z"/>
	<path d="M134.83,304.07c0.41-3.32-0.93-6.01-2.07-8.81C131.54,296.08,131.47,293.99,134.83,304.07z"/>
	<path d="M138.77,314.22c0.21,1.97,0.93,3.63,2.59,4.87C140.94,317.23,140.43,315.36,138.77,314.22z"/>
	<path d="M131.31,279.93c0.1,1.76,0.1,3.52,1.45,5.08C132.35,283.25,132.66,281.38,131.31,279.93z"/>
	<path d="M130.9,277.76c-0.41,0.83-0.1,1.45,0.41,2.07C131.31,279.21,131.41,278.48,130.9,277.76z"/>
	<path d="M252.94,414.2c-2.49,6.84-1.86,21.96,1.14,25.8C252.94,431.4,252.73,423.21,252.94,414.2z"/>
	<path d="M252.01,381.15c-1.86,7.64-0.33,14.94,0.52,22.59C253.35,396.17,251.69,388.71,252.01,381.15z"/>
	<path d="M270.03,366.13c0.52,1.66,0.73,3.32,2.07,4.56C273.35,367.47,273.04,366.75,270.03,366.13z"/>
	<path d="M235.95,48.38c5.08,0.1,10.26,2.07,14.4-2.49c-2.07-5.28-11.5-5.91-16.27-0.73c3.73-2.18,7.25-1.04,11.5,0.21
		C239.68,46,237.19,46.72,235.95,48.38z"/>
	<path d="M272.93,48.49c-3.11-2.38-6.53-1.66-9.53-3c2.18-1.24,4.56-0.21,6.01-1.55c2.07,0.52,3,2.38,5.18,1.55
		c-4.04-4.45-8.92-3.64-13.68-3C254.78,43.29,259.67,51.14,272.93,48.49z"/>
	<path d="M255.84,74.59c-2.91,0.71-6.94-1.35-8.7,3.52c4.14,1.35,8.08,0.21,12.12,0.1C258.84,75.73,257.6,74.17,255.84,74.59z"/>
	<path d="M243.51,72.21c1.64,2.87,8.81-0.32,18.44,1.24c0.72,0.12,1.55-0.52,1.04-1.55C258.84,70.76,246.72,70.86,243.51,72.21z"/>
	<path d="M256.98,64.65c-0.77-3.38-6.65-3.43-6.32,1.35C252.73,64.03,254.91,65.48,256.98,64.65z"/>
	<path d="M233.98,109.3c6.11,2.28,10.98,6.53,16.58,9.53C245.69,114.58,240.92,110.02,233.98,109.3z"/>
	<path d="M264.64,116.03c3.83-2.49,7.67-4.97,11.6-7.56C271.69,109.61,267.13,111.16,264.64,116.03z"/>
	<path d="M261.33,117.28c-2.69,0.93-5.28,1.97-7.98,2.9C256.56,121.11,259.15,119.97,261.33,117.28z"/>
	<path d="M271.59,96.76c1.76-2.18,2.49-4.66,2.9-7.36C272.21,91.38,272.1,94.17,271.59,96.76z"/>
	<path d="M269.82,102.36c-0.62,0.31-0.52,0.73-0.31,1.14C270.03,103.19,270.14,102.88,269.82,102.36z"/>
	<path d="M47.19,161.72c-0.52,0.73-0.21,1.14,0.83,1.45C48.53,162.03,48.22,161.62,47.19,161.72z"/>
	<path d="M53.09,148.36c0.21-0.31,0.21-0.93-0.62-1.35C52.01,147.94,52.45,149.1,53.09,148.36z"/>
	<path d="M254.49,323.13c10.76,0.98,13.74-0.57,17.09,11.19c0.96,3.36,1.64,7.82,2.04,8.35c2.2,2.94-0.23-14.13-6.15-18.18
		C263.36,321.68,257.84,321.37,254.49,323.13z"/>
	<path d="M210.25,369.44c0.73,0.09,1.4-0.43,1.61-0.84C212.21,368.18,210.59,368.44,210.25,369.44z"/>
	<path d="M253.66,358.36c-0.21-1.76-0.31-3.63-0.41-5.39C252.21,354.83,252.21,356.7,253.66,358.36z"/>
<path fill="#e6e6e6" d="m206.8 163.6c0-5.1 4.1-9.2 9.3-9.2s9.2 4.2 9.2 9.2-4.1 9.2-9.3 9.2-9.2-4.1-9.2-9.2zm17.3-.1c0-4.5-3.5-8.2-8.2-8.2s-8.2 3.7-8.2 8.3c0 4.5 3.5 8.2 8.2 8.2s8.2-3.7 8.2-8.3zm-13 0c0-2.8 2.1-5.1 5.1-5.1 1.9 0 2.9.6 3.9 1.5l-1.4 1.7c-.8-.7-1.5-1.1-2.5-1.1-1.7 0-2.8 1.4-2.8 3.1s1.1 3 2.8 3c1.1 0 1.7-.5 2.5-1.1l1.4 1.4c-1.1 1.1-2.1 1.7-4 1.7-2.9 0-5-2.3-5-5.1z"/><path fill="#e6e6e6" d="m226.6 154.7h3.4l4.2 13.2 4.4-13.3h2.6l4.4 13.3 4.2-13.2h3.3l-6.2 18h-2.7l-4.4-12.8-4.4 12.8h-2.7z"/><path fill="#e6e6e6" d="m252.8 165.8c0-3.9 3.1-7 7.2-7 4.2 0 7.2 3.2 7.2 7s-3.1 7-7.3 7c-4 0-7.1-3.1-7.1-7zm11.3 0c0-2.3-1.7-4.3-4.2-4.3s-4.1 2-4.1 4.3 1.7 4.3 4.1 4.3c2.7.1 4.2-1.9 4.2-4.3z"/><path fill="#e6e6e6" d="m269.5 159.1h3.1v3c.8-2 2.4-3.4 4.8-3.3v3.2h-.2c-2.7 0-4.6 1.7-4.6 5.4v5.1h-3.1z"/><path fill="#e6e6e6" d="m279.1 153.9h3.1v11.1l5.6-6h3.8l-5.4 5.5 5.5 8h-3.5l-4.1-5.8-1.9 2v3.9h-3.1z"/><path fill="#e6e6e6" d="m291.7 165.8c0-3.9 3.1-7 7.2-7 4.2 0 7.2 3.2 7.2 7s-3.1 7-7.3 7c-4 0-7.1-3.1-7.1-7zm11.3 0c0-2.3-1.7-4.3-4.2-4.3s-4.1 2-4.1 4.3 1.7 4.3 4.1 4.3c2.6.1 4.2-1.9 4.2-4.3z"/><path fill="#e6e6e6" d="m308.2 167.6v-8.6h3.1v7.6c0 2.1 1.1 3.3 2.9 3.3s3-1.3 3-3.3v-7.6h3.1v13.4h-3.1v-2.1c-.8 1.3-2.1 2.3-4.2 2.3-3.1.2-4.8-1.8-4.8-5z"/><path fill="#e6e6e6" d="m323.9 168.8v-7.1h-1.7v-2.6h1.7v-3.7h3.1v3.7h3.6v2.6h-3.6v6.6c0 1.2.6 1.7 1.7 1.7.7 0 1.3-.2 1.9-.5v2.5c-.8.5-1.7.7-2.8.7-2.3 0-3.9-.9-3.9-3.9z"/><path fill="#e6e6e6" d="m333.2 154.7h3.2v15h9.4v2.9h-12.5v-17.9z"/><path fill="#e6e6e6" d="m356 172.5v-1.7c-.9 1.1-2.3 2-4.4 2-2.6 0-4.8-1.4-4.8-4.2 0-3 2.3-4.4 5.4-4.4 1.7 0 2.6.2 3.7.5v-.2c0-1.9-1.2-2.9-3.3-2.9-1.5 0-2.6.3-3.9.8l-.8-2.5c1.5-.7 2.9-1.1 5.1-1.1 4 0 5.9 2.1 5.9 5.7v8zm.1-5.6c-.8-.3-1.9-.5-3.1-.5-2 0-3.1.8-3.1 2.1s1.1 2 2.6 2c2 0 3.5-1.1 3.5-2.9z"/><path fill="#e6e6e6" d="m364.9 170.5v2.1h-3.1v-18.7h3.1v7.4c1-1.4 2.4-2.5 4.5-2.5 3.2 0 6.3 2.5 6.3 7s-3.1 7-6.3 7c-2.1 0-3.5-1.1-4.5-2.3zm7.7-4.7c0-2.6-1.7-4.3-3.9-4.3s-3.9 1.7-3.9 4.4c0 2.6 1.8 4.3 3.9 4.3s3.9-1.7 3.9-4.4z"/><path fill="#e6e6e6" d="m376.9 170.8 1.4-2.1c1.4 1.1 3 1.7 4.4 1.7s2.1-.5 2.1-1.5-1.3-1.4-2.8-1.8c-.1 0-.2-.1-.2-.1-2-.6-4.2-1.4-4.2-4s2.1-4.1 4.8-4.1c1.7 0 3.5.6 5 1.5l-1.2 2.2c-1.3-.8-2.6-1.3-3.8-1.3s-1.9.5-1.9 1.4 1.3 1.4 2.8 1.8c.1 0 .2.1.2.1 2 .6 4.2 1.5 4.2 4 0 2.9-2.2 4.2-5 4.2-1.9 0-4-.7-5.8-2z"/><path fill="#e6e6e6" d="m505.6 163.6c0-5.1 4.1-9.2 9.3-9.2s9.2 4.2 9.2 9.2-4.1 9.2-9.3 9.2-9.2-4.1-9.2-9.2zm17.4-.1c0-4.5-3.5-8.2-8.2-8.2s-8.2 3.7-8.2 8.3c0 4.5 3.5 8.2 8.2 8.2s8.2-3.7 8.2-8.3zm-13.1 0c0-2.8 2.1-5.1 5.1-5.1 1.9 0 2.9.6 3.9 1.5l-1.4 1.7c-.8-.7-1.5-1.1-2.5-1.1-1.7 0-2.8 1.4-2.8 3.1s1.1 3 2.8 3c1.1 0 1.7-.5 2.5-1.1l1.4 1.4c-1.1 1.1-2.1 1.7-4 1.7-2.9 0-5-2.3-5-5.1z"/><path fill="#e6e6e6" d="m525.4 154.7h3.4l4.2 13.2 4.4-13.3h2.6l4.4 13.3 4.2-13.2h3.3l-6.2 18h-2.7l-4.4-12.8-4.4 12.8h-2.7z"/><path fill="#e6e6e6" d="m551.7 165.8c0-3.9 3.1-7 7.2-7 4.2 0 7.2 3.2 7.2 7s-3.1 7-7.3 7c-4.1 0-7.1-3.1-7.1-7zm11.2 0c0-2.3-1.7-4.3-4.2-4.3s-4.1 2-4.1 4.3 1.7 4.3 4.1 4.3c2.7.1 4.2-1.9 4.2-4.3z"/><path fill="#e6e6e6" d="m568.3 159.1h3.1v3c.8-2 2.4-3.4 4.8-3.3v3.2h-.2c-2.7 0-4.6 1.7-4.6 5.4v5.1h-3.1z"/><path fill="#e6e6e6" d="m577.9 153.9h3.1v11.1l5.6-6h3.8l-5.4 5.5 5.5 8h-3.5l-4.1-5.8-1.9 2v3.9h-3.1z"/><path fill="#e6e6e6" d="m590.6 165.8c0-3.9 3.1-7 7.2-7 4.2 0 7.2 3.2 7.2 7s-3.1 7-7.3 7c-4.1 0-7.1-3.1-7.1-7zm11.2 0c0-2.3-1.7-4.3-4.2-4.3s-4.1 2-4.1 4.3 1.7 4.3 4.1 4.3c2.6.1 4.2-1.9 4.2-4.3z"/><path fill="#e6e6e6" d="m607 167.6v-8.6h3.1v7.6c0 2.1 1.1 3.3 2.9 3.3s3-1.3 3-3.3v-7.6h3.1v13.4h-3.1v-2.1c-.8 1.3-2.1 2.3-4.2 2.3-3 .2-4.8-1.8-4.8-5z"/><path fill="#e6e6e6" d="m622.7 168.8v-7.1h-1.7v-2.6h1.7v-3.7h3.1v3.7h3.6v2.6h-3.6v6.6c0 1.2.6 1.7 1.7 1.7.7 0 1.3-.2 1.9-.5v2.5c-.8.5-1.7.7-2.8.7-2.3 0-3.9-.9-3.9-3.9z"/><path fill="#e6e6e6" d="m632 154.7h3.2v15h9.4v2.9h-12.6z"/><path fill="#e6e6e6" d="m654.8 172.5v-1.7c-.9 1.1-2.3 2-4.4 2-2.6 0-4.8-1.4-4.8-4.2 0-3 2.3-4.4 5.4-4.4 1.7 0 2.6.2 3.7.5v-.2c0-1.9-1.2-2.9-3.3-2.9-1.5 0-2.6.3-3.9.8l-.8-2.5c1.5-.7 2.9-1.1 5.1-1.1 4 0 5.9 2.1 5.9 5.7v8zm.1-5.6c-.8-.3-1.9-.5-3.1-.5-2 0-3.1.8-3.1 2.1s1.1 2 2.6 2c2 0 3.5-1.1 3.5-2.9z"/><path fill="#e6e6e6" d="m663.7 170.5v2.1h-3.1v-18.7h3.1v7.4c1-1.4 2.4-2.5 4.5-2.5 3.2 0 6.3 2.5 6.3 7s-3.1 7-6.3 7c-2.1 0-3.5-1.1-4.5-2.3zm7.8-4.7c0-2.6-1.7-4.3-3.9-4.3-2.1 0-3.9 1.7-3.9 4.4 0 2.6 1.8 4.3 3.9 4.3s3.9-1.7 3.9-4.4z"/><path fill="#e6e6e6" d="m675.8 170.8 1.4-2.1c1.4 1.1 3 1.7 4.4 1.7s2.1-.5 2.1-1.5-1.3-1.4-2.8-1.8c-.1 0-.2-.1-.2-.1-2-.6-4.2-1.4-4.2-4s2.1-4.1 4.8-4.1c1.7 0 3.5.6 5 1.5l-1.2 2.2c-1.3-.8-2.6-1.3-3.8-1.3s-1.9.5-1.9 1.4 1.3 1.4 2.8 1.8c.1 0 .2.1.2.1 2 .6 4.2 1.5 4.2 4 0 2.9-2.2 4.2-5 4.2-2 0-4.1-.7-5.8-2z"/><path fill="#e6e6e6" d="m61 298.6c0-5.1 4.1-9.2 9.3-9.2s9.2 4.2 9.2 9.2-4.1 9.2-9.3 9.2c-5.1 0-9.2-4.2-9.2-9.2zm17.4-.1c0-4.5-3.5-8.2-8.2-8.2s-8.2 3.7-8.2 8.3c0 4.5 3.5 8.2 8.2 8.2s8.2-3.7 8.2-8.3zm-13.1-.1c0-2.8 2.1-5.1 5.1-5.1 1.9 0 2.9.6 3.9 1.5l-1.4 1.7c-.8-.7-1.5-1.1-2.5-1.1-1.7 0-2.8 1.4-2.8 3.1s1.1 3 2.8 3c1.1 0 1.7-.5 2.5-1.1l1.4 1.4c-1.1 1.1-2.1 1.7-4 1.7-2.8.1-5-2.2-5-5.1z"/><path fill="#e6e6e6" d="m80.9 289.7h3.4l4.2 13.2 4.4-13.3h2.6l4.4 13.3 4.2-13.2h3.3l-6.2 18h-2.7l-4.4-12.8-4.4 12.8h-2.7z"/><path fill="#e6e6e6" d="m107.1 300.8c0-3.9 3.1-7 7.2-7s7.2 3.2 7.2 7-3.1 7-7.3 7c-4 0-7.1-3.1-7.1-7zm11.3 0c0-2.3-1.7-4.3-4.2-4.3s-4.1 2-4.1 4.3 1.7 4.3 4.1 4.3c2.6.1 4.2-1.9 4.2-4.3z"/><path fill="#e6e6e6" d="m123.7 294h3.1v3c.8-2 2.4-3.4 4.8-3.3v3.2h-.2c-2.7 0-4.6 1.7-4.6 5.4v5.1h-3.1z"/><path fill="#e6e6e6" d="m133.4 288.9h3.1v11.1l5.6-6h3.8l-5.4 5.5 5.5 8h-3.5l-4.1-5.8-1.9 1.9v3.9h-3.1z"/><path fill="#e6e6e6" d="m146 300.8c0-3.9 3.1-7 7.2-7s7.2 3.2 7.2 7-3.1 7-7.3 7c-4.1 0-7.1-3.1-7.1-7zm11.2 0c0-2.3-1.7-4.3-4.2-4.3s-4.1 2-4.1 4.3 1.7 4.3 4.1 4.3c2.6.1 4.2-1.9 4.2-4.3z"/><path fill="#e6e6e6" d="m162.4 302.6v-8.6h3.1v7.6c0 2.1 1.1 3.3 2.9 3.3s3-1.3 3-3.3v-7.6h3.1v13.4h-3.1v-2.1c-.8 1.3-2.1 2.3-4.2 2.3-3 .2-4.8-1.8-4.8-5z"/><path fill="#e6e6e6" d="m178.1 303.8v-7.1h-1.7v-2.7h1.7v-3.7h3.1v3.7h3.6v2.6h-3.6v6.6c0 1.2.6 1.7 1.7 1.7.7 0 1.3-.2 1.9-.5v2.5c-.8.5-1.7.7-2.8.7-2.3.1-3.9-.9-3.9-3.8z"/><path fill="#e6e6e6" d="m187.4 289.7h3.2v15h9.4v2.9h-12.5v-17.9z"/><path fill="#e6e6e6" d="m210.2 307.5v-1.7c-.9 1.1-2.3 2-4.4 2-2.6 0-4.8-1.4-4.8-4.2 0-3 2.3-4.4 5.4-4.4 1.7 0 2.6.2 3.7.5v-.2c0-1.9-1.2-2.9-3.3-2.9-1.5 0-2.6.3-3.9.8l-.8-2.5c1.5-.7 2.9-1.1 5.1-1.1 4 0 5.9 2.1 5.9 5.7v8zm.1-5.6c-.8-.3-1.9-.5-3.1-.5-2 0-3.1.8-3.1 2.1s1.1 2 2.6 2c2 0 3.5-1.1 3.5-2.9z"/><path fill="#e6e6e6" d="m219.2 305.5v2.1h-3.1v-18.7h3.1v7.4c1-1.4 2.4-2.5 4.5-2.5 3.2 0 6.3 2.5 6.3 7s-3.1 7-6.3 7c-2.2 0-3.6-1.1-4.5-2.3zm7.7-4.7c0-2.6-1.7-4.3-3.9-4.3s-3.9 1.7-3.9 4.4c0 2.6 1.8 4.3 3.9 4.3s3.9-1.7 3.9-4.4z"/><path fill="#e6e6e6" d="m231.2 305.8 1.4-2.1c1.4 1.1 3 1.7 4.4 1.7s2.1-.5 2.1-1.5-1.3-1.4-2.8-1.8c-.1 0-.2-.1-.2-.1-2-.6-4.2-1.4-4.2-4s2.1-4.1 4.8-4.1c1.7 0 3.5.6 5 1.5l-1.2 2.2c-1.3-.8-2.6-1.3-3.8-1.3s-1.9.5-1.9 1.4 1.3 1.4 2.8 1.8c.1 0 .2.1.2.1 2 .6 4.2 1.5 4.2 4 0 2.9-2.2 4.2-5 4.2-2 0-4.1-.7-5.8-2z"/><path fill="#e6e6e6" d="m360.6 298.6c0-5.1 4.1-9.2 9.3-9.2s9.2 4.2 9.2 9.2-4.1 9.2-9.3 9.2-9.2-4.2-9.2-9.2zm17.4-.1c0-4.5-3.5-8.2-8.2-8.2s-8.2 3.7-8.2 8.3c0 4.5 3.5 8.2 8.2 8.2s8.2-3.7 8.2-8.3zm-13.1-.1c0-2.8 2.1-5.1 5.1-5.1 1.9 0 2.9.6 3.9 1.5l-1.4 1.7c-.8-.7-1.5-1.1-2.5-1.1-1.7 0-2.8 1.4-2.8 3.1s1.1 3 2.8 3c1.1 0 1.7-.5 2.5-1.1l1.4 1.4c-1.1 1.1-2.1 1.7-4 1.7-2.8.1-5-2.2-5-5.1z"/><path fill="#e6e6e6" d="m380.5 289.7h3.4l4.2 13.2 4.4-13.3h2.6l4.4 13.3 4.2-13.2h3.3l-6.2 18h-2.7l-4.4-12.8-4.4 12.8h-2.7z"/><path fill="#e6e6e6" d="m406.7 300.8c0-3.9 3.1-7 7.2-7 4.2 0 7.2 3.2 7.2 7s-3.1 7-7.3 7c-4.1 0-7.1-3.1-7.1-7zm11.3 0c0-2.3-1.7-4.3-4.2-4.3s-4.1 2-4.1 4.3 1.7 4.3 4.1 4.3c2.7.1 4.2-1.9 4.2-4.3z"/><path fill="#e6e6e6" d="m423.3 294h3.1v3c.8-2 2.4-3.4 4.8-3.3v3.2h-.2c-2.7 0-4.6 1.7-4.6 5.4v5.1h-3.1z"/><path fill="#e6e6e6" d="m433 288.9h3.1v11.1l5.6-6h3.8l-5.4 5.5 5.5 8h-3.5l-4.1-5.8-1.9 2v3.9h-3.1z"/><path fill="#e6e6e6" d="m445.6 300.8c0-3.9 3.1-7 7.2-7 4.2 0 7.2 3.2 7.2 7s-3.1 7-7.3 7c-4.1 0-7.1-3.1-7.1-7zm11.3 0c0-2.3-1.7-4.3-4.2-4.3s-4.1 2-4.1 4.3 1.7 4.3 4.1 4.3c2.6.1 4.2-1.9 4.2-4.3z"/><path fill="#e6e6e6" d="m462.1 302.6v-8.6h3.1v7.6c0 2.1 1.1 3.3 2.9 3.3s3-1.3 3-3.3v-7.6h3.1v13.4h-3.1v-2.1c-.8 1.3-2.1 2.3-4.2 2.3-3.1.2-4.8-1.8-4.8-5z"/><path fill="#e6e6e6" d="m477.8 303.8v-7.1h-1.8v-2.7h1.7v-3.7h3.1v3.7h3.6v2.6h-3.6v6.6c0 1.2.6 1.7 1.7 1.7.7 0 1.3-.2 1.9-.5v2.5c-.8.5-1.7.7-2.8.7-2.2.1-3.8-.9-3.8-3.8z"/><path fill="#e6e6e6" d="m487.1 289.7h3.2v15h9.4v2.9h-12.5v-17.9z"/><path fill="#e6e6e6" d="m509.9 307.5v-1.7c-.9 1.1-2.3 2-4.4 2-2.6 0-4.8-1.4-4.8-4.2 0-3 2.3-4.4 5.4-4.4 1.7 0 2.6.2 3.7.5v-.2c0-1.9-1.2-2.9-3.3-2.9-1.5 0-2.6.3-3.9.8l-.8-2.5c1.5-.7 2.9-1.1 5.1-1.1 4 0 5.9 2.1 5.9 5.7v8zm.1-5.6c-.8-.3-1.9-.5-3.1-.5-2 0-3.1.8-3.1 2.1s1.1 2 2.6 2c2 0 3.5-1.1 3.5-2.9z"/><path fill="#e6e6e6" d="m518.8 305.5v2.1h-3.1v-18.7h3.1v7.4c1-1.4 2.4-2.5 4.5-2.5 3.2 0 6.3 2.5 6.3 7s-3.1 7-6.3 7c-2.2 0-3.5-1.1-4.5-2.3zm7.7-4.7c0-2.6-1.7-4.3-3.9-4.3s-3.9 1.7-3.9 4.4c0 2.6 1.8 4.3 3.9 4.3s3.9-1.7 3.9-4.4z"/><path fill="#e6e6e6" d="m530.8 305.8 1.4-2.1c1.4 1.1 3 1.7 4.4 1.7s2.1-.5 2.1-1.5-1.3-1.4-2.8-1.8c-.1 0-.2-.1-.2-.1-2-.6-4.2-1.4-4.2-4s2.1-4.1 4.8-4.1c1.7 0 3.5.6 5 1.5l-1.2 2.2c-1.3-.8-2.6-1.3-3.8-1.3s-1.9.5-1.9 1.4 1.3 1.4 2.8 1.8c.1 0 .2.1.2.1 2 .6 4.2 1.5 4.2 4 0 2.9-2.2 4.2-5 4.2-1.9 0-4.1-.7-5.8-2z"/><path fill="#e6e6e6" d="m659.5 298.6c0-5.1 4.1-9.2 9.3-9.2s9.2 4.2 9.2 9.2-4.1 9.2-9.3 9.2-9.2-4.2-9.2-9.2zm17.3-.1c0-4.5-3.5-8.2-8.2-8.2s-8.2 3.7-8.2 8.3c0 4.5 3.5 8.2 8.2 8.2 4.8 0 8.2-3.7 8.2-8.3zm-13-.1c0-2.8 2.1-5.1 5.1-5.1 1.9 0 2.9.6 3.9 1.5l-1.4 1.7c-.8-.7-1.5-1.1-2.5-1.1-1.7 0-2.8 1.4-2.8 3.1s1.1 3 2.8 3c1.1 0 1.7-.5 2.5-1.1l1.4 1.4c-1.1 1.1-2.1 1.7-4 1.7-2.9.1-5-2.2-5-5.1z"/><path fill="#e6e6e6" d="m679.3 289.7h3.4l4.2 13.2 4.4-13.3h2.6l4.4 13.3 4.2-13.2h3.3l-6.2 18h-2.6l-4.4-12.8-4.4 12.8h-2.7z"/><path fill="#e6e6e6" d="m705.5 300.8c0-3.9 3.1-7 7.2-7 4.2 0 7.2 3.2 7.2 7s-3.1 7-7.3 7c-4 0-7.1-3.1-7.1-7zm11.3 0c0-2.3-1.7-4.3-4.2-4.3s-4.1 2-4.1 4.3 1.7 4.3 4.1 4.3c2.7.1 4.2-1.9 4.2-4.3z"/><path fill="#e6e6e6" d="m722.1 294h3.1v3c.8-2 2.4-3.4 4.8-3.3v3.2h-.2c-2.7 0-4.6 1.7-4.6 5.4v5.1h-3.1z"/><path fill="#e6e6e6" d="m731.8 288.9h3.1v11.1l5.6-6h3.8l-5.4 5.5 5.5 8h-3.5l-4.1-5.8-1.9 2v3.9h-3.1z"/><path fill="#e6e6e6" d="m744.4 300.8c0-3.9 3.1-7 7.2-7 4.2 0 7.2 3.2 7.2 7s-3.1 7-7.3 7c-4.1 0-7.1-3.1-7.1-7zm11.3 0c0-2.3-1.7-4.3-4.2-4.3s-4.1 2-4.1 4.3 1.7 4.3 4.1 4.3c2.6.1 4.2-1.9 4.2-4.3z"/><path fill="#e6e6e6" d="m760.9 302.6v-8.6h3.1v7.6c0 2.1 1.1 3.3 2.9 3.3s3-1.3 3-3.3v-7.6h3.1v13.4h-3.1v-2.1c-.8 1.3-2.1 2.3-4.2 2.3-3.1.2-4.8-1.8-4.8-5z"/><path fill="#e6e6e6" d="m776.6 303.8v-7.1h-1.7v-2.7h1.7v-3.7h3.1v3.7h3.6v2.6h-3.6v6.6c0 1.2.6 1.7 1.7 1.7.7 0 1.3-.2 1.9-.5v2.5c-.8.5-1.7.7-2.8.7-2.3.1-3.9-.9-3.9-3.8z"/><path fill="#e6e6e6" d="m785.9 289.7h3.2v15h9.4v2.9h-12.5v-17.9z"/><path fill="#e6e6e6" d="m808.7 307.5v-1.7c-.9 1.1-2.3 2-4.4 2-2.6 0-4.8-1.4-4.8-4.2 0-3 2.3-4.4 5.4-4.4 1.7 0 2.6.2 3.7.5v-.2c0-1.9-1.2-2.9-3.3-2.9-1.5 0-2.6.3-3.9.8l-.8-2.5c1.5-.7 2.9-1.1 5.1-1.1 4 0 5.9 2.1 5.9 5.7v8zm.1-5.6c-.8-.3-1.9-.5-3.1-.5-2 0-3.1.8-3.1 2.1s1.1 2 2.6 2c2 0 3.5-1.1 3.5-2.9z"/><path fill="#e6e6e6" d="m817.6 305.5v2.1h-3.1v-18.7h3.1v7.4c1-1.4 2.4-2.5 4.5-2.5 3.2 0 6.3 2.5 6.3 7s-3.1 7-6.3 7c-2.1 0-3.5-1.1-4.5-2.3zm7.7-4.7c0-2.6-1.7-4.3-3.9-4.3-2.1 0-3.9 1.7-3.9 4.4 0 2.6 1.8 4.3 3.9 4.3 2.2 0 3.9-1.7 3.9-4.4z"/><path fill="#e6e6e6" d="m829.6 305.8 1.4-2.1c1.4 1.1 3 1.7 4.4 1.7s2.1-.5 2.1-1.5-1.3-1.4-2.8-1.8c-.1 0-.2-.1-.2-.1-2-.6-4.2-1.4-4.2-4s2.1-4.1 4.8-4.1c1.7 0 3.5.6 5 1.5l-1.2 2.2c-1.3-.8-2.6-1.3-3.8-1.3s-1.9.5-1.9 1.4 1.3 1.4 2.8 1.8c.1 0 .2.1.2.1 2 .6 4.2 1.5 4.2 4 0 2.9-2.2 4.2-5 4.2-1.9 0-4-.7-5.8-2z"/><path fill="#e6e6e6" d="m206.3 434.2c0-5.1 4.1-9.2 9.3-9.2s9.2 4.2 9.2 9.2-4.1 9.2-9.3 9.2-9.2-4.1-9.2-9.2zm17.4-.1c0-4.5-3.5-8.2-8.2-8.2s-8.2 3.7-8.2 8.3c0 4.5 3.5 8.2 8.2 8.2s8.2-3.7 8.2-8.3zm-13.1-.1c0-2.8 2.1-5.1 5.1-5.1 1.9 0 2.9.6 3.9 1.5l-1.4 1.7c-.8-.7-1.5-1.1-2.5-1.1-1.7 0-2.8 1.4-2.8 3.1s1.1 3 2.8 3c1.1 0 1.7-.5 2.5-1.1l1.4 1.4c-1.1 1.1-2.1 1.7-4 1.7-2.9.1-5-2.2-5-5.1z"/><path fill="#e6e6e6" d="m226.1 425.3h3.4l4.2 13.2 4.4-13.3h2.6l4.4 13.3 4.2-13.2h3.3l-6.2 18h-2.7l-4.4-12.8-4.4 12.8h-2.7z"/><path fill="#e6e6e6" d="m252.4 436.4c0-3.9 3.1-7 7.2-7 4.2 0 7.2 3.2 7.2 7s-3.1 7-7.3 7c-4.1 0-7.1-3.1-7.1-7zm11.2 0c0-2.3-1.7-4.3-4.2-4.3s-4.1 2-4.1 4.3 1.7 4.3 4.1 4.3c2.7.1 4.2-1.9 4.2-4.3z"/><path fill="#e6e6e6" d="m269 429.7h3.1v3c.8-2 2.4-3.4 4.8-3.3v3.2h-.2c-2.7 0-4.6 1.7-4.6 5.4v5.1h-3.1z"/><path fill="#e6e6e6" d="m278.6 424.5h3.1v11.1l5.6-6h3.8l-5.4 5.5 5.5 8h-3.5l-4.1-5.8-1.9 2v3.9h-3.1z"/><path fill="#e6e6e6" d="m291.3 436.4c0-3.9 3.1-7 7.2-7 4.2 0 7.2 3.2 7.2 7s-3.1 7-7.3 7c-4.1 0-7.1-3.1-7.1-7zm11.2 0c0-2.3-1.7-4.3-4.2-4.3s-4.1 2-4.1 4.3 1.7 4.3 4.1 4.3c2.6.1 4.2-1.9 4.2-4.3z"/><path fill="#e6e6e6" d="m307.7 438.2v-8.6h3.1v7.6c0 2.1 1.1 3.3 2.9 3.3s3-1.3 3-3.3v-7.6h3.1v13.4h-3.1v-2.1c-.8 1.3-2.1 2.3-4.2 2.3-3 .2-4.8-1.8-4.8-5z"/><path fill="#e6e6e6" d="m323.4 439.4v-7.1h-1.7v-2.6h1.7v-3.7h3.1v3.7h3.6v2.6h-3.6v6.6c0 1.2.6 1.7 1.7 1.7.7 0 1.3-.2 1.9-.5v2.5c-.8.5-1.7.7-2.8.7-2.3 0-3.9-.9-3.9-3.9z"/><path fill="#e6e6e6" d="m332.7 425.3h3.2v15h9.4v2.9h-12.5v-17.9z"/><path fill="#e6e6e6" d="m355.5 443.1v-1.7c-.9 1.1-2.3 2-4.4 2-2.6 0-4.8-1.4-4.8-4.2 0-3 2.3-4.4 5.4-4.4 1.7 0 2.6.2 3.7.5v-.2c0-1.9-1.2-2.9-3.3-2.9-1.5 0-2.6.3-3.9.8l-.8-2.5c1.5-.7 2.9-1.1 5.1-1.1 4 0 5.9 2.1 5.9 5.7v8zm.1-5.6c-.8-.3-1.9-.5-3.1-.5-2 0-3.1.8-3.1 2.1s1.1 2 2.6 2c2 0 3.5-1.1 3.5-2.9z"/><path fill="#e6e6e6" d="m364.4 441.1v2.1h-3.1v-18.7h3.1v7.4c1-1.4 2.4-2.5 4.5-2.5 3.2 0 6.3 2.5 6.3 7s-3.1 7-6.3 7c-2.1 0-3.5-1.1-4.5-2.3zm7.7-4.7c0-2.6-1.7-4.3-3.9-4.3-2.1 0-3.9 1.7-3.9 4.4 0 2.6 1.8 4.3 3.9 4.3 2.2 0 3.9-1.7 3.9-4.4z"/><path fill="#e6e6e6" d="m376.5 441.4 1.4-2.1c1.4 1.1 3 1.7 4.4 1.7s2.1-.5 2.1-1.5-1.3-1.4-2.8-1.8c-.1 0-.2-.1-.2-.1-2-.6-4.2-1.4-4.2-4s2.1-4.1 4.8-4.1c1.7 0 3.5.6 5 1.5l-1.2 2.2c-1.3-.8-2.6-1.3-3.8-1.3s-1.9.5-1.9 1.4 1.3 1.4 2.8 1.8c.1 0 .2.1.2.1 2 .6 4.2 1.5 4.2 4 0 2.9-2.2 4.2-5 4.2-2 0-4.1-.7-5.8-2z"/><path fill="#e6e6e6" d="m505.1 434.2c0-5.1 4.1-9.2 9.3-9.2s9.2 4.2 9.2 9.2-4.1 9.2-9.3 9.2-9.2-4.1-9.2-9.2zm17.4-.1c0-4.5-3.5-8.2-8.2-8.2s-8.2 3.7-8.2 8.3c0 4.5 3.5 8.2 8.2 8.2s8.2-3.7 8.2-8.3zm-13.1-.1c0-2.8 2.1-5.1 5.1-5.1 1.9 0 2.9.6 3.9 1.5l-1.4 1.7c-.8-.7-1.5-1.1-2.5-1.1-1.7 0-2.8 1.4-2.8 3.1s1.1 3 2.8 3c1.1 0 1.7-.5 2.5-1.1l1.4 1.4c-1.1 1.1-2.1 1.7-4 1.7-2.9.1-5-2.2-5-5.1z"/><path fill="#e6e6e6" d="m525 425.3h3.4l4.2 13.2 4.4-13.3h2.6l4.4 13.3 4.2-13.2h3.3l-6.2 18h-2.7l-4.4-12.8-4.4 12.8h-2.7z"/><path fill="#e6e6e6" d="m551.2 436.4c0-3.9 3.1-7 7.2-7 4.2 0 7.2 3.2 7.2 7s-3.1 7-7.3 7c-4.1 0-7.1-3.1-7.1-7zm11.2 0c0-2.3-1.7-4.3-4.2-4.3s-4.1 2-4.1 4.3 1.7 4.3 4.1 4.3c2.7.1 4.2-1.9 4.2-4.3z"/><path fill="#e6e6e6" d="m567.8 429.7h3.1v3c.8-2 2.4-3.4 4.8-3.3v3.2h-.2c-2.7 0-4.6 1.7-4.6 5.4v5.1h-3.1z"/><path fill="#e6e6e6" d="m577.5 424.5h3.1v11.1l5.6-6h3.8l-5.4 5.5 5.5 8h-3.5l-4.1-5.8-1.9 2v3.9h-3.1z"/><path fill="#e6e6e6" d="m590.1 436.4c0-3.9 3.1-7 7.2-7 4.2 0 7.2 3.2 7.2 7s-3.1 7-7.3 7c-4.1 0-7.1-3.1-7.1-7zm11.2 0c0-2.3-1.7-4.3-4.2-4.3s-4.1 2-4.1 4.3 1.7 4.3 4.1 4.3c2.6.1 4.2-1.9 4.2-4.3z"/><path fill="#e6e6e6" d="m606.5 438.2v-8.6h3.1v7.6c0 2.1 1.1 3.3 2.9 3.3s3-1.3 3-3.3v-7.6h3.1v13.4h-3.1v-2.1c-.8 1.3-2.1 2.3-4.2 2.3-3 .2-4.8-1.8-4.8-5z"/><path fill="#e6e6e6" d="m622.2 439.4v-7.1h-1.7v-2.6h1.7v-3.7h3.1v3.7h3.6v2.6h-3.6v6.6c0 1.2.6 1.7 1.7 1.7.7 0 1.3-.2 1.9-.5v2.5c-.8.5-1.7.7-2.8.7-2.3 0-3.9-.9-3.9-3.9z"/><path fill="#e6e6e6" d="m631.5 425.3h3.2v15h9.4v2.9h-12.5v-17.9z"/><path fill="#e6e6e6" d="m654.3 443.1v-1.7c-.9 1.1-2.3 2-4.4 2-2.6 0-4.8-1.4-4.8-4.2 0-3 2.3-4.4 5.4-4.4 1.7 0 2.6.2 3.7.5v-.2c0-1.9-1.2-2.9-3.3-2.9-1.5 0-2.6.3-3.9.8l-.8-2.5c1.5-.7 2.9-1.1 5.1-1.1 4 0 5.9 2.1 5.9 5.7v8zm.1-5.6c-.8-.3-1.9-.5-3.1-.5-2 0-3.1.8-3.1 2.1s1.1 2 2.6 2c2 0 3.5-1.1 3.5-2.9z"/><path fill="#e6e6e6" d="m663.3 441.1v2.1h-3.1v-18.7h3.1v7.4c1-1.4 2.4-2.5 4.5-2.5 3.2 0 6.3 2.5 6.3 7s-3.1 7-6.3 7c-2.2 0-3.6-1.1-4.5-2.3zm7.7-4.7c0-2.6-1.7-4.3-3.9-4.3s-3.9 1.7-3.9 4.4c0 2.6 1.8 4.3 3.9 4.3s3.9-1.7 3.9-4.4z"/><path fill="#e6e6e6" d="m675.3 441.4 1.4-2.1c1.4 1.1 3 1.7 4.4 1.7s2.1-.5 2.1-1.5-1.3-1.4-2.8-1.8c-.1 0-.2-.1-.2-.1-2-.6-4.2-1.4-4.2-4s2.1-4.1 4.8-4.1c1.7 0 3.5.6 5 1.5l-1.2 2.2c-1.3-.8-2.6-1.3-3.8-1.3s-1.9.5-1.9 1.4 1.3 1.4 2.8 1.8c.1 0 .2.1.2.1 2 .6 4.2 1.5 4.2 4 0 2.9-2.2 4.2-5 4.2-2 0-4.1-.7-5.8-2z"/></g>
</svg>
