<?xml version="1.0" encoding="utf-8"?>
<!-- Generator: Adobe Illustrator 23.0.1, SVG Export Plug-In . SVG Version: 6.00 Build 0)  -->
<svg version="1.2" baseProfile="tiny" id="Layer_1" xmlns="http://www.w3.org/2000/svg" xmlns:xlink="http://www.w3.org/1999/xlink"
	 x="0px" y="0px" viewBox="0 0 900 600" xml:space="preserve">
<g>
	<path d="M747.39,415.95c-0.08-0.98-0.44-1.82-0.89-2.72c-1.54-3.07-3.89-2.91-6.92-1.42c-0.85-1.48-0.65,0.12-2.34-9.4
		c0.57-1.26,2.22-2.32,1.16-6.11c-0.44-1.57-1.83-2.55-3.53-4.27c-0.49-7.51-1.52-6.69-1.39-8.18c0.28-3.12-0.16-4.96,0.48-6.09
		c2.29-4.04-1.85-5.9,0.51-10.56c0.92-1.82-1.76-11.44-4.5-11.44c-1.43,2.86,2.05,0.11-4.47,6.14c-0.79,0.73-0.96-0.48-1.65-2.42
		c4.68-6.46,3.67-4.82,3.83-6.53c-2.28,0.06-2.68,2.19-4.1,2.97c0.42-4.88,1.33-7.4,3.6-9.81c1.17,4.24,1.75,5.03,1.16,7
		c-0.45,1.53-0.11,2.59,1.5,2.8c0.52-2.06,1.79-4.09,0.81-6.14c-2.53-5.3-0.57-3.64-1.27-8.54c-0.58-4.08,0.34-2.66,0.34-9.89
		c2.27-0.67,4.45-1.54,4.46-3.98c0.01-2.23,1.88-1.63,1.6-3.63c-1.88,0-4.97,2.38-8.65-0.19c-1.21-0.84-2.67,0.57-3.4-0.11
		c-1.65-1.53,1.92-1.51,4.15-1.31c2.17,0.2,1.55-1.48,3.42-0.75c0.1,0.04,4.48,1.69,4.48,2.36c1.64,0.1,2.94-0.78,3.84-2.16
		c2.95-4.5,2.81-1.46,4.69-4.78c0.93-1.65,1.18-2.32,1.18-2.55c0.31-0.19,0.91-0.65,1.99-1.62c7.99-7.11,3.77-20.2,0.64-17.73
		c-1.36,1.06,3.33,4.34-0.05,7.99c0.68,1.55,1.28,1.72-0.55,4.68c-2.52,4.07-4.94,3.45-9.49,3.98c-4.85-2.34-6.66-6.95-8.21-11.96
		c1.22-3.3,0.74-4.62,9.86-5.92c3.24-0.46,4.05,0.55,6.14,1.35c2.36-1.48-3.97-7.48-16.33-0.63c-9.23-5.15-9.37-5.07-9.49-5.69
		c-2.03-10.81-5.74-17.7-9.47-31.41c-1.76-6.46-0.47-7.07-2.06-14.04c-5.49-24.07-3.4-17.8-19.36-36.92
		c-0.72-0.86-0.69-1.4-4.22-12.36c-1.81-5.61-6.53-9.54-11.24-20.83c-1-2.39-0.58-2.05-0.7-11.55c-0.08-6.11-1.03-3.64-1.29-8.96
		c-0.9-18.96-11.13-20.95-24.36-29.11c-4.65-2.87-6.38-6.2-10.45-11.97c0.63-6.36,1.42-12.86,0.61-19.63
		c-0.86-7.18,8.06-4.58,16.78-6.9c1.16-3.1,2.22-4.99,1.2-7.28c-1.66-3.72,3.55-4.31,0.69-10.35c2.39-1.78,2.16-1.15,2.09-3.62
		c-0.1-3.65-0.74-1.24,2.23-3.97c2.31-2.13,0.88-3.29-4.24-16.46c5.3-6.59,0.18-7.29-0.48-19.09c3.72-1.33,10.67-2.24,10.33-3.93
		c-0.28-1.39,2.3-2.11,0.86-3.75c0.89-5.04,1.26-3.7-1.09-6.27c-2.54-0.12-9.81,3.26-3.54-0.79c-0.21-0.61-0.22-0.94-0.37-1.02
		c-3.88-2.06-2.79-3.52-4.49-2c-0.93,0.84-1.17,1.86-2.56,3.25c-1.7-6.24-3.2-2.89-3.74-3.87c-0.9-1.65-2.4-1.44-3.85-1.18
		c-1.69,0.3-1.12-0.35-5.57,0.02c0.5-0.75,0.88-1.21,1.11-1.72c1.24-2.75-4.79-0.79-7.63,0.22c-4.3,1.53-6.15-2.38-13.1-0.63
		c-0.77,0.19-1.62,0.03-2.44,0.03c-0.07-0.91-0.12-1.59-0.2-2.59c-1.02,0.51-1.55,0.52-2.12,1.2c-2.46,2.93-9.51,0.41-13.13,4.78
		c-1.17,1.41-1.26,0.91-3.19-0.32c-1.56,0.22-1.45,1.63-2.21,2.5c-0.51-0.22-1.03-0.46-1.66-0.73c-0.89,0.87-1.63,1.96-3.13,2.15
		c-0.66,0.08-1.28,0.93-2.01,1.53c-0.2,0.17-0.46-0.13,2.41,2.42c-1.57,2.2-4.17,2.73-3.48,6.18c0.18,0.91-3.86,8.42-2.39,18.92
		c0.96,6.87-2.08,11.62,2.5,23.65c1.72,4.53-0.15,9.52,1.66,12.14c0.75,1.08,1.86,14.88-2.43,16.7c-0.51,0.22-1.43,0.92-1.46,0.98
		c13.78-0.46,6.16-17.01,9.94-20.64c1.35-1.29-1.2-3.24,1.63-8.68c1.47-2.83,0.52-5.16,0.09-5.92c0,0,0,0,0,0.01
		c2.13,0.42,1.89,2.87,3.49,4c6.93,4.89,7.78,5.07,10.47,2.66c-0.9-2.27-0.31-1.31-1.89-0.93c-0.56,0.13-1.25,0.41-1.69,0.2
		c-1.4-0.68-3.08-1.24-3.98-2.38c-3.59-4.56-9.07-6.37-6.15-11.66c1.44-2.61,4.74-7.8,5.64-4.95c-2.72,2.45-1.2,3.9-5.42,7.69
		c0.42,2.66,4.21,5.15,2.82,2.37c-1-2-1.07-1.64,0.4-2.93c1.71,1.02,1.54,2.87,2.33,4.14c0.61-1.23,0.84-1.73,0.47-2.88
		c-1.33-4.09-2.03-1.6-0.12-5.78c3.75,3.67,2.35,1.6,1.36,5.23c-0.22,0.8-0.47,1.8-0.16,2.47c0.46,1-0.16,1.87,0.07,2.92
		c1.27,0.88,2.72,0.8,4.1,0.33c0.58-0.19,0.95-0.97,1.36-1.42c-0.88-2.95-2.38-1.09-3.55-2.9c-0.98-1.5-0.05-3.31,2.59-2.6
		c-1.71-2.37-1.5-2.22-2.9-3.48c-5.02-4.56,1.16-1.09,2.35-1.18c-0.08-0.18-0.62-1.26-0.62-1.42c0.23,0.61,0.59-0.01,1.16,0.72
		c0.45,0.68,2.7,9.36,4.87,10c0.3-0.73,0.61-1.47,1-2.42c1.96,1.05,2.95,1.87,3.43,1.17c-6.94-12.62,14.42-21.3,17.1-27.73
		c0.56-1.33,4.43,1.84,7.62-1.33c-0.09-0.93-1.24-0.3-1.04-1.46c2.33-0.63,14.02-2.32,19.44-7.6c-0.45,1.41-0.96,2.86-2.27,3.49
		c-10.89,5.27-9.22,2.24-10.63,3.91c3.36,1.63,1.35,0.32,2.02,3.82c2.38,12.53,4.27,9.78,0.94,14.26
		c-3.23,4.35,9.17,17.66,3.01,17.95c-5.32,0.25-4.66-0.26-6.31-1.38c-0.1,0.67-1.16,2.92,1.29,3.57c3.48,0.92,2.54-2.06,3.35,3.46
		c-1.1,2.94-5.55,2.23-6.49,3.5c-0.57,0.78-0.55,2.44,3.74,0.18c2.6,2.45,1.71,2.33,0.61,4.21c-2.12,3.62,1.46,10.26-2.66,11.21
		c-13.16,3.02-12.3-0.6-15.76-0.62c0-0.01-0.01-0.03-0.03-0.08c-0.3-0.03-0.39-0.11-0.07,0.09c0.05,0,0.06,0,0.07,0
		c0.43,1.79,3.91,0.49,1.61,3.13c-2.84,3.26-2.07,2.52-1.84,24.48c-1.18,2.81,1.36,4.98,4.09,7.93
		c16.83,18.15,17.56,40.69,8.46,33.05c-1.72-7.22-1.92-10.04-5.16-11.83c-1.92,1.34,1.95,5.35,1.95,10.21
		c-6.45-3.21-12.47-10.2-16.5-16.56c-13.92-21.97-15.21-16.73-12.39-19.81c-9.83-2.46-2.56-2.31-24.93-14.83
		c-6.86-3.84-5.89-2.46-3.15-5.57c4.75-5.38-37.94,18.16-37.94,45.95c0,4.47-1.8,19.35-1.8,19.46
		c-0.74,11.49,5.99,28.21,14.07,36.68c3.22,29.73,13.8,23.43,17.86,48.89c-1.36,1.79-1.85,1.9-2.32,4.67
		c-1.24,7.24-7.06,6.2-11.39,17.44c-0.87,2.27-4.72,3.12-2.83,16.15c1.36,9.35,2.53,3.2-0.31,19.99
		c-2.59,15.27-1.43,28.47-1.43,60.08c0,33.42-1.79,30-1.44,33.21c0.75,6.91,20.11,7.99,26.97,7.16c0.6,1.48,0.56,3.18,0.71,4.91
		c0.96,11.48,6.11,1.38-9.58,32.12c-2.2,4.31-10.1,12.42-9.75,34.44c0,0.31,1.25,22.48,1.27,22.6c1.44,9.19,0.06,14.41,0.14,27.81
		c0.15,25.05,2.21,23.79-3.26,23.4c-8.88-0.65-3.63,16.87-7.56,20.63c-2.18,2.08-0.36,3.09-3.71,8.21
		c-0.66,1.01-4.04,6.42-4.16,7.82c-0.24,2.85,0.16,2.7,2.57,4.88c4.82-0.17,4.25,4.61,16.29,5.33c7.84,0.47,3.82-1.54,15.91-0.67
		c0.7,0.05,5.53,5.04,27.25,5.01c23.26-0.03,8.82-2.26,21.01-3.44c10.3-1,10.81-0.68,11.43-2.26c0.61-1.55,6.28-1.94,4.78-7.67
		c7.61-1.58,8.67,2.16,21.68,0.81c6.43-0.66,9.49-2.28,15.83-2.16c10.29,0.2,13.32-3,18.87-7.43c-0.35-3.11,0.84,0.96-4.87-13.64
		c-0.63-1.62-1.8-2.24-3.44-2.01c-10.03,1.44-21.25-2.94-22.24-2.93c-2.24,0.03-2.72-0.54-13.55-13.28
		c-1.28-1.5-1.81-3.15-4.86-12.12c-3.64-10.71-10.15,15.39-0.59-37.33c0.63-3.5,9.09-11.74,9.34-51.52
		c0.02-2.76,4.15-15.14,5.04-17.85c3.32-10.04-2.74-16.45,1.54-24.27c6.57-0.66,7.85,0.98,8.24-2.06
		c1.46-11.21-2.4-44.75-0.46-54.96c5.01,3.63,22.06,28.27,24.7,30.51c10.81,9.16,7.3,5.9,14.19,13.03c0.44,3.98,2.59,6.82,7.21,7.09
		c1.84,5.25,0.54,3.46,4.89,6.94c8.39,15.7,2.54,6.38,3.5,14.93c0.22,1.94,1.06,3.69,2.48,5.02c3.31,3.12,5.69,6.97,8.75,10.26
		c3.75,4.02,3.37,3.44,3.34,5.7c-0.02,1.33,0.35,2.45,1.51,3.14c3.1,1.85,63.01,116.01,66.14,119.28
		C838.64,583.09,749.1,438.25,747.39,415.95z M731.57,327.17c-0.78,1.69-0.98,1.34-1.36,1.36
		C730.21,326.78,730.59,328.05,731.57,327.17z M740.63,314.35c0.14,0.02,1.49,0.19,1.51,0.19
		C741.96,318.07,739.01,316.49,740.63,314.35z M592.14,37.7c0.03-0.1,0.5-0.42,0.81,0.02C593.37,38.32,591.12,40.96,592.14,37.7z
		 M592.98,59.36c-0.2-0.36-0.19-0.18-0.04-0.56C593.12,59.14,593.14,58.95,592.98,59.36z M594.37,49.3
		c-0.63-0.71-0.54-1.31,0.07-1.9C595.26,48.08,594.91,48.67,594.37,49.3z M595.93,33.04c-0.74,1.46-2.31,1.8-2.06,0.32
		C594.24,31.25,596.58,31.76,595.93,33.04z M596.29,18.92c0,0.29-0.01-0.16-0.28,0.93c-0.7-0.7-0.06-0.17,0.31-1.1
		C596.32,18.65,596.71,18.54,596.29,18.92z M598.17,15.81l-0.27-0.09C598.23,15.52,598.15,15.5,598.17,15.81z M598.19,52.68
		c-0.81-0.8-0.07-1.57,0.04-1.35C599.27,53,598.71,53.18,598.19,52.68z M598.74,44.99c-0.12-0.37-0.12-0.24,0.09-0.59
		C599.15,44.72,599.16,44.57,598.74,44.99z M603.54,10.91c0.48,1.18,0.69,0.9-0.47,1.5C602.56,11.42,602.45,11.88,603.54,10.91z
		 M600.41,18.69c-0.54-1.53-0.54-1.53,0.83-1.96C600.93,17.45,600.67,18.07,600.41,18.69z M601.03,36.37
		c0.18,0.03,0.38-0.03,0.67,0.26C602.61,37.54,600.13,38.74,601.03,36.37z M602.82,31.47c-1.63-1.51-1.44-1.19-0.98-1.58
		c0.21,0.81,0.11,0.67,0.27,0.78c2.4,2.12,2.05-0.04,2.8,2.13C602.81,33.42,603.01,31.53,602.82,31.47z M610.18,5.43
		c-0.72,0.56-1.36,1.43-2.49,0.86C608.23,4.96,609.17,5.18,610.18,5.43z M606.92,7.71l-0.2,0.03
		C606.81,7.48,606.75,7.48,606.92,7.71z M605.42,41.23c0.36-0.43,0.53-0.78,0.79-0.88c0.54-0.2,1.25,0.26,1.25,0.83
		C607.46,42.48,606.34,41.68,605.42,41.23z M606.55,43.89c0.54,0.04,1.1,0.02,1.35,0.66C607.3,44.62,606.85,44.4,606.55,43.89z
		 M606.68,17.44c2.08-3.68,1.15-3.56,4.08,0.24C609.22,18.67,608.23,17.16,606.68,17.44z M615.54,45.09l-0.02-0.19
		C615.76,44.99,615.75,44.94,615.54,45.09z M615.35,33.75c2.08-1.15,1.17,0.64,1,0.58C616.07,34.21,615.82,34.03,615.35,33.75z
		 M616.4,39.11c0.7-0.63,0.02-1.21,0.79-0.7C616.38,38.85,616.89,38.83,616.4,39.11z M616.46,17.59c0.35,0.56,0.72,1.13,1.07,1.71
		C613.85,22.3,614.31,18.22,616.46,17.59z M620.12,32.28c0.78-0.55-0.33-0.83,0.95-1.16C621.27,32.23,621.44,31.84,620.12,32.28z
		 M625.89,35.7c-0.18,0.3-0.37,0.6-0.57,0.89C623.9,35.27,626.25,35,625.89,35.7z M636.05,21.04c0.14,0.14-0.87,0.86-0.93,0.28
		c0-0.99-0.03-1.37-0.1-1.53C635.32,20.09,635.63,20.43,636.05,21.04z M634.92,19.68c-0.16-0.05-0.42,0.08-0.83-0.94
		C634.4,19.16,634.66,19.42,634.92,19.68z M629.96,19.72c-1.3,1.49-0.38,1.52-3.99-1.21C626.1,16.53,628.17,18.5,629.96,19.72z
		 M629.15,31.73c-1.41-0.99,1.23-3.13,4.58-3.46C631.98,29.59,630.54,30.68,629.15,31.73z M633.99,25.07
		c2.53-2.12,3.09-2.94,3.51-1.9C636.51,24.34,635.53,25.09,633.99,25.07z M637.6,7.81c-0.51-1.05-0.76-0.94,0.85-1.23
		c0.06-0.01,0.23,0.16,0.27,0.2C638.73,7.22,638.98,6.95,637.6,7.81z M645.18,9.7c0.07,0.01,0.22,0.39,0.18,0.44
		c-0.7,0.61-0.67,0.15-0.84-0.28C644.74,9.79,644.96,9.69,645.18,9.7z M641.97,23.19c-0.04-0.44-0.23-0.32,1.15-0.43
		C643.12,23.23,643.42,23.12,641.97,23.19z M641.32,20.98c-3.61-0.23,3.86-1.54,3.97-1.57c0.77-0.13,1.27,0.29,1.46,0.97
		C645.1,20.54,643.55,21.12,641.32,20.98z M651,13.85c-1.3-2.81-1.3-2.81-3.49-4.67c2.8-0.4,1.94-0.84,3.54,2.21
		c0.64-0.08,1.1-0.14,1.85-0.23C653.2,12.98,652.29,13.53,651,13.85z M658.63,8.76c0.06,0.14,0.27,0.48,0.22,0.53
		C656.67,11.4,657.31,8.4,658.63,8.76z M725.13,370.8c0.05-4.18,1.71-7.67,5.12-10.65c1.96,3.56,1.85,6.92,1.11,7.09
		c-1.97,0.44-6.3,3.2-4.72,4.47c3.59,0.55,3.76-6.04,5.26,2.78c0.34,1.97-0.8,0.9-0.78,6.43c0.01,2.13-0.33,1.72-2.81,1.72
		c-1.34-4.51-1.21-4.61-0.76-7.54C725.13,373.7,725.09,374.23,725.13,370.8z M724.68,380.03c-0.05,1.58,0.02,1.37-1.24-2.12
		C724.41,378.42,724.71,379.11,724.68,380.03z M727.86,334.57c-0.11,0.96-0.8,1.39-0.8,4.58c0,5.88,1.08,3.15-4.27,7.84
		c-0.85-2.11-0.81-3.81,0.68-5.54c1.02-1.18,2.96-5.41,1.41-5.2c-1.27,0.18-1.66,1.67-2.89,1.95c-2.25-6.05,8.79-13.18-0.17-7.76
		c-0.76,0.46-0.66,1.06,0.2-5.77C725.77,328.59,729.29,321.9,727.86,334.57z M737.44,320.76c-1.84,1.17-8.62-2.44-10.61-4.19
		c-1.15-1.01-0.57-4.51,2.95-0.1C734.23,322.05,740.34,318.92,737.44,320.76z M684.06,201.17c1.68,4.72,3.93,4.54,7,10.52
		c1.62,3.16,4.85,7.01,7.06,9.22c5.18,5.17,8.35,32.95,14.34,50.18c4.7,13.52,3.45,21.22,6.87,20.75c1.93-0.26,1.49,1.27,9,5.08
		c1.09,16.69,10.7,14.58,9.43,20.15c-2.26,0.32-4.14-0.1-5.72-1.71c-3.8-3.86-4.48-2.45-7.8-7.61c-2.66-0.15-0.48-0.18-4.78-0.18
		c-5.87,0-5.48-10.73-8.04-7.55c-1.62,2.01,1.04,8.51,5.99,9.06c2.23,0.25,5.96-0.3,7.92,3.33c-1.68,2.58-0.05,4.84,0.85,7.22
		c-9.44,1.96-1.02,8.27-15.78-6.25c-4.03-3.96,0.44-17.66-7.82-20.22c-0.95-2.07-1.45-4.25-2.75-5.73c-2.76-3.12-3.67-7.25-5.1-9.96
		c-15.08-28.48-18.76-18.34-25.57-49.11c-1.45-6.56-4.61-9.72-8.61-14.49c0-5.69,0.75,0.48-3.5-22.16
		c9.58-15.05,9.25-13.73,13.55-24.5C671.3,176.79,675.17,176.25,684.06,201.17z M689.3,304.87c-5.59-3.38-4.76-2.51-6.09-6.29
		c-1.93-5.5-5.22-3.33-4.86-5.88c8.76-6.71,14.33-7.07,15.01-5.68C698.62,287.09,704.93,301.04,689.3,304.87z M688.94,314.16
		c-0.12-0.66-0.03-0.49,2.17-3.06C691.59,313.27,690.13,313.44,688.94,314.16z M651.17,268.36c8.33,1.71,7.57-1.36,15.2,1.39
		c3.01,5.76,5.28,10.94,6.18,17.23c-4.34,0-10.89,1.06-14.33-4.81C652.95,273.19,647.95,267.7,651.17,268.36z M650.71,261.37
		c0.58,1.8,0.8,2.97,0.05,4.25C649.52,264.16,649.51,263.9,650.71,261.37z M653.39,261.82c1.37,0.84,1.58,1.88,1.82,2.95
		c0.29,1.29,0.52,1.1-0.34,1.05C652.67,265.71,653.03,266.5,653.39,261.82z M658.08,262.15c0.4,4.27,0.71,3.56-1.53,3.8
		C656.55,263.51,656.05,261.22,658.08,262.15z M665.13,258.29c0.74-12.2-5.43-30.65-5.66-31.06c-1.58-2.79-1.08-5.52-0.15-8.49
		c2.08,2.32,3.99,4.47,6.08,6.8c1.67,9.87,4.75,13.29,5.41,16.65c1.15,5.81,3.93,10.48,9.53,18.74c5.89,8.68,5.73,1.89,13.51,21.24
		c1.73,4.29-2.24-1.31-14.99,6.56c-2.44-1.22-3.87-2.99-4.28-5.56C672.68,271.53,664.65,266.22,665.13,258.29z M663.78,139.85
		c1.36,1.96,3.56,8.32,2.13,6.51C654.35,131.8,652.7,123.83,663.78,139.85z M584.56,97.14c16.09,11.11,25.72,11.84,42.24,37.78
		c6.83,10.72,11.98,17.41,24.19,20.74c4.5,1.23,6.49-9.13,3.38-17.64c-1.13-3.1-2.9-5.86-4.31-8.82c-0.54-1.13,0.42-2.07,2.99,2.12
		c14.82,24.21,12.61,21.06,15.49,22.89c2.95,8.84-5.13,23.25-10.23,31.02c-2.46,3.74-4.28,5.86-3.33,9.99
		c7.01,30.39-4.25,17.14,3.29,38.78c3.15,9.05,3.06,13.11,3.58,24.76c0.07,1.47-0.3,1.61-1.31,2.61c0.22,1.1,3.69,4.21,0.23,4.41
		c-0.6-1.37-1.41-3.21-0.24-4.38c0-5.36-7.47,0.41-15.55-3.24c-10.32-21.82-9.18-23.46-11.99-28.12
		c-13.64-22.55-7.33-7.35-6.53-20.45c0.04-0.64-0.17-1-0.85-1.1c-2.1,1.04-1.66,3.45-2.44,5.52c-2.21-2.18-5.03-5.54-4.91-12.22
		c0.37-21.16-3.34-21.34-3.34-24.66c4.4,2.65,5.17,2.8,6.93,1.16c-11.25-9.41-8.66-4.67-10.74-11.15
		c8.53-9.98,10.85-21.07,6.09-32.9c-10.91-27.13-25.99-29.41-39.07-32.82C580.39,99.6,582.31,98.01,584.56,97.14z M646.96,263.77
		c-0.12-0.95-1.14-1.58-0.7-2.65C647.38,261.43,647.38,261.43,646.96,263.77z M550.5,162.88c0.05-2.53,3.74-12.62,0.77-15.8
		c0.09-0.39,0.43-1.77,0.43-2.01c3.63-25.77,8.14-21.47,12.79-32.9c4.19-2.36,7.99-4.96,11.02-8.42c3.64,0.88,15.89,2.09,23.49,9.36
		c21.36,20.44,21.28,31.99,14.12,48.01c-0.61,1.36-1.81,1.82-3.14,2.7c-1.15-2.93-2.2-5.61-3.19-8.15c3.03-7.59,4.38-9.88,2.83-13.7
		c-2.42,4.76-2.67,8.94-4.22,9.6c-2.19,0.93-2.24,4.84-1.36,6.16c2.34,3.49,4.36,11.93,8.05,19.11c5.95,11.59-0.5,24.89,9.88,40.39
		c14.66,21.89,4.74,8.7,24.08,51.31c1.68,3.7,7.34,11.22,11.49,17.28c4.98,7.27,20.8,0.39,17.16,5.73c1.3,2.57,1.27,2.61,3.63,4.45
		c3.87,3.03,2.35,6.88,9.57,10.59c1.29,0.66,2.49,1.49,3.22,2.92c-1.22,0.54-0.47-0.06-2.71,2.3c-6.47-1.15-7.81-5.86-11.77-4.42
		c1.33,3.29,8.91,4.96,9.37,5.97c-4.82,7.38-3.04,4.31-13.15,1.01c-0.72-0.23-1.21-0.01-1.28,0.87c8.52,4.3,7.71,2.95,5.94,5.81
		c-9-2.28-10.34-3.45-10.21-1.29c15.43,5.08,15.49,2.51,10.5,5c-2.36,1.18-4.16-1.4-9.21-2.61c-3.61-0.87-6.5-2.69-10.06-4.96
		c-6.5-4.15-2.77-8.29-10-15.67c-0.83-0.85-3.68-3.71-2.51-3.82c1.62-0.15,1.75-0.73,1.16-1.58c-1.41-2.04-1.58-1.4-2.8-0.62
		c-3.34-3.67-1.47-2.9-2.7-3.52c-0.16-0.11-0.44-0.32-0.51-0.45c-6.43-9.16-33.66-29.48-40.66-47.31c-0.82-2.1-1.54,0.01-2.74-4.93
		c-6.75-27.64-0.03-0.04-10.39-26.18c-2.15-5.43-5.25-7.2-15.43-15.7c-7.89-6.59-12.62-33.26-15.24-36.38
		c0.5-1.06,0.95-1.89,0.54-2.97c-1.43-3.71-0.79-3.48-2.37-5.76c-1.57,2.47,4.57,23.58,4.6,23.68
		C561.31,183.03,550.32,172,550.5,162.88z M682.56,319.37c-2.1,1.3-1.86,1.36-2.49,0.86c-0.32-0.26,0.31-0.8,0.43-0.83
		C680.89,319.28,681.33,319.37,682.56,319.37z M605.46,258.74c-2.54-0.12-5.18,0.48-3.05-4.69
		C603.36,255.64,604.75,256.87,605.46,258.74z M599.78,257.93c-1.93,0.07-3.44-0.12-4.94-1.05c-0.32-2.49,0.5-4.78,1.83-6.9
		c2.65,1.42,1.69,0.45,1.69,4.04C598.37,260.83,601.35,244.2,599.78,257.93z M572.69,219.36c-8.06-11.34-6.67-21.03-9.38-26.53
		c-5.78-11.73-5.53-10.83-5.11-11.59c4.2,1.03,2.43-0.95,7.64,12.3c0.71,1.8,5.91,8.66,10.44,12.05c9.06,6.78,7.1,3.98,9.02,9.3
		c1.91,5.28,3.33,11.03,7.76,12.87c2.83,14.45,6.92,15.55,5.05,19.56c-4.73-1.14-9.59,0.42-14.34-1.31
		C580.36,233.86,582.98,233.84,572.69,219.36z M587.08,250.45c0.48,1.21-0.43,2.59,0.93,3.78c0.46-1.63,0.82-2.98,1.22-4.4
		c5.92-0.27,5.47-0.48,4.12,3.54c-0.8,2.39,1.93,5.46-12.67-0.37c1.13-1.09,0.7-2.65,2.09-3.92c0.16,1.25,0.27,2.13,0.42,3.2
		C586.33,252.28,585.43,252.76,587.08,250.45z M584.82,249.83c0.25-0.04,0.19-0.07,0.19,0.93
		C584.83,250.76,584.86,250.91,584.82,249.83z M590.87,422.59c2.31-6.01,0.28-5.34,0.45-7.47c0.4-5.11,0.33-3.56-0.56-11.14
		c-0.12-1.01-4.03-1.55,40.52,3.17c0,2.99-1.92,4.63-1.35,10.99c0.85,9.38-14.8,23.43-15.4,29.84c2.7,0.53,2.04-1,0.05,8.4
		c-0.24,1.13-0.94,1.62-2.04,1.9c-0.58-2.1,0.45-4.68-1.92-6.51c-0.31,0.57-0.71,0.97-0.71,1.37c-0.7,11.55,3.55,3.85,2.04,8.81
		c-28.53,93.52-8.49,73.18-19.32,78.64c-2.94,1.48-4.79,2.31-5.01,4.77c-0.37,4.12,5.67,0.21-6.28,8.94
		c-2.18-0.71-4.54-0.15-6.79-2.01C574.54,440.77,559.55,485.14,590.87,422.59z M621.68,474.18c4.94,26.17,4.46-7.37,3.2,46.06
		c-0.76,32.16-3.23,19.28-8.11,21.31c-5.95,10.79-3.8,13.1-7.24,13.6c-2.94-6.73,1-4.75-1.51-12.01c-1.21-3.51-5.13-3.76-8.61-4.31
		c-3.68-26.01,21.95-97.51,22.03-97.61c7.78-11.67,1.95-3.89-0.9,24.04C619.9,471.45,621.15,471.35,621.68,474.18z M629.85,550.67
		c-1.74,1.74-4.41-0.11-6.21-1.79c-0.93-0.87-0.88-1.43,0.21-3.13C629.82,550.36,632.9,547.63,629.85,550.67z M576.62,556.46
		c2.87,0.29,2.08-0.76,2.8,0.61c-2.07,1.56-4.47,2.57-6.67,4.13c-0.84-0.67-1.55-1.25-2.21-1.77
		C571.2,553.4,574.46,556.24,576.62,556.46z M589.61,592.58c-5.75-2.78-23.89,2.44-27.41-2.15c-1.54-2.01-5.63-1.65-7.56-4.66
		c1.54-10.42,5.7-2.53,5.81-12.41c0.05-4.22,3.99-2.35,3.32-8.8c-0.39-3.83-0.54-11.13,2.26-13.8c8.32,0,2.67,0.64,1.8,5.07
		c-0.49,2.51-3.98,2.54,1.95,7.36c4.73,3.83,7.06-2.99,16-5.12c1.33-0.32,0.68-2.14-0.18-3c7.22-5.03,6.46-3.62,6.2-11.19
		c3.94-2.4,8.29-2.37,12.52-1.52c0.95,1.02,1.28,1.94,1.41,3.27c1.14,12.1,1.69,10.1-2.65,11.03c-7.67,1.65-10.07,1.58-11.03,4.42
		c-0.82,2.4,1.86,1.82,4.17,1.27c4.09-0.97,4.16-0.24,4.52-0.6c0.79-0.79,1.8-0.56,2.71-0.56c0.1-0.1,1.35-1.07,2.6-1.37
		c2.09-0.5,1.77-0.05,2.2,0.73c-0.98,0.43-2.22,0.64-2.9,0.64c-8.34,0.52-9.24,6-2.76,4.88c10.63-1.83,10.03-3.97,13.06-1.58
		c-3.3,0.83-9.3,1.74-7.67,4.75c0.64,1.18,2.68,0.7,3.97,0.35c8.54-2.26,9.2-5.05,9.62-2.78c-0.36,0.44-4.28,1.97-5.43,3.05
		c-1.59,1.5-0.31,3.84,1.97,3.15c5.69-1.71,3.85-2.45,4.69-0.07c0,2.82,5.28,0.87,7.95-0.5c7.3,3.76,5.74,3.1,7.36,3.92
		c5.73,2.9,9.77-5.22,9.92,12.6C642.53,593.82,600.84,598.01,589.61,592.58z M624.08,570.6c0.93-1,0.93-1,1.95-0.1
		C625.33,570.54,624.78,570.56,624.08,570.6z M655,533.63c1.27,2.34,2,4.72,2.54,7.28c-2.18,1.23-9.72,4.95-8.51,7.22
		c1.21,2.26,8.42-3.01,9.94-2.91c3.12,3.95-0.68,2.5-4.65,7.36c-1.13,1.39,0.22,3.5,1.95,3.17c4.53-0.87,7.71-5.9,8.36-3.97
		c0.61,1.3-0.1,0.87-3.04,2.82c-1.33,0.88-2.3,2.64-1.3,3.89c1.98,2.46,7.36-4.5,8.63-1.56c0.85,1.97-6.09,1.46-4.45,4.43
		c1.41,2.18,4.78-1.15,7.36-1.15c-1.05,1.07-2.64,2.25-2.04,3.31c0.59,1.04,2.17,0.51,3.23-0.04c5.43-2.79-0.42-0.42,18.77,2.52
		c10.15,1.55,5.27-8.06,12.03,11c-4.51,4.26-15.3,3.71-18.11,4.63c-14.25,4.68-22.07,0.81-35.09,0.81
		c-1.01-2.72-1.96-5.31-2.95-7.98c-2.68-1.28-5.54,0.72-9.91-1.44c-13.59-6.7-10.69-4.7-13.18-7.79
		c-3.93-4.87-15.23-3.25-11.29-8.43c2.02-2.65,3.61-15.3,6.99-11.88c0,1.52,0,3.18,0,5c3.73,2.74,7.36,6.64,11.97,2.17
		c8.99-8.72,13.35-7.54,15.35-11.16C648.68,539.02,648.34,535.83,655,533.63z M668.68,411.69c1.11,1.13,1.42,2.68,1.52,10.53
		c0.06,4.72-6.36,15.17-5.98,30.18c0.35,13.68-7.73,35.07-11.91,61.44c-1.95,12.28-2.28,30.39-16.24,29.76
		c-1.45-0.07-8.67,2.44-10.94-1.21c2.47-8.17,1.66-15.34,2.79-30.19c0.86-11.39,1.64-21.59-0.63-28.61
		c-4.33-13.42-4.42-14.27-3.57-17.23c1.54-5.29,4.69-31.02,7.08-32.56c0.69-0.44,0.98,1.45,2.55,0.69
		c1.61-5.97-1.29-6.93-1.08-17.15c0.05-2.47,0.46-7.84,2.26-9.51c0.26,0,1.23-0.07,1.94-0.09c0.19,0,0.59,0.69,1.12,1.07
		c2.45,1.74,2.46-1.98,2.91-4.66c0.63-3.78-1.83-2.87,12.78-2.42c17.28,0.53,16.8-0.12,17.6,1.23
		C670.71,406.12,667.22,410.19,668.68,411.69z M679.13,398.71c-5.11,1.85-36.3,0.89-37.53,0.51c-0.26-10.26,0.62-20.33,0.98-30.42
		c0.27-7.56,6.09,23.21,4.99,12.48c-0.13-1.22-0.5-3.11-0.78-4.31c-6.87-29.52-1.79-27.57-4.82-30.37
		c-2.18,8.04-1.74,60.45-6.41,58.83c-4.35-1.5-0.55-0.31-35.93-2.99c-0.7-0.05-34.18-4.26-36.06-6.52
		c0.91-10.98,2.05-3.43,1.57-27.47c-0.12-6.06,1.67-5.46,0.09-14.48c-1.58-9-2.38-55.13,3.83-61.66
		c-11.15-21.96,8.6-38.21,10.06-37.81c20.55,5.64,23.75,7.01,28.21,6.18c31.09,31.73,13.38,6.27,28.37,68.47
		c0.1,0.43,0.22,0.99,1.14,0.85c0.72-9.69-6.76-40.45-6.76-46.4c3.63,2.4,6.79,5.79,8.81,8.95c8.38,13.1,5.28-2.96,6.81,33.04
		c0.5,11.86,3.74,4.89,1.07-22.59c2.53,1.12,3.86,4.37,3.67,5.18c-0.27,1.1-1.51,0.54-1.49,2.51c0.1,10.35-0.37,10.57,1.13,10.26
		c0.48-3.33,0.3-6.81,0.48-10.73c1.59,2.28,2.38,4.84,4.13,6.59c2.98,2.98,3.12-2.65,1.96,25.1c-0.13,3.11,1.91,4.87,2.15-16.14
		c0.02-1.85-0.28-3.62,0.08-5.81c0.71,0.28,4.97,2.51,5.03,3.26c0.46,5.24,13.71,14.58,14.85,20.04
		C678.78,343.35,679.13,398.61,679.13,398.71z M668.88,326.48c-1.19-1.95,0.37-2.44,3.49-0.26c6.43,4.49,4.76-5.14,7.68,12.9
		c0.28,1.72-0.35,0.78,0.95,2.14c1.57-1.49,0.83-2.73,0.17-12.2c3.71,2.82,2.62,0.23,4.95,18.13
		C684.13,345.54,671.98,331.58,668.88,326.48z M709.4,375.68c0-0.47-3.95-1.47-5.52-5.45c-0.65-1.66-2.98-3.35-7.13-9.17
		c-11.68-16.35-8.2-7.42-8.65-15.02c-0.09-1.52-0.2-0.78-0.94-7.4c4.51,4.3,9.78,7.25,12.29,19.5c0.6,2.93,1.36,7.09,3.13,6.92
		c0.94-1.65-1.7-10.05,1.06-5.51c2.87,4.72,2.7,3.7,3.57,7.03c2.68,10.36,2.23,8.96,2.33,9.06c1.54-0.49,1.34-0.35,1.3-0.81
		c-0.5-5.71-0.88-6.37-0.96-6.43c0.02-0.01,0.08-0.06,0.16-0.25c0.84,2.51,4.81,1.83,6.64,13.42
		C712.03,378.92,709.84,375.57,709.4,375.68z M713.24,367.42c-1.5-4.19-6.08-6.23-6.32-7.83c-0.52-3.38-6.75-5.64-7.99-11.85
		c-0.89-4.46-4.11-5.86-6.33-7.57c-5.91-4.55-1.99-6.69-7.97-11.44c-3.22-2.56-2.81-0.99-1.22-9.1c2.69-0.69,5.09-1.52,5.58-4.58
		c3.09,0,4.92-0.08,4.84-3.37c-0.14-5.57-3.96-2.21,3.26-6.65c5.46-3.36,4.79-7.04,5.7-7.89c2.01,1.23,2.4,2.74,2.4,4.92
		c-0.77,14.42,13.87,22.43,14.47,23.26c-1.74,22.13,1.88,17.11,1.44,30.41c-0.14,4.4,1.87,5.86,1.69,13.66
		c-0.15,6.58-0.38,5.45-2.99,5.21C717.83,370.29,713.79,368.97,713.24,367.42z M723.77,391.91c-0.62-0.79-0.96-1.64-0.96-2.67
		c0-4.04-3.71-2.4-4.97-5.53c2.84-1.02,2.23-0.1,1.37-3.61c-0.3-1.24-1.17-2.35-0.92-3.73c-1.11-0.55,1.25,0.31,2.51,1.12
		c2.08,1.34,1.63,8.71,4.21,8.08c0.67-1.34,0.51-0.93,0.43-1.63c-0.08-0.25-0.13-0.42-0.18-0.55c0.07,0.22,0.18,0.55,0.33,1
		c-0.06,0.19,2.48,0.77,2.69,0.81c2.48,0.43,3.72,4.2,2.15,6.12C725.41,393.28,725.32,393.89,723.77,391.91z M733.99,401.72
		c-2.07-1.77-3.71-2.57-3.18-5.09C731.62,392.77,738,398.35,733.99,401.72z M738.42,417.95c-0.13-0.04-0.26-0.07-0.38-0.11
		c0.16-2.68-0.51-3.73,3.09-4.27c2.52-0.38,2.61,0.42,2.97,1.59C740.67,414.86,740,414.47,738.42,417.95z M740.34,418.16
		c-0.28-1.58,2.03-2.54,4.7,2.02c2.55,5.1,7.08,11.09,7.36,16C747.39,431.87,741.49,424.69,740.34,418.16z"/>
	<path d="M267.86,293.67c-0.89-0.87-0.59-0.23-5.27-15.82c-1.4-4.67,0.23-11.6-5.67-11.17c-3.16,0.23-2.75,3.22-3.59-8.92
		c2.88-2.99,2.74-7.61-1.29-10.41c0.44-2.69,0.78-5.36-0.59-7.76c0.27-0.91,0.71-1.71,0.71-2.51c0-5.68,2.3-4.52,1.7-8.36
		c-1.14-7.28,2.37-5.09,1.08-10.6c-0.04-0.17-1.56-6.58-2.08-7.2c-0.4-0.48-1.36-0.59-1.36-0.31c-0.2,0.05,0.01-0.39-0.76,2.29
		c-0.13,0.09-4.86,3.49-4.99,3.49c-0.96-3.8-1.71-2.08,3.89-7.66c0.31-0.31-0.18,2.11,1.74,1.88c0.24,0,2.24-4.22,1.24-6.98
		c-0.57-1.58-0.66-0.54-0.55-2.8c0.32-6.26,0.59-13.91,6.38-15.88c4.24-1.44,2.08-5.5,3.66-8.05c0.56-0.91-0.89-4.04,0.15-7.52
		c0.33-1.1,0.06-2.39,0.06-3.67c-4.6-3.85,0.07-2.4-4.91-7.96c0-5.79,0.64-6.65-1.48-12.59c-2.19-6.14-12.01-6.7-17.04-2.7
		c-4.03,3.21-3.18,5.78-3.18,11.55c-3.3,2.35-1.81,5.18-6.22,8.99c-6.3,5.44,0.13,14.66-3.17,18.31c-5.62,6.21-5.44,6.03-6.33,3.91
		c-1.02-2.43-0.02-3.99-1.29-7.08c-5.66-13.75-5.66-9.65-8.01-13.58c4.15-5.77-0.65-4.54-0.43-11c0.08-2.33-1.02-4.2-2.43-6.07
		c-8.64,3.67-7.67,1.48-9.63,2.81c0.72,1.64,4.62,1.07,5.8,0.76c2.87-0.75,2.25-2.62,3.69,0.41c1.76,5.29-2.67,3.05-4.04,6.55
		c1.41,0.69,0.06,0.55,5.28,0.55c0.42,0.98,0.79,1.83,1.14,2.66c-1.43,2.14-3.84,1.69-5.82,2.74c-2,5.96-13.66,8.28-19.92,8.79
		c-2.43,0.2-2.05-2.22-5.1,0.89c-26.87,27.37-25.92,26.31-25.54,27.66c0.08,0.29-0.44,0.83-0.78,1.15
		c-26.16,24.68-26.43,16.66-44.92,28.27c-4.25,0.78-5.02-1.94-7.97-3.78c-6.66-4.15-7.05-15.54-8.7-19.04
		c-3.23-6.88-5.88-10.02-6.98-15.94c-4.17-22.44-3.68-15.44-0.55-37.45c0.33-2.35-1.49-7.11-1.22-10.83
		c1.38-18.89,9.78-22.19,12.92-31.03c3.9-2.46,8.05-4.8,11.04-8.57c14.15,2.11,27.44,6.85,39.81,30.05
		c4.97,9.31,1.33,21.64-4.12,30.78c-0.85,1.43-6.56,4.02-9.38,4.56c-2.57,0.49-0.03-2.17-3.04-14.33c4.62-4.82,4.66-9.4,5.01-11.95
		c0.03-0.14-0.29-0.33-0.61-0.66c-1.09,0.89-0.03-1.21-6.47,11.13c-1.55,2.97,1.64,7.13-0.4,15.48c-1.88,7.69,0.61,6.19-3.21,7.04
		c-11.43,2.53-22.5,10.85-9.37,6.32c2.81-0.97,7.06-4.64,17.96-3.62c3.61,0.34,2.65,1.66,7.05,0.2c3.32-1.1,12.85-6.38,19.97-12.54
		c2.37-2.04,3.44-1.4,11.55-5.27c5.51-2.63,10.15-17.82,13.88-21.06c1.67-1.45,5.03-1.6,6.94-1.48c8.18,0.53,10.07-2.96,11.34,0.44
		c1.55,4.13-3,0.17-8.44,3.33c-2.85,1.66,5.35,1.64,10.42,0.97c1.42,2.48,1.95,4.12,2.98,3.28c0.57-0.46,0.31-1.06,0.17-1.46
		c-1.98-5.61-0.54-4.3-1.58-6.86c-0.89-2.19-2.25-2.52-3.28-4.93c-2.21-5.18,0.76-14.5-12.81-11.92c-6.91,1.31-6.38,0.99-9.97,3.47
		c-6.27-2.02-12.41-12.07-12.53-12.43c-0.78-1.65,1.57-14.71,0.34-20.08c-1.64-7.18,8.39-4.84,16.92-7.26
		c1.03-3.22,2.04-4.77,0.97-7.22c-1.56-3.58,3-4,1.51-8.57c-0.61-1.87-1.32-1.57,0.36-2.47c1.63-0.87,1.14-1.94,0.69-5
		c5.41-3.77,4.66-2.77-1.83-18.53c5.94-3.78-0.72-11.39-0.27-18.98c13.59-3.57,8.78-2.21,11.49-6.07c-0.93-4.15,0.76-3.92,0.06-5.96
		c-1.12-3.27-4.35-0.84-7.08-0.84c3.9-4.48,1.58-0.76-1.49-5.48c-2.11,0.45-2.43,2.63-3.95,3.91c0-0.05-0.54-1.96-0.81-2.59
		c-1.03-2.38-2.9-0.15-3.58-1.83c-0.39-0.78-7.21-0.6-8.35-0.6c0.1-0.5,2.28-4.23-1.53-3.09c-4.94,1.48-6.6,2.7-10.81,1.27
		c-7.55-2.57-10.65,2.64-10.16-2.45c-0.48,0-1.02-0.17-1.34,0.03c-8.46,5.42-6.95-0.54-15.3,6.49c-5.02-3.26-2.25,1.93-5.18,0.83
		c-1.26-0.47-1.23,0.56-2.02,1.03c-1.96,1.17-0.94-0.33-3.94,2.57c1.76,1.46,2.94,2.11,2.03,2.98c-0.1,0.1-3.24,2.13-3.06,4.19
		c0.24,2.67-3.92,9.42-2.18,21.88c0.47,3.33-1.14,8.39,0.42,13.74c0.28,0.97,0.31,4.15,1.03,5.68c1.58,3.36,1.78,6.99,1.69,10.7
		c-0.11,4.72,3.36,6.25,0.68,18.21c-0.34,1.51-3.15,2.73-2.24,2.88c3.05,0.49,4.59-2.42,6.57-3.77c1.06-4.98,0.62-9.85,0.65-14.57
		c4.34-6.45-1.23-1.06,3.89-12.98c0.06-1.32-0.99-2.23-0.69-4.04c3.35,4.96,1.14,3.38,9.33,8.41c2.14,1.31,4.79-0.4,3.66-2.66
		c-0.84,0.44-1.57,0.8-2.48,1.27c-16.34-10.58-11.2-13.86-6.09-20.57c1.07,0.81,2.51,0.82,3.14,2.12c0.1,0-0.83-0.26,4.72,1.6
		c0.11,0,0.71,2,1.84,4.5c3.48,7.66,2.36,2.33,3.84,2c0.76-0.1,5.06,2.78,2.6-0.23c-6.88-8.45,16.11-22.72,17.51-26.18
		c0.82-2.03,4.53,1.29,7.92-1.73c-0.01,0-0.16-0.14-1.77-1.23c7.05-1.95,5.77-1.1,8.2,0.12c0.45,0.23,1.09,0.34,0.99,0.34
		c0,4.45,1.17,9.03,2.19,11.36c2.4,5.5-3.54,4.91-1.51,10.09c1.52,3.86,7.95,13.48,3.36,13.76c-5.1,0.31-4.88-0.39-6.03-1.15
		c-0.15-0.1-0.63,0.81-0.67,0.99c-0.2,0.99,0.3,1.4,1.07,2.1c1.01,0.91,2.29-0.01,3.37,0.3c0.1,0,1.83,4.46-1.91,5.43
		c-2.82,0.73-4.53,0.69-4.19,2.48c1.7,1.37,2.73-1.17,4.19-0.81c1.59,1.16,1.57,2.58,0.56,3.87c-4.7,5.98,8.47,12.58-15.17,12.58
		c-0.93-1.49-2.54-1.66-4.13-2.08c0.76,1.85,4.48,1.24,2.34,3.35c-2.66,2.62-2.25,4.32-2.21,9.54c0.19,24.67-1.17,15.69,7.5,26.39
		c3.43,4.24,6.98,11.43,9.01,16.54c-2.44,3.09-1.47,1.71-3.21,4.57c-3.45,5.65-1.43-1.62-5.6-3.42c-1.34,4.24,1.37,3.23,1.7,10.02
		c-12.8-5.93-17.9-21.75-28.56-32.91c-1.79-1.87-1.55-1.29-0.05-3.19c-6.37,0-3.55-2.96-28.88-16.97c-3.19-1.77,0.65-1.77,1.24-4.4
		c0.02,0.06,0.17-0.08,0-0.08l0.01,0.01c-0.01,0.02-0.01,0.04-0.02,0.06c0,0,0,0,0,0c-1.23,0.02-10.44,4.66-16.21,10.68
		c-7.14,7.46-8.37,5.19-12.3,11.5c-8.1,13.02-14.63,22.06-10.39,36.3c1,3.35-1.99,15.54-1.97,25.03c0.02,12.38,6.47,25.38,9.98,33.7
		c2.17,5.16,3.83,15.11,5.56,16.01c2.4,1.24,4.11,3.4,5.95,5.31c1.98,2.05,2.57,1.74,8.54,2.75c2.16,3.17,1.56,7.17,2.89,10.86
		c-1.27,0.96-2.2,2.15-2.34,3.82c-0.58,6.81-4.38,4.74-11.56,18.13c-1.87,3.49-2.68,2.01-2.94,5.97c-0.66,9.93,0.42,12.78,1.8,18.04
		c-6.84,36.12-2.45,42.04-3.41,89.06c-0.28,13.68-6.03,19.53,7.23,22.51c8.33,1.88,17.68,1.37,18.28,1.29
		c1.04,3.96,0.56,8.48,2.44,12.45c-0.84,4.78-12.66,26.96-12.75,27.06c-14.21,15.28-5.51,52.42-6.53,66.1
		c-2.94,39.39,4.1,39.76-3.82,39.36c-8.88-0.45-3.05,16.34-7.69,21.15c-1.54,1.6-0.53,3.21-3.1,7.27c-3.6,5.71-6.16,9.15-3.71,11.6
		c3.83,3.21,2.23,0.29,5.86,3.08c5.15,3.95,13.72,4.64,19.24,3.21c10.53-2.73,9.39,4.49,30.77,4.86c11.37,0.2,14.01,0.09,19.64-0.92
		c0.96-0.17,1.27-0.99,1.55-1.82c19.72-1.99,13.05-0.56,19.71-5.02c2.28-1.53,1.83-3.11,1.6-5.7c7.16-1.1,13.8,3.1,26.45,0.39
		c14.98-3.2,19.77,0.61,27.91-7.31c1.52-1.48,2.8-1.25,1.68-4.12c-7.13-18.31-4.21-11.78-13.09-12.86
		c-3.67-0.45-17.97-1.9-21.33-5.78c-9.62-11.13-10.07-10.98-11.06-13.92c-4.26-12.59-3.01-11.55-8.49-11.92
		c0-3.72,3.13-25.11,3.78-28.63c3.21-17.43,5.29-7.33,8.02-30.49c0.84-7.13,1.84-5.91,2.03-11.44c0.5-15.08-0.27-15.54,0.93-19.25
		c4.92-15.23,5.8-17.52,5.3-21.47c-1.58-12.46-1.36-10.37,0.36-16.65c11.18-1.96,8.98,8.69,7.78-35.66
		c-0.09-3.2,1.49-1.79,1.28-5.56c-1.9-33.32-1.56-54.07-2.58-57.12c-4.27-12.76-2.78-18.51-5.63-23.65
		c-2.2-3.97-3.29-10.42-6.85-13.57c-0.85-0.75-2.18-6.93-2.12-9.11c0.38-13.72-3.64-15.69,1.5-16.88
		c4.1-0.95,15.54-7.16,25.09-19.89c0.53,0.98,11.96,20.27,15.21,20.27c0-2.95-2.46-2.1-2.7-5.01c0.74-0.08,1.41-0.15,2.13-0.22
		c0.66-2.41-0.8-4.76,0.09-7.19c3.56,3.96,2.06-0.01,3.34,6.56c0.26,1.33,0.09,2.89,1.8,3.81c0.01,0,0.78-2.17,0.78-2.19
		c0.27,1.33,1.15,1.44,2.07,1.8c4.01,1.22,3.3,6.76,1.05,6.77c-2,0.01-3.36,1.36-3.51,1.36c-5.03-3.03-1.61-5.41-3.29-6.62
		c-2.03,1.1-1.75,0.88-1.79,1.1c-0.47,0.16-0.53,6.41,4.13,7.92c1.1,0.36,2.1,0.78,2.2,0.78c-0.28,2.97,0.74,5.45,3.47,6.69
		c0,0.1-0.43-1.13,4.05,10.19c-3.35,4.51-1.95,9.14,0.48,11.89c3.56,4.03,5.54,9.15,9.03,13.23c0.5,0.59,51.94,131.29,53.51,132.56
		c10.83,8.77-21.06-56.05-46.87-125.54C268.86,297.93,269.8,295.57,267.86,293.67z M123.4,38.05c0.06-0.13,0.43-0.22,0.57-0.16
		C125.34,38.48,121.71,41.5,123.4,38.05z M124.16,59.46l0.23,0.05C124.12,59.63,124.18,59.65,124.16,59.46z M125.32,49.91
		c-0.16-1.67-0.4-1.19,0.55-2.1C126.35,48.81,126.59,48.26,125.32,49.91z M125.46,34.77c-0.48-1.65-0.49-1.66,1.31-2.46
		C127.26,33.74,127.31,33.78,125.46,34.77z M126.62,19.72c0.57-0.35,1.06-0.92,1.06-0.03C127.44,20.47,127.02,19.97,126.62,19.72z
		 M139.16,6.12c0.22-0.05,1.28-0.28,1.38-0.12c0.34,0.56-0.46,0.57-1.3,0.73C139.21,6.51,139.14,6.13,139.16,6.12z M134.67,11.14
		c0.59,0.7,0.7,1.23,0.1,1.63c-0.11,0.11-0.54-0.15-0.83-0.24C134.45,11.57,134.22,11.99,134.67,11.14z M129.92,53.14
		c-0.82-0.84-0.97-0.86-0.19-1.63C130.14,51.92,130.01,52.34,129.92,53.14z M130.38,44.78c0.03,0.04,0.08,0.07,0.12,0.09
		C130.82,45.11,129.93,45.37,130.38,44.78z M130.79,18.6c0.32-0.58,0.6-1.06,0.88-1.55C131.95,18.57,131.95,18.57,130.79,18.6z
		 M132.52,38.3c-0.51-0.54-0.44-1.02,0.07-1.49C133.31,37.43,133.22,37.9,132.52,38.3z M134.49,32.22c-0.5,0-0.27-0.38-1.76-1.46
		c-0.1-0.07,0.18-0.68,0.46-0.47c0.08,0,0.68,1.84,1.32,1.84c-0.05,0.1,2.21-0.18,1.67,0.87C135.7,33.92,134.41,33.25,134.49,32.22z
		 M135.95,41.39c0.94-0.45,2.75-1.37,2.76,0.11C138.73,42.85,137.26,41.91,135.95,41.39z M141.58,18.7
		c-3.84-1.36-3.75-0.74-2.13-3.79c1.06,0.68,1.27,1.66,2.1,2.46C141.76,17.57,141.58,18.16,141.58,18.7z M142.88,45.11
		c0.16-0.2,0.25-0.61,1.04,0.26C144.02,45.47,144.16,46.69,142.88,45.11z M147.17,34.66c-0.37-0.56-0.27-0.47-0.12-0.61
		c0.6-0.58,0.55-0.35,1.07-0.1C147.15,34.99,147.33,34.93,147.17,34.66z M148.27,39.09c0.01,0.06-0.19,0.21-0.23,0.25
		C147.29,37.77,148.66,39.09,148.27,39.09z M146.58,21.04c-1.12-1.6,0.07-2.23,0.88-3.45C149.29,20.46,149.65,19.71,146.58,21.04z
		 M165.82,19.66c0.1,0-0.32-0.3,1.86,2.01c-2.71,0-0.64-1.75-2.31-2.09C165.71,19.14,165.61,19.15,165.82,19.66z M151.67,32.64
		c-0.24-0.24-0.39,0.02,0.33-1.28C152.85,32.16,152.81,31.8,151.67,32.64z M155.99,36.75c-0.22-0.98,0.47-1.13,1.66-1.49
		C157.11,36.3,156.83,36.87,155.99,36.75z M157.8,18.15c0.58-0.17,0.3-0.34,3.3,1.9c0.29,0.25,0.46-0.02-0.9,1.09
		C156.1,17.99,156.24,18.6,157.8,18.15z M163.81,29.18c-0.89,1.41-2.09,1.82-3.87,2.64c1.7-3.51,4.19-3.03,4.38-3.4
		C164.8,28.42,164.43,28.2,163.81,29.18z M168.31,23.7c-0.77,1.08-1.72,2.04-3.86,2.34C165.95,24.83,169.43,22.13,168.31,23.7z
		 M168.08,7.6c0.89-0.99,0.3-0.98,1.91-0.44C169.05,8.64,169.52,8.39,168.08,7.6z M189.41,8.83c0.34,0.31,0.59,0.43,0.63,0.59
		C190.18,10.06,187.97,11.83,189.41,8.83z M176.19,10.35c0.44,0.29,0.22,0.27-0.11,0.41C175.34,11.07,175.83,10.09,176.19,10.35z
		 M173.77,23.22c-0.24-0.16,0.14-0.25,0.24-0.28C174.03,23.17,174.12,23.4,173.77,23.22z M172.3,20.89c1.8-0.64,3.55-1.64,5.51-0.38
		C175.98,21.15,174.16,21.56,172.3,20.89z M181.15,9.54c1.3,2.52,0.72,2.18,2.78,1.94c0.2,2,0.18,2.01-1.78,2.53
		C179.84,8.52,174.87,9.54,181.15,9.54z M183.76,22.21c3.53-1.46,9.04-2.43,12.11-5.5c0-0.28,0.05-0.21,0.28-0.26
		c0.1,0-0.04,0.04-0.29,0.27c0,1.27-0.54,2.07-1.43,2.66C194.11,19.6,184.51,24.53,183.76,22.21z M183.44,128.45
		c0.25-2.97-0.16-2.59,10.24-4.36c2.35-0.4,5.27,0.5,6.21,2.71c3.89,9.14,0.69,9.06-14.74,9.81
		C183.78,134.29,183.16,131.7,183.44,128.45z M110.1,101.23c1.93-1.67,3.62-2.68,5.65-3.87c8.99,6.57,18.47,10.06,26.87,18.45
		c16.88,16.86,14.93,24.13,31.37,37.28c-8.19,12.45-9,6.37-17.44,12.98c-2.9,2.27-17.17,12.41-20.8,11.41
		c-0.1,0-2.01-0.54-6.64-1.79c-0.18-4.35,6.84-1.61,14.62-8.54c2.25-2.01,1.12-2.52,2.63-5.13c14.78-22.14-11.61-53.39-24.79-56.91
		C107.58,101.39,109.14,102.06,110.1,101.23z M250.49,207.04c-2.44,0.42-2.44,0.42-5.19,2.83c0.36-3.85,1.43-6.14,4.64-9.74
		C249.68,202.6,251.3,204.7,250.49,207.04z M250.29,196.05c-0.3,3.84-1.09,1.4-3.81,4.16c-1.73,1.76-2.26-2.01-0.42-4.22
		c4.01-4.81,3.04-4.9,2.91-6.03c-2.85,1.81-3.53,2.89-3.8,0.71c-0.08-0.45,1.28-3.13,1.59-3.64c3.18-5.11,3.36-4.02,2.73-4.83
		c-5.76,2.74-2.2,4.68-3.77-3.01c2.42,1.5,5.07,1.67,6.98,3.19C251.09,195.96,251.04,186.33,250.29,196.05z M258.09,165.15
		c3.06,0.94,2.34,2.38,1.88,5.12c-9.34-2.72-8.66-6.49-19.51-1.26c-0.36-0.84-1.67-2.51,0.82-3.57
		C250.14,161.69,247.05,161.75,258.09,165.15z M256.04,159.46c0.59,0.69,0.56,0.15-0.06,2.69c-8.27-2.77-6.93-3.14-13.59,0.7
		c-2.13-1.8,3.5-2.17,4.85-6.5C251.07,154.78,253.42,156.41,256.04,159.46z M247.26,142.28c4.57,0.39,6.35,3.94,7.04,8.4
		c1.15,7.45-2.37,2.26-7.88,3.64c-1.39-1.05-1.15-2.24-2.38-2.26c-3.7-0.04-6.71,4.98-6.62-0.94
		C237.51,144.86,240.18,141.67,247.26,142.28z M213.58,174.78c3.24,3.24,2.23,3.99,1.84,6.05c-2.47,13.3,0.41,17.19-5.17,5.19
		c0.26,0.32,0.69,0.16,1.36-0.73C212.09,184.81,212.5,181.47,213.58,174.78z M212.57,195.55c-0.97,1.28-2.47,1.17-3.93,1.61
		c-0.32-2.29-0.23-4.42-0.06-6.69C210.64,191.41,210.74,191.54,212.57,195.55z M206.96,165.71c0.41,2.22-1.03,6.8,0.81,9.23
		c1.86-4.82,0.49-11.04,5.29-2.37c-1.85,0.92-1.89,0.25-2.47,4.7c-0.36,2.75-0.93,6.89-0.51,8.36c-0.12-0.26-0.24-0.51-0.36-0.78
		c0.06-0.25-0.34-0.37-0.8-1.09c-2.26-3.57-3.55-7.7-6.33-11c-0.51-0.6-0.64-1.52-0.95-2.31
		C206.77,166.05,205.33,166.02,206.96,165.71z M199.04,171.4c4.91,6.69,5.01,6.76,5.32,7.41c0.06,0.1,1.89,9.71,0.81,20.63
		c-14.63,6.64-10.78,7.81-13.52,9.11c-1.51-5.62-0.59-3.83-2.53-12.11c-1.27-5.39-1.06-4.3,0.74-6.9c1.91-2.75,2.3-3.42,3.31-3.99
		c3.44-1.93,4.49-8.08,4.38-11.79C197.48,171.66,197.62,172.02,199.04,171.4z M113.86,231.7c9.38-3.78,8.35-6.31,14.63-7.89
		c11.1-2.79,22.77-14.79,28.82-24.05c0.12-0.18,24.3-24.53,26.66-24.46c6.47,0.2,9.88-2.04,10.73-1.46c1.06,0.73-1.4,5.93-2.08,7.02
		c-10.92,17.5-5.54,7.06-4.78,26.4c0.11,2.72,1.44,4.19,0.22,8.62c-4.2,15.27,8.29,26.25,4.18,46.6c0.26,1.29,2.8,3.19-0.27,3.55
		c-0.6-1.16-0.99-2.24-0.79-3.51c1.22-7.71-4.29,2.7-36.53-7.98c-9.94-3.29-11.47-1.68-15.78-4.16c-2.45-1.41-5.11-2.31-7.98-2.23
		c-2.16,0.06-2.06-0.99-6.4-1.02c-14.7-0.12-7.51,0.39-11.7-12.03C111.83,232.26,110.91,232.89,113.86,231.7z M189.57,266.08
		c-1.75,0.14-1.97,0.36-1.54-3.25c0.03-0.11,0.17-0.19,0.27-0.24C189.6,261.84,189.14,261.69,189.57,266.08z M186.63,265.97
		c0,0.07-0.37,0.34-0.43,0.38c-2.4-0.25-2.01,0.53-1.71-3.86C186.33,262.71,185.95,262.04,186.63,265.97z M182.45,265.97
		c-3.14,0-2.49,0.68-2.49-3.38C183.14,262.43,182.45,261.8,182.45,265.97z M177.46,266.24c-0.77-1.28-0.66-2.22-0.5-3.14
		c0.04-0.21,0.46-0.37,0.75-0.61C178.22,263.68,178.27,264.71,177.46,266.24z M173.15,265.95c-0.58-1.08-0.61-2.07-0.25-3.2
		c0.2-0.64-0.12-0.55,2.5-0.03C175.13,264.77,176.43,266.19,173.15,265.95z M170.12,265.87c-1.75-0.01-1.37-3.06-1.21-3.82
		c0.21-0.95,0.03-0.81,1.99-0.33C170.9,266.35,171.22,265.88,170.12,265.87z M167.34,260.53c-0.18,1.89,0.1,3.06-0.73,5.11
		C165.76,262.52,165.77,262.44,167.34,260.53z M164.67,260.32c-0.53,4.91,0.04,4.14-2.16,3.95
		C162.54,259.25,163.3,260.04,164.67,260.32z M160.53,263.67c-2.48-0.3-4.76-0.75-7.22-1.68c0.91-4.38-1.79-6.14,7.27-2.82
		C160.88,260.6,160.91,261.96,160.53,263.67z M130.15,255.8c1.31-1.18,0.08-3.03,0.99-4.28c3.89,0,0.02,8.12,3.02,5.11
		c0.45-0.45,0.67-2.18,1.34-2.93c0.66,2.42,0.21,2.34,1.84,0.84c-0.23,1.59-1.05,8.67,2.34-0.68c3.91,0.59,7.71,0.98,11.42,2.3
		c0.06,1.87,0.44,3.62-0.17,5.37c-22.32-3.66-16.3-1.62-19.23-6.3c-0.23,1.23-0.41,2.13-0.61,3.16c-4.66-0.21-7.09-0.57-3.35-7.86
		C132.5,252.35,127.94,251.5,130.15,255.8z M125.55,250.58c-0.56,2.08-1.12,4.16-1.7,6.27c-2.98-0.4-8.72-2-11.73-3.63
		c2.04-3.09,1.57-6.1,2.23-0.74c0.81,0.43,1.02-0.16,1.42-0.33c0.22-0.1,0.7,0.36,1.21,0.67c1.6-2.31,1.1-2.66,1.71,2.03
		C121.06,253.25,117.95,247.76,125.55,250.58z M120.95,425.38c4.05-7.64,0.28-19.17,1.41-22.05c54.6,8.31,37.49-2.9,38.87,14.69
		c0.77,9.77-14.13,24.47-15.64,30.27c2.8,0.57,2.24-0.83,0.48,7.53c-0.03,0.12-20.5,51.81-18.95,83.14c0.11,2.21-11.15,1.8-7,9.74
		c-0.39,0.9-6.86,5.49-7.65,6.07c-1.75-0.76-3.76-0.42-5.46-1.3c-1.34-0.69-1.19-0.83-1.1-4.52c0.38-16.64-1.51-16.24-1.26-32.8
		C105.54,458.38,91.36,481.23,120.95,425.38z M151.87,470.79c4.04,15.38,5.83,16.96,5.21,24.37c-1.27,15.13,0.26,32.09-2.96,46.16
		c-0.66,2.88-1.02,0.79-5.97,0.27c-2.27,4.32-3.66,5.68-4.34,9.73c-0.36,2.1-1,3.7-2.87,4.22c-3.42-8.04,4.82-13.21-10.06-16.53
		c-4.45-8.6,10.61-65.86,13.97-73.08c6.2-13.35,5.14-20.48,6.66-22.62c6.37-8.92,5.56-5.6,4.84-5.6
		C156.26,439.86,150.32,464.9,151.87,470.79z M154.73,546.14c3.91,2.45,3.91,2.45,7.73,3.04c-2.25,3.11-3.45,3.06-5.76,1.51
		C153.36,548.45,154.27,547.72,154.73,546.14z M104.23,561.31c-3.9-0.8-1.98-3.56-1.46-4.85c2.6-1.18,4.54,0.78,6.85,0.46
		C113.61,556.35,104.42,561.19,104.23,561.31z M173.03,591.91c-19.88,3.18-21.05,3.51-23.8,3.55c-6.31,0.11-22.74,0.44-28.43-2.55
		c-6.49-3.42-23.27,3.18-27.93-2.69c-0.66-0.83-5.11-1.57-6.81-3.97c0.79-9.76,5.48-3.38,5.62-11.62c0.09-5.13,3.61-3.58,3.42-7.67
		c-0.42-9.46-1-18.79,7.18-15.22c-3.31,2.66-2.78,4.19-3.69,5.89c-1.42,2.66-0.84,3.45,2.25,5.86c5.21,4.08,9.05-3.83,15.97-4.82
		c0.46-0.06,0.82-0.76,1.18-1.11c-0.4-0.8-0.7-1.41-1.04-2.1c4.85-3.39,5.72-3.57,6.28-5.98c0.39-1.66,0.46-3.31-0.54-4.82
		c4-2.37,7.6-3.08,11.11-2.14c3.21,0.87,3.07,1.16,3.44,7.27c0.44,7.21,1.68,6.35-0.87,6.9c-12.08,2.59-13.59,2.55-12.63,6.72
		c18.03-3.19,14.74-4.81,15.82-2.53c-3.97,1.45-6.21,0.78-6.69,0.94c-0.14,0.02-4.24,2.07-2.68,4.45
		c10.75,0.82,13.2-4.31,16.28-1.69c-0.87,1.39-8.58,1.43-7.47,4.9c0.94,2.95,10.66-1.64,12.29-2.79c0.68-0.47,0.59-0.31,2.01,0.51
		c-3.27,1.53-7.36,2.69-6.36,5.29c0.97,2.52,4.86-0.21,5.77-0.36c0.22-0.05,0.74,0,0.72-0.03c1.42-1.54,1.73-0.92,2.48-1.92
		c0-0.13,0.5-0.19,0.73,0.04c0.86,0.54,0.78,0.43-0.92,0.43c-0.05,0.11-1.17,0.64-1.45,0.78c-0.85,0.79-0.71,0.75-0.81,0.75
		c1.95,4.3,4.19,2.63,8.8,0.68c12.15,6.69,7.06,4.15,15.03,4.63c2.21,3.7,1.25,7.8,2.35,11.41
		C177.47,590.75,175.86,591.45,173.03,591.91z M186.6,534.25c2.03,5.87,2.22,6.04,2.02,7.13c-4.7,2.65-7.63,3.63-8.55,7.44
		c4.11,0.45,6.83-2.12,10.13-3.63c1.81,4.01,1.97,2.32-2.39,5.64c-4.66,3.55-2.05,5.21-0.48,5.27c2.1,0.08,3.62-1.36,7.92-4.52
		c1.54,1.7,1.54,1.12-0.63,2.31c-5.61,3.08-3.13,6.23-1.14,5.43c6.52-2.63,4.48-4.86,7.2-1.25c-3.18,1.09-5.2,1.3-5.06,3.35
		c0.05,0.81,1.11,1.58,3.03,0.68c4.05-1.91,2.29-1.54,4.49-1.43c-1.61,1.49-2.24,1.88-2.25,2.6c-0.02,0.94,1.12,1.41,1.61,1.28
		c3.26-0.89,3.06-2.99,6.68-1.42c2.88,1.25,5.04,1.76,12.38,2.95c7.21,1.17,5.6-0.63,9.31-0.63c4.93,13.26,5.69,12.53-1.28,14.63
		c-6.58,1.98-11.01,0.88-14.32,2.41c-2.26,1.05-13.24,2-17.33,1.83c-6.33-0.27-9.09-2.17-15.97-1.46c-2.96-8.15-2.43-8.54-4.77-8.52
		c-5.23,0.04-5.87,0.15-7.87-0.83c-10.81-5.29-11.76-5.35-12.72-6.91c-4.42-7.19-15.73-2.69-11.5-10.26
		c1.39-2.49,3.17-14.36,6.36-11.35c0,5.62-0.64,4.65,2.45,7.11c8.98,7.15,10.63-3.66,17.01-5.64
		C182.48,542.89,177.62,535.32,186.6,534.25z M200.98,414.86c0.62,7.97,0.85,8.42-0.02,10.83c-9.34,25.77-2.07,18.25-8.13,46.04
		c-16.59,76-8.98,68.31-27.64,72.54c-3.26,0.74-6.23,1.21-8.73-1.31c2.92-13.57,1.84-17.92,2.42-25.85
		c1-13.81,2.27-25.01-0.15-32.63c-4.93-15.52-4.4-15.21-3.89-17.19c2.66-10.34,4.91-31.93,7.32-32.97c0.75-0.5,0.63,1.47,2.86,0.48
		c0.42,0-5.39-34.02,4.47-25.14c2.06-0.23,1.84-1.23,2.57-7.93c43.48,1.87,27.83-1.89,27.44,9.85
		C200.86,413.41,200.87,413.41,200.98,414.86z M197.48,270.08c15.4,15.38,13.21,125.22,12.75,129.16
		c-6.52,1.33-30.71,1.45-37.25,0.22c-0.38-3.65,0.41-25.55,1.17-32.15c2.08,2.56,2.5,13.22,4.89,15.93
		c-0.32-3.8,0.38,0.36-1.84-9.61c-4.35-19.52-1.96-28.06-4.04-25.98c-1.36,1.36-2.46,53.35-5.08,57.72
		c-0.92,1.53,0.88-0.66-11.49-0.65c-17.15,0.02-52.67-6.27-57.9-6.57c-1.36-0.08-2.62-0.58-3.89-1.93
		c4.3-31.79,0.42-41.62,0.64-63.54c0.52-52.72,7.02-34.59,3.95-41.97c-3.83-9.2-2.88-18.35-2.03-19.6c0.03-0.04,0.82-0.82,1.28-1.45
		c0.07-0.1,7.84-15.91,12.7-14.54c24.9,6.97,14.52,4.22,26.19,6.21c17.05,2.91,30.74,7.21,35.7,7.37
		C192.92,269.36,194.21,268.21,197.48,270.08z M194.01,239.05c-1.9-5.64-2.19-8.97-3.74-12.55c-0.96-2.23-0.84-4.86,0.14-6.75
		c1.17-2.26,1.06-4.2,1.45-9.4c4.18-1.2,3.03-3.51,8.62-5.99c18.58-8.22,11.72-7.08,17.33,3.75c1.61,3.11,2.87,6.4,4.32,9.74
		C213.18,233.99,194.89,241.65,194.01,239.05z M214.83,196.27c2.15-3.04,0.88-6.88,2.36-10.42c3.81,6.17,3.41,5.33,3.57,6.35
		c-0.01-0.02-0.03-0.03-0.1-0.05c0,0.19,0.03,0.04,0.12,0.14c-0.02-0.05-0.01-0.07-0.02-0.09c4.53,0.01,2.19,19.26,4.37,23.05
		c1.59-2.25,0.89-4.58,1.58-6.93c5.03,7.08,0.85,14.28,4.1,19.1c1.07-9.18,0.18-8.99,2.99-4.03c1.09,1.93,0.82,0.74,1.27,10.71
		C229.76,232.71,219.27,206.27,214.83,196.27z M242.96,234.13c-0.52,2.32,0.02-1.88-0.42-2.42
		C242.5,231.35,243.33,232.5,242.96,234.13z M243.13,218.72c-0.32,3.45-0.84,6.58-1.27,9.85c-3.7-0.21-1.07-1.42-5.62-6.64
		c-2.15-2.47-0.28-3.05-3.33-7.57c-1.52-2.25-2.97-3.97-1.37-5.81c3.59-4.12,5.77-9.05,8.95-15c2.5,0.44,2.64,0.1,2.41,1.75
		c-1.18,8.47,1.63,7.89,0.21,11.88C241.55,211.6,243.37,216.16,243.13,218.72z M242.37,191.54c-1.82,0.64-0.94,0.45-3.73,0.95
		c-3.35,4.88-4.97,6.89-5.65,9.4c-0.5,1.85-2.85,5.23-3.44,4.54c-5.57-6.51-1.23-8.21-6.08-16.73c2.3-5.33,6.49-5.83,5.94-10.65
		c-0.77-6.65-1.96-10.71,1.62-14.17c4.98-4.82,3.53-5.59,5.61-8.04c6.17-1.6,5.19-1.86,6.65-1.87c0.91,2.3,1.76,0.91-5.91,6.86
		c1.93,0.85,1.95,0.86,2.59,1.82c-0.24,0.34-3.07,3.53-2.23,5.33c1.19,2.54-0.22,4.48,1.36,4.97c1.55,0.48-0.43-2.27,1.79-4.04
		c2.42,1.36,8.21-4.33,7.23,0.99c-13.62,2.32-8.14,5.64-4.4,8.37C244.04,182.87,243.72,185.85,242.37,191.54z M245.95,173.38
		c3.74-0.6,8.88,3.84,11.56,2.42c-2.36-2.07-5.19-2.65-7.66-4.18c0.16-1.08,0.32-2.11,0.53-3.4c11.79,4.05,9.11,5.5,8.39,8.91
		c-1.23,5.77,1.73,3.28-3.5,6.62c-0.8-3.22,0.1-2.34-4.32-4.33c-4.96-2.23-4.71-2.67-6.63-2.74
		C243.39,176.64,239.28,174.46,245.95,173.38z M246.43,236.95c-0.01-0.1-0.33-3.89-0.33-3.99c-0.26-4.05,2.65-2.16-1.55-5.27
		c1.01-6.4,0.3-7.56,6.29-12.85c0.96,1.58,1.37,2.63,1.32,4.01c-0.2,5.49-3.73,1.92-6.4,6.62c3.03,2.06,4.97-4.59,5.36,2.61
		c0.17,3.17-0.72,2.53-1.38,6.51C249.2,237.88,249.75,237.28,246.43,236.95z M250.8,255.88c-0.94,1.44-4.69-2.49-3.12-5.12
		C249.1,248.36,253.24,252.11,250.8,255.88z M252.41,273.54c-1.1-5.3,4.97-5.09,5.7-3.78c0.12,0.12,0.56,1.39,0.45,1.38
		c-0.03-0.13-2.85-0.91-3.88-0.43C253.39,271.31,252.48,273.43,252.41,273.54z M264.2,292.18c-2.15-0.56-12.05-16.31-9.37-19.32
		C257.68,269.65,265.17,289.81,264.2,292.18z"/>
	<path d="M177.95,25.16L177.95,25.16C177.95,25.16,177.95,25.16,177.95,25.16z"/>
	<path d="M177.95,25.16c0.01-0.01,0.01-0.01,0.02-0.02C177.94,25.15,177.95,25.16,177.95,25.16z"/>
	<path d="M104.16,219.18c6.34,0.57,7.1-3.33,14.71-4.72c2.04-0.37,2.6-1.59,6.82-2.48c0.67-0.14,1.28-0.61,1.91-0.92
		c-0.1-2.15-3.61-0.22-8.02,1.61c-6.9,2.86-4.59,0.48-7.35,2.59c-4,3.07-6.45,1.43-9.38,1.68
		C101.45,217.06,100.83,218.88,104.16,219.18z"/>
	<path d="M95.6,212.96c3.2,1.69,6.6,1.1,8.02-0.03c1.23-0.98,0.94-0.17-2.65-1.12c-2.65-0.7-3.35-1.23-4.71-1.32
		C94.89,210.4,94.23,212.24,95.6,212.96z"/>
	<path d="M88.58,146.61c-0.23-2.5-0.86-8.74-0.89-8.92c-0.52,0.19-0.99,0.24-1.04,0.42C84.6,145.29,88.58,148.78,88.58,146.61z"/>
	<path d="M122.64,148c-0.39-0.16-0.89-0.49-1.03-0.39C110.34,155.5,120.49,153.13,122.64,148z"/>
	<path d="M102.82,111.82c-1.18-0.03-1.68,0.73-1.71,1.91c2.36,0.37,4.51,0.29,7.04-0.38C106.41,111.2,104.52,111.87,102.82,111.82z"
		/>
	<path d="M137.91,148.81c-2,0.64-3.54,1.5-4.89,4.5C132.6,154.57,137.46,153.18,137.91,148.81z"/>
	<path d="M84.18,181.21c0.54-2.83,0.17-4.8-0.26-6.96C81.48,175.53,82.75,178.85,84.18,181.21z"/>
	<path d="M86.1,185.93c0.5,0.27,0.43,0.28,0.58-0.48c0.03-0.14,0.15-0.75,0.15-1.28C86.83,177.82,82.69,184.08,86.1,185.93z"/>
	<path d="M104.66,187.85c0,0.11,2.73-0.55,3.88-2.97C109.34,183.2,104.97,185.57,104.66,187.85z"/>
	<path d="M108.81,184.2C109.04,184.2,108.89,183.97,108.81,184.2L108.81,184.2z"/>
	<path d="M110.23,207.62c0.77,0.27,0.97,0.46,1.38,0.47C117.5,208.21,112.53,204.58,110.23,207.62z"/>
	<path d="M187.31,149.03c0.29,2.2,3.04-0.11,3.68-2c0.08-0.23-0.19-0.58-0.49-1.39C189.13,147.1,188.16,148.13,187.31,149.03z"/>
	<path d="M108.05,209.18c-1.83-0.48-3.31,1.12-2.16,1.62C107.95,211.68,109.97,209.68,108.05,209.18z"/>
	<path d="M744.95,298.99c0.01-1.78,0.06-1.79-1.66-3.18C743.18,297.71,743.18,297.71,744.95,298.99z"/>
	<path d="M193.15,155.61c-0.99-0.04-2.56,1.03-2.13,1.72C191.74,158.47,195.74,155.72,193.15,155.61z"/>
	<path d="M90.27,151.19c0.68-0.41,0.96-0.87,0.47-1.63C89.86,148.21,88.18,148.79,90.27,151.19z"/>
	<path d="M181.91,154.75c-0.03,0.08,0.24,0.29,0.37,0.44c0.88-1.03,0.88-0.97,0.79-1.06C182.62,153.67,182.47,153.3,181.91,154.75z"
		/>
	<path d="M91.57,153.15c0.1,0.32,0.49,0.5,0.88,0.68C93.98,151.73,91.11,151.7,91.57,153.15z"/>
	<path d="M100.36,193.05c-0.56-0.56-1.29-0.14-1.11,0.66C99.49,194.84,100.66,193.84,100.36,193.05z"/>
	<path d="M184.85,152.55c1.37-0.94,1.16-0.61,0.64-1.45C184.29,152.29,184.48,151.93,184.85,152.55z"/>
	<path d="M746.46,299.85c-0.05,0.18-0.19,0.44-0.13,0.57C746.56,300.89,747.57,300.57,746.46,299.85z"/>
	<path d="M120.8,92.16c-0.83,0.16-0.96,0.61-0.86,0.61C120.65,92.77,121.66,92.16,120.8,92.16z"/>
	<path d="M693.39,287.1c-0.04-0.11-0.04-0.09-0.11-0.09C693.36,287.19,693.36,287.13,693.39,287.1z"/>
	<path d="M139.51,45.22c0.03,0.03,0.12,0.13,0.12,0.13C139.59,45.21,139.57,45.25,139.51,45.22z"/>
	<path d="M121.29,92.01c-0.06,0.1-0.17,0.15,0.09,0.1C121.44,92,121.46,92.05,121.29,92.01z"/>
	<path d="M598.35,371.86c-0.66-1.38-0.13-0.89-4.02-4.26c-3.17-2.74-2.99,0.15-3.15-26.96c-0.06-9.5-1.45-9.78-1.48,17.41
		c0,4.92,0.34,4.03-1.41,4.47c1.69,2.41,1.48,1.08,1.02,20.72c-0.04,1.62-0.46,1.21-4.56,0.26c0.66,1.34,1.24,1.35,4.2,2.72
		c0.62,4.1,0.36,2.38,0.47,8.56c0.05,2.9,1.62,2.38,1.66,1.2c0.17-4.58-0.15-3.08,0.3-8.58c1.9-0.66,3.7,0.76,5.65-0.29
		c-1.66-1.68-3.97-0.85-5.6-2.21c-0.22-0.95,0.03-16.65,0.23-18.11c2.27,0.86,4.44,4.62,6.66,5.08c0.02,0.1,0.03,0.11,0.06,0.08
		l-0.02,0.02c0.19,0.16,0.26,0.26,0.07-0.08C598.41,371.88,598.38,371.86,598.35,371.86z"/>
	<path d="M588.23,362.46c-0.18-0.19-0.16-0.2-0.03,0.06C588.27,362.49,588.27,362.55,588.23,362.46z"/>
	<path d="M580.32,263.82c-3.87,28.01,0.42,8.9-6.65,43.17c4.24-0.85,7.8-38.66,8.15-42.57
		C582.05,261.77,580.53,262.25,580.32,263.82z"/>
	<path d="M593.18,287.95c0.13-15,2.93-28.14,0.38-21.54C590.43,274.54,592.7,340.94,593.18,287.95z"/>
	<path d="M609.31,268.09c-0.93,16.33,2.81,33.02,1.72,0.93C610.87,264.23,609.52,264.41,609.31,268.09z"/>
	<path d="M646.53,347.84c7.4-16.97,8.56-10.77,5.41-17.08C651.99,335.7,641.81,344.86,646.53,347.84z"/>
	<path d="M574.45,309.49c-0.17,0.04-5.66,16.95-4.38,20.86C570.98,328.07,577.5,307.97,574.45,309.49z"/>
	<path d="M672.58,353.95c-1.85,8.53-3.41,12.28-3.02,18.22c1.55-1.9,1.58-3.77,1.97-5.46c2.42-10.34,2.83-10.46,1.9-13.19
		C673.15,353.67,672.63,353.75,672.58,353.95z"/>
	<path d="M646.47,348.82c-2.33-1.59-0.22,2.51,1.07,4.98C664.06,385.32,648.45,350.17,646.47,348.82z"/>
	<path d="M631.24,361.6c0.94-0.1,1.41-0.03,1.74-0.21c1.68-0.93,5.56-3.79,5.54-4.94C638.51,355.25,637.45,356.49,631.24,361.6z"/>
	<path d="M635.11,378.26c-1.8-0.02-3.36,0.15-5.08,0.63C632.15,380.45,633.49,380.16,635.11,378.26z"/>
	<path d="M591.44,325.6l-0.04,0.34C591.62,325.89,591.6,325.98,591.44,325.6z"/>
	<path d="M573.97,186.19c1.08,0.06-0.39-0.04,4.68-0.04c-0.04-3.21-2.15,1.32-7.49-4.06c-1.67-1.68-2.86-2.95-4.18-2.02
		C564.96,182.09,570.8,186.03,573.97,186.19z"/>
	<path d="M604.74,233.61c0.57-1.55,0.23-2.09-1.18-8.75c1.52-1.7,2.06-1.39-2.08-3.61C599.84,225.67,602.74,232.38,604.74,233.61z"
		/>
	<path d="M566.95,150.74c-5.54-7.94-3.42-4.43-7.03-12.61C557.96,140.84,562.82,151.18,566.95,150.74z"/>
	<path d="M598.31,218.59c-3.83-8.52-2.83-6.55-4.04-7.92C591.68,212.72,596.23,221.45,598.31,218.59z"/>
	<path d="M570.51,113.57c1.06-0.06,7.34-0.14,5.81-1.15c-1.86-1.42-3.92-1.51-6-0.51C569.48,112.32,570.1,113.59,570.51,113.57z"/>
	<path d="M671.68,305.14c2.06-0.03,1.31-2.66-1.85-2.89C668.23,302.14,669.02,305.17,671.68,305.14z"/>
	<path d="M614,251.8c0.17,0.47,0.84,0.33,1.28-0.18c-0.87-2.43-2.55-3.74-3.77-5.99C609.71,247.67,612.55,247.89,614,251.8z"/>
	<path d="M609.48,140.29c0.63,0.08,1.62-2.18-0.25-3.57C607.48,138.04,608,140.11,609.48,140.29z"/>
	<path d="M585.71,191.55c1.91,0,0.86-2.86-0.61-2.86C583.26,188.6,584.08,191.55,585.71,191.55z"/>
	<path d="M608.51,240.06c-0.59-1.32-0.98-2.23-2.05-3.25c-0.91,1.23-0.93,1.49-0.27,2.44C606.88,240.24,607.22,240.39,608.51,240.06
		z"/>
	<path d="M611.63,230.01c0.3-0.79,0.8-0.49-1.36-2.6C609.28,226.42,608.73,230.61,611.63,230.01z"/>
	<path d="M644.35,292.23c-0.33-1.81-1.35-3.25-2.52-2.21C642.37,292.67,641.77,292.23,644.35,292.23z"/>
	<path d="M642.19,292.23c0.01,0.02-0.02,0.03,0.12,0.12C642.27,292.2,642.3,292.23,642.19,292.23z"/>
	<path d="M572.01,154.33c-0.63-1.63-1.81-2.26-3.8-2.44C568.99,153.77,570.22,154.13,572.01,154.33z"/>
	<path d="M610.88,244.6c-0.24-1.81-0.46-1.9-1.88-2.93C608.72,243.49,608.83,243.58,610.88,244.6z"/>
	<path d="M608.83,227.27c-0.96-3.64-3.97-3.29-2.74-1.74C606.85,226.5,607.41,227.13,608.83,227.27z"/>
	<path d="M554.05,143.59c0-0.35-0.45-0.7-0.88-1.32c-0.43,0.62-0.8,0.94-0.9,1.34C551.95,144.87,554.05,145.09,554.05,143.59z"/>
	<path d="M581.9,186.9c-0.4-0.36-1.03-0.39-1.44,0.31c-0.1,0.2-0.15,0.1,1.08,1.5C581.84,188.3,582.71,187.65,581.9,186.9z"/>
	<path d="M665.3,297.16c-0.27,0.05-0.48,0.42-0.85,0.79C666.96,300.11,666.49,296.95,665.3,297.16z"/>
	<path d="M668.08,301.31c0.27-0.03,0.52-0.34,0.95-0.67c-0.39-0.42-1.11-1.61-1.76-0.57C666.99,300.52,667.56,301.36,668.08,301.31z
		"/>
	<path d="M641.18,288.5c0.31-0.88,0.63-1.26-0.72-1.98C640.03,287.72,640.03,287.72,641.18,288.5z"/>
	<path d="M553.99,147.53c-0.22,0.31-0.22,0.3-0.38,0.51C552.51,149.47,556.14,149.96,553.99,147.53z"/>
	<path d="M665.69,306.9c-0.32,0-0.65,0.14-0.97,0.21c0.03,0.09,0.04,0.18,0.06,0.28c0.2,0.95,1.02,1.02,1.27,0.85
		C666.92,307.67,666.02,306.9,665.69,306.9z"/>
	<path d="M581.27,157.03c0.05,0.03,0.38-0.43,0.34-0.47c-0.19-0.24-0.46-0.42-0.7-0.62C580.31,156.55,580.32,156.7,581.27,157.03z"
		/>
	<path d="M662.96,306.2c0.04,0.02,0.41-0.35,0.36-0.45c-0.16-0.36-0.42-0.68-0.76-1.23C662,305.5,661.53,305.44,662.96,306.2z"/>
	<path d="M608.42,133.13c-0.1-0.46-0.47-0.1-0.11,0.3C608.35,133.34,608.43,133.22,608.42,133.13z"/>
	<path d="M577.97,537.84c0.63-0.31,1.35-2.97,0.3-4.42c-0.23-0.31-1.11-0.32-1.26,0.07C575.71,536.98,577.17,538.65,577.97,537.84z"
		/>
	<path d="M600.96,409.22c1.68-0.05,1.12-3.83-0.5-3.59C598.75,405.89,599.22,409.27,600.96,409.22z"/>
	<path d="M607.76,416.06c1.63,2.02,2.19-2.4,1.15-3.3C607.22,411.28,606.5,414.49,607.76,416.06z"/>
	<path d="M577.85,541.95c-0.63,0.48-1.07,0.64-1.11,0.87C575.54,549.17,579.03,551.31,577.85,541.95z"/>
	<path d="M607.73,410.64c1.02-1.26,1.21-2.63,0.2-4.33C607.14,404.98,605.15,408.49,607.73,410.64z"/>
	<path d="M578.02,519.07c-0.55,1.37-0.46,2.72,0.38,4.07C581.8,519.79,578.77,517.2,578.02,519.07z"/>
	<path d="M577.94,526.1c-0.99,2.07-1.04,2.03-0.29,4.26C579.06,530.8,579.91,527.53,577.94,526.1z"/>
	<path d="M609.89,448.13c0.41-0.86,0.72-1.32,0.83-1.82c0.12-0.55-0.68-1.31-1.34-0.83C608.48,446.14,609.2,446.83,609.89,448.13z"
		/>
	<path d="M606.88,437.31c0.87,0.32,1.67-1.68-0.04-2.2C605.77,436,606.26,437.08,606.88,437.31z"/>
	<path d="M623.54,409.91C623.54,409.92,623.55,409.91,623.54,409.91c-0.04,0.04-0.24,0.29-1.07,1.55c0.55,0.27,0.84,0.5,1,0.5
		C625.35,410.08,623.85,409.67,623.54,409.91z"/>
	<path d="M608.82,439.53c-0.7,0.09-1.31,0.88-0.41,1.64C609.9,442.41,609.85,439.39,608.82,439.53z"/>
	<path d="M607.76,419.29c-0.58,1.94-0.64,1.4,0.41,1.92C608.75,419.94,608.79,420.5,607.76,419.29z"/>
	<path d="M636.65,541.37c1.97,0.21,2.34-8.31,0.87-10.16C634.12,532.31,635.19,541.21,636.65,541.37z"/>
	<path d="M663,412.85c0.53,0.56,0.86,0.92,1.55,0.55c0.43-0.24,4.29-6.46,2.64-7.73C665.9,404.67,662.04,411.84,663,412.85z"/>
	<path d="M641.16,455.84c0.14,0.61,1.75,1.19,1.84-0.77C643.34,448.21,638.43,443.86,641.16,455.84z"/>
	<path d="M660.14,425.03c-0.55,1.59-0.11,2.56,0.95,3.24C663.39,425.94,660.78,423.17,660.14,425.03z"/>
	<path d="M637.09,520.22c-0.28,1.86,1.38,3,2.24,0.31C639.96,518.53,637.38,518.29,637.09,520.22z"/>
	<path d="M637.56,528.53c0.38-0.31,0.63-0.7,0.76-1.14C639.38,523.69,633.98,526.49,637.56,528.53z"/>
	<path d="M635.1,434.25c-0.21-0.1-0.68,0.33-1.2,0.61c0.38,0.45,0.65,1.01,0.98,1.14C635.87,436.4,636.01,434.68,635.1,434.25z"/>
	<path d="M661.22,415.06c-0.37,1.59,1.59,1.68,1.61,0.18C662.97,414.13,661.45,414.05,661.22,415.06z"/>
	<path d="M637.02,438.87c0,0.1,0.23,0.24-0.9-1.63c-0.26,0.94-0.47,1.35-0.47,1.74C635.66,439.87,637.02,440.21,637.02,438.87z"/>
	<path d="M656.26,416.58c-0.28,0-0.57,0.25-1.51,0.73c0.57,0.23,1.52,0.93,2.04-0.08C657.03,416.75,656.55,416.58,656.26,416.58z"/>
	<path d="M639.57,444.01c0.07,0,0.35-0.39,0.3-0.53c-0.07-0.26-0.31-0.47-0.62-0.87C638.87,443.44,638.36,443.66,639.57,444.01z"/>
	<path d="M641.3,466.77c1.01-0.56,0.79-0.26,0.42-1.1C640.81,466.41,640.96,466.05,641.3,466.77z"/>
	<path d="M659.97,415.91c-0.84,0-0.51,0.44-0.32,0.9c0.26-0.2,0.51-0.4,0.75-0.58C660.26,416.12,660.12,415.91,659.97,415.91z"/>
	<path d="M641.88,461.44c0.04,0.02,0.07,0.04,0.11,0.07C642.14,460.04,641.29,461.13,641.88,461.44z"/>
	<path d="M651.36,39.46c4.4-3.22-5.96-3.92-11.24-2.79c-1.7,0.37-2.76,1.58-3.77,3c3.8,1.54,3.14-2.06,8.99-0.88
		C649.57,39.65,650.78,39.88,651.36,39.46z"/>
	<path d="M623.36,93.49c1.36,4.42,1.99-9.16-3.31-14.84C618.87,79.64,618.46,77.55,623.36,93.49z"/>
	<path d="M621.14,115.12c-2.3,1.79,5.59,6.36,7.89,5.94c0.16-0.65,0.56-1.29-0.36-1.95C623.74,115.58,622.52,114.04,621.14,115.12z"
		/>
	<path d="M646.15,45.4c1.09,0.43,2.11-0.09,3.17-0.82c0-0.9,0-1.89,0-3.04c-3.08,0.1-5.63,0.83-7.86,2.91
		C643.89,46.07,643.5,44.37,646.15,45.4z"/>
	<path d="M614.59,66.84c0.59,5.54,8.39,9.22,5.27,5.35c-4.16-5.17-1.67-0.96-4.14-8.52C614.7,63.6,614.17,62.89,614.59,66.84z"/>
	<path d="M614.6,63.48l-0.02,0.01C614.37,63.7,614.6,63.65,614.6,63.48z"/>
	<path d="M601.8,81.24c-1.46,1.55-1.09,2.24,0.94,4.85C603.1,84.25,603.05,82.64,601.8,81.24z"/>
	<path d="M633.72,122.22c-1.15,0.24-1.1-0.02,0.01,1.31C638.3,128.97,636.25,121.69,633.72,122.22z"/>
	<path d="M642.28,138.25c0.86-0.11,0.82-2.19-1.43-2.19C640.75,136.06,640.85,138.44,642.28,138.25z"/>
	<path d="M625.39,96.64c-0.68-1.23-1.25-0.14-1.48,0.05C624.73,100.4,626.41,98.23,625.39,96.64z"/>
	<path d="M639.95,135.28c0.73,0.52,0.76,1.08,1.2-0.61C641.84,131.98,637.45,133.19,639.95,135.28z"/>
	<path d="M640.66,136.07c0.11-0.03,0.17,0.03,0.12-0.1C640.7,135.88,640.72,135.92,640.66,136.07z"/>
	<path d="M628.92,109.58c-0.33-1.53-0.39-2.61-1.32-3.64C627.34,107.42,627.32,107.43,628.92,109.58z"/>
	<path d="M626.03,101.83c-0.26,0.77-0.36,0.49,0.43,0.9C626.69,101.88,626.79,102.17,626.03,101.83z"/>
	<path d="M604.19,89.08c-0.11-0.36-1.71-0.8-0.19,1.16C604.09,89.78,604.25,89.34,604.19,89.08z"/>
	<path d="M629.52,60.31c-0.58-0.37-1.01-0.66-1.6-1.04C628.15,60.63,628.15,60.63,629.52,60.31z"/>
	<path d="M624.25,57.14c0.36,1.13-0.16,0.69,2.02,1.5C624.93,56.8,625.49,57.18,624.25,57.14z"/>
	<path d="M635.53,83.17C635.41,83.15,635.37,83.15,635.53,83.17L635.53,83.17z"/>
	<path d="M635.53,83.17C635.42,83.1,635.37,83.07,635.53,83.17L635.53,83.17z"/>
	<path d="M648.63,190.01c-0.25-0.38-0.94-0.48-1.5-0.73c-0.87,2.18-0.43-3.07,1.57,23.99C650.39,236.15,653.1,196.79,648.63,190.01z
		"/>
	<path d="M647.06,171.98c1.03-1.52,0.65,0.89,1.71-11.39c0.17-1.94-2.58-1.69-2.66,0.58C645.71,171.58,645.62,171.59,647.06,171.98z
		"/>
	<path d="M648.6,222.86c-0.63,1.1-0.55-1.08,0.51,10.51c0.26,2.86,0.03,5.51,1.89,6.63c0.66-0.22,0.6-0.58,0.49-1.2
		C649.08,225.21,651.11,225.08,648.6,222.86z"/>
	<path d="M650.31,249.68c-0.02,0.79,0.12,1.59,1.01,2.3C653.06,248.73,650.44,244.19,650.31,249.68z"/>
	<path d="M626.78,180.56c0.52,0.09,1.08-0.13,1.78-0.22C627.82,176.6,624.32,180.13,626.78,180.56z"/>
	<path d="M650.47,169.31c-1.1,1.58-1.25,1.73,0.4,3.64C651.7,171.6,651.08,170.59,650.47,169.31z"/>
	<path d="M633.65,180.03c-0.86-0.86-0.52-0.8-1.42-0.12C633.03,180.83,632.65,180.74,633.65,180.03z"/>
	<path d="M627.67,206.32c0.34,0.08,0.65,0.22,0.85,0.22c0.59,0.01,0.45-1.45-0.14-1.04C628.14,205.66,627.98,205.94,627.67,206.32z"
		/>
	<path d="M630.3,202.1c1.22-0.17,0.8-0.46,0.48-1.39c-0.2,0.25-0.6,0.53-0.73,0.83C629.99,201.67,630.23,202.11,630.3,202.1z"/>
	<path d="M638.28,179.41c-2.23-0.74-1.56-0.85-2.4,0.11C636.6,179.98,636.02,179.97,638.28,179.41z"/>
	<path d="M633.64,199.37c0.26,0.14,0.68-0.69,0.55-0.8c-0.41-0.33-0.4-0.26-0.64,0.01C633.06,199.14,633,199.04,633.64,199.37z"/>
	<path d="M682.2,209.24c1.65-0.92,1.22-7.2-0.56-6.6C680.45,203.23,680.75,210.2,682.2,209.24z"/>
	<path d="M679,227.88c-0.11-0.63-1.29-0.42-1.42-0.14C674.33,234.78,680.18,234.7,679,227.88z"/>
	<path d="M707.97,292.14c2.15-1.02-2.34-7.01-2.6-4.14C705.2,289.9,706.54,292.82,707.97,292.14z"/>
	<path d="M721.9,310.71c-0.65,0-1.2-0.17-1.47,0.03C717.12,313.23,720.23,316.83,721.9,310.71z"/>
	<path d="M701.03,280.01c0.68,1.3,2.61-0.42,1.67-1.97C701.82,276.57,699.87,277.81,701.03,280.01z"/>
	<path d="M682.11,217.66c0.68-0.23,1.54-1.88,0.5-2.61C681.86,214.52,679.99,215.72,682.11,217.66z"/>
	<path d="M700.69,275.18c0.54-0.35,0.63-0.96,0.31-1.52c-0.89-1.58-1.22-0.62-1.8-0.07C699.37,274.02,699.8,275.76,700.69,275.18z"
		/>
	<path d="M704.89,284.19c-0.21-0.56-0.68-1.1-0.93-1.52C701.58,285.34,705.36,285.46,704.89,284.19z"/>
	<path d="M678.18,236.65c0,0.66,0,1.32,0,2.1C679.42,237.85,679.42,237.85,678.18,236.65z"/>
	<path d="M681.67,211.12c-0.65,1.35-0.75,0.93,0.31,1.54C681.98,212.22,682.74,212.73,681.67,211.12z"/>
	<path d="M718.35,315.41c0.8-0.52,0.84-1.16,0.27-1.16C717.72,314.35,717.95,315.67,718.35,315.41z"/>
	<path d="M718.95,314.14c0,0.03,0,0.06,0.01,0.1C719.1,314.24,719.06,314.14,718.95,314.14z"/>
	<path d="M693.55,287.51c-0.5-1-2.84,1.83-0.66,3.12C694.6,291.64,694.62,289.3,693.55,287.51z"/>
	<path d="M694.19,290.68c0,0.11,0.08,0.28,0.08-0.02C694.24,290.67,694.22,290.67,694.19,290.68z"/>
	<path d="M694.32,292.33c0,1.07,1.49,1.37,1.59,1.41C696.03,292.57,693.87,289.21,694.32,292.33z"/>
	<path d="M693.27,354.85c0.21,0.65,0.71,1.21,1.38,2.3C697.1,350.81,686.09,332.62,693.27,354.85z"/>
	<path d="M129.36,371.93c0.05-0.06,0.03-0.2-0.11-0.47c-0.19-0.6,0.34,0.09-6.41-6c-0.13-3.47-0.21-30.7-1.12-30.7
		c-1.77,8.67,0.5,25.28-1.83,28.42c-1.8-2-0.08,0-0.08,0.1c1.33-1.49,0.88,13.51,0.73,20.51c-0.05,2.44-2.55-0.25-4.68,0.24
		c1.16,1.66,3,1.57,4.53,2.83c0.7,8.53-0.6,10.27,1.46,10.44c1.1-3.1,0-6.43,0.79-9.78c3.8,0.21,4.13,0.82,5.41-0.06
		c-1.38-1.5-3.38-1.11-5.13-1.96c-0.37-2.17-0.43,1.36-0.12-16.48c0.04-2.38,0.28-2,1.13-1.4
		C124,367.68,128.94,372.36,129.36,371.93C129.36,371.94,129.36,371.94,129.36,371.93z"/>
	<path d="M168.01,330.54c0.66-4.02-0.23-7.83-1.17-13.29c-3.97-23.02-2.98-22.64-7.65-26.47
		C161.94,303.76,165.35,329.33,168.01,330.54z"/>
	<path d="M112.16,262.77c-1.29,0.85-1.78,21.88-6.54,41.35c-1.94,7.95,2.82,1.11,5.42-20.38
		C113.29,265.04,113.93,261.6,112.16,262.77z"/>
	<path d="M178.19,331.12c1.05-1.03,0.92-2.38,0.52-17.72c-0.04-1.43-0.38-2.82-1.78-3.86C176.55,310.85,176.12,333.16,178.19,331.12
		z"/>
	<path d="M124.05,309.09c0.56-15.41-0.3-22.41,1.52-38.51c1.02-9.03-2.51-11.14-2.17,34.94
		C123.4,305.75,123.49,309.09,124.05,309.09z"/>
	<path d="M178.4,347.1c0.5-0.8,0.35-3.6,6.09-11.37c0.71-0.96,0.31-1.36-0.2-2.57c-1.14-2.66-0.42,0.09-3.22,3.51
		C175.27,343.76,176.63,349.96,178.4,347.1z"/>
	<path d="M101.06,329.82c0.87,0.4,1.08-0.59,1.88-3.7C112.86,287.92,99,327.77,101.06,329.82z"/>
	<path d="M201.72,371.44c0.04-0.1,3.61-13.41,3.37-16.99c-0.01-0.22-0.48-0.42-0.77-0.66C201.06,361.89,199.8,376.81,201.72,371.44z
		"/>
	<path d="M140.42,270c-0.03,1.96-0.13,16.22,1.55,17.26c0.58-0.66,0.38,1.49,0.51-13.98C142.49,271.96,141.99,270.98,140.42,270z"/>
	<path d="M188.78,323.45c-1.08,22.61-0.97,19.44-0.52,20.5c0.9-0.11,0.95-0.76,1-1.34C189.51,339.79,191.33,323.93,188.78,323.45z"
		/>
	<path d="M176.75,349.25c-0.4,1.97,19.9,36.98,1.68,0.89C178.09,349.45,177.13,348.18,176.75,349.25z"/>
	<path d="M169.42,356.18c-8.3,6.94-7.09,5.85-5.28,5.18C169.74,359.27,170.41,355.2,169.42,356.18z"/>
	<path d="M181.35,320.11c0.12-0.39,0.67-3.44-0.12-4.45c-0.11-0.11-0.51-0.18-0.75-0.26C180.19,317.09,180,324.5,181.35,320.11z"/>
	<path d="M163.51,380.17c1.33,0.06,2.29-0.48,3.18-1.51C162.38,378.49,159.17,379.97,163.51,380.17z"/>
	<path d="M105.07,307.73c0.1-0.01,0.2-0.01,0.29-0.03c-0.01-0.06-0.02-0.11-0.04-0.17c-0.04,0.06-0.05,0.08-0.03,0.1
		C105.25,307.61,105.24,307.64,105.07,307.73z"/>
	<path d="M129.86,372.11c-0.16-0.05-0.32-0.1-0.49-0.16C129.6,372.5,129.47,372.49,129.86,372.11z"/>
	<path d="M142.3,460.18c1.42-0.14,2.54-4.21-0.57-8.29C140.88,454.1,140.28,460.38,142.3,460.18z"/>
	<path d="M108.78,533.28c-1.36,1.6-1.34,3.05-0.63,4.83C108.72,539.52,111.92,535.1,108.78,533.28z"/>
	<path d="M109.57,546.4c0.07-2.28,0.03-2.4-1.12-4.14C105.93,548.09,109.45,550.57,109.57,546.4z"/>
	<path d="M110.06,518.89c-0.91-0.28-2.05,3.05-0.09,4.77C111.45,522.39,111.67,519.39,110.06,518.89z"/>
	<path d="M139.88,417.22c0.66-0.92,1.25-0.64,0.42-3.94C139.79,411.29,136.53,414.8,139.88,417.22z"/>
	<path d="M109.35,526.84c-1.02,0-1.61,2.1-0.11,4.57C110.69,529.72,110.69,526.84,109.35,526.84z"/>
	<path d="M131.89,405.91c-1.24-0.08-1.47,2.6-0.7,3.19C133.72,411.05,133.65,406.03,131.89,405.91z"/>
	<path d="M137.73,408.12c0.01,0.86,0.5,1.74,1.52,2.73C141.04,406.63,137.68,404.88,137.73,408.12z"/>
	<path d="M155.23,410.07c-1.22,0.87-1.23,0.97-0.73,2.37C155.73,411.35,155.73,411.35,155.23,410.07z"/>
	<path d="M139.43,440.29c-0.48,0.77,0.06,1.51,0.68,1.69C142.08,440.72,140.09,439.24,139.43,440.29z"/>
	<path d="M140.91,447.78c1.03,0.75,1.9-3.16-0.89-1.2C140.4,447.11,140.59,447.55,140.91,447.78z"/>
	<path d="M138.29,437.55c0.26,0.32,0.77-0.63,0.69-0.95c-0.39-1.49-1.71-1.08-1.48-0.04C137.58,436.94,137.99,437.24,138.29,437.55z
		"/>
	<path d="M139.84,420.86c0.03-0.22-0.24-0.55-0.51-1.12c-0.43,0.64-0.92,1.11-0.72,1.36C139.34,422.01,139.84,420.97,139.84,420.86z
		"/>
	<path d="M167.76,532c-3.25,4.17,1.26,20.18,1.87,1.24C169.68,531.81,168.26,531.35,167.76,532z"/>
	<path d="M195.55,408.79c-2.23,3.48-1.54,6.94,0.8,4.6c0.42-0.56,2.33-5.19,2.75-6.27C199.15,407.01,198.96,403.45,195.55,408.79z"
		/>
	<path d="M194.46,414.32c-0.02-0.04-0.02-0.08-0.02-0.13C194.33,414.22,194.3,414.16,194.46,414.32z"/>
	<path d="M172.57,456.42c0.04,0.25,0.49,0.44,0.74,0.65C176.94,455.18,170.15,439.21,172.57,456.42z"/>
	<path d="M170.71,520.13c-0.03-0.39-0.5-0.73-0.77-1.1C165.67,522.09,171,524.07,170.71,520.13z"/>
	<path d="M192.3,424.66c-1.63,1.24-1.11,2.99-0.1,4c0.84-1.34,1.15-1.77,0.77-2.82C192.92,425.72,192.48,424.52,192.3,424.66z"/>
	<path d="M167.93,528.49c0.58,0.58,1.07,0.36,1.21,0.16C171.28,525,166.47,525.46,167.93,528.49z"/>
	<path d="M192.36,416c-0.01,0.17-0.02,0.35-0.02,0.57c1.87,0.09,1.94-0.08,1.99-2.16C194.33,413.96,191.66,415.29,192.36,416z"/>
	<path d="M194.34,414.22c0,0.04,0,0.09-0.01,0.14C194.48,414.32,194.47,414.35,194.34,414.22z"/>
	<path d="M166.08,434.5c-1.33,0-0.7,0.75-0.11,2.12C167.98,436.08,166.97,434.24,166.08,434.5z"/>
	<path d="M165.14,434.76l0.04-0.04c-0.11,0.04-0.09,0.04-0.09,0.11l0.02-0.03c0.01,0.01,0.04,0.01,0.1,0
		C165.19,434.76,165.16,434.76,165.14,434.76z"/>
	<path d="M167.72,440.24c0.82-0.63,0.68-1.28,0.06-2.07C166.38,439,166.45,439.03,167.72,440.24z"/>
	<path d="M185.89,417.52c1.49,0.81,0.87,0.95,2.38,0.02C187.49,416.56,188.02,416.63,185.89,417.52z"/>
	<path d="M169.83,443.69c0.59,0.54,0.97,1.21,1.26-0.06c0.04-0.16-0.22-0.37-0.34-0.57C170.47,443.24,170.21,443.42,169.83,443.69z"
		/>
	<path d="M191.65,416.47c-1.13-0.28-0.9,0.72-0.6,0.61C192.55,416.53,192.09,416.58,191.65,416.47z"/>
	<path d="M192.25,416.55c-0.17,0.08-0.15,0.02,0.08,0.1C192.33,416.44,192.36,416.69,192.25,416.55z"/>
	<path d="M172.58,465.86c0,1.7-0.1,1.42,0.41,1.42C172.99,465.58,173.09,465.86,172.58,465.86z"/>
	<path d="M172.89,461.26c-0.23,0.62-0.31,0.54,0.02,0.79C173.19,461.3,173.21,461.54,172.89,461.26z"/>
	<path d="M139.33,57.35c2.78,2,7.43-0.48,4.64-2.5c-0.53-0.38-3.37-0.64-2.96-2.87c0.52-2.77,4.93,0.21,1-3.58
		c-3.72-3.59-0.49-2.42-4.88-3.9c-0.31,0.36-0.78,0.67-0.88,1.07c-1.65,6.44-5.92,5.65-2.65,8.67c3.48,3.22,0.62-0.78,0.87-2.04
		c1.15-1,0.91-1.17,1.6-0.48c1.14,1.15,1.21,2.71,1.61,4.32c0.97-2.3,0.86-3.11-0.77-6.56c1.37-3.16,1.18-3.24,3.58-0.07
		C139.12,51.81,139.34,54.56,139.33,57.35z"/>
	<path d="M183.48,38.61c0.61-2.78-11.83-2.96-14.72,0.02c-1.59,1.65-1.47,1.35-0.75,1.54c3.62,0.96,3.99-2.35,8.85-0.88
		C180.24,40.3,182.98,40.89,183.48,38.61z"/>
	<path d="M150.6,79.78c0,0.1,3.15,12.52,4.82,15.18c0.7-5.21-0.58-9.6-2.7-14.4C151.72,78.3,150.46,79.23,150.6,79.78z"/>
	<path d="M152.05,115.9c-1.94,2.91,18.19,10.58,2.23-0.44C153.33,114.8,152.26,115.47,152.05,115.9z"/>
	<path d="M177.4,45.83c1.09,0.54,2.16-0.26,3.25-0.87c0.06-1.07,0.1-1.99,0.16-3.1c-2.98,0.02-5.59,0.87-8.13,2.92
		C174.97,46.34,175.33,44.8,177.4,45.83z"/>
	<path d="M147.04,63.95c-5.18,5.74,7.81,13.1,4.55,9.08C148,68.62,149.92,73.11,147.04,63.95z"/>
	<path d="M132.52,81.85c-0.73,2.08-0.01,3.6,1.62,5C134.39,84.34,134.43,82.89,132.52,81.85z"/>
	<path d="M164.28,122.29c0.65,2.12,2.01,2.8,3.03,3.7C169.3,125.17,166.43,123.08,164.28,122.29z"/>
	<path d="M171.44,133.48c-2.64,0.49,0.28,3.97,1.02,1.54C172.71,134.21,172.08,133.36,171.44,133.48z"/>
	<path d="M155.22,97.34c-0.05,0.4,0.27,0.79,1.37,2.15C157.29,95.72,155.36,96.06,155.22,97.34z"/>
	<path d="M159.68,109.3c0.43-1.26-0.18-2.06-1.02-3.42C158.84,107.9,158.84,107.9,159.68,109.3z"/>
	<path d="M173.14,138.89c0.36-0.41,0.7-0.61,0.76-0.87C174.36,136.05,171.01,136.32,173.14,138.89z"/>
	<path d="M155.39,58.01c0.36,0.54,0.91,0.57,1.43,0.7C157.14,56.82,154.67,56.92,155.39,58.01z"/>
	<path d="M135.51,89.93c0.2-0.51-0.3-0.85-0.63-1.72C134.1,90.6,135.25,90.59,135.51,89.93z"/>
	<path d="M160.08,60.17c-0.24-0.15-0.63-0.06-0.92-0.08C159.9,62.15,160.82,60.72,160.08,60.17z"/>
	<path d="M157.65,102.27c-0.01-0.06-0.15-0.09-0.24-0.14c-0.07,0.19-0.14,0.38-0.21,0.58C157.6,102.81,157.81,102.96,157.65,102.27z
		"/>
	<path d="M181.92,218.59c0.43-6.25,0.73-32.21-3.73-28.42c-0.38,0.9-0.62-2.79,2.3,30C180.49,221.08,181.92,220.77,181.92,218.59z"
		/>
	<path d="M157.66,233.34c-0.3,0.82-0.73,0.68,0.28,3.54c4,11.3,1.71,14.36,3.95,14.69C164.41,249.99,161.78,234.98,157.66,233.34z"
		/>
	<path d="M180.75,237.82c0.42,2.64,2.19,3.02,1.92,1.24c-2.44-16.49-0.25-13.31-2.97-16.34
		C179.04,226.29,180.41,235.69,180.75,237.82z"/>
	<path d="M156.78,231.85c0.46-2.74,0.36-3.81-1.87-7.06C154.75,227.63,155.45,229.33,156.78,231.85z"/>
	<path d="M155.48,222.09c-0.04-3.2-1.48-1.93-1.68-1.11C153.35,222.77,155.54,226.28,155.48,222.09z"/>
	<path d="M182.1,252.01c2.13-0.92,1.02-3.17,0.02-5.11C181.54,248.91,181.43,250.39,182.1,252.01z"/>
	<path d="M158.33,213.25c2.33-1.21,1.33-2.54-0.09-2.07C156.71,211.56,156.61,214.14,158.33,213.25z"/>
	<path d="M163.18,207.86c-1.33-1.13-3.18,0.6-1.75,2.56C162.26,209.75,162.89,208.89,163.18,207.86z"/>
	<path d="M156.87,215.34c-1.23-1.23-1.76,0.56-1.76,1.2c0,0.46,0.32,0.85,1.12,1.84C156.48,217.24,156.68,216.24,156.87,215.34z"/>
	<path d="M180.97,183.71c-1.41,1.64-1.41,1.65-0.17,3.22C181.67,185.99,181.53,185.04,180.97,183.71z"/>
	<path d="M164.79,205.58c0.86-1.91,0.2-1.71-0.22-1.71C163.22,204.92,164.18,205.14,164.79,205.58z"/>
	<path d="M193.6,228.46c1.24,1.77,1.21,1.82,3.88,1.99C196.21,229,195.25,228.38,193.6,228.46z"/>
	<path d="M203.01,230.44c1.11,0.68,1.9,1.07,2.85,0.17C204.93,230.03,204.18,229.71,203.01,230.44z"/>
	<path d="M199.92,230.51c0.39,0.33,0.78,0.43,1.24-0.14C199.84,230.22,200.21,230.22,199.92,230.51z"/>
	<path d="M234.13,189.69c-0.71-2.16-1.33-4.07-1.95-6.02C230.17,182.5,231.45,189.88,234.13,189.69z"/>
	<path d="M229.23,187.42c-1.53,0.18-1.71,2.84-0.31,2.29C230.2,189.2,230.35,187.29,229.23,187.42z"/>
	<path d="M226.41,191.49c0.99-0.72,0.88-0.32,0.04-1.91C225.71,191.14,225.8,190.63,226.41,191.49z"/>
	<path d="M218.9,191.85c-0.59,2.72-0.64,9.81,0.57,12.82c1.24-0.33,1.27-1.01,1.28-1.58C220.92,192.26,220.87,191.28,218.9,191.85z"
		/>
	<path d="M189.51,127.14c0.99-0.74-1.22-1.37-2.15,0.22C187.37,128.51,189.4,127.23,189.51,127.14z"/>
	<path d="M186.95,127.92c-1.02,0.56-0.78,0.29-1.07,1.03C186.66,128.84,186.83,129.14,186.95,127.92z"/>
	<path d="M187.1,127.88c0.04-0.17,0.13-0.07-0.1-0.11C186.93,127.99,187,127.93,187.1,127.88z"/>
	<path d="M241.07,146.49c0.08-0.19-0.24-0.56-0.49-1.04c-2.42,1.75-2.87,1.79-1.27,2.05C240.25,147.64,240.75,147.23,241.07,146.49z
		"/>
	<path d="M242.85,144.17c-0.28,0.26-0.74,0.59-0.7,0.76C242.3,145.74,243.92,145.47,242.85,144.17z"/>
	<path d="M247.18,145.17c0.21-0.33,0.26-0.22-0.33-0.67c-0.15,0.22-0.31,0.46-0.47,0.68C246.8,145.29,246.97,145.5,247.18,145.17z"
		/>
	<path d="M248.8,177.05c1.14-0.77,1.14-0.77,0.67-2.34C248.34,175.43,248.34,175.43,248.8,177.05z"/>
	<path d="M248.29,165.8c1.29-0.24,1.1-1.76,0.57-2.51C247.71,164.15,247.71,164.15,248.29,165.8z"/>
	<path d="M249.25,157.08c-0.15,0.23,0.69,1.58,0.57,0.33C249.79,156.75,249.83,156.43,249.25,157.08z"/>
<path fill="#e6e6e6" d="m206.8 163.6c0-5.1 4.1-9.2 9.3-9.2s9.2 4.2 9.2 9.2-4.1 9.2-9.3 9.2-9.2-4.1-9.2-9.2zm17.3-.1c0-4.5-3.5-8.2-8.2-8.2s-8.2 3.7-8.2 8.3c0 4.5 3.5 8.2 8.2 8.2s8.2-3.7 8.2-8.3zm-13 0c0-2.8 2.1-5.1 5.1-5.1 1.9 0 2.9.6 3.9 1.5l-1.4 1.7c-.8-.7-1.5-1.1-2.5-1.1-1.7 0-2.8 1.4-2.8 3.1s1.1 3 2.8 3c1.1 0 1.7-.5 2.5-1.1l1.4 1.4c-1.1 1.1-2.1 1.7-4 1.7-2.9 0-5-2.3-5-5.1z"/><path fill="#e6e6e6" d="m226.6 154.7h3.4l4.2 13.2 4.4-13.3h2.6l4.4 13.3 4.2-13.2h3.3l-6.2 18h-2.7l-4.4-12.8-4.4 12.8h-2.7z"/><path fill="#e6e6e6" d="m252.8 165.8c0-3.9 3.1-7 7.2-7 4.2 0 7.2 3.2 7.2 7s-3.1 7-7.3 7c-4 0-7.1-3.1-7.1-7zm11.3 0c0-2.3-1.7-4.3-4.2-4.3s-4.1 2-4.1 4.3 1.7 4.3 4.1 4.3c2.7.1 4.2-1.9 4.2-4.3z"/><path fill="#e6e6e6" d="m269.5 159.1h3.1v3c.8-2 2.4-3.4 4.8-3.3v3.2h-.2c-2.7 0-4.6 1.7-4.6 5.4v5.1h-3.1z"/><path fill="#e6e6e6" d="m279.1 153.9h3.1v11.1l5.6-6h3.8l-5.4 5.5 5.5 8h-3.5l-4.1-5.8-1.9 2v3.9h-3.1z"/><path fill="#e6e6e6" d="m291.7 165.8c0-3.9 3.1-7 7.2-7 4.2 0 7.2 3.2 7.2 7s-3.1 7-7.3 7c-4 0-7.1-3.1-7.1-7zm11.3 0c0-2.3-1.7-4.3-4.2-4.3s-4.1 2-4.1 4.3 1.7 4.3 4.1 4.3c2.6.1 4.2-1.9 4.2-4.3z"/><path fill="#e6e6e6" d="m308.2 167.6v-8.6h3.1v7.6c0 2.1 1.1 3.3 2.9 3.3s3-1.3 3-3.3v-7.6h3.1v13.4h-3.1v-2.1c-.8 1.3-2.1 2.3-4.2 2.3-3.1.2-4.8-1.8-4.8-5z"/><path fill="#e6e6e6" d="m323.9 168.8v-7.1h-1.7v-2.6h1.7v-3.7h3.1v3.7h3.6v2.6h-3.6v6.6c0 1.2.6 1.7 1.7 1.7.7 0 1.3-.2 1.9-.5v2.5c-.8.5-1.7.7-2.8.7-2.3 0-3.9-.9-3.9-3.9z"/><path fill="#e6e6e6" d="m333.2 154.7h3.2v15h9.4v2.9h-12.5v-17.9z"/><path fill="#e6e6e6" d="m356 172.5v-1.7c-.9 1.1-2.3 2-4.4 2-2.6 0-4.8-1.4-4.8-4.2 0-3 2.3-4.4 5.4-4.4 1.7 0 2.6.2 3.7.5v-.2c0-1.9-1.2-2.9-3.3-2.9-1.5 0-2.6.3-3.9.8l-.8-2.5c1.5-.7 2.9-1.1 5.1-1.1 4 0 5.9 2.1 5.9 5.7v8zm.1-5.6c-.8-.3-1.9-.5-3.1-.5-2 0-3.1.8-3.1 2.1s1.1 2 2.6 2c2 0 3.5-1.1 3.5-2.9z"/><path fill="#e6e6e6" d="m364.9 170.5v2.1h-3.1v-18.7h3.1v7.4c1-1.4 2.4-2.5 4.5-2.5 3.2 0 6.3 2.5 6.3 7s-3.1 7-6.3 7c-2.1 0-3.5-1.1-4.5-2.3zm7.7-4.7c0-2.6-1.7-4.3-3.9-4.3s-3.9 1.7-3.9 4.4c0 2.6 1.8 4.3 3.9 4.3s3.9-1.7 3.9-4.4z"/><path fill="#e6e6e6" d="m376.9 170.8 1.4-2.1c1.4 1.1 3 1.7 4.4 1.7s2.1-.5 2.1-1.5-1.3-1.4-2.8-1.8c-.1 0-.2-.1-.2-.1-2-.6-4.2-1.4-4.2-4s2.1-4.1 4.8-4.1c1.7 0 3.5.6 5 1.5l-1.2 2.2c-1.3-.8-2.6-1.3-3.8-1.3s-1.9.5-1.9 1.4 1.3 1.4 2.8 1.8c.1 0 .2.1.2.1 2 .6 4.2 1.5 4.2 4 0 2.9-2.2 4.2-5 4.2-1.9 0-4-.7-5.8-2z"/><path fill="#e6e6e6" d="m505.6 163.6c0-5.1 4.1-9.2 9.3-9.2s9.2 4.2 9.2 9.2-4.1 9.2-9.3 9.2-9.2-4.1-9.2-9.2zm17.4-.1c0-4.5-3.5-8.2-8.2-8.2s-8.2 3.7-8.2 8.3c0 4.5 3.5 8.2 8.2 8.2s8.2-3.7 8.2-8.3zm-13.1 0c0-2.8 2.1-5.1 5.1-5.1 1.9 0 2.9.6 3.9 1.5l-1.4 1.7c-.8-.7-1.5-1.1-2.5-1.1-1.7 0-2.8 1.4-2.8 3.1s1.1 3 2.8 3c1.1 0 1.7-.5 2.5-1.1l1.4 1.4c-1.1 1.1-2.1 1.7-4 1.7-2.9 0-5-2.3-5-5.1z"/><path fill="#e6e6e6" d="m525.4 154.7h3.4l4.2 13.2 4.4-13.3h2.6l4.4 13.3 4.2-13.2h3.3l-6.2 18h-2.7l-4.4-12.8-4.4 12.8h-2.7z"/><path fill="#e6e6e6" d="m551.7 165.8c0-3.9 3.1-7 7.2-7 4.2 0 7.2 3.2 7.2 7s-3.1 7-7.3 7c-4.1 0-7.1-3.1-7.1-7zm11.2 0c0-2.3-1.7-4.3-4.2-4.3s-4.1 2-4.1 4.3 1.7 4.3 4.1 4.3c2.7.1 4.2-1.9 4.2-4.3z"/><path fill="#e6e6e6" d="m568.3 159.1h3.1v3c.8-2 2.4-3.4 4.8-3.3v3.2h-.2c-2.7 0-4.6 1.7-4.6 5.4v5.1h-3.1z"/><path fill="#e6e6e6" d="m577.9 153.9h3.1v11.1l5.6-6h3.8l-5.4 5.5 5.5 8h-3.5l-4.1-5.8-1.9 2v3.9h-3.1z"/><path fill="#e6e6e6" d="m590.6 165.8c0-3.9 3.1-7 7.2-7 4.2 0 7.2 3.2 7.2 7s-3.1 7-7.3 7c-4.1 0-7.1-3.1-7.1-7zm11.2 0c0-2.3-1.7-4.3-4.2-4.3s-4.1 2-4.1 4.3 1.7 4.3 4.1 4.3c2.6.1 4.2-1.9 4.2-4.3z"/><path fill="#e6e6e6" d="m607 167.6v-8.6h3.1v7.6c0 2.1 1.1 3.3 2.9 3.3s3-1.3 3-3.3v-7.6h3.1v13.4h-3.1v-2.1c-.8 1.3-2.1 2.3-4.2 2.3-3 .2-4.8-1.8-4.8-5z"/><path fill="#e6e6e6" d="m622.7 168.8v-7.1h-1.7v-2.6h1.7v-3.7h3.1v3.7h3.6v2.6h-3.6v6.6c0 1.2.6 1.7 1.7 1.7.7 0 1.3-.2 1.9-.5v2.5c-.8.5-1.7.7-2.8.7-2.3 0-3.9-.9-3.9-3.9z"/><path fill="#e6e6e6" d="m632 154.7h3.2v15h9.4v2.9h-12.6z"/><path fill="#e6e6e6" d="m654.8 172.5v-1.7c-.9 1.1-2.3 2-4.4 2-2.6 0-4.8-1.4-4.8-4.2 0-3 2.3-4.4 5.4-4.4 1.7 0 2.6.2 3.7.5v-.2c0-1.9-1.2-2.9-3.3-2.9-1.5 0-2.6.3-3.9.8l-.8-2.5c1.5-.7 2.9-1.1 5.1-1.1 4 0 5.9 2.1 5.9 5.7v8zm.1-5.6c-.8-.3-1.9-.5-3.1-.5-2 0-3.1.8-3.1 2.1s1.1 2 2.6 2c2 0 3.5-1.1 3.5-2.9z"/><path fill="#e6e6e6" d="m663.7 170.5v2.1h-3.1v-18.7h3.1v7.4c1-1.4 2.4-2.5 4.5-2.5 3.2 0 6.3 2.5 6.3 7s-3.1 7-6.3 7c-2.1 0-3.5-1.1-4.5-2.3zm7.8-4.7c0-2.6-1.7-4.3-3.9-4.3-2.1 0-3.9 1.7-3.9 4.4 0 2.6 1.8 4.3 3.9 4.3s3.9-1.7 3.9-4.4z"/><path fill="#e6e6e6" d="m675.8 170.8 1.4-2.1c1.4 1.1 3 1.7 4.4 1.7s2.1-.5 2.1-1.5-1.3-1.4-2.8-1.8c-.1 0-.2-.1-.2-.1-2-.6-4.2-1.4-4.2-4s2.1-4.1 4.8-4.1c1.7 0 3.5.6 5 1.5l-1.2 2.2c-1.3-.8-2.6-1.3-3.8-1.3s-1.9.5-1.9 1.4 1.3 1.4 2.8 1.8c.1 0 .2.1.2.1 2 .6 4.2 1.5 4.2 4 0 2.9-2.2 4.2-5 4.2-2 0-4.1-.7-5.8-2z"/><path fill="#e6e6e6" d="m61 298.6c0-5.1 4.1-9.2 9.3-9.2s9.2 4.2 9.2 9.2-4.1 9.2-9.3 9.2c-5.1 0-9.2-4.2-9.2-9.2zm17.4-.1c0-4.5-3.5-8.2-8.2-8.2s-8.2 3.7-8.2 8.3c0 4.5 3.5 8.2 8.2 8.2s8.2-3.7 8.2-8.3zm-13.1-.1c0-2.8 2.1-5.1 5.1-5.1 1.9 0 2.9.6 3.9 1.5l-1.4 1.7c-.8-.7-1.5-1.1-2.5-1.1-1.7 0-2.8 1.4-2.8 3.1s1.1 3 2.8 3c1.1 0 1.7-.5 2.5-1.1l1.4 1.4c-1.1 1.1-2.1 1.7-4 1.7-2.8.1-5-2.2-5-5.1z"/><path fill="#e6e6e6" d="m80.9 289.7h3.4l4.2 13.2 4.4-13.3h2.6l4.4 13.3 4.2-13.2h3.3l-6.2 18h-2.7l-4.4-12.8-4.4 12.8h-2.7z"/><path fill="#e6e6e6" d="m107.1 300.8c0-3.9 3.1-7 7.2-7s7.2 3.2 7.2 7-3.1 7-7.3 7c-4 0-7.1-3.1-7.1-7zm11.3 0c0-2.3-1.7-4.3-4.2-4.3s-4.1 2-4.1 4.3 1.7 4.3 4.1 4.3c2.6.1 4.2-1.9 4.2-4.3z"/><path fill="#e6e6e6" d="m123.7 294h3.1v3c.8-2 2.4-3.4 4.8-3.3v3.2h-.2c-2.7 0-4.6 1.7-4.6 5.4v5.1h-3.1z"/><path fill="#e6e6e6" d="m133.4 288.9h3.1v11.1l5.6-6h3.8l-5.4 5.5 5.5 8h-3.5l-4.1-5.8-1.9 1.9v3.9h-3.1z"/><path fill="#e6e6e6" d="m146 300.8c0-3.9 3.1-7 7.2-7s7.2 3.2 7.2 7-3.1 7-7.3 7c-4.1 0-7.1-3.1-7.1-7zm11.2 0c0-2.3-1.7-4.3-4.2-4.3s-4.1 2-4.1 4.3 1.7 4.3 4.1 4.3c2.6.1 4.2-1.9 4.2-4.3z"/><path fill="#e6e6e6" d="m162.4 302.6v-8.6h3.1v7.6c0 2.1 1.1 3.3 2.9 3.3s3-1.3 3-3.3v-7.6h3.1v13.4h-3.1v-2.1c-.8 1.3-2.1 2.3-4.2 2.3-3 .2-4.8-1.8-4.8-5z"/><path fill="#e6e6e6" d="m178.1 303.8v-7.1h-1.7v-2.7h1.7v-3.7h3.1v3.7h3.6v2.6h-3.6v6.6c0 1.2.6 1.7 1.7 1.7.7 0 1.3-.2 1.9-.5v2.5c-.8.5-1.7.7-2.8.7-2.3.1-3.9-.9-3.9-3.8z"/><path fill="#e6e6e6" d="m187.4 289.7h3.2v15h9.4v2.9h-12.5v-17.9z"/><path fill="#e6e6e6" d="m210.2 307.5v-1.7c-.9 1.1-2.3 2-4.4 2-2.6 0-4.8-1.4-4.8-4.2 0-3 2.3-4.4 5.4-4.4 1.7 0 2.6.2 3.7.5v-.2c0-1.9-1.2-2.9-3.3-2.9-1.5 0-2.6.3-3.9.8l-.8-2.5c1.5-.7 2.9-1.1 5.1-1.1 4 0 5.9 2.1 5.9 5.7v8zm.1-5.6c-.8-.3-1.9-.5-3.1-.5-2 0-3.1.8-3.1 2.1s1.1 2 2.6 2c2 0 3.5-1.1 3.5-2.9z"/><path fill="#e6e6e6" d="m219.2 305.5v2.1h-3.1v-18.7h3.1v7.4c1-1.4 2.4-2.5 4.5-2.5 3.2 0 6.3 2.5 6.3 7s-3.1 7-6.3 7c-2.2 0-3.6-1.1-4.5-2.3zm7.7-4.7c0-2.6-1.7-4.3-3.9-4.3s-3.9 1.7-3.9 4.4c0 2.6 1.8 4.3 3.9 4.3s3.9-1.7 3.9-4.4z"/><path fill="#e6e6e6" d="m231.2 305.8 1.4-2.1c1.4 1.1 3 1.7 4.4 1.7s2.1-.5 2.1-1.5-1.3-1.4-2.8-1.8c-.1 0-.2-.1-.2-.1-2-.6-4.2-1.4-4.2-4s2.1-4.1 4.8-4.1c1.7 0 3.5.6 5 1.5l-1.2 2.2c-1.3-.8-2.6-1.3-3.8-1.3s-1.9.5-1.9 1.4 1.3 1.4 2.8 1.8c.1 0 .2.1.2.1 2 .6 4.2 1.5 4.2 4 0 2.9-2.2 4.2-5 4.2-2 0-4.1-.7-5.8-2z"/><path fill="#e6e6e6" d="m360.6 298.6c0-5.1 4.1-9.2 9.3-9.2s9.2 4.2 9.2 9.2-4.1 9.2-9.3 9.2-9.2-4.2-9.2-9.2zm17.4-.1c0-4.5-3.5-8.2-8.2-8.2s-8.2 3.7-8.2 8.3c0 4.5 3.5 8.2 8.2 8.2s8.2-3.7 8.2-8.3zm-13.1-.1c0-2.8 2.1-5.1 5.1-5.1 1.9 0 2.9.6 3.9 1.5l-1.4 1.7c-.8-.7-1.5-1.1-2.5-1.1-1.7 0-2.8 1.4-2.8 3.1s1.1 3 2.8 3c1.1 0 1.7-.5 2.5-1.1l1.4 1.4c-1.1 1.1-2.1 1.7-4 1.7-2.8.1-5-2.2-5-5.1z"/><path fill="#e6e6e6" d="m380.5 289.7h3.4l4.2 13.2 4.4-13.3h2.6l4.4 13.3 4.2-13.2h3.3l-6.2 18h-2.7l-4.4-12.8-4.4 12.8h-2.7z"/><path fill="#e6e6e6" d="m406.7 300.8c0-3.9 3.1-7 7.2-7 4.2 0 7.2 3.2 7.2 7s-3.1 7-7.3 7c-4.1 0-7.1-3.1-7.1-7zm11.3 0c0-2.3-1.7-4.3-4.2-4.3s-4.1 2-4.1 4.3 1.7 4.3 4.1 4.3c2.7.1 4.2-1.9 4.2-4.3z"/><path fill="#e6e6e6" d="m423.3 294h3.1v3c.8-2 2.4-3.4 4.8-3.3v3.2h-.2c-2.7 0-4.6 1.7-4.6 5.4v5.1h-3.1z"/><path fill="#e6e6e6" d="m433 288.9h3.1v11.1l5.6-6h3.8l-5.4 5.5 5.5 8h-3.5l-4.1-5.8-1.9 2v3.9h-3.1z"/><path fill="#e6e6e6" d="m445.6 300.8c0-3.9 3.1-7 7.2-7 4.2 0 7.2 3.2 7.2 7s-3.1 7-7.3 7c-4.1 0-7.1-3.1-7.1-7zm11.3 0c0-2.3-1.7-4.3-4.2-4.3s-4.1 2-4.1 4.3 1.7 4.3 4.1 4.3c2.6.1 4.2-1.9 4.2-4.3z"/><path fill="#e6e6e6" d="m462.1 302.6v-8.6h3.1v7.6c0 2.1 1.1 3.3 2.9 3.3s3-1.3 3-3.3v-7.6h3.1v13.4h-3.1v-2.1c-.8 1.3-2.1 2.3-4.2 2.3-3.1.2-4.8-1.8-4.8-5z"/><path fill="#e6e6e6" d="m477.8 303.8v-7.1h-1.8v-2.7h1.7v-3.7h3.1v3.7h3.6v2.6h-3.6v6.6c0 1.2.6 1.7 1.7 1.7.7 0 1.3-.2 1.9-.5v2.5c-.8.5-1.7.7-2.8.7-2.2.1-3.8-.9-3.8-3.8z"/><path fill="#e6e6e6" d="m487.1 289.7h3.2v15h9.4v2.9h-12.5v-17.9z"/><path fill="#e6e6e6" d="m509.9 307.5v-1.7c-.9 1.1-2.3 2-4.4 2-2.6 0-4.8-1.4-4.8-4.2 0-3 2.3-4.4 5.4-4.4 1.7 0 2.6.2 3.7.5v-.2c0-1.9-1.2-2.9-3.3-2.9-1.5 0-2.6.3-3.9.8l-.8-2.5c1.5-.7 2.9-1.1 5.1-1.1 4 0 5.9 2.1 5.9 5.7v8zm.1-5.6c-.8-.3-1.9-.5-3.1-.5-2 0-3.1.8-3.1 2.1s1.1 2 2.6 2c2 0 3.5-1.1 3.5-2.9z"/><path fill="#e6e6e6" d="m518.8 305.5v2.1h-3.1v-18.7h3.1v7.4c1-1.4 2.4-2.5 4.5-2.5 3.2 0 6.3 2.5 6.3 7s-3.1 7-6.3 7c-2.2 0-3.5-1.1-4.5-2.3zm7.7-4.7c0-2.6-1.7-4.3-3.9-4.3s-3.9 1.7-3.9 4.4c0 2.6 1.8 4.3 3.9 4.3s3.9-1.7 3.9-4.4z"/><path fill="#e6e6e6" d="m530.8 305.8 1.4-2.1c1.4 1.1 3 1.7 4.4 1.7s2.1-.5 2.1-1.5-1.3-1.4-2.8-1.8c-.1 0-.2-.1-.2-.1-2-.6-4.2-1.4-4.2-4s2.1-4.1 4.8-4.1c1.7 0 3.5.6 5 1.5l-1.2 2.2c-1.3-.8-2.6-1.3-3.8-1.3s-1.9.5-1.9 1.4 1.3 1.4 2.8 1.8c.1 0 .2.1.2.1 2 .6 4.2 1.5 4.2 4 0 2.9-2.2 4.2-5 4.2-1.9 0-4.1-.7-5.8-2z"/><path fill="#e6e6e6" d="m659.5 298.6c0-5.1 4.1-9.2 9.3-9.2s9.2 4.2 9.2 9.2-4.1 9.2-9.3 9.2-9.2-4.2-9.2-9.2zm17.3-.1c0-4.5-3.5-8.2-8.2-8.2s-8.2 3.7-8.2 8.3c0 4.5 3.5 8.2 8.2 8.2 4.8 0 8.2-3.7 8.2-8.3zm-13-.1c0-2.8 2.1-5.1 5.1-5.1 1.9 0 2.9.6 3.9 1.5l-1.4 1.7c-.8-.7-1.5-1.1-2.5-1.1-1.7 0-2.8 1.4-2.8 3.1s1.1 3 2.8 3c1.1 0 1.7-.5 2.5-1.1l1.4 1.4c-1.1 1.1-2.1 1.7-4 1.7-2.9.1-5-2.2-5-5.1z"/><path fill="#e6e6e6" d="m679.3 289.7h3.4l4.2 13.2 4.4-13.3h2.6l4.4 13.3 4.2-13.2h3.3l-6.2 18h-2.6l-4.4-12.8-4.4 12.8h-2.7z"/><path fill="#e6e6e6" d="m705.5 300.8c0-3.9 3.1-7 7.2-7 4.2 0 7.2 3.2 7.2 7s-3.1 7-7.3 7c-4 0-7.1-3.1-7.1-7zm11.3 0c0-2.3-1.7-4.3-4.2-4.3s-4.1 2-4.1 4.3 1.7 4.3 4.1 4.3c2.7.1 4.2-1.9 4.2-4.3z"/><path fill="#e6e6e6" d="m722.1 294h3.1v3c.8-2 2.4-3.4 4.8-3.3v3.2h-.2c-2.7 0-4.6 1.7-4.6 5.4v5.1h-3.1z"/><path fill="#e6e6e6" d="m731.8 288.9h3.1v11.1l5.6-6h3.8l-5.4 5.5 5.5 8h-3.5l-4.1-5.8-1.9 2v3.9h-3.1z"/><path fill="#e6e6e6" d="m744.4 300.8c0-3.9 3.1-7 7.2-7 4.2 0 7.2 3.2 7.2 7s-3.1 7-7.3 7c-4.1 0-7.1-3.1-7.1-7zm11.3 0c0-2.3-1.7-4.3-4.2-4.3s-4.1 2-4.1 4.3 1.7 4.3 4.1 4.3c2.6.1 4.2-1.9 4.2-4.3z"/><path fill="#e6e6e6" d="m760.9 302.6v-8.6h3.1v7.6c0 2.1 1.1 3.3 2.9 3.3s3-1.3 3-3.3v-7.6h3.1v13.4h-3.1v-2.1c-.8 1.3-2.1 2.3-4.2 2.3-3.1.2-4.8-1.8-4.8-5z"/><path fill="#e6e6e6" d="m776.6 303.8v-7.1h-1.7v-2.7h1.7v-3.7h3.1v3.7h3.6v2.6h-3.6v6.6c0 1.2.6 1.7 1.7 1.7.7 0 1.3-.2 1.9-.5v2.5c-.8.5-1.7.7-2.8.7-2.3.1-3.9-.9-3.9-3.8z"/><path fill="#e6e6e6" d="m785.9 289.7h3.2v15h9.4v2.9h-12.5v-17.9z"/><path fill="#e6e6e6" d="m808.7 307.5v-1.7c-.9 1.1-2.3 2-4.4 2-2.6 0-4.8-1.4-4.8-4.2 0-3 2.3-4.4 5.4-4.4 1.7 0 2.6.2 3.7.5v-.2c0-1.9-1.2-2.9-3.3-2.9-1.5 0-2.6.3-3.9.8l-.8-2.5c1.5-.7 2.9-1.1 5.1-1.1 4 0 5.9 2.1 5.9 5.7v8zm.1-5.6c-.8-.3-1.9-.5-3.1-.5-2 0-3.1.8-3.1 2.1s1.1 2 2.6 2c2 0 3.5-1.1 3.5-2.9z"/><path fill="#e6e6e6" d="m817.6 305.5v2.1h-3.1v-18.7h3.1v7.4c1-1.4 2.4-2.5 4.5-2.5 3.2 0 6.3 2.5 6.3 7s-3.1 7-6.3 7c-2.1 0-3.5-1.1-4.5-2.3zm7.7-4.7c0-2.6-1.7-4.3-3.9-4.3-2.1 0-3.9 1.7-3.9 4.4 0 2.6 1.8 4.3 3.9 4.3 2.2 0 3.9-1.7 3.9-4.4z"/><path fill="#e6e6e6" d="m829.6 305.8 1.4-2.1c1.4 1.1 3 1.7 4.4 1.7s2.1-.5 2.1-1.5-1.3-1.4-2.8-1.8c-.1 0-.2-.1-.2-.1-2-.6-4.2-1.4-4.2-4s2.1-4.1 4.8-4.1c1.7 0 3.5.6 5 1.5l-1.2 2.2c-1.3-.8-2.6-1.3-3.8-1.3s-1.9.5-1.9 1.4 1.3 1.4 2.8 1.8c.1 0 .2.1.2.1 2 .6 4.2 1.5 4.2 4 0 2.9-2.2 4.2-5 4.2-1.9 0-4-.7-5.8-2z"/><path fill="#e6e6e6" d="m206.3 434.2c0-5.1 4.1-9.2 9.3-9.2s9.2 4.2 9.2 9.2-4.1 9.2-9.3 9.2-9.2-4.1-9.2-9.2zm17.4-.1c0-4.5-3.5-8.2-8.2-8.2s-8.2 3.7-8.2 8.3c0 4.5 3.5 8.2 8.2 8.2s8.2-3.7 8.2-8.3zm-13.1-.1c0-2.8 2.1-5.1 5.1-5.1 1.9 0 2.9.6 3.9 1.5l-1.4 1.7c-.8-.7-1.5-1.1-2.5-1.1-1.7 0-2.8 1.4-2.8 3.1s1.1 3 2.8 3c1.1 0 1.7-.5 2.5-1.1l1.4 1.4c-1.1 1.1-2.1 1.7-4 1.7-2.9.1-5-2.2-5-5.1z"/><path fill="#e6e6e6" d="m226.1 425.3h3.4l4.2 13.2 4.4-13.3h2.6l4.4 13.3 4.2-13.2h3.3l-6.2 18h-2.7l-4.4-12.8-4.4 12.8h-2.7z"/><path fill="#e6e6e6" d="m252.4 436.4c0-3.9 3.1-7 7.2-7 4.2 0 7.2 3.2 7.2 7s-3.1 7-7.3 7c-4.1 0-7.1-3.1-7.1-7zm11.2 0c0-2.3-1.7-4.3-4.2-4.3s-4.1 2-4.1 4.3 1.7 4.3 4.1 4.3c2.7.1 4.2-1.9 4.2-4.3z"/><path fill="#e6e6e6" d="m269 429.7h3.1v3c.8-2 2.4-3.4 4.8-3.3v3.2h-.2c-2.7 0-4.6 1.7-4.6 5.4v5.1h-3.1z"/><path fill="#e6e6e6" d="m278.6 424.5h3.1v11.1l5.6-6h3.8l-5.4 5.5 5.5 8h-3.5l-4.1-5.8-1.9 2v3.9h-3.1z"/><path fill="#e6e6e6" d="m291.3 436.4c0-3.9 3.1-7 7.2-7 4.2 0 7.2 3.2 7.2 7s-3.1 7-7.3 7c-4.1 0-7.1-3.1-7.1-7zm11.2 0c0-2.3-1.7-4.3-4.2-4.3s-4.1 2-4.1 4.3 1.7 4.3 4.1 4.3c2.6.1 4.2-1.9 4.2-4.3z"/><path fill="#e6e6e6" d="m307.7 438.2v-8.6h3.1v7.6c0 2.1 1.1 3.3 2.9 3.3s3-1.3 3-3.3v-7.6h3.1v13.4h-3.1v-2.1c-.8 1.3-2.1 2.3-4.2 2.3-3 .2-4.8-1.8-4.8-5z"/><path fill="#e6e6e6" d="m323.4 439.4v-7.1h-1.7v-2.6h1.7v-3.7h3.1v3.7h3.6v2.6h-3.6v6.6c0 1.2.6 1.7 1.7 1.7.7 0 1.3-.2 1.9-.5v2.5c-.8.5-1.7.7-2.8.7-2.3 0-3.9-.9-3.9-3.9z"/><path fill="#e6e6e6" d="m332.7 425.3h3.2v15h9.4v2.9h-12.5v-17.9z"/><path fill="#e6e6e6" d="m355.5 443.1v-1.7c-.9 1.1-2.3 2-4.4 2-2.6 0-4.8-1.4-4.8-4.2 0-3 2.3-4.4 5.4-4.4 1.7 0 2.6.2 3.7.5v-.2c0-1.9-1.2-2.9-3.3-2.9-1.5 0-2.6.3-3.9.8l-.8-2.5c1.5-.7 2.9-1.1 5.1-1.1 4 0 5.9 2.1 5.9 5.7v8zm.1-5.6c-.8-.3-1.9-.5-3.1-.5-2 0-3.1.8-3.1 2.1s1.1 2 2.6 2c2 0 3.5-1.1 3.5-2.9z"/><path fill="#e6e6e6" d="m364.4 441.1v2.1h-3.1v-18.7h3.1v7.4c1-1.4 2.4-2.5 4.5-2.5 3.2 0 6.3 2.5 6.3 7s-3.1 7-6.3 7c-2.1 0-3.5-1.1-4.5-2.3zm7.7-4.7c0-2.6-1.7-4.3-3.9-4.3-2.1 0-3.9 1.7-3.9 4.4 0 2.6 1.8 4.3 3.9 4.3 2.2 0 3.9-1.7 3.9-4.4z"/><path fill="#e6e6e6" d="m376.5 441.4 1.4-2.1c1.4 1.1 3 1.7 4.4 1.7s2.1-.5 2.1-1.5-1.3-1.4-2.8-1.8c-.1 0-.2-.1-.2-.1-2-.6-4.2-1.4-4.2-4s2.1-4.1 4.8-4.1c1.7 0 3.5.6 5 1.5l-1.2 2.2c-1.3-.8-2.6-1.3-3.8-1.3s-1.9.5-1.9 1.4 1.3 1.4 2.8 1.8c.1 0 .2.1.2.1 2 .6 4.2 1.5 4.2 4 0 2.9-2.2 4.2-5 4.2-2 0-4.1-.7-5.8-2z"/><path fill="#e6e6e6" d="m505.1 434.2c0-5.1 4.1-9.2 9.3-9.2s9.2 4.2 9.2 9.2-4.1 9.2-9.3 9.2-9.2-4.1-9.2-9.2zm17.4-.1c0-4.5-3.5-8.2-8.2-8.2s-8.2 3.7-8.2 8.3c0 4.5 3.5 8.2 8.2 8.2s8.2-3.7 8.2-8.3zm-13.1-.1c0-2.8 2.1-5.1 5.1-5.1 1.9 0 2.9.6 3.9 1.5l-1.4 1.7c-.8-.7-1.5-1.1-2.5-1.1-1.7 0-2.8 1.4-2.8 3.1s1.1 3 2.8 3c1.1 0 1.7-.5 2.5-1.1l1.4 1.4c-1.1 1.1-2.1 1.7-4 1.7-2.9.1-5-2.2-5-5.1z"/><path fill="#e6e6e6" d="m525 425.3h3.4l4.2 13.2 4.4-13.3h2.6l4.4 13.3 4.2-13.2h3.3l-6.2 18h-2.7l-4.4-12.8-4.4 12.8h-2.7z"/><path fill="#e6e6e6" d="m551.2 436.4c0-3.9 3.1-7 7.2-7 4.2 0 7.2 3.2 7.2 7s-3.1 7-7.3 7c-4.1 0-7.1-3.1-7.1-7zm11.2 0c0-2.3-1.7-4.3-4.2-4.3s-4.1 2-4.1 4.3 1.7 4.3 4.1 4.3c2.7.1 4.2-1.9 4.2-4.3z"/><path fill="#e6e6e6" d="m567.8 429.7h3.1v3c.8-2 2.4-3.4 4.8-3.3v3.2h-.2c-2.7 0-4.6 1.7-4.6 5.4v5.1h-3.1z"/><path fill="#e6e6e6" d="m577.5 424.5h3.1v11.1l5.6-6h3.8l-5.4 5.5 5.5 8h-3.5l-4.1-5.8-1.9 2v3.9h-3.1z"/><path fill="#e6e6e6" d="m590.1 436.4c0-3.9 3.1-7 7.2-7 4.2 0 7.2 3.2 7.2 7s-3.1 7-7.3 7c-4.1 0-7.1-3.1-7.1-7zm11.2 0c0-2.3-1.7-4.3-4.2-4.3s-4.1 2-4.1 4.3 1.7 4.3 4.1 4.3c2.6.1 4.2-1.9 4.2-4.3z"/><path fill="#e6e6e6" d="m606.5 438.2v-8.6h3.1v7.6c0 2.1 1.1 3.3 2.9 3.3s3-1.3 3-3.3v-7.6h3.1v13.4h-3.1v-2.1c-.8 1.3-2.1 2.3-4.2 2.3-3 .2-4.8-1.8-4.8-5z"/><path fill="#e6e6e6" d="m622.2 439.4v-7.1h-1.7v-2.6h1.7v-3.7h3.1v3.7h3.6v2.6h-3.6v6.6c0 1.2.6 1.7 1.7 1.7.7 0 1.3-.2 1.9-.5v2.5c-.8.5-1.7.7-2.8.7-2.3 0-3.9-.9-3.9-3.9z"/><path fill="#e6e6e6" d="m631.5 425.3h3.2v15h9.4v2.9h-12.5v-17.9z"/><path fill="#e6e6e6" d="m654.3 443.1v-1.7c-.9 1.1-2.3 2-4.4 2-2.6 0-4.8-1.4-4.8-4.2 0-3 2.3-4.4 5.4-4.4 1.7 0 2.6.2 3.7.5v-.2c0-1.9-1.2-2.9-3.3-2.9-1.5 0-2.6.3-3.9.8l-.8-2.5c1.5-.7 2.9-1.1 5.1-1.1 4 0 5.9 2.1 5.9 5.7v8zm.1-5.6c-.8-.3-1.9-.5-3.1-.5-2 0-3.1.8-3.1 2.1s1.1 2 2.6 2c2 0 3.5-1.1 3.5-2.9z"/><path fill="#e6e6e6" d="m663.3 441.1v2.1h-3.1v-18.7h3.1v7.4c1-1.4 2.4-2.5 4.5-2.5 3.2 0 6.3 2.5 6.3 7s-3.1 7-6.3 7c-2.2 0-3.6-1.1-4.5-2.3zm7.7-4.7c0-2.6-1.7-4.3-3.9-4.3s-3.9 1.7-3.9 4.4c0 2.6 1.8 4.3 3.9 4.3s3.9-1.7 3.9-4.4z"/><path fill="#e6e6e6" d="m675.3 441.4 1.4-2.1c1.4 1.1 3 1.7 4.4 1.7s2.1-.5 2.1-1.5-1.3-1.4-2.8-1.8c-.1 0-.2-.1-.2-.1-2-.6-4.2-1.4-4.2-4s2.1-4.1 4.8-4.1c1.7 0 3.5.6 5 1.5l-1.2 2.2c-1.3-.8-2.6-1.3-3.8-1.3s-1.9.5-1.9 1.4 1.3 1.4 2.8 1.8c.1 0 .2.1.2.1 2 .6 4.2 1.5 4.2 4 0 2.9-2.2 4.2-5 4.2-2 0-4.1-.7-5.8-2z"/></g>
</svg>
