<?xml version="1.0" encoding="utf-8"?>
<!-- Generator: Adobe Illustrator 23.0.1, SVG Export Plug-In . SVG Version: 6.00 Build 0)  -->
<svg version="1.2" baseProfile="tiny" id="Layer_1" xmlns="http://www.w3.org/2000/svg" xmlns:xlink="http://www.w3.org/1999/xlink"
	 x="0px" y="0px" viewBox="0 0 900 600" xml:space="preserve">
<g>
	<path d="M176.18,107.8c-0.03-0.01-0.02-0.06-0.03-0.1C176.09,107.69,176.09,107.71,176.18,107.8z"/>
	<path d="M179.53,104.85c-2.25,0.34-3.47,2.4-3.39,2.85C176.41,107.72,178.03,108.23,179.53,104.85z"/>
	<path d="M172.11,223.55l0.1-0.1C172.17,223.32,172.17,223.32,172.11,223.55z"/>
	<path d="M291.82,333.39c-2.03-4.17-4.37-7.32-9.76-7.02c-1.12-4.78-4.78-7.83-7.02-11.6c1.78-4.99-0.67-2.41,25.43-4.78
		c1.12-3.15,1.76-5.81,0.51-8.75c-1-2.35,0-3.25,3.05-2.75c0.1,2.44,2.84,4.07,2.14,6.71c-0.62,2.34-0.71,4.78-0.81,7.83
		c-4.37,0.92-8.85-1.22-13.02,0.41c2.84,4.91,8.24,1.45,15.87,2.54c1.62,0.23,2.64-1.31,4.27-1.02c4.67,0.84,5.8-0.1,6.41-4.58
		c2.95,0.31,6,0.51,8.65-1.02c3.21-5.27,1.31-10.94-7.12-10.37c-6.75-14.43-19.22-13.26-21.66-17.49
		c-2.46-4.26-5.48-8.34-6.51-13.22c-1.81-8.55-5.59-16.68-6.51-25.43c-0.71-6.71-3.48-13.12-4.17-19.94
		c-1.64-16.25-11.73-14.91-11.09-22.68c0.01-0.1,0.65-29.32-1.63-38.14c-7.26-28.12,6.99-40.05-20.65-51.57
		c-8.77-3.66-9.15-11.01-7.22-24.82c0.58-4.18,2.73-3.11,3.66-2.95c5.19,0.51,10-2.23,10.48-6.31c0.44-3.76-0.81-7.83,1.93-11.19
		c0-9.7,0.09-8.35-0.31-9.36c3.05-2.75,3.03-2.84,1.42-6.31c-1.03-2.23-2.54-4.57-1.12-7.22c4.32-8.08,0.08-11.03,0.61-14.75
		c1.63-2.64,4.58-3.56,6.71-5.59c-1.53-1.02-1.22-2.85-2.54-3.56c-1.53-0.1-2.44,1.32-4.07,1.02c2.44-2.24,6-2.24,7.73-5.49
		c-1.83,0-2.75,1.63-4.27,1.42c-0.2-1.02-0.31-1.93-0.51-2.85c-6.13-2.19,3.24-3.26-13.32-1.42c5.72-4.76,19.08-3.14-12.71-4.98
		c1.12-0.71,1.63-1.12,1.22-2.54c-5.29,0.92-10.78-0.2-16.27,2.03c-1.83-1.32-5.63-0.84-7.02,1.53c-0.94,1.61-2.44,2.33-3.56,2.03
		c-1.93-0.52-4.17,0-5.8-1.63c-1.02-1.02-2.64-1.93-4.17,0c1.42,1.63,4.17,1.32,4.78,3.66c-1.93,0.31-4.07-1.12-6,0.51
		c0.71,2.24,3.05,2.14,4.48,3.05c-0.61,2.44-2.85,1.12-4.07,1.93c0,1.12,1.3,1.41,0.71,2.85c-2.55,6.26-2.08,13.02-2.34,19.63
		c-0.06,1.63,1.42,3.05,1.02,4.58c-2.32,8.87,7.22,14.47,6.2,34.07c-0.45,8.73-2.66,8.03-24.31,19.12
		c-4.36,2.23-5.49,6.09-14.24,9.36c-9.85,3.68-6.9,8.82-12.92,10.07c-3.4,10.19-6.49,20.66-0.71,29.7
		c2.71,4.25-1.75,10.61-0.41,20.85c3.18,24.23,10.37,22.72,11.29,34.89c0.72,9.57,3.07,6.35,9.62,21.47
		c0.37-1.07,0.59-2.2,0.04-3.16c-1.68-2.92-1.71-6.42-3.56-9.26c-4.2-6.42-4.13-14.17-6.92-18.41c-2.82-4.29-4.65-8.96-6.2-13.83
		c-6.65-20.86,1.63-25.35-2.14-33.97c-1.11-2.55-1.53-5.19-1.63-7.93c1.32,2.44,1.84,5.18,3.36,7.53c3.1,4.81,8.7,8.96,13.22,8.44
		c-3.46-2.42-11.71-4.31-14.54-15.97c-0.41-1.32-1.53-1.83-2.54-2.24c-0.2-5.8,0.92-11.19,2.54-16.48c4.48-2.34,6-8.24,11.29-9.56
		c0.81,0.51,0.1,1.83,1.42,1.83c2.02-3.88,8.32-0.17,9.53-2.59c-2.11-0.85-4.51-0.77-7.39-1.37c7.42-3.46,13.12-8.54,20.04-11.6
		c12.16,15.6,20.38,20.44,22.07,29.29c2.27,11.89,4.4,14.8,1.93,19.02c-2.6,4.45-6.13,15.58-8.65,16.48
		c-0.31-1.32-1.93-1.32-2.24-2.54c0.1-1.53,1.37-2.64,1.32-4.88c-0.02-0.92-1.83-0.71-2.14-1.53c-0.2-2.75,2.03-5.39-0.81-7.63
		c2.03-4.37,2.54-9.15,3.66-13.83c-2.34,2.03-2.14,5.29-3.97,8.04c-0.1-2.24,0.81-4.07,0.2-6c-1.42,4.88-3.36,9.56-7.22,12.92
		c1.73,17.8,0.41,35.19-3.15,52.48c-1.53-0.41-1.53-2.64-3.76-2.44c9.68,15.27,4.29,21.98,9.97,33.16
		c3.98,7.83,4.24,31.76,5.49,37.12c1.28,5.5,3.73,10.79,4.68,16.48c0.49,2.95,2.23,5.4,4.37,7.22c3.14,2.66,3.15,6.1,3.76,9.66
		c-1.83-0.1-2.95-1.32-4.58-1.02c-1.02,7.12,4.78,9.76,8.95,13.12c0,5.59-1.84,2.97-9.76,0.2c-5.36-1.87-6.17-8.62-12.71-9.76
		c0.98,3.32,4.84,3.57,7.73,9.36c-4.17-0.41-8.04,0.31-12.1-0.81c1.93-2.85,1.73-5.59-0.1-8.34c1.63-0.41,3.15,0.71,4.48-0.2
		c-0.65-3.9,2.53-6.86-0.1-11.7c-3.04-5.6-5.78-11.61-9.56-16.78c-18.02-24.69-17.72-53.1-19.63-57.87
		c-3.29,6.26,3.77,29.8,6.2,36.51c3.3,9.1-4.82-9.35-10.37,64.59c-0.56,7.43-0.33,14.95-1.32,22.38c-0.42,3.15-0.19,6.2,0.81,9.26
		c1.5,4.59,1.45,2.88,0.41,25.83c-0.55,11.97-2.34,5.73-2.75,21.66c4.68-0.41,8.95,1.01,13.22-0.71c3.76-1.51,6.16,4.3,10.37,1.42
		c2.34,2.44,0.71,6.1,3.56,7.93c-0.61,0.51-1.12,0.92-1.63,1.42c0.61,0.41,1.03,0.81,1.02,1.42c-0.5,26.32-6.87,25.56-8.95,44.96
		c-2.85,26.56,3.42,21.47,5.9,38.14c4,26.89,4.98,55.43,4.07,63.06c-1.12,0.71-2.54,0.1-3.05,0.71c-5.54,8.18,0.37,11.8-3.05,16.07
		c-1.63,2.03-2.34,4.37-2.75,6.71c-0.82,4.78-3.76,9.56-0.71,14.75c1.2,0.95,16.35,5.21,22.99,4.58c7.3-0.69,8.08,3.95,25.94,5.19
		c9.62,0.67,29.2-1.23,30.51-10.78c0.2-1.02-0.2-2.14,1.02-2.75c1.56-0.17,0.56,1.2,4.07,1.73c13.24,2,35.98-5.96,34.99-10.27
		c-1.14-4.94-1.58-12.07-5.9-12.61c-11.45-1.44-16.95-1.03-24.61-7.63c-4.37-3.76-7.91-8.37-12.41-12
		c-2.53-2.05-5.39-4.27-4.07-7.93c-0.81-1.73-2.44-1.42-3.36-2.24c-1.8-12.24,5-99.37,8.24-110.76c2.12-7.44-1.91-8.82-0.51-13.22
		c4-12.6,0.97-15.46,4.37-15.46c3.47,0,13.53-3.34,14.14-6.61c1.85-9.96-0.93-17.35-1.73-20.55c-5.46-21.8-2.26-40.7-4.47-54.11
		c1.53,0,0.98-0.13,0.6-0.41c1.12-2.34,2.83-1.41,3.66-0.2c2.13,3.1,8.91,10.91,11.39,18.1c-5.47-2.74-0.88-3.98-4.68-6.51
		c-5.24-4.11-9.46-10.6-9.7-10.86c-0.54,3.23,4.87,9.12,7.77,11.37c4.99,3.87-0.67,5.11,8.04,9.97c9.45,5.27,4.92,2.13,101.92,88.18
		c2.46,2.18,4.66,4.64,5.7,1.53C389.68,421.22,297.94,345.97,291.82,333.39z M200.08,22.77c-0.71-0.92-0.1-1.32,0.92-1.42
		C200.69,21.75,200.38,22.26,200.08,22.77z M312.88,313.56c1.83-1.83,0.41-4.37,1.53-6.51c2.54,1.12,1.32,3.56,2.44,5.09
		C315.62,313.46,314.61,314.07,312.88,313.56z M322.24,300.85c3.66,0.41,4.78,2.44,3.97,6.81
		C313.21,310.4,324.47,305.63,322.24,300.85z M321.02,302.07c0,2.03-1.42,3.05-2.34,4.37c-1.32,0.2-1.22-2.14-2.95-1.53
		c0.71-1.02,1.42-2.03,2.14-3.05c0.1-1.22-1.53-1.53-0.61-2.95C318.98,299.42,319.69,301.25,321.02,302.07z M273.92,210.73
		c6.63,7.69,3.48,14.34,9.05,28.28c1.58,3.96-2.31-3.21,5.59,23.39c3.3,11.09,0.43,6.11,6.51,18.41c2.55,5.15,12.88,5.54,17.9,10.98
		c0.73,0.79,2.14,0.92,3.56,1.53c0.31,1.42,0.51,2.64,0.71,3.87c-2.38,2.38-3.66,0.12-2.54-1.93c-6.74,0.52,1.69,5.86-1.83,9.97
		c-1.93,2.24,1.42,6.41-2.44,8.65c-0.51-5.8,3.15-11.19-0.41-16.68c-11.69,0,4.7,0.06-0.41,10.27c-0.84,1.68,0.76,7.38-3.56,6.81
		c0.18-1.47,3.93-18.02-5.49-18.41c-0.71-0.71-0.61-1.83-1.22-2.95c-1.73,2.14,0.92,4.27-0.31,6.1c-4.37,1.83-8.95-0.41-13.32,0.61
		c-0.51-0.61-0.51-1.22-0.41-2.03c0.92-0.61,2.24,0.71,3.25-0.51c-1.12-1.32-3.05-0.71-4.27-1.93c0.31-7.12-4.53-12.59-6.81-19.02
		c-0.94-2.64-1.02-5.59-3.05-7.83c0.61,0.31,1.12,0.51,1.73,0.81c0-0.31,0.1-0.61,0-0.71c-11.75-10.35-17.66-32.27-21.46-34.79
		c-4.1-2.72,1.63-27.36,1.22-28.17c-1.55-2.72,1.2-2.58,4.78-16.27c0.81-3.1-0.9-0.46,0.1-15.46c3.15-3.25,4.88-3.97,4.48-17.19
		C273.39,174.52,261.95,196.85,273.92,210.73z M283.79,299.83c-5.9,0.41-11.39,0.81-17.19,1.22c-5.32-34.98-13.75-31.03-13.63-42.52
		c0.02-1.53-0.1-3.36-2.14-3.36c-0.41-7.22,1.53-13.93,1.53-21.66C277.35,286,274.73,269.63,283.79,299.83z M263.45,145.33
		c-9.36-8.95-12.41-20.04-15.16-32.04C263.07,117.66,265.3,129.97,263.45,145.33z M255.51,13.92c-0.1,0.92-0.61,1.02-1.32,0.71
		C254.19,13.61,254.7,13.51,255.51,13.92z M253.99,18.8c-1.32,1.22-2.24,2.03-4.27,1.02C251.24,19,252.26,18.39,253.99,18.8z
		 M237.51,13c-0.31,1.12-1.32,0.92-2.14,1.22C235.88,13.51,236.29,12.59,237.51,13z M233.75,23.68c-0.81,0.2-1.53,0-2.34-0.51
		C232.53,22.66,233.14,23.17,233.75,23.68z M226.93,15.75c-0.2,1.02-0.61,1.12-1.12,1.02C225.61,15.95,226.32,16.05,226.93,15.75z
		 M220.63,29.38c0.71,0.71,0.92,1.32,0.2,2.03C219.71,30.8,219.91,30.19,220.63,29.38z M214.83,10.15c0.54-0.13,1,0.24-0.31,1.22
		C214.32,10.56,214.52,10.36,214.83,10.15z M207.81,40.57c2.03,0,2.75,1.93,4.17,2.44c1.86,9.32,0,6.82,0,6.71
		C213.2,45.55,210.25,43.31,207.81,40.57z M209.54,47.58c0-1.12-1.53-1.83-1.12-3.15C210.15,45.75,210.15,45.75,209.54,47.58z
		 M212.79,25.41c0,1.93,0,1.93-2.64,1.83C210.76,26.12,211.57,25.51,212.79,25.41z M210.15,14.53c-1.42,0.51-2.03,0-3.05-0.2
		C208.32,13.2,208.83,14.32,210.15,14.53z M206.39,44.53c-0.71-1.02-1.02-1.83,0.51-1.93C207.5,43.31,207.1,43.82,206.39,44.53z
		 M206.08,21.85c-0.1,0.92-0.41,1.42-1.32,1.93C204.76,22.77,205.17,22.26,206.08,21.85z M204.66,35.38
		c0.41,1.02-0.41,1.42-1.63,2.34C203.74,36.39,203.84,35.68,204.66,35.38z M202.22,45.24c1.51,0.15,5.72-3.49,0.61,4.17
		C202.62,47.68,202.42,46.67,202.22,45.24z M203.94,54.6c0.71,0,0.81,0.41,0.71,1.02C203.84,55.62,203.74,55.21,203.94,54.6z
		 M203.23,59.79c0.71,0.31,0.92,0.61,0.92,1.12C203.33,61.21,203.33,60.7,203.23,59.79z M197.54,89.39
		c11.84-4.36,6.82-22.8,9.46-30.72c1.73-0.61,2.14,1.22,3.05,1.42c1.22,0.41,1.73-0.61,2.75-0.51c0.41,1.93,1.27,3.96,1.22,6
		c-0.13,5.03,7.35,8.2,12,8.34c-3.87-2.03-7.12-4.37-10.07-6.61c-1.73-4.07,0.61-9.36-3.87-12.21c-1.12,0.61-0.61,1.63-1.22,2.54
		c-1.42-1.63-3.66-2.34-3.97-4.68c-0.31-1.32-1.73-1.32-2.44-2.54c-0.2-1.53,1.12-2.54,1.53-4.17c1.09,0.25,2.75,1.93,3.36,1.32
		c0.15,0.15,0.14,0.1-0.08,0.1c-2.83,3.71-0.27,5.9,3.84,5.39c0.81-1.32-0.1-2.03-0.31-2.75c0.71,0,1.22,0.71,2.14,0.41
		c1.78-1.07-1.89-5.69,7.02-13.53c7.67-6.75,2.12-4.89,2.24-6.71c1.12-0.61,2.44,0.41,3.66,0.1c1.42-2.44,3.87-3.66,6.31-4.88
		c0.48-0.67-0.39-1.17-0.32-1.82c-0.16,0,0-0.15,0,0c7.8,1,7.47-2.76,12.22-1.64c9.73,2.29,7.79-3.68,11.09,12.82
		c-0.69,1.08-2.8,0.17-2.65,1.95c2.78,0.57,1.24,2.83,0.21,2.42c-1.43-0.57-0.45-1.51-0.32-2.29c-1.76,0.47-1.09,1.82-0.8,2.9
		c4.71,17.91,5.72,9.79,1.63,15.05c-0.51,2.03,0.41,4.07,0.1,6.1c-3.36,0.81-6.92,0.61-10.07,2.34c3.15,1.83,6.51-0.61,9.66,0.41
		c1.12,2.8-2.76,2.71-1.73,11.29c0.75,6.25-4.65,4.4-12.41,5.7c-3.66,10.37-3.15,20.75,1.22,30.82c-1.6,1.78-3.3-0.31-4.88,1.12
		c3.18,3.78,5.97-3.15,6.92,5.09c0.48,4.16,0,8.24,0,12.41c0,7.05-17.7,4.21-25.22-9.76c-3.06-5.69-7.49-10.5-10.37-16.38
		c-0.66-1.34-9.84-8.68-15.16-12.41C194.79,90.91,196.12,89.91,197.54,89.39z M200.79,163.94c-1.12,1.73-2.85,2.54-4.58,4.17
		c-0.31-2.03-0.1-3.87-0.1-6C198.25,161.81,199.47,162.72,200.79,163.94z M197.84,147.26c-0.41,1.63-0.92,3.15-1.63,5.39
		C194.79,149.8,196.52,148.58,197.84,147.26z M210.45,285.59c-5.39-3.41-9.8-51.92-13.93-62.65c3.36-0.31,5.9,1.22,9.15,1.22
		c-6.36-3.18-10-1.45-10.37-5.39c-0.71-7.49-1.08-12.08-3.46-16.78c-1.34-2.64,0.41-4.68,0.81-7.22c2.44,0.71,4.68,1.73,7.32,0.92
		c-2.44-1.22-5.19-1.12-7.22-3.05c3.78-14.88,0.69-22.3,5.09-22.07c2.17,0,2.97-3.73,5.49-4.78c5.59-0.71,10.68,2.85,16.27,1.12
		c-2.34-2.24-5.37,0.17-7.53-1.32c-1.17-0.81-7.66-1.76-6.51-4.07c11.86-14.4,11.33-33.3,4.37-44.65
		c-4.38-7.14-18.42-21.31-20.14-22.17c0.41-1.53,1.12-1.73,1.83-2.14c16.69,11.01,16.29,14.95,28.48,33.46
		c6.43,9.76,26.18,14.12,25.83,4.88c-0.68-18.29-0.58-14.96-3.25-20.85c4.4,2.51,3.78,4.68,6.81,16.58
		c1.92,7.53,7.31,13.31,12.71,20.04c2.31,2.88,0.18,7.82,0.51,11.8c1.02,12.3-6.33,12.29-4.68,25.33c0.92,7.31-5,18.23-4.98,20.55
		c0.05,7.73-2.2,15.15-2.03,22.99c0.27,13.12-4.42,21.59-2.34,28.89c-3.09,3.31-41.99-2.92-44.55-4.88
		c-3.12,4.68,4.52,2.96,18.71,6.51c-0.2,1.63-1.83,0.51-2.44,1.32c-0.31,0.81-0.81,1.63-0.2,2.54c0.71,0.41,0.71-0.31,1.02-0.71
		c0.81,0.41-0.1,1.53,0.81,1.93c0.81,0.1,0.81-0.71,1.22-1.02c0.71-0.1,0.41,1.02,1.12,0.92c1.73-1.02,2.24-2.85,2.85-4.78
		c11.59,1.12,9.26-0.72,9.26,3.56c-2.85,0.61-5.7-0.1-8.54,0.1c2.54,1.12,5.19,0.72,7.83,0.41c2.44-0.29,3.76-3.66,6.81-2.95
		c0,2.91-5.83,1.88,5.7,4.88c1.83-1.53,1.12-3.87,2.24-5.7c1.32,5.9,3.76,11.09,6.61,16.17c6.52,11.66,4.69,22.34,7.32,26.45
		c-11.09-0.31-21.56-1.42-32.34-1.32c-4.78-11.09-7.53-22.48-9.76-34.07c0.1,11.6,3.36,22.58,7.53,33.26
		c-6.31,1.02-8.34,0.81-13.93-1.22C216.35,292.61,214.86,288.38,210.45,285.59z M246.16,259.75c-0.61,0.41-1.12,0.81-1.83-0.1
		C244.93,259.25,245.44,258.64,246.16,259.75z M211.57,298.51c3.77,2.75,4.3,6.54,4.96,6.76c2.74-0.72-1.63-3.55-0.9-5.75
		c2.85,0,4.58,1.22,4.88,4.07c0.31,2.85,3.25,5.29,1.22,8.54c1.73,0.2,1.42-1.53,2.34-1.83c0-1.28,0-2.47,0-3.76
		c1.62,0,0.91-0.1,0,3.87c0.29,4.74-4.73,3.91-3.97,3.15C224.94,302.64,211.86,309.58,211.57,298.51z M215.34,315.39
		c-0.92,0.31-1.63,0.41-2.34-0.1C213.61,313.87,214.32,314.58,215.34,315.39z M186.25,559.6c0.67-8.01-3.87-3.95,17.49-1.32
		c-6.7,3.47-5.4,10.4-11.6,8.04c-2.22-0.85-4.48-1.32-5.9-3.46c0.81-1.42,1.83,0.71,2.44-0.51
		C188.38,561.13,186.86,561.03,186.25,559.6z M254.9,582.69c-0.51,2.85-0.41,5.8-1.63,8.85c-28.4,13.33-43.38-0.22-52.79,0.2
		c-7.62,0.34-14.85-1.53-21.66-4.98c0.2-7.73,6.31-13.63,5.59-22.07c4.31,4.31,12.03,7.32,15.05,2.03c1.99-3.48,4.58-6.31,8.24-8.65
		c-1.63-1.02-2.44-2.54-4.37-2.44c-1.42,0-2.34-1.02-2.64-2.34c-0.61-2.64-2.44-4.98-1.53-8.04c-2.24,2.75-0.81,5.9-1.53,8.95
		c-2.95,0.41-5.59-0.92-8.75-1.53c4.49-4.04-1.14-11.08,0.1-20.04c1.43-10.35-2.03-32.14-2.03-32.24
		c-2.35-26.83-10.5-26.04-7.93-45.57c3.25-24.71,14.46-41.06,8.85-57.16c-0.39-1.12-1.12-2.34-0.81-3.76
		c9.85-1.53,12.97,1.97,32.65,2.95c2.54,0.13,4.88-1.93,7.73-1.53c1.5,10.97-8.52,15.32-6,27.16c0.91,4.27-1.73,7.53-2.85,11.19
		c-0.1,0.51-1.42,0.2-1.63,1.73c-0.06,1.83-1.3,23.48-3.76,35.8c-0.32,1.62,0.32,3.16,0.1,4.78c-4.06,30.19-1.63,60.61-1.73,66.62
		c-0.09,4.95-1.95,2.26-3.66,3.46c-3.76,5.39-3.97,6.92-1.42,8.34c0.92-2.03,1.73-4.27,3.15-6.31c1.83,0.81,3.97,0.41,6.41,0.92
		c0.1,7.32,5.9,10.37,11.6,13.73c-2.03,2.03-4.17,0.1-5.8,1.32c-0.81-0.81,0.61-1.42,0-2.14c-5.75-1.87-30.37,4.04-16.17,4.98
		c1.63,0,3.15-0.92,4.88-0.61c-1.42,1.63-4.07,1.22-5.29,3.36c0.71,1.93,2.44,2.02,3.97,1.73c25.71-4.81,17.66-6.35,21.56-5.7
		c-0.41,1.32-1.73,2.24-1.02,3.46c-3.87,1.73-8.65,0.61-11.39,4.48c0.2,1.02,0.91,1.42,1.53,1.22c4.37-1.44,9.15-1.22,13.32-4.17
		c16.11,7.32,0.21,0.75,1.42,6.81c3.46-0.61,7.12,0.61,10.07-1.83C252.84,579.15,255.66,579.47,254.9,582.69z M218.9,542.92
		c-1.12,0.81-2.03,2.03-2.44,3.56c-2.24-0.41-2.85-1.83-2.85-3.56c0-9.32-2.64-35.81,1.63-58.48c3.34,10.03,3.59,22.45,4.48,26.65
		C222.26,523.12,217.57,534.09,218.9,542.92z M247.07,538.34c-0.51,3.36-0.01,6.03,3.36,7.63c1.52,0.72,2.64,2.44,3.87,3.76
		c-4.48,4.48-11.19,3.56-16.27,6.71c2.85,3.76,12,3.66,22.89-0.1c1.53,1.32,3.15,2.85,4.88,4.27c-1.22,0.92-1.93,0.71-3.15-0.31
		c-6.34-5.25-16.58,3.57-8.14,2.03c7.17-1.3,1.2,0.98,0.81,2.14c3.15,2.95,5.7-1.53,8.65-0.92c0.1,1.02-1.12,1.53-0.71,2.54
		c2.64,2.14,4.78,1.22,6.41-3.15c6.41,4.37,14.24,3.05,21.36,5.09c2.24,2.95,2.03,6.61,2.75,9.97c-6.61,4.58-22.48,9.87-34.68,6.41
		c-0.58-10.17-11.74-8.13-21.87-16.88c-13.95-12.06-16.3-10.11-17.09-14.24c7.43-1.77,11.99,5.34,19.02-6.1
		C237.19,535.02,241.97,541.11,247.07,538.34z M220.63,546.28c3.56-1.32,6.92,1.02,10.48,0.1c2.89,8.18-6.72,2.64-9.97,2.64
		C220.52,548.31,220.52,547.4,220.63,546.28z M233.24,550.24c0-1.63,0-2.64,0-3.56c0.81-0.71,1.63-0.81,2.75-0.1
		C235.78,548.31,234.46,548.92,233.24,550.24z M269.65,372.04c1.61,5.6,1.42,11.19,0.71,17.09c-20.09,9.49-26.39,2.15-31.43,6.61
		c4.98,2.54,10.48,0.2,15.66,1.22c0,12.02-4.05,13.73-2.24,20.34c0.81,2.95-0.44,5.99-1.12,8.85c-5.09,21.4-6.1,89.72-8.04,102.53
		c-0.39,2.55,1.63,5.09,0.71,7.93c-1.73,0.81-3.76-0.1-5.59,0.61c-1.93,1.53-1.53,3.87-1.93,6.2c-4.88-0.41-9.66-0.1-14.54-1.32
		c-0.51-2.75-0.37-5.48,0.2-8.34c6.44-32.26-7.29-52.13-4.48-65.2c1.88-8.74,1.35-17.7,2.03-26.55c0.78-10.14,6.4-13.83,4.07-20.95
		c-3.12-9.54,8.26-14.64,6.41-25.94c3.36-2.14,7.53,0.31,10.98-2.44c-3.15-14.95-2.44-30.41-3.76-45.77
		c-2.32,8.22-0.34,35.32,0.2,43.84c-2.64,1.42-5.5,0.68-8.04,1.32c-23.02,5.83,5.62-2.51-67.23-0.31c-0.51-1.22-0.1-2.34-0.1-3.36
		c0.41-0.71,0.71,0.2,1.63-0.2c0-0.1,2.71-33.77,1.93-37.12c-3.81-16.35,2.39-54.09,2.03-67.94c-0.1-3.82,0.95-21.27,7.02-26.85
		c-0.51,4.58,0.2,9.05-0.71,13.53c3.95-6.73,0.42-14.08,4.88-5.8c-8.22,18.85-4.01,8.63-3.56,15.87
		c1.79,28.77-5.63,25.87-1.22,49.84c0.59,3.21,0.35-0.55-1.63,19.22c-1.16,11.65,2.77,9.4,1.42,16.58c-1.43,7.63,0.15,15.25,0,22.78
		c-0.01,0.41,0.1,0.92,1.12,1.02c1.11-11.14-1.36-14.56-0.2-22.78c0.92-6.55-3.08-8.6-0.92-21.46c3.08-18.26-2.39-29.24,2.85-45.97
		c1.06-3.4-0.01-8.46,1.02-14.75c0.52-3.15-0.1-6.51-2.44-9.26c1.53-2.95,3.15-5.8,4.78-8.85c4.88,6.2,8.72,12.73,12.41,19.43
		c2.02,3.67,2.24,7.53,1.32,12.51c-5.4,0-12.13-0.89-12.31,5.9c-0.11,3.97,2.75,6.71,6.41,6.71c5.09,0,10.06,1.05,15.16,0.51
		c3.25-0.35,6,0.51,8.85,1.93c-0.41,1.83-1.32,2.85-2.34,3.86c-4.37-0.92-8.75-1.53-12.82-3.66c2.85,4.98,8.65,3.76,12.51,5.7
		c1.53,0,1.83-1.32,2.54-1.83c4.68,2.03,10.27-0.1,13.43-4.98c18.59,0,19.79-1.93,20.55,2.34c1.75-4.38,5.17-2.66,8.24-3.46
		c5.58-1.46,5.64,5.41,10.48,4.48C267.31,333.75,262.85,348.33,269.65,372.04z M191.33,305.22c0,3.76-3.56,3.25-5.59,4.37
		c-3.15-3.76-2.95-6.51,1.02-9.56C189.3,300.85,191.33,302.27,191.33,305.22z M260.9,309.19c3.36,0,6.1,0,8.85,0
		C267.01,311.22,264.26,311.73,260.9,309.19z M257.65,308.58c0.31,0.68,1.37,0.05,2.05,1.48c0.42,0.23,0.77,0.53,0.97,1.01
		c2.86,0.74,5.13,3.17,5.58,3.17c1,0.25-4.36-0.05-6.29-3.34c-1.22-0.31-1.93-1.32-2.95-1.93c0.57-0.11,1.14,0.2,0.14-1.03
		c-0.32,1.84,0.49,0.41-1.77-0.09c-1.45,2.68-18.2,2.2-29.39,2.34c1.32-3.25,0.1-5.8-2.03-8.44c12.1-0.61,23.71-0.75,35.29,1.02
		c4.18,0.64,37.67-1.29,39.36-1.63c1.32,2.34,1.12,4.37,0,6.92c-7.53,0.71-15.16,1.02-22.78,1.22c-0.92-1.12-1.63-2.14-2.34-3.05
		C265.61,309.59,256.34,303.9,257.65,308.58z M273.41,312.75c-4.36-1.19-0.77-3.67-0.51-4.07
		C274.23,309.9,273.92,311.22,273.41,312.75z M285.62,333.7c1.42,0,1.63,1.12,2.24,1.73C287.04,335.33,285.92,335.43,285.62,333.7z
		 M282.87,328.11c3.87,0.61,4.88,2.95,5.8,5.49C287.65,331.26,284.3,331.26,282.87,328.11z"/>
	<path d="M260.56,311.05c-0.17-0.42-0.47-0.68-0.81-0.9C260.19,311.13,259.65,310.81,260.56,311.05z"/>
	<path d="M751.26,328c-1.76-3.53-101.65-136.77-101.51-139.04c4.48-3.46,8.85-7.12,14.95-7.93c9.02-1.2,14.18-5.64,19.53-6.92
		c2.04-0.49,3.46-1.32,2.95-3.66c3.76-0.41,6.07-2.14,6.1-4.68c0.05-4.17-3.36-4.98-6.41-5.9c-0.92-4.17-1.63-4.58-6.81-4.37
		c-2.85-2.75-3.36-2.85-5.59-0.81c3.76,0.31,5.41,2.64,6.41,5.8c2.88,9.08,2.84,1.33,4.58,10.88c-7.32,2.54-14.14,6.09-21.66,7.63
		c-5.3,1.08-7.18,3.27-15.16,8.85c-0.92-1.53-0.82-2.95-1.12-4.27c-1.76-7.9,1.84-3.36,4.17-8.24c-2.85-0.31-3.76,2.34-5.9,2.85
		c-3.41-2.13-2.7-1.55,5.49-5.8c2.87-1.49,2.14-5.29,4.58-6.92c4.35-0.69,4.63,3.84,8.75-1.22c0.92,0.1,1.42,1.22,2.44,0.81
		c0.1-1.32-1.01-1.93-1.22-2.95c-1.1-5.39-1.12-5.29-6.41-5.7c-0.1,0-0.2-0.41-0.41-0.92c6.67,0,7.91-0.62,9.46,2.54
		c1.34,2.74,2.03,5.59,1.42,8.75c4.46-4.46-0.81-9.97-1.21-12.85c-3.43-1.28-6.96-0.78-9.67-1.09c-1.83,0.51-1.63,1.93-2.85,2.75
		c-18.92-3.15-38.24-5.39-57.57-9.15c3.11-9.11-0.47-17.96-4.27-26.65c-7.92-18.08-32.25-4.96-22.88-40.89
		c19.84,1.8,9.88-10.75,15.16-17.19c0,0,0-0.2,0-0.31c-1.02-3.15,0.71-6.31-0.41-9.15c3.25-2.64,3.13-2.74,1.53-6.2
		c-1.03-2.23-2.53-4.57-1.12-7.22c1.84-3.45,2.42-6.91,1.32-10.68c-1.45-4.98-1.6-4.73,6.1-9.76c-1.73-0.92-1.22-2.95-2.64-3.87
		c-1.42,0-2.34,1.42-3.97,1.12c1.86-2.03,6.21-2.12,7.63-5.49c-1.83,0.2-2.75,1.53-4.17,1.42c-0.2-1.02-0.31-1.93-0.51-2.95
		c-5.13-2.37,1.58-3.36-13.53-1.32c2.44-2.14,5.59-1.32,7.32-3.97c-3.05,0.81-5.8-0.52-8.65-0.61c-12.95-0.42-9.76,0.05-10.88-0.51
		c0.15-0.45,3-2.67-2.44-2.14c-9.59,0.95-11.48-0.69-12.31,2.44c-6.61-4.72-8.75,4.73-11.6,3.05c-1.85-1.09-4.18,0.01-5.8-1.93
		c-0.92-1.11-2.64-1.83-4.07,0.41c10.36,5.49,1.1,1.98-1.12,4.07c0.92,2.14,3.15,1.93,4.58,2.95c-0.71,2.14-2.54,1.42-3.87,1.63
		c-0.71,1.32,1.21,1.72,0.51,2.95c-2.16,3.75-1.92,8.04-2.24,12.1c-1.06,13.57,1.84,10.56,0.81,12.61
		c-2.48,6.87,6.53,16.37,5.29,26.65c0,0.37,1.1,3.47,1.02,6.81c-0.22,9.04-2.87,8.65-24.51,19.73c-4.32,2.21-1.7,3.34-14.75,9.87
		c0.79,2.52-3.65,3.32-4.17,4.78c-1.97,5.49-15.97,13.95-11.19,31.73c1.56,5.79,3.23,11.18,1.93,17.19
		c-0.73,3.35,0.51,7.02-0.1,10.27c-2,10.72,7.78,18.45,8.54,32.85c0,0.29,1.65,9.45,7.93,12.31c4.13,1.88,0.69,3.35,9.26,8.95
		c1.64,10.67,4.37,15.62-1.42,23.6c-12.73,17.55-12.51,71.35-14.34,89.61c-0.78,7.79,2.98,10.34,1.83,17.8
		c-1.3,8.43,0.57,17.42-2.85,28.78c-0.85,2.84-0.81,6.1-0.41,9.26c4.27,0.51,8.25,1.26,12,0c6.27-2.11,5.64,3.75,11.7,1.12
		c12.71,16.94-16.28,55.79-3.76,81.47c7.31,15,8.39,67.53,7.53,75.27c-1.12,0.92-2.54,0.2-3.36,1.02c-1.73,2.85-2.76,5.6-2.03,9.05
		c1.43,6.82-8.28,16.95-4.48,27.87c1.82,1.59,16.57,5.76,24.41,5.09c6.57-0.57,8.89,4.35,26.55,5.19
		c8.89,0.42,27.72-2.06,28.78-10.98c0.12-1.02-0.41-2.34,1.42-2.95c0.71,0.61,1.42,1.75,2.64,1.73c5.14-0.08,9.35,3.88,29.8-4.88
		c5.09-2.18,6.46-3.44,6-5.39c-0.95-4.07-1.64-11.96-5.59-12.51c-13.21-1.84-16.49-0.8-25.53-8.14c-2.75-2.23-4.29-5.57-7.12-7.53
		c-3.48-2.41-6.2-5.49-8.95-8.75c0.92-2.95,0.2-4.98-3.05-5.39c-1.77-12.4,5.21-100.83,8.65-111.88c1.77-5.71-2.27-7.51-1.02-11.8
		c6.14-21.04-4.02-12.19,13.83-18.41c8.28-2.89,5.45-15.83,3.15-24.72c-7.09-27.39-0.47-39-6-77.61
		c-2.82-19.66-12.63-22.57-11.8-32.04c0.37-4.17-2.14-1.44-2.14-6.92c0-7,0.14,0.83,2.24-24.11c1.77-21.06,2.72-25.39,5.7-33.06
		c4.02-10.36,0.35-9.14,1.53-16.88c0.2-1.32,0.31-2.64,0-4.17c9.38-6.72,0.26-18.12,8.44-14.85c4.78,10.27,4.27,20.65-0.31,31.84
		c-1.53,1.53-4.27,3.56-5.19,7.12c4.29-6,11.48-7.13,13.83-8.54c6.25-3.12,8.82,3.02,29.9-7.53c1.12,0.71,1.83,1.42,2.14,2.44
		c-1.12,0.71-1.22,1.83-1.42,2.85c2.75,2.14,5.49,4.27,8.54,6.61c-13.8,11.42-18.39,19.66-26.55,21.26
		c-1.51,0.3-22.26,11.64-33.57,9.26c-0.61-0.2-1.53-0.2-1.63,1.02c4.98,2.49,12.75,0.85,17.9-0.92
		c36.47-12.49,33.97-22.38,44.35-28.99c0.08,0.1,101.4,137.41,102.12,138.13C750.21,331.55,752.35,329.54,751.26,328z
		 M684.23,163.53c-1.22-1.83-2.34-3.87-2.95-6.31C686.56,155.82,683.99,161.38,684.23,163.53z M686.47,162.31
		c4.27,0.61,5.09,1.53,4.37,5.59c-1.42,0.31-2.64,0.1-4.07-0.2C686.37,165.87,686.47,164.15,686.47,162.31z M530.14,19.51
		c-0.81-1.02,0-1.12,0.51-1.63C531.05,18.8,530.34,19,530.14,19.51z M596.86,146.75c-4.27-5.9-9.14-10.49-12.31-16.48
		c-3.24-6.11-3.66-13.02-6-19.63C591.32,113.61,600.58,130.73,596.86,146.75z M577.94,115.32c3.88,25.7,27.28,33.53,7.53,28.38
		c-4.98-6.2-12-7.73-18.72-10.07c1.42-0.92,3.25-0.53,4.88-1.12c5.78-2.07,4.51-3.17,4.07-17.6c-0.09-2.95-1.63-5.39-3.05-8.24
		C576.41,109.42,577.03,109.32,577.94,115.32z M585.57,10.76c-0.41,0.92-0.92,1.12-1.83,1.02
		C584.14,10.36,584.86,10.87,585.57,10.76z M584.04,15.65c-1.32,1.42-2.34,2.14-4.27,1.22C581.09,15.85,582.21,15.34,584.04,15.65z
		 M567.77,9.64c-0.61,1.12-1.32,1.32-2.34,1.42C565.94,10.15,566.34,9.44,567.77,9.64z M556.89,13.1c-0.31,0.41-0.61,0.51-1.12,0.31
		C556.07,12.7,556.38,12.7,556.89,13.1z M553.02,9.44c0.2,0.71-0.51,0.61-1.12,1.63C552.11,9.64,552.51,9.54,553.02,9.44z
		 M550.78,26.22c0.71,0.41,0.51,1.12,0.71,1.73C550.07,27.55,550.07,27.55,550.78,26.22z M538.37,41.18
		c1.32,0.61,1.83,1.22,1.63,2.54C538.78,43.31,538.27,42.6,538.37,41.18z M539.59,38.23c-0.2,0.1-0.2,0.2-0.31,0.31
		C536.55,37.62,538.57,36.17,539.59,38.23z M539.29,38.62c0.71-0.71,3.5,1.18,2.96,3.81c0.01,0.04,0.02,0.12,0.03,0.21
		c0-0.01-0.01-0.01-0.01-0.02c0-0.05-0.02-0.14-0.03-0.13l-0.01-0.01c0.01,0.04,0.01,0.07,0.02,0.1
		C542.1,42.35,541.55,41.89,539.29,38.62z M542.37,43.34c-0.03-0.18-0.04-0.31-0.05-0.41c0.14,1,0.43,3.04,0.63,3.64
		C540.85,47.09,542.55,45.66,542.37,43.34z M542.75,22.36c0.1,2.03,0.1,2.03-2.54,1.73C540.82,23.07,541.53,22.36,542.75,22.36z
		 M540,11.17c-1.22,1.42-1.42-0.51-2.24,0C538.68,10.46,539.19,10.97,540,11.17z M536.85,39.34c0.71,0.81,0.2,1.42-0.51,2.03
		C535.53,40.26,535.42,39.55,536.85,39.34z M535.73,19.31c-0.1,1.12-0.81,1.63-1.93,2.44C534.31,20.32,534.71,19.61,535.73,19.31z
		 M532.37,41.38c1.12,1.53,1.63-0.51,2.54,0.31c0.31,1.73-1.32,2.54-1.83,3.97C532.27,44.33,532.37,43.21,532.37,41.38z
		 M533.39,56.74c0.61,0.2,1.12,0.51,0.61,1.22C533.29,57.75,533.19,57.35,533.39,56.74z M527.39,86.23
		c11.65-4.45,6.72-20.79,9.36-30.82c1.83-0.92,2.14,1.42,2.95,1.53c1.42,0.41,1.83-0.61,2.95-0.51c0.41,1.93,1.22,3.97,1.22,5.9
		c0,5.28,7.88,8.29,12.51,8.54c-4.17-2.03-7.42-4.48-10.58-6.71c-1.63-4.07,0.61-9.26-3.76-12.21c-1.32,0.71-0.71,1.73-1.12,2.34
		c-1.22,0.2-4.07-3.25-3.87-4.88c-3.7-2.77-3.47-1.22-1.22-6.1c1.32-0.31,1.42,1.53,2.64,1.12c-1.22,4.68,0.31,6.2,4.68,5.19
		c0.47-1.03-0.82-2.54-0.41-2.95c-0.1,0.3,0.71,0.92,1,1.04c-0.15-0.27-0.27-0.47-0.36-0.62c0.25,0.27,0.64,0.59,1.11,0.65
		c2.03-0.97-1.85-5.69,7.32-13.78c7.52-6.63,2.31-4.66,2.03-6.31c1.22-0.81,2.64,0.31,3.87-0.31c1.12-2.85,4.17-3.36,6.31-4.88
		c0.1-0.71-0.41-1.12-0.71-1.73c3.66,0.61,7.12-0.1,10.17-2.24c13.74,3.75,9.09-3.79,13.53,13.53c-0.61,1.22-2.03-0.1-2.64,1.83
		c-0.1,0.41,1.93,0.41,1.42,2.03c-1.73,1.73-1.83-0.41-2.54-1.22c0.61,5.29,2.24,10.27,4.37,14.75c-0.51,1.63-1.83,1.63-2.44,2.54
		c-0.71,1.93,0.41,4.07-0.2,6.31c-3.25,0.71-6.81,0.51-9.97,1.83c0,1.82-0.97,1.19,9.56,0.51c0.81,1.22,0.41,2.24-0.51,3.25
		c-2.03-0.2-4.17-1.32-6.81-0.41c1.53,2.64,3.97,1.32,6,2.14c-0.87,6.65,1.56,11.26-4.27,11.7c-5.53,0.41-9.26-0.93-9.87,5.09
		c-1.62,15.98-1.11,17.54,1.53,19.22c-0.81,2.54,0.41,4.68,1.22,6.92c-1.32,1.53-3.25-0.1-4.68,1.12c2.79,3.91,7.56-4.42,7.02,8.54
		c-0.3,7.28,1.13,14.24-6.41,12.82c-23.71-4.47-15.79-23.1-44.45-42.21C524.54,87.45,526.07,86.74,527.39,86.23z M523.42,90.81
		c25.82,17.83,18.74,32.8,38.45,40.68c-3.64,3.12-7.47-1.25-8.95,5.39c1.93,0.31,1.93-1.63,3.25-2.24c2.64,0.71,5.19-1.02,7.83-1.73
		c0.81,1.32-0.2,2.34,0.2,3.46c-1.63,0.81-3.05,1.63-4.68,2.44c-4.48-1.42-9.56-0.92-14.14-2.64c-1.78-10.92-0.78-15.42-7.32-25.02
		c-5.12-7.51-12.31-13.12-17.9-20.14C521.69,89.59,521.68,89.61,523.42,90.81z M526.37,148.89c-2.24-2.64,1.02-3.46,0.92-5.19
		C528.38,144.43,528.17,143.14,526.37,148.89z M530.95,160.79c-1.22,1.63-2.64,2.64-4.48,3.87c-0.51-2.03-0.41-3.76-0.31-5.49
		C528.3,158.55,529.53,159.77,530.95,160.79z M525.86,167.91c3.87,0.1,4.88-3.56,7.42-5.7c3.56,1.93,7.73,0.1,11.39,2.34
		c-5.7,4.37-11.19,8.65-18.82,7.73C525.25,170.76,525.56,169.54,525.86,167.91z M542.85,163.23c-1.63-2.64-5.7-1.02-7.42-4.27
		c1.32-3.15,4.37-5.7,5.49-10.17c2.54,2.64,5.09,2.14,7.53,2.85c-1.63,2.54-0.31,4.78,0.51,7.12
		C547.42,163.36,547.61,162.04,542.85,163.23z M543.87,149.19c-4.17-3.95-3.28-11.9,2.44-10.07c2.63,0.84,3.15,2.03,2.44,6.31
		c-1.22,1.22-3.15,1.32-4.88,2.64c2.24,1.02,3.36-1.32,4.88-0.41c2.14-2.75,2.54-5.49,1.02-8.95c4.27,0.71,7.93,0.81,11.29,2.34
		c1.63,3.76,0.71,6.81-1.93,9.76C554.04,150.62,548.85,149.91,543.87,149.19z M503.49,216.53c-0.92-1.62-2.24-2.95-3.66-4.37
		c1.93-2.64,5.8-2.64,7.63-5.39c-2.24,1.42-5.8-0.2-7.12,3.15c-1.22,0.1-2.24,0.2-3.15,0.31c-4.78-4.48-8.34-15.97-6.71-21.36
		c-2.64-3.97-4.34-8.51-6.31-12.92c-1.69-3.78-0.71-4.25-0.71-15.66c0-5.6,3-9.79-1.02-16.78c-2.23-3.87-2.24-8.14-0.41-13.02
		c-0.2,4.27,2.19,7.42,2.44,11.09c0.2,2.83,5.09,7.65,5.09,3.76c0.65,0,3.79,2.61,7.32,3.24c-1.12-3.87-5.29-3.05-7.22-5.49
		c-0.39,0.39-0.58,0.27-0.21,2.07c-13.45-15.74-0.17-34.51,7.84-37.57c1.11-0.42,0.61-1.63,1.32-2.03c2.34-1.02,5.09,0.1,7.32-1.42
		c-2.24,0.41-4.07-1.22-6.41-0.81c6.51-3.46,12-8.54,19.12-11.6c15.31,17.66,21.02,22.78,22.27,30.11
		c1.72,10.05,2.84,9.83,2.54,14.65c-3.46,2.64-5.42,5.6-4.68,10.48c0.49,3.26-2.24,6.31-4.27,9.36c-1.02-0.81-1.83-1.42-2.64-2.03
		c-0.51-2.34,3.97-5.09-0.81-6.61c-0.61-2.64,2.14-5.49-0.81-7.93c2.03-4.27,2.44-9.15,3.66-13.73c-2.75,2.44-2.54,6.41-4.78,9.87
		c0.61-3.05,1.42-5.49,1.02-8.04c-1.53,4.98-3.25,9.66-7.22,13.02c0.92,10.68,0.92,21.16,0.1,31.43
		c-4.63,3.53-22.29-4.17-28.99,16.88c1.73-1.12,2.36-3.14,3.66-4.68c13.77-16.33,24.9,0.44,50.75-19.83
		c4.17-3.27,0.97-9.56,1.42-12.71c7.57,0.34,11.88,2.06,13.32-4.98c0.38-1.84-1.03-5.77,3.15-10.48c7.35-1.65,5.29,1.47,5.29,11.09
		c0,0.81,0,1.63,1.42,2.03c1.95-5.26-1.54-13.71,3.05-10.27c0,3.87-0.31,7.93,1.63,11.7c1.42-3.25,0-6.71,1.22-10.07
		c0.31,3.76,2.75,7.12,1.63,11.19c1.73,0.41,1.83-1.53,3.15-1.53c0.71,1.53,0.71,3.46,2.34,5.29c-4.27,2.75-7.84,6.3-12.31,8.44
		c-8.86,4.25-15.38,11.28-19.53,19.53c-4.46,8.86-19.95,26.69-36.41,31.23C516.33,215.51,508.02,224.51,503.49,216.53z
		 M516.51,551.67c5.59,1.83,11.29,2.44,17.7,3.36c-7.64,4.05-6.02,10.21-11.39,8.34c-2.43-0.85-4.98-1.32-6.51-3.46
		c0.71-1.63,1.83,0.51,2.44-0.61c-0.31-1.22-1.83-1.32-2.54-2.75C516.3,555.13,516.4,553.6,516.51,551.67z M584.65,579.23
		c-0.5,2.95-0.41,6-1.63,8.85c-22.86,13.03-47.65-0.01-52.48,0.31c-8.92,0.58-18.7-2.81-21.97-4.98c0.1-7.63,6.2-13.53,5.49-21.77
		c2.64,2.34,5.1,3.72,8.04,4.37c8.22,1.84,6.15-5.81,14.95-10.98c-0.41-1.42-1.12-0.61-2.14-0.92c-0.2-0.1,0.92-0.81,0-1.32
		c-1.12-0.31-2.54-0.31-3.97-1.22c-0.92-2.95-2.95-5.9-2.34-9.46c-2.03,2.75-0.71,6-1.22,8.95c-2.95,0-5.59-0.92-8.85-1.73
		c5.1-3.88-1.26-9.37,0.31-19.94c1.07-7.21-0.61-14.24-0.41-21.36c0.1-3.56-1.26-7.01-1.63-10.58c-2.92-28.49-10.64-25.35-7.73-47.4
		c2.4-18.18,5.98-17.84,10.07-45.16c0.91-6.06-2.4-11.79-1.93-14.14c9.93-1.35,13.7,1.45,32.24,2.75c2.05,0.14,5.01-2.12,8.14-1.42
		c0.48,11.31-8.43,15.24-6.31,26.85c1.53,8.39-4.5,10.57-4.58,14.04c-0.37,15.83-1.69,23.64-3.56,35.19
		c-4.39,27.15-1,71.58-2.14,73.84c-0.81,0.92-2.24,0-3.25,0.92c-3.56,4.88-3.87,6.51-1.53,8.54c1.12-2.24,1.73-4.78,3.56-6.81
		c1.53,1.83,3.66,0,6,1.32c0.2,7.02,5.8,10.27,11.6,13.53c-2.14,1.83-4.27,0.2-6,1.22c-0.61-0.92,1.02-1.32,0-2.14
		c-4.17-1.32-18.31,1.22-20.55,3.97c3.05,2.95,6.31-0.2,9.56,0.51c-1.53,1.53-4.27,1.22-5.29,3.25c0.71,2.03,2.34,2.04,3.76,1.83
		c25.67-3.85,18.42-6.68,21.36-5.7c0.71,1.22-2.24,1.93-0.31,3.15c-3.97,2.14-9.05,0.61-11.8,4.88c2.24,1.32,10.68-0.41,14.95-3.15
		c13.39,6.09,3.42,1.74,0.71,6.61c15.67,1.21,4.06-4.92,18.61,1.83C583.94,576.48,584.96,577.4,584.65,579.23z M548.85,540.07
		c-1.32,0.61-1.93,1.83-2.24,3.25c-2.34-0.1-2.95-1.63-2.95-3.56c0-9.79-2.57-35.72,1.63-58.28c3.56,9.97,3.13,19.82,4.88,29.29
		C551.98,520.53,547.73,530,548.85,540.07z M561.06,543.12c3.18,8.19-6.51,2.85-9.97,2.64C547.8,539.86,556.53,544.19,561.06,543.12
		z M576.92,534.89c-0.41,3.66,0.18,6.37,3.66,7.93c1.41,0.64,2.44,2.34,3.66,3.56c-0.71,1.12-1.63,1.53-2.54,1.63
		c-2.75,2.75-6.53,2.48-9.87,3.46c-11.07,3.24,4.61,6.96,18.71,1.63c1.73,1.12,3.46,2.75,5.39,4.88c-1.42,0.1-2.12,0.49-3.25-0.61
		c-3.41-3.31-8.34-2.54-11.7,1.22c1.53,0.71,1.53,0.71,7.22,0c-0.41,1.63-2.64,1.02-3.25,2.64c3.25,2.64,5.7-1.32,8.85-0.81
		c-0.41,1.12-1.84,2.46,0.1,3.46c1.82,0.93,4.07-0.71,5.59-4.07c6.41,4.37,14.24,2.95,21.36,5.09c2.03,2.85,1.93,6.41,2.64,9.97
		c-4.78,3.76-10.9,4.43-16.48,6.41c-5.91,2.09-11.8,0.61-17.49,0.31c-1.63-1.33-0.66-6.89-6.31-8.75
		c-1.39-0.46-12.46-5.34-13.43-6.31c-16.46-14.52-18.97-12.42-20.04-16.68c6.81-2.27,11.07,5.97,19.12-6
		C566.83,531.52,571.7,538.23,576.92,534.89z M565.73,543.43c0.1,1.83-1.12,2.44-2.54,3.46
		C563.19,544.25,562.68,542.29,565.73,543.43z M581.09,256.7c3.92,15.66,10.93,15.08,12.21,39.26c0.99,18.79,2.42,3.4,2.03,28.28
		c-0.69,45.15,6.04,36.47,4.98,61.33c-4.98,3.36-10.58,3.95-15.87,5.29c-5.19,1.31-10.68-1.02-15.77,1.42
		c4.88,3.25,10.27,0.31,15.56,1.32c0.2,3.86-0.2,7.53-1.32,10.98c-3.21,9.94,1.05,5.79-1.93,18.31c-4.08,17.14-2.85,7.11-2.85,15.87
		c0,0.1-5.37,86.56-5.39,86.66c-0.4,2.54,1.53,5.09,0.81,7.93c-1.83,0.92-4.07-0.2-5.9,0.71c-1.73,1.63-1.32,3.87-1.83,6
		c-31.39,0.65-0.99-5.01-18.82-63.77c-1.99-6.56,0.33-3.34,1.83-36.11c0.49-10.67,6.59-14.71,4.17-22.68
		c-2.73-9,8.56-14.47,6.51-25.53c3.36-2.34,7.73,0.61,10.98-2.75c-3.25-14.85-2.44-30.21-3.76-45.57c-2.87,7.28,0.32,42.26,0,43.84
		c-1.6,1.24-11.71,1.16-17.49,3.66c-1.75,0.87-18.92-4.61-34.38-3.15c-7.73,0.73-15.46,0.31-23.29,0.51c0-5.79,0.12-3.25,1.63-3.25
		c0-0.1,2.84-34.19,2.03-37.63c-3.76-16.07,2.29-53.18,1.93-65.4c-0.44-15.25,6.62-33.29,10.07-36.11
		c3.76,2.64,22.28,8.34,28.38,8.54c-4.48-2.03-9.46-2.44-14.14-4.37c-0.71-0.81,0.1-2.34-1.02-2.85c-1.42-0.92-2.64,0.2-3.76,0.1
		c-0.81-0.71-0.81-1.42-0.41-2.54c6.1,1.83,11.8,4.88,18.1,6.1c0.11,0.02,28.85,4.37,16.48,4.37c-0.61,1.02-1.12,1.93-0.41,2.95
		c0.71,0.2,0.61-0.51,1.12-1.02c0.63,5.02,4.6,0.65,5.9-2.54c3.05,0.2,6.1,0.1,9.05,0.71c0.81,0.71-0.41,1.73,0.71,2.34
		c1.83,0,3.05-2.54,5.29-1.73c0.31,1.32-1.63,1.63-1.12,3.05c0.92,0.61,1.12-0.41,1.63-0.71c1.12,0,0,1.32,0.92,1.63
		c1.42-0.1,3.05,0.1,4.48,1.02C581.75,256.11,578.92,250.91,581.09,256.7z M510.4,244.8c-0.1,0.51-0.31,0.92-1.12,1.02
		C509.11,244.25,511,243,510.4,244.8z M513.15,244.4c0.7,0,1.21,0.97-0.61,1.42C512.44,245.01,512.34,244.4,513.15,244.4z
		 M574.28,256.6c0.61-0.81,1.22-0.41,1.93-0.31C575.6,256.91,575.09,257.52,574.28,256.6z M590.45,167.09
		c-4.65,7.35-0.37,10.95-4.07,24c-1.11,3.92-3.27,8.02-3.25,9.76c0.05,7.73-2.36,15.16-2.03,22.99c0.52,12.41-6,24.4-0.81,30.21
		c-0.41-0.2-0.92-0.71-1.22-0.61c-5.54,1.85-30.61-1.99-36.01-3.05c-23.69-4.67-16.49-3.91-25.83-12c-0.2,2.85,2.44,3.56,3.15,5.9
		c-3.66-1.53-7.42-1.83-10.78-3.76c0.2-3.36,2.34-6.51,0.61-9.66c0.71-1.22,1.93,0,2.44-0.92c-0.81-1.02-2.34-0.81-3.15-2.14
		c1.42-0.51,2.34,0.92,3.46,0.41c-0.51-1.63-3.15-0.61-3.76-2.95c6.71,1.53,13.12,3.36,19.73,3.36c-6.51-1.93-13.32-2.85-19.94-5.09
		c-3.24-4.86,8.87,0.53,34.58-22.68c13.55-12.24,13.42-25.8,31.63-35.5c3.78-2.01,7-4.91,10.58-7.32c5.85-3.96-8.73-7.05,6.61-3.56
		C593.2,158.96,592.9,163.23,590.45,167.09z M586.08,151.84c-4.33-12.38-9.41-3.91,74.05,6.41c1.63,0.2,2.54,1.42,4.17,2.24
		c-3.04,7.61-8.54,1.67-25.63,0.31c-1.53-1.12-2.64-3.25-5.8-4.07c2.03,2.14,3.25,3.76,0.71,5.7c-0.51-1.12,0.1-2.54-0.81-3.46
		c-4.98,1.73-9.05-2.64-13.93-1.93c-2.54-2.54-2.54-2.54-3.66-1.12c-0.99,0.28-1.18-1.52-3.05-1.73
		C608.63,157.66,607.7,153.91,586.08,151.84z M628.59,166.18c-1.22-0.92-1.22-2.03-0.61-3.56
		C629.3,164.04,628.08,165.16,628.59,166.18z M620.46,158.55c11.82,2.57,6.37,0.81,4.88,4.27c-2.14-2.64-6.51,0-8.24-3.97
		c1.53,0,1.63,1.93,2.95,1.73C621.07,160.08,619.95,159.36,620.46,158.55z M613.54,182.66c-4.77-0.35-4.98,0.91-12.1,2.95
		c4.27-14.34,4.27-14.34-1.02-29.8c4.37,0.71,8.44,1.71,12.51,2.03c2.43,0.19,1.95,5.44,6.81,4.88c6.63-0.76,5.82,4.74,12.61,10.37
		c1.22,1.01,2.34,2.24,3.25,3.56C629.1,181.74,621.58,183.25,613.54,182.66z M640.19,183.37c1.42-3.56-0.51-5.6-2.85-7.73
		c-2.24-2.04-4.17-4.17-6.61-6c2.14-2.24-1.83-3.25-0.61-5.49c2.85,2.64,3.87,6.61,6.41,9.56c0.92-0.61,0.61-2.24,2.14-1.93
		c-0.51-3.46-3.56-5.19-4.78-8.75c6.61-1.42,12.71,1.02,19.12,1.83c-1.73,6-6.2,9.15-13.53,9.66
		C640.92,180.44,653.06,193.21,640.19,183.37z"/>
	<path d="M668.77,153.97l-0.1-0.1C668.67,153.95,668.68,153.95,668.77,153.97z"/>
	<path d="M166.51,195.07c0.1-4.98-0.59-9.79-4.48-13.32c-5.17-4.71-3.73-7.73-6-7.93c0.24,7.21,5.07,6.39,7.73,16.48
		C164.25,192.12,164.79,193.95,166.51,195.07z"/>
	<path d="M673.35,158.96c7.91,18.89,1.07-11.09-4.37-4.17C671.31,155.19,672.45,156.81,673.35,158.96z"/>
	<path d="M189.5,273.49c2.31-2.31,0.7-10.12,5.29-14.14c0.81-0.71,1.22-2.03,0.31-3.56C191.54,261.18,189.2,266.57,189.5,273.49z"/>
	<path d="M175.67,173.1c-3.87,3.05-1.53,7.73-3.36,11.9C178.78,183.7,172.46,178.02,175.67,173.1z"/>
	<path d="M177.5,116.75c0.92,3.46,0.81,6.61,2.34,9.46C180.55,120.92,179.94,118.37,177.5,116.75z"/>
	<path d="M157.16,123.16c0.81-2.75,2.54-4.68,3.66-7.02C158.28,117.05,157.06,119.39,157.16,123.16z"/>
	<path d="M167.94,149.8c0.41,2.14,1.02,3.36,2.64,4.27C170.18,151.02,170.18,151.02,167.94,149.8z"/>
	<path d="M663.79,170.35c2.24-0.81,4.27-2.03,6-3.66C667.14,166.89,665.41,168.52,663.79,170.35z"/>
	<path d="M180.45,133.33c-0.41,1.32-1.32,2.64-0.51,4.78C180.65,136.07,181.47,134.85,180.45,133.33z"/>
	<path d="M590.45,204.22c-1.42,1.93-1.42,1.93-0.51,3.76C589.54,206.66,591.06,205.64,590.45,204.22z"/>
	<path d="M591.67,200.15c1.02-0.71,2.34-1.22,2.75-3.36C592.28,197.61,591.87,198.83,591.67,200.15z"/>
	<path d="M159.6,130.48c1.4-2.52-0.92-3.5-0.92-1.22C158.78,129.77,158.38,130.68,159.6,130.48z"/>
	<path d="M679.96,169.84c-1.63-0.71-2.34,0.51-3.46,0.92C676.88,171.52,676.35,171.65,679.96,169.84z"/>
	<path d="M194.99,249.58c-0.81,1.12-1.02,1.93-0.51,2.75C195.71,251.72,195.71,250.8,194.99,249.58z"/>
	<path d="M192.96,243.07c0.81-1.02,0.81-1.93,0.1-2.95C192.65,240.94,191.94,241.96,192.96,243.07z"/>
	<path d="M174.96,166.99c0,1.73-0.1,2.85,0.92,4.07C176.48,169.54,176.58,168.42,174.96,166.99z"/>
	<path d="M172.52,226.19c0.81-1.22,0.51-2.14-0.61-2.64C172.21,224.26,171.6,225.27,172.52,226.19z"/>
	<path d="M157.26,171.16c-0.51-0.61-0.41-1.63-1.53-1.83C156.14,171.47,156.34,171.88,157.26,171.16z"/>
	<path d="M180.14,140.24c-1.02,0.71-1.63,1.32-0.92,2.34C180.14,142.18,180.65,141.57,180.14,140.24z"/>
	<path d="M191.74,231.78c0,0.81-0.31,1.63,1.02,2.14C192.65,233.11,193.26,232.29,191.74,231.78z"/>
	<path d="M167.53,199.74c1.02-1.02,0.81-1.63-0.2-2.44C166.72,198.32,166.92,199.03,167.53,199.74z"/>
	<path d="M673.96,168.01c0.61,0,1.22,0.2,1.12-1.12C674.26,166.89,673.85,167.09,673.96,168.01z"/>
	<path d="M171.6,161.09c-0.51,0.92-0.1,1.32,0.81,1.53C172.92,161.7,172.21,161.4,171.6,161.09z"/>
	<path d="M178.11,156.62c0.1,0.61,0.2,1.32,1.42,1.12C179.33,157.03,179.33,156.21,178.11,156.62z"/>
	<path d="M173.63,233.11c0.31-0.71,0.92-0.61,0.51-1.32C173.74,231.89,173.53,232.09,173.63,233.11z"/>
	<path d="M234.56,414.56c1.98,3.42,3.91,1.35,6.31,2.14c6.35,2.07,9.09-7.93,9.56-14.85c0-0.51-0.31-0.92-1.22-1.12
		c-2.75,4.27-1.73,10.48-6.61,13.93C240.05,415.37,237.51,414.36,234.56,414.56z"/>
	<path d="M241.88,341.12c3.89-5.31,9.34-23.65,2.54-8.04c-3.75,8.61-6.86,7.53-7.12,10.88c1.63,0.2,2.24-1.22,3.76-1.22
		c0.1,0.1,14.12,16.62,9.36,10.27C248.39,348.55,244.43,345.4,241.88,341.12z"/>
	<path d="M220.83,487.28c1.63,2.03,2.95,0,4.17,0.51c0,0.51-0.51,1.22,1.02,1.32C236.72,463.92,229.91,483.47,220.83,487.28z"/>
	<path d="M235.78,426.46c5.05,4.95,3.62,8.62,6.2,9.76c-0.41-6.31-4.37-10.88-6.71-16.27C233.54,422.39,234.24,424.95,235.78,426.46
		z"/>
	<path d="M183.2,281.42c0.09-2.44,1.63-4.88,0.41-7.42c-2.14,7.93-2.03,16.07-1.63,24.21C183.71,291.74,182.87,289.95,183.2,281.42z
		"/>
	<path d="M193.98,356.08c-1.22-6.71-1.02-13.63-2.14-20.95C190.93,341.33,192.04,352.92,193.98,356.08z"/>
	<path d="M247.88,426.66c-1.83,0.51-0.81,1.83-1.83,2.64c-1.02,0.2-2.34,0.61-3.97,1.02C249.12,434.19,250.71,427.33,247.88,426.66z
		"/>
	<path d="M249.72,328.92c-1.08,0.54-1.38-2,1.93,10.88C251.04,336.14,252.46,332.07,249.72,328.92z"/>
	<path d="M192.76,313.66c0.31,3.66,0.61,7.42,0.92,11.09C194.38,320.99,193.77,317.32,192.76,313.66z"/>
	<path d="M230.08,475.79c1.63-1.63,2.44-2.95,1.73-5.39C230.19,472.03,229.88,473.55,230.08,475.79z"/>
	<path d="M230.39,537.23c2.03-1.12,2.03-1.12,0.71-5.19C231,533.97,230.19,535.5,230.39,537.23z"/>
	<path d="M234.76,457.69c1.32-1.02,2.14-1.73,1.53-3.36C234.87,454.94,234.56,455.96,234.76,457.69z"/>
	<path d="M206.18,356.28c0.41,1.32,0.61,2.85,1.83,3.76C208.01,358.52,207.2,357.4,206.18,356.28z"/>
	<path d="M210.15,364.82c-0.4-1.58-0.79-3.35-2.13-4.57C208.21,362.71,210.15,365.91,210.15,364.82z"/>
	<path d="M207.91,360.14c0.16,0.12,0.1,0.18,0.1,0H207.91z"/>
	<path d="M254.19,344.38c0.71,1.73,1.22,2.44,2.54,2.95C256.43,345.9,255.72,345.29,254.19,344.38z"/>
	<path d="M232.32,467.55c1.63-0.71,1.73-1.83,1.02-3.56C232.93,465.42,231.81,466.13,232.32,467.55z"/>
	<path d="M233.75,461.96c1.12-0.51,0.92-1.12,0.41-1.73C233.14,460.74,233.14,461.25,233.75,461.96z"/>
	<path d="M218.9,380.39c0.2,0.71,0.61,1.22,1.53,1.12c-1.73-2.16-5.48-8.61-10.17-16.68C208.69,366.39,219,380.33,218.9,380.39z"/>
	<path d="M240.15,367.06c0.2,0.31,0.41,0.51,0.61,0.81C240.97,367.26,240.66,367.06,240.15,367.06z"/>
	<path d="M256.22,360.55c-0.2-0.2-0.41-0.31-0.61-0.51C255.72,360.55,255.72,360.86,256.22,360.55z"/>
	<path d="M253.58,357.4c-0.2,0.51,0.2,0.51,0.41,0.61C254.19,357.5,253.78,357.5,253.58,357.4z"/>
	<path d="M243.71,265.04c1.73,9.97,1.83,20.24,3.66,30.31C247.07,285.18,246.36,275.01,243.71,265.04z"/>
	<path d="M255.31,295.96c-3.76-8.75-3.36-17.9-6.61-26.24C248.46,270.74,250.28,293.45,255.31,295.96z"/>
	<path d="M252.46,168.42c-7.78-5.7-8.86-15.54-9.36-17.29c-0.71,3.05-0.49,6.1,0.51,8.95C244.96,163.93,245.65,168.82,252.46,168.42
		z"/>
	<path d="M228.05,266.06c-0.61,0.1-1.12,0.1-1.63,0.1c-0.31,4.37,2.14,8.44,2.03,12.82C230.59,274.5,231,270.13,228.05,266.06z"/>
	<path d="M211.06,278.77c4.68-6.61,6.2-12.51,3.25-15.77C214.32,268.81,211.47,273.28,211.06,278.77z"/>
	<path d="M244.93,185.71c0.32-2.64,1.12-5.59-0.41-8.24c-2.03,8.54,2.03,17.29-1.63,25.73
		C247.92,195.83,244.48,189.44,244.93,185.71z"/>
	<path d="M236.59,266.26c-0.1,4.07,2.24,7.12,4.07,10.37C239.85,273.08,238.83,269.42,236.59,266.26z"/>
	<path d="M243.82,214.19c0-2.49-2.62,5.35-0.2,10.78C242.39,221.31,244.93,217.85,243.82,214.19z"/>
	<path d="M201.61,170.15c1.32,2.14,3.76,1.93,5.8,2.34C205.78,170.96,204.05,169.74,201.61,170.15z"/>
	<path d="M243.61,228.63c-0.31,2.44-0.61,4.17-0.81,5.8C244.02,232.9,244.02,231.17,243.61,228.63z"/>
	<path d="M225.41,165.77c-1.12-1.12-2.03-1.53-3.56-0.92C222.76,166.48,223.78,166.69,225.41,165.77z"/>
	<path d="M243.21,213.98c0.31-1.83,0.71-3.76-0.1-5.59C242.6,210.22,242.49,212.15,243.21,213.98z"/>
	<path d="M218.39,252.53c-0.92-1.63-1.93-2.54-3.36-3.15C215.64,250.8,216.35,252.23,218.39,252.53z"/>
	<path d="M222.15,230.66c-0.92-0.71-1.73-0.92-3.15-0.51C220.32,230.87,221.24,231.07,222.15,230.66z"/>
	<path d="M218.59,257.92c-1.73,0.61-1.83,1.42-1.42,2.75C218.18,260.06,218.59,259.35,218.59,257.92z"/>
	<path d="M243,255.58c1.12-0.2,1.22-0.71,0.71-1.22C243.51,254.16,242.9,254.77,243,255.58z"/>
	<path d="M246.46,243.18c0.41,0.41,0.81,0.31,1.12,0.1C247.27,242.77,246.87,242.87,246.46,243.18z"/>
	<path d="M201.81,183.98c0.2,0.71,0.71,1.02,1.53,0.92C203.13,184.08,202.52,183.98,201.81,183.98z"/>
	<path d="M199.81,182.69c0.24,1.1,1.03,1.29,2,1.29C201.42,183.21,200.67,182.81,199.81,182.69z"/>
	<path d="M199.67,182.66c0.17,0.03,0.14,0.07,0.1-0.1L199.67,182.66z"/>
	<path d="M198.15,181.64c0.41,0.71,0.81,1.12,1.63,0.92C199.37,182.05,199.06,181.54,198.15,181.64z"/>
	<path d="M215.85,575.77c-2.06-1.18-3.87-0.61-6.2,1.93c-6.1-8.49-13.07,2.77-5.19,4.78c2.13,0.54,3.46-1.02,5.09-2.34
		c1.73,3.87,4.78,3.25,7.83,2.75C217.68,580.25,218.96,577.56,215.85,575.77z M205.27,580.76c-2.8,0-3.7-4.15,0-4.68
		C208.56,576.79,207.76,580.76,205.27,580.76z M214.01,581.37c-3.6-0.34-3.03-4.32-0.51-4.58c1.63,0,2.54,0.81,2.64,2.75
		C215.23,579.84,212.9,578.72,214.01,581.37z"/>
	<path d="M212.69,414.56c5.39-8.61,5.1-22.89,2.03-9.56c-0.66,2.86-0.9,6.74-3.25,8.04c-4.15,2.28-8.65,5.39-14.54,3.05
		c1.34,3.42,3.49,4.87,9.76,1.73C208.73,416.8,211.48,416.5,212.69,414.56z"/>
	<path d="M187.87,492.88c5.01,1.25,4.27-17.75,4.27-21.16C190.52,478.74,189.91,485.96,187.87,492.88z"/>
	<path d="M194.49,574.25c-0.61,2.24-0.71,4.58-0.41,6.81c2.14,0.92,1.12-1.83,2.54-1.73c1.32,0,1.12,2.85,3.15,2.14
		c0.31-1.12-0.94-2.05,0.2-3.46C202.91,574.4,196.49,573.08,194.49,574.25z M195.81,576.18c1.22-1.02,2.14-0.61,2.95,0
		C197.54,577.81,197.54,577.81,195.81,576.18z"/>
	<path d="M192.15,468.26c2.34-7.22,2.34-8.04,0.61-11.19C192.25,460.74,192.55,464.5,192.15,468.26z"/>
	<path d="M236.7,573.33c-3.87-0.81-6.61,0.2-7.83,3.25c2.34-1.53,4.58-1.32,6.81-1.53C235.78,574.45,237.2,574.45,236.7,573.33z"/>
	<path d="M193.26,452.4c-0.2-1.83,2.03-3.66,0.1-5.9C192.96,448.74,191.23,450.46,193.26,452.4z"/>
	<path d="M194.08,439.68c1.02-1.53,1.42-3.15,1.02-5.7C193.37,436.12,193.26,437.85,194.08,439.68z"/>
	<path d="M197.54,524.41c-0.41,1.32-0.92,2.64,0.41,3.87C198.15,526.95,198.86,525.63,197.54,524.41z"/>
	<path d="M197.84,535.8c1.22-0.92,1.42-1.83,0.71-3.36C197.74,533.56,197.33,534.48,197.84,535.8z"/>
	<path d="M210.05,429c0.51,1.32,1.32,1.53,2.54,0.92C211.88,429.41,211.27,428.29,210.05,429z"/>
	<path d="M249.21,36.09c-3.87-4.68-11.7-4.07-15.26,1.12C238.53,33.24,243.71,36.29,249.21,36.09z"/>
	<path d="M215.13,106.37c8.79-0.15,14.15,10.56,18.51,7.73c-7.02-3.97-12.82-8.95-21.26-9.56
		C212.79,106.47,214.01,106.39,215.13,106.37z"/>
	<path d="M237,40.77c1.83,1.83,4.68,0.51,6.51,2.95c-0.51-2.75,1.83-2.03,2.64-2.85c-0.1-1.02-0.1-2.03-0.2-3.05
		C243.1,39.14,239.54,37.82,237,40.77z"/>
	<path d="M227.03,89.39c-0.31,4.98,2.75,9.46,2.75,14.44C231.61,98.44,228.36,94.07,227.03,89.39z"/>
	<path d="M212.08,91.42c-1.12,3.66,1.02,6.41,2.34,9.66C216.15,96.81,213.2,94.47,212.08,91.42z"/>
	<path d="M247.68,52.57c-2.38,3.18,4.3,4.19,6.71,1.02c-1.93-2.03-3.15-0.1-4.17,0.41C248.9,53.79,249,52.16,247.68,52.57z"/>
	<path d="M253.43,67.59c0.65-0.17-1.95-2.4-6.05-1.09C249.24,68.95,251.27,68.16,253.43,67.59z"/>
	<path d="M238.43,122.34c0-1.83-0.31-3.46-2.54-4.78C236.19,119.9,236.7,121.43,238.43,122.34z"/>
	<path d="M206.08,82.17c1.12,1.83,1.83,2.95,2.64,4.17C208.62,83.69,208.62,83.69,206.08,82.17z"/>
	<path d="M221.95,78.1c0.1-1.32-0.71-2.03-1.93-3.15C220.42,77.18,220.42,77.18,221.95,78.1z"/>
	<path d="M238.53,122.24c0.1,1.42,0,2.85,1.22,3.97C240.05,124.48,240.56,123.05,238.53,122.24z"/>
	<path d="M225.81,86.03c0.31-1.02-0.31-1.63-1.22-2.03C224.39,85.11,224.8,85.62,225.81,86.03z"/>
	<path d="M241.88,130.17c0.1-0.71,0.31-1.32-0.92-1.53C240.66,129.46,240.56,129.97,241.88,130.17z"/>
	<path d="M224.9,82.37c-0.71-0.81-0.51-1.63-1.53-1.32C223.07,81.76,223.17,82.27,224.9,82.37z"/>
	<path d="M258.87,202.29c2.35,4.12,11.82,10.87,10.58,11.7C278.53,234.87,269.6,204.79,258.87,202.29z"/>
	<path d="M300.06,289.25c0.31-0.71,0.61-1.42,0-2.54C297.38,289.15,299.13,291.11,300.06,289.25z"/>
	<path d="M281.96,272.77c-1.32-1.83-2.03-2.85-3.66-2.85C279.11,271.04,279.92,271.96,281.96,272.77z"/>
	<path d="M271.58,225.17c-0.2,1.02,0.1,1.63,1.22,2.24C272.91,226.19,272.7,225.48,271.58,225.17z"/>
	<path d="M290.71,281.32c0.1-1.22-0.41-1.83-1.42-2.34C289.08,280.3,289.69,280.81,290.71,281.32z"/>
	<path d="M286.94,276.13c-0.61-0.92-0.61-1.93-2.03-1.73C285.31,275.21,285.52,276.03,286.94,276.13z"/>
	<path d="M297.82,292c-0.81-0.51-1.02-1.22-1.73-0.81C296.1,292,296.5,292.2,297.82,292z"/>
	<path d="M239.54,553.91c2.28-0.63,16.62-2.74,11.7-5.7c-1.5-0.9-11.67,2.43-14.34,3.97C237.61,553.8,238.52,554.19,239.54,553.91z"
		/>
	<path d="M507.66,263.52c-6.77,15.35-2.96,7.23-2.54,13.73c1.72,26.62-4.24,24.51-2.14,42.21c2.22,18.7-2.65,23.37-0.51,34.99
		c0.46,2.49,1.04,3.04,1.56,2.92c-0.46,0.46-1.99,12.68,0.27,29.22c1.86-12.09-1.34-12.81,0.2-23.29c0.74-5.02-0.58-5.92-0.2-6
		c-2.69-8.06,0.98-21.66,0.71-27.36c-0.34-7.22-1.13-14.55-0.51-21.77c0.61-7.12,6.18-27.9,0.61-36.01
		C508.57,265.96,508.57,265.96,507.66,263.52z"/>
	<path d="M565.02,411.92c1.32,2.34,3.66,1.04,5.49,1.53c8.8,2.32,11.18-15.27,8.95-15.77c-1.61,0.29-1.83,5.43-3.76,9.97
		C572.35,415.52,566.36,409.62,565.02,411.92z"/>
	<path d="M560.85,295.25c-2.85-11.19-5.7-21.97-8.54-33.16C551.19,268.81,556.99,291.18,560.85,295.25z"/>
	<path d="M577.64,323.73c-6.92,11.8-1.1,6.16-10.78,16.68c2.03,1.02,2.75-0.71,4.17-0.81c3.05,3.56,6.2,7.32,9.36,11.09
		c1.44-1.44-4.74-7.22-8.34-12.61C574.99,333.8,576.82,328.92,577.64,323.73z"/>
	<path d="M584.65,292.51c-2.73-8.2-3.14-21.15-6.1-25.83C580.28,275.42,579.57,284.67,584.65,292.51z"/>
	<path d="M573.67,261.99c1.73,9.97,1.93,20.04,3.66,30.01C577.13,281.83,576.31,271.76,573.67,261.99z"/>
	<path d="M550.88,484.33c1.42,1.83,3.76-0.92,4.68,2.14C564.9,463.13,561.52,478.4,550.88,484.33z"/>
	<path d="M565.94,423.51c5.02,4.41,3.35,8.56,6,9.36c-0.61-6.1-4.17-10.78-6.41-16.48C563.6,419.44,564.31,422.08,565.94,423.51z"/>
	<path d="M513.66,270.94c-2.24,7.83-2.03,15.87-1.73,23.9c1.22-3.97,1.63-8.14,1.22-12.21
		C512.75,278.67,514.57,274.81,513.66,270.94z"/>
	<path d="M558.31,275.52c2.64-5.39,2.24-9.87-1.42-13.02C555.56,267.28,558.82,271.25,558.31,275.52z"/>
	<path d="M544.58,260.57c-0.2,4.88-2.85,9.26-3.46,14.54C545.7,269.01,547.12,263.21,544.58,260.57z"/>
	<path d="M524.13,352.82c-0.19-1.59-2.1-18.76-2.34-20.34C520.88,340.62,522,350.48,524.13,352.82z"/>
	<path d="M576.01,426.05c-0.92,0.81-2.44,0.41-3.76,1.02c5.19,3.53,8.53-0.94,6.2-3.46C576.01,423.31,577.23,425.44,576.01,426.05z"
		/>
	<path d="M566.55,263.11c-0.1,4.07,2.34,7.22,4.27,10.48C569.7,270.03,568.99,266.26,566.55,263.11z"/>
	<path d="M504.71,255.58c-1.12,3.86,0.2,7.83-1.22,11.39C505.62,262.7,506.03,258.23,504.71,255.58z"/>
	<path d="M579.67,325.66c-0.88,0.44-1.34-1.68,1.93,10.68c0.2,0,0.41,0,0.71-0.1C580.89,332.89,582.52,328.72,579.67,325.66z"/>
	<path d="M561.56,467.35c-1.22,1.73-1.93,3.05-1.22,5.19C561.67,470.91,562.68,469.69,561.56,467.35z"/>
	<path d="M557.19,258.43c2.95,1.32,5.39,1.02,7.83,0.61C562.48,258.94,560.14,258.13,557.19,258.43z"/>
	<path d="M560.75,534.58c2.34-1.83,0.92-3.46,0.41-4.98C561.26,531.12,559.94,532.44,560.75,534.58z"/>
	<path d="M523.42,314.68c0.31,2.24,0,4.48,0.41,6.61C524.03,319.05,524.24,316.82,523.42,314.68z"/>
	<path d="M564.82,454.74c1.02-1.32,2.03-1.83,1.42-3.76C564.92,451.89,564.51,452.8,564.82,454.74z"/>
	<path d="M547.43,257.62c2.66-2.66,0.05-3.81-0.51-1.32C546.8,256.8,546.51,257.42,547.43,257.62z"/>
	<path d="M562.58,464.4c1.42-0.81,1.32-1.83,0.81-2.95C563.09,462.37,561.77,463.08,562.58,464.4z"/>
	<path d="M586.48,343.57c-0.31-0.71-0.81-1.42-1.63-1.83C585.47,343.67,585.87,344.18,586.48,343.57z"/>
	<path d="M563.9,458.91c0.61-0.61,0.92-1.12-0.2-2.24C563.8,457.58,562.58,457.99,563.9,458.91z"/>
	<path d="M550.88,379.27c-2.45-4.11-5.95-8.32-13.02-23.29C540.37,366,549.12,379.27,550.88,379.27z"/>
	<path d="M574.48,370.62c0.1,0.1,0.1,0.31,0.31,0.41c0.31,0.2,0.41,0,0.2-0.2C574.89,370.72,574.69,370.72,574.48,370.62z"/>
	<path d="M572.45,367.16c-0.2-0.41-0.41-0.61-0.61-0.92C571.53,366.76,571.84,366.96,572.45,367.16z"/>
	<path d="M587.5,359.23c-0.1-0.2-0.31-0.31-0.51-0.61C586.99,359.13,587.09,359.33,587.5,359.23z"/>
	<path d="M582.72,352.92c-0.1-0.1-0.31-0.31-0.41-0.41C582.31,352.82,582.31,353.23,582.72,352.92z"/>
	<path d="M536.65,200.66c0.81-0.41,2.03-0.92,1.22-2.44c-1.34-0.34-0.46-0.93-22.68,12.92c4.09,0,5.04-2.69,7.93-3.56
		C528.11,206.08,532.15,202.96,536.65,200.66z"/>
	<path d="M505.32,139.73c-0.51-6.51-0.81-13.12-2.75-19.53C502.47,126.92,503.28,133.43,505.32,139.73z"/>
	<path d="M494.03,174.83c-0.81,2.54-2.44,4.68-2.44,7.93C494.94,180.32,495.55,177.98,494.03,174.83z"/>
	<path d="M503.49,167.09c-1.32-3.46-4.07-6.61-5.9-7.02C498.71,162.92,500.44,165.06,503.49,167.09z"/>
	<path d="M518.95,203.91c3.15-0.1,5.59-1.93,8.04-3.66C524.03,200.97,521.39,202.19,518.95,203.91z"/>
	<path d="M573.87,152.45c-1.12,1.02-0.33,2.43-0.92,3.46c-0.74,1.31-2.54,1.63-2.95,3.25C574.48,157.13,575.3,155.7,573.87,152.45z"
		/>
	<path d="M540.2,197.3c1.83-1.83,4.07-3.36,4.17-6.51C539.76,196.94,538.99,196.69,540.2,197.3z"/>
	<path d="M543.26,173.4c-1.42-0.2-2.85-2.14-4.58-0.2C540.31,174.32,541.73,174.21,543.26,173.4z"/>
	<path d="M522.3,134.14c-0.41,1.83-0.71,3.15,0.1,5.19C523.52,137.29,523.52,135.97,522.3,134.14z"/>
	<path d="M562.78,151.84c1.63-1.02,2.44-2.54,2.44-4.58C561.72,152.17,561.91,150.96,562.78,151.84z"/>
	<path d="M538.48,193.54c-1.53,1.02-2.85,1.93-4.68,3.15C537.26,196.18,537.26,196.18,538.48,193.54z"/>
	<path d="M506.74,168.42c0.51,1.42,1.22,2.85,2.95,4.07C509.49,169.94,508.17,169.13,506.74,168.42z"/>
	<path d="M509.49,102c-2.03-0.2-2.44,1.42-3.56,2.14C507.96,104.95,508.67,103.52,509.49,102z"/>
	<path d="M502.47,110.34c2.81-2.46,0.21-3.82-0.2-1.73C501.96,109.12,501.76,109.83,502.47,110.34z"/>
	<path d="M515.08,211.03c-1.42-0.2-2.64,0.41-4.17,1.83C513.05,212.87,514.17,212.26,515.08,211.03z"/>
	<path d="M494.84,169.74c-0.71,1.22-1.02,2.14-0.2,3.25C495.76,171.57,495.76,171.57,494.84,169.74z"/>
	<path d="M570.01,154.79c-1.53,0.61-2.24,1.22-2.75,2.44C568.89,157.13,569.7,156.62,570.01,154.79z"/>
	<path d="M498.3,158.55c0.41-1.22,0.31-2.03-1.02-2.44C496.77,157.33,497.18,158.04,498.3,158.55z"/>
	<path d="M497.69,154.48c0.79-2.17-2.3-3.94-1.32-1.02C496.57,154.08,496.77,154.69,497.69,154.48z"/>
	<path d="M558.61,154.89c-0.51-0.81-1.12-0.92-2.54-0.41C557.09,155.19,557.6,155.91,558.61,154.89z"/>
	<path d="M550.27,184.79c-1.02,0.2-1.53,0.51-1.32,1.32C549.66,186.12,549.87,185.61,550.27,184.79z"/>
	<path d="M541.83,190.79c-0.71,0.31-1.32,0.61-0.81,1.83C541.22,192.01,542.65,192.01,541.83,190.79z"/>
	<path d="M501.45,147.46c-0.92-0.2-1.53-1.12-2.34,0.31C500.03,148.18,500.64,148.38,501.45,147.46z"/>
	<path d="M557.8,164.25c-1.12-0.41-1.63-0.1-1.93,0.81C556.68,165.57,557.29,165.26,557.8,164.25z"/>
	<path d="M568.79,160.59c0.81-0.2,0.71-1.12,1.22-1.53C569.4,159.36,568.18,159.26,568.79,160.59z"/>
	<path d="M562.58,159.98c0.81-0.1,1.32-0.41,1.42-1.53C563.19,158.86,562.38,158.86,562.58,159.98z"/>
	<path d="M578.25,156.21c-0.92,0-1.53,0.31-1.63,1.32C577.23,157.33,578.14,157.43,578.25,156.21z"/>
	<path d="M510,206.05c-0.2,0-0.31-0.2-0.41-0.31C509.19,205.95,509.26,206.78,510,206.05z"/>
	<path d="M547.32,187.64c-0.61,0-1.02,0.2-1.02,1.12C547.22,188.66,547.53,188.35,547.32,187.64z"/>
	<path d="M550.17,172.79c-0.61-0.61-0.65,0.19-0.71,0.31C549.74,173.1,550.17,173.63,550.17,172.79z"/>
	<path d="M544.48,572.93c-2.06-1.18-3.87-0.61-6.2,1.93c-6.33-8.81-13.16,3.41-4.88,4.78c2.03,0.34,3.25-1.22,4.78-2.44
		c1.73,3.87,4.78,3.25,7.83,2.75C546.21,577.4,547.6,574.72,544.48,572.93z M533.7,578.11c-3.34-0.48-2.82-4.91,0.2-4.68
		C536.6,573.64,536.89,577.69,533.7,578.11z M542.34,578.62c-2.89-0.16-2.8-4.31-0.1-4.58c1.53,0,2.54,0.81,2.54,2.54
		C542.85,576.99,542.85,576.99,542.34,578.62z"/>
	<path d="M547.32,395.95c-3.02,1.66-3.22,13.55-6.41,14.44c-4.59,1.29-8.54,5.19-14.04,2.34c0.51,3.97,3.66,3.15,5.49,4.07
		C538.06,412.19,545.16,417.14,547.32,395.95z"/>
	<path d="M518.24,489.62c3.36-2.14,5.29-13.73,3.66-21.16C520.57,475.49,519.76,482.61,518.24,489.62z"/>
	<path d="M522.91,571.5c-0.31,2.24-0.81,4.58,0,6.92c1.73,0.2,0.81-2.01,2.54-1.83c1.12,0.12,1.02,2.54,3.05,2.14
		c-0.1-1.22-0.84-2.46,0.31-3.87C531.22,571.9,525.26,569.99,522.91,571.5z M524.44,573.23c1.32-0.71,2.24-0.51,2.95,0.41
		C525.86,575.06,525.86,575.06,524.44,573.23z"/>
	<path d="M522.2,465.01c0.92-3.66,2.95-7.22,0.51-10.98C522.3,457.58,522.41,461.35,522.2,465.01z"/>
	<path d="M559.02,572.93c2.44-1.42,5.8,0.1,7.93-2.34C564.21,569.26,561.06,570.08,559.02,572.93z"/>
	<path d="M523.83,436.63c1.42-1.73,1.63-2.85,1.02-4.98C523.32,433.68,523.32,433.68,523.83,436.63z"/>
	<path d="M523.42,449.75c0-2.44,1.63-4.07,0.2-6C523.22,445.58,521.18,447.21,523.42,449.75z"/>
	<path d="M527.8,520.85c-1.02,1.73-1.12,3.05,0.31,4.68C528.3,523.9,528.61,522.58,527.8,520.85z"/>
	<path d="M527.8,532.55c1.22-0.81,1.32-1.83,0.71-3.25C527.59,530.41,527.39,531.43,527.8,532.55z"/>
	<path d="M539.7,425.44c0.81,1.63,1.63,2.14,3.05,1.53C542.04,425.95,541.32,425.44,539.7,425.44z"/>
	<path d="M575.5,189.17c-1.62-7.2,1.67-15.26-1.42-14.75c-1.42,8.44,2.54,17.09-1.12,25.43
		C574.99,196.59,576.34,192.92,575.5,189.17z"/>
	<path d="M518.34,221.51c6.92,2.75,14.24,3.87,21.46,5.39C540.12,225.94,542.73,226.66,518.34,221.51z"/>
	<path d="M552.61,234.94c-4.27-1.22-8.85-0.92-13.22-1.42C543.76,234.73,548.24,234.94,552.61,234.94z"/>
	<path d="M573.26,210.53c-0.51,3.76-1.32,7.63,0.41,11.49C572.4,218,575.73,211.76,573.26,210.53z"/>
	<path d="M523.83,217.54c3.56,1.83,7.32,3.05,11.39,3.25C531.46,219.17,527.69,217.95,523.83,217.54z"/>
	<path d="M543.26,244.4c1.32,1.83,2.34,4.07,4.98,4.78C546.92,247.24,545.39,245.51,543.26,244.4z"/>
	<path d="M573.57,226.09c-0.31,1.83-0.51,3.66-0.71,5.59C574.08,229.95,574.08,228.02,573.57,226.09z"/>
	<path d="M573.06,205.14c-0.31,1.83-0.71,3.56,0.2,5.29C573.57,208.7,573.87,206.86,573.06,205.14z"/>
	<path d="M574.69,239.82c0.92,0.1,1.73,0.2,2.54,0.31C576.52,239.41,575.7,239.72,574.69,239.82z"/>
	<path d="M552.31,227.41c-0.92-0.51-1.73-0.51-2.64-0.1C550.58,227.61,551.39,228.02,552.31,227.41z"/>
	<path d="M573.26,252.53c0.92-0.2,0.92-0.71,0.51-1.32C573.16,251.52,572.85,251.82,573.26,252.53z"/>
	<path d="M537.26,220.9c-1.02-0.1-1.63-0.1-2.14-0.1C535.63,221.21,536.14,221.41,537.26,220.9z"/>
	<path d="M579.16,32.63c-4.17-4.17-11.29-3.56-15.36,1.53C568.38,29.48,573.87,33.85,579.16,32.63z"/>
	<path d="M567.06,37.82c2.03,1.63,4.58,0.71,6.61,2.95c-0.41-2.54,1.63-2.03,2.44-2.85c0-1.12,0-2.14,0-3.25
		C573.26,36.29,569.4,34.36,567.06,37.82z"/>
	<path d="M542.44,102.51c3.56,1.12,7.43,1.11,10.68,3.46C577.29,123.4,552.22,98.87,542.44,102.51z"/>
	<path d="M556.38,85.73c0.41,5.09,3.05,9.56,3.25,14.75C561.26,97.63,559.12,88.27,556.38,85.73z"/>
	<path d="M542.24,88.37c-1.12,3.66,1.02,6.41,2.24,9.66C546.21,93.86,543.36,91.32,542.24,88.37z"/>
	<path d="M577.84,49.52c-2.49,2.07,3.81,4.75,6.51,0.92c-1.63-2.03-2.85-0.31-4.07,0.31C579.16,50.84,579.06,49.21,577.84,49.52z"/>
	<path d="M568.58,119.49c0.1-1.93-0.51-3.56-2.34-4.58C566.34,116.75,566.75,118.48,568.58,119.49z"/>
	<path d="M539.29,83.49c-0.2-2.14-0.92-3.36-2.54-3.97C537.15,80.94,537.76,82.27,539.29,83.49z"/>
	<path d="M551.9,75.15c0.1-1.53-0.71-2.24-2.14-3.36C550.17,73.62,550.38,74.74,551.9,75.15z"/>
	<path d="M569.7,122.95c0.31-2.54,0.31-2.54-1.22-3.36C568.58,120.71,568.58,121.93,569.7,122.95z"/>
	<path d="M555.87,82.88c0.2-1.02-0.31-1.53-1.22-2.03C554.34,81.96,554.85,82.57,555.87,82.88z"/>
	<path d="M571.74,127.02c0.41-0.71,0.41-1.32-0.61-1.42C570.41,126.41,570.72,126.92,571.74,127.02z"/>
	<path d="M560.34,73.42c0.45,0,0.21-1.46-0.92-0.71C559.53,73.42,559.84,73.62,560.34,73.42z"/>
	<path d="M554.24,79.22c0.2-0.81,0-1.22-0.81-1.53C552.92,78.91,553.33,79.22,554.24,79.22z"/>
	<path d="M579.36,545.26c-1.9,0.39-12.02,2.28-12.21,4.48c1.03,1.95,1.8,1.55,14.54-1.73C582.42,545.26,582.02,544.72,579.36,545.26
		z"/>
	<path d="M536.34,168.93c-1.32-1.42-2.75-2.44-5.09-2.03C532.58,169.33,534.61,168.72,536.34,168.93z"/>
<path fill="#e6e6e6" d="m206.8 163.6c0-5.1 4.1-9.2 9.3-9.2s9.2 4.2 9.2 9.2-4.1 9.2-9.3 9.2-9.2-4.1-9.2-9.2zm17.3-.1c0-4.5-3.5-8.2-8.2-8.2s-8.2 3.7-8.2 8.3c0 4.5 3.5 8.2 8.2 8.2s8.2-3.7 8.2-8.3zm-13 0c0-2.8 2.1-5.1 5.1-5.1 1.9 0 2.9.6 3.9 1.5l-1.4 1.7c-.8-.7-1.5-1.1-2.5-1.1-1.7 0-2.8 1.4-2.8 3.1s1.1 3 2.8 3c1.1 0 1.7-.5 2.5-1.1l1.4 1.4c-1.1 1.1-2.1 1.7-4 1.7-2.9 0-5-2.3-5-5.1z"/><path fill="#e6e6e6" d="m226.6 154.7h3.4l4.2 13.2 4.4-13.3h2.6l4.4 13.3 4.2-13.2h3.3l-6.2 18h-2.7l-4.4-12.8-4.4 12.8h-2.7z"/><path fill="#e6e6e6" d="m252.8 165.8c0-3.9 3.1-7 7.2-7 4.2 0 7.2 3.2 7.2 7s-3.1 7-7.3 7c-4 0-7.1-3.1-7.1-7zm11.3 0c0-2.3-1.7-4.3-4.2-4.3s-4.1 2-4.1 4.3 1.7 4.3 4.1 4.3c2.7.1 4.2-1.9 4.2-4.3z"/><path fill="#e6e6e6" d="m269.5 159.1h3.1v3c.8-2 2.4-3.4 4.8-3.3v3.2h-.2c-2.7 0-4.6 1.7-4.6 5.4v5.1h-3.1z"/><path fill="#e6e6e6" d="m279.1 153.9h3.1v11.1l5.6-6h3.8l-5.4 5.5 5.5 8h-3.5l-4.1-5.8-1.9 2v3.9h-3.1z"/><path fill="#e6e6e6" d="m291.7 165.8c0-3.9 3.1-7 7.2-7 4.2 0 7.2 3.2 7.2 7s-3.1 7-7.3 7c-4 0-7.1-3.1-7.1-7zm11.3 0c0-2.3-1.7-4.3-4.2-4.3s-4.1 2-4.1 4.3 1.7 4.3 4.1 4.3c2.6.1 4.2-1.9 4.2-4.3z"/><path fill="#e6e6e6" d="m308.2 167.6v-8.6h3.1v7.6c0 2.1 1.1 3.3 2.9 3.3s3-1.3 3-3.3v-7.6h3.1v13.4h-3.1v-2.1c-.8 1.3-2.1 2.3-4.2 2.3-3.1.2-4.8-1.8-4.8-5z"/><path fill="#e6e6e6" d="m323.9 168.8v-7.1h-1.7v-2.6h1.7v-3.7h3.1v3.7h3.6v2.6h-3.6v6.6c0 1.2.6 1.7 1.7 1.7.7 0 1.3-.2 1.9-.5v2.5c-.8.5-1.7.7-2.8.7-2.3 0-3.9-.9-3.9-3.9z"/><path fill="#e6e6e6" d="m333.2 154.7h3.2v15h9.4v2.9h-12.5v-17.9z"/><path fill="#e6e6e6" d="m356 172.5v-1.7c-.9 1.1-2.3 2-4.4 2-2.6 0-4.8-1.4-4.8-4.2 0-3 2.3-4.4 5.4-4.4 1.7 0 2.6.2 3.7.5v-.2c0-1.9-1.2-2.9-3.3-2.9-1.5 0-2.6.3-3.9.8l-.8-2.5c1.5-.7 2.9-1.1 5.1-1.1 4 0 5.9 2.1 5.9 5.7v8zm.1-5.6c-.8-.3-1.9-.5-3.1-.5-2 0-3.1.8-3.1 2.1s1.1 2 2.6 2c2 0 3.5-1.1 3.5-2.9z"/><path fill="#e6e6e6" d="m364.9 170.5v2.1h-3.1v-18.7h3.1v7.4c1-1.4 2.4-2.5 4.5-2.5 3.2 0 6.3 2.5 6.3 7s-3.1 7-6.3 7c-2.1 0-3.5-1.1-4.5-2.3zm7.7-4.7c0-2.6-1.7-4.3-3.9-4.3s-3.9 1.7-3.9 4.4c0 2.6 1.8 4.3 3.9 4.3s3.9-1.7 3.9-4.4z"/><path fill="#e6e6e6" d="m376.9 170.8 1.4-2.1c1.4 1.1 3 1.7 4.4 1.7s2.1-.5 2.1-1.5-1.3-1.4-2.8-1.8c-.1 0-.2-.1-.2-.1-2-.6-4.2-1.4-4.2-4s2.1-4.1 4.8-4.1c1.7 0 3.5.6 5 1.5l-1.2 2.2c-1.3-.8-2.6-1.3-3.8-1.3s-1.9.5-1.9 1.4 1.3 1.4 2.8 1.8c.1 0 .2.1.2.1 2 .6 4.2 1.5 4.2 4 0 2.9-2.2 4.2-5 4.2-1.9 0-4-.7-5.8-2z"/><path fill="#e6e6e6" d="m505.6 163.6c0-5.1 4.1-9.2 9.3-9.2s9.2 4.2 9.2 9.2-4.1 9.2-9.3 9.2-9.2-4.1-9.2-9.2zm17.4-.1c0-4.5-3.5-8.2-8.2-8.2s-8.2 3.7-8.2 8.3c0 4.5 3.5 8.2 8.2 8.2s8.2-3.7 8.2-8.3zm-13.1 0c0-2.8 2.1-5.1 5.1-5.1 1.9 0 2.9.6 3.9 1.5l-1.4 1.7c-.8-.7-1.5-1.1-2.5-1.1-1.7 0-2.8 1.4-2.8 3.1s1.1 3 2.8 3c1.1 0 1.7-.5 2.5-1.1l1.4 1.4c-1.1 1.1-2.1 1.7-4 1.7-2.9 0-5-2.3-5-5.1z"/><path fill="#e6e6e6" d="m525.4 154.7h3.4l4.2 13.2 4.4-13.3h2.6l4.4 13.3 4.2-13.2h3.3l-6.2 18h-2.7l-4.4-12.8-4.4 12.8h-2.7z"/><path fill="#e6e6e6" d="m551.7 165.8c0-3.9 3.1-7 7.2-7 4.2 0 7.2 3.2 7.2 7s-3.1 7-7.3 7c-4.1 0-7.1-3.1-7.1-7zm11.2 0c0-2.3-1.7-4.3-4.2-4.3s-4.1 2-4.1 4.3 1.7 4.3 4.1 4.3c2.7.1 4.2-1.9 4.2-4.3z"/><path fill="#e6e6e6" d="m568.3 159.1h3.1v3c.8-2 2.4-3.4 4.8-3.3v3.2h-.2c-2.7 0-4.6 1.7-4.6 5.4v5.1h-3.1z"/><path fill="#e6e6e6" d="m577.9 153.9h3.1v11.1l5.6-6h3.8l-5.4 5.5 5.5 8h-3.5l-4.1-5.8-1.9 2v3.9h-3.1z"/><path fill="#e6e6e6" d="m590.6 165.8c0-3.9 3.1-7 7.2-7 4.2 0 7.2 3.2 7.2 7s-3.1 7-7.3 7c-4.1 0-7.1-3.1-7.1-7zm11.2 0c0-2.3-1.7-4.3-4.2-4.3s-4.1 2-4.1 4.3 1.7 4.3 4.1 4.3c2.6.1 4.2-1.9 4.2-4.3z"/><path fill="#e6e6e6" d="m607 167.6v-8.6h3.1v7.6c0 2.1 1.1 3.3 2.9 3.3s3-1.3 3-3.3v-7.6h3.1v13.4h-3.1v-2.1c-.8 1.3-2.1 2.3-4.2 2.3-3 .2-4.8-1.8-4.8-5z"/><path fill="#e6e6e6" d="m622.7 168.8v-7.1h-1.7v-2.6h1.7v-3.7h3.1v3.7h3.6v2.6h-3.6v6.6c0 1.2.6 1.7 1.7 1.7.7 0 1.3-.2 1.9-.5v2.5c-.8.5-1.7.7-2.8.7-2.3 0-3.9-.9-3.9-3.9z"/><path fill="#e6e6e6" d="m632 154.7h3.2v15h9.4v2.9h-12.6z"/><path fill="#e6e6e6" d="m654.8 172.5v-1.7c-.9 1.1-2.3 2-4.4 2-2.6 0-4.8-1.4-4.8-4.2 0-3 2.3-4.4 5.4-4.4 1.7 0 2.6.2 3.7.5v-.2c0-1.9-1.2-2.9-3.3-2.9-1.5 0-2.6.3-3.9.8l-.8-2.5c1.5-.7 2.9-1.1 5.1-1.1 4 0 5.9 2.1 5.9 5.7v8zm.1-5.6c-.8-.3-1.9-.5-3.1-.5-2 0-3.1.8-3.1 2.1s1.1 2 2.6 2c2 0 3.5-1.1 3.5-2.9z"/><path fill="#e6e6e6" d="m663.7 170.5v2.1h-3.1v-18.7h3.1v7.4c1-1.4 2.4-2.5 4.5-2.5 3.2 0 6.3 2.5 6.3 7s-3.1 7-6.3 7c-2.1 0-3.5-1.1-4.5-2.3zm7.8-4.7c0-2.6-1.7-4.3-3.9-4.3-2.1 0-3.9 1.7-3.9 4.4 0 2.6 1.8 4.3 3.9 4.3s3.9-1.7 3.9-4.4z"/><path fill="#e6e6e6" d="m675.8 170.8 1.4-2.1c1.4 1.1 3 1.7 4.4 1.7s2.1-.5 2.1-1.5-1.3-1.4-2.8-1.8c-.1 0-.2-.1-.2-.1-2-.6-4.2-1.4-4.2-4s2.1-4.1 4.8-4.1c1.7 0 3.5.6 5 1.5l-1.2 2.2c-1.3-.8-2.6-1.3-3.8-1.3s-1.9.5-1.9 1.4 1.3 1.4 2.8 1.8c.1 0 .2.1.2.1 2 .6 4.2 1.5 4.2 4 0 2.9-2.2 4.2-5 4.2-2 0-4.1-.7-5.8-2z"/><path fill="#e6e6e6" d="m61 298.6c0-5.1 4.1-9.2 9.3-9.2s9.2 4.2 9.2 9.2-4.1 9.2-9.3 9.2c-5.1 0-9.2-4.2-9.2-9.2zm17.4-.1c0-4.5-3.5-8.2-8.2-8.2s-8.2 3.7-8.2 8.3c0 4.5 3.5 8.2 8.2 8.2s8.2-3.7 8.2-8.3zm-13.1-.1c0-2.8 2.1-5.1 5.1-5.1 1.9 0 2.9.6 3.9 1.5l-1.4 1.7c-.8-.7-1.5-1.1-2.5-1.1-1.7 0-2.8 1.4-2.8 3.1s1.1 3 2.8 3c1.1 0 1.7-.5 2.5-1.1l1.4 1.4c-1.1 1.1-2.1 1.7-4 1.7-2.8.1-5-2.2-5-5.1z"/><path fill="#e6e6e6" d="m80.9 289.7h3.4l4.2 13.2 4.4-13.3h2.6l4.4 13.3 4.2-13.2h3.3l-6.2 18h-2.7l-4.4-12.8-4.4 12.8h-2.7z"/><path fill="#e6e6e6" d="m107.1 300.8c0-3.9 3.1-7 7.2-7s7.2 3.2 7.2 7-3.1 7-7.3 7c-4 0-7.1-3.1-7.1-7zm11.3 0c0-2.3-1.7-4.3-4.2-4.3s-4.1 2-4.1 4.3 1.7 4.3 4.1 4.3c2.6.1 4.2-1.9 4.2-4.3z"/><path fill="#e6e6e6" d="m123.7 294h3.1v3c.8-2 2.4-3.4 4.8-3.3v3.2h-.2c-2.7 0-4.6 1.7-4.6 5.4v5.1h-3.1z"/><path fill="#e6e6e6" d="m133.4 288.9h3.1v11.1l5.6-6h3.8l-5.4 5.5 5.5 8h-3.5l-4.1-5.8-1.9 1.9v3.9h-3.1z"/><path fill="#e6e6e6" d="m146 300.8c0-3.9 3.1-7 7.2-7s7.2 3.2 7.2 7-3.1 7-7.3 7c-4.1 0-7.1-3.1-7.1-7zm11.2 0c0-2.3-1.7-4.3-4.2-4.3s-4.1 2-4.1 4.3 1.7 4.3 4.1 4.3c2.6.1 4.2-1.9 4.2-4.3z"/><path fill="#e6e6e6" d="m162.4 302.6v-8.6h3.1v7.6c0 2.1 1.1 3.3 2.9 3.3s3-1.3 3-3.3v-7.6h3.1v13.4h-3.1v-2.1c-.8 1.3-2.1 2.3-4.2 2.3-3 .2-4.8-1.8-4.8-5z"/><path fill="#e6e6e6" d="m178.1 303.8v-7.1h-1.7v-2.7h1.7v-3.7h3.1v3.7h3.6v2.6h-3.6v6.6c0 1.2.6 1.7 1.7 1.7.7 0 1.3-.2 1.9-.5v2.5c-.8.5-1.7.7-2.8.7-2.3.1-3.9-.9-3.9-3.8z"/><path fill="#e6e6e6" d="m187.4 289.7h3.2v15h9.4v2.9h-12.5v-17.9z"/><path fill="#e6e6e6" d="m210.2 307.5v-1.7c-.9 1.1-2.3 2-4.4 2-2.6 0-4.8-1.4-4.8-4.2 0-3 2.3-4.4 5.4-4.4 1.7 0 2.6.2 3.7.5v-.2c0-1.9-1.2-2.9-3.3-2.9-1.5 0-2.6.3-3.9.8l-.8-2.5c1.5-.7 2.9-1.1 5.1-1.1 4 0 5.9 2.1 5.9 5.7v8zm.1-5.6c-.8-.3-1.9-.5-3.1-.5-2 0-3.1.8-3.1 2.1s1.1 2 2.6 2c2 0 3.5-1.1 3.5-2.9z"/><path fill="#e6e6e6" d="m219.2 305.5v2.1h-3.1v-18.7h3.1v7.4c1-1.4 2.4-2.5 4.5-2.5 3.2 0 6.3 2.5 6.3 7s-3.1 7-6.3 7c-2.2 0-3.6-1.1-4.5-2.3zm7.7-4.7c0-2.6-1.7-4.3-3.9-4.3s-3.9 1.7-3.9 4.4c0 2.6 1.8 4.3 3.9 4.3s3.9-1.7 3.9-4.4z"/><path fill="#e6e6e6" d="m231.2 305.8 1.4-2.1c1.4 1.1 3 1.7 4.4 1.7s2.1-.5 2.1-1.5-1.3-1.4-2.8-1.8c-.1 0-.2-.1-.2-.1-2-.6-4.2-1.4-4.2-4s2.1-4.1 4.8-4.1c1.7 0 3.5.6 5 1.5l-1.2 2.2c-1.3-.8-2.6-1.3-3.8-1.3s-1.9.5-1.9 1.4 1.3 1.4 2.8 1.8c.1 0 .2.1.2.1 2 .6 4.2 1.5 4.2 4 0 2.9-2.2 4.2-5 4.2-2 0-4.1-.7-5.8-2z"/><path fill="#e6e6e6" d="m360.6 298.6c0-5.1 4.1-9.2 9.3-9.2s9.2 4.2 9.2 9.2-4.1 9.2-9.3 9.2-9.2-4.2-9.2-9.2zm17.4-.1c0-4.5-3.5-8.2-8.2-8.2s-8.2 3.7-8.2 8.3c0 4.5 3.5 8.2 8.2 8.2s8.2-3.7 8.2-8.3zm-13.1-.1c0-2.8 2.1-5.1 5.1-5.1 1.9 0 2.9.6 3.9 1.5l-1.4 1.7c-.8-.7-1.5-1.1-2.5-1.1-1.7 0-2.8 1.4-2.8 3.1s1.1 3 2.8 3c1.1 0 1.7-.5 2.5-1.1l1.4 1.4c-1.1 1.1-2.1 1.7-4 1.7-2.8.1-5-2.2-5-5.1z"/><path fill="#e6e6e6" d="m380.5 289.7h3.4l4.2 13.2 4.4-13.3h2.6l4.4 13.3 4.2-13.2h3.3l-6.2 18h-2.7l-4.4-12.8-4.4 12.8h-2.7z"/><path fill="#e6e6e6" d="m406.7 300.8c0-3.9 3.1-7 7.2-7 4.2 0 7.2 3.2 7.2 7s-3.1 7-7.3 7c-4.1 0-7.1-3.1-7.1-7zm11.3 0c0-2.3-1.7-4.3-4.2-4.3s-4.1 2-4.1 4.3 1.7 4.3 4.1 4.3c2.7.1 4.2-1.9 4.2-4.3z"/><path fill="#e6e6e6" d="m423.3 294h3.1v3c.8-2 2.4-3.4 4.8-3.3v3.2h-.2c-2.7 0-4.6 1.7-4.6 5.4v5.1h-3.1z"/><path fill="#e6e6e6" d="m433 288.9h3.1v11.1l5.6-6h3.8l-5.4 5.5 5.5 8h-3.5l-4.1-5.8-1.9 2v3.9h-3.1z"/><path fill="#e6e6e6" d="m445.6 300.8c0-3.9 3.1-7 7.2-7 4.2 0 7.2 3.2 7.2 7s-3.1 7-7.3 7c-4.1 0-7.1-3.1-7.1-7zm11.3 0c0-2.3-1.7-4.3-4.2-4.3s-4.1 2-4.1 4.3 1.7 4.3 4.1 4.3c2.6.1 4.2-1.9 4.2-4.3z"/><path fill="#e6e6e6" d="m462.1 302.6v-8.6h3.1v7.6c0 2.1 1.1 3.3 2.9 3.3s3-1.3 3-3.3v-7.6h3.1v13.4h-3.1v-2.1c-.8 1.3-2.1 2.3-4.2 2.3-3.1.2-4.8-1.8-4.8-5z"/><path fill="#e6e6e6" d="m477.8 303.8v-7.1h-1.8v-2.7h1.7v-3.7h3.1v3.7h3.6v2.6h-3.6v6.6c0 1.2.6 1.7 1.7 1.7.7 0 1.3-.2 1.9-.5v2.5c-.8.5-1.7.7-2.8.7-2.2.1-3.8-.9-3.8-3.8z"/><path fill="#e6e6e6" d="m487.1 289.7h3.2v15h9.4v2.9h-12.5v-17.9z"/><path fill="#e6e6e6" d="m509.9 307.5v-1.7c-.9 1.1-2.3 2-4.4 2-2.6 0-4.8-1.4-4.8-4.2 0-3 2.3-4.4 5.4-4.4 1.7 0 2.6.2 3.7.5v-.2c0-1.9-1.2-2.9-3.3-2.9-1.5 0-2.6.3-3.9.8l-.8-2.5c1.5-.7 2.9-1.1 5.1-1.1 4 0 5.9 2.1 5.9 5.7v8zm.1-5.6c-.8-.3-1.9-.5-3.1-.5-2 0-3.1.8-3.1 2.1s1.1 2 2.6 2c2 0 3.5-1.1 3.5-2.9z"/><path fill="#e6e6e6" d="m518.8 305.5v2.1h-3.1v-18.7h3.1v7.4c1-1.4 2.4-2.5 4.5-2.5 3.2 0 6.3 2.5 6.3 7s-3.1 7-6.3 7c-2.2 0-3.5-1.1-4.5-2.3zm7.7-4.7c0-2.6-1.7-4.3-3.9-4.3s-3.9 1.7-3.9 4.4c0 2.6 1.8 4.3 3.9 4.3s3.9-1.7 3.9-4.4z"/><path fill="#e6e6e6" d="m530.8 305.8 1.4-2.1c1.4 1.1 3 1.7 4.4 1.7s2.1-.5 2.1-1.5-1.3-1.4-2.8-1.8c-.1 0-.2-.1-.2-.1-2-.6-4.2-1.4-4.2-4s2.1-4.1 4.8-4.1c1.7 0 3.5.6 5 1.5l-1.2 2.2c-1.3-.8-2.6-1.3-3.8-1.3s-1.9.5-1.9 1.4 1.3 1.4 2.8 1.8c.1 0 .2.1.2.1 2 .6 4.2 1.5 4.2 4 0 2.9-2.2 4.2-5 4.2-1.9 0-4.1-.7-5.8-2z"/><path fill="#e6e6e6" d="m659.5 298.6c0-5.1 4.1-9.2 9.3-9.2s9.2 4.2 9.2 9.2-4.1 9.2-9.3 9.2-9.2-4.2-9.2-9.2zm17.3-.1c0-4.5-3.5-8.2-8.2-8.2s-8.2 3.7-8.2 8.3c0 4.5 3.5 8.2 8.2 8.2 4.8 0 8.2-3.7 8.2-8.3zm-13-.1c0-2.8 2.1-5.1 5.1-5.1 1.9 0 2.9.6 3.9 1.5l-1.4 1.7c-.8-.7-1.5-1.1-2.5-1.1-1.7 0-2.8 1.4-2.8 3.1s1.1 3 2.8 3c1.1 0 1.7-.5 2.5-1.1l1.4 1.4c-1.1 1.1-2.1 1.7-4 1.7-2.9.1-5-2.2-5-5.1z"/><path fill="#e6e6e6" d="m679.3 289.7h3.4l4.2 13.2 4.4-13.3h2.6l4.4 13.3 4.2-13.2h3.3l-6.2 18h-2.6l-4.4-12.8-4.4 12.8h-2.7z"/><path fill="#e6e6e6" d="m705.5 300.8c0-3.9 3.1-7 7.2-7 4.2 0 7.2 3.2 7.2 7s-3.1 7-7.3 7c-4 0-7.1-3.1-7.1-7zm11.3 0c0-2.3-1.7-4.3-4.2-4.3s-4.1 2-4.1 4.3 1.7 4.3 4.1 4.3c2.7.1 4.2-1.9 4.2-4.3z"/><path fill="#e6e6e6" d="m722.1 294h3.1v3c.8-2 2.4-3.4 4.8-3.3v3.2h-.2c-2.7 0-4.6 1.7-4.6 5.4v5.1h-3.1z"/><path fill="#e6e6e6" d="m731.8 288.9h3.1v11.1l5.6-6h3.8l-5.4 5.5 5.5 8h-3.5l-4.1-5.8-1.9 2v3.9h-3.1z"/><path fill="#e6e6e6" d="m744.4 300.8c0-3.9 3.1-7 7.2-7 4.2 0 7.2 3.2 7.2 7s-3.1 7-7.3 7c-4.1 0-7.1-3.1-7.1-7zm11.3 0c0-2.3-1.7-4.3-4.2-4.3s-4.1 2-4.1 4.3 1.7 4.3 4.1 4.3c2.6.1 4.2-1.9 4.2-4.3z"/><path fill="#e6e6e6" d="m760.9 302.6v-8.6h3.1v7.6c0 2.1 1.1 3.3 2.9 3.3s3-1.3 3-3.3v-7.6h3.1v13.4h-3.1v-2.1c-.8 1.3-2.1 2.3-4.2 2.3-3.1.2-4.8-1.8-4.8-5z"/><path fill="#e6e6e6" d="m776.6 303.8v-7.1h-1.7v-2.7h1.7v-3.7h3.1v3.7h3.6v2.6h-3.6v6.6c0 1.2.6 1.7 1.7 1.7.7 0 1.3-.2 1.9-.5v2.5c-.8.5-1.7.7-2.8.7-2.3.1-3.9-.9-3.9-3.8z"/><path fill="#e6e6e6" d="m785.9 289.7h3.2v15h9.4v2.9h-12.5v-17.9z"/><path fill="#e6e6e6" d="m808.7 307.5v-1.7c-.9 1.1-2.3 2-4.4 2-2.6 0-4.8-1.4-4.8-4.2 0-3 2.3-4.4 5.4-4.4 1.7 0 2.6.2 3.7.5v-.2c0-1.9-1.2-2.9-3.3-2.9-1.5 0-2.6.3-3.9.8l-.8-2.5c1.5-.7 2.9-1.1 5.1-1.1 4 0 5.9 2.1 5.9 5.7v8zm.1-5.6c-.8-.3-1.9-.5-3.1-.5-2 0-3.1.8-3.1 2.1s1.1 2 2.6 2c2 0 3.5-1.1 3.5-2.9z"/><path fill="#e6e6e6" d="m817.6 305.5v2.1h-3.1v-18.7h3.1v7.4c1-1.4 2.4-2.5 4.5-2.5 3.2 0 6.3 2.5 6.3 7s-3.1 7-6.3 7c-2.1 0-3.5-1.1-4.5-2.3zm7.7-4.7c0-2.6-1.7-4.3-3.9-4.3-2.1 0-3.9 1.7-3.9 4.4 0 2.6 1.8 4.3 3.9 4.3 2.2 0 3.9-1.7 3.9-4.4z"/><path fill="#e6e6e6" d="m829.6 305.8 1.4-2.1c1.4 1.1 3 1.7 4.4 1.7s2.1-.5 2.1-1.5-1.3-1.4-2.8-1.8c-.1 0-.2-.1-.2-.1-2-.6-4.2-1.4-4.2-4s2.1-4.1 4.8-4.1c1.7 0 3.5.6 5 1.5l-1.2 2.2c-1.3-.8-2.6-1.3-3.8-1.3s-1.9.5-1.9 1.4 1.3 1.4 2.8 1.8c.1 0 .2.1.2.1 2 .6 4.2 1.5 4.2 4 0 2.9-2.2 4.2-5 4.2-1.9 0-4-.7-5.8-2z"/><path fill="#e6e6e6" d="m206.3 434.2c0-5.1 4.1-9.2 9.3-9.2s9.2 4.2 9.2 9.2-4.1 9.2-9.3 9.2-9.2-4.1-9.2-9.2zm17.4-.1c0-4.5-3.5-8.2-8.2-8.2s-8.2 3.7-8.2 8.3c0 4.5 3.5 8.2 8.2 8.2s8.2-3.7 8.2-8.3zm-13.1-.1c0-2.8 2.1-5.1 5.1-5.1 1.9 0 2.9.6 3.9 1.5l-1.4 1.7c-.8-.7-1.5-1.1-2.5-1.1-1.7 0-2.8 1.4-2.8 3.1s1.1 3 2.8 3c1.1 0 1.7-.5 2.5-1.1l1.4 1.4c-1.1 1.1-2.1 1.7-4 1.7-2.9.1-5-2.2-5-5.1z"/><path fill="#e6e6e6" d="m226.1 425.3h3.4l4.2 13.2 4.4-13.3h2.6l4.4 13.3 4.2-13.2h3.3l-6.2 18h-2.7l-4.4-12.8-4.4 12.8h-2.7z"/><path fill="#e6e6e6" d="m252.4 436.4c0-3.9 3.1-7 7.2-7 4.2 0 7.2 3.2 7.2 7s-3.1 7-7.3 7c-4.1 0-7.1-3.1-7.1-7zm11.2 0c0-2.3-1.7-4.3-4.2-4.3s-4.1 2-4.1 4.3 1.7 4.3 4.1 4.3c2.7.1 4.2-1.9 4.2-4.3z"/><path fill="#e6e6e6" d="m269 429.7h3.1v3c.8-2 2.4-3.4 4.8-3.3v3.2h-.2c-2.7 0-4.6 1.7-4.6 5.4v5.1h-3.1z"/><path fill="#e6e6e6" d="m278.6 424.5h3.1v11.1l5.6-6h3.8l-5.4 5.5 5.5 8h-3.5l-4.1-5.8-1.9 2v3.9h-3.1z"/><path fill="#e6e6e6" d="m291.3 436.4c0-3.9 3.1-7 7.2-7 4.2 0 7.2 3.2 7.2 7s-3.1 7-7.3 7c-4.1 0-7.1-3.1-7.1-7zm11.2 0c0-2.3-1.7-4.3-4.2-4.3s-4.1 2-4.1 4.3 1.7 4.3 4.1 4.3c2.6.1 4.2-1.9 4.2-4.3z"/><path fill="#e6e6e6" d="m307.7 438.2v-8.6h3.1v7.6c0 2.1 1.1 3.3 2.9 3.3s3-1.3 3-3.3v-7.6h3.1v13.4h-3.1v-2.1c-.8 1.3-2.1 2.3-4.2 2.3-3 .2-4.8-1.8-4.8-5z"/><path fill="#e6e6e6" d="m323.4 439.4v-7.1h-1.7v-2.6h1.7v-3.7h3.1v3.7h3.6v2.6h-3.6v6.6c0 1.2.6 1.7 1.7 1.7.7 0 1.3-.2 1.9-.5v2.5c-.8.5-1.7.7-2.8.7-2.3 0-3.9-.9-3.9-3.9z"/><path fill="#e6e6e6" d="m332.7 425.3h3.2v15h9.4v2.9h-12.5v-17.9z"/><path fill="#e6e6e6" d="m355.5 443.1v-1.7c-.9 1.1-2.3 2-4.4 2-2.6 0-4.8-1.4-4.8-4.2 0-3 2.3-4.4 5.4-4.4 1.7 0 2.6.2 3.7.5v-.2c0-1.9-1.2-2.9-3.3-2.9-1.5 0-2.6.3-3.9.8l-.8-2.5c1.5-.7 2.9-1.1 5.1-1.1 4 0 5.9 2.1 5.9 5.7v8zm.1-5.6c-.8-.3-1.9-.5-3.1-.5-2 0-3.1.8-3.1 2.1s1.1 2 2.6 2c2 0 3.5-1.1 3.5-2.9z"/><path fill="#e6e6e6" d="m364.4 441.1v2.1h-3.1v-18.7h3.1v7.4c1-1.4 2.4-2.5 4.5-2.5 3.2 0 6.3 2.5 6.3 7s-3.1 7-6.3 7c-2.1 0-3.5-1.1-4.5-2.3zm7.7-4.7c0-2.6-1.7-4.3-3.9-4.3-2.1 0-3.9 1.7-3.9 4.4 0 2.6 1.8 4.3 3.9 4.3 2.2 0 3.9-1.7 3.9-4.4z"/><path fill="#e6e6e6" d="m376.5 441.4 1.4-2.1c1.4 1.1 3 1.7 4.4 1.7s2.1-.5 2.1-1.5-1.3-1.4-2.8-1.8c-.1 0-.2-.1-.2-.1-2-.6-4.2-1.4-4.2-4s2.1-4.1 4.8-4.1c1.7 0 3.5.6 5 1.5l-1.2 2.2c-1.3-.8-2.6-1.3-3.8-1.3s-1.9.5-1.9 1.4 1.3 1.4 2.8 1.8c.1 0 .2.1.2.1 2 .6 4.2 1.5 4.2 4 0 2.9-2.2 4.2-5 4.2-2 0-4.1-.7-5.8-2z"/><path fill="#e6e6e6" d="m505.1 434.2c0-5.1 4.1-9.2 9.3-9.2s9.2 4.2 9.2 9.2-4.1 9.2-9.3 9.2-9.2-4.1-9.2-9.2zm17.4-.1c0-4.5-3.5-8.2-8.2-8.2s-8.2 3.7-8.2 8.3c0 4.5 3.5 8.2 8.2 8.2s8.2-3.7 8.2-8.3zm-13.1-.1c0-2.8 2.1-5.1 5.1-5.1 1.9 0 2.9.6 3.9 1.5l-1.4 1.7c-.8-.7-1.5-1.1-2.5-1.1-1.7 0-2.8 1.4-2.8 3.1s1.1 3 2.8 3c1.1 0 1.7-.5 2.5-1.1l1.4 1.4c-1.1 1.1-2.1 1.7-4 1.7-2.9.1-5-2.2-5-5.1z"/><path fill="#e6e6e6" d="m525 425.3h3.4l4.2 13.2 4.4-13.3h2.6l4.4 13.3 4.2-13.2h3.3l-6.2 18h-2.7l-4.4-12.8-4.4 12.8h-2.7z"/><path fill="#e6e6e6" d="m551.2 436.4c0-3.9 3.1-7 7.2-7 4.2 0 7.2 3.2 7.2 7s-3.1 7-7.3 7c-4.1 0-7.1-3.1-7.1-7zm11.2 0c0-2.3-1.7-4.3-4.2-4.3s-4.1 2-4.1 4.3 1.7 4.3 4.1 4.3c2.7.1 4.2-1.9 4.2-4.3z"/><path fill="#e6e6e6" d="m567.8 429.7h3.1v3c.8-2 2.4-3.4 4.8-3.3v3.2h-.2c-2.7 0-4.6 1.7-4.6 5.4v5.1h-3.1z"/><path fill="#e6e6e6" d="m577.5 424.5h3.1v11.1l5.6-6h3.8l-5.4 5.5 5.5 8h-3.5l-4.1-5.8-1.9 2v3.9h-3.1z"/><path fill="#e6e6e6" d="m590.1 436.4c0-3.9 3.1-7 7.2-7 4.2 0 7.2 3.2 7.2 7s-3.1 7-7.3 7c-4.1 0-7.1-3.1-7.1-7zm11.2 0c0-2.3-1.7-4.3-4.2-4.3s-4.1 2-4.1 4.3 1.7 4.3 4.1 4.3c2.6.1 4.2-1.9 4.2-4.3z"/><path fill="#e6e6e6" d="m606.5 438.2v-8.6h3.1v7.6c0 2.1 1.1 3.3 2.9 3.3s3-1.3 3-3.3v-7.6h3.1v13.4h-3.1v-2.1c-.8 1.3-2.1 2.3-4.2 2.3-3 .2-4.8-1.8-4.8-5z"/><path fill="#e6e6e6" d="m622.2 439.4v-7.1h-1.7v-2.6h1.7v-3.7h3.1v3.7h3.6v2.6h-3.6v6.6c0 1.2.6 1.7 1.7 1.7.7 0 1.3-.2 1.9-.5v2.5c-.8.5-1.7.7-2.8.7-2.3 0-3.9-.9-3.9-3.9z"/><path fill="#e6e6e6" d="m631.5 425.3h3.2v15h9.4v2.9h-12.5v-17.9z"/><path fill="#e6e6e6" d="m654.3 443.1v-1.7c-.9 1.1-2.3 2-4.4 2-2.6 0-4.8-1.4-4.8-4.2 0-3 2.3-4.4 5.4-4.4 1.7 0 2.6.2 3.7.5v-.2c0-1.9-1.2-2.9-3.3-2.9-1.5 0-2.6.3-3.9.8l-.8-2.5c1.5-.7 2.9-1.1 5.1-1.1 4 0 5.9 2.1 5.9 5.7v8zm.1-5.6c-.8-.3-1.9-.5-3.1-.5-2 0-3.1.8-3.1 2.1s1.1 2 2.6 2c2 0 3.5-1.1 3.5-2.9z"/><path fill="#e6e6e6" d="m663.3 441.1v2.1h-3.1v-18.7h3.1v7.4c1-1.4 2.4-2.5 4.5-2.5 3.2 0 6.3 2.5 6.3 7s-3.1 7-6.3 7c-2.2 0-3.6-1.1-4.5-2.3zm7.7-4.7c0-2.6-1.7-4.3-3.9-4.3s-3.9 1.7-3.9 4.4c0 2.6 1.8 4.3 3.9 4.3s3.9-1.7 3.9-4.4z"/><path fill="#e6e6e6" d="m675.3 441.4 1.4-2.1c1.4 1.1 3 1.7 4.4 1.7s2.1-.5 2.1-1.5-1.3-1.4-2.8-1.8c-.1 0-.2-.1-.2-.1-2-.6-4.2-1.4-4.2-4s2.1-4.1 4.8-4.1c1.7 0 3.5.6 5 1.5l-1.2 2.2c-1.3-.8-2.6-1.3-3.8-1.3s-1.9.5-1.9 1.4 1.3 1.4 2.8 1.8c.1 0 .2.1.2.1 2 .6 4.2 1.5 4.2 4 0 2.9-2.2 4.2-5 4.2-2 0-4.1-.7-5.8-2z"/></g>
</svg>
