<?xml version="1.0" encoding="utf-8"?>
<!-- Generator: Adobe Illustrator 23.0.1, SVG Export Plug-In . SVG Version: 6.00 Build 0)  -->
<svg version="1.2" baseProfile="tiny" id="Layer_1" xmlns="http://www.w3.org/2000/svg" xmlns:xlink="http://www.w3.org/1999/xlink"
	 x="0px" y="0px" viewBox="0 0 900 600" xml:space="preserve">
<g>
	<path d="M558.47,142.01l0.1-0.1C558.51,141.74,558.53,141.88,558.47,142.01z"/>
	<path d="M896.81,471.9c5.07-6.34,3.97-9.37-2.34-14.57c-2.96-2.44-5.91-2.97-9.58-2.14c-22.5,5.1-27.48,0.23-34.04,0.92
		c-7.3,0.76-9.82-2.46-12.84-5.4c-3.92-3.82-7.46-7.76-8.66-13.35c-0.29-1.33-0.61-2.65-2.24-3.06c-7.01,2.43-0.59,7.15-6.35,11.38
		c0.41-2.08-4.16-11.18-6.49-18.92c-5.13-17.06-5.6-36.04-7.44-39.03c-1.22,1.32-0.1,2.85-1.02,4.08
		c-2.34-8.36-2.67-16.81-2.96-25.27c-1.22-35.79-14.32-58.86-14.17-69.4c0.15-10.6-5.51-17.3-14.57-21.81
		c-4.16-2.07-4.19-4.57-10.29-4.38c-7.44,0.23-14.88-1.12-22.32-0.61c1.32-5.81,6.73-9.58,5.61-16c4.19-4.19,1.67-2.65,2.24-12.74
		c0.34-5.93-4.53-5.34-5.61-7.13c1.42-6.4,2.5-8.67-0.82-10.19c-2.15-0.99-4.38-1.63-6.93-1.43c0.82,4.69,5.2,3.06,7.85,4.48
		c-1.22,4.59-2.45,8.87-3.67,13.45c1.53-0.82,3.46-0.51,4.28-1.83c0.1-0.92-0.92-0.92-0.71-1.63c4.69,0.92,5.5,3.57,3.36,10.7
		c-11.63,1.79-15.53-2.55-17.6-0.03c-3.29-1.6-3.38-2.12-1.25-4.15c5.1,3.87,6.52,3.77,10.19-1.02c1.12-0.31,2.45,0.1,3.57-0.92
		c-1.63-1.02-3.26-0.1-4.89-0.61c-1.53-3.16-2.04-6.83-4.69-9.38c0.92-2.85,2.85-5.4,2.14-9.27c-2.55,2.34-1.94,5.4-3.67,7.34
		c-6.65-3.33-8.45-1.7-10.9,2.14c-1.76,2.76-7.96,4.04-8.87,8.25c-9.07,3.67-18.45,4.48-27.82,6.93
		c-20.71-228.63-22.97-238.22-1.83,0.1c-6.93,0.2-13.15-1.94-19.67-2.85c-0.41-4.38,2.65-7.75,2.75-11.41
		c-0.71-2.24-3.06-2.55-4.08-4.28C645.03,56.24,647.5,71.7,644.78,71.7c16.74,190.06,16.68,151.85,6.42,156.13
		c-5.87,12.48-1.33,0.24-4.99-7.85c-3.77-8.32,3.19-10.72-2.65-24.05c-13.69-31.26-14.96-25.79-25.58-32.92
		c-4.08-2.74-9.48-2.65-12.94-6.62c-0.41-0.41-1.12-0.1-1.53,0.82c1.73,2.45,3.55,5.11,5.5,7.64c19.09,24.73,14.96,41.35,9.48,35.87
		c-1.43-3.87-3.16-7.85-5.5-11.41c0.51,3.97,2.65,7.34,3.77,11.52c-19.4-8.62-1.33,1.78-39.13-33.22c1.02-0.92,2.55,1.02,3.36-1.22
		c-8.73-0.42-6.31-5.41-31.29-18.85c7.41-1.71,5.5-7.17,6.73-9.17c5.56,9.06-0.85-4.57,2.14-7.85c1.6-1.76,2.24-3.36,1.94-5.5
		c2.23-0.89,4.1,2.48,8.87,1.63c2.25-0.4,2.85-3.58,1.22-4.28c-1.02,0.2-1.12,1.83-2.55,2.14c-6.42-3.26-14.47-4.59-16.61-13.55
		c2.85-1.73,2.45-5.4,4.38-7.44c16.77,2.56,10.41,7.09,17.02,10.39c1.22-0.71-0.31-2.24,0.82-2.85c1.43-0.61,2.75,1.32,4.79,0
		c-14.01-6.45,9.77-29.81,11.21-36.69c3.46,0.61,6.22-0.31,8.25-2.85c-0.41-1.32-1.83,0.31-2.34-1.02c2.33-1.42,4.76-2.04,6.8-3.55
		c2.04,4.08,4.95,1.09,7.57,0.59c8.19,16.92,5.31,14.49,7.54,18.96c-9.54,5.83,6.95,14.71,3.97,18.55c-1.4,1.81-5.28-1.46-7.24,2.45
		c1.43,2.65,2.85,0.31,4.38-0.2c0,3.36,1.43,6.01,2.34,8.87c-2.96,2.34-7.34,0.82-10.5,4.08c3.46,1.83,6.01-0.82,8.97-0.31
		c3.97,3.97-2.55,1.37,0.2,10.9c1.5,5.18-5.74,7.65-9.38,6.22c-7.45-2.94-15.5-2.91-23.24-3.97c-0.71-0.1-1.43-0.1-1.53,1.53
		c6.93,0,13.15,2.75,19.77,4.59c-4.79,11.82-5.4,15.8-2.75,18.34c5.02-23.92,2.56-17.63,12.03-17.94c4.28-0.14,7.96-4.79,6.83-9.07
		c-0.7-2.65-1.78-5.15,0.71-7.34c1.75-1.53-1.65-2.11,1.22-7.13c-0.63-3.13-4.18-5.68-2.14-7.64c6.21-5.95,1.42-5.41-4.28-16
		c-0.3-0.91-0.74-1.24,1.63-1.83c2.75-9.48-3.46-16.41-6.62-24.05c2.55-1.83,5.2-2.75,7.03-4.79c-1.3-5.48,0.76-11.05-4.18-11.82
		c-1.83,0.61-3.16,2.34-5.3,2.55c0.31-1.43,2.14-1.73,1.22-3.77c-1.94,0.82-3.16-0.71-4.48-2.14c-2.24,1.22-2.14,3.67-3.26,5.61
		c-1.69-2-0.62-6.82-16.1-2.14c0.2-1.32,1.53-2.14,0.31-3.46c-1.63-0.71-2.85,0.61-4.18,1.53c-9.56,6.61-12.38,0.22-19.67,5.5
		c-3.48,2.52-7.85,4.08-10.6,7.44c-2.34-0.31-2.96-3.06-5.3-3.36c-1.22,6.08,3.38,6.11-2.24,4.89c-1.93-0.42-4.08-1.63-5.5,0.61
		s1.02,3.36,2.14,4.99c-1.32,1.02-0.51,2.95-1.12,4.08c-2.76,5.09-1.36,10.29-1.02,15.49c0.27,4.21,3.78,2.63,4.08,9.27
		c0.1,2.34,0.61,4.48,2.04,6.32c1.12-0.61,0.1-1.73,0.92-2.34c0.61,0.82,1.3,1.72,0.82,2.65c-2.68,5.07,8.41,17.26,6.42,39.44
		c-5.69,4.07-17.1,8.39-23.95,10.29c-7.23,2.01-5.2,4.24-9.48,8.46c-5.95,5.87-24.15,17.55-18.55,44.64
		c3.03,14.63-6.39,14-1.32,49.53c6.58,46.18,19.25,37.06,2.34,38.83c-11.88,1.25-14.7,12.16-13.15,23.95
		c-3.77,0.61-7.44-0.2-10.9,0.92c-3.14-11.17-21.7-255.04-27.72-252.53c8.15,84.58,16.31,169.27,24.56,253.96
		c25.17,0,18.02,0.33-7.44,1.32c-33.9-346.23-34.06-330.96-1.73,1.12c5.13,1.32,68.26-2.02,70.01-2.24
		c50.97-6.4,59.58,3.65,74.19-2.96c4.49-2.03,9.48-1.43,13.96-3.16c0.51-0.1,1.12,0.2,1.73,0.31c6.2,1.62,19.83-0.15,21.3-0.71
		c0.31,6.83,0.71,12.94,1.02,19.67c-66.86,4.97-180.75,3.69-180.07,9.78c25.51,229,19.32,215.96,22.52,216.25
		c-7.03-72.05-13.96-144-20.99-216.05c8.23-1.27,7.57,0.3,7.85,3.06c31.93,323.24,27.79,242.83,2.65-2.96
		c3.87-0.71,67.57-3.06,70.93-2.65c3.36,17.02,5.47,29.96,13.76,34.75c7.36,4.25,9.11,12.68,23.34,16.71
		c34.78,9.87,4.8,6.65,84.79,1.73c17.96,205.26,22.88,239.65,1.83,0.2c7.95-1.93,17.61-2.87,19.23-2.81
		c-0.28,2.01,3.83,50.81,14.81,167.8c0.36,3.86,2.13,4.08,1.73-0.31c-8.79-97.08-15.7-165.13-16.48-167.49
		c0.14,0.01,0.2,0.03,0.17,0.05c4.89-2.96,10.5-0.82,15.29-1.94c0.92-1.12-0.01-1.84,0.31-2.75c8.51-24.49,3.04-34.92,11.21-39.95
		c-0.13,5.14-6.19,29.95,4.38,45.55c35.32,52.15,11.34,8.23,44.13,80.71c-2.65,2.55-3.46,7.85-1.53,10.39
		c1.32-0.51,0.51-2.34,2.24-3.26c-0.82,2.55,1.53,2.14,2.45,3.36c5.44,7.22,16.74,10.59,22.42,2.24
		c10.01-14.69,12.92-16.25,13.76-24.36c0.95-9.19,1.42,1.69,4.99,6.62c-3.87,3.77-6.42,8.25-7.95,13.45
		c17.09-12.82,4.29-3.97,4.89,1.32c12.52-4.25,11.29-12.45,14.06-9.68c-1.94,3.06-4.69,5.61-5.81,9.48
		c3.46-0.92,5.71-2.65,8.05-4.89c0.1,1.94-1.94,2.55-1.73,3.97c1.8,1.35,6.78-3.79,9.68-4.89c-1.43,1.83-3.36,3.26-3.36,6.01
		c3.99-0.9,6.33-3.85,9.2-5.79c0.24,5.17,4.43-0.28,6.9-0.73c0.31,0.92-0.1,2.34,1.83,2.34c1.63-1.43,2.65-3.57,3.26-5.3
		c38.45-10.08,27.11-17.52,33.02-0.51c2.16,6.22-0.83,8.87-11.21,23.24c-4.77,6.61-24.59,14.08-32.51,17.02
		c-9.56,3.55-12.58,1-26.8,6.01c-11.95,4.21-23.95,8.47-36.99,7.03c-3.67-0.4-7.54,0.61-10.8-1.53c-0.94-2.66,2.09-5.31,1.32-7.95
		c-2.69-9.32,3.3-18.05,0.31-28.33c-0.44-1.52,0.41-3.46-1.53-4.59c-1.43,1.43-0.85,3.06-0.71,4.69c0.75,9.23,2.12-1.54-1.22,21.6
		c-0.62,4.28,0.52,8.56-1.22,12.94c-1.42,3.57-0.1,4.69,3.87,5.3c25.14,7.18,46.1-8.08,62.98-9.38
		c13.2-1.01,54.26-19.44,49.43-28.23c0.2-0.31,0.21-0.41,0.31-0.51C887.43,485.34,891.69,478.3,896.81,471.9z M557.65,123.36
		c-1.94,0.1-1.94-1.43-2.65-2.14C556.12,121.43,557.14,121.63,557.65,123.36z M606.98,50.3c0.61,1.53-0.2,1.73-0.92,1.94
		C605.55,51.42,605.96,50.91,606.98,50.3z M604.44,66.29c2.67-1.78,8.56-3.66,11.2-9.17C615.1,65.49,597.61,70.29,604.44,66.29z
		 M592.3,71.39c-1.08,0,0.82-1.31,0.82-0.41C592.81,71.09,592.61,71.39,592.3,71.39z M600.96,55.29c0.82,1.73,0,2.65-1.53,3.06
		C597.93,57.68,598.43,55.29,600.96,55.29z M597.4,55.19c-1.02-0.1-1.94-0.61-3.57-0.1C596.16,52.12,598.42,53.76,597.4,55.19z
		 M592.1,55.49c0.41,0.82-0.31,0.82-0.71,1.02C591.18,55.7,591.38,55.39,592.1,55.49z M596.27,66.8c-2.04,0.71-3.77,2.34-6.11,1.94
		C592.1,67.62,593.93,66.19,596.27,66.8z M576.2,91.16c-0.2-1.02,0-1.53,1.22-1.83C577.32,90.24,577.01,90.75,576.2,91.16z
		 M587,71.8c-0.51,2.24-1.83,3.46-3.26,4.38C584.56,74.65,585.37,73.23,587,71.8z M583.74,53.86c-0.61,1.32-0.61,1.32-1.83,0.41
		C582.62,53.76,583.23,53.66,583.74,53.86z M584.15,71.49c-0.82-0.92-1.53-1.83-2.34-2.65C583.13,69.15,584.35,69.76,584.15,71.49z
		 M583.84,79.75c-1.32,1.63-2.65,3.16-4.08,4.99C579.97,81.89,579.97,81.89,583.84,79.75z M577.83,70.47
		c-1.63,1.63-1.63,1.63-5.61-0.51C574.67,69.05,575.79,70.98,577.83,70.47z M570.8,86.17c0.41,1.02-0.1,1.32-0.71,1.63
		C569.68,87.09,569.68,86.47,570.8,86.17z M542.06,65.99c1.94-0.2,3.46,0.61,4.99,1.43C545.12,68.54,543.38,68.64,542.06,65.99z
		 M565.4,90.45c0.1-0.61,0.61-0.61,1.22-0.51C566.62,91.8,565.15,91.2,565.4,90.45z M561.42,72.1c1.12,0.31,1.32,1.22,2.04,1.63
		c-0.51,1.32-1.32,1.73-2.45,1.94C559.89,73.84,561.22,73.12,561.42,72.1z M558.36,101.45c-1.02,1.02-1.73,0.71-2.55-0.1
		C556.94,100.23,557.55,100.74,558.36,101.45z M551.84,71.09c1.22,0.92,2.34,1.73,3.57,2.75c-1.63,1.43-2.85-0.51-4.08,0.51
		C551.03,73.12,551.23,72.21,551.84,71.09z M553.37,92.18c-1.63,1.32-2.34,0.31-3.36-0.61C551.33,91.47,552.25,91.26,553.37,92.18z
		 M549.6,97.79c0.92-0.2,1.02,0.1,1.22,0.61C550.01,98.7,550.01,98.09,549.6,97.79z M863.58,461.91c1.24-0.93,2.21,0.79-0.31,1.63
		C863.28,462.72,863.18,462.21,863.58,461.91z M834.44,451.92c1.12,0.61,1.73,1.43,2.75,2.45
		C830.54,459.36,831.17,460.79,834.44,451.92z M826.79,438.16c-0.2,0.51-0.41,0.82-1.02,0.51
		C825.78,437.86,826.18,437.76,826.79,438.16z M738.74,270.22c-14.52-4.73-13.23-0.93-14.78-7.64c6.22,0.82,11.72,4.08,18.24,3.36
		C741.29,267.77,740.68,269.4,738.74,270.22z M720.81,272.76c0.51-2.34,0.82-4.38,1.32-6.93
		C727.35,272.1,741.81,268.34,720.81,272.76z M729.37,248.82c6.82,1.95,13.19,2.32,18.23,1.74c-0.2,2.55-4.18,6.12-7.13,6.32
		c-6.52,0.43-12.13-2.65-18.04-4.69C722.64,246.07,727.46,250.97,729.37,248.82z M660.99,233.33c-2.96-0.41-5.71-1.32-7.85-3.57
		C656.1,230.27,658.95,231.08,660.99,233.33z M651.41,231.59c3.57,1.12,6.42,4.08,10.9,3.46c-3.06,6.32-4.38,12.53-6.73,18.34
		c-4.48,0-6.32-3.97-9.58-6.11C646.92,241.78,649.98,237.1,651.41,231.59z M645.29,241.99c-1.63,0.2-2.85-0.41-4.38-0.82
		c0.82-3.26,0-6.52,0.31-9.78c0.31-3.36,2.45-6.11,3.36-9.38C645.7,228.74,648.35,235.36,645.29,241.99z M610.44,162.7
		c1.94,1.02,2.45,3.16,3.46,4.89C612.38,166.27,611.05,164.74,610.44,162.7z M635,183.19c9.86,18.15,9.88,24.06,7.54,34.34
		c-5.2-19.97-17.32-36.08-28.13-52.99C626.9,171.52,626.29,167.16,635,183.19z M547.77,149.66c42.65,23.42,48.75,50.65,67.57,54.01
		c1.73,0.31,3.16,1.12,3.36,3.87c0.82-1.63,1.02-2.85,2.65-2.45c4.32,1.08,5.28-7.77,4.08-11.41c-1.27-3.86-1.63-7.95-3.26-11.82
		c2.13,0.15,12.39,16.61,18.96,38.83c0.81,2.75,0.01,5.2-1.12,7.24c-2.92,5.23-1.22,11.24-1.22,13.55
		c-9.05,7.8-19.09,12.64-21.91,12.64c-9.07-0.58-11,1.56-36.89,5.5c-2.17,0.72-14.37-3.31-22.93-3.77c3.26-2.45,7.46-1.71,10.5-4.38
		c2.77-2.43,4.08-6.62,8.36-7.54c0.2-0.92-0.83-1.84-0.2-3.16c2.98-6.25,5.1-12.84,6.22-20.18c1.94,2.24,3.97,2.75,6.62,0.71
		c-2.34-0.71-4.28-1.43-6.22-2.04c1.63-30.47-13.66-51.26-37.71-67.26C545.63,151.29,546.54,150.57,547.77,149.66z M557.35,223.85
		c-0.41-2.34-0.92-4.89-1.43-7.75c5.2,1.12,9.99,3.06,15.29,2.75c1.53,1.02,2.75,2.65,4.79,2.45c1.04-1.56-3.26-3.07,3.06-0.82
		c-0.91,4.74-1.72,9.47-4.2,13.81c-0.81-1.77-1.62-1.47-2.83-0.36c1.18,1.3,2.25,0.42,2.79,0.42c-0.41,0.41-0.21,5.93-4.84,8.45
		c-0.82,4.99-4.48,8.66-18.34,10.09c-0.55-5.24,3.51-8.39,4.89-14.68c0.69-3.16,0.82-6.42,1.12-9.78c2.14,0.61,3.97,2.34,6.62,1.43
		C562.64,227.01,559.28,226.4,557.35,223.85z M573.75,218.04c1.12-0.31,1.32,0.71,1.94,1.12
		C574.98,219.16,574.26,218.85,573.75,218.04z M623.59,313.63c-2.65,1.11-10.35,0.99-15.39,3.57c-9.2,4.71-28.65-2.83-66.85,1.32
		c-15.16,1.65-26.3,0.68-33.22,2.96c-4.12,1.36-5.48-1.08-10.6-0.51c-8.35,0.93-5.31-6.53-5.1-16.92c0.05-2.2,6.95-8.07,12.94-6.32
		c2.34,0.68,84.89-8.82,85.81-9.68c-5.91-0.61-11.31-0.61-16.71-0.71c5.2-1.94,10.29-3.77,16.2-5.1c-1.83-1.22-3.36-0.51-4.38-0.1
		c-5.19,2.06-11.01,2.45-15.69,5.71c-1.55,0.77-12.19,0.59-37.5,5.4c-5.3,1.01-10.8,0.41-16.1,1.32
		c-7.44,0.83-9.94-19.66-10.5-24.87c-3.37-8.63-4.65-22.06-4.89-32.41c3.55,3.55,4.96,8.56,7.03,8.56
		c-1.7-10.43-11.87-6.35-3.57-29.76c3.12-8.81-4.02-16.4,0-31.39c3.23-12.04,9.71-12.16,15.29-20.28c3.01-4.39,8.3-2.99,11.11-5.1
		c-2.45-0.92-4.59,0.82-6.93,0.61c5.2-3.46,10.7-5.91,16.92-6.73c23.34,13.35,41.38,39.74,38.22,65.02
		c-2.04-2.96-5.73-2.43-7.54-5.71c-0.92-1.66-8.03-3.13-11.82-6.11c-2.05-1.61-4.59-1.12-6.52,0.61c-2.05,10.99,2.63,30-2.75,38.42
		c-5.86,9.18,3.7,8.22-11.92,8.66c2.24,2.8,29.95,5.38,36.28,8.15c2.57,1.13,28.87-4.79,39.03-4.79c8.61,0,8.19-2.61,10.09-3.57
		c11.15-2.89,12.17-11.67,19.87-8.87c-1.22,1.43-2.75-0.82-3.77,1.02c5.61,4.89,11.31,9.89,18.55,12.53
		c-3.81,10.48,1.06,3.43,1.32,3.26c1.63,1.32,2.65,3.37,4.79,4.38c2.83,1.33,0.06,6.56-0.47,7.09c2.1-0.26,2.19-0.4,3.93-3.02
		c1.43-0.71,3.06-0.41,4.89-0.82c-1.53-1.83-3.46-1.22-4.89-1.63c-2.85-5.2-9.38-7.13-11.11-13.35c0.92-2.24,2.04-4.69,2.55-7.54
		c8.66,1.22,17.03,4.82,25.58,2.96c8.26-1.8,16.61-3.16,23.95-6.01c2.1,0.55,1.27,3.37,2.96,2.24c-1.03-9.09,7.35-7.2,9.48-12.33
		c1.35-3.25,2.04-3.57,5.4-2.34c4.03,1.15,0.53,1.39,0.71,2.65c4.54,0,3.64-2.04,7.75,9.68c-1.43,3.71-6.28,0.68-7.34-1.32
		c-1.02-2.24-2.34-4.38-3.57-6.42c-5.4,0.54,1.55,4.6,1.73,7.24c-0.51,0.71-1.43,1.73-1.02,3.26c-2.73,1.42-6.07,2.44-5,6.55
		c6.37,3.18,15.21,4.95,19.68,5.47c1.93,0.23,3.26-1.22,4.89-2.04c-0.72,12.73-10.73,6.5-20.38,4.59c-2.14-0.42-3.67-1.63-4.69-3.26
		c-0.3-1.77,0.91-3.16,0.45-4.63c-2.07,1.89-2.14,3.89-0.45,6.16c1.23,1.65,1.26,1.72-1.83,13.76c-1.83,1.12-4.08,0.61-5.91,1.73
		c-3.87-4.18-8.87-3.77-13.76-4.38c5.2-1.12,9.99-3.06,14.57-5.61c1.73,0.2,2.85,2.75,5.2,1.43c-1.02-1.73-3.36-1.94-3.87-4.28
		c-9.07,4.69-19,5.81-27.92,9.99c-2.77,1.29-6.32,1.32-9.48,0.71c-2.65-0.51-5.2,0.31-7.85,0.31c-1.38,0-1.55,1.94-0.1,1.94
		c19.2-1.2,22.88,1.28,22.52-2.34c6.62-0.31,12.84-0.71,18.75,3.06c-4.89,2.75-10.28,2.18-15.18,3.46
		c-5.19,1.36-10.09-0.71-15.18-1.63c0.71,2.14,2.85,0.82,3.67,2.45c-28.93,4.59-17.28,5.53-16.61-1.53c0-4.19-3.23-4.47-2.49-5.21
		c-3.02-0.74-3.84-4.37-7.19-5.59c1.53,4.48,5.91,5.91,7.95,9.27c-1.54,11.26-8.74,1.07-12.53,0.31c3.09,5.92,10.42,6.51,4.28,13.76
		c-2.85-1.53-6.42-1.53-9.07-3.77c0,3.87,3.26,3.67,5.91,4.79c-0.71,1.43,0.41,2.85-0.31,4.28c-2.96,2.17-3.47-0.47-14.27-1.43
		c-12.3-1.09-18.59-15.79-30.78-14.47c-6.57,3.97-15.78,5.2-16.2,7.03c4.89-1.12,9.68,0.49,14.57,0.41
		c8.59-0.15,12.57,5.34,16.31,12.33C625.69,304.32,627.36,308.53,623.59,313.63z M601.88,285.61c3.3-1.29,9.97-5.33,14.78-1.32
		c4.28,4.38,9.89,7.03,14.88,10.9c-1.53,2.85-2.96,5.61-4.69,9.07C622.47,292.84,615.64,285.1,601.88,285.61z M639.69,313.32
		c-4.28,2.75-8.46,0.51-12.23,1.12c-1.32-2.45,1.22-10.19,5.91-18.55c3.16,1.43,6.62,1.32,10.29,1.94
		c-1.12,4.38-2.96,8.36-3.67,12.53c-2.14,1.12-4.28,0.51-6.42,1.73C635.41,313.32,637.55,312.2,639.69,313.32z M708.68,387.62
		c-12.03,0.1-23.54,3.26-35.26,4.48c-0.58-2.61,22.72-17.8,34.65-47.08c0.9-2.22,5.28-15.12,2.34-16.92
		c-3.87,0,0.54,7.85-21.91,39.54c-12.71,17.95-13.87,25.27-24.36,25.38c-13.65,0.14-29.85,4.32-39.34,2.85
		c-1.84-0.28-3.26,1.32-5.2,1.32c-7.85,0-15.49-0.61-22.83-3.77c-8.24-3.55-11.79-2.34-20.59-9.78c4.69,0.82,8.15,2.75,11.82,4.28
		c-0.88-3.18-18.73-8.63-20.38-14.67c-1.02-0.92-1.73,0.41-2.75,0.1c-6.62-9.27-8.56-20.28-11.31-31.29
		c13.15-0.51,25.99-0.92,39.44-1.43c-1.92,4.11-9.19,12.44-9.48,14.57c1.22-0.92,1.94-1.63,2.14-2.75
		c13.34-14.1,6.16-12.23,14.17-12.23c-0.71,5.71-4.18,10.29-5.3,15.8c2.65-5.1,5.5-9.99,7.34-15.8c20.19-2.56,27.9,1.35,48.31-4.48
		c0.71-7.13-0.41-14.06-1.43-20.89c-4.65-3.62-3.63-0.93-6.62-1.53c-0.2-5.2,2.45-9.78,3.26-14.98c3.06,0.31,6.29,2.42,9.17-0.1
		c1.41-1.24,1.94-2.96,1.32-5.1c3.46-0.1,4.89-2.24,5.71-5.3c10.27-2.72,52.43-8.03,57.78-7.64c-2.55,10.9-4.89,21.6-4.08,32.92
		c-4.69,0.41-8.97,1.02-12.94,2.96c4.18-0.1,8.15-1.63,12.23-1.43C718.26,339.41,713.67,363.36,708.68,387.62z M721.83,344.1
		c-0.41-0.82,0.31-1.12,0.61-1.53C723.15,343.49,722.64,343.9,721.83,344.1z M798.06,474.65c0.91,3.64,0.1,2.92-4.89,10.5
		c-3.65,5.54-10.33,4.2-15.29-0.2c10.19-7.24,17.43-17.12,24.87-27.41c1.43,2.55,0.92,5.2,2.75,6.62
		C804.07,468.63,802.44,472.61,798.06,474.65z M805.7,444.38c0.41,6.52,4.48,12.23,0.2,18.55c0.31-3.77,0.51-7.13-2.24-10.5
		c-8.15,11.31-16.2,22.01-27.82,30.57c0-8.66-9-19.98-10.19-28.53c-0.68-4.89-6.54-11.17-7.95-19.46c-0.4-2.35-2.76-3.15-3.77-5.1
		c-16.92-32.55-37.39-33.72-27.52-89.48c0.9-5.09,4.46-9.22,5.71-13.45c-9.46,8.24-5.21,11.96-12.74,15.18
		c-0.1-3.67-1.12-7.13,1.02-10.19c-3.36-3.67-1.12-8.05-1.83-11.92c3.67-2.04,6.22-5.1,9.68-7.03c-3.46-0.61-6.11,1.53-9.68,2.65
		c0.69-45.62,3.69-33.18,19.36-35.26c6.08-0.81,12.55,2.53,16.1,3.16c9.64,1.72,17.08,12.87,16.2,22.93
		c-0.71,8.13,3.91,10.17,3.26,19.97c-1.04,15.74,6.36,40.41,9.89,64.61c7.38,50.6,12.09,42.42,15.8,58.39
		c0.32,1.38,1.46,3.1,2.7,2.41c-1.34-11.67-5.01-13.93-8-23.19c-2.96-9.17-5.71-18.55-7.64-27.92c0.61-0.92,1.12,0.31,1.94-0.51
		c-6.62-31.12-3.71-16.18-6.93-38.42c-0.23-1.58-7.49-24.86-5.3-34.04c0.7-2.96-0.82-5.91-0.51-8.87c2.45,0.31,2.96,2.24,3.77,4.18
		c0.92,0.41,2.04,0.82,3.06,1.22c-4.04-10.32-10.02-9.21-9.78-23.03c0.16-9.43-9.16-19.44-19.06-20.69
		c-5.54-0.7-8.21-4.53-16.61-3.36c-3.87,0.54-7.85,1.02-11.11-1.53c-1.73-0.1-3.26,2.04-4.79-0.41c15.2-3.51,26.35-0.97,44.23-1.22
		c4.06-0.06,14.53,7.5,18.65,12.64c1.84,2.3,3.64,19.36,7.85,31.49c0,1.01,7.5,22.87,8.87,42.29c0.48,6.85-1.63,20.54,4.99,40.05
		c4.59,13.54,3.08,22.64,8.36,31.8c1.87,3.25,4.2,13.99,6.94,14.18c-2.65,3.36-5.81,6.32-7.75,10.39
		C807.64,454.57,809.27,448.46,805.7,444.38z M813.34,459.56c2.85-2.04,5.3-4.48,7.85-6.93c-1.53,4.18-4.48,7.44-6.32,11.21
		C814.36,462.52,813.95,461.2,813.34,459.56z M816.81,474.44c0.51-0.92,0.71-2.04,1.94-2.34
		C818.95,473.63,817.83,474.04,816.81,474.44z M830.06,475.97c0.1,0.71-0.2,1.22-1.02,1.43
		C829.14,476.69,829.34,476.18,830.06,475.97c-0.1-1.02,0.2-1.63,1.63-1.53C831.28,475.36,830.97,475.97,830.06,475.97z
		 M841.57,478.21c0-0.83,1.27-2.21-0.2-3.17c-1.46-0.95-3.15,0.64-5.39,2.57c-1.04,0.89,1.13-2.55,0.6-3.79
		c1.39-0.74,1.99-0.39,7.95,0.41C843.81,475.87,842.59,476.99,841.57,478.21z M846.56,474.95c0.82-0.71,1.53-0.82,2.75-0.1
		C848.2,475.06,847.58,476.28,846.56,474.95z M856.76,470.67c-7.58,2.25-16.8-0.92-20.59,0c-5.31,1.29-10.52,0.09-15.59-1.12
		c-3.17-0.76-4.89-2.85-5.81-5.61c5.17,0.94,11.85-14.19,12.64-21.2c1.61,1.88,1.32,7.15,4.48,6.62
		c-9.45,18.91-6.17,12.49-3.67,12.74c0.51,1.22-1.12,1.94-0.71,3.46c5.2-1.22,9.07-4.48,13.15-7.75c-1.63,2.34-3.26,4.59-4.08,7.64
		c4.28-0.61,6.93-3.97,10.29-5.71c-0.92,1.73-3.16,2.75-2.24,5.4c2.14-1.43,4.69-2.14,6.11-4.79c1.12,0.31,2.24,0.51,3.57,0.92
		c-0.82,2.14-2.65,3.67-2.55,6.42c3.06-1.43,4.79-4.18,7.34-5.91c0.1,1.63-1.83,1.83-1.94,3.57c1.53-0.51,3.16-0.82,3.87,1.12
		c2.45-0.1,4.57-1.24,6.01-2.55c4.24-3.86,6.68-1.94,19.26-5.3c2.34-0.62,4.21-0.43,5.71,1.63c1.46,2.01,4.48,2.24,5.5,5.1
		c-2.14,3.46-4.28,7.03-6.73,11.21C884.16,452.26,890.45,460.68,856.76,470.67z"/>
	<path d="M801.7,452.26c0.32,0.09,0.2,0.14,0.2-0.13C801.84,452.17,801.78,452.22,801.7,452.26z"/>
	<path d="M325.81,231.39c0.34-5.62-4.4-4.77-5.71-6.83c1.53-6.49,2.43-8.87-1.12-10.29c-10-4.01-6.27,1.45-3.87,2.14
		c5.99,1.73,6.16-3.27,1.32,14.47c1.43-0.71,3.36-0.41,4.18-1.73c0.2-0.92-0.92-0.92-0.61-1.63c4.69,0.92,5.71,4.38,3.06,10.8
		c-7.39,2.22-15.3-2.66-17.22-0.1c-3.36-1.63-3.46-2.14-1.32-4.18c5.1,3.87,6.52,3.67,10.19-1.02c1.12-0.2,2.55,0.2,3.67-0.92
		c-1.73-0.92-3.26-0.2-4.79-0.51c-1.73-3.16-2.04-6.93-4.79-9.38c0.92-2.96,3.06-5.5,2.04-9.38c-2.24,2.55-1.94,5.4-3.46,7.34
		c-11.4-4.07-5.99-0.55-16.1,6.11c-1.84,1.21-3.36,2.65-3.77,4.48c-9.07,3.67-18.45,4.48-27.82,6.93
		c-20.55-226.79-23.15-240.29-1.83,0c-6.93,0.2-13.15-1.94-19.57-2.85c-0.61-4.48,2.55-7.75,2.65-11.41
		c-0.71-2.24-3.06-2.55-4.08-4.28c-13.14-146.82-21.52-226.15-8.87-79.18c8.72,101.33,9.83,73.76-0.41,78.27
		c-6.03,12.07-1.13,0.26-4.99-7.95c-3.66-7.77,3.13-10.85-2.65-24.05c-6.47-14.78-10.03-22.75-16-27.31
		c-8.21-6.27-19.17-8.57-22.83-12.23c-0.25-0.25-1.61,0.27-0.71,1.63c9.02,13.7,15.96,16.52,19.26,37.5
		c0.58,3.65-1.62,8.37-4.69,5.3c-1.43-3.87-3.16-7.85-5.5-11.41c0.51,3.87,2.65,7.34,3.77,11.52c-1.99-0.94-2.79-1.7-4.64-2.01
		c4.83,3.58,10.82,9.08,12.79,3.43c0.99-2.83,1.53-5.81,0.61-8.76c-1.23-3.97-1.73-8.15-3.57-12.53
		c2.39,1.02,12.44,16.95,19.06,39.34c2.06,6.96-4.37,4.54-2.34,20.79c-20.2,17.37-21.06,9.65-40.66,14.98
		c-2.74,0.74-18.77,4.06-22.93,2.65c-9.2-3.13-9.73-1.72-18.34-3.57c3.67-2.24,7.97-1.51,11.01-4.18c2.77-2.43,4.08-6.52,8.46-7.54
		c0-1.02-0.81-1.93-0.2-3.16c3-6.09,4.99-12.64,6.22-19.77c2.04,1.43,4.08,2.65,6.62,0.41c-2.24-0.71-4.18-1.43-6.11-2.04
		c1.63-30.47-13.66-51.26-37.71-67.26c1.02-0.71,1.94-1.43,3.06-2.34c7.42,3.87,13.9,8.23,20.5,13.37
		c-1.35,0.09-2.23,0.19-3.18,0.29c1.1,0.45,1.83,1.44,3.34-0.16c26.23,20.7,30.6,37.21,46.81,40.42c0.99,0.2,1.89,0.6-4.36-4.53
		c-4.26-1.05-7.12-4.48-11.92-9.62c-7.62-6.08-7.31-5.8-0.25-0.26c-30.13-32.1-19.93-17.07-18.01-22.37
		c-4.28-0.2-7.34-2.44-10.29-5.1c-8.48-7.64-17.03-11.51-20.89-13.76c10.46-2.93,3.46-15.41,8.83-5.69
		c0.96-2.58-2.33-8.74,0.04-11.33c4.37-4.79-0.68-7.38,5.2-4.79c3.65,1.61,9.32,1.81,6.93-3.36c-1.12,0.2-1.22,1.83-2.65,2.14
		c-6.42-3.26-14.47-4.48-16.61-13.55c2.75-1.83,2.55-5.3,4.38-7.54c17.42,3.06,10.18,7.03,16.92,10.39c1.32-0.71-0.2-2.24,0.92-2.75
		c1.53-0.51,2.85,1.32,4.79,0c-14.27-7.66,11.01-30.04,11.01-36.59c3.67,0.2,6.73-0.2,8.76-3.06c-0.41-1.32-1.83,0.31-2.34-0.92
		c1.13-0.77,3.74-1.99,6.73-3.56c1.94,4.17,4.89,1.12,7.23,0c3.26,6.22,6.01,12.43,7.44,19.16c-8.82,5.35,6.32,14,4.38,18.04
		c-1.18,2.46-5.34-1.49-7.34,2.75c1.43,2.75,2.85,0.41,4.38-0.1c0,3.36,1.43,6.01,2.34,8.76c-2.14,2.44-8.8,0.6-9.99,4.18
		c3.61,2.36,9.36-3.62,9.78,2.24c-6.35,4.76,3.4,10.37-3.57,13.76c-2.05,1-4.58,1.72-6.93,0.82c-7.43-2.88-15.4-2.91-23.24-3.97
		c-0.71-0.1-1.43,0-1.53,1.43c6.83,0.2,13.15,2.85,19.77,4.69c-4.79,11.82-5.4,15.69-2.75,18.34c5.07-23.79,2.47-17.53,12.03-17.83
		c4.28-0.14,7.96-4.79,6.83-9.07c-2.29-8.61,2.35-6.24,1.02-9.38c-0.82-1.93,0.1-3.67,0.92-5.1c-0.51-2.65-2.75-4.18-2.75-6.73
		c3.9-3.9,5.07-4.97,1.63-9.27c-1.47-1.85-4.91-6.5-5.5-8.87c8.22-3.08-3.69-21.82-4.59-24.97c2.34-1.73,4.99-2.65,6.83-4.69
		c-1.3-5.48,0.76-11.05-4.18-11.82c-1.83,0.61-3.16,2.34-5.3,2.55c0.31-1.43,2.14-1.83,1.32-3.57c-1.94,0.31-3.46-1.02-4.89-2.24
		c-1.94,1.43-2.04,3.67-2.96,5.4c-1.86-1.43-0.31-6.74-16.2-1.94c0.2-1.32,1.53-2.14,0.31-3.46c-1.73-0.82-2.95,0.51-4.28,1.43
		c-9.56,6.61-12.38,0.22-19.67,5.5c-3.48,2.52-7.85,4.08-10.6,7.44c-2.45-0.41-2.96-3.06-5.71-3.46c0.41,2.14-0.1,3.87,1.02,5.61
		c-1.98,0.54-6.36-3.21-8.36,0c-1.45,2.33,1.02,3.36,2.14,5.1c-1.63,0.92-0.49,2.76-1.12,3.97c-2.67,5.14-1.36,10.29-1.02,15.49
		c0.27,4.21,3.78,2.63,4.08,9.27c0.1,2.34,0.61,4.48,2.04,6.32c1.12-0.51,0.1-1.73,0.92-2.24c0.61,0.71,1.3,1.62,0.82,2.55
		c-2.76,5.24,8.51,17.2,6.52,39.44c-14.04,10.03-28.72,8.49-31.18,16.1c-1.62,4.99-26,15.4-21.5,44.43
		c2.15,13.87-0.82,16.62-2.04,25.78c-2.11,15.88,4.28,49.87,12.03,64.2c5.02,5.02-25.18-9.73-21.5,25.17
		c-3.67,0.61-7.34-0.1-11.21,1.02C28.45,52.49,33.66,53.41,27.63,56.82c8.24,84.79,16.4,169.37,24.65,254.16
		c25.3,0,17.86,0.54-7.44,1.53c-33.5-342.39-34.61-334.82-1.73,1.22c5.93,1.16,66.78-1.99,70.52-2.45
		c42.85-5.18,64.36,2.28,71.54-1.83c4.87-2.79,10.5-2.24,15.59-3.97c0.51-0.2,1.22-0.1,1.73,0c6.75,1.8,10.59,0.23,21.81-0.2
		c0.31,6.42,0.61,12.53,0.92,19.26c-27.51,2.05-32.95,1.61-180.38,7.03c27.44,282.34,30.99,301,1.94,2.85
		c9.35,0,7.36-2.69,8.87,13.04c20.82,217.02,18.75,202.67,21.1,203.11c2.64-0.88-12.64-139.55-19.26-216.05
		c0.99-0.72-3.55-0.41,51.87-2.45c138.4-5.08,116.99,0.62,116.99-23.74c5.81,0,11.21-1.22,17.02-0.31
		c30.15,335.03,34.45,314.59,2.14,3.36c-0.85-8.18-0.72-5.1-19.57-5.1c0-2.04-1.83-2.85-3.16-3.67c-1.53-0.31-2.75,0.92-4.08,0.1
		c0.31-3.57,0.92-7.03,2.65-10.19c2.14,0.2,4.07,0.2,5.91-0.2c6.22-1.36,41.09-0.61,42.6-1.32c2.02-0.96,4.18-1.43,6.01-1.32
		c1.63-0.61,0-1.43,0.71-1.94c14.89-3.22,11.76,0.8,24.87-2.55c-1.3,1.71-3.41,1.24-4.15,2.71c-0.01-0.02-0.02-0.04-0.03-0.06
		c-10.79,0-9.38-0.31-9.38,0.92c2.14,1.22,4.48-0.2,7.24,0.31c-0.71,4.89,0.71,9.68,0.41,14.78c-12.74,2.65-25.78-0.41-37.91,3.06
		c29.93,323.95,31.1,328.48,1.02,1.32c7.9-3.59,3.68-19.17,27.41,244.58c2.4,0,3.82,22.24-20.08-245.3
		c11.62-0.74,42.96-0.29,41.88-9.07c-2.41-19.7-3.16-12.61-5.81-14.37c2.75-7.85,5.5-15.8,7.24-24.15c4.83,0.91,6.99,2.6,8.87-0.82
		c6.11-11.11,6.17-11.54,5.2-14.47C328.11,240.48,325.23,240.82,325.81,231.39z M183.34,40.51c0.71,1.02,0,1.43-1.02,1.83
		C182.11,41.23,182.22,40.51,183.34,40.51z M192.11,47.03c-0.31,4.79-8.04,10.69-12.94,10.29
		C184.14,54.72,190.13,51.13,192.11,47.03z M168.76,61.4c-0.2,0-0.41-0.31-0.2-0.41c0.2-0.2,0.51-0.2,0.82-0.41
		C169.83,61.04,168.92,61.4,168.76,61.4z M177.02,45.1c0.71,1.94,0.71,1.94-1.22,3.16c-0.82-0.41-0.61-1.22-0.82-1.94
		C175.69,45.91,176.31,45.51,177.02,45.1z M174.27,45c-1.43,0.2-2.34-0.61-3.36-0.2C172.94,43.16,172.94,43.16,174.27,45z
		 M168.46,45.4c0.2,0.71,0.1,1.12-1.02,1.02C167.54,45.61,167.85,45.3,168.46,45.4z M172.74,56.61c-1.83,1.02-3.67,2.34-6.11,2.04
		C168.56,57.53,170.29,56.1,172.74,56.61z M152.66,80.97c-0.41-0.92,0.31-1.22,1.12-2.24C153.68,80.26,153.58,80.87,152.66,80.97z
		 M163.46,62.52c-0.82,1.43-1.73,2.85-3.67,3.46C163.44,61.25,162.61,61.67,163.46,62.52z M160.51,43.88
		c-0.71,1.53-1.32,1.83-2.04,0.41C158.98,43.57,159.59,43.57,160.51,43.88z M161.43,61.4c-1.94-0.31-2.04-2.04-3.06-2.75
		C159.49,59.16,160.61,59.77,161.43,61.4z M159.69,69.25c0.75,0.75,1.08-0.31-3.87,5.81C156.03,71.59,158.17,70.68,159.69,69.25z
		 M153.99,60.38c-1.32,1.83-1.32,1.83-5.3-0.61C150.93,59.06,152.15,60.89,153.99,60.38z M147.26,76.18c0.2,0.92-0.1,1.22-0.82,1.63
		C146.24,77,145.94,76.38,147.26,76.18z M118.73,55.8c1.83,0,3.36,0.71,5.2,1.32C120.76,58.55,120.46,58.55,118.73,55.8z
		 M142.37,79.85c0.95-0.24,0.99,1.03,0.2,1.22C141.85,81.07,141.46,80.15,142.37,79.85z M137.68,62.12c1.12,0.1,1.43,1.02,2.24,1.63
		c-0.61,1.02-1.12,1.83-2.34,1.73C135.95,64.16,137.58,63.24,137.68,62.12z M134.83,91.47c-1.22,0.82-1.73,0.61-2.55,0
		C133.1,90.04,133.81,90.55,134.83,91.47z M128.31,61c1.12,1.02,2.24,1.83,3.46,2.85c-1.63,1.32-2.85-0.51-4.08,0.41
		C127.49,62.93,127.59,62.02,128.31,61z M129.73,81.68c-1.43,1.02-1.43,1.02-3.06-0.1C127.59,81.17,128.41,81.38,129.73,81.68z
		 M126.37,87.59c0.51,0,0.82,0.2,0.82,1.02C126.47,88.31,126.17,88.21,126.37,87.59z M134.01,113.48c-1.73-0.31-1.94-1.43-2.65-2.24
		C132.69,111.24,133.6,111.65,134.01,113.48z M237.96,223.54c-3.36-0.61-6.22-1.43-8.25-3.87
		C232.56,220.28,235.41,220.89,237.96,223.54z M227.77,221.5c3.77,1.12,6.52,4.18,11.11,3.36c-3.16,6.32-4.38,12.64-6.83,18.55
		c-4.48-0.31-6.42-4.08-9.48-6.22C223.39,231.59,226.55,226.91,227.77,221.5z M186.5,152.71c1.94,0.61,2.34,1.22,3.97,5.4
		C188.74,156.28,187.52,154.75,186.5,152.71z M190.67,154.45c12.88,7.08,12.1,3.03,20.59,18.65c10.29,18.94,9.97,24.87,7.64,34.45
		C213.71,187.57,201.58,171.36,190.67,154.45z M221.35,211.52c0.92,7.03,3.36,13.55,0.51,20.38c-1.63,0.41-2.96-0.41-4.28-0.61
		C217.58,224.36,217.37,217.84,221.35,211.52z M151.24,224.26c-0.82,3.16-1.32,6.52-4.89,8.36c-0.82,5.1-4.59,8.66-18.34,10.09
		c-0.74-4.66,3.57-8.64,4.89-14.67c0.69-3.16,0.82-6.42,1.12-9.78c2.14,0.61,3.97,2.45,6.62,1.43c-1.63-2.85-4.99-3.46-6.93-5.91
		c-0.41-2.34-0.92-4.89-1.43-7.85c5.2,1.12,10.09,3.06,15.29,2.75c1.53,1.02,2.75,2.65,4.79,2.45c0.67-0.86-0.25-1.37-0.21-2.01
		c0.15,0.1,1.26,0.45,3.37,1.19C154.6,215.19,153.78,219.98,151.24,224.26z M152.14,209.1c-0.44-0.15-1.23-0.04-1.93-1.15
		c0.85-0.23,1.1,0.29,1.94,1.12C152.11,209.07,152.11,209.08,152.14,209.1z M216.56,300.28c-2.04,1.12-4.38,0.51-6.52,1.83
		c1.94,1.12,3.97,0.1,6.32,1.12c-4.38,2.65-8.56,0.51-12.23,1.12c-1.43-0.92-1.53-2.04-0.92-3.26c2.45-4.89,3.46-10.39,6.73-15.29
		c3.06,1.43,6.52,1.43,10.19,1.94C219.11,292.13,217.17,296.1,216.56,300.28z M179.26,275.62c5.3-3.77,11.18-4.25,16,0.61
		c3.55,3.59,8.56,5.6,12.74,8.97c-1.53,2.96-3.06,5.71-4.79,8.97C198.83,282.85,192.1,275.01,179.26,275.62z M304.71,287.13
		c1.02,2.75,1.83,9.48,1.43,13.35c-1.13,1.13-2.88,1.35-8.15,2.75c-0.41-5.1-1.43-10.09-0.71-15.08
		C299.53,288.91,299.75,288.79,304.71,287.13z M300.63,283.26c-3.57-3.87-6.52,0.61-10.19,0.41c3.36-9.07,6.22-17.94,8.05-27.41
		C309.46,264.78,310.5,248.94,300.63,283.26z M315.11,260.13c-8.12-2.58-15.41-1.69-14.57-7.54c6.01,0.71,11.52,3.97,17.94,3.26
		C317.65,257.58,317.04,259.21,315.11,260.13z M300.84,250.75c-1.93-0.44-3.06-1.73-3.97-2.96c-0.4-1.8,0.86-3.21,0.33-4.71
		c-4.45,3.97,1,6.02,0.18,9.19c-1.79,6.94-2.75,14.06-5.2,21.2c-1.53-3.97-2.24-8.15-5.61-10.6c-3.36-2.45-7.54-1.73-11.41-2.45
		c5.2-1.12,9.99-2.96,14.57-5.5c1.73,0.2,2.85,2.75,5.2,1.43c-1.02-1.73-3.16-2.14-4.18-4.18c-8.87,4.59-18.74,5.73-27.62,9.89
		c-2.85,1.33-6.52,1.23-9.89,0.71c-2.65-0.4-5.2,0.36-7.85,0.41c-0.51,0.01-0.82,0.41-1.02,1.43c33.33,0,19.85,0.22,24.15-1.94
		c21.51-1.22,19.96,5.59,22.01,13.55c0.89,3.45-4.17,8.07-11.72,9.27c-8.95,1.42-0.27,3.67-18.04,3.67
		c-39.79,0-31.09,2.1-39.24,1.94c-1.12-6.13,3.84-0.33,7.54-1.94c2.76-1.2,3.67-3.16,3.26-5.91c4.69-1.22,5.91-3.46,5.2-8.76
		c9.91-3.35,4.35-10.71,3.16-11.01c0.04-0.04,0.1-0.04,0.18-0.03c0.03-0.05,0.08-0.14,0.18-0.29c-3.02-0.84-3.94-4.17-7.3-5.9
		c1.63,4.79,6.01,6.22,8.05,9.58c-1.54,11.3-8.85,0.95-12.53,0.31c3.12,5.99,10.33,6.38,4.28,13.76c-2.96-1.32-6.32-1.73-9.48-4.28
		c0.2,4.48,3.77,4.08,6.22,5.4c-0.71,1.32,0.51,2.75-0.31,4.28c-2.98,1.98-2.46-0.15-14.67-1.53c-8.4-0.95-9.55-4.99-20.18-11.62
		c-10.09-6.3-11.6,0.47-25.17,3.16c-0.51,0.1-0.82,0.41-1.02,1.22c4.89-1.12,9.68,0.59,14.47,0.41
		c10.11-0.39,15.26,8.36,18.65,17.94c0.93,2.64-1.22,4.79-1.12,7.34c-3.46,1.53-7.23,1.34-10.6,2.24
		c-17.31,4.64,4.25,4.43-53.71,1.73c-10.18-0.47-12.08,1.56-38.62,2.55c-16.68,0.62-11.49,2.99-17.63,1.94
		c-7.5-1.29-9.26,0.29-12.23-3.06c-0.21-1.94-0.21-15.35,1.73-16.71c3.52-2.47,6.62-5.7,11.82-4.18c3.49,1.02,64.92-7.12,65.02-7.13
		c17.07-1.84,18.23,0.5,20.59-2.65c-5.81-0.41-11.11-0.61-16.51-0.61c5.2-1.94,10.29-3.77,16.2-5.1c-1.83-1.22-3.36-0.51-4.38-0.1
		c-5.19,2.06-10.97,2.49-15.69,5.71c-0.66,0.45-14.85,1.09-37.5,5.4c-5.3,1.01-10.8,0.41-16.1,1.32
		c-7.39,0.82-11.05-25.62-10.19-24.76c-0.29-0.66,1.18-0.72,0.1-2.34c-0.35,0.49-0.45,0.97-0.42,1.46
		c-2.91-8.01-4.31-20.29-4.58-31.52c3.92,3.92,4.72,8.46,6.83,8.46c-0.82-4.99-4.99-8.15-6.83-13.04
		c0.66-17.24,6.2-13.84,2.85-30.27c-2.23-10.96-0.27-23.54,8.46-30.57c9.07-7.32,6.16-9.04,12.94-10.9
		c1.84-0.51,3.77-0.31,6.01-1.83c-3.06-0.82-5.2,1.02-7.64,1.02c3.67-3.16,9.89-5.71,17.02-6.93
		c23.03,13.15,41.27,39.44,38.22,64.51c-2.04-1.32-3.97-2.65-6.22-3.06c-1.88-4.7-8.78-4.68-12.33-7.75
		c-2.35-2.03-4.48-1.83-7.44,0.2c-2.4,14.06,1.28,7.15-0.51,31.18c-0.58,7.84-5.04,7.72-4.59,15.59c-3.06,0-6.11,0-9.78,0
		c1.22,1.63,2.34,1.93,3.46,1.94c5.67,0.04,30.78,5.43,32.81,6.32c2.13,0.93,27.21-3.74,31.49-4.38c7.51-1.13,13.34,1.18,17.02-3.57
		c0.1-0.2,0.41-0.31,0.61-0.41c10.95-2.84,12.01-11.55,19.67-8.76c-1.02,1.43-2.85-1.32-3.57,1.02c5.81,4.59,11.21,9.89,18.55,12.23
		c-3.15,10.37,0.22,4.07,1.32,3.36c1.63,1.32,2.65,3.37,4.79,4.38c3.13,1.48-0.15,6.79-0.52,7.31c0.55,0.08,1.98,0.82,3.78-2.83
		c1.63-0.92,3.26-0.41,4.99-1.12c-1.43-1.63-3.36-1.02-4.79-1.53c-2.85-5.2-9.38-7.13-11.11-13.25c0.92-2.45,1.83-4.89,2.85-7.64
		c10.57,1.53,19.57,7.87,49.53-3.06c1.73,0.51,1.02,2.24,2.24,2.55c1.21-0.61-1.58-5.91,6.22-9.17c6.58-2.76,2.44-8.4,9.27-5.91
		c4.05,1.16,0.52,1.43,0.61,2.24c0.33,1.3,4.32-1.72,5.61,3.87c0.49,2.14,1.53,4.28,2.24,6.32c-0.51,1.32-1.32,2.24-2.75,1.83
		c-4.71-1.33-3.74-2.12-8.15-9.48c-1.02,0-1.63,0.31-2.14,1.02c0.2,2.65,3.46,3.26,3.87,6.01c-0.61,0.92-1.53,1.83-1.12,3.36
		c-2.65,1.12-6.01,2.14-4.79,6.32c-0.13,0.13,5.42,1.76,10.19,3.87c3.05,1.35,6.31,1.26,9.48,1.63c1.93,0.23,3.26-1.22,4.89-2.04
		C321.62,258.92,310.12,252.86,300.84,250.75z M316.94,246.78c-4.28,0.3-13.76-2.34-18.04-4.99c0.1-2.55,1.52-3.24,3.77-2.65
		c4.28,1.12,2.67-2.01,3.4-0.35c6.74,1.89,13.17,2.48,18,1.57C323.87,243.01,319.9,246.57,316.94,246.78z"/>
	<path d="M240.91,263.46c0,0-0.01,0-0.01,0C240.86,263.52,240.87,263.52,240.91,263.46z"/>
	<path d="M135.03,132.43l0.1-0.1C135.06,132.19,135.11,132.27,135.03,132.43z"/>
	<path d="M196.48,479.95l0.1,0.1C196.81,479.93,196.61,480,196.48,479.95z"/>
	<path d="M232.66,424.51c-6.71-12.47-1.31-20.55-6.93-32.31c-8.12-16.98,2.18-28.42-9.07-41.68c-8.5-10.02,1.52-22.7-5.3-21.1
		c-0.61,3.16,0.1,6.62-1.32,9.78c-4.89,1.9-17.94,6.48-23.74,6.52c-0.11,0-32.93,0.97-51.26-1.02
		c-27.08-2.94-17.85-1.71-20.08-11.72c-2.07-1.13-3.39-0.25-3.06,2.75c0.82,4.69-1.07,9.17-1.12,13.76
		c-0.02,2.04-1.22,3.67-2.75,4.89c-10.03,8.05-3.25,17.14-5.5,30.67c-2.5,15.02-0.43,21.81-0.92,27.21
		c-1.26,13.95,5.54,29.56,8.66,43.72c4.6,20.87,4.61,29.88,6.11,32.81c1.59,3.11,6.2,16.08,4.59,23.54
		c-0.53,2.44-0.2,4.59,1.02,6.73c2.45,0.51,4.89,0.31,6.93,1.63c4.41,26.17-3.87,16.13-1.32,37.5c0,0.31,0.51,0.51,1.43,0.2
		c-0.1-6.22,1.76-12.32,3.46-18.55c1.76-6.41-0.82-12.84-0.2-19.26c11.72,1.32,23.03-0.61,34.75-1.22c0.82,3.77,3.46,6.11,6.73,8.05
		c-1.02-2.96-3.16-5.2-4.18-8.36c6.52-1.83,13.04-2.96,19.57-5.3c0.2,2.55-0.5,4.59-1.12,6.62c-2.33,7.68,3.28,9.22-1.22,17.12
		c-3.42,5.99-5,7.17-3.67,9.17c11.71-9.4,6.11-21.53,6.93-23.64c1.31-3.37,1.94-6.83,2.34-10.29c7-3.36,13.94-3.86,11.82-12.03
		c-1.43-5.5-1.02-11.21-2.55-16.61c-1.33-5.97,1.33-4.41,0.61-15.69c-0.71-11.22-2.11-12.72-1.53-1.43
		c0.25,4.85,0.6,9.71-4.08,12.97c4.2,0.61,1.65-11.44,5.91,26.06c-26.59,12.1-64.29,13.78-79.29,9.89
		c1.12-6.42,0.96-12.51-1.43-18.55c-3.05-7.74-3.2-15.49-6.62-33.73c-3.24-17.24-1.11-4.49-10.29-38.01
		c-2.42-8.83-0.28-9.49-0.61-18.85c-0.25-7.03-0.68-14.06,0.1-21.1c0.64-5.7,2.24-11.31,0.82-17.12
		c-2.81-11.45,7.05-13.22,8.15-17.63c6.04,5.1,19.18,5.19,24.56,4.48c5.56-0.73,11.24,0.69,16.7-0.99c-1.92-1.37-4.11,0.86-6.1-0.54
		c-1.02-0.92,0.31-2.85-1.43-3.67c-2.24,1.02,0,2.34-0.31,3.67c-1.32-0.1-2.55-0.31-3.77-0.41c-0.92-1.02,0-2.55-1.32-3.26
		c-1.63-0.2-1.02,1.73-1.53,1.83c-2.28,0.76-4.17-1.56-7.03-1.02c-0.92-1.32,0-2.34-0.71-3.87c13.04,2.65,39.12-0.9,33.02,5.2
		c-1.63,1.43-4.89-1.43-5.61,2.14c-1.19-0.4-3.02-0.48-5.01-0.02c1.56,1.58,3.2,1.42,4.76,0.03c5.15,0.11,10.38,0.5,15.63,0.5
		c5.4,0,10.6-1.73,16.31-1.22c0.1-0.2-0.1-1.41,0.82-1.32c3.9,0.35,8.16-1.97,9.07-0.61c-0.2,0.92-2.04,0.82-1.73,2.24
		c2.34,4.79,4.18,6.52,7.34,6.62c-1.22-3.36-5.91-5.5-4.18-10.09c1.22-0.51,1.12,1.12,1.94,0.71c0.71-0.41,0-1.73,0.71-1.32
		c3.77,3.77,6.01,8.05,5.3,13.55c4.46-10.03-2.6-10.82-2.85-14.88c0.92,0.61,0.82,1.73,1.83,1.53c0.92-0.71,0.92-2.04,1.94-3.16
		c1.97,8.19,9.75,10.3,7.24,30.37c-0.43,3.41,1.39,8.02,2.96,12.13c7.92,20.83,0.82,21.55,7.95,33.94c1.53,2.65,2.34,5.4,1.53,8.25
		c-1.85,6.52,0.2,13.55-2.04,20.08c-0.49,1.15,1.62,7.7-0.92,14.17c-2.04,5.2-1.63,8.37-1.63,24.15
		c-7.54,3.06-15.49,3.36-22.62,6.62c2.87,1.77,4.05,1.19,20.38-2.65c1.02,2.45,1.32,4.79,0.41,7.13c-1.7,4.38,2.21,9.82-2.45,19.87
		c-0.39,0.84-4.69,11.6-1.83,14.67c2.04-4.59,2.02-9.49,4.28-13.55c2.73-4.9,3.06-9.99,2.45-15.29c-0.37-6.73,3.14-8.28-0.31-13.15
		c-0.87-2.62,1.31-0.16,2.24-1.63c0-18.65-0.24-21,1.53-25.68c3.16-8.37-0.45-12.86,2.04-19.46c2.04-5.41-1.37-2.58,0.31-12.64
		C233.82,431.04,234.37,427.68,232.66,424.51z M133.71,352.46c0.71,0.35,0.42,0.92,0.1,0.92
		C133.13,353.54,132.93,352.46,133.71,352.46z M125.25,352.56c-0.23-0.46-0.01-0.3,0.31-0.61
		C125.78,352.4,125.93,352.56,125.25,352.56z M127.8,347.16c-1.63,0.2-0.71,2.14-1.94,2.85c-0.71-0.92,0.1-2.14-0.71-2.96
		c-0.51-1.73-2.65,1.83-2.85-1.22c2.85-0.2,5.6,1.02,8.76,1.12C128.89,353.98,131.1,349.8,127.8,347.16z M167.64,352.87
		c-0.51-0.82,0-1.32,0.31-1.73c0.92-0.51,1.12,0.71,1.83,0.71c1.82-0.81-1.49-2.85,6.01-2.85c0.71,0.92-0.71,1.83,0.2,2.75
		c0.92,0,0.82-1.63,1.73-1.53C178.13,353.4,181.5,353.26,167.64,352.87z M177.83,350.22c0.31-0.51-0.2-1.53,1.02-1.43
		C179.36,350.01,178.14,349.71,177.83,350.22z M190.78,351.23c-2.34-0.2-4.59,1.12-7.75,1.12c0.82-2.14-1.83-2.24-2.04-4.59
		c3.67,2.24,7.13,0.51,10.7,0.1C191.49,349.2,191.59,350.22,190.78,351.23z M193.22,349.2c1.02-0.1,1.12,0.51,1.12,1.53
		C192.71,350.73,192.92,350.01,193.22,349.2z M204.02,348.79c-0.1-1.22,0.41-1.73-0.31-2.24c-1.83-0.1-0.92,3.87-3.77,2.65
		c-0.71-0.41-0.1-1.63-0.51-2.34c-2.34,0,0.41,3.67-2.45,3.26c-0.82-1.22,1.02-2.14,0.1-3.36
		C222.38,337.96,206.77,343.13,204.02,348.79z"/>
	<path d="M469.3,563.82c2.97-0.37-47.57-493.21-49.12-494.06C417.61,70.69,467.22,563.04,469.3,563.82z"/>
	<path d="M46.17,553.63c2.05-0.64,1.34-1.32,0.2-13.35C-56.06-548.04,42.64,552.7,46.17,553.63z"/>
	<path d="M675.66,245.76C658.64,59.82,660.03,71.88,658.75,72.31C675.91,259.84,674.35,245.76,675.66,245.76z"/>
	<path d="M252.02,235.57C234.83,47.78,236.41,62.12,235.21,62.12C252.49,247.29,250.74,236.21,252.02,235.57z"/>
	<path d="M688.6,395.57c16.53,179.89,14.88,166.21,16.2,166.21C687.98,382.31,690.01,395.57,688.6,395.57z"/>
	<path d="M177.63,385.37c-5.92-4.95-7.5,1.12-13.76-9.58c-0.53-0.91-0.82-2.14-2.75-2.75c3.06,5.71,5.71,10.76,12.23,11.72
		c3.3,0.49,7.97,10.16,8.87,14.88c2.18,11.49,2.52,13.93,6.11,15.08C189.35,410.22,187,393.21,177.63,385.37z"/>
	<path d="M563.15,119.39c2.55-0.2,5.3,0.2,6.11-3.06c-1.32-1.43-1.33-1.5-3.36-1.83c-3.24-0.54-2.47-4.2-0.2-3.87
		c0.41,0,0.61-0.31,0.71-1.22c-2.96-1.32-5.3-4.08-9.48-4.59c-0.61,3.46-0.82,7.03-3.26,9.78c1.22,1.94,2.65,3.16,4.99,3.87
		c-1.94-3.97-1.94-3.97-0.82-5.2c1.63,1.12,2.14,3.16,3.57,4.69c1.51-4.53-5.03-6.7-2.24-10.29c1.22,0.41,2.24,1.02,3.26,2.34
		C560.5,113.17,562.95,116.13,563.15,119.39z"/>
	<path d="M139.52,109c7.5,0.75,7.53-5.09,2.55-4.69c-2.52,0.2-2.7-3.77-0.82-3.77c0.61,0,1.22,0.1,1.32-1.22
		c-2.96-1.22-5.3-4.18-9.48-4.48c-0.51,3.46-0.92,7.03-3.16,9.78c1.43,1.73,2.75,3.06,4.89,3.57c0.2-1.94-1.83-2.14-2.04-3.57
		c1.28-4.48,3.7,1.91,5.2,3.97c0.58-7.21-5.21-6.91-2.34-11.01c1.22,0.41,2.34,1.02,3.16,2.34
		C137.07,103.08,139.31,105.94,139.52,109z"/>
	<path d="M180.59,507.77c3.5-0.41,19.16-2.48,19.16-6.01c-15.47,6.25-14.99,5.29-15.29,1.12c-0.52-7.25-10.18-5.32-9.48,0.51
		C175.3,506.03,177.84,508.09,180.59,507.77z M178.95,500.43c1.73-0.51,2.85,0.31,3.36,2.24c-0.61,0.82-1.53-0.1-2.04,0.71
		c-0.92,0.71,0.71,1.43-0.2,2.24C176.33,505.85,176.24,501.01,178.95,500.43z"/>
	<path d="M137.07,479.13c0.53,1.58,2.85,12.55,3.26,14.67c1.77,9.07,12.67,12.78,11.21,11.31c-5.02-3.76-9.42-6.23-10.5-14.78
		c-1.01-8.05-5.2-15.69-4.48-24.15c0.1-0.31-0.2-0.72-0.31-1.02c-2-5.58-1.63-12.85-1.63-23.64c-0.41,6.32-1.53,12.84,0,18.96
		C136.15,466.6,135.85,473.02,137.07,479.13z"/>
	<path d="M187.21,76.28c-2.45-3.36-6.22-3.36-9.07-4.89c-3.26,4.28-9.48,3.16-12.03,7.85c9.29-1.5,13.89-5.05,18.55-2.34
		C185.27,77.3,186.29,77.4,187.21,76.28z"/>
	<path d="M610.64,86.17c-2.24-3.16-6.01-3.26-8.97-4.79c-3.16,4.28-9.38,3.16-12.13,7.44c0.27,0.82-0.27,0.89,9.89-2.04
		C608.7,84.11,608.95,89.31,610.64,86.17z"/>
	<path d="M208.3,422.06c-7.71,8.16,1.13,5.74-7.44,17.43c-1.53,0.61-2.24-0.71-3.46-0.2c0,1.43-1.22,2.24-2.34,3.16
		c2.04-0.41,3.97-1.43,5.2,1.53c-3.46,3.36-1.22,6.42,0.71,9.48c-0.31-2.34-1.52-4.58,0.31-6.73c1.64-1.93,1.83-3.77,0-5.61
		c8.12-9.88,1.82-9.6,7.44-18.34C208.71,422.67,208.51,422.37,208.3,422.06z"/>
	<path d="M127.29,386.29c4.22,2.9,7.35,23.71,6.73,30.17c-0.09,0.92-0.2,1.94,1.02,2.45c1.83-10.7-1.83-20.38-4.48-30.27
		c-1.39-3.48-3.67-1.14-3.16-9.58c-1.02,4.79-1.02,4.79-0.31,7.13c-1.02,0.92-0.92,1.94-0.1,3.26
		C127.89,387.76,126.7,386,127.29,386.29z"/>
	<path d="M824.04,496.66c-0.51-1.43-0.83-2.44-1.12-3.67c-1.51-6.28-11.26-3.3-8.76,3.06C816.47,501.95,822.67,497.35,824.04,496.66
		z M820.78,493.2c-1.02,0.82-2.85,1.73-0.51,3.57C812.9,498.67,816.44,487.11,820.78,493.2z"/>
	<path d="M140.43,453.86c9.48,12.64,22.42,17.83,37.6,17.94C163.57,469.96,150.32,465.48,140.43,453.86z"/>
	<path d="M164.79,505.02c-0.27,6.23,9.58,6.59,9.58,0.1C174.37,498.92,165.05,498.99,164.79,505.02z M172.33,504.91
		c0.44,3.43-4.96,4.11-5.2,0.31C166.72,501.9,171.84,501.1,172.33,504.91z"/>
	<path d="M808.86,502.67c6.37-0.25,6.22-9.73-0.2-9.48C802.18,493.45,803.01,502.91,808.86,502.67z M808.55,495.13
		c3.91,0.25,3.42,5.69,0.31,5.5C805.41,500.42,805.52,494.94,808.55,495.13z"/>
	<path d="M158.88,124.18c-1.83-2.04-4.38-2.55-5.6-4.38c-1.22-1.83-1.53-4.38-3.67-5.81c-1.63,1.22-0.1,2.75-0.31,4.08
		c-0.51-0.1-0.82-0.31-1.22,0.31c5.23,11.85,5.97,13.77,2.55,2.65C153.27,122.55,155.21,125,158.88,124.18z"/>
	<path d="M573.45,123.98c-2.14,1.32,0.51,3.57-1.73,4.59c1.53,3.26,2.96,6.62,4.48,9.99c0.1-2.55-0.92-4.79-2.14-7.75
		c2.85,2.04,4.79,4.18,8.25,3.26C577.52,132.23,576.1,127.44,573.45,123.98z"/>
	<path d="M159.9,508.69c1.73-0.31,2.34,3.06,4.59,1.63c0.1-1.32-1.53-1.53-1.53-2.75c0.82-1.43,1.51-3.14,0-4.48
		c-2.16-1.91-4.48-0.61-7.03,0.1c0.71,2.96,0.31,6.01,2.24,8.46C159.9,510.93,158.57,509.3,159.9,508.69z M161.43,504.61
		c-0.51,1.53-0.51,1.53-2.55,2.04C158.78,504.2,158.78,504.2,161.43,504.61z"/>
	<path d="M223.08,497.07c-1.12,4.08-4.51,6.09-7.13,8.66c-2.98,2.93-7.24,1.02-10.9,2.24c2.24,2.45,7.45,2.66,10.09,0.31
		C219.99,503.96,225.65,501.73,223.08,497.07z"/>
	<path d="M801.83,496.97c-2.26-1.29-4.28,0.31-6.42,1.22c1.63,6.32,2.04,7.03,4.08,7.95c1.02-0.92-1.02-2.34,0.71-3.16
		c1.53,0,2.65,2.65,4.69,0.82c-0.82-0.71-1.53-1.32-2.24-1.94C802.95,500.02,803.85,498.12,801.83,496.97z M799.48,501.04
		c-1.32,0.23-1.53-0.71-1.53-1.94C801.3,496.98,802.44,500.52,799.48,501.04z"/>
	<path d="M598.01,93.3c3.36,1.63,6.42,0.41,9.68,0.41c-0.61-1.63-1.12-2.96-1.43-4.69C603.1,89.73,599.74,89.33,598.01,93.3z"/>
	<path d="M174.47,83.31c3.46,1.63,6.52,0.41,10.29,0.71c-1.12-1.94-1.73-3.26-1.94-5.1C179.67,79.85,176.2,79.34,174.47,83.31z"/>
	<path d="M159.59,492.07c-2.89-5.26-4.87-4.55-10.5-19.97c-0.6-1.64-0.92-3.57-3.36-4.59C149.6,476.58,151.44,486.06,159.59,492.07z
		"/>
	<path d="M208.81,513.58c-3.57,4.08-1.12,10.39,4.08,11.82C216.13,523.24,208.43,520.89,208.81,513.58z"/>
	<path d="M186.5,370.7c-2.65-4.28-0.71-9.99-4.79-14.17c-1.53,1.83-1.52,1.83-1.43,2.34C181.02,362.75,184.46,369.68,186.5,370.7z"
		/>
	<path d="M149.2,399.03c3.97,8.36,11.72,10.7,19.87,12.43C161.94,408.1,153.68,406.47,149.2,399.03z"/>
	<path d="M141.76,448.46c-1.63-7.03-1.94-14.06-4.79-20.59C139.73,447.58,139.31,447.74,141.76,448.46z"/>
	<path d="M114.14,357.66c1.02,3.06-0.41,6.01-1.02,9.07C121.63,357.79,116.3,354.41,114.14,357.66z"/>
	<path d="M152.76,536.81c-0.32,1.22,0.51,2.14,2.34,2.34c-0.82-5.71-0.51-11.31,0.71-17.22
		C152.26,523.32,153.91,532.51,152.76,536.81z"/>
	<path d="M196.69,380.89c-0.41-5.91-1.63-10.9-3.16-16C192.92,368.87,194.45,376.3,196.69,380.89z"/>
	<path d="M174.78,534.47c-1.53,3.06-0.2,5.91,3.97,8.66C178.04,539.56,177.32,536.71,174.78,534.47z"/>
	<path d="M211.67,424.92c2.04-0.61,7.44-4.08,9.17-6.01C216.05,419.41,212.58,421.65,211.67,424.92z"/>
	<path d="M184.25,454.88c4.89-0.92,9.68-1.83,13.35-5.61C193.12,451.11,188.84,453.25,184.25,454.88z"/>
	<path d="M227.67,452.13c-2.85,3.87-7.13,5.71-11.52,8.56C222.16,459.36,226.14,456.3,227.67,452.13z"/>
	<path d="M591.08,145.38c-1.43-3.46-3.26-6.52-6.93-9.27C584.86,138.86,588.33,143.44,591.08,145.38z"/>
	<path d="M167.54,135.29c-1.32-3.46-3.36-6.52-6.83-8.36C162.95,129.68,164.28,133.35,167.54,135.29z"/>
	<path d="M217.07,436.74c-3.36,1.73-7.44,1.83-10.39,4.48C210.75,441.22,213.91,438.98,217.07,436.74z"/>
	<path d="M177.32,432.56c2.65-0.2,5.4,0.51,7.75-1.32C182.42,431.34,179.46,429.81,177.32,432.56z"/>
	<path d="M208.3,415.95c0.71-2.96,1.94-5.61,2.65-8.56C208.2,409.93,207.18,412.89,208.3,415.95z"/>
	<path d="M170.9,162.09c3.26,1.83,6.83,3.26,10.09,5.3C178.45,164.03,174.78,162.8,170.9,162.09z"/>
	<path d="M594.54,172.18c3.16,1.94,6.73,3.26,9.89,5.3C601.98,174.01,598.31,172.99,594.54,172.18z"/>
	<path d="M205.76,457.73c3.16-0.1,6.32-0.82,9.17-2.65C204.58,457.08,205.34,456.48,205.76,457.73z"/>
	<path d="M214.32,394.65c-2.04,2.04-3.57,4.28-4.08,8.05C213.3,400.25,213.5,397.3,214.32,394.65z"/>
	<path d="M133.71,357.55c-1.63,1.32-2.65,3.06-3.26,4.99C132.38,361.43,134.01,360.2,133.71,357.55z"/>
	<path d="M210.34,449.68c-9.06-1.89-7.21-1.81-7.64-0.51C204.94,451.21,207.69,450.19,210.34,449.68z"/>
	<path d="M209.63,535.49c2.14-2.45,2.45-4.38,1.02-6.93C210.24,531.11,209.22,533.04,209.63,535.49z"/>
	<path d="M204.02,395.87c-1.12-2.85-2.34-5.5-4.59-7.64C198.9,388.76,201.54,393.39,204.02,395.87z"/>
	<path d="M214.42,324.02c0-2.14,0.31-3.77-1.02-5.1C213.2,320.46,212.38,322.19,214.42,324.02z"/>
	<path d="M637.96,334.01c0-2.14,0.31-3.77-1.02-5.1C636.83,330.55,635.92,332.28,637.96,334.01z"/>
	<path d="M154.39,133.45c-0.61,2.04-0.92,3.97,1.32,5.1C155.21,136.92,154.8,135.19,154.39,133.45z"/>
	<path d="M577.93,143.54c-0.61,2.04-0.92,3.97,1.32,5.1C578.75,147.01,578.34,145.28,577.93,143.54z"/>
	<path d="M199.03,428.28c-1.94-1.22-3.77-1.43-5.61-1.63C195.06,427.46,196.59,428.69,199.03,428.28z"/>
	<path d="M558.77,142.52c1.32,1.02,0,3.57,2.75,4.28C560.91,144.87,562.03,142.42,558.77,142.52z"/>
	<path d="M158.37,357.15c-0.92,1.32-0.61,2.75-0.51,4.59C159.59,358.98,159.59,358.98,158.37,357.15z"/>
	<path d="M214.93,472.41c-1.73,0.71-3.67,1.12-5.5,3.06C212.18,475.06,213.71,474.04,214.93,472.41z"/>
	<path d="M212.69,307.82c-0.51,1.63-0.2,2.85,0.82,4.69C213.71,310.57,214.52,309.15,212.69,307.82z"/>
	<path d="M636.12,317.71c-0.31,1.73-0.1,2.96,0.82,4.08C637.14,320.56,637.96,319.13,636.12,317.71z"/>
	<path d="M135.24,132.43c1.32,1.02,0,3.57,2.34,4.18C137.68,133.05,137.68,133.05,135.24,132.43z"/>
	<path d="M607.69,188.79c0-0.29,0.54-0.2-4.89-0.2C602.8,188.86,602.06,188.79,607.69,188.79z"/>
	<path d="M148.89,360.3c-1.43,1.12-1.32,2.45-0.92,4.28C149.2,363.16,149.3,361.94,148.89,360.3z"/>
	<path d="M179.36,178.7c5.46,0,4.89,0.09,4.89-0.2C178.82,178.5,179.36,178.41,179.36,178.7z"/>
	<path d="M583.74,115.72c-0.71-1.53-1.53-2.04-3.16-1.32C581.29,115.82,582.31,115.93,583.74,115.72z"/>
	<path d="M160.2,105.53c-1.32-1.32-1.32-1.32-3.16-1.22C157.76,105.73,158.67,105.94,160.2,105.53z"/>
	<path d="M588.73,117.56c-1.02-1.32-1.83-1.94-3.26-1.43C585.98,117.66,586.8,117.96,588.73,117.56z"/>
	<path d="M164.89,107.26c-0.82-1.12-1.53-1.94-2.96-0.82C162.85,107.47,163.57,108.18,164.89,107.26z"/>
	<path d="M184.15,163.92c1.43-0.51,2.14-1.22,2.45-2.75C185.17,161.68,184.36,162.29,184.15,163.92z"/>
	<path d="M251.62,307.11c1.43,0.61,2.14,1.02,3.06,0.31C253.96,306.5,253.25,306.29,251.62,307.11z"/>
	<path d="M607.89,174.12c1.12-0.82,1.94-1.32,2.14-2.96C608.71,171.87,607.69,172.38,607.89,174.12z"/>
	<path d="M319.69,234.04c0.41,0.92,0.41,1.73,1.63,1.83C321.32,234.75,321.12,234.14,319.69,234.04z"/>
	<path d="M44.64,328.81c0-2.39-0.31-1.84-0.31-1.53C44.33,329.09,44.23,328.81,44.64,328.81z"/>
	<path d="M468.07,336.97c-0.41,0.61-0.2,1.22-0.1,1.94C468.38,338.29,468.17,337.58,468.07,336.97z"/>
	<path d="M743.84,244.03c-0.51,1.02-0.2,1.53,1.02,1.94C744.86,245.04,744.96,244.33,743.84,244.03z"/>
	<path d="M580.58,151.7c0.1-1.43-0.61-2.24-1.32-2.96C578.85,149.96,578.85,150.98,580.58,151.7z"/>
	<path d="M156.94,141.61c0.1-1.43-0.61-2.24-1.32-2.96C155.21,139.87,155.31,140.89,156.94,141.61z"/>
	<path d="M140.84,139.26c-0.1-1.12-0.61-1.73-1.73-1.73C139.01,138.75,139.72,139.16,140.84,139.26z"/>
	<path d="M562.44,147.62c0.2,1.22,0.71,1.73,2.14,1.73C564.17,148.13,563.66,147.52,562.44,147.62z"/>
	<path d="M46.57,311.8c0.61,0.1,1.12,0.41,1.63-0.1C47.59,311.39,47.08,311.39,46.57,311.8z"/>
	<path d="M470.01,321.88c0.61,0.2,1.12,0.31,2.04-0.31C471.23,321.58,470.62,321.17,470.01,321.88z"/>
	<path d="M196.48,480.25c-0.71,0.1-1.43,0.31-1.43,1.73C195.57,481.17,196.48,481.17,196.48,480.25z"/>
	<path d="M198.01,387.01c1.44,1.73,1.16,1.52,1.43,1.12C199.34,387.51,199.23,386.9,198.01,387.01z"/>
	<path d="M187.82,176.05c-0.1-1.22-0.61-1.73-1.12-2.24c-0.82-2.45-2.65-0.31-0.44,0.43C186.02,174.6,187.16,175.69,187.82,176.05z"
		/>
	<path d="M608.91,182.78c-0.31,0.92,0.31,1.22,0.92,1.53c0.31,0.61,0.51,1.43,1.53,1.32c-0.11-0.74-0.92-1.62-1.18-1.75
		C610.31,183.67,610.03,182.44,608.91,182.78z"/>
	<path d="M599.84,278.37c2.58,1.15,10.7,3.52,10.9-0.2c-3.87-1.83-8.15,0.1-12.13-0.92c-1.53,1.63-3.57,2.55-6.11,3.87
		C596.07,281.83,598.01,280.2,599.84,278.37z"/>
	<path d="M518.01,273.99c-5.42-0.86-1.23-4.96-2.45-6.52c-6.33,2.79-1.4,12.53,8.56,7.44C521.98,274.6,520.04,274.31,518.01,273.99z
		"/>
	<path d="M555.51,196.33c-3.77,6.11-9.78,9.58-15.18,13.76C547.15,207.44,552.76,203.36,555.51,196.33z"/>
	<path d="M516.48,179.01c-3.36,2.96-2.55,10.8,1.63,15.69C517.19,189.4,515.36,184.41,516.48,179.01z"/>
	<path d="M507.51,261.35c0.61-3.87,0.82-7.03,0.41-10.29C506.08,253.5,505.98,258.4,507.51,261.35z"/>
	<path d="M559.08,293.66c4.89,0.71,9.58-0.2,14.27-0.2C568.56,291.92,563.77,293.45,559.08,293.66z"/>
	<path d="M538.08,250.04c1.12-2.96,0.71-5.61-1.32-8.05C536.45,244.74,536.45,247.49,538.08,250.04z"/>
	<path d="M520.56,282.04c3.77,2.65,8.05,3.26,12.43,3.46C528.91,283.97,524.53,283.67,520.56,282.04z"/>
	<path d="M539.71,162.4c-3.87-3.16-5.71-3.36-7.44-0.92C534.72,161.48,536.86,162.7,539.71,162.4z"/>
	<path d="M596.27,296.92c1.83,2.75,2.34,6.11,4.38,8.66C601.68,301.4,598.01,299.67,596.27,296.92z"/>
	<path d="M542.26,285.91c3.97,0.41,5.6-0.1,8.46-2.34C549.8,283.39,542.37,285.88,542.26,285.91z"/>
	<path d="M534.21,228.64c0.41,7.05-0.19,7.04,1.32,8.15C535.03,234.24,537.07,231.39,534.21,228.64z"/>
	<path d="M544.5,158.32c-3.57,0.61-3.67,0.71-3.97,3.16C543.28,160.56,543.38,160.46,544.5,158.32z"/>
	<path d="M652.12,279.18c-1.53,1.53-2.85,2.55-3.16,5.1C651.71,283.36,652.53,281.94,652.12,279.18z"/>
	<path d="M537.68,254.62c-2.96-0.2-4.18,1.63-5.81,2.96C533.6,256.46,535.94,256.56,537.68,254.62z"/>
	<path d="M648.76,275.52c-2.14-1.12-3.57-1.73-5.71-1.63C644.68,275.72,646.11,276.43,648.76,275.52z"/>
	<path d="M533.7,275.21c-1.94,0-3.87-1.22-6.42-0.2C529.73,276.64,531.66,276.13,533.7,275.21z"/>
	<path d="M600.66,305.58c-0.41,1.94,0.71,3.67,0.92,5.4C602.59,308.94,602.49,307.11,600.66,305.58z"/>
	<path d="M519.03,206.63c0.51-2.04,0.41-4.18,0-6.22C519.13,202.55,518.01,204.48,519.03,206.63z"/>
	<path d="M508.69,245.92c-0.1,0.05-1.01,1.98-0.16,3.2c1.02-1.12,2.04-2.14,1.53-4.08C509.48,245.43,509.08,245.72,508.69,245.92z"
		/>
	<path d="M655.48,271.54c-1.02,0.92-1.73,1.83-2.34,3.87C655.59,273.48,655.59,273.48,655.48,271.54z"/>
	<path d="M519.23,167.59c-1.22,1.53-1.83,2.45-1.63,3.97C518.72,170.55,519.23,169.63,519.23,167.59z"/>
	<path d="M634.8,290.9c-1.02-0.71-1.63-2.34-3.36-2.45C632.05,290.19,632.96,291.11,634.8,290.9z"/>
	<path d="M625.22,283.97c1.63,1.53,2.65,2.14,4.18,2.14C628.58,285.2,627.56,284.18,625.22,283.97z"/>
	<path d="M643.36,283.87c-1.63-1.02-2.85-1.63-4.38-1.12C639.89,284.18,641.12,284.28,643.36,283.87z"/>
	<path d="M533.91,212.33c-1.53,0.41-2.45,0.71-3.06,1.73C532.17,214.57,533.09,214.17,533.91,212.33z"/>
	<path d="M533.8,275.31c0.92,0.61,1.83,1.12,3.26,0.82C535.43,275.11,535.43,275.11,533.8,275.31z"/>
	<path d="M506.8,262.78c-0.41,0.82-0.61,1.53,0.51,2.65C507.61,264.2,508.12,263.39,506.8,262.78z"/>
	<path d="M532.89,285.61c1.02,0.51,2.04,0.51,3.16,0.2C534.93,285.61,533.91,285.3,532.89,285.61z"/>
	<path d="M536.35,240.05c0.94-1.25-1.51-1.5-0.82-0.1C535.64,240.36,536.15,240.36,536.35,240.05z"/>
	<path d="M639.28,270.11c-0.51-0.61-0.82-1.12-1.53-0.71C637.75,270.32,638.36,270.32,639.28,270.11z"/>
	<path d="M651.92,264.41c-0.41-0.71-0.92-0.41-1.43-0.2C650.9,264.92,651.31,265.33,651.92,264.41z"/>
	<path d="M587.31,293.86c0.61,0,1.02,0,1.43,0C588.33,293.45,587.82,293.35,587.31,293.86z"/>
	<path d="M531.87,225.89c0.1,0.51,0.31,0.51,0.71,0.41C532.48,225.89,532.28,225.68,531.87,225.89z"/>
	<path d="M550.01,294.27c0,0.26-0.11,0.2,0.61,0.2C550.36,294.22,551.02,294.27,550.01,294.27z"/>
	<path d="M644.99,293.25c0.61-0.31,0.92-0.61,0.61-1.32C644.48,292.03,644.27,292.43,644.99,293.25z"/>
	<path d="M586.29,284.99c0.2,0.51,0.71,0.31,1.22-0.41C586.7,284.48,586.08,284.69,586.29,284.99z"/>
	<path d="M506.8,267.57c-0.51,0.71-0.51,1.43-0.31,2.14C507.31,269.1,507.41,268.38,506.8,267.57z"/>
	<path d="M605.24,261.96C605.04,261.96,604.84,262.06,605.24,261.96L605.24,261.96z"/>
	<path d="M748.94,367.95c-1.23-7.76,0.61-12.27,0.61-21.6c0-4.6-3.19-3.68-2.96-0.71c0.42,5.29-1.96,10.76,0.51,16
		c0.19,0.41,0.31,1.02,0.1,1.43c-1.63,3.87,0.1,7.54,0.61,11.21C748.94,372.23,749.27,370.08,748.94,367.95z"/>
	<path d="M787.58,469.57c1.22,1.86,0.47-10.47-5.01-15.61C783.96,459.07,784.25,464.49,787.58,469.57z"/>
	<path d="M775.43,356.94c-2.75-7.85-4.89-16-8.97-23.34C768.4,341.66,771.66,349.4,775.43,356.94z"/>
	<path d="M748.22,380.38c-0.31,8.76-0.31,17.53,1.32,26.09c1.63-4.48,0.05-8.87-0.31-13.15
		C748.88,389.04,750.16,384.56,748.22,380.38z"/>
	<path d="M734.77,282.45c4.28,1.43,8.25,3.87,12.74,5.1C743.53,285.1,739.56,282.55,734.77,282.45z"/>
	<path d="M756.27,318.62c-0.97,0.65-1.59-0.6,6.32,9.38c0.1-0.1,0.31-0.31,0.51-0.41C761.37,324.23,759.43,320.87,756.27,318.62z"/>
	<path d="M766.46,277.96c3.35,6.7,2.16,5.4,3.36,5.4C769.42,281.22,769.93,278.57,766.46,277.96z"/>
	<path d="M744.35,332.18c0.41,2.34-0.51,5.1,1.83,7.64C745.88,336.76,746.18,334.22,744.35,332.18z"/>
	<path d="M755.15,428.21c0.05-2.52-0.12-4.53-1.73-6.25C752.94,426.98,755.15,428.31,755.15,428.21z"/>
	<path d="M803.56,437.14c1.02-2.34,0.31-4.38-1.43-6.32C802.64,432.97,803.05,435,803.56,437.14z"/>
	<path d="M748.53,323.21c-0.61-1.73-0.71-3.67-2.24-4.99C746.49,320.15,747.2,321.78,748.53,323.21z"/>
	<path d="M722.54,330.95c1.94-0.51,3.26-0.61,4.08-2.04C724.68,328.2,723.66,328.81,722.54,330.95z"/>
	<path d="M730.49,313.83c1.22,1.02,2.04,0.51,3.26-1.12C732.22,312.81,731,312.31,730.49,313.83z"/>
	<path d="M775.84,436.13c-0.51,1.22-0.41,2.14,0.82,2.65C776.96,437.86,776.96,437.04,775.84,436.13z"/>
	<path d="M766.97,305.48c0.31,1.32,0.51,2.45,0.92,4.18C768.09,306.8,768.09,306.8,766.97,305.48z"/>
	<path d="M801.11,427.87c0.2-1.32-0.41-2.04-1.02-2.96C799.58,426.44,799.89,427.26,801.11,427.87z"/>
	<path d="M779.61,446.11c-0.2,1.12-0.1,1.94,1.32,2.55C780.73,447.54,780.83,446.72,779.61,446.11z"/>
	<path d="M773.39,427.06c0.31-0.82,0.1-1.43-0.61-2.04C772.27,425.93,772.48,426.55,773.39,427.06z"/>
	<path d="M751.18,412.07c0,1.12,0.2,1.94,1.02,2.45C752.6,413.5,752.6,412.69,751.18,412.07z"/>
	<path d="M730.69,367.44c0.31-0.92,0.51-1.73-0.2-2.55C730.39,365.6,729.88,366.42,730.69,367.44z"/>
	<path d="M738.64,315.87c0.41,0.82,1.12,0.51,2.34,0C739.76,315.26,739.15,314.65,738.64,315.87z"/>
	<path d="M733.34,323.11c0.41-0.82,1.22-1.02,0.71-1.83C733.45,321.48,733.04,321.78,733.34,323.11z"/>
	<path d="M647.23,376c-1.35,0.9,1.82,1.26,9.07-4.69c8.64-7.09,43.93-44.27,36.28-51.26C691.7,332.85,660.95,366.92,647.23,376z"/>
	<path d="M655.59,343.08c21.61-52.08-7.51,12.71-16.51,20.59C646.57,362.22,652.68,350.08,655.59,343.08z"/>
	<path d="M679.03,325.86c-0.94,6.6-3.35,8.67-25.38,39.03c-7.81,13.67,27.79-30.69,26.8-39.74
		C679.74,324.94,679.23,325.35,679.03,325.86z"/>
	<path d="M706.24,353.07c-1.22,7.44-3.97,14.47-6.11,21.71C703.28,371.92,706.44,360.41,706.24,353.07z"/>
	<path d="M679.33,302.11c-0.2,4.38-0.51,8.87-0.71,13.35C681.78,311.18,679.64,306.6,679.33,302.11z"/>
	<path d="M701.55,311.49c1.83-4.48,2.34-9.27,3.36-13.86C701.96,301.81,702.57,306.9,701.55,311.49z"/>
	<path d="M666.39,317.1c1.53-3.46,2.55-7.13,1.94-11.11C665.36,318.97,665.29,316.55,666.39,317.1z"/>
	<path d="M609.16,378c-0.08-0.16-1.4,0.25-1.77,1.37c1.02,0.2,1.53-0.41,2.04-1.02C622.93,371.32,613.34,373.19,609.16,378z"/>
	<path d="M674.85,321.78c-2.45-0.51-4.59,0.2-7.54,0.71C670.47,323.11,672.61,322.09,674.85,321.78z"/>
	<path d="M691.56,309.96c-0.1,1.53-0.51,3.06,1.02,4.48C693.19,312.51,691.87,311.39,691.56,309.96z"/>
	<path d="M653.14,311.39c-1.12,1.43-2.04,2.14-2.04,3.57C652.73,314.45,652.73,313.32,653.14,311.39z"/>
	<path d="M647.23,372.23c-0.61,0-0.92,0.41-1.73,1.63C646.62,373.15,647.23,373.04,647.23,372.23z"/>
	<path d="M706.03,294.88c-1.02,0.82-1.22,1.73-1.02,2.85C705.73,296.92,706.03,296.1,706.03,294.88z"/>
	<path d="M688.5,318.01c-0.61-0.1-1.22-0.2-1.53,0.82C687.69,318.73,688.2,318.83,688.5,318.01z"/>
	<path d="M709.09,309.04c-0.61,0.41-0.82,0.82-0.41,1.43C709.5,310.17,709.5,309.66,709.09,309.04z"/>
	<path d="M620.22,219.67c2.75,0,4.18,4.38,7.75,1.53c-1.73-2.85-4.48-3.67-7.03-4.69c-0.82-2.14,0.2-4.59-1.63-6.83
		c-0.71,4.18,0.71,8.25-2.14,11.62C619.2,221.81,619.31,219.87,620.22,219.67z"/>
	<path d="M579.36,235.36c1.83,0.92,2.96,0.71,4.38-0.2C582.11,234.14,580.89,233.83,579.36,235.36z"/>
	<path d="M568.35,163.21c-1.02,0-1.94,0-2.85,0C566.52,163.52,567.64,165.56,568.35,163.21z"/>
	<path d="M592.61,221.81c-0.41-1.12-1.12-1.22-2.34-0.61C590.98,222.52,591.69,222.42,592.61,221.81z"/>
	<path d="M631.13,221.91c-0.25-1.48-1.73-0.72-1.32-0.1C630.01,222.22,630.41,222.32,631.13,221.91z"/>
	<path d="M578.44,243.41c-0.58-0.58-0.89,1.71,0.41,0.41C578.75,243.62,578.64,243.31,578.44,243.41z"/>
	<path d="M713.67,260.23c-0.68-16.39-1.8-2.45-1.83-2.34c-2.98,1.49-10.07,1.28-13.96,4.69
		C702.97,261.25,708.07,259.52,713.67,260.23z"/>
	<path d="M708.17,256.05c-0.71-2.65,2.24-2.34,2.96-4.28c-4.38,1.53-9.27-0.31-14.17,2.14C702.3,255.91,707.38,251.29,708.17,256.05
		z"/>
	<path d="M696.66,276.13c-2.04-0.1-3.26,0.51-4.48,1.83C694.01,278.17,695.03,277.15,696.66,276.13z"/>
	<path d="M678.62,269.1c-1.22-0.51-2.14-0.51-3.16,0.31C676.89,270.83,677.7,270.01,678.62,269.1z"/>
	<path d="M681.27,256.66c1.53-0.41,2.65-0.61,3.67-0.82C683.82,255.34,682.59,254.73,681.27,256.66z"/>
	<path d="M697.88,262.47c-1.53-0.1-3.16-0.82-5.4,0.41C694.82,263.39,696.35,263.18,697.88,262.47z"/>
	<path d="M717.55,252.38c-1.02-0.82-1.32-1.43-2.34-1.12C715.61,251.97,716.02,252.28,717.55,252.38z"/>
	<path d="M673.62,276.84c-0.71-0.1-1.32-0.51-1.94,0.61C672.4,277.45,673.01,277.96,673.62,276.84z"/>
	<path d="M701.45,275.92c0.41-0.1,0.71-0.1,1.12-0.2C702.16,275.52,701.85,275.31,701.45,275.92z"/>
	<path d="M686.97,263.49c-0.51-0.51-0.92-0.41-1.22,0.1C686.16,263.9,686.57,263.9,686.97,263.49z"/>
	<path d="M571.21,233.63c-2.75-2.75-5.5-3.46-7.95-1.83C565.7,234.96,567.84,235.36,571.21,233.63z"/>
	<path d="M566.42,242.7c0.31,0.41,1.43,0.1,1.53-1.32c-2.96,0.1-5.2-2.34-8.87-2.24C560.91,242.8,564.58,240.76,566.42,242.7z"/>
	<path d="M630.01,312.41c1.02,0.41,1.73,0.71,2.34-0.51C631.54,311.29,630.82,311.08,630.01,312.41z"/>
	<path d="M174.67,267.16c-1.32,1.94-3.57,2.45-5.71,3.97c3.57,0.61,5.5-1.12,7.13-2.75c3.77,0.92,7.24,2.85,10.9,0.1
		C183.13,266.34,178.85,268.08,174.67,267.16z"/>
	<path d="M94.37,263.9c-5.38-0.83-1.27-5.01-2.45-6.52c-6.3,2.77-1.24,12.5,8.66,7.44C98.55,264.51,96.51,264.23,94.37,263.9z"/>
	<path d="M131.97,186.24c-3.67,6.01-9.78,9.58-15.18,13.76C123.62,197.35,129.12,193.27,131.97,186.24z"/>
	<path d="M93.15,168.51c-3.57,3.77-2.85,10.19,1.32,16.41C93.86,179.42,91.62,174.52,93.15,168.51z"/>
	<path d="M171.92,286.52c3.46,4.79,5.2,9.48,5.91,14.98C179.57,297.22,176.81,290.19,171.92,286.52z"/>
	<path d="M83.57,250.55c0.92-3.16,1.43-6.42,0.71-9.68C82.55,243.21,82.34,246.06,83.57,250.55z"/>
	<path d="M135.34,283.57c4.79,0.82,9.68-0.41,14.47-0.1C145.02,281.83,140.23,283.46,135.34,283.57z"/>
	<path d="M114.55,240.66c1.32-3.67,0.71-6.32-1.43-8.76C113.02,234.75,112.71,237.5,114.55,240.66z"/>
	<path d="M97.02,271.85c3.67,2.85,8.05,3.36,12.43,3.57C105.38,273.89,100.99,273.68,97.02,271.85z"/>
	<path d="M115.87,152.31c-2.75-2.85-4.89-3.26-7.75-0.92C111.18,151.39,113.32,152.61,115.87,152.31z"/>
	<path d="M118.62,275.82c4.35,0.99,8.71-1.43,8.15-2.55C124.33,273.99,121.78,274.8,118.62,275.82z"/>
	<path d="M111.8,226.8c0-2.55,1.53-5.4-0.92-7.64C111.59,221.61,109.86,224.46,111.8,226.8z"/>
	<path d="M121.07,148.33c-2.04,0.1-3.97,0.41-4.79,3.46C118.83,151.08,120.05,149.96,121.07,148.33z"/>
	<path d="M225.73,274.09c2.34-0.82,3.06-2.24,2.65-4.38C227.16,270.83,225.22,271.64,225.73,274.09z"/>
	<path d="M114.34,244.54c-3.06-0.2-4.38,1.73-6.01,2.96C110.06,246.47,112.41,246.47,114.34,244.54z"/>
	<path d="M104.26,265.22c1.94,1.02,3.87,1.22,5.91,0C108.23,265.22,106.29,263.9,104.26,265.22z"/>
	<path d="M224.3,265.43c-1.32-1.12-2.75-1.63-4.79-1.63C220.94,265.83,222.37,266.45,224.3,265.43z"/>
	<path d="M95.8,190.52c0.1,1.94-1.73,3.97,0,6.01C95.8,194.5,95.8,192.56,95.8,190.52z"/>
	<path d="M85.1,239.24c0.71-1.43,2.04-2.34,1.43-4.28c-0.61,0.41-1.02,0.71-1.43,0.92C84.99,236.79,84.08,237.71,85.1,239.24z"/>
	<path d="M230.22,264.71c1.32-0.61,2.45-1.32,1.83-3.67C231.03,262.37,230.11,263.18,230.22,264.71z"/>
	<path d="M202.09,274.19c1.22,1.32,2.34,1.94,3.77,1.94C205.04,275.01,204.13,273.99,202.09,274.19z"/>
	<path d="M211.26,280.61c-1.02-0.82-1.94-1.63-2.85-2.45C208.41,280.2,209.43,281.02,211.26,280.61z"/>
	<path d="M215.44,272.76c1.02,1.43,2.34,1.43,3.77,0.82C217.99,272.97,216.87,272.05,215.44,272.76z"/>
	<path d="M95.8,157.61c-1.43,1.32-1.83,2.34-2.14,4.08C95.08,160.56,95.49,159.44,95.8,157.61z"/>
	<path d="M110.27,202.45c-1.43,0.2-2.34,0.51-3.06,1.63C108.74,204.48,109.66,204.08,110.27,202.45z"/>
	<path d="M110.17,265.22c0.92,0.61,1.94,1.12,3.16,0.51C112.31,265.33,111.49,264,110.17,265.22z"/>
	<path d="M83.26,255.13c1.22-0.82,1.02-1.53,0.2-2.55C82.65,253.5,82.75,254.22,83.26,255.13z"/>
	<path d="M112.71,230.27c0.31-0.51,0.61-0.92-0.31-1.53C111.69,229.55,111.69,229.96,112.71,230.27z"/>
	<path d="M109.35,275.52c1.02,0.51,2.04,0.51,3.16,0.2C111.39,275.52,110.37,275.31,109.35,275.52z"/>
	<path d="M214.11,259.31c0.2,1.02,0.71,1.02,1.43,0.61C215.23,259.41,214.93,259.01,214.11,259.31z"/>
	<path d="M163.87,283.67c0.41,0.2,0.82,0.31,1.32,0C164.69,283.36,164.28,283.36,163.87,283.67z"/>
	<path d="M125.86,284.38c1.3,0,1.12,0.07,1.12-0.2C126.16,284.38,125.86,284.16,125.86,284.38z"/>
	<path d="M228.18,254.01c-0.41-0.2-0.82-0.2-1.43,0.2C227.57,254.83,228.08,255.24,228.18,254.01z"/>
	<path d="M108.74,216.31c0.31,0.1,0.51-0.1,0.31-0.31C108.52,215.48,107.9,216.1,108.74,216.31z"/>
	<path d="M221.25,283.26c0.51-0.31,1.12-0.51,0.61-1.53C221.25,281.94,220.74,282.24,221.25,283.26z"/>
	<path d="M162.65,275.01c0.51,0.2,0.92,0.1,1.12-0.41C163.16,274.29,162.85,274.5,162.65,275.01z"/>
	<path d="M196.38,209.68c3.06-0.2,4.69,4.59,8.05,1.22c-1.83-2.55-4.59-3.46-7.24-4.48c-0.41-2.14,0.1-4.38-1.43-7.03
		c-0.61,4.59,0.82,8.56-2.04,11.92C195.77,211.72,195.77,209.78,196.38,209.68z"/>
	<path d="M156.13,225.58c1.32,0.71,2.45,0.31,4.38-0.31C157.66,224.15,157.66,224.15,156.13,225.58z"/>
	<path d="M166.73,211.31c0.51,1.12,1.32,1.02,2.34,0.41C168.25,210.6,167.64,210.29,166.73,211.31z"/>
	<path d="M207.59,211.72c-0.53-1.58-1.78-0.69-1.32,0C206.67,212.23,207.08,212.23,207.59,211.72z"/>
	<path d="M154.7,234.04c0.39,0.13,0.94-0.08,0.2-0.82C154.48,233.44,154.27,233.61,154.7,234.04z"/>
	<path d="M288.2,247.9c-3.15,1.35-10.06,1.26-13.86,4.59c5.1-1.32,10.19-3.06,15.69-2.24c0-2.55,0.41-5.1-0.82-7.85
		C287.79,244.33,288.92,246.27,288.2,247.9z"/>
	<path d="M284.64,245.96c-0.61-2.45,2.04-2.45,3.26-3.57c-2.96-1.02-11.82,0.1-13.76,1.63C278.4,246.29,283.74,240.62,284.64,245.96
		z"/>
	<path d="M267.31,277.76c1.32-6.11-3.87-10.5-10.8-9.38C262.01,269.3,266.5,271.44,267.31,277.76z"/>
	<path d="M267.92,280.2c-0.1,3.16,0.1,5.4,1.02,7.54C270.06,285.3,269.65,283.16,267.92,280.2z"/>
	<path d="M268.02,269.1c2.04-1.12,3.26-1.94,4.59-2.65C270.88,266.34,269.25,266.65,268.02,269.1z"/>
	<path d="M257.83,246.47c1.53-0.31,2.65-0.61,3.67-0.82C260.28,245.25,258.95,244.64,257.83,246.47z"/>
	<path d="M251.92,259.52c1.43,1.22,2.24,0.51,3.16-0.41C253.96,258.5,253.04,258.5,251.92,259.52z"/>
	<path d="M269.04,252.79c2.24,0.71,3.77,0.41,5.3-0.31C272.81,252.38,271.18,251.67,269.04,252.79z"/>
	<path d="M291.56,241.17c0.61,0.71,1.02,1.32,1.83,0.82C292.99,241.38,292.69,240.87,291.56,241.17z"/>
	<path d="M249.88,266.85c-0.51,0.1-1.32-0.82-1.43,0.51C248.97,267.57,249.58,267.67,249.88,266.85z"/>
	<path d="M278.93,265.43c-0.41,0.1-0.71,0.1-1.12,0.2C278.32,265.83,278.62,265.94,278.93,265.43z"/>
	<path d="M262.11,253.5c0.51,0.31,0.92,0.2,1.32-0.1C262.93,252.89,262.52,252.99,262.11,253.5z"/>
	<path d="M139.62,221.91c2.85,3.06,5.1,3.46,7.95,1.53C144.2,220.59,141.76,220.08,139.62,221.91z"/>
	<path d="M135.44,229.86c2.96,2.04,6.01,2.04,8.87,2.45C140.64,229.86,138.09,229.25,135.44,229.86z"/>
	<path d="M148.38,223.85c1.12,1.22,2.04,0.51,2.85,0.41C150.52,222.42,149.6,222.73,148.38,223.85z"/>
	<path d="M206.57,302.11c0.71,0.71,1.43,0.82,2.34-0.1C207.8,300.99,207.18,301.2,206.57,302.11z"/>
<path fill="#e6e6e6" d="m206.8 163.6c0-5.1 4.1-9.2 9.3-9.2s9.2 4.2 9.2 9.2-4.1 9.2-9.3 9.2-9.2-4.1-9.2-9.2zm17.3-.1c0-4.5-3.5-8.2-8.2-8.2s-8.2 3.7-8.2 8.3c0 4.5 3.5 8.2 8.2 8.2s8.2-3.7 8.2-8.3zm-13 0c0-2.8 2.1-5.1 5.1-5.1 1.9 0 2.9.6 3.9 1.5l-1.4 1.7c-.8-.7-1.5-1.1-2.5-1.1-1.7 0-2.8 1.4-2.8 3.1s1.1 3 2.8 3c1.1 0 1.7-.5 2.5-1.1l1.4 1.4c-1.1 1.1-2.1 1.7-4 1.7-2.9 0-5-2.3-5-5.1z"/><path fill="#e6e6e6" d="m226.6 154.7h3.4l4.2 13.2 4.4-13.3h2.6l4.4 13.3 4.2-13.2h3.3l-6.2 18h-2.7l-4.4-12.8-4.4 12.8h-2.7z"/><path fill="#e6e6e6" d="m252.8 165.8c0-3.9 3.1-7 7.2-7 4.2 0 7.2 3.2 7.2 7s-3.1 7-7.3 7c-4 0-7.1-3.1-7.1-7zm11.3 0c0-2.3-1.7-4.3-4.2-4.3s-4.1 2-4.1 4.3 1.7 4.3 4.1 4.3c2.7.1 4.2-1.9 4.2-4.3z"/><path fill="#e6e6e6" d="m269.5 159.1h3.1v3c.8-2 2.4-3.4 4.8-3.3v3.2h-.2c-2.7 0-4.6 1.7-4.6 5.4v5.1h-3.1z"/><path fill="#e6e6e6" d="m279.1 153.9h3.1v11.1l5.6-6h3.8l-5.4 5.5 5.5 8h-3.5l-4.1-5.8-1.9 2v3.9h-3.1z"/><path fill="#e6e6e6" d="m291.7 165.8c0-3.9 3.1-7 7.2-7 4.2 0 7.2 3.2 7.2 7s-3.1 7-7.3 7c-4 0-7.1-3.1-7.1-7zm11.3 0c0-2.3-1.7-4.3-4.2-4.3s-4.1 2-4.1 4.3 1.7 4.3 4.1 4.3c2.6.1 4.2-1.9 4.2-4.3z"/><path fill="#e6e6e6" d="m308.2 167.6v-8.6h3.1v7.6c0 2.1 1.1 3.3 2.9 3.3s3-1.3 3-3.3v-7.6h3.1v13.4h-3.1v-2.1c-.8 1.3-2.1 2.3-4.2 2.3-3.1.2-4.8-1.8-4.8-5z"/><path fill="#e6e6e6" d="m323.9 168.8v-7.1h-1.7v-2.6h1.7v-3.7h3.1v3.7h3.6v2.6h-3.6v6.6c0 1.2.6 1.7 1.7 1.7.7 0 1.3-.2 1.9-.5v2.5c-.8.5-1.7.7-2.8.7-2.3 0-3.9-.9-3.9-3.9z"/><path fill="#e6e6e6" d="m333.2 154.7h3.2v15h9.4v2.9h-12.5v-17.9z"/><path fill="#e6e6e6" d="m356 172.5v-1.7c-.9 1.1-2.3 2-4.4 2-2.6 0-4.8-1.4-4.8-4.2 0-3 2.3-4.4 5.4-4.4 1.7 0 2.6.2 3.7.5v-.2c0-1.9-1.2-2.9-3.3-2.9-1.5 0-2.6.3-3.9.8l-.8-2.5c1.5-.7 2.9-1.1 5.1-1.1 4 0 5.9 2.1 5.9 5.7v8zm.1-5.6c-.8-.3-1.9-.5-3.1-.5-2 0-3.1.8-3.1 2.1s1.1 2 2.6 2c2 0 3.5-1.1 3.5-2.9z"/><path fill="#e6e6e6" d="m364.9 170.5v2.1h-3.1v-18.7h3.1v7.4c1-1.4 2.4-2.5 4.5-2.5 3.2 0 6.3 2.5 6.3 7s-3.1 7-6.3 7c-2.1 0-3.5-1.1-4.5-2.3zm7.7-4.7c0-2.6-1.7-4.3-3.9-4.3s-3.9 1.7-3.9 4.4c0 2.6 1.8 4.3 3.9 4.3s3.9-1.7 3.9-4.4z"/><path fill="#e6e6e6" d="m376.9 170.8 1.4-2.1c1.4 1.1 3 1.7 4.4 1.7s2.1-.5 2.1-1.5-1.3-1.4-2.8-1.8c-.1 0-.2-.1-.2-.1-2-.6-4.2-1.4-4.2-4s2.1-4.1 4.8-4.1c1.7 0 3.5.6 5 1.5l-1.2 2.2c-1.3-.8-2.6-1.3-3.8-1.3s-1.9.5-1.9 1.4 1.3 1.4 2.8 1.8c.1 0 .2.1.2.1 2 .6 4.2 1.5 4.2 4 0 2.9-2.2 4.2-5 4.2-1.9 0-4-.7-5.8-2z"/><path fill="#e6e6e6" d="m505.6 163.6c0-5.1 4.1-9.2 9.3-9.2s9.2 4.2 9.2 9.2-4.1 9.2-9.3 9.2-9.2-4.1-9.2-9.2zm17.4-.1c0-4.5-3.5-8.2-8.2-8.2s-8.2 3.7-8.2 8.3c0 4.5 3.5 8.2 8.2 8.2s8.2-3.7 8.2-8.3zm-13.1 0c0-2.8 2.1-5.1 5.1-5.1 1.9 0 2.9.6 3.9 1.5l-1.4 1.7c-.8-.7-1.5-1.1-2.5-1.1-1.7 0-2.8 1.4-2.8 3.1s1.1 3 2.8 3c1.1 0 1.7-.5 2.5-1.1l1.4 1.4c-1.1 1.1-2.1 1.7-4 1.7-2.9 0-5-2.3-5-5.1z"/><path fill="#e6e6e6" d="m525.4 154.7h3.4l4.2 13.2 4.4-13.3h2.6l4.4 13.3 4.2-13.2h3.3l-6.2 18h-2.7l-4.4-12.8-4.4 12.8h-2.7z"/><path fill="#e6e6e6" d="m551.7 165.8c0-3.9 3.1-7 7.2-7 4.2 0 7.2 3.2 7.2 7s-3.1 7-7.3 7c-4.1 0-7.1-3.1-7.1-7zm11.2 0c0-2.3-1.7-4.3-4.2-4.3s-4.1 2-4.1 4.3 1.7 4.3 4.1 4.3c2.7.1 4.2-1.9 4.2-4.3z"/><path fill="#e6e6e6" d="m568.3 159.1h3.1v3c.8-2 2.4-3.4 4.8-3.3v3.2h-.2c-2.7 0-4.6 1.7-4.6 5.4v5.1h-3.1z"/><path fill="#e6e6e6" d="m577.9 153.9h3.1v11.1l5.6-6h3.8l-5.4 5.5 5.5 8h-3.5l-4.1-5.8-1.9 2v3.9h-3.1z"/><path fill="#e6e6e6" d="m590.6 165.8c0-3.9 3.1-7 7.2-7 4.2 0 7.2 3.2 7.2 7s-3.1 7-7.3 7c-4.1 0-7.1-3.1-7.1-7zm11.2 0c0-2.3-1.7-4.3-4.2-4.3s-4.1 2-4.1 4.3 1.7 4.3 4.1 4.3c2.6.1 4.2-1.9 4.2-4.3z"/><path fill="#e6e6e6" d="m607 167.6v-8.6h3.1v7.6c0 2.1 1.1 3.3 2.9 3.3s3-1.3 3-3.3v-7.6h3.1v13.4h-3.1v-2.1c-.8 1.3-2.1 2.3-4.2 2.3-3 .2-4.8-1.8-4.8-5z"/><path fill="#e6e6e6" d="m622.7 168.8v-7.1h-1.7v-2.6h1.7v-3.7h3.1v3.7h3.6v2.6h-3.6v6.6c0 1.2.6 1.7 1.7 1.7.7 0 1.3-.2 1.9-.5v2.5c-.8.5-1.7.7-2.8.7-2.3 0-3.9-.9-3.9-3.9z"/><path fill="#e6e6e6" d="m632 154.7h3.2v15h9.4v2.9h-12.6z"/><path fill="#e6e6e6" d="m654.8 172.5v-1.7c-.9 1.1-2.3 2-4.4 2-2.6 0-4.8-1.4-4.8-4.2 0-3 2.3-4.4 5.4-4.4 1.7 0 2.6.2 3.7.5v-.2c0-1.9-1.2-2.9-3.3-2.9-1.5 0-2.6.3-3.9.8l-.8-2.5c1.5-.7 2.9-1.1 5.1-1.1 4 0 5.9 2.1 5.9 5.7v8zm.1-5.6c-.8-.3-1.9-.5-3.1-.5-2 0-3.1.8-3.1 2.1s1.1 2 2.6 2c2 0 3.5-1.1 3.5-2.9z"/><path fill="#e6e6e6" d="m663.7 170.5v2.1h-3.1v-18.7h3.1v7.4c1-1.4 2.4-2.5 4.5-2.5 3.2 0 6.3 2.5 6.3 7s-3.1 7-6.3 7c-2.1 0-3.5-1.1-4.5-2.3zm7.8-4.7c0-2.6-1.7-4.3-3.9-4.3-2.1 0-3.9 1.7-3.9 4.4 0 2.6 1.8 4.3 3.9 4.3s3.9-1.7 3.9-4.4z"/><path fill="#e6e6e6" d="m675.8 170.8 1.4-2.1c1.4 1.1 3 1.7 4.4 1.7s2.1-.5 2.1-1.5-1.3-1.4-2.8-1.8c-.1 0-.2-.1-.2-.1-2-.6-4.2-1.4-4.2-4s2.1-4.1 4.8-4.1c1.7 0 3.5.6 5 1.5l-1.2 2.2c-1.3-.8-2.6-1.3-3.8-1.3s-1.9.5-1.9 1.4 1.3 1.4 2.8 1.8c.1 0 .2.1.2.1 2 .6 4.2 1.5 4.2 4 0 2.9-2.2 4.2-5 4.2-2 0-4.1-.7-5.8-2z"/><path fill="#e6e6e6" d="m61 298.6c0-5.1 4.1-9.2 9.3-9.2s9.2 4.2 9.2 9.2-4.1 9.2-9.3 9.2c-5.1 0-9.2-4.2-9.2-9.2zm17.4-.1c0-4.5-3.5-8.2-8.2-8.2s-8.2 3.7-8.2 8.3c0 4.5 3.5 8.2 8.2 8.2s8.2-3.7 8.2-8.3zm-13.1-.1c0-2.8 2.1-5.1 5.1-5.1 1.9 0 2.9.6 3.9 1.5l-1.4 1.7c-.8-.7-1.5-1.1-2.5-1.1-1.7 0-2.8 1.4-2.8 3.1s1.1 3 2.8 3c1.1 0 1.7-.5 2.5-1.1l1.4 1.4c-1.1 1.1-2.1 1.7-4 1.7-2.8.1-5-2.2-5-5.1z"/><path fill="#e6e6e6" d="m80.9 289.7h3.4l4.2 13.2 4.4-13.3h2.6l4.4 13.3 4.2-13.2h3.3l-6.2 18h-2.7l-4.4-12.8-4.4 12.8h-2.7z"/><path fill="#e6e6e6" d="m107.1 300.8c0-3.9 3.1-7 7.2-7s7.2 3.2 7.2 7-3.1 7-7.3 7c-4 0-7.1-3.1-7.1-7zm11.3 0c0-2.3-1.7-4.3-4.2-4.3s-4.1 2-4.1 4.3 1.7 4.3 4.1 4.3c2.6.1 4.2-1.9 4.2-4.3z"/><path fill="#e6e6e6" d="m123.7 294h3.1v3c.8-2 2.4-3.4 4.8-3.3v3.2h-.2c-2.7 0-4.6 1.7-4.6 5.4v5.1h-3.1z"/><path fill="#e6e6e6" d="m133.4 288.9h3.1v11.1l5.6-6h3.8l-5.4 5.5 5.5 8h-3.5l-4.1-5.8-1.9 1.9v3.9h-3.1z"/><path fill="#e6e6e6" d="m146 300.8c0-3.9 3.1-7 7.2-7s7.2 3.2 7.2 7-3.1 7-7.3 7c-4.1 0-7.1-3.1-7.1-7zm11.2 0c0-2.3-1.7-4.3-4.2-4.3s-4.1 2-4.1 4.3 1.7 4.3 4.1 4.3c2.6.1 4.2-1.9 4.2-4.3z"/><path fill="#e6e6e6" d="m162.4 302.6v-8.6h3.1v7.6c0 2.1 1.1 3.3 2.9 3.3s3-1.3 3-3.3v-7.6h3.1v13.4h-3.1v-2.1c-.8 1.3-2.1 2.3-4.2 2.3-3 .2-4.8-1.8-4.8-5z"/><path fill="#e6e6e6" d="m178.1 303.8v-7.1h-1.7v-2.7h1.7v-3.7h3.1v3.7h3.6v2.6h-3.6v6.6c0 1.2.6 1.7 1.7 1.7.7 0 1.3-.2 1.9-.5v2.5c-.8.5-1.7.7-2.8.7-2.3.1-3.9-.9-3.9-3.8z"/><path fill="#e6e6e6" d="m187.4 289.7h3.2v15h9.4v2.9h-12.5v-17.9z"/><path fill="#e6e6e6" d="m210.2 307.5v-1.7c-.9 1.1-2.3 2-4.4 2-2.6 0-4.8-1.4-4.8-4.2 0-3 2.3-4.4 5.4-4.4 1.7 0 2.6.2 3.7.5v-.2c0-1.9-1.2-2.9-3.3-2.9-1.5 0-2.6.3-3.9.8l-.8-2.5c1.5-.7 2.9-1.1 5.1-1.1 4 0 5.9 2.1 5.9 5.7v8zm.1-5.6c-.8-.3-1.9-.5-3.1-.5-2 0-3.1.8-3.1 2.1s1.1 2 2.6 2c2 0 3.5-1.1 3.5-2.9z"/><path fill="#e6e6e6" d="m219.2 305.5v2.1h-3.1v-18.7h3.1v7.4c1-1.4 2.4-2.5 4.5-2.5 3.2 0 6.3 2.5 6.3 7s-3.1 7-6.3 7c-2.2 0-3.6-1.1-4.5-2.3zm7.7-4.7c0-2.6-1.7-4.3-3.9-4.3s-3.9 1.7-3.9 4.4c0 2.6 1.8 4.3 3.9 4.3s3.9-1.7 3.9-4.4z"/><path fill="#e6e6e6" d="m231.2 305.8 1.4-2.1c1.4 1.1 3 1.7 4.4 1.7s2.1-.5 2.1-1.5-1.3-1.4-2.8-1.8c-.1 0-.2-.1-.2-.1-2-.6-4.2-1.4-4.2-4s2.1-4.1 4.8-4.1c1.7 0 3.5.6 5 1.5l-1.2 2.2c-1.3-.8-2.6-1.3-3.8-1.3s-1.9.5-1.9 1.4 1.3 1.4 2.8 1.8c.1 0 .2.1.2.1 2 .6 4.2 1.5 4.2 4 0 2.9-2.2 4.2-5 4.2-2 0-4.1-.7-5.8-2z"/><path fill="#e6e6e6" d="m360.6 298.6c0-5.1 4.1-9.2 9.3-9.2s9.2 4.2 9.2 9.2-4.1 9.2-9.3 9.2-9.2-4.2-9.2-9.2zm17.4-.1c0-4.5-3.5-8.2-8.2-8.2s-8.2 3.7-8.2 8.3c0 4.5 3.5 8.2 8.2 8.2s8.2-3.7 8.2-8.3zm-13.1-.1c0-2.8 2.1-5.1 5.1-5.1 1.9 0 2.9.6 3.9 1.5l-1.4 1.7c-.8-.7-1.5-1.1-2.5-1.1-1.7 0-2.8 1.4-2.8 3.1s1.1 3 2.8 3c1.1 0 1.7-.5 2.5-1.1l1.4 1.4c-1.1 1.1-2.1 1.7-4 1.7-2.8.1-5-2.2-5-5.1z"/><path fill="#e6e6e6" d="m380.5 289.7h3.4l4.2 13.2 4.4-13.3h2.6l4.4 13.3 4.2-13.2h3.3l-6.2 18h-2.7l-4.4-12.8-4.4 12.8h-2.7z"/><path fill="#e6e6e6" d="m406.7 300.8c0-3.9 3.1-7 7.2-7 4.2 0 7.2 3.2 7.2 7s-3.1 7-7.3 7c-4.1 0-7.1-3.1-7.1-7zm11.3 0c0-2.3-1.7-4.3-4.2-4.3s-4.1 2-4.1 4.3 1.7 4.3 4.1 4.3c2.7.1 4.2-1.9 4.2-4.3z"/><path fill="#e6e6e6" d="m423.3 294h3.1v3c.8-2 2.4-3.4 4.8-3.3v3.2h-.2c-2.7 0-4.6 1.7-4.6 5.4v5.1h-3.1z"/><path fill="#e6e6e6" d="m433 288.9h3.1v11.1l5.6-6h3.8l-5.4 5.5 5.5 8h-3.5l-4.1-5.8-1.9 2v3.9h-3.1z"/><path fill="#e6e6e6" d="m445.6 300.8c0-3.9 3.1-7 7.2-7 4.2 0 7.2 3.2 7.2 7s-3.1 7-7.3 7c-4.1 0-7.1-3.1-7.1-7zm11.3 0c0-2.3-1.7-4.3-4.2-4.3s-4.1 2-4.1 4.3 1.7 4.3 4.1 4.3c2.6.1 4.2-1.9 4.2-4.3z"/><path fill="#e6e6e6" d="m462.1 302.6v-8.6h3.1v7.6c0 2.1 1.1 3.3 2.9 3.3s3-1.3 3-3.3v-7.6h3.1v13.4h-3.1v-2.1c-.8 1.3-2.1 2.3-4.2 2.3-3.1.2-4.8-1.8-4.8-5z"/><path fill="#e6e6e6" d="m477.8 303.8v-7.1h-1.8v-2.7h1.7v-3.7h3.1v3.7h3.6v2.6h-3.6v6.6c0 1.2.6 1.7 1.7 1.7.7 0 1.3-.2 1.9-.5v2.5c-.8.5-1.7.7-2.8.7-2.2.1-3.8-.9-3.8-3.8z"/><path fill="#e6e6e6" d="m487.1 289.7h3.2v15h9.4v2.9h-12.5v-17.9z"/><path fill="#e6e6e6" d="m509.9 307.5v-1.7c-.9 1.1-2.3 2-4.4 2-2.6 0-4.8-1.4-4.8-4.2 0-3 2.3-4.4 5.4-4.4 1.7 0 2.6.2 3.7.5v-.2c0-1.9-1.2-2.9-3.3-2.9-1.5 0-2.6.3-3.9.8l-.8-2.5c1.5-.7 2.9-1.1 5.1-1.1 4 0 5.9 2.1 5.9 5.7v8zm.1-5.6c-.8-.3-1.9-.5-3.1-.5-2 0-3.1.8-3.1 2.1s1.1 2 2.6 2c2 0 3.5-1.1 3.5-2.9z"/><path fill="#e6e6e6" d="m518.8 305.5v2.1h-3.1v-18.7h3.1v7.4c1-1.4 2.4-2.5 4.5-2.5 3.2 0 6.3 2.5 6.3 7s-3.1 7-6.3 7c-2.2 0-3.5-1.1-4.5-2.3zm7.7-4.7c0-2.6-1.7-4.3-3.9-4.3s-3.9 1.7-3.9 4.4c0 2.6 1.8 4.3 3.9 4.3s3.9-1.7 3.9-4.4z"/><path fill="#e6e6e6" d="m530.8 305.8 1.4-2.1c1.4 1.1 3 1.7 4.4 1.7s2.1-.5 2.1-1.5-1.3-1.4-2.8-1.8c-.1 0-.2-.1-.2-.1-2-.6-4.2-1.4-4.2-4s2.1-4.1 4.8-4.1c1.7 0 3.5.6 5 1.5l-1.2 2.2c-1.3-.8-2.6-1.3-3.8-1.3s-1.9.5-1.9 1.4 1.3 1.4 2.8 1.8c.1 0 .2.1.2.1 2 .6 4.2 1.5 4.2 4 0 2.9-2.2 4.2-5 4.2-1.9 0-4.1-.7-5.8-2z"/><path fill="#e6e6e6" d="m659.5 298.6c0-5.1 4.1-9.2 9.3-9.2s9.2 4.2 9.2 9.2-4.1 9.2-9.3 9.2-9.2-4.2-9.2-9.2zm17.3-.1c0-4.5-3.5-8.2-8.2-8.2s-8.2 3.7-8.2 8.3c0 4.5 3.5 8.2 8.2 8.2 4.8 0 8.2-3.7 8.2-8.3zm-13-.1c0-2.8 2.1-5.1 5.1-5.1 1.9 0 2.9.6 3.9 1.5l-1.4 1.7c-.8-.7-1.5-1.1-2.5-1.1-1.7 0-2.8 1.4-2.8 3.1s1.1 3 2.8 3c1.1 0 1.7-.5 2.5-1.1l1.4 1.4c-1.1 1.1-2.1 1.7-4 1.7-2.9.1-5-2.2-5-5.1z"/><path fill="#e6e6e6" d="m679.3 289.7h3.4l4.2 13.2 4.4-13.3h2.6l4.4 13.3 4.2-13.2h3.3l-6.2 18h-2.6l-4.4-12.8-4.4 12.8h-2.7z"/><path fill="#e6e6e6" d="m705.5 300.8c0-3.9 3.1-7 7.2-7 4.2 0 7.2 3.2 7.2 7s-3.1 7-7.3 7c-4 0-7.1-3.1-7.1-7zm11.3 0c0-2.3-1.7-4.3-4.2-4.3s-4.1 2-4.1 4.3 1.7 4.3 4.1 4.3c2.7.1 4.2-1.9 4.2-4.3z"/><path fill="#e6e6e6" d="m722.1 294h3.1v3c.8-2 2.4-3.4 4.8-3.3v3.2h-.2c-2.7 0-4.6 1.7-4.6 5.4v5.1h-3.1z"/><path fill="#e6e6e6" d="m731.8 288.9h3.1v11.1l5.6-6h3.8l-5.4 5.5 5.5 8h-3.5l-4.1-5.8-1.9 2v3.9h-3.1z"/><path fill="#e6e6e6" d="m744.4 300.8c0-3.9 3.1-7 7.2-7 4.2 0 7.2 3.2 7.2 7s-3.1 7-7.3 7c-4.1 0-7.1-3.1-7.1-7zm11.3 0c0-2.3-1.7-4.3-4.2-4.3s-4.1 2-4.1 4.3 1.7 4.3 4.1 4.3c2.6.1 4.2-1.9 4.2-4.3z"/><path fill="#e6e6e6" d="m760.9 302.6v-8.6h3.1v7.6c0 2.1 1.1 3.3 2.9 3.3s3-1.3 3-3.3v-7.6h3.1v13.4h-3.1v-2.1c-.8 1.3-2.1 2.3-4.2 2.3-3.1.2-4.8-1.8-4.8-5z"/><path fill="#e6e6e6" d="m776.6 303.8v-7.1h-1.7v-2.7h1.7v-3.7h3.1v3.7h3.6v2.6h-3.6v6.6c0 1.2.6 1.7 1.7 1.7.7 0 1.3-.2 1.9-.5v2.5c-.8.5-1.7.7-2.8.7-2.3.1-3.9-.9-3.9-3.8z"/><path fill="#e6e6e6" d="m785.9 289.7h3.2v15h9.4v2.9h-12.5v-17.9z"/><path fill="#e6e6e6" d="m808.7 307.5v-1.7c-.9 1.1-2.3 2-4.4 2-2.6 0-4.8-1.4-4.8-4.2 0-3 2.3-4.4 5.4-4.4 1.7 0 2.6.2 3.7.5v-.2c0-1.9-1.2-2.9-3.3-2.9-1.5 0-2.6.3-3.9.8l-.8-2.5c1.5-.7 2.9-1.1 5.1-1.1 4 0 5.9 2.1 5.9 5.7v8zm.1-5.6c-.8-.3-1.9-.5-3.1-.5-2 0-3.1.8-3.1 2.1s1.1 2 2.6 2c2 0 3.5-1.1 3.5-2.9z"/><path fill="#e6e6e6" d="m817.6 305.5v2.1h-3.1v-18.7h3.1v7.4c1-1.4 2.4-2.5 4.5-2.5 3.2 0 6.3 2.5 6.3 7s-3.1 7-6.3 7c-2.1 0-3.5-1.1-4.5-2.3zm7.7-4.7c0-2.6-1.7-4.3-3.9-4.3-2.1 0-3.9 1.7-3.9 4.4 0 2.6 1.8 4.3 3.9 4.3 2.2 0 3.9-1.7 3.9-4.4z"/><path fill="#e6e6e6" d="m829.6 305.8 1.4-2.1c1.4 1.1 3 1.7 4.4 1.7s2.1-.5 2.1-1.5-1.3-1.4-2.8-1.8c-.1 0-.2-.1-.2-.1-2-.6-4.2-1.4-4.2-4s2.1-4.1 4.8-4.1c1.7 0 3.5.6 5 1.5l-1.2 2.2c-1.3-.8-2.6-1.3-3.8-1.3s-1.9.5-1.9 1.4 1.3 1.4 2.8 1.8c.1 0 .2.1.2.1 2 .6 4.2 1.5 4.2 4 0 2.9-2.2 4.2-5 4.2-1.9 0-4-.7-5.8-2z"/><path fill="#e6e6e6" d="m206.3 434.2c0-5.1 4.1-9.2 9.3-9.2s9.2 4.2 9.2 9.2-4.1 9.2-9.3 9.2-9.2-4.1-9.2-9.2zm17.4-.1c0-4.5-3.5-8.2-8.2-8.2s-8.2 3.7-8.2 8.3c0 4.5 3.5 8.2 8.2 8.2s8.2-3.7 8.2-8.3zm-13.1-.1c0-2.8 2.1-5.1 5.1-5.1 1.9 0 2.9.6 3.9 1.5l-1.4 1.7c-.8-.7-1.5-1.1-2.5-1.1-1.7 0-2.8 1.4-2.8 3.1s1.1 3 2.8 3c1.1 0 1.7-.5 2.5-1.1l1.4 1.4c-1.1 1.1-2.1 1.7-4 1.7-2.9.1-5-2.2-5-5.1z"/><path fill="#e6e6e6" d="m226.1 425.3h3.4l4.2 13.2 4.4-13.3h2.6l4.4 13.3 4.2-13.2h3.3l-6.2 18h-2.7l-4.4-12.8-4.4 12.8h-2.7z"/><path fill="#e6e6e6" d="m252.4 436.4c0-3.9 3.1-7 7.2-7 4.2 0 7.2 3.2 7.2 7s-3.1 7-7.3 7c-4.1 0-7.1-3.1-7.1-7zm11.2 0c0-2.3-1.7-4.3-4.2-4.3s-4.1 2-4.1 4.3 1.7 4.3 4.1 4.3c2.7.1 4.2-1.9 4.2-4.3z"/><path fill="#e6e6e6" d="m269 429.7h3.1v3c.8-2 2.4-3.4 4.8-3.3v3.2h-.2c-2.7 0-4.6 1.7-4.6 5.4v5.1h-3.1z"/><path fill="#e6e6e6" d="m278.6 424.5h3.1v11.1l5.6-6h3.8l-5.4 5.5 5.5 8h-3.5l-4.1-5.8-1.9 2v3.9h-3.1z"/><path fill="#e6e6e6" d="m291.3 436.4c0-3.9 3.1-7 7.2-7 4.2 0 7.2 3.2 7.2 7s-3.1 7-7.3 7c-4.1 0-7.1-3.1-7.1-7zm11.2 0c0-2.3-1.7-4.3-4.2-4.3s-4.1 2-4.1 4.3 1.7 4.3 4.1 4.3c2.6.1 4.2-1.9 4.2-4.3z"/><path fill="#e6e6e6" d="m307.7 438.2v-8.6h3.1v7.6c0 2.1 1.1 3.3 2.9 3.3s3-1.3 3-3.3v-7.6h3.1v13.4h-3.1v-2.1c-.8 1.3-2.1 2.3-4.2 2.3-3 .2-4.8-1.8-4.8-5z"/><path fill="#e6e6e6" d="m323.4 439.4v-7.1h-1.7v-2.6h1.7v-3.7h3.1v3.7h3.6v2.6h-3.6v6.6c0 1.2.6 1.7 1.7 1.7.7 0 1.3-.2 1.9-.5v2.5c-.8.5-1.7.7-2.8.7-2.3 0-3.9-.9-3.9-3.9z"/><path fill="#e6e6e6" d="m332.7 425.3h3.2v15h9.4v2.9h-12.5v-17.9z"/><path fill="#e6e6e6" d="m355.5 443.1v-1.7c-.9 1.1-2.3 2-4.4 2-2.6 0-4.8-1.4-4.8-4.2 0-3 2.3-4.4 5.4-4.4 1.7 0 2.6.2 3.7.5v-.2c0-1.9-1.2-2.9-3.3-2.9-1.5 0-2.6.3-3.9.8l-.8-2.5c1.5-.7 2.9-1.1 5.1-1.1 4 0 5.9 2.1 5.9 5.7v8zm.1-5.6c-.8-.3-1.9-.5-3.1-.5-2 0-3.1.8-3.1 2.1s1.1 2 2.6 2c2 0 3.5-1.1 3.5-2.9z"/><path fill="#e6e6e6" d="m364.4 441.1v2.1h-3.1v-18.7h3.1v7.4c1-1.4 2.4-2.5 4.5-2.5 3.2 0 6.3 2.5 6.3 7s-3.1 7-6.3 7c-2.1 0-3.5-1.1-4.5-2.3zm7.7-4.7c0-2.6-1.7-4.3-3.9-4.3-2.1 0-3.9 1.7-3.9 4.4 0 2.6 1.8 4.3 3.9 4.3 2.2 0 3.9-1.7 3.9-4.4z"/><path fill="#e6e6e6" d="m376.5 441.4 1.4-2.1c1.4 1.1 3 1.7 4.4 1.7s2.1-.5 2.1-1.5-1.3-1.4-2.8-1.8c-.1 0-.2-.1-.2-.1-2-.6-4.2-1.4-4.2-4s2.1-4.1 4.8-4.1c1.7 0 3.5.6 5 1.5l-1.2 2.2c-1.3-.8-2.6-1.3-3.8-1.3s-1.9.5-1.9 1.4 1.3 1.4 2.8 1.8c.1 0 .2.1.2.1 2 .6 4.2 1.5 4.2 4 0 2.9-2.2 4.2-5 4.2-2 0-4.1-.7-5.8-2z"/><path fill="#e6e6e6" d="m505.1 434.2c0-5.1 4.1-9.2 9.3-9.2s9.2 4.2 9.2 9.2-4.1 9.2-9.3 9.2-9.2-4.1-9.2-9.2zm17.4-.1c0-4.5-3.5-8.2-8.2-8.2s-8.2 3.7-8.2 8.3c0 4.5 3.5 8.2 8.2 8.2s8.2-3.7 8.2-8.3zm-13.1-.1c0-2.8 2.1-5.1 5.1-5.1 1.9 0 2.9.6 3.9 1.5l-1.4 1.7c-.8-.7-1.5-1.1-2.5-1.1-1.7 0-2.8 1.4-2.8 3.1s1.1 3 2.8 3c1.1 0 1.7-.5 2.5-1.1l1.4 1.4c-1.1 1.1-2.1 1.7-4 1.7-2.9.1-5-2.2-5-5.1z"/><path fill="#e6e6e6" d="m525 425.3h3.4l4.2 13.2 4.4-13.3h2.6l4.4 13.3 4.2-13.2h3.3l-6.2 18h-2.7l-4.4-12.8-4.4 12.8h-2.7z"/><path fill="#e6e6e6" d="m551.2 436.4c0-3.9 3.1-7 7.2-7 4.2 0 7.2 3.2 7.2 7s-3.1 7-7.3 7c-4.1 0-7.1-3.1-7.1-7zm11.2 0c0-2.3-1.7-4.3-4.2-4.3s-4.1 2-4.1 4.3 1.7 4.3 4.1 4.3c2.7.1 4.2-1.9 4.2-4.3z"/><path fill="#e6e6e6" d="m567.8 429.7h3.1v3c.8-2 2.4-3.4 4.8-3.3v3.2h-.2c-2.7 0-4.6 1.7-4.6 5.4v5.1h-3.1z"/><path fill="#e6e6e6" d="m577.5 424.5h3.1v11.1l5.6-6h3.8l-5.4 5.5 5.5 8h-3.5l-4.1-5.8-1.9 2v3.9h-3.1z"/><path fill="#e6e6e6" d="m590.1 436.4c0-3.9 3.1-7 7.2-7 4.2 0 7.2 3.2 7.2 7s-3.1 7-7.3 7c-4.1 0-7.1-3.1-7.1-7zm11.2 0c0-2.3-1.7-4.3-4.2-4.3s-4.1 2-4.1 4.3 1.7 4.3 4.1 4.3c2.6.1 4.2-1.9 4.2-4.3z"/><path fill="#e6e6e6" d="m606.5 438.2v-8.6h3.1v7.6c0 2.1 1.1 3.3 2.9 3.3s3-1.3 3-3.3v-7.6h3.1v13.4h-3.1v-2.1c-.8 1.3-2.1 2.3-4.2 2.3-3 .2-4.8-1.8-4.8-5z"/><path fill="#e6e6e6" d="m622.2 439.4v-7.1h-1.7v-2.6h1.7v-3.7h3.1v3.7h3.6v2.6h-3.6v6.6c0 1.2.6 1.7 1.7 1.7.7 0 1.3-.2 1.9-.5v2.5c-.8.5-1.7.7-2.8.7-2.3 0-3.9-.9-3.9-3.9z"/><path fill="#e6e6e6" d="m631.5 425.3h3.2v15h9.4v2.9h-12.5v-17.9z"/><path fill="#e6e6e6" d="m654.3 443.1v-1.7c-.9 1.1-2.3 2-4.4 2-2.6 0-4.8-1.4-4.8-4.2 0-3 2.3-4.4 5.4-4.4 1.7 0 2.6.2 3.7.5v-.2c0-1.9-1.2-2.9-3.3-2.9-1.5 0-2.6.3-3.9.8l-.8-2.5c1.5-.7 2.9-1.1 5.1-1.1 4 0 5.9 2.1 5.9 5.7v8zm.1-5.6c-.8-.3-1.9-.5-3.1-.5-2 0-3.1.8-3.1 2.1s1.1 2 2.6 2c2 0 3.5-1.1 3.5-2.9z"/><path fill="#e6e6e6" d="m663.3 441.1v2.1h-3.1v-18.7h3.1v7.4c1-1.4 2.4-2.5 4.5-2.5 3.2 0 6.3 2.5 6.3 7s-3.1 7-6.3 7c-2.2 0-3.6-1.1-4.5-2.3zm7.7-4.7c0-2.6-1.7-4.3-3.9-4.3s-3.9 1.7-3.9 4.4c0 2.6 1.8 4.3 3.9 4.3s3.9-1.7 3.9-4.4z"/><path fill="#e6e6e6" d="m675.3 441.4 1.4-2.1c1.4 1.1 3 1.7 4.4 1.7s2.1-.5 2.1-1.5-1.3-1.4-2.8-1.8c-.1 0-.2-.1-.2-.1-2-.6-4.2-1.4-4.2-4s2.1-4.1 4.8-4.1c1.7 0 3.5.6 5 1.5l-1.2 2.2c-1.3-.8-2.6-1.3-3.8-1.3s-1.9.5-1.9 1.4 1.3 1.4 2.8 1.8c.1 0 .2.1.2.1 2 .6 4.2 1.5 4.2 4 0 2.9-2.2 4.2-5 4.2-2 0-4.1-.7-5.8-2z"/></g>
</svg>
