<?xml version="1.0" encoding="utf-8"?>
<!-- Generator: Adobe Illustrator 23.0.1, SVG Export Plug-In . SVG Version: 6.00 Build 0)  -->
<svg version="1.2" baseProfile="tiny" id="Layer_1" xmlns="http://www.w3.org/2000/svg" xmlns:xlink="http://www.w3.org/1999/xlink"
	 x="0px" y="0px" viewBox="0 0 900 600" xml:space="preserve">
<g>
	<path d="M256.51,390.88l0.1-0.1C256.57,390.78,256.55,390.71,256.51,390.88z"/>
	<path d="M248.12,229.02c0.01,0.02,0.01,0.04,0.02,0.06C248.2,229.21,248.24,228.97,248.12,229.02z"/>
	<path d="M400.31,84.85c-149.65,0-143.06,1.26-141.45-3.16c1.19-0.43-6.92-0.1,136.87-0.1c2.94,0,4.6,0.03,4.38-1.73
		c-1.06-1.59,9.48-1.43-142.37-1.43c-5.52-3.07-1.43-2.18-3.57-4.79c-4.4-2.2-7.63-0.61-8.15-0.51c-1.94-1.29-1.78-1.55-6.52,1.83
		c-5.47-0.46-3.5,2.4-5.1,3.36c-5.91,0.41-40.97,0.2-41.78-0.2c-0.71-0.71-0.71-1.83-1.94-2.55c-1.73-0.2-3.16-1.32-4.28-2.24
		c-1.73-0.61-2.85,0.2-3.97,0.41c-2.04-2.04-3.97-1.83-5.91-0.31c-4.38-0.61-5.1,0-6.01,4.69c-3.7,1.35-125.88-2.36-126.67,1.22
		c0.47,3.26,3.65,0.1,80,1.22c53.05,0.78,44.9-0.31,44.43,2.04c-2.25,6.76-128.27-2.86-123.51,4.28c1.05,0.77-7.47,0.51,121.07,0.51
		c2.81,0,2.34,0.71,2.34,3.87c0,5.95,3.35,7.49,4.28,10.29c-2.25,7.21-1.49,13.75-2.45,17.43c-1.21,4.66-2.63,13.69-3.77,16.61
		c-6.29,16.1-0.1,35.64-0.1,44.23c0,2.96-0.51,5.91,0.2,8.97c-4.86,9.71-9.99,31.94-7.85,45.76c1.28,8.28-5.89,24.43,3.46,37.1
		c1.66,2.24,2.85,6.15,3.67,9.58c2.29,9.59,8.48,14.09,10.39,27.62c1.06,7.48,14.54,35.36,11.01,48.61
		c-0.56,2.8,0.54,14.81,0.82,17.63c0.68,6.93-1.53-0.06-1.53,8.66c0,0.2,0.31,0.51,0.41,0.71c1.12,0.51,1.63-0.61,2.45-0.82
		c1.03,1.29,1.44,2.16,2.14,1.63c0.4-2.8,0.42-1.59-0.38-3.97c6.23,0.45,13.45-0.48,14.57,0.65c-0.07,0.02-0.09,0.03-0.09,0.05
		c-1.86,0.63-0.91,2.38,0.67,1.85c-0.19-0.66-0.29-1.23-0.38-1.8c2.33,0.12,18.43-0.57,35.75,1.6c2.81,0.56,0.5,1.76,1.53,2.45
		c1.45-0.36,0.46-2.02,3.46-0.82c0.1-0.1,0.1-0.2,0.2-0.31c0.1,0.2,0.1,0.2-0.2,0.31c0.41,0.51,0.1,1.53,0.31,2.14
		c0.92-0.61,0.31-2.24,1.63-2.45c1.02,0.31,0.41,1.53,1.22,1.83c0.82-0.51,0.92-1.94,2.45-1.32c0.82,1.23-0.15,2.5,0.92,3.57
		c1.35-0.25,0.98-4.32,2.24,0.1c1.9,4.47,2.43-2.23,2.04-4.18c-4.53-6.8,1.92-56.93,2.14-58.39c4.84-32.79,10.88-31.49,12.03-42.5
		c2.96-8.65,3.77-19.25,4.69-23.85c-0.99,0.56-2.04,1.69-2.04,2.14c-2.11,10.45-9.12,35.54-9.27,35.77
		c-1.99,0.8-1.82,0.67-2.14,1.63c-6.7,29.03-10.73,52.81-8.46,82.34c0.53,3.68-0.72,1.15-4.18,0.71
		c-20.58-2.57-11.15,2.65-9.68-19.36c-6.8,25.37-0.12,15.61-21.5,16.61c-4.96,0.23-9.63-0.57-14.57-1.02
		c-7.02-0.63-10.46,0.32-14.17-0.92c0.46-3.02,0.07,2.69,0.51-20.08c0.11-5.7-5.8-30.61-11.11-43.31c-2.38-5.69-1.39-6.09-1.94-9.38
		c1.77-0.88,3.27-0.46,5.2-3.77c9.95-17.07,12.77-13.48,15.49-40.25c3.06-3.83,1-4.94,0.61-10.19c0.58-0.2,0.81,0.41,1.32,0.51
		c0.74,0.41,1.2-0.31,1.94-0.31c1.08,1.08,2.18,1.86,3.67,2.14c1.97,0.37,2.03,2.38,5.4,3.57c3.29,4.6,0.42,4.99,4.79,10.39
		c4.07,3.04,9.46-1.05,7.91-2.6c-0.45-0.45-2.62,1.87-4.75,1.78c-6.79-0.28-1.11-10.04-8.05-12.64c-3.42-1.28-1.25,0.34-5.71-3.67
		c-0.52-2.93-1.53-11.55-0.16-10.16c2.39,2.43,0.13,2.69,2.61,6.59c1.39,0.1,1.54-1.53,2.55-1.94c0.58,0.58,0.2,1.84,1.32,2.24
		c0.23-0.23,0.45-0.44,0.71-0.61c0.03-0.29-1.28-5.99,0.71-5.11c0.48,0.16,0.7,0.49,0.61,0.83c-0.38,1.43,0.31,2.75,0,4.18
		c0.82,0.82,2.16,0.7,2.75,1.83c0.31,0.59,1.44,0.15,1.53,0.34c0.74,1.71,1.96,0.01,2.85,0.79c2.34-1.87,3.65-4.73,6.32-4.18
		c1.12-0.16,1.69-0.9,2.65-1.22c0.69,0.09,0.91,1.12,1.83,1.02c1.94-0.65,1.93-6.94,2.65-1.22c0.29,2.27,0.37,3.64,1.12,4.99
		c-2.45,0.82-5.2,1.12-7.03,3.26c0.27,2.2,9.39-4.36,8.36-1.11c-11.58,6.3-13.46,16.21-11.11,13.86
		c1.07-1.45,9.25-13.03,11.82-11.31c-0.09,1.16-1.1,2.14-1.11,3.37l-0.01-0.01c0,0.47,1.78-1.77,2.45-1.95
		c1.38,2.75-3.41,16.9,4.89,23.64c11.85,24.62,18.66,23.66,16.41,21.4c-1.23-1.54-11.59-12.34-14.98-22.62
		c-0.84-2.56-1.31-1.28-1.83-0.41c-0.79-2.84-3.26-8.61-2.14-13.66c0.51-2.3-0.22-4.2,0.71-9.17c0.1-0.05,8.18-3.43,11.52-4.28
		c-3.74-1.25-7.31,0.29-10.6,1.73c-1.02-0.31-1.12-1.43-1.83-2.14c5.36-17.85,6.87-20.18,7.2-20.32c-2-6.87-4.62-21.17-4.14-26.56
		c1.47-16.68-6.71-30.98-5.61-42.39c-2.26-10.05,12.73-43.56,1.12-61.15c-3.26-4.94-2.62-10.02-2.13-10.76
		c0.86-1.07,4.44-0.27,7.94-0.55c0,1.18-0.65,1.51-1.25,2.08c-0.1,0.1-1.5,3.12,0.64,5.97c0.24-0.64,0.51-4.56,4.79-6.83
		c3.06-1.62,3.98-2.49,1.53-5.2c-0.1-0.82-0.1-1.83-0.2-2.75c-0.1-0.04-6.68-2.11-5.69-3.55c0.59-0.86,5.01,0.8,5.28,0.9
		c1.63,0.62,3.26,0.31,4.99,0.71c1.73,2.04,1.43,4.89,2.85,6.93c0.11,2.86-0.59,5.43-1.42,7.09c-4.92,9.89-2.24,16.66,0.6,35.51
		c2.31,15.28-2.24-1.06,7.24,41.58c-5.81,21.3,8.38,53.06,7.03,62.47c0.41-0.1,0.71-0.2,1.02-0.31c1.12,1.4,3.37,11,3.87,14.37
		c1.22,8.16-0.97,10.25-0.33,13.8c0.26,1.46,8.13-10.86-1.81-27.35c-3.86-6.4-0.47-8.3-2.75-17.63c-2.09-8.52-2.27-4.93-5.71-21.2
		c-3.24-15.37,4.17-11.83-1.12-38.01c-11.11-54.95-9.45-54.54-5.2-64c-0.2-1.53,0-2.85,0.51-4.28c2.03-1.01,138.06,0.48,140.64-0.71
		C401.43,86.17,401.12,85.35,400.31,84.85z M190.12,380.99c0.1,0.01,1.29,0.21-0.38,0.21C189.52,381.2,189.87,380.97,190.12,380.99z
		 M237.35,76.69c1.99-1.59,2.34,1.44,2.34,3.97C238.06,81.32,236.37,80.1,237.35,76.69z M186.4,80.16c0.51-1.22,1.02-2.45,1.53-3.67
		c0.92,0.31,1.83,0.2,2.45,1.12C190.37,85.31,186,80.96,186.4,80.16z M180.79,74.65c-0.49,0.33-1,0.42-1.83-0.31
		C179.87,73.63,180.38,73.84,180.79,74.65z M203.97,234.2c0.02-0.06,0.07-0.16,0.16-0.16C204.13,234.2,203.89,234.61,203.97,234.2z
		 M202.29,202.75c0-0.9,0.35-1.67,1.63-2.24C205.38,203.43,205.43,207.46,202.29,202.75z M200.66,217.74
		c-0.16-0.16-0.24-0.27,0.2-0.71C201.14,217.02,201.29,217.53,200.66,217.74z M200.87,228.22c0,0.1-1.23,0.11-2.14-1.11
		c0.2-4.33,0.18-9.81,1.02-5.61C200.06,222.29,200.89,228.13,200.87,228.22z M199.85,213.56c0.51-0.25,2.26-1.41,3.57,1.53
		C202.83,216.56,200.12,215.97,199.85,213.56z M204.64,209.48c1.12,0.2,1.12,0.2,1.43,0.92
		C205.35,210.5,204.94,210.09,204.64,209.48z M205.25,225.07c-0.21-0.43-0.31-0.71,0.09-1.02
		C205.57,224.39,205.62,224.8,205.25,225.07z M200.87,200.92c-0.53-3,4.29-6.04,5.61-7.13c0.3-0.3,0.6-0.32,0.92,0
		C205.47,196.09,205.87,194.41,200.87,200.92z M204.58,231.63c-0.13-0.41,0.11-2.39,0.98-4.01
		C206.55,231.02,205.1,233.27,204.58,231.63z M205.86,235.77c0.51-0.1,0.82-0.1,1.22-0.2C207.86,237.12,206.83,239.63,205.86,235.77
		z M207.08,239.85c0-0.2,0.41-0.2,0.41,0C207.25,240.1,207.08,239.96,207.08,239.85z M209.33,243.42c-1.02-1.51-1-1.56,0.71-2.96
		C210.55,241.68,209.94,242.4,209.33,243.42z M211.36,207.14c-0.68-0.88-0.82-1.47-0.82-2.24
		C211.57,205.51,211.67,206.12,211.36,207.14z M216.15,199.8c-0.41-1.02-0.41-1.02,1.32-1.63
		C216.66,199.09,216.46,199.49,216.15,199.8z M217.38,202.86c-0.47-0.37-0.43-0.79,0-1.12
		C217.79,202.14,217.79,202.45,217.38,202.86z M214.73,186.76c1.02,0.2,1.02,0.2,1.63,1.22
		C215.54,187.98,214.93,187.57,214.73,186.76z M215.13,210.78c-0.57-1.33,1.04-1.77,1.01-0.33
		C216.12,210.99,215.5,211.65,215.13,210.78z M216.87,212.33c-0.31,0.82-0.61,1.12-1.43,0.71
		C215.75,212.64,216.05,212.13,216.87,212.33z M216.15,217.12c-0.1,0.2-0.1,0.31-0.1,0.51
		C216.05,217.43,216.05,217.23,216.15,217.12z M215.85,244.44c-0.55-1.83,0.8-2.99,1.32-1.94
		C217.8,243.55,217.01,244.1,215.85,244.44z M216.46,219.98c0.52-1.74,1.59-1.84,1.48-1.27
		C217.82,219.29,217.36,219.78,216.46,219.98z M222.11,244.6c-1.37-0.8-0.75-1.88-0.75-2.1C223.66,243.66,222.3,244.79,222.11,244.6
		z M222.07,202.55c0.51,1.02,0.51,2.04,0.31,3.67C220.74,203.57,220.74,203.57,222.07,202.55z M223.29,237.71
		c0-0.18,0.41-0.18,0.41,0.71C223.7,238.99,223.29,240.84,223.29,237.71z M224.1,244.03c-0.21,0-0.27-0.67,0.2-0.2
		C224.21,243.93,224.1,244.03,224.1,244.03z M224.25,189.35c-1.16,0-1.75-0.1-1.47-1.78C224.66,187.41,226.63,189.35,224.25,189.35z
		 M226.41,202.91c-0.37-0.1-0.52-0.38-0.67-0.76C227.09,202.14,227.15,203.11,226.41,202.91z M231.54,242.19
		c-1.49-0.59-1.75-0.76-1.68-3.09c0.09-3.12-0.21-2.74,2.8-0.07C231.54,240.05,231.95,241.28,231.54,242.19z M230.64,209.09
		c-0.48,0.87-1.01,0.26,0.19-0.95C230.83,208.61,230.76,208.9,230.64,209.09z M230.73,212.74c0-1.41-0.04-1.22,0.1-1.22
		C230.83,212.93,230.87,212.74,230.73,212.74z M232.87,231.8c-1.7,0.24-1.3-2.79,0.1-4.48C233.28,228.86,232.98,230.35,232.87,231.8
		z M231.03,192.05c-1.32,0,2.27-0.44,3.36,2.65C232.15,193.79,232.15,193.79,231.03,192.05z M238.68,195.72
		c0.58,0.94,1.3,1.69,0.82,3.06C236.42,197.81,233.97,193.37,238.68,195.72z M240.82,217.43c0.62,2.48,0.61,4.57-1,6.48
		c-0.08,0.1-0.23,3.62-1.06,4.41c-0.89,0.85-0.74-1.46-0.1-2.67C241.21,220.81,238.41,221.03,240.82,217.43z M240.27,209.91
		c0.3,0.3,0.14,0.64,0.14,0.91C239.65,210.4,239.99,209.64,240.27,209.91z M240.48,210.89c0.22,0.09,0.26,0.09,0.33,0.32
		C241.46,213.57,240.68,211.14,240.48,210.89z M238.07,206.53c0.2-0.61,0.61-1.12,1.32-1.22
		C240.19,205.79,239.84,207.23,238.07,206.53z M236.84,234.86c-0.36-0.36-0.33-0.77-0.1-1.22
		C237.05,233.94,236.94,234.42,236.84,234.86z M244.18,221.2c3.31,13.76,5.55-0.57-2.96,19.46c-0.87,2.06-1.02,4.48-2.34,6.42
		c-6.53-1.45,1.44-8.63-1.02-16c0.2-1.02,1.02-1.02,1.73-1.73c1.49-4.28,4.21-9.72,2.34-13.45c-0.57-1.53,0.52-2.21,0.63-2.1
		C243.32,215.26,242.76,215.29,244.18,221.2z M238.27,99.52c12.07,18.11-10.18,61.07,2.24,81.73c1.9,3.17,1.52,4.67,2.24,12.94
		c0.64,7.32-1.02,10.95-1.02,2.85c-0.88-1.77-1.98-4-3.97-4.18c-2.01-0.18-11.5-7.26-14.39-7.13c-1.43,0.06-1.78,0.74-2.45,0.67
		c-5.56-0.55-5.51-4.61-7.93-4.85c-0.7,0-1.24,0.48-1.12,1.32c0,2,1.35,1.63-2.34,4.59c0,4.71-1.02,1.83-2.55,4.38
		c-1.18,0.17-2.26,0.03-2.55,0.61c-4.09,3.64-9.48,10.91-5.61,14.78c0.71,2.75-1.02,5.4-0.1,8.05c-1.43,2.34-1.54,4.89-1.43,7.44
		c0.31,6.94-1.44,5.35,3.97,7.85c2.5,20.73,2.89,16.84,2.24,18.14c-5.45-0.45-2.16-7.04-12.03-14.78c-3.44-2.7-2.98-1.03-1.53-9.38
		c1.19-6.83,5.52-38.31-0.2-41.89c2.03,22.37-2.69,46.84-3.16,47.18c-1.23,0-10.39-8.17,4.79,8.15c2.28,2.46,6.52,8.38,6.52,11.72
		c0,4.55,1.92,3.83-0.31,5.5c-2.04,15.1-3.78,23.09-3.96,22.97c-1.92-1.21-8.06-9.61-7.96-8.79c0.5,3.99,0.51,4.27,4.48,9.16
		c3.33,4.1,8.2-5.38-7.86,21c-5.66,9.3-3.24,0.74-9.89-10.6c-2.59-4.42-5.96-14.44-7.64-18.85c-1.96-5.14-2.4-2.63-3.36-6.01
		c-4.33-15.26,2.28-26.23-0.51-30.27c-0.21-0.21-0.48-10.89,0.51-15.9c7.16-36.45,11.1-22.68,8.15-34.96
		c-7.06-29.45-0.16-48.27,2.34-63.08c3.64-21.57,4.23-17.77-1.43-25.78c-0.46-16.09-0.25-8.97,5.2-17.53c1.53-0.94,1.25,0,6.83,0
		c3.56,0,4.45-0.56,2.14,3.67c-2.48,0.5-2.5,0.92-5.91,0.92c-2.14,1.32-1.53,3.57-2.34,5.5c10.38,10.38,1.73,1.02,6.32,1.02
		c2.95,0.8,2.15-0.95,7.64-0.31c1.65,14.05-4.42,8.58-5.71,29.35c-0.21,3.32,1.23,6.93,0.82,13.55c-0.59,9.3,1.64,19.4,2.14,22.52
		c3.84,24.08-1.36,27.88,2.55,29.96c0-5.67,0.07,1.39,1.02-14.68c0.56-9.47-2.48-11.94-2.85-19.06
		c-1.68-32.29-0.45-22.31-1.12-25.68c-1.16-5.81-0.16-13.48,1.12-19.26c2.12-3.12,4.08-7.28,3.77-10.7c0-4.48-0.34-6.11,1.93-6.11
		C254.42,87.3,228.07,84.23,238.27,99.52z M183.34,86.27c-0.6-1-0.31-2.29-0.31-3.16c0.48-0.97,1.94-1.06,1.94-0.51
		C185.27,84.69,186.02,86.6,183.34,86.27z M179.98,86.48c-1.12,0-1.73-0.51-2.14-1.02C177.46,82.07,182.89,82.47,179.98,86.48z
		 M187.01,84.44c0.51-1.12,1.73-0.2,2.14-0.82c8.14-2.71-16.38-2.55,45.25-2.55C240.47,85.12,254.79,84.44,187.01,84.44z
		 M250.4,85.15c-0.91,0.09-2.15,0.09-2.85-0.61C246.28,80.62,251.15,80.02,250.4,85.15z M246.14,82.04
		c0.11,3.36-0.77,3.21-1.88,3.16c-3.43-0.16-2.21-2.47-2.53-4.23c-0.22-2.38-1.71-6.91,3.25-7.14
		C241.11,78.67,246.05,79.39,246.14,82.04z M249.68,74.65c-1.06,0.76-2.28-0.28-1.64-0.77c0.63-0.49,1.19-0.39,1.74,0.16
		C249.68,74.25,249.68,74.45,249.68,74.65z M253.56,76.18c-1.86,0.44-2.5-0.59-1.83-1.44C252.61,73.61,254.19,73.85,253.56,76.18z"
		/>
	<path d="M854.93,84.03c-131.7,0-111.86-0.1-113.94-0.1c-5.84-3.9-7.36-3.16,22.83-3.16c95.62,0,90.06,0.31,90.8-0.61
		c0.2-2.6,11.08-2.52-121.99-2.14c-8.96,0.03-10.11-3.79-13.45-4.28c-1.2-0.17-11.51-4.56-15.8-4.48c-1.52,0.03-5.96-2.4-7.54-3.77
		c0.61-0.92,0.41-2.04,0.51-3.16c0.67-4.04,1.22-2.42,1.22-7.13c0-3.13,1.09-3.56,0.41-6.52c0.61-0.41,1.02-0.71,1.43-1.02
		c1.63-4.08,1.73-4.38,1.32-6.42c-1.25,1.99-1.15,6.69-2.75,5.1c0.31-1.73,1.22-3.26,1.83-4.38c0.71-2.34-0.92-4.48,1.22-6.22
		c0.1,1.32,0.31,2.55,0.51,4.08c2.09-4.17,0.79-4.54,0.41-6.62c1.23-4.91-0.99-9.72-0.61-17.22c-1.66-5.2-4.4-4.02-6.42-5.61
		c-2.8-2.19-6.32-3.26-9.17-5.4c-3.76-2.82-4.83,2.81-10.29-2.65c-1.12-1.12-2.4-3.24-3.57-1.83c-0.71,1.12,0.41,2.14-0.1,3.36
		c-0.71,0.71-1.63,1.53-2.14,2.04c-0.61,1.22,0,2.04-0.61,2.85c-1.97,0.36-0.94,2.04-4.38,2.04c-3.87,3.87-7.64,7.75-7.34,13.76
		c0.51,0.41,1.02,0.82,1.53,1.22c0,1.22,0.19,2.24-0.1,3.16c-0.54,1.72-0.31,3.36-0.2,5.1c-2.06,3.32-1.58,12.64-0.51,13.86
		c4.31,0,3.51,4.42,4.08,9.27c0.65,5.54,2.43,7.97-2.04,11.11c-3.75,2.63-5.96,1.54-17.73,3.67c-7.33,1.33-7.21,4.07-15.29,4.48
		c-2.44,0.13-4.79,0.71-6.93,1.94c-126.57,0-120.64-1.15-121.17,1.22c0.2,1.63,1.41,1.53,3.26,1.53
		c119.81,0,112.76-0.46,113.53,0.61c-3.53,4.54,9.3,2.85-111.9,2.85c-2.65,0-3.34-0.21-4.08,0.71c-1.2,2.11,1.82,2.03,3.36,2.04
		c72.26,0.34,108.33,0.17,108.43,0.2c0.25,0.87-3.01,6.58-2.85,13.35c0.35,14.79,2.32,13.69,1.43,18.24
		c-0.87,4.45-7.34,10.99-8.46,24.36c-0.62,7.46-3.69,5.61-2.75,11.11c1.01,5.91,2.35,10.82,7.03,12.94
		c2.63,1.19,2.31,2.64,4.48,6.83c2.31,4.44,13.72,9.24,15.08-0.31c9.46-8.78,10.29-10.78,10.29-21.3c2.65,4.59,4.28,9.48,6.22,14.47
		c-1.12,1.32,0.2,2.65,0,4.38c-0.82,1.63-0.51,3.77-1.02,5.71c0.31,0.82,1.32,1.02,1.32,1.94c-2,2-0.45,3.27,0.2,5.4
		c0.58,2.33-1.12,1.52-1.12,3.57c0.82,3.06,0.51,6.52,0.92,9.99c-0.92,0.41-1.73-0.61-2.65,0.31c-1.12,1.94-0.2,4.38-0.71,6.62
		c-3.06,1.94-4.69,4.18-4.69,6.62c5.45-4.77,4.08-4.69,5.91-3.46c0.51-0.2,0.51-1.02,1.22-1.02c0.61,0.31,0,1.53,1.02,1.63
		c0.71-5.13-1.46-5.93,0-6.22c1.96,1.96-0.39,0.22,1.63,7.64c2.77,1.62,4.77,1.31,5.1-2.65c0-1.29-1.92-1.43-1.53,1.53
		c0,0.51,0,0.82-0.82,0.61c0-1.92-0.59-4.95,1.12-4.38c7.86,1.49,23.43,5.1,30.47,5.4c0.61,0.71,0.61,1.63,1.32,2.04
		c0.46-0.69,1.64-3.26,3.06-1.83c0.2,0.51-0.31,1.32,0.41,1.73c0.82-0.2,0.71-1.12,1.22-1.53c0.41,0.31,0.31,1.12,1.22,1.12
		c0.31-0.61,0.51-1.32,0.82-2.04c2.24-0.31,4.49-1.06,6.62-0.82c2.35,0.26,4.48-0.92,6.52-0.71c1,0.7,0.48,3.84,1.83,1.12
		c1.21-3.03,2.15,1.19,2.85,1.73c2.04-0.61,4.18,0.2,6.22-0.61c-1.94-0.61-4.08,0.41-6.11-0.31c-0.68-2.71,0.79-2.43,1.43-2.75
		c0.71,0.31,0.92,0.82,1.32,0.61c0.71-0.41,0.71-1.53,1.83-1.53c0.92,0.71,0.82,2.65,2.65,2.24c0.51-1.22,0.61-2.55,0.2-3.77
		c1.94-2.9,1.9,3.06,2.04,3.46c0.41,0.61,1.02,0,1.53,0.31c4.59,3.87,6.42,7.64,6.01,12.53c-2.43-1.89-7.57-14.27-9.27-7.44
		c-0.82-0.51-1.02-1.83-2.24-1.02c0.2,1.22,0.71,2.34,1.43,3.36c3.13-2.44,1.29-5.32,6.52,2.85c2.96,4.63,4.75,3.8,5.61,7.24
		c0.79-5.99,0.37-13.45-4.38-17.22c-6.24-4.96-1.45,0.22-4.69-8.56c0-3.96-0.84-5.34-0.41-7.64c0.28-1.51-1.61-2.49-0.1-5.5
		c0.94-1.89,1.07-8.93,0.51-10.39c-0.24-0.48,1.16-1.98-1.22,0.41c-0.31,1.43,0,3.06-0.61,4.28c0.2,1.62,1.3,2.63,1.22,3.94
		c0,0.91-1.5,0.41-2.28,1.29c-0.27,0.27-1.67,4.62-0.26,8.01c0.6,1.45,0.35,1.53,0.91,7.21c0,3.21-23.84,5.94-29.34,5.94
		c-5.61,0.92-10.8-0.82-16.2-1.53c-1.12-1.45-4.78-6.01-6.62-6.03c-1.15-0.02,4.45,3.82,4.45,5.13c-0.61,0.31-14.69-0.78-19.33-4.49
		c-1.94-31.94-4.09-19.31,10.5-19.67c-7.98-2.13-9.44-1.7-12.94-5.2c-0.41-0.82,0.19-1.12,0.41-1.63c1.96-4.64-0.35-6.05-0.1-8.36
		c0.53-4.93-1.17-8.23-6.01-21.71c-4.55-12.65,2.86-1.37,7.75-25.68c9.78-48.7,1.74-46.71,8.56-45.45
		c2.27,2.77-1.46,7.34,10.39,19.77c9.6,10.07,25.56,1.47,25.66,1.47c15.66-6.66,18.03-21.01,18.47-21.1
		c2.01-0.42,2.81-0.31,5.82,0.47c0.41,1.22,0.22,2.55,0.31,3.87c2.25,33.2,6.39,34.48,9.78,46.67c0.4,1.43,1.12,2.65,2.04,3.87
		c-0.32,1.59-9.14,37.03-11.82,42.39c0.82,1.73,0.41,3.57,0.71,5.2c2.11-1.05,0.83-2.88,0.2-6.32c6.84-15.63,6.24-16.27,6.93-13.25
		c1.75,7.68,7.99,12.89,13.66,18.55c2.29,2.29,3.89,2.25,7.64,0.61c5.68-2.48,6.47-2.94,12.13-18.04c1.68-4.49,3.79-9.1,1.02-15.59
		c-3.54-8.29-2.13-10.88-4.79-16.92c-1.44-3.26-3.46-6.22-4.48-9.58c0.1-6.22,0.29-12.33-0.2-18.45
		c-0.63-7.78-3.87-10.04-3.87-11.01c22.07,1.08-6.31,0.2,55.13,0.2C849,86.78,860.4,87.94,854.93,84.03z M697.27,53.15
		c0-0.31,0-0.61,0-1.02C697.68,52.44,697.58,52.74,697.27,53.15z M700.84,28.18c0.41,0.41,0.2,0.92,0.31,1.32
		C702.55,30.91,699.91,29.11,700.84,28.18z M700.02,24.92c-0.31,0-0.61-0.1-0.92-0.1c-0.31,0.51-0.31,0.51-0.82,0.31
		c0.44-0.66,0.69,0.01,0.83-0.65C699.47,23.23,701.17,23.77,700.02,24.92z M697.78,13.51c0.51,0.2,1.02,0.41,1.43,0.51
		c1.13,1.88,1.26,2.01,0.7,3.46C696.67,15.32,695.97,12.9,697.78,13.51z M664.47,206.24C664.77,206.44,664.47,206.42,664.47,206.24
		L664.47,206.24z M645.6,205c0.37,0.18,0.02,0.61-0.31,0.61C645.09,205.3,645.09,205,645.6,205z M645.3,208.05
		c0.82,1.23-0.1,1.07-0.1,0.52C645.09,208.46,645.2,208.26,645.3,208.05z M644.28,105.94c-1-1-1.69,0.02-1.34,0.98
		c0.47,1.27,1.74,2.52,1.74,3.51c-1.38,6.49-5.2,28.32-9.89,23.64c-1.43-9.63,1.45-9.11-0.41-14.67c-0.21-0.63-4.1-16.42-6.93-17.83
		c-2,0.33,3.77,13.87,4.99,17.12c0,12.67-1.02,15.46,1.22,19.77c0,15.51,1.36,25.57-6.11,31.39c-1.37,1.06-4.33,3.96-4.99,6.62
		c-1.93,2.2-8.25,0.63-10.6-4.08c-1.27-2.55-2.1-5.09-5.2-7.24c-3.03-2.09-5.44-11.5-5.61-14.78c2.65-4.41,2.81-5.97,2.96-7.44
		c0.97-9.85,2.59-10.02,6.83-19.26c4.7-10.25-3.2-16.21,1.94-30.78c0.62-1.75,3.51-8.76,6.11-10.5c5.77-3.17,6.98-4.18,8.97-4.18
		c5.66,0,8.65-3.29,11.72-3.67c6.39-0.79,8.45-1.9,8.46,0.71C648.18,80.48,647.44,109.1,644.28,105.94z M694.93,13.1
		c-1.83-0.41-2.75-1.73-3.87-2.85C693.5,10.86,694.42,11.57,694.93,13.1z M693.5,50.3c-1.35,0.3-1.79-2.55,0.1-4.28
		C693.91,47.46,693.58,49.04,693.5,50.3z M690.85,27.06c0.37-0.73,1.36-0.26-0.03,0.96C690.69,28.15,690.38,27.54,690.85,27.06z
		 M691.56,30.12c0,0.03,0,0.07,0,0.1C691.56,33.07,691.06,30.12,691.56,30.12z M690.85,55.49c2.75,2.05,2.41,1.82,2.45,1.83
		c-1.33,3.33-0.71,2.85-1.32,3.46C690.21,59.35,690.27,59.27,690.85,55.49z M687.9,21.25c-0.61,0.31-1.02,0.2-1.43-0.92
		C687.18,20.74,687.69,20.74,687.9,21.25z M683.94,6.19c0.48-0.16,1.06,0.17,2.02,1.2C683.65,8.22,682.84,6.55,683.94,6.19z
		 M684.74,62.53c0-0.1-0.1-0.2-0.1-0.2C684.63,61.51,685.28,62.53,684.74,62.53z M684.02,58.25c-0.2-0.61-0.2-1.22-0.1-1.83
		C684.23,57.23,684.23,57.23,684.02,58.25z M681.78,21.97c0.18-0.91,1.75-2.1,1.43,2.75C681.98,23.7,681.68,22.88,681.78,21.97z
		 M683.11,63.14c-1.7-0.64-1.12-1.39-1.12-2.04C682.98,61.43,683.39,62.02,683.11,63.14z M676.07,29.71
		c-0.65-0.55-0.45-1.16-0.1-1.94C677.09,29,677.09,29,676.07,29.71z M677.7,16.97c0.1,0.71-0.71,0.82-1.22,1.63
		C676.48,17.65,676.35,16.43,677.7,16.97z M677.45,31.22c0,0.12-0.18,0.34-0.64,0.34C675.33,31.53,677.85,30.01,677.45,31.22z
		 M676.89,35.93c-0.26,0.13-0.2,0.13-0.2,0C676.69,35.8,676.63,35.8,676.89,35.93z M678.01,61.7c0,0.92-1.02,0.71-1.12,1.53
		C675.25,61.59,678.01,59.29,678.01,61.7z M677.3,38.48c0-1.22,0-1.22,1.43-1.32C678.52,37.86,678.11,38.48,677.3,38.48z
		 M678.01,20.03c0.97,0.65-0.33,1.79-0.21,0.67C677.82,20.5,677.91,20.27,678.01,20.03z M677.7,6.68c-1.32-0.2-2.04-0.51-2.34-1.63
		C676.38,5.15,676.89,5.86,677.7,6.68z M671.59,23.8c0.88,0.19,0.72,0.78,0.51,1.63C671.63,24.86,671.17,24.41,671.59,23.8z
		 M669.45,60.08c0.52-1.31,1.53-1.19,1.53-0.31C670.49,63.17,668.75,61.47,669.45,60.08z M668.02,58.65c-0.27-0.27-0.33-0.49,0-0.71
		C668.33,58.1,668.25,58.2,668.02,58.65z M662.93,21.25c1.01-3.69,2.55-2.38,2.55,2.04C664.05,23.09,663.74,21.97,662.93,21.25z
		 M664.73,52.61c-0.09,0.17-0.05,0.18-0.17-0.07C664.8,52.54,664.78,52.51,664.73,52.61z M665.57,28.27
		c0.02,0.05,0.14-0.05,0.52-0.08c0.43-0.03,0.91,0.57,0.22,0.63C665.96,28.85,665.78,28.57,665.57,28.27z M666.15,43.41
		c-0.27,0.76-0.73-0.49-0.06-0.65C666.16,42.97,666.23,43.19,666.15,43.41z M665.59,28.12c-0.01,0.07-0.02,0.11-0.02,0.14
		c-0.09-0.13-0.18-0.27-0.3-0.38C665.65,27.73,665.64,27.84,665.59,28.12z M666.09,46.02c1.49,4.72-0.92,5.34-0.92,3.97
		C665.17,48.77,665.58,47.65,666.09,46.02z M667.72,54.37c0.24-0.48,0.2-0.26,0.2-0.1c-0.56,0,0.77,1.08-0.51,2.04
		C665.95,55.37,666.55,53.21,667.72,54.37z M668.02,22.27c-0.13,0-0.13,0.06,0-0.2C668.15,22.33,668.16,22.27,668.02,22.27z
		 M668.01,12.18c-0.05,0.86-1.03,0.61-0.91,0.61C666.96,11.91,668.01,11.97,668.01,12.18z M666.07,13.55
		c0.65-0.2,0.01-0.68,0.94-0.74c0,0.53-0.23,0.7-0.61,0.7C666.39,14.72,665.16,13.83,666.07,13.55z M665.72,14.2
		c-1.31,1.71-2.72,3.52-4.32,5.52C662.06,17.43,663.47,13.45,665.72,14.2z M659.67,38.38c0-0.1,0.12,0.18,0.32,0.52
		c1.42,2.51,0.66,5.11,1.82,7.61C658.52,47.74,659.67,43.29,659.67,38.38z M661.31,36.05c0.05-0.54,0.57,0.07,0.13,0.16
		C661.24,36.31,661.31,36.15,661.31,36.05z M660.69,32.16c0.33-0.98,2.08-1.27,3.36,1.73C662.51,34.66,661.32,33.79,660.69,32.16z
		 M704.81,74.86c-2.93,9.3-7.88,12.8-15.82,20.41c-7.69,1.57-5.95,3.11-7.52-5.53c-1.88-0.31-1.8,4.52-1.53,6.43
		c-20.85,3.15-28.41-23.06-22.93-24.15c6.62-1.72,6.45-6.27,8.66-5.61c0-2.75,0-5.4,0-8.36c3.07,2.56,0.46,3.6,2.96,7.03
		c1.43,0.31,1.63-1.22,2.65-1.94c0.59,0.59,0.43,3.34,2.14,1.63c-0.1-0.61-1.66-5.62,0.92-4.88c0.42,1.27,0.21,2.91,0.25,4.26
		c0.06,2.11,1.91,0.92,2.6,2.68c0.4,1.02,1.73,1.02,2.34,1.63c0.82-0.51,1.43-1.22,2.14-0.41c1.94-1.53,3.06-3.67,5.3-4.59
		c1.5,0.5,0.97,0.73,3.77-1.02c0.71,0.1,0.92,1.12,1.94,1.02c1.43-0.51,0.92-2.45,1.94-3.46c0.2,0.41,0-0.41,0.31-0.1
		c0,5.14,1.46,3.74-1.11,5.03c-1.1,0.56,4.68,5.27,4.78,5.36C702.13,73.53,705.96,71.87,704.81,74.86z M744.35,94.22
		c3.31,11.24,0.18,11.25-0.71,16.31c0.82,0.41,1.12-0.41,1.63-0.41c1.33,2.65-2.29-3.25,5.61,17.63c2.18,5.76,0.45,8.51,3.36,14.57
		c1.23,2.55,2.11,5.57,1.53,8.36c-1.49,7.21-0.69,6.44-2.55,10.29c-4.34,9.03-4.13,10.22-6.66,12.11c-2.57,1.91-7.17,2.88-9.23,0.33
		c-4.17-5.17-4.28-3.66-10.8-12.23c-2.78-3.65-1.74-5.57-3.67-8.05c1.72-7.62,1.72-6.17,3.59-18.01c0.34-2.14,1.63,3.78,3.48,4.9
		c1.84,1.12-1.97-4.23-1.97-7.58c-0.31-0.92-1.12-0.92-1.12-1.63c0.33-4.64,1.8-3.03,2.24-6.42c1.83-14.19,0.33-13.18,2.69-13.69
		c0.29-0.04,1.65-1.37,2.2-3.22c0.1-0.2-0.1-0.61-0.1-0.92c-1.56,0.09-2.09,1.85-3.46,2.04c-0.47-0.95,1.32-16.72-3.97,16.61
		c0,2.54-9.94-18.32-10.19-40.76c-0.01-0.47,3.58-1.2,5.61-3.36c-4.32,0-6.12,3.18-5.62-3.14c0-0.78,1.55-0.01,1.9-0.06
		c0.44-0.07,0.79-0.44,0.05-1.18c-0.56-0.45-2.15-0.53-1.72-1.66c0.28-0.74,2.02-0.24,2.84,0.23
		C732.04,82.54,741.01,82.85,744.35,94.22z"/>
	<path d="M274.24,495.64c-6.61,1.65-5.13,4.26-11.52,2.96c-4.15-0.85-16.05,1.01-26.6-1.22c-2.4-1.8,0.47,0.12-8.56-0.92
		c1.68-5.78,3.43-14.36,7.34-18.65c5.05-5.54,5.29-25.77,2.34-31.18c0,2.98,1.78,13.43-1.02,25.48c-1.08,4.66-6.47,7.29-9.17,21.6
		c-0.23,1.22-0.41,2.45-1.22,3.67c-1.9,0-5.93,2.56-4.79-1.43c5.68-15.16-2.34-28.72-2.96-34.04c-2.4-1.2-4.06,6.38-3.67,8.97
		c-4.15,6.8-3.97,13.64-6.32,20.38c-2.44,6.99-0.32,7.9-1.83,8.15c-1.83-0.41-0.92-3.26-2.96-3.57c-1.72,2.58,2.69,6.73,4.08,10.9
		c2.67,8.04,0.69,11.62,2.85,11.62c0.3,2.68-1.21,2.24-1.73,2.24c-1.59,5.56,2.56,7.31-6.22,11.21c0.44,1.98-3.42,3.79,1.02,6.01
		c-2.23,11.17-1.73,8.96-1.73,19.06c-1.73,1.97-1.92,3.83-3.87,6.32c-1.54,1.97-6.96,7.81-8.66,8.66
		c-11.64-5.82-13.2-12.76-13.35-26.9c-0.11-10.73,7.81-16.63,6.62-20.18c-0.1-0.41-0.92-0.71-1.02-1.43c0-1.94,0.92-3.87,0.31-6.01
		c-4.67-7-4.22-5.95-4.69-8.56c-0.35-1.93-0.31-3.97-1.12-5.91c4.23-13.29,4.13-10.25,8.56-14.68c5.68-2.21,4.37-3.83,15.08,3.67
		c-0.2,4.59,1.53,8.76,2.14,13.45c-0.92,1.73-0.82,3.77,0,6.62c0.78-7.03,2.04-5.09,1.43-8.15c-1.73-8.67-2.07-9.07-1.43-10.5
		c1.78,0.97,3.51,2.61,4.08-1.83c0.08-0.65-1.62-26.99-2.34-28.43c-3.28-3.28,1.22,14.53,1.22,26.5c0,6.67,0.35,1.45-15.08-6.11
		c-12.78,4.09-8.56,10.9-16.41,7.54c0.32-6.95-2.39-15.14-1.63-26.7c0.62-9.43,2.51-12.62,2.23-14.26
		c-6.92,6.92-1.22,38.34-2.54,40.65c-7.94-2.06-9.02-0.45-8.56-5.4c1.21-12.91,3.05-14.32,1.94-21.5
		c-1.78-11.55,5.12-13.67,8.15-33.02c0.74-4.68,1.63-9.27,0.41-14.06c2.34-6.73,4.38-13.66,6.01-20.69
		c2.92-0.97-0.39,1.22,7.03-7.95c2.45-1.94,4.79-0.1,7.13-0.92c-5.06-0.36-6.56-1.84-7.24-2.14c-2.09,0.64-0.09,2.14-3.06,2.14
		c-2.34,2.24-4.59,4.48-6.52,7.13c1.23,2.87,0.66,1.02-2.34,11.52c-5.47,19.14,1.54,12.53-11.21,47.59
		c-2.61,7.17,0.97,17.18-1.02,23.24c-1.24,3.77-1.53,7.64-1.53,11.52c0,6.2,2.4,1.58,2.55,8.56c0.68,31.31,2.88,3.47,1.73-4.59
		c1.72-0.29,1.93,0.27,6.11,0.71c2.03,0.21,4.59-0.01,5.91,1.02c-2.09,5.22-1.54,8.49-1.73,12.64c-1.84,1.1-9.62,3.3-7.64,4.99
		c12.64-4.21,4.23-3.22,10.09,3.67c3.42,4.02,2.33,2.83,1.63,12.84c-0.1,1.43-0.61,2.55-1.83,3.57c-6.48-4.94-10.6-1.85-11.01-14.06
		c-0.18-1.79-0.23-4.32-1.94-3.57c2.02,19.78,2.71,12.32,12.64,19.06c-2.33,7.78-3.61,11.03-2.96,16.1c0.41,3.22,0.4,6.41,0.71,7.64
		c2.26,8.78,7.67,15.33,11.11,15.59c2.76,0.21,3.41,2.44,5.81,0.41c14.88-12.63,10.6-16.87,11.82-20.38
		c10.89-1.21,4.88,22.24,7.75,31.29c2.72,8.59,2.19,12.65,8.46,16.41c2.67,0,2.75-0.17,6.52-1.43c7.08-2.36,4.34-3.46,9.68-12.23
		c8.13-13.34,6.48-28.58,0.82-34.24c-1.55-1.55-1.61-0.22,0.31-8.25c13.13-5.43-1.88-12.78,16-8.46c-0.2,0.2-0.31,0.51-0.41,0.92
		c11.33,2.1,13.76-10.62,16.82-21.81c1.33-4,0-3.74,0.51-6.83c1.12-4.93,1.37-7.84,2.14-8.76
		C272.16,498.69,280.5,497.21,274.24,495.64z M183.14,388.94c0.33,0.21,0.27,0.27-0.06,0.36
		C182.97,389.3,183.14,389.31,183.14,388.94z M182.91,389.45c-0.11,0.38-0.15,0.3-0.23,0.39
		C182.15,390.24,182.27,389.38,182.91,389.45z M181.77,390.09c0.51-0.4,0.57,0.4,0.09,0.5
		C181.26,390.71,181.65,390.18,181.77,390.09z M227.77,501.96c0,0.13,0.06,0.13-0.2,0H227.77z M223.83,501.01
		c-0.01-0.05-0.03-0.13-0.03-0.27C224,500.74,223.96,500.87,223.83,501.01z M207,500.46c0-0.1,0.66-0.19,1.36-0.51
		c3.03-1.41-0.49-1.52,1.78-6.04c2.46-4.9,2.23-7.72,4.79-22.32c2.96-2.29,2.1-12.77,5.3,8.05c2.21,10.17-5.49,22.53,1.02,21.6
		c1.84-0.45,2.4-0.27,2.55-0.21c0,0,0,0,0,0c0,1.34,1.03,1.46,1.59,1.42c-0.03,0.01-0.05,0.01-0.08,0.02
		c-3.99,1.1-9.99,1.94-13.33,0.19C209.49,501.38,207.5,501.87,207,500.46z M240.31,538.45c-4.43,6.65-5.46-1.08-6.42,11.82
		c0,0.34,1.66,1.22,3.06,7.03c3.06,12.72,2.7,11.31-0.2,19.06c-10.21,23.07-5.8,17.79-16.1,21.91c-11.38-6.18-7.47-39.04-9.48-41.99
		c-0.7-1.03-0.2-2.24-0.71-3.36c-6.46-5.44-8.9,1.48-6.22-13.15c0.53-2.9-3.8-6.68,6.42-10.3c0.11-0.14,7.12-11.02,6.16-7.31
		c0,0.16-0.29,0.54-0.14,0.88c3.96-1.65,2.89-9.48,16.48-9.48C236.32,519.91,245.19,515.01,240.31,538.45z M268.84,502.37
		c-5.58,24.03-4.1,34.62-20.38,29.86c-4.04-1.18-5.3,0.66-5.3-2.75c-0.28-5.41,0.93-9.23-3.46-12.23
		c-9.3-6.33-14.82-8.27-22.32,2.64c-2.1,0-0.64-0.83-4.48,2.24c-0.38,0.52-0.68,0.87-1.32,0.71c0.28,1.11-0.29,1.7-0.92,2.55
		c-0.97-0.49-1.02-1.16-0.84-1.84c0.05-0.15-0.12-0.04,0.63-0.3c2.16-0.74,0.99-4.31,2.85-10.6c-1.22-2.24-1.63-4.99-3.87-6.73
		c0.21-0.53,0.23-1.09,0.82-1.53c0.1,0,9.77,3.78,17.43-1.12c1.5-0.96,16.42-2.75,18.34-2.75c8.89,0,12.76,9.66,14.79,8.8
		c2.45-1.04-5.29-6.42-8-8.15c-0.21-0.1,5.1-1.36,10.33-0.55C269,501.53,269.4,499.05,268.84,502.37z"/>
	<path d="M222.31,516.89c-0.01,0.01-0.03,0.03-0.04,0.05C222.37,516.84,222.41,516.79,222.31,516.89z"/>
	<path d="M733.14,289.99c-4.48,0.34-4.03,7.77-15.29,7.13c-2.36-0.13-11.32,0.39-14.06,2.45c-1.17,0.88-1.44,0.72-12.43,2.14
		c-0.85,0-2.97,0.51-1.63-1.32c7.99-10.92,0.55-20.09,1.22-25.89c0-0.99-1.02-1.42-1.02,0c-0.79,6.6,3.92,10.9,0.51,20.69
		c-1.29,5.18-4.29-11.89-17.12-26.19c-2.84-0.81-8.95,10.97-11.01,12.03c-3.91,2.01-4.5,6.05-4.5,5.65c0.36-1.9,4.5-13.3,3.49-15.84
		c-6.54,25.43-5.59,19.68-5.1,23.13c-2.11,5.43-2.84,8.29-6.62,10.09c-5.07,3.04-10.1,2.74-15.39-2.55
		c-3.87-3.26-7.24-6.93-8.46-11.92c-8.63-7.61-13.32-2.32-10.19-11.21c2.91-8.29,1.37-15.4,2.14-19.77c0-1.81-2.65-1.52-2.75,6.83
		c-0.12,9.88-1.88,11.24-2.34,14.06c-1.14,6.99,1.23,1.04,2.75,17.83c0.9,9.9,5.96,11.78,6.83,15.18c1.1,4.29,3.08,8.14,5.2,11.92
		c5.18,9.28,3.11-0.51,5.81,10.29c-1.68,5.88,1.8,6.93,4.79,13.25c-2.17,5.42-1.17,7-2.55,10.09c-5.98,13.44-4.31,12.99-4.79,24.15
		c-0.41,9.67,8.4,16.87,13.96,17.63c5.82-1.03,4.14-0.48,13.96-19.46c0.6,0.3,4.21,8.4,5.91,25.38c-1.13,2.26-0.25,5.28-0.2,8.05
		c0.11,6.47,7.66,11.44,4.79,5.71c-1.43-0.71-2.85-1.94-2.85-3.67c0-2.85-1.53-5.71-0.1-8.56c0.27-0.55-0.46-4.96-0.61-8.25
		c-0.39-8.32-1.41-5.69-6.22-23.85c1.94-4.48,3.35-8.98,5.61-13.25c0.81-1.53,1.73-2.96,1.53-4.48c1.32-2.55,3.77-3.97,4.48-6.62
		c-0.79-0.98-4.8-3.03-0.92-4.59c12.45,4.15,17-1.11,22.32,3.46c2.63,2.26,2.65,2.2,2.65,3.57c0,17.92-8.09,20.83-8.76,22.52
		c2.37,4.75-2.06,5.69,2.55,12.03c0.92,3.7-0.88,7.89-1.02,11.41c-0.16,3.97-1.54,7.33-3.46,10.7c-4.11,7.22-2.42,5.43-9.07,10.8
		c-2.7,2.18-2.78,0.97-3.16,1.73c0.48,0.72,0.82,1.57,2.65,0.2c16.4-12.23,14.57-22.35,15.18-26.6c0.78-5.35,1.68-5.81-0.1-9.38
		c-2.7-4.32-1.32,0.16-1.32-10.39c2.59-3.89,4.15,0.54,8.05-17.43c1.49-6.86-3.01-13.8-10.29-13.25
		c-8.27,0.62-14.27,1.18-17.22-1.53c1.94-0.31,3.56-0.92,4.69-2.45c0.54-0.73,5.01-2.45,8.46-4.38c8.02-4.48,14.67-4.34,25.17-10.6
		c2.81-1.67,3.3-0.25,5.61-2.55c3.15-2.83,3.69-4.39,6.32-5.3c11.02-3.8,5.79-8.12,10.39-9.27c1.61-3.07,3.04-11.66,1.94-15.8
		C732.23,292.44,733.76,291.72,733.14,289.99z M659.67,290.7c4.55-13.32-2.67,2.49,12.13-18.04c0.3-0.41,0.61-0.92,0.92-1.32
		c3.97,3.06,11.72,19.97,15.49,27.82c-2.23,4.35-0.71,1.58-0.71,5.8c-5.42,9.83-14.74,14.13-23.45,19.57
		c-12.76-1.96-5.41-1.55-8.15-8.97c-1.21-3.29-1.09-5.69-3.67-8.87C648.41,302.89,654.07,307.1,659.67,290.7z M632.04,326.47
		c-1.38,6.89-8.65-15.1-10.9-17.63c-4.76-4.76-5.92-16.03-5.71-22.22c2.06,0,3.25,1.36,7.64,3.87c0.14,0.36,1.22,3.28,1.22,3.38
		c0.05,0.68-1.77,2.43-0.97,2.43c0.96,0.17,1.93-0.46,2.5,0.1c1.78,2.63,9.33,10.76,16.82,11.62c1.46,0.17,2.63-0.23,5.91-1.32
		c1.99,0.66,6.09,8.89,5.2,10.8c-1.11,2.37,5.44,7.19-5.91,3.06C640.9,318.04,633.86,319.36,632.04,326.47z M659.77,366.52
		c-8.54,21.34,1.93,1.14-9.27,24.56c-0.92,1.93-1.73,3.87-2.65,6.01c-9.67,2.59-1.94-2.94-0.51-7.24c0.31-0.71-0.31-1.22-0.2-2.04
		c0.77-2.32,3.43-7.03,2.04-14.47c-1.03-5.53-5.58-16.56-4.48-10.09c6.07,13.94,1.04,23.42,1.43,26.7
		c-1.43,2.24-3.26,4.08-4.38,6.32c-4.97-0.87-9.16-6.31-9.38-11.31c-1.31-30.76,5.13-21.5,5.3-31.9c0.01-0.71,0.41-1.53,0.61-2.14
		c0.51-0.1,0.82-0.1,1.22-0.2c-1.55-12.13-7.64-6.35-5.71-22.73c0.44-3.71,2.54-6.54,6.52-6.93c7.56-0.73,7.36,3.37,21.6,4.79
		c1.44,0,0.16,1.13-1.73,11.62c-0.44,2.44,1.18,6.03,2.45,8.15c1.55,2.58,1.59,5.63,1.83,9.58
		C661.34,359.49,658.77,362.4,659.77,366.52z M663.05,341.71c-1.84-2.86-0.68-3.51,0.39-13.39c6.37,5.18,1.64,13.41,3.57,17.52
		C665.79,347.05,665.98,346.26,663.05,341.71z M665.78,349.61c1.5,0.55,2.41,1.82,2.29,1.88
		C663.8,355.32,665.78,354.76,665.78,349.61z M729.68,299.47c-2.71,1.25-1.5,8.51-6.42,15.9c-18.99,8.76-13.23,9.8-29.96,15.18
		c-16.41,5.28-19.78,9.84-23.36,11.57c-2.89,1.4-0.53-2.12-0.8-4.74c2.18-2.49,3.03-2.7,0.2-2.34c-1.12-1.32-0.84-3.24-1.83-4.59
		c-0.07-0.1-2.9-4.06-2.8-4.11c18.94-11.49,17.03-12.38,20.74-14.24c5.97-14.07,13.9-6.99,19.67-11.31
		c4.4-3.77,18.17,0.63,23.85-5.2C730.3,294.22,729.76,298.21,729.68,299.47z"/>
	<path d="M262.63,395.47c-0.28-2.1-2.66-5.23-5.5-4.79c-0.52,2.07,3.86,2.11,3.36,7.64c-0.18,2-0.11,10.12,2.04,17.22
		c2.15,7.09,0.01,9.61,1.53,19.77c2.63,17.64,0.74,16.24,2.24,20.59c0.61,1.76,0.97,3.53,0.83,5.38c-0.9-1.11-0.72-2.58-1.34-3.85
		c-2.37-4.93-0.55-6.42-3.67-14.57c-4.47-11.66-4.12-19.31-4.69-20.59c-1.18,16.72,10.57,37.31,12.43,58.8
		c1.28,14.73,6.89,18,4.38,9.48c-2.22-7.56-9.1-61.24-8.05-65.43c3.36,5.59-1.26-4.75-0.71-9.78
		C262.38,411.2,263.31,400.64,262.63,395.47z M267.52,462.32c0.11,0.3-0.17,0.92-0.26-0.45
		C267.25,461.67,267.48,462.22,267.52,462.32z"/>
	<path d="M729.58,255.65c-2.22-7.62,3.07-8.04-0.41-15.69c-4.1-9.02-2.75-10.56-4.99-11.01c2.78,13.89,5.47,14.5,3.57,18.55
		c-1.83,3.91-0.62,7.2,1.53,11.41c1.2,2.35,1.22,5.1,1.94,8.05c-3.79-3.31-6.76-8.35-8.66-9.38c-0.54,1.88,8.98,10.79,9.58,13.04
		c2.89,10.88,1.75,21.47,4.38,20.48c1.78-8.9-4.76-27.45-5.4-33.32C731.11,255.96,730.04,255.88,729.58,255.65z"/>
	<path d="M622.06,246.27c0.08,3.25-1.46,4.77-4.38,9.07c-0.83,1.21,0.57,1.28,1.32,0.31c2.52-3.25,11.81-14.48,10.6-15.69
		c-3.82,4.41-6.32,8.19-3.87,1.83c-1.98-6.15,4.17-11.98,5.71-16.41c5.11-14.76,1.52-11.69,0.82-8.87
		c-2.16,11.41-10.25,10.43-7.95,24.25C623.04,241.65,621.98,242.87,622.06,246.27z"/>
	<path d="M665.99,211.21c-0.41,0.51-0.1,1.02,0.1,1.53c0.2,0.41-0.2,1.12,0.92,1.53c7.01,0,8.25,1.03,17.12,1.22
		c7.31,0.16,2.67-1,5.61,12.94c2.21,10.51,1.56-0.77,0.71-10.39c-0.52-5.88-2.32-1.35-23.24-4.59
		C666.9,211.42,666.9,211.42,665.99,211.21z"/>
	<path d="M675.16,357.15c-0.17,1.03-0.44,5.56,0.61,5.3c0.82-0.61,0.12-1.82,0.61-2.65C688.61,339.35,676.25,356.32,675.16,357.15z"
		/>
	<path d="M633.37,269.51c2.15-2.15-4.04,2.28-12.43,4.99C611.57,276.84,620.83,277.69,633.37,269.51z"/>
	<path d="M671.49,419.52c-1.51-8.46-2.02-11.63-2.05-13.49C669.14,411.15,669.57,420.48,671.49,419.52z"/>
	<path d="M669.44,406.02c0.05-0.92,0.13-1.69,0.23-2.26C669.52,404.51,669.42,405.11,669.44,406.02z"/>
	<path d="M669.67,403.76c0.03-0.14,0.06-0.29,0.09-0.45C669.72,403.44,669.69,403.6,669.67,403.76z"/>
	<path d="M197,389.86c2.47,1.95,1.81,1.25,3.46,5.91c0.9,2.54,1-2.36-0.71-5.4C198.79,388.68,197.53,387.98,197,389.86z"/>
	<path d="M651.92,211.93c-2.04,2.04-2.45,4.79-2.55,7.54C653.59,211.74,653.44,212.68,651.92,211.93z"/>
	<path d="M706.34,220.79c-0.25-5.05-0.29-7.13-1.53-7.13c-0.63,0.5-0.66,0.79,0.41,6.11C705.32,220.28,705.42,220.89,706.34,220.79z
		"/>
	<path d="M641.32,213.56c-1.53,1.12-2.65,2.75-3.67,4.48C641.14,217.25,644.51,212.5,641.32,213.56z"/>
	<path d="M242.55,390.47c2.45,0,4.59,0,7.44,0C247.94,388.97,244.77,389.29,242.55,390.47z"/>
	<path d="M670.77,395.67c3.95-6.06,4.14-5.48,4.89-7.75C674.32,388.6,669.95,394.85,670.77,395.67z"/>
	<path d="M239.9,431.44c-0.51,2.34-0.71,4.69-0.61,7.75C240.12,437.07,241.59,432,239.9,431.44z"/>
	<path d="M201.89,521.33c-0.46,2.21-1.01,8.8,0.41,10.39C202.29,521.56,203.29,520.63,201.89,521.33z"/>
	<path d="M180.18,416.26c-0.01,0.51,0.71,4.87,0.71-7.54C180.39,410.21,180.39,406.83,180.18,416.26z"/>
	<path d="M661.81,215.49c1.96-0.49,0.83-2.4,0-5.71C661.81,211.72,661.81,213.56,661.81,215.49z"/>
	<path d="M195.47,382.63c-0.71,2.04-0.71,2.04,1.32,3.06C197.45,384.36,196.87,381.93,195.47,382.63z"/>
	<path d="M675.46,267.88c1.73-1.12,3.36-2.14,3.57-4.38C676.28,265.84,675.77,266.45,675.46,267.88z"/>
	<path d="M681.07,252.28c0,9.79-0.97,5.89-0.54,8.5C681.1,260.31,682.37,256.02,681.07,252.28z"/>
	<path d="M651.11,207.65c-0.92,1.02-0.82,2.14,0.31,3.36C652.06,208.64,652.57,207.65,651.11,207.65z"/>
	<path d="M222.98,454.78c-1.12,1.32-1.73,2.85-1.73,4.69C221.66,457.84,223.19,456.61,222.98,454.78z"/>
	<path d="M679.95,229.56c-0.41,1.73-0.31,3.46,0.1,5.1C680.35,232.92,680.46,231.19,679.95,229.56z"/>
	<path d="M181,408.82c-0.05-0.34,0.03-0.2-0.1-0.1L181,408.82z"/>
	<path d="M181.61,402.7c-0.1,0.31-0.41,0.51-0.51,0.82C180.57,412.69,181.61,407.53,181.61,402.7z"/>
	<path d="M654.78,209.18c-1.63,1.43-1.63,1.73-0.61,3.67C654.27,211.62,655.08,210.81,654.78,209.18z"/>
	<path d="M678.11,378.04c-0.2,1.02-1.02,1.73-1.02,2.75C678.68,382.37,679.52,378.04,678.11,378.04z"/>
	<path d="M193.02,382.01c-1.68,0.21-0.77,2.34,1.12,2.34C194.14,383.34,193.94,382.42,193.02,382.01z"/>
	<path d="M238.27,385.89c0.71-0.71,1.73,0,2.75-0.41C239.29,384.46,239.29,384.46,238.27,385.89z"/>
	<path d="M199.95,382.32c-1.73,0-0.68,1.85,0.31,3.26C200.05,384.05,200.97,383.14,199.95,382.32z"/>
	<path d="M618.97,259.51c1.63-0.06,2.72-0.94,3.9-1.93C621.29,257.58,619.9,257.98,618.97,259.51z"/>
	<path d="M659.67,256.26c0.19,1.28,0.78,2.37,2.03,3.18C661.64,258.01,660.94,256.94,659.67,256.26z"/>
	<path d="M661.6,259.61c0.14,0,0.26-0.05,0.09-0.17C661.69,259.54,661.71,259.5,661.6,259.61z"/>
	<path d="M691.46,260.23c0.71-0.71,1.02-1.22,0.61-2.24C689.5,261.43,690.55,259.77,691.46,260.23z"/>
	<path d="M181.71,399.34c0,1.12,0,2.34,0,3.46C182.22,401.58,182.32,400.46,181.71,399.34z"/>
	<path d="M669.25,210.81c-0.92,0.1-1.02,0.61-0.51,1.53C669.65,211.93,669.86,211.52,669.25,210.81z"/>
	<path d="M258.24,420.23c0.37-1.87,0.47-2.12-0.31-2.04C258.14,418.8,257.63,419.42,258.24,420.23z"/>
	<path d="M664.86,220.39c0.79-1.31-0.86-2.02-1.12-0.71C663.95,220.18,664.05,220.69,664.86,220.39z"/>
	<path d="M675.97,371.93c0,0,0.61-0.71,0-1.22C675.97,371.31,675.97,371.93,675.97,371.93z"/>
	<path d="M223.7,389.15c0.41,0.2,0.82,0.51,1.73,0.31C224.21,388.74,224.21,388.74,223.7,389.15z"/>
	<path d="M218.6,383.34c-0.51,0.41-0.71,0.82-0.41,1.53C218.8,384.36,219.31,383.95,218.6,383.34z"/>
	<path d="M247.44,399.03c0.41,0.51,0.1,1.43,1.12,1.53C248.37,399.99,248.72,398.12,247.44,399.03z"/>
	<path d="M658.43,254.29c-0.12,0.92,0.28,1.58,1.23,1.86C659.67,255.38,659.11,254.79,658.43,254.29z"/>
	<path d="M658.34,254.22c0.15,0.1,0.07,0.12,0.1-0.1L658.34,254.22z"/>
	<path d="M635,268.38c0.76-0.29,1.34-0.67,1.74-1.3C635.91,267.19,635.2,267.44,635,268.38z"/>
	<path d="M636.94,267.06l-0.1-0.1C636.72,267.15,636.68,267.06,636.94,267.06z"/>
	<path d="M702.06,251.37c-0.61,0.41-0.82,0.92-0.92,1.53C701.55,252.49,702.16,252.18,702.06,251.37z"/>
	<path d="M657.22,210.7c0.41-0.51,0.51-1.02,0-1.53C656.81,209.68,656.92,210.19,657.22,210.7z"/>
	<path d="M223.08,454.88c0.51-1.02,0.51-1.02,0.1-2.04C223.19,453.66,223.08,454.27,223.08,454.88z"/>
	<path d="M173.65,450c0.77-0.7,0.42-1.68,0.62-2.56C173.39,448.22,173.65,449.18,173.65,450z"/>
	<path d="M680.66,242.3c0,0.71,0,0.92,0,1.12C680.76,243.42,680.84,243.59,680.66,242.3z"/>
	<path d="M679.74,262.88l0.1,0.1C679.8,262.74,679.84,262.86,679.74,262.88z"/>
	<path d="M680.35,260.95c-0.57,0.47-0.6,1.13-0.52,1.88C680.43,262.39,680.25,261.63,680.35,260.95z"/>
	<path d="M174.47,445.91c-0.1,0.61-0.1,1.12-0.1,1.63C174.47,447.03,174.88,446.63,174.47,445.91z"/>
	<path d="M670.06,401.99c-0.51,0.41-0.2,0.92-0.31,1.43C669.96,402.91,670.47,402.6,670.06,401.99z"/>
	<path d="M213.3,383.54c-0.82-0.31-0.92,0-0.61,0.61C213.1,384.05,213.2,383.85,213.3,383.54z"/>
	<path d="M680.46,260.84l0.1,0.1C680.51,260.72,680.53,260.8,680.46,260.84z"/>
	<path d="M634.9,268.18c-0.01,0.03-0.03,0.05-0.04,0.08C635.07,268.3,635.01,268.29,634.9,268.18z"/>
	<path d="M634.86,268.26c-0.55-0.07-1-0.02-1.28,0.63C634.16,269,634.64,268.88,634.86,268.26z"/>
	<path d="M662.42,260.84c0-0.49-0.01-1.07-0.73-1.2C661.61,260.19,661.65,260.65,662.42,260.84z"/>
	<path d="M663.74,263.39c-0.05-0.01-0.08-0.02-0.12-0.03C663.66,263.51,663.59,263.55,663.74,263.39z"/>
	<path d="M663.61,263.36c-0.17-1.54-0.8-0.87-0.58-1.09C662.87,262.22,662.93,263.18,663.61,263.36z"/>
	<path d="M662.32,260.95c0,0.49,0.01,0.98,0.63,1.28C663.04,261.67,663.07,261.13,662.32,260.95z"/>
	<path d="M721.03,256.07c0.03-0.51-0.15-0.88-0.52-1.24C720.6,255.3,720.63,255.76,721.03,256.07z"/>
	<path d="M721.03,256.07c-0.01,0.06,0,0.11-0.01,0.18C721.12,256.16,721.16,256.16,721.03,256.07z"/>
	<path d="M248.87,401.28c-0.14-0.14,0.12-0.61-0.41-0.61C248.46,400.87,248.46,401.17,248.87,401.28z"/>
	<path d="M222.07,390.98c-0.2,0.41-0.31,0.61-0.41,0.92C222.37,391.9,222.37,391.7,222.07,390.98z"/>
	<path d="M654.98,249.63c1.08,2.16,0.59,0.88,0.1-0.1L654.98,249.63z"/>
	<path d="M713.07,243.52c0.22-0.22-0.48-1.09-0.61-1.22C712.66,242.7,712.86,243.11,713.07,243.52z"/>
	<path d="M712.56,242.19c-0.07-0.14-0.18-0.28-0.21-0.32C712.27,241.83,712.36,242,712.56,242.19z"/>
	<path d="M677.2,385.99c0,0.21,0,0.37,0,0.52C677.26,386.34,677.42,386.21,677.2,385.99z"/>
	<path d="M182.63,397.71v-0.2C182.5,397.76,182.49,397.71,182.63,397.71z"/>
	<path d="M190.88,397.91l-0.1-0.1C190.78,398.06,190.74,398.05,190.88,397.91z"/>
	<path d="M190.78,398.01c0.25,0.13,0.43,0.25,0.57,0.39C191.23,398.21,191.05,398.09,190.78,398.01z"/>
	<path d="M191.49,398.73l0.1-0.1C191.17,398.2,191.43,398.44,191.49,398.73z"/>
	<path d="M192.39,399.42c0.2,0.2,0.37,0.37,0.53,0.53C192.84,399.72,192.69,399.53,192.39,399.42z"/>
	<path d="M192.39,399.42c-0.78-0.78-0.32-0.36-0.22-0.15C192.05,399.38,192.06,399.3,192.39,399.42z"/>
	<path d="M192.92,400.05c0.1,0,0.2,0.1,0.31,0.1C193.12,400.05,193.02,399.95,192.92,400.05z"/>
	<path d="M676.48,387.31c0.09-0.27,0.33-0.45,0.52-0.62C676.7,386.69,676.48,386.9,676.48,387.31z"/>
	<path d="M677,386.69c0.06,0,0.12-0.01,0.19,0.01C677.07,386.58,677.12,386.58,677,386.69z"/>
	<path d="M675.77,387.82c0.41,0.04,0.52-0.23,0.61-0.61C676,387.21,675.73,387.4,675.77,387.82z"/>
	<path d="M675.77,387.93c-0.01-0.04,0-0.06,0-0.1C675.63,387.82,675.65,387.8,675.77,387.93z"/>
	<path d="M691.05,232.82C691.36,233.02,691.05,232.72,691.05,232.82L691.05,232.82z"/>
	<path d="M713.27,243.62l-0.1-0.2C713.04,243.55,713.02,243.49,713.27,243.62z"/>
	<path d="M715.11,246.78c-0.15-0.15-0.13-0.15,0,0.1C715.38,247.02,715.38,247.05,715.11,246.78z"/>
	<path d="M654.98,249.53c0.14,0,0.15,0.03-0.1-0.1L654.98,249.53z"/>
	<path d="M656.41,251.67c-0.25-0.46-0.58-0.63-0.82-0.71C655.85,251.22,656,251.27,656.41,251.67z"/>
	<path d="M637.52,218.25c-0.22,0.17-0.41,0.34-0.58,0.51C637.27,218.67,637.46,218.52,637.52,218.25z"/>
	<path d="M637.55,218.04c0,0.27-0.12,0.23,0.1,0.1L637.55,218.04z"/>
	<path d="M636.84,218.65c-0.08,0.23-0.22,0.42-0.38,0.63C636.71,219.16,636.84,218.97,636.84,218.65z"/>
	<path d="M636.33,219.47c0.05-0.07,0.09-0.12,0.13-0.18C636.18,219.4,636.18,219.32,636.33,219.47z"/>
	<path d="M636.23,219.37c-0.1,0.1-0.1,0.2-0.1,0.31C636.13,219.57,636.23,219.47,636.23,219.37z"/>
	<path d="M718.57,252.08c-0.39-0.13-0.37-0.17-0.1,0.1C718.6,252.31,718.57,252.34,718.57,252.08z"/>
	<path d="M657.42,253.4c0,0,0.2,0.1,0.31,0.1C657.53,253.2,657.53,253.1,657.42,253.4z"/>
	<path d="M657.76,253.63c0.09,0.35,0.22,0.58,0.68,0.49C658.27,253.85,658.08,253.67,657.76,253.63z"/>
	<path d="M657.73,253.51l-0.1,0.1C657.79,253.61,657.78,253.69,657.73,253.51z"/>
	<path d="M719.9,254.12c-0.1,0-0.2-0.1-0.31-0.1C719.69,254.12,719.79,254.12,719.9,254.12z"/>
	<path d="M719.79,254.22c0.29,0.2,0.17,0.2,0.1-0.1L719.79,254.22z"/>
	<path d="M720.61,254.83c-0.23-0.15-0.42-0.32-0.63-0.47C720.1,254.64,720.28,254.83,720.61,254.83z"/>
	<path d="M721.16,256.35c0.11,0.28,0.31,0.52,0.67,0.52C721.74,256.5,721.56,256.32,721.16,256.35z"/>
	<path d="M721.12,256.26l-0.1,0.1C721.21,256.32,721.17,256.41,721.12,256.26z"/>
	<path d="M622.98,257.68c0-0.1,0-0.2,0.1-0.31C622.98,257.48,622.88,257.48,622.98,257.68z"/>
	<path d="M722.55,257.48c-0.09-0.28-0.29-0.54-0.7-0.51C721.88,257.32,722.08,257.57,722.55,257.48z"/>
	<path d="M721.73,256.97c0.04-0.01,0.07,0,0.11,0C721.84,256.82,721.84,256.86,721.73,256.97z"/>
	<path d="M618.7,260.03c0.22-0.42,0.1-0.51,0.2-0.41c0.08-0.16,0.14-0.1-0.1-0.1C618.93,259.65,618.1,259.43,618.7,260.03z"/>
	<path d="M689.93,260.95c0.03-0.1,1.02-1.78-0.1-0.1L689.93,260.95z"/>
	<path d="M689.22,261.66c0.2-0.31,0.41-0.51,0.51-0.82C688.97,261.61,689.12,261.56,689.22,261.66z"/>
	<path d="M688.61,262.17c0.65-0.65,0.51-0.61,0.41-0.71C688.86,261.9,687,263.78,688.61,262.17z"/>
	<path d="M679.14,263.49c0.4,0.03,0.51-0.24,0.6-0.61C679.38,262.88,679.18,263.14,679.14,263.49z"/>
	<path d="M679.13,263.6c0-0.18,0.06-0.06-0.1-0.1L679.13,263.6z"/>
	<path d="M687.69,262.98c0.26-0.13,0.25-0.1,0.1-0.1L687.69,262.98z"/>
	<path d="M663.64,263.6h0.1C663.74,263.46,663.77,263.47,663.64,263.6z"/>
	<path d="M659.77,200.92l-0.1,0.1C659.89,200.98,659.82,201.07,659.77,200.92z"/>
	<path d="M223.49,333.91c-1.68,2.52-2.53,7.38-2.42,10.44c0.27,7.1,3.1,8.91,1.19,12.49c-2.61,4.91,0.28,4.04,0.1,13.35
		c-0.1,5.41,1.67-1.92,0.51-6.62c-0.47-1.89-0.39-3.77,0.51-5.5c2.71-5.24-3.34-9.34,0.2-17.22
		C224.04,339.84,225.92,334.33,223.49,333.91z"/>
	<path d="M267.8,256.3c1.22,5.29,8.41-10.65-7.22-14.21c-1.63-0.71-2.04-2.04-3.16-2.45c-1.95,2.92,6.4,5.62,9.78,9.38
		C268.33,256.26,267.46,254.79,267.8,256.3z"/>
	<path d="M220.43,283.67c0.92,4.65,6.09,6.8,3.05,3.39c-2.29-2.56-1.17-6.34-1.17-6.44c0-1.61,0.26-0.68-3.81-3.68
		c-4.09-3.01-2.87-5.25-3.97-5.81c-1.4,0.35-1.86,4.6,2.34,7.34C221.64,281.58,219.67,279.79,220.43,283.67z"/>
	<path d="M224.31,312.1c-0.27-1.07-1.63-2.3-2.34-1.22c-0.09,0.44,1.84,3.81,1.32,6.73c-0.87,4.9-0.1,9.78-0.1,15.39
		c0.91-1.63,1.02-2.73,1.02-4.38C225.09,313.56,225.82,318.04,224.31,312.1z"/>
	<path d="M205.73,376.54c0.25,0.81,1.2,0.27,0.95-0.74c-1.71-10.28-12.59-31.89-9.48-23.64
		C207.87,380.38,205.47,375.95,205.73,376.54z"/>
	<path d="M247.44,170.96c-0.81-4.07-0.61-2.37-1.02-7.34c-0.7-8.44-2.98-0.93,0.2,8.25c0.67,1.92,4.73,4.57,5.26,4.57
		C254.77,175.44,249.19,173.41,247.44,170.96z"/>
	<path d="M252.95,269.29c1.85-5.12,0.24-1.51-3.88,2.56C242.37,278.46,250.02,277.39,252.95,269.29z"/>
	<path d="M250.39,225.98c0.79-0.06,0.23-0.22,2.35-3.86c2.24-3.84,2.72-3.43,1.63-3.97C249.11,222.31,248.65,226.12,250.39,225.98z"
		/>
	<path d="M253.35,286.83c2.44,1.72,3.12,0.65,1.83-0.2c-5.38-6.05-5.64-6.56-6.52-5.81C248.07,282.01,251.68,285.65,253.35,286.83z"
		/>
	<path d="M264.43,201.34c0.21-0.84-1.3-3.23-3.23-4.8C261.73,199.44,263.94,203.32,264.43,201.34z"/>
	<path d="M246.52,105.43c-0.55,1.94,0.54,3.3,0.66,3.18c0.77-1.19,1.07-2.3,0.97-3.99C246.73,105.13,246.73,105.13,246.52,105.43z"
		/>
	<path d="M251.92,102.37c-1.12-0.1-2.24,0.41-3.46,1.12C250.31,105.34,253.41,103.44,251.92,102.37z"/>
	<path d="M204.29,336.3c-1.77-1.21,0.15,1.18,3.2,3.95C206.91,338.51,205.81,337.33,204.29,336.3z"/>
	<path d="M247.64,111.24c-1.64,0.27-0.58,2.28,0.41,3.67C248.56,113.28,248.66,112.16,247.64,111.24z"/>
	<path d="M257.77,143.17c0.01-1.8-0.59-3.03-1.67-4.11C256.66,141.16,257.77,145.66,257.77,143.17z"/>
	<path d="M261.01,290.89c1.81,0,1.1-0.34-1.74-1.61C257.75,289.28,259.54,290.89,261.01,290.89z"/>
	<path d="M200.41,331.85c-0.02-0.06-0.04-0.11-0.05-0.18C200.06,331.61,200.41,331.96,200.41,331.85z"/>
	<path d="M200.89,332.17c-1.07-0.71,0.08,1.7,1.97,2.78C203.27,335.19,202.48,333.23,200.89,332.17z"/>
	<path d="M258.24,214.98c-1.43,0.31-1.43,0.31-2.34,1.63C257.12,216.92,257.12,216.92,258.24,214.98z"/>
	<path d="M211.67,250.86l0.1-0.1C211.55,250.79,211.53,250.72,211.67,250.86z"/>
	<path d="M211.58,250.76c-0.81-0.8-2.02-1.85-3.28-1.85C208.99,250.39,210.06,250.91,211.58,250.76z"/>
	<path d="M225.02,272.77c1.27-0.42,2.04-1.18,2.04-2.55C225.79,270.52,225.48,271.62,225.02,272.77z"/>
	<path d="M209.26,258.87c-0.05,0.1,0.91,1.5,1.7,2.69C211.27,260.01,210.03,257.79,209.26,258.87z"/>
	<path d="M248.1,117.96c0-0.31-0.22-0.48-0.76-0.91C246.74,118.83,248.1,119.6,248.1,117.96z"/>
	<path d="M195.07,324.51c0-0.14-0.18,0.01,0.01,0.1C195.08,324.58,195.07,324.54,195.07,324.51z"/>
	<path d="M196.88,327.04c0.31,0.08-0.21-1.64-1.76-2.42C195.02,324.53,195.15,326.43,196.88,327.04z"/>
	<path d="M192.41,320.97l-0.1,0.1C192.58,321.4,192.41,321.15,192.41,320.97z"/>
	<path d="M197.08,327.26c-0.1,0,0.17,1.59,1.84,2.42C199.24,329.83,198.65,327.83,197.08,327.26z"/>
	<path d="M197,327.1c-0.03,0.03-0.02,0.02-0.1,0.09C197.14,327.29,197,327.25,197,327.1z"/>
	<path d="M195.69,347.4c0.1,1.17,0.34,2.18,1.21,3.04C197.18,350.7,197.2,348.98,195.69,347.4z"/>
	<path d="M195.67,347.16l-0.1,0.1C195.7,347.4,195.71,347.49,195.67,347.16z"/>
	<path d="M247.54,182.47c0.41-0.61,1.02-0.92,0.92-1.73C247.2,180.84,247.11,180.82,247.54,182.47z"/>
	<path d="M256.69,233.34c-0.15-1.19-1.28-1.18-1.1,0.7C256.39,233.86,256.74,233.67,256.69,233.34z"/>
	<path d="M248.26,125c0.48-1.43-0.67-2.13-0.76-0.92C247.46,124.45,247.75,124.74,248.26,125z"/>
	<path d="M256.71,249.23c-1.22-0.31-1.22-0.31-2.14,1.12C255.8,250.04,256.31,249.84,256.71,249.23z"/>
	<path d="M225.17,368.5c0,0.32-0.04,0.61-0.06,0.66C226.29,367.99,225.17,365.04,225.17,368.5z"/>
	<path d="M225.7,366.73c0.17-0.13,0.14-0.09,0.03-0.2C225.72,366.6,225.71,366.67,225.7,366.73z"/>
	<path d="M209.73,342.47c-0.65-0.56-0.93-0.83-1.43-1.32C208.41,341.66,208.61,342.27,209.73,342.47z"/>
	<path d="M245.3,103.49c0.82,0,0.82,0,1.43-0.61C245.91,102.68,245.91,102.68,245.3,103.49z"/>
	<path d="M200.25,331.63c0-0.46-0.17-0.89-0.31-1.1C198.57,328.49,198.53,331.17,200.25,331.63z"/>
	<path d="M244.79,97.48c0,0.71,0.2,1.02,0.61,1.12C245.71,98.09,245.5,97.79,244.79,97.48z"/>
	<path d="M265.17,290.7c-0.89,0-1.53-0.27-0.49,0.08C264.88,290.85,265,290.7,265.17,290.7z"/>
	<path d="M222.68,300.89c0.09,0.74,0.47,0.81,1.12,0.71C223.59,301.1,223.29,300.89,222.68,300.89z"/>
	<path d="M250.8,105.84c0,0.52,0.38,0.36,0.51,0.1C251.07,105.7,250.8,105.31,250.8,105.84z"/>
	<path d="M225.84,364.89c0,0.71,0,1.22,0,1.73C226.22,366,226.48,365.63,225.84,364.89z"/>
	<path d="M241.43,361.43c0.12-0.37,0.14-0.31,0-0.31C241.29,361.12,241.31,361.06,241.43,361.43z"/>
	<path d="M226.8,363.22c0.03-0.05,0.05-0.1,0.05-0.16C226.78,363.13,226.78,363.18,226.8,363.22z"/>
	<path d="M226.86,363.26c-0.03,0-0.04-0.02-0.05-0.04C226.73,363.38,226.72,363.4,226.86,363.26z"/>
	<path d="M195.67,347.16c-0.1-0.2-0.2-0.51-0.31-0.82C195.15,346.77,195.51,346.97,195.67,347.16z"/>
	<path d="M235.82,258.3c0.34-0.43,0.4-0.85,0.47-1.27C235.92,257.4,235.82,257.85,235.82,258.3z"/>
	<path d="M224.61,301.91c-0.36-0.09-0.78-0.13-0.92-0.2C223.8,302.22,224,302.32,224.61,301.91z"/>
	<path d="M203.61,335.75c0.22,0,0.02-0.66-0.59-0.61C203.02,335.49,203.21,335.78,203.61,335.75z"/>
	<path d="M202.91,335.14c0.05-0.01,0.07,0,0.11,0C203.02,334.99,203.02,335.03,202.91,335.14z"/>
	<path d="M253.15,318.32l0.05,0.05C253.3,318.47,254.45,317.02,253.15,318.32z"/>
	<path d="M190.27,319.03l-0.1-0.1C190.17,319.06,190.14,319.03,190.27,319.03z"/>
	<path d="M252.43,319.03c0.2-0.2,0.51-0.41,0.71-0.61C253,318.27,252.5,318.93,252.43,319.03z"/>
	<path d="M190.17,319.03c0.18,0.18,0.51,0.4,0.71,0.61C191.03,319.49,191.12,319.67,190.17,319.03z"/>
	<path d="M252.43,319.03v-0.1C252.31,319.19,252.29,319.18,252.43,319.03z"/>
	<path d="M190.88,319.75c0.2,0.2,0.51,0.41,0.71,0.61C192.02,320.6,191.57,319.98,190.88,319.75z"/>
	<path d="M191.78,320.5c0,0.13,0.28,0.46,0.63,0.46C192.21,320.89,192.04,320.73,191.78,320.5z"/>
	<path d="M194.73,324.33c0.03,0.01,0.31,0,0.33,0C194.72,323.31,193.92,324.17,194.73,324.33z"/>
	<path d="M194.23,323.82c0.87-0.17-1.67-2.49-1.77-2.59c0,0.66,0.56,1.7,1.74,2.39C194.38,323.73,194.34,323.72,194.23,323.82z"/>
	<path d="M207.8,340.7c0.13,0.23,0.38,0.35,0.61,0.35C207.93,340.33,207.63,340.47,207.8,340.7z"/>
	<path d="M207.74,340.54c-0.01-0.03-0.03-0.06-0.04-0.1C207.34,340.08,207.55,340.54,207.74,340.54z"/>
	<path d="M225.07,369.17c-0.1,0-0.05-0.01-0.05,0.1C225.13,369.17,225.17,369.17,225.07,369.17z"/>
	<path d="M208.31,248.61c-0.36,0-0.18-0.02,0.1,0.2C208.31,248.82,208.31,248.72,208.31,248.61z"/>
	<path d="M211.67,250.86c0.1,0.1,0.2,0.2,0.2,0.2C211.82,250.96,211.77,250.86,211.67,250.86z"/>
	<path d="M227.44,270.09c0-0.06-0.04-0.15-0.17-0.28C226.85,270.64,227.43,270.19,227.44,270.09z"/>
	<path d="M224.43,288.98c-0.1,0,0.04,0.33,0.18,0.19C224.61,289.08,224.52,289.07,224.43,288.98z"/>
	<path d="M225.73,290.91c-0.27-0.13-0.24-0.17-0.1,0.1C225.9,291.14,225.87,291.17,225.73,290.91z"/>
	<path d="M257.33,313.73c-0.13-0.14,0.15-0.28-0.2-0.1C257.16,313.67,255.78,315.28,257.33,313.73z"/>
	<path d="M256.51,314.24c-1.22,1.22-0.66,0.61,0.1,0.1C256.55,314.28,256.57,314.31,256.51,314.24z"/>
	<path d="M187.52,315.77c0.04-0.04,0.07-0.07,0.1-0.1C187.35,315.54,187.38,315.51,187.52,315.77z"/>
	<path d="M187.52,315.77c0.2,0.2,0.51,0.41,0.71,0.61C188.03,316.08,187.82,315.88,187.52,315.77z"/>
	<path d="M254.57,317.1l0.1-0.2C254.42,317.02,254.44,316.97,254.57,317.1z"/>
	<path d="M253.81,317.76c0.11,0.11,0.58-0.51,0.66-0.76C253.69,317.78,253.71,317.66,253.81,317.76z"/>
	<path d="M235.72,258.19c-0.1,0.1-0.1,0.2-0.2,0.31C235.72,258.4,235.72,258.3,235.72,258.19z"/>
	<path d="M173.86,252.49c2.6-1.84-0.38-6.77,7.24-6.11c2.6,0.22,5.94,0.71,8.05-1.02c2.76-2.76-3.66,0.02-10.09-1.83
		C175.52,242.5,173.08,248.56,173.86,252.49z"/>
	<path d="M165,207.04c-2.29,1.63-1.28,2.54-1.12,2.85c1.87,0.42,0.67,0.19,6.42-4.79C173.38,202.43,174.31,199.05,165,207.04z"/>
	<path d="M166.52,229.05c-2.49,2.61-3.43,4.49-4.18,6.73C164.39,237.82,166.18,231.91,166.52,229.05z"/>
	<path d="M181.2,168.11c-3.31,5.73-5.72,7.85-3.06,7.85C180.79,172.79,181.71,170.65,181.2,168.11z"/>
	<path d="M197.12,254.09c0.1-0.11,0.56-0.69,0.79-1.09c-2.24-1.94-4.48-2.34-7.24-2.04C193.32,252.97,196.95,254.25,197.12,254.09z"
		/>
	<path d="M182.83,103.4c0.81-0.51,2.12-0.51,2.54-1.71c0-0.52-0.32-0.67-0.91-0.84c-4.27,1.78-4.15,0.91-2.96,2.54
		C182.29,109.25,181.88,104.49,182.83,103.4z"/>
	<path d="M186.19,182.27c-1.89,0.89-4.11,1.52-5.8,2.98C179.28,186.36,189.16,184.5,186.19,182.27z"/>
	<path d="M177.63,111.04c0.2-2.75,1.53-4.79,1.12-7.64C176.72,105.33,176.41,107.77,177.63,111.04z"/>
	<path d="M185.51,268.77c0.19,0.26,0.48-2.04-0.13-3.75C184.28,266.52,184.27,266.66,185.51,268.77z"/>
	<path d="M184.76,89.71c-1.55,1.34-3.42,4.11,0.16,1.86c2.77-1.38,3.76-3.02,0.64-2.44c-0.07,0.03-0.15,0.08-0.23,0.13
		c0.34-0.64-0.94-1.35-2.31-0.17c-0.32,0.2-0.18,0.62,0.12,0.84C183.87,89.94,184.4,89.85,184.76,89.71z"/>
	<path d="M185.58,88.92c-0.04,0.08-0.06,0.04,0,0.1V88.92z"/>
	<path d="M177.22,113.48c-0.31,0.51-0.31,1.02,0,1.83C178.04,113.79,178.04,113.79,177.22,113.48z"/>
	<path d="M178.34,101.67c0,0,0.01,0,0.01-0.01c0,0-0.01-0.01-0.02-0.01C176.29,100.26,174.27,103.36,178.34,101.67z"/>
	<path d="M171.82,255.75c0.74-0.43,0.82-1.08,0.82-1.94C171.93,254.73,171.21,255.03,171.82,255.75z"/>
	<path d="M176.99,119.73c0.07,0.41,0.99-0.77,0.23-2.27C177.18,117.68,176.77,118.76,176.99,119.73z"/>
	<path d="M186.4,251.26c0.61,0.61,1.12,0.92,1.53,0C187.42,250.65,186.91,250.55,186.4,251.26z"/>
	<path d="M174.17,198.88c0-1.45-1.33,0.06-0.41,0.31C173.86,199.29,174.07,198.98,174.17,198.88z"/>
	<path d="M176.51,124.59c0,0.19,0.2,0.05,0.2-0.2C176.61,124.18,176.51,124.28,176.51,124.59z"/>
	<path d="M178.24,220.89c0.09,0.21,0.12,0.73,0.2,1.22C178.96,221.52,178.97,221.14,178.24,220.89z"/>
	<path d="M178.24,220.79c-0.07-0.1-0.19-0.43-0.25-0.62C177.9,219.89,177.66,220.21,178.24,220.79z"/>
	<path d="M185.07,156.69c0.07,0,0.13,0,0.2,0C185.28,156.29,185.33,156.31,185.07,156.69z"/>
	<path d="M179.84,185.7c0.28,0,0.6-0.57,0.26-0.34C179.67,185.66,179.32,185.63,179.84,185.7z"/>
	<path d="M178.24,101.76C178.55,101.97,178.24,101.56,178.24,101.76L178.24,101.76z"/>
	<path d="M176.82,119.9c0.25,0,0.24,0.03,0.1-0.1L176.82,119.9z"/>
	<path d="M684.02,123.57c0-3.68-6.25,8.24,2.95,18.45C688.4,135.15,683.19,132.28,684.02,123.57z"/>
	<path d="M659.36,118.98c-6.2-4.29-0.05-6.96-1.02-10.39c-1.74-0.5-2.43-0.7-3.26,4.48C653.92,120.35,669.89,126.28,659.36,118.98z"
		/>
	<path d="M683.21,106.86c0-2.36-2.33-5.84-1.53,7.03c0.08,1.31,0.65,4.15,0.67,4.2C683.56,121.21,683.21,113.24,683.21,106.86z"/>
	<path d="M699.41,111.85c-0.51-0.41-0.92-0.92-1.53-1.43c-2.24,0.51-3.57-1.43-5.3-1.94c-1.84,0.92,0.26,4.53,4.18,3.06
		C697.52,111.55,698.82,113.03,699.41,111.85z"/>
	<path d="M689.22,103.29c-0.76-7.64-3.91,1.66,1.32,4.08C689.99,106.44,689.37,104.76,689.22,103.29z"/>
	<path d="M686.16,168.72c0-3.09-0.92-5.75-0.92-6.52c0.52-1.82,0.64-3.12,0-4.89c0.19,2.32-0.71,3.13-0.71,5.81
		C685.03,167.35,686.16,168.82,686.16,168.72z"/>
	<path d="M705.42,176.67c2.96-0.41,5.5-1.02,8.05-1.94C711.34,174.32,708.58,175.04,705.42,176.67z"/>
	<path d="M652.26,175.73c4.52-0.1,2.35,0.13-0.83-0.57C645.22,173.78,648.22,175.82,652.26,175.73z"/>
	<path d="M680.86,205.1c1.93,1.16,1.63-2.97,1.22-4.99C681.37,202.14,680.66,203.57,680.86,205.1z"/>
	<path d="M658.04,95.24c-1.61,2.2-1.74,2.65-0.71,4.28C658.12,98.04,658.62,96.98,658.04,95.24z"/>
	<path d="M679.54,158.32c-2.46-1.54-2.7-1.8-5.2-1.63C675.07,157.15,678.27,159.21,679.54,158.32z"/>
	<path d="M708.99,113.99c-1.12,0.52-1.8,1.03-1.98,1.79C706.8,116.73,708.1,117.85,708.99,113.99z"/>
	<path d="M683.41,176.16c0.2-1.32,0.82-2.75,0-4.69C682.9,173.3,683.21,174.73,683.41,176.16z"/>
	<path d="M707.05,108.9c0.61-1.12,0.61-1.12-0.51-3.67C706.38,106.69,706.18,107.91,707.05,108.9z"/>
	<path d="M645.09,182.06c0.35,0,0.34,1.09,4.23,1.32C650.13,183.48,647.4,181.79,645.09,182.06z"/>
	<path d="M682.7,194.09c-0.61,1.58-0.84,2.75,0,4.28C683.62,196.74,682.8,195.42,682.7,194.09z"/>
	<path d="M706.44,119.7c-0.6-0.5-1.21-1.2-1.92-1.81C703.77,117.13,702.28,118.94,706.44,119.7z"/>
	<path d="M676.58,143.24c-0.41,1.43-0.71,2.34-0.31,3.87C677.09,145.69,677.2,144.77,676.58,143.24z"/>
	<path d="M657.32,106.55c0.52,0.09,0.71-0.2,0.82-0.71C657.53,102.2,656.04,105.27,657.32,106.55z"/>
	<path d="M714.29,109.41c-0.15,0.12-0.29,0.23-0.41,0.34C711.39,111.84,714.29,112.5,714.29,109.41z"/>
	<path d="M664.56,122.86c0.41,0.82,0.82,1.53,1.83,1.63C665.78,123.06,665.78,123.06,664.56,122.86z"/>
	<path d="M685.59,149.91c0.05-1.25-0.7-0.84-0.24,0.97C685.5,150.52,685.58,150.2,685.59,149.91z"/>
	<path d="M651.41,183.49c-0.68,0-1.48-0.1-1.94-0.1C650.09,183.74,650.78,183.81,651.41,183.49z"/>
	<path d="M667.36,125.6c0.1,0-0.42-1.01-0.93-1.09C666.32,124.51,666.21,125.6,667.36,125.6z"/>
	<path d="M689.32,174.32c-0.82-0.82-1.22-1.22-1.63-1.63C687.79,173.3,688,173.91,689.32,174.32z"/>
	<path d="M709.09,177.69c-0.41-0.31-0.82-0.1-1.63,0C708.28,177.69,708.69,177.69,709.09,177.69z"/>
	<path d="M707.46,99.93c0.31-0.41,0.31-0.71,0-1.12C707.16,99.21,707.16,99.52,707.46,99.93z"/>
	<path d="M652.02,150.17c-1.15,0,0.47,0.18,0.61,0.2C652.23,150.17,652.13,150.07,652.02,150.17z"/>
	<path d="M647.74,148.95c-0.31-0.31-0.61-0.2-0.92-0.1C647.13,149.15,647.44,149.15,647.74,148.95z"/>
	<path d="M710.71,122.09c-0.28,0.17-0.09,0.36,0.01,0.36C711.52,122.45,711.24,121.73,710.71,122.09z"/>
	<path d="M677.4,177.38c0.13,0,0.13,0.06,0-0.2C677.27,177.43,677.27,177.38,677.4,177.38z"/>
	<path d="M703.9,177.07c0.11-0.11,0.13-0.2-0.2-0.2C703.59,176.97,703.59,177.07,703.9,177.07z"/>
	<path d="M711.13,177.07c0.13-0.06,0.08-0.04,0.2-0.1C711.09,176.97,711.13,176.94,711.13,177.07z"/>
	<path d="M682.7,182.37c-0.27,0-0.29,0.52-0.2,0.61C682.66,183.32,683.17,182.84,682.7,182.37z"/>
	<path d="M713.58,132.44c0-0.1,0-0.2-0.1-0.2C713,132.23,713.58,132.93,713.58,132.44z"/>
	<path d="M678.72,138.14c-0.21,0.31-0.29,0.5,0,0.71C678.99,138.68,679.05,138.37,678.72,138.14z"/>
	<path d="M649.78,149.56c-0.14-0.14-0.41-0.17-0.41,0.1C649.51,149.8,649.78,149.83,649.78,149.56z"/>
	<path d="M650.6,130.3l0.1-0.2C650.56,130.09,650.6,130.05,650.6,130.3z"/>
	<path d="M659.06,200c-0.1,0-0.2-0.1-0.2-0.1C658.95,200,658.95,200,659.06,200z"/>
	<path d="M659.67,200.73c0.08-0.41-0.17-0.6-0.6-0.6C659.1,200.42,659.27,200.64,659.67,200.73z"/>
	<path d="M659.06,200l-0.1,0.1C659.15,200.11,659.06,200.16,659.06,200z"/>
	<path d="M644.99,182.06c0.16,0,0.13,0.01-0.1-0.19C645.01,182.08,644.81,182.1,644.99,182.06z"/>
	<path d="M695.84,203.37c0.13-0.13,0.16-0.1-0.1-0.1L695.84,203.37z"/>
	<path d="M695.74,203.26c0,0.1-0.1,0.2-0.1,0.2C695.74,203.47,695.74,203.47,695.74,203.26z"/>
	<path d="M694.11,175.44l-0.1,0.2C694.28,175.65,694.24,175.7,694.11,175.44z"/>
	<path d="M687.63,172.48c0,0-0.09-0.04-0.14-0.09C687.7,172.6,687.94,172.67,687.63,172.48z"/>
	<path d="M674.44,156.59C674.14,156.39,674.24,156.59,674.44,156.59L674.44,156.59z"/>
	<path d="M706.44,119.8l0.1,0.1C706.42,119.65,706.44,119.65,706.44,119.8z"/>
	<path d="M642.34,86.16c-0.45,4.03-4.29,4.55-2.55,9.78c-0.62,4.1-0.2,5.12,3.57,7.25c-1.19-2.58-2.67-5-1.63-7.34
		c-0.17-0.98-0.84-1.42-0.85-2.12C640.85,91.63,646.9,86.16,642.34,86.16z"/>
	<path d="M613.26,104.54c-1.99,1.68-0.24,6.81,1.67,8.63C613.95,108.1,614.3,103.66,613.26,104.54z"/>
	<path d="M628.99,135.9c3.44-6.41-0.2-13.14-0.2-9.68C628.99,129.28,628.48,132.34,628.99,135.9z"/>
	<path d="M620.13,104.92c1.24,1.69,2.61-0.32,0.59-3.33C617.65,97.02,618.29,101.58,620.13,104.92z"/>
	<path d="M630.32,79.24c-2.14,0.3-4.49,1.76-6.04,3.2c-2.11,1.97-0.7,2.39-0.7,3.15c0.1-0.1,0.31-0.12,0.31-0.23
		c0.07-0.22-0.03-0.34-0.22-0.34c-0.25,0,0.58-1.91,3.37-3.13C629.17,80.96,631.96,80.38,630.32,79.24z"/>
	<path d="M615.54,174.12c1.91,0,1.45-3.2,0.1-4.79C615.34,170.96,615.13,172.49,615.54,174.12z"/>
	<path d="M609.22,165.86c0.92-1.53,0.92-1.53,0-2.75C608.71,163.93,608.61,164.74,609.22,165.86z"/>
	<path d="M629.34,146.07c1.03,3.11,1.34,0.41-0.14-1.71C629.09,145.02,629.17,145.56,629.34,146.07z"/>
	<path d="M643.28,78.88c1.74-0.01-0.12-1.46-1.75-0.97C642.06,78.52,642.59,78.89,643.28,78.88z"/>
	<path d="M619.92,90.65c-1.12,1.02-1.12,1.02-0.1,2.24C620.23,92.08,620.23,91.37,619.92,90.65z"/>
	<path d="M618.6,96.26c-0.41,0.61-0.41,1.12,0.71,1.32C619.11,96.87,619,96.46,618.6,96.26z"/>
	<path d="M629.5,142c0.03-1.4-1.02-0.5-0.31,0.84C629.4,142.54,629.5,142.26,629.5,142z"/>
	<path d="M615.85,118.27c0.34-0.68,0.2-0.51,0-0.71C615.38,118.02,615.74,118.17,615.85,118.27z"/>
	<path d="M609.83,155.88c0.13,0.13,0.1,0.15,0.1-0.1C609.81,155.65,609.83,155.61,609.83,155.88z"/>
	<path d="M623.28,85.89c0.12,0.12,0.07,0.07,0.15-0.12C623.58,85.48,623.25,85.83,623.28,85.89z"/>
	<path d="M623.49,85.66l0.1,0.1C623.59,85.57,623.59,85.56,623.49,85.66z"/>
	<path d="M720.81,99.62c0-0.28-0.16-0.48-0.81-0.25c-2.03,0.72,1.73,6.77,4.37,5.45C724.69,102.65,720.33,102.05,720.81,99.62z"/>
	<path d="M722.44,88.92c-2.59-0.47-5.13,17.09-1.53,4.48C721.42,91.98,722.85,90.65,722.44,88.92z"/>
	<path d="M723.87,107.77c0.92,1.53,0.82,3.16,1.32,4.69C726.52,113.78,727.19,108.66,723.87,107.77z"/>
	<path d="M741.91,169.23c-0.97,0.89-1.89,1.76-2.14,2.96C740.03,173.51,742.15,173.6,741.91,169.23z"/>
	<path d="M721.99,80.92c0.83-0.26,3.05-0.57,0.91-1.55c-0.43-0.2-0.97-0.25-1.48-0.32C720.67,78.96,722.51,79.7,721.99,80.92z"/>
	<path d="M721.83,80.97c0.16,0.16,0.22-0.07,0.06-0.02C721.87,80.96,721.85,80.96,721.83,80.97z"/>
	<path d="M723.77,80.46c0.02-0.02,0.09-0.09,0.1-0.1C723.77,80.36,723.8,80.36,723.77,80.46z"/>
	<path d="M734.16,146.09c-0.31,1.12-0.1,1.94,1.02,3.06C735.59,147.42,735.13,146.66,734.16,146.09z"/>
	<path d="M735.39,88.41c0.19,0.69,0.37,1.42,0.95,1.83C737.61,91.15,737.23,89.03,735.39,88.41z"/>
	<path d="M730.49,84.44c0.51,0.71,0.71,1.73,2.04,1.43C732.02,85.05,731.51,84.34,730.49,84.44z"/>
	<path d="M731.62,142.53c-0.1,0.71,0.31,1.12,0.92,1.32C732.53,143.24,732.33,142.73,731.62,142.53z"/>
	<path d="M743.64,165.86c0-0.61-1.01-0.37-0.82,0.2C742.83,166.4,743.64,166.4,743.64,165.86z"/>
	<path d="M736.2,150.58c0-0.1-0.2-0.41-0.2,1.32C736.53,151.36,736.84,150.95,736.2,150.58z"/>
	<path d="M730.39,84.13c0,0.1,0.01,0.2,0.2,0.2C730.49,84.23,730.39,84.13,730.39,84.13z"/>
	<path d="M732.43,143.95c0.21,0.07,0.16,0.05,0.31,0.1C732.49,143.81,732.57,143.82,732.43,143.95z"/>
	<path d="M684.06,78.36c-2.05,2.07-1.9,6.08,5.57-3.81C688.44,73.61,687.75,74.63,684.06,78.36z"/>
	<path d="M681.88,87.9c0.9-1.15,1.27-1.78,1.27-2.83C683.16,80.3,680.23,84.3,681.88,87.9z"/>
	<path d="M678.42,80.26c-0.61-0.2-0.45-0.38,0.04,1.55c0.23,0.91,0.47,1.85,0.78,2.92C681.35,83.83,680.14,80.69,678.42,80.26z"/>
	<path d="M661.91,71.09c-2.08,1.04,0.48,2.74,3.16,2.55C664.15,72.51,663.23,71.49,661.91,71.09z"/>
	<path d="M667.72,74.65c0.71,1.02,1.63,1.32,3.06,0.82C669.86,74.25,668.74,74.45,667.72,74.65z"/>
	<path d="M673.31,76.28c2.53,3.54,3.34,1.76,2.14,0.56C674.89,76.28,674.09,76.16,673.31,76.28z"/>
	<path d="M670.14,68.19c0.76-0.12-0.32-1.06-0.96-1.05C667.73,67.16,669.58,68.28,670.14,68.19z"/>
	<path d="M658.14,78.42c-0.02-0.02-0.15-0.32-0.2-0.42C657.26,77.11,656.99,79.57,658.14,78.42z"/>
	<path d="M678.72,71.8c0.47-0.47,0.32-0.9-0.1-1.43C678.27,70.96,678.15,71.32,678.72,71.8z"/>
	<path d="M691.36,74.04c0.2,0.31,0.51,0.2,0.71,0C691.87,73.74,691.56,73.74,691.36,74.04z"/>
	<path d="M665.78,73.94c-0.04-0.01-0.8-0.19-0.82-0.2C665.2,73.97,665.33,74.1,665.78,73.94z"/>
	<path d="M220.54,561.07c-6.7,5.52-2.98,26.1,0.2,34.14c0.56,1.4,2.85,1.92,0.71-3.36C219.18,586.22,216.77,569.48,220.54,561.07z"
		/>
	<path d="M206.57,549.04c0.12-0.56,3.1-14.63,2.57-15.06C207.53,532.97,204.42,545.2,206.57,549.04z"/>
	<path d="M222.39,517.02l-0.02,0.02C222.57,517.05,222.5,516.91,222.39,517.02z"/>
	<path d="M221.15,529.58c-0.67-2.99,4.39-12.53,2.2-12.53c-1.55,0,0.07-0.6-1.48,3.36C221.05,522.52,219.68,528.93,221.15,529.58z"
		/>
	<path d="M225.53,541.2c0.31-3.67-1.53-6.22-2.04-8.97C220.59,530.78,224.08,537.89,225.53,541.2z"/>
	<path d="M221.86,553.12c-1.07,2.14,3.6-2.43,2.85-6.62C223.7,548.94,222.57,550.98,221.86,553.12z"/>
	<path d="M221.57,530.82c-0.26-0.54-0.49-1.11-0.52-1.14C221.23,530.04,221.08,530.58,221.57,530.82z"/>
	<path d="M222.47,531.61c-0.2-0.2-0.85-0.75-0.9-0.78C221.69,531.07,222.37,531.54,222.47,531.61z"/>
	<path d="M639.59,322.7c1.88,6.04,1.05,13.17,2.45,14.57c1.95-7.14-0.01-13.45-1.06-14.67C640.16,321.65,639.45,322.61,639.59,322.7
		z"/>
	<path d="M641.22,339.93c0,1.27,0.1,1.77,0.1-0.1C641.2,339.82,641.22,339.8,641.22,339.93z"/>
	<path d="M643.67,359.94c-0.22-0.07-0.06,0.66,0.09,0.86C644.43,361.7,644.72,360.16,643.67,359.94z"/>
	<path d="M643.56,359.8c-0.14,0.14,0,0.16,0,0.03C643.56,359.82,643.56,359.81,643.56,359.8z"/>
	<path d="M643.41,359.62c0.1,0.08,0.24,0.16,0.25,0.17C643.48,359.43,643.31,359.57,643.41,359.62z"/>
	<path d="M712.78,315.52c-0.84,0.51-1.3,1.12-2.25,1.59c-2.15-0.29-3.82,1.04-5.29,2.64c2.64,0,9.09-3.49,9.19-3.57
		C715.9,315.06,714.03,314.77,712.78,315.52z"/>
	<path d="M685.96,321.28c-1.21,0,0.94,3.31,10.29-0.1C692.59,321.17,689.3,321.99,685.96,321.28z"/>
	<path d="M704.2,319.65c-6.22,1.04-5.37,0.78-5.91,1.32c0,0.68,0.47,1.02,1.02,1.02C704.58,321.99,705.95,319.06,704.2,319.65z"/>
	<path d="M675.36,332.28c-0.63-0.21-1.21,0.76-0.28,0.7C675.81,332.94,675.65,332.28,675.36,332.28z"/>
	<path d="M723.87,301c0.13,0.24,0.11,0.48,0.2,0.71C724.37,301.31,723.97,301.2,723.87,301z"/>
	<path d="M723.36,306.09c0,0.58,0.19,0.55,0.31,0.2C723.67,306.1,723.57,305.88,723.36,306.09z"/>
	<path d="M679.34,330.65c-0.63,0.63,0.23,0.49,0.06,0.12C679.39,330.74,679.37,330.7,679.34,330.65z"/>
	<path d="M678.93,331.57c0-0.2,0.1-0.31,0.1-0.51C678.93,331.16,678.42,331.06,678.93,331.57z"/>
	<path d="M723.46,300.79c0.12,0.06,0.27,0.1,0.51,0.1C723.77,300.89,723.77,300.38,723.46,300.79z"/>
	<path d="M721.12,309.56v0.31C721.24,309.62,721.25,309.68,721.12,309.56z"/>
	<path d="M718.06,312.72c0.07,0.04,0.08,0.04,0.2,0.1C718.14,312.56,718.19,312.58,718.06,312.72z"/>
	<path d="M621.44,299.41c-0.64,0.43-0.54,1.1-0.2,1.79C622.93,300.19,622.11,298.91,621.44,299.41z"/>
<path fill="#e6e6e6" d="m206.8 163.6c0-5.1 4.1-9.2 9.3-9.2s9.2 4.2 9.2 9.2-4.1 9.2-9.3 9.2-9.2-4.1-9.2-9.2zm17.3-.1c0-4.5-3.5-8.2-8.2-8.2s-8.2 3.7-8.2 8.3c0 4.5 3.5 8.2 8.2 8.2s8.2-3.7 8.2-8.3zm-13 0c0-2.8 2.1-5.1 5.1-5.1 1.9 0 2.9.6 3.9 1.5l-1.4 1.7c-.8-.7-1.5-1.1-2.5-1.1-1.7 0-2.8 1.4-2.8 3.1s1.1 3 2.8 3c1.1 0 1.7-.5 2.5-1.1l1.4 1.4c-1.1 1.1-2.1 1.7-4 1.7-2.9 0-5-2.3-5-5.1z"/><path fill="#e6e6e6" d="m226.6 154.7h3.4l4.2 13.2 4.4-13.3h2.6l4.4 13.3 4.2-13.2h3.3l-6.2 18h-2.7l-4.4-12.8-4.4 12.8h-2.7z"/><path fill="#e6e6e6" d="m252.8 165.8c0-3.9 3.1-7 7.2-7 4.2 0 7.2 3.2 7.2 7s-3.1 7-7.3 7c-4 0-7.1-3.1-7.1-7zm11.3 0c0-2.3-1.7-4.3-4.2-4.3s-4.1 2-4.1 4.3 1.7 4.3 4.1 4.3c2.7.1 4.2-1.9 4.2-4.3z"/><path fill="#e6e6e6" d="m269.5 159.1h3.1v3c.8-2 2.4-3.4 4.8-3.3v3.2h-.2c-2.7 0-4.6 1.7-4.6 5.4v5.1h-3.1z"/><path fill="#e6e6e6" d="m279.1 153.9h3.1v11.1l5.6-6h3.8l-5.4 5.5 5.5 8h-3.5l-4.1-5.8-1.9 2v3.9h-3.1z"/><path fill="#e6e6e6" d="m291.7 165.8c0-3.9 3.1-7 7.2-7 4.2 0 7.2 3.2 7.2 7s-3.1 7-7.3 7c-4 0-7.1-3.1-7.1-7zm11.3 0c0-2.3-1.7-4.3-4.2-4.3s-4.1 2-4.1 4.3 1.7 4.3 4.1 4.3c2.6.1 4.2-1.9 4.2-4.3z"/><path fill="#e6e6e6" d="m308.2 167.6v-8.6h3.1v7.6c0 2.1 1.1 3.3 2.9 3.3s3-1.3 3-3.3v-7.6h3.1v13.4h-3.1v-2.1c-.8 1.3-2.1 2.3-4.2 2.3-3.1.2-4.8-1.8-4.8-5z"/><path fill="#e6e6e6" d="m323.9 168.8v-7.1h-1.7v-2.6h1.7v-3.7h3.1v3.7h3.6v2.6h-3.6v6.6c0 1.2.6 1.7 1.7 1.7.7 0 1.3-.2 1.9-.5v2.5c-.8.5-1.7.7-2.8.7-2.3 0-3.9-.9-3.9-3.9z"/><path fill="#e6e6e6" d="m333.2 154.7h3.2v15h9.4v2.9h-12.5v-17.9z"/><path fill="#e6e6e6" d="m356 172.5v-1.7c-.9 1.1-2.3 2-4.4 2-2.6 0-4.8-1.4-4.8-4.2 0-3 2.3-4.4 5.4-4.4 1.7 0 2.6.2 3.7.5v-.2c0-1.9-1.2-2.9-3.3-2.9-1.5 0-2.6.3-3.9.8l-.8-2.5c1.5-.7 2.9-1.1 5.1-1.1 4 0 5.9 2.1 5.9 5.7v8zm.1-5.6c-.8-.3-1.9-.5-3.1-.5-2 0-3.1.8-3.1 2.1s1.1 2 2.6 2c2 0 3.5-1.1 3.5-2.9z"/><path fill="#e6e6e6" d="m364.9 170.5v2.1h-3.1v-18.7h3.1v7.4c1-1.4 2.4-2.5 4.5-2.5 3.2 0 6.3 2.5 6.3 7s-3.1 7-6.3 7c-2.1 0-3.5-1.1-4.5-2.3zm7.7-4.7c0-2.6-1.7-4.3-3.9-4.3s-3.9 1.7-3.9 4.4c0 2.6 1.8 4.3 3.9 4.3s3.9-1.7 3.9-4.4z"/><path fill="#e6e6e6" d="m376.9 170.8 1.4-2.1c1.4 1.1 3 1.7 4.4 1.7s2.1-.5 2.1-1.5-1.3-1.4-2.8-1.8c-.1 0-.2-.1-.2-.1-2-.6-4.2-1.4-4.2-4s2.1-4.1 4.8-4.1c1.7 0 3.5.6 5 1.5l-1.2 2.2c-1.3-.8-2.6-1.3-3.8-1.3s-1.9.5-1.9 1.4 1.3 1.4 2.8 1.8c.1 0 .2.1.2.1 2 .6 4.2 1.5 4.2 4 0 2.9-2.2 4.2-5 4.2-1.9 0-4-.7-5.8-2z"/><path fill="#e6e6e6" d="m505.6 163.6c0-5.1 4.1-9.2 9.3-9.2s9.2 4.2 9.2 9.2-4.1 9.2-9.3 9.2-9.2-4.1-9.2-9.2zm17.4-.1c0-4.5-3.5-8.2-8.2-8.2s-8.2 3.7-8.2 8.3c0 4.5 3.5 8.2 8.2 8.2s8.2-3.7 8.2-8.3zm-13.1 0c0-2.8 2.1-5.1 5.1-5.1 1.9 0 2.9.6 3.9 1.5l-1.4 1.7c-.8-.7-1.5-1.1-2.5-1.1-1.7 0-2.8 1.4-2.8 3.1s1.1 3 2.8 3c1.1 0 1.7-.5 2.5-1.1l1.4 1.4c-1.1 1.1-2.1 1.7-4 1.7-2.9 0-5-2.3-5-5.1z"/><path fill="#e6e6e6" d="m525.4 154.7h3.4l4.2 13.2 4.4-13.3h2.6l4.4 13.3 4.2-13.2h3.3l-6.2 18h-2.7l-4.4-12.8-4.4 12.8h-2.7z"/><path fill="#e6e6e6" d="m551.7 165.8c0-3.9 3.1-7 7.2-7 4.2 0 7.2 3.2 7.2 7s-3.1 7-7.3 7c-4.1 0-7.1-3.1-7.1-7zm11.2 0c0-2.3-1.7-4.3-4.2-4.3s-4.1 2-4.1 4.3 1.7 4.3 4.1 4.3c2.7.1 4.2-1.9 4.2-4.3z"/><path fill="#e6e6e6" d="m568.3 159.1h3.1v3c.8-2 2.4-3.4 4.8-3.3v3.2h-.2c-2.7 0-4.6 1.7-4.6 5.4v5.1h-3.1z"/><path fill="#e6e6e6" d="m577.9 153.9h3.1v11.1l5.6-6h3.8l-5.4 5.5 5.5 8h-3.5l-4.1-5.8-1.9 2v3.9h-3.1z"/><path fill="#e6e6e6" d="m590.6 165.8c0-3.9 3.1-7 7.2-7 4.2 0 7.2 3.2 7.2 7s-3.1 7-7.3 7c-4.1 0-7.1-3.1-7.1-7zm11.2 0c0-2.3-1.7-4.3-4.2-4.3s-4.1 2-4.1 4.3 1.7 4.3 4.1 4.3c2.6.1 4.2-1.9 4.2-4.3z"/><path fill="#e6e6e6" d="m607 167.6v-8.6h3.1v7.6c0 2.1 1.1 3.3 2.9 3.3s3-1.3 3-3.3v-7.6h3.1v13.4h-3.1v-2.1c-.8 1.3-2.1 2.3-4.2 2.3-3 .2-4.8-1.8-4.8-5z"/><path fill="#e6e6e6" d="m622.7 168.8v-7.1h-1.7v-2.6h1.7v-3.7h3.1v3.7h3.6v2.6h-3.6v6.6c0 1.2.6 1.7 1.7 1.7.7 0 1.3-.2 1.9-.5v2.5c-.8.5-1.7.7-2.8.7-2.3 0-3.9-.9-3.9-3.9z"/><path fill="#e6e6e6" d="m632 154.7h3.2v15h9.4v2.9h-12.6z"/><path fill="#e6e6e6" d="m654.8 172.5v-1.7c-.9 1.1-2.3 2-4.4 2-2.6 0-4.8-1.4-4.8-4.2 0-3 2.3-4.4 5.4-4.4 1.7 0 2.6.2 3.7.5v-.2c0-1.9-1.2-2.9-3.3-2.9-1.5 0-2.6.3-3.9.8l-.8-2.5c1.5-.7 2.9-1.1 5.1-1.1 4 0 5.9 2.1 5.9 5.7v8zm.1-5.6c-.8-.3-1.9-.5-3.1-.5-2 0-3.1.8-3.1 2.1s1.1 2 2.6 2c2 0 3.5-1.1 3.5-2.9z"/><path fill="#e6e6e6" d="m663.7 170.5v2.1h-3.1v-18.7h3.1v7.4c1-1.4 2.4-2.5 4.5-2.5 3.2 0 6.3 2.5 6.3 7s-3.1 7-6.3 7c-2.1 0-3.5-1.1-4.5-2.3zm7.8-4.7c0-2.6-1.7-4.3-3.9-4.3-2.1 0-3.9 1.7-3.9 4.4 0 2.6 1.8 4.3 3.9 4.3s3.9-1.7 3.9-4.4z"/><path fill="#e6e6e6" d="m675.8 170.8 1.4-2.1c1.4 1.1 3 1.7 4.4 1.7s2.1-.5 2.1-1.5-1.3-1.4-2.8-1.8c-.1 0-.2-.1-.2-.1-2-.6-4.2-1.4-4.2-4s2.1-4.1 4.8-4.1c1.7 0 3.5.6 5 1.5l-1.2 2.2c-1.3-.8-2.6-1.3-3.8-1.3s-1.9.5-1.9 1.4 1.3 1.4 2.8 1.8c.1 0 .2.1.2.1 2 .6 4.2 1.5 4.2 4 0 2.9-2.2 4.2-5 4.2-2 0-4.1-.7-5.8-2z"/><path fill="#e6e6e6" d="m61 298.6c0-5.1 4.1-9.2 9.3-9.2s9.2 4.2 9.2 9.2-4.1 9.2-9.3 9.2c-5.1 0-9.2-4.2-9.2-9.2zm17.4-.1c0-4.5-3.5-8.2-8.2-8.2s-8.2 3.7-8.2 8.3c0 4.5 3.5 8.2 8.2 8.2s8.2-3.7 8.2-8.3zm-13.1-.1c0-2.8 2.1-5.1 5.1-5.1 1.9 0 2.9.6 3.9 1.5l-1.4 1.7c-.8-.7-1.5-1.1-2.5-1.1-1.7 0-2.8 1.4-2.8 3.1s1.1 3 2.8 3c1.1 0 1.7-.5 2.5-1.1l1.4 1.4c-1.1 1.1-2.1 1.7-4 1.7-2.8.1-5-2.2-5-5.1z"/><path fill="#e6e6e6" d="m80.9 289.7h3.4l4.2 13.2 4.4-13.3h2.6l4.4 13.3 4.2-13.2h3.3l-6.2 18h-2.7l-4.4-12.8-4.4 12.8h-2.7z"/><path fill="#e6e6e6" d="m107.1 300.8c0-3.9 3.1-7 7.2-7s7.2 3.2 7.2 7-3.1 7-7.3 7c-4 0-7.1-3.1-7.1-7zm11.3 0c0-2.3-1.7-4.3-4.2-4.3s-4.1 2-4.1 4.3 1.7 4.3 4.1 4.3c2.6.1 4.2-1.9 4.2-4.3z"/><path fill="#e6e6e6" d="m123.7 294h3.1v3c.8-2 2.4-3.4 4.8-3.3v3.2h-.2c-2.7 0-4.6 1.7-4.6 5.4v5.1h-3.1z"/><path fill="#e6e6e6" d="m133.4 288.9h3.1v11.1l5.6-6h3.8l-5.4 5.5 5.5 8h-3.5l-4.1-5.8-1.9 1.9v3.9h-3.1z"/><path fill="#e6e6e6" d="m146 300.8c0-3.9 3.1-7 7.2-7s7.2 3.2 7.2 7-3.1 7-7.3 7c-4.1 0-7.1-3.1-7.1-7zm11.2 0c0-2.3-1.7-4.3-4.2-4.3s-4.1 2-4.1 4.3 1.7 4.3 4.1 4.3c2.6.1 4.2-1.9 4.2-4.3z"/><path fill="#e6e6e6" d="m162.4 302.6v-8.6h3.1v7.6c0 2.1 1.1 3.3 2.9 3.3s3-1.3 3-3.3v-7.6h3.1v13.4h-3.1v-2.1c-.8 1.3-2.1 2.3-4.2 2.3-3 .2-4.8-1.8-4.8-5z"/><path fill="#e6e6e6" d="m178.1 303.8v-7.1h-1.7v-2.7h1.7v-3.7h3.1v3.7h3.6v2.6h-3.6v6.6c0 1.2.6 1.7 1.7 1.7.7 0 1.3-.2 1.9-.5v2.5c-.8.5-1.7.7-2.8.7-2.3.1-3.9-.9-3.9-3.8z"/><path fill="#e6e6e6" d="m187.4 289.7h3.2v15h9.4v2.9h-12.5v-17.9z"/><path fill="#e6e6e6" d="m210.2 307.5v-1.7c-.9 1.1-2.3 2-4.4 2-2.6 0-4.8-1.4-4.8-4.2 0-3 2.3-4.4 5.4-4.4 1.7 0 2.6.2 3.7.5v-.2c0-1.9-1.2-2.9-3.3-2.9-1.5 0-2.6.3-3.9.8l-.8-2.5c1.5-.7 2.9-1.1 5.1-1.1 4 0 5.9 2.1 5.9 5.7v8zm.1-5.6c-.8-.3-1.9-.5-3.1-.5-2 0-3.1.8-3.1 2.1s1.1 2 2.6 2c2 0 3.5-1.1 3.5-2.9z"/><path fill="#e6e6e6" d="m219.2 305.5v2.1h-3.1v-18.7h3.1v7.4c1-1.4 2.4-2.5 4.5-2.5 3.2 0 6.3 2.5 6.3 7s-3.1 7-6.3 7c-2.2 0-3.6-1.1-4.5-2.3zm7.7-4.7c0-2.6-1.7-4.3-3.9-4.3s-3.9 1.7-3.9 4.4c0 2.6 1.8 4.3 3.9 4.3s3.9-1.7 3.9-4.4z"/><path fill="#e6e6e6" d="m231.2 305.8 1.4-2.1c1.4 1.1 3 1.7 4.4 1.7s2.1-.5 2.1-1.5-1.3-1.4-2.8-1.8c-.1 0-.2-.1-.2-.1-2-.6-4.2-1.4-4.2-4s2.1-4.1 4.8-4.1c1.7 0 3.5.6 5 1.5l-1.2 2.2c-1.3-.8-2.6-1.3-3.8-1.3s-1.9.5-1.9 1.4 1.3 1.4 2.8 1.8c.1 0 .2.1.2.1 2 .6 4.2 1.5 4.2 4 0 2.9-2.2 4.2-5 4.2-2 0-4.1-.7-5.8-2z"/><path fill="#e6e6e6" d="m360.6 298.6c0-5.1 4.1-9.2 9.3-9.2s9.2 4.2 9.2 9.2-4.1 9.2-9.3 9.2-9.2-4.2-9.2-9.2zm17.4-.1c0-4.5-3.5-8.2-8.2-8.2s-8.2 3.7-8.2 8.3c0 4.5 3.5 8.2 8.2 8.2s8.2-3.7 8.2-8.3zm-13.1-.1c0-2.8 2.1-5.1 5.1-5.1 1.9 0 2.9.6 3.9 1.5l-1.4 1.7c-.8-.7-1.5-1.1-2.5-1.1-1.7 0-2.8 1.4-2.8 3.1s1.1 3 2.8 3c1.1 0 1.7-.5 2.5-1.1l1.4 1.4c-1.1 1.1-2.1 1.7-4 1.7-2.8.1-5-2.2-5-5.1z"/><path fill="#e6e6e6" d="m380.5 289.7h3.4l4.2 13.2 4.4-13.3h2.6l4.4 13.3 4.2-13.2h3.3l-6.2 18h-2.7l-4.4-12.8-4.4 12.8h-2.7z"/><path fill="#e6e6e6" d="m406.7 300.8c0-3.9 3.1-7 7.2-7 4.2 0 7.2 3.2 7.2 7s-3.1 7-7.3 7c-4.1 0-7.1-3.1-7.1-7zm11.3 0c0-2.3-1.7-4.3-4.2-4.3s-4.1 2-4.1 4.3 1.7 4.3 4.1 4.3c2.7.1 4.2-1.9 4.2-4.3z"/><path fill="#e6e6e6" d="m423.3 294h3.1v3c.8-2 2.4-3.4 4.8-3.3v3.2h-.2c-2.7 0-4.6 1.7-4.6 5.4v5.1h-3.1z"/><path fill="#e6e6e6" d="m433 288.9h3.1v11.1l5.6-6h3.8l-5.4 5.5 5.5 8h-3.5l-4.1-5.8-1.9 2v3.9h-3.1z"/><path fill="#e6e6e6" d="m445.6 300.8c0-3.9 3.1-7 7.2-7 4.2 0 7.2 3.2 7.2 7s-3.1 7-7.3 7c-4.1 0-7.1-3.1-7.1-7zm11.3 0c0-2.3-1.7-4.3-4.2-4.3s-4.1 2-4.1 4.3 1.7 4.3 4.1 4.3c2.6.1 4.2-1.9 4.2-4.3z"/><path fill="#e6e6e6" d="m462.1 302.6v-8.6h3.1v7.6c0 2.1 1.1 3.3 2.9 3.3s3-1.3 3-3.3v-7.6h3.1v13.4h-3.1v-2.1c-.8 1.3-2.1 2.3-4.2 2.3-3.1.2-4.8-1.8-4.8-5z"/><path fill="#e6e6e6" d="m477.8 303.8v-7.1h-1.8v-2.7h1.7v-3.7h3.1v3.7h3.6v2.6h-3.6v6.6c0 1.2.6 1.7 1.7 1.7.7 0 1.3-.2 1.9-.5v2.5c-.8.5-1.7.7-2.8.7-2.2.1-3.8-.9-3.8-3.8z"/><path fill="#e6e6e6" d="m487.1 289.7h3.2v15h9.4v2.9h-12.5v-17.9z"/><path fill="#e6e6e6" d="m509.9 307.5v-1.7c-.9 1.1-2.3 2-4.4 2-2.6 0-4.8-1.4-4.8-4.2 0-3 2.3-4.4 5.4-4.4 1.7 0 2.6.2 3.7.5v-.2c0-1.9-1.2-2.9-3.3-2.9-1.5 0-2.6.3-3.9.8l-.8-2.5c1.5-.7 2.9-1.1 5.1-1.1 4 0 5.9 2.1 5.9 5.7v8zm.1-5.6c-.8-.3-1.9-.5-3.1-.5-2 0-3.1.8-3.1 2.1s1.1 2 2.6 2c2 0 3.5-1.1 3.5-2.9z"/><path fill="#e6e6e6" d="m518.8 305.5v2.1h-3.1v-18.7h3.1v7.4c1-1.4 2.4-2.5 4.5-2.5 3.2 0 6.3 2.5 6.3 7s-3.1 7-6.3 7c-2.2 0-3.5-1.1-4.5-2.3zm7.7-4.7c0-2.6-1.7-4.3-3.9-4.3s-3.9 1.7-3.9 4.4c0 2.6 1.8 4.3 3.9 4.3s3.9-1.7 3.9-4.4z"/><path fill="#e6e6e6" d="m530.8 305.8 1.4-2.1c1.4 1.1 3 1.7 4.4 1.7s2.1-.5 2.1-1.5-1.3-1.4-2.8-1.8c-.1 0-.2-.1-.2-.1-2-.6-4.2-1.4-4.2-4s2.1-4.1 4.8-4.1c1.7 0 3.5.6 5 1.5l-1.2 2.2c-1.3-.8-2.6-1.3-3.8-1.3s-1.9.5-1.9 1.4 1.3 1.4 2.8 1.8c.1 0 .2.1.2.1 2 .6 4.2 1.5 4.2 4 0 2.9-2.2 4.2-5 4.2-1.9 0-4.1-.7-5.8-2z"/><path fill="#e6e6e6" d="m659.5 298.6c0-5.1 4.1-9.2 9.3-9.2s9.2 4.2 9.2 9.2-4.1 9.2-9.3 9.2-9.2-4.2-9.2-9.2zm17.3-.1c0-4.5-3.5-8.2-8.2-8.2s-8.2 3.7-8.2 8.3c0 4.5 3.5 8.2 8.2 8.2 4.8 0 8.2-3.7 8.2-8.3zm-13-.1c0-2.8 2.1-5.1 5.1-5.1 1.9 0 2.9.6 3.9 1.5l-1.4 1.7c-.8-.7-1.5-1.1-2.5-1.1-1.7 0-2.8 1.4-2.8 3.1s1.1 3 2.8 3c1.1 0 1.7-.5 2.5-1.1l1.4 1.4c-1.1 1.1-2.1 1.7-4 1.7-2.9.1-5-2.2-5-5.1z"/><path fill="#e6e6e6" d="m679.3 289.7h3.4l4.2 13.2 4.4-13.3h2.6l4.4 13.3 4.2-13.2h3.3l-6.2 18h-2.6l-4.4-12.8-4.4 12.8h-2.7z"/><path fill="#e6e6e6" d="m705.5 300.8c0-3.9 3.1-7 7.2-7 4.2 0 7.2 3.2 7.2 7s-3.1 7-7.3 7c-4 0-7.1-3.1-7.1-7zm11.3 0c0-2.3-1.7-4.3-4.2-4.3s-4.1 2-4.1 4.3 1.7 4.3 4.1 4.3c2.7.1 4.2-1.9 4.2-4.3z"/><path fill="#e6e6e6" d="m722.1 294h3.1v3c.8-2 2.4-3.4 4.8-3.3v3.2h-.2c-2.7 0-4.6 1.7-4.6 5.4v5.1h-3.1z"/><path fill="#e6e6e6" d="m731.8 288.9h3.1v11.1l5.6-6h3.8l-5.4 5.5 5.5 8h-3.5l-4.1-5.8-1.9 2v3.9h-3.1z"/><path fill="#e6e6e6" d="m744.4 300.8c0-3.9 3.1-7 7.2-7 4.2 0 7.2 3.2 7.2 7s-3.1 7-7.3 7c-4.1 0-7.1-3.1-7.1-7zm11.3 0c0-2.3-1.7-4.3-4.2-4.3s-4.1 2-4.1 4.3 1.7 4.3 4.1 4.3c2.6.1 4.2-1.9 4.2-4.3z"/><path fill="#e6e6e6" d="m760.9 302.6v-8.6h3.1v7.6c0 2.1 1.1 3.3 2.9 3.3s3-1.3 3-3.3v-7.6h3.1v13.4h-3.1v-2.1c-.8 1.3-2.1 2.3-4.2 2.3-3.1.2-4.8-1.8-4.8-5z"/><path fill="#e6e6e6" d="m776.6 303.8v-7.1h-1.7v-2.7h1.7v-3.7h3.1v3.7h3.6v2.6h-3.6v6.6c0 1.2.6 1.7 1.7 1.7.7 0 1.3-.2 1.9-.5v2.5c-.8.5-1.7.7-2.8.7-2.3.1-3.9-.9-3.9-3.8z"/><path fill="#e6e6e6" d="m785.9 289.7h3.2v15h9.4v2.9h-12.5v-17.9z"/><path fill="#e6e6e6" d="m808.7 307.5v-1.7c-.9 1.1-2.3 2-4.4 2-2.6 0-4.8-1.4-4.8-4.2 0-3 2.3-4.4 5.4-4.4 1.7 0 2.6.2 3.7.5v-.2c0-1.9-1.2-2.9-3.3-2.9-1.5 0-2.6.3-3.9.8l-.8-2.5c1.5-.7 2.9-1.1 5.1-1.1 4 0 5.9 2.1 5.9 5.7v8zm.1-5.6c-.8-.3-1.9-.5-3.1-.5-2 0-3.1.8-3.1 2.1s1.1 2 2.6 2c2 0 3.5-1.1 3.5-2.9z"/><path fill="#e6e6e6" d="m817.6 305.5v2.1h-3.1v-18.7h3.1v7.4c1-1.4 2.4-2.5 4.5-2.5 3.2 0 6.3 2.5 6.3 7s-3.1 7-6.3 7c-2.1 0-3.5-1.1-4.5-2.3zm7.7-4.7c0-2.6-1.7-4.3-3.9-4.3-2.1 0-3.9 1.7-3.9 4.4 0 2.6 1.8 4.3 3.9 4.3 2.2 0 3.9-1.7 3.9-4.4z"/><path fill="#e6e6e6" d="m829.6 305.8 1.4-2.1c1.4 1.1 3 1.7 4.4 1.7s2.1-.5 2.1-1.5-1.3-1.4-2.8-1.8c-.1 0-.2-.1-.2-.1-2-.6-4.2-1.4-4.2-4s2.1-4.1 4.8-4.1c1.7 0 3.5.6 5 1.5l-1.2 2.2c-1.3-.8-2.6-1.3-3.8-1.3s-1.9.5-1.9 1.4 1.3 1.4 2.8 1.8c.1 0 .2.1.2.1 2 .6 4.2 1.5 4.2 4 0 2.9-2.2 4.2-5 4.2-1.9 0-4-.7-5.8-2z"/><path fill="#e6e6e6" d="m206.3 434.2c0-5.1 4.1-9.2 9.3-9.2s9.2 4.2 9.2 9.2-4.1 9.2-9.3 9.2-9.2-4.1-9.2-9.2zm17.4-.1c0-4.5-3.5-8.2-8.2-8.2s-8.2 3.7-8.2 8.3c0 4.5 3.5 8.2 8.2 8.2s8.2-3.7 8.2-8.3zm-13.1-.1c0-2.8 2.1-5.1 5.1-5.1 1.9 0 2.9.6 3.9 1.5l-1.4 1.7c-.8-.7-1.5-1.1-2.5-1.1-1.7 0-2.8 1.4-2.8 3.1s1.1 3 2.8 3c1.1 0 1.7-.5 2.5-1.1l1.4 1.4c-1.1 1.1-2.1 1.7-4 1.7-2.9.1-5-2.2-5-5.1z"/><path fill="#e6e6e6" d="m226.1 425.3h3.4l4.2 13.2 4.4-13.3h2.6l4.4 13.3 4.2-13.2h3.3l-6.2 18h-2.7l-4.4-12.8-4.4 12.8h-2.7z"/><path fill="#e6e6e6" d="m252.4 436.4c0-3.9 3.1-7 7.2-7 4.2 0 7.2 3.2 7.2 7s-3.1 7-7.3 7c-4.1 0-7.1-3.1-7.1-7zm11.2 0c0-2.3-1.7-4.3-4.2-4.3s-4.1 2-4.1 4.3 1.7 4.3 4.1 4.3c2.7.1 4.2-1.9 4.2-4.3z"/><path fill="#e6e6e6" d="m269 429.7h3.1v3c.8-2 2.4-3.4 4.8-3.3v3.2h-.2c-2.7 0-4.6 1.7-4.6 5.4v5.1h-3.1z"/><path fill="#e6e6e6" d="m278.6 424.5h3.1v11.1l5.6-6h3.8l-5.4 5.5 5.5 8h-3.5l-4.1-5.8-1.9 2v3.9h-3.1z"/><path fill="#e6e6e6" d="m291.3 436.4c0-3.9 3.1-7 7.2-7 4.2 0 7.2 3.2 7.2 7s-3.1 7-7.3 7c-4.1 0-7.1-3.1-7.1-7zm11.2 0c0-2.3-1.7-4.3-4.2-4.3s-4.1 2-4.1 4.3 1.7 4.3 4.1 4.3c2.6.1 4.2-1.9 4.2-4.3z"/><path fill="#e6e6e6" d="m307.7 438.2v-8.6h3.1v7.6c0 2.1 1.1 3.3 2.9 3.3s3-1.3 3-3.3v-7.6h3.1v13.4h-3.1v-2.1c-.8 1.3-2.1 2.3-4.2 2.3-3 .2-4.8-1.8-4.8-5z"/><path fill="#e6e6e6" d="m323.4 439.4v-7.1h-1.7v-2.6h1.7v-3.7h3.1v3.7h3.6v2.6h-3.6v6.6c0 1.2.6 1.7 1.7 1.7.7 0 1.3-.2 1.9-.5v2.5c-.8.5-1.7.7-2.8.7-2.3 0-3.9-.9-3.9-3.9z"/><path fill="#e6e6e6" d="m332.7 425.3h3.2v15h9.4v2.9h-12.5v-17.9z"/><path fill="#e6e6e6" d="m355.5 443.1v-1.7c-.9 1.1-2.3 2-4.4 2-2.6 0-4.8-1.4-4.8-4.2 0-3 2.3-4.4 5.4-4.4 1.7 0 2.6.2 3.7.5v-.2c0-1.9-1.2-2.9-3.3-2.9-1.5 0-2.6.3-3.9.8l-.8-2.5c1.5-.7 2.9-1.1 5.1-1.1 4 0 5.9 2.1 5.9 5.7v8zm.1-5.6c-.8-.3-1.9-.5-3.1-.5-2 0-3.1.8-3.1 2.1s1.1 2 2.6 2c2 0 3.5-1.1 3.5-2.9z"/><path fill="#e6e6e6" d="m364.4 441.1v2.1h-3.1v-18.7h3.1v7.4c1-1.4 2.4-2.5 4.5-2.5 3.2 0 6.3 2.5 6.3 7s-3.1 7-6.3 7c-2.1 0-3.5-1.1-4.5-2.3zm7.7-4.7c0-2.6-1.7-4.3-3.9-4.3-2.1 0-3.9 1.7-3.9 4.4 0 2.6 1.8 4.3 3.9 4.3 2.2 0 3.9-1.7 3.9-4.4z"/><path fill="#e6e6e6" d="m376.5 441.4 1.4-2.1c1.4 1.1 3 1.7 4.4 1.7s2.1-.5 2.1-1.5-1.3-1.4-2.8-1.8c-.1 0-.2-.1-.2-.1-2-.6-4.2-1.4-4.2-4s2.1-4.1 4.8-4.1c1.7 0 3.5.6 5 1.5l-1.2 2.2c-1.3-.8-2.6-1.3-3.8-1.3s-1.9.5-1.9 1.4 1.3 1.4 2.8 1.8c.1 0 .2.1.2.1 2 .6 4.2 1.5 4.2 4 0 2.9-2.2 4.2-5 4.2-2 0-4.1-.7-5.8-2z"/><path fill="#e6e6e6" d="m505.1 434.2c0-5.1 4.1-9.2 9.3-9.2s9.2 4.2 9.2 9.2-4.1 9.2-9.3 9.2-9.2-4.1-9.2-9.2zm17.4-.1c0-4.5-3.5-8.2-8.2-8.2s-8.2 3.7-8.2 8.3c0 4.5 3.5 8.2 8.2 8.2s8.2-3.7 8.2-8.3zm-13.1-.1c0-2.8 2.1-5.1 5.1-5.1 1.9 0 2.9.6 3.9 1.5l-1.4 1.7c-.8-.7-1.5-1.1-2.5-1.1-1.7 0-2.8 1.4-2.8 3.1s1.1 3 2.8 3c1.1 0 1.7-.5 2.5-1.1l1.4 1.4c-1.1 1.1-2.1 1.7-4 1.7-2.9.1-5-2.2-5-5.1z"/><path fill="#e6e6e6" d="m525 425.3h3.4l4.2 13.2 4.4-13.3h2.6l4.4 13.3 4.2-13.2h3.3l-6.2 18h-2.7l-4.4-12.8-4.4 12.8h-2.7z"/><path fill="#e6e6e6" d="m551.2 436.4c0-3.9 3.1-7 7.2-7 4.2 0 7.2 3.2 7.2 7s-3.1 7-7.3 7c-4.1 0-7.1-3.1-7.1-7zm11.2 0c0-2.3-1.7-4.3-4.2-4.3s-4.1 2-4.1 4.3 1.7 4.3 4.1 4.3c2.7.1 4.2-1.9 4.2-4.3z"/><path fill="#e6e6e6" d="m567.8 429.7h3.1v3c.8-2 2.4-3.4 4.8-3.3v3.2h-.2c-2.7 0-4.6 1.7-4.6 5.4v5.1h-3.1z"/><path fill="#e6e6e6" d="m577.5 424.5h3.1v11.1l5.6-6h3.8l-5.4 5.5 5.5 8h-3.5l-4.1-5.8-1.9 2v3.9h-3.1z"/><path fill="#e6e6e6" d="m590.1 436.4c0-3.9 3.1-7 7.2-7 4.2 0 7.2 3.2 7.2 7s-3.1 7-7.3 7c-4.1 0-7.1-3.1-7.1-7zm11.2 0c0-2.3-1.7-4.3-4.2-4.3s-4.1 2-4.1 4.3 1.7 4.3 4.1 4.3c2.6.1 4.2-1.9 4.2-4.3z"/><path fill="#e6e6e6" d="m606.5 438.2v-8.6h3.1v7.6c0 2.1 1.1 3.3 2.9 3.3s3-1.3 3-3.3v-7.6h3.1v13.4h-3.1v-2.1c-.8 1.3-2.1 2.3-4.2 2.3-3 .2-4.8-1.8-4.8-5z"/><path fill="#e6e6e6" d="m622.2 439.4v-7.1h-1.7v-2.6h1.7v-3.7h3.1v3.7h3.6v2.6h-3.6v6.6c0 1.2.6 1.7 1.7 1.7.7 0 1.3-.2 1.9-.5v2.5c-.8.5-1.7.7-2.8.7-2.3 0-3.9-.9-3.9-3.9z"/><path fill="#e6e6e6" d="m631.5 425.3h3.2v15h9.4v2.9h-12.5v-17.9z"/><path fill="#e6e6e6" d="m654.3 443.1v-1.7c-.9 1.1-2.3 2-4.4 2-2.6 0-4.8-1.4-4.8-4.2 0-3 2.3-4.4 5.4-4.4 1.7 0 2.6.2 3.7.5v-.2c0-1.9-1.2-2.9-3.3-2.9-1.5 0-2.6.3-3.9.8l-.8-2.5c1.5-.7 2.9-1.1 5.1-1.1 4 0 5.9 2.1 5.9 5.7v8zm.1-5.6c-.8-.3-1.9-.5-3.1-.5-2 0-3.1.8-3.1 2.1s1.1 2 2.6 2c2 0 3.5-1.1 3.5-2.9z"/><path fill="#e6e6e6" d="m663.3 441.1v2.1h-3.1v-18.7h3.1v7.4c1-1.4 2.4-2.5 4.5-2.5 3.2 0 6.3 2.5 6.3 7s-3.1 7-6.3 7c-2.2 0-3.6-1.1-4.5-2.3zm7.7-4.7c0-2.6-1.7-4.3-3.9-4.3s-3.9 1.7-3.9 4.4c0 2.6 1.8 4.3 3.9 4.3s3.9-1.7 3.9-4.4z"/><path fill="#e6e6e6" d="m675.3 441.4 1.4-2.1c1.4 1.1 3 1.7 4.4 1.7s2.1-.5 2.1-1.5-1.3-1.4-2.8-1.8c-.1 0-.2-.1-.2-.1-2-.6-4.2-1.4-4.2-4s2.1-4.1 4.8-4.1c1.7 0 3.5.6 5 1.5l-1.2 2.2c-1.3-.8-2.6-1.3-3.8-1.3s-1.9.5-1.9 1.4 1.3 1.4 2.8 1.8c.1 0 .2.1.2.1 2 .6 4.2 1.5 4.2 4 0 2.9-2.2 4.2-5 4.2-2 0-4.1-.7-5.8-2z"/></g>
</svg>
