<?xml version="1.0" encoding="utf-8"?>
<!-- Generator: Adobe Illustrator 23.0.1, SVG Export Plug-In . SVG Version: 6.00 Build 0)  -->
<svg version="1.2" baseProfile="tiny" id="Layer_1" xmlns="http://www.w3.org/2000/svg" xmlns:xlink="http://www.w3.org/1999/xlink"
	 x="0px" y="0px" viewBox="0 0 900 600" xml:space="preserve">
<g>
	<path d="M795.43,558.55l-0.1-0.1C795.29,558.52,795.17,558.55,795.43,558.55z"/>
	<path d="M715.47,523.47l-0.1-0.1C715.34,523.41,715.21,523.47,715.47,523.47z"/>
	<path d="M542.47,441.29c0.16,0.69,0.33,1.38,0.5,2.06C542.88,442.65,542.69,441.96,542.47,441.29z"/>
	<path d="M754.23,361.09l-0.1,0.1C754.23,361.2,754.53,361.22,754.23,361.09z"/>
	<path d="M539.33,317.85c0.15,0.34,0.29,0.68,0.42,1.02C539.63,316.98,536.12,310.58,539.33,317.85z"/>
	<path d="M718.69,362.4c-0.01,0.53-0.01,1.06-0.02,1.59C718.83,363.46,718.93,362.9,718.69,362.4z"/>
	<path d="M757.59,370.48l-0.1,0.1C757.61,370.58,757.59,370.64,757.59,370.48z"/>
	<path d="M587.57,534.99l0.1,0.1C587.67,534.88,587.7,534.91,587.57,534.99z"/>
	<path d="M615.31,386.59l-0.1-0.1C615.13,386.79,615.15,386.72,615.31,386.59z"/>
	<path d="M546.79,392.69c0.09-0.03,0.19-0.05,0.29-0.08C546.9,390.62,547.06,390.2,546.79,392.69z"/>
	<path d="M821.33,17.99c-0.82,3.27-9.71,180.1-19.89,355.24c-12.23,210.49-7.9,185.88-14.48,188.08c-7.09,1.23-4.96,4.63-7.34,2.96
		c-3.43-2.41-8.39-2.84-9.79-3.77c-2.89-2.17,2.02-2.49,3.77-3.77c1.31-8.2,1.76-7.94,0.1-8.77c-4.77-1.28-37.7-15.31-45.59-18.77
		c-1.43,0.2-0.31,1.53-0.92,2.35c-3.2,0.99-13.13,2.81-31.01,9.79c-11.47,4.48-10.17,4.46-4.79-4.59c2.29-3.85,5.2-7.24,8.06-10.71
		c0.92,0.2,1.53,1.22,2.65,0.82c4.67-1.17,9.51,0.3,13.2-3.4c-0.14-0.04-11.93,1.05-14.11,1.36c0.38-2.25,1.8-2.65,4.49-7.45
		c0.74-1.31,1.33-2.65,1.94-3.98c6.73,2.45,6.73,2.45,8.36,2.04c0.43-1.5-2.45-1.93-3.98-2.24c-4.41-0.91-5.82,0-1.33-4.9
		c27.45,9.15,32.12,13.2,47.43,18.56c4.29,1.5,8.78,2.33,12.95,4.28c8.85,4.13,4.67,8.91,18.66-244.89
		c14.06-254.88,15.94-275.34,11.63-266.71c-0.61,1.21-12.76,240.98-15.3,284.15c-9.84-3.18-11.15,0.29-10.51-3.57
		C789.01,1.72,788.97,17.77,786.87,17.07c-2.27-0.76-1.89,1.9-3.26,33.76c-12.14,280.74-8.63,244.95-14.28,250.6
		c3.74,2.25-1.91,13.52,5.92,7.65c0.71-1.53,0.1-3.37,1.43-4.59c2.14-0.2,6.83,0.2,9.49,0.92c0,13.37-0.42,12.41-6.32,10.2
		c-62.73-14.96-56.06-12.14-34.47-12.14c1.59,2.39,0.04,2.14,7.96,2.14c1.09,0,1.84-1.8,2.14-2.55c0.35-0.12,9.78,0.36,12.04,0.92
		c1.5,0.37,1.73-1.15,1.73-2.55c-4.41-1.35-9.53-0.37-13.97-0.82c-1.08-8.67,1.35-8.32-2.24-11.73c0-34.84,14.3-301.85,7.24-275.48
		c-0.43,1.62-9.14,272.97-10.61,275.99c-7.6,15.65,4.43,10.64-26.93,11.93c-7.84,0.32-1.94,11.44-5.1,41.41
		c-0.09,0.89-0.2,17.33-0.2,17.44c0,2.54,0.3,1.84,1.02,1.84c1,1-0.81,0.75,1.53-28.56c0-5.08,9.01,1.47,15.3,0
		c-6.86-2.29-10.96-2.43-15.09-3.98c0-15.18-1.61-13.25,6.43-10.71c1.94,0.61,3.77,1.43,6.53,1.12c-4.28-2.55-8.77-3.26-12.75-5.1
		c-0.25-1.12-0.53-8.97,0.1-10.51c2.18,0,57.83,13.33,59.46,13.87c0.31,2.96-0.1,8.67-0.82,10.91c-9.95-0.56-21.24-4.55-15.2-1.63
		c12.32,5.96,15.4,1.54,15.4,5.3c-2.6,34.08-0.76,32.86-4.28,32.23c-39.95-7.15-12.76-0.7,1.94,1.84c-0.36,7.56,0.45,8.79-3.98,7.55
		c-16.04-4.5-11.34-3.34-15.4-3.76c0,1.28,1.61,1.91,2.86,2.23c7.68,2.01,7.52,3.82,9.18,2.75c0.56-0.36,2.28,0.25,5.1,1.02
		c3.44,5.41,2.23-5.88-2.14,72.01c-0.92,16.4,1.66,11.68-13.77,9.38c4.49,2.35,8.87,2.24,12.85,4.08c0,2.62-1.07,17.76-1.12,18.56
		c-1.05,15.69-0.4,19.08-3.16,18.15c-50.31-16.89-46.38-15.47-46.61-16.52c4.8-11.21,7.57-10.2,8.47-20.09
		c0-2.47-0.56-0.06-1.73-5.41c-1.59-7.25-5.47-7.5-6.73-9.89c-0.94-1.78-2.18-2.43-6.73-6.53c0.82-4.79,0.31-9.59,1.22-14.48
		c3.82,2.33,4.66,2.87,40.9,10.71c-6.39-6.39-34.11-7.08-41-12.44c1.57-29.04,1.21-39.22,2.24-42.33c9,3,47.32,11.66,47.43,11.63
		c-5.29-3.75-15.74-5.83-21.62-7.04c-34.08-6.98-25.19-3.68-24.58-18.46c0.17-4.08,0.08-4.19,0-3.77c-1.54,1.28-1.46-0.57-2.04,4.08
		c-1.08,8.65-2,67.1-3.77,69.76c-3.47-3.26-8.06-2.75-12.44-3.37c-0.41-0.71-0.82-1.43-1.33-2.35c8.84-8.84,4.68-12.07,5.41-13.87
		c1.34-5.35,5.17-13.52-1.94-18.26c0-21.57,1.72,36.87,11.02-264.37c0.8-25.94-0.01-21.45,14.59-10.91c3.74,2.7,1.92-0.23,7.14-0.51
		c5.73-0.3,4.83-10.41,2.65-7.14c-1.52,2.74-1.28,4.15-2.86,4.9c-1.03,0.49-2.14,0.82-3.26,0.1c0.1-1.84,1.51-2.97,2.45-4.39
		c2.78-4.17,5.67,0.06,2.96-4.69c-2.44-0.14-2.78-0.32-18.05-9.69c-4.78-2.93-7.71,10.55,0.41-98.63c0.17-2.26,1.37-3.9-0.2-4.69
		c-1.29-0.65-2.32,1.07-2.65,2.35c-0.64,2.48-3.79,93.48-4.79,97.3c-1.53-0.41-2.86-1.12-3.88-2.14c0-55.64,6.42-98.86,1.22-96.69
		c0,15.43-2.88,45.13-3.67,91.59c-0.04,2.64,0.23,4.69-6.32,0.1c0-7.36,4.17-87.49,3.47-89.75c-0.16-0.53-2.76-2.3-2.86,3.06
		c-0.14,7.5-3.43,81.48-3.98,84.76c-1.67,0.26-5.03-2.48-8.06-2.65c-4.91-2.53-6.42-0.14-21.93-1.73c-0.85,0-0.87-1.32-1.12-4.59
		c-1.33-1.33-3.06-1.12-4.69-1.94c-0.31-0.92-0.61-1.94-0.92-3.16c-19.81-3.3-13.55,1.73-20.7,1.73c-2.19,0-2.34,1.35-3.47,3.98
		c-5.85,0.58-4.81,1.4-5.51,4.9c-7.45,1.22-14.89,2.24-22.64,1.94c-0.31-0.82-0.51-1.53-0.82-2.45c-2.04-1.22-4.69,0-6.83-1.22
		c-0.95-1.71,1.22-4.18,2.04-2.55c0.58,1.16-0.38,0.54,1.53,2.45c0.2-1.43,0.31-2.35,0.41-3.26c1.12,0.1,0.51,1.12,1.22,1.63
		c2.59-1.73,5.55-9.17,3.77-16.01c-1.44-4.33,1.27-31.26,3.57-58.03c0.55-6.44,1.01-9.29-1.73-9.49c-3.28-0.44-3.01,3.96-3.47,8.87
		c-5.16,55.44-2.52,33.49-6.22,42.12c-1.42,2.63-1.12,5.56,2.04,7.14c0.4,3.82-4.07,7.24-5.71,14.59
		c-1.82,8.16,5.33,13.57-1.84,12.85c-3.25-0.33-3.43,2.14-4.18,3.26c-1.43,0.41-2.65-0.31-3.98-0.51c-0.32-3.82-0.48-6.94-4.79-6.94
		c-4.1,0.51-4.06-3.52-7.85-2.35c-4.29,1.33-4.9-2.92-6.83-0.71c-0.23,1.49,2.63,0.94,1.22,2.35c-2.69,0.38-1.66-0.77-2.86,2.35
		c-1.16,3.04-0.14,8.77,1.22,4.69c0.31-1.25-0.73-4.84,2.65-5.61c6.7-1.53,6.98-1.26,7.96,0c-1.33,0.31-2.65,0.51-3.88,0.82
		c-3.12,11.45-0.6,11.04-2.75,12.95c-3.87,0.55-1.92,0.71-4.18-6.63c-0.93,5.88-0.62,3.93-2.55,4.28c-0.61,0.11-0.92,1.02-1.94,0.51
		c-1.41-6.79-3.52-13.26,4.18-13.26c0.79-4.32-5.38-2.4-9.28-1.43c-1.73,2.24-1.73,2.24-2.75,5.81c-0.51,0.2-1.22,0.31-1.73,0.71
		c-7.01,5.43-0.59,5.81-5.2,6.73c-8.45,1.1-5.67,1.41-9.38,1.94c-4.67,0.66-6.31,0.59-7.24,1.53
		c-30.04,27.03-20.83,23.6-24.99,24.99c-5.47,2.15-4.5,8.66-4.5,10.71c8.46,3.52,12.66-2.52,27.13-20.19
		c2.85-3.48,3.26-2.06,4.28-3.77c1.49-1.79,2.78-6.43,16.11-6.43c5.19,4.39,6.24,4.97,6.73,7.65c1.91,10.51,2.91-0.53,0.41,24.38
		c-0.42,4.16-1.46,5.21-4.79,13.77c-1.64,4.2-0.1,3.01-0.61,7.04c-1.89,14.94,0.66,17.85,1.43,34.27
		c-9.27,4.36-16.79,7.66-19.48,16.73c-1.69,0.56-1.2-0.23-3.06,1.63c2.29,4.02-1.06,0.52-2.86,2.96c-0.91,1.23-1.63,2.45-1.33,4.08
		c0.62,1.86-0.47,0.93,2.75,1.73c0.61,0.92-0.71,1.93,0.2,2.96c0.76,0.85,0,0.07,0,8.98c-1.73,0.41-2.04,1.63-2.14,3.16
		c7.24,10.87,1.51,7.02,6.83,11.12c8.15,6.27-1.18,2.53-4.39,23.05c-2.42,15.49,5.2,35.27,5.2,38.55c0,3.12,1.88,7.54,3.57,9.79
		c1.06,1.41,1.25,2.36-1.33-4.18c-1.19-2.38,1.12-0.3,1.12-6.73c0-4.49,1.84-2.25,3.06-12.44c0.54-4.48,4.71-20.01,8.34-22.83
		c-3.93,12.3-1.28,15.41,3.08,19.77c2.88,2.88,5.42,1.76,9.38,1.43c0.76-0.87,12.87-15.18,16.52-15.91
		c4.39-1.23,8.66-2.53,8.98-1.43c-3.62,2.07-11.6,5.55-15.81,16.11c-7.7,19.33,1.04,32.03,2.24,35.19
		c5.25,13.74,13.91,18.01,20.3,24.99c3.94,4.3,13.17,6.09,19.07,6.32c6.97,0.27,14.97-8.66,10.1-1.84
		c2.87,3.59-0.89-2.53-1.63,27.84c1.05,2.31,0.26,2.84-2.35,13.97c-2.6,11.1-2.13,13.11-6.22,13.97
		c-20.28,4.26-10.57,3.57,2.65-19.68c3.65-6.43-11.54,12.54-14.48,18.66c-0.63,1.32-1.43,2.55-2.24,3.77
		c-15.24,3.98-35.8-1.55-44.06-8.16c-0.41-3.47-0.82-6.83-1.33-10.2c-0.88,6.6,0.91,11.72-1.84,8.06c-0.61-0.71-0.92-1.73-1.63-2.04
		c-2.24-1.22-2.59-3.17-2.35-5.2c0.04-0.29,0.34-0.32-2.35,0.41c-0.13,0.26-3.54,10.46-3.88,11.42c-5.86,16.7-1.96,24.89,1.92,36.54
		c-4.51-18.56-5.32-20.46,1.14-43.07c1.02,1.33-0.51,2.45-0.2,3.47c1.84,2.55,5,3.57,6.43,6.12c2.21,0.55,2.16-0.45,3.37,2.75
		c2.79-1.4,1.69,0.1,3.06-0.82c-5.13-4.7,4.56,0.46,10.61,3.88c3.29-1.88,0.25-1.04,7.65,0.82c4.09,1.03,7.22,1.09,7.65,1.73
		c1.33,2,4.09,1.74,10.91,1.43c-2.11-0.94-3.71-0.33-3.88-1.84c3.88,0.41,7.55-1.43,11.63-1.33c3.45-2.3,3.29-1.7,4.39,1.22
		c5.37-1.79,5.42,0.55,12.04-2.75c0.61,0.31,1.02,0.61,1.73,1.02c-0.36-3.58,0.47-2.75-2.14-2.75c-1.33-3.99,0.53-0.96,0.92-4.9
		c0.6-6.09,0.45-3.06,5.61-25.09c23.87,5.97,21.21,7.15,31.92,7.85c4.31,0.28,3.69,3.03,12.14,5.3c25.28,6.8,20.89,5.55,22.64,6.43
		c-6.16,5.51-6.28,5.76-5.61,6.43c3.38-1.69,8.53-4.15,8.77-4.39c2.18-1.74-0.6-1.68,4.69-0.71c0.1-0.61,0.1-0.92,0.1-1.22
		c-5.86-0.73-3.75,14.55,5-212.25c0-0.1,2.9-75.46,4.08-75.98c5.07,2.54,3.75-3.79,1.02,58.34c-7.61,173.3-9.66,230.27-10.1,230.71
		c2.77,2.22,8.55,1.46,2.65,23.05c-1.92,7.03-16.56,10.48-17.13,10.71c4.72,1.26,9.31-0.4,12.65-1.43
		c5.11,8.76,5.19,22.33-2.35,28.25c-12.64,9.93-2.62,0.73-44.26,9.08c-6.73,1.35-23.66,4.18-25.91,4.59
		c6.63,5.53,54.02-9.45,62.83-7.45c-2.96,3.77-5.92,7.55-9.18,11.53c-0.61,0.31-1.82,0.32-2.65,1.33c-3.4,4.14-9.14,5.61-14.48,5.61
		c-0.1,0-18.4-0.24-22.03-1.43c-6.25-6.58-6.86-7.74-9.49-7.04c-6.98,1.4-2.11-1.98-23.15-4.08c-1.51,0-1.86,0.65,0.1,1.63
		c1.02,0.51,2.35,0.41,3.16,1.73c-34.43,2.3-25.52,12.4-45.79,1.63c-8.52-4.52-9.37-4.52-9.79-6.83c-0.71-3.89-1.98-5.67-0.92-8.16
		c-0.31-1.84-2.24-2.96-0.71-4.69c7.85,1.94,14.69,5.92,21.52,10.3c-0.2,2.35,0.61,4.49,1.73,6.94c2.06-5.92-2.21-8.68,9.38-3.37
		c1.47,1.47-3.35,0.24-4.39,2.65c1.15,1.15,2.12,0.41,6.22-1.02c2.36-0.82,14.76,2.17,15.4-1.33c0.53-2.9-20.25-1.41-25.09-5.61
		c-3.88-3.37-8.44-5.74-12.65-8.67c-4.55-3.17-7.55-2.62-10.4-4.9c0.24-1.22,0.7-1.33-0.82-1.33c-5.94-0.85-4.47-5.18-7.65-5.41
		c-0.63,0-1.44-2.6-1.53-3.26c-0.91-3.42-1.36,3.11,5.1,7.96c0.31,1.84,1.12,3.57,2.86,4.69c-1.73,5.89-1.47,4.46-1.02,5.81
		c2.2,9.89,2.09,11.97,5.51,13.57c8.16,3.81,7.41,3.21,7.75,7.24c0.44,5.2,4.41,1.92,6.22,4.18c0.51,0.71,3.67,0.61,4.49,0.1
		c0.2-0.1,0.2-0.61,0.31-0.92c-5.97-4.27-8.08-1.53-8.67-3.88c-0.99-3.97,4.92,1,8.06,1.84c1.22,0.33,1.33,2.04,2.65,1.84
		c16.35-8.18,61.46-12.05,34.88-5.41c-22.96,5.74-13.81,4.99-29.17,8.06c-7.09-0.46-9.38-5.15-4.18,1.33
		c2.06,2.57,3.7,1.48,12.24-0.82c4.84-1.61,0.05,8.53,1.33,17.75c0.76,5.48-1.07,6-2.04,19.58c-0.18,2.59-1.88,3.99-5.51,3.26
		c-3.6,3.4-3.33,7.81-4.59,13.67c-0.2,0.92,0.61,1.43,0.82,2.24c-3.93,6.8-7.02,9.92-3.47,13.36c11.43,11.07,26.86,1.74,29.48,0.61
		c5.91-2.56,1.99-7.24,8.06-7.24c2.49,0,5.37,0.24,6.83-1.22c0.66-0.83,8.77-0.18,13.77-8.77c1.33-0.71,2.45-1.33,3.88-2.04
		c8.6,7.37,6.16,5.23,15.09,7.96c2.2,0.67-0.11,2.42-2.65,9.59c-7.09-1.18-3.26,3.8-6.94,11.32c-7.87,16.09-10.23,14.76-7.55,17.44
		c15.31,15.31,18.3,12.19,39.37,6.53c6.46-1.74,9.58-0.71,18.66-0.71c3.91,0,2.33-0.42,15.2-6.73c16.88-8.28,10.85-14.28,8.06-15.4
		c-3.72-1.49-2.37-3.47-6.22-4.28c-7.14-1.51-17.77-0.84-26.93-10c-3.39-3.39-3.55-1.64,0.71-10.51c0.15-0.04,6.39-1.34,9.28-2.35
		c31.08-10.79,28.99-8.21,33.96-10.51c2.23,0.95,2.29-1.56,7.45,1.02c9.47,4.73,32.86,13.17,36.31,14.89
		c-0.2,1.63-0.41,3.16-0.71,4.9c-2.75,1.33-4.28,3.98-6.73,6.02c0.89,1.11,0.72,1.09,3.16,2.14c11.13,4.05,10.89,5.39,13.67,4.08
		c6.85-3.22,9.84-3.67,13.19-8.38c-0.29-0.02-0.62-0.08-1.05-0.08c-0.41-2.65-0.2-5.3,0.2-8.06c0.81-0.42,42.62-16.17,19.38-9.18
		c-6.09,1.83-10.28,3.47-18.77,6.02c-0.51-2.55-0.41-8.47,0.31-12.44c2.6-0.65,5.68-0.98,7.24-2.55c-1.31,0.06-6.43,1.57-6.43,0.82
		c20.8-8.14,32.03-14.48,11.12-6.63c-4.58,1.72-6.94,2.64-11.63,3.98c-0.41-3.06,0.71-25.5,1.84-37.23c9.1-2.68,7.6-2.5,8.36-4.28
		c-1.22-0.1-1.94,0.41-2.75,0.71c-6.52,2.45-5.95,6.54-4.39-16.32c7.94-116.27,2.5-94.11,9.69-98.22c0.53-2.64,1.38-2.51-3.77-1.22
		c-0.51-3.06-0.2-9.18,0.61-13.16c2.43-0.4,3.29,0.08,3.77-1.12c-3.99-2.54-4.55,6.44-3.16-13.46c0.1-0.05,17.18-319.71,18.46-327.4
		C824.76,16.58,821.79,16.15,821.33,17.99z M751.17,294.08c0,7.48,0.09,6.73-0.2,6.73C750.96,293.34,750.88,294.08,751.17,294.08z
		 M601.75,56.13c-0.82-1.12-0.82-1.12,0.2-2.96C601.85,54.3,601.85,55.12,601.75,56.13z M604.71,71.23
		c0.51,3.47-0.31,6.22-1.53,9.18c-1.22-0.92-1.43-2.04-1.43-3.16C601.41,71.07,602.36,71.75,604.71,71.23z M546.88,98.77
		c-7.18,1.2-11.98,2-16.42,6.83c-22.64,24.65-22.94,25.1-23.87,25.29c-12.66,2.62,2.15-9.95,10.61-18.05
		c20.73-19.87,6.66-13.89,29.17-16.93C547.45,95.91,547.4,97.82,546.88,98.77z M528.31,231.97c1.97-1.57,0.93-2.83,2.45,0.71
		C529.33,233.81,529.33,233.81,528.31,231.97z M533.52,231.26c0,2.93-1.41,0.99-2.45-1.33
		C533.11,229.73,533.41,229.93,533.52,231.26z M533.92,239.31c-3.59-4.19-2.4-5.29,0-4.49
		C533.92,236.25,533.92,237.58,533.92,239.31z M533.92,213.82c-0.23-0.23-0.33-0.08,0-0.41
		C533.92,213.61,533.92,213.71,533.92,213.82z M546.26,401.18c-0.2-0.2-0.29-0.14,0-0.71C546.46,400.66,546.6,400.5,546.26,401.18z
		 M607.77,414.03c-1.94-1.29,0.17-3.36,0.92-1.12C608.79,413.52,608.28,414.23,607.77,414.03z M613.27,411.99
		c0-1.53,1.01-2.17,1.43-0.31C614.82,412.23,614.41,413.12,613.27,411.99z M656.93,79.9c-1.12-0.41-1.73-0.71-2.96-1.12
		C655.91,78.88,655.91,78.88,656.93,79.9z M653.97,82.35c3.55,0.47,6.6-0.08,8.06,1.22c0.2,1.02,0.51,2.14-0.2,3.16
		c-2.75,0.31-5.41,0.2-8.36-0.31c-1.56-2.5-4.3-2.26-5.3-3.77C648.92,80.75,648.59,81.34,653.97,82.35z M644.08,79.19
		c0.71-0.2,1.53-0.41,2.86-0.82c-0.71,1.63-1.24,2.85-1.84,3.98C644.48,83.53,640.99,85.1,644.08,79.19z M639.08,81.33
		c-0.1,2.65,0,2.75-0.71,3.47c-0.61,0.61-1.02,1.73-2.35,1.63C635.77,84.46,636.62,80.23,639.08,81.33z M640.81,93.67
		c0.93,2.78,0.9,1.02-2.96,1.02C636.13,91.68,637.8,92.85,640.81,93.67z M631.02,85.71c4.35-1.24,0.42-0.43,4.49,5
		c-0.71,0.71-1.43,1.33-1.43,2.55C634.08,96.28,629.98,92.58,631.02,85.71z M600.01,70.21c-0.2,4.28-0.92,7.96,1.12,11.32
		C595.62,81.05,597.47,75.12,600.01,70.21z M601.75,89.08c4.82,0.96-7.08,0.92-9.59,0.71C593.13,87.69,593.97,88.06,601.75,89.08z
		 M628.16,90.1c0.92,1.84,1.73,3.47,2.65,5.3c-8.13,0.71-44.67,3.45-53.55,0.92c0.61-1.84,1.22-3.37,1.84-5.1
		C585.39,91.22,607.7,93.51,628.16,90.1z M622.35,189.54c1.13,8.4-3.06,6.42-9.89,21.42c-1.75,3.84-2.13,11.48-4.49,17.13
		c-2.83,6.79-5.79,9.2-6.43,9.08c-1.63-2.65-3.16-5.1-4.69-7.65c3.55-3.55,3.24-4.59-3.88-11.12c0.51-1.43,0.53-2.87-0.41-4.18
		c-0.38-0.53,0.16-2.12-1.22-4.9c-1.79-3.57-2.92-5.24-3.67-9.38c0.73-0.49,2.66-1.79,2.45-2.65c-0.38-3.01,1.19-5.23-0.92-7.04
		c-2.28,1.9-1.57,2.42-3.26-2.65c0.63-2.84,1.57-3.96,0.1-4.79c-2.65,0.1-4.39,1.94-6.43,3.88c0-6.87,3.75-7.99,2.35-24.58
		c-0.82-9.66-1.24-17.81-1.63-24.99c-0.61-5.47-2.04-2.36-1.73-12.75c0.21-2.48,0.37-4.08-0.2-12.44
		c13.96-17.95-16.18-9.63,49.98-13.77c0.57,5.39-1.25,6.77,0.2,10.61c1.07,2.82,0.82,5.76,0.82,12.55c0,5.64-2.08,5.05-2.75,12.65
		C624.79,154.82,618.72,162.43,622.35,189.54z M586.65,202.9c0,0.1,0.24,0.41,0,0.41C586.65,203.16,586.44,202.9,586.65,202.9z
		 M586.65,206.88C586.65,206.88,586.65,206.88,586.65,206.88c0,0.02,0,0.1,0,0.41C586.65,207.08,586.44,207.1,586.65,206.88z
		 M572.88,234.42c0.92-1.12,1.84-2.04,2.75-3.16c2.66,1.52,2.34,0.95,0.82,2.86C576.35,234.7,578.75,239.7,572.88,234.42z
		 M564.93,191.07c0.73-0.63,0.12-0.39,10.4-3.16c0.1,0.61-0.1,1.02-0.71,1.33C571.73,190.27,567.9,191.85,564.93,191.07z
		 M571.05,205.76c-0.78-1.17-0.95-0.66-0.71-1.12C571.65,204.64,572.32,204.91,571.05,205.76z M565.13,241.15
		c-1.84-0.41-1.84-0.41-2.14-2.14C563.6,239.62,564.32,240.33,565.13,241.15z M563.4,235.44c0.1,0.1,0.2,0.31,0.31,0.41
		C563.5,235.74,562.99,235.95,563.4,235.44z M563.71,214.94c0.69,0,1.1,0.41,0.2,0.41C563.81,215.35,563.81,215.04,563.71,214.94z
		 M566.15,256.04c0.1,0.1-0.1,0.41-0.31,0.71c-0.61-0.2-1.22-0.41-2.04-0.61C564.97,253.05,564.36,252.91,566.15,256.04z
		 M565.85,210.45c-0.78-1.57,2.58-1.09,1.53,1.63C566.76,211.37,566.26,210.96,565.85,210.45z M567.68,229.73
		c-0.22,0.22-0.31-0.1-0.31-0.2C567.38,229.38,567.68,229.33,567.68,229.73z M575.64,212.39c-2.49-0.96-2.07-3.77-2.45-5.1
		c0.31,0.1,0.71,0,0.92,0.2C574.82,208.31,575.54,210.96,575.64,212.39z M573.5,229.93c-1.92,1.92,1.16-5.85,4.69-0.31
		C576.01,228.9,575.01,228.42,573.5,229.93z M576.76,206.06c2.37-1.08,2.43,1.44,1.43,1.94
		C577.78,207.39,577.37,206.78,576.76,206.06z M581.25,223.61c-1.22-0.31-2.14-0.2-2.55-1.33
		C580.14,220.84,579.82,221.04,581.25,223.61z M579,200.25c0.2-0.71,0.61-1.53,0.31-1.84c-1.66-2.03-0.28-3.01-2.35-4.39
		c-0.75-0.75-0.25-0.57,0.82-1.63c0.92,1.22,1.94,0.51,2.96,0.31c-1.54,5.66-0.19,5.39,3.06,0.51
		C582.38,202.79,582.14,201.43,579,200.25z M574.62,84.49c0.61-0.1,1.43-0.1,2.14-0.31c0.51-0.2,0.82-0.71,1.22-1.02
		c1.02,0,1.94,0.41,2.96,0.2c2.74-0.57,3.82,3.07,2.75,5.2c-3.68,0-2.56,0.54-3.98-2.65c-1.33,1.22-0.71,3.16-2.04,3.98
		c-0.31,1.53-0.61,2.96-1.02,4.69c-1.52-0.65-1.84-0.26-1.84-1.73C574.48,86.65,572.78,86.53,574.62,84.49z M564.01,95.61
		c3.08,1.54,2.1,4.44-1.12,1.22C563.3,96.42,563.6,96.01,564.01,95.61z M558.2,82.65c0.1,1.84-0.31,2.14-2.55,2.24
		C556.81,80.48,558.2,81.7,558.2,82.65z M558.5,116.92c-0.22-13.59-8.7-11.85-8.87-18.66c-0.05-2.04,0.1-4.08,0.1-6.12
		c0-3.3,11.17-7.36,9.08-3.77c-1.77,3.04-1.73,3.06-5.81,4.08c0,0.92,0.4,1.44,1.12,1.94c12.09,8.45,12.09,8.71,13.06,5.81
		c2.46-0.58,12.59-1.03,13.87,0c-0.76,3.82-1.95,6.3-3.16,8.16c-4.27,6.53-1.61,10.15-1.43,18.97c0.19,9.2,1.87,8.95,1.94,13.77
		c0.19,14.73,1.46,9.81,1.02,18.77c-1.23,24.74-6.53,23.25-1.94,25.09c-1.06,1.58-10.33,3.38-12.65,3.67c-2.81,0,1-4.91-2.65-8.57
		c-0.82,3.26,1.02,6.22-0.31,9.08c-2.75,0.31-5.41,0.61-8.06,0.92c2.12-2.43-1.18-1.92-1.53-33.86
		C552.12,141.39,558.9,141.35,558.5,116.92z M557.99,94.59c-0.34,0.68-0.25,0.57-0.92-0.1C557.77,94.14,557.99,94.4,557.99,94.59z
		 M562.28,256.35c-1.22,0.71-1.63,0.31-2.04-1.94c-1.01-1.52-0.71-0.29-0.71-2.24c0.71,1.02,0.92,1.53,0.71,2.24
		C561.16,254.82,561.67,255.53,562.28,256.35z M560.03,208.21c0.51-0.2,0.82-0.2,0.92,0.31c0.31,0.1,0.71,0,1.43,0
		C561.38,209.66,561.51,208.58,560.03,208.21z M550.85,223.91c1.53-0.61,1.53-0.61,2.35,0.41
		C552.38,224.53,551.57,224.42,550.85,223.91z M553.1,242.27c-0.05-0.05-0.12-0.07-0.2-0.1C553,242.17,553,242.27,553.1,242.27z
		 M552.69,242.07c-0.67-0.78-1.16-1.56-1.3-2.6C552.69,239.91,552.79,240.99,552.69,242.07z M550.04,264.51
		c-0.05-0.75,0.35-1.24,1.12-1.73C551.26,263.89,550.96,264.4,550.04,264.51z M552.28,209.74c-0.1-0.1,0.1-0.51,0.2-0.51
		c1.14-0.38,1.09,0.01,1.94,1.02C553.31,210.39,552.74,210.65,552.28,209.74z M556.06,196.99c0.51,0,1.02,0.2,1.02,1.02
		C552.54,197.4,551.07,196.99,556.06,196.99z M556.77,211.06c-1.2,0-1.24,0.28-1.63-0.51C555.76,210.24,556.23,210.63,556.77,211.06
		z M555.14,254.41c2.94-1.47,0.16,1.12,3.26,3.26C559.06,258.99,552.68,255.64,555.14,254.41z M556.97,246.35
		c0.13-0.39,0.06-1.06,0.92-0.2C557.7,247.12,557.71,246.35,556.97,246.35z M555.34,213.51c1.31,0.29,4.83,0.17,3.47,2.45
		C557.59,215.45,556.26,214.84,555.34,213.51z M551.16,192.6c-4.09,0-1.91,0.35-3.06,0.75C550.42,189.72,554.34,191.97,551.16,192.6
		z M550.02,264.63c-0.04,0.31-0.2,0.48-0.48,0.5C549.7,264.99,549.87,264.83,550.02,264.63z M547.9,194.85
		c-8.24,4.66-5.99,4.3-8.77,3.06C549.4,191.53,547.9,193.4,547.9,194.85z M547.69,197.8c-0.42,0.42-0.1,0-0.61,0
		c0.2,0,0.2-0.1,0.31-0.1C547.49,197.7,547.59,197.8,547.69,197.8z M545.55,223.1c0.18-0.53-0.17-0.77,1.12,0.31
		C546.06,223.2,545.75,223.2,545.55,223.1z M546.57,242.68c-0.57-0.28-0.49-0.42-0.1-0.82
		C546.79,242.18,546.57,242.23,546.57,242.68z M541.16,212.69c0.51,1.73,0.92,3.26,1.33,4.59c-0.61,1.33-1.53,1.73-2.75,1.33
		C541.92,212.54,536.55,216.16,541.16,212.69z M540.65,232.18c1.12,0.31,2.04,0.61,3.37,1.22c-1.12,0.82-1.84,1.33-2.55,1.73
		C538.24,233.52,539.31,233.85,540.65,232.18z M543.51,211.16c-0.2,0-0.51-0.2-0.92-0.31c0.41-0.31,0.61-0.51,0.92-0.61
		C543.67,210.25,544.82,211.16,543.51,211.16z M545.35,218.2c-0.71,0.71-1.22,0.61-1.94,0C544.12,218.2,544.63,218.2,545.35,218.2z
		 M543.2,225.34c1.58,3.16,1.51,2.22,1.12,3.77C542.18,228.4,542.18,228.4,543.2,225.34z M544.02,237.17
		c1.12,0.2,1.53,1.22,1.84,2.14C545.86,241.64,541.79,237.17,544.02,237.17z M546.77,242.78c0.1,0.1,0.22,0.32-0.11-0.01
		C546.69,242.78,546.73,242.78,546.77,242.78z M535.56,205.15c0.41-1.22-0.41-2.86,1.22-3.98c0.51,1.43,1.02,2.75,1.53,4.08
		C537.29,205.76,536.47,205.86,535.56,205.15z M536.58,208.31c0.73-0.36,0.51-0.78,1.63-0.41
		C538.43,207.9,538.41,210.14,536.58,208.31z M534.03,301.12c-0.34-0.68,0-0.71,0-0.61C534.29,300.77,534.74,300.77,534.03,301.12z
		 M545.35,266.85c-5.54,6.1-7.72,33.06-10.81,31.52c0-4.08-1.41-7.96-2.45-11.83c-4.56-17.02-0.56-21.18,4.59-38.04
		c1.84,1.43,2.96,2.86,4.28,4.08c1.33,1.22,2.04,2.55,1.73,4.28c-1.63,0.51-3.57-0.41-4.9,1.22c1.63,1.22,3.78,1.01,5.1,2.14
		C545.79,262.7,550.73,260.92,545.35,266.85z M547.59,223.1c0.84,0,1.75,1.4,0.82,2.96C547.09,225.27,546.79,223.1,547.59,223.1z
		 M548.3,251.25c0.61,0.31,1.33,0.51,0.61,1.43C548.3,252.37,547.59,252.17,548.3,251.25z M548.98,266.31
		c0.07-0.26,0.15-0.49,0.24-0.72C549.22,265.86,549.17,266.11,548.98,266.31z M548.41,255.53c0.79-0.39,0.55-0.16,0.92,0.2
		C548.6,255.74,548.67,255.79,548.41,255.53z M580.33,265.53c-3.99-0.31-1.54-2.86-6.32-1.84c1.43,2.24,4.08,2.65,5.51,4.79
		c-14.2,8.52-17.7,20.87-25.7,17.34c-3.9-1.72-3.66-1.3-4.28-7.04c-1.46-13.56,10.42-16.62,2.75-16.62c0-0.61,0-1.22,0-2.04
		c1.53,0.51,2.86,1.22,3.98,2.04c-1.53,3.47-1.53,3.47-0.31,7.85c2.36-4.72,2.18-9.49,5.81-9.49c5.96,1.32,4.2,1.1,6.94-1.02
		c1.47,1.35,6.93,1.63,7.04,1.63c0.2,0,0.41-0.31,0.92-0.61c-3.41-1.28-5.23-1.38-6.02-5c-1.64-7.5-2.28-9-0.61-11.12
		c1.14-1.14-1.09-2.39-0.51-3.77c2.56,2.29,1.25,1.3,7.55,4.08c5.69,2.51,7.54-1.59,4.28-4.39c-1.22,0.82,0.1,2.24-0.92,3.16
		c-2.13,0-1.98-1.45-7.04-2.65c-2.38-0.71-5.02-6.29-0.71-10.03c-0.12,1.9-2.52,2.76-1.22,4.31c1.22,1.22,2.45,2.68,4.28,2.55
		c1.23-0.09,1.73,1.02,3.06,0.82c1.54-1.15,3.78-1.9,2.14-4.49c-0.55-0.86-1.03-2.33-0.41-3.26c4.22-1.69,2.24,5.81,4.79,5.81
		c1.19-0.4,0.79-1.48,0.61-2.24c-4.05-17.14-3.2-12.27,0.82-19.89c0.32-0.61,0.61-1.22,1.02-1.73c0.41-0.51,0.2-1.43,1.33-1.43
		c3.41,7.2,2.65,3.76,1.33,10.4c-0.1,0.51-0.1,1.12,0.71,1.33c0.51-0.61,0.92-1.22,1.43-1.84c5.71,6.1,4.94,3.92,3.77,7.04
		c-0.61-0.31-1.12-0.51-1.63-0.71c-1.89,3.23,5.96,7.26,4.18,12.24c-0.86,2.01-5.04,4.94-5.81,11.02c-0.06,0.45-3.42,8.06-3.47,8.16
		c-0.29,0.62-0.63,0.51-1.02,0.51c-2.67,0,1.45,2.8-0.82,7.75C585.82,268.38,585.67,265.94,580.33,265.53z M621.94,347.12
		c-4.54,3.13-7.3,5.08-11.12,3.88c-30.31-9.57-28.15-16.78-33.76-24.89c-5.49-7.93-4.58-13.64-6.53-14.89
		c-0.65-0.33-1.94-8.59,0-11.02c-0.5-3.98,0.82-3.09,1.02-4.39c0.11-0.71-0.31-1.53-0.2-2.24c1.92-9.6,7.37-16.97,16.73-19.99
		c1.74,3.49,1.34,2.2,1.73,1.02c1.13-12.65,4.28-16.43,5.81-22.13c2.8-10.41,11.43-16.95,12.75-19.48
		c4.01-2.29,1.09-9.81,9.69-24.78c1.87-3.26,1.87-0.81,3.57-4.9c2.8-7.93,3.36-7.19,2.96-11.63c-2.4-26.44-1.15-24.92,0.71-34.98
		c0.13-0.72,8.1-37.88,5.3-48.34c-0.6-2.26,0.51-8.83,0.51-10.1c6.73-0.4,7.52-1.19,5.71,3.77c-0.63,2.16-1.47,6.56,0.71,6.02
		c4.08-14.29,5.98-8.88,5.92-11.63c-0.21-9.2-0.08-7.96-3.06-5.41c-1.12-0.41-2.24-0.2-2.75-1.22c4.67-6.22,0.15-3.23,10.4-4.08
		c4.67,5.06,3.69,2.33,3.88,10.3c0.03,1.47,1.48,4.49,2.86,5.41c1.43-1.02-0.31-2.24,0.71-3.37c3.88-0.32,4.91-0.48,3.37,3.37
		c-3.81,11.42-8.47-1.74-11.42,21.93c-1.05,8.45,0.58,9.9,1.73,17.95c0.36,2.5-0.85,2.06-0.2,5.3c2.63,9.63,1.45,10.13,3.88,17.34
		c6.47,19.2-1.8,40.77-2.45,41.21c-2.84,1.67-0.36,4.44-0.51,19.68c-0.07,7.53-0.1,8.84,0.31,10.2c2.42,6.66-9.94,31.03-11.42,33.15
		c-2.09,2.97-1.11,3.2-2.75,9.08c-2.89,10.33-3.54,9.37-6.43,27.23c2.45,1.02,1.94,3.16,2.14,4.9
		C628.66,312.46,633.18,339.36,621.94,347.12z M664.78,390.16c0-2.83,2.5,0.42-20.09-6.53c-8.23-2.53-9.63-2.82-11.22-2.65
		c-3.91,0.42-4.38-2.53-9.49-3.26c-0.9,0-2.56-1.51-1.53-3.06c2.21-3.33,4.19-25.68,4.69-26.72c4.72-9.77,2.5-12.13,4.28-16.22
		c2.44-5.61,1.85-13.23,1.53-29.78c-0.09-4.48,4.09-12.74,5.61-26.72c0.82-7.51,14.91-19.43,13.87-37.94
		c-0.6-10.75,0.21-16.48-0.92-25.6c-0.45-3.65,3.3-2.37,3.06-8.57c-0.28-7.2,2.45-7.49,2.45-13.77c0-16.66,1.22-15.64,0.2-20.5
		c-0.02-0.11-7.55-29.31-7.04-38.55c1.04-18.76-0.61-19.63,7.75-23.97c2.31-1.2,2.09-1.66,5.81-8.36
		c20.55-2.28,14.06-1.85,19.17,0.71c12.99,7.52,0.06-0.19,11.42,6.12c0,19.18-12.73,289.46-12.75,289.56
		C676.92,393.73,665.19,390.77,664.78,390.16z M700.17,196.07c-9.88,226.15-5.13,202.92-15.09,199.6c0-0.1,11.26-287.4,13.36-288.33
		C705.57,112.24,704.43,98.58,700.17,196.07z M704.97,108.15c-42.32-23.67-17.94-9.24-50.49-12.85c-0.61-2.24-0.61-4.28-0.2-6.22
		c26.89,0,29.38-1,37.74,5.51c0.92,0.71,1.73-0.1,2.65-0.1c1.4,0.78,28.67,15.75,30.39,17.24c3.19,2.76,4.29,1.56,6.43,3.16
		c-2.35,3.67-2.45,3.77-2.86,8.16C717.06,114.59,720.12,116.63,704.97,108.15z M778.71,371.09c4.54-57.61,1.95-51.87,5.81-52.42
		c0,1.29-2.05,54.53-3.37,56.5C779.05,374.64,778.35,375.68,778.71,371.09z M775.65,431.57c4.16-59.05,1.9-51.9,5.81-53.85
		c0,8.89-5.23,107.78-6.12,118.92c-1.22,0.92-2.24,1.43-3.77,1.22C772.7,477.47,775.64,431.67,775.65,431.57z M770.14,502.25
		c1.63-0.82,3.06-1.63,4.79-1.63c0.05,1.24-0.66,26.83-1.84,29.17c-19.95-6.65-23.03-7.01-27.13-9.59
		c-6.34-3.98-32.83-12.4-32.94-12.44c-3.91-1.3,0.74-2.13,2.65-12.44c0.54-2.9,2.03-3.3,3.06-7.14
		C720.06,484.21,712.23,482.71,770.14,502.25z M591.86,525.1c0-3.98,2.65-12.38,2.65-18.87c0-15.08,0.07-15.43,0.92-17.03
		c2.73-0.91,24.23-7.45,25.8-7.45c0.1,0,0.12,0.98,0,1.22c-9.8,31.24-4.51,9.26-16.87,35.04c4.02-3.39,3.05-4.36,1.57,11.16
		c-7.34,4.79-7.53,2.22-10.61,1.02C589.64,527.98,591.86,531,591.86,525.1z M593.69,532.14c-2.04,0.71-2.45,0.51-2.45-1.63
		C592.26,531.12,592.88,531.63,593.69,532.14z M633.16,543.97c-5.76,4.01-7.57,6.32-18.05,7.14c-1.9,0.15-7.75,1.61-7.75,3.26
		c-0.1,0.61,0.31,1.22,0.51,1.84c-0.71,1.73-1.94,3.06-3.88,3.57c-0.3,0.06-1.88,1.21-2.96,1.43c-15.36,3.07-12.08,1.96-20.5-1.12
		c-0.92-1.43-1.94-2.75-2.96-4.28c9.09-15.7,3.86-11.32,5.71-19.28c0.57-2.46,1.33-2.96,4.39-3.37c0,2.27-0.42,2,1.63,0.61
		c4.86,4.11,2.48,5.23,5.61,4.18c0.1-1.94,0.1-1.94-1.84-4.08c16.78,1.97,11.71-6.18,14.48,1.22c2.91-0.58,0.06-6.44,1.02-8.36
		c8.87,7.4,13.98,13.59,21.72,10.61C635.26,538.94,637.53,540.93,633.16,543.97z M638.06,539.79v-0.2
		C638.32,539.71,638.32,539.65,638.06,539.79z M632.35,533.36c4.62,5.55-3.98-0.51-6.43,1.94c-3.53,2.36-15.67-9.27-17.34-12.24
		c-0.23-5.63,3.01-9.68,3.77-13.67c0.51-2.65,1.61-4.92,3.47-6.83c0.4-0.41,0.92-1.22,0.82-1.73c-0.2-2.01,4.46-7.86,6.43-17.13
		c0.29-1.39,0.09-1.62-1.7-2.01c1.19-0.65,2.47-0.82,3.85,0.07c0,5.53-2.6,12.08,0.51,31.41c1.2,7.47-0.49,5.25,0,9.08
		c0.62,4.89,2.54,7.7,4.49,9.28c1.71,1.22,3.77,3.57,0.51-1.22c-3.73-5.48-3.45-41.46-2.14-48.65c2.65,0.31,3.47,2.65,5.3,3.77
		c0,4.69,0,9.38,0,14.48c3.72-9.08-1.66-13.79,4.39-11.53c0.61-0.31,1.22-0.61,1.94-1.02c1.53,0.82,3.57,0.31,5,1.63
		c-2.4,36.02-0.77,36.91,8.26,44.88c1.62,1.43,2.86,0.64,9.08-1.22c0.1,0,0.2-0.31,0.51-0.71c-3.06,0.51-6.02,0.41-8.77,1.73
		c-8.67-7.09-7.53-16.94-7.75-27.03c-0.02-1.15,0.46-14.04,1.12-17.03c4.18,1.02,8.26,1.08,12.34,1.22
		c6.63,0.24,12.34-1.43,16.62-6.94c2.42-3.11,2.96-1.27,2.96-2.24c0-0.1,0.1-0.1,0.2-0.1c-0.21,0.21-0.74,1.74-1.33,2.45
		c-16.49,23.83-0.17,28.2-20.7,62.42c-0.31,0.51-0.71,0.92-0.92,1.33C640.23,546.67,637.55,534.16,632.35,533.36z M683.55,567.32
		c1.73-1.43,0.61-3.37,1.12-5.2c2.45,1.63,2.35,4.49,3.16,6.83c1.53-0.31,1.53-1.94,2.55-2.65c1.84,1.22,2.55,3.26,3.88,4.59
		c1.22-0.2,2.05-0.93,3.16-0.2c0.62,0.4,1.34,0.01,1.84-0.61c1.48-1.87,0.12-1.63,9.89,0.1c3.72,0.66,12.58,6.2,7.55,9.79
		c-5.69,4.74-18.21,8.72-18.56,8.98c-2.33,1.72-3.01,1.17-20.91,1.63c-3.77,0.1-22.12,6.8-25.91,5.51
		c-6.01-2.05-4.3-1.34-10.61-7.65c-3.22-3.22-2.11-1.41,0.92-6.94c5.86-10.69,7.14-13.43,7.14-18.26c0-1.88,1.8-1.5,1.94-0.31
		c0.24,2.06,0.67,1.9,9.49,9.08c3.38-1.35,4.94-2.48,8.47-2.65c7.56-0.36,10.88-1.92,11.42-5.92
		C681.06,556.24,680.9,564.35,683.55,567.32z M683.96,543.46c-6.09,13.21-4.26,22.85-11.93,22.95c-0.9,0.01-4.35,1.13-6.94,2.35
		c-5.98,0-11.9-5.25-11.63-6.32c0.47-6.14,2.28-1.74,11.53,0.41c4.18,0.97,1.76,1.84,7.14,1.84c4.26-0.3,5.06-4.45,1.33-2.96
		c-2.15,0.43-2.14,1.08,2.65-10.91c-3.23,3.82-6.38,9.37-6.94,10.2c-17.6-4.24-14.23-4.25-6.83-16.83
		c18.23-36.45,1.37-37.15,23.05-64.26c5.72,0,8.21,0.28,11.32-1.33c3.22-1.65-5.59-2.18-7.24-1.94c-8.9,0,3.61-7.43,10.2-16.62
		c7.55-10.54,1.34-20.41,2.55-21.42c10.64,0.97,4.37,1.7,13.77,6.63c0.82,2.35,2.45,3.77,4.18,5.1c6.41,4.91,9.45,14.31,4.49,21.21
		c-2.75,3.82-7.85,12.1-7.85,16.83c0,2.72-0.71-0.17-2.24,5.61c-3.46,13.05-17.17,23.52-14.38,26.31
		C689,535.94,686.92,537.02,683.96,543.46z M796.07,533.16c0.05,0.23,0.19,0.57-0.33,0.31
		C795.82,533.38,795.95,533.29,796.07,533.16z"/>
	<path d="M539.75,318.86c1.44,19.45,2.6-5.56,7.22,72.1C548.18,377.31,545.39,332.66,539.75,318.86z"/>
	<path d="M198.37,424.43l0.1,0.1C198.51,424.22,198.53,424.27,198.37,424.43z"/>
	<path d="M349.18,382.31c0.01,0,0.02,0,0.03,0c0,0,0-0.01,0-0.01C349.21,381.47,349.17,382.1,349.18,382.31z"/>
	<path d="M392.46,17.99c-4.71-14.12-32.94,542.3-32.94,542.4c-4.52,1.13-6.84,1.76-8.06,2.18c0.13-0.86,0.26-1.83,0.41-2.89
		c0.4-2.98,3.16-54.52,3.67-62.83c66.72-1078.46-7.11-8.5-5.8,67.24c-0.16,0.18-0.41,0.41-0.83,0.68c-2.7-0.68-0.5-1.22-8.77-3.37
		c-3.22-0.84-2.39-1.25-3.06-2.14c1.22-1.63,3.26-1.33,4.79-2.55c0.45-11.21,5.93-5.44-11.93-13.36
		c-6.37-2.82-23.81-8.77-33.56-13.97c-1.12,0.41-0.41,1.43-0.92,2.24c-43.06,11.59-49.61,23.07-27.54-5.53
		c0.39,1.44,3.33,0.94,3.77,0.84c9.67-1.21,8.39-1,11.93-3.37c-0.57-0.79,1.31,0.23-15.09,1.33c0.1-0.1,5.76-8.17,6.43-11.12
		c1.21-0.75,8.57,3.91,8.57,1.73c0-1.45-0.26-1.44-8.16-3.26c0.61-1.84,1.84-2.75,2.86-3.77c78.23,27.26,65.24,36.89,67.72-4.79
		c18.34-308.11,30.45-632.05,19.07-412.56c-5.12,98.8-4.43,96.28-5.92,96.28c-8.71-1.01-8.77-0.7-8.47-2.55
		c0-18.08,8.08-164.89,5.1-163.7c-2.03,0.81-1.47-1.98-3.47,50.28c-4.69,122.99-3.44,112.1-7.34,114.23
		c2.94,2.94-1.48,8.83,2.55,9.69c1.24-0.83,3.47-1.11,3.47-4.08c0-3.96,4.25-2.16,8.67-1.63c0.51,3.37,0.2,8.87-0.71,11.83
		c-59.52-14.88-51.55-12.11-54.26-13.46c17.49,0,15.49-0.58,17.03,1.73c2.45,0.92,4.9-0.31,7.45,0.51c1.98-2.97,0.55-3.08,9.49-2.35
		c3.06,0.25,5.39,1.43,5.92-0.41c0.53-1.84-2.68-2.11-4.59-2.14c-10.04-0.17-9,1.05-9.49-1.84c-0.43-7.38,1.18-6.52-2.14-10
		c0.54-19.98,5.74-147.03,5.81-152.07c0.08-5.52-3.97-2.85-3.26-2.14c0.41,3.17-2.89,84.36-3.88,108.72
		c-2.13,52.85-0.31,40.76-5.41,55.48c-0.89,3.11,2.64,2.55-24.07,2.55c-9.06,0-5.14-1.39-7.75,39.78
		c-0.41,6.43-0.31,12.95-0.92,19.38c3.81,0.56,1.47-0.12,53.14,13.97c0.37,2.19-5.09,93.63-5.1,93.73
		c-1.55,1.04-1.79,1.63-2.65,1.63c-4.21-0.51-3.81,0.35-30.5,5.61c-12.69,2.5-16.46,7.39-19.79,6.22
		c-0.75,7.13-1.62,46.82-3.47,71.7c-5-2.45-5.71-2.14-12.24-2.75c-2.26-3.39-1.74-1.32,2.35-7.04c1.71-2.4,2.2-5.87,1.84-6.43
		c-2.7-4.11,7.46-11.51-2.55-21.52c4.17-94.57,0.71-67.54,12.04-60.18c3.63-3.63,7.56,3.01,10-6.73c0.1-0.61-0.1-1.12-0.82-1.33
		c-2.95,1.34-1.36,6.03-7.55,4.49c1.43-3.06,3.47-4.79,7.55-5.81c-0.8-2.81-0.08-2.07-3.06-3.06c-3.77-6.02-8.98-10.71-14.89-15.09
		c1.71-3.43,12.65-305.4,14.28-310.16c0.22-0.65-1.17-2.75-2.45-1.22c-1.15,1.38-14.28,295.81-14.28,309.55
		c-1.68-0.98-11.53-7.79-13.16-8.87c0-23.61,15.15-299.52,11.22-298.74c-2.66,0-12.8,277.34-14.69,296.19
		c-1.96-1.74-7.68-6.83-10.3-6.83c-4.37-0.43-12.44-2.65-12.44-3.26c0.94-6.61,1.05-3.89-3.67-7.04c-0.27-2.47,0.07-2.68-0.61-3.37
		c-13.44-6.45-16.26-2.04-17.95-2.04c-6.81-0.95-2.98,0.29-6.83,2.86c-3.36,0-4.6-0.86-5.61,2.35c-0.38,1.52-0.38,1.44-2.96,1.12
		c-33.47-1.15-17.93-4.2-23.56-6.43c-5.79-2.29-3.3-1.53-10.1-1.53c-0.51-1.02-0.71-1.84-0.61-2.86c1.84,0.1,2.04,1.94,3.57,2.35
		c0.31-0.51,0.51-1.22,0.92-1.73c0.41-0.51,1.13-0.71,1.63-1.12c2.29-1.89,4.38-6.3,2.96-8.98c-1.77-3.33-0.54-5.2-3.26-13.16
		c-0.04-0.1,15.09-222.08,15.09-235.91c0-1.93-2.92-2.07-3.16-0.1c-0.03,0.1-13.81,219.29-13.36,221.53
		c-2.4,3.74-2.51,9.57-2.45,10.4c0.24,3.31-7.73,14.66-0.2,25.19c0.3-1.21,0.71-0.99-0.92-6.12c-1.45-4.59-0.48-5.1,2.14-14.28
		c2.88,2.62,1.07,3.52-0.1,5.41c-3.08,4.31-1.18,7.52,0.82,14.38c-1.45,3.62-5.24-2.77-4.49,4.79c-1.63,1.22-2.86-0.41-4.49-0.31
		c-0.2,0.82-0.31,1.73-0.61,2.86c-3.58-2.38-5.98-10.6-5.51-13.46c0.88-5.27,10.11,0.04,9.18-10c-0.56-5.98,2.05-9.44-1.53-13.77
		c-4.51-5.45-0.75-2.85,0.1-7.65c-1.63-2.55-3.57-4.9-6.02-6.94c-0.25-0.76,0.89-3.53-3.26-11.83c-0.2-0.51-0.71-1.02-0.71-1.53
		c-0.1-1.94-2.04-3.37-1.43-5.61c0.21-0.16,2.35-1.35,2.35-2.55c-0.43-3.43,1.09-2.03-0.61-7.14c-2.57,1.93-2.02,2.21-3.57-2.45
		c-0.1-1.33,1.53-2.86,0.41-4.79c-4.29,0.95-3.67,0.76-8.06,5.51c-0.92-1.43,1.02-2.55,0.2-4.08c-3.73,3.54-19.21,5.34-24.58,5.61
		c0.44-2.19,0.93-2.53-15.2,5.71c-2.07,0.92-6.24,7.15-7.75,11.22c-7.05-5.49-6.57-3.3-1.94,3.16c-1.12,0.41-2.55-0.41-3.57,0.82
		c1.62,11.31,1.33-0.81,1.33,17.85c-5.69,2.53,2.67,6.83,1.84,10.61c3,4.29,13.97,14.5,13.97,15.2c0,2.04,1.83,3.37,2.24,5.3
		c0.2,0.92,1.12,1.63,1.63,2.24c0.82-0.1,1.33-0.2,1.84-0.31c3.82,4.89,4.38,1.92,3.47,5.1c-9.92-0.76-8.98-1.16-17.44,5.61
		c-2.91,5.63-7,7.51-9.08,9.59c-2.46,2.46-1.65,4.17-3.26,8.87c-6.42,18.72-2.3,28.57,15.09,59.36c0.29,0.52,0.51,1.12,1.02,1.33
		c1.84,1.12,2.68,3.03,3.98,4.59c2.61,3.13,2.29,0.7,4.08,4.79c1.6,3.67,9.82,23.32,8.57,27.23c-7.42,23.22-9.39,22.71-1.73,46.61
		c1.59,4.97,0.14,3.54,1.02,5.3c0.33,0.66,3.28,5.85,4.49,6.22c1.35,0.42,0.07,2.3,3.57,5.3c-2.47,7.42-0.32,4.35,1.12,14.48
		c0.17,4,3.46,4.76,8.16,7.24c3.9,2.06,1.9,0.05,3.26,5.92c0.46,2,1.31,2.35,5.2,2.35c1.12,1.94,3.06,0.71,4.9,1.33
		c1.17-1.96,0.71-2,3.67-0.82c-0.8-1.6-0.92-1.06,1.02-1.84c5.17-1.42,20.58-5.99,31.11-7.45c6.12-0.85,5.72-1.93,10.3,0.82
		c-41.88,11.17-34.2,11.67-42.74,8.47c4.06,6.76,4.03,3.76,15.71,1.43c0.57,0.65,0.01,5.3,0,5.41c-1.77,13.95,1.37,11.24-1.73,23.76
		c-1.5,6.07,1.71,13.09-6.43,11.93c-3.54,3.73-4.85,12.93-3.57,15.81c-3.07,5.95-9.34,11.28-0.31,15.6
		c5.81,2.78,10.02,5.7,22.23,0.82c5.77-2.69,7.33-3.66,7.85-6.02c0.55-1.66,1.13-3.37,3.77-3.37c26.51-1.77,18.79-18.5,29.68-8.36
		c3.25,3.02,5.2,2.45,10.71,4.18c2.3,0.72,0.03,1.64-2.55,9.38c-1.22,0-2.35,0-3.47,0c-1.12,1.12-1.6,2.45-1.63,3.98
		c-0.17,7.66-4.77,12.02-6.02,15.3c-2.45,6.43-6.66,6.69-2.96,10.2c9.62,9.1,16.18,13.86,28.46,8.77
		c17.29-7.16,28.91-0.62,35.8-6.12c4.08-3.25,7.77-2.35,18.15-10.71c4.46-3.59,0.21-7.95-1.63-8.87c-3.64-1.52-2.54-3.75-6.22-4.39
		c-11.95-2.07-15.3,0.2-27.54-10.81c-2.53-2.02-3-0.59,1.22-9.69c16.39-4.1,43.62-15.75,50.38-12.04
		c3.01,1.66,31.29,13.72,33.45,13.57c4.82,0,2.03,4.47,2.24,6.32c-2.86,1.33-4.28,3.98-6.63,5.92c0.8,0.8,0.75,1.25,3.06,2.04
		c10.68,3.66,10.91,5.23,13.25,4.35c0.15,1.09,0.39,1.03,0.72-0.3c4.09-1.78,8.42-3.1,11.74-6.91c1.64-1.89,2.93-1.23,0-1.63
		c-0.31-2.65,0.31-5.2,0.31-7.96c0.1-0.07,22.82-9.23,25.29-10.81c-3.18-0.32-3.29,0.94-16.52,4.79c-7.03,2.05-8.67,3.68-8.67,1.43
		c0.63-11.41,0.33-12.34,1.62-12.84c-0.17,0.34-0.35,0.69-0.6,1.11c2.27-0.19,4.26-0.41,5.77-1.91c-10.23,1.24-2.28,1.01,17.28-9.52
		c-1.89-0.16-21.51,7.34-22.54,7.75c-0.81-1.61,1.28-31.69,1.53-32.33c6.16-2.05,5.61-1.81,6.63-2.24c1.02-0.43,1.66-2.55-0.51-1.63
		c-8.72,3.68-6.49,8.55-4.28-31.62c6.32-115.18,2.21-74.72,10.91-85.47c-2.04-0.2-3.88,0.71-5.61,0.1
		c-0.61-2.55-0.41-6.63,0.51-9.89c2.45-0.1,4.39,1.63,6.94,1.73c0.1-0.61,0.2-1.33,0.31-2.04c-2.24-1.63-5-1.63-7.34-2.55
		c-0.2-2.75,5.2-100.77,5.71-104.03c5.47-0.68,5.23-0.56,5.61-2.86c-6.8-3.4-6.15,14.28-4.28-26.82c5.01-2.5,3.88-1.68,3.88-2.35
		c-6.3,1.05-4.29,12.67,2.45-115.15C391.15,30.13,391.32,24.82,392.46,17.99z M326.47,178.22l-0.1-0.2
		C326.63,178.02,326.6,177.96,326.47,178.22z M165.22,268.89c-0.33-1.71-0.21-1.43,0.5-1.43
		C165.44,269.07,165.73,268.89,165.22,268.89z M163.59,239.42c-0.41-0.82-0.2-1.43,0.61-1.94
		C164.4,239.11,164.4,239.11,163.59,239.42z M162.67,263.59c-0.68-2.7-1.47-5.78,1.33-8.06c2.42,10.03,3.95,9.53,1.82,11.75
		c-0.57-3.68-0.8,0.84-0.8,0.08C163.82,267.36,163.8,268.09,162.67,263.59z M90.15,220.04c0,0.33,0.4,0.31-0.31,0.31
		C89.85,220.14,89.84,220.04,90.15,220.04z M85.97,236.87c0.36,0.72,0.64,1.52,0.92,2.35C85.08,240.48,83.72,239.8,85.97,236.87z
		 M89.34,239.52c-1.33-0.71-1.84-1.73-2.04-2.96C88.76,235.51,90.49,236.75,89.34,239.52z M89.95,245.74
		c-0.5-1.99-2.44-1.08-2.04-4.49c3.1,0,2.56-0.77,1.84,3.57C90.42,245.5,90.24,245.44,89.95,245.74z M92.9,208
		c1.91,4.2,1.45,3.27,1.22,4.18c-0.61-0.1-1.33,0-2.35,0.1C91.89,209.12,91.89,209.12,92.9,208z M94.43,215.04
		c-0.51,0.51-1.02,0.61-1.63-0.2c0.41-0.31,0.82-0.51,1.43-0.82C94.33,214.43,94.54,214.94,94.43,215.04z M341.46,529.59
		c-2.79,0,4.63,0.97-15.91-4.9c-10.53-3.01-3.09-1.56-22.85-9.59c-19.21-7.81-21.24-6.46-23.05-8.67
		c6.24-11.24,2.46-11.54,7.24-16.32c56.8,19.16,48.57,17.82,55.99,15.2C343.09,508.07,342.07,526.63,341.46,529.59z M343.09,501.74
		c-5.65,3.91-4.12,0.45-2.35-26.72c6.56-100.2,4.8-90.52,8.47-90.98C349.78,385.64,343.65,498.41,343.09,501.74z M359.01,204.43
		c-1.57,61.02-2.74,52.97-3.16,54.67c-1.71,0-2.37,5.94,1.94-54.36C357.53,203.22,359.05,202.79,359.01,204.43z M290.57,243.39
		c2.3-34.55-3.71-28.79,18.46-25.09c3.64,0.91-0.84-3.01-16.93-4.08c-0.2-4.08,0.31-11.73,0.92-13.97
		c17.49,5.83,23.86,6.32-0.31-1.73c-0.1-3.43,0-6.96,0.59-10.39c5.5,0.66,58.85,13.73,62.24,14.57c0.31,4.28,0,8.47-0.71,10.81
		c-2.18,0-13-1.99-15.81-2.24c0.72,1.44,9.52,3.78,13.46,4.08c2.82,0.4,2.24,0.26,2.24,3.47c-2.25,31.54-0.87,31.25-4.18,30.6
		c-39.73-7.78-10.5-0.37,1.84,1.84c0.41,3.88,0.31,5.61-0.71,7.96C350.09,259.57,355.29,260.63,290.57,243.39z M345.54,260.02
		c3.22,0.86,4.67,1.06,5.41,2.04c1.57,2.61,3.73,0.31,4.79,1.53c-0.1,9.18-4.59,91.69-5.2,95.36c-13-3.79-3.82,0.65-9.69-5.61
		C344.98,274.92,345.27,274.12,345.54,260.02z M291.59,365.48c6.64-2.31,38.18-7.73,39.88-8.77c4.27-2.62,1.43,6.27,2.35,9.59
		c4.4,2.61,10.13,2.76,8.47-1.53c-0.63-1.63-0.61-3.06,0.31-4.59c2.65,0.41,5.2,0.92,8.06,1.53c-1.01,16.42-1.34,20.08-1.43,20.59
		c0,0,0,0.01,0,0.01c0,0,0,0,0,0c-0.02,0.09-0.03,0.07-0.03,0c-6.14-0.47-4.02,0.53-7.42-0.51
		C290.46,366.04,284.86,367.16,291.59,365.48z M324.02,441.87c-7.29-6.48-33.63-6.78-41.41-12.34c1.38-32.23,1.38-39.55,2.24-42.43
		c11.66,3.73,45.37,11.13,45.96,11.12c-1.28-3.74-34.87-8.37-46.16-12.55c0-18.65,0.4-17.94,2.65-17.03
		c62.79,17.55,57.01,14.89,57.01,19.07c-5.7,85.56-3.66,79.56-7.55,78.33c-10.13-3.21-10.13-2.05-8.26-1.43
		c13.05,3.38,10.58,0.45,10,12.95c-1.4,29.99-0.29,27.85-6.63,25.8c-23.4-7.56-42.01-14.37-42.74-14.48
		c-2.25-0.35-2.71,0.68-1.53-3.06c2.01-6.35,13.49-21.08,8.67-25.91c-0.53-0.53-0.12-6.68-5-10.4c-4.02-3.07-0.04-0.77-6.73-6.63
		c-3.09-2.7-2.32-0.87-2.14-10.3C282.45,430.4,278.88,432.84,324.02,441.87z M241.71,294.19c4.8,0.81,4.67,2.34,9.79,4.39
		c5.82,1.94-4.58-1.07,16.22,13.97c11.29,8.16,12.61,8.4,12.95,10.71c0,0.31,0.41,0.61,0.71,0.71c2.04,1.02,3.16,2.96,4.49,4.39
		c-0.34,2.38-0.76,2-3.88,4.08c-2.94-1.18-5.31-3.5-7.96-6.02c-25.37-24.16-26.01-19.79-30.09-24.68c-1.33-1.87,0.53-2.77-4.28-3.57
		c-6.95-1.15-6.21,0.74-19.17-2.65c-1.54,0,0-4.87,0.51-6.32C234.65,292.27,233.35,292.78,241.71,294.19z M213.36,316.83
		c7.05-8.49,7.4-9.34,8.16-9.59c1.61-0.51,1.49-0.67,6.83-6.83c10.48,1.08,11.72,0.51,14.18,3.26c4.92,5.52,5.53,4.06,11.53,9.69
		c-0.38,11.42-4.38,81.21-4.39,81.29c-36.94-9.23-5.04-2.39-43.04-12.34C217.12,365.94,205.81,325.92,213.36,316.83z M253.03,394.65
		c0.19-8.7,2.07-53.89,3.57-66.5c1.74-14.58-2.1-14.17,6.73-6.22c-0.01,0.1-2.87,72.6-3.37,76.09
		C252.65,395.79,253,396.05,253.03,394.65z M265.27,323.46c5.08,4.77,4.57,0.7,3.57,17.34c-3.91,65.11-2.4,60.37-3.24,60.65
		C261.31,391.95,261.24,423.9,265.27,323.46z M223.97,279.7c1.45,0,1.11,0.71,0.92,0.71c-1.19,0-0.43-0.82-1.43-0.82
		c-0.1,0-0.2-0.1-0.31-0.2C223.99,278.98,223.54,279.28,223.97,279.7z M221.93,282.56c4.8,1.7-0.09-0.35,7.65,2.55
		c0,1.33,0.1,2.45-0.71,3.47c-2.86-0.31-5.61-0.82-8.26-2.24c-1.42-3.19-3.94-3.16-4.39-4.49
		C217.7,279.87,216.69,280.7,221.93,282.56z M212.64,277.97c0.93-0.59,1.84-0.61,2.86,0C209.54,285.92,210.79,279.14,212.64,277.97z
		 M207.85,278.68c-0.92,3.16-1.02,3.26-4.18,4.49C203.67,281.35,205.27,277.18,207.85,278.68z M203.98,289.19
		c1.02,1.12,3.16,0.92,3.06,3.37C203.74,291.66,202.85,291.59,203.98,289.19z M199.08,281.23c0.71-0.31,1.53-0.51,2.14,0.2
		c0,3.26,0,3.26,1.12,5.41c-1.53,1.33-1.53,1.33-2.75,3.57C197.24,286.33,197.86,285.52,199.08,281.23z M169.3,278.28
		c-2.77,0.69-10.9,0.21-14.48-1.84C165.97,276.44,166.1,276.04,169.3,278.28z M166.65,281.44c24.77,4.54,19.86,2.09,28.56,3.98
		c1.13,3.85,2.12,5.81,0.31,5.2c-3.61-0.47-25.8-3.15-25.91-3.16c-6.21-0.47-14.8-5.53-15.09-6.43
		C151.94,274.6,166.54,281.42,166.65,281.44z M191.33,302.65c-6.05-7.7-7.56-8.47-10.4-10.91c0.61-0.1,0.92-0.31,1.22-0.2
		C195.55,293.57,194.68,290.74,191.33,302.65z M177.55,291.04c0.03-0.03,0.05-0.05,0.11-0.11
		C177.66,291.09,177.68,290.99,177.55,291.04z M153.79,283.89c1.33,0.91,4.7,0.87,8.67,4.59c2.23,2.09,4.25,2.34,7.85,2.65
		c4.1,0.35,2.75,1.49,9.49,3.67c11.67,3.79,13.93,19.63,14.99,32.03c1.93,0.97,0.17,6.93-0.51,8.98c-1.8,5.4,1.67,14.61,3.16,23.56
		c0.49,9.82-0.17,11.04-1.84,22.74c-0.32,2.26,1.12,1.34,1.12,3.98c0,0.61-0.51,1.33,0.2,2.14c0.71-1.02,0.81-2.24,0.51-3.26
		c-0.77-2.63,1.77-5.11,2.65-8.67c3.25-13.15-1.01-22.8-4.59-35.09c5.62-10.24,1.74-12.67,3.77-16.73c0.41-0.71,0.92-2.04-0.92-2.24
		c-2.36-2.36,1.02-2.66,0.1-6.02c-0.41,0.1-0.92,0.1-1.43,0.2c-6.23-18.23-4.36-10.89-3.16-14.48c2-8,2.39-7.5,2.86-8.67
		c9.31,0.58,6.02,0.85,3.57,6.94c-1.21,2.99-1.69,7.21,1.22,8.57c-0.37-1.23-1.25-3.25-0.51-4.9c4.07-9.02,4.46-8.51,7.75-9.38
		c2.38-13.71,0.68-5.2-3.06-7.45c-1.79-1.34-1.76-0.18,2.24-4.18c2.75-0.61,5.2,1.02,7.96,1.12c0.92,1.53,1.84,2.96,2.65,4.28
		c-1.59,7.95-1.43,7.83-1.33,8.16c0.54,2.15,1.08,4.96,2.45,4.18c0.75-3.37-0.59-3.49,3.98-2.24c0,0.71,0.2,1.02,0.31,1.12
		c-0.82,2.75-2.15,5.09-3.88,6.22c-17.95,11.79-11.69,40.13-11.22,56.91c0.44,15.64-8.07,24.58-10.2,30.29
		c-3.29,8.83-7.54,15.25-15.6,10.3c-5.93-3.64-11.53-7.85-16.32-12.95c-14.59-15.56-12.62-52.16-15.6-51.3
		c-1.18,1.86,0,10.7-0.1,11.02c-10.79,1.8-18.84-16.02-22.74-26.31c-2.02-5.32-0.38-7.7-1.33-12.55c-0.47-2.41-0.23-11.05,5-16.11
		C133.97,293.06,149.19,280.73,153.79,283.89z M168.58,409.44c2.04-3.06,3.37-6.32,6.02-8.67c3.25,0.65,1.44,1.71,0.41,4.79
		c-0.2,0.51-0.1,1.12,0.71,1.02c0.61-1.12,1.33-2.35,2.14-3.88c2.96,1.43,3.37,1.73,4.79,3.57
		C181.55,407.78,169.8,409.85,168.58,409.44z M176.23,413.72c-0.91,0.39-1.02-0.67-1.02-1.63
		C177.36,411.02,176.85,413.42,176.23,413.72z M182.15,412.5c-0.2,0-0.41-0.31-0.92-0.61C182.86,409.17,183.38,412.75,182.15,412.5z
		 M142.17,215.75l0.1,0.31C142.13,216.06,142.17,216.12,142.17,215.75z M136.86,199.54c-0.2,1.02-0.51,1.84-0.61,2.75
		c-0.23,1.37,1.02,1.47,1.02,1.22c0.92-1.43,1.84-2.65,3.16-4.49c-0.4,2.09-1.33,7.35-2.65,8.67c-3.55-0.89-2.56-0.65-2.24-2.86
		c-0.51-0.92-1.63-1.53-1.12-2.86c0.1-0.2-0.41-0.71-0.61-1.12c-0.31-0.41-1.12-0.31-1.02-1.02
		C134.37,198.78,133.02,199.54,136.86,199.54z M134.93,229.42c0.1-0.92,0.31-1.63,1.43-1.43
		C136.35,228.54,139.09,230.98,134.93,229.42z M134.52,214.63c-0.61-0.82-1.12-1.43-1.94-2.55
		C135.03,212.29,135.03,212.29,134.52,214.63z M132.78,243.39c-1.53-0.51-2.65-1.43-3.77-2.55c0.92-1.12,1.73-2.04,2.65-3.16
		c2.15,1.54,2.59,0.83,0.92,3.06C132.27,241.76,133.6,242.37,132.78,243.39z M132.92,235.32c0.6,0.04,0.73,0.24,0.58,0.63
		C135.28,236.54,133.08,236.16,132.92,235.32z M131.87,194.74c-1.22,1.94-3.46,1.45-5.1,2.35c-1.72,0.94-3.67,0.82-5.41-0.1
		C125.43,196.41,131.41,194.28,131.87,194.74z M132.17,218.92c-2.55-1.73-2.65-1.84-2.14-5.3
		C131.25,215.24,131.36,217.28,132.17,218.92z M127.99,211.67c-0.2,0.2-0.51,0.51-0.71,0.41
		C126.17,211.81,126.81,210.49,127.99,211.67z M122.18,217.08c-0.31-0.31-0.1-1.12,0.2-1.12
		C124.17,215.96,124.68,220.21,122.18,217.08z M123.81,235.95c-0.19-0.19-0.3-0.11-0.1-0.31
		C123.71,235.74,123.71,235.85,123.81,235.95z M120.65,262.37c0-0.92,0-1.43,0.1-2.14C121.57,260.94,121.77,261.55,120.65,262.37z
		 M120.24,221.98c-0.1-0.1-0.2-0.1-0.2-0.2C120.48,221.32,120.52,221.98,120.24,221.98z M119.63,242.27c-0.2,0-0.01-0.21-0.2-0.41
		C119.75,241.86,119.8,242.1,119.63,242.27z M119.02,245.64c0,0.98,0.91,0.1,1.84,2.14c-0.92-0.2-1.84-0.41-1.63-1.63
		C118.91,246.15,118.61,246.05,119.02,245.64z M118.81,215.65c-0.92,0.2-1.43-0.2-1.94-0.71
		C117.69,214.53,118.3,214.63,118.81,215.65z M115.85,259.31c0,0.41-0.2,0.4-0.2,0.1C115.75,259.41,115.85,259.41,115.85,259.31z
		 M111.06,220.34c1.53-0.2,2.64-0.18,3.57,0.41C115.74,221.45,115.47,223.74,111.06,220.34z M114.02,264.4
		c-1.31-1.31-1.17,0.2-3.16-2.65c0.2-0.92,0.71-1.33,1.63-1.12C113.71,265.13,114.85,263.71,114.02,264.4z M113.1,252.57
		c0.41-0.41,0.11-0.68,1.12,0C113.52,253.27,113.8,252.92,113.1,252.57z M111.77,216.88c0.1,0.2,0.31,0.41,0.61,0.51
		C111.27,217.39,111.39,216.88,111.77,216.88z M113.1,204.02c-0.72,0.36,0.59,0.42-3.88,0.1
		C111.57,203.62,111.57,203.62,113.1,204.02z M110.14,216.57c0,0.83-1.87,0.49-1.73-0.61c0.2-0.1,0.51-0.41,0.71-0.41
		C109.73,215.55,110.14,215.86,110.14,216.57z M97.39,219.22c0.51,1.94,0.82,3.26,1.12,4.59c-0.71,1.22-1.63,1.73-3.06,1.43
		C98.33,219.48,92.82,222.65,97.39,219.22z M95.35,240.33c0.48-0.57,1.75-3.04,4.59-0.2C97.26,241.92,98.03,242.01,95.35,240.33z
		 M99.74,216.77l0.2,0.2C99.18,217.74,98.8,216.77,99.74,216.77z M101.57,225.24c-0.82,0.51-1.43,0.2-1.84-0.61
		C100.55,224.12,101.17,224.22,101.57,225.24z M99.43,232.48c1.02,0.71,1.63,1.63,1.22,3.26C98.31,234.83,98.31,234.83,99.43,232.48
		z M99.43,244.01c1.33-0.41,1.44-0.31,2.35,1.02C102.89,246.67,100.59,247.86,99.43,244.01z M101.68,229.42
		c0-0.7,0.7,0.09,0.92,0.31c-0.1,0.1-0.2,0.2-0.2,0.2C102.19,229.73,101.88,229.63,101.68,229.42z M102.59,249.21
		c-1.18-2.35,0.18-0.43,0.51-0.1C102.9,249.11,102.59,249.31,102.59,249.21z M104.43,232.79c-0.71-1.02-1.33-1.84-0.92-3.47
		C105.14,230.34,105.14,230.34,104.43,232.79z M104.33,204.02l-0.31,0.1C104.02,203.99,103.96,204.02,104.33,204.02z M104.23,258.29
		c0.68-0.34,0.32-0.5,1.12,0.31C104.69,258.92,104.7,259.24,104.23,258.29z M105.45,262.47c-1.39,0-0.34-0.51-0.1-0.51
		C106.23,261.96,105.62,262.47,105.45,262.47z M104.12,201.27c-7.56,4.6-6.58,4.13-8.57,3.47c0.3-0.89-0.39,0.01,11.63-7.14
		c0.51,0.31,1.02,0.61,1.84,0.92C104.41,199.67,104.74,199.42,104.12,201.27z M109.33,230.75c-0.82,0.41-1.53,0.31-2.35-0.2
		C108.31,229.73,108.31,229.73,109.33,230.75z M108.31,246.76c-0.37-0.37-0.84-0.49-0.51-0.82c1.37,1.37,1.87,4.1,1.22,2.14
		C108.1,247.98,108.2,247.37,108.31,246.76z M109.22,269.61c-0.03-1.19-0.04-0.27,0.31-2.35c3.79,0.76,2.94,0.15,6.73-0.61
		c6.23-0.75,6.41,0.92,7.96,0.92c2.28-2.28,5.62,0.09,8.06-0.61c-1.22-1.33-3.16-1.02-4.59-2.24c-1.52-2.53-0.97-2.2-1.53-3.88
		c-1.08-5.03-2.66-7.78-0.31-10.81c0.2-1.22-1.33-1.84-0.71-3.06c0.61,0.51,1.02,1.12,1.53,1.43c1.88,0.9,7.95,3.47,8.06,3.47
		c2.23,0.64,4.58-1.39,3.16-4.08c-1.6-3.03-1.67,0.76-1.94,2.35c-2.9-0.41-0.67-0.65-6.83-2.65c-2.76-0.9-4.47-5.09-3.16-7.65
		c3.64-7.15,5.85-6.46,6.19-4.64c-1.93,0.27-3.12,1.55-3.74,3.42c-1.53,2.45-1.4,2.62,0.82,4.28c0.93,0.7,1.84,1.33,3.06,1.22
		c0.93,0,2.44,1.76,4.49-0.51c2.22-2.45-2.45-5.85,0.51-6.83c1.86-0.46,1.39-0.25,2.65,4.49c0.49,2.43,2.8,2.24,2.14-0.51
		c-2.26-9.49-3.38-11.33-2.24-15.71c2.35-1.84,2.96-5.1,5.2-7.75c1.02,2.04,1.94,3.88,2.75,5.71c-0.66,1.98-2.1,5.04-0.71,6.43
		c0.51-0.71,1.02-1.43,1.22-1.73c5.91,5.54,5.1,3.95,3.98,6.94c-0.51-0.31-1.02-0.51-1.53-0.82c-0.84,5.32,5.37,6.17,4.28,11.93
		c-0.58,3.09-0.45,5.79,0,7.45c2.01,7.41-11.71,0.94-9.08,15.3c0.66,3.58,2.24,6.83,4.69,9.79c-16.7,0-30.71,15.18-37.74,17.34
		c-5.49,2.06-13.01-1.39-11.73-10.61C101.95,279.38,109.46,279.61,109.22,269.61z M100.04,274.2c4.28,0,4.49,0,6.73,1.22
		c-3.12,4.16-2.23,3.77-7.85,3.77c-0.41,2.55-2.65,3.57-3.77,5.2c-2.55,0.61-4.79,1.33-7.45,2.04
		C91.07,281.03,95.45,277.46,100.04,274.2z M96.68,355.69c-3.81-2.86-6.93-10.19-6.43-11.42c0.87-2.09-25.39-32.34-3.57-54.16
		c3.31-3.31,9.02-1.78,7.75,1.53c-2.34,4.67-2.97-2.72-1.33,24.68c2.43,40.44-2.59,9.14-7.45,4.59c-2.39,2.99-1.41-0.47-3.26-0.61
		c-1.11,2.88,4.14,9.02,7.14,16.01C92.91,345.58,98.79,359.9,96.68,355.69z M95.66,338.66c0.96-15.89,1.33-4.89-0.92-29.58
		c0-0.1,0.55-18.61,0.92-20.09c0.7-2.8,2.37-1.14,2.96-3.77c0-0.2,0.51-0.2,0.92-0.41c-0.11,1.17-1.04,6.71,1.53,9.28
		c3.55,3.55,3.78,4.28,6.22,4.28c2.67,0.15,9.6-1.58,13.06-4.59c4.41-3.84,23.7-15.61,28.76-12.85
		c-6.5,3.25-24.38,10.26-24.38,25.91c0,44.44,26.3,45.37,26.62,45.69c-0.1,15.09,3.47,28.97,12.95,41.1
		c0.51-0.31,0.82-0.51,1.02-0.61c7.21,6.45,6.94,5.89,6.94,6.43c-2.24,3.77-4.39,7.34-6.53,10.91c-11.77,4.01-33.78-0.58-44.06-7.85
		c-1.98-13.86-0.66-1.89-1.84-1.22c-1.94-1.63-2.04-1.63-2.45-3.06c-0.85-3.73-6.17-8.01-3.67-5.51c-0.31,0.1-0.92,0.41-1.02,0.31
		c-0.41-0.41-0.1-0.71,0.31-0.92c-0.41-0.61-0.92-1.22-1.43-1.94C112.64,375.6,95.66,353.92,95.66,338.66z M114.83,401.08
		c-0.34,0.34-0.13,0.24-0.41-0.31C114.77,400.43,114.56,400.53,114.83,401.08z M111.57,399.9c0.01-0.66,0.1-1.38,0.1-2.7
		C112.16,398.68,112.64,399.48,111.57,399.9z M133.19,485.12c-0.41-0.82-0.71-1.63-0.2-2.55c0.1,0.04,8.57,3.1,8.57,4.9
		C139.06,486.97,140.65,486.27,133.19,485.12z M172.46,474.41c1.48,1.93,4.77,1.42,4.39,2.96c-9.7,0.4-17.76,3.06-27.33,5.51
		c-6.94,1.78-7.91,2.49-23.66-6.83c-3.9-2.31-3.55-1.13-4.69-6.02c-0.5-2.14-1.12-4.18-0.41-6.02c-0.2-1.84-2.55-3.06-0.51-4.9
		c8.98,3.74,2.5-0.61,21.21,10.3c0.36,5.92,2.24,7.91,2.24,5.41c0.21-2.3-0.05-5.73,2.55-4.59c13.01,5.7,3.52,2.1,1.84,5.3
		c1.86,2.09,6.13-1.98,9.89-1.12c4.82,1.1,10.34,0.58,11.12,0c5.9-4.42-19.17-2.22-23.76-6.32c-3.5-3.13-7.66-5.39-11.53-8.06
		c-6.97-4.8-10.13-3.79-12.14-6.02c0.68-1.37,0.8-0.63-2.55-1.63c-3.32-1-2.55-3.88-5.81-4.9c-0.13-0.06-0.41-0.71-0.31-0.61
		c1.08,0,0.39-0.1-0.04-0.1c-7.74-27.05-6.41-26.04-1.9-45.9c0.5-1.57,0.08,0.59,4.69,3.67c1.04,0.69,2.04,1.43,2.45,2.75
		c2.14-0.41,3.06,0.61,3.06,2.75c0.71-0.31,1.12-0.72,1.63-0.82c0.61-0.11,1.22,0.61,1.94,0c-3.78-3.27,0.08-1.67,4.59,0.41
		c6.58,3.04,4.63,4.19,7.85,2.04c8.35,3.91,12.67,2.17,14.18,4.59c4.06,0.74-0.16,0.91,10.2,0.51c-1.73-0.71-3.26-0.31-4.59-1.53
		c10.55-1,9.56-2.11,11.83-1.43c1.12-0.61,2.04-2.04,3.67-1.43c0.85,3.83,0.43,2.11,3.88,1.84c1.73-0.14,3.57,0.41,5.2-0.61
		c2.32,0.84,3.09-2.7,5.3-1.22c0.85,4.52,7.5-0.28,9.08,5.51c0,0.5,1.23,0.44,3.16,0.71c-0.8,5.72-1.45,8.99,2.65-0.1
		c5.03-1.32,4.93,3.74,9.89,4.49c0.85,0.13,0.43,0.29,5,2.86c3.04,1.71,4.92,1.33,10.1,1.33c4.79,4.19,9.54,8.59,8.06,14.69
		c0.2-0.1,0.51-0.1,0.51-0.31c2.3-4.11-0.67-8.07-1.94-10.4c3.16,0.1,6.02,1.22,9.08-0.31c-1.53-1.02-2.95-1.76-4.49-2.14
		c-7.05-1.75-9.39-4.82-14.69-3.57c-3.68,0.87-5.07-0.93-13.77-4.79c-2.45-3.77-2.75-3.82-7.34-3.77c-4.47,0.05-3.01-1.66-5.61-2.96
		c-2.14-0.92-4.08-2.65-6.63-2.35c-0.41,0-0.92-0.31-1.22-0.51c-2.2-1.71-2.51-0.06-4.18-1.73c3.22-3.22,8.59,2.41,14.48-11.73
		c1.13-2.71,6.55-11.59,6.65-11.63c72.86,21.22,49.55,10.1,46.79,21.11c13.84-6.62,8.44-6.14,13.07-5.22
		c2.81,2.06,3.45,0.82,4.68,3.79c1.11,2.67,1.55,10.66-0.92,16.11c-3.01,9.03-7.69,11.17-17.95,13.87
		c5.53,1.11,8.86-0.32,12.75-1.43c6.58,12.34,3.23,24.01-2.65,28.46c-10.46,7.91,0.75,2.35-32.54,7.04
		c-15.04,2.12-14.8,3.21-37.33,6.43c1.67,1.67-0.18,3.24,37.02-3.67c31.35-5.83,29.48-8.37,16.83,7.65
		c-3.77,0.42-1.04,3.2-11.83,6.43c-4,1.19-4.88,0.35-12.24,0.2c-14.59-0.3-12.99,1.34-20.6-7.04c-2.15-2.36-4.47-1.13-5.3-0.92
		c-3.06,0.77-2.51-0.77-5.92-1.63C186.79,476.15,175.23,473.49,172.46,474.41z M159.4,530.61c0.82,0.41,1.53,0.82,2.86,1.53
		C159.71,532.65,159.2,532.34,159.4,530.61z M198.37,545.6c-9.07,7.97-25.19,3.3-22.74,10.3c-0.71,3.47-4.18,3.57-6.22,5.3
		c-8.82,1.52-17.53,4.45-23.76-4.9c-0.62-0.62,1.85-3.75,3.77-7.45c2.94-5.65,0.7-5.81,1.53-11.53c0.64-4.39,5.2-5.25,5.2-2.86
		c0.51-0.1,1.02-0.2,1.84-0.31c2.28,3.04,5.2,7,5.2,2.75c0-2.49-2.21-1.34-1.84-2.86c16.53,2.19,11.43-6.51,14.28,1.33
		c2.59-1.99,0.61-4.94,0.61-8.67c4.32,1.08,11.53,14.32,22.13,10.51c2.14,0.82,4.39,1.22,5.2,3.47
		C202.52,543.65,200.04,544.13,198.37,545.6z M206.32,539.79c-0.1,0-0.2-0.1-0.31-0.1c0.1,0,0.2-0.1,0.2-0.1
		C206.6,539.58,206.5,539.79,206.32,539.79z M213.56,543.87c-0.09-0.09-1.69-0.11-2.14-0.41c-2.01-1.51-3.87-3.93-8.87-9.38
		c-0.67-0.85-0.94-0.13-1.84-1.02c4.53,6.42-4.45-0.78-7.34,2.75c-3.16-0.63-4.61-0.73-6.94-2.96c-4.65-4.46-8.42-6.54-9.79-9.69
		c-0.63-4.59,2.9-9.88,3.98-14.69c1.36-6.04,5.28-5.56,3.67-8.77c-1.22,1.33-2.53,2.56-3.47,4.08c-10.11,16.3-7.56,13.03-5.1,12.14
		c-1.22,4.69-0.51,9.18-1.84,13.46c-6.88,4.69-6.47,1.85-14.38-0.41c0.31-2.96,0.3-5.82,0.92-8.57c5.76-25.58-1.93-30.16,6.43-32.43
		c3.92-1.06,18.7-5.6,22.71-6.12c-7.06,22.03-4.72,14.49-5.38,17.75c3.09-3.09,9.47-18.17,5.52-17.85c0.99-0.99,2.08-0.69,3.36-0.1
		c0,5.61-1.66,11.67,0.51,29.78c1.08,9.04-1.9,16.82,7.14,21.62c-5.67-8.23-4.78-1.48-5-44.47c-0.01-2.24,0.2-4.49,0.41-7.04
		c7.28,0.91,5.7,6.94,5.92,16.91c0.63-1.39,0.39-0.32,1.12-8.14c0.35-3.7-0.68-3.51,2.96-2.14c0.71-0.41,1.33-0.71,1.94-1.02
		c1.53,0.82,3.57,0.31,5,1.94c-1.04,13.87-3.85,37.95,5.73,41.63c-4.81-9.88-4.64-8.35-4-39.59c0.01-0.61,0.41-1.22,0.71-1.84
		c6.72,1.88,22.11,3.12,28.35-4.9c1.97-2.53,5.68-5.03,2.45-0.82c-9.6,12.51-6.49,12.12-10.51,39.47c-1.15,7.84-4.9,10.85-4.9,14.28
		c-6.66,10.25-5.78,10-7.14,10C221.88,546.7,218.23,547.32,213.56,543.87z M251.61,567.53c2.43-2.43-0.36-10.01,3.06-3.16
		c0.82,1.44,0.99,3.31,1.43,5.2c3.52-4.16,1.91-4.44,6.32,1.33c1.12-0.1,1.92-1,3.06-0.2c0.6,0.42,1.34,0.11,1.84-0.51
		c1.68-2.13,0.07-1.53,7.14-0.51c8.5,1.23,10.29,5.76,11.83,6.53c1.78,6.41-18.14,11.46-21.72,13.87
		c-0.42,0.28-18.66,0.61-18.77,0.61c-3.07,0.03-6.63,1.14-10.91,2.55c-18.6,6.13-20.08,1.26-28.05-7.04
		c6.33-12.66,10-14.72,10-23.46c0.26-1.3,1.39-0.79,1.63-0.31c0.31,1.12,0.51,2.24,1.53,2.96c9.57,7.8,7.62,6.95,10.91,5.71
		c5.16-2.3,5.21-0.94,12.95-2.75c5.68-1.33,3.24-5.69,5.3-7.24C249.67,563.35,250.08,565.69,251.61,567.53z M249.77,557.43l-0.1,0.1
		C249.67,557.27,249.64,557.3,249.77,557.43z M249.67,547.84c-5.16,13.75-1.98,16.69-11.32,18.66c-1.84,0.39-3.47,1.02-4.79,2.55
		c-1.19-0.25-7.88-0.48-12.24-6.12c0.31-1.43,0.51-2.86,1.53-3.98c10.76,4.78,11.64,3.96,13.16,5.1c3.75,2.34,10.24-1.48,6.73-2.65
		c-1.02-0.2-1.84,1.12-2.96,0.31c4.74-12.33,4.01-11.88-2.75-0.61c-19.02-4.96-14.17-2.96-5.1-20.4c1.39-2.67,7.4-18.97,7.75-24.99
		c1.42-23.98,6.13-24.7,13.46-35.7c3.98,0,10.12,0.61,12.34-2.35c-12.44-2.62-9.7,1-11.53-2.65c9.02-12.63,19.97-13.56,15.71-34.88
		c-0.23-1.13-1.6-1.9,3.77-1.12c4.98,0.73,3.03,2.96,10.1,6.32c1.73,4.98,6.34,5.4,8.26,9.59c2.37,5.17,4.37,9.27,1.53,14.59
		c-0.96,2.11-4.9,7.55-5,7.55c-0.2-1.02,0.41-2.24-0.41-3.16c-1.84,0.61-1.84,0.82-1.02,3.57c1.44-0.29,2.29-1.36,0.2,2.65
		c-3.63,6.99-2.05,8.92-3.06,9.59c-2.59,2.16-0.6,7.07-7.45,15.91c-15.17,19.58-6.49,11.32-10,15.91
		C250.29,542.87,253.46,537.74,249.67,547.84z"/>
	<path d="M364.21,558.86v-0.1C364.05,558.92,364.06,558.81,364.21,558.86z"/>
	<path d="M243.04,552.54l-0.1-0.1C242.85,552.75,242.83,552.67,243.04,552.54z"/>
	<path d="M330.14,245.64c0.23,0.03,0.27,0.07,0.1-0.1L330.14,245.64z"/>
	<path d="M218.87,530.91l0.1-0.1C218.72,530.66,218.78,530.73,218.87,530.91z"/>
	<path d="M201.94,498.68l0.1,0.1C202.04,498.37,202.07,498.37,201.94,498.68z"/>
	<path d="M787.99,484.2c27.45-502.58,25.47-467.82,24.58-468.05C808.54,16.15,770.44,805.59,787.99,484.2z"/>
	<path d="M264.15,302.24c-0.08,3.74-0.47,3.47,1.63,3.47c0.6-1.03,10.16-235.2,11.63-274.57c1.19-32.01,2.44-30.72-1.33-30.09
		C276.61,3.84,264.15,302.14,264.15,302.24z"/>
	<path d="M336.36,533.26c-6.79-1.36-6.09-1.05-11.02-3.06C315.47,526.17,326.17,533.65,336.36,533.26z"/>
	<path d="M768.1,533.36c-6.24-1.87-4.29-0.23-10.91-3.26C746.03,526.38,759.7,533.68,768.1,533.36z"/>
	<path d="M744.74,526.43c1.65,0,9.09,1.92-7.24-3.37C736.35,524.91,743.6,526.43,744.74,526.43z"/>
	<path d="M315.86,526.53c-3.26-1.12-6.63-2.24-10.51-3.57C306.63,525.92,312.88,526.61,315.86,526.53z"/>
	<path d="M288.73,521.33c1.94,0.61,3.37,0.2,5-0.71c-2.04-1.12-3.57-2.55-5.51-2.96C285.97,519.45,294.52,519.4,288.73,521.33z"/>
	<path d="M721.08,521.12c0.54,1.07,2.83,0.1,3.88-0.2c-4.03-4.25-6.83-3.22-5.2-2.24C724.2,520.69,723.29,520.39,721.08,521.12z"/>
	<path d="M369.82,532.44l-0.1-0.1C369.59,532.49,369.43,532.49,369.82,532.44z"/>
	<path d="M380.02,244.41c1.94,0.41,3.06,0.61,4.69-0.41C382.87,243.5,381.75,243.6,380.02,244.41z"/>
	<path d="M816.34,529.08c0.92-0.31,1.84-0.61,3.26-1.02C817.97,527.65,817.06,528.16,816.34,529.08z"/>
	<path d="M386.95,527.75c-0.92,0.31-1.94,0.51-3.16,0.82C385.32,529.38,386.14,528.47,386.95,527.75z"/>
	<path d="M275.98,520.82c-0.71,0.2-1.43,0.41-2.45,0.61C274.86,522.04,275.37,521.33,275.98,520.82z"/>
	<path d="M706.19,521.43c1.51,0,0.62-0.52,0.41-0.31C706.39,521.12,706.29,521.33,706.19,521.43z"/>
	<path d="M275.88,520.71c0.31,0,0.61-0.1,0.82-0.2C276.39,520.61,276.19,520.61,275.88,520.71z"/>
	<path d="M708.94,520.51v-0.1C708.52,520.55,708.56,520.51,708.94,520.51z"/>
	<path d="M706.19,521.53c-0.06,0-0.08,0.04-0.11,0.1C706.11,521.6,706.15,521.57,706.19,521.53z"/>
	<path d="M705.99,521.84c0.05-0.09,0.07-0.16,0.09-0.21C705.81,521.85,705.62,521.84,705.99,521.84z"/>
	<path d="M630.1,425.25l0.1,0.1C630.28,425,630.29,425.02,630.1,425.25z"/>
	<path d="M609.4,439.32c1.73-0.86-1.48,0.46,7.75-9.49c11.64-12.55,0-12.32,14.28-11.22c-0.98,5.71-2.65,11.05,2.55,0.2
		c4.09-1.59,6.55,3.77,7.96,3.77c2.55,0.2,4.29,2.02,6.43,3.06c9.47,4.62,7.98-2.96,15.91,6.73c2.04,2.86,3.16,5.61,2.75,8.77
		c2.62-2.62-0.34-7.43-1.94-10.1c3.16,0.31,6.12,1.22,9.18,0c-1.43-1.33-3.06-1.94-4.59-2.35c-5.88-1.13-8.85-4.88-14.69-3.57
		c-3.24,0.73-5.38-1.17-8.57-2.65c-5.46-2.53-4.84-2.06-5.3-2.75c-3.23-5.99-6.37-1.6-12.75-4.39c-2.64-1.15-5-0.82-7.24,0.51
		c-0.51,0.71,0.1,1.22,0.2,1.84c-0.05,0.1-13.26,18.36-13.26,20.81C608.07,439.44,609.11,439.61,609.4,439.32z"/>
	<path d="M618.68,473.18c17.71-2.11,57.12-16.1,57.12-17.44c-6.29,0.79-36.96,13.22-63.75,15.71
		C608.31,472.07,611.38,474.05,618.68,473.18z"/>
	<path d="M685.69,415.05c3.71,3.25,1.68,1.17,3.16,6.73c0.26,1.53,2.04,2.38,2.14,2.45c-1.47-3.68-1.11-2.24,2.45-3.26
		c3.29-0.95,4.2-5.05,1.02-5.51c-0.2,0-0.41,0.1-0.71,0c0-0.2-0.2-0.31-0.51-0.51c-0.71-3.77,0.71-7.34,1.53-11.02
		c-3.06,3.67-3.88,6.22-3.67,11.22C689.36,415.66,687.73,413.11,685.69,415.05z M691.6,419.03c0,0-0.1,0-0.2,0
		C691.61,419.03,691.76,418.87,691.6,419.03z"/>
	<path d="M569.52,475.53c4.56,3.81,0.54-5.92-14.08-10.1C559.35,469.57,561.04,468.44,569.52,475.53z"/>
	<path d="M653.87,478.9c-0.57-0.46-0.81-1.19-1.94-0.82c-7.41,1.33-12.61-0.35-14.38,0.71C639.96,481.21,650.56,479.8,653.87,478.9z
		"/>
	<path d="M647.65,439.53c3.58-5.29,1.51-9.26-1.94-13.57c-0.31-0.51-0.82-0.51-1.53,0.1c2.71,6.78,5.88,6.61,2.24,13.87
		C647.14,439.73,647.44,439.63,647.65,439.53z"/>
	<path d="M593.39,467.78c1.58,1.19,15.65-5.18,16.22-5.81C607.34,462.43,593.62,465.48,593.39,467.78z"/>
	<path d="M556.87,412.7c-2.63,14.67-2.32,18.31,1.84-1.53C557.53,410.15,556.87,412.09,556.87,412.7z"/>
	<path d="M679.06,415.46c0.55,0,0.47,0.6,3.16-4.79C683.01,408.28,677.25,408.84,679.06,415.46z"/>
	<path d="M677.73,420.56c-3.41,0,2.04,14.46,0.92,5.51C678.34,420.77,678.33,420.56,677.73,420.56z"/>
	<path d="M675.49,411.89c-5.58-2.03-3,2.19-1.22,2.65C676.23,415.05,676.97,412.63,675.49,411.89z"/>
	<path d="M638.06,420.76c-0.2-0.31-0.51-0.31-1.53,0c1.99,3.13,2.18,3.78,3.16,7.45C640.3,427.08,639.9,423.01,638.06,420.76z"/>
	<path d="M648.56,406.07c1.53,1.43,2.75,2.45,4.69,2.04C653.45,406.93,651.13,405.16,648.56,406.07z"/>
	<path d="M573.9,481.75c2.93,0.9,2.36-1.4,0.51-3.88C574.01,479.3,574.31,480.63,573.9,481.75z"/>
	<path d="M676.71,438.1c1.53-1.94,1.12-3.26,0.51-4.59c-0.1-0.41-0.31-0.51-2.24-0.92C676.31,434.43,677.33,435.75,676.71,438.1z"/>
	<path d="M665.8,410.87c-0.92-1.12-2.24-1.22-3.67-1.73C663.97,412.82,665.67,412.22,665.8,410.87z"/>
	<path d="M679.88,434.02c0.82-1.43,0.82-1.84-0.82-4.39C678.35,431.57,678.45,431.98,679.88,434.02z"/>
	<path d="M610.93,418.72c1.43-0.51,2.96-1.12,4.39-1.63C615.82,417.09,614.68,415.3,610.93,418.72z"/>
	<path d="M638.57,403.01c-1.74,0-0.78,0.93-0.61,1.02C640.72,405.88,641,403.46,638.57,403.01z"/>
	<path d="M685.79,425.76c1.63-0.41,1.63-0.41,2.55-2.04C686.61,423.82,685.99,424.53,685.79,425.76z"/>
	<path d="M553.2,433.51c-0.61,2.66,0.2,3.25,0.2,3.13c0.1,1.1,0.1,2.19,0.2,3.29c0.19-1.11,1-2.33-0.19-3.35
		C553.61,435.69,553.69,434.69,553.2,433.51z"/>
	<path d="M555.34,426.06c0-0.41,0-0.82,0.2-1.22C555.02,425.88,554.97,426.06,555.34,426.06z"/>
	<path d="M611.11,461.15c-0.06,0-0.12,0-0.18,0C611.07,461.29,610.99,461.27,611.11,461.15z"/>
	<path d="M611.11,461.15c0.74,0.03,1.4,0.15,1.96-0.51C612.29,460.55,611.61,460.55,611.11,461.15z"/>
	<path d="M609.64,461.86c0.56,0.01,1.1,0.05,1.39-0.61C610.54,461.35,609.88,461.18,609.64,461.86z"/>
	<path d="M609.64,461.86c-0.05,0-0.09,0-0.14,0C609.61,461.97,609.6,462,609.64,461.86z"/>
	<path d="M558.81,453.09c-0.1-0.61-0.31-1.02-0.51-1.53C558.11,451.75,558.16,451.47,558.81,453.09z"/>
	<path d="M560.24,455.03c-0.1-0.51-0.31-0.92-0.51-1.43C559.83,454.11,560.03,454.62,560.24,455.03z"/>
	<path d="M614.27,459.93c-0.5-0.03-1.12-0.14-1.31,0.61C613.46,460.45,614.12,460.62,614.27,459.93z"/>
	<path d="M614.29,459.82c0,0.12-0.08,0.1,0.1,0.1L614.29,459.82z"/>
	<path d="M629.9,426.47c0.1-0.1,0.2-0.2,0.2-0.2c0-0.31,0-0.51,0.1-0.61C629.66,425.93,629.55,425.78,629.9,426.47z"/>
	<path d="M610.32,419.54c-0.51,0.1-0.92,0.31-1.43,0.51C609.28,419.98,610.67,419.54,610.32,419.54z"/>
	<path d="M667.02,441.57c-0.17,0.37-0.36,0.78-0.61,1.12C666.98,442.44,667.03,442,667.02,441.57z"/>
	<path d="M667.13,441.36l-0.1-0.1C667.02,441.67,666.99,441.63,667.13,441.36z"/>
	<path d="M610.42,419.54c0.2-0.31,0.41-0.51,0.61-0.82C610.78,418.89,610.28,419.39,610.42,419.54z"/>
	<path d="M608.79,420.35c-0.03,0.03-0.07,0.07-0.1,0.1C608.68,420.45,608.79,420.45,608.79,420.35z"/>
	<path d="M608.79,420.35c0.07-0.07,0.13-0.13,0.2-0.2C608.89,420.15,608.89,420.25,608.79,420.35z"/>
	<path d="M555.44,465.54c0-0.13,0.02-0.06-0.1-0.31L555.44,465.54z"/>
	<path d="M665.76,443.36c0.1,0.1,0.65-0.47,0.75-0.57C666.3,442.86,665.65,443.26,665.76,443.36z"/>
	<path d="M665.6,443.61c0-0.1,0.1-0.1,0.2-0.2C665.7,443.4,665.6,443.5,665.6,443.61z"/>
	<path d="M559.63,453.7c0.02-0.02,0.07-0.07,0.09-0.09C559.58,453.61,558.08,452.16,559.63,453.7z"/>
	<path d="M558.2,451.66c0-0.06-0.04-0.08-0.09-0.09C558.14,451.6,558.17,451.63,558.2,451.66z"/>
	<path d="M557.99,451.56c0.04,0,0.08,0,0.11,0.01C557.77,451.24,557.89,451.46,557.99,451.56z"/>
	<path d="M771.47,418.01c-0.97-0.32-19.2-5.84-17.03-3.67C775.55,424.89,775.87,419.44,771.47,418.01z"/>
	<path d="M737.81,418.82c-1.85-0.93-18.65-4.68-20.6-4.9C719.89,417.64,733.21,418.82,737.81,418.82z"/>
	<path d="M769.32,488.38c-2.31-1.44,2.05,0.19-15.5-4.39C746.86,481.67,762.65,488.99,769.32,488.38z"/>
	<path d="M751.58,483.79c0.1-0.1,0.31,0,0.51,0.1C751.67,483.07,750.96,483.79,751.58,483.79z"/>
	<path d="M753.62,360.89c0.2,0.1,0.31,0.31,0.51,0.41C754.02,361.09,753.82,360.99,753.62,360.89z"/>
	<path d="M756.68,436.88c0,0,0.1-0.1,0.31-0.1c-0.21,0-0.36-0.03-0.49-0.06C756.55,436.76,756.61,436.81,756.68,436.88z"/>
	<path d="M756.49,436.71C756.11,436.4,756.07,436.6,756.49,436.71L756.49,436.71z"/>
	<path d="M757.42,370.8c0.02,0.03,0.04,0.06,0.07,0.09C757.49,370.83,757.46,370.81,757.42,370.8z"/>
	<path d="M757.29,370.78c0.05,0,0.1,0,0.14,0.01C757.32,370.63,757.29,370.43,757.29,370.78z"/>
	<path d="M593.08,338.96c-3.16-2.96-2.96-7.34-4.79-10.91C584.73,335.17,590.77,342.6,593.08,338.96z"/>
	<path d="M629.59,270.12c-0.62,3.74,0.26,9.55-4.08,18.05C623.32,292.48,632.72,283.87,629.59,270.12z"/>
	<path d="M631.53,188.83c-1.33,1.22-1.65,1.83-1.84,4.08C629.06,200.7,634.21,195.97,631.53,188.83z"/>
	<path d="M635.3,111.62c-0.92,2.75-0.71,4.79,0.92,7.14C636.53,116.11,636.02,114.17,635.3,111.62z"/>
	<path d="M637.45,169.25c-1.22,1.33-1.22,1.43-0.31,4.59C638.16,172,638.06,170.67,637.45,169.25z"/>
	<path d="M630.1,265.93c0.2-1.73,0.2-3.06-1.22-4.39C628.78,263.28,628.47,264.71,630.1,265.93z"/>
	<path d="M587.67,281.23c0.41-1.73,0.41-1.73-0.61-2.35c0,0.92,0,1.73,0,2.65C587.37,281.34,587.67,281.34,587.67,281.23z"/>
	<path d="M635.92,121.61c-0.31,0.51-0.51,0.92-0.82,1.53C636.22,122.94,636.22,122.94,635.92,121.61z"/>
	<path d="M627.14,258.18c0.2-0.2,0.61-0.51,0.61-0.61c-0.48-1.43-0.93-1.02-1.22-0.92c0.1,0.41,0.1,0.61,0.1,0.71
		C626.74,257.67,626.94,257.88,627.14,258.18z"/>
	<path d="M637.65,167.82c-0.08-0.69-0.24-2.21-0.82-1.63C636.32,166.8,636.73,167.1,637.65,167.82z"/>
	<path d="M594.81,342.33c-0.41-0.31-0.71-0.61-1.33-1.02C593.28,342.33,594,342.33,594.81,342.33z"/>
	<path d="M633.37,183.73c0,0.1,0.1,0.31,0.2,0.51C633.73,184.08,634.5,183.73,633.37,183.73z"/>
	<path d="M635.1,126c0,0.41-0.1,0.71-0.2,0.92c0.71,0.36,0.19,0.65,0.61-0.61C635.51,126.2,635.3,126.1,635.1,126z"/>
	<path d="M588.18,318.16c-0.28,0.56-0.27,0.65,0,0.92C588.18,318.67,588.18,318.46,588.18,318.16z"/>
	<path d="M588.69,325.5c0-0.71,0.05-0.61-0.2-0.61C588.49,325.61,588.44,325.5,588.69,325.5z"/>
	<path d="M585.74,312.95c0.71-0.82,0.51-1.33,0-1.84C585.74,311.63,585.74,312.24,585.74,312.95z"/>
	<path d="M587.98,283.89c0.1-0.2,0.1-0.41,0.1-0.61C588.08,283.48,587.98,283.68,587.98,283.89z"/>
	<path d="M622.25,294.9c0.45,0.45,0.1,0.61,0.92-0.2c0-0.1-0.2-0.31-0.31-0.51C622.66,294.39,622.45,294.59,622.25,294.9z"/>
	<path d="M635.71,177.1c0,0.1,0,0.31-0.1,0.51C636.65,177.09,636.13,176.68,635.71,177.1z"/>
	<path d="M625.41,289.29c-0.2,0.1-0.31,0.2-0.51,0.2C625.41,290.11,625.31,289.6,625.41,289.29z"/>
	<path d="M585.43,311.12c0.1,0.1,0.22,0.12-0.1-0.2C585.33,311.02,585.43,311.12,585.43,311.12z"/>
	<path d="M619.1,301.11c0.03-0.03,0.06-0.06,0.09-0.09C619.13,301.02,619.11,301.06,619.1,301.11z"/>
	<path d="M619.09,301.22c0-0.04,0-0.08,0.01-0.11C618.74,301.47,619.09,301.33,619.09,301.22z"/>
	<path d="M570.54,300.2c0,0.14,0.05,0.18,0.08,0.23C570.59,300.36,570.54,300.29,570.54,300.2z"/>
	<path d="M619.25,300.82c-0.06,0.02-0.11,0.05-0.16,0.1C619.23,300.92,619.26,300.88,619.25,300.82z"/>
	<path d="M619.39,300.71c-0.1,0-0.1,0-0.2,0C619.26,300.79,619.23,300.88,619.39,300.71z"/>
	<path d="M607.46,403.93c-0.63,0.91-1.12,1.84-0.31,2.96C614.42,395.12,616.01,391.59,607.46,403.93z"/>
	<path d="M552.08,293.78c0.04-3.59-1.46,3.45-0.82,6.32C552.05,303.62,551.82,316,552.08,293.78z"/>
	<path d="M615.15,386.43c1.22-0.44,1.81-1.42,2-2.59C615.98,384.33,615.47,385.28,615.15,386.43z"/>
	<path d="M615.11,386.59c0.01-0.05,0.03-0.1,0.04-0.16C614.97,386.5,614.99,386.47,615.11,386.59z"/>
	<path d="M553.2,333.15c0-0.33-0.31-0.96-0.31-0.1C553.02,333.3,553.2,335.6,553.2,333.15z"/>
	<path d="M551.77,388.43c0-1.41,0.03-1.22-0.1-1.22C551.67,388.62,551.64,388.43,551.77,388.43z"/>
	<path d="M617.17,383.7c1.02-0.32,1.41-0.92,1.31-1.9C617.61,382.19,617.21,382.85,617.17,383.7z"/>
	<path d="M617.17,383.7c-0.04,0.01-0.08,0.03-0.12,0.04C617.15,383.84,617.17,383.89,617.17,383.7z"/>
	<path d="M618.78,381.29c-0.1,0.1-0.2,0.31-0.31,0.41C619.01,381.7,619,381.51,618.78,381.29z"/>
	<path d="M704.15,499.7c-0.71,0.47-0.6-0.07-5,7.14c-1.72,2.83-1.91,0.67-4.39,2.65c-1.7,1.36-3.82,3.66-4.39,3.77
		c-2.76,0.58-4.18,2.65-5.41,4.79c1.22,0,2.14-0.71,2.96-1.53c4.47-3.65,4.09-1,8.16-5.41C696.21,510.98,707.85,501.55,704.15,499.7
		z"/>
	<path d="M716.29,463.7c1.02-0.31,1.33-1.43,1.63-2.35c-0.21-0.09-2.86-1.88-4.18,0.92C712.56,464.76,712.61,464.8,716.29,463.7z"/>
	<path d="M719.24,452.48c-2.09-0.6-1.11,3.71-0.82,7.24C720.38,459.07,719.9,454.66,719.24,452.48z"/>
	<path d="M681.81,521.94c0.82-1.43,1.84-2.75,3.26-3.77C680.51,517.85,679.61,524.88,681.81,521.94z"/>
	<path d="M677.53,550.7c2.04-1.33,2.14-1.33,2.65-3.77C677.73,548.25,677.12,548.97,677.53,550.7z"/>
	<path d="M718.73,477.67c1.53-1.22,1.73-2.35,1.22-3.57C719.8,473.45,717.36,473.1,718.73,477.67z"/>
	<path d="M707.31,497.15c1.02-1.63,0.82-3.06,0.51-4.59C706.38,496.53,706.21,495.77,707.31,497.15z"/>
	<path d="M703.23,476.75c-1.12-1.53-2.45-1.43-4.59-0.61C700.48,477.16,701.7,477.06,703.23,476.75z"/>
	<path d="M680.08,546.82c1.43-0.41,1.43-1.84,2.35-3.06C680.69,544.78,680.69,544.78,680.08,546.82z"/>
	<path d="M677.53,524.18c-0.31,0-1.16,0.47-0.41,1.22C678.02,524.5,677.76,524.64,677.53,524.18z"/>
	<path d="M707.11,475.84c-1.02-0.1-1.53-0.1-2.65-0.2C705.99,476.79,705.33,477.1,707.11,475.84z"/>
	<path d="M719.14,470.02c1.02-0.41,0.92-1.02,0.2-1.94C719.35,468.9,719.24,469.51,719.14,470.02z"/>
	<path d="M719.04,471.76c0-0.82,0.1-1.22,0.2-1.63C718.73,470.43,718.63,470.94,719.04,471.76z"/>
	<path d="M718.53,459.82c-0.31,0.41-0.51,0.92-0.61,1.43C718.12,461.45,717.86,461.5,718.53,459.82z"/>
	<path d="M570.95,122.53c0.71-3.77,0.71-5-0.1-7.65c-0.95,0.64-0.71-0.79-0.71,6.53C570.13,121.72,570.54,122.02,570.95,122.53z"/>
	<path d="M562.79,111.01c-1.02-1.12-2.24-1.33-3.47-0.92C560.34,110.8,561.36,111.52,562.79,111.01z"/>
	<path d="M570.13,132.94c0.71-0.71,0.51-1.12,0-2.14C570.13,131.81,570.13,132.32,570.13,132.94z"/>
	<path d="M563.5,169.45c-0.38-0.38-0.31-0.07-0.31,0.1C563.2,169.72,563.5,169.93,563.5,169.45z"/>
	<path d="M563.3,174.14c0,0.1,0,0.2-0.1,0.31c0.39,0,0.31,0.06,0.31-0.31C563.4,174.14,563.3,174.14,563.3,174.14z"/>
	<path d="M570.84,126.1l0.2-0.1C570.79,125.87,570.84,125.84,570.84,126.1z"/>
	<path d="M634.18,510.72c-0.58-5.82-1.2-2.5,0.41,9.79C635.29,512.51,634.18,516.46,634.18,510.72z"/>
	<path d="M634.9,527.04c0.1,0.61,0.2,1.22,0.31,1.94C635.51,528.26,635.51,527.55,634.9,527.04z"/>
	<path d="M634.35,525.85c0.18,0.38,0.37,0.83,0.55,1.29C634.8,526.67,635.05,526.02,634.35,525.85z"/>
	<path d="M634.35,525.85c-0.02-0.05-0.04-0.1-0.06-0.14C634.17,525.83,634.13,525.81,634.35,525.85z"/>
	<path d="M634.08,525.81c0-0.11,0-0.22,0-0.31C633.98,525.2,634.08,525.41,634.08,525.81z"/>
	<path d="M554.02,272.36c-2.39,2.71-2.71,5.12-2.04,7.45c1.22-0.61,1.45-1.32,1.53-2.14c0.28-2.73,1.23-2.64,2.14-4.08
		C556.51,272.23,555.09,271.29,554.02,272.36z"/>
	<path d="M584.92,250.94c-0.2-1.63-0.41-3.26-1.22-4.69C581.52,246.25,583.14,249.71,584.92,250.94z"/>
	<path d="M587.57,256.04c-0.1-0.31-0.41-0.61-0.61-1.02C585.72,256.26,587.57,257.2,587.57,256.04z"/>
	<path d="M585.11,251.03c-0.03-0.03-0.06-0.06-0.09-0.09C585.02,251,585.06,251.02,585.11,251.03z"/>
	<path d="M585.23,251.04c-0.14,0-0.18-0.08,0.1,0.2C585.33,251.15,585.33,251.04,585.23,251.04z"/>
	<path d="M603.58,538.15c-2.58,1.9-3.16,2.14-6.53,1.43C599.76,548.6,613.86,530.59,603.58,538.15z"/>
	<path d="M587.78,535.3c-0.2,0-0.41,0.1-0.51,0.1C587.67,536.01,587.57,535.4,587.78,535.3z"/>
	<path d="M607.56,535.2C607.46,535.2,607.36,535.4,607.56,535.2L607.56,535.2z"/>
	<path d="M599.1,527.45c0.31-0.71,0.7-1.43,0.82-2.14c0.91-5.59,4.12-7.49,3.26-10.91C601.34,518.85,596.53,527.45,599.1,527.45z"/>
	<path d="M604.3,518.16c0.1-0.25,0.07-0.14-0.05-0.05C604.16,518.02,604,518.16,604.3,518.16z"/>
	<path d="M570.95,84.9c-0.82-1.22-1.63-1.02-2.96-0.61C569.01,85.1,569.82,85.51,570.95,84.9z"/>
	<path d="M564.11,92.34c0.28-0.28,0.27-0.17,0-0.71C563.7,92.04,564.11,91.83,564.11,92.34z"/>
	<path d="M242.43,457.17c2.79-0.93,1.53-1.86-0.2-1.33c-21.33,6.51-38.89,13.44-62.11,15.6c-5.05,0.84,1.63,4.9,25.7-2.24
		C217.63,465.7,236.52,459.14,242.43,457.17z"/>
	<path d="M176.64,439.43c0.76,0.38,1.45-0.25,1.84-1.02c2.71-4.63,6.44-7.7,8.67-10.51c7.53-9.46,1.19-9.45,7.04-10.1
		c-1.57-2.76-6.23-2.97-4.69-0.41C189.49,418.47,174.27,438.24,176.64,439.43z"/>
	<path d="M259.26,424.23c-1.3-3.58-1.49-2.28,2.75-3.47c2.76-0.77,4.08-5,0.41-5.41c-3.09,0,0.19-8.41,0.51-11.53
		c-1.49,0.96-2.02,3.02-3.67,7.65c-0.51,1.12,0.51,2.55-0.1,3.98c-4.08-1.26-4.53-1.71-5.1-0.2c0.61,0.61,1.43,1.22,2.35,2.14
		C256.5,418.97,256.34,423.01,259.26,424.23z M259.46,418.72c0.21,0-0.1,0.31-0.2,0.41C259.36,419.03,259.46,418.82,259.46,418.72z"
		/>
	<path d="M124.11,465.33c1.9,3.81,5.72,2.51,13.77,10.3c0.52,0.5,1.02,0.92,1.84,0.2C139.27,472.67,129.61,467.05,124.11,465.33z"/>
	<path d="M206.73,479.81c3.85,0.64,9.7,0.41,14.99-0.92c-0.3-2.44-2.21,0.77-13.87-0.61C205.67,478.03,205.17,479.43,206.73,479.81z
		"/>
	<path d="M215.19,430.76c2.95,5.68,0.1,6.8,0.1,8.57c-1.19,2.38,7.4-4.51-1.43-13.57c-0.58-0.6-1.81,0.24-1.22,1.02
		C212.75,426.95,214.78,430.09,215.19,430.76z"/>
	<path d="M161.55,467.17c-3.11,3.11,12.55-3.64,13.67-4.08C178.7,463.09,169.39,461.94,161.55,467.17z"/>
	<path d="M125.13,411.99c-1.7,7.92-3.05,20.96,0.2,6.02c0.49-2.25,1.22-4.59,1.53-7.04C125.64,410.77,125.34,411.38,125.13,411.99z"
		/>
	<path d="M250.69,410.05c-1.86-2.65-5.14,1.74-3.57,5.41C247.12,417.3,249.94,411.91,250.69,410.05z"/>
	<path d="M246.4,420.25c-2.92,1.36-1.25,6.53-0.31,7.96C246.1,428.31,247.19,430.13,246.4,420.25z"/>
	<path d="M239.98,411.28c0.87,1.91,0.87,3.02,2.96,3.37C244.47,415.15,246.46,411.66,239.98,411.28z"/>
	<path d="M207.85,428.41c0.84-2.88-0.5-7.6-2.65-7.96c-0.1,0.31-0.41,0.61-0.31,0.82C205.12,421.95,207.34,423.99,207.85,428.41z"/>
	<path d="M216.83,406.18c1.02,1.22,2.35,1.84,3.67,2.14c0.31,0.1,0.82-0.2,1.22-0.31C219.78,405.77,219.48,405.67,216.83,406.18z"/>
	<path d="M229.78,409.13c0.82,1.22,1.43,2.14,2.35,2.55C233.89,412.34,236.08,410.53,229.78,409.13z"/>
	<path d="M246.91,429.84c-0.51,1.73,0,3.06,1.12,4.28C248.95,432.08,248.85,431.57,246.91,429.84z"/>
	<path d="M143.09,482.26c0.98,0,1.35-1.98-0.41-4.79C142.27,480.91,141.67,482.54,143.09,482.26z"/>
	<path d="M243.45,432.69c2.25,4.05,1.27,1.98,1.94,5C246.3,434.33,245.89,433,243.45,432.69z"/>
	<path d="M255.79,423.72c-1.22,0.31-1.73,1.02-2.04,2.24C256.09,425.15,256.09,425.15,255.79,423.72z"/>
	<path d="M205.91,403.12c0.92,1.84,0.92,1.84,2.65,1.43C208.06,403.22,207.24,402.91,205.91,403.12z"/>
	<path d="M121.77,438.3c0-1.53,0-3.06,0-4.59C120.95,435.35,121.46,436.88,121.77,438.3z"/>
	<path d="M184.09,416.68c-2.45-0.1-2.45-0.1-3.98,1.33C181.54,418.11,182.66,417.5,184.09,416.68z"/>
	<path d="M175.93,462.48c1.36,0.1,2.36-0.54,3.32-1.22C178.03,461.23,176.98,461.8,175.93,462.48z"/>
	<path d="M200.51,401.48c1.53,0.77,1.03,0.48,1.33-0.1C200.98,401.17,200.51,400.9,200.51,401.48z"/>
	<path d="M126.82,452.46c0.2,0.83,0.52,1.48,1.27,1.86C127.9,453.55,127.6,452.81,126.82,452.46z"/>
	<path d="M126.82,452.46c-0.02-0.06-0.04-0.12-0.05-0.18C126.66,452.38,126.61,452.38,126.82,452.46z"/>
	<path d="M234.98,441.97c-0.41,0.41-0.71,0.82-1.22,1.33C234.98,443.4,234.78,442.59,234.98,441.97z"/>
	<path d="M180.82,460.44c0.51,0,1.02-0.1,1.73-0.1C181.74,459.62,181.23,459.93,180.82,460.44z"/>
	<path d="M179.54,461.15c-0.22,0-0.09-0.02-0.29,0.1C179.52,461.25,179.5,461.26,179.54,461.15z"/>
	<path d="M180.93,460.54c-0.58,0-1.16-0.08-1.39,0.61C180.1,461.16,180.64,461.2,180.93,460.54z"/>
	<path d="M126.66,452.38c0-0.65-0.2-0.77-0.2-0.92C125.98,451.94,126.49,452.02,126.66,452.38z"/>
	<path d="M198.67,424.94c-0.61,0.2-0.82,0.51-0.2,1.22C198.57,425.66,198.57,425.25,198.67,424.94z"/>
	<path d="M177.05,420.25c-0.08,0.04-0.07,0.04-0.02,0.04C177.02,420.28,177.03,420.27,177.05,420.25z"/>
	<path d="M177.28,420.26c-0.11,0.01-0.2,0.02-0.25,0.03C177.04,420.31,177.14,420.28,177.28,420.26z"/>
	<path d="M177.28,420.26c0.06-0.01,0.12-0.01,0.18-0.01C177.39,420.25,177.33,420.26,177.28,420.26z"/>
	<path d="M178.07,419.33c0.51-0.1,1.02-0.31,1.53-0.41C179.5,418.82,179.66,418.69,178.07,419.33z"/>
	<path d="M179.5,418.82c0.15-0.23,0.32-0.42,0.47-0.63C179.69,418.31,179.5,418.5,179.5,418.82z"/>
	<path d="M179.97,418.19c0.08-0.03,0.16-0.06,0.24-0.08C180.08,417.97,180.15,417.97,179.97,418.19z"/>
	<path d="M178.07,419.43c-0.15-0.15-0.65,0.61-0.71,0.71C177.66,419.94,177.97,419.64,178.07,419.43z"/>
	<path d="M124.01,465.33c0.15,0,0.15,0.03-0.1-0.1L124.01,465.33z"/>
	<path d="M128.3,454.62c0-0.1-0.1-0.2-0.1-0.31C128.09,454.42,128.19,454.52,128.3,454.62z"/>
	<path d="M113.92,446.97c-0.07-0.07-0.13-0.13-0.2-0.2C113.71,446.87,113.81,446.97,113.92,446.97z"/>
	<path d="M152.37,325.09c-0.97,4.62,6.63,16.31,5.41,11.42C152.34,323.84,153.44,325.9,152.37,325.09z"/>
	<path d="M183.37,307.34c1.02,2.75,1.94,5.41,2.86,8.16C188.51,309.58,183.37,304.91,183.37,307.34z"/>
	<path d="M166.85,293.88c1.73-0.96-1.22-3.97-6.12-1.94c-0.51,0.21-1.33,0.51-1.43,1.53C162.87,292.76,162.87,292.76,166.85,293.88z
		"/>
	<path d="M187.96,403.12c0.62,0.4,1.02,0.2,1.94-0.82C181.79,394.19,185.1,401.27,187.96,403.12z"/>
	<path d="M150.63,337.53c0-2.12-1.67-3.35-3.16-3.67C148.39,336.41,148.59,336.62,150.63,337.53z"/>
	<path d="M144.72,328.46c0.92,1.22,1.53,2.14,2.35,3.16C147.27,329.37,147.06,328.97,144.72,328.46z"/>
	<path d="M153.08,318.67c-0.66-1.11-1.98,0.87-1.43,1.84C152.57,319.89,152.57,319.89,153.08,318.67z"/>
	<path d="M153.28,291.94c0.71,0.51,0.92,0.61,1.22,0.82C156.45,293.73,156.59,290.7,153.28,291.94z"/>
	<path d="M195.61,390.37c-0.51,1.53-0.71,2.35-1.12,3.26C196.17,393.21,196.27,391.86,195.61,390.37z"/>
	<path d="M206.63,312.55c-0.79-1.59-0.72-1.12-1.33-1.73C205,311.83,205,311.83,206.63,312.55z"/>
	<path d="M160.32,340.9c0,2.14,1.79,1.28,0.82,0.31C160.93,341,160.63,341,160.32,340.9z"/>
	<path d="M184.49,396.59c-1.17-1.17-0.76-1.19-2.14-0.92C183.79,396.82,182.79,396.87,184.49,396.59z"/>
	<path d="M187.45,325.91c0.25-0.25,0.24,0.04,0-1.63C186.82,325.75,186.99,325.45,187.45,325.91z"/>
	<path d="M186.13,319.38c0.27,0.54,0.34,0.65,0.71-0.1C186.45,319.02,186.43,318.78,186.13,319.38z"/>
	<path d="M179.7,392.51c0.51,0-0.14-0.49-0.2-0.61C179.21,392.18,179.02,392.17,179.7,392.51z"/>
	<path d="M165.22,345.49c0.69,0.69,0.27,0.24,0.82-0.31C165.55,344.94,165.22,344.82,165.22,345.49z"/>
	<path d="M171.24,347.12c-0.18-0.35-0.28-0.18-0.82,0C170.83,347.53,170.84,347.52,171.24,347.12z"/>
	<path d="M198.47,312.34c0.41-0.41,0-0.27,0-0.82C198.06,311.93,198.06,311.94,198.47,312.34z"/>
	<path d="M154.71,316.73c0-0.99-0.78-0.17-0.31,0.31C154.51,316.93,154.71,316.83,154.71,316.73z"/>
	<path d="M341.26,425.25c-0.46-0.76-0.62-1.68-3.06-2.35c-33.88-9.32-5.86,1.26-0.71,2.55
		C339.12,425.86,339.32,425.86,341.26,425.25z"/>
	<path d="M305.97,423.92c-10.92-2.73-4.88-1.35-19.68-4.79C278.5,417.83,294.27,425.06,305.97,423.92z"/>
	<path d="M336.06,492.97c-1.57-0.52-11.97-3.18-15.4-3.67C321.18,490.34,334.48,494.55,336.06,492.97z"/>
	<path d="M318.62,488.48l-0.1,0.1C318.85,488.68,318.69,488.61,318.62,488.48z"/>
	<path d="M320.55,489.3c-0.37-0.83-1.15-0.58-1.83-0.67C319.24,489.28,319.98,489.21,320.55,489.3z"/>
	<path d="M326.06,463.7c2.64,0.53,0.99,0.05,0.1-0.31C326.16,463.5,326.06,463.6,326.06,463.7z"/>
	<path d="M318.21,488.47c0.04,0.04,0.17,0.14,0.31,0.21C318.42,488.49,318.15,488.39,318.21,488.47z"/>
	<path d="M332.59,399.04c-0.07-0.08-0.15-0.15-0.2-0.2C332.38,398.93,332.38,398.93,332.59,399.04z"/>
	<path d="M330.85,398.12c0.03,0.13,0.07,0.11-0.05,0.11C331.33,399.28,333.26,398.59,330.85,398.12z"/>
	<path d="M332.28,398.73c-0.26,0-0.14,0.02-0.1,0.1L332.28,398.73z"/>
	<path d="M137.17,408.83c2.26-3.39-4.66-10.85-8.47-9.59C130.05,402.07,130.28,398.98,137.17,408.83z"/>
	<path d="M128.6,395.57c-0.61-3.67-1.33-7.34-2.14-11.83C123.91,391.16,128.6,397.62,128.6,395.57z"/>
	<path d="M117.59,301.94c-5.81-2.54-16.77,12.93-5.3,2.65C113.73,303.29,115.96,303.47,117.59,301.94z"/>
	<path d="M121.77,359.46c-0.55,0.92-0.72-0.34,1.33,5.2C123.3,362.42,122.58,361.09,121.77,359.46z"/>
	<path d="M102.08,306.12c-0.82-0.71-1.43-1.12-2.14-1.73C100.35,305.61,100.35,305.61,102.08,306.12z"/>
	<path d="M330.24,245.43c-0.2-0.1-0.41-0.2-0.31-0.1C329.73,245.33,330.04,245.33,330.24,245.43z"/>
	<path d="M338.95,211.17c0.02,0.03,0.03,0.06,0.06,0.09C339.01,211.21,338.98,211.18,338.95,211.17z"/>
	<path d="M338.81,210.96c0,0.1,0,0.1,0.1,0.2C339.02,211.16,338.91,211.06,338.81,210.96z"/>
	<path d="M257.11,513.78c-3.03,0.96-4.94,6.47-1.84,3.37c6.56-5.68,2.68,0.62,11.03-8.67c-0.73,0-1.41,0-2.25,0
		C262.04,510.08,259.4,512.92,257.11,513.78z"/>
	<path d="M272.72,501.33c0.31-0.61,0.2-0.71-0.61-1.63c-3.46,3.83-5.26,8.23-5.8,8.77C268.47,508.47,271.9,503.34,272.72,501.33z"/>
	<path d="M286.26,460.66c-1.35,0.25-4.04-0.84-5.08,3.65C286.73,464.31,285.58,460.92,286.26,460.66z"/>
	<path d="M286.28,460.54c2.35-2.45,1.94-5.2,1.02-8.47C285.32,454.85,286.91,451.77,286.28,460.54z"/>
	<path d="M246.3,548.25c-0.51,0.41-0.71,1.12-1.02,1.73c-0.1,0.2,0.2,0.51,0.51,1.02c2.24-2.04,3.37-4.39,4.28-6.83
		C248.28,544.77,249.55,545,246.3,548.25z"/>
	<path d="M248.65,522.65c2.25-0.41,1.7-3.29,5-4.39C250.63,517.72,249.44,519.7,248.65,522.65z"/>
	<path d="M271.7,476.96c-1.66-2.11-4.47-1.63-4.28-0.31C268.64,477.16,269.97,477.06,271.7,476.96z"/>
	<path d="M275.17,496.85c1.12-1.12,1.12-1.12,0.51-4.18C275.47,494.5,274.15,495.42,275.17,496.85z"/>
	<path d="M287,470.94c0.92-1.43,0.92-1.43,0.31-2.55C287.2,469.11,287.1,469.82,287,470.94z"/>
	<path d="M273.74,476.65c0.37,0,1.12-0.24,1.12-0.82C272.63,475.09,273.3,476.65,273.74,476.65z"/>
	<path d="M245.49,524.18c-0.1,0.2-0.2,0.51-0.31,0.71C246.03,524.47,245.71,524.4,245.49,524.18z"/>
	<path d="M244.87,525.1c0.41,0.41,0.31,0,0.41-0.2C245.18,525,244.98,525,244.87,525.1z"/>
	<path d="M243.96,551.72c-0.04-0.04-0.07-0.07-0.1-0.1C243.66,551.81,243.73,551.66,243.96,551.72z"/>
	<path d="M243.14,552.23c0.17-0.16,0.41-0.34,0.6-0.51C243.4,551.73,243.22,551.97,243.14,552.23z"/>
	<path d="M243.85,551.31c0,0.12,0.03,0.21,0.04,0.26C244.13,551.33,244.1,551.07,243.85,551.31z"/>
	<path d="M249.97,544.07c0.2-0.1,0.31-0.2,0.51-0.31C249.97,543.46,250.08,543.76,249.97,544.07z"/>
	<path d="M223.35,534.58c1.12,0,6.32-1.73,8.06-2.65C218.84,533.01,222.28,534.58,223.35,534.58z"/>
	<path d="M202.34,520c0.5-1.99,0.84-5.01-0.31-6.73C202.14,515.51,202.24,517.76,202.34,520z"/>
	<path d="M201.73,507.76c-0.1,1.84-0.71,3.77,0.2,5.61C202.14,511.43,202.14,509.6,201.73,507.76z"/>
	<path d="M203.77,529.99l0.1-0.31C203.74,529.69,203.77,529.63,203.77,529.99z"/>
	<path d="M202.65,526.43c0.1,0.31,0.2,0.51,0.41,0.82C203.36,526.63,203.06,526.53,202.65,526.43z"/>
	<path d="M202.09,525.02c0.18,0.47,0.38,0.94,0.56,1.41C202.65,525.93,202.83,525.24,202.09,525.02z"/>
	<path d="M202.04,525c0.02,0,0.03,0.01,0.05,0.02C202.03,524.9,202.04,524.83,202.04,525z"/>
	<path d="M219.27,531.13c0-0.07-0.01-0.13,0-0.21C219.12,531.06,219.16,530.98,219.27,531.13z"/>
	<path d="M219.27,531.13c0,0.43,0.27,0.6,0.61,0.6C219.71,531.56,219.47,531.36,219.27,531.13z"/>
	<path d="M221.82,533.87l0.1-0.1C221.74,533.77,221.7,533.68,221.82,533.87z"/>
	<path d="M221.42,533.05c-0.65,0,0.88,1.51-0.06,0.06L221.42,533.05z"/>
	<path d="M220.52,532.44c1.21,1.2,0.31,0.3,0.18-0.1C220.67,532.47,220.8,532.44,220.52,532.44z"/>
	<path d="M220.52,532.44c-0.19-0.24-0.44-0.45-0.53-0.71C219.9,532.17,220.13,532.44,220.52,532.44z"/>
	<path d="M144.92,268.99c0.79-3.16-4.36-7.83-5.2-8.67c-0.92-1.84-1.63-2.55-3.88-3.67C141.9,262.71,136.92,257.23,144.92,268.99z"
		/>
	<path d="M142.17,255.33c0.31-1.63,0.2-1.73-1.73-2.35C140.54,254.1,141.25,254.72,142.17,255.33z"/>
	<path d="M132.89,254.41c-0.29-0.65-0.73-0.7-1.27-0.63C131.92,254.32,132.3,254.5,132.89,254.41z"/>
	<path d="M131.46,253.8c0.05-0.01,0.1-0.01,0.15-0.02C131.54,253.68,131.59,253.67,131.46,253.8z"/>
	<path d="M133.8,255.23c-0.1,0-0.1-0.1-0.1-0.2C133.6,255.12,133.7,255.23,133.8,255.23z"/>
	<path d="M132.99,254.31l-0.1,0.1C133.06,254.54,132.95,254.55,132.99,254.31z"/>
	<path d="M133.6,255.12c-0.17-0.17-0.37-0.43-0.61-0.62C133,254.86,133.25,255.03,133.6,255.12z"/>
	<path d="M131.25,253.39v0.1C131.33,253.56,131.41,253.7,131.25,253.39z"/>
	<path d="M131.46,253.8c0-0.07-0.06-0.14-0.12-0.21C131.37,253.67,131.4,253.74,131.46,253.8z"/>
	<path d="M140.43,253.08c-0.1-0.1-0.1-0.31-0.2-0.41C139.82,253.08,140.23,252.88,140.43,253.08z"/>
	<path d="M172.05,537.75c-2.96,2.45-3.37,2.55-7.04,1.84C168.77,547.84,181.23,531.63,172.05,537.75z"/>
	<path d="M155.43,535.6c0.82-0.1,0.71-0.61,0.82-1.12C155.63,534.58,155.43,534.89,155.43,535.6z"/>
	<path d="M166.54,527.85c1.33-0.92,1.43-1.94,1.63-2.96c0.83-4.16,4.03-8.36,3.06-10.3C171.09,514.81,166.54,523.24,166.54,527.85z"
		/>
	<path d="M172.46,517.55l0.2-0.1C172.98,517.19,172.58,517.31,172.46,517.55z"/>
	<path d="M172.81,517.32c0.33-0.06,0.49-0.25,0.57-0.58C173.2,516.9,173.03,517.12,172.81,517.32z"/>
<path fill="#e6e6e6" d="m206.8 163.6c0-5.1 4.1-9.2 9.3-9.2s9.2 4.2 9.2 9.2-4.1 9.2-9.3 9.2-9.2-4.1-9.2-9.2zm17.3-.1c0-4.5-3.5-8.2-8.2-8.2s-8.2 3.7-8.2 8.3c0 4.5 3.5 8.2 8.2 8.2s8.2-3.7 8.2-8.3zm-13 0c0-2.8 2.1-5.1 5.1-5.1 1.9 0 2.9.6 3.9 1.5l-1.4 1.7c-.8-.7-1.5-1.1-2.5-1.1-1.7 0-2.8 1.4-2.8 3.1s1.1 3 2.8 3c1.1 0 1.7-.5 2.5-1.1l1.4 1.4c-1.1 1.1-2.1 1.7-4 1.7-2.9 0-5-2.3-5-5.1z"/><path fill="#e6e6e6" d="m226.6 154.7h3.4l4.2 13.2 4.4-13.3h2.6l4.4 13.3 4.2-13.2h3.3l-6.2 18h-2.7l-4.4-12.8-4.4 12.8h-2.7z"/><path fill="#e6e6e6" d="m252.8 165.8c0-3.9 3.1-7 7.2-7 4.2 0 7.2 3.2 7.2 7s-3.1 7-7.3 7c-4 0-7.1-3.1-7.1-7zm11.3 0c0-2.3-1.7-4.3-4.2-4.3s-4.1 2-4.1 4.3 1.7 4.3 4.1 4.3c2.7.1 4.2-1.9 4.2-4.3z"/><path fill="#e6e6e6" d="m269.5 159.1h3.1v3c.8-2 2.4-3.4 4.8-3.3v3.2h-.2c-2.7 0-4.6 1.7-4.6 5.4v5.1h-3.1z"/><path fill="#e6e6e6" d="m279.1 153.9h3.1v11.1l5.6-6h3.8l-5.4 5.5 5.5 8h-3.5l-4.1-5.8-1.9 2v3.9h-3.1z"/><path fill="#e6e6e6" d="m291.7 165.8c0-3.9 3.1-7 7.2-7 4.2 0 7.2 3.2 7.2 7s-3.1 7-7.3 7c-4 0-7.1-3.1-7.1-7zm11.3 0c0-2.3-1.7-4.3-4.2-4.3s-4.1 2-4.1 4.3 1.7 4.3 4.1 4.3c2.6.1 4.2-1.9 4.2-4.3z"/><path fill="#e6e6e6" d="m308.2 167.6v-8.6h3.1v7.6c0 2.1 1.1 3.3 2.9 3.3s3-1.3 3-3.3v-7.6h3.1v13.4h-3.1v-2.1c-.8 1.3-2.1 2.3-4.2 2.3-3.1.2-4.8-1.8-4.8-5z"/><path fill="#e6e6e6" d="m323.9 168.8v-7.1h-1.7v-2.6h1.7v-3.7h3.1v3.7h3.6v2.6h-3.6v6.6c0 1.2.6 1.7 1.7 1.7.7 0 1.3-.2 1.9-.5v2.5c-.8.5-1.7.7-2.8.7-2.3 0-3.9-.9-3.9-3.9z"/><path fill="#e6e6e6" d="m333.2 154.7h3.2v15h9.4v2.9h-12.5v-17.9z"/><path fill="#e6e6e6" d="m356 172.5v-1.7c-.9 1.1-2.3 2-4.4 2-2.6 0-4.8-1.4-4.8-4.2 0-3 2.3-4.4 5.4-4.4 1.7 0 2.6.2 3.7.5v-.2c0-1.9-1.2-2.9-3.3-2.9-1.5 0-2.6.3-3.9.8l-.8-2.5c1.5-.7 2.9-1.1 5.1-1.1 4 0 5.9 2.1 5.9 5.7v8zm.1-5.6c-.8-.3-1.9-.5-3.1-.5-2 0-3.1.8-3.1 2.1s1.1 2 2.6 2c2 0 3.5-1.1 3.5-2.9z"/><path fill="#e6e6e6" d="m364.9 170.5v2.1h-3.1v-18.7h3.1v7.4c1-1.4 2.4-2.5 4.5-2.5 3.2 0 6.3 2.5 6.3 7s-3.1 7-6.3 7c-2.1 0-3.5-1.1-4.5-2.3zm7.7-4.7c0-2.6-1.7-4.3-3.9-4.3s-3.9 1.7-3.9 4.4c0 2.6 1.8 4.3 3.9 4.3s3.9-1.7 3.9-4.4z"/><path fill="#e6e6e6" d="m376.9 170.8 1.4-2.1c1.4 1.1 3 1.7 4.4 1.7s2.1-.5 2.1-1.5-1.3-1.4-2.8-1.8c-.1 0-.2-.1-.2-.1-2-.6-4.2-1.4-4.2-4s2.1-4.1 4.8-4.1c1.7 0 3.5.6 5 1.5l-1.2 2.2c-1.3-.8-2.6-1.3-3.8-1.3s-1.9.5-1.9 1.4 1.3 1.4 2.8 1.8c.1 0 .2.1.2.1 2 .6 4.2 1.5 4.2 4 0 2.9-2.2 4.2-5 4.2-1.9 0-4-.7-5.8-2z"/><path fill="#e6e6e6" d="m505.6 163.6c0-5.1 4.1-9.2 9.3-9.2s9.2 4.2 9.2 9.2-4.1 9.2-9.3 9.2-9.2-4.1-9.2-9.2zm17.4-.1c0-4.5-3.5-8.2-8.2-8.2s-8.2 3.7-8.2 8.3c0 4.5 3.5 8.2 8.2 8.2s8.2-3.7 8.2-8.3zm-13.1 0c0-2.8 2.1-5.1 5.1-5.1 1.9 0 2.9.6 3.9 1.5l-1.4 1.7c-.8-.7-1.5-1.1-2.5-1.1-1.7 0-2.8 1.4-2.8 3.1s1.1 3 2.8 3c1.1 0 1.7-.5 2.5-1.1l1.4 1.4c-1.1 1.1-2.1 1.7-4 1.7-2.9 0-5-2.3-5-5.1z"/><path fill="#e6e6e6" d="m525.4 154.7h3.4l4.2 13.2 4.4-13.3h2.6l4.4 13.3 4.2-13.2h3.3l-6.2 18h-2.7l-4.4-12.8-4.4 12.8h-2.7z"/><path fill="#e6e6e6" d="m551.7 165.8c0-3.9 3.1-7 7.2-7 4.2 0 7.2 3.2 7.2 7s-3.1 7-7.3 7c-4.1 0-7.1-3.1-7.1-7zm11.2 0c0-2.3-1.7-4.3-4.2-4.3s-4.1 2-4.1 4.3 1.7 4.3 4.1 4.3c2.7.1 4.2-1.9 4.2-4.3z"/><path fill="#e6e6e6" d="m568.3 159.1h3.1v3c.8-2 2.4-3.4 4.8-3.3v3.2h-.2c-2.7 0-4.6 1.7-4.6 5.4v5.1h-3.1z"/><path fill="#e6e6e6" d="m577.9 153.9h3.1v11.1l5.6-6h3.8l-5.4 5.5 5.5 8h-3.5l-4.1-5.8-1.9 2v3.9h-3.1z"/><path fill="#e6e6e6" d="m590.6 165.8c0-3.9 3.1-7 7.2-7 4.2 0 7.2 3.2 7.2 7s-3.1 7-7.3 7c-4.1 0-7.1-3.1-7.1-7zm11.2 0c0-2.3-1.7-4.3-4.2-4.3s-4.1 2-4.1 4.3 1.7 4.3 4.1 4.3c2.6.1 4.2-1.9 4.2-4.3z"/><path fill="#e6e6e6" d="m607 167.6v-8.6h3.1v7.6c0 2.1 1.1 3.3 2.9 3.3s3-1.3 3-3.3v-7.6h3.1v13.4h-3.1v-2.1c-.8 1.3-2.1 2.3-4.2 2.3-3 .2-4.8-1.8-4.8-5z"/><path fill="#e6e6e6" d="m622.7 168.8v-7.1h-1.7v-2.6h1.7v-3.7h3.1v3.7h3.6v2.6h-3.6v6.6c0 1.2.6 1.7 1.7 1.7.7 0 1.3-.2 1.9-.5v2.5c-.8.5-1.7.7-2.8.7-2.3 0-3.9-.9-3.9-3.9z"/><path fill="#e6e6e6" d="m632 154.7h3.2v15h9.4v2.9h-12.6z"/><path fill="#e6e6e6" d="m654.8 172.5v-1.7c-.9 1.1-2.3 2-4.4 2-2.6 0-4.8-1.4-4.8-4.2 0-3 2.3-4.4 5.4-4.4 1.7 0 2.6.2 3.7.5v-.2c0-1.9-1.2-2.9-3.3-2.9-1.5 0-2.6.3-3.9.8l-.8-2.5c1.5-.7 2.9-1.1 5.1-1.1 4 0 5.9 2.1 5.9 5.7v8zm.1-5.6c-.8-.3-1.9-.5-3.1-.5-2 0-3.1.8-3.1 2.1s1.1 2 2.6 2c2 0 3.5-1.1 3.5-2.9z"/><path fill="#e6e6e6" d="m663.7 170.5v2.1h-3.1v-18.7h3.1v7.4c1-1.4 2.4-2.5 4.5-2.5 3.2 0 6.3 2.5 6.3 7s-3.1 7-6.3 7c-2.1 0-3.5-1.1-4.5-2.3zm7.8-4.7c0-2.6-1.7-4.3-3.9-4.3-2.1 0-3.9 1.7-3.9 4.4 0 2.6 1.8 4.3 3.9 4.3s3.9-1.7 3.9-4.4z"/><path fill="#e6e6e6" d="m675.8 170.8 1.4-2.1c1.4 1.1 3 1.7 4.4 1.7s2.1-.5 2.1-1.5-1.3-1.4-2.8-1.8c-.1 0-.2-.1-.2-.1-2-.6-4.2-1.4-4.2-4s2.1-4.1 4.8-4.1c1.7 0 3.5.6 5 1.5l-1.2 2.2c-1.3-.8-2.6-1.3-3.8-1.3s-1.9.5-1.9 1.4 1.3 1.4 2.8 1.8c.1 0 .2.1.2.1 2 .6 4.2 1.5 4.2 4 0 2.9-2.2 4.2-5 4.2-2 0-4.1-.7-5.8-2z"/><path fill="#e6e6e6" d="m61 298.6c0-5.1 4.1-9.2 9.3-9.2s9.2 4.2 9.2 9.2-4.1 9.2-9.3 9.2c-5.1 0-9.2-4.2-9.2-9.2zm17.4-.1c0-4.5-3.5-8.2-8.2-8.2s-8.2 3.7-8.2 8.3c0 4.5 3.5 8.2 8.2 8.2s8.2-3.7 8.2-8.3zm-13.1-.1c0-2.8 2.1-5.1 5.1-5.1 1.9 0 2.9.6 3.9 1.5l-1.4 1.7c-.8-.7-1.5-1.1-2.5-1.1-1.7 0-2.8 1.4-2.8 3.1s1.1 3 2.8 3c1.1 0 1.7-.5 2.5-1.1l1.4 1.4c-1.1 1.1-2.1 1.7-4 1.7-2.8.1-5-2.2-5-5.1z"/><path fill="#e6e6e6" d="m80.9 289.7h3.4l4.2 13.2 4.4-13.3h2.6l4.4 13.3 4.2-13.2h3.3l-6.2 18h-2.7l-4.4-12.8-4.4 12.8h-2.7z"/><path fill="#e6e6e6" d="m107.1 300.8c0-3.9 3.1-7 7.2-7s7.2 3.2 7.2 7-3.1 7-7.3 7c-4 0-7.1-3.1-7.1-7zm11.3 0c0-2.3-1.7-4.3-4.2-4.3s-4.1 2-4.1 4.3 1.7 4.3 4.1 4.3c2.6.1 4.2-1.9 4.2-4.3z"/><path fill="#e6e6e6" d="m123.7 294h3.1v3c.8-2 2.4-3.4 4.8-3.3v3.2h-.2c-2.7 0-4.6 1.7-4.6 5.4v5.1h-3.1z"/><path fill="#e6e6e6" d="m133.4 288.9h3.1v11.1l5.6-6h3.8l-5.4 5.5 5.5 8h-3.5l-4.1-5.8-1.9 1.9v3.9h-3.1z"/><path fill="#e6e6e6" d="m146 300.8c0-3.9 3.1-7 7.2-7s7.2 3.2 7.2 7-3.1 7-7.3 7c-4.1 0-7.1-3.1-7.1-7zm11.2 0c0-2.3-1.7-4.3-4.2-4.3s-4.1 2-4.1 4.3 1.7 4.3 4.1 4.3c2.6.1 4.2-1.9 4.2-4.3z"/><path fill="#e6e6e6" d="m162.4 302.6v-8.6h3.1v7.6c0 2.1 1.1 3.3 2.9 3.3s3-1.3 3-3.3v-7.6h3.1v13.4h-3.1v-2.1c-.8 1.3-2.1 2.3-4.2 2.3-3 .2-4.8-1.8-4.8-5z"/><path fill="#e6e6e6" d="m178.1 303.8v-7.1h-1.7v-2.7h1.7v-3.7h3.1v3.7h3.6v2.6h-3.6v6.6c0 1.2.6 1.7 1.7 1.7.7 0 1.3-.2 1.9-.5v2.5c-.8.5-1.7.7-2.8.7-2.3.1-3.9-.9-3.9-3.8z"/><path fill="#e6e6e6" d="m187.4 289.7h3.2v15h9.4v2.9h-12.5v-17.9z"/><path fill="#e6e6e6" d="m210.2 307.5v-1.7c-.9 1.1-2.3 2-4.4 2-2.6 0-4.8-1.4-4.8-4.2 0-3 2.3-4.4 5.4-4.4 1.7 0 2.6.2 3.7.5v-.2c0-1.9-1.2-2.9-3.3-2.9-1.5 0-2.6.3-3.9.8l-.8-2.5c1.5-.7 2.9-1.1 5.1-1.1 4 0 5.9 2.1 5.9 5.7v8zm.1-5.6c-.8-.3-1.9-.5-3.1-.5-2 0-3.1.8-3.1 2.1s1.1 2 2.6 2c2 0 3.5-1.1 3.5-2.9z"/><path fill="#e6e6e6" d="m219.2 305.5v2.1h-3.1v-18.7h3.1v7.4c1-1.4 2.4-2.5 4.5-2.5 3.2 0 6.3 2.5 6.3 7s-3.1 7-6.3 7c-2.2 0-3.6-1.1-4.5-2.3zm7.7-4.7c0-2.6-1.7-4.3-3.9-4.3s-3.9 1.7-3.9 4.4c0 2.6 1.8 4.3 3.9 4.3s3.9-1.7 3.9-4.4z"/><path fill="#e6e6e6" d="m231.2 305.8 1.4-2.1c1.4 1.1 3 1.7 4.4 1.7s2.1-.5 2.1-1.5-1.3-1.4-2.8-1.8c-.1 0-.2-.1-.2-.1-2-.6-4.2-1.4-4.2-4s2.1-4.1 4.8-4.1c1.7 0 3.5.6 5 1.5l-1.2 2.2c-1.3-.8-2.6-1.3-3.8-1.3s-1.9.5-1.9 1.4 1.3 1.4 2.8 1.8c.1 0 .2.1.2.1 2 .6 4.2 1.5 4.2 4 0 2.9-2.2 4.2-5 4.2-2 0-4.1-.7-5.8-2z"/><path fill="#e6e6e6" d="m360.6 298.6c0-5.1 4.1-9.2 9.3-9.2s9.2 4.2 9.2 9.2-4.1 9.2-9.3 9.2-9.2-4.2-9.2-9.2zm17.4-.1c0-4.5-3.5-8.2-8.2-8.2s-8.2 3.7-8.2 8.3c0 4.5 3.5 8.2 8.2 8.2s8.2-3.7 8.2-8.3zm-13.1-.1c0-2.8 2.1-5.1 5.1-5.1 1.9 0 2.9.6 3.9 1.5l-1.4 1.7c-.8-.7-1.5-1.1-2.5-1.1-1.7 0-2.8 1.4-2.8 3.1s1.1 3 2.8 3c1.1 0 1.7-.5 2.5-1.1l1.4 1.4c-1.1 1.1-2.1 1.7-4 1.7-2.8.1-5-2.2-5-5.1z"/><path fill="#e6e6e6" d="m380.5 289.7h3.4l4.2 13.2 4.4-13.3h2.6l4.4 13.3 4.2-13.2h3.3l-6.2 18h-2.7l-4.4-12.8-4.4 12.8h-2.7z"/><path fill="#e6e6e6" d="m406.7 300.8c0-3.9 3.1-7 7.2-7 4.2 0 7.2 3.2 7.2 7s-3.1 7-7.3 7c-4.1 0-7.1-3.1-7.1-7zm11.3 0c0-2.3-1.7-4.3-4.2-4.3s-4.1 2-4.1 4.3 1.7 4.3 4.1 4.3c2.7.1 4.2-1.9 4.2-4.3z"/><path fill="#e6e6e6" d="m423.3 294h3.1v3c.8-2 2.4-3.4 4.8-3.3v3.2h-.2c-2.7 0-4.6 1.7-4.6 5.4v5.1h-3.1z"/><path fill="#e6e6e6" d="m433 288.9h3.1v11.1l5.6-6h3.8l-5.4 5.5 5.5 8h-3.5l-4.1-5.8-1.9 2v3.9h-3.1z"/><path fill="#e6e6e6" d="m445.6 300.8c0-3.9 3.1-7 7.2-7 4.2 0 7.2 3.2 7.2 7s-3.1 7-7.3 7c-4.1 0-7.1-3.1-7.1-7zm11.3 0c0-2.3-1.7-4.3-4.2-4.3s-4.1 2-4.1 4.3 1.7 4.3 4.1 4.3c2.6.1 4.2-1.9 4.2-4.3z"/><path fill="#e6e6e6" d="m462.1 302.6v-8.6h3.1v7.6c0 2.1 1.1 3.3 2.9 3.3s3-1.3 3-3.3v-7.6h3.1v13.4h-3.1v-2.1c-.8 1.3-2.1 2.3-4.2 2.3-3.1.2-4.8-1.8-4.8-5z"/><path fill="#e6e6e6" d="m477.8 303.8v-7.1h-1.8v-2.7h1.7v-3.7h3.1v3.7h3.6v2.6h-3.6v6.6c0 1.2.6 1.7 1.7 1.7.7 0 1.3-.2 1.9-.5v2.5c-.8.5-1.7.7-2.8.7-2.2.1-3.8-.9-3.8-3.8z"/><path fill="#e6e6e6" d="m487.1 289.7h3.2v15h9.4v2.9h-12.5v-17.9z"/><path fill="#e6e6e6" d="m509.9 307.5v-1.7c-.9 1.1-2.3 2-4.4 2-2.6 0-4.8-1.4-4.8-4.2 0-3 2.3-4.4 5.4-4.4 1.7 0 2.6.2 3.7.5v-.2c0-1.9-1.2-2.9-3.3-2.9-1.5 0-2.6.3-3.9.8l-.8-2.5c1.5-.7 2.9-1.1 5.1-1.1 4 0 5.9 2.1 5.9 5.7v8zm.1-5.6c-.8-.3-1.9-.5-3.1-.5-2 0-3.1.8-3.1 2.1s1.1 2 2.6 2c2 0 3.5-1.1 3.5-2.9z"/><path fill="#e6e6e6" d="m518.8 305.5v2.1h-3.1v-18.7h3.1v7.4c1-1.4 2.4-2.5 4.5-2.5 3.2 0 6.3 2.5 6.3 7s-3.1 7-6.3 7c-2.2 0-3.5-1.1-4.5-2.3zm7.7-4.7c0-2.6-1.7-4.3-3.9-4.3s-3.9 1.7-3.9 4.4c0 2.6 1.8 4.3 3.9 4.3s3.9-1.7 3.9-4.4z"/><path fill="#e6e6e6" d="m530.8 305.8 1.4-2.1c1.4 1.1 3 1.7 4.4 1.7s2.1-.5 2.1-1.5-1.3-1.4-2.8-1.8c-.1 0-.2-.1-.2-.1-2-.6-4.2-1.4-4.2-4s2.1-4.1 4.8-4.1c1.7 0 3.5.6 5 1.5l-1.2 2.2c-1.3-.8-2.6-1.3-3.8-1.3s-1.9.5-1.9 1.4 1.3 1.4 2.8 1.8c.1 0 .2.1.2.1 2 .6 4.2 1.5 4.2 4 0 2.9-2.2 4.2-5 4.2-1.9 0-4.1-.7-5.8-2z"/><path fill="#e6e6e6" d="m659.5 298.6c0-5.1 4.1-9.2 9.3-9.2s9.2 4.2 9.2 9.2-4.1 9.2-9.3 9.2-9.2-4.2-9.2-9.2zm17.3-.1c0-4.5-3.5-8.2-8.2-8.2s-8.2 3.7-8.2 8.3c0 4.5 3.5 8.2 8.2 8.2 4.8 0 8.2-3.7 8.2-8.3zm-13-.1c0-2.8 2.1-5.1 5.1-5.1 1.9 0 2.9.6 3.9 1.5l-1.4 1.7c-.8-.7-1.5-1.1-2.5-1.1-1.7 0-2.8 1.4-2.8 3.1s1.1 3 2.8 3c1.1 0 1.7-.5 2.5-1.1l1.4 1.4c-1.1 1.1-2.1 1.7-4 1.7-2.9.1-5-2.2-5-5.1z"/><path fill="#e6e6e6" d="m679.3 289.7h3.4l4.2 13.2 4.4-13.3h2.6l4.4 13.3 4.2-13.2h3.3l-6.2 18h-2.6l-4.4-12.8-4.4 12.8h-2.7z"/><path fill="#e6e6e6" d="m705.5 300.8c0-3.9 3.1-7 7.2-7 4.2 0 7.2 3.2 7.2 7s-3.1 7-7.3 7c-4 0-7.1-3.1-7.1-7zm11.3 0c0-2.3-1.7-4.3-4.2-4.3s-4.1 2-4.1 4.3 1.7 4.3 4.1 4.3c2.7.1 4.2-1.9 4.2-4.3z"/><path fill="#e6e6e6" d="m722.1 294h3.1v3c.8-2 2.4-3.4 4.8-3.3v3.2h-.2c-2.7 0-4.6 1.7-4.6 5.4v5.1h-3.1z"/><path fill="#e6e6e6" d="m731.8 288.9h3.1v11.1l5.6-6h3.8l-5.4 5.5 5.5 8h-3.5l-4.1-5.8-1.9 2v3.9h-3.1z"/><path fill="#e6e6e6" d="m744.4 300.8c0-3.9 3.1-7 7.2-7 4.2 0 7.2 3.2 7.2 7s-3.1 7-7.3 7c-4.1 0-7.1-3.1-7.1-7zm11.3 0c0-2.3-1.7-4.3-4.2-4.3s-4.1 2-4.1 4.3 1.7 4.3 4.1 4.3c2.6.1 4.2-1.9 4.2-4.3z"/><path fill="#e6e6e6" d="m760.9 302.6v-8.6h3.1v7.6c0 2.1 1.1 3.3 2.9 3.3s3-1.3 3-3.3v-7.6h3.1v13.4h-3.1v-2.1c-.8 1.3-2.1 2.3-4.2 2.3-3.1.2-4.8-1.8-4.8-5z"/><path fill="#e6e6e6" d="m776.6 303.8v-7.1h-1.7v-2.7h1.7v-3.7h3.1v3.7h3.6v2.6h-3.6v6.6c0 1.2.6 1.7 1.7 1.7.7 0 1.3-.2 1.9-.5v2.5c-.8.5-1.7.7-2.8.7-2.3.1-3.9-.9-3.9-3.8z"/><path fill="#e6e6e6" d="m785.9 289.7h3.2v15h9.4v2.9h-12.5v-17.9z"/><path fill="#e6e6e6" d="m808.7 307.5v-1.7c-.9 1.1-2.3 2-4.4 2-2.6 0-4.8-1.4-4.8-4.2 0-3 2.3-4.4 5.4-4.4 1.7 0 2.6.2 3.7.5v-.2c0-1.9-1.2-2.9-3.3-2.9-1.5 0-2.6.3-3.9.8l-.8-2.5c1.5-.7 2.9-1.1 5.1-1.1 4 0 5.9 2.1 5.9 5.7v8zm.1-5.6c-.8-.3-1.9-.5-3.1-.5-2 0-3.1.8-3.1 2.1s1.1 2 2.6 2c2 0 3.5-1.1 3.5-2.9z"/><path fill="#e6e6e6" d="m817.6 305.5v2.1h-3.1v-18.7h3.1v7.4c1-1.4 2.4-2.5 4.5-2.5 3.2 0 6.3 2.5 6.3 7s-3.1 7-6.3 7c-2.1 0-3.5-1.1-4.5-2.3zm7.7-4.7c0-2.6-1.7-4.3-3.9-4.3-2.1 0-3.9 1.7-3.9 4.4 0 2.6 1.8 4.3 3.9 4.3 2.2 0 3.9-1.7 3.9-4.4z"/><path fill="#e6e6e6" d="m829.6 305.8 1.4-2.1c1.4 1.1 3 1.7 4.4 1.7s2.1-.5 2.1-1.5-1.3-1.4-2.8-1.8c-.1 0-.2-.1-.2-.1-2-.6-4.2-1.4-4.2-4s2.1-4.1 4.8-4.1c1.7 0 3.5.6 5 1.5l-1.2 2.2c-1.3-.8-2.6-1.3-3.8-1.3s-1.9.5-1.9 1.4 1.3 1.4 2.8 1.8c.1 0 .2.1.2.1 2 .6 4.2 1.5 4.2 4 0 2.9-2.2 4.2-5 4.2-1.9 0-4-.7-5.8-2z"/><path fill="#e6e6e6" d="m206.3 434.2c0-5.1 4.1-9.2 9.3-9.2s9.2 4.2 9.2 9.2-4.1 9.2-9.3 9.2-9.2-4.1-9.2-9.2zm17.4-.1c0-4.5-3.5-8.2-8.2-8.2s-8.2 3.7-8.2 8.3c0 4.5 3.5 8.2 8.2 8.2s8.2-3.7 8.2-8.3zm-13.1-.1c0-2.8 2.1-5.1 5.1-5.1 1.9 0 2.9.6 3.9 1.5l-1.4 1.7c-.8-.7-1.5-1.1-2.5-1.1-1.7 0-2.8 1.4-2.8 3.1s1.1 3 2.8 3c1.1 0 1.7-.5 2.5-1.1l1.4 1.4c-1.1 1.1-2.1 1.7-4 1.7-2.9.1-5-2.2-5-5.1z"/><path fill="#e6e6e6" d="m226.1 425.3h3.4l4.2 13.2 4.4-13.3h2.6l4.4 13.3 4.2-13.2h3.3l-6.2 18h-2.7l-4.4-12.8-4.4 12.8h-2.7z"/><path fill="#e6e6e6" d="m252.4 436.4c0-3.9 3.1-7 7.2-7 4.2 0 7.2 3.2 7.2 7s-3.1 7-7.3 7c-4.1 0-7.1-3.1-7.1-7zm11.2 0c0-2.3-1.7-4.3-4.2-4.3s-4.1 2-4.1 4.3 1.7 4.3 4.1 4.3c2.7.1 4.2-1.9 4.2-4.3z"/><path fill="#e6e6e6" d="m269 429.7h3.1v3c.8-2 2.4-3.4 4.8-3.3v3.2h-.2c-2.7 0-4.6 1.7-4.6 5.4v5.1h-3.1z"/><path fill="#e6e6e6" d="m278.6 424.5h3.1v11.1l5.6-6h3.8l-5.4 5.5 5.5 8h-3.5l-4.1-5.8-1.9 2v3.9h-3.1z"/><path fill="#e6e6e6" d="m291.3 436.4c0-3.9 3.1-7 7.2-7 4.2 0 7.2 3.2 7.2 7s-3.1 7-7.3 7c-4.1 0-7.1-3.1-7.1-7zm11.2 0c0-2.3-1.7-4.3-4.2-4.3s-4.1 2-4.1 4.3 1.7 4.3 4.1 4.3c2.6.1 4.2-1.9 4.2-4.3z"/><path fill="#e6e6e6" d="m307.7 438.2v-8.6h3.1v7.6c0 2.1 1.1 3.3 2.9 3.3s3-1.3 3-3.3v-7.6h3.1v13.4h-3.1v-2.1c-.8 1.3-2.1 2.3-4.2 2.3-3 .2-4.8-1.8-4.8-5z"/><path fill="#e6e6e6" d="m323.4 439.4v-7.1h-1.7v-2.6h1.7v-3.7h3.1v3.7h3.6v2.6h-3.6v6.6c0 1.2.6 1.7 1.7 1.7.7 0 1.3-.2 1.9-.5v2.5c-.8.5-1.7.7-2.8.7-2.3 0-3.9-.9-3.9-3.9z"/><path fill="#e6e6e6" d="m332.7 425.3h3.2v15h9.4v2.9h-12.5v-17.9z"/><path fill="#e6e6e6" d="m355.5 443.1v-1.7c-.9 1.1-2.3 2-4.4 2-2.6 0-4.8-1.4-4.8-4.2 0-3 2.3-4.4 5.4-4.4 1.7 0 2.6.2 3.7.5v-.2c0-1.9-1.2-2.9-3.3-2.9-1.5 0-2.6.3-3.9.8l-.8-2.5c1.5-.7 2.9-1.1 5.1-1.1 4 0 5.9 2.1 5.9 5.7v8zm.1-5.6c-.8-.3-1.9-.5-3.1-.5-2 0-3.1.8-3.1 2.1s1.1 2 2.6 2c2 0 3.5-1.1 3.5-2.9z"/><path fill="#e6e6e6" d="m364.4 441.1v2.1h-3.1v-18.7h3.1v7.4c1-1.4 2.4-2.5 4.5-2.5 3.2 0 6.3 2.5 6.3 7s-3.1 7-6.3 7c-2.1 0-3.5-1.1-4.5-2.3zm7.7-4.7c0-2.6-1.7-4.3-3.9-4.3-2.1 0-3.9 1.7-3.9 4.4 0 2.6 1.8 4.3 3.9 4.3 2.2 0 3.9-1.7 3.9-4.4z"/><path fill="#e6e6e6" d="m376.5 441.4 1.4-2.1c1.4 1.1 3 1.7 4.4 1.7s2.1-.5 2.1-1.5-1.3-1.4-2.8-1.8c-.1 0-.2-.1-.2-.1-2-.6-4.2-1.4-4.2-4s2.1-4.1 4.8-4.1c1.7 0 3.5.6 5 1.5l-1.2 2.2c-1.3-.8-2.6-1.3-3.8-1.3s-1.9.5-1.9 1.4 1.3 1.4 2.8 1.8c.1 0 .2.1.2.1 2 .6 4.2 1.5 4.2 4 0 2.9-2.2 4.2-5 4.2-2 0-4.1-.7-5.8-2z"/><path fill="#e6e6e6" d="m505.1 434.2c0-5.1 4.1-9.2 9.3-9.2s9.2 4.2 9.2 9.2-4.1 9.2-9.3 9.2-9.2-4.1-9.2-9.2zm17.4-.1c0-4.5-3.5-8.2-8.2-8.2s-8.2 3.7-8.2 8.3c0 4.5 3.5 8.2 8.2 8.2s8.2-3.7 8.2-8.3zm-13.1-.1c0-2.8 2.1-5.1 5.1-5.1 1.9 0 2.9.6 3.9 1.5l-1.4 1.7c-.8-.7-1.5-1.1-2.5-1.1-1.7 0-2.8 1.4-2.8 3.1s1.1 3 2.8 3c1.1 0 1.7-.5 2.5-1.1l1.4 1.4c-1.1 1.1-2.1 1.7-4 1.7-2.9.1-5-2.2-5-5.1z"/><path fill="#e6e6e6" d="m525 425.3h3.4l4.2 13.2 4.4-13.3h2.6l4.4 13.3 4.2-13.2h3.3l-6.2 18h-2.7l-4.4-12.8-4.4 12.8h-2.7z"/><path fill="#e6e6e6" d="m551.2 436.4c0-3.9 3.1-7 7.2-7 4.2 0 7.2 3.2 7.2 7s-3.1 7-7.3 7c-4.1 0-7.1-3.1-7.1-7zm11.2 0c0-2.3-1.7-4.3-4.2-4.3s-4.1 2-4.1 4.3 1.7 4.3 4.1 4.3c2.7.1 4.2-1.9 4.2-4.3z"/><path fill="#e6e6e6" d="m567.8 429.7h3.1v3c.8-2 2.4-3.4 4.8-3.3v3.2h-.2c-2.7 0-4.6 1.7-4.6 5.4v5.1h-3.1z"/><path fill="#e6e6e6" d="m577.5 424.5h3.1v11.1l5.6-6h3.8l-5.4 5.5 5.5 8h-3.5l-4.1-5.8-1.9 2v3.9h-3.1z"/><path fill="#e6e6e6" d="m590.1 436.4c0-3.9 3.1-7 7.2-7 4.2 0 7.2 3.2 7.2 7s-3.1 7-7.3 7c-4.1 0-7.1-3.1-7.1-7zm11.2 0c0-2.3-1.7-4.3-4.2-4.3s-4.1 2-4.1 4.3 1.7 4.3 4.1 4.3c2.6.1 4.2-1.9 4.2-4.3z"/><path fill="#e6e6e6" d="m606.5 438.2v-8.6h3.1v7.6c0 2.1 1.1 3.3 2.9 3.3s3-1.3 3-3.3v-7.6h3.1v13.4h-3.1v-2.1c-.8 1.3-2.1 2.3-4.2 2.3-3 .2-4.8-1.8-4.8-5z"/><path fill="#e6e6e6" d="m622.2 439.4v-7.1h-1.7v-2.6h1.7v-3.7h3.1v3.7h3.6v2.6h-3.6v6.6c0 1.2.6 1.7 1.7 1.7.7 0 1.3-.2 1.9-.5v2.5c-.8.5-1.7.7-2.8.7-2.3 0-3.9-.9-3.9-3.9z"/><path fill="#e6e6e6" d="m631.5 425.3h3.2v15h9.4v2.9h-12.5v-17.9z"/><path fill="#e6e6e6" d="m654.3 443.1v-1.7c-.9 1.1-2.3 2-4.4 2-2.6 0-4.8-1.4-4.8-4.2 0-3 2.3-4.4 5.4-4.4 1.7 0 2.6.2 3.7.5v-.2c0-1.9-1.2-2.9-3.3-2.9-1.5 0-2.6.3-3.9.8l-.8-2.5c1.5-.7 2.9-1.1 5.1-1.1 4 0 5.9 2.1 5.9 5.7v8zm.1-5.6c-.8-.3-1.9-.5-3.1-.5-2 0-3.1.8-3.1 2.1s1.1 2 2.6 2c2 0 3.5-1.1 3.5-2.9z"/><path fill="#e6e6e6" d="m663.3 441.1v2.1h-3.1v-18.7h3.1v7.4c1-1.4 2.4-2.5 4.5-2.5 3.2 0 6.3 2.5 6.3 7s-3.1 7-6.3 7c-2.2 0-3.6-1.1-4.5-2.3zm7.7-4.7c0-2.6-1.7-4.3-3.9-4.3s-3.9 1.7-3.9 4.4c0 2.6 1.8 4.3 3.9 4.3s3.9-1.7 3.9-4.4z"/><path fill="#e6e6e6" d="m675.3 441.4 1.4-2.1c1.4 1.1 3 1.7 4.4 1.7s2.1-.5 2.1-1.5-1.3-1.4-2.8-1.8c-.1 0-.2-.1-.2-.1-2-.6-4.2-1.4-4.2-4s2.1-4.1 4.8-4.1c1.7 0 3.5.6 5 1.5l-1.2 2.2c-1.3-.8-2.6-1.3-3.8-1.3s-1.9.5-1.9 1.4 1.3 1.4 2.8 1.8c.1 0 .2.1.2.1 2 .6 4.2 1.5 4.2 4 0 2.9-2.2 4.2-5 4.2-2 0-4.1-.7-5.8-2z"/></g>
</svg>
