<?xml version="1.0" encoding="utf-8"?>
<!-- Generator: Adobe Illustrator 23.0.1, SVG Export Plug-In . SVG Version: 6.00 Build 0)  -->
<svg version="1.2" baseProfile="tiny" id="Layer_1" xmlns="http://www.w3.org/2000/svg" xmlns:xlink="http://www.w3.org/1999/xlink"
	 x="0px" y="0px" viewBox="0 0 900 600" xml:space="preserve">
<g>
	<path d="M251.42,225.6l-0.1-0.1C251.36,225.66,251.3,225.64,251.42,225.6z"/>
	<path d="M421.32,400.89c-3.66-4.01-8.71-4.87-8.39-10.49c-0.5-0.8-1.5-0.4-1.9-0.9c-0.69-2.3,3.47-16.98,5.9-22.48
		c4.07-9.23,3.09-12.09,10.39-37.28c1.92-6.61-1.13-11.72,1.3-15.89c1.63-2.8-0.4-3.83-0.4-6.1c-1.17-13.61-21.09-16.76-30.18-20.39
		c-13.37-5.33-34.28-7.48-34.38-7.49c-6.85-1.1-11.68,1.38-18.89-0.8c3.78,6.81,5.84-4.34,50.17,9.19
		c-7.69,6.4-9.24,14.99-9.79,23.88c-0.86,13.91-8.73,10.08-11.59,29.38c-0.95,6.39-0.81,0.55-12.19-2.1
		c2.6-5.98,1.35-18.3-5.5-22.68c-5.6-3.59-10.08-8.81-16.39-11.49c-1.9-0.81-3.7-2.1-5.8-3.4c8.89-6.4,18.99-9.99,28.48-14.69
		c-10.89,2.5-20.89,6.9-29.88,13.99c-1.6-0.3-3-1.2-4.7-2.1c3.8-2.9,6.3-6.4,6.7-11.19c-8.08,11.31-7.09,11.56-10.92,9.19
		c1.55-0.98-0.65-5.03-2.27-6.2c0.57,1.99,1.22,4.07,1.8,6.07c-8.25-2.87-29.88-6.91-21.79-3.67c30.85,7.55,28.64,8.61,37.18,14.39
		c-0.23,2.56-14.75,1.74-21.59,26.08c-4.64,16.51,5.37,23.02,2.3,25.58c-7.96-6.07-18.41-8.57-25.1-16.89
		c2.03-1.19,0.8-6.54,11.3-22.29c-4.13,1.19-11.05,14.73-11.47,22.03c-4.82-4.72-15.4-8.59-20.01-11.63
		c-3.19-2.11-4.7-5.7-7.59-8.49c1.9-0.5,2.6,1,4.1,1c-0.43-2.13-4.82-3.12-4.5-5.2c0.2-2.6-1.91-5.3,0.1-7.99
		c0.6-0.8-0.2-1.8-0.5-2.8c2-1.4,1.6-3.3,1.4-5.1c-0.76-1.06-3.2,1.5-0.6-3.7c0.9,0.9,1.7,2.1,3.1,1.1
		c-0.5-2.38,2.14-3.19,2.58-5.14c-0.62,0.57-1.18,0.38-1.38,0.04c0.33-0.67,0.8-1.04,1.29-0.59c1.15,1.04,2.67-2.99,4.31-4.52
		c10.73-9.98,33.89-11.53,34.58-11.99c-5.09-4.24-21.8-6.25-34.98-19.19c-2.67-2.62-6.5-3.6-8.99-6.3
		c12.09-18.39,8-23.85,9.69-25.88c2.5-3,2.1-6.5,1.9-9.99c-1.1,0.4-1.19,1.3-1.1,2.1c0.65,5.48-3.69,6.74-4,11.89
		c-0.47,7.8-4.1,14.39-8.39,20.99c-1.2-0.5-2.3-1-3.4-1.5c0-3.2,3.4-5,3.1-8.29c-1.8,2.4-4.4,4.1-5,7.1c-4.7,0.4-9.39-1-13.89,0.6
		c1.18,3.32,11.22-2.39,21.49,6.2c10.34,8.65,23.01,17.91,36.28,21.09c-6.51,3.38-17.85,0.66-36.48,18.79
		c-4.74,4.61-5.67,9.8-2,30.48c0,2.4-3.18-0.39-4.5-2.6c-5.25-8.82-12.09-16.39-19.49-23.48c5.7,7.59,12.59,14.29,17.39,23.18
		c-4.59-2.48-21.42-9.01-26.28-11.29c-3.91-1.83-6.94-0.98-18.79-0.1c3.8-2.9,5.5-6.5,7.2-10.29c1.7,0.8,3.2,1.6,4.7,2.4
		c-1-1.9-3-2.5-4.5-3.7c-0.5-0.99,2.38-14.42-20.79-26.08c-2.77-1.4-4.29,0.12-2.1,1c4.29,2.36,12.17,8.04,12.19,8.09
		c2.22,6.03,18.06,15.4,1,27.48c-6.07,4.3-15.36-4.39-24.08-4.7c-0.3-1.4,1.1-2.2,0.7-3.6c-1.5,0.5-1,2.5-3.1,2.9
		c-4.5-1.1-8.76-3.42-11.69-7.99c-1.73-2.7-2.45-18.69,0.4-18.69c-0.2-5.6-2.4-10.99-1-16.59c0.6-0.6,1.3,0.3,1.8-0.3
		c0.1-1-1.1-0.8-1.5-1.7c0-4.96,3.65-5.59,3.8-21.89c0.04-4.8,0.5-9.59,2.1-14.09c1.7-4.8,1.44-9.88,3.2-14.59
		c3.74-10.03,5-19.77,2.8-31.18c-0.39-2-2.3-2.7-3.7-4.5c6.3-0.6,11.69-2.9,16.99-6.5c-2.39,7.28-0.74-0.37-3.2,7.99
		c1.81-1.05,2.7-2.57,2.25-4.62c0.8,0.2,1.45-0.34,1.45-0.88c0.2-1.8,1.7-2.5,2.9-3.6c-0.7-3.1-0.1-6.7-3.7-8.59
		c2.6-0.5,3.35,0.8,3.4,3c0.04,1.6,2.5,2.6,0.9,4.7c2.1-0.8,4.3,0.5,6.1-1.2c-5.7-1.5-6-1.7-4.6-5.2c1.7,0.4,3.3,1.2,5.4,1
		c0.6,3.3,1.6,6.4,1.5,9.29c-3.55,5.44-12.27,14.05-9.89,26.78c3.01,16.14,0.28,9.45-0.3,22.98c-0.72,16.96-1.93,2.86-3.9,32.68
		c-1.13,17.16-2.73,10.61-1.8,16.09c2.33,13.78-3.8,15.11-2.5,19.79c1.1-2.7,3.52-4.8,3.7-7.79c0.23-3.8,1-7.5,0.5-11.29
		c-1.86-14.1,15.77-12.58,20.99-15.19c1-0.3,1.4,0.6,2,0.6c2.9,0,5.9,0.3,9.49,0.8c-2.7-2.1-5.3-1.9-7.69-2.4
		c7.4-2.1,15.09-0.7,22.78-1.9c-0.9-1.5-2.2-0.8-3.1-1.6c0.9-3.9,2.17-7.81,4.7-11.19c2.18-2.91,3.5-6.3,5.7-9.19
		c2.49-3.74-1.88-0.9-3.3,1.5c-3.54,5.97-8.19,11.49-8.29,19.39c-23.54,0-22.54,3.66-24.98,3.3c-8.89-1.32-15.12,4.5-16.69,4.5
		c1.59-18.07,0.05-14.65,1.1-17.59c2.47-6.9,5.95-27.82,3.5-43.27c-1.09-6.9,0.23-13.07,4.7-18.49c2.21-2.69,3.5-6,5.5-9.19
		c31.57-5.53,30.68-5.47,31.48-5c4.01,3.1,11.44,0.07,14.59,10.29c5.7,18.51-5.24,38.22-3.5,45.77c3.14,0.17,0.88-0.21,6.9-30.08
		c1.41-6.98-0.84-10.74-1.5-13.39c-0.74-8.38-5.5-11.04-12.69-13.09c0.5-1.2,1.8-0.7,2.7-1.7c0.6-2.6-0.3-5.7,0.7-8.69
		c1.9,0.3,4.2-2.7,6.1,0.4c-0.5,1.5-2.2,1.1-2.9,2.4c6.84,6.16-0.43-0.94,12.49,5.3c1-0.3,0-1.1,0.4-1.6
		c6.45,0,5.48,13.69,7.3,19.39c6.44,20.26,2.6,35.58,3.7,36.68c5.23-1.61-0.45-32.8-2.1-38.47c-2.89-9.93,0.04-12.99-6.2-18.19
		c10.79-1.9,20.99-3.6,31.38-5.4c11.17,28.91,55.73,27.56,53.26-8.89c2.67-0.76,12.16-2.27,12.39-2.3c5.73-0.78,6.02-5.9,1.1-8.49
		c-4.5,1.5-8.99,1.7-13.59,2.5c-2.5-4.3-4.97-8.41-7.4-12.59c-4.93-8.52-20.72-10.21-29.38-7.3c-11.8,3.97-19.29,16.59-16.89,28.18
		c-11.39,1.8-22.78,3.6-34.18,5.3c-2.8-1.63-5.36-3.95-8.99-2.8c-2.37,0.75-11.81-0.09-12.69,6.1c-32.59,4.94-31.48,4.93-36.18,5.4
		c-3.88,0.39-8.66-2.2-9.69-2.2c-21.87,1.61-15.69,6.65-22.19,7.2c-32.45,5.07-59.34,9.18-59.46,9.19
		c-4.7-12.41-12.97-27.16-25.98-29.78c-19.75-3.98-20.97,7.01-24.58,9.99c-0.85,0.43-5.36-2.82-7.99,1.8
		c-2.81,4.92,1.41,7.52,3.2,9.09c0.9,0.8,0.9,0.8,0.6,2.8c-9.05-2.75-8.39-11.22-13.79,6.1c-2.64,8.48,6.63,5.55,15.09,8.29
		C0.69,190.33-0.01,186.77,0,196.43c0.01,10.25,5.44,6.55,62.06-3c2.68-0.89,1.91,20.41,26.58,27.58c2,0.58,3.7-0.71,5.5-1.1
		c20.35-4.39,22.26-14.66,24.98-36.48c67.15-11.53,57.58-11.42,63.56-6.3c-0.45,8.75,3.19,8.87-2.9,32.08
		c-7.78,29.63-4.49,23.51-5.3,29.28c-0.26,1.9-1,2.7-2.9,2.2c-1.2-0.6-0.6-2.7-2.6-2.6c-1,1.8,0.9,4.7-2.1,5.9
		c-0.7-1,0.3-3.1-1.5-3.5c-1.8,0.5,0.7,3.7-2.4,3c0,1.2,0,2.3,0,3.1c-4.3,2.9-5.4,7.99-9.09,11.29c0.8,2.6-0.49,5.3-1,7.89
		c-1.34,6.84,5.53,11.26-1.3,12.89c7.71,8.12,7.6,2.76-4.3,7.49c-2.21,0.88-3.49,2.3-3.2,4.8c0.31,2.6-0.6,5.1-0.6,7.59
		c0,4.54-0.05,4.15,16.99,10.49c0.6,20.89,0.3,41.47-0.6,61.66c10.89,6.4,14.79,7.49,21.99,2.2c0.1-18.99,2.9-37.77,2.3-56.76
		c1.2-0.5,1.91-0.11,2.5,0.2c13.43,7.14,20.63,8.75,56.56,21.99c20.05,7.39,9.33-0.15,30.38,8.69c3.51,1.47,7.09,2.85,10.89,3.5
		c1.3,0.22,2.79,0.51,3.9,1.2c5.4,3.35,4.26,1.23,29.48,10.89c-2.73,16.81,2.96,34.91,1.6,62.66c-7.56,1.89-2.89,8.15-8.99,17.09
		c-6.88,10.07-3.67,12.34,0.7,16.19c8.88,7.82,12.53,4.14,12.99,9.19c0.38,2.3,9.79,16.81,25.78,18.29
		c5.69,0.53,10.91-1.03,16.19-2.6c1.61-0.48,2.8-1.7,3.1-4.2c-16.88,12.59-41.44-1.93-43.37-13.89c-0.76-4.7-7.18-1.02-11.79-7.69
		c-1.02-1.48-3.11-1.29-4.3-3c-4.14-5.95,5.17-11.78,5.5-19.69c2.14,0-1.52,7.64,6.5,6.4c1.1-0.17,2.2-0.7,3.2-0.2
		c1.8-1,1.7-2.6,1.9-4.1c11.26,0,9.44-5.61,14.19-6.8c0.5,3.1,1,6,2.1,8.79c-4.1,0.7-8.29,0.5-11.69,3.4
		c3.38,3.04,1.31,2.26,7.1,1.9c0.94-0.47,0.3,0,0,0c-1.4,1.4-4.1,0.5-4.9,2.7c1.41,3.06,12.85-3.43,13.09,1.1
		c-3.5,1.1-7.3,0.9-10.69,2.6c0.73,4.88,10.29-0.2,13.79,1.2c-3.9,1.4-7.79,1.3-11.69,2.9c3.4,2.5,7.4,3.7,7.69,8.49
		c3.4,0.9,6.6,0.1,9.89-1.6c1.8,3.1,5.22,4.57,7.59,7.1c2.42,2.57,3.3,6.1,5,9.09c1.55-7.49-6.26-11.83-13.69-22.29
		c-1.7-2.4-2.82-5.18-4.6-7.49c-1.52-1.98-2-4.4-1.2-6c-3.8-2.4-4.57-6.4-5.3-10.29c-0.67-3.6-0.4-3.6-3.6-4.2
		c-1.56-7.8,0.59-21.67,3.8-28.08c1.2,2.2,1.5,4.4,3.1,6.4c-1.06-10.56-5.27-1.95,1.6-15.69c1.5,3.9,2.91,7.39,4.1,10.89
		c5.84,17.26,0.7,6.88,4.3,15.39c10.83,25.59,4.32,14.28,3.1,20.09c1.9,0.9,3.5-1.8,5.8,0.1c-0.7-2.2,1-2.9,1.1-4.2
		c-1.48-2.53-1.07,4.43-4.5-7.89c-9.15-32.9-14.34-33.34-11.89-38.37c3.71-7.64,6.2-15.59,5.4-24.18c2.9-1.5,5.91-2.38,7.99-4.4
		c10.24-9.87,21.88-8.36,20.39-19.69c3.5-3.1,7-6.3,7.89-11.39c0.8,1.7-0.09,3-0.6,4.2c-9.02,20.99-0.28,33.17-1,35.18
		c-1.42,3.99-1.02,8.19-1.3,12.29c-1.62,24.07-3.92,9.12-6.8,19.09c-0.54,1.89-0.61,8.6-5.8,13.79c-0.4,0.4-0.9,1-0.8,1.3
		c0.77,2.21-1.1,3.2-2,4.6c6.7,8.19,18.89,13.99,29.38,7.4c3.7,1.8,7.5,3.59,10.49,6.8c4.21,4.51,15.93,4.67,22.29,3.4
		c4.54-0.91,14.19,0.25,16.69-9.59C455.2,415.22,434.27,415.08,421.32,400.89z M365.75,134.36c2.3-0.49,3.6,0.3,4.5,2.8
		c-4.7,3.4-10.29,2.6-15.59,4C354.65,133.87,352.84,137.12,365.75,134.36z M258.12,154.45c0.1-0.7,0.2-1.2,0.3-1.7
		C259.02,153.35,259.52,153.95,258.12,154.45z M334.87,118.77c-0.6-1.5-2.1-1.5-2.9-2.7c12.42,2.64,12.17,5.38,18.69,16.69
		c5.64,9.78,0.82,32.65-13.09,36.08c-8.59,2.11-19.82-0.18-24.28-3.7c-4.42-3.47-7.3-8.39-10.19-13.69c4.6-0.8,8.79-1.5,12.89-2.2
		c2.2,2.7,4.1,3.2,6.8,2c8.08-3.61,4.32-14.38-1.2-14.59c-5.2-0.2-6,0.2-7,3.2c5.2-2.6,7.1-2.61,9.09,0
		c5.02,6.58-1.45,11.72-5.5,9.29c0.79-0.79,5.08-0.46,5.7-4.7c0.31-2.1-1.41-3.18-2.9-4.2c-0.79-0.54,0.11-0.77-18.89,2.4
		C300.97,119.47,320.06,109.89,334.87,118.77z M318.08,141.66c2.8-0.42,3.4,0.3,4,3.5c-0.7,1.8-2.3,2.01-3.9,2.3
		c-49.97,8.87-54.62,9.89-55.76,7.59C275.68,147.47,243.33,152.78,318.08,141.66z M262.02,150.55c0.9,0.4,1.3,1,1.5,2.4
		C262.71,151.95,262.22,151.55,262.02,150.55z M264.21,150.35c-0.7-1-2-1.4-2.3-2.8C263.71,148.65,263.71,148.65,264.21,150.35z
		 M260.22,154.95c1.1-2.5-1.3-3.1-1.8-4.8C262.02,152.95,262.32,153.55,260.22,154.95z M259.92,148.45c-1.6-0.1-2.6-0.5-3.9-1.7
		C257.82,146.95,258.72,147.45,259.92,148.45z M254.52,148.65c-1.7,1.1-2.5-0.4-3.6-0.9C252.02,147.95,253.32,147.55,254.52,148.65z
		 M249.52,149.25c-0.2,1.9-1.4,2-2.9,1.7C247.13,149.35,247.52,148.05,249.52,149.25z M210.65,158.35c12.79-2,25.48-3.9,38.27-5.9
		c0,2.5,0,4.6,0,6.9c-12.49,2.1-24.78,4.3-36.98,6.4C210.55,163.24,210.65,160.84,210.65,158.35z M61.45,159.65
		c-3.36-2.81-1.08-6.94,1.2-6.8c5.55,0.34,3.22,0.85,7.59,6.1c1.7,2.05,8.39,10.61,8.39,14.19
		C72.77,165.99,65.81,163.29,61.45,159.65z M73.64,172.04c-7.59-3.9-9.29-5.2-9.19-7.49C69.14,167.24,72.24,169.74,73.64,172.04z
		 M55.35,175.93c-8.28-0.51-3.84-2.99-1.4-12.99c6.7,3.9,12.88,7.72,19.29,11.19c4.49,2.44,1.31,4.27,3.7,2
		c4.95-4.7,8.44,0.36,10.39,6.9c1.36,4.57-4.36,10.32-8.49,7.3c6.4-1.3,8.29-8.89,2.9-13.29c-0.9-0.2-1.7,0.2-2.5,0.3
		C68.78,179.34,67.64,176.69,55.35,175.93z M2.99,191.22c3,2.6,2.3,5.7,1.8,8.89c3.6-3.5,1.7-6.7-0.2-9.99
		c25.48-3.9,50.77-7.79,75.85-11.69c3.74,3.25,3.68,9.3-2.8,10.39C-2.45,202.28-1.02,206.44,2.99,191.22z M116.51,187.83
		c-2.46,10.54-0.84,23.85-19.39,29.88c0.19-0.47,3.73-4.34-2.6-0.4c-10.49,6.53-28.48-10.51-29.48-24.58
		c10.38-1.89,10.35-2.14,11.99-1.9c1.2,0.6,1.8,1.89,3.2,2.1c5.6,0.85,11.16-5.38,9.19-10.79c-1.52-4.19-3-8.59-7.99-9.59
		c-3.2-7.69-8.09-13.69-13.79-19.39c2.3-4.34,8.56-10.72,11.99-9.39c10.53,4.07,10.31,3.01,20.09,17.09c0.62,0.89,1.1,1.9,2.8,2.7
		c-4.5-9.89-9.99-17.99-20.69-20.89c3.87-0.28,13.23,0.39,17.59,4.5C114.29,161.19,118.38,179.83,116.51,187.83z M199.56,164.34
		c-0.6,0.4-1.2,0.8-2.3,0.4c-2.36-10.03-2.24-4.74-5.3-7.79C198.66,157.85,197.96,156.95,199.56,164.34z M195.86,165.34
		c-5.11,1.02-1.39-3.57-5.5-6.4C194.56,159.15,194.56,159.15,195.86,165.34z M190.76,162.24c-3-0.3-5.7-1.2-8.59-0.8
		C184.57,159.25,188.56,159.55,190.76,162.24z M118.61,181.73c-0.61-9.39-3.21-8.52,2.2-9.49c67.03-12.05,68.92-11.29,72.35-5
		C186.92,170.99,190.77,169.07,118.61,181.73z M167.98,250.09c1.6,0.4,3.5-0.4,5.5,0.6c-2.3,4.3-3.6,8.69-4.1,13.59
		c-3.97-3.12,0.31-3.59-4.1-5.8C165.98,252.88,165.98,252.88,167.98,250.09z M170.68,276.17c-3.11,1.94-2.47,1.17-4-1.5
		c0.6-1.8,2.9-1.5,2.9-3.6c1,0.9,0.9,1.8,1.1,2.6c-0.5,0.9-1.6,0.6-1.9,1.3C169.08,276.07,170.18,275.17,170.68,276.17z
		 M160.68,270.77c-0.3,0.7-0.6,1.3-0.9,2.2C157.64,271.26,158.73,268.42,160.68,270.77z M161.38,370.5
		c2.3-20.19,0.9-40.47,2.4-61.56c4.1,2.9,8.59,2.6,12.89,4.6c-1.8,20.29-1,40.67-2.9,61.36C169.38,373.8,165.48,372.7,161.38,370.5z
		 M180.37,372.5c-1.6,0.6-3.2,1.3-5.2,2c4.33-58.63-1.15-64.86,7.4-59.16C179.8,373.52,180.13,368.09,180.37,372.5z M299.89,353.92
		c-11.64-5.67-52.49-16.4-52.96-16.59c-18.8-7.4-47.98-16.46-52.66-19.19c-9.95-5.81-23.94-6.36-45.77-16.39
		c-5.36-2.46-2-4.82-2.7-10.89c-0.28-2.4,1.1-3.69,3-4.2c3.3-0.88,6.7-2,10.39-2c2.5,3.3,6.3,2.2,9.69,2.7
		c0.73,10.24,4.22,16.98,16.99,19.49c16.99,3.33,7.54,3.86,20.49,6c8.82,1.45,19.46-2.32,29.58,2.1c8.2,3.58,16.68,6.41,24.18,11.29
		c2.09,1.36,10.21,4.27,11.79,6.7c3.3-0.4,5.1,2.4,7.59,3.4c0.5,1.4,0.1,2.7,1.1,3.7c0.7-0.9,0-2,0.9-2.8c2.4,1.3,5,2.4,6.5,5
		c2.4-0.7,5.4,2.1,8.99,8.09c3.5,0.9,5.6,3.8,8.69,5.2C303.69,355.22,301.7,354.8,299.89,353.92z M338.86,444.56
		c0.9-0.4,1.8-0.6,3.3,0C340.66,444.56,339.76,444.56,338.86,444.56z M354.85,460.84c-1-2.3-3.1-2.2-5.7-2.2c1.9-1,3.6-1.4,3.4-3.3
		C353.55,457.05,354.45,458.75,354.85,460.84z M352.45,455.35c-0.8,0-1.6,0-2.4-0.1C351.36,454.45,351.36,454.45,352.45,455.35z
		 M319.18,346.82c2.2,1.1,4.1,1.6,5.7,3c-2.3,1.5-2.9,4.4-5,6.8C319.98,353.12,319.48,350.22,319.18,346.82z M316.58,433.06
		c0.4-1.8-0.9-4.2,2.1-5.5C318.08,431.56,318.08,431.66,316.58,433.06z M324.27,438.76c-1.6,0.3-3.1,1-4.8,0.5
		c-0.5-1.1-1.2-2-1.3-3.2c5.3-11.66,0.46-4.71,9.19-1.8C324.77,434.76,325.07,437.06,324.27,438.76z M354.65,354.72
		c-2.63,12.03,3.59,11.6-5.3,29.08c-0.6-2.3,1.1-4-0.2-6.4c-4.01,9.21-2.04,12.53-3.2,13.19c-2.03,1.39-10.69,23.57-7.69,38.27
		c-1,0.8-1.7,1.7-2.8,2.1c-0.7-0.7-0.1-2-1.1-2.6c-2.46,2.67,4.04,7.37-8.79,3.1c-0.1-2.8,0.8-5.7-0.9-8.39
		c-1.2,1.5-0.7,3.1-1.5,4.4c-0.9-0.3-1.5-0.8-1.6-1.8c-0.2-1.2,0.8-16.89,1.2-17.59c-1.88-3.18-2.46-17.4-2.8-26.08
		c-0.13-3.2-1.43-6.4-1.1-9.39c2.46-22.16,9.66-19.56,11.09-27.58c-2.1-1.5-3.4-4.2-6.4-4.3c0.8,2.3,2.9,4,3.8,6.8
		c-3.1-1.5-5.9-2.4-8.29-3.1c-2.5-4.6-1.07-8.48,0.6-12.49c8.41-20.16,11.79-17.8,20.89-22.88c2.1,1.5,4.79,1.61,6.4,3.6
		c5.26,6.51,12.18,6.59,12.29,14.49c0.07,4.6,1.77,3.7,1.1,7.1C357.49,348.66,356.52,346.18,354.65,354.72z M365.35,354.62
		c-2.38,2.81-5.6,4.1-8.99,5.8c0-4.6,0.68-8.61,3.1-12.29c1.19-1.81,0.7-4.3,2-6.1c5.28,2.88,0.5,6.7,1.7,12.49
		c1.5-3.3,1.2-7,2.4-10.39c5.25,1.21,2.07,3,3.1,6.1c1.2-1.2,0.7-2.9,1.4-4.1c1.4,0.2,2.4,1,3.3,1.3c3.8-2.2,7-4.8,9.99-8.09
		C382.78,348.79,371.17,347.74,365.35,354.62z M375.74,342.62c0.9-5.1,1.7-10.29,4.8-14.69c3.1,0.2,6-1.3,9.49-1.3
		C388.33,335.03,380.94,337.83,375.74,342.62z M392.13,375.4c-0.2-5,2.5-10.19-1.1-14.99c-0.57-18.01-3.14-9.31,4.2-34.98
		c-4.2-0.2-8.49-0.5-13.19,0.1c10.3-16.96,1.79-28.52,16.19-35.88c6.7,2,13.87,2.93,19.29,7.79c1.79,1.61,4.48,1.31,6,3.1
		c2.38,2.81,2.31,6.59,3.6,9.79c0.98,2.42-2.31,4.09-1.5,7.3c2.32,9.19-1.77,14.04-3.1,20.69c-5.48,27.36-10.15,31.12-13.79,53.66
		c-3.3,0.9-6.5,1.5-9.89,1.5c0-2.1,0.4-3.9-0.2-6.2c-1.7,2.3-1.7,4.5-2.5,6.6C384.74,392.8,392.87,394.36,392.13,375.4z
		 M389.83,395.09c5.9,1.8,11.79,0.9,17.89-0.5c-0.8,8.09-7.1,8.89-13.19,9.79C390.43,401.78,389.43,399.99,389.83,395.09z
		 M450.99,425.07c-1.61,10.02-28.16,9.92-34.78,5.6c0.4-0.7,1-1.1,0.4-1.9c-3-1.7-6.6-2.29-9.29-4.6c-2.91-2.49-5.76-2.25-8.69-0.3
		c-3.45,2.3-11.99,2.34-21.79-6.5c1.9-2.4,1.82-5.38,3.7-7.89c2.22-2.98,4.6-6.4,3.9-10.69c-0.1-1.1,0.2-2.3,1.3-3.3
		c6.32,6.8,0.92,4.57,6.5,9.49c2.81,2.48,5.6,0.33,8.39,0c9.41-1.12,5.93-5.98,8.99-9.29c0.9-0.5,0.7,0.8,1.2,0.6
		c0.9-0.2,0.6-1.3,1.9-1.7c-0.6,4-3.8,6.2-5.2,9.29c1.4,0.2,2.2-0.9,3.5-1c-0.6,1.4-2,2.7,0.4,3.4c6.62-5.96,1.4-0.8,1.9,3
		c5.71-2.05,4.02-11.55,6.5-6.6c-0.9,3-3.7,5.1-4.2,8.79c4.1-0.5,4.6-4.1,6.7-6.5c0.5,3.1-2.4,4.8-2.3,7.3
		c2.44,1.68,3.82-1.31,5.6-4.2c0.2,1.8-2.1,2.9-0.6,4.6c1.9,0.5,2.2-1.9,3.6-2.4c0.4,1.5-1.5,2.3-0.8,3.6c0.8,0.6,1.4-0.5,2.1-0.1
		c-0.2,1-1.7,0.9-1.8,2c1.75,4.08,5.02-1.07,6.1-2.4C443.37,416.68,452.05,418.43,450.99,425.07z"/>
	<path d="M896.49,418.07c-5.99-7.42-8.44-0.68-26.58-15.79c-5.56-4.63-4.96-5.86-8.79-7.3c0-1.8-1.3-3.3-1.2-5
		c-0.5-0.9-1.5-0.4-2-1.1c-0.61-1.83,3.38-16.5,5.8-22.09c4.46-10.34,4.77-19.23,9.79-35.48c3.09-9.99-0.78-13.38,1.9-17.79
		c1.78-2.93-0.3-4.4-0.3-6.1c-0.9-13.97-21.52-17.03-30.28-20.59c-13.04-5.3-34.16-7.56-34.38-7.59c-6.85-1.1-11.68,1.38-18.89-0.8
		c3.62,6.16,8.58-3.5,50.17,9.19c-7.69,6.4-9.29,14.99-9.89,23.88c-0.94,13.91-9.03,10.04-11.59,29.38
		c-0.83,6.25-1.15,0.63-12.19-2.2c2.53-6.27,0.9-19.65-5.1-22.19c-4.89-2.44,0.33-2.31-22.78-15.19
		c8.99-6.5,19.09-10.09,28.58-14.79c-10.89,2.5-20.89,6.9-29.88,13.99c-1.6-0.3-3-1.2-4.9-2.2c4.33-2.45,6.28-6.4,6.9-11.09
		c-7.97,11.15-7.64,12.28-11.85,10.17c2.16-1.08-0.4-5.26-1.94-6.38c0.7,2.08,1.29,4.27,1.89,6.36c-7.56-2.67-15.42-3.67-23.27-5.36
		c-0.19,3.26,11.05,1.86,28.88,9.69c3.4,1.49,6.4,4.1,9.69,6.4c-1.2,1.1-2.6,1.6-3.9,2.1c-14.89,6.77-20.95,26.31-18.49,37.38
		c2.17,9.75,5.08,10.41,2.9,12.09c-7.99-6.1-18.49-8.59-25.18-16.99c0.03,0,0.06,0,0.09-0.01c-4.94-4.94-15.32-8.52-20.48-11.99
		c-2.99-2.01-4.4-5.6-7.3-8.09c1.9-0.9,2.6,0.9,4.1,0.8c-0.48-2.22-4.83-2.84-4.5-5.2c0.2-2.7-1.91-5.3,0.1-7.99
		c0.6-0.8-0.4-1.8-0.4-2.9c1.8-1.3,1.4-3.2,1.2-5.1c-0.5-0.6-1.3,0.2-1.8-0.5c0.1-1,0.5-2,1.3-3c0.8,0.8,1.6,2,3,1.1
		c-0.4-2.4,2.1-3.3,2.7-5.1c-0.4-0.1-0.8-0.1-1.2-0.2c0.4-0.9,0.8-1.5,1.6-0.3c5.05-11.37,33.21-17.38,38.47-16.89
		c-5.94-5.94-9.54-1.09-27.58-13.69c-0.7-0.49-1.6-0.8-1.8-1.7c-1.39-6.34-6.43-8.08-12.19-18.89c10.29-3.4,20.49-6.7,30.78-9.99
		c1.97,3.94,9.62,13.3,16.69,14.89c23.84,5.37,36.79-2.83,34.98-31.38c3.52-1.71,9.89-3.23,12.49-4.3c4.99-2.05,3.82-6.83-0.9-8.59
		c-4.1,2.2-8.59,2.9-12.99,4.5c-10.13-12.66-10.79-16.49-21.69-17.99c-22.45-3.09-36.1,16.52-30.58,33.88
		c-12.09,3.7-24.28,7.4-36.58,11.19c-4.39-5.35-19.86-3.32-19.69,6c-10.39,3.2-20.4,6.25-30.38,9.29
		c-3.57,1.09-13.63-4.17-19.39,0.1c-0.7,0.1-1.1-0.9-1.7-0.7c-5,2-9.49-2.8-14.59-1.1c2.04-2.3,2.51-7.43-0.5-7.1
		c-0.4-0.6,0.9-1.1-0.3-1.8c-0.9,0-1.9,1.5-2.8,0.8c-1.4-0.8-0.8-2.7-2.6-2.8c-1.53,1.12,1.1,4.78-2.3,6c-0.5-1.2,0.1-2.9-1.4-3.6
		c-1.6,0.5-0.4,2-1,2.8c-1.89,0.76-1.5-0.27-1.5,3.3c-4.4,2.8-5.3,7.99-8.99,11.19c0.4,3.6-1.4,6.9-1.1,10.59
		c-10.89,3.3-21.69,6.6-32.68,9.99c-15.93-33.62-44.51-33.32-51.47-15.79c-1.34,3.37-2.04,2.2-3.4,2.2
		c-6.67-0.44-8.01,6.84-4.2,9.99c2.97,2.46,5.24,2.32,3.8,4.8c-5.98-1.25-9.72-6.43-10.99-0.5c-1.81,8.44-4.13,14.79,3.5,14.79
		c18.08,0,11.63,0.4-44.87,17.59c-4.6,1.4-6.77,8.27-3.9,12.09c3.35,4.46,3.12,2.97,50.47-12.19c16.21-5.19,6.97-5.51,16.89,8.29
		c5.36,7.47,19.33,15.85,26.98,12.09c7.29-3.58,16.93-5.32,19.99-20.29c4.67-22.85-3.8-19.05,3.8-22.09
		c23.29-7.67,28.92-11.26,32.28-5.5c2.03,3.48,4.8,4,8.49,2.9c-0.2,2.8-1.39,5.3-1.7,7.89c-1.04,8.84,1.76,9.73-2.1,13.39
		c-17.89-7.22-18.77-6.18-18.29-11.29c1.04-6.26-1.03-8.62,4-10.19c2.38-0.74,5-0.6,7.1-2.4c-3.93,0.3-12.5,1.53-12.19,5.2
		c1.22,14.59-7.15,11.28,15.19,19.19c0.81,0.29,2.31-2.49,0.8,62.46c7.2,3.7,13.99,8.59,21.79,1.8c0.4-0.8,0.3-1.7,0.2-2.5
		c-0.7-10.29,1.01-20.39,1.7-30.48c0.23-3.38,6.91-9.13,8.59-10.19c2.48-1.57,2.74-6.96,3.7-8.39c1.01-0.4,51.17,19.87,61.86,20.89
		c9.25,0.88,17.22,6.85,26.68,8.39c1.39,0.23,2.79,0.51,3.9,1.2c4.76,2.95,10.29,3.81,15.49,5.6c4.69,1.61,9.29,3.5,13.99,5.2
		c-2.59,19,1.54,19.13,1.9,62.66c-7.7,1.92-2.83,8.38-9.09,17.19c-7.19,10.1-2.95,12.94,0.7,16.19c8.83,7.87,12.53,4.14,12.99,9.19
		c0,1.09,8.48,15.45,23.28,17.89c6.5,1.07,12.41-0.42,18.39-2.1c1.71-0.48,3-1.6,3.4-4.3c-16.88,12.59-41.44-1.92-43.37-13.89
		c-0.76-4.71-7.14-0.95-11.79-7.69c-1.37-1.98-8.17-1.87-4.2-10.29c1.91-4.04,5.2-7.49,5.5-12.39c0.2,0,0.4,0.1,0.7,0.1
		c0,10.18,6.67,4.93,8.99,6.1c1.8-1,1.7-2.6,1.9-4.1c11.26,0,9.44-5.61,14.19-6.8c0.5,3.1,1,6,2.1,8.79
		c-18.28,3.12-9.13,3.64-9.59,5.8c2.42-0.25,6.19-0.67,7.89-0.1c-3.03,0-7.05,0.34-7.79,2.4c0.75,1.63,1.4,0.96,10.39-0.5
		c1.7-0.28,1.7-0.3,2.7,1.6c-3.5,1.2-7.3,0.9-10.69,2.6c0.71,4.75,10.22-0.09,13.79,1.1c-3.9,1.5-7.79,1.2-11.49,3
		c3.1,2.5,7.3,3.6,7.49,8.39c3.4,0.9,6.6,0.1,9.59-1.4c5.1,4.8,11.29,8.49,12.69,16.19c2.4-10.95-9.76-12.06-13.29-22.88
		c-3.2-1.4-2.89-5-4.9-7.3c-1.4-1.6-1.7-3.7-1.3-5.9c-3.5-2.2-4.28-6.3-5-10.09c-0.68-3.6-0.4-3.6-3.7-4.3
		c-0.9-9.49,0.4-18.69,3.8-27.58c1.4,1.7,1.7,3.9,3.3,6c-1.17-12.07-5.32-1.49,1.6-15.79c11.83,31.13,4.23,16.11,8.39,26.28
		c2.26,5.51,4.5,10.99,6.4,16.59c-0.6,1.6-2.9,1.5-3.3,3.4c1.9,0.9,3.5-1.7,5.8,0c-0.7-2.2,1-2.9,1.2-4.2
		c-1.44-2.46-1.12,4.24-4.5-7.89c-9.15-32.9-14.34-33.34-11.89-38.37c3.71-7.64,6.2-15.59,5.4-24.18c2.9-1.5,5.91-2.38,7.99-4.4
		c10.23-9.87,21.88-8.36,20.39-19.69c3.5-3.1,6.9-6.3,7.89-11.39c0.8,1.7-0.09,3-0.6,4.2c-9.02,20.99-0.28,33.17-1,35.18
		c-1.42,3.99-1.02,8.19-1.3,12.29c-1.62,24.07-3.92,9.12-6.8,19.09c-0.54,1.89-0.61,8.6-5.8,13.79c-0.4,0.4-0.9,1-0.8,1.3
		c0.77,2.21-1.1,3.2-2,4.6c6.7,8.19,18.89,13.99,29.38,7.4c4,1.8,7.93,3.86,10.99,7.2c5.64,6.13,31.88,3.66,35.98-1.7
		C903.27,421.7,897.78,419.67,896.49,418.07z M811.95,208.61c-4.1,4-9.79,4.1-14.59,6.2c-0.6-1.9-0.9-3.4-0.9-5.2
		C808.3,206.09,809.74,204.02,811.95,208.61z M766.28,192.32c6.12-0.02,13.47-1.63,19.89,6.3c8.93,11.03,9.09,14.24,9.59,18.29
		c1.32,10.54-1.27,24.75-11.89,28.78c-6.79,2.58-18.14,2.97-24.28-0.6c-5-2.9-8.39-7.89-12.09-12.69c4.5-1.5,8.59-2.8,12.59-4.1
		c5.21,5.21,10.69-0.97,10.69-5.8c0-3.95-3.73-8.4-7.3-7.69c-3.76,0.74-8.06,1.33-5.98,4.67c6.02-7.8,13.72,0.76,9.97,6.93
		c-1.33,2.18-3.7,2.9-5.6,1.7c0.5-0.5,1.1-0.59,1.7-0.8c2.75-0.98,5.68-5.28,0.5-8.39c-1.91-1.15-0.82-0.76-18.69,4.6
		C740.88,211.25,749.42,192.38,766.28,192.32z M701.72,234c1.2,1.4,2.4,2.8,3.6,4.2c0.5,1.3-1.4,1.9-0.8,3.2
		c2.2-0.8,2.2-2.8,2.3-4.6c57.61-17.34,57.1-18.82,58.36-14.49c0.84,2.89-3.38,4-3.5,4c-56.67,18.52-54.26,17.83-57.26,17.69
		c-1.4-0.07-3.5-0.2-4.4,1.8c4.2-0.1,8.39-1.7,12.39,0.9c0.4-1.1-1.2-1.1-1-2c0.5-0.4,1-0.8,1.8-0.5c2.5,6.3,8.09,10.69,11.59,16.59
		c-3.48-3.16-15.97-12.34-22.78-12.79c-0.7-0.8-1.3-1.5-2-2.2c-2-2.5,1.1-3.1,1.6-4.9c1.43,2.5,1.7-0.63,2.1-3
		C700.29,233.7,700.97,234.75,701.72,234z M696.72,247.69c-1,0-1.9,0.4-2.8-0.2c0.1-7.49,0.5-7.99,6-7.4c0.2,2.5-2.5,1-3.3,2.8
		C698.65,248.64,702.01,247.69,696.72,247.69z M702.02,238.49c-3.7,0.7-4.8-2.9-7.3-4C698.52,233.4,700.22,235.89,702.02,238.49z
		 M691.53,236.29c1.7,0.3,3.7,0,5.4,1.7c-2,1-3.7,1.1-5.4,0.6c-0.7,0.9-0.7,2.6-2.6,1.7C689.53,238.89,690.33,237.59,691.53,236.29z
		 M693.33,241.69c-3.2,2,0.2,4.8-1.8,7.4c-10.69,3.5-21.79,7.1-32.98,10.69c-0.8-2.7-1.1-5.1-1-7.79
		C696.17,240.1,692.36,241.21,693.33,241.69z M658.85,261.18c34.21-10.91,43.56-16.6,54.16-6.6c23.27,21.94,42.57,20.87,34.68,22.19
		c-14.75,3.45-22.32,5.29-37.08,20.49c-3.92,4.04-0.4,22.93,0.4,28.88c-3.37-0.61-3.43-2.52-10.99-12.99
		c-3.69-5.1-8.39-9.49-12.89-14.09c5.7,7.69,12.59,14.39,17.29,23.18c-39.51-18.81-33.4-9.77-44.87-11.79c4-2.5,5.2-6.4,7.2-9.79
		c1.6,0.8,3.1,1.6,4.6,2.3c-1.2-2-3.3-2.5-4.7-3.9c0.2-11.49-6.8-17.49-16.59-21.09C655.54,263.58,658.85,266.21,658.85,261.18z
		 M657.55,285.76c6.6,5.6,8.89,11.69,6.2,16.79c-4.11,7.79-9.49,9.79-18.99,7c-0.4-7.89,1.5-15.69,2.1-23.18
		C650.86,284.46,654.25,286.66,657.55,285.76z M649.36,280.17c1-0.1,2.1-0.1,2.7,1.2C650.86,281.46,649.86,281.36,649.36,280.17z
		 M638.56,255.08c0.3-1.1-1-0.8-1-1.7c3-1.1,4.5,1.5,6.6,2.3c0.5,1.9,0.9,3.5-1.7,4c-0.7-0.5-1.5-1-2-1.4c-0.8-1.2,0.7-2.3-0.7-3.3
		c-1.31,1.84-2.29,3.6-7.4,1.5c-1.7,2.1-1.7,2.1-3.9,2.3c0-4.1,3.7-3.6,5.8-4.8C635.77,254.48,637.06,255.78,638.56,255.08z
		 M613.98,250.19c5.4,1,11.39-1.9,16.69,1.9c4-0.8,4-0.8,5.4,0.1c-4.8,0.8-9.39,1.7-9.59,7.69c-4.2,1.3-8.19,2.5-11.89,3.6
		c-2-1.3-0.1-4.8-3.4-4.7C611.58,255.68,611.58,252.68,613.98,250.19z M508.35,273.37c-1.76-1.27-1.77-5.1,0.4-6.3
		c1.41-0.78,4.78-0.29,5.6,1c2.07,3.26,13.79,12.92,13.79,17.39C520.92,278.4,513.67,277.2,508.35,273.37z M523.44,285.26
		c-10.21-4.61-11.7-4.55-10.19-6.9C516.84,280.37,520.44,282.26,523.44,285.26z M503.55,291.46c-0.8,0.1-1.7,0.3-2.4-0.4
		c-0.9-2.2-0.2-8.29,1.4-12.59c30.88,12.87,20.19,9.32,23.18,11.19c1.29,0,4.23-6.89,8.99-1c4,4.95,5.72,8.82,2,12.99
		c-1.51,1.69-3.3,3-5.8,1.4c7.3-3.1,5.9-11.29,0.5-14.09C519.41,293.37,524.12,290.45,503.55,291.46z M455.99,314.54
		c3.3,2.1,2.8,5.3,3.1,8.49c2.9-4,0.6-6.8-1.8-9.89c24.88-7.59,49.27-15.09,73.55-22.39c4.18,3.01,4.97,9.01-1.7,11.09
		C456.57,324.47,453.04,331.25,455.99,314.54z M567.91,290.46c-1.3,11.15,3.83,28.51-14.39,37.67c-1.99,1,0.3-1.11,0.3-1.8
		c-2.39-0.27-4.18,5.61-13.19,3.6c-4.99-1.12-9.76-2.43-13.29-6.3c-3.76-4.13-7.06-8.65-9.19-13.99c-1.22-3.05-1.75-2.08,10.59-6.2
		c1.6,0.6,2.4,2.09,4.1,2c10.37-0.59,11.17-17.03-2.1-21.19c-4-7.3-9.89-12.79-16.29-17.89c8.22-19.06,18.21-12.53,35.28,5.5
		c-5-9.09-11.49-16.49-23.08-17.99C550.42,244.64,568.51,285.34,567.91,290.46z M611.58,277.27c1,0.2,1.2,0.8,1.3,1.4
		C611.88,278.87,611.88,278.17,611.58,277.27z M613.08,276.47c2-0.9,3.3-0.7,4.7-0.3C616.48,276.47,615.28,277.97,613.08,276.47z
		 M614.68,280.56c0,0.4,0,0.8-0.6,0.8C613.78,280.76,613.98,280.56,614.68,280.56z M631.87,278.67
		c-2.7,17.12-10.11,17.81-18.09,24.38C611.53,291.79,618.17,273.76,631.87,278.67z M622.77,276.87c-0.2-0.9,1.6-1,0.6-2.2
		c-1.3-0.2-2.1,1.1-3.5,1.4c2.4-4.9,7.2-3.7,11.29-4.3C628.07,272.87,626.57,276.67,622.77,276.87z M632.57,274.47
		c-1.3,0.6-2.5,1.3-4.5,1C629.87,274.57,630.97,273.27,632.57,274.47z M608.28,309.55c1.1,1.4,1.1,1.4-0.5,3.9
		C607.88,311.74,607.48,310.64,608.28,309.55z M619.68,374.9c-4.3-0.9-8.19-2-11.99-4.1c0.3-16.69,2.6-33.18,0.9-49.77
		c4.77,4.5-1,10.25,13.09,15.79C620.68,349.52,621.38,362.21,619.68,374.9z M626.47,372.7c-1.6,0.6-3.3,1.2-5.4,2
		c1.4-12.49,1.2-24.78,1.7-37.47c1.8,1.2,3.3,0.7,5.2,0.9C627.57,349.72,625.57,361.11,626.47,372.7z M633.67,331.43
		c-2.15,0.62-1.15,4.41-7,4.5c-4.99,0.07-13.9-3.93-13.39-9.49c0.9-1,2.3-1.7,1.5-3.3c-1-0.3-1.1,0.9-2,0.9
		c-0.94-1.24-4.29-7.2-3.6-8.59c5-10.01-0.79-5.42,15.49-18.39c4.61-3.68,6.8-8.99,10.59-13.39c-1.6-0.5-1.5,0.9-2.4,0.8
		c0.9-4.9,3.3-9.69,0.1-15.09c4,0.1,6.3-4.9,10.79-2.4c0.4-1.5,0.3-3.2,1.8-4.2c-4.8,1.8-9.29,4.2-14.29,5.8
		c-63.95,20.46-60.68,20.34-62.16,19.69c-2.39-9.23-4.04-8.12,0.8-9.59c62.32-18.93,61.59-19.37,69.55-19.89
		c2.8,2.6,3.09,2.68,4.6,1.9c2.78-1.44,2.81-5.22,0.1-7c-1.39-0.91-2.8-1.6-4.5-2.6c4.6-1.4,7.89,1,8.79,6.2
		c-2.03,1.85-1.7,4.11-1.84,4.25c2.07-1.59,3.57-3.66,6.54-4.35c-2.2-1.5-4.2-2.8-3.3-5.7c2.2-0.2,3.9,1.1,6.2,1.5
		c-0.7,1.7-0.48,3.39,0,4.8c2.67,7.73-11.34,15.09-12.09,35.88c-0.32,8.99-1.35,18-3.3,26.78
		C639.69,324.84,638.66,329.43,633.67,331.43z M723.81,346.82c-35.84-11.95-8.61,0.47-78.85-26.28c-5.34-2.03-2.16-0.87-0.6-8.99
		c14.7,4.62,25.25-1.68,37.87,3.7c0.1,0.04,32.88,13.6,35.68,17.89c3.3-0.4,5.1,2.3,7.49,3.5c0.4,1.6,0.2,2.9,1.1,4.1
		c0.6-1,0-2.2,0.8-3.2c2.5,1.3,5.1,2.4,6.6,5c2.3-0.7,5.4,2.1,8.99,8.19c3.4,0.7,5.5,3.8,8.69,5.1
		C747.23,355.81,735.83,349.06,723.81,346.82z M800.86,461.04c-1-2.3-3.1-2.2-5.7-2.2c1.9-1,3.6-1.4,3.4-3.3
		C799.66,457.15,800.46,458.95,800.86,461.04z M798.46,455.55c-0.7,0-1.6,0-2.6-0.1C797.06,453.75,797.76,454.85,798.46,455.55z
		 M765.38,347.12c2.1,1,4.1,1.6,5.7,3C766.06,352.73,766.45,364.33,765.38,347.12z M762.98,433.36c-0.2-2-1.1-4.2,2-5.7
		C764.38,429.87,764.28,431.86,762.98,433.36z M770.48,438.86c-5.37,1.26-4.74,1.33-6.4-2.4c5.77-12.06,0.42-4.28,10.09-2
		C771.07,435.06,770.88,437.06,770.48,438.86z M795.36,384.1c-0.4-1.5,0.1-2.4,0.2-3.3c0.83-7.48-2.91,0.87-3.3,7.99
		c0,0.8,0.2,1.7-0.4,2.1c-1.93,1.28-10.74,23.28-7.69,38.27c-1.1,0.8-1.7,1.7-2.8,2.1c-0.7-0.6,0-2-1.1-2.6c-1,1.3-0.4,2.7-0.3,4.3
		c-3.1,0.4-5.8-0.2-8.39-1.3c-0.1-2.9,0.8-5.8-1.2-8.79c-0.4,2-0.8,3.4-1.1,4.9c-1-0.5-1.61-0.9-1.7-1.9
		c-0.11-1.2,0.8-16.89,1.3-17.69c-2.06-2.88-2.59-18.29-2.9-25.98c-0.13-3.2-1.41-6.4-1.1-9.39c2.23-21.43,9.64-19.73,11.09-27.58
		c-2.1-1.5-3.4-4.2-6.4-4.3c0.8,2.3,2.9,4,3.9,7c-3.2-1.6-6-2.4-8.79-3.3c0-4.5-3.99-3.39,3.7-18.79
		c6.81-13.64,10.89-12.31,18.19-16.39c2.1,1.5,4.79,1.61,6.4,3.6c2.19,2.71,4.99,4.61,7.79,6.5c6.27,4.22,3.4,8.53,5.4,12.19
		c1.22,2.24-2.3,13.16-3.1,15.09C795.29,365.68,805.95,363.27,795.36,384.1z M820.24,349.02c-14.66,7.57-3.4,4.35-17.69,11.49
		c-0.4-4.2,0.7-8.69,2.9-12.19c1.3-1.8,0.7-4.5,2.1-6.3c1.8,0,1.4,2.2,2.8,2.2c-3.3,22.42,0.68,1.61,1.3,0c5.6,1.87,1.63,2.78,3,6.2
		c1.1-1.2,0.7-2.9,1.4-4.2c1.3,0.5,2.4,1,3.4,1.4c3.6-2.3,6.8-4.7,9.79-8.09C828.89,345.71,824.07,347.04,820.24,349.02z
		 M821.64,343.32c1-7.69,2.5-11.99,5.2-15.29c3,0.3,5.9-1.4,9.19-1.2C834.43,335.23,826.94,338.03,821.64,343.32z M837.73,386.19
		c0.8-5.1,0.41-10.19,0.9-15.29c1.02-10.64-0.43-6.2-1.5-10.49c-2.78-18.69,1.97-24.26,4.3-34.58c-4.3,0-8.49-0.6-12.89,0.2
		c0.22-1.76,3.39-4.61,3.8-8.19c2.14-18.92,4.47-24.1,11.89-27.58c4.72,1.01,14.27,3.36,17.79,6.7c4.38,4.16,7.02,1.35,8.79,6.3
		c2.76,7.68,2.7,9,1.5,10.89c-2.69,4.27,2.49,6.94-1.8,17.89c-3.17,8.1-2.32,12.81-9.29,34.58c-8.99,28.06-4.73,21.93-6.8,25.68
		c-13.63,3.64-8.16,0.43-9.79-4.7c-1.8,2.1-1.6,4.5-2.5,6.5C833.65,393.28,835.57,393.74,837.73,386.19z M836.03,395.19
		c5.9,2,11.79,0.9,17.69-0.4c-0.7,8.19-7,8.79-13.19,9.69C836.63,402.18,835.13,399.29,836.03,395.19z M896.89,425.57
		c-0.73,4.29-3.8,5.79-7.3,6.5c-6.85,1.38-21.26,3-26.98-0.9c-0.4-0.9,1-1.5-0.3-2.3c-2.8-1.4-6.31-2.08-8.89-4.3
		c-5.39-4.62-7.79,0.47-12.89,0.8c-7.09,0.45-12.59-3.1-17.59-7.59c1.5-2.5,1.79-5.6,3.7-8.09c7.42-9.73,1.51-11.56,5.3-13.89
		c1.1,1.8,3.1,2.7,3.2,5.4c0.1,2.6,4.9,6.1,7.1,5.2c3.22-1.53,11.47-0.71,11.99-7.2c0.1-1.2,0.5-2.5,1.6-3.3
		c0.8-0.3,0.6,0.8,1.6,0.5c0.5,0,0-1.3,1.4-1.4c-0.5,3.9-3.9,5.8-5.2,9.09c1.3,0.2,2.1-0.9,3.4-1.1c-0.2,1.2-2,2.5,0.3,3.4
		c1.3-0.5,2.1-1.9,3.5-2.8c0,2-1.7,3.5-1.3,5.9c3.8-1.6,3.9-5.1,5-8.09c3.55,2.54-1.9,4.54-3,10.19c4.3-0.4,4.7-4.1,6.9-6.5
		c0.56,3.37-2.99,5.43-2.1,7.59c3.4,0.7,3.7-2.6,5.3-4.5c0.2,1.7-2.1,2.8-0.7,4.5c2.1,0.7,2.2-1.9,3.7-2.3c0.4,1.5-1.5,2.3-0.8,3.6
		c0.8,0.6,1.4-0.4,2.1-0.1c-0.2,1-1.7,0.9-1.8,2c2,2.3,3.2,1.9,6.1-2.4C890.38,417.22,898.06,418.68,896.89,425.57z"/>
	<path d="M751.19,320.34c-4.2,1.2-11.29,15.18-11.49,22.38C741.92,342.57,739.82,337.38,751.19,320.34z"/>
	<polygon points="739.7,342.72 739.69,342.72 739.7,342.72 	"/>
	<path d="M785.87,277.87c-2.1,0.5-3.7,2.3-6,1.7c-3.3-4-3.78-4.17-8.39-1.6c-3.64,2.03-9.24-1.8-14.19-2.4
		c3.8,3.4,11.77,4.75,15.79,2.9c2.88-1.33,3.41-1.31,5.3,1.3c1.83,2.53,4.23,1.09,7.2,0.1
		C788.79,281.22,791.83,281.08,785.87,277.87z"/>
	<path d="M343.36,280.27c-3.65-5.68-5.65,0.05-9.49-1c-3.2-4-3.71-4.12-8.39-1.6c-4.15,2.24-12.27-3.06-13.99-1.5
		c5.1,1.5,9.7,5.41,15.59,2.3c6.6-3.48,2.61,5.21,12.39,1.3C340.76,279.77,341.76,281.56,343.36,280.27z"/>
	<path d="M726.8,289.56c24.49,4.29,4.36-0.54-4.8,6.9c6.8-2.8,14.19-2.6,21.69-3.4C739.8,289.56,733.9,288.46,726.8,289.56z"/>
	<path d="M281.2,289.26c3.7,0.9,7.59,0.9,11.19,2.3c-5.45,0.75-12.34,0.93-16.29,4.7c6.8-2.9,14.19-2.5,21.69-3.4
		C293.69,289.46,289.5,288.66,281.2,289.26z"/>
	<path d="M816.44,309.55c-3,0.6,2.58,6.38-5.4,22.58C806.81,342.73,820.13,326.39,816.44,309.55z"/>
	<path d="M364.75,335.33c5.1-8.09,7.69-16.59,5.7-26.28c-3.16,3.9,2.2,4.87-4.2,19.79C365.55,330.93,364.25,332.93,364.75,335.33z"
		/>
	<path d="M372.94,285.06c-8.39,8.49-19.49,13.09-28.98,20.09C354.35,299.45,365.25,294.56,372.94,285.06z"/>
	<path d="M819.04,285.26c-8.59,8.39-19.49,13.29-28.98,20.09C800.46,299.55,811.35,294.76,819.04,285.26z"/>
	<path d="M263.11,324.24c-3.5-7.4-6.2-15.19-9.99-22.48C255.72,309.55,258.62,317.24,263.11,324.24z"/>
	<path d="M372.14,300.75c4.1-4,8.29-7.4,12.49-10.89C381.24,290.16,373.04,297.25,372.14,300.75z"/>
	<path d="M818.24,300.85c4-4,8.29-7.3,12.79-10.89C827.34,290.06,818.74,297.55,818.24,300.85z"/>
	<path d="M329.07,281.76c0.3,3.9-0.7,7.49-3,10.99C330.27,292.16,331.97,285.86,329.07,281.76z"/>
	<path d="M774.87,281.36c0.3,4.5-0.4,8.19-2.9,11.69C776.37,292.16,777.97,285.96,774.87,281.36z"/>
	<path d="M804.55,435.56c-4.3-2.5-8.89-4.4-13.79-5.1C795.06,432.86,799.66,434.76,804.55,435.56z"/>
	<path d="M358.55,435.46c-4.3-2.5-8.89-4.3-13.79-5.2C349.06,432.76,353.55,434.56,358.55,435.46z"/>
	<path d="M287,320.64c-4.2,2.6-8.59,4.8-12.89,7C279.1,326.63,283.4,324.24,287,320.64z"/>
	<path d="M733,320.74c-4.1,2.8-8.59,4.8-12.89,7.1C725.11,326.73,729.4,324.34,733,320.74z"/>
	<path d="M183.07,246.79c-1.3-2.9-3.7-5.5-3.5-9.09C177.57,240.39,178.37,242.29,183.07,246.79z"/>
	<path d="M753.19,284.56c4.5,2.4,7.59,6.3,11.09,9.99C763.48,290.96,756.78,284.96,753.19,284.56z"/>
	<path d="M307.19,284.36c4.5,2.4,7.59,6.3,11.09,9.99C317.48,290.76,310.78,284.76,307.19,284.36z"/>
	<path d="M181.47,289.56c0.2-0.2,0.5-0.3,0.7-0.5C180.53,284.6,168.38,268.99,181.47,289.56z"/>
	<path d="M790.56,428.27c0.2-2.7-0.9-5.8-3.5-9.59C787.06,420.87,789.06,426.47,790.56,428.27z"/>
	<path d="M184.87,238.79c0.5-3.1,0-6-1.4-8.69C183.17,233.1,183.37,236.09,184.87,238.79z"/>
	<path d="M344.46,428.07c0-3.6-1.5-6.7-3.6-9.59C341.66,421.87,342.66,425.17,344.46,428.07z"/>
	<path d="M282.4,274.87c-25.32,1.21-5.28,1.67,0,0.5C282.8,275.28,282.8,275.07,282.4,274.87z"/>
	<path d="M598.19,294.36c3.1,2.4,5.9,5.1,8.99,7.4C604.79,298.55,601.99,295.75,598.19,294.36z"/>
	<path d="M753.09,284.66c-3.3-1.5-6.9-2.4-10.49-2.9C746.09,282.86,749.29,284.96,753.09,284.66z"/>
	<path d="M785.77,289.76c1.7-2.5,1.5-4.2-0.7-7C785.07,285.46,785.37,287.46,785.77,289.76z"/>
	<path d="M339.76,289.36c1.7-2.2,1.5-3.8-0.8-6.9C338.96,285.16,339.16,287.26,339.76,289.36z"/>
	<path d="M307.09,284.46c-3.4-1.5-6.9-2.4-10.49-2.9C300.09,282.66,303.29,284.76,307.09,284.46z"/>
	<path d="M190.06,200.92c0.6,1.9,0,4.1,1.2,5.9C191.06,204.82,192.16,202.62,190.06,200.92z"/>
	<path d="M263.41,199.82c1.5,2.8,1,5.8,1.2,8.79C264.61,198.31,265.01,199.82,263.41,199.82z"/>
	<path d="M712.31,317.74c1.7,0.8,3.4,1.7,5.2,2.6C716.31,318.44,714.91,317.04,712.31,317.74z"/>
	<path d="M265.91,317.54c2.1,0.9,4,1.5,5.6,2.6C269.91,317.54,268.71,316.94,265.91,317.54z"/>
	<path d="M198.26,286.66c2.5,0.6,2.5,0.6,4.9-0.6C201.56,285.66,199.76,284.96,198.26,286.66z"/>
	<path d="M257.42,219.51c1.6,1,3.1,0.6,5.1-0.4C260.42,218.71,258.92,218.61,257.42,219.51z"/>
	<path d="M200.26,271.37c1.4-1.6,2.8-3.3,3.5-5.4C201.46,267.07,200.86,269.27,200.26,271.37z"/>
	<path d="M182.07,223.5c-0.8,2.1-0.2,3.4,0.9,4.9C183.67,226.5,182.97,225.3,182.07,223.5z"/>
	<path d="M270.51,171.54c0,2,1,3,2.5,4.5C272.81,173.84,272.21,172.64,270.51,171.54z"/>
	<path d="M263.21,186.53c1.2-2,1.4-3.3,1.4-5.2C263.01,182.93,262.81,184.33,263.21,186.53z"/>
	<path d="M304.49,291.36c-1.3-1.8-2.8-1.9-5-2.4C300.99,290.76,302.39,291.16,304.49,291.36z"/>
	<path d="M352.35,423.37c0.9,1.5,1.8,3.1,2.7,4.7C354.85,425.97,354.25,424.27,352.35,423.37z"/>
	<path d="M800.96,428.17c0-2.1-0.9-3.6-2-5C798.35,423.47,797.78,422.87,800.96,428.17z"/>
	<path d="M262.91,274.77c1.6-0.3,3.2-0.6,4.8-0.9C266.11,273.77,264.41,273.67,262.91,274.77z"/>
	<path d="M595.09,291.66c1.1,1.4,2.7,1.1,4.1,1.5C598.19,291.86,596.79,291.56,595.09,291.66z"/>
	<path d="M750.39,291.56c-1.2-1.9-2.7-1.9-4.3-2C747.09,290.76,748.39,291.36,750.39,291.56z"/>
	<path d="M193.76,180.23c-0.1,1.6-0.9,3.2-0.7,4.8C194.66,183.63,194.56,182.03,193.76,180.23z"/>
	<path d="M188.76,246.39c-1.4,0.3-2.4,1-2.7,2.8C187.96,248.99,188.36,247.59,188.76,246.39z"/>
	<path d="M273.71,180.73c0.7-1.7-0.4-2.6-1.3-3.5C272.41,178.53,272.51,179.83,273.71,180.73z"/>
	<path d="M270.71,170.14c0.7-1.8,0-2.9-1.3-3.7C269.41,167.74,269.21,169.04,270.71,170.14z"/>
	<path d="M188.96,178.23c1.3,0.8,2.2,1.1,3.6,0.5C191.36,177.73,190.36,177.83,188.96,178.23z"/>
	<path d="M191.06,288.56c-0.7,0.9-1.2,1.8-1.2,3.3C191.06,290.76,190.86,289.56,191.06,288.56z"/>
	<path d="M713.91,306.65c1.2,0.6,2.1,0,3.5,0C716.01,306.05,715.01,305.25,713.91,306.65z"/>
	<path d="M268.11,162.74c0.7-0.9,0.8-1.6,0.2-2.8C267.21,161.04,267.31,161.74,268.11,162.74z"/>
	<path d="M267.81,306.45c1.2,0.7,2.1,0.1,3.6,0.1C269.81,305.75,268.91,305.25,267.81,306.45z"/>
	<path d="M254.12,221.3c-1.75,0.58-2.73,1.74-2.6,3.65C253.13,224.23,253.63,222.77,254.12,221.3z"/>
	<path d="M251.42,225l0.1,0.1C251.52,224.88,251.54,224.96,251.42,225z"/>
	<path d="M209.95,285.46c-7.93,0.79-0.2,0.88,0.1,1.1C210.05,286.16,209.95,285.76,209.95,285.46z"/>
	<path d="M763.88,283.46c0.5,1.5,0.7,2.4,1.2,3.9C765.88,285.56,765.28,284.76,763.88,283.46z"/>
	<path d="M264.01,180.03c1.4-0.6,1-1.6,1-2.8C263.31,177.83,263.91,179.03,264.01,180.03z"/>
	<path d="M193.36,238.89c-1.1,1.2-1.3,2.1-0.9,3.6C193.16,241.39,193.56,240.39,193.36,238.89z"/>
	<path d="M193.06,190.92c0.7-1,0.9-2.2,0.5-3.7C192.16,188.53,192.96,189.73,193.06,190.92z"/>
	<path d="M265.11,224.1c-0.5-1.4-1-2-2-2.7C262.91,222.9,263.61,223.4,265.11,224.1z"/>
	<path d="M258.72,294.36c0,1.9,1.2,2.5,2.1,3.2C260.82,296.15,259.92,295.45,258.72,294.36z"/>
	<path d="M189.06,288.76c-1.2,0.4-1.5,1.3-2.4,2.7C188.26,290.86,189.06,290.26,189.06,288.76z"/>
	<path d="M318.08,283.76c0.3,1.1,0.5,1.9,0.8,2.8C319.68,285.36,319.38,284.56,318.08,283.76z"/>
	<path d="M239.03,255.58c-0.8-0.6-1.5-0.9-2.5-0.4C237.13,256.28,238.13,255.38,239.03,255.58z"/>
	<path d="M175.77,264.58c0.3,1.5,0.5,2.5,0.7,3.5C176.67,267.07,177.17,265.97,175.77,264.58z"/>
	<path d="M214.85,277.07c0.4-1.4,1.2-2.2,0.7-3.4C215.05,274.57,214.55,275.47,214.85,277.07z"/>
	<path d="M192.56,248.59c0.7-1.5,0.4-2.5,0.1-3.7C191.86,246.09,191.96,247.09,192.56,248.59z"/>
	<path d="M756.48,338.03c0,0.1,0.1,0.2,0.1,0.2C756.58,335.41,756.48,336.02,756.48,338.03z"/>
	<path d="M310.48,336.23c0,2.06-0.04,1.8,0.1,1.8C310.58,336.91,310.88,335.83,310.48,336.23z"/>
	<path d="M188.66,296.85c-1.1,0.8-0.8,1.3-0.3,2C189.36,298.25,189.26,297.65,188.66,296.85z"/>
	<path d="M193.26,216.21c-0.2,0.7-0.4,1.2,0.3,1.4C194.16,217.21,193.76,216.81,193.26,216.21z"/>
	<path d="M264.81,173.64c-1,0.6-1,1.3-0.6,2.2C265.01,175.34,265.21,174.64,264.81,173.64z"/>
	<path d="M264.91,236.39c1-0.2,0.6-0.9,0.7-1.7C264.31,235.3,264.61,235.79,264.91,236.39z"/>
	<path d="M192.06,210.51c-0.2,0.6,0.2,0.9,0.5,1.3C193.06,211.21,192.86,210.71,192.06,210.51z"/>
	<path d="M185.97,194.42c0,0.4-0.2,0.8,0.2,1.1C186.48,194.26,186.11,194.28,185.97,194.42z"/>
	<path d="M273.81,184.33c-0.3,0.6-0.1,1.1,0.3,1.4C275.01,185.13,274.31,184.73,273.81,184.33z"/>
	<path d="M265.31,237.89c-1.3,0.2-1.2,0.8-0.6,1.6C265.81,238.99,265.61,238.49,265.31,237.89z"/>
	<path d="M741.49,318.84c-0.8,0-1.1,0.5-1.3,1.1C741.1,320.04,741.19,319.24,741.49,318.84z"/>
	<path d="M295.49,318.44c-0.8,0.2-1.1,0.6-1.2,1.5C294.89,319.54,295.49,319.34,295.49,318.44z"/>
	<path d="M253.72,159.45c0.19,0.57,0.8,0.63,0.8-0.1C254.52,158.85,253.72,158.68,253.72,159.45z"/>
	<path d="M269.31,166.54c0.1-0.7,0.4-1.4-0.9-1.8C268.51,165.54,268.71,166.14,269.31,166.54z"/>
	<path d="M254.92,220.31c-0.6,0.1-0.9,0.4-0.8,1C254.72,221.2,254.92,220.8,254.92,220.31z"/>
	<path d="M267.01,220.41c-0.1,0.3,0,0.6,0.4,0.6C267.65,220.65,267.31,220.26,267.01,220.41z"/>
	<path d="M181.47,222.1c1.2-0.4,0.3-1,0.6-1.7C180.97,221,181.27,221.5,181.47,222.1z"/>
	<path d="M272.11,225.3c-0.21,1.04,1.41,0.71,0.9,0.2C272.81,225.1,272.51,225,272.11,225.3z"/>
	<path d="M192.46,227.2c0,0.3-0.1,0.6-0.1,0.9C192.96,228,192.66,227.5,192.46,227.2z"/>
	<path d="M253.82,254.88c-0.39-0.39-0.41-0.1-0.6-0.1C253.32,255.08,253.62,254.98,253.82,254.88z"/>
	<path d="M204.45,264.88c-0.6,0.1-0.8,0.5-0.8,1.1C204.15,265.77,204.45,265.38,204.45,264.88z"/>
	<path d="M311.28,332.03c0-0.2-0.1-0.3-0.1-0.5C311.18,331.63,311.18,331.83,311.28,332.03z"/>
	<path d="M351.46,342.22c0.26-6.48-6.19-7.89-9.19-15.39c-2.3,1.6-1.2,2.9-0.4,4c2.4,3.3,5.1,6.5,8.39,9.19
		c-0.8,3.3-1.1,6.7,1.3,9.69C353.24,348.46,351.12,350.62,351.46,342.22z"/>
	<path d="M330.57,395.49c2.2-8.49,4.5-16.99,4.8-25.78C333.55,368.98,334.57,366.5,330.57,395.49z"/>
	<path d="M326.67,335.83c2,1.6,2,1.6,5.2,1.4C330.47,335.73,329.07,334.83,326.67,335.83z"/>
	<path d="M323.97,419.67c0.3-2.5,0.9-5.1-0.4-7.59C323.27,414.68,323.77,417.17,323.97,419.67z"/>
	<path d="M348.96,362.31c0.4-1.8,0.3-3.5-0.9-5C347.86,359.11,347.46,360.91,348.96,362.31z"/>
	<path d="M319.08,337.43c1.2,1.7,3.6,1.5,4.5,3.3C323.47,338.23,322.57,337.63,319.08,337.43z"/>
	<path d="M338.36,330.63c-0.8-1.9-2.2-2.1-3.7-2.5C335.87,330.63,335.87,330.63,338.36,330.63z"/>
	<path d="M350.66,375.2c1.3-1.8,1.2-3.6,1.3-5.2C350.76,371.5,350.26,373,350.66,375.2z"/>
	<path d="M340.46,348.32c0.6,1.2,1.2,2.4,3,2.5C342.96,349.12,341.76,348.72,340.46,348.32z"/>
	<path d="M335.17,346.52c0.8,1.1,1.7,1.4,3.5,1.3C337.36,346.72,336.67,346.02,335.17,346.52z"/>
	<path d="M344.46,324.34c-1.2,0.5-1.9,1-1.3,2.2C344.36,326.23,344.36,325.33,344.46,324.34z"/>
	<path d="M334.37,339.73c-0.2-1-0.6-1.4-1.6-1.3C332.87,339.43,333.37,339.83,334.37,339.73z"/>
	<path d="M346.96,353.32c-0.4,0.7-0.4,1.2,0.1,2C347.96,354.52,347.76,354.02,346.96,353.32z"/>
	<path d="M351.36,366.11c-0.7,0.4-0.8,0.9,0,1.7C351.96,367.11,351.96,366.61,351.36,366.11z"/>
	<path d="M336.17,366.31c0-0.7,0-1,0-1.4C335.57,365.11,335.37,365.41,336.17,366.31z"/>
	<path d="M412.61,313.94c-5.66-1.03,2.59-2.78-11.19,1.5c-1.1-1.9-2.8-2.4-4.9-2.4C400.12,318.54,404.22,318.74,412.61,313.94z"/>
	<path d="M411.62,355.31c1.6-3,2.6-6.1,2.2-9.89C411.32,346.92,410.92,349.22,411.62,355.31z"/>
	<path d="M419.51,330.93c-2.7-1.5-4-4.5-7.1-5.8C412.91,328.03,414.91,329.73,419.51,330.93z"/>
	<path d="M405.92,363.71c3.8-1.3,4.3-2.2,3.4-5.6C406.92,359.41,407.72,362.31,405.92,363.71z"/>
	<path d="M411.12,326.03c-0.6-2.4-0.7-4.7-1.8-6.8C407.42,321.04,408.02,323.04,411.12,326.03z"/>
	<path d="M403.92,387.49c-1.2,1.6-2,3-2,5.1C404.12,391.19,403.62,389.39,403.92,387.49z"/>
	<path d="M389.43,311.24c1.6,1.4,3,1.5,4.8,1.4C392.83,310.94,391.53,311.04,389.43,311.24z"/>
	<path d="M398.62,379.3c1.21,0,0.38,0.9,1.1-3.4C398.52,376.9,398.32,378.1,398.62,379.3z"/>
	<path d="M411.72,330.13c-0.9,1.7-0.1,2.4,1,3.4C413.01,332.13,412.41,331.33,411.72,330.13z"/>
	<path d="M412.31,362.81c0.5-0.8,1.1-1.5,1-2.5C412.41,361.21,412.41,361.21,412.31,362.81z"/>
	<path d="M403.02,366.61c1.2-0.1,1.9-0.6,1.9-2.1C403.62,364.81,403.32,365.51,403.02,366.61z"/>
	<path d="M398.62,384.4c1.4-0.5,0.7-1.4,1.1-2.1C398.22,382.7,398.92,383.5,398.62,384.4z"/>
	<path d="M403.62,335.63c0.1-1.1-0.1-1.8-1.5-1.9C402.42,334.63,402.72,335.23,403.62,335.63z"/>
	<path d="M400.52,329.63c0.5-1.3-0.4-1.4-1.1-2.1C399.02,328.93,399.72,329.23,400.52,329.63z"/>
	<path d="M396.93,324.24c0.3,1.3,1,1,1.7,0.8C398.32,324.54,397.92,324.14,396.93,324.24z"/>
	<path d="M397.42,369.61c-0.9-0.6-1.3-0.1-1.7,0.9C396.83,370.7,397.32,370.4,397.42,369.61z"/>
	<path d="M420.21,307.65c-0.7,0.3-1.1,0.7-0.6,1.7C420.11,308.75,420.71,308.45,420.21,307.65z"/>
	<path d="M400.22,367.81c0.8,0.3,1-0.1,1.2-0.8C400.42,366.81,400.32,367.31,400.22,367.81z"/>
	<path d="M106.92,191.32c-0.63,0-0.77,0.41-1.8,7.89C107.12,195.82,107.52,193.82,106.92,191.32z"/>
	<path d="M103.92,166.44c-1.1,1.7-0.9,2.6,1.4,5.8C105.32,169.84,104.22,168.34,103.92,166.44z"/>
	<path d="M347.26,136.76c-1.1-6.5-5.1-14.39-9.49-15.89C343.06,124.87,344.46,131.26,347.26,136.76z"/>
	<path d="M348.36,142.46c0.3,2.6,0,5.1,0.4,7.49C349.46,147.45,349.66,144.96,348.36,142.46z"/>
	<path d="M347.06,154.95c-0.8,1.7-1.6,3.3-2.4,4.9C346.36,158.65,347.16,157.05,347.06,154.95z"/>
	<path d="M343.16,162.94c-1,1-2.1,1.9-3.1,2.8C341.66,165.34,342.86,164.54,343.16,162.94z"/>
	<path d="M237.53,322.44c6.1,3,12.39,5.2,19.09,6.5C250.42,326.13,243.83,324.74,237.53,322.44z"/>
	<path d="M226.14,320.44c6.9,3,12.09,7.4,15.89,13.39C240.83,328.53,232.04,320.94,226.14,320.44z"/>
	<path d="M151.99,294.46c3.3,2.1,6.1,4.8,9.09,7.3C159.08,298.15,155.09,295.06,151.99,294.46z"/>
	<path d="M218.64,315.74c2.3,1.9,5,2.6,7.89,2.6C223.94,317.44,221.34,316.64,218.64,315.74z"/>
	<path d="M214.75,323.64c0.7-2.2,0-4.2-0.2-6.2C213.45,319.44,214.25,321.44,214.75,323.64z"/>
	<path d="M148.79,291.56c1.4,1.4,3.1,1.1,4.5,1.4C151.99,291.96,150.69,291.16,148.79,291.56z"/>
	<path d="M253.82,336.53c0.9,0.5,1.8,0.9,3,1.5C256.12,336.63,255.02,336.63,253.82,336.53z"/>
	<path d="M269.91,333.13c1.2,0.7,2.1,1.2,3.3,0.9C271.72,332.84,272.44,332.81,269.91,333.13z"/>
	<path d="M400.32,408.38c-2.94,0.2-2.72,2.73-3.2,4.9c3.7,2.3,4.3,2.3,6.9-0.5C403.83,411.27,403.84,408.14,400.32,408.38z
		 M399.92,413.78c0.4-1.3,0.2-2.3-1-2.8C401.89,407.55,404.1,412.73,399.92,413.78z"/>
	<path d="M410.32,412.88c-1.59-3.65-8.76-1.09-5.6,3.3C407,419.34,412.03,416.8,410.32,412.88z M408.92,415.07
		c-0.65,1.73-2.93,1.38-3.2-0.2C405.49,411.39,410.02,411.5,408.92,415.07z"/>
	<path d="M411.52,415.08c0.29,1.3-0.4,2.3-1,3.2c1.4,0.8,2.1-0.8,3.1-0.6c1.1,0.4-0.2,1.7,1.1,2.1c1.4-1.4,1.4-3.5,2.2-5.1
		C415.09,412.67,410.93,412.46,411.52,415.08z M414.81,416.37c-1.1,0-1.9-0.3-1.7-1.7C414.31,414.68,415.51,414.48,414.81,416.37z"
		/>
	<path d="M359.65,351.91c0.58-1.15,0.31-2.43-0.2-3.79C359.13,352.76,359.1,353,359.65,351.91z"/>
	<path d="M359.25,354.72c0-0.7,0-1.4,0-2.1C358.95,353.32,358.75,353.92,359.25,354.72z"/>
	<path d="M699.12,301.95c2.8,7.69,5.4,15.59,10.09,22.48C705.72,317.04,702.92,309.25,699.12,301.95z"/>
	<path d="M728.7,275.07c-4.3,0.2-8.59,0.4-12.79,0.7C720.21,276.47,724.51,276.47,728.7,275.07z"/>
	<path d="M706.72,297.85c-0.2-1.6-0.2-1.6-2.3-3.3C705.02,296.35,705.72,297.15,706.72,297.85z"/>
	<path d="M710.42,274.47c1.2-0.2,2.4,0.1,3.3-1C712.71,273.97,711.31,273.47,710.42,274.47z"/>
	<path d="M661.65,273.67c-0.6,1.1-1,2-0.8,3.4C661.35,275.87,661.85,274.97,661.65,273.67z"/>
	<path d="M699.92,254.98c-0.43,0-0.38-0.22-0.6,0C699.42,255.18,699.72,255.28,699.92,254.98z"/>
	<path d="M655.45,273.57c-0.9,0.1-1.1,0.6-1.2,1.2C655.15,274.67,655.25,274.17,655.45,273.57z"/>
	<path d="M710.42,274.57c-0.6,0-1.1,0-2,0C709.42,275.17,709.92,274.87,710.42,274.57z"/>
	<path d="M797.56,342.42c0.25-6.46-6.3-7.89-9.29-15.39c-2.3,1.6-1.19,2.99-0.4,4c2.54,3.26,5.1,6.5,8.49,9.19
		c-0.9,3.4-1.1,6.7,1.3,9.69C799.4,348.61,797.21,351.17,797.56,342.42z"/>
	<path d="M776.07,395.59c0.4,0,0.8,0,1.2,0.1c1.3-8.69,4-17.09,3.6-25.98C778.72,374.11,780.67,373.63,776.07,395.59z"/>
	<path d="M772.57,335.83c1.7,2.3,3.5,1.5,5.7,2.1C776.47,335.83,775.07,335.13,772.57,335.83z"/>
	<path d="M769.88,419.87c0.5-2.5,0.9-5-0.2-7.59C769.18,414.78,769.98,417.37,769.88,419.87z"/>
	<path d="M795.06,363.01c0.5-2.2,0.1-3.9-0.9-5.5C793.96,359.21,793.36,361.11,795.06,363.01z"/>
	<path d="M784.37,330.83c-0.8-2-2.2-2.1-3.7-2.2C781.47,329.83,782.07,331.53,784.37,330.83z"/>
	<path d="M765.08,337.63c1.2,1.7,3.6,1.5,4.5,3.3C769.48,338.43,768.58,337.83,765.08,337.63z"/>
	<path d="M796.56,375.3c1.3-1.8,1.6-3.4,1.3-5.2C796.66,371.5,796.36,373.1,796.56,375.3z"/>
	<path d="M786.16,347.92c0.8,1.9,1.5,2.9,3.4,3.2C789.06,349.32,787.76,348.92,786.16,347.92z"/>
	<path d="M780.97,346.62c1.1,1.3,2,1.6,3.5,1.6C783.57,346.82,782.67,346.42,780.97,346.62z"/>
	<path d="M780.27,340.03c-0.1-1.1-0.5-1.5-1.4-1.5C778.67,339.53,779.27,339.83,780.27,340.03z"/>
	<path d="M790.66,324.54c-1.4,0.5-1.9,1-1.5,2.1C790.36,326.53,790.16,325.63,790.66,324.54z"/>
	<path d="M792.96,353.52c-0.4,0.6-0.4,1.2,0.1,2C794.06,354.72,793.76,354.22,792.96,353.52z"/>
	<path d="M797.36,366.11c-0.7,0.8-0.8,1.4,0,1.8C798.06,367.31,797.76,366.81,797.36,366.11z"/>
	<path d="M781.77,366.11c0.8-0.2,0.6-0.6,0.3-1C781.67,365.31,781.47,365.61,781.77,366.11z"/>
	<path d="M850.42,317.84c3.2,0.1,5.3-2.5,8.29-3.5c-1.3,0-1.9-1.3-2.9-1.4c-2.8,0.9-5.5,1.8-8.39,2.8c-1-1.9-2.7-2.4-4.7-2.4
		C844.23,316.04,847.32,317.74,850.42,317.84z"/>
	<path d="M857.42,355.51c2-2.9,2.6-6.1,1.8-9.59C856.62,348.72,857.62,352.22,857.42,355.51z"/>
	<path d="M865.31,331.23c-2.4-1.7-4-4.5-6.8-6C858.62,327.93,860.22,329.33,865.31,331.23z"/>
	<path d="M852.22,364.11c3.6-1.8,3.7-2.1,3.4-5.9C853.12,359.61,853.52,362.31,852.22,364.11z"/>
	<path d="M856.92,325.83c-0.7-2.1-0.3-4.5-1.8-6.5C853.62,321.54,853.92,322.94,856.92,325.83z"/>
	<path d="M849.72,387.99c-1.1,1.2-1.7,2.6-1.8,4.4C849.72,391.19,849.72,391.19,849.72,387.99z"/>
	<path d="M835.63,311.54c1.4,1.3,2.7,1.4,4.8,1.2C838.73,311.24,837.43,311.04,835.63,311.54z"/>
	<path d="M844.53,379.4c0.83,0.28,0.87,0.68,1.2-3.3C844.43,377,844.33,378.2,844.53,379.4z"/>
	<path d="M857.82,330.73c-0.9,1.3-0.2,2.1,0.8,2.8C859.32,332.33,858.22,331.63,857.82,330.73z"/>
	<path d="M858.22,362.91c0.8-0.7,1.2-1.5,1.3-2.7C857.82,360.81,858.72,362.11,858.22,362.91z"/>
	<path d="M849.02,366.81c1.4-0.2,2-0.6,1.8-2C849.62,364.81,849.32,365.61,849.02,366.81z"/>
	<path d="M845.03,384.5c0.7-0.7,0.8-1.3,0.2-2.4C844.83,383.1,844.53,383.6,845.03,384.5z"/>
	<path d="M845.23,327.73c0.1,1.2,0.4,1.8,1.6,2C846.72,328.63,846.22,328.23,845.23,327.73z"/>
	<path d="M843.03,324.54c0.1,1,0.8,0.9,1.9,0.7C844.23,324.84,843.83,324.24,843.03,324.54z"/>
	<path d="M848.22,333.73c0.2,1.1,0.5,1.7,1.9,2.2C849.62,334.73,849.52,334.03,848.22,333.73z"/>
	<path d="M843.63,370.01c-1.1-0.3-1.1-0.3-1.9,0.6C842.83,371,843.13,370.4,843.63,370.01z"/>
	<path d="M866.31,307.85c-1,0.2-1.2,0.7-0.7,1.5C866.31,309.05,866.51,308.55,866.31,307.85z"/>
	<path d="M861.71,343.92c0.7-0.4,0.7-0.8,0.3-1.4C861.31,342.72,861.31,343.22,861.71,343.92z"/>
	<path d="M846.22,368.01c0.9,0.4,1-0.2,1.2-0.7C846.52,366.91,846.32,367.31,846.22,368.01z"/>
	<path d="M554.22,280.27c-0.2-1.9-1.1-3.5-2.6-5.6C551.62,277.47,552.82,278.87,554.22,280.27z"/>
	<path d="M558.42,300.25c0,2.4,0,4.7,0,7.1C559.52,305.35,559.62,303.15,558.42,300.25z"/>
	<path d="M789.26,211.21c-2.6-6.1-5.3-11.99-11.79-15.09C783.37,199.72,785.57,206.01,789.26,211.21z"/>
	<path d="M791.36,217.01c-0.1,2.8,0.9,5.3,1.1,7.79C792.96,222,792.86,219.41,791.36,217.01z"/>
	<path d="M789.76,236.49c1.6-2.3,2-4.2,2-6.2C790.86,232,790.16,233.8,789.76,236.49z"/>
	<path d="M774.07,194.42c-1-1.3-2.5-1.5-4.5-1.9C771.07,194.42,772.77,193.92,774.07,194.42z"/>
	<path d="M788.26,239.59c-0.8,0.9-1.7,1.9-2.6,2.8C787.16,241.99,788.06,241.09,788.26,239.59z"/>
	<path d="M613.58,314.94c2-4,2.9-8.59,5.6-12.29C616.08,306.15,612.78,309.65,613.58,314.94z"/>
	<path d="M642.46,285.26c1.34,0.45,0.5,1.19,2.8-8.99C642.38,274.83,643.61,281.83,642.46,285.26z"/>
	<path d="M626.77,297.75c-2.3,0.3-3,1.4-4.6,7.2C623.93,304.85,624.12,303.43,626.77,297.75z"/>
	<path d="M622.57,330.43c1.21,2.05,8.13,3.03,6.8-1.2C627.27,331.23,624.97,330.73,622.57,330.43z"/>
	<path d="M631.27,328.93c1.8-1.5,2.9-3,3.5-4.9C633.27,325.14,631.17,325.93,631.27,328.93z"/>
	<path d="M635.57,279.97c1.3-1.4,1.4-3.2,1.5-5C635.47,276.37,635.57,278.17,635.57,279.97z"/>
	<path d="M618.68,311.74c1.6-1.1,1.7-2.7,2.4-4C619.78,308.65,618.08,309.25,618.68,311.74z"/>
	<path d="M617.48,314.04c-0.3,1.4-0.6,2.9-1,4.4C617.37,317.55,618.96,314.04,617.48,314.04z"/>
	<path d="M644.86,271.17c-1.2,0.7-1.1,1.5-0.3,3C645.36,272.87,645.76,272.17,644.86,271.17z"/>
	<path d="M623.77,326.73c1.2-0.2,1-0.9,0.8-1.9C623.67,325.33,623.57,325.93,623.77,326.73z"/>
	<path d="M622.37,305.05l-0.1-0.1C622.19,305.2,622.21,305.15,622.37,305.05z"/>
	<path d="M621.08,307.75c0.56-0.75,0.94-1.6,1.15-2.61C621.26,305.75,620.98,306.7,621.08,307.75z"/>
	<path d="M615.48,319.84c1.1,0,1-0.8,1.1-1.4C615.98,318.74,615.58,319.14,615.48,319.84z"/>
	<path d="M640.26,309.35c0.6-0.2,0.4-0.5,0.1-1.1C640.06,308.85,640.06,309.05,640.26,309.35z"/>
	<path d="M848.72,409.88c-2.94,0.2-2.72,2.73-3.2,4.9c3.9,2.3,4.5,2.2,7-0.5C852.2,411.71,851.62,409.68,848.72,409.88z
		 M848.32,415.08c1.2-1.4-0.2-1.9-0.6-2.7C850.08,408.61,853.04,415.34,848.32,415.08z"/>
	<path d="M859.02,414.28c-0.7-1.6-2.8-2.2-4.4-1.4c-0.8,0.3-1.4,0.9-2,1.3c0.1,1.2-0.1,2.3,0.7,3.4
		C855.56,420.68,860.77,418.29,859.02,414.28z M857.42,416.37c-0.75,1.9-2.9,1.41-3.1,0C853.83,412.8,858.73,413.06,857.42,416.37z"
		/>
	<path d="M862.81,414.68c-3.93-0.76-1.71,2.72-3.7,5c1.5,0.9,2.1-0.7,3.1-0.5c1.27,0.35,0.06,6.45,3.4-3
		C864.91,415.07,863.81,414.87,862.81,414.68z M863.31,417.87c-0.8-0.2-1.7-0.2-1.8-1.8C862.81,416.17,864.11,415.77,863.31,417.87z
		"/>
	<path d="M683.53,322.54c6,3,12.39,5.1,18.99,6.5C696.32,326.33,689.83,324.84,683.53,322.54z"/>
	<path d="M672.74,320.64c6.3,3.1,11.59,7.4,15.39,13.29C686.53,328.43,678.34,321.44,672.74,320.64z"/>
	<path d="M664.55,316.54c2.4,1.2,5,1.8,7.79,2C663.85,315.82,664.95,315.74,664.55,316.54z"/>
	<path d="M660.85,324.04c0.4-2.4,0.2-4.4-0.4-6.4C659.45,319.84,660.15,321.84,660.85,324.04z"/>
	<path d="M700.02,336.63c0.8,0.6,1.6,1.3,3,1.4C702.12,336.83,701.02,336.73,700.02,336.63z"/>
	<path d="M715.91,333.33c1.2,0.7,2,1.2,3.3,1C717.65,332.77,718.23,333.1,715.91,333.33z"/>
	<path d="M619.48,255.08c2-1.4,4-2.4,5.9-3.6C621.47,250.88,620.48,251.48,619.48,255.08z"/>
	<path d="M622.17,257.48c1.5-1.2,3.5-1.2,4.5-2.9C624.17,253.78,623.07,254.48,622.17,257.48z"/>
	<path d="M805.45,348.38C805.45,348.32,805.44,348.34,805.45,348.38L805.45,348.38z"/>
	<path d="M805.45,348.38c0.01,0.2,0.02,1.14-0.2,4.43c1.02-1.22,0.85-2.82,0.24-4.3C805.47,348.48,805.46,348.42,805.45,348.38z"/>
	<path d="M805.33,352.87c-0.16,0.63-0.49,1.23,0.02,2.04C805.22,354.02,805.31,353.05,805.33,352.87z"/>
	<path d="M805.33,352.87c0-0.01,0.01-0.02,0.01-0.03C805.34,352.82,805.34,352.83,805.33,352.87z"/>
	<path d="M714.81,250.29c0.5-1-0.6-0.8-0.9-1.1C713.61,250.19,714.11,250.39,714.81,250.29z"/>
<path fill="#e6e6e6" d="m206.8 163.6c0-5.1 4.1-9.2 9.3-9.2s9.2 4.2 9.2 9.2-4.1 9.2-9.3 9.2-9.2-4.1-9.2-9.2zm17.3-.1c0-4.5-3.5-8.2-8.2-8.2s-8.2 3.7-8.2 8.3c0 4.5 3.5 8.2 8.2 8.2s8.2-3.7 8.2-8.3zm-13 0c0-2.8 2.1-5.1 5.1-5.1 1.9 0 2.9.6 3.9 1.5l-1.4 1.7c-.8-.7-1.5-1.1-2.5-1.1-1.7 0-2.8 1.4-2.8 3.1s1.1 3 2.8 3c1.1 0 1.7-.5 2.5-1.1l1.4 1.4c-1.1 1.1-2.1 1.7-4 1.7-2.9 0-5-2.3-5-5.1z"/><path fill="#e6e6e6" d="m226.6 154.7h3.4l4.2 13.2 4.4-13.3h2.6l4.4 13.3 4.2-13.2h3.3l-6.2 18h-2.7l-4.4-12.8-4.4 12.8h-2.7z"/><path fill="#e6e6e6" d="m252.8 165.8c0-3.9 3.1-7 7.2-7 4.2 0 7.2 3.2 7.2 7s-3.1 7-7.3 7c-4 0-7.1-3.1-7.1-7zm11.3 0c0-2.3-1.7-4.3-4.2-4.3s-4.1 2-4.1 4.3 1.7 4.3 4.1 4.3c2.7.1 4.2-1.9 4.2-4.3z"/><path fill="#e6e6e6" d="m269.5 159.1h3.1v3c.8-2 2.4-3.4 4.8-3.3v3.2h-.2c-2.7 0-4.6 1.7-4.6 5.4v5.1h-3.1z"/><path fill="#e6e6e6" d="m279.1 153.9h3.1v11.1l5.6-6h3.8l-5.4 5.5 5.5 8h-3.5l-4.1-5.8-1.9 2v3.9h-3.1z"/><path fill="#e6e6e6" d="m291.7 165.8c0-3.9 3.1-7 7.2-7 4.2 0 7.2 3.2 7.2 7s-3.1 7-7.3 7c-4 0-7.1-3.1-7.1-7zm11.3 0c0-2.3-1.7-4.3-4.2-4.3s-4.1 2-4.1 4.3 1.7 4.3 4.1 4.3c2.6.1 4.2-1.9 4.2-4.3z"/><path fill="#e6e6e6" d="m308.2 167.6v-8.6h3.1v7.6c0 2.1 1.1 3.3 2.9 3.3s3-1.3 3-3.3v-7.6h3.1v13.4h-3.1v-2.1c-.8 1.3-2.1 2.3-4.2 2.3-3.1.2-4.8-1.8-4.8-5z"/><path fill="#e6e6e6" d="m323.9 168.8v-7.1h-1.7v-2.6h1.7v-3.7h3.1v3.7h3.6v2.6h-3.6v6.6c0 1.2.6 1.7 1.7 1.7.7 0 1.3-.2 1.9-.5v2.5c-.8.5-1.7.7-2.8.7-2.3 0-3.9-.9-3.9-3.9z"/><path fill="#e6e6e6" d="m333.2 154.7h3.2v15h9.4v2.9h-12.5v-17.9z"/><path fill="#e6e6e6" d="m356 172.5v-1.7c-.9 1.1-2.3 2-4.4 2-2.6 0-4.8-1.4-4.8-4.2 0-3 2.3-4.4 5.4-4.4 1.7 0 2.6.2 3.7.5v-.2c0-1.9-1.2-2.9-3.3-2.9-1.5 0-2.6.3-3.9.8l-.8-2.5c1.5-.7 2.9-1.1 5.1-1.1 4 0 5.9 2.1 5.9 5.7v8zm.1-5.6c-.8-.3-1.9-.5-3.1-.5-2 0-3.1.8-3.1 2.1s1.1 2 2.6 2c2 0 3.5-1.1 3.5-2.9z"/><path fill="#e6e6e6" d="m364.9 170.5v2.1h-3.1v-18.7h3.1v7.4c1-1.4 2.4-2.5 4.5-2.5 3.2 0 6.3 2.5 6.3 7s-3.1 7-6.3 7c-2.1 0-3.5-1.1-4.5-2.3zm7.7-4.7c0-2.6-1.7-4.3-3.9-4.3s-3.9 1.7-3.9 4.4c0 2.6 1.8 4.3 3.9 4.3s3.9-1.7 3.9-4.4z"/><path fill="#e6e6e6" d="m376.9 170.8 1.4-2.1c1.4 1.1 3 1.7 4.4 1.7s2.1-.5 2.1-1.5-1.3-1.4-2.8-1.8c-.1 0-.2-.1-.2-.1-2-.6-4.2-1.4-4.2-4s2.1-4.1 4.8-4.1c1.7 0 3.5.6 5 1.5l-1.2 2.2c-1.3-.8-2.6-1.3-3.8-1.3s-1.9.5-1.9 1.4 1.3 1.4 2.8 1.8c.1 0 .2.1.2.1 2 .6 4.2 1.5 4.2 4 0 2.9-2.2 4.2-5 4.2-1.9 0-4-.7-5.8-2z"/><path fill="#e6e6e6" d="m505.6 163.6c0-5.1 4.1-9.2 9.3-9.2s9.2 4.2 9.2 9.2-4.1 9.2-9.3 9.2-9.2-4.1-9.2-9.2zm17.4-.1c0-4.5-3.5-8.2-8.2-8.2s-8.2 3.7-8.2 8.3c0 4.5 3.5 8.2 8.2 8.2s8.2-3.7 8.2-8.3zm-13.1 0c0-2.8 2.1-5.1 5.1-5.1 1.9 0 2.9.6 3.9 1.5l-1.4 1.7c-.8-.7-1.5-1.1-2.5-1.1-1.7 0-2.8 1.4-2.8 3.1s1.1 3 2.8 3c1.1 0 1.7-.5 2.5-1.1l1.4 1.4c-1.1 1.1-2.1 1.7-4 1.7-2.9 0-5-2.3-5-5.1z"/><path fill="#e6e6e6" d="m525.4 154.7h3.4l4.2 13.2 4.4-13.3h2.6l4.4 13.3 4.2-13.2h3.3l-6.2 18h-2.7l-4.4-12.8-4.4 12.8h-2.7z"/><path fill="#e6e6e6" d="m551.7 165.8c0-3.9 3.1-7 7.2-7 4.2 0 7.2 3.2 7.2 7s-3.1 7-7.3 7c-4.1 0-7.1-3.1-7.1-7zm11.2 0c0-2.3-1.7-4.3-4.2-4.3s-4.1 2-4.1 4.3 1.7 4.3 4.1 4.3c2.7.1 4.2-1.9 4.2-4.3z"/><path fill="#e6e6e6" d="m568.3 159.1h3.1v3c.8-2 2.4-3.4 4.8-3.3v3.2h-.2c-2.7 0-4.6 1.7-4.6 5.4v5.1h-3.1z"/><path fill="#e6e6e6" d="m577.9 153.9h3.1v11.1l5.6-6h3.8l-5.4 5.5 5.5 8h-3.5l-4.1-5.8-1.9 2v3.9h-3.1z"/><path fill="#e6e6e6" d="m590.6 165.8c0-3.9 3.1-7 7.2-7 4.2 0 7.2 3.2 7.2 7s-3.1 7-7.3 7c-4.1 0-7.1-3.1-7.1-7zm11.2 0c0-2.3-1.7-4.3-4.2-4.3s-4.1 2-4.1 4.3 1.7 4.3 4.1 4.3c2.6.1 4.2-1.9 4.2-4.3z"/><path fill="#e6e6e6" d="m607 167.6v-8.6h3.1v7.6c0 2.1 1.1 3.3 2.9 3.3s3-1.3 3-3.3v-7.6h3.1v13.4h-3.1v-2.1c-.8 1.3-2.1 2.3-4.2 2.3-3 .2-4.8-1.8-4.8-5z"/><path fill="#e6e6e6" d="m622.7 168.8v-7.1h-1.7v-2.6h1.7v-3.7h3.1v3.7h3.6v2.6h-3.6v6.6c0 1.2.6 1.7 1.7 1.7.7 0 1.3-.2 1.9-.5v2.5c-.8.5-1.7.7-2.8.7-2.3 0-3.9-.9-3.9-3.9z"/><path fill="#e6e6e6" d="m632 154.7h3.2v15h9.4v2.9h-12.6z"/><path fill="#e6e6e6" d="m654.8 172.5v-1.7c-.9 1.1-2.3 2-4.4 2-2.6 0-4.8-1.4-4.8-4.2 0-3 2.3-4.4 5.4-4.4 1.7 0 2.6.2 3.7.5v-.2c0-1.9-1.2-2.9-3.3-2.9-1.5 0-2.6.3-3.9.8l-.8-2.5c1.5-.7 2.9-1.1 5.1-1.1 4 0 5.9 2.1 5.9 5.7v8zm.1-5.6c-.8-.3-1.9-.5-3.1-.5-2 0-3.1.8-3.1 2.1s1.1 2 2.6 2c2 0 3.5-1.1 3.5-2.9z"/><path fill="#e6e6e6" d="m663.7 170.5v2.1h-3.1v-18.7h3.1v7.4c1-1.4 2.4-2.5 4.5-2.5 3.2 0 6.3 2.5 6.3 7s-3.1 7-6.3 7c-2.1 0-3.5-1.1-4.5-2.3zm7.8-4.7c0-2.6-1.7-4.3-3.9-4.3-2.1 0-3.9 1.7-3.9 4.4 0 2.6 1.8 4.3 3.9 4.3s3.9-1.7 3.9-4.4z"/><path fill="#e6e6e6" d="m675.8 170.8 1.4-2.1c1.4 1.1 3 1.7 4.4 1.7s2.1-.5 2.1-1.5-1.3-1.4-2.8-1.8c-.1 0-.2-.1-.2-.1-2-.6-4.2-1.4-4.2-4s2.1-4.1 4.8-4.1c1.7 0 3.5.6 5 1.5l-1.2 2.2c-1.3-.8-2.6-1.3-3.8-1.3s-1.9.5-1.9 1.4 1.3 1.4 2.8 1.8c.1 0 .2.1.2.1 2 .6 4.2 1.5 4.2 4 0 2.9-2.2 4.2-5 4.2-2 0-4.1-.7-5.8-2z"/><path fill="#e6e6e6" d="m61 298.6c0-5.1 4.1-9.2 9.3-9.2s9.2 4.2 9.2 9.2-4.1 9.2-9.3 9.2c-5.1 0-9.2-4.2-9.2-9.2zm17.4-.1c0-4.5-3.5-8.2-8.2-8.2s-8.2 3.7-8.2 8.3c0 4.5 3.5 8.2 8.2 8.2s8.2-3.7 8.2-8.3zm-13.1-.1c0-2.8 2.1-5.1 5.1-5.1 1.9 0 2.9.6 3.9 1.5l-1.4 1.7c-.8-.7-1.5-1.1-2.5-1.1-1.7 0-2.8 1.4-2.8 3.1s1.1 3 2.8 3c1.1 0 1.7-.5 2.5-1.1l1.4 1.4c-1.1 1.1-2.1 1.7-4 1.7-2.8.1-5-2.2-5-5.1z"/><path fill="#e6e6e6" d="m80.9 289.7h3.4l4.2 13.2 4.4-13.3h2.6l4.4 13.3 4.2-13.2h3.3l-6.2 18h-2.7l-4.4-12.8-4.4 12.8h-2.7z"/><path fill="#e6e6e6" d="m107.1 300.8c0-3.9 3.1-7 7.2-7s7.2 3.2 7.2 7-3.1 7-7.3 7c-4 0-7.1-3.1-7.1-7zm11.3 0c0-2.3-1.7-4.3-4.2-4.3s-4.1 2-4.1 4.3 1.7 4.3 4.1 4.3c2.6.1 4.2-1.9 4.2-4.3z"/><path fill="#e6e6e6" d="m123.7 294h3.1v3c.8-2 2.4-3.4 4.8-3.3v3.2h-.2c-2.7 0-4.6 1.7-4.6 5.4v5.1h-3.1z"/><path fill="#e6e6e6" d="m133.4 288.9h3.1v11.1l5.6-6h3.8l-5.4 5.5 5.5 8h-3.5l-4.1-5.8-1.9 1.9v3.9h-3.1z"/><path fill="#e6e6e6" d="m146 300.8c0-3.9 3.1-7 7.2-7s7.2 3.2 7.2 7-3.1 7-7.3 7c-4.1 0-7.1-3.1-7.1-7zm11.2 0c0-2.3-1.7-4.3-4.2-4.3s-4.1 2-4.1 4.3 1.7 4.3 4.1 4.3c2.6.1 4.2-1.9 4.2-4.3z"/><path fill="#e6e6e6" d="m162.4 302.6v-8.6h3.1v7.6c0 2.1 1.1 3.3 2.9 3.3s3-1.3 3-3.3v-7.6h3.1v13.4h-3.1v-2.1c-.8 1.3-2.1 2.3-4.2 2.3-3 .2-4.8-1.8-4.8-5z"/><path fill="#e6e6e6" d="m178.1 303.8v-7.1h-1.7v-2.7h1.7v-3.7h3.1v3.7h3.6v2.6h-3.6v6.6c0 1.2.6 1.7 1.7 1.7.7 0 1.3-.2 1.9-.5v2.5c-.8.5-1.7.7-2.8.7-2.3.1-3.9-.9-3.9-3.8z"/><path fill="#e6e6e6" d="m187.4 289.7h3.2v15h9.4v2.9h-12.5v-17.9z"/><path fill="#e6e6e6" d="m210.2 307.5v-1.7c-.9 1.1-2.3 2-4.4 2-2.6 0-4.8-1.4-4.8-4.2 0-3 2.3-4.4 5.4-4.4 1.7 0 2.6.2 3.7.5v-.2c0-1.9-1.2-2.9-3.3-2.9-1.5 0-2.6.3-3.9.8l-.8-2.5c1.5-.7 2.9-1.1 5.1-1.1 4 0 5.9 2.1 5.9 5.7v8zm.1-5.6c-.8-.3-1.9-.5-3.1-.5-2 0-3.1.8-3.1 2.1s1.1 2 2.6 2c2 0 3.5-1.1 3.5-2.9z"/><path fill="#e6e6e6" d="m219.2 305.5v2.1h-3.1v-18.7h3.1v7.4c1-1.4 2.4-2.5 4.5-2.5 3.2 0 6.3 2.5 6.3 7s-3.1 7-6.3 7c-2.2 0-3.6-1.1-4.5-2.3zm7.7-4.7c0-2.6-1.7-4.3-3.9-4.3s-3.9 1.7-3.9 4.4c0 2.6 1.8 4.3 3.9 4.3s3.9-1.7 3.9-4.4z"/><path fill="#e6e6e6" d="m231.2 305.8 1.4-2.1c1.4 1.1 3 1.7 4.4 1.7s2.1-.5 2.1-1.5-1.3-1.4-2.8-1.8c-.1 0-.2-.1-.2-.1-2-.6-4.2-1.4-4.2-4s2.1-4.1 4.8-4.1c1.7 0 3.5.6 5 1.5l-1.2 2.2c-1.3-.8-2.6-1.3-3.8-1.3s-1.9.5-1.9 1.4 1.3 1.4 2.8 1.8c.1 0 .2.1.2.1 2 .6 4.2 1.5 4.2 4 0 2.9-2.2 4.2-5 4.2-2 0-4.1-.7-5.8-2z"/><path fill="#e6e6e6" d="m360.6 298.6c0-5.1 4.1-9.2 9.3-9.2s9.2 4.2 9.2 9.2-4.1 9.2-9.3 9.2-9.2-4.2-9.2-9.2zm17.4-.1c0-4.5-3.5-8.2-8.2-8.2s-8.2 3.7-8.2 8.3c0 4.5 3.5 8.2 8.2 8.2s8.2-3.7 8.2-8.3zm-13.1-.1c0-2.8 2.1-5.1 5.1-5.1 1.9 0 2.9.6 3.9 1.5l-1.4 1.7c-.8-.7-1.5-1.1-2.5-1.1-1.7 0-2.8 1.4-2.8 3.1s1.1 3 2.8 3c1.1 0 1.7-.5 2.5-1.1l1.4 1.4c-1.1 1.1-2.1 1.7-4 1.7-2.8.1-5-2.2-5-5.1z"/><path fill="#e6e6e6" d="m380.5 289.7h3.4l4.2 13.2 4.4-13.3h2.6l4.4 13.3 4.2-13.2h3.3l-6.2 18h-2.7l-4.4-12.8-4.4 12.8h-2.7z"/><path fill="#e6e6e6" d="m406.7 300.8c0-3.9 3.1-7 7.2-7 4.2 0 7.2 3.2 7.2 7s-3.1 7-7.3 7c-4.1 0-7.1-3.1-7.1-7zm11.3 0c0-2.3-1.7-4.3-4.2-4.3s-4.1 2-4.1 4.3 1.7 4.3 4.1 4.3c2.7.1 4.2-1.9 4.2-4.3z"/><path fill="#e6e6e6" d="m423.3 294h3.1v3c.8-2 2.4-3.4 4.8-3.3v3.2h-.2c-2.7 0-4.6 1.7-4.6 5.4v5.1h-3.1z"/><path fill="#e6e6e6" d="m433 288.9h3.1v11.1l5.6-6h3.8l-5.4 5.5 5.5 8h-3.5l-4.1-5.8-1.9 2v3.9h-3.1z"/><path fill="#e6e6e6" d="m445.6 300.8c0-3.9 3.1-7 7.2-7 4.2 0 7.2 3.2 7.2 7s-3.1 7-7.3 7c-4.1 0-7.1-3.1-7.1-7zm11.3 0c0-2.3-1.7-4.3-4.2-4.3s-4.1 2-4.1 4.3 1.7 4.3 4.1 4.3c2.6.1 4.2-1.9 4.2-4.3z"/><path fill="#e6e6e6" d="m462.1 302.6v-8.6h3.1v7.6c0 2.1 1.1 3.3 2.9 3.3s3-1.3 3-3.3v-7.6h3.1v13.4h-3.1v-2.1c-.8 1.3-2.1 2.3-4.2 2.3-3.1.2-4.8-1.8-4.8-5z"/><path fill="#e6e6e6" d="m477.8 303.8v-7.1h-1.8v-2.7h1.7v-3.7h3.1v3.7h3.6v2.6h-3.6v6.6c0 1.2.6 1.7 1.7 1.7.7 0 1.3-.2 1.9-.5v2.5c-.8.5-1.7.7-2.8.7-2.2.1-3.8-.9-3.8-3.8z"/><path fill="#e6e6e6" d="m487.1 289.7h3.2v15h9.4v2.9h-12.5v-17.9z"/><path fill="#e6e6e6" d="m509.9 307.5v-1.7c-.9 1.1-2.3 2-4.4 2-2.6 0-4.8-1.4-4.8-4.2 0-3 2.3-4.4 5.4-4.4 1.7 0 2.6.2 3.7.5v-.2c0-1.9-1.2-2.9-3.3-2.9-1.5 0-2.6.3-3.9.8l-.8-2.5c1.5-.7 2.9-1.1 5.1-1.1 4 0 5.9 2.1 5.9 5.7v8zm.1-5.6c-.8-.3-1.9-.5-3.1-.5-2 0-3.1.8-3.1 2.1s1.1 2 2.6 2c2 0 3.5-1.1 3.5-2.9z"/><path fill="#e6e6e6" d="m518.8 305.5v2.1h-3.1v-18.7h3.1v7.4c1-1.4 2.4-2.5 4.5-2.5 3.2 0 6.3 2.5 6.3 7s-3.1 7-6.3 7c-2.2 0-3.5-1.1-4.5-2.3zm7.7-4.7c0-2.6-1.7-4.3-3.9-4.3s-3.9 1.7-3.9 4.4c0 2.6 1.8 4.3 3.9 4.3s3.9-1.7 3.9-4.4z"/><path fill="#e6e6e6" d="m530.8 305.8 1.4-2.1c1.4 1.1 3 1.7 4.4 1.7s2.1-.5 2.1-1.5-1.3-1.4-2.8-1.8c-.1 0-.2-.1-.2-.1-2-.6-4.2-1.4-4.2-4s2.1-4.1 4.8-4.1c1.7 0 3.5.6 5 1.5l-1.2 2.2c-1.3-.8-2.6-1.3-3.8-1.3s-1.9.5-1.9 1.4 1.3 1.4 2.8 1.8c.1 0 .2.1.2.1 2 .6 4.2 1.5 4.2 4 0 2.9-2.2 4.2-5 4.2-1.9 0-4.1-.7-5.8-2z"/><path fill="#e6e6e6" d="m659.5 298.6c0-5.1 4.1-9.2 9.3-9.2s9.2 4.2 9.2 9.2-4.1 9.2-9.3 9.2-9.2-4.2-9.2-9.2zm17.3-.1c0-4.5-3.5-8.2-8.2-8.2s-8.2 3.7-8.2 8.3c0 4.5 3.5 8.2 8.2 8.2 4.8 0 8.2-3.7 8.2-8.3zm-13-.1c0-2.8 2.1-5.1 5.1-5.1 1.9 0 2.9.6 3.9 1.5l-1.4 1.7c-.8-.7-1.5-1.1-2.5-1.1-1.7 0-2.8 1.4-2.8 3.1s1.1 3 2.8 3c1.1 0 1.7-.5 2.5-1.1l1.4 1.4c-1.1 1.1-2.1 1.7-4 1.7-2.9.1-5-2.2-5-5.1z"/><path fill="#e6e6e6" d="m679.3 289.7h3.4l4.2 13.2 4.4-13.3h2.6l4.4 13.3 4.2-13.2h3.3l-6.2 18h-2.6l-4.4-12.8-4.4 12.8h-2.7z"/><path fill="#e6e6e6" d="m705.5 300.8c0-3.9 3.1-7 7.2-7 4.2 0 7.2 3.2 7.2 7s-3.1 7-7.3 7c-4 0-7.1-3.1-7.1-7zm11.3 0c0-2.3-1.7-4.3-4.2-4.3s-4.1 2-4.1 4.3 1.7 4.3 4.1 4.3c2.7.1 4.2-1.9 4.2-4.3z"/><path fill="#e6e6e6" d="m722.1 294h3.1v3c.8-2 2.4-3.4 4.8-3.3v3.2h-.2c-2.7 0-4.6 1.7-4.6 5.4v5.1h-3.1z"/><path fill="#e6e6e6" d="m731.8 288.9h3.1v11.1l5.6-6h3.8l-5.4 5.5 5.5 8h-3.5l-4.1-5.8-1.9 2v3.9h-3.1z"/><path fill="#e6e6e6" d="m744.4 300.8c0-3.9 3.1-7 7.2-7 4.2 0 7.2 3.2 7.2 7s-3.1 7-7.3 7c-4.1 0-7.1-3.1-7.1-7zm11.3 0c0-2.3-1.7-4.3-4.2-4.3s-4.1 2-4.1 4.3 1.7 4.3 4.1 4.3c2.6.1 4.2-1.9 4.2-4.3z"/><path fill="#e6e6e6" d="m760.9 302.6v-8.6h3.1v7.6c0 2.1 1.1 3.3 2.9 3.3s3-1.3 3-3.3v-7.6h3.1v13.4h-3.1v-2.1c-.8 1.3-2.1 2.3-4.2 2.3-3.1.2-4.8-1.8-4.8-5z"/><path fill="#e6e6e6" d="m776.6 303.8v-7.1h-1.7v-2.7h1.7v-3.7h3.1v3.7h3.6v2.6h-3.6v6.6c0 1.2.6 1.7 1.7 1.7.7 0 1.3-.2 1.9-.5v2.5c-.8.5-1.7.7-2.8.7-2.3.1-3.9-.9-3.9-3.8z"/><path fill="#e6e6e6" d="m785.9 289.7h3.2v15h9.4v2.9h-12.5v-17.9z"/><path fill="#e6e6e6" d="m808.7 307.5v-1.7c-.9 1.1-2.3 2-4.4 2-2.6 0-4.8-1.4-4.8-4.2 0-3 2.3-4.4 5.4-4.4 1.7 0 2.6.2 3.7.5v-.2c0-1.9-1.2-2.9-3.3-2.9-1.5 0-2.6.3-3.9.8l-.8-2.5c1.5-.7 2.9-1.1 5.1-1.1 4 0 5.9 2.1 5.9 5.7v8zm.1-5.6c-.8-.3-1.9-.5-3.1-.5-2 0-3.1.8-3.1 2.1s1.1 2 2.6 2c2 0 3.5-1.1 3.5-2.9z"/><path fill="#e6e6e6" d="m817.6 305.5v2.1h-3.1v-18.7h3.1v7.4c1-1.4 2.4-2.5 4.5-2.5 3.2 0 6.3 2.5 6.3 7s-3.1 7-6.3 7c-2.1 0-3.5-1.1-4.5-2.3zm7.7-4.7c0-2.6-1.7-4.3-3.9-4.3-2.1 0-3.9 1.7-3.9 4.4 0 2.6 1.8 4.3 3.9 4.3 2.2 0 3.9-1.7 3.9-4.4z"/><path fill="#e6e6e6" d="m829.6 305.8 1.4-2.1c1.4 1.1 3 1.7 4.4 1.7s2.1-.5 2.1-1.5-1.3-1.4-2.8-1.8c-.1 0-.2-.1-.2-.1-2-.6-4.2-1.4-4.2-4s2.1-4.1 4.8-4.1c1.7 0 3.5.6 5 1.5l-1.2 2.2c-1.3-.8-2.6-1.3-3.8-1.3s-1.9.5-1.9 1.4 1.3 1.4 2.8 1.8c.1 0 .2.1.2.1 2 .6 4.2 1.5 4.2 4 0 2.9-2.2 4.2-5 4.2-1.9 0-4-.7-5.8-2z"/><path fill="#e6e6e6" d="m206.3 434.2c0-5.1 4.1-9.2 9.3-9.2s9.2 4.2 9.2 9.2-4.1 9.2-9.3 9.2-9.2-4.1-9.2-9.2zm17.4-.1c0-4.5-3.5-8.2-8.2-8.2s-8.2 3.7-8.2 8.3c0 4.5 3.5 8.2 8.2 8.2s8.2-3.7 8.2-8.3zm-13.1-.1c0-2.8 2.1-5.1 5.1-5.1 1.9 0 2.9.6 3.9 1.5l-1.4 1.7c-.8-.7-1.5-1.1-2.5-1.1-1.7 0-2.8 1.4-2.8 3.1s1.1 3 2.8 3c1.1 0 1.7-.5 2.5-1.1l1.4 1.4c-1.1 1.1-2.1 1.7-4 1.7-2.9.1-5-2.2-5-5.1z"/><path fill="#e6e6e6" d="m226.1 425.3h3.4l4.2 13.2 4.4-13.3h2.6l4.4 13.3 4.2-13.2h3.3l-6.2 18h-2.7l-4.4-12.8-4.4 12.8h-2.7z"/><path fill="#e6e6e6" d="m252.4 436.4c0-3.9 3.1-7 7.2-7 4.2 0 7.2 3.2 7.2 7s-3.1 7-7.3 7c-4.1 0-7.1-3.1-7.1-7zm11.2 0c0-2.3-1.7-4.3-4.2-4.3s-4.1 2-4.1 4.3 1.7 4.3 4.1 4.3c2.7.1 4.2-1.9 4.2-4.3z"/><path fill="#e6e6e6" d="m269 429.7h3.1v3c.8-2 2.4-3.4 4.8-3.3v3.2h-.2c-2.7 0-4.6 1.7-4.6 5.4v5.1h-3.1z"/><path fill="#e6e6e6" d="m278.6 424.5h3.1v11.1l5.6-6h3.8l-5.4 5.5 5.5 8h-3.5l-4.1-5.8-1.9 2v3.9h-3.1z"/><path fill="#e6e6e6" d="m291.3 436.4c0-3.9 3.1-7 7.2-7 4.2 0 7.2 3.2 7.2 7s-3.1 7-7.3 7c-4.1 0-7.1-3.1-7.1-7zm11.2 0c0-2.3-1.7-4.3-4.2-4.3s-4.1 2-4.1 4.3 1.7 4.3 4.1 4.3c2.6.1 4.2-1.9 4.2-4.3z"/><path fill="#e6e6e6" d="m307.7 438.2v-8.6h3.1v7.6c0 2.1 1.1 3.3 2.9 3.3s3-1.3 3-3.3v-7.6h3.1v13.4h-3.1v-2.1c-.8 1.3-2.1 2.3-4.2 2.3-3 .2-4.8-1.8-4.8-5z"/><path fill="#e6e6e6" d="m323.4 439.4v-7.1h-1.7v-2.6h1.7v-3.7h3.1v3.7h3.6v2.6h-3.6v6.6c0 1.2.6 1.7 1.7 1.7.7 0 1.3-.2 1.9-.5v2.5c-.8.5-1.7.7-2.8.7-2.3 0-3.9-.9-3.9-3.9z"/><path fill="#e6e6e6" d="m332.7 425.3h3.2v15h9.4v2.9h-12.5v-17.9z"/><path fill="#e6e6e6" d="m355.5 443.1v-1.7c-.9 1.1-2.3 2-4.4 2-2.6 0-4.8-1.4-4.8-4.2 0-3 2.3-4.4 5.4-4.4 1.7 0 2.6.2 3.7.5v-.2c0-1.9-1.2-2.9-3.3-2.9-1.5 0-2.6.3-3.9.8l-.8-2.5c1.5-.7 2.9-1.1 5.1-1.1 4 0 5.9 2.1 5.9 5.7v8zm.1-5.6c-.8-.3-1.9-.5-3.1-.5-2 0-3.1.8-3.1 2.1s1.1 2 2.6 2c2 0 3.5-1.1 3.5-2.9z"/><path fill="#e6e6e6" d="m364.4 441.1v2.1h-3.1v-18.7h3.1v7.4c1-1.4 2.4-2.5 4.5-2.5 3.2 0 6.3 2.5 6.3 7s-3.1 7-6.3 7c-2.1 0-3.5-1.1-4.5-2.3zm7.7-4.7c0-2.6-1.7-4.3-3.9-4.3-2.1 0-3.9 1.7-3.9 4.4 0 2.6 1.8 4.3 3.9 4.3 2.2 0 3.9-1.7 3.9-4.4z"/><path fill="#e6e6e6" d="m376.5 441.4 1.4-2.1c1.4 1.1 3 1.7 4.4 1.7s2.1-.5 2.1-1.5-1.3-1.4-2.8-1.8c-.1 0-.2-.1-.2-.1-2-.6-4.2-1.4-4.2-4s2.1-4.1 4.8-4.1c1.7 0 3.5.6 5 1.5l-1.2 2.2c-1.3-.8-2.6-1.3-3.8-1.3s-1.9.5-1.9 1.4 1.3 1.4 2.8 1.8c.1 0 .2.1.2.1 2 .6 4.2 1.5 4.2 4 0 2.9-2.2 4.2-5 4.2-2 0-4.1-.7-5.8-2z"/><path fill="#e6e6e6" d="m505.1 434.2c0-5.1 4.1-9.2 9.3-9.2s9.2 4.2 9.2 9.2-4.1 9.2-9.3 9.2-9.2-4.1-9.2-9.2zm17.4-.1c0-4.5-3.5-8.2-8.2-8.2s-8.2 3.7-8.2 8.3c0 4.5 3.5 8.2 8.2 8.2s8.2-3.7 8.2-8.3zm-13.1-.1c0-2.8 2.1-5.1 5.1-5.1 1.9 0 2.9.6 3.9 1.5l-1.4 1.7c-.8-.7-1.5-1.1-2.5-1.1-1.7 0-2.8 1.4-2.8 3.1s1.1 3 2.8 3c1.1 0 1.7-.5 2.5-1.1l1.4 1.4c-1.1 1.1-2.1 1.7-4 1.7-2.9.1-5-2.2-5-5.1z"/><path fill="#e6e6e6" d="m525 425.3h3.4l4.2 13.2 4.4-13.3h2.6l4.4 13.3 4.2-13.2h3.3l-6.2 18h-2.7l-4.4-12.8-4.4 12.8h-2.7z"/><path fill="#e6e6e6" d="m551.2 436.4c0-3.9 3.1-7 7.2-7 4.2 0 7.2 3.2 7.2 7s-3.1 7-7.3 7c-4.1 0-7.1-3.1-7.1-7zm11.2 0c0-2.3-1.7-4.3-4.2-4.3s-4.1 2-4.1 4.3 1.7 4.3 4.1 4.3c2.7.1 4.2-1.9 4.2-4.3z"/><path fill="#e6e6e6" d="m567.8 429.7h3.1v3c.8-2 2.4-3.4 4.8-3.3v3.2h-.2c-2.7 0-4.6 1.7-4.6 5.4v5.1h-3.1z"/><path fill="#e6e6e6" d="m577.5 424.5h3.1v11.1l5.6-6h3.8l-5.4 5.5 5.5 8h-3.5l-4.1-5.8-1.9 2v3.9h-3.1z"/><path fill="#e6e6e6" d="m590.1 436.4c0-3.9 3.1-7 7.2-7 4.2 0 7.2 3.2 7.2 7s-3.1 7-7.3 7c-4.1 0-7.1-3.1-7.1-7zm11.2 0c0-2.3-1.7-4.3-4.2-4.3s-4.1 2-4.1 4.3 1.7 4.3 4.1 4.3c2.6.1 4.2-1.9 4.2-4.3z"/><path fill="#e6e6e6" d="m606.5 438.2v-8.6h3.1v7.6c0 2.1 1.1 3.3 2.9 3.3s3-1.3 3-3.3v-7.6h3.1v13.4h-3.1v-2.1c-.8 1.3-2.1 2.3-4.2 2.3-3 .2-4.8-1.8-4.8-5z"/><path fill="#e6e6e6" d="m622.2 439.4v-7.1h-1.7v-2.6h1.7v-3.7h3.1v3.7h3.6v2.6h-3.6v6.6c0 1.2.6 1.7 1.7 1.7.7 0 1.3-.2 1.9-.5v2.5c-.8.5-1.7.7-2.8.7-2.3 0-3.9-.9-3.9-3.9z"/><path fill="#e6e6e6" d="m631.5 425.3h3.2v15h9.4v2.9h-12.5v-17.9z"/><path fill="#e6e6e6" d="m654.3 443.1v-1.7c-.9 1.1-2.3 2-4.4 2-2.6 0-4.8-1.4-4.8-4.2 0-3 2.3-4.4 5.4-4.4 1.7 0 2.6.2 3.7.5v-.2c0-1.9-1.2-2.9-3.3-2.9-1.5 0-2.6.3-3.9.8l-.8-2.5c1.5-.7 2.9-1.1 5.1-1.1 4 0 5.9 2.1 5.9 5.7v8zm.1-5.6c-.8-.3-1.9-.5-3.1-.5-2 0-3.1.8-3.1 2.1s1.1 2 2.6 2c2 0 3.5-1.1 3.5-2.9z"/><path fill="#e6e6e6" d="m663.3 441.1v2.1h-3.1v-18.7h3.1v7.4c1-1.4 2.4-2.5 4.5-2.5 3.2 0 6.3 2.5 6.3 7s-3.1 7-6.3 7c-2.2 0-3.6-1.1-4.5-2.3zm7.7-4.7c0-2.6-1.7-4.3-3.9-4.3s-3.9 1.7-3.9 4.4c0 2.6 1.8 4.3 3.9 4.3s3.9-1.7 3.9-4.4z"/><path fill="#e6e6e6" d="m675.3 441.4 1.4-2.1c1.4 1.1 3 1.7 4.4 1.7s2.1-.5 2.1-1.5-1.3-1.4-2.8-1.8c-.1 0-.2-.1-.2-.1-2-.6-4.2-1.4-4.2-4s2.1-4.1 4.8-4.1c1.7 0 3.5.6 5 1.5l-1.2 2.2c-1.3-.8-2.6-1.3-3.8-1.3s-1.9.5-1.9 1.4 1.3 1.4 2.8 1.8c.1 0 .2.1.2.1 2 .6 4.2 1.5 4.2 4 0 2.9-2.2 4.2-5 4.2-2 0-4.1-.7-5.8-2z"/></g>
</svg>
