<?xml version="1.0" encoding="utf-8"?>
<!-- Generator: Adobe Illustrator 23.0.1, SVG Export Plug-In . SVG Version: 6.00 Build 0)  -->
<svg version="1.2" baseProfile="tiny" id="Layer_1" xmlns="http://www.w3.org/2000/svg" xmlns:xlink="http://www.w3.org/1999/xlink"
	 x="0px" y="0px" viewBox="0 0 900 600" xml:space="preserve">
<g>
	<path d="M762.22,124.28c3.28,0.05,5.84,6.2,10.97,0.1c3.22-3.83,4.9-8.47,7.04-12.96c-4.27,1.24-3.69,6.85-10.71,12.96
		c-4.69-0.1-7.35-4.18-11.43-6.02c-1.08,2.26,0.69,3.37,3.16,4.91c0.57,1.43-1.06,1.79,1.02,1.11c-0.03-0.1,0.01-0.1-0.09-0.1
		C760.34,122.25,761.97,123.76,762.22,124.28z"/>
	<path d="M880.02,531.69c-0.89-2.97-1.93-5.45-5.71-6.63c-19.76-6.18-30.17-19.54-46.53-32.04c-11.87-9.07-4.01-8.41-12.55-17.96
		c-3.9-4.36-5.83-9.18-5.31-15.31c5.66-66.65,15.38-67.94,13.06-102.75c-1.68-25.14-0.63-24.72,0.92-29.39
		c3.58-10.76-3.11-16.27-0.2-25.71c2.7-8.76-9.69-25.22-20-29.79c-42.05-18.66-41.87-22.75-46.22-23.06
		c-1.12-3.88-0.02-7.25,0.51-10.82c3.21-21.48-4.54-29.07,0.2-37.75c5.89-10.78,8.26-22.45,6.63-34.79
		c-0.51-3.88-0.08-7.86-1.12-11.84c-3.29-12.52-12.13-11.47-11.53-20.3c0.1-1.53-0.51-3.06-1.63-4.39c2.65-2.35,6.48-1.59,9.18-3.67
		c3.57-2.74-0.23,2.45-12.04-3.46c-1.02-0.51-2.24-1.02-3.16,0.71c1.63,2.65,5.2,2.35,7.45,4.8c-5.61-3.06-9.29,3.67-14.18,2.04
		c-11.02-5.1-17.65-13.98-21.43-25.41c-1.22,2.65,0.61,4.9,0.41,7.24c-6.12,2.04-11.84-1.12-17.86-0.61
		c17.31,7.46,18.28-0.98,20,5.92c-2.04,1.22-4.29-0.2-7.14,0.92c3.47,1.22,6.02,2.55,9.49,2.14c-1.4,7.92-8.26,20.73-10.51,26.53
		c-1.43,3.67-3.88,6.22-7.55,7.55c-7.25,2.64-14.4,5.25-22.24,3.88c-4.61-0.81-15.02-9.83-18.67-22.14
		c-4.65-15.68-6.74-19.22-5.1-26.12c2.6-10.95-1.43-24.67,6.22-50.4c1.19-3.99,2.14-8.16,2.14-12.55
		c15.39,3.46,26.1,12.99,36.12,9.9c6.24-1.93,7.33,4.35,13.98,1.63c-1.63,1.43-0.61,2.75-0.1,3.98c1.02,0.92,1.94-0.82,2.96,0
		c-4.18,6.63-0.41,12.86,0.61,19.28c1.73,0.61,3.16,1.94,4.69,0c-0.1-2.04-2.04-0.82-2.75-2.04c0.92-3.16-0.7-6.33-1.33-9.49
		c-1.17-5.94,5.4-9.33,11.02-10.2c5.69-0.88,9.13,9.16,2.45,13.88c-3.05,2.15-4.8,5.41-7.14,7.96c1.12,1.73,2.25,1.34,3.27,0.82
		c11.62-5.97,24.4,1.27,31.02,1.33c6.12,0.05,11.73,3.27,18.26,2.96c3.37,6.94,8.67,12.24,15.31,16.53
		c-0.82,1.84-2.14,2.55-3.16,4.08c-4.29-1.94-8.26-0.61-12.35,1.22c2.94,3.83,4.01-1.28,13.47,0.61c1.94-0.51,2.45-2.65,4.69-3.67
		c5.2,3.16,11.33,1.73,17.24,2.24c0.2,0,0.51-0.51,1.12-1.22c-2.86-2.86-7.24-3.37-10.31-6.84c5.1,1.94,9.8,3.06,14.69,2.96
		c0.31-1.94-2.04-1.94-1.63-3.88c1.63,0.41,2.75,1.84,4.39,2.04c0.71-0.82-0.1-1.22-0.1-2.04c1.84,0.71,3.37,2.45,5.61,2.65
		c0.41-2.24-1.84-2.96-2.35-4.69c0.82-0.61,1.94,0.61,3.37-0.92c0.51-0.82-0.41-2.96,1.53-4.49c-11.86-2.96-0.3-1.41,3.16-4.59
		c-2.65-1.22-5.31-0.51-7.86-1.12c2.35-1.84,5.2-0.92,7.65-2.04c-0.71-1.94-2.24-2.55-2.96-3.67c-2.65-0.82-5.1,1.94-7.65,0.31
		c0.41-1.94,2.35-0.71,2.86-2.45c-0.41-1.84-3.37-1.22-4.39-3.06c1.16-17.08,1.29-19.08-1.94-19.79c0.33-6.64-1.84-12.89-1.43-13.57
		c2.96-6.63-2.25-10.4-5.51-14.28c-2.66-3.16-6.02-6.22-9.69-8.26c-0.71-1.22,1.12-1.53,0.31-3.06c-1.02-1.12-3.16-1.73-5-3.27
		c0.2-1.94-0.51-3.57-3.16-3.67c0.61-3.06,2.35-6.12-0.92-8.57c-2.35,0.71-2.14,3.16-3.47,4.49c-4.08-3.37-5.71-2.96-7.24,2.14
		c-2.74-4.33-7.52-8.16-9.49-3.57c-0.61,1.43-1.84,2.24-3.06,1.33c-2.86-2.14-5.91-1.41-8.77-0.82
		c-16.62,3.47-20.49,10.5-21.12,10.71c-10.62,2.33-10.85,14.74-23.26,26.53c-6.79,6.45-2.06,9.9-10.51,12.35
		c-7.63,2.21-14.8,1.13-21.73-2.55c-8.06-4.28-17.05-6.1-25.71-9.08c-5.45-1.88-10.76-1.06-26.73,0.41
		c-9.2,0.84-4.95-3.67-31.22-3.67c-4.92,0-15.31,7.02-19.69,11.02c-16.59,15.15-28.89,5.6-58.57,29.9
		c-3.87,3.17-11.77,4.18-26.83,26.22c-18.63,27.27-25.53,21.94-21.94,31.53c2.01,5.36-2.7,19.04,1.33,41.94
		c1.35,7.65,1.45,15.5,4.39,22.75c2.47,6.11,4.57,12.35,6.12,18.77c2.7,11.16,13.05,24.65,13.06,24.69
		c1.18,3.81,12.05,28.29,14.18,30.71c2.19,2.49-0.44,5.33-0.2,13.06c-3.27,0.82-6.43-0.51-10.2,0.51c3.78,2.14,7.24,2.65,10.71,2.96
		c5,7.55,8.16,16.22,15.41,22.35c-2.35,0.92-4.18-0.71-6.53,0.1c3.78,2.45,7.96,1.53,11.73,2.75c2.65,6.53,1.84,12.96,0.1,19.59
		c-17.35,0.51-34.08-5-51.43-5.1c1.02,1.02,2.35,1.34,3.57,1.43c12.95,0.9,25.4,4.14,38.16,6.02c2.86,0.42,5.82,0,9.29,0.51
		c-4.18,17.55-7.24,35.1-6.94,53.86c-20.71-4.8-41.43-4.69-62.75-8.26c8.53,7.58,39.45,4.35,63.06,11.22
		c3.67,27.04,2.95,21.56,10.71,46.32c12.34,39.36,9.07,76.22,9.8,77.85c1.33,0.31,2.86,0.82,3.67,2.24
		c4.78-3.78,0.67-11.01,7.65-10.82c23.94,0.65,17.6,1.63,21.53,12.45c1.53,0.71,3.06-0.71,4.9-0.2c1.53,5.1,4.18,10.1,1.94,16.12
		c-1.63,4.39-0.7,8.67,1.22,12.96c1.64,3.67,2.07,7.85,3.47,11.73c6.69,18.53,3.28,24.7,4.9,26.32c7.88-1.07-4.34-35.7-6.73-39.39
		c-1.25-1.92,0-4.59-0.2-7.35c41.94-15.1,83.87-30,127.34-41.22c-0.82-4.8-0.2-9.59-2.55-14.08c-0.92,4.29,0.41,8.37,0.41,13.16
		c-42.34,9.9-82.85,25.81-124.07,39.9c-2.23-2.23,3.51-3.36-1.84-13.47c-3.93-7.43,1.81-12.36-5-17.65c15-4.8,30.1-7.14,43.67-14.28
		c-14.08,5.1-28.77,7.75-43.57,12.35c1.86-12.71-7.43-17.32-2.14-43.98c2.13-10.72,4.14-21.43,5.1-32.34
		c0.59-6.63,3.69-12.65,5.41-18.98c3.16-11.64,3.11-6.76,7.55-5.71c6.02,1.42,9.3,5.7,12.45,10.71
		c7.22,11.51,11.99,75.22,15.82,76.12c1.12-2.45,0.56-5.11,0.2-7.55c-11.52-79.37-10.96-75.45-32.34-83.46
		c0.51-13.77-2.86-26.73-7.04-39.9c5.59,4.59,27.59,10.82,34.79-9.59c0.4-1.13,0.82-2.14,1.33-3.37c4.69,0.82,9.18-0.41,13.98-1.12
		c-0.51,9.39,0.31,18.37,1.94,27.24c3.89,21.22,3.6,42.75,5.1,64.18c5.62,80.35,4.86,52.28,0.61,59.18c1.63,1.84,3.67,0.2,5.51,1.02
		c1.33-3.47-0.2-6.73-0.1-10.41c9.18-2.96,18.16-6.63,27.96-7.75c3.06,4.69,5.71,10.11,12.86,9.18c5.51-0.71,11.33-0.51,14.08-6.63
		c2.35,0.41,4.29,1.63,6.53,1.02c-1.12-2.24-3.67-1.94-5.41-3.78c2.65-9.08,2.75-18.67,2.55-28.57c3.43-0.16,3.03,4.48,10.82,1.02
		c2.65,2.75,5.8,3.33,9.29,1.73c3.42-1.56,6.45,4.59,12.86-2.04c2.45,0.92,4.59,2.45,7.14,0.2c2.55,8.16,4.59,16.02,8.88,22.96
		c-2.35,5.61-5.92,10.61-6.12,17.14c-2.45,2.55-6.19,4.4-7.14,8.26c-1.25,5.07-7.15,10.38-7.45,11.63
		c0.88,4.67,17.33,17.43,37.04,16.73c18.42-0.65,66.89,24.66,96.32,12.75C880.43,542.61,882.34,539.42,880.02,531.69z M732.99,77.24
		c0.92-0.1,1.12-1.02,2.14-0.51C734.82,77.85,734.31,78.26,732.99,77.24z M816.35,64.28c1.02,2.14,2.04,4.08,1.53,6.73
		C816.25,68.77,815.43,66.73,816.35,64.28z M814.82,45.61c-0.1,2.14,0.51,3.57-0.1,5C814.31,49.18,811.86,48.06,814.82,45.61z
		 M812.78,85.91c0.41,0.41,0.82,0.71,1.33,1.02C813.08,87.44,812.68,87.14,812.78,85.91z M812.57,99.18
		c-5.71-1.02-6.02-1.22-8.37-5.41C806.96,96.42,809.92,97.44,812.57,99.18z M804.41,66.93c0.41,0.71,0.92,1.33,0.82,2.55
		C804,68.67,803.49,67.95,804.41,66.93z M802.27,32.65c0.71,0.92,1.73,1.73,1.33,3.57c-0.71-1.33-1.33-2.35-1.84-3.27
		C801.96,32.45,802.17,32.45,802.27,32.65z M798.08,71.12c-0.61-0.1-0.82-0.51-0.82-1.33C798.59,70,798.39,70.51,798.08,71.12z
		 M796.96,41.83c0.82,0.71,1.43,1.33,1.02,2.55C796.76,43.87,796.66,43.06,796.96,41.83z M796.35,57.45
		c1.22,1.33,1.33,2.65,1.12,4.39C795.84,60.4,796.04,59.08,796.35,57.45z M796.35,86.52c-1.22-1.22-2.14-2.35-2.55-3.47
		C795.65,80.46,796.71,84.5,796.35,86.52z M793.19,34.28c1.84,1.63,1.22,2.65,0,3.67C792.88,36.73,792.88,35.61,793.19,34.28z
		 M789.62,61.63c2.14,0.31,1.43,1.53,1.43,2.75C789.92,63.67,789.41,62.85,789.62,61.63z M790.94,97.03
		c-1.84-1.12-3.37-2.65-4.39-4.59C787.88,93.97,790.33,94.69,790.94,97.03z M779,61.32c0.61,1.22,0.2,2.35,0,3.47
		C775.72,65.78,776.02,60.78,779,61.32z M776.35,40.3c-0.1-0.71-0.41-1.33,0.31-1.94C776.76,38.98,777.37,39.69,776.35,40.3z
		 M778.49,72.04c0.31-1.22,0.31-2.55,2.04-3.98C780.43,70.4,779.41,71.22,778.49,72.04z M784.82,53.16c0.1,1.33,0,2.24-1.02,3.06
		C783.39,54.89,784.21,53.98,784.82,53.16z M783.09,15.71c-1.12,1.33-1.73,3.37-4.39,3.37C778.39,15.31,781.15,16.12,783.09,15.71z
		 M778.8,21.22c-0.51,2.55-1.53,4.9-3.16,6.94C775.64,25.41,776.86,23.16,778.8,21.22z M775.23,78.77c2.24,0.2,1.53,1.53,1.22,2.96
		C774.82,81.01,774,80.3,775.23,78.77z M774.41,45.3c-0.2,4.39-0.2,4.39-2.86,6.84C772.27,49.79,772.88,47.96,774.41,45.3z
		 M767.17,41.53c0.1-2.04,1.53-3.67,1.63-5.61C769.82,38.26,768.39,39.9,767.17,41.53z M767.17,20.51c0,0.71-0.2,1.33-0.92,0.71
		C766.56,20.92,766.86,20.71,767.17,20.51z M768.9,28.88c-0.71,1.63,0.1,3.47-2.45,4.49C766.05,31.12,765.33,29.18,768.9,28.88z
		 M763.7,55.71c-0.31,2.24,0,4.59-2.45,6.73C759.82,58.87,761.76,57.24,763.7,55.71z M755.74,79.08c3.67-1.63,3.67-1.63,4.59,0.92
		C758.8,79.69,757.27,79.38,755.74,79.08z M759.52,52.75c-0.41,1.22-0.41,2.35-1.84,2.86C757.68,54.18,758.39,53.57,759.52,52.75z
		 M756.05,49.49c0.51,1.22-0.1,1.53-0.82,1.94C754.72,50.4,755.13,49.89,756.05,49.49z M750.74,42.14c3.27,0.61,2.75,3.67,4.08,5.31
		C752.88,46.32,750.95,45.1,750.74,42.14z M754.41,7.86c-2.14,1.63-3.98,4.08-8.06,3.16C749.41,9.49,751.76,8.26,754.41,7.86z
		 M746.35,67.85c-0.61,0.51-1.12,0.82-1.63-0.1C745.44,66.73,745.95,66.93,746.35,67.85z M744.41,33.06
		c0.31,1.02,0.2,1.94-0.31,3.16C744.11,34.9,743.6,33.98,744.41,33.06z M742.58,29.9c-0.82,0-1.33-0.41-1.43-1.33
		C741.66,28.98,742.88,28.77,742.58,29.9z M738.5,18.88c0.71,0.71,0.92,1.43,0.31,2.35C737.48,20.2,737.48,20.2,738.5,18.88z
		 M730.64,44.08c0.61,0.61,1.33,1.02,0.71,1.73C730.44,45.81,730.44,45.2,730.64,44.08z M725.23,36.83c0.71,0.2,1.12,0.61,0.71,1.63
		C724.82,38.06,724.52,37.65,725.23,36.83z M725.23,58.36c-0.31,0.41-0.71,0.51-1.84,0C724.42,58.26,724.82,57.75,725.23,58.36z
		 M717.17,51.32c-0.61,0.61-1.22,1.12-2.55,0.92C714.91,49.09,716.94,49.26,717.17,51.32z M778.6,264.06
		c6.63,5.1,15.19,6.25,22.35,10.41c4.91,2.85,10.97,1.52,17.96,16.02c6.89,14.29-1.32,13.31,3.57,27.24
		c1.42,4.04-2.53,16.4-2.24,24.49c1.89,53.85-6.01,55.11-10,88.97c-1.96,16.63-2.75,33.26-3.98,50.3
		c-13.66,5.85-5.54,3.62-15.71-10.41c2.04,4.18,3.57,8.57,4.49,13.37c-4.29,0.82-8.67,1.33-13.67,0.31c8.18-6.61,6.46-16.95,8.37-20
		c2.04-3.27,1.43-6.94,2.65-10.61c-1.94,0.61-1.22,2.45-2.55,3.06c-0.1-14.18-1.58-28.05-4.8-41.73
		c-10.16-43.17-23.51-26.51-25.61-30.71c-5.2-31.19,8.87-42.85,5.92-50.71c1.22-0.82,1.33,1.63,2.65,0.71
		c-0.22-7.13-5.59-4.56-11.73-8.37c1.53-7.45,2.55-15,2.75-22.65c6.97,1.04,18.77,7.73,25.3,0c-8.77,0.82-17.14-0.31-25.51-2.86
		c-2.22-20-9.42-26.37,13.26-38.67C774,263.15,776.66,262.74,778.6,264.06z M808.19,484.46c-0.92,0.41-1.63,0.71-2.24,0
		C806.66,483.03,807.27,483.74,808.19,484.46z M782.98,428.24c3.98,4.29,4.59,8.98,1.84,13.37
		C782.47,437.22,782.37,433.03,782.98,428.24z M782.68,442.42c-5.61,0.82-6.39,0.7-7.35-2.45c-1.08-3.58-1.84-7.35-0.92-11.22
		C784.26,426.29,777.35,428.51,782.68,442.42z M783.8,426.91c-2-5.74-3.05-23.95-14.39-36.83c-1.43,0.1-2.55,0.31-2.75,1.73
		c0.71,1.02,1.43-0.51,2.04,0.2c6.73,10.2,11.94,20.92,12.24,33.26c-3.78,2.45-6.12-0.41-8.67-1.73c-7.78,2.8-1.3,30.15,5.41,23.67
		c0.21-0.2,0.1-0.71,0.2-1.33c-1.22-0.1-2.45,0.41-3.78-0.61c-5.01-8.41-3.89-24.22,0-18.77c-0.92,1.33-2.22,2.45-2.14,4.39
		c0.82,19.48,8.5,11.79,11.43,14.18c1.22,11.22-0.61,22.24-3.16,33.16c-1.22,0.82-2.24-0.41-3.16,0c0.26,0.78,2.2,2.04,3.98,2.04
		c4.9-12.04,5.1-24.79,5.41-37.65c1.86,10.24,1.41,27.69-2.86,36.22c-11.78,23.57-33.15-65.72-19.28-88.87
		C773.09,375.32,787.5,424.8,783.8,426.91z M779.51,487.31c2.93,1.73,3.02,1.02,16.84,1.02c-1.87,2.18-3.82,1.74-12.14,4.9
		c-7.41,2.81-10.62-2.88-13.57-6.63C773.8,485.58,776.63,485.62,779.51,487.31z M757.27,386.81c-8.16,1.32-6.85,11.49-10.51,14.59
		c-2.55-12.24-3.19-24.39-0.1-36.53c11.02-43.23,5.68-36.23,17.14-32.96C763.34,343.08,748.79,352.9,757.27,386.81z M743.9,439.26
		c0.41-3.78-2.04-8.37,3.47-10.71c0.41,3.37,0.71,6.43,1.02,9.49C747.17,439.15,746.25,440.68,743.9,439.26z M748.8,444.66
		c-0.31-1.84-2.65-1.94-0.71-4.18C749.11,441.5,749.31,442.52,748.8,444.66z M757.99,252.02c3.78,2.86,8.16,4.29,11.53,7.96
		C751.77,271.28,753.13,284.56,757.99,252.02z M731.15,130.5c6.33,3.27,12.35,2.35,18.47-0.92c1.53,6.63,1.48,12.8,6.53,17.24
		c4.95,4.36,3.67,13.01,5.2,21.94c1.53,8.94-1.2,19.19-4.69,27.65c-4.69,11.36-1.99,16.76-1.22,22.75
		c3.7,28.87-5.5,28.87-2.24,66.63c1.1,12.76,2.14,25.2-0.82,37.75s-4.58,25.41-8.77,37.65c-5.24,15.28-4.54,23-1.43,33.57
		c1.68,5.7,0.2,12.24,4.49,17.24c0.3,0.3,0.2,0.17,0.2,13.57c-5.2,4.49-12.75,6.33-16.43,4.08c-3.06,2.55-6.63,1.63-10,1.84
		c-0.41-2.75,3.37-5.2-0.41-8.57c0.92,3.78-1.43,6.02-1.12,9.18c-2.86,0.31-5.51,0.51-8.37,0.82c-0.45-12.02-4.61-15.78-2.55-22.14
		c4.81-14.9,1.95-41.34,0.82-46.22c-0.39-2.71,1.01,0.74-1.22-20.92c-1.82-17.68-4.19-10.05,2.14-42.55
		c1.73-8.88,5.31-17.96-0.71-26.63c-0.2-0.2-0.1-0.71-0.2-1.12c-6.73-43.52,6.37-64.73-1.12-73.16c1.02-2.24,3.98-2.45,4.49-4.8
		c-0.61-1.43-1.84,0.31-2.45-0.92c0.2-2.75,0.7-5.31,2.35-7.75c3.88-5.76,5.44-18.76,10-26.53
		C730.38,146.03,729.7,131.42,731.15,130.5z M741.25,438.75c-1.22,0-1.84,1.02-2.96,0.31c-0.31-2.65-1.33-5.1-4.29-6.22
		C746.88,430.77,738.78,432.7,741.25,438.75z M705.85,357.63c-7.35,3.06-13.47,7.45-21.33,8.26c5.61-8.77,9.18-18.98,18.77-24.79
		C704.11,346.61,705.03,352.02,705.85,357.63z M656.87,220.09c-1.95,2.2-3.93,1.25-4.18-1.02c5.35-6.37,9.6-1.89,18.06-8.16
		c8.75-6.49,23.21-3.48,35.3-10.61c1.97,13.82,1.92,7.96,0.1,18.98c-2.88,17.5-1.7,16.06-2.96,18.16c-13.6-1.89-14.08-2.03-15-3.57
		c-2.38-4.02-6.12-4.9-10.82-4.29c0.61-1.84,1.14-3.26,1.53-4.8C682.04,212.55,665.29,210.62,656.87,220.09z M652.79,44.18
		c8.06,0.98,10.37-0.37,9.18,6.94c-1.22,7.48-8.11,27.13-6.84,50.3c0.35,6.38-1.65,2.2-1.53,6.73
		c0.78,30.48,11.08,54.91,41.63,52.96c9.29-0.59,17.07-4.48,20.92-14.28c3.08-7.85,5.92-15.61,7.65-23.77
		c1.73,1.63,3.37,3.06,5.1,4.59c-2.35,7.35-3.84,14.81-6.12,22.14c-2.71,8.69-7.82,16.33-9.8,25.3c-1.6,7.25-6.94,13.37-6.33,21.33
		c0,5.07-28.16,1.33-28.26,1.33c5.61,2.14,11.33,3.06,17.24,2.55c-3.79,3.57-17.65,1.06-27.04,7.55c-3.56,2.46-7.15,4.84-11.73,5.2
		c-1.12,0.09-2.03,0.62-2.86,1.33c-3.75,3.23-9.26,0.72-8.16,6.43c-2.55,2.04-5.2,1.94-7.96,0.92c1.33-1.02,3.57,0.2,4.69-2.04
		c-8.06,1.29-31.79,3.67-39.9,2.65c-26.58-3.33-49.44-12.27-55.71-10.51c17.55,4.08,35,9.18,53.87,11.43
		c-8.06,1.43-15.61,1.33-23.16,3.27c1.94,1.12,3.57-0.1,5.1,0.61c-3.49,5.08,8.1,0.92,13.47,2.45c-6.63,0.92-13.36,3.86-19.69-1.53
		c-4.61-3.92-27.08,1.59-40.92-15.61c10.45-41.22-7.1-4.58,19.28-64.08c2.93-6.6,9.72-4.92,22.14-21.02
		c5.41,6.02,12.35,2.65,18.57,3.37C597.33,123.97,652.79,125.2,652.79,44.18z M650.34,223.96c0,1.12-0.82,1.02-1.53,1.12
		C648.91,224.27,649.42,224.07,650.34,223.96z M637.79,229.68c-1.02-0.71-1.12-1.53-1.02-2.75
		C644.7,226.11,658.84,222.08,637.79,229.68z M634.22,222.33c-1.64,0-1.43,0.04-1.43-0.1C634.34,222.23,634.32,222.33,634.22,222.33
		z M609.02,224.68c-2.96,1.53-6.03,4.13-8.88,3.47c-3.69-0.86-7.65-0.51-11.43-1.94C595.65,226.01,602.18,224.37,609.02,224.68z
		 M535.55,212.54c-2.45-1.12-3.3-3.15-2.86-5.82c0.36-2.13,0.55-4.37,1.22-6.53C544.07,167.75,534.3,208.46,535.55,212.54z
		 M528.21,193.05c4.83-20.43,0.67-32.52,2.24-41.73c7.14-0.61,14.28-1.73,21.02-4.49c-8.06,20.41-18.47,39.49-22.96,61.02
		C528.71,202.45,527,198.15,528.21,193.05z M593.4,126.01c-4.8,1.43-9.18,1.22-13.57-0.82c13.5-14.19,12.74-14.73,15.82-13.47
		C592.18,116.01,592.79,120.91,593.4,126.01z M533.61,305.49c-0.23,3.26,0.41,6.33,0.41,10.41c-10.46-8.9-14.41-12.88-15.82-28.37
		c-1.43,0.51-0.51,2.04-1.94,2.24c-0.51-3.67-0.71-7.14,0.41-11.02c5.51,2.55,10.92,4.19,16.73,3.06c26.31-5.13,17.01-9.35,40-4.49
		C550.34,283.27,535.12,283.78,533.61,305.49z M585.45,521.6c-1.22,0.41-2.24,0.71-3.78,1.12c0.92-2.24-0.31-4.29,0.2-6.33
		C585.68,514.81,585.21,517.83,585.45,521.6z M592.79,397.42c1.85,14.44-6.39,17.95-9.08,45.81c-2.09,21.63-11.25,29.11-0.82,67.65
		c0.9,5.38-4.66-4.36-26.63-1.84c-1.02-2.65-0.41-5.41-2.14-7.75c-2.68,6.69,1.07,9.51-2.45,10.82
		c-5.83-70.45-15.83-86.62-17.65-96.73c-9.02-50.17,3.4-59.73,4.69-85.1c0.09-1.74,0.2-3.37,1.12-5.2c0.71,1.63-0.1,3.06,1.73,3.98
		c-0.31-3.27-0.13-6.37-2.24-9.9c-2.47-4.13-4.56-9.62-2.35-15c0.83-2-0.59-11.81,12.14-16.84c4.9-1.93,10-3.06,14.9-5.1
		c21.85-9.13,41.65,8.44,31.94,29.28c-8.62,18.49-2.72,15.87-9.18,37.55c-2.04,6.84-2.65,14.28,0.41,21.02
		C591.16,378.85,591.6,388.13,592.79,397.42z M585.45,278.25c0.41-0.82,0.82-1.63,1.33-2.55
		C590.86,280.7,586.59,280.15,585.45,278.25z M589.22,359.87c-0.19-3.37-0.59-6.83,0.71-10.1c5.65-14.12,0.4-29.18,9.59-36.83
		c-1.66,13.61,6.06,14.67,16.84,50.71C610.47,371.01,589.53,365.49,589.22,359.87z M599.12,289.27c0.23-1.15,1.55,0.79,0.92,1.73
		C599.73,290.29,599.42,289.78,599.12,289.27z M618.4,359.57c-9.94-27.23-9.79-19.39-10.41-24.08c-0.53-3.99-2.11-7.56-3.67-11.22
		c-5.09-11.96,0.47-17.48-0.41-27.86c22.67,15.74,2,0.6-1.43-4.49c10.7,4.1,21.47,6.32,10.82,2.14c-10.46-4.1-12.05-3.86-13.06-7.75
		c8.46,1.39,17.27,6.99,18.37,7.14c0-0.89-0.93-1.21-1.23-1.21c-11.22-10.4-16.72-3.99-26.72-11.23c-0.99-4.3,2.06,0.74-8.06-16.12
		c-3.9-6.49-15.19-5.76-23.98-11.53c0.88,5.07,13.14,7.3,16.63,8.16c4.75,1.18,3.51,0.58,10.82,12.96
		c-7.47-2.03-23.47-13.28-30.51-9.9c10.41,1.84,19.28,7.24,28.88,11.43c-0.61,0.92-1.43,1.53-2.04,1.43
		c-31.25-7.13-27.36-3.48-34.69-1.43c-27.41,7.65-31.47,3.8-42.65-22.65c-3.46-8.18-27.65-51.3-26.63-80.81
		c0.01-0.19-0.42-31.73-1.53-34.69c-3.04-8.11,7.9-9.42,16.02-22.86c24.67-40.84,65.67-50.55,83.36-58.16
		c0.61,0.51-0.71,1.53,1.12,1.53c2.19-6.58,16.62-15.04,25-16.53c12.54-2.23,22.54,4.24,43.57,2.86c1.43-0.09,2.86-0.71,4.29,0.1
		c0,21.72-11.52,61.27-31.43,71.22c-7.35,3.67-15.31,5.61-22.86,9.18c-0.79-4.55,2.26-13.12,4.53-16.43
		c-1.51-0.09-3.12,0.29-4.22-1.12c4.3,0,3.89,1.41,4.29,1.02c1.53-0.51,3.78,0.41,5.1-2.55c-6.43-1.22-12.14-4.39-19.18-5.61
		c1.94,3.27,5,3.88,7.14,5.82c-33.2,31.02-26.28,33-62.95,42.55c-2.86-2.96,2.96-6.33-0.82-9.18c-2.86,4.29-3.06,9.18-3.06,13.67
		c0,55.37-8.73,45.14,5,78.06c1.92,4.6,4.39,9.08,4.08,14.49c6.33,3.67,12.55,1.94,19.08-0.51c-0.31,1.94-2.24,2.65-1.12,4.8
		c0.92-2.65,4.29-2.24,4.39-5c1.12-1.02,2.65,0,3.88-1.12c-0.71-2.04-2.44-2.13-3.88-1.53c-3.25,1.36-6.73,1.35-10,2.35
		c-3.77,1.15-7.24,0.41-11.12-0.51c1.94-14.16-13.52-27.4-5.71-29.59c2.04,2.45,5.01,3.76,7.24,6.02
		c5.23,5.28,12.65,5.61,18.88,8.57c1.55,1.04,15.97-1.74,19.69,4.08c0.52,0.81,1.43,1.12,2.35,1.22
		c12.74,1.43,21.17,11.9,26.02,9.59c3.38-1.61,7.15-1.71,10.71-2.55c2.96-0.7,5.82,0.31,9.29,0.61c-1.84-3.88-4.49-4.38-7.45-4.08
		c-5.1,0.52-10.2,1.02-14.9,3.27c-3.57-2.96-8.37-2.86-11.94-5.31c0.82-2.04,2.66-0.81,3.88-1.33c8.59-3.63,17.25-7.19,26.43-9.08
		c3.39-0.7,12.99-0.21,12.75,5c-3.18,2.55-7.77,0.79-6.84,3.95c-0.79-0.27-1.67-0.27-2.55,0.03c1.39,2.09,0.47-0.33,8.37-0.82
		c26.11-1.59,24.11-19.09,40.51-15.61c4.9,5-1.22,10,0.2,15.41c5.61-3.57,9.53-1.27,13.16,2.55c2.12,2.23,3.72,2.28,15.71,4.49
		c-1.33,8.26-1.12,16.33,0.61,24.79c-11.02,0.51-21.73,0.92-31.73,1.33c10.2-0.1,21.12,1.43,32.34,0.82
		c2.27,9.27,7.42,17.1,6.33,18.57c-2.05,2.75-1.73,6.22-3.06,9.39c-5.54-0.17-30.19-5.4-38.06-3.37c12.45,1.73,24.9,3.57,37.34,6.33
		c-0.92,3.78-1.73,7.04-2.65,10.82c-15.92-1.63-31.53-5.41-47.45-4.9c5.96,1.19,40.63,6.88,47.04,7.45
		c-0.31,8.77-0.1,17.45-1.22,26.32c-9.59,6.22-15.51,15.51-19.9,26.43c-3.88-4.49-7.75-7.97-11.94-11.22
		c-7.46-5.79-7.74-10.8-9.8-12.65c-24.17-21.82-25.43-25.91-30.1-14.59C626.15,337.2,622.03,354.94,618.4,359.57z M601.36,303.04
		c0-2.65,0-4.9,0-7.14C602.59,298.14,603,300.39,601.36,303.04z M626.77,349.98c0.71-8.88,6.22-25.61,9.29-28.37
		c2.7,2.07-3.34-2.99,21.33,20.3c-0.1,0.31-0.1,0.61-0.2,0.92C646.56,343.04,637.59,350.18,626.77,349.98z M651.87,490.68
		c0.59-19.51-7.01-113.29-9.39-139.79c5.31-3.57,11.02-4.59,16.84-5.92c10.08,13.68,13.7,13.18,21.73,22.45
		c3.51,3.51,20.97-3.23,24.69-7.24c5.36,42.92,1.05,39.14-1.02,52.96c-4.89-9.78-7.37-22.95-20.51-20.2
		c-8.64,1.81-12.19,2.05-14.28,17.14c-2.82,20.38,0.01,47.98,10,72.95C670.44,485.17,661.16,487.01,651.87,490.68z M683.5,485.07
		c-8.86-15.83-12.77-41.59-12.55-61.83c0.29-26.6,6.49-27.65,14.9-28.57c-11.2,16.39-5.54,75.31,11.63,96.32
		C689.93,492.52,687,491.33,683.5,485.07z M701.25,490.07c-20.7-5.17-25.63-109.61-7.96-93.77c6.81,6.11,12.41,25.74,13.06,36.63
		c-3.47,1.73-7.65,0.41-11.02,2.04c-2.55,6.22-1.12,13.77,3.47,18.06c3.37,0,6.84-1.33,10.51-0.41
		C710.31,461.28,710.33,488.56,701.25,490.07z M709.52,449.77c-3.78,0.82-7.24,1.12-10.92,0.92c-2.75-4.49-2.55-9.29-2.24-14.39
		c7.24-0.71,14.08-1.33,21.02-2.04c0,2.55,0,4.49,0,6.84C710.63,438.07,710.03,447.63,709.52,449.77z M712.38,453.13
		c1.12-3.37-2.35-7.96,2.55-10.51c5.04,0.72,1.4,4.75,6.43,12.55C716.76,456.7,716.05,456.6,712.38,453.13z M723.29,455.28
		c-4.45-6.46-3.78-13.57-3.57-20.61c12.91-4.01,1.44,7.35,11.53,22.24C726.87,458.34,725.25,458.12,723.29,455.28z M731.25,453.34
		c-3.05-5.01-2.35-10.41-2.35-15.71c0-1.33,0.71-2.55,2.14-3.37c1.33,0.51,2.75,1.12,4.59,1.84c0.2,2.24,2.09,4.2,1.53,6.02
		c-2.07,6.78,4.75,9.14,5.82,13.67C738.5,458.85,733.92,457.72,731.25,453.34z M747.88,456.19c-2.75-0.73-9.18-8.67-9.29-11.43
		c-0.1-2.75,2.46-5.11,4.49-3.67c6.36,4.5,6.55,4.21,8.37,14.18C749.01,456.5,749.01,456.49,747.88,456.19z M763.39,387.73
		c-10.69,17.81-4.3,78.59,12.75,95.91c-9.8,0.92-11.63-0.1-15.61-8.06C749.73,453.97,739.48,385.17,763.39,387.73z M872.98,543.53
		c-23.8,8.81-54.1-3.47-59.49-3.88c-14.69-1.1-16.25-6.79-23.57-7.35c-30.91-2.35-33.89-4.47-45.1-13.06
		c-3.15-1.89,2.2-3.85,4.49-10.61c2.84-8.4,8.47-7.37,8.47-12.24c0-5,2.96-8.98,4.29-13.98c2.14,2.35,4.18,3.67,6.43,4.49
		c0.41,7.45,9.07,13.24,15.71,10.41c5.81-2.47,12.29-3.32,17.35-7.45c1.89-1.54,7.07-1.5,8.98-3.27c-0.37-1.84,0.86-9.12,1.53-10.1
		c5.82,6.43,5.82,6.43,8.26,15.41c-1.84,3.37-6.94,2.96-8.67,6.94c1.73,1.33,3.58,1.36,5.41,1.02c3.07-0.56,4.69-3.16,6.33-5.51
		c7.6,3.8-3.82,3.34-5.51,8.67c4.9,1.73,7.86-1.84,12.04-4.18c0.1,5.2-5.92,6.33-5.71,10.31c2.12,3.81,7.35-3.73,9.29-5.51
		c1.02,1.12,2.35,1.73,2.75,3.16c-0.82,2.45-3.98,3.78-2.96,7.04c3.78,1.33,4.18-2.86,6.63-4.18c0.92,2.35-2.86,3.78-0.61,5.92
		c2.45,0.92,2.96-1.94,4.49-2.65c2.24,1.33-0.92,4.49,1.94,5.31c1.43-0.1,0.61-2.04,2.24-2.24c0.2,0.82-0.2,2.03,0.92,2.65
		c0.72,0.4,1.63-0.2,2.24,0c4.9,1.94,10,3.47,14.49,6.33c11.13,7.07,11.33-1.53,11.84,11.53
		C878.18,541.7,877.97,541.69,872.98,543.53z"/>
	<path d="M429.33,527.92c-21.14-9.24-22.22-10.38-33.98-20.81c-18.11-16.08-19.82-15.28-20.61-20.1
		c-1.54-9.42-11.45-11.07-10.31-24.59c6.05-71.23,13.85-65,13.37-92.85c-0.49-28.27-2.67-30.98,0.51-39.39
		c3.81-10.07-3.02-16.02-0.1-25.71c2.07-6.89-5.46-17.92-10.2-23.37c-5.16-5.92-32.05-16.68-35.2-18.06
		c-6.33-2.77-17.43-12.91-21.02-10.71c2.55,4.49,8.47,4.9,11.22,8.98c-0.09,0.1-23.15,19.13-45.92,54.38
		c-14.04,21.74-24.12,16.09-40.81,50.3c-5.41-7.14-13.78-10.71-18.26-18.26c-6.12-10.3-16.1-16.86-24.28-25.1
		c-9.46-9.52-13.25,23.62-21.33,38.67c-4.38-12.69-4.67-13.25-5.61-14.59c-4.59-6.56-5.99-14.5-8.98-21.84
		c-2.12-5.21-2.55-10.71-1.02-16.33c3.36-12.32-4.29-13.81,8.67-5.51c1.51-1.51-5.22-4.27-9.29-9.69c4.8,1.63,9.39,3.47,14.39,3.88
		c-5.41-3.47-12.86-3.27-17.45-9.59c6.41,0.51,12.79,4.61,18.57,6.73c-5.51-4.9-11.94-7.75-19.28-8.06c-1.43,0.31-3.06,0-4.29-1.63
		c-5.08-1.85-1.58-2.44-5-7.65c-4.42-6.73-5.06-14.22-18.57-16.94c-3.98-0.8-7.55-2.65-11.22-4.18c2.97,7.19,18.6,4.98,22.24,12.14
		c2.66,5.24,8.06,11.16,7.65,13.88c-5.57-0.93-1.78-2.67-2.24-3.88c-1.28-3.35-25.1-12.75-30.92-11.84c4.59,2.45,9.9,2.75,14.59,5
		c4.69,2.24,8.98,5.41,14.39,6.33c-1.22,2.04-2.55,2.23-4.29,1.53c-6.42-2.58-14.49-2.29-14.49-2.65
		c-3.14-2.51-6.77-0.08-12.04-1.84c-0.61,1.63-2.05,2.11-3.57,2.55c-5.24,1.52-10.4,3.51-15.82,4.9c-6.62,1.69-16.47-2.42-19.9-8.37
		c-4.34-7.52-8.6-15.09-11.12-23.37c-2.14-7.03-7.69-10.66-12.35-24.9c-8.23-25.17-12.87-32.1-12.45-47.14
		c0.01-0.48-0.52-35.39-1.63-38.67c-2.73-8.04,8.64-9.7,16.43-23.16c15.46-26.73,50.3-46.24,61.12-49.18
		c7.55-2.05,14.39-5.82,21.84-8.47c0.31,2.14-2.24,2.65-2.65,5.2c9.9-10.49,4.97-9.32,22.14-18.06c13.03-6.63,32.86,2.89,49.89,0.61
		c1.43-0.19,2.86-0.41,4.69,0.1c-0.1,6.63-0.79,13.37-2.45,19.79c-13.52,52.22-25.55,50.12-51.94,60.91
		c-0.2-6.02,1.73-10.82,4.39-15.92c-1.02-0.82-3.06-0.1-4.39-1.73c2.65-0.56,7.42,2.64,9.59-0.61c-2.24-1.84-15.71-5.92-18.47-5.61
		c1.84,2.35,4.49,3.27,6.94,4.9c-28.91,24.04-21.45,32.39-63.36,42.45c-0.31-1.53-1.49-2.71,0.2-4.49c1.05-1.1,0.92-3.16-0.61-4.9
		c-1.43,1.84-2.22,3.98-2.24,5.71c-0.83,61.43-10.01,57.8,8.37,96.83c0.62,1.32-0.82,2.24-0.1,3.78c6.12,3.67,12.55,1.94,19.39-0.71
		c-0.51,1.84-2.14,2.55-1.94,4.59c1.63-1.84,4.39-1.94,4.8-4.9c1.22-0.2,2.45-0.31,3.88-0.51c-2.31-5.38-8.93,1.94-20.92,0.82
		c-1.32-0.12-2.65-0.1-3.98-1.22c1.82-13.95-12.91-24.78-6.33-29.28c29.06,24.91,39.14,9.02,46.22,18.57
		c2.08,2.81,5.31,0.01,11.63,4.18c2.65,1.75,6.15,2.2,8.47,3.98c8.76,6.72,15.97-3.44,27.45,0.71c-0.61-3.16-1.94-4.3-5.51-4.18
		c-5.41,0.18-10.82,0.71-15.92,3.27c-3.47-2.96-8.26-3.06-12.65-5.71c8.81-2.68,40.84-17.81,43.77-5.51
		c-1.43,1.73-3.56,1.56-5.41,2.14c-8.51,2.68,10.93,2.05,18.98-2.04c8.68-4.41,12.27-12.21,21.73-12.04
		c1.84,4.49,6.02,8.16,3.27,13.88c4.49,2.24,5.31,6.84,7.55,10.82c-5.63,3.52-12.15,4.87-16.73,9.31c3.93-0.98,3.37-1.53,16.63-7.06
		c4.39,6.12,4.49,14.08,9.49,20.41c-3.57,0.31-6.12,0.41-8.67,0.61c3.16,1.63,6.53,0.71,9.8,1.43c3.51,5.52,6.04,12.9,19.59,22.86
		c1.76,1.29,4.73,6.49,9.18,4.8c7.51-2.87,17.42-2.78,21.22-8.98c7.09-11.54,15.63-13.62,13.88-30.3c-0.97-9.24,3.57-8.3,4.08-24.08
		c0.63-19.54-4.82-22.11-0.31-30.71c5.65-10.75,8.15-22.24,6.53-34.39c-0.52-3.88-0.05-7.87-1.02-11.84
		c-3.05-12.56-12.13-11.64-11.53-20.2c0.16-2.34-0.86-4.72-2.75-3.78c0.82,5,0.07,10.34,4.59,14.28c3.65,3.19,5.11,7.65,5.41,12.35
		c0.84,13.09,3.7,15.29-1.33,33.47c-14.5-19.81-26.71-7.88-43.06,10.51c-1.63-0.61-0.92-2.45-2.04-3.27
		c-8.5-3.78-2.8-9.59,1.73-18.67c1.53-0.61,2.86,1.33,4.39,0c0.51-2.75-2.55-2.45-3.57-4.18c7.42-25.99,9.18-13.32,14.08-45.2
		c3.9,2.84,13,2.28,13.98,1.43c3.05-2.66,7.55-0.71,10.41-3.78c3.27,0.92,5.2-1.12,7.45-3.06c-0.71-0.31-1.12-0.71-1.33-0.61
		c-8.56,3.69-13.31-5.16-16.84-1.63c1.84,2.86,5.31,2.55,7.86,4.59c-2.65,1.02-5.53-1.45-7.55,0.71
		c-5.73,6.16-22.17-5.4-28.37-23.67c-1.12,2.65,0.51,4.9,0.51,7.14c-6.12,2.35-11.84-1.33-17.86-0.51c15.1,7.15,18.59-1,19.79,5.61
		c-1.94,1.33-4.08,0-6.53,0.82c2.86,2.04,5.92,2.35,9.08,2.75c-1.63,8.31-8.16,19.89-10.31,25.71
		c-3.05,8.29-14.29,10.71-16.94,10.71c0.51-5.92,3.57-12.25-3.16-16.84c-5.1-3.47-9.69-7.55-16.73-3.98
		c0.82-3.06,2.75-5.1,2.45-7.96c-4.8,3.88-4.69,11.63-11.53,14.08c-2.27-2.84-4.36-12.48-7.65-22.45c-1.11-3.37-0.72-6.53-0.1-9.9
		c1.53-8.37,0.31-16.83,1.53-25.2c4.18-28.72,6.62-28.11,6.84-37.55c15.26,1.48,24.39,14.96,39.18,8.77
		c3.57,2.96,7.35,3.88,11.94,2.45c-1.06,2.27-2.77-0.11-1.12,4.29c1.12,0.61,1.84-0.71,2.96-0.1c-4.29,6.53-0.51,12.86,0.51,19.28
		c1.73,0.92,3.27,1.84,4.8,0.1c-0.41-1.73-1.94-0.82-2.86-1.84c1.79-6.57-7.28-12.9,4.69-18.16c12.32-5.41,13.69,8.38,7.24,12.45
		c-2.94,1.86-4.49,5.1-6.84,7.35c0.51,2.14,1.75,1.87,3.06,1.22c12.34-6.08,22.27,1.48,49.38,4.49c2.24,3.06,4.01,6.4,6.63,9.29
		c2.58,2.83,6.12,4.49,8.88,7.55c-1.02,1.12-2.04,2.14-3.16,3.47c-4.29-1.53-8.26-0.61-12.35,1.43c2.22,3.88,4.98-1.17,13.37,0.71
		c2.04-0.51,2.65-2.86,4.8-3.78c5.61,3.16,11.84,2.35,18.06,1.33c-2.75-2.86-6.63-3.57-9.8-6.94c5.1,1.94,9.69,2.65,14.39,2.75
		c0.61-1.84-1.73-1.94-1.63-3.88c2.96,2.45,6.73,0.61,9.9,2.96c0.41-2.35-1.63-2.96-1.94-4.49c0.61-1.02,2.04,0.2,2.96-1.33
		c0.1-1.22,0.2-2.96,1.33-4.49c-1.73-0.71-3.78-0.1-4.9-2.24c2.65-0.71,5.82,0.1,8.16-2.55c-2.86-0.92-5.51-0.31-8.37-0.71
		c2.45-2.04,5.71-0.82,8.26-2.55c-1.12-1.22-2.04-2.24-2.86-3.27c-2.55-1.22-5.1,1.84-7.86-0.2c0.71-1.22,2.75-0.51,2.96-2.14
		c-0.92-1.84-3.27-1.43-4.39-2.96c-0.2-6.84,2.35-13.88-1.94-21.94c0.1-2.2-1.54-11.6-1.53-11.63c2.82-7.22-2.86-11.02-6.73-15.2
		c-2.55-2.75-5.41-5.41-8.57-7.35c-0.31-1.12,1.22-1.53,0.51-2.96c-1.33-0.92-3.06-1.94-5-3.16c0-1.94-0.61-3.88-3.27-3.88
		c1.43-5.71,1.43-5.71-1.12-8.37c-2.24,0.61-2.04,3.16-3.47,4.39c-3.98-3.47-5.51-3.16-7.24,1.94c-8.58-12.16-8.95,0.53-12.04-1.94
		c-3.57-2.86-7.45-1.44-11.02-0.61c-14.96,3.47-18.7,10.06-19.18,10.31c-10.61,2.44-10.81,14.52-22.96,26.22
		c-7.22,6.96-2.53,10.21-10.41,12.45c-16.94,4.81-19.46-4.72-51.73-12.14c-9.39-2.16-17.11,3.51-34.49-1.02
		c-33.88-8.82-32.76,13.84-62.44,20.92c-17.91,4.27-34.9,17.96-44.28,24.39c-12.42,8.51-17.82,22.83-32.96,38.67
		c-5.24,5.48-9.9,6.29-7.14,12.86c2.19,5.23-2.3,20.22,1.53,41.94c1.37,7.75,1.52,15.72,4.49,23.16c2.44,6.12,4.5,12.34,6.12,18.77
		c3.29,13.04,12.63,22.82,13.16,24.59c0.9,2.98,11.89,28.62,15.1,32.04c-0.41,3.98-1.33,7.86-1.33,11.94
		c-3.06,1.02-6.02-0.82-9.59,0.41c3.37,2.24,6.53,2.65,10,2.75c5.1,7.45,8.16,16.12,15.51,22.55c-2.35,0-4.29,0-6.22,0
		c3.47,2.24,7.55,1.84,11.53,2.86c2.45,6.22,1.94,12.65,0.2,19.39c-9.26,0.52-21.84-1.06-24.28-1.84
		c-8.77-2.78-18.06-1.53-27.04-3.57c0,2.43,10.71,2.99,12.86,3.06c11.14,0.36,21.56,5.57,38.06,5.1
		c-12.35,50.89-2.61,55.01-10.61,53.47c-24.74-4.78-45.88-4.67-56.63-7.55c-0.61-0.2-1.33-0.31-2.04,1.02
		c20.17,6.72,20.27,2.77,56.83,8.77c7.92,1.3,4.41-3.04,7.86,17.14c4.79,28.02,13.63,32.48,17.35,80.91
		c0.23,3,2.08,17.15,0.51,21.63c-0.51,1.84-0.41,3.88,0.2,5.61c1.22,1.43,3.67,0,3.47,2.86c5.2-4.09,1.62-11.22,7.55-11.22
		c28.6,0,16.58,4.81,21.84,10.31c2.75-1.63,0.51-4.18,1.33-6.12c0.92-0.61,1.94-0.61,3.16,0.1c0.1,1.43,0.31,2.96,0.41,4.49
		c-1.22,1.94-4.29,0.71-5.31,3.16c1.73,1.53,3.57-0.1,5.41,0.2c0.92,2.75,2.04,5.61,2.75,8.47c1.41,5.65-4.38,10.2,0.51,21.22
		c2.32,5.22,2.54,11.43,5,16.63c3.25,6.85,1.84,14.08,2.86,21.22c8.71-1.34-4.37-36.61-6.22-39.49c-1.24-1.93-0.1-4.59-0.2-7.45
		c41.83-15.1,83.77-29.9,127.24-41.22c-0.82-4.8-0.2-9.59-2.45-14.08c-0.92,4.39,0.51,8.57,0.31,13.26
		c-42.34,9.9-82.85,25.81-123.97,39.79c-2.16-1.8,3.14-3.39-1.84-13.47c-3.38-6.85,1.65-13.35-5.41-17.55
		c60.23-18.35,57.63-18.47,0.51-1.94c1.33-11.99-7.34-18.84-2.35-43.87c2.12-10.62,4.17-21.12,5.1-31.94
		c0.5-5.72,7.02-25.03,8.67-27.14c2.14,1.53,4.71,2.3,7.14,3.06c13.8,4.31,14.2,25.21,24.28,85.71c2.83-0.16,1.11-7.61,0.61-10.41
		c-10.95-61.8-9.52-76.5-31.83-80.4c0.41-13.57-2.75-26.63-7.04-39.79c3.98,2.96,8.78,3.05,13.06,4.39
		c1.94,0.61,3.88-0.45,5.82-0.51c9.28-0.29,13.88-7.79,17.24-17.04c4.69,0.82,9.18-0.31,13.88-1.12
		c-1.02,19.49,4.86,38.06,5.51,57.14c1.51,44.58,4.63,80.67,5.61,87.95c1.03,7.67-2.03,3.76-3.57,5.61
		c1.73,1.94,3.88,0.61,5.82,0.92c1.22-3.37-0.1-6.53-0.2-10.1c8.88-3.27,17.96-6.33,27.35-8.57c-38.82,3.34-23.6,23.63-31.02-34.08
		c-2.06-16.02,2.66,10.34-6.53-98.97c5.1-3.57,10.92-4.59,16.73-5.82c9.86,12.94,10.79,11.1,21.84,22.14
		c4.26,4.26,14.96-2.37,19.79-3.37c2.04-0.42,1.65-2.74,3.16-3.78c8.03-5.51,15.11-12.33,23.26-17.75
		c6.13-4.07,12.04-8.57,16.84-14.49c6.73,0.31,13.26,1.73,19.69,4.29c-0.66,12.54-10.92,13.49-8.57,42.14
		c1.81,22.02,6.36,29.19,8.77,38.67c1.51,5.94,1.64,4.2,2.14,52.04c0.12,11.37-4.51,0.8-6.53,10.61c-5.29,25.69-3.59,9.05-5,21.73
		c-3.98,2.86-6.94,6.63-8.67,11.53c-1.12,3.16-3.88,5.51-6.12,8.16c2.45,6.74,20.22,18.07,36.43,16.94
		c5.61-0.39,11.43-0.1,16.73,2.14c8.85,3.73,38.06,11.49,45.3,12.24c10.86,1.13-4.25-0.15,23.26,0.82
		c6.98,0.25,21.84-4.17,19.59-13.16C433.34,531.41,433.9,529.92,429.33,527.92z M155.99,296.82c0.82,2.55,1.63,5.1,0,7.75
		C155.99,301.92,155.99,299.37,155.99,296.82z M287.71,79.89c0.31-0.92,0.82-1.43,1.84-1.53C289.75,79.89,288.94,80.1,287.71,79.89z
		 M370.97,66.53c1.02,1.84,2.04,3.78,1.53,6.53C370.97,70.81,370.05,68.87,370.97,66.53z M369.24,48.06
		c0.2,1.73,0.61,3.06,0.31,4.39C367.71,50,367.71,50,369.24,48.06z M367.09,101.32c-2.75-0.71-5.92-0.71-7.14-4.18
		C362.2,98.87,365.05,99.38,367.09,101.32z M358.73,68.77c0.82,0.82,1.33,1.53,1.02,2.75C358.83,70.91,358.42,70.3,358.73,68.77z
		 M357.4,36.22c-0.2,0.2-0.82-0.71-1.12-1.73C357.4,35,358.01,35.51,357.4,36.22z M352.71,73.16c-0.61-0.2-0.82-0.61-0.71-2.14
		C352.91,72.04,353.22,72.44,352.71,73.16z M351.58,43.67c0.92,0.92,1.33,1.63,1.33,2.86C351.28,46.02,351.18,45.1,351.58,43.67z
		 M350.97,58.98c1.12,2.04,1.33,3.47,1.22,5.41C350.56,62.75,350.67,61.32,350.97,58.98z M351.07,88.16
		c-1.33-0.82-2.04-2.04-2.96-3.88C351.58,84.18,350.36,86.83,351.07,88.16z M347.81,36.63c1.73,1.22,1.22,2.35-0.1,3.37
		C347.5,38.87,347.3,37.75,347.81,36.63z M344.14,63.77c1.02-0.2,1.42,0.1,1.53,0.71C346.21,67.47,343.97,65.63,344.14,63.77z
		 M344.95,98.36c-1.33-0.61-2.14-1.33-2.55-2.45C343.32,96.42,344.54,96.63,344.95,98.36z M330.57,65.91
		c1.22-0.92,0.51-3.06,3.06-2.45C333.93,66.85,333.62,68.21,330.57,65.91z M331.28,40.1c0.2,0.92,0.71,1.53-0.2,1.94
		C330.87,41.43,330.57,40.92,331.28,40.1z M333.52,73.57c-0.31-1.33,0.31-2.14,1.63-3.67C335.05,72.04,334.44,72.85,333.52,73.57z
		 M339.14,54.79c0.51,1.33,0.41,2.35-1.12,3.47C338.52,56.83,338.83,55.81,339.14,54.79z M337.71,17.65
		c-1.33,1.22-1.73,3.67-4.39,3.06C333.22,17.14,335.97,18.16,337.71,17.65z M334.03,23.47c-1.22,2.14-1.84,4.39-3.78,6.73
		C330.77,25.92,331.79,23.98,334.03,23.47z M329.65,80.91c2.45-0.31,1.63,1.33,1.43,2.75C329.54,83.06,328.73,82.44,329.65,80.91z
		 M329.03,47.55c0.2,2.96-0.82,4.9-2.75,6.53C327.1,52.04,327.2,49.69,329.03,47.55z M321.79,43.36c0.2-2.04,1.43-3.67,1.53-5.61
		C324.34,40.1,323.12,41.73,321.79,43.36z M323.42,30.71c-0.51,1.73,0.31,3.78-2.35,4.29C320.46,32.85,320.26,31.02,323.42,30.71z
		 M320.97,23.57c-0.31,0.71-0.71,1.12-1.53,0.92C319.65,23.77,320.06,23.37,320.97,23.57z M318.12,57.65
		c-0.1,2.24,0.2,4.69-2.45,6.53C314.55,60.71,316.48,59.18,318.12,57.65z M314.04,79.69c0.61,0.61,1.02,1.12,0.92,2.24
		C307.21,80.48,310.36,80.69,314.04,79.69z M313.22,56.02c0.31,0.82,0.1,1.43-0.92,1.53C311.69,56.53,312.51,56.32,313.22,56.02z
		 M311.18,51.02c-0.1,1.22-0.51,1.94-1.43,2.65C309.34,52.24,309.75,51.53,311.18,51.02z M305.46,43.98
		c2.96,0.92,2.65,3.88,3.98,5.61C307.61,48.26,305.36,47.24,305.46,43.98z M309.14,10.31c-2.45,0.92-4.08,3.78-7.65,2.24
		C309.96,9.02,308.71,9.45,309.14,10.31z M300.98,69.38c-0.41,0.82-0.82,1.22-1.53,0.71C299.24,68.87,299.96,68.97,300.98,69.38z
		 M299.14,35.3c0.2,0.82,0.1,1.53-0.31,2.24C298.53,36.73,298.32,35.92,299.14,35.3z M297.61,32.24c-1.22-0.31-1.63-0.92-2.24-1.63
		C296.69,30.61,297.2,31.02,297.61,32.24z M292.61,20.92c0.57-0.57,1.56,0.82,0.82,2.45C292.1,22.14,292.1,22.14,292.61,20.92z
		 M285.47,46.22c0.41,0.41,0.92,0.71,0.61,1.73C285.06,47.65,284.85,47.14,285.47,46.22z M279.65,38.57
		c0.82,0.41,1.53,0.71,1.02,1.73C279.55,40.41,279.45,39.79,279.65,38.57z M280.16,60.2c-0.41,0.2-0.82,0.51-1.94,1.12
		C278.94,60,279.34,59.49,280.16,60.2z M270.37,51.53c0.61,0.61,1.43,0.82,1.22,1.94c-0.61,0.31-1.12,1.22-2.24,0.71
		C269.14,53.06,269.75,52.34,270.37,51.53z M149.46,112.85c-2.24,5-2.55,9.9-1.33,15.1c-5.1,1.43-9.49,1.22-14.18-1.02
		C139.56,122.44,143.23,116.42,149.46,112.85z M83.03,209.58c0.2-5.26-1.53-9.45-0.31-14.59c4.65-19.55,0.77-33.73,2.35-41.63
		c7.14-0.82,14.28-1.84,20.92-4.49C98.03,169.17,87.52,188.15,83.03,209.58z M93.54,189.48c-1.43,8.47-2.75,16.33-4.18,24.39
		C86.09,210.19,88.54,196.11,93.54,189.48z M184.66,224.58c0.61,0,1.02-0.1,1.53-0.1C185.78,224.78,185.17,225.39,184.66,224.58z
		 M192.21,231.52c-3.76-4.83,4.77-2.1,9.18-4.9c0.2-0.1,0.82,0.61,1.22,0.92C199.35,229.58,195.68,230.49,192.21,231.52z
		 M202.51,227.43c0.41-0.92,1.22-0.92,2.35-1.43C204.04,227.13,203.33,227.43,202.51,227.43z M209.55,223.45
		c-4.96-0.87-1.35-6.92,9.08-6.73C215.06,218.35,212.31,221.11,209.55,223.45z M213.63,214.27c3.47-3.98,6.53-7.45,9.69-11.02
		C220.78,207.33,221.08,213.86,213.63,214.27z M309.24,240.39c-2.25,7.02-2.24,11.76-2.24,24.69c0,11.54-10.06,11.14-12.86,19.9
		c-1.81,5.68-6.25,5.79-16.84,9.08c-5.39,1.67-6.68-0.73-18.06-10.82c-3.68-3.26-5.41-7.75-7.96-11.84
		c3.27,1.22,6.43,1.84,9.69,1.12c2.14,3.37,5.41,4.59,9.39,5.61c-1.73-3.27-5.2-4.29-6.63-6.94c20.51-14.79,33.57-35,44.89-57.34
		C310.77,219.88,311.17,234.37,309.24,240.39z M293.63,232.43c-0.1,5.51-2.86,9.49-7.14,10.2
		C287.1,238.25,289.85,234.27,293.63,232.43z M283.94,242.33c-2.45-1.84-5.71-2.86-3.98-6.63c1.64-3.57,3.78-6.84,6.84-9.39
		C296.6,231.21,288.8,228.32,283.94,242.33z M309.55,191.21c7.75,5.69-11.66,39.73-13.47,41.12c-2.65-4.34,9.33-9.57,12.86-35.51
		c0.43-3.16-0.1-3.47-3.27-3.16c3.67,3.98-3.67,25.81-11.73,34.79c-6.28-2.69-2.79-4.93-5.41-7.55c-7.15-2.1-21.6,21.54-10.82,21.22
		c0-2.06-3.27-1.13-1.33-6.22c1.81-4.77,4.56-8.81,8.47-12.14c1.82-1.55,1.94-1.53,3.16,0.61c-4.18,1.22-6.42,3.47-8.98,8.98
		c-3.04,6.52-0.71,6.62,4.18,10.82c-7.04,9.39-15.51,16.84-24.9,23.26c-1.02-0.92-1.63-1.43-2.24-1.94c0.2,1.33,0.1,2.55,1.22,3.37
		c6.94-0.39,22.63-16.61,26.73-22.35c0.71-1.12,1.43-2.24,3.37-1.43c-20.49,26.29-34.78,31.86-33.67,19.39
		C256.15,237.28,299.35,183.73,309.55,191.21z M291.79,186.62c5.31-3.26,9.29-2.75,14.39,1.73c-19.75,6.02-55.01,55.19-54.79,79.89
		c-9.41-4.43-7.76-12.95-3.88-22.65C255.55,225.5,274.61,197.15,291.79,186.62z M250.26,163.25c9.18-1.84,16.82-5.31,20.51-15.1
		c2.85-7.55,5.71-15.2,7.45-23.57c2.14,1.73,3.78,3.37,4.8,4.9c-4.39,23.26-15.2,43.77-22.24,65.81c-8.82-3.45-1.68-1.64-11.73-0.1
		c-6.22,0.95-8.6,9.97-9.59,16.22c-0.38,2.38,1.59,4.09,3.47-3.98c1.42-6.1,4.18-10.71,11.02-11.63c1.07-0.24,3.26-2.7,7.04,2.65
		c-2.04,1.94-4.71,0.8-6.84,2.65c-4.73,4.14-4.69,10.2-7.75,15.61c6.12-1.22,5.19-14.74,11.73-15c8.45-0.34,7.32-2.39,9.29,1.33
		c0.49,0.93,1.02,1.84,1.12,2.86c-0.41,0.82-0.72,1.72-1.53,1.84c-6.7,0.98-7.53,10.84-9.49,13.98
		c-11.03,17.71-12.81,25.56-15.51,33.67c-5.51-14.49-10.2-28.47-18.16-41.12c0.27-8.68,5.14-13.09,6.53-17.14
		c2.66-7.72,9.36-7.65,15.31-9.08c0.91-0.22,1.84,0.2,2.45,1.12c-0.8,4.51-7.97-2.63-10.92,6.53c-2.61,8.11-6.82,9.33-5.1,12.24
		c7.7-3.48,4.64-15.72,10.82-15c3.37,0.39,6.84-1.22,10.51-0.1c-2.65-1.94-3.37-5.51-6.12-7.04c-4.18,0-7.96,3.88-12.35,0.61
		C252.38,157.77,242.35,164.84,250.26,163.25z M215.47,192.64c1.12-5.2,4.29-8.88,8.06-12.45c3.98,2.86,7.75,5.61,11.53,8.57
		c-4.49,2.86-6.84,7.14-9.49,11.33C222,197.74,218.53,195.6,215.47,192.64z M233.53,184.99c-3.47-2.45-6.63-4.69-9.69-6.84
		c-6.02,3.27-9.8,9.39-9.8,15.82c2.65,2.04,5.51,4.08,8.77,6.53c-5.87,7.58-16.15,19.17-24.79,23.06
		c-25.39,11.41,15.9-68.2,42.96-78.57C255.48,139.43,244.23,168.21,233.53,184.99z M226.08,141.93c6.22-4.7,10.41-4.9,17.04,0.2
		c-20.04,5.62-55.62,55.57-54.89,80.2c-7.53-5.32-9.08-7.59-5.41-18.77C190.15,181.21,208.93,154.9,226.08,141.93z M211.8,72.44
		c-3.23,12.36-1.58,25.09-3.67,37.55c-1.81,10.78,4.41,29.65,8.47,37.14c-14.21,14.21-27,32.69-34.79,52.34
		c-1.42,3.58-6.51,5.77-5.71,8.47c1.22,1.73,2.04-0.61,2.96,0.31c0.51,1.43-1.53,1.43-1.12,2.45c0.2,5.1,2.24,9.29,7.14,12.14
		c-24.01,8.73-77.83-11.44-83.06-8.98c73.56,17.84,54.18,8.32,30.3,14.9c27.52,0.26,43.05-6.26,22.14,1.84
		c-2.75-2.55-6.12-1.35-9.08-1.63c-6.83-0.66-7.14-0.41-8.57,2.35c5,1.12,9.8-0.92,14.59,0c-6.84,1.02-13.67,4.39-20.1-1.33
		c-2.31-2.31-18.87-2.41-18.98-2.45c-8.07-2.72-15.82-5.82-22.04-12.45c9.17-52.89-1.08-13.54,19.18-65.2
		c3.23-7,3.24-0.55,20.3-18.26c0.41-0.92,0.92-2.04,1.73-2.35c5.41,5.51,12.24,2.55,18.47,3.06c0-0.82,0.61-1.43,1.53-1.84
		c3.06-1.12,6.02-2.67,9.18-3.57c48.64-13.85,45.3-78.92,47.04-80.5C218.14,46.05,218.78,45.73,211.8,72.44z M153.13,289.47
		c0.61,0.61,1.43,0.92,0.82,1.84C153.43,290.9,153.03,290.59,153.13,289.47z M88.64,317.73c-10-6.94-15.41-16.12-15.71-27.96
		c-1.43,0.2-0.71,1.63-1.94,1.84c-0.51-3.57-0.61-7.04,0.41-10.82c18.52,8.96,30.67-4.29,48.77-4.29c0.5,1.99,3.66,2.05,9.08,2.75
		C99.73,287.11,87.01,285.1,88.64,317.73z M142.62,375.28c4.08,9.09,2.83,14.84,4.69,25.92c1.61,9.54-4.61,17.49-6.43,27.75
		c-12.25,69.28-9.33,52.55-3.27,86.22c-9.08-4.39-17.86-5-26.83-4.08c-1.12-2.65-0.31-5.41-2.04-7.45
		c-2.24,3.16,0.2,7.45-2.35,11.12c-1.38-4.61-0.53-22.4-5.1-44.28c-11.27-53.92-9.34-36.96-12.86-53.67
		c-3.65-17.34-4.22-46.51-0.82-56.22c3.25-9.29,5.13-18.78,5.61-28.57c0.08-1.53,0.2-3.06,1.22-4.49c0.71,1.43-0.2,3.16,1.73,4.39
		c0.61-3.37-0.51-6.02-0.71-8.77c-0.2-1.43-1.43-0.31-1.94-0.92c-3.95-15.8-3.91-2.66-1.43-19.9c1.85-12.85,12.79-12.19,28.37-18.37
		c10.87-4.31,27.45-0.64,31.02,11.94c4.48,15.78-6.72,20.96-6.84,37.65C144.55,348.79,134.83,357.94,142.62,375.28z M157.92,369.98
		c-2.76-1.92-13.04-2.61-14.08-8.37c-1.97-10.93,2.34-4.91,4.18-30.81c0.41-5.82,0.61-11.22,5.92-15.61
		c0.44,17.18,3.26,7.42,17.04,50.1C168.29,368.65,162.8,367.6,157.92,369.98z M180.98,351.71c4.9-15.84,5.49-26.95,10.2-28.26
		c1.22,3.37,5.92,3.98,6.02,8.26c2.35,0.31,11.84,8.57,14.69,12.96C190.66,349.25,190.14,352.82,180.98,351.71z M245.37,366.51
		c-1.93,1.13-3.98,1.94-6.33,1.22c1.17-5.46,3.27-2.82,4.8-8.06c2.88-9.91,26.96-30.63,28.98-32.65c7.24,1.22,14.69,1.22,22.55,2.75
		C289.51,335.04,255.8,360.41,245.37,366.51z M313.73,388.44c-4.45-25.49,4.27-41.41,6.53-49.69c0.39-1.43,1.63-1.33,2.35-2.14
		c-0.82-1.63-0.41-3.98-2.45-4.69c-20.35-7.08-5.06-3.12-44.79-8.37c8.6-14.09,35.51-50.14,50.81-59.49
		c2.35,0.82,5.09,0.62,7.35,2.35c11.36,8.69,32.21,7.96,39.69,26.02c1.26,3.05,3.53,5.91,3.06,9.59
		c-0.77,6.01-0.94,12.12,0.71,18.06c1.32,4.73-2.43,16.56-2.45,21.84c-0.08,23.8,3.02,25.58-3.98,60.71
		c-10.67,53.55-5.18,29.02-9.9,81.32c-2.96,0.71-5.51,3.16-8.77,2.35c-1.94-2.96-1.63-6.53-4.49-8.57c0.51,2.96,1.33,6.02,1.94,9.08
		c-5.61-0.1-11.02,1.63-16.33-1.12c0-3.47,0-6.94-1.33-10.61c-2.14,2.86-1.02,6.22-2.14,9.29c-6.53-3.27-9.48-3.84-8.47-7.04
		c4.49-14.18,2.9-45.19,1.53-55.71C318.94,393.38,316.67,405.29,313.73,388.44z M362.81,486.19c-1.02,0.82-1.73,1.22-2.65,0.31
		C360.77,485.68,361.48,485.27,362.81,486.19z M351.28,489.76c-0.73,0.8-13.55,6.33-16.53,6.33c-4.49-0.51-9.9-6.12-10.71-11.73
		C332.61,489.86,341.48,491.91,351.28,489.76z M410.25,548.84c-29.17-0.48-33.31-6.69-42.24-7.24c-15.97-0.98-15.78-7.87-26.63-7.65
		c-7.24,0.14-14.29-2.01-21.43-2.65c-7.55-0.68-13.26-4.36-18.77-8.67c-6.32-4.93-0.54-2.34,2.45-11.43
		c2.98-9.06,9.1-8.86,8.57-12.35c-0.51-3.37,1.13-5.91,2.24-8.67c4.26-10.55,0.5-18.89,8.57,0.71c2.65,6.43,9.8,10.02,15.51,8.37
		c9.09-2.63,16.94-8.37,26.22-10.41c0.61-3.67,0.51-7.14,1.73-10.61c4.69,4.29,7.75,9.29,8.37,15.61c-1.94,3.27-7.04,2.86-8.57,6.84
		c5.2,2.45,7.55,1.43,11.73-4.69c0.92,1.02,2.04,1.53,2.24,2.86c-2.14,2.65-6.73,1.94-7.96,6.12c5.45,3.64,10.61-6.33,12.45-2.04
		c-1.53,3.27-5.92,4.59-6.12,9.29c5.1,0.51,6.43-4.08,9.49-6.33c0.92,1.02,2.14,1.73,2.55,2.86c-0.51,2.75-4.8,4.29-2.35,7.75
		c3.37-0.2,3.98-3.27,6.02-4.69c1.22,2.24-3.16,3.98-0.31,6.02c2.35,0.51,2.65-2.24,4.39-2.75c2.04,1.33-1.02,4.49,1.84,5.31
		c1.43-0.31,0.51-2.45,2.24-2.45c0.1,0.92-0.41,2.14,0.51,2.65c5.92,1.12,11.12,2.97,16.02,5.92c15.59,9.39,9.96-3.15,13.26,13.88
		C433.54,546.83,415.36,548.92,410.25,548.84z"/>
	<path d="M182.08,235.79c-0.02,0.01-0.05,0.01-0.07,0.01C182.14,235.94,182.11,235.94,182.08,235.79z"/>
	<path d="M218.33,254.06c0.35-0.3,0.21-0.16-0.1-0.1L218.33,254.06z"/>
	<path d="M556.67,593.74c11.63-1.33,22.75-6.94,35-2.75c0-0.61,0-1.22,0-1.84c-13.95-4.65-12.47-0.71-30.71,1.94
		c-3.87,0.56-7.54,2.31-11.63,1.53c-3.2-0.61,2.25,6.25-13.67-7.86c-0.1-4.08,0.96-7.75,1.63-11.43c5.25-28.9,0.33-30.62,5.92-35.3
		c2.54-2.54-1.01-3.03,5.92-13.57c0.73-0.97-0.65-3.17-3.06,0.51c-1.86,2.84-4.34,5.41-4.29,9.18c0.04,3.3-4.92,1.34-5.2,13.88
		c-0.62,27.8-8.65,36.56-1.12,41.22c16.47,10.19,29.61,7.67,41.02,8.47c5.82,0.41,11.85,0.44,17.35-2.45
		c1.54-0.81,3.98,0.61,5.41-2.55C584.73,594.35,570.75,593.94,556.67,593.74z"/>
	<path d="M111.7,595.78c28.44-5.08,11.29-4.58,34.49-3.78c-11.37-7.96-23.13,2.38-42.45,2.65c-0.92,0.01-1.02,1.22-2.65,0.82
		c-3.57-2.24-6.94-5.71-10.71-8.67c-0.1-3.98,0.91-7.55,1.53-11.12c5.08-29.2,0.37-31.15,5.92-35.61c2.61-2.1-0.93-2.99,5.92-13.57
		c0.84-1.12-0.74-3.04-2.35-0.71c-2.09,3.03-4.9,5.61-4.9,9.69c0,3.86-5.31,1.97-5.31,14.69c0,25.96-8.76,36.08-1.22,40.81
		c16.97,10.65,30.44,7.85,43.26,8.88c9.99,0.8,11.34-2,17.35-2.75c1.33,0,2.55-0.2,2.96-2.35
		C139.46,596.08,125.58,595.98,111.7,595.78z"/>
	<path d="M569.22,536.09c-4.59,1.22-9.49,1.12-14.39,2.96c1.53,2.55,3.78,1.73,5.61,2.14c-1.43,1.33-3.88,0.71-4.8,2.75
		c3.27,2.96,20,1.94,25.51-1.63c0.69-2.23-4.6-0.79,2.45-2.96c2.12-1.06-1.96-2.07-0.92-5.2c1.42-4.26-26.68-3.62-30.71,0.41
		C550.45,536.6,550.67,536.09,569.22,536.09z"/>
	<path d="M105.89,537.92c48.73,0-15.51,1.37,9.39,5.1c-1.53,1.63-4.49,0.61-5,3.06c3.78,2.75,20.92,1.33,25.51-2.04
		c0.2-0.92-1.33-0.92-1.02-1.94c1.22-0.61,2.65-0.1,3.98-1.33c-1.02-1.53-2.24-3.16-1.53-5
		C130.88,531.39,109.66,532.72,105.89,537.92z"/>
	<path d="M142.62,261c-0.05-0.29-0.78-2.45-0.82-2.55c18.87,2.87,14.19-0.1,11.63-0.1c-4.39,0-8.57-2.55-13.16-1.12
		c-0.51,0.2-1.22-0.42-1.73-0.71c-19.97-11.49-10.25-3.63-19.28-10.2c-1.84,0-1.33,2.24-2.86,2.14c1.73,7.27,20.47,8.6,22.75,15.41
		c3.57,10.66,10.05,13.39,8.26,19.08c-0.1,0.41,0.51,1.12,0.61,1.63c1.84-2.04,2.13-4.89,0.51-7.45c-3.74-5.91-2.18-2.56-4.69-13.67
		c11.02,4.59,21.12,10.31,32.24,13.88C164.96,272.12,155.78,263.25,142.62,261z M118.84,249.68c4.9,0.61,8.57,3.57,12.45,6.12
		C127.01,253.96,122.62,252.53,118.84,249.68z M135.68,257.74c3.78,0.61,3.78,0.61,4.8,3.16
		C139.46,259.57,137.93,258.76,135.68,257.74z"/>
	<path d="M138.33,250.09c-0.1-1.63-0.81-2.66-1.84-3.27c-6.51-3.81-8.08-18.82-21.12-10.41c-9.39-1.22-17.24-6.22-26.12-9.59
		c-0.1,1.84,2.04,3.27,0.71,5.41C123.83,241.52,135.86,252.56,138.33,250.09z M128.13,241.62c-3.27-1.22-5.92-2.24-8.67-3.27
		C122.62,238.15,125.89,237.94,128.13,241.62z"/>
	<path d="M137.11,550.27c-8.26-6.28-39.54,2.55-15.1,2.55c-3.98,1.43-7.86,0.51-10.82,4.08c7.26,4.12,38.99-4.83,19.08-3.88
		C132.31,551.8,135.17,552.62,137.11,550.27z"/>
	<path d="M582.39,548.33c-4.39-3.47-20.71-2.75-24.39,1.22c2.24,2.55,5.41,0.82,8.47,1.73c-3.47,1.22-7.45,0-9.49,3.37
		c1.19,4.18,20.02-1.16,22.04-1.02c3.62,0.26,3.83-4.27-0.41-2.86c-1.12,0.1-2.04,0.92-3.27,0.1c1.22-0.51,2.24-0.31,3.27-0.1
		C579.53,549.45,581.77,550.27,582.39,548.33z"/>
	<path d="M242.51,311.61c10.71,1.53,21.33,5,32.85,3.47C228.07,304.96,174.57,301.91,242.51,311.61z"/>
	<path d="M171.7,254.37c1.72-5.55-3.53-6.29-9.29-5.51c-21.74,2.93-20.45,0.13-22.04,2.96C150.68,256.21,161.49,251.82,171.7,254.37
		z"/>
	<path d="M283.83,74.69c4.9-1.12,6.86-4.39,5.31-8.98c-1.11-3.27-3.98-2.86-6.53-2.96c-0.46,2.29-6.51,1.21-6.94,7.35
		c1.94-0.1,2.65-1.63,3.88-2.35c1.02,0.51,0.61,1.63,1.12,2.24c-0.61,1.33-1.94-0.2-2.86,0.92c0.71,2.14,1.22,4.49-0.2,7.04
		C281.08,78.36,283.43,78.06,283.83,74.69z M286.79,68.87c-1.33-1.12-2.24-1.94-3.27-2.86C286.49,65.2,286.49,65.2,286.79,68.87z
		 M286.18,71.53c-1.33,0.31-2.65,1.22-4.39-0.41C283.63,71.12,284.85,70.61,286.18,71.53z"/>
	<path d="M729.21,72.75c4.8-1.12,6.46-4.17,5.31-8.88c-1.24-5.04-11.67-3.14-13.37,4.29c2.04-0.41,2.75-2.04,4.18-2.96
		c1.19,5.95-1.1,1.58-2.24,3.88c1.02,2.04,0.92,4.29,0,6.73C726.25,76.63,728.4,75.81,729.21,72.75z M732.37,67.14
		c-1.33-1.22-2.45-2.14-3.67-3.27C732.07,62.65,732.48,64.38,732.37,67.14z M731.66,68.87c0,1.13,1.14,0.47-3.78,1.22
		C727.89,68.94,726.75,69.25,731.66,68.87z"/>
	<path d="M33.54,146.72c-0.71,3.47,0.01,6.53,0.2,9.59c0.92,14.72,7.91,17.63,8.26,22.14c2.57,32.86,5.51,6.83,0.51-3.88
		C32.66,153.47,37.2,149.24,33.54,146.72z"/>
	<path d="M110.07,532.92c18.43-2.6,22.14,0.51,25.71-1.02c-0.2-2.65-1.94-3.29-3.57-3.47c-8.15-0.92-16.33-0.41-24.18,1.94
		C106.56,530.67,106.19,533.47,110.07,532.92z"/>
	<path d="M581.06,529.56c-0.35-6.57-21.85-2.89-28.16-1.02c-1.19,1.19,0.04,2.42,1.12,2.24
		C588.86,528.32,577.13,532.18,581.06,529.56z"/>
	<path d="M224.35,294.37c15.41,1.02,30.2,6.63,45.3,4.69C266.28,297.02,229.14,292.74,224.35,294.37z"/>
	<path d="M135.58,559.35c-3.57-2.04-14.08-1.12-17.75,1.53c2.75,3.67,6.53,1.22,9.8,1.73c-0.82,0.82-2.35,0.31-2.75,1.63
		c3.06,2.04,5.82,1.73,9.18-1.22c-0.09-0.77-0.46-0.82-3.57-0.82C132.72,561.08,134.46,560.88,135.58,559.35z"/>
	<path d="M580.65,557.62c-2.65-2.55-13.26-1.84-17.45,1.33c1.84,3.06,4.8,1.63,7.45,2.04c0.82,0.71-1.43,0.92-0.51,1.73
		c3.98,1.43,6.02,1.12,9.18-1.63c-0.31-1.53-1.63-0.71-2.45-1.02c-0.96,0.84-4.92,0,0,0C577.79,558.74,579.94,559.25,580.65,557.62z
		"/>
	<path d="M226.59,236c-10.41,11.12-24.08,17.86-35.61,27.65C203.74,255.7,217.82,249.37,226.59,236z"/>
	<path d="M325.57,110.2c1.22-0.31,1.94,0.41,2.96,0.71c12.9,2.15-8.85-5.68-15.71-9.8c-1.12,0.71-1.32,1.83-0.82,2.24
		C316.15,106.79,317.91,112.15,325.57,110.2z"/>
	<path d="M769.82,108.46c4.93-0.72,5.61,2.33,7.96,0.41c-6.12-4.18-13.37-6.12-19.49-9.69c-1.12,0.71-1.33,1.73-0.82,2.14
		C761.05,104.69,764.11,109.3,769.82,108.46z"/>
	<path d="M322.3,128.66c5.03,2.63,9.87-10.26,12.45-15.31c-3.67,0.61-2.26,3-8.98,11.22c-3.04,3.72-5.75,0.59-13.06-4.29
		C311.09,122.8,313.26,123.94,322.3,128.66z"/>
	<path d="M179.66,247.94c-1.94,10.51,4.59,17.35,10.2,24.59C186.09,264.47,178.94,257.94,179.66,247.94z"/>
	<path d="M171.29,65.3c5.82-0.41,11.02-2.24,14.69-6.94c-0.31-0.51-0.61-0.92-0.92-1.43C180.78,60.3,175.88,62.55,171.29,65.3z"/>
	<path d="M51.09,216.52c-1.73-5.61-1.84-11.73-4.69-16.94C46.09,206.01,48.03,212.94,51.09,216.52z"/>
	<path d="M93.13,108.77c5.82-1.22,8.88-6.22,13.37-9.49c-0.31-0.31-0.61-0.71-0.92-1.02C90.4,109.56,92.31,107.54,93.13,108.77z"/>
	<path d="M238.63,77.65c2.35,6.53,5.51,12.96,3.98,20.3C245.37,94.38,243.22,82.85,238.63,77.65z"/>
	<path d="M193.43,59.69c1.82-4.03-3.34-10.4-8.37-7.65c0.41,2.65,2.55,1.63,3.88,2.35C190.57,56.32,192,57.96,193.43,59.69z"/>
	<path d="M684.21,75.51c1.6,5.8,4.6,11.36,4.59,17.57C689.2,86.86,688.85,80.76,684.21,75.51z"/>
	<path d="M688.81,93.08c-0.05,0.91-0.12,1.82-0.2,2.73C688.74,94.88,688.81,93.97,688.81,93.08z"/>
	<path d="M670.64,140.19c2.65-3.88,5.51-7.55,6.53-12.45C674.22,129.07,670.75,135.6,670.64,140.19z"/>
	<path d="M186.9,511.29c-5.61,0.31-10.41,2.86-15.51,4.69C176.8,515.27,181.9,513.33,186.9,511.29z"/>
	<path d="M631.67,509.66c-5.31,0-9.9,2.65-14.79,4.29C622.08,513.54,626.77,511.39,631.67,509.66z"/>
	<path d="M172.82,231.82c-0.63,1.52-1.63,3.27,0.82,5.31c1.12-2.86,2.04-5.2,3.06-7.96C174.25,228.86,173.42,230.39,172.82,231.82z"
		/>
	<path d="M155.68,519.35c-4.39,0.51-8.37,2.24-12.55,3.47C144.11,525.52,153.14,520.74,155.68,519.35z"/>
	<path d="M122.82,73.87c2.35-2.35,3.06-5.51,4.18-8.47C124.15,67.44,122.11,69.89,122.82,73.87z"/>
	<path d="M589.22,521.5c4.08,0,7.55-1.94,11.12-3.88C596.47,518.23,592.59,519.35,589.22,521.5z"/>
	<path d="M266.69,94.18c-1.02,3.37-4.18,5.1-6.63,7.65C264.04,101.83,267,98.36,266.69,94.18z"/>
	<path d="M311.17,154.65c-1.12-3.46-2.13-6.86-7.03-7.72C306.05,150.37,309.93,151.57,311.17,154.65z"/>
	<path d="M666.36,107.24c-0.11,1.55,1.16,2.52,1.3,2.38c2.4,4.79,3.92,5.64,6.76,6.5C672.88,112.09,670.64,112.13,666.36,107.24z"/>
	<path d="M301.59,142.75c0.51-3.47-1.02-4.69-6.94-5.71C296.38,140.19,300.06,139.89,301.59,142.75z"/>
	<path d="M228.23,117.85c-0.41-3.67-3.88-4.59-6.02-6.73C223.53,113.97,225.06,116.62,228.23,117.85z"/>
	<path d="M202.92,270.8c4.49,0,8.37-1.43,11.84-4.08C210.78,268.04,206.8,269.27,202.92,270.8z"/>
	<path d="M712.17,92.24c-1.02,3.47-4.18,5-6.53,7.65C709.42,99.89,712.48,96.32,712.17,92.24z"/>
	<path d="M193.33,248.45c2.96-0.31,5-2.35,7.55-3.78C196.9,244.47,195.57,245.09,193.33,248.45z"/>
	<path d="M268.63,489.97c-2.04-1.84-4.08-3.06-7.55-2.86C263.43,490.07,265.88,490.48,268.63,489.97z"/>
	<path d="M66.91,314.98c2.35,1.84,5.41,0.82,8.06,1.53C72.73,313.96,69.77,314.67,66.91,314.98z"/>
	<path d="M190.17,304.67c-1.43,2.96-2.35,6.02-0.82,9.08C190.17,310.8,189.55,307.73,190.17,304.67z"/>
	<path d="M695.54,110.6c-2.86,0.61-5,2.45-6.73,4.69C691.56,114.38,693.7,112.75,695.54,110.6z"/>
	<path d="M185.06,321.61c-2.55,0-5.2,0-7.75,0C179.86,323.14,182.51,324.06,185.06,321.61z"/>
	<path d="M250.06,111.83c-2.55,1.63-5,2.96-6.94,5.41C246.9,116.22,249.14,114.48,250.06,111.83z"/>
	<path d="M512.39,313.14c2.45,1.02,5.1,1.33,8.26,1.33C517.8,312.02,515.04,312.63,512.39,313.14z"/>
	<path d="M96.4,254.27c-2.14,0.51-4.39-0.31-6.63,0.41C93.23,256.82,95.27,256.72,96.4,254.27z"/>
	<path d="M192.51,279.57c0,2.96,0,5.31,0,8.26C194.25,284.88,193.84,282.53,192.51,279.57z"/>
	<path d="M62.11,247.43c-0.41-2.04-0.1-4.18-1.22-6.12C59.46,243.35,59.46,243.76,62.11,247.43z"/>
	<path d="M104.97,253.25c-3.57-0.71-6.12,0-8.67,0.92C98.95,254.68,101.6,254.78,104.97,253.25z"/>
	<path d="M91.81,109.69c-1.94-1.22-1.94-1.22-4.8,2.04C89.36,112.03,90.48,110.81,91.81,109.69z"/>
	<path d="M718.4,83.87c-2.14,0.71-2.45,2.35-2.65,4.9C717.48,87.03,718.4,85.71,718.4,83.87z"/>
	<path d="M66.91,259.98c0.51-1.73-0.1-2.86-1.53-4.59C64.26,257.94,64.97,259.06,66.91,259.98z"/>
	<path d="M270.47,90.5c1.63-1.53,2.55-2.75,3.06-5.31C270.88,86.32,270.57,87.95,270.47,90.5z"/>
	<path d="M241.49,63.06c-1.12,1.53-1.22,3.37-0.82,5.2C241.59,66.53,241.59,64.79,241.49,63.06z"/>
	<path d="M686.97,60.4c-1.22,2.45-1.33,4.08-0.92,5.71C687.07,64.59,687.07,62.95,686.97,60.4z"/>
	<path d="M82.83,114.07c-1.63-0.31-3.06-0.1-4.18,1.43C80.58,116.52,81.81,115.6,82.83,114.07z"/>
	<path d="M76.6,116.32c-2.24-0.71-2.24-0.71-5.1,1.33C73.75,117.54,75.07,116.93,76.6,116.32z"/>
	<path d="M64.56,119.99c2.24,0,3.57-0.61,5.1-1.33C67.32,118.16,67.32,118.16,64.56,119.99z"/>
	<path d="M659.93,501.09c1.53-0.1,2.96-0.51,4.18-1.53C662.69,499.66,661.26,500.07,659.93,501.09z"/>
	<path d="M140.27,102.95c-0.82-1.84-2.14-2.14-3.98-1.94C137.21,102.75,138.33,103.36,140.27,102.95z"/>
	<path d="M182.11,236.21c-1.53,0.1-2.86,0.41-4.49,1.33C179.45,237.43,181.39,238.76,182.11,236.21z"/>
	<path d="M260.57,65.71c1.84-0.71,2.35-1.94,3.37-3.16C261.69,63.06,261.69,63.06,260.57,65.71z"/>
	<path d="M278.12,182.74c0.1-1.33-0.31-2.04-1.63-2.35C275.88,181.93,276.59,182.54,278.12,182.74z"/>
	<path d="M256.28,70.2c1.53-0.31,2.04-1.43,2.75-2.65C256.69,67.24,257,69.28,256.28,70.2z"/>
	<path d="M709.11,60.2c-2.24,0.41-2.65,1.63-3.06,3.27C707.78,62.95,708.4,61.93,709.11,60.2z"/>
	<path d="M640.85,499.76c-0.92-1.02-1.94-1.33-3.47-1.33C638.3,499.97,639.32,500.07,640.85,499.76z"/>
	<path d="M239.14,121.83c-1.73,0-2.35,1.12-3.37,1.43C235.78,125.12,238.36,123.51,239.14,121.83z"/>
	<path d="M494.74,311c0.92,0.82,1.94,1.43,3.27,0.92C497.19,311.1,496.27,310.29,494.74,311z"/>
	<path d="M57.93,229.37c0.1-1.73-0.31-2.75-1.33-3.57C56.6,227.03,56.71,228.15,57.93,229.37z"/>
	<path d="M680.85,122.03c2.04,0.1,2.96-0.61,3.78-2.24C682.89,119.99,681.87,120.71,680.85,122.03z"/>
	<path d="M49.87,313.14c1.02,0.82,1.73,1.43,3.06,1.02C52.22,312.84,51.3,312.63,49.87,313.14z"/>
	<path d="M216.08,502.52c-1.33-0.51-2.14,0.51-3.57,0.92C214.35,503.74,215.27,503.33,216.08,502.52z"/>
	<path d="M36.5,141.21c-1.22,0.51-1.33,1.22-0.71,2.35C37.32,143.15,37.22,142.34,36.5,141.21z"/>
	<path d="M195.17,502.01c-0.51-1.43-1.43-1.33-2.55-1.43C193.02,502.21,194.04,502.11,195.17,502.01z"/>
	<path d="M86.3,250.19c1.43,0.51,2.04-0.31,2.75-1.22C87.62,248.55,87.01,249.37,86.3,250.19z"/>
	<path d="M128.33,98.97c-0.2-1.53-0.92-1.73-1.94-2.04C126.19,98.36,127.21,98.46,128.33,98.97z"/>
	<path d="M701.87,68.46c1.43-0.82,2.04-1.53,2.35-3.47C702.58,66.02,701.87,66.73,701.87,68.46z"/>
	<path d="M188.02,499.86c0.41,0.82,0.92,0.92,1.33,0.61C190,499.92,189.27,499.24,188.02,499.86z"/>
	<path d="M633.71,497.62c-0.1,1.22,0.71,0.82,1.33,1.12C634.93,497.31,634.32,497.62,633.71,497.62z"/>
	<path d="M169.96,306.31c-0.31-1.33-1.02-1.43-1.73-2.04C168.23,305.49,168.94,305.8,169.96,306.31z"/>
	<path d="M119.66,80.1c-1.33,0-1.22,0.71-1.33,1.63C119.76,81.73,119.87,81.12,119.66,80.1z"/>
	<path d="M215.68,255.7c1.43,0,2.24-0.41,2.86-1.22C217.51,254.27,216.59,254.68,215.68,255.7z"/>
	<path d="M92.83,260.29c-0.61-0.41-1.22-0.41-1.84-0.1C91.6,261.21,92.21,261.92,92.83,260.29z"/>
	<path d="M190.98,320.39c0.61-0.2,0.2-0.71-0.41-1.43C190.27,319.88,190.57,320.59,190.98,320.39z"/>
	<path d="M86.6,140.09c0.92-0.82,0.92-1.43,0-1.94C85.68,138.66,85.99,139.28,86.6,140.09z"/>
	<path d="M699.42,70.91c1.02-0.2,1.12-0.61,0.92-1.12C699.21,69.69,699.62,70.3,699.42,70.91z"/>
	<path d="M133.64,99.59c-0.31-0.71-0.82-1.22-1.63-1.02C131.3,99.4,132.82,100.61,133.64,99.59z"/>
	<path d="M587.18,256.41c27.75,3.54,6.96-1.84-2.65-1.53c-5.71-3.98-13.77-6.12-20.92-10.82c0.71,2.24,0.72,2.03,6.53,5.41
		c2.45,1.42,5,2.96,8.26,4.69c-3.53-0.13-8.36-3.45-11.73-4.49c-1.94-0.6-2.55-2.96-5-3.57c1.42,7.94,20.4,8.55,22.75,15.61
		c3.5,10.51,9.99,13.43,8.37,18.67c-0.1,0.71,0.31,1.33,1.73,1.73c1.02-2.65,0.89-5.18-0.71-7.14c-3.12-3.83-3.37-8.47-4.49-13.47
		c11.12,4.59,21.22,10.41,32.34,13.88c-11.22-5.31-20.61-14.28-33.47-16.43C587.89,258.25,587.59,257.53,587.18,256.41z
		 M586.16,259.88c-1.12-2.14-2.96-3.37-5.2-4.39C583.61,255.9,586.47,256.11,586.16,259.88z M586.26,259.88
		c0.82,0.92,1.22,2.04,1.53,3.78C586.57,262.23,586.57,261,586.26,259.88z"/>
	<path d="M581.06,244.17c-6.21-3.7-6.5-17.44-20.61-9.69c-9.18-1.33-17.14-6.12-25.92-9.59c-0.1,1.84,2.24,3.16,0.51,5.2
		c48.25,15.35,40.92,18.33,48.36,18.67C584.02,246.11,582.47,245.01,581.06,244.17z M564.33,236.21c7.04,0.51,7.04,0.51,9.08,3.47
		C570.35,238.45,567.28,237.33,564.33,236.21z"/>
	<path d="M610.65,251.41c2.35-0.36,4.29,1.43,6.73,0.82c1.43-2.55-0.09-3.9-2.14-4.9c-4.96-2.41-12.12,1.77-25.92,0.92
		c-1.33-0.08-2.55,0-3.67,1.53C591.35,252.86,605.04,252.27,610.65,251.41z"/>
	<path d="M480.96,148.87c-1.93-11.58-4.96,10.29,3.67,22.14c5.77,7.92,1.95,18.88,6.02,21.94c-0.31-6.84,0.32-13.17-2.24-19.28
		C485.07,165.69,481.47,157.74,480.96,148.87z"/>
	<path d="M671.97,234.07c-10.31,11.02-23.88,17.75-35.3,27.45C649.32,253.45,663.3,247.23,671.97,234.07z"/>
	<path d="M688.81,239.47c-7.86,4.29-16.43,7.04-23.77,12.35C673.2,247.94,681.97,245.6,688.81,239.47z"/>
	<path d="M631.06,55.81c-5,1.84-9.29,5-14.08,7.24C622.79,62.75,627.79,61.02,631.06,55.81z"/>
	<path d="M627.69,257.53c-2.11-3.39-1.33-7.65-3.06-11.63c-1.33,10.31,4.8,17.24,10.31,24.69
		C635.7,268.43,633.99,267.68,627.69,257.53z"/>
	<path d="M551.37,96.01c-4.69,3.47-9.08,6.73-13.77,10.1C541.67,106.63,549.73,100.61,551.37,96.01z"/>
	<path d="M496.78,215.29c-1.94-5.71-1.84-12.14-5.1-17.55C492.6,203.86,492.49,210.29,496.78,215.29z"/>
	<path d="M638.91,57.96c1.96-5.24-5.08-11.33-8.57-6.84C634.83,51.53,636.57,55.1,638.91,57.96z"/>
	<path d="M535.25,252.53c3.06,1.94,3.98,1.95,6.84,0.71c2.35-1.01,5.1-0.41,7.45-1.84C544.63,250.39,540.14,253.76,535.25,252.53z"
		/>
	<path d="M618.91,235.29c1.12-3.06,2.45-5.41,2.96-8.26C617.99,228.25,616.67,231.31,618.91,235.29z"/>
	<path d="M660.24,264.57c-4.49,1.53-8.88,2.96-13.16,4.49C651.87,268.96,656.46,267.84,660.24,264.57z"/>
	<path d="M572.49,63.26c-2.86,2.14-5.1,4.69-4.18,8.67C570.55,69.49,571.37,66.32,572.49,63.26z"/>
	<path d="M635.14,312.02c0.2-3.27,0.41-6.43,0.61-9.69C634.22,305.49,632.99,308.65,635.14,312.02z"/>
	<path d="M638.1,246.72c3.78-0.51,5.61-2.75,8.67-4.08C642.18,242.64,640.85,243.25,638.1,246.72z"/>
	<path d="M622.48,320.39c2.75,0.61,5.51,1.43,8.98-0.31C628.71,319.37,624.93,319.47,622.48,320.39z"/>
	<path d="M637.89,286c1.94-3.06,1.12-5.51,0-8.06C637.89,280.49,637.89,282.94,637.89,286z"/>
	<path d="M507.49,245.29c-0.2-1.94-0.1-4.08-1.12-6.22C504.84,241.62,504.94,241.62,507.49,245.29z"/>
	<path d="M537.59,106.42c-2.86,0.2-3.88,1.53-5.41,3.27C534.84,109.89,536.27,108.97,537.59,106.42z"/>
	<path d="M513.1,258.86c-0.51-2.14-0.71-3.57-2.24-5.31C509.53,256.31,510.96,257.23,513.1,258.86z"/>
	<path d="M510.25,118.16c2.24-0.51,3.88-0.61,5.51-1.53C513,115.91,513,115.91,510.25,118.16z"/>
	<path d="M528.31,112.03c-1.73-0.51-2.96,0.1-4.29,1.22C526.27,114.07,526.27,114.07,528.31,112.03z"/>
	<path d="M585.75,101.01c-0.92-1.84-2.14-2.04-4.39-1.94C582.79,100.71,583.92,101.32,585.75,101.01z"/>
	<path d="M516.98,115.5c2.24,0,3.47-0.41,4.69-1.33C520.04,113.05,518.92,113.97,516.98,115.5z"/>
	<path d="M501.88,223.56c-0.41,1.33,0.51,2.24,0.82,3.47c1.22-0.51,0.4-1.33,0.31-1.94C502.89,224.37,502.59,223.76,501.88,223.56z"
		/>
	<path d="M531.37,248.55c1.53,0,2.55-0.2,2.86-1.94C533,246.92,532.08,247.43,531.37,248.55z"/>
	<path d="M481.88,139.28c-1.22,0.51-1.33,1.33-0.51,2.45C482.7,140.91,482.7,140.19,481.88,139.28z"/>
	<path d="M636.36,318.55c0.82-0.61-0.1-0.92-0.2-1.33C635.54,317.84,635.75,318.24,636.36,318.55z"/>
	<path d="M571.98,95.2c0.51,1.02,0.51,1.02,1.73,1.22C573.41,95.71,572.9,95.1,571.98,95.2z"/>
	<path d="M565.04,78.06c-0.92,0.2-1.53,0.41-1.22,1.63C565.04,79.79,565.04,79.08,565.04,78.06z"/>
	<path d="M532.18,138.05c0.92-0.92,0.61-1.43,0-1.94C531.06,137.03,531.47,137.54,532.18,138.05z"/>
	<path d="M536.27,258.15c0.51,1.33,1.22,0.92,2.35,0.92C537.69,257.94,537.08,257.94,536.27,258.15z"/>
	<path d="M604.93,238.66c0.42,0.42,0.92,0.03,0.92-0.31C605.85,237.56,604.64,238.06,604.93,238.66z"/>
	<path d="M579.12,97.85c-0.41-1.02-0.82-1.53-1.84-0.92C577.59,97.85,578.1,98.16,579.12,97.85z"/>
	<path d="M575.04,60c-1.12,0-1.43,0.51-1.33,1.43C574.83,61.42,575.04,60.81,575.04,60z"/>
	<path d="M604.22,211.01c24.66,6.02-16-7.48-34.79-12.14C572.93,203.59,595.02,208.76,604.22,211.01z"/>
	<path d="M616.46,219.78c-16.73-1.53-32.45-7.14-48.67-11.33C578.71,213.97,604.93,220.09,616.46,219.78z"/>
	<path d="M593.2,167.23c-7.65-0.71-16.43,3.27-17.55,7.96C577.39,174.78,592.49,167.95,593.2,167.23z"/>
	<path d="M623.3,209.07c29.36,5.34,27.24,5.67,27.24,3.67c-8.77-3.06-18.16-3.27-27.14-5.2C623.3,208.05,623.3,208.56,623.3,209.07z
		"/>
	<path d="M573.61,133.36c-2.35,3.16-5.61,16.53-4.69,19.9C571.57,146.62,572.9,140.5,573.61,133.36z"/>
	<path d="M631.36,197.84c-5.61,1.02-9.49,4.9-9.08,9.08C626.06,204.58,628.3,200.8,631.36,197.84z"/>
	<path d="M627.38,214.58c6.02,1.63,12.04,0.92,18.06,0.51C639.52,213.46,633.4,214.68,627.38,214.58z"/>
	<path d="M604.22,148.05c-2.86-4.39-5.82-8.67-8.16-13.26C596.67,140.5,600.04,144.48,604.22,148.05z"/>
	<path d="M579.83,139.89c-3.37,1.12-3.37,3.37,0.41,8.16C580.14,145.4,579.94,142.64,579.83,139.89z"/>
	<path d="M597.69,166.32c3.16,0,6.43,1.33,9.49-1.02C596.27,165.29,597.69,164.95,597.69,166.32z"/>
	<path d="M582.49,130.91c-3.06,1.94-3.47,3.37-2.04,7.04C581.87,135.81,582.69,133.66,582.49,130.91z"/>
	<path d="M569.73,170.19c1.22-2.35,0.92-4.08,0.1-6.02C567.79,166.42,567.79,166.42,569.73,170.19z"/>
	<path d="M569.02,154.79c-1.53,2.55-0.51,4.29,0.92,6.02C570.86,158.76,571.06,156.83,569.02,154.79z"/>
	<path d="M562.28,168.87c0.2-2.24,0.71-4.49-0.51-6.53C560.04,164.68,560.96,166.72,562.28,168.87z"/>
	<path d="M660.44,157.44c-2.04,1.12-3.57,2.75-4.59,4.8C658.5,161.62,659.73,159.79,660.44,157.44z"/>
	<path d="M570.75,179.48c-2.45,0.51-3.67,1.53-4.69,4.08C568.2,182.44,569.53,181.62,570.75,179.48z"/>
	<path d="M540.55,216.52c0.92-2.24,1.33-3.67,1.02-5.92C540.04,212.43,540.04,213.97,540.55,216.52z"/>
	<path d="M582.79,158.25c1.02-1.43,0.51-2.14-1.02-3.06C581.06,156.83,581.36,157.74,582.79,158.25z"/>
	<path d="M638.5,190.4c-1.84-0.1-1.73,1.33-2.35,2.55C637.89,192.54,638.5,191.93,638.5,190.4z"/>
	<path d="M663.2,189.48c-0.61-1.33-1.33-1.94-2.65-2.35C660.85,188.66,661.56,189.38,663.2,189.48z"/>
	<path d="M580.04,151.83c-0.2,1.73,0.31,2.45,1.33,2.86C582.08,153.36,581.57,152.64,580.04,151.83z"/>
	<path d="M575.75,131.32c1,0,0.9-1.33,0.2-1.33C575.01,129.75,575.05,131.14,575.75,131.32z"/>
	<path d="M607.59,152.74c1.02-0.82,0.41-1.22-0.41-1.53C606.87,151.83,606.67,152.44,607.59,152.74z"/>
	<path d="M669.52,194.17c-0.51-1.22-1.12-1.63-2.24-2.04C667.38,193.56,667.99,194.07,669.52,194.17z"/>
	<path d="M626.87,161.32c-0.61-0.61-1.22-0.92-2.14,0C625.55,161.93,626.16,162.44,626.87,161.32z"/>
	<path d="M711.66,244.17c-1.69-6.37,3.29-12.59,1.33-23.57c-2.75,13.16-4.8,26.43-0.82,39.69
		C713.29,254.88,713.07,249.48,711.66,244.17z"/>
	<path d="M716.87,287.12c0.92,4.59,3.63,8.68,4.29,13.47c0.67,4.9,0.82,9.9,2.35,14.59C724.52,302.12,722.07,291,716.87,287.12z"/>
	<path d="M725.13,415.07c-0.59,9.38,12.21,7.42,18.06,11.63C742.43,419.64,729.01,423.57,725.13,415.07z"/>
	<path d="M718.8,368.34c1.22-7.24,1.63-14.59,1.43-21.94C718.21,350.86,718.24,363.16,718.8,368.34z"/>
	<path d="M731.56,202.13c-2.96-4.29-7.75-6.02-9.29-10.82C717.32,195.03,729.15,201.51,731.56,202.13z"/>
	<path d="M725.44,322.53c0.41,5.51-0.41,11.22,2.24,16.33C727.48,333.34,727.07,327.94,725.44,322.53z"/>
	<path d="M736.05,265.29c-2.55,1.53-4.9,3.37-6.12,6.33C732.99,271.51,734.01,270.49,736.05,265.29z"/>
	<path d="M712.27,262.13c0.1,3.67,1.33,6.02,3.37,8.16C716.05,267.23,715.03,264.78,712.27,262.13z"/>
	<path d="M715.54,396.2c2.96,0.82,5.82-0.1,8.67-0.61C721.36,395.38,718.29,394.67,715.54,396.2z"/>
	<path d="M722.07,413.85c-2.04,1.02-3.67,2.55-5,4.69c2.35,0.71,2.96-1.84,4.49-1.84C721.46,415.79,722.89,415.28,722.07,413.85z"/>
	<path d="M745.23,210.7c-1.33,2.24-0.1,3.78,0.31,5.61C747.07,213.35,747.07,213.35,745.23,210.7z"/>
	<path d="M752.99,145.91c-0.7,1.05-1.57-0.86,3.67,7.75C756.35,150.6,755.23,147.95,752.99,145.91z"/>
	<path d="M722.27,381.1c-1.73,2.14-1.73,2.14-0.61,5.2C722.78,384.57,722.27,382.93,722.27,381.1z"/>
	<path d="M715.34,399.87c-7.18,1.79,1.73,1.53,5.41-0.61C718.91,399.46,717.07,399.56,715.34,399.87z"/>
	<path d="M720.13,346.3l0.1,0.1C720.2,346.08,720.22,346.03,720.13,346.3z"/>
	<path d="M720.2,346.12c1.05-2.7,1.27-5.59,1.56-8.39C720.58,340.4,719.78,343.16,720.2,346.12z"/>
	<path d="M722.68,388.65c-1.73,2.86-1.73,2.86-0.61,5.2C722.89,392.22,722.48,390.69,722.68,388.65z"/>
	<path d="M722.89,373.95c-1.22,1.02-1.43,2.24-0.92,3.88C723.5,376.81,723.29,375.38,722.89,373.95z"/>
	<path d="M717.58,275.08c0.82-1.53-0.31-2.14-1.43-3.16C715.74,273.76,716.66,274.37,717.58,275.08z"/>
	<path d="M720.95,283.76c0.82-1.53,1.12-2.96-0.92-4.8C720.44,281.1,720.74,282.43,720.95,283.76z"/>
	<path d="M741.05,206.82c-0.41-1.22-1.12-1.73-2.86-1.73C738.91,206.41,739.62,206.92,741.05,206.82z"/>
	<path d="M721.66,416.6c0.41,1.02-1.02,1.73-0.41,2.96c1.22-0.41,1.84-1.12,2.04-2.14C722.89,416.5,722.07,416.91,721.66,416.6z"/>
	<path d="M743.7,211.11c0.2-1.33-0.1-1.84-1.12-1.73C742.07,210.39,742.68,210.7,743.7,211.11z"/>
	<path d="M721.76,337.63c0.2-0.82,0.71-1.63,0.1-2.75C721.76,336,721.76,336.92,721.76,337.63z"/>
	<path d="M735.33,204.27c0.79-1.1-0.9-1.78-1.33-0.92C734.21,204.07,734.72,204.27,735.33,204.27z"/>
	<path d="M720.74,399.16c0.61,0,1.22,0,2.75,0C721.97,398.65,721.36,398.75,720.74,399.16z"/>
	<path d="M742.78,257.13c-0.82,0-1.12,0.41-1.12,1.33C742.78,258.35,743.09,257.94,742.78,257.13z"/>
	<path d="M576.74,300.43c-1.08-1.36-0.99-3.64-3.54-4.33c-0.31,2.86,1.22,4.18,3.06,5.41c0.2-0.3,0.31-0.6,0.5-0.99
		c0,1.8,4.46,0.29-3.66,12.62c-0.4,0.61-0.92,1.22-0.61,2.04c4.18-1.02,6.12-3.57,8.47-11.02
		C578.56,300.03,575.86,296.01,576.74,300.43z"/>
	<path d="M556.37,321.2c1.02-2.65,1.14-5.03-0.92-6.02c-3.75-1.8-3.98-5.1-4.9-8.47c1.73-2.55,4.49-4.59,5.61-7.86
		c-6.33,2.45-8.67,8.88-5.41,13.88C552.49,315.39,554.22,317.94,556.37,321.2z"/>
	<path d="M578.51,407.63c-1.53,3.98-1.53,21.94-0.2,25.51c2.14-4.39-0.19-8.67,0.61-12.86C579.64,416.5,581.57,412.22,578.51,407.63
		z"/>
	<path d="M535.76,367.02c-2.14,6.63-2.14,13.26-0.92,20.1C535.76,380.38,535.55,373.65,535.76,367.02z"/>
	<path d="M550.14,343.04c2.65,4.49,3.67,10.1,8.16,13.67C556.47,351.61,554.63,346.51,550.14,343.04z"/>
	<path d="M537.39,361.3c2.04-4.08,3.06-8.37,4.49-13.06C538.71,349.67,537.08,354.67,537.39,361.3z"/>
	<path d="M578.3,392.73c-1.63,3.47-1.02,6.94,0.51,11.22C579.42,391.19,579.61,392.73,578.3,392.73z"/>
	<path d="M579.32,388.34c1.63-2.65,1.73-5.41,0.82-8.37C578.41,382.63,578.41,385.48,579.32,388.34z"/>
	<path d="M547.69,339.26c-1.22-3.27-3.98-5.51-5.92-8.26C542.08,334.98,544.73,337.22,547.69,339.26z"/>
	<path d="M568.51,355.89c1.94-1.94,3.47-4.29,5.61-6.12C570.55,350.18,569.43,352.94,568.51,355.89z"/>
	<path d="M534.84,392.73c0,2.35,0,4.69,0,6.94C536.37,397.42,536.98,395.08,534.84,392.73z"/>
	<path d="M578.81,347.22c2.35-2.35,2.75-3.06,3.27-6.33C580.14,342.43,580.14,342.43,578.81,347.22z"/>
	<path d="M536.78,417.52c0.51-2.86,0.2-5.71-1.02-8.47C535.25,412.01,537.08,414.67,536.78,417.52z"/>
	<path d="M590.85,311.82c-1.33-1.63-2.86-1.43-4.69-0.71C587.69,313.04,589.32,312.02,590.85,311.82z"/>
	<path d="M560.24,363.96c0.41-2.14-0.51-3.16-2.04-4.8C557.59,361.91,558.61,362.73,560.24,363.96z"/>
	<path d="M581.26,376.1c1.22-1.63,0.51-2.55-0.1-3.88C580.45,373.65,580.04,374.67,581.26,376.1z"/>
	<path d="M546.67,305.59c-1.73,0.51-1.63,1.63-2.55,3.06C545.96,308.04,546.37,307.12,546.67,305.59z"/>
	<path d="M550.86,361.3c0.31-1.22,0.71-2.35,0.2-3.98C549.84,358.96,550.96,360.08,550.86,361.3z"/>
	<path d="M553.31,486.7c-0.51,0.92-0.51,1.73,0.2,2.86C554.12,488.33,553.92,487.52,553.31,486.7z"/>
	<path d="M550.14,372.83c0.31-1.02,0.61-1.73,0-2.45C549.84,371.1,549.94,371.81,550.14,372.83z"/>
	<path d="M554.12,497.82c0.71-0.92,0.82-1.84,0-2.75C553.31,495.99,553.31,496.8,554.12,497.82z"/>
	<path d="M578.1,440.68c-1.12,1.02-0.71,1.94-0.51,2.96C579.12,442.62,578.3,441.7,578.1,440.68z"/>
	<path d="M577.79,450.99c-0.41,0.61-0.61,1.22,0.31,1.63C578.92,451.91,578.81,451.4,577.79,450.99z"/>
	<path d="M790.43,357.63c3.55,30.14-0.4,20.02-0.1,33.47C795.43,383.75,795.53,364.06,790.43,357.63z"/>
	<path d="M809.41,306.1c-0.1-7.45-6.22-8.06-10-11.02C798.08,298.35,800.53,301.1,809.41,306.1z"/>
	<path d="M783.39,326.1c-1.35-5.4-3.09-0.9,0.82,7.35c1.15,2.43,1.12,2.45,7.24,4.39C791.9,335.15,786.74,339.48,783.39,326.1z"/>
	<path d="M792.37,450.48c1.43-3.37,2.04-6.84,1.53-10.51C791.86,443.24,791.76,446.81,792.37,450.48z"/>
	<path d="M799.82,350.38c1.02-3.27-0.51-5.92-5.61-9.49C796.66,344.26,798.29,347.12,799.82,350.38z"/>
	<path d="M781.56,310.9c-0.1,3.37,2.65,5.2,3.88,7.86C785.23,315.59,784.21,312.84,781.56,310.9z"/>
	<path d="M798.8,287.84c-1.43,2.04-1.53,3.98-0.92,6.33C800.33,292.02,800.53,291,798.8,287.84z"/>
	<path d="M787.27,406.2c2.24-2.35,2.35-2.86,1.94-5.82C787.17,402.01,787.17,402.01,787.27,406.2z"/>
	<path d="M794.51,290.59c-1.73,2.75-1.53,5.1-2.24,7.14C794.72,296.1,795.74,294.16,794.51,290.59z"/>
	<path d="M768.39,327.73c-2.14-1.73-4.59-2.24-7.14-2.55C763.39,326.71,765.33,328.55,768.39,327.73z"/>
	<path d="M789.51,399.05c1.73-2.24,1.73-2.24,1.63-5.61C789.51,395.38,788.6,396.91,789.51,399.05z"/>
	<path d="M788.7,345.08c0.2,2.35,0.71,3.67,1.84,5C791.15,347.94,791.15,347.94,788.7,345.08z"/>
	<path d="M819.1,322.53c-0.92,1.43-0.92,2.55,0.1,3.98C820.02,325.08,820.02,323.96,819.1,322.53z"/>
	<path d="M818.7,329.06c-1.53,1.94-1.43,3.16,0,4.8C819.41,332.12,819.21,330.79,818.7,329.06z"/>
	<path d="M793.9,435.99c1.12-0.61,1.33-1.43,0.92-2.86C793.29,433.95,793.6,434.87,793.9,435.99z"/>
	<path d="M796.45,425.18c-0.31,0.41-0.41,0.92,0,1.53C797.42,426.06,797.36,425.18,796.45,425.18z"/>
	<path d="M791.15,298.96c-1.12,0.31-1.94,0.41-2.24,1.33C789.72,300.39,790.33,299.98,791.15,298.96z"/>
	<path d="M789,300.39c-0.82-0.1-1.53,0.2-2.24,1.33C787.88,301.41,788.6,301.2,789,300.39z"/>
	<path d="M633.5,331.81c2.24-0.31,3.98-0.2,5.51-2.04C636.77,329.67,635.24,329.98,633.5,331.81z"/>
	<path d="M345.16,359.67c2.14,10.92,2.04,21.73-0.31,32.65C349.95,387.12,350.26,365.79,345.16,359.67z"/>
	<path d="M339.54,305.8c-7.86,0.82-15.1-0.71-22.45-1.22C312.72,304.57,329.03,314.31,339.54,305.8z"/>
	<path d="M363.32,307.73c1.33-4.08,0.82-4.59-9.18-10.51C352.5,300.29,353.93,301.92,363.32,307.73z"/>
	<path d="M338.01,328.86c-1.96-7.15-2.69-1.15,0.51,6.43c1.6,3.79,5.61,3.27,8.37,5.71C345.54,335.93,341.57,341.83,338.01,328.86z"
		/>
	<path d="M347.09,452.21c1.22-3.27,2.04-6.63,1.94-10.31C346.79,443.64,346.28,446.4,347.09,452.21z"/>
	<path d="M348.83,293.04c-1.73,2.75-1.22,6.33-3.78,8.37C349.34,298.55,350.26,296.82,348.83,293.04z"/>
	<path d="M336.08,312.94c-0.1,3.37,2.75,5.2,3.98,7.96C339.85,317.63,338.93,314.77,336.08,312.94z"/>
	<path d="M344.65,466.3c1.43-3.37,1.22-6.53,2.04-9.8C344.65,459.15,344.14,461.6,344.65,466.3z"/>
	<path d="M353.42,289.88c-1.33,2.04-1.53,4.08-0.82,6.33C354.95,293.96,355.16,292.94,353.42,289.88z"/>
	<path d="M315.77,327.02c2.04,2.04,4.49,3.16,7.35,2.96C321.08,327.94,318.42,327.53,315.77,327.02z"/>
	<path d="M341.89,408.24c1.63-1.63,2.75-3.47,2.04-6.02C341.07,403.65,342.1,406.2,341.89,408.24z"/>
	<path d="M350.56,345.08c1.33,2.35,2.65,4.69,3.88,7.04C355.16,348.65,353.42,346.51,350.56,345.08z"/>
	<path d="M344.03,401.4c1.94-1.94,2.24-3.47,1.63-5.61C343.73,397.22,343.52,398.75,344.03,401.4z"/>
	<path d="M345.56,352.12c0.71-2.35-0.61-3.37-2.35-5.2C343.52,349.26,343.73,350.89,345.56,352.12z"/>
	<path d="M373.62,324.26c-0.82,1.84-0.92,2.96,0.2,4.29C374.64,327.12,374.75,325.9,373.62,324.26z"/>
	<path d="M373.32,331.1c-1.63,1.94-1.43,3.16-0.1,4.8C374.03,334.16,373.73,332.94,373.32,331.1z"/>
	<path d="M331.99,466.09c0.61-1.43,0.71-2.45-0.71-3.47C330.67,463.95,330.57,465.07,331.99,466.09z"/>
	<path d="M330.16,457.11c0,0.71,0.2,1.33,1.12,1.53C332.58,455.52,329.58,453.63,330.16,457.11z"/>
	<path d="M347.4,477.72c0-1.73-0.71-3.27-2.14-5C345.16,475.17,345.26,476.91,347.4,477.72z"/>
	<path d="M331.89,472.01c1.12-1.22,0.82-2.35,0.1-4.08C330.67,469.66,330.77,470.68,331.89,472.01z"/>
	<path d="M348.52,438.24c1.12-0.92,1.43-1.73,0.82-2.96C347.91,435.99,348.22,436.91,348.52,438.24z"/>
	<path d="M342.4,302.84c-1.22,0.31-1.73,0.71-2.35,1.84C341.18,304.37,341.79,304.06,342.4,302.84z"/>
	<path d="M350.77,428.44c1.22,0.31,0.92-0.61,1.02-1.53C350.56,427.11,350.77,427.83,350.77,428.44z"/>
	<path d="M133.74,303.24c-0.69-0.94-0.82-2.24-2.14-2.55c-0.55,0.33-0.41,1.13-0.28,1.27c-1.33-0.96-0.99-3.21-2.89-3.71
		c-0.92,2.14-0.92,2.14,2.35,5.31c0.81-0.31,0.33-1.09,0.6-1.51c3.22,4.06-1.52,10.62-4.99,14.77c3.98,0.31,6.53-2.65,9.18-10.2
		C135.37,305.29,134.48,304.25,133.74,303.24z"/>
	<path d="M110.99,323.14c1.02-2.75,1.12-5.1-0.92-6.02c-3.88-1.74-3.78-5.2-4.9-8.37c2.04-2.45,4.18-4.69,6.02-7.75
		c-5.2,1.22-8.77,8.06-6.53,12.24C106.4,316.51,108.64,319.57,110.99,323.14z"/>
	<path d="M132.52,410.38c-2.06,32.53,1.92,23.57,1.12,20C131.59,421.18,137.33,414.57,132.52,410.38z"/>
	<path d="M90.48,369.06c-2.45,6.53-2.04,13.06-1.02,19.69C90.38,382.22,90.17,375.59,90.48,369.06z"/>
	<path d="M104.76,344.98c2.65,4.69,3.78,10.2,8.16,13.88C111.19,353.55,109.15,348.55,104.76,344.98z"/>
	<path d="M95.58,350.28c-3.16,3.78-3.37,8.47-3.78,13.06C93.74,359.16,95.27,354.87,95.58,350.28z"/>
	<path d="M133.54,393.75c-2.35,4.29-1.73,7.65-0.2,10.92C133.44,401.2,134.35,397.93,133.54,393.75z"/>
	<path d="M95.89,333.55c0.92,3.47,3.57,5.71,6.02,8.06c0.2-0.2,0.51-0.31,0.71-0.51C95.52,331.87,97.09,332.75,95.89,333.55z"/>
	<path d="M133.95,390.48c1.33-2.75,1.94-5.51,0.82-8.47C132.93,384.77,133.03,387.52,133.95,390.48z"/>
	<path d="M123.23,358.04c2.14-2.04,3.16-5,6.02-6.33C125.38,352.43,124.35,353.55,123.23,358.04z"/>
	<path d="M89.46,393.95c0,3.06,0,5.51,0,7.96C90.89,399.46,91.81,396.91,89.46,393.95z"/>
	<path d="M91.4,419.97c0.2-2.65,0.51-5.31-1.02-7.86C90.48,414.77,91.5,417.32,91.4,419.97z"/>
	<path d="M133.95,348.24c1.73-1.43,2.96-3.16,2.96-5.82C134.25,343.85,134.66,346.3,133.95,348.24z"/>
	<path d="M112.42,361.3c0,2.55,0.71,3.67,2.55,4.59C115.07,363.85,114.46,362.73,112.42,361.3z"/>
	<path d="M140.48,313.14c2.14,1.53,3.57,1.12,5.41,0.51C144.15,312.33,142.62,312.63,140.48,313.14z"/>
	<path d="M135.58,378.04c1.63-1.22,0.82-2.24,0.2-3.67C134.97,375.69,134.66,376.71,135.58,378.04z"/>
	<path d="M105.38,363.44c0.61-1.63,0.82-2.75,0.41-4.18C104.36,360.59,105.48,361.71,105.38,363.44z"/>
	<path d="M107.93,488.33c-0.41,0.92-0.51,1.73,0.2,2.86C108.64,490.07,108.44,489.25,107.93,488.33z"/>
	<path d="M104.97,374.57c0.1-0.61,0-1.22,0-2.04C104.02,373.79,104.97,375.41,104.97,374.57z"/>
	<path d="M126.4,295.29c-0.1-1.43-0.71-2.04-1.73-2.35C124.56,294.16,125.27,294.57,126.4,295.29z"/>
	<path d="M108.64,499.97c0.71-1.12,0.82-1.94,0.2-2.75C107.62,497.93,108.13,498.84,108.64,499.97z"/>
	<path d="M132.52,445.68c0.71-1.12,0.82-2.04,0.1-2.96C131.6,443.54,131.8,444.46,132.52,445.68z"/>
	<path d="M115.89,368.55c-0.1,0.61,0.2,0.82,0.82,0.71C116.6,368.75,116.4,368.44,115.89,368.55z"/>
	<path d="M101.29,307.73c-1.53,0.2-1.53,1.02-1.73,2.04C100.99,309.47,100.89,308.65,101.29,307.73z"/>
	<path d="M166.9,214.88c-13.88-5.92-28.57-9.18-43.47-14.59C127.57,206.72,166.8,214.87,166.9,214.88z"/>
	<path d="M170.88,221.72c-17.04-1.63-33.06-7.45-49.38-11.33C137.62,215.6,153.54,221.82,170.88,221.72z"/>
	<path d="M130.17,177.44c5.41-3.67,11.73-5.1,17.65-7.75C139.76,168.87,131.91,172.34,130.17,177.44z"/>
	<path d="M127.93,136.11c-1.84,1.84-5.31,15.2-4.59,18.06C125.68,151.83,127.82,141.42,127.93,136.11z"/>
	<path d="M150.58,136.73c1.02,7.86,7.14,12.35,11.94,17.75C160.67,150.14,160.43,153.14,150.58,136.73z"/>
	<path d="M134.56,141.83c-3.57,1.22-3.57,3.88,0.41,8.98C134.76,147.44,134.66,144.68,134.56,141.83z"/>
	<path d="M136.8,133.36c-2.65,1.02-3.06,2.24-1.94,6.73C137.01,136.42,137.01,136.42,136.8,133.36z"/>
	<path d="M152.31,167.44c3.16,1.02,6.33,2.35,9.49,0.61C161.8,166.69,163.25,166.73,152.31,167.44z"/>
	<path d="M123.54,156.72c-1.33,2.65-0.41,4.49,1.02,6.84C125.48,160.91,125.58,158.97,123.54,156.72z"/>
	<path d="M124.35,165.81c-2.65,2.24-1.33,3.98-0.41,6.02C125.99,169.99,125.17,168.25,124.35,165.81z"/>
	<path d="M116.5,164.17c-1.63,2.55-1.63,3.06,0.61,7.24C117.01,168.66,117.52,166.52,116.5,164.17z"/>
	<path d="M125.38,181.21c-2.96,0.92-4.29,2.35-5.1,4.49C123.13,184.17,123.13,184.17,125.38,181.21z"/>
	<path d="M95.17,218.25c0.92-2.04,1.22-3.37,1.02-4.9C94.87,214.99,94.87,214.99,95.17,218.25z"/>
	<path d="M137.52,160.3c0.82-1.94,0.2-2.86-1.63-3.16C135.88,158.36,135.58,159.68,137.52,160.3z"/>
	<path d="M134.86,153.87c-0.71,1.63,0.31,2.35,0.92,3.37C136.7,155.91,136.5,154.99,134.86,153.87z"/>
	<path d="M179.35,162.74c0.31,1.33,0.92,1.53,1.94,1.12C181.72,162.57,180.61,162.43,179.35,162.74z"/>
	<path d="M130.27,133.26c0.61-1.02,0.61-1.02-0.51-1.63C129.86,132.13,129.66,132.85,130.27,133.26z"/>
	<path d="M251.49,226.21c-2.35-1.12-4.39-2.04-6.84-3.16C246.08,227.54,248.33,228.56,251.49,226.21z"/>
	<path d="M244.86,237.54c0-1.94,2.04-3.78,0-6.33C244.65,233.66,243.12,235.49,244.86,237.54z"/>
	<path d="M241.18,222.64c-1.63-0.51-3.06-0.92-4.69-1.43C238.22,224.37,238.33,224.37,241.18,222.64z"/>
	<path d="M243.33,226.11c-0.82,1.73-0.82,1.73,0.61,3.88C244.83,229.1,243.96,226.65,243.33,226.11z"/>
	<path d="M262.81,206.01c-0.61-2.14-0.61-2.14-3.37-2.96C260.06,205.09,261.39,205.6,262.81,206.01z"/>
	<path d="M238.43,227.23c0.82-0.71,0.51-1.22-0.1-2.14C237.41,226.21,237.51,226.82,238.43,227.23z"/>
	<path d="M231.59,214.99c-0.92,1.02-0.61,1.33,1.94,2.04C233.43,215.39,232.31,215.5,231.59,214.99z"/>
	<path d="M229.04,216.41c-0.41,0.51-0.2,0.92,0.1,1.33C229.65,217.23,229.65,216.82,229.04,216.41z"/>
	<path d="M238.12,229.07c-0.11,0-1.06,0.63,0.41,1.12C239.12,229.01,238.49,228.88,238.12,229.07z"/>
	<path d="M291.08,277.12c-1.63-1.22-3.16-2.45-5.41-1.84c3.16,5.31,9.39,5.61,12.75,0.51C296.8,274.27,297.36,275.55,291.08,277.12z
		"/>
	<path d="M271.18,279.57c0.82,1.84,0.82,1.84,3.98,2.96C273.53,279.88,273.53,279.88,271.18,279.57z"/>
	<path d="M302.71,251.41c1.33,1.53,1.94,0.61,2.65-0.2C304.04,249.68,303.53,250.8,302.71,251.41z"/>
	<path d="M273.63,291c-1.33-1.33-2.14-1.63-3.27-1.73C270.57,291,271.69,290.9,273.63,291z"/>
	<path d="M263.84,283.55c0.41,1.43,1.22,1.73,1.94,2.24C266.18,284.27,265.06,284.16,263.84,283.55z"/>
	<path d="M281.9,273.66c0.41,0.82,0.82,1.22,1.94,0.51C283.43,273.25,282.92,272.84,281.9,273.66z"/>
	<path d="M277.1,283.76c0,1.22,0.61,1.22,1.53,0.71C278.43,283.45,277.81,283.55,277.1,283.76z"/>
	<path d="M278.73,271.61c0,1.22,0.51,1.33,1.33,1.53C280.36,272.02,280.06,271.72,278.73,271.61z"/>
	<path d="M188.33,333.55c2.14,0.31,3.57-0.2,4.9-1.12C190.88,331.61,190.88,331.61,188.33,333.55z"/>
<path fill="#e6e6e6" d="m206.8 163.6c0-5.1 4.1-9.2 9.3-9.2s9.2 4.2 9.2 9.2-4.1 9.2-9.3 9.2-9.2-4.1-9.2-9.2zm17.3-.1c0-4.5-3.5-8.2-8.2-8.2s-8.2 3.7-8.2 8.3c0 4.5 3.5 8.2 8.2 8.2s8.2-3.7 8.2-8.3zm-13 0c0-2.8 2.1-5.1 5.1-5.1 1.9 0 2.9.6 3.9 1.5l-1.4 1.7c-.8-.7-1.5-1.1-2.5-1.1-1.7 0-2.8 1.4-2.8 3.1s1.1 3 2.8 3c1.1 0 1.7-.5 2.5-1.1l1.4 1.4c-1.1 1.1-2.1 1.7-4 1.7-2.9 0-5-2.3-5-5.1z"/><path fill="#e6e6e6" d="m226.6 154.7h3.4l4.2 13.2 4.4-13.3h2.6l4.4 13.3 4.2-13.2h3.3l-6.2 18h-2.7l-4.4-12.8-4.4 12.8h-2.7z"/><path fill="#e6e6e6" d="m252.8 165.8c0-3.9 3.1-7 7.2-7 4.2 0 7.2 3.2 7.2 7s-3.1 7-7.3 7c-4 0-7.1-3.1-7.1-7zm11.3 0c0-2.3-1.7-4.3-4.2-4.3s-4.1 2-4.1 4.3 1.7 4.3 4.1 4.3c2.7.1 4.2-1.9 4.2-4.3z"/><path fill="#e6e6e6" d="m269.5 159.1h3.1v3c.8-2 2.4-3.4 4.8-3.3v3.2h-.2c-2.7 0-4.6 1.7-4.6 5.4v5.1h-3.1z"/><path fill="#e6e6e6" d="m279.1 153.9h3.1v11.1l5.6-6h3.8l-5.4 5.5 5.5 8h-3.5l-4.1-5.8-1.9 2v3.9h-3.1z"/><path fill="#e6e6e6" d="m291.7 165.8c0-3.9 3.1-7 7.2-7 4.2 0 7.2 3.2 7.2 7s-3.1 7-7.3 7c-4 0-7.1-3.1-7.1-7zm11.3 0c0-2.3-1.7-4.3-4.2-4.3s-4.1 2-4.1 4.3 1.7 4.3 4.1 4.3c2.6.1 4.2-1.9 4.2-4.3z"/><path fill="#e6e6e6" d="m308.2 167.6v-8.6h3.1v7.6c0 2.1 1.1 3.3 2.9 3.3s3-1.3 3-3.3v-7.6h3.1v13.4h-3.1v-2.1c-.8 1.3-2.1 2.3-4.2 2.3-3.1.2-4.8-1.8-4.8-5z"/><path fill="#e6e6e6" d="m323.9 168.8v-7.1h-1.7v-2.6h1.7v-3.7h3.1v3.7h3.6v2.6h-3.6v6.6c0 1.2.6 1.7 1.7 1.7.7 0 1.3-.2 1.9-.5v2.5c-.8.5-1.7.7-2.8.7-2.3 0-3.9-.9-3.9-3.9z"/><path fill="#e6e6e6" d="m333.2 154.7h3.2v15h9.4v2.9h-12.5v-17.9z"/><path fill="#e6e6e6" d="m356 172.5v-1.7c-.9 1.1-2.3 2-4.4 2-2.6 0-4.8-1.4-4.8-4.2 0-3 2.3-4.4 5.4-4.4 1.7 0 2.6.2 3.7.5v-.2c0-1.9-1.2-2.9-3.3-2.9-1.5 0-2.6.3-3.9.8l-.8-2.5c1.5-.7 2.9-1.1 5.1-1.1 4 0 5.9 2.1 5.9 5.7v8zm.1-5.6c-.8-.3-1.9-.5-3.1-.5-2 0-3.1.8-3.1 2.1s1.1 2 2.6 2c2 0 3.5-1.1 3.5-2.9z"/><path fill="#e6e6e6" d="m364.9 170.5v2.1h-3.1v-18.7h3.1v7.4c1-1.4 2.4-2.5 4.5-2.5 3.2 0 6.3 2.5 6.3 7s-3.1 7-6.3 7c-2.1 0-3.5-1.1-4.5-2.3zm7.7-4.7c0-2.6-1.7-4.3-3.9-4.3s-3.9 1.7-3.9 4.4c0 2.6 1.8 4.3 3.9 4.3s3.9-1.7 3.9-4.4z"/><path fill="#e6e6e6" d="m376.9 170.8 1.4-2.1c1.4 1.1 3 1.7 4.4 1.7s2.1-.5 2.1-1.5-1.3-1.4-2.8-1.8c-.1 0-.2-.1-.2-.1-2-.6-4.2-1.4-4.2-4s2.1-4.1 4.8-4.1c1.7 0 3.5.6 5 1.5l-1.2 2.2c-1.3-.8-2.6-1.3-3.8-1.3s-1.9.5-1.9 1.4 1.3 1.4 2.8 1.8c.1 0 .2.1.2.1 2 .6 4.2 1.5 4.2 4 0 2.9-2.2 4.2-5 4.2-1.9 0-4-.7-5.8-2z"/><path fill="#e6e6e6" d="m505.6 163.6c0-5.1 4.1-9.2 9.3-9.2s9.2 4.2 9.2 9.2-4.1 9.2-9.3 9.2-9.2-4.1-9.2-9.2zm17.4-.1c0-4.5-3.5-8.2-8.2-8.2s-8.2 3.7-8.2 8.3c0 4.5 3.5 8.2 8.2 8.2s8.2-3.7 8.2-8.3zm-13.1 0c0-2.8 2.1-5.1 5.1-5.1 1.9 0 2.9.6 3.9 1.5l-1.4 1.7c-.8-.7-1.5-1.1-2.5-1.1-1.7 0-2.8 1.4-2.8 3.1s1.1 3 2.8 3c1.1 0 1.7-.5 2.5-1.1l1.4 1.4c-1.1 1.1-2.1 1.7-4 1.7-2.9 0-5-2.3-5-5.1z"/><path fill="#e6e6e6" d="m525.4 154.7h3.4l4.2 13.2 4.4-13.3h2.6l4.4 13.3 4.2-13.2h3.3l-6.2 18h-2.7l-4.4-12.8-4.4 12.8h-2.7z"/><path fill="#e6e6e6" d="m551.7 165.8c0-3.9 3.1-7 7.2-7 4.2 0 7.2 3.2 7.2 7s-3.1 7-7.3 7c-4.1 0-7.1-3.1-7.1-7zm11.2 0c0-2.3-1.7-4.3-4.2-4.3s-4.1 2-4.1 4.3 1.7 4.3 4.1 4.3c2.7.1 4.2-1.9 4.2-4.3z"/><path fill="#e6e6e6" d="m568.3 159.1h3.1v3c.8-2 2.4-3.4 4.8-3.3v3.2h-.2c-2.7 0-4.6 1.7-4.6 5.4v5.1h-3.1z"/><path fill="#e6e6e6" d="m577.9 153.9h3.1v11.1l5.6-6h3.8l-5.4 5.5 5.5 8h-3.5l-4.1-5.8-1.9 2v3.9h-3.1z"/><path fill="#e6e6e6" d="m590.6 165.8c0-3.9 3.1-7 7.2-7 4.2 0 7.2 3.2 7.2 7s-3.1 7-7.3 7c-4.1 0-7.1-3.1-7.1-7zm11.2 0c0-2.3-1.7-4.3-4.2-4.3s-4.1 2-4.1 4.3 1.7 4.3 4.1 4.3c2.6.1 4.2-1.9 4.2-4.3z"/><path fill="#e6e6e6" d="m607 167.6v-8.6h3.1v7.6c0 2.1 1.1 3.3 2.9 3.3s3-1.3 3-3.3v-7.6h3.1v13.4h-3.1v-2.1c-.8 1.3-2.1 2.3-4.2 2.3-3 .2-4.8-1.8-4.8-5z"/><path fill="#e6e6e6" d="m622.7 168.8v-7.1h-1.7v-2.6h1.7v-3.7h3.1v3.7h3.6v2.6h-3.6v6.6c0 1.2.6 1.7 1.7 1.7.7 0 1.3-.2 1.9-.5v2.5c-.8.5-1.7.7-2.8.7-2.3 0-3.9-.9-3.9-3.9z"/><path fill="#e6e6e6" d="m632 154.7h3.2v15h9.4v2.9h-12.6z"/><path fill="#e6e6e6" d="m654.8 172.5v-1.7c-.9 1.1-2.3 2-4.4 2-2.6 0-4.8-1.4-4.8-4.2 0-3 2.3-4.4 5.4-4.4 1.7 0 2.6.2 3.7.5v-.2c0-1.9-1.2-2.9-3.3-2.9-1.5 0-2.6.3-3.9.8l-.8-2.5c1.5-.7 2.9-1.1 5.1-1.1 4 0 5.9 2.1 5.9 5.7v8zm.1-5.6c-.8-.3-1.9-.5-3.1-.5-2 0-3.1.8-3.1 2.1s1.1 2 2.6 2c2 0 3.5-1.1 3.5-2.9z"/><path fill="#e6e6e6" d="m663.7 170.5v2.1h-3.1v-18.7h3.1v7.4c1-1.4 2.4-2.5 4.5-2.5 3.2 0 6.3 2.5 6.3 7s-3.1 7-6.3 7c-2.1 0-3.5-1.1-4.5-2.3zm7.8-4.7c0-2.6-1.7-4.3-3.9-4.3-2.1 0-3.9 1.7-3.9 4.4 0 2.6 1.8 4.3 3.9 4.3s3.9-1.7 3.9-4.4z"/><path fill="#e6e6e6" d="m675.8 170.8 1.4-2.1c1.4 1.1 3 1.7 4.4 1.7s2.1-.5 2.1-1.5-1.3-1.4-2.8-1.8c-.1 0-.2-.1-.2-.1-2-.6-4.2-1.4-4.2-4s2.1-4.1 4.8-4.1c1.7 0 3.5.6 5 1.5l-1.2 2.2c-1.3-.8-2.6-1.3-3.8-1.3s-1.9.5-1.9 1.4 1.3 1.4 2.8 1.8c.1 0 .2.1.2.1 2 .6 4.2 1.5 4.2 4 0 2.9-2.2 4.2-5 4.2-2 0-4.1-.7-5.8-2z"/><path fill="#e6e6e6" d="m61 298.6c0-5.1 4.1-9.2 9.3-9.2s9.2 4.2 9.2 9.2-4.1 9.2-9.3 9.2c-5.1 0-9.2-4.2-9.2-9.2zm17.4-.1c0-4.5-3.5-8.2-8.2-8.2s-8.2 3.7-8.2 8.3c0 4.5 3.5 8.2 8.2 8.2s8.2-3.7 8.2-8.3zm-13.1-.1c0-2.8 2.1-5.1 5.1-5.1 1.9 0 2.9.6 3.9 1.5l-1.4 1.7c-.8-.7-1.5-1.1-2.5-1.1-1.7 0-2.8 1.4-2.8 3.1s1.1 3 2.8 3c1.1 0 1.7-.5 2.5-1.1l1.4 1.4c-1.1 1.1-2.1 1.7-4 1.7-2.8.1-5-2.2-5-5.1z"/><path fill="#e6e6e6" d="m80.9 289.7h3.4l4.2 13.2 4.4-13.3h2.6l4.4 13.3 4.2-13.2h3.3l-6.2 18h-2.7l-4.4-12.8-4.4 12.8h-2.7z"/><path fill="#e6e6e6" d="m107.1 300.8c0-3.9 3.1-7 7.2-7s7.2 3.2 7.2 7-3.1 7-7.3 7c-4 0-7.1-3.1-7.1-7zm11.3 0c0-2.3-1.7-4.3-4.2-4.3s-4.1 2-4.1 4.3 1.7 4.3 4.1 4.3c2.6.1 4.2-1.9 4.2-4.3z"/><path fill="#e6e6e6" d="m123.7 294h3.1v3c.8-2 2.4-3.4 4.8-3.3v3.2h-.2c-2.7 0-4.6 1.7-4.6 5.4v5.1h-3.1z"/><path fill="#e6e6e6" d="m133.4 288.9h3.1v11.1l5.6-6h3.8l-5.4 5.5 5.5 8h-3.5l-4.1-5.8-1.9 1.9v3.9h-3.1z"/><path fill="#e6e6e6" d="m146 300.8c0-3.9 3.1-7 7.2-7s7.2 3.2 7.2 7-3.1 7-7.3 7c-4.1 0-7.1-3.1-7.1-7zm11.2 0c0-2.3-1.7-4.3-4.2-4.3s-4.1 2-4.1 4.3 1.7 4.3 4.1 4.3c2.6.1 4.2-1.9 4.2-4.3z"/><path fill="#e6e6e6" d="m162.4 302.6v-8.6h3.1v7.6c0 2.1 1.1 3.3 2.9 3.3s3-1.3 3-3.3v-7.6h3.1v13.4h-3.1v-2.1c-.8 1.3-2.1 2.3-4.2 2.3-3 .2-4.8-1.8-4.8-5z"/><path fill="#e6e6e6" d="m178.1 303.8v-7.1h-1.7v-2.7h1.7v-3.7h3.1v3.7h3.6v2.6h-3.6v6.6c0 1.2.6 1.7 1.7 1.7.7 0 1.3-.2 1.9-.5v2.5c-.8.5-1.7.7-2.8.7-2.3.1-3.9-.9-3.9-3.8z"/><path fill="#e6e6e6" d="m187.4 289.7h3.2v15h9.4v2.9h-12.5v-17.9z"/><path fill="#e6e6e6" d="m210.2 307.5v-1.7c-.9 1.1-2.3 2-4.4 2-2.6 0-4.8-1.4-4.8-4.2 0-3 2.3-4.4 5.4-4.4 1.7 0 2.6.2 3.7.5v-.2c0-1.9-1.2-2.9-3.3-2.9-1.5 0-2.6.3-3.9.8l-.8-2.5c1.5-.7 2.9-1.1 5.1-1.1 4 0 5.9 2.1 5.9 5.7v8zm.1-5.6c-.8-.3-1.9-.5-3.1-.5-2 0-3.1.8-3.1 2.1s1.1 2 2.6 2c2 0 3.5-1.1 3.5-2.9z"/><path fill="#e6e6e6" d="m219.2 305.5v2.1h-3.1v-18.7h3.1v7.4c1-1.4 2.4-2.5 4.5-2.5 3.2 0 6.3 2.5 6.3 7s-3.1 7-6.3 7c-2.2 0-3.6-1.1-4.5-2.3zm7.7-4.7c0-2.6-1.7-4.3-3.9-4.3s-3.9 1.7-3.9 4.4c0 2.6 1.8 4.3 3.9 4.3s3.9-1.7 3.9-4.4z"/><path fill="#e6e6e6" d="m231.2 305.8 1.4-2.1c1.4 1.1 3 1.7 4.4 1.7s2.1-.5 2.1-1.5-1.3-1.4-2.8-1.8c-.1 0-.2-.1-.2-.1-2-.6-4.2-1.4-4.2-4s2.1-4.1 4.8-4.1c1.7 0 3.5.6 5 1.5l-1.2 2.2c-1.3-.8-2.6-1.3-3.8-1.3s-1.9.5-1.9 1.4 1.3 1.4 2.8 1.8c.1 0 .2.1.2.1 2 .6 4.2 1.5 4.2 4 0 2.9-2.2 4.2-5 4.2-2 0-4.1-.7-5.8-2z"/><path fill="#e6e6e6" d="m360.6 298.6c0-5.1 4.1-9.2 9.3-9.2s9.2 4.2 9.2 9.2-4.1 9.2-9.3 9.2-9.2-4.2-9.2-9.2zm17.4-.1c0-4.5-3.5-8.2-8.2-8.2s-8.2 3.7-8.2 8.3c0 4.5 3.5 8.2 8.2 8.2s8.2-3.7 8.2-8.3zm-13.1-.1c0-2.8 2.1-5.1 5.1-5.1 1.9 0 2.9.6 3.9 1.5l-1.4 1.7c-.8-.7-1.5-1.1-2.5-1.1-1.7 0-2.8 1.4-2.8 3.1s1.1 3 2.8 3c1.1 0 1.7-.5 2.5-1.1l1.4 1.4c-1.1 1.1-2.1 1.7-4 1.7-2.8.1-5-2.2-5-5.1z"/><path fill="#e6e6e6" d="m380.5 289.7h3.4l4.2 13.2 4.4-13.3h2.6l4.4 13.3 4.2-13.2h3.3l-6.2 18h-2.7l-4.4-12.8-4.4 12.8h-2.7z"/><path fill="#e6e6e6" d="m406.7 300.8c0-3.9 3.1-7 7.2-7 4.2 0 7.2 3.2 7.2 7s-3.1 7-7.3 7c-4.1 0-7.1-3.1-7.1-7zm11.3 0c0-2.3-1.7-4.3-4.2-4.3s-4.1 2-4.1 4.3 1.7 4.3 4.1 4.3c2.7.1 4.2-1.9 4.2-4.3z"/><path fill="#e6e6e6" d="m423.3 294h3.1v3c.8-2 2.4-3.4 4.8-3.3v3.2h-.2c-2.7 0-4.6 1.7-4.6 5.4v5.1h-3.1z"/><path fill="#e6e6e6" d="m433 288.9h3.1v11.1l5.6-6h3.8l-5.4 5.5 5.5 8h-3.5l-4.1-5.8-1.9 2v3.9h-3.1z"/><path fill="#e6e6e6" d="m445.6 300.8c0-3.9 3.1-7 7.2-7 4.2 0 7.2 3.2 7.2 7s-3.1 7-7.3 7c-4.1 0-7.1-3.1-7.1-7zm11.3 0c0-2.3-1.7-4.3-4.2-4.3s-4.1 2-4.1 4.3 1.7 4.3 4.1 4.3c2.6.1 4.2-1.9 4.2-4.3z"/><path fill="#e6e6e6" d="m462.1 302.6v-8.6h3.1v7.6c0 2.1 1.1 3.3 2.9 3.3s3-1.3 3-3.3v-7.6h3.1v13.4h-3.1v-2.1c-.8 1.3-2.1 2.3-4.2 2.3-3.1.2-4.8-1.8-4.8-5z"/><path fill="#e6e6e6" d="m477.8 303.8v-7.1h-1.8v-2.7h1.7v-3.7h3.1v3.7h3.6v2.6h-3.6v6.6c0 1.2.6 1.7 1.7 1.7.7 0 1.3-.2 1.9-.5v2.5c-.8.5-1.7.7-2.8.7-2.2.1-3.8-.9-3.8-3.8z"/><path fill="#e6e6e6" d="m487.1 289.7h3.2v15h9.4v2.9h-12.5v-17.9z"/><path fill="#e6e6e6" d="m509.9 307.5v-1.7c-.9 1.1-2.3 2-4.4 2-2.6 0-4.8-1.4-4.8-4.2 0-3 2.3-4.4 5.4-4.4 1.7 0 2.6.2 3.7.5v-.2c0-1.9-1.2-2.9-3.3-2.9-1.5 0-2.6.3-3.9.8l-.8-2.5c1.5-.7 2.9-1.1 5.1-1.1 4 0 5.9 2.1 5.9 5.7v8zm.1-5.6c-.8-.3-1.9-.5-3.1-.5-2 0-3.1.8-3.1 2.1s1.1 2 2.6 2c2 0 3.5-1.1 3.5-2.9z"/><path fill="#e6e6e6" d="m518.8 305.5v2.1h-3.1v-18.7h3.1v7.4c1-1.4 2.4-2.5 4.5-2.5 3.2 0 6.3 2.5 6.3 7s-3.1 7-6.3 7c-2.2 0-3.5-1.1-4.5-2.3zm7.7-4.7c0-2.6-1.7-4.3-3.9-4.3s-3.9 1.7-3.9 4.4c0 2.6 1.8 4.3 3.9 4.3s3.9-1.7 3.9-4.4z"/><path fill="#e6e6e6" d="m530.8 305.8 1.4-2.1c1.4 1.1 3 1.7 4.4 1.7s2.1-.5 2.1-1.5-1.3-1.4-2.8-1.8c-.1 0-.2-.1-.2-.1-2-.6-4.2-1.4-4.2-4s2.1-4.1 4.8-4.1c1.7 0 3.5.6 5 1.5l-1.2 2.2c-1.3-.8-2.6-1.3-3.8-1.3s-1.9.5-1.9 1.4 1.3 1.4 2.8 1.8c.1 0 .2.1.2.1 2 .6 4.2 1.5 4.2 4 0 2.9-2.2 4.2-5 4.2-1.9 0-4.1-.7-5.8-2z"/><path fill="#e6e6e6" d="m659.5 298.6c0-5.1 4.1-9.2 9.3-9.2s9.2 4.2 9.2 9.2-4.1 9.2-9.3 9.2-9.2-4.2-9.2-9.2zm17.3-.1c0-4.5-3.5-8.2-8.2-8.2s-8.2 3.7-8.2 8.3c0 4.5 3.5 8.2 8.2 8.2 4.8 0 8.2-3.7 8.2-8.3zm-13-.1c0-2.8 2.1-5.1 5.1-5.1 1.9 0 2.9.6 3.9 1.5l-1.4 1.7c-.8-.7-1.5-1.1-2.5-1.1-1.7 0-2.8 1.4-2.8 3.1s1.1 3 2.8 3c1.1 0 1.7-.5 2.5-1.1l1.4 1.4c-1.1 1.1-2.1 1.7-4 1.7-2.9.1-5-2.2-5-5.1z"/><path fill="#e6e6e6" d="m679.3 289.7h3.4l4.2 13.2 4.4-13.3h2.6l4.4 13.3 4.2-13.2h3.3l-6.2 18h-2.6l-4.4-12.8-4.4 12.8h-2.7z"/><path fill="#e6e6e6" d="m705.5 300.8c0-3.9 3.1-7 7.2-7 4.2 0 7.2 3.2 7.2 7s-3.1 7-7.3 7c-4 0-7.1-3.1-7.1-7zm11.3 0c0-2.3-1.7-4.3-4.2-4.3s-4.1 2-4.1 4.3 1.7 4.3 4.1 4.3c2.7.1 4.2-1.9 4.2-4.3z"/><path fill="#e6e6e6" d="m722.1 294h3.1v3c.8-2 2.4-3.4 4.8-3.3v3.2h-.2c-2.7 0-4.6 1.7-4.6 5.4v5.1h-3.1z"/><path fill="#e6e6e6" d="m731.8 288.9h3.1v11.1l5.6-6h3.8l-5.4 5.5 5.5 8h-3.5l-4.1-5.8-1.9 2v3.9h-3.1z"/><path fill="#e6e6e6" d="m744.4 300.8c0-3.9 3.1-7 7.2-7 4.2 0 7.2 3.2 7.2 7s-3.1 7-7.3 7c-4.1 0-7.1-3.1-7.1-7zm11.3 0c0-2.3-1.7-4.3-4.2-4.3s-4.1 2-4.1 4.3 1.7 4.3 4.1 4.3c2.6.1 4.2-1.9 4.2-4.3z"/><path fill="#e6e6e6" d="m760.9 302.6v-8.6h3.1v7.6c0 2.1 1.1 3.3 2.9 3.3s3-1.3 3-3.3v-7.6h3.1v13.4h-3.1v-2.1c-.8 1.3-2.1 2.3-4.2 2.3-3.1.2-4.8-1.8-4.8-5z"/><path fill="#e6e6e6" d="m776.6 303.8v-7.1h-1.7v-2.7h1.7v-3.7h3.1v3.7h3.6v2.6h-3.6v6.6c0 1.2.6 1.7 1.7 1.7.7 0 1.3-.2 1.9-.5v2.5c-.8.5-1.7.7-2.8.7-2.3.1-3.9-.9-3.9-3.8z"/><path fill="#e6e6e6" d="m785.9 289.7h3.2v15h9.4v2.9h-12.5v-17.9z"/><path fill="#e6e6e6" d="m808.7 307.5v-1.7c-.9 1.1-2.3 2-4.4 2-2.6 0-4.8-1.4-4.8-4.2 0-3 2.3-4.4 5.4-4.4 1.7 0 2.6.2 3.7.5v-.2c0-1.9-1.2-2.9-3.3-2.9-1.5 0-2.6.3-3.9.8l-.8-2.5c1.5-.7 2.9-1.1 5.1-1.1 4 0 5.9 2.1 5.9 5.7v8zm.1-5.6c-.8-.3-1.9-.5-3.1-.5-2 0-3.1.8-3.1 2.1s1.1 2 2.6 2c2 0 3.5-1.1 3.5-2.9z"/><path fill="#e6e6e6" d="m817.6 305.5v2.1h-3.1v-18.7h3.1v7.4c1-1.4 2.4-2.5 4.5-2.5 3.2 0 6.3 2.5 6.3 7s-3.1 7-6.3 7c-2.1 0-3.5-1.1-4.5-2.3zm7.7-4.7c0-2.6-1.7-4.3-3.9-4.3-2.1 0-3.9 1.7-3.9 4.4 0 2.6 1.8 4.3 3.9 4.3 2.2 0 3.9-1.7 3.9-4.4z"/><path fill="#e6e6e6" d="m829.6 305.8 1.4-2.1c1.4 1.1 3 1.7 4.4 1.7s2.1-.5 2.1-1.5-1.3-1.4-2.8-1.8c-.1 0-.2-.1-.2-.1-2-.6-4.2-1.4-4.2-4s2.1-4.1 4.8-4.1c1.7 0 3.5.6 5 1.5l-1.2 2.2c-1.3-.8-2.6-1.3-3.8-1.3s-1.9.5-1.9 1.4 1.3 1.4 2.8 1.8c.1 0 .2.1.2.1 2 .6 4.2 1.5 4.2 4 0 2.9-2.2 4.2-5 4.2-1.9 0-4-.7-5.8-2z"/><path fill="#e6e6e6" d="m206.3 434.2c0-5.1 4.1-9.2 9.3-9.2s9.2 4.2 9.2 9.2-4.1 9.2-9.3 9.2-9.2-4.1-9.2-9.2zm17.4-.1c0-4.5-3.5-8.2-8.2-8.2s-8.2 3.7-8.2 8.3c0 4.5 3.5 8.2 8.2 8.2s8.2-3.7 8.2-8.3zm-13.1-.1c0-2.8 2.1-5.1 5.1-5.1 1.9 0 2.9.6 3.9 1.5l-1.4 1.7c-.8-.7-1.5-1.1-2.5-1.1-1.7 0-2.8 1.4-2.8 3.1s1.1 3 2.8 3c1.1 0 1.7-.5 2.5-1.1l1.4 1.4c-1.1 1.1-2.1 1.7-4 1.7-2.9.1-5-2.2-5-5.1z"/><path fill="#e6e6e6" d="m226.1 425.3h3.4l4.2 13.2 4.4-13.3h2.6l4.4 13.3 4.2-13.2h3.3l-6.2 18h-2.7l-4.4-12.8-4.4 12.8h-2.7z"/><path fill="#e6e6e6" d="m252.4 436.4c0-3.9 3.1-7 7.2-7 4.2 0 7.2 3.2 7.2 7s-3.1 7-7.3 7c-4.1 0-7.1-3.1-7.1-7zm11.2 0c0-2.3-1.7-4.3-4.2-4.3s-4.1 2-4.1 4.3 1.7 4.3 4.1 4.3c2.7.1 4.2-1.9 4.2-4.3z"/><path fill="#e6e6e6" d="m269 429.7h3.1v3c.8-2 2.4-3.4 4.8-3.3v3.2h-.2c-2.7 0-4.6 1.7-4.6 5.4v5.1h-3.1z"/><path fill="#e6e6e6" d="m278.6 424.5h3.1v11.1l5.6-6h3.8l-5.4 5.5 5.5 8h-3.5l-4.1-5.8-1.9 2v3.9h-3.1z"/><path fill="#e6e6e6" d="m291.3 436.4c0-3.9 3.1-7 7.2-7 4.2 0 7.2 3.2 7.2 7s-3.1 7-7.3 7c-4.1 0-7.1-3.1-7.1-7zm11.2 0c0-2.3-1.7-4.3-4.2-4.3s-4.1 2-4.1 4.3 1.7 4.3 4.1 4.3c2.6.1 4.2-1.9 4.2-4.3z"/><path fill="#e6e6e6" d="m307.7 438.2v-8.6h3.1v7.6c0 2.1 1.1 3.3 2.9 3.3s3-1.3 3-3.3v-7.6h3.1v13.4h-3.1v-2.1c-.8 1.3-2.1 2.3-4.2 2.3-3 .2-4.8-1.8-4.8-5z"/><path fill="#e6e6e6" d="m323.4 439.4v-7.1h-1.7v-2.6h1.7v-3.7h3.1v3.7h3.6v2.6h-3.6v6.6c0 1.2.6 1.7 1.7 1.7.7 0 1.3-.2 1.9-.5v2.5c-.8.5-1.7.7-2.8.7-2.3 0-3.9-.9-3.9-3.9z"/><path fill="#e6e6e6" d="m332.7 425.3h3.2v15h9.4v2.9h-12.5v-17.9z"/><path fill="#e6e6e6" d="m355.5 443.1v-1.7c-.9 1.1-2.3 2-4.4 2-2.6 0-4.8-1.4-4.8-4.2 0-3 2.3-4.4 5.4-4.4 1.7 0 2.6.2 3.7.5v-.2c0-1.9-1.2-2.9-3.3-2.9-1.5 0-2.6.3-3.9.8l-.8-2.5c1.5-.7 2.9-1.1 5.1-1.1 4 0 5.9 2.1 5.9 5.7v8zm.1-5.6c-.8-.3-1.9-.5-3.1-.5-2 0-3.1.8-3.1 2.1s1.1 2 2.6 2c2 0 3.5-1.1 3.5-2.9z"/><path fill="#e6e6e6" d="m364.4 441.1v2.1h-3.1v-18.7h3.1v7.4c1-1.4 2.4-2.5 4.5-2.5 3.2 0 6.3 2.5 6.3 7s-3.1 7-6.3 7c-2.1 0-3.5-1.1-4.5-2.3zm7.7-4.7c0-2.6-1.7-4.3-3.9-4.3-2.1 0-3.9 1.7-3.9 4.4 0 2.6 1.8 4.3 3.9 4.3 2.2 0 3.9-1.7 3.9-4.4z"/><path fill="#e6e6e6" d="m376.5 441.4 1.4-2.1c1.4 1.1 3 1.7 4.4 1.7s2.1-.5 2.1-1.5-1.3-1.4-2.8-1.8c-.1 0-.2-.1-.2-.1-2-.6-4.2-1.4-4.2-4s2.1-4.1 4.8-4.1c1.7 0 3.5.6 5 1.5l-1.2 2.2c-1.3-.8-2.6-1.3-3.8-1.3s-1.9.5-1.9 1.4 1.3 1.4 2.8 1.8c.1 0 .2.1.2.1 2 .6 4.2 1.5 4.2 4 0 2.9-2.2 4.2-5 4.2-2 0-4.1-.7-5.8-2z"/><path fill="#e6e6e6" d="m505.1 434.2c0-5.1 4.1-9.2 9.3-9.2s9.2 4.2 9.2 9.2-4.1 9.2-9.3 9.2-9.2-4.1-9.2-9.2zm17.4-.1c0-4.5-3.5-8.2-8.2-8.2s-8.2 3.7-8.2 8.3c0 4.5 3.5 8.2 8.2 8.2s8.2-3.7 8.2-8.3zm-13.1-.1c0-2.8 2.1-5.1 5.1-5.1 1.9 0 2.9.6 3.9 1.5l-1.4 1.7c-.8-.7-1.5-1.1-2.5-1.1-1.7 0-2.8 1.4-2.8 3.1s1.1 3 2.8 3c1.1 0 1.7-.5 2.5-1.1l1.4 1.4c-1.1 1.1-2.1 1.7-4 1.7-2.9.1-5-2.2-5-5.1z"/><path fill="#e6e6e6" d="m525 425.3h3.4l4.2 13.2 4.4-13.3h2.6l4.4 13.3 4.2-13.2h3.3l-6.2 18h-2.7l-4.4-12.8-4.4 12.8h-2.7z"/><path fill="#e6e6e6" d="m551.2 436.4c0-3.9 3.1-7 7.2-7 4.2 0 7.2 3.2 7.2 7s-3.1 7-7.3 7c-4.1 0-7.1-3.1-7.1-7zm11.2 0c0-2.3-1.7-4.3-4.2-4.3s-4.1 2-4.1 4.3 1.7 4.3 4.1 4.3c2.7.1 4.2-1.9 4.2-4.3z"/><path fill="#e6e6e6" d="m567.8 429.7h3.1v3c.8-2 2.4-3.4 4.8-3.3v3.2h-.2c-2.7 0-4.6 1.7-4.6 5.4v5.1h-3.1z"/><path fill="#e6e6e6" d="m577.5 424.5h3.1v11.1l5.6-6h3.8l-5.4 5.5 5.5 8h-3.5l-4.1-5.8-1.9 2v3.9h-3.1z"/><path fill="#e6e6e6" d="m590.1 436.4c0-3.9 3.1-7 7.2-7 4.2 0 7.2 3.2 7.2 7s-3.1 7-7.3 7c-4.1 0-7.1-3.1-7.1-7zm11.2 0c0-2.3-1.7-4.3-4.2-4.3s-4.1 2-4.1 4.3 1.7 4.3 4.1 4.3c2.6.1 4.2-1.9 4.2-4.3z"/><path fill="#e6e6e6" d="m606.5 438.2v-8.6h3.1v7.6c0 2.1 1.1 3.3 2.9 3.3s3-1.3 3-3.3v-7.6h3.1v13.4h-3.1v-2.1c-.8 1.3-2.1 2.3-4.2 2.3-3 .2-4.8-1.8-4.8-5z"/><path fill="#e6e6e6" d="m622.2 439.4v-7.1h-1.7v-2.6h1.7v-3.7h3.1v3.7h3.6v2.6h-3.6v6.6c0 1.2.6 1.7 1.7 1.7.7 0 1.3-.2 1.9-.5v2.5c-.8.5-1.7.7-2.8.7-2.3 0-3.9-.9-3.9-3.9z"/><path fill="#e6e6e6" d="m631.5 425.3h3.2v15h9.4v2.9h-12.5v-17.9z"/><path fill="#e6e6e6" d="m654.3 443.1v-1.7c-.9 1.1-2.3 2-4.4 2-2.6 0-4.8-1.4-4.8-4.2 0-3 2.3-4.4 5.4-4.4 1.7 0 2.6.2 3.7.5v-.2c0-1.9-1.2-2.9-3.3-2.9-1.5 0-2.6.3-3.9.8l-.8-2.5c1.5-.7 2.9-1.1 5.1-1.1 4 0 5.9 2.1 5.9 5.7v8zm.1-5.6c-.8-.3-1.9-.5-3.1-.5-2 0-3.1.8-3.1 2.1s1.1 2 2.6 2c2 0 3.5-1.1 3.5-2.9z"/><path fill="#e6e6e6" d="m663.3 441.1v2.1h-3.1v-18.7h3.1v7.4c1-1.4 2.4-2.5 4.5-2.5 3.2 0 6.3 2.5 6.3 7s-3.1 7-6.3 7c-2.2 0-3.6-1.1-4.5-2.3zm7.7-4.7c0-2.6-1.7-4.3-3.9-4.3s-3.9 1.7-3.9 4.4c0 2.6 1.8 4.3 3.9 4.3s3.9-1.7 3.9-4.4z"/><path fill="#e6e6e6" d="m675.3 441.4 1.4-2.1c1.4 1.1 3 1.7 4.4 1.7s2.1-.5 2.1-1.5-1.3-1.4-2.8-1.8c-.1 0-.2-.1-.2-.1-2-.6-4.2-1.4-4.2-4s2.1-4.1 4.8-4.1c1.7 0 3.5.6 5 1.5l-1.2 2.2c-1.3-.8-2.6-1.3-3.8-1.3s-1.9.5-1.9 1.4 1.3 1.4 2.8 1.8c.1 0 .2.1.2.1 2 .6 4.2 1.5 4.2 4 0 2.9-2.2 4.2-5 4.2-2 0-4.1-.7-5.8-2z"/></g>
</svg>
