<?xml version="1.0" encoding="utf-8"?>
<!-- Generator: Adobe Illustrator 23.0.1, SVG Export Plug-In . SVG Version: 6.00 Build 0)  -->
<svg version="1.2" baseProfile="tiny" id="Layer_1" xmlns="http://www.w3.org/2000/svg" xmlns:xlink="http://www.w3.org/1999/xlink"
	 x="0px" y="0px" viewBox="0 0 900 600" xml:space="preserve">
<g>
	<path d="M861.56,447.68c0-0.01,0-0.01,0-0.02c-0.01,0-0.01,0-0.02,0.01C861.54,447.67,861.55,447.67,861.56,447.68z"/>
	<path d="M899.09,407.68c-5.01-6.57-8.9-4.23-10.56-5.33c0-1.73,0.56-5.42-0.8-8.15c-2.96-7.11-27.29-22.47-34.51-25.65
		c-2.07-0.91-0.71,0.1-19.92-19.11c-0.49-4.39-0.28-9.26-3.02-25.45c-2.36-13.95-8.13-19-9.05-24.95
		c-0.73-4.69-4.2-14.36-8.45-14.29c-0.1,0-34.73-7.92-73.24-4.02c-4.63,0.47-8.65,2.92-12.88,4.73c-2.21,2.21-4.93,2.37-7.75,2.21
		c-10.87-0.61-7.1,2.46-14.49-3.32c-1.93-1.93-4.22-1.73-6.34-0.2c-6.51,4.69-4.22-2.41-17.81-27.46
		c-8.18-15.08-8.89-10.21-20.93-26.76c0.78-5.1,1.05-5.87,0.4-7.75c-5.79-16.95-19.61-29.39-38.63-33.2
		c-2.69-0.38-1.2,0.54-3.52-5.83c-0.88-2.42-0.91-4.93-1.11-7.55c0.7-0.4,1.31-0.8,1.81-1.21c4.82-3.97,11.53-7.84,5.83-12.88
		c-2.87-2.87,0.43-4.09-4.12-7.04c0.43-3.01,1.03-1.14-1.51-4.53c1.03-5.13,2.48-3.28-9.66-10.86c1.4-3.17-1.14-4.89-3.72-7.04
		c-10.83-7.88,0.47-4.43-0.5-14.18c-1.51-0.8-1.31-2.62-2.62-3.82c-0.6-0.1-1.31-0.1-2.11-0.2c-3.38,4.13-3.26,4.67-2.62,0.8
		c-0.63-0.63,0.08,0.29-3.92-0.6c-0.69,4.52-0.01,4.4-3.02,2.52c-2.96,1.97-1.74-0.36-4.83,2.11c-5.06,4.05-2.36,0.59-4.12,0.2
		c-0.2,0.1-0.5,0.1-0.6,0.2c-8.17,9.8-6.36,3.75-11.77,9.15c-1.41,1.41-1.31,1.41-3.32,1.71c-9.42,9.42-5.96,8.58-7.55,10.16
		c-2.4,0.68-1.91,0.32-1.91,2.52c-1.05,0.52-1.16,0.08-2.72,4.43c-0.36,1.02,1.06,1.11,2.21,1.31c0.71,1.42-0.9,2.02,0.1,4.83
		c1.14,3.2-1.73,3.71-2.01,6.24c-0.2,0.91,0.1,2.01,0.2,3.02c-9.28,17.13-11.34,11.47-14.18,32.9c-1.25,9.43,4.99,11.56,8.25,16.2
		c19.75,28.08,28.26,18.09,31.69,26.46c2.98,7.28,7.47,14.7,14.08,19.01c5.31,3.46,10.12,10.32,20.62,15.79
		c1.59,0.83,9.65,9.98,10.76,11.27c2.72,3.14,0.91,3.65,5.83,8.95c0.09,0.1,17.69,17.86,19.92,23.44c0.32,0.79,2.92,6.27,3.72,6.54
		c4.23,1.41-1.25-5.28-1.71-7.44c0.3-0.8,0.8-1.41,0.8-2.01c-0.2-2.62-1.21-4.83-3.32-7.04c-0.64,4.01,6.43,10.83-4.73,0.2
		c-2.93-2.44,0.33-1.64-3.82-5.94c-8.06-8.34-11.74-11.19-13.18-15.59c-0.75-2.31-4.74-5.74-7.55-8.55c-1.8-1.8-0.04-1.67-1.71-3.02
		c-5.72-4.63-5.95-3.83-9.46-6.34c-10.02-7.17-10.1-8.76-16.1-13.08c-5.89-4.25-9.76-10.06-12.78-16.6c0.7-0.76,1.68-1.47,1.01-2.92
		c-4.24-1.06-6.28-2.75-11.37-4.63c-10.35-3.82-12.31-9.56-29.17-28.67c0-24.49,9.11-27.48,13.78-36.82
		c2.19-4.38,9.16-12.52,2.21-8.55c-0.2-2.72,0.7-4.73,2.82-5.83c4.16,0.89,11.79,2.25,10.36,6.54c1.56,2.6,0.22-3,7.95,4.73
		c5.24,5.24,4.77,8.39,7.75,11.37c2.69,2.69,7.23,8.86,3.82,10.56c-1.24-0.82-1.82-4.36-8.35-9.15c-2.27-1.67-2.43-1.07-8.55-2.01
		c-2.23-1.74,0.34-3.26-5.53,0.8c0,6.5-0.95,11.95,5.43,19.72c-0.6,2.92-0.91,5.73-0.7,8.55c1.81-0.3,1.81-0.5,0.8-2.92
		c2.88-4.43-0.27-10.63,3.82-7.24c4.8,3.97,11.77,14.41,11.57,16.8c-0.12,1.42,3.14,6.56,2.31,0.8c-0.1-0.5-0.6-1.01,0.1-1.51
		c1.54-0.15,8.93,2.61,5.83-0.4c-1.89-1.84-4.63-1.71-6.94-2.11c-7.8-14.95-12.11-12.49-4.43-13.78
		c33.24-5.6,41.41,42.33,37.32,43.86c-0.76-1.14-2.66-3.66-4.02-5.03c-0.5-0.5-1.01-0.4-1.61,0.3c1.41,3.02,4.23,5.33,5.23,8.75
		c-4.14,10.98-14.8,9.34-22.64,8.65c3.04,3.04,4.57,2.57,8.95,2.62c11.52,0.11,12.44-8.54,16.6-7.85
		c4.23-12.7-3.68-37.33-16.7-48.59c-0.5-0.3-0.5-1.11-0.7-1.91c-3.76,0-9.49-6.7-23.04-2.92c-2.03,0.41-1.28,0.09-2.82-5.73
		c2.56-1.97,0.69-3.2,2.31-4.83c6.02,8.03,3.48,7.61,7.95,4.93c2.89-2.1-1.13-6.83-3.22-9.96c1.1-1.46,2.59-3.33,0.6-3.72
		c-1.94,2.91-2.38,2.19-3.92-0.91c2.59-4.31,0.46-2.69-1.81-3.82c-2.52-5.73-3.2-2.65-2.38-5.01c3.78,2.05,4.42,3.08,7.31,3.9
		c-0.28-2.55-1.03-2.15,2.31-2.82c-1.21-0.8-2.31-1.41-3.12-1.91c-4.44-8.88,2.22-16.55,1.51-24.35c1.81-1.01,4.02-1.51,4.33-4.02
		c-0.5,0-0.91,0-1.31,0c1.29-1.19,1.8-3.05,3.54-3.59c0.6,1.04,1.4-0.23,2.09,0.17c4.4,5.13,8.94,6.63,8.55,9.15
		c-0.64,4.13,3.43,4.68,7.04,6.94c2.01,1.26,5,3.1,3.02,4.43c-1.51,0.8-2.52,2.41-4.43,2.11c-0.2,0.8,0.2,1.21,0.7,1.51
		c2.09,1.04,2.43-2.04,3.92-0.5c3.59,3.69-1.51,4.18-1.31,6.74c0.3,0,0.8,0.3,0.91,0.2c0.4-0.5,0.8-1.11,1.21-1.61
		c0.92-1.11,2.62-0.15,2.62,1.31c-0.46,4.41,6.98,6.07,2.82,9.76c-0.43,0.38-7.88,6.82-8.95,7.44c0,9.76,2.92,13.78,2.92,17
		c-2.52,0.7-5.23-0.5-7.85,1.31c3.84,1.2,27.91,16,37.63,16c-1.79-1.41-27.46-11.86-31.19-14.89c3.14-1.05,12.64,0.1,19.72,5.73
		c4.65,3.7,2.01-4.73-15.79-7.85c-0.1-0.7-0.3-1.31-0.4-1.81c2.55-1.62,11.49,2.9,15.09,5.23c15.42,10,12.62,12.98,13.98,12.98
		c2.13,0,10.86,11.09,8.35,19.82c-0.63,2.18-0.18,1.39,3.62,6.94c6.41,9.36,7.23,6.38,10.46,11.37
		c24.25,37.36,12.18,33.91,26.36,43.06c1.85,1.19,0.18,3.63,0.7,6.24c3.54-1.24,3.53-7.17-0.8-9.15c4.77-5.51,8.38,5.2,12.58,2.92
		c1.11-0.6,2.21-0.4,3.52,0c2.7,4.05-4.8,4.84-7.24,18.81c-0.98,5.6-0.35,5.31,0.2,6.14c2.52-3.79-0.73-10.52,10.56-22.84
		c-0.7-0.4-1.41-1.01-0.6-1.91c16.36-1.49,7.67-4.1,17.81-1.71c1.71,0.4,3.32,1.51,5.43,1.21c-2.73-4.86-13.83-3.27-3.42-6.14
		c6.82-1.88,13.27-1.31,31.89-1.31c3.96,0-0.16,1.31-0.7,11.67c-1.56,29.65,6.06,21.65-9.86,24.35
		c-29.29,4.97-33.37,10.61-23.74,6.74c10.81-4.35,30.5-6.91,34.51-6.34c0,4.42,0.65,4.73-2.52,6.14
		c-4.94,1.88-19.5,22.74-37.42,23.64c-24.17,1.21-47.25,11.96-52.61-0.2c-6.45-14.63-14.16-13.59-16.1-21.33
		c7.85-6.87,5.26-5.5,8.55,3.12c0.48,1.27,1.91,0.82,1.91-0.4c0-2.03-1.46-5.7-2.92-9.76c2.53-3.03,1.84-2.03,10.61-14.66
		c0.11,1.25,5.71,4.18,7.49,5.2c0.51,0.29,1.31,0.2,2.31,0.3c-0.4-0.7-0.5-1.21-0.8-1.41c-5.55-3.7-7.95-5.42-8.45-4.92
		c1.21-1.91,2.92-3.22,4.53-4.63c6.63,7.33,16.46,7.02,1.11-0.91c4.75-4.27,10.76-7.17,10.76-8.45c-2.37-1.02-1.97-0.25-2.92-2.62
		c-2.62-0.4-4.43,1.31-6.64,1.71c-2.07-2.07-12.01-11.49-13.18-8.85c1.53,1.87,8.63,6.45,11.17,10.26
		c-8.72,6.78-13.75,15.67-17.91,19.01c-7.64,6.16-6.77,12.91-8.95,15.49c1.14,3.15,1.5,2.83,0.7,4.43
		c-1.47,3.75,0.12,6.74,2.92,10.06c8.51,10.11,23.19-2.51-162.07,54.63c-7.96,2.46-5.23,2.29-15.59,7.14
		c-4.37,2.04-7.62,5.5-9.15,12.27c-0.82,2.05,1.41,8.76,2.72,11.67c2.21,4.92,12.36-1.86,27.56-4.12c1.41-0.21,2.72-1.11,4.12-1.71
		c1.01-1.81,2.62-1.51,4.12-1.41c1.16,3.02,1.35,3.71,2.92,3.32c3.85-1.28,20.78-0.21,25.35-3.12c0.63-0.4,11.59-0.08,12.07,0.4
		c-3.36,20.15-4.44,33.77-8.45,38.33c-2.39,2.72-5.95,10.29-6.74,11.27c-1.2,1.48-1.28,11.61-1.41,15.69
		c-1.13,3.38,17.66,0.11,18.61,0.2c0.6,0.1,1.21,0.8,1.71,1.21c3.4-1.91-0.75-14.17-2.41-17.3c-4.23-0.4-8.55,0.5-13.28-0.4
		c1.21-3.12,2.62-5.94,4.53-8.45c0.6,0.2,1.21,0.3,1.81,0.5c4.14-14.48,5.6-35.58,7.04-41.35c10.84-0.62,11.5-1.61,10.86,1.31
		c-5.7,26.38-5.38,51.48-1.11,19.21c0.37-2.78,0.36-2.02,3.12-1.71c-1.83,6.09,0.68,2.34,1.61,2.72c0,2.11-0.24,12.82,2.21,11.77
		c1.64-0.55-0.04-1.25-0.2-11.37c-0.06-3.8-0.49-5.43-0.5-5.53c-8.47,0-5.19,3.49-3.02-17.1c18.96-2.31,135.92-13.55,148.29-7.75
		c60.94,28.57,63.3,26.08,65.99,29.07c1.35,5.39-0.55,4.52,6.74,5.43c0.67,11.38,1.28,25.5,12.37,28.27c0.75,0.19,1.32-1.2-0.1-2.31
		c-2.66-2.09-10.25-6.55-10.16-16.3c0.02-2.14-1.69-5.29,0.1-9.46c5.14,7.51,6.52,11.24,12.88,11.87c1.68,0,4.91-0.87-0.6-1.81
		c-5.14-0.88-6.83-4.77-8.35-7.95c-4.76-9.98-12.56,3.39-11.07-11.97c0.44-4.53,5-3.38,6.34-3.82c1.21-0.4,1.71,1.01,2.82,1.01
		c0.6-1.31,1.19-2.71,1.01-4.02c-0.28-2.04,2.1-2.13,1.21-9.26c-0.49-3.91,0.38-31.37,0.4-33c0.01-0.5,0.1-1.21-0.91-1.61
		c-0.66,1.55-0.17,2.25-0.6,8.75c-0.5-0.4-0.6-0.8-0.6-1.21c0-15.54-2.07-12.19-8.15-12.27c-90.51-1.19-72.94,0.8-72.84,0.8
		c0.29,0,26.96,0.01,28.77,0.2c36.72,3.79,55.86-6.82,50,10.76c-2.97,0-1.95,0.63-3.82-3.12c-2.01-0.2-3.82-0.3-5.63,0.1
		c-1.81,3.62-1.41,7.04-0.1,10.46c1.61,1.31,3.52,1.51,5.33,1.61c3.6,0.51,1.46-4.63,3.62-4.63c0.68,0,0.8,1.64,0.8,2.11
		c0,38.29,2.44,31.42-3.32,28.97c-86.24-36.58-57.43-23.1-68.01-34c-27.03-27.86-28.82-25.91-21.83-25.96
		c69.42-0.48,49.11,0.1,57.14,1.11c62.14,7.8,50.9-10.02,59.86,9.96c-14.56,0-8.65,4.32-8.65,51.41c1.8,26.96-3.94,23.5,66.32,23.83
		c-0.05,0-0.18,0.44-0.02,0.92c0.35,1.06,0.93,0.26-0.3,2.31c2.91,1.16,2.62-0.6,2.62,15.69c0,2.41,0.04,3.84,1.31,3.12
		c0.46-1.53-0.28-2.37-0.6-16.1c-0.11-4.66,6.94-0.07,6.64-3.32c-1.81-0.8-4.02,0-5.83-0.5c-3.68-2.57-2.88-2.13-0.5-2.11
		c14.56,0.1,11.91,5.74,12.07,21.73c0.03,3.16,0.32,2.52-3.42,2.52c-10.37,0.58-11.44,1.52-20.72,1.31
		c-60.11-1.38-42.09,1.92-62.27-4.43c-2.36-1.18,0.09,4.77,13.18,5.94c0.82,0.07,37.04,1.54,70.12-1.21
		c10.43-0.86,3.23-7.92,5.13-19.62c2.44-15.05-46.52-5.59-73.14-9.15c-2.51-0.34-8.31-2.93,2.82-2.21
		c5.97,0.38,34.86,3.32,42.83,0.04c-0.95-0.61-2.06-0.45-3.09-0.45c-32.2,0-46.04-3.71-48.59,0c-2.8-3.8-2.11-6.6-2.11-13.88
		c1.01-0.2,2.01-0.3,3.42-0.6c-1.24-0.89-1.01-1.08-3.92-1.41c0.1-0.4,0.1-0.8,0.2-0.8c2.52-0.5,4.93-0.4,7.24,0.5
		c0.4,1.01-0.6,1.01-0.7,1.81c5.7,0,3.45,3.43,16.9,2.62c18.18-1.1,12.09-4.22,28.17-2.62c4.2,4.64,1.4,9.86,2.5,14.83
		c1.34-0.56,2.09-1.29,2.02-2.25c-0.81-11.23-0.18-7.47-1.01-10.36c-0.1-0.6-0.91-1.11-0.3-2.01c8.97,0.84,32.38-5.88,37.32-20.32
		C900.18,410.99,900.22,409.17,899.09,407.68z M581.09,235.75c0,0.59,0,1.11,0,1.62C580.81,236.85,580.56,236.37,581.09,235.75z
		 M556.64,157.08c0-0.11,0.1-0.26,0.29-0.29C556.83,156.89,556.74,156.98,556.64,157.08z M560.47,143.3c-0.36-1.44,0.6-1.35,0.6-0.4
		C560.97,143.1,560.77,143.1,560.47,143.3z M561.37,148.03c-0.32-0.64-0.2-0.61,0-0.8C561.68,147.84,561.82,147.57,561.37,148.03z
		 M561.57,136.86c0,0.1-0.31,0.25-0.6-0.2C561.04,136.55,562.18,135.03,561.57,136.86z M565.29,144.4c-0.1-0.8-0.1-1.31-0.3-2.11
		c1.21,0.1,2.01,0.4,3.02,1.01C567.41,144.2,566.4,144.1,565.29,144.4z M572.03,142.69c-0.6-0.6-0.48,0.25-0.7-2.62
		c0.91,0.7,1.6,0.91,1.71,1.31C573.23,142.09,572.84,142.69,572.03,142.69z M578.57,175.49c0.04,0.29-5.32,5.45-6.04,2.41
		c-0.29-1.21-0.4-2.52-0.7-3.82C574.15,174.58,576.26,175.09,578.57,175.49z M580.69,190.78c-5.5-2.75-4.25-1.83-7.85-3.12
		c-3.76-6.93-2.91-15.04-1.81-9.56c0.18,2.35,2.45,2.27,4.63,2.52c5.29,7.55,5.63,6.37,5.83,9.05
		C581.49,189.98,580.99,190.28,580.69,190.78z M580.49,123.48c0.67,0.22,0.79,0.42,0.1,1.11
		C579.74,124.02,580.13,124.55,580.49,123.48z M578.77,151.25c-0.21-0.41-0.09-1.19,0.4-0.2
		C578.98,151.14,578.88,151.14,578.77,151.25z M578.17,136.16c0.91-1.01,2.01,0.1,3.22-0.8
		C580.89,136.96,580.89,136.96,578.17,136.16z M581.19,147.62c-0.1,0.1-0.2,0.2-0.3,0.4C580.58,147.42,580.58,147.01,581.19,147.62z
		 M581.19,159.49c-0.61,0,0.1-0.4,0.2-0.3C582.05,159.55,581.34,159.49,581.19,159.49z M581.69,154.06c0,0-0.2,0-0.3,0.1
		c0-0.19-0.36-0.4,0.3-0.4C581.69,153.86,581.69,153.96,581.69,154.06z M586.42,122.37c0.27,0.27,0.27,0.16,0,0.7
		C586.04,122.7,586.42,122.94,586.42,122.37z M584.71,133.74c0.33,0.17,0.7-0.2,1.11,0.2C585.43,134.13,585.56,134.59,584.71,133.74
		C582.65,133.74,584.49,132.44,584.71,133.74z M585.72,148.53c-0.4-0.8-0.42-0.17,0-1.01C586.14,148.37,586.11,147.74,585.72,148.53
		z M585.72,144.3c0.1-2.62,0.1-2.62,1.51-4.93C587.33,141.08,586.72,142.29,585.72,144.3z M586.82,136.46c0,0.17-0.05,0.76-0.2,0.91
		c-0.56-1.13,0.14,0.89,0.5-3.52C587.73,135.15,587.73,135.95,586.82,136.46z M590.65,132.03c0.13-0.26,0.07-0.25,0.2,0H590.65z
		 M588.73,131.53c0.4-1.41-0.5-0.74,2.82-3.32C593.24,128.21,590.11,130.7,588.73,131.53z M592.05,122.67
		c-3.04-2.81-4.33-0.34-4.33-1.91c0.6-0.3,1.31-0.91,1.71-0.7c0.91,0.3,1.61,0.91,2.52,0.1C593.3,121,592.68,121.21,592.05,122.67z
		 M594.47,116.84c-0.46-0.91-0.34-0.47,0.2-1.01C595.1,116.7,595.11,116.52,594.47,116.84z M596.5,126.82
		c0.98-4.13,3.15-2.76,5.21-9.78C603.42,119.6,598.84,125.48,596.5,126.82z M690.14,289.67c0.63,0.32,1.81,1.05,1.11,1.61
		c-0.54,0.54-1.44-1.11-1.51-1.21C689.84,289.97,690.04,289.77,690.14,289.67z M689.24,292.29c-0.8,1.01-1.51,1.61-3.02,2.11
		C685.06,291.7,684.7,292.29,689.24,292.29z M552.72,470.45c0.6,3.82,2.21,7.55,2.01,11.67c-4.12,1.01-13.38,1.51-17.4,0.8
		c-0.46-2.48-0.35-13.28,1.11-13.28C541.05,469.35,549.4,469.85,552.72,470.45z M792.15,394.9c0.5,3.02,0.6,8.55,0.1,11.67
		C791.85,402.35,792.05,398.62,792.15,394.9z M781.89,396.91c-4.73-11.83,6.42-8.12,3.02-5.33
		C787.64,396.14,787.12,398.31,781.89,396.91z M860.46,374.88c0.91-0.2,1.51,0.4,2.11,0.91c19.45,14,13.94,8.29,23.64,20.52
		c3.84,4.84-8.77,13.79-14.49,13.08c-8.41-7.31-7.2-5.92-8.75-6.54c-3.74-1.49-1.89-2.79-6.54-8.55c-0.4-0.5-1.01-0.91-0.3-1.91
		c1.71,0.8,3.32,1.71,5.03,2.52c0.91-0.91-5.43-3.87-6.24-5.13c-3.25-5.06-11.53,3.69-12.78-4.23c0.8,0,1.41,0,2.11,0
		c-0.4-1.81-0.4-1.81-3.42-3.02c-2.02-4.71-0.68-3.29,3.42,0.8c2.21-0.6,3.72,1.11,5.83,1.91c17.64-14.11,8.54-7.08,6.44-13.08
		c-0.5,0-0.6-0.3-0.6-0.7C857.64,373.17,858.05,371.73,860.46,374.88z M837.82,373.57c1.89,0.69,2.3,1.11,3.39,3.36
		C839.51,376.3,838.9,374.75,837.82,373.57z M833.6,351.54c2.39,1.19,22.85,23.68,23.74,24.95c-12.49,11.45-4.43,5.18-10.76,3.42
		c-0.35,1.4-0.39,1.22-0.1,1.51c-0.24,0-0.2-0.04-0.2-0.3c0-0.45-2.13,0.9-3.52-2.82c-0.5,0.1-0.7-0.2-0.7-0.7
		c-0.59,0.1-0.79-0.1-0.7-0.59c0.93,0.07,0.34,0.76,1.41,1.3c0.34,0.15,0,0.2,1.21-0.4c-0.41-1.66-3.91-4.96-4.83-5.73
		C835.45,369.08,832.63,356.22,833.6,351.54z M755.13,336.35c7.9-5.8,7.01-8.11,11.37-9.46c1.35-0.42,4.15-1.98,3.62-4.33
		c-0.11-0.5,0.4-1.21,0.6-1.91c7.79-0.39,13.08-7.63,17.1-8.25c13.39-2.07,13.35-3.17,14.39,20.22c-2.41,2.31-5.73,1.81-8.35,3.32
		c-2.09-1.04-2.04-3.69-2.82-5.03c-2.72-4.69-3.18-0.1-28.47,4.93C752.32,337.89,748.63,341.13,755.13,336.35z M774.65,335.04
		c11.76-3.62,14.75-6.71,15.19-1.01c0.21,2.77-0.8,4.91,1.01,9.86c1.65,4.51,5.39,11.34,5.73,11.57c2.72,2.21,4.43,5.53,7.34,7.75
		c0.1,0,0.1,0.2,0.1,0.3c0,0.68-41.61,0.25-42.86,0C761.92,332.21,758.18,340.11,774.65,335.04z M791.85,337.16
		c1.51-1.21,2.72,0.1,4.02,0.1c1.55,5.31,0.35,6.62,2.25,15.1C795.2,349.06,790.77,341.2,791.85,337.16z M684.71,296.01
		c-0.8-0.91-1.31-1.51-2.01-2.21C684.1,294,684.1,294,684.71,296.01z M665.19,311.81c1.01,0.6,1.91,1.21,3.02,2.01
		c0-1.71-1.51-2.01-1.81-3.12c1.57-1.57,0.93-0.89,2.11-0.1c2.61,1.74,0.36-1.06,0.6-2.21c1.62-1.62,4.81,2.68,2.51-1.91
		c4.48-7.46,7.33-7.76,7.75-9.26c0.28-1.01,1.21-1.61,2.31-2.21c2.48,2.06,2.62,0.9-2.82,6.14c-3.27,3.15-12.01,18.14-14.89,17.5
		c0.91,1.37,0.48,1.43-2.31,4.23C657.08,322.87,662,315.11,665.19,311.81z M659.56,323.68c0.11,0,0.27,0.13,0,0.4
		C659.36,324.08,659.36,323.68,659.56,323.68z M658.75,334.24c-0.61-0.9-0.6-0.91-0.5-3.02c8.58,4.29,16.4,17.16,16.4,18.31
		C673.82,349.53,662.75,340.12,658.75,334.24z M511.17,414.92c-7.42,1.81-6.02,4.15-8.95,3.42c-0.93-2.41,0.82-5.03-1.31-5.03
		c-0.8,1.71-0.1,3.62-0.6,5.63c-7.44,1.61-14.49,4.43-21.83,5.94c-22.25-28.86,37.46-28.62,187.92-78.77
		c1.9,1.9,6.41,5.51,8.55,6.94c3.36,2.52,3.07,0.42,6.54,1.91c7.74,2.71,13.83,0.16,18.61-1.21c2.56-0.93,4.87-0.78,2.31,0.5
		c-42.98,17.19-22.5,6.66-86.92,29.17c-8.93,3.12-4.06,1.46-7.44-6.24c-1.56,0.17-1.33,1.45-0.5,3.92c1.13,4.89,2.63,4.17-2.01,5.33
		c-1.31-2.01-1.41-4.43-2.52-6.74c-0.3,0.5-0.7,0.8-0.7,1.21c0,6.92,7.73,4.83-11.97,9.76c-10.14,2.53-16.93,6.17-18.81,5.73
		c0,0.14-0.53-0.68-1.34,0.05c-0.65-0.65-1.42,1.36-2.38,1.36c-3.46,0.69-1.91,1.82-7.95,3.22
		C513.75,411.75,526.32,411.22,511.17,414.92z M571.45,396.51c-0.41,0.56-0.76,0.27-1.18,0
		C570.67,396.51,571.06,396.51,571.45,396.51z M723.44,400.74c16.23,7.95,17.74,9.38,57.04,25.25c10.3,4.16-0.13,0.89,0.1,9.56
		c-22.64-7.55-43.96-17.1-65.69-26.66C722.86,403.33,719.62,399.21,723.44,400.74z M717.91,395c1.48,1.64,1.51,3.52,0.6,5.43
		c-5.45,11.44-14.76,5.73-22.53,5.73c-105.87,0-262.14,28.09-132.79-3.62c2.84-0.7,18.21-6.98,27.26-9.26
		c30.31-7.63,54.93-18.35,72.43-22.84c2.4-0.62,2.82-0.59,3.52,3.02c5.25,26.94,5.32,25.83,5.94,27.06c1.97,0.74,1.05-2.01,0.5-4.12
		c-8.4-32.7-7.95-25.45,0.3-28.67c17.9-6.99,11.83-3.25,15.19-1.31C693.16,369.22,710.32,386.63,717.91,395z M749.8,363.41
		c-1.01,0.1-1.91,0.2-2.82,0.2c-62.92,0-78.9,4.99-30.38-11.67c2.06-0.71,7.93-0.87,12.37-1.21c1.95-0.15,4.81-1.11,5.73-0.8
		c1.39,0.35,8.48-4.53,9.66-5.83c2.14-2.37,5.09-1.95,5.83-1.21C750.59,343.28,749.89,359.69,749.8,363.41z M759.15,362.01
		c0.02,3.53-1.37,2.75-5.94,3.02c-1.78-2.84-1.51-4.2-1.51-23.04c2.31-1.51,4.73-2.92,8.05-3.12
		C759.76,345,759.02,343.55,759.15,362.01z M760.06,366.94c3.04-2.53-1.67,0.27,47.18-1.81c0.1,0.3,0.3,0.6,0.7,1.21
		C791.95,367.24,776.26,367.74,760.06,366.94z M798.89,336.35c9.31-3.72,2.88-3.36,5.13-11.97c0.61-1.93-0.51-9.88-1.81-12.47
		c-1.07-1.6-1.25-1.17-1.61-3.32c-3.43-0.45-10.79,1.57-13.18,1.21c-2.05-0.31-9.27,6.6-16.8,8.75c-3.73-17.81-2.52-27.26,0.2-36.52
		c1.76-0.22,0.03-0.26,11.57,0.8c5.14,0.47,7.29-1.56,17.5,1.11c2.31,0.6,4.73,1.28,7.14,1.11c1.71-0.12,3.42,1.01,5.13,0.3
		c1.11,0.6,2.21,1.21,2.72,2.52c6.14,15.79,2.19,16.7,6.74,18.41c4.44,14.43,3.04,0.68,6.24,20.42c4.23,26.12,0.44,20.43,5.63,40.04
		c7.31,27.64,0.27,0.41,9.05,26.76c-4.43,4.43-9.66,5.03-15.19,3.82C801.49,346.57,797.83,356.57,798.89,336.35z M807.04,428.3
		c-0.21-1.68-1.22-40.42-0.91-47.69c2.62-2.21,5.13-3.22,8.25-2.62c3.72,5.89,7.64,12.32,6.74,16.8c-2.21-0.3-4.23-0.5-6.24-0.8
		c-2.41,1.31-1.01,4.23-2.72,5.73c1.54,5.54-0.26,10.54,0.1,17.3c0.27,4.92-5.48,6.57,0.2,9.36
		C817.64,428.93,816.88,426.94,807.04,428.3z M817.5,413.71c-2.22,11.42-0.99,12.99-5.43,10.16c1.62-3.64,2.14-3.6,2.31-6.14
		c1.4-20.87-0.5-21.83,2.72-21.83c1.87,0.23,1.01,2.31,1.01,3.42C817.51,405.91,819.49,403.48,817.5,413.71z M897.78,412.41
		c-10.02,13.77-15.96,13.13-24.04,16.3c-8.65,3.38-15.58,1.17-24.65,1.31c-5.86,0.09-10.06,3.72-19.82,2.72
		c-4.17-0.43-9.09,0.88-12.47-2.31c3.18-8.27-0.43-1.14,1.01-10.26c1.77-11.22,2.31-7.38,2.31-11.87c0-5.88-1.2-7.56-0.2-9.56
		c2.78-0.51,2.59,1.3,4.12,1.91c5.75,2.76,5.62,5.95,8.65,6.64c15.94,3.63,14.82-2.48,15.49-8.85c-1.63-1.36-1.62-2.36-2.31,3.82
		c-0.32,2.82-1.21,3.72-4.12,3.92c-2.92,0.2-5.83,0-8.85-0.91c-5.23-6.28-11.09-5.21-10.26-10.56c1.82,2.43,2.78,4.53,6.34,5.03
		c6.98,0.97,15.45-1.42,15.79-8.05c0.46,0,0.92,0,1.3,0c-0.12,1.78-0.89,3.55-0.29,5.33c0.5,0.1,0.8,0.1,1.11,0.2
		c0.54-4.31,1.26-5.73-0.58-5.65c1.4-1.47,3.25-1.29,5.11-1.09c2.11,1.71,2.92,4.43,4.93,6.24c-0.7,1.91-1.37,3.63-2.01,5.33
		c-1.76,4.67,0.25,6.81,1.21,5.53c4.38-6.56-0.12-6.58,6.64-2.72c-0.43,1.87-1.03,3.78-0.6,4.63c0.46,0.93,1.74,1.11,2.21,0.4
		c1.58-2.84,0.63-3.74,3.62-0.8c4.53,4.45,11.59,2.29,16.1-2.21C887.52,402.85,898.48,403.99,897.78,412.41z"/>
	<path d="M431.59,402.15c7.93-13.69-33.22-30.77-41.85-39.94c-1.8-1.54-11.7-11.93-12.98-13.28c-3.26-22.82-0.14-24.21-11.17-46.28
		c-1.85-3.7-0.45-7.08-5.13-14.59c-3.02-4.84-3.57-2.46-4.63-3.52c-2.83-2.83-55.97-6.36-70.32-4.43c-14.87,2-15.73,7.66-23.44,7.44
		c-17.87-0.5-19.49-1.11-25.85,1.11c-2.25,0.78-7.37,3.1-8.05,3.02c-2.97-0.35-13.07,11.87-20.02,11.87
		c-3.24-0.25-2.82,1.01-4.93,1.01c-22.01,0-49.1,3.67-69.01,13.78c-8.36,4.25-12.39-1.07-24.75,3.22
		c-6.36,2.21-16.92,6.75-21.33,12.47c-1.15,1.84-5.53,4.38-8.05,9.96c0,0.66-7.11-0.2-7.75-0.3c-7.05-1.12-5.7-2.62-6.14-3.72
		c-2.14-6.66-3.08-13.74-9.66-10.56c-1.71,0.68-1.15,0.89-2.62,0.4c-3.29-1.56-4.47,0.5-5.94,0.5c-1.61-1.21-1.03-1.2-4.33-0.1
		c-6.57-4.38-3.99,0.11-13.98,4.73c-3-2.7-6.28,0.03-10.76,2.52c-4.07,2.26-3.59,0.51-6.74-4.93c-0.2-0.5-1.01-1.21-1.11-1.11
		c-1.11,0.5-1.71-1.01-2.62-0.5c-1.94,1.08-4.63-0.81-5.33,2.72c2.19,3.66,0.8,4.2,0.8,3.12c-1.8-0.36-1.43-0.97-3.32,3.12
		c5.44,3.27,1.76,1.78,1.41,3.52c-0.67,4.7-1.46,0.33,0.2,8.65c0,0.83-0.28,0.57-1.91,0.3c-0.34,0.85-0.64,0.88,0.4,2.62
		c4.66,6.58,0.66,7.87,3.42,13.08c1.51,2.85-1.13,1.83-1.01,3.22c1.43,1.43,2.11,1.29,2.62,3.22c2.26,8.64,5.74,4.9,4.53,9.76
		c0.91,0.3,1.61,0.6,2.21,0.91c0.1,0.6,0,1.51,0.3,1.61c1.61,0.72,2.11,3.28,3.62,2.72c2.69-4.03,0.51-0.23,6.04,0.2
		c3.26,0.25,2.23,4.9,7.44,5.13c2.83,4.6,4.11,3.58-4.33,6.84c-5.53,2.14-8.65,6.72-9.96,12.47c-0.46,3.23,1.32,8.47,2.62,11.47
		c1.42,3.29,2.86,2.54,7.75,1.31c31.31-7.9,24.84-8.47,28.77-6.14c10.9,6.47,11.53-5.37,39.94-1.31
		c-4.31,24.15-2.71,31.34-15.49,49.8c-0.41,0.6-1.67,11.21-0.8,16.4c6.34,1.31,12.27-0.1,18.41-0.91c5.26,5.26,2.53-10.48-0.91-16.2
		c-13.13,0-10.66,0.13-13.08-0.4c1.31-3.22,2.82-5.83,4.33-8.25c0.78-0.23,2.52,0.93,2.52-1.01c0.71-6.57,2.49-9.54,3.92-20.42
		c2.38-18.03,1.89-18,2.92-19.42c10.77-1.2,11.21-0.71,10.76,1.11c-0.63,2.57-6.64,33.9-3.92,33.9c1.5,0,1-1.97,3.12-16.8
		c1.01,0.2,1.91,0.4,2.62,0.5c0.2,1.31-1.01,2.31-0.1,3.52c4.18-2.78,0.65-2.47,2.72,10.06c0.12,0.7,0.6,1.21,1.51,0.91
		c0.81-0.91-1.14-16.58-1.21-16.9c-6.91-1.54-6.15,5.72-2.92-17.3c4.92,0,132.78-14.79,148.79-7.24
		c72.83,34.36,63.92,24.09,65.59,30.78c1.19,4.74,3.18,1.46,6.44,3.42c0.61,10.61,0.06,22.96,12.47,28.37
		c2.22-3.8-8.83-5.06-10.16-16.2c-2.03-16.97-0.56-12.9,4.53-5.23c3.89,5.87,10.78,5.67,10.56,3.72
		c-8.72-1.74-8.89-3.36-12.68-11.87c-3.02-1.81-6.24-0.3-8.95-1.41c-1.77-2.57-1.96-15.27,8.25-10.16c1.02-1.53,1.34-3.44,1.21-4.33
		c-0.3-2.07,2.12-1.71,1.21-8.95c-1.19-9.44,1.74-33.84-0.6-34.31c-0.48,1.53-0.77,3.01-0.95,4.32c-0.17-2.03-0.47-4.69-0.96-8.15
		c-5.11-3.98,3.31,1-52.61-2.41c-1.13-0.07-27.97,0.59-28.07,0.6c-6.44,2.15,16.49,1.23,29.98,1.81c41.39,1.8,46.79-1.9,49.4,2.01
		c0.8,6.24,0.8,6.24,0.1,8.55c-2.55,0-2.12,0.56-3.62-2.82c-2.01-0.5-3.82-0.6-5.73-0.2c-1.71,3.72-1.51,7.24,0.1,10.66
		c10.23,4.96,6.19-2.58,8.55-3.42c2-0.71,1.4,31.52,1.11,33.6c-2.96-3.77-58.66-24.67-68.21-30.58c0-3.29-1.66-4.27-10.46-13.08
		c-28.79-28.79-27.56-15.85,35.71-17.81c-2.51-0.5-58.74-1.04-0.4-1.21c10.43-0.03-6.06,2.79,46.18,2.52
		c18.37-0.1,15.36-3.42,18.61,4.02c0.7,1.61,1.91,3.12,2.31,5.13c-2.76-0.15-9.57-1.36-9.46,6.44c1.27,84.01-6.33,68.02,66.4,68.51
		c0.6,0,0.64,0.58,1.51,2.62c-0.84,1.68-2.04,0.74,1.61,2.11c0.89,9.76-0.62,16.18,1.31,18.11c0.93-1.52,0.41-1.29-0.3-16.5
		c-0.63-4.41,7.04-0.54,6.64-3.32c-1.91-1.01-4.12,0-6.14-0.7c-0.6-0.6-1.31-1.41-2.21-2.31c4.67-0.93,9.81-0.38,12.78,3.32
		c1.25,1.56,1.08,18.79,0.91,20.22c-16.59,1.33-12.06,1.21-15.39,1.31c-64.62,1.83-58.23-0.1-69.62-3.72
		c-0.61-0.19-1.21-0.7-2.11-0.1c4.76,7.15,22.54,5.94,65.69,5.94c8.68,0,11.67-1.6,20.42-1.51c6.96,0.07,1.74-11.13,3.22-19.62
		c3.12-17.93-69.75-2.33-77.06-11.47c12.65-0.79,18.37,1.3,49.09,1.01c0.76-0.01,0.71-1.11,0.8-1.41
		c-42.83-0.96-46.3-3.55-51.81-0.4c-2.68-3.06-2.01-6.76-2.01-13.38c7.42-2.02,0.42-0.77-0.6-2.92c2.72-0.3,5.23-0.5,8.45,0.8
		c-0.91,0.4-1.31,0.6-1.61,0.8c0.52,1.95,1.53,0.06,2.62,0.6c11.16,7.31,29.41-2.08,42.66,0c3.73,3.9,1.79,7.92,2.62,14.49
		c1.51-0.2,1.91-0.4,1.91-1.41c0-13.31-2.7-12.68-0.5-12.68c6.11,0.45,11.47-1.87,19.72-4.73
		C436.82,424.64,455.98,406.21,431.59,402.15z M3.94,339.87c-0.96-0.64-0.75-0.66-0.3-1.11C4.33,339.46,4.33,339.48,3.94,339.87z
		 M95.79,470.35c1.03,4.33,2.73,9.44,2.21,12.27c-5.73,0.8-11.27,1.11-17.1,0.91c-1.11-2.83-0.4-5.97,0.2-13.78
		C81.98,469.78,76.93,469.6,95.79,470.35z M335.32,394.5c0.7,3.02,0.8,8.35,0.3,12.07C335.02,402.45,335.32,398.83,335.32,394.5z
		 M325.06,397.22c-0.7-2.52-1.21-5.03-0.1-7.75c5.8-0.97,3.23,2.34,3.23,3.02C328.52,391.82,333.22,399.7,325.06,397.22z
		 M401.72,372.97c20.83,13.88,41.8,27.27,17.91,36.02c-4.47,1.64-4.12,0.76-11.37-5.23c-0.91-0.91-4.15-0.64-5.03-4.23
		c-0.98-4-4.9-5.44-3.62-7.14c1.71,0.5,3.02,1.91,4.83,2.31c0.68-1.59-5.32-2.78-6.94-6.04c-3.12-0.3-6.14-0.4-8.75,0.8
		c-2.31-1.51-2.31-1.51-2.92-3.82c2.25,0,2.4,0.47,1.61-1.91c-3.92-1.18-2.73-0.33-4.12-3.82c0.78-0.08,0.76,0.05,2.92,2.21
		c1.32,1.64,0.72,1.92,3.22,1.21c4.83,2.6,3.11,3.09,9.56-2.62c0.94-0.83,6.95-5.13,4.63-5.13c-2.21-0.2-3.22-2.01-4.63-3.32
		C400.11,371.86,400.81,372.67,401.72,372.97z M376.77,351.54c8.25,8.65,16,16.8,23.84,25.15c-10.83,9.96-5.2,6.54-10.97,3.82
		c-0.1,0.4-0.2,0.7-0.4,1.31c-0.5-0.2-1.11-0.3-1.51-0.7c-7.53-7.53-6.54-6.72-6.34-7.55c2.13,1.35,3.36,4.36,5.33,4.93
		c0-0.5,0.1-0.91-0.1-1.11c-7.33-8.3-6.47-4.45-9.56-17.3C376.44,357.48,376.06,354.96,376.77,351.54z M205.64,319.45
		c0.42-6.26-0.31-4.76,3.62-6.24c-1.51-0.1-2.31-0.1-3.02-0.2c-0.8-1.31,0.3-2.31-0.2-3.62c3.26,0,2.75-0.1,0.4,2.01
		c1.61-0.2,2.62-0.4,3.72-0.5c0.25,1.43,0.43,2.74,0.56,3.91c0.15-1.89,0.38-4.21,0.75-7.03c-10.61,0.59-2.02-1.19-0.2-3.62
		c0.57-0.86,4.26,0.05,12.07-7.14c3.32-3.06,14.03-8.19,26.06-7.34c29.42,2.06,11.95-5.97,33.1,0.2c4.4-2.93-31.18-7.65,26.96-7.65
		c7.08,0,1.84-0.57,1.21,11.47c-1.48,28.19,6.02,22.37-9.26,24.35c-0.51-3.05-0.49-3.47,0.8-9.26c1.37-6.13-1.51,0.07-1.62,6.34
		c-0.05,2.64,0.69,3.45-4.53,3.82c-25.88,1.83-5.41,7.85-55.33,7.85c-3.2,0,3.02-3.31,3.45-4c0.14,0.14,0.12-0.55-0.73-0.24
		c-2.43,1.17-10.41,5.63-7.24,5.63c61.4,0,23.89-6.21,75.15-10.36c1.11,1.31,0.3,2.92,0.7,4.12c-0.5,1.41-1.51,2.01-2.62,2.41
		c-4.94,1.81-4.67,5.07-13.38,11.47c-20.48,15.03-14.95,12.32-32.39,13.88c-2.87,0.26-3.09,0.71-2.72,2.21
		c-5.92,4.05-8.14,6.18-12.47,5.13c-2.59-0.63-17.66-2.31-18.81,0c2.51,0.86,19.54,0.72,6.74,2.21c-5.81,0.68-5.51,1.06-9.15-0.1
		c-12.58-4.02-12.02-7.22-17.1-9.26c-0.2-1.01,0.5-2.11-0.6-2.92c0-18.9,3.27-23.03-0.5-15.49c-2.71,0.39-3.56,0.08-0.3,1.01
		c0.3,1.71-0.6,3.32-0.6,5.03c-0.8,0.1-1.51,0.3-2.41,0.5c2.96,2.22,2.11,0.58,2.11,4.33c-3.75,0.23-5.03,0.51-5.03-0.3
		c-0.2-2.41,0.5-9.26,1.11-11.67c0.2-0.12,9.37-0.69,0.2-2.21c-0.39-2.29,0.41-4.41,0.92-6.62
		C210.96,320.38,206.19,320.37,205.64,319.45z M313.29,322.67c-0.11-0.4,0.2-1.01,0.4-1.71c5.23-0.5,9.27-3.4,13.28-6.44
		c2.72-2.06,3.32-2.21,12.58-3.02c6.27-0.9,5.49,14.44,5.94,21.43c-2.72,2.01-5.83,1.91-8.35,3.22c-2.81-1.31-2.52-8.75-7.44-6.64
		c-8.4,3.6-18.9,5.47-27.46,7.24c-6.63,1.37-5.72,3.12-7.24,2.21c12.68-9.97,11-10.9,14.99-12.17
		C311.07,326.52,313.89,324.93,313.29,322.67z M316.71,335.95c12.24-3.15,15.86-7.59,16.5-1.91c0.34,2.97-1.1,6.05,1.61,11.87
		c0.05,0.1,4.68,9.49,5.03,9.86c10.3,10.7,10.5,8.51,0.2,8.55c-11.77,0.05-23.54-0.1-35.61-0.5
		C305.46,335.03,301.32,339.9,316.71,335.95z M341.56,352.55c-0.2-0.1-0.7-0.1-0.91-0.3c-3.9-6.5-5.95-9.24-5.73-14.69
		c1.41-1.11,2.82-0.1,4.23,0.1C340.67,343.34,339.15,343.31,341.56,352.55C342.27,353.97,341.56,353.54,341.56,352.55z
		 M146.99,387.76c-0.04,0.02-23.06,6.3-32.19,9.86c-1.69,0,3.32-1.46,8.85-8.55c11.7-2.38,19.63-8.31,25.65-13.58
		c0.25-0.25-0.13-1.93,2.62,10.66c-0.91,0.91-2.01,1.11-3.22,1.21c-1.31-2.01-1.41-4.43-2.31-6.44
		C144.44,381.13,145.57,383.49,146.99,387.76z M149.95,374.8c4.59-4.92,7.45-8.32,13.34-8.87c0,2.78-0.29,1.28,2.41,0.6
		c2.28-0.57,1.76,1.03,14.69-3.82c0.2-0.1,0.3-0.5,0.5-0.8c-1.01-0.6-1.81-0.09-2.72,0.2c-31.71,10.2,10.6-9.64,16.2-7.24
		c-0.84,0.84,0.08-0.04-3.72,1.41c-4.14,1.58-3.2,1.62-1.61,2.41c0.3,2.92,0.7,6.14,3.12,9.36c-0.8-3.72-2.01-6.64-1.81-9.96
		c3.44-1.72,9.69-2.48,10.86-4.83c1.01-3.54,1.89,0.7,7.34-1.31c0.73,1.05,1.64,8.8,4.33,13.28c0.48-2.97-2.31-8.26-1.71-10.97
		c3.38,0.92,1.42,5.97,4.02,6.84c0-1.31,0-2.52,0-3.92c19.77,9.41,18.02,1.34-33.4,18.91c-7.65,2.61-26.46,8.95-28.27,9.56
		C151.48,380.99,152.25,374.97,149.95,374.8z M205.14,347.02c0,0.5,0,0.91,0,1.31c-2.52-0.1-1.71-2.21-2.41-3.62
		c1.71-0.7,3.22-0.4,4.93-0.2C208.01,346.64,208.85,346.55,205.14,347.02z M208.26,349.03c0.1,0.2,0.53,0.7,0.1,0.7
		C207.52,349.73,208.14,349.26,208.26,349.03z M16.11,339.87c7.84-2.19,8.83-6.02,12.47-3.92c2.57,1.48,4.56-1.51,7.85-3.92
		c1.06-0.78,5.43-4.38,5.43-1.01c0,1.41,1.31,2.62,0.2,4.02c-0.8,0.8,2.55,1.46,2.21-1.21c-0.42-2.09-1.82-1.28,2.41-2.82
		c3.36,3.36,2.94,5.31,4.43,3.82c-0.5-0.8-0.91-1.71-1.41-2.52c0.44-1.62,1.94-1.65,3.42-0.91c1.91,0.76,2.84-0.35,4.93-1.11
		c4.22-1.54,4.26,2.81,7.65,12.98c4.79,2.39,2.65,1.23,16.5,3.82c0.85,0.99-1.71,4.13-1.71,7.04c0.71,0.59,25.79-19.46,28.87-27.16
		c-1.49-0.21-9.19,9.99-24.86,22.26c-0.26-2.38,4.34-10.98,12.38-15.72c6.17-3.64-2.13-3.24-9.96,6.94
		c-3.83,4.98-1.94,4.61-4.83,4.12c0-1.89,2.09-4.28,3.42-5.63c6.36-6.46,11.07-8.73,19.92-13.08c3.9-1.92,3.83-0.41,4.53-1.11
		c0.7-1.63,7.35-2.74,8.65-2.82c11.23-0.66,9.48,0.7,12.27-0.5c1.93-0.83,5.43-0.59,6.34-2.41c1.47-2.45,8.79-4.57,11.87-5.13
		c15-2.73,10.05-6.3,50.3-7.14c2.95-0.06,2.73-0.38-0.4,2.01c-3.61,2.76-4.57,2.69-4.93,4.12c1.99,0,3.68-1.51,10.46-5.43
		c-1.93,27.03-0.88,6.81-3.92,34.51c-0.42,3.81,0.78,3.8,1.21,7.24c-5.37,2.68-16.44,3.32-33.8,11.57
		c-13.37,6.35-5.25,1.84-4.33-3.22c-1.25-1.87-2.36,0.66-6.54,6.34c0.1,0.3,0.2,0.7,0.3,1.31c-0.5,0.6-1,1.52-1.81,1.91
		c-6.53,3.12-8.75,10.71-24.75,16.9c-0.4,0.2-0.8,0.6-1.41,0.1c14.16-12.39,3.32-40.46-38.23-31.69
		c-10.47,2.21-7.93,3.94-11.87,3.22c-1.61,3.76-5.25,3.41-8.05,9.66c-4.73,10.56-2.53,9.53-4.02,11.77
		c-9.95-1.11-3.72-2.48-9.56-4.33c2.08-1.39,5.3-1.42,7.44-2.01c1.62-0.45,1.01-2.11,1.01-2.21c-1.43-5.09-3.44-3.68-10.86-2.62
		c-1.01-0.91-1.11-3.12-3.12-2.01c1.63,3.38,0.72,3.22-2.62,3.22c-4.13-4.56-2.45,1.4-5.13,0.7c-3.07-0.8-3.09,2.08-4.33,0.1
		c1.31-2.31,4.53-2.62,5.83-5.03c-0.2-0.8-1.01-0.4-1.61-0.8c0-2.81,0.11-2.41-0.4-2.41c-5.63,7.74-19.89-7.98-24.24-8.55
		c0-2.97-1.02-6.83-2.82-5.03c-1.03-0.34-1.8-4.63-1.9-4.67C15.37,340.98,15.66,340.51,16.11,339.87z M55.85,381.62
		c0.9-0.1,6.02-1.17,7.24-2.01c1.46-1.01,4.81,0.02,3.62,1.51c-4.52,4.52-6.42,8.57-17.4,3.52C53.6,385,53.75,385.83,55.85,381.62z
		 M48.5,382.53c1.91-2.72,4.23-6.69,4.23-4.93C54.77,384.72,53.57,383.61,48.5,382.53z M38.95,368.44c-0.26,0-0.23,0.05-0.1-0.2
		L38.95,368.44z M33.72,366.23c-0.56,0-0.53-0.16-0.6-0.3C33.36,365.68,33.42,365.63,33.72,366.23z M29.59,366.83
		c0.2,0.1,0.3,0.3,0.4,0.4c-0.66,0.66-0.3,0.41-0.6-0.2C29.29,366.94,29.59,366.83,29.59,366.83z M29.59,359.49
		c0.86,0.43,0.05,0.76-0.1,0.6C28.71,359.71,29.47,359.37,29.59,359.49z M27.78,364.22c-0.2,0-0.4,0.2-0.4,0.3
		c-0.2-0.2-0.3-0.4-0.5-0.6C27.33,363.92,27.02,363.46,27.78,364.22z M18.22,353.45c-0.41-0.41-0.77,0.07-0.2-0.5
		c0.53,1.06,0.92-0.2,2.01,1.71C19.03,354.46,19.03,354.46,18.22,353.45z M19.73,370.25c-1.21,0.8-1.91,0.4-2.52-0.6
		C18.85,368.43,18.39,368.01,19.73,370.25z M16.71,348.73c0,0.1-0.1,0.1-0.1,0.2c0-0.1-0.1-0.2-0.1-0.3
		C16.51,348.51,16.71,348.28,16.71,348.73z M5.55,355.97c-0.12-0.17-0.92-0.6,0.1-1.11C6.19,355.27,6.15,355.06,5.55,355.97z
		 M6.75,349.73c-0.25-0.25-0.31-0.2,0.2-0.2C6.86,349.63,6.86,349.63,6.75,349.73z M6.35,345c0,0.91-0.2,1.71-1.01,2.31
		C4.84,345.61,4.84,345.61,6.35,345c0-0.6-0.1-1.21-0.3-1.81C8.07,342.09,9.53,345,6.35,345z M9.77,378.3
		c-0.47,0-0.17-0.22-0.5-1.21C10.44,377.87,9.97,378.11,9.77,378.3z M7.76,333.23c1.85-1.62,6.26,4.49,7.08,8.13
		C12.06,340.23,13.07,336.46,7.76,333.23z M13.8,346.11c1.11,1.51,1.51,2.72,1.71,4.83C14.3,349.23,13.49,348.12,13.8,346.11z
		 M15.21,381.12c-0.47,0-0.84-0.29-0.2-0.6C15.1,380.52,15.58,380.75,15.21,381.12z M15.1,355.67c0.5-0.5,0.91-1.01,1.31-1.51
		C16.51,355.06,16.51,355.06,15.1,355.67z M16.21,362.31c-0.8-1.31,0.1-2.01,0.3-3.02C18.25,359.29,17.08,360.79,16.21,362.31z
		 M16.51,376.69c0.5-1.11,0.91-1.91,2.41-2.52C18.33,378.04,19.02,377.05,16.51,376.69z M19.43,382.23c0.8-0.4,0.55-0.46,1.01,0
		C20.15,382.51,19.83,382.63,19.43,382.23z M22.65,354.86c1.01,0.91,2.01,1.81,3.02,2.62c-0.4,0.8-0.8,0.6-1.11,0.3
		C21.82,355.38,22.07,355.45,22.65,354.86z M43.98,418.96c0,0.05,0,0.08,0,0.09c-4.23,1.81-19.21,5.83-22.33,6.04
		c-4.84-6.05-4.81-15.41,2.92-20.93c1.11-0.93,3.81-1.66,5.63-2.62c5.48-2.86,5.3,0.51,7.44,3.82c-3.11,1.78-5.29,1.24-7.14,3.22
		c0,1.76,2.17-0.23,1.61,3.12c1.55-4.13,1.61-2.79,5.43-4.23c0.75,5.27-0.22,7.81,1.61,1.11c0-1.69,3.73,3.23,4.83,4.12
		C43.98,417.31,43.98,418.63,43.98,418.96z M49.11,417.94c-3.08,1.32-4.62,2.26-3.52-3.22c1.81,1.01,1.52,1.14,4.83,2.62
		C50.11,418.14,49.51,417.74,49.11,417.94z M61.78,421.06c-4.1-2.16-7.91-4.46-9.56-5.13c-12.19-5-23.07-32.87-26.36-29.58
		c0.87,4.35,1.95,3.42-2.21,1.11c-1.87-1.66-1.46-4.2-0.6-4.63c1.48-0.59,2.33-5.85,8.05-6.84c0.5,0.4,0.91,0.8,1.31,1.11
		c1.41-0.3,0.7-1.61,1.31-2.31c4.36-3.51,11.7-5.29,12.88-5.13c4.46,0.59,7.31-1.76,14.18-2.62c2.69-0.34,4.84,2.72,3.02,2.72
		c-4.4,0.31-12.36,3.34-13.68,6.34c-0.71,1.61-1.71,3.22-2.52,4.83c-7.11,0,2.39,12.81,18.51,7.75c2.11,0.1,3.12,2.41,5.23,2.41
		c0.98,0-0.57-3.24-6.34-4.53c-0.67-4.03,18.61-7.66,20.72-6.84c1.6,0.62,3.22,0.5,4.93,0.1c-0.7-2.01-2.52-1.41-3.92-2.11
		c0.7-2.11,2.82-3.52,3.62-5.63c-2.21-0.6-3.32,0.3-6.34,5.33c-5.03,0.6-10.16,1.31-15.29,3.32c0-1.01-0.2-1.71,0-2.31
		c3.7-15.72,10.04-20.98,20.62-23.24c30.1-6.42,55.3,6.17,36.92,30.68c-5.13,0.27-11.05,11.43-17.91,10.16
		C90.15,416.82,86.17,411.52,61.78,421.06z M111.68,398.12c-2.1,0.75-4.03,2.12-3.42-0.3C109.27,397.52,110.27,397.82,111.68,398.12
		z M265.4,400.54c0.1-0.1,62.57,27.72,62.67,27.77c-4.63,4.73-3.82,4.63-4.33,7.55c-22.23-7.44-43.66-17-65.19-26.56
		c0.01-0.02,3.32-3.19,4.83-5.63C264.56,401.76,264.69,400.54,265.4,400.54z M236.83,371.56c23.98,22.99,29.76,27.28,21.23,34.1
		c-6.42,5.14-11.07,1.09-21.03,1.01c-44.86-0.37-139.66,11.41-152.31,9.76c25.03-7.51-0.14-9.88,54.93-24.45
		c19.35-5.12,19.48-6.27,61.77-19.92c10.88-3.51,6.31-4.69,13.58,27.67c0.11,0.5,0.5,0.91,0.91,1.71c0.4-0.6,0.8-1.01,0.8-1.31
		c-6.28-31.41-8.88-29.84-5.13-30.68c21.34-4.8,14.26-9.18,17.81-4.83C234.04,370.32,230.65,365.64,236.83,371.56z M235.22,364.52
		c-1.61,0.09-2.92-0.2-3.82-1.71c0.8-0.8,1.91-0.91,2.92-1.11c10.07-0.53,10.4-3.76,14.49-2.62c6.78,1.89,10.95-8.05,23.84-7.95
		c5.83,0.04,12.31-4.06,16.1-7.85c1.02-1.37,2.32-0.7,4.73-0.5c0.41,3.28-0.04,1.16-0.2,16.2
		C293.17,367.87,299.16,360.96,235.22,364.52z M302.93,340.98c-3.27,25.04,3.53,23.69-6.44,24.24c-1.76-2.41-1.51-3.4-1.51-23.04
		C298.53,340.12,304.77,337.29,302.93,340.98z M303.63,367.24c0.57-2.07,40.99-0.46,46.38-1.91c0.2,0,0.6,0.5,1.51,1.11
		C335.12,367.64,319.42,367.74,303.63,367.24z M342.36,336.96c4.18-2.09,5.38-1.8,4.93-5.13c-0.8-5.84,2.35-12.6-3.62-22.84
		c-0.8,0-1.81-0.1-2.52,0.3c-15.38,2.01-7.93-0.05-23.14,8.55c-4.43,2.51-3.88,1.04-5.13-6.54c-2.3-13.94,0.61-25.97,1.51-27.77
		c0.72-1.44,2.82-0.96,6.14-0.6c11.16,1.21,16.25-0.85,24.85,2.11c5.69,1.96,11.77-0.51,13.38,3.42c3.74,9.14,3.49,14.32,4.93,17.91
		c1.94,0,1.59,0,2.52,3.12c2.17,7.31,2.24,2.94,3.22,7.44c7.16,32.96,0.02,21.2,10.56,62.07c0.49,2.94,1.35,0.59,2.82,5.33
		c1,3.22,2.11,6.34,3.22,9.46c-3.62,4.23-8.15,5.43-15.39,4.02C348.64,352,340.5,357.4,342.36,336.96z M350.21,428.4
		c-0.18-1.03-1.37-40.79-0.7-47.38c2.52-2.41,5.13-3.12,8.05-2.41c3.12,5.01,6.4,10.43,7.04,16.2c-2.32,0.33,0.26,0.42-6.64-0.5
		c-2.31,1.61-1.01,4.43-2.72,5.94c1.76,5.63-0.38,11.44,0.2,17.81c0.19,2.08-1.76,4.53-1.81,4.63
		C350.09,428.74,370.29,428.4,350.21,428.4z M359.56,420.05c-0.73,5.16,0.55,6.71-4.43,4.23c1.57-3.53,2.38-3.72,2.52-6.54
		c1.01-20.6,0.47-18.86,1.51-21.73c4.14,0.92,0.94,0.76,2.31,9.66C362.06,409.41,360.64,412.49,359.56,420.05z M441.35,412.51
		c-4.15,4.98-7.05,10.58-16.9,13.88c-7.71,2.58-11.83,4.88-19.21,4.23c-21.92-1.93-14.25,2.21-34.31,2.21
		c-12.4-1.08-10.98-1.28-9.15-6.04c-0.3-1.21-0.7-2.41-0.8-3.62c0-1.36,0.82-7.7,2.01-10.86c1.84-5.99-2.83-17.29,2.92-12.98
		c10.74,6.71,6.26,9.08,19.92,8.85c2.05-0.03,4.91-1.01,5.23-3.62c0.71-5.81,0.66-5.97-0.2-6.54c-2.26-1.69-0.46,7.06-3.72,7.95
		c-1.77,0.66-5.34,0.41-7.24,0.3c-5.27-0.29-4.15-2.99-10.26-5.83c-1.31-0.61-2.1-1.72-3.12-2.62c-0.7-0.61-0.8-1.31-0.3-2.72
		c1.53,2.04,2.61,4.53,6.54,5.03c6.22,0.8,14.89-1.59,15.29-7.44c0-0.3,0.5-0.6,1.21-1.41c-0.1,2.41-0.2,4.12-0.3,6.04
		c2.01-0.7,2.31-2.31,1.61-6.14c4.71-2.54,5.83,1.61,9.05,5.83c-0.7,1.81-1.5,3.52-2.01,5.23c-1.53,5.09-0.12,8.2,2.62,2.72
		c1.22-3.65,1.31-2.78,3.22-1.51c2.73,1.56,2.05,1.51,1.71,3.82c-0.06,0.43-0.76,2.53,0.8,2.92c1.57,0.39,2.04-1.42,2.72-3.12
		c12.96,11.34,16.53-2.76,23.54-2.31c1.31,0.08,2.52,0,3.92,0C438.1,406.34,442.02,407.15,441.35,412.51z"/>
	<path d="M210.73,314.81C210,324.26,211.56,322.56,210.73,314.81L210.73,314.81z"/>
	<path d="M569.22,453.75c-1.66,0-11.94,26.26-11.47,27.67c0,5.58,7.44-15.66,11.57-24.04C569.87,456.1,570.58,453.48,569.22,453.75z
		"/>
	<path d="M112.69,454.36c-1.11-0.56-1.28-0.89-11.67,26.66C98.66,490.47,115.11,455.17,112.69,454.36z"/>
	<path d="M868.51,457.07c-8.69-2.7-76.17-1.65-15.49-0.3C864.45,457.03,866.18,458.09,868.51,457.07z"/>
	<path d="M407.75,457.68c1.31,0.17,2.72,0.2,4.02-0.4c-13.28-1.91-26.56-1.21-40.74-1.61C376.09,458.43,391.45,455.54,407.75,457.68
		z"/>
	<path d="M702.51,327.7c-20.65-8.26-25.78-17.29-26.56-13.38C703.45,332.65,703.1,327.7,702.51,327.7z"/>
	<path d="M708.05,342.89c15.76,1.76,15.64,4.47,17.3,3.22C719.16,340.7,671.11,338.77,708.05,342.89z"/>
	<path d="M677.77,265.13c3.7,5.41,2.28,6.14,3.42,7.85c1.48-6.53-7.41-14.42-12.88-18.31c-0.3-0.1-0.8,0.1-1.61,0.2
		C668.78,256.94,672.57,257.53,677.77,265.13z"/>
	<path d="M604.03,137.36c-2.17-1.45-10.58,4.26-9.26,8.25c0.8-0.7,1.51-1.21,1.91-1.81C598.48,139.98,605.86,139.65,604.03,137.36z"
		/>
	<path d="M717.91,366.53c2.46,1.47,50.68,1.91,9.26,0.1C724.36,366.51,721.53,366.53,717.91,366.53z"/>
	<path d="M329.28,434.14c-2.52,5.31,3.57,7.22,4.33,1.91C333.84,433.04,330.45,433.97,329.28,434.14z M330.89,436.65
		c-0.3,0.3-1.32-0.35-0.6-1.31C330.78,434.86,331.99,435.55,330.89,436.65z"/>
	<path d="M785.51,434.34c-1.86,2.93,2.07,6.3,3.92,3.42C792.66,433.89,786.81,432,785.51,434.34z M787.62,436.65
		c-1.06,0.42-1.02-1.44-0.2-1.71c0.3-0.1,0.7,0.3,1.21,0.6C788.13,436.05,787.93,436.45,787.62,436.65z"/>
	<path d="M655.53,231.22c2.16-2.16-2.56-0.64-8.45-2.92c-0.51-0.2-1.11-0.2-1.81-0.3C644.57,231.53,655.53,232.02,655.53,231.22z"/>
	<path d="M363.49,455.57c-12.45,0-10.96-1.4-13.48-0.3c3.18,2.12,9.02,1.68,12.78,1.21C362.98,456.47,363.19,456.07,363.49,455.57z"
		/>
	<path d="M820.12,455.77c-1.36-1.58-6.57-0.06-12.17-1.61C803.58,452.95,810.12,458.57,820.12,455.77z"/>
	<path d="M739.54,311.1c2.31-4.33,4.63-8.65,7.04-13.28C743.86,298.67,738.89,308.37,739.54,311.1z"/>
	<path d="M101.22,459.09c-1.85-0.92-7.14-1.01-10.36,0.4C89.38,460.97,101.67,459.99,101.22,459.09z"/>
	<path d="M644.67,246.21c4.6,0-7.55-4.37-7.55-2.21C637.12,245.76,642.8,246.57,644.67,246.21z"/>
	<path d="M605.03,142.69c-1.65-2.3-1.2-1.81-1.61-1.81c-2.82,2.72-3.22,3.22-3.02,5.23C603.93,144.4,603.93,144.4,605.03,142.69z"/>
	<path d="M557.85,458.48c-11.66-1.03-10.7,1.52-9.96,1.51C557.59,459.83,558,459.85,557.85,458.48z"/>
	<path d="M599.5,174.58c0-0.6-0.37-0.91-0.6-0.91c-3.31-0.31-4.36-1.9-6.94-3.62C590.97,172.17,595.01,175.52,599.5,174.58z"/>
	<path d="M255.04,367.44c-6.17,0.32-3.91,0.6-11.87,0.2C244.75,369.22,252.36,368.87,255.04,367.44z"/>
	<path d="M554.23,467.03c2.21-2.21,3.12-4.02,3.22-6.44c-1.91,1.41-2.41,3.52-3.42,5.33C553.73,466.33,553.73,466.73,554.23,467.03z
		"/>
	<path d="M610.87,217.04c-1.51-1.91-3.12-2.92-4.83-3.62c-0.3-0.1-0.7,0.4-1.11,0.6C607.11,216.45,608.29,217.32,610.87,217.04z"/>
	<path d="M712.07,367.74c-2.62-0.6-9.86-0.5-12.58,0C703.72,368.14,707.85,368.14,712.07,367.74z"/>
	<path d="M549.8,203.46c0.3-0.3,0.7-0.5,0.7-0.7C549.31,192.58,546.55,200.21,549.8,203.46z"/>
	<path d="M100.62,461c-1.91,1.71-3.22,4.23-3.22,6.24C98.88,466.07,101.67,462.05,100.62,461z"/>
	<path d="M724.75,296.51c-0.7,2.92,1.21,3.92,3.22,5.43C727.87,299.33,726.46,297.92,724.75,296.51z"/>
	<path d="M588.94,221.57c-2.02,0.67-4.05,4.08-2.62,6.04C588.58,221.74,589.04,223.06,588.94,221.57z"/>
	<path d="M682.39,273.98c-0.3,0.4-0.7,0.7-0.7,1.01C682.02,279.87,685.83,281.35,682.39,273.98z"/>
	<path d="M596.88,243.3c0.1,0.2,0.5,0.1,0.8,0.2C596.52,236.26,592.93,237.36,596.88,243.3z"/>
	<path d="M562.68,448.72c0.2,0.2,0.4,0.3,1.01,0.7C567.06,440.42,563.87,443.97,562.68,448.72z"/>
	<path d="M564.29,159.8c-4.41-0.88,7.14,5.94,4.43,3.22C567.51,161.51,566,160.5,564.29,159.8z"/>
	<path d="M583.91,219.76c0.1,0.2,0.5-0.1,1.01-0.2C580.7,212.07,580.21,217.48,583.91,219.76z"/>
	<path d="M641.45,257.48c2.31,1.01,2.41,1.01,4.43-0.4C644.37,255.97,644.17,255.97,641.45,257.48z"/>
	<path d="M757.64,317.14c0.3-3.32,0.6-6.14,0.91-8.95C757.46,309.77,756.72,315.4,757.64,317.14z"/>
	<path d="M664.69,248.83c0.1,1.51,0.8,2.62,2.01,3.92C667.3,250.74,666.6,249.53,664.69,248.83z"/>
	<path d="M106.85,449.23c1.21-1.21,1.71-3.02,1.31-4.93C105.98,447.02,105.95,450.13,106.85,449.23z"/>
	<path d="M599.7,209.19c-0.1,0.3-0.4,0.5-0.4,0.6C602.36,216.68,602.41,209.73,599.7,209.19z"/>
	<path d="M758.05,292.19c0,0.86,2.23-1.09,1.61-5.43C759.05,288.77,758.55,290.48,758.05,292.19z"/>
	<path d="M657.24,273.58c1.91,1.21,1.91,1.21,4.12,1.01C660.26,273.58,659.16,273.38,657.24,273.58z"/>
	<path d="M683.1,343.09c1.01,0.91,1.51,2.52,3.32,2.52C684.79,344.52,684.16,342.97,683.1,343.09z"/>
	<path d="M649.7,302.95c-0.4-2.21-0.4-2.21-1.61-3.42C648.29,300.94,648.79,302.05,649.7,302.95z"/>
	<path d="M640.75,227c1.01,1.91,0.91,1.91,3.72,2.01C642.96,227.8,642.05,227.1,640.75,227z"/>
	<path d="M626.46,243.6c0.2,0.6,0.5,1.21,1.01,2.11C629.13,242.57,626.46,242.68,626.46,243.6z"/>
	<path d="M560.77,163.42c3,0.55,2.56-1.61,1.81-1.61C561.67,161.81,561.07,162.21,560.77,163.42z"/>
	<path d="M761.37,300.54c0-0.07,0-0.14,0-0.21C761.22,300.44,761.27,300.44,761.37,300.54z"/>
	<path d="M763.48,296.41c-0.1,0.2-0.4,0.1-0.5,0.2C760.62,300.15,760.7,302.89,763.48,296.41z"/>
	<path d="M649.7,247.42c-0.8-1.21-1.61-1.61-3.22-1.51C647.39,247.12,648.19,247.52,649.7,247.42z"/>
	<path d="M575.76,168.65c-0.91-0.3-1.81-0.5-2.11,0.8C575.15,169.96,575.15,169.96,575.76,168.65z"/>
	<path d="M616,218.65c-2.36-2.36-2.29,0.5-1.01,0.5C615.19,219.15,615.49,218.85,616,218.65z"/>
	<path d="M617.61,219.25c-0.15,0.29-1.16,0.73,0.4,1.51C618.89,220.76,619.26,219.25,617.61,219.25z"/>
	<path d="M759.56,304.36c-0.6,1.31-1.11,2.52-0.91,3.92C759.61,306.89,760.56,303.36,759.56,304.36z"/>
	<path d="M760.05,304.16c0,0.04,0.04,0,0.11,0C759.98,303.98,759.89,304,760.05,304.16z"/>
	<path d="M629.68,249.03c0.77-0.46-0.31-2.01-0.8-2.01C627.72,248.03,629.21,249.5,629.68,249.03z"/>
	<path d="M645.47,296.51c-0.3-1.31-0.3-1.31-1.31-1.51C644.17,295.91,644.57,296.41,645.47,296.51z"/>
	<path d="M635.82,224.79c1.11,1.01,1.11,1.01,2.41,1.01C637.22,224.79,637.22,224.79,635.82,224.79z"/>
	<path d="M659.36,238.27c0.4,1.11,1.11,1.91,1.81,2.52C660.77,239.17,660.77,239.17,659.36,238.27z"/>
	<path d="M580.28,213.52c0-1.37,0.61-0.45-0.8-1.51C579.24,213.22,579.42,213.23,580.28,213.52z"/>
	<path d="M596.08,233.03c-0.97,0.32-0.78,0.36-0.2,1.51C596.74,234.11,596.77,234.43,596.08,233.03z"/>
	<path d="M650.91,247.02c0.7,0,1.31,0.1,2.01,0.1C651.91,245.61,651.71,245.61,650.91,247.02z"/>
	<path d="M725.95,326.49c0,0.46-0.3,0.66,1.51,0.3C727.46,326.1,727.66,326.49,725.95,326.49z"/>
	<path d="M652.72,257.38c0.88-0.29,0.95-0.26,0.4-0.8c-0.2,0.1-0.5,0.3-0.7,0.4C652.52,257.08,652.62,257.38,652.72,257.38z"/>
	<path d="M103.53,456.97c-0.25-0.49-0.15-0.73-0.8-0.4C103.1,457.31,103.12,457.38,103.53,456.97z"/>
	<path d="M560.26,456.47c-0.59-0.59-0.33-0.49-0.91-0.2C559.93,456.84,559.66,457.07,560.26,456.47z"/>
	<path d="M649.4,256.47c-0.6-0.3-0.8,0.1-1.01,0.8C649.34,257.09,650.18,257.26,649.4,256.47z"/>
	<path d="M631.39,252.65c-0.2,0-0.6,0.3-0.6,0.5s0.3,0.5,0.4,0.7c0.2-0.1,0.4-0.3,0.8-0.5
		C631.79,253.05,631.59,252.75,631.39,252.65z"/>
	<path d="M632.29,222.47c-0.2-0.1-0.4,0.1-0.6,0.1c0.1,0.2,0.1,0.5,0.2,0.5C634.69,223.78,633.64,223.37,632.29,222.47z"/>
	<path d="M663.48,244.5c-0.36,0.72,0.1,0.51,0.6,1.01C663.7,245.12,663.94,244.5,663.48,244.5z"/>
	<path d="M577.77,210.6c0.48-0.24,0.71-0.57-0.3-0.91C577.37,209.8,577.05,209.89,577.77,210.6z"/>
	<path d="M760.56,301.95c0.01,0.05,0.01,0.1,0.02,0.16C760.64,302.07,760.65,302.03,760.56,301.95z"/>
	<path d="M760.02,304c0.59-0.47,0.64-1.17,0.56-1.9C760.38,302.21,759.62,302.26,760.02,304z"/>
	<path d="M595.27,161.61c-0.68,0.34-0.72-0.03-0.3,0.8C595.8,161.86,596.01,161.97,595.27,161.61z"/>
	<path d="M559.86,164.73c-0.1,0.2,0,0.4,0.1,0.6c0.3-0.1,0.5-0.2,0.8-0.3C560.36,164.62,560.52,164.07,559.86,164.73z"/>
	<path d="M612.88,174.28c1.01-0.5,1.31-0.7,1.71-0.91C614.29,173.48,613.78,173.28,612.88,174.28z"/>
	<path d="M675.35,324.58c0.22,0.45,0.1,0.7,0.91,0.3C676.07,324.51,676.24,324.14,675.35,324.58z"/>
	<path d="M664.49,246.11c-0.1-0.2-0.3-0.3-0.5-0.5c0.05,0.1,0.3,0.9,0.3,1.01C664.29,246.41,664.49,246.21,664.49,246.11z"/>
	<path d="M599.1,162.01c-0.34-0.34-0.33-0.47-0.8,0C598.94,162.33,598.9,162.21,599.1,162.01z"/>
	<path d="M667.91,277.2c-0.1-0.1-1.17,0.4,0.3,0.4C668.11,277.5,668.01,277.2,667.91,277.2z"/>
	<path d="M668.91,277.9c-0.1-0.1-0.08-0.3-0.8-0.3C668.88,278.11,668.58,278.24,668.91,277.9z"/>
	<path d="M765.39,292.19c-0.2,0.5-0.4,0.91-0.6,1.41C765.51,292.15,765.61,292.4,765.39,292.19z"/>
	<path d="M764.18,295.11c0.62-1.85,0.79-2.42-0.16-0.04C764.13,295.03,764.08,295,764.18,295.11z"/>
	<path d="M557.15,168.65c0.29,0.58-0.04,0.62,0.8,0.2c-0.1-0.1-0.1-0.3-0.2-0.3C557.55,168.55,557.35,168.65,557.15,168.65z"/>
	<path d="M600.3,175.49c-0.57,0.57-0.15,0.39,0.5,0.6C600.61,175.89,600.4,175.69,600.3,175.49z"/>
	<path d="M586.52,229.21c0,0.1,0.1,0.1,0.2,0.2c0.64,0,0.23-0.3,0.1-0.3C586.72,229.11,586.62,229.21,586.52,229.21z"/>
	<path d="M640.75,203.56c0.17-0.17,0.34-0.03,0-0.7C640.44,202.85,640.61,203.28,640.75,203.56z"/>
	<path d="M590.65,217.04c0.4-0.4,0.4-0.41,0-0.8C590.57,216.39,590.25,216.91,590.65,217.04z"/>
	<path d="M763.58,296.51c0.09-0.54,0.26-1,0.44-1.45C763.4,295.32,763.49,295.96,763.58,296.51z"/>
	<path d="M761.27,300.54c-0.65,0.19-0.61,0.8-0.6,1.37C761.35,301.68,761.27,301.11,761.27,300.54z"/>
	<path d="M686.92,346.51c0.1,0,0.2,0.1,0.3,0.1C687.12,346.51,687.12,346.41,686.92,346.51z"/>
	<path d="M603.32,177.9c-0.26-0.13-0.23-0.16-0.1,0.1L603.32,177.9z"/>
	<path d="M600.8,176.29c-0.01-0.05-0.03-0.09-0.09-0.09C600.74,176.22,600.77,176.25,600.8,176.29z"/>
	<path d="M601.01,176.5c-0.28-0.28-0.2-0.24-0.2-0.1C600.81,176.5,600.91,176.5,601.01,176.5z"/>
	<path d="M614.69,173.48c0-0.1,0-0.2,0.1-0.2C614.69,173.28,614.69,173.28,614.69,173.48z"/>
	<path d="M569.22,163.82c-0.2-0.1-0.3-0.1-0.5-0.2C568.92,163.82,568.82,164.32,569.22,163.82z"/>
	<path d="M643.36,205.77c0.25,0.25,0.16,0.24,0.4,0c-0.1-0.1-0.2-0.2-0.2-0.2C643.46,205.67,643.36,205.67,643.36,205.77z"/>
	<path d="M687.02,346.41c-0.27-0.18-0.45-0.43-0.63-0.62C686.32,346.24,686.58,346.41,687.02,346.41z"/>
	<path d="M686.32,345.71c0.02,0.02,0.05,0.05,0.07,0.08C686.43,345.55,686.45,345.57,686.32,345.71z"/>
	<path d="M587.23,231.53l0.1-0.2C587.06,231.32,587.1,231.27,587.23,231.53z"/>
	<path d="M661.07,240.88h0.2C661.14,240.75,661.19,240.75,661.07,240.88z"/>
	<path d="M596.66,244.91c0.02-0.04,0.01-0.06,0.02-0.1C596.56,244.92,596.66,245.01,596.66,244.91z"/>
	<path d="M597.29,245.61c0.09-0.37-0.17-0.57-0.62-0.68C596.57,245.41,596.91,245.52,597.29,245.61z"/>
	<path d="M597.59,245.91c-0.06-0.06-0.16-0.09-0.26-0.13C597.46,245.96,597.28,245.91,597.59,245.91z"/>
	<path d="M765.49,292.19c0,0.14-0.03,0.15,0.1-0.1L765.49,292.19z"/>
	<path d="M674.65,369.45c4.53,13.72,5.71,32.99,7.55,33.6c0.96-0.6,1.02,0.46-4.33-26.26C676.13,368.1,673.64,366.39,674.65,369.45z
		"/>
	<path d="M712.58,401.64c3.22,0.23,4.89-3.86,3.12-6.04c-1.27-1.56-3.52-0.99-3.52,0.4c0.5,0.5,3.1,1.66,0.91,2.92
		C710.01,396.63,709.52,401.64,712.58,401.64z"/>
	<path d="M590.55,396.81c3.86,16.98,2.82,2.85,1.01-1.31C590.75,395.71,590.44,396.21,590.55,396.81z"/>
	<path d="M561.27,384.04c-3.95,0-13.38,5.14-21.33,6.94c-19.9,4.51-20.04,3.98-24.85,7.34c3.92,0.39-3.26,0.79,20.12-4.73
		c1.23-0.29,1.42,0.46,2.72,3.82c1.11-1.41,0-2.82,0.91-4.63C542.11,391.39,559.61,385.7,561.27,384.04z"/>
	<path d="M494.57,404.96c-2.31,1.51-5.63,1.11-7.65,3.62c2.06,0.88,1.91,0.49,1.91,2.41c1.01-0.4,0.3-1.81,1.01-2.41
		c5.35-2.06,4.53-1.25,4.53,3.92C495.65,408.02,496.6,405.81,494.57,404.96z"/>
	<path d="M646.18,357.88c0.3,3.12,0.8,6.24,2.92,8.75c-1.81-11.22-3.98-8.41,4.33-11.57C649.07,354.51,642.65,356.47,646.18,357.88z
		"/>
	<path d="M629.18,364.52c11.29-3.63,13.65-6.02-4.33-0.2C620.06,365.87,626.51,365.59,629.18,364.52z"/>
	<path d="M669.62,364.12c0.94-4.91-5.37-18.39-1.21-2.41C668.71,362.51,669.22,363.31,669.62,364.12z"/>
	<path d="M548.7,401.54c0-1.29,0.38-0.32-1.11-7.75C547.09,392.31,545.04,394.05,548.7,401.54z"/>
	<path d="M511.27,400.33c-15.24,4.35-6.5,5.24,0.6,0.6C511.57,400.64,511.37,400.33,511.27,400.33z"/>
	<path d="M570.93,382.83c-0.94-0.94-2.4,1.44,1.01,5.63C572.44,386.15,572.14,384.24,570.93,382.83z"/>
	<path d="M641.25,361c-0.5,2.62,0.5,4.53,1.61,6.34C642.46,365.33,642.76,363.11,641.25,361z"/>
	<path d="M488.64,418.54c0.2-2.52,0.4-5.03,0.1-7.55C487.83,413.51,488.33,416.03,488.64,418.54z"/>
	<path d="M512.88,401.54c1.43,2.74,1.73-1.2,0.3-3.02C512.28,400.44,512.3,400.42,512.88,401.54z"/>
	<path d="M479.38,411.2c-0.54-0.27-2.33,1.09-1.11,2.62C478.87,412.91,480.63,411.7,479.38,411.2z"/>
	<path d="M671.03,357.08c-0.2,1.71,0.1,2.72,1.11,3.72C672.54,359.29,672.54,358.18,671.03,357.08z"/>
	<path d="M581.64,378.39c1.62-0.03,3.14-0.35,4.48-1.4C583.9,377.19,582.88,377.48,581.64,378.39z"/>
	<path d="M581.49,378.5c0.05-0.04,0.1-0.07,0.15-0.11C581.31,378.39,581.37,378.38,581.49,378.5z"/>
	<path d="M481.8,411.8c0.6-0.6,1.01-0.91,1.31-1.31C483.81,409.78,481.38,408.93,481.8,411.8z"/>
	<path d="M657.45,352.35c-1.88-0.34-2.45,0.4-0.91,0.4C656.84,352.75,657.04,352.55,657.45,352.35z"/>
	<path d="M590.19,375.68c-0.67-0.03-1.49-0.22-1.86,0.71C589.01,376.29,589.78,376.56,590.19,375.68z"/>
	<path d="M590.24,375.59c-0.02,0.07-0.13,0.1,0.1,0.1L590.24,375.59z"/>
	<path d="M588.09,376.27c-0.75-0.09-1.5-0.13-1.97,0.72C586.9,377.1,587.68,377.28,588.09,376.27z"/>
	<path d="M588.13,376.19c-0.04,0.12-0.1,0.06,0.1,0.1L588.13,376.19z"/>
	<path d="M581.29,378.4c-0.4,0.1-0.91,0.1-1.81,0.1C580.38,379.11,580.89,378.81,581.29,378.4z"/>
	<path d="M620.93,365.93c0.65-0.19,1.4-0.03,1.98-0.58C622.18,365.4,621.47,365.3,620.93,365.93z"/>
	<path d="M623.14,365.33l-0.1-0.1C622.93,365.37,622.78,365.37,623.14,365.33z"/>
	<path d="M592.31,375.1c0.03,0.12,0.54,0.06,1.66-0.22c8.32-3.12,23.71-7.73,23.74-7.75c-1.99-1.99-23.64,6.38-25.3,7.81
		c0.01-0.02,0.03-0.04,0.04-0.07c-0.77,0-1.55-0.09-1.97,0.63C591.17,375.68,591.84,375.72,592.31,375.1z"/>
	<path d="M590.44,375.59c0.01-0.03,0.03-0.04,0.04-0.07C590.3,375.48,590.31,375.45,590.44,375.59z"/>
	<path d="M620.83,366.73c0-0.3,0-0.6,0-0.91c-0.1,0.2-0.4,0.4-0.5,0.6C620.32,366.6,620.83,367.15,620.83,366.73z"/>
	<path d="M809.96,322.27c0.1,1.81,1.08,3.03,1.51,4.43c2.06,6.64,1.1,7.15,2.41,8.85C814.99,330.38,812.01,322.61,809.96,322.27z"/>
	<path d="M826.76,388.36c-0.1,1.91,0.7,5.94,1.71,8.45C830.34,394.66,828.66,389.48,826.76,388.36z"/>
	<path d="M805.33,298.53c-1.22-0.3,0.26-0.82-7.24,0.3c-0.3,0.1-0.91,0.2-0.5,1.11C805.94,298.93,805.33,299.19,805.33,298.53z"/>
	<path d="M804.12,307.88c-0.5,0.16-0.82,1.2,0.1,1.51C807.85,310.12,807.55,306.8,804.12,307.88z"/>
	<path d="M814.08,291.89c-0.1-1.71-1.01-2.92-2.41-3.72C811.44,287.94,809.76,288.89,814.08,291.89z"/>
	<path d="M813.78,338.77c-1.21,1.81-1.21,2.52,0.3,3.12C814.48,340.88,814.69,339.97,813.78,338.77z"/>
	<path d="M823.04,376.69c0.77,0,0.42-0.71,0.1-1.51C822.04,376,822.48,376.58,823.04,376.69z"/>
	<path d="M786.82,301.54c1.16,0,0.65,0.2,1.41-0.8C787.28,300.74,787.2,300.39,786.82,301.54z"/>
	<path d="M815.29,347.42c-0.58,0-0.98,0.73-0.1,1.61c0.2-0.3,0.5-0.6,0.8-0.91C815.69,347.82,815.49,347.42,815.29,347.42z"/>
	<path d="M825.65,385.75c0.3-0.8,0.3-0.8-0.4-1.81C825.25,384.84,825.15,385.24,825.65,385.75z"/>
	<path d="M815.49,351.34c0,0.1,0.28,0.84,0.7,0C815.74,350.44,815.49,351.24,815.49,351.34z"/>
	<path d="M809.76,309.09c-0.27,0-0.41,0.66,0.5,0.2C810.06,309.19,809.96,309.09,809.76,309.09z"/>
	<path d="M823.94,380.72c0,0.1,0.34,0.24-0.01-0.11C823.94,380.64,823.94,380.68,823.94,380.72z"/>
	<path d="M823.84,380.52c0.03,0.03,0.06,0.06,0.09,0.09C823.92,380.56,823.9,380.52,823.84,380.52z"/>
	<path d="M823.94,380.42c-0.1,0-0.2-0.1-0.3-0.1C823.74,380.42,823.84,380.52,823.94,380.42z"/>
	<path d="M814.58,344.5c-0.2,0.2-0.25,0.15,0,0.4C814.58,344.65,814.98,344.9,814.58,344.5z"/>
	<path d="M874.54,389.17c1.18-2.36-3.66,1.32-4.63,3.12c-0.2,0.3,0,0.8,0.1,1.41C872.03,392.59,873.34,390.98,874.54,389.17z"/>
	<path d="M865.99,395.81c-1.41,2.11-1.41,2.41-0.3,5.83C865.69,400.13,865.89,397.01,865.99,395.81z"/>
	<path d="M878.05,395.59c0.03-1.3-0.45-2.34-1.4-3.2C876.66,393.64,877.13,394.7,878.05,395.59z"/>
	<path d="M878.06,395.81l0.1-0.1C878,395.54,878.06,395.52,878.06,395.81z"/>
	<path d="M876.76,392.29c-0.1-0.2-0.2-0.6-0.2-1.21C876.05,391.88,876.25,392.09,876.76,392.29z"/>
	<path d="M873.34,395l-0.1,0.1C873.36,395.15,873.3,395.16,873.34,395z"/>
	<path d="M873.32,395.13c-0.08,0.63-0.03,1.09,0.72,1.28C873.94,395.93,873.93,395.37,873.32,395.13z"/>
	<path d="M878.77,397.1c0-0.56-0.05-1.1-0.7-1.29C878.17,396.29,877.99,396.94,878.77,397.1z"/>
	<path d="M878.76,397.2c0,0,0.01,0.01,0.02,0.02c0,0,0-0.01,0-0.01C878.77,397.21,878.77,397.2,878.76,397.2z"/>
	<path d="M878.76,397.2C878.73,397.17,878.74,397.19,878.76,397.2L878.76,397.2z"/>
	<path d="M879.41,398.4c-0.38-0.84-0.56-1.11-0.63-1.18C878.85,397.76,878.74,398.32,879.41,398.4z"/>
	<path d="M874.04,396.71c0.2,0.2,0.1,0-0.1-0.2C873.98,396.59,874.01,396.66,874.04,396.71z"/>
	<path d="M879.57,398.42c-0.19,0-0.19-0.08-0.1,0.1L879.57,398.42z"/>
	<path d="M879.47,398.52c0.1,0.3,0.1,0.6,0.1,1.31C880.18,399.03,879.88,398.73,879.47,398.52z"/>
	<path d="M872.93,394.9c0.11,0,0.18,0.01,0.24,0.03c-0.02-0.01-0.02-0.01-0.04-0.03C873.03,394.9,873.03,394.9,872.93,394.9z"/>
	<path d="M873.18,394.93C873.31,395.04,873.35,394.98,873.18,394.93L873.18,394.93z"/>
	<path d="M729.68,410.39c1.63,0.41,1.41-2.94-0.7-3.12C727.37,406.88,727.49,410.2,729.68,410.39z"/>
	<path d="M743.16,416.53c0.4-0.1,0.7-0.6,1.31-1.11c-0.6-0.5-1.01-1.01-1.31-1.01C741.82,414.15,741.91,416.74,743.16,416.53z"/>
	<path d="M848.19,444.8c0.91-1.82,0.17-9.28-1.21-10.66C845.5,434.14,847.79,443.39,848.19,444.8z"/>
	<path d="M756.74,340.78c-0.5,0.3-1.11,0.5-1.41,0.8c-0.7,0.6-0.6,1.61,0.2,2.01C757.06,344.47,759.19,342.62,756.74,340.78z"/>
	<path d="M754.83,351.34c-2.19,0.24-1.31,2.62,0.3,2.62C756.93,353.7,757.14,350.88,754.83,351.34z"/>
	<path d="M666.3,315.83c-0.6-0.6-1.21-1.11-1.61-1.51c-1.01,0.2-1.31,0.8-1.31,1.51C664.19,315.13,665.09,316.73,666.3,315.83z"/>
	<path d="M663.38,317.94c-0.04,0.51,0.23,0.69,0.7,0.6c-0.1-0.4-0.2-0.6-0.7-0.7c-0.08,0.32-0.1-1.77-0.1-1.88
		C662.49,317.04,662.52,317.17,663.38,317.94z"/>
	<path d="M663.38,315.83l-0.1-0.1C663.28,316.02,663.25,316,663.38,315.83z"/>
	<path d="M785.01,391.48c-0.7-1.61-1.31-1.71-2.92-0.4C783,392.39,783.9,392.29,785.01,391.48z"/>
	<path d="M784.1,394.4c-2.3,0-0.69,1.53-0.3,2.11c0.6-0.5,1.11-0.7,1.31-1.11C785.31,395,784.71,394.4,784.1,394.4z"/>
	<path d="M30.5,350.54c0.4-1.21-0.12-2-0.7-2.62c-2.45-2.57-0.13-9.98-2.92-9.05C24.82,339.38,26.04,349.22,30.5,350.54z"/>
	<path d="M127.78,335.85c2.86-2.29,7.73-8.72,4.43-9.46c-4.82,9.04-5.28,6.97-5.73,9.46C126.97,335.85,127.58,336.05,127.78,335.85z
		"/>
	<path d="M33.62,345.51c-0.91-1.71,0.7-4.43-1.81-5.63c-0.7,0.2-1.31,0.4-2.11,0.6C30.5,342.59,31.2,344.5,33.62,345.51z"/>
	<path d="M56.65,361.9c3.04-2.12,2.6-5.82,1.81-4.33c-2.41,4.57-5.43,3.21-5.83,5.23C54.14,363.41,55.53,362.69,56.65,361.9z"/>
	<path d="M144.08,333.64c3.47-3.47,0-3.17,2.72-4.83c-1.43-0.84-1.31,0.03-1.31,0.91c-1.71,0.8-2.21,2.41-3.02,3.82
		C143.07,334.24,143.67,334.04,144.08,333.64z"/>
	<path d="M126.37,337.06c-1.11,0.5-2.11,1.01-2.52,2.11C125.77,339.37,126.57,338.67,126.37,337.06z"/>
	<path d="M166.21,353.86c1.09,0.41,2.29-1.25,0.91-1.71C166.35,352.02,165.19,353.35,166.21,353.86z"/>
	<path d="M171.14,350.44c-1.61-0.5-1.71-0.4-1.81,1.41C170.23,352.05,170.63,351.44,171.14,350.44z"/>
	<path d="M121.64,340.68c-0.7,0.7-1.71,0.8-1.81,2.41C121.54,341.99,121.54,341.99,121.64,340.68z"/>
	<path d="M162.99,335.45c-0.91,0.2-1.61,0.5-1.41,2.01C163.39,336.55,163.39,336.55,162.99,335.45z"/>
	<path d="M154.54,331.83c-0.8,0.4-1.51,0.8-1.41,2.31C154.94,333.23,154.94,333.23,154.54,331.83z"/>
	<path d="M160.27,325.79c-1.01,0-1.31,0.7-1.61,2.01C159.97,326.9,159.97,326.9,160.27,325.79z"/>
	<path d="M165.4,355.47c0-0.9-1.51-0.64-1.51,0.2C163.89,356.46,165.24,356.44,165.4,355.47z"/>
	<path d="M117.32,344.6c-0.6,0.5-1.01,0.8-1.41,1.21C116.91,345.91,117.52,345.71,117.32,344.6z"/>
	<path d="M157.05,330.32c-0.76-1.14-1.39-0.75-1.71,0.2C155.34,331.37,156.25,330.8,157.05,330.32z"/>
	<path d="M147.7,326.8c1.07-0.54,0.2-0.98,0.2-1.21C146.75,325.36,147.19,327.31,147.7,326.8z"/>
	<path d="M192.06,314.42c-1.61,0.2-1.61,0.2-1.41,1.11C191.16,315.23,191.96,315.33,192.06,314.42z"/>
	<path d="M187.94,316.13c-0.77-0.51-0.39-0.82-1.51,0.3C186.85,316.85,186.69,317.06,187.94,316.13z"/>
	<path d="M132.71,325.08c-0.39-0.78-0.32-0.5-0.8-0.5C132.31,325.39,132.02,325.43,132.71,325.08z"/>
	<path d="M48.1,352.65c-0.5-0.25-0.2-0.3-0.8,0.91C47.86,354.11,47.9,353.48,48.1,352.65z"/>
	<path d="M60.48,357.28c1.03,0.41,2.17-1.72-0.1-0.2C60.38,357.08,60.38,357.28,60.48,357.28z"/>
	<path d="M46.29,356.87c0.2-0.2,0.3-0.5,0.5-0.7c-0.3-0.1-0.5-0.3-0.6-0.2C45.61,356.55,46,356.58,46.29,356.87z"/>
	<path d="M63.9,343.6h-0.1C63.8,343.97,63.76,344.02,63.9,343.6z"/>
	<path d="M63.8,355.16c0.14,0.14,0.4,0.16,0.4-0.1C64.06,355.06,63.8,354.78,63.8,355.16z"/>
	<path d="M105.24,328.81c0.34,0,0.2-0.21,0.2-0.4C104.9,328.4,105.24,328.37,105.24,328.81z"/>
	<path d="M181.6,317.04c0.51,0,0.9-0.75-0.2-0.2C181.5,316.84,181.6,317.04,181.6,317.04z"/>
	<path d="M101.82,329.91c-0.56,0-0.5,0.4-0.3,0.4C102.07,330.32,102.07,329.91,101.82,329.91z"/>
	<path d="M192.57,314.32c-0.46-0.46-0.22-0.36-0.5,0.2C192.16,314.42,192.36,314.32,192.57,314.32z"/>
	<path d="M109.57,326.49c-0.1,0.2-0.1,0.3-0.2,0.5C109.57,326.9,109.97,326.9,109.57,326.49z"/>
	<path d="M150.01,323.17c-0.26-0.13-0.23-0.16-0.1,0.1L150.01,323.17z"/>
	<path d="M215.5,342.19c-1.86,3.72,25.94,4.98,34.71,12.58c1.01-0.3,1.31-1.01,0.91-1.91c-3.67-6.12-24.93-7.4-33.3-10.36
		C217.11,342.29,216.31,342.29,215.5,342.19z"/>
	<path d="M238.24,340.58c-0.1-0.1-0.2,0.2-0.5,0.6c9.44,1.89,22.97,2.22,32.09,6.24C263.53,342.7,249.8,341.91,238.24,340.58z"/>
	<path d="M226.17,320.86c-2.83-0.57-6.82,3.05-12.37,3.62c-0.4,0-0.8,0.3-1.31,0.6C213.82,329.1,226.17,323.51,226.17,320.86z"/>
	<path d="M265.8,297.42c1.71,1.51,3.02,3.42,5.03,4.63c1.75-2-7.43-11-10.56-8.65C261.68,295.41,264.09,295.91,265.8,297.42z"/>
	<path d="M289.44,297.72c-2.5,3.5-7.27,10.06-6.84,14.79C289.02,297.35,290.51,299.86,289.44,297.72z"/>
	<path d="M227.37,330.42c-8.16,1.63-13.7,3.29-14.79,3.72C215.6,336.02,224.72,331.92,227.37,330.42z"/>
	<path d="M220.73,352.15c-6.73-3.98-7.62-5.05-7.85-3.02C223,356.29,220.96,352.2,220.73,352.15z"/>
	<path d="M272.14,320.16c-3.72,0.6-7.04,2.92-10.76,3.52c-0.3,0-0.6,0.4-1.31,0.91C268.33,323.93,273.27,320.16,272.14,320.16z"/>
	<path d="M218.12,304.96c9.97-3.69,7.75-2.38,8.65-3.72c-2.08,0.13-8.86,1.72-9.46,3.52C217.72,304.86,217.92,305.07,218.12,304.96z
		"/>
	<path d="M213.79,312.61c4.42-2.83,4.38-3.07,3.82-3.72C210.45,311.67,212.89,313.19,213.79,312.61z"/>
	<path d="M303.13,287.36c-0.62,1.49-1.21,3.22-1.21,4.83C303.33,290.88,303.43,289.17,303.13,287.36z"/>
	<path d="M303.23,304.06c0.02-0.09,0.04-0.18,0.06-0.27C303.1,304.01,303.09,303.92,303.23,304.06z"/>
	<path d="M303.29,303.79c1.19-1.24,1.67-2.35,1.95-4.66C304.19,300.47,303.6,302.08,303.29,303.79z"/>
	<path d="M203.73,336.65c1.41,0,2.21,0,3.12,0C205.95,335.85,205.14,335.65,203.73,336.65z"/>
	<path d="M206.25,341.68c-0.8,0-1.61,0-2.31,0C204.64,342.09,205.44,342.79,206.25,341.68z"/>
	<path d="M302.61,306.11c0.78-0.51,0.61-1.38,0.51-2.15C302.56,304.52,302.53,305.28,302.61,306.11z"/>
	<path d="M229.08,330.22c-0.91-0.4-1.31-0.3-1.61,0.3C227.88,330.32,228.38,330.32,229.08,330.22z"/>
	<path d="M301.82,292.89c0-0.36,0.1-1.21-0.4-0.2C301.28,292.83,301.82,293.53,301.82,292.89z"/>
	<path d="M246.29,321.66c-0.34,0-0.3-0.1-0.6,0.5C245.78,321.97,246.09,321.87,246.29,321.66z"/>
	<path d="M245.58,322.07c-0.9,0.17-1.41,0.49-1.24,0.49C244.2,322.98,245.25,322.73,245.58,322.07z"/>
	<path d="M306.65,296.31c-0.46,0.37-0.57,0.82-0.59,1.29C306.73,297.45,306.65,296.89,306.65,296.31z"/>
	<path d="M306.04,297.72c0-0.04,0.01-0.08,0.01-0.12C305.92,297.64,305.91,297.59,306.04,297.72z"/>
	<path d="M307.35,294.9c-0.18,0.53-0.34,0.97-0.45,1.35C307.43,296.01,307.35,295.46,307.35,294.9z"/>
	<path d="M306.85,296.41c0.01-0.05,0.04-0.11,0.05-0.16C306.71,296.33,306.73,296.29,306.85,296.41z"/>
	<path d="M305.34,299.23c0-0.04,0.01-0.08,0.01-0.12C305.21,299.14,305.21,299.1,305.34,299.23z"/>
	<path d="M305.94,297.72c-0.47,0.28-0.58,0.82-0.59,1.39C306.11,298.96,305.94,298.29,305.94,297.72z"/>
	<path d="M227.47,300.84c-0.1,0-0.3-0.1-0.3-0.1C226.22,301.69,227.37,300.95,227.47,300.84z"/>
	<path d="M307.65,294.9c0-0.1,0.1-0.1,0.1-0.2C307.48,294.98,307.52,294.9,307.65,294.9z"/>
	<path d="M307.45,295c0.03-0.03,0.06-0.06,0.09-0.09C307.49,294.92,307.45,294.94,307.45,295z"/>
	<path d="M217.82,368.24c0.25,3.04-0.75-4.93,6.94,34.31c0.23,1.16,1.44,1.4,1.01-1.61C218.9,367.03,220.29,371.77,217.82,368.24z"
		/>
	<path d="M256.45,401.84c4.87-0.53,4.19-8.55-0.4-6.64c-1.47,0.73,0.6,1.83,1.21,2.62c0.31,0.4-0.2,1.21-0.8,1.31
		c-0.5-0.2-1.01-0.4-1.91-0.8C253.36,400.68,254.72,402.03,256.45,401.84z"/>
	<path d="M135.22,403.55c2.32,5.81,1.1-4.18-0.4-7.65C133.2,396.09,133.66,397,135.22,403.55z"/>
	<path d="M102.33,363.21c-1.81,0.8-3.72,1.51-4.93,3.82c0.7,0.1,1.11,0.3,1.41,0.2C100.61,366.39,103.97,364.31,102.33,363.21z"/>
	<path d="M66.11,414.52c0.4,0.1,0.8-0.2,0.7-1.01C61.54,411.03,57.85,413.42,66.11,414.52z"/>
	<path d="M90.46,389.77c1.85,0.74,4.03,0,4.93-0.91C96.06,388.19,93.45,387.28,90.46,389.77z"/>
	<path d="M103.03,389.67c-1.31-1.61-2.52-3.02-4.23-5.03c0.1,1.01,0,1.51,0.1,1.81C99.67,388.09,101.22,390.12,103.03,389.67z"/>
	<path d="M122.55,385.55c-1.19-0.72-0.67-0.76-5.33-0.4C116.49,385.14,117.79,387.48,122.55,385.55z"/>
	<path d="M32.21,385.14c0.24,0.24-0.01,0.35,5.33-3.42c0-0.05,0.1-0.11,0.1-0.6C34.42,381.92,32.71,383.13,32.21,385.14z"/>
	<path d="M92.17,371.06c7.31-0.73-0.4-3.06-0.4-0.4C91.66,370.76,92.06,371.06,92.17,371.06z"/>
	<path d="M72.95,390.38c-0.2,0-0.4,0.4-0.91,0.91c0.73,0.29,0.03,0.21,2.11,0.91C74.46,390.68,74.26,390.27,72.95,390.38z"/>
	<path d="M33.82,386.15c-0.7,0.8-0.4,1.61,0.1,2.41C35.22,387.16,35.12,386.85,33.82,386.15z"/>
	<path d="M105.85,360.7c1.77-2.36-1.39-1.81-0.91-0.6C105.04,360.3,105.44,360.4,105.85,360.7z"/>
	<path d="M45.39,377c-1.61,1.21-1.61,1.51,0,2.31C45.39,378.5,45.39,377.8,45.39,377z"/>
	<path d="M86.63,390.07c0.89,0.45,0.24,0.93,1.61-0.1C87.41,389.56,87.38,389.33,86.63,390.07z"/>
	<path d="M109.27,357.78c0.41-0.81-1.4-1.59-1.61,0.1C108.26,358.48,108.76,358.48,109.27,357.78z"/>
	<path d="M112.99,383.63c0.2,0,0.4-0.4,0.6-0.6c-0.83-0.83-0.5-0.61-1.51-0.1C111.88,383.33,112.49,383.84,112.99,383.63z"/>
	<path d="M35.02,389.57c0,1.27,0.4,0.76,1.01,0.6C35.87,389.69,35.73,389.29,35.02,389.57z"/>
	<path d="M83.11,391.08c0.6,0.5,1.01,0.5,1.21,0c0.1-0.1-0.1-0.3-0.1-0.5C83.92,390.68,83.61,390.88,83.11,391.08z"/>
	<path d="M37.84,393.7c0,0.2,0.2,0.3,0.3,0.5c0-0.1,0.1-0.3,0.2-0.6C38.34,393.05,37.84,393.51,37.84,393.7z"/>
	<path d="M94.58,381.62c0.28,0.28,0.12,0.29,0.7,0C94.87,381.21,95.19,381.01,94.58,381.62z"/>
	<path d="M104.84,389.97c0.5,0,0.2,0.08,0.2-0.3C104.66,389.67,104.7,389.97,104.84,389.97z"/>
	<path d="M37.64,381.12c0.13,0.13,0.05,0.15,0.3-0.1L37.64,381.12z"/>
	<path d="M357.25,336.05c1.08-5.95-2.24-12.59-3.52-13.18c-0.88,1.03,0.77,2.78,1.61,5.94C356.61,333.55,356.04,335.9,357.25,336.05
		z"/>
	<path d="M372.04,396.91c1.41-1.27,0.45-6.79-2.01-7.85C371.28,397.23,371.16,396.62,372.04,396.91z"/>
	<path d="M341.25,299.33c-1.51,1.51,5.3,0.42,7.34-0.4C346.08,298.22,343.67,298.73,341.25,299.33z"/>
	<path d="M357.35,292.09c0-1.82-2.28-4.65-3.02-2.92C354.94,290.38,356.04,291.28,357.35,292.09z"/>
	<path d="M357.35,339.27c-1.56-0.2-1.69,2.75-0.1,3.12C357.95,341.38,357.95,340.38,357.35,339.27z"/>
	<path d="M347.79,308.28c-1.43,0-0.74,2.67,2.72,0.8C349.6,307.98,348.6,308.08,347.79,308.28z"/>
	<path d="M368.82,384.44c-0.5,0.8-0.3,1.41,0.4,2.11C369.72,385.55,369.52,384.94,368.82,384.44z"/>
	<path d="M329.89,301.85c1.29,0,1,0.31,1.51-0.7C330.58,301.14,330.87,300.53,329.89,301.85z"/>
	<path d="M358.36,347.32c-0.55,1.91-0.83,1.18,0.1,2.11C359.25,347.85,359.35,348.56,358.36,347.32z"/>
	<path d="M366.2,375.79c-0.38,0.76-0.64,0.59,0.4,1.11C367.1,376.4,366.85,376.11,366.2,375.79z"/>
	<path d="M367.11,381.12c0.48,0.24,0.74,0.67,0.2-0.4C366.86,380.72,367.01,381.12,367.11,381.12z"/>
	<path d="M359.26,352.25c0.45-0.91,0.35-0.41,0-1.11C358.78,352.1,358.67,351.66,359.26,352.25z"/>
	<path d="M358.06,345c-0.22-0.22,0.06-0.46-0.3-0.1C357.75,345.13,358.06,345.54,358.06,345z"/>
	<path d="M352.82,309.59c0,0.5,0.3,0.15,0.3,0C353.13,309.08,352.94,309.35,352.82,309.59z"/>
	<path d="M184.72,361.1c-0.7,2.82,0.3,4.63,1.41,6.44C185.93,365.53,185.83,363.51,184.72,361.1z"/>
	<path d="M414.29,393.49c7.64-6.55,1.06-5.76-1.41,0C413.59,393.49,414.09,393.7,414.29,393.49z"/>
	<path d="M423.45,399.83c-1.11-1.71-1.21-3.92-2.82-5.33C421.23,397.12,421.64,397.82,423.45,399.83z"/>
	<path d="M409.06,398.02c0.11-0.5,0.2-1.01,0.5-2.21c-1.91,1.91-1.41,3.52-0.8,5.13C409.1,399.25,408.97,398.43,409.06,398.02z"/>
	<path d="M416.2,395.51c0.85,1.48,1.22,2.28,1.51,1.71C417.01,396.17,417.35,395.08,416.2,395.51z"/>
	<path d="M420.73,394.4c0-1.01-0.1-2.01-1.31-2.82C419.62,392.79,419.82,393.7,420.73,394.4z"/>
	<path d="M272.54,410.7c0.28,0.28,1.01,0.39,1.51-0.6C274.38,406.21,268.62,407.56,272.54,410.7z"/>
	<path d="M286.63,416.73c1.99-1.26-0.7-3.35-1.21-0.8C285.42,416.43,286.13,417.05,286.63,416.73z"/>
	<path d="M390.75,444.5c0,0.1,0.3,0.3,0.6,0.6C393.43,442.33,387.96,421.5,390.75,444.5z"/>
	<path d="M31.8,412.71c-0.87,8.7,1.05,7.64,0.3-1.01C32.01,412,31.7,412.31,31.8,412.71z"/>
	<path d="M21.84,414.12c0.5-0.8,0.8-1.21,1.11-1.81C24.19,411.07,19.95,410.8,21.84,414.12z"/>
	<path d="M25.16,411.6c1.21-0.5,1.21-0.5,1.21-1.61C25.37,410.6,25.37,410.6,25.16,411.6z"/>
	<path d="M300.01,341.18c-2.72,0.3-2.35,3.12-0.4,3.12C301.41,344.3,301.61,341.18,300.01,341.18z"/>
	<path d="M298.5,351.54c-2.02-0.27-2.19,2.38-0.3,2.62C300.03,354.39,300.51,351.81,298.5,351.54z"/>
	<path d="M325.66,392.19c0.87,0,1.65,0.09,2.5,0.1C328.12,390.26,326.05,389.66,325.66,392.19z"/>
	<path d="M326.16,395.61c-0.09,0.5,0.5,1.02,1.11,0.91c0.5-0.09,0.91-0.4,1.71-0.8C328.41,395.35,326.53,393.61,326.16,395.61z"/>
<path fill="#e6e6e6" d="m206.8 163.6c0-5.1 4.1-9.2 9.3-9.2s9.2 4.2 9.2 9.2-4.1 9.2-9.3 9.2-9.2-4.1-9.2-9.2zm17.3-.1c0-4.5-3.5-8.2-8.2-8.2s-8.2 3.7-8.2 8.3c0 4.5 3.5 8.2 8.2 8.2s8.2-3.7 8.2-8.3zm-13 0c0-2.8 2.1-5.1 5.1-5.1 1.9 0 2.9.6 3.9 1.5l-1.4 1.7c-.8-.7-1.5-1.1-2.5-1.1-1.7 0-2.8 1.4-2.8 3.1s1.1 3 2.8 3c1.1 0 1.7-.5 2.5-1.1l1.4 1.4c-1.1 1.1-2.1 1.7-4 1.7-2.9 0-5-2.3-5-5.1z"/><path fill="#e6e6e6" d="m226.6 154.7h3.4l4.2 13.2 4.4-13.3h2.6l4.4 13.3 4.2-13.2h3.3l-6.2 18h-2.7l-4.4-12.8-4.4 12.8h-2.7z"/><path fill="#e6e6e6" d="m252.8 165.8c0-3.9 3.1-7 7.2-7 4.2 0 7.2 3.2 7.2 7s-3.1 7-7.3 7c-4 0-7.1-3.1-7.1-7zm11.3 0c0-2.3-1.7-4.3-4.2-4.3s-4.1 2-4.1 4.3 1.7 4.3 4.1 4.3c2.7.1 4.2-1.9 4.2-4.3z"/><path fill="#e6e6e6" d="m269.5 159.1h3.1v3c.8-2 2.4-3.4 4.8-3.3v3.2h-.2c-2.7 0-4.6 1.7-4.6 5.4v5.1h-3.1z"/><path fill="#e6e6e6" d="m279.1 153.9h3.1v11.1l5.6-6h3.8l-5.4 5.5 5.5 8h-3.5l-4.1-5.8-1.9 2v3.9h-3.1z"/><path fill="#e6e6e6" d="m291.7 165.8c0-3.9 3.1-7 7.2-7 4.2 0 7.2 3.2 7.2 7s-3.1 7-7.3 7c-4 0-7.1-3.1-7.1-7zm11.3 0c0-2.3-1.7-4.3-4.2-4.3s-4.1 2-4.1 4.3 1.7 4.3 4.1 4.3c2.6.1 4.2-1.9 4.2-4.3z"/><path fill="#e6e6e6" d="m308.2 167.6v-8.6h3.1v7.6c0 2.1 1.1 3.3 2.9 3.3s3-1.3 3-3.3v-7.6h3.1v13.4h-3.1v-2.1c-.8 1.3-2.1 2.3-4.2 2.3-3.1.2-4.8-1.8-4.8-5z"/><path fill="#e6e6e6" d="m323.9 168.8v-7.1h-1.7v-2.6h1.7v-3.7h3.1v3.7h3.6v2.6h-3.6v6.6c0 1.2.6 1.7 1.7 1.7.7 0 1.3-.2 1.9-.5v2.5c-.8.5-1.7.7-2.8.7-2.3 0-3.9-.9-3.9-3.9z"/><path fill="#e6e6e6" d="m333.2 154.7h3.2v15h9.4v2.9h-12.5v-17.9z"/><path fill="#e6e6e6" d="m356 172.5v-1.7c-.9 1.1-2.3 2-4.4 2-2.6 0-4.8-1.4-4.8-4.2 0-3 2.3-4.4 5.4-4.4 1.7 0 2.6.2 3.7.5v-.2c0-1.9-1.2-2.9-3.3-2.9-1.5 0-2.6.3-3.9.8l-.8-2.5c1.5-.7 2.9-1.1 5.1-1.1 4 0 5.9 2.1 5.9 5.7v8zm.1-5.6c-.8-.3-1.9-.5-3.1-.5-2 0-3.1.8-3.1 2.1s1.1 2 2.6 2c2 0 3.5-1.1 3.5-2.9z"/><path fill="#e6e6e6" d="m364.9 170.5v2.1h-3.1v-18.7h3.1v7.4c1-1.4 2.4-2.5 4.5-2.5 3.2 0 6.3 2.5 6.3 7s-3.1 7-6.3 7c-2.1 0-3.5-1.1-4.5-2.3zm7.7-4.7c0-2.6-1.7-4.3-3.9-4.3s-3.9 1.7-3.9 4.4c0 2.6 1.8 4.3 3.9 4.3s3.9-1.7 3.9-4.4z"/><path fill="#e6e6e6" d="m376.9 170.8 1.4-2.1c1.4 1.1 3 1.7 4.4 1.7s2.1-.5 2.1-1.5-1.3-1.4-2.8-1.8c-.1 0-.2-.1-.2-.1-2-.6-4.2-1.4-4.2-4s2.1-4.1 4.8-4.1c1.7 0 3.5.6 5 1.5l-1.2 2.2c-1.3-.8-2.6-1.3-3.8-1.3s-1.9.5-1.9 1.4 1.3 1.4 2.8 1.8c.1 0 .2.1.2.1 2 .6 4.2 1.5 4.2 4 0 2.9-2.2 4.2-5 4.2-1.9 0-4-.7-5.8-2z"/><path fill="#e6e6e6" d="m505.6 163.6c0-5.1 4.1-9.2 9.3-9.2s9.2 4.2 9.2 9.2-4.1 9.2-9.3 9.2-9.2-4.1-9.2-9.2zm17.4-.1c0-4.5-3.5-8.2-8.2-8.2s-8.2 3.7-8.2 8.3c0 4.5 3.5 8.2 8.2 8.2s8.2-3.7 8.2-8.3zm-13.1 0c0-2.8 2.1-5.1 5.1-5.1 1.9 0 2.9.6 3.9 1.5l-1.4 1.7c-.8-.7-1.5-1.1-2.5-1.1-1.7 0-2.8 1.4-2.8 3.1s1.1 3 2.8 3c1.1 0 1.7-.5 2.5-1.1l1.4 1.4c-1.1 1.1-2.1 1.7-4 1.7-2.9 0-5-2.3-5-5.1z"/><path fill="#e6e6e6" d="m525.4 154.7h3.4l4.2 13.2 4.4-13.3h2.6l4.4 13.3 4.2-13.2h3.3l-6.2 18h-2.7l-4.4-12.8-4.4 12.8h-2.7z"/><path fill="#e6e6e6" d="m551.7 165.8c0-3.9 3.1-7 7.2-7 4.2 0 7.2 3.2 7.2 7s-3.1 7-7.3 7c-4.1 0-7.1-3.1-7.1-7zm11.2 0c0-2.3-1.7-4.3-4.2-4.3s-4.1 2-4.1 4.3 1.7 4.3 4.1 4.3c2.7.1 4.2-1.9 4.2-4.3z"/><path fill="#e6e6e6" d="m568.3 159.1h3.1v3c.8-2 2.4-3.4 4.8-3.3v3.2h-.2c-2.7 0-4.6 1.7-4.6 5.4v5.1h-3.1z"/><path fill="#e6e6e6" d="m577.9 153.9h3.1v11.1l5.6-6h3.8l-5.4 5.5 5.5 8h-3.5l-4.1-5.8-1.9 2v3.9h-3.1z"/><path fill="#e6e6e6" d="m590.6 165.8c0-3.9 3.1-7 7.2-7 4.2 0 7.2 3.2 7.2 7s-3.1 7-7.3 7c-4.1 0-7.1-3.1-7.1-7zm11.2 0c0-2.3-1.7-4.3-4.2-4.3s-4.1 2-4.1 4.3 1.7 4.3 4.1 4.3c2.6.1 4.2-1.9 4.2-4.3z"/><path fill="#e6e6e6" d="m607 167.6v-8.6h3.1v7.6c0 2.1 1.1 3.3 2.9 3.3s3-1.3 3-3.3v-7.6h3.1v13.4h-3.1v-2.1c-.8 1.3-2.1 2.3-4.2 2.3-3 .2-4.8-1.8-4.8-5z"/><path fill="#e6e6e6" d="m622.7 168.8v-7.1h-1.7v-2.6h1.7v-3.7h3.1v3.7h3.6v2.6h-3.6v6.6c0 1.2.6 1.7 1.7 1.7.7 0 1.3-.2 1.9-.5v2.5c-.8.5-1.7.7-2.8.7-2.3 0-3.9-.9-3.9-3.9z"/><path fill="#e6e6e6" d="m632 154.7h3.2v15h9.4v2.9h-12.6z"/><path fill="#e6e6e6" d="m654.8 172.5v-1.7c-.9 1.1-2.3 2-4.4 2-2.6 0-4.8-1.4-4.8-4.2 0-3 2.3-4.4 5.4-4.4 1.7 0 2.6.2 3.7.5v-.2c0-1.9-1.2-2.9-3.3-2.9-1.5 0-2.6.3-3.9.8l-.8-2.5c1.5-.7 2.9-1.1 5.1-1.1 4 0 5.9 2.1 5.9 5.7v8zm.1-5.6c-.8-.3-1.9-.5-3.1-.5-2 0-3.1.8-3.1 2.1s1.1 2 2.6 2c2 0 3.5-1.1 3.5-2.9z"/><path fill="#e6e6e6" d="m663.7 170.5v2.1h-3.1v-18.7h3.1v7.4c1-1.4 2.4-2.5 4.5-2.5 3.2 0 6.3 2.5 6.3 7s-3.1 7-6.3 7c-2.1 0-3.5-1.1-4.5-2.3zm7.8-4.7c0-2.6-1.7-4.3-3.9-4.3-2.1 0-3.9 1.7-3.9 4.4 0 2.6 1.8 4.3 3.9 4.3s3.9-1.7 3.9-4.4z"/><path fill="#e6e6e6" d="m675.8 170.8 1.4-2.1c1.4 1.1 3 1.7 4.4 1.7s2.1-.5 2.1-1.5-1.3-1.4-2.8-1.8c-.1 0-.2-.1-.2-.1-2-.6-4.2-1.4-4.2-4s2.1-4.1 4.8-4.1c1.7 0 3.5.6 5 1.5l-1.2 2.2c-1.3-.8-2.6-1.3-3.8-1.3s-1.9.5-1.9 1.4 1.3 1.4 2.8 1.8c.1 0 .2.1.2.1 2 .6 4.2 1.5 4.2 4 0 2.9-2.2 4.2-5 4.2-2 0-4.1-.7-5.8-2z"/><path fill="#e6e6e6" d="m61 298.6c0-5.1 4.1-9.2 9.3-9.2s9.2 4.2 9.2 9.2-4.1 9.2-9.3 9.2c-5.1 0-9.2-4.2-9.2-9.2zm17.4-.1c0-4.5-3.5-8.2-8.2-8.2s-8.2 3.7-8.2 8.3c0 4.5 3.5 8.2 8.2 8.2s8.2-3.7 8.2-8.3zm-13.1-.1c0-2.8 2.1-5.1 5.1-5.1 1.9 0 2.9.6 3.9 1.5l-1.4 1.7c-.8-.7-1.5-1.1-2.5-1.1-1.7 0-2.8 1.4-2.8 3.1s1.1 3 2.8 3c1.1 0 1.7-.5 2.5-1.1l1.4 1.4c-1.1 1.1-2.1 1.7-4 1.7-2.8.1-5-2.2-5-5.1z"/><path fill="#e6e6e6" d="m80.9 289.7h3.4l4.2 13.2 4.4-13.3h2.6l4.4 13.3 4.2-13.2h3.3l-6.2 18h-2.7l-4.4-12.8-4.4 12.8h-2.7z"/><path fill="#e6e6e6" d="m107.1 300.8c0-3.9 3.1-7 7.2-7s7.2 3.2 7.2 7-3.1 7-7.3 7c-4 0-7.1-3.1-7.1-7zm11.3 0c0-2.3-1.7-4.3-4.2-4.3s-4.1 2-4.1 4.3 1.7 4.3 4.1 4.3c2.6.1 4.2-1.9 4.2-4.3z"/><path fill="#e6e6e6" d="m123.7 294h3.1v3c.8-2 2.4-3.4 4.8-3.3v3.2h-.2c-2.7 0-4.6 1.7-4.6 5.4v5.1h-3.1z"/><path fill="#e6e6e6" d="m133.4 288.9h3.1v11.1l5.6-6h3.8l-5.4 5.5 5.5 8h-3.5l-4.1-5.8-1.9 1.9v3.9h-3.1z"/><path fill="#e6e6e6" d="m146 300.8c0-3.9 3.1-7 7.2-7s7.2 3.2 7.2 7-3.1 7-7.3 7c-4.1 0-7.1-3.1-7.1-7zm11.2 0c0-2.3-1.7-4.3-4.2-4.3s-4.1 2-4.1 4.3 1.7 4.3 4.1 4.3c2.6.1 4.2-1.9 4.2-4.3z"/><path fill="#e6e6e6" d="m162.4 302.6v-8.6h3.1v7.6c0 2.1 1.1 3.3 2.9 3.3s3-1.3 3-3.3v-7.6h3.1v13.4h-3.1v-2.1c-.8 1.3-2.1 2.3-4.2 2.3-3 .2-4.8-1.8-4.8-5z"/><path fill="#e6e6e6" d="m178.1 303.8v-7.1h-1.7v-2.7h1.7v-3.7h3.1v3.7h3.6v2.6h-3.6v6.6c0 1.2.6 1.7 1.7 1.7.7 0 1.3-.2 1.9-.5v2.5c-.8.5-1.7.7-2.8.7-2.3.1-3.9-.9-3.9-3.8z"/><path fill="#e6e6e6" d="m187.4 289.7h3.2v15h9.4v2.9h-12.5v-17.9z"/><path fill="#e6e6e6" d="m210.2 307.5v-1.7c-.9 1.1-2.3 2-4.4 2-2.6 0-4.8-1.4-4.8-4.2 0-3 2.3-4.4 5.4-4.4 1.7 0 2.6.2 3.7.5v-.2c0-1.9-1.2-2.9-3.3-2.9-1.5 0-2.6.3-3.9.8l-.8-2.5c1.5-.7 2.9-1.1 5.1-1.1 4 0 5.9 2.1 5.9 5.7v8zm.1-5.6c-.8-.3-1.9-.5-3.1-.5-2 0-3.1.8-3.1 2.1s1.1 2 2.6 2c2 0 3.5-1.1 3.5-2.9z"/><path fill="#e6e6e6" d="m219.2 305.5v2.1h-3.1v-18.7h3.1v7.4c1-1.4 2.4-2.5 4.5-2.5 3.2 0 6.3 2.5 6.3 7s-3.1 7-6.3 7c-2.2 0-3.6-1.1-4.5-2.3zm7.7-4.7c0-2.6-1.7-4.3-3.9-4.3s-3.9 1.7-3.9 4.4c0 2.6 1.8 4.3 3.9 4.3s3.9-1.7 3.9-4.4z"/><path fill="#e6e6e6" d="m231.2 305.8 1.4-2.1c1.4 1.1 3 1.7 4.4 1.7s2.1-.5 2.1-1.5-1.3-1.4-2.8-1.8c-.1 0-.2-.1-.2-.1-2-.6-4.2-1.4-4.2-4s2.1-4.1 4.8-4.1c1.7 0 3.5.6 5 1.5l-1.2 2.2c-1.3-.8-2.6-1.3-3.8-1.3s-1.9.5-1.9 1.4 1.3 1.4 2.8 1.8c.1 0 .2.1.2.1 2 .6 4.2 1.5 4.2 4 0 2.9-2.2 4.2-5 4.2-2 0-4.1-.7-5.8-2z"/><path fill="#e6e6e6" d="m360.6 298.6c0-5.1 4.1-9.2 9.3-9.2s9.2 4.2 9.2 9.2-4.1 9.2-9.3 9.2-9.2-4.2-9.2-9.2zm17.4-.1c0-4.5-3.5-8.2-8.2-8.2s-8.2 3.7-8.2 8.3c0 4.5 3.5 8.2 8.2 8.2s8.2-3.7 8.2-8.3zm-13.1-.1c0-2.8 2.1-5.1 5.1-5.1 1.9 0 2.9.6 3.9 1.5l-1.4 1.7c-.8-.7-1.5-1.1-2.5-1.1-1.7 0-2.8 1.4-2.8 3.1s1.1 3 2.8 3c1.1 0 1.7-.5 2.5-1.1l1.4 1.4c-1.1 1.1-2.1 1.7-4 1.7-2.8.1-5-2.2-5-5.1z"/><path fill="#e6e6e6" d="m380.5 289.7h3.4l4.2 13.2 4.4-13.3h2.6l4.4 13.3 4.2-13.2h3.3l-6.2 18h-2.7l-4.4-12.8-4.4 12.8h-2.7z"/><path fill="#e6e6e6" d="m406.7 300.8c0-3.9 3.1-7 7.2-7 4.2 0 7.2 3.2 7.2 7s-3.1 7-7.3 7c-4.1 0-7.1-3.1-7.1-7zm11.3 0c0-2.3-1.7-4.3-4.2-4.3s-4.1 2-4.1 4.3 1.7 4.3 4.1 4.3c2.7.1 4.2-1.9 4.2-4.3z"/><path fill="#e6e6e6" d="m423.3 294h3.1v3c.8-2 2.4-3.4 4.8-3.3v3.2h-.2c-2.7 0-4.6 1.7-4.6 5.4v5.1h-3.1z"/><path fill="#e6e6e6" d="m433 288.9h3.1v11.1l5.6-6h3.8l-5.4 5.5 5.5 8h-3.5l-4.1-5.8-1.9 2v3.9h-3.1z"/><path fill="#e6e6e6" d="m445.6 300.8c0-3.9 3.1-7 7.2-7 4.2 0 7.2 3.2 7.2 7s-3.1 7-7.3 7c-4.1 0-7.1-3.1-7.1-7zm11.3 0c0-2.3-1.7-4.3-4.2-4.3s-4.1 2-4.1 4.3 1.7 4.3 4.1 4.3c2.6.1 4.2-1.9 4.2-4.3z"/><path fill="#e6e6e6" d="m462.1 302.6v-8.6h3.1v7.6c0 2.1 1.1 3.3 2.9 3.3s3-1.3 3-3.3v-7.6h3.1v13.4h-3.1v-2.1c-.8 1.3-2.1 2.3-4.2 2.3-3.1.2-4.8-1.8-4.8-5z"/><path fill="#e6e6e6" d="m477.8 303.8v-7.1h-1.8v-2.7h1.7v-3.7h3.1v3.7h3.6v2.6h-3.6v6.6c0 1.2.6 1.7 1.7 1.7.7 0 1.3-.2 1.9-.5v2.5c-.8.5-1.7.7-2.8.7-2.2.1-3.8-.9-3.8-3.8z"/><path fill="#e6e6e6" d="m487.1 289.7h3.2v15h9.4v2.9h-12.5v-17.9z"/><path fill="#e6e6e6" d="m509.9 307.5v-1.7c-.9 1.1-2.3 2-4.4 2-2.6 0-4.8-1.4-4.8-4.2 0-3 2.3-4.4 5.4-4.4 1.7 0 2.6.2 3.7.5v-.2c0-1.9-1.2-2.9-3.3-2.9-1.5 0-2.6.3-3.9.8l-.8-2.5c1.5-.7 2.9-1.1 5.1-1.1 4 0 5.9 2.1 5.9 5.7v8zm.1-5.6c-.8-.3-1.9-.5-3.1-.5-2 0-3.1.8-3.1 2.1s1.1 2 2.6 2c2 0 3.5-1.1 3.5-2.9z"/><path fill="#e6e6e6" d="m518.8 305.5v2.1h-3.1v-18.7h3.1v7.4c1-1.4 2.4-2.5 4.5-2.5 3.2 0 6.3 2.5 6.3 7s-3.1 7-6.3 7c-2.2 0-3.5-1.1-4.5-2.3zm7.7-4.7c0-2.6-1.7-4.3-3.9-4.3s-3.9 1.7-3.9 4.4c0 2.6 1.8 4.3 3.9 4.3s3.9-1.7 3.9-4.4z"/><path fill="#e6e6e6" d="m530.8 305.8 1.4-2.1c1.4 1.1 3 1.7 4.4 1.7s2.1-.5 2.1-1.5-1.3-1.4-2.8-1.8c-.1 0-.2-.1-.2-.1-2-.6-4.2-1.4-4.2-4s2.1-4.1 4.8-4.1c1.7 0 3.5.6 5 1.5l-1.2 2.2c-1.3-.8-2.6-1.3-3.8-1.3s-1.9.5-1.9 1.4 1.3 1.4 2.8 1.8c.1 0 .2.1.2.1 2 .6 4.2 1.5 4.2 4 0 2.9-2.2 4.2-5 4.2-1.9 0-4.1-.7-5.8-2z"/><path fill="#e6e6e6" d="m659.5 298.6c0-5.1 4.1-9.2 9.3-9.2s9.2 4.2 9.2 9.2-4.1 9.2-9.3 9.2-9.2-4.2-9.2-9.2zm17.3-.1c0-4.5-3.5-8.2-8.2-8.2s-8.2 3.7-8.2 8.3c0 4.5 3.5 8.2 8.2 8.2 4.8 0 8.2-3.7 8.2-8.3zm-13-.1c0-2.8 2.1-5.1 5.1-5.1 1.9 0 2.9.6 3.9 1.5l-1.4 1.7c-.8-.7-1.5-1.1-2.5-1.1-1.7 0-2.8 1.4-2.8 3.1s1.1 3 2.8 3c1.1 0 1.7-.5 2.5-1.1l1.4 1.4c-1.1 1.1-2.1 1.7-4 1.7-2.9.1-5-2.2-5-5.1z"/><path fill="#e6e6e6" d="m679.3 289.7h3.4l4.2 13.2 4.4-13.3h2.6l4.4 13.3 4.2-13.2h3.3l-6.2 18h-2.6l-4.4-12.8-4.4 12.8h-2.7z"/><path fill="#e6e6e6" d="m705.5 300.8c0-3.9 3.1-7 7.2-7 4.2 0 7.2 3.2 7.2 7s-3.1 7-7.3 7c-4 0-7.1-3.1-7.1-7zm11.3 0c0-2.3-1.7-4.3-4.2-4.3s-4.1 2-4.1 4.3 1.7 4.3 4.1 4.3c2.7.1 4.2-1.9 4.2-4.3z"/><path fill="#e6e6e6" d="m722.1 294h3.1v3c.8-2 2.4-3.4 4.8-3.3v3.2h-.2c-2.7 0-4.6 1.7-4.6 5.4v5.1h-3.1z"/><path fill="#e6e6e6" d="m731.8 288.9h3.1v11.1l5.6-6h3.8l-5.4 5.5 5.5 8h-3.5l-4.1-5.8-1.9 2v3.9h-3.1z"/><path fill="#e6e6e6" d="m744.4 300.8c0-3.9 3.1-7 7.2-7 4.2 0 7.2 3.2 7.2 7s-3.1 7-7.3 7c-4.1 0-7.1-3.1-7.1-7zm11.3 0c0-2.3-1.7-4.3-4.2-4.3s-4.1 2-4.1 4.3 1.7 4.3 4.1 4.3c2.6.1 4.2-1.9 4.2-4.3z"/><path fill="#e6e6e6" d="m760.9 302.6v-8.6h3.1v7.6c0 2.1 1.1 3.3 2.9 3.3s3-1.3 3-3.3v-7.6h3.1v13.4h-3.1v-2.1c-.8 1.3-2.1 2.3-4.2 2.3-3.1.2-4.8-1.8-4.8-5z"/><path fill="#e6e6e6" d="m776.6 303.8v-7.1h-1.7v-2.7h1.7v-3.7h3.1v3.7h3.6v2.6h-3.6v6.6c0 1.2.6 1.7 1.7 1.7.7 0 1.3-.2 1.9-.5v2.5c-.8.5-1.7.7-2.8.7-2.3.1-3.9-.9-3.9-3.8z"/><path fill="#e6e6e6" d="m785.9 289.7h3.2v15h9.4v2.9h-12.5v-17.9z"/><path fill="#e6e6e6" d="m808.7 307.5v-1.7c-.9 1.1-2.3 2-4.4 2-2.6 0-4.8-1.4-4.8-4.2 0-3 2.3-4.4 5.4-4.4 1.7 0 2.6.2 3.7.5v-.2c0-1.9-1.2-2.9-3.3-2.9-1.5 0-2.6.3-3.9.8l-.8-2.5c1.5-.7 2.9-1.1 5.1-1.1 4 0 5.9 2.1 5.9 5.7v8zm.1-5.6c-.8-.3-1.9-.5-3.1-.5-2 0-3.1.8-3.1 2.1s1.1 2 2.6 2c2 0 3.5-1.1 3.5-2.9z"/><path fill="#e6e6e6" d="m817.6 305.5v2.1h-3.1v-18.7h3.1v7.4c1-1.4 2.4-2.5 4.5-2.5 3.2 0 6.3 2.5 6.3 7s-3.1 7-6.3 7c-2.1 0-3.5-1.1-4.5-2.3zm7.7-4.7c0-2.6-1.7-4.3-3.9-4.3-2.1 0-3.9 1.7-3.9 4.4 0 2.6 1.8 4.3 3.9 4.3 2.2 0 3.9-1.7 3.9-4.4z"/><path fill="#e6e6e6" d="m829.6 305.8 1.4-2.1c1.4 1.1 3 1.7 4.4 1.7s2.1-.5 2.1-1.5-1.3-1.4-2.8-1.8c-.1 0-.2-.1-.2-.1-2-.6-4.2-1.4-4.2-4s2.1-4.1 4.8-4.1c1.7 0 3.5.6 5 1.5l-1.2 2.2c-1.3-.8-2.6-1.3-3.8-1.3s-1.9.5-1.9 1.4 1.3 1.4 2.8 1.8c.1 0 .2.1.2.1 2 .6 4.2 1.5 4.2 4 0 2.9-2.2 4.2-5 4.2-1.9 0-4-.7-5.8-2z"/><path fill="#e6e6e6" d="m206.3 434.2c0-5.1 4.1-9.2 9.3-9.2s9.2 4.2 9.2 9.2-4.1 9.2-9.3 9.2-9.2-4.1-9.2-9.2zm17.4-.1c0-4.5-3.5-8.2-8.2-8.2s-8.2 3.7-8.2 8.3c0 4.5 3.5 8.2 8.2 8.2s8.2-3.7 8.2-8.3zm-13.1-.1c0-2.8 2.1-5.1 5.1-5.1 1.9 0 2.9.6 3.9 1.5l-1.4 1.7c-.8-.7-1.5-1.1-2.5-1.1-1.7 0-2.8 1.4-2.8 3.1s1.1 3 2.8 3c1.1 0 1.7-.5 2.5-1.1l1.4 1.4c-1.1 1.1-2.1 1.7-4 1.7-2.9.1-5-2.2-5-5.1z"/><path fill="#e6e6e6" d="m226.1 425.3h3.4l4.2 13.2 4.4-13.3h2.6l4.4 13.3 4.2-13.2h3.3l-6.2 18h-2.7l-4.4-12.8-4.4 12.8h-2.7z"/><path fill="#e6e6e6" d="m252.4 436.4c0-3.9 3.1-7 7.2-7 4.2 0 7.2 3.2 7.2 7s-3.1 7-7.3 7c-4.1 0-7.1-3.1-7.1-7zm11.2 0c0-2.3-1.7-4.3-4.2-4.3s-4.1 2-4.1 4.3 1.7 4.3 4.1 4.3c2.7.1 4.2-1.9 4.2-4.3z"/><path fill="#e6e6e6" d="m269 429.7h3.1v3c.8-2 2.4-3.4 4.8-3.3v3.2h-.2c-2.7 0-4.6 1.7-4.6 5.4v5.1h-3.1z"/><path fill="#e6e6e6" d="m278.6 424.5h3.1v11.1l5.6-6h3.8l-5.4 5.5 5.5 8h-3.5l-4.1-5.8-1.9 2v3.9h-3.1z"/><path fill="#e6e6e6" d="m291.3 436.4c0-3.9 3.1-7 7.2-7 4.2 0 7.2 3.2 7.2 7s-3.1 7-7.3 7c-4.1 0-7.1-3.1-7.1-7zm11.2 0c0-2.3-1.7-4.3-4.2-4.3s-4.1 2-4.1 4.3 1.7 4.3 4.1 4.3c2.6.1 4.2-1.9 4.2-4.3z"/><path fill="#e6e6e6" d="m307.7 438.2v-8.6h3.1v7.6c0 2.1 1.1 3.3 2.9 3.3s3-1.3 3-3.3v-7.6h3.1v13.4h-3.1v-2.1c-.8 1.3-2.1 2.3-4.2 2.3-3 .2-4.8-1.8-4.8-5z"/><path fill="#e6e6e6" d="m323.4 439.4v-7.1h-1.7v-2.6h1.7v-3.7h3.1v3.7h3.6v2.6h-3.6v6.6c0 1.2.6 1.7 1.7 1.7.7 0 1.3-.2 1.9-.5v2.5c-.8.5-1.7.7-2.8.7-2.3 0-3.9-.9-3.9-3.9z"/><path fill="#e6e6e6" d="m332.7 425.3h3.2v15h9.4v2.9h-12.5v-17.9z"/><path fill="#e6e6e6" d="m355.5 443.1v-1.7c-.9 1.1-2.3 2-4.4 2-2.6 0-4.8-1.4-4.8-4.2 0-3 2.3-4.4 5.4-4.4 1.7 0 2.6.2 3.7.5v-.2c0-1.9-1.2-2.9-3.3-2.9-1.5 0-2.6.3-3.9.8l-.8-2.5c1.5-.7 2.9-1.1 5.1-1.1 4 0 5.9 2.1 5.9 5.7v8zm.1-5.6c-.8-.3-1.9-.5-3.1-.5-2 0-3.1.8-3.1 2.1s1.1 2 2.6 2c2 0 3.5-1.1 3.5-2.9z"/><path fill="#e6e6e6" d="m364.4 441.1v2.1h-3.1v-18.7h3.1v7.4c1-1.4 2.4-2.5 4.5-2.5 3.2 0 6.3 2.5 6.3 7s-3.1 7-6.3 7c-2.1 0-3.5-1.1-4.5-2.3zm7.7-4.7c0-2.6-1.7-4.3-3.9-4.3-2.1 0-3.9 1.7-3.9 4.4 0 2.6 1.8 4.3 3.9 4.3 2.2 0 3.9-1.7 3.9-4.4z"/><path fill="#e6e6e6" d="m376.5 441.4 1.4-2.1c1.4 1.1 3 1.7 4.4 1.7s2.1-.5 2.1-1.5-1.3-1.4-2.8-1.8c-.1 0-.2-.1-.2-.1-2-.6-4.2-1.4-4.2-4s2.1-4.1 4.8-4.1c1.7 0 3.5.6 5 1.5l-1.2 2.2c-1.3-.8-2.6-1.3-3.8-1.3s-1.9.5-1.9 1.4 1.3 1.4 2.8 1.8c.1 0 .2.1.2.1 2 .6 4.2 1.5 4.2 4 0 2.9-2.2 4.2-5 4.2-2 0-4.1-.7-5.8-2z"/><path fill="#e6e6e6" d="m505.1 434.2c0-5.1 4.1-9.2 9.3-9.2s9.2 4.2 9.2 9.2-4.1 9.2-9.3 9.2-9.2-4.1-9.2-9.2zm17.4-.1c0-4.5-3.5-8.2-8.2-8.2s-8.2 3.7-8.2 8.3c0 4.5 3.5 8.2 8.2 8.2s8.2-3.7 8.2-8.3zm-13.1-.1c0-2.8 2.1-5.1 5.1-5.1 1.9 0 2.9.6 3.9 1.5l-1.4 1.7c-.8-.7-1.5-1.1-2.5-1.1-1.7 0-2.8 1.4-2.8 3.1s1.1 3 2.8 3c1.1 0 1.7-.5 2.5-1.1l1.4 1.4c-1.1 1.1-2.1 1.7-4 1.7-2.9.1-5-2.2-5-5.1z"/><path fill="#e6e6e6" d="m525 425.3h3.4l4.2 13.2 4.4-13.3h2.6l4.4 13.3 4.2-13.2h3.3l-6.2 18h-2.7l-4.4-12.8-4.4 12.8h-2.7z"/><path fill="#e6e6e6" d="m551.2 436.4c0-3.9 3.1-7 7.2-7 4.2 0 7.2 3.2 7.2 7s-3.1 7-7.3 7c-4.1 0-7.1-3.1-7.1-7zm11.2 0c0-2.3-1.7-4.3-4.2-4.3s-4.1 2-4.1 4.3 1.7 4.3 4.1 4.3c2.7.1 4.2-1.9 4.2-4.3z"/><path fill="#e6e6e6" d="m567.8 429.7h3.1v3c.8-2 2.4-3.4 4.8-3.3v3.2h-.2c-2.7 0-4.6 1.7-4.6 5.4v5.1h-3.1z"/><path fill="#e6e6e6" d="m577.5 424.5h3.1v11.1l5.6-6h3.8l-5.4 5.5 5.5 8h-3.5l-4.1-5.8-1.9 2v3.9h-3.1z"/><path fill="#e6e6e6" d="m590.1 436.4c0-3.9 3.1-7 7.2-7 4.2 0 7.2 3.2 7.2 7s-3.1 7-7.3 7c-4.1 0-7.1-3.1-7.1-7zm11.2 0c0-2.3-1.7-4.3-4.2-4.3s-4.1 2-4.1 4.3 1.7 4.3 4.1 4.3c2.6.1 4.2-1.9 4.2-4.3z"/><path fill="#e6e6e6" d="m606.5 438.2v-8.6h3.1v7.6c0 2.1 1.1 3.3 2.9 3.3s3-1.3 3-3.3v-7.6h3.1v13.4h-3.1v-2.1c-.8 1.3-2.1 2.3-4.2 2.3-3 .2-4.8-1.8-4.8-5z"/><path fill="#e6e6e6" d="m622.2 439.4v-7.1h-1.7v-2.6h1.7v-3.7h3.1v3.7h3.6v2.6h-3.6v6.6c0 1.2.6 1.7 1.7 1.7.7 0 1.3-.2 1.9-.5v2.5c-.8.5-1.7.7-2.8.7-2.3 0-3.9-.9-3.9-3.9z"/><path fill="#e6e6e6" d="m631.5 425.3h3.2v15h9.4v2.9h-12.5v-17.9z"/><path fill="#e6e6e6" d="m654.3 443.1v-1.7c-.9 1.1-2.3 2-4.4 2-2.6 0-4.8-1.4-4.8-4.2 0-3 2.3-4.4 5.4-4.4 1.7 0 2.6.2 3.7.5v-.2c0-1.9-1.2-2.9-3.3-2.9-1.5 0-2.6.3-3.9.8l-.8-2.5c1.5-.7 2.9-1.1 5.1-1.1 4 0 5.9 2.1 5.9 5.7v8zm.1-5.6c-.8-.3-1.9-.5-3.1-.5-2 0-3.1.8-3.1 2.1s1.1 2 2.6 2c2 0 3.5-1.1 3.5-2.9z"/><path fill="#e6e6e6" d="m663.3 441.1v2.1h-3.1v-18.7h3.1v7.4c1-1.4 2.4-2.5 4.5-2.5 3.2 0 6.3 2.5 6.3 7s-3.1 7-6.3 7c-2.2 0-3.6-1.1-4.5-2.3zm7.7-4.7c0-2.6-1.7-4.3-3.9-4.3s-3.9 1.7-3.9 4.4c0 2.6 1.8 4.3 3.9 4.3s3.9-1.7 3.9-4.4z"/><path fill="#e6e6e6" d="m675.3 441.4 1.4-2.1c1.4 1.1 3 1.7 4.4 1.7s2.1-.5 2.1-1.5-1.3-1.4-2.8-1.8c-.1 0-.2-.1-.2-.1-2-.6-4.2-1.4-4.2-4s2.1-4.1 4.8-4.1c1.7 0 3.5.6 5 1.5l-1.2 2.2c-1.3-.8-2.6-1.3-3.8-1.3s-1.9.5-1.9 1.4 1.3 1.4 2.8 1.8c.1 0 .2.1.2.1 2 .6 4.2 1.5 4.2 4 0 2.9-2.2 4.2-5 4.2-2 0-4.1-.7-5.8-2z"/></g>
</svg>
