<?xml version="1.0" encoding="utf-8"?>
<!-- Generator: Adobe Illustrator 23.0.1, SVG Export Plug-In . SVG Version: 6.00 Build 0)  -->
<svg version="1.2" baseProfile="tiny" id="Layer_1" xmlns="http://www.w3.org/2000/svg" xmlns:xlink="http://www.w3.org/1999/xlink"
	 x="0px" y="0px" viewBox="0 0 900 600" xml:space="preserve">
<g>
	<path d="M599.53,421.03c0.13-0.17,0.15-0.13,0.05-0.22c0.12-0.82-1.36,0.13-1.36,1.71c0.48-0.2,0.85-0.76,0,0.51
		c0.8-0.98,1.18-1.63,1.31-2.03C599.53,421.02,599.53,421.03,599.53,421.03z"/>
	<path d="M624.73,200.46l-0.1-0.1C624.55,200.4,624.65,200.43,624.73,200.46z"/>
	<path d="M678.79,346.05v-0.1C678.76,345.91,678.78,346,678.79,346.05z"/>
	<path d="M688.11,274.79c-0.2-0.03-0.17-0.07-0.89,0.39C687.49,275.07,687.78,274.93,688.11,274.79z"/>
	<path d="M679.87,285.35c0.05,0.3,0.09,0.61,0.15,0.91c0.01-0.15,0.01-0.31,0.02-0.46C679.98,285.52,679.93,285.38,679.87,285.35z"
		/>
	<path d="M744.42,275.2c1.69-5.28,4.78-13.26-0.82-13.72c-22.9-1.88-55.23,1.87-60.3,2.87c-1.84-4.5,2.15-9.11-1.23-13.41
		c-2.66,0.41-5.22,0.51-7.78,0.31c-0.2-0.92,0.1-1.43,0.41-1.95c4.1-5.43,6.45-11.77,9.42-17.71c7.02-14.05,4.88-4.97,8.4-31.74
		c3.93-2.36,0.1,4.86,0.1,9.11c1.33-3.28,3.89-6.14,3.58-9.93c0-0.92,0.52-1.53,1.23-2.05c4.12-3.02,5.71-3.36,13.31,1.02
		c4.02,2.31,8.38,0.82,9.73-3.58c0.41-1.33,0.82-2.25,2.15-2.97c3.35-1.54,1.7-4.53,2.76-4.5c2.56,0.05,2.46-2.25,3.38-3.48
		c7.62-1.3,3.27-4.6,6.04-14.64c2.87-0.72,3.91-2.96,4.5-5.73c2.25-10.47,2.09-8.85,6.86-7.68c8.26,2.02,11.24-6.59,7.99-7.99
		c-0.93-0.4-1.84-0.51-2.76-0.72c0-1.02,1.33-0.51,1.43-1.74c-0.61-0.82-1.33-1.95-1.23-3.17c-1.74-0.82-2.76,0.82-4.2,0.82
		c0.61-5.63-4.61-6.04-7.27-8.7c0.1-0.72,1.23-0.92,0.82-1.95c-1.49-1.67-5.86-0.62-8.19-2.76c-2.77-2.55-5.63-4.71-9.11-5.43
		c-0.41-1.13,1.33-1.64,0-2.46c-5.22,1.43-9.73-4.71-14.64-1.23c-1.13-0.72-0.41-1.83-1.43-2.05c-0.92-0.19-1.33,1.02-2.15,0.82
		c-1.23-1.84-0.61-4.5-2.97-5.73c-0.92,1.43,0.51,3.07-0.61,4.2c-2.66,1.33-5.63,0.51-8.09,1.02c-0.61,2.05,1.33,2.46,1.43,3.69
		c-1.64,1.23-4.1,0.41-4.81,2.56c0.61,0.82,1.54,0.1,1.84,0.72c-8.28,5.66-13.04,26.34-15.46,36.04c-5.14,2.57-7.73,4.91-12.18,3.07
		c-4.92-2.03-9.83-1.02-14.85,0.72c-2.7-3.89-13.13-11.54-25.08-6.96c-2.97,1.14-4.61,4.61-8.4,4.61c7.54,3.63,7.36-5.84,20.78-3.07
		c5.01,1.03,9.32,3.58,12.8,7.88c2.15,0,4.3-2.05,6.76-1.33c0.29,0.67,5.98,13.21,6.35,16.48c1,8.78-2.89,29.07-5.53,32.97
		c-18.16,26.82-9.69,13.61-16.79,19.35c-7.14,5.77-10.17,5.77-16.89-0.31c-9.36-8.45-15.15-20.89-9.32-33.38c2.15,0,4.2,0,6.35,0
		c0.72,4.4,1.33,8.6,4.71,12.39c2.2-6.95-2.76-11.61-0.86-13.37c-1.67-0.66-2.89-2.29-4.98-2.19c-13.12,0.65-36.06-6.92-38.39-8.6
		c0.31-6.25-0.61-10.85-2.97-14.33c-1.52,4.57,4.1,9.02-1.23,19.25c-1.38,2.65,0.86,0.32-2.15,14.85
		c-3.64,17.58,0.18,6.5,0.82,29.79c0.31,11.39,9.87,8.39,15.77,13.51c-4.2-0.31-5.02,0.41-5.02,4.5c0,5.02,0.31,9.93,1.13,14.85
		c-2.25,0.92-4.1,1.02-5.73,0c-0.61-2.56,1.21-5.01-0.1-7.27c-1.24-2.14-1.13-4.71-2.87-6.76c0.41,4.81,2.15,9.42,0.61,14.23
		c-8.19,2.94-4.41-5.08-7.88-6.04c-2.91,3.22,4.68,9.54-4.3,4.3c-1.13-1.33-0.82-3.48-2.76-3.99c-1.64,1.54,0.31,2.97-0.1,4.5
		c-0.92-0.2-2.05,0.21-2.56-0.92c-1.75-3.89-4.91-7.06-6.45-11.06c2.26-3.62,4.96-6.68,4.1-13.41
		c-3.57-27.87-14.38-52.09-5.73-76.58c14.77-11.17,21.65-4.45,28.56-5.02c-0.61-1.64-3.07-0.41-3.58-2.25
		c12.18-0.82,24.26-2.66,36.14,1.64c0.1-1.43-0.41-1.75-1.02-1.95c-14.82-4.7-20.96-3.68-44.74-1.23
		c-5.74,0.59-11.32,1.79-15.36,6.14c-0.94,1.01-2.15,0.1-2.97,1.23c-1.32,12.58-4.93,13.26-0.61,41.77
		c3.24,21.37,12.01,38.19,3.99,48.02c-4.61-0.51-9.42,0.24-14.13,0.72c-6.62,0.67-7.92,9.06-1.84,14.13c1.33-0.2,2.77-0.73,4.2-0.61
		c15.31,1.2,13.63-0.73,15.66,0.2c3.79,1.74,7.89,1.22,11.77,2.56c2.36,0.81,5.12,0.93,7.58,0.61c7.32-0.94,10.34,1.19,12.49-2.15
		c0.6-0.93-1.13-2.25,0.92-3.38c0.2,3.89-0.43,7.25-2.25,10.34c-2.7,4.59-4.56,9.67-8.19,13.72c-1.11,1.24-1.13,2.76-0.61,4.61
		c-3.88-1.05-4.09,1.04-9.42,7.37c-8.62,10.23-9.61,12.23-12.7,26.31c-5.23,23.87-9.5,50.96-20.78,73.92
		c-0.51,0.1-1.33-1.02-2.15,0.51c5.22,7.06,13.41,9.83,20.78,13.72c0,12.48,0.87,14.47-3.17,15.36
		c-26.66,5.84-18.92,4.02-38.5,25.19c-28.75,31.09-41.68,39.46-21.6,50.17c-4.5,1.95-7.99-2.25-12.18-1.23
		c-0.51-7.37,2.46-13.51,5.63-19.55c-4.61-1.13-9.01,1.23-10.85,5.63c-1.33,3.17-3.58,4.91-6.86,5.43
		c-7.07,1.12-8.87,8.58-6.45,13.72c4.26,9.03-0.62,20.73,10.55,39.31c1.51,2.52,3.08,46.72,27.54,44.84c0.04-0.02,0.21-0.16,0.1-0.1
		c0.61-1.95-1.54-1.73-2.25-2.66c-6.43-8.44-9.54-18.67-14.33-27.95c-1.27-2.45,3.93-14.64-8.19-24.57
		c-3.9-3.2-1.26-9.26-9.42-26.31c-1.31-2.73,7.04-0.44,13.1-4.3c4.63-2.95,5.34,0.2,14.23,0.2c2.45,0,4.82-0.51,3.79,2.15
		c-2.47,6.37-0.77,12.13,2.46,15.36c5.53,10.16,11.13,5.71,17,3.36c0-1.38-1.23-1.4-1.23-2.33c12.82-16.64,34.89-22.14,72.08-47.2
		c16.68-11.24,23.27-6.12,26.11-10.44c3-4.58,6.34-8.91,8.29-14.13c2.65-7.07,6.14-13.92,8.09-21.09c1.65-0.52,5,1.44,5.02-1.43
		c0.03-5.78,4.58-34.4,4.61-34.5c9.7-35.39,5.63-30.4,9.32-33.27c1.35-40.61,6.32-21.28-2.56-41.77c-2.73-5.47,3.08-6.69-1.74-10.75
		c3.38-3.79,4.3-9.01,7.99-13.51c0.01,0.13,9.66,195.05,9.93,229.44c0.19,23.97-2.92,5.77,3.28,52.21
		c2.94,22.01-1.52-60.4-1.54-60.51c-0.87-4.43,1.5-0.7,1.95-5.94c0.58-6.78-2.96-52.39-2.97-52.52c-4.48-58.1-0.5-96.06-4.61-121.12
		c-5.35-32.64-1.91-78.98-2.87-80.37c-0.02-0.01-0.89,0.06-2.46,0.19c-1.13-3.07-4.69-5.61-1.63-10.63
		c8.29-1.02,16.69-0.72,25.49-0.92c-1.52,3.54-0.34,6.39,0.48,9.32c-3.21,0.74,1.25,2.92,0.65,42.18c-0.03,2.11-0.6,39.56,1,41.03
		c-0.29-1.59-0.17-41.44,0.43-53.93c0.22-4.68,0.45-6.75,0.67-6.64c-1.26-7.39-1.11-14.96-1.9-22.43c0.82,0,1.34,0.41,1.43,1.23
		c0.85,7.21,0.92,14.43,0.63,21.65c2.47,12.51,5.26,275.9,11.76,291.33c1.71-10.24-10.93-300.6-8.34-300.6
		c0.43,0.62,0.21,1.67,1.59,1.96c9.83-2.25,20.17-2.97,30.2-2.25c0.82,1.23,0.84,2.05,0.82,2.87c-0.49,20.79,2.93,59.39,3.79,78.53
		c0.58,12.91,1.67,103.01,2.87,111.08c0.43,2.92,3.92,72.42,3.38,98.49c-0.02,0.82,0.2,1.74,1.54,2.05c0-2.05,1.43-3.79,1.02-5.84
		c-1.29-6.51-0.08-23.35-0.2-27.23c0-0.12-8.2-141.67-6.35-165.76c0.51-6.62-4.38-93.54-4.4-93.88c-0.1-1.43-0.92-2.36-2.05-2.66
		c-4.6-1.22-2.94-7.74-0.61-10.65c7.88-0.2,15.87-0.72,24.37,0.1c-2.15,4.71,0.2,8.29,2.76,11.67
		c-0.04,0.1,12.39,258.49,10.34,266.6c-1.14,4.5-0.82,9.11-0.72,13.62c0.37,4.82,2.43,3.94,2.46,1.95
		c1.11-77.78-7.35-225.14-7.68-254.72C746.31,279.52,742.7,280.57,744.42,275.2z M537.5,269.36c-0.92-2.87-0.2-5.53,0.51-8.29
		c5.32-0.51,10.44-1.43,15.97-1.43c0.61,3.58,3.48,5.94,5.02,9.42C551.63,270.49,544.57,268.14,537.5,269.36z M468.5,531.67
		c1.4,19.22,11.77,14.28,11.77,25.9c0,2.66,0.92,5.43,0,8.09c-0.14,0.58-0.3,0.52,10.34,23.55c1.19,2.58,3.07,4.61,4.71,6.86
		c-2.97-1.13-5.86-1.84-6.96-5.63c-1.01-3.48-8.38-6.62-9.62-14.13c-0.85-5.11-2.84-9.83-2.35-15.36
		c0.72-8.31-10.95-16.12-10.95-38.9C466.76,525.73,468.27,528.49,468.5,531.67z M477.61,509.96c-4.1,3.48-9.01,3.79-14.23,3.17
		c-0.82-2.15-0.2-4.1,0-6.35c1.02-0.82,2.25-1.84,3.58-2.97c3.23,2.02,4.11-2.76,8.4-2.76c1.43-3.48,2.56-7.06,6.96-9.11
		C478.64,497.88,477.2,503.72,477.61,509.96z M750.15,143.64c-0.1,1.02-0.72,0.2-0.92,0.51
		C749.33,143.44,749.74,143.33,750.15,143.64z M742.06,139.75c0.72,0,1.33,0.2,1.33,1.43C742.47,140.98,741.96,140.67,742.06,139.75
		z M744.52,143.23c-0.2,1.23-0.92,1.23-2.15,0.82C742.68,142.11,743.6,142.62,744.52,143.23z M749.95,152.55
		c-3.17,0.72-6.14,0-9.11-1.02C744.01,151.01,746.87,152.55,749.95,152.55z M736.33,146.81c-1.13,0.61-1.74-0.2-2.56-0.72
		C734.79,145.69,735.61,145.89,736.33,146.81z M723.74,140.26c-1.13-0.51-1.43-1.54-2.05-3.07
		C723.53,138.11,723.53,139.24,723.74,140.26z M722.2,147.94c-0.82,1.23-1.74,0.31-2.56,0.51
		C720.36,147.53,721.18,147.74,722.2,147.94z M714.21,134.94c-0.31,0.1-0.61-0.2-1.23-0.41
		C714.41,131.67,716.38,134.94,714.21,134.94z M710.73,130.84c-1.54-0.2-1.64-1.33-2.76-1.84
		C710.61,127.24,709.81,127.46,710.73,130.84z M707.05,123.37c0.74-0.75,1.04,0.61,0.31,0.61
		C706.95,123.98,706.84,123.68,707.05,123.37z M700.39,139.75c-0.92,0.41-0.82-0.41-1.13-1.13
		C700.19,138.83,700.6,139.03,700.39,139.75z M693.43,135.86c-0.2,0.92-0.72,1.13-1.64,1.02C692,135.66,692.51,135.55,693.43,135.86
		z M696.81,148.66c-2.8,1.29-3.77,3.58-7.37,3.58C691.28,149.78,693.53,148.25,696.81,148.66z M696.59,154.23
		c-0.4,0.51-1.11,0.97-1.93,1.49C694.28,148.85,697.94,152.49,696.59,154.23z M690.77,130.43c-0.2,1.43-0.51,2.15-1.64,2.66
		C689.23,132.17,689.64,131.35,690.77,130.43z M687.6,157.26c0.51,0.41,0.72,0.92,0.1,1.54
		C687.08,158.28,687.19,157.77,687.6,157.26z M578.15,240.39c-0.03-2.22-0.24-12.22-1.02-14.23c-3.09-7.89-0.44-9.62,3.17-32.25
		c0.52-3.23-0.99-1.52,23.96,5.84c-3.7,8.47-10.1,43.48-8.4,54.57C588.41,242.64,578.28,250.08,578.15,240.39z M486.42,494.6
		c5.59-5.98,10.34-12.6,15.87-18.53c37.84-40.6,29.01-33.85,43.61-37.06c10.81-2.38,6.72-4.03,8.91-1.84
		c4.4-4.2,3.69-9.83,3.99-15.87c10.95,6.35,21.91,11.47,33.48,15.15c0.5,9.03-2.45,19.32-10.24,27.34
		c-1.33-0.31-1.95-1.95-3.38-1.74c-0.92,1.02,0.82,1.33,0.31,2.46c-11.52,1.92-16.88,2.17-25.8,7.99
		c-25.63,16.72-36.14,13.96-50.06,31.94c-1.74,2.25-4.4,3.48-5.43,6.55C489.28,508.56,480.39,501.04,486.42,494.6z M522.66,491.43
		c-4.5,4.91-9.83,8.91-15.66,12.18C508.94,500.03,516.41,494.09,522.66,491.43z M501.77,530.54c-1.3-2.85-7.28-7.93-2.87-15.56
		c3.28,6.96,7.88,12.39,11.88,18.33C505.66,535.66,503.83,535.04,501.77,530.54z M625.04,443.41
		c-9.23,21.66-10.72,29.09-20.48,31.33c-22.94,5.27-31.52,19.02-47.4,25.19c-9.22,3.58-16.68,10.04-25.29,14.54
		c-7.47,3.9-13.62,9.73-19.15,16.79c-4.5-6.25-9.42-11.88-12.8-18.53c0.92-3.17,3.06-5.26,5.94-6.45
		c14.64-6.06,12.54-12.31,34.81-24.06c22.8-12.04,16.24-12.53,25.7-13.62c2.46-0.28,15.82-2.2,17.92-4.3
		c1.74,2.15,1.43,5.53,4.81,6.35c0.2-2.25-1.02-3.58-2.35-4.5c-0.82-5.73,2.46-8.91,6.65-11.16c-0.2-1.95-1.33-1.23-2.56-1.02
		c1.95-5.32,3.38-10.55,4.2-15.87c1.84-0.82,3.8,0.53,5.43-0.72c9.31-7.14-5.7-3.24,26,0.61
		C626.68,440.03,625.74,441.77,625.04,443.41z M647.77,338.06c2.43,4.7-3.2,10.83-1.64,22.22c0.17,1.23-4.57,24.11-9.01,39.83
		c-1.27,4.49-5.21,36.11-5.22,36.14c-8.7-0.92-17.3-2.46-26-5.22c8.36-12.79,2.63-6.92,9.62-2.87c-1.32-3.79-5.14-6.31-0.1-10.95
		c3.07,1.54,5.53,3.79,8.4,5.32c-1.84-2.97-5.02-4.5-7.47-6.96c0-8.6,6.46-11.81,13.52-27.14c0.02,1.32-0.23,2.7,0.71,4
		c0.39-1.57,1.62-3.23-0.43-4.26c-0.59-0.3,1.33-6.78,1.66-7.16c1.4-0.35,2.19-1.23,2.56-2.51c0.97-3.36,2.45-6.55,3.07-9.93
		c1.42-7.68,1.61-15.42,3.07-23.04c0.23-1.22,0.61-2.66-0.72-3.89c-0.91,5.3-5.68,38.61-8.5,39.42c-2.71,2.17-1.94,1.61,1.02-5.12
		c2.89-6.54,2.87-27.33,2.87-34.81c0-0.92,0.31-1.95-1.13-2.76c0,7.17-1.18,14.02-1.43,20.99c-0.67,18.33-3.94,14.79-7.17,31.94
		c-0.62,3.29-8.82,12.31-10.44,18.74c-2.13,8.4-7.29,14.83-12.39,21.4c-1.03,1.33,0.3,3.45-1.95,4.3c-3.4,1.29-5.73-1.74-8.91-2.46
		c1.43-4.1,5.53-6.14,6.45-10.24c-3.38,2.76-5.53,6.45-8.19,9.73c-5.94-1.23-46.58-20.99-50.68-24.67
		c4.06-18.66,4.07,6.02,23.96-84.77c1.91-8.72,10.84-17.86,13.62-21.7c1.33-1.84,2.66-1.95,4.5-0.51c1.64-2.15,3.38-4.3,3.79-7.06
		c0.92,0.1,1.33,0.72,1.95,1.43c-0.92,2.15-3.17,4.1-2.66,7.27c2.97-0.72,3.69,3.38,6.86,3.07c-1.54-2.25-0.1-3.79,0.61-5.32
		c1.13-0.2,1.33,0.72,1.95,0.82c0.31,1.43-1.02,2.05-0.92,3.48c1.23,0.92,1.64,2.66,2.15,4.3c7.88,1.02,14.33,5.22,21.19,8.29
		c-8.56-7.82-13.75-5.23-15.25-10.55c-6.86,2.86-3.22-1.32-3.76-3.05c-0.75-0.19,1.87-0.15,4.78,2.54
		c5.64,5.21,18.83,8.89,23.96,9.73c4.4,0.72,8.09,3.48,12.9,4.4c-2.05,1.95-3.58,0.2-5.32-0.1c-5.28,3.3-3.78,0.14-7.47,0.92
		c3.79,2.87,7.99,3.79,12.08,4.71c0.92-1.84-0.31-2.05-0.41-2.66c0.72-0.41,1.43-0.82,2.15-1.23
		C644.9,326.29,645.04,332.77,647.77,338.06z M588.7,296.5c2.66,2.25-0.31,3.48-0.31,5.02C586.24,299.67,588.29,298.44,588.7,296.5z
		 M595.45,302.02c1.02,0.2,1.74,0.41,2.05,1.13c-0.61,0.2-1.33,0.51-2.05,0.72C594.63,303.15,595.66,302.74,595.45,302.02z
		 M637.84,323.22c-0.51-0.2-1.33,0.1-1.95-0.82C637.12,321.99,637.33,323.01,637.84,323.22z M634.05,321.58
		c-0.38,0.75-0.18,0.78-0.92,0.41C633.4,321.45,633.33,321.22,634.05,321.58z M643.78,320.56c0.2,0.61-0.2,0.92-0.51,1.23
		C642.55,320.96,642.75,320.66,643.78,320.56z M649.2,302.33c-3.22,4.57-4.91,10.03-7.99,14.85c-3.17-0.92-0.43-3.07-0.72-4.61
		c-0.4-2.12-0.57-3.55-0.63-4.4c-0.05,1.32-0.33,4-1.42,7.67c-1.54,0.61-2.56-0.2-3.69-0.72c-0.51-1.95,0.1-3.99-1.43-6.04
		c-0.32,5.76-0.17,4.49-0.82,4.81c-6.05-39.54-6.82-41.5-2.15-1.13c-2.66,0.61-3.28-1.02-3.79-2.87
		c-0.73-2.64-6.88-18.25-7.06-18.43c1.43,6.96,4.4,13.51,6.14,21.09c-7.99-3.07-16.52-3.43-22.52-9.93
		c-1.61-1.74-7.42-1.83-17.3-11.98c11.16-20.3,5.05-11.4,9.73-2.05c-0.41-6.14-2.15-12.08-2.05-18.74c7.68,0.41,14.85-0.31,21.5-0.2
		c1.74,0.92,1.95,2.66,3.38,3.17c0.61-1.23-0.92-1.84-0.51-3.48c10.95-0.51,22.11-1.84,33.58-1.64
		C649.89,291.66,654.97,294.16,649.2,302.33z M652.75,264.95c-8.49,0.68-37.24,2.99-62.83,2.99c-2.05-3.89-0.51-8.09-0.92-12.18
		c1.43-0.92,3.28-0.1,4.1-1.43c1.02,0.72,0.41,1.23,0.31,2.15c18.74,1.13,37.37-2.05,56.21-1.64
		C649,259.01,648.29,262.89,652.75,264.95z M598.83,255.34c-0.97-13.32,4.86-40.96,8.91-54.67c1.02,0.1,2.87,0.2,4.61,0.41
		c1.92,2.56-8.71,19.62,10.75,36.45c4.61,3.99,6.73,7.28,13.62,3.07c2.86-1.75,5.24-4.15,8.6-5.22c2.78-0.88,4.3-3.69,5.94-6.04
		c3.78-5.43,8.59-10.24,10.44-16.59c8.01-27.45,2.63-34.81-3.48-46.48c1.74-0.82,2.87-0.52,3.58,1.13
		c13.82,31.98,5.12,47.28,17.92,54.36c2.77,1.53,4.91-0.72,6.96-2.25c-0.92-4.2,2.97-7.37,2.05-11.98
		c-0.82,3.48-2.55,6.15-3.69,9.01c-2.29,5.77-9.11,3.83-11.36-7.99c-0.82-4.3-2.18-8.5-2.35-12.9c-0.58-14.95-6.4-24.72-7.68-29.18
		c5.94,1.33,10.95-0.82,16.18-3.48c0.49,7.14,9.19-3.44,9.93,1.02c-0.63-0.63,1.7,2.2,2.15,2.66c1.56,1.61,1.95,1.54,4.1-0.82
		c-2.56,0.31-4.11-1.12-4.4-2.97c-0.51-3.28-3.43-6.21-2.11-9.81c-0.02,1.15,0.27,2.24,1.09,3.15c1.23-0.41-0.1-2.66,2.46-2.35
		c-0.92,2.05,0.41,3.99,0.2,6.14c2.97,2.15,2.97,2.15,4.61,0.2c0.1-1.43-1.67-1.74-1.64-3.07c0.05-2.25,2.15-0.82,3.07-1.33
		c-0.41-1.84-0.72-3.48-1.13-5.12c4.47,3.17,1.84,5.42,2.25,10.75c1.02,1.02,1.33-0.51,1.95-0.51c1.23,0.31,1.13,1.64,2.15,1.95
		c1.29-0.65-2.12-3.83,4.71-7.68c9.08-5.11,16.24-3.13,19.66-6.55c8.28,6.48,7.16-3.21,11.67,4.81c-3.77,7.81-1.54,11.58-4.81,12.7
		c-5.8,1.97-1.09,13.62-4.91,15.15c-1.95-0.41-3.89-1.23-5.02-3.38c-3.87,4.95,4.25,2.46,0.31,7.06c-2.15,1.23-4.4-0.92-6.55,0.2
		c0.72,2.25,2.76,0.92,3.69,2.15c0,0.31,0.2,0.82,0.1,1.02c-6.6,5.28-3.57,9.92-9.01,8.8c-6.27-1.28-8.65-6.82-15.25-3.28
		c-12.9,6.92-12.16,4.88-13.31,10.14c1.95-0.31,2.35-2.87,4.4-2.87c0.7,1.4-0.1,18.17-5.73,26.82c-4.88,7.49-7.37,16.38-13.21,23.55
		C647.36,252.88,623.2,254.52,598.83,255.34z M678.58,277.46c0,0.94-0.01,1.86,0.01,2.75C678.51,279.6,678.55,278.59,678.58,277.46z
		 M678.59,274.6c-0.02-4.27-0.41-7.59-0.73-9.59c0.01,0.02,0.01,0.04,0.01,0.06C678.49,268.27,678.59,271.5,678.59,274.6z
		 M680.12,258.61c-0.61-2.66-0.61-2.66,1.02-4.71C681.15,255.54,682.37,257.49,680.12,258.61z M714.11,274.38
		c-12.38,0-19.28-0.43-26.21,1.74c-1.16,0.36-4.44,0.61-3.25,0.17c-0.58,0,2.18-0.48,2.63-1.51c0-0.44-2.47,0.56-3.89-0.31
		c-0.94-11.27-0.84-7.69,30.1-11.06C710.94,267.32,711.04,270.7,714.11,274.38z M743.29,262.91c2.66,3.48,0.72,6.86,0.82,10.75
		C741.14,270.39,740.94,266.6,743.29,262.91z"/>
	<path d="M639.87,308.17C639.91,306.98,639.77,306.89,639.87,308.17L639.87,308.17z"/>
	<path d="M248.44,141.08c0.01,0,0.02,0,0.02,0C248.46,141.08,248.45,141.08,248.44,141.08z"/>
	<path d="M250.22,142.51c0-1.29-0.87-1.43-1.76-1.43C248.6,141.2,248.57,142.98,250.22,142.51z"/>
	<path d="M374,280.73c-1.17-4.48,2.18-8.49,2.35-13.92c0.14-4.49,1.81-7.39-47.2-3.69c-5.63,0.43-11.16,1.02-16.18,1.74
		c-2.25-4.4,2.05-9.11-1.02-12.7c-9.62,0-18.53,0-27.64,0c-8.79-17.16-2.16-44.88-5.43-65.83c-0.56-3.61,4.22-14.04,0.92-23.85
		c-5.17-15.4,11.7-8.46,7.17-41.46c-3.69-3.07-6.65-6.76-6.25-12.08c0.46-1.38-1.74-0.82-1.43-7.58c0.1-2.25-1.33-4.1-1.43-6.35
		c14.93,4.98,5.8,19.81,8.29,23.85c3.58-5.02,2.78-10.34,2.56-15.15c-0.39-8.7-8.91-9.52-15.05-13.51
		c1.13,4.91,2.15,9.11,3.28,13.82c1.13-2.05,0.72-3.69,0-5.63c1.96,1.64,0.33,0.28,2.66,13.31c1.74,9.74,6.49,7.35,6.55,11.47
		c0.15,10.75-0.31,21.19-9.21,28.77c-1.02-2.35-3.58-3.07-5.73-4.4c0.2,2.87,2.97,3.89,4.2,5.94c0.72,6.76-0.08,13.41,0.61,20.07
		c0.95,9.12-4.84,11.62-2.05,30c0.31,2.05,0.31,4.1-1.74,5.63c-2.97-0.92-5.94-1.02-9.01-0.51c3.38,1.43,7.58,0,10.14,3.58
		c-1.74,2.56-0.72,5.63-1.95,8.29c-12.9-2.25-25.29-6.96-38.5-8.91c-4.03-6.79-10.88-3.77-12.08-7.68c0.51-1.33,1.64-0.1,2.05-1.13
		c-3.28-1.74-5.73-4.91-10.34-3.69c4.89-21.76,0.19-11.47,11.88-10.34c-2.76-1.54-5.53-3.07-8.4-4.71
		c4.83-19.76-5.51-8.83,7.99-24.57c1.64-0.2,2.35,1.95,4.1,1.23c-0.51-1.43-2.35-1.74-2.66-3.48c1.23-2.05,1.95-4.5,2.87-6.96
		c2.56,1.95,5.12,3.07,8.29,3.69c-8.21-10.82-7.8-4.35-5.63-12.49c4.1-1.33,8.4-1.13,11.26-4.61c0.51,1.02,0.41,2.15,1.64,3.07
		c1.62-0.81,2.64,1.37,4.43,1.42c0.07-0.2,0.11-0.28,0.14-0.3c-0.01,0-0.03,0-0.04,0c0.71-2.69-2.22-2.1-3.4-3.07
		c-3.61-9.03,0.98,5.3,8.7-27.44c4.06-17.22-2.07-19.78-4.1-29.38c-1.76-4.78,18.95,35.13,23.45,35.63
		c4.81-2.25,5.84-5.12,3.79-9.93c-0.92,5.63-1.13,5.84-3.99,7.88c-19.51-27.64-18.64-35.05-27.54-40.34
		c-5.88-3.49,0.18-3.71,0.31-13.41c0.01-0.85,3.85-7.27,6.86-9.42c2.05,1.23,3.37,3.63,6.14,3.07c1.12-0.23,1.74-1.23,1.02-2.56
		c-2.85,0.32-1.5,3.17-10.44-8.5c1.13,0.31,1.33,1.74,2.56,1.74c0.72-1.02-1.23-2.05,0.41-3.07c1.64,0.61,1.02,2.35,1.54,3.48
		c0.61,0.51,1.02-0.51,1.64-0.1c0.31,0.61-0.82,1.23-0.1,1.95c3.17,0.92,3.17,0.92,4.71-0.92c0-1.74-2.14-1.33-2.66-2.56
		c-0.91-2.15,1.43-1.74,2.15-2.35c-0.51-1.54-2.25-2.15-2.05-3.89c4.91,1.13,2.87,6.35,5.63,8.6c0.82-0.1,0.72-1.23,1.84-1.43
		c0.72-0.31,1.13,1.64,2.66,0.92c-7.37-8.55,13.35-17.2,16.59-22.32c4.81,1.23,5.84,1.02,6.45-1.64c1.13,0,2.66-0.51,3.48,0.1
		c3.58,2.67,7.37,0.99,11.06,0.61c2.15-0.22,3.28-2.05,3.28-3.48c-0.1-1.74,1.13-3.17,0.82-4.5c-1.23-3.28-3.69-1.64-5.63-1.64
		c0.2-0.92,1.23-1.13,1.23-2.25c-1.33-0.31-1.84-1.84-2.87-2.56c-1.74,0.31-1.84,2.15-3.17,2.35c-1.74-5.22-6.55-3.99-10.24-5.02
		c-0.2-0.82,1.02-1.23,0.1-2.35c-1.72-0.86-5.38,1.7-8.7,0.51c-3.38-1.21-6.76-2.25-10.03-1.43c-1.02-0.82,0.51-1.95-1.23-2.35
		c-3.99,3.48-10.55-0.51-14.03,4.5c-1.02-0.31-1.02-1.43-2.25-1.43c-0.82-0.41-0.41,1.95-1.74,1.33c-1.43-1.43-2.25-3.58-4.5-4.2
		c-0.51,2.05,1.64,2.76,1.13,4.3c-2.15,2.05-5.02,2.76-7.27,4.1c0,2.25,2.15,1.84,2.87,3.07c-1.33,1.33-3.58,1.84-3.69,3.99
		c0.82,0.61,1.43-0.82,2.05,0.2c-7.23,7.63,0.91,40.27-0.82,46.17c-0.1,0.2,0.1,0.41,0.1,0.41c0.41,1.02,1.64,0.2,2.05,1.95
		c0.31,0.82-0.61,2.25-0.92,3.79c-1.92,9.59-12.67-0.61-20.58,6.96c-2.95,2.82-18.38,4.5-21.5,23.14
		c-1.98,11.81-10.98,14.46-10.44,34.3c0.06,2.09,0.38,16.32-0.41,18.22c-4.67,11.22-9.49,36.31-7.17,59.48
		c2.49,24.82,11.25,26.96,1.95,47.61c-6.76,1.64-13.51-0.1-19.76,1.95c-2.93,8.05,1.8,13.59,5.43,13.1
		c6.56-0.87,13.1-0.41,19.55-1.54c3.89,7.26,3.01,2.6,2.56,21.6c-0.31,12.9,2.31,25.77-0.31,38.7c-1.35,6.66,16.01,2.35,20.89,4.91
		c0.82,12.72,7.31,22.05-1.95,29.49c-26.53,21.3-11.52-6.79-39.83,59.48c-8.12,19.01-5.22,17.3-8.09,22.32
		c0.41,8.5,3.48,11.16,13.62,12.08c-2.25,0.82-3.98,2.84-6.96,1.54c-1.43-0.63-3.17,0.72-5.02,1.43
		c-4.64-14.86,0.25-17.83-2.05-19.55c-4.1,0.31-7.49,4.3-7.68,9.21c-0.26,6.93-5.68,5.53-9.32,12.8c1.06,12.4,5.03,8.66,6.96,14.54
		c9.32,28.4,20.56,24.9,23.85,34.71c5.01,14.9,23.64,33.82,36.86,26c0.74-1.48-0.14,0.07,0.51,0.72c14-11.97-6.3-14.58-3.17-29.28
		c2.58-12.14-6.32-15.27-2.35-23.85c2.36-5.11,1.95-9.73,0.72-14.74c-1.22-0.41-1.23,0.89-1.92,1.22c1.39,5.39-0.65,10.18-3.3,15.47
		c-0.72,0.51-2.46-1.33-3.79,0.2c-0.61,1.74,1.13,1.95,1.95,2.76c-0.61,0.72-2.05,0.51-2.15,2.35c1.02,1.84,3.79,3.07,4.91,5.43
		c-0.92,0.51-2.15-0.31-3.07,0.72c0.2,1.74,1.84,1.54,2.87,2.25c-0.92,2.56,0.41,6.86,2.46,8.19c1.64-0.51,0.1-2.25,1.33-3.07
		c0,4.2-2.23,9.85,5.43,19.04c5.07,6.96,2.08,8.14-0.3,12.09c-9.94-4.91-21.99-19.51-24.67-21.7c-4.71-3.85-2.06-16.53-17.71-21.81
		c-4.09-1.38-5.16-9.47-18.53-22.63c15.05-6.65,11.81-10.44,18.22-10.24c7.38,0.23,12.13-6.42,11.57,1.13
		c-0.46,6.25,6,11.24,11.16,14.74c2.56,1.74,7.88-0.1,10.95-3.07c0.78-0.68,1.11-2.08,2.45-1.96c-0.23-0.95-1.32-1.34-1.82-1.93
		c3.48-10.85,10.56-19.34,17.81-27.64c39.09-44.75,34.38-44.92,45.35-52.62c23.87-16.76,8.31-11.79,18.84-27.34
		c1.43,8.21-1.45,29.8,2.56,83.34c3.65,48.71,1.94,92.46,3.69,115.9c0.56,7.57,2.21,15.06,2.76,22.73c0.08,1.13,0.1,2.25,1.95,3.38
		c-0.14-0.52-4.58-66.75-2.46-67.78c3.57-1.72-1.38-29.65-2.25-58.66c-4.99-166.07-5.27-106.34-6.65-141.08
		c-2.86-71.71,2.34-54.25-2.76-57.44c-2.05-2.97-2.76-6.25-1.13-10.14c8.4-0.92,16.79-0.72,25.39-0.82
		c-0.92,3.79-0.85,6.88,1.54,9.62c1.3,1.49,1.43,21.54,1.43,22.42c-2.43,0-0.3-13.9-3.28-22.22c2.46,25.39,0.82,50.88,1.64,76.38
		c2.2-4.39-1.2-50.45,2.66-52.62c0.46,0.65,0.33-1.56,0,25.9c-0.15,12.45,2.3,23.98,1.95,52.21c-0.1,7.62,1.64,17.05,1.33,24.67
		c-0.89,21.85,1.34,26.02,0.72,41.77c-1.05,26.48,1.77,43.58,1.95,52.32c0,0.11,0.87,92.61,5.84,93.27
		c-0.01-0.12-1.69-70.42-2.46-77.3c-3.37-30.08-2.05-77.89-2.46-80.88c-0.31-2.25-0.94-4.4-0.82-6.76
		c0.77-14.36-1.22-43.23-1.23-43.61c-1.74-112.43-7.15-89.14,2.66-91.43c5.22-1.22,25.04-3.15,27.23-1.23
		c1.41,2.01-0.1-0.79,1.13,34.09c0.55,15.48,2.76,35.07,3.38,46.79c1.96,36.85,0.43,55.05,1.13,62.66
		c0.01,0.12,5.51,111.53,5.32,147.02c-0.01,2.81,10.31,34.4-8.29-289.43c-0.24-4.2-3.65-4.69-4.54-4.07
		c-1.65-3.56-0.63-6.76,1.26-10.05c8.09-0.31,16.07-0.82,24.37,0.1c-1.74,4.71,0.2,8.29,2.87,11.57
		c-0.04,0.1,11.37,261.35,10.14,266.5c-1.11,4.61-0.72,9.32-0.72,13.92c0,1.33,0.1,2.76,2.15,3.38
		c4.75-47.52-7.99-216.82-7.8-259.55C376.18,293.53,375.63,286.95,374,280.73z M249.4,47.2c0.51,0.31,1.23,0.51,0.61,1.33
		C249.1,48.43,249.2,47.91,249.4,47.2z M302.03,10.34c-0.1,0.92-0.31,1.23-0.82,1.02C300.9,10.75,301.41,10.65,302.03,10.34z
		 M304.69,19.04c-2.35,1.95-5.22,2.35-8.09,2.66C296.18,20.85,295.91,21.07,304.69,19.04z M295.58,12.39c1.88,0,0.46,2.24-0.51,1.43
		C294.45,13.31,294.45,12.49,295.58,12.39z M290.05,18.53c0.47,1.4-2.23,0.93-3.48,0.31C287.69,18.74,288.92,18.63,290.05,18.53z
		 M284.62,7.06c0.39,0,0.23,0.82,0,0.82C283.99,7.88,283.81,7.06,284.62,7.06z M281.86,21.5c-0.41,0.31-0.51,0.82-1.13,0.61
		C280.94,21.5,281.14,21.09,281.86,21.5z M275,27.34c0.61-1.54,1.33-1.84,2.35-1.84C277.15,26.72,276.13,26.62,275,27.34z
		 M275,16.69c0.61,0.1,1.54-0.1,1.23,1.13C275.2,18.12,275.1,17.4,275,16.69C272.59,16.69,274.62,14,275,16.69z M265.07,14.13
		c1.43,2.05,0.92,2.56-0.72,2.35C263.64,15.46,264.66,15.25,265.07,14.13z M258.21,11.67c1.33,0.2,1.54,1.43,1.95,2.35
		C259.23,13.62,257.49,13.92,258.21,11.67z M255.14,43.31c-0.61-1.64-2.05-3.17-0.1-4.81c0.82,0.41,1.33,1.23,1.64,2.15
		C256.16,41.46,255.75,42.28,255.14,43.31z M255.65,33.38c0.12,0.87-0.92,0.72-1.23-0.2C255.14,32.66,255.55,32.86,255.65,33.38z
		 M253.29,25.39c1.86,0.37,0.84,1.13,0.72,1.13C253.4,26.31,253.09,26,253.29,25.39z M252.48,12.49c-0.41,0.61-0.61,0.82-0.82,1.23
		C251.25,13,251.45,12.7,252.48,12.49z M253.91,35.22c-0.92,2.35-1.64,4.81-4.91,6.35C249.92,38.29,252.17,36.96,253.91,35.22z
		 M248.18,13.62c0,0.82-0.31,0.92-0.61,1.02C247.15,14.03,247.77,14.03,248.18,13.62z M246.74,24.78c-0.1,1.33-0.51,1.84-1.54,1.64
		C245,25.39,245.62,24.98,246.74,24.78z M243.77,57.74c-0.92-1.13-0.2-1.95,0.2-3.17C244.9,56,244.49,56.82,243.77,57.74z
		 M243.67,28.77c0.41,1.23,0.1,1.54-0.61,1.54C242.54,29.69,242.95,29.38,243.67,28.77z M241.62,24.06
		c-0.31-0.72-0.41-1.43,0.1-2.35C242.65,22.63,241.93,23.34,241.62,24.06z M207.22,506.27c-0.72-0.1-1.02-0.51-1.02-1.23
		C207.43,504.74,207.53,505.35,207.22,506.27z M161.05,489.07c8.5,15.97,13.5,8.56,18.12,16.79c4.89,8.71,2.19,7.95,5.12,11.47
		c27.75,28.82,14.5,14.62,23.24,22.22c-12.91-1.72-3.82-2.32-13.21-5.84c-14.7-5.5-12.21-19.96-25.7-31.43
		c-4.59-3.91-11.77-14.85-13.31-20.89C157.47,483.75,159.52,486.2,161.05,489.07z M149.48,471.98c-2.76-3.17-2.76-5.12,0.1-9.62
		c3.89,0.2,3.58-4.81,6.86-5.53c0.31-3.89,0.1-7.68,3.48-10.95c-1.33,6.65-0.72,12.7,1.95,18.53
		C158.8,468.8,154.7,471.26,149.48,471.98z M278.17,160.84c-0.2,4.5,4.2,8.7,0.41,13.72C279.2,169.75,277.35,165.45,278.17,160.84z
		 M277.87,179.88c0.1-0.82,0.1-1.64,0.31-3.17C278.48,178.35,278.69,179.17,277.87,179.88c0.2,0.92,0.2,1.84-0.31,2.97
		C277.05,181.62,276.84,180.7,277.87,179.88z M275.2,210.5c-0.67-0.67-1-1.08-0.61-1.84c5.14-5.43-2.57-7.55,2.25-24.16
		c3.46,20.99-1.14,28.9,1.43,49.25C269.98,224.44,277.13,212.91,275.2,210.5z M219.51,203.94c3.82,6.89,5.81,0.23,9.21,6.65
		c-18-2.25-20.19-1.82-18.63-3.89c1.33-0.82,2.46,0.51,3.79,0.1c-0.92-1.13-2.56-1.02-3.28-2.56c0.51-1.43,1.13-3.07,1.74-5.02
		C215.31,200.16,217.87,200.98,219.51,203.94z M232,139.03c0.82-3.28,2.15-5.84,2.76-8.91c0.82,3.07,4.5,2.46,5.63,5.22
		C238.76,138.52,235.07,137.4,232,139.03z M249.05,80.11c-0.55-0.62-0.98-1.28-1.38-2.3c-1.64-0.41-2.97-1.02-3.89-2.56
		C250.06,77.77,250.86,81.93,249.05,80.11z M168.42,270.9c-3.17-2.76-3.69-4.2-3.17-9.73c6.25-0.41,12.29-0.72,18.74-1.13
		c0.92,3.28,3.07,6.04,5.12,9.11C181.93,270.59,175.08,269.77,168.42,270.9z M191.46,272.54c0.82-6.14-5.63-9.42-6.55-15.25
		c0.2-1.33,1.31-2.16,1.95-3.28c10.32-18.17-6.4-17.02-2.56-74.43c0.19-2.87,0.2-5.84,2.05-8.4c-1.74,5.73-0.52,11.06,0.92,16.69
		c1.86,7.26-1.26,12.45,1.74,14.85c-0.31-5.12,0.99-10.33-0.1-15.36c-2.55-11.66,0.74-22.23,0-23.85c-1.54-0.72-0.92,1.33-2.15,1.02
		c0-8.4,4.57-5.72,5.12-20.07c0.77-20.27-2.27-19.99,3.69-31.12c3.85-7.2,8.15-10.73,6.55-15.36c-0.29-0.86,2.35-11.15,15.66-18.53
		c7.49-4.16,3.85-4.17,8.09-4.91c6.87-1.2,18.88,0.98,21.09,6.55c4.83,12.15,7.15,13.47,5.02,26.82
		c-2.56,16.09-6.91,20.44-9.11,23.45c-2.35,0.29-1.63-4.36-4.71-6.25c-1.84-1.13-0.61-3.17,0.61-4.61c1.43-1.23,3.17-1.84,3.17-3.89
		c-9.56,1.96-11.17,18.17-13.82,25.39c-9.52,25.93-11.62,19.63-12.59,20.89c-3.34,10.96-0.06,14.82-2.46,22.63
		c-6.82,22.22-6.77,32.47-5.94,58.05c0.12,3.58,3.07,5.54,6.04,6.86c5.19,2.3,8.07,0.17,8.29,4.4c-4.2,1.23-4.11,1.43-4.81,5.84
		c-0.63,3.99-1.33,7.99-0.2,11.88c-2.66,1.54-3.07,1.54-6.76,0.2c0.51-3.17,2.35-6.35-0.31-10.24c-2.28,4.25-1.33,11.98-1.23,11.98
		c-6.04,1.23-6.14-3.58-7.27-7.47c-1.13,2.56-1.54,4.91-0.31,7.27c-1.13,0.2-1.84-0.41-2.76-1.13c0.58-2.84-0.8-4.64-3.06-6.04
		c0.92-0.6,1.95,0.82,3.16-0.31c-1.25-0.77-2.15-2.35-3.36-0.48c-0.11-0.11-0.25-0.39-0.53,0.17c-3.55-0.71,1.52,3.48,1.64,3.69
		c-0.1,1.02-0.31,2.35-0.41,3.58C193.81,274.07,192.79,273.56,191.46,272.54z M194.63,267.03c-0.04-0.03-0.11-0.07-0.21-0.13
		c0.02-0.01,0.03-0.02,0.04-0.04C194.52,266.95,194.59,267,194.63,267.03z M181.01,458.46c-6.61,1.05-12.3-2.35-12.19-2.41
		c2.83-1.42,2.67-4.72,2.58-7.63c-1.73,2.75-3.26,4.89-2.67,7.64c-3.07-0.86-3.8-3.57-4.9-5.79c10.79-30.09,23.92-59.57,27.23-66.45
		c3.34-6.94,8.25-6.2,17.3-13.31c16.84-13.23,7.37-24.75,6.35-33.58c11.46-1.56,5.52,4.59,8.19,6.25c2.56-1.43,0.41-3.79,1.33-5.94
		c10.44,0.82,21.09,1.13,32.05,2.76c-6.92,49.8-1.09,16.32-11.57,45.66c-1.54,0.82-2.56-1.13-3.89-0.2
		c-0.61,1.33,0.82,1.13,1.54,1.95c-3.58,2.05-7.27,4.1-10.75,6.25c-2.25,0.72-4.61,1.64-5.43,3.99c-2.66,1.23-4.38,3.6-6.04,5.84
		c-18.73,25.25-29.23,25.55-36.35,47.2C182.95,453.24,180.91,455.29,181.01,458.46z M196.88,432.56c-0.83,5.15-7.08,12.2-9.73,15.87
		C189.2,442.39,192.48,437.07,196.88,432.56z M191.15,475.36c-1.92-1.9-9.49-5.06-7.78-13.41c5.43,5.32,11.67,9.11,17.61,13.21
		C196.17,479.14,194.91,479.07,191.15,475.36z M284.42,344.82c1.94,6.58-0.28,19.08-3.28,23.96c-3.2,5.21,0.08,11.67-6.86,16.18
		c-26.23,17.02-26.81,30.53-41.46,43.82c-8.32,7.55-14.1,17.02-21.19,25.49c-4.38,5.24-7.17,11.57-9.42,18.43
		c-30.97-21.83-17.6-7.36-1.54-40.95c4.97-10.4,15.87-17.16,24.67-31.53c0.51-4.1,10.12-5.03,21.6-14.85
		c1.84,1.02,2.66,4.5,6.25,4.2c-0.51-2.25-2.15-2.97-3.69-3.48c-4.86-9.3,4.81-9.49,6.04-24.26c0.21-2.58,0.22-5.25,1.42-7.75
		c-0.72,10.22,9.7,28.57,17.82,22.19c-0.54-1.83-4.7-2.07-6.55-1.54c-1.84-2.05-4.81-3.79-5.12-5.94c-0.7-4.81-4.35-8.5-4.4-13.31
		c-0.02-1.48-0.95-1.92-1.73-1.54c0.42-4.36,1.42-8.53,1.42-13.21c4.85,1.25,6.42-2.08,6.65-1.84
		C262.87,341.08,273.27,340.04,284.42,344.82z M283.91,341.44c-3.53,0-10.83-4.1-18.94-2.66c7.7-24.53,2.94-12.36,12.59-11.26
		c-1.74-3.38-4.4-5.12-6.96-7.27c0.51-2.76,1.02-5.53,1.54-8.7c2.66,2.15,5.02,4.1,7.37,6.04c-1.23-3.58-4.3-5.32-7.17-8.09
		c1.64-13.1,4.61-26.52,0.1-40.75c-0.7,5.25,2.21,39.63-9.93,69.31c-79.38-11.19-70.47,4.26-67.98-13
		c1.36-9.43-1.18-17.02-1.02-44.74c0.03-5.08-2.16-4.32,3.89-4.4c3.55-0.05,7.41,1.5,10.67-1.16c0.13,0.17,0.79,0.7,2.85,1.27
		c5.8,1.58,5.89-0.61,7.88-5.94c20.58,1.23,41.16-1.84,61.94-2.15C281.35,292.4,281.14,316.77,283.91,341.44z M282.17,265.88
		c-21.09,0.1-41.87,3.07-63.17,2.25c0.92-3.58-1.02-6.76,0.51-10.24c5.13-0.97,52.98-2.73,59.48-2.66
		C279.53,257.4,277.24,261.62,282.17,265.88z M280.22,252.88c-2.61,0.43-1.34,3.45-7.68-21.19c-1.51,0.76,2.02,12.42,4.5,21.5
		c-17.4,0-34.4,2.76-51.8,1.84c-0.82-4.3-3.48-6.19-7.88-6.25c-3.35-0.04-7.93-3.28-7.99-6.04c-0.2-9.53,0.41-19.04,0.41-28.67
		c1.13,0.1,0.2,1.33,1.33,1.43c1.54-2.05,1.43,1.64,2.66,1.13c0.82-1.54-0.2-3.38,0.92-5.32c43.09,3.92,20.33,3.33,28.46,10.44
		c0.15-1.12-1.23-9.27,4.4-5.32c1.64,0,3.07,0.61,4.81,1.13c-1.13,2.15-1.54,4.3,1.02,6.55c0.2-2.25-0.1-4.1,0.72-6.04
		c5.84,1.64,11.88,2.15,17.81,4.5c-1.43,1.64-2.35-0.2-3.69,0.82c-1.33,1.95,0.41,3.28,1.43,4.61c1.33,0.41,1.43-1.02,2.25-1.02
		C274.52,234.56,284.34,251.24,280.22,252.88z M310.73,258.72c-1.74-1.23-1.74-1.23-0.31-4.71
		C311.55,255.65,310.73,257.18,310.73,258.72z M343.66,274.24c1.37,0.68-13.25-0.38-26.24,2.22c-6.15,1.23-0.83-0.08-0.43-1.26
		c-2.61-0.22-5.21,2.67-3.69-7.99c9.52-2.25,19.25-2.25,29.59-3.28C340.43,267.91,340.52,271.28,343.66,274.24z M373.59,263.12
		c1.23,3.89,0.51,7.17,0.41,11.06C370.73,270.39,370.52,266.7,373.59,263.12z"/>
	<path d="M248.28,141.49l0.1-0.1C248.31,141.39,248.31,141.34,248.28,141.49z"/>
	<path d="M516.28,534.02c-1.3,3.86-1.71,8.16-5.5,10.75c-1.22,0.83-2.05,1.95-2.46,3.17c-1.74,0.41-2.76-1.95-4.4-0.92
		c-1.02,1.23,0.31,1.95,0.51,2.97c-0.72,0.72-2.46,0.2-2.35,2.46c5.17,9.06,0.59,4.25-0.51,6.04c-0.1,1.54,1.64,1.84,2.15,2.97
		c-1.54,1.54-2.05,6.14-0.92,8.4c0.82,0.41,1.23-0.41,1.95-0.72c-0.1-0.92-0.31-1.84,1.13-2.25c-0.31,0.92-0.2,1.84-1.13,2.25
		c-7.53,13.34,5.83,21.25-2.25,27.34c-0.91,0.69-1.52,1.8-2.7,2.22c-0.01,0.01-0.01,0.02-0.01,0.03c0.03-0.04,0.03,0.02-0.46,1.23
		c0.51,0,0.72,0.1,0.92,0c7.91-4.03,8.31-5.33,5.84-14.03c-4.67-16.44,4.58-12.44,3.48-28.26c-0.51-7.36,3.82-10.9,5.22-12.49
		c2.74-3.1,2.46-7.17,3.48-10.75C517.66,533.64,516.97,534.09,516.28,534.02z M505.66,563.61c1.64-0.1,1.02,0.72,1.23,1.33
		C505.87,564.94,505.77,564.33,505.66,563.61z"/>
	<path d="M499.77,598.72C499.76,598.74,499.74,598.78,499.77,598.72L499.77,598.72z"/>
	<path d="M205.92,474.64c0.02,0,0.04-0.01,0.07,0C205.99,474.54,206.01,474.47,205.92,474.64z"/>
	<path d="M296.81,55.8c5.12-3.37,3.57-1.96,0.41-15.97c4.37-1.59,2.57-7.09,1.33-15.77c-2.04,0.56-1.09,6.57-0.61,8.5
		c1.48,6.05-3.94,4.05-2.25,9.42c2.4,7.64,3.31,9.15,2.05,11.26c-2.05,0-4.2,0-6.25-1.84c-1.43,3.48,1.54,3.48,3.07,4.3
		c-0.2,0.92,0.31,1.84-0.41,2.46c-1.95,0.82-4.1,0.92-5.84,2.15c0.92,2.66,2.87,0.1,3.89,0.92c1.33,1.43,0.61,2.46-0.31,3.28
		c-3.42,3.42,2.35,9.11-6.76,9.11c-3.23,0-6.14-2.42-8.7,1.84c-1.78,2.95-2.46,6.25-2.46,9.73c2.46-2.56,2.35-6.04,3.69-8.91
		c4.55-3.93,8.35,3.4,13.82-3.07c1.55-1.83,1.23-3.99,0.92-6.04c2.56-3.38,2.56-3.58,2.25-6.96C296.5,58.77,296.5,58.77,296.81,55.8
		z"/>
	<path d="M685.65,523.47c0.1-0.61,0.41-0.92,0.31-1.23c-2.46-10.34-1.35-20.99-2.66-31.43c-2.22-17.73,1.31-25.87,0.1-33.27
		c-3.69-22.69-0.91-22.01-2.66-24.06c-0.72,12.49,2.82,24.77,1.13,37.47C680.93,477.95,682.26,520.49,685.65,523.47z"/>
	<path d="M315.85,523.99c-2.77-12.66-1.56-22.77-2.35-27.23c-3.92-21.93,2.12-33.79-1.95-45.76c1.49,18.81-1.38,33.88,2.15,68.9
		C313.83,521.22,313.8,522.66,315.85,523.99z"/>
	<path d="M741.86,333.35c-0.04-2.23-0.13-4.47-0.19-6.73C741.61,328.87,741.65,331.11,741.86,333.35z"/>
	<path d="M741.86,299.46c-4.62-25.66-0.35-24.75-3.17-26.72c-14.43,0.55-7.68,0.64-0.51,1.74c0.27,0.77,1.64,17.35,3.38,28.56
		c1.8,11.64-0.24,10.2,0.11,23.58C741.86,317.63,743.51,308.65,741.86,299.46z"/>
	<path d="M371.54,299.98c-1.53-8.6-3.17-17.4-2.25-26.52c-3.38-0.82-6.45-0.1-9.73,0.2c2.87,1.02,5.73,0.72,8.8,1.33
		c-0.31,9.52,1.35,18.73,2.66,27.85c1.35,9.31-0.72,18.63,0.72,27.85C370.52,320.45,373.4,310.42,371.54,299.98z"/>
	<path d="M571.5,188.89c-3.99-5.12-3.28-12.49-8.6-16.48c-1.13-2.15,1.23-4.1-0.31-6.04c-7.3,3.65,2.56,10.6,5.63,18.84
		C568.72,186.54,569.24,188.48,571.5,188.89z"/>
	<path d="M249.92,205.27c-11.47-2.66-23.04-5.22-33.89-10.03C226.37,201.79,238.04,203.94,249.92,205.27z"/>
	<path d="M560.23,218.89c0.82-9.21-1.95-18.12-1.02-27.23c-1.13-0.2-1.65,0.2-1.74,0.82c-1.66,11.68,2.08,11.18,0.82,14.33
		c-1.05,2.62,1.56,5.19,1.13,10.14C559.31,217.66,559.11,218.58,560.23,218.89z"/>
	<path d="M615.01,185.72c-6.35-5.53-7.88-12.08-3.58-19.66c-2.66,0.41-4.14,2.24-3.58,5.02c1.13,5.66-2.32,5.91,0.82,10.14
		C613.11,187.21,613.93,187.09,615.01,185.72z"/>
	<path d="M623.3,194.73c-0.5-0.72-1.33-1.33-2.46-0.51c0.92,2.25,3.28,3.69,3.99,6.14c3.38,2.76,6.14,6.65,11.67,6.96
		C633.83,204.11,630.34,204.87,623.3,194.73z"/>
	<path d="M294.45,34.3c-4.81-2.87-10.03-2.87-13.51,0c1.02,1.02,2.15,0.82,3.17,0.31C288.11,33.18,295.38,39.24,294.45,34.3z"/>
	<path d="M372.67,340.62c-1.74,10.44-0.61,20.78,0.72,31.02C372.36,361.3,372.16,350.96,372.67,340.62z"/>
	<path d="M611.22,191.56c-7.78-1.02-15.46-2.46-23.14-4.61C592.28,189.92,607.74,192.99,611.22,191.56z"/>
	<path d="M555.63,210.7c-2.56-7.78-0.72-15.77-2.25-23.65c-2.15,1.49,0.3,11.11-0.1,17C553.12,206.3,554.09,208.76,555.63,210.7z"/>
	<path d="M642.75,170.57c3.58,2.87,8.6,1.74,12.18,5.32C654.73,172,648.38,169.24,642.75,170.57z"/>
	<path d="M743.7,423.86c0.29,0,0.2,2.64,0.2-34.3C743.59,389.56,743.7,386.92,743.7,423.86z"/>
	<path d="M316.26,570.06c-0.72-7.78-2.15-14.95-2.05-22.22C313.19,555.21,314.21,566.17,316.26,570.06z"/>
	<path d="M686.16,569.14c-0.41-6.96-1.64-13.92-1.95-20.89C683.71,555.32,684.32,562.28,686.16,569.14z"/>
	<path d="M270.8,104.43c0.61-1.23,1.02-1.95,1.43-2.76C251.49,86.53,265.09,94.99,270.8,104.43z"/>
	<path d="M726.3,265.47c-3.58-0.72-7.06-0.61-10.55,0.61C719.44,268.44,722.81,266.29,726.3,265.47z"/>
	<path d="M560.03,176.3c-0.51-0.1-0.92-0.1-1.43,0C557.82,191.89,560.46,193.45,560.03,176.3z"/>
	<path d="M355.68,265.78c-3.48-0.61-6.86-0.72-10.14,0.72C349.12,268.75,352.4,266.7,355.68,265.78z"/>
	<path d="M743.09,340.21c-1.83,6.82-1.23,19.97-0.31,21.81C742.57,354.75,742.47,347.48,743.09,340.21z"/>
	<path d="M291.79,37.47c-2.76-0.1-5.22-0.31-7.68,2.25C287.75,39.46,291.2,43.39,291.79,37.47z"/>
	<path d="M747.39,525.01c-0.63,2.04-0.2,4.2,0.2,6.25c0.61-4.3,1.23-8.6,0.61-13.41C747.8,520.51,748.08,522.75,747.39,525.01z"/>
	<path d="M745.34,441.88c0.41-11.67,0.41-11.67-1.02-13.31C744.62,432.97,743.8,437.47,745.34,441.88z"/>
	<path d="M377.48,532.28c-0.1-5.02,1.54-9.93,0.51-14.85C378.3,522.35,376.05,527.26,377.48,532.28z"/>
	<path d="M637.74,162.27c2.76,1.33,5.53,2.56,6.25,6.35C645.52,165.14,642.86,162.48,637.74,162.27z"/>
	<path d="M262.1,214.49c-3.28-2.05-7.06-2.15-10.65-3.07C255.04,212.34,258.31,214.49,262.1,214.49z"/>
	<path d="M373.08,423.55c1.33-3.58,0.41-7.17,0-10.75C373.08,416.38,373.08,419.97,373.08,423.55z"/>
	<path d="M271.83,140.06c-0.82,2.15-2.87,3.58-4.1,6.25C271.21,145.48,271.93,144.36,271.83,140.06z"/>
	<path d="M654.12,256.67c2.35,2.46,3.79,2.56,6.86,0.41C658.72,256.98,656.68,256.16,654.12,256.67z"/>
	<path d="M374.21,428.57c0.51,3.99-0.61,8.19,0.61,12.29C374.31,436.76,376.05,432.56,374.21,428.57z"/>
	<path d="M284.11,257.08c1.74,2.46,3.38,2.56,6.65,0.2C288.31,257.49,286.36,256.26,284.11,257.08z"/>
	<path d="M683.6,526.75c-0.2,3.48-1.02,6.86,0.51,10.24C683.71,533.61,684.01,530.13,683.6,526.75z"/>
	<path d="M622.58,189.41c-2.15-1.33-4.2-2.56-6.55-3.07C617.98,189,619,189.41,622.58,189.41z"/>
	<path d="M273.57,165.76c-2.66,1.74-5.73,2.25-9.01,3.89C269.37,169.13,271.21,168.31,273.57,165.76z"/>
	<path d="M310.94,433.69c-0.1,4.3-1.23,8.6,0.1,12.8C310.94,442.29,310.94,437.99,310.94,433.69z"/>
	<path d="M572.52,264.96c0-2.97-1.95-4.1-3.79-5.12C570.06,261.38,569.96,263.94,572.52,264.96z"/>
	<path d="M265.68,71.46c0.82,2.97,0.41,5.53,2.87,7.06C268.65,76.07,268.34,73.82,265.68,71.46z"/>
	<path d="M628.11,221.25c0.61-2.97-0.1-4.61-2.25-5.84C625.14,217.76,626.58,219.1,628.11,221.25z"/>
	<path d="M243.57,156.34c6.56,3.28,5.59,2.73,6.25,1.74C247.77,157.36,246.44,155.01,243.57,156.34z"/>
	<path d="M743.8,372.16c0.41-3.48-0.31-6.76-1.02-10.14C742.37,365.5,743.19,368.88,743.8,372.16z"/>
	<path d="M261.18,54.88c-2.05,1.95-0.82,3.58,0.51,5.12C261.59,58.36,262.61,56.51,261.18,54.88z"/>
	<path d="M679.77,371.79c0.17-3.17-0.11-6.41,0.45-9.56C678.74,365.38,679.86,368.61,679.77,371.79z"/>
	<path d="M272.64,130.43c-1.02,2.35,0.51,4.71-0.1,7.17C274.18,135.14,273.16,132.79,272.64,130.43z"/>
	<path d="M588.18,165.76c1.64,1.43,3.48,2.56,6.25,2.66C592.59,166.06,590.23,166.27,588.18,165.76z"/>
	<path d="M309.6,373.18c0-3.07,0-6.04,0-9.11C308.38,367.04,309.5,370.11,309.6,373.18z"/>
	<path d="M556.45,173.64c-2.05,3.28-2.05,3.38-1.54,6.14C555.73,177.94,556.65,176.4,556.45,173.64z"/>
	<path d="M313.19,527.37c0,9.9-0.17,8.7,0.41,8.7C313.6,527.1,313.76,527.08,313.19,527.37z"/>
	<path d="M309.6,364.07c0.81-3.35,1.12-6.7-0.28-9.95C309.98,357.43,309.5,360.75,309.6,364.07z"/>
	<path d="M309.3,353.93v0.1C309.34,354.17,309.33,354.14,309.3,353.93z"/>
	<path d="M294.25,258.72c1.64,0.51,2.87,0.31,4.4-0.82C296.7,256.87,295.27,256.67,294.25,258.72z"/>
	<path d="M251.86,74.53c-1.33-1.23,0.82-3.99-2.25-4.3C249.81,71.77,249.3,73.82,251.86,74.53z"/>
	<path d="M664.36,258.41c1.84,0.51,3.17,0.31,4.5-0.82C667.12,256.36,665.79,256.46,664.36,258.41z"/>
	<path d="M261.38,64.91c0.1,2.15,0.92,3.58,2.25,4.71C263.33,68.08,263.33,66.24,261.38,64.91z"/>
	<path d="M309.4,354.03c-0.1-2.46-0.1-4.91,0-7.37C309.19,349.12,308.79,351.58,309.4,354.03z"/>
	<path d="M680.33,354.75c-0.92-2.75,0.19-5.71-0.71-8.48C679.78,349.1,678.82,352.03,680.33,354.75z"/>
	<path d="M679.61,346.25c0,0.05,0.02,0,0-0.1V346.25z"/>
	<path d="M262.3,62.15c1.43,1.64,2.46,2.97,4.4,2.97C265.58,63.99,265.07,61.94,262.3,62.15z"/>
	<path d="M664.15,263.94c-1.64-0.31-3.28-0.72-4.5,0.92C662,265.06,662,265.06,664.15,263.94z"/>
	<path d="M628.62,221.86c-0.1,2.46,1.74,3.38,3.28,4.5C632.83,225.43,629.65,222.98,628.62,221.86z"/>
	<path d="M293.22,264.45c-1.54-0.92-2.66-0.41-3.79,0.82C290.66,265.47,291.99,265.58,293.22,264.45z"/>
	<path d="M247.77,64.5c1.33-1.33,1.54-2.56,0.92-3.99C247.46,61.53,247.46,62.86,247.77,64.5z"/>
	<path d="M680.22,362.22l0.1,0.1C680.33,361.56,680.36,361.74,680.22,362.22z"/>
	<path d="M680.33,354.75c0,2.29,0,4.67,0,7.05C680.91,359.48,680.72,357.06,680.33,354.75z"/>
	<path d="M560.54,254.11c-0.41,0.92-1.02,1.84-0.72,3.38C561.15,256.16,560.75,255.13,560.54,254.11z"/>
	<path d="M569.55,240.7c0,1.43-0.61,2.66,1.33,3.69C570.78,242.85,571.5,241.52,569.55,240.7z"/>
	<path d="M237.22,154.6c1.13,1.13,2.15,1.74,4.2,1.33C240.09,154.6,239.17,153.67,237.22,154.6z"/>
	<path d="M270.39,193.3c-1.33-1.13-2.66-1.13-4.1-0.92C267.53,192.58,268.65,193.71,270.39,193.3z"/>
	<path d="M378.2,482.73c-0.29-0.29-0.2-0.19-0.2,3.48C378.27,486.21,378.2,486.61,378.2,482.73z"/>
	<path d="M748.1,480.68c0,0.92,0,1.84,0,2.76C748.18,482.77,748.3,480.68,748.1,480.68z"/>
	<path d="M269.88,81.19c0.2-1.43,0.61-2.76-1.43-2.56C268.55,79.55,268.65,80.57,269.88,81.19z"/>
	<path d="M275.31,101.87c-1.13,0.2-1.84,0.31-1.54,1.74C275,103.4,275.31,102.79,275.31,101.87z"/>
	<path d="M227.6,182.44c0.82,0.1,1.43,1.02,2.56,0.61C229.34,182.34,228.62,182.03,227.6,182.44z"/>
	<path d="M572.72,191.15c-1.02,0.72-1.33,1.54-0.72,2.87C573.24,193.09,573.34,192.27,572.72,191.15z"/>
	<path d="M233.23,165.76c-0.82-0.82-1.54-1.54-3.17-1.64C231.59,165.76,231.59,165.76,233.23,165.76z"/>
	<path d="M734.38,266.19c1.23,0.51,2.46,1.02,3.79-0.1C736.84,265.27,735.61,265.47,734.38,266.19z"/>
	<path d="M563.82,263.12c-0.61-1.02-1.13-1.33-2.05-0.92C562.28,262.71,562.28,263.84,563.82,263.12z"/>
	<path d="M368.27,266.4c-1.84-0.51-2.97-0.82-4.3,0.2C365.2,267.32,366.32,267.42,368.27,266.4z"/>
	<path d="M567.6,199.64c0.31-0.72,0.1-1.13-0.51-1.43C566.68,198.93,566.79,199.44,567.6,199.64z"/>
	<path d="M631.49,193.6c-0.72-0.92-1.33-1.33-2.25-0.72C629.65,194.01,630.36,194.01,631.49,193.6z"/>
	<path d="M301.72,257.9c0.92,0.72,1.74,0.82,3.07,0C303.56,257.18,302.64,257.18,301.72,257.9z"/>
	<path d="M310.94,446.48c0.19,1.47-0.15,2.94,0.61,4.32C311.57,449.33,311.82,447.86,310.94,446.48z"/>
	<path d="M311.65,450.99c-0.04-0.06-0.06-0.12-0.1-0.18C311.55,451.03,311.52,450.99,311.65,450.99z"/>
	<path d="M576.92,253.29c-0.51,0.92-0.1,1.43,0.82,1.84C577.84,254.11,577.74,253.5,576.92,253.29z"/>
	<path d="M378.1,512.62c0.1-0.41,0.1-0.92,0.1-1.43C378.05,511.19,378.1,510.98,378.1,512.62z"/>
	<path d="M272.24,107.19c0.31-1.13,0.1-1.74-1.23-2.15C270.7,106.37,271.01,106.99,272.24,107.19z"/>
	<path d="M378.81,506.68c0,0.41,0,0.82,0,1.23C378.86,507.73,379.03,506.68,378.81,506.68z"/>
	<path d="M672.14,257.59c0.82,0.72,1.64,0.72,2.87,0C673.98,256.87,673.06,256.87,672.14,257.59z"/>
	<path d="M574.87,253.39c-0.72,0.2-1.02,0.51-0.51,1.43C575.28,254.42,575.59,254.01,574.87,253.39z"/>
	<path d="M634.05,228.11c-0.26-1.03-1.46-2.43-2.15-1.74C632.31,227.18,632.82,227.9,634.05,228.11z"/>
	<path d="M646.64,213.26c0.2,0.92,0.82,0.92,1.74,0.51C647.77,213.06,647.36,212.54,646.64,213.26z"/>
	<path d="M220.74,170.87c0.61,0.1,0.82,1.43,1.84,0.61C222.27,170.77,221.66,170.57,220.74,170.87z"/>
	<path d="M254.52,144.26c-0.41-0.61-0.82-1.13-1.95-0.72C253.09,144.56,253.6,144.97,254.52,144.26z"/>
	<path d="M680.74,431.23c-0.2,0-0.31,0-0.41,0C680.82,434.72,680.74,433.73,680.74,431.23z"/>
	<path d="M273.36,88.15c0.82,0,1.02-0.51,0.72-1.54C273.16,87.02,272.54,87.33,273.36,88.15z"/>
	<path d="M272.85,52.11c0.2-1.13-0.61-1.13-1.33-1.43C271.31,51.91,271.83,52.21,272.85,52.11z"/>
	<path d="M748.92,509.24c0-0.31,0-0.51,0-0.82C748.82,508.73,748.51,508.94,748.92,509.24z"/>
	<path d="M269.88,49.45c0.2-0.72-0.31-0.92-1.13-1.13C268.55,49.25,268.86,49.65,269.88,49.45z"/>
	<path d="M249.61,67.57c-0.72,1.13,0,1.84,0,2.56C249.81,69.41,250.22,68.7,249.61,67.57z"/>
	<path d="M270.39,85.39c0.78-0.13,0.93-1.95-0.51-1.54C269.98,84.36,269.47,84.98,270.39,85.39z"/>
	<path d="M271.52,87.43c-0.31,0.72-0.61,1.23,0.31,1.95C272.03,88.66,272.64,88.15,271.52,87.43z"/>
	<path d="M309.91,429.49c0-0.1,0-0.2,0-0.2C309.73,429.28,309.81,429.49,309.91,429.49z"/>
	<path d="M561.67,226.67c0,0.41-0.41,1.02,0.31,1.43C562.59,227.59,562.38,227.08,561.67,226.67z"/>
	<path d="M749.54,504.12C749.43,504.53,749.54,504.33,749.54,504.12L749.54,504.12z"/>
	<path d="M576.31,331.51c-1.43,2.66-3.06,4.92-4.61,7.17c-11.36,16.52-9.11,25.76-11.77,35.22c-7.24,25.68,0.39,31.77-0.31,12.29
		c-0.26-7.16,2.33-14.03,3.07-21.19c1.73-16.83,11.9-24.63,15.36-33.79c-0.41-1.43-2.05-1.43-2.56-3.07
		c0.1-5.94,2.35-11.88,2.87-18.12C575.9,314.83,571.69,328.63,576.31,331.51z"/>
	<path d="M627.29,325.78c-1.1,3.61,0.6,11.11-0.92,14.13c-4.22,8.34-2.25,17.61-4.2,26.31c1.74-2.66,2.61-5.62,2.97-8.6
		c3.22-26.39,3.71-4.85,4.2-29.59C629.36,326.9,629.14,325.57,627.29,325.78z"/>
	<path d="M601.9,318.3c-3.59,1.8,1.73,1.87-0.51,9.42c-2.77,9.32-5.93,12.55-3.48,16.07C598.38,340.83,610.05,323.92,601.9,318.3z"
		/>
	<path d="M612.86,320.25c0.92,8.09-4.71,14.95-3.07,22.93C611.35,340.06,618.16,321.79,612.86,320.25z"/>
	<path d="M572.52,409.73c-0.2-11.36-1.02-22.73,0.82-33.99C570.27,387,570.57,398.37,572.52,409.73z"/>
	<path d="M587.77,319.94c2.15-3.58,5.63-5.73,9.42-7.68C593.92,310.11,588.29,314.82,587.77,319.94z"/>
	<path d="M613.88,386.39c-0.31-4.61,1.33-8.29,3.58-11.88C613.88,377.27,612.24,383.01,613.88,386.39z"/>
	<path d="M565.45,322.09c2.66-2.66,4.2-5.12,4.91-7.37C568.22,316.15,566.89,318,565.45,322.09z"/>
	<path d="M638.66,334.99c1.64-2.35,1.64-4.3,1.02-6.76C638.35,331.2,638.35,331.2,638.66,334.99z"/>
	<path d="M626.47,425.19c0.31,0.2,0.51,0.51,0.72,0.72C627.4,425.29,627.29,424.78,626.47,425.19z"/>
	<path d="M599.55,420.27c0,0.26-0.09,0.14,0.1,0.1c0.14,0.14,0.09,0.14,0.12-0.06C599.63,420.39,599.68,420.41,599.55,420.27z"/>
	<path d="M599.77,420.32c0.92-0.34,1.31-1.12,1.31-2.09C600.21,418.62,599.81,419.29,599.77,420.32z"/>
	<path d="M601.08,418.23c0.92-0.31,1.02-0.92,1.23-2.05C601.39,416.9,600.98,417.41,601.08,418.23z"/>
	<path d="M721.69,158.59c8.37,1.13,10.92,8.53,12.29,4.1c-3.07-4.3-8.6-6.45-12.8-4.91C721.38,158.08,721.59,158.59,721.69,158.59z"
		/>
	<path d="M689.13,171.8c-0.41,8.09-3.69,15.56-5.22,23.65C686.98,191.15,690.77,174.97,689.13,171.8z"/>
	<path d="M723.22,163.91c1.95,1.13,3.17,3.38,5.94,2.97c0.31-0.72,1.13-1.23,1.02-2.46C728.04,163.4,725.78,162.58,723.22,163.91z"
		/>
	<path d="M609.58,253.5c-1.02-4.91-4.3-8.7-6.35-13.1C604.15,245.31,606.71,249.5,609.58,253.5z"/>
	<path d="M674.49,167.6c-0.62-0.41-1.43,0.61-1.95,1.84c1.84-0.92,3.17-0.2,4.81,0.2c1.54-1.33,3.79-1.23,5.43-2.76
		C680.64,165.01,678.28,170.1,674.49,167.6z"/>
	<path d="M695.68,168.93c-2.76,1.33-2.97,1.95-1.43,5.43C695.07,172.51,696.09,170.98,695.68,168.93z"/>
	<path d="M662,230.87c0.72,1.84,1.74,3.48,3.48,4.61C664.87,233.53,663.84,231.89,662,230.87z"/>
	<path d="M681.45,213.87c2.25-1.33,3.07-2.87,3.58-4.5C683.6,210.29,682.48,211.52,681.45,213.87z"/>
	<path d="M689.44,163.71c-2.05-0.31-2.15,1.23-2.97,2.97C688.62,166.27,689.75,165.65,689.44,163.71z"/>
	<path d="M668.66,223.5c0.2,1.02,0.41,2.25,2.15,2.76C670.29,224.93,670.09,223.81,668.66,223.5z"/>
	<path d="M707.87,170.87c-0.2-0.72-0.2-1.43-1.54-1.64C706.64,170.16,706.43,170.87,707.87,170.87z"/>
	<path d="M706.13,167.7c-0.2-1.13,0.2-2.25-1.43-1.43C704.69,166.88,704.9,167.29,706.13,167.7z"/>
	<path d="M667.53,222.06c0.31,0.61,0.51,1.13,1.13,1.33C668.55,222.78,668.55,222.17,667.53,222.06z"/>
	<path d="M679.81,208.55c0.82-0.2,1.13-0.61,1.02-2.15C680.22,207.42,679.41,207.42,679.81,208.55z"/>
	<path d="M567.91,463.99c-1.95-2.76-0.92-6.25-2.66-9.11C563,459.08,563.82,462.15,567.91,463.99z"/>
	<path d="M573.75,463.79c-0.92-2.76-2.76-4.61-4.91-7.17C568.83,461.02,570.27,463.07,573.75,463.79z"/>
	<path d="M514.67,480.88c6.04-5.62,4.76-2.93,4.2-4.61c-3.69,2.15-6.86,4.71-8.6,8.91C511.91,483.96,513.14,482.32,514.67,480.88z"
		/>
	<path d="M565.56,438.4c-2.15,2.87-5.43,4.81-6.55,8.4C561.97,444.54,564.53,442.08,565.56,438.4z"/>
	<path d="M569.04,456.01c1.74-2.05,3.17-4.2,3.69-6.86C569.86,450.58,569.24,453.24,569.04,456.01z"/>
	<path d="M541.6,459.08c-2.66,0.72-4.91,2.15-6.86,4.1C537.3,462.25,539.65,461.23,541.6,459.08z"/>
	<path d="M503.92,494.09c1.64-1.74,3.79-3.17,3.79-6.04C503.06,494.03,502.84,493.55,503.92,494.09z"/>
	<path d="M500.34,488.05c-1.64,0.72-3.28,1.54-3.58,4.1C498.91,491.43,499.73,489.79,500.34,488.05z"/>
	<path d="M530.24,452.01c-1.95,0.82-3.58,2.05-4.2,4.4C531.43,451.74,530.78,453.1,530.24,452.01z"/>
	<path d="M559.62,466.45c0.61-1.33,0.82-2.46-0.41-3.79C557.37,464.4,557.57,465.53,559.62,466.45z"/>
	<path d="M492.55,498c0.07,0.2,1.95,0.4,2.77-3.7C493.82,495.5,492.22,496.03,492.55,498z"/>
	<path d="M487.03,504.64c3.78-1.33,4.61-4.09,5.52-6.64C490.19,499.53,488.16,501.27,487.03,504.64z"/>
	<path d="M567.71,433.17c-1.64,1.95-1.64,1.95-1.33,4.2C567.4,436.14,568.22,434.92,567.71,433.17z"/>
	<path d="M579.38,445.87c-0.53-1.58-1.64-0.88-1.64-0.1C578.25,446.28,578.66,446.38,579.38,445.87z"/>
	<path d="M581.84,446.07c1.75,0,0.7-2.11-0.72-0.92C581.12,445.67,581.32,446.07,581.84,446.07z"/>
	<path d="M558.39,451.3c-0.92,0.1-1.33,0.41-1.02,1.64C558.08,452.52,558.6,452.32,558.39,451.3z"/>
	<path d="M589.72,451.19c-0.41-0.41-0.61-0.92-1.23-0.92C588.49,451.4,588.49,451.4,589.72,451.19z"/>
	<path d="M564.53,489.38c-4.3,3.17-9.01,5.84-12.18,10.24C565.59,494.85,566.82,488.24,564.53,489.38z"/>
	<path d="M567.2,487.74c-2.7,4.05,8.22-3.76,4.2-7.78C569.96,482.62,568.63,485.18,567.2,487.74z"/>
	<path d="M522.56,506.68c0.42,1.27-2.1,1.29,11.16-0.92C529.83,504.64,526.35,506.58,522.56,506.68z"/>
	<path d="M601.6,473.31c1.84-2.15,3.48-4.4,5.43-6.35C604.26,468.29,601.6,469.72,601.6,473.31z"/>
	<path d="M542.52,503.2c3.58-0.51,6.55-2.46,9.83-3.69C548.36,499.01,545.49,501.36,542.52,503.2z"/>
	<path d="M579.69,473.51c-0.31,0.92-0.51,1.84,0.92,2.46C581.02,474.95,581.43,474.02,579.69,473.51z"/>
	<path d="M539.04,503.92c-0.31,0.1-0.72,0.1-1.54,0.2C538.32,504.33,538.73,504.64,539.04,503.92z"/>
	<path d="M611.53,306.73c-0.41-10.95-6.86-19.04-12.49-27.64C603.44,288.1,609.68,296.39,611.53,306.73z"/>
	<path d="M639.68,303.46c4.79-0.65,6.15-11.89,10.34-18.22c0.94-1.42,1.02-3.28,0.31-5.32C647.56,288.1,643.88,295.57,639.68,303.46
		z"/>
	<path d="M600.67,272.13c-0.51,0.82,0,1.33,0.72,2.15C601.49,273.26,601.19,272.64,600.67,272.13z"/>
	<path d="M595.76,271.41c-0.41,0.92,0.1,1.33,0.82,1.64C596.68,272.33,596.48,271.72,595.76,271.41z"/>
	<path d="M492.97,558.18c2.35-0.72,5.16-0.72,5.63-3.99c0.46-3.18-1.74-4.4-4.1-5.32c3.13-7.93-4.79-9.35-6.76-5.22
		c-1.22,2.56,0,4.61,3.99,6.55C489.59,553.06,490.92,555.52,492.97,558.18z M496.55,552.14c0.92,1.23,0.41,2.35-0.61,3.28
		c-1.43-1.13-1.84-1.33-3.48-1.23C491.52,551.38,495.5,550.26,496.55,552.14z M491.33,547.84c-3.12,0-3.03-4.5,0.2-4.5
		C494.58,543.12,494.68,547.84,491.33,547.84z"/>
	<path d="M486.11,541.9c1.13-0.82,2.05-1.75,3.99-1.43c3.58,0.58,3.02-4.66,0.51-6.96c-2.15,1.02-4.81,1.43-6.65,2.97
		c0.41,2.25,2.46,0,2.66,0.92C486.93,539.45,484.78,540.16,486.11,541.9z M489.8,535.76c0.82,1.13,1.64,1.95,0.31,2.87
		C488.16,537.4,488.16,537.4,489.8,535.76z"/>
	<path d="M202.62,134.94c-1.08,3.29-1.19,6.78-2.66,9.83c-1.49,3.09-1.43,6.25-0.31,9.52c-0.2-4.4,0.23-8.67,3.48-12.08
		c0.34-0.35,3.55-8.95-1.23-14.03c-0.47-0.57-1.46-3.91-3.38-12.8c-3.26,2.36-0.08,10.56,1.95,14.03
		C201.48,131.15,203.25,133,202.62,134.94z"/>
	<path d="M197.29,180.19c1.02-3.58,1.84-7.17,3.17-10.85c3.07,2.15,2.97,5.73,4.61,8.6c1.02-1.13,1.11-2.25,0.72-3.17
		c-1.38-3.25-2.04-6.88-5.32-9.01c-2.55-1.65-3.12-4.11-2.15-6.86c2.15-6.07-5.51,0.29-1.43,5.63
		C201.03,169.97,195.57,174.79,197.29,180.19z"/>
	<path d="M193.4,228.51c-1.54-11.36-1.84-22.63-0.51-34.2c-0.4,0.2-1.24,0.39-1.23,1.33c0.05,6.14-2.46,12.39-0.31,18.63
		C192.18,217.16,188.94,215.13,193.4,228.51z"/>
	<path d="M194.94,188.89c0.82,0.31,0.51,1.95,2.15,1.54c0-2.56,0-5.12,0-7.68c-2.97,2.05-4.1,4.81-4.2,8.19
		C194.22,190.74,194.02,189.3,194.94,188.89z"/>
	<path d="M220.02,117.23c0.1-3.07-2.33-4.43-4.1-6.25c-1.01-1.04-2.05-2.35-4.2-1.13C213.78,113.34,217.15,114.97,220.02,117.23z"/>
	<path d="M231.79,77.81c2.35-0.61,4.4,1.43,7.06,1.33c-2.46-3.07-4.5-3.79-8.09-2.97C230.46,77.09,231.69,77.09,231.79,77.81z"/>
	<path d="M196.88,216.54c0.64-3.62,0.52-7.31,0.09-10.97C197.03,209.23,195.76,212.91,196.88,216.54z"/>
	<path d="M196.97,205.57c-0.01-0.99-0.12-1.98-0.4-2.96C196.73,203.6,196.86,204.59,196.97,205.57z"/>
	<path d="M210.6,108.01c-1.64-2.56-2.25-5.84-5.02-7.47C206.3,103.71,207.73,106.37,210.6,108.01z"/>
	<path d="M246.23,82.83c-1.95-3.79-3.48-4.5-6.35-2.76C242.44,79.86,243.77,82.52,246.23,82.83z"/>
	<path d="M222.99,88.56c0.04-0.52-0.02-1.05-0.11-1.61C222.78,87.48,222.8,88.01,222.99,88.56z"/>
	<path d="M224.12,80.57c-2.43,2.1-1.6,4.33-1.24,6.38C223.2,85.03,224.92,83.14,224.12,80.57z"/>
	<path d="M234.56,80.37c-0.28-1.66-3.9-3.67-5.12-1.84C231.18,79.14,232.2,81.29,234.56,80.37z"/>
	<path d="M204.87,189.51c1.54-2.05,1.74-4.2,0-6.25C204.87,185.31,204.87,187.46,204.87,189.51z"/>
	<path d="M211.83,159.31c0.31,1.54,0,3.28,2.05,5.12C214.18,161.86,213.78,160.23,211.83,159.31z"/>
	<path d="M204.77,264.66c-1.84-0.51-3.17-1.33-4.4-2.35C201.18,265.27,201.8,265.68,204.77,264.66z"/>
	<path d="M229.85,118.05c2.46,0.2,2.46,0.2,3.58-2.46C232.2,116.2,231.08,116.71,229.85,118.05z"/>
	<path d="M193.81,244.28c1.33-1.43,1.64-2.56,1.02-4.2C193.5,241.21,193.3,242.34,193.81,244.28z"/>
	<path d="M198.42,253.39c-0.51,1.95,0,2.97,2.15,4.1C200.06,255.54,199.65,254.42,198.42,253.39z"/>
	<path d="M209.58,260.46c-0.2-1.43,1.23-3.28-1.33-4.61C208.45,257.8,207.73,259.43,209.58,260.46z"/>
	<path d="M241.93,116.61c1.74,0.1,2.87-0.92,3.99-2.05C244.08,114.26,242.65,114.77,241.93,116.61z"/>
	<path d="M191.05,252.78c-1.43,1.33-0.61,2.76-0.61,3.99C190.23,255.54,192.58,254.62,191.05,252.78z"/>
	<path d="M222.07,116.61c-0.82,1.54-0.61,2.56,0.2,3.89C222.89,119.07,223.09,118.05,222.07,116.61z"/>
	<path d="M187.67,211.11c0.72-1.54,0.72-2.76,0.1-4.81C186.95,208.14,186.85,209.47,187.67,211.11z"/>
	<path d="M211.93,262.3c-0.61-1.33-0.92-2.15-2.35-1.84C209.58,261.69,210.09,262.3,211.93,262.3z"/>
	<path d="M196.78,238.45c0.82-1.23,0.82-1.95,0-2.76C195.76,236.6,195.65,237.32,196.78,238.45z"/>
	<path d="M211.52,157.67c0.72-1.23,0.1-1.74-0.92-2.15C209.99,156.64,210.09,157.36,211.52,157.67z"/>
	<path d="M197.6,226.57c-0.61,1.54-0.82,2.56,0.2,3.79C198.32,229.03,198.52,228.11,197.6,226.57z"/>
	<path d="M191.15,260.25c0,1.02,0.31,1.64,1.64,1.54C192.58,260.66,192.17,260.05,191.15,260.25z"/>
	<path d="M196.17,233.94c1.47-0.21,0.99-1.88,0.1-1.43C195.65,232.92,195.76,233.43,196.17,233.94z"/>
	<path d="M204.56,192.78c0.51-0.61,0.92-1.13,0.31-2.05C204.36,191.35,203.64,191.66,204.56,192.78z"/>
	<path d="M204.97,180.09c-0.2,0.82-0.2,1.33,1.02,1.64C205.99,181.01,206.2,180.29,204.97,180.09z"/>
	<path d="M194.73,128.8c-0.31,0.61-1.33,0.61-0.72,1.95C194.83,130.33,195.65,130.02,194.73,128.8z"/>
	<path d="M222.99,90.4c-0.7,0.17-0.52,1.02,0.1,1.02C223.46,91.43,223.9,90.86,222.99,90.4z"/>
	<path d="M222.89,94.5c-1.06,0.8,0.84,1.63,0.51,0.31C223.3,94.7,222.99,94.5,222.89,94.5z"/>
	<path d="M204.25,197.7c-0.31,0.72-0.1,1.13,0.82,1.43C205.07,198.52,205.48,197.9,204.25,197.7z"/>
	<path d="M212.96,300.28c-0.36-2.14-4.61-6.09-6.14-19.66c-0.1-0.92,0.2-2.05-1.33-2.25c-0.2,0.31-0.41,0.61-0.41,0.92
		c1.32,17.47,6.3,19.47,6.35,22.52c0.36,22.85-3.46,20.29,0.92,28.77c2.1-2.3-1.8-3.41,0.31-11.36
		C214.3,312.98,213.26,306.63,212.96,300.28z"/>
	<path d="M225.14,303.15c1.43-7.78-2.35-14.95-2.25-22.52C222.27,288.31,225.04,295.57,225.14,303.15z"/>
	<path d="M198.93,311.55c0.92-5.02,2.46-9.93,2.66-15.05C199.54,299.87,197.91,308.78,198.93,311.55z"/>
	<path d="M277.46,286.46c0.31-4.81,0.72-9.52-0.61-14.23C276.33,277.04,276.43,281.75,277.46,286.46z"/>
	<path d="M222.99,307.96c-1.95,3.48-1.64,6.76,0.82,9.52C222.48,314.31,222.38,311.14,222.99,307.96z"/>
	<path d="M244.59,360.89c0,3.99-0.61,7.58,1.84,10.65c-1.43-4.71-0.31-9.42,0.1-14.64c-4.91,3.17-4.5,9.62-9.62,11.67
		C241.21,368.06,242.14,364.17,244.59,360.89z"/>
	<path d="M236.3,388.54c-1.54-2.87-4.71-3.28-6.45-5.73c0-2.66,1.54-5.22,0.72-8.19C225.91,381.29,230.75,390.2,236.3,388.54z"/>
	<path d="M231.69,390.89c-2.97-2.46-3.99-5.63-6.25-8.4C224.42,387.21,226.68,390.38,231.69,390.89z"/>
	<path d="M216.44,377.27c2.46-2.97,3.79-6.25,3.69-10.03C218.69,370.52,216.85,373.69,216.44,377.27z"/>
	<path d="M183.98,430c1.74-3.69,3.38-7.37,5.53-10.85C186.23,422.02,184.19,425.5,183.98,430z"/>
	<path d="M220.23,357.11c-1.02,2.87-0.72,5.63,0.1,8.4C220.94,362.74,221.66,359.87,220.23,357.11z"/>
	<path d="M180.19,440.44c2.87-3.58,2.97-3.89,2.56-7.68C181.83,435.63,181.01,438.09,180.19,440.44z"/>
	<path d="M173.54,440.65c1.84-1.13,2.35-2.66,2.25-5.43C174.15,437.17,173.33,438.7,173.54,440.65z"/>
	<path d="M191.97,391.92c-2.05,1.13-2.87,3.07-3.38,5.22C190.33,395.81,191.15,393.86,191.97,391.92z"/>
	<path d="M224.01,395.4c0.31-1.33-0.1-2.25-1.54-3.17C221.66,394.78,221.66,394.78,224.01,395.4z"/>
	<path d="M171.59,447.71c1.95-0.72,1.54-2.15,1.33-3.58C172.11,445.15,170.88,445.87,171.59,447.71z"/>
	<path d="M201.18,399.29c6.6-6.6,1.34-4.35-0.51-0.41c-0.92,0.82-1.64,1.74-1.95,2.97C201.29,400.31,201.02,399.34,201.18,399.29z"
		/>
	<path d="M235.07,370.01c1.67-1.11-0.78-1.75-1.13-0.2C234.15,370.42,234.66,370.31,235.07,370.01z"/>
	<path d="M224.83,346.15c-1.13,0.2-0.92,0.82-0.51,1.54C225.14,347.38,225.45,346.97,224.83,346.15z"/>
	<path d="M217.05,383.52c0.92-0.2,1.02-0.72,0.82-1.64C216.44,382.19,216.74,382.8,217.05,383.52z"/>
	<path d="M186.34,400.11c-0.51,0.1-0.72,0.51-0.82,1.23C186.34,401.23,186.75,401.03,186.34,400.11z"/>
	<path d="M229.44,369.29c0.97,0.32,0.64-1.36-0.2-0.51C229.23,368.88,229.34,369.29,229.44,369.29z"/>
	<path d="M243.67,344.72c0.72-0.72,0.51-1.23,0-1.84C242.95,343.49,242.85,344.1,243.67,344.72z"/>
	<path d="M272.75,374.61l-0.1-0.1C272.66,374.53,272.73,374.61,272.75,374.61z"/>
	<path d="M225.96,430.1c-2.35,1.45-4.3,3.48-5.63,5.94c8.6-6.86,18.63-15.36,17.1-20.89C234.26,415.64,230.36,427.39,225.96,430.1z"
		/>
	<path d="M238.35,414.13c3.48-3.79,4.1-7.68,1.43-10.44C239.17,407.68,238.76,410.86,238.35,414.13z"/>
	<path d="M265.89,387.72c0.92-2.97,2.15-5.84,3.28-8.7C267.42,381.68,264.45,383.93,265.89,387.72z"/>
	<path d="M275.82,373.9c-1.64-1.84-2.35-0.51-3.07,0.72C273.77,374.82,274.9,375.23,275.82,373.9z"/>
	<path d="M202.41,446.69c1.84,0.2,2.87-0.51,4.2-2.25C204.77,445.05,203.43,445.15,202.41,446.69z"/>
	<path d="M211.73,441.57c-1.74,0.1-2.76,0.82-4.3,1.95C209.58,443.72,210.7,443.11,211.73,441.57z"/>
	<path d="M245.31,395.91c0.27,2.14,2.56,1.8,1.43,0.31C246.44,395.81,246.03,395.29,245.31,395.91z"/>
	<path d="M215.41,439.52c0.61-0.31,1.23-0.31,1.33-1.23C216.03,438.5,215.41,438.7,215.41,439.52z"/>
	<path d="M214.18,441.47c0.61-1.02,0.92-1.54,1.23-2.05C214.7,439.42,213.98,439.42,214.18,441.47z"/>
	<path d="M212.14,237.52c5.63-4.61,7.78-14.44,3.69-17.81C216.33,226.26,213.26,231.38,212.14,237.52z"/>
	<path d="M261.69,249.81c1.54-3.38-0.61-19.45-2.76-23.14C257.49,234.66,261.28,241.62,261.69,249.81z"/>
	<path d="M272.03,250.63c-0.1-6.76-0.92-13.41-3.99-19.66C268.96,237.63,269.06,244.49,272.03,250.63z"/>
	<path d="M235.58,224.32c1.76,5.51,8.56,8.55,6.55,16.38c-0.21,0.82-0.31,1.74,0.92,1.84C246.74,235.68,242.85,230.66,235.58,224.32
		z"/>
	<path d="M226.57,240.08c3.79-4.38-1.02-4.58-1.02-16.89C222.36,225.84,227.39,235.82,226.57,240.08z"/>
	<path d="M251.96,224.93c-2.14,12.51-2.63,10.32-1.02,10.85C251.28,231.72,254.49,225.77,251.96,224.93z"/>
	<path d="M223.19,215.21c-0.82,3.79-0.31,4.2,5.63,3.48C227.29,216.54,224.53,217.15,223.19,215.21z"/>
	<path d="M248.99,221.86c-0.51-1.74-0.92-3.58-1.43-5.43C245.31,218.79,245.72,220.32,248.99,221.86z"/>
	<path d="M264.66,226.26c0.2-1.54,0.51-2.97,0.82-5.22C262.51,223.4,262.41,224.32,264.66,226.26z"/>
	<path d="M234.15,214.18c-0.31,2.46-0.2,3.99,1.74,5.02C235.58,216.23,235.58,216.23,234.15,214.18z"/>
	<path d="M215.93,211.83c-1.02,1.74-0.92,2.97,0.51,4.5C216.74,214.69,217.46,213.46,215.93,211.83z"/>
	<path d="M258.72,220.63c-1.64,1.02-1.84,2.15-0.61,4.2C258.72,223.19,259.95,222.27,258.72,220.63z"/>
	<path d="M220.02,216.02c0.31-1.02,0.92-1.95-0.31-2.97C218.48,214.18,218.69,215,220.02,216.02z"/>
	<path d="M195.35,492.15c-1.44-2.04-4.07-2.43-5.94-0.92c-2.33,1.88-1.95,3.58,2.05,8.4C196.17,496.45,197.08,494.61,195.35,492.15z
		 M191.25,492.45c1.75-1.09,4.35,1.28,2.25,3.58c-1.64-0.82-1.64-0.82-3.17-0.31C189.51,494.3,189.92,493.28,191.25,492.45z"/>
	<path d="M179.78,485.9c0.82-1.54,1.74-2.46,3.38-2.97c3.56-0.79,0.9-5.67-1.64-6.76c-1.84,1.54-4.2,2.76-5.43,5.12
		c1.13,1.33,2.05-0.72,3.07,0.2C179.78,482.73,178.66,484.06,179.78,485.9z M181.53,478.53c1.02,0.92,1.95,1.64,1.13,2.87
		C180.5,480.37,180.5,480.37,181.53,478.53z"/>
	<path d="M186.13,492.04c5.73,0,5-8.19-0.1-8.19C180.5,483.85,180.96,492.04,186.13,492.04z M186.13,485.7c3,0.25,2.89,4.3-0.2,4.5
		C183.47,490.2,183.06,486.41,186.13,485.7z"/>
<path fill="#e6e6e6" d="m206.8 163.6c0-5.1 4.1-9.2 9.3-9.2s9.2 4.2 9.2 9.2-4.1 9.2-9.3 9.2-9.2-4.1-9.2-9.2zm17.3-.1c0-4.5-3.5-8.2-8.2-8.2s-8.2 3.7-8.2 8.3c0 4.5 3.5 8.2 8.2 8.2s8.2-3.7 8.2-8.3zm-13 0c0-2.8 2.1-5.1 5.1-5.1 1.9 0 2.9.6 3.9 1.5l-1.4 1.7c-.8-.7-1.5-1.1-2.5-1.1-1.7 0-2.8 1.4-2.8 3.1s1.1 3 2.8 3c1.1 0 1.7-.5 2.5-1.1l1.4 1.4c-1.1 1.1-2.1 1.7-4 1.7-2.9 0-5-2.3-5-5.1z"/><path fill="#e6e6e6" d="m226.6 154.7h3.4l4.2 13.2 4.4-13.3h2.6l4.4 13.3 4.2-13.2h3.3l-6.2 18h-2.7l-4.4-12.8-4.4 12.8h-2.7z"/><path fill="#e6e6e6" d="m252.8 165.8c0-3.9 3.1-7 7.2-7 4.2 0 7.2 3.2 7.2 7s-3.1 7-7.3 7c-4 0-7.1-3.1-7.1-7zm11.3 0c0-2.3-1.7-4.3-4.2-4.3s-4.1 2-4.1 4.3 1.7 4.3 4.1 4.3c2.7.1 4.2-1.9 4.2-4.3z"/><path fill="#e6e6e6" d="m269.5 159.1h3.1v3c.8-2 2.4-3.4 4.8-3.3v3.2h-.2c-2.7 0-4.6 1.7-4.6 5.4v5.1h-3.1z"/><path fill="#e6e6e6" d="m279.1 153.9h3.1v11.1l5.6-6h3.8l-5.4 5.5 5.5 8h-3.5l-4.1-5.8-1.9 2v3.9h-3.1z"/><path fill="#e6e6e6" d="m291.7 165.8c0-3.9 3.1-7 7.2-7 4.2 0 7.2 3.2 7.2 7s-3.1 7-7.3 7c-4 0-7.1-3.1-7.1-7zm11.3 0c0-2.3-1.7-4.3-4.2-4.3s-4.1 2-4.1 4.3 1.7 4.3 4.1 4.3c2.6.1 4.2-1.9 4.2-4.3z"/><path fill="#e6e6e6" d="m308.2 167.6v-8.6h3.1v7.6c0 2.1 1.1 3.3 2.9 3.3s3-1.3 3-3.3v-7.6h3.1v13.4h-3.1v-2.1c-.8 1.3-2.1 2.3-4.2 2.3-3.1.2-4.8-1.8-4.8-5z"/><path fill="#e6e6e6" d="m323.9 168.8v-7.1h-1.7v-2.6h1.7v-3.7h3.1v3.7h3.6v2.6h-3.6v6.6c0 1.2.6 1.7 1.7 1.7.7 0 1.3-.2 1.9-.5v2.5c-.8.5-1.7.7-2.8.7-2.3 0-3.9-.9-3.9-3.9z"/><path fill="#e6e6e6" d="m333.2 154.7h3.2v15h9.4v2.9h-12.5v-17.9z"/><path fill="#e6e6e6" d="m356 172.5v-1.7c-.9 1.1-2.3 2-4.4 2-2.6 0-4.8-1.4-4.8-4.2 0-3 2.3-4.4 5.4-4.4 1.7 0 2.6.2 3.7.5v-.2c0-1.9-1.2-2.9-3.3-2.9-1.5 0-2.6.3-3.9.8l-.8-2.5c1.5-.7 2.9-1.1 5.1-1.1 4 0 5.9 2.1 5.9 5.7v8zm.1-5.6c-.8-.3-1.9-.5-3.1-.5-2 0-3.1.8-3.1 2.1s1.1 2 2.6 2c2 0 3.5-1.1 3.5-2.9z"/><path fill="#e6e6e6" d="m364.9 170.5v2.1h-3.1v-18.7h3.1v7.4c1-1.4 2.4-2.5 4.5-2.5 3.2 0 6.3 2.5 6.3 7s-3.1 7-6.3 7c-2.1 0-3.5-1.1-4.5-2.3zm7.7-4.7c0-2.6-1.7-4.3-3.9-4.3s-3.9 1.7-3.9 4.4c0 2.6 1.8 4.3 3.9 4.3s3.9-1.7 3.9-4.4z"/><path fill="#e6e6e6" d="m376.9 170.8 1.4-2.1c1.4 1.1 3 1.7 4.4 1.7s2.1-.5 2.1-1.5-1.3-1.4-2.8-1.8c-.1 0-.2-.1-.2-.1-2-.6-4.2-1.4-4.2-4s2.1-4.1 4.8-4.1c1.7 0 3.5.6 5 1.5l-1.2 2.2c-1.3-.8-2.6-1.3-3.8-1.3s-1.9.5-1.9 1.4 1.3 1.4 2.8 1.8c.1 0 .2.1.2.1 2 .6 4.2 1.5 4.2 4 0 2.9-2.2 4.2-5 4.2-1.9 0-4-.7-5.8-2z"/><path fill="#e6e6e6" d="m505.6 163.6c0-5.1 4.1-9.2 9.3-9.2s9.2 4.2 9.2 9.2-4.1 9.2-9.3 9.2-9.2-4.1-9.2-9.2zm17.4-.1c0-4.5-3.5-8.2-8.2-8.2s-8.2 3.7-8.2 8.3c0 4.5 3.5 8.2 8.2 8.2s8.2-3.7 8.2-8.3zm-13.1 0c0-2.8 2.1-5.1 5.1-5.1 1.9 0 2.9.6 3.9 1.5l-1.4 1.7c-.8-.7-1.5-1.1-2.5-1.1-1.7 0-2.8 1.4-2.8 3.1s1.1 3 2.8 3c1.1 0 1.7-.5 2.5-1.1l1.4 1.4c-1.1 1.1-2.1 1.7-4 1.7-2.9 0-5-2.3-5-5.1z"/><path fill="#e6e6e6" d="m525.4 154.7h3.4l4.2 13.2 4.4-13.3h2.6l4.4 13.3 4.2-13.2h3.3l-6.2 18h-2.7l-4.4-12.8-4.4 12.8h-2.7z"/><path fill="#e6e6e6" d="m551.7 165.8c0-3.9 3.1-7 7.2-7 4.2 0 7.2 3.2 7.2 7s-3.1 7-7.3 7c-4.1 0-7.1-3.1-7.1-7zm11.2 0c0-2.3-1.7-4.3-4.2-4.3s-4.1 2-4.1 4.3 1.7 4.3 4.1 4.3c2.7.1 4.2-1.9 4.2-4.3z"/><path fill="#e6e6e6" d="m568.3 159.1h3.1v3c.8-2 2.4-3.4 4.8-3.3v3.2h-.2c-2.7 0-4.6 1.7-4.6 5.4v5.1h-3.1z"/><path fill="#e6e6e6" d="m577.9 153.9h3.1v11.1l5.6-6h3.8l-5.4 5.5 5.5 8h-3.5l-4.1-5.8-1.9 2v3.9h-3.1z"/><path fill="#e6e6e6" d="m590.6 165.8c0-3.9 3.1-7 7.2-7 4.2 0 7.2 3.2 7.2 7s-3.1 7-7.3 7c-4.1 0-7.1-3.1-7.1-7zm11.2 0c0-2.3-1.7-4.3-4.2-4.3s-4.1 2-4.1 4.3 1.7 4.3 4.1 4.3c2.6.1 4.2-1.9 4.2-4.3z"/><path fill="#e6e6e6" d="m607 167.6v-8.6h3.1v7.6c0 2.1 1.1 3.3 2.9 3.3s3-1.3 3-3.3v-7.6h3.1v13.4h-3.1v-2.1c-.8 1.3-2.1 2.3-4.2 2.3-3 .2-4.8-1.8-4.8-5z"/><path fill="#e6e6e6" d="m622.7 168.8v-7.1h-1.7v-2.6h1.7v-3.7h3.1v3.7h3.6v2.6h-3.6v6.6c0 1.2.6 1.7 1.7 1.7.7 0 1.3-.2 1.9-.5v2.5c-.8.5-1.7.7-2.8.7-2.3 0-3.9-.9-3.9-3.9z"/><path fill="#e6e6e6" d="m632 154.7h3.2v15h9.4v2.9h-12.6z"/><path fill="#e6e6e6" d="m654.8 172.5v-1.7c-.9 1.1-2.3 2-4.4 2-2.6 0-4.8-1.4-4.8-4.2 0-3 2.3-4.4 5.4-4.4 1.7 0 2.6.2 3.7.5v-.2c0-1.9-1.2-2.9-3.3-2.9-1.5 0-2.6.3-3.9.8l-.8-2.5c1.5-.7 2.9-1.1 5.1-1.1 4 0 5.9 2.1 5.9 5.7v8zm.1-5.6c-.8-.3-1.9-.5-3.1-.5-2 0-3.1.8-3.1 2.1s1.1 2 2.6 2c2 0 3.5-1.1 3.5-2.9z"/><path fill="#e6e6e6" d="m663.7 170.5v2.1h-3.1v-18.7h3.1v7.4c1-1.4 2.4-2.5 4.5-2.5 3.2 0 6.3 2.5 6.3 7s-3.1 7-6.3 7c-2.1 0-3.5-1.1-4.5-2.3zm7.8-4.7c0-2.6-1.7-4.3-3.9-4.3-2.1 0-3.9 1.7-3.9 4.4 0 2.6 1.8 4.3 3.9 4.3s3.9-1.7 3.9-4.4z"/><path fill="#e6e6e6" d="m675.8 170.8 1.4-2.1c1.4 1.1 3 1.7 4.4 1.7s2.1-.5 2.1-1.5-1.3-1.4-2.8-1.8c-.1 0-.2-.1-.2-.1-2-.6-4.2-1.4-4.2-4s2.1-4.1 4.8-4.1c1.7 0 3.5.6 5 1.5l-1.2 2.2c-1.3-.8-2.6-1.3-3.8-1.3s-1.9.5-1.9 1.4 1.3 1.4 2.8 1.8c.1 0 .2.1.2.1 2 .6 4.2 1.5 4.2 4 0 2.9-2.2 4.2-5 4.2-2 0-4.1-.7-5.8-2z"/><path fill="#e6e6e6" d="m61 298.6c0-5.1 4.1-9.2 9.3-9.2s9.2 4.2 9.2 9.2-4.1 9.2-9.3 9.2c-5.1 0-9.2-4.2-9.2-9.2zm17.4-.1c0-4.5-3.5-8.2-8.2-8.2s-8.2 3.7-8.2 8.3c0 4.5 3.5 8.2 8.2 8.2s8.2-3.7 8.2-8.3zm-13.1-.1c0-2.8 2.1-5.1 5.1-5.1 1.9 0 2.9.6 3.9 1.5l-1.4 1.7c-.8-.7-1.5-1.1-2.5-1.1-1.7 0-2.8 1.4-2.8 3.1s1.1 3 2.8 3c1.1 0 1.7-.5 2.5-1.1l1.4 1.4c-1.1 1.1-2.1 1.7-4 1.7-2.8.1-5-2.2-5-5.1z"/><path fill="#e6e6e6" d="m80.9 289.7h3.4l4.2 13.2 4.4-13.3h2.6l4.4 13.3 4.2-13.2h3.3l-6.2 18h-2.7l-4.4-12.8-4.4 12.8h-2.7z"/><path fill="#e6e6e6" d="m107.1 300.8c0-3.9 3.1-7 7.2-7s7.2 3.2 7.2 7-3.1 7-7.3 7c-4 0-7.1-3.1-7.1-7zm11.3 0c0-2.3-1.7-4.3-4.2-4.3s-4.1 2-4.1 4.3 1.7 4.3 4.1 4.3c2.6.1 4.2-1.9 4.2-4.3z"/><path fill="#e6e6e6" d="m123.7 294h3.1v3c.8-2 2.4-3.4 4.8-3.3v3.2h-.2c-2.7 0-4.6 1.7-4.6 5.4v5.1h-3.1z"/><path fill="#e6e6e6" d="m133.4 288.9h3.1v11.1l5.6-6h3.8l-5.4 5.5 5.5 8h-3.5l-4.1-5.8-1.9 1.9v3.9h-3.1z"/><path fill="#e6e6e6" d="m146 300.8c0-3.9 3.1-7 7.2-7s7.2 3.2 7.2 7-3.1 7-7.3 7c-4.1 0-7.1-3.1-7.1-7zm11.2 0c0-2.3-1.7-4.3-4.2-4.3s-4.1 2-4.1 4.3 1.7 4.3 4.1 4.3c2.6.1 4.2-1.9 4.2-4.3z"/><path fill="#e6e6e6" d="m162.4 302.6v-8.6h3.1v7.6c0 2.1 1.1 3.3 2.9 3.3s3-1.3 3-3.3v-7.6h3.1v13.4h-3.1v-2.1c-.8 1.3-2.1 2.3-4.2 2.3-3 .2-4.8-1.8-4.8-5z"/><path fill="#e6e6e6" d="m178.1 303.8v-7.1h-1.7v-2.7h1.7v-3.7h3.1v3.7h3.6v2.6h-3.6v6.6c0 1.2.6 1.7 1.7 1.7.7 0 1.3-.2 1.9-.5v2.5c-.8.5-1.7.7-2.8.7-2.3.1-3.9-.9-3.9-3.8z"/><path fill="#e6e6e6" d="m187.4 289.7h3.2v15h9.4v2.9h-12.5v-17.9z"/><path fill="#e6e6e6" d="m210.2 307.5v-1.7c-.9 1.1-2.3 2-4.4 2-2.6 0-4.8-1.4-4.8-4.2 0-3 2.3-4.4 5.4-4.4 1.7 0 2.6.2 3.7.5v-.2c0-1.9-1.2-2.9-3.3-2.9-1.5 0-2.6.3-3.9.8l-.8-2.5c1.5-.7 2.9-1.1 5.1-1.1 4 0 5.9 2.1 5.9 5.7v8zm.1-5.6c-.8-.3-1.9-.5-3.1-.5-2 0-3.1.8-3.1 2.1s1.1 2 2.6 2c2 0 3.5-1.1 3.5-2.9z"/><path fill="#e6e6e6" d="m219.2 305.5v2.1h-3.1v-18.7h3.1v7.4c1-1.4 2.4-2.5 4.5-2.5 3.2 0 6.3 2.5 6.3 7s-3.1 7-6.3 7c-2.2 0-3.6-1.1-4.5-2.3zm7.7-4.7c0-2.6-1.7-4.3-3.9-4.3s-3.9 1.7-3.9 4.4c0 2.6 1.8 4.3 3.9 4.3s3.9-1.7 3.9-4.4z"/><path fill="#e6e6e6" d="m231.2 305.8 1.4-2.1c1.4 1.1 3 1.7 4.4 1.7s2.1-.5 2.1-1.5-1.3-1.4-2.8-1.8c-.1 0-.2-.1-.2-.1-2-.6-4.2-1.4-4.2-4s2.1-4.1 4.8-4.1c1.7 0 3.5.6 5 1.5l-1.2 2.2c-1.3-.8-2.6-1.3-3.8-1.3s-1.9.5-1.9 1.4 1.3 1.4 2.8 1.8c.1 0 .2.1.2.1 2 .6 4.2 1.5 4.2 4 0 2.9-2.2 4.2-5 4.2-2 0-4.1-.7-5.8-2z"/><path fill="#e6e6e6" d="m360.6 298.6c0-5.1 4.1-9.2 9.3-9.2s9.2 4.2 9.2 9.2-4.1 9.2-9.3 9.2-9.2-4.2-9.2-9.2zm17.4-.1c0-4.5-3.5-8.2-8.2-8.2s-8.2 3.7-8.2 8.3c0 4.5 3.5 8.2 8.2 8.2s8.2-3.7 8.2-8.3zm-13.1-.1c0-2.8 2.1-5.1 5.1-5.1 1.9 0 2.9.6 3.9 1.5l-1.4 1.7c-.8-.7-1.5-1.1-2.5-1.1-1.7 0-2.8 1.4-2.8 3.1s1.1 3 2.8 3c1.1 0 1.7-.5 2.5-1.1l1.4 1.4c-1.1 1.1-2.1 1.7-4 1.7-2.8.1-5-2.2-5-5.1z"/><path fill="#e6e6e6" d="m380.5 289.7h3.4l4.2 13.2 4.4-13.3h2.6l4.4 13.3 4.2-13.2h3.3l-6.2 18h-2.7l-4.4-12.8-4.4 12.8h-2.7z"/><path fill="#e6e6e6" d="m406.7 300.8c0-3.9 3.1-7 7.2-7 4.2 0 7.2 3.2 7.2 7s-3.1 7-7.3 7c-4.1 0-7.1-3.1-7.1-7zm11.3 0c0-2.3-1.7-4.3-4.2-4.3s-4.1 2-4.1 4.3 1.7 4.3 4.1 4.3c2.7.1 4.2-1.9 4.2-4.3z"/><path fill="#e6e6e6" d="m423.3 294h3.1v3c.8-2 2.4-3.4 4.8-3.3v3.2h-.2c-2.7 0-4.6 1.7-4.6 5.4v5.1h-3.1z"/><path fill="#e6e6e6" d="m433 288.9h3.1v11.1l5.6-6h3.8l-5.4 5.5 5.5 8h-3.5l-4.1-5.8-1.9 2v3.9h-3.1z"/><path fill="#e6e6e6" d="m445.6 300.8c0-3.9 3.1-7 7.2-7 4.2 0 7.2 3.2 7.2 7s-3.1 7-7.3 7c-4.1 0-7.1-3.1-7.1-7zm11.3 0c0-2.3-1.7-4.3-4.2-4.3s-4.1 2-4.1 4.3 1.7 4.3 4.1 4.3c2.6.1 4.2-1.9 4.2-4.3z"/><path fill="#e6e6e6" d="m462.1 302.6v-8.6h3.1v7.6c0 2.1 1.1 3.3 2.9 3.3s3-1.3 3-3.3v-7.6h3.1v13.4h-3.1v-2.1c-.8 1.3-2.1 2.3-4.2 2.3-3.1.2-4.8-1.8-4.8-5z"/><path fill="#e6e6e6" d="m477.8 303.8v-7.1h-1.8v-2.7h1.7v-3.7h3.1v3.7h3.6v2.6h-3.6v6.6c0 1.2.6 1.7 1.7 1.7.7 0 1.3-.2 1.9-.5v2.5c-.8.5-1.7.7-2.8.7-2.2.1-3.8-.9-3.8-3.8z"/><path fill="#e6e6e6" d="m487.1 289.7h3.2v15h9.4v2.9h-12.5v-17.9z"/><path fill="#e6e6e6" d="m509.9 307.5v-1.7c-.9 1.1-2.3 2-4.4 2-2.6 0-4.8-1.4-4.8-4.2 0-3 2.3-4.4 5.4-4.4 1.7 0 2.6.2 3.7.5v-.2c0-1.9-1.2-2.9-3.3-2.9-1.5 0-2.6.3-3.9.8l-.8-2.5c1.5-.7 2.9-1.1 5.1-1.1 4 0 5.9 2.1 5.9 5.7v8zm.1-5.6c-.8-.3-1.9-.5-3.1-.5-2 0-3.1.8-3.1 2.1s1.1 2 2.6 2c2 0 3.5-1.1 3.5-2.9z"/><path fill="#e6e6e6" d="m518.8 305.5v2.1h-3.1v-18.7h3.1v7.4c1-1.4 2.4-2.5 4.5-2.5 3.2 0 6.3 2.5 6.3 7s-3.1 7-6.3 7c-2.2 0-3.5-1.1-4.5-2.3zm7.7-4.7c0-2.6-1.7-4.3-3.9-4.3s-3.9 1.7-3.9 4.4c0 2.6 1.8 4.3 3.9 4.3s3.9-1.7 3.9-4.4z"/><path fill="#e6e6e6" d="m530.8 305.8 1.4-2.1c1.4 1.1 3 1.7 4.4 1.7s2.1-.5 2.1-1.5-1.3-1.4-2.8-1.8c-.1 0-.2-.1-.2-.1-2-.6-4.2-1.4-4.2-4s2.1-4.1 4.8-4.1c1.7 0 3.5.6 5 1.5l-1.2 2.2c-1.3-.8-2.6-1.3-3.8-1.3s-1.9.5-1.9 1.4 1.3 1.4 2.8 1.8c.1 0 .2.1.2.1 2 .6 4.2 1.5 4.2 4 0 2.9-2.2 4.2-5 4.2-1.9 0-4.1-.7-5.8-2z"/><path fill="#e6e6e6" d="m659.5 298.6c0-5.1 4.1-9.2 9.3-9.2s9.2 4.2 9.2 9.2-4.1 9.2-9.3 9.2-9.2-4.2-9.2-9.2zm17.3-.1c0-4.5-3.5-8.2-8.2-8.2s-8.2 3.7-8.2 8.3c0 4.5 3.5 8.2 8.2 8.2 4.8 0 8.2-3.7 8.2-8.3zm-13-.1c0-2.8 2.1-5.1 5.1-5.1 1.9 0 2.9.6 3.9 1.5l-1.4 1.7c-.8-.7-1.5-1.1-2.5-1.1-1.7 0-2.8 1.4-2.8 3.1s1.1 3 2.8 3c1.1 0 1.7-.5 2.5-1.1l1.4 1.4c-1.1 1.1-2.1 1.7-4 1.7-2.9.1-5-2.2-5-5.1z"/><path fill="#e6e6e6" d="m679.3 289.7h3.4l4.2 13.2 4.4-13.3h2.6l4.4 13.3 4.2-13.2h3.3l-6.2 18h-2.6l-4.4-12.8-4.4 12.8h-2.7z"/><path fill="#e6e6e6" d="m705.5 300.8c0-3.9 3.1-7 7.2-7 4.2 0 7.2 3.2 7.2 7s-3.1 7-7.3 7c-4 0-7.1-3.1-7.1-7zm11.3 0c0-2.3-1.7-4.3-4.2-4.3s-4.1 2-4.1 4.3 1.7 4.3 4.1 4.3c2.7.1 4.2-1.9 4.2-4.3z"/><path fill="#e6e6e6" d="m722.1 294h3.1v3c.8-2 2.4-3.4 4.8-3.3v3.2h-.2c-2.7 0-4.6 1.7-4.6 5.4v5.1h-3.1z"/><path fill="#e6e6e6" d="m731.8 288.9h3.1v11.1l5.6-6h3.8l-5.4 5.5 5.5 8h-3.5l-4.1-5.8-1.9 2v3.9h-3.1z"/><path fill="#e6e6e6" d="m744.4 300.8c0-3.9 3.1-7 7.2-7 4.2 0 7.2 3.2 7.2 7s-3.1 7-7.3 7c-4.1 0-7.1-3.1-7.1-7zm11.3 0c0-2.3-1.7-4.3-4.2-4.3s-4.1 2-4.1 4.3 1.7 4.3 4.1 4.3c2.6.1 4.2-1.9 4.2-4.3z"/><path fill="#e6e6e6" d="m760.9 302.6v-8.6h3.1v7.6c0 2.1 1.1 3.3 2.9 3.3s3-1.3 3-3.3v-7.6h3.1v13.4h-3.1v-2.1c-.8 1.3-2.1 2.3-4.2 2.3-3.1.2-4.8-1.8-4.8-5z"/><path fill="#e6e6e6" d="m776.6 303.8v-7.1h-1.7v-2.7h1.7v-3.7h3.1v3.7h3.6v2.6h-3.6v6.6c0 1.2.6 1.7 1.7 1.7.7 0 1.3-.2 1.9-.5v2.5c-.8.5-1.7.7-2.8.7-2.3.1-3.9-.9-3.9-3.8z"/><path fill="#e6e6e6" d="m785.9 289.7h3.2v15h9.4v2.9h-12.5v-17.9z"/><path fill="#e6e6e6" d="m808.7 307.5v-1.7c-.9 1.1-2.3 2-4.4 2-2.6 0-4.8-1.4-4.8-4.2 0-3 2.3-4.4 5.4-4.4 1.7 0 2.6.2 3.7.5v-.2c0-1.9-1.2-2.9-3.3-2.9-1.5 0-2.6.3-3.9.8l-.8-2.5c1.5-.7 2.9-1.1 5.1-1.1 4 0 5.9 2.1 5.9 5.7v8zm.1-5.6c-.8-.3-1.9-.5-3.1-.5-2 0-3.1.8-3.1 2.1s1.1 2 2.6 2c2 0 3.5-1.1 3.5-2.9z"/><path fill="#e6e6e6" d="m817.6 305.5v2.1h-3.1v-18.7h3.1v7.4c1-1.4 2.4-2.5 4.5-2.5 3.2 0 6.3 2.5 6.3 7s-3.1 7-6.3 7c-2.1 0-3.5-1.1-4.5-2.3zm7.7-4.7c0-2.6-1.7-4.3-3.9-4.3-2.1 0-3.9 1.7-3.9 4.4 0 2.6 1.8 4.3 3.9 4.3 2.2 0 3.9-1.7 3.9-4.4z"/><path fill="#e6e6e6" d="m829.6 305.8 1.4-2.1c1.4 1.1 3 1.7 4.4 1.7s2.1-.5 2.1-1.5-1.3-1.4-2.8-1.8c-.1 0-.2-.1-.2-.1-2-.6-4.2-1.4-4.2-4s2.1-4.1 4.8-4.1c1.7 0 3.5.6 5 1.5l-1.2 2.2c-1.3-.8-2.6-1.3-3.8-1.3s-1.9.5-1.9 1.4 1.3 1.4 2.8 1.8c.1 0 .2.1.2.1 2 .6 4.2 1.5 4.2 4 0 2.9-2.2 4.2-5 4.2-1.9 0-4-.7-5.8-2z"/><path fill="#e6e6e6" d="m206.3 434.2c0-5.1 4.1-9.2 9.3-9.2s9.2 4.2 9.2 9.2-4.1 9.2-9.3 9.2-9.2-4.1-9.2-9.2zm17.4-.1c0-4.5-3.5-8.2-8.2-8.2s-8.2 3.7-8.2 8.3c0 4.5 3.5 8.2 8.2 8.2s8.2-3.7 8.2-8.3zm-13.1-.1c0-2.8 2.1-5.1 5.1-5.1 1.9 0 2.9.6 3.9 1.5l-1.4 1.7c-.8-.7-1.5-1.1-2.5-1.1-1.7 0-2.8 1.4-2.8 3.1s1.1 3 2.8 3c1.1 0 1.7-.5 2.5-1.1l1.4 1.4c-1.1 1.1-2.1 1.7-4 1.7-2.9.1-5-2.2-5-5.1z"/><path fill="#e6e6e6" d="m226.1 425.3h3.4l4.2 13.2 4.4-13.3h2.6l4.4 13.3 4.2-13.2h3.3l-6.2 18h-2.7l-4.4-12.8-4.4 12.8h-2.7z"/><path fill="#e6e6e6" d="m252.4 436.4c0-3.9 3.1-7 7.2-7 4.2 0 7.2 3.2 7.2 7s-3.1 7-7.3 7c-4.1 0-7.1-3.1-7.1-7zm11.2 0c0-2.3-1.7-4.3-4.2-4.3s-4.1 2-4.1 4.3 1.7 4.3 4.1 4.3c2.7.1 4.2-1.9 4.2-4.3z"/><path fill="#e6e6e6" d="m269 429.7h3.1v3c.8-2 2.4-3.4 4.8-3.3v3.2h-.2c-2.7 0-4.6 1.7-4.6 5.4v5.1h-3.1z"/><path fill="#e6e6e6" d="m278.6 424.5h3.1v11.1l5.6-6h3.8l-5.4 5.5 5.5 8h-3.5l-4.1-5.8-1.9 2v3.9h-3.1z"/><path fill="#e6e6e6" d="m291.3 436.4c0-3.9 3.1-7 7.2-7 4.2 0 7.2 3.2 7.2 7s-3.1 7-7.3 7c-4.1 0-7.1-3.1-7.1-7zm11.2 0c0-2.3-1.7-4.3-4.2-4.3s-4.1 2-4.1 4.3 1.7 4.3 4.1 4.3c2.6.1 4.2-1.9 4.2-4.3z"/><path fill="#e6e6e6" d="m307.7 438.2v-8.6h3.1v7.6c0 2.1 1.1 3.3 2.9 3.3s3-1.3 3-3.3v-7.6h3.1v13.4h-3.1v-2.1c-.8 1.3-2.1 2.3-4.2 2.3-3 .2-4.8-1.8-4.8-5z"/><path fill="#e6e6e6" d="m323.4 439.4v-7.1h-1.7v-2.6h1.7v-3.7h3.1v3.7h3.6v2.6h-3.6v6.6c0 1.2.6 1.7 1.7 1.7.7 0 1.3-.2 1.9-.5v2.5c-.8.5-1.7.7-2.8.7-2.3 0-3.9-.9-3.9-3.9z"/><path fill="#e6e6e6" d="m332.7 425.3h3.2v15h9.4v2.9h-12.5v-17.9z"/><path fill="#e6e6e6" d="m355.5 443.1v-1.7c-.9 1.1-2.3 2-4.4 2-2.6 0-4.8-1.4-4.8-4.2 0-3 2.3-4.4 5.4-4.4 1.7 0 2.6.2 3.7.5v-.2c0-1.9-1.2-2.9-3.3-2.9-1.5 0-2.6.3-3.9.8l-.8-2.5c1.5-.7 2.9-1.1 5.1-1.1 4 0 5.9 2.1 5.9 5.7v8zm.1-5.6c-.8-.3-1.9-.5-3.1-.5-2 0-3.1.8-3.1 2.1s1.1 2 2.6 2c2 0 3.5-1.1 3.5-2.9z"/><path fill="#e6e6e6" d="m364.4 441.1v2.1h-3.1v-18.7h3.1v7.4c1-1.4 2.4-2.5 4.5-2.5 3.2 0 6.3 2.5 6.3 7s-3.1 7-6.3 7c-2.1 0-3.5-1.1-4.5-2.3zm7.7-4.7c0-2.6-1.7-4.3-3.9-4.3-2.1 0-3.9 1.7-3.9 4.4 0 2.6 1.8 4.3 3.9 4.3 2.2 0 3.9-1.7 3.9-4.4z"/><path fill="#e6e6e6" d="m376.5 441.4 1.4-2.1c1.4 1.1 3 1.7 4.4 1.7s2.1-.5 2.1-1.5-1.3-1.4-2.8-1.8c-.1 0-.2-.1-.2-.1-2-.6-4.2-1.4-4.2-4s2.1-4.1 4.8-4.1c1.7 0 3.5.6 5 1.5l-1.2 2.2c-1.3-.8-2.6-1.3-3.8-1.3s-1.9.5-1.9 1.4 1.3 1.4 2.8 1.8c.1 0 .2.1.2.1 2 .6 4.2 1.5 4.2 4 0 2.9-2.2 4.2-5 4.2-2 0-4.1-.7-5.8-2z"/><path fill="#e6e6e6" d="m505.1 434.2c0-5.1 4.1-9.2 9.3-9.2s9.2 4.2 9.2 9.2-4.1 9.2-9.3 9.2-9.2-4.1-9.2-9.2zm17.4-.1c0-4.5-3.5-8.2-8.2-8.2s-8.2 3.7-8.2 8.3c0 4.5 3.5 8.2 8.2 8.2s8.2-3.7 8.2-8.3zm-13.1-.1c0-2.8 2.1-5.1 5.1-5.1 1.9 0 2.9.6 3.9 1.5l-1.4 1.7c-.8-.7-1.5-1.1-2.5-1.1-1.7 0-2.8 1.4-2.8 3.1s1.1 3 2.8 3c1.1 0 1.7-.5 2.5-1.1l1.4 1.4c-1.1 1.1-2.1 1.7-4 1.7-2.9.1-5-2.2-5-5.1z"/><path fill="#e6e6e6" d="m525 425.3h3.4l4.2 13.2 4.4-13.3h2.6l4.4 13.3 4.2-13.2h3.3l-6.2 18h-2.7l-4.4-12.8-4.4 12.8h-2.7z"/><path fill="#e6e6e6" d="m551.2 436.4c0-3.9 3.1-7 7.2-7 4.2 0 7.2 3.2 7.2 7s-3.1 7-7.3 7c-4.1 0-7.1-3.1-7.1-7zm11.2 0c0-2.3-1.7-4.3-4.2-4.3s-4.1 2-4.1 4.3 1.7 4.3 4.1 4.3c2.7.1 4.2-1.9 4.2-4.3z"/><path fill="#e6e6e6" d="m567.8 429.7h3.1v3c.8-2 2.4-3.4 4.8-3.3v3.2h-.2c-2.7 0-4.6 1.7-4.6 5.4v5.1h-3.1z"/><path fill="#e6e6e6" d="m577.5 424.5h3.1v11.1l5.6-6h3.8l-5.4 5.5 5.5 8h-3.5l-4.1-5.8-1.9 2v3.9h-3.1z"/><path fill="#e6e6e6" d="m590.1 436.4c0-3.9 3.1-7 7.2-7 4.2 0 7.2 3.2 7.2 7s-3.1 7-7.3 7c-4.1 0-7.1-3.1-7.1-7zm11.2 0c0-2.3-1.7-4.3-4.2-4.3s-4.1 2-4.1 4.3 1.7 4.3 4.1 4.3c2.6.1 4.2-1.9 4.2-4.3z"/><path fill="#e6e6e6" d="m606.5 438.2v-8.6h3.1v7.6c0 2.1 1.1 3.3 2.9 3.3s3-1.3 3-3.3v-7.6h3.1v13.4h-3.1v-2.1c-.8 1.3-2.1 2.3-4.2 2.3-3 .2-4.8-1.8-4.8-5z"/><path fill="#e6e6e6" d="m622.2 439.4v-7.1h-1.7v-2.6h1.7v-3.7h3.1v3.7h3.6v2.6h-3.6v6.6c0 1.2.6 1.7 1.7 1.7.7 0 1.3-.2 1.9-.5v2.5c-.8.5-1.7.7-2.8.7-2.3 0-3.9-.9-3.9-3.9z"/><path fill="#e6e6e6" d="m631.5 425.3h3.2v15h9.4v2.9h-12.5v-17.9z"/><path fill="#e6e6e6" d="m654.3 443.1v-1.7c-.9 1.1-2.3 2-4.4 2-2.6 0-4.8-1.4-4.8-4.2 0-3 2.3-4.4 5.4-4.4 1.7 0 2.6.2 3.7.5v-.2c0-1.9-1.2-2.9-3.3-2.9-1.5 0-2.6.3-3.9.8l-.8-2.5c1.5-.7 2.9-1.1 5.1-1.1 4 0 5.9 2.1 5.9 5.7v8zm.1-5.6c-.8-.3-1.9-.5-3.1-.5-2 0-3.1.8-3.1 2.1s1.1 2 2.6 2c2 0 3.5-1.1 3.5-2.9z"/><path fill="#e6e6e6" d="m663.3 441.1v2.1h-3.1v-18.7h3.1v7.4c1-1.4 2.4-2.5 4.5-2.5 3.2 0 6.3 2.5 6.3 7s-3.1 7-6.3 7c-2.2 0-3.6-1.1-4.5-2.3zm7.7-4.7c0-2.6-1.7-4.3-3.9-4.3s-3.9 1.7-3.9 4.4c0 2.6 1.8 4.3 3.9 4.3s3.9-1.7 3.9-4.4z"/><path fill="#e6e6e6" d="m675.3 441.4 1.4-2.1c1.4 1.1 3 1.7 4.4 1.7s2.1-.5 2.1-1.5-1.3-1.4-2.8-1.8c-.1 0-.2-.1-.2-.1-2-.6-4.2-1.4-4.2-4s2.1-4.1 4.8-4.1c1.7 0 3.5.6 5 1.5l-1.2 2.2c-1.3-.8-2.6-1.3-3.8-1.3s-1.9.5-1.9 1.4 1.3 1.4 2.8 1.8c.1 0 .2.1.2.1 2 .6 4.2 1.5 4.2 4 0 2.9-2.2 4.2-5 4.2-2 0-4.1-.7-5.8-2z"/></g>
</svg>
