<?xml version="1.0" encoding="utf-8"?>
<!-- Generator: Adobe Illustrator 23.0.1, SVG Export Plug-In . SVG Version: 6.00 Build 0)  -->
<svg version="1.2" baseProfile="tiny" id="Layer_1" xmlns="http://www.w3.org/2000/svg" xmlns:xlink="http://www.w3.org/1999/xlink"
	 x="0px" y="0px" viewBox="0 0 900 600" xml:space="preserve">
<g>
	<path d="M839.13,419.69C839.08,419.73,839.07,419.74,839.13,419.69L839.13,419.69z"/>
	<path d="M837.46,425.58c3.27-4.58,5.36-6.66,5.36-9.27c-4.19-2.96-7.21-5.72-7.21-3.3c4.95,3.79,7.04,3.8,3.81,6.4
		c0.08-0.89-0.02-1.69-0.72-2.17c-1.83-1.27-3.61-3.09-6.28-2.27c-0.67,0.11-5.88-1.51-7.52-1.85c-15.68-3.31-27.81,1.6-32.96-2.27
		c0.66-3.93-0.55-1.24,10.3-1.24c31.67,0,25.19,2.58,32.45,1.85c-3.21-1.6,1.2-0.39-15.97-3.61c-1.37-2.9-3.58-6.23-3.5-11.64
		c0.09-6.27-5.46-24.97-8.65-26.88c-1.95-0.87-3.62-6.63-3.81-8.76c-0.41-4.59-4.55-6.74-8.55-9.48c-0.52-1.57,0.3-4.71-1.96-10.2
		c-4.27-10.38-4.24-6.52-5.87-9.68c-1.85-3.59-3.46-5.7-3.71-8.55c-0.65-7.57,0.61-13.52-1.44-18.85c-1-2.6-1.32-7.86-2.88-9.68
		c-5.77-6.72-7.86-10.03-13.08-11.02c-14.01-2.66-10.01-1.97-13.39-4.64c-6.76-5.34,0,0.75,1.24-6.8
		c2.24-13.65-1.12-7.31,3.09-10.71c5.65-4.57,1.83-2.61,3.91-8.34c0.64-1.74,0.41-3.71,1.85-5.25c2.06,0,3.81,0.1,4.53,2.47
		c0,0.46,1.18,0.59,1.55,0.41c0.31-0.1,0.62-0.72,0.52-0.82c-0.91-1.21-0.05-2.71-0.59-3.92c0.89-0.09,1.76-0.1,2.65-0.2
		c0-1.13-1.55-1.96-0.52-3.19c-2.9-2.54-2.6-1.93-1.13-3.4c1.55,0,2.88,0.72,4.53,0.1c-2.88-2.88-9.71-0.26-7.83-4.02l-0.1,0.1
		c-0.62-1.03-2.47-1.24-2.27-2.78c23.44,9.65,2.41,0.35-0.1-4.02c1.44-0.52,2.99,0.93,4.33-0.21c-0.32-1.59-3.41-0.39-0.62-2.06
		c-1.96-1.75-4.64-1.13-6.59-2.68c-0.62-2.78-2.38-4.94-4.64-6.7c-11.16-8.7-11.26-5.06-14.52-6.7c0-1.37,0.97-1.03-5.77-1.03
		c-2.78-3.19-2.78-3.19-4.64-3.4c-0.41,0.93,1.03,2.37-1.03,2.88c-1.11-2.78-0.84-2.36-1.13-3.09c-3.02,0-2.49,0.35-1.65-1.34
		c0.81-1.63-1.1-2.75-2.27-2.16c-1.96,0.98-1.88,2.37-2.37,3.5c-3.3-2.37-3.3-2.37-4.74-2.16c2.81,3.09,4.57,3.59-0.52,5.05
		c-9.22,9.93-4.42,7.92-6.49,12.05c-5.05,8.84-7.08,10.04-8.96,32.24c-0.18,2.08-1.24,1.17-1.24,3.09
		c0.34,4.81-5.42,13.22-8.45,17.61c-3.12,5.47-16.69,6.9-28.02,18.23c-7.21-3.6-200.35-194.94-206.32-199.83
		c-0.9-0.45-0.79,0.06-2.37,2.16c17.97,17.97,187.61,183.6,206.63,200.24c-1.24,3.72,0.26,4.1-2.99,6.59
		c-12.05,9.25-14.12,22.5-9.48,32.45c2.21,4.73-1.62,10.29,2.47,16.69c3.29,9.87,7.25,11.53,8.76,16.79
		c0.67,2.34,1.8,13.8-1.55,19.88c1.4-0.47-0.15,1.33,2.68-1.85c0,2.64-0.67,2.24,1.44,3.3c2.2-2.2,2.53-0.93,2.78-2.06
		c-1.34-0.62-2.88-1.03-3.91-2.68c1.46-18.2,1.37-13.6-7.52-29.87c-6.83-12.5-0.33-13.39-3.91-22.35
		c-1.67-4.18-3.26-11.22-1.13-15.35c1.62-3.15,2.62-7.14,5.36-8.34c0.24-0.11,6.23-6.87,7.93-10.61c2.37,1.44,9.06,7.62,15.76,14.63
		c-0.41,0.31-0.93,0.52-1.34,0.82c0.77,1.55,2.04-0.3,3.4,1.03c16.79,16.45,16.72,15.3,17.1,17.82c1.19,7.81,1.17,6.02,3.19,6.7
		c1.12,0.45,0.41,0.96,7.31,4.12c6.77,3.09,6.69,4.11,19.06,15.97c2.77,2.66,2.29,3.48,4.84,10.4c0.41,0.82,0.21,1.55-0.31,2.37
		c2.37,1.55,4.95,2.36,7.52,2.99c7.14,1.75,7.49,3.54,22.25,17c3.07,2.8,1.58,6.08,5.97,6.08c3.75,0,4.49,2.33,13.18,12.36
		c0.21,0.31,0.62,0.82,0.62,1.13c-0.21,1.34,1.03,1.44,1.55,2.06c1.16,4.33,0.44,6.19,4.74,7.42c2.09,9.41,3.01,12.05,1.03,11.02
		c-6.65-3.45-4.1-2.44,0.52-1.96c-2.99-2.16-5.25-3.5-8.34-2.58c-5.2-6.07-0.4,0.41-9.58-5.46c-3.69-2.36-2.62-1.6-31.42-12.77
		c-2.32-0.9-0.6,0.62,0.31,1.03c4.22,1.91,9.58,4.33,11.64,5.36c-2.16,2.88-5.46,3.91-7.11,5.97c-2.23,7.24-5.79,8.02-7.42,23.69
		c-0.5,4.8-1.07,4.56-0.31,7.62c2.69,10.76,11.74,20.8-8.03,1.03c-18.3-18.3-18.12-5.54-27.6-9.06c-1.94-0.72-9.86,0.36-16.89,8.03
		c-8.84,9.64-3.06,22.43-13.8,22.66c-12.9,0.28-12.48-3.37-17.92-8.03c0.69-6.93,1.07-7.35-0.31-7.62
		c-0.21,0.72-0.82,1.44-0.72,2.16c0.57,7.64-3.31,18.14-3.81,21.53c-0.51,3.41,5.72,15.56,3.19,22.15
		c-12.44,32.4-5.45,21.63-9.17,53.87c-0.93,0.41-1.85,0.62-2.47,0c-6.17-7.05-2.84-5.85-6.08-11.74c-7.53-1.13-6.4-0.22-6.8-4.53
		c-1.8-19.64-15.1-53.73-8.03-70.76c0.73-1.75,0.82-3.71,2.47-4.94c0.28-0.28,1.89-6.32,0.93-8.55c-1.08-2.52,2.68-2.06,1.03-3.71
		c-1.26-1.26-0.8-2.18,0.31-8.14c1.81-9.77,0.84-10.09,1.24-14.94c0.39-4.77,13.49-10.04,18.13-11.23
		c12.33-3.16,35.23,15.92,32.14,35.85c-1.55,0.93-3.3,1.75-5.15,1.96c-4.31,0.48-7.51,3.6-12.36,4.74
		c-1.34,0.31-2.47,1.13-3.19,2.47c0.41,0,0.72,0.21,0.82,0.1c2.98-2.58,4.6-1.66,7.31-3.09c3.96-2.08,8.34-2.58,12.57-3.5
		c1.03,0.82,0.41,2.47,1.75,2.99c1.77-1.18-0.88-27.45-8.45-30.28c-0.77-0.29-2.37-2.77-2.88-3.5c-5.15-7.27-12.26-8.07-13.39-8.86
		c-6.71-4.69-22.46,6.08-23.69,5.25c6.43-12.4,6.58-6.45,6.79-14.26c-2.2,1.09-0.5,4.48-4.32,6.12c-9.92,4.25-6.25,19.48-8.14,26.47
		c-0.63,2.33-2.89,11.17-1.85,14.94c2.21,8.05-7.65,6.53-5.56,34.51c0.17,2.3,4.5,29.25,8.76,41.1c0.66,1.84,0.52,1.74,0.52,13.6
		c-0.62,1.65-2.92,2.26-3.4,4.22c-0.45,1.85-0.82,3.61-1.34,5.56c-2.41,0.22-6.28-0.1-7.42,2.88c-1.05,2.77-2.06,5.56-0.41,8.55
		c-1.96,3.3-3.01,6.92-4.12,10.51c-0.14,0.46-9.73,17.29-0.82,19.06c5.43,1.08,7.25,2.37,11.74,2.37c13.87,0,13.32-0.51,15.35,0.21
		c1.33,0.47,6.66-0.57,7.11-5.05c3.16-0.7,4.16,0.44,5.67-2.58c1.73-3.46-3.93-3.03-3.3-13.08c0.29-4.63,2.99-12.67,0.31-14.01
		c-0.21,0.93-0.41,1.85-0.72,2.99c-2.16-1.13-2.58-2.78-2.37-4.84c4.24,1.41,3.1,1.02,4.64,0.1c-0.52-0.72-0.93-1.24-1.24-1.75
		c0-45.39,2.65-39.65,9.48-57.27c1.07-2.77,0.79-4.09-3.19-18.85c-1.6-5.94,1.39-8.93,1.85-16.89c0-0.21,0.31-0.21,0.62-0.41
		c5.12,7.17,10.44,11.3,22.97,5.56c6.43-2.95,1.59-16.66,15.55-26.06c3.9-1.95,1.67-0.06,5.87-2.16c4.75-2.37,2,1.99,16.17-2.27
		c20.82,15.18,19.28,18.08,24.1,20.09c3.5,1.46,6.17,4.16,10.3,3.81c6.69-0.57,11.16-6.22,15.45-11.12
		c5.2,4.46,2.7,10.54,3.61,12.36c0.17,0.27,3.13,13.76,2.68,15.76c-3.81,16.87-4.91,17.67-3.4,21.63
		c2.39,6.25,3.94,10.41,5.36,12.57c4.7,7.18,3.39,38.88,4.12,43.57c0.32,0.97-1.66,1.19-0.93,2.47c1.34,1.44,2.78-0.72,4.43-0.31
		c-0.28,1.99-1.44,5.41-2.99,4.12c-0.52-0.72,0.1-1.85-1.13-2.68c-1.72,6.03,0.53,7.26,0.93,14.01c0.47,7.99-2.49,9.31-3.71,11.74
		c1.74,5.23,2.39,2.85,6.28,4.22c0,3.44,5.11,5.75,7.62,4.74c1.72-0.69,2.7-0.1,14.73-0.1c4.27,0,7.29-1.51,12.05-2.47
		c8.19-1.66-0.31-17.86-3.71-27.09c-2.38-5.36,0.95-1.56-1.03-9.48c-0.74-2.94-3.43-4.22-5.67-4.22c-3.02-0.38-2.18,0.32-2.99-3.61
		c-0.86-4.19-2.67-4.11-4.12-6.28c0-11.29,0.1-12.46,1.13-15.66c5.44-16.83,4.42-21.2,5.46-25.03c9.8-36.11-3.99-40.26-2.99-47.07
		c1.01-6.93-0.74-9.82,0.82-10.4c1.97,2.76,2.65,4.09,4.33,4.22c2.77,0.46,3.2,4.69,8.45,5.56c2.8-3.2,1.67-2.67,5.46-0.82
		c2.28,1.11,7.22,1.8,8.45-0.41c1.12-1.67,0.22-0.7,3.91-1.44c1.54-0.51,2.86-1.21,1.85-2.47c-4.08,1.95-8.7-0.02-11.74-1.03
		c1.13,2.16,3.19,2.16,4.22,3.3c-0.41,1.24-5.8,2-9.79-1.13c-10.31-6.87-19.85-27.16-21.22-39.45c5.88-0.77,8.55,5.15,12.15,5.15
		c-0.41-1.96-2.58-2.58-3.09-4.64c12.02,0,19.6-1.22,21.94,4.12c-5.77,0.82-11.23,1.85-17.51,1.03c10.24,5.46,24.27-2.5,19.88,2.99
		c-0.54,1.07,1.83,4.91,4.02,5.56c3.53,1.05,5.56,4.12,8.24,6.39c0.27,0.53,1.54,3.87,1.75,4.43c-0.98,1.64-0.32,5.63-5.25,2.99
		c-6.13-3.29-6.8-3.65-7.11-2.58c0.77,0.77-1.57-0.32,7.73,4.53c0.75,0.45,3.68,0.11,4.53,0c0.93-1.34,1.96-2.68,2.88-4.02
		C843.75,433.61,842.3,430.22,837.46,425.58z M767.78,245.35c-0.74-0.34-1.53-0.5-1.86-1.35
		C766.82,244.12,767.54,244.43,767.78,245.35z M765.72,243.89c-0.82,0.12-1.33-0.27-1.91-1.04
		C764.8,242.85,765.4,243.15,765.72,243.89z M761.65,241.72c0.39,0.13,0.43,0.1,0,0.1V241.72z M643.1,569.17
		c-0.36,2.17-1.82,4.32-1.03,8.14c0.94,4.55-1.87,1.7,2.27,12.46c-1.13,0.31-2.06,0.52-3.09,0.82c-0.45-0.9-1.05-12.34-2.16,4.43
		c-3.35,1.88-19.91,2.47-31.11-0.41c-2.52-9.8-1.52-9.52,6.59-29.36c4.36-0.73,0.42,0.6,9.06-0.21c4.02-0.37,7.93-0.21,11.64,1.24
		c2.49-1.87-3.98-5.3-22.04-3.91c1.35-5.86,1.14-4.95,8.03-5.87c1.97-4.44,1.13-10.63,8.65-9.37c3.92,0,3.93,6.93,5.25,7.73
		C640.99,558.96,635.49,567.32,643.1,569.17z M749.6,280.55c2.84,2.06,2.82,1.97,15.86,4.94c2.95,0.67,4.8,2.25,11.23,10.71
		c4.26,5.6,1.44,23.46,4.43,29.77c10.05,21.24,5.23,5.57,11.85,28.74c0.31-0.21,0.72-0.31,1.24-0.62
		c10.97,8.77,4.42,9.31,11.64,18.33c6.23,9.35,5.36,18.84,8.55,35.43c-6.02,0.9-5.71-1.51-7.52-0.31c-0.16,0.16-12.76-0.1-12.88-0.1
		c-1.23-2.26-7.95-11.42-9.27-16.48c-0.74-2.86-2.12-0.56-7.42-13.8c-0.95-2.38,1.48-2.81-1.55-5.25
		c-5.56-4.5-9.87-8.62-12.36-15.66c-6.52-18.41-6.14-11.33-3.91-16.89c2.29-5.72,3.33-7.74,2.16-9.27
		c-4.14-5.46,3.4-16.39-15.35-45.22c-1.08-1.67-2.45,0.05-2.58-1.85C746.2,280,746.27,278.14,749.6,280.55z M757.22,244.81
		c1.15,0.38,1.69,1.3-1.34,0C756.5,244.09,756.81,244.71,757.22,244.81z M755.99,241.92c-3,0.67-2.16,0.85-3.5-0.82
		C752.9,240.93,753.99,239.68,755.99,241.92z M747.85,214.32c0.18,0,0.21,0.13,0.21,0.31c-0.1-0.1-0.21-0.1-0.31-0.1
		C747.85,214.53,747.85,214.42,747.85,214.32z M746.72,231.21c-0.31,0.1-0.52,0.31-0.72,0.31
		C745.59,231.52,745.28,230.49,746.72,231.21z M743.42,243.26c-0.6,0-0.93-0.05-0.93-0.21C742.6,243.06,743.42,243.12,743.42,243.26
		z M741.26,229.46c-0.21,0-0.41-0.1-0.62-0.21C740.85,229.26,740.95,229.36,741.26,229.46z M736.62,227.81
		c-0.93,0.1-1.75,0.31-1.75-1.03C735.39,226.99,735.9,227.3,736.62,227.81z M736.73,234.51c-0.82,0.72-1.44,0.31-1.96,0
		C735.28,234.51,735.9,234.51,736.73,234.51z M734.15,218.85c-1.13-0.31-1.96-0.62-2.88-0.82
		C732.3,216.89,732.3,216.89,734.15,218.85z M728.59,232.55c1.09,0,0.93-0.06,0.93,0.21C728.43,232.76,728.59,232.81,728.59,232.55z
		 M724.78,215.14c0,0.1,0.1,0.21,0.1,0.31c-0.1,0.1-0.21,0.31-0.31,0.31C724.16,215.35,724.5,215.42,724.78,215.14z M724.67,221.22
		c0.52,0.31,0.93,0.52,1.24,0.82c-0.41,0.82-1.03,1.03-1.65,0.52C724.16,222.46,724.47,221.84,724.67,221.22z M726.12,233.27
		c-0.22,0.22-0.53,0.29-0.82,0C725.29,232.91,725.79,233.11,726.12,233.27z M721.27,241.72c0.35,0.69,0.64,0.28,0.1,0.82
		C721,242.36,721.27,242.08,721.27,241.72z M719.21,221.84c0.46,0-0.21,0.8-0.21,0.21C719.01,221.94,719.11,221.94,719.21,221.84z
		 M689.24,277.67c4.02-2.4,9.95-8.27,11.43-13.8c1.34-4.99,2.88-3.98,2.88-6.59c0-0.41,0.21-1.13,0.41-1.24
		c2.03-0.68,1.47-5.96,3.4-8.03c0.35,9.51,7.07,13.48,7.93,8.76c0.24-1.31-0.54-2.56-1.44-0.31c-0.21,0.31-0.52,0.62-0.82,1.03
		c-2.51-2.98-5.32-12.01-1.92-10.93c0.67,1.44,1.62,1.07,3.87,0.32c1.66,2.22-2.68,1.82-1.55,5.36c0.1,0.31,0.52,0.41,0.93,0.72
		c0.41-0.82,0.52-1.65,0.93-2.27s1.03-0.93,1.55-1.44c0-7.07-1.18-6.06-5.5-6.38c2-1.14,2.07-1.14,4.57-1.25
		c2.78,3.71,2.16,4.38,2.16,0c0.52,0,1.15,1.94,1.24,2.68c1.29,10.53-2.43,8.65-0.52,12.15c0.95,0.27,1.93-5.95,11.23-9.58
		c13.54-5.29-1.65-2.94,16.38-1.65c2.17,2.44,5.05,6.07,6.39,3.4c-0.82-1.03-1.75-2.16-2.99-3.61c4.74,0.3,4.37,6.52,7.21,3.3
		c0.63-0.71,1.13-0.62,1.85,0c-2.16,10.82-0.8,9.83-6.39,11.23c-1.44,4.74-0.62,9.79-1.96,14.21c-1.55,1.24-2.99,0.31-4.33,0.72
		c0.72,1.85-0.1,3.19-1.03,5.15c-7.28-1.21-8.46-1.71-8.96-0.21c3.02,1.89,6.65,0.05,7.93,2.06c-4.99,1.36-2.56,1.45-1.55,2.06
		c1.31,5.69-2.74,5.3-6.18,5.67c-3.15,0.57-7.76-4.23-14.21-7.31c0.52,1.65,0.62,1.85,1.03,2.16c11.77,7.57,8.99,5.24,6.8,9.99
		c0.86,1.29,3.2-1.71,4.02-3.61c7.02,0,6.9-1.36,6.9,5.25c0,3.78-0.28,15.85-0.62,21.01c-0.43,6.44-8.44,11.38-15.04,12.26
		c-1.13-1.55-0.1-3.61-1.65-4.74c-1.13,1.55-0.52,3.3-1.13,4.94c-5.97,0.31-11.23-1.85-16.48-5.25c-2.47-6.7-4.02-14.21-6.9-21.53
		c2.25-0.5,0.8-0.41,5.87-0.41c-1.88-1.41-0.86-1.06-4.33-0.72c-1.66,0.16-2.37-0.92-2.37-1.44
		C688.37,277.3,686.45,279.33,689.24,277.67z M711.27,246.35c0.83-1.94,0.92-1.96,3-1.96c0,1.03-1.03,0.62-1.44,1.03
		C712.37,245.8,711.82,246.08,711.27,246.35z M701.09,335.35c-0.52-1.13-0.21-2.06,0.41-3.19
		C709.45,338.7,704.72,337.42,701.09,335.35z M726.32,351.21c-34.65-34.25-20.56-16.44-29.15-30.39c-0.21-0.41-0.72-0.72-1.55-1.55
		c0.31,1.13,0.52,1.75,0.62,2.37c-1.01,1.22-30.5-28.22-30.59-28.33c4.22-4.94,9.37-8.03,14.73-10.71c1.67,0.17,1.85,0.41,6.8,16.17
		c0.4,2.02,1.71,2.69-6.28,1.13c-2.06-0.4-4.02-1.44-6.08-1.65c2.58,2.27,3.91,2.58,13.29,4.02c2.16,1.94,0.68,3.13,3.09,9.06
		c1.23,3.02,2.15,4.23,0.31,5.46c0.23,1.03,2.47,1.68,2.47-0.41c0-4.27-11.19-34.19-11.23-34.3c3.58-2.86,4.74-7.92,18.54,33.48
		c5,14.99,5.83,10.59,7.93,11.64c22.06,9.19,37.64,0.39,33.06-33.37c-0.75-5.53-1-3.65,2.37-8.14c1.4-0.2,0.15,0.99,5.15,7.62
		c4,5.3,7.23,17.75,7.83,23.79c0.39,3.95,8.39,14.58-5.97,28.94c-7.44,7.44-4.81,4.73-11.33,6.9c2.95,1.07,6.28-1.14,6.28,0.52
		c-1.89,5.66-2.44,7.56-4.94,12.15C739.73,364.52,742.02,366.73,726.32,351.21z M738.58,370.78c-1.72,0.43-3.19-0.82-3.19-1.03
		c-1.54-6.14-2.54-7.83-0.41-5.77C740.2,369.04,740.4,368.51,738.58,370.78z M740.12,371.19c1.08-1.62,0.76-1.2,3.09,0.62
		C741.67,372.22,740.85,372.12,740.12,371.19z M779.06,402.82c0.08,0.08,0.09,0.2,0.1,0.3C779.1,403.04,779.06,402.95,779.06,402.82
		z M779.26,403.22c0.35-0.03,0.54,0.14,0.6,0.42C779.62,403.44,779.41,403.35,779.26,403.22z M772.47,394.37
		c-0.72-5.05-3.19-5.97-7.73-6.39c-7.11-6.7-14.21-13.6-21.73-20.7c2.99-5.05,4.64-10.3,5.46-15.86c5.98-5.23,3.44-2.65,8.65-8.24
		c3.51,10.17,9.31,25.53,18.33,31.42c1.81,12.91,8.09,13.49,8.45,17.82c0.4,4.91,3.68,9.71,5.25,10.82
		c1.88,1.32,3.36,4.95,1.34,3.91C776.97,400.2,781.94,399.1,772.47,394.37z M785.03,405.49c1.13,0.1,1.96,0.52,2.88,1.85
		c-0.72,0.31-1.24,0.52-1.75,0.62C785.34,407.35,784.93,406.63,785.03,405.49z M786.58,409.82c0.88-0.44,1.2,0.08,0.21,0.41
		C786.79,410.13,786.68,409.92,786.58,409.82z M787.61,411.67c0.24-0.24,1.92-1.34,2.37-1.34c-0.93,0.93-2.06-0.82,1.96,3.19
		C790.83,417.95,784.75,414.54,787.61,411.67z M753.41,462.04c-8.03,4.48-9.21-1.12-14.01-11.85c1-1.59,2.28,1.55,11.54,1.55
		c0.87,0,10.92,0.2,11.95,2.27C760.21,457.41,757,460.05,753.41,462.04z M796.57,551.86c0.8,2.5,0.45,2.97,1.65,5.36
		c5.83,1.06,6.72,0.15,7.73,4.33c1.21,3.64-1.56-0.94-18.44,2.47c-3.03,0.61-3.74,2.22-4.22,2.78c3.77,0,4.53-1.63,11.64-1.03
		c9.96,0.84,5.98-0.64,10.2,0.21c1.29,3.16,3.18,7.06,3.61,8.96c1.74,10.46,5.44,2.39,3.3,20.29c-8.65,2.78-17.1,2.16-25.44,1.65
		c-8.88,0-4.17-2.96-7-10.82c-0.56,6.11-0.04,5.37-3.71,4.64c-0.21-3.11,2.43-4.23,1.85-8.96c-0.75-6.22,1.74-3.03-1.13-11.64
		c7.41-1.95,2.6-10.41,7.11-13.6c1.56-1.11,1.54-2.88,3.4-7.52C787.09,547.77,794.72,546.07,796.57,551.86z M800.59,469.87
		c3.96,9.31,2.7,19.13,0.93,28.64c-3.49,18.69,0.88,3.39-4.33,23.38c-7.39,28.38-0.1,22.6-11.23,24.62
		c-2.71,9.02-2.66,8.01-5.77,11.54c-6.25,6.25-0.14-27.46-7.52-42.64c-1.32-2.72-2.36-6.22-4.43-11.85
		c-1.41-3.84-0.24-4.38,2.06-15.35c0.7-3.36,3.14-3.81,0.1-12.15c-6.38-17.53,6.91-25.32-20.5-25.75c-2.6-0.04-3.1-0.33-11.12-1.75
		c-0.37-2.22-0.52,0.54,2.27-15.45c0.95-5.45,3.27-9.25,6.28-14.52c6.63-4.79,5.56-5.55,11.23-2.78
		c35.94,17.54,35.3,15.85,38.73,37.29c-0.51,1.02-2.6,1.12,0.52,2.99c-1.42,3.35,0.25,9.63,0.82,10.2
		C799.97,467.09,800.06,468.64,800.59,469.87z M805.33,449.58c2.56,0.64,3.13,4.64,6.8,4.84c0.62,1.13-0.1,1.44-0.82,1.96
		c-2.06-0.21-3.5-2.46-4.74-3.5C803.6,450.38,804.2,452.94,805.33,449.58z M804.3,448.55c-1.01,1.01-1.06,1.73-1.75,1.03
		c-6.37-8.98-8.17-9.97-12.98-29.46c-0.33-1.33,0.21-2.47,1.85-3.4C792.21,420.28,793.19,430.5,804.3,448.55z M824.38,415.69
		c6.46,0.92,7.78,0.77,6.39,2.16C826.69,423.1,826.59,417.62,824.38,415.69z M828.71,424.24c1.13-2.88,2.99-5.25,5.05-7.52
		c2.13,0.5,3.47,2.51,5.58,2.76c-0.11,0.11-0.17,0.17-0.21,0.2c0.3-0.27,1.95-1.58-5.89,8.88
		C830.87,428.05,829.74,426.2,828.71,424.24z M840.55,434.34c-2.16-1.44-4.02-3.19-6.08-4.74c0.52-0.62,0.82-1.13,1.24-1.65
		C837.73,429.18,841.58,432.27,840.55,434.34z"/>
	<path d="M738.27,407.14l-0.1,0.1C738.51,407.28,738.48,407.35,738.27,407.14z"/>
	<path d="M634.85,409.1c0,0.21-0.06,0.19,0.1,0.1L634.85,409.1z"/>
	<path d="M181.54,72.9c0.49-1.54-0.98-3.66-2.78-2.88c1.33,1.9,1.51,3.55,1.13,4.74c-1.3,4.07,2.77,10.17,3.5,11.64
		c15.93,8.28,64.57,16.86,64.69,16.89c27.62,7.02,15.6,15.69,38.83,12.88c7.09-0.86,18.62,6.91,25.65,8.45
		c13.93-6.96,39.81,4.98,41.61,8.03c7.68,12.99,7.35,13.15,8.76,14.42c3.86,2.76,9.64,31.59-2.16,43.16
		c-7.1,6.96-18.78-0.63-21.22-1.24c5.03,5.03,16.9,9.16,23.07,2.99c9.27-9.27,8.58-27.23,3.91-39.97
		c-2.81-7.69,3.97,2.82,5.36,11.54c3.66,23.01-6.14,25.48,0.72,43.98c0.65,1.75,0.77,2-1.96,14.42c-5.17,23.57-5,21.16-6.49,21.53
		c-0.1,1.44-0.93,2.68-0.21,4.12c-0.82,1.44-0.31,3.19-0.72,4.74c-1.85,7.04,0.18,2.02,4.33,33.79c0,1.81,0.1,1.63-5.46,1.96
		c-0.22,0.01-43.23,4.59-63.86,0c0.36-3.26-3.37-6.03-8.14-75.19c-0.41-5.97,0.32-5.05-4.43-9.27c-1.47-1.31-2.36-2.89-2.88-4.74
		c-4.75-16.85-1.67-18.23,0.31-34.82c0.65-5.41,0.5-6.15-0.72-5.97c-0.7,1.05-0.91,3.59-1.03,4.94c-0.3,3.47-8.43,19.91-0.62,35.23
		c10.7,20.99,4.98-8.97,7.73,30.28c0.01,0.1,5.39,55.32,8.45,58.82c-4.71,1.52,1.52,5.9-5.25,6.49c-4.75,0.41-5.12,3.76-5.87,8.24
		c-0.1,0.1,0.21,0.31,0.31,0.52c1.39-0.35,1.77-5.55,3.61-6.59c5.26-2.98,10.18,0.61,17.72-1.03c-3.19-0.72-6.08,0-8.65-1.44
		c3.79-7.58,10-1.14,31-2.37c2.35-0.14,10.39,0.4,13.6,0.1c25.6-2.39,14.59-0.84,18.54,2.78c0.1-1.34,0.21-2.68,0.31-4.02
		c2.9,0,2.05-0.97,2.88,4.84c1.13-4.28,0.81-5.52,2.16-4.84c0.41,1.34,0.1,2.99,1.24,4.43c0.52-1.13,0.39-2.17,0.52-3.19
		c0.62-5.1,1.52-3.33,0.52-8.96c-4.48-25.2-5.56-27.25-3.81-32.14c0.53-1.48-1.1-5.24,0.93-7.73c2.06-2.52,1.93-6,2.78-8.24
		c3.25-8.55,3.79-16.12,5.15-25.75c0.61-4.32-0.9-3.11-1.65-7.42c-3-17.22,1.55-14.49,1.34-16.79c0-3,1.37-16.57-1.85-26.37
		c-3.46-10.5-7.47-11.84-11.12-17.2c-5.76-8.45-4.23-8.96-9.68-13.18c-5.89-4.56-8.13-2.69-5.67-8.34c0.8-1.85-1.09-0.58,2.47-13.29
		c1.64-5.86,0.28-7.9,1.03-13.18c1.36-9.66-1.73-14.73-1.44-16.58c0.32-2.08-1.12-3.2-2.78-4.53c0.72-0.82,1.34-1.44,1.96-2.16
		c-0.72-0.62-1.24-1.24-1.85-1.44c-2.4-1.03-0.84-1.55-3.81-1.55c-1.21-2.42-0.96-1.92-3.61-0.93c-2.58-3.61-6.49-3.4-10.2-3.91
		c-3.07-2.63-2.88-2.32-2.88,0c-4,0-4.66-1.21-8.96,0.1c-5.79,1.34-11.46-4.58-9.89,0.93c-1.44,0-2.88,0.3-4.12-0.1
		c-1.95-0.63-3.09,1.44-4.84,1.13c-0.61,0-1.11,1.66-1.55,2.68c-1.24-0.93-1.44-2.68-3.19-2.99c-0.41,1.34-1.55,1.85-2.99,2.27
		c2.38,3.18,2.74,2.63-2.37,1.24c-3.61,1.27-0.96,4.34-1.55,5.15c-0.95,1.32,0.63,1.85,0.72,2.78c0.12,1.23,0.36,1.29,8.45,3.61
		c-1.4,9.78-4.52,11.88-1.03,15.55c0,1.02-3.24,8.07-3.61,8.86c-1.89,4.1,0.04,4.03,1.96,6.59c-1.3,6.48-1.41,0.83-7.93,3.5
		c-0.3,0.15-3.05,0.01-4.84,0.72c-9.97,3.96-9.51-12.32-40.69-14.63c-7.96-0.59-14.6-3.65-25.34-5.36
		c-3.24-0.51-7.65-3.92-17.72-5.25c-5.53-0.73-9.31-2.95-11.43-4.02C183.64,83.81,180.04,77.63,181.54,72.9z M297.41,293.01
		c-0.95,1.14-2.44,0.17-1.85-1.24C297.31,287.56,298.66,288.85,297.41,293.01z M346.44,90.61c0.42,1.27,0.55,0.74,0.21,1.44
		c-0.28-0.18-0.52-0.1-0.52-1.34C346.14,90.61,346.44,90.61,346.44,90.61z M310.29,120.07c0,0.07,0,0.14,0,0.22
		C310.25,120.21,310.23,120.13,310.29,120.07c-0.04,0-0.03-0.02,0-0.04C310.29,120.04,310.29,120.06,310.29,120.07z M310.46,120.58
		c0.19-0.02,0.36-0.04,0.5-0.02C310.86,120.77,310.64,120.82,310.46,120.58z M344.49,99.88c-0.4-0.4-0.1-0.44-0.1-0.93
		C344.75,98.96,344.49,99.46,344.49,99.88z M344.59,86.18c1.67,1-0.18,3.11-0.93,0.1C343.97,86.29,344.38,86.08,344.59,86.18z
		 M343.87,75.26c0.29,0.29-0.21,0.94-0.21-0.1C343.77,75.16,343.87,75.16,343.87,75.26z M341.5,101.94c-0.4,1.6-0.54,1.03-0.82,1.03
		C341.09,101.33,340.6,101.94,341.5,101.94z M340.26,73.62c0.24,0.72,0.61,0.62,0.21,1.03C339.96,74.13,339.59,74.29,340.26,73.62z
		 M339.44,89.99c0.1,0.21-0.1,0.41-0.21,0.62C337.89,89.94,339.17,89.45,339.44,89.99z M338.82,84.23c0.28,0.56-0.03,0.44-0.31,0.41
		C338.62,84.53,338.72,84.33,338.82,84.23z M337.89,68.88c0.22-0.22,0.21-0.09,0.52,0.52C337.76,69.39,337.89,69.79,337.89,68.88z
		 M336.86,85.67c0.11-0.11,1.43-0.8,0.31,0.82c0,0.1-0.31,0-0.52,0C336.76,86.18,336.66,85.77,336.86,85.67z M333.88,64.76
		c-0.31-0.31-0.72-0.52-1.13-0.72C333.98,63.73,333.98,63.73,333.88,64.76z M333.88,71.45c1.2,2.41,1.82,1.59-2.06,2.88
		C332.13,72.79,333.05,72.28,333.88,71.45z M335.42,93.08c-0.21,0.31-0.52,0.62-0.82,1.03c-0.31-0.52-0.62-0.82-0.52-0.82
		C334.3,92.65,334.74,92.4,335.42,93.08z M329.76,96.17c0.13,0.26,0.17,0.21-0.1,0.21L329.76,96.17z M326.77,73.93
		c1.66-0.37,2.87,3.39-0.72,1.24C326.36,74.54,326.67,74.13,326.77,73.93z M327.18,87.01c-0.41,0.41-0.62,0.2-0.62-0.21
		C326.56,86.21,327.08,86.9,327.18,87.01z M326.15,91.13c-0.14-0.14-0.17-0.41,0.1-0.41C326.51,90.97,326.26,91.02,326.15,91.13z
		 M323.68,85.15c-0.21,0.21-0.31,0.41-0.52,0.41C322.65,85.05,322.43,84.32,323.68,85.15z M319.87,88.55
		c-1.07,0-0.48,0.48-0.93-0.41C319.32,87.76,318.94,87.94,319.87,88.55z M319.05,73.93c-0.82,0.72-1.34,2.06-2.99,1.55
		C317.5,73.82,317.5,73.93,319.05,73.93z M313.59,82.06c1.53,1.53,1.47-0.18,2.88,2.47c-2.76-0.86-1.97-2.06-3.09-2.06
		C312.7,82.47,313.42,81.9,313.59,82.06z M312.14,74.96c-0.1,0.2-0.29,0.3-0.4,0.49c0.05-0.08,0.09-0.25,0.09-0.6
		C311.83,74.3,312.14,74.73,312.14,74.96z M312.35,79.38c-1.55,0-1.96-0.93-2.27-1.96C310.8,77.94,311.42,78.56,312.35,79.38z
		 M311.53,75.47c0.06,0.03,0.14,0.08,0.21,0.01C311.73,76.27,310.86,76.79,311.53,75.47z M309.57,64.24
		c0.21,0.1,0.31,0.21,0.52,0.21c-0.36,0.36-0.02,0.61-0.82,0.21C309.36,64.55,309.47,64.35,309.57,64.24z M303.7,66.61
		c0,0.27,0.05,0.23-0.21,0.1L303.7,66.61z M306.38,74.85c0.35,1.6-0.4,1.06-4.64,0.31C303.8,74.23,305.14,75.16,306.38,74.85z
		 M305.65,77.32c-0.19,0-0.41,0.06-0.41-0.1C305.35,77.22,305.45,77.32,305.65,77.32z M299.17,67.75c0.42-2.51,0.49-2.12,2.37-1.85
		c-1.33,2.66-2.47-0.06-2.47,3.81c-1.75-0.52-1.75-0.52-1.85-2.16C297.93,67.64,298.55,67.64,299.17,67.75z M292.68,65.38
		c1,1,0.78,0.5,0.41,1.24C292.04,65.91,292.19,66.11,292.68,65.38z M293.6,76.29c-3.2-2.13-5.35-0.97-6.49-4.84
		c5.29,4.63,8.56,3.09,10.41,5.56C296.22,77.11,294.91,77,293.6,76.29z M290.62,105.03c0.81-3.51,2.8-6.27,3.81-8.24
		c2.8-5.45-2.74-4.42-0.62-9.37c4.07-9.5-1.22-11.76,9.06-9.48c-0.31,0.41-0.52,0.72-0.82,1.13c2.46,2.78,5.68-0.15,6.28,1.55
		c1.16,3.29,4.1,3.28,10.82,10.92c6.52,7.41,3.44,10.11,2.37,12.26c3.15-1.15,2.79-1.77,3.71,0.52c0.48,0,0.64,0.36,2.37-3.09
		c1.78-3.55,0.21-3.25,5.75-5.11c-2.08,2.45-4.1,4.7-3.28,4.7c1.88-0.21,2.48,2.01,0.72,2.88c-6.02,3.01,2.16,3.64,2.16,2.47
		c0.22-0.67-0.93-2.53,1.44-1.34c0.52-1.13,0.31-2.68,1.85-3.19c1.83,2.06-0.78,1.95,0.52,3.09c1.75-1.4,1.81-1.94,2.37-2.78
		c-2.27-1.44-2.68-4.02-3.91-6.18c-2.14,0.34-1.88,0.41,0.41-1.03c4.84,6.05,7.47,9.14-5.46,16.69c-0.72-0.41-1.34-0.72-2.16-1.03
		c0,0.52-0.21,1.03-0.1,1.34c0.71,2,3.22,0.76,5.15-0.21c3.05-1.31,0.46-4.36,7.62,9.58c-2.57,0,0.54-0.09-12.57-2.06
		c-0.31-1.55,1.34-2.37,0.82-3.91c-2,1.45-1.39,4.98-4.94,4.43c3.71-4.12,3.81-4.33,3.19-7.83c-1.13,1.03-1.44,1.24-1.44,1.96
		c0,2.68-2.31,3.88-3.71,5.67c-0.65,0.83-1.29,0.82-11.02,1.13c-2.38-2.38-14.79-6.31-17.92-8.55c0.57-5.7,1.65-1.06,3.91-3.71
		c0.52-0.52,0.52-1.24-0.1-1.96C295.28,107.54,289.74,107.65,290.62,105.03z M333.67,97.93c2.61,0.95,1.12,2.74-0.1,5.36
		C331.92,98.62,331.9,99.7,333.67,97.93z M339.23,106.58c-0.1,0.72-0.31,1.44-1.34,1.75C337.89,106.84,337.51,107.87,339.23,106.58z
		"/>
	<path d="M212.75,149.74l-0.1,0.1C212.87,149.76,212.76,149.77,212.75,149.74z"/>
	<path d="M276.3,147.26c-0.07,0.04-0.1-0.01-0.1,0.1L276.3,147.26z"/>
	<path d="M212.64,149.02l0.1,0.1C212.73,149.08,212.69,149.02,212.64,149.02z"/>
	<path d="M212.44,148.72c-0.38,0.25-0.25,0.43,0.21,0.61c0-0.1,0-0.23-0.01-0.37c3.62,5.43,14.5,3.07,20.92,9.13
		c3.58,3.37,18.97,11.43,20.7,14.32c1.3,2.59,17.9,7.69,22.25,4.43c-1.13-0.93-1.13-1.01-1.85-0.93
		c-17.57,2.05-35.65-21.39-48.21-23.48c-12.89-1.43-40.2-25.64-43.26-31.62c-2.77-5.4-6.4-8.59-12.46-16.17
		c-1.97-1.97,0.63-1.48-2.06-3.71c-3.26-2.7-1.7-1.26,2.06-1.34c10.64-0.21,18.15,10.34,41.3,20.19c1.77,0.75,4.27,2.64,5.77,3.81
		c4.14,3.23,9.46,4.69,12.05,7c13.31,11.91,9.23,9.1,16.69,9.48c10.45,0.52,18.94,3.4,20.29,4.53c1.5,1,4.1,0.71,5.36,1.24
		c2.49,1.05,1.62,2.16,4.04,1.46c0.69-2.47,3.12,0.7,6.26,0.7c-1.77-5.3-42.2-13.25-45.73-16.79c-1.96-1.96-5-2.43-6.7-4.84
		c-0.19-0.27-4.01-1.82-5.36-2.58c-12.88-7.22-10.75-7.07-12.26-5.56c-11.25-7.03-12.74-8.91-16.17-9.58
		c-1.9-0.37-2.49-0.69-11.02-5.87c-5.05-3.07-4.16-0.83-8.76-3.3c-7.35-3.95-15.65-1.95-21.12-7.42c-0.93-1.24,0.52-2.78-1.03-3.91
		c-1.52,5.07-1.22,1.2-3.81,2.78c-0.8,0.49-1.02,0.12-1.31-1.11c-0.5,0.16-1.17,0.02-1.37,1.01c2.57,3,2.45,2.02,1.03,3.91
		c-4.22-2.58-13.91-22.97-15.97-31c1.24-3.3,4.43-4.33,6.8-6.18c2.98,0.65,18.03,4.74,27.71,4.74c3.41,0,2.83,1.09,2.06,3.91
		c-1.03,0-1.86,0.21-2.58,0c-2.38-0.7-4.64-0.49-7-0.72c-4.83-0.46-3.22,3.18-7.73,4.53c-3.77,1.13-2.89,4.14-3.19,5.67
		c-3.75,2.58-2.92,7.01-0.62,8.96c3.75-2.5,0.15,0.55-0.21-3.91c-0.43-5.42,3.08-2.41,4.84-3.3c-2.2-1.47-1.75-0.8-1.75-4.22
		c0.82-2.06,2.88-1.65,3.91-2.78c1.03-1.13,2.27-2.27,3.4-3.3c3.5-0.1,6.96-0.43,10.09,1.24c0.31,0.17,2.04-0.13,4.02,1.85
		c0.56,0.56,2.82,2.36,4.02,2.06c-0.1-1.34-1.34-1.44-1.96-2.16c-0.62-0.62-1.03-1.44-1.65-2.16c-0.62-0.82-2.06-0.72-2.37-1.96
		c1.65-1.65,2.06-4.12,4.02-5.56c2.88,0.41,4.84,3.09,7.83,3.09c-0.21-1.03-0.41-1.96-0.62-2.78c-0.42-1.68-5.05-3.68-7.62-2.88
		c-2.31,0.58-32.93-8.13-37.7-4.53c-2.3,1.74-6.15,3.17-6.18-0.38c0.57,0.33,1.3,0.67,1.75,0.89c-0.4-4.38-3.43-5.89-5.56-5.05
		c-2.93,1.16-1.06-1.54-7.21-6.18c-14.59-11.02-5.22-2.91-17-10.4c0-1.03,0.69-4.4-2.78-6.8C97.68,24.05,96.41,25,94.7,25
		c-0.32-0.24,1.73,1.18-33.27-22.97c-2.42-1.45-3.69-2.86-4.84-1.44c-1.78,2.18,2.49,2.96,36.57,27.3c0.21,4.33,1.34,5.67,6.49,6.7
		c9.12,14.15,14.22,16.12,20.39,19.78c0.59,0.59,1.08,4.01,5.36,5.25c1.48,0.3,2.72,1.5,1.65,2.58c-2.47,1.85-1.02-2.05,5.97,15.14
		c4.2,10.33,8.82,15.19,11.74,19.47c2.36,3.45-0.12,2.06,8.34,7.52c3.3,2.13,1.85,1.62,3.4,1.24c-0.88-2.36-1.01-1.89,0.62-3.91
		c0.1-0.1-0.1-0.21-0.21-0.41c-3.19,0.64,0.47,1.62-6.28-2.88c-0.62-2.58,0.41-4.33,2.27-5.77c0.65,0.37,2.5,1.04,4.84,3.81
		c0.74,0.87-0.02,1.77-0.82,2.58c1.75,1.13,1.96,1.03,2.27-1.65c1.24,0.41,2.47,0.93,3.61,1.34c1.03,1.85,3.21,2.56,4.33,4.43
		c2.2,3.69,5.12,6.93,8.14,9.99c1.92,1.95,0.77,3.62,8.03,11.02c6.09,6.2,10.78,11.3,12.57,12.67
		c12.69,9.74,15.92,11.72,16.55,11.91C212.42,148.69,212.42,148.7,212.44,148.72z M248.08,137.79c-1.96,0.78-2.51-0.22-6.18-2.06
		C244.06,135.93,246.22,136.04,248.08,137.79z M111.95,41.69c-0.04-0.05-0.26-0.28-0.46-0.5C111.78,41.21,111.98,41.37,111.95,41.69
		z M111.38,41.07c-0.14-0.15-0.26-0.27-0.3-0.31C111.28,40.76,111.36,40.91,111.38,41.07z M109.43,44.88
		c-11.74-11.74-9.84-14.56-5.46-8.34c6.06,8.59,9.48,9.55,10.08,10.89C112.2,47.17,110.72,46.17,109.43,44.88z M116.23,48.48
		c-1.21-0.6-0.33-0.31,0.1-0.31C116.89,48.17,116.45,48.48,116.23,48.48z M119.11,47.45c0.44,0,0.64,0.18,0.63,0.61
		C119.57,47.81,119.38,47.63,119.11,47.45z M130.4,52.92c-0.44,0.15-0.63-0.08-0.67-0.5C129.86,52.57,130.11,52.75,130.4,52.92z
		 M126.33,49.72c1.53,0.31,3.08,0.62,3.3,2.55C123.4,51.19,123.84,51.79,126.33,49.72z M120.05,48.39c0.49,0.18,1,0.36,1.84,0.61
		C120.87,49.09,120.76,49.09,120.05,48.39z M122.51,54.46c-0.52,0-0.23,0.13-0.52-1.03C122,53.08,122.96,53.12,122.51,54.46z
		 M125.4,54.87c0,0.83-1.33,1.14-1.03-0.21C124.85,52.54,125.74,53.85,125.4,54.87z M127.15,53.12c1.65,0.52,2.06,1.55,2.58,2.68
		c-0.62,0.72-1.13,1.44-1.85,2.27C124.44,56.92,126.6,58.59,127.15,53.12z M128.69,63.63c0.8-3.61,1.65-2.95,1.65-4.12
		c0-2.33,5.52-4.3,8.55-4.33c6.22-0.06,7.86,0.56,31,3.61c4.61,0.61,2.2,1.75,1.96,1.75c-34.6-4.32-34.63-8.08-40.89,3.19
		C132.22,71.6,135.65,77.53,128.69,63.63z M154.55,102.77c-0.74,0-1.13-0.27-1.28-0.92C155.46,102.14,155.55,101.47,154.55,102.77z
		 M148.37,99.47c0.68-0.68,0.99-0.44,1.19,0.1C149.22,99.57,148.91,99.56,148.37,99.47z M153,101.54c-0.29-0.13-0.6-0.27-0.93-0.4
		C152.46,101.1,152.81,101.14,153,101.54z M151.51,100.96c-0.8-0.18-1.55-0.35-1.77-1.27C150.55,99.8,151.31,100.02,151.51,100.96z"
		/>
	<path d="M149.29,89.79l-0.1-0.1C149.22,89.8,149.21,89.83,149.29,89.79z"/>
	<path d="M411.65,555.06c1.34-0.31,1.34-0.31,1.55-1.03c1.95-6.91,0.68-5.77,7.52-5.77c5.6,0,6.24-2.18,7.52,4.94
		c1.25,6.98,11.02,7.24,4.94,3.81c-1.45-0.82-2.26-2.16-2.37-3.71c-0.2-2.78-1.75-5.05-2.47-7.52c-2.49-0.73-9.38,0.74-14.21-0.1
		c-2.12-8.49-1.68-7.89-2.16-2.58c-0.7-0.9-5.43-18.49-11.33-33.48c-6.5-16.53-9.89-13.25-11.33-20.39
		c-3.78-18.74-0.97-21.39-3.61-27.71c-5.31-3.7-5.76-7-6.8-7.83c-4.97-4.76-3.34-9.01-6.18-11.85c-2.48-2.48-11.22-10.8-10.2-14.11
		c12.31-2.73-20.67,1.96-27.91,1.96c0.48-5.52-1.07-2.69-7.93-22.35c-0.04-0.1-11.15-36.58-14.83-37.8
		c0.61,3.07,9.68,19.57,9.68,27.19c-0.9,0-13.19,24.54-15.97,28.43c-26.65-8.2-24.01-11.64-34.92-17.1
		c-27.22-13.61-23.78-0.78-20.7-16.79c0.5-3.75,1.43-9.6,3.5-12.77c13.04-19.92,1.61-4.75,13.39-34.2
		c0.06-0.12,4.85-21.27,14.21-27.91c2-1.66,3.65-7.07,4.12-10.61c0.36-1.08-0.46-1.31-1.13-1.75c-1.15,1.27-2.48,9.08-4.12,10.09
		c-2.28,1.41-3.42,3.79-5.05,5.77c-5.33,6.47-6.04,11.91-8.65,20.5c-1.14,3.76-6.48,10.8-7.52,21.32
		c-1.1,11.14-8.7,11.99-10.61,26.78c-0.93,7.21-2.76,11.18-2.68,15.04c0.07,3.57-0.44,7.1-2.58,9.58c-0.73,0.73-2.02,5-3.61,8.34
		c-2.4,5.04-0.52,5.94-0.52,8.76c0.5,8.55-1.85,7.69-3.71,11.95c-3.79,8.68-6.58,14.53-6.49,19.16c0.02,0.86,0.29,9.3-0.1,10.09
		c-1.46,3.51,1.93,49.88-0.93,55.52c-0.05,0.11-1,6.58-0.93,11.23c0.1,6.91-4.02-1.12-6.9,10.4c-2.47,13.97-4.34,5.48-4.22,15.97
		c0.09,8.15-5.55,15.54-7.93,17.3c-2.33,1.73-0.12,2.8-2.37,10.4c-1.92,6.5,12.77,6.8,19.57,6.8c11.42,0,15.07,1.59,17.92-4.12
		c0.31-0.72-0.52-1.65,0.52-2.37c16.34-1.42,4.44-4.57,6.8-16.58c0.15-0.78,0.21-4.22-0.1-4.84c-1.7-3.41,0.65-5.95-1.13-9.27
		c-0.72-1.34-0.31-2.78-0.52-3.91c-1.13-1.34-2.27-2.58-3.19-3.61c-0.28-6.35-0.65-6.5-0.21-7.83
		c19.11-79.65,23.61-25.81,22.04-96.51c-0.38-4.18,2.49-2.55,7.93-16.89c1.87-4.93,5.21-4.04,8.65-10.3
		c0.73-1.33,1.85-2.37,3.4-3.09c17.94,6.37,18.79,9.08,19.88,6.9c20.18-32.6,11.24-37.41,20.19-13.08
		c5.52,15.01,7.04,8.94,5.56,17.82c3.53,2.06,21.17-2.68,26.99-2.68c2.38,5.07,5.18,10.03,9.99,13.49
		c4.31,3.11-2.36,5.88,15.04,23.28c0,30.78,7.76,32.14,10.92,39.04c16.7,36.45,11.4,37.1,16.27,45.63
		C411.75,551.86,410.72,553.51,411.65,555.06z M246.22,561.55c2,1,2.36,7.8,1.96,10.92c-0.93,7.23-1.35,7.9-0.31,11.02
		c2.05,6.12,2.03,4.04,1.65,7.11c-9.48,1.4-8.65,0.1-8.65,5.05c-3.55,3.23-26.96,1.13-33.58-1.13c-0.32-1.92,0.48-0.29,1.55-10.4
		c3.84-3.03,8.18-9.71,8.86-18.23c0.26-3.2-0.86-6.17,1.96-7.62c2.94-1.52,1.14-15.45,6.49-14.11c10.58,2.65,9.57,1.04,10.51,6.18
		c0.63,5.39,1.65,3.55,2.27,6.08c0.89,3.66,1.12,1.9,4.94,7C245.4,563.61,245.4,562.16,246.22,561.55z M272.38,430.32
		c0,3.96-2.57,6.66-8.96,17.2c0,1.37,1.65-0.19,1.65,3.09c0,34.67,3.07,31.66-11.64,54.9c-0.06,0.1-11.52,37.41-11.33,47.48
		c0.03,1.65,0.1,1.85,1.85,3.71c-0.48,2.39,0.01,1.93-2.78,1.24c-5.65-13.19,0.98-14.68-12.36-16.58c4.43-9.98,0.41-78.9,2.88-84.77
		c5.68-13.47,1.8-7.45,7.62-15.97c0.21-0.21,0.72-0.1,1.55-0.21c0-20.57-3.92-6.61,3.91-28.53c2.02-3.03,2.27-3.07,2.27-7.42
		c0-1.77,0.38-3.08,3.09-2.27c0.71,0.14,16.92,6.03,21.01,8.03c6.46,3.17,6.63,5.2,11.54,7.21
		C286.63,418.76,272.38,427.75,272.38,430.32z"/>
	<path d="M399.8,422.8c-1.73,1.15-3.02,4.75-8.96,4.02c-8.45-1.04-14.59-2.65-22.97-2.27c-28.36,1.3-13.07,2.25-3.61,1.75
		c18.81-0.99,26.35,5.32,33.27,1.44c1.52-1.01,1.85,0.22,1.65,0.62c4.73,18.91,7.3,13.5,18.85,35.02c2.7,5.03,2.45,13.47,2.58,19.26
		c0.31,14.54,1.23,9.93,1.96,18.85c0.77,9.54,0.52,30.1,2.58,41.3c0.21,1.14,1.75,1.39,1.75-0.41c0.45-7.97-1.2-22.14-1.85-33.99
		c-1.89-34.34-0.53-37.54-4.94-45.42c-4.35-7.78-10.98-19.32-15.76-25.34c-2.62-3.31-1.1-3.09-2.58-7.42
		c-2.2-6.46,3.31-7.01-1.96-10.3C399.8,420.95,399.8,421.77,399.8,422.8z"/>
	<path d="M341.19,162.92l0.1-0.1C341,162.82,341.05,162.73,341.19,162.92z"/>
	<path d="M332.74,182.7l0.1-0.1C332.72,182.47,332.78,182.49,332.74,182.7z"/>
	<path d="M288.76,150.46c-1.13,4.64-0.82,8.14,0.82,12.26c-0.98-21.52,1.33-5.76,20.7-2.27c1.13,0.2,2.27,0.52,3.19,1.24
		c-1.03,6.18-6.08,11.02-12.15,11.33c-0.1-4.02,2.06-7.83,1.24-12.57c-0.93,4.53-1.75,8.55-2.58,12.67c-2.83,0-5.96-0.29-9.27-5.25
		c-1.04-1.3,0.06-3.85-1.34-5.25c-0.41,0.52-0.82,1.03-1.34,1.65c1.87,7.79,6.34,9.97,10.4,11.54c-1.67,6.7,1.12,15.53,3.54,18.47
		c0.97-3.68-1.7-4.78-2.72-12.29c-1.6-11.7,10.79-2.17,14.83-18.33c0.82-2.04-0.06-1.4,9.17-0.72c0.89,2.12,0.14,2.5,1.13,10.92
		c0.21,1.75-0.93,3.71,0.41,5.36c0.82-0.41,0.41-1.03,0.41-1.55c0-12.96,1.7-1,7.54,4.86c0-0.96-0.54-1.38-0.84-2.08
		c-4.42-10.28-6.88-11.6-4.12-18.13c3.09-0.41,6.08-0.93,8.86-1.34c1.68,0.59,2.79,1.74,4.42,1.83c-2.21-2.3-4.1-3.94-8.33-3.48
		c-9.69,1.04-7.3-1.1-8.45-0.72c-1.53,1.53-0.77,1.66-5.97,1.03c-1.03-0.12-2.26-0.22-2.99-0.82c-1.02-0.84-1.96,0.02-2.99-0.31
		c-20.33-6.57-13.8-7.87-16.38-7.42c-1.36,0.24-6.9-3.15-11.33-5.77c-0.82,0.41-1.55,0.82-2.37,1.24
		C284.54,147.37,286.5,149.02,288.76,150.46z"/>
	<path d="M737.76,406.31c0.05-0.27,0.19-0.48,0.08-0.38l0.02-0.13C737.11,405.71,737.24,405.52,737.76,406.31z"/>
	<path d="M667.3,361c1.24,1.13,9.78,8.76,11.43,9.17c3.78,0.92,7.71,5.04,14.52,6.9c5.81,1.59,10.64,3.01,19.78,10.09
		c5.58,4.32,6.04,2.84,7.52,4.33c1.35,3.36-21.46,3.66-27.71,3.3c-6.57-0.38-14.65-3.86-20.5-5.87c-3.37-1.44-0.86,1.2,1.24,1.65
		c0.51,0.11,0.41,1.03,1.24,0.82c2.16-0.41,3.91,0.52,5.46,1.96c-0.19-0.19,1.18-0.48,1.97,0.62c3.9,0.31,7.61,1.03,11.94,2.88
		c-2.58-0.31-4.22-0.62-5.97-0.72c-1.75-0.1-3.4-1.44-5.25-0.41c11.67,3.39,11.7,0.77,15.55,1.13c17.78,1.65,12.65-1.48,23.69-2.78
		c4.66,4.38,10.28,10.74,15.12,11.66c-2.27-3.05-5.36-4.04-14.4-13.21c-3.52-3.57,1.15-0.86-6.59-4.94
		c-0.94-0.49-2.06-0.72-2.37-1.85c1.24-1.34,2.99,0.82,4.22-0.93c-4.43-2.77-8.72,0.76-11.95-4.74
		c-0.05-0.1-38.31-12.35-48.21-32.96C650.18,330.75,654.83,349.63,667.3,361z"/>
	<path d="M670.39,388.4l-0.1,0.1C670.62,388.55,670.49,388.56,670.39,388.4z"/>
	<path d="M682.3,394.02C682.34,394.07,682.35,394.08,682.3,394.02L682.3,394.02z"/>
	<path d="M682.3,394.02c-0.02-0.02-0.03-0.04-0.05-0.06h-0.01C682.27,393.99,682.28,394.01,682.3,394.02z"/>
	<path d="M371.17,288.07c1.72,9.48,4.65,6.55-6.9,7.83c6.69,1.82,8.6,0.82,12.88,0.21c4.49,3.24,7.39,19.54,7.31,25.75
		c-0.08,7.06,2.4,0.51,3.61,13.8c1.03,11.36,4.03,14.79,6.9,27.09c3.09,13.25,0.11,19.68,0.62,25.44
		c1.52,17.16,2.54,28.74,4.43,31.11c1.06-2.66,0.28-1.95-2.99-31.52c-0.46-4.17,4.28-10.16-1.85-30.49c-1-3.3-1.47,0.75-5.36-22.04
		c-1.83-10.75-3.23-10.28-3.19-12.88c0.05-3.45-1.54-22.72-9.48-28.12c-3.57,0.45-1.86,0.83-4.02-5.97
		C372.24,285.49,370.58,286.32,371.17,288.07z"/>
	<path d="M446.98,588.84c0.52,2.58,0.93,4.94,0.41,7.52c-6.47,0.68-16.35,1.22-17.2,1.13c-16.03-1.73-14.81-0.14-13.49-4.74
		c0.21-1.03,0.1-2.06-1.13-2.58c-1.55,1.03-3.09,0.93-4.64-0.21c-0.53-6.85,0.85-0.27,2.27-12.46c0.32-2.77-3.44-4.98-2.47-11.74
		c1.65-0.21,2.99-0.62,4.33-1.85c-0.62-2.47-1.03-4.94-2.16-7.21c-5.6,2.37-4.82,14.3-2.88,17.61c1.77,3.03,0.9,7.06-0.72,8.03
		c-0.45,0.22-1.75,6.19-0.21,9.27c1.65,0.93,3.5,1.24,5.36,1.34c-2.07,4.15,0.37,4.96,4.43,5.36c11.48,1.13,9.81,1.59,28.94,0
		c0.82,0,1.55-0.21,1.96-1.13C449.34,590.49,449.14,589.97,446.98,588.84z M412.06,560.52c0.1,0.21,0.21,0.31,0.31,0.52
		c-0.1,0.1-0.31,0.31-0.41,0.52c0-0.21-0.21-0.31-0.21-0.52C411.75,560.82,411.95,560.72,412.06,560.52z"/>
	<path d="M419.06,566.49c1.24,1.86-0.02,2.35,1.65,4.43c2.58-1.65,5.36-1.13,8.14-0.93c-7.67,0.67-6.16,1.25-4.74,5.15
		c3.61,0.52,9.06,0.21,12.46-0.82c-0.52-1.24-2.06-1.03-3.4-1.75c2.46-1.54,2.93-0.93,0.62-2.78c7.31-2.44,0.21-2.06-0.62-2.88
		C443.8,565.84,421.09,561.63,419.06,566.49z"/>
	<path d="M637.94,402.3c-2.05,2.39-1.44,3.09-1.44,4.43c1.85-2.16,2.88-4.43,5.36-4.84c0.21-2.06,0.2-2.06-0.41-2.78
		c-0.96-1.14-3.54-2.9-1.44-4.53c4.3-2.98,6.03-1.38,9.37-3.61c-1.44-1.34-0.93-2.78-0.72-4.12c8.16-3.33,21.29,7.34,23.18,6.08
		c-0.52-1.65-2.78-1.13-3.3-2.68c0.21-1.03,0.93-1.55,1.75-1.96c-0.62-1.24-2.16-1.13-3.19-1.96c-0.82,0.41-1.34,0.82-0.21,1.44
		c0.93,0.51,0.82,1.24,0,2.16c-13.86-5.65-7.99-3.64-7.42-7.11c-1.11-1.67-2.46,0.23-4.12,2.37c-10.06-1.14-9.17-0.7-9.17,5.15
		c-1.27,0.84-12.18,1.72-7.93,7.52C641.07,401.72,640.47,399.36,637.94,402.3z"/>
	<path d="M713.45,399.01c-1.22-3.66-11.77,9.22-33.17,2.16c-18.39-6.07-33.61-9.32-16.17-3.81
		C697.06,407.77,694.82,407.77,713.45,399.01z"/>
	<path d="M372.09,299.3c-0.42-1.79-2.51-0.6-1.75,1.34c6.31,16.09,4.89,40.67,6.9,41.92c0.19-9.31-3.5-32.46-3.5-36.15
		c4.6,2.14,3.55,19.56,6.18,18.44c0.41-5.56-0.41-10.92-1.85-16.27C375.08,306.1,372.98,303.1,372.09,299.3z"/>
	<path d="M379.71,420.53c3.52-1.17,0.32-16.06,0.21-17.51c-1.11-13.86-2.09-70.67-1.75-2.68c0.04,7.12,2.91,12.43,0.82,19.16
		C378.89,420.02,379.3,420.64,379.71,420.53z"/>
	<path d="M284.29,332.73c-0.05-0.03-0.11-0.05-0.16-0.05c0.06,0.06,0.09,0.08,0.14,0.09c-0.01,0.03,0.01,0.08,0.04,0.13l-0.08,0.08
		c0.07-0.02,0.11,0,0.12-0.01c0.9,1.26,8.25,6.69,19.04,12.26c1.44,3.4,1.34,7.21,3.5,10.4c1.37-2.74-19.84-72.11-5.87-19.57
		c2.44,9.17,3.62,8.47-13.6-1.85C285.45,333.03,284.45,332.6,284.29,332.73z"/>
	<path d="M669.26,420.02c71.47,43.8,10.99,1.11-1.75-1.44C667.71,419.5,668.64,419.71,669.26,420.02z"/>
	<path d="M710.87,418.27c-1.04-2.08,10.43-13.08,19.86-13.08c0.44-0.59,0.87-0.81,2.18-1.34c-20.8,0.55-31.02,24.29-21.94,16.07
		c10.24-9.27,16.88-12.03,18.13-13.29C725.07,406.56,714.06,415.54,710.87,418.27z"/>
	<path d="M729.21,406.63c0.19,0.19,0.04,0.09,0.2-0.1C729.13,406.66,729.01,406.63,729.21,406.63z"/>
	<path d="M447.9,587.5c-0.72-2.27-1.75-4.64-3.5-6.59c-2.72-3.63-1.78-5.9-2.27-7.21c-2.51-6.75-0.94-13.83-5.05-12.46
		c2.7,4.73,1.84,17.35,6.28,21.32C445.17,583.84,446.33,589.86,447.9,587.5z"/>
	<path d="M382.08,449.99c0.95,4.88,4.51,7.93,7.62,7.93c-1.66-3.59-6.39-3.54-6.39-12.46c1.96-2.16,3.71-4.33,4.53-7.42
		c-2.77-0.46-0.68-5.83-3.19-8.34c-1.21,5.44,4.72,9.84-2.58,13.49c0.36-0.72-1.33,1.43-1.43,1.33c-0.14,0-0.17,0.01,0.05,0.01
		C379.54,447.47,381.17,445.32,382.08,449.99z"/>
	<path d="M706.03,431.14c-2.01-13-0.86-22.18-3.3-21.94c1.9,18.65,2.24,17.49,1.44,20.7c-48.78-20.91-0.83,0.82,1.96,3.61
		C706.13,432.48,706.13,431.76,706.03,431.14z"/>
	<path d="M339.65,201.14c-5.86-10-7.43-17.02-9.48-20.09c-3.78,7.55,8.17,21.07,9.6,21.03c0.29,0.2,0.5,0.4,0.8,0.6
		c0.1-0.1,0.31-0.05-0.78-0.6C339.98,202.06,339.96,201.77,339.65,201.14z"/>
	<path d="M301.33,321.75c-0.21-1.27-2.39-26.04-6.18-22.25c4.23,8.47,3.99,26.81,8.14,32.14
		C302.71,327.89,301.94,325.47,301.33,321.75z"/>
	<path d="M301.33,217.31c-2.53,10.91-0.02,26.19,2.78,30.39c-1.21-7.23-2.69-22.22-1.34-29.46
		C303.15,216.19,301.63,216.02,301.33,217.31z"/>
	<path d="M701.6,419.61c-1.12-6.71-21.57-13.48-29.15-14.32c4.61,0.92,32.29,12.93,26.15,14.07
		C700.35,420.52,700.39,420.51,701.6,419.61z"/>
	<path d="M698.51,419.3c-0.15,0.15-0.14,0.1,0.09,0.06C698.57,419.34,698.55,419.32,698.51,419.3z"/>
	<path d="M294.22,377.68c1.73,1.98,2.76,1.34,1.44-0.41c-7.33-8.61-21.54-12.1-31-10.4C275.24,367.89,286.35,368.65,294.22,377.68z"
		/>
	<path d="M419.68,564.53c7.78-1.94,13.21-0.75,16.89-1.85c-2.61-1.19-5.55-1.65-7.73-1.65
		C415.25,561.03,418.98,564.88,419.68,564.53z"/>
	<path d="M666.06,405.39c-0.41-0.21-0.93-0.1-1.34-0.21c0,1.74,15.5,5.36,26.57,12.46C692.7,418.55,698.79,417.66,666.06,405.39z"/>
	<path d="M328.21,303.52c-0.86,0.29-0.37-0.43-1.03,6.8c-4.78-1.91-0.9,5.68,1.75,16.27c0-3.81-1.03-7.31-1.65-10.82
		C329.24,308.94,328.53,304.16,328.21,303.52z"/>
	<path d="M307.51,390.35l0.1-0.1C307.39,390.07,307.43,390.05,307.51,390.35z"/>
	<path d="M313.89,380.88c-2.61,0-0.06-0.67-6.7,1.55c-1.55-2.06,1.59-3.11,2.27-3.5c-1.99-1.33-2.03-0.17-1.24-4.53
		c-0.6,0-0.08-1.09-1.65,3.61c-2.54,1.09-2.37,0.57-0.21,1.65c-2.04,8.17-6.26,19.56-1.24,7.83c4.31,6.03,1.3,0.01,0.93-1.65
		c-1.1-3.58,3.85-2.24,8.03-3.81C314.57,381.54,314.03,380.88,313.89,380.88z"/>
	<path d="M719.52,429.08c3.49-2.62,10.76-8.84,12.67-10.4C742.98,409.85,720.32,421.9,719.52,429.08z"/>
	<path d="M297.11,333.08c-0.34-0.57-10.45-17.76-11.64-18.95C283.64,317.01,305.14,346.64,297.11,333.08z"/>
	<path d="M425.24,595.12c4.87-1.22,2.9-3.84,14.11-0.1c-0.41-1.03-0.41-1.55-0.62-1.65c-4.01-2.67-8.02-3.69-13.6,0
		C423.74,594.3,425.01,595.36,425.24,595.12z"/>
	<path d="M737.55,408.38c-0.01,0.01-6.5,3.99-12.57,7.83C714.72,422.7,739.42,412.11,737.55,408.38z"/>
	<path d="M303.08,199.18c0-0.93,0-1.65,0-2.47c-4.33,2.78-5.05,3.5-5.67,5.67c1.75,0.21,2.78-1.44,4.12-1.85
		C309.46,203.58,317.32,203.93,303.08,199.18z"/>
	<path d="M399.49,451.02c0.21-0.41-0.48-3.01-1.44-7.11c-0.76-3.25-3.43-2.09-2.37,0.72c2.84,7.51,3.4,5.18,1.24,8.86
		C394.05,458.35,398.77,456.32,399.49,451.02z"/>
	<path d="M263.94,382.63c6.59,0,13.08,0.82,19.47,1.55C288.8,384.17,271.69,379.18,263.94,382.63z"/>
	<path d="M838.49,447.21c-2.55,0.68-2.79,4.84-7.73,2.06c-2.25-1.27-4.84-1.75-7.21-2.47c-0.7,1.39-2.91-0.16,9.17,4.53
		C835.98,452.6,840.77,448.63,838.49,447.21z"/>
	<path d="M349.74,362.34c-0.13-0.13-0.17-0.14-0.1,0.1L349.74,362.34z"/>
	<path d="M349.61,362.22c-0.3-2.69-11.08-21.93-12.61-23.81l0.07-0.07c-0.13-0.04-0.05-0.05-0.09,0.06
		c-0.89-1.08,1.58,4.16,11.73,23.12C348.89,361.78,349.3,361.98,349.61,362.22z"/>
	<path d="M296.18,411.67c3.3-7.78,2.2-8.51,5.05-10.4c-1.82-1.49,0.62-6.07-2.27-0.31c-12.22,3.29-9.75,2.93-0.72,1.75
		c0.12,0.35,0.41,0.46-0.21,1.75C295.29,410.26,293.93,416.99,296.18,411.67z"/>
	<path d="M295.05,413.74c0-0.18,0.09-0.2-0.1-0.1L295.05,413.74z"/>
	<path d="M267.96,168.38c8.32,2.46,6.89-1.3,4.74-1.34c-6.76-0.11-8.93-3.63-10.92-2.88C263.22,166.42,265.49,167.65,267.96,168.38z
		"/>
	<path d="M169.17,78.77c-8.93-3.83-3.14-1.8-8.76-7.42c-0.62-0.52-1.24-0.1-1.55,0.82c-0.93,0.52-2.06,0.93-2.68,1.65
		c-0.62,0.82-0.21,2.06-1.03,2.88c-0.17,0.17-0.27,1,0.41,1.34c1.24-0.72,0.41-2.27,1.44-3.3c0.01,0-0.43,0.07,3.19-1.13
		C162.48,77.53,165.05,79.08,169.17,78.77z"/>
	<path d="M435.03,577.51c-2.68-0.93-5.25-1.44-7.83-0.31c0.21,1.34,0.41,2.47,0.72,3.91C430.8,580.5,433.17,579.78,435.03,577.51z"
		/>
	<path d="M265.38,114.82c-0.93-1.24-2.06-2.99-4.64-2.47c0.12,0.12,4.34,5.46,11.33,7.21C273.03,117.27,272.53,117.93,265.38,114.82
		z"/>
	<path d="M316.88,226.68c-0.1,0-0.41,0.31-0.93,0.62c2.27,2.78,3.81,6.18,7.31,7.73C324.14,232.42,320.37,228.42,316.88,226.68z"/>
	<path d="M401.55,504.28c0,0.45,1.57,0.67,0.82-2.78c-2.01-9.32-3.07-13.11-3.42-13.35c-0.08-0.29-0.09-0.6-0.19-1.27
		c-0.28,0.76-0.29,1.15,0.11,1.29C398.59,488.75,399.68,495.94,401.55,504.28z"/>
	<path d="M337.28,153.75c-3.5-0.28-6.8-1.44-9.89-3.09c-3.8-2.85-0.81,4.12,13.18,4.94C341.66,155.61,343.53,154.25,337.28,153.75z"
		/>
	<path d="M738.48,425.99c-12.34,8.42-11.46,5.95-14.52,8.34C728.11,434.5,736.96,430.03,738.48,425.99z"/>
	<path d="M320.59,303.42c-0.9,3.61,2.54-0.54-2.68,19.26C315.14,333.19,325.75,306,320.59,303.42z"/>
	<path d="M179.89,93.91c-2.01,2.52,0.97,6.03,4.12,5.36c3.11-0.67,3.7,1.56,4.53,0.1c-0.82-0.62-1.75-1.24-2.78-1.96
		C182.26,99.06,181.23,96.28,179.89,93.91z"/>
	<path d="M290.72,351.11c12.48,12.48,11.16,11.18,12.26,10.82C300.49,358.19,294.81,352.74,290.72,351.11z"/>
	<path d="M307.3,277.26c0.57-2.28,0.28,0.19-0.41-16.08c1.26-1.89,0.31-6.11-0.52-7.92c-1.95-1.95-0.43,5.93,0.48,7.85
		C305.31,262.13,306.3,274.59,307.3,277.26z"/>
	<path d="M262.81,129.44c0.93-2.06,1.75-4.02,2.58-6.18c-1.65-1.34-2.78,0-4.12,0.41C261.88,125.74,260.64,128.11,262.81,129.44z"/>
	<path d="M713.34,433.1c1.63-1.31,1.28-1.4,1.13-2.27C706.63,436.52,702.45,442.91,713.34,433.1z"/>
	<path d="M313.59,346.47c-1.2,5.76-0.4,13.98,0.1,14.73C315.23,362.75,314.63,360.46,313.59,346.47z"/>
	<path d="M302.87,143.35c-6.02-3.61-4.35-4.22-6.39-4.22C297.83,143.96,303.14,145.74,302.87,143.35z"/>
	<path d="M325.95,240.28c-0.05,2.99-0.05,6.08,0,9.06c0.01,0.41,0.41,0.72,0.62,1.13C328.9,236.46,325.96,239.67,325.95,240.28z"/>
	<path d="M326.46,250.58c1.67,13.35,0.31,8.65,2.06,12.15C327.57,248.76,328.14,250.58,326.46,250.58z"/>
	<path d="M336.66,202.47c-0.81-0.41-1.25,0.43-1.65,1.24c-1.41,3.52-2.02,3.06-2.78,5.36C334.57,209.23,337.73,203.01,336.66,202.47
		z"/>
	<path d="M230.98,137.99c13.57,4.91,8.26-0.52-1.55-0.82C229.95,137.48,230.36,137.77,230.98,137.99z"/>
	<path d="M178.65,70.01l0.21-0.1C178.75,69.88,178.71,69.9,178.65,70.01z"/>
	<path d="M181.84,67.02c-0.41-1.34-1.13-2.06-2.68-2.16c0.41,2.27-1.85,2.99-2.58,4.84C180.32,70.1,177.32,70.04,181.84,67.02z"/>
	<path d="M717.36,401.58c2.09,0.26-0.11,0.77,7.93-1.65C727.34,397.88,720.05,398.89,717.36,401.58z"/>
	<path d="M290.31,304.45c-0.2-0.62-0.82-0.62-1.44,0C290.3,309.29,295.9,321.54,290.31,304.45z"/>
	<path d="M310.29,220.29c-0.1-0.21,0-0.62-0.21-0.82C300.64,205.62,304.1,215.59,310.29,220.29z"/>
	<path d="M306.99,302.08c-2.02,1.01,1.3,7.23,2.68,8.86C307.11,300.69,307.49,302.58,306.99,302.08z"/>
	<path d="M341.19,202.99c-1.04-1.04-2.12,2.17,4.02,6.59C344.08,207.01,342.74,204.95,341.19,202.99z"/>
	<path d="M356.54,299.92c-0.35,0.35-0.66-0.25,0.72,5.97C358.28,313.04,358.75,301.02,356.54,299.92z"/>
	<path d="M255.08,125.94c4.14,0.66,4.1-2.17,2.37-1.85C250.57,125.35,248.17,124.83,255.08,125.94z"/>
	<path d="M676.26,462.56c-0.76,1.9-1.89,9.15-0.41,6.18C677.21,464.11,677.74,462.56,676.26,462.56z"/>
	<path d="M340.78,302.7c-0.93,2.06,0.31,3.61,1.24,5.87c1.34-1.65,0.71-2.78,0.41-3.91C342.21,303.83,342.22,302.7,340.78,302.7z"/>
	<path d="M639.8,541.46c-0.62,3.71-0.62,4.53,0.52,5.67C641.14,544.34,641.03,543,639.8,541.46z"/>
	<path d="M310.29,284.77c-0.93-2.16-0.31-4.02-1.65-5.36C306.17,280.04,308.17,282.97,310.29,284.77z"/>
	<path d="M393.1,452.77c-0.41,1.55,0.1,4.22,0.93,5.36C394.54,456.18,394.62,452.77,393.1,452.77z"/>
	<path d="M299.47,215.86c0.34-3.03-0.57-4.41-3.19-5.87C297.31,211.95,298.34,213.8,299.47,215.86z"/>
	<path d="M282.38,155.2c-0.31-4.22-0.41-4.43-2.16-5.97c0,0.82-0.21,1.44,0,1.85C281.84,153.51,281.17,155.2,282.38,155.2z"/>
	<path d="M638.15,464.82c-1.75,1.13-3.4,2.06-4.53,3.81c0.52,0.1,0.93,0.31,1.24,0.21C639.28,465.22,638.15,466.33,638.15,464.82z"
		/>
	<path d="M419.16,484.7c0.52-3.5-0.82-5.87-1.85-8.34C417.83,478.94,418.34,481.51,419.16,484.7z"/>
	<path d="M624.35,460.91c-0.41,2.27-0.1,3.09,1.65,4.64C626.1,463.18,625.58,461.73,624.35,460.91z"/>
	<path d="M257.86,160.24c0.82,2.27,0.93,2.37,4.02,3.81C262,162.6,259.36,159.97,257.86,160.24z"/>
	<path d="M626,475.13c0-2.47-0.72-4.12-1.65-5.77C623.42,471.11,623.63,471.93,626,475.13z"/>
	<path d="M149.29,89.58l0.21,0.1C149.38,89.53,149.42,89.5,149.29,89.58z"/>
	<path d="M149.81,87.32c-0.11-0.72,0-1.34,0-2.06c-1.55,0.72-1.97,1.55-1.44,2.68c1,2.12,0.99,1.48,1.96,1.24
		C150.22,88.55,149.91,87.94,149.81,87.32z"/>
	<path d="M803.16,421.15c-3.4-1.34-4.12-1.44-5.46-1.03C799.15,421.56,800.69,421.67,803.16,421.15z"/>
	<path d="M343.25,215.45c-0.6,1.14-1.24,2.37-1.85,3.5C345.61,217.45,344.18,213.68,343.25,215.45z"/>
	<path d="M629.29,441.96c-2.27,1.03-2.27,1.13-3.09,3.4C627.85,444.64,628.88,443.61,629.29,441.96z"/>
	<path d="M813.26,443.71c-1.82-1.64-1.92-1.88-4.12-3.19C810.66,444.41,811.01,443.93,813.26,443.71z"/>
	<path d="M711.7,408.69c-4.33,0.67-10.41,5.34-1.65,1.13C710.67,409.52,711.18,409.1,711.7,408.69z"/>
	<path d="M354.07,221.02c-0.41,0.82-0.3,1.12,0.82,5.97C355.61,224.62,355.51,222.77,354.07,221.02z"/>
	<path d="M154.86,84.12c1.03-2.78,1.03-2.78,0.72-4.12C154.55,81.03,154.24,82.06,154.86,84.12z"/>
	<path d="M381.98,443.09c-0.6-1.8-3,0.08-3.81,1.24C381.08,444.61,380.31,444.77,381.98,443.09z"/>
	<path d="M813.77,449.89c0.66,1.66,3.31,0.46,2.99-1.13C815.52,448.76,814.6,448.96,813.77,449.89z"/>
	<path d="M294.94,136.76c-0.31-1.75-0.1-3.09-2.16-3.81C292.88,134.59,292.99,135.73,294.94,136.76z"/>
	<path d="M329.76,273.34c0.34-2.01-3.08,0.12-0.93,2.47C329.76,275.09,329.76,274.16,329.76,273.34z"/>
	<path d="M642.17,481c-1.24,1.55-2.37,2.37-2.16,4.12C642.68,482.44,642.17,482.57,642.17,481z"/>
	<path d="M163.41,68.67c-2.39-1.08-3.15,2.01-1.44,2.58C162.48,70.42,162.89,69.6,163.41,68.67z"/>
	<path d="M311.01,365.12c-0.52-0.93-1.03-1.85-1.65-3.19C308.98,363.73,309.98,366.67,311.01,365.12z"/>
	<path d="M369.72,289.62c-0.52,1.75,0.21,2.88,0.72,4.12C370.96,291.47,370.96,291.47,369.72,289.62z"/>
	<path d="M641.34,444.64c-0.52-0.82-1.03-1.75-1.85-3.3C638.71,444,640.75,445.67,641.34,444.64z"/>
	<path d="M324.09,214.22c0.1-0.1-0.1-0.41-0.21-0.82c-0.82,0.62-1.44,1.03-2.27,1.65C322.96,215.76,323.47,215.04,324.09,214.22z"/>
	<path d="M412.78,536.62c-1.06-7.42-1.41-1.42-1.03-0.62C411.85,536.21,412.16,536.31,412.78,536.62z"/>
	<path d="M397.74,481.2c-0.41,1.44-0.41,2.47,0.62,3.5C399.08,483.26,398.46,482.34,397.74,481.2z"/>
	<path d="M351.85,365.56c-0.39-1.19-0.73-2.54-2.11-3.22C349.94,363.73,350.43,365.01,351.85,365.56z"/>
	<path d="M241.59,104.83c1.82,1.14,1.45,1.13,2.88,1.13C243.75,104.72,243.13,104.21,241.59,104.83z"/>
	<path d="M320.38,144.48c1.03,1.65,1.03,1.65,2.68,1.96C321.52,144.69,321.52,144.69,320.38,144.48z"/>
	<path d="M286.6,127.49c0.82,0.52,1.44,0.82,2.06,1.24C288.04,127.08,288.04,127.08,286.6,127.49z"/>
	<path d="M415.56,471.73c0.62-1.13,0.31-1.96-0.82-2.78C414.53,470.08,414.53,471.01,415.56,471.73z"/>
	<path d="M349.02,292.5c-0.52-0.31-1.03-0.52-1.13,0.1C347.26,298.24,348.95,293.33,349.02,292.5z"/>
	<path d="M332.23,224.62c1.96-0.31,1.96-0.31,3.09-1.44C334.08,222.97,333.26,223.38,332.23,224.62z"/>
	<path d="M412.47,462.97c-0.21,1.24,0.1,2.06,1.03,3.09C413.71,464.72,413.5,463.79,412.47,462.97z"/>
	<path d="M667.51,418.58c-0.89-1.18-1.87-1.98-3.41-1.96C665,417.7,666.01,418.47,667.51,418.58z"/>
	<path d="M664.1,416.62c-0.03-0.03-0.06-0.07-0.09-0.1C663.88,416.65,663.84,416.62,664.1,416.62z"/>
	<path d="M348.2,213.08c0.52,1.13,1.03,1.65,2.16,2.16C349.95,213.91,349.53,213.29,348.2,213.08z"/>
	<path d="M705.21,439.69c0.52-1.44,0.1-2.58-0.21-4.22C704.9,437.22,704.28,438.35,705.21,439.69z"/>
	<path d="M378.99,363.06c-0.27,0-0.21-0.4-0.21,2.68C379.06,365.74,378.99,366.14,378.99,363.06z"/>
	<path d="M246.12,123.78c-0.72-0.93-1.65-0.93-3.3-0.82C244.37,123.26,244.88,124.81,246.12,123.78z"/>
	<path d="M162.07,88.55c-1.35-0.81-0.85-0.92-1.85-0.41C160.69,88.62,159.96,88.55,162.07,88.55z"/>
	<path d="M314.2,202.17c-1.24-0.52-2.06,0.72-3.19,0.62C312.56,203.61,312.56,203.61,314.2,202.17z"/>
	<path d="M656.38,394.58c-0.09,0.01-0.2,0.01-0.29,0.02C656.31,394.7,656.26,394.7,656.38,394.58z"/>
	<path d="M654.73,394.06c-0.82-0.1-1.75-0.1-2.68-0.1C653.71,395.1,658,394.73,654.73,394.06z"/>
	<path d="M392.38,466.78c-0.56,0.42,0.09,1.55,0.62,1.55C393.76,467.56,392.89,466.27,392.38,466.78z"/>
	<path d="M821.39,441.34c-1.02,0-1.85,1.99,0.21,0.62C821.79,441.96,821.7,441.04,821.39,441.34z"/>
	<path d="M411.54,526.01c0.1,1.44,0.1,2.16,0.21,3.5C412.57,527.97,412.47,527.25,411.54,526.01z"/>
	<path d="M725.7,430.42c-0.82,0.21-1.75,0.31-2.68,0.41C723.95,430.83,725.09,431.66,725.7,430.42z"/>
	<path d="M312.97,342.56c0-2.49-0.21-1.96-0.1-1.96C312.86,342.85,312.82,342.56,312.97,342.56z"/>
	<path d="M293.81,416.41c0.82-1.03,1.13-1.85,1.03-2.78C294.12,414.25,293.81,415.07,293.81,416.41z"/>
	<path d="M626.61,479.45c0,0.62,0.21,1.03,1.34,1.13C626.96,478.27,626.61,479.18,626.61,479.45z"/>
	<path d="M278.77,148.09c-0.72-0.31-1.55-0.52-2.27-0.82C277.13,147.89,278.29,150.47,278.77,148.09z"/>
	<path d="M329.96,267.16c-0.11-0.22-0.82-0.87-0.82,0.1C330.07,271,330.02,267.33,329.96,267.16z"/>
	<path d="M251.99,153.55c0.62,0.41,0.72,1.24,1.65,1.03C253.12,153.34,253.12,153.34,251.99,153.55z"/>
	<path d="M358.19,291.88c-1.07-0.54-0.62,0.65-0.62,2.47C358.28,294.35,357.84,294.63,358.19,291.88z"/>
	<path d="M256.21,159.01c0-1.34,0-1.34-1.34-1.75C255.49,158.08,255.8,158.49,256.21,159.01z"/>
	<path d="M348.5,168.28c0.62,0.52,1.24,0.93,1.85,1.44C349.83,168.4,349.34,167.28,348.5,168.28z"/>
	<path d="M728.49,429.7c-0.73,0.28-1.56,0.47-2.38,0.73C727.91,430.55,727.43,430.4,728.49,429.7z"/>
	<path d="M725.81,430.52c0.1-0.03,0.2-0.06,0.3-0.09C725.6,430.39,725.7,430.41,725.81,430.52z"/>
	<path d="M256.01,109.46c-0.7,0.7-0.27,0.9,0.41,1.13C256.9,109.88,256.77,109.97,256.01,109.46z"/>
	<path d="M160.11,81.24c-0.26-0.13-0.95,0.19-0.41,0.72C160.43,82.69,162.17,82.27,160.11,81.24z"/>
	<path d="M377.35,344.52c0.28-0.28,0.58,0.41-0.21-1.96C377.24,343.18,377.35,343.9,377.35,344.52z"/>
	<path d="M680.07,393.24c-0.39,0.77-1.18,1.34-0.31,1.96C679.87,394.47,679.97,393.86,680.07,393.24z"/>
	<path d="M304.93,249.34c-0.21-0.62-0.1-1.34-0.93-1.55C304.11,248.31,303.8,249.24,304.93,249.34z"/>
	<path d="M285.36,125.02c0-0.38-0.03-0.19-1.13-0.93c-0.1,0.1-0.21,0.31-0.31,0.31C284.93,125.41,284.63,125.38,285.36,125.02z"/>
	<path d="M637.53,487.38c1.06-0.79,0.55-0.27,1.03-1.96C637.64,486.04,637.12,486.25,637.53,487.38z"/>
	<path d="M334.91,185.17c0.1-0.89-0.56-1.49-1.34-2C333.55,184.1,334.14,184.69,334.91,185.17z"/>
	<path d="M337.07,186.61c-0.31-1.13-1.03-1.55-2.16-1.34C335.32,186.2,335.94,186.71,337.07,186.61z"/>
	<path d="M342.84,163.64c-0.21-0.82-0.82-0.93-1.55-0.93C341.5,163.44,342.02,163.64,342.84,163.64z"/>
	<path d="M337.07,186.51c0.41,1.03,1.03,1.55,2.16,1.44C338.82,187.02,338.2,186.51,337.07,186.51z"/>
	<path d="M357.36,296.93c1.72-0.34,1.55,0.1,1.55-0.62C357.19,296.65,357.36,296.21,357.36,296.93z"/>
	<path d="M218.41,132.43c0.21,0.21,0.31,0.52,0.52,0.72c0.1,0.1,0.31-0.1,0.72-0.1C218.54,131.95,219.22,132.43,218.41,132.43z"/>
	<path d="M404.13,452.88c0.59,0.88,0.65,0.8,1.13,0.31c-0.31-0.21-0.52-0.52-0.62-0.62C404.54,452.57,404.33,452.77,404.13,452.88z"
		/>
	<path d="M664.73,405.19l0.1-0.1C664.62,405.12,664.65,405.07,664.73,405.19z"/>
	<path d="M664.66,405.1c-0.52-0.73-1.31-0.64-2.1-0.54C663.14,405.14,663.82,405.26,664.66,405.1z"/>
	<path d="M668.54,404.26c0.72,0.1,1.24,0.1,1.75,0.21C669.88,404.05,669.36,403.85,668.54,404.26z"/>
	<path d="M301.12,396.02c-0.58,0.67-0.61,1.34-0.53,2.09C301.31,397.59,301.12,396.8,301.12,396.02z"/>
	<path d="M300.61,398.28c-0.04-0.25,0.05-0.18-0.1-0.1L300.61,398.28z"/>
	<path d="M302.56,392.52c-0.76,0.47-0.64,1.31-0.54,2.08C302.66,394,302.67,393.31,302.56,392.52z"/>
	<path d="M301.95,394.68l0.1,0.1C302.01,394.56,302.06,394.57,301.95,394.68z"/>
	<path d="M249.41,151.28c0.2-0.4,1.09-0.79-0.62-1.13C248.59,150.36,248.41,150.27,249.41,151.28z"/>
	<path d="M639.39,533.32c0-0.1-0.21-0.21-0.41-0.52C638.57,534.42,639.39,534.02,639.39,533.32z"/>
	<path d="M655.56,454.32c0-2.45-1.06-0.44-0.41,0.21C655.25,454.52,655.56,454.42,655.56,454.32z"/>
	<path d="M643.1,447.62c0.27-0.27,0.33-0.08-0.41-0.82C642.11,447.09,642.45,446.98,643.1,447.62z"/>
	<path d="M409.07,459.06c0.15,0,0.67-0.21-0.41-0.93C408.44,458.35,408.29,458.27,409.07,459.06z"/>
	<path d="M815.73,437.53c0,0.33-0.5,0.52,0.82,0.52C816.55,437.46,817.09,437.98,815.73,437.53z"/>
	<path d="M292.37,131.5c0.1-0.21,0.21-0.31,0.41-0.52C291.75,130.3,291.59,130.34,292.37,131.5z"/>
	<path d="M728.89,429.78c0-0.01-0.12,0-0.4,0.02l0.1,0.1C728.77,429.83,728.89,429.8,728.89,429.78z"/>
	<path d="M730.65,429.08c-0.54,0.18-1.14,0.43-1.76,0.7C729.57,429.77,730.22,429.86,730.65,429.08z"/>
	<path d="M696.66,419.09c0.93,0,1.34,0.1,1.85,0.1C698.1,418.68,697.69,418.58,696.66,419.09z"/>
	<path d="M672.45,405.19c-0.47-0.76-1.3-0.56-2.07-0.61C670.9,405.26,671.67,405.09,672.45,405.19z"/>
	<path d="M670.18,404.57c0.06,0.01,0.13,0.01,0.2,0.01C670.27,404.43,670.3,404.45,670.18,404.57z"/>
	<path d="M315.96,329.27l0.1,0.1C316.06,329.14,316.08,329.21,315.96,329.27z"/>
	<path d="M316.06,329.21c0.88-0.43,0.52-1.31,0.62-2C316.1,327.7,316.06,328.45,316.06,329.21z"/>
	<path d="M316.78,327.21c0.76-0.48,0.64-1.32,0.62-2.09C316.6,325.64,316.78,326.42,316.78,327.21z"/>
	<path d="M354.07,291.57c-0.45,0.45-0.39,0.33,0.31,1.03C354.64,292.07,355.16,291.94,354.07,291.57z"/>
	<path d="M343.35,293.53c-0.46,0-0.71,0.34-0.41,0.93C344.01,293.92,343.56,294.16,343.35,293.53z"/>
	<path d="M731.06,428.88c0.1,0-0.1,0.1-0.31,0.21C730.96,428.98,731.27,428.88,731.06,428.88z"/>
	<path d="M682.34,420.53c-0.45-0.09-0.9-0.26-1.35-0.44C681.31,420.63,681.78,420.63,682.34,420.53z"/>
	<path d="M680.79,420.02c0.29,0.14,0.15-0.15,0.05-0.05C680.74,419.86,680.79,419.91,680.79,420.02z"/>
	<path d="M823.25,439.38c-0.15,0.15-0.38,0.14,0,0.52C823.25,439.74,823.48,439.61,823.25,439.38z"/>
	<path d="M165.57,85.05h0.21C165.52,84.92,165.57,84.92,165.57,85.05z"/>
	<path d="M169.38,85.67c0.21,0.1,0.31,0.21,0.52,0.21C170.31,85.46,169.72,85.32,169.38,85.67z"/>
	<path d="M315.54,329.68c0,0,0.1,0.1,0.1,0.21C316.26,328.66,315.89,329.34,315.54,329.68z"/>
	<path d="M267.85,128.62c0,0.1,0.1,0,0.21,0c0-0.1,0-0.21,0.1-0.31c-0.1,0.1-0.31,0.1-0.41,0.1
		C267.75,128.41,267.75,128.62,267.85,128.62z"/>
	<path d="M713.03,407.97c-0.39,0.2-0.96,0.03-1.19,0.71C712.32,408.66,712.85,408.53,713.03,407.97z"/>
	<path d="M711.8,408.79c0.01-0.04,0.03-0.07,0.04-0.11C711.63,408.68,711.69,408.68,711.8,408.79z"/>
	<path d="M713.41,407.86c-0.01,0.02-0.03,0.04-0.06,0.06C713.45,407.88,713.5,407.86,713.41,407.86z"/>
	<path d="M713.34,407.86c0.04,0,0.04,0,0.06,0C713.43,407.83,713.43,407.82,713.34,407.86z"/>
	<path d="M635.58,408.48c0.1-0.1-0.41-1.2-0.41,0.31C635.27,408.58,635.58,408.58,635.58,408.48z"/>
	<path d="M336.45,337c-0.21-0.31-0.21-0.62-0.31-0.93C335.73,336.59,335.83,336.89,336.45,337z"/>
	<path d="M729.4,406.52c0.25-0.14,0.49-0.27,0.73-0.38C729.83,406.18,729.57,406.25,729.4,406.52z"/>
	<path d="M730.13,406.13c0.48-0.07,0.61-0.09,0.61-0.13l0.01,0.01c0-0.16,0.03-0.17-0.1-0.1
		C730.46,405.98,730.3,406.06,730.13,406.13z"/>
	<path d="M730.75,405.88c0.25-0.09,0.45-0.19,0.72-0.28C730.61,405.3,730.75,405.16,730.75,405.88z"/>
	<path d="M730.65,405.29c0.13,0.03,0.1,0.09,0.1-0.1C730.72,405.19,730.67,405.27,730.65,405.29z"/>
	<path d="M337,338.31c0.14-0.57,0.02-1.12-0.65-1.31C336.35,337.59,336.36,338.09,337,338.31z"/>
	<path d="M252.5,108.84c-0.55-0.28-0.44-0.28-0.72,0C252.2,109.26,252.09,109.26,252.5,108.84z"/>
	<path d="M337.69,294.25c-0.21,0-0.31,0.1-0.52,0.21c0.1,0.1,0.21,0.31,0.21,0.31C337.48,294.66,338.28,294.25,337.69,294.25z"/>
	<path d="M315.85,136.65c-0.38-0.75-0.02-0.51-0.41-0.31c0.1,0.1,0.1,0.31,0.21,0.52C315.75,136.76,315.85,136.76,315.85,136.65z"/>
	<path d="M638.46,529.61c0-0.31-0.31-0.12-0.31,0C638.15,529.78,638.46,530.11,638.46,529.61z"/>
	<path d="M638.25,524.26c-0.19,0.19-0.35,0.03,0,0.72C638.44,524.79,638.6,524.95,638.25,524.26z"/>
	<path d="M630.32,491.09c0.68,0,0.31-0.22,0.31-0.41C630.28,490.68,630.32,490.81,630.32,491.09z"/>
	<path d="M629.4,486.25c-0.1-0.1-0.1-0.31-0.21-0.52C628.76,486.58,629.4,486.44,629.4,486.25z"/>
	<path d="M325.23,188.88c-0.1,0.21,0,0.41,0,0.62c0.1-0.21,0.21-0.41,0.41-0.52C325.97,188.65,325.23,188.71,325.23,188.88z"/>
	<path d="M396.5,476.77c0.42-0.42,0-0.4,0-0.93C396.26,476.1,396.21,476.18,396.5,476.77z"/>
	<path d="M302.15,195.78c0.53-1.73-0.34-1.21-0.1-1.44C301.85,194.04,302,194.59,302.15,195.78z"/>
	<path d="M328.73,211.23c0.21-0.21,0.52-0.21,0.93-0.31C329.14,210.51,328.83,210.71,328.73,211.23z"/>
	<path d="M309.7,311.17c0.05,0.1,0.04,0.25-0.03,0.38C309.67,311.69,310.47,311.94,309.7,311.17z"/>
	<path d="M673.38,453.29c-0.1,0-0.21-0.1-0.31-0.1C672.49,453.19,673.13,453.79,673.38,453.29z"/>
	<path d="M292.88,313.23c-0.02,0.58-0.14,1.21,0.72,1.21C293.41,313.96,293.48,313.38,292.88,313.23z"/>
	<path d="M292.78,313.2c0.12,0.03,0.1,0.07,0.1-0.1L292.78,313.2z"/>
	<path d="M645.77,450.92c0,0,0.1,0.1,0.21,0.21C646.69,450.42,645.77,450.19,645.77,450.92z"/>
	<path d="M310.6,313.51c0,0.1-0.1,0.21-0.1,0.31C310.5,314.4,311.1,313.77,310.6,313.51z"/>
	<path d="M293.5,314.44c0.1,0.21,0.21,0.52,0.1,0.21C293.81,314.95,293.6,314.65,293.5,314.44z"/>
	<path d="M655.85,401.55c0.07,0.02,0.21,0.07,0.33,0.13C656.01,401.6,655.85,401.52,655.85,401.55z"/>
	<path d="M655.87,401.58c-0.02-0.02-0.02-0.02-0.02-0.03C655.8,401.54,655.77,401.54,655.87,401.58z"/>
	<path d="M307.61,390.46l-0.1,0.1C307.64,390.56,307.56,390.65,307.61,390.46z"/>
	<path d="M308.33,391.8c-0.1-0.49-0.02-1.08-0.74-1.22C307.5,391.16,307.47,391.7,308.33,391.8z"/>
	<path d="M308.64,392.62c0-0.68-0.19-0.37-0.41-0.82c0.1,0.21,0.1,0.41,0.1,0.62C308.33,392.52,308.54,392.52,308.64,392.62z"/>
	<path d="M657,401.89c-0.65,0-0.23-0.1-0.93-0.1C656.63,401.79,656.52,402.37,657,401.89z"/>
	<path d="M659.36,400.48c-0.02-0.01-0.04-0.01-0.09-0.03C659.41,400.5,659.41,400.5,659.36,400.48z"/>
	<path d="M659.06,400.34c0.11,0.05,0.25,0.11,0.3,0.13C659.48,400.51,659.32,400.43,659.06,400.34z"/>
	<path d="M663.08,401.99c0.07,0,0.04,0.1,0.41,0.1C663.34,402.1,663.53,401.99,663.08,401.99z"/>
	<path d="M658.85,402.82c0.09,0.09,0.82,0.21,0.93,0.21C659.18,403.02,659.44,402.23,658.85,402.82z"/>
	<path d="M665.64,402.98c0.04,0,0.21,0.07,0.42,0.14C665.79,403.03,665.61,402.88,665.64,402.98z"/>
	<path d="M301.84,394.58c-0.56,0.28-0.53,0.9-0.6,1.39C301.92,395.72,301.75,395.06,301.84,394.58z"/>
	<path d="M301.25,395.97c-0.15,0.07-0.16,0.01-0.02,0.15C301.24,396.07,301.25,396.02,301.25,395.97z"/>
	<path d="M351.9,365.74c0.07,0.18,0.06,0.22,0.1-0.1C351.86,365.58,351.8,365.47,351.9,365.74z"/>
	<path d="M352.62,367.07c-0.28-0.28-0.47-0.73-0.66-1.19C351.87,366.4,351.82,366.9,352.62,367.07z"/>
	<path d="M661.57,403.93c0.33,0.19,0.69,0.38,0.99,0.54C662.41,403.94,661.99,403.96,661.57,403.93z"/>
	<path d="M661.57,403.93c-0.29-0.16-0.35-0.08-0.25-0.19c-0.35-0.12-0.63-0.22-0.86-0.3c0.21,0.1,0.45,0.22,0.69,0.37
		C661.05,403.92,661.47,403.92,661.57,403.93z"/>
	<path d="M660.46,403.45C659.63,403.04,659.22,403,660.46,403.45L660.46,403.45z"/>
	<path d="M652.16,393.96c-0.21,0-0.41-0.1-0.72-0.1C651.64,393.86,651.85,393.96,652.16,393.96z"/>
	<path d="M666.89,403.23c-0.5,0-0.9-0.1-0.93-0.1C666.32,403.3,666.46,403.65,666.89,403.23z"/>
	<path d="M352.52,367.18c0.07,0.13,0.13,0.31,0.14,0.35C352.72,367.58,352.7,367.35,352.52,367.18z"/>
	<path d="M352.67,367.53c-0.01-0.01-0.02-0.01-0.03-0.04C352.66,367.56,352.67,367.56,352.67,367.53z"/>
	<path d="M350.46,169.82c-0.12-0.12-0.08-0.1-0.21-0.1L350.46,169.82z"/>
	<path d="M333.67,183.01c-0.71-1.07-1.14-0.35-0.1,0.16C333.57,182.92,333.54,183.04,333.67,183.01z"/>
	<path d="M225.62,135.32c-0.19,0-0.56-0.35,0,0.21C225.62,135.42,225.62,135.32,225.62,135.32z"/>
	<path d="M247.46,106.89c0.1,0,0.21,0.1,0.31,0.21C247.87,107.09,247.56,106.89,247.46,106.89z"/>
	<path d="M325.12,189.39C324.81,189.7,325.33,189.29,325.12,189.39L325.12,189.39z"/>
	<path d="M225.11,135.11c0.1,0.1,0.1,0.1,0.31,0C225.31,135.11,225.21,135.11,225.11,135.11z"/>
	<path d="M331.82,209.38c0.48-0.48,0.21-0.31,0.1-0.21C331.82,209.17,331.82,209.27,331.82,209.38z"/>
	<path d="M328.62,211.13C328.73,211.23,328.73,211.13,328.62,211.13L328.62,211.13z"/>
	<path d="M682.24,393.96c-0.1,0.1-0.31,0.21-0.41,0.21C682,394.34,682.24,394.74,682.24,393.96z"/>
	<path d="M347.58,295.58c0.06-0.01,0.1-0.03,0.1-0.09C347.65,295.52,347.61,295.55,347.58,295.58z"/>
	<path d="M347.47,295.59l-0.1,0.1C347.45,295.69,347.66,295.59,347.47,295.59z"/>
	<path d="M325.12,149.32c0.21,0.21,0.41,0.52,0.62,0.72C325.84,149.94,326.01,149.92,325.12,149.32z"/>
	<path d="M325.23,149.32c-0.83-0.83-0.72-0.72-0.82-0.72C324.71,148.81,324.92,149.12,325.23,149.32z"/>
	<path d="M324.4,148.4c0,0.1,0,0.1,0.1,0.21C324.5,148.5,324.4,148.5,324.4,148.4z"/>
	<path d="M332.74,293.74c-0.1,0-0.21-0.21-0.21-0.21C331.97,293.53,332.74,294.18,332.74,293.74z"/>
	<path d="M318.43,141.29c0.27-0.13,0.26-0.08,0-0.21V141.29z"/>
	<path d="M664,416.41c-0.1-0.1-0.21-0.1-0.31-0.21C663.8,416.41,663.9,416.41,664,416.41z"/>
	<path d="M658.96,400.14c0.13,0.26,0.07,0.24,0.21,0.1L658.96,400.14z"/>
	<path d="M248.28,107.3c-0.1,0-0.31-0.1-0.52-0.1C247.87,107.3,247.87,107.92,248.28,107.3z"/>
	<path d="M737.87,406.1c0.03,0.34,0.36,0.44,0.71,0.53C738.31,406.45,738.06,406.28,737.87,406.1z"/>
	<path d="M298.34,336.38l0.21,0.1C298.42,336.22,298.48,336.25,298.34,336.38z"/>
	<path d="M336.76,222.66c-0.27,0.13-0.26,0.08,0,0.21V222.66z"/>
	<path d="M311.73,221.84h0.21C311.81,221.71,311.86,221.71,311.73,221.84z"/>
	<path d="M311.55,221.53C311.91,221.83,311.92,221.76,311.55,221.53L311.55,221.53z"/>
	<path d="M311.11,221.12l-0.1,0.1c0.24,0.12,0.41,0.22,0.54,0.31C311.44,221.43,311.3,221.3,311.11,221.12z"/>
	<path d="M310.29,220.4c0.26,0.18,0.45,0.35,0.7,0.53C310.93,220.56,310.72,220.4,310.29,220.4z"/>
	<path d="M311.11,221.02c-0.19-0.12-0.1-0.17-0.1,0.1L311.11,221.02z"/>
	<path d="M306.79,292.09c0.36,0.24,0.42,0.32,0.1,0C306.75,291.95,306.79,291.96,306.79,292.09z"/>
	<path d="M719.52,429.08v-0.1C719.4,429.24,719.38,429.23,719.52,429.08z"/>
	<path d="M295.56,316.4c-0.1-0.1-0.1-0.1-0.21-0.1C295.64,316.58,295.56,316.53,295.56,316.4z"/>
	<path d="M295.66,316.6c-0.03-0.03-0.06-0.06-0.09-0.09C295.58,316.56,295.6,316.6,295.66,316.6z"/>
	<path d="M694.6,368c-6.48,0.98-8.31-2.36-10.4-2.88c-3.38,0,0.36,5.14,5.05,5.36C693.62,370.67,695.23,368,694.6,368z"/>
	<path d="M732.91,389.22c8.08,8.97,11.62,5.77,10.09,5.77C736.53,392.49,733.89,385.98,732.91,389.22z"/>
	<path d="M731.68,384.89c-7.17-1.16-7.88-3.3-10.51-3.3C727.26,388.87,736.75,385.71,731.68,384.89z"/>
	<path d="M670.19,346.99c-6.91-2.07-9.84-5.05-12.05-5.05C660.84,345.33,666.05,348.54,670.19,346.99z"/>
	<path d="M662.05,309.19c3.3,0.82,5.77,0.41,8.34,0.82C668.12,308.36,665.55,308.57,662.05,309.19z"/>
	<path d="M709.33,386.13c-1.13,3.19-1.13,3.3-0.93,6.49C709.53,389.63,709.74,388.4,709.33,386.13z"/>
	<path d="M749.7,406.73c2.45,2.29,7.81,3.76,1.55,0C750.94,406.63,750.42,406.73,749.7,406.73z"/>
	<path d="M707.47,353.99c-0.93-1.55-1.96-2.78-4.02-2.88C707.55,354.46,706.27,354.29,707.47,353.99z"/>
	<path d="M699.03,367.69c-1.68-0.72-4.28-1.51-4.02,0.31C696.14,367.9,697.48,368.93,699.03,367.69z"/>
	<path d="M666.48,368.31c0.41-0.52,0.82-1.13,1.24-1.85c-1.44,0-1.44,0-1.85,0.82C665.55,367.8,665.76,368.1,666.48,368.31z"/>
	<path d="M672.35,346.68c0.82,0.52,1.55,1.03,2.58,0.62C673.28,346.27,673.28,346.27,672.35,346.68z"/>
	<path d="M736.31,386.13c1.54,0-1.75-2.1-1.75-0.52C734.97,386.44,735.7,386.13,736.31,386.13z"/>
	<path d="M740.64,401.79l-0.1,0.1C740.75,401.89,740.77,401.92,740.64,401.79z"/>
	<path d="M740.73,401.89c0.7,0.89,1.5,1.66,2.69,1.96C742.83,402.67,742.05,401.87,740.73,401.89z"/>
	<path d="M762.06,406.83c1.03,0.52,1.44,1.24,2.27,0.82C763.82,406.63,763.82,406.63,762.06,406.83z"/>
	<path d="M746.51,388.6c-0.64-0.64-0.49-0.31-0.72-0.31C746.11,388.93,746.41,388.6,746.51,388.6z"/>
	<path d="M767.01,413.94c-0.36-0.18-0.24-0.41-0.72-0.41C766.29,414.11,766.55,414.17,767.01,413.94z"/>
	<path d="M759.59,405.19c-0.12-0.12-0.84-0.12-0.1,0.62C759.83,405.69,760.33,405.55,759.59,405.19z"/>
	<path d="M756.5,409.92c0.18,0-0.12,0.1,1.03,0.1C757.17,409.84,756.94,409.48,756.5,409.92z"/>
	<path d="M675.64,312.07c-0.3-0.3-0.8-0.39-0.31,0.1C675.44,312.28,675.54,312.07,675.64,312.07z"/>
	<path d="M704.69,367.8c0.1,0,0.1-0.1,0.21-0.1C704.48,367.28,704.21,367.8,704.69,367.8z"/>
	<path d="M743.83,404.36c0.33,0.33,0.28-0.41,0.1-0.41c-0.21-0.1-0.41,0-0.62,0C743.52,403.95,743.63,404.16,743.83,404.36z"/>
	<path d="M735.18,394.37c0.11,0.11,0.75,0.37,0.41-0.31C735.14,393.6,735.07,394.26,735.18,394.37z"/>
	<path d="M738.89,399.73c0-0.24,0.29-0.22-0.1-0.62C738.62,399.28,738.46,399.29,738.89,399.73z"/>
	<path d="M743.5,395.42c0.32,0.5,0.79,0.69,1.36,0.6C744.68,395.28,744.07,395.45,743.5,395.42z"/>
	<path d="M702.43,367.49l-0.21,0.1C702.48,367.72,702.43,367.75,702.43,367.49z"/>
	<path d="M669.15,365.63l0.21-0.1C669.1,365.4,669.15,365.36,669.15,365.63z"/>
	<path d="M753.41,400.45c-0.13-0.26-0.07-0.24-0.21-0.1L753.41,400.45z"/>
	<path d="M774.42,419.19l-0.31-0.1C774.37,419.34,774.29,419.33,774.42,419.19z"/>
	<path d="M774.84,419.5c-0.21-0.1-0.31-0.1-0.52-0.21C774.42,419.4,774.32,419.92,774.84,419.5z"/>
	<path d="M753.31,400.24c-0.07-0.07-0.13-0.13-0.21-0.21C753.21,400.14,753.21,400.24,753.31,400.24z"/>
	<path d="M753,399.93c0.03,0.03,0.07,0.07,0.1,0.1C753.1,399.93,753.1,399.93,753,399.93z"/>
	<path d="M757.43,410.13l0.1,0.1C757.53,409.98,757.57,409.99,757.43,410.13z"/>
	<path d="M744.76,396.12c0.1,0,0.21,0.1,0.31,0.1C744.97,396.12,744.86,396.12,744.76,396.12z"/>
	<path d="M735.9,394.99c-0.32-0.32-0.21-0.25-0.21-0.1C735.7,394.99,735.8,394.99,735.9,394.99z"/>
	<path d="M748.67,398.49v0.21C748.93,398.44,748.95,398.49,748.67,398.49z"/>
	<path d="M796.06,470.8c0-0.21-0.31-0.41-0.62-0.93C791.34,478.07,795.64,475.39,796.06,470.8z"/>
	<path d="M782.05,465.96c-0.1-0.1-0.31,0.21-0.62,0.41c1.03,1.44,2.37,2.58,4.84,3.71C784.83,467.61,784.31,467.19,782.05,465.96z"
		/>
	<path d="M795.23,461.53c-1.34,1.65-1.65,2.58-1.65,4.94C795.33,465.13,795.85,463.59,795.23,461.53z"/>
	<path d="M779.78,547.95c0.72-2.06,0.52-3.91,0.1-5.97C778.54,544.86,778.54,546.09,779.78,547.95z"/>
	<path d="M780.61,486.04c-1.24-2.47-1.34-2.58-3.3-3.5C778.03,484.09,778.75,485.53,780.61,486.04z"/>
	<path d="M789.77,442.89c2.26,2.26,3.15,3.79,3.81,2.68C791.52,442.47,791.42,442.47,789.77,442.89z"/>
	<path d="M780.5,442.68c-1.13,0.38-0.18-0.55-2.27,2.78c0.21,0.1,0.41,0.31,0.62,0.52C779.78,445.15,780.71,444.33,780.5,442.68z"/>
	<path d="M792.24,480.28c-0.1,0.31,0.1,0.62,0.1,0.93c0.1-0.1,0.41-0.1,0.52-0.31C793.82,479.46,792.65,479.05,792.24,480.28z"/>
	<path d="M780.5,486.15c0.72,0.41,0.62,1.55,1.85,1.85C782.36,486.66,781.43,486.35,780.5,486.15z"/>
	<path d="M777,447.42c-0.73,0.73-0.69,0.79-0.41,0.93C777.92,447.9,777.34,447.76,777,447.42z"/>
	<path d="M788.85,491.81c0.57,0,0.32-0.21,0.52-0.41C788.71,491.4,788.85,491.64,788.85,491.81z"/>
	<path d="M780.19,534.56c0,0.15,0.52,0.51,0.52,0C780.71,531.49,780.19,534.32,780.19,534.56z"/>
	<path d="M773.29,451.64c0.48,0,0.36,0.51,0.82-0.41C773.67,451.23,773.76,450.71,773.29,451.64z"/>
	<path d="M781.64,524.98c-0.28,0.55-0.28,0.44,0,0.72C781.64,525.39,782.09,524.98,781.64,524.98z"/>
	<path d="M790.49,486.76c0.25-0.25,0.3-0.25,0-0.1V486.76z"/>
	<path d="M790.42,486.83C790.54,486.69,790.47,486.65,790.42,486.83L790.42,486.83z"/>
	<path d="M790.39,487.07c0-0.11,0.01-0.19,0.03-0.25c-0.01,0.02-0.01,0.02-0.03,0.04C790.39,486.97,790.39,486.97,790.39,487.07z"/>
	<path d="M744.45,259.44c-0.87,2.6-5.36-1.73-6.28,1.34c4.54,1.75,3.88,2.45,7.83-0.31c1.75-0.41,3.4,0.31,5.36-0.72
		c-2.17-2.79-1.03-2.68-4.33-1.44c-1.05-2.11-0.71-2.27-2.78-2.27c-10.29,0-8.39-0.06-9.17,0.72
		C737.06,258.74,741.07,256.06,744.45,259.44z"/>
	<path d="M714.37,275.19c0-0.31-0.41-0.41-0.93-0.82c0,4.09,1.28,7.63,2.37,9.27C716.33,280.55,714.99,277.98,714.37,275.19z"/>
	<path d="M715.4,301.56c1.03,1.03,1.85,1.75,2.68,2.47c0.93,0.72,1.03,2.37,2.68,2.27C719.85,304.25,717.49,300.87,715.4,301.56z"/>
	<path d="M712.83,261.08c-2.16,3.09-2.27,4.22-0.41,7.21C712.42,265.72,712,263.35,712.83,261.08z"/>
	<path d="M723.85,315.47c0.74,0.93,1.23,0.32,2.06-0.52C731.16,309.7,724.98,312.56,723.85,315.47z"/>
	<path d="M743.52,272.62c-0.31-0.41,0.1-1.24-0.72-1.34c-0.41,2.16-0.21,2.71,1.44,2.99C749.3,275.1,743.69,272.78,743.52,272.62z"
		/>
	<path d="M726.32,305.68c-2.27,0-2.27,0-3.91,1.03C724.06,306.92,725.4,307.23,726.32,305.68z"/>
	<path d="M728.69,304.76c1.24-0.52,1.85-0.82,2.68-1.13C730.24,303.21,729.52,303.21,728.69,304.76z"/>
	<path d="M703.66,261.7c-0.41,0.52-0.82,1.13-0.62,2.06C703.97,263.14,704.18,262.53,703.66,261.7z"/>
	<path d="M734.25,302.59c-0.21-0.21-0.31-0.62-0.41-0.62c-0.31,0.1-0.52,0.31-0.82,0.41C733.42,302.79,733.42,303.43,734.25,302.59z
		"/>
	<path d="M728.07,295.9c0,0.72-0.1,1.24-0.1,1.75C728.38,297.13,728.69,296.72,728.07,295.9z"/>
	<path d="M719.32,294.66c-0.52,0.72-0.31,1.24,0.1,1.65C719.32,295.9,719.32,295.38,719.32,294.66z"/>
	<path d="M727.87,297.55c-0.04,0.11-0.08,0.23-0.1,0.31c0,0,0,0,0,0C727.66,298.06,727.87,297.86,727.87,297.55z"/>
	<path d="M727.76,297.86C727.7,298.05,727.72,298,727.76,297.86L727.76,297.86z"/>
	<path d="M704.69,256.86c-0.1,0.21-0.31,0.41-0.62,0.52C704.07,257.73,704.69,257.9,704.69,256.86z"/>
	<path d="M714.89,253.46c-0.1,0-0.1,0.21-0.21,0.31c0.21,0.1,0.31,0.31,0.52,0.31C715.3,254.08,715.82,253.46,714.89,253.46z"/>
	<path d="M703.97,266.65c0,0.1,0,0.21-0.1,0.31C703.97,266.85,703.97,266.85,703.97,266.65z"/>
	<path d="M704.9,256.35c0,0.21-0.1,0.41-0.1,0.62C705,256.76,705.52,256.86,704.9,256.35z"/>
	<path d="M719.32,296.41l0.21-0.1C719.39,296.31,719.44,296.29,719.32,296.41z"/>
	<path d="M704.07,266.75c0-0.1,0.1-0.21,0.1-0.31C704.07,266.54,704.07,266.65,704.07,266.75z"/>
	<path d="M723.23,321.24l0.21,0.1C723.44,321.07,723.49,321.11,723.23,321.24z"/>
	<path d="M722.61,319.18c0.27-0.13,0.26-0.08,0-0.21V319.18z"/>
	<path d="M718.91,314.85c0.1,0.1,0.1,0.21,0.21,0.21C719.37,314.8,719.42,314.85,718.91,314.85z"/>
	<path d="M788.23,355.74c-0.6,1.81-0.75,5.56,0.41,8.65C790.16,362.77,790.3,357.4,788.23,355.74z"/>
	<path d="M760.73,290.54c0.1-1.65,0.1-1.65-1.75-2.06C760.06,290.64,760.13,290.15,760.73,290.54z"/>
	<path d="M762.58,320c0.62-0.52,0.93-1.03,0.1-1.85c-0.31,0.41-0.72,0.82-0.93,1.34C761.57,319.68,762.21,320.37,762.58,320z"/>
	<path d="M787.82,366.15c0,1.47,0.18,1.24,0.52,1.24C788.33,365.58,788.12,366.46,787.82,366.15z"/>
	<path d="M767.63,295.18c-0.1-0.21-0.31-0.52-0.52-0.72c0,0-0.41,0.21-0.41,0.31C766.9,295.18,766.93,295.87,767.63,295.18z"/>
	<path d="M764.85,314.85c-0.26,0-0.21,0-0.21,0.62C764.81,315.3,765.38,315.39,764.85,314.85z"/>
	<path d="M763.51,292.4c-0.26-0.26-0.13-0.28-0.52,0.1C763.09,292.5,763.51,292.73,763.51,292.4z"/>
	<path d="M787.4,369.65c-0.27,0.13-0.26,0.08,0,0.21V369.65z"/>
	<path d="M804.91,399.11c-0.1-0.1-0.21-0.21-0.31-0.21C804.71,399.01,804.81,399.01,804.91,399.11z"/>
	<path d="M804.71,398.8c-0.1,0-0.21-0.1-0.31-0.1C804.4,398.8,804.5,398.9,804.71,398.8z"/>
	<path d="M616.73,568.03c-3.42,1.14-0.28,3.53-0.82,7.83c-0.43,3.38,1.79,2.43,4.64,4.64c0.81,0.63,2.08,0.42,2.47-0.52
		c0.43-1.02,1.24-1.24,2.06-1.65c3.66-1.83,2.86-1.73,1.85-3.4c1.03-0.72,2.68-0.41,3.09-1.85c-0.72-1.44-2.37-1.03-3.4-1.75
		c2.78-0.82,5.56,0.21,8.34-0.41C634.26,566.36,616.83,568.03,616.73,568.03z"/>
	<path d="M610.96,593.79c1.9,1.08,0.71,1.63,6.8-1.75c2.99,0.52,5.67,2.37,8.96,2.27C625.31,592.43,617.68,588.18,610.96,593.79z"/>
	<path d="M789.98,574.32c3.42,1.52,3.37,0.98,1.65,2.99c2.97,1.98,4.79,1.58,5.56,3.5c0.21,0.72,1.55,0.83,2.16,0.31
		c0.94-0.81,2.06-1.34,3.3-1.75c2.95-1.18,0.12-2.36,2.06-7.83c1.84-5.17-14.39-3.78-19.16-1.13c-0.31,0.21-0.41,0.72-0.82,1.55
		C800.67,571.95,789.38,571.62,789.98,574.32z"/>
	<path d="M792.55,594.82c3.71,0.52,6.39-1.75,9.58-2.06c7.47,4.76,6.43,1.21,5.46,0.72C803.04,591.87,800.38,589.6,792.55,594.82z"
		/>
	<path d="M298.14,90.92c5.78-0.44,7.15-1.29,9.17,0.21c0.83,0.61,1.75,0.62,2.68,0.31c-1.44-2.16-1.44-2.28-2.88-2.68
		c-2.51-0.7-8.33-0.94-9.37,0.1C296.56,90.02,297.78,90.92,298.14,90.92z"/>
	<path d="M305.86,95.25c-1.96-1.96-4.02-2.37-6.39-2.78C299.47,94.99,298.52,96.64,305.86,95.25z"/>
	<path d="M319.56,106.58c1.06-1.06-1.24-0.63-0.82,0.21C319.05,106.78,319.35,106.68,319.56,106.58z"/>
	<path d="M316.57,108.23c-0.1-0.1-0.21-0.21-0.31-0.31C315.83,108.79,316.2,108.41,316.57,108.23z"/>
	<path d="M315.96,108.53c0,0-0.1,0-0.21,0.1C315.65,108.64,315.46,109.03,315.96,108.53z"/>
	<path d="M254.56,411.16c-1.65,0.37-1.03,1.28-1.03,5.87c0,3.73-1.04,4.44,0.52,7.11c2.05,3.5,3.6,5.99,6.8,7.52
		c0.43-1.72-6.33-7.6-6.08-12.67C255.2,410.49,254.96,412.35,254.56,411.16z"/>
	<path d="M253.02,426.3c-2.37,1.65-4.22,3.5-4.02,7C253.84,430.32,254.36,429.39,253.02,426.3z"/>
	<path d="M240.35,549.39c1.24-2.58,1.44-4.33,0.72-8.55C239.94,543.83,239.63,547.54,240.35,549.39z"/>
	<path d="M252.81,461.73c-1.17,1.83-1.34,3.91-1.44,6.7C253.68,464.43,254.63,458.9,252.81,461.73z"/>
	<path d="M242.41,534.56c1.39-9.35,1.31-7,0.62-8.86C241.48,535.31,241.42,533.57,242.41,534.56z"/>
	<path d="M237.67,454.63c0-1.65,0-2.99,0-4.43C237.67,447.8,235.18,451.14,237.67,454.63z"/>
	<path d="M257.86,454.11c0.31-0.93,0.52-1.75,0.82-2.58C257.24,452.88,257.24,452.88,257.86,454.11z"/>
	<path d="M265.59,428.05c1.24,1.24,1.24,1.24,2.37-0.21C267.13,427.54,266.31,427.13,265.59,428.05z"/>
	<path d="M249.72,477.6c-0.62,0.78-0.1,1.65,0.41,1.65C250.67,478.18,250.74,477.09,249.72,477.6z"/>
	<path d="M249.41,491.4c0,2.52,0.75,0.34,0.21-0.21C249.52,491.3,249.41,491.4,249.41,491.4z"/>
	<path d="M249.21,485.53c0.1,0.62,0.1,1.03,0.21,1.65C250.14,486.46,250.14,486.04,249.21,485.53z"/>
	<path d="M236.64,471.21c0,0.54,0.21,0.21,0.31,0.21C236.95,471.29,236.92,470.94,236.64,471.21z"/>
	<path d="M237.47,464.62l0.1,0.1C237.57,464.46,237.6,464.48,237.47,464.62z"/>
	<path d="M227.78,561.85c24.73,1.66-10.08-6.83-7.83-0.82c0.58,2.04-1.14,3.2,1.03,3.71c13.2,3.12-1.96-0.71-1.96,2.58
		c0,2.22,10.31,0.5,8.98,1.83c-8.25-1.04-10,2.85-6.92,2.8c9.44-0.14,16.35-0.03,7.4-2.83c6.78-0.66,5.87-0.43,6.2-1.08
		c-1.91-3.18,0.75-0.29,2.58-2.78c-14.52-4.54-12.12-1.66-14.83-3.91C224.59,561.55,226.14,561.74,227.78,561.85z M228.2,569.17
		c-0.18,0-0.05-0.01-0.02-0.02L228.2,569.17z"/>
	<path d="M231.9,593.79c-0.72-0.22-1.55-0.31-2.58-0.52c-2.16-2.47-2.15-2.54-5.05-3.19c-12.08-2.72-13.07,3.16-10.92,4.02
		c5.53-5.53,12.42-0.9,18.54,1.96C232.43,596.58,233.75,594.36,231.9,593.79z"/>
	<path d="M230.77,574.21c-3.5-1.65-7-1.96-10.61-1.65c-0.41,0-0.72,0.72-1.44,1.34C222.46,576.19,228.51,575.53,230.77,574.21z"/>
	<path d="M219.03,576.48c1.1,3.29,14.18,0.8,9.27-0.31C225.74,575.6,221.19,575.86,219.03,576.48z"/>
<path fill="#e6e6e6" d="m206.8 163.6c0-5.1 4.1-9.2 9.3-9.2s9.2 4.2 9.2 9.2-4.1 9.2-9.3 9.2-9.2-4.1-9.2-9.2zm17.3-.1c0-4.5-3.5-8.2-8.2-8.2s-8.2 3.7-8.2 8.3c0 4.5 3.5 8.2 8.2 8.2s8.2-3.7 8.2-8.3zm-13 0c0-2.8 2.1-5.1 5.1-5.1 1.9 0 2.9.6 3.9 1.5l-1.4 1.7c-.8-.7-1.5-1.1-2.5-1.1-1.7 0-2.8 1.4-2.8 3.1s1.1 3 2.8 3c1.1 0 1.7-.5 2.5-1.1l1.4 1.4c-1.1 1.1-2.1 1.7-4 1.7-2.9 0-5-2.3-5-5.1z"/><path fill="#e6e6e6" d="m226.6 154.7h3.4l4.2 13.2 4.4-13.3h2.6l4.4 13.3 4.2-13.2h3.3l-6.2 18h-2.7l-4.4-12.8-4.4 12.8h-2.7z"/><path fill="#e6e6e6" d="m252.8 165.8c0-3.9 3.1-7 7.2-7 4.2 0 7.2 3.2 7.2 7s-3.1 7-7.3 7c-4 0-7.1-3.1-7.1-7zm11.3 0c0-2.3-1.7-4.3-4.2-4.3s-4.1 2-4.1 4.3 1.7 4.3 4.1 4.3c2.7.1 4.2-1.9 4.2-4.3z"/><path fill="#e6e6e6" d="m269.5 159.1h3.1v3c.8-2 2.4-3.4 4.8-3.3v3.2h-.2c-2.7 0-4.6 1.7-4.6 5.4v5.1h-3.1z"/><path fill="#e6e6e6" d="m279.1 153.9h3.1v11.1l5.6-6h3.8l-5.4 5.5 5.5 8h-3.5l-4.1-5.8-1.9 2v3.9h-3.1z"/><path fill="#e6e6e6" d="m291.7 165.8c0-3.9 3.1-7 7.2-7 4.2 0 7.2 3.2 7.2 7s-3.1 7-7.3 7c-4 0-7.1-3.1-7.1-7zm11.3 0c0-2.3-1.7-4.3-4.2-4.3s-4.1 2-4.1 4.3 1.7 4.3 4.1 4.3c2.6.1 4.2-1.9 4.2-4.3z"/><path fill="#e6e6e6" d="m308.2 167.6v-8.6h3.1v7.6c0 2.1 1.1 3.3 2.9 3.3s3-1.3 3-3.3v-7.6h3.1v13.4h-3.1v-2.1c-.8 1.3-2.1 2.3-4.2 2.3-3.1.2-4.8-1.8-4.8-5z"/><path fill="#e6e6e6" d="m323.9 168.8v-7.1h-1.7v-2.6h1.7v-3.7h3.1v3.7h3.6v2.6h-3.6v6.6c0 1.2.6 1.7 1.7 1.7.7 0 1.3-.2 1.9-.5v2.5c-.8.5-1.7.7-2.8.7-2.3 0-3.9-.9-3.9-3.9z"/><path fill="#e6e6e6" d="m333.2 154.7h3.2v15h9.4v2.9h-12.5v-17.9z"/><path fill="#e6e6e6" d="m356 172.5v-1.7c-.9 1.1-2.3 2-4.4 2-2.6 0-4.8-1.4-4.8-4.2 0-3 2.3-4.4 5.4-4.4 1.7 0 2.6.2 3.7.5v-.2c0-1.9-1.2-2.9-3.3-2.9-1.5 0-2.6.3-3.9.8l-.8-2.5c1.5-.7 2.9-1.1 5.1-1.1 4 0 5.9 2.1 5.9 5.7v8zm.1-5.6c-.8-.3-1.9-.5-3.1-.5-2 0-3.1.8-3.1 2.1s1.1 2 2.6 2c2 0 3.5-1.1 3.5-2.9z"/><path fill="#e6e6e6" d="m364.9 170.5v2.1h-3.1v-18.7h3.1v7.4c1-1.4 2.4-2.5 4.5-2.5 3.2 0 6.3 2.5 6.3 7s-3.1 7-6.3 7c-2.1 0-3.5-1.1-4.5-2.3zm7.7-4.7c0-2.6-1.7-4.3-3.9-4.3s-3.9 1.7-3.9 4.4c0 2.6 1.8 4.3 3.9 4.3s3.9-1.7 3.9-4.4z"/><path fill="#e6e6e6" d="m376.9 170.8 1.4-2.1c1.4 1.1 3 1.7 4.4 1.7s2.1-.5 2.1-1.5-1.3-1.4-2.8-1.8c-.1 0-.2-.1-.2-.1-2-.6-4.2-1.4-4.2-4s2.1-4.1 4.8-4.1c1.7 0 3.5.6 5 1.5l-1.2 2.2c-1.3-.8-2.6-1.3-3.8-1.3s-1.9.5-1.9 1.4 1.3 1.4 2.8 1.8c.1 0 .2.1.2.1 2 .6 4.2 1.5 4.2 4 0 2.9-2.2 4.2-5 4.2-1.9 0-4-.7-5.8-2z"/><path fill="#e6e6e6" d="m505.6 163.6c0-5.1 4.1-9.2 9.3-9.2s9.2 4.2 9.2 9.2-4.1 9.2-9.3 9.2-9.2-4.1-9.2-9.2zm17.4-.1c0-4.5-3.5-8.2-8.2-8.2s-8.2 3.7-8.2 8.3c0 4.5 3.5 8.2 8.2 8.2s8.2-3.7 8.2-8.3zm-13.1 0c0-2.8 2.1-5.1 5.1-5.1 1.9 0 2.9.6 3.9 1.5l-1.4 1.7c-.8-.7-1.5-1.1-2.5-1.1-1.7 0-2.8 1.4-2.8 3.1s1.1 3 2.8 3c1.1 0 1.7-.5 2.5-1.1l1.4 1.4c-1.1 1.1-2.1 1.7-4 1.7-2.9 0-5-2.3-5-5.1z"/><path fill="#e6e6e6" d="m525.4 154.7h3.4l4.2 13.2 4.4-13.3h2.6l4.4 13.3 4.2-13.2h3.3l-6.2 18h-2.7l-4.4-12.8-4.4 12.8h-2.7z"/><path fill="#e6e6e6" d="m551.7 165.8c0-3.9 3.1-7 7.2-7 4.2 0 7.2 3.2 7.2 7s-3.1 7-7.3 7c-4.1 0-7.1-3.1-7.1-7zm11.2 0c0-2.3-1.7-4.3-4.2-4.3s-4.1 2-4.1 4.3 1.7 4.3 4.1 4.3c2.7.1 4.2-1.9 4.2-4.3z"/><path fill="#e6e6e6" d="m568.3 159.1h3.1v3c.8-2 2.4-3.4 4.8-3.3v3.2h-.2c-2.7 0-4.6 1.7-4.6 5.4v5.1h-3.1z"/><path fill="#e6e6e6" d="m577.9 153.9h3.1v11.1l5.6-6h3.8l-5.4 5.5 5.5 8h-3.5l-4.1-5.8-1.9 2v3.9h-3.1z"/><path fill="#e6e6e6" d="m590.6 165.8c0-3.9 3.1-7 7.2-7 4.2 0 7.2 3.2 7.2 7s-3.1 7-7.3 7c-4.1 0-7.1-3.1-7.1-7zm11.2 0c0-2.3-1.7-4.3-4.2-4.3s-4.1 2-4.1 4.3 1.7 4.3 4.1 4.3c2.6.1 4.2-1.9 4.2-4.3z"/><path fill="#e6e6e6" d="m607 167.6v-8.6h3.1v7.6c0 2.1 1.1 3.3 2.9 3.3s3-1.3 3-3.3v-7.6h3.1v13.4h-3.1v-2.1c-.8 1.3-2.1 2.3-4.2 2.3-3 .2-4.8-1.8-4.8-5z"/><path fill="#e6e6e6" d="m622.7 168.8v-7.1h-1.7v-2.6h1.7v-3.7h3.1v3.7h3.6v2.6h-3.6v6.6c0 1.2.6 1.7 1.7 1.7.7 0 1.3-.2 1.9-.5v2.5c-.8.5-1.7.7-2.8.7-2.3 0-3.9-.9-3.9-3.9z"/><path fill="#e6e6e6" d="m632 154.7h3.2v15h9.4v2.9h-12.6z"/><path fill="#e6e6e6" d="m654.8 172.5v-1.7c-.9 1.1-2.3 2-4.4 2-2.6 0-4.8-1.4-4.8-4.2 0-3 2.3-4.4 5.4-4.4 1.7 0 2.6.2 3.7.5v-.2c0-1.9-1.2-2.9-3.3-2.9-1.5 0-2.6.3-3.9.8l-.8-2.5c1.5-.7 2.9-1.1 5.1-1.1 4 0 5.9 2.1 5.9 5.7v8zm.1-5.6c-.8-.3-1.9-.5-3.1-.5-2 0-3.1.8-3.1 2.1s1.1 2 2.6 2c2 0 3.5-1.1 3.5-2.9z"/><path fill="#e6e6e6" d="m663.7 170.5v2.1h-3.1v-18.7h3.1v7.4c1-1.4 2.4-2.5 4.5-2.5 3.2 0 6.3 2.5 6.3 7s-3.1 7-6.3 7c-2.1 0-3.5-1.1-4.5-2.3zm7.8-4.7c0-2.6-1.7-4.3-3.9-4.3-2.1 0-3.9 1.7-3.9 4.4 0 2.6 1.8 4.3 3.9 4.3s3.9-1.7 3.9-4.4z"/><path fill="#e6e6e6" d="m675.8 170.8 1.4-2.1c1.4 1.1 3 1.7 4.4 1.7s2.1-.5 2.1-1.5-1.3-1.4-2.8-1.8c-.1 0-.2-.1-.2-.1-2-.6-4.2-1.4-4.2-4s2.1-4.1 4.8-4.1c1.7 0 3.5.6 5 1.5l-1.2 2.2c-1.3-.8-2.6-1.3-3.8-1.3s-1.9.5-1.9 1.4 1.3 1.4 2.8 1.8c.1 0 .2.1.2.1 2 .6 4.2 1.5 4.2 4 0 2.9-2.2 4.2-5 4.2-2 0-4.1-.7-5.8-2z"/><path fill="#e6e6e6" d="m61 298.6c0-5.1 4.1-9.2 9.3-9.2s9.2 4.2 9.2 9.2-4.1 9.2-9.3 9.2c-5.1 0-9.2-4.2-9.2-9.2zm17.4-.1c0-4.5-3.5-8.2-8.2-8.2s-8.2 3.7-8.2 8.3c0 4.5 3.5 8.2 8.2 8.2s8.2-3.7 8.2-8.3zm-13.1-.1c0-2.8 2.1-5.1 5.1-5.1 1.9 0 2.9.6 3.9 1.5l-1.4 1.7c-.8-.7-1.5-1.1-2.5-1.1-1.7 0-2.8 1.4-2.8 3.1s1.1 3 2.8 3c1.1 0 1.7-.5 2.5-1.1l1.4 1.4c-1.1 1.1-2.1 1.7-4 1.7-2.8.1-5-2.2-5-5.1z"/><path fill="#e6e6e6" d="m80.9 289.7h3.4l4.2 13.2 4.4-13.3h2.6l4.4 13.3 4.2-13.2h3.3l-6.2 18h-2.7l-4.4-12.8-4.4 12.8h-2.7z"/><path fill="#e6e6e6" d="m107.1 300.8c0-3.9 3.1-7 7.2-7s7.2 3.2 7.2 7-3.1 7-7.3 7c-4 0-7.1-3.1-7.1-7zm11.3 0c0-2.3-1.7-4.3-4.2-4.3s-4.1 2-4.1 4.3 1.7 4.3 4.1 4.3c2.6.1 4.2-1.9 4.2-4.3z"/><path fill="#e6e6e6" d="m123.7 294h3.1v3c.8-2 2.4-3.4 4.8-3.3v3.2h-.2c-2.7 0-4.6 1.7-4.6 5.4v5.1h-3.1z"/><path fill="#e6e6e6" d="m133.4 288.9h3.1v11.1l5.6-6h3.8l-5.4 5.5 5.5 8h-3.5l-4.1-5.8-1.9 1.9v3.9h-3.1z"/><path fill="#e6e6e6" d="m146 300.8c0-3.9 3.1-7 7.2-7s7.2 3.2 7.2 7-3.1 7-7.3 7c-4.1 0-7.1-3.1-7.1-7zm11.2 0c0-2.3-1.7-4.3-4.2-4.3s-4.1 2-4.1 4.3 1.7 4.3 4.1 4.3c2.6.1 4.2-1.9 4.2-4.3z"/><path fill="#e6e6e6" d="m162.4 302.6v-8.6h3.1v7.6c0 2.1 1.1 3.3 2.9 3.3s3-1.3 3-3.3v-7.6h3.1v13.4h-3.1v-2.1c-.8 1.3-2.1 2.3-4.2 2.3-3 .2-4.8-1.8-4.8-5z"/><path fill="#e6e6e6" d="m178.1 303.8v-7.1h-1.7v-2.7h1.7v-3.7h3.1v3.7h3.6v2.6h-3.6v6.6c0 1.2.6 1.7 1.7 1.7.7 0 1.3-.2 1.9-.5v2.5c-.8.5-1.7.7-2.8.7-2.3.1-3.9-.9-3.9-3.8z"/><path fill="#e6e6e6" d="m187.4 289.7h3.2v15h9.4v2.9h-12.5v-17.9z"/><path fill="#e6e6e6" d="m210.2 307.5v-1.7c-.9 1.1-2.3 2-4.4 2-2.6 0-4.8-1.4-4.8-4.2 0-3 2.3-4.4 5.4-4.4 1.7 0 2.6.2 3.7.5v-.2c0-1.9-1.2-2.9-3.3-2.9-1.5 0-2.6.3-3.9.8l-.8-2.5c1.5-.7 2.9-1.1 5.1-1.1 4 0 5.9 2.1 5.9 5.7v8zm.1-5.6c-.8-.3-1.9-.5-3.1-.5-2 0-3.1.8-3.1 2.1s1.1 2 2.6 2c2 0 3.5-1.1 3.5-2.9z"/><path fill="#e6e6e6" d="m219.2 305.5v2.1h-3.1v-18.7h3.1v7.4c1-1.4 2.4-2.5 4.5-2.5 3.2 0 6.3 2.5 6.3 7s-3.1 7-6.3 7c-2.2 0-3.6-1.1-4.5-2.3zm7.7-4.7c0-2.6-1.7-4.3-3.9-4.3s-3.9 1.7-3.9 4.4c0 2.6 1.8 4.3 3.9 4.3s3.9-1.7 3.9-4.4z"/><path fill="#e6e6e6" d="m231.2 305.8 1.4-2.1c1.4 1.1 3 1.7 4.4 1.7s2.1-.5 2.1-1.5-1.3-1.4-2.8-1.8c-.1 0-.2-.1-.2-.1-2-.6-4.2-1.4-4.2-4s2.1-4.1 4.8-4.1c1.7 0 3.5.6 5 1.5l-1.2 2.2c-1.3-.8-2.6-1.3-3.8-1.3s-1.9.5-1.9 1.4 1.3 1.4 2.8 1.8c.1 0 .2.1.2.1 2 .6 4.2 1.5 4.2 4 0 2.9-2.2 4.2-5 4.2-2 0-4.1-.7-5.8-2z"/><path fill="#e6e6e6" d="m360.6 298.6c0-5.1 4.1-9.2 9.3-9.2s9.2 4.2 9.2 9.2-4.1 9.2-9.3 9.2-9.2-4.2-9.2-9.2zm17.4-.1c0-4.5-3.5-8.2-8.2-8.2s-8.2 3.7-8.2 8.3c0 4.5 3.5 8.2 8.2 8.2s8.2-3.7 8.2-8.3zm-13.1-.1c0-2.8 2.1-5.1 5.1-5.1 1.9 0 2.9.6 3.9 1.5l-1.4 1.7c-.8-.7-1.5-1.1-2.5-1.1-1.7 0-2.8 1.4-2.8 3.1s1.1 3 2.8 3c1.1 0 1.7-.5 2.5-1.1l1.4 1.4c-1.1 1.1-2.1 1.7-4 1.7-2.8.1-5-2.2-5-5.1z"/><path fill="#e6e6e6" d="m380.5 289.7h3.4l4.2 13.2 4.4-13.3h2.6l4.4 13.3 4.2-13.2h3.3l-6.2 18h-2.7l-4.4-12.8-4.4 12.8h-2.7z"/><path fill="#e6e6e6" d="m406.7 300.8c0-3.9 3.1-7 7.2-7 4.2 0 7.2 3.2 7.2 7s-3.1 7-7.3 7c-4.1 0-7.1-3.1-7.1-7zm11.3 0c0-2.3-1.7-4.3-4.2-4.3s-4.1 2-4.1 4.3 1.7 4.3 4.1 4.3c2.7.1 4.2-1.9 4.2-4.3z"/><path fill="#e6e6e6" d="m423.3 294h3.1v3c.8-2 2.4-3.4 4.8-3.3v3.2h-.2c-2.7 0-4.6 1.7-4.6 5.4v5.1h-3.1z"/><path fill="#e6e6e6" d="m433 288.9h3.1v11.1l5.6-6h3.8l-5.4 5.5 5.5 8h-3.5l-4.1-5.8-1.9 2v3.9h-3.1z"/><path fill="#e6e6e6" d="m445.6 300.8c0-3.9 3.1-7 7.2-7 4.2 0 7.2 3.2 7.2 7s-3.1 7-7.3 7c-4.1 0-7.1-3.1-7.1-7zm11.3 0c0-2.3-1.7-4.3-4.2-4.3s-4.1 2-4.1 4.3 1.7 4.3 4.1 4.3c2.6.1 4.2-1.9 4.2-4.3z"/><path fill="#e6e6e6" d="m462.1 302.6v-8.6h3.1v7.6c0 2.1 1.1 3.3 2.9 3.3s3-1.3 3-3.3v-7.6h3.1v13.4h-3.1v-2.1c-.8 1.3-2.1 2.3-4.2 2.3-3.1.2-4.8-1.8-4.8-5z"/><path fill="#e6e6e6" d="m477.8 303.8v-7.1h-1.8v-2.7h1.7v-3.7h3.1v3.7h3.6v2.6h-3.6v6.6c0 1.2.6 1.7 1.7 1.7.7 0 1.3-.2 1.9-.5v2.5c-.8.5-1.7.7-2.8.7-2.2.1-3.8-.9-3.8-3.8z"/><path fill="#e6e6e6" d="m487.1 289.7h3.2v15h9.4v2.9h-12.5v-17.9z"/><path fill="#e6e6e6" d="m509.9 307.5v-1.7c-.9 1.1-2.3 2-4.4 2-2.6 0-4.8-1.4-4.8-4.2 0-3 2.3-4.4 5.4-4.4 1.7 0 2.6.2 3.7.5v-.2c0-1.9-1.2-2.9-3.3-2.9-1.5 0-2.6.3-3.9.8l-.8-2.5c1.5-.7 2.9-1.1 5.1-1.1 4 0 5.9 2.1 5.9 5.7v8zm.1-5.6c-.8-.3-1.9-.5-3.1-.5-2 0-3.1.8-3.1 2.1s1.1 2 2.6 2c2 0 3.5-1.1 3.5-2.9z"/><path fill="#e6e6e6" d="m518.8 305.5v2.1h-3.1v-18.7h3.1v7.4c1-1.4 2.4-2.5 4.5-2.5 3.2 0 6.3 2.5 6.3 7s-3.1 7-6.3 7c-2.2 0-3.5-1.1-4.5-2.3zm7.7-4.7c0-2.6-1.7-4.3-3.9-4.3s-3.9 1.7-3.9 4.4c0 2.6 1.8 4.3 3.9 4.3s3.9-1.7 3.9-4.4z"/><path fill="#e6e6e6" d="m530.8 305.8 1.4-2.1c1.4 1.1 3 1.7 4.4 1.7s2.1-.5 2.1-1.5-1.3-1.4-2.8-1.8c-.1 0-.2-.1-.2-.1-2-.6-4.2-1.4-4.2-4s2.1-4.1 4.8-4.1c1.7 0 3.5.6 5 1.5l-1.2 2.2c-1.3-.8-2.6-1.3-3.8-1.3s-1.9.5-1.9 1.4 1.3 1.4 2.8 1.8c.1 0 .2.1.2.1 2 .6 4.2 1.5 4.2 4 0 2.9-2.2 4.2-5 4.2-1.9 0-4.1-.7-5.8-2z"/><path fill="#e6e6e6" d="m659.5 298.6c0-5.1 4.1-9.2 9.3-9.2s9.2 4.2 9.2 9.2-4.1 9.2-9.3 9.2-9.2-4.2-9.2-9.2zm17.3-.1c0-4.5-3.5-8.2-8.2-8.2s-8.2 3.7-8.2 8.3c0 4.5 3.5 8.2 8.2 8.2 4.8 0 8.2-3.7 8.2-8.3zm-13-.1c0-2.8 2.1-5.1 5.1-5.1 1.9 0 2.9.6 3.9 1.5l-1.4 1.7c-.8-.7-1.5-1.1-2.5-1.1-1.7 0-2.8 1.4-2.8 3.1s1.1 3 2.8 3c1.1 0 1.7-.5 2.5-1.1l1.4 1.4c-1.1 1.1-2.1 1.7-4 1.7-2.9.1-5-2.2-5-5.1z"/><path fill="#e6e6e6" d="m679.3 289.7h3.4l4.2 13.2 4.4-13.3h2.6l4.4 13.3 4.2-13.2h3.3l-6.2 18h-2.6l-4.4-12.8-4.4 12.8h-2.7z"/><path fill="#e6e6e6" d="m705.5 300.8c0-3.9 3.1-7 7.2-7 4.2 0 7.2 3.2 7.2 7s-3.1 7-7.3 7c-4 0-7.1-3.1-7.1-7zm11.3 0c0-2.3-1.7-4.3-4.2-4.3s-4.1 2-4.1 4.3 1.7 4.3 4.1 4.3c2.7.1 4.2-1.9 4.2-4.3z"/><path fill="#e6e6e6" d="m722.1 294h3.1v3c.8-2 2.4-3.4 4.8-3.3v3.2h-.2c-2.7 0-4.6 1.7-4.6 5.4v5.1h-3.1z"/><path fill="#e6e6e6" d="m731.8 288.9h3.1v11.1l5.6-6h3.8l-5.4 5.5 5.5 8h-3.5l-4.1-5.8-1.9 2v3.9h-3.1z"/><path fill="#e6e6e6" d="m744.4 300.8c0-3.9 3.1-7 7.2-7 4.2 0 7.2 3.2 7.2 7s-3.1 7-7.3 7c-4.1 0-7.1-3.1-7.1-7zm11.3 0c0-2.3-1.7-4.3-4.2-4.3s-4.1 2-4.1 4.3 1.7 4.3 4.1 4.3c2.6.1 4.2-1.9 4.2-4.3z"/><path fill="#e6e6e6" d="m760.9 302.6v-8.6h3.1v7.6c0 2.1 1.1 3.3 2.9 3.3s3-1.3 3-3.3v-7.6h3.1v13.4h-3.1v-2.1c-.8 1.3-2.1 2.3-4.2 2.3-3.1.2-4.8-1.8-4.8-5z"/><path fill="#e6e6e6" d="m776.6 303.8v-7.1h-1.7v-2.7h1.7v-3.7h3.1v3.7h3.6v2.6h-3.6v6.6c0 1.2.6 1.7 1.7 1.7.7 0 1.3-.2 1.9-.5v2.5c-.8.5-1.7.7-2.8.7-2.3.1-3.9-.9-3.9-3.8z"/><path fill="#e6e6e6" d="m785.9 289.7h3.2v15h9.4v2.9h-12.5v-17.9z"/><path fill="#e6e6e6" d="m808.7 307.5v-1.7c-.9 1.1-2.3 2-4.4 2-2.6 0-4.8-1.4-4.8-4.2 0-3 2.3-4.4 5.4-4.4 1.7 0 2.6.2 3.7.5v-.2c0-1.9-1.2-2.9-3.3-2.9-1.5 0-2.6.3-3.9.8l-.8-2.5c1.5-.7 2.9-1.1 5.1-1.1 4 0 5.9 2.1 5.9 5.7v8zm.1-5.6c-.8-.3-1.9-.5-3.1-.5-2 0-3.1.8-3.1 2.1s1.1 2 2.6 2c2 0 3.5-1.1 3.5-2.9z"/><path fill="#e6e6e6" d="m817.6 305.5v2.1h-3.1v-18.7h3.1v7.4c1-1.4 2.4-2.5 4.5-2.5 3.2 0 6.3 2.5 6.3 7s-3.1 7-6.3 7c-2.1 0-3.5-1.1-4.5-2.3zm7.7-4.7c0-2.6-1.7-4.3-3.9-4.3-2.1 0-3.9 1.7-3.9 4.4 0 2.6 1.8 4.3 3.9 4.3 2.2 0 3.9-1.7 3.9-4.4z"/><path fill="#e6e6e6" d="m829.6 305.8 1.4-2.1c1.4 1.1 3 1.7 4.4 1.7s2.1-.5 2.1-1.5-1.3-1.4-2.8-1.8c-.1 0-.2-.1-.2-.1-2-.6-4.2-1.4-4.2-4s2.1-4.1 4.8-4.1c1.7 0 3.5.6 5 1.5l-1.2 2.2c-1.3-.8-2.6-1.3-3.8-1.3s-1.9.5-1.9 1.4 1.3 1.4 2.8 1.8c.1 0 .2.1.2.1 2 .6 4.2 1.5 4.2 4 0 2.9-2.2 4.2-5 4.2-1.9 0-4-.7-5.8-2z"/><path fill="#e6e6e6" d="m206.3 434.2c0-5.1 4.1-9.2 9.3-9.2s9.2 4.2 9.2 9.2-4.1 9.2-9.3 9.2-9.2-4.1-9.2-9.2zm17.4-.1c0-4.5-3.5-8.2-8.2-8.2s-8.2 3.7-8.2 8.3c0 4.5 3.5 8.2 8.2 8.2s8.2-3.7 8.2-8.3zm-13.1-.1c0-2.8 2.1-5.1 5.1-5.1 1.9 0 2.9.6 3.9 1.5l-1.4 1.7c-.8-.7-1.5-1.1-2.5-1.1-1.7 0-2.8 1.4-2.8 3.1s1.1 3 2.8 3c1.1 0 1.7-.5 2.5-1.1l1.4 1.4c-1.1 1.1-2.1 1.7-4 1.7-2.9.1-5-2.2-5-5.1z"/><path fill="#e6e6e6" d="m226.1 425.3h3.4l4.2 13.2 4.4-13.3h2.6l4.4 13.3 4.2-13.2h3.3l-6.2 18h-2.7l-4.4-12.8-4.4 12.8h-2.7z"/><path fill="#e6e6e6" d="m252.4 436.4c0-3.9 3.1-7 7.2-7 4.2 0 7.2 3.2 7.2 7s-3.1 7-7.3 7c-4.1 0-7.1-3.1-7.1-7zm11.2 0c0-2.3-1.7-4.3-4.2-4.3s-4.1 2-4.1 4.3 1.7 4.3 4.1 4.3c2.7.1 4.2-1.9 4.2-4.3z"/><path fill="#e6e6e6" d="m269 429.7h3.1v3c.8-2 2.4-3.4 4.8-3.3v3.2h-.2c-2.7 0-4.6 1.7-4.6 5.4v5.1h-3.1z"/><path fill="#e6e6e6" d="m278.6 424.5h3.1v11.1l5.6-6h3.8l-5.4 5.5 5.5 8h-3.5l-4.1-5.8-1.9 2v3.9h-3.1z"/><path fill="#e6e6e6" d="m291.3 436.4c0-3.9 3.1-7 7.2-7 4.2 0 7.2 3.2 7.2 7s-3.1 7-7.3 7c-4.1 0-7.1-3.1-7.1-7zm11.2 0c0-2.3-1.7-4.3-4.2-4.3s-4.1 2-4.1 4.3 1.7 4.3 4.1 4.3c2.6.1 4.2-1.9 4.2-4.3z"/><path fill="#e6e6e6" d="m307.7 438.2v-8.6h3.1v7.6c0 2.1 1.1 3.3 2.9 3.3s3-1.3 3-3.3v-7.6h3.1v13.4h-3.1v-2.1c-.8 1.3-2.1 2.3-4.2 2.3-3 .2-4.8-1.8-4.8-5z"/><path fill="#e6e6e6" d="m323.4 439.4v-7.1h-1.7v-2.6h1.7v-3.7h3.1v3.7h3.6v2.6h-3.6v6.6c0 1.2.6 1.7 1.7 1.7.7 0 1.3-.2 1.9-.5v2.5c-.8.5-1.7.7-2.8.7-2.3 0-3.9-.9-3.9-3.9z"/><path fill="#e6e6e6" d="m332.7 425.3h3.2v15h9.4v2.9h-12.5v-17.9z"/><path fill="#e6e6e6" d="m355.5 443.1v-1.7c-.9 1.1-2.3 2-4.4 2-2.6 0-4.8-1.4-4.8-4.2 0-3 2.3-4.4 5.4-4.4 1.7 0 2.6.2 3.7.5v-.2c0-1.9-1.2-2.9-3.3-2.9-1.5 0-2.6.3-3.9.8l-.8-2.5c1.5-.7 2.9-1.1 5.1-1.1 4 0 5.9 2.1 5.9 5.7v8zm.1-5.6c-.8-.3-1.9-.5-3.1-.5-2 0-3.1.8-3.1 2.1s1.1 2 2.6 2c2 0 3.5-1.1 3.5-2.9z"/><path fill="#e6e6e6" d="m364.4 441.1v2.1h-3.1v-18.7h3.1v7.4c1-1.4 2.4-2.5 4.5-2.5 3.2 0 6.3 2.5 6.3 7s-3.1 7-6.3 7c-2.1 0-3.5-1.1-4.5-2.3zm7.7-4.7c0-2.6-1.7-4.3-3.9-4.3-2.1 0-3.9 1.7-3.9 4.4 0 2.6 1.8 4.3 3.9 4.3 2.2 0 3.9-1.7 3.9-4.4z"/><path fill="#e6e6e6" d="m376.5 441.4 1.4-2.1c1.4 1.1 3 1.7 4.4 1.7s2.1-.5 2.1-1.5-1.3-1.4-2.8-1.8c-.1 0-.2-.1-.2-.1-2-.6-4.2-1.4-4.2-4s2.1-4.1 4.8-4.1c1.7 0 3.5.6 5 1.5l-1.2 2.2c-1.3-.8-2.6-1.3-3.8-1.3s-1.9.5-1.9 1.4 1.3 1.4 2.8 1.8c.1 0 .2.1.2.1 2 .6 4.2 1.5 4.2 4 0 2.9-2.2 4.2-5 4.2-2 0-4.1-.7-5.8-2z"/><path fill="#e6e6e6" d="m505.1 434.2c0-5.1 4.1-9.2 9.3-9.2s9.2 4.2 9.2 9.2-4.1 9.2-9.3 9.2-9.2-4.1-9.2-9.2zm17.4-.1c0-4.5-3.5-8.2-8.2-8.2s-8.2 3.7-8.2 8.3c0 4.5 3.5 8.2 8.2 8.2s8.2-3.7 8.2-8.3zm-13.1-.1c0-2.8 2.1-5.1 5.1-5.1 1.9 0 2.9.6 3.9 1.5l-1.4 1.7c-.8-.7-1.5-1.1-2.5-1.1-1.7 0-2.8 1.4-2.8 3.1s1.1 3 2.8 3c1.1 0 1.7-.5 2.5-1.1l1.4 1.4c-1.1 1.1-2.1 1.7-4 1.7-2.9.1-5-2.2-5-5.1z"/><path fill="#e6e6e6" d="m525 425.3h3.4l4.2 13.2 4.4-13.3h2.6l4.4 13.3 4.2-13.2h3.3l-6.2 18h-2.7l-4.4-12.8-4.4 12.8h-2.7z"/><path fill="#e6e6e6" d="m551.2 436.4c0-3.9 3.1-7 7.2-7 4.2 0 7.2 3.2 7.2 7s-3.1 7-7.3 7c-4.1 0-7.1-3.1-7.1-7zm11.2 0c0-2.3-1.7-4.3-4.2-4.3s-4.1 2-4.1 4.3 1.7 4.3 4.1 4.3c2.7.1 4.2-1.9 4.2-4.3z"/><path fill="#e6e6e6" d="m567.8 429.7h3.1v3c.8-2 2.4-3.4 4.8-3.3v3.2h-.2c-2.7 0-4.6 1.7-4.6 5.4v5.1h-3.1z"/><path fill="#e6e6e6" d="m577.5 424.5h3.1v11.1l5.6-6h3.8l-5.4 5.5 5.5 8h-3.5l-4.1-5.8-1.9 2v3.9h-3.1z"/><path fill="#e6e6e6" d="m590.1 436.4c0-3.9 3.1-7 7.2-7 4.2 0 7.2 3.2 7.2 7s-3.1 7-7.3 7c-4.1 0-7.1-3.1-7.1-7zm11.2 0c0-2.3-1.7-4.3-4.2-4.3s-4.1 2-4.1 4.3 1.7 4.3 4.1 4.3c2.6.1 4.2-1.9 4.2-4.3z"/><path fill="#e6e6e6" d="m606.5 438.2v-8.6h3.1v7.6c0 2.1 1.1 3.3 2.9 3.3s3-1.3 3-3.3v-7.6h3.1v13.4h-3.1v-2.1c-.8 1.3-2.1 2.3-4.2 2.3-3 .2-4.8-1.8-4.8-5z"/><path fill="#e6e6e6" d="m622.2 439.4v-7.1h-1.7v-2.6h1.7v-3.7h3.1v3.7h3.6v2.6h-3.6v6.6c0 1.2.6 1.7 1.7 1.7.7 0 1.3-.2 1.9-.5v2.5c-.8.5-1.7.7-2.8.7-2.3 0-3.9-.9-3.9-3.9z"/><path fill="#e6e6e6" d="m631.5 425.3h3.2v15h9.4v2.9h-12.5v-17.9z"/><path fill="#e6e6e6" d="m654.3 443.1v-1.7c-.9 1.1-2.3 2-4.4 2-2.6 0-4.8-1.4-4.8-4.2 0-3 2.3-4.4 5.4-4.4 1.7 0 2.6.2 3.7.5v-.2c0-1.9-1.2-2.9-3.3-2.9-1.5 0-2.6.3-3.9.8l-.8-2.5c1.5-.7 2.9-1.1 5.1-1.1 4 0 5.9 2.1 5.9 5.7v8zm.1-5.6c-.8-.3-1.9-.5-3.1-.5-2 0-3.1.8-3.1 2.1s1.1 2 2.6 2c2 0 3.5-1.1 3.5-2.9z"/><path fill="#e6e6e6" d="m663.3 441.1v2.1h-3.1v-18.7h3.1v7.4c1-1.4 2.4-2.5 4.5-2.5 3.2 0 6.3 2.5 6.3 7s-3.1 7-6.3 7c-2.2 0-3.6-1.1-4.5-2.3zm7.7-4.7c0-2.6-1.7-4.3-3.9-4.3s-3.9 1.7-3.9 4.4c0 2.6 1.8 4.3 3.9 4.3s3.9-1.7 3.9-4.4z"/><path fill="#e6e6e6" d="m675.3 441.4 1.4-2.1c1.4 1.1 3 1.7 4.4 1.7s2.1-.5 2.1-1.5-1.3-1.4-2.8-1.8c-.1 0-.2-.1-.2-.1-2-.6-4.2-1.4-4.2-4s2.1-4.1 4.8-4.1c1.7 0 3.5.6 5 1.5l-1.2 2.2c-1.3-.8-2.6-1.3-3.8-1.3s-1.9.5-1.9 1.4 1.3 1.4 2.8 1.8c.1 0 .2.1.2.1 2 .6 4.2 1.5 4.2 4 0 2.9-2.2 4.2-5 4.2-2 0-4.1-.7-5.8-2z"/></g>
</svg>
