<?xml version="1.0" encoding="utf-8"?>
<!-- Generator: Adobe Illustrator 23.0.1, SVG Export Plug-In . SVG Version: 6.00 Build 0)  -->
<svg version="1.2" baseProfile="tiny" id="Layer_1" xmlns="http://www.w3.org/2000/svg" xmlns:xlink="http://www.w3.org/1999/xlink"
	 x="0px" y="0px" viewBox="0 0 900 600" xml:space="preserve">
<g>
	<path d="M413.69,519.14c-3.48-2.97-0.1-7.37-2.87-10.24c2.62-5.82,7.43-4.04,8.6,0.72c1.08,4.37,6.8,10.6,11.16,9.42
		c9.61-2.6,24.89-11.92,22.74-16.49c-1.02-1.13-2.46-1.13-3.48-1.54c-1.74,0.1-1.74,1.74-2.87,2.36c-0.82-1.64-1.43-3.89-4.1-2.15
		c0-10.86-0.91-21.41-2.46-31.85c-1.64-11.05,5.55-17.92,3.38-46.3c-0.49-6.46-1.94-49.67-1.95-49.78
		c-0.78-10.46-17.64-21.4-26.53-24.58c-14.64-5.23-14.86-3.97-16.9-5.43c-0.72-1.23-0.1-2.97-1.54-3.99
		c-1.13-0.2-2.56-0.21-3.58-0.82c-5.43-3.24-28.06-6.5-30.83-6.66c-18.56-1.08-30.39,8.08-52.44-4.71
		c-2.49-1.45-8.32-1.91-14.44-6.66c-8.64-6.71-15.03-3.21-35.03,0.51c-10.59,1.97,3.28,4.27-25.91-1.74
		c-18.19-3.75-11.12-8.6-45.89-8.6c-1.02-5.63-2.25-11.47-0.1-17.72c-4.3,1.27-6.08-1.2-3.48,17.72
		c2.41,17.52,5.48,27.16-4.81,45.27c-7.3,12.83,0.06,8.46-3.28,22.64c-0.27,0.54,0.19,1.11,0.61,1.54
		c8.22-7.12-3.33-7.57,8.09-27.55c3.38,1.23,6.55,3.18,9.63,5.12c1.64,1.03,3.59,2.46,3.07,5.12c-0.44,2.25,7.99,6.25,4.92,10.65
		c-3.69,5.28,1.13,5.25-4.2,11.78c-5.63,6.89,0.24,3.94,0.41,3.99c1.22,2.03-1.71-0.91-10.24,7.78c-2.77,2.82-8.39,2.94-12.6,3.18
		c-15.57,0.86-19.72,3.81-33.9-1.23c-5.22-1.85-8.69-5.53-9.42-11.78c-1.01-8.61-2.04-17.12-0.41-25.71
		c0.07-0.36,6.45-9.93,11.98-14.34c4.94-3.93,1.14-40.29,12.7-56.64c2.26-3.19,4.84-9.8,1.02-9.42c3-7.06-1.76-15.71,1.64-25.61
		c1.77-5.16-0.15-8.71,6.04-28.58c3.17-10.16-0.27-20.56-1.23-39.64c-0.33-6.61-2.82-4.76-11.16-15.26
		c-1.54-1.94-2.97-3.99-5.33-4.81c-1.13-3.99,3.89-4.1,3.79-6.76c1.43-1.33,3.38-0.51,4.61-2.25c-2.77-1.95-4.92,0.51-7.27,0.51
		c-0.72,1.64-1.03,3.27-2.66,4.51c-1.75,1.32-1.93,4.08-0.31,5.74c4.76,4.87,8.42,11.02,14.54,14.54c1.23,0.71,1.85,1.74,1.84,3.18
		c-0.11,23.84,4.39,30.31-1.13,46.09c-7.4,21.17-4.67,39.71-5.74,53.26c-0.52,6.59-3.5,0.5-6.86,17.92
		c-0.85,4.4-1.43,8.91-3.58,12.91c-5.43,0.72-10.24,2.97-15.26,5.12c-3.44-5.64,3.38-11.57-0.72-25.2
		c-0.83-2.77,1.21-9.64-1.33-17.62c-0.83-2.61-0.22-1.19,1.43-16.39c1.62-14.84-8.35-60.83-8.4-60.94c2.25-1.95,5.22-2.66,6.66-5.22
		c4.81,0,9.32-0.61,13.72-2.05c-5.94-0.2-11.78-0.61-18.03,0.2c-12.17-18.26-11.65-10.03-3.79-39.74c4.92,0.2,9.12-2.56,14.34-3.07
		c-1.95,8.09-3.89,15.67-5.84,23.76c1.84,3.89,5.02,7.48,8.3,10.75c4.51,6.45,8.86,8.18,3.07,0.82c-15.5-19.7-9.33-5.77-3.48-36.16
		c27.66-2.61,8.06-6.34,23.35,4.51c-1.95-4.3-4.3-7.48-6.96-10.45c-10.14,3.38-20.89,2.56-29.91,6.96
		c-4.1-0.92-6.35-5.53-10.75-4.71c-0.95,5.38,9.8-4.04-14.95,16.59c0.1,8.4,1.64,16.8,3.07,25.2c-0.61,0.51-1.33-0.2-1.74,0.51
		c0.2,1.43,2.77,1.13,2.46,3.28c-2.05-0.51-3.48-2.05-5.43-2.87c0.2-9.32-1.84-18.23-2.97-27.24c6.25-4.92,12.7-9.01,18.95-14.95
		c-6.09,0.53-3.49-3.22-6.56-0.92c-3.33,3.57-6.25,4.87-13.21,9.73c-11.4,7.95-1.31,14.05-3.48,25.71
		c-0.63,3.38,1.64,6.35,0.82,9.73c2.46,1.74,5.02,2.97,8.6,3.89c-1.84-2.87-4.92-2.97-6.96-5.12c1.13-5.02-0.12-10.34-0.41-15.67
		c-0.54-9.94-9.16-10.31,8.71-20.89c-2.46,3.07-6.04,4.81-8.4,7.48c0.41,9.63,2.77,18.85,2.77,28.58c3.07,2.05,6.66,4.3,10.24,6.56
		c-2.85,9.07,1.38,19.65-4.4,45.27c-5.6,24.81-4.77,24.4-1.43,42.92c2.05,11.37-4.74,23.33-3.69,32.57
		c0.55,4.82-0.41,9.42-0.51,14.24c-4.61,0.61-7.68-3.79-11.68-3.07c-1.84-1.54,0.1-3.99-2.05-5.02c-2.36,2.36-2.36,3.28,0.61,7.07
		c0.1,0.92-1.54,1.74-0.72,2.56c1.13,1.43,2.25,0.41,3.18,0.72c1.13-1.02-0.2-2.05,0-2.97c4.81-0.82,5.12,4.3,7.89,6.45
		c1.64-2.25-0.41-3.18-1.02-5.02c2.05,1.43,4.1,1.32,6.04,1.02c3.48-0.53,6.33,1.74,6.45,5.22c0.09,2.66-0.67,5.4,0.82,7.89
		c0.77,1.29-1.54,2.46-4.3,7.99c2.15-2.05,6.35-1.33,6.66-5.43c1.33,0.1,1.95,1.64,3.38,1.33c0.51-2.15-1.54-2.66-2.56-3.99
		c-0.1-1.02-0.2-2.25-0.31-3.48c5.84-4.4,12.29-4.81,19.15-3.07c-1.08-6.18-8.65-2.25-14.54-2.25c5.25-8.03,25.37-16.76,34-18.23
		c1.25,5.42-2.26,3.9-3.48,6.86c1.33,0.72,2.05-0.92,3.58-0.72c-0.41,6.15,1.61,12.54-2.05,18.54c-2.35,3.87-9.19,8.21-14.85,21.41
		c2.93,3.26-0.88,5.76,3.28,19.36c-2.97,4.51,0.61,7.48,2.05,11.16c-2.97-1.64-4.95-4.4-5.43-7.68
		c-4.24-29.37-1.12-25.75,4.92-39.13c2.38-5.28-4.35-12.91-6.15-9.32c8.36,7.97-6.78,18.72-3.89,33.6
		c1.33,6.86,1.13,14.03,5.02,20.59c-2.56,0-4.4-1.23-6.25-1.64c-0.82-1.02,0.82-1.33,0.1-2.36c-3.58-1.54-6.86-4.1-10.65-6.35
		c-0.2,2.05,1.23,2.66,1.74,4.2c-8.19-2.46-15.98-5.22-24.07-9.12c4.51-2.46,3.38-7.48,7.17-9.73c-2.05-1.95-3.89-2.97-6.35-2.87
		c-0.31,2.56,2.36,2.15,3.18,3.48c-2.46,3.07-3.18,7.89-8.4,8.19c-0.31-0.92,1.54-1.23,0.72-2.36c-0.92-0.51-1.64,0.82-2.87,0.41
		c0-1.13-2.25-1.74-1.02-3.48c3.69,1.64,3.69,1.64,7.99-2.05c-0.2-1.23-1.43-1.43-2.15-2.05c-1.23,0-2.05,0.72-3.18,0.82
		c-11.38,0.98,0.21,12.91-6.35,6.35c-0.51-0.51-1.23-0.72-1.43-1.54c0.51-1.33,1.84-2.15,2.15-3.79c-0.31-1.02-2.56-1.33-1.13-3.38
		c0.61-0.61,0.92,1.33,1.74,0.92c2.05-1.74,4.3-3.38,6.86-3.79c1.33-0.92,0.82-2.36,1.43-3.07c-0.41-0.72-0.92-1.02-1.33-0.92
		c-8.84,2.15-16.2-8.92-19.15-8.81c-1.95-3.79-0.41-9.01-5.43-10.75c-1.33-0.72-0.82-2.77-2.66-3.18c-1.54,1.02,0.31,2.66-1.02,4.1
		c-0.31-2.05-0.82-3.89-1.54-5.53c5.85-4.42,7.88-1.92,13.93,2.97c1.02,0.83,1.13,2.66,2.87,2.87c2.05-3.28,0.62-6.06-3.79-6.66
		c-1.54-0.21-2.66-0.61-3.99-2.05c5.02-2.05,8.4-6.45,13.42-8.71c-1.64-0.82-2.87-0.21-4.2,0.72c-20.74,14.54-4.45,2.1-23.35,8.4
		c-2.36-1.54-4.2-3.69-6.96-5.02c-1.54,2.66-3.58-0.61-5.63,0.51c-1.88,0.75,0.56,3.89-3.38,1.64c1.13-3.18,1.54-6.25-1.33-8.91
		c-2.56,1.95,0,4.61-1.23,6.66c-1.64-0.72-1.43-3.38-3.58-3.69c-2.05,2.36,0.82,4.4,0.51,6.56c-0.92,0.31-1.43-1.23-2.66-0.61
		c-1.13,2.46,1.74,3.18,2.46,5.12c-1.74,0.2-3.28-1.54-5.22-0.1c0.92,3.38-0.1,7.17,1.23,10.75c-1.02,0.61-2.25-0.61-3.18,0.92
		c-0.1,2.66,3.18,3.69,3.79,6.45c-2.56,1.02-4.4-2.56-7.17-1.02c-1.37,4.11-4.64,3.63-2.25,7.37c1.16,1.82,2.46,3.48,3.79,5.53
		c-1.23,2.36-0.41,4.51,1.64,6.25c-0.72,1.64-2.56-0.2-3.07,1.33c0.2,2.46,13.42,25.3,16.08,27.76c-3.22,4.21-0.44,4-1.02,9.32
		c-0.75,6.84,5.77,9.84,12.6,10.86c14.61,2.18,7.88,7.32,16.84,4.49c-3.3-1.16-6.72-2.23-9.05-5.82c0.31-4.92-1.13-10.24-0.82-15.77
		c0.81-0.04,10-0.42,10.65-0.92c3.14-2.45,16.82-3.21,26.32-6.15c1.02-1.02-0.2-2.15,1.43-2.56c6.66,0.72,13.52-0.56,20.38-0.61
		c5.8-0.04,3.28,2.81,20.59,6.56c0.92,0.2,1.93,0.6,2.77-0.1c3.51-2.95,5.06,0.87,16.9,4.81c0.72,1.74-0.41,3.69,0.82,6.15
		c0.72-2.46,1.02-4.4,2.25-5.74c8.19-0.72,16.39-1.6,24.58-2.05c11.9-0.66,7.89-2.82,14.34-3.99c7.07,2.56,13.62,2.36,20.28,0.82
		c-5.22-0.92-10.65-0.82-16.7-1.95c9.08-2.59,18.7-8.82,28.99-7.78c16.98,1.71,4.65-7.19,36.67,6.66c-10.86,0.51-21,2.15-31.14,1.43
		c5.12,0.31,10.04,1.13,15.16,1.33c0.51,2.97-0.1,5.63,0.2,8.3c1.74-2.46,1.54-5.53,2.56-8.3c5.33-1.54,10.86-0.61,16.7-1.64
		c-1.64,4.61-1.54,9.01-1.23,13.93c-16.7,1.43-32.78,5.53-49.68,5.43c-1.43-1.74,0.2-4.1-1.43-6.15c-3.15,8.67,8.72,5.25-19.97,7.17
		c-119.11,7.98-89.24,6.48-89.01,4.61c-1.74-0.61-3.28,0.92-5.12,0.1c0.41-3.69,0.92-7.27-0.51-10.86
		c-1.23,3.79-0.51,7.89-2.25,11.37c-8.91,1.95-17.72-0.1-26.53,0.31c-0.51-0.92-0.82-1.84-0.72-2.87c0.61-0.1,1.13,0.41,1.33-0.61
		c-3.98-9.45,0.86-5.88,1.64-6.66c0.1-1.95-3.99-1.33-2.46-4.3c1.74-0.61,3.58-0.51,5.63,0.2c-1.33,12.65-1.34,11.57-0.2,11.57
		c1.43-4.81,1.84-9.83,1.43-15.16c12.91,0.61,25.71-0.72,38.82-1.54c0,5.43,0.51,10.65,0.2,15.88c2.46-4.92,2.05-10.24,2.56-15.47
		c4.1-0.72,8.3,0.51,13.01-1.23c-27.04-1.15-34.17,1.63-58.89,0.51c-1.29-0.06-7.37-3.15-7.37-1.13c0.31,0.92,1.74,1.23,1.95,2.97
		c-1.54,2.66,0,5.53,1.33,8.4c-5.78,5.58,1.46,9.79-4.2,11.68c-0.66-0.28-1.33-0.52-2.02-0.77c-0.99,2.04-1.8,3.07-3.21,3.43
		c-7.78,2.03-25.22,17.93-28.27,35.95c-4.01,23.71-0.12,41.39-2.56,59.71c-0.31,2.35-0.1,4.71,0.1,7.17
		c0.42,5.12-0.72,10.14-0.61,15.26c-2.77-0.51-5.54-0.3-7.58-1.54c-6.06-3.66-12.81-1.92-19.15-3.48c-0.41-0.1-0.92,0.2-1.95,0.41
		c0.41,5.33,0.82,10.65,1.23,16.29c2.77-2.77,2.87-3.28,2.36-14.44c3.69,0.72,7.48,0,11.16,1.23c8.86,2.95,13.12,1.22,14.75,5.43
		c2.07-0.64,0.13,1.64,2.56-38.51c1.52-25.23-5.76-54.65,18.03-75.59c19.84-17.47,31.8-6.5,76.72-11.16
		c11.88-1.23,46.95-5.18,83.37-5.74c37.86-0.57,46.65-6.45,79.58-7.17c10.19-0.22,18.45-3.04,26.94-1.54c1.13,0.2,2.46,0.3,3.58,0.1
		c7.16-1.27,14.55,0.42,21.61-1.23c5.47-1.28,18.8,9.04,24.38,16.49c12.33,16.47,8.68,31.86,8.91,47.63
		c0.39,26.5-3.41,17.73-10.04,20.79c0-15.36,13.92-73.42-29.09-74.05c-13.45-0.2-21.91-2.36-45.48,0.82
		c-30.72,4.15-113.93,6.1-142.68,9.53c-65.5,7.81-71.93-1.1-85.42,16.29c-8.82,11.36-12.03,24.58-12.09,38.72
		c-0.02,4.92-0.83,9.83-0.2,14.54c1.42,10.61,0.51,12.71,0.51,52.34c-3.48,0.61-6.45,0.51-9.32,2.05c0.1-26.32,2.46-52.03-0.1-77.84
		c0.82,25.61-0.82,51.11-1.64,76.61c-1.23,0.51-2.25-0.92-3.69-0.1c2.87,1.84,5.33,3.89,9.01,3.07c0.92-0.2,0.1-1.02,1.13-1.74
		c5.25-1.62,14.2,6.54,31.65,10.24c6.63,1.41,1.86,2.7,8.91,3.58c0.1-0.51,0.2-0.82,0.2-0.92c-3.79-1.23-6.96-3.72-10.86-4.92
		c-3.32-1.02-22.94-7.73-22.94-9.83c0.01-0.1-0.59-55.82-0.1-61.86c0.86-10.78-2.15-31.09,18.33-48.14
		c10.8-8.99,183.93-15.79,202.08-16.7c2.67-0.13,47.86-7.73,67.19-0.1c-1.22,12.22,7.08,27.98,6.86,46.6
		c-0.05,4.61-2.14,9.74,1.43,13.62c-3.28,10.95,0.44,9.72,13.11,11.68c-0.41,7.89-1.02,15.57-2.87,23.15
		c-10.52-2.74-10.42-2.89-12.19-2.15c10.75,8.09,22.23,6.56,34,4.61c2.56-0.2,4.09,2.58,6.76,2.87c9.31,1,18.23,3.89,27.96,6.04
		c-3.99,2.05-8.3,1.95-11.68,4.4c0,4.61,0,9.12,0,13.93c-3.57-0.54-72.37-18.56-73.03-18.74c-17.19-4.92-14.55-0.99-12.8-1.13
		c6.4-0.5-3.09,0.65,80.3,21.41c16.16,4.02,17.75-3.53,23.25-1.33c2.87-6.04,1.84-12.8,3.48-19.36c-5.12-1.33-10.24-2.56-15.57-3.89
		C410.82,525.29,410.52,521.7,413.69,519.14z M106.52,149.49c-3.63,3.3-3.63,3.18-3.99,2.46
		C103.86,151.13,104.58,149.6,106.52,149.49z M125.67,314.29c0.27,3.18-0.2,6.45,1.02,9.73c-3.28,1.64-5.33,4.79-8.81,5.53
		c-7.66,1.63-10.02,9.02-12.19,10.75c-1.65-10.79-8.91-6.4-8.91-10.34c0.52-9.37-0.61-15.12,0.2-18.13
		c7.14-26.37,0.58-40.58,1.33-47.01c2.24-19.29,6.95-19.49,7.37-53.98c0.01-0.82,0.29-1.83-0.1-2.46c-2.12-3.34-0.1-6.45,0.31-10.04
		c4.2,2.56,8.4,3.79,12.7,5.12c-4.81-4.1-11.68-5.02-16.18-9.94c4.66-3.33-0.17,1.12-0.72-5.94c-1.11-14.26-5.78-20.73-0.41-25.09
		c4.74-3.85,9.83-7.48,14.13-11.98c1.64,0.82,3.48,0.72,4.92,2.05c-1.95,0.61-2.17,0.71-2.46,1.64
		c-7.38,23.94-4.05,23.33-6.86,25.09c3.07,6.96,8.09,12.29,13.01,17.72c-6.39,6.01-4.1,3.73-4.1,7.58c0,6.25-1.53,6.53,4.61,33.29
		c6.51,28.37-1.97,35.74,0.82,41.48c1.78,3.67,2.38,7.79,1.43,11.47c-1,3.9,0.19,7.27,0.51,10.75
		C128.4,313.31,125.5,312.2,125.67,314.29z M19.46,359.77c1.13-0.61,2.05-1.02,3.28-1.54c-0.41,1.84,0.82,3.18,1.02,4.81
		C20.89,363.66,20.79,361.1,19.46,359.77z M23.76,374.62c-0.71-1.13,0.72-2.05,0.31-3.07c-0.41-1.02-1.64-1.33-1.95-2.66
		c0.51-0.41,0.51-1.33,1.54-1.64c4.37,1.46-0.94,4.4,2.36,9.22C24.89,376.16,24.28,375.44,23.76,374.62z M25.61,378.82
		c2.05-0.31,2.25,0.61,2.56,1.64C26.63,381.18,26.22,380.26,25.61,378.82z M28.17,366.74c-0.82-0.31-1.23-0.82-0.61-1.74
		C28.47,365.51,28.47,366.02,28.17,366.74z M24.99,358.54c2.46-1.43,3.48,0,4.3,1.74C27.76,359.98,26.12,359.98,24.99,358.54z
		 M27.45,352.19c0-2.05,0-3.79,0-5.63c2.15,0.61,2.97,2.05,3.69,3.69C30.22,351.06,29.19,351.58,27.45,352.19z M28.58,339.39
		c1.33-0.2,1.95,0.2,2.56,1.02C29.6,341.33,29.19,340.51,28.58,339.39z M54.9,359.67c-2.25,0.61-3.38-0.2-4.2-2.15
		C52.85,357.11,53.98,357.93,54.9,359.67z M51.11,347.27c0.31,0.41,0.92,0.51,0.51,1.54C50.9,348.5,50.6,348.09,51.11,347.27z
		 M52.03,338.77c-3.79-1.64-4.2-2.15-5.02-5.63C48.86,335.19,50.39,336.93,52.03,338.77z M51.31,350.14
		c-0.41,3.58-1.33,5.22-3.07,5.94C36.61,346.78,48.33,357.41,51.31,350.14z M48.96,394.19c1.23,0.61,1.64,1.33,1.43,2.36
		C48.45,396.13,48.45,396.13,48.96,394.19z M48.14,366.22c-0.62,0.93-1.72-0.34-0.61-1.23C48.24,365.4,48.45,365.81,48.14,366.22z
		 M46.6,370.32c-1.23,0.1-2.66,0.92-3.69-0.92C44.55,369.09,45.68,369.19,46.6,370.32z M46.91,376.16
		c-2.15,0.61-3.69-0.41-5.33-1.02C43.43,374.31,45.07,374.83,46.91,376.16z M44.66,379.74c0,1.54-1.23,1.64-2.46,2.05
		c0-1.33,0-2.46,0-3.79C43.53,378.21,44.66,378.21,44.66,379.74z M41.07,332.53c0.41,0.72,0.1,1.23-0.41,1.74
		c0.31,0.51,0.72,1.13,1.43,2.25c-2.25-1.33-2.25-1.33-1.43-2.25C40.66,333.65,39.95,332.94,41.07,332.53z M38.82,343.18
		c-1.74-0.41-2.66-1.13-2.97-2.56C37.08,340.92,38,341.74,38.82,343.18z M35.85,333.14c-0.82,0.61-1.33,1.02-2.15,0.82
		C33.9,332.42,33.9,332.42,35.85,333.14z M35.23,398.18c-1.02-0.92-1.74-2.05-2.05-3.48C35.34,396.13,35.34,396.13,35.23,398.18z
		 M37.49,415.18c-0.1-3.69,1.54-7.07,0.82-10.86c-1.33,1.33-0.92,2.97-1.84,4.4c-0.2-2.25-2.15-4.3,0.2-6.45
		c5.21,2.14,7.24,3.58,8.19,2.25c1.54-2.46,3.89-1.74,6.35-2.25c0.61,6.15,1.33,11.98,1.43,18.54
		C47.42,418.15,41.48,419.28,37.49,415.18z M48.96,362.74c2.66-1.13,4.3,0,6.45,1.43C52.85,364.38,50.9,364.99,48.96,362.74z
		 M70.06,356.19c-5.02-0.31-8.91-3.28-13.11-5.43C62.38,350.35,65.24,355.37,70.06,356.19z M65.96,379.95
		c-1.33,0.41-2.77,1.02-3.99-0.51C63.3,379.64,64.63,379.74,65.96,379.95z M61.86,373.7c1.23-0.92,1.64-0.2,2.25,0.41
		C63.2,374.52,62.58,374.62,61.86,373.7z M58.89,383.12c0.23-1.53,1.23-0.92,2.25-0.61c0.1,0.92,0.2,1.95,0.31,3.69
		C60.23,384.86,58.62,384.97,58.89,383.12z M60.64,390.09c0.1-0.31,0.2-0.61,0.61-0.51C61.43,390.31,60.93,390.38,60.64,390.09z
		 M58.28,400.84c1.54,0,3.07-0.82,5.12-0.41C60.74,401.46,60.74,401.46,58.28,400.84z M61.97,393.47c1.13-0.51,2.05-0.92,3.48,0.1
		C64.12,393.88,63.3,394.8,61.97,393.47z M65.76,390.91c0.41-0.31,0.61-1.02,1.43-0.41C66.88,391.01,66.47,391.42,65.76,390.91z
		 M66.06,361.82c0.31-0.92,0.61-1.54,1.84-1.84C69.32,361.23,76.47,362.98,66.06,361.82z M74.16,396.13
		c3.48-2.36,3.99-2.46,5.94-0.72C77.84,395.62,76.2,395.82,74.16,396.13z M81.02,385.99c-0.51-0.1-0.92-0.31-0.82-0.92
		C81.22,384.76,81.43,385.07,81.02,385.99z M93.62,384.66c0.31,0.61,1.54-0.1,1.43,1.02C93.92,386.71,93.41,386.3,93.62,384.66z
		 M86.45,393.37c0.61-0.61,1.02-1.74,2.25-1.74C88.16,394.34,85.78,394.03,86.45,393.37z M88.9,383.64c0.61-0.51,1.13-1.13,2.05,0.1
		C90.13,384.25,89.52,384.45,88.9,383.64z M91.26,391.42c4.71-4.4,11.57-4.61,16.18-0.72C102.12,390.7,96.89,391.73,91.26,391.42z
		 M76.82,406.48c0.31,2.51-1.28,1.82-5.53,1.02c0-0.41-0.1-0.72-0.1-1.02C72.93,405.04,74.87,406.07,76.82,406.48z M415.94,549.77
		c0.82-1.15,2.85-1.54,2.97-0.72C417.99,549.56,417.07,550.18,415.94,549.77z M419.84,546.49c-5.02,1.33-10.45,0.82-13.83,5.74
		c1.95-4.3,0.92-8.71,0.92-13.21c4.81-0.92,9.42-2.05,14.13-4.4C420.66,538.81,420.25,542.5,419.84,546.49z M442.47,504.7
		c1.43,0.82,1.54,2.56,2.87,3.18c0.92-0.1,0.92-1.95,2.25-1.02c-4.4,5.84-7.89,7.27-18.54,9.42c-1.54-1.23-3.58-1.95-4.92-3.79
		C430.08,509.21,437.04,508.7,442.47,504.7z M397.92,346.66c12.09,1.95,22.33,6.96,31.44,14.44c-0.31,2.46,0.1,4.81,1.43,7.07
		c1.13-1.54,0.61-3.07,1.33-4.71c2.77,1.84,5.17,3.98,5.94,6.86c1.76,6.63,1.95,13.42,1.02,20.18c-1.42,10.44,3.55,43.31,0.31,61.97
		c-3.33,19.18-2.21,38.46,0.82,50.7c-4.61,1.84-9.22,3.18-14.13,4.71c1.11-18.3-1.31-6.26-3.48,1.23c-0.92-3.18-3.28-4.3-5.33-5.94
		c-0.99-57.48-20.78-52.41-10.34-100.89c1.45-6.76-2.78-13.39-9.73-14.03c-2.05-0.19-4.5-0.73-3.28-2.36
		c3.18,0.41,6.35,2.15,9.63,0.2c-3.18-1.23-6.56-1.23-10.24-2.87C395.56,371.34,398.33,359.16,397.92,346.66z M201.78,362.54
		c3.48,2.36,3.89,3.18,3.38,6.66C203.93,366.74,202.9,364.69,201.78,362.54z M229.33,387.63c0-1.87,5.67-1.06,9.32-0.82
		C235.58,387.02,232.4,387.32,229.33,387.63z M225.44,387.53c-4.41-0.73-19.31,3.93-23.46,6.56c-2.25,1.43-4.81,1.84-8.09,2.46
		c4.71-3.48,8.72-6.14,9.42-12.39c0.58-5.21,7.61-17.31,0.31-22.74c-4.64-3.45-8.5-8-14.24-9.73c-1.02-0.31-2.25-0.72-2.87-1.74
		c4.35-21.38,5.86-17.08,1.74-35.44c38.69-1.14,29.64,5.98,51.31,9.12c7.58,1.1,8.67,12.59,10.96,21.1
		c0.94-12.24-6.75-19.72-2.56-18.95c4.29,0.79,8.3,2.58,12.91,2.36c7.21-0.35,3.63,18.57,2.15,25.61c3.79-6.96,4.4-14.44,2.97-22.74
		c12.56,6.85,6.98,4.2,7.99,8.6c1.45,6.35,0.4,12.7-0.72,19.05c-1.44,8.19-7.07,12.8-13.93,16.29c1.31-2.63,9.24-7.44,10.55-22.53
		c0.18-2.05,0.31-4.1-2.05-5.94c0,3.95,0.42,7.34-1.23,9.12c-7.99,8.59-15.26,17.92-25.09,24.68c-1.1,1.1,1.08,5.41,24.68-22.12
		c-2.33,14.01-16.88,20.35-21.41,23.05C233.32,388,229.08,380.46,225.44,387.53z M269.79,371.65c0.2-0.51,0.41-1.02,1.02-0.92
		C271.01,371.75,270.5,371.75,269.79,371.65z M259.24,374.93c-0.1,0.72-0.61,1.02-1.54,1.02
		C258.11,375.24,258.52,374.93,259.24,374.93z M272.65,411.8c-1.33,0.71-2.97,0.61-4.71-0.1c2.19-10.68,0.44-13.72,5.02-10.86
		c-0.72,1.23-0.2,2.25,1.02,2.77c1.23,0.51,1.84,1.64,2.56,2.25c5.02-0.82,9.94,0.31,14.85,0.41c9.94,0.21,13.21,0.92,14.34,2.56
		C290.22,411.42,278.94,408.45,272.65,411.8z M326.32,406.78c-9.19-2.43-14.14,1.52-23.66-1.64c-11.24-3.73-23.17-0.37-25.71-5.02
		c-1.43,0.61-2.56,1.84-3.99,0.61c0.92-1.95-1.23-3.07-1.54-5.53c13.47-4.81,7.52-1.71,21-24.17c10.21-17.02-3.45-28.11-0.82-31.96
		c-8.85-0.84,11.37,14.39-1.74,32.88c-8.96,12.64-6.99,17.95-13.42,18.95c-12.93,2-2.66,5.19-23.86-2.77
		c1.43-0.61,2.66,0.2,3.99-0.51c0.72-0.82,1.33-1.84,2.05-2.77c-4.53-6.35-0.98-0.61-9.12-0.61c-5.13,0,1.32,4.16-5.63,1.84
		c2.25-1.84,4.39-3.11,6.76-3.79c14.78-4.22,11.13-5.94,12.91-5.94c3.28,0.51-0.31,3.89,2.36,5.02c0-4.3,4.4-4.61,6.04-6.56
		c0.2-1.84-1.54-0.61-1.43-1.84c0.51-2.36,3.79-1.33,4.3-3.58c0.1-1.54-1.84-0.61-2.25-1.64c1.74-2.87,4.2-5.12,3.89-8.71
		c1.22,0.72,2.24,1.74,3.57,1.84c0.75-0.86,2.16-1.38,2.26-2.56c0-1.95-2.05-2.05-2.46-3.38c0.72-0.82,2.46-0.41,2.66-2.15
		c-1.64-1.43-2.87-3.28-4.71-4.51c-0.2-1.84-0.1-3.69,0.2-5.33c2.05,0.2,0.51,1.54,1.02,2.25c2.15,0.41,2.15,0.41,3.79-0.51
		c0.17-1.38-2.43-1.61-2.77-2.97c0.2-0.82,1.54-1.23,1.23-2.36c-1.43-2.05-1.54-2.36-1.54-3.69c-5.84-5.22-12.91-7.78-20.18-11.88
		c17.23-2.72,5.15-4.37,38.61,13.01c0.1,2.05,0.73,3.98,2.15,5.53c4.81,5.23,1.33,10.81-2.25,20.69
		c-5.26,14.49,1.98,21.39-7.37,26.94c-0.51,0.3-1.43,0.41-1.23,1.43c13.35,1.36,8.71-13.17,11.47-22.23
		c1.53-5.02,3.37-9.94,4.81-14.95c3.46-12-4.44-13.28-3.58-17c1.13-4.9-5.05-3.97-16.39-11.37c-5.87-3.83-6.68-0.32-11.27-4.3
		c11.27-3.07,20.59,0.41,28.47,8.4c1.84-1.13,3.59-0.52,5.02,0.41c6.92,4.5,15.55,3.04,18.13,7.17c5.1-1.27,13.64,0.56,22.02-1.33
		c13.12-2.96,43.82,4.35,46.3,6.56c-1.94,38.88-6.87,46.5-12.7,55.51c3.18-2.05,4.71-5.53,7.99-8.4
		c-10.11,24.56-7.74,17.97-13.01,17.62c-13.33-0.91-19.48-4.65-23.25-3.38C349.54,405.45,333.78,408.75,326.32,406.78z
		 M276.03,336.62c1.02,0.41,1.13,1.02,1.23,1.74C276.62,338.68,276.03,337.28,276.03,336.62z M277.57,340.92
		c-0.51-0.72-0.51-1.54-0.51-2.36C277.63,338,282.11,340.36,277.57,340.92z M369.75,426.45c-1.16-1.23-10.87-13.29-20.08-17.1
		c7.61-2.28,0.05-2.69,20.08,1.23C370.06,416,369.14,421.23,369.75,426.45z M348.75,484.63c0.31-1.95,0.51-3.48,0.72-5.12
		C349.98,482.47,349.98,482.47,348.75,484.63z M349.57,493.43c-0.2-0.92,0.2-1.33,1.13-1.84
		C350.39,492.41,351.11,493.33,349.57,493.43z M351.42,489.03c0.61-4.51-0.31-9.12,0.72-13.62
		C353.16,480.02,352.85,484.52,351.42,489.03z M350.5,472.64c-0.58-1.27,0.33-12.9-4.1-23.66c-2.62-6.37-2.36-13.01-3.18-19.56
		C353.3,438.9,356.21,474.36,350.5,472.64z M377.02,522.73c-5.22-0.82-10.14,3.28-15.26-0.51c1.74-5.33,1.87-10.96,2.15-16.49
		c0.16-3.18,1.43-6.25,1.23-9.42c-3.79,0.61-7.48-0.1-10.85-1.53c2.25-22.94,5.02-45.68-8.3-66.58
		c31.97,12.93,11.52,66.58,19.15,67.09c-0.33,0.31-0.07,0.32-0.02,0.74c1.43,1.66-1.23,2.33,12.71,0.69
		C376.61,505.32,375.59,513.71,377.02,522.73z M406.52,528.57c-2.15-0.61-4.3-0.41-6.04-1.64c1.64-1.43,4.4-0.61,5.53-2.87
		c-1.97-5.91-13.8,5.76-20.08-2.25c-0.1-0.2-0.41-0.1-0.31-0.1c-1.54,0-1.02,1.43-2.15,1.74c-1-0.5-2.6-0.45-3.28-1.64
		c-0.92-11.47-0.31-15.36,3.38-21.41c0,5.63,0,5.63,2.77,5.84c0.41,1.64,0,3.79,2.25,4.1c1.54-0.2,1.74-1.95,3.07-1.95
		c1.23,0.41,0,2.36,1.54,2.36c1.13-0.1,1.13-1.54,2.36-1.64c5.73,1.43,5.9,5.6,12.7,2.77c-14.03-8.82-14.41-3.57-20.89-11.27
		c-2.95-3.5-5.53-7.68-11.68-6.15c2.46-8.3,2.25-16.29,2.25-24.27c0-17.22,1.3-26.05-6.35-39.54c2.46-0.1,2.64-1.43,2.46-3.18
		c-0.58-5.52,1.13-11.06-0.61-16.29c3.58-1.54,6.86-0.2,10.24-0.31c4.3-6.15,6.86-13.01,9.12-19.97c17.64,0,10.41,12.49,9.73,16.18
		c-8.01,43.34,12.39,47.48,12.39,95.77c-4.2,1.02-5.84,3.48-5.63,7.58C409.59,516.58,407.55,522.42,406.52,528.57z"/>
	<path d="M460.29,294.12l0.1-0.1C460.23,293.97,460.29,293.95,460.29,294.12z"/>
	<path d="M660.75,55.81c0.03,0.06,0.06,0.11,0.09,0.16C661.04,55.53,660.86,55.73,660.75,55.81z"/>
	<path d="M642.2,15.83l-0.1,0.1C642.22,15.93,642.2,15.99,642.2,15.83z"/>
	<path d="M802.27,253.67c1.74-3.18,1.02-7.17,4.4-9.63c-3.58-3.18,0-7.89-3.07-10.86c3.44-6.25,7.95-3.78,9.12,0.92
		c1.11,4.49,7.31,10.79,11.47,9.63c11.69-3.26,21.36-10.88,23.56-14.54c2.26-3.76-2.42-3.71-3.48-4.51
		c-1.54,0.41-1.84,1.74-2.87,2.87c-0.92-1.84-1.54-4.4-4.3-2.46c-0.33-35.12-5.36-29.79-0.92-49.37c5.03-22.19-0.51-47.66,0.2-73.85
		c0.45-16.47-1.98-18.07-7.58-23.15C809.93,61.62,794.52,63,790.49,59.78c0.1-3.07-1.33-4.81-4.61-4.61c-1.67,0-9.4-5.89-41.48-7.37
		c-6.69-0.31-4.05,2.65-17.51,0.82c-13.63-1.85-13.61-1.82-15.36-2.66c-7.93-3.81-16.7-5.63-24.17-9.12c-1.54,0-1.74,1.13-2.87,1.23
		c-8.91-5.12-18.44-6.86-28.78-3.18c-1.95-5.65-13.42-23.4-13.42-17.41c-8.71,0.31-17,2.87-25.61,3.28
		c3.07,1.43,6.35,0.41,9.53,0.92c-1.74,6.86-6.45,12.6-7.07,19.67c4.92-5.84,7.68-12.8,9.94-20.08c5.02-0.51,9.94-1.54,15.06-1.13
		c2.64,4.28,10.23,13.99,9.32,17.41c-2.2,8.28-3.69,16.7-6.15,24.07c-6.04,2.97-12.39,2.87-18.13,5.74
		c-2.56-7.48-5.22-14.95-7.78-22.33c-1.95,0.82-1.23,2.05-0.92,3.07c1.23,5.63,3.39,10.85,5.63,16.18c1.87,4.47,0.92,3.53,1.47,5.04
		c2,1.62,2.93-1.41,6.92-0.94c2.11,6.53-4.36,17.28-5.12,18.85c5.94-5.22,7.48-12.19,7.78-19.77c5.74-0.26,11.36-7.31,1.02,20.38
		c5.12-6.35,6.56-14.03,7.48-21.71c1.13-0.61,2.05-1.13,2.87-1.54c1.95-6.45,3.99-12.6,5.33-19.46c5.46,6.18,5.79,10.39,7.11,10.3
		c0.42-2.22-1.1-3.57-0.34-5.18c0.92,0.61,1.84,1.13,3.07,1.84c-1.95,2.15,1.02,3.38,1.02,5.22c-1.64,1.13-2.36-1.95-3.89-0.51
		c3.82,12.55-1.82,13.13-2.63,21.12c2.61,1.63,8.28-10.58,11.54-13.03c-0.41-2.87-3.79-2.25-4.1-4.61c0.51-1.74,3.18-1.84,3.07-3.99
		c-0.41-1.64-2.46-1.64-3.07-3.48c-0.2-0.61,0.92-1.43,0.41-2.25c-0.61-1.13-1.95-1.02-2.66-1.84c-0.51-2.87-0.51-2.87-3.18-4.1
		c-3.58-1.65-5.22-3.99-4.71-6.56c3.99-1.33,8.09-2.15,12.29-1.64c15.3,1.85,34.23,9.02,40.76,12.29c6.64,3.32,7.2-2.61,17,3.28
		c-6.25-0.2-11.68,1.84-17.41,0.51c1.02,1.95,2.76,1.86,4.3,2.15c20.99,3.97,13.78-1.64,32.26-2.36c8.71-0.34,38.36,4.09,42.1,7.68
		c-2.64,56.81-16.03,56.58-12.71,58.47c2.52-3.13,4.85-6.28,7.28-9.31c-2.46,6.86-5.22,13.52-8.91,20.18
		c-3.36-2.88-3.32,0-23.86-5.22c-3.68-0.94-1.19-0.42-17.82,2.66c-15.18,2.82-15.29-2.45-26.12-0.61
		c-4.62,0.78-9.01-0.82-13.52-0.72c-0.51,0.01-0.92-0.2-1.23-0.61c-2.16-3.24-22.83,0.23-25.5-4.51c-1.54-0.61-1.84,1.54-3.38,0.61
		c-0.82-1.64-1.64-3.38-2.66-5.53c7.07-1.54,12.6-4.61,14.34-12.39c-3.23,0.16-2.55,7.4-9.63,8.19c-2.97,0.33-5.74,1.33-8.6,2.66
		c-4.51-1.95-9.42-3.18-14.03-5.84c4.12,0.69,2.12-3.61,8.5-5.12c4.09-0.97,6.85-4.02,10.14-6.25c0.62-0.42,1.03-2.42-3.58,0.1
		c-1.23,0.51-2.66,0.1-3.58,1.13c-0.31,0.72,1.02,1.33-0.1,1.95c-3.53-0.71-5.24,1.55,0.31-4.51c0.82,0.31,1.13,1.43,2.15,1.13
		c1.64-4.51,5.74-7.37,9.32-8.3c1.97-4.59,5.83-6.81,1.23-9.01c-6.86-3.28-1.17,1.76-0.72,2.66c-1.95,1.43-2.56,4.51-5.94,3.89
		c0-13.17-3.88,12.44-25.61,15.16c2.05-3.28,4.1-6.04,5.12-9.42c-4.3,3.54-3.83,9.59-10.65,9.22c-1.64-0.09-2.87,0.6-3.58,1.84
		c2.89,4.58,7.8,2.26,11.57,3.38c-0.49,1.87-4.21,1.99-3.91,2.89c2.03,0.86,3.93-0.13,4.84,0.28c3.79,4.71,9.32,5.02,14.03,7.78
		c-4.61,0.41-8.6-0.51-12.19,1.84c5.12-0.72,10.24,0.51,15.88-0.92c-1.84,5.02-1.84,9.83-1.43,14.54
		c-9.01,2.05-17.92,0.51-26.63,1.43c-2-7.01,1.87-15.78-2.77-27.04c-3.69-8.96,1.99-9.41,2.97-18.54c-1.74,2.46-2.77,5.33-5.02,7.17
		c-4.1-8.5-3.79-17.72-6.04-26.73c10.2,1.7,9.58-0.12,9.94,10.45c2.04-8.99,0.27-12,2.79-9.8c-1.08-3.65-8.92-2.13-20.1-5.36
		c-1.02-5.74-3.69-11.06-5.74-16.9c4.92-2.66,10.14-1.02,15.06-1.95c-5.84-1.02-11.68-2.15-17.41,1.84
		c0.41,4.1,2.77,7.89,3.99,10.75c-0.2,11.78-0.72,22.53,4.81,32.67c0.79-9.53-3.76-13.8-1.33-24.17c1.64,0.41,3.48,0.82,5.12,1.23
		c2.05,3.89,2.15,6.86,0.31,8.81c0.76,4.58,0.58,4.13,1.74,2.97c1.93,15.15,10.06,32.63,9.12,45.07
		c-1.44,18.93,0.3,18.73-1.13,30.62c-5.54,4.43-14.19,0.27-21.92,3.07c-1.43,0.52-3.28,0-4.51-0.82
		c-4.94-3.74-14.69-3.83-14.85-6.35c0-0.41-1.02-1.13-1.64-1.13c-6.9-0.62-16.87-12.82-23.97-17.31c-1.01-0.64-1.23-1.74-2.15-2.87
		c-4.2,0.61-8.6,0.23-12.91,0.41c-10.64,0.43-19.41-11.5-20.18-15.77c-0.31-1.74-2.66-2.46-4.4-3.07
		c-2.11-6.99-4.47-27.12-1.54-32.98c5.01-6.32,13.44-23.17,30.42-16.9c11.67,4.31,28.03,16.16,26.02,28.27
		c-1.7,10.19-3.46,1.39-10.96,2.46c9.01,6.25,18.85,11.27,27.35,18.64c-2.46,3.18-2.77,7.47-5.53,10.55
		c-2.88,3.22,0.54,16.69,2.36,16.08c-0.2-2.46-0.05-5.01-0.61-7.37c-3.51-14.72,10.17-12.75,9.53-31.34
		c-1.52-43.88,4.68-31.84-20.28-57.56c-2.67-2.76-1.63-7.23,2.36-8.6c8.4-2.89,20.84-6.1,27.35-3.58c-1.84-3.48-5.43-2.05-6.76-4.1
		c-13.54,2.33-34.38,7.15-25.61,17.72c3.73,4.5-1.33,6.12,10.65,12.39c5.26,2.76-1.88,10.29-31.96,4.51
		c-2.38-5.34-5.6-13.07-10.04-15.71c2.04-3.45,11.83-20.01,9.32-23.21c12.65,0,13.86,0.91,15.16-2.05c1.13-0.31,1.33,0.1,0.92,0.72
		c7.93,1.48,14.6-3.28,11.68-3.28c-7.58,1.43-15.27,0.07-22.84,1.13c-7.87,1.09-5.6-0.36-12.6,15.98c-5.22-2.46-10.34-0.2-15.77,0.2
		c1.34-20.55,0.38-16.54-22.12-23.05c-1.84-0.53-4.1-0.51-4.71-3.38c-9.42,4.92-19.67,7.58-26.43,16.59c0.1,0.82,1.23-0.61,2.15,0.2
		c0.41,7.99,0.92,16.29,2.05,24.89c-6.99,0-6.27,1.06-6.35,0.82c-1.95-2.97-5.12-3.07-7.99-3.48c-2.15-1.33,0.2-3.99-1.84-5.12
		c-2.77,2.15-2.66,3.69,0.41,7.07c0.51,1.23-1.43,2.05-0.1,3.69c0.72,0.51,1.84,0,2.77,0c1.13-1.13-0.61-2.05,0-3.07
		c2.15-0.31,3.38,0.92,4.92,2.15c1.54,1.23,0.31,4.1,3.18,4.4c2.31-2.31-1.39-3.44-1.23-5.33c1.74,1.95,3.9,1.86,6.25,1.43
		c3.79-0.69,6.96,2.05,6.96,5.94c0,2.66-0.91,5.32,0.82,7.89c0.85,1.27-1.71,2.91-4.51,8.5c2.15-2.25,6.56-1.43,6.96-5.74
		c1.7,0.3,2.53,1.85,4.09,2.03c-0.15-2.18-1.45-3.58-3.27-4.59c-0.1-1.33-0.2-2.46-0.31-3.79c6.15-4.51,12.91-5.22,20.28-2.97
		c0.45-5.66-9.67-3.27-15.26-2.15c3.07-8.71,31.55-21,47.63-20.69c1.44,3.19-4.56,7.67-0.49,8.46c-1.43,2.16,6.84,11.27,6.84,15.71
		c-1.56-0.12-13.56-5.31-25.4,7.58c-4.51,4.91-7.89,10.65-10.75,17c0.82,1.13,1.41,2.35,1.23,3.99c-1.08,9.56,3.13,14.84,1.13,18.85
		c-1.01,2.02,1.48,5.82,3.38,8.81c-1.59,2.39-5.83-6.03-6.04-8.5c-3.1-35.34-1.03-25.08,5.22-39.84c1.79-4.22-0.5-9.45-4.92-10.96
		c-0.99-0.34-1.76,0.99-1.02,1.74c4.56,4.64,1.05,9.9-2.87,19.87c-3.96,10.09-0.43,29.22,3.48,35.85c-2.66,0.1-4.51-1.23-6.56-1.64
		c-0.82-0.92,0.82-1.43-0.31-2.97c-3.64-0.81-6.59-4.62-11.01-5.69c0.45,1.66,1.93,2.78,3.12,4.47
		c-8.81-3.18-17.41-5.74-26.02-10.14c4.81-2.36,3.48-7.78,7.48-10.14c-2.25-1.95-4.1-3.18-6.76-2.87c-0.1,2.46,2.25,2.25,3.28,3.28
		c-2.25,3.99-3.89,8.71-9.63,9.12c0.31-1.13,2.05-1.23,1.95-2.66c-1.13-0.82-1.84,0.72-3.18,0.51c0.1-1.23-2.36-1.84-0.92-3.99
		c3.79,3.58,5.74,0.2,8.09-2.05c-0.31-1.13-1.33-1.54-2.36-2.15c-4.1,1.12-11.39,1.32-7.48,8.71c0.28,0.53,0,1.09,0.35,1.43
		c0.52-0.01,0.99,0.03,1.09,0.92c-0.61-0.1-1.13-0.31-1.33-0.92c0.29,0,0.24,0.03,0.1-0.1c-4.14-5.65-4.35-3.76-1.33-7.99
		c-0.72-1.02-2.87-1.33-1.64-3.38c0.72-0.61,1.13,0.92,2.36,0.51c7.26-6.11,7.07-1.36,8.3-6.86c-0.31-0.82-0.92-1.02-1.43-1.02
		c-11.36,1.02-13.36-7.25-20.08-9.32c-3.11-9.67-1.5-10.83-5.84-10.65c-1.13-1.02-0.51-3.38-2.77-3.69
		c-1.08,1.17,0.7,10.06-2.36-1.54c3.28-3.18,6.74-3.36,10.24-0.41c2.45,2.06,5.12,3.79,6.66,6.76c6.1-6.38-5.21-6.62-7.58-9.42
		c5.33-2.15,8.91-6.76,14.65-9.12c-5.28-1.98-15.42,9.89-17.82,8.6c-3.96-2.11-7.58-0.2-11.57,1.02c-3.83-2.33-7.32-7.23-8.71-3.99
		c-4.4-1.54-4.4-1.54-6.04,1.95c-4.84-1.21,2.25-5.16-3.69-10.04c-2.15,1.95,0.1,4.51-1.13,6.66c-1.64-0.72-1.43-3.28-3.79-3.79
		c-1.84,2.66,0.82,4.81,0.92,7.27c-1.13,0.2-1.74-1.74-3.28-0.82c-0.82,2.56,2.05,3.28,2.87,5.22c-1.84,0.2-3.69-1.95-5.74-0.1
		c1.23,3.58-0.2,7.58,1.43,11.16c-1.13,0.72-2.25-0.82-3.38,1.13c-0.41,2.66,3.58,3.69,3.79,6.66c-2.56,0.82-4.4-2.46-7.27-1.33
		c-0.72,1.23-0.7,3.01-2.56,3.99c-2.76,1.45,2.25,7.2,4.2,9.94c-2.15,2.66,0.1,4.61,1.54,6.56c-0.92,1.23-2.36-0.31-2.97,0.72
		c-0.82,0.82-0.62,1.64-0.1,2.36c2.02,2.78,3.1,6.02,5.43,8.6c4.04,4.49,4.15,12,11.27,18.54c-1.64,1.84-2.15,3.99-1.02,6.25
		c1.01,2.02-2.62,7.49,3.18,11.16c9.73,6.17,16.2,2.05,20.48,7.58c2.95,3.8,5.24-0.47,6.86,1.84c-4.2,4.73-5.21,0.93-13.52,8.91
		c-31.01,29.78-16.72,56.9-21.41,92.08c-0.79,5.9,0.65,21.53-0.82,25.09c-3.07-2.05-7.06-0.62-10.24-3.58
		c-1.77-1.65-9.31-0.56-16.49-1.95c-1.64-0.32-3.25,0.2-2.97,1.95c0.8,5.01,0.92,10.14,1.74,15.16c3.69-4.4,2.25-9.63,1.84-14.85
		c4.61,0.92,9.14,0.05,13.42,1.84c6.24,2.62,11.58,0.22,13.93,5.12c1.74-0.35,0.71,2.93,2.87-42.71
		c1.59-33.75-5.75-51.81,18.03-75.59c8.68-8.68,11.57-6.31,13.83-9.22c0.41-0.61,1.13-1.23,1.74-1.13
		c3.59,0.61,6.86-1.06,10.45-1.02c59.09,0.61,47.02-0.9,74.77-2.97c38.95-2.9,31.09-5.38,43.43,4.71c-2.87,1.02-5.74,1.24-8.5,1.33
		c-32.4,1.04-61.5,5.61-86.86,5.74c-22.82,0.11-28.23,4.72-33.9,11.57c-23.68,28.63-9,59.2-13.93,111.74
		c-2.97,0.61-5.94,0.41-9.12,2.05c0.1-27.24,2.56-54.18-0.1-81.12c0.82,26.63-0.82,53.16-1.74,79.79c-1.84,0.31-3.38-1.02-5.43-0.72
		c4.3,2.46,8.19,5.33,13.21,3.38c-0.51-0.31-1.54,0.2-2.15-0.72c5.84-3.7,9.74,4.33,38.09,11.24c0.01-2.2-1.97-2.12-3.16-2.43
		c-0.74-0.19-26.63-8.51-26.63-11.57c2.2-35.25-12.23-113.43,30.93-118.61c30.44-3.65,110.76-10.67,114.8-8.39
		c6.1,3.46,13.48,3.88,19.67,7.37c2.28,1.29,5.12,1.52,7.68,0.82c11.63-3.2,18.72,3.55,20.59-9.01c0.43-2.91-0.98-3.18,24.58-3.69
		c28.68-0.57,43.5-8.59,82.14-0.72c-1.72,6.31,1.26,12.16,5.02,30.83c4.77,23.66-1.85,26.83,3.38,32.06
		c-1.89,11.37-2.7,8.66,13.83,12.29c-0.41,8.19-1.13,16.18-2.97,24.27c-4.2-1.13-8.19-2.46-12.5-2.36c6,2.89,5.46,8.83,35.44,4.92
		c10.86,4.81,23.66,5.33,35.64,9.42c-3.79,1.95-8.4,1.74-11.88,4.3c0,4.92,0,9.63,0,14.65c-33.99-6.37-91.36-26.85-91.36-21.1
		c8.34-0.63,17.03,5.86,52.44,14.24c30.8,7.29,42.73,13.13,54.49,5.84c1.13-0.13,0.51,0.15,2.05,0.92c3.27-1.4,2.65-17.2,4.61-20.28
		C813.12,256.64,807.8,255.1,802.27,253.67z M656.85,87.94c-0.2,0.1-0.31,0.2-0.41,0.31C656.44,88,656.66,87.94,656.85,87.94z
		 M640.87,101.15c-0.51,1.02-0.72,1.54-1.02,2.15C638.2,101.97,639.02,101.66,640.87,101.15z M588.22,109.14
		c-0.51-0.2-0.72-0.51-0.72-1.33C588.84,107.91,589.04,108.32,588.22,109.14z M581.77,62.43c0.41-1.74,0.31-3.48,1.74-4.71
		c8.54,2.85,4.45,10.85,5.74,46.6c-1.95,0.41-3.28,0.72-4.61,1.02c-16.89-12.25-11.08-5.34-9.63-16.49
		c-0.41-1.33-1.84-0.72-1.95-1.84c0.41-7.07-3-12.26-8.3-16.49C549,57.95,558.16,68.26,581.77,62.43z M485.39,57.31
		c-1.07-0.64-0.5-2.53,1.02-1.43C486.1,56.39,486,57.01,485.39,57.31z M522.67,33.55c-8.71,2.05-16.07,7.09-23.86,11.37
		c-1.12,0.62-2.25,0.2-3.28,0.31c-2.15,3.48-5.84,5.33-7.99,8.71c-4.51-0.92-6.35-5.84-10.86-6.35c0.41-8.81-0.51-17.21-1.84-25.5
		c6.96-3.69,13.32-8.19,20.48-11.78c7.48,4.71,16.18,6.15,24.68,8.09c1.02,2.77-0.09,5.22,0.2,7.68
		C520.53,28.73,523.49,30.27,522.67,33.55z M459.78,81.48c0.1,0.61,0,1.02-0.92,0.82C459.27,82,459.47,81.69,459.78,81.48z
		 M407.44,57.41c-1.84,0.92-2.46-0.51-3.07-1.54C405.29,56.39,406.73,55.98,407.44,57.41z M402.63,59.05
		c0.31,0.41,0.51,0.72,0.92,1.33C402.42,60.28,402.12,59.98,402.63,59.05z M395.25,77.39c1.02-0.51,2.05-0.92,3.48-1.64
		c-0.51,2.05,1.02,3.48,0.82,5.22C396.69,81.07,396.48,78.82,395.25,77.39z M400.17,89.99c-2.02-2.27-3.1-2.54-0.92-4.71
		c5.06,1.49-1.1,5.03,3.28,10.04C399.25,93.98,399.15,92.14,400.17,89.99z M401.71,97.87c1.84-0.51,1.84-0.51,2.15,1.54
		C402.42,99.72,402.32,98.69,401.71,97.87z M404.06,84.56c-0.82-0.41-1.23-0.92-0.2-2.05C404.27,83.33,404.58,83.94,404.06,84.56z
		 M401.09,76.47c2.66-1.33,2.66-1.33,4.4,2.05C403.86,77.59,402.22,77.59,401.09,76.47z M403.24,63.66c2.36,0.31,3.18,2.05,4.3,3.99
		C402.51,70.18,403.63,71.04,403.24,63.66z M472.79,103.61c0.61,0,1.13,0.2,1.43,0.82C472.24,106.41,471.84,104.08,472.79,103.61z
		 M487.74,109.75c-6.25,0-11.68,1.02-17.51,0.72C474.84,105.96,480.57,105.66,487.74,109.75z M469.72,102.28
		c-0.72,0.72-1.33,1.13-2.05,0.31C468.28,101.76,468.9,101.76,469.72,102.28z M467.57,110.68c0.51,2.46-1.64,1.74-2.46,2.36
		C465.52,112.01,466.13,110.98,467.57,110.68z M459.06,103.61c0.41,0.31,0.61,0.61,0.1,1.33
		C458.65,104.43,458.35,104.02,459.06,103.61z M458.04,114.67c-1.84,0.2-3.69,0.51-5.94,0.82
		C455.89,112.72,456.91,112.62,458.04,114.67z M449.85,80.26c-2.25-0.31-4.1-0.51-6.04-0.72c0.31-0.92,0.72-1.43,1.84-1.95
		C446.77,78.62,448.51,78.62,449.85,80.26z M438.68,104.63c-2.25-1.43-2.25-1.43-2.05-3.79
		C438.89,101.56,438.89,101.56,438.68,104.63z M438.17,109.34c0-0.1-0.1-0.41,0.1-0.51C438.86,107.94,439.3,109.63,438.17,109.34z
		 M440.83,120.1c-2.15,1.13-3.79,0.92-6.04,0.92C436.84,120,438.48,119.69,440.83,120.1z M439.6,112.93
		c1.02-0.61,1.95-1.43,3.18-0.31C441.75,113.34,440.73,113.75,439.6,112.93z M439.5,98.28c1.54,0.51,3.18-0.2,4.61,0.61
		C442.57,99,440.94,99.41,439.5,98.28z M439.6,91.93c1.02-0.92,1.54-0.2,2.05,0.51C440.83,92.75,440.01,93.37,439.6,91.93z
		 M444.93,109.55c-0.31,0.61-0.61,0.92-1.23,0.51C443.91,109.34,444.32,109.14,444.93,109.55z M445.85,73.29
		c-1.23-0.1-2.56-0.2-3.99-0.41c-1.33-3.28-5.63-2.05-7.78-4.92C439.5,66.84,441.45,72.57,445.85,73.29z M432.54,77.49
		c-2.66,0.41-3.99-0.2-4.51-2.36C430.18,74.62,431.1,75.75,432.54,77.49z M426.19,80.67c2.46-1.43,4.2,0.1,5.94,1.33
		C429.98,82.2,427.72,83.12,426.19,80.67z M427.72,116c-2.56-0.51-2.56-0.51-1.74-2.36C427.31,113.75,427.31,114.77,427.72,116z
		 M428.54,55.78c-2.05-1.43-4.3-2.77-4.4-5.74C425.47,52.19,427.93,53.22,428.54,55.78z M428.23,64.69c0.9,2.6,0.72,3.92-0.72,5.22
		c0,0.92,0,1.84,0,2.77c-2.36,1.02-4.2,0.2-7.27-3.58C426.29,71.61,428.57,70.54,428.23,64.69z M423.63,84.86
		c0.31-0.92,0-1.64,1.02-1.74C425.57,83.84,425.26,84.35,423.63,84.86z M423.73,88.35c-1.33,0.31-2.87,1.33-4.1-0.72
		C421.37,86.81,422.6,87.63,423.73,88.35z M418.3,93.57c2.77-0.61,3.48-0.41,5.33,1.13C421.68,95,419.94,94.29,418.3,93.57z
		 M421.47,98.38c-0.1,1.64-1.33,1.74-2.56,2.05c-0.1-1.23-0.1-2.36-0.2-3.89C420.14,96.75,421.47,96.54,421.47,98.38z M419.22,54.03
		c-0.51-0.82-1.23-0.61-1.23-1.43C418.61,52.5,418.91,52.81,419.22,54.03z M417.89,52.7c-0.72-0.2-1.43-0.41-1.84-1.23
		C417.28,51.17,417.28,51.17,417.89,52.7z M414.92,60.08c-1.13-0.72-2.77-0.92-2.56-3.18C413.49,58.03,414.61,58.64,414.92,60.08z
		 M412.46,50.04c-0.92-0.1-2.25,1.54-2.97-0.51C410.62,48.2,411.54,49.02,412.46,50.04z M409.29,113.54
		c1.64,1.02,3.07,1.74,2.56,4.2C410.52,116.51,409.49,115.49,409.29,113.54z M414,135.46c0.1-3.79,1.54-7.48,1.13-11.88
		c-1.64,1.84-1.13,3.48-1.95,5.12c-0.92-2.46-2.25-4.4-0.51-6.35c3.69-0.82,6.86,5.74,10.55,0.1c1.54-0.1,3.18-0.31,5.12-0.41
		c0.51,6.25,1.43,12.29,1.54,19.05C424.34,138.64,418.3,139.66,414,135.46z M548.28,141.1c-34.63,0.11-34.72,3.99-66.78,3.99
		c1.33-1.02,3.07-0.2,3.99-1.64c-1.95-0.82-3.79,0.92-5.84,0.1c0.33-3.1,1.35-7.74-0.82-12.09c-0.82,4.61,0,8.91-2.15,12.7
		c-4.61,0.41-9.12,1.03-13.83,0.61c-12.88-1.15-15.07,0.79-14.34-4.3c0.51,0.51,1.02,0.82,0.92,1.02c-0.1,0.41,0.82,0.1,0.61,0
		c-0.31-2.66-2.46-5.12-0.92-7.89c0.82-0.31,1.84,0.82,2.66-0.1c-2.77-2.46-2.77-2.46-2.77-4.2c1.95-0.72,3.89-0.51,5.84,0.2
		c0.41,4.1-1.13,8.09-0.72,12.6c2.36-4.4,3.18-14.75,1.54-15.47c-0.92,0-0.61,1.33-1.74,1.33c-19.93-2.85,22.2-1.38,42.81-3.89
		c0.31,5.63,0.51,11.16,0.31,16.8c2.46-5.22,2.25-10.86,2.56-16.29c4.61-0.51,8.91,0.31,13.01-1.23
		c-29.75-1.22-60.77,3.22-65.04-0.92c-0.73-0.71-2.15-0.92-3.38-0.41c-0.1,1.54,1.95,1.74,2.05,3.69c-1.43,2.77,0,5.74,1.33,8.81
		c-6,5.8,1.36,10.23-4.2,12.09c-4.3-1.43-8.81-2.56-11.88-6.76c0.31-5.22-1.02-10.75-1.02-16.49c5.33-0.72,10.54-0.44,15.67-2.56
		c7.71-3.19,19.77-2.55,23.66-5.22c0.51-0.72-0.61-1.54,0.51-2.05c18.32,0,23.1-1.7,25.4-0.2c3.86,2.52,18.14,8.12,21.82,5.74
		c3.48,3.99,6.35,8.19,10.75,10.86c-1.84,1.64-0.31,2.36,0.72,2.97c3.27,1.95,6.56,3.89,10.34,4.71c-0.1-1.84-2.36-1.95-3.89-3.79
		c9.44,2.46,17.61-4.8,23.05,6.56C554.93,139.56,551.66,141.09,548.28,141.1z M836.91,228.87c3.05,3.66,2.08,4.02,5.12,1.84
		c-3.69,5.84-9.83,9.01-19.15,10.24c-1.74-1.23-3.89-2.05-5.22-4.1C823.9,233.69,831.07,232.87,836.91,228.87z M790.1,63.87
		c12.7,1.95,23.25,7.37,32.78,15.06c-0.2,2.66,0.41,4.92,1.43,7.37c1.54-1.54,0.61-3.48,1.64-4.92c2.87,1.74,5.33,4.1,6.04,6.96
		c1.86,7.47,1.86,15.26,0.82,22.94c-1.52,11.24,2.52,14.13,1.33,54.18c-0.16,5.37-6.63,34.76,0.1,61.86
		c-4.81,1.84-9.53,3.38-14.65,4.81c-0.1-3.48,0.72-6.45-0.61-9.32c-1.19,2.73-2.21,7.21-3.07,10.96c-1.02-3.58-3.48-4.92-5.74-6.45
		c-0.2-6.56,0.02-12.91-0.61-19.36c-2.93-29.63-13.41-37.22-13.32-60.23c0.09-21.13,3.58-19.23,3.58-32.26
		c-3.09-3.09-2.28-6.42-7.37-7.37c-6.92-1.29-7.55-1.67-6.76-3.38c3.48,0.61,6.76,2.46,10.34,0.41c-3.28-1.64-6.96-1.23-10.86-3.28
		C787.85,89.58,790.51,76.88,790.1,63.87z M760.91,130.55c0.1,5.84-0.41,11.27,0.1,17.51c-8.91-11.06-12.5-14.03-21.71-18.74
		C746.82,126.91,741.39,126.48,760.91,130.55z M656.54,118.77c3.38,1.95,4.2,5.53,7.37,7.17c3.07-2.25,6.55-0.01,9.73-0.1
		c3.69-0.11,7.69-0.63,10.96,0.51c3.18,1.11,7.07-0.82,10.04,2.36c-8.5,1.33-16.49,1.43-24.58,1.43
		C653.24,130.14,652.79,140.76,656.54,118.77z M728.03,142.32c-17.22-0.86-29.91-2.57-60.02,2.15c-14.17,2.22-30.64,0.94-43.43,2.77
		c-0.2-3.48-0.1-6.76,0.51-10.04c7.47-0.71,8.69-2.03,9.94-1.13c2.63,1.89,5.23,0.64,7.78,0.41c81.36-7.29,71.76-3.44,87.16-5.63
		c9.51-1.35,22.7,10.89,28.17,18.95c11.49,16.96,7.52,27.97,8.19,50.29c0.19,6.15-0.41,12.09-1.95,18.03
		c-2.97,0.31-5.84,0.61-8.6,0.92c0.19-12.23,7.73-38.95-2.56-60.84C748.37,147.86,739.42,142.89,728.03,142.32z M738.89,207.88
		c0.31-1.84,0.51-3.58,0.72-5.43C740.01,204.39,740.32,206.24,738.89,207.88z M740.73,214.84c0.1,1.23,0.2,1.95,1.23,2.77
		C740.42,217.3,738.99,217.4,740.73,214.84z M741.86,211.97c0-14.81-0.27-14.19,0.82-13.83
		C743.7,203.68,743.29,209.92,741.86,211.97z M742.47,195.28c-4.44,1.48,1.23-6.29-7.07-27.76c-2.1-5.45-1.74-11.37-2.56-17.62
		C741.24,158.3,746.26,183.5,742.47,195.28z M768.39,247.62c-5.53-0.72-10.65,3.48-15.77-0.51c2.25-7.99,2.15-16.08,2.77-24.07
		c0.41-0.31,1.23,0.1,1.43-0.72c-0.36-0.71-0.92-0.74-0.92-1.84c-3.86-0.11-7.71-0.43-11.47-2.25c1.67-8.01,2.84-33.47,1.64-40.46
		c-5.39-31.42-18.56-34.54-6.66-27.65c28.12,16.27,9.6,65.82,16.49,69.03c0,1.53-0.03,1.33,0.1,1.33c4.2,2.36,8.5,0,13.52,0.31
		C767.67,229.69,767.26,238.4,768.39,247.62z M798.91,248.64c-3.35-5.59-14.16,6.25-21.41-2.36c-1.43,0-1.13,1.54-2.25,1.95
		c-1.02-0.41-2.46-0.41-3.58-1.74c0-22.11-0.93-11.35,3.38-22.84c1.64,2.36-2.36,6.76,3.07,6.76c0.41,1.74,0.2,3.79,2.25,4.3
		c1.84,0.1,1.95-2.36,3.69-1.95c0.92,0.51-0.1,2.05,1.23,2.36c1.33,0.1,1.33-1.74,3.18-1.64c0.51,0.2,2.16,0.2,2.66,1.02
		c2.61,4.27,6.35,2.05,9.73,2.25c-3.48-2.66-6.96-5.55-11.37-6.04c-11.84-1.32-11.83-15.05-22.02-12.6c0-5.2,1.52-1.58,1.84-24.17
		c0.39-26.73-0.3-30.78-6.35-42.3c2.25-0.2,2.54-1.53,2.36-3.28c-0.59-5.73,1.13-11.57-0.92-17.21c3.89-1.43,7.48-0.2,10.96-0.2
		c4.51-6.45,7.17-13.52,9.53-20.89c1.54,0,2.77-0.1,3.99-0.2c5.22,0.1,8.62,3.79,8.4,8.91c-0.1,2.25-1.43,4.1-1.84,6.15
		c-8.81,43.39,10.25,52.91,11.88,88.19c0.2,4.4,0.92,8.91,0.41,13.42c-8.5,2.83-3.3,4.83-8.6,26.73
		C785.32,251.28,797.29,251.88,798.91,248.64z M808.54,276.19c1.33-1.23,2.56-1.64,3.99-1.33
		C811.4,275.58,810.28,276.4,808.54,276.19z M813.14,272.4c-5.12,1.64-10.86,0.92-14.34,5.94c1.74-4.4,0.82-8.91,0.92-13.62
		c4.92-1.13,9.94-2.05,14.75-4.81C813.96,264.31,813.55,268.2,813.14,272.4z"/>
	<path d="M490.2,103.3l-0.1,0.1C490.33,103.45,490.24,103.5,490.2,103.3z"/>
	<path d="M883.1,251.92c-5.5-0.07-1.9-1.78-12.39-4.2c-5.83-1.35-10.5-3.86-13.11-9.73c-0.97-2.18-3.69-3.07-4.3-6.04
		c-1.95,0.41-3.38-1.02-5.43-0.1c2.15,3.38,0,7.17,1.13,10.55c1.33,0.51,1.23-1.13,2.25-1.13c0.59,3.33-2.74,4.38,4.1,7.89
		c1.96,1,3.07-1.33,4.4-2.15c2.97,0.31,1.13,4.2,3.79,4.71c1.02,0.1,0.72-1.33,1.64-1.74c3.18,0.92-0.41,5.74,3.79,6.25
		c1.23-1.74,4.81-0.72,5.43-4.3c6.25,4.61,12.91,2.77,19.46,1.02c1.84,2.97,2.66,6.04,3.58,9.32c-10.52,6.57-21.67,14.63-47.12,6.76
		c-2.3-0.71-4.46,4.27-11.88,2.05c-2.67-0.8-4.92-0.61-6.15,2.15c-4.61,0.92-9.63-0.41-13.32,3.38c1.78,2.76,3.04,1.55,19.87,0.41
		c7.63-0.52,10.05-6.13,14.65-3.48c4.72,2.72,5.49-0.06,6.76,0.82c4.29,2.96,23.08,1.36,30.01-2.77c5.34-3.18,5.98-6.22,9.73-7.37
		C898.81,245.17,891.94,252.02,883.1,251.92z"/>
	<path d="M161.73,157.79c2.66-0.31,4.51,2.97,7.37,1.84c0.61-1.54-1.23-1.43-1.23-2.46c0.72-0.72,1.54-0.51,2.46,0
		c-0.1,2.97,0,6.04-0.72,9.12c-1.15,4.92,8.61,17.29,12.09,20.69c1.04,1.01,1.44,2.15,1.54,3.48c1.29,17.11,8.02,36.77,6.56,48.75
		c-1.1,9.02-0.29,18.13-1.74,27.14c-3.35,20.77,1.31,13.59-2.46,22.02c-3.45,7.71,6.56-2.1,3.69-9.32
		c-1.23-3.1,3.81-20.1,3.48-40.36c-0.34-20.99-8.11-44.54-7.27-49.27c0.02-0.1-14.06-20.89-14.13-21c-0.61-0.82-0.92-1.64-0.61-2.66
		c1.98-6.75,2.77-13.72,4.51-20.79c11.06-2.46,22.33-3.58,33.29-6.96c4.92,5.02,9.22,10.65,14.13,16.08
		c-5.46,16.78-4.45,31.22-2.66,24.27c1.9-7.39,3.14-14.84,4.81-22.33c0.93-4.15-13.28-18.32-15.36-20.48
		c-6.35,2.25-13.19,2.3-19.56,5.02c-3.17,1.35-6.76,1.04-10.14,1.64c-8.63,1.52-7.11,1.94-9.12,11.98c-4.3,2.15-9.53,0.82-13.52,4.2
		C159.27,160.66,160.29,158.41,161.73,157.79z"/>
	<path d="M486.72,526.52c-5.19-0.06-0.49-1.12-12.29-4.2c-5.22-1.36-9.73-3.58-11.98-9.01c-0.92-1.84-3.58-2.77-4.2-5.94
		c-1.84,0.92-3.38-1.33-5.22,0.51c2.56,2.87-0.31,6.56,1.23,9.63c1.02,0.61,1.23-0.92,2.05-0.72c0.41,1.64-0.72,3.18,0.1,4.81
		c2.56,1.54,5.12,4.81,7.99,0.41c2.87,0.41,1.33,3.7,3.38,4.4c1.23,0.42,0.92-1.64,2.56-1.23c1.95,1.02-0.82,4.81,2.66,5.63
		c1.54-1.33,4.4-0.92,5.63-3.99c5.94,4.4,12.29,2.36,18.54,0.82c1.74,2.97,2.56,5.94,3.28,8.91c-8.9,5.71-21.38,13.22-43.84,6.56
		c-3.58-1.06-5.5,3.69-12.19,1.84c-2.16-0.6-4.32-1.04-5.94,1.54c-1.43,2.27-9.31-0.95-12.91,3.79c1.02,1.64,2.56,1.65,4.1,1.54
		c19.15-1.4,17.92-1.16,23.86-4.51c5.15-2.9,5.93,3.42,10.86,0.31c4.09,3.03,5.44,1.6,14.34,1.54c17.06-0.13,19.4-9.16,24.17-10.75
		C501.68,520.1,495.37,526.62,486.72,526.52z"/>
	<path d="M733.15,247.51c-7.48-2.15-14.44-5.43-22.33-7.07c2.05-1.54,3.68-1.72,5.53-1.23c20,5.28,13.91,1.23,18.64-6.66
		c0.92,4.1-3.07,7.99,0.82,12.09c6.31-19.9,1.85-25.06,3.1-24.75c-0.1-0.21-2.27-0.52-2.18,0.88c0.21,3.27-7.95,8.21-5.94,19.05
		c-8.91-1.02-17.62-5.84-26.63,0.31c-0.95,3.9-2.93,15.53,1.04,16.06C707.01,233.38,701.47,242.42,733.15,247.51z"/>
	<path d="M343.02,522.83c0.36-1.09,2.24,0.08-20.79-7.37c2.51-2.35,4.78-0.81,12.91,0.82c11.06,2.21,4.96-2.6,10.24-7.89
		c-3.81,22.12,5.5,4.91,3.18-11.95c-1.18-0.91-2.05-0.4-2.05,0.89c0,1.84-1.12,2.67-2.05,3.89c-8.47,11.19,2.03,16.73-11.16,12.6
		c-6.06-1.9-11.88-1.74-17.82,1.23c-1.05,3.81-3.09,15.87,0.83,15.57C318.84,510.99,310.45,515.68,343.02,522.83z"/>
	<path d="M443.39,316.75c-1.41,1.17-2.34-1.09-1.13,1.33c1.13,0.41,1.54-1.02,2.77-0.92c5.94,5.02,13.31,3.84,20.38,3.89
		c1.02,0.01,2.36-0.61,2.36-2.15c-5.74-0.51-11.47-1.02-17.41-1.54c1.13-5.84,1.02-11.47-0.1-17.51c4.81,0.41,9.32-0.6,14.03,0
		c5.86,0.75,2.32,6.27,4.1,12.91c0.58,2.16-0.31,4.51,1.02,6.66c1.84-0.2,2.45-1.53,2.15-2.77c-2.07-8.64-0.48-20.35-3.38-21.51
		c-1.54,0.61-0.41,2.15-1.64,3.28c-6.15-0.92-12.8-1.23-19.67-1.33c1.74,6.66,1.43,13.01,2.25,19.77c-4.3-1.54-7.99-3.69-12.7-4.2
		C438.58,315.22,441.86,314.5,443.39,316.75z"/>
	<path d="M89.31,568.31c-1.64,0.31-0.51,1.84-1.64,3.07c-5.94-0.92-12.39-1.33-18.95-1.13c1.95,6.35,1.54,12.5,2.36,19.05
		c-3.99-2.05-7.58-3.48-11.57-4.1c1.33,2.15,4.4,1.64,5.84,3.58c-0.1,0.51-0.51,0.51-0.92,0.41c0,3.26,2.59-1.4,3.99,0.82
		c1.63,2.57,4.3,2.35,6.66,2.66c10.3,1.36,12.75,1.12,14.13-1.64c-25.15-2.25-13.35,2.87-17-18.33c7.28,0.69,16.99-3.1,16.8,4.71
		c-0.05,2.05,0.3,12.38,1.54,14.03c1.95-0.31,2.25-1.84,1.95-3.18C90.34,578.79,92.07,569.68,89.31,568.31z"/>
	<path d="M601.33,32.83c-1.74,0.61-2.77,1.95-3.69,3.79c1.74,1.74,1.33,4.2,2.05,6.66c3.37-1.07,7.79-12.13,10.75-19.36
		c1.05-2.55,2.46-4.23,5.43-4.3c6.96-0.17,13.61-3.17,20.79-2.25c1.84,0.23,3.48-0.41,4.92-1.13c-0.1-0.51-0.31-0.93-0.92-0.92
		c-23.39,0.49-29.95,1.07-34.31,11.98C602.25,37.56,603.05,32.07,601.33,32.83z M600,39.08c0.31-1.54,0.72-2.25,1.95-2.25
		C601.74,37.75,601.54,38.67,600,39.08z"/>
	<path d="M375.18,287.87c-1.11,2.88,62.83,30.35,66.37,29.09C372.35,286.48,376.69,287.64,375.18,287.87z"/>
	<path d="M0.21,561.65c0,2.37,58.99,28.51,64.12,27.55C64.22,589.15,1.3,561.06,0.21,561.65z"/>
	<path d="M219.7,184.01c-2.05-1.54-3.99-0.72-6.04-0.92c1.43-1.74,4.1-1.13,4.92-3.18c-34.01,5.27-22.17,6.56-30.42,8.81
		C198.91,189.13,209.05,186.37,219.7,184.01z"/>
	<path d="M170.33,279.16c1.13,0.51,1.43-1.23,2.46-0.82c2.97,2.66,2.77,7.58,6.45,9.63c1.84-0.72,1.84-1.95,1.33-3.07
		c-2.82-7.76-6.06-5.51-6.15-11.06c-0.05-3.38-0.13-6.85-1.33-10.14c-0.52-1.42,1.26-6.02-1.64-8.5c0.1,2.77-1.84,5.53,0.31,8.4
		c0.92,1.39-0.36,5.03,0.51,13.32c-3.18-2.05-5.12-4.51-6.66-7.58C163.98,271.99,164.6,273.12,170.33,279.16z"/>
	<path d="M606.25,95c0,0.11,4.59,35.13,4.61,35.23c0.52,2.87-0.41,5.63-0.72,8.5c2.25-2.46,3.51-5.43,3.18-8.71
		C611.44,111.96,610.62,97.63,606.25,95z"/>
	<path d="M154.46,337.13c-1.13,1.84-0.41,3.18,0.72,3.69c3.21,1.44,7.07,9.17,7.17,9.22c6.83,2.85,3.45,12.99,8.5,14.85
		c1.64-0.31,2.13-1.33,1.74-2.87c-1.31-5.2-1.23-11.16-7.48-12.8C162.96,343.49,157.53,341.33,154.46,337.13z"/>
	<path d="M414.72,285.82c5.22,3.23,23.79,11.69,30.01,11.88c-21-9.22-41.79-19.26-64.42-24.38
		C383.43,274.4,411.87,284.06,414.72,285.82z"/>
	<path d="M179.96,338.47c1.84-3.69-0.64-6.75-1.64-10.04c-0.53-1.74-2.56-2.36-4.92-2.36c0.72-2.97-1.64-4.1-3.07-5.43
		c-1.13-5.02,2.87-7.99,3.89-11.98c-5.22,2.36-5.43,7.58-7.37,12.29c4.61,3.69,6.25,9.94,11.37,13.32
		C178.21,334.37,176.15,342.28,179.96,338.47z"/>
	<path d="M66.27,569.43C52.6,564.27,6.7,543.95,5.02,547.31c45.42,14.7,43.91,19.28,61.45,23.76
		C67.6,570.35,66.88,569.74,66.27,569.43z"/>
	<path d="M600.61,110.06c-1.5-1.67,0.25-5.54-2.87-7.27c-0.87,11.68,3.08,4.29,2.25,19.56c-0.32,5.95,2.11,3.75,1.13,11.47
		c-0.22,1.74-1.13,3.69,0.41,5.33c1.74,0,1.73-1.33,1.84-2.25c0.46-3.69,1.17-7.4-0.61-10.86
		C601.4,123.39,605.39,115.37,600.61,110.06z"/>
	<path d="M590.99,130.65c-1.43,1.23-1.13,2.46-0.61,2.97c1.95,1.95,1.23,4.51,1.95,6.66c3.47,10.42,2.29,12.09,5.84,14.34
		c1.51,0.96,2.66,0.61,3.38-0.92c-0.18-2.47-5.77-6.71-6.45-12.91C594.69,137.2,591.81,134.44,590.99,130.65z"/>
	<path d="M430.8,535.94c5.63,0.31,7.78-0.82,7.78-3.89C438.58,526.95,428.52,524.75,430.8,535.94z M436.53,531.23
		c0.31,1.54,0.1,2.87-2.05,3.18c0.1-1.74-0.92-2.15-2.46-1.64C431.48,529.13,436.04,528.79,436.53,531.23z"/>
	<path d="M828.1,253.56c-3.38,1.74-1.95,4.51-1.43,7.17c2.77,0.2,5.78,1.25,7.48-2.05C835.93,255.21,831.84,251.35,828.1,253.56z
		 M830.35,259.4c0.82-2.77-1.23-1.64-2.66-2.05C828.81,250.65,836.5,257.93,830.35,259.4z"/>
	<path d="M562.21,21.36c-2.14,10.53-7.03,20.55-6.35,22.43c2.77-0.92,7.11-17.96,7.89-22.84C564.48,18.37,562.77,18.57,562.21,21.36
		z"/>
	<path d="M143.8,194.25c5.63-0.51,11.57-0.92,17.21-3.07c-5.1-1.82-13.89,0.96-18.13,0.82C142.98,192.72,142.78,193.43,143.8,194.25
		z"/>
	<path d="M835.27,256.12c-0.25,5.56,8.71,5.72,8.71,0.1C843.97,250.77,835.51,250.87,835.27,256.12z M842.03,256.22
		c0,3.32-4.49,3.2-4.71,0.31C836.87,253.2,842.03,253.02,842.03,256.22z"/>
	<path d="M443.6,535.53c5.65,0,5.87-8.05,0.41-8.3C437.92,526.96,438.1,535.53,443.6,535.53z M443.7,533.79
		c-2.97,0.21-3.24-4.81,0.1-4.81C446.91,528.98,446.79,533.79,443.7,533.79z"/>
	<path d="M451.59,533.69c2.49-3.73,1.8,0.49,4.1,0.61c0.51-2.56,0.31-5.02-0.61-7.37c-2.55-1.28-8.24,0.89-5.74,3.58
		c1.23,1.54,0.51,2.77,0.31,3.99C450.77,534.81,451.18,534.3,451.59,533.69z M453.84,529.28c-0.92,1.64-1.84,1.74-3.18,0.1
		C451.79,528.46,452.71,527.85,453.84,529.28z"/>
	<path d="M848.89,257.14c0.91-0.12,4.53,7.28,2.36-5.22c-3-1.41-8.34,0.69-6.04,3.48c1.16,1.41,0.82,2.56,0.2,4.1
		C847.66,259.5,847.66,257.55,848.89,257.14z M849.5,253.76c-0.92,1.84-0.92,1.84-2.97,0.41
		C847.66,253.35,848.48,252.84,849.5,253.76z"/>
	<path d="M430.8,169.67c5.12-5.53,10.86-10.14,17.62-13.62C446.73,154.79,435.46,159.79,430.8,169.67z"/>
	<path d="M114.2,348.4c-0.82,0.1-1.33,0-1.54,0.2c-3.22,5.13-14.02,8.53-14.24,13.52c3.27-1.42,7.3-7.82,12.6-9.32
		C112.87,352.28,114.41,351.06,114.2,348.4z"/>
	<path d="M54.69,446.93c4.61-4.81,9.94-8.91,15.98-12.19C63.4,436.08,57.26,440.69,54.69,446.93z"/>
	<path d="M554.63,116c-0.1-4.4-0.31-8.3-1.33-12.7C550.73,108.22,551.25,113.03,554.63,116z"/>
	<path d="M175.15,206.85c4.18,8.86,0.42,12.67,3.38,14.44c-0.31-3.07,0.26-6.04,0.1-9.22c-0.14-2.76-2.15-4.61-1.64-7.37
		C175.15,205.01,174.75,206.02,175.15,206.85z"/>
	<path d="M168.79,297.5c0.41,1.84,0.82,3.69,2.15,5.12c2.66-1.74,4.61-5.02,4.71-9.12C168.38,302.46,172.07,296.74,168.79,297.5z"/>
	<path d="M199.83,181.76c-3.58-7.27-7.78-12.09-11.37-12.5C192.45,173.26,195.83,177.76,199.83,181.76z"/>
	<path d="M176.78,193.84c-2.46,2.87,1.33,6.25-1.02,9.12C180.37,200.71,180.68,196.2,176.78,193.84z"/>
	<path d="M419.73,198.45c2.05-7.27,3.79-14.75,6.15-22.02C422.43,177.87,419.94,195.07,419.73,198.45z"/>
	<path d="M48.45,455.23c-2.25,2.36-4.81,12.09-5.22,20.08C44.96,468.65,46.6,462.09,48.45,455.23z"/>
	<path d="M183.03,263.9c0.72-5.12,0.1-10.14-1.13-15.16C181.91,266.18,181.53,263.9,183.03,263.9z"/>
	<path d="M179.75,229.59c1.14,3.43-1.17,6.71-0.2,10.75c2.46-6.96,1.54-13.11-0.92-19.15C178.63,224.06,178.83,226.82,179.75,229.59
		z"/>
	<path d="M538.14,72.57c2.56,3.38,5.22,6.66,7.37,11.06C546.33,79.95,542.03,73.6,538.14,72.57z"/>
	<path d="M479.75,97.57c3.69,1.64,7.07,3.69,10.34,5.94c-0.2-2.46-1.14-4.23-3.89-4.71C484.11,98.43,482.87,95.41,479.75,97.57z"/>
	<path d="M550.73,74.52c1.74,3.18,2.25,6.35,4.51,8.71C556.78,80.15,555.14,76.67,550.73,74.52z"/>
	<path d="M100.17,378.82c1.84,1.64,3.58,2.25,5.43,2.56c1.84,0.31,2.05,3.07,4.2,2.77C109.49,380.67,104.88,377.9,100.17,378.82z"/>
	<path d="M522.57,82.61c4.51-0.31,8.4,1.64,12.6,3.48C532.71,82.1,526.36,80.26,522.57,82.61z"/>
	<path d="M595.39,30.27c-0.41,1.23-2.25,1.33-2.36,3.58C609.99,28.03,598.74,30.91,595.39,30.27z"/>
	<path d="M477.71,79.44c2.05-0.61,7.58-5.53,9.53-8.19C483.13,72.57,478.93,76.16,477.71,79.44z"/>
	<path d="M584.12,25.77c-1.43-3.89-3.99-6.96-6.96-9.63C578.39,20.24,581.36,23,584.12,25.77z"/>
	<path d="M522.57,43.38c3.69-1.95,7.48-3.28,10.96-5.43C529.23,38.47,525.33,39.9,522.57,43.38z"/>
	<path d="M558.11,48.09c0.61,3.58,2.87,6.25,5.12,9.01C562.51,53.52,560.16,50.86,558.11,48.09z"/>
	<path d="M553.91,102.58c2.36-1.64,4.1-3.38,6.76-3.79C558.52,96.44,555.65,98.08,553.91,102.58z"/>
	<path d="M487.23,71.14c4.51-0.51,6.15-1.74,6.76-5.33c-2.92-0.81-2.88,2.43-4.53,3.23C489.25,70.41,487.74,70.32,487.23,71.14z"/>
	<path d="M489.38,69.09c0.04-0.03,0.1-0.06,0.1-0.1L489.38,69.09z"/>
	<path d="M172.58,167.83c3.28,0.61,6.45,0.92,9.42-0.92C178.73,166.09,175.66,166.6,172.58,167.83z"/>
	<path d="M561.08,91.32c0.2-3.07-1.13-5.22-3.07-7.07C558.52,89.78,558.52,89.78,561.08,91.32z"/>
	<path d="M556.67,95.11c-0.72-2.77-2.25-4.71-5.02-5.53C553.19,91.52,553.29,94.8,556.67,95.11z"/>
	<path d="M189.18,156.46c0.72-3.79,1.43-7.58,2.15-11.68C189.59,146.93,188.56,151.54,189.18,156.46z"/>
	<path d="M116.46,352.4c2.87,1.23,5.02-0.61,7.37-0.61C125.35,351.78,120.41,348.92,116.46,352.4z"/>
	<path d="M496.14,70.12c3.48,0.61,5.74-0.92,8.19-1.43C501.67,68.07,499.01,67.25,496.14,70.12z"/>
	<path d="M173.92,365.92c-1.02,2.46-1.02,2.56,0.82,6.25C175.35,370.01,176.07,367.86,173.92,365.92z"/>
	<path d="M540.59,43.28c2.56,0,5.22,0,7.78,0C550.3,43.28,543.56,40.66,540.59,43.28z"/>
	<path d="M124.14,174.79c-2.56-0.2-5.22-0.31-8.09,1.33C119.42,176.8,120.09,175.53,124.14,174.79z"/>
	<path d="M546.02,95.62c-0.92-2.46-2.87-3.69-4.71-5.53C542.23,93.57,543.36,94.9,546.02,95.62z"/>
	<path d="M596.52,92.65c-0.61,2.77-0.61,2.77,0.72,5.02C598.46,95.62,597.44,94.19,596.52,92.65z"/>
	<path d="M170.64,241.68c0.92-1.95,1.02-3.79-0.2-5.63C169.72,237.99,169.92,239.83,170.64,241.68z"/>
	<path d="M175.96,307.84c1.84-0.1,3.07-1.02,4.1-2.46C177.91,304.05,177.6,304.26,175.96,307.84z"/>
	<path d="M465.52,296.47c-1.43-1.84-3.58-1.84-5.43-2.25C461.11,296.88,463.47,296.17,465.52,296.47z"/>
	<path d="M167.98,177.15c0.31,1.64,1.02,2.66,2.66,3.18C171.46,177.66,171.46,177.66,167.98,177.15z"/>
	<path d="M171.66,245.67c-0.61,2.46-0.72,4.2-0.1,6.45C173.3,249.87,173.2,248.13,171.66,245.67z"/>
	<path d="M176.27,381.38c-1.23,1.43-1.13,2.77-1.43,4.2C177.6,384.66,177.6,384.66,176.27,381.38z"/>
	<path d="M609.22,146.01c0.2-2.05,0.82-3.69-0.51-5.43C607.17,142.63,608.6,144.07,609.22,146.01z"/>
	<path d="M589.45,30.38c2.46,1.84,4.1,0,5.84,0C593.44,29.76,591.7,29.35,589.45,30.38z"/>
	<path d="M164.19,268.82c0.82-1.84,0.2-2.77-1.64-3.79C162.14,266.97,162.65,267.9,164.19,268.82z"/>
	<path d="M181.09,189.03c-1.23,1.02-1.54,1.95-0.51,3.58C182.11,190.98,182.11,190.98,181.09,189.03z"/>
	<path d="M181.09,341.23c1.43-2.25,1.43-2.25-1.02-2.77C179.96,339.59,179.96,340.62,181.09,341.23z"/>
	<path d="M168.08,295.86c0.92-1.84-0.2-2.56-1.33-3.48C166.23,293.81,166.13,295.14,168.08,295.86z"/>
	<path d="M174.33,190.36c-1.33,1.33-1.43,2.25-0.41,3.28C175.25,192.82,174.94,191.9,174.33,190.36z"/>
	<path d="M546.13,84.05c-0.82,1.64-0.82,2.56,0.82,3.38C547.76,86.2,547.46,85.27,546.13,84.05z"/>
	<path d="M612.09,98.59c1.13-0.82,0.72-1.64,0.31-2.66C611.47,96.85,611.37,97.57,612.09,98.59z"/>
	<path d="M601.13,141.81c-0.41,1.43,0,2.15,0.92,2.66C602.66,143.35,602.46,142.63,601.13,141.81z"/>
	<path d="M185.69,166.29c-1.23,0.1-2.56-0.1-3.69,0.61C183.24,167.01,184.57,167.21,185.69,166.29z"/>
	<path d="M173.3,374.52c-1.64,1.02-1.64,1.84-1.02,2.97C173.51,376.98,173.51,376.16,173.3,374.52z"/>
	<path d="M163.06,171.82c0.1-1.43-0.1-2.15-1.23-2.46C161.11,170.49,161.73,171,163.06,171.82z"/>
	<path d="M611.98,89.78c0.61-1.02,0.31-1.64-0.1-2.46C610.86,88.45,611.37,89.06,611.98,89.78z"/>
	<path d="M616.08,114.16c-0.61,1.13-0.31,1.95,0.92,2.87C617.21,115.59,616.8,114.77,616.08,114.16z"/>
	<path d="M164.8,180.94c0.31-1.54-0.61-1.43-1.33-1.84C163.16,180.43,163.67,180.84,164.8,180.94z"/>
	<path d="M607.17,152.67c0.72-0.72,0.51-1.13-0.1-1.54C606.25,151.65,606.45,152.05,607.17,152.67z"/>
	<path d="M165.01,173.05c0,2.23,2.46,0.77,0.92-0.2C165.62,172.65,165.21,172.64,165.01,173.05z"/>
	<path d="M425.78,176.33c0.12-0.09,0.18-0.23,0.24-0.37C425.94,176.08,425.87,176.21,425.78,176.33z"/>
	<path d="M426.01,175.96c0.19-0.3,0.37-0.6,0.58-0.96C426.17,175.21,426.14,175.62,426.01,175.96z"/>
	<path d="M162.34,261.14c0.72-0.1,0.92-0.51,0.92-1.43C162.14,259.91,161.93,260.42,162.34,261.14z"/>
	<path d="M537.62,35.91c-0.82-0.41-1.02,0.31-1.64,0.72C537.01,36.73,537.42,36.42,537.62,35.91z"/>
	<path d="M333.9,395.82c2.15-0.41,1.54-2.87,3.28-4.3c17.1-5.12,34.78-10.71,48.96-23.76c1.01-0.93,2.05-1.95,2.05-3.69
		c-14.03,14.65-32.57,19.77-50.7,25.2c-1.23-0.61-0.61-1.74-1.43-2.46c-0.2,1.02-0.41,1.95-0.72,2.87
		c-2.66,2.05-6.76,1.54-9.32,5.43C338.75,390.01,332.41,393.68,333.9,395.82z"/>
	<path d="M388.7,367.35c-41.4,35.1-67.95,30.18-66.27,35.23C348.04,397.36,370.67,386.71,388.7,367.35z"/>
	<path d="M320.59,379.13c16.17-7.64-4.97-46.41-12.19-41.99C319.1,348.04,328.42,355.64,320.59,379.13z"/>
	<path d="M364.22,402.69c8.3-0.61,21.1-11.57,21.3-18.23C377.94,396.6,370.07,398.69,364.22,402.69z"/>
	<path d="M280.74,368.17c-4.51,7.17-10.86,12.91-15.36,20.08C272.14,382.82,276.85,375.85,280.74,368.17z"/>
	<path d="M315.16,396.64c4.81-0.61,6.96-4.61,4.81-9.53C318.23,390.4,317.82,393.98,315.16,396.64z"/>
	<path d="M355.31,359.87c-0.36-1.07,1.04-1.2-12.39,4.51C343.78,366.11,353.58,360.78,355.31,359.87z"/>
	<path d="M386.34,352.4c-0.51,2.25,0.92,3.79,1.54,5.53C388.8,354.65,388.7,354.34,386.34,352.4z"/>
	<path d="M280.03,361.31c0,1.95-2.05,2.87-2.05,4.81C280.8,363.87,281.24,363.28,280.03,361.31z"/>
	<path d="M279.52,347.27c-0.14,2.12,2.15,2.42,2.15,1.02C281.56,346.87,280.85,346.46,279.52,347.27z"/>
	<path d="M432.84,432.8c-2.36,2.46-7.58,20.28-7.27,25.4C429.36,449.7,433.56,442.02,432.84,432.8z"/>
	<path d="M406.52,379.33c3.99,2.36,8.71,4.3,10.04,4.2C415.23,379.64,410.31,377.59,406.52,379.33z"/>
	<path d="M428.75,404.53c-0.92,4.61,2.05,8.3,2.87,12.5C431,412.83,431.21,408.32,428.75,404.53z"/>
	<path d="M435.81,393.06c2.05-3.69-1.33-5.53-2.66-8.19C432.64,388.04,434.28,390.5,435.81,393.06z"/>
	<path d="M411.03,403.4c3.18-1.95,3.89-5.84,6.35-8.4C414.2,397.05,411.64,399.51,411.03,403.4z"/>
	<path d="M403.14,380.15c-4.61-3.38-6.66-3.58-8.5-0.51C397.41,379.74,400.07,379.95,403.14,380.15z"/>
	<path d="M425.67,487.39c-1.33,2.05-2.56,3.69-1.33,6.35C426.9,491.9,426.6,489.95,425.67,487.39z"/>
	<path d="M425.98,482.99c2.15-1.84,1.64-3.99,0.72-6.15C425.26,478.79,425.88,480.94,425.98,482.99z"/>
	<path d="M432.23,424.91c1.23-2.25,0.41-3.89-0.82-5.63C430.49,421.43,431,423.27,432.23,424.91z"/>
	<path d="M421.07,386.81c-1.13,1.74-2.36,3.38-2.56,5.94C421.17,391.11,421.68,389.17,421.07,386.81z"/>
	<path d="M433.15,382.71c0.92-1.74,0.31-3.07-1.23-4.4C431,380.36,432.23,381.48,433.15,382.71z"/>
	<path d="M426.7,470.49c-1.02,1.43-1.02,1.43-0.72,4.2C426.7,472.85,427.11,471.72,426.7,470.49z"/>
	<path d="M430.39,369.6c-1.43-0.1-1.74,0.61-1.74,2.25C429.87,371.34,430.8,371.04,430.39,369.6z"/>
	<path d="M431.31,375.75c-0.92,0.72-0.72,1.33-0.31,1.95C432.13,377.29,431.92,376.67,431.31,375.75z"/>
	<path d="M60.23,421.63c1.64-6.04,2.36-11.47,2.66-17.31C59.71,406.68,58.28,416.51,60.23,421.63z"/>
	<path d="M224.82,402.58c-1.43,4.61,1.02,8.71-0.82,12.6C228.59,416.33,227.05,406.45,224.82,402.58z"/>
	<path d="M236.7,405.25c-2.46,2.46-1.54,5.02-1.33,7.37C237.01,410.57,237.52,408.32,236.7,405.25z"/>
	<path d="M158.45,414.77c-0.61,1.43-1.02,2.97,0.2,5.12C159.37,417.64,159.06,416.21,158.45,414.77z"/>
	<path d="M86.96,407.19c-1.02,1.02-0.2,2.05-0.41,2.87C86.65,409.14,87.37,408.32,86.96,407.19z"/>
	<path d="M256.27,345.64c3.24,17.29-18.36,27.06-17.62,30.52C241.26,378.4,266.03,354.93,256.27,345.64z"/>
	<path d="M205.26,359.16c2.15-4.92,2.87-9.94,2.15-15.26C206.18,348.81,204.03,353.73,205.26,359.16z"/>
	<path d="M231.79,328.43c2.87,4.2,6.66,7.78,8.71,12.6C239.37,335.6,236.91,331.09,231.79,328.43z"/>
	<path d="M237.21,373.6c3.18-2.56,7.48-11.68,8.91-18.95C243.46,360.9,240.59,367.15,237.21,373.6z"/>
	<path d="M217.86,360.49c3.79-0.82,4.1-5.02,0.82-8.5C219.8,354.85,219.19,357.62,217.86,360.49z"/>
	<path d="M229.84,361.41c2.36-5.84,2.46-9.94,0.31-13.93C230.86,351.88,230.25,356.29,229.84,361.41z"/>
	<path d="M226.66,376.26c-2.25,2.77-5.12,5.33-5.63,9.32C223.59,382.92,225.33,379.74,226.66,376.26z"/>
	<path d="M193.48,349.32c1.23-2.05,0-3.28-0.72-4.61C192.35,346.15,191.53,347.68,193.48,349.32z"/>
	<path d="M240.39,350.04c0.1-1.13,0.41-2.36-0.82-3.48C239.16,348.2,240.18,349.02,240.39,350.04z"/>
	<path d="M211.71,316.65c0.1,1.13,0.82,0.92,1.33,1.23C213.14,316.85,212.53,316.85,211.71,316.65z"/>
	<path d="M112.77,264.41c-3.18,2.56-3.18,2.66-2.97,10.14c-2.87,3.38-7.27,6.04-6.66,11.98c1.88-1.25,2.31-6.59,6.56-8.5
		C119.28,273.72,113.65,240.5,112.77,264.41z"/>
	<path d="M110.41,330.37c2.36-6.25,3.07-12.8,3.18-19.46c-3.18,6.15-4.92,12.5-4.81,19.26C109.29,330.27,109.8,330.37,110.41,330.37
		z"/>
	<path d="M114.61,306.82c-0.71,4.29,4.78,0.95,1.95-14.54C112.31,295.77,116.39,296.04,114.61,306.82z"/>
	<path d="M115.94,272.61c0.33,1-0.51,1.38,9.42-3.07C124.65,267.39,118.47,270.19,115.94,272.61z"/>
	<path d="M120.86,285.72c3.99-1.33,4.1-1.64,2.36-4.2C121.68,282.44,121.78,284.39,120.86,285.72z"/>
	<path d="M349.06,524.06c6.65,3.75,15.15,2.96,39.74,8.6c4.39,1.01,8.71,2.25,13.21,2.66C398.86,531.44,356.36,526.28,349.06,524.06
		z"/>
	<path d="M350.09,510.13c-1.37,2.16-1.46,2.24,0,4.4C352.85,512.48,352.75,512.08,350.09,510.13z"/>
	<path d="M359.3,502.96c0-2.15-0.92-3.07-3.38-2.97C356.03,502.55,356.54,503.98,359.3,502.96z"/>
	<path d="M39.13,411.9c1.33-1.54,2.25-3.07,2.05-5.43C39.43,408.22,39.54,410.16,39.13,411.9z"/>
	<path d="M725.47,105.35c-0.61,1.13,0.1,2.36-0.82,3.58c-2.56,1.84-6.76,1.54-8.81,4.92c12.61-5.04,6.02-0.36,7.68,1.43
		c2.05-0.61,1.54-2.97,2.87-4.4c12.34-3.8,50.75-16.33,53.47-28.99c-14.34,15.47-33.7,20.69-53.06,26.53
		C725.88,107.4,726.6,106.27,725.47,105.35z"/>
	<path d="M780.37,85.38c-21.57,22.52-56.39,31.49-69.24,36.05C725.88,123.58,768.28,101.56,780.37,85.38z"/>
	<path d="M673.03,44.2c-0.92,0-1.84,0-2.56,1.13c7.06,3.85,24.2,0.65,28.68,7.37C699.92,48.04,697.74,47.01,673.03,44.2z"/>
	<path d="M712.46,79.33c0.15,6.36-0.72,12.39-3.07,18.33C721.56,90.49,712.22,69.52,712.46,79.33z"/>
	<path d="M676.82,110.47c6.86,1.64,10.45-1.54,11.06-13.21c-0.71-0.61-1.06-0.09-3.99,1.54
		C684.3,104.22,681.43,107.81,676.82,110.47z"/>
	<path d="M655.31,50.55c-4.6,2.56,2.06,10.04-5.43,32.26C655.82,72.88,656.03,62.02,655.31,50.55z"/>
	<path d="M754.35,122.25c8.71,0,22.74-11.88,23.05-19.26C772.28,112.01,764.19,117.54,754.35,122.25z"/>
	<path d="M688.19,59.36c8.3,4.71,15.98,9.12,18.13,18.64C713.2,76.53,695.55,57.73,688.19,59.36z"/>
	<path d="M638.04,97.52c5-5.8,8.56-12.41,11.43-19.42C644.2,86,634.76,101.32,638.04,97.52z"/>
	<path d="M703.86,116.1c5.12-0.92,7.17-5.12,4.92-10.45C707.24,109.65,706.42,113.13,703.86,116.1z"/>
	<path d="M746.67,77.18c-0.1-0.31-0.2-0.51-0.41-0.72C721.46,87.18,737.46,81.9,746.67,77.18z"/>
	<path d="M778.32,69.71c-0.82,2.56,0.92,4.2,1.54,6.15C780.57,73.6,780.88,71.45,778.32,69.71z"/>
	<path d="M656.23,102.99c-2.46,0.2-3.28,1.13-4.4,4.51C653.98,106.48,655.21,104.94,656.23,102.99z"/>
	<path d="M826.66,153.69c-2.46,2.77-7.89,21.82-7.48,26.53C823.08,171.41,827.48,163.42,826.66,153.69z"/>
	<path d="M799.11,98.18c4.1,0.1,6.56,4.3,11.16,4.51C807.72,98.18,802.9,96.23,799.11,98.18z"/>
	<path d="M825.33,137.31c-0.51-4.51-0.31-9.12-2.97-13.01C821.54,129.01,824.51,132.9,825.33,137.31z"/>
	<path d="M826.66,103.81c0,3.28,1.43,5.94,2.66,8.81C831.68,110.27,830.66,107.4,826.66,103.81z"/>
	<path d="M803.82,123.89c3.38-2.97,4.3-6.86,7.58-9.63C807.61,115.28,804.34,119.38,803.82,123.89z"/>
	<path d="M786.62,98.08c2.97,0.72,5.84-0.41,8.5,0.82C791.64,95.41,788.77,95.11,786.62,98.08z"/>
	<path d="M819.19,206.34c2.36-1.95,2.56-3.28,0.92-7.17C818.78,201.73,819.49,203.88,819.19,206.34z"/>
	<path d="M819.19,211.15c-1.64,1.54-2.15,3.38-1.74,5.43C820.01,216.27,820.31,215.35,819.19,211.15z"/>
	<path d="M825.95,145.7c1.33-2.46,1.23-3.48-1.23-6.66C824.51,141.81,824.51,143.76,825.95,145.7z"/>
	<path d="M814.58,104.84c-1.43,2.36-2.36,4.3-2.66,6.66C814.58,110.27,814.99,108.11,814.58,104.84z"/>
	<path d="M827.28,101.46c0.41-1.84,0.2-3.38-1.74-4.51C824.92,99,825.64,100.33,827.28,101.46z"/>
	<path d="M820.31,192.51c-1.33,1.74-1.43,2.97-1.23,5.02C820.52,195.79,820.42,194.56,820.31,192.51z"/>
	<path d="M824.21,87.83c-1.64-0.31-1.84,0.72-2.05,2.25C823.59,89.68,824.31,89.17,824.21,87.83z"/>
	<path d="M825.13,96.34c0.61-0.92,0.61-1.54-0.41-2.15C824.41,94.9,824,95.52,825.13,96.34z"/>
	<path d="M437.25,141.3c2.56-5.94,3.48-14.44,2.05-17.72C436.94,129.62,436.22,135.36,437.25,141.3z"/>
	<path d="M545.1,138.13c0.3,0.9-0.66,1.17,4.92,0C547.87,137,546.53,137.31,545.1,138.13z"/>
	<path d="M465.21,129.93c0.2-0.82,0.82-1.64,0.41-2.87C464.6,127.99,465.41,129.01,465.21,129.93z"/>
	<path d="M540.59,139.66c0.72-1.43,0-1.84-1.23-2.05C539.57,138.33,539.37,139.35,540.59,139.66z"/>
	<path d="M769.51,253.86c-6.06-1.18-12.81-1.21-18.54-2.36c-31.95-6.36,11.59,2.77,43.63,9.22
		C793.67,259.01,771.31,254.21,769.51,253.86z"/>
	<path d="M740.42,238.91c2.65-1.84,2.66-2.46-0.07-4.59c-0.1,0-2,2.21-0.86,3.62C739.72,238.21,740.01,238.52,740.42,238.91z"/>
	<path d="M750.05,226.41c-0.2-1.64-1.13-2.56-3.18-2.66C745.29,226.45,748.43,229.12,750.05,226.41z"/>
	<path d="M417.58,126.45c-1.13,1.64-1.64,3.48-2.25,5.63C417.48,130.24,417.58,129.73,417.58,126.45z"/>
	<path d="M478.22,24.13c5.33-5.43,12.7-6.45,18.23-11.06C490.1,13.78,478.53,20.64,478.22,24.13z"/>
<path fill="#e6e6e6" d="m206.8 163.6c0-5.1 4.1-9.2 9.3-9.2s9.2 4.2 9.2 9.2-4.1 9.2-9.3 9.2-9.2-4.1-9.2-9.2zm17.3-.1c0-4.5-3.5-8.2-8.2-8.2s-8.2 3.7-8.2 8.3c0 4.5 3.5 8.2 8.2 8.2s8.2-3.7 8.2-8.3zm-13 0c0-2.8 2.1-5.1 5.1-5.1 1.9 0 2.9.6 3.9 1.5l-1.4 1.7c-.8-.7-1.5-1.1-2.5-1.1-1.7 0-2.8 1.4-2.8 3.1s1.1 3 2.8 3c1.1 0 1.7-.5 2.5-1.1l1.4 1.4c-1.1 1.1-2.1 1.7-4 1.7-2.9 0-5-2.3-5-5.1z"/><path fill="#e6e6e6" d="m226.6 154.7h3.4l4.2 13.2 4.4-13.3h2.6l4.4 13.3 4.2-13.2h3.3l-6.2 18h-2.7l-4.4-12.8-4.4 12.8h-2.7z"/><path fill="#e6e6e6" d="m252.8 165.8c0-3.9 3.1-7 7.2-7 4.2 0 7.2 3.2 7.2 7s-3.1 7-7.3 7c-4 0-7.1-3.1-7.1-7zm11.3 0c0-2.3-1.7-4.3-4.2-4.3s-4.1 2-4.1 4.3 1.7 4.3 4.1 4.3c2.7.1 4.2-1.9 4.2-4.3z"/><path fill="#e6e6e6" d="m269.5 159.1h3.1v3c.8-2 2.4-3.4 4.8-3.3v3.2h-.2c-2.7 0-4.6 1.7-4.6 5.4v5.1h-3.1z"/><path fill="#e6e6e6" d="m279.1 153.9h3.1v11.1l5.6-6h3.8l-5.4 5.5 5.5 8h-3.5l-4.1-5.8-1.9 2v3.9h-3.1z"/><path fill="#e6e6e6" d="m291.7 165.8c0-3.9 3.1-7 7.2-7 4.2 0 7.2 3.2 7.2 7s-3.1 7-7.3 7c-4 0-7.1-3.1-7.1-7zm11.3 0c0-2.3-1.7-4.3-4.2-4.3s-4.1 2-4.1 4.3 1.7 4.3 4.1 4.3c2.6.1 4.2-1.9 4.2-4.3z"/><path fill="#e6e6e6" d="m308.2 167.6v-8.6h3.1v7.6c0 2.1 1.1 3.3 2.9 3.3s3-1.3 3-3.3v-7.6h3.1v13.4h-3.1v-2.1c-.8 1.3-2.1 2.3-4.2 2.3-3.1.2-4.8-1.8-4.8-5z"/><path fill="#e6e6e6" d="m323.9 168.8v-7.1h-1.7v-2.6h1.7v-3.7h3.1v3.7h3.6v2.6h-3.6v6.6c0 1.2.6 1.7 1.7 1.7.7 0 1.3-.2 1.9-.5v2.5c-.8.5-1.7.7-2.8.7-2.3 0-3.9-.9-3.9-3.9z"/><path fill="#e6e6e6" d="m333.2 154.7h3.2v15h9.4v2.9h-12.5v-17.9z"/><path fill="#e6e6e6" d="m356 172.5v-1.7c-.9 1.1-2.3 2-4.4 2-2.6 0-4.8-1.4-4.8-4.2 0-3 2.3-4.4 5.4-4.4 1.7 0 2.6.2 3.7.5v-.2c0-1.9-1.2-2.9-3.3-2.9-1.5 0-2.6.3-3.9.8l-.8-2.5c1.5-.7 2.9-1.1 5.1-1.1 4 0 5.9 2.1 5.9 5.7v8zm.1-5.6c-.8-.3-1.9-.5-3.1-.5-2 0-3.1.8-3.1 2.1s1.1 2 2.6 2c2 0 3.5-1.1 3.5-2.9z"/><path fill="#e6e6e6" d="m364.9 170.5v2.1h-3.1v-18.7h3.1v7.4c1-1.4 2.4-2.5 4.5-2.5 3.2 0 6.3 2.5 6.3 7s-3.1 7-6.3 7c-2.1 0-3.5-1.1-4.5-2.3zm7.7-4.7c0-2.6-1.7-4.3-3.9-4.3s-3.9 1.7-3.9 4.4c0 2.6 1.8 4.3 3.9 4.3s3.9-1.7 3.9-4.4z"/><path fill="#e6e6e6" d="m376.9 170.8 1.4-2.1c1.4 1.1 3 1.7 4.4 1.7s2.1-.5 2.1-1.5-1.3-1.4-2.8-1.8c-.1 0-.2-.1-.2-.1-2-.6-4.2-1.4-4.2-4s2.1-4.1 4.8-4.1c1.7 0 3.5.6 5 1.5l-1.2 2.2c-1.3-.8-2.6-1.3-3.8-1.3s-1.9.5-1.9 1.4 1.3 1.4 2.8 1.8c.1 0 .2.1.2.1 2 .6 4.2 1.5 4.2 4 0 2.9-2.2 4.2-5 4.2-1.9 0-4-.7-5.8-2z"/><path fill="#e6e6e6" d="m505.6 163.6c0-5.1 4.1-9.2 9.3-9.2s9.2 4.2 9.2 9.2-4.1 9.2-9.3 9.2-9.2-4.1-9.2-9.2zm17.4-.1c0-4.5-3.5-8.2-8.2-8.2s-8.2 3.7-8.2 8.3c0 4.5 3.5 8.2 8.2 8.2s8.2-3.7 8.2-8.3zm-13.1 0c0-2.8 2.1-5.1 5.1-5.1 1.9 0 2.9.6 3.9 1.5l-1.4 1.7c-.8-.7-1.5-1.1-2.5-1.1-1.7 0-2.8 1.4-2.8 3.1s1.1 3 2.8 3c1.1 0 1.7-.5 2.5-1.1l1.4 1.4c-1.1 1.1-2.1 1.7-4 1.7-2.9 0-5-2.3-5-5.1z"/><path fill="#e6e6e6" d="m525.4 154.7h3.4l4.2 13.2 4.4-13.3h2.6l4.4 13.3 4.2-13.2h3.3l-6.2 18h-2.7l-4.4-12.8-4.4 12.8h-2.7z"/><path fill="#e6e6e6" d="m551.7 165.8c0-3.9 3.1-7 7.2-7 4.2 0 7.2 3.2 7.2 7s-3.1 7-7.3 7c-4.1 0-7.1-3.1-7.1-7zm11.2 0c0-2.3-1.7-4.3-4.2-4.3s-4.1 2-4.1 4.3 1.7 4.3 4.1 4.3c2.7.1 4.2-1.9 4.2-4.3z"/><path fill="#e6e6e6" d="m568.3 159.1h3.1v3c.8-2 2.4-3.4 4.8-3.3v3.2h-.2c-2.7 0-4.6 1.7-4.6 5.4v5.1h-3.1z"/><path fill="#e6e6e6" d="m577.9 153.9h3.1v11.1l5.6-6h3.8l-5.4 5.5 5.5 8h-3.5l-4.1-5.8-1.9 2v3.9h-3.1z"/><path fill="#e6e6e6" d="m590.6 165.8c0-3.9 3.1-7 7.2-7 4.2 0 7.2 3.2 7.2 7s-3.1 7-7.3 7c-4.1 0-7.1-3.1-7.1-7zm11.2 0c0-2.3-1.7-4.3-4.2-4.3s-4.1 2-4.1 4.3 1.7 4.3 4.1 4.3c2.6.1 4.2-1.9 4.2-4.3z"/><path fill="#e6e6e6" d="m607 167.6v-8.6h3.1v7.6c0 2.1 1.1 3.3 2.9 3.3s3-1.3 3-3.3v-7.6h3.1v13.4h-3.1v-2.1c-.8 1.3-2.1 2.3-4.2 2.3-3 .2-4.8-1.8-4.8-5z"/><path fill="#e6e6e6" d="m622.7 168.8v-7.1h-1.7v-2.6h1.7v-3.7h3.1v3.7h3.6v2.6h-3.6v6.6c0 1.2.6 1.7 1.7 1.7.7 0 1.3-.2 1.9-.5v2.5c-.8.5-1.7.7-2.8.7-2.3 0-3.9-.9-3.9-3.9z"/><path fill="#e6e6e6" d="m632 154.7h3.2v15h9.4v2.9h-12.6z"/><path fill="#e6e6e6" d="m654.8 172.5v-1.7c-.9 1.1-2.3 2-4.4 2-2.6 0-4.8-1.4-4.8-4.2 0-3 2.3-4.4 5.4-4.4 1.7 0 2.6.2 3.7.5v-.2c0-1.9-1.2-2.9-3.3-2.9-1.5 0-2.6.3-3.9.8l-.8-2.5c1.5-.7 2.9-1.1 5.1-1.1 4 0 5.9 2.1 5.9 5.7v8zm.1-5.6c-.8-.3-1.9-.5-3.1-.5-2 0-3.1.8-3.1 2.1s1.1 2 2.6 2c2 0 3.5-1.1 3.5-2.9z"/><path fill="#e6e6e6" d="m663.7 170.5v2.1h-3.1v-18.7h3.1v7.4c1-1.4 2.4-2.5 4.5-2.5 3.2 0 6.3 2.5 6.3 7s-3.1 7-6.3 7c-2.1 0-3.5-1.1-4.5-2.3zm7.8-4.7c0-2.6-1.7-4.3-3.9-4.3-2.1 0-3.9 1.7-3.9 4.4 0 2.6 1.8 4.3 3.9 4.3s3.9-1.7 3.9-4.4z"/><path fill="#e6e6e6" d="m675.8 170.8 1.4-2.1c1.4 1.1 3 1.7 4.4 1.7s2.1-.5 2.1-1.5-1.3-1.4-2.8-1.8c-.1 0-.2-.1-.2-.1-2-.6-4.2-1.4-4.2-4s2.1-4.1 4.8-4.1c1.7 0 3.5.6 5 1.5l-1.2 2.2c-1.3-.8-2.6-1.3-3.8-1.3s-1.9.5-1.9 1.4 1.3 1.4 2.8 1.8c.1 0 .2.1.2.1 2 .6 4.2 1.5 4.2 4 0 2.9-2.2 4.2-5 4.2-2 0-4.1-.7-5.8-2z"/><path fill="#e6e6e6" d="m61 298.6c0-5.1 4.1-9.2 9.3-9.2s9.2 4.2 9.2 9.2-4.1 9.2-9.3 9.2c-5.1 0-9.2-4.2-9.2-9.2zm17.4-.1c0-4.5-3.5-8.2-8.2-8.2s-8.2 3.7-8.2 8.3c0 4.5 3.5 8.2 8.2 8.2s8.2-3.7 8.2-8.3zm-13.1-.1c0-2.8 2.1-5.1 5.1-5.1 1.9 0 2.9.6 3.9 1.5l-1.4 1.7c-.8-.7-1.5-1.1-2.5-1.1-1.7 0-2.8 1.4-2.8 3.1s1.1 3 2.8 3c1.1 0 1.7-.5 2.5-1.1l1.4 1.4c-1.1 1.1-2.1 1.7-4 1.7-2.8.1-5-2.2-5-5.1z"/><path fill="#e6e6e6" d="m80.9 289.7h3.4l4.2 13.2 4.4-13.3h2.6l4.4 13.3 4.2-13.2h3.3l-6.2 18h-2.7l-4.4-12.8-4.4 12.8h-2.7z"/><path fill="#e6e6e6" d="m107.1 300.8c0-3.9 3.1-7 7.2-7s7.2 3.2 7.2 7-3.1 7-7.3 7c-4 0-7.1-3.1-7.1-7zm11.3 0c0-2.3-1.7-4.3-4.2-4.3s-4.1 2-4.1 4.3 1.7 4.3 4.1 4.3c2.6.1 4.2-1.9 4.2-4.3z"/><path fill="#e6e6e6" d="m123.7 294h3.1v3c.8-2 2.4-3.4 4.8-3.3v3.2h-.2c-2.7 0-4.6 1.7-4.6 5.4v5.1h-3.1z"/><path fill="#e6e6e6" d="m133.4 288.9h3.1v11.1l5.6-6h3.8l-5.4 5.5 5.5 8h-3.5l-4.1-5.8-1.9 1.9v3.9h-3.1z"/><path fill="#e6e6e6" d="m146 300.8c0-3.9 3.1-7 7.2-7s7.2 3.2 7.2 7-3.1 7-7.3 7c-4.1 0-7.1-3.1-7.1-7zm11.2 0c0-2.3-1.7-4.3-4.2-4.3s-4.1 2-4.1 4.3 1.7 4.3 4.1 4.3c2.6.1 4.2-1.9 4.2-4.3z"/><path fill="#e6e6e6" d="m162.4 302.6v-8.6h3.1v7.6c0 2.1 1.1 3.3 2.9 3.3s3-1.3 3-3.3v-7.6h3.1v13.4h-3.1v-2.1c-.8 1.3-2.1 2.3-4.2 2.3-3 .2-4.8-1.8-4.8-5z"/><path fill="#e6e6e6" d="m178.1 303.8v-7.1h-1.7v-2.7h1.7v-3.7h3.1v3.7h3.6v2.6h-3.6v6.6c0 1.2.6 1.7 1.7 1.7.7 0 1.3-.2 1.9-.5v2.5c-.8.5-1.7.7-2.8.7-2.3.1-3.9-.9-3.9-3.8z"/><path fill="#e6e6e6" d="m187.4 289.7h3.2v15h9.4v2.9h-12.5v-17.9z"/><path fill="#e6e6e6" d="m210.2 307.5v-1.7c-.9 1.1-2.3 2-4.4 2-2.6 0-4.8-1.4-4.8-4.2 0-3 2.3-4.4 5.4-4.4 1.7 0 2.6.2 3.7.5v-.2c0-1.9-1.2-2.9-3.3-2.9-1.5 0-2.6.3-3.9.8l-.8-2.5c1.5-.7 2.9-1.1 5.1-1.1 4 0 5.9 2.1 5.9 5.7v8zm.1-5.6c-.8-.3-1.9-.5-3.1-.5-2 0-3.1.8-3.1 2.1s1.1 2 2.6 2c2 0 3.5-1.1 3.5-2.9z"/><path fill="#e6e6e6" d="m219.2 305.5v2.1h-3.1v-18.7h3.1v7.4c1-1.4 2.4-2.5 4.5-2.5 3.2 0 6.3 2.5 6.3 7s-3.1 7-6.3 7c-2.2 0-3.6-1.1-4.5-2.3zm7.7-4.7c0-2.6-1.7-4.3-3.9-4.3s-3.9 1.7-3.9 4.4c0 2.6 1.8 4.3 3.9 4.3s3.9-1.7 3.9-4.4z"/><path fill="#e6e6e6" d="m231.2 305.8 1.4-2.1c1.4 1.1 3 1.7 4.4 1.7s2.1-.5 2.1-1.5-1.3-1.4-2.8-1.8c-.1 0-.2-.1-.2-.1-2-.6-4.2-1.4-4.2-4s2.1-4.1 4.8-4.1c1.7 0 3.5.6 5 1.5l-1.2 2.2c-1.3-.8-2.6-1.3-3.8-1.3s-1.9.5-1.9 1.4 1.3 1.4 2.8 1.8c.1 0 .2.1.2.1 2 .6 4.2 1.5 4.2 4 0 2.9-2.2 4.2-5 4.2-2 0-4.1-.7-5.8-2z"/><path fill="#e6e6e6" d="m360.6 298.6c0-5.1 4.1-9.2 9.3-9.2s9.2 4.2 9.2 9.2-4.1 9.2-9.3 9.2-9.2-4.2-9.2-9.2zm17.4-.1c0-4.5-3.5-8.2-8.2-8.2s-8.2 3.7-8.2 8.3c0 4.5 3.5 8.2 8.2 8.2s8.2-3.7 8.2-8.3zm-13.1-.1c0-2.8 2.1-5.1 5.1-5.1 1.9 0 2.9.6 3.9 1.5l-1.4 1.7c-.8-.7-1.5-1.1-2.5-1.1-1.7 0-2.8 1.4-2.8 3.1s1.1 3 2.8 3c1.1 0 1.7-.5 2.5-1.1l1.4 1.4c-1.1 1.1-2.1 1.7-4 1.7-2.8.1-5-2.2-5-5.1z"/><path fill="#e6e6e6" d="m380.5 289.7h3.4l4.2 13.2 4.4-13.3h2.6l4.4 13.3 4.2-13.2h3.3l-6.2 18h-2.7l-4.4-12.8-4.4 12.8h-2.7z"/><path fill="#e6e6e6" d="m406.7 300.8c0-3.9 3.1-7 7.2-7 4.2 0 7.2 3.2 7.2 7s-3.1 7-7.3 7c-4.1 0-7.1-3.1-7.1-7zm11.3 0c0-2.3-1.7-4.3-4.2-4.3s-4.1 2-4.1 4.3 1.7 4.3 4.1 4.3c2.7.1 4.2-1.9 4.2-4.3z"/><path fill="#e6e6e6" d="m423.3 294h3.1v3c.8-2 2.4-3.4 4.8-3.3v3.2h-.2c-2.7 0-4.6 1.7-4.6 5.4v5.1h-3.1z"/><path fill="#e6e6e6" d="m433 288.9h3.1v11.1l5.6-6h3.8l-5.4 5.5 5.5 8h-3.5l-4.1-5.8-1.9 2v3.9h-3.1z"/><path fill="#e6e6e6" d="m445.6 300.8c0-3.9 3.1-7 7.2-7 4.2 0 7.2 3.2 7.2 7s-3.1 7-7.3 7c-4.1 0-7.1-3.1-7.1-7zm11.3 0c0-2.3-1.7-4.3-4.2-4.3s-4.1 2-4.1 4.3 1.7 4.3 4.1 4.3c2.6.1 4.2-1.9 4.2-4.3z"/><path fill="#e6e6e6" d="m462.1 302.6v-8.6h3.1v7.6c0 2.1 1.1 3.3 2.9 3.3s3-1.3 3-3.3v-7.6h3.1v13.4h-3.1v-2.1c-.8 1.3-2.1 2.3-4.2 2.3-3.1.2-4.8-1.8-4.8-5z"/><path fill="#e6e6e6" d="m477.8 303.8v-7.1h-1.8v-2.7h1.7v-3.7h3.1v3.7h3.6v2.6h-3.6v6.6c0 1.2.6 1.7 1.7 1.7.7 0 1.3-.2 1.9-.5v2.5c-.8.5-1.7.7-2.8.7-2.2.1-3.8-.9-3.8-3.8z"/><path fill="#e6e6e6" d="m487.1 289.7h3.2v15h9.4v2.9h-12.5v-17.9z"/><path fill="#e6e6e6" d="m509.9 307.5v-1.7c-.9 1.1-2.3 2-4.4 2-2.6 0-4.8-1.4-4.8-4.2 0-3 2.3-4.4 5.4-4.4 1.7 0 2.6.2 3.7.5v-.2c0-1.9-1.2-2.9-3.3-2.9-1.5 0-2.6.3-3.9.8l-.8-2.5c1.5-.7 2.9-1.1 5.1-1.1 4 0 5.9 2.1 5.9 5.7v8zm.1-5.6c-.8-.3-1.9-.5-3.1-.5-2 0-3.1.8-3.1 2.1s1.1 2 2.6 2c2 0 3.5-1.1 3.5-2.9z"/><path fill="#e6e6e6" d="m518.8 305.5v2.1h-3.1v-18.7h3.1v7.4c1-1.4 2.4-2.5 4.5-2.5 3.2 0 6.3 2.5 6.3 7s-3.1 7-6.3 7c-2.2 0-3.5-1.1-4.5-2.3zm7.7-4.7c0-2.6-1.7-4.3-3.9-4.3s-3.9 1.7-3.9 4.4c0 2.6 1.8 4.3 3.9 4.3s3.9-1.7 3.9-4.4z"/><path fill="#e6e6e6" d="m530.8 305.8 1.4-2.1c1.4 1.1 3 1.7 4.4 1.7s2.1-.5 2.1-1.5-1.3-1.4-2.8-1.8c-.1 0-.2-.1-.2-.1-2-.6-4.2-1.4-4.2-4s2.1-4.1 4.8-4.1c1.7 0 3.5.6 5 1.5l-1.2 2.2c-1.3-.8-2.6-1.3-3.8-1.3s-1.9.5-1.9 1.4 1.3 1.4 2.8 1.8c.1 0 .2.1.2.1 2 .6 4.2 1.5 4.2 4 0 2.9-2.2 4.2-5 4.2-1.9 0-4.1-.7-5.8-2z"/><path fill="#e6e6e6" d="m659.5 298.6c0-5.1 4.1-9.2 9.3-9.2s9.2 4.2 9.2 9.2-4.1 9.2-9.3 9.2-9.2-4.2-9.2-9.2zm17.3-.1c0-4.5-3.5-8.2-8.2-8.2s-8.2 3.7-8.2 8.3c0 4.5 3.5 8.2 8.2 8.2 4.8 0 8.2-3.7 8.2-8.3zm-13-.1c0-2.8 2.1-5.1 5.1-5.1 1.9 0 2.9.6 3.9 1.5l-1.4 1.7c-.8-.7-1.5-1.1-2.5-1.1-1.7 0-2.8 1.4-2.8 3.1s1.1 3 2.8 3c1.1 0 1.7-.5 2.5-1.1l1.4 1.4c-1.1 1.1-2.1 1.7-4 1.7-2.9.1-5-2.2-5-5.1z"/><path fill="#e6e6e6" d="m679.3 289.7h3.4l4.2 13.2 4.4-13.3h2.6l4.4 13.3 4.2-13.2h3.3l-6.2 18h-2.6l-4.4-12.8-4.4 12.8h-2.7z"/><path fill="#e6e6e6" d="m705.5 300.8c0-3.9 3.1-7 7.2-7 4.2 0 7.2 3.2 7.2 7s-3.1 7-7.3 7c-4 0-7.1-3.1-7.1-7zm11.3 0c0-2.3-1.7-4.3-4.2-4.3s-4.1 2-4.1 4.3 1.7 4.3 4.1 4.3c2.7.1 4.2-1.9 4.2-4.3z"/><path fill="#e6e6e6" d="m722.1 294h3.1v3c.8-2 2.4-3.4 4.8-3.3v3.2h-.2c-2.7 0-4.6 1.7-4.6 5.4v5.1h-3.1z"/><path fill="#e6e6e6" d="m731.8 288.9h3.1v11.1l5.6-6h3.8l-5.4 5.5 5.5 8h-3.5l-4.1-5.8-1.9 2v3.9h-3.1z"/><path fill="#e6e6e6" d="m744.4 300.8c0-3.9 3.1-7 7.2-7 4.2 0 7.2 3.2 7.2 7s-3.1 7-7.3 7c-4.1 0-7.1-3.1-7.1-7zm11.3 0c0-2.3-1.7-4.3-4.2-4.3s-4.1 2-4.1 4.3 1.7 4.3 4.1 4.3c2.6.1 4.2-1.9 4.2-4.3z"/><path fill="#e6e6e6" d="m760.9 302.6v-8.6h3.1v7.6c0 2.1 1.1 3.3 2.9 3.3s3-1.3 3-3.3v-7.6h3.1v13.4h-3.1v-2.1c-.8 1.3-2.1 2.3-4.2 2.3-3.1.2-4.8-1.8-4.8-5z"/><path fill="#e6e6e6" d="m776.6 303.8v-7.1h-1.7v-2.7h1.7v-3.7h3.1v3.7h3.6v2.6h-3.6v6.6c0 1.2.6 1.7 1.7 1.7.7 0 1.3-.2 1.9-.5v2.5c-.8.5-1.7.7-2.8.7-2.3.1-3.9-.9-3.9-3.8z"/><path fill="#e6e6e6" d="m785.9 289.7h3.2v15h9.4v2.9h-12.5v-17.9z"/><path fill="#e6e6e6" d="m808.7 307.5v-1.7c-.9 1.1-2.3 2-4.4 2-2.6 0-4.8-1.4-4.8-4.2 0-3 2.3-4.4 5.4-4.4 1.7 0 2.6.2 3.7.5v-.2c0-1.9-1.2-2.9-3.3-2.9-1.5 0-2.6.3-3.9.8l-.8-2.5c1.5-.7 2.9-1.1 5.1-1.1 4 0 5.9 2.1 5.9 5.7v8zm.1-5.6c-.8-.3-1.9-.5-3.1-.5-2 0-3.1.8-3.1 2.1s1.1 2 2.6 2c2 0 3.5-1.1 3.5-2.9z"/><path fill="#e6e6e6" d="m817.6 305.5v2.1h-3.1v-18.7h3.1v7.4c1-1.4 2.4-2.5 4.5-2.5 3.2 0 6.3 2.5 6.3 7s-3.1 7-6.3 7c-2.1 0-3.5-1.1-4.5-2.3zm7.7-4.7c0-2.6-1.7-4.3-3.9-4.3-2.1 0-3.9 1.7-3.9 4.4 0 2.6 1.8 4.3 3.9 4.3 2.2 0 3.9-1.7 3.9-4.4z"/><path fill="#e6e6e6" d="m829.6 305.8 1.4-2.1c1.4 1.1 3 1.7 4.4 1.7s2.1-.5 2.1-1.5-1.3-1.4-2.8-1.8c-.1 0-.2-.1-.2-.1-2-.6-4.2-1.4-4.2-4s2.1-4.1 4.8-4.1c1.7 0 3.5.6 5 1.5l-1.2 2.2c-1.3-.8-2.6-1.3-3.8-1.3s-1.9.5-1.9 1.4 1.3 1.4 2.8 1.8c.1 0 .2.1.2.1 2 .6 4.2 1.5 4.2 4 0 2.9-2.2 4.2-5 4.2-1.9 0-4-.7-5.8-2z"/><path fill="#e6e6e6" d="m206.3 434.2c0-5.1 4.1-9.2 9.3-9.2s9.2 4.2 9.2 9.2-4.1 9.2-9.3 9.2-9.2-4.1-9.2-9.2zm17.4-.1c0-4.5-3.5-8.2-8.2-8.2s-8.2 3.7-8.2 8.3c0 4.5 3.5 8.2 8.2 8.2s8.2-3.7 8.2-8.3zm-13.1-.1c0-2.8 2.1-5.1 5.1-5.1 1.9 0 2.9.6 3.9 1.5l-1.4 1.7c-.8-.7-1.5-1.1-2.5-1.1-1.7 0-2.8 1.4-2.8 3.1s1.1 3 2.8 3c1.1 0 1.7-.5 2.5-1.1l1.4 1.4c-1.1 1.1-2.1 1.7-4 1.7-2.9.1-5-2.2-5-5.1z"/><path fill="#e6e6e6" d="m226.1 425.3h3.4l4.2 13.2 4.4-13.3h2.6l4.4 13.3 4.2-13.2h3.3l-6.2 18h-2.7l-4.4-12.8-4.4 12.8h-2.7z"/><path fill="#e6e6e6" d="m252.4 436.4c0-3.9 3.1-7 7.2-7 4.2 0 7.2 3.2 7.2 7s-3.1 7-7.3 7c-4.1 0-7.1-3.1-7.1-7zm11.2 0c0-2.3-1.7-4.3-4.2-4.3s-4.1 2-4.1 4.3 1.7 4.3 4.1 4.3c2.7.1 4.2-1.9 4.2-4.3z"/><path fill="#e6e6e6" d="m269 429.7h3.1v3c.8-2 2.4-3.4 4.8-3.3v3.2h-.2c-2.7 0-4.6 1.7-4.6 5.4v5.1h-3.1z"/><path fill="#e6e6e6" d="m278.6 424.5h3.1v11.1l5.6-6h3.8l-5.4 5.5 5.5 8h-3.5l-4.1-5.8-1.9 2v3.9h-3.1z"/><path fill="#e6e6e6" d="m291.3 436.4c0-3.9 3.1-7 7.2-7 4.2 0 7.2 3.2 7.2 7s-3.1 7-7.3 7c-4.1 0-7.1-3.1-7.1-7zm11.2 0c0-2.3-1.7-4.3-4.2-4.3s-4.1 2-4.1 4.3 1.7 4.3 4.1 4.3c2.6.1 4.2-1.9 4.2-4.3z"/><path fill="#e6e6e6" d="m307.7 438.2v-8.6h3.1v7.6c0 2.1 1.1 3.3 2.9 3.3s3-1.3 3-3.3v-7.6h3.1v13.4h-3.1v-2.1c-.8 1.3-2.1 2.3-4.2 2.3-3 .2-4.8-1.8-4.8-5z"/><path fill="#e6e6e6" d="m323.4 439.4v-7.1h-1.7v-2.6h1.7v-3.7h3.1v3.7h3.6v2.6h-3.6v6.6c0 1.2.6 1.7 1.7 1.7.7 0 1.3-.2 1.9-.5v2.5c-.8.5-1.7.7-2.8.7-2.3 0-3.9-.9-3.9-3.9z"/><path fill="#e6e6e6" d="m332.7 425.3h3.2v15h9.4v2.9h-12.5v-17.9z"/><path fill="#e6e6e6" d="m355.5 443.1v-1.7c-.9 1.1-2.3 2-4.4 2-2.6 0-4.8-1.4-4.8-4.2 0-3 2.3-4.4 5.4-4.4 1.7 0 2.6.2 3.7.5v-.2c0-1.9-1.2-2.9-3.3-2.9-1.5 0-2.6.3-3.9.8l-.8-2.5c1.5-.7 2.9-1.1 5.1-1.1 4 0 5.9 2.1 5.9 5.7v8zm.1-5.6c-.8-.3-1.9-.5-3.1-.5-2 0-3.1.8-3.1 2.1s1.1 2 2.6 2c2 0 3.5-1.1 3.5-2.9z"/><path fill="#e6e6e6" d="m364.4 441.1v2.1h-3.1v-18.7h3.1v7.4c1-1.4 2.4-2.5 4.5-2.5 3.2 0 6.3 2.5 6.3 7s-3.1 7-6.3 7c-2.1 0-3.5-1.1-4.5-2.3zm7.7-4.7c0-2.6-1.7-4.3-3.9-4.3-2.1 0-3.9 1.7-3.9 4.4 0 2.6 1.8 4.3 3.9 4.3 2.2 0 3.9-1.7 3.9-4.4z"/><path fill="#e6e6e6" d="m376.5 441.4 1.4-2.1c1.4 1.1 3 1.7 4.4 1.7s2.1-.5 2.1-1.5-1.3-1.4-2.8-1.8c-.1 0-.2-.1-.2-.1-2-.6-4.2-1.4-4.2-4s2.1-4.1 4.8-4.1c1.7 0 3.5.6 5 1.5l-1.2 2.2c-1.3-.8-2.6-1.3-3.8-1.3s-1.9.5-1.9 1.4 1.3 1.4 2.8 1.8c.1 0 .2.1.2.1 2 .6 4.2 1.5 4.2 4 0 2.9-2.2 4.2-5 4.2-2 0-4.1-.7-5.8-2z"/><path fill="#e6e6e6" d="m505.1 434.2c0-5.1 4.1-9.2 9.3-9.2s9.2 4.2 9.2 9.2-4.1 9.2-9.3 9.2-9.2-4.1-9.2-9.2zm17.4-.1c0-4.5-3.5-8.2-8.2-8.2s-8.2 3.7-8.2 8.3c0 4.5 3.5 8.2 8.2 8.2s8.2-3.7 8.2-8.3zm-13.1-.1c0-2.8 2.1-5.1 5.1-5.1 1.9 0 2.9.6 3.9 1.5l-1.4 1.7c-.8-.7-1.5-1.1-2.5-1.1-1.7 0-2.8 1.4-2.8 3.1s1.1 3 2.8 3c1.1 0 1.7-.5 2.5-1.1l1.4 1.4c-1.1 1.1-2.1 1.7-4 1.7-2.9.1-5-2.2-5-5.1z"/><path fill="#e6e6e6" d="m525 425.3h3.4l4.2 13.2 4.4-13.3h2.6l4.4 13.3 4.2-13.2h3.3l-6.2 18h-2.7l-4.4-12.8-4.4 12.8h-2.7z"/><path fill="#e6e6e6" d="m551.2 436.4c0-3.9 3.1-7 7.2-7 4.2 0 7.2 3.2 7.2 7s-3.1 7-7.3 7c-4.1 0-7.1-3.1-7.1-7zm11.2 0c0-2.3-1.7-4.3-4.2-4.3s-4.1 2-4.1 4.3 1.7 4.3 4.1 4.3c2.7.1 4.2-1.9 4.2-4.3z"/><path fill="#e6e6e6" d="m567.8 429.7h3.1v3c.8-2 2.4-3.4 4.8-3.3v3.2h-.2c-2.7 0-4.6 1.7-4.6 5.4v5.1h-3.1z"/><path fill="#e6e6e6" d="m577.5 424.5h3.1v11.1l5.6-6h3.8l-5.4 5.5 5.5 8h-3.5l-4.1-5.8-1.9 2v3.9h-3.1z"/><path fill="#e6e6e6" d="m590.1 436.4c0-3.9 3.1-7 7.2-7 4.2 0 7.2 3.2 7.2 7s-3.1 7-7.3 7c-4.1 0-7.1-3.1-7.1-7zm11.2 0c0-2.3-1.7-4.3-4.2-4.3s-4.1 2-4.1 4.3 1.7 4.3 4.1 4.3c2.6.1 4.2-1.9 4.2-4.3z"/><path fill="#e6e6e6" d="m606.5 438.2v-8.6h3.1v7.6c0 2.1 1.1 3.3 2.9 3.3s3-1.3 3-3.3v-7.6h3.1v13.4h-3.1v-2.1c-.8 1.3-2.1 2.3-4.2 2.3-3 .2-4.8-1.8-4.8-5z"/><path fill="#e6e6e6" d="m622.2 439.4v-7.1h-1.7v-2.6h1.7v-3.7h3.1v3.7h3.6v2.6h-3.6v6.6c0 1.2.6 1.7 1.7 1.7.7 0 1.3-.2 1.9-.5v2.5c-.8.5-1.7.7-2.8.7-2.3 0-3.9-.9-3.9-3.9z"/><path fill="#e6e6e6" d="m631.5 425.3h3.2v15h9.4v2.9h-12.5v-17.9z"/><path fill="#e6e6e6" d="m654.3 443.1v-1.7c-.9 1.1-2.3 2-4.4 2-2.6 0-4.8-1.4-4.8-4.2 0-3 2.3-4.4 5.4-4.4 1.7 0 2.6.2 3.7.5v-.2c0-1.9-1.2-2.9-3.3-2.9-1.5 0-2.6.3-3.9.8l-.8-2.5c1.5-.7 2.9-1.1 5.1-1.1 4 0 5.9 2.1 5.9 5.7v8zm.1-5.6c-.8-.3-1.9-.5-3.1-.5-2 0-3.1.8-3.1 2.1s1.1 2 2.6 2c2 0 3.5-1.1 3.5-2.9z"/><path fill="#e6e6e6" d="m663.3 441.1v2.1h-3.1v-18.7h3.1v7.4c1-1.4 2.4-2.5 4.5-2.5 3.2 0 6.3 2.5 6.3 7s-3.1 7-6.3 7c-2.2 0-3.6-1.1-4.5-2.3zm7.7-4.7c0-2.6-1.7-4.3-3.9-4.3s-3.9 1.7-3.9 4.4c0 2.6 1.8 4.3 3.9 4.3s3.9-1.7 3.9-4.4z"/><path fill="#e6e6e6" d="m675.3 441.4 1.4-2.1c1.4 1.1 3 1.7 4.4 1.7s2.1-.5 2.1-1.5-1.3-1.4-2.8-1.8c-.1 0-.2-.1-.2-.1-2-.6-4.2-1.4-4.2-4s2.1-4.1 4.8-4.1c1.7 0 3.5.6 5 1.5l-1.2 2.2c-1.3-.8-2.6-1.3-3.8-1.3s-1.9.5-1.9 1.4 1.3 1.4 2.8 1.8c.1 0 .2.1.2.1 2 .6 4.2 1.5 4.2 4 0 2.9-2.2 4.2-5 4.2-2 0-4.1-.7-5.8-2z"/></g>
</svg>
