<?xml version="1.0" encoding="utf-8"?>
<!-- Generator: Adobe Illustrator 23.0.1, SVG Export Plug-In . SVG Version: 6.00 Build 0)  -->
<svg version="1.2" baseProfile="tiny" id="Layer_1" xmlns="http://www.w3.org/2000/svg" xmlns:xlink="http://www.w3.org/1999/xlink"
	 x="0px" y="0px" viewBox="0 0 900 600" xml:space="preserve">
<g>
	<path d="M182.7,148.55c-0.08,0.21-0.1,0.14,0.1,0.1L182.7,148.55z"/>
	<path d="M202.83,76.35l-0.1,0.1C202.9,76.51,202.92,76.59,202.83,76.35z"/>
	<path d="M203.53,399.03l-0.1,0.1C203.48,399.11,203.53,399.09,203.53,399.03z"/>
	<path d="M229.52,277.69c-2.93,0-5.76-0.61-8.7,0.81c-1.52-1.72-3.74-1.52-5.76-1.92c-0.84-2.68-1.56-6.42-3.44-4.55
		c0.3,1.31,0.61,2.83,1.01,4.45c-2.66,0.89-2.68,1.1-5.16,2.83c-1-11.63-0.57-9.96-1.82-10.21c0.11,1.85,0.91,13.88,0.71,14.97
		c-3.11,16.66,1.45,25.86-5.36,10.42c-4.17-9.45-7.2-8.12-7.79-11.63c-2.39-10.76-2.83-12.21-1.52-14.97
		c0.51-0.91,1.01-1.92,0.2-2.93c-1.82-0.71-1.62,1.72-3.03,2.12c-0.2-1.52-2.02-2.73-0.2-4.25c-2.02-1.31-2.02-1.31-3.03-6.27
		c3.94,0.1,3.94,0.1,5.87,1.21c1.72-0.51,3.44-1.11,5.16,0.2c-0.1,1.11-1.92,1.92-0.61,3.44c1.21-1.11,2.33-2.22,3.64-3.54
		c-0.31,6.6-0.08,5.54-1.31,6.78c3.8,2.96,1.28-5.76,4.55-5.76c2.64,0-0.19,3.46,0.91,5.66c2.83-2.83,1.46-4.37,3.94-3.34
		c0,0.1-0.1,0.2-0.1,0.3c-0.4,1.52,0.4,3.13-0.51,4.55c-1.52,0.1-2.93,0.2-4.35,0.3c2.33,1.21,4.75,2.02,7.38,1.72
		c0-7.39-0.44-5.82,1.01-6.98c1.01,3.13,0,6.27,0.81,9.2c1.48-0.49,2.75-5.42,2.93-7.08c0.41-3.71-2.94-3.01-1.62-6.98
		c1.6-4.83-1.73-12.94,0.51-22.25c0.57-2.39,1.66-10.53,0.61-14.86c-2.19-9.04,4.38-30.97-0.61-48.44c0.6-1.8,4.09-6.14,3.94-12.34
		c-0.28-2.85,3.12-8.67-4.45-27.61c-0.59-1.18-1.42-0.02-5.36-8.19c-14.22-29.5-7.71-16.34-5.97-30.94
		c0.57-4.79,1.07-8.72,4.04-12.44c10.47-0.33,16.14,0.64,13.45-10.11c2.22-2.02,2.73-4.55,1.42-7.28c2.7-2.32,1.52-1.34,1.52-5.26
		c6.83-5.13,1.06-5.14-1.62-16.99c5.2-5.2-1.42-10.3-0.51-17.39c10.86-3.98,7.36-0.08,10.52-5.76c-1.26-2.16,2.26-5.17-1.72-6.88
		c-5.36,0.83-4.87,1.43-3.03-1.31c-4.25-3.54-2.93-3.7-6.57,0.3c-1.69-3.39-0.1-2.15-4.35-3.94c-4.67-1.97-8.68,1.99-7.08-2.83
		c-2.42-1.38-6.27,2.6-11.63,0.81c-3.19-1.06-4.59-0.51-9.61-0.51c-1.24-4.35,1.43-0.51-7.89,0.61c-5.02,0.6-6.15,2.82-7.58,3.54
		c-2.83-1.21-1.58-1.6-3.84,1.11c-0.71-0.1-1.42-0.4-1.62-0.2c-0.91,1.11-2.33,1.31-3.34,2.02c-1.87,1.5-1.16,1.37,0.81,3.34
		c-1.09,1.82-3.61,2.34-3.13,5.66c0.16,1.09-3.08,6.6-2.33,15.78c0.93,11.32-0.8,12.25,1.92,21.03c2.44,7.86,0.75,9.81,2.22,12.64
		c3.35,6.4-3.22,14.59,0.61,16.89c2.66-4.75,1.52-9.43,3.64-14.26c0.89-2.03,1.11-4.04,0-5.97c1.21-2.83,2.33-5.56,3.44-8.09
		c5.19-1.48,7.71,5.12,11.25,3.04c0.05,2.48,1.12,4.52,3,6.06c0.61,4.35,1.62,6.57,3.94,8.39c-1.01-2.43-1.92-4.45-2.93-6.67
		c4.75-0.59-1.82-1.74-1.82-6.98c0-0.41-0.62-2.12-1.36-2.12c-0.72-2.31-1.13,1.06-4.81-1.11c-2.02-1.01,0.08,0.22-6.57-6.07
		c-1.2-1.13-1.76-2.34-1.71-3.62c0.68,1.29,1.4,2.24,3.02,3.01c-0.86-1.88-1.87-3.74,0.51-3.74c3.07,6.75,3.13,0.1,3.13,5.36
		c2.83,1.74,6.05-0.32,4.25-2.12c-0.61-0.61-3.25-0.84-2.83-2.73c0.22-1.74,1.12-1.12,2.33-2.02c-8.52-9.02-3.73-4.53-10.35,1.85
		c0.32-2.36,3.16-5.68,4.79-7.41c1.06,0.85,1.51,1.21,1.21,0.91c0.1,0.04,4.96,1.8,4.96,1.7c2.96,2.27,2.24,6.2,5.06,8.62
		c2.3-4.03,2.14-0.17,4.35-1.11c-6.68-11.13,13.03-19.52,15.88-25.69c4.65,0.3,4.65,0.3,6.78-1.21c-1.59-1.59-1.86-1.29,5.06-2.02
		c0.29-0.15-0.3-0.34,1.92,1.92c0,2.92,0.39,4.42,2.12,10.01c1.81,5.84-4.19,4.36-0.91,10.62c3.89,7.4,6.97,12.37-1.31,11.02
		c-0.71-0.11-1.21-0.61-2.12-1.11c-0.79,3.15,0.72,3.12,3.94,3.44c1.07,7.48-6.06,3.78-5.66,6.98c2.05,0.47,0.96,0.01,4.04-0.61
		c2.41,3.01-0.02,1.48-0.61,5.56c-0.37,2.56,2.45,7.61-2.93,8.8c-1.92,0.42-3.84,0.79-5.87,0.4c-1.11-0.21-2.43,0.3-3.54,0.1
		c-2.59-0.22-3.69-2.33-2.63,0.2c-3.17,4.44-3.3,4.69-3.84,8.7c-2.51,18.52-4.43,15.06-2.73,19.11c6.81,16.19,6.54,14.78,6.27,15.37
		c-5.16-2.83-8.09-7.58-10.92-12.44c4.05-3.24-1.63-1.13-5.87-6.78c0.16-1.72-0.35-2.38-6.47-7.48c0.4-0.61,0.81-1.21,1.21-1.82
		c-2.02-0.71-3.54,0.2-4.45,0.4c-10.03-2.11-12.15-3.08-19.72-2.43c2.34-2.55,6.42-6.27,2.73-6.27c-1,0-9.2,8.74-11.02,11.22
		c-1.12,1.53-36.54,25.83-16.48,80.29c5.05,13.71,3.56,0.53,5.46,16.08c1.38,11.32-0.66,21.2,8.09,44.59
		c1.51,4.04,1.25,2.3,1.62,13.55c0.33,0.67-1.1,1.11-1.62,1.31c-1.31,2.53-0.61,5.16-0.2,7.69c-2.43,3.89-0.8-0.76-5.87,12.84
		c-1.07,2.88-8.72,10.75-2.12,35.09c2.56,9.45,0.51,13.73,0.51,25.48c0,14.76,5.28,35.09,5.06,42.57
		c-0.47,15.86,5.66,12.88,2.22,29.93c-0.39,1.92-0.38,3.95-0.51,5.87c-0.09,1.32,0.81,2.12,1.72,2.73
		c-2.09,3.49-1.23,7.78-2.93,11.43c-3.57,7.63-1.69,9.44-5.36,16.79c-5.06,10.12-6.27,29.14-5.97,31.85
		c0.41,3.64,7.28,40.49,4.85,51.67c-2.45,11.31-1.34,25.63-1.31,26.39c-1.54,3.31-3.51-2.02-5.97,5.16
		c-2.53,7.41-3.08,5.73-3.03,8.9c0.39,28.31-8.95,25.14,11.02,28.92c10.57,2,14.73-1.79,18.71-0.61
		c12.66,3.76,12.97,3.64,14.87,3.64c31.06,0,27.9-2.95,33.67-4.04c5.92-1.12,15.31-7.74,11.53-16.08c-1.61-3.55-3.56-1.53,9.4-5.87
		c3.89-1.3,3.72-3.24,3.13-7.28c-0.57-3.93-0.42-9.24-6.88-9.4c-8.61-0.21-15.09,0.18-18.2-3.34c-2.55-2.88-5.86-3.84-11.93-7.48
		c-9.87-5.92-9-16.69-15.78-16.69c-1.6-6.79,2.02-28.39,2.02-39.74c0-9.86,2.36-13.27,4.95-24.27c6.36-27,3.44-24.54,5.76-30.54
		c6.93-17.86,0.61-15.79,12.13-13.75c8.32,1.47,2.17-7.01,5.16-15.98c3.92-11.77,2.33-16.3,2.73-26.09
		c0.22-5.33,1.17-23.65,5.46-26.8c0,6.74-3.36,25.29-2.43,36.4c1.96,23.27,3.71,19.57-3.64,24.47c-2.71,1.35-0.84,2.5,1.92,1.21
		c10.24-4.79,0.96,0.49,6.27-65.53c0-1.12,0.87-0.86,2.53-1.11c8.77-1.36,4.59-3.27,9.2-3.74c3.97-0.41,4.35-2.25,6.47-3.94
		C240.46,307.65,236.46,277.69,229.52,277.69z M160.45,35.2c0,0.1-0.2-0.2-0.2-0.2c0.2-0.4,0.51-0.81,0.71-1.21
		C161.28,34.43,161.96,34.44,160.45,35.2z M162.58,45c-0.25-1.99-0.59-1.32,0.2-1.72C163.26,43.29,162.74,44.34,162.58,45z
		 M163.99,29.74c-1.28,2.14-2.36,0.44-1.21-0.71c0.2-0.2,0.71-0.2,1.01-0.3C163.89,29.13,164.1,29.53,163.99,29.74z M163.99,16.99
		c0-0.1,0.1-0.1,0.2-0.2C164.66,17.26,163.99,17.32,163.99,16.99z M166.42,48.24c-0.44-1.75-0.25-1.57-0.1-1.72
		C166.77,46.97,166.91,46.28,166.42,48.24z M167.94,16.29c-0.4-0.71-0.2-1.21,0.51-1.52C168.85,15.48,168.65,15.88,167.94,16.29z
		 M170.47,53.4c-1.52-0.2-1.52-0.2-1.82-2.02C169.15,51.98,169.66,52.59,170.47,53.4z M174.61,41.97c2.62,2.25,2.19,1.12,0.61,5.87
		C172.89,44.8,172.79,44.6,174.61,41.97z M168.95,32.87c0.1,0.2,0.3,0.4,0.4,0.51C169.35,33.95,168.35,34.08,168.95,32.87z
		 M176.53,4.76c-0.9,0.22-1.31,0.67-1.31,0.1C175.39,4.02,176.91,4.01,176.53,4.76z M169.56,27.41c0.51-0.61,0.3,0.2,0.61,0.2
		C169.96,27.61,169.76,27.51,169.56,27.41z M171.07,9.81c0.29,0.59,0.44,0.59-0.4,1.01C170.4,10.3,169.96,10.19,171.07,9.81z
		 M171,28.63c1.15,0.31,0.82-0.49,1.28,0.9C171.63,29.32,171.46,30.05,171,28.63z M174.41,37.72c-0.81,0.3-1.11-0.2-1.31-0.91
		C174.13,35.78,175.03,37.11,174.41,37.72z M174.31,14.87c1.59-2.38,0.62-3.02,3.44,0.61C176.33,16.49,175.52,15.27,174.31,14.87z
		 M179.77,41.72c0-0.66-0.1-0.54,0.51-0.25C180.1,41.55,179.94,41.64,179.77,41.72z M183.21,35.2c-0.42-0.42-0.1-0.51,0-0.61
		C183.21,34.69,183.44,34.97,183.21,35.2z M183.31,30.54c-0.29,0.57-1.74-0.09-0.2-0.61C183.21,30.14,183.41,30.34,183.31,30.54z
		 M181.18,17.3c2-2.33,1.48-2.56,2.83-0.3C183.31,17.9,182.7,18.71,181.18,17.3z M186.65,28.93c-0.41-0.41-0.15-0.03,0.51-1.01
		C187.61,28.37,187.26,28.72,186.65,28.93z M191.3,32.67c-0.1,0-0.3-0.1-0.51-0.2c0.1-0.2,0.2-0.51,0.3-0.61
		C191.84,31.86,191.69,32.27,191.3,32.67z M191.6,16.39c1.11-0.71,1.11-0.71,4.04,1.42C193.52,18.51,192.92,16.79,191.6,16.39z
		 M194.63,28.62c0.71-2.43,0.81-2.43,4.55-3.44C197.47,26.4,196.15,27.41,194.63,28.62z M199.49,17.2c0.1-0.1,0.1-0.2,0.2-0.3
		C199.88,17.27,200.34,17.6,199.49,17.2z M200.09,17.5c1.58,1.58,0,1.4,0,1.01C200.01,18.24,200.09,17.39,200.09,17.5z M200.2,22.25
		c-0.1,0.1-0.23-0.71,0.71-0.71C200.94,21.97,200.66,22.16,200.2,22.25z M201.01,21.43c0.21-0.21,0.4-0.4,0.63-0.63
		C201.71,21.23,201.47,21.4,201.01,21.43z M201.76,20.67c0.11-0.16,0.26-0.26,0.35-0.44C202.29,20.76,202.09,20.75,201.76,20.67z
		 M202.83,6.27c-0.2-0.2-0.51-0.4-0.71-0.61C202.93,4.59,203.69,6.27,202.83,6.27z M209.4,8.3c0,0.44,0.34,0.4-0.2,0.4
		C209.02,8.53,209.07,8.3,209.4,8.3z M207.17,20.43c-0.38-0.38-0.08-0.3,0.1-0.3C207.4,20.13,207.58,20.43,207.17,20.43z
		 M206.06,18.61c2.83-1.31,2.83-1.31,5.06-0.51C209.09,18.31,207.58,18.41,206.06,18.61z M211.52,8.3c2.17-1.18,2.33-1.1,2.7,1.16
		C213.36,9.17,212.48,8.78,211.52,8.3z M214.45,11.74c0-2.77-0.77-2.02,1.72-2.02C216.68,11.33,216.68,11.43,214.45,11.74z
		 M228.21,14.97c0-0.68,0.56,0.15,0.4,0.3C227.95,15.94,228.21,15.18,228.21,14.97z M221.53,7.49c0.1-0.1,0.3,0.2,0.51,0.3
		c-0.2,0.3-0.4,0.51-0.61,0.81C221.1,8.27,220.37,8.26,221.53,7.49z M217.15,20.24c3.72-2.68-1.12,0.7,10.78-4.49
		C227.09,17.86,221.27,20.65,217.15,20.24z M228.5,280.78c-0.02,0.51-0.15,0.99-0.8,1.15C227.96,281.58,228.24,281.16,228.5,280.78z
		 M227.57,282.39c0,0,0.01-0.01,0.03-0.05C227.56,282.41,227.56,282.42,227.57,282.39z M226.89,278.6
		c-3.27,10.64-1.83,10.14-5.16,1.42C223.15,278.8,224.67,277.99,226.89,278.6z M225.68,290.73c0-0.85-0.07-0.71,0.2-0.71
		C225.88,290.87,225.95,290.73,225.68,290.73z M216.67,279.76c-0.02,0.36-0.09,0.75-0.09,1.37
		C216.02,280.29,216.23,279.96,216.67,279.76z M215.57,282.64c0,0.2,0.27,0.23-0.1,0.61C215.28,283.06,215.38,282.83,215.57,282.64z
		 M171.58,95.46c13.81,4.43,23.13,28.48,34.48,30.54c2.55,5.28,7.16,11.29,6.98,27.71c-0.09,7.54,1.31,7.5-0.71,11.53
		c-4.41,8.83-0.98,2.78-0.91,8.6c0.16,13.21,1.41,14.29,0.3,19.31c-2.12,9.62-3.18,15.72-1.52,24.57c1.22,6.5-1.09,16.41-1.31,18.4
		c-0.97,8.74,0.34,6.18,0.4,10.11c0.29,17.06,1.75,7.38-17.6,7.38c-2.22,0-4.45-0.3-6.78-0.51c-0.95-3.93-7.94-12.33-2.73-22.75
		c-3.65-7.07-2.36-7.99-6.17-18.2c-4.06-10.9-5.99-8.11-4.95-11.83c1.72,0.3,3.03,2.02,5.16,1.72c0.3-1.36-1.92-1.37-1.51-3.2
		c-1.25,1.54-1.14,1.73-3.14,0.06c2.42-9.4,5.55-10.05,6.07-19.01c0.6-10.5-2.27-0.74,7.08-17.7c4.64-8.42,8.52-28.39,4.75-38.22
		c-2.45-6.39-5.73-10.98-9.1-17.39c-3-5.71-11.54-9.14-17.6-11.12c-3.91-1.28-10.41,0.57-14.46,1.92
		C155.54,86.55,161.46,92.22,171.58,95.46z M177.96,154.38c0.04,3.54-0.18,2.5,3.53,6.51c-1.01,1.92-1.92,3.84-2.83,5.66
		c-0.2,0.4-0.61,0.71-1.11,1.31C176.91,164.16,176.15,157.68,177.96,154.38z M134.49,172.16c-1.23-2.43-4.58-9.52-3.36-11.97
		C135.2,170.91,134.63,168.19,134.49,172.16z M134.97,173.13c-0.18-0.51-0.46-0.61,0.1-0.3
		C135.07,172.82,134.97,173.03,134.97,173.13z M141.04,212.16c1.62,0.1,2.73,1.42,4.25,1.62c-0.81-2.83-1.42-3.34-4.35-3.34
		c-2.03-6.08,1.85-6.52-2.53-31.04c-1.68-9.39-5.11-14.86-4.25-22.65c0-0.2,0.1-0.51,0-0.71c-2.41-3.79,1.73-14.65-2.33-19.72
		c-1.11,0.91-1.11,2.02-1.11,3.03c0.3,5.36-0.53,10.84,0.4,16.18c0.93,5.31-3.29,0.12-2.73-7.69c0.11-1.59,0.88-19.04,2.33-19.72
		c0,1.52-0.61,3.03,0.2,4.85c1.52-2.43,1.21-4.75,1.11-7.38c-1.06,1.65-1.42,2.57-1.42,2.43c-0.3,0.3-0.64-2.82,1.21-5.97
		c8.44-14.37,9.71-23.19,28.21-24.17c13.38,0,19.5,9.84,24.67,22.15c5.62,13.36,3.06,12.98,3.54,17.09
		c0.78,6.73-3.18,17.14-5.06,19.01c-2.38-4.75-2.16-3.61-0.57-7.44c-1.58,0.35-1.78,1.79-3.98,2.89c0.18,0.81,0.02,1.61-0.52,2.28
		c1.4-5.07-2.23-0.99,4.66-8.75c2.5-2.5-0.27-2.43-6.17,3.94c-3.61,3.9,0.25,5.79-5.76,45.51c-0.71,8.56-6.43-4.87,5.56,29.02
		c3.31,9.37-1.71,13.45,2.53,22.45c1.03,2.19-0.36-1.17,3.34,13.35c1.63,6.39,5.83,8.84,7.38,20.22c1.18,8.62,5.85,10.38,6.17,11.02
		c1.9,2.96,9.81,13.86,9.81,20.02c0.67,11.04,3.73,16.1-2.02,14.46c-0.4-1.82-0.81-3.74-1.21-5.36c0.81-1.42,2.73-1.52,2.93-3.44
		c-1.15,0.64-3.25,1.82-4.85,2.43c0.49,3.33,2.15,5.55-3.94,7.58c-1.92-0.71-2.22-2.53-2.93-4.45c2.99-1.33,3.92-1.38,4.04-2.93
		c-2.28,0.68-2.14,1.04-5.87,1.72c-0.3,1.92,1.31,3.24,1.42,5.16c-1.11,1.52-2.73,1.52-4.45,1.01c-2.29-0.91-3.07-8.02-3.84-1.82
		c-1.42,0.71-2.53-0.4-3.84-0.51c-2.64-5.28,0.56-3.78-14.36-2.43c-1.92-1.92-2.07-6.65-1.92-9.3c0.27-4.96,3.69-3.52,9-3.24
		c2.04,4.07,0.9,2.5,2.12,6.47c1.14,3.7,2.05,2.21,4.96,4.55c2.63,2.12,3.76,1.23,3.13,0.61c-8.1-7.02-3.81-2.48-6.98-11.12
		c-1.29-3.52-1.88-9.71-1.72-10.82c1.91-13.32-9.11-21.81-2.93-17.7c3.3,1.65,1.42,8.79,5.66,5.76c-0.61-1.62-1.21-3.24-1.92-4.96
		c-0.5-1.49-4.85-2.44-6.78-9c-0.57,2.28-0.46,3.48-1.21,2.73C161.45,264.46,141.04,228.25,141.04,212.16z M162.98,335.83
		c-9.98-47.88,0.99-73.66,8.09-28.72c-6.99,2.33-7.44-2.08-7.18,11.93c0.01,0.71,0.3,1.32,0.51,1.92c1.08,3.15,2.22,3.64,5.66,3.03
		c4.1-1.37,1.87,20.63-1.11,23.16C166.05,347.61,163.58,338.7,162.98,335.83z M165.92,348.37c-4.15,0.91-5.47,0.31-7.08-3.03
		c-6.08-12.62-8.22-41.77-5.97-55.01c0.94-5.51,2.17-6.71,7.56-7.05C156.09,289.69,156.24,327.63,165.92,348.37z M151.25,249.07
		c-2.61,1.19-2.26-1.12-2.43-4.04C150.65,246.44,150.95,247.76,151.25,249.07z M193.72,592.68c-25.98,3.5-25.36,0.03-35.49-2.22
		c-8.16-2.33-14.85,4.3-31.04-2.12c2.15-13.54,1.28-27.15,7.48-33.98c5.51,1.03,3.14,10.26,12.24,7.99
		c5.96-1.49,5.42-3.9,10.52-12.34c6.06-10.03,3.89-6.78,8.29-2.02c1.22,1.31,2.73,2.53,4.04,3.74c-5.46,5.36-6.57,7.48-5.36,10.11
		c3.44-1.82,4.96-5.56,7.99-8.19c0.61,0.4,1.21,0.81,1.72,1.11c-6.37,7.87-5.39,6.85-4.96,9c7.02,0.34,7.02-10.75,10.72-2.73
		c-1.31,2.22-3.94,3.64-3.64,6.78c2.53-0.1,4.35-1.62,6.27-3.13c0.81,0.61,1.52,1.11,2.22,1.62c0.51,1.31-1.01,3.03,1.11,4.04
		c0.51-0.4,1.01-0.81,1.62-1.31c1.01,0.2,1.92,0.4,0.91,1.72c1.31,0.81,2.52,1.78,4.25,1.31c0.25-0.07,5.79,2.35,16.79,3.74
		C215.23,576.53,221.88,588.89,193.72,592.68z M140.94,556.68c9.87,0.68,9.07-0.04,6.17,3.34
		C142.15,560.22,141.85,560.02,140.94,556.68z M168.14,539.9c-0.4,1.52-0.4,1.52-2.83,3.74C161.77,540.1,162.18,541.39,168.14,539.9
		z M177.24,530.19c1.31,0.1,1.72,1.11,2.22,2.02c4.67,9.72,4.76,5.45-1.01,16.99c3.62,0,5.17-2.15,8.29-4.75
		c2.69,0.34-1.46,3.4-1.11,8.9c2.93-0.81,3.64-1.42,5.97-5.56c5.07,1.69,0.37,1.69,1.62,7.18c5.01-2.95,1.68-5.68,6.07-2.93
		c-0.2,1.31-0.4,2.63-0.61,3.84c1.52,0.91,1.82-0.91,3.44-0.81c7.02,3.69,15.94,1.71,21.03,2.53c1.82,2.93,2.02,6.17,2.63,9.4
		c-2.83,2.02-5.77,2.92-8.8,3.84c-7.65,2.34-0.68,2.97-20.83-1.01c-3.07-0.61-7.49-4.21-9.91-6.17c-5.73-4.64-1.23-4.18-11.53-12.13
		c-4.18-3.23-4.54-2.82-7.89-6.17C173.27,541.61,171.78,533.83,177.24,530.19z M181.18,457.69c-1.02,5.47-5.86,14.04-6.47,29.12
		c-1.59,39.5-1.8,28.83-2.93,35.7c-0.94,5.72,2.21,5.37,0.1,9.2c-4.09,7.44-0.85,5.44-10.72,4.35
		c-3.05-10.67,12.31-56.77,10.92-88.68c7.06-9.55,3.37-13.66,0-2.43c-1.21,0.71-1.52-1.11-2.63-1.01
		c-7.2,88.83-12.75,67.45-11.63,84.74c1.01,15.58,2.5,10.9-7.38,25.48c-4.35-0.81-8.9-0.51-13.04-3.13
		c-0.92-24.58,3.66-27.56,1.82-39.74c-0.23-1.53-0.91-8.3-0.61-9.81c1.91-6.56-5.19-25.79-4.15-32.97
		c3.37-23.05,4.3-21.81,6.67-29.12c2.04-6.3,0.75-6.31,2.73-11.93c2.54-7.23,1.9-9.55,2.73-12.03c2.99,1.5,2.4-0.16,2.73,6.37
		c2.07-1.48,0.83,0.38,2.73-4.96c19.94-3.5,13.76-4.21,31.45,0.3c0.36,3.41-2.51,7.13-2.33,10.72c0.14,0.96-1.87,4.64-3.64,8.19
		c-1,2.99,5.84-2.89,6.17-8.19c0.16-2.57,0.52-2.56,2.33-10.52c1.31-0.4,2.63-0.2,4.15,0.1C191,422.9,188.72,417.34,181.18,457.69z
		 M146.7,404.6c0.13-0.39,0.1-0.42,0.1,0H146.7z M206.57,370.11c-1.32,10.52,0.04,27.22-3.03,28.96c-0.09,1.1,0.1,2.19-0.2,3.09
		c-1.88,5.6,0.43,8.51-1.21,13.45c-10.6-1.51-23.66-1.06-31.65-5.06c-0.16-1.71-1.31-13.86-1.01-15.17
		c1.94-8.59,0.91-39.07,0.2-15.37c-0.25,8.49-1.7,16.99-1.11,25.58c0.44,6.45,1.39,4.65-15.67,7.99c-2.77,0.54-5.65,0.46-4.75-2.22
		c3.94-14.54,0.94-21.75,5.26-36.61c1.79-6.17,0.3-17.55,0.3-9.2c0.2,3.74-0.6,7.28-1.92,10.72c-3.6,9.37-2.18,14.73-4.15,17.09
		c-6.75-27.77-2.6-28.76-5.26-30.54c-1.47-0.98-0.7-1.85-1.42-10.72c-3.18-39.32-0.71-26.67-0.71-39.24
		c-0.92-1.96-2.24-20.7-2.33-22.25c-1.32-24.18,4.28-12.58,7.89-31.25c5.37-1.79,4.2-12.44,5.66-2.93c3.49,0.64,2.86,0.09,3.74,1.42
		c3.63,6.36,5.48,8.95,9.2,16.89c7.26,15.47,6.32,10.35,6.88,12.74c4.16,17.79,2.24,25.46-1.42,3.54c-3.89-1.6-1.57-6.28-7.48-8.7
		c-1.18,0.47-1.63,0.5-1.8,0.73c-3.56-2.26-3.43-1.15-2.55-5.28c-1.62,1.11-1.01,2.83-2.02,3.74c-0.91,0.91-2.23,1.51-2.83,2.63
		c-8.24,15.33,2.27,63.02,3.84,62.39c1.41,1.41,2.12,4.35,7.38,3.74c6.08-0.71,4.41-3.09,5.97,8.6c0.65,0,0.36,0.64,0-4.25
		c-0.86-11.56,1.66,1.4,3.84-22.45c0.8-8.76-3.6-7.52,3.84-9.51c0.91,1.62,1.72,2.93,2.53,4.25c8.09,0.35,7.4,3.62,12.44,1.82
		c3.95-1.41,4.5,1.81,8.19-2.12c2.82,0.77,2.6,1.04,6.57,0.71C215.84,356.9,209.99,342.92,206.57,370.11z M213.04,346.55
		c-0.51-1.01-0.51-1.92,0-3.24C214.15,344.83,214.15,344.83,213.04,346.55z M213.54,339.98c-5.61-12.25-9.08-45.58-4.95-58.15
		c1.03-3.13,2.22-3.84,5.97-3.64c0.47,0.83-4.92,12.73-0.2,41.46c2.21,13.47,2.61,15.83,6.57,23.76
		C216.48,344.12,215.16,343.52,213.54,339.98z M214.15,295.59c-0.26,0-0.23,0.08-0.1-0.3L214.15,295.59z M215.57,315.41
		c0,2.55,0.04,2.22-0.1,2.22C215.47,315.08,215.42,315.41,215.57,315.41z M216.38,321.68c0,1.74,0.04,1.52-0.1,1.52
		C216.27,321.45,216.23,321.68,216.38,321.68z M217.29,325.52c0,1.98,0.1,1.72-0.3,1.72C216.98,325.26,216.88,325.52,217.29,325.52z
		 M218.19,328.75c-0.02,0.53-0.09,1-0.09,1.72C217.63,329.63,217.77,329.14,218.19,328.75z M218.93,332.8
		c-0.03,0.14-0.03,0.24-0.03,0.1C218.84,332.96,218.86,332.9,218.93,332.8z M219.41,335.83c0.13-0.38,0.07-0.4,0.2,0H219.41z
		 M221.03,339.57c0.2,0,0.25-0.03,0.29,0.06C221.23,339.6,221.15,339.57,221.03,339.57z M222.14,341.33
		c-0.66-0.38-0.62-0.93-0.61-1.56C222.29,339.78,222.14,339.64,222.14,341.33z M226.18,336.44c-1.18,6.68-3.72,6.76-3.94,4.96
		c-0.45-0.45,1.52,0.69,1.52-1.82c0-0.8,0.02-0.58-1.51,0.06c-3.08-7.94-3.38-6.87-3.13-7.03c-1.54-10.2-6.97-44.35-0.71-52.18
		c-1.94-0.85-1.74-0.49-0.91-2.12C225.25,281.63,228.61,322.68,226.18,336.44z M229.16,338.2c-0.28-0.73-0.24-0.34-0.24-0.85
		C229.16,337.84,229.3,337.42,229.16,338.2z M234.07,331.69c-0.44,2.45-1.34,6.7-3.54,7.89c-0.38-0.38-0.86-0.78-1.25-1.16
		c1.43-0.44,1.46-0.52,1.46-1.83c-0.41-0.25-1.02-0.37-1.11-0.75c-0.4-1.21-1.01-2.43-1.01-3.74c0-15.24-0.39-12.91,2.63-13.25
		c2.95-5.91,0.99-22.9-3.24-14.46c-0.1-0.3-0.4-0.71-0.51-1.01c-4.05-24.3,6.49-21.65,1.14-22.92
		C229.71,270.12,239.67,300.24,234.07,331.69z M230.43,311.46c-0.88-6.18-0.98-5.74,0.2-6.37
		C230.84,307.42,231.04,309.44,230.43,311.46z M230.73,314.19c0,0.71,0,1.31,0,2.02C229.52,315.1,229.52,315.1,230.73,314.19z"/>
	<path d="M230.84,336.64l-0.1-0.1C230.73,336.6,230.72,336.56,230.84,336.64z"/>
	<path d="M613.08,426.74c0.15,0,0.06,0.06,0.1-0.1L613.08,426.74z"/>
	<path d="M637.95,419.87c0.07-0.2,0.15-0.19-0.1-0.1L637.95,419.87z"/>
	<path d="M651.2,421.99l0.1,0.1C651.26,421.9,651.36,421.99,651.2,421.99z"/>
	<path d="M773.86,585.61c-2.61-6.6,0.34-10.24-6.88-11.73c-6.07-1.26-14.72,1.07-28.42-10.52c-21.65-18.32-17.71-16.23-9.1-31.65
		c9.01-16.14,12.69-21.14,13.75-26.09c0.86-3.98,3.09-6.11,6.57-12.94c11.41-22.38,8.81-31.77,11.63-38.63
		c5.73-13.96,1.68-8.92,3.24-22.95c0.54-3.08-1.41-3.88-4.04-6.17c-8.5-7.39-5.51-6.1-8.39-7.58c-18.32-9.46-7.25-4.26-28.52-10.82
		c-6.48-2-13.15-2.43-20.02-1.82c-1.01-1.42-2.33-1.95-4.15-1.52c-0.8,0.19-5.19-0.61-7.08-0.61c-4.31,0-5.63-2.2-9.71-1.62
		c-4.08,0.58-3.04-2.24-9.91-1.31c-4.9,0.66-5.73,1.37-7.99-0.1c-5.82-3.79-7.04-2.81-8.9-4.04c-1.55-4.14,0.2-4.06-0.1-7.38
		c-0.79-8.69-1.4-11.95-0.51-15.37c1.34-6.7,2.49-14.61,0.71-21.13c-1.4-5.15,4.43-19.43,0-46.01c8.51-14.33,2.16-36.83-1.21-40.04
		c-3.74-3.56-6.23-11.91-12.64-24.47c-2.97-5.81,2.1-7.51,2.22-15.88c0.05-3.14,1.97-8.36,3.94-10.82
		c8.01,0.47,15.96,0.02,13.95-7.79c-0.83-4.97,3.07-3.23,0.91-9.51c1.91-1.91,2.02-0.9,1.62-5.36c5.21-3.91,3.51-3.1-2.12-16.79
		c6.23-3.46-1.89-12.17,0.2-17.39c13.13-3.83,6.71-1.76,10.21-5.97c-0.91-1.72,0.61-3.24,0.2-4.95c-2.46-4.57-8.76,2.57-4.95-3.13
		c-4.25-3.27-2.73-3.84-6.57,0.71c-0.88-2.05-0.68-3.63-2.73-3.34c-1.28,0.64,0.24-1.11-4.25-1.11c-6.56,0-4.67,0.69-4.04-2.43
		c-3.14-1.05-6.85,2.37-10.21,1.21c-7.07-2.43-10.23-0.02-10.82-0.61c-1.58-0.79,0.34-1.57-1.11-2.22c-2.14,0.71-1.9,2.18-5.06,2.22
		c-3.64,0.05-6.98,0.91-9.51,3.84c-2.54-1.27-2.03-1.91-4.04,0.91c-1.58,0.53,0.64-2.23-6.37,3.03c1.25,1.41,2.87,2.51,1.62,3.13
		c-3.59,2.19-2.1,3.7-3.13,6.78c-3.41,10.14-1.02,16.21-1.42,19.82c-1.2,10.82,2.93,14.87,2.93,23.26c0,5.61,1.37,3.82,1.42,6.78
		c0.18,10.97-0.81,7.67-1.31,11.73c-0.35,1.94,1.89,6.45,3.64-5.56c1.13-7.78,3.28-8.4,1.52-11.93c4.37-10.56,3.14-10.18,10.92-5.26
		c1.94,1.23,3.76,0.68,4.25-0.3c0.2-0.4,0.1-1.01,0.1-1.72c-3.94,1.31-2.13,2.2-10.92-5.87c-4.44-4.07-0.2-8.11,2.73-11.93
		c0.65,0.56,2.22,2.02,1.72,1.52c3.72,0.65,2.03,0.81,1.68,0.83c0-0.01-0.01-0.01-0.01-0.02c-0.38,0-1.71-0.95-1.37-0.61
		c-2.64-0.99-0.68,1.3-5.76,6.67c0.61,1.31,1.31,2.43,3.34,3.24c-1.34-2.69-2.21-3.21,0.4-3.54c0.61,1.11,1.11,2.22,1.72,3.54
		c1.01-2.22-0.3-3.84-1.01-5.66c0.3-0.71,0.71-1.31,1.01-2.02c1.42,0.3,1.92,1.11,2.33,2.33c-1.52,2.12-1.21,4.55-0.81,6.98
		c1.61,0.88,3.92,0.82,4.65-1.01c0.67-2.02-6.16-2.1-2.83-5.06c0.4-0.4,1.42,0.2,1.42-0.81c-0.84-1.59-2.34-1.85-3.08-4.02
		c0.18-0.01,0.8-0.02,2.35-0.02c0.54-0.73,0.88-0.05,0.78,0.05c-0.13-0.13-0.02,0.05-0.01,0.05c7.56,16.18,1.39,5.91,8.65,7.89
		c-0.71-2.14-2.17-2.72-1.01-6.47c2.44-7.87,15.65-15.19,17.19-19.52c2.33,0.71,4.45,1.21,6.37-0.4c-1.23-2.45-2.53,0.02,16.94-7.32
		c-0.83,3.5-10.75,5.06-11.07,5.7c2.95,1.77,0.17,1.69,3.44,10.72c2.22,6.13-3.46,5.03-1.21,9.81c1.85,3.94,3.28,6.49,4.45,10.01
		c0.85,3.1-5.27,2.64-7.18,1.52c-1.46,1.64,0.54,3.33,2.53,2.93c1.18-0.39,1.11,0.63,1.42,3.03c-0.91,1.82-2.37,1.66-5.56,2.93
		c-0.64,0-0.18,1.21,0.4,1.21c0.91-0.2,1.92-0.61,2.73-0.81c3.56,1.94-1.68,3.41-0.1,8.6c2.31,7.55-9.49,5.87-12.13,6.07
		c-1.74,0.13-6.95-3.71-3.03,0.2c-4.87,7.53-2.67,4.5-3.94,10.82c-3.66,18.11-4.17,13.06-0.51,21.84
		c0.09,0.17,4.71,10.24,4.75,10.92c-5.26-3.24-8.6-7.58-11.12-12.74c1.22-1.22,1.9-1.76-1.31-3.03c-6.94-2.75-3.49-4.69-5.87-6.47
		c-1.62-1.42-3.34-2.83-5.06-4.35c-0.54-1.09,1.05-1.33,0.61-2.33c-1.62-0.81-3.03,0.2-4.45,0.51c-6.37-1.72-12.64-3.64-19.82-2.22
		c2.57-2.57,7.08-6.37,3.44-6.67c-12.53,11.24-10.92,12.66-14.76,15.07c-9.22,5.78-16.08,26.82-16.08,27
		c-5.22,17.76-1.48,28.92,0.3,39.03c2.39,13.58,7.53,14.63,7.48,19.62c-0.1,11.45,2.6,19.43,1.52,23.86
		c-0.19,0.78,0.27,22.72,8.39,41.66c-2.27,1.89-1.45,5.27-1.02,8.42c-0.01-0.01-0.04-0.02-0.08-0.03l0.1,0.1
		c0-0.04,0-0.06-0.02-0.07c2.86,0.73,2.11,1.1,3.85-0.64c2.87,2.2,3.03,4.28,2.33,6.98c2.68,2.08,5.28,9.48,5.56,10.52
		c0.82,3,2.04,3.17,5.06,9.2c5.12,11.75,6.83,17.2,10.52,21.03c0.97,1.01,0.54,2.79-2.53,3.13c-2.02-2.12-2.02-5.36-4.45-7.18
		c4.08-5.1-2.33-0.77-3.84-0.61c-12.82-4.27-7.95,16.21-11.12,16.79c-6.89-3.99-5.69-5.43-6.98-4.15
		c13.82,14.39,2.29-3.16,14.16,50.26c-11.46,7.2-8.59,6.58,1.21,1.42c4.45,8.45,14.75-1.68,10.79,4.43
		c3.61-0.21,4.87-1.65,11.05-9.99c0.26-0.35,0.37-0.92,0.54-1.47c-8.96,7.58-8.12,12.5-6.1-3.89c0.49-4.01,1.34-3.51,2.33-6.47
		c-2.45,0.61-1.99-0.4-2.83-5.16c1.76-1.44,5.14-2.38,4.85,0.2c-0.53-0.53,1.19,1.38,1.92,2.11c2.33-0.3,4.28-0.15,6.17,1.11
		c3.02,2.01,6.16,0.29,7.18,0.2c1.31-0.11,2.62,0.49,3.84,0.2c1.41-0.33,2.53-1.31,3.74-1.92c9.51,3.17,6.85-6.24,2.33,20.22
		c-0.5,2.93-2.02,5.66-3.84,8.09c-18.8,1.21-16.3,2.86-20.63,4.35c-3.38,1.16-1.17-0.45-13.95,4.04c-3.94,1.38-3.39,2.64-8.7,3.44
		c-9.33,1.4-18.03,1.91-21.24,1.62c-4.85-0.44-1.46-2.4-4.04-6.37c-0.2,2.02-0.3,3.54-0.51,5.06c-0.79,1.18-2.27,0.25,0.3,3.34
		c-2.8,6.01,3.47,6.22-17.9-3.64c-27.97-12.91-36.38,3.63-59.56,0c-3.39-0.53-10.4-1.19-14.56,0c-4.82,1.38-6.02-0.11-8.49,0.3
		c-3.04,0.68-0.8,3.75,9.81,2.53c14.08-1.63,16.96,3.69,44.8-4.55c4.83-1.43,3.73-0.44,15.57,0.51c7.99,0.64,16.44,5.42,24.88,9.3
		c5.3,2.44,2.67,7.45,6.98,13.15c-2.55-12.38-3.2-8.27,1.11-17.29c1.89-0.63,4.96,1.04,21.24-1.21c10.28-1.42,5.42-2.26,12.44-4.45
		c17.46-5.45,15.11-6.01,6.47,12.74c-11.77,25.57-13.17,24.16-20.93,28.42c-13.4,7.35-78.46-16.6-102.54-18.3
		c-10.76-0.76-13.29,2.9-18.51,0.91c1.68-2.23-0.46-3.75-3.34-7.89c-4.34-6.23,1.19-2.02,3.13-5.26c-7.74-1.11-6.1-0.63-7.38-4.15
		c9.73-2.43,0.74-3.82-3.34-2.43c-1.56,0.53-2.83-0.27-2.93-0.3c-0.1-0.91-0.3-1.82-0.4-2.53c-3.21-2.17-13.37-1.74-18.61,3.03
		c-4.15,0.2-4.18,0.15-7.89,2.43c-7.94,4.89-13.19,3.91-12.84,7.08c9.41,1.47,14.92-6.72,19.52-6.07c3.9,0.55,2.72-3.9,12.13-4.75
		c2.7-0.25,4.62-0.59,3.24,1.72c-3.93,6.55-5.87,16.27,1.31,18.81c17.6,6.23,16.31,3.17,20.22,4.15c-0.95,8.51-5.42,3.83-13.25,6.37
		c1.72,3.44,4.96,2.43,7.99,3.13c-3.78,2.7-2.39,0.27-5.97,2.73c0.61,1.52,2.33,1.31,3.54,1.92c0.42,2.51,1.44,1.42-2.73,4.55
		c1.52,1.21,2.93,0.3,4.04,0.3c0.99,1.09,1.39,2.18,1.12,3.37c0-0.01,0-0.01,0-0.02c0,0.71-1.4,1.24-0.51,2.33
		c1.17-0.45,0.53-1.67,0.51-2.29c1.44,0.44,2.23,1.71,3.12,2.69c1.95,2.13,2.36,2.01,11.63,2.93c1.92,3.94,2.73,7.79-0.4,11.63
		c-7.05,1.72-15.21,3.63-20.43,1.52c-20.83-8.43-18.79-10.47-22.95-20.22c-2.04-4.77-2.43-6.68-4.95-8.39
		c-4.34-2.94-4.36-6.3-7.08-8.7c-3.26-2.88-8.59-12.87-10.01-17.6c-1.21,0.2-1.9,0.81-1.72,2.12c0.37,2.68,3.12,8.76,3.94,10.31
		c7.94,14.99,14.15,14.19,18.4,26.9c2.99,8.94,6.42,10.96,22.35,18.1c6.54,2.93,16.42-0.23,23.66-0.91
		c2.97-0.59,3.06-1.27,2.02-3.34c3.28-5.84,3.34-4.46,0.1-11.63c-1.17-2.58-2.88-2.34-11.73-2.83c-2.39-2.98-1.85-0.65-4.25-10.42
		c-0.3-1.21-0.1-2.33,1.01-3.13c4.91-3.54,4.7-12.03,7.08-12.24c3.43-0.29,6.78-1.31,10.11-1.31c22.52,0,34.5,9.35,55.41,12.03
		c9.89,1.27,9,0.33,9,1.42c2.74,3.77,37.33,9.09,47.12,0.3c1.49-1.34,2.63-3.24,3.94-4.85c12.56-12.56,18.3-34.44,19.62-38.83
		c13.11-4.63,9.7-0.86,19.92-3.13c4.92-20.89,3.98-21.25,5.56-22.04c1.36,3.16,2.62,8.31,5.76,9.71c2.84,0.99,8.35,0.35,10.11-2.43
		c3.13-4.95,5.72-0.52,10.52-7.58c3.71-24.71-1.21-16.63,4.65-27.71c13.86,0,27.03-4.55,34.99-4.55
		c-2.85,9.99-11.14,14.28-11.83,40.25c-0.29,10.92-1.7,12.09-5.26,29.83c-1.7,8.47-2.34,6.97-5.16,15.27
		c-5.95,17.52-5.03,15.61-5.97,16.08c-2.25-1.97-2.74-2.78-5.06,0.61c-4.91,7.18-2.88,11.54-5.36,16.69
		c-2.79,5.78-4.13,11.96-5.87,18c-1.16,4.04,9.08,4.52,19.82,5.76c7.47,0.86,9.45,0.34,16.89-0.91c11.66-1.95-4.41-2.15,31.04,1.92
		c2.38,0.27,7.44-0.76,14.46-1.31c7.15-0.56,15.79-4.97,17.7-6.88C769.45,590.39,776.52,592.35,773.86,585.61z M670.92,150.68
		c0,0.2,0.03,0.25-0.06,0.29C670.89,150.89,670.92,150.8,670.92,150.68z M603.98,171.71c0-0.4-0.2-0.71-0.3-1.01
		C604.15,169.74,605.67,170.02,603.98,171.71z M606.3,180.61c-0.52-0.26-0.94,0.16-0.1-1.52
		C606.86,179.09,606.76,179.47,606.3,180.61z M606.81,166.86c-0.42,0.21-1.46-0.26-1.01-0.71
		C606.98,163.79,608.61,165.51,606.81,166.86z M607.62,153.31c0.2-0.1,0.3-0.2,0.4-0.4C607.88,153.05,608.15,153.31,607.62,153.31z
		 M609.54,183.44c0-0.43-0.07-0.71,0.2-0.71C609.74,183.25,610.27,183.44,609.54,183.44z M612.17,187.69
		c1.16,1.39,2.04,1.91,1.21,2.33C613.01,190.39,611.53,188.85,612.17,187.69z M610.45,176.87c-0.13-0.25-0.16-0.2,0.1-0.2
		L610.45,176.87z M610.96,152.09c0.3-0.4,0.61-0.81,0.91-1.31C612.17,152.09,612.17,152.09,610.96,152.09z M612.47,170.09
		c-0.38-0.77-0.16-0.55,0.1-0.81C612.62,169.39,613.43,170.09,612.47,170.09z M612.67,163.42c0.51-0.42,0.46-0.07,0.48,0.17
		C612.99,163.56,612.84,163.5,612.67,163.42z M613.79,146.43c0.2-0.2,0.4-0.3,0.51-0.4c0.22,0.44,0.76,0.91-0.2,0.91
		C613.99,146.94,613.89,146.63,613.79,146.43z M614.14,164.54c1.98,0.49,1.21,0.22,1.57,1.3
		C614.5,165.85,614.84,166.1,614.14,164.54z M619.65,140.87c0.24,0.48,0.42,0.14-0.51,0.61
		C618.87,140.92,618.93,140.87,619.65,140.87z M618.24,173.53c-0.7,1.4-2.38-0.91-0.91-0.91
		C617.83,172.52,618.44,173.23,618.24,173.53z M617.63,151.39c0.61-1.01,0.91-1.62,1.52-2.43
		C621.09,152.01,623,153.04,617.63,151.39z M625.92,166.86c0.52-1.03-0.06-0.94,1.01-0.4C626.49,166.89,625.92,167.48,625.92,166.86
		z M627.03,171.1c-0.38-0.38,0.1-0.72,0.1-0.2C627.13,170.9,627.03,171,627.03,171.1z M625.21,154.01c-0.7-1.63,2.12-3.22,2.12-0.51
		C626.02,154.42,625.31,154.52,625.21,154.01z M644.43,154.92c-0.86-0.19-0.91-0.22-1.16-1.48
		C643.77,153.83,644.53,154.14,644.43,154.92z M630.47,165.04c-0.13,0.13-0.65-0.51-0.2-0.51
		C631.16,164.53,630.59,165.04,630.47,165.04z M634.52,168.98c-0.47-0.47-0.69-0.02,0.4-1.11
		C635.31,168.25,635.05,168.18,634.52,168.98z M635.22,152.5c1.21-0.4,1.21-0.4,3.84,1.42C638.09,154.9,638.86,155.41,635.22,152.5z
		 M638.46,164.43c1.11-2.33,1.11-2.33,3.74-2.83C640.87,162.74,640.22,163.18,638.46,164.43z M643.11,153
		c0.29,0.29-0.15,0.07-0.3-0.1C642.91,153,643.11,152.9,643.11,153z M643.62,158.57c-0.23,0.12-1.24-0.4,0.23-0.4
		C643.8,158.32,643.76,158.49,643.62,158.57z M644.73,157.25C644.95,158.59,643.04,157.68,644.73,157.25
		c1.03-0.69,0.27-0.84,0.91-0.2C645.34,157.15,645.03,157.15,644.73,157.25z M646.15,142.89c-0.11-0.16-0.94-0.8,0.3-1.21
		C646.9,142.13,647.06,141.98,646.15,142.89z M652.62,144.81c0.26,0,0.36,0.3,0.4,0.3C652.52,145.37,651.99,144.97,652.62,144.81z
		 M650.49,156.95c-0.38-0.13-0.4-0.07,0-0.2V156.95z M649.28,154.82c1.82-1.11,2.53-1.31,4.96-1.01
		C652.62,155.03,651.1,154.82,649.28,154.82z M658.48,148.25c-1.01-0.71-0.71-1.92-1.11-2.73c-0.81-0.4-1.62-0.71-2.93-1.31
		c1.6-0.27,3.74-0.85,2.93,1.31c0.91,0.2,1.82,0.4,2.83,0.61C659.8,147.54,659.8,147.54,658.48,148.25z M665.26,144.61
		c-0.39,0.2-1.03-0.08-0.61-0.51C665.11,143.18,666.25,144.11,665.26,144.61z M459.68,539.49c-3.99-0.89-3.82-5.49-3.64-5.76
		c4.61-9.21-0.22-8.29,8.9-8.29c5.14,13.54,1.19,4.43,7.28,16.99C467.46,541.31,463.53,540.35,459.68,539.49z M658.08,400.05
		c0.81-0.51,1.82,0,2.73,1.21c-0.2,0.71-0.4,1.62-0.81,2.43c-16.77,33.53-3.97,12.69,0.61,2.22c2.81-6.42-1.82-1.76,14.06-4.25
		c3.1-0.49,4.07,2.69,8.6,1.92c1.63-0.28-1.95-0.22,18,2.53c0,14.58-7.09,41.59-12.96,47.45c-0.73-1.63-8.65,2.56-15.96,4.63
		c-5.69-9.1,14.16-8.87,16.69-23.16c-1.27,0.42-1.33,4.86-8.49,9.4c-9.15,5.81-9.28,7.45-10.31,4.35
		c-5.19-20.11-6.44-17.5-14.26-16.99c-12.58,0.81-0.62,43.51-11.02,17.6c-1.4-3.49-4.35-8.19-7.99-11.02
		c-0.15-0.85-2.53-14-3.03-15.17c-14.02-40.41-8.23-29.54-0.81-29.93c0.51,0,1.01,0.71,1.62,1.11c1.72-0.51,3.54-0.71,5.56-0.1
		c-0.1,1.31-2.02,2.12-1.11,3.94c0.61-0.71,1.31-1.21,1.92-1.82c3.17-2.64,2.26-3.2,1.42,3.13c-1.62,1.21-3.64,0-5.26,1.01
		c-1.99,3.98,13.9,1.42,17.29,1.42c-1.53,3.45-15.63,15.37-16.51,17.74C645.67,417.06,653.52,406.75,658.08,400.05z M660.38,435.31
		c-0.03,0.28-0.1,0.61-0.18,0.94C659.86,435.73,659.97,435.45,660.38,435.31z M659.6,438.88c0,0.53-0.4,0.11-0.4,0
		C659.19,438.37,659.43,438.71,659.6,438.88z M658.38,457.18c0-2.9,0-9.24,0-12.13C659.19,449.09,658.68,453.24,658.38,457.18z
		 M647.56,395.8c-0.86,3.87,0.07,2.71-2.73,3.64C643.42,398.34,644.38,394.53,647.56,395.8z M649.79,397.01
		c0.13-0.26,0.07-0.25,0.2,0H649.79z M652.31,397.21c2.91-0.97,1.07,0.71,0.71,0.71C652.72,397.92,652.52,397.52,652.31,397.21z
		 M590.12,389.83c1.21,0.71,1.21,0.71,1.42,2.02C591.03,391.15,590.73,390.64,590.12,389.83z M615.71,445.45
		c1.72,4.04,1.92,7.99,1.01,12.94C614,443.69,612.71,446.45,615.71,445.45z M602.76,499.45c-8.52-16.78-9.98-70.96,0.91-60.98
		c-3.53,16.25-2.15,43.42,6.17,64.21C605.7,503.39,604.46,502.8,602.76,499.45z M614.9,497.73c-5.28,21.78-17.62-47.06-8.39-59.36
		c6.63,6.63,7.29,15.01,8.49,22.65c-1.04,2.42-6.73-0.16-7.08,4.35c-0.26,3.34-0.51,6.78,0.61,10.11c2.14,4.28,2.71,3.37,7.48,3.03
		C616.82,485.29,616.43,491.44,614.9,497.73z M648.07,479.73c-0.51-1.82-0.91-3.64-1.31-5.36c0.81-1.52,2.73-1.62,2.93-3.54
		c-1.78,0.79-2.28,1.3-4.45,2.02c-1.29,1.84,2.51,4.08-1.31,6.27c-2.9,1.66-3.76,2.86-5.76-2.83c1.11-1.31,3.44-0.91,4.25-3.24
		c-1.31,0.4-2.22,0.82-3.13,1.11c-3.88,1.23-3.93-0.78-1.52,5.66c-1.21,1.72-2.83,1.72-4.55,1.21c-0.95-0.38-1.87-2.42-2.83-4.15
		c-0.8-0.8-0.69,0.51-1.11,2.43c-1.42,0.4-2.53-0.3-3.94-0.81c-3.1-6.2-0.78-2.12-7.89-2.12c-2.02,0-3.94-0.1-5.56,0.71
		c-1.42-0.81-1.8-2.02-1.92-3.13c-0.85-8.08-0.42-9.93,2.63-10.11c8.9,0,6.46,7.29,9,8.9c0.92,0.58,2.01,1.03,3.03,1.62
		c3.77,2.18,1.39,1.72,4.25,1.72c-2.02-1.82-3.54-3.44-5.56-4.65c-7-24.5-0.21-21.63-7.28-34.89c-3.25-6.1-0.1-2.37,2.02-0.61
		c0.45,2.25,0.27,3.62,1.72,5.36c0.99,0.99,2.32-0.08,2.02-0.91c-0.95-2.65-1.32-5.55-3.94-7.38c-4.21-2.94-2.85-6.15-4.66-6.26
		c-0.5,3.71,0.52,4-6.36-8.91c-10.6-19.89-2.66-8.48-13.75-31.65c-5.59-11.68-7.44-20.44-8.17-29.1c0.27,0.66,1.36,1.18,4.13,2.8
		c-1.15-4.22-3.84-5.01-4.15-3.64c-0.02,0.07-0.03,0.13-0.04,0.19c-0.83-10.6-0.1-21.14-2.59-36.8c-1.35-8.45-4.68-12.85-4.04-22.75
		c0.1-0.51,0.21-1.12,0-1.52c-1.27-2.41-0.1-15.86-0.91-19.92c-0.48-1.68-2.34-2.07-2.33-0.3c0,0.44,0.29,16.37,0,21.03
		c-3.37-7.86-2.65-18.73-1.21-27.2c0.61,0.1,1.01,0.3,1.62,0.51c0.91-2.53,0.3-5.16,0.71-7.58c-0.51,1.21-1.01,2.43-1.42,3.54
		c-0.51-3.13-0.51-3.54,0.81-5.97c9.65-17.7,10.55-23.76,28.01-25.18c13-1.05,19.93,9.83,25.08,21.84
		c6.53,15.22,4.2,24.61-1.11,36.71c-0.81-1.72-1.52-3.03-2.22-4.65c3.58-6.83,6.29-10.12-2.02-2.83c-7.51,6.59-1.19,9.38-8.8,57.54
		c0.71,0,1.22-0.3,1.52-1.01c1.83-4.34,0.64-3.57,4.35-3.94c-1.93-3.09-1.73-0.68,1.42-11.53c3.52,0.88,5.31,1.8,2.12-1.92
		c-2.56-2.98-1.92,0.65-1.92-14.56c6.64-10.9,12.11-17.05,13.35-39.54c0.63-11.46-10.97-29.66-15.17-32.66
		c-17.38-12.45-30.87-1.59-26.8-5.66c6.78-9.05,15.36-2.69,20.33-1.31c7.98,2.21,15.55,10.08,20.22,16.89
		c5.97,8.69,9.37,10.28,14.16,14.46c0.81,0,1.42-0.1,2.02-0.1c4.25,6.27,6.71,13.14,7.08,20.63c1.11,22.23,0.97,13.35-2.22,22.25
		c-0.22,0.6-0.4,1.62-0.1,1.92c1.06,1.23,1.97,19.33,1.31,21.84c-1.16,4.45-3.14,15.91-2.33,20.22c2.3,12.23-0.46,19.36-1.21,26.7
		c-0.33,3.16,0.61,1.59,0.61,9.4c0.78,12.53,4.23,5.01-22.85,4.45c-1.4-0.03-1.26-0.1-3.03-4.15c-0.66,3.09-0.07,4.27-2.63,3.13
		c0.3-3.54-0.71-7.28,1.42-10.72c-3.72-7.43-2.23-10.39-9.4-27.81c-1.7-3.39-3-2.33-2.53-7.08c-4.16,0.42,8.39,25.84,7.79,36.51
		c-0.24,4.34-0.81,9.97,0.61,14.06c2.41,6.93,4.97,19.82,7.89,26.9c3.8,9.21,2.8,9.21,4.15,16.28c1.62,8.49,12.16,10.27,16.18,31.65
		c0.15,0.77,0.93,5.59,0.81,5.76c-0.91,1.72,0.51,3.24,0.4,4.85C650.9,480.03,649.58,480.03,648.07,479.73z M624.91,297.2
		c-1.52,2.43-2.02,5.26-4.45,7.58C620.02,296.43,620.02,290.35,624.91,297.2z M661.21,498.03c-9.14-2.93-13.84-61.13-6.67-64.72
		c7.29-3.64,1.5-1.19,2.53,25.28c0.34,8.66,2.45,30.28,7.48,38.02C665.78,498.52,663.17,498.66,661.21,498.03z M660.3,473.06
		c0,2.1,0.07,1.82-0.2,1.82C660.1,472.78,660.03,473.06,660.3,473.06z M660.71,478.01c0.27,0,0.4-0.23,0.4,1.52
		C660.49,479.53,661.03,479.65,660.71,478.01z M661.82,481.14c0,0.75,0,1.53,0,2.74C661.24,482.53,661.13,481.73,661.82,481.14z
		 M662.53,485.29c0,0.02,0.01,0.02,0.01,0.03C662.53,485.35,662.53,485.36,662.53,485.29z M663.24,488.83c0-0.1,0.1-0.1,0.2-0.1
		C663.44,488.87,663.24,489.71,663.24,488.83z M666.41,495.44c0.24,0.05,0.37,0.19,0.43,0.43
		C666.69,495.73,666.54,495.58,666.41,495.44z M670.72,489.03c-0.44,4.66-3.03,9.84-3.71,7.07c1.98-1.54,0.69-4.92,0.69-1.55
		c-1.95-0.98-1.63-1.28-1.63,0.46c-0.64-1.46-1.11-1.21-0.1-1.21c-1.52-5.07-1.55-4.47-3.27-8.73c0.52-1.04-7.56-42.05-0.27-50.03
		c-0.8-1.14-1.28-0.29-1.79,0.01C662.12,424.85,674.26,451.58,670.72,489.03z M673.25,492.57c-1.96-0.98-1.17-0.46-0.4-1.62
		C673.11,491.31,674.31,492.57,673.25,492.57z M674.76,489.55c-0.81-1.47-0.66-1.22,0-1.22
		C674.76,488.74,674.76,489.13,674.76,489.55z M674.99,489.86c0.34,0.04,0.52,0.21,0.56,0.56
		C675.36,490.24,675.18,490.05,674.99,489.86z M675.68,490.57c1.59-1.27,0.26-1.53,0.8-1.53c-0.23-0.23,0.96,0.19,0.1-1.52
		c-0.01,0.1-0.19,1.38-0.19,1.48c-1.94-0.97-1.45-0.57-1.83-2.08c-0.53,0-0.39-0.22-0.57,1.16c-1.82-1.39-1.17-0.49-0.85-6.22
		c2.67-1.78,6.98-14.42,6.98-9.01C680.12,487.12,676.75,493.7,675.68,490.57z M673.85,477.4c-0.71-2.33-1.52-11.83-1.42-16.58
		c1.93-1.44,14.72-6.59,15.3-6.61C681.6,461.15,681.3,465.56,673.85,477.4z M709.45,508.65c2.73-10.24-1.86-0.56,3.44-30.24
		c1.74-9.74,1.96-5.45,10.62-22.75c4.3-2.15,7.62,0.7,11.93-2.93c-10.71-2.14-41.13,7.01-47.63,5.06c3.57-3.87,4.03-5.34,5.87-8.09
		c5.36,0.1,10.72,0.2,15.88-1.52c-4.85,0.1-9.61,0.51-14.66-0.1c0,0,4.41-10.02,6.67-20.12c5.42-24.22-3.83-23.18,17.9-19.72
		c5.39,0.86,7.74,3.26,15.37,4.85c4.23,0.88,16.18,5.3,18.61,8.9c1.37,2.03,2.97,3.49,9.1,8.09
		c-3.47,41.63-13.28,58.92-38.53,105.98c-9.51,17.71-0.55,9.78-9.91,19.72c-3.44,0.3-6.98,0.81-10.62-0.51
		C689.76,550.3,697.49,565.43,709.45,508.65z M711.88,558.81c-1.25,2.29-1.47,4.16-4.04,4.35c-5.92,0.44-10.27,1.82-13.45-3.24
		C695.34,554.19,695.12,559.98,711.88,558.81z M770.32,590.05c-9.15,10.56-48.79,4.05-52.38,3.74c-2.97-0.26-12.91,4.25-25.99,1.72
		c-12.98-2.51-17.73,3.32-7.89-18.81c3.16-7.11-0.02-11.74,5.16-17.9c1.04-1.04,0.8,0.39,3.03,2.63c0.81,0.91,1.91,1.42,2.63,2.33
		c1.3,1.63,3.03,1.96,4.96,1.92c7.3-0.15,10.69,1.16,13.35-3.24c0.74-1.23,5.08-8.28,8.8-11.53c2.2,2.2,3.83,1.49-2.63,13.04
		c8.97-4.24,6.71-7.39,9.3-5.66c0,2.41-5.76,6.51-4.35,8.39c8.02-0.53,4.78-9.34,11.02-2.53c-0.1,2.22-2.22,3.84-2.02,6.07
		c0.65,1.14,1.15,0.49,5.66-2.33c0.69,0.27,2.58,1.01,2.12,1.92c-1.04,2.61-1.26,6.12,0.81,4.04c2.38-3.17,1.66-2.87,4.04-1.82
		c14.15,6.26,19.19,3.27,22.65,5.66C771.75,588.73,772.62,587.4,770.32,590.05z"/>
	<path d="M592.45,504.5v0.1C592.61,504.49,592.64,504.54,592.45,504.5z"/>
	<path d="M612.27,505.31l0.1,0.1C612.44,505.28,612.52,505.27,612.27,505.31z"/>
	<path d="M621.67,177.07l0.1-0.1C621.74,176.97,621.7,177.04,621.67,177.07z"/>
	<path d="M576.57,515.02c1.31-1.82,2.64-4.05,2.33-6.37c-0.82-6.12,2.63-8.61,1.62-12.74c-1.4-5.71,1.42-6.22,1.42-12.84
		c0-12.78-0.2-9.09,0.61-11.93c0-1.47-1.86-0.74-0.4-4.15c1.5-3.51,1.72-7.18,1.52-10.82c0.4-0.61,0.81-1.11,1.11-1.62
		c-0.04-0.1-9.34-16.04-5.87-27.81c7.23-24.51,10.91-31.59,7.69-33.17c-0.93,0.62-9.8,33.51-10.11,33.98
		c-2.16,2.88,0.12,15.62,2.33,20.73c3.61,8.36,3.86,6.63,3.13,10.52c-2.59,13.85-3.42,7.97-1.01,18.4c0,2.15-1.97,0.99-1.42,3.34
		c1.63,6.91-2.52,8.44-1.42,15.07c0.81,4.9-2.51,7.16-1.62,12.74C577.09,511.14,573.81,514.74,576.57,515.02z"/>
	<path d="M588,394.28c-0.04,0.16-0.15,0.03,0.4,0.4L588,394.28z"/>
	<path d="M563.12,553.45c0.3,0,0.71-0.51,1.21-0.81c-2.91-2.13-11.6-0.74-22.75-4.75C536.33,546,537.84,551.73,563.12,553.45z"/>
	<path d="M659.7,170.19c-2.51-1.88-8.57-1.51-11.63-0.81c-1.31,0.3-1.82,1.01-2.73,3.03c8.12-1.62,1.65-2.17,12.24-0.4
		C658.79,172.22,659.49,171.61,659.7,170.19z"/>
	<path d="M216.07,34.49c0-1.42-2.02-1.72-2.22-1.72c-7.48,0-9.83-0.84-12.54,3.13c5.98-0.46,4.79-1.69,9.61-0.71
		C212.84,35.59,216.07,36.37,216.07,34.49z"/>
	<path d="M630.37,202.65c-1.5-2.25-2.33-3.38-2.76-3.9c-0.1-0.5-0.55-1.79-1.79-4.69c-2.75,5.28,1.74,4.99,2.12,8.7
		c0.27,2.63,1.42,4.55,3.74,7.08C628.59,202.79,628.56,203.74,630.37,202.65z"/>
	<path d="M213.34,37.42c-2.73,0.1-4.96,0.71-7.28,2.93C213.29,41.49,213.34,41.72,213.34,37.42z"/>
	<path d="M649.99,176.56c2.33-0.2,4.85,1.82,6.98-0.3c0-0.91-0.1-1.62-0.1-2.43C654.03,173.53,651.81,174.34,649.99,176.56z"/>
	<path d="M602.87,552.94c-6.72,2.8,0.46-0.54-10.82,2.93C595.36,557.32,601.07,556.93,602.87,552.94z"/>
	<path d="M585.37,446.16c0.34-2.7-1.28-5.52-3.03-7.28C582.74,441.91,582.84,444.24,585.37,446.16z"/>
	<path d="M195.24,268.99c-0.01,0.1-0.6,6.39-0.2,7.38C196.63,274.25,197.58,268.56,195.24,268.99z"/>
	<path d="M586.18,481.55c1.11,1.72,3.64,1.31,6.67-1.01C590.53,480.84,588.4,481.25,586.18,481.55z"/>
	<path d="M525.41,541.52c1.52,1.11,3.03,2.33,5.46,1.72C529.05,541.92,527.33,541.41,525.41,541.52z"/>
	<path d="M533.7,521.7c-2.85,0.99,4.93,0.85,7.99,0C539.32,521.22,540.03,520.64,533.7,521.7z"/>
	<path d="M489.61,528.88c-1.52-0.51-2.63-0.3-3.94,0.91C487.38,530.19,488.5,530.29,489.61,528.88z"/>
	<path d="M635.63,222.37c-0.61,1.62,0.71,2.63,0.91,3.84C636.54,224.9,637.25,223.49,635.63,222.37z"/>
	<path d="M616.62,195.17c-1.01,0.91-1.11,2.02-0.71,3.54C616.78,197.26,618.34,195.17,616.62,195.17z"/>
	<path d="M620.36,483.57c0.04-0.29,0.1-0.26-0.1-0.1L620.36,483.57z"/>
	<path d="M622.58,479.14c-0.85,1.33-1.92,2.62-2.18,4.21C621.78,482.27,622.52,480.86,622.58,479.14z"/>
	<path d="M481.72,530.49c0.4-0.1,0.91-0.4,1.31-0.61c-0.1-0.2-0.1-0.4-0.1-0.51c-1.94-0.39-1.96,0.12-2.73,0.51
		C480.2,530.31,481.28,530.6,481.72,530.49z"/>
	<path d="M173.7,58.86c-1.31,1.01-1.31,1.01-0.91,2.63C173.7,60.78,174.21,59.97,173.7,58.86z"/>
	<path d="M493.65,529.89c0.26-0.13,0.7-1.11-0.2-1.11C490.57,529.73,492.25,530.17,493.65,529.89z"/>
	<path d="M582.74,435.94c-1.53-4.59-1.23,1.54-0.3,0.61C582.64,436.45,582.74,436.15,582.74,435.94z"/>
	<path d="M577.28,548.19c0.2,0.61,0.2,1.31,1.01,1.42C578.29,548.09,578.29,548.09,577.28,548.19z"/>
	<path d="M192.51,86.46c-0.3,1.31-0.3,1.31,0.3,2.73C193.02,88.28,193.42,87.27,192.51,86.46z"/>
	<path d="M191.3,51.98c-0.98-1.22-2.29,0.61,0.1,0.61C191.4,52.39,191.4,52.08,191.3,51.98z"/>
	<path d="M625.82,491.36c1.11-0.1,1.21-0.91,1.21-2.53C626.43,490.04,626.12,490.75,625.82,491.36z"/>
	<path d="M189.38,77.46c-0.2-0.1-0.51,0.1-0.71,0.1c0.2,0.4,0.4,0.81,0.61,1.31C189.88,78.17,189.78,77.77,189.38,77.46z"/>
	<path d="M194.84,54.71c-0.1-0.2-0.1-0.51-0.3-0.61c-1.71-0.57-0.82,0.61-0.61,0.61C194.23,54.81,194.53,54.71,194.84,54.71z"/>
	<path d="M633.3,214.79c-0.66-1.31-0.49-1.43-1.21-0.71C632.31,214.38,632.91,215.18,633.3,214.79z"/>
	<path d="M625.72,491.26c-0.77,0.58-1.33,1.34-1.4,2.38C625.35,493.21,625.91,492.42,625.72,491.26z"/>
	<path d="M624.03,493.84c0.22-0.18,0.14-0.18,0.27-0.05c0-0.22,0.09-0.15-0.1-0.1C624.08,493.56,624.11,493.51,624.03,493.84z"/>
	<path d="M538.96,547.48c-1.01-1.11-1.01-1.11-2.22-1.11C537.35,546.78,536.87,547.06,538.96,547.48z"/>
	<path d="M516.81,533.83c-0.87,0.44-0.61,0.4,0.3,1.01C517.76,534.84,517.16,534.36,516.81,533.83z"/>
	<path d="M634.11,187.69c-0.06,0.19-0.63,1.01,0.4,1.01c0.1,0,0.3-0.2,0.51-0.4C634.62,188.09,634.31,187.99,634.11,187.69z"/>
	<path d="M637.35,190.22c-0.1,0.2-0.3,0.4-0.2,0.61C637.79,191.47,638.91,190.74,637.35,190.22z"/>
	<path d="M531.07,523.01c0.58-0.33,1.01-0.53,1.38-0.7C532,522.29,531.47,522.21,531.07,523.01z"/>
	<path d="M532.69,522.2c-0.1,0.06-0.54,0.22,0.1,0.1C532.92,522.21,532.98,522.2,532.69,522.2z"/>
	<path d="M524.39,524.22c-0.27,0,0.08-0.45-0.81,0C523.59,524.58,524.07,524.39,524.39,524.22z"/>
	<path d="M200.8,75.75c0.13,0.13,0.17,0.1,1.01,0.1C201.08,75.48,201.14,75.41,200.8,75.75z"/>
	<path d="M190.99,82.42c0.1,0,0.2-0.1,0.2-0.2C191.2,81.82,190.99,81.75,190.99,82.42z"/>
	<path d="M183.41,91.32c0,0.18-0.07,0.3,0.4,0.3C183.81,90.96,183.6,91.32,183.41,91.32z"/>
	<path d="M634.52,218.63c0.38-0.13,0.4-0.07,0-0.2V218.63z"/>
	<path d="M627.34,227.53c-0.2,0.3-0.4,0.4-0.71,0.4C626.91,227.94,626.95,228.3,627.34,227.53z"/>
	<path d="M607.01,509.46l-0.2,0.1C606.94,509.69,606.89,509.71,607.01,509.46z"/>
	<path d="M609.14,508.04c-0.13,0.27-0.17,0.27,0.1,0C609.37,507.78,609.4,507.77,609.14,508.04z"/>
	<path d="M611.26,506.73c0.03-0.03,0.07-0.07,0.1-0.1C611.36,506.63,611.26,506.63,611.26,506.73z"/>
	<path d="M611.64,506.32C611.7,506.23,611.66,506.24,611.64,506.32L611.64,506.32z"/>
	<path d="M611.66,506.63c-0.07-0.13-0.05-0.24-0.03-0.31c-0.04,0.06-0.12,0.16-0.28,0.31C611.46,506.63,611.56,506.63,611.66,506.63
		z"/>
	<path d="M612.37,505.62l-0.1-0.1C611.96,505.83,612.1,505.67,612.37,505.62z"/>
	<path d="M611.66,506.2c0.14-0.16,0.29-0.33,0.43-0.5C611.87,505.81,611.7,505.97,611.66,506.2z"/>
	<path d="M592.55,504.61v0.3C592.67,504.67,592.68,504.73,592.55,504.61z"/>
	<path d="M603.17,552.74c0,0.07-0.05,0.14-0.12,0.21C603.2,552.91,603.17,553.03,603.17,552.74z"/>
	<path d="M627.44,227.63c0-0.1,0.1-0.2,0.1-0.3C627.44,227.43,627.44,227.53,627.44,227.63z"/>
	<path d="M520.65,537.07c0,0,0.1,0.1,0.3,0C520.86,537.07,520.75,537.07,520.65,537.07z"/>
	<path d="M622.49,177.07c-0.59,0-0.69-0.1-0.41,0.4C622.25,177.39,622.35,177.23,622.49,177.07z"/>
	<path d="M621.88,176.97l-0.1,0.1C621.86,177.07,622.04,177.08,621.88,176.97z"/>
	<path d="M160.86,216.1c-0.33-1.51-1.72-1.72-3.03-2.53c-0.01-0.11-0.14-3.94-1.42-7.89c-0.62-1.94-2.63-1.42-2.83-1.42
		c0,2.04-0.81,6.05,2.53,8.8c3.56,2.93,1.06,5.44,3.84,7.99C161.06,219.34,161.23,217.83,160.86,216.1z"/>
	<path d="M163.39,105.68c-4.83-1.39-7.39,4.95-7.48,6.57c1.21-0.4,1.52-1.62,2.22-2.53c4.49-4.99,5.69-0.55,9.51-1.82
		C166.88,106.64,167.64,106.91,163.39,105.68z"/>
	<path d="M134.06,130.55c-1.72,4.01,9.2,17.12,2.53,5.26C135.78,134.09,135.78,131.97,134.06,130.55z"/>
	<path d="M184.52,316.52c0.88,0.44,1.28-0.69,1.21-0.81c-1.53-4.59-0.9-3.59-2.22-4.25C182.39,312.59,182.5,315.07,184.52,316.52z"
		/>
	<path d="M189.17,311.56c-0.29,2.33-0.78,0.77,0.57,4.35C193.99,315.96,190.82,312.24,189.17,311.56z"/>
	<path d="M154.29,240.88c-0.4-1.72-0.71-2.83-1.01-3.94C152.83,236.04,151.27,236.75,154.29,240.88z"/>
	<path d="M161.97,236.02c0.1-1.92-0.1-3.34-1.01-4.75C160.25,233.09,161.26,234.31,161.97,236.02z"/>
	<path d="M144.48,144c-0.1,0.3-0.4,0.71-0.3,0.91c0.3,0.81,0.91,1.42,1.92,1.31C146.2,145.01,145.79,144.31,144.48,144z"/>
	<path d="M196.56,305.09c-0.71,1.52,0,2.43,1.01,3.64C197.87,307.11,197.87,306,196.56,305.09z"/>
	<path d="M199.69,313.59c0.2-1.31,0.1-2.33-0.81-3.34C198.27,312.37,198.27,312.37,199.69,313.59z"/>
	<path d="M181.89,302.36c-0.7,1.05-0.94,0.25,0,1.82C182.83,302.61,182.59,303.41,181.89,302.36z"/>
	<path d="M187.45,321.57c0.19,0,0.42-0.16,0.2-0.61C185.85,319.16,185.19,322.54,187.45,321.57z"/>
	<path d="M150.65,149.77c0.77,0.38,1.01,0,0.91-0.1C150.59,147.74,149.76,148.88,150.65,149.77z"/>
	<path d="M177.93,140.8c-1.2,0.24-1.5,1.12-1.5,2.3C177.4,142.71,177.81,141.85,177.93,140.8z"/>
	<path d="M178.05,140.77l-0.1-0.1C177.95,140.81,177.86,140.82,178.05,140.77z"/>
	<path d="M154.89,116.09c-0.42,0-0.23-0.26-0.61,1.62C155.04,117.71,154.89,118.44,154.89,116.09z"/>
	<path d="M147.11,221.77c0.4-0.8,0.56-0.21-0.3-1.52C146.14,221.25,146.36,221.02,147.11,221.77z"/>
	<path d="M182.9,308.83c-0.32-0.63-0.09-0.81-0.91-0.4C182.79,309.62,181.99,309.29,182.9,308.83z"/>
	<path d="M149.03,227.53c0.42,0.42,0.65,0.22,0.91-0.3C149.03,226.77,149.37,226.85,149.03,227.53z"/>
	<path d="M173.8,150.17c-0.1-0.1-0.1-0.2-0.1-0.3c0,0.1-0.1,0.2-0.1,0.3s0.1,0.2,0.1,0.3C173.7,150.37,173.8,150.27,173.8,150.17z"
		/>
	<path d="M159.34,223.59c0.18,0.35,0.4,0.56,0.4,0.1C159.44,223.38,159.68,223.25,159.34,223.59z"/>
	<path d="M163.99,241.38c0.15,0.3,0.4,0.7,0.4,0.2C164.4,241.04,164.24,241.14,163.99,241.38z"/>
	<path d="M159.24,228.04c0,0.74,0.24,0.57,0.51,0.3C159.37,227.58,159.24,227.93,159.24,228.04z"/>
	<path d="M189.27,317.33c0.71-0.35,0.5-0.06,0.42-1.22C188.91,317.14,188.92,316.62,189.27,317.33z"/>
	<path d="M189.7,316.1c0.11-0.11,0.08-0.08,0.04-0.19C189.65,315.91,189.66,315.89,189.7,316.1z"/>
	<path d="M182.9,148.35c-0.1,0.1-0.1,0.2-0.1,0.4C182.8,148.66,182.8,148.55,182.9,148.35z"/>
	<path d="M188.77,307.01l-0.2-0.1C188.57,307.17,188.51,307.14,188.77,307.01z"/>
	<path d="M189.58,310.05c-0.26,0-0.23-0.08-0.1,0.3L189.58,310.05z"/>
	<path d="M155.9,112.25l-0.1-0.1C155.68,112.53,155.63,112.52,155.9,112.25z"/>
	<path d="M178.25,140.46c0,0,0-0.1,0-0.2C177.98,140.85,178.13,140.7,178.25,140.46z"/>
	<path d="M176.33,142.99c-0.04,0.04-0.08,0.1-0.12,0.17C176.27,143.12,176.33,143.06,176.33,142.99z"/>
	<path d="M176.21,143.16c-0.03,0.01-0.05,0.03-0.08,0.03C176.03,143.19,175.89,143.59,176.21,143.16z"/>
	<path d="M153.78,440.7c-1.05,7.65,0.3,25.06,1.11,11.93C155.6,441.27,155.57,440.86,153.78,440.7z"/>
	<path d="M172.18,419.26c-1.42,2.12-1.52,2.63-1.11,6.47C173.3,421.89,173.4,420.57,172.18,419.26z"/>
	<path d="M151.86,468c2.63-4.75,2.63-4.75,2.02-7.38C152.06,462.84,151.76,465.17,151.86,468z"/>
	<path d="M143.37,547.99c1.42,3.34,1.52,3.54,3.44,4.45C147.21,550.11,146.8,549.71,143.37,547.99z"/>
	<path d="M171.58,433.31c-2.63,1.52-2.63,2.43-0.1,4.95C172.49,436.35,171.27,434.93,171.58,433.31z"/>
	<path d="M177.44,421.79c-0.61-0.1-1.3,0.6-1.11,1.21c0.59,1.91,2.2,0.49,3.44-0.2C178.66,422.39,178.05,421.99,177.44,421.79z"/>
	<path d="M144.38,525.03c-0.71,1.01-1.31,1.92-0.61,3.24C145.08,527.06,145.08,527.06,144.38,525.03z"/>
	<path d="M144.28,533.53c-1.47,0.49-1.47,1.36-0.81,2.02C144.67,535.75,144.81,533.53,144.28,533.53z"/>
	<path d="M143.57,543.64c-1.21,0.61-1.21,1.52-0.71,2.43C143.47,545.46,144.17,544.85,143.57,543.64z"/>
	<path d="M151.35,475.99c-0.2,0.81-0.4,1.72-0.51,2.53c0,0.55,0.81,0.1,0.81,0C152.11,474.91,151.93,476.56,151.35,475.99z"/>
	<path d="M171.78,428.16c-0.2,1.42,0.4,2.22,1.11,2.93C173.6,429.78,172.99,429.07,171.78,428.16z"/>
	<path d="M166.12,436.75c0.52,0,0.93-0.59-0.4-1.92C165.41,435.13,165.13,436.38,166.12,436.75z"/>
	<path d="M143.37,540.5c0.4-0.61,0.81-1.21,0-2.02C143.37,539.29,143.37,539.9,143.37,540.5z"/>
	<path d="M145.49,519.98c0-0.51-0.61-0.1-0.61,0C144.88,522.74,145.49,520.49,145.49,519.98z"/>
	<path d="M149.74,490.55c0,0.51,0.3,0.15,0.3,0C150.04,490.04,149.74,490.4,149.74,490.55z"/>
	<path d="M155.9,346.86c-1.32,3.3-1.53,11.94-1.62,15.88C154.93,360.8,154.84,363.56,155.9,346.86z"/>
	<path d="M199.99,396.51c-0.19,0-0.1,0.01-0.1,0.1L199.99,396.51z"/>
	<path d="M198.88,396c-2.76,1.38,0.43,1.94-6.17-1.01c-3.95-1.77-1.77,0.43,1.42,2.02c4.97,2.48,4.43-0.5,5.74-0.5
		C199.82,395.91,199.36,395.81,198.88,396z"/>
	<path d="M190.79,369.1c-2.63-0.3-4.35-0.51-6.37,1.42C186.85,370.72,188.36,369.91,190.79,369.1z"/>
	<path d="M199.89,396.81c0.26,0,0.24,0.09,0.1-0.1L199.89,396.81z"/>
	<path d="M200.09,396.83c0.86,0.99,1.58,2.2,3.24,2.1C202.46,397.96,201.58,396.92,200.09,396.83z"/>
	<path d="M171.07,368.09c0.29,0,0.2,0.37,0.2-2.33C171,365.76,171.07,365.42,171.07,368.09z"/>
	<path d="M188.38,392.78c0.66,0.68,1.25,1.4,2.31,1.4C190.22,393.24,189.4,392.84,188.38,392.78z"/>
	<path d="M185.03,390.44c-0.14,0.14,1.59,0.48,1.72,0.51C186.14,390.74,185.63,390.54,185.03,390.44z"/>
	<path d="M177.44,361.52c0.42,0.85,0.51,0.15,0.81,0C177.58,361.07,177.66,361.19,177.44,361.52z"/>
	<path d="M184.93,390.44l0.1-0.1C183.96,389.27,183.97,389.48,184.93,390.44z"/>
	<path d="M187.4,391.8c-0.18,0.18,2.14,2.19,0.1,0C187.77,391.54,185.75,390.15,187.4,391.8z"/>
	<path d="M181.89,387.1l-0.1-0.2C181.79,387.28,181.76,387.23,181.89,387.1z"/>
	<path d="M181.99,387.1c-0.18,0.18,0.45,0.62,0.81,0.71C182.5,387.61,182.3,387.3,181.99,387.1z"/>
	<path d="M182.7,387.81c-0.1,0.1-0.31,0.06,0.81,0.81C183.21,388.32,183.01,388.11,182.7,387.81z"/>
	<path d="M183.41,388.72c0.3,0.3,0.61,0.61,0.91,0.81C183.38,388.59,183.62,388.51,183.41,388.72z"/>
	<path d="M177.65,189.21c1.01,1.31,2.22,2.22,4.35,1.62C177.5,185.59,178.36,186.71,177.65,189.21z"/>
	<path d="M211.22,162.91c-1.62,1.42-3.64,3.74-4.35,5.16C209.6,167.06,210.11,166.55,211.22,162.91z"/>
	<path d="M181.49,204.37c0.61,1.11,1.52,1.11,2.53,0.81C182.8,203.87,182.8,203.87,181.49,204.37z"/>
	<path d="M186.34,191.63c0,1.88,2.93,1.21,2.02,0.3C187.66,191.23,186.75,191.13,186.34,191.63z"/>
	<path d="M197.47,167.97c-1.21-1.31-1.21-1.31-1.92,0C196.25,168.37,196.86,168.78,197.47,167.97z"/>
	<path d="M211.42,160.39c0,1.01-0.1,1.82-0.1,2.63C211.52,162.1,212.03,161.4,211.42,160.39z"/>
	<path d="M193.62,166.45c-1.01-2.01-1-0.98-1.62-0.2c0.4,0.3,0.81,0.51,1.21,0.81C193.42,166.86,193.72,166.55,193.62,166.45z"/>
	<path d="M191.3,192.54c0.66-0.44,0.97-0.14,0.1-1.01c-0.1-0.1-0.4,0.1-0.61,0.2C190.99,192.04,191.09,192.24,191.3,192.54z"/>
	<path d="M178.35,202.76c1.15,1.15,0.96,0.96,1.42,0.51C179.25,202.57,178.9,201.67,178.35,202.76z"/>
	<path d="M175.12,196.89c-0.39,2.22-0.01,0.66,0.2,0.1C175.32,196.89,175.22,196.89,175.12,196.89z"/>
	<path d="M174.93,198.62c0.02-0.21,0.04-0.38,0.06-0.57C174.85,198.55,174.5,199.19,174.93,198.62z"/>
	<path d="M189.27,164.63c-0.62,0-0.74,0.17-0.4,0.51c0.2-0.1,0.3-0.2,0.61-0.3C189.38,164.83,189.38,164.63,189.27,164.63z"/>
	<path d="M150.75,262.82c-0.18-0.17,0,0.01,0-3.13c-1.99,1.79-0.14,2.53-2.43,11.12C144.23,286.17,153.86,265.85,150.75,262.82z"/>
	<path d="M147.11,276.78c-0.02,0.02-0.02,0.02-0.03,0.04C147.06,276.92,147.05,276.95,147.11,276.78z"/>
	<path d="M147.08,276.82c0.01-0.08,0.03-0.21,0.03-0.34C147.02,276.76,146.93,277.01,147.08,276.82z"/>
	<path d="M223.15,318.84c1.73-11.65-4.24-24.79-5.06-9.2C219.47,323.42,222.43,321.71,223.15,318.84z M220.12,305.19
		c1.67,2.55,2.45,8.84,1.21,12.54c-1.84-0.69,0.74-1.67-0.2-5.36c-0.47-1.83-0.4-3.84-1.21-5.66
		C219.71,306.41,220.02,306,220.12,305.19z"/>
	<path d="M224.16,338.66c-0.21,0.21-0.37,0.2-0.2,0.2C224.06,338.87,224.06,338.77,224.16,338.66z"/>
	<path d="M223.89,338.87c-0.27,0-0.25-0.04-0.21,0.14C223.74,338.99,223.78,338.95,223.89,338.87z"/>
	<path d="M230.84,336.54c0.06-0.09,0.14-0.1-0.1-0.1L230.84,336.54z"/>
	<path d="M230.91,336.45c0.26,0.03,0.5,0.08,0.33-0.41C231.16,336.21,231.02,336.31,230.91,336.45z"/>
	<path d="M604.18,361.42c-0.34-1.31-1.62-1.62-2.83-2.33c-0.25-2.73-0.43-10.02-3.13-10.52c-2.18-0.4-1.02,2.35-1.21,2.83
		c-0.86,2.12,1.6,5.68,2.93,7.28c3.07,3.68,1.15,6.13,3.44,8.8C604.69,365.56,604.73,363.56,604.18,361.42z"/>
	<path d="M603.07,241.99c-1.62,2.02-3.34,3.94-3.84,6.88c2.02-1.72,2.83-4.15,5.06-5.36c2.12-0.1,4.15,1.21,6.47,0.81
		c-0.1-0.4,0-1.01-0.2-1.11C608.22,241.79,605.8,241.38,603.07,241.99z"/>
	<path d="M578.39,268.08c-1.05-3.15-2.3,3.39,3.94,10.92C581.56,277.45,584.15,281.81,578.39,268.08z"/>
	<path d="M629.36,470.73c0.2-2.22-0.1-3.94-1.62-5.36C625.41,467.7,627.15,470.27,629.36,470.73z"/>
	<path d="M633.3,465.78c-1.14,3.43,1.13,4.64,2.02,4.04C636.65,469.38,635.15,466.39,633.3,465.78z"/>
	<path d="M588.81,282.34c-0.3-0.21-0.91,0-1.42,0C588.17,285.94,591.14,283.95,588.81,282.34z"/>
	<path d="M597.4,388.62c-0.2-2.63-0.2-2.63-1.72-4.45C595.89,386.09,596.09,387.51,597.4,388.62z"/>
	<path d="M603.98,378.81c0.24,1.66-0.15,1.04,1.31,4.35C605.29,380.12,605.29,380.12,603.98,378.81z"/>
	<path d="M642.81,467.7c0.91-1.52,0.91-1.52-0.2-3.34C642,465.47,642.3,466.48,642.81,467.7z"/>
	<path d="M640.18,459c-0.2,1.62,0.2,2.63,1.52,3.84C641.49,461.12,641.8,460.01,640.18,459z"/>
	<path d="M593.97,286.99c-0.1,0.2-0.4,0.51-0.3,0.61c0.3,0.61,0.61,1.42,1.82,0.91C594.13,287.15,594.66,286.99,593.97,286.99z"/>
	<path d="M626.33,456.67c0-0.2-0.4-0.2-0.81-0.51c-0.1,0.51-0.3,0.91-0.3,1.42C625.21,458.13,626.84,457.95,626.33,456.67z"/>
	<path d="M621.07,278.9c-1.01,0.51-1.42,1.31-1.31,2.83C620.56,280.72,621.27,280.01,621.07,278.9z"/>
	<path d="M598.82,252.41c-1.31,0.71-1.42,1.42-0.91,2.43C598.21,254.02,598.42,253.42,598.82,252.41z"/>
	<path d="M630.27,474.67c-0.5,0-0.56,0.91-0.1,0.91C632.37,476.14,631.75,474.67,630.27,474.67z"/>
	<path d="M608.33,390.44c-0.4-0.51-0.61-0.91-1.01-1.42C607.42,390.03,607.42,390.03,608.33,390.44z"/>
	<path d="M625.92,462.74c0,0,0.2,0.3,0.3,0.51C627.22,462.75,626.71,461.95,625.92,462.74z"/>
	<path d="M590.02,366.88c0.4,1.59,0.5,1.21,0.91,1.01C590.93,366.43,590.52,366.63,590.02,366.88z"/>
	<path d="M602.87,374.87c-0.43,0.43-0.32,0.81,0.3,0.81C603.61,374.8,602.97,374.76,602.87,374.87z"/>
	<path d="M592.85,374.06c0,0.73-0.13,0.82,0.51,0.51c-0.1-0.2-0.2-0.4-0.2-0.71C593.06,373.96,592.85,373.96,592.85,374.06z"/>
	<path d="M602.97,370.72c0,0.1,0.1,0.2,0.2,0.3c0.1-0.3,0.1-0.61,0.2-0.91C603,370.11,603.33,369.99,602.97,370.72z"/>
	<path d="M621.78,278.29c-0.63-0.63-0.36-0.04-0.61,0.71C621.27,278.7,621.47,278.5,621.78,278.29z"/>
	<path d="M582.24,279.1c0.32-0.11,0.42-0.1,0.1-0.1L582.24,279.1z"/>
	<path d="M589.42,284.46c0.1,0.1,0.2,0.1,0.3,0.2C589.72,284.56,589.62,284.46,589.42,284.46z"/>
	<path d="M611.97,426.34c0.2,0.1,0.3,0.2,0.51,0.3C612.37,426.44,612.47,425.93,611.97,426.34z"/>
	<path d="M610.35,421.58c0.26,0,0.23,0.08,0.1-0.3L610.35,421.58z"/>
	<path d="M605.09,401.87c0,0.2,0,0.2,0.2,0.2C605.19,401.97,605.09,401.97,605.09,401.87z"/>
	<path d="M605.19,402.17c0.26,0.13,0.23,0.16,0.1-0.1L605.19,402.17z"/>
	<path d="M633.4,463.95c-0.26,0.26-0.29,0.17,0.1,0.3L633.4,463.95z"/>
	<path d="M632.39,461.02l0.2,0.1C632.6,460.86,632.65,460.89,632.39,461.02z"/>
	<path d="M605.19,383.26c0.1,0,0.2,0.1,0.3,0.1C605.39,383.26,605.29,383.16,605.19,383.26z"/>
	<path d="M723.91,496.52c-3.62,3.77-6.17,8.39-9.2,12.64C717.22,510.16,726.51,493.8,723.91,496.52z"/>
	<path d="M744.34,456.88c0.1,2.12,0.71,4.15,0.81,6.78C747.2,461.46,747.53,456.88,744.34,456.88z"/>
	<path d="M757.18,437.87c0.2,2.43,0.51,3.13,2.73,5.76C759.91,441.2,759.5,439.28,757.18,437.87z"/>
	<path d="M759.3,433.62c-0.51-1.42-0.7-2.43-1.21-3.24C756.56,428.01,754.16,433.62,759.3,433.62z"/>
	<path d="M703.58,547.89c-1.92,2.53-1.92,2.53-1.42,4.65C703.58,550.92,703.68,550.52,703.58,547.89z"/>
	<path d="M730.18,489.13c1.88-5.3-1.33-2.09-1.52,2.12C729.67,490.95,729.89,489.95,730.18,489.13z"/>
	<path d="M715.01,448.08c2.02-0.51,3.34-0.91,4.65-1.21C718.14,446.56,716.63,446.06,715.01,448.08z"/>
	<path d="M717.84,544.14c1.21-1.31,1.21-2.63,0.81-4.04C717.74,541.31,716.93,542.53,717.84,544.14z"/>
	<path d="M706.72,539.9c-1.21,1.82-1.21,1.82-1.01,3.44C706.92,541.41,706.92,541.41,706.72,539.9z"/>
	<path d="M747.57,419.87c-2.43-0.3-4.04-0.51-5.66,0C743.53,420.37,745.14,420.57,747.57,419.87z"/>
	<path d="M740.09,453.03c-1.38-0.55-2.37-1.02-2.73-0.3C737.36,453.53,738.51,454.33,740.09,453.03z"/>
	<path d="M708.34,537.37c0.51-0.4,0.51-0.81,0-1.42C708.04,537.15,708.11,537.14,708.34,537.37z"/>
	<path d="M732.71,446.26c0.7,0,0.51-0.33,0.51-0.51C732.22,445.75,732.6,446.26,732.71,446.26z"/>
	<path d="M739.79,419.16l-0.3-0.1C739.48,419.32,739.4,419.28,739.79,419.16z"/>
	<path d="M724.62,496.21v-0.2C724.49,496.27,724.49,496.21,724.62,496.21z"/>
	<path d="M652.42,303.27c1.31-1.31,2.22-2.83,2.43-5.16c-2.8,4.05-2.68,3.66-4.75,5.97C652.11,303.78,652.21,303.78,652.42,303.27z"
		/>
	<path d="M625.62,341.29c3.17,0.53,0.79-1,0.51-1.11c-0.2-0.1-0.61,0.2-0.91,0.3C625.31,340.79,625.42,341.29,625.62,341.29z"/>
	<path d="M631.89,328.55c-1.32-1.76-2.33-0.51-2.02-0.2C630.69,329.17,631.29,328.85,631.89,328.55z"/>
	<path d="M640.79,304.08c-1.04-1.55-0.69-0.82-1.72-0.3C640.35,305.06,640.09,304.55,640.79,304.08z"/>
	<path d="M637.25,302.97c-0.2-1.84-2.03-1.05-1.72-0.4C635.95,303.46,636.54,303.57,637.25,302.97z"/>
	<path d="M623.29,339.17c-1.63-1.23-0.91-0.76-1.62-0.4C622.86,339.95,622.65,339.81,623.29,339.17z"/>
	<path d="M636.03,328.15c-0.48-0.16-1.72-0.93-1.72,0C634.72,328.86,635.22,328.75,636.03,328.15z"/>
	<path d="M655.45,296.5c0.1-0.1,0.1-0.2,0.1-0.3C655.39,296.19,655.09,296.5,655.45,296.5z"/>
	<path d="M632.9,301.35c-0.1-0.2-0.2-0.4-0.3-0.61c-0.1,0.1-0.3,0.1-0.3,0.2C632.29,301.69,632.53,301.54,632.9,301.35z"/>
	<path d="M627.74,341.7c-0.36-0.72-0.3-0.21-0.3-0.1C627.54,341.6,627.64,341.7,627.74,341.7z"/>
	<path d="M627.74,399.34c2.02,0.2,2.02,0.2,3.13-0.71C629.66,398.43,628.55,397.92,627.74,399.34z"/>
	<path d="M635.12,400.85c-0.58-0.35-1.31,0.34-1.31,0.91C635.73,402.73,635.83,401.21,635.12,400.85z"/>
	<path d="M668.38,420.45c-0.71,0.49-1.23,1.2-1.38,2.09C667.96,422.22,668.34,421.43,668.38,420.45z"/>
	<path d="M667.01,422.55c-0.16,0.06-0.13,0.02-0.16,0.23C666.95,422.71,667.01,422.69,667.01,422.55z"/>
	<path d="M668.39,420.27c0,0.28-0.06,0.18,0.1,0.1C668.57,420.05,668.64,420.1,668.39,420.27z"/>
	<path d="M665.46,425.12c0-0.07,0.02-0.13,0.02-0.2C665.32,425.04,665.35,425.01,665.46,425.12z"/>
	<path d="M666.85,422.78c-0.86,0.48-1.3,1.19-1.37,2.14C666.27,424.38,666.78,423.73,666.85,422.78z"/>
	<path d="M650.42,423.09c0.19-0.43,0.4-0.9,0.58-1.3C650.44,422.1,650.45,422.61,650.42,423.09z"/>
	<path d="M650.29,423.4l0.1,0.1C650.45,423.12,650.45,422.88,650.29,423.4z"/>
	<path d="M669.37,419.4c0.17-0.46,0.37-0.87,0.55-1.26C669.39,418.41,669.32,418.86,669.37,419.4z"/>
	<path d="M669.37,419.4c-0.04,0.13-0.08,0.19-0.2,0.26C669.46,419.66,669.41,419.7,669.37,419.4z"/>
	<path d="M670.2,417.85c-0.22,0.11-0.17,0.07-0.27,0.28C670.18,418.01,670.07,418.11,670.2,417.85z"/>
	<path d="M670.68,416.74c-0.16,0.36-0.33,0.75-0.49,1.1C670.64,417.59,670.66,417.18,670.68,416.74z"/>
	<path d="M664.35,426.14c0.1-0.1,0.1-0.2,0.2-0.3C666.1,424.8,665.12,424.59,664.35,426.14z"/>
	<path d="M650.39,423.51l-0.2,0.1C650.52,423.5,650.57,423.51,650.39,423.51z"/>
	<path d="M636.64,420.37c0,0-0.1,0.1-0.1,0.2C636.78,420.33,636.77,420.37,636.64,420.37z"/>
	<path d="M636.84,420.27c-0.03,0.03-0.07,0.07-0.1,0.1C637,420.37,636.98,420.4,636.84,420.27z"/>
	<path d="M668.56,420.14c0.2-0.16,0.4-0.32,0.61-0.48C668.83,419.67,668.67,419.85,668.56,420.14z"/>
	<path d="M636.84,420.27c0.24,0.24,0.67-0.53,0.81-0.81C637.35,419.76,637.15,420.07,636.84,420.27z"/>
	<path d="M670.78,416.39c-0.1-0.1-0.07-0.13-0.1,0.35C671.07,415.95,670.8,416.29,670.78,416.39z"/>
	<path d="M663.74,472.35c0.28,1.93,1.54,2.77,2.22,2.63c3.14-0.63,1.8-12.79-0.4-17.19C663.97,454.6,660.62,459.53,663.74,472.35z
		 M665.97,472.55c-2.02-1.72-0.14-3.33-0.51-4.95C664.74,464.36,665.97,457.54,665.97,472.55z M664.35,460.21
		c0.98,0.98,1.01,1.02,0.92,2.67C664.21,462.2,663.47,461.49,664.35,460.21z"/>
<path fill="#e6e6e6" d="m206.8 163.6c0-5.1 4.1-9.2 9.3-9.2s9.2 4.2 9.2 9.2-4.1 9.2-9.3 9.2-9.2-4.1-9.2-9.2zm17.3-.1c0-4.5-3.5-8.2-8.2-8.2s-8.2 3.7-8.2 8.3c0 4.5 3.5 8.2 8.2 8.2s8.2-3.7 8.2-8.3zm-13 0c0-2.8 2.1-5.1 5.1-5.1 1.9 0 2.9.6 3.9 1.5l-1.4 1.7c-.8-.7-1.5-1.1-2.5-1.1-1.7 0-2.8 1.4-2.8 3.1s1.1 3 2.8 3c1.1 0 1.7-.5 2.5-1.1l1.4 1.4c-1.1 1.1-2.1 1.7-4 1.7-2.9 0-5-2.3-5-5.1z"/><path fill="#e6e6e6" d="m226.6 154.7h3.4l4.2 13.2 4.4-13.3h2.6l4.4 13.3 4.2-13.2h3.3l-6.2 18h-2.7l-4.4-12.8-4.4 12.8h-2.7z"/><path fill="#e6e6e6" d="m252.8 165.8c0-3.9 3.1-7 7.2-7 4.2 0 7.2 3.2 7.2 7s-3.1 7-7.3 7c-4 0-7.1-3.1-7.1-7zm11.3 0c0-2.3-1.7-4.3-4.2-4.3s-4.1 2-4.1 4.3 1.7 4.3 4.1 4.3c2.7.1 4.2-1.9 4.2-4.3z"/><path fill="#e6e6e6" d="m269.5 159.1h3.1v3c.8-2 2.4-3.4 4.8-3.3v3.2h-.2c-2.7 0-4.6 1.7-4.6 5.4v5.1h-3.1z"/><path fill="#e6e6e6" d="m279.1 153.9h3.1v11.1l5.6-6h3.8l-5.4 5.5 5.5 8h-3.5l-4.1-5.8-1.9 2v3.9h-3.1z"/><path fill="#e6e6e6" d="m291.7 165.8c0-3.9 3.1-7 7.2-7 4.2 0 7.2 3.2 7.2 7s-3.1 7-7.3 7c-4 0-7.1-3.1-7.1-7zm11.3 0c0-2.3-1.7-4.3-4.2-4.3s-4.1 2-4.1 4.3 1.7 4.3 4.1 4.3c2.6.1 4.2-1.9 4.2-4.3z"/><path fill="#e6e6e6" d="m308.2 167.6v-8.6h3.1v7.6c0 2.1 1.1 3.3 2.9 3.3s3-1.3 3-3.3v-7.6h3.1v13.4h-3.1v-2.1c-.8 1.3-2.1 2.3-4.2 2.3-3.1.2-4.8-1.8-4.8-5z"/><path fill="#e6e6e6" d="m323.9 168.8v-7.1h-1.7v-2.6h1.7v-3.7h3.1v3.7h3.6v2.6h-3.6v6.6c0 1.2.6 1.7 1.7 1.7.7 0 1.3-.2 1.9-.5v2.5c-.8.5-1.7.7-2.8.7-2.3 0-3.9-.9-3.9-3.9z"/><path fill="#e6e6e6" d="m333.2 154.7h3.2v15h9.4v2.9h-12.5v-17.9z"/><path fill="#e6e6e6" d="m356 172.5v-1.7c-.9 1.1-2.3 2-4.4 2-2.6 0-4.8-1.4-4.8-4.2 0-3 2.3-4.4 5.4-4.4 1.7 0 2.6.2 3.7.5v-.2c0-1.9-1.2-2.9-3.3-2.9-1.5 0-2.6.3-3.9.8l-.8-2.5c1.5-.7 2.9-1.1 5.1-1.1 4 0 5.9 2.1 5.9 5.7v8zm.1-5.6c-.8-.3-1.9-.5-3.1-.5-2 0-3.1.8-3.1 2.1s1.1 2 2.6 2c2 0 3.5-1.1 3.5-2.9z"/><path fill="#e6e6e6" d="m364.9 170.5v2.1h-3.1v-18.7h3.1v7.4c1-1.4 2.4-2.5 4.5-2.5 3.2 0 6.3 2.5 6.3 7s-3.1 7-6.3 7c-2.1 0-3.5-1.1-4.5-2.3zm7.7-4.7c0-2.6-1.7-4.3-3.9-4.3s-3.9 1.7-3.9 4.4c0 2.6 1.8 4.3 3.9 4.3s3.9-1.7 3.9-4.4z"/><path fill="#e6e6e6" d="m376.9 170.8 1.4-2.1c1.4 1.1 3 1.7 4.4 1.7s2.1-.5 2.1-1.5-1.3-1.4-2.8-1.8c-.1 0-.2-.1-.2-.1-2-.6-4.2-1.4-4.2-4s2.1-4.1 4.8-4.1c1.7 0 3.5.6 5 1.5l-1.2 2.2c-1.3-.8-2.6-1.3-3.8-1.3s-1.9.5-1.9 1.4 1.3 1.4 2.8 1.8c.1 0 .2.1.2.1 2 .6 4.2 1.5 4.2 4 0 2.9-2.2 4.2-5 4.2-1.9 0-4-.7-5.8-2z"/><path fill="#e6e6e6" d="m505.6 163.6c0-5.1 4.1-9.2 9.3-9.2s9.2 4.2 9.2 9.2-4.1 9.2-9.3 9.2-9.2-4.1-9.2-9.2zm17.4-.1c0-4.5-3.5-8.2-8.2-8.2s-8.2 3.7-8.2 8.3c0 4.5 3.5 8.2 8.2 8.2s8.2-3.7 8.2-8.3zm-13.1 0c0-2.8 2.1-5.1 5.1-5.1 1.9 0 2.9.6 3.9 1.5l-1.4 1.7c-.8-.7-1.5-1.1-2.5-1.1-1.7 0-2.8 1.4-2.8 3.1s1.1 3 2.8 3c1.1 0 1.7-.5 2.5-1.1l1.4 1.4c-1.1 1.1-2.1 1.7-4 1.7-2.9 0-5-2.3-5-5.1z"/><path fill="#e6e6e6" d="m525.4 154.7h3.4l4.2 13.2 4.4-13.3h2.6l4.4 13.3 4.2-13.2h3.3l-6.2 18h-2.7l-4.4-12.8-4.4 12.8h-2.7z"/><path fill="#e6e6e6" d="m551.7 165.8c0-3.9 3.1-7 7.2-7 4.2 0 7.2 3.2 7.2 7s-3.1 7-7.3 7c-4.1 0-7.1-3.1-7.1-7zm11.2 0c0-2.3-1.7-4.3-4.2-4.3s-4.1 2-4.1 4.3 1.7 4.3 4.1 4.3c2.7.1 4.2-1.9 4.2-4.3z"/><path fill="#e6e6e6" d="m568.3 159.1h3.1v3c.8-2 2.4-3.4 4.8-3.3v3.2h-.2c-2.7 0-4.6 1.7-4.6 5.4v5.1h-3.1z"/><path fill="#e6e6e6" d="m577.9 153.9h3.1v11.1l5.6-6h3.8l-5.4 5.5 5.5 8h-3.5l-4.1-5.8-1.9 2v3.9h-3.1z"/><path fill="#e6e6e6" d="m590.6 165.8c0-3.9 3.1-7 7.2-7 4.2 0 7.2 3.2 7.2 7s-3.1 7-7.3 7c-4.1 0-7.1-3.1-7.1-7zm11.2 0c0-2.3-1.7-4.3-4.2-4.3s-4.1 2-4.1 4.3 1.7 4.3 4.1 4.3c2.6.1 4.2-1.9 4.2-4.3z"/><path fill="#e6e6e6" d="m607 167.6v-8.6h3.1v7.6c0 2.1 1.1 3.3 2.9 3.3s3-1.3 3-3.3v-7.6h3.1v13.4h-3.1v-2.1c-.8 1.3-2.1 2.3-4.2 2.3-3 .2-4.8-1.8-4.8-5z"/><path fill="#e6e6e6" d="m622.7 168.8v-7.1h-1.7v-2.6h1.7v-3.7h3.1v3.7h3.6v2.6h-3.6v6.6c0 1.2.6 1.7 1.7 1.7.7 0 1.3-.2 1.9-.5v2.5c-.8.5-1.7.7-2.8.7-2.3 0-3.9-.9-3.9-3.9z"/><path fill="#e6e6e6" d="m632 154.7h3.2v15h9.4v2.9h-12.6z"/><path fill="#e6e6e6" d="m654.8 172.5v-1.7c-.9 1.1-2.3 2-4.4 2-2.6 0-4.8-1.4-4.8-4.2 0-3 2.3-4.4 5.4-4.4 1.7 0 2.6.2 3.7.5v-.2c0-1.9-1.2-2.9-3.3-2.9-1.5 0-2.6.3-3.9.8l-.8-2.5c1.5-.7 2.9-1.1 5.1-1.1 4 0 5.9 2.1 5.9 5.7v8zm.1-5.6c-.8-.3-1.9-.5-3.1-.5-2 0-3.1.8-3.1 2.1s1.1 2 2.6 2c2 0 3.5-1.1 3.5-2.9z"/><path fill="#e6e6e6" d="m663.7 170.5v2.1h-3.1v-18.7h3.1v7.4c1-1.4 2.4-2.5 4.5-2.5 3.2 0 6.3 2.5 6.3 7s-3.1 7-6.3 7c-2.1 0-3.5-1.1-4.5-2.3zm7.8-4.7c0-2.6-1.7-4.3-3.9-4.3-2.1 0-3.9 1.7-3.9 4.4 0 2.6 1.8 4.3 3.9 4.3s3.9-1.7 3.9-4.4z"/><path fill="#e6e6e6" d="m675.8 170.8 1.4-2.1c1.4 1.1 3 1.7 4.4 1.7s2.1-.5 2.1-1.5-1.3-1.4-2.8-1.8c-.1 0-.2-.1-.2-.1-2-.6-4.2-1.4-4.2-4s2.1-4.1 4.8-4.1c1.7 0 3.5.6 5 1.5l-1.2 2.2c-1.3-.8-2.6-1.3-3.8-1.3s-1.9.5-1.9 1.4 1.3 1.4 2.8 1.8c.1 0 .2.1.2.1 2 .6 4.2 1.5 4.2 4 0 2.9-2.2 4.2-5 4.2-2 0-4.1-.7-5.8-2z"/><path fill="#e6e6e6" d="m61 298.6c0-5.1 4.1-9.2 9.3-9.2s9.2 4.2 9.2 9.2-4.1 9.2-9.3 9.2c-5.1 0-9.2-4.2-9.2-9.2zm17.4-.1c0-4.5-3.5-8.2-8.2-8.2s-8.2 3.7-8.2 8.3c0 4.5 3.5 8.2 8.2 8.2s8.2-3.7 8.2-8.3zm-13.1-.1c0-2.8 2.1-5.1 5.1-5.1 1.9 0 2.9.6 3.9 1.5l-1.4 1.7c-.8-.7-1.5-1.1-2.5-1.1-1.7 0-2.8 1.4-2.8 3.1s1.1 3 2.8 3c1.1 0 1.7-.5 2.5-1.1l1.4 1.4c-1.1 1.1-2.1 1.7-4 1.7-2.8.1-5-2.2-5-5.1z"/><path fill="#e6e6e6" d="m80.9 289.7h3.4l4.2 13.2 4.4-13.3h2.6l4.4 13.3 4.2-13.2h3.3l-6.2 18h-2.7l-4.4-12.8-4.4 12.8h-2.7z"/><path fill="#e6e6e6" d="m107.1 300.8c0-3.9 3.1-7 7.2-7s7.2 3.2 7.2 7-3.1 7-7.3 7c-4 0-7.1-3.1-7.1-7zm11.3 0c0-2.3-1.7-4.3-4.2-4.3s-4.1 2-4.1 4.3 1.7 4.3 4.1 4.3c2.6.1 4.2-1.9 4.2-4.3z"/><path fill="#e6e6e6" d="m123.7 294h3.1v3c.8-2 2.4-3.4 4.8-3.3v3.2h-.2c-2.7 0-4.6 1.7-4.6 5.4v5.1h-3.1z"/><path fill="#e6e6e6" d="m133.4 288.9h3.1v11.1l5.6-6h3.8l-5.4 5.5 5.5 8h-3.5l-4.1-5.8-1.9 1.9v3.9h-3.1z"/><path fill="#e6e6e6" d="m146 300.8c0-3.9 3.1-7 7.2-7s7.2 3.2 7.2 7-3.1 7-7.3 7c-4.1 0-7.1-3.1-7.1-7zm11.2 0c0-2.3-1.7-4.3-4.2-4.3s-4.1 2-4.1 4.3 1.7 4.3 4.1 4.3c2.6.1 4.2-1.9 4.2-4.3z"/><path fill="#e6e6e6" d="m162.4 302.6v-8.6h3.1v7.6c0 2.1 1.1 3.3 2.9 3.3s3-1.3 3-3.3v-7.6h3.1v13.4h-3.1v-2.1c-.8 1.3-2.1 2.3-4.2 2.3-3 .2-4.8-1.8-4.8-5z"/><path fill="#e6e6e6" d="m178.1 303.8v-7.1h-1.7v-2.7h1.7v-3.7h3.1v3.7h3.6v2.6h-3.6v6.6c0 1.2.6 1.7 1.7 1.7.7 0 1.3-.2 1.9-.5v2.5c-.8.5-1.7.7-2.8.7-2.3.1-3.9-.9-3.9-3.8z"/><path fill="#e6e6e6" d="m187.4 289.7h3.2v15h9.4v2.9h-12.5v-17.9z"/><path fill="#e6e6e6" d="m210.2 307.5v-1.7c-.9 1.1-2.3 2-4.4 2-2.6 0-4.8-1.4-4.8-4.2 0-3 2.3-4.4 5.4-4.4 1.7 0 2.6.2 3.7.5v-.2c0-1.9-1.2-2.9-3.3-2.9-1.5 0-2.6.3-3.9.8l-.8-2.5c1.5-.7 2.9-1.1 5.1-1.1 4 0 5.9 2.1 5.9 5.7v8zm.1-5.6c-.8-.3-1.9-.5-3.1-.5-2 0-3.1.8-3.1 2.1s1.1 2 2.6 2c2 0 3.5-1.1 3.5-2.9z"/><path fill="#e6e6e6" d="m219.2 305.5v2.1h-3.1v-18.7h3.1v7.4c1-1.4 2.4-2.5 4.5-2.5 3.2 0 6.3 2.5 6.3 7s-3.1 7-6.3 7c-2.2 0-3.6-1.1-4.5-2.3zm7.7-4.7c0-2.6-1.7-4.3-3.9-4.3s-3.9 1.7-3.9 4.4c0 2.6 1.8 4.3 3.9 4.3s3.9-1.7 3.9-4.4z"/><path fill="#e6e6e6" d="m231.2 305.8 1.4-2.1c1.4 1.1 3 1.7 4.4 1.7s2.1-.5 2.1-1.5-1.3-1.4-2.8-1.8c-.1 0-.2-.1-.2-.1-2-.6-4.2-1.4-4.2-4s2.1-4.1 4.8-4.1c1.7 0 3.5.6 5 1.5l-1.2 2.2c-1.3-.8-2.6-1.3-3.8-1.3s-1.9.5-1.9 1.4 1.3 1.4 2.8 1.8c.1 0 .2.1.2.1 2 .6 4.2 1.5 4.2 4 0 2.9-2.2 4.2-5 4.2-2 0-4.1-.7-5.8-2z"/><path fill="#e6e6e6" d="m360.6 298.6c0-5.1 4.1-9.2 9.3-9.2s9.2 4.2 9.2 9.2-4.1 9.2-9.3 9.2-9.2-4.2-9.2-9.2zm17.4-.1c0-4.5-3.5-8.2-8.2-8.2s-8.2 3.7-8.2 8.3c0 4.5 3.5 8.2 8.2 8.2s8.2-3.7 8.2-8.3zm-13.1-.1c0-2.8 2.1-5.1 5.1-5.1 1.9 0 2.9.6 3.9 1.5l-1.4 1.7c-.8-.7-1.5-1.1-2.5-1.1-1.7 0-2.8 1.4-2.8 3.1s1.1 3 2.8 3c1.1 0 1.7-.5 2.5-1.1l1.4 1.4c-1.1 1.1-2.1 1.7-4 1.7-2.8.1-5-2.2-5-5.1z"/><path fill="#e6e6e6" d="m380.5 289.7h3.4l4.2 13.2 4.4-13.3h2.6l4.4 13.3 4.2-13.2h3.3l-6.2 18h-2.7l-4.4-12.8-4.4 12.8h-2.7z"/><path fill="#e6e6e6" d="m406.7 300.8c0-3.9 3.1-7 7.2-7 4.2 0 7.2 3.2 7.2 7s-3.1 7-7.3 7c-4.1 0-7.1-3.1-7.1-7zm11.3 0c0-2.3-1.7-4.3-4.2-4.3s-4.1 2-4.1 4.3 1.7 4.3 4.1 4.3c2.7.1 4.2-1.9 4.2-4.3z"/><path fill="#e6e6e6" d="m423.3 294h3.1v3c.8-2 2.4-3.4 4.8-3.3v3.2h-.2c-2.7 0-4.6 1.7-4.6 5.4v5.1h-3.1z"/><path fill="#e6e6e6" d="m433 288.9h3.1v11.1l5.6-6h3.8l-5.4 5.5 5.5 8h-3.5l-4.1-5.8-1.9 2v3.9h-3.1z"/><path fill="#e6e6e6" d="m445.6 300.8c0-3.9 3.1-7 7.2-7 4.2 0 7.2 3.2 7.2 7s-3.1 7-7.3 7c-4.1 0-7.1-3.1-7.1-7zm11.3 0c0-2.3-1.7-4.3-4.2-4.3s-4.1 2-4.1 4.3 1.7 4.3 4.1 4.3c2.6.1 4.2-1.9 4.2-4.3z"/><path fill="#e6e6e6" d="m462.1 302.6v-8.6h3.1v7.6c0 2.1 1.1 3.3 2.9 3.3s3-1.3 3-3.3v-7.6h3.1v13.4h-3.1v-2.1c-.8 1.3-2.1 2.3-4.2 2.3-3.1.2-4.8-1.8-4.8-5z"/><path fill="#e6e6e6" d="m477.8 303.8v-7.1h-1.8v-2.7h1.7v-3.7h3.1v3.7h3.6v2.6h-3.6v6.6c0 1.2.6 1.7 1.7 1.7.7 0 1.3-.2 1.9-.5v2.5c-.8.5-1.7.7-2.8.7-2.2.1-3.8-.9-3.8-3.8z"/><path fill="#e6e6e6" d="m487.1 289.7h3.2v15h9.4v2.9h-12.5v-17.9z"/><path fill="#e6e6e6" d="m509.9 307.5v-1.7c-.9 1.1-2.3 2-4.4 2-2.6 0-4.8-1.4-4.8-4.2 0-3 2.3-4.4 5.4-4.4 1.7 0 2.6.2 3.7.5v-.2c0-1.9-1.2-2.9-3.3-2.9-1.5 0-2.6.3-3.9.8l-.8-2.5c1.5-.7 2.9-1.1 5.1-1.1 4 0 5.9 2.1 5.9 5.7v8zm.1-5.6c-.8-.3-1.9-.5-3.1-.5-2 0-3.1.8-3.1 2.1s1.1 2 2.6 2c2 0 3.5-1.1 3.5-2.9z"/><path fill="#e6e6e6" d="m518.8 305.5v2.1h-3.1v-18.7h3.1v7.4c1-1.4 2.4-2.5 4.5-2.5 3.2 0 6.3 2.5 6.3 7s-3.1 7-6.3 7c-2.2 0-3.5-1.1-4.5-2.3zm7.7-4.7c0-2.6-1.7-4.3-3.9-4.3s-3.9 1.7-3.9 4.4c0 2.6 1.8 4.3 3.9 4.3s3.9-1.7 3.9-4.4z"/><path fill="#e6e6e6" d="m530.8 305.8 1.4-2.1c1.4 1.1 3 1.7 4.4 1.7s2.1-.5 2.1-1.5-1.3-1.4-2.8-1.8c-.1 0-.2-.1-.2-.1-2-.6-4.2-1.4-4.2-4s2.1-4.1 4.8-4.1c1.7 0 3.5.6 5 1.5l-1.2 2.2c-1.3-.8-2.6-1.3-3.8-1.3s-1.9.5-1.9 1.4 1.3 1.4 2.8 1.8c.1 0 .2.1.2.1 2 .6 4.2 1.5 4.2 4 0 2.9-2.2 4.2-5 4.2-1.9 0-4.1-.7-5.8-2z"/><path fill="#e6e6e6" d="m659.5 298.6c0-5.1 4.1-9.2 9.3-9.2s9.2 4.2 9.2 9.2-4.1 9.2-9.3 9.2-9.2-4.2-9.2-9.2zm17.3-.1c0-4.5-3.5-8.2-8.2-8.2s-8.2 3.7-8.2 8.3c0 4.5 3.5 8.2 8.2 8.2 4.8 0 8.2-3.7 8.2-8.3zm-13-.1c0-2.8 2.1-5.1 5.1-5.1 1.9 0 2.9.6 3.9 1.5l-1.4 1.7c-.8-.7-1.5-1.1-2.5-1.1-1.7 0-2.8 1.4-2.8 3.1s1.1 3 2.8 3c1.1 0 1.7-.5 2.5-1.1l1.4 1.4c-1.1 1.1-2.1 1.7-4 1.7-2.9.1-5-2.2-5-5.1z"/><path fill="#e6e6e6" d="m679.3 289.7h3.4l4.2 13.2 4.4-13.3h2.6l4.4 13.3 4.2-13.2h3.3l-6.2 18h-2.6l-4.4-12.8-4.4 12.8h-2.7z"/><path fill="#e6e6e6" d="m705.5 300.8c0-3.9 3.1-7 7.2-7 4.2 0 7.2 3.2 7.2 7s-3.1 7-7.3 7c-4 0-7.1-3.1-7.1-7zm11.3 0c0-2.3-1.7-4.3-4.2-4.3s-4.1 2-4.1 4.3 1.7 4.3 4.1 4.3c2.7.1 4.2-1.9 4.2-4.3z"/><path fill="#e6e6e6" d="m722.1 294h3.1v3c.8-2 2.4-3.4 4.8-3.3v3.2h-.2c-2.7 0-4.6 1.7-4.6 5.4v5.1h-3.1z"/><path fill="#e6e6e6" d="m731.8 288.9h3.1v11.1l5.6-6h3.8l-5.4 5.5 5.5 8h-3.5l-4.1-5.8-1.9 2v3.9h-3.1z"/><path fill="#e6e6e6" d="m744.4 300.8c0-3.9 3.1-7 7.2-7 4.2 0 7.2 3.2 7.2 7s-3.1 7-7.3 7c-4.1 0-7.1-3.1-7.1-7zm11.3 0c0-2.3-1.7-4.3-4.2-4.3s-4.1 2-4.1 4.3 1.7 4.3 4.1 4.3c2.6.1 4.2-1.9 4.2-4.3z"/><path fill="#e6e6e6" d="m760.9 302.6v-8.6h3.1v7.6c0 2.1 1.1 3.3 2.9 3.3s3-1.3 3-3.3v-7.6h3.1v13.4h-3.1v-2.1c-.8 1.3-2.1 2.3-4.2 2.3-3.1.2-4.8-1.8-4.8-5z"/><path fill="#e6e6e6" d="m776.6 303.8v-7.1h-1.7v-2.7h1.7v-3.7h3.1v3.7h3.6v2.6h-3.6v6.6c0 1.2.6 1.7 1.7 1.7.7 0 1.3-.2 1.9-.5v2.5c-.8.5-1.7.7-2.8.7-2.3.1-3.9-.9-3.9-3.8z"/><path fill="#e6e6e6" d="m785.9 289.7h3.2v15h9.4v2.9h-12.5v-17.9z"/><path fill="#e6e6e6" d="m808.7 307.5v-1.7c-.9 1.1-2.3 2-4.4 2-2.6 0-4.8-1.4-4.8-4.2 0-3 2.3-4.4 5.4-4.4 1.7 0 2.6.2 3.7.5v-.2c0-1.9-1.2-2.9-3.3-2.9-1.5 0-2.6.3-3.9.8l-.8-2.5c1.5-.7 2.9-1.1 5.1-1.1 4 0 5.9 2.1 5.9 5.7v8zm.1-5.6c-.8-.3-1.9-.5-3.1-.5-2 0-3.1.8-3.1 2.1s1.1 2 2.6 2c2 0 3.5-1.1 3.5-2.9z"/><path fill="#e6e6e6" d="m817.6 305.5v2.1h-3.1v-18.7h3.1v7.4c1-1.4 2.4-2.5 4.5-2.5 3.2 0 6.3 2.5 6.3 7s-3.1 7-6.3 7c-2.1 0-3.5-1.1-4.5-2.3zm7.7-4.7c0-2.6-1.7-4.3-3.9-4.3-2.1 0-3.9 1.7-3.9 4.4 0 2.6 1.8 4.3 3.9 4.3 2.2 0 3.9-1.7 3.9-4.4z"/><path fill="#e6e6e6" d="m829.6 305.8 1.4-2.1c1.4 1.1 3 1.7 4.4 1.7s2.1-.5 2.1-1.5-1.3-1.4-2.8-1.8c-.1 0-.2-.1-.2-.1-2-.6-4.2-1.4-4.2-4s2.1-4.1 4.8-4.1c1.7 0 3.5.6 5 1.5l-1.2 2.2c-1.3-.8-2.6-1.3-3.8-1.3s-1.9.5-1.9 1.4 1.3 1.4 2.8 1.8c.1 0 .2.1.2.1 2 .6 4.2 1.5 4.2 4 0 2.9-2.2 4.2-5 4.2-1.9 0-4-.7-5.8-2z"/><path fill="#e6e6e6" d="m206.3 434.2c0-5.1 4.1-9.2 9.3-9.2s9.2 4.2 9.2 9.2-4.1 9.2-9.3 9.2-9.2-4.1-9.2-9.2zm17.4-.1c0-4.5-3.5-8.2-8.2-8.2s-8.2 3.7-8.2 8.3c0 4.5 3.5 8.2 8.2 8.2s8.2-3.7 8.2-8.3zm-13.1-.1c0-2.8 2.1-5.1 5.1-5.1 1.9 0 2.9.6 3.9 1.5l-1.4 1.7c-.8-.7-1.5-1.1-2.5-1.1-1.7 0-2.8 1.4-2.8 3.1s1.1 3 2.8 3c1.1 0 1.7-.5 2.5-1.1l1.4 1.4c-1.1 1.1-2.1 1.7-4 1.7-2.9.1-5-2.2-5-5.1z"/><path fill="#e6e6e6" d="m226.1 425.3h3.4l4.2 13.2 4.4-13.3h2.6l4.4 13.3 4.2-13.2h3.3l-6.2 18h-2.7l-4.4-12.8-4.4 12.8h-2.7z"/><path fill="#e6e6e6" d="m252.4 436.4c0-3.9 3.1-7 7.2-7 4.2 0 7.2 3.2 7.2 7s-3.1 7-7.3 7c-4.1 0-7.1-3.1-7.1-7zm11.2 0c0-2.3-1.7-4.3-4.2-4.3s-4.1 2-4.1 4.3 1.7 4.3 4.1 4.3c2.7.1 4.2-1.9 4.2-4.3z"/><path fill="#e6e6e6" d="m269 429.7h3.1v3c.8-2 2.4-3.4 4.8-3.3v3.2h-.2c-2.7 0-4.6 1.7-4.6 5.4v5.1h-3.1z"/><path fill="#e6e6e6" d="m278.6 424.5h3.1v11.1l5.6-6h3.8l-5.4 5.5 5.5 8h-3.5l-4.1-5.8-1.9 2v3.9h-3.1z"/><path fill="#e6e6e6" d="m291.3 436.4c0-3.9 3.1-7 7.2-7 4.2 0 7.2 3.2 7.2 7s-3.1 7-7.3 7c-4.1 0-7.1-3.1-7.1-7zm11.2 0c0-2.3-1.7-4.3-4.2-4.3s-4.1 2-4.1 4.3 1.7 4.3 4.1 4.3c2.6.1 4.2-1.9 4.2-4.3z"/><path fill="#e6e6e6" d="m307.7 438.2v-8.6h3.1v7.6c0 2.1 1.1 3.3 2.9 3.3s3-1.3 3-3.3v-7.6h3.1v13.4h-3.1v-2.1c-.8 1.3-2.1 2.3-4.2 2.3-3 .2-4.8-1.8-4.8-5z"/><path fill="#e6e6e6" d="m323.4 439.4v-7.1h-1.7v-2.6h1.7v-3.7h3.1v3.7h3.6v2.6h-3.6v6.6c0 1.2.6 1.7 1.7 1.7.7 0 1.3-.2 1.9-.5v2.5c-.8.5-1.7.7-2.8.7-2.3 0-3.9-.9-3.9-3.9z"/><path fill="#e6e6e6" d="m332.7 425.3h3.2v15h9.4v2.9h-12.5v-17.9z"/><path fill="#e6e6e6" d="m355.5 443.1v-1.7c-.9 1.1-2.3 2-4.4 2-2.6 0-4.8-1.4-4.8-4.2 0-3 2.3-4.4 5.4-4.4 1.7 0 2.6.2 3.7.5v-.2c0-1.9-1.2-2.9-3.3-2.9-1.5 0-2.6.3-3.9.8l-.8-2.5c1.5-.7 2.9-1.1 5.1-1.1 4 0 5.9 2.1 5.9 5.7v8zm.1-5.6c-.8-.3-1.9-.5-3.1-.5-2 0-3.1.8-3.1 2.1s1.1 2 2.6 2c2 0 3.5-1.1 3.5-2.9z"/><path fill="#e6e6e6" d="m364.4 441.1v2.1h-3.1v-18.7h3.1v7.4c1-1.4 2.4-2.5 4.5-2.5 3.2 0 6.3 2.5 6.3 7s-3.1 7-6.3 7c-2.1 0-3.5-1.1-4.5-2.3zm7.7-4.7c0-2.6-1.7-4.3-3.9-4.3-2.1 0-3.9 1.7-3.9 4.4 0 2.6 1.8 4.3 3.9 4.3 2.2 0 3.9-1.7 3.9-4.4z"/><path fill="#e6e6e6" d="m376.5 441.4 1.4-2.1c1.4 1.1 3 1.7 4.4 1.7s2.1-.5 2.1-1.5-1.3-1.4-2.8-1.8c-.1 0-.2-.1-.2-.1-2-.6-4.2-1.4-4.2-4s2.1-4.1 4.8-4.1c1.7 0 3.5.6 5 1.5l-1.2 2.2c-1.3-.8-2.6-1.3-3.8-1.3s-1.9.5-1.9 1.4 1.3 1.4 2.8 1.8c.1 0 .2.1.2.1 2 .6 4.2 1.5 4.2 4 0 2.9-2.2 4.2-5 4.2-2 0-4.1-.7-5.8-2z"/><path fill="#e6e6e6" d="m505.1 434.2c0-5.1 4.1-9.2 9.3-9.2s9.2 4.2 9.2 9.2-4.1 9.2-9.3 9.2-9.2-4.1-9.2-9.2zm17.4-.1c0-4.5-3.5-8.2-8.2-8.2s-8.2 3.7-8.2 8.3c0 4.5 3.5 8.2 8.2 8.2s8.2-3.7 8.2-8.3zm-13.1-.1c0-2.8 2.1-5.1 5.1-5.1 1.9 0 2.9.6 3.9 1.5l-1.4 1.7c-.8-.7-1.5-1.1-2.5-1.1-1.7 0-2.8 1.4-2.8 3.1s1.1 3 2.8 3c1.1 0 1.7-.5 2.5-1.1l1.4 1.4c-1.1 1.1-2.1 1.7-4 1.7-2.9.1-5-2.2-5-5.1z"/><path fill="#e6e6e6" d="m525 425.3h3.4l4.2 13.2 4.4-13.3h2.6l4.4 13.3 4.2-13.2h3.3l-6.2 18h-2.7l-4.4-12.8-4.4 12.8h-2.7z"/><path fill="#e6e6e6" d="m551.2 436.4c0-3.9 3.1-7 7.2-7 4.2 0 7.2 3.2 7.2 7s-3.1 7-7.3 7c-4.1 0-7.1-3.1-7.1-7zm11.2 0c0-2.3-1.7-4.3-4.2-4.3s-4.1 2-4.1 4.3 1.7 4.3 4.1 4.3c2.7.1 4.2-1.9 4.2-4.3z"/><path fill="#e6e6e6" d="m567.8 429.7h3.1v3c.8-2 2.4-3.4 4.8-3.3v3.2h-.2c-2.7 0-4.6 1.7-4.6 5.4v5.1h-3.1z"/><path fill="#e6e6e6" d="m577.5 424.5h3.1v11.1l5.6-6h3.8l-5.4 5.5 5.5 8h-3.5l-4.1-5.8-1.9 2v3.9h-3.1z"/><path fill="#e6e6e6" d="m590.1 436.4c0-3.9 3.1-7 7.2-7 4.2 0 7.2 3.2 7.2 7s-3.1 7-7.3 7c-4.1 0-7.1-3.1-7.1-7zm11.2 0c0-2.3-1.7-4.3-4.2-4.3s-4.1 2-4.1 4.3 1.7 4.3 4.1 4.3c2.6.1 4.2-1.9 4.2-4.3z"/><path fill="#e6e6e6" d="m606.5 438.2v-8.6h3.1v7.6c0 2.1 1.1 3.3 2.9 3.3s3-1.3 3-3.3v-7.6h3.1v13.4h-3.1v-2.1c-.8 1.3-2.1 2.3-4.2 2.3-3 .2-4.8-1.8-4.8-5z"/><path fill="#e6e6e6" d="m622.2 439.4v-7.1h-1.7v-2.6h1.7v-3.7h3.1v3.7h3.6v2.6h-3.6v6.6c0 1.2.6 1.7 1.7 1.7.7 0 1.3-.2 1.9-.5v2.5c-.8.5-1.7.7-2.8.7-2.3 0-3.9-.9-3.9-3.9z"/><path fill="#e6e6e6" d="m631.5 425.3h3.2v15h9.4v2.9h-12.5v-17.9z"/><path fill="#e6e6e6" d="m654.3 443.1v-1.7c-.9 1.1-2.3 2-4.4 2-2.6 0-4.8-1.4-4.8-4.2 0-3 2.3-4.4 5.4-4.4 1.7 0 2.6.2 3.7.5v-.2c0-1.9-1.2-2.9-3.3-2.9-1.5 0-2.6.3-3.9.8l-.8-2.5c1.5-.7 2.9-1.1 5.1-1.1 4 0 5.9 2.1 5.9 5.7v8zm.1-5.6c-.8-.3-1.9-.5-3.1-.5-2 0-3.1.8-3.1 2.1s1.1 2 2.6 2c2 0 3.5-1.1 3.5-2.9z"/><path fill="#e6e6e6" d="m663.3 441.1v2.1h-3.1v-18.7h3.1v7.4c1-1.4 2.4-2.5 4.5-2.5 3.2 0 6.3 2.5 6.3 7s-3.1 7-6.3 7c-2.2 0-3.6-1.1-4.5-2.3zm7.7-4.7c0-2.6-1.7-4.3-3.9-4.3s-3.9 1.7-3.9 4.4c0 2.6 1.8 4.3 3.9 4.3s3.9-1.7 3.9-4.4z"/><path fill="#e6e6e6" d="m675.3 441.4 1.4-2.1c1.4 1.1 3 1.7 4.4 1.7s2.1-.5 2.1-1.5-1.3-1.4-2.8-1.8c-.1 0-.2-.1-.2-.1-2-.6-4.2-1.4-4.2-4s2.1-4.1 4.8-4.1c1.7 0 3.5.6 5 1.5l-1.2 2.2c-1.3-.8-2.6-1.3-3.8-1.3s-1.9.5-1.9 1.4 1.3 1.4 2.8 1.8c.1 0 .2.1.2.1 2 .6 4.2 1.5 4.2 4 0 2.9-2.2 4.2-5 4.2-2 0-4.1-.7-5.8-2z"/></g>
</svg>
