<?xml version="1.0" encoding="utf-8"?>
<!-- Generator: Adobe Illustrator 23.0.1, SVG Export Plug-In . SVG Version: 6.00 Build 0)  -->
<svg version="1.2" baseProfile="tiny" id="Layer_1" xmlns="http://www.w3.org/2000/svg" xmlns:xlink="http://www.w3.org/1999/xlink"
	 x="0px" y="0px" viewBox="0 0 900 600" xml:space="preserve">
<g>
	<path d="M425.36,347.67c7.2-4.42,15.67-6.27,22.54-12.13c-2.55-13.75,1.2-19.22-28.21-10.82c1.01-3.54,1-6.67,0.51-9.91
		c-0.74-4.86,2.55-8.99,2.93-21.03c0.15-4.55,3.54-7.48,5.46-11.32c1.42,1.42,1.42,2.73,1.82,3.94c8.38,25.13,32.24,21.49,40.74,8.8
		c25.33-37.81-7.45-80.4-31.34-54.29c-0.73,0.79-1.21,2.02-2.63,2.22c-4.06-48.72,12.98-63.97,3.54-82.49
		c-1.55-3.04,3.07-15.44,3.54-21.03c6.34-4.83,8.37,0.76,2.02-12.84c11.5-5.75,19.83-6.6,15.47-14.56
		c-1.89-3.45-2.73-7.58-6.47-9.71c1.01-1.62,1.72-2.73,2.43-3.94c5.67,2.13,8.08-4.23,12.64-0.81c1.82-0.4,2.02-2.02,3.44-2.22
		c1.01-0.4,1.72,1.21,2.83,0.61c1.62-0.61,3.03-1.82,4.75-2.22c4.35,2.05,6.26,4.08,8.39-0.71c3.79-8.52,4.76-11.26,7.99-10.92
		c4.65,0.49,6.22-2.57,9-6.27c3.24,1.31,7.58-0.61,9.1,3.64c2.02-0.2,2.73-1.21,2.73-2.93c1.72,1.42,2.53,3.44,5.05,2.83
		c-3.24-5.16-3.31-10.53-2.02-15.97c0.84-3.57-1.5-3.22-1.21-18.7c0.23-12.3-18.52-29.92-18.6-30.03c-1.42-0.4-2.53,0.51-3.74-0.2
		c0.91-1.01,2.22-1.62,1.92-3.34c-2.43-1.82-3.74,1.42-5.86,1.72c-0.3-1.62,1.62-3.54-0.51-5.05c-2.93,1.31-2.22,4.65-3.64,6.77
		c-2.02-1.42,0.61-4.45-2.33-5.46c-0.4,1.52-2.43,0.81-2.93,2.02c-0.1,1.31,1.21,1.92,1.01,3.13c-10.58-1.22-18.17,5.03-25.27,13.04
		c-16.42,18.51-18.33,14.31-19.81,18.2c-1.27,3.32-7.78,7.78-11.02,6.87c-3.64-1.02-7.28-0.3-10.72-1.11
		c-9.18-2.17-11.13,5.73-24.57,4.25c-9.29-1.02-13.07,1.54-14.05,1.21c-4.29-2.08-2.47,0.86-21.03,8.39
		c-8.24,3.35-24.93,18.11-31.14,21.74c-7.16,4.18-14.77,7.46-21.94,11.52c-4.96,2.82-9.9,5.36-15.97,5.26
		c-2.02-0.03-4.04,0.51-5.36-1.01c-21.79,1.41-6.27,0.09-27.3,3.44c-13.01,2.07-10.32,2.11-23.76,12.43
		c-20.6,15.82-21.36,27.95-25.88,35.79c-0.43,0.43,0.55,2.95,2.93-1.11c7.95-13.57,5.68-14.22,22.95-31.74
		c2.78-2.82,2.97-1.45,12.94-8.8c5.86-4.32,3.08-1.37,18.3-5.05c2.72-0.66,5.05-0.2,7.28,1.11c-0.4,1.62-1.12,2.72-2.63,3.13
		c-3.1,0.86-8.9,4.89-8.49,10.01c0.36,4.55-0.58,9.19,1.42,13.45c2.61,5.56-2.86,5.24,7.36,25.83c-1.2-0.39-1.47-2.07-3.52-2.07
		c-0.51,3.13,1.47,5.21,3.13,7.28c1.36,1.68,2.93,3.54,5.96,2.22c-1.86-2.24-4.36-3.66-4.97-6.4c1.88,1.82,3.41,4.37,6.59,3.67
		c0.81,1.82-0.81,3.54,0,5.16c1.78,3.57-4.74,9.87-8.39,13.45c-3.19,3.13-6.66-1.2-9.81-1.52c-3.19,1.06-1.9,5.55-3.03,6.67
		c-7.38,7.28-9.88,12.61-9.3,12.03c-0.74,2.23-8.15,3.95-7.18,9.81c0.52,2.08-1.97,2.72-4.75,6.57c-4.84,6.7-8.29,4.91-8.8,8.09
		c-0.75,4.7-7.06,6.77-10.41,9.71c-4.1,4.1-12.44-3.18-17.08-5.05c-6.88-2.78-15.65-10.15-15.06-11.32c0.61,0,1.11,0.81,1.82,0.2
		c0.4-0.71-0.51-0.91-0.51-1.52c0.4-1.11,1.92-1.52,2.02-3.03c-1.52,0.4-2.02,1.92-3.34,2.22c-7.34-5.93-10.69-12.15-12.94-21.33
		c-2.42,0.19-1.13,4.02-2.73,5.76c-3.83,4.19-6.6,15.08-7.89,17.79c-5.16-0.51-10.02-1.55-14.86-2.63
		c-2.13-0.48-3.74-1.01-3.84-3.54c-1.42,0.81-1.3,1.92-1.01,2.93c0.65,2.31,3.03,2.12,4.75,3.34c-23.04,12.85-2.33,10.68-30.13,9
		c-21.03-1.27-33.23,11.21-40.54,13.65c-26.81,8.94-27.31,4.34-33.66,7.38c0.1,2.12,1.42,2.23,2.53,2.02
		c4.66-0.88,9.5-0.51,14.15-1.62c24.56-5.85,29.34-12.55,41.35-16.58c16.98-5.69,31.12,1.03,48.53-1.11c3.24-0.4,6.27-1.92,9.5-1.52
		c6.02-7.29,3.39-8.45,12.64-27.4c3.74,8.69,9.59,15.18,14.96,21.94c5.64,7.09,14.86,8.8,21.94,13.85
		c-1.43,2.75-14.85,11.23-19.01,12.64c-1.42,0.48-3.03,0.2-4.35,1.01c-2.63,1.62-5.56,2.73-8.9,3.54c3.94,2.43,6.17-1.82,9.3-1.62
		c2.21,2.95-1.73,1.31-14.15,10.72c-6.16,4.66-13.04,3.74-19.81,0.4c1.72-2.02,4.54-0.72,6.17-3.03c2.21-3.14,2.93-4.25,2.22-6.17
		c-2.43,1.52-3.03,4.35-4.65,6.47c-4.15,0-6.19,0.21-7.18,2.63c-0.4,0.81-2.33,1.62-3.74,0.4c-0.71-0.61-1.52-0.51-2.33-0.4
		c-60.92,7.87-66.68-4.38-89.87,9.5c-3.03,1.82-8-0.1-7.68-3.34c0.19-1.92-0.51-3.34-0.91-4.95c2.83-0.4,5.56-0.91,8.59-2.93
		c-3.54,0-6.47-0.2-9.3,0.91c-1.82-5.86-1.82-11.63-0.2-17.29c-4.66-5.69-7.81-1.83-9.6-2.43c-4.25-1.42-8.7-0.09-12.94-1.01
		c-2.33-0.5-4.35-0.3-5.86,1.62c-2.73-0.4-5.16-1.52-8.09-0.71c-0.71,1.52-2.03,3.23-2.33,5.05c-1.24,7.58-2.62,15.16,0.1,22.75
		c7.36,20.49-14.2,37.86,23.05,51.25c1.68,0.61,13.67,1.34,22.14-0.3c3.56-0.69,4.13-4.78,2.83-7.78c-1.46-3.36-4.32-5.87-5.66-9.4
		c-0.69-1.83-3.44-1.62-5.56-2.63c2.43-1.92,2.83-4.55,3.03-6.07c15.86-21.05,5.75-30.19,53.18-26.18c0.2,2.38-5.01,7.46-3.64,16.68
		c2.13,14.33,7.96,9.97,9.3,13.65c-8.69,3.54-17.39,6.17-26.69,7.89c3.02,6.74,5.93,0.54,10.21,4.55
		c-1.72,3.44-0.91,7.28-1.31,11.02c-3.74,0.4-7.08-0.4-10.31-0.81c-0.51-3.94,2.12-7.38,1.52-11.63
		c-2.73,3.34-4.35,10.82-3.44,14.15c3.65-0.91,9.93,1.53,14.66,0.3c-2.73-4.95,1.82-9.71,0-14.46c-2.43-1.92-5.16-1.31-7.68-1.82
		c9.5-2.12,18.9-4.55,27.4-10.01c-0.81-0.81-1.21-1.21-1.62-1.62c2.75-2.87,6.17-14.73,12.23-28.21c4.26-1.72,21.09-2.95,22.65-3.03
		c-3.03,9.5-7.28,18.3-8.9,27.9c10.75-1.38,22.74-7.28,25.78-4.85c-18.97,6.32-4.21,2.43,6.07,0.1c-0.91,4.14,0.51,7.68-0.1,11.52
		c-24.67,8.39-50.75,12.84-75.42,22.95c0.71,0.61,1.01,1.11,1.21,1.01c25.37-8.29,51.56-14.25,77.03-23.25
		c-0.4-4.14-0.91-8.69-1.42-13.04c-17.33-3.98-24.92,4.28-30.63,2.93c2.02-9.1,6.17-17.29,8.29-26.18
		c5.26,0.61,10.22,0.78,15.06,2.12c12.43,3.46,14.32-4.56,27.3-9.4c4.26-1.59,7.78-4.55,10.72-7.89c8.12,3.25,24.76,1.38,31.54,3.44
		c4.65,1.41,8.89-0.01,12.33-2.73c4.74-3.75,9.5-7.48,13.45-12.23c2.53-0.2,5.15-0.19,7.68,0.1c94.63,10.84,53.6,1.71,87.95,7.58
		c5.57,6.97-11.07-2.54-23.15,14.96c-11.87,17.21-11.85,40.83-3.03,56.01c9.2,15.83,36.49,16.55,46.2-9.6c0.1-0.2-0.2-0.4-0.3-0.71
		c-0.32,0-0.66,0-1.02,0c-4.81,14.23-19.51,24.78-31.63,14.36c-9.7-8.34-17.62-34.77-1.92-59.24c6-9.36,15.39-10.88,17.19-10.21
		c3.03,5.36,6.67,20.93,5.76,25.07c-2.53,0.91-5.76,0.2-7.58,3.34c-2.62,4.52-3.23,12.56,5.66,14.66c0,3.34,2.67,5.49,4.25,8.19
		c1.56,2.66,4.85,4.14,8.39,3.54c-0.17,0.7,0.08-1,1.82-0.61c1.2,1.5,4.09,29.63,28.1,26.69c0.91,1.72,2.33,2.02,4.14,1.21
		c0.51-0.71-0.91-0.71-0.51-1.42c9.4-1.62,14.66-8.49,19.31-16.38c1.11,5.05,0.51,9.91,2.53,14.56c2.12-1.01,3.84-1.52,5.36-2.93
		c-5.09-0.8-4.85,4.62-4.85-3.74c7.68-1.42,14.96-5.56,23.05-3.13c0.71,4.14,1.31,7.89,1.92,11.63c-4.84,4.84-13.85,6.71-18.6,9.6
		c-19.42,11.82-34.88,11.45-42.26,16.18c-1.31-0.1-0.71-1.82-2.02-1.62c-0.61,0.91,0.2,1.82-0.1,2.83
		c-4.75,2.63-9.71,1.82-14.96,1.01c0.61-4.65-0.3-9,1.21-13.14c10.62-1.18,1.29-0.07,0.1-1.92c8.49-3.64,16.68-7.28,25.27-10.11
		c-9.81,1.21-18.3,6.27-27.7,8.69c-0.91,6.27,0.4,12.23-0.2,18.1c4.63,1.94,12.43,2.25,16.58-0.1
		C397.99,355.93,403.96,360.82,425.36,347.67z M519.99,60.46c0.91,0.3,0.51,0.81,0,1.92C519.99,61.27,519.99,60.87,519.99,60.46z
		 M151.19,229.19c-5.56,0.43-11.02,1.21-16.68,0.4c14.19-11.93,15.27-9.86,24.67-8.29C158.27,225.96,156.05,228.81,151.19,229.19z
		 M40.29,272.05c-4.85-2.83-12.13-2.63-12.43-10.82c7.32-8.09,1.96-8.29,9.71-11.32C37.36,257.8,35.44,265.28,40.29,272.05z
		 M47.07,282.87c-4.85-1.31-9.71-3.03-14.96-1.92c5.34,5.34,24.51,6.74-1.72,4.95c3.03,4.14,7.28,4.95,12.64,5.16
		c-4.45,3.84-9.71,0.71-14.05,3.03c3.23,2.93,6.87,2.53,10.41,2.53c-1.56,4.24-8.38,1.03-10.41,1.52c0.51,2.63,4.55,2.12,3.84,4.95
		c1.72,0.91,2.33-0.4,3.34-1.62c0.2,1.52-0.3,2.83,0.71,3.84c1.01,0.91,2.43,0.81,3.84,1.42c0.21,3.93,8.65,6.9,6.37,13.75
		c-19.35,3.46-28.89-1.96-36.5-7.38c-8.91-6.36-5.5-16.23-3.64-27.09c1.93-11.27-5.26-8.9-3.03-33.36
		c1.98-10.56,7.66-0.67,12.64-6.67c19.89,3.11,24.58-3,13.65,6.37c-0.4,2.02-1.23,4.13-2.73,6.07c-2.56,3.31-1.49,9.87,1.92,12.43
		c6.8,5.12,9.8,1.1,13.45,5.66C47.64,282.52,55.65,272.3,47.07,282.87z M103.38,299.45c-6.58-2.36-12.85-11.18-8.59-20.31
		c1.13-2.42,2.63-4.65,2.83-7.48c2.63,0,5.17-0.25,7.68,0.4c2.54,0.66,5.05-0.51,8.09-0.61
		C109.34,280.95,105.8,290.05,103.38,299.45z M185.57,254.77c0-0.91,0.51-1.21,1.31-1.21C186.78,254.36,186.27,254.57,185.57,254.77
		z M336.1,328.16c-28.54-3.17-28.06-67.08,3.74-74.1C316.96,267.35,312.5,313.24,336.1,328.16z M352.88,294.09
		c-1.82-0.1-3.34-0.2-4.75-0.3c-2.33-5.86,0.4-11.83,5.16-11.22C351.97,286.41,352.88,290.15,352.88,294.09z M423.64,287.83
		c-2.12-11.05-0.14-4.59,3.03-5.86C426.07,284.19,425.16,285.7,423.64,287.83z M421.12,270.03c1.11-1.11,2.22-1.42,3.94-0.81
		c1.82,3.24,0.4,7.38,2.73,10.61C422.33,280.75,423.44,276.13,421.12,270.03z M428.7,276.6c-0.4-1.21-0.91-2.33-0.2-3.74
		C429.2,274.18,428.7,275.39,428.7,276.6z M465.7,298.54c-27.18,20.38-41.75-43.51-14.05-60.56
		C477.3,222.19,490.55,279.9,465.7,298.54z M450.94,236.17c-19.31,13.04-21.84,52.67-2.53,66.01
		C422.48,300.24,426.55,239.65,450.94,236.17z M438.2,154.68c-1.8,3.6,2.72,4.59,2.43,22.65c-0.21,13.15-8.05,27.62-5.96,53.38
		c2.11,26.07-1.46,12-5.26,33.66c-2.33,0-2.73-2.73-5.05-2.83c-0.1,3.44,2.63,4.25,4.45,5.56c0.4,1.21,0.2,2.12-1.21,2.83
		c-1.11-3.34-3.54-4.14-6.77-2.83c-1.11-4.85-0.71-9.5-0.71-13.85c0.4-1.01,1.52-0.2,1.82-1.21c-1.01-6.17-0.61-12.54-0.81-18.9
		c-1.74-2.31-3.8,0.9-4.35-3.44c-0.47-8.76-3.59-26.36-6.57-34.57c-6.53-17.99-0.17-29.73,0.81-39.53
		c0.55-5.46,7.99-2.92,23.15-12.64c1.91-1.23,4.65,0,6.47-2.22C439.21,145.48,440.42,150.24,438.2,154.68z M418.79,269.73
		c-2.53-3.64-4.95-7.18-8.59-9.6c-1.62-6.87-0.3-13.85-1.82-20.52c-0.71,6.37-0.81,12.64,0.3,19.11
		c-5.86-1.21-10.82-3.54-16.38-2.43c1.42-1.11,2.93-1.82,4.65-1.82c0.1-6.27,1.21-12.33,0-18.3c7.08-2.02,14.36-1.11,21.74-1.31
		c-2.88,2.33-15.54,3.19-0.3,2.53C420.97,245.93,415.33,252.19,418.79,269.73z M385.73,254.36c3.31,0,2.72,1.37,2.33,3.74
		C382.26,261,386.02,259.25,385.73,254.36z M384.82,252.44c-4.73-7.43-17.01-7.19-13.85-16.68c6.4,0.1,20.02,4.32,20.02,1.11
		c-42.39-5.3-2-1.67,2.93-0.61c1.31,5.16-1.11,10.61,1.01,16.18C391.19,252.24,388.06,251.23,384.82,252.44z M374.81,259.92
		c-1.87-0.31-2.36-2.17-2.22-4.04c1.92,0.1,4.56,0.61,4.65-2.33c0.12-3.84-3.34-4.14-6.07-5.05c-0.2-1.42-0.4-2.73-0.61-4.14
		c3.15,2.84,13.79,8.45,10.61,12.94C379.17,260.13,377.54,260.83,374.81,259.92z M379.97,263.16c-5.13,5.77-4.17,5.98-5.96,0
		C376.13,264.17,377.64,263.66,379.97,263.16z M405.24,186.23c0.39,2.63,9.68,39.59,8.59,43.07c-2.14,0.54-8.57-3.02-19.11,4.55
		c-2.1,1.51-0.48-0.17-23.66-1.11c-1.35-26.92,2-25.88-3.13-48.53c-4.03-17.78,15.53-17.28,33.56-26.59
		c2.33-1.2,5.26-1.01,7.58-2.93C406.79,166.18,402.52,168,405.24,186.23z M414.14,232.22c-2.02,0-3.94,0-5.96,0
		C410.2,231.41,412.12,230.61,414.14,232.22z M404.94,231.01c-2.53,1.92-4.55,2.93-7.28,3.24
		C399.78,232.43,402.01,231.82,404.94,231.01z M448.41,135.07c-19.88,9.14-51.45,23.74-72.38,30.73c1.72-8.02,8.58-0.53,51.56-23.55
		c0.61-4.25-2.12-7.58-2.63-11.93c5.66-0.1,10.72-2.22,15.97-4.35C443.15,129.41,443.15,134.26,448.41,135.07z M421.01,131.43
		c1.92,3.23,1.01,7.68,4.95,9.71c-14.25,9.71-30.93,13.04-47.11,19.31c2.73-5.26,5.76-9.6,6.67-14.96
		c10.82-4.85,21.53-9.6,32.15-14.46C418.59,132.54,420,131.23,421.01,131.43z M417.78,131.03c1.11-1.42,2.53-2.43,4.35-2.63
		C421.01,129.81,419.4,130.52,417.78,131.03z M442.95,125.16c1.52,1.92,2.22,3.44,2.53,5.16
		C444.27,129.01,443.46,127.59,442.95,125.16z M460.95,115.56c-5.05,1.92-10.51,1.52-15.37,3.84c2.53,0.51,5.05-0.61,7.89,0
		c-2.22,1.92-5.05,2.63-7.78,4.25c-4.08-3.63-5.52,4.76-21.23,5.46c-0.3-0.71-0.71-1.42-1.01-2.02c0.91-1.82,3.44-2.02,3.74-4.45
		c-1.2,0.44-15.88,11.36-40.54,19.11c0-2.22,0-4.25,0-6.57c2.22-0.2,4.04-1.92,5.56-0.91c5.86-2.93,12.33-4.75,15.27-11.52
		c1.62,2.63,1.82,5.56,4.75,7.28c-0.91-3.24-3.03-5.36-2.93-8.59c7-7,3.62-13.07,22.75-16.68c15.24-2.88,15.17-1.04,19.71-2.33
		C457.31,105.35,457.71,111.31,460.95,115.56z M416.97,106.66c0.13,0.19-0.18,0,2.22,0c-1.42,2.23-1.69-0.56-3.64-0.1
		c0.51-1.01,0.91-2.02,1.52-3.23C418.33,105.04,416.52,106.44,416.97,106.66z M443.36,91.9c0.81-1.52,0.91-3.44,3.64-2.73
		C445.68,91.6,445.68,91.6,443.36,91.9z M454.58,96.25c1.16,4.65-0.91,3.55-11.52,4.35C454.09,83.03,446.71,90.88,454.58,96.25z
		 M444.16,94.03c0.11,1.72-0.54,1.29-3.03,6.77c-20.98,4.32-5.5,1.29-1.52-5.56C440.55,93.64,442.14,92.92,444.16,94.03z
		 M506.64,70.07c0.3,0.61,0.61,1.21,0.91,1.92C505.83,71.79,506.84,70.67,506.64,70.07z M508.46,33.07
		c-1.11,0.2-1.21-0.61-1.42-1.11c-2.71-2.26-0.57-2.91,0.4-0.3C507.35,31.69,507.28,31.58,508.46,33.07z M505.63,20.94
		c2.43,1.62,0.87,2.65,0.1,1.11C505.53,21.74,505.12,21.44,505.63,20.94z M503.91,35.39c1.21-0.1,1.21,0.91,1.92,1.82
		C503.61,37.52,503.61,36.61,503.91,35.39z M506.24,61.78c-0.61-1.21-1.11-2.12-0.71-3.74C506.64,59.55,506.64,60.46,506.24,61.78z
		 M506.74,70.07c-1.72,0.1-2.43-1.31-3.94-2.63C505.12,67.64,505.43,69.46,506.74,70.07z M501.99,49.55c0,0.25-0.1,0.36-0.1-2.73
		C502.16,46.82,502.34,46.4,501.99,49.55z M497.34,22.25c0.29-0.29,1.43,0.17,0.3,1.01C497.24,23.06,496.84,22.76,497.34,22.25z
		 M497.34,48.84c0.81,0.2,0.71,0.71,0.4,1.21C497.14,49.85,496.73,49.55,497.34,48.84z M495.93,56.93
		c-0.81-1.31-0.71-2.33-0.91-3.54C496.53,54.2,496.53,55.21,495.93,56.93z M493.6,58.64c0.3,1.42,0.61,2.53,0.91,3.64
		C493.2,61.47,492.89,60.36,493.6,58.64z M492.69,51.16c0.4,0.51,0.4,0.91,0.1,1.31C491.58,52.17,492.08,51.77,492.69,51.16z
		 M492.29,28.11c-0.2,0.81-0.61,0.91-1.31,0.51C491.27,28.01,491.58,27.51,492.29,28.11z M491.17,45.91c0.45,0,0.75,0.77-0.2,1.01
		C490.39,46.34,490.7,45.91,491.17,45.91z M478.94,21.14c-0.71,1.21-0.71,1.21-1.72,0C478.03,20.63,478.54,20.83,478.94,21.14z
		 M467.42,38.93c-0.81,1.01-1.31,1.21-2.02,1.01C465.8,39.44,466.3,39.13,467.42,38.93z M466.81,48.23
		c-0.91,3.44-1.01,3.54-5.76,3.34c0.2-1.31,1.21-2.73-0.61-3.64C461.15,45.99,462.19,47.92,466.81,48.23z M458.52,47.52
		c0.81,0.2,1.31,0.3,1.82,0.3c0.2,1.82-0.81,2.33-2.43,2.53C457.41,49.14,458.52,48.53,458.52,47.52z M437.8,51.47
		c2.12-1.63,4.35-3.24,7.28-2.73c0.1,1.11-1.31,1.01-1.31,1.42c-0.1,1.31,0.4,1.42,1.11,1.42c0.71,0.61-1.11,1.31,0.4,2.22
		c2.73-1.82,5.76-3.54,10.11-3.64c-2.02,3.74-1.82,7.28-0.1,10.82c1.31-0.71,2.73-1.21,3.84-2.22c-0.9-2.85-7.36,1.58-0.81-6.07
		c1.42,1.11,0.91,3.34,2.63,4.04c1.21-0.51,1.01-1.72,1.42-2.73c2.43-0.51,4.45-1.82,6.57-3.54c0-1.52,0.3-3.23-0.4-4.65
		c-1.01-1.31-2.63-0.71-3.54-1.82c1.72-0.51,3.13-0.1,4.55,1.11c0.51,2.12-0.08,4.34,0.61,6.47c0.94,2.93-3.71,4.72-6.77,9.1
		c0.3,1.21,1.82,1.31,1.82,2.73c3.74-0.71,6.77-3.02,10.61-3.34c3.54-0.29,7.18,1.31,10.31-0.2c4.14,0.51,5.26,5.86,9.91,4.95
		c1.72,4.75,6.87,5.76,9.91,9.4c-1.72,3.54-3.13,7.05-8.29,6.57c-4.79-0.44-6.94,8.46-9.5,13.45c-3.44,0.81-5.36-2.53-8.09-2.83
		c-0.2-1.42,1.11-1.62,1.11-2.22c-0.3-0.61-0.61-0.71-1.01-0.51c-2.73,1.01-1.31,2.63-0.61,4.14c-4.31,2.87-3.23,1.99-8.8-0.3
		c-0.91,1.62,1.52,1.62,1.11,2.83c-1.65,1.65-0.64-2.66-9.71,1.31c-2.74,1.2-7.69-1.72-9.6-5.36c-1.12-2.12-2.22-4.35-4.65-5.46
		c-2.33,1.31-4.68,2.41-6.27,4.85c-2.73,4.21-8.79,2.71-11.52,6.17c1.31,1.42,2.43-0.3,3.74,0.3c-7.65,6-15,3.95-11.32,7.68
		c-1.01,0.91-2.12,1.31-3.24,1.82c0.6-1.59,0.53-3.64,2.61-4.21c0.14-0.68,0.93-1.26,0.53-1.96c-0.91-0.91-1.72,0.51-2.63,0.2
		c-2.05-6.15,4.16-22.05-6.27-38.42C406.97,51.99,429.08,58.16,437.8,51.47z M271.39,106.26c3.13-1.52,6.47-0.91,9.91-1.11
		C277.97,108.58,275.74,108.89,271.39,106.26z M266.14,145.69c1.01,0.51,1.01,1.21,1.31,1.92
		C265.94,147.41,266.44,146.5,266.14,145.69z M259.47,185.72c2.33,0.71,4.14,1.92,6.77,2.02c-2.83,2.63-5.96,3.44-9.1,4.55
		C259.57,190.67,258.96,188.04,259.47,185.72z M245.72,206.14c7.82-5.82,1.81-8.1,9.1-10.92c104.49-40.35,82.99-38.42,78.65-18.7
		c-42.78,16.9-44.83,17.72-52.77,22.34c-0.49,0.29-34.21,13.63-40.74,15.77C239.75,210.39,242.88,208.25,245.72,206.14z
		 M309.3,206.34c10,7.26,26.93,14.16,28.51,18.6c-11.83-8.19-25.27-13.65-37-21.94c1.79,4.86,25.53,16.28,38.42,25.78
		c1.04,0.77,0.67,1.34,5.05,12.74c-3.61,0-8.54-5.95-19.71-10.61c-10.21-4.26-4.83-5.6-27.8-14.76c-4.64-1.85-9.1-4.04-13.85-6.77
		c5.91-2.83,22.34-9.78,22.44-9.81c15.44,11.62,31.11,12.45,30.63,20.52c-10.61-5.96-21.53-11.12-31.04-18.4
		C303.84,200.57,299.79,199.44,309.3,206.34z M280.19,210.49c-2.22,5.16-6.27,8.09-9,12.13c1.72,1.31,2.53,0.1,3.24-0.81
		c2.93-3.34,6.07-6.67,8.09-11.22c25.58,15.41,23.83,8.47,29.12,15.27C217.51,221.08,254.87,225.35,280.19,210.49z M311.53,229.19
		c-8.8-0.61-17.79-0.61-26.59-2.22C293.84,227.37,302.73,227.57,311.53,229.19z M272.51,226.56c0-0.29-1.01-0.2,9-0.2
		C281.5,226.65,282.48,226.56,272.51,226.56z M306.47,199.17c8.83-4.67,0.88-0.47,22.14,7.89c1.82,0.71,3.45,2,5.05,3.03
		c1.22,0.79,1.31,2.02,1.31,4.04C325.68,208.67,315.67,205.23,306.47,199.17z M334.07,208.16c-7.08-4.55-14.66-6.77-21.03-11.73
		c1.64-1.39,11.54-4.85,16.28-8.29C336.08,183.25,331.37,191.48,334.07,208.16z M244.2,215.24c31.15-11.35,56.53-23.53,64.4-26.49
		c28.69-10.8,24.05-14.46,25.17-4.35c-8.59,4.86-92.72,44.52-101.2,39.22C234.6,218.37,239.54,216.94,244.2,215.24z M227.22,230.3
		c0.1,2.22,0.2,4.04,0.3,6.07c-2.43,0.2-4.65,0.1-7.08-0.71C222.67,233.84,224.69,232.22,227.22,230.3z M245.31,243.55
		c-7.63,6.32-13.01,12.66-22.04,9.71c-8.43-2.76-8.8,0.42-28-2.22c17.17-11.84,14.86-12.43,18.7-12.23
		c1.62,0.08,2.63-1.31,4.04-1.92c0.81,3.44,0.1,7.28,3.44,9.91c-0.4-2.33-0.81-4.65-1.21-7.08c9.3,0.51,18.5-1.01,27.8,0.91
		C247.54,241.93,246.42,242.63,245.31,243.55z M345.4,246.07c-12.28-1.64-12.2-2.7-33.46-1.42c-4.94,0.3-26.68-3.67-78.04-7.58
		c-4.79,0-0.57-8.36-5.66-10.21c2.43,0.1,4.34-2.12,6.98-0.61c1.02,0.59,10.51-4.22,24.97-1.21c-6.37,1.21-13.04,1.11-19.61,1.42
		c7.48,2.12,14.96,0.01,22.34,0.51c43.31,2.9,42.78,4.17,50.35,3.84c13.6-0.59,24.51,11.93,31.54,13.55
		C345.5,244.46,345.5,245.16,345.4,246.07z M359.85,301.17c0,2.63,2.22,2.43,3.74,3.13c0.3,0.81,0.51,1.62,0.81,2.43
		c-1.11,0.81-3.13,0-5.96-2.22c-0.4-0.71,1.11-0.91,0.4-1.72c-4.14-2.53-4.24-2.54-3.34-7.58c0.09-0.51,0.22-0.91,0.1-1.42
		c-1.18-5.19,0.81-10.11,1.21-15.06c0.83-5.8-14.99-55.71-18.2-59.04c-0.6-0.62-0.81-1.52-0.91-2.22c0-6.87-1.97-13.55-2.02-20.42
		c-0.03-3.43,0.89,1.36,2.73,2.43c-1.52-4.35-0.2-8.59-3.03-12.13c1.01-1.42,1.42-2.73,0.3-4.65c-1.8-3.09,5.16-11.41,5.26-25.17
		c0.08-12.21-5.31-22.1-1.11-32.96c10.07-26.04,10.15-25.77,9.1-27.7c0.4-10.41,7.28-17.59,11.83-25.88c4.35,0,8.18-1.44,11.93-2.83
		c18-6.7,31.64,5.25,30.43,7.18c0.22,0.31,13.16,9.81,5.96,25.98c-0.92,2.06-2.16,8.14-5.76,10.72c-1.12,0.8-2.02,2.22-2.53,3.54
		c0,1.01,1.31,0.71,1.31,1.42c-0.81,2.63-3.74,3.74-4.75,6.87c3.44-1.21,5.57-3.33,7.08-5.86c30.3-51.17-27.71-69.47-48.83-43.07
		c-3.74,4.68-5.69,4.09-13.95,13.04c-4.92,5.33-10.06,22.08-4.65,31.24c2.32,3.92-1.84,3.09-11.63,3.84
		c3.44,2.12,7.08,2.83,10.92,3.03c-1.82,11.75,2.59,33.63,2.63,33.77c-28.91,13.51-51.69,15.53-55.1,21.53c0,0.1-0.2,0.2-0.3,0.2
		c-4.55,1.72-9,3.44-13.85,5.26c0.61-1.52,1.52-2.01,2.53-2.43c3.26-1.36,5.15-4.25,6.77-7.18c3.24-5.85-3.31-8.67,2.53-12.13
		c2.85,1.66,9.97-3.3,18.4-4.25c1.92-0.22,3.64-0.81,4.25-2.73c17.08-1.42,30.33-4.85,32.45-8.29c-0.48-0.96,1.73-0.46-22.14,4.25
		c-4.55,0.9-8.7,3.21-13.24,4.04c-5.87,1.08-11.74,2.7-17.39,4.55c-9.97,3.26-20.47-31.06-16.98-42.86
		c1.71-5.79,5.09-3.94,14.46-10.51c2.14-1.5,4.45-2.61,7.18-2.22c1.51,0.21,2.63-0.91,3.84-1.11c0.91,0,0.3,1.01,0.81,1.31
		c4.45-0.1,7.58-3.94,12.03-4.14c0.4,0.81-0.91,0.91-0.71,1.62c0.91,0.51,1.52-0.2,2.02-0.71c15.38-12.75,31.42-17.19,35.89-23.55
		c2.89-4.12,20.92-14.86,24.97-16.58c22.39-9.48,32.02-1.81,41.55-7.38c0.51-0.3,1.01-0.51,1.82,0
		c-3.56,10.43,14.31,9.98,3.13,50.95c0.71,0.36,1.31,0.05,1.61-0.19c-3.65,10.16-9.67,18.19-20.21,22.03
		c-9,3.28-9.22,6.01-8.69-2.33c-1.52-0.3-1.72,0.61-1.72,1.82c0,13.64-9.15,36.62-17.99,43.87c-2.45,2-2.02,10.92-1.21,13.85
		c2.18,7.87,1.62,15.96,2.43,23.96c0.23,2.32-1.29,4.45-1.11,6.87c1.21,16.42,0.87,40.37,7.48,52.97
		c-5.86,11.42-6.17,12.64-7.89,31.74C364.3,302.69,362.28,300.77,359.85,301.17z M339.03,101.1c4.08-8.33,1.98-7.54,9-14.56
		c2.43,5.46-2.11,9.61-2.83,14.56c-0.69,4.75-4.04,9.3-6.07,14.56C337.11,110.4,336.7,105.86,339.03,101.1z M366.42,305.42
		c-0.71-0.4-1.21-0.81-0.51-1.62C367.03,304.2,366.73,304.81,366.42,305.42z M392.4,259.01c-21.94,10.75-27.15,59.18-4.14,73.6
		C362.86,333.32,358.99,265.94,392.4,259.01z M416.16,317.24c-7.69,15.56-22.99,21.27-33.26,8.39c-9.25-11.6-11.8-35.93-0.51-54.49
		C402.98,237.31,435.28,278.56,416.16,317.24z"/>
	<path d="M624.95,452.2c1.05,0.02,2.1,0,3.13-0.13C627.04,452.11,625.99,452.15,624.95,452.2z"/>
	<path d="M751.69,418.91c-0.07,0.07-0.15,0.13-0.22,0.2c0.1-0.07,0.17-0.12,0.22-0.17C751.68,418.93,751.69,418.93,751.69,418.91z"
		/>
	<path d="M753.41,417.12c-0.75,0.47-1.76,0.7-1.73,1.79C752.27,418.38,752.85,417.78,753.41,417.12z"/>
	<path d="M897.78,286.21c-1.16-4.06-1.01-8.29-1.11-12.43c-0.38-15-9.05-19.43-9.6-21.63c-0.73-4.03-5.95-6.66-9-10.72
		c-6.94,0-1.3-0.33-1.82-3.44c-2.53-1.92-3.94,1.42-6.07,1.82c-0.1-1.72,1.82-3.74-0.51-5.36c-2.53,1.62-2.22,4.65-3.44,6.98
		c-1.82-1.62,0.4-4.35-2.02-5.46c-1.11,0.61-2.22,1.21-3.34,1.82c-0.2,1.21,1.21,1.92,0.81,3.03c-4.46,0.34-10.36-2.66-24.97,13.24
		c-17.96,19.54-19.96,14.91-21.23,21.94c-2.09-4.34-4.66-4.29-15.37-8.49c-8.3-3.26-13.55,1.05-15.16,0.61
		c-3.62-0.99-7.47-0.55-11.02-1.82c-8.24-2.95-17.77,4.74-25.27,4.85c-8.59,0.13-11.39,5.97-16.98,3.54
		c-11.8-5.12-24.17-5.18-36.29-2.63c-54.94,11.56-46.3,10.68-40.34,38.52c3.17,14.81,3.64,9.14,7.44,21.28
		c1.35,3.55,1.26,4.07,1.25,4.1c0,0,0-0.01,0.01-0.01c3.13,7.78,9.3,13.85,12.03,22.04c-12.02,4.62-16.94,12.56-19.81,25.17
		c-2.63-3.54-1.72-7.18-2.12-10.61c-2.02-0.1-2.62,1.31-2.12,2.63c0.72,1.92,0.2,3.84,0.4,5.66c0.2,1.72,1.31,3.34,2.33,5.66
		c-10.72-8.52-13.91-33.97-11.83-40.84c1.59-5.23,4.02-3.66,19.31-13.62c-0.59-0.69-0.63-1.9-1.82-2.36
		c-3.34,0.71-7.08-0.23-10.72,0.61c-19.41,4.48-24.18,1.83-33.87,11.42c-4.58,4.53-5.77,2.13-20.32,18.9
		c-5.26,6.06-7.36,13.86-10.82,20.83c-0.2,0.4,0,0.81,0.51,1.11c2.1,0,4.04-5.66,4.65-6.87c5.33-10.49,16.96-25.95,25.78-30.63
		c6.9-3.67,8.96-7.43,13.04-7.89c13.84-1.56,15.12-4.39,20.32-1.31c-1.33,4.27-4.85,3.13-8.29,6.57c-7,7-0.08,19.79-0.4,30.33
		c-0.16,5.34,5.26,10.8,5.26,14.55c2.29,2.05,5.35,7.69,8.29,4.96c0.71,2.02-0.83,3.85-0.1,5.56c0.99,2.33-0.12,4.03-1.42,5.66
		c-8.76,11.05-9.57,9.68-13.55,7.78c-4.16-1.98-5.02-1.51-5.76,3.13c-0.54,3.41-5.53,5.78-7.89,10.72c-1.5,3.14-3.63,5.16-6.17,7.08
		c-5.82,4.39-0.77,5.89-4.75,9.5c-4.08,3.71-4.65,7.21-9.2,8.9c-4.7,1.74-0.51,3.38-6.67,7.89c-2.74,2.01-5.96,3.64-8.8,6.47
		c-10.51-4.85-21.53-8.9-29.72-17.79c0.51-0.91,1.31,0.4,1.82-0.51c0.2-0.61-1.21-1.42,0.1-2.22c0.71-0.51,1.42-1.11,1.52-2.22
		c-1.52,0.4-2.02,2.22-3.54,2.22c-5.33-3.64-10.44-10.61-12.9-21.48c-2.76,1.8-0.32,2.92-2.26,5.41c-5.39,6.91-6.36,15.6-8.19,17.89
		c-4.95-0.51-9.91-1.71-14.76-2.63c-2.12-0.4-3.54-1.31-3.74-3.94c-1.82,3.74-1.42,4.25,3.94,6.57c-5.26,2.73-9.81,6.37-14.15,10.41
		c-1.91-0.73-28.98-5.85-47.62,7.28c-14.64,10.31-37.86,11.04-40.74,11.63c-3.26,0.66-1.66,3.03,0.51,2.53
		c6.85-1.58,19.11,1.17,47.82-14.76c21.55-11.96,37.65-1.12,58.84-4.95c2.22-0.4,4.25-1.72,6.67-1.01c6.1-7.2,3.13-7.83,12.84-27.7
		c1.82,5.05,4.02,8.92,7.18,12.13c3.42,3.48,5.81,12.05,18.5,17.99c3.85,1.8,7.68,3.54,11.52,6.37
		c-21.8,15.37-10.58,7.78-32.05,16.98c3.7,2.77,8.28-4.47,9.3-0.4c-0.93,1.49-8.95,4.62-11.93,7.28
		c-9.81,8.75-16.62,4.68-22.75,2.93c1.11-1.92,2.93-1.62,4.65-1.72c1.92-2.22,4.35-4.14,4.55-8.19c-3.13,2.02-3.74,5.05-5.26,6.87
		c-2.73,0.71-5.96-0.81-7.38,2.83c-0.3,0.61-2.31,1.3-3.44,0.4c-3.73-2.98,1.2,3.39-64.19,1.72c-10.21-0.26-19.61,1.73-28.31,7.08
		c-3.13,1.92-7.92-0.1-7.68-3.44c0.14-1.92-0.61-3.34-0.91-5.05c3.03-0.3,5.86-0.91,8.19-2.83c-2.93,0.4-5.96-0.3-8.9,0.81
		c-1.82-5.96-1.72-11.63-0.2-17.39c-4.66-5.55-7.19-1.56-10.01-2.22c-14-3.31-19.01,1.44-25.68-0.4c-0.84-0.42-3.06,4.24-3.23,5.46
		c-4.15,29.5,3.93,10.34,0.61,50.04c-2.37,28.33,55.1,29.94,48.12,17.39c-2.99-5.38-4.45-11.93-11.63-13.95
		c2.53-1.92,2.83-4.75,3.64-7.28c12.89-16.84,8.15-21.98,24.16-25.07c9.5-1.84,18.9,0.61,28.51,0c-0.51,2.22-1.5,3.85-2.22,5.56
		c-3.78,8.93-0.55,21.24,3.74,22.34c1.71,0.44,2.83,1.52,4.35,2.63c-26.7,9.29-22.39,5.52-26.79,8.49c1.52,2.53,3.24,3.44,5.76,2.53
		c1.42-0.61,2.63,0.3,4.14,0.91c-1.31,3.74-1.01,7.68-1.21,11.93c-3.74-0.4-7.08-0.71-10.41-1.11c-0.3-4.04,2.22-7.48,1.11-11.22
		c-1.82,4.45-3.84,8.8-3.23,13.75c5.16-0.61,9.81,1.42,15.06,0.51c-0.14-0.25-0.24-0.49-0.34-0.74c0.19,0.15,0.69,0.23,1.56,0.23
		c25.48-7.99,51.56-14.15,77.14-23.05c-0.4-4.14-0.91-8.59-1.31-12.94c-10.82-4.35-20.42,1.31-30.83,3.34
		c2.12-9.4,6.27-17.59,8.39-26.69c4.45,0.51,8.79,0.31,13.14,1.62c5.05,1.52,10.71,1.91,15.16-1.31c5.75-4.16,12.18-6.87,18.4-10.11
		c3.54-1.84,2.91-2.98,4.35-2.02c0.12,0.08,13.85,2.4,33.26,1.31c1.42-0.08,2.22,0.3,2.73,1.42c3.24-0.61,5.06-3.43,7.99-3.84
		c5.53-0.78,14.2-8.85,17.99-12.64c2.68-2.68,4.25-0.69,15.47,0.2c0.1,0.01,30.02,3.29,31.84,3.64c14.59,2.76,23.82-2,41.65,1.92
		c3.21,0.71,3.34,0.04,2.22-1.82c-6.69-4.4,15.58,10.51,31.04,16.78c4.24,1.72,9.75-1.62,10.72-8.59c7.33,1.47,2.25,1.07,3.64,3.84
		c2.53-1.42,4.25-4.25,7.28-4.04c0.3-6.37,1.01-12.33,0.1-18.3c7.18-1.92,14.36-0.91,21.63-0.91c-2.33,1.42-5.16,1.11-7.68,2.53
		c11.04,0,6.47-1.04,8.09,5.26c0.29,1.13-3,13.81-0.4,26.08c1.63,7.73-1.16,7.12,0.61,27.5c1.14,13.19-3.45,34.74,1.52,36.09
		c11.32-5.33,1.01-1.76,0-1.82c0-1.52,0-3.03,0-4.65c7.68-1.42,14.96-5.46,23.05-3.13c0.61,3.94,1.31,7.68,1.92,11.52
		c-4.68,5.01-13.69,6.62-18.5,9.6C783.71,582.66,768,582,760.59,587.06c-0.15-0.11-1.92-3.88-1.92-0.61c0.1,0.51,0.51,1.11-0.1,1.72
		c-4.75,2.43-9.6,2.02-14.66,0.71c0.51-4.55-0.3-8.9,1.11-13.04c1.82,0.1,3.44-0.3,5.66-0.91c-2.12-0.3-3.64,0.1-5.16-0.81
		c8.09-3.94,16.28-7.48,24.77-10.51c-3.13,1.01-6.46,0.83-9.4,2.12c-22.96,10.13-18.5,0.22-18.5,25.37
		c5.96,0.4,11.33,2.23,16.88-0.91c12.65-7.16,26.24-4.99,64.8-28.21c-2.26-13.94,0.96-19.8-27.9-11.22
		c1.44-7.82,0.83-85.49-0.61-92.2c-34.58,2.03-11.71,4.54-47.72-0.2c-3.92,0-42.28-26.58-45.8-28.31c7.22-7.96,9.83-17.42,9.1-23.55
		c4.39,8.51,4.53,9.14,9.5,14.86c11.11,12.79,39.6,10.25,43.47-21.63c0.42-3.44,0.3-6.98,0.4-10.31c3.64-1.11,6.37-3.13,9.71-3.84
		c1.3,1.04,4.38,9.11,12.03,14.36c11.75,8.06,28.63,1.41,33.26-12.74c3.49-10.67,2.11-16.04,1.82-22.04
		c1.52-1.62,3.84-1.52,4.95-3.44c-1.31-2.93-2.73-5.96-4.04-9c9.87-5.68,20.21-5.78,15.47-14.46c-1.93-3.53-2.93-7.58-6.47-9.91
		c0.81-1.52,1.52-2.63,2.33-3.94c4.77,2.28,7.78-2.89,10.31-1.52c2.94,1.6,4.45,0,6.07-2.22c-8.16-4.08-2.32-0.41-2.63,1.01
		c-0.3,0.2-0.81,0.51-0.91,0.4c-5.46-3.32-8.79,3.27-12.23,0.81c-2.49-1.78-5.54-2.94-6.67-6.27c-0.69-2.03-2.12-3.44-4.14-4.45
		c-8.53,4.8-3.87,5.81-14.56,9.1c-1.22,0.38-2.83,0.51-3.03,2.22c1.11,1.21,2.22-0.81,3.24,0.3c-3.34,2.93-7.89,3.34-11.12,5.16
		c-1.32,2.26,2.94,1.06-3.03,4.04c0.4-2.63,2.33-4.04,3.23-6.37c-1.82,2.12-4.14,1.82-6.27,1.72c-0.81,0.61-0.81,1.72-1.92,2.02
		c-5.39-15.38,0.72-27.28-8.59-40.44c-2.42-3.41-6.35-9.07-3.74-12.33c9.81-2.33,19.61-3.54,29.62-2.02
		c-5.66-3.84-12.23-2.63-18.6-3.34c-0.51-0.91-1.62-1.52-2.53-2.12c10.11-4.14,18.2,1.62,27.09,5.16c-1.62,1.52-3.64,2.12-3.03,4.55
		c3.54-1.42,5.86-5.26,10.82-4.35c-3.54,1.72,0.3,3.03-0.61,4.75c3.24-2.02,6.37-3.64,10.11-3.54c0.51,1.72-1.01,2.63-1.21,4.35
		c0.81,1.72,0.2,4.25,1.82,6.37c1.01-1.21,3.03-1.01,3.54-2.63c-1.05-1.57-7.14,0.67-0.71-5.76c1.52,0.91,0.61,3.44,2.63,3.84
		c1.31-0.4,0.51-2.22,1.92-2.93c2.33-0.3,4.04-2.02,5.96-3.34c-0.45-6.76,0.33-4.31-4.55-6.37c8.17,0,4.13,2.6,5.76,7.68
		c0.7,2.18-1.38,3.51-7.18,9c1.11,1.11,2.12,1.62,2.33,3.44c6.77-4.85,14.15-3.84,22.75-3.84c2.43,0.4,3.54,5.66,8.09,4.75
		c1.82,4.75,7.08,5.66,9.91,9.4c-1.82,2.63-2.43,6.57-6.57,6.37c-6.24-0.3-7.43,4.84-11.22,13.45c-3.24,0.81-4.95-2.33-7.68-2.22
		c-1.77-0.89,0.8-2.06,0.4-3.34c-1.21-0.1-2.02,0.2-2.33,1.42c-0.32,1.88,0.85,1.49,1.62,3.03c-1.01,1.42-3.34,1.31-4.25,3.44
		c2.63,0.3,4.04-1.92,6.27-2.12c9.25,3.08,5.26,4.58,12.33-9c3.17-6.09,6.52,0.92,11.42-6.87c0.61-0.81,1.01-1.82,2.02-2.22
		c2.83,1.72,7.38-0.71,8.69,3.84c1.82-0.2,2.63-1.31,2.73-3.13c1.52,1.62,2.53,3.34,5.05,3.13
		C894.28,296.9,899.2,291.18,897.78,286.21z M647.06,332.71c3.24-1.82,6.77-0.91,10.31-1.52
		C654.14,334.73,652.22,334.94,647.06,332.71z M642.11,372.24c1.01,0.2,0.91,1.01,1.01,1.62
		C642.21,373.65,642.01,373.05,642.11,372.24z M526.46,455.44c-5.36,0.47-10.61,0.91-16.07,0.3c4.35-3.94,9-7.48,15.06-9.81
		c2.63,0.51,5.96,1.01,9.5,1.52C534.04,452.51,531.41,455,526.46,455.44z M413.43,476.27c-0.53,11.17-1.7,15.02,3.13,21.84
		c-1.15,0.58,0.88,1.08-8.9-3.44c-2.48-1.15-5.02-6.29-3.34-7.89C409.9,481.48,405.84,478.91,413.43,476.27z M423.14,509.32
		c-5.05-1.42-9.91-3.03-15.27-1.92c3.24,3.03,7.58,3.84,11.52,5.36c-4.35,0.2-8.69,0-13.24-0.81c1.42,3.34,3.84,4.45,12.13,5.46
		c-2.43,3.8-8.06,1.08-13.65,2.73c3.34,3.13,6.98,3.03,10.92,2.73c-0.81,3.03-3.24,1.82-4.85,2.33c-1.92,0.6-3.74-1.11-5.86-0.61
		c0.51,2.63,4.65,1.92,3.84,4.85c1.52,0.81,2.12-0.3,3.24-1.01c-0.4,3.34,1.62,4.25,4.45,4.65c1.09,5.16,8.29,6.33,6.57,13.95
		c-12.93,1.85-24.85,1.44-35.38-6.27c-10.6-7.75-6.5-18.41-4.85-27.4c2.03-11.08-7.38-16.74-1.52-39.22
		c3.83-1.49,6.4,2.08,10.41-1.11c0.51-0.4,0.91-0.8,1.52-0.61c3.83,1.24,7.78-0.29,11.63,0.61c2.22,0.52,4.35,0.2,6.57,0.2
		c0,0.2,0.1,0.61,0,0.61c-4.25,2.93-5.86,7.79-8.49,11.83c-1.78,2.74-2.22,14.86,13.75,14.86c2.53,3.34,5.36,5.86,10.31,3.44
		C425.46,506.29,423.95,507.4,423.14,509.32z M505.12,523.07c11.54-0.98,20.22-7.01,25.58-4.65c-2.27,0.89-4.83,0.92-6.55,2.63
		c4.46,0.02,8.45-2.33,13.02-2.63c-1.21,4.04,0.51,7.68-0.2,11.42c-11.56,3.9-75.97,20.8-76.04,23.57
		c-1.92-4.8,1.84-9.19,0.32-13.66c-2.33-1.92-5.16-1.21-7.89-1.72c9.71-1.92,18.9-4.95,27.9-10.01
		c-21.07-12.92-8.03-22.93-7.78-29.42c5.26-0.4,10.41,1.62,16.18-0.71c-4.35,9.5-7.48,18.4-9.91,27.6c4.65-8.9,7.38-18.6,11.83-27.5
		c13.47-3.37,12.39-4.16,6.37,10.92c1.52-1.76,6.08-9.82,5.07-11.84c3.28-1.78,6.84-1.42,11.1-1.91
		C510.99,504.77,506.84,513.57,505.12,523.07z M561.74,480.61c0.61-1.11,1.11-1.72,2.33-1.82
		C563.66,479.6,563.15,480.21,561.74,480.61z M658.18,380.63c3.4-13.99,12.66-18.91,13.34-18.4c-19.06,21.18-8.51,64.7,13.95,71.68
		C668.99,437.41,651.47,408.28,658.18,380.63z M655.55,401.96c0.81,2.33,1.11,4.14,1.21,6.37c-3.44,0.91-6.57,3.13-10.41,3.54
		C650.09,409.34,653.33,406.41,655.55,401.96z M635.23,411.97c2.22,0.81,4.25,1.52,6.57,2.33c-2.73,2.33-5.66,3.24-8.8,4.25
		C635.23,416.92,635.03,414.6,635.23,411.97z M622.09,431.99c6.19-4.62,2.4-8.65,8.29-10.41c10.76-3.21,24.37-11.25,27.3-10.72
		c1.52,3.54,2.83,7.18,4.75,10.51c-5.14,4.25-46.78,19.67-46.91,19.71C615.72,436.54,618.96,434.32,622.09,431.99z M619.77,441.59
		c12.96-4.58,25.39-10.3,38.21-15.06c7.62-2.83,3.99-4.73,10.41,2.83c-2.32,0.66-51.01,24.2-60.05,20.72
		C610.47,445.03,615.12,443.23,619.77,441.59z M650.7,450.28c2.63-4.55,6.37-7.89,8.59-12.74
		C687.45,454.07,709.82,454.07,650.7,450.28z M686.59,455.14c-10.72,0.3-21.43-1.62-32.15-2.33
		C665.16,453.11,675.97,453.72,686.59,455.14z M648.07,449.88c-7.48,1.11-13.75-1.21-20.32-1.21c9.6-5.36,20.72-6.87,30.43-12.43
		C655.05,441.39,651.51,445.94,648.07,449.88z M602.88,456.15c0.68,8.52,2.02,6.71-6.98,6.07
		C598.23,459.99,600.76,458.88,602.88,456.15z M604.8,481.62c-12.54-0.61-24.46,0.51-36.19-2.02c-0.48-1.61,11.07-6.75,17.08-13.45
		c2.06-2.06,3.29,1.04,8.39-3.34c-0.84,4.21,9.57,3.7,11.63,3.34c7.11-1.27,13.95,0.91,21.23,0.91
		C609.14,483.01,612.62,475.37,604.8,481.62z M718.36,471.8c-8.9-2.09-19.95-1.95-29.05-1.19c-1.59,0.13-73.57-6.95-81.28-7.68
		c-1.42-3.23-0.1-7.28-3.34-9.71c5.71-1.71,5.82,0.33,9.3-1.21c14.16-4.65,36.76,1.28,10.79,0.2c-11,0.46-9.42,0.4-9.1,0.43
		c1.39,0,13.22,2.02,35.61-0.43c-0.4,0.51-1.31,0.1-1.42,1.01c0.2,1.11,1.21,0.71,1.92,0.81c14.56,0.81,28.91,3.03,43.47,3.54
		C700.62,457.75,725.76,473.54,718.36,471.8z M754.73,486.07c-13.98,3.5-43.69-29.16-82.09-43.98c-4.66-1.8-9.1-4.04-13.85-6.77
		c3.94-1.72,7.38-3.13,11.02-4.75c8.8,7.37,14.57,5.18,16.28,6.47c9.63,7.28,13.56,5.54,29.32,18.1c9.02,7.19,8.02,3.77,9.5,5.26
		c10.62,7.13,22.8,8.6,30.63,17.49C758.57,481.32,758.57,481.93,754.73,486.07z M688.71,436.54c6.64-0.46,32.86,20.06,41.45,23.45
		c1.31,0.52,2.93,0.91,3.23,2.73c-0.96,0.41-0.06,1.23-17.19-8.8c-2.81-1.65-4.74-4.36-7.58-6.17
		C702.87,444.08,701.07,443.95,688.71,436.54z M735.01,464.13c1.21-0.3,1.42,0.51,2.22,0.61
		C736.23,465.35,735.82,464.64,735.01,464.13z M745.22,468.99c1.82-0.3,3.13,0.3,4.45,1.01C747.95,470.81,746.74,470,745.22,468.99z
		 M749.67,470.1c4.35,0.71,7.68,2.83,9.81,6.67C756.85,473.54,752.3,473.13,749.67,470.1z M769.89,462.21
		c1.21,5.66-0.91,11.02,0.91,16.58c-3.03-0.3-5.56-0.51-8.39-0.71c-1.71-10.94-15.76-7.78-26.89-16.68
		c-4.25-2.83,7.06,1.16,15.37,1.31c5.13,0.1,16.07,2.91,16.07,0.3c-29.5-3.9-34.35-3.52-40.94-6.98
		C740.47,459.28,755.13,461.1,769.89,462.21z M692.05,435.32c1.52-1.21,2.73-1.42,4.14-0.81c4.66,2.01,9.3,4.15,13.24,7.48
		c8.37,7.07,7.15,3.04,18.3,12.54C720.9,455.06,724.87,453.66,692.05,435.32z M705.7,434.01c8.16,7.53,33.69,21.88,34.68,22.34
		c-12.55-0.63-9.24-3.85-24.46-11.63c-4.43-2.26-7.49-6.34-12.13-8.39c-2.03-0.9-4.35-1.42-6.17-3.03
		C700.03,431.48,703.07,431.58,705.7,434.01z M692.76,432.59c-26.02,5.84-42.65-57.59-15.06-71.88
		c5.56,7.78,11.73,15.27,10.82,25.78c-10.5,2.7-6.29,19.6,5.76,14.36c0.81,3.44,3.44,4.67,6.77,4.04c2.63-0.49,5.46-0.1,8.09-0.1
		C711.86,416.01,703.38,430.21,692.76,432.59z M689.62,388.62c1.11,3.24,1.31,6.57,2.93,9.3
		C687.25,405.35,679.82,388.3,689.62,388.62z M723.89,354.45c-17.55,19.7-10,63.1,14.15,71.98
		C710.08,429.48,697.16,366.92,723.89,354.45z M706.2,318.66c10.91,2.1,6.97,0.21,4.85,11.32c-0.64,3.33-0.3,6.67-0.51,9.91
		c0.61,1.31,1.82,0.51,2.43,1.01c1.01,2.63,2.12,5.16,5.56,6.77c-1.42-3.54-2.83-6.27-5.16-8.8c0.51-2.83-1.62-6.07,1.11-9.71
		c-0.61,3.44,0.61,5.96,0.91,8.69c0.42,3.76,6.02,3.77,6.77,3.94c3.94,1.42,2.53,6.37,6.47,7.89c-9.3,2.93-14.76,9.5-18.6,18.4
		c-0.63-2.03-9.99-10.78-12.43-26.39c-1.03-6.57-3.34-12.84-3.74-19.41c3.64-3.64,6.87-5.05,9.6-4.14
		c-1.11,2.22-3.24,3.94-3.44,6.98C702.76,323.31,704.08,320.68,706.2,318.66z M760.59,408.84c-3.57,12.22-15.17,20.78-27.6,12.94
		c-11.82-7.45-22.66-31.42-14.25-55.7c3.02-8.72,10.8-15.02,14.15-13.34c0.8-4.29,14.59,1.54,13.11,2.03
		c-0.68,0.03-1.42,0.27-1.89-0.01c-3.51-2.41-7.4-1.93-11.22-2.02c-0.56-0.01-6.98,3.35-10.22,11.12
		c-14.86,35.71,11.45,70.68,28.79,55.26c-1.37,0.92-7.41,3.77-11.29,2.46c-32.3-10.84-22.04-80.48,3.94-64.6
		c10.9,6.66,9.95,14.91,13.95,18.9c-6.72-21.13-12.67-17.14-11.95-20.99C755.06,359.05,768.32,382.41,760.59,408.84z M776.36,384.57
		c1.21-1.01,2.33-1.42,3.84-1.92c4.35,8.49,9.71,15.87,19.51,18.8C790.92,403.38,781.21,395.79,776.36,384.57z M815.28,392.66
		c-13.73,20.85-36.11-8.61-32.86-11.22c2.65,0.38,10.02,24.52,29.01,13.55c-2.12-0.83-15.85,10.18-26.79-14.56
		c5.66-2.63,11.73-3.93,17.09-6.98c0.7-0.4,5.69,0.94,7.08-1.72c1.84-3.53,5.36-3.54,8.39-5.05c0.4,1.82,0.81,3.54,1.21,5.56
		c1.87-3.11-1.54-6.12,1.62-6.37C821.35,375.37,820.66,384.49,815.28,392.66z M825.39,316.13c1.72,2.12,2.53,4.95,4.95,6.27
		c0.4,1.31,0.4,2.43-0.2,3.74c-3.54,0.2-7.18,0.51-11.32,0.81C821.25,323.01,823.27,319.67,825.39,316.13z M822.97,315.42
		c-1.01,1.42-1.31,3.54-3.94,2.73C820.03,316.64,820.24,314.41,822.97,315.42z M815.08,321.79c1.07-1.85,2.73-2.43,5.05-1.52
		c-0.3,2.63-2.73,4.14-2.93,6.67c-3.64,0.61-6.98,1.92-11.02,1.92C807.48,327.33,813.1,325.21,815.08,321.79z M793.24,329.68
		c0.51,1.42,0,2.22-1.21,2.73C792.13,331.4,791.93,330.28,793.24,329.68z M806.59,331.3c16.36-3.41,17.04-0.86,21.23-2.73
		c5.66,2.83,6.07,8.9,9.3,13.24c-4.95,2.02-10.31,1.62-15.77,3.74c7.02,1.54,15.98-3.78,0.51,4.25c-1.01,0.2-1.2-1.6-2.43-0.81
		c-4.92,3.19-10.61,4.85-16.16,6.47c1.27,1.27,2.77,0.87,13.54-3.44c5.3,11.65,3.65,6.22,7.68,9.3
		c-19.19,9.77-13.85,4.97-22.85,10.41c-5.38,3.26-14.02,5.79-14.25,5.56c-0.1,0.08-13.64,6.98-22.34,10.31
		c-3.46-4.69,6.01-1.89,38.42-19.01c0.81-4.04-2.02-7.38-2.53-11.52c0.2-1.11,1.62-0.81,2.22-1.72c0.03,0.03,0.06,0.05,0.09,0.08
		c-1.17-2.14-1.97,2.24-3.83-2.1c0.81-1.92,3.44-2.12,4.04-4.04c-0.71-1.01-1.42-0.51-1.92-0.1
		c-19.38,15.56-41.19,15.13-38.92,21.94c11.93-5.46,24.26-9.6,35.38-16.58c-0.61,1.72-2.73,1.62-3.74,3.03
		c0.91,1.01,2.02-0.4,3.03,0.51c1.52,3.03,1.01,7.28,4.75,9.4c-11.83,7.48-24.46,11.93-38.01,15.47
		c-1.42-6.87-3.44-13.55-7.38-19.61c3.94-2.22,7.89-2.93,11.42-2.93c5.96-2.83,12.33-4.85,15.57-11.52
		c1.42,2.83,1.72,5.46,4.55,7.38c-0.71-3.34-3.13-5.46-2.83-8.69C792.46,340.91,789.02,334.96,806.59,331.3z M820.94,356.67
		c-0.81-1.62-1.72-3.34-2.53-4.95C820.14,352.83,820.74,354.55,820.94,356.67z M774.74,276.3c-1.84,12.33,4.27,11.95,7.99,20.93
		c2.9,7,0.27,4.92,1.01,7.18c3.06,9.37,0.95,24.1,6.47,31.34c-3.77,10.06-10.35,18.51-34.37,25.37
		c-2.13-0.93-8.96-12.69-22.14-11.22c-1.92,0.21-3.77,0.11-4.35-2.43c-0.32-1.41-2.53-1.62-2.63-3.84c3.84,0.3,7.68,0.71,11.22-0.81
		c0.61,1.01-0.61,1.62,0,2.73c1.92,0.2,2.33,2.43,3.84,4.25c0.4-2.93,0.61-5.46,0.2-8.19c9.29-5.83,38.23-25.36,34.07-35.48
		c-0.7-1.71,3.4-8-2.63-18.8c-1.75-3.14-9.09-12.47-12.23-11.12c-0.51,1.42,0.61,2.12,1.52,2.53c8.83,4.63,15.53,26.18,8.69,35.18
		c-9.7,12.76-29.53,25.66-38.01,26.59c-2.83,0.31-5.56-0.3-8.09-0.61c-1.72-1.31-0.51-3.94-2.73-4.85c-1.72,1.21,0.2,2.93-0.71,4.25
		c-6.09,2.34-8.44-16.24,2.22-18.2c7.29-1.34,9.46-1.17,10.41-3.34c-7.14-1.9-11.94,3-16.18-0.3c-1.13-0.88-7.22,1.45-18.7-3.54
		c-1.62-0.7-3.24-1.31-5.05-0.81c0.81,3.64,7.56,1.38-0.4,5.05c-1.11-2.93,0.44-5.89-1.11-8.29c-4.72-7.31-6.56-4.04-3.44-0.91
		c4.67,4.67-2.61,11.39,4.65,29.72c0.8,2.02,0.23,4.03,0.91,6.07c2.22,6.64,5.87,12.63,8.9,18.9c1.22,2.53,4.45,3.44,5.56,6.47
		c-3.23,10.92-3.34,22.14,1.01,33.66c-6.94-4.16-7.82-6.22-8.69-4.25c0.71,1.52,2.33,2.12,3.54,3.54
		c-3.21-1.43-9.92-1.03-11.22-2.33c0.05,0.02,0.09,0.04,0.14,0.06c1.45-1.68,2.18,1.59,6.63-1.27c-1.92-1.11-3.74-0.81-5.66-1.11
		c-7.76-22.03-4.42-22-9.3-29.52c-13.38-20.62-25.7-44.5-34.98-80.17c9-5.86,18.4-10.27,29.12-11.63
		c5.75-0.73,21.83-8.19,45.09-3.24c10.02,2.13-1.81,2.41-3.24,8.69c3.34-2.43,6.98-3.34,9.4-6.37c4.25,0.91,8.18-1.03,12.23-2.33
		c6.77-2.17,11.48-0.41,24.26,2.63c-3.13-3.64-7.99-3.44-12.84-5.46c8.59-1.82,16.28-4.75,24.16-1.42c-0.2,0.1-1.01-0.4-1.72,0.51
		C797.91,274.07,780.52,272.26,774.74,276.3z M838.33,258.31c-0.2,0.71-0.71,1.01-1.42,1.11
		C836.92,258.41,837.42,258.1,838.33,258.31z M842.58,273.27c-0.71,0.4-0.91-0.4-1.72-0.4
		C841.77,272.36,842.27,272.46,842.58,273.27z M842.88,274.78c-0.91,3.54-3.34,3.34-5.96,3.03c0.3-1.01,0.91-2.12-0.2-3.34
		c-0.61,1.11-1.31,2.43-2.93,2.02C834.39,273.47,834.39,273.47,842.88,274.78z M839.34,262.85c0.3-0.2,0.51-0.4,0.81-0.61
		C840.46,263.16,840.05,263.16,839.34,262.85z M841.87,265.79c0.51-0.51,1.01-0.3,1.82-0.1
		C842.88,265.99,842.38,266.19,841.87,265.79z M847.84,279.33c-0.4-0.61,0.1-0.61,0.71-0.51
		C848.34,279.03,848.14,279.13,847.84,279.33z M853.09,247.59c0.71-0.61,1.21-0.4,1.82-0.1C854.41,248.7,853.9,248.8,853.09,247.59z
		 M856.33,252.44c0.3-1.11,0.91-1.42,1.92-1.52C858.05,251.94,857.34,252.14,856.33,252.44z M858.45,242.84
		c0.81-0.61,1.11-0.2,1.62,0.3C859.26,243.55,858.96,242.94,858.45,242.84z M866.54,273.07c-0.1-0.81,0.1-1.11,0.71-1.11
		C867.75,272.56,867.55,272.96,866.54,273.07z M868.56,278.83c-0.22,0.22-1.47-0.84,0.2-1.31
		C868.96,278.12,869.06,278.63,868.56,278.83z M868.96,286.01c0-0.4,0.1-0.91,0.1-1.92C870.72,286.84,868.96,288.46,868.96,286.01z
		 M871.69,282.57c-0.61-0.91-0.71-1.82-0.61-3.03C872.3,280.55,872.4,281.36,871.69,282.57z M872.3,267.2
		c-0.71-0.2-0.91-0.61-0.4-1.31C872.7,266.09,872.7,266.6,872.3,267.2z M882.91,249.21c-1.31-0.2-1.42-1.01-1.72-1.92
		C882.31,247.49,882.61,248.2,882.91,249.21z M879.68,261.54c1.11,0.1,1.52,0.81,1.72,1.82
		C879.68,263.76,879.48,262.85,879.68,261.54z M877.86,276.2c-0.27,0-0.2,0.4-0.2-3.44C878.34,272.76,878.2,272.17,877.86,276.2z
		 M879.17,293.89c1.26-0.63,1.96,0.9,2.43,2.22C880.39,295.21,879.58,294.9,879.17,293.89z M882.31,288.23
		c-0.91-1.42-1.11-2.33-1.11-3.44C882.71,285.4,882.31,286.51,882.31,288.23z M881.6,255.78c1.01,1.11,1.92,1.72,2.12,3.24
		C882.51,258.1,881.8,257.4,881.6,255.78z M886.96,263.87c-0.51-0.4-0.2-0.81,0.1-1.42C887.57,263.26,887.46,263.56,886.96,263.87z
		 M895.96,288.03c-0.4-0.81-0.3-1.21,0-1.72C896.56,286.92,896.46,287.42,895.96,288.03z"/>
	<path d="M663.73,335.96C663.73,335.96,663.73,335.96,663.73,335.96L663.73,335.96z"/>
	<path d="M546.57,422.89l-0.1-0.1C546.51,422.98,546.51,422.95,546.57,422.89z"/>
	<path d="M524.03,521.15c0.13-0.13,0.21-0.1-0.1-0.1L524.03,521.15z"/>
	<path d="M771.41,560.98c-0.27,0.27,0.19,2.51,3.34,1.11c0-0.81-1.11-0.91-1.01-2.02c3.5-1.17-0.58-28.72-1.11-35.69
		c-1.04-13.54,4.15-38.38-0.51-42.56c-2.42,1.31,0.46,0.61-1.42,33.46C770.02,527.14,776.15,553.79,771.41,560.98z"/>
	<path d="M170.5,196.13c0.91-1.01,2.24,0.72,3.24-0.4c1.33-1.5,1.7-3.66,3.34-4.85c5.26-3.85,22.23-21.09,26.49-26.59
		c1.32-1.71,3.03-3.64,2.33-7.08c-5.82,10.91-26.48,25.78-35.34,37.16c0.1-0.1,0.08-0.06,0.05,0.05c-0.01-0.02-0.03-0.04-0.05-0.05
		c-0.49-0.37-0.97-0.66-1.56-0.46c-17.08,2.48-17.19,0.34-17.49,3.03C173.78,196.25,170.5,192.47,170.5,196.13z"/>
	<path d="M605.01,391.95c-3.84-5.66-6.27-12.03-12.13-16.28c-0.1,1.21,0.51,1.62,0.91,2.12c9.78,10.53,15.29,30.84,26.89,39.33
		c-5.66-7.58-10.41-15.57-15.06-23.96c4.35-3.34,9.4-6.17,10.21-12.43c-1.62,0.1-1.82,2.12-3.13,2.73
		c-2.43-2.63-4.25-5.76-8.09-6.17c1.92,3.54,6.27,4.75,8.09,8.49C610.67,388.41,607.94,390.03,605.01,391.95z"/>
	<path d="M229.04,165.7c-3.74-5.46-6.17-11.83-11.73-15.97c-0.61,1.01,0.01,1.31,0.4,1.72c9.93,10.34,15.14,29.86,25.88,38.21
		c-5.05-7.28-9.5-14.76-13.75-22.54c1.72-1.52,3.44-2.93,5.05-4.35c3.94-1.72,3.44-6.47,6.17-9c-1.92,0.4-2.93,2.02-4.04,3.64
		c-2.53-2.73-4.35-5.96-8.29-6.37c2.02,3.54,6.27,4.85,8.19,8.59c-3.18,3.18-2.12,2.83-2.43,2.83
		C232.57,163.28,231.26,165.1,229.04,165.7z"/>
	<path d="M258.66,181.47c6.26-1.16,3.66-10.92-4.45-11.12c1.11,1.72,2.21,3.44,3.44,5.16C258.95,177.34,257.65,179.65,258.66,181.47
		z"/>
	<path d="M788.69,551.78c-2.58-19.14-5.52-23.4-2.93,2.93c1.62-3.23-0.2-6.67,0.4-10.21C787.18,547.03,786.98,549.76,788.69,551.78z
		"/>
	<path d="M634.53,408.03c5.05-1.05,4.93-10.42-4.75-11.63c1.21,1.82,2.32,3.44,3.54,5.16C634.62,403.38,633.62,405.7,634.53,408.03z
		"/>
	<path d="M484.5,484.86c2.95-0.82,19.79-4.2,22.24-9.1c-7.99,4.55-16.68,6.87-26.18,8.19C482.28,485.36,483.49,485.14,484.5,484.86z
		"/>
	<path d="M130.87,249.61c-7.99,4.45-16.58,7.08-25.58,8.29C109.44,260.02,126.12,254.67,130.87,249.61z"/>
	<path d="M546.27,421.88c0.91-0.2,1.92,0.81,3.03,0.3c1.52-1.31,1.71-3.75,3.44-4.95c6.25-4.38,21.69-20.74,26.59-26.59
		c1.43-1.71,3.13-3.64,2.43-6.77c-9.54,13.81-30.65,28.92-35.49,37.26c-0.5-2.19-0.4-0.53-17.28,0.44c-0.71,0-1.72-0.1-1.52,1.52
		C544.82,423.64,546.27,419.44,546.27,421.88z"/>
	<path d="M651.21,394.58c-2.73-2.33-5.36-4.75-6.47-8.29c-0.81-0.3-1.52-1.52-2.63-0.2C642.92,391.95,647.67,396.5,651.21,394.58z"
		/>
	<path d="M784.95,487.28c0.91-3.23,0.3-19.71-1.11-22.14C783.44,472.93,783.54,479.8,784.95,487.28z"/>
	<path d="M512.4,524.39c1.01-1.62,3.34-1.11,4.75-2.63c-8.19,1.42-16.38,2.53-23.66,6.77C499.67,526.81,505.43,523.58,512.4,524.39z
		"/>
	<path d="M136.43,298.24c0.91-1.92,3.64-0.91,5.56-3.24c-7.89,1.72-15.16,2.83-21.74,6.17
		C125.62,299.86,130.57,297.53,136.43,298.24z"/>
	<path d="M220.44,180.26c-5.16,6.77-11.42,12.54-17.08,18.9C209.93,193.61,216.2,187.84,220.44,180.26z"/>
	<path d="M596.62,405.9c-5.05,6.98-11.42,12.74-17.19,19.21C586.1,419.55,592.47,413.69,596.62,405.9z"/>
	<path d="M139.87,212.21c2.33-3.64,1.92-7.99,4.14-11.83c-1.31,0-2.02,0-3.13,0C141.18,204.52,138.76,208.16,139.87,212.21z"/>
	<path d="M515.74,438.46c2.22-3.64,1.92-8.09,4.04-11.73c-1.31-0.4-2.12-0.3-3.03,0.2C517.05,430.77,514.53,434.31,515.74,438.46z"
		/>
	<path d="M784.95,529.44c-1.01-6.98-1.52-13.85,0.1-20.83C782.63,512.46,782.63,525.8,784.95,529.44z"/>
	<path d="M382.5,355.46c0.97-0.33,0.83,1.15,1.21-6.17c2.43-1.62,4.95-2.73,7.18-5.05c-3.64,0.71-5.96,2.73-8.8,4.14
		C381.99,350.91,381.69,353.23,382.5,355.46z"/>
	<path d="M759.18,582.11c0.85-11.52-0.33-3.61,7.89-11.83c-3.84,0.91-6.17,2.83-9.1,4.25C758.06,576.96,757.15,579.28,759.18,582.11
		z"/>
	<path d="M498.35,469.19c4.04-0.4,8.19-0.4,11.52-3.24C505.83,466.05,501.89,466.96,498.35,469.19z"/>
	<path d="M822.16,308.95c1.62-3.74,1.21-6.17-1.52-7.99c-0.61,2.43-2.83,3.74-4.04,6.37c2.33-0.4,3.03-2.33,4.65-3.03
		C821.95,305.82,820.84,307.54,822.16,308.95z"/>
	<path d="M859.66,300.36c4.45,0.51,7.18,4.95,11.83,4.85C868.05,302.38,864.41,299.96,859.66,300.36z"/>
	<path d="M49.09,256.49c-2.93,0.71-6.17,0.3-8.9,2.33C42.31,261.04,45.45,260.23,49.09,256.49z"/>
	<path d="M424.86,482.74c-2.93,0.91-6.27,0.2-9.3,2.53C418.49,487.18,421.52,486.27,424.86,482.74z"/>
	<path d="M134.01,239.5c-3.94,0.3-7.68,1.11-11.73,3.13C127.13,243.14,131.99,241.93,134.01,239.5z"/>
	<path d="M210.64,169.04c-2.22-3.84-2.12-7.48-2.33-11.32C206.09,161.56,206.9,166.11,210.64,169.04z"/>
	<path d="M252.49,179.65c-1.01,1.72,0.2,4.75,2.73,7.08C255.72,183.39,255.22,182.08,252.49,179.65z"/>
	<path d="M627.85,406c-0.1,2.93,1.52,4.85,3.13,6.87C631.49,409.95,630.79,407.42,627.85,406z"/>
	<path d="M586.3,394.99c-2.43-3.24-1.42-7.18-2.53-11.32C582.26,389.12,582.97,392.46,586.3,394.99z"/>
	<path d="M812.45,287.52c1.42-3.13,3.84-5.86,3.84-9.5C813.16,280.45,813.06,284.08,812.45,287.52z"/>
	<path d="M407.77,336.75c-4.04,1.62-8.29,2.53-11.52,5.56C399.99,340.19,404.43,339.69,407.77,336.75z"/>
	<path d="M783.74,563.21c-0.2-0.3-0.4-0.51-0.61-0.81c-3.44,2.43-7.99,2.93-11.73,6.27C775.15,567.76,781.82,564.72,783.74,563.21z"
		/>
	<path d="M122.28,282.47c2.53-3.44,4.35-7.08,5.26-11.12C126.46,270.99,127.08,269.43,122.28,282.47z"/>
	<path d="M260.27,144.98c-3.84,1.62-7.89,2.73-11.12,5.56C262.27,145.36,260.6,145.96,260.27,144.98z"/>
	<path d="M640.49,338.78c-3.54-0.81-6.67,0.1-9.91,0.3C638.17,340.6,638.17,340.6,640.49,338.78z"/>
	<path d="M521.1,481.62c-0.3-3.34,0.51-6.07,0.81-9C519.18,475.66,518.87,478.89,521.1,481.62z"/>
	<path d="M265.03,113.24c-3.44-1.52-6.37-1.42-10.41,0.1C257.95,113.34,261.18,114.35,265.03,113.24z"/>
	<path d="M106.71,245.87c3.94,0.81,7.38-1.42,11.02-2.12C116.72,243.55,107.62,245.26,106.71,245.87z"/>
	<path d="M145.03,254.97c-0.2-2.93,0.91-5.66,1.01-8.49C143.41,249.41,143.11,252.34,145.03,254.97z"/>
	<path d="M635.84,371.43c-3.74,1.62-7.78,2.53-10.92,5.46C637.28,371.88,636.32,372.39,635.84,371.43z"/>
	<path d="M824.79,295c1.52-1.62,2.73-3.34,2.83-5.76C825.19,290.45,824.18,292.37,824.79,295z"/>
	<path d="M860.78,301.68c0.82,4.41,4.69,6.78,6.07,2.93C863.61,306.22,863,302.89,860.78,301.68z"/>
	<path d="M775.15,464.13c3.34,1.21,5.86,1.52,8.29,0C780.91,463.43,778.38,463.53,775.15,464.13z"/>
	<path d="M107.62,302.48c2.53-0.2,4.95,1.82,7.48,0.3C112.68,302.18,110.25,300.66,107.62,302.48z"/>
	<path d="M234.19,202.8c0.91,2.83,1.82,5.56,2.63,8.19C237.43,207.86,236.31,204.83,234.19,202.8z"/>
	<path d="M784.25,495.37c-0.1-2.43,0.51-4.75-0.61-7.08C782.83,490.72,783.74,493.05,784.25,495.37z"/>
	<path d="M610.16,429.26c0.81,2.63,1.62,5.26,2.43,7.89C614.62,436.46,611.83,431.3,610.16,429.26z"/>
	<path d="M826.71,310.77c0.61-3.94,0.51-4.25-0.91-6.47C825.7,306.63,825.7,308.75,826.71,310.77z"/>
	<path d="M545.36,444.93c1.52-1.62,3.74-2.83,3.84-5.66C547.48,440.78,546.07,442.6,545.36,444.93z"/>
	<path d="M140.38,260.53c-3.34,0.71-3.44,0.91-2.12,3.23C139.37,263.16,140.28,262.35,140.38,260.53z"/>
	<path d="M538.49,455.84c3.64-2.02,3.64-2.12,3.54-4.85C540.71,452.71,539.09,453.62,538.49,455.84z"/>
	<path d="M481.97,471.92c2.93,0.81,5.36,0.4,7.58-1.21C487.13,470.91,484.6,470.3,481.97,471.92z"/>
	<path d="M173.64,212.21c-1.92,2.12-3.24,3.74-3.64,5.96C171.21,216.55,173.64,215.64,173.64,212.21z"/>
	<path d="M817.3,314.41c-2.73,0.51-3.13,0.91-3.54,3.74C815.08,316.84,817,316.54,817.3,314.41z"/>
	<path d="M165.75,201.29c-1.92-1.31-3.94-1.01-6.87-1.01C161.61,201.69,163.63,201.59,165.75,201.29z"/>
	<path d="M541.72,427.34c-1.82-0.91-3.84-0.71-5.86-0.4C537.78,427.34,539.7,428.14,541.72,427.34z"/>
	<path d="M592.17,385.79c0.91,2.28,1.88,0.94,0.53-0.29C591.02,380.47,585.66,376.02,592.17,385.79z"/>
	<path d="M213.27,153.88c1.42,2.12,1.62,5.05,4.04,6.47C216.8,157.72,215.19,155.69,213.27,153.88z"/>
	<path d="M815.59,550.37c-1.92,0.1-3.74,0.4-5.36,1.82C812.15,552.19,813.87,551.48,815.59,550.37z"/>
	<path d="M163.02,229.19c1.72-0.81,3.34-1.62,3.34-3.84C164.74,226.26,163.43,227.27,163.02,229.19z"/>
	<path d="M402.31,335.64c2.83,0.81,2.83,0.81,4.75-0.51C405.34,334.83,403.83,335.04,402.31,335.64z"/>
	<path d="M811.34,290.86c-0.51,1.42-1.11,2.83-2.02,4.95C811.85,294.4,812.35,292.98,811.34,290.86z"/>
	<path d="M147.35,196.94c-1.42,0.61-3.34-0.1-4.35,2.12C144.93,198.86,146.44,198.56,147.35,196.94z"/>
	<path d="M777.78,561.69c1.82,0.81,3.54,0.81,5.36,0.61C783.45,560.12,781.32,561.18,777.78,561.69z"/>
	<path d="M439.51,324.22c-1.82,0-3.64,0.3-5.16,1.82C436.18,325.94,437.9,325.33,439.51,324.22z"/>
	<path d="M483.09,528.73c2.43,0.2,4.45,0.3,6.67,1.21C487.84,527.52,487.64,527.52,483.09,528.73z"/>
	<path d="M516.14,486.98c-2.83,0.3-2.83,0.3-2.53,3.23C515.23,489.41,516.14,488.6,516.14,486.98z"/>
	<path d="M532.62,463.93c-1.62,1.11-1.31,2.43-0.51,4.45C532.93,465.75,532.93,465.75,532.62,463.93z"/>
	<path d="M156.55,237.99c-1.42,1.11-1.11,2.33,0,4.25C157.28,238.09,157.78,237.99,156.55,237.99z"/>
	<path d="M155.14,231.41c-1.92,0.61-2.63,1.82-3.13,3.13C153.22,233.94,154.73,233.54,155.14,231.41z"/>
	<path d="M530.9,457.56c-2.12,0.51-2.53,1.92-3.64,3.44C529.29,460.39,530.5,459.69,530.9,457.56z"/>
	<path d="M517.46,485.46c1.92-0.51,2.63-1.21,2.83-2.73C518.67,482.94,518.27,484.05,517.46,485.46z"/>
	<path d="M784.95,562.2c0.4-1.42,0.61-2.43-0.4-3.44C783.94,559.77,783.13,560.88,784.95,562.2z"/>
	<path d="M489.66,470.81c1.31-0.1,2.83,0.2,4.25-1.11C492.08,469.19,490.87,469.9,489.66,470.81z"/>
	<path d="M523.42,422.99c-1.82,0.4-3.24,0.61-4.25,1.92C520.49,424.61,522.21,425.11,523.42,422.99z"/>
	<path d="M408.98,332.31c-1.42,1.21-1.42,2.22-0.1,3.54C409.69,334.63,409.49,333.52,408.98,332.31z"/>
	<path d="M756.34,574.12c-1.01-0.91-1.92-0.81-3.44,0.1C754.42,574.93,755.43,575.34,756.34,574.12z"/>
	<path d="M87.3,313.1c1.52-0.1,2.53-0.1,3.54-1.52C89.12,311.28,88.21,311.58,87.3,313.1z"/>
	<path d="M141.79,259.22c1.72-0.3,2.53-1.11,2.43-2.63C143.11,256.99,142.2,257.7,141.79,259.22z"/>
	<path d="M101.25,258.71c-2.02,0-2.02,0-3.13,1.11C99.23,260.23,100.14,259.92,101.25,258.71z"/>
	<path d="M539.09,475.76c1.92-0.51,2.63-1.31,3.44-2.93C540.81,473.33,539.9,474.04,539.09,475.76z"/>
	<path d="M808.61,296.42c-0.71,1.01-2.02,1.62-2.12,3.34C808.1,298.95,809.12,298.14,808.61,296.42z"/>
	<path d="M604.7,447.76c0.2-1.42,0.3-2.43-1.31-3.34C603.79,445.63,602.98,446.85,604.7,447.76z"/>
	<path d="M159.18,254.46c1.62,0,2.33-0.61,3.13-2.43C160.7,252.64,159.58,252.85,159.18,254.46z"/>
	<path d="M228.63,221.71c0.61-1.72,0.3-2.53-0.91-3.64C227.62,219.38,227.42,220.4,228.63,221.71z"/>
	<path d="M473.79,485.97c1.42,0.3,2.53,0.51,2.93-1.11C475.5,484.45,474.59,484.76,473.79,485.97z"/>
	<path d="M163.53,249.41c1.62-0.2,2.22-1.01,2.83-2.43C164.84,247.39,164.03,247.89,163.53,249.41z"/>
	<path d="M463.17,539.15c1.52,0.3,2.43-0.1,3.13-1.11C464.99,537.53,464.08,537.73,463.17,539.15z"/>
	<path d="M803.76,304.71c1.62-0.81,2.33-1.52,2.83-3.13C804.97,302.08,804.36,302.79,803.76,304.71z"/>
	<path d="M96.4,247.59c1.11,0.3,1.72-0.3,3.03-1.11C97.61,245.87,96.8,246.17,96.4,247.59z"/>
	<path d="M151.29,199.67c-0.71-0.71-1.31-0.81-1.92-0.2C149.98,200.48,150.49,200.08,151.29,199.67z"/>
	<path d="M57.18,255.37c1.11-0.51,2.22-0.2,2.12-1.52C58.59,254.06,57.78,254.16,57.18,255.37z"/>
	<path d="M535.05,480.21c1.19,0.89,2.9-0.5,2.53-1.62C536.46,478.69,535.66,479.1,535.05,480.21z"/>
	<path d="M472.27,473.23c0,1.12,1.78,0.62,2.63-0.71C473.68,471.92,472.88,472.32,472.27,473.23z"/>
	<path d="M84.88,260.83c-0.71-0.71-1.31-0.71-2.12,0.3C83.76,261.84,84.37,261.74,84.88,260.83z"/>
	<path d="M465.09,474.55c0.71,0.61,1.31,0.51,2.22-0.61C466.2,473.54,465.39,473.23,465.09,474.55z"/>
	<path d="M245.51,199.57c-0.4,1.11,0.61,1.52,1.01,2.12C246.22,201.09,246.93,199.97,245.51,199.57z"/>
	<path d="M512.91,464.84c-0.81,0.1-1.42,0.3-1.42,1.72C512.61,466.26,513.11,465.85,512.91,464.84z"/>
	<path d="M466.1,486.88c1.01,0.71,1.62,0.4,2.12-0.61C467.21,485.87,466.51,485.87,466.1,486.88z"/>
	<path d="M92.46,259.92c-1.01-0.3-1.62-0.1-2.33,1.01C91.35,260.93,92.15,261.24,92.46,259.92z"/>
	<path d="M809.01,318.76c-1.21,0.1-1.82,0.71-2.33,1.62C807.6,320.18,808.71,320.38,809.01,318.76z"/>
	<path d="M135.73,240.11c1.42,0,1.52-0.81,1.92-1.92C136.53,238.59,135.62,238.79,135.73,240.11z"/>
	<path d="M442.85,478.08c-0.71-0.4-1.21-0.51-1.42,0.4C442.04,478.89,442.45,478.59,442.85,478.08z"/>
	<path d="M435.47,480.21c-0.91-0.4-1.31,0.3-1.82,0.71C434.56,481.42,434.97,481.02,435.47,480.21z"/>
	<path d="M429,482.23c-1.66-0.33-1.8,0.88-1.11,1.11C428.6,483.44,428.9,483.04,429,482.23z"/>
	<path d="M380.58,347.98c-1.01-0.71-1.92-0.71-3.54,0.1C378.55,348.48,379.46,348.99,380.58,347.98z"/>
	<path d="M458.32,487.79c1.21-0.2,1.82,0.2,2.33-0.71C460.04,486.37,459.43,486.37,458.32,487.79z"/>
	<path d="M477.93,533.48c0.61,0,1.01,0,1.62,0C478.94,533.08,478.54,533.08,477.93,533.48z"/>
	<path d="M521.5,521.35c1.11-0.1,1.82-0.4,2.43-0.91C523.12,520.44,522.31,520.34,521.5,521.35z"/>
	<path d="M161.5,232.53c-1.01-0.4-1.21,0.1-1.21,0.91C161.1,233.74,161.5,233.34,161.5,232.53z"/>
	<path d="M88.51,248.4c1.42,0.1,2.02,0.81,2.53-0.61C90.44,247.29,89.83,247.49,88.51,248.4z"/>
	<path d="M537.17,458.37c-0.4,0.4-1.52,0.3-1.01,1.31C537.07,459.79,537.48,459.38,537.17,458.37z"/>
	<path d="M524.54,462.21c-0.81-0.4-1.11,0-1.31,0.81C523.93,463.12,524.33,462.82,524.54,462.21z"/>
	<path d="M66.38,252.54c1.36-0.68-0.17-1.78-0.91-0.3C65.67,252.54,66.07,252.64,66.38,252.54z"/>
	<path d="M217.21,160.45c0.1,0.61,0.2,1.21,1.21,1.21C217.92,161.15,217.81,160.55,217.21,160.45z"/>
	<path d="M526.96,425.82c-0.71-0.4-1.21-0.71-1.52,0.2C525.85,426.22,526.25,426.22,526.96,425.82z"/>
	<path d="M474.29,534.8c0.3-0.1,0.51-0.2,0.4-0.61C474.49,534.39,474.09,534.39,474.29,534.8z"/>
	<path d="M117.02,302.28c-0.81,0.1-1.42,0.1-1.92,0.61C115.81,302.89,116.52,303.19,117.02,302.28z"/>
	<path d="M622.19,426.93c0-0.61-0.1-1.11-1.31-1.11C621.48,426.43,621.08,427.23,622.19,426.93z"/>
	<path d="M148.56,236.06c-0.81-0.3-1.21-0.1-1.21,0.81C148.06,236.97,148.36,236.67,148.56,236.06z"/>
	<path d="M769.59,483.14c0-0.1-0.3-0.1-0.51-0.2c-0.55,0.18-0.53,0.91,0.2,0.91C769.59,483.75,769.79,483.44,769.59,483.14z"/>
	<path d="M347.42,191.28c0.81,0.2,1.42,0.4,1.92,0.51c0.1-0.61,0.11-1.32-0.3-1.92c-4.47-6.38-1.21-12.24,0.2-17.19
		c0.66-2.98-4.62-4.33-4.45,13.34c0.02,2.12,0.82,4.15,0.71,6.47c-0.37,7.89,2.27,15.47,2.33,23.35c0.01,1.42,1.22,2.83,1.31,4.25
		c0.47,7.38,3.84,13.75,6.87,20.22c0.3,0.51,0.3,1.11,1.42,0.91c0.39-2.34-3.78-4.93-5.96-15.97
		C350.28,219.26,347.55,197.41,347.42,191.28z"/>
	<path d="M348.73,139.01c-0.4-10.21-0.4-10.21-2.02-11.52c-4.02,14.94,6.99,16.02,7.08,24.06
		C353.84,155.92,359.85,145.24,348.73,139.01z"/>
	<path d="M399.89,115.76c-7.79,8.55-18.27,7.71-13.34,11.22C392.61,126.18,398.98,121.02,399.89,115.76z"/>
	<path d="M353.48,89.28c0.2,6.37-0.2,12.84,5.96,17.19C353.85,93.12,357.19,88.35,353.48,89.28z"/>
	<path d="M363.79,152.46c1.82-0.2,2.83-1.11,2.73-1.92c-0.39-3.03,2.02-5.05,2.93-7.68c-3.03-2.83,1.42-6.98-2.33-9.81
		C367.33,139.72,367.84,146.39,363.79,152.46z"/>
	<path d="M278.07,146.5c-1.72-0.3-2.53,0.61-2.33,1.62c0.57,1.92-0.23,12.98,4.75,11.32C278.67,155.39,277.56,151.15,278.07,146.5z"
		/>
	<path d="M371.68,112.63c1.21-2.93,3.84-17.29,3.34-20.32C370.41,114.33,370.57,112.63,371.68,112.63z"/>
	<path d="M349.24,191.89c0.2,4.75,4.04,7.48,6.67,11.02C355.12,199.91,352.36,191.89,349.24,191.89z"/>
	<path d="M399.68,94.13c1.52-9.91,1.31-12.13-0.81-13.14C399.89,85.13,396.75,89.58,399.68,94.13z"/>
	<path d="M292.62,109.09c-4.25,0.71-8.69,0.2-12.23,3.34C284.74,112.33,288.68,110.61,292.62,109.09z"/>
	<path d="M342.46,221.51c-1.42-5.16-1.92-10.31-3.24-15.37C338.42,211.3,340.34,219.99,342.46,221.51z"/>
	<path d="M324.57,98.88c2.73-2.73,5.16-5.46,6.57-9C327.3,91.6,324.77,95.34,324.57,98.88z"/>
	<path d="M367.64,116.98c-1.42-3.44-3.94-5.86-5.76-9.4C360.36,110.2,363.9,115.56,367.64,116.98z"/>
	<path d="M397.66,78.05c-2.12-3.03-6.27-6.17-9.81-7.18C389.98,74.41,393.52,75.93,397.66,78.05z"/>
	<path d="M284.54,166.11c1.42,3.34,4.25,4.14,7.18,4.65C288.88,169.85,288.18,165.6,284.54,166.11z"/>
	<path d="M295.25,164.69c1.62,2.43,1.21,5.56,3.74,7.58C299.7,168.43,298.39,165.6,295.25,164.69z"/>
	<path d="M313.65,160.85c1.01,1.62,2.43,2.93,3.24,5.16C317.7,162.27,317.09,161.36,313.65,160.85z"/>
	<path d="M342.36,135.58c0.4,2.22-1.62,2.83-2.22,5.16C344.89,138.1,345.09,137.7,342.36,135.58z"/>
	<path d="M297.17,108.69c2.73,0.1,4.35-0.91,5.16-3.23C300.81,106.46,298.49,106.46,297.17,108.69z"/>
	<path d="M362.99,83.61c1.42-1.72,2.83-3.54,3.44-5.86C364.5,79.27,363.39,81.29,362.99,83.61z"/>
	<path d="M306.17,118.39c1.72,0,3.44,1.52,5.46,0.2C308.9,117.38,308.6,117.28,306.17,118.39z"/>
	<path d="M307.08,143.77c0.91,1.52,1.92,3.03,3.84,3.44C310.21,145.38,308.9,144.37,307.08,143.77z"/>
	<path d="M352.07,161.66c1.62-1.42,1.72-2.63,1.82-4.45C351.97,158.42,351.26,159.54,352.07,161.66z"/>
	<path d="M277.56,140.33c-1.72,1.42-1.42,2.63-0.3,3.94C277.76,142.96,278.47,141.74,277.56,140.33z"/>
	<path d="M357.53,209.07c0.4-1.92,0.2-3.13-1.42-4.65C356.11,206.24,356.01,207.56,357.53,209.07z"/>
	<path d="M279.58,136.28c-0.61,0.91-0.81,1.72,0.3,2.73C280.49,137.4,280.49,137.4,279.58,136.28z"/>
	<path d="M354.29,153.17c-1.74,1.21-1.27,2.93-0.1,2.93C354.8,155.29,354.8,154.38,354.29,153.17z"/>
	<path d="M319.52,121.63c1.21,1.21,2.22,1.42,3.64,0.71C322.14,121.12,321.13,121.12,319.52,121.63z"/>
	<path d="M382.09,77.14c-1.72,0.71-1.72,2.02-2.12,3.84C381.39,79.67,382.6,78.96,382.09,77.14z"/>
	<path d="M284.44,172.68c0,1.52,0.51,2.43,1.62,3.03C285.85,174.7,286.05,173.29,284.44,172.68z"/>
	<path d="M371.98,125.27c0.51-1.21,0.1-1.92-1.11-2.73C370.67,123.85,370.67,124.76,371.98,125.27z"/>
	<path d="M362.48,157.31c1.01-0.4,1.52-0.91,1.31-2.12C362.48,155.59,362.08,156.2,362.48,157.31z"/>
	<path d="M313.85,120.92c0.61,1.21,1.42,1.42,2.83,0.91C315.78,120.82,315.07,120.31,313.85,120.92z"/>
	<path d="M369.96,121.22c0-1.21-0.1-2.12-1.72-2.43C368.34,120.21,368.55,120.92,369.96,121.22z"/>
	<path d="M303.54,138.51c-0.61,0.91-0.4,1.52,0.81,1.82C304.96,139.32,304.45,138.81,303.54,138.51z"/>
	<path d="M405.04,108.38c1.94-1.45-1.57-4.06-0.61-0.2C404.54,108.48,404.64,108.58,405.04,108.38z"/>
	<path d="M393.72,100.4c0.3-0.51,0.2-0.91,0-1.31C393.31,99.59,393.21,99.99,393.72,100.4z"/>
	<path d="M445.38,77.95c0.91,1.62-0.51,3.54,1.42,4.65c0-2.73,1.62-5.76-1.82-7.99C443.82,77.56,433.99,88.01,445.38,77.95z"/>
	<path d="M483.79,74.01c4.14,1.21,7.38,4.45,11.83,5.05C492.18,76.34,488.65,73.61,483.79,74.01z"/>
	<path d="M436.58,61.47c1.21-3.34,3.84-5.96,3.84-9.6C437.19,54.2,437.19,58.04,436.58,61.47z"/>
	<path d="M435.77,64.71c-1.11,3.24-3.74,5.46-5.46,9C433.75,71.28,435.98,67.64,435.77,64.71z"/>
	<path d="M452.05,62.49c-3.24,2.53-3.84,3.94-2.93,6.57C450.53,67.14,451.85,65.42,452.05,62.49z"/>
	<path d="M484.7,75.73c0.51,3.03,2.43,3.94,4.85,4.85c0.51-0.51,0.91-1.01,1.42-1.52C487.74,80.28,487.23,76.54,484.7,75.73z"/>
	<path d="M451.14,85.23c0.3-3.03,0.2-5.36-0.91-7.48C449.93,80.08,449.73,82.4,451.14,85.23z"/>
	<path d="M438,91.4c1.11-1.01,3.44-1.01,3.54-3.94C439.41,88.26,438.3,89.48,438,91.4z"/>
	<path d="M430.62,75.32c-1.42,0.61-2.22,1.42-2.63,3.34C429.61,77.55,430.52,76.94,430.62,75.32z"/>
	<path d="M432.03,92.92c-1.6,1.07,0.44,1.57,1.11,0C432.74,92.51,432.34,92.51,432.03,92.92z"/>
	<path d="M425.26,249.91c2.02-3.13,1.62-11.02-0.51-14.05C424.75,240.51,424.35,244.96,425.26,249.91z"/>
	<path d="M430.32,156.81c-1.72,1.82-4.14,4.25-6.07,6.27C426.47,162.87,429.3,160.04,430.32,156.81z"/>
	<path d="M423.84,183.9c0.3-2.53,1.72-5.05,0.61-7.78C421.32,178.54,421.12,181.88,423.84,183.9z"/>
	<path d="M420.51,163.07c-2.83-3.03-5.16-5.86-7.08-9.1C413.33,158.02,416.57,162.27,420.51,163.07z"/>
	<path d="M424.65,230.71c1.25,0,0.61,1.69,1.62-15.37C424.13,215.34,424.65,213.65,424.65,230.71z"/>
	<path d="M422.13,175c1.52-3.13,3.54-5.86,3.54-9.4C423.74,168.43,421.92,171.36,422.13,175z"/>
	<path d="M434.76,151.95c2.22-2.02,2.33-2.22,2.02-5.46C435.98,148.11,434.56,149.53,434.76,151.95z"/>
	<path d="M421.82,228.58c0.71-2.22,0.3-4.45-0.3-6.57C420.91,224.24,421.42,226.36,421.82,228.58z"/>
	<path d="M416.77,163.98c0.81,1.11,0.61,2.83,2.43,3.24C418.89,165.7,418.28,164.49,416.77,163.98z"/>
	<path d="M424.45,254.46c-0.51,1.42-0.51,2.43,1.01,3.24C425.87,256.28,425.66,255.37,424.45,254.46z"/>
	<path d="M427.18,251.84c2.02,0,3.24,0.61,4.85-0.51C430.21,250.12,429.1,250.82,427.18,251.84z"/>
	<path d="M423.74,185.32c-0.61,1.62-0.71,2.73,0.81,3.54C424.96,187.54,425.16,186.53,423.74,185.32z"/>
	<path d="M425.87,191.28c-1.31,1.62-1.31,1.62,0.1,3.03C426.27,193.3,426.37,192.29,425.87,191.28z"/>
	<path d="M426.47,200.78c1.21-1.21,1.21-2.22,1.72-3.54C426.57,198.15,426.07,198.86,426.47,200.78z"/>
	<path d="M408.98,263.16c-21.18-18.45-48.11,46.72-19.71,65.71c7.28,4.87,17.15-0.99,11.52,0.1c-19.85,3.85-25.35-23.32-20.02-42.76
		c4.42-16.11,17.39-31.34,29.32-19.81c9.18,8.86,6.45,17.08,9.3,21.84C419.7,285.2,419.18,272.04,408.98,263.16z"/>
	<path d="M407.97,283.38c-0.71,0,0.1,1.3-1.21,1.01c-3.83-0.85-5.76,0.2-7.48,3.64c-3.69,7.37,0.84,10.86-1.11,13.24
		C408.19,313.35,418.69,292.5,407.97,283.38z M401.1,302.59c0.4-0.3,0.81-0.2,1.21,0.3C401.81,303.29,401.4,303.09,401.1,302.59z
		 M403.83,303.49c2.22-1.11,3.94-1.92,5.05-3.44C407.97,301.98,406.86,303.49,403.83,303.49z M406.66,299.35
		c-4.65,5.28-9.26-4.05-5.05-11.12C405.94,280.93,412.36,292.89,406.66,299.35z"/>
	<path d="M417.48,307.64c1.21-1.62,1.92-3.34,1.31-5.86C417.27,303.9,417.68,305.82,417.48,307.64z"/>
	<path d="M419.7,295.1c-0.81,1.21-0.61,2.43-0.1,4.14C420.61,296.82,420.61,296.82,419.7,295.1z"/>
	<path d="M419.6,289.75c-0.81,1.31-0.71,2.33-0.1,3.74C420.21,292.17,420.31,291.06,419.6,289.75z"/>
	<path d="M18.36,299.86c3.27,3.55,10.54-0.85,4.55-7.08c2.12-1.92,1.72-4.25,0.81-6.67c-2.53,0.2-4.85-0.51-7.18,0.81
		c0.2,1.82,2.33,0.61,2.22,2.22c0,1.21-2.43,1.42-1.72,3.13c1.11,0.71,1.92-1.72,3.03-0.1C16.94,295.31,16.42,297.75,18.36,299.86z
		 M21.19,288.03c1.62,1.01,1.62,1.01,0.51,2.83C20.38,290.05,20.48,289.14,21.19,288.03z M21.08,294.7c3.41,0,3.12,4.65,0,4.65
		C18.07,299.13,18.09,294.95,21.08,294.7z"/>
	<path d="M19.47,302.79c-2.66,2.19-1.42,4.75-0.61,7.38c2.83,0.1,5.68,0.71,6.77-2.53C27.05,303.47,22.6,300.21,19.47,302.79z
		 M22.1,308.55c-0.71-1.92-0.71-1.92-2.53-2.33c0-1.62,0.91-2.33,2.43-2.33C24.45,303.9,25.52,307.47,22.1,308.55z"/>
	<path d="M461.45,299.25c-1.37-1.64-11.37,4.18-17.69-8.8c-8.17-16.75-2.35-39.4,9-48.83c9.4-7.81,20.4,1.98,22.24,14.56
		c2.38,16.27,3.6-4.97-5.76-15.06c-11.9-12.83-27.74,4.95-30.43,25.68C436.48,284.75,444.69,304.98,461.45,299.25z"/>
	<path d="M464.18,258.1c-4.07-1.42-8.1,6.07-6.57,12.23c0.32,1.31,0.71,2.43-0.1,3.54c6.34,7.8,15.03,0.62,12.13-11.93
		C468.9,258.72,466.2,258.81,464.18,258.1z M460.44,271.95c-2.83-3.54-1.31-9.91,3.13-12.13
		C471.27,264.55,464.99,277.64,460.44,271.95z M463.78,275.39c0.51-0.51,1.01-0.91,1.92-0.81
		C465.29,275.59,464.69,275.79,463.78,275.39z M467.21,273.17c-0.7-0.35-0.33-0.37,0.4-1.11
		C468.07,272.51,468.06,271.9,467.21,273.17z"/>
	<path d="M475.2,279.23c0.81-1.42,1.82-2.83,0.81-4.85C474.7,276.1,475,277.72,475.2,279.23z"/>
	<path d="M477.12,271.55c0.91-1.11,0.81-2.22,0.1-3.94C476.52,269.43,476.21,270.44,477.12,271.55z"/>
	<path d="M476.92,266.8c0.61-1.21,0.81-2.12,0-3.23C476.11,264.57,476.31,265.58,476.92,266.8z"/>
	<path d="M430.42,120.11c-0.4-3.03-1.92-5.66-4.04-7.89C427.08,115.16,428.5,117.68,430.42,120.11z"/>
	<path d="M442.75,114.65c-0.81-1.82-1.01-3.84-2.63-5.26C440.12,111.52,441.23,113.24,442.75,114.65z"/>
	<path d="M436.79,121.22c1.52,0.3,2.63,0.4,3.64-1.21C439.01,119.81,437.9,119.91,436.79,121.22z"/>
	<path d="M438.81,105.75c-0.1,1.42,0.2,2.73,1.31,3.64C440.32,107.98,439.62,106.87,438.81,105.75z"/>
	<path d="M444.87,105.35c0.51,1.21,0.71,2.22,2.33,3.13C446.59,106.87,446.69,105.75,444.87,105.35z"/>
	<path d="M451.75,107.07c0.71,1.52,0.81,2.63,2.33,2.63C453.77,108.58,453.26,107.78,451.75,107.07z"/>
	<path d="M431.22,122.43c1.01,0.61,1.31,0.1,1.72-0.71C431.93,121.12,431.53,121.73,431.22,122.43z"/>
	<path d="M229.14,249c-2.02-1.01-3.94-1.92-5.86-2.83C224.99,249.51,226.71,250.22,229.14,249z"/>
	<path d="M400.19,238.19c2.53,0.61,5.05,1.11,7.48-0.3C405.14,237.08,402.62,237.18,400.19,238.19z"/>
	<path d="M734.31,319.47c-2.91,2.44,4.61,11.01,4.85,17.08c1.82-4.75,2.83-9.4-0.2-14.66C766.74,334.46,736.38,317.73,734.31,319.47
		z"/>
	<path d="M667.48,296.62c-0.3,3.13,1.11,5.26,3.94,6.17c-0.2-1.82-2.44-2.43-2.33-4.14c0.18-2.83-1.01-4.95-2.83-6.27
		c-0.4-3.34,3.03-5.56,1.21-8.9C662.12,288.33,662.23,293.59,667.48,296.62z"/>
	<path d="M743.4,290.25c5.97,0.8,12.03-0.2,17.99,1.42c-5.56-3.94-30.93-3.23-35.89,1.01C731.68,291.57,737.24,289.43,743.4,290.25z
		"/>
	<path d="M736.73,312.69c-0.29-2.03-6.09-1.94-12.13-9.91c-0.39-0.52-0.91-1.01-1.72-0.91
		C725.41,308.45,732.79,314.21,736.73,312.69z"/>
	<path d="M675.57,338.98c-3.24-4.45-2.43-10.72-6.67-14.86C670.92,329.17,672.13,334.53,675.57,338.98z"/>
	<path d="M764.43,288.84c-0.51-4.14-4.45-7.58-9.81-8.59C758.37,282.37,761.6,284.99,764.43,288.84z"/>
	<path d="M666.88,305.82c-1.72,2.93-0.71,5.76,2.73,7.48C668.59,310.77,668.7,308.25,666.88,305.82z"/>
	<path d="M674.96,303.29c0.2,3.64,1.92,5.96,5.66,6.87C678.1,308.04,676.88,305.52,674.96,303.29z"/>
	<path d="M684.57,280.04c0.51,3.24-0.81,5.56-3.13,7.68C685.07,288.23,685.68,287.02,684.57,280.04z"/>
	<path d="M699.73,387.1c-1.21,3.34,2.53,5.05,2.33,8.09C704.48,391.45,699.33,390.13,699.73,387.1z"/>
	<path d="M663.34,296.11c-0.2,3.44,0.61,5.56,2.93,8.29C665.56,301.78,665.56,298.84,663.34,296.11z"/>
	<path d="M664.45,311.28c-0.1-2.53-0.4-5.16-2.02-7.38C662.53,306.53,662.33,309.26,664.45,311.28z"/>
	<path d="M670.31,314.82c1.21,2.33,0.91,5.46,3.74,6.77C671.63,319.97,673.04,316.33,670.31,314.82z"/>
	<path d="M756.65,306.12c3.35,0.3,5.63-1.85,4.55-2.93C759.68,304.2,758.16,305.11,756.65,306.12z"/>
	<path d="M681.94,295.91c0.91,1.31,1.11,2.83,3.44,3.13C684.06,296.32,684.06,296.32,681.94,295.91z"/>
	<path d="M690.33,370.92c-0.61-1.92-1.82-2.53-3.84-3.13C687.5,369.61,688.21,370.82,690.33,370.92z"/>
	<path d="M722.28,283.68c-1.31,0.61-1.82,1.72-2.43,3.54C722.38,285.6,722.38,285.6,722.28,283.68z"/>
	<path d="M768.88,333.32c0.81,0.81,1.72,1.52,3.34,1.11C771.31,333.22,770.3,332.91,768.88,333.32z"/>
	<path d="M717.22,291.57c1.31-0.1,1.82-0.71,2.12-2.33C717.93,289.75,717.22,290.25,717.22,291.57z"/>
	<path d="M652.32,291.16c2.12-0.2,2.43-1.52,2.53-2.83C653.83,288.94,652.62,289.24,652.32,291.16z"/>
	<path d="M706.3,397.41c-1.01,0.3-2.83-1.21-2.83,1.42C704.48,398.73,705.7,398.83,706.3,397.41z"/>
	<path d="M724.5,292.98c-1.52-0.3-2.33,0.3-3.23,1.01C722.28,294.09,723.59,294.7,724.5,292.98z"/>
	<path d="M661.01,298.04c-0.1,0.71-0.51,1.31,0.71,1.92C662.53,298.95,662.02,298.44,661.01,298.04z"/>
	<path d="M687.7,303.8c0.71-0.91,0.3-1.52-0.71-1.92C686.59,302.89,686.39,303.6,687.7,303.8z"/>
	<path d="M759.78,330.89c0.81,0.1,1.01,0.71,1.72,0.3C761.2,330.69,760.79,330.49,759.78,330.89z"/>
	<path d="M664.75,313.6c0.51-0.91-0.1-1.52-0.3-2.22C664.55,312.09,664.25,312.9,664.75,313.6z"/>
	<path d="M721.57,299.75c-0.4,1.42,0.71,1.62,1.42,2.02C722.98,300.97,722.78,300.06,721.57,299.75z"/>
	<path d="M697.31,382.65c0.2-0.61,0.1-1.21-0.4-1.72c-0.2,0.1-0.4,0.2-0.71,0.3C696.5,381.74,696.09,382.55,697.31,382.65z"/>
	<path d="M773.43,269.12c0.3,0.61,0.71,0.81,1.31,0.61C774.64,268.82,774.14,268.62,773.43,269.12z"/>
	<path d="M751.69,419.25l-0.1-0.1C751.4,419.39,751.44,419.25,751.69,419.25z"/>
	<path d="M748.16,375.58c-0.1,0.03,0.02-0.2-0.3,1.11c-7.76-5.82-13.11,7.15-7.58,13.85c0.91,1.11,0.3,2.22,0.4,3.13
		C752.66,402.01,757.39,382.5,748.16,375.58z M743,393.57c0.91-0.1,1.42,0.1,1.82,0.71C744.01,394.78,743.51,394.58,743,393.57z
		 M746.84,394.88c0.2-1.62,0.81-1.62,1.42-1.62C748.16,394.18,747.45,393.67,746.84,394.88z M748.16,393.27
		c0.51-0.71,1.11-1.42,2.02-2.63C749.98,392.26,749.67,393.27,748.16,393.27z M749.07,385.79c-0.27,7.61-6.22,8.01-8.39,1.11
		C736.87,374.82,749.51,373.03,749.07,385.79z"/>
	<path d="M760.89,394.78c0.61-1.82,1.11-3.64-0.4-5.36C759.88,392.15,759.88,392.15,760.89,394.78z"/>
	<path d="M760.29,382.35c-0.4,1.42-0.51,2.73,0.81,4.14C761.6,384.67,760.79,383.56,760.29,382.35z"/>
	<path d="M759.78,381.24c-0.1-1.72-0.2-2.93-1.21-3.84C758.47,378.61,758.16,379.92,759.78,381.24z"/>
	<path d="M746.11,375.03c0.03,0.03,1.27,0.14,1.43,0.04c-1.01-2.12-2.73-1.11-4.25-1.31C744,374.76,745.5,373.58,746.11,375.03z"/>
	<path d="M746.03,374.97l0.1,0.1C746.01,374.95,746.03,374.97,746.03,374.97z"/>
	<path d="M396.75,503.86c2.02-1.92,1.62-4.14,0.91-6.37c-4.25-0.71-5.86-0.4-7.28,1.11c0.4,1.01,2.02,0,2.22,1.52
		c0.1,1.31-2.33,1.42-1.82,3.13c1.11,1.11,1.92-1.52,3.03-0.1C383.52,515.45,406.21,514.45,396.75,503.86z M395.34,498.71
		c1.72,1.01,1.31,1.92,0.3,3.44C394.33,500.83,394.33,499.92,395.34,498.71z M394.93,505.78c3.27-0.25,3.2,4.87,0,4.65
		C391.92,510.23,391.94,506.01,394.93,505.78z"/>
	<path d="M393.42,513.77c-2.71,2.14-1.52,4.65-0.71,7.38c2.73,0.1,5.54,0.8,6.77-2.43C401.1,514.48,396.44,511.39,393.42,513.77z
		 M396.15,519.43c-1.11-0.4-0.2-1.42-0.91-1.82c-0.51-0.61-1.31,0.4-1.82-0.3c-0.19-2.98,3.78-3.12,4.45-1.11
		C398.37,517.71,397.96,518.83,396.15,519.43z"/>
	<path d="M802.14,338.07c0.61,3.03,2.22,5.66,3.94,8.19C805.98,343.02,804.06,340.5,802.14,338.07z"/>
	<path d="M819.02,341.51c-0.25-1.46,0.73,2.3-4.25-9.91C815.03,333.64,817.05,342.1,819.02,341.51z"/>
	<path d="M826.4,332.61c1.21,1.31,2.12,2.53,3.54,4.14C828.73,333.42,828.73,333.42,826.4,332.61z"/>
	<path d="M815.89,346.46c-1.11-0.1-2.22-0.3-3.44,0.71C814.07,348.08,814.98,347.47,815.89,346.46z"/>
	<path d="M822.97,334.43c-0.61-1.31-0.51-2.43-2.12-3.13C821.05,332.61,821.25,333.62,822.97,334.43z"/>
	<path d="M808.71,348.28c0-0.93-1.49-0.81-1.62,0.3C807.8,349.29,808.21,348.58,808.71,348.28z"/>
	<path d="M748.66,475.36c-3.03,1.92,0.61,4.04-0.51,6.07c3.13,1.01,4.24,0.71,4.85-0.91C753.81,478.39,752.3,476.57,748.66,475.36z"
		/>
	<path d="M662.93,336.87c1.15-1.19,0.55-0.9-0.34-0.85c-2.68,0.16-4.89,0.47-6.95,2.46C658.18,338.79,661.15,338.72,662.93,336.87z"
		/>
	<path d="M653.13,370.52c0.51-1.21,1.01-2.43,0.4-4.14C651.71,367.89,651.91,369.21,653.13,370.52z"/>
	<path d="M655.86,365.06c0.91-0.91,1.11-1.72-0.1-2.53C655.15,363.85,655.15,363.85,655.86,365.06z"/>
	<path d="M721.16,351.51c-0.3-1.21-0.51-2.63-2.12-3.03C718.74,350.5,719.75,351.21,721.16,351.51z"/>
	<path d="M612.49,474.14c-1.82-1.42-4.04-1.52-6.17-1.82C608.04,473.94,610.06,474.85,612.49,474.14z"/>
	<path d="M403.63,297.53c1.62-2.02-1.52-5.76,2.12-7.18c1.52,1.31,0.2,3.34,1.52,4.55c1.11-2.93,1.11-3.24-0.3-6.17
		C401.65,286.38,399.64,293.16,403.63,297.53z"/>
	<path d="M462.46,270.44c1.62-1.82-1.52-5.16,2.02-6.57c1.21,1.31,0.3,2.93,1.31,4.14C469.55,258.15,455.31,261.4,462.46,270.44z"/>
	<path d="M741.58,381.44c-0.71,2.43,0.81,5.56,3.44,7.08c-0.91-6.37-0.91-6.37,0.71-7.08c1.31,0.81,0.71,2.63,2.33,3.94
		C748.68,377.59,742.65,377.79,741.58,381.44z"/>
<path fill="#e6e6e6" d="m206.8 163.6c0-5.1 4.1-9.2 9.3-9.2s9.2 4.2 9.2 9.2-4.1 9.2-9.3 9.2-9.2-4.1-9.2-9.2zm17.3-.1c0-4.5-3.5-8.2-8.2-8.2s-8.2 3.7-8.2 8.3c0 4.5 3.5 8.2 8.2 8.2s8.2-3.7 8.2-8.3zm-13 0c0-2.8 2.1-5.1 5.1-5.1 1.9 0 2.9.6 3.9 1.5l-1.4 1.7c-.8-.7-1.5-1.1-2.5-1.1-1.7 0-2.8 1.4-2.8 3.1s1.1 3 2.8 3c1.1 0 1.7-.5 2.5-1.1l1.4 1.4c-1.1 1.1-2.1 1.7-4 1.7-2.9 0-5-2.3-5-5.1z"/><path fill="#e6e6e6" d="m226.6 154.7h3.4l4.2 13.2 4.4-13.3h2.6l4.4 13.3 4.2-13.2h3.3l-6.2 18h-2.7l-4.4-12.8-4.4 12.8h-2.7z"/><path fill="#e6e6e6" d="m252.8 165.8c0-3.9 3.1-7 7.2-7 4.2 0 7.2 3.2 7.2 7s-3.1 7-7.3 7c-4 0-7.1-3.1-7.1-7zm11.3 0c0-2.3-1.7-4.3-4.2-4.3s-4.1 2-4.1 4.3 1.7 4.3 4.1 4.3c2.7.1 4.2-1.9 4.2-4.3z"/><path fill="#e6e6e6" d="m269.5 159.1h3.1v3c.8-2 2.4-3.4 4.8-3.3v3.2h-.2c-2.7 0-4.6 1.7-4.6 5.4v5.1h-3.1z"/><path fill="#e6e6e6" d="m279.1 153.9h3.1v11.1l5.6-6h3.8l-5.4 5.5 5.5 8h-3.5l-4.1-5.8-1.9 2v3.9h-3.1z"/><path fill="#e6e6e6" d="m291.7 165.8c0-3.9 3.1-7 7.2-7 4.2 0 7.2 3.2 7.2 7s-3.1 7-7.3 7c-4 0-7.1-3.1-7.1-7zm11.3 0c0-2.3-1.7-4.3-4.2-4.3s-4.1 2-4.1 4.3 1.7 4.3 4.1 4.3c2.6.1 4.2-1.9 4.2-4.3z"/><path fill="#e6e6e6" d="m308.2 167.6v-8.6h3.1v7.6c0 2.1 1.1 3.3 2.9 3.3s3-1.3 3-3.3v-7.6h3.1v13.4h-3.1v-2.1c-.8 1.3-2.1 2.3-4.2 2.3-3.1.2-4.8-1.8-4.8-5z"/><path fill="#e6e6e6" d="m323.9 168.8v-7.1h-1.7v-2.6h1.7v-3.7h3.1v3.7h3.6v2.6h-3.6v6.6c0 1.2.6 1.7 1.7 1.7.7 0 1.3-.2 1.9-.5v2.5c-.8.5-1.7.7-2.8.7-2.3 0-3.9-.9-3.9-3.9z"/><path fill="#e6e6e6" d="m333.2 154.7h3.2v15h9.4v2.9h-12.5v-17.9z"/><path fill="#e6e6e6" d="m356 172.5v-1.7c-.9 1.1-2.3 2-4.4 2-2.6 0-4.8-1.4-4.8-4.2 0-3 2.3-4.4 5.4-4.4 1.7 0 2.6.2 3.7.5v-.2c0-1.9-1.2-2.9-3.3-2.9-1.5 0-2.6.3-3.9.8l-.8-2.5c1.5-.7 2.9-1.1 5.1-1.1 4 0 5.9 2.1 5.9 5.7v8zm.1-5.6c-.8-.3-1.9-.5-3.1-.5-2 0-3.1.8-3.1 2.1s1.1 2 2.6 2c2 0 3.5-1.1 3.5-2.9z"/><path fill="#e6e6e6" d="m364.9 170.5v2.1h-3.1v-18.7h3.1v7.4c1-1.4 2.4-2.5 4.5-2.5 3.2 0 6.3 2.5 6.3 7s-3.1 7-6.3 7c-2.1 0-3.5-1.1-4.5-2.3zm7.7-4.7c0-2.6-1.7-4.3-3.9-4.3s-3.9 1.7-3.9 4.4c0 2.6 1.8 4.3 3.9 4.3s3.9-1.7 3.9-4.4z"/><path fill="#e6e6e6" d="m376.9 170.8 1.4-2.1c1.4 1.1 3 1.7 4.4 1.7s2.1-.5 2.1-1.5-1.3-1.4-2.8-1.8c-.1 0-.2-.1-.2-.1-2-.6-4.2-1.4-4.2-4s2.1-4.1 4.8-4.1c1.7 0 3.5.6 5 1.5l-1.2 2.2c-1.3-.8-2.6-1.3-3.8-1.3s-1.9.5-1.9 1.4 1.3 1.4 2.8 1.8c.1 0 .2.1.2.1 2 .6 4.2 1.5 4.2 4 0 2.9-2.2 4.2-5 4.2-1.9 0-4-.7-5.8-2z"/><path fill="#e6e6e6" d="m505.6 163.6c0-5.1 4.1-9.2 9.3-9.2s9.2 4.2 9.2 9.2-4.1 9.2-9.3 9.2-9.2-4.1-9.2-9.2zm17.4-.1c0-4.5-3.5-8.2-8.2-8.2s-8.2 3.7-8.2 8.3c0 4.5 3.5 8.2 8.2 8.2s8.2-3.7 8.2-8.3zm-13.1 0c0-2.8 2.1-5.1 5.1-5.1 1.9 0 2.9.6 3.9 1.5l-1.4 1.7c-.8-.7-1.5-1.1-2.5-1.1-1.7 0-2.8 1.4-2.8 3.1s1.1 3 2.8 3c1.1 0 1.7-.5 2.5-1.1l1.4 1.4c-1.1 1.1-2.1 1.7-4 1.7-2.9 0-5-2.3-5-5.1z"/><path fill="#e6e6e6" d="m525.4 154.7h3.4l4.2 13.2 4.4-13.3h2.6l4.4 13.3 4.2-13.2h3.3l-6.2 18h-2.7l-4.4-12.8-4.4 12.8h-2.7z"/><path fill="#e6e6e6" d="m551.7 165.8c0-3.9 3.1-7 7.2-7 4.2 0 7.2 3.2 7.2 7s-3.1 7-7.3 7c-4.1 0-7.1-3.1-7.1-7zm11.2 0c0-2.3-1.7-4.3-4.2-4.3s-4.1 2-4.1 4.3 1.7 4.3 4.1 4.3c2.7.1 4.2-1.9 4.2-4.3z"/><path fill="#e6e6e6" d="m568.3 159.1h3.1v3c.8-2 2.4-3.4 4.8-3.3v3.2h-.2c-2.7 0-4.6 1.7-4.6 5.4v5.1h-3.1z"/><path fill="#e6e6e6" d="m577.9 153.9h3.1v11.1l5.6-6h3.8l-5.4 5.5 5.5 8h-3.5l-4.1-5.8-1.9 2v3.9h-3.1z"/><path fill="#e6e6e6" d="m590.6 165.8c0-3.9 3.1-7 7.2-7 4.2 0 7.2 3.2 7.2 7s-3.1 7-7.3 7c-4.1 0-7.1-3.1-7.1-7zm11.2 0c0-2.3-1.7-4.3-4.2-4.3s-4.1 2-4.1 4.3 1.7 4.3 4.1 4.3c2.6.1 4.2-1.9 4.2-4.3z"/><path fill="#e6e6e6" d="m607 167.6v-8.6h3.1v7.6c0 2.1 1.1 3.3 2.9 3.3s3-1.3 3-3.3v-7.6h3.1v13.4h-3.1v-2.1c-.8 1.3-2.1 2.3-4.2 2.3-3 .2-4.8-1.8-4.8-5z"/><path fill="#e6e6e6" d="m622.7 168.8v-7.1h-1.7v-2.6h1.7v-3.7h3.1v3.7h3.6v2.6h-3.6v6.6c0 1.2.6 1.7 1.7 1.7.7 0 1.3-.2 1.9-.5v2.5c-.8.5-1.7.7-2.8.7-2.3 0-3.9-.9-3.9-3.9z"/><path fill="#e6e6e6" d="m632 154.7h3.2v15h9.4v2.9h-12.6z"/><path fill="#e6e6e6" d="m654.8 172.5v-1.7c-.9 1.1-2.3 2-4.4 2-2.6 0-4.8-1.4-4.8-4.2 0-3 2.3-4.4 5.4-4.4 1.7 0 2.6.2 3.7.5v-.2c0-1.9-1.2-2.9-3.3-2.9-1.5 0-2.6.3-3.9.8l-.8-2.5c1.5-.7 2.9-1.1 5.1-1.1 4 0 5.9 2.1 5.9 5.7v8zm.1-5.6c-.8-.3-1.9-.5-3.1-.5-2 0-3.1.8-3.1 2.1s1.1 2 2.6 2c2 0 3.5-1.1 3.5-2.9z"/><path fill="#e6e6e6" d="m663.7 170.5v2.1h-3.1v-18.7h3.1v7.4c1-1.4 2.4-2.5 4.5-2.5 3.2 0 6.3 2.5 6.3 7s-3.1 7-6.3 7c-2.1 0-3.5-1.1-4.5-2.3zm7.8-4.7c0-2.6-1.7-4.3-3.9-4.3-2.1 0-3.9 1.7-3.9 4.4 0 2.6 1.8 4.3 3.9 4.3s3.9-1.7 3.9-4.4z"/><path fill="#e6e6e6" d="m675.8 170.8 1.4-2.1c1.4 1.1 3 1.7 4.4 1.7s2.1-.5 2.1-1.5-1.3-1.4-2.8-1.8c-.1 0-.2-.1-.2-.1-2-.6-4.2-1.4-4.2-4s2.1-4.1 4.8-4.1c1.7 0 3.5.6 5 1.5l-1.2 2.2c-1.3-.8-2.6-1.3-3.8-1.3s-1.9.5-1.9 1.4 1.3 1.4 2.8 1.8c.1 0 .2.1.2.1 2 .6 4.2 1.5 4.2 4 0 2.9-2.2 4.2-5 4.2-2 0-4.1-.7-5.8-2z"/><path fill="#e6e6e6" d="m61 298.6c0-5.1 4.1-9.2 9.3-9.2s9.2 4.2 9.2 9.2-4.1 9.2-9.3 9.2c-5.1 0-9.2-4.2-9.2-9.2zm17.4-.1c0-4.5-3.5-8.2-8.2-8.2s-8.2 3.7-8.2 8.3c0 4.5 3.5 8.2 8.2 8.2s8.2-3.7 8.2-8.3zm-13.1-.1c0-2.8 2.1-5.1 5.1-5.1 1.9 0 2.9.6 3.9 1.5l-1.4 1.7c-.8-.7-1.5-1.1-2.5-1.1-1.7 0-2.8 1.4-2.8 3.1s1.1 3 2.8 3c1.1 0 1.7-.5 2.5-1.1l1.4 1.4c-1.1 1.1-2.1 1.7-4 1.7-2.8.1-5-2.2-5-5.1z"/><path fill="#e6e6e6" d="m80.9 289.7h3.4l4.2 13.2 4.4-13.3h2.6l4.4 13.3 4.2-13.2h3.3l-6.2 18h-2.7l-4.4-12.8-4.4 12.8h-2.7z"/><path fill="#e6e6e6" d="m107.1 300.8c0-3.9 3.1-7 7.2-7s7.2 3.2 7.2 7-3.1 7-7.3 7c-4 0-7.1-3.1-7.1-7zm11.3 0c0-2.3-1.7-4.3-4.2-4.3s-4.1 2-4.1 4.3 1.7 4.3 4.1 4.3c2.6.1 4.2-1.9 4.2-4.3z"/><path fill="#e6e6e6" d="m123.7 294h3.1v3c.8-2 2.4-3.4 4.8-3.3v3.2h-.2c-2.7 0-4.6 1.7-4.6 5.4v5.1h-3.1z"/><path fill="#e6e6e6" d="m133.4 288.9h3.1v11.1l5.6-6h3.8l-5.4 5.5 5.5 8h-3.5l-4.1-5.8-1.9 1.9v3.9h-3.1z"/><path fill="#e6e6e6" d="m146 300.8c0-3.9 3.1-7 7.2-7s7.2 3.2 7.2 7-3.1 7-7.3 7c-4.1 0-7.1-3.1-7.1-7zm11.2 0c0-2.3-1.7-4.3-4.2-4.3s-4.1 2-4.1 4.3 1.7 4.3 4.1 4.3c2.6.1 4.2-1.9 4.2-4.3z"/><path fill="#e6e6e6" d="m162.4 302.6v-8.6h3.1v7.6c0 2.1 1.1 3.3 2.9 3.3s3-1.3 3-3.3v-7.6h3.1v13.4h-3.1v-2.1c-.8 1.3-2.1 2.3-4.2 2.3-3 .2-4.8-1.8-4.8-5z"/><path fill="#e6e6e6" d="m178.1 303.8v-7.1h-1.7v-2.7h1.7v-3.7h3.1v3.7h3.6v2.6h-3.6v6.6c0 1.2.6 1.7 1.7 1.7.7 0 1.3-.2 1.9-.5v2.5c-.8.5-1.7.7-2.8.7-2.3.1-3.9-.9-3.9-3.8z"/><path fill="#e6e6e6" d="m187.4 289.7h3.2v15h9.4v2.9h-12.5v-17.9z"/><path fill="#e6e6e6" d="m210.2 307.5v-1.7c-.9 1.1-2.3 2-4.4 2-2.6 0-4.8-1.4-4.8-4.2 0-3 2.3-4.4 5.4-4.4 1.7 0 2.6.2 3.7.5v-.2c0-1.9-1.2-2.9-3.3-2.9-1.5 0-2.6.3-3.9.8l-.8-2.5c1.5-.7 2.9-1.1 5.1-1.1 4 0 5.9 2.1 5.9 5.7v8zm.1-5.6c-.8-.3-1.9-.5-3.1-.5-2 0-3.1.8-3.1 2.1s1.1 2 2.6 2c2 0 3.5-1.1 3.5-2.9z"/><path fill="#e6e6e6" d="m219.2 305.5v2.1h-3.1v-18.7h3.1v7.4c1-1.4 2.4-2.5 4.5-2.5 3.2 0 6.3 2.5 6.3 7s-3.1 7-6.3 7c-2.2 0-3.6-1.1-4.5-2.3zm7.7-4.7c0-2.6-1.7-4.3-3.9-4.3s-3.9 1.7-3.9 4.4c0 2.6 1.8 4.3 3.9 4.3s3.9-1.7 3.9-4.4z"/><path fill="#e6e6e6" d="m231.2 305.8 1.4-2.1c1.4 1.1 3 1.7 4.4 1.7s2.1-.5 2.1-1.5-1.3-1.4-2.8-1.8c-.1 0-.2-.1-.2-.1-2-.6-4.2-1.4-4.2-4s2.1-4.1 4.8-4.1c1.7 0 3.5.6 5 1.5l-1.2 2.2c-1.3-.8-2.6-1.3-3.8-1.3s-1.9.5-1.9 1.4 1.3 1.4 2.8 1.8c.1 0 .2.1.2.1 2 .6 4.2 1.5 4.2 4 0 2.9-2.2 4.2-5 4.2-2 0-4.1-.7-5.8-2z"/><path fill="#e6e6e6" d="m360.6 298.6c0-5.1 4.1-9.2 9.3-9.2s9.2 4.2 9.2 9.2-4.1 9.2-9.3 9.2-9.2-4.2-9.2-9.2zm17.4-.1c0-4.5-3.5-8.2-8.2-8.2s-8.2 3.7-8.2 8.3c0 4.5 3.5 8.2 8.2 8.2s8.2-3.7 8.2-8.3zm-13.1-.1c0-2.8 2.1-5.1 5.1-5.1 1.9 0 2.9.6 3.9 1.5l-1.4 1.7c-.8-.7-1.5-1.1-2.5-1.1-1.7 0-2.8 1.4-2.8 3.1s1.1 3 2.8 3c1.1 0 1.7-.5 2.5-1.1l1.4 1.4c-1.1 1.1-2.1 1.7-4 1.7-2.8.1-5-2.2-5-5.1z"/><path fill="#e6e6e6" d="m380.5 289.7h3.4l4.2 13.2 4.4-13.3h2.6l4.4 13.3 4.2-13.2h3.3l-6.2 18h-2.7l-4.4-12.8-4.4 12.8h-2.7z"/><path fill="#e6e6e6" d="m406.7 300.8c0-3.9 3.1-7 7.2-7 4.2 0 7.2 3.2 7.2 7s-3.1 7-7.3 7c-4.1 0-7.1-3.1-7.1-7zm11.3 0c0-2.3-1.7-4.3-4.2-4.3s-4.1 2-4.1 4.3 1.7 4.3 4.1 4.3c2.7.1 4.2-1.9 4.2-4.3z"/><path fill="#e6e6e6" d="m423.3 294h3.1v3c.8-2 2.4-3.4 4.8-3.3v3.2h-.2c-2.7 0-4.6 1.7-4.6 5.4v5.1h-3.1z"/><path fill="#e6e6e6" d="m433 288.9h3.1v11.1l5.6-6h3.8l-5.4 5.5 5.5 8h-3.5l-4.1-5.8-1.9 2v3.9h-3.1z"/><path fill="#e6e6e6" d="m445.6 300.8c0-3.9 3.1-7 7.2-7 4.2 0 7.2 3.2 7.2 7s-3.1 7-7.3 7c-4.1 0-7.1-3.1-7.1-7zm11.3 0c0-2.3-1.7-4.3-4.2-4.3s-4.1 2-4.1 4.3 1.7 4.3 4.1 4.3c2.6.1 4.2-1.9 4.2-4.3z"/><path fill="#e6e6e6" d="m462.1 302.6v-8.6h3.1v7.6c0 2.1 1.1 3.3 2.9 3.3s3-1.3 3-3.3v-7.6h3.1v13.4h-3.1v-2.1c-.8 1.3-2.1 2.3-4.2 2.3-3.1.2-4.8-1.8-4.8-5z"/><path fill="#e6e6e6" d="m477.8 303.8v-7.1h-1.8v-2.7h1.7v-3.7h3.1v3.7h3.6v2.6h-3.6v6.6c0 1.2.6 1.7 1.7 1.7.7 0 1.3-.2 1.9-.5v2.5c-.8.5-1.7.7-2.8.7-2.2.1-3.8-.9-3.8-3.8z"/><path fill="#e6e6e6" d="m487.1 289.7h3.2v15h9.4v2.9h-12.5v-17.9z"/><path fill="#e6e6e6" d="m509.9 307.5v-1.7c-.9 1.1-2.3 2-4.4 2-2.6 0-4.8-1.4-4.8-4.2 0-3 2.3-4.4 5.4-4.4 1.7 0 2.6.2 3.7.5v-.2c0-1.9-1.2-2.9-3.3-2.9-1.5 0-2.6.3-3.9.8l-.8-2.5c1.5-.7 2.9-1.1 5.1-1.1 4 0 5.9 2.1 5.9 5.7v8zm.1-5.6c-.8-.3-1.9-.5-3.1-.5-2 0-3.1.8-3.1 2.1s1.1 2 2.6 2c2 0 3.5-1.1 3.5-2.9z"/><path fill="#e6e6e6" d="m518.8 305.5v2.1h-3.1v-18.7h3.1v7.4c1-1.4 2.4-2.5 4.5-2.5 3.2 0 6.3 2.5 6.3 7s-3.1 7-6.3 7c-2.2 0-3.5-1.1-4.5-2.3zm7.7-4.7c0-2.6-1.7-4.3-3.9-4.3s-3.9 1.7-3.9 4.4c0 2.6 1.8 4.3 3.9 4.3s3.9-1.7 3.9-4.4z"/><path fill="#e6e6e6" d="m530.8 305.8 1.4-2.1c1.4 1.1 3 1.7 4.4 1.7s2.1-.5 2.1-1.5-1.3-1.4-2.8-1.8c-.1 0-.2-.1-.2-.1-2-.6-4.2-1.4-4.2-4s2.1-4.1 4.8-4.1c1.7 0 3.5.6 5 1.5l-1.2 2.2c-1.3-.8-2.6-1.3-3.8-1.3s-1.9.5-1.9 1.4 1.3 1.4 2.8 1.8c.1 0 .2.1.2.1 2 .6 4.2 1.5 4.2 4 0 2.9-2.2 4.2-5 4.2-1.9 0-4.1-.7-5.8-2z"/><path fill="#e6e6e6" d="m659.5 298.6c0-5.1 4.1-9.2 9.3-9.2s9.2 4.2 9.2 9.2-4.1 9.2-9.3 9.2-9.2-4.2-9.2-9.2zm17.3-.1c0-4.5-3.5-8.2-8.2-8.2s-8.2 3.7-8.2 8.3c0 4.5 3.5 8.2 8.2 8.2 4.8 0 8.2-3.7 8.2-8.3zm-13-.1c0-2.8 2.1-5.1 5.1-5.1 1.9 0 2.9.6 3.9 1.5l-1.4 1.7c-.8-.7-1.5-1.1-2.5-1.1-1.7 0-2.8 1.4-2.8 3.1s1.1 3 2.8 3c1.1 0 1.7-.5 2.5-1.1l1.4 1.4c-1.1 1.1-2.1 1.7-4 1.7-2.9.1-5-2.2-5-5.1z"/><path fill="#e6e6e6" d="m679.3 289.7h3.4l4.2 13.2 4.4-13.3h2.6l4.4 13.3 4.2-13.2h3.3l-6.2 18h-2.6l-4.4-12.8-4.4 12.8h-2.7z"/><path fill="#e6e6e6" d="m705.5 300.8c0-3.9 3.1-7 7.2-7 4.2 0 7.2 3.2 7.2 7s-3.1 7-7.3 7c-4 0-7.1-3.1-7.1-7zm11.3 0c0-2.3-1.7-4.3-4.2-4.3s-4.1 2-4.1 4.3 1.7 4.3 4.1 4.3c2.7.1 4.2-1.9 4.2-4.3z"/><path fill="#e6e6e6" d="m722.1 294h3.1v3c.8-2 2.4-3.4 4.8-3.3v3.2h-.2c-2.7 0-4.6 1.7-4.6 5.4v5.1h-3.1z"/><path fill="#e6e6e6" d="m731.8 288.9h3.1v11.1l5.6-6h3.8l-5.4 5.5 5.5 8h-3.5l-4.1-5.8-1.9 2v3.9h-3.1z"/><path fill="#e6e6e6" d="m744.4 300.8c0-3.9 3.1-7 7.2-7 4.2 0 7.2 3.2 7.2 7s-3.1 7-7.3 7c-4.1 0-7.1-3.1-7.1-7zm11.3 0c0-2.3-1.7-4.3-4.2-4.3s-4.1 2-4.1 4.3 1.7 4.3 4.1 4.3c2.6.1 4.2-1.9 4.2-4.3z"/><path fill="#e6e6e6" d="m760.9 302.6v-8.6h3.1v7.6c0 2.1 1.1 3.3 2.9 3.3s3-1.3 3-3.3v-7.6h3.1v13.4h-3.1v-2.1c-.8 1.3-2.1 2.3-4.2 2.3-3.1.2-4.8-1.8-4.8-5z"/><path fill="#e6e6e6" d="m776.6 303.8v-7.1h-1.7v-2.7h1.7v-3.7h3.1v3.7h3.6v2.6h-3.6v6.6c0 1.2.6 1.7 1.7 1.7.7 0 1.3-.2 1.9-.5v2.5c-.8.5-1.7.7-2.8.7-2.3.1-3.9-.9-3.9-3.8z"/><path fill="#e6e6e6" d="m785.9 289.7h3.2v15h9.4v2.9h-12.5v-17.9z"/><path fill="#e6e6e6" d="m808.7 307.5v-1.7c-.9 1.1-2.3 2-4.4 2-2.6 0-4.8-1.4-4.8-4.2 0-3 2.3-4.4 5.4-4.4 1.7 0 2.6.2 3.7.5v-.2c0-1.9-1.2-2.9-3.3-2.9-1.5 0-2.6.3-3.9.8l-.8-2.5c1.5-.7 2.9-1.1 5.1-1.1 4 0 5.9 2.1 5.9 5.7v8zm.1-5.6c-.8-.3-1.9-.5-3.1-.5-2 0-3.1.8-3.1 2.1s1.1 2 2.6 2c2 0 3.5-1.1 3.5-2.9z"/><path fill="#e6e6e6" d="m817.6 305.5v2.1h-3.1v-18.7h3.1v7.4c1-1.4 2.4-2.5 4.5-2.5 3.2 0 6.3 2.5 6.3 7s-3.1 7-6.3 7c-2.1 0-3.5-1.1-4.5-2.3zm7.7-4.7c0-2.6-1.7-4.3-3.9-4.3-2.1 0-3.9 1.7-3.9 4.4 0 2.6 1.8 4.3 3.9 4.3 2.2 0 3.9-1.7 3.9-4.4z"/><path fill="#e6e6e6" d="m829.6 305.8 1.4-2.1c1.4 1.1 3 1.7 4.4 1.7s2.1-.5 2.1-1.5-1.3-1.4-2.8-1.8c-.1 0-.2-.1-.2-.1-2-.6-4.2-1.4-4.2-4s2.1-4.1 4.8-4.1c1.7 0 3.5.6 5 1.5l-1.2 2.2c-1.3-.8-2.6-1.3-3.8-1.3s-1.9.5-1.9 1.4 1.3 1.4 2.8 1.8c.1 0 .2.1.2.1 2 .6 4.2 1.5 4.2 4 0 2.9-2.2 4.2-5 4.2-1.9 0-4-.7-5.8-2z"/><path fill="#e6e6e6" d="m206.3 434.2c0-5.1 4.1-9.2 9.3-9.2s9.2 4.2 9.2 9.2-4.1 9.2-9.3 9.2-9.2-4.1-9.2-9.2zm17.4-.1c0-4.5-3.5-8.2-8.2-8.2s-8.2 3.7-8.2 8.3c0 4.5 3.5 8.2 8.2 8.2s8.2-3.7 8.2-8.3zm-13.1-.1c0-2.8 2.1-5.1 5.1-5.1 1.9 0 2.9.6 3.9 1.5l-1.4 1.7c-.8-.7-1.5-1.1-2.5-1.1-1.7 0-2.8 1.4-2.8 3.1s1.1 3 2.8 3c1.1 0 1.7-.5 2.5-1.1l1.4 1.4c-1.1 1.1-2.1 1.7-4 1.7-2.9.1-5-2.2-5-5.1z"/><path fill="#e6e6e6" d="m226.1 425.3h3.4l4.2 13.2 4.4-13.3h2.6l4.4 13.3 4.2-13.2h3.3l-6.2 18h-2.7l-4.4-12.8-4.4 12.8h-2.7z"/><path fill="#e6e6e6" d="m252.4 436.4c0-3.9 3.1-7 7.2-7 4.2 0 7.2 3.2 7.2 7s-3.1 7-7.3 7c-4.1 0-7.1-3.1-7.1-7zm11.2 0c0-2.3-1.7-4.3-4.2-4.3s-4.1 2-4.1 4.3 1.7 4.3 4.1 4.3c2.7.1 4.2-1.9 4.2-4.3z"/><path fill="#e6e6e6" d="m269 429.7h3.1v3c.8-2 2.4-3.4 4.8-3.3v3.2h-.2c-2.7 0-4.6 1.7-4.6 5.4v5.1h-3.1z"/><path fill="#e6e6e6" d="m278.6 424.5h3.1v11.1l5.6-6h3.8l-5.4 5.5 5.5 8h-3.5l-4.1-5.8-1.9 2v3.9h-3.1z"/><path fill="#e6e6e6" d="m291.3 436.4c0-3.9 3.1-7 7.2-7 4.2 0 7.2 3.2 7.2 7s-3.1 7-7.3 7c-4.1 0-7.1-3.1-7.1-7zm11.2 0c0-2.3-1.7-4.3-4.2-4.3s-4.1 2-4.1 4.3 1.7 4.3 4.1 4.3c2.6.1 4.2-1.9 4.2-4.3z"/><path fill="#e6e6e6" d="m307.7 438.2v-8.6h3.1v7.6c0 2.1 1.1 3.3 2.9 3.3s3-1.3 3-3.3v-7.6h3.1v13.4h-3.1v-2.1c-.8 1.3-2.1 2.3-4.2 2.3-3 .2-4.8-1.8-4.8-5z"/><path fill="#e6e6e6" d="m323.4 439.4v-7.1h-1.7v-2.6h1.7v-3.7h3.1v3.7h3.6v2.6h-3.6v6.6c0 1.2.6 1.7 1.7 1.7.7 0 1.3-.2 1.9-.5v2.5c-.8.5-1.7.7-2.8.7-2.3 0-3.9-.9-3.9-3.9z"/><path fill="#e6e6e6" d="m332.7 425.3h3.2v15h9.4v2.9h-12.5v-17.9z"/><path fill="#e6e6e6" d="m355.5 443.1v-1.7c-.9 1.1-2.3 2-4.4 2-2.6 0-4.8-1.4-4.8-4.2 0-3 2.3-4.4 5.4-4.4 1.7 0 2.6.2 3.7.5v-.2c0-1.9-1.2-2.9-3.3-2.9-1.5 0-2.6.3-3.9.8l-.8-2.5c1.5-.7 2.9-1.1 5.1-1.1 4 0 5.9 2.1 5.9 5.7v8zm.1-5.6c-.8-.3-1.9-.5-3.1-.5-2 0-3.1.8-3.1 2.1s1.1 2 2.6 2c2 0 3.5-1.1 3.5-2.9z"/><path fill="#e6e6e6" d="m364.4 441.1v2.1h-3.1v-18.7h3.1v7.4c1-1.4 2.4-2.5 4.5-2.5 3.2 0 6.3 2.5 6.3 7s-3.1 7-6.3 7c-2.1 0-3.5-1.1-4.5-2.3zm7.7-4.7c0-2.6-1.7-4.3-3.9-4.3-2.1 0-3.9 1.7-3.9 4.4 0 2.6 1.8 4.3 3.9 4.3 2.2 0 3.9-1.7 3.9-4.4z"/><path fill="#e6e6e6" d="m376.5 441.4 1.4-2.1c1.4 1.1 3 1.7 4.4 1.7s2.1-.5 2.1-1.5-1.3-1.4-2.8-1.8c-.1 0-.2-.1-.2-.1-2-.6-4.2-1.4-4.2-4s2.1-4.1 4.8-4.1c1.7 0 3.5.6 5 1.5l-1.2 2.2c-1.3-.8-2.6-1.3-3.8-1.3s-1.9.5-1.9 1.4 1.3 1.4 2.8 1.8c.1 0 .2.1.2.1 2 .6 4.2 1.5 4.2 4 0 2.9-2.2 4.2-5 4.2-2 0-4.1-.7-5.8-2z"/><path fill="#e6e6e6" d="m505.1 434.2c0-5.1 4.1-9.2 9.3-9.2s9.2 4.2 9.2 9.2-4.1 9.2-9.3 9.2-9.2-4.1-9.2-9.2zm17.4-.1c0-4.5-3.5-8.2-8.2-8.2s-8.2 3.7-8.2 8.3c0 4.5 3.5 8.2 8.2 8.2s8.2-3.7 8.2-8.3zm-13.1-.1c0-2.8 2.1-5.1 5.1-5.1 1.9 0 2.9.6 3.9 1.5l-1.4 1.7c-.8-.7-1.5-1.1-2.5-1.1-1.7 0-2.8 1.4-2.8 3.1s1.1 3 2.8 3c1.1 0 1.7-.5 2.5-1.1l1.4 1.4c-1.1 1.1-2.1 1.7-4 1.7-2.9.1-5-2.2-5-5.1z"/><path fill="#e6e6e6" d="m525 425.3h3.4l4.2 13.2 4.4-13.3h2.6l4.4 13.3 4.2-13.2h3.3l-6.2 18h-2.7l-4.4-12.8-4.4 12.8h-2.7z"/><path fill="#e6e6e6" d="m551.2 436.4c0-3.9 3.1-7 7.2-7 4.2 0 7.2 3.2 7.2 7s-3.1 7-7.3 7c-4.1 0-7.1-3.1-7.1-7zm11.2 0c0-2.3-1.7-4.3-4.2-4.3s-4.1 2-4.1 4.3 1.7 4.3 4.1 4.3c2.7.1 4.2-1.9 4.2-4.3z"/><path fill="#e6e6e6" d="m567.8 429.7h3.1v3c.8-2 2.4-3.4 4.8-3.3v3.2h-.2c-2.7 0-4.6 1.7-4.6 5.4v5.1h-3.1z"/><path fill="#e6e6e6" d="m577.5 424.5h3.1v11.1l5.6-6h3.8l-5.4 5.5 5.5 8h-3.5l-4.1-5.8-1.9 2v3.9h-3.1z"/><path fill="#e6e6e6" d="m590.1 436.4c0-3.9 3.1-7 7.2-7 4.2 0 7.2 3.2 7.2 7s-3.1 7-7.3 7c-4.1 0-7.1-3.1-7.1-7zm11.2 0c0-2.3-1.7-4.3-4.2-4.3s-4.1 2-4.1 4.3 1.7 4.3 4.1 4.3c2.6.1 4.2-1.9 4.2-4.3z"/><path fill="#e6e6e6" d="m606.5 438.2v-8.6h3.1v7.6c0 2.1 1.1 3.3 2.9 3.3s3-1.3 3-3.3v-7.6h3.1v13.4h-3.1v-2.1c-.8 1.3-2.1 2.3-4.2 2.3-3 .2-4.8-1.8-4.8-5z"/><path fill="#e6e6e6" d="m622.2 439.4v-7.1h-1.7v-2.6h1.7v-3.7h3.1v3.7h3.6v2.6h-3.6v6.6c0 1.2.6 1.7 1.7 1.7.7 0 1.3-.2 1.9-.5v2.5c-.8.5-1.7.7-2.8.7-2.3 0-3.9-.9-3.9-3.9z"/><path fill="#e6e6e6" d="m631.5 425.3h3.2v15h9.4v2.9h-12.5v-17.9z"/><path fill="#e6e6e6" d="m654.3 443.1v-1.7c-.9 1.1-2.3 2-4.4 2-2.6 0-4.8-1.4-4.8-4.2 0-3 2.3-4.4 5.4-4.4 1.7 0 2.6.2 3.7.5v-.2c0-1.9-1.2-2.9-3.3-2.9-1.5 0-2.6.3-3.9.8l-.8-2.5c1.5-.7 2.9-1.1 5.1-1.1 4 0 5.9 2.1 5.9 5.7v8zm.1-5.6c-.8-.3-1.9-.5-3.1-.5-2 0-3.1.8-3.1 2.1s1.1 2 2.6 2c2 0 3.5-1.1 3.5-2.9z"/><path fill="#e6e6e6" d="m663.3 441.1v2.1h-3.1v-18.7h3.1v7.4c1-1.4 2.4-2.5 4.5-2.5 3.2 0 6.3 2.5 6.3 7s-3.1 7-6.3 7c-2.2 0-3.6-1.1-4.5-2.3zm7.7-4.7c0-2.6-1.7-4.3-3.9-4.3s-3.9 1.7-3.9 4.4c0 2.6 1.8 4.3 3.9 4.3s3.9-1.7 3.9-4.4z"/><path fill="#e6e6e6" d="m675.3 441.4 1.4-2.1c1.4 1.1 3 1.7 4.4 1.7s2.1-.5 2.1-1.5-1.3-1.4-2.8-1.8c-.1 0-.2-.1-.2-.1-2-.6-4.2-1.4-4.2-4s2.1-4.1 4.8-4.1c1.7 0 3.5.6 5 1.5l-1.2 2.2c-1.3-.8-2.6-1.3-3.8-1.3s-1.9.5-1.9 1.4 1.3 1.4 2.8 1.8c.1 0 .2.1.2.1 2 .6 4.2 1.5 4.2 4 0 2.9-2.2 4.2-5 4.2-2 0-4.1-.7-5.8-2z"/></g>
</svg>
