<?xml version="1.0" encoding="utf-8"?>
<!-- Generator: Adobe Illustrator 23.0.1, SVG Export Plug-In . SVG Version: 6.00 Build 0)  -->
<svg version="1.2" baseProfile="tiny" id="Layer_1" xmlns="http://www.w3.org/2000/svg" xmlns:xlink="http://www.w3.org/1999/xlink"
	 x="0px" y="0px" viewBox="0 0 900 600" xml:space="preserve">
<g>
	<path d="M305.93,564.4c-1.3-1.32-1.64-3.22-2.02-5.04c-1.32-6.43-5.06-11.63-8.26-17.13c-0.59-1.02-1.41-0.5-2.02-0.81
		c-1.01-1.91-0.2-4.33-1.21-6.04c-1.41-1.01-2.52,0.4-4.03-0.2c-2.36-33.56,13.99-52.68,14.21-86.34c0.03-4.03,1.41-7.86,1.11-11.89
		c0-0.5,0.42-1.1,0.81-1.61c6.85-9.02,1.92-14.11,4.03-15.92c5.14,0.5,10.48,0,16.32-0.4c-4.74,7.35-12.59,10.28-18.44,15.72
		c9.37-1.91,15.52-8.16,20.96-15.41c16.63-6.77,19.25,1.83,21.32-2.05c-4.93-3.51-10.11-4.72-15.78-1.38
		c-1.23,0.72-22.9,1.56-24.28,1.61c-1.93-7.72,6.63-4.12,11.69-16.72c7.27-18.09,7.89-32.76,26.19-34.36
		c3.66,2.18,19.68,10.95,24.89,11.79c5.64,0.91,12.69,10.78,12.59,16.52c-0.07,4.16-0.08,2.46,3.73,16.72
		c3.74-2.25-1.34-9.46-1.71-16.22c-0.87-15.85-10.07-16.4-36.77-30.12c-6.04-3.1-43.85-23.56-45.64-15.31
		c-0.71-0.4-1.21-0.5-1.41-0.81c-5.72-7.67-15,0.74-18.44-2.12c-2.32-1.71-4.84-2.12-7.56-1.11c-1.41-1.71,0.3-2.72,0.91-3.83
		c3.35-7.6-5.53-5.96-13.2-2.42c-0.1-3.02,1.71-5.24,1.91-7.96c0.94-12.26-6.07-19.42-4.74-27.4c0.99-5.93,0.07-11.78-0.91-17.63
		c-0.62-3.72,0.49-7.55-0.5-11.18c-3.94-14.37-1.06-31-5.24-43.22c-3.45-10.09,3.16-21.99,9.47-30.53
		c16.68-22.56,9.35-62.16,9.37-62.26c3.83-10.78,2.74-21.76,1.91-32.74c-0.59-7.86-4.02-14.81-6.95-21.96
		c-12.4-30.28-6.36-8.12,9.97-25.99c21.15-23.15,2.36-68.76-31.33-56.62c-1.62,0.58-3.12,1.21-4.33,1.61
		c-16.02-4.23-30.12-2.82-40.4,11.38c-14.51-11.08-22.37-11.99-35.26-3.93c-10.21-5.42-29.94-3.7-39.9,10.38
		c-13.82,19.54-6.96,56.56,26.09,59.64c0.74,3.88-0.17,2.78-10.07,38.18c-1.67,5.97-0.57,28.02-0.4,31.74
		c0.86,19.5-2.91,18.43-4.23,31.43c-1.75,17.13,4.69,16.09,2.12,28.11c-5.95,27.81,12.72,37.74,9.07,46.24
		c-4.04,9.39-2.43,13.4-3.43,61.36c-1.85,88.79,4.94,79.73,4.33,91.38c-0.19,3.64,5.68,9.56,8.56,11.49
		c-12.45,18.68-12.54,36.71-30.93,62.16c-3.5,4.84-8.19,15.91-10.98,17.63c-21.26,4.43-43.22,5.24-64.78,11.28
		c-4.06,12.53-5.5,14.07-2.34,15.66c3.22,1.61,6.55,3.02,10.07,3.63c4.23-2.62,9.06-3.05,13.6-3.83c18.94-3.24,21.16-5.8,30.43-5.74
		c8.56,0.05,16.74-2.06,24.89-4.03c11.31-2.74,37.42-3.2,51.28-9.17c4.04-1.74,11.4,0.72,13.5-2.72
		c-31.79,3.58-9.33,2.91-45.03,7.76c-43.42,5.9-22.46,6.12-45.94,6.95c-4.12,0.15-37.74,7.36-38.69,7.66
		c-1.21-1.01,0.5-1.81-0.6-2.62c-2.63,3.94-0.39,5.55-11.99,1.41c-3.15-1.12-2.03-0.27,1.51-13.8c2.29-1.61,4.3,0.58,5.3-0.57
		c11.64,4.02,3.08-0.55,0.2-0.2c1.9-1.9,17-4.19,21.5-4.34c4.96-0.17,27.48-5.35,36.97-5.54c3.73-0.08,7.25,1.81,10.68,1.71
		c1.61,0.91,1.11,2.62,2.42,3.73c0.81-1.71-0.4-2.82-0.5-3.93c-2.92-2.32-6.55-1.21-9.57-3.02c37.24-61.72,27.92-57.74,40.7-78.79
		c2.33,0,8.3,8.03,15.11,3.43c1.45-0.98,7.36-0.64,8.97-0.4c8.86,1.32,6.58-1.31,36.17-1.31c0,4.18,2.59,2.45,3.83,10.48
		c1.17,7.63,7.28,11.23,13.9,16.62c2.67-1.21,0.86-2.12-5.04-7.25c-8.52-7.42-4.89-13.17-6.65-14.61
		c-4.51-3.69,1.08-3.18-9.37-21.36c-1.11,5.04,2.52,9.27,3.22,14.21c-26.56,0-26.02,2.18-42.42,0.81c-4.4-0.37-4.28,4.4-11.89,0.2
		c-7.41-4.09-15.15-10.61-14.51-19.04c0.24-3.18-2.04-3.13-3.53-23.98c-0.01-0.1-0.48-116.94,1.31-122.11
		c1.61,6.75,4.61,12.31,7.86,17.63c9.27,15.19,4.9,15.49,7.46,17.03c6.8,4.08,4.34,10.32,8.87,20.25
		c2.37,5.21,2.92,12.73,2.92,19.95c0,15.51,6.01,15.59,3.32,18.94c-3.38,4.22,2.64,7.34-2.42,12.39c-7.87,7.87,2.06,2.44,1.51,26.7
		c-0.08,3.53-0.81,6.75,1.11,9.67c-0.5,0.91-1.71,0.5-1.71,1.51c1.83,1.42,2.23-2.47,6.55,7.35c0.58,1.32,4.43,3.63,5.74,3.43
		c0.81,0.71-0.3,2.01,0.91,2.52c0.6-0.5-0.1-1.51,0.91-2.12c7.86,1.01,15.72,3.32,24.28,3.73c-1.77-4.88-14.52-4.61-24.08-7.96
		c3.63-10.78,5.24-22.37,14.51-30.63c-8.68,2.26-13.22,22.1-16.02,30.43c-1.21-0.4-2.81-0.11-3.32-1.21
		c-2.25-4.77-7.84-8.26-5.94-14.81c0.3-1.03-1.29-4.34-1.11-9.27c0.31-8.26-6.56-11.99-3.12-16.32c2.72-3.43,4.13-6.85,2.92-11.28
		c1.01,1.21,0.6,2.92,2.01,3.83c1.11-1.61-1.01-3.12,0-4.94c0.71,1.81,1.31,3.53,2.02,5.34c1.41-0.68,8.94-3.96,7.91-2.59
		c-6.66,8.82-14.54,10.43-12.74,15.09c3.02-4.63,7.55-7.26,11.28-10.78c3.12-2.93,4.43-2.52,5.94,2.01
		c-1.61,2.22-4.43,3.12-5.84,5.24c-1.61,0.4-2.82-1.61-4.23-0.1c0.1,1.61,1.51,1.21,2.62,1.61c-2.32,4.23-4.74,8.46-6.04,13.1
		c5.6,1.78,0.51-9.78,16.83-20.15c0.8-0.51,2.12-0.6,2.42-2.02c-1.01-0.71-1.71,0.71-2.82,0.4c-0.55-3.76-3.25-4.83-7.05-4.83
		c1.06-0.7,2.37-0.7,3.44-1.41c-1.51-0.91-1.31-2.62-2.62-3.83c3.12-0.5,3.73,2.32,5.24,3.43c1.18-0.44,0.27-0.94,0.71-1.31
		c-0.01-0.81-1.71-0.81-0.71-2.12c1.51,0.29,0.91,1.3,0.71,2.11c0.78-0.56,1.12-1.56,2.12-1.9c0.9-0.31,1.01,1.01,1.91,0.91
		c0.6-0.2,0.2-1.51,1.21-1.31c1.71,0.71,0.71,1.81,0.1,2.92c3.43-0.6,6.55-0.4,9.07-1.71c0.5-1.21-1.31-1.01-0.4-2.22
		c5.68,1.06,28.53-5.29,33.75-7.86c3.09-1.52,6.65,1.85,11.28,0.6c-0.81-2.01-2.92-1.41-4.23-2.92c2.42-0.2,4.43-0.81,5.54,1.61
		c5.14-0.1,9.27-5.44,15.41-3.02c-1.01,4.23-6.35,5.44-6.85,10.38c1.71-1.11,2.92-1.91,4.23-2.72c1.11,1.61,2.42,2.03,4.13,1.31
		c3.45-1.45,7.1,4.04,11.99,0.4c1.21-0.9,1.71,0.1,2.12,1.01c3.02-2.92,6.35-2.72,7.96,0.5c-2.22,1.51-4.43,3.12-6.85,4.84
		c1.41,0.6,2.01-0.22,2.62-0.6c8.87-5.62,16.39-2.87,39.09,6.55c16.19,6.72,4.48,0.48-2.92,11.59c-1.88,2.51-3.65,0.44-6.55,8.26
		c-7.07,19.08-7.25,21.76-15.52,30.02c-1.21-2.92-2.93-5.34-3.12-7.96c-0.92-12.29-11.43-13.58-15.82-19.34
		c4.74-4.53,10.07-8.26,15.31-12.09c-22.82,11.99-11.84,14.13-23.37,6.75c6.04-2.92,9.47-8.36,15.01-12.09
		c-0.2-2.32,2.62-3.53,3.22-6.25c-4.19,2.87-11.03,11.46-19.95,17.33c-4.03-1.71-6.75-5.54-11.59-5.74
		c-2.12-0.2-4.15-1.98-6.25-2.82c-5.65-2.27-2.42-6.19-10.48-11.49c1.41,3.22,3.63,5.44,4.63,9.27
		c-7.46-4.13-15.73-4.62-21.76-10.28c-2.37-2.22-7.42-3.69-8.56-3.32c-16.66,5.32-16.96,4.72-17.43,7.56
		c15.21-5.07,17.91-7.63,26.9-0.2c-7.52,6.17-13.21,15.39-14.31,18.44c1.38-0.69,8.86-12.22,15.92-17.62
		c1.91,0.5,2.72,2.02,4.23,2.82c1.21-0.1,2.72-1.21,3.53,1.11c-1.61,2.62-3.22,5.44-4.94,8.26c3.43-1.91,4.94-5.14,6.55-8.56
		c33.6,13.96,20.83,9.52,16.93,12.69c-8.02,6.53-19.73,9.18-19.95,24.08c-0.01,0.71,0.4,1.61-0.4,2.22c-0.91-1.01,0-2.42-0.91-3.43
		c-3.46,1.48,3.56,23.35-0.3,34.05c-12.5,34.63,21.28,6.14,17.86,3.51c-5.55,4.35-10.7,9.27-17.65,11.72
		c-1.81-7.86,3.02-14.21,3.43-21.36c6.65-0.3,13,0.81,20.15-0.6c-2.01,4.13-2.12,7.96-5.54,10.07c2.11-0.35,0.22,2.97-0.66,3.69
		c-6.82,17.09-31.23,8.02-27.95,26.74c1.7,9.73,25.02,53.62,28.01,57.73c4.12,5.65,5.04,11.79,3.83,18.54
		c-0.81,0.5-1.01-0.91-1.71-0.71c-1.31,1.81-2.62,3.63-4.03,5.64c-6.4-0.71-1,0.91-0.1,1.91c-3.71,3.71-0.87,10.83-10.68,6.85
		c-11.78-4.77-19.73-3.05-2.62-5.54c5.35-0.78,9.12-0.29,6.25-5.84c-16.28-31.48-39.76-64.01-41-65.59
		c-3.73-4.73-8.88-6.17-14.21-3.12c-3.84,2.2-7.74,4.25-10.98,7.46c-7.23,7.15-7.64,4.71-30.43,22.06
		c-7.64,5.82-12.08,3.17-22.87,1.01c0.3,2.9,3.37,1.93,7.76,3.43c16.97,5.78,28.53-19.11,40.1-16.42c-1.31-1.41-2.52-0.2-3.22-1.21
		c9.01-6.76,3.3-1.39,12.39-1.71c-1.61-1.71-4.03-1.31-5.74-2.72c3.93-4.53,8.77-7.96,13.9-10.58c7.21-3.68,13.58,2.57,17.13,9.47
		c2.81,5.47,32.37,48.95,37.28,60.85c-5.84,2.62-13,0.1-18.44,4.43c7.15,2.02,13.5,5.94,21.16,6.65c-0.71,1.21-1.44,2.69-2.52,3.83
		c-4.96,5.2,1.85,16.33,10.38,18.24c16.29,3.65,13.38,9.49,28.51,14.81c23.74,8.34,45.02-4.17,36.17-11.99
		C313.63,574.09,312.53,571.12,305.93,564.4z M268.25,92.09c6.2,13.54,4.74,27.5,4.74,29.32c0,21.39-4.01,11.81-4.33,20.65
		c1.49-1.89,1.91-4.46,3.57-6.18c0.34,0.18,0.64,0.38,0.46,0.74c-1.51,3.73-0.71,7.66-0.1,11.38c2.01,12.39-1.84,26.52-2.82,33.95
		c-1.17,8.83-3.74,9.98-13.3,24.48c-2.95,4.47-0.98,1.64-2.82,0.91c-2.12,1.61-3.63,3.73-4.63,6.65c2.39-1,3.41-2.88,4.99-4.19
		c-2.29,6.61-3.87,13.41-2.97,20.61c-10.48-11.13-26.29-15.93-36.47-24.48c5.11-16.95,15.92-18.21,19.65-24.68
		c0,3.73-0.1,6.95,2.42,9.57c-1.01-7.35-1.02-14.61,1.21-21.76c2.01-6.45,2.84-13.29,5.14-19.55c6.14-16.68-2.35-10.31,1.81-52.19
		c0.87-8.76,0.3-17.33-3.12-25.69C266.26,59.76,246.79,45.24,268.25,92.09z M212.83,196.87c4.07-0.74,3.38-0.41,0.71,5.24
		C212.53,200.19,213.64,198.38,212.83,196.87z M271.77,61.26c17.33-15.31,14.21-45.34-3.63-57.12
		C290.53,12.9,290.49,52.25,271.77,61.26z M261.7,64.79c-4.13-2.92-5.01-5.67-3.02-9.97c3.46-7.49,2.15-10.03,4.74-14.21
		c4.61-7.44-1.12-9.34-2.72-13.9c-1.97-5.62-4.26-14.26-16.52-22.06C280.93-11.21,297.33,52.63,261.7,64.79z M262,37.48
		c0-2.12,0-3.73,0-5.94C263.51,33.76,263.81,35.27,262,37.48z M244.77,7.16c31.29,22.16,7.28,62.19,3.12,58.03
		c0.1,0.1,0.3,0.2,0.3,0.3c-0.71,0.91-1.41,1.81-3.43,2.02c17.73-13,19-47.06-4.23-62.06C242.66,5.65,243.77,6.45,244.77,7.16z
		 M204.98,14.11c18.13-25.05,57.44-4.53,50.58,32.04c-5.52,29.38-38.35,32.9-49.67,14.51c8.06-14.1,7.25-28.01-0.6-41.91
		c25.36-32.97,65.11,13.02,38.08,43.83c1.81-0.3,2.22-1.11,2.82-1.81c23.29-27.44-10.28-72.52-36.67-48.26
		c-1.73,1.59-3.73,2.92-5.84,4.53C202.56,16.12,204.26,15.11,204.98,14.11z M193.89,10.78c-0.36,0.24,0.12-0.33,3.22,2.12
		c13.42,10.58,16.8,33.03,6.95,47.05c-4.29,6.11-6.59,6.77-4.03,3.43c12.49-16.29,9.69-38.6-6.45-52.19
		c0.32-0.32-0.86,0.26-2.82-1.91C192.18,9.47,193.09,9.88,193.89,10.78z M176.46,68.21c10.97-19.1,7.38-43.2-11.49-55.71
		C183.42,19.05,192.99,50.28,176.46,68.21z M132.74,70.53c-11.17-11.4-14.63-30.64-5.84-45.84c10.15-17.55,32.33-19.43,45.24-3.83
		c10.79,13.04,11.37,31.43,3.32,44.73C166.01,81.22,145.55,83.61,132.74,70.53z M177.17,153.04c-0.2,1.31-1.51,2.12-2.22,4.03
		c-0.3-2.02-0.4-3.12-0.71-5.04C175.26,154.45,176.16,151.73,177.17,153.04z M177.27,149.21c-0.6,0.71-0.1,1.51-1.31,1.21
		C175.86,149.82,176.06,149.52,177.27,149.21z M177.47,162.51c0.2,1.11,0,1.71-1.01,1.91C176.36,163.62,176.67,163.02,177.47,162.51
		z M175.76,140.95c0-2.82,2.02-3.93,3.43-5.34C178.78,137.73,177.67,139.34,175.76,140.95z M174.45,130.98
		c0.6-0.81,1.01-1.81,3.02-2.02C176.46,130.17,176.26,131.68,174.45,130.98z M175.05,69.72c-0.91,2.42-2.32,3.32-3.93,4.03
		C172.23,72.54,173.34,71.44,175.05,69.72z M157.42,270.31c-6.03-11.43-5.15-21.52-9.37-27.1c-3.81-5.05-4.44-11.08-5.84-16.83
		c-1.42-5.84-0.4-11.69,0.3-17.83c2.52,1.91-1.01,5.04,1.81,6.85c0.2-3.63,0.12-6.86-0.91-10.18c-3.49-11.33-4.25-31.42,0-34.15
		c0.91,2.42-1.21,4.53-0.1,6.75c0.6-0.2,0.91-0.81,0.91-1.41c0-9.43,8.45-9.39,6.15-21.76c-1.01,5.24-0.81,10.88-6.55,14.21
		c-0.3-1.61,0.09-3.12,0.2-4.63c1.52-19.97-0.5-25.48,0.5-41.11c0.73-11.34,2.36-1.23,2.52-0.81c0.4,1.31,0.91,2.62,2.72,2.12
		c-1.11-1.21-1.09-2.93-1.61-4.63c-2.1-6.81-1.27-6.49,7.76-39.7c6.25-0.2,12.49-1.91,18.24-6.55c-0.3,5.64-0.42,10.48,0.2,15.31
		c3.96,30.96-6.39,41.15-4.33,53.7c10.21,62.33-1.66,50.65,3.83,62.36c0.2-2.02,2.32-0.91,2.22-2.42
		c12.95,7.24,13.27,20.41,8.66,34.46c-4.43-3.53-7.76-7.56-11.69-11.69c-0.3,4.63,3.22,9.17,10.58,14.61
		C180.29,254.5,173.34,266.08,157.42,270.31z M185.93,352.32c3.73,0.1,2.42,2.62,2.92,4.13
		C187.62,356.87,188.37,357.51,185.93,352.32z M190.47,355.95c-0.5-0.81-0.81-1.51-0.1-2.32
		C190.87,354.44,190.97,355.14,190.47,355.95z M207.6,352.42c2.24,0.85,2.54-2.99,4.53-0.5
		C210.98,352.35,208.58,353.16,207.6,352.42z M262.4,336.51c-12.25,0.94-18.56,7.79-39.49,10.18c-7.05,0.8-14,2.37-21.16,2.32
		c-6.04-0.04-12.19,0-18.54,1.51c0.72-4.06-1.08,0.9-3.73-22.67c-1.9-16.93,1.21-17.43-20.35-54.81
		c10.29-5.14,19.98-7.13,27.61-31.74c2.72,1.21,5.14,2.02,8.26,0.6c-2.92-0.91-5.44-1.51-7.46-3.32c2.92-9.67,4.53-19.24-0.71-29.42
		c5.74,2.72,11.28,3.73,16.42,6.95c-2.18-5.18-28.4-11.2-27.71-20.35c1.38-18.36,1.81-7.59,4.13-6.04c3.61-3.61-5.8-6.32-1.51-21.06
		c1.83-6.31,0.85-9.28,2.52-11.99c3.36-5.44,2-8.47,3.93-9.97c0.71-0.71,1.91,0.2,2.62-0.6c-1.01-2.22,2.22-1.41,2.02-3.43
		c-0.6-0.91-1.51-2.12-2.52-3.53c-1.31,1.11-2.82,0.2-4.13,1.21c0.5-1.21,1.01-2.12,2.01-2.92c2.52,0.71,5.24,1.01,6.45,3.93
		c1.51-0.71,0.2-1.61,0.71-2.72c1.81,0.91,2.92-1.13,4.84-1.31c4.93-0.46,10.28,0.6,14.91-2.62c1.11,3.93,1.33,8.02,3.83,11.08
		c5.27,6.47-11.27,5.94-4.84,16.32c0.6-1.31-0.4-2.62,0.4-4.03c2.52,0.71,4.43-0.91,6.55-2.02c0.2-3.12,1.72-6.65,0.3-9.27
		c-2.3-4.24-2.82-8.87-4.53-13.1c1.41-3.43,4.74-4.94,6.95-7.76c-0.71-1.21-0.3-2.72-0.6-4.03c-2.12-0.5-3.63,0.91-5.54,0.91
		c0.71-1.81,3.53-1.91,3.43-4.43c-2.72-1.31-4.03,1.11-5.74,2.22c-0.81-2.52,0.3-5.14-2.01-7.05c-1.41,2.01-2.32,4.03-4.33,5.24
		c-0.4-0.81,1.01-1.51-0.71-2.62c-6.85,4.03-15.21,3.93-22.87,5.74c-1.41,1.01-0.91,3.53-3.43,3.22c0-4.21-1.65-1.39-2.52-2.02
		c-0.83-3.31,2.77-8.57,1.51-22.97c-0.7-8.07-2.58-26.63,0.71-30.22c10.54-11.54,7.62-25.01,11.49-32.54
		c-2.13-6.99-4.3-4.32-5.44-7.15c-3.09-7.69-7.96-13.9-15.31-18.54c18.55-12.75,39.98,9.7,37.08,33.75
		c-1.69,14.01-11.18,25.49-24.58,26.5c-0.6,0-1.11,0.4-0.91,1.31c9.67,0.3,17.83-2.82,24.18-10.98
		c9.37,11.49,21.56,13.1,34.76,10.18c5.4,12.01,2.16,19.33,1.61,28.41c-1.97,32.78,6.56,35.7,0.3,47.86
		c-4.31,8.38-1.65,8.04-3.22,12.39c-6.86,19.01,1.25,16.54-18.24,29.82c-0.1-5.34,0.59-10.27-0.1-15.21
		c-0.31-2.22-0.22-4.34,0.4-6.45c0.98-3.33-0.71-8.97-3.12-10.88c1.31,11.38,0.6,22.77,1.01,34.36c-1.81,1.81-4.94,2.02-6.75,4.33
		c0.3,7.56,2.92,14.61,4.03,21.96c1.51-0.2,1.21-1.71,2.32-2.22c1.51,1.91,4.03,3.12,5.24,5.64c-3.02,3.43-6.05,1.22-9.07,0.4
		c-3.33-0.9-5.44-3.73-8.06-5.84c-0.3,0.71-1.01,1.21-0.81,2.02c5.57,5.31,11.22,5.58,13.3,7.66c2.49,2.49,11.29-1.51,5.84-7.35
		c-3.69-3.95-7.01-5.31-8.26-10.18c5.04,4.63,11.06,6.67,15.82,10.88c11.64,10.31,21.98,8.99,22.57,26.4
		c0.85,25.11,1.61,26.35,3.63,28.01c-2.67,4.67,2.37,13.23,1.41,27.2C258.38,313.27,265.63,330.21,262.4,336.51z M181.1,145.39
		c2.27,0,1.24,2.5-0.3,2.62C180.8,147,180.49,146.09,181.1,145.39z M190.97,128.26c-0.4-2.32,0.5-3.22,2.62-3.02
		C192.79,126.24,192.48,127.65,190.97,128.26z M194.7,134c-0.91,0-2.01,0.71-1.31-1.11C194.1,132.79,194.4,133.19,194.7,134z
		 M196.21,130.98c-0.4,0.6-0.1,1.21-1.01,1.51C195.2,131.89,194.9,131.28,196.21,130.98z M196.72,133.6c1.71-0.1,2.72,0.3,3.63,1.11
		C199.13,134.81,197.92,135.01,196.72,133.6z M207.8,133.9c0.42,0.63-0.76,1.26-1.01,0C207.29,133.5,207.6,133.6,207.8,133.9z
		 M207.19,122.62c0.2-1.61,0.4-2.62,0.6-3.73C209.81,120.5,208.5,121.21,207.19,122.62z M215.96,154.45
		c-0.81,1.11-1.81,0.81-2.82,0.5C214.04,154.76,214.75,153.34,215.96,154.45z M214.04,125.03c0.71-0.2,1.51-0.5,2.82-0.91
		c-0.6,1.51-0.71,2.72-1.81,3.43C214.14,126.95,213.84,126.14,214.04,125.03z M186.04,35.27c1.01,1.21,1.61,2.42,0.71,4.43
		C185.93,37.99,185.83,36.68,186.04,35.27z M250.21,502.64c-7.08-10.05-10.77-21.76-15.92-32.74c-2.31-4.94,0.29-10.8,5.24-13
		c5.73-2.54,11.69-4.53,17.73-7.96c-1.27,7.5,6.45,62.65,6.45,79.89C253.57,512.24,254.88,509.26,250.21,502.64z M262.2,490.15
		c-0.54-8.66-1.01-17.33-2.82-25.89c-0.53-4.26,1.08-21.24,7.56-32.74c0.62-1.1,1.41-2.22,1.11-3.73c-0.7-3.43-6.55-6.85-10.58-5.84
		c3.22,1.21,6.55,1.81,8.66,5.24c-6.85-1.71-13.4-1.81-19.95-1.71c-2.05-17.07-2.03-14.19,0.1-16.32c2.92,0.3,5.54,1.61,8.36,0.91
		c-2.82-2.02-6.25-2.52-9.27-4.03c-0.5-12.58,6.95-18.16,18.03-24.89c15.4-9.34,27.7,7.39,34.25,11.59
		c6.84,4.37,4.9,10.35,7.35,14.31c3.31,5.34-0.25,11.03,0.5,15.41c0.52,3.02-0.49,5.55-2.01,8.16c-6.1,10.45-2.22,12.44-6.65,19.95
		c-0.4,0.81-0.71,1.71,0.1,2.72c1.61-2.01,1.61-4.74,3.12-6.65c1.49,0.5-1.27,24.68-5.64,36.37c-6.23,16.66-4.33,22.07-7.25,32.74
		c-2.08,7.59,0.06,13.16-0.5,20.35c-3.32,0.5-6.35,1.01-9.47,1.51c-0.91-1.51,0.81-3.63-1.31-5.04c-1.11,3.43-1.41,6.95-2.92,10.38
		c-2.52-0.91-4.63,1.81-7.66,1.01C269.63,532.94,262.52,495.24,262.2,490.15z M264.42,546.37c3.32,0.5,6.35-0.81,9.67-1.51
		c0.6,2.32,1.21,4.33,1.71,6.35c-5.84,4.33-9.67,4.84-12.29,1.11C266.23,550.9,263.41,548.48,264.42,546.37z M324.77,592.91
		c-6.15,3.53-12.49,3.95-18.94,4.03c-21.53,0.28-23.41-7.7-27.61-9.67c-6.08-2.86-11.51-7.13-18.34-8.36
		c-5.84-1.05-8.76-9.67-7.05-12.09c6.75-9.56,6.61-19.89,9.57-18.03c0.5,0.91-0.11,1.81-0.3,2.72c-0.73,3.42,2.11,6.64,5.54,5.84
		c12.29-2.85,11.82-3.4,8.77-15.62c4.43-3.32,9.97-1.51,14.31-4.13c1.11,2.42,0.71,4.63,1.81,6.45c2.92,1.21,5.94,5.74,7.15,10.88
		c-12.19,2.01-14.71,3.12-16.12,7.76c6.04-1.31,11.69-2.62,17.03-5.34c0.4,1.51,1.01,2.72,0.81,4.23c-4.43,0.5-9.27-0.2-13.2,3.43
		c2.6,1.93,4.32,0.91,14-1.61c1.91,2.32,4.33,3.93,6.04,6.85c-9.17,0.81-9.17,0.81-10.98,2.82c1.91,2.22,4.13-0.1,6.35,0.6
		c-1.42,3.8,3.57,2.92,6.95,0.6c-0.1-1.61-1.81-1.01-2.32-2.12c2.53-1.26,9.22,9.48,17.53,15.11
		C326.18,589.59,325.77,591.6,324.77,592.91z"/>
	<path d="M57.98,513.22c-0.04,0-0.08,0.07-0.1,0.1L57.98,513.22z"/>
	<path d="M260.53,437.29c0.07,0.1,0.06,0.14,0.06,0.07C260.73,437.07,260.71,437.14,260.53,437.29z"/>
	<path d="M762.82,433.43c-6.68,21.69,6.67,22.8,9.87,61.05c1.72,20.5-1.23,22.3,1.61,25.99c3.34-3.34,1.62-43.57-4.84-56.42
		c-9.41-18.72-3.47-31.12-2.32-35.67c3.53-13.89-1.4-13.67-2.11-12.66C767.23,417.18,767.36,418.7,762.82,433.43z"/>
	<path d="M712.15,540.61c-0.31-0.5-1.21-0.71-2.02-1.11c-0.91-1.81-0.1-4.13-1.21-5.94c-3.33-1.79-7.17,8.4-1.91-26.5
		c5.2-34.59,10.24-23.03,12.09-60.45c0.19-3.83,1.41-7.56,1.11-11.49c0-0.5,0.42-1.1,0.81-1.61c6.85-9.02,1.92-14.11,4.03-15.92
		c5.14,0.6,10.48,0,16.32-0.3c-4.74,7.25-12.59,10.28-18.44,15.72c9.37-2.01,15.52-8.16,20.96-15.52
		c16.53-6.61,19.12,1.47,21.17-1.77c-4.91-3.48-10.07-4.69-15.73-1.36c-1.19,0.7-2.67,0.44-24.28,1.61
		c-1.93-7.72,6.59-4.14,11.69-16.72c7.54-18.6,7.57-32.48,26.19-34.36c4.25,2.58,19.85,10.89,24.78,11.69
		c5.64,0.91,12.69,10.78,12.59,16.52c-0.07,4.16-0.08,2.46,3.73,16.72c3.74-2.24-1.34-9.3-1.71-16.12
		c-0.89-16.3-10.91-16.62-32.94-28.11c-7.75-4.04-47.62-25.71-49.47-17.23c-0.6-0.4-1.21-0.5-1.41-0.81
		c-5.43-7.28-15.47,0.2-17.83-1.71c-6.36-5.14-11.29,2.64-7.15-5.64c2.04-3.58-1.1-7.35-9.67-3.73c-7.99,3.38-0.68,2.67-4.63-10.18
		c-1.54-5,0.05-8.42-3.32-18.74c-1.94-5.95,1.76-4.39-0.91-20.85c-0.25-1.55-3.69-21.94-2.12-23.78
		c10.62,4.36,30.73,1.07,33.45-1.41c10.81-9.86,12.29-0.92,12.29-13.2c0-19.39,6.86-18.78-1.71-40.2
		c-9.72-24.3-11.43-22.25-6.55-23.78c23.35-7.32,25.5-40.04,5.14-57.02c-12.75-10.64-30.95-6.29-37.18,2.02
		c-15.42-1.16-31.48,7.13-35.26,24.89c-5.98,28.11,20.93,52.16,41.41,43.32c1.2-0.52,2.52-0.6,3.93-1.01
		c1.41,4.53,0.81,9.17,1.71,13.6c0.29,0.86-3.1,3.95-2.72,11.79c-4.53-2.01-8.97-1.71-13.5-1.61c-24.03-23.51-23-12.62-46.04-13.9
		c-1.51-3.02-0.91-6.25-1.41-9.47c3.83-1.31,4.84-4.23,4.84-7.96c0-5.5,2.09-4.37,1.51-11.38c-1.23-14.82,2.94-11.82-2.72-21.56
		c0.5,12.59,1.81,25.19-1.51,37.78c-4.43,1.61-9.17,1.51-14.21,1.11c2.82,3.63,6.65,1.31,9.87,2.52c1.19,4.75-1.62,9.52,5.44,15.62
		c0.1-1.51-1.21-2.42-1.11-4.23c1.71-0.3,3.32-0.2,5.14,0.91c-0.71,0.6-1.71,0.1-2.22,0.91c-0.6,1.91,0.2,3.5,2.22,3.32
		c4.33-0.37,6.95,2.62,10.48,4.33c-2.46,2.14-9.93,4.18,1.71,1.01c7.14,4.49,6.66,7.88,7.05,14.61c0,19.15-40.94-14.01-56.12-17.33
		c-0.5-0.11-1.01-0.3-1.31-0.6c-3.87-5.26-14.4-6.15-11.79-7.46c6.78-5.95,5.17-20.96,3.22-27.81c-0.72-2.52,0.3-4.84,0.71-7.35
		c-2.01,0.71-3.02-0.4-3.63-2.12c0.71-0.6,2.01,0.2,2.72-1.51c-0.1-1.57-0.29-3.71-0.39-5.85c-0.21,0.21-3.27-0.51-3.54-3.62
		c2.98-0.5,3.31,1.55,3.71,3.45c1.19,1.77,2.55,3.47,2.94,5.82c2.62-3.73,2.23-8.16,3.22-12.19c1.02-4.13,3.73-7.76,4.03-12.39
		c3.22,0.3,3.73-2.42,5.84-3.63c-1.01-1.31-1.81-2.52-2.72-3.83c-1.31,0.71-2.92-0.1-4.53,1.51c0.5-1.71,1.21-2.62,2.22-3.63
		c2.42,1.11,5.44,1.01,6.35,4.13c1.51-0.81,0.4-1.61,0.5-2.32c4.43-2.01,9.07-2.27,13.8-2.12c2.32,0.08,4.03-1.51,6.35-2.22
		c0.6,5.34,3.02,9.97,5.04,14.51c-8.66,6.45-8.97,6.95-6.35,13.2c0.91-1.41-0.4-2.92,0.5-4.33c2.32,0.5,4.23-0.81,6.35-2.01
		c0.71-2.62,0.49-5.34,0.91-8.06c0.29-1.92-1.69-2.83-2.12-4.53c-3.77-15.08-4.51-8,3.83-17.43c-0.1-1.21-0.5-2.72-0.2-4.03
		c-2.01-0.91-3.63,0.6-5.54,0.5c0.71-1.61,2.72-1.91,3.22-3.53c-1.81-1.71-2.32-1.61-5.84,1.41c-0.5-2.32,0-4.74-1.51-6.75
		c-1.71,0.81-1.91,2.92-3.53,3.83c-1.87-2.4-5.21-0.39-7.86,1.11c-2.83,1.59-6.05,1.19-8.97,1.71c-2.72,0.49-5.34,1.51-7.76,1.41
		c-1.61,1.11-1.11,3.53-3.32,3.63c-0.71-0.6,0.2-2.01-1.51-2.62c-2.01,3.02-4.63,5.84-8.66,6.85c-2.01-0.6-3.73-3.02-6.55-1.51
		c-0.2,1.91,2.02,2.02,2.62,3.53c-2.42,1.21-0.3,3.83-2.12,5.14c1.51,0.91,2.22,0,2.92-0.2c1.31,0.1,1.51,1.31,2.12,1.51
		c1.51,0.6,2.22-1.01,3.32-0.71c0.91,1.01-0.1,1.61-0.3,2.82c-2.82-1.91-4.84-0.6-6.85,1.71c-0.6-1.71,1.21-2.32,0.91-3.63
		c-0.91-0.4-1.91-0.5-2.72-0.3c0.81,4.84-2.42,9.07-1.71,13.9c-10.44-13.39-21.89-18.23-37.28-10.88
		c-8.53-4.7-29.21-8.26-42.11,8.26c-14.15,18.12-10.33,56.09,23.27,60.25c-1.56,4.47-17.9,50.74-16.42,64.88
		c3.16,5.45,20.91,13.58,34.15,11.99c11.27-1.35,18.35-3.28,26.9-16.93c9.91,24.77,21.1,20.92,29.92,53.5
		c5.58,20.6,2.61,22.46,4.53,24.38c3.92,4.41-1.22,4.03,0.4,9.77c2.48,8.76-7.68,7.22-3.63,14.81c7.15,13.4-0.07,19.61,4.53,28.81
		c-0.6,0.4-1.21,0.71-1.91,1.21c1.01,0.91,2.22,0.2,3.02,0.91c3.43,3.02,3.12,9.57,8.97,9.97c1.31,0.71,0.3,2.12,1.41,2.72
		c1.51-5.28-2.37-0.73,24.78,1.61c0.39-3.4-0.97-2.45-23.68-7.86c3.73-10.98,5.24-22.47,14.21-30.43
		c-7.14,0-13.68,23.06-15.52,29.82c-2.12,0.1-3.55-0.69-4.53-2.52c-2.99-5.54-6.46-8.2-5.04-12.59c0.73-2.24-1.18-3.19-1.01-11.49
		c0.14-6.63-7.28-10.96-1.71-17.03c2.22-2.42,2.72-5.74,0.81-9.77c2.12,1.41,1.31,3.63,2.82,4.33c0.74-1.11-2.06-10.95,1.91,0.3
		c6.3-2.67,10.61-3.62,11.69-4.33c-1.61-0.71-1.21-2.72-2.92-3.63c3.22-0.71,3.93,2.12,5.54,3.32c2-0.75-1.15-1.55-0.09-2.92
		c1.11,0.23,1.03,0.91,0.85,1.58c0.74-0.58,1.02-1.62,2.08-1.88c0.91-0.3,1.01,1.01,1.81,0.91c0.6-0.2,0.3-1.51,1.51-1.21
		c0.81,0.81,1.41,1.61-1.11,2.82c14.7-1.08,9.04-2.47,9.27-3.63c34.04-3.09,28.64-10.48,42.11-7.66c1.01,0.21,2.01,0.6,3.12,0.1
		c-0.5-2.12-2.72-1.41-3.73-2.52c3.12-1.11,3.32-1.01,4.94,1.21c5.24-0.1,9.27-5.44,14.91-3.32c1.9,4.05-2.4,1.67-6.65,10.18
		c2.22,0,2.82-1.71,4.53-2.01c1.11,1.21,2.74,1.85,4.74,0.91c2.23-1.06,6.78,3.88,11.28,0.6c1.11-0.81,1.91-0.5,2.12,1.01
		c1.71-2.32,4.23-1.91,6.35-2.01c1.01,0.6,1.51,1.41,1.91,2.42c-7.39,5.04-6.79,4.8-6.35,5.24c12.07-5.08,9.51-7.86,47.96,8.46
		c0.4,0.2,0.81,0.5,1.91,1.11c-5.64,0.71-8.36,4.84-12.09,7.76c-10.28,8.05-6.97,23.86-21.76,38.28c-1.01-4.03-3.06-7.15-3.53-10.98
		c-1.05-8.58-9.89-10.63-15.31-16.32c4.74-4.74,10.18-8.26,15.41-12.19c-22.38,11.38-12.17,14.08-23.47,6.85
		c5.74-2.92,9.47-8.06,14.81-12.29c0.3-1.61,2.12-3.43,4.03-5.64c-1.41-0.3-2.43-0.41-3.12,0.6c-4.6,6.71-11.28,11.08-17.13,16.22
		c-0.4-0.1-0.71,0-0.91-0.2c-7.57-6.49-19.07-6.48-21.26-12.09c-1.18-3.03-3.32-5.44-6.65-7.66c1.61,3.22,3.63,5.54,4.63,8.36
		c-1.39,1.01-10.59-4.15-16.83-5.54c-1.9-0.42-1.52-2.73-8.16-5.84c-4.61-2.16-5.44-1.34-19.65,3.32c-1.42,0.47-2.62,1.01-2.92,3.02
		c15.39-5,17.43-7.67,26.9-0.3c-9.13,7.83-13.65,16.99-14,18.74c1.98-1.14,2.37-3.32,2.62-3.32c15.02-16.99,11.83-15.25,17.23-11.28
		c0.91,0.3,2.62-1.51,3.53,0.91c-1.11,2.82-3.22,5.44-4.94,8.46c3.02-1.61,3.53-2.22,6.75-8.46c7.66,3.02,15.21,6.15,22.57,10.38
		c-7.76,2.62-13.74,7.41-19.65,12.19c-7.02,5.68-5.59,15.29-6.35,16.32c-1.01-1.01-0.1-2.42-0.91-3.53
		c-3.46,1.84,3.93,23.64-0.5,34.96c-2.84,7.25-1.59,14.83-2.01,14.41c0.71,0.6,0.81,1.71,2.72,2.32
		c6.91-1.97,17.21-9.49,17.72-14.01c-1.05-0.95-8.28,8.14-18.12,11.6c-1.71-7.86,3.02-14.21,3.43-21.36c6.65-0.3,13,0.81,20.15-0.6
		c-1.98,3.96-2.13,7.73-5.38,9.86c0.02,0.04,0.04,0.08,0.06,0.12c1.65,0.03,0.01,2.77-0.63,3.43c-9.48,23.69-49.62-2.4-13.4,59.74
		c4.75,8.15,8.07,17.02,13.2,24.89c5.05,7.75,5.04,8.56,4.03,18.44c-0.91,0.5-1.01-0.81-2.01-0.71c-0.71,2.01-2.72,3.32-3.63,5.64
		c-6.75-0.68-0.81,0.79-0.4,2.12c-3.8,3.23-0.41,10.67-10.48,6.65c-4.03-1.61-8.16-2.62-12.59-4.03c5.64-2.72,11.99-0.2,16.83-3.32
		c2.24-4.47-24.16-44.2-28.41-50.17c-10-14.05-15.17-29.41-27.4-22.57c-15.63,8.74-4.9,5.5-28.11,19.55
		c-11.96,7.24-15.7,15.98-27.1,12.9c-13.73-3.71-8.62,0.02-7.15,0.2c9.91,2.03,16.44,4.81,25.99-4.63c4.11-4.06,9.26-6.46,13.8-9.87
		c1.61-1.21,3.53-0.3,5.44-1.01c-1.15-1.44-6.23,1.81,2.42-4.43c2.22,0.91,4.53,1.91,7.46,1.91c-1.71-1.81-4.03-1.31-5.94-2.93
		c5.94-5.14,11.08-11.18,19.75-11.28c2.32-0.03,4.19,0.64,5.64,2.52c3.91,5.07,38.76,58.06,43.02,68.71
		c-6.16,2.7-14.54-0.26-18.94,4.63c6.35,2.32,12.47,3.67,18.13,6.35c1.3,0.62,2.22-1.21,3.63-0.2c-3.34,5.43-5.46,6.58-3.83,10.88
		c6.37,16.82,15.21,6.9,30.22,21.36c5.22,5.03,26.38,12.25,43.93,3.32c3.94-2,5.12-7.63,2.12-10.38
		C709.99,553.46,728.91,568.04,712.15,540.61z M584.8,168.36c0.4,0.4,0.5,0.71-0.3,1.41C584.3,169.06,583.99,168.66,584.8,168.36z
		 M625.6,153.55c1.31-1.01,2.12-1.81,3.43-0.81C628.12,153.75,627.11,153.65,625.6,153.55z M629.73,122.82
		c-0.6,1.01-0.5,2.22-1.61,2.92C626.26,124.7,627.04,121.99,629.73,122.82z M621.17,116.97c1.01,1.91,0.4,2.62-0.81,3.43
		C620.36,119.19,620.47,118.28,621.17,116.97z M612.3,126.24c-0.2,0.81-0.4,1.21-1.31,1.31C610.99,126.55,611.3,126.24,612.3,126.24
		z M614.22,133.3c-1.71,0-3.02-0.2-4.13-1.41C611.5,132.09,613.01,131.68,614.22,133.3z M608.98,129.27c0.1,0.6,0.3,1.31-0.81,1.01
		C608.17,129.77,608.07,129.16,608.98,129.27z M607.77,132.19c-0.91,0.4-1.41,0.1-1.71-0.81
		C607.07,130.98,607.57,131.38,607.77,132.19z M607.07,123.22c-1.11,1.31-1.91,2.32-2.92,3.63
		C604.04,123.93,604.04,123.93,607.07,123.22z M594.47,143.37c1.81,1.21,0.5,2.12-0.5,3.02
		C594.07,145.49,593.16,144.38,594.47,143.37z M580.27,129.27c0.71-0.3,1.11,0,1.21,1.01C580.67,130.17,580.27,129.97,580.27,129.27
		z M587.42,134.81c0.1-0.4,0-1.21,0.91-0.81C588.43,134.71,588.02,134.91,587.42,134.81z M589.74,150.83
		c0.81,1.41-0.1,1.91-1.11,2.52C587.82,151.83,588.53,151.23,589.74,150.83z M588.93,148.81c0.1-0.71,0.3-1.11,0.91-1.41
		C589.84,148,590.14,148.61,588.93,148.81z M589.64,166.34c-0.81-0.81-0.6-1.21,0.1-1.51C590.04,165.33,590.04,165.74,589.64,166.34
		z M589.64,163.02c-0.5-1.01,0.3-1.51,0.71-2.12C590.85,161.91,590.54,162.51,589.64,163.02z M592.15,133.9
		c-0.5,2.02-1.31,3.83-3.43,5.24C588.63,136.42,590.85,135.41,592.15,133.9z M590.04,127.05c-0.3,1.71-1.01,2.52-2.82,2.52
		C587.92,128.46,588.63,127.55,590.04,127.05z M587.02,150.93c-0.4,1.01-1.01,1.51-2.01,2.01
		C585.1,151.43,585.4,150.73,587.02,150.93z M720.61,175.51c0.5-0.5,0.4-1.41,1.21-1.51C721.92,174.9,721.42,175.31,720.61,175.51z
		 M721.92,174.1c0.91-2.52,2.07-4.92,2.82-7.46c5.09-17.13-5.04-37.48-20.96-42.82c-0.5-0.2-1.11-0.5-1.61-0.81
		C725.15,124.88,735.44,161.4,721.92,174.1z M719.4,174.5c-3.01,4.34-6.95,7.56-12.19,9.27c-0.81-1.41-1.41-2.52-2.12-3.73
		c4.25-11.7,1.22-17.54,2.52-21.36c2.73-8.01-3.33-8.48-6.45-13.4c-8.56-13.49-19.45-14.3-20.45-16.02
		C706.6,109.09,736.94,149.22,719.4,174.5z M705.6,154.96c-0.2-1.51-1.61-2.72-1.31-4.53C705.8,151.73,706.3,153.14,705.6,154.96z
		 M698.34,187.4c12.59-20.45,1.31-48.96-19.55-56.02C706.82,137.83,713.01,175.37,698.34,187.4z M683.43,196.47
		c-34.65,11.15-56.02-48.71-22.47-62.46C695.87,119.7,720.8,184.44,683.43,196.47z M638.7,211.98c5.04,1.51,8.77,4.94,12.69,8.26
		C646.96,217.82,643.03,214.5,638.7,211.98z M637.59,209.16c8.66-2.28,15.43-3.71,22.97,2.72c21.89,18.66,10.61,9.93,16.42,10.38
		c10.81,0.83,9.81,1.29,22.16,10.18c-2.66-7.98-12.23-3.78-8.16-17.73c0.29-1.01,0.11-2.2,1.21-2.92c1.22-0.79,0.81-2.01,0.5-2.92
		c-1.71-4.23,0.2-8.87-2.52-13.1c5.44-2.52,9.27-5.74,12.39-10.28c1.51,1.51,1.21,3.43,2.62,4.43c1.11-2.52-2.42-4.63-0.71-7.56
		c0.04,0.1,13.06,32.74,13.1,32.84c4,10.93-2.53,24.4-0.4,37.58c-13.1,4.03-10.05,6.87-16.93,7.86c-12.49,1.79-19.18,2.93-27.81-0.6
		c-2.37-8.06,2.29-3.47,4.23-4.63c-1.21-1.51-3.22-1.11-4.63-2.22c-0.6-3.12,0.1-6.25,0.1-9.57c13.6,5.74,17.63,6.15,23.68,2.02
		c-3.93,0.2-7.87,0.74-11.79-0.4c-19.83-5.77-7.09-2.01-13.7-20.45c-1.61,2.92,0.1,5.94-1.01,9.17
		C660.77,222.86,650.79,214.1,637.59,209.16z M590.74,216.41c-5.34,1.31-7.96-2.82-11.69-4.33c0.6-1.21,1.51-1.41,2.62-1.71
		C584.3,212.69,587.52,214.2,590.74,216.41z M581.58,149.82c0.81,1.91,0.1,3.43,0.1,4.74C580.87,153.14,580.17,151.73,581.58,149.82
		z M579.66,164.83c0.2-0.98,1.68-1.16,3.12,1.01c-0.71,0.91-0.81,2.22-0.6,3.83C578.96,166.54,578.96,166.54,579.66,164.83z
		 M577.45,171.48c5.63,5.63,3.23,9.72,5.24,12.9c3.39,5.36,4.24,11.39,3.43,17.53c-2.06,15.57-23.33,0.96-38.79,24.68
		c-1.78,2.74-4.84,3.53-8.06,5.24c0.3-10.18,2.52-19.14,3.22-28.61C561.83,205.83,576.04,191.13,577.45,171.48z M559.92,198.38
		c1.42-1.99,1.85-1.11,1.91-1.01C561.43,198.08,560.92,198.58,559.92,198.38z M559.92,140.25c0.38,0.48,1.22,0.34,1.12,1.11
		c1.4-0.09,2.11,1,3.01,1.61c19.59,18.15,11.67,46.24-2.22,54.2c-0.18-0.18-0.55-0.06,1.21-1.81c12.59-12.59,14.08-34.9,2.82-48.76
		c-1.49-1.83-3.62-3.13-4.83-5.23C560.96,141.57,559.66,141.5,559.92,140.25z M567.77,186.19c-5.84,12.25-18.61,16.83-24.88,15.01
		c0.4-1.91,0.3-3.83,1.41-5.34c4.11-5.56,6.55-11.89,7.56-18.54c2.49-1.9,8.83-2.12,1.11-13.8c-3.61-5.45-4.9-15.39-16.12-23.17
		C564.55,130.63,579.06,162.48,567.77,186.19z M551.86,165.33c3.43,3.73,3.53,4.13,1.51,7.46
		C554.07,170.07,551.35,168.15,551.86,165.33z M535.84,141.96c1.11,0.3,1.81,1.11,2.62,1.81c20.92,18.18,10.95,52.18-3.43,57.93
		c-0.23-0.23-0.07,1.25-1.81,0.91c0.91-1.1,1.58-1.24,1.75-1.07c4.86-6.14,15.42-14.77,12.55-36.31
		c-2.21-16.59-13.56-23.8-13.8-24.28C534.93,140.65,535.33,141.36,535.84,141.96z M496.95,196.97
		c-12.53-13.8-12.18-35.07-1.61-48.76c11.19-14.5,31.29-14.75,42.82-0.6c11.13,13.66,10.91,35.08-0.5,48.56
		C526.8,208.98,508.21,209.38,496.95,196.97z M565.56,271.02c-3.82-5.96-2.25-9.44,1.81-13.5c1.56,0.58,2.84-0.8,4.47-0.89
		c-1.03-1.57-2.98-0.24-4.07-1.53c-3.53,2.72-5.52,6.36-7.25,10.07c-3.86,8.25-14.07,14.97-20.96,16.42
		c-6.52,1.37-17.25,1.46-19.14,0.5c-13.18-6.67-21.09-8.51-17.23-21.76c0.71-2.42,2.33-4.53,2.52-7.15
		c0.53-7.35,3.12-14.31,5.44-21.26c12.93-38.79,2.84-17.18,24.48-28.21c0.3,2.12-0.4,3.83,0.4,5.74c0.91-1.81,1.08-3.63,1.21-5.34
		c0.24-3.14,4.64-5.72,3.53-1.41c-5.17,19.99-3.63,27.66-3.63,47.76c0,6.97-2.38,6.23-2.12,14.1c1.81-2.82,2.56-6.04,2.82-9.27
		c0.6-7.35,3.43-14.31,2.01-21.76c15.84-6.93,11.63-16.48,28.81-19.34c2.91-0.48,7.42-4.87,13.8,2.82c-2.22,0.4-4.53,0.2-6.55,2.12
		c1.81,0.6,3.22-0.12,4.43-0.5c6.85-2.15,10.71,4.39,20.15,12.49c5.03,4.32,6.12,22.78,6.95,26.5c1.2,5.34,0.3,10.88-1.01,15.92
		c-1.41,1.01-2.12-0.71-3.22-0.1c0.2,1.41,2.32,0.71,2.52,2.32c-1.71,3.43-4.94,5.74-7.05,8.66c-0.91,0-1.21-1.11-2.01-0.71
		c-0.09,0.82,3.9,3.63-5.24,6.45c-0.71-0.81-1.71-1.21-2.02-2.42c0.2-2.01,1.61-3.73,1.31-6.25c-2.02,2.02-2.12,4.53-3.22,6.15
		c0,1.91,2.32,2.22,2.02,4.13c-2.62,0.4-5.24,0.3-7.76,1.01C575.54,287.79,569.61,277.33,565.56,271.02z M602.53,350.81
		c3.63,0.3,2.62,2.62,2.82,4.23C604.43,355.35,604.75,356.19,602.53,350.81z M607.07,354.54c-0.6-0.81-0.71-1.51-0.1-2.22
		C607.27,353.03,607.57,353.63,607.07,354.54z M624.19,351.01c2.1,1.01,2.6-3.25,4.43-0.4C627.56,350.82,625.04,351.8,624.19,351.01
		z M639.1,345.27c-30.82,3.77-27.89,1.57-39.7,3.73c-15.13-71.36-22.87-49.56-8.97-55.51c1.41,0.1,2.01,1.51,3.43,1.31
		c-0.3-1.11-0.9-2.1,0.2-3.02c4.27-3.58,7.38-8.24,11.28-12.09c7-6.91,5.09-39.22-3.53-49.37c-3.66-4.31-8.06-7.86-13-12.09
		c16.89-1.58,45.84,26.92,60.95,23.98c4.44-0.86,5.62-2.12,6.04-6.65c1.14-12.24-6.49-19.48,1.51-11.59
		c3.6,3.55,6.37,7.92,10.88,10.58c3.93,2.32-2.82,5.91,3.63,44.53c4.64,27.79-1.1,4.88,5.24,44.43c0.61,3.83,1.41,7.66,1.71,11.49
		C665.4,336.3,660.6,342.64,639.1,345.27z M680.31,526.82c-9.41-14.26-8.73-18.78-13.5-25.59c-7.05-10.07-10.77-21.76-15.92-32.74
		c-2.31-4.94,0.3-10.79,5.24-13c5.64-2.52,11.59-4.53,17.63-7.96C671.67,462.17,681.48,515.1,680.31,526.82z M678.8,488.54
		c-0.54-8.66-1.01-17.33-2.82-25.89c-0.53-4.26,0.92-21.33,7.56-32.74c0.7-1.21,1.53-2.42,1.01-4.03
		c-1.08-3.33-6.65-6.55-10.58-5.54c3.32,1.31,6.65,1.91,8.77,5.24c-6.75-1.71-13.4-1.81-19.95-1.71
		c-2.06-16.81-1.98-14.37,0.3-16.32c11.78,2.18,10.29,1.32-1.11-2.82c-0.5-12.91,6.8-18.5,17.83-25.19
		c15.37-9.32,27.74,7.42,34.25,11.59c6.84,4.37,4.84,10.39,7.35,14.31c3.45,5.37-0.26,11.21,0.6,15.72
		c1.11,5.77-3.77,8.68-5.14,15.01c-0.93,4.33-1.06,8.9-3.43,12.8c-0.49,0.81-0.71,1.81,0,2.72c2.03-1.85,1.4-5.27,3.93-6.85
		c-4.84,49.65-6.17,23.39-11.18,54.91c-3.83,24.08-3.82,14.44-2.72,34.86c-3.43,0.5-6.55,1.01-9.67,1.51
		c-0.5-1.71,0.6-3.53-1.11-5.04c-1.51,3.43-1.41,7.15-3.22,10.48c-2.52-0.91-4.63,1.81-7.56,0.91
		C686.22,531.43,679.15,494.11,678.8,488.54z M681.02,544.75c8.63,2.03,8.62-6.69,11.28,4.84c-1.71,2.72-4.64,2.2-6.75,3.32
		c-2.43,1.29-4.03,0.6-5.34-1.91C682.33,549.29,680.41,546.97,681.02,544.75z M741.06,591.6c-10.16,5.76-34.41,6.37-44.73-4.53
		c-0.65-0.82-14.33-8.54-20.05-9.57c-5.9-1.07-8.74-9.6-7.05-11.99c6.42-9.09,6.52-19.66,9.57-18.13c0.5,0.91-0.11,1.81-0.3,2.72
		c-0.73,3.42,2.11,6.64,5.54,5.84c11.23-2.61,12.37-2.86,8.87-15.62c4.43-3.32,9.97-1.51,14.51-4.23
		c1.96,13.08,1.32,0.22,9.07,17.43c-12.59,2.12-15.01,3.12-16.42,7.76c6.15-1.31,11.79-2.62,17.23-5.44c0.1,1.61,0.91,2.82,0.6,4.33
		c-4.43,0.5-9.17-0.2-12.69,3.73c4.74,1.21,9.07-0.91,13.5-1.81c1.91,2.42,4.63,4.03,5.94,6.95c-3.93,0.5-7.86-0.1-11.28,2.32
		c2.22,2.62,4.43,0.3,6.65,1.01c-1.11,4.45,4.67,2.42,6.95,0.5c-0.1-1.51-1.81-1.01-2.32-2.01c2.14-1.43,9.74,9.8,17.43,15.01
		C742.57,588.28,742.17,590.19,741.06,591.6z"/>
	<path d="M850.48,561.68c2.08-11.43-21.51-6.7-40.3-37.68c-1.28-2.11-6.63-8.94-8.87-8.56c-1.71,0.6-1.01,2.72-2.32,3.63
		c-1.83-1.83,3.75-10.66,4.03-38.89c0.13-13.01,6.02-44.27,2.12-59.74c-0.49-1.95,2.34-6.56-0.5-9.57c0.71,4.63-1.91,8.66-1.61,13.4
		c1.43,23-7.61,93.16-5.54,99.24c-3.53,2.32-7.15,3.22-11.38,2.92c1.61-5.84-0.4-11.49-0.3-17.23c-0.4,5.64-0.81,11.18-1.11,16.93
		c-3.43,0.5-6.65-1.51-9.97-0.3c0.4,4.63,1.9,8.38,5.44,11.28c4.99,4.09,8.77-3.14,21.06-5.34c1.11-0.2,1.51-1.11,1.91-2.01
		c2.82,2.72,2.82,2.72,5.84-0.91c1.01,0.3,1.21,1.41,1.61,2.12c-1.01,2.82-4.94,3.53-4.94,7.15c6.08,1.22,6.6-7.76,8.77-2.72
		c-0.91,2.01-4.03,2.82-3.63,5.74c2.82,0.6,2.82,0.6,6.04-2.32c6.27,2.09-0.52,2.34-0.2,6.65c5.24,2.45,3.97-6.68,7.15-1.11
		c-0.1,1.61-2.01,2.52-1.31,4.43c2.12,1.01,2.82-1.21,4.13-1.81c1.91,0.4,0.6,2.22,1.41,2.92c0.91,0.2,1.01-1.12,1.81-0.91
		c1.82,0.48,0.5,2.12,1.01,3.12c1.21,0.4,1.21-1.21,2.52-1.31c4.13,1.21,7.96,3.83,11.89,6.15c2.72,1.31,3.22,4.23,3.43,7.15
		c-7.09,6.8-32.82,4.49-40.2,0.5c-17.67-9.55-17.57-1.25-44.63-10.38c-2.02-0.68-4.23-0.1-6.25-1.51
		c5.63-6.03,10.82-22.73,13.4-24.08c3.59-1.88,3.02-4.74,2.12-7.86c-1.71,1.01-0.6,2.72-1.51,4.13
		c-8.27,5.38-9.99,19.42-15.92,24.89c-4.02,3.71,0.71,7.43,4.53,7.96c7.65,1.06,22.39,5.78,29.12,5.14
		c14.26-1.36,15.88,9.21,38.59,8.66c15.05-0.36,16.66,1.01,23.78-7.05C851.99,563.09,850.16,563.39,850.48,561.68z M800.91,529.14
		c-6.35,0.3-11.79,3.73-17.73,6.04c-2.32-2.12-4.33-3.93-5.44-7.15c8.87,2.32,16.62,1.31,23.68-3.73
		C801.41,525.71,801.91,527.32,800.91,529.14z M803.93,523.19c-0.21-1.61-1.91-2.32-1.81-4.03c2.62,1.81,4.63,4.03,6.15,7.15
		C807.06,526.8,804.87,530.51,803.93,523.19z"/>
	<path d="M433.98,562.79c0.55-3.22-1.42-5.83-4.23-7.35c-4.04-2.19-7.85-4.65-12.19-6.45c-7.6-3.16-8.83-7.57-10.58-8.56
		c-10.86-6.17-12.21-18.52-21.66-24.08c-2.22,0.71-1.51,2.82-2.72,3.73c-2.07-1.38,3.73-9.98,4.03-39.49
		c0.13-12.6,6.05-43.44,2.12-59.04c-0.52-2.04,2.43-6.57-0.5-9.67c0.81,4.23-1.91,7.86-1.61,12.19
		c1.55,22.79-7.38,95.25-5.34,100.25c-4.63,2.72-6.55,3.22-11.38,2.82c1.51-5.64-0.3-11.38,0-17.03c-1.21,5.64-0.6,11.38-1.61,16.93
		c-3.43,0.4-6.65-1.71-9.97-0.2c1.27,6.68,5.4,14.38,10.78,11.89c18.25-8.44,16.49-4.81,17.83-8.16c1.31,0.6,1.71,2.51,3.63,2.32
		c2.21-0.22-0.1-3.12,2.32-3.02c1.11,0.2,1.11,1.51,1.61,2.01c-1.21,2.82-4.94,3.53-4.94,7.25c3.83,0.6,5.24-2.42,7.15-4.33
		c1.11,0,1.01,1.01,1.71,1.21c-0.81,2.42-4.23,3.02-3.63,6.04c2.82,1.41,4.13-1.01,5.94-2.22c1.11,0,1.81,0.81,2.92,1.31
		c-0.71,1.91-3.12,2.52-3.02,4.74c5.41,3.77,3.89-6.22,7.15-0.5c0,1.61-2.01,2.52-1.31,4.43c2.02,1.11,2.82-1.11,4.13-1.71
		c1.91,0.3,0.91,2.02,1.21,2.82c1.21,0.5,1.3-1.2,2.32-0.71c1.5,0.73,0.1,2.22,0.81,3.12c4.29,0.66-3.65-5.95,14.31,4.63
		c2.53,1.49,3.12,4.43,3.12,7.25c-6.18,5.93-25.55,4.55-33.65,2.82c-8.15-1.74-13.15-7.94-27.1-7.86
		c-8.16,0.05-16.22-2.32-24.08-4.84c-2.32-0.2-4.43-0.3-7.05-0.91c6.99-6.99,9.83-21.91,15.31-25.49c2.62-1.71,1.21-4.33,0.91-6.95
		c-1.91,1.21-0.71,3.02-1.71,4.53c-4.31,1.59-10.95,15.82-12.09,19.55c-1.01,3.31-4.85,4.4-5.64,8.16c1.31,2.62,3.62,4.35,6.55,4.74
		c7.03,0.92,22.49,5.69,29.12,4.94c16.97-1.92,11.74,12.42,54.2,7.86c3.53-0.38,5.64-3.73,7.86-5.84
		C435.39,564.3,433.7,564.41,433.98,562.79z M384.31,530.65c-14.5,0.69-16.47,12.58-22.87-0.71c8.56,1.91,16.32,0.71,23.37-4.03
		C384.71,527.22,385.42,528.84,384.31,530.65z M388.94,529.24c-1.51-2.82-1.31-6.15-3.53-8.66c2.82,1.71,4.74,4.03,6.15,6.75
		C391.06,528.43,390.25,528.84,388.94,529.24z"/>
	<path d="M523.24,518.56c-7.46,0-14.61,1.61-21.66,3.53s-14.51,2.22-21.26,4.33c-1.11-1.01,0.4-1.81-0.4-2.52
		c-1.77,1.77-0.93,5.01-5.64,3.53c-2.83-0.89-5.74-1.61-8.56-3.22c4.11-14.72,2.81-14.09,8.77-12.9c2.42-3.23,18.73-5.03,22.06-5.14
		c4.45-0.15,27.09-5.27,36.97-5.54c3.73-0.1,7.25,1.81,10.58,1.61c1.71,0.81,1.21,2.62,2.62,3.83c1.85-6.65-6.66-5.07-10.28-7.05
		c5.04-7.25,8.48-15.4,14.41-21.96c10.56-11.7,22.33-53.61,27-56.72c2.03-0.13,8.09,7.8,15.11,2.92c0.77-0.53,44.18-1.01,44.33-1.01
		c0.6,0.2,0.09,0.91,0.3,1.21c5.35,7.65,1.32,13.64,11.89,21.56c5.29,3.97,6.47,5.91,6.95,3.03c-6.15-5.37-12.3-9.43-12.39-17.14
		c-0.03-2.72-1.21-4.84-3.22-6.45c0.2-7.05-3.63-12.39-6.65-18.44c-1.23,2.46-0.78,3.84,3.32,14.51c-11.13,0-19.69,1.2-41,0.1
		c-5.73-0.3-5.99,4.48-11.69,1.31c-6.54-3.65-15.46-9.82-15.72-13.8c-0.91-13.91-4.85-8.08-6.25-52.29
		c-1.33-42.35-3.14-24.95-1.71-54.91c0.81-17-1.91-30.49-1.91-23.37c3.05,34.35-4.68,126.15,16.42,141.75
		c-11.73,19.07-2.98,9.81-15.11,35.87c-0.63,1.35-1.97,9.02-5.44,9.47c-1.39,0.18-1.79,6.16-9.07,14.21
		c-5.39,5.95-9.42,17.83-12.9,20.15c-21.36,4.43-43.22,5.24-64.68,11.18c-4.07,12.55-5.63,14.13-2.32,15.82
		c11.82,6.02,7.54,2.1,25.79-0.6c12.38-1.84,19.47-5.4,28.31-5.24c13.94,0.26,28.44-6.09,33.75-5.34c2.92,0.41,5.34-1.5,8.06-1.51
		c10.08-0.05,19.95-1.92,29.52-4.84c13.02-3.97,15.62-0.65,18.54-4.23c-27.19,2.65-14.91,3.63-45.64,7.66
		C525.99,516.95,536.1,518.56,523.24,518.56z"/>
	<path d="M656.43,448.04v0.01C656.58,448.2,656.54,448.15,656.43,448.04z"/>
	<path d="M357.81,521.78c3.34-3.34,1.15-44.22-4.94-56.32c-9.47-18.83-3.36-31.72-2.42-35.36c1.28-4.96,3.03-14.52-1.91-13
		c2.33,1.55,1.73,4.57-2.32,17.73c-6.68,21.69,6.67,22.8,9.87,61.05C357.76,515.72,354.8,519.23,357.81,521.78z"/>
	<path d="M609.69,356.04C609.88,355.78,609.8,355.82,609.69,356.04L609.69,356.04z"/>
	<path d="M617.24,362.4c0.8-0.52,2.12-0.6,2.42-1.91c-1.01-0.71-1.71,0.71-2.82,0.4c-0.6-4.13-3.63-4.84-7.15-4.84
		c0-0.01,0.01-0.01,0.01-0.01c-0.49,0.67-2.75,3.36-10.79,10.19c-1.42,1.2-3.02,2.42-2.22,5.14c3.02-4.74,7.65-7.36,11.28-10.78
		c3.12-2.93,4.43-2.52,6.04,2.12c-2.01,1.71-4.13,3.43-6.25,5.14c-1.31,0.3-2.52-1.61-3.93-0.1c0.1,1.61,1.51,1.21,2.62,1.61
		c-2.32,4.23-4.74,8.46-6.04,13.2C606.39,383.65,600.56,373.23,617.24,362.4z"/>
	<path d="M700.16,362.6c-2.32,2.82-5.94,4.84-6.85,8.77c5.64-4.53,10.78-9.47,15.31-15.21c-5.81,1.06-8.46,11.14-1.81-7.25
		C701.77,351.01,698.14,358.67,700.16,362.6z"/>
	<path d="M616.94,155.36c-2.72-5.44-11.08-4.63-16.42,1.31c2.12,0.1,2.82-1.61,4.43-2.22c2.01,1.01,4.53-0.5,7.56,1.01
		c-3.93,0.6-6.85,1.81-9.47,3.73C617.09,160.04,611.71,154.15,616.94,155.36z"/>
	<path d="M367.18,395.34c-3.73,1.81-7.96,2.92-10.98,6.45c-2.82-1.61-5.54-3.93-9.37-3.73c3.32,5.54,8.97,8.97,11.89,7.35
		c0.71-1.21-0.81-1.81-0.91-2.92C360.84,400.08,364.97,398.87,367.18,395.34z"/>
	<path d="M783.88,393.73c-3.83,1.81-7.96,3.02-10.98,6.45c-2.92-1.41-5.64-3.83-9.47-3.63c3.43,5.64,9.07,8.97,11.89,7.25
		c0.6-1.21-0.81-1.81-0.91-2.92C777.53,398.37,781.66,397.26,783.88,393.73z"/>
	<path d="M576.74,477.15c1.11,0.4,2.22,0.91,3.43,1.51c0.6-1.31,1.92-1.91,2.82-3.02c1.93-2.4,1.58-5.6-0.71-7.25
		C576.87,464.48,570.12,473.23,576.74,477.15z M581.27,474.63c-1.51-2.22-2.52-1.51-3.22,0.5c-4.12-2.35-0.4-7.48,2.72-5.24
		C582.59,471.2,582.58,472.82,581.27,474.63z"/>
	<path d="M158.33,470.6c-3.3,5.46,3.15,7.44,5.14,9.07c0.71-1.51,2.01-2.22,2.92-3.32C171.29,470.41,162.11,464.34,158.33,470.6z
		 M164.48,475.54c-1.51-3.63-2.22-0.81-3.22,0.4c-3.79-3.39,0.13-7.24,2.82-5.34C165.9,471.89,165.89,473.53,164.48,475.54z"/>
	<path d="M367.48,453.27c3.51-3.69,0.65-6.29,1.51-12.39c0.61-4.33-0.3-8.46-1.81-12.39c-3.45,0-0.2,6.83-0.2,12.29
		C366.98,444.81,366.48,448.84,367.48,453.27z"/>
	<path d="M785.39,444.11c-1.21-4.55,1.93-4.12-1.31-16.22c-0.11-0.4-0.5-0.71-1.31-0.91c-0.5,1.31,0.6,20.65,1.31,24.68
		C786.1,449.24,786.06,446.63,785.39,444.11z"/>
	<path d="M712.95,382.65c8.87-3.93,16.32-10.28,24.48-15.21C728.67,371.47,719.9,375.6,712.95,382.65z"/>
	<path d="M169.01,468.99c6.52,0,7.35-10.54,0.2-10.28C162.44,458.97,162.61,468.99,169.01,468.99z M169.21,466.67
		c-3.64,0-4.17-5.3-0.2-6.04C172.57,459.96,173.56,466.67,169.21,466.67z"/>
	<path d="M588.83,175.21c0,16.34,7.69,13.09,16.52,19.75c0.68,0.51,4.55-1.85-6.55-5.44C590.8,186.92,591.48,177.53,588.83,175.21z"
		/>
	<path d="M585.91,457.91c-6.8,0-6.99,10.16-0.5,10.28C591.81,468.3,593.16,457.91,585.91,457.91z M585.51,459.92
		c3.51-0.66,4.61,6.04,0.2,6.04C582.13,465.97,581.52,460.67,585.51,459.92z"/>
	<path d="M593.97,454.79c1.11-0.4,1.61,1.41,2.82,0.91c0.1-2.01,0.1-2.01-6.75-6.45c-1.51,2.42-4.19,3.95-3.12,7.05
		c0.67,1.93,2.42,2.01,4.03,1.81c1.31,0.4,0.81,2.12,2.22,2.42C595.28,458.92,591.75,456.4,593.97,454.79z M588.93,456.1
		c-0.71-2.01,0.71-2.82,1.51-3.73C593.49,452.37,591.54,456.22,588.93,456.1z"/>
	<path d="M177.57,455.49c1.01-0.2,1.61,1.51,2.82,0.91c-0.1-2.12-0.6-2.52-6.85-6.35c-1.51,2.01-4.04,3.63-3.22,6.65
		c0.6,2.22,2.52,2.22,4.13,2.12c1.31,0.5,0.71,2.22,2.22,2.42C178.68,459.62,175.05,457.1,177.57,455.49z M172.33,456.6
		c-0.74-2.22,2.16-5.13,3.32-2.42C174.85,455.29,174.65,457,172.33,456.6z"/>
	<path d="M583.29,391.52c-0.05,4.13,0.71,5.34,5.04,7.15c-0.21-2.07-5.25-2.49-4.23-7.96c0.51-2.73-1.86-6.04-3.22-13
		c-0.53-2.71-0.3-5.54-0.6-8.26C575.96,377.85,583.35,386.82,583.29,391.52z"/>
	<path d="M581.37,363.1c-1.81-8.46-0.3-17.03-0.4-25.59C579.36,346.08,577.85,354.64,581.37,363.1z"/>
	<path d="M688.57,368.34c2.82-5.34,7.35-9.07,11.38-13.5C694.62,356.15,687.87,363.91,688.57,368.34z"/>
	<path d="M686.15,349.81c-2.38-1.44-5.09-6.58-9.37-6.95c1.5,2.72,2.55,3.05,8.26,8.77c3.22,0.81,0.86,4.41,4.13,5.84
		C689.18,354.24,688.98,351.51,686.15,349.81z"/>
	<path d="M647.57,398.77c-0.71,7.86-1.91,15.72-2.82,23.68C647.47,414.79,648.57,406.93,647.57,398.77z"/>
	<path d="M790.73,385.47c-4.69,6.25,5.09,6.75,5.54,11.89c1.21-4.53,1.41-5.34-5.04-8.97C790.33,387.49,791.94,386.28,790.73,385.47
		z"/>
	<path d="M715.67,386.88c0.8,1.19-1.24,2.54,17.63-12.29c-0.1-0.1-0.3-0.3-0.6-0.6C726.76,378.01,720.61,381.54,715.67,386.88z"/>
	<path d="M374.03,386.58c-4.8,5.33,5.14,7.85,5.74,12.09c0.81-5.34,0.6-5.64-5.24-8.97C374.13,388.69,375.14,387.69,374.03,386.58z"
		/>
	<path d="M623.59,183.07c-2.12,0-3.12,1.31-3.53,3.73c3.12,0.91,5.54-0.2,8.06-1.61C627.22,182.76,625.3,182.96,623.59,183.07z"/>
	<path d="M644.85,382.15c-3.32,6.45-5.14,13.4-7.96,20.05C641.02,396.05,642.93,389,644.85,382.15z"/>
	<path d="M684.84,351.52c-2.67,1.33,3.6,7.63-2.72,14.31C688.65,365.15,687.34,355.26,684.84,351.52z"/>
	<path d="M614.92,181.05c2.22,1.91,8.16,0.91,14.1-2.32C624.29,178.23,620.06,180.85,614.92,181.05z"/>
	<path d="M607.57,491.66c-0.81,2.42,0.1,8.06,2.12,11.69C610.09,499.62,609.18,494.68,607.57,491.66z"/>
	<path d="M193.19,504.15c0-3.83-0.6-7.56-2.01-11.69C190.27,495.49,191.17,501.13,193.19,504.15z"/>
	<path d="M698.85,349c-0.3-0.2-0.5-0.4-0.81-0.6C693.79,352.08,685.69,368.42,698.85,349z"/>
	<path d="M591.25,403.2c-0.71,4.63-1.51,9.37-2.32,14C590.74,412.77,591.25,408.04,591.25,403.2z"/>
	<path d="M626.91,170.87c-2.62-1.91-5.74-0.6-5.84,2.72C622.48,171.38,625.6,173.29,626.91,170.87z"/>
	<path d="M675.98,349.3c-2.92-2.02-5.54-3.73-8.16-5.54C669.83,347.59,672.05,349,675.98,349.3z"/>
	<path d="M755.17,396.45c2.32,0.91,4.23,3.22,7.15,2.12C761.11,396.25,760.51,396.15,755.17,396.45z"/>
	<path d="M563.44,294.29c3.63-0.5,7.05-0.3,10.98-0.3C571.1,292.48,568.08,292.58,563.44,294.29z"/>
	<path d="M338.67,397.76c2.22,1.11,4.23,3.43,7.66,2.01C344.01,397.06,341.19,397.96,338.67,397.76z"/>
	<path d="M584.4,401.39c-3.12,2.52-6.15,5.04-9.07,7.56C579.46,407.33,583.19,404.11,584.4,401.39z"/>
	<path d="M615.43,220.24c3.22,1.01,6.45,1.91,9.67,2.92C625.87,220.86,617.87,220.1,615.43,220.24z"/>
	<path d="M382.09,427.78c-0.1-3.43,0.4-6.15,2.32-8.46C381.09,421.24,379.88,423.45,382.09,427.78z"/>
	<path d="M800.81,417.81c-3.43,1.71-3.93,3.43-2.42,8.06c0.81-1.41,0.3-2.82,0.4-4.13C799.09,420.33,801.01,419.62,800.81,417.81z"
		/>
	<path d="M581.88,396.35c-2.82,1.21-5.54,2.32-8.26,3.53C576.64,399.47,579.66,398.97,581.88,396.35z"/>
	<path d="M678.3,364.72c1.51-1.71,2.92-3.32,4.43-4.94C680.21,360.38,677.79,361.29,678.3,364.72z"/>
	<path d="M565.76,312.23c2.72,0,5.34,0,8.56,0C571.2,310.41,568.38,312.02,565.76,312.23z"/>
	<path d="M576.94,316.05c-2.72,0.5-5.34,0.6-8.06,0.91C571.7,317.77,574.42,317.97,576.94,316.05z"/>
	<path d="M784.89,385.27c0.2,2.32-0.91,3.93-1.11,6.04C786.5,389.1,786.7,387.99,784.89,385.27z"/>
	<path d="M368.79,386.68c-1.91,7.01-1.68,5.69-0.6,6.04C369,391.01,370.71,389.4,368.79,386.68z"/>
	<path d="M779.85,410.76c-0.3-2.72-1.11-4.53-2.22-6.25C776.53,407.03,778.04,408.54,779.85,410.76z"/>
	<path d="M719.8,360.79c-2.12,1.21-3.93,2.72-4.94,5.04C716.98,364.62,718.59,362.9,719.8,360.79z"/>
	<path d="M363.15,411.77c0.1-2.22-1.31-3.93-1.81-5.84C360.33,408.44,360.53,408.84,363.15,411.77z"/>
	<path d="M64.53,522.39c1.81-1.71,1.81-3.73,2.12-5.64C65.34,518.26,64.94,520.07,64.53,522.39z"/>
	<path d="M481.13,521.38c1.61-2.22,1.81-4.13,2.01-6.04C481.94,516.95,481.33,518.66,481.13,521.38z"/>
	<path d="M480.93,512.82c-2.01-0.71-3.93-2.32-6.35-1.61C476.7,511.81,478.71,512.92,480.93,512.82z"/>
	<path d="M589.64,397.56c0.4-1.81-0.5-3.02-0.81-4.33C588.53,394.74,588.23,396.15,589.64,397.56z"/>
	<path d="M622.48,365.93c-2.14,1.43-0.87,3.04,0.3,0.3c0.29,0.29-0.2,0.04,4.23-3.12C622.86,363.29,622.94,366.38,622.48,365.93z"/>
	<path d="M747.31,395.34c1.01,0.81,2.12,0.71,3.73,1.11C749.22,394.94,749.22,394.94,747.31,395.34z"/>
	<path d="M330.11,396.35c1.71,1.11,2.72,1.31,4.63,1.21C333.13,396.25,332.02,396.25,330.11,396.35z"/>
	<path d="M636.38,365.52c0.91-0.91,1.71-1.81,2.92-3.12C637.39,362.9,637.09,364.31,636.38,365.52z"/>
	<path d="M631.85,225.98c-1.11-1.11-2.62-1.21-3.93-1.71C629.03,225.38,630.44,225.68,631.85,225.98z"/>
	<path d="M798.49,414.89c1.81-0.5,2.32-1.31,2.32-2.92C799.19,412.27,798.89,413.38,798.49,414.89z"/>
	<path d="M384.11,413.18c-1.51,0.71-1.81,1.61-2.12,2.62C383.41,416.44,384.6,414.67,384.11,413.18z"/>
	<path d="M637.69,222.46c-1.41,0.3-2.32,1.01-2.52,2.32C636.02,225.34,635.67,225.5,637.69,222.46z"/>
	<path d="M577.85,300.14c0.5-1.61,0.4-2.62,0-3.63C577.85,297.52,577.85,298.52,577.85,300.14z"/>
	<path d="M639.2,234.15c0.71,1.81,1.01,2.82,2.52,3.93C641.42,236.16,640.92,235.35,639.2,234.15z"/>
	<path d="M626.11,212.18c0.1-1.41-0.4-2.22-1.11-2.82C624.24,209.36,624.44,210.97,626.11,212.18z"/>
	<path d="M784.99,417.81c0.6,0.81,1.21,1.71,1.81,2.62C787.41,418.52,786.5,417.91,784.99,417.81z"/>
	<path d="M781.66,380.74c0.4,0.81,1.01,1.51,2.01,1.91C783.28,381.54,782.67,380.94,781.66,380.74z"/>
	<path d="M364.46,381.64c1.11,1.31,1.71,2.02,2.72,2.42C366.78,383.05,366.17,382.35,364.46,381.64z"/>
	<path d="M368.29,418.72c0.71,1.51,1.31,2.32,2.52,3.32C370.91,420.13,370.1,419.42,368.29,418.72z"/>
	<path d="M365.87,459.92c1.11-1.11,0.91-1.71,0.1-2.52C365.07,458.21,365.37,459.02,365.87,459.92z"/>
	<path d="M782.57,455.99c-1.11,0.81-0.4,1.51-0.5,2.62C783.58,457.61,783.28,456.9,782.57,455.99z"/>
	<path d="M636.89,230.32c-0.1-1.21-0.6-1.61-1.71-1.81C635.48,229.41,635.78,229.91,636.89,230.32z"/>
	<path d="M787,492.77c-1.01,1.41-0.6,2.12-0.5,3.02C787.31,494.88,787.1,494.08,787,492.77z"/>
	<path d="M370.1,497.3c0.5-1.11,0.71-1.81,0.1-2.62C369.5,495.39,369.7,496.09,370.1,497.3z"/>
	<path d="M364.36,377.61c-0.5-1.01-1.11-0.91-1.91-0.4C363.15,378.01,363.76,378.22,364.36,377.61z"/>
	<path d="M780.96,376.1c-0.6-0.91-1.21-0.71-1.91-0.4C779.55,376.5,780.05,376.81,780.96,376.1z"/>
	<path d="M782.77,414.49c0.2-0.91-0.2-1.51-1.31-1.81C781.16,414.18,782.17,414.18,782.77,414.49z"/>
	<path d="M366.48,415.8c0.1-0.91-0.6-1.21-1.21-1.71C364.11,415.08,365.67,416.34,366.48,415.8z"/>
	<path d="M580.87,317.97c-0.1,0.4-0.2,0.91,0.1,1.31C581.17,318.77,581.27,318.37,580.87,317.97z"/>
	<path d="M583.19,373.68c-0.41,0-0.1-0.07-0.1,0.91C583.23,374.59,583.19,374.73,583.19,373.68z"/>
	<path d="M199.23,157.07c-3.73,0.91-6.65,2.01-9.37,4.03c17.64-0.52,5.04-2.12,13.6-4.13c-1.91-5.14-10.18-4.43-15.72,1.41
		c1.71,0.1,2.62-1.41,4.13-2.22C193.89,157.27,196.51,155.96,199.23,157.07z"/>
	<path d="M195.91,277.47c-5.78-4.81-1.81,6.2,7.05,2.92c1.41,1.91,1.41,1.91,3.73,3.02c-0.6-2.12-1.91-3.53-3.02-5.24
		C200.85,280.39,198.28,279.44,195.91,277.47z"/>
	<path d="M216.06,180.85c-4.84-0.81-8.97,2.02-13.7,2.02C202.36,186.56,211.89,182.18,216.06,180.85z"/>
	<path d="M248,296.71c-0.5,5.44,0.81,10.38,1.81,15.31C250.92,308.6,250.01,300.84,248,296.71z"/>
	<path d="M207.7,186.49c1.81,1.81,4.13,1.51,8.06-1.31C212.33,183.57,210.62,183.87,207.7,186.49z"/>
	<path d="M229.46,230.92c-4.94-2.52-10.78-1.91-15.82-4.43C218.28,230.12,224.02,229.91,229.46,230.92z"/>
	<path d="M181.4,279.58c0.63,4.42,4.7,8.9,5.94,7.66C181.46,277.89,182.78,278.66,181.4,279.58z"/>
	<path d="M208.5,196.57c-4.63-0.5-8.66-1.31-12.49-2.22c-0.97,0.73,0.6,1.31-0.3,1.31C200.13,195.51,205.19,199.48,208.5,196.57z"/>
	<path d="M252.23,328.24c1.61-3.32,0.71-8.66-2.42-12.9C250.01,320.18,253.13,323.81,252.23,328.24z"/>
	<path d="M204.57,244.62c-8.61-4.13-7.22-3.98-8.06-2.72C198.43,244.62,201.25,245.13,204.57,244.62z"/>
	<path d="M214.04,172.39c-2.52-1.6-8.58,0.72-5.74,3.12C209.31,173.09,212.73,175.21,214.04,172.39z"/>
	<path d="M186.64,301.85c-1.71-2.22-3.43-4.53-5.14-6.85C181.3,298.73,183.62,300.54,186.64,301.85z"/>
	<path d="M190.77,274.85c-2.22-2.62-5.74-3.73-7.56-6.85C184.42,271.83,186.94,274.04,190.77,274.85z"/>
	<path d="M195.71,195.66c0.24,0.24,0.15-0.06-1.61,0.6c3.63,1.61,6.95,2.72,10.58,3.22C201.95,197.47,198.23,198.08,195.71,195.66z"
		/>
	<path d="M191.17,193.85c-2.52-2.12-5.44-3.43-8.66-4.23C185.03,191.83,187.95,193.04,191.17,193.85z"/>
	<path d="M247.79,315.55c-2.52,0.71-4.94,1.41-7.86,2.22C243.46,317.97,244.87,317.57,247.79,315.55z"/>
	<path d="M196.51,334.39c0.71,1.91,2.32,3.12,4.23,3.93C200.14,336.3,198.73,335,196.51,334.39z"/>
	<path d="M245.48,282.4c-0.2,2.62,0.3,5.04,1.71,7.15C246.59,287.14,245.98,284.82,245.48,282.4z"/>
	<path d="M232.78,232.73c-0.81,3.02-0.5,4.13,1.61,6.65C233.79,236.97,233.89,234.85,232.78,232.73z"/>
	<path d="M195.51,291.67c-1.41-1.01-2.92-2.02-4.33-3.02C191.58,291.07,193.19,291.77,195.51,291.67z"/>
	<path d="M231.37,319.58c1.81-0.3,3.12,0.1,4.94-1.11C234.19,318.37,232.88,318.27,231.37,319.58z"/>
	<path d="M220.09,273.64c1.41,0.71,2.62,0.2,4.33-0.71C222.61,272.73,221.4,272.73,220.09,273.64z"/>
	<path d="M246.08,296.51c-1.71-0.4-2.52,0.71-3.53,1.41C243.76,298.02,245.18,298.12,246.08,296.51z"/>
	<path d="M208.5,244.72c1.21,1.61,2.62,0.81,3.83,0.91C211.22,244.72,210.11,244.22,208.5,244.72z"/>
	<path d="M202.26,309.3c-1.11-1.91-2.52-2.12-4.33-3.02C199.03,308.5,200.54,308.5,202.26,309.3z"/>
	<path d="M251.42,271.62c-2.22-0.71-3.83-0.5-5.44-0.1C247.49,272.33,249.1,272.13,251.42,271.62z"/>
	<path d="M241.45,249.36c-0.5-1.11-1.11-2.22-1.81-3.73C239.33,247.54,240.24,248.55,241.45,249.36z"/>
	<path d="M194.1,305.58c-1.31-1.31-2.22-2.12-3.93-2.52C191.07,304.77,191.98,305.37,194.1,305.58z"/>
	<path d="M201.15,340.03c0.1,1.51,0.91,1.91,2.32,2.12C203.16,340.84,202.66,340.13,201.15,340.03z"/>
	<path d="M202.46,293.69c0.71,0.91,1.51,1.31,2.72,1.11C204.57,293.39,203.36,293.79,202.46,293.69z"/>
	<path d="M200.34,291.77c0.3,1.51,1.21,1.61,2.01,2.02C202.46,292.48,201.55,292.18,200.34,291.77z"/>
	<path d="M190.87,274.75v0.1C190.96,274.85,190.91,274.86,190.87,274.75z"/>
	<path d="M193.09,276.26c-0.39-0.99-1.09-1.58-2.17-1.41C191.34,275.76,192.11,276.07,193.09,276.26z"/>
	<path d="M215.35,246.03c0.81,0.71,1.31,0.5,1.81,0.2C216.56,245.63,216.16,246.03,215.35,246.03z"/>
	<path d="M283.76,363.61c-2.13,3.25-6.37,5.04-7.35,8.97c0.42,0.28,0.71,0.8,0.88,0.63c11.38-11.34,22-21.37,9-11.92
		c2.44-6.54,3.64-10.15,4.03-11.18C285.76,352.14,281.33,359.85,283.76,363.61z"/>
	<path d="M169,333.38c-2.52,0.51-5.26,17.64-4.43,27.4c0.21,2.42,0.2,2.42,2.12,4.63c-0.28-4.34-0.42-7.02-0.5-8.58
		C167.92,355.92,167.38,356.68,169,333.38z M166.39,351.62c0-1.81,0-3.53,0-5.24C166.89,348.09,166.79,349.91,166.39,351.62z"/>
	<path d="M296.05,385.07c9.27-4.84,16.62-11.18,25.29-15.92C316.51,369.35,298.27,380.53,296.05,385.07z"/>
	<path d="M171.63,400.58c0.79-2.05-5.25-3.29-3.53-8.46c0.86-2.01-4.77-13.32-2.82-21.36c-5.41,7.95,2.22,16.48,1.71,23.78
		C166.77,397.76,169.21,399.17,171.63,400.58z"/>
	<path d="M272.08,369.85c2.82-5.24,7.15-9.17,11.08-13.6C276.91,358.87,271.27,365.52,272.08,369.85z"/>
	<path d="M269.56,351.32c-2.38-1.44-5.09-6.58-9.37-6.95c2.12,3.83,5.84,5.64,8.06,8.56c0.74,0.74,1.59-0.17,2.32,3.22
		c0.22,1,0.3,2.22,2.02,2.62C272.58,355.75,272.38,353.02,269.56,351.32z"/>
	<path d="M265.53,367.23c6.39-0.46,5.05-10.81,2.72-14.31C265.58,354.26,271.83,360.39,265.53,367.23z"/>
	<path d="M230.87,400.18c-0.5,7.96-1.81,15.82-3.22,24.08C230.57,421.14,232.48,406.33,230.87,400.18z"/>
	<path d="M299.08,388.19c1.13,1.69-1.31,2.55,17.63-11.99C315.79,374.37,301.79,385.69,299.08,388.19z"/>
	<path d="M220.39,403.5c4.23-5.94,5.84-13,7.96-19.95C225.03,389.9,223.21,396.96,220.39,403.5z"/>
	<path d="M169.01,333.28c0-0.03,0.02-0.08,0-0.1V333.28z"/>
	<path d="M170.62,345.37c0.81-4.84,0.1-9.47-1.11-14.61c-0.2,1.08-0.39,1.76-0.49,2.45C170.76,336.32,169.14,343.15,170.62,345.37z"
		/>
	<path d="M282.45,350.41c-0.11-0.05-0.72-0.41-1.01-0.6C276.73,354.52,269.44,369.34,282.45,350.41z"/>
	<path d="M167.3,307.49c-1.11,0-1.14-1.83-0.1,14.1c0.3,0,0.6,0,0.81,0C166.99,316.96,167.8,312.23,167.3,307.49z"/>
	<path d="M168.3,403.61c-3.73,2.22-7.25,4.63-10.07,7.96C161.96,409.35,165.38,406.93,168.3,403.61z"/>
	<path d="M174.75,405.22c-0.91,4.74-1.81,9.47-2.82,14.21C174.05,414.89,174.65,410.15,174.75,405.22z"/>
	<path d="M250.72,346.08c2.32,2.22,4.53,4.43,8.26,4.33C249.92,344.49,251.48,344.93,250.72,346.08z"/>
	<path d="M160.75,313.64c-3.02-1.71-5.84-0.5-8.56-0.91C152.18,313.94,150.89,313.64,160.75,313.64z"/>
	<path d="M164.98,295.3c0,10.94-0.52,3.91,1.71,6.15C166.69,299.13,167.2,296.91,164.98,295.3z"/>
	<path d="M157.02,401.49c3.22-0.3,6.25-0.91,8.56-3.43C162.66,399.17,159.84,400.38,157.02,401.49z"/>
	<path d="M261.09,366.23c2.14-1.24,3.79-3.95,4.94-5.34C263.08,361.99,261.23,362.84,261.09,366.23z"/>
	<path d="M163.47,317.67c-3.02,0.5-6.04,0.5-9.17,0.3C157.42,319.18,160.45,319.58,163.47,317.67z"/>
	<path d="M165.58,323.21c-3.43,0-6.75,0-9.77,0C158.73,324.32,162.16,323.91,165.58,323.21z"/>
	<path d="M161.15,294.7c-2.52-0.4-5.14-0.71-7.76,0.4C161.98,295.79,161.15,295.9,161.15,294.7z"/>
	<path d="M303.51,362.5c-0.2-0.2-0.3-0.3-0.5-0.5C299.62,366.59,295.84,371.12,303.51,362.5z"/>
	<path d="M210.42,364.51c-2.22,0.1-3.63,1.11-4.43,2.92c0.06,0.06,0.1,0.12,0.13,0.16c-0.06-0.06-0.14-0.11-0.23-0.16
		c-2.13,1.42-0.79,3.19,0.4,0.4c-0.05-0.09-0.1-0.16-0.15-0.23C206.33,367.82,206.6,367.52,210.42,364.51z"/>
	<path d="M172.23,394.64c-0.1,1.41-0.4,2.82,0.81,4.43C173.54,397.16,172.74,395.95,172.23,394.64z"/>
	<path d="M219.18,366.73c1.81-0.3,2.12-1.91,2.82-3.02C221.1,364.62,220.29,365.52,219.18,366.73z"/>
	<path d="M158.33,279.68c-0.5-0.91-1.21-0.71-1.91-0.3C157.02,279.99,157.62,279.89,158.33,279.68z"/>
	<path d="M166.69,376.3c0-0.6,0.1-0.91,0.1-1.21C166.19,375.4,166.49,375.7,166.69,376.3z"/>
	<path d="M158.83,308.8c0.2,0.81,0.71,0.71,1.21,0.3C159.84,308.5,159.44,308.1,158.83,308.8z"/>
	<path d="M163.77,310.51c-0.3,0-0.6,0.1-1.51,0.2C164.07,310.92,163.77,311.01,163.77,310.51z"/>
	<path d="M272.38,443.4c-3.22,4.74-0.5,8.46,0.2,12.29C274.49,451.76,274.29,447.93,272.38,443.4z"/>
	<path d="M296.56,417.61c0.3-5.44-5.34-8.56-3.43-13.8C290.41,407.23,291.62,411.87,296.56,417.61z"/>
	<path d="M285.58,437.26c4.23-2.72,3.22-6.75-2.12-9.87C284.87,430.91,289.3,433.23,285.58,437.26z"/>
	<path d="M274.8,439.77c1.71-3.12-0.2-6.35,0.5-9.57C272.28,433.23,275.1,436.55,274.8,439.77z"/>
	<path d="M256.56,411.36c3.12,1.71,6.65,2.22,9.87,3.63C263.51,412.87,260.69,410.25,256.56,411.36z"/>
	<path d="M271.87,459.12c-1.11,3.93-2.02,7.96-1.01,12.19C270.46,467.18,272.08,463.25,271.87,459.12z"/>
	<path d="M281.85,426.07c-0.91-2.52-2.12-4.84-4.94-6.75C277.52,422.85,279.83,424.36,281.85,426.07z"/>
	<path d="M290.81,482.39c1.51-2.72,1.51-4.74,1.11-6.85C290.51,477.45,291.22,479.57,290.81,482.39z"/>
	<path d="M295.05,424.56c2.22-2.32,2.32-2.82,0.2-5.14C295.65,421.14,295.05,422.75,295.05,424.56z"/>
	<path d="M292.93,393.53c-1.71-1.21-3.63-1.31-5.94-1.11C289,394.03,291.02,393.83,292.93,393.53z"/>
	<path d="M289.91,489.04c1.01-1.31,1.71-2.72,0.6-4.53C290.31,486.02,290.11,487.53,289.91,489.04z"/>
	<path d="M274.59,518.26c1.21-1.61,1.41-3.22,0.81-5.54C274.69,514.83,273.99,516.34,274.59,518.26z"/>
	<path d="M246.79,418.72c1.21,1.41,2.62,0.71,3.93,0.71C249.51,419.12,248.5,417.71,246.79,418.72z"/>
	<path d="M275.4,527.73c-0.81,1.51,0,2.52,0.71,3.43C276.81,529.84,276.61,528.74,275.4,527.73z"/>
	<path d="M271.67,476.25c-0.6,1.51,0.3,2.42,0.81,3.83C273.08,478.36,272.98,477.25,271.67,476.25z"/>
	<path d="M275,524.5c1.31-0.81,1.11-1.51,0.2-2.52C274.69,522.89,275,523.5,275,524.5z"/>
	<path d="M273.49,389.1c-1.01-0.4-1.31-0.5-1.61-0.71C271.67,389.2,272.18,389.1,273.49,389.1z"/>
	<path d="M164.17,169.46c-5.8,2.43-0.4,5.92,2.32,16.52C169.26,180.66,162.32,176.5,164.17,169.46z"/>
	<path d="M157.62,253.29c0.28-2.72,0.1-5.84-0.6-9.07c-2.12,4.33-0.91,13.2,2.62,18.34C160.75,258.63,157.29,256.51,157.62,253.29z"
		/>
	<path d="M149.36,226.79c-1.11,5.64,2.42,13,7.66,15.62C152.99,237.87,150.77,232.53,149.36,226.79z"/>
	<path d="M168.81,207.65c-2.12,4.33-5.84,7.86-6.95,12.69C165.28,216.72,167.7,212.48,168.81,207.65z"/>
	<path d="M155,145.39c-2.52-2.22-5.44-2.92-5.64-6.25C145.98,140.66,148.17,146.36,155,145.39z"/>
	<path d="M165.18,113.35c-2.12,3.93-2.12,8.16-1.71,12.39C164.98,121.71,164.88,117.48,165.18,113.35z"/>
	<path d="M173.04,234.55c0-3.63-1.01-6.35-3.63-9.87C169.82,227.9,170.62,231.12,173.04,234.55z"/>
	<path d="M167.4,106.8c2.82-3.63,2.32-8.06,2.72-12.19C168.1,98.44,169.21,102.87,167.4,106.8z"/>
	<path d="M174.05,238.18c-1.01,3.32-0.1,5.84,3.22,9.27C176.06,244.02,175.15,241.2,174.05,238.18z"/>
	<path d="M160.45,229.31c0.2-3.02,0.91-5.94,1.41-8.87C159.74,223.57,159.34,225.38,160.45,229.31z"/>
	<path d="M175.15,211.98c-0.5,2.42,0,4.43,0.1,6.45C175.72,214.22,176.15,213.76,175.15,211.98z"/>
	<path d="M163.57,168.56c1.01-2.22,1.41-3.73,1.01-5.44C163.57,164.63,162.96,166.24,163.57,168.56z"/>
	<path d="M167.09,222.16c1.11-1.41,1.41-2.82,1.51-4.23C166.99,218.83,166.59,220.14,167.09,222.16z"/>
	<path d="M159.74,138.33c-1.61,0.91-2.32,2.42-2.82,4.23C158.43,141.56,159.14,140.05,159.74,138.33z"/>
	<path d="M172.03,239.18c0.81-1.11,0.81-2.22,0.5-3.63C171.02,236.76,171.33,237.97,172.03,239.18z"/>
	<path d="M149.77,131.78c1.01-3.02,0.81-5.14,0-7.35C149.46,126.65,149.16,128.76,149.77,131.78z"/>
	<path d="M146.64,146.8c0.71,1.41,1.71,1.31,3.22,0.6C148.66,146.19,147.75,146.29,146.64,146.8z"/>
	<path d="M153.9,216.11c1.21-0.5,1.41-1.71,2.12-3.22C154.4,213.79,153.9,214.8,153.9,216.11z"/>
	<path d="M158.63,208.66c-1.01,0.6-1.51,1.51-1.81,3.12C158.03,210.67,158.53,209.76,158.63,208.66z"/>
	<path d="M164.37,156.27c-0.71,1.41-0.6,2.62-0.1,3.83C164.88,158.99,164.98,157.78,164.37,156.27z"/>
	<path d="M174.45,209.26c0.6-1.01,0.3-1.81-0.71-2.32C173.24,207.95,173.14,208.76,174.45,209.26z"/>
	<path d="M165.68,148.61c0.81-0.71,0.71-1.41,0.2-2.52C164.98,147,164.98,147.7,165.68,148.61z"/>
	<path d="M152.18,218.13c1.41-0.6,1.81-1.11,1.71-2.01C152.89,216.21,152.89,217.02,152.18,218.13z"/>
	<path d="M251.42,192.03c5.84-2.42,7.96-11.38,4.84-19.95C254.34,178.53,255.85,185.79,251.42,192.03z"/>
	<path d="M259.68,122.82c0-4.03-1.01-7.86-2.62-11.49C256.96,115.36,257.67,119.19,259.68,122.82z"/>
	<path d="M245.78,140.55c2.52,0.91,4.03,0.2,6.25-3.22C249.71,138.03,247.59,138.84,245.78,140.55z"/>
	<path d="M239.23,201.1c-0.2-2.72-0.3-5.44-1.71-8.06C237.12,195.96,237.82,198.58,239.23,201.1z"/>
	<path d="M271.17,158.48c-1.71,2.82-1.61,5.44-1.41,8.06C270.56,164.12,271.47,161.61,271.17,158.48z"/>
	<path d="M247.9,224.27c1.41-2.12,1.51-4.43,0.81-6.75C247.69,219.64,247.9,221.95,247.9,224.27z"/>
	<path d="M258.07,169.67c1.51-1.41,1.51-3.22,1.81-4.84C257.37,165.64,257.16,166.14,258.07,169.67z"/>
	<path d="M257.27,102.16c-1.61,2.52-1.61,2.72,0,6.25C257.27,105.99,257.27,104.18,257.27,102.16z"/>
	<path d="M255.55,129.97c-1.11,2.02-1.71,4.23-3.02,6.04C254.54,134.5,255.75,132.59,255.55,129.97z"/>
	<path d="M243.56,218.93c0.3-1.91,0.5-3.83-1.21-5.54C241.95,215.61,242.56,217.32,243.56,218.93z"/>
	<path d="M268.55,144.68c-1.01,1.71-0.91,2.82,0,4.74C269.15,147.5,269.15,146.39,268.55,144.68z"/>
	<path d="M261.3,161c-2.01,0.81-1.21,2.52-1.51,3.83C260.89,163.92,261.6,162.71,261.3,161z"/>
	<path d="M271.77,150.93c-1.11,1.41-1.31,2.22-0.2,3.22C272.18,153.04,271.77,152.14,271.77,150.93z"/>
	<path d="M240.24,208.05c1.01-2.02,0.71-3.02-0.2-4.13C238.73,205.53,240.34,206.24,240.24,208.05z"/>
	<path d="M256.46,96.12c-0.4,1.01-0.4,1.61,0.2,2.02C258.02,98.3,256.9,96.78,256.46,96.12z"/>
	<path d="M178.38,50.78c3.5-20.9-20.61-51.07-42.92-32.84c-2.94,2.4-5.84,5.04-7.15,8.87l0.06,0.04c-0.66,0.5-0.67,1.3-1.17,2.38
		c0.1-0.03,12.19-18.84,25.89-14.91c21.35,6.12,30.65,33.31,18.34,50.88C167.63,70.61,175.94,65.34,178.38,50.78z"/>
	<path d="M141.91,37.18c-8.21,4.71-4.45,21.32,6.85,19.44c1.78-0.3,3.85-0.41,4.3-2.8c-1.35,0.16-2.44,1.2-3.8,1.59
		c-6.2,1.28-7.96-3.06-8.41-3.88c0.23,0.27,0.57,0.64,0.92,0.97c4.88,3.19,6.78,2.88,11.37-0.18c-0.01-0.01-0.01-0.03,0.01-0.07
		c0.01-0.02,0.03-0.04,0.04-0.06l-0.04,0.04c0.19-0.59,2.06-3.92,1.55-7.49C153.26,34.66,143.81,38.03,141.91,37.18z M140.7,51.69
		c-1.82-1.82-1.09-2.47-1.41-3.12c-0.77-0.98-1.24-3.42,0.2-6.45c-0.34,1.2-0.1,6.45,0,6.35c-0.07,0.43,1.04,0.92,1.18,2.85
		c0.02,0.02,0.05,0.06,0.07,0.09C140.71,51.41,140.7,51.49,140.7,51.69z M147.45,52.8c-7.87,0.27-7.81-13.87-0.5-13.5
		C154.48,39.68,154.28,52.56,147.45,52.8z"/>
	<path d="M139.19,48.36c0.29,0.44,0.22,0.6,0.27,0.28C139.15,48.33,138.93,47.85,139.19,48.36z"/>
	<path d="M126.09,33.35c0.1-0.4,0.2-0.81,0.3-1.31C125.38,32.04,125.89,32.75,126.09,33.35z"/>
	<path d="M124.38,46.25c0,0.3,0.4,0.5,0.91,0.5C125.68,45.57,124.38,45.3,124.38,46.25z"/>
	<path d="M166.89,70.73c0.71,0.1,1.01-0.2,1.21-0.81C167.3,69.62,167.2,70.43,166.89,70.73z"/>
	<path d="M153.19,52.35c0,2.17-0.12,1.25,1.41,0.04C153.95,51.55,153.63,52.61,153.19,52.35z"/>
	<path d="M218.37,30.62c-1.23-2.67-7.87,4.78-4.74,12.19c4.17,9.84,14.41,7.44,14.91,3.63c-0.43-0.11-3.89,2.88-7.94,1.87
		c-2.54-0.63-3.77-2.9-4.3-3.79c1.46,1.54,7.4,6.3,12.85-0.59c-0.02,0.1-0.08,0.26,0,0.1C232.38,34.36,226.85,27.98,218.37,30.62z
		 M214.75,41.38c0-0.1-2.5-4.36,0.8-7.23c-0.87,2.01-0.8,4.36-0.8,7.16c0.73,0.49,1.12,2.24,1.51,3.02
		c-0.18-0.18-0.28-0.25-0.29-0.24C214.54,42.97,214.75,41.59,214.75,41.38z M222.51,45.64c-7.49,0-7.49-13.6-0.2-13.6
		c2.92,0,5.79,3.32,5.84,6.75C228.2,42.32,225.43,45.64,222.51,45.64z"/>
	<path d="M232.38,68.31c0.62,0.31,0.37,0.44,0.71,0.1C232.76,67.76,232.86,67.84,232.38,68.31z"/>
	<path d="M281.24,558.66c5.74-2.52,11.38-2.62,16.83-5.54C292.93,550.9,282.75,554.02,281.24,558.66z"/>
	<path d="M293.03,569.34c4.33,1.11,7.96-0.3,11.99-1.01C302.2,564.8,296.56,565.21,293.03,569.34z"/>
	<path d="M663.08,301.85c0.39,2.82,1.01,5.54,1.91,8.26C666.05,300.97,660.92,286.05,663.08,301.85z"/>
	<path d="M667.11,326.03c1.41-3.93,0.3-9.27-2.42-12.59C664.69,317.97,668.02,321.6,667.11,326.03z"/>
	<path d="M624.9,255.91c2.42,1.21,2.92,1.21,6.04-0.1C628.32,255.2,627.42,255.2,624.9,255.91z"/>
	<path d="M662.48,313.43c-2.32,0.71-4.63,1.31-6.95,1.91C658.04,315.65,660.46,315.15,662.48,313.43z"/>
	<path d="M659.86,280.49c0.2,2.32,0.6,4.33,1.61,6.75C661.77,284.42,660.87,282.4,659.86,280.49z"/>
	<path d="M609.89,290.97c-1.01-0.3-2.12-0.4-3.22-0.71C607.47,292.08,608.68,291.67,609.89,290.97z"/>
	<path d="M595.08,295.5c0.5,1.31,1.41,1.81,2.72,1.81C597.19,295.6,597.19,295.6,595.08,295.5z"/>
	<path d="M660.87,294.29c-1.71-0.2-2.52,0.71-3.43,1.41C658.75,295.9,659.96,296.01,660.87,294.29z"/>
	<path d="M610.79,288.85c0.2-1.21,0.6-2.52-0.1-4.13C609.69,286.53,609.69,287.74,610.79,288.85z"/>
	<path d="M646.36,317.36c1.61-0.1,2.92,0,4.23-0.81C649.08,315.95,647.87,316.05,646.36,317.36z"/>
	<path d="M612.71,255.1c0.3,0.91,0.6,1.91,2.22,1.51C614.32,255.71,613.72,255.2,612.71,255.1z"/>
	<path d="M603.54,296.11c1.41,0.6,2.12,0.91,3.53,0.3C605.96,295.7,605.15,295.6,603.54,296.11z"/>
	<path d="M600.01,287.95c0.4,1.51,1.11,1.71,2.01,1.11C601.73,288.35,601.22,288.05,600.01,287.95z"/>
	<path d="M647.57,246.44c0.4-0.71,0-1.01-0.81-1.41C646.66,245.93,646.96,246.34,647.57,246.44z"/>
	<path d="M638.7,254.8c0.81,0.6,1.11,0.2,1.51-0.2C639.41,253.79,639.2,254.6,638.7,254.8z"/>
	<path d="M569.49,248.15c-6.25,6.55-13.8,10.78-21.86,14.51C555.18,263.46,568.08,255.1,569.49,248.15z"/>
	<path d="M591.25,249.26c-3.93,0-7.86-1.81-12.09-1.71c7.35,4.63,15.92,5.04,24.18,6.25C599.61,251.47,596.08,249.26,591.25,249.26z
		"/>
	<path d="M577.45,254.4c-0.81,2.22,0.4,3.53,1.71,4.53c4.48,3.4,6.1,9.19,11.59,12.29C587.86,260.25,580.77,261.82,577.45,254.4z"/>
	<path d="M571.9,256.71c-0.15,0.15-0.12,0.11-0.02,0.04C571.89,256.74,571.89,256.72,571.9,256.71z"/>
	<path d="M571.4,258.02c4.53-0.71,6.55-5.84,3.53-9.67C574.05,257.68,573.46,253.8,571.4,258.02z"/>
	<path d="M568.48,234.35c0.22,2.4,1.36,1.14,6.75,9.47C575.03,239.18,572.41,236.26,568.48,234.35z"/>
	<path d="M533.62,277.06c-2.52,2.01-5.44,2.92-9.37,3.22C529.39,281.8,531.91,280.89,533.62,277.06z"/>
	<path d="M557.2,234.75c2.82,2.22,6.25,2.82,9.87,2.92C564.05,235.96,560.42,235.96,557.2,234.75z"/>
	<path d="M554.58,235.05c0.36-1.42,1.54-0.29-6.95-3.83C549.34,233.74,551.75,234.95,554.58,235.05z"/>
	<path d="M593.16,273.64c0.6,2.32-0.81,5.14,1.91,6.85C593.16,278.58,596.08,275.35,593.16,273.64z"/>
	<path d="M566.87,221.45c2.32-0.1,4.63-0.3,6.95-0.81C571.4,219.84,569.08,220.04,566.87,221.45z"/>
	<path d="M535.03,264.57c-1.22,1.22-2.05,3.22-2.62,4.84C534.73,268.5,534.43,266.39,535.03,264.57z"/>
	<path d="M571.5,250.87c-0.3,1.41-0.6,2.52-1.01,3.93C572.61,253.09,572.61,253.09,571.5,250.87z"/>
	<path d="M523.54,271.42c-0.3,1.61-0.3,2.92,1.01,4.23C524.85,273.94,524.85,272.63,523.54,271.42z"/>
	<path d="M534.93,214.6c-1.11,1.21-0.71,2.72-0.91,4.13C535.63,217.62,534.63,216.01,534.93,214.6z"/>
	<path d="M576.04,246.24c-0.1,1.31,0.5,1.61,1.51,1.71C577.55,247.04,577.14,246.44,576.04,246.24z"/>
	<path d="M585.3,284.12c0,1.41,0.6,1.51,1.61,1.21C586.71,284.22,586.01,284.12,585.3,284.12z"/>
	<path d="M528.28,253.59c-1.01,0-0.91,0.6-0.71,1.21C528.38,254.7,528.38,254.09,528.28,253.59z"/>
	<path d="M515.08,230.72c0.33-0.09,0.06-0.23,0-0.34C515.08,230.47,515.08,230.56,515.08,230.72z"/>
	<path d="M534.02,219.01c-0.06,0.51-0.42,1.04,0,1.63C534.02,220.05,534.02,219.53,534.02,219.01z"/>
	<path d="M524.65,265.08c-1.11,0.3-1.11,0.71-1.01,1.21C524.65,266.28,524.25,265.68,524.65,265.08z"/>
	<path d="M689.08,442.19c-1.91,2.72-1.91,2.72,0.1,11.99C690.99,450.25,690.89,446.42,689.08,442.19z"/>
	<path d="M713.05,415.7c0.6-5.04-5.34-8.06-3.22-13.2C706.71,405.32,708.62,412.47,713.05,415.7z"/>
	<path d="M702.27,435.74c3.93-3.43,3.32-6.15-1.91-9.17C702.48,429.3,704.79,431.92,702.27,435.74z"/>
	<path d="M692.5,428.69c-2.62,1.41-2.72,5.54-0.71,9.57C693.21,435.14,690.99,431.92,692.5,428.69z"/>
	<path d="M688.47,457.61c-1.11,4.03-2.12,8.06-1.01,12.19C686.96,465.67,688.67,461.74,688.47,457.61z"/>
	<path d="M673.06,409.95c2.72,1.11,5.14,2.72,8.16,2.52C679,409.95,676.28,409.35,673.06,409.95z"/>
	<path d="M698.34,424.66c-0.81-2.62-2.42-4.63-4.43-6.25C694.11,421.44,696.43,422.95,698.34,424.66z"/>
	<path d="M707.31,480.88c1.51-2.62,1.61-4.63,1.11-6.85C707.01,475.84,707.71,478.06,707.31,480.88z"/>
	<path d="M711.34,423.15c2.52-2.02,2.52-2.72,0.5-5.14C712.05,419.73,711.84,421.24,711.34,423.15z"/>
	<path d="M709.53,391.92c-1.81-0.91-3.63-1.21-6.04-0.91C705.7,392.42,707.51,392.52,709.53,391.92z"/>
	<path d="M706.4,488.34c1.51-3.12,1.51-3.12,0.71-5.74C706.81,484.61,706.61,486.22,706.4,488.34z"/>
	<path d="M691.9,512.11c-0.6,1.41-1.31,2.72-0.91,4.74C692.5,515.24,692.4,513.72,691.9,512.11z"/>
	<path d="M663.49,417.31c1.01,1.51,2.52,0.4,3.73,0.71C666,417.61,665,416.3,663.49,417.31z"/>
	<path d="M688.97,478.97c0.6-1.91,0.5-3.02-0.81-4.33C687.67,476.35,688.67,477.15,688.97,478.97z"/>
	<path d="M692,526.52c-0.81,1.31-0.1,2.22,0.6,3.12C693.31,528.43,693.21,527.32,692,526.52z"/>
	<path d="M691.9,522.99c1.01-1.01,0.71-1.61-0.1-2.42C691.29,521.38,691.49,522.09,691.9,522.99z"/>
	<path d="M681.55,412.56c0.39,0.46,0.54,1.38,1.58,1.12C682.96,412.72,682.1,412.89,681.55,412.56z"/>
	<path d="M689.38,387.59c-0.3-0.5-0.71-0.71-1.11-0.4C688.57,387.79,688.87,387.69,689.38,387.59z"/>
	<path d="M531.81,197.17c-0.4,0.5-1.21,0.71-1.21,1.51c3.43-1.31,5.57-4.21,7.56-7.05c17.97-25.7-9.46-66.7-35.56-47.35
		c-3.24,2.4-6.75,4.94-7.86,9.37C521.92,116.44,561.55,170.42,531.81,197.17z"/>
	<path d="M518.16,180.66c-1.17,0.06-7.14,4.32-11.18-1.17c-0.45-0.31-0.42-0.21-0.27-0.35c1.7,2.77,13.97,4.54,13.41-7.25
		c-0.5-10.59-10.5-7.39-12.19-8.77c-4.53,2.82-5.84,6.95-4.75,11.69C505.52,184.88,515.57,185.03,518.16,180.66z M512.26,165.74
		c7.29-0.13,7.82,13.37,0.2,13.5C504.63,179.37,505.08,165.86,512.26,165.74z M505.4,167.65c-0.93,2.24-0.64,8.56-0.19,9.46
		c0.88,0.33,1.4,1.09,1.4,2.03C505.38,178.77,501.89,172.44,505.4,167.65z"/>
	<path d="M492.41,158.38c0.3-0.91,0.91-1.21,0.6-1.81C492.41,156.77,492.31,157.27,492.41,158.38z"/>
	<path d="M529.29,199.29c0.71,0.3,1.11,0,1.41-0.5C530.09,198.58,529.59,198.58,529.29,199.29z"/>
	<path d="M518.31,179.25c0,1.46-0.23,1.83,1.01,0.19C519.04,178.89,518.61,179.25,518.31,179.25z"/>
	<path d="M518.15,179.23c0.1-0.03,0.1-0.09,0.15-0.19C518.25,179.1,518.22,179.17,518.15,179.23z"/>
	<path d="M706.91,196.15C706.91,196.15,706.91,196.15,706.91,196.15c-2.01-4.65-1.35-4.45-2.42-3.92
		C704.79,193.85,704.69,195.45,706.91,196.15z"/>
	<path d="M706.92,197.04c-0.01-0.28-0.01-0.69-0.01-0.88C706.88,196.47,706.89,196.76,706.92,197.04z"/>
	<path d="M706.91,196.15C706.91,196.15,706.91,196.15,706.91,196.15C706.91,196.02,706.91,196.05,706.91,196.15z"/>
	<polygon points="706.91,196.16 706.91,196.15 706.91,196.15 	"/>
	<path d="M706.92,197.04c0.03,1.51,0.19,3.03,1.1,4.36C707.86,199.9,707.07,198.59,706.92,197.04z"/>
	<path d="M704.29,236.16c-0.3-1.81-1.91-1.91-2.82-2.72C701.67,235.05,702.78,235.56,704.29,236.16z"/>
	<path d="M694.52,184.27c2.52-1.81,3.42-4.74,4.23-7.56c8.08-28.24-28.74-58.04-47.15-32.44c-2.32,3.22-4.63,6.65-4.43,11.08
		c16.96-42.41,63.5-5.06,48.06,27.4C695.03,183.17,694.72,183.67,694.52,184.27z"/>
	<path d="M676.88,166.95c-1.11-7.37-6.75-9.87-13.8-6.04c0,0.6,0.1,1.41-1.21,1.41c0.08-0.1,1.08-1.36,1.21-1.41
		c-0.91-1.21-1.41-0.1-1.71,0.4c-5.84,9.5,6.62,22.58,15.31,13.1c0.4-1.51-0.71-0.91-1.11-1.51
		C676.18,171.08,677.22,169.16,676.88,166.95z M662.47,171.17c-1.8-1.61-1.5-3.73-1.2-5.73c0,1.98,1.27,3.69,1.21,5.66
		c0-0.1,1.03,0.1,1.21,2.1C662.81,172.52,662.32,172.01,662.47,171.17z M665.3,174c1.48,1.24,2.97,2.99,9.17,0.4
		C670.21,178.29,665.3,175.68,665.3,174z M669.63,173.49c-7.63-0.36-7.82-12.93-0.81-12.69
		C676.15,161.04,676.85,173.84,669.63,173.49z"/>
	<path d="M704.79,551.91c-5.44,1.51-6.04,1.91-6.65,5.14c5.24-2.22,10.78-2.52,15.82-4.94C712.15,550.2,710.94,550.2,704.79,551.91z
		"/>
	<path d="M709.83,568.13c4.23,0.6,7.86-0.4,11.69-1.31C719,563.19,712.55,563.8,709.83,568.13z"/>
	<path d="M143.72,46.45c2.62-7.53,5.16-2.8,6.75-1.21c0.3-2.12-1.21-2.92-1.41-4.43C145.03,40.71,143.82,41.92,143.72,46.45z"/>
	<path d="M149.56,46.25c0,1.02,1.55,0.74,0.4-0.4C149.87,45.95,149.56,46.15,149.56,46.25z"/>
	<path d="M219.18,38.69c1.01-1.61,1.41-3.43,3.43-3.43c2.43,0,5.44,7.81,1.81-1.61C220.79,33.45,219.48,34.56,219.18,38.69z"/>
	<path d="M515.89,171.48c-0.5-1.71-0.3-3.83-2.82-4.53c-2.01,0.91-4.33,1.71-3.93,4.94C512.16,168.05,512.87,167.95,515.89,171.48z"
		/>
	<path d="M515.48,172.79c-0.78-0.2-0.92,1.01,0.3,1.01C515.99,173.19,515.89,172.89,515.48,172.79z"/>
	<path d="M670.94,163.32c-0.4-0.6-0.91-1.21-1.91-1.51c-3.32,1.71-3.73,2.62-2.92,5.44c1.51-3.93,2.22-4.13,5.94-2.02
		C672.45,164.12,671.34,163.92,670.94,163.32z"/>
<path fill="#e6e6e6" d="m206.8 163.6c0-5.1 4.1-9.2 9.3-9.2s9.2 4.2 9.2 9.2-4.1 9.2-9.3 9.2-9.2-4.1-9.2-9.2zm17.3-.1c0-4.5-3.5-8.2-8.2-8.2s-8.2 3.7-8.2 8.3c0 4.5 3.5 8.2 8.2 8.2s8.2-3.7 8.2-8.3zm-13 0c0-2.8 2.1-5.1 5.1-5.1 1.9 0 2.9.6 3.9 1.5l-1.4 1.7c-.8-.7-1.5-1.1-2.5-1.1-1.7 0-2.8 1.4-2.8 3.1s1.1 3 2.8 3c1.1 0 1.7-.5 2.5-1.1l1.4 1.4c-1.1 1.1-2.1 1.7-4 1.7-2.9 0-5-2.3-5-5.1z"/><path fill="#e6e6e6" d="m226.6 154.7h3.4l4.2 13.2 4.4-13.3h2.6l4.4 13.3 4.2-13.2h3.3l-6.2 18h-2.7l-4.4-12.8-4.4 12.8h-2.7z"/><path fill="#e6e6e6" d="m252.8 165.8c0-3.9 3.1-7 7.2-7 4.2 0 7.2 3.2 7.2 7s-3.1 7-7.3 7c-4 0-7.1-3.1-7.1-7zm11.3 0c0-2.3-1.7-4.3-4.2-4.3s-4.1 2-4.1 4.3 1.7 4.3 4.1 4.3c2.7.1 4.2-1.9 4.2-4.3z"/><path fill="#e6e6e6" d="m269.5 159.1h3.1v3c.8-2 2.4-3.4 4.8-3.3v3.2h-.2c-2.7 0-4.6 1.7-4.6 5.4v5.1h-3.1z"/><path fill="#e6e6e6" d="m279.1 153.9h3.1v11.1l5.6-6h3.8l-5.4 5.5 5.5 8h-3.5l-4.1-5.8-1.9 2v3.9h-3.1z"/><path fill="#e6e6e6" d="m291.7 165.8c0-3.9 3.1-7 7.2-7 4.2 0 7.2 3.2 7.2 7s-3.1 7-7.3 7c-4 0-7.1-3.1-7.1-7zm11.3 0c0-2.3-1.7-4.3-4.2-4.3s-4.1 2-4.1 4.3 1.7 4.3 4.1 4.3c2.6.1 4.2-1.9 4.2-4.3z"/><path fill="#e6e6e6" d="m308.2 167.6v-8.6h3.1v7.6c0 2.1 1.1 3.3 2.9 3.3s3-1.3 3-3.3v-7.6h3.1v13.4h-3.1v-2.1c-.8 1.3-2.1 2.3-4.2 2.3-3.1.2-4.8-1.8-4.8-5z"/><path fill="#e6e6e6" d="m323.9 168.8v-7.1h-1.7v-2.6h1.7v-3.7h3.1v3.7h3.6v2.6h-3.6v6.6c0 1.2.6 1.7 1.7 1.7.7 0 1.3-.2 1.9-.5v2.5c-.8.5-1.7.7-2.8.7-2.3 0-3.9-.9-3.9-3.9z"/><path fill="#e6e6e6" d="m333.2 154.7h3.2v15h9.4v2.9h-12.5v-17.9z"/><path fill="#e6e6e6" d="m356 172.5v-1.7c-.9 1.1-2.3 2-4.4 2-2.6 0-4.8-1.4-4.8-4.2 0-3 2.3-4.4 5.4-4.4 1.7 0 2.6.2 3.7.5v-.2c0-1.9-1.2-2.9-3.3-2.9-1.5 0-2.6.3-3.9.8l-.8-2.5c1.5-.7 2.9-1.1 5.1-1.1 4 0 5.9 2.1 5.9 5.7v8zm.1-5.6c-.8-.3-1.9-.5-3.1-.5-2 0-3.1.8-3.1 2.1s1.1 2 2.6 2c2 0 3.5-1.1 3.5-2.9z"/><path fill="#e6e6e6" d="m364.9 170.5v2.1h-3.1v-18.7h3.1v7.4c1-1.4 2.4-2.5 4.5-2.5 3.2 0 6.3 2.5 6.3 7s-3.1 7-6.3 7c-2.1 0-3.5-1.1-4.5-2.3zm7.7-4.7c0-2.6-1.7-4.3-3.9-4.3s-3.9 1.7-3.9 4.4c0 2.6 1.8 4.3 3.9 4.3s3.9-1.7 3.9-4.4z"/><path fill="#e6e6e6" d="m376.9 170.8 1.4-2.1c1.4 1.1 3 1.7 4.4 1.7s2.1-.5 2.1-1.5-1.3-1.4-2.8-1.8c-.1 0-.2-.1-.2-.1-2-.6-4.2-1.4-4.2-4s2.1-4.1 4.8-4.1c1.7 0 3.5.6 5 1.5l-1.2 2.2c-1.3-.8-2.6-1.3-3.8-1.3s-1.9.5-1.9 1.4 1.3 1.4 2.8 1.8c.1 0 .2.1.2.1 2 .6 4.2 1.5 4.2 4 0 2.9-2.2 4.2-5 4.2-1.9 0-4-.7-5.8-2z"/><path fill="#e6e6e6" d="m505.6 163.6c0-5.1 4.1-9.2 9.3-9.2s9.2 4.2 9.2 9.2-4.1 9.2-9.3 9.2-9.2-4.1-9.2-9.2zm17.4-.1c0-4.5-3.5-8.2-8.2-8.2s-8.2 3.7-8.2 8.3c0 4.5 3.5 8.2 8.2 8.2s8.2-3.7 8.2-8.3zm-13.1 0c0-2.8 2.1-5.1 5.1-5.1 1.9 0 2.9.6 3.9 1.5l-1.4 1.7c-.8-.7-1.5-1.1-2.5-1.1-1.7 0-2.8 1.4-2.8 3.1s1.1 3 2.8 3c1.1 0 1.7-.5 2.5-1.1l1.4 1.4c-1.1 1.1-2.1 1.7-4 1.7-2.9 0-5-2.3-5-5.1z"/><path fill="#e6e6e6" d="m525.4 154.7h3.4l4.2 13.2 4.4-13.3h2.6l4.4 13.3 4.2-13.2h3.3l-6.2 18h-2.7l-4.4-12.8-4.4 12.8h-2.7z"/><path fill="#e6e6e6" d="m551.7 165.8c0-3.9 3.1-7 7.2-7 4.2 0 7.2 3.2 7.2 7s-3.1 7-7.3 7c-4.1 0-7.1-3.1-7.1-7zm11.2 0c0-2.3-1.7-4.3-4.2-4.3s-4.1 2-4.1 4.3 1.7 4.3 4.1 4.3c2.7.1 4.2-1.9 4.2-4.3z"/><path fill="#e6e6e6" d="m568.3 159.1h3.1v3c.8-2 2.4-3.4 4.8-3.3v3.2h-.2c-2.7 0-4.6 1.7-4.6 5.4v5.1h-3.1z"/><path fill="#e6e6e6" d="m577.9 153.9h3.1v11.1l5.6-6h3.8l-5.4 5.5 5.5 8h-3.5l-4.1-5.8-1.9 2v3.9h-3.1z"/><path fill="#e6e6e6" d="m590.6 165.8c0-3.9 3.1-7 7.2-7 4.2 0 7.2 3.2 7.2 7s-3.1 7-7.3 7c-4.1 0-7.1-3.1-7.1-7zm11.2 0c0-2.3-1.7-4.3-4.2-4.3s-4.1 2-4.1 4.3 1.7 4.3 4.1 4.3c2.6.1 4.2-1.9 4.2-4.3z"/><path fill="#e6e6e6" d="m607 167.6v-8.6h3.1v7.6c0 2.1 1.1 3.3 2.9 3.3s3-1.3 3-3.3v-7.6h3.1v13.4h-3.1v-2.1c-.8 1.3-2.1 2.3-4.2 2.3-3 .2-4.8-1.8-4.8-5z"/><path fill="#e6e6e6" d="m622.7 168.8v-7.1h-1.7v-2.6h1.7v-3.7h3.1v3.7h3.6v2.6h-3.6v6.6c0 1.2.6 1.7 1.7 1.7.7 0 1.3-.2 1.9-.5v2.5c-.8.5-1.7.7-2.8.7-2.3 0-3.9-.9-3.9-3.9z"/><path fill="#e6e6e6" d="m632 154.7h3.2v15h9.4v2.9h-12.6z"/><path fill="#e6e6e6" d="m654.8 172.5v-1.7c-.9 1.1-2.3 2-4.4 2-2.6 0-4.8-1.4-4.8-4.2 0-3 2.3-4.4 5.4-4.4 1.7 0 2.6.2 3.7.5v-.2c0-1.9-1.2-2.9-3.3-2.9-1.5 0-2.6.3-3.9.8l-.8-2.5c1.5-.7 2.9-1.1 5.1-1.1 4 0 5.9 2.1 5.9 5.7v8zm.1-5.6c-.8-.3-1.9-.5-3.1-.5-2 0-3.1.8-3.1 2.1s1.1 2 2.6 2c2 0 3.5-1.1 3.5-2.9z"/><path fill="#e6e6e6" d="m663.7 170.5v2.1h-3.1v-18.7h3.1v7.4c1-1.4 2.4-2.5 4.5-2.5 3.2 0 6.3 2.5 6.3 7s-3.1 7-6.3 7c-2.1 0-3.5-1.1-4.5-2.3zm7.8-4.7c0-2.6-1.7-4.3-3.9-4.3-2.1 0-3.9 1.7-3.9 4.4 0 2.6 1.8 4.3 3.9 4.3s3.9-1.7 3.9-4.4z"/><path fill="#e6e6e6" d="m675.8 170.8 1.4-2.1c1.4 1.1 3 1.7 4.4 1.7s2.1-.5 2.1-1.5-1.3-1.4-2.8-1.8c-.1 0-.2-.1-.2-.1-2-.6-4.2-1.4-4.2-4s2.1-4.1 4.8-4.1c1.7 0 3.5.6 5 1.5l-1.2 2.2c-1.3-.8-2.6-1.3-3.8-1.3s-1.9.5-1.9 1.4 1.3 1.4 2.8 1.8c.1 0 .2.1.2.1 2 .6 4.2 1.5 4.2 4 0 2.9-2.2 4.2-5 4.2-2 0-4.1-.7-5.8-2z"/><path fill="#e6e6e6" d="m61 298.6c0-5.1 4.1-9.2 9.3-9.2s9.2 4.2 9.2 9.2-4.1 9.2-9.3 9.2c-5.1 0-9.2-4.2-9.2-9.2zm17.4-.1c0-4.5-3.5-8.2-8.2-8.2s-8.2 3.7-8.2 8.3c0 4.5 3.5 8.2 8.2 8.2s8.2-3.7 8.2-8.3zm-13.1-.1c0-2.8 2.1-5.1 5.1-5.1 1.9 0 2.9.6 3.9 1.5l-1.4 1.7c-.8-.7-1.5-1.1-2.5-1.1-1.7 0-2.8 1.4-2.8 3.1s1.1 3 2.8 3c1.1 0 1.7-.5 2.5-1.1l1.4 1.4c-1.1 1.1-2.1 1.7-4 1.7-2.8.1-5-2.2-5-5.1z"/><path fill="#e6e6e6" d="m80.9 289.7h3.4l4.2 13.2 4.4-13.3h2.6l4.4 13.3 4.2-13.2h3.3l-6.2 18h-2.7l-4.4-12.8-4.4 12.8h-2.7z"/><path fill="#e6e6e6" d="m107.1 300.8c0-3.9 3.1-7 7.2-7s7.2 3.2 7.2 7-3.1 7-7.3 7c-4 0-7.1-3.1-7.1-7zm11.3 0c0-2.3-1.7-4.3-4.2-4.3s-4.1 2-4.1 4.3 1.7 4.3 4.1 4.3c2.6.1 4.2-1.9 4.2-4.3z"/><path fill="#e6e6e6" d="m123.7 294h3.1v3c.8-2 2.4-3.4 4.8-3.3v3.2h-.2c-2.7 0-4.6 1.7-4.6 5.4v5.1h-3.1z"/><path fill="#e6e6e6" d="m133.4 288.9h3.1v11.1l5.6-6h3.8l-5.4 5.5 5.5 8h-3.5l-4.1-5.8-1.9 1.9v3.9h-3.1z"/><path fill="#e6e6e6" d="m146 300.8c0-3.9 3.1-7 7.2-7s7.2 3.2 7.2 7-3.1 7-7.3 7c-4.1 0-7.1-3.1-7.1-7zm11.2 0c0-2.3-1.7-4.3-4.2-4.3s-4.1 2-4.1 4.3 1.7 4.3 4.1 4.3c2.6.1 4.2-1.9 4.2-4.3z"/><path fill="#e6e6e6" d="m162.4 302.6v-8.6h3.1v7.6c0 2.1 1.1 3.3 2.9 3.3s3-1.3 3-3.3v-7.6h3.1v13.4h-3.1v-2.1c-.8 1.3-2.1 2.3-4.2 2.3-3 .2-4.8-1.8-4.8-5z"/><path fill="#e6e6e6" d="m178.1 303.8v-7.1h-1.7v-2.7h1.7v-3.7h3.1v3.7h3.6v2.6h-3.6v6.6c0 1.2.6 1.7 1.7 1.7.7 0 1.3-.2 1.9-.5v2.5c-.8.5-1.7.7-2.8.7-2.3.1-3.9-.9-3.9-3.8z"/><path fill="#e6e6e6" d="m187.4 289.7h3.2v15h9.4v2.9h-12.5v-17.9z"/><path fill="#e6e6e6" d="m210.2 307.5v-1.7c-.9 1.1-2.3 2-4.4 2-2.6 0-4.8-1.4-4.8-4.2 0-3 2.3-4.4 5.4-4.4 1.7 0 2.6.2 3.7.5v-.2c0-1.9-1.2-2.9-3.3-2.9-1.5 0-2.6.3-3.9.8l-.8-2.5c1.5-.7 2.9-1.1 5.1-1.1 4 0 5.9 2.1 5.9 5.7v8zm.1-5.6c-.8-.3-1.9-.5-3.1-.5-2 0-3.1.8-3.1 2.1s1.1 2 2.6 2c2 0 3.5-1.1 3.5-2.9z"/><path fill="#e6e6e6" d="m219.2 305.5v2.1h-3.1v-18.7h3.1v7.4c1-1.4 2.4-2.5 4.5-2.5 3.2 0 6.3 2.5 6.3 7s-3.1 7-6.3 7c-2.2 0-3.6-1.1-4.5-2.3zm7.7-4.7c0-2.6-1.7-4.3-3.9-4.3s-3.9 1.7-3.9 4.4c0 2.6 1.8 4.3 3.9 4.3s3.9-1.7 3.9-4.4z"/><path fill="#e6e6e6" d="m231.2 305.8 1.4-2.1c1.4 1.1 3 1.7 4.4 1.7s2.1-.5 2.1-1.5-1.3-1.4-2.8-1.8c-.1 0-.2-.1-.2-.1-2-.6-4.2-1.4-4.2-4s2.1-4.1 4.8-4.1c1.7 0 3.5.6 5 1.5l-1.2 2.2c-1.3-.8-2.6-1.3-3.8-1.3s-1.9.5-1.9 1.4 1.3 1.4 2.8 1.8c.1 0 .2.1.2.1 2 .6 4.2 1.5 4.2 4 0 2.9-2.2 4.2-5 4.2-2 0-4.1-.7-5.8-2z"/><path fill="#e6e6e6" d="m360.6 298.6c0-5.1 4.1-9.2 9.3-9.2s9.2 4.2 9.2 9.2-4.1 9.2-9.3 9.2-9.2-4.2-9.2-9.2zm17.4-.1c0-4.5-3.5-8.2-8.2-8.2s-8.2 3.7-8.2 8.3c0 4.5 3.5 8.2 8.2 8.2s8.2-3.7 8.2-8.3zm-13.1-.1c0-2.8 2.1-5.1 5.1-5.1 1.9 0 2.9.6 3.9 1.5l-1.4 1.7c-.8-.7-1.5-1.1-2.5-1.1-1.7 0-2.8 1.4-2.8 3.1s1.1 3 2.8 3c1.1 0 1.7-.5 2.5-1.1l1.4 1.4c-1.1 1.1-2.1 1.7-4 1.7-2.8.1-5-2.2-5-5.1z"/><path fill="#e6e6e6" d="m380.5 289.7h3.4l4.2 13.2 4.4-13.3h2.6l4.4 13.3 4.2-13.2h3.3l-6.2 18h-2.7l-4.4-12.8-4.4 12.8h-2.7z"/><path fill="#e6e6e6" d="m406.7 300.8c0-3.9 3.1-7 7.2-7 4.2 0 7.2 3.2 7.2 7s-3.1 7-7.3 7c-4.1 0-7.1-3.1-7.1-7zm11.3 0c0-2.3-1.7-4.3-4.2-4.3s-4.1 2-4.1 4.3 1.7 4.3 4.1 4.3c2.7.1 4.2-1.9 4.2-4.3z"/><path fill="#e6e6e6" d="m423.3 294h3.1v3c.8-2 2.4-3.4 4.8-3.3v3.2h-.2c-2.7 0-4.6 1.7-4.6 5.4v5.1h-3.1z"/><path fill="#e6e6e6" d="m433 288.9h3.1v11.1l5.6-6h3.8l-5.4 5.5 5.5 8h-3.5l-4.1-5.8-1.9 2v3.9h-3.1z"/><path fill="#e6e6e6" d="m445.6 300.8c0-3.9 3.1-7 7.2-7 4.2 0 7.2 3.2 7.2 7s-3.1 7-7.3 7c-4.1 0-7.1-3.1-7.1-7zm11.3 0c0-2.3-1.7-4.3-4.2-4.3s-4.1 2-4.1 4.3 1.7 4.3 4.1 4.3c2.6.1 4.2-1.9 4.2-4.3z"/><path fill="#e6e6e6" d="m462.1 302.6v-8.6h3.1v7.6c0 2.1 1.1 3.3 2.9 3.3s3-1.3 3-3.3v-7.6h3.1v13.4h-3.1v-2.1c-.8 1.3-2.1 2.3-4.2 2.3-3.1.2-4.8-1.8-4.8-5z"/><path fill="#e6e6e6" d="m477.8 303.8v-7.1h-1.8v-2.7h1.7v-3.7h3.1v3.7h3.6v2.6h-3.6v6.6c0 1.2.6 1.7 1.7 1.7.7 0 1.3-.2 1.9-.5v2.5c-.8.5-1.7.7-2.8.7-2.2.1-3.8-.9-3.8-3.8z"/><path fill="#e6e6e6" d="m487.1 289.7h3.2v15h9.4v2.9h-12.5v-17.9z"/><path fill="#e6e6e6" d="m509.9 307.5v-1.7c-.9 1.1-2.3 2-4.4 2-2.6 0-4.8-1.4-4.8-4.2 0-3 2.3-4.4 5.4-4.4 1.7 0 2.6.2 3.7.5v-.2c0-1.9-1.2-2.9-3.3-2.9-1.5 0-2.6.3-3.9.8l-.8-2.5c1.5-.7 2.9-1.1 5.1-1.1 4 0 5.9 2.1 5.9 5.7v8zm.1-5.6c-.8-.3-1.9-.5-3.1-.5-2 0-3.1.8-3.1 2.1s1.1 2 2.6 2c2 0 3.5-1.1 3.5-2.9z"/><path fill="#e6e6e6" d="m518.8 305.5v2.1h-3.1v-18.7h3.1v7.4c1-1.4 2.4-2.5 4.5-2.5 3.2 0 6.3 2.5 6.3 7s-3.1 7-6.3 7c-2.2 0-3.5-1.1-4.5-2.3zm7.7-4.7c0-2.6-1.7-4.3-3.9-4.3s-3.9 1.7-3.9 4.4c0 2.6 1.8 4.3 3.9 4.3s3.9-1.7 3.9-4.4z"/><path fill="#e6e6e6" d="m530.8 305.8 1.4-2.1c1.4 1.1 3 1.7 4.4 1.7s2.1-.5 2.1-1.5-1.3-1.4-2.8-1.8c-.1 0-.2-.1-.2-.1-2-.6-4.2-1.4-4.2-4s2.1-4.1 4.8-4.1c1.7 0 3.5.6 5 1.5l-1.2 2.2c-1.3-.8-2.6-1.3-3.8-1.3s-1.9.5-1.9 1.4 1.3 1.4 2.8 1.8c.1 0 .2.1.2.1 2 .6 4.2 1.5 4.2 4 0 2.9-2.2 4.2-5 4.2-1.9 0-4.1-.7-5.8-2z"/><path fill="#e6e6e6" d="m659.5 298.6c0-5.1 4.1-9.2 9.3-9.2s9.2 4.2 9.2 9.2-4.1 9.2-9.3 9.2-9.2-4.2-9.2-9.2zm17.3-.1c0-4.5-3.5-8.2-8.2-8.2s-8.2 3.7-8.2 8.3c0 4.5 3.5 8.2 8.2 8.2 4.8 0 8.2-3.7 8.2-8.3zm-13-.1c0-2.8 2.1-5.1 5.1-5.1 1.9 0 2.9.6 3.9 1.5l-1.4 1.7c-.8-.7-1.5-1.1-2.5-1.1-1.7 0-2.8 1.4-2.8 3.1s1.1 3 2.8 3c1.1 0 1.7-.5 2.5-1.1l1.4 1.4c-1.1 1.1-2.1 1.7-4 1.7-2.9.1-5-2.2-5-5.1z"/><path fill="#e6e6e6" d="m679.3 289.7h3.4l4.2 13.2 4.4-13.3h2.6l4.4 13.3 4.2-13.2h3.3l-6.2 18h-2.6l-4.4-12.8-4.4 12.8h-2.7z"/><path fill="#e6e6e6" d="m705.5 300.8c0-3.9 3.1-7 7.2-7 4.2 0 7.2 3.2 7.2 7s-3.1 7-7.3 7c-4 0-7.1-3.1-7.1-7zm11.3 0c0-2.3-1.7-4.3-4.2-4.3s-4.1 2-4.1 4.3 1.7 4.3 4.1 4.3c2.7.1 4.2-1.9 4.2-4.3z"/><path fill="#e6e6e6" d="m722.1 294h3.1v3c.8-2 2.4-3.4 4.8-3.3v3.2h-.2c-2.7 0-4.6 1.7-4.6 5.4v5.1h-3.1z"/><path fill="#e6e6e6" d="m731.8 288.9h3.1v11.1l5.6-6h3.8l-5.4 5.5 5.5 8h-3.5l-4.1-5.8-1.9 2v3.9h-3.1z"/><path fill="#e6e6e6" d="m744.4 300.8c0-3.9 3.1-7 7.2-7 4.2 0 7.2 3.2 7.2 7s-3.1 7-7.3 7c-4.1 0-7.1-3.1-7.1-7zm11.3 0c0-2.3-1.7-4.3-4.2-4.3s-4.1 2-4.1 4.3 1.7 4.3 4.1 4.3c2.6.1 4.2-1.9 4.2-4.3z"/><path fill="#e6e6e6" d="m760.9 302.6v-8.6h3.1v7.6c0 2.1 1.1 3.3 2.9 3.3s3-1.3 3-3.3v-7.6h3.1v13.4h-3.1v-2.1c-.8 1.3-2.1 2.3-4.2 2.3-3.1.2-4.8-1.8-4.8-5z"/><path fill="#e6e6e6" d="m776.6 303.8v-7.1h-1.7v-2.7h1.7v-3.7h3.1v3.7h3.6v2.6h-3.6v6.6c0 1.2.6 1.7 1.7 1.7.7 0 1.3-.2 1.9-.5v2.5c-.8.5-1.7.7-2.8.7-2.3.1-3.9-.9-3.9-3.8z"/><path fill="#e6e6e6" d="m785.9 289.7h3.2v15h9.4v2.9h-12.5v-17.9z"/><path fill="#e6e6e6" d="m808.7 307.5v-1.7c-.9 1.1-2.3 2-4.4 2-2.6 0-4.8-1.4-4.8-4.2 0-3 2.3-4.4 5.4-4.4 1.7 0 2.6.2 3.7.5v-.2c0-1.9-1.2-2.9-3.3-2.9-1.5 0-2.6.3-3.9.8l-.8-2.5c1.5-.7 2.9-1.1 5.1-1.1 4 0 5.9 2.1 5.9 5.7v8zm.1-5.6c-.8-.3-1.9-.5-3.1-.5-2 0-3.1.8-3.1 2.1s1.1 2 2.6 2c2 0 3.5-1.1 3.5-2.9z"/><path fill="#e6e6e6" d="m817.6 305.5v2.1h-3.1v-18.7h3.1v7.4c1-1.4 2.4-2.5 4.5-2.5 3.2 0 6.3 2.5 6.3 7s-3.1 7-6.3 7c-2.1 0-3.5-1.1-4.5-2.3zm7.7-4.7c0-2.6-1.7-4.3-3.9-4.3-2.1 0-3.9 1.7-3.9 4.4 0 2.6 1.8 4.3 3.9 4.3 2.2 0 3.9-1.7 3.9-4.4z"/><path fill="#e6e6e6" d="m829.6 305.8 1.4-2.1c1.4 1.1 3 1.7 4.4 1.7s2.1-.5 2.1-1.5-1.3-1.4-2.8-1.8c-.1 0-.2-.1-.2-.1-2-.6-4.2-1.4-4.2-4s2.1-4.1 4.8-4.1c1.7 0 3.5.6 5 1.5l-1.2 2.2c-1.3-.8-2.6-1.3-3.8-1.3s-1.9.5-1.9 1.4 1.3 1.4 2.8 1.8c.1 0 .2.1.2.1 2 .6 4.2 1.5 4.2 4 0 2.9-2.2 4.2-5 4.2-1.9 0-4-.7-5.8-2z"/><path fill="#e6e6e6" d="m206.3 434.2c0-5.1 4.1-9.2 9.3-9.2s9.2 4.2 9.2 9.2-4.1 9.2-9.3 9.2-9.2-4.1-9.2-9.2zm17.4-.1c0-4.5-3.5-8.2-8.2-8.2s-8.2 3.7-8.2 8.3c0 4.5 3.5 8.2 8.2 8.2s8.2-3.7 8.2-8.3zm-13.1-.1c0-2.8 2.1-5.1 5.1-5.1 1.9 0 2.9.6 3.9 1.5l-1.4 1.7c-.8-.7-1.5-1.1-2.5-1.1-1.7 0-2.8 1.4-2.8 3.1s1.1 3 2.8 3c1.1 0 1.7-.5 2.5-1.1l1.4 1.4c-1.1 1.1-2.1 1.7-4 1.7-2.9.1-5-2.2-5-5.1z"/><path fill="#e6e6e6" d="m226.1 425.3h3.4l4.2 13.2 4.4-13.3h2.6l4.4 13.3 4.2-13.2h3.3l-6.2 18h-2.7l-4.4-12.8-4.4 12.8h-2.7z"/><path fill="#e6e6e6" d="m252.4 436.4c0-3.9 3.1-7 7.2-7 4.2 0 7.2 3.2 7.2 7s-3.1 7-7.3 7c-4.1 0-7.1-3.1-7.1-7zm11.2 0c0-2.3-1.7-4.3-4.2-4.3s-4.1 2-4.1 4.3 1.7 4.3 4.1 4.3c2.7.1 4.2-1.9 4.2-4.3z"/><path fill="#e6e6e6" d="m269 429.7h3.1v3c.8-2 2.4-3.4 4.8-3.3v3.2h-.2c-2.7 0-4.6 1.7-4.6 5.4v5.1h-3.1z"/><path fill="#e6e6e6" d="m278.6 424.5h3.1v11.1l5.6-6h3.8l-5.4 5.5 5.5 8h-3.5l-4.1-5.8-1.9 2v3.9h-3.1z"/><path fill="#e6e6e6" d="m291.3 436.4c0-3.9 3.1-7 7.2-7 4.2 0 7.2 3.2 7.2 7s-3.1 7-7.3 7c-4.1 0-7.1-3.1-7.1-7zm11.2 0c0-2.3-1.7-4.3-4.2-4.3s-4.1 2-4.1 4.3 1.7 4.3 4.1 4.3c2.6.1 4.2-1.9 4.2-4.3z"/><path fill="#e6e6e6" d="m307.7 438.2v-8.6h3.1v7.6c0 2.1 1.1 3.3 2.9 3.3s3-1.3 3-3.3v-7.6h3.1v13.4h-3.1v-2.1c-.8 1.3-2.1 2.3-4.2 2.3-3 .2-4.8-1.8-4.8-5z"/><path fill="#e6e6e6" d="m323.4 439.4v-7.1h-1.7v-2.6h1.7v-3.7h3.1v3.7h3.6v2.6h-3.6v6.6c0 1.2.6 1.7 1.7 1.7.7 0 1.3-.2 1.9-.5v2.5c-.8.5-1.7.7-2.8.7-2.3 0-3.9-.9-3.9-3.9z"/><path fill="#e6e6e6" d="m332.7 425.3h3.2v15h9.4v2.9h-12.5v-17.9z"/><path fill="#e6e6e6" d="m355.5 443.1v-1.7c-.9 1.1-2.3 2-4.4 2-2.6 0-4.8-1.4-4.8-4.2 0-3 2.3-4.4 5.4-4.4 1.7 0 2.6.2 3.7.5v-.2c0-1.9-1.2-2.9-3.3-2.9-1.5 0-2.6.3-3.9.8l-.8-2.5c1.5-.7 2.9-1.1 5.1-1.1 4 0 5.9 2.1 5.9 5.7v8zm.1-5.6c-.8-.3-1.9-.5-3.1-.5-2 0-3.1.8-3.1 2.1s1.1 2 2.6 2c2 0 3.5-1.1 3.5-2.9z"/><path fill="#e6e6e6" d="m364.4 441.1v2.1h-3.1v-18.7h3.1v7.4c1-1.4 2.4-2.5 4.5-2.5 3.2 0 6.3 2.5 6.3 7s-3.1 7-6.3 7c-2.1 0-3.5-1.1-4.5-2.3zm7.7-4.7c0-2.6-1.7-4.3-3.9-4.3-2.1 0-3.9 1.7-3.9 4.4 0 2.6 1.8 4.3 3.9 4.3 2.2 0 3.9-1.7 3.9-4.4z"/><path fill="#e6e6e6" d="m376.5 441.4 1.4-2.1c1.4 1.1 3 1.7 4.4 1.7s2.1-.5 2.1-1.5-1.3-1.4-2.8-1.8c-.1 0-.2-.1-.2-.1-2-.6-4.2-1.4-4.2-4s2.1-4.1 4.8-4.1c1.7 0 3.5.6 5 1.5l-1.2 2.2c-1.3-.8-2.6-1.3-3.8-1.3s-1.9.5-1.9 1.4 1.3 1.4 2.8 1.8c.1 0 .2.1.2.1 2 .6 4.2 1.5 4.2 4 0 2.9-2.2 4.2-5 4.2-2 0-4.1-.7-5.8-2z"/><path fill="#e6e6e6" d="m505.1 434.2c0-5.1 4.1-9.2 9.3-9.2s9.2 4.2 9.2 9.2-4.1 9.2-9.3 9.2-9.2-4.1-9.2-9.2zm17.4-.1c0-4.5-3.5-8.2-8.2-8.2s-8.2 3.7-8.2 8.3c0 4.5 3.5 8.2 8.2 8.2s8.2-3.7 8.2-8.3zm-13.1-.1c0-2.8 2.1-5.1 5.1-5.1 1.9 0 2.9.6 3.9 1.5l-1.4 1.7c-.8-.7-1.5-1.1-2.5-1.1-1.7 0-2.8 1.4-2.8 3.1s1.1 3 2.8 3c1.1 0 1.7-.5 2.5-1.1l1.4 1.4c-1.1 1.1-2.1 1.7-4 1.7-2.9.1-5-2.2-5-5.1z"/><path fill="#e6e6e6" d="m525 425.3h3.4l4.2 13.2 4.4-13.3h2.6l4.4 13.3 4.2-13.2h3.3l-6.2 18h-2.7l-4.4-12.8-4.4 12.8h-2.7z"/><path fill="#e6e6e6" d="m551.2 436.4c0-3.9 3.1-7 7.2-7 4.2 0 7.2 3.2 7.2 7s-3.1 7-7.3 7c-4.1 0-7.1-3.1-7.1-7zm11.2 0c0-2.3-1.7-4.3-4.2-4.3s-4.1 2-4.1 4.3 1.7 4.3 4.1 4.3c2.7.1 4.2-1.9 4.2-4.3z"/><path fill="#e6e6e6" d="m567.8 429.7h3.1v3c.8-2 2.4-3.4 4.8-3.3v3.2h-.2c-2.7 0-4.6 1.7-4.6 5.4v5.1h-3.1z"/><path fill="#e6e6e6" d="m577.5 424.5h3.1v11.1l5.6-6h3.8l-5.4 5.5 5.5 8h-3.5l-4.1-5.8-1.9 2v3.9h-3.1z"/><path fill="#e6e6e6" d="m590.1 436.4c0-3.9 3.1-7 7.2-7 4.2 0 7.2 3.2 7.2 7s-3.1 7-7.3 7c-4.1 0-7.1-3.1-7.1-7zm11.2 0c0-2.3-1.7-4.3-4.2-4.3s-4.1 2-4.1 4.3 1.7 4.3 4.1 4.3c2.6.1 4.2-1.9 4.2-4.3z"/><path fill="#e6e6e6" d="m606.5 438.2v-8.6h3.1v7.6c0 2.1 1.1 3.3 2.9 3.3s3-1.3 3-3.3v-7.6h3.1v13.4h-3.1v-2.1c-.8 1.3-2.1 2.3-4.2 2.3-3 .2-4.8-1.8-4.8-5z"/><path fill="#e6e6e6" d="m622.2 439.4v-7.1h-1.7v-2.6h1.7v-3.7h3.1v3.7h3.6v2.6h-3.6v6.6c0 1.2.6 1.7 1.7 1.7.7 0 1.3-.2 1.9-.5v2.5c-.8.5-1.7.7-2.8.7-2.3 0-3.9-.9-3.9-3.9z"/><path fill="#e6e6e6" d="m631.5 425.3h3.2v15h9.4v2.9h-12.5v-17.9z"/><path fill="#e6e6e6" d="m654.3 443.1v-1.7c-.9 1.1-2.3 2-4.4 2-2.6 0-4.8-1.4-4.8-4.2 0-3 2.3-4.4 5.4-4.4 1.7 0 2.6.2 3.7.5v-.2c0-1.9-1.2-2.9-3.3-2.9-1.5 0-2.6.3-3.9.8l-.8-2.5c1.5-.7 2.9-1.1 5.1-1.1 4 0 5.9 2.1 5.9 5.7v8zm.1-5.6c-.8-.3-1.9-.5-3.1-.5-2 0-3.1.8-3.1 2.1s1.1 2 2.6 2c2 0 3.5-1.1 3.5-2.9z"/><path fill="#e6e6e6" d="m663.3 441.1v2.1h-3.1v-18.7h3.1v7.4c1-1.4 2.4-2.5 4.5-2.5 3.2 0 6.3 2.5 6.3 7s-3.1 7-6.3 7c-2.2 0-3.6-1.1-4.5-2.3zm7.7-4.7c0-2.6-1.7-4.3-3.9-4.3s-3.9 1.7-3.9 4.4c0 2.6 1.8 4.3 3.9 4.3s3.9-1.7 3.9-4.4z"/><path fill="#e6e6e6" d="m675.3 441.4 1.4-2.1c1.4 1.1 3 1.7 4.4 1.7s2.1-.5 2.1-1.5-1.3-1.4-2.8-1.8c-.1 0-.2-.1-.2-.1-2-.6-4.2-1.4-4.2-4s2.1-4.1 4.8-4.1c1.7 0 3.5.6 5 1.5l-1.2 2.2c-1.3-.8-2.6-1.3-3.8-1.3s-1.9.5-1.9 1.4 1.3 1.4 2.8 1.8c.1 0 .2.1.2.1 2 .6 4.2 1.5 4.2 4 0 2.9-2.2 4.2-5 4.2-2 0-4.1-.7-5.8-2z"/></g>
</svg>
