<?xml version="1.0" encoding="utf-8"?>
<!-- Generator: Adobe Illustrator 23.0.1, SVG Export Plug-In . SVG Version: 6.00 Build 0)  -->
<svg version="1.2" baseProfile="tiny" id="Layer_1" xmlns="http://www.w3.org/2000/svg" xmlns:xlink="http://www.w3.org/1999/xlink"
	 x="0px" y="0px" viewBox="0 0 900 600" xml:space="preserve">
<g>
	<path d="M576.6,504.26l0.1,0.1C576.69,504.34,576.64,504.26,576.6,504.26z"/>
	<path d="M563.13,542.84l-0.1-0.1C563.03,542.89,563,542.89,563.13,542.84z"/>
	<path d="M614.88,501.92l0.1,0.1C614.95,501.87,615.08,501.87,614.88,501.92z"/>
	<path d="M746.44,562.54c-1.06-4.25,2.73-3.28-0.92-8.88c-1.65-2.53-5.63-3.28-10.41-3.88c-5.6-0.7-7.57-2.89-11.74-5.82
		c-10-7.04-7.48-4.01-10.21-6.74c-6.02-6.02-4.4-9-11.94-13.47c-5.63-3.75-5.67,3.41-7.55,5.92c-1.94-0.31-2.14-2.35-3.47-3.16
		c-4.9-1.33-8.41-4.66-11.43-8.37c-5.62-6.88-8.3-7.47-12.86-14.7c-13.85-21.97-35.9-20.26-56.44-37.87
		c0.41-4.49,1.63-8.78,1.43-13.06c1.42-9.36,1.38-24.47,2.45-30.21c1.51-8.08,1.2-10.32-1.43-26.33
		c-1.43-8.74,4.02-21.16,2.14-35.21c-0.52-3.88-0.51-7.65-0.51-11.64c1.33-1.22,1.94-2.96,2.55-4.69
		c17.92-50.47-12.85-44.52-18.27-54.09c-2.8-4.95-7.59-5.71-11.84-7.35c-0.92-2.04,0.1-3.67,0.61-5.21
		c1.84-1.02,3.57-1.53,5.31-1.43c5.51-3.3,2.23-6.18,5.92-12.86c1.32-1.76,1.12-10.92,1.12-11.02c0-6.86,2.26-7.04,1.43-10.51
		c-1.61-6.7-1.48-7.07-2.76-7.55c-0.2,2.76,0,5.41,0.71,8.17c-2.86,5.28-0.38,13.78-1.74,18.17c-3.39,10.96-2.25,13.17-4.9,14.39
		c-4.23,0-4.81,0.68-10.31-0.31c-2.76-0.5-4.75-1.63-5.51-0.41c0.51,2.29,3.78-0.22,8.06,3.16c0.56,3.33-0.2,3.67-0.41,3.78
		c-1.75-2-0.26-4.18-2.04-3.47c-0.71,1.33,0.1,2.65,0,3.98c-0.2,1.53-1.63,2.45-1.63,4.08c3.04,2.17,1.47,2.42,2.94-2.33
		c0.26,5.71,1.2,5.48,2.06,5.7c0.41,2.04,0.51,4.29,1.12,6.33c1.64-0.55,0.29-7.23-0.2-8.78c5.68-1.14,3.4,11.97,2.65,16.94
		c-4.44,3.55-13.87,9.91-11.64,12.15c0.85-0.39,6.82-7.31,10.92-9.49c-0.41,5.72-5.21,12.86-12.35,18.68
		c-3.16,0.51-6.02-0.51-8.27-2.04c-1.12-0.2-1.63,0.82-2.45,0.51c-7.96-6.12-10.41-8.57-12.35-12.25c4.3,1.17,4.41,2.67,6.12,1.53
		c-2.45-2.04-5.41-2.65-7.86-4.39c-3.67-7.01-3.44-10.95-12.15-28.37c3.78-2.45,6.94-5.31,10.61-7.14c3.46-9.8,0.26-0.65,0.71-9.8
		c0.12-2.35,0-4.59,0-6.63c1.43-2.96,2.14-6.53,1.43-7.35c-2.2,0-3.31-1.08-3.47-2.65c2.69-1.2,2.65,1.99,3.25-6.72
		c1.46,1.76,1.68,2.35,2.37,5.18c2.87-0.26,3.8-12.44,5.51-14.8c4.46-6.13,2.61-8.96,5.31-10.21c3.07,0,2.25-0.03,2.55-1.53
		c0.82-0.61,2.25-0.51,2.35-2.25c-1.02-0.82-1.02-2.45-2.35-3.37c-4.94,0-3.82,0.57-4.29,0.2c0.71-0.82,1.02-1.94,2.14-2.45
		c4.49,1.43,4.59,1.53,6.63,4.39c1.43-0.2,0.31-1.43,0.92-2.25c1.43-0.1,2.86-0.82,4.18-1.33c6.63,1.33,3.42-0.65,8.88,0.31
		c5.58,0.98,5.94-2.29,7.86-1.22c1.12,4.39,0.92,9.29,4.08,12.96c-0.2,1.12-0.31,1.94-0.41,2.76c-5.04,3.42-10.52,3.28-7.14,12.86
		c0.41-1.94-0.41-3.57,0.92-4.59c2.55,0.71,4.49-0.71,6.74-1.53c2.15-14.21,1.92-7.3,0.1-12.15c-0.5-1.13-0.44-1.9-2.55-11.74
		c1.53-3.67,5.82-4.59,7.96-7.86c-1.02-1.12,0-2.45-0.41-3.57c-2.04-1.02-3.78,0.41-5.72,0.1c1.02-1.63,3.27-1.74,3.78-3.37
		c0-3.52-5.4,0.56-6.02,0.41c-0.81-14.54-4.36,1.01-6.02-3.98c-2.41-1.31-9.98,2.27-10.61,2.65c-1.02-0.41-1.94-1.02-3.16-0.61
		c0,0-8.53,0.89-11.74,1.43c-0.43,0.36-2.52,4.39-3.67,2.65c-0.1-0.41,0.31-1.33-0.41-1.84c-2.2-1.37-0.72,3.73-10.1,5.82
		c-2.1-0.7-4.14-4.13-6.63-1.63c0.18,2.02,3.91,2.57,1.02,4.49c-0.61,1.22,0.2,2.35-0.82,3.37c-0.61,0.61-0.61,1.84-1.53,2.45
		c0.66,1.64-0.31,5.09-1.74,6.74c0.27,7.89-5.86,13.32,1.94,23.98c1.25,2.09-1.13,3.14,0.31,5.41c4.53,7.16,3.58,11.87,4.59,13.47
		c1.71,2.7,0.47,8.15-0.51,11.12c-4.04,12.31-31.62,10.03-40.62,23.37c-7.15,10.6-22.6,8.74-25.41,23.47
		c-3.84,20.12-10.61,11.83-13.27,35.52c-0.54,4.79,0,9.59-0.31,14.29c0.61,1.22,1.32,2.25,1.43,3.47
		c1.45,15.64-6.47,11.57-8.98,23.07c-3.47,1.43-6.84,2.76-7.45,6.94c2.65,3.06,5.41,5.82,9.8,5.61c0.61-0.92-0.92-1.02-0.61-1.94
		c1.19-1.36,2.48-3.09,3.57-1.63c0.35,1.57-1.02,1.86-1.02,3.16c0.2,1.33,1.53,1.43,1.94,2.55c0.1,1.12,0.1,2.35,0.2,3.78
		c-2.42,1.28-2.24,2.81-5.31,16.43c-2.27,1.63-20.68,13.85-18.17,15.11c6.12-3.88,11.53-8.98,18.07-13.17
		c0.4,7.59,0.74,6.77-0.1,10.1c-1.5,5.95-3.65,14.57-1.94,20.11c0.68,2.19,2.48,12.95,0.82,13.78c-2.52-2.88-13.4-6.04-18.37-10.51
		c-2.04-4.69-3.75-9.39-4.29-14.49c-0.34-3.21-3.07-3.7-0.92-8.47c0.94-2.82,2.86-5.58,2.14-8.78c-0.24-1.08,1.37-4.03,2.45-5.61
		c5.32-7.78,12.73-11.32,17.04-13.98c5.87-4.4-16.25,5.1-20.21,17.35c-0.8,2.49-4.35-4.94-3.16-10.61
		c1.94-9.26,7.94-11.56,13.37-14.39c1.94-1.02,3.82-3.48,1.84-3.88c-1.88,2.98-4.3,3.13-7.35,4.49c-8.86,3.96-7.83,10.87-9.19,13.37
		c-2.4,4.42-1.23,8.99,1.33,13.27c1.61,2.69,0.46,5.1-1.02,8.06c-1.63,3.26-0.58,4.34,0.92,11.12c2.36,10.7,3.93,13.8,7.96,16.43
		c6.52,4.26,13.73,5.92,18.58,12.15c0.61,7.25,1.33,14.39,0.2,21.23c4.86,11.11,2.24,4.79-23.27,11.64
		c-0.15,4.39-3.08,9.76-4.59,14.08c-2.1,5.98-1.36,6.94-2.96,8.27c2.89,2.38,5.24,9.1,13.06,17.15c4.35,4.48,4.43,1.9,6.12,1.22
		c19.98-3.33,24.19-3.51,28.68-5.31c1.5-4.89,1.51-5.1,2.35-5.1c2.45,1.53,3.78,4.29,5.61,5.21c1.84,0.71,2.96-0.41,4.08,0.41
		c-1.12,1.33-1.22,3.16-2.14,4.39c-2.12,0.88-1.9-2-5.61,2.25c-4.54,11.88-4.27,13.96-7.65,34.7c-6.08,3.04,8.3,7.94,15.72,6.94
		c2.92,0.9,8.87,4.05,20.21,2.76c13.18-1.5,16.22-0.5,23.58-1.94c6.3-1.23,7.38-12.98,2.14-16.13c-7.9-4.75-18.03-18.8-19.6-20.72
		c-0.73-6.9,1.49-9.73-2.14-12.76c3.51-9.02-1.1-6.04-15.62-3.67c-14.14,2.31-11.92,2.14-18.68-5.61
		c-8.55-9.81-8.23-14.67-10.21-12.66c2.04,8.51,6.51,7.65-0.71,7.65c-2.35,0-1.63-0.67-3.29-1.1c-3.58-0.95,1.19,5.01-4.67-1.46
		c0-7.75,7.92-22.69,1.53-30.21c0-2.74,1.96-3.42,0.71-15.62c-0.21-2.04-0.61-4.08,0.41-6.12c-0.51-1.22-0.94-2.34-1.12-3.57
		c-2.92-19.57-3.35-18.61-1.63-28.68c0.47-5.15,1.87-3.74,2.04-5.31c0.96-8.54-1.47-10.86,1.94-21.54c0.61-1.9,0.4-6.59,1.8-4.6
		c0.56,0.79,1.47,4.4,1.81,1.95c0.59-4.27-0.42-8.37-0.13-12.66c7.36-11.04-2.56-42.12,4.9-63.28c3.57-10.14,7.76-9.48,7.65-15.31
		c-0.03-1.44,3.2-8.08,4.59-10.92c2.43-4.95-4.68-2.77,20.41-16.64c0.51-1.43,1.52-2.77,2.86-3.88c4.41-3.67,3.49-4.99,9.49-7.45
		c1.72-0.7,9.41-4.24,11.28-3.83c5.17,1.13,15.2,67.48-11.48,74.15c-1.74-1.33-0.71-2.96-0.61-4.49c1.33-0.82,2.65-1.33,4.08-1.84
		c-1.07,1.07,8.35-7.45,7.81-8.52c-1-1.2-1.54,2.15-12.09,8.01c-3.96,4.75-3.66,9.53-7.35,19.09c-7.76,20.14-3.48,17.03-17.04,33.99
		c1.13,7.45-3.41,13.59-2.04,24.39c0.46,3.62,1.51,1.87,0.1,10.51c-1.51,9.29-1.47,8.77-2.04,10.1
		c-19.85,35.98-1.52,57.11-10.46,56.19c-3.2-0.33-5.8,12.82-5.86,16.43c3.27-4.36,5.7-14.79,7.5-14.65
		c1.98,0.16,20.3-2.5,29.03-5.51c1.73-0.6,1.52-1.5,12.25,16.74c1.81,3.07,2.86,0.82,1.02,5.41c-11.84,24.99-5.06,20.27-3.67,16.03
		c1.79-5.46,8.02-19.25,12.86-23.17c2.15-2.15,6.63-12.8,7.96-13.98c8.17,0,17.04,1.33,20.51,3.27c0.28,2.21-4.56,6.17-9.8,16.64
		c6.65,27.73,11.43,23.69,24.19,27.35c5.48,1.57,11.38-0.15,14.08-2.86c3.27-5.92,7.04-11.33,10.92-16.53
		c9.34-1.65-1.87-1.3,20.21,8.78c7.5-0.64,5.74-0.54,21.23-4.08c2.35-7.14,3.78-14.49,8.17-20.31c1.13-4.89-3.27-9.03-2.65-13.17
		c-2.45-3.47-2.45-7.45-3.27-11.02c-4.49-2.35-9.49-1.63-14.19-2.86c-2.51-2.09-0.64-1.88-11.74,0.2c-3.74-5.34-3.65-4.93-4.8-3.78
		c0.1,1.63,1.53,2.55,2.04,4.08c-0.2,0.61-1.22,0.71-1.22,1.63c0.46,1.55,1.36,1.09,10.41-0.82c5.51-1.16-7.35,10.09-7.24,12.83
		c2.83-0.76,9.45-11.37,11.11-11.71c4.18,1.63,8.78,1.33,13.17,2.45c2.82,10.97,2.68,12.83,6.94,20.11
		c-8.36,14.78-5.69,17.26-8.47,18.37c-13.06-3.18-14.8-3.39-18.47-6.33c-5.69-17.98-3-19.48-6.12-20c-2.25,0.61-4.8,0.61-6.94,2.14
		c2.45,0.61,4.69-1.12,7.14-0.1c2.67,12.18,0.67,4.1,4.69,19.19c-1.19,1.59-4.22,1.54-4.36,2.64c-0.7-0.02-1.42-0.04-1.77,0.83
		c0.11-0.05,8.24-1.81,8.88-1.94c5.21,3.06,11.12,3.57,16.74,5.31c-0.1,0.31-0.1,0.51-0.2,0.51c-20.7,4.89-14.32,5.6-24.09,0.71
		c-6.53-3.27-8.16-3.96-8.68-7.55c-0.75-5.26-3.22-16.86-5.72-20.11c-0.92-0.61-1.74-0.31-2.04-0.92c-1.46-5.1-5.97-4.34-0.61,7.45
		c-8.9,1.48-3.99,15.5-1.02,18.07c-2.76,4.18-5.72,8.16-8.17,12.66c-1.19-0.29-13.45-2.1-14.39-1.94c4.29,2.45,9.19,2.25,13.78,2.65
		c0.84,1.96-2.89,3.03-6.23,3.98c-5.92-1.33-11.64-2.65-17.25-4.39c0.51-2.49-1.97,0.48-3.16-0.71c-3.88-6.94-7.14-13.68-8.47-21.33
		c10.51-17.29,8.48-14.36,24.5-17.96c0.19-0.04,7.55,2.6,11.43,3.77c0.92,0.82,0.82,2.14,2.14,2.76c0-2.96,0.82-5.61-0.31-8.57
		c1.02-1.74,1.53-3.88,2.86-5.51c1.74-2.14,2.04-4.49,1.33-7.25c-14.54-56.02-18.71-64.46-11.33-80.53c0.71-0.1,1.02,0.61,1.63,0.82
		c0.94-1.57-1.57,0.04,0.2-10.51c0.83-4.96-0.57-2.64-1.33-13.88c-0.57-8.58,3.66-3.76,12.25-12.35c0.71-0.71,1.22-1.43,2.25-1.84
		c2-0.67,2.41-2.98,3.98-5.1c6.49-8.8,5.86-20.05,6.63-27.66c0.45-4.41-1.03-5.38-1.33-9.9c-2.14-2.14-1.01-0.93-1.33-6.12
		c-0.34-5.57-4.59-18.33-4.59-22.05c0-2.57-4.03-6.19,3.98-2.45c2.28,1.06,6.74,4.04,8.88,6.94c15.37,20.81-4.04,39.68-2.25,52.26
		c3.38,23.66-4.42,19.55,0.1,51.54c2.4,17-9.95,89.74-2.32,82.8c0.37,2.73-10.35,12.28-8.3,13.65
		c12.52-10.36,11.73-16.65,8.78-14.22c0-28.41-1.63-21.46,6.62-16.71c5.95,3.43,17.95,11.81,23.07,11.94
		c0.31,0.01,0.71,0.2,1.02,0.41c25.44,12.25,21.23,22.68,47.87,42.66c0.45,3.39-6.82,10.94-11.53,11.23c-0.51,0-1.02,0.51-1.22,1.43
		c0.93,5.6,7.02,2.24,12.15-0.2c7.95-3.78,7.05-1.78,7.86-3.16c0.71-4.29,0.41-8.88,2.76-12.96c4.9,2.04,8.78,6.02,11.53,11.64
		c-3.67,3.27-3.67,3.27-3.88,5.21c2.35-0.41,4.39-1.43,6.33-2.35c2.78,1.23,1.29,1.71,0,3.57c-0.73,1.05-0.2,3.5,5.41-0.61
		c4.05,2.53,0.21,1.9,0.51,3.88c1.69,1.69,3.4-1.44,4.39-0.2c-0.51,1.22-2.55,1.63-2.14,3.57c1.84,0,3.06-1.33,4.39-1.84
		c1.33,0.51,0.2,1.85,0.92,2.14c1.02,0.42,1.43-0.2,2.25-0.31c2.01,1.15,2.24,1.13,15.51,4.08c0.82,3.27,1.94,6.33,1.22,9.59
		c-6.61,4.85-31,4.85-35.21,3.78c-35.13-8.93-8.61,0.25-39.19-6.02c-2.26-0.65-2.4-1.5,0-6.02c2.65-5,2.14-6.08,3.06-13.17
		c0.28-1.42-1.24-1.94-1.94-0.51c-1.99,4.1-0.57,7.49-3.37,12.04c-1.25,2.04-4.42,8.34-0.41,9.59c1.46,0.46,15.5,4.01,20,3.06
		c5.43-1.15,7.35,0.68,17.86,3.78c7.68,2.26,39.16,2.11,42.76-5.1C747.66,563.87,746.54,563.56,746.44,562.54z M596.23,230.99
		c-0.69,0.44-2.91-0.04-0.5-0.88C598.04,229.31,596.56,230.78,596.23,230.99z M597.43,200.21c0.56-0.92,2.08-1.14,2.71-0.63
		c0.1,0.1,0.05-0.02-0.47,1.19C598.01,204.72,597.33,200.21,597.43,200.21z M592,193.68c1.08,0.7,0.02,1.96-1.41,2.56
		C591.58,192.86,591.39,193.28,592,193.68z M589.87,208.28c0.36,0.36-0.25,0.75-0.61,0.2C589.46,208.38,589.67,208.28,589.87,208.28
		z M581.3,198.08c0-0.1,0.2,0.1,0.2,0.1C581.5,199.46,580.33,198.32,581.3,198.08z M581.81,201.75c-0.46,0.81-0.63,1.4-1.43,0.72
		C580.58,202.06,580.79,201.65,581.81,201.75z M582.73,208.69c-1.63,0.31-2.55-0.51-3.57-1.02
		C580.48,207.36,581.5,207.77,582.73,208.69z M577.73,205.12c0-0.33,0.2-0.54,0.2-0.1c0,0.04-0.17-0.12-0.17,0.28
		C577.76,206.18,576.49,205.12,577.73,205.12z M574.87,206.85c0.38-0.84,0.77-0.88,1.22,0
		C575.79,207.36,575.38,207.26,574.87,206.85z M573.32,199.13c0.12-0.58,1.29-1.38,2.76-1.05c0.77,0-2,2.56-2.53,3.37
		C573.3,200.26,573.11,200.12,573.32,199.13z M567.01,196.75c0.54,0.54,0.64,0.32,0.31,0.56c-0.2,0.13-0.18,0.3-0.51-0.36
		L567.01,196.75z M555.58,236.96c0.1,0.33-0.12,0.58-0.26,0.78c-0.16,0.16-0.5-0.66-0.18-0.66c0.41-0.26,0.32,0.36,0.64-1.23
		C556.19,236.45,556.19,236.76,555.58,236.96z M562.41,219.78c-0.32,0.48-0.88,0.87-1.32,1.56
		C559.7,216.86,563.69,217.84,562.41,219.78z M559.66,207.77c2.54,0.36-2.31,4.65-3.27,5.31
		C556.39,210.12,558.64,209.4,559.66,207.77z M557.93,200.83c0.1,1.63,0.1,1.74-2.25,1.84C557,201.12,557.21,201.23,557.93,200.83z
		 M556.06,222.76c-0.04,0.1-0.15,0.37-0.2,0.26C555.54,222.51,556.21,222.3,556.06,222.76z M555.78,207.77
		c0,0.17-0.01,0.21-0.19,0.21C555.68,207.91,555.78,207.84,555.78,207.77z M555.88,225.22c1.21,0.32,0.38,1.98-0.82,2.35
		C553.94,226.96,554.86,226.03,555.88,225.22z M554.46,240.23c0.58,0,0.6,0.36,0.38,0.61C554.33,241.34,553.99,240.54,554.46,240.23
		z M540.32,225.18c-0.04,0.06-0.09,0.05-0.15-0.06C540.17,224.69,540.62,224.79,540.32,225.18z M542.31,235.94
		c-0.1,0-0.43-0.08-0.2-0.31C542.5,235.63,542.45,235.94,542.31,235.94z M549.64,243.92c-0.73,0.49-0.79-0.88-0.17-0.76
		C549.99,243.22,549.94,243.62,549.64,243.92z M548.4,234.58c0.5,0.08,1.56,0.58,1.87,1.46
		C553.17,244.32,544.48,233.95,548.4,234.58z M547.82,228.3c-0.76-1.12-1.11-1.98-1.08-2.66c0.04-1,1.77-2.82,1.32,0.02
		C547.93,226.46,547.62,227.43,547.82,228.3z M549.86,225.12c0.14-0.27,0.1-0.27,0.1,0C549.93,225.12,549.88,225.12,549.86,225.12z
		 M551.97,224.99c1.74-0.07,1.25,1.23-0.67,1.87C551.35,225.56,551.51,225.01,551.97,224.99z M548.43,201.95
		c0.66,0,1.17,0.58,0.36,0.75C548.44,202.7,548.09,202.41,548.43,201.95z M544.05,208.28c0.87-0.29,1.73-0.77,1.91-0.65
		c1.73,1.34,1.76,2.13,2.94,1.84c0.65-0.16,1.39-0.75,2.09-0.46c0.84,1.02,0.1,1.99-0.61,2.35c-3.35-1.05-3.39-1.15-7.25,1.63
		C542.99,211.08,544.6,211.62,544.05,208.28z M546.29,243.39c-4.19-2.6-1.66-6.57,0.57-4.34c0.31,0.31,1.09,1.15,0.76,1.48
		C546.8,241.35,546.7,242.37,546.29,243.39z M485.56,556.11c2.34,5.68-0.24,6.04-2.96,7.86
		C482.05,561.31,482.84,556.11,485.56,556.11z M518.84,569.79c-0.41,0.31-0.82,0.31-1.22,0
		C518.02,569.48,518.43,569.48,518.84,569.79z M514.04,559.07c0,1.22-0.61,2.35-0.92,3.57c-3.27,0.47-10.97-2.6-14.8,1.22
		c-0.93,1.85,2.35,0.85,3.38,0.7c5.29-0.78,17.03,1.38,13.73,1.68c-3.62,0.33-9.84,0.51-13.44,1.9c-0.47,2.81,3.27,1.64,4.9,2.45
		c1.01,1.34-4.26,5.04,13.27,2.3c1.61-0.25,1.43-0.27,1.47-0.22c2.19,2.29,4.86,3.97,6.81,6.6c3.31,4.48,10.18,2.62,5.92,13.98
		c-0.66,2.64-14.39,2-16.69,2.02c-13.04,0.11-11.68,1.69-22.2,0.63c-5.62-0.57-7.52-9.63-10.21-6.94c-0.41,2.33,2.1,3.15,2.74,4.96
		c0,0.23-7.76-1.59-11.31-3.23c-0.51-3.88,1.53-16.02,3.88-23.07c4.87-0.81,3.32-2.44,6.12-3.57c7.44-3.01,6.45-2.87,6.64-2.82
		c1.16,0.32,1.3,2.24,1.91,1.84c2.63-2.01,2.96-12.13,10.84-12.29C515.85,550.61,514.04,550.68,514.04,559.07z M510.36,570.5v-0.1
		C511.4,570.4,512.43,570.5,510.36,570.5z M491.06,547.95c6.63-0.61,13.17-1.94,19.39-3.06c1.13,0.82,0.72,1.74,1.23,2.55
		c-3.18,1.27-12.35-0.77-17.25,10c-1.81,0-2.8-1.17-4.09-2.25C492.45,548.05,492.2,551.36,491.06,547.95z M489.44,560.19
		c-0.34,0.34-0.74,0.35-1.12-0.1C489.05,558.83,489.66,559.97,489.44,560.19z M465.21,535.52c2.63,0.09,5.52-0.76,7.08,3.25
		c0.04,0.08,0.64,1.32,0.56,1.36C472.24,540.61,461.96,535.4,465.21,535.52z M464.17,535.4c-0.44-0.02-0.85-0.22-1.23-0.52
		C463.42,534.87,463.91,534.91,464.17,535.4z M459.33,524.37c-0.6,0.68-6.02,3.62-1.9,9.37c2.09,2.92,3.92,1.56,6.71,3.6
		c3.63,2.66,8.91,5.09,9.19,5.09c3.39,0.56,4.5-3.77,2.04,4.59c-0.1,0.01-16.65,2.44-16.75,2.34c-24.03-23.55-16.88-14.2-3.55-1.42
		c2,1.92,2.41,1.36-9.19,4.08c-5.3-5.1-9.72-11.61-13.67-17.75c2.35-6.94,5.82-13.27,7.45-20.31c0.79,0,0.25-0.53,8.42-1.63
		c0.97,0-10.43,29.54-1.31,7.83c0.3-0.89,2.25-4.37,2.38-8.14c2.45-0.55,12.04-1.83,12.04-1.72
		C461.69,513.8,461.56,514.71,459.33,524.37z M454.94,399.96c0.7-1.04,2.62-2.3,2.76-2.35c0.82,1.94-0.41,2.96-0.82,4.18
		C455.76,401.38,455.05,400.98,454.94,399.96z M457.92,402.62c-0.27,0,1.39-2.04,1.5-2.26
		C460.68,399.11,459.66,403.76,457.92,402.62z M467.19,400.26c-9.5-5.12-8.08-4.64-5.76-7.51c1.84-2.28,3.59-4.74,5.66-6.88
		C467.53,388.84,467.58,396.26,467.19,400.26z M600.08,516.21c1.17,2.81,1.42,5.69,2.19,8.52c0.87,3.15,1.31,2.52,0.53,3.03
		c-4.54,3.01-5.84-6.33-5.29-8.23C597.89,518.24,599.09,517.12,600.08,516.21z M593.44,521.41c-1.1-3.03,0.84-6.12,3.57-6.12
		c0-0.56,0.12-0.51,0.61-0.82c0.41-0.41,0.11-1.43,1.22-1.02c-0.22,0.57-0.67,0.8-1.22,1.02c0,0.41-0.18,0.83-0.51,0.61
		c0.15,0.9-0.37,1.36-0.71,2.04c-3.35,6.55,4.11,12.49,0.1,11.84C594.53,528.47,595.02,525.73,593.44,521.41z M497.61,415.38
		c4.21-0.22,28.68,7.89,28.78,7.95c-9.63,2.06-11.09,3.88-13.47,4.39c-14.28,3.07-17.99,13.72-20.12,14.49
		c1.67-18.22-0.44-14.31-0.54-18.43c-0.03-1.08,0.71-2.7-0.27-5.24C495.33,412.75,493.08,415.38,497.61,415.38z M537.92,416.39
		c-7.1,5.61-1.2,8.29-11.64,3.06c4.08-2.25,8.68-2.65,12.55-4.39c0.69,0.2,0.82,0.51,0.8,0.81
		C539.56,416.97,538.37,416.46,537.92,416.39z M539.35,420.32c0.02,1.29-0.2,2.59-0.71,3.93c-1.63-0.41-2.96-1.02-4.18-1.74
		C539.44,417.52,539.3,417.14,539.35,420.32z M486.55,458.25c0.32-0.59,2.3-2.28,0.96,2.76c-0.88,3.3-1.77,4.99-2.94,9.48
		c-2.16,8.32-0.3,8.17-2.28,9.49C478.01,481.41,485.79,459.68,486.55,458.25z M481.99,499.68c-0.75-1.22-2.42-12.64-1.22-16.23
		C487.22,503.84,492.02,502.82,481.99,499.68z M498.83,489.77c0,2.45-0.1,4.9-0.2,7.45c-1.81,1.7-3.7,3.1-6,3.45
		c-2.41,0.6-8.19-13.32-8.19-15.8c1.02-2,0.52,1.45,10.72-1.53C502.4,481.22,499.61,480.27,498.83,489.77z M529.55,513.35
		c-3.04,3.53-4.26,5.87-4.59,5.79c-1.33-0.34-1.72-4.06-4.69-5.79c-0.85-0.28,0.22-0.35-9.08-13.98c-0.07-1.39,1.48-6.72,0.42-5.82
		c-1.5,1.52-2.15,5.45-3.42,5.76c-13.63,3.31-5.41,0.57-7.21-3.92c-0.08-0.15,1.03-7.36,3.06-9.7c0.98-0.98,0.69-12.8,19-21.62
		c18.36-8.83-8.08-2.02-14.82,7.02c-2.98,3.99-2.15,0.36-5.51,5.82c-0.42,0.6-1.54,3.38-2.26,3.38c-4.56,0.6-9.42,0.9-14.07,0.09
		c-2.21-2.52,2.6-16.39,4.08-21.23c7.34-23.93,17.89-25.29,25.21-29.09c6.86-3.56,13.53-3.81,16.65-5.51
		c4.52,0.9,5.47,3.08,10.21,3.57c1.74,0.18,3.36,0.73,4.8,1.84c2.54,1.96,5.82,2.76,8.27,4.29c9.71,12.74,6.76,13.66,3.16,28.27
		c-1.28,5.21-8.03,16.17-8.35,15.95c-0.58-0.46-0.33-2.48-1.79-1.51c-0.91,0.9-4.12,10.67-7.52,12.5
		C540.06,494.44,532.89,509.48,529.55,513.35z M553.23,427.61c0.13,1.18-0.65,2.06-2.2,1.55c-1.73-0.56-0.42-1.49-7.7-3.39
		c-1.34-0.45-0.78-0.4-1.43-2.35C536.94,419.65,549.6,422.87,553.23,427.61z M587.83,505.39c-2.9-0.44-8.76-2.62-9.17-3.7
		c-0.06-0.13,0.6-1.67,1.71-2.42C588.95,501.41,588.56,499.64,587.83,505.39z M590.18,484.77c0.51,2.55,1.43,5.1,1.53,7.96
		c-4.05,6.89-1.08,4.8-8.98,3.98c-0.61-0.71-0.19-1.22,0.1-1.74C588.62,484.81,589.69,482.35,590.18,484.77z M580.58,447.62
		c-0.4,4.41,4.45,11.71,7.65,30.92c-2.61,2.94-0.84,2.69-2.45,5.72c-11.71,22.04-7.92,16.49-21.43,19.49
		c-7.05-3.13-11.86-3.45-22.66-3.98c-1.03-1.64,3.11-11.13,4.69-14.08c10.03-4.66,37.01-11.62,23.56-9.18
		c-7.98,1.45-21.35,6.49-21.82,6.73c-0.44-0.44,0.1-3.47,2.35-3.47c1.74-1.84,3.52-3.71,5.1-5.72c1.48-1.87,6.58-3.96,6.63-4.49
		c0,0,0,0,0,0c0-0.1,0.1-0.2,0.1-0.31c-0.1,0.1-0.1,0.11-0.1,0.28c-0.04-0.19-0.87-0.14-3,0.26c-3.78,0.71,16.18-28.4-5.88-39.43
		c0.63-3.17,6.08-0.18,7.14,0.51c5.12,3.34,10.92,5,16.53,7.65C577.06,438.64,580.92,445.6,580.58,447.62z M576.2,429.66
		c0.13,7.19,0.53,1.24-12.25,0.31c-2.04-1.22-4.17-2.28-6.43-2.96c-4-1.21-6.46-5.32-15.72-7.76c-0.6-2.08,1.11-3.88-0.2-5.82
		c9.19-4.49,18.07-8.98,26.43-14.29c2.9-4.3,8.88-15.53,8.88-15.62c4.6-3.22,1.39,4.42,5.1,10.92
		C576.64,420.85,576.03,419.99,576.2,429.66z M543.22,409.55c0.03,0,0.29,0,0.32,0C543.42,409.64,543.28,409.68,543.22,409.55z
		 M543.74,408.73c0.82,0,1.18,0.01,1.32,0c-0.01,0.01-0.01,0.01-0.02,0.02c-0.22,0.59-1.31,0.76-1.31,0.57
		C543.74,409.1,543.74,408.89,543.74,408.73z M602.12,320.24c1.29,5.37,6.73,19.17-1.84,42.15c-15.18,18.21-16.06,14.33-23.37,17.35
		c-3.98,5.31-6.43,11.53-10.41,17.15c-6.89,3.79-12.25,5.91-18.78,10.72c-2.17,1.37-2.44,1.19-2.55,1.11
		c0.01-0.01,0.01-0.02,0.01-0.03c0.7-2.49,0.68-2.19,0.31-1.95c-0.69,0.45-2.06,1.99-1.86,1.99c0.04,0,0.07,0,0.11,0
		c-0.57,0.14-0.81,0.58-0.81,0.81c-0.08,0-12.18,5.99-12.25,6.03c-9.46,5.59-25.07-3.38-35.21-3.99c-0.82-1.53,0.1-3.27-1.02-4.39
		c1.02-1.72,4.5-7.16,4.8-7.45c5.99-5.89,4.84-9.99,7.96-10.61c0.61-0.92-0.31-1.84,0-3.16c0.71-2.04,1.43-4.39,2.14-6.53
		c0.88-0.77,3.06,1.76,2.04-3.16c-0.46-2.2,0.2-3.06,3.06-12.35c0.65-0.43,1.19,0.27,1.53,0.61c2.44,2,3.21,2.59,3.27,2.65
		c2.39-0.87-0.39-1.41-0.71-6.23c1.16-2.9,17.12-1.86,19.29-29.9c3.94-51-12.1-45.49-1.12-49.6c2.31,2.89,9.11,23.27,9.49,24.5
		c5.94,18.99,23.27,20.31,25.82,22.86c3.3-1.1,7.17-1.57,11.74-6.33c3.48-3.63,8.01-10.75,7.45-15.62
		c-0.38-3.32,2.7-7.72,0.92-16.84c-0.34-0.68,1.4-3.3,4.08,5.41C597.56,299.84,598.37,304.65,602.12,320.24z M693.07,536.1
		c-12.12,5.47-9.31,4.29-11.02,4.29c6.6-4.95,7.68-9.34,8.04-9.16C693.83,532.48,694.39,531.47,693.07,536.1z"/>
	<path d="M544.86,489.46l0.1-0.1C544.91,489.39,544.86,489.41,544.86,489.46z"/>
	<path d="M194.68,347.8c-0.05,0.14-0.02,0.07,0.1,0.1L194.68,347.8z"/>
	<path d="M274.5,264.01c0,0.2,0.01,0.13,0.1,0.1L274.5,264.01z"/>
	<path d="M274.87,99.44C274.87,99.79,274.96,99.75,274.87,99.44L274.87,99.44z"/>
	<path d="M342.47,309.94c-1.21,1.52-0.38,0.93,5.31,12.66c3.23,6.65,0.95,3.84,0,6.84c-4.92,15.53-3.73,17.21-5.1,18.07
		c-11.29,1.33-10.63,1.53-14.19,0.1c-10.04-26.18-9.33-18.69-1.02,0c-2.96,0.71-8.78,1.02-12.45,0.51
		c-0.2-0.45-7.51-17.55-7.45-18.78c1.94-1.38,11.3,1.22,10.72-0.82c-3.67-1.22-7.55-0.51-11.43-1.12c2.33-7,1.98-3.55,5.1-9.8
		c2.17-5.06,1.95-5,11.74-5.82c32.16-2.68,8.69-3.63-8.37-0.31c-0.92-0.71-1.74-1.43-2.65-2.14c-3.88-16.67-1.63-42.42-0.2-68.48
		c0.39-7.16-1.21-11.02-3.78-19.09c-3.49-10.97,2.82-9.7,1.74-27.97c-0.52-8.66-2.59-4.41-3.98-15.51c2.04-3.67,2.75-7.97,5-11.53
		c3.7-5.85-1.93-28.99-1.94-29.09c-3.05-26.77-9.62-16.56-21.43-30.21c-4.64-5.36-5.29-5.42-7.35-5.72
		c-0.61-0.92-1.84-1.43-2.04-2.76c0.71-3.06,0-6.53,1.74-9.49c5.16-3.15,7.14,4.36,13.06-14.8c1.91-6.18,0.45-11.26,2.86-15.51
		c2.67-4.71-2.81-22.4-1.43-3.78c-4.31,8.62,1.37,3.69-6.63,28.27c-0.43,1.32-0.82,2.55-2.25,3.47c-2.86-0.2-5.93,0.13-8.98-0.61
		c-5.1-1.23-5.98-2.45-6.94-1.33c0.17,1.18,0.99,1.22,4.08,1.84c2.91,0.3,1.11,1.74,3.27,1.74c0.51,1.02,0.41,2.04,0,3.16
		c-1.27-0.42-1.02,0.06-1.02-3.27c-0.32,0.16-1.01,0.08-1.33,0.61c-0.72,1.22,0.08,2.65-0.2,3.98c-0.33,1.53-1.74,2.35-2.04,3.88
		c1.43,1.02,1.88,1.9,2,2.31c-0.01-0.61,0.25-2.4,2.18-6.09c0.66,10.97-1.23,6.55,3.27,13.17c2.13,3.14,2-0.02,4.18,4.39
		c3.46,6.98,6.28,21.52,0.2,24.39c-10.75,5.08-10.71,2.48-16.53-3.47c-14.13-14.44-10-15.73-19.6-25.82
		c-7.79-8.2-10.44-10.89-11.33-12.76c8.41-7.36,2.61-1.26,6.84-11.02c1.95-4.5,1.75-16.73,2.55-17.76c1.35-1.72,1.43-3.88,2.04-5.82
		c0-2.17-3.47,0.04-3.47-3.88c3.06-0.31,2.5,1.4,3.74-6.48c1.37,2.12,1.53,2.7,1.57,5.05c0,0.13,0.96,1.62,2.35-1.63
		c4.02-9.44,2.9-10.11,4.59-12.04c4.67-5.32,3.86-8.92,5.82-9.7c1.74-0.69,2.96,1.17,2.96-1.43c1.39-0.69,2.28-0.39,2.76-2.14
		c-1.02-0.82-0.82-2.45-2.04-3.57c-1.12-0.2-2.45,0-3.37-1.02c0,0.95-1.39,0.93,0,0c0.2-0.71,0.61-1.22,1.84-1.94
		c1.43,0.71,2.97,1.61,4.59,2.55c1.03,0.6,0.1,2.25,1.43,2.45c1.12-0.41,0.1-1.74,1.22-2.35c1.22,0.1,2.65-0.31,3.88-0.82
		c5.74,1.91,2.95-0.24,8.47,1.02c2.24,0.51,4.4,0.63,6.53-0.41c4.08-1.99,0.51,7.13,4.8,13.17c0,6.4-11.19,1.84-9.29,13.88
		c0.1,0.31,0.31,0.41,0.61,0.31c0.71-1.12-0.1-2.76,1.12-3.78c2.35,0.82,4.49-0.31,6.94-1.02c0.61-3.06,1.94-6.12,2.25-9.29
		c-2.39-7.18-0.5,3.62-2.65-14.7c2.04-3.47,6.12-3.98,8.68-7.04c-1.22-1.12,0.1-2.45-0.2-3.67c-1.84-1.22-3.67,0-5.51-0.31
		c0.71-1.33,2.15-1.42,3.06-2.14c1.96-1.55,0.39-2.81-1.22-2.45c-3.79,1.08-2.96,1.98-4.08,1.53c-0.41-0.82,0.3-1.63,0.2-2.45
		c-1.04-8.8-1.73-1.69-5.73-0.85c-0.05-0.57,0.15-1.14-0.7-1.7c-1.02-0.31-2.36-0.23-3.67,0.2c-5.25,1.74-3.21,0.21-5.92,1.84
		c-0.68,0.34-0.95,0.11-2.35-0.82c-4.39,0.61-8.78-0.2-13.17,0.51c-1.33,0.61-1.33,3.06-3.67,2.65c-0.38-0.89,0.85-2.55-1.43-2.55
		c-2.65,3.16-5.92,5.1-10.1,5.1c-1.02-0.92-2.04-1.74-2.96-2.55c-6.37-0.91-1.55,2.36-0.92,3.88c-3.86,3.21,0.11,0.53-3.16,4.9
		c0.58,1.45,0.62,1.02-1.53,1.33c2.22,5.19-10.89,18.3-2.14,30.93c0.61,1.53-0.31,2.86-0.51,4.08c0.23,2.75,8.58,15.83,0.31,35.82
		c-12.57,7.73-10.56,0.97-27.56,17.96c-3.64,3.19-2.83,7.44,4.49-1.33c4.93-5.91,13.73-8.95,14.49-9.08
		c0.87,0.87,11.4,21.72,12.04,24.29c5.93,33.86,3.2,37.54-5.21,48.17c-0.99,1.25-1.8,2.07-3.06,0.82
		c-8.55-10.15-1.78-1.66-6.53-9.29c-2.83-4.54-4.71-6.06-1.12-11.74c0.2-0.41,0.41-0.82-0.41-1.33c-8.89,16.01-3.59,9.99-2.97,13.73
		c-1.99-0.94-2.08-0.72-2.03,1.48c0.24,11.35,0.83,37.76-7.55,46.74c-5.53,5.93-4.72,9.68-3.98,17.45
		c2.57,26.9-11.57,56.84-4.8,74.61c5.5,14.43,5.17,0.84-1.02,25.62c-0.28,1.94-0.79,2.6-1.94,3.98c0.82,1.84,1.13,3.87,2.45,5.61
		c4.95,6.54,1.67,7.43-0.71,6.33c-0.51-0.61-0.41-1.33-1.33-1.74c-1.99,0.5-3.35-1.71-5.11-1.39c2.73-1.95-0.98-3.19-0.4-6.47
		c0.1-0.41-0.41-0.82-1.53-0.82c0.2,2.63-0.9,5.28,1.8,7.31c-1.23,0.22-2.15,0.97-3.84,0.55c-1.12-0.2-0.61-2.45-2.04-3.16
		c-1.12-0.92-2.55,0.31-3.78,0c-0.71-3.98-0.37-7.75,0.51-11.53c2.38-10.23,0.3-12.13,2.04-15.62c-2.57-7.19-0.33-3.84-0.61-7.35
		c-1.58-19.33,0.37-12.91-1.84-20.92c-8.28-30.05-2.61-38.37-3.67-57.56c-0.45-4.06-1.75-2.62-1.43-1.02
		c0.4,4.63-6.73,26.64,2.35,58.18c1.25,5.43,2.73,19.47,2.35,26.43c-0.31,5.7,0.32,8.23-3.67,8.27c-0.31-0.82,1.22-0.92,0.82-1.84
		c-0.41-0.41-0.92-0.1-1.33,0.1c-5.62,2.01-25.46,3.96-26.43,4.8c-1.56,2.08-3.23,14.09-3.57,17.15c-0.6,5.29,0.27,4.92,2.76,10
		c1.42,2.89,5.9,11.76,7.96,9.29c0.28-1.83-9.1-13.44-8.06-15c1.11-1.11,5.6-0.27,6.23-1.53c-1.32-1.99-5.79,2.44-7.14,0
		c1.94-5.82,2.35-12.25,3.47-18.78c3.57,0.71,6.84-1.12,10.1-1.12c0.41,0.51,0.61,0.92,1.02,1.43c5.61-0.92,11.23-1.94,16.94-3.67
		c0.33,3.92-1.5,14.43-1.12,20.72c1.47,2.94,3,1.94,5,1.74c1.59,1.59,1.23,3.72,5.21,4.29c4.59,0.65,9.08,2.14,13.78,1.33
		c6.93,9.81,4.3,9,21.74,5.72c11.8-2.22,11.57-2.35,11.84-3.27c-0.75-1.75-17.07,2.75-26.54,3.88c-4.29-6.33-8.47-12.55-12.15-19.09
		c3.05-9.16,1.88-2.21,5.82-17.96c3.49-13.98-12.5-3.05,1.33-58.38c5.31,3.16,12.15,4.59,14.19,2.96c0.76-2.67-0.17-2.58-0.71-2.04
		c-0.1,0.61,0.61,1.12-0.31,1.84c-6.79,0-2.04-2.9-4.69-4.49c-1.63,1.02-0.1,2.35-0.61,3.37c-1.76,0.7-0.79-2.65-1.43-3.57
		c-0.43-0.72-1.63-1-1.63,0.92c0,2.34-1.54-0.02-0.2-2.25c11.5,0.74,48.95,14.08,62.77,11.84c2.57-0.42,4.7-0.18,3.37,2.04
		c-0.38,0.76-1.41,1.53-1.94-1.12c-1.14,0.25-1.83,4.28-4.8,2.96c0-5.18-0.7-0.52-1.94,0.1c-2.86,0.1-6.12-0.82-9.59-0.1
		c2.11,1.5,1.73,0.28,2.76,10.21c2.97,0-1.27-9.98,3.98-8.57c2.78,0.74,2.6-0.88,3.37,6.84c0.09,0.57,0.11,1.14,0.7,1.47
		c-0.89-10.96-1.53-7.21,5.01-7.9c2.04-0.22,3.78-1.02,5.61-1.53c3.15,1.26,0.85-1.24,3.47,0.51c5.21-3.65,2.59,0.27,4.39,0.92
		c0.2-0.2,0.51-0.31,0.51-0.51c3.25-17.07-3.78-4.53-0.71-17.76c2.73-11.75-1.25-19.74,6.84-40.21c5.22-13.21,2.08-22.71,5.51-30.72
		c0.14-0.14,0.18-0.22,0.18-0.28c2.16,2.48,2.97,14.14,1.84,23.04c-3.09,24.53-0.18,13.21,3.27,33.37
		c1.23,7.19-5.25,63.3,1.94,77.16c-1.84,2.96-2.76,6.33-4.9,9.9c-0.2-2.65,0.02-4.6-0.41-6.53c-8.07-36.85-3.19-34.7-13.47-46.34
		c-2.79,2.79,4.02,1.79,6.84,22.86c2.11,15.78,6.53,32.76,5.61,35.52c2.03,6.09,2.83,7.26,2.65,10.92
		c-0.62,13.16,5.39,43.48,2.45,47.26c-6.25,1.81-13.09,4.11-22.25,3.88c-15.83-0.41-18.31,0.32-30.93-2.04
		c-3.58-0.36-2.97,0.44-3.47-2.04c1.99-2.48-1.53-2.5-4.59-1.63c-4.33,1.23-7.82,0.51-11.74-0.51c-11.66-3.04-18.14-2.71-22.86-4.18
		c-14.14-4.41-17.39-6.18-22.05-4.59c-0.12,0.04-3.68,0.94-4.29,0.41c6.57-30.17-1.5-21.52,5.41-26.13c0.73-0.59,1.07-0.98,1.11-1.2
		c0.01,0.1,0.01,0.18,0.03,0.28c0.2-0.1,0.61-0.1,0.92-0.2c2.97-5.45-1.4-4.37-0.96-0.21c-0.48-0.81-8.93,2.66-12.22,3.88
		c-3.56-0.81-18.19,2.59-18.47,3.98c0.24,1.44,2.54,0.93,3.98,0.61c23-3.07,21.33-7.31,20.21,0.51c-0.02,0.1-2.35,14.89-2.35,17.15
		c0,3.13-2.81,5.29,2.04,4.69c6.35-0.78,8.04-2.37,13.37-0.2c1.92,1.92-0.51,15.19,1.94,27.45c2.34,11.7-0.71,27.11-1.53,29.29
		c-23.61,52.85-7.45,47.1,2.04,115.13c-3.88,4.39-5,6.42-5.72,12.25c-0.07,0.59-1.1,17.14-3.37,21.43
		c-6.87,13.02,4.67,9.62,13.27,11.74c3.1,0.76,3.78-1.82,10,1.22c12.79,6.26,48.06,0.25,52.36-3.37c5.81,1.16,22.21,1.7,42.87-1.33
		c3.89-0.57,3.28-3.4,3.06-4.8c-1.11-7.17-1.36-11.42-6.02-12.35c-4.78-0.96-8.86-1.89-12.45-5.1c-3.72-3.33-9.81-6.99-12.15-11.74
		c-1.75-3.57-5.27-4.77-7.65-8.68c0.61-2.76-0.51-5.41-0.51-8.16c-2.68-2.01-3.3,0.04,0.1-15.11
		c13.56-60.43,15.87-57.67,13.47-82.77c-0.51-5.35,1.11-2.1,0.71-7.96c0-6.03,3.66-7.9,3.88-17.55c0.36-2.85,1.15-4.99,0.1-7.65
		c-1.03-2.62-0.19-9.18,0.51-11.43c2.04-2.04,3.27-4.59,4.08-7.35c16.51-5.5,15.42,1.15,9.39-45.52c-1.65-12.76,2,1.41,5.21,4.49
		c2.7-2.32,1.19,0.54,28.27-2.04c2.88-2.64,1.59-6.64,6.53-19.9c0.41-0.51,1.22-0.51,1.33-1.33
		C350.94,323.34,345.44,311.92,342.47,309.94z M294.2,43.45c-1,0.85-5.26-0.15,0.1-0.82C294.4,42.63,294.2,43.21,294.2,43.45z
		 M300.11,12.42c0.8,0.27-0.58,2.47-1.94,2.86C297.37,12.87,298.2,11.96,300.11,12.42z M292.15,5.89c0.94-0.09,1.18,0.44,0.82,1.33
		C292.54,8.26,290.41,9.37,292.15,5.89z M290.39,3.69c-0.03,0.08-0.07,0.16-0.07,0.16C290.14,3.85,290.13,3.78,290.39,3.69z
		 M289.05,20.69c0.1,0,3.18,0.62-0.98,0.2C288.54,20.77,288.81,20.7,289.05,20.69z M282.05,9.77c-0.1,0-0.2,0.1-0.2,0.2
		C281.4,9.97,281.83,9.16,282.05,9.77z M281.85,13.34c-0.31,0.41-0.51,0.82-1.02,0.82C280.83,13.24,280.83,13.24,281.85,13.34z
		 M282.66,20.08c-1.84,0.4-2.77-0.72-3.88-1.22C280.11,18.65,281.23,19.26,282.66,20.08z M277.76,16
		C277.76,15.51,278.31,15.81,277.76,16c-0.41,0.41,0.07,0.78-0.51,0.2C277.36,16.15,277.7,16.03,277.76,16z M275.27,17.25
		c0.6-0.11,0.8,0.34,1.06,0.79C274.91,18.6,274.57,17.34,275.27,17.25z M273.48,10.48c0-1.33,1.8-2.1,2.96-1.63
		c0,0.78,0.68,0.03-2.96,3.37C273.48,11.2,273.48,10.79,273.48,10.48z M267.97,7.42c0,0.1-0.1,0.2-0.2,0.2c-0.1,0-0.1-0.1-0.2-0.2
		C267.56,7.22,267.97,7.22,267.97,7.42z M262.66,22.73c-0.1,0.28-0.1,0.24-0.1,0C262.64,22.65,262.7,22.62,262.66,22.73z
		 M261.33,28.55c0.1,1.12-1.02,1.53-1.74,2.76C259.29,29.09,259.62,27.08,261.33,28.55z M258.58,10.18
		c-0.71,1.74-0.71,1.74-2.55,1.74C256.64,10.89,257.35,10.28,258.58,10.18z M259.6,17.22c0.2,1.63-0.71,2.76-4.08,4.9
		C256.64,19.67,256.64,19.67,259.6,17.22z M255.11,17.22c0.37,0,0.17,0.4,0.03,0.4C254.86,17.62,255.11,17.34,255.11,17.22z
		 M254.49,31.71c0,0.27,0.05,0.23-0.2,0.1L254.49,31.71z M254.49,34.16c0.56,1.51-0.3,2.01-1.53,2.76
		C252.76,35.18,252.76,35.18,254.49,34.16z M252.27,46.38c0.74-0.25,0.03-0.42,0.71-0.94c0.09-0.06,0.06-0.12,0.09,0.05
		c0.26,1.28-0.71,0.37-0.71,1.33C252.17,46.63,252.03,46.46,252.27,46.38z M245.41,32.73c0.07-0.13,0.59-0.22,0.64-0.17
		c1.07,1.07-0.67,2.58-0.54,4.36C245.18,35.34,244.73,34.04,245.41,32.73z M246.23,52.64c-0.6-1.11,0.11-0.9,0.2-0.61
		C246.52,52.22,246.36,52.38,246.23,52.64z M248.69,47.81c-5.92-4.63-1.55-5.92-0.26-3.52C249.07,45.48,248.97,48.09,248.69,47.81z
		 M249.39,35.49c0-0.23-0.03-0.2,0.05-0.2C249.6,35.29,249.39,35.31,249.39,35.49z M251.74,49.27c0.58,1.17-1.21,0.8-0.31-0.1
		C251.53,49.17,251.74,49.17,251.74,49.27z M249.59,35.18c0.31-1.53,0.31-1.53,1.94-1.12C251.02,35.18,250.38,35.18,249.59,35.18z
		 M248.58,10.64c0.63-0.4,1.41,0.73,0.44,0.73C248.66,11.35,248.26,10.84,248.58,10.64z M243.86,17.68
		c0.91-1.39-3.31-0.99,1.76-2.09c1.12,0.31,1.33,1.53,2.14,1.94c1.02,0.41,1.84-0.61,2.86-0.31c0.73,0.92,0.17,1.46-0.61,2.25
		c-2.08,0.42-0.99-3.06-7.15,0.9C242.16,20.8,243.39,18.39,243.86,17.68z M239.49,43.65c0.26-0.13,0.2-0.13,0.2,0
		C239.69,43.79,239.75,43.78,239.49,43.65z M242.45,46.51c1.12,0,1.53,0.92,2.04,1.53c0.22,1.52-0.6,0.34-1.12,3.98
		C241.13,50.35,239.99,47.19,242.45,46.51z M182.03,314.53c0.27-0.09,0.53-0.16,0.79-0.18
		C182.62,314.47,182.42,314.83,182.03,314.53z M304.91,124.9c3.34,9.12,7.79,41.47,3.88,30.41c-13.23-37.37-15.51-37.15-15.51-39.29
		C298.38,116.94,302.05,119.9,304.91,124.9z M228.77,165.72c2.13,1.42-0.23,0.25,4.9,4.29c-1.6,2.26-5.21,5.06-9.12,6.57
		c-0.66,0.25,0.57-0.25-0.44-8.62c-0.36-2.99-1.11-7.37-1.23-8.4C225.94,163.43,226.78,165.1,228.77,165.72z M212.03,214.51
		c0,0.1,0.77,3.21,1.12,5.41c0.11,0.65,0.11,0.8-1.12,2.86C210.57,213.26,210.28,216.27,212.03,214.51z M212.55,254.11
		c-0.75-0.46-0.53-1.15-0.51-1.85c0.01-0.42-0.43-0.97-0.49-1.49C211.45,249.87,214.03,251.09,212.55,254.11z M283.48,265.54
		c-0.69-2.54-0.43-2.14,1.22-2.55C285.46,263.9,284.95,265.98,283.48,265.54z M287.66,264.11c-0.67,1.78-1.82,0.36-0.82-1.94
		C288.19,261.54,287.87,263.07,287.66,264.11z M289.4,261.76c-0.24,0.12-0.46-0.15-0.1-0.51C289.55,261.5,289.4,261.87,289.4,261.76
		z M303.48,179.09c-1.19,1.29-1.97,4.76-1.99,5.15c-0.1,1.64-1.01,1.46-1.49,4.48c-4.46,28.33-6.84,27.86-8.22,35.93
		c-1.79,10.45,1.01,12.55-2.4,31.9c-2,11.36-59.19-4.58-74.2-7.86c-4.63-1.01-4.77-1.07-2.53-15.37c0.18-1.17,0.71-1.47,1.17-4.06
		c0.18-0.99,1.42-12.8,0.89-17.5c-0.13-1.14,2.38-3.26,6.08-16.03c0.31-1.07,1-2.54,1.84-2.96c0.31-1.55,0.2-3.04,0.92-4.39
		c1.39-1.19,2.84,1.22,4.02,1.1c1.47-0.15-1.46-1.61-1.67-1.82c-0.71-0.61-1.33-1.43-2.04-2.14c0.18-1.26,0.02-2.55,0.15-3.8
		c0.57-5.37,3.11,0.1,6.25-0.57c1.35-0.29-1.27-1.31-1.87-2.38c-0.76-1.36,5.86-5.42,7.21-6.22c0.72,0.48,5.29,4.54,10,2.65
		c0.25-1.51-1.48-1.1-4.29-2.04c-11.55-3.88,11.97-4.3,6.02-43.27c-4.26-27.93-22.19-34.76-12.35-36.95
		c0.88,3.27,2.23,3.16,18.68,23.17c4.83,5.88,14.44,23.25,24.39,23.47c5.77-1.92,11.99-2.54,12.45-9.49
		c0.83-12.44-4.47-20.37-4.4-22.08c5.86,3.7,20.35,45.04,22.86,51.37c2.66,6.72-4.39,12.81-4.39,19.49
		c0.01,0.01,0.03,0.04,0.04,0.05C304.44,178.86,303.86,179,303.48,179.09z M203.36,528.96c-0.83-3.88-3.24-10.57-2.45-15.62
		c0.87-5.53-7.69-2.52-7.25-44.19c0.05-4.98,0.23-6.84,2.25-10.72c6.18-11.9,14.51-42.07,10.92-54.2
		c-2.11-7.12-2.05-14.19-2.76-22.66c1.94-1.66,30.34,4.75,34.4,5.92c9.36,2.71,11.68-0.95,13.57,0c0,18.18-10.35,21.69-9.19,33.68
		c0.38,3.93-1.14,6.25-2.86,10.21c-2.96,6.85-1.07,9.05-3.48,7.81c-0.16-0.11-2.82,5.96-3.77,9.85c-3.91,16.11-2.19,38.44-6.53,49.5
		c-2.72,5.45-2.12,46.07-1.53,47.26c-8.45,4.58-4.2,7.72-6.54,5.38c-0.28-0.28-0.51-0.43-0.81-0.48c-3.37,1.53-6.94,1.43-10.72,2.25
		C203.62,536.42,205.37,538.36,203.36,528.96z M246.23,478.34c0.3,8.06,6.78,16.98,5.72,23.07c-1.32,7.54-0.11,44.03-0.61,46.64
		c-0.62,2.48,0.64-0.01-7.35,3.98c-5.28,10.96,1.19,11-1.84,13.17c-2.33-0.33-2.1,0.03-4.49-2.05c0.48-6.1-1.72-15.17-7.86-15.92
		c-1.43-0.18-2.55-0.61-3.47-2.04c0.53-2.56-0.15-32.8,2.14-44.09c1.27-6.23,3.61-13.66,4.39-20.51
		c1.71-15.01-0.63-19.67,0.31-23.58c2.91-12.17,4.46-6.74,7.65-19.09c3.58-13.86,5.4-4.53,4.08-21.64c0.71-1.02,1.44-2.14,1.94-3.47
		c0.42-1.12,0.41-2.45,1.43-3.37c3.62,7.82,3.39,19.18,3.88,24.1c0.55,5.48,1.74,4.6,1.74,6.63
		C253.19,447.07,245.3,453.79,246.23,478.34z M205.91,562.95c-0.93-0.28-0.57-0.65,0.41-6.84c12.54-3.06,13.43-2.99,13.09,0.62
		c-0.26,2.72,0.47,1.29-3.7,3.56C212.19,558.54,210.32,561.09,205.91,562.95z M210.91,563.08c-0.03-0.02-0.04-0.05-0.04-0.07
		C210.86,562.94,210.89,562.9,210.91,563.08z M239.59,596.83c-9.94-2.21-40-2.55-44.5-4.8c0.82-2.25,0.94-4.68,2.25-6.84
		c3.58-5.93,0.46-7.31,3.37-16.02c-0.82-2.24-0.83-10.04,1.33-11.02c0.77,1.69-1.39,9.45,2.68,8.3c0.74-0.21,1.4-0.74,2.32-0.85
		c1.24,4.97,10.27-3.99,14.16-4.38c0.29,0,0.63-0.47,1.06-0.72c-0.62-7.75-2.03-8.29,3.41-12.13c0.56-0.45,2.17,0.88,2.82,1.2
		c0.61-0.1,1.02-0.2,1.43-0.31c1.74,0.71,2.61,1.95,2.96,3.67c1.62,7.95,2.15,8.24,0.76,8.56c-0.1,0.02-11.43,1.21-10.96,3.07
		c8.05,0.79,11.86-2.31,13.27,0.51c-1.15,0.69-16.59,2.51-7.76,3.98c0,2.21-0.25,1.13,3.47,1.43c0.58,0.05,7.65,0.2,7.76,0.2
		c11.3,0-4.78,1.17-7.04,3.16c0,1.13,0.45,0.82,7.76,0.82c-1.19,0.87-5.08,2.86-2.65,2.86c7.78-0.56,7.7-0.96,10.31-1.74
		c3.98,1.99,3.82,5.17,16.53,10.31c2.54,1.03,2.79,2.68,3.47,6.43C265.82,594.64,246.41,597.81,239.59,596.83z M290.6,568.69
		c0.64,0.34,1.3,0.92,1.64,1.62c-1.06,2.48-4.25,1.82-8.68,0.71C285.57,570.36,288.6,570.32,290.6,568.69z M277.56,553.56
		c0.71,0.51,0.2,0.92-0.2,1.02C272.12,555.87,277.3,553.72,277.56,553.56z M295.09,396.89c-3.76,3.42-2.38,13.12-1.22,16.13
		c-2.07,9.04-0.5,10.17-3.27,16.74c-2.38,5.64-0.49,5.64-1.02,7.14c-0.98,2.77-0.4,5.61-0.2,8.37
		c2.61,36.66-11.94,51.45-16.33,95.33c-1.12,1.33-3.16,1.33-4.29,3.37c-0.31,1.15-0.41,7.49,0.11,7.62c2.91,0.72,1.53-4.66,2.24-6.6
		c6.68-4.04,4.23,2.1,5.84,5.31c-2.44,2.25-6.54,0.4-10.21,4.18c-1.17,1.2-0.97,1.91-0.43,2.09c0.8,0.21,0.78-0.59,2.06,0.05
		c-0.29,0.87-2.99,1.5-1.69,1.95c6.55,2.26,13.4-2.85,14.66-1.66c2.12,2.01-7.4,1.09-11.84,5.02c3.58,1.02,2.98,1.27,13.88-1.43
		c3.16,2.76,2.26,4.44,1.77,2.66c-0.06-0.23-9.84-0.9-11.78,1.21c0.48,1.88,2.62,0.12,2.03,3.06c8.2,0.75,12.05-2.22,12.86-0.71
		c0,1.04-4.29,0.61-7.55,2.25c-5.83,1.94,4.89,2.46,8.79,5.25c4.54,2.59,2.93-3.27,4.68-2.39c2.92,0.97,5.16,5.41,10.72,5.1
		c2.65-0.15,6.4,1.66,6.57,1.92c1.87,4,4.62,13.22,0.85,11.3c-0.86-0.57-3.9,1.54-9.67,1.79c-3.27,0.14-32.97,1.52-32.97-1.74
		c0-6.34-5.27-5.53-15.73-12.19c-2.29-1.46-0.15-0.54-5.91-6.08c-6.96-6.71-2.11-1.45-2.45-11.84c-0.48-14.65,3.3-3.78,5.92-0.41
		c3.69,0,6.19-0.93,7.65-4.39c2.55-1.43,5.1-2.96,7.86-4.49c0.52-2.63,0.36-5.74-0.1-8.06c-1.43,1.43-1.02,2.96-1.43,4.49
		c-10.15,2.77-5.19,1.95-7.76-1.63c-1.62-0.23-0.13,2.26-1.22,4.08c-4.15,4.15-2.65-2.76-2.65-25.82c0-16.25,1.52-16.75,0.2-18.78
		c-1.28-1.98,2.56-7.47-3.67-18.58c-1.65-2.94-2.51-4.42-2.35-7.55c0.71-13.92,0.54-11.74,0.92-13.98
		c0.26-1.08,3.49-14.73,4.08-15.72c2.6-5.21,0.67-7.24,2.55-9.39c3.9,3.9,2.13,2.9,6.63,3.67c-1.64-2.81-3.58-4.98-5.1-6.12
		c-0.33,0-1.19-0.1-1.63-0.1c-6.23-9.49,5.09-18.2-5.92-30.72c0.38-0.86,3.15-5.09,3.98-9.8c2.01-11.34-8.81-1.01,43.68-4.29
		C296.83,394.12,296.35,395.75,295.09,396.89z M271.83,555.7c-0.41,0.51-0.92,0.61-1.63,0.51
		C270.71,555.5,271.32,555.81,271.83,555.7C272.17,554.04,277.94,555.7,271.83,555.7z M253.58,553.05c1.87-0.4,3.55-1.16,5.49-1.03
		c0.45,0,0.25-0.69,1.13-0.4c-4.09,2.05-3.31,3.38-5.21,4.8c-1.24,0.41-1.44,0.83-1.59-1.44
		C253.38,554.46,253.47,553.05,253.58,553.05z"/>
	<path d="M273.88,276.66l0.1-0.1C273.82,276.48,273.88,276.47,273.88,276.66z"/>
	<path d="M246.94,103.77l-0.1-0.1C246.84,103.7,246.92,103.75,246.94,103.77z"/>
	<path d="M183.46,205.32c-4.3,16.33,12.11,40.05,0.71,7.86c0.44-5.66,0.96-8.61,0.2-11.74c-0.66-2.72,0.58-4.21-0.51-7.65
		c-5.48-17.31-4.69-16.4-3.16-32.15c1.47-15.14,1.93-9.26,3.27-10.82c-0.48-5.34-1.51-10.67-0.41-16.74
		c0.82-4.5,1.47-2.75,3.37-5.92c10.44-15.09,8.63-12.62,21.13-16.64c0.31-0.41,0.41-1.02-0.51-1.43c-7.02,1.4-8.11,0.9-10.82,2.76
		c-1.21,0.83-2.35,1.33-3.67,1.12c-16.64,13.19-11.82,33.76-12.15,34.7c-0.04,0.1-2.9,13.49-3.78,21.43
		c-0.84,7.67,0.57,10.7,4.49,24.8C182.54,198.21,181.16,200.28,183.46,205.32z"/>
	<path d="M590.59,515.9c-1.46,0-2.21,2.64-3.37,2.35c0.31,1.02-0.61,1.74-0.51,2.96c1.43,1.63,1.63,3.67,1.33,5.82
		c-2.66-0.66-1.68-3.66-2.55-5.21c-1.78-0.61-0.91,3.07-1.8,2.62c-1.18-0.52-1.94-2.48-0.96-3.13c1.53-1.02,3.06-2.04,4.49-3.06
		c-0.1-0.41-0.51-0.71-1.02-0.61c-6.52,1.96-6.14,3.8-6.94,7.55c4.24,9.89,6.73,1.62,10.51,5.41c0.71,0.61,1.22,1.63,2.25,1.84
		c4.48,0-3.36-3.45-2.96-12.96C590.48,517.47,591.67,516.76,590.59,515.9z M583.1,526.93c-0.12-0.15-0.17-0.42-0.17-0.52
		c-1.39,0,0-1.78,0,0C583.63,526.59,583.81,527.7,583.1,526.93z M584.85,527.97c-1.19,0.11-1.05-0.65-1.28-0.77
		c1.28-0.57,1.38-0.48,1.38,0.73C585.05,527.98,584.95,527.97,584.85,527.97z"/>
	<path d="M672.75,534.68c-35.67-15.17-31.22-8.19-20-4.49c11.66,3.85,17.82,6.96,20.92,8.17
		C677.59,539.87,677.53,536.71,672.75,534.68z"/>
	<path d="M252.96,324.23c-1.43-5.1-7.86-15.92-11.74-19.9c-6.55-1.31-15.21,3.99-23.07,3.67c-2.14-0.09-4.18,0.92-6.74,2.55
		c3.57,0.1,5.92-1.33,8.47-2.04c7.16,1.48,16.27-3.25,20.51-3.78C252.39,325.22,251.66,325.52,252.96,324.23z"/>
	<path d="M271.64,340.76c1.46-5.41-1.62-10.25,1.53-16.13c8.17,3.57,15.62,8.17,23.37,13.88c-4.16-5.83-12.97-10.46-19.8-13.78
		c-3.93-1.91-4.15-4.31-6.23,2.86c-1.03,3.57-0.51,7.14,0.51,10.31c-2.16,8.48-6.83,16.14-6.63,17.86
		C267.47,354.44,271.06,342.89,271.64,340.76z"/>
	<path d="M256.33,382.5c-1.24,8.51,2.48,6.44,3.57-8.16c0.32-4.2,3.32-13.96,4.08-16.13c2.46-6.94-5.05,2.95-6.33,14.39
		C257.29,375.87,256.8,379.25,256.33,382.5z"/>
	<path d="M581.09,232.57c0.92-0.61,2.45,0.2,2.96-1.33c-0.41-0.61-0.82-1.43-1.12-2.04c-4.88-2.93-6.36-0.29-9.29-1.12
		c-0.51-0.2-1.12,0.31-1.74,0.41c-1.84,0.51-3.06,1.84-4.69,3.27c2.35,0.51,3.27-1.63,5.21-1.74c1.74,1.53,4.49,0,6.63,1.53
		c-0.82,0.92-1.63,0-2.25,0.31c-5.45,2.29-7.95,1.39-7.04,3.57C585.71,234.95,578.13,234.05,581.09,232.57z"/>
	<path d="M277.35,46c2.23-3.9,3.07-1.26,4.18-2.86c0-5.41-8.64-3.3-10.21-4.08c-0.43-0.29-3.16,0.26-6.84,3.16
		c2.25,0.51,3.37-1.22,5.21-1.53c5.38,2.15,5.94,0.33,6.84,2.35c-1.22,0.51-2.44-0.38-3.47,0.2c-3.13,1.78-5.65-0.03-6.12,2.35
		C270.31,46.41,276.33,46.61,277.35,46z"/>
	<path d="M290.32,376.48c-1.42-4.27-6.68-7.59-8.98-9.49c-6.49-4.64-2.08-5.46-2.25-8.37c-0.34-1.94-0.23-0.18-3.88-10.21
		c-0.6-1.64-0.61-3.57-2.25-5.72c1.35,14.88,5.33,14.19,3.16,17.96C273.53,365.19,278.94,368.26,290.32,376.48z"/>
	<path d="M245.72,345.96c7.18-8.79,6.99-24.56,5.61-20.41c-2.07,4.71-3.74,15.41-7.86,20.51C243,346.53,244.22,347.79,245.72,345.96
		z"/>
	<path d="M260.82,78.46c-9.67-7.35-7.18-1.93-10.92-15.41c-1.02,3.67-0.31,6.94,0.92,10.31c0.71,0.5,7.37,5.14,9.56,7.14
		c0.3,0.28,0.1,0.56,0.33,0.48c1.12-0.05,1.94,1.81,3.58,0.85C263.47,80.19,262.04,79.38,260.82,78.46z"/>
	<path d="M569.97,271.76c-1.22-2.04-1.22-2.04-12.15-8.06c-0.24-1.8-0.63-0.86-3.57-9.7c-0.51,4.69-0.51,4.69,1.74,10.41
		C563.98,269.04,569.03,272.93,569.97,271.76z"/>
	<path d="M565.15,270.34c0.05,0-0.39-0.41-0.05-0.07l-0.03-0.03C565.1,270.27,565.13,270.31,565.15,270.34z"/>
	<path d="M299.91,317.8c2.99-0.5-6.72-17.46-8.17-20.11c-0.7,0.93-0.8,0.08,7.55,19.8C299.4,317.59,299.71,317.69,299.91,317.8z"/>
	<path d="M203.16,218.49c1.72,7.02-1.01,8.9,0.1,11.12c3.44-3.64,1.22-3.34,2.14-7.45C207,215.02,200.65,208.27,203.16,218.49z"/>
	<path d="M603.85,492.53c-0.2-2.76-0.41-3.47-1.74-5.82c0,4.29,0.58,3.84-3.27,4.69c-1.69,0-0.37-8.52-2.86-8.06
		c0.38,9.47,1.32,8.69,0.31,10.51C602.19,491.5,602.79,492.85,603.85,492.53z"/>
	<path d="M211.63,273.91c2.29-3.69,5.21-11.82,4.8-14.08C215.34,253.92,209.55,275.99,211.63,273.91z"/>
	<path d="M448.92,455.99c0-5.54,2.79-8.81,6.63-15.62C464.77,424.04,441.52,455.99,448.92,455.99z"/>
	<path d="M581.71,258.6c-0.71-0.01-1.5,0.79-1.12,1.53c1.51,1.51,9.34-1.23,13.68-1.33C596.64,254.63,587.96,258.69,581.71,258.6z"
		/>
	<path d="M286.23,69.48c-10.24,1.47-10.1-0.12-10.72,1.33c0,1.52,1.47,1.37,4.08,1.12c11.02-1.05,10.21-0.91,10.21-1.12
		C290.74,68.95,288.29,69.18,286.23,69.48z"/>
	<path d="M281.23,73.97c-3.65,3.13-0.07,3.92,4.69,3.27C289.75,76.7,287.61,72.79,281.23,73.97z"/>
	<path d="M584.67,264.93c2.35,1.22,2.45,1.22,5.92,0.31c1.02-0.2,2.25-0.1,2.55-1.53c-1.12-1.43-1.12-1.53-1.74-1.63
		C586.12,261.48,586.42,261.78,584.67,264.93z"/>
	<path d="M208.56,299.73c3.01-4.35,7.44-35.91-0.2-2.55C208.17,298,207.95,298.81,208.56,299.73z"/>
	<path d="M454.94,405.77c-22.16,7.39-14.64,7.52,0.92,1.22C455.96,406.39,455.76,406.18,454.94,405.77z"/>
	<path d="M241.22,281.36c-0.1,4.69,0.41,9.19,2.14,13.47C243.7,292.08,243.96,280.86,241.22,281.36z"/>
	<path d="M193.36,356.37c0,3.75,1.69,11.8,5,15.11C192.1,351.91,195.26,357.33,193.36,356.37z"/>
	<path d="M228.88,259.72c-1.74,2.45-2.86,5.41-4.8,8.06C229.58,265.95,232.06,259.19,228.88,259.72z"/>
	<path d="M240.41,278.71c1.11-5.29-1.42,0.02,2.55-8.57C249.47,258.03,237.49,268.88,240.41,278.71z"/>
	<path d="M237.75,110.71c-0.1,0-12.32-3.06-13.17-0.1C233.2,109.99,236.32,112.86,237.75,110.71z"/>
	<path d="M284.19,115.2c-2.14-0.31-2.35-0.32-3.57,0.2c-2.39,1.04-7.01,3.62-4.8,5C279.1,117.6,282.84,116.89,284.19,115.2z"/>
	<path d="M571.7,536.92c-4.78-15.3-2.51-12.7-4.08-14.8C567.21,526.92,568.85,533.66,571.7,536.92z"/>
	<path d="M194.02,177.23c0.17-0.13,0.36-0.22,0.36-0.39C196.55,165.14,188.61,165.13,194.02,177.23z"/>
	<path d="M186.52,151.02c-2.43,0.97,1.56,6.49,5.92,7.76C187.08,152.35,188.14,152.18,186.52,151.02z"/>
	<path d="M187.44,231.45l0.01-0.01C187.32,231.35,187.28,231.29,187.44,231.45z"/>
	<path d="M193.36,238.08c-0.61-1.53-2.93-6.25-3.98-7.35c-0.2-0.21-0.61-0.2-1.02-0.41c-0.31,0.41-0.6,0.7-0.91,1.11
		C189.43,232.9,189.97,237.91,193.36,238.08z"/>
	<path d="M240.31,258.29c-0.61,0.82-1.22,1.84-2.86,1.02c-0.51-0.1-0.1-1.63-1.43-1.43c-1.39,1.62,0.2,3.16,0.61,3.67
		c1.89-1.89,3.84,0.79,5.72-1.33c0.41-0.2,0.51-0.61,0.41-1.12C242.04,258.9,241.22,258.6,240.31,258.29z M241.97,260.14
		c-0.1-0.02,0.02-0.01,0.03,0C242.01,260.15,242.08,260.19,241.97,260.14z"/>
	<path d="M218.87,275.64c0.32-2,1.45-8.36-0.61-9.39c-1.25,1.25-1.4,0.17-0.2,8.57C218.06,275.03,218.36,275.13,218.87,275.64z"/>
	<path d="M287.36,62.64c2.21,0.28,2.87-2.66-0.61-2.25c-1.63,0.19-3.47-0.1-4.29,1.84C282.46,64.37,284.38,62.26,287.36,62.64z"/>
	<path d="M203.26,173.68c1.51-1.97,3.57-3.88,3.57-6.12C205.76,165.43,203.02,168.02,203.26,173.68z"/>
	<path d="M192.64,267.68c0.1-3.47-1.02-6.74-1.84-10.31c-2.47,1.33,0.71,4.79,0.71,9.08C191.52,267.07,191.83,267.68,192.64,267.68z
		"/>
	<path d="M445.15,415.16c9.54-3.18,22.71-11.86,0.92-1.12C445.66,414.24,444.94,414.35,445.15,415.16z"/>
	<path d="M548.64,275.85c-2.59,0,1.03,3.42,2.25,8.27C551.32,281.63,550.87,276.74,548.64,275.85z"/>
	<path d="M589.05,250.74c1.21-0.35,2.34,0.14,3.47-0.61c0.83-0.83,0.56-1.75-0.92-2.04c-3.81,0.85-4.64,0.77-5,1.94
		c-0.22,0.71-0.1,1.22,0.61,1.53C588.03,251.76,588.44,250.84,589.05,250.74z"/>
	<path d="M246.53,89.38c0-0.1-0.31-0.2-0.92-0.71c-1.09,3.04,0.23,4.57,0.92,5.61c0.41,0.51,0,1.53,0.92,1.74
		C248.59,93.25,248.2,95.63,246.53,89.38z"/>
	<path d="M251.43,268.09c-0.71,2.55,0.31,4.8,1.33,7.25C253.7,273.14,253.92,267.26,251.43,268.09z"/>
	<path d="M189.07,247.88c-1.3,2.78-0.2,6.75,1.12,8.16C190.5,252.17,190.09,249.82,189.07,247.88z"/>
	<path d="M276.95,270.34c0.51,3.47,3.06,5.51,4.8,8.06C280.11,273.3,278.99,271.46,276.95,270.34z"/>
	<path d="M167.74,320.35c-1.33,4.18-2.04,7.96-2.25,11.74c1.43-3.06,1.74-6.43,2.65-9.7C168.35,321.88,168.35,321.27,167.74,320.35z
		"/>
	<path d="M193.97,177.26C193.64,177.51,194.32,177.26,193.97,177.26L193.97,177.26z"/>
	<path d="M193.99,177.38c-0.47,0.09-0.87,0.19-1.35,0.39C190.67,185.64,195.49,185.66,193.99,177.38z"/>
	<path d="M188.15,246.04c0.48-1.56-0.49-0.38-0.92-7.65C184.55,241.07,186.02,245.59,188.15,246.04z"/>
	<path d="M261.43,371.89c0.1,2.65,1.63,4.9,2.76,7.14C264.19,376.98,263.24,370.98,261.43,371.89z"/>
	<path d="M326.14,312.69c-1.33,3.06-2.86,5.92-3.57,9.29C323.54,320.68,327.52,313.52,326.14,312.69z"/>
	<path d="M259.29,86.83c0.41,3.16,1.02,5.72,1.84,8.57C261.74,90.5,261.33,88.56,259.29,86.83z"/>
	<path d="M564.25,271.15c1.52,1.17,2.18,6.44,3.57,4.49C567.92,273.61,565.01,268.56,564.25,271.15z"/>
	<path d="M223.47,311.57c-1.43,3.27-2.14,6.74-2.45,10.21C224.62,312.63,223.47,310.57,223.47,311.57z"/>
	<path d="M276.74,135.41c0.41-2.96,0.1-3.67-2.25-7.25C275.21,132.86,275.62,134.08,276.74,135.41z"/>
	<path d="M680.09,536.31c2.37,0.79-1.4-3.8-5-3.98C677.14,534.68,678.16,535.5,680.09,536.31z"/>
	<path d="M588.95,396.38c-2.8-1.86-1.42,2.81,3.67,3.88C591.4,398.94,590.18,397.61,588.95,396.38z"/>
	<path d="M198.46,242.37c-2.16-2.52-2.69-4.18-5.21-4.18c0.31,2.14,2.55,2.65,3.78,4.08C197.34,242.57,197.75,243.09,198.46,242.37z
		"/>
	<path d="M566.6,277.38c0-0.13-1.1-0.34-0.71,0.92C569.41,289.82,568.9,281.4,566.6,277.38z"/>
	<path d="M597.22,419.76c-1.02,2.45-1.12,3.27-0.2,5.51C597.93,423.02,597.93,422.21,597.22,419.76z"/>
	<path d="M196.83,254.82c-0.2-1.53-0.51-3.06-0.71-4.59C194.61,255.5,197.77,262.15,196.83,254.82z"/>
	<path d="M260.65,81.1c0.02,0,0.04,0.01,0.07,0.01C260.6,80.99,260.6,80.97,260.65,81.1z"/>
	<path d="M259.92,80.32l-0.02-0.02C259.9,80.48,260.05,80.32,259.92,80.32z"/>
	<path d="M263.58,105.4c0.31-1.94-0.2-3.57-1.63-5.21C261.54,102.34,261.84,103.26,263.58,105.4z"/>
	<path d="M571.91,295.24c-1.53-5.82-2.86-5.52-2.86-4.59C569.36,292.99,570.17,294.32,571.91,295.24z"/>
	<path d="M194.68,286.56c0.51,2.35,0.92,4.29,2.14,6.33C197.03,289.63,196.83,288.81,194.68,286.56z"/>
	<path d="M196.73,163.48c-2.55-5.75-1.83-0.99-0.92,0.1c0.61,0.92,1.33,1.43,2.55,2.14C198.56,164.5,197.13,164.39,196.73,163.48z"
		/>
	<path d="M226.83,145.1c1.17,1.56,2.65-1.29,2.86-3.47C228.57,142.96,227.14,143.57,226.83,145.1z"/>
	<path d="M187.34,231.35c-1.82,1.09-1.41,4.06-0.92,6.12C186.83,234.92,187.54,233.19,187.34,231.35z"/>
	<path d="M215.1,110.4c2.35,0.2,2.65,0.2,4.9-0.92C217.24,109.08,217.24,109.08,215.1,110.4z"/>
	<path d="M252.55,264.01c-1.79-0.99-3-1.31-5.7-1.33C248.47,264.2,250.46,264.21,252.55,264.01z"/>
	<path d="M246.74,262.58l-0.1,0.1C246.97,262.68,246.86,262.71,246.74,262.58z"/>
	<path d="M557.72,521c1.74,0.51,3.27,0.2,5.31-0.92C560.68,519.68,559.25,520.59,557.72,521z"/>
	<path d="M191.11,301.47c-0.71,1.74-1.33,2.55-0.82,3.67C191.83,304.22,191.83,304.22,191.11,301.47z"/>
	<path d="M567.52,514.67c1.08-1.17,2.61-2.07,3.37-3.67C569,511.88,568.21,512.7,567.52,514.67z"/>
	<path d="M275.42,283.4c0.04,0.01,0.07,0.04,0.11,0.05C275.53,283.24,275.53,283.29,275.42,283.4z"/>
	<path d="M272.35,335.04c1.12,0.82,1.63,2.25,3.16,2.25C274.5,335.04,273.99,334.64,272.35,335.04z"/>
	<path d="M173.46,347.5c-1.26-1.06-2.42-2.21-3.58-3.29C170.41,345.97,171.52,347.11,173.46,347.5z"/>
	<path d="M169.78,343.92l-0.1,0.1C169.95,344.3,169.88,344.27,169.78,343.92z"/>
	<path d="M275.52,283.3c0.1-2.07-0.66-3.94-1.45-5.73C273.95,279.6,274.45,281.54,275.52,283.3z"/>
	<path d="M274.09,277.28l-0.1,0.1C274.11,277.63,274.05,277.67,274.09,277.28z"/>
	<path d="M208.46,159.19c1.22-0.82,1.94-1.84,1.84-3.27C208.46,157.35,208.46,157.35,208.46,159.19z"/>
	<path d="M188.87,199.3c0.46-1.85-1.07-1.18-1.22,2.04C188.56,200.73,188.76,200.01,188.87,199.3z"/>
	<path d="M595.08,473.65c0.41-2.55,0.41-2.55-0.92-4.08C594.26,470.99,594.57,472.22,595.08,473.65z"/>
	<path d="M196.01,199.91c0.22-1.01-0.24-3.23-0.92-3.57C194.48,197.57,194.48,197.57,196.01,199.91z"/>
	<path d="M594.36,407.51c-0.96,0.48-1.03-0.54,0.92,4.18C595.59,409.65,595.18,408.53,594.36,407.51z"/>
	<path d="M226.73,340.15c-0.06-0.03-0.11-0.07-0.16-0.11C226.65,340.3,226.6,340.28,226.73,340.15z"/>
	<path d="M226.57,340.03c-0.46-1.51-1.53-2.58-2.9-3.46C224.16,338.15,225.13,339.23,226.57,340.03z"/>
	<path d="M208.08,111.55c-0.01-0.01-0.02-0.01-0.03-0.02C207.95,111.63,207.88,111.7,208.08,111.55z"/>
	<path d="M211.22,111.32c-1.17-0.98-2.15-0.37-3.13,0.22c0.4,0.2,0.8,0.5,1.09,0.69C209.89,111.93,210.81,112.34,211.22,111.32z"/>
	<path d="M198.15,260.54c-0.1,2.14-0.1,2.14,1.94,4.18C199.99,263.09,198.77,262.17,198.15,260.54z"/>
	<path d="M670.19,529.17c-0.71-1.41-3.92-2.09-2.96-1.12C668.05,528.76,668.97,529.37,670.19,529.17z"/>
	<path d="M207.34,117.75c-0.1-0.31-0.41-0.61-1.02-0.31C206.32,121.01,207.81,121.95,207.34,117.75z"/>
	<path d="M203.26,231.04c-1.02,1.02-1.02,1.02-0.41,2.45C203.77,232.67,204.07,232.06,203.26,231.04z"/>
	<path d="M278.38,294.42c0.2,1.12,0.2,2.35,0.31,3.47C278.99,296.67,279.5,295.44,278.38,294.42z"/>
	<path d="M553.03,297.69c0.2-0.92,0.51-1.94-0.61-2.55C552.41,296.36,552.41,296.36,553.03,297.69z"/>
	<path d="M592.12,454.15c0.41-1.22,0.31-2.14,0.1-3.27C591.81,452.01,591.81,452.93,592.12,454.15z"/>
	<path d="M192.23,188.69c0.71-0.61,1.33-1.33,0.51-2.35C191.72,187.05,191.72,187.05,192.23,188.69z"/>
	<path d="M207.34,331.68c0.71,0.1,1.33-0.2,1.84-0.71C207.65,330.86,207.65,330.86,207.34,331.68z"/>
	<path d="M230.92,258.39c0.1-1.53,0.1-1.53-1.02-1.94C229.59,257.48,230.2,257.99,230.92,258.39z"/>
	<path d="M190.6,278.5c0.1,1.02,0.51,1.84,1.22,2.45C191.72,280.13,191.93,279.01,190.6,278.5z"/>
	<path d="M596.2,479.77c-0.1-0.92-0.2-1.94-0.2-2.96C595.59,477.83,595.59,478.85,596.2,479.77z"/>
	<path d="M193.77,284.52c-0.1-1.43-0.1-1.43-1.12-2.76C192.34,282.79,192.64,283.71,193.77,284.52z"/>
	<path d="M586.2,412.41c0.2-0.51-0.31-0.82-0.92-1.33C585.38,412.1,585.58,412.41,586.2,412.41z"/>
	<path d="M202.75,176.95c0.82-0.82,0.82-0.82,0.41-1.53C202.75,175.72,202.54,176.03,202.75,176.95z"/>
	<path d="M227.45,340.96l-0.1,0.1C227.47,341.13,227.45,341.19,227.45,340.96z"/>
	<path d="M210.91,276.77c0-1.02,0.1-1.74,0.1-2.55C210.5,274.93,210.2,275.64,210.91,276.77z"/>
	<path d="M264.33,295.68c-0.28-0.78-0.52-1.67-1.57-1.87C263.24,294.48,263.45,295.33,264.33,295.68z"/>
	<path d="M202.54,211.85c0.71-0.61,0.51-1.33,0.1-2.14C202.03,210.53,201.93,211.24,202.54,211.85z"/>
	<path d="M602.32,396.59c-0.51,0.31-0.92,0.71-0.51,1.43C602.22,397.61,602.83,397.3,602.32,396.59z"/>
	<path d="M277.66,291.46c0.1,0.98,0.02,1.95,0.72,2.75C278.43,293.25,278.7,292.22,277.66,291.46z"/>
	<path d="M278.38,294.42l0.1-0.1C278.37,294.21,278.38,294.11,278.38,294.42z"/>
	<path d="M269.6,264.11c-0.82,0.51-0.92,1.02-0.61,1.53C269.6,265.44,269.7,264.93,269.6,264.11z"/>
	<path d="M199.48,205.02c-0.31,0.82,0,1.22,0.82,1.33C200.5,205.53,200.4,205.02,199.48,205.02z"/>
	<path d="M576.85,504.38c-0.55,0.66-1.45,1.02-1.27,2.13C576.58,506.15,576.7,505.22,576.85,504.38z"/>
	<path d="M603.24,481.81c-0.31,0.31-0.2,0.61-0.1,0.92C603.45,482.52,603.34,482.22,603.24,481.81z"/>
	<path d="M449.64,457.11c0.1-0.61-0.2-0.92-0.71-1.02C448.92,456.5,448.92,457.01,449.64,457.11z"/>
	<path d="M195.3,328.41c0-0.31,0.29-0.04-0.1-0.82C195.09,327.9,194.89,328.21,195.3,328.41z"/>
	<path d="M190.7,326.88c-0.25-0.25-0.33-0.18-0.71,0.2C190.22,327.31,190.46,327.36,190.7,326.88z"/>
	<path d="M195.3,322.9c-0.51,0.31-0.31,0.82-0.1,1.22C195.6,323.71,195.6,323.31,195.3,322.9z"/>
	<path d="M247.35,101.28c-0.89,0.52-0.71,1.4-0.61,2.18C247.4,102.8,247.36,102.04,247.35,101.28z"/>
	<path d="M247.35,101.12c0,0.22-0.03,0.17,0.1,0.1L247.35,101.12z"/>
	<path d="M247.55,99.48c-0.31,0.61-0.2,1.22-0.1,1.74C247.86,100.71,248.17,100.2,247.55,99.48z"/>
	<path d="M563.64,308.71c-0.1-0.69,0.17-1.57-0.73-2.09C562.81,307.48,562.77,308.22,563.64,308.71z"/>
	<path d="M560.78,300.14c0.26,3.16,1.96,7.24,2.14,6.33C563.03,304.42,562.31,302.69,560.78,300.14z"/>
	<path d="M194.07,123.26c-0.51,0.51-0.92,1.02-0.1,1.84C193.97,124.39,194.07,123.77,194.07,123.26z"/>
	<path d="M224.08,309.94c-0.51,0.41-0.31,1.02-0.31,1.53C224.38,311.06,224.38,310.55,224.08,309.94z"/>
	<path d="M551.5,291.26c0.42-0.85,0.42-0.38,0-1.22C551.5,290.47,551.04,290.35,551.5,291.26z"/>
	<path d="M275.53,283.45c0.04,3.83,1.67,5.41,1.42,5.66C277.36,289.42,276.37,283.83,275.53,283.45z"/>
	<path d="M277.06,289.21c0.05,0.79-0.14,1.68,0.7,2.15C277.66,290.68,277.83,289.82,277.06,289.21z"/>
	<path d="M193.05,127.35c0-1.06-0.47,0.04-0.1,0.41C193.05,127.65,193.15,127.55,193.05,127.35z"/>
	<path d="M568.03,284.32c0.1,0.51,0.1,1.12,0.1,1.94C568.95,285.34,568.54,284.83,568.03,284.32z"/>
	<path d="M203.77,186.54c-0.53,0-0.65,0.48-0.31,0.71C203.67,187.05,203.97,186.95,203.77,186.54z"/>
	<path d="M190.6,192.87c-1.21,1.21,1.08,1.54,0.51,0.1C191.11,192.87,190.7,192.77,190.6,192.87z"/>
	<path d="M610.79,529.98c0.36-0.17,0.63-0.35,0.9-0.45C611.47,529.57,611.13,529.39,610.79,529.98z"/>
	<path d="M200.4,265.64c0.2-0.51,0.2-0.82-0.41-0.92C199.99,265.03,199.79,265.44,200.4,265.64z"/>
	<path d="M192.54,267.68c0,0.54,0.24,0.92,0.65,1.21C193.11,268.42,193.24,267.86,192.54,267.68z"/>
	<path d="M193.36,269.01c-0.06-0.04-0.1-0.08-0.16-0.11C193.23,269.17,193.25,269.11,193.36,269.01z"/>
	<path d="M193.48,269.44c0,0,0,0-0.02-0.02C193.5,269.51,193.5,269.49,193.48,269.44z"/>
	<path d="M193.48,269.44c-0.03-0.07-0.11-0.21-0.22-0.33C193.33,269.25,193.45,269.4,193.48,269.44z"/>
	<path d="M286.13,274.01c-0.2,0.61-0.1,0.92,0.51,1.02C286.54,274.72,286.74,274.21,286.13,274.01z"/>
	<path d="M266.45,120.7C265.77,120.42,265.47,120.45,266.45,120.7L266.45,120.7z"/>
	<path d="M267.45,120.92c-0.43-0.09-0.76-0.16-1.01-0.22c0.47,0.19,1.1,0.52,1.62,1.04C267.59,121.03,267.33,121.04,267.45,120.92z"
		/>
	<path d="M194.48,122.34c-0.41,0.2-0.2,0.61-0.31,1.02C194.48,123.16,194.68,122.86,194.48,122.34z"/>
	<path d="M252.87,264.21c0.06-0.01-0.13-0.1-0.42-0.1C252.67,264.18,252.82,264.2,252.87,264.21z"/>
	<path d="M563.64,542.74c0.31-0.1,0.71,0.1,1.02-0.41C564.15,542.03,563.85,542.33,563.64,542.74z"/>
	<path d="M204.89,133.47l-0.1,0.31C204.92,133.78,204.89,133.84,204.89,133.47z"/>
	<path d="M275.11,314.94c-0.1,0.31-0.2,0.51-0.31,0.82C274.91,315.55,275.21,315.45,275.11,314.94z"/>
	<path d="M274.6,317.08c0-0.61,0.1-0.92,0.1-1.33C274.4,316.06,274.09,316.26,274.6,317.08z"/>
	<path d="M197.85,202.67c-0.1,0-0.47,0.22,0.31,0.61C198.51,202.92,198.34,202.5,197.85,202.67z"/>
	<path d="M213.36,331.06l0.1-0.1C213.06,330.96,213.09,330.93,213.36,331.06z"/>
	<path d="M221.54,333.72c0.02,0.52,0.15,0.97,0.6,1.33C222.14,334.57,222.04,334.1,221.54,333.72z"/>
	<path d="M221.54,333.72c0-0.07-0.01-0.13-0.01-0.2C221.42,333.62,221.38,333.6,221.54,333.72z"/>
	<path d="M203.26,338.11c0.36-0.73,0.71-0.46,0-1.63C203.26,337.19,203.26,337.49,203.26,338.11z"/>
	<path d="M262.35,292.69c0.2,0.41,0.41,0.71,0.51,1.02C262.76,293.4,263.07,292.99,262.35,292.69z"/>
	<path d="M210.4,155.92c0.31-0.1,0.61-0.31,0.31-0.82C210.3,155.31,210.4,155.62,210.4,155.92z"/>
	<path d="M264.42,295.72c-0.12-0.04-0.11-0.1-0.03,0.13l0.05-0.05c0.01,0.01,0.02,0.03,0.03,0.03c-0.09,0.64-0.1,1.17,0.74,1.35
		c-0.09-0.48-0.3-0.96-0.73-1.36c0.01,0,0.01-0.01,0.01-0.05l0.02-0.02c0,0-0.01,0-0.01-0.01
		C264.5,295.64,264.55,295.61,264.42,295.72z"/>
	<path d="M265.72,298.81l0.1-0.1C265.67,298.63,265.76,298.59,265.72,298.81z"/>
	<path d="M265.11,297.28c0,0.57,0.1,1.05,0.62,1.37C265.79,298.09,265.66,297.56,265.11,297.28z"/>
	<path d="M596.2,493.85c-0.1,0.1-0.1,0.2-0.2,0.31C596.1,494.06,596.2,493.96,596.2,493.85z"/>
	<path d="M615.49,501.92l-0.1,0.2C615.51,502,615.49,502.05,615.49,501.92z"/>
	<path d="M268.27,121.94c-0.25-0.25-0.2-0.24-0.2-0.1L268.27,121.94z"/>
	<path d="M575.47,506.51c-0.51-0.04-0.7,0.24-0.7,0.71C575.24,507.22,575.44,506.95,575.47,506.51z"/>
	<path d="M575.48,506.41c0,0.04-0.01,0.06-0.01,0.1C575.62,506.51,575.6,506.53,575.48,506.41z"/>
	<path d="M567.42,514.57C567.21,514.88,567.52,514.67,567.42,514.57L567.42,514.57z"/>
	<path d="M574.15,507.94c-0.01-0.04,0-0.06-0.01-0.1C574.02,507.84,574.03,507.81,574.15,507.94z"/>
	<path d="M574.77,507.12c-0.47,0.09-0.67,0.29-0.62,0.71C574.58,507.88,574.77,507.59,574.77,507.12z"/>
	<path d="M573.95,507.94c-0.38,0-0.66,0.19-0.61,0.71C573.77,508.69,573.95,508.41,573.95,507.94z"/>
	<path d="M571.7,510.18c0.01,0.03,0,0.06,0,0.09C571.83,510.28,571.85,510.33,571.7,510.18z"/>
	<path d="M570.89,511c0.1-0.06,0.88-0.03,0.82-0.72C571.35,510.24,571.19,510.29,570.89,511z"/>
	<path d="M572.52,509.37c-0.47,0-0.66,0.27-0.62,0.7C572.26,510.04,572.52,509.84,572.52,509.37z"/>
	<path d="M571.81,510.08l0.1,0.1C571.87,510.02,571.96,510.08,571.81,510.08z"/>
	<path d="M572.62,509.47c0.38-0.09,0.57-0.29,0.6-0.71C572.79,508.72,572.53,509,572.62,509.47z"/>
	<path d="M573.22,508.75c0.12,0,0.11,0.02,0.11-0.1C573.23,508.65,573.22,508.65,573.22,508.75z"/>
	<path d="M266.03,120.41c-0.98-0.98-1.16-0.96-0.1,0.1L266.03,120.41z"/>
	<path d="M265.01,119.49c0.25,0.25,0.2,0.24,0.2,0.1L265.01,119.49z"/>
	<path d="M290.83,376.89c-0.1-0.1-0.31-0.2-0.51-0.31C290.42,376.69,290.21,377.3,290.83,376.89z"/>
	<path d="M563.54,308.81l0.2,0.1C563.61,308.66,563.67,308.68,563.54,308.81z"/>
	<path d="M266.33,299.02c-0.1-0.1-0.31-0.1-0.51-0.2C266.03,298.91,265.82,299.53,266.33,299.02z"/>
	<path d="M192.64,281.66c-0.18-0.28-0.38-0.46-0.77-0.57C191.99,281.43,192.19,281.66,192.64,281.66z"/>
	<path d="M191.72,281.05c0.06,0.01,0.1,0.03,0.15,0.04C191.81,280.91,191.86,280.92,191.72,281.05z"/>
	<path d="M286.54,275.13c0.1,0.1,0.2,0.2,0.2,0.2C286.74,275.23,286.74,275.13,286.54,275.13z"/>
	<path d="M458.11,408.22c-0.1-0.1-0.41,0.2-0.31,0.51C458.11,408.73,458.62,408.84,458.11,408.22z"/>
	<path d="M275.54,337.39c0.11,1.1,0.9-0.04,0.9,1.53C276.67,338.22,276.2,337.34,275.54,337.39c0,0-0.02-0.02-0.02-0.1l-0.1,0.1
		C275.51,337.37,275.54,337.39,275.54,337.39z"/>
	<path d="M167.43,340.86h-0.2C167.36,340.99,167.3,340.99,167.43,340.86z"/>
	<path d="M227.55,340.86c-0.05,0.02-0.08,0.01-0.13,0.02C227.45,340.99,227.43,340.98,227.55,340.86z"/>
	<path d="M227.42,340.88c-0.11-0.37-0.32-0.63-0.79-0.63C226.72,340.72,226.84,340.99,227.42,340.88z"/>
	<path d="M167.33,340.96C167.74,341.27,167.43,340.96,167.33,340.96L167.33,340.96z"/>
	<path d="M168.96,343.11c-0.1,0-0.2-0.1-0.31-0.1C168.66,343.11,168.76,343.11,168.96,343.11z"/>
	<path d="M169.52,343.78c-0.21-0.19-0.41-0.41-0.65-0.57C169.03,343.45,169.2,343.69,169.52,343.78z"/>
	<path d="M169.68,343.92c0.16-0.16,0.15-0.07-0.16-0.14C169.57,343.83,169.62,343.88,169.68,343.92z"/>
	<path d="M228.88,343.11c-0.14,0.14,0.26-1.15-1.43-1.99C227.41,342.43,228.97,343.48,228.88,343.11z"/>
	<path d="M228.92,343.23c0.11,0.35,0.33,0.59,0.78,0.59C229.51,343.55,229.31,343.29,228.92,343.23z"/>
	<path d="M223.77,336.47c-0.18-0.28-0.38-0.53-0.78-0.59C223.11,336.29,223.31,336.47,223.77,336.47z"/>
	<path d="M223,335.88c-0.04-0.14-0.05-0.12-0.17-0.21C222.85,335.85,222.83,335.88,223,335.88z"/>
	<path d="M222.04,335.15c0.35,0.17,0.54,0.35,0.79,0.52C222.74,335.31,222.47,335.15,222.04,335.15z"/>
	<path d="M229.59,343.92c0.1,0.1,0.2,0.1,0.31,0.2C229.79,344.03,229.69,343.92,229.59,343.92z"/>
	<path d="M174.07,348.31c-0.16-0.16-0.39-0.38-0.63-0.56C173.56,348.03,173.75,348.23,174.07,348.31z"/>
	<path d="M173.25,347.6c0.27,0.18,0.18,0.26,0.1-0.1L173.25,347.6z"/>
	<path d="M220.76,332.85c-0.18-0.18-0.19-0.24-0.05,0.05C222.22,334.41,220.92,332.69,220.76,332.85z"/>
	<path d="M596.1,479.87h0.2C596.17,479.74,596.23,479.74,596.1,479.87z"/>
	<path d="M275.01,264.11c-0.1,0.2-0.1,0.41-0.2,0.61C275.26,264.27,275.55,264.65,275.01,264.11z"/>
	<path d="M471.17,521.92c0-0.33,0.06-0.31-0.1-0.1L471.17,521.92z"/>
	<path d="M260.55,81.07c-0.44-0.09-0.61-0.54-0.61-0.69c-1.8-0.31-0.95,0.77-0.13,3.07c0.29,0.82,0.2,2.04,1.43,2.25
		C262.36,84.8,260.53,81.29,260.55,81.07z"/>
	<path d="M260.55,81.07c0.02,0,0.03,0.02,0.05,0.02C260.56,81.05,260.55,81.05,260.55,81.07z"/>
	<path d="M510.06,504.37c-2.12-1.06-10.09,2.94-16.94,3.98c-2.86,4.39-5,9.19-6.53,14.19c-7.92,2.56,1.61-1.44-9.39,2.96
		c1.93,0.23,6.66-1.47,8.27-1.12c0.01,0.01,0.46,0.56,1.11,1.2c0.27,0.26,2.48-9.61,7.87-16.11
		C496.03,509.2,510.28,506.13,510.06,504.37z"/>
	<path d="M482.72,411.18c-1,1,0.7,4.63,0.64,9.22c-0.03,2.56-1.17,4.79,0.89,6.5c0.41-1.06-0.18-1.69-0.51-2.76
		C486.39,420.15,484.61,413,482.72,411.18z"/>
	<path d="M466.17,430.27c-0.09-4,1.82-9.84-0.2-9.08c-1.46,1.67-0.61,7.56-1.74,12.25c-0.32,1.32,0.1,2.67,0.51,3.98
		C465.25,435.07,466.22,432.62,466.17,430.27z"/>
	<path d="M479.77,333.5c0.63,4.14,2.75,7.9,4.27,12.05c0.65-1.29-0.83-8.25-2.55-12.04C480.89,332.52,479.68,333.24,479.77,333.5z"
		/>
	<path d="M494.24,534.47c6.13,7.1,6.87,8.68,8.37,6.43c0.1-0.04,9.15-1.61,4.75-1.58c-2.37,0.01-4.52,0.88-6.89,0.36
		C492.11,531.32,494.14,534.42,494.24,534.47z"/>
	<path d="M490.36,361.58c0,3.88,1.63,7.25,1.84,10.82C492.68,369.03,493.75,361.24,490.36,361.58z"/>
	<path d="M467.31,452.43c0.02,0.01,0.05,0.03,0.11,0.06c0.11,0.05,0.1,0.05-0.03-0.07c-0.04,0-0.06,0-0.08,0
		c0.43-1.5-1.18-11.91-2.27-12.45c-0.8,0.8,1.19,10.67,1.29,10.95C466.88,452.51,467.19,452.85,467.31,452.43z"/>
	<path d="M472.6,429.45c0.21-2.1-0.36-3.94-1.53-5.41C470.19,423.16,470.18,426.22,472.6,429.45z"/>
	<path d="M472.96,430.85c0.42,0.87,1.01,1.71,1.48,2.79c0.16-1.7,0.19-2.06-0.01-2.59C473.9,429.66,471.7,428.23,472.96,430.85z"/>
	<path d="M468.11,454.46c0.2,2.86,0.2,2.86,1.63,4.8C469.44,457.42,469.13,456.09,468.11,454.46z"/>
	<path d="M460.86,451.6c0.95,2.24,0.16,3.13,1.43,5.1C461.95,452.53,462.29,451.74,460.86,451.6z"/>
	<path d="M482.5,405.47c-0.71,1.33-0.71,2.45,0,3.57C483.01,407.92,483.42,406.79,482.5,405.47z"/>
	<path d="M510.98,305.55c-1.28-1.46-1.32-1.5-2.65-0.48C508.22,305.15,510.12,305.86,510.98,305.55z"/>
	<path d="M523.32,351.99c-1.3-0.11-2.1-0.11-2.75-0.2C521.85,353.06,523.42,351.99,523.32,351.99z"/>
	<path d="M469.79,462.85c0,0.22,0.05,0.45,0.15,0.69C470.57,462.76,469.79,461.38,469.79,462.85z"/>
	<path d="M462.19,456.8c0.22,0.77,0.2,1.63,0.2,2.45C462.82,458.41,462.81,457.57,462.19,456.8z"/>
	<path d="M464.44,471.4c0,0.83-0.2,1.44,0.71,2.25C465.06,472.68,465.44,472.01,464.44,471.4z"/>
	<path d="M496.28,306.57c0.73,0,1.18-0.08,1.87-1.12C498.34,305.15,496.61,305.09,496.28,306.57z"/>
	<path d="M486.07,347.5c0.15-0.45-0.71-1.26-0.71-0.51C485.36,347.62,485.66,347.91,486.07,347.5z"/>
	<path d="M471.78,521.92c-0.1,0.31-0.61,0.51-0.1,1.12C471.68,522.94,471.78,521.95,471.78,521.92z"/>
	<path d="M488.36,527.48c0,0.02,0.26,0.64,0.27,0.65C489.17,529.42,488.64,527.82,488.36,527.48z"/>
	<path d="M488.36,527.48c-0.18-0.43-0.1-0.4-0.24-0.26C488.11,527.23,488.3,527.41,488.36,527.48z"/>
	<path d="M507.2,305.34c0.37,0.14,0.52-0.02,0.69-0.17C507.71,305.25,507.49,305.27,507.2,305.34z"/>
	<path d="M515.16,330.86l-0.1,0.2C515.32,331.06,515.29,331.12,515.16,330.86z"/>
	<path d="M488.63,381.89c-0.26,0.38-0.24,0.31-0.1,0.31C488.66,382.2,488.63,382.26,488.63,381.89z"/>
	<path d="M481.81,402.6c0.03-0.26-0.2-0.35-0.43-0.5C481.64,402.37,481.7,403.49,481.81,402.6z"/>
	<path d="M481.48,402.09c-0.11-0.23-0.23-0.66-0.31-0.91C480.92,401.69,481.12,402,481.48,402.09z"/>
	<path d="M488.09,527.04C488.23,527.15,488.27,527.16,488.09,527.04L488.09,527.04z"/>
	<path d="M487.4,526.31c-0.2,0.2-0.54-0.78-0.82-0.51c0,0,1.23,1.05,1.36,1.13c0.07,0.05,0.11,0.08,0.15,0.1
		C487.92,526.9,487.61,526.63,487.4,526.31z"/>
	<path d="M488.94,528.83c-0.01,0-0.02,0-0.03,0c0.11,0.06,0.28,0.17,0.52,0.38C489.31,529.03,489.07,528.87,488.94,528.83z"/>
	<path d="M488.91,528.83C488.65,528.69,488.69,528.81,488.91,528.83L488.91,528.83z"/>
	<path d="M489.47,529.32c0.07,0.17,0.47,0.34,0.17,0.05C489.36,529.17,489.43,529.16,489.47,529.32z"/>
	<path d="M489.78,529.5c0.03,0.03,0.55,0.55,0.58,0.58C490.28,529.76,490.06,529.58,489.78,529.5z"/>
	<path d="M490.95,530.78c0.28,0.06-0.08-0.44-0.4-0.54C490.21,530.15,490.63,530.7,490.95,530.78z"/>
	<path d="M490.26,530.19c0.04,0,0.06,0.01,0.15,0.03C490.36,530.01,490.41,530.11,490.26,530.19z"/>
	<path d="M491.07,530.9c0,0.25,0.26,0.61,0.69,0.61C491.96,531.51,491.76,530.9,491.07,530.9z"/>
	<path d="M491.99,531.51c-0.05,0.01-0.08,0-0.13,0C491.9,531.65,491.86,531.64,491.99,531.51z"/>
	<path d="M491.89,531.62c-0.02,0.02-0.09,0.09-0.1,0.1C491.95,531.68,491.89,531.8,491.89,531.62z"/>
	<path d="M492.43,532.31c0.3,0,0.01-0.62-0.53-0.6C491.93,532.1,492.15,532.28,492.43,532.31z"/>
	<path d="M493.22,533.05c0.04-0.43-0.24-0.61-0.71-0.61C492.63,532.93,492.89,533.08,493.22,533.05z"/>
	<path d="M493.32,533.05c-0.04,0.01-0.06,0-0.1,0C493.22,533.18,493.2,533.17,493.32,533.05z"/>
	<path d="M493.86,533.31c-0.14-0.14-0.38-0.16-0.54-0.16C493.32,534.05,494.47,533.85,493.86,533.31z"/>
	<path d="M494.03,533.76h-0.01C494.02,533.96,494.2,533.76,494.03,533.76z"/>
	<path d="M494.75,308c0,0.07-0.05,0.15-0.07,0.22C494.7,308.18,494.75,308.14,494.75,308z"/>
	<path d="M495.43,307.41c0.08-0.24-0.57-0.06-0.58,0.65C494.85,308.17,495.34,307.93,495.43,307.41z"/>
	<path d="M495.46,307.18c0,0.05-0.01,0.08-0.02,0.12C495.62,307.3,495.57,307.28,495.46,307.18z"/>
	<path d="M495.57,307.38c0.38-0.09,0.64-0.29,0.61-0.7C495.75,306.71,495.57,306.92,495.57,307.38z"/>
	<path d="M496.28,306.67c-0.12-0.12-0.1-0.13-0.1-0.01C496.18,306.69,496.24,306.67,496.28,306.67z"/>
	<path d="M531.21,337.5c-0.1,0.1-0.26,0.33,0.08-0.01C531.29,337.42,531.25,337.46,531.21,337.5z"/>
	<path d="M530.81,337.71c-0.25,0.04-0.19,0.2-0.03,0.4C531.14,337.39,530.97,337.67,530.81,337.71z"/>
	<path d="M503.05,354.57c0.15-0.27-0.25,0.18-0.16,0.14C503.04,354.63,503,354.67,503.05,354.57z"/>
	<path d="M567.54,365.64c2.24-4.11,2.73-5.74,2.53-8.75c-1.28,3.03-2.58,5.81-2.64,8.77c-0.26,0.09-0.66,0.53-1.24,1.44
		c-11.65,18.51-15.4,11.58-16.53,15C562.36,384.5,569.1,365.74,567.54,365.64z"/>
	<path d="M547.76,384.04c2.31-3.58,1.89-1.98-2.18-0.62c-1.66,0-16.32-3.18-4.56,0.48C542.7,384.43,546.8,385.52,547.76,384.04z"/>
	<path d="M523.22,372.3c-2.04-2.86-2.04-2.86-4.08-3.88C519.75,370.87,521.18,371.68,523.22,372.3z"/>
	<path d="M548.42,402.24c-0.42,1.32,2.31-2.04,3.38-5.35C549.99,398.58,549.09,400.16,548.42,402.24z"/>
	<path d="M510.57,382.71c0.13,1.16,0.46,1.78,1.63,2.14C512.36,383.45,511.51,381.53,510.57,382.71z"/>
	<path d="M546.05,406.14c-0.18,0.98,1.88-1.32,2.06-3.25C547.04,403.57,546.33,404.54,546.05,406.14z"/>
	<path d="M548.17,402.85c0.1,0.1,0.07,0.11,0.14-0.23C548.19,402.74,548.01,402.93,548.17,402.85z"/>
	<path d="M555.78,389.65c-0.99,1.41-1.74,1.98-1.74,3.57C555.68,391.48,555.68,391.48,555.78,389.65z"/>
	<path d="M553.84,393.25c-1.09,0.54-2.03,2.11-2.03,3.54C553.97,395.56,554.38,392.87,553.84,393.25z"/>
	<path d="M545.88,406.49l-0.1-0.1C545.73,406.66,545.72,406.58,545.88,406.49z"/>
	<path d="M522.01,408.63c-0.53,0.41-1.24,0.01-1.85,0.61C520.92,409.34,521.62,409.32,522.01,408.63z"/>
	<path d="M570.95,349.55c0.12-1.63-0.88-0.21-0.27,0.81C570.84,350.1,570.93,349.82,570.95,349.55z"/>
	<path d="M571.4,346.58c0.31-0.51,0.31-1.02,0-1.63C571.19,345.56,570.99,346.07,571.4,346.58z"/>
	<path d="M522.11,408.73c0.51-0.2,1.02-0.2,1.63-0.2C523,407.89,522.53,408.6,522.11,408.73z"/>
	<path d="M517.71,409.86c0.08,0,0.23,0,0.31,0C517.65,409.73,517.71,409.72,517.71,409.86z"/>
	<path d="M569.87,370.66c-0.06,0.18-0.41,0.78-0.41,0.82c0.88,2.31,2.63,1.76,1.76,1.7C570.84,373.18,571.81,371.46,569.87,370.66z"
		/>
	<path d="M548.13,460.17c0.44-2.81-0.44-5.12-2.41-6.85c-2.11-1.84-1.64-4.2-3.1-6.21c-2.94,0,1.45,5.42,1.74,7.76
		C545.58,456.35,546.29,458.74,548.13,460.17z"/>
	<path d="M511.21,462.71c-0.08,0.35,6.1-0.43,8.13-2.54C518.38,458.69,511.43,461.73,511.21,462.71z"/>
	<path d="M554.53,442.94c10.39-0.18-4.23-1.3-4.78-1.55C548.47,441.39,549.86,443.03,554.53,442.94z"/>
	<path d="M542.82,481.5c0-0.82-0.1-0.82-1.12-2.14c0,2.86,0,2.86,0.82,4.49C543.23,483.14,542.82,482.22,542.82,481.5z"/>
	<path d="M513.4,488.12c-0.01,0.28,0.03,0.58,0.13,0.94C515.83,485.74,513.5,485.72,513.4,488.12z"/>
	<path d="M537.1,442.21c0.12-1.32,0.06-1.38-0.92-2.55C536.29,440.78,535.98,441.7,537.1,442.21z"/>
	<path d="M502.98,463.9c-2.99,0.56-1.27,1.75,0.76,0.46C503.63,464.26,503.54,463.83,502.98,463.9z"/>
	<path d="M549.56,467.32c0,0.39-0.13,0.65,0.01,1.1C550.17,470.4,550.58,467.83,549.56,467.32z"/>
	<path d="M511.08,462.72c-0.2,0.2-0.41,0.2-0.82,0.31C510.77,463.23,510.87,462.93,511.08,462.72z"/>
	<path d="M494.82,466.85c0.21-0.06,0.18-0.14-0.17-0.14C494.51,466.84,494.6,466.9,494.82,466.85z"/>
	<path d="M549.66,467.22l-0.2-0.2C549.58,467.4,549.53,467.35,549.66,467.22z"/>
	<path d="M547.21,490.38c-0.13-0.07-0.27-0.1-0.41-0.14C546.94,490.35,546.99,490.51,547.21,490.38z"/>
	<path d="M546.8,490.25c-0.05-0.04-0.11-0.07-0.21-0.07C546.66,490.21,546.73,490.23,546.8,490.25z"/>
	<path d="M545.43,489.6C544.91,489.43,544.76,489.42,545.43,489.6L545.43,489.6z"/>
	<path d="M545.73,489.69c-0.12-0.03-0.21-0.06-0.3-0.08c0.23,0.08,0.52,0.18,0.85,0.31C546.19,489.83,545.85,489.72,545.73,489.69z"
		/>
	<path d="M546.28,489.9c0.42,0.25,0.22,0.35,0.42,0.17C546.54,490.02,546.38,490.01,546.28,489.9z"/>
	<path d="M510.84,575.96c2.74,2.28,5.77,1.38,8.4,1.48c1.43,0.82,2.65,1.74,4.08,1.12c1.01-1.3-0.45-1.43-2.04-1.43
		c0-0.1,1.41-3.43-1.53-3.06C519.65,574.1,509.29,574.92,510.84,575.96z"/>
	<path d="M521.18,592.04c5.49-5.16,13.28-2.46,12.21-4.44C532.15,585.29,517.8,589.89,521.18,592.04z"/>
	<path d="M437.8,533.76c0.51,0.2,1.12,0.41,1.84-0.2C438.72,533.25,438.21,532.84,437.8,533.76z"/>
	<path d="M241.83,237.57c5.46,6.63,2.23,11.58,2.74,13.72c0.94,2.82,3.6-1.81,0.84-10.76C243.94,235.79,239.98,236.34,241.83,237.57
		z"/>
	<path d="M273.07,247.47c0.1,2.35-0.71,4.69-0.31,7.45c1.95-2.07,1.71-9.58,0.86-12.3C271.94,237.24,272.84,242,273.07,247.47z"/>
	<path d="M281.44,167.76c-0.75-0.52-4.62-0.05,4.18,5.82C286.41,174.36,288.35,172.53,281.44,167.76z"/>
	<path d="M278.48,163.48c1.02-0.31,1.12-0.82,1.22-1.22C280.71,148.19,278.78,152.33,278.48,163.48z"/>
	<path d="M273.37,229.92c0.25-0.25,1.21-5.51,1.22-5.61C273.27,226.45,273.07,227.47,273.37,229.92z"/>
	<path d="M289.7,177.15c1.33,1.53,2.86,0.92,4.29,1.02C292.77,177.36,291.64,176.34,289.7,177.15z"/>
	<path d="M247.45,176.23c1.08,1.17,2.07,1.3,3.57,0.83C249.8,176.23,248.88,175.52,247.45,176.23z"/>
	<path d="M232.75,182.87c0.79,0.91,1.38,1.39,2.45,0.82C233.87,182.25,233.84,182.27,232.75,182.87z"/>
	<path d="M273.78,194.91c1.27-0.32,1.74-1.02,1.74-1.94C274.09,193.48,274.09,193.48,273.78,194.91z"/>
	<path d="M263.88,248.7c0,4.15,0.43,4.81,0.35,0.66C264.22,249.11,264.15,248.86,263.88,248.7z"/>
	<path d="M264.9,256.46c0-0.71,0-1.33,0-2.14C264.29,255.13,264.6,255.74,264.9,256.46z"/>
	<path d="M279.23,145.41c0-0.84,0-1.24-0.55-1.33C278.18,145.46,279.23,148.95,279.23,145.41z"/>
	<path d="M230.61,227.37c-0.1,1.12-0.1,1.12,0.61,1.22C231.22,228.08,231.12,227.57,230.61,227.37z"/>
	<path d="M239.69,185.52c0.62-0.25,0.98-0.61,0.61-1.22C240,184.71,239.39,184.91,239.69,185.52z"/>
	<path d="M252.76,216.86c0.49-0.74,0.37-0.54,0.2-1.53C252.54,216.37,252.42,216.17,252.76,216.86z"/>
	<path d="M237.94,183.1c-0.62,0.13-0.98,0.75-0.06,0.96C239.16,184.35,239.33,182.8,237.94,183.1z"/>
	<path d="M271.73,234.73c-0.19-0.04-0.05,0.02-0.3,0.5C271.73,235.52,271.99,234.73,271.73,234.73z"/>
	<path d="M258.07,247.17l0.1-0.31C258.03,246.86,258.07,246.8,258.07,247.17z"/>
	<path d="M257.25,244.82c0.07,0,0.13,0,0.2,0C257.45,244.41,257.51,244.43,257.25,244.82z"/>
	<path d="M256.53,242.68h0.2C256.61,242.29,256.67,242.27,256.53,242.68z"/>
	<path d="M258.88,249.21c0.14,0,0.12,0.06,0-0.31C258.76,249.27,258.75,249.21,258.88,249.21z"/>
	<path d="M227.24,225.12l0.31,0.1C227.55,224.96,227.63,224.99,227.24,225.12z"/>
	<path d="M226.73,199.43c0,0.43,0.6-0.25,0.6-0.93C227.4,197.87,226.74,198.55,226.73,199.43z"/>
	<path d="M278.78,199.5c0,0.37-0.02,0.37,0.05,0.15C278.9,199.46,278.92,199.5,278.78,199.5z"/>
	<path d="M226.52,199.57c-0.39,0.24-0.46,0.5-0.08,0.87C226.52,200.52,226.75,199.45,226.52,199.57z"/>
	<path d="M286.54,173.68l0.2,0.1C286.62,173.53,286.67,173.55,286.54,173.68z"/>
	<path d="M227.4,198.13c0.18-0.18,0.24-0.19-0.05-0.05C227.34,198.29,227.48,198.21,227.4,198.13z"/>
	<path d="M275.72,192.67c0,0-0.04,0.07-0.07,0.18C275.68,192.76,275.72,192.67,275.72,192.67z"/>
	<path d="M240.92,236.45c0.2,0,0.31,0.1,0.51,0.2C241.43,236.12,241.24,236.13,240.92,236.45z"/>
	<path d="M276.23,419.25c0.63,0.23,1.39-0.21,2.12-0.21c1.98-0.02,1.17,3.54,1.66,5.52c2.1,4.19,4.55,2.72,6.12,5.01
		c3.52,5.12,1.76-2.91-2.45-5.83c-2.17-1.5-1.84-0.65-1.84-5.41c5.72-3.57,9.26-8.27,7.55-17.96c-2.52,1.68-0.71,11.54-9.71,16.13
		C278.87,416.91,275.49,418.88,276.23,419.25z"/>
	<path d="M257.55,492.02c2.66-3.67,1.41-2.64,4.8-3.06c2.84-2.61,5.31-4.58,5.61-8.57C251.6,492.65,254.39,496.38,257.55,492.02z"/>
	<path d="M269.29,417.82c6.1-1.53,4.61,0-0.51-3.06c-3.25-1.95-5.05-2.98-5.61-0.92C264.6,415.98,267.15,416.69,269.29,417.82z"/>
	<path d="M269.8,435.88c-0.16-0.16-0.56-0.13-0.93-0.1c-0.6-0.66-0.3-0.1,0.01,1.01C270,440.81,279.62,443.86,269.8,435.88z"/>
	<path d="M281.23,430.27c-1.22,3.31-0.58,3.92,1.74,4.29C282.66,433.02,283.38,431.39,281.23,430.27z"/>
	<path d="M268.58,478.34c0.56-0.75,0.82-1.57,0.82-2.55C269.39,470.43,265.69,479.69,268.58,478.34z"/>
	<path d="M269.5,472.22c1.02-1.22,1.63-2.35,0.71-4.39C268.78,470.79,268.78,470.79,269.5,472.22z"/>
	<path d="M267.05,537.84c0.9-1.21,0.9-1.19,0.82-2.14C267.46,533.69,265.92,535.59,267.05,537.84z"/>
	<path d="M270.31,456.59c-0.09-1.02,0.17-1.98-0.61-2.95C268.28,455.52,270.31,457.19,270.31,456.59z"/>
	<path d="M270.21,461.91c-0.41,1.63-0.41,1.63,0.82,2.76C270.82,463.54,271.33,462.52,270.21,461.91z"/>
	<path d="M277.46,443.54c0.51,1.02,1.02,1.84,2.25,2.14C279.09,444.05,279.09,444.05,277.46,443.54z"/>
	<path d="M265.21,430.47c-0.61-1.43-1.02-2.45-2.35-2.76C263.07,428.94,263.58,429.86,265.21,430.47z"/>
	<path d="M256.94,399.14c0.41,0.7-0.21,1.52,1.33,1.63C257.96,400.06,258.07,399.55,256.94,399.14z"/>
	<path d="M290.73,397.61c0.1-0.61,0.61-1.12-0.31-1.84C290.11,396.49,289.4,397,290.73,397.61z"/>
	<path d="M267.56,531.62c0.37-0.37,0.51-0.77,0.28-1.23C267.49,529.71,267.04,530.97,267.56,531.62z"/>
	<path d="M260.62,408.43c0.17,0.27,0.31,0.6,0.31,0.92C261.34,408.83,261.35,408.54,260.62,408.43z"/>
	<path d="M260.47,407.79c-0.16-0.49-0.14,0.42,0.09,0.42C260.86,408.56,260.71,408.5,260.47,407.79z"/>
	<path d="M262.66,427.31c0.16,0.16,0.07,0.07,0.22,0.22C262.83,427.38,262.93,427.31,262.66,427.31z"/>
	<path d="M288.39,431.49c-0.1-0.04-0.18-0.09-0.29-0.09C288,431.4,288.26,431.75,288.39,431.49z"/>
	<path d="M220.71,405.67c-3.91,13.18,1.41,17.48,2.8,16.41c1.47-1.14-1.05-4.41-3.73-8.35
		C225.31,401.25,220.71,403.58,220.71,405.67z"/>
	<path d="M226.11,447.31c3.93,14.06,3.91-0.97-5.05-14.03C215.05,424.51,224.4,441.2,226.11,447.31z"/>
	<path d="M201.93,479.56c2.01-3.42,3.4-13.18,3.06-15.21C202.39,464.55,200.83,474.43,201.93,479.56z"/>
	<path d="M235.31,388.32c-0.78-1.57-0.36-2.39-4.59,1.84c-4.75,3.96-4.9,3.78-4.69,4.8C230,393.73,233.77,392.3,235.31,388.32z"/>
	<path d="M241.19,404.69c-1.72-3.42-1.86-2.99-1.45-0.03C241.25,415.41,245.4,413.08,241.19,404.69z"/>
	<path d="M217.44,426.59c-1.02-2.04-1.33-4.18-1.12-6.43c0.86-5.85-3.4,0.85-1.02,5.61C216.76,428.7,218.69,429.09,217.44,426.59z"
		/>
	<path d="M232.65,424.45c2.04,1.96,4.36,2.76,7.14,2.86c-0.17-0.65-0.55-1.05-1.58-1.2c-1.87-0.4-0.53-1.23-1.79-2.06
		C234.98,423.51,233.96,423.48,232.65,424.45z"/>
	<path d="M214.08,526.92c0,0.85-0.11,1.46,0.92,2.04C216.15,524.18,214.08,516.65,214.08,526.92z"/>
	<path d="M199.48,505.79c1.45-2.14,1.2-3.62,0-5.82C199.48,502.02,199.48,503.65,199.48,505.79z"/>
	<path d="M208.7,446.98c-0.75,2.05-1.59,3.49-1.26,5.85C209.98,449.38,209.91,444.95,208.7,446.98z"/>
	<path d="M237.86,389.24c-0.41,1.84-0.51,1.84,0.61,3.47C238.67,390.57,238.67,390.57,237.86,389.24z"/>
	<path d="M224.59,426.9c-0.31,1.02,0.41,1.53,1.12,2.65C225.61,427.51,225.61,427.51,224.59,426.9z"/>
	<path d="M212.7,438.29c-0.84-0.85-1.51-1.69-1.99-0.57C212.76,439.77,214.17,439.79,212.7,438.29z"/>
	<path d="M238.16,396.59c-0.52,2.02,0.41,2.83,0.41,1.04C238.57,397.27,238.76,396.79,238.16,396.59z"/>
	<path d="M200.4,494.67c0.34-0.21,0.73-0.55,0.79-0.94C201.35,492.61,199.88,492.78,200.4,494.67z"/>
	<path d="M201.41,482.52c0.13,1.95,1.4-0.24,0.42-1.22C201.58,481.67,201.38,482.08,201.41,482.52z"/>
	<path d="M215.96,395.79c0.48,0.01,0.15,0.53,0.93,1.02c2.67,1.33,7.22,1.68,5.93,0.39c-0.71-0.13-7.01-1.42-6.5-1.42
		c-0.36-0.98-0.87-1.39-1.93-1.22C214.73,395.42,215.24,395.78,215.96,395.79z"/>
	<path d="M217.24,442.71c0.58,0.48,0.62,1.05,1.22,1.11C218.62,443.82,218.63,442.71,217.24,442.71z"/>
	<path d="M219.28,445.5c-0.19-0.06,0.01,0.71,0.07,0.84C219.95,447.61,220.48,445.71,219.28,445.5z"/>
	<path d="M220.1,446.8c-0.04,0-0.06-0.02-0.1-0.02C220,446.94,219.96,446.94,220.1,446.8z"/>
	<path d="M219.18,445.48l0.1-0.1C219.15,445.33,219.23,445.28,219.18,445.48z"/>
	<path d="M219.2,445.33c0.09-0.67-0.07-1.22-0.73-1.39C218.78,445.55,219.2,445.16,219.2,445.33z"/>
	<path d="M220,446.9c0,0.43-0.02,0.89,0.51,1.02C220.69,447.34,220.61,447.01,220,446.9z"/>
	<path d="M228.28,428.67c-0.52,0.27,0.91,0.38,0.59-0.09C228.56,428.16,228.82,428.39,228.28,428.67z"/>
	<path d="M203.97,440.37c0.1-0.1,0.1-0.31,0.1-0.51C204.07,439.96,204.07,440.17,203.97,440.37z"/>
	<path d="M216.02,540.7c-0.1,0.1-0.1,0.31-0.1,0.51C215.91,541.01,215.91,540.9,216.02,540.7z"/>
	<path d="M217.65,428.43l0.31,0.1C217.71,428.28,217.78,428.3,217.65,428.43z"/>
	<path d="M213.97,440.17c-0.07-0.11-0.38-0.49-0.71-0.71C213.46,439.66,213.77,439.96,213.97,440.17z"/>
	<path d="M214.18,440.37l-0.1-0.2C213.94,440.17,213.92,440.12,214.18,440.37z"/>
	<path d="M207.24,453.03c0.1,0,0.1-0.2,0.1-0.31C207.14,452.93,207.03,453.03,207.24,453.03z"/>
	<path d="M249.59,580.4c-0.15,0-0.2-0.03-0.19-0.08c0.28-0.7-0.72-2-1.54-1.76c-4.95,3.47-1.21,1.44,0.41,3.47
		c0.51,0.8,1.85,0.6,2.76,0.31C253.34,581.58,248.57,579.37,249.59,580.4z"/>
	<path d="M225.1,568.46c0-0.1,0.1-0.1,0-0.2C225.1,568.36,225.1,568.46,225.1,568.46z"/>
<path fill="#e6e6e6" d="m206.8 163.6c0-5.1 4.1-9.2 9.3-9.2s9.2 4.2 9.2 9.2-4.1 9.2-9.3 9.2-9.2-4.1-9.2-9.2zm17.3-.1c0-4.5-3.5-8.2-8.2-8.2s-8.2 3.7-8.2 8.3c0 4.5 3.5 8.2 8.2 8.2s8.2-3.7 8.2-8.3zm-13 0c0-2.8 2.1-5.1 5.1-5.1 1.9 0 2.9.6 3.9 1.5l-1.4 1.7c-.8-.7-1.5-1.1-2.5-1.1-1.7 0-2.8 1.4-2.8 3.1s1.1 3 2.8 3c1.1 0 1.7-.5 2.5-1.1l1.4 1.4c-1.1 1.1-2.1 1.7-4 1.7-2.9 0-5-2.3-5-5.1z"/><path fill="#e6e6e6" d="m226.6 154.7h3.4l4.2 13.2 4.4-13.3h2.6l4.4 13.3 4.2-13.2h3.3l-6.2 18h-2.7l-4.4-12.8-4.4 12.8h-2.7z"/><path fill="#e6e6e6" d="m252.8 165.8c0-3.9 3.1-7 7.2-7 4.2 0 7.2 3.2 7.2 7s-3.1 7-7.3 7c-4 0-7.1-3.1-7.1-7zm11.3 0c0-2.3-1.7-4.3-4.2-4.3s-4.1 2-4.1 4.3 1.7 4.3 4.1 4.3c2.7.1 4.2-1.9 4.2-4.3z"/><path fill="#e6e6e6" d="m269.5 159.1h3.1v3c.8-2 2.4-3.4 4.8-3.3v3.2h-.2c-2.7 0-4.6 1.7-4.6 5.4v5.1h-3.1z"/><path fill="#e6e6e6" d="m279.1 153.9h3.1v11.1l5.6-6h3.8l-5.4 5.5 5.5 8h-3.5l-4.1-5.8-1.9 2v3.9h-3.1z"/><path fill="#e6e6e6" d="m291.7 165.8c0-3.9 3.1-7 7.2-7 4.2 0 7.2 3.2 7.2 7s-3.1 7-7.3 7c-4 0-7.1-3.1-7.1-7zm11.3 0c0-2.3-1.7-4.3-4.2-4.3s-4.1 2-4.1 4.3 1.7 4.3 4.1 4.3c2.6.1 4.2-1.9 4.2-4.3z"/><path fill="#e6e6e6" d="m308.2 167.6v-8.6h3.1v7.6c0 2.1 1.1 3.3 2.9 3.3s3-1.3 3-3.3v-7.6h3.1v13.4h-3.1v-2.1c-.8 1.3-2.1 2.3-4.2 2.3-3.1.2-4.8-1.8-4.8-5z"/><path fill="#e6e6e6" d="m323.9 168.8v-7.1h-1.7v-2.6h1.7v-3.7h3.1v3.7h3.6v2.6h-3.6v6.6c0 1.2.6 1.7 1.7 1.7.7 0 1.3-.2 1.9-.5v2.5c-.8.5-1.7.7-2.8.7-2.3 0-3.9-.9-3.9-3.9z"/><path fill="#e6e6e6" d="m333.2 154.7h3.2v15h9.4v2.9h-12.5v-17.9z"/><path fill="#e6e6e6" d="m356 172.5v-1.7c-.9 1.1-2.3 2-4.4 2-2.6 0-4.8-1.4-4.8-4.2 0-3 2.3-4.4 5.4-4.4 1.7 0 2.6.2 3.7.5v-.2c0-1.9-1.2-2.9-3.3-2.9-1.5 0-2.6.3-3.9.8l-.8-2.5c1.5-.7 2.9-1.1 5.1-1.1 4 0 5.9 2.1 5.9 5.7v8zm.1-5.6c-.8-.3-1.9-.5-3.1-.5-2 0-3.1.8-3.1 2.1s1.1 2 2.6 2c2 0 3.5-1.1 3.5-2.9z"/><path fill="#e6e6e6" d="m364.9 170.5v2.1h-3.1v-18.7h3.1v7.4c1-1.4 2.4-2.5 4.5-2.5 3.2 0 6.3 2.5 6.3 7s-3.1 7-6.3 7c-2.1 0-3.5-1.1-4.5-2.3zm7.7-4.7c0-2.6-1.7-4.3-3.9-4.3s-3.9 1.7-3.9 4.4c0 2.6 1.8 4.3 3.9 4.3s3.9-1.7 3.9-4.4z"/><path fill="#e6e6e6" d="m376.9 170.8 1.4-2.1c1.4 1.1 3 1.7 4.4 1.7s2.1-.5 2.1-1.5-1.3-1.4-2.8-1.8c-.1 0-.2-.1-.2-.1-2-.6-4.2-1.4-4.2-4s2.1-4.1 4.8-4.1c1.7 0 3.5.6 5 1.5l-1.2 2.2c-1.3-.8-2.6-1.3-3.8-1.3s-1.9.5-1.9 1.4 1.3 1.4 2.8 1.8c.1 0 .2.1.2.1 2 .6 4.2 1.5 4.2 4 0 2.9-2.2 4.2-5 4.2-1.9 0-4-.7-5.8-2z"/><path fill="#e6e6e6" d="m505.6 163.6c0-5.1 4.1-9.2 9.3-9.2s9.2 4.2 9.2 9.2-4.1 9.2-9.3 9.2-9.2-4.1-9.2-9.2zm17.4-.1c0-4.5-3.5-8.2-8.2-8.2s-8.2 3.7-8.2 8.3c0 4.5 3.5 8.2 8.2 8.2s8.2-3.7 8.2-8.3zm-13.1 0c0-2.8 2.1-5.1 5.1-5.1 1.9 0 2.9.6 3.9 1.5l-1.4 1.7c-.8-.7-1.5-1.1-2.5-1.1-1.7 0-2.8 1.4-2.8 3.1s1.1 3 2.8 3c1.1 0 1.7-.5 2.5-1.1l1.4 1.4c-1.1 1.1-2.1 1.7-4 1.7-2.9 0-5-2.3-5-5.1z"/><path fill="#e6e6e6" d="m525.4 154.7h3.4l4.2 13.2 4.4-13.3h2.6l4.4 13.3 4.2-13.2h3.3l-6.2 18h-2.7l-4.4-12.8-4.4 12.8h-2.7z"/><path fill="#e6e6e6" d="m551.7 165.8c0-3.9 3.1-7 7.2-7 4.2 0 7.2 3.2 7.2 7s-3.1 7-7.3 7c-4.1 0-7.1-3.1-7.1-7zm11.2 0c0-2.3-1.7-4.3-4.2-4.3s-4.1 2-4.1 4.3 1.7 4.3 4.1 4.3c2.7.1 4.2-1.9 4.2-4.3z"/><path fill="#e6e6e6" d="m568.3 159.1h3.1v3c.8-2 2.4-3.4 4.8-3.3v3.2h-.2c-2.7 0-4.6 1.7-4.6 5.4v5.1h-3.1z"/><path fill="#e6e6e6" d="m577.9 153.9h3.1v11.1l5.6-6h3.8l-5.4 5.5 5.5 8h-3.5l-4.1-5.8-1.9 2v3.9h-3.1z"/><path fill="#e6e6e6" d="m590.6 165.8c0-3.9 3.1-7 7.2-7 4.2 0 7.2 3.2 7.2 7s-3.1 7-7.3 7c-4.1 0-7.1-3.1-7.1-7zm11.2 0c0-2.3-1.7-4.3-4.2-4.3s-4.1 2-4.1 4.3 1.7 4.3 4.1 4.3c2.6.1 4.2-1.9 4.2-4.3z"/><path fill="#e6e6e6" d="m607 167.6v-8.6h3.1v7.6c0 2.1 1.1 3.3 2.9 3.3s3-1.3 3-3.3v-7.6h3.1v13.4h-3.1v-2.1c-.8 1.3-2.1 2.3-4.2 2.3-3 .2-4.8-1.8-4.8-5z"/><path fill="#e6e6e6" d="m622.7 168.8v-7.1h-1.7v-2.6h1.7v-3.7h3.1v3.7h3.6v2.6h-3.6v6.6c0 1.2.6 1.7 1.7 1.7.7 0 1.3-.2 1.9-.5v2.5c-.8.5-1.7.7-2.8.7-2.3 0-3.9-.9-3.9-3.9z"/><path fill="#e6e6e6" d="m632 154.7h3.2v15h9.4v2.9h-12.6z"/><path fill="#e6e6e6" d="m654.8 172.5v-1.7c-.9 1.1-2.3 2-4.4 2-2.6 0-4.8-1.4-4.8-4.2 0-3 2.3-4.4 5.4-4.4 1.7 0 2.6.2 3.7.5v-.2c0-1.9-1.2-2.9-3.3-2.9-1.5 0-2.6.3-3.9.8l-.8-2.5c1.5-.7 2.9-1.1 5.1-1.1 4 0 5.9 2.1 5.9 5.7v8zm.1-5.6c-.8-.3-1.9-.5-3.1-.5-2 0-3.1.8-3.1 2.1s1.1 2 2.6 2c2 0 3.5-1.1 3.5-2.9z"/><path fill="#e6e6e6" d="m663.7 170.5v2.1h-3.1v-18.7h3.1v7.4c1-1.4 2.4-2.5 4.5-2.5 3.2 0 6.3 2.5 6.3 7s-3.1 7-6.3 7c-2.1 0-3.5-1.1-4.5-2.3zm7.8-4.7c0-2.6-1.7-4.3-3.9-4.3-2.1 0-3.9 1.7-3.9 4.4 0 2.6 1.8 4.3 3.9 4.3s3.9-1.7 3.9-4.4z"/><path fill="#e6e6e6" d="m675.8 170.8 1.4-2.1c1.4 1.1 3 1.7 4.4 1.7s2.1-.5 2.1-1.5-1.3-1.4-2.8-1.8c-.1 0-.2-.1-.2-.1-2-.6-4.2-1.4-4.2-4s2.1-4.1 4.8-4.1c1.7 0 3.5.6 5 1.5l-1.2 2.2c-1.3-.8-2.6-1.3-3.8-1.3s-1.9.5-1.9 1.4 1.3 1.4 2.8 1.8c.1 0 .2.1.2.1 2 .6 4.2 1.5 4.2 4 0 2.9-2.2 4.2-5 4.2-2 0-4.1-.7-5.8-2z"/><path fill="#e6e6e6" d="m61 298.6c0-5.1 4.1-9.2 9.3-9.2s9.2 4.2 9.2 9.2-4.1 9.2-9.3 9.2c-5.1 0-9.2-4.2-9.2-9.2zm17.4-.1c0-4.5-3.5-8.2-8.2-8.2s-8.2 3.7-8.2 8.3c0 4.5 3.5 8.2 8.2 8.2s8.2-3.7 8.2-8.3zm-13.1-.1c0-2.8 2.1-5.1 5.1-5.1 1.9 0 2.9.6 3.9 1.5l-1.4 1.7c-.8-.7-1.5-1.1-2.5-1.1-1.7 0-2.8 1.4-2.8 3.1s1.1 3 2.8 3c1.1 0 1.7-.5 2.5-1.1l1.4 1.4c-1.1 1.1-2.1 1.7-4 1.7-2.8.1-5-2.2-5-5.1z"/><path fill="#e6e6e6" d="m80.9 289.7h3.4l4.2 13.2 4.4-13.3h2.6l4.4 13.3 4.2-13.2h3.3l-6.2 18h-2.7l-4.4-12.8-4.4 12.8h-2.7z"/><path fill="#e6e6e6" d="m107.1 300.8c0-3.9 3.1-7 7.2-7s7.2 3.2 7.2 7-3.1 7-7.3 7c-4 0-7.1-3.1-7.1-7zm11.3 0c0-2.3-1.7-4.3-4.2-4.3s-4.1 2-4.1 4.3 1.7 4.3 4.1 4.3c2.6.1 4.2-1.9 4.2-4.3z"/><path fill="#e6e6e6" d="m123.7 294h3.1v3c.8-2 2.4-3.4 4.8-3.3v3.2h-.2c-2.7 0-4.6 1.7-4.6 5.4v5.1h-3.1z"/><path fill="#e6e6e6" d="m133.4 288.9h3.1v11.1l5.6-6h3.8l-5.4 5.5 5.5 8h-3.5l-4.1-5.8-1.9 1.9v3.9h-3.1z"/><path fill="#e6e6e6" d="m146 300.8c0-3.9 3.1-7 7.2-7s7.2 3.2 7.2 7-3.1 7-7.3 7c-4.1 0-7.1-3.1-7.1-7zm11.2 0c0-2.3-1.7-4.3-4.2-4.3s-4.1 2-4.1 4.3 1.7 4.3 4.1 4.3c2.6.1 4.2-1.9 4.2-4.3z"/><path fill="#e6e6e6" d="m162.4 302.6v-8.6h3.1v7.6c0 2.1 1.1 3.3 2.9 3.3s3-1.3 3-3.3v-7.6h3.1v13.4h-3.1v-2.1c-.8 1.3-2.1 2.3-4.2 2.3-3 .2-4.8-1.8-4.8-5z"/><path fill="#e6e6e6" d="m178.1 303.8v-7.1h-1.7v-2.7h1.7v-3.7h3.1v3.7h3.6v2.6h-3.6v6.6c0 1.2.6 1.7 1.7 1.7.7 0 1.3-.2 1.9-.5v2.5c-.8.5-1.7.7-2.8.7-2.3.1-3.9-.9-3.9-3.8z"/><path fill="#e6e6e6" d="m187.4 289.7h3.2v15h9.4v2.9h-12.5v-17.9z"/><path fill="#e6e6e6" d="m210.2 307.5v-1.7c-.9 1.1-2.3 2-4.4 2-2.6 0-4.8-1.4-4.8-4.2 0-3 2.3-4.4 5.4-4.4 1.7 0 2.6.2 3.7.5v-.2c0-1.9-1.2-2.9-3.3-2.9-1.5 0-2.6.3-3.9.8l-.8-2.5c1.5-.7 2.9-1.1 5.1-1.1 4 0 5.9 2.1 5.9 5.7v8zm.1-5.6c-.8-.3-1.9-.5-3.1-.5-2 0-3.1.8-3.1 2.1s1.1 2 2.6 2c2 0 3.5-1.1 3.5-2.9z"/><path fill="#e6e6e6" d="m219.2 305.5v2.1h-3.1v-18.7h3.1v7.4c1-1.4 2.4-2.5 4.5-2.5 3.2 0 6.3 2.5 6.3 7s-3.1 7-6.3 7c-2.2 0-3.6-1.1-4.5-2.3zm7.7-4.7c0-2.6-1.7-4.3-3.9-4.3s-3.9 1.7-3.9 4.4c0 2.6 1.8 4.3 3.9 4.3s3.9-1.7 3.9-4.4z"/><path fill="#e6e6e6" d="m231.2 305.8 1.4-2.1c1.4 1.1 3 1.7 4.4 1.7s2.1-.5 2.1-1.5-1.3-1.4-2.8-1.8c-.1 0-.2-.1-.2-.1-2-.6-4.2-1.4-4.2-4s2.1-4.1 4.8-4.1c1.7 0 3.5.6 5 1.5l-1.2 2.2c-1.3-.8-2.6-1.3-3.8-1.3s-1.9.5-1.9 1.4 1.3 1.4 2.8 1.8c.1 0 .2.1.2.1 2 .6 4.2 1.5 4.2 4 0 2.9-2.2 4.2-5 4.2-2 0-4.1-.7-5.8-2z"/><path fill="#e6e6e6" d="m360.6 298.6c0-5.1 4.1-9.2 9.3-9.2s9.2 4.2 9.2 9.2-4.1 9.2-9.3 9.2-9.2-4.2-9.2-9.2zm17.4-.1c0-4.5-3.5-8.2-8.2-8.2s-8.2 3.7-8.2 8.3c0 4.5 3.5 8.2 8.2 8.2s8.2-3.7 8.2-8.3zm-13.1-.1c0-2.8 2.1-5.1 5.1-5.1 1.9 0 2.9.6 3.9 1.5l-1.4 1.7c-.8-.7-1.5-1.1-2.5-1.1-1.7 0-2.8 1.4-2.8 3.1s1.1 3 2.8 3c1.1 0 1.7-.5 2.5-1.1l1.4 1.4c-1.1 1.1-2.1 1.7-4 1.7-2.8.1-5-2.2-5-5.1z"/><path fill="#e6e6e6" d="m380.5 289.7h3.4l4.2 13.2 4.4-13.3h2.6l4.4 13.3 4.2-13.2h3.3l-6.2 18h-2.7l-4.4-12.8-4.4 12.8h-2.7z"/><path fill="#e6e6e6" d="m406.7 300.8c0-3.9 3.1-7 7.2-7 4.2 0 7.2 3.2 7.2 7s-3.1 7-7.3 7c-4.1 0-7.1-3.1-7.1-7zm11.3 0c0-2.3-1.7-4.3-4.2-4.3s-4.1 2-4.1 4.3 1.7 4.3 4.1 4.3c2.7.1 4.2-1.9 4.2-4.3z"/><path fill="#e6e6e6" d="m423.3 294h3.1v3c.8-2 2.4-3.4 4.8-3.3v3.2h-.2c-2.7 0-4.6 1.7-4.6 5.4v5.1h-3.1z"/><path fill="#e6e6e6" d="m433 288.9h3.1v11.1l5.6-6h3.8l-5.4 5.5 5.5 8h-3.5l-4.1-5.8-1.9 2v3.9h-3.1z"/><path fill="#e6e6e6" d="m445.6 300.8c0-3.9 3.1-7 7.2-7 4.2 0 7.2 3.2 7.2 7s-3.1 7-7.3 7c-4.1 0-7.1-3.1-7.1-7zm11.3 0c0-2.3-1.7-4.3-4.2-4.3s-4.1 2-4.1 4.3 1.7 4.3 4.1 4.3c2.6.1 4.2-1.9 4.2-4.3z"/><path fill="#e6e6e6" d="m462.1 302.6v-8.6h3.1v7.6c0 2.1 1.1 3.3 2.9 3.3s3-1.3 3-3.3v-7.6h3.1v13.4h-3.1v-2.1c-.8 1.3-2.1 2.3-4.2 2.3-3.1.2-4.8-1.8-4.8-5z"/><path fill="#e6e6e6" d="m477.8 303.8v-7.1h-1.8v-2.7h1.7v-3.7h3.1v3.7h3.6v2.6h-3.6v6.6c0 1.2.6 1.7 1.7 1.7.7 0 1.3-.2 1.9-.5v2.5c-.8.5-1.7.7-2.8.7-2.2.1-3.8-.9-3.8-3.8z"/><path fill="#e6e6e6" d="m487.1 289.7h3.2v15h9.4v2.9h-12.5v-17.9z"/><path fill="#e6e6e6" d="m509.9 307.5v-1.7c-.9 1.1-2.3 2-4.4 2-2.6 0-4.8-1.4-4.8-4.2 0-3 2.3-4.4 5.4-4.4 1.7 0 2.6.2 3.7.5v-.2c0-1.9-1.2-2.9-3.3-2.9-1.5 0-2.6.3-3.9.8l-.8-2.5c1.5-.7 2.9-1.1 5.1-1.1 4 0 5.9 2.1 5.9 5.7v8zm.1-5.6c-.8-.3-1.9-.5-3.1-.5-2 0-3.1.8-3.1 2.1s1.1 2 2.6 2c2 0 3.5-1.1 3.5-2.9z"/><path fill="#e6e6e6" d="m518.8 305.5v2.1h-3.1v-18.7h3.1v7.4c1-1.4 2.4-2.5 4.5-2.5 3.2 0 6.3 2.5 6.3 7s-3.1 7-6.3 7c-2.2 0-3.5-1.1-4.5-2.3zm7.7-4.7c0-2.6-1.7-4.3-3.9-4.3s-3.9 1.7-3.9 4.4c0 2.6 1.8 4.3 3.9 4.3s3.9-1.7 3.9-4.4z"/><path fill="#e6e6e6" d="m530.8 305.8 1.4-2.1c1.4 1.1 3 1.7 4.4 1.7s2.1-.5 2.1-1.5-1.3-1.4-2.8-1.8c-.1 0-.2-.1-.2-.1-2-.6-4.2-1.4-4.2-4s2.1-4.1 4.8-4.1c1.7 0 3.5.6 5 1.5l-1.2 2.2c-1.3-.8-2.6-1.3-3.8-1.3s-1.9.5-1.9 1.4 1.3 1.4 2.8 1.8c.1 0 .2.1.2.1 2 .6 4.2 1.5 4.2 4 0 2.9-2.2 4.2-5 4.2-1.9 0-4.1-.7-5.8-2z"/><path fill="#e6e6e6" d="m659.5 298.6c0-5.1 4.1-9.2 9.3-9.2s9.2 4.2 9.2 9.2-4.1 9.2-9.3 9.2-9.2-4.2-9.2-9.2zm17.3-.1c0-4.5-3.5-8.2-8.2-8.2s-8.2 3.7-8.2 8.3c0 4.5 3.5 8.2 8.2 8.2 4.8 0 8.2-3.7 8.2-8.3zm-13-.1c0-2.8 2.1-5.1 5.1-5.1 1.9 0 2.9.6 3.9 1.5l-1.4 1.7c-.8-.7-1.5-1.1-2.5-1.1-1.7 0-2.8 1.4-2.8 3.1s1.1 3 2.8 3c1.1 0 1.7-.5 2.5-1.1l1.4 1.4c-1.1 1.1-2.1 1.7-4 1.7-2.9.1-5-2.2-5-5.1z"/><path fill="#e6e6e6" d="m679.3 289.7h3.4l4.2 13.2 4.4-13.3h2.6l4.4 13.3 4.2-13.2h3.3l-6.2 18h-2.6l-4.4-12.8-4.4 12.8h-2.7z"/><path fill="#e6e6e6" d="m705.5 300.8c0-3.9 3.1-7 7.2-7 4.2 0 7.2 3.2 7.2 7s-3.1 7-7.3 7c-4 0-7.1-3.1-7.1-7zm11.3 0c0-2.3-1.7-4.3-4.2-4.3s-4.1 2-4.1 4.3 1.7 4.3 4.1 4.3c2.7.1 4.2-1.9 4.2-4.3z"/><path fill="#e6e6e6" d="m722.1 294h3.1v3c.8-2 2.4-3.4 4.8-3.3v3.2h-.2c-2.7 0-4.6 1.7-4.6 5.4v5.1h-3.1z"/><path fill="#e6e6e6" d="m731.8 288.9h3.1v11.1l5.6-6h3.8l-5.4 5.5 5.5 8h-3.5l-4.1-5.8-1.9 2v3.9h-3.1z"/><path fill="#e6e6e6" d="m744.4 300.8c0-3.9 3.1-7 7.2-7 4.2 0 7.2 3.2 7.2 7s-3.1 7-7.3 7c-4.1 0-7.1-3.1-7.1-7zm11.3 0c0-2.3-1.7-4.3-4.2-4.3s-4.1 2-4.1 4.3 1.7 4.3 4.1 4.3c2.6.1 4.2-1.9 4.2-4.3z"/><path fill="#e6e6e6" d="m760.9 302.6v-8.6h3.1v7.6c0 2.1 1.1 3.3 2.9 3.3s3-1.3 3-3.3v-7.6h3.1v13.4h-3.1v-2.1c-.8 1.3-2.1 2.3-4.2 2.3-3.1.2-4.8-1.8-4.8-5z"/><path fill="#e6e6e6" d="m776.6 303.8v-7.1h-1.7v-2.7h1.7v-3.7h3.1v3.7h3.6v2.6h-3.6v6.6c0 1.2.6 1.7 1.7 1.7.7 0 1.3-.2 1.9-.5v2.5c-.8.5-1.7.7-2.8.7-2.3.1-3.9-.9-3.9-3.8z"/><path fill="#e6e6e6" d="m785.9 289.7h3.2v15h9.4v2.9h-12.5v-17.9z"/><path fill="#e6e6e6" d="m808.7 307.5v-1.7c-.9 1.1-2.3 2-4.4 2-2.6 0-4.8-1.4-4.8-4.2 0-3 2.3-4.4 5.4-4.4 1.7 0 2.6.2 3.7.5v-.2c0-1.9-1.2-2.9-3.3-2.9-1.5 0-2.6.3-3.9.8l-.8-2.5c1.5-.7 2.9-1.1 5.1-1.1 4 0 5.9 2.1 5.9 5.7v8zm.1-5.6c-.8-.3-1.9-.5-3.1-.5-2 0-3.1.8-3.1 2.1s1.1 2 2.6 2c2 0 3.5-1.1 3.5-2.9z"/><path fill="#e6e6e6" d="m817.6 305.5v2.1h-3.1v-18.7h3.1v7.4c1-1.4 2.4-2.5 4.5-2.5 3.2 0 6.3 2.5 6.3 7s-3.1 7-6.3 7c-2.1 0-3.5-1.1-4.5-2.3zm7.7-4.7c0-2.6-1.7-4.3-3.9-4.3-2.1 0-3.9 1.7-3.9 4.4 0 2.6 1.8 4.3 3.9 4.3 2.2 0 3.9-1.7 3.9-4.4z"/><path fill="#e6e6e6" d="m829.6 305.8 1.4-2.1c1.4 1.1 3 1.7 4.4 1.7s2.1-.5 2.1-1.5-1.3-1.4-2.8-1.8c-.1 0-.2-.1-.2-.1-2-.6-4.2-1.4-4.2-4s2.1-4.1 4.8-4.1c1.7 0 3.5.6 5 1.5l-1.2 2.2c-1.3-.8-2.6-1.3-3.8-1.3s-1.9.5-1.9 1.4 1.3 1.4 2.8 1.8c.1 0 .2.1.2.1 2 .6 4.2 1.5 4.2 4 0 2.9-2.2 4.2-5 4.2-1.9 0-4-.7-5.8-2z"/><path fill="#e6e6e6" d="m206.3 434.2c0-5.1 4.1-9.2 9.3-9.2s9.2 4.2 9.2 9.2-4.1 9.2-9.3 9.2-9.2-4.1-9.2-9.2zm17.4-.1c0-4.5-3.5-8.2-8.2-8.2s-8.2 3.7-8.2 8.3c0 4.5 3.5 8.2 8.2 8.2s8.2-3.7 8.2-8.3zm-13.1-.1c0-2.8 2.1-5.1 5.1-5.1 1.9 0 2.9.6 3.9 1.5l-1.4 1.7c-.8-.7-1.5-1.1-2.5-1.1-1.7 0-2.8 1.4-2.8 3.1s1.1 3 2.8 3c1.1 0 1.7-.5 2.5-1.1l1.4 1.4c-1.1 1.1-2.1 1.7-4 1.7-2.9.1-5-2.2-5-5.1z"/><path fill="#e6e6e6" d="m226.1 425.3h3.4l4.2 13.2 4.4-13.3h2.6l4.4 13.3 4.2-13.2h3.3l-6.2 18h-2.7l-4.4-12.8-4.4 12.8h-2.7z"/><path fill="#e6e6e6" d="m252.4 436.4c0-3.9 3.1-7 7.2-7 4.2 0 7.2 3.2 7.2 7s-3.1 7-7.3 7c-4.1 0-7.1-3.1-7.1-7zm11.2 0c0-2.3-1.7-4.3-4.2-4.3s-4.1 2-4.1 4.3 1.7 4.3 4.1 4.3c2.7.1 4.2-1.9 4.2-4.3z"/><path fill="#e6e6e6" d="m269 429.7h3.1v3c.8-2 2.4-3.4 4.8-3.3v3.2h-.2c-2.7 0-4.6 1.7-4.6 5.4v5.1h-3.1z"/><path fill="#e6e6e6" d="m278.6 424.5h3.1v11.1l5.6-6h3.8l-5.4 5.5 5.5 8h-3.5l-4.1-5.8-1.9 2v3.9h-3.1z"/><path fill="#e6e6e6" d="m291.3 436.4c0-3.9 3.1-7 7.2-7 4.2 0 7.2 3.2 7.2 7s-3.1 7-7.3 7c-4.1 0-7.1-3.1-7.1-7zm11.2 0c0-2.3-1.7-4.3-4.2-4.3s-4.1 2-4.1 4.3 1.7 4.3 4.1 4.3c2.6.1 4.2-1.9 4.2-4.3z"/><path fill="#e6e6e6" d="m307.7 438.2v-8.6h3.1v7.6c0 2.1 1.1 3.3 2.9 3.3s3-1.3 3-3.3v-7.6h3.1v13.4h-3.1v-2.1c-.8 1.3-2.1 2.3-4.2 2.3-3 .2-4.8-1.8-4.8-5z"/><path fill="#e6e6e6" d="m323.4 439.4v-7.1h-1.7v-2.6h1.7v-3.7h3.1v3.7h3.6v2.6h-3.6v6.6c0 1.2.6 1.7 1.7 1.7.7 0 1.3-.2 1.9-.5v2.5c-.8.5-1.7.7-2.8.7-2.3 0-3.9-.9-3.9-3.9z"/><path fill="#e6e6e6" d="m332.7 425.3h3.2v15h9.4v2.9h-12.5v-17.9z"/><path fill="#e6e6e6" d="m355.5 443.1v-1.7c-.9 1.1-2.3 2-4.4 2-2.6 0-4.8-1.4-4.8-4.2 0-3 2.3-4.4 5.4-4.4 1.7 0 2.6.2 3.7.5v-.2c0-1.9-1.2-2.9-3.3-2.9-1.5 0-2.6.3-3.9.8l-.8-2.5c1.5-.7 2.9-1.1 5.1-1.1 4 0 5.9 2.1 5.9 5.7v8zm.1-5.6c-.8-.3-1.9-.5-3.1-.5-2 0-3.1.8-3.1 2.1s1.1 2 2.6 2c2 0 3.5-1.1 3.5-2.9z"/><path fill="#e6e6e6" d="m364.4 441.1v2.1h-3.1v-18.7h3.1v7.4c1-1.4 2.4-2.5 4.5-2.5 3.2 0 6.3 2.5 6.3 7s-3.1 7-6.3 7c-2.1 0-3.5-1.1-4.5-2.3zm7.7-4.7c0-2.6-1.7-4.3-3.9-4.3-2.1 0-3.9 1.7-3.9 4.4 0 2.6 1.8 4.3 3.9 4.3 2.2 0 3.9-1.7 3.9-4.4z"/><path fill="#e6e6e6" d="m376.5 441.4 1.4-2.1c1.4 1.1 3 1.7 4.4 1.7s2.1-.5 2.1-1.5-1.3-1.4-2.8-1.8c-.1 0-.2-.1-.2-.1-2-.6-4.2-1.4-4.2-4s2.1-4.1 4.8-4.1c1.7 0 3.5.6 5 1.5l-1.2 2.2c-1.3-.8-2.6-1.3-3.8-1.3s-1.9.5-1.9 1.4 1.3 1.4 2.8 1.8c.1 0 .2.1.2.1 2 .6 4.2 1.5 4.2 4 0 2.9-2.2 4.2-5 4.2-2 0-4.1-.7-5.8-2z"/><path fill="#e6e6e6" d="m505.1 434.2c0-5.1 4.1-9.2 9.3-9.2s9.2 4.2 9.2 9.2-4.1 9.2-9.3 9.2-9.2-4.1-9.2-9.2zm17.4-.1c0-4.5-3.5-8.2-8.2-8.2s-8.2 3.7-8.2 8.3c0 4.5 3.5 8.2 8.2 8.2s8.2-3.7 8.2-8.3zm-13.1-.1c0-2.8 2.1-5.1 5.1-5.1 1.9 0 2.9.6 3.9 1.5l-1.4 1.7c-.8-.7-1.5-1.1-2.5-1.1-1.7 0-2.8 1.4-2.8 3.1s1.1 3 2.8 3c1.1 0 1.7-.5 2.5-1.1l1.4 1.4c-1.1 1.1-2.1 1.7-4 1.7-2.9.1-5-2.2-5-5.1z"/><path fill="#e6e6e6" d="m525 425.3h3.4l4.2 13.2 4.4-13.3h2.6l4.4 13.3 4.2-13.2h3.3l-6.2 18h-2.7l-4.4-12.8-4.4 12.8h-2.7z"/><path fill="#e6e6e6" d="m551.2 436.4c0-3.9 3.1-7 7.2-7 4.2 0 7.2 3.2 7.2 7s-3.1 7-7.3 7c-4.1 0-7.1-3.1-7.1-7zm11.2 0c0-2.3-1.7-4.3-4.2-4.3s-4.1 2-4.1 4.3 1.7 4.3 4.1 4.3c2.7.1 4.2-1.9 4.2-4.3z"/><path fill="#e6e6e6" d="m567.8 429.7h3.1v3c.8-2 2.4-3.4 4.8-3.3v3.2h-.2c-2.7 0-4.6 1.7-4.6 5.4v5.1h-3.1z"/><path fill="#e6e6e6" d="m577.5 424.5h3.1v11.1l5.6-6h3.8l-5.4 5.5 5.5 8h-3.5l-4.1-5.8-1.9 2v3.9h-3.1z"/><path fill="#e6e6e6" d="m590.1 436.4c0-3.9 3.1-7 7.2-7 4.2 0 7.2 3.2 7.2 7s-3.1 7-7.3 7c-4.1 0-7.1-3.1-7.1-7zm11.2 0c0-2.3-1.7-4.3-4.2-4.3s-4.1 2-4.1 4.3 1.7 4.3 4.1 4.3c2.6.1 4.2-1.9 4.2-4.3z"/><path fill="#e6e6e6" d="m606.5 438.2v-8.6h3.1v7.6c0 2.1 1.1 3.3 2.9 3.3s3-1.3 3-3.3v-7.6h3.1v13.4h-3.1v-2.1c-.8 1.3-2.1 2.3-4.2 2.3-3 .2-4.8-1.8-4.8-5z"/><path fill="#e6e6e6" d="m622.2 439.4v-7.1h-1.7v-2.6h1.7v-3.7h3.1v3.7h3.6v2.6h-3.6v6.6c0 1.2.6 1.7 1.7 1.7.7 0 1.3-.2 1.9-.5v2.5c-.8.5-1.7.7-2.8.7-2.3 0-3.9-.9-3.9-3.9z"/><path fill="#e6e6e6" d="m631.5 425.3h3.2v15h9.4v2.9h-12.5v-17.9z"/><path fill="#e6e6e6" d="m654.3 443.1v-1.7c-.9 1.1-2.3 2-4.4 2-2.6 0-4.8-1.4-4.8-4.2 0-3 2.3-4.4 5.4-4.4 1.7 0 2.6.2 3.7.5v-.2c0-1.9-1.2-2.9-3.3-2.9-1.5 0-2.6.3-3.9.8l-.8-2.5c1.5-.7 2.9-1.1 5.1-1.1 4 0 5.9 2.1 5.9 5.7v8zm.1-5.6c-.8-.3-1.9-.5-3.1-.5-2 0-3.1.8-3.1 2.1s1.1 2 2.6 2c2 0 3.5-1.1 3.5-2.9z"/><path fill="#e6e6e6" d="m663.3 441.1v2.1h-3.1v-18.7h3.1v7.4c1-1.4 2.4-2.5 4.5-2.5 3.2 0 6.3 2.5 6.3 7s-3.1 7-6.3 7c-2.2 0-3.6-1.1-4.5-2.3zm7.7-4.7c0-2.6-1.7-4.3-3.9-4.3s-3.9 1.7-3.9 4.4c0 2.6 1.8 4.3 3.9 4.3s3.9-1.7 3.9-4.4z"/><path fill="#e6e6e6" d="m675.3 441.4 1.4-2.1c1.4 1.1 3 1.7 4.4 1.7s2.1-.5 2.1-1.5-1.3-1.4-2.8-1.8c-.1 0-.2-.1-.2-.1-2-.6-4.2-1.4-4.2-4s2.1-4.1 4.8-4.1c1.7 0 3.5.6 5 1.5l-1.2 2.2c-1.3-.8-2.6-1.3-3.8-1.3s-1.9.5-1.9 1.4 1.3 1.4 2.8 1.8c.1 0 .2.1.2.1 2 .6 4.2 1.5 4.2 4 0 2.9-2.2 4.2-5 4.2-2 0-4.1-.7-5.8-2z"/></g>
</svg>
