<?xml version="1.0" encoding="utf-8"?>
<!-- Generator: Adobe Illustrator 23.0.1, SVG Export Plug-In . SVG Version: 6.00 Build 0)  -->
<svg version="1.2" baseProfile="tiny" id="Layer_1" xmlns="http://www.w3.org/2000/svg" xmlns:xlink="http://www.w3.org/1999/xlink"
	 x="0px" y="0px" viewBox="0 0 900 600" xml:space="preserve">
<g>
	<path d="M697.17,325.67c14.28-30.04,10.64-15.73,0.31-38.11c-1.97-4.27-9.33-4.45-13.96-3.87c0.61-2.14-1.22-3.57-0.41-5.5
		c2.77-6.61-2.57-11.18-2.65-22.02c-0.05-6.93,0.63-13.86-0.31-20.79c-0.9-6.73-2.01-13.46-2.55-20.28
		c-1.65-20.94-10.53-20.93-12.13-30.38c-3.59-21.23-12.84-22.59-14.68-47.09c-1.7-22.71-12.67-24.07-15.49-27.01
		c-6.12-6.39-11.92-3.14-14.47-5.81c-2.5-2.62-7.47-6.99-7.14-9.48c1.27-9.63-3.99-15.99,4.08-17.23c3.68-0.56,7.44-0.1,10.7-1.73
		c1.02-2.45,2.28-4.91,0.82-7.54c-1.03-1.86,3.54-2.69,0.92-8.46c3.16-0.82,1.22-3.26,1.63-4.99c5.17-3.91,3.45-2.68-1.83-16.62
		c5.57-4.34-1.25-10.22-0.2-17.12c9.38-2.65,9.38-2.65,10.4-10.91c-2.07-3.72-3.99-0.49-6.42-0.82c0.1-1.22,1.83-1.12,1.43-2.65
		c-1.43-0.1-2.24-1.43-3.16-2.34c-1.83,0.82-2.04,2.65-3.47,3.57c-0.59-1.78,1.01-4.95-11.62-4.59c0.2-1.02,1.43-1.43,0.82-2.34
		c-1.96-2.29-5.55,3.49-13.66,0.31c-3.28-1.29-5.06,1.27-7.24,0.31c-0.61-0.61,0.71-1.83-1.22-2.14c-2.49,4.4-8.71,0.01-13.76,6.12
		c-1.02-0.1-1.43-1.22-2.34-1.02c-1.94,2.55-5.81,2.34-7.65,4.99c-0.1,1.33,1.94,1.12,1.73,2.65c-0.92,0.92-2.83,1.63-2.75,3.26
		c0.14,2.85-1.22,5.3-1.73,7.95c-1.42,7.34,0.41,14.78-0.41,22.12c0,0.31,0.2,0.71,0.31,1.02c4.5,17.3,4.38,29.58,4.79,31.5
		c1.01,4.73-1.97,5.84-9.79,11.31c-8.26,5.78-7.89,11.27-18.04,19.16c-8.35,6.5-8.59,15.25-9.48,17.12c-2.37,5-1.73,8.25,0.31,25.59
		c1.17,9.97-2.11,22.53,5.1,32.41c5.22,7.16,9.12,20.65,13.96,22.83c-1.8,5.7,1.44,4.27,0.61,10.91
		c-0.21,1.73-0.17,13.33,4.99,22.32c-0.98,1.19-8.96,21.94-9.89,24.16c-6.18,14.73,1.82,18.61-3.36,28.34
		c-10.2,19.17-5.94,14.98,3.06,42.3c11.31,0,22.53,2.04,33.64-1.02c-10.7-1.02-21.41,0.31-31.7-0.51c-1.02-1.22-1-2.25-1.22-3.16
		c-4.86-19.55-9.14-17.79-7.14-23.65c2.09-6.13,5.5-11.72,6.93-17.74c11.01-0.92,21.71-1.73,32.72-1.63
		c2.45,7.65,4.49,15.8,8.66,23.24c-5.66,18.29-7.58,20.58-6.01,25.59c4.23-7.14,1.82-15.91,13.86-25.49
		c1.02-0.71,2.55-1.22,0.92-2.85c-2.55,1.73-5.3,3.16-6.93,5.4c-0.65-10.76-9.39-21.55-6.52-26.71c3.67-6.59,1.19-10.78-14.47-30.38
		c-8.69-10.87-19.1-30.77-15.29-39.65c0.82-0.1,1.22,1.02,1.94,0.41c0.61-2.34-1.63-2.34-2.65-3.57c0.41-2.04,0.51-4.49-0.82-6.12
		c-4.67-5.72-5.96-13.22-10.3-19.16c-6.97-9.55-9.27-25.16-8.05-37c1.53-14.92-3.87-11.87,1.33-28.64c0.44-1.42,0.82-2.65-0.1-3.87
		c3.47-4.18,6.63-8.05,11.11-10.91c4.49-2.85,6.32-8.26,10.19-11.42c22.53,1.55,20.11,22.13,24.26,21c0.75-0.86-0.99-1.94,0.31-1.94
		c8.97,13.35,11.72,27.62,6.12,43.22c-2.55-4.08-7.03-6.73-8.56-11.31c2.75-2.96,3.67-6.32,4.49-9.79
		c-3.16,2.55-3.77,6.73-6.32,9.58c2.75,15.94,3.85,9.18,3.47,23.65c-0.31,11.65,0.81,13.45-0.92,18.04
		c-2.63,6.98,5.88,9.11,6.32,27.52c0.46,19.55,15.05,54.5,14.88,60.96c-0.3,12.02,9.64,20.76,12.13,33.03
		c-2.65,4.89-7.44,7.24-10.91,10.91c2.65,3.16,3.87,6.83,6.73,9.48c9.42-3,11.06,4.06,20.08,25.99
		c-8.13-36.99-25.54-23.14,10.19-25.69c2.96-0.21,5.71-0.61,6.42-3.98c3.06-0.61,5.81,0.51,8.77,0.2
		c4.18,20.18,3.87,40.67,7.34,60.65c-1.12,0.41-2.24,0.41-2.96,0.92c-6.84,5.58-23.2,1.12-38.23,3.67c-4.18,0.71-4.19,0.61-5.3-3.36
		c-1.27-4.52-1.76-45.16-1.12-53.62c0.1-1.33,0.31-3.06-1.33-3.67c-1.46,8.08-3.63,42.19,1.02,63.1
		c-4.08,1.46-27.77-4.73-38.12-3.26c-3.11,0.44-4.75-0.85-4.93-0.67c-2.55-3.17-6.29-5.32-6.79-9.93c-1.02,0.2-1.53,0.41-2.14,0.51
		c0.64,15.86,0.68,3.3,1.12,2.24c1.82,3.55,3.85,6.38,7.48,7.52c-0.91,1.02-2.15,0.96-3.4,1.04c-13.12,0.88-12.01,2.76-14.58,2.24
		c-1.29-1.8,1.45-9.48,1.53-13.46c0.28-14.27-2.65-28.34-1.94-42.61c0.1-0.61,0.41-1.73-0.82-1.94c-2.05,1.14-0.11,18.22,0,22.63
		c0.9,37.14-3.23,35.18-1.02,37.61c2.52,0.42,5.4-2.09,5.4,0.71c1.63,15.12-10.01,23.02-15.09,37.41
		c-2.92,8.27-3.74,17.03-6.42,25.28c-2.62,8.06-2.41,16.52-1.12,24.87c2.39,15.49,0.61,4.69,0.61,52.9c0,2.04,0.41,3.98-0.41,6.01
		c-11.27,0-6.41,17.59-13.46,29.26c-7.09,11.73-5.49,9.64,21.81,16.31c3.67,0.9,7.13,3.1,11.01,2.75c2.75-0.25,5.3-0.01,7.85,0.51
		c11.1,2.29,5.34-1.62,27.11,1.12c7.24,0.91,13.25-1.53,18.25-5.3c2.65-6.32,0.61-10.91-3.47-15.09c4.59-0.51,8.76,0.59,12.95,0
		c5.3-0.74,10.71-1.44,15.49,2.14c4.14,3.1,42,1.22,42.1,1.22c4.79-0.08,9.58-1.63,13.25-5.1c-0.1-2.24-1.43-4.18-0.82-6.22
		c2.43-8.03-19.9-8.94-26.6-14.58c-17.39-14.63-20.59-15.22-20.59-21.71c0-5.4-0.1-5.4-5.61-4.79c1.46-32.1,8.25-39.93,11.72-55.04
		c8.1-35.26,1.49-32.35,4.79-40.26c1.62-3.87,6.33-19.58,5.1-22.53c-1.83-4.38-0.92-8.66,0.31-13.15c3.67-0.51,6.63-2.85,9.79-3.77
		c1.08-2.51-3.41-12.16-2.34-19.78c1.08-7.72-1.28-16.24-1.83-21.61c-2.44-23.58-6.71-21.59-0.92-21.51
		c11.65,0.17,12.8,0.59,13.26-1.41c-2.29,1.55-4.87,0.59-7.25,0.59c-2.36,0,3.15-4.1,9.28-18.76c-1.71-1.71-9.24,19.07-11.72,18.55
		c-5.11-1.07-10.5,0.61-15.49-2.24c8.53-22.94,2.86-15.88-4.59-38.23c8.26-1.43,22.83-1.83,28.44-0.71c2.45,5.4,5.27,10.76,8.36,16
		c5.25,8.91,7.8-7.51-5.91,20.28c-1.18,2.4-1.12,4.18-1.02,4.18c1.32-1.32,4.98-10.32,9.99-15.49c1.56-1.61,2.85-3.77,2.04-6.22
		c-8.03-24.09-6.04-18.1,6.01-17.43c3.36,5.91,5.99,12.04,9.68,17.63c1.14,1.73,0.32,1.91-8.97,20.49
		c-9.79-0.41-14.78,0.2-16.92,2.45C685.14,327.71,691.15,325.77,697.17,325.67z M567.71,251.06c-0.26,5.15-1.42,33.89-0.31,20.28
		c1.07-13.1,3.69-1.67,2.75-16.72c6.63,7.95,12.44,16.51,18.35,24.87c-0.82,2.45-1.43,4.89-1.53,7.14
		c-5.91-0.82-11.93-0.92-17.63-1.33c-1.53-1.63-1.02-3.98-2.45-6.01c-0.71,2.34,0.82,4.18,0.1,6.63c-4.69-1.63-9.38-0.41-14.37,1.63
		c0-7.44-1.89-13.88,0.51-20.79c2.2-6.34,5.5-12.13,7.65-18.55C566.06,247.45,564.66,246.49,567.71,251.06z M611.64,399.48
		c5.51,22.25,5.37,15.16,4.08,23.95c-2.15,14.64-13.1,34.45-4.89,62.89c3.39,11.73-2.31,25.8-2.14,43.83
		c-6.74,1.58-5.72,7.19-7.34,18.86c-1.93,13.88-7.99,15.94-6.12,20.49c-20.68-15.01-11.56-10.8-19.88-17.23
		c-7.13-5.52-4.62-16.11-12.23-16.11c0.41-6.93-0.67-13.84,2.04-20.49c1.61-3.96,19.67-73.65,22.63-76.55
		c5.35-5.25,6.6-13.07,11.72-18.55c1.62-1.74,2.46-3.98,2.24-6.22c-0.61-6.13,5.45-8.51,5.91-17.33
		C610.01,396.73,611.14,397.44,611.64,399.48z M577.5,557.98c-1.43,0.41-2.55,0.71-4.18,1.12
		C574.74,557.58,575.86,557.68,577.5,557.98z M570.87,552.17c-0.41,0.41-0.71,0.2-1.12,0.1
		C570.05,551.66,570.46,551.46,570.87,552.17z M540.29,514.36c2.94-24.26-2.59-33.85,2.04-54.13c4.42-19.35,1.18-19.94,11.72-36.7
		c5.6-8.9,9.89-17.46,7.44-27.73c14.68-2.04,29.15-4.28,43.63,0.71c-0.61,2.55-1.82,5.21-3.36,7.54c-4.61,6.99-0.07,8.15-5.1,16
		c-3.13,4.89-6.09,12.32-7.24,13.46c-5.48,5.43-8.4,12.14-9.58,19.47c-1.42,8.75-21.45,64.98-19.57,75.53
		c0.51,2.85,0.61,5.71,0.31,8.87c-3.47,1.02-7.34,1.94-7.24,6.63c-10.93,5.96-4.64,2.39-7.14-5.61c-1.73,3.06-2.24,6.01-2.04,9.07
		c-1.53,0.82-2.85,0.61-4.18-0.1C541.72,536.37,538.97,525.26,540.29,514.36z M536.42,546.36c1.12-1.12,1.71,1.32-0.41,1.02
		C535.5,546.87,536.11,546.57,536.42,546.36z M535.5,549.83c9.07,1.12,10.91,0.82,17.33-2.24c-4.69,3.67-10.3,5.91-15.49,8.97
		C535.6,554.21,535.09,552.17,535.5,549.83z M608.79,586.83c-19.8,9.74-18.79,0.51-32.82,3.47c-4.7,0.99-9.17-1.56-13.76-1.53
		c-7.85,0.05-15.08-3.26-22.83-3.36c-3.18-0.04-9.29-3.47-13.46-3.47c-0.92,0-1.94-0.31-2.45-1.22c-0.07-0.99,8.62-16.06,7.65-20.18
		c-0.68-2.86,0.61-5.3,1.63-7.85c1.12,0.1,0.82,1.02,1.02,1.63c3.55,8.68,9.17,1.99,19.27-3.47c4.8-2.59,3.99-6.48,4.49-8.97
		c2.34-2.14,4.99-2.65,8.05-2.34c1.94,2.96,1.63,6.32,2.85,9.48c-4.89,1.53-9.79,2.75-11.11,8.46c1.12,0.82,1.43-0.71,2.45-0.51
		c0.92,0.41-0.51,1.53,0.51,2.04c1.63-0.82,3.36-1.43,5.61-1.63c-1.02,1.73-2.75,2.96-2.14,5.3c10.64-4.79,4.04-1.53,4.38,1.02
		c0.92,0.82,2.04-0.31,3.26,0.61c0.41,0.71-1.43,1.12-0.61,2.45c4.49,0.92,8.46-1.53,12.54-3.16c6.01,4.59,12.13,9.07,17.43,14.07
		c1.33-0.82,0.71-1.94,1.53-2.24C608.18,576.84,608.89,577.96,608.79,586.83z M596.45,570.11c1.33,0.31,2.14,1.02,3.16,1.73
		C597.88,571.64,597.88,571.64,596.45,570.11z M639.06,528.42c2.59,1.35-0.2,3.64,2.65,6.73c-3.16,1.02-5.61,2.04-7.65,4.59
		c2.04,0.41,3.36-0.61,4.99-0.51c0.1,1.22-1.73,1.63-1.43,3.16c2.04,0,4.18-0.92,6.42-0.51c-0.61,1.43-2.45,1.63-2.75,3.47
		c8.34,0,3.38,0.74,4.28,2.55c1.12,0.71,2.55-0.1,3.67,0.71c0.1,1.12-1.63,1.02-1.53,2.45c2.14,0.61,4.28,0.31,6.42-0.1
		c0.41,0.82-0.71,1.02-0.31,1.94c1.02,0.71,2.34,0,3.57,0c0.1,0.08,0.89,4.04,3.57,0.2c1.33-0.1,0.61,1.53,1.94,1.83
		c1.22-0.41,2.75-0.1,4.28,0.71c15.53,8.21,20.05,2.13,21.1,15.29c-15.29,6.76-51.07,3.08-52.7,1.83
		c-7.99-6.13-30.16,1.69-38.63-4.99c3.26-4.79,5.51-10.29,6.63-16c1.78-9.16,0.65-27.41,4.59-12.13c1.54,5.99,5.91,6.31,10.3,4.59
		c4.18-1.64,7.08-5.17,10.6-7.75c2.16-1.58-0.29-3.94,1.22-6.12C631.09,529.22,637.85,527.79,639.06,528.42z M609.6,536.78
		c6.12-0.61,12.54,0.82,17.53-3.67c0.92,1.73,0.21,2.36-1.02,3.06c-8.23,4.66-7.91,7.02-15.39,4.69
		C610.42,539.53,610.11,538.41,609.6,536.78z M650.68,432.61c-1.1,3.78,0.33,7.85-0.2,11.82c-5.67,42.2-13.61,41.82-15.7,72.17
		c-0.2,2.85-0.71,5.71-0.2,8.56c-2.04,1.43-4.18,1.94-6.42,2.24c-1.63,4.28-3.57,5.3-10.3,5.3c-1.57-7.31-1.33-4.02-1.94-0.1
		c-1.53,0.71-2.96,0.41-4.49-0.1c1.22-9.99,1.42-20.08,3.67-29.97c2.29-10.04-3.01-17.15-4.28-38.33
		c-0.51-8.46,5.74-30.16,6.42-34.05c1.99-11.38-1.25-6.09,6.01,1.53c1.28-2.2-4.53-4.14-4.28-15.39c0.18-8.16-2.75-10.31-4.99-17.94
		c2.34-0.82,4.38-0.41,6.22-0.71c1.22-0.51,1.12-1.63,1.73-2.65c11.11-3.26,22.53-0.71,33.84-1.02c0.2,0.31,0.41,0.51,0.41,0.61
		C652.47,402.72,661.29,396.07,650.68,432.61z M649.46,142.81c-6.52-20.37-4.5-15.18-5.71-13.96c-2.85-0.92-8.66-9.28-11.21-16.31
		C644.87,117.33,647.63,125.68,649.46,142.81z M632.23,7.44c0.1,0.92-0.31,1.22-1.22,1.02C630.91,7.54,631.11,7.14,632.23,7.44z
		 M637.53,14.27c-2.14,4.28-6.52,4.38-10.5,5.5C630.3,17.33,634.78,17.53,637.53,14.27z M626.73,9.79c0.1,1.63-0.61,2.04-1.73,2.24
		c-0.41-1.73-1.12-3.36-3.26-3.77C624.69,5.81,624.38,11.21,626.73,9.79z M618.98,8.66c0.62-0.62,1.44,0.09,0.41,0.61
		C618.98,9.28,618.88,8.97,618.98,8.66z M621.53,17.43c-2.04,1.02-3.57,1.33-5.2,0.71C617.86,17.43,619.39,16.92,621.53,17.43z
		 M612.56,5.81c0.41-0.82,0.92-0.2,1.63-0.2C613.01,7.58,612.28,6.37,612.56,5.81z M613.38,19.88c-1.02,1.53-1.63,2.24-3.36,2.55
		C610.93,21.1,611.64,20.39,613.38,19.88z M611.13,19.27c-0.51-0.71-0.92-1.53-1.53-2.55C610.93,17.12,611.44,17.84,611.13,19.27z
		 M609.4,25.38c-1.22,0.92-2.45,1.83-3.57,2.65C606.04,25.99,607.67,25.59,609.4,25.38z M605.93,17.74
		c-1.94,0.82-2.24-1.12-3.47-1.53C604.41,15.39,604.71,17.33,605.93,17.74z M602.77,31.29c-0.2,0.92-0.51,1.33-1.12,1.43
		C601.14,31.8,601.76,31.6,602.77,31.29z M598.39,27.93c0.31,1.02-0.41,0.92-1.02,1.22C597.37,28.13,597.47,27.62,598.39,27.93z
		 M593.7,15.7c1.95,0.49,1,3.27-1.22,2.34C592.28,16.72,592.89,16.21,593.7,15.7z M594.31,30.48c-0.24,0.73-1.35,0.51-1.12-0.41
		C593.43,29.6,594.49,29.58,594.31,30.48z M587.79,4.79c-0.51,0.51-0.82,1.33-1.73,0.61C586.26,4.49,586.87,4.28,587.79,4.79z
		 M586.06,12.44c1.22,1.53,1.94,2.45,2.65,3.47c-1.53,0.71-2.24-0.61-3.26-0.51C585.04,14.37,586.06,13.96,586.06,12.44z
		 M584.73,36.19c0.82,0,1.02,0.51,1.22,1.43C583.4,37.61,584.49,36.19,584.73,36.19z M583.71,29.56c-1.33,0.41-1.63-0.31-2.04-0.92
		C582.69,28.03,583.2,28.44,583.71,29.56z M581.88,9.89c0.8-0.53,1.07,1.38-0.2,1.12C581.27,10.6,581.47,10.09,581.88,9.89z
		 M579.53,14.88c0.74,0.37,0.34,1.63-0.61,1.63C578.51,15.7,579.02,15.29,579.53,14.88z M575.25,28.75c0.41,1.33-0.2,1.83-1.53,2.14
		C573.52,29.46,573.93,28.85,575.25,28.75z M571.89,35.47c-0.51-0.82-0.41-1.43,0.71-1.63C573.01,34.76,572.6,35.17,571.89,35.47z
		 M573.83,44.44c-0.31-0.71-0.41-1.22,0.41-1.73C575.05,43.53,574.74,44.04,573.83,44.44z M575.25,84.71
		c4.08-8.83,0.62-17.88,3.16-20.08c0.31-0.31,0.51-1.12,0.41-1.63c-0.71-2.75,0.51-5.1,1.63-7.44c1.02,0.41,0.2,2.04,1.43,2.24
		c1.33-0.2,0.71-1.43,0.71-2.14c3.31-0.37,6.05,5.49,9.58,2.13c0,0.58,0.14,3.64,1.5,6.15c-0.98,1.08-0.97,1.11,0.74,3.42
		c-1.54-7.16,0.27-0.52,3.98-1.33c-3.57-1.94-3.57-5.91-5.1-8.97c-2.1,1.05-0.34,0.51-1.43-1.22c-3.42,2.6-5.86-0.9-10.91-5.81
		c-3.57-3.47-0.94-6.84,1.94-10.5c1.2-1.53,2.34,0.12,2.23,0.22c-2.6,0.19,0.2,1.63-5.09,6.91c0.71,1.43,1.33,2.65,2.85,3.06
		c0.31-1.43-2.04-2.75,0.2-3.67c1.83,0.71,0.82,3.16,2.34,3.98c1.83-2.75-2.75-5.3,0.1-7.95c4,2,0.4,3.64,0.92,5.81
		c0.29,1.23,0.2,2.45,0.2,3.77c2.04,0.2,3.98,0.92,4.99-1.43c-3.98-4.28-3.98-4.28-1.22-5.5c-1.07-1.65-2.85-2.57-3.82-4.23
		c5.78,1.04,4.66,4.18,7.8,9.12c1.43,0,0.61-1.53,1.43-1.83c1.33-0.5,1.83,1.53,3.47,0.82c-8.27-8.98,13.35-20.47,15.19-25.59
		c2.45,0.2,4.79,1.12,6.73-0.82c0.1-0.82-1.22-0.31-0.82-1.43c2.55-0.82,5.1-1.43,7.54,0.82c0,8.18,4.68,11.53,1.33,14.98
		c-3.72,3.84,6.99,13.59,3.36,15.9c-2.68,1.71-5.08-0.09-6.12-0.61c-1.02,2.85-0.31,3.47,3.36,3.16c2.34,6.44-4.38,3.89-5.71,7.03
		c1.63,1.22,2.45-0.31,3.67-0.61c1.83,0.71,1.93,2.03,0.82,3.36c-3.61,4.32,3.37,9.1-4.49,10.91c-6.91,1.59-12.32-3.43-12.74,9.17
		c-0.44,13.19,6.86,20.73,9.48,21.71c7.42,2.04,9.31,13.9,10.7,21.61c0.59,3.27-0.31,4.38-4.49,5.81c-2.65-7.28-0.86-1.16-1.63-0.2
		c-22.74,3.15-27.36-29.08-54.64-44.04C571.58,87.26,574.26,86.86,575.25,84.71z M580.35,51.68c0.61,0.51,1.53,0.71,0.82,2.04
		C580.45,53.31,579.94,52.9,580.35,51.68z M595.23,235.87c-4.54-18.47,1.08-23.17-9.79-42.51c4.81-21.65,0.73-20.86,4.59-24.57
		c-3.36-1.53-1.43-4.38-2.04-6.73c1.94,0.1,1.12,2.04,2.24,2.75c2.55-1.83,5.2,1.02,8.26,0.31c-1.53-1.73-3.47-2.65-4.38-4.59
		c6.07-17.11,5.5-33.87-9.99-53.82c-14.37-18.51-28.32-6.74-15.29-15.7c29.86,17.34,27.52,45.46,56.98,45.46
		c0.41,2.96,0.71,5.61,1.12,8.26c1.33-2.85,0.1-5.71,0.61-8.77c2.24-0.51,4.37-1.33,5.71-3.47c2.6-4.15-2.93-18.88-6.42-23.14
		c2.14-0.2,2.78,1.31,3.36,2.65c10.37,23.59,18.31,19.57,16.21,39.14c-1.88,17.57-8.36,10.65-7.44,33.74
		c0.65,16.4-4.28,43.6-1.43,58.2c0.4,3.22,0.97,2.55-8.36,2.55c-0.61-1.33-0.2-2.14,1.12-2.24c-2.17-13.32-1.78-13.13-2.75-12.64
		c-0.1,4.79,2.04,9.79-0.31,14.17c-4.99,0-10.09-0.21-15.19,0.1c-4.79,0.3-9.48-3.36-14.58-0.41
		C595.64,241.99,595.93,238.73,595.23,235.87z M637.74,248.51c-1.22,0.51-2.14,0.82-3.36,1.33
		C635.29,248.21,635.29,248.21,637.74,248.51z M632.23,250.14c-0.41-0.61-0.61-1.12,0.1-1.53
		C632.95,249.23,632.44,249.64,632.23,250.14z M629.48,249.13c1.33,0.92,0.82,1.63,0.31,2.65
		C629.07,250.76,629.89,250.14,629.48,249.13z M627.14,250.04c-1.22-0.82-2.45-1.02-3.98-0.71
		C625.71,248,626.22,248.11,627.14,250.04z M620.61,250.76c-0.31-1.02-0.71-1.83,0.2-2.75
		C621.94,249.02,620.82,249.74,620.61,250.76z M612.97,248.11c1.12,0.1,1.12,0.1,0.71,1.33
		C613.07,248.92,612.87,248.62,612.97,248.11z M613.07,253.3c-0.71,0.1-1.33-0.1-1.33-1.02
		C613.17,251.88,612.97,252.69,613.07,253.3z M610.83,247.9c-0.82,3.16-3.06-0.41-3.98,1.33
		C607.57,247.39,607.57,247.39,610.83,247.9z M654.56,307.53c-2.24,6.93-4.49,14.17-7.54,21.51c-38.84,1.82-33.29-0.8-38.33-7.24
		c22.12-18.87,7.37-12.38,2.97-31.88c0,0.11-5.44-7.8-5.31-15.82c2.85,3.36,4.38,7.34,7.44,10.19c-3.57,6.45-2.35,8.81,1.43,0
		c6.52,0.92,13.15-1.12,19.47,1.22c3.16-1.73,6.63-0.92,10.19-1.73C648.14,291.63,651.3,299.48,654.56,307.53z M685.34,298.56
		c-11.91-18.04-5.3-16.01-19.88-16.41c0.61-2.55,1.94-4.79,1.53-7.54c3.41,1.7,2.09,2.62,0.41-10.8c-1.83,1.02-0.41,2.85-1.53,3.98
		c-19.31-45.05-13.43-24.87-21-61.77c-1.59,2.09-2.12,1.07,3.47,26.6c1.7,7.75,6.11,14.27,9.38,21.2
		c10.29,21.84,8.13,21.05,6.12,28.75c-9.17-0.71-18.35,0.82-28.03,0.31c-0.83-9.54-1.02-9.81-1.02,0c-6.63,0-13.15,0-20.08,0
		c-4.81-9.09-8.88-8.61-9.28-12.64c-1.01-10.38-4.72-13.24-2.45-15.8c-3.06-2.04-2.96-6.01-5.5-8.36c2.85,1.02,3.67,3.57,5.2,5.71
		c2.14,0.31,4.69-1.12,6.42,1.43c1.78-2.97,0.53,0.99,5.21,4.61c0.2,0.7,0.32,1.51,1.42,1.71c-0.17-1.68-3.1-5.67-2.55-6.22
		c0,0.03,0.01,0.06,0.01,0.08c1.27-0.14,2.27-1,3.56-0.69c0.61-1.33-0.2-2.96,1.02-4.28c0.71,1.53,0.41,3.26,1.43,4.49
		c6.01,0,12.03,0.1,18.14,1.22c0.41,4.89,0.1,10.09,3.16,14.47c0.31-7.03-2.45-13.96-0.41-21.61c1.69,1.98-1.75,6.88,2.55,8.26
		c0.61-1.94,0.39-3.98,0.51-6.01c0.5-8.72-4.63,5.08-4.18-25.48c0.1-6.93,0.2-13.76,2.55-20.59c1.73,0.92,2.55,3.26,5.4,3.26
		c-8.42-10.11-4.11-1.31-6.32-30.58c-0.35-4.67,7.12-14.05,9.38-27.01c1.04,1.63,12.04,34.21,21.1,50.66
		c3.37,6.11,4.86,12.74,5.2,19.88c0.37,7.95,2.01,15.9,2.34,23.85c0.54,12.65-0.1,18.12,2.85,26.6
		C682.36,272.37,680.1,280.32,685.34,298.56z"/>
	<path d="M420.72,530.36c-8.46,0.82-15.7-3.67-23.95-4.28c3.38-8.79,5.74-52.87,5.4-62.28c-0.16-4.49-0.94-8.97-0.2-13.56
		c3.19-19.83-5.31-24.91-3.36-35.47c4.13-22.38-7.89-21.92-2.04-31.19c3.45-5.47,0.94-6.44,1.22-12.03
		c0.68-13.51-8.12-21.1-18.96-30.38c-4.17-3.57-2.09-6.22-7.44-12.64c1.43-2.75,3.6-4.69,3.87-8.05c0.73-9.01,11.27-5.17,17.63-8.15
		c0.82-2.55,2.04-5.2,0.61-8.05c-0.89-1.78,3.98-4.18,0.92-8.56c0.41-1.02,1.83-0.92,2.04-2.04c0.41-1.33-0.71-2.55,0-3.87
		c5.05-3.55,3.73-2.73-2.24-17.43c5.94-4.35-1.32-10.87-0.31-18.14c9.28-2.5,10.16-2.1,10.7-6.42c1.38-11.06-3.79-5.4-6.42-6.01
		c0.31-1.12,1.83-1.22,1.63-2.65c-1.73,0-2.45-1.63-3.57-2.55c-1.73,0.82-2.14,2.55-3.26,3.57c-1.8-2.02,1.97-4.4-12.23-4.79
		c0-0.92,1.02-1.63,0.31-2.55c-0.82-0.71-1.83-0.41-2.65,0c-9.3,3.99-8.78-0.8-15.9,0.51c-6.34,1.17-1.84-1.12-4.38-2.14
		c-5.18,5.18-9.92,0.29-14.78,6.63c-1.22,0-1.54-1.55-2.65-1.12c-1.03,0.39-1.02,1.53-1.43,2.04c-3.06-0.2-4.79,1.83-6.73,3.16
		c0,1.63,2.34,1.22,1.94,3.06c-1.02,0.82-2.83,1.53-2.85,3.16c-0.16,12.67-3.61-3.05-1.73,34.56c0.23,4.59,2.67,8.67,2.85,13.25
		c0.07,1.73-0.43,3.47,0.2,5.3c1.86,5.33-0.81,9.9-6.32,10.6c-3.32,0.42-21.85,7.54-27.32,13.35c-7.52,7.99-11.96,5.6-15.7,10.09
		c-4.02,4.84-9.31,8.22-13.66,12.64c-3.39,3.44-6.53,7.23-10.5,10.19c-19.08,14.21-18.38,24.79-34.76,39.24
		c-2.54,2.54-3.03,7.07-11.72,18.25c-0.51,0.31-1.83,0.31-3.16,0.2c-1.53,2.55-3.21,4.81-4.28,7.54c-3.45,8.82-7.86,0.27-10.6,20.79
		c-0.61,4.59-0.4,9.28-1.22,13.86c-0.4,2.24-0.48,4.58,0.2,6.73c2.82,8.84-0.24,24.41,22.63,33.23c2.65,1.02,5.5,1.53,7.75,3.06
		c0.71-0.2-0.1-1.43,0.92-1.22c5.61,1.12,11.31-0.67,16.92,0.1c5.77,0.8,5.42-1.52,25.38-5.1c-9.48,16.41-17.74,32.62-25.69,49.03
		c-7.12-1.56-14.64,2.73-15.19,12.13c-0.64,11.01-2.87,8.69-9.17,24.46c-1.17,2.94-2,2.39,18.96,7.95c8.01,2.13,7.5-3.24,16.41,0.82
		c1.33,0.6,2.65,1.73,4.18,0.31c6.74,12.44,2.14,8.37,18.65,10.19c7.64,0.84,15.19,0,22.53-2.04c1.53-4.79,4.38-8.66,7.14-12.74
		c1.63,1.43,2.45,3.26,4.28,4.49c0.41,0.31,0.61-0.6,1.02-0.51c6.7,1.55,13.76,0.49,20.59,1.83c4.08,0.8,7.85-0.39,11.62-1.43
		c2.05-0.56,1.84-1.43,6.32-9.28c3.78,1.82,19.86,3.92,26.81,2.04c7.96-2.16,5.85-6.28,8.97-9.68c8.79,0.19,12.98,3.42,17.12,3.16
		c13.82-0.87,16.02-1.55,18.45-5.1c1.14-1.66,8.91-16,8.36-17.94C426.73,544.94,424.8,537.29,420.72,530.36z M398.09,542.69
		c2.33,14.09,2.58,8.63,0.2,14.07c-0.92,0.31-1.33-0.82-2.34,0.41c-1.22,2.24-2.45,5.3-6.42,5.71c0.41-2.04,2.85-3.06,2.45-5.2
		c-1.53-0.61-1.63,1.12-2.65,1.53c-10.83-33.36-6.74-19.83-14.37-23.44c-1.41-7.61,9.98-5.74,6.73-29.05
		c-2.07-14.83-6.15-15.56-0.82-21.51c11.32-12.62,7.47-20.16,17.53-28.85C403.9,479.75,391.73,504.21,398.09,542.69z M341.21,540.96
		c-21.64-3.44-9.16,0.33-4.89-7.14c1.94-0.51,3.57-0.31,5.1,1.43C341.21,536.99,340.5,538.72,341.21,540.96z M332.24,534.95
		c-1.64,2.13-4.59,1.73-6.83,2.85c-3.26,1.63-6.93-0.12-10.5,0.41c-1.33,0.2-2.65-1.02-3.47-2.34c3.77-6.93,6.48-14.51,11.42-20.9
		c11.49-14.85,4.32-39.87,37.31-56.37c4.04-1.01,6.62-5.84-1.22-0.61c-1.67,1.11-11.82,6.9-22.83,12.13
		c-1.35-7.08,4.27-2.79,6.93-15.09c1.94-0.92,4.08-1.22,5.91-2.85c-2.14-0.41-3.98,0.71-6.42,0.31c3.06-5.61,1.83-11.11,0.1-16
		c1.12-7.44,6.44-11.71,10.19-16.92c2.6-3.62,5.2-3.51,27.62,4.79c5.75,2.13,11.62,3.37,13.76,9.99c1.66,5.12,8.42,7.69-1.02,23.75
		c-7.34,12.49-4.99,11.65-12.95,22.12c-16.21,21.32-21.85,21.87-28.24,30.89C347.29,517.77,332.32,534.84,332.24,534.95z
		 M319.09,449.22c-1.39-4.6-1.12-8.87-0.1-13.25c1.02-0.2,1.94,1.02,3.16,0.2c-0.15-1.04-2.3-1.56-3.26-1.83
		c0-2.85,0-5.71,0.71-8.66c1.94,0.1,3.66,0.42,5.2,1.33c4.91,2.88,18.34,3.8,15.8,21.41c-1.47,10.17,1.58,6.89-3.57,13.96
		c-10.44,14.37,7.15-2.14-19.98,22.73C318.39,472,323.84,464.9,319.09,449.22z M319.91,423.02c4.99-2.04,8.97-4.18,11.42-7.34
		c7.14-0.82,13.76-1.73,20.79,0.41c-5.5,5.1-8.66,11.11-11.11,17.53C335.71,427.41,328.27,425.16,319.91,423.02z M330.2,476.34
		c2.45-2.65,6.32-2.45,9.07-4.49c-2.76,6.38-8.19,9.99-10.6,23.24c-2.83,15.58-9.05,17.25-17.33,35.88
		c-0.82-12.03,0.22-24.05,1.73-35.98C314.15,486.54,320.36,486.99,330.2,476.34z M383.01,348.1c13.1,12.1,13.52,27.87,12.44,30.58
		c-5.38,10.29,1.64,17.39,0.82,28.54c-1.29,17.42,3.93,29.07,3.57,32.31c-8-13.34-4.04-14.55-31.6-21.3
		c-1.83-5.71,0.53-11.14-0.71-16.62c-0.19-0.82-1.83-0.41-2.04-2.04c4.89-3.16,9.17-7.24,12.33-13.25c2.55,3.16,5.61,2.14,9.07,2.45
		c-1.83-2.04-3.87-2.34-5.4-3.47c-0.82-1.63-0.61-4.08-3.06-4.79c-1.02,0.31-0.71,1.83-1.94,2.04c5.36-34.36-7.43-35.47,5.2-32.31
		c-1.53-2.55-3.67-2.96-6.01-3.36c-0.92-3.57-2.24-6.93-2.45-10.8C374.14,342.09,379.14,344.53,383.01,348.1z M378.42,383.27
		c1.12-0.1,0.82,0.92,1.12,1.33C378.32,384.7,378.01,384.19,378.42,383.27z M396.66,238.52c0.2,1.83-0.61,1.94-1.33,2.24
		C394.93,239.54,395.85,239.44,396.66,238.52z M402.68,245.76c-1.83,4.18-6.93,6.73-12.74,6.93
		C393.53,249.1,397.36,251.67,402.68,245.76z M390.96,241.79c0,1.63-0.61,2.34-2.14,2.34c-0.1-1.94-1.33-3.26-3.26-3.98
		C388.61,238.22,388.61,243.01,390.96,241.79z M384.64,249.94c-1.53,0.92-3.16,1.53-5.2,0.92
		C381.07,249.23,383.01,250.14,384.64,249.94z M375.87,237.4c1.1-1.1,2.4,0.89,0.71,1.22C375.97,238.63,375.56,238.12,375.87,237.4z
		 M373.22,255.24c0.31-0.92,1.02-1.43,1.73-1.73C375.46,255.04,374.14,254.94,373.22,255.24z M373.22,249.13
		c2.79,2.09,1.27,3.83,0.31,1.43C373.32,250.04,372.51,249.74,373.22,249.13z M372.2,257.89c-1.02,1.63-2.55,2.55-4.18,3.26
		C368.63,259.12,370.47,258.5,372.2,257.89z M369.45,250.35c-2.55,0.82-3.06-1.22-4.28-1.83
		C366.8,248.51,366.8,248.51,369.45,250.35z M365.17,264.72c0.51,1.12-0.51,0.92-0.92,1.22
		C364.05,265.03,364.35,264.72,365.17,264.72z M360.68,260.75c0.71,0.92-0.1,1.12-0.82,1.53
		C359.77,261.26,359.87,260.85,360.68,260.75z M355.89,247.9c2.25,1.28,0.55,3.41-1.12,2.65
		C353.95,249.23,355.08,248.62,355.89,247.9z M356.3,267.17c0.82,0.92,0.61,1.22,0.2,1.63C355.69,268.29,356.4,267.98,356.3,267.17z
		 M355.69,264.11c-0.48-1.68,0.92-1.22,0.92-0.92C356.71,263.91,356.3,264.11,355.69,264.11z M352.73,274.51
		c-0.82,0.71-0.71-0.41-1.63-0.82C352.32,273.69,352.53,274.1,352.73,274.51z M349.57,236.49c-0.41,0.82-0.92,1.33-1.94,0.82
		C347.94,236.08,348.76,236.18,349.57,236.49z M348.35,245.15c0.82,1.12,1.43,2.04,2.24,3.06c-1.53,0.71-2.45-0.71-3.57-0.41
		C347.23,246.68,347.53,246.07,348.35,245.15z M347.63,271.25c-1.22,0.1-1.73-0.1-1.83-1.02
		C346.82,269.51,347.33,269.82,347.63,271.25z M342.95,242.4c0.13-0.26,1.02-0.69,1.02,0.31
		C343.72,243.7,342.47,243.11,342.95,242.4z M345.6,262.78c-2.34,0.1-2.75-1.53-3.47-2.65C342.95,261.15,344.58,261.15,345.6,262.78
		z M341.52,267.68c-0.51-0.51-0.41-1.02-0.1-1.83C342.74,266.76,342.54,267.27,341.52,267.68z M341.21,247.09
		c0,1.02,0,1.83-1.43,2.04C340.09,248.11,340.3,247.49,341.21,247.09z M338.66,280.11c0.82,0.41,0.82,0.92,0.71,1.53
		C338.36,281.54,338.05,281.13,338.66,280.11z M337.03,249.02c0.31,0.82-0.2,1.02-0.82,1.43
		C336.12,249.43,336.22,249.02,337.03,249.02z M336.52,261.56c0.1,1.73-0.41,2.34-1.63,2.55
		C334.28,262.68,335.1,262.28,336.52,261.56z M335.1,276.65c0.41,0.92,0.41,0.92-0.2,1.83C334.49,277.77,334.59,277.16,335.1,276.65
		z M332.85,269.1c-0.51-1.02-0.41-1.63,0.82-2.04C334.08,268.29,333.36,268.59,332.85,269.1z M325.82,315.08
		c3.67-1.12,6.83-2.65,8.56-6.32c3.06,3.06,6.32,5.61,6.22,10.4c2.24-3.06,1.53-4.69-4.38-12.03c0.51-2.14,0.62-4.58,2.65-6.32
		c0.71-0.61,1.01-1.53,0.71-2.55c-0.83-2.85,0.71-5.2,1.83-7.75c1.22,0.92,0.2,2.96,2.14,3.06c1.63-0.61-0.61-1.94,0.41-2.75
		c3.55-0.15,7.71,7.54,9.79,0.41c-4.59,2.23-6.07-0.83-11.52-5.81c-4.6-4.2-1.05-7.47,2.45-12.23c0.63-0.06,1.09,0.14,1.53,0.42
		c-1.67,0.53-0.55,3.49-4.79,7.02c0.61,1.73,1.43,2.85,3.06,3.57c0.51-1.53-2.75-3.06,0.41-4.08c1.43,1.02,1.02,2.96,2.04,4.49
		c2.28-2.78-2.58-5.85,0.3-8.46c1.39,0.49,2.1,1.84,2.25,2.46c-1.94,2.34-0.71,4.99-0.92,7.65c2.04,0.2,3.98,0.92,4.99-1.12
		c0.1-2.75-2.74-1.74-3.47-3.36c-1.2-2.66,1.73-2.04,2.45-2.85c-1.25-1.75-2.99-2.83-4.19-4.34c5.03,1.4,5.95,6.45,7.86,10.25
		c1.73-0.31,0.51-2.04,1.83-2.24c1.22-0.1,1.83,1.43,3.57,1.12c-8.94-9.83,13.88-21.29,16-27.42c2.55,0.61,4.99,1.22,7.24-0.71
		c0.41-1.02-1.33-0.41-1.12-1.43c2.24-1.12,4.08-2.04,6.12-1.43c0.31,1.12,1.63,0.82,2.14,1.53c0.1,3.57,0.91,6.93,2.14,10.19
		c2.75,7.27-4.19,4.26-0.61,11.62c4.88,10.02,5.88,11.39,1.12,11.62c-1.63,0.08-3.16,0.2-4.49-1.33c-0.41,3.47,0.2,3.98,3.67,3.57
		c0.34,0.34,0.68,2.99,0.71,3.26c-1.22,3.06-5.2,1.53-6.63,4.28c1.73,1.53,2.65-0.51,4.18-0.61c3.76,2.25-1.44,3.46-0.2,9.17
		c0.79,3.67-0.1,5.23-3.57,5.91c-4.38,0.86-8.87,1.22-13.15-1.02c0.2,1.63,1.63,1.33,1.63,1.33c-3.16,10.09-11.01,16.82-15.6,26.2
		c2.75-0.41,2.45-3.16,4.69-4.08c1.94,5.5,1.21,11.42,2.34,17.02c1.31,6.43-2.96,11.11-4.28,16.51c-3.4,3.17-10.64-1.74-14.78-3.87
		c-2.52-1.3-0.41-2.24-5.3-17.53c4.38,2.04,7.34,6.63,12.64,5.2c-0.22-3.05-10.15,0.05-15.8-12.03
		c-6.7-14.31-10.9-15.69-14.98-19.78C324.18,317.57,326.82,316.94,325.82,315.08z M341.11,285.62c1.22,0.71,1.83,1.22,2.14,2.96
		C341.62,287.96,341.32,287.04,341.11,285.62z M289.02,335.36c-1.02,0.51-1.22,1.12-1.73,0.82
		C287.39,335.77,287.6,335.46,289.02,335.36z M284.13,342.6c15.88-12.62,24.88-21.02,38.94-14.58c8.1,3.71,12.65,19.67,13.35,25.48
		c3.02,24.91-2.24,19.87,0.31,23.14c0.92-2.24,2.36-3.97,2.45-6.32c0.81-22.73-3.85-46.46-26.6-46.58
		c-5.22-0.03-10.52,4.43-12.74,5.1c5.71-7.14,14.07-9.58,22.53-12.33c1.39,6.67,6.41,2.39,15.49,23.34
		c13.53,31.19,3.49,25.35,19.67,30.78c7.24,2.43,9.38-1.02,11.11-7.44c5.78-28.92-5.34-28.69,1.33-33.13
		c0.92,12.86,7.49,16.45,4.38,49.64c0,10.25-3.62,14.08-13.46,19.57c-6.73,3.76-14.07,5.71-21.61,6.73c8.46,1.83,16-0.61,23.55-5.91
		c-0.1,6.22,4.59,10.8,2.65,16.82c-10.3-2.55-20.49-5.5-31.7-3.67c2.96-3.77,4.49-7.74,7.34-11.21c3.27-3.97,6.83-8.46,7.65-14.17
		c-2.75,2.55-4.3,5.9-6.52,8.87c-4.65,6.2-18.89,12.14-19.06,12.23c4.18,1.53,7.14-2.45,11.01-2.45
		c-2.14,5.61-6.83,10.4-12.64,12.84c0-5.61-0.48-11.21,0.2-16.62c1.2-9.41,8.6-10.6,12.95-19.57c1.43-2.51-0.23-3.9-2.14,0.31
		c-3.17,6.97-8.56,3.35-11.42,12.13c-4.48,13.78-2.57,11.74-5.5,44.24c-0.57,6.34,0.9,8.68,1.33,25.79
		c0.19,7.49-1.25,8.69-6.42,29.56c-1.95,7.88-0.11,8.9-2.45,39.55c-0.12,1.63-0.51,3.26,0.1,4.79c1.33,0.71,1.33-0.82,1.83-1.02
		c1.44,0.36,0.55,2.1,0.92,1.73c-0.38,0.38-1.34-0.37-1.01,2.45c2.6,22.34,10.92,15.52,4.28,33.03c-2.99,7.88-3.49,3.2-5.13,3.76
		c1.75-3.09,1.81-6.64,3.19-10.18c-2.45,0.41-1.63,2.24-2.45,3.57c-10.77-31.9-8.38-22.58-19.57-26.1c0.71-1.73,0.61-3.77,2.65-4.59
		c-0.82-1.33-1.24-2.75-1.22-4.18c0.23-21.89-13.58-36.5-13.05-64.52c0.41-21.89,1.8-11.55,4.28-12.13
		c-0.2-2.65-1.43-4.89-2.65-7.24c0.82-2.85,1.12-5.81-0.31-8.66c-1.03-1.8,3.67-5.88-0.82-22.43c-4.25-15.69-2.27-28.7,1.02-35.27
		c6.03-10.55-0.07-18.81,1.83-30.48c-3.28,4.84-2.63,16.65-2.45,22.94c0.12,4.16-1.44,6.35-13.25,11.21
		c-1.94-3.47-3.18-6.73-2.55-10.91C266.15,364.71,271.71,352.47,284.13,342.6z M276.38,388.98c-0.82,2.85-1.43,5.3-2.14,7.85
		c-2.34-0.51-4.28-1.12-6.01-3.16C271.59,393.16,273.02,389.79,276.38,388.98z M213.08,418.03c1.33-0.71,2.34,0.41,3.57,0.51
		c0,1.33-1.02,1.73-1.94,2.45C214.71,419.56,212.57,419.66,213.08,418.03z M217.87,421.29c-0.1,0.82-0.1,1.73-1.12,1.83
		C216.04,421.8,217.67,422,217.87,421.29z M209.01,423.33c1.53,0.61,0.31,2.04,1.63,2.65c1.33-1.22,3.06-1.73,5.3-0.61
		c-6.86,3.43-11.43,8.24-12.64,7.54c-1.83-0.92-2.44,0.41-2.34,1.63c0.11,1.43-0.92,1.33-2.14,1.94
		C200.14,430.06,206.97,428.53,209.01,423.33z M208.39,433.52c-0.2,2.96-1.53,6.01,2.24,7.65c-4.69,4.08-9.38,7.75-13.56,12.74
		C198.29,437.79,192.13,441.66,208.39,433.52z M210.66,438.43c1.59,0.11,2.43-1.44,4.16-1.44c-3.43,3.72-2.64,1.61-3.77,1.94
		C210.81,438.35,210.46,438.43,210.66,438.43z M267.41,493.66c-10.42,1.13-20.98,7.51-45.36,3.26c-7.86-1.37-18.22-6.9-21-14.17
		c-2.27-5.94-5.97-18.49-4.79-24.77c5.4-5.81,11.11-10.91,16.92-15.9c5.12,3.07-14.58,13.03-11.52,20.79
		c6.44-9.66,19.79-19.63,22.02-27.11c-2.85,2.04-4.99,4.79-7.85,6.73c-3.49-3.08,4.49-3.19,5.91-10.3c-2.53,1.5-7.19,3.32-4.99,3.87
		c-0.97,1.7-1.82,0.8-1.93,0.9c0-0.44,0.83-0.73,0.83-1.24c-0.01-1.18-4.41,1.91-5.17,2.66c-2.66-1.62-0.55-3.65-0.55-5.46
		c3.36-1.83,7.24-1.94,10.91-4.28c-3.57-0.51-6.01,1.22-8.77,1.22c10.39-7.02,10.97-1.22,21.1-1.22c-2.34,1.83-4.28,2.04-6.22,2.34
		c3.26,1.94,5.81-0.51,8.66-1.53c0.61,0.2,0,1.33,1.33,1.12c1.76-1.63,4.39-3.25,6.74-3.29c-6.3,4.64-13.28,6.79-17.85,12.77
		c0.51-0.2,1.02-0.41,1.53-0.61c-3.51,6.45-8.21,24.61-1.02,7.54c7.36-17.47,16.39-14.64,17.41-19.71c4.18,0,3.29,5.45,8.28,1.06
		c6.05-5.32-2.1-0.79-3.36-0.61c-4.78-5.57-6.74,2-21.81-1.43c-2.83-6.4,0.75-0.16,3.98-0.41c-0.91-2.71-2.6-4.72-4.59-6.43
		c-0.02,0.65-0.24,1.04-1.02,0.62c-2.37-1.27-5.03-1.88-6.73-4.28c-0.26-0.36-0.85-0.49-1.33-0.71c0.35,0.51,0.69,1.04,1.12,1.63
		c-1.12,0.2-1.94-0.1-2.55-0.82c0.31-0.62,0.98-1.45,1.38-0.9c2.93-4.36,5.16-9.23,8.1-13.58c1.73-2.55,4.68-4.29,6.63-6.83
		c13.54-17.7,17.43-24.6,25.79-30.99c6.27-4.8,16.34-17.29,19.06-17.84c-3.59,5.47-14.47,13.37-16.11,38.02
		c-0.22,3.26,1.83,6.12,2.85,9.07c0.1,1.53-1.94,0.82-2.04,2.14c1.22,1.22,1.83-0.2,2.96-0.61c2.14,3.36,6.22,3.47,9.79,5.3
		c0,7.44-0.51,15.09,1.73,22.63c-1.53,0.82-2.65,0.98-4.18,0.82c-8.05-0.89-8.91,3.83-11.82,0.82c-1.45-1.5-3.77,0-5.3-1.43
		c-3.51,2.7-4.58-2.45-7.75-4.18c0.41,2.14,2.14,3.26,3.26,4.89c-1.73,1.43-1.73,1.43-7.75-2.96c1.02,2.85,2.55,4.18,6.83,6.32
		c7.09-5.38,10.42,2.63,16.41-0.71c3.97-2.22,1.59,2.24,10.4-1.63c2.76,6.13-0.38,13.5,2.34,19.78c2.93,6.74-10.93,21.72-5.71,32.72
		C269.66,481.84,270.17,488.06,267.41,493.66z M222.46,421.9c-1.36-0.82-3.02,3.08-1.33-1.43c1.63,0.82,3.67,0.92,4.49,2.85
		c-0.82,0.2-1.63,0.41-2.34,0.71C222.46,423.53,223.58,422.31,222.46,421.9z M273.12,474.09c0.31-4.99,1.12-9.17,3.16-13.05
		C275.06,465.22,277.81,470.22,273.12,474.09z M272.1,484.9c0.88-3.76,2.14-7.14,3.77-10.5c0.41,14.68,2.45,28.95,9.89,42
		c-3.26,1.53-4.7,4.48-6.42,7.14c-3.38,5.19-7.98,9.57-9.89,15.7c-0.41,1.32-1.53,1.43-2.85,1.12c-0.51-1.33,0.51-2.65,0.41-4.18
		c-1.33,1.12-1.53,2.65-2.24,3.87c-1.53,0.71-3.36-0.2-5.1,0.92c-0.41,2.34-2.24,4.38-2.65,6.93c-2.34,1.02-4.59,0.31-6.83,0
		c-0.1-2.14,1.73-3.87,0.92-6.22c-1.94,1.43-2.04,3.67-3.26,5.61C233.66,548.95,264.36,518.13,272.1,484.9z M241.83,546.77
		c1.73,2.34,4.28,2.85,6.93,3.47c-5.45,1.92-11.16,8.66-13.15,3.87C237.95,553.58,236.26,552.9,241.83,546.77z M234.9,548.4
		c0.82-1.02,1.83-1.22,3.06-1.22c-0.92,2.34-2.96,4.18-2.34,6.83C232.86,552.38,235.61,550.14,234.9,548.4z M234.9,585.81
		c-4.89-1.45-9.68-3.36-14.78-4.08c-0.29-5.2,9.87-13.71,8.77-22.32c-0.52-4.08,1.53-6.93,3.77-10.09
		c-1.94,6.32,2.96,7.14,6.83,9.07c6.67-2.46,6.27-4.88,12.54-5.3c7.04-0.48,8.23-7.82,9.58-9.17c4.89-0.82,5.5-0.61,9.68,2.04
		c2.29-0.92-2.31-2.44,5.1-12.84c12.95-18.21,8.86-21.57,13.66,3.26c0.59,3.04-0.61,6.73-1.94,10.6
		c-9.17-4.59-17.02,1.33-25.69,2.14c0,5.4-5.71,6.42-7.34,10.5c-0.31,1.12,1.22,1.12,1.12,2.85c-7.48,7.48-3.63,15.86,0.31,25.69
		C241.05,581.46,245.5,588.95,234.9,585.81z M296.97,596.31c-15.71,2.33-1.99,3.27-34.05,0.41c-4.59-6.93-6.56-14.91-9.79-22.32
		c-0.8-1.84-0.3-3.36,0.71-4.69c4.41-5.79,6.73-12.54,9.99-19.16c20.58-5.74,10.62-3.52,29.46-1.43c-2.14,1.02-4.69,0.1-6.63,1.33
		c3.26,0.61,6.42,0.71,9.28-1.43c5.83,1.12,7.03,9.64,13.15,27.01C304.21,582.45,300.54,589.07,296.97,596.31z M380.25,576.84
		c-2.92,6.22-21.6,4.15-28.24,2.45c-4.35-0.87,2.28-6.09,2.14-11.42c-0.9-0.45,0.31-2.48-11.72,20.28c-24.28,2.37-2.2,0.2-26.2,0.2
		c-4.18,0-7.85-0.92-9.58-5.61c0.2-1.1,1.39-1.81,2.11-2.91c-0.08-0.08-0.09-0.1,0.05,0.04c0.18,3.23,4.59,2.62,5.69,0.01
		c1.47-3.49,2.94-6.75,5.91-9.48c3.24-2.98,2.89-6.07-0.31-8.05c-4.57-2.84-4.02-7.54-7.03-13.56c-1.35-2.69-1.92-5.43-2.03-8.44
		c1.57,0.18,3.22,0.26,4.78-0.22c5.55-1.73,10.77,0.79,21.92,1.83c9.44,0.88,4.45,3.25,13.15,21.41c0.49,1.03,0.61,2.34,2.04,2.75
		c1.76-1.97-9.14-24.27-8.77-27.62c0.2-5.1,0.2-5.1-4.89-7.44c12.33-13.35,21.51-29.36,36.8-39.86c2.85,9.79,2.85,19.98,4.08,30.89
		c-2.34,3.77-6.42,7.65-8.05,13.56c-8.56-2.34-16.92-0.71-25.38,1.63c-0.82,0.82-1.43,2.14-1.53,3.57c8.21-6.7,20.89-5,31.29-3.26
		c-0.61,0.51-0.92,0.71-1.43,1.12c1.83,0,3.67,0.51,4.69-1.53c1.33,1.43,1.81,2.86,2.24,4.38
		C389.66,568.91,389.52,557.1,380.25,576.84z M319.71,563.69c1.9,3.17,1.4,4.09-2.04,7.34
		C318.27,568.23,320.23,566.47,319.71,563.69z M386.37,570.11c0.1-2.34,1.22-3.87,2.34-5.91c3.26,0.51,5.5-2.34,8.36-2.45
		c4.58-7.39,5.06-8.02,4.49-10.8c-1.22-5.93-1.52-12.06-3.36-17.94c-0.48-1.54-0.31-3.26,0.1-5.2c7.03,1.12,13.66,4.38,21.1,3.98
		c4.08,6.63,5.5,14.07,8.15,21.3C415.87,570.17,426.74,576.91,386.37,570.11z"/>
	<path d="M573.01,196.22c-0.08-1.12,0.61-2.34-0.61-3.57c-4.89,3.67-4.36,8.72,0.92,11.11c5.03,2.28,5.67,3.8,10.5,10.7
		C581.74,202.52,573.79,207.11,573.01,196.22z"/>
	<path d="M606.44,310.49c-8.17,5.88-7.49,9.6-12.63,8.67c0.45,4.8,3.16,0.7,4.78,1.11c1.02,0.41,1.43,1.73,3.06,1.53
		c4.49-2.24,7.24-6.73,11.11-10.09c-4.89,1.43-7.03,6.93-12.44,8.26C601.32,313.8,607.11,314.46,606.44,310.49z"/>
	<path d="M686.36,322.82c3.47-5.1,5.57-10.98,8.36-16.41c0.31-0.61,0-1.12-0.82-1.12C692.12,308.87,683,326.18,686.36,322.82z"/>
	<path d="M548.75,135.88c-1.94-2.96-2.04-6.32-5.1-8.77C543.14,131.09,545.08,134.35,548.75,135.88z"/>
	<path d="M576.27,216.71c-1.12-3.87-2.34-7.54-2.96-11.42C571.79,208.66,573.32,214.26,576.27,216.71z"/>
	<path d="M694.11,303.56c-8.93-22.04-5.41-7.83-0.1,1.63C694.21,304.68,694.31,304.07,694.11,303.56z"/>
	<path d="M572.91,232c-1.83-3.47-2.65-6.83-4.28-9.99C568.73,226.9,569.95,229.86,572.91,232z"/>
	<path d="M566.69,351.16c0.09-0.96,0.07-1.93,0-2.92C566.69,349.23,566.69,350.21,566.69,351.16z"/>
	<path d="M565.87,337.81c-0.08,0.91,0.82,21.43,0.82,1.73C566.69,339.03,566.79,338.32,565.87,337.81z"/>
	<path d="M573.72,234.75c1.73,3.87,3.26,7.44,4.89,11.01C578.92,242.7,575.86,236.28,573.72,234.75z"/>
	<path d="M572.81,315.18c-0.2-0.1-0.41-0.2-0.71-0.31C568.37,327.58,566.86,334.98,572.81,315.18z"/>
	<path d="M594.42,278.28c1.53,2.14-1.73,3.47-1.02,5.61C596.35,281.74,596.56,280.72,594.42,278.28z"/>
	<path d="M610.11,340.46c1.73-1.83,3.36-3.57,4.99-5.4C613.48,336.69,611.54,338.32,610.11,340.46z"/>
	<path d="M561.29,104.89c1.83,2.45,4.08,2.65,6.01,3.36C565.87,106.62,564.55,104.89,561.29,104.89z"/>
	<path d="M571.07,101.73c-2.14-1.83-3.98-1.33-6.12-0.92C566.89,102.55,568.73,101.83,571.07,101.73z"/>
	<path d="M552.62,139.95c-0.1-1.73-0.61-3.06-1.94-4.49C549.46,137.92,549.57,138.22,552.62,139.95z"/>
	<path d="M569.75,300.4c-0.51-2.45-1.94-4.49-3.36-6.52C567,296.32,568.02,298.56,569.75,300.4z"/>
	<path d="M562.51,214.98c1.33,1.94,2.45,3.47,3.57,4.99C565.87,217.02,565.67,216.61,562.51,214.98z"/>
	<path d="M591.26,271.04c1.02,1.73,1.63,3.67,2.55,5.5C594.21,274.1,592.99,272.47,591.26,271.04z"/>
	<path d="M586.97,236.28c0-3.51-3.59-6.72-2.96-6.93c-3.82-3.52-1.77-6.25-5.2-7.85c0.82,2.57,2.79,8.47,5.1,7.87
		C583.52,232.32,586.16,233.95,586.97,236.28z"/>
	<path d="M624.08,363.19c-0.71-1.83-1.94-3.16-3.77-4.08C621.02,361.05,622.35,362.37,624.08,363.19z"/>
	<path d="M543.86,119.87c-1.12,1.12-1.33,2.14-0.31,3.67C544.57,122.12,544.26,121.1,543.86,119.87z"/>
	<path d="M553.44,110.7c0.2,1.83,1.02,2.75,2.34,4.08C555.38,112.94,555.07,111.82,553.44,110.7z"/>
	<path d="M629.18,388.57c-1.53-0.31-2.75-0.2-4.38-0.1C626.32,388.88,627.65,388.77,629.18,388.57z"/>
	<path d="M583.1,311.71c-2.04,0-3.36,0-4.69,0C579.74,312.43,581.16,312.22,583.1,311.71z"/>
	<path d="M571.68,305.29c-0.2,2.04,0.61,3.36,1.73,4.49C573.42,308.15,572.81,306.82,571.68,305.29z"/>
	<path d="M560.37,147.4c1.22,0.92,1.73,1.94,3.47,2.65C562.41,147.7,562.41,147.7,560.37,147.4z"/>
	<path d="M654.96,359.52c-0.41,1.94-0.82,3.16,0,4.79C655.58,362.68,655.37,361.46,654.96,359.52z"/>
	<path d="M580.45,120.38c-0.2,0.92-0.31,1.83,0,2.75C580.76,122.22,580.76,121.3,580.45,120.38z"/>
	<path d="M570.16,364.62c0.61,1.22,1.63,1.43,3.26,1.94C572.19,365.23,571.48,364.51,570.16,364.62z"/>
	<path d="M656.29,327.61c0.41,1.83,0.61,2.85,0.82,3.98C657.61,330.37,657.92,329.14,656.29,327.61z"/>
	<path d="M585.65,311.31c0.1,0,1.02-0.01,1.02-0.31C586.57,311,585.65,311,585.65,311.31z"/>
	<path d="M606.55,310.59c1.02,0.51,1.83,0.41,1.83-1.33C607.36,309.27,606.95,309.88,606.55,310.59z"/>
	<path d="M553.54,141.08c0.31,1.02,0.92,1.33,1.94,0.92C555.07,141.18,554.66,140.46,553.54,141.08z"/>
	<path d="M556.7,143.83c0.31,0.71,0.71,1.12,2.04,1.12C558.03,144.03,557.92,143.32,556.7,143.83z"/>
	<path d="M604.1,346.88c0.1-0.51,0.31-1.02,0.51-1.53C603.59,345.55,603.79,346.17,604.1,346.88z"/>
	<path d="M606.04,343.01c-1.43,1.02-1.83,1.53-1.33,2.45C605.02,344.84,605.32,344.23,606.04,343.01z"/>
	<path d="M566.28,379.4c-0.61,0.71,0.1,1.33-0.1,1.94C566.28,380.82,566.59,380.11,566.28,379.4z"/>
	<path d="M608.58,303.97c-0.61,0.51-0.61,0.92,0,1.63C608.79,305.09,609.5,304.88,608.58,303.97z"/>
	<path d="M589.22,250.25c0-0.82-0.2-1.43-1.02-1.43C588.2,249.53,588.5,250.04,589.22,250.25z"/>
	<path d="M626.53,204.27c1.94-7.95,1.63-15.9-0.31-23.75C626.32,188.37,627.24,196.32,626.53,204.27z"/>
	<path d="M599.92,192.86c3.16,4.38,4.89,9.17,8.15,13.15C608.08,200.61,604.61,194.69,599.92,192.86z"/>
	<path d="M629.89,158.2c0.31-3.16,0.31-3.16-0.82-5.81c-0.92-0.61-1.73-0.2-2.96,0.2c0,1.94-1.02,3.67-0.61,5.81
		C628.41,151.63,626.67,156.91,629.89,158.2z"/>
	<path d="M599.11,241.48c-0.61-4.59-0.2-9.38-2.55-13.66C597.58,232.31,597.07,237.1,599.11,241.48z"/>
	<path d="M627.65,225.78c-0.1-2.34-0.31-4.59-0.51-6.83C626.83,221.3,626.42,223.64,627.65,225.78z"/>
	<path d="M607.46,239.14c0,1.63,0.61,2.75,1.33,3.77C609.2,241.48,608.79,240.26,607.46,239.14z"/>
	<path d="M602.47,165.03c-0.92-1.83-1.73-2.14-2.96-0.41C600.33,165.85,601.25,165.85,602.47,165.03z"/>
	<path d="M608.48,165.54c-1.12-1.43-2.24-1.53-3.87-0.82C606.04,165.44,607.06,165.74,608.48,165.54z"/>
	<path d="M626.93,210.7c-1.12,1.43-0.41,2.34,0.2,3.26C627.44,212.94,627.75,211.92,626.93,210.7z"/>
	<path d="M637.23,166.25c-0.41-0.82-0.82-1.63-1.94-0.61C635.8,166.15,636.11,166.87,637.23,166.25z"/>
	<path d="M633.86,164.21c-0.24-1.93-2.57-1.15-1.33,0.1C632.95,164.62,633.35,164.83,633.86,164.21z"/>
	<path d="M631.52,161.87c0.31-0.82,0-1.22-0.92-1.33C630.09,161.56,630.19,162.07,631.52,161.87z"/>
	<path d="M609.5,207.74c-0.1-1.02-0.71-1.43-1.53-1.73C608.28,206.72,608.08,207.84,609.5,207.74z"/>
	<path d="M617.96,207.03c-0.51,0-0.82,0.31-1.12,1.22C617.56,207.84,618.37,208.25,617.96,207.03z"/>
	<path d="M642.69,255.49c-1.06,0.81-0.57,1.81-0.06,2.81c1.6,3.17,2.85,6.63,4.99,9.48c2.78,3.71,0.97,7.79,3.16,11.21
		c1.63-3.77,1.03-7.45-0.41-9.89C649.3,267.28,642.11,253.15,642.69,255.49z"/>
	<path d="M624.69,280.62c1.25-0.63,2.03,1.21-17.53-19.67C612.25,268.19,618.27,274.61,624.69,280.62z"/>
	<path d="M656.09,209.27c1.73-1.63,1.73-3.16,1.33-4.89C655.68,206.42,655.68,206.42,656.09,209.27z"/>
	<path d="M633.56,263.7c0.41-2.55,0.31-4.99-0.92-7.85C632.23,258.91,633.46,261.26,633.56,263.7z"/>
	<path d="M654.25,218.65c0.92-2.14,1.33-3.67,0.71-5.2C653.74,214.88,653.95,216.4,654.25,218.65z"/>
	<path d="M619.59,258.5c0-4.71-1.98-2.57-1.12-1.43C618.78,257.59,618.47,258.5,619.59,258.5z"/>
	<path d="M667.3,255.14c0.41-1.33,0.71-2.14-0.2-3.57C666.38,253,666.48,253.92,667.3,255.14z"/>
	<path d="M658.63,203.15c1.12-0.71,1.33-1.43,0.61-2.45C658.12,201.32,657.72,202.03,658.63,203.15z"/>
	<path d="M667.3,261.15c0.41-1.43,0.71-2.34-0.31-3.26C666.38,259.01,666.38,259.93,667.3,261.15z"/>
	<path d="M654.35,226.09c0.41-0.71,0.41-1.33-0.31-2.14C653.13,224.97,653.64,225.58,654.35,226.09z"/>
	<path d="M651.19,279.09c-0.41,1.02-0.41,1.73,0.51,2.34C652.31,280.42,652.11,279.71,651.19,279.09z"/>
	<path d="M650.79,209.07c0.31,0.71,0.82,1.02,1.73,0.82C652.21,208.96,651.8,208.56,650.79,209.07z"/>
	<path d="M667.09,248.21c-0.41,0.61-0.41,1.22,0.2,1.73C667.91,249.23,668.01,248.72,667.09,248.21z"/>
	<path d="M581.47,418.95c0.61-1.33,1.63-2.55,1.33-4.38c-3.6,0.19-3.14,7.27-4.18,9.58c-2.51,5.62,2.67,5.94,3.26,11.82
		C586.62,426.48,577.45,429.32,581.47,418.95z"/>
	<path d="M565.16,443.21c-3.26,3.06-5.71,12.64-4.89,18.35C561.9,455.44,563.53,449.32,565.16,443.21z"/>
	<path d="M548.24,522.51c-1.83,4.08-1.53,8.36-1.53,12.64C548.34,531.07,547.02,526.59,548.24,522.51z"/>
	<path d="M587.08,411.61c-2.55-3.26-5.61-5.61-7.54-5.81C581.16,409.16,583.31,410.79,587.08,411.61z"/>
	<path d="M577.9,395.2c-0.82,2.75-0.2,5.4,0.92,8.05C579.64,400.5,578.92,397.85,577.9,395.2z"/>
	<path d="M563.43,409.26c-1.02,2.04-1.63,4.08-1.02,6.93C563.73,413.54,564.55,411.51,563.43,409.26z"/>
	<path d="M564.14,422.82c0.61-2.04-0.71-3.87-0.41-5.81C561.29,420.37,561.39,421.19,564.14,422.82z"/>
	<path d="M549.26,463.8c-1.12,1.94-1.94,3.98-1.02,6.93C549.67,468.18,549.16,465.94,549.26,463.8z"/>
	<path d="M570.97,430.67c0.92,1.63,1.83,3.16,2.75,4.69C573.61,433.13,572.96,429.67,570.97,430.67z"/>
	<path d="M557.52,470.73c-1.22,1.73-1.83,2.96-1.22,5.2C557.52,474.3,558.33,473.18,557.52,470.73z"/>
	<path d="M559.25,463.49c-1.73,1.63-1.63,3.06-1.33,4.99C559.55,467.16,559.55,465.63,559.25,463.49z"/>
	<path d="M553.95,483.67c1.33-0.71,2.24-1.73,1.43-3.67C554.05,481.02,553.95,482.25,553.95,483.67z"/>
	<path d="M552.93,449.32c-0.82,1.83-0.82,1.83-0.2,3.87C553.23,451.77,553.85,450.75,552.93,449.32z"/>
	<path d="M548.85,520.57c0.71-1.43,1.53-2.45,0-4.28C548.44,518.13,548.04,519.15,548.85,520.57z"/>
	<path d="M598.6,403.66c-0.82,1.12-0.71,2.04,0.1,3.36C599.72,405.49,599.72,404.57,598.6,403.66z"/>
	<path d="M570.36,416.09c-0.1,0.82-1.02,1.33-0.31,2.45C570.97,417.72,571.07,416.91,570.36,416.09z"/>
	<path d="M571.58,411.4c-1.02,0.41-1.12,1.02-0.82,2.04C571.68,413.03,571.89,412.42,571.58,411.4z"/>
	<path d="M555.07,436.99c0.61-0.82,0.82-1.33,0.1-1.83C554.36,435.66,554.15,436.17,555.07,436.99z"/>
	<path d="M554.36,442.09c-1.12,0.51-1.02,1.22-0.51,2.14C554.87,443.61,555.07,443,554.36,442.09z"/>
	<path d="M569.44,423.43c0.92-1.53-1.51-0.93-0.51,0.41C569.14,423.74,569.44,423.64,569.44,423.43z"/>
	<path d="M593.19,410.08c0.2,0.2,0.51-0.31,0.71-0.92C592.99,409.37,592.68,409.67,593.19,410.08z"/>
	<path d="M589.52,412.93c1.87,0.37,0.57-1.98-0.41-0.51C589.32,412.63,589.32,412.83,589.52,412.93z"/>
	<path d="M590.03,421.39c0.31-0.71,0.2-1.12-0.61-1.33C588.81,420.88,589.12,421.29,590.03,421.39z"/>
	<path d="M645.38,403.35c-0.4-0.4-3.36,2.65-11.72,2.45c1.64,3.82,6.7,3.19,9.58,0.31C643.85,405.08,645.08,404.57,645.38,403.35z"
		/>
	<path d="M643.24,406.1c-2.24,4.08,0,7.54,1.63,10.91c-2.45,4.38-1.63,8.15,2.34,10.3c1-1,0.12,2.57-2.45-19.67
		C644.57,406.61,644.26,406.1,643.24,406.1z"/>
	<path d="M627.24,439.44c0.92,2.24,1.73,4.38,2.55,6.52C630.3,441.47,629.69,440.15,627.24,439.44z"/>
	<path d="M645.28,403.25c2.75-0.51,4.69-1.73,5.71-5.2C648.34,399.78,646.5,401.11,645.28,403.25z"/>
	<path d="M632.95,460.43c0.1-1.94,0.92-3.57-1.02-4.89C631.83,457.38,631.32,458.8,632.95,460.43z"/>
	<path d="M633.86,404.47c-0.41-1.53-1.43-2.34-2.85-3.06C631.93,404.06,631.93,404.06,633.86,404.47z"/>
	<path d="M631.62,476.34c1.02-1.63,1.12-2.85,0.92-4.28C631.32,473.07,630.91,474.3,631.62,476.34z"/>
	<path d="M632.74,463.29c-0.71,1.22-0.51,2.14,0.1,3.26C634.37,465.43,633.97,464.41,632.74,463.29z"/>
	<path d="M620.21,418.44c0.31,1.33,0.71,2.24,1.94,2.65C621.84,420.17,622.24,418.74,620.21,418.44z"/>
	<path d="M624.28,435.56c-0.61,0.71-0.31,1.22,0.61,1.73C625.4,436.28,625.4,435.66,624.28,435.56z"/>
	<path d="M646.4,433.63c0.71-0.61,0.71-1.33,0.1-2.85C645.89,432.2,645.18,432.91,646.4,433.63z"/>
	<path d="M629.07,483.47c0.82-0.31,1.33-0.82,1.12-1.94C629.69,482.04,628.46,482.15,629.07,483.47z"/>
	<path d="M629.99,399.17c-0.2-1.33-0.1-2.24-1.63-2.85C628.16,397.64,628.46,398.46,629.99,399.17z"/>
	<path d="M626.32,489.79c0.82-0.2,1.33-0.61,1.22-1.94C626.42,488.36,625.91,488.77,626.32,489.79z"/>
	<path d="M626.32,509.46c-0.41,0.41-0.41,0.82-0.1,1.22C626.73,510.28,626.63,509.87,626.32,509.46z"/>
	<path d="M626.32,516.6c0.51-0.51,0.41-1.02,0-1.53C625.81,515.58,625.91,516.09,626.32,516.6z"/>
	<path d="M624.79,492.64c0.82,0,1.22-0.31,0.92-1.73C624.89,491.52,624.18,491.73,624.79,492.64z"/>
	<path d="M618.47,34.45c18.49,3.36,1.61-7.59-6.63,1.12C614.5,36.8,616.23,34.05,618.47,34.45z"/>
	<path d="M606.95,106.01c-1.21-2.55-2.03-2.28-15.29-4.79C591.44,103.02,594.39,103.25,606.95,106.01z"/>
	<path d="M591.77,101.12c-0.71-3.67-0.71-7.65-3.77-11.01c-0.51,3.87,0.95,6.95,1.73,10.09
		C590.01,101.33,590.95,101.22,591.77,101.12z"/>
	<path d="M616.43,40.67c2.85-0.92,5.3,1.33,7.44-0.82c0-2.42,0.45-2.3-0.2-2.96C621.22,37.41,618.47,37.41,616.43,40.67z"/>
	<path d="M603.69,86.95c0.82-4.38-1.22-7.54-4.49-10.09C604.65,88.92,601.31,86.15,603.69,86.95z"/>
	<path d="M582.18,66.26c-0.41,1.53-0.41,1.53,0.1,3.87C583,67.58,583,67.58,582.18,66.26z"/>
	<path d="M582.49,72.07c-0.61,1.33-0.51,2.34,0.82,3.16C583.82,73.9,583.61,72.98,582.49,72.07z"/>
	<path d="M614.7,75.94c-1.02-1.12-2.34-1.12-3.67-1.22C612.15,75.43,613.07,76.76,614.7,75.94z"/>
	<path d="M586.36,84.3c-0.61,1.12-0.1,1.73,0.82,2.96C587.48,85.73,587.59,84.81,586.36,84.3z"/>
	<path d="M584.94,81.55c0.31-1.33,0.1-2.24-1.12-2.45C583.41,80.12,583.82,80.83,584.94,81.55z"/>
	<path d="M605.02,89.09c0.1-1.12,0.2-2.14-1.43-2.14C603.9,87.76,604.1,88.58,605.02,89.09z"/>
	<path d="M623.26,123.03c-0.31-0.82-0.51-1.43-1.63-1.73C621.84,122.22,622.04,122.83,623.26,123.03z"/>
	<path d="M602.88,52.39c-0.51-0.92-0.82-1.53-1.94-1.33C601.14,51.99,601.55,52.39,602.88,52.39z"/>
	<path d="M597.07,74.41c0.41-0.71,0.2-1.12-0.61-1.33C595.95,73.9,596.35,74.21,597.07,74.41z"/>
	<path d="M606.44,54.43c-1.02-0.61-1.02-1.53-2.24-0.92C604.41,54.43,604.92,54.74,606.44,54.43z"/>
	<path d="M559.86,569.3c-2.55-0.18-4.38,1.53-4.38,3.98c0,3.26,1.83,4.18,7.75,3.77C563.84,571.24,563.02,569.53,559.86,569.3z
		 M560.06,573.89c-0.93,0.49-0.1,1.33-0.31,1.94c-1.43,0.2-2.25-0.4-2.55-1.53c-1.08-4.14,5.01-4.78,4.79-0.61
		C561.29,574.6,560.67,573.57,560.06,573.89z"/>
	<path d="M549.87,568.59c-8.65,1.62,0.62,14.45,5.2,4.08C553.74,569.4,552.21,568.15,549.87,568.59z M550.58,575.21
		c-3.42-0.49-3.24-5.1,0.1-5.1C553.81,570.11,553.98,574.76,550.58,575.21z"/>
	<path d="M539.47,568.38c-0.41,2.24-0.71,4.59-0.1,7.14c1.83-0.2,0.82-2.34,2.75-2.04c1.02,0,0.71,2.65,2.85,2.14
		c0-1.22-1.02-2.35,0.31-3.77C548.06,568.86,541.44,566.87,539.47,568.38z M540.7,570.11c1.53-1.12,2.45-0.61,3.77,0.51
		C542.63,572.15,541.61,572.15,540.7,570.11z"/>
	<path d="M584.73,565.73c-3.47-0.61-6.12,0.92-9.17,2.34C580.86,569.5,583.2,568.99,584.73,565.73z"/>
	<path d="M587.28,570.01c1.44-3.61-2.61-2.1-5.81,0.92c4.58-1.74,7.02,2.89,8.66-0.41C589.32,569.3,588.2,570.32,587.28,570.01z"/>
	<path d="M636.62,310.69c-2.45,4.59-4.79,12.74-4.69,16.21C633.46,324.56,636.72,313.34,636.62,310.69z"/>
	<path d="M629.79,288.06c1.43,5.4,3.16,10.6,5.91,15.39C634.68,298.05,632.03,293.16,629.79,288.06z"/>
	<path d="M650.28,306.92c-3.36-0.51-6.52,0.1-9.79,0.61C643.75,307.84,647.12,308.25,650.28,306.92z"/>
	<path d="M669.86,284.73c-1.55-1.37,1.45,4.42,2.07,3.8C672.08,288.38,671.58,286.25,669.86,284.73z"/>
	<path d="M674.76,292.66c-0.36-0.97-2.3-4.66-2.83-4.13C671.81,288.65,672.9,291.87,674.76,292.66z"/>
	<path d="M674.84,292.86l0.1-0.1C674.75,292.7,674.7,292.53,674.84,292.86z"/>
	<path d="M677.49,297.95c-0.9-0.5-0.15-1.87-1.25-2.21l0.03-0.03c-0.11-0.08-0.09-0.14-0.09,0.1
		C676.18,295.53,676.09,297.39,677.49,297.95z"/>
	<path d="M676.18,295.64c0.06-1.23-0.27-2.2-1.44-2.78C674.74,293.95,675.13,294.93,676.18,295.64z"/>
	<path d="M562.51,249.02c-1.63,5.61-4.69,10.4-6.32,16.51C559.64,262.09,567.17,250.48,562.51,249.02z"/>
	<path d="M561.7,283.07c1.63-0.51,2.96-1.33,3.16-3.26C563.33,280.42,562.41,281.64,561.7,283.07z"/>
	<path d="M572.81,280.11c-0.71,1.22-1.02,2.04-1.02,3.36C572.91,282.56,573.83,281.85,572.81,280.11z"/>
	<path d="M573.42,267.88c0.1-1.12,0-1.63-0.92-1.53C572.3,267.07,572.7,267.47,573.42,267.88z"/>
	<path d="M574.74,274.3c0.31-0.51,0.51-1.02-0.1-1.73C574.03,273.39,573.93,273.9,574.74,274.3z"/>
	<path d="M286.27,464.31c-2.07,3.31,2.8,2.06,4.49,13.66c4,27.56,0.6,26.06,3.57,44.54c0.84,5.24,2.85,13.25,2.85,7.95
		C290.3,493.16,300.39,477.36,286.27,464.31z"/>
	<path d="M285.86,400.39c-3.22,3.22,3.36,14.21,8.87,13.46c5.87-0.45,4.62,2.84,5.3,4.08c0-1.22,0.82-2.04,0.82-3.16
		C292.94,406.11,290.5,416.38,285.86,400.39z"/>
	<path d="M304.31,456.87l0.1,0.1C304.36,456.86,304.42,456.92,304.31,456.87z"/>
	<path d="M304.38,456.9c1,0.5,2.09,1.1,3.09,1.6c0.1-1.63-0.92-2.85-1.83-4.08c-1.94-2.22-0.34-4.4-1.43-8.46
		C299.91,429.92,299.47,447.71,304.38,456.9z"/>
	<path d="M310.63,390.61c-1.53-4.99-4.18-8.97-6.01-13.35C303.6,382.05,306.35,388.37,310.63,390.61z"/>
	<path d="M305.13,468.28c0.1-3.87-0.2-7.65-0.82-11.42C301.56,459.92,301.87,466.14,305.13,468.28z"/>
	<path d="M305.43,469.71c-1.43,3.36-1.12,14.68,0.61,16.82C305.19,473.69,307.53,473.38,305.43,469.71z"/>
	<path d="M320.11,337.2c-2.55-0.1-5.2-1.73-7.85,0.2C314.74,338.34,320.59,339.82,320.11,337.2z"/>
	<path d="M330.1,338.32c-2.14-1.02-2.14-1.02-8.56,1.22C324.39,339.23,327.25,338.83,330.1,338.32z"/>
	<path d="M302.48,512.52c-0.41-4.18-0.31-8.36-0.51-12.54C301.76,504.16,301.46,508.44,302.48,512.52z"/>
	<path d="M301.56,335.67c2.45,0.71,4.79,1.33,7.34,2.04C307.07,334.75,304.72,334.14,301.56,335.67z"/>
	<path d="M304.82,366.35c-0.31,0-0.71,0.1-1.12,0.2C303.22,372.76,306,381.63,304.82,366.35z"/>
	<path d="M301.36,375.22c-0.41-2.45-1.02-4.59-3.06-6.01C298.81,371.55,299.52,373.69,301.36,375.22z"/>
	<path d="M283.01,468.38c0.1-1.83,1.12-3.57-0.51-5.4C281.38,465.73,281.38,465.73,283.01,468.38z"/>
	<path d="M296.87,426.59c1.32,0.66,0.67,0.7,2.65-5.91C297.95,419.9,297.03,424.95,296.87,426.59z"/>
	<path d="M307.37,458.6c-0.92,1.94,0.51,2.75,1.73,3.67C309.31,460.64,309.1,459.21,307.37,458.6z"/>
	<path d="M324.09,334.75c-1.53,0.51-3.47,0.31-3.87,2.55C322.15,337.5,323.17,336.28,324.09,334.75z"/>
	<path d="M282.4,419.86c0.71-1.02,1.83-2.04,0.92-3.77C281.89,417.11,281.79,418.34,282.4,419.86z"/>
	<path d="M309.72,468.28c-1.06,0-0.44,1.79,1.33,3.26C311.04,469.91,311.24,468.69,309.72,468.28z"/>
	<path d="M305.64,351.06c-0.71,0.92-1.22,1.83-0.71,3.26C305.74,353.1,306.56,352.28,305.64,351.06z"/>
	<path d="M296.87,362.99c-0.51,1.12,0,1.83,1.02,3.06C298.1,364.51,298.1,363.5,296.87,362.99z"/>
	<path d="M285.86,375.42c-0.61-0.61-0.61-1.33-1.73-1.02C284.23,375.32,284.74,375.52,285.86,375.42z"/>
	<path d="M291.27,342.8c-1.12,0.2-1.53,0.92-1.73,2.45C290.55,344.54,291.27,343.92,291.27,342.8z"/>
	<path d="M310.63,466.75c-0.51-1.22-0.31-2.14-1.33-2.34C309.21,465.33,309.21,465.94,310.63,466.75z"/>
	<path d="M304.72,361.46c0.41-0.61,0.61-1.12,0-1.43C304.11,360.44,303.8,360.84,304.72,361.46z"/>
	<path d="M294.94,355.65c0.41-0.51,0.2-1.02-0.1-1.53C293.81,354.12,293.8,355.32,294.94,355.65z"/>
	<path d="M355.28,372.57c0-0.94-1.67,0.6-0.82,1.73C355.18,373.89,355.38,373.28,355.28,372.57z"/>
	<path d="M295.85,360.74c0.51-0.82,0.41-1.33-0.41-1.73C294.94,359.72,294.94,360.34,295.85,360.74z"/>
	<path d="M282.7,349.33c-0.61,0.1-1.02,0.41-0.82,1.22C282.7,350.55,283.21,350.35,282.7,349.33z"/>
	<path d="M281.68,425.98c0.82-0.41,0.92-0.82,0.31-1.43C281.38,425.06,281.07,425.47,281.68,425.98z"/>
	<path d="M239.08,454.73c-5.82,1.92-0.45,0.05-0.1,2.85c1.83-2.55,3.87-1.53,6.32-0.92c-3.26,6.93-5.61,13.76-5.2,21.2
		c1.02-7.34,3.57-14.27,5.71-21.1c-1.73-1.43-3.77-0.61-4.89-2.14c1.43-3.77,4.79-6.42,5.4-10.5
		C243.66,447.49,241.01,450.75,239.08,454.73z"/>
	<path d="M218.17,457.56C207.13,480.85,212.21,478.38,218.17,457.56L218.17,457.56z"/>
	<path d="M220.42,448.92c-0.74,3.16-1.5,6.05-2.25,8.65c1.52-3.2,3.34-6.9,5.51-11.09C221.95,447.39,222.15,449.83,220.42,448.92z"
		/>
	<path d="M255.49,376.64c5.6-12.38,8.83-12.58,6.73-14.47C253.22,373.35,253.16,381.79,255.49,376.64z"/>
	<path d="M267.82,412.42c0.1-0.1,0.75-0.45,0.41-1.43c-2.68-7.62,3.52-9.22,0.51-12.23c-2.24,0.92-0.2,4.18-3.47,4.59
		C266.7,406.41,264.66,410.08,267.82,412.42z"/>
	<path d="M230.21,484.18c-0.2-4.99-1.22-9.89-1.53-14.88C228.27,474.4,228.47,479.39,230.21,484.18z"/>
	<path d="M233.47,447.08c-1.43,1.33-1.83,3.16-2.24,4.89c0.35,0.35-1.61,1.62-2.14,4.49c1.43-0.82,2.34-1.73,3.77-1.22
		c1.03,0.47,2.24,0.5,3.46,0.34C227.31,452.86,232.76,453.78,233.47,447.08z"/>
	<path d="M258.85,406.51c0.31-1.63,1.73-3.26,0.41-5.4C256.91,403.05,257.53,404.68,258.85,406.51z"/>
	<path d="M255.28,379.5c-0.51-0.61-1.02-1.12-1.43-1.63C253.91,378.83,248.87,387.88,255.28,379.5z"/>
	<path d="M252.12,383.17c-0.01-0.05-0.01-0.09-0.02-0.14C251.99,383.06,252.02,383.07,252.12,383.17z"/>
	<path d="M230.72,422.51c0.71,1.33,1.22,2.75,2.96,3.98C233.16,424.25,232.25,423.13,230.72,422.51z"/>
	<path d="M252.02,383.07c-0.92,0.92-2.24,1.63-2.45,3.67C251.21,385.61,252.63,385,252.02,383.07z"/>
	<path d="M248.66,395.81c-1.02-0.31-1.94-0.61-2.75,0.41C247.54,396.83,247.54,396.83,248.66,395.81z"/>
	<path d="M266.5,456.76c-1.73,0-2.75,0-3.98,0C263.74,457.07,264.76,457.07,266.5,456.76z"/>
	<path d="M257.53,408.04c-0.71,1.43,0.1,2.04,1.12,2.45C258.55,409.57,259.26,408.24,257.53,408.04z"/>
	<path d="M234.08,394.38c1.63-0.82,2.14-1.73,2.14-3.36C234.9,391.73,234.39,392.55,234.08,394.38z"/>
	<path d="M253.24,456.15c1.4,1.2,2.8,1.02,4.2,0.15C256.07,456.66,254.61,456.73,253.24,456.15z"/>
	<path d="M257.53,456.25c-0.03,0.02-0.05,0.03-0.08,0.05C257.62,456.25,257.71,456.25,257.53,456.25z"/>
	<path d="M234.59,443.51c-1.53,1.43-1.22,2.55-1.02,3.67C234.39,446.27,234.49,445.25,234.59,443.51z"/>
	<path d="M254.67,395.3c1.12,0.2,2.04,0.2,2.24-1.22C255.89,393.77,255.18,394.08,254.67,395.3z"/>
	<path d="M265.37,428.32c0.82-0.41,1.73-0.41,1.83-2.24C266.19,426.69,265.48,427,265.37,428.32z"/>
	<path d="M245.5,435.26c-0.41,0.41-1.22,0.31-1.12,1.12C244.89,436.17,245.6,436.28,245.5,435.26z"/>
	<path d="M244.27,436.28c-0.71-0.1-1.22,0.1-1.43,0.92C243.56,437.29,243.97,436.89,244.27,436.28z"/>
	<path d="M252.79,456.11c0.15,0.02,0.31,0.02,0.46-0.06C253.09,456.07,252.94,456.09,252.79,456.11z"/>
	<path d="M251.1,456.25c0.68-0.08,1.2-0.09,1.68-0.14C252.31,456.04,251.8,455.71,251.1,456.25z"/>
	<path d="M257.63,456.15c0.51,0,1.12,0.1,1.73,0.1C259.36,455.96,259.64,455.82,257.63,456.15z"/>
	<path d="M241.22,385.21c1.02,0.2,1.33-0.31,1.63-1.43C241.83,384.09,241.22,384.29,241.22,385.21z"/>
	<path d="M237.24,389.59c0.82-0.31,1.33-0.82,1.12-2.24C237.55,388.06,236.73,388.47,237.24,389.59z"/>
	<path d="M225.31,417.72c0,0.71,0.41,1.12,1.02,1.43C226.33,418.44,226.13,417.93,225.31,417.72z"/>
	<path d="M371.59,467.37c-2.5,0-1.25,5.4-12.44,22.83C365.78,486.02,373.42,472.05,371.59,467.37z"/>
	<path d="M373.32,447.08c7.35-3.31,13.74-6.87,11.01-15.9c-2.59,12.94-0.91,10.21-15.09,15.7
		C371.08,448.41,372.2,447.49,373.32,447.08z"/>
	<path d="M379.95,451.36c-2.04,3.67-1.43,5.61,4.18,11.52c0.41-3.47-1.94-5.3-3.67-7.34C379.54,454.22,381.68,452.69,379.95,451.36z
		"/>
	<path d="M390.85,445.45c-3.36,1.53-4.08,5.71-1.63,9.38C388.61,451.57,390.75,448.81,390.85,445.45z"/>
	<path d="M318.99,537.6c1.94-1.12,2.75-2.65,3.06-4.59C320.52,534.13,318.58,534.95,318.99,537.6z"/>
	<path d="M359.05,490.1c-2.45,0.2-3.06,2.34-4.08,3.98C356.81,493.26,358.85,492.54,359.05,490.1z"/>
	<path d="M390.96,443.11c-0.1-2.04-0.1-2.04-2.04-4.18C389.53,440.56,389.43,442.19,390.96,443.11z"/>
	<path d="M351.71,495.7c-0.82,0.71-1.94,0.71-2.45,2.45C351.32,497.33,352.95,496.94,351.71,495.7z"/>
	<path d="M339.38,502.43c1.12-0.82,2.14-0.61,1.94-1.83C340.3,500.39,339.89,500.7,339.38,502.43z"/>
	<path d="M368.23,459.52c0.71-0.82,0.2-1.33-0.41-1.94C367.21,458.6,367.51,459.11,368.23,459.52z"/>
	<path d="M383.21,428.53c-0.1-1.02-0.51-1.43-1.63-1.33C381.78,428.12,382.09,428.73,383.21,428.53z"/>
	<path d="M352.94,450.75c-0.75,0-1.02,0.94-0.31,1.12C353.58,452.19,353.69,451,352.94,450.75z"/>
	<path d="M365.98,454.22c-1.07,0.36-1.59,0.84-1.94,1.43C364.86,455.54,366.08,456.05,365.98,454.22z"/>
	<path d="M369.65,464.92c0.71-0.51,0.31-0.92-0.31-1.83C369.14,464,368.74,464.51,369.65,464.92z"/>
	<path d="M323.37,530.97c0.61-0.1,0.92-0.51,0.92-1.43C323.27,529.75,322.97,530.16,323.37,530.97z"/>
	<path d="M344.78,499.88c0.71,0.31,1.12-0.1,1.63-1.12C345.29,498.76,344.68,498.86,344.78,499.88z"/>
	<path d="M388.82,269.1c1.22,0.31,1.94-0.61,1.83-1.94c-4.59-2.85-11.72-2.04-15.49,1.83C378.04,269.72,380.54,266.99,388.82,269.1z
		"/>
	<path d="M379.85,274.2c3.16-0.51,5.71,1.53,8.05-0.61c0-1.02,0-1.94,0-3.06C385.15,271.04,382.39,271.25,379.85,274.2z"/>
	<path d="M360.89,301.32c-3.57-2.14-3.87-5.91-5.3-10.09C353.55,296.52,355.99,300.7,360.89,301.32z"/>
	<path d="M360.27,310.18c-2.85,3.36-2.34,9.38,0.92,12.64C359.87,318.75,359.46,314.57,360.27,310.18z"/>
	<path d="M346.41,293.36c-1.63,2.04-1.33,3.57,0.1,5.1C346.41,296.83,347.43,295.2,346.41,293.36z"/>
	<path d="M347.33,303.35c0.41-1.43,0.71-2.55-0.71-3.77C346.11,301.01,345.8,302.03,347.33,303.35z"/>
	<path d="M346.92,304.58c-0.31,0.82-0.2,1.63,0.61,2.85C348.04,304.78,347.84,304.27,346.92,304.58z"/>
	<path d="M358.85,342.39c1.63-0.82,1.63-0.82,1.83-2.55C359.66,340.56,358.85,341.07,358.85,342.39z"/>
	<path d="M342.03,321.91c0.71-0.92,0.61-1.53,0-2.14C340.91,320.58,341.01,321.19,342.03,321.91z"/>
	<path d="M358.13,350.75c1.12,0.41,1.83,0.31,2.24-0.82C359.36,349.43,358.75,349.84,358.13,350.75z"/>
	<path d="M341.82,326.19c0.71-0.92,1.12-1.43,0.31-2.34C341.21,324.35,341.01,324.96,341.82,326.19z"/>
	<path d="M369.04,307.23c-1.63-0.2-2.24,0.71-2.65,1.94C367.72,309.06,368.43,308.35,369.04,307.23z"/>
	<path d="M346.11,310.9c0.51,0.71,0.51,1.53,1.53,1.53C347.74,311.31,347.53,310.69,346.11,310.9z"/>
	<path d="M368.84,289.19c-0.41-1.12-0.92-1.43-1.83-1.33C367.21,288.98,367.72,289.39,368.84,289.19z"/>
	<path d="M365.37,286.84c-0.2-0.92-0.71-1.43-2.04-1.33C363.74,286.74,364.35,287.15,365.37,286.84z"/>
	<path d="M342.03,329.86c0.61-0.51,1.02-0.92,0.41-2.04C341.52,328.53,341.52,329.14,342.03,329.86z"/>
	<path d="M375.36,561.04c-2.55-4.99-3.47-10.7-6.32-15.6C371.08,556.03,376.76,565.24,375.36,561.04z"/>
	<path d="M339.17,566.24c-1.53-4.99-3.57-9.79-6.32-14.07C335,556.96,336.32,561.96,339.17,566.24z"/>
	<path d="M339.17,568.89c-1.94,2.55-3.47,5.3-4.18,8.56C337.14,574.91,338.36,572.05,339.17,568.89z"/>
	<path d="M369.24,576.74c2.21-2.05,2.71-4.41,3.06-4.59C382.34,555.67,369.71,572.3,369.24,576.74z"/>
	<path d="M380.25,562.98c1.53-0.2,3.26,0.82,5.1-0.71C383.21,562.06,381.68,561.86,380.25,562.98z"/>
	<path d="M346.92,567.36c4.65,0,3.56,0.11,3.87-0.2C346.47,567.16,346.92,567.09,346.92,567.36z"/>
	<path d="M367.92,542.08c0.1,1.22,0.1,2.45,1.22,3.26C369.35,544.12,368.63,543.1,367.92,542.08z"/>
	<path d="M317.05,543.71c1.22,0.1,2.55,0.2,3.77,0.31C319.71,543,318.38,543.41,317.05,543.71z"/>
	<path d="M324.29,544.12c-1.22,0-2.34,0-3.47,0C321.95,544.63,323.07,544.63,324.29,544.12z"/>
	<path d="M331.33,584.69c0.17-0.17,0.31,0.05,0.31-0.71C331.22,584.08,331.22,584.39,331.33,584.69z"/>
	<path d="M282.09,572.15c-2.55-0.18-4.38,1.53-4.38,3.98c0,3.16,1.73,4.08,7.75,3.77C286.17,574.19,285.35,572.39,282.09,572.15z
		 M282.09,576.94c-0.61,0.51,0.51,1.22-0.31,1.63c-1.12,0.1-2.01-0.51-2.24-1.73c-0.57-3.01,3.26-5.41,4.69-0.31
		C283.72,577.45,282.6,576.13,282.09,576.94z"/>
	<path d="M271.9,571.54c-8.1,2.14,0.62,14.13,5.5,4.08C275.87,572.05,274.34,570.9,271.9,571.54z M273.02,577.96
		c-3.37,0.21-3.67-5.1-0.2-5.1C276.4,573.11,275.95,577.96,273.02,577.96z"/>
	<path d="M265.88,571.03c-3.01-0.25-5.52-1.98-4.38,7.14c2.04,0.71,0.92-2.04,2.34-1.94c1.63,0,1.33,2.55,3.47,2.34
		c-0.51-1.53-0.41-2.85,0.51-4.28C268.74,572.87,267.92,571.34,265.88,571.03z M263.34,572.36c1.33-0.1,2.45-0.2,2.96,1.02
		C264.36,575.21,264.05,575.11,263.34,572.36z"/>
	<path d="M297.89,579.49c2.24,0.31,4.49,0.51,6.42-1.12C302.17,578.68,300.03,579.19,297.89,579.49z"/>
	<path d="M282.3,551.56c-2.45-0.1-4.79-1.43-7.85-0.82C277.4,551.77,279.85,552.17,282.3,551.56z"/>
	<path d="M292.29,572.66c0.61,1.43,1.22,2.85,1.83,4.28C294.43,575.11,293.71,573.68,292.29,572.66z"/>
	<path d="M290.96,585.61c0.3,0.3,0.25,0.57,0.51,0.31c0.61-0.61,1.33-1.02,1.22-2.34C291.98,584.49,291.47,585,290.96,585.61z"/>
	<path d="M287.9,589.79c0.26,0.26-2.14,0.71-2.14,4.08c0.06-0.1,2.4-3.87,2.45-3.77c0.92-0.71,1.63-1.53,1.73-2.75
		C288.92,587.95,288.21,588.67,287.9,589.79z"/>
	<path d="M389.33,411.51c1.12-4.38,1.12-4.38-0.51-5.61C389.02,407.94,389.12,409.67,389.33,411.51z"/>
	<path d="M387.19,397.34c0,2.55,0.41,4.38,1.83,6.52C389.12,401.21,388.92,399.38,387.19,397.34z"/>
	<path d="M389.73,421.9c-0.1-1.33,0.71-2.55,0.2-3.98C388.82,419.25,388.92,420.58,389.73,421.9z"/>
	<path d="M389.53,413.85c-0.61,0.82-0.31,1.33,0.51,1.83C390.55,414.67,390.35,414.16,389.53,413.85z"/>
	<path d="M387.69,501.61c-1.73,1.83-1.73,3.47-1.73,5.91C387.49,505.59,387.69,504.06,387.69,501.61z"/>
	<path d="M383.72,516.19c1.22-1.73,1.33-3.06,0.92-4.79C383.41,512.83,383.41,514.15,383.72,516.19z"/>
	<path d="M382.5,492.03c0.31-0.82,0.61-1.63-0.2-2.55C380.97,490.61,381.88,491.32,382.5,492.03z"/>
	<path d="M255.49,531.28c-2.55,3.47-3.67,6.32-3.26,8.56C253.55,538.11,255.39,533.11,255.49,531.28z"/>
	<path d="M259.05,524.55c-1.66,1.66-1.92,3.23-1.63,4.38C258.55,527.51,259.36,526.49,259.05,524.55z"/>
	<path d="M261.7,518.64c-0.92,1.02-1.63,1.63-0.61,2.96C261.4,520.57,262.21,520.07,261.7,518.64z"/>
	<path d="M264.76,513.03c-1.02,0.51-1.33,1.02-0.61,1.73C264.56,514.36,264.86,513.95,264.76,513.03z"/>
	<path d="M408.49,570.22c1.22-2.34,2.45-4.79,3.67-7.14C410.02,564.92,408.9,567.36,408.49,570.22z"/>
	<path d="M399.52,533.52c1.02,0.61,1.94,1.22,3.16,0.41C401.66,532.91,400.64,533.21,399.52,533.52z"/>
	<path d="M409.2,542.08c-0.31-0.51-0.61-1.02-1.02-1.83C407.98,541.37,408.59,541.78,409.2,542.08z"/>
	<path d="M326.84,460.13c-1.22-2.85-2.96-5.1-2.65-8.46C320.25,454.53,322.01,459.36,326.84,460.13z"/>
	<path d="M327.66,450.24c2.34-4.38,2.34-5.71,0-7.54C327.04,445.25,327.25,447.69,327.66,450.24z"/>
	<path d="M325.72,462.17c-2.24,2.45-1.02,5.71-2.14,8.36C325.52,468.08,325.72,465.12,325.72,462.17z"/>
	<path d="M326.94,471.95c1.63,0.2,2.96,0.61,3.87-1.12C329.29,470.42,328.06,470.53,326.94,471.95z"/>
	<path d="M334.69,435.97c-0.31-1.63-1.33-1.94-2.55-2.45C332.34,435.05,332.85,435.97,334.69,435.97z"/>
	<path d="M325.21,429.96c-0.41-0.61-0.51-1.53-1.63-1.12C323.48,430.16,324.6,429.65,325.21,429.96z"/>
	<path d="M324.39,439.13c-0.2,0.92,0.31,1.33,1.33,1.63C325.72,439.64,325.52,438.93,324.39,439.13z"/>
	<path d="M327.35,430.87c-0.61-1.02-1.43-0.82-2.24-0.92C325.82,430.16,326.13,431.38,327.35,430.87z"/>
<path fill="#e6e6e6" d="m206.8 163.6c0-5.1 4.1-9.2 9.3-9.2s9.2 4.2 9.2 9.2-4.1 9.2-9.3 9.2-9.2-4.1-9.2-9.2zm17.3-.1c0-4.5-3.5-8.2-8.2-8.2s-8.2 3.7-8.2 8.3c0 4.5 3.5 8.2 8.2 8.2s8.2-3.7 8.2-8.3zm-13 0c0-2.8 2.1-5.1 5.1-5.1 1.9 0 2.9.6 3.9 1.5l-1.4 1.7c-.8-.7-1.5-1.1-2.5-1.1-1.7 0-2.8 1.4-2.8 3.1s1.1 3 2.8 3c1.1 0 1.7-.5 2.5-1.1l1.4 1.4c-1.1 1.1-2.1 1.7-4 1.7-2.9 0-5-2.3-5-5.1z"/><path fill="#e6e6e6" d="m226.6 154.7h3.4l4.2 13.2 4.4-13.3h2.6l4.4 13.3 4.2-13.2h3.3l-6.2 18h-2.7l-4.4-12.8-4.4 12.8h-2.7z"/><path fill="#e6e6e6" d="m252.8 165.8c0-3.9 3.1-7 7.2-7 4.2 0 7.2 3.2 7.2 7s-3.1 7-7.3 7c-4 0-7.1-3.1-7.1-7zm11.3 0c0-2.3-1.7-4.3-4.2-4.3s-4.1 2-4.1 4.3 1.7 4.3 4.1 4.3c2.7.1 4.2-1.9 4.2-4.3z"/><path fill="#e6e6e6" d="m269.5 159.1h3.1v3c.8-2 2.4-3.4 4.8-3.3v3.2h-.2c-2.7 0-4.6 1.7-4.6 5.4v5.1h-3.1z"/><path fill="#e6e6e6" d="m279.1 153.9h3.1v11.1l5.6-6h3.8l-5.4 5.5 5.5 8h-3.5l-4.1-5.8-1.9 2v3.9h-3.1z"/><path fill="#e6e6e6" d="m291.7 165.8c0-3.9 3.1-7 7.2-7 4.2 0 7.2 3.2 7.2 7s-3.1 7-7.3 7c-4 0-7.1-3.1-7.1-7zm11.3 0c0-2.3-1.7-4.3-4.2-4.3s-4.1 2-4.1 4.3 1.7 4.3 4.1 4.3c2.6.1 4.2-1.9 4.2-4.3z"/><path fill="#e6e6e6" d="m308.2 167.6v-8.6h3.1v7.6c0 2.1 1.1 3.3 2.9 3.3s3-1.3 3-3.3v-7.6h3.1v13.4h-3.1v-2.1c-.8 1.3-2.1 2.3-4.2 2.3-3.1.2-4.8-1.8-4.8-5z"/><path fill="#e6e6e6" d="m323.9 168.8v-7.1h-1.7v-2.6h1.7v-3.7h3.1v3.7h3.6v2.6h-3.6v6.6c0 1.2.6 1.7 1.7 1.7.7 0 1.3-.2 1.9-.5v2.5c-.8.5-1.7.7-2.8.7-2.3 0-3.9-.9-3.9-3.9z"/><path fill="#e6e6e6" d="m333.2 154.7h3.2v15h9.4v2.9h-12.5v-17.9z"/><path fill="#e6e6e6" d="m356 172.5v-1.7c-.9 1.1-2.3 2-4.4 2-2.6 0-4.8-1.4-4.8-4.2 0-3 2.3-4.4 5.4-4.4 1.7 0 2.6.2 3.7.5v-.2c0-1.9-1.2-2.9-3.3-2.9-1.5 0-2.6.3-3.9.8l-.8-2.5c1.5-.7 2.9-1.1 5.1-1.1 4 0 5.9 2.1 5.9 5.7v8zm.1-5.6c-.8-.3-1.9-.5-3.1-.5-2 0-3.1.8-3.1 2.1s1.1 2 2.6 2c2 0 3.5-1.1 3.5-2.9z"/><path fill="#e6e6e6" d="m364.9 170.5v2.1h-3.1v-18.7h3.1v7.4c1-1.4 2.4-2.5 4.5-2.5 3.2 0 6.3 2.5 6.3 7s-3.1 7-6.3 7c-2.1 0-3.5-1.1-4.5-2.3zm7.7-4.7c0-2.6-1.7-4.3-3.9-4.3s-3.9 1.7-3.9 4.4c0 2.6 1.8 4.3 3.9 4.3s3.9-1.7 3.9-4.4z"/><path fill="#e6e6e6" d="m376.9 170.8 1.4-2.1c1.4 1.1 3 1.7 4.4 1.7s2.1-.5 2.1-1.5-1.3-1.4-2.8-1.8c-.1 0-.2-.1-.2-.1-2-.6-4.2-1.4-4.2-4s2.1-4.1 4.8-4.1c1.7 0 3.5.6 5 1.5l-1.2 2.2c-1.3-.8-2.6-1.3-3.8-1.3s-1.9.5-1.9 1.4 1.3 1.4 2.8 1.8c.1 0 .2.1.2.1 2 .6 4.2 1.5 4.2 4 0 2.9-2.2 4.2-5 4.2-1.9 0-4-.7-5.8-2z"/><path fill="#e6e6e6" d="m505.6 163.6c0-5.1 4.1-9.2 9.3-9.2s9.2 4.2 9.2 9.2-4.1 9.2-9.3 9.2-9.2-4.1-9.2-9.2zm17.4-.1c0-4.5-3.5-8.2-8.2-8.2s-8.2 3.7-8.2 8.3c0 4.5 3.5 8.2 8.2 8.2s8.2-3.7 8.2-8.3zm-13.1 0c0-2.8 2.1-5.1 5.1-5.1 1.9 0 2.9.6 3.9 1.5l-1.4 1.7c-.8-.7-1.5-1.1-2.5-1.1-1.7 0-2.8 1.4-2.8 3.1s1.1 3 2.8 3c1.1 0 1.7-.5 2.5-1.1l1.4 1.4c-1.1 1.1-2.1 1.7-4 1.7-2.9 0-5-2.3-5-5.1z"/><path fill="#e6e6e6" d="m525.4 154.7h3.4l4.2 13.2 4.4-13.3h2.6l4.4 13.3 4.2-13.2h3.3l-6.2 18h-2.7l-4.4-12.8-4.4 12.8h-2.7z"/><path fill="#e6e6e6" d="m551.7 165.8c0-3.9 3.1-7 7.2-7 4.2 0 7.2 3.2 7.2 7s-3.1 7-7.3 7c-4.1 0-7.1-3.1-7.1-7zm11.2 0c0-2.3-1.7-4.3-4.2-4.3s-4.1 2-4.1 4.3 1.7 4.3 4.1 4.3c2.7.1 4.2-1.9 4.2-4.3z"/><path fill="#e6e6e6" d="m568.3 159.1h3.1v3c.8-2 2.4-3.4 4.8-3.3v3.2h-.2c-2.7 0-4.6 1.7-4.6 5.4v5.1h-3.1z"/><path fill="#e6e6e6" d="m577.9 153.9h3.1v11.1l5.6-6h3.8l-5.4 5.5 5.5 8h-3.5l-4.1-5.8-1.9 2v3.9h-3.1z"/><path fill="#e6e6e6" d="m590.6 165.8c0-3.9 3.1-7 7.2-7 4.2 0 7.2 3.2 7.2 7s-3.1 7-7.3 7c-4.1 0-7.1-3.1-7.1-7zm11.2 0c0-2.3-1.7-4.3-4.2-4.3s-4.1 2-4.1 4.3 1.7 4.3 4.1 4.3c2.6.1 4.2-1.9 4.2-4.3z"/><path fill="#e6e6e6" d="m607 167.6v-8.6h3.1v7.6c0 2.1 1.1 3.3 2.9 3.3s3-1.3 3-3.3v-7.6h3.1v13.4h-3.1v-2.1c-.8 1.3-2.1 2.3-4.2 2.3-3 .2-4.8-1.8-4.8-5z"/><path fill="#e6e6e6" d="m622.7 168.8v-7.1h-1.7v-2.6h1.7v-3.7h3.1v3.7h3.6v2.6h-3.6v6.6c0 1.2.6 1.7 1.7 1.7.7 0 1.3-.2 1.9-.5v2.5c-.8.5-1.7.7-2.8.7-2.3 0-3.9-.9-3.9-3.9z"/><path fill="#e6e6e6" d="m632 154.7h3.2v15h9.4v2.9h-12.6z"/><path fill="#e6e6e6" d="m654.8 172.5v-1.7c-.9 1.1-2.3 2-4.4 2-2.6 0-4.8-1.4-4.8-4.2 0-3 2.3-4.4 5.4-4.4 1.7 0 2.6.2 3.7.5v-.2c0-1.9-1.2-2.9-3.3-2.9-1.5 0-2.6.3-3.9.8l-.8-2.5c1.5-.7 2.9-1.1 5.1-1.1 4 0 5.9 2.1 5.9 5.7v8zm.1-5.6c-.8-.3-1.9-.5-3.1-.5-2 0-3.1.8-3.1 2.1s1.1 2 2.6 2c2 0 3.5-1.1 3.5-2.9z"/><path fill="#e6e6e6" d="m663.7 170.5v2.1h-3.1v-18.7h3.1v7.4c1-1.4 2.4-2.5 4.5-2.5 3.2 0 6.3 2.5 6.3 7s-3.1 7-6.3 7c-2.1 0-3.5-1.1-4.5-2.3zm7.8-4.7c0-2.6-1.7-4.3-3.9-4.3-2.1 0-3.9 1.7-3.9 4.4 0 2.6 1.8 4.3 3.9 4.3s3.9-1.7 3.9-4.4z"/><path fill="#e6e6e6" d="m675.8 170.8 1.4-2.1c1.4 1.1 3 1.7 4.4 1.7s2.1-.5 2.1-1.5-1.3-1.4-2.8-1.8c-.1 0-.2-.1-.2-.1-2-.6-4.2-1.4-4.2-4s2.1-4.1 4.8-4.1c1.7 0 3.5.6 5 1.5l-1.2 2.2c-1.3-.8-2.6-1.3-3.8-1.3s-1.9.5-1.9 1.4 1.3 1.4 2.8 1.8c.1 0 .2.1.2.1 2 .6 4.2 1.5 4.2 4 0 2.9-2.2 4.2-5 4.2-2 0-4.1-.7-5.8-2z"/><path fill="#e6e6e6" d="m61 298.6c0-5.1 4.1-9.2 9.3-9.2s9.2 4.2 9.2 9.2-4.1 9.2-9.3 9.2c-5.1 0-9.2-4.2-9.2-9.2zm17.4-.1c0-4.5-3.5-8.2-8.2-8.2s-8.2 3.7-8.2 8.3c0 4.5 3.5 8.2 8.2 8.2s8.2-3.7 8.2-8.3zm-13.1-.1c0-2.8 2.1-5.1 5.1-5.1 1.9 0 2.9.6 3.9 1.5l-1.4 1.7c-.8-.7-1.5-1.1-2.5-1.1-1.7 0-2.8 1.4-2.8 3.1s1.1 3 2.8 3c1.1 0 1.7-.5 2.5-1.1l1.4 1.4c-1.1 1.1-2.1 1.7-4 1.7-2.8.1-5-2.2-5-5.1z"/><path fill="#e6e6e6" d="m80.9 289.7h3.4l4.2 13.2 4.4-13.3h2.6l4.4 13.3 4.2-13.2h3.3l-6.2 18h-2.7l-4.4-12.8-4.4 12.8h-2.7z"/><path fill="#e6e6e6" d="m107.1 300.8c0-3.9 3.1-7 7.2-7s7.2 3.2 7.2 7-3.1 7-7.3 7c-4 0-7.1-3.1-7.1-7zm11.3 0c0-2.3-1.7-4.3-4.2-4.3s-4.1 2-4.1 4.3 1.7 4.3 4.1 4.3c2.6.1 4.2-1.9 4.2-4.3z"/><path fill="#e6e6e6" d="m123.7 294h3.1v3c.8-2 2.4-3.4 4.8-3.3v3.2h-.2c-2.7 0-4.6 1.7-4.6 5.4v5.1h-3.1z"/><path fill="#e6e6e6" d="m133.4 288.9h3.1v11.1l5.6-6h3.8l-5.4 5.5 5.5 8h-3.5l-4.1-5.8-1.9 1.9v3.9h-3.1z"/><path fill="#e6e6e6" d="m146 300.8c0-3.9 3.1-7 7.2-7s7.2 3.2 7.2 7-3.1 7-7.3 7c-4.1 0-7.1-3.1-7.1-7zm11.2 0c0-2.3-1.7-4.3-4.2-4.3s-4.1 2-4.1 4.3 1.7 4.3 4.1 4.3c2.6.1 4.2-1.9 4.2-4.3z"/><path fill="#e6e6e6" d="m162.4 302.6v-8.6h3.1v7.6c0 2.1 1.1 3.3 2.9 3.3s3-1.3 3-3.3v-7.6h3.1v13.4h-3.1v-2.1c-.8 1.3-2.1 2.3-4.2 2.3-3 .2-4.8-1.8-4.8-5z"/><path fill="#e6e6e6" d="m178.1 303.8v-7.1h-1.7v-2.7h1.7v-3.7h3.1v3.7h3.6v2.6h-3.6v6.6c0 1.2.6 1.7 1.7 1.7.7 0 1.3-.2 1.9-.5v2.5c-.8.5-1.7.7-2.8.7-2.3.1-3.9-.9-3.9-3.8z"/><path fill="#e6e6e6" d="m187.4 289.7h3.2v15h9.4v2.9h-12.5v-17.9z"/><path fill="#e6e6e6" d="m210.2 307.5v-1.7c-.9 1.1-2.3 2-4.4 2-2.6 0-4.8-1.4-4.8-4.2 0-3 2.3-4.4 5.4-4.4 1.7 0 2.6.2 3.7.5v-.2c0-1.9-1.2-2.9-3.3-2.9-1.5 0-2.6.3-3.9.8l-.8-2.5c1.5-.7 2.9-1.1 5.1-1.1 4 0 5.9 2.1 5.9 5.7v8zm.1-5.6c-.8-.3-1.9-.5-3.1-.5-2 0-3.1.8-3.1 2.1s1.1 2 2.6 2c2 0 3.5-1.1 3.5-2.9z"/><path fill="#e6e6e6" d="m219.2 305.5v2.1h-3.1v-18.7h3.1v7.4c1-1.4 2.4-2.5 4.5-2.5 3.2 0 6.3 2.5 6.3 7s-3.1 7-6.3 7c-2.2 0-3.6-1.1-4.5-2.3zm7.7-4.7c0-2.6-1.7-4.3-3.9-4.3s-3.9 1.7-3.9 4.4c0 2.6 1.8 4.3 3.9 4.3s3.9-1.7 3.9-4.4z"/><path fill="#e6e6e6" d="m231.2 305.8 1.4-2.1c1.4 1.1 3 1.7 4.4 1.7s2.1-.5 2.1-1.5-1.3-1.4-2.8-1.8c-.1 0-.2-.1-.2-.1-2-.6-4.2-1.4-4.2-4s2.1-4.1 4.8-4.1c1.7 0 3.5.6 5 1.5l-1.2 2.2c-1.3-.8-2.6-1.3-3.8-1.3s-1.9.5-1.9 1.4 1.3 1.4 2.8 1.8c.1 0 .2.1.2.1 2 .6 4.2 1.5 4.2 4 0 2.9-2.2 4.2-5 4.2-2 0-4.1-.7-5.8-2z"/><path fill="#e6e6e6" d="m360.6 298.6c0-5.1 4.1-9.2 9.3-9.2s9.2 4.2 9.2 9.2-4.1 9.2-9.3 9.2-9.2-4.2-9.2-9.2zm17.4-.1c0-4.5-3.5-8.2-8.2-8.2s-8.2 3.7-8.2 8.3c0 4.5 3.5 8.2 8.2 8.2s8.2-3.7 8.2-8.3zm-13.1-.1c0-2.8 2.1-5.1 5.1-5.1 1.9 0 2.9.6 3.9 1.5l-1.4 1.7c-.8-.7-1.5-1.1-2.5-1.1-1.7 0-2.8 1.4-2.8 3.1s1.1 3 2.8 3c1.1 0 1.7-.5 2.5-1.1l1.4 1.4c-1.1 1.1-2.1 1.7-4 1.7-2.8.1-5-2.2-5-5.1z"/><path fill="#e6e6e6" d="m380.5 289.7h3.4l4.2 13.2 4.4-13.3h2.6l4.4 13.3 4.2-13.2h3.3l-6.2 18h-2.7l-4.4-12.8-4.4 12.8h-2.7z"/><path fill="#e6e6e6" d="m406.7 300.8c0-3.9 3.1-7 7.2-7 4.2 0 7.2 3.2 7.2 7s-3.1 7-7.3 7c-4.1 0-7.1-3.1-7.1-7zm11.3 0c0-2.3-1.7-4.3-4.2-4.3s-4.1 2-4.1 4.3 1.7 4.3 4.1 4.3c2.7.1 4.2-1.9 4.2-4.3z"/><path fill="#e6e6e6" d="m423.3 294h3.1v3c.8-2 2.4-3.4 4.8-3.3v3.2h-.2c-2.7 0-4.6 1.7-4.6 5.4v5.1h-3.1z"/><path fill="#e6e6e6" d="m433 288.9h3.1v11.1l5.6-6h3.8l-5.4 5.5 5.5 8h-3.5l-4.1-5.8-1.9 2v3.9h-3.1z"/><path fill="#e6e6e6" d="m445.6 300.8c0-3.9 3.1-7 7.2-7 4.2 0 7.2 3.2 7.2 7s-3.1 7-7.3 7c-4.1 0-7.1-3.1-7.1-7zm11.3 0c0-2.3-1.7-4.3-4.2-4.3s-4.1 2-4.1 4.3 1.7 4.3 4.1 4.3c2.6.1 4.2-1.9 4.2-4.3z"/><path fill="#e6e6e6" d="m462.1 302.6v-8.6h3.1v7.6c0 2.1 1.1 3.3 2.9 3.3s3-1.3 3-3.3v-7.6h3.1v13.4h-3.1v-2.1c-.8 1.3-2.1 2.3-4.2 2.3-3.1.2-4.8-1.8-4.8-5z"/><path fill="#e6e6e6" d="m477.8 303.8v-7.1h-1.8v-2.7h1.7v-3.7h3.1v3.7h3.6v2.6h-3.6v6.6c0 1.2.6 1.7 1.7 1.7.7 0 1.3-.2 1.9-.5v2.5c-.8.5-1.7.7-2.8.7-2.2.1-3.8-.9-3.8-3.8z"/><path fill="#e6e6e6" d="m487.1 289.7h3.2v15h9.4v2.9h-12.5v-17.9z"/><path fill="#e6e6e6" d="m509.9 307.5v-1.7c-.9 1.1-2.3 2-4.4 2-2.6 0-4.8-1.4-4.8-4.2 0-3 2.3-4.4 5.4-4.4 1.7 0 2.6.2 3.7.5v-.2c0-1.9-1.2-2.9-3.3-2.9-1.5 0-2.6.3-3.9.8l-.8-2.5c1.5-.7 2.9-1.1 5.1-1.1 4 0 5.9 2.1 5.9 5.7v8zm.1-5.6c-.8-.3-1.9-.5-3.1-.5-2 0-3.1.8-3.1 2.1s1.1 2 2.6 2c2 0 3.5-1.1 3.5-2.9z"/><path fill="#e6e6e6" d="m518.8 305.5v2.1h-3.1v-18.7h3.1v7.4c1-1.4 2.4-2.5 4.5-2.5 3.2 0 6.3 2.5 6.3 7s-3.1 7-6.3 7c-2.2 0-3.5-1.1-4.5-2.3zm7.7-4.7c0-2.6-1.7-4.3-3.9-4.3s-3.9 1.7-3.9 4.4c0 2.6 1.8 4.3 3.9 4.3s3.9-1.7 3.9-4.4z"/><path fill="#e6e6e6" d="m530.8 305.8 1.4-2.1c1.4 1.1 3 1.7 4.4 1.7s2.1-.5 2.1-1.5-1.3-1.4-2.8-1.8c-.1 0-.2-.1-.2-.1-2-.6-4.2-1.4-4.2-4s2.1-4.1 4.8-4.1c1.7 0 3.5.6 5 1.5l-1.2 2.2c-1.3-.8-2.6-1.3-3.8-1.3s-1.9.5-1.9 1.4 1.3 1.4 2.8 1.8c.1 0 .2.1.2.1 2 .6 4.2 1.5 4.2 4 0 2.9-2.2 4.2-5 4.2-1.9 0-4.1-.7-5.8-2z"/><path fill="#e6e6e6" d="m659.5 298.6c0-5.1 4.1-9.2 9.3-9.2s9.2 4.2 9.2 9.2-4.1 9.2-9.3 9.2-9.2-4.2-9.2-9.2zm17.3-.1c0-4.5-3.5-8.2-8.2-8.2s-8.2 3.7-8.2 8.3c0 4.5 3.5 8.2 8.2 8.2 4.8 0 8.2-3.7 8.2-8.3zm-13-.1c0-2.8 2.1-5.1 5.1-5.1 1.9 0 2.9.6 3.9 1.5l-1.4 1.7c-.8-.7-1.5-1.1-2.5-1.1-1.7 0-2.8 1.4-2.8 3.1s1.1 3 2.8 3c1.1 0 1.7-.5 2.5-1.1l1.4 1.4c-1.1 1.1-2.1 1.7-4 1.7-2.9.1-5-2.2-5-5.1z"/><path fill="#e6e6e6" d="m679.3 289.7h3.4l4.2 13.2 4.4-13.3h2.6l4.4 13.3 4.2-13.2h3.3l-6.2 18h-2.6l-4.4-12.8-4.4 12.8h-2.7z"/><path fill="#e6e6e6" d="m705.5 300.8c0-3.9 3.1-7 7.2-7 4.2 0 7.2 3.2 7.2 7s-3.1 7-7.3 7c-4 0-7.1-3.1-7.1-7zm11.3 0c0-2.3-1.7-4.3-4.2-4.3s-4.1 2-4.1 4.3 1.7 4.3 4.1 4.3c2.7.1 4.2-1.9 4.2-4.3z"/><path fill="#e6e6e6" d="m722.1 294h3.1v3c.8-2 2.4-3.4 4.8-3.3v3.2h-.2c-2.7 0-4.6 1.7-4.6 5.4v5.1h-3.1z"/><path fill="#e6e6e6" d="m731.8 288.9h3.1v11.1l5.6-6h3.8l-5.4 5.5 5.5 8h-3.5l-4.1-5.8-1.9 2v3.9h-3.1z"/><path fill="#e6e6e6" d="m744.4 300.8c0-3.9 3.1-7 7.2-7 4.2 0 7.2 3.2 7.2 7s-3.1 7-7.3 7c-4.1 0-7.1-3.1-7.1-7zm11.3 0c0-2.3-1.7-4.3-4.2-4.3s-4.1 2-4.1 4.3 1.7 4.3 4.1 4.3c2.6.1 4.2-1.9 4.2-4.3z"/><path fill="#e6e6e6" d="m760.9 302.6v-8.6h3.1v7.6c0 2.1 1.1 3.3 2.9 3.3s3-1.3 3-3.3v-7.6h3.1v13.4h-3.1v-2.1c-.8 1.3-2.1 2.3-4.2 2.3-3.1.2-4.8-1.8-4.8-5z"/><path fill="#e6e6e6" d="m776.6 303.8v-7.1h-1.7v-2.7h1.7v-3.7h3.1v3.7h3.6v2.6h-3.6v6.6c0 1.2.6 1.7 1.7 1.7.7 0 1.3-.2 1.9-.5v2.5c-.8.5-1.7.7-2.8.7-2.3.1-3.9-.9-3.9-3.8z"/><path fill="#e6e6e6" d="m785.9 289.7h3.2v15h9.4v2.9h-12.5v-17.9z"/><path fill="#e6e6e6" d="m808.7 307.5v-1.7c-.9 1.1-2.3 2-4.4 2-2.6 0-4.8-1.4-4.8-4.2 0-3 2.3-4.4 5.4-4.4 1.7 0 2.6.2 3.7.5v-.2c0-1.9-1.2-2.9-3.3-2.9-1.5 0-2.6.3-3.9.8l-.8-2.5c1.5-.7 2.9-1.1 5.1-1.1 4 0 5.9 2.1 5.9 5.7v8zm.1-5.6c-.8-.3-1.9-.5-3.1-.5-2 0-3.1.8-3.1 2.1s1.1 2 2.6 2c2 0 3.5-1.1 3.5-2.9z"/><path fill="#e6e6e6" d="m817.6 305.5v2.1h-3.1v-18.7h3.1v7.4c1-1.4 2.4-2.5 4.5-2.5 3.2 0 6.3 2.5 6.3 7s-3.1 7-6.3 7c-2.1 0-3.5-1.1-4.5-2.3zm7.7-4.7c0-2.6-1.7-4.3-3.9-4.3-2.1 0-3.9 1.7-3.9 4.4 0 2.6 1.8 4.3 3.9 4.3 2.2 0 3.9-1.7 3.9-4.4z"/><path fill="#e6e6e6" d="m829.6 305.8 1.4-2.1c1.4 1.1 3 1.7 4.4 1.7s2.1-.5 2.1-1.5-1.3-1.4-2.8-1.8c-.1 0-.2-.1-.2-.1-2-.6-4.2-1.4-4.2-4s2.1-4.1 4.8-4.1c1.7 0 3.5.6 5 1.5l-1.2 2.2c-1.3-.8-2.6-1.3-3.8-1.3s-1.9.5-1.9 1.4 1.3 1.4 2.8 1.8c.1 0 .2.1.2.1 2 .6 4.2 1.5 4.2 4 0 2.9-2.2 4.2-5 4.2-1.9 0-4-.7-5.8-2z"/><path fill="#e6e6e6" d="m206.3 434.2c0-5.1 4.1-9.2 9.3-9.2s9.2 4.2 9.2 9.2-4.1 9.2-9.3 9.2-9.2-4.1-9.2-9.2zm17.4-.1c0-4.5-3.5-8.2-8.2-8.2s-8.2 3.7-8.2 8.3c0 4.5 3.5 8.2 8.2 8.2s8.2-3.7 8.2-8.3zm-13.1-.1c0-2.8 2.1-5.1 5.1-5.1 1.9 0 2.9.6 3.9 1.5l-1.4 1.7c-.8-.7-1.5-1.1-2.5-1.1-1.7 0-2.8 1.4-2.8 3.1s1.1 3 2.8 3c1.1 0 1.7-.5 2.5-1.1l1.4 1.4c-1.1 1.1-2.1 1.7-4 1.7-2.9.1-5-2.2-5-5.1z"/><path fill="#e6e6e6" d="m226.1 425.3h3.4l4.2 13.2 4.4-13.3h2.6l4.4 13.3 4.2-13.2h3.3l-6.2 18h-2.7l-4.4-12.8-4.4 12.8h-2.7z"/><path fill="#e6e6e6" d="m252.4 436.4c0-3.9 3.1-7 7.2-7 4.2 0 7.2 3.2 7.2 7s-3.1 7-7.3 7c-4.1 0-7.1-3.1-7.1-7zm11.2 0c0-2.3-1.7-4.3-4.2-4.3s-4.1 2-4.1 4.3 1.7 4.3 4.1 4.3c2.7.1 4.2-1.9 4.2-4.3z"/><path fill="#e6e6e6" d="m269 429.7h3.1v3c.8-2 2.4-3.4 4.8-3.3v3.2h-.2c-2.7 0-4.6 1.7-4.6 5.4v5.1h-3.1z"/><path fill="#e6e6e6" d="m278.6 424.5h3.1v11.1l5.6-6h3.8l-5.4 5.5 5.5 8h-3.5l-4.1-5.8-1.9 2v3.9h-3.1z"/><path fill="#e6e6e6" d="m291.3 436.4c0-3.9 3.1-7 7.2-7 4.2 0 7.2 3.2 7.2 7s-3.1 7-7.3 7c-4.1 0-7.1-3.1-7.1-7zm11.2 0c0-2.3-1.7-4.3-4.2-4.3s-4.1 2-4.1 4.3 1.7 4.3 4.1 4.3c2.6.1 4.2-1.9 4.2-4.3z"/><path fill="#e6e6e6" d="m307.7 438.2v-8.6h3.1v7.6c0 2.1 1.1 3.3 2.9 3.3s3-1.3 3-3.3v-7.6h3.1v13.4h-3.1v-2.1c-.8 1.3-2.1 2.3-4.2 2.3-3 .2-4.8-1.8-4.8-5z"/><path fill="#e6e6e6" d="m323.4 439.4v-7.1h-1.7v-2.6h1.7v-3.7h3.1v3.7h3.6v2.6h-3.6v6.6c0 1.2.6 1.7 1.7 1.7.7 0 1.3-.2 1.9-.5v2.5c-.8.5-1.7.7-2.8.7-2.3 0-3.9-.9-3.9-3.9z"/><path fill="#e6e6e6" d="m332.7 425.3h3.2v15h9.4v2.9h-12.5v-17.9z"/><path fill="#e6e6e6" d="m355.5 443.1v-1.7c-.9 1.1-2.3 2-4.4 2-2.6 0-4.8-1.4-4.8-4.2 0-3 2.3-4.4 5.4-4.4 1.7 0 2.6.2 3.7.5v-.2c0-1.9-1.2-2.9-3.3-2.9-1.5 0-2.6.3-3.9.8l-.8-2.5c1.5-.7 2.9-1.1 5.1-1.1 4 0 5.9 2.1 5.9 5.7v8zm.1-5.6c-.8-.3-1.9-.5-3.1-.5-2 0-3.1.8-3.1 2.1s1.1 2 2.6 2c2 0 3.5-1.1 3.5-2.9z"/><path fill="#e6e6e6" d="m364.4 441.1v2.1h-3.1v-18.7h3.1v7.4c1-1.4 2.4-2.5 4.5-2.5 3.2 0 6.3 2.5 6.3 7s-3.1 7-6.3 7c-2.1 0-3.5-1.1-4.5-2.3zm7.7-4.7c0-2.6-1.7-4.3-3.9-4.3-2.1 0-3.9 1.7-3.9 4.4 0 2.6 1.8 4.3 3.9 4.3 2.2 0 3.9-1.7 3.9-4.4z"/><path fill="#e6e6e6" d="m376.5 441.4 1.4-2.1c1.4 1.1 3 1.7 4.4 1.7s2.1-.5 2.1-1.5-1.3-1.4-2.8-1.8c-.1 0-.2-.1-.2-.1-2-.6-4.2-1.4-4.2-4s2.1-4.1 4.8-4.1c1.7 0 3.5.6 5 1.5l-1.2 2.2c-1.3-.8-2.6-1.3-3.8-1.3s-1.9.5-1.9 1.4 1.3 1.4 2.8 1.8c.1 0 .2.1.2.1 2 .6 4.2 1.5 4.2 4 0 2.9-2.2 4.2-5 4.2-2 0-4.1-.7-5.8-2z"/><path fill="#e6e6e6" d="m505.1 434.2c0-5.1 4.1-9.2 9.3-9.2s9.2 4.2 9.2 9.2-4.1 9.2-9.3 9.2-9.2-4.1-9.2-9.2zm17.4-.1c0-4.5-3.5-8.2-8.2-8.2s-8.2 3.7-8.2 8.3c0 4.5 3.5 8.2 8.2 8.2s8.2-3.7 8.2-8.3zm-13.1-.1c0-2.8 2.1-5.1 5.1-5.1 1.9 0 2.9.6 3.9 1.5l-1.4 1.7c-.8-.7-1.5-1.1-2.5-1.1-1.7 0-2.8 1.4-2.8 3.1s1.1 3 2.8 3c1.1 0 1.7-.5 2.5-1.1l1.4 1.4c-1.1 1.1-2.1 1.7-4 1.7-2.9.1-5-2.2-5-5.1z"/><path fill="#e6e6e6" d="m525 425.3h3.4l4.2 13.2 4.4-13.3h2.6l4.4 13.3 4.2-13.2h3.3l-6.2 18h-2.7l-4.4-12.8-4.4 12.8h-2.7z"/><path fill="#e6e6e6" d="m551.2 436.4c0-3.9 3.1-7 7.2-7 4.2 0 7.2 3.2 7.2 7s-3.1 7-7.3 7c-4.1 0-7.1-3.1-7.1-7zm11.2 0c0-2.3-1.7-4.3-4.2-4.3s-4.1 2-4.1 4.3 1.7 4.3 4.1 4.3c2.7.1 4.2-1.9 4.2-4.3z"/><path fill="#e6e6e6" d="m567.8 429.7h3.1v3c.8-2 2.4-3.4 4.8-3.3v3.2h-.2c-2.7 0-4.6 1.7-4.6 5.4v5.1h-3.1z"/><path fill="#e6e6e6" d="m577.5 424.5h3.1v11.1l5.6-6h3.8l-5.4 5.5 5.5 8h-3.5l-4.1-5.8-1.9 2v3.9h-3.1z"/><path fill="#e6e6e6" d="m590.1 436.4c0-3.9 3.1-7 7.2-7 4.2 0 7.2 3.2 7.2 7s-3.1 7-7.3 7c-4.1 0-7.1-3.1-7.1-7zm11.2 0c0-2.3-1.7-4.3-4.2-4.3s-4.1 2-4.1 4.3 1.7 4.3 4.1 4.3c2.6.1 4.2-1.9 4.2-4.3z"/><path fill="#e6e6e6" d="m606.5 438.2v-8.6h3.1v7.6c0 2.1 1.1 3.3 2.9 3.3s3-1.3 3-3.3v-7.6h3.1v13.4h-3.1v-2.1c-.8 1.3-2.1 2.3-4.2 2.3-3 .2-4.8-1.8-4.8-5z"/><path fill="#e6e6e6" d="m622.2 439.4v-7.1h-1.7v-2.6h1.7v-3.7h3.1v3.7h3.6v2.6h-3.6v6.6c0 1.2.6 1.7 1.7 1.7.7 0 1.3-.2 1.9-.5v2.5c-.8.5-1.7.7-2.8.7-2.3 0-3.9-.9-3.9-3.9z"/><path fill="#e6e6e6" d="m631.5 425.3h3.2v15h9.4v2.9h-12.5v-17.9z"/><path fill="#e6e6e6" d="m654.3 443.1v-1.7c-.9 1.1-2.3 2-4.4 2-2.6 0-4.8-1.4-4.8-4.2 0-3 2.3-4.4 5.4-4.4 1.7 0 2.6.2 3.7.5v-.2c0-1.9-1.2-2.9-3.3-2.9-1.5 0-2.6.3-3.9.8l-.8-2.5c1.5-.7 2.9-1.1 5.1-1.1 4 0 5.9 2.1 5.9 5.7v8zm.1-5.6c-.8-.3-1.9-.5-3.1-.5-2 0-3.1.8-3.1 2.1s1.1 2 2.6 2c2 0 3.5-1.1 3.5-2.9z"/><path fill="#e6e6e6" d="m663.3 441.1v2.1h-3.1v-18.7h3.1v7.4c1-1.4 2.4-2.5 4.5-2.5 3.2 0 6.3 2.5 6.3 7s-3.1 7-6.3 7c-2.2 0-3.6-1.1-4.5-2.3zm7.7-4.7c0-2.6-1.7-4.3-3.9-4.3s-3.9 1.7-3.9 4.4c0 2.6 1.8 4.3 3.9 4.3s3.9-1.7 3.9-4.4z"/><path fill="#e6e6e6" d="m675.3 441.4 1.4-2.1c1.4 1.1 3 1.7 4.4 1.7s2.1-.5 2.1-1.5-1.3-1.4-2.8-1.8c-.1 0-.2-.1-.2-.1-2-.6-4.2-1.4-4.2-4s2.1-4.1 4.8-4.1c1.7 0 3.5.6 5 1.5l-1.2 2.2c-1.3-.8-2.6-1.3-3.8-1.3s-1.9.5-1.9 1.4 1.3 1.4 2.8 1.8c.1 0 .2.1.2.1 2 .6 4.2 1.5 4.2 4 0 2.9-2.2 4.2-5 4.2-2 0-4.1-.7-5.8-2z"/></g>
</svg>
