<?xml version="1.0" encoding="utf-8"?>
<!-- Generator: Adobe Illustrator 23.0.1, SVG Export Plug-In . SVG Version: 6.00 Build 0)  -->
<svg version="1.2" baseProfile="tiny" id="Layer_1" xmlns="http://www.w3.org/2000/svg" xmlns:xlink="http://www.w3.org/1999/xlink"
	 x="0px" y="0px" viewBox="0 0 900 600" xml:space="preserve">
<g>
	<path d="M888.25,360.77c0.1,0.42,2.72,44.91,2.78,55.33c0.58,101.38-4,108.85-34.66,138.03c-5.51,5.24-13.38,9.73-24.58,10.8
		c-9.27,0.88-21.36,3.74-27.77,1.54c1.72-17.25-8.29-18.77,5.45-19.75c11.42-0.81,24.94-6.41,26.84-8.33
		c11.95-12.05,20.71-25.99,20.26-42.89c-0.92-34.7,3.21-53.74,1.85-78.17c-0.37-6.57-0.19-19.64,0.21-19.64
		c0.8,4.2,1.54,10.32,1.54,5.25c-2.33-31.56,0.3-43.84-4.01-43.51c-0.1,2.78,0.54,5.66,0.51,8.54c-0.02,2.44-0.99,54.66-0.41,59.24
		c1.78,13.95-2.78,31.51-2.78,53.17c0,23.68-3.17,47.63-24.04,58.76c0.96-4.56-4.51-12.51-9.6-13.3
		c-29.21-4.5-32.58-24.53-52.15-28.28c-19.04-47.24-9.74-24.15-11.52-38.26c-2.1-16.66-1.53-33.43,0.21-50.19
		c2.41-23.31-1.05-31.11-1.75-36.82c-0.6-4.94,1.13-9.77,0.62-14.71c-0.2-1.95-0.34-3.92,0.41-5.86c1.15-2.98-3.21-3.34-1.54-12.96
		c1.15-6.68-2.49-11.5-6.69-15.94c-2.24-2.37-15.49-3.5-21.39-8.74c0.17-0.03,20.63-3.6,25.4-2.98c4.73,0.62,8.52-1.35,11.11-5.66
		c5.93-9.87,12.76-14.8,8.33-22.01c-0.29-0.59,0.02-1.44-0.37-1.44c-0.07,0,0.01,0.07,0.17,0.31c-3.17,1.58,1.91,3.08-2.98,11.11
		c-2.62,4.29-5.83,8.24-8.23,12.75c-1.42,2.68-4.53,3.61-7.41,3.19c-5.65-0.84-61.83,4.52-62.43,4.42c-1.44-3.39-4.42-3.73-7.71-3.5
		c-7.51,0.54-15.01,0.55-22.52,1.75c-12.1,1.93-4.92-2.94-15.22,8.23c-21.04-2.36-27.75,4.67-45.36-1.65
		c-3.23-1.16-5.41-3.35-11.62-15.43c-5.04-9.8,1.31-1.53-5.14-12.75c-8.09-14.06-4.32-5.98-8.95-12.96
		c-25.28-38.1-15.99-32.23-26.33-37.64c-14.83-7.76-9.18-30.57-0.72-29.31c1.95,0.29,6.89-4.24,11.21-1.23
		c0.37,0.26-2.82-0.18,22.73-1.75c10.21,16.8,5.27,20.05,15.22,32.3c2,2.46,9.09,5.89,11.42,9.67c3.62,5.9,15.7,14.09,16.97,14.09
		c1.13-0.21,0.82-1.34,1.44-2.16c2.26,1.23,5.03,0.74,7.3,2.06c3.79,2.19,7.91,3.32,12.03,4.63c2.67,0.84,5.04-0.41,7.92-1.03
		c4.81,3.53,7.64,6.22,11.01,5.76c-3.7-1.75-6.99-4.22-10.29-6.99c2.57-4.73,4.39-9.68,6.99-14.5
		c11.04-20.44,15.95-24.4,19.85-45.87c3.66,0.38,5.59-1.61,9.15-3.39c-0.9,1.1-0.72,2.46-0.72,3.91c0,33.4,6.86,23.88,30.86,56.77
		c2.63,3.6,3.75,3.52,14.6,6.48c-2.57,6.69-7.2,11.52-11.73,16.46c5.66-4.11,10.18-9.26,12.96-15.94c5.87-5.22,8.12,0.21,18-11.31
		c17.92,21.94,16.98,24.8,19.94,24.99c-4.63-10.49-12.03-18.92-19.13-27.56c19.94-63.82,7.84-48.67,5.25-77.96
		c-0.79-8.95-1.03-18-1.44-27.05c2.67-2.26,4.22-5.55,6.79-8.02c3.81-0.1,7.3,0.38,10.9-0.1c5.21-0.7,2.33,8.78,22.73,10.39
		c0.74,12.16,11.25,31.1,29.21,36.2c12.96,3.68,29.05-3.9,32.6-8.74c11.34-15.46,8.8-12.74,11.01-18.2
		c8.82-21.84-2.54-13.4,16.87-15.53c6.37-0.7,8.8-8.99,1.44-11.52c-6.37-2.19-10.46-0.97-15.12-1.85
		c-0.51-14-9.78-32.68-26.12-37.75c-8.17-2.53-21.24-3.56-28.08,1.34c-11.88,8.5-19.64,19.73-22.83,33.94
		c-0.53,2.36-0.21,4.83-0.51,7.71c-8.72-4.78-7.12-10.09-16.76-11.73c-1.13-0.19-2.26-0.31-3.5-1.03c-0.93-3.81-5.07-5.12-7.51-8.02
		c-3.74-4.46-5.77-1.37-9.67-5.35c-2.39-2.44-5.14-2.67-8.13-0.62c-3.91-1.75-6.99-0.72-8.33,2.57c8.09-4.44,8.95,4.06,15.02,5.14
		c-0.62-3.19-3.81-3.91-4.83-6.69c6.79-0.82,8.13,6.27,12.55,8.33c1.13-1.44-0.62-2.47-0.41-3.91c2.26,1.75,3.82,3.88,6.17,5.14
		c2.8,1.51,3.19,3.81,2.47,6.17c-7.61,5.14-11.8,12.67-16.56,19.64c-3.17,4.64-3.5,21.7-0.62,23.76c0.1,8.23,2.2,16.14,3.91,24.07
		c5.31,24.58-9.15,63.39-11.42,64.28c-4,1.57-7.41,4.42-11.01,5.97c-3.29-0.62-6.27-1.28-9.15-1.65
		c-11.6-1.49-7.86-10.99-27.98-28.18c-7.6-6.49-9.98-15.43-8.95-25.51c2.88,4.53,6.89,7.71,11.62,10.08
		c0.39-3.12-5.41-4.61-10.49-17.59c-0.52-1.33-1.68-1.89-3.03-1.82c0.34-1.28,13.18-13.54,11.57-15.15c-1.65,0-2.67,1.54-4.11,2.06
		c-2.16-7.71-5.25-15.02-3.6-23.14c1.34-0.1,2.47,0.93,3.6,0c-0.62-1.75-2.78-1.23-3.6-2.88c0.21-2.47,0.41-5.14,0.62-7.82
		c4.29-3.76,27.53,2.22,29.42,28.18c-0.62,1.03-1.54,0-1.75,1.34c14.89,16.19-8.66,18.11-5.25,49.88c0.18,1.65,0.62,3.19,1.65,4.53
		c0.31-3.5,0.39-6.89,0.31-10.29c-0.41-16.88,4.73-9.79,13.37-40.93c2.5-8.99,3.18-10.41,0.51-11.01
		c9.11-31.88,5.83-22.28,0.72-34.46c15.89-19.74,5.09-10.91,6.99-18.92c-2.98-0.1-2.98-0.1-4.01,4.01
		c-11.93-0.62-23.96,0.1-36.1-1.03c1.54-5.25-2.78-7.3-5.76-10.39c0.93-5.97,0.61-12.03,3.09-18c1.75-4.22,0-8.95-1.44-13.47
		c-2.61,1.21,0.11,8.02-1.44,11.62c-2.89,6.7-1.26,13.16-3.09,18.51c-2.06-2.67-4.94-3.39-7.71-4.42c0.93,4.22,4.22,6.58,6.48,9.46
		c1.65-0.41,0.51-1.34,1.44-1.75c3.39,1.13,5.25,4.11,7.1,6.89c-0.31,2.57-1.63,4.74-2.88,6.79c-5.62,9.18-1.6,4.42-8.02,17.79
		c-10.21,21.25-5.66,18.1-11.21,54.92c-5.42,35.98-21.39,44.21-24.58,59.35c-0.48,2.27-5.22,4.19-6.79,2.78
		c-3.24-2.91-30.3-11.15-34.04-15.63c-1.64-1.96-3.39-3.5-5.45-4.73c-0.31-2.47-0.19-2.59-1.34-3.6
		c-16.88-14.88-7.96-26.83-32.6-51.63c-0.72-0.72-1.34-1.75-3.39-1.23c3.6,5.25,7.92,9.57,9.98,15.43c-4.22,0-8.33,0-12.24,0
		c-8.02-10.08-10.7-22.63-6.07-30.55c8.42,13.02,31.01,12.87,40.73,7.1c1.75,0.62,1.13,2.37,1.95,3.09c1.85-1.34,0-2.88,0.62-4.42
		c6.46-3.98,4.69-6.91,7.51-9.15c5.18-4.13,7.13-11.4,9.36-18.82c6.99,5.66,9.36,14.6,2.98,27.36c-3.19-1.85-0.21-6.38-3.6-8.23
		c-0.1,2.67,0,5.14-0.93,7.41c12.86,9.67,13.06,13.58,13.16,19.64c-15.08,16.9-16.59,31.61-14.09,29.11
		c2.14-3.74,5.87-17.76,19.34-28.28c10.09-7.89,20.03-29.31,22.11-33.02c7.34-13.09,0.78-5.08,4.42-15.63
		c2.93-8.5-6.11-7.53-5.86-15.63c2.47-1.34,3.09-5.04,6.17-5.04c4.63-5.76,2.06-11.01-0.1-16.35c-1.95,0.21-0.93,2.06-1.95,2.57
		c-1.23-0.1-2.67,0.41-3.7-1.34c2.57,0.62,2.44-1.77,3.5-2.88c1.2-1.26,2.67-2.16,3.5-3.5c8.56-0.91,6.59-0.2,10.49,9.15
		c0.21,0.82,0.51,1.75,1.95,1.23c0.31-3.7-2.26-6.79-2.78-10.9c5.35,8.02,7.3,10.18,9.67,10.49c0.1-3.09-3.29-4.94-2.78-7.92
		c-7.41-6.17-14.91-5.76-22.42-0.21c-0.93,0.1-1.75-1.03-2.78-0.41c-2.57,2.98-5.97,5.35-6.79,9.77c-2.26-1.34-3.91-2.37-5.45-3.29
		c-1.44-5.25-3.91-9.98-3.29-15.43c-6.05,4.68,0.6,11.21,0.41,17.38c3.5-0.41,5.04,2.26,7.3,3.6c-0.3,1.1-0.71,1.79-1.67,1.93
		c-1.5,5.43-9.92,8.99-14.07,11.03c-1.13-0.72-0.31-2.37-2.06-2.16c-0.82,0.62-0.51,2.16-1.85,2.67c-2.37-0.82-4.94-1.65-7.41-2.37
		c-0.51-2.16-1.13-4.01-0.41-6.27c4.7-0.39,7.45-3.86,10.44-6.94c-2.26,10.13-2.82,18.23,1.59,1.39c0.28-1.05,0.37-2.17-1.09-2.09
		c2.6-6.15,7.3-11.93,3.87-19.1c0.93-1.03,3.7,0.41,2.78-2.26c-0.82-1.03-1.75,0.21-2.57-0.31c-0.72-0.82-1.54-1.75-1.54-3.09
		c6.86-1.14,1.56-1.16,4.83-7.41c1.44,2.06,1.65,4.22,1.65,6.69c3.25-1.2,5.86-10.13,6.69-13.47c1.42-5.74,3.63-3.94,7.1-13.17
		c1.66-4.42,3.73-1.66,5.66-2.47c0.62-0.82-0.62-0.93-0.41-1.85c1.23-0.41,3.09-0.21,3.39-2.37c-5.32-9.45,2.11-4.73,1.95-1.03
		c2.88,0.41,0.93-2.06,1.85-2.67c4.98-0.45,4.22-1.16,5.86-1.03c6.47,0.5,12.86,2.88,19.44,0.21c1.13,5.66,0.21,11.52,3.81,16.25
		c-1.22,4.46,0.1,2.4-7.1,5.86c-4.64,2.23-6.07,7.2-3.5,11.83c0.82-1.65-0.21-3.6,1.34-5.14c2.88,1.23,5.55-0.41,8.54-1.03
		c0.51-5.25,4.53-10.18,0.93-15.63c-0.03-0.1-1.43-13.37-1.44-13.47c2.47-3.91,7.1-4.83,10.49-8.33c-1.95-1.34,0-2.88-0.21-4.53
		c-2.37-1.44-4.63-0.1-6.99-0.21c1.23-2.16,4.53-1.75,5.14-4.83c-2.98-2.37-5.25,0-7.82,1.44c-0.1-3.19,1.54-6.27-1.03-9.46
		c-1.75,2.26-3.39,4.11-5.86,5.45c0.1-0.93,0.82-1.75-0.31-2.67c-4.32-0.51-8.23,1.54-12.96,2.47c-0.82-0.93-2.26-1.11-3.91-0.82
		c-5.98,1.06-13.95-1.56-15.53,2.57c-0.43,1.12-1.54,1.34-2.67,1.23c-1.42-9.23-0.58,1.93-13.68,2.98
		c-2.37-1.54-4.11-4.83-7.82-3.09c-0.41,2.37,2.16,2.88,2.57,4.63c-2.33,2.14-3.26,4.77-3.09,7.82c-0.82-0.41-1.54-0.93-2.26,0
		c-0.1,0.93,1.03,1.13,1.13,2.06c-2.06,0.51-0.51,2.78-1.75,3.81c-1.74,1.45-2.09,3.39-2.26,5.55c-0.46,5.69-7.21,11.97-0.62,23.45
		c3,5.23-1.52,5.09,1.34,10.18c4.43,7.91,0.16,14.18,5.14,16.87c-1.75,7.51-5.35,11.31-11.31,12.14
		c-0.51-5.76-2.88-11.21-4.01-16.87c-5.06-25.3-49.44-34.06-64.18-8.23c-4,7-8.64,13.58-9.77,21.8c0,2.58-4.58,1.59-5.66,1.23
		c-10.77-3.59-19.75,0.27-22.94-1.03c-1.5-0.75-10.35,2.23-11.01,9.98c-0.53,6.24,4.74,13.06,7.2,13.06
		c5.55-0.41,11.21,0.87,16.66,0.31c5.45-0.57,10.8,0.21,16.04,0.72c1.78,1.78,0.14,6.52,3.81,11.73c0.41,0.72,0.51,1.74-0.1,2.47
		c-1.46,1.73-1.36,4.19-3.09,5.86c-2.59,2.51,0.56,13.36,10.7,14.3c-2.16,8.85-2.37,17.69-2.16,26.95
		c-7.92,1.95-15.94,4.22-17.48,13.68c-1.34,8.23,0.72,15.84,6.38,21.6c-5.45,10.29-7.1,22.52-17.69,29.52
		c-0.62-0.41-0.3-1.98-1.75-2.37c-3.42-0.92-3.18,8.53-12.03,13.99c-3.81,2.35-5.35,6.25-4.32,10.9c1.31,5.89-6.43,5.37-7.51,12.24
		c-3.47,22.14-0.85,16.31,14.6,46.69c0.73,1.43,0.82,2.78-0.93,3.5c-1.65-0.72-1.65-2.98-3.81-3.29c0.51,3.5-0.41,6.79,0.1,10.29
		c0.83,5.66,1.34,11.42,1.34,16.97c2.37,1.44,4.53,3.27,6.89,3.29c4.38,0.04,24.64,4.53,38.57,5.25
		c-1.91,6.59,1.39,11.84-0.31,14.91c-1.18,2.13-0.6,4,0.51,5.97c2.5,4.4,3.33,9.45,4.83,14.3c0.94,3.03-3.14,3.33-1.34,11.52
		c1.61,7.31,0.93,14.71,0.93,22.11c0,6.58,1.34,13.27-0.21,19.85c0,1.5,5.03,30.26,4.83,31.68c2.57-1.95,1.95-4.11,1.54-6.07
		c-1.02-4.87-6-30.72-2.47-34.25c1.26-1.1-0.21-1.19-0.21-10.18c0-7.92,0.94-15.95-1.03-23.86c-0.61-2.47-0.73-4.84,0.62-7.2
		c1.53-2.67,1.13-4.07-4.63-18.92c-1.66-4.27,0.99-1.94,0.1-10.39c-0.27-2.58-1.54-5.25-0.31-8.54c2.06,5.55,6.69,7.2,10.59,9.05
		c1.89,4.41-3.66,2.84,6.07,40.83c7.24,28.28,1.87,50.16,2.06,65.31c-1.65-0.31-2.16,1.65-2.88,1.75c-2.67-0.1-4.11-1.75-6.58-0.72
		c0.82,2.47-0.82,4.42-1.44,6.58c-0.72,0-0.62-0.82-1.75-0.51c-0.51,2.98-1.34,6.17,1.03,9.46c1.95-1.85,0-3.6,0.82-5.66
		c5.88,11.77-10.28,33.05-2.26,45.46c0.93,1.44,3.39,1.85,2.37,4.53c4.53,0.62,8.54,1.75,12.75,1.23c1.85,4.01,5.14,5.86,9.57,6.17
		c2.87,5.73,3.96-0.35,19.23,4.42c10.56,3.3,13.74,0.07,19.34,0.51c10.41,0.82,21.98-4.59,23.45-6.79
		c-1.49-8.93-2.95-9.56,6.79-2.47c1.52,1.1,17.9,13.28,20.88,11.21c-0.25-3.76-2.69,1.96-23.96-16.04
		c-27.36-23.15-15.56-77.83-17.69-112.83c-0.67-10.93-2.06-69.77-2.06-85.37c3.29-0.72,5.45,1.87,8.33,2.06
		c4.19,0.27,13.71,0.82,14.71-1.54c1.43-3.4,5.25-5.25,5.55-9.26c3.29,0.82,6.28-0.18,9.26-0.72c16.34-2.99,9.29-2.84,4.73,4.53
		c-6.9,11.15-13.92,8.02-34.35,8.02c9.14,1.83,9.31,4.15,24.27,2.26c2.83-0.36,2.76-0.19,2.78,7.41
		c0.27,111.93,2.9,99.17,0.51,109.13c-0.9,5.37,1.92,48.56,5.55,59.96c1.96,6.17,6.08,10.68,10.8,14.19
		c3.3,2.46,8.23,2.26,12.65,1.95c-3.29-1.23-6.58-2.37-9.36-4.63c23.16,5.1,33.08-4.38,55.44-3.39c6.91,0.31,5.79,6.38,7.2,20.47
		c-23.66,4.01-47.31,4.73-71.07,3.6c24.68,5.45,49.06,1.95,74.36-1.95c-3.14-4.46,0.84-8.69-1.34-18.51
		c-1.34-6.04-8.58-5.6-16.46-7.1c5.86-2.67,11.83,1.13,17.9-1.13c-2.57-2.06-5.45-1.23-8.23-1.85c0.98-2.8-22.57-46.88-26.84-58.93
		c-10.24-28.9-24.6-52.34-31.27-69.94c-21.27-56.18-22.58-47.92-11.21-55.33c6.22,15.99,37.03,79.42,27.36,55.85
		c-4.85-11.82-11.66-22.53-16.56-34.25c-1.24-2.98-1.87-2.44-2.06-2.88c-13.52-32.39-6.38-12.15-2.88-30.65
		c-3.18-2.76-7.15,3.73-9.67-4.01c-3.12-7.8-0.17,1.69-0.41,2.88c-12.15,4.05-9.94,11.28-27.77-28.49c0.31-0.82,1.34,0,1.44-0.1
		c-0.31-4.22,3.19-5.55,4.22-7.92c37.36-4,35.32-3.02,35.59,2.06c2.37,1.44,3.82,3.49,4.53,6.27
		c7.67,30.11,49.87,101.93,59.45,139.98c7.82,31.07,23.38,48.07,20.16,53.28c2.67-0.1,3.28,1.55,3.91,3.19
		c3.47,9.04,9.61,15.15,14.19,29.83c-6.38-0.72-11.52,2.62-17.38,2.88c-5.76,0.25-11.62-0.82-17.28,1.65
		c0.72,1.54,1.65,1.34,2.47,1.23c29.83-1.86,25.46-5.82,35.59-3.91c0.95-0.79-0.94-4.08,6.48-0.62c0.51,5.76,0.93,11.21,1.34,16.66
		c-14.4,2.57-28.8,3.19-42.48,8.54c7.05,1.13,33.6-6.86,46.28-6.17c20.15,1.09,41.34-2.57,55.85-16.56
		c5.07-4.89,15.31-11.71,24.07-30.55C895.64,498.4,894.54,363.57,888.25,360.77z M770.7,281.9l-0.02-0.02
		C770.77,281.88,770.71,281.89,770.7,281.9z M891.44,141.49c-4.83,4.32-10.39,2.06-15.74,2.67c-0.21-2.78-0.41-5.14-0.72-8.02
		C880.64,137.58,887.32,135.01,891.44,141.49z M799.59,131.2c8.84-19.82,0.92-7.87,14.3-24.99c5.14-6.58,12.44-8.55,19.95-9.87
		c2.36-0.42,5.66-1.13,7.1,2.47c0.32,0.95,9.14,1.29,16.04,12.34c-1.54-6.27-6.99-8.95-12.03-12.75c2.78,0.41,4.96,0.8,6.69,2.26
		c6.24,5.27,12.34,10.49,15.63,18.41c2.05,4.94,3.96,9.87,3.91,15.22c-0.05,5.45,1.72,10.69,0.31,16.15
		c-7.64,29.46-21.55,34.54-34.04,36.92c-17.41,3.32-34.72-16.38-36.82-34.76c8.85-0.82,17.48-3.6,26.43-1.54
		c3.37-3.05,7.5-9.27,4.11-12.75c-6.67-6.87-6.5,0.19-31.88-1.03C798.77,135.01,798.77,133.06,799.59,131.2z M777.38,128.63
		c3.6,1.03,7.29,2.07,9.87,5.55c4.81,6.5,11.22,8.97,19.23,6.58c6.16-1.83,12.45,0.15,16.35-2.16c2.67-1.58,7.84,1.21,6.27,5.14
		c-1.51,3.79-1.63,1.97-26.95,6.07c-6.05,0.98-16.17,0.41-18.82-5.14c-1.03-2.16-3.08-3.55-5.55-3.81c-3.7-0.38-7.3-1.75-11.11-0.51
		C767.91,134.08,773.88,132.85,777.38,128.63z M699.93,128.02c12.55,1.95,25.3,0.21,37.85,1.75c0.31,4.63-4.01,5.25-4.63,8.13
		c-12.34,1.95-24.38,0.51-36.72,0.82C698.39,135.32,698.69,131.72,699.93,128.02z M731.2,141.08c0.51,3.6,1.13,6.99,3.6,9.67
		c0.91,1.14-0.5,4.16-0.62,12.45c-0.02,1.65-1.53,2.37-1.95,3.91c-4.65,17.08-1.77,17.22-4.01,22.83c-1.75-2.26-2.81-4.22-2.88-7.2
		c-0.51-20.55-17.01-29.93-19.23-29.93c-5.66-0.51-8.95-4.63-12.45-8.54C694.81,137.9,701.05,143.12,731.2,141.08z M690.98,149.31
		c0.82,2.78,0.31,4.32-2.47,5.14C688.72,152.5,689.75,151.26,690.98,149.31z M684.29,162.27c0-3.8,2.61-3.63,6.79-5.86
		c0.51,2.06-0.93,3.7-0.41,5.55c-1.75,0.72-3.39-0.82-4.94,0.51c0.31,2.47,2.78,1.23,4.22,2.37c-0.51,8.64,0.51,17.18,5.66,24.79
		c-4.42,5.04-8.13,11.01-15.22,13.27C680.54,197.65,684.29,172.01,684.29,162.27z M690.88,80.19c1.13-0.51,2.16-0.93,3.7-0.51
		C693.24,81.32,692.01,80.19,690.88,80.19z M699.62,46.76c-1.75-0.72-1.13-1.95-1.54-3.29C703.24,42.68,702.14,42.14,699.62,46.76z
		 M691.91,35.04c1.54,1.44,0.62,2.16-0.72,2.98C690.67,36.79,691.7,35.96,691.91,35.04z M688.82,53.35
		c-0.62,0.31-1.13,0.41-1.34-0.41C688.31,52.21,688.51,52.93,688.82,53.35z M678.74,43.99c0,0.82-0.41,1.13-1.13,1.23
		C677.1,43.99,678.33,44.3,678.74,43.99z M680.69,52.93c-2.57-0.41-4.01-1.23-5.35-2.26C677.1,50.88,678.64,51.39,680.69,52.93z
		 M670.41,49.44c0-0.55,0.7-1.25,1.65,0.41C671.13,49.95,670.51,50.16,670.41,49.44z M669.18,39.77c1.23-0.82,2.26-1.23,3.91-0.51
		C666.23,45.13,669.78,41.39,669.18,39.77z M658.58,52.52c1.23,0.31,2.26,1.03,3.29,1.65c-1.44,1.75-3.09,1.54-4.94,0.41
		C656.94,53.55,657.86,53.14,658.58,52.52z M635.85,66.72c0.93,2.26-0.93,3.91-0.62,5.66C634.51,70.52,634.1,68.77,635.85,66.72z
		 M635.75,91.4c-0.98-0.49-0.42-1.13,0.1-1.13C636.2,90.27,636.71,91.21,635.75,91.4z M635.13,80.09c3.29-0.21,3.7,0.31,4.01,5.04
		C636.88,84.2,635.34,82.76,635.13,80.09z M654.67,62.4c-2.08,3.37-3.16,3.11-1.95-0.51C653.65,61.16,653.85,62.19,654.67,62.4z
		 M651.18,40.59c-0.72,1.23-1.23,2.47-3.09,1.65C648.91,41.31,649.53,40.28,651.18,40.59z M652.41,49.13
		c-0.72,2.47-2.37,4.11-5.35,5.76C647.79,52.82,648.59,51.21,652.41,49.13z M646.65,65.38c-0.1,0.93-0.31,1.23-0.82,1.44
		C645.31,66.1,645.93,65.79,646.65,65.38z M645.93,69.29c0.51,1.95-0.62,2.47-1.65,2.98C643.36,70.63,644.29,69.91,645.93,69.29z
		 M644.18,82.45c0.72,1.13,0,1.54-1.03,2.26C643.15,83.48,643.67,82.97,644.18,82.45z M642.13,88.21c-0.51-0.72-0.21-1.03,0.72-1.23
		C643.05,87.8,642.74,88.11,642.13,88.21z M639.55,71.35c0.41-2.16,1.03-3.19,2.98-2.26C641.92,70.21,640.69,70.32,639.55,71.35z
		 M640.07,41.93c-0.93,0-1.23-0.41-1.65-1.03C639.55,40.59,639.86,41,640.07,41.93z M633.79,49.64c-0.42-0.81-1.32-0.62-1.95-0.93
		c5.12-1.86,2.87-1.55,5.86,1.44c1.34,0.62,2.26-0.72,3.6-0.51c1.03,1.23-0.21,1.95-0.72,3.09c-3.19-2.57-6.17-1.54-9.15,1.13
		C631.43,51.6,633.49,51.19,633.79,49.64z M631.63,95.1c0.31-0.1,0.62,0.62,0.62,1.34C631.22,96.03,631.02,95.52,631.63,95.1z
		 M631.53,84.1c1.34,0.21,1.95,1.23,2.67,2.47c-0.93,1.03-2.26,2.06-1.23,4.63C629.06,86.67,628.96,86.26,631.53,84.1z
		 M626.7,154.86c2.57,0.41,3.19,2.06,3.6,4.22C627.62,158.77,627.62,156.61,626.7,154.86z M635.44,196.1
		c-1.03-6.89-4.83-11.62-10.08-15.53c1.85-6.48,5.25-12.65,3.91-19.75c5.45,7.3,10.49,14.71,18.2,20.26
		C643.77,185.82,641.41,192.3,635.44,196.1z M659.2,143.14c3.09,3.18,2.07,5.21,0.72,15.32c-1.65-0.93-1.23-3.81-4.01-3.19
		c0.93,1.65,1.75,3.19,2.67,4.83c-1.75,6.48-7.41,11.01-8.54,17.79c-5.94-2.23-11.02-11.85-15.12-14.71
		c-1.75-1.03-2.26-3.19-2.67-5.76c5.14,1.65,9.67,3.91,14.81,4.53c-4.94-3.7-11.21-4.83-16.46-8.33
		c9.98,1.23,14.81-6.17,20.78-12.14c2.37,3.7,1.13,8.95,4.94,12.14c-2.16-4.22-1.95-9.15-3.91-13.68c0.51-1.23,1.75-2.16,3.09-3.39
		C656.01,139.23,657.38,141.26,659.2,143.14z M655.08,113.93c0.93,0.31,0.51,1.23,1.03,1.95c-1.13,0.82-2.26,1.65-4.01,2.88
		C652.72,116.29,653.75,115.06,655.08,113.93z M621.14,135.52c3.31-0.97,5.72,3.72,14.19,1.44c1.54-0.42,2.47-1.96,4.01-2.78
		c15.76-8.36,2.95-5.47,20.16-16.66c1.54,1.23,2.88,2.26,4.11,3.19c0.9,4.17-3.8,9.15-6.99,11.11
		c-11.13,6.82-12.35,20.36-25.2,18.41c-3.39-0.51-6.89,0.31-10.39-1.85C620.53,144.16,622.28,139.84,621.14,135.52z M561.8,204.74
		c-2.67,0.31-4.53,0.31-6.79,0C556.67,187.05,555.34,199.12,561.8,204.74z M561.39,171.21c5.75-7.25,2.01-12.64,6.99-20.36
		c0.72,9.26,0.41,18.51,4.63,27.26C568.79,176.46,564.58,175.02,561.39,171.21z M551.92,106.21c7.66-8.56-0.26-6.38,14.4-16.35
		c8.64-5.88,13.81-3.29,27.56-2.16c10.94,0.9,19.65,17.37,20.98,24.07c5.16,25.97,5.23,33.08-1.13,47
		c-5.47,11.98-9.94,19.86-22.42,23.35c-4.33,1.21-8.43-0.21-13.47-1.13c4.42-1.34,8.23-1.95,11.52-3.7
		c4.07-9.03-8.52-29.18-10.08-32.91c1.5-3.34,8.71-8.86,4.83-16.15c-0.15-0.29-3.45-20.55-21.08-13.99
		c-8.01,2.98-5.95,5.55-8.43,5.55c-2.57,0.21-5.35,0.72-8.23,0.51C546.78,114.85,548.43,110.12,551.92,106.21z M512.53,140.05
		c-10.36-5.97-7.49-15.08,1.44-18C523.15,126.88,522.22,136.36,512.53,140.05z M519.73,141.08c4.32-4.73,5.45-13.16,0.82-18.41
		c5.55-0.82,10.79-0.8,16.15,0.93c7.14,2.3,10.72-1.59,26.54-0.31c9.46,0.77,13,10.53,6.48,17.9
		C553.26,140.46,536.81,140.36,519.73,141.08z M546.37,143.75c2.57-1.95,5.25-0.51,7.82-1.34c1.23,1.85,2.06,3.7,3.6,5.14
		c-2.47,2.57-4.73,5.04-7.51,7.3C547.91,151.57,546.68,147.97,546.37,143.75z M553.78,174.09c-7.2-1.34-8.87-8.66-3.91-14.4
		c6.76-7.8,13.39-9.1,9.87-17.69c2.47,0,4.32-0.02,6.17,0c17.22,0.16,11.44-25-4.83-22.83c16.52-11.01,26.84,8.04,17.07,23.55
		c-2.86,4.54,1.25,4.57,7.41,23.14c2.73,8.23,2.64,8.68-9.15,11.21c-5.01-10.02-3.52-24.29-6.79-29.83
		c-3.89-0.86-7.12,8.04-7.41,12.03C561.75,165.66,557.99,170.08,553.78,174.09z M727.6,551.77c1.75-0.62,2.98-0.31,4.53-0.41
		C730.58,552.07,729.34,551.97,727.6,551.77z M673.29,385.15c2.75,8.37,3.15,6.14,17.59,43.81c5.65,14.75,12.56,20.45,25.2,55.54
		c9.4,26.12,26.14,53.57,24.99,56.16c-6.58-2.16-13.68-2.16-20.98-3.81c4.52-7.64,3.95-15.85,3.5-17.28
		c-3.43-10.82-0.96-15.26-1.44-17.18c-0.4-0.79-1.58-1.03-2.37,1.34c-3.43,12.71,4.74,14.35-1.23,29.42
		c-0.41,1.95-2.06,4.01-0.82,6.79c8.33,1.44,16.66,3.5,25.51,3.5c0.93,0.93,1.34,2.37,1.95,3.91c-7.3,1.75-14.91,0.41-21.6,2.98
		c-0.82,1.65,1.13,1.95,0.51,3.5c-6.79,0.1-13.37,2.45-20.57,2.78c-10.26,0.46-13.64-3.06-21.19-4.22
		c-9.42-15.44-4.19-21.78-6.89-40.73c-4.22-29.66-0.06-42-1.13-62.53C671.52,395.53,673.29,448.71,673.29,385.15z M545.03,242.8
		c10.66,5.61,5.77,3.47,17.69,22.63c0.31,0.82,1.54,1.54,0.41,2.57c4.53,4.53,7.3,10.39,11.11,15.84
		c-13.79-7.94-24.87-13.4-34.97-24.68c-0.22,5.29,15.59,15.81,20.16,18.51c25.01,14.76,14.49,5.31,22.73,18.41
		c-18.91-4.73-17.91-4.13-20.57-6.79c-5.07-4.5-20.08-13.4-7.2-3.7c1.46,1.1,3.09,2.06,4.42,3.29
		c-11.31-4.42-20.98-12.24-33.02-16.76C534.95,263.78,539.99,253.5,545.03,242.8z M551.51,289.7c20.44,10.22,24.36,5.65,28.7,8.43
		c-5.97,0.41-11.93-0.71-17.9-0.21c-6.08,0.52-7.05-4.74-15.02-7.3C549.25,288.67,549.25,288.57,551.51,289.7z M545.65,288.16
		c0.1-0.93,0.21-1.85,1.75-0.51C546.78,288.16,546.47,288.77,545.65,288.16z M542.87,288.57c-3.39-0.93-6.48-2.37-9.46-4.01
		c0.21-1.85,1.75-2.67,1.95-4.32c3.09,0.72,4.22,3.09,4.73,4.94C542.64,287.72,543.94,282.17,542.87,288.57z M532.59,283.01
		c-0.82,1.44-1.44,0.72-2.16,0.21C531.05,282.6,531.56,282.29,532.59,283.01z M524.26,274.07c2.57,1.23,1.03,2.67,0.82,4.32
		c-0.31,1.03,2.67,0.62,1.34,2.67C518.54,277.61,521.32,278.96,524.26,274.07z M516.96,377.74c-5.12-0.92-4.39-1.97-6.48-20.06
		c13.84,9.85,22.52,10.79,24.07,14.6C537.23,378.92,581.46,389.36,516.96,377.74z M556.96,382.68c-5.66-5.25-13.36-7.52-18.82-13.16
		c-3.39-3.5-8.21-5.08-12.55-7.1c-17.6-8.19-6.32-7.87-14.3-20.16c-3.28-5.05-5.48-10.68-8.74-15.84
		c-5.45-8.64-0.61-15.77-2.67-20.26c4.33-6.02,20.8-16.12,15.32-21.6c-2.88,2.16-3.7,5.55-5.66,8.64c-1.46-5.26-3.2-4.83,9.77-14.81
		c0-1.03,0.72-2.26-1.03-2.57c0.51-1.54,1.85-2.06,2.78-3.39c0,8.15-6.18,5.75,4.42,10.39c-5.55,6.58-10.22,13.15-13.16,21.19
		c-10.76,29.4-3.92,24.94-3.19,20.78c5.09-29,9.48-29.82,13.88-36.82c0.62,0.31,0.72,1.03,1.34,0.82c1.34-1.23,1.95-2.98,2.57-4.94
		c7.51,3.7,15.43,6.07,22.52,10.18c-15.71-1.05-18.35-2.14-20.26,2.37c-0.92,2.16-3.6,3.09-5.35,4.83c2.98-1.75,7.1-0.93,9.36-4.32
		c1.35-2.03,16.99,0.37,20.06,0.93c-6.01,2.94-26.6,13.38-26.02,20.06c0.11,1.34-1.34,1.95-2.06,2.88
		c-11.25,12.7-10.23,24.32-8.54,25.1c5.28-32,35.21-36.28,37.34-40.52c-4.51-1.19-10.89,3.25-16.87,5.25
		c14.16-8.68,14.91-14.54,42.37-8.95c6.49,1.32,1-8.51,7.3,5.35c-0.51,0.51-1.03,1.13-1.54,1.65c4.53,2.37,6.07,6.99,9.67,11.83
		c3.5,1.75,9.05,1.34,14.19,2.57c-2.88,0-5.86,0.4-8.64-0.1c-9.21-1.65-24.47,11.04-31.06,17.69
		C555.51,354.64,561.93,368.36,556.96,382.68z M572.6,410.04c-0.84-7.88-0.37-15.18-1.65-16.76c-1.06-1.31,2.27-17.41,6.69-24.58
		c2.91-4.72-0.21-7.15-4.22-7.51c3.91,2.88,3.5,5.76,1.23,8.74c-4.01,0.31-8.23-1.23-12.24,0.93c3.29,1.95,6.48,3.6,10.39,3.09
		c-1.13,6.99-4.22,13.37-4.22,20.78c-14-10.84-5.89-7.68-5.55-10.18c-0.93-1.23-2.37,0.41-3.5-0.82c-0.1-2.37,0.72-4.83,1.13-7.41
		c2.78-17.36,1.48-27.74,15.53-38.36c4.63-3.5,8.94-7.44,14.81-8.74c8.3-1.84-1.93-4.51,12.75-2.88c-0.37-2.57-2.67-5.59,17.59,7.92
		c-3.53,9.04,1.03,10.36,1.03,12.14c0.51,5.14,2.78,10.18,1.34,15.53c-1.03-0.21-1.23-1.75-2.98-1.44
		c0.82,4.53-0.31,8.85-2.06,13.37c-0.93,0.51-1.34-1.85-2.98-0.51c-1.47,15.48,5.58,13.86-0.1,41.35
		c-12.68,61.26-11.83,49.31-11.83,93.08c-5.86-0.93-11.11-3.29-16.97-3.39c0.1-3.6-0.72-6.69-1.85-9.98
		c-2.47,2.78-0.62,5.97-1.44,8.85c-0.93,0.62-2.37,0.31-3.6,1.95c0,0.41,0.82,0.93,1.03,1.54c-1.89,0.63-2.63,0.84-0.1-25.71
		C583.87,448.91,574.13,424.35,572.6,410.04z M630.81,384.12c-2.98,0.93-6.07,0.21-8.43,0.41c-2.16,0.72-0.82,2.26-1.65,2.98
		c-2.1,0.42-1.06-7.13-0.62-9.15c3.39-15.47,4.16-8.95,6.89-21.6c1.65,2.26,3.09,4.22,5.14,5.76
		C630.3,369.92,630.91,376.92,630.81,384.12z M581.75,508.98c1.21-2.41-8.38-3.11,14.5,0.41c-5.04,6.17-11.93,3.6-18,4.83
		C575.51,506.54,580.07,511.27,581.75,508.98z M647.78,568.63c-11.56,4.55-11.34,5.14-29.11,5.76c-8.27,0.29-6.74-2.26-9.87-2.26
		c-6.58-0.51-12.75-3.1-19.23-3.6c-2.78-0.21-5.35-1.22-7.61-2.78c-8.88-6.11-17.88-5.65-16.66-14.09
		c3.57-24.82,9.37-29.61,4.53-38.47c-1.63-2.99,0-5.04,3.5-4.94c0.82,0.93-0.32,1.54-0.41,2.26c-0.95,7.72,7.32,13.16,10.29,11.01
		c12.91-9.39,15.73-8.64,21.29-10.49c0.62,1.95,1.34,3.81,1.95,5.86c-9.57,2.37-18.72,4.22-25.92,10.39
		c2.06,3.81,5.17,5.23,6.99,7.82c2.17,3.07,13.15-3.63,18.1-2.98c-2.88,1.95-6.89,1.65-8.74,5.14c4.22,1.54,17.59-2.78,20.98-6.58
		c10.67,17.78,14.73,19.18,23.96,22.01C644.49,557.63,645.83,563.08,647.78,568.63z M611.06,524.72c1.85,1.65,3.5,3.09,5.25,4.63
		c-2.57,0.72-5.04,0.93-8.33,1.13C610.86,529.03,608.6,525.44,611.06,524.72z M610.45,521.22c0.93,0.1,1.44,0.51,1.44,1.85
		C611.17,522.45,610.45,522.14,610.45,521.22z M634.41,466.19c-1.65,14.4-0.04,28.8-0.41,43.3c-0.34,13.37,1.65,26.54,7.61,38.88
		c-10.57,1.7-13.64-12.41-24.89-23.04c0.93-4.83-4.32-5.35-6.07-8.74c-0.93-2.88,4.42-8.54-3.7-9.26
		c-1.1-4.63,0.84-12.51-0.31-24.38c-0.28-2.88,0.91-5.55,0.93-8.43c0.16-42.44,19.22-63.36,12.86-83.82
		c3.91-0.21,7.2-1.03,10.8-1.85c1.65,13.88,2.82,27.67,1.85,41.45C632.47,438.81,635.69,455.02,634.41,466.19z M628.96,348.22
		c4.01,1.34,7.92-0.82,12.34,0.21c0.41,5.45,2.16,10.7,7.51,13.99c0.72-0.31-0.41-0.82,0-1.44c2.16,0.62,4.32,0.72,6.99,0.41
		C644.99,369.8,625.1,354.91,628.96,348.22z M660.74,355.52c-2.78,5.76-4.73,5.97-9.26,1.54c-0.93-0.31-0.93,0.51-1.23,0.93
		c-3.7-2.06-6.17-7.82-4.22-9.57c0-1.13-0.82-1.95-1.54-3.09c-22.09-2.1-18.91,4.9-20.78-2.57c2.98-2.88,2.79-4.02,1.13-7.71
		c-4.84-10.76-11.31-7.22-10.9-12.96c9.57,0.62,19.03-0.41,28.9-0.1C646.24,334.54,653.95,344.83,660.74,355.52z M753.51,412.2
		c-4.9,51.85,8.41,58.97-15.84,9.36c-4.77-9.77,3.88-15.41-1.65-20.06c0.62,4.11-1.85,7.61-2.06,11.62
		c-8.03-12.23-7.15-20.59-15.63-34.46c-2.12-3.46-1.95-6.69,0.72-9.98c-1.75-3.19-2.16-6.99-4.42-10.49
		c-0.93,1.65,0.21,2.57,0.1,3.91c-3.81,2.37-0.62,5.04,0.1,7.82c-5.26-4.68-14.63-42.87-24.07-53.69
		c9.87-0.21,19.54-1.75,29.31-1.13c0,1.02,1.41,0.66-10.18,3.29c-2.99,0.68-5.44,2.48-7.61,4.42c-2.87,2.58-3.09,4.53-1.23,8.64
		c0.55-10.86,14.68-13.58,25.51-13.58c3.34,0,1.91,1.82,15.12,5.86c5.76,1.76,9.99,7.41,9.46,13.27c-0.4,4.42-0.15,8.66,1.65,12.65
		c1.25,2.79-2.56,5.17-1.65,9.15c1.6,7-0.26,14.28,1.65,21.19C755.74,390.68,754.53,401.4,753.51,412.2z M781.59,509.49
		c-0.93,1.13-1.95,1.95-3.5,1.65C781.45,508.79,781.14,508.59,781.59,509.49z M771.1,503.94c-0.93-0.62-1.13-1.54-1.54-2.67
		C770.6,501.12,774.69,502.91,771.1,503.94z M772.13,506.41c2.37-0.62,4.42-2.37,6.58,0.51c-1.13,1.34-3.39,1.44-4.32,3.39
		C773.16,509.08,772.75,507.85,772.13,506.41z M774.5,512.48c1.44-1.34,2.57-1.13,3.5-1.34
		C777.48,512.48,776.45,512.48,774.5,512.48z M795.07,546.01c4.27-2.72,5.18-1.62-4.42-2.78c-3.39-9.57-9.87-17.79-13.58-27.56
		c1.65-1.13,3.19-1.44,5.04-1.44c-0.31,1.65-2.37,1.44-2.67,3.5c0,0.93,1.34,1.75,1.85,2.98c2.26,0.21,4.42,0.31,5.86-1.85
		c0.62-1.54-2.98-2.37-0.21-4.11c7.33,2.57,6.42,7.99,23.86,12.86c21.83,6.1,13.1,11.69,18.34,11.82c1.01,0.02-5.99,3.81-11.86,4.33
		C810.08,544.39,802.99,546.62,795.07,546.01z"/>
	<path d="M647.27,123.59l-0.1,0.1C647.27,123.7,647.25,123.66,647.27,123.59z"/>
	<path d="M450.41,283.63c-6.33-2.1-10.71-0.7-15.43-1.34c-1.15-3.44-0.96-11.34-9.46-22.83c-21.3-28.78-66.73-15.62-68.09,31.78
		c-8.15-2.53-7-10.08-18.31-10.8c-0.93-1.23-1.85-2.37-2.67-3.5c0.51-1.03,2.16-1.13,1.65-2.98c-3.09,1.13-5.86-1.34-9.46-0.62
		c2.67-3.6,5.35,0.62,7.71-0.72c-1.13-3.91-5.51-5.21-8.13-2.26c-5.35,6.03-8.89,0.23-12.34,4.83c-2.44,3.26-4.48-0.3-6.79,1.23
		c-0.8,1.09,0.84,2.12,0.31,1.85c-2.25-0.15-8.26-1.97-6.99,2.47c3.6-0.93,5.04-0.51,11.62,3.5c-0.31,3.09-0.3,6.17,0.41,9.15
		c0.92,3.88-3.7,4.6-3.29,6.38c7.9-0.94,4.93-6.65,5.14-8.64c0.61-5.71-0.97-10.26-6.49-12.67c16.27,4.19,21.28,0.97,9.47-0.29
		c1.34-1.03,2.47-1.34,3.91-1.13c4,0.57,13.4-2.69,12.45,7.41c-1.25,13.18,1.31,4.59-1.85,15.84c-3.95-1.69-8.83,3.77-10.39,4.22
		c-3.56-1.67-23.89,0.53-32.5-6.58c2.98,0,5.14-0.21,7.3,0c4.42,0.44,12.14-3.69,9.98-12.03c-0.82-3.16-2.4-2.44-22.94-2.26
		c-4.42,0.04-0.25,1.79-14.81-5.76c-14.04-7.28-13.17-8.95-13.78-7.71c4.73,6.48,13.47,7.71,18.92,13.99
		c-9.75,1.08-7.29,0.15-25.51-6.89c-2.07-12.19-11.97-1.97-17.69-8.74c-7.7-9.12-8.32-17.36-18.31-30.86
		c-8.92-12.06-16.46-24.89-22.01-38.88c1.54,0.93,2.67,2.67,4.94,1.75c-2.19-5.48-5.17-1.91,1.65-7.82
		c12.01,24.02,12,26.84,19.44,30.96c1.85,1.03,3.09,2.98,6.07,3.39c-2.88-3.6-5.74-6.08-8.54-8.64c-7.24-6.63-3.04-8.12-15.02-27.77
		c8.74-8.74,12.07-10.83,7.82-12.96c-0.93,2.98-2.98,4.73-5.86,5.76c-0.93-2.57-0.62-5.04-0.62-7.61c4.67-0.83,1.31-7.82,1.34-11.73
		c0.05-6.69,0.31-13.27-2.37-19.75c3.08,0.31,17.43,3.14,19.23,5.66c17.97,25.08,8.65,30.99,15.22,40.63
		c1.34-1.13,1.14-2.37,0.93-3.6c-2.95-17.3-2.65-20.45-4.73-24.68c-12.52-25.51-23.11-15.71-30.44-20.98
		c0.82-1.54-0.22-2.46-1.23-3.39c-23.1-21.34-10.82-5.26-7.51-21.91c1.33-6.68,3.85-4.91,4.83-15.74c0.28-3.09-0.19-6.47,1.34-9.15
		c2.91-5.12,1.55-10.26,0.41-15.43c-0.11-0.51,0-1.65-1.23-1.23c-0.51,0.41-0.31,0.82-0.31,1.34c0,17.36-1.8,7.08-2.37,21.39
		c-0.39,9.86-2.1,9-5.45,21.08c-1.51,5.44-0.65,4.32-19.85,4.32c0.82,2.88,3.39,2.16,4.94,3.19c-0.1,0.21-3.71,7.41-3.81,7.61
		c4.22-1.03,4.73-1.54,8.13-7.82c4.63-0.51,6.17,4.22,8.74,5.14c1.75,5.14,5.04,9.05,4.11,13.88c-0.93,1.44-3.09,1.54-3.6,3.39
		c1.34,1.54,2.57-0.31,3.91,0.21c-0.1,1.23,0.1,2.47-0.51,3.5c-0.93,0.82-2.47-0.31-2.98,1.13c0,3.39,4.56-2,0.1,7.61
		c-4.01,8.64-10.04,8.18-20.16,9.05c-12.12,1.05-20.67-8.01-26.23-18.72c1.84-0.2,16.32,4.69,0.21-2.57
		c-5.4-2.43-0.41-0.42-10.8-10.39c-14.03-13.47,0.19-6.3-22.11-17.79c9.09-1.28,17.99-2.74,24.42-9.85
		c-2.44,10.66-1.42,15.16,1.81,0.39c0.26-0.94,0.35-1.92-0.65-2.07c2.62-6.04,7.12-11.76,3.73-18.81c0.93-1.03,3.7,0.41,2.78-2.26
		c-0.82-1.03-1.75,0.21-2.67-0.31c-3.49-5.59,0.25-1.24,2.16-4.11c0-9,2.88-6.6,2.88,0.41c3.25-1.2,5.86-10.13,6.69-13.47
		c1.42-5.74,3.82-3.87,7.1-13.16c1.2-4.41,3.86-1.69,5.76-2.57c0.31-0.62-0.62-0.93-0.51-1.75c7.31-2.25,0.74-3.04,1.74-7.93
		c0.66,0,3.84,1.51,3.71,4.54c2.98,0.31,1.03-2.16,2.16-2.88c1.85,0.62,3.5-0.94,5.55-0.82c6.48,0.37,12.86,2.88,19.44,0.21
		c1.13,5.66,0.21,11.52,3.81,16.25c-0.21,1.13-0.51,2.16-0.82,3.19c-3.45,1.48-15.01,4.79-9.77,14.4c1.13-1.54-0.21-3.6,1.44-5.04
		c2.88,1.23,5.55-0.41,8.54-1.03c0.41-5.25,4.53-10.18,0.93-15.63c-0.16-0.16-1.53-13.37-1.54-13.47c2.57-3.91,7.2-4.83,10.39-8.13
		c-1.13-1.44-0.21-3.09,0.1-4.73c-2.37-1.34-4.73-0.21-7.1-0.21c1.34-2.06,4.63-1.65,5.14-4.42c-1.87-3.37-6.84,0.72-7.61,1.13
		c-0.41-3.09,1.44-6.27-1.23-9.36c-1.75,2.37-3.39,4.11-5.55,5.35c-0.51-0.72,0.72-1.65-0.82-2.57c-4.11-0.51-8.13,1.54-12.75,2.47
		c-0.82-0.93-2.26-0.92-3.91-0.82c-12.67,0.74-13.99-0.83-15.22,2.26c-0.53,1.33-1.65,1.65-3.09,1.65c0.1-1.54,0.93-3.09-1.54-3.6
		c-2.78,4.22-6.99,6.17-12.14,6.58c-1.23-1.13-2.47-2.26-3.81-3.39c-1.23,0.41-2.67-0.82-3.91,0.41c-0.31,2.26,2.26,2.78,2.57,4.42
		c-1.99,2.08-3.1,4.31-3.14,6.91c4.73-1.84,1.99-1.51,5.4,1.52c1.34,0.62,2.26-0.72,3.5-0.51c1.13,1.23,0,1.95-0.72,2.98
		c-3.09-2.47-5.97-1.44-9.15,1.34c0.32-2.33,2.83-3.69,2.54-4.27c-0.42-0.1-0.93-0.04-0.07-0.09c-0.4-0.58-0.94-0.62-1.48-0.69
		c0,1.84-0.8-0.68-2.13,0.83c-0.21,1.03,0.93,1.13,1.13,2.26c-2.67,0.1-0.41,2.67-1.75,3.7c-1.86,1.43-2.19,3.39-2.37,5.55
		c-0.5,6.16-6.13,9.47-1.95,20.78c1.17,3.17,3.33,5.99,1.54,9.67c-0.2,0.41,0.1,1.23,0.41,1.75c4.4,6.23,2.06,17.69,4.94,17.69
		c2.29,0-0.24,8.9-7.92,12.24c-3.51,1.52-7.29,2.19-10.9,3.5c-2.05,0.74-3.92-0.44-6.07,0.41c-19.66,7.77-16.76,17.53-29.83,20.98
		c-3.69,0.97-10.13,5.81-13.47,13.37c-3.31,7.49-11.46,17.02-10.49,37.34c0.52,10.88,0.4,4.9-9.87,10.29
		c-11.58,6.07-9.45,23.36-0.82,32.71c-5.62,4.97-3.41,16.88-17.9,29.11c-0.82-1.03-0.62-2.67-2.37-2.67
		c-1.83,0-5.34,10.51-10.9,13.58c-4.31,2.38-6.27,6.48-5.04,11.62c1.07,5.91-6.2,4.81-7.41,11.93c-3.73,22.08-1.43,17.52,14.4,46.59
		c0.79,1.46,0.93,2.78-0.72,3.6c-1.75-0.62-1.75-2.88-3.5-3.29c-0.51,2.67-0.51,2.67,3.29,7.82c-3.54,2.43-0.54,15.51,0.1,23.24
		c0.42,5.04,2.47,6.94,7.61,6.99c9.77,0.1,2.2,2.05,26.02,4.22c2.47,0.22,5.04-0.93,8.02,0.1c-1.85,5.55,0.12,10.55,2.16,15.63
		c0.93,2.3-0.73,4.6,2.26,10.59c-5.15,8.9,4.31,15.72-0.62,24.17c-2.17,3.73,2.91,13.27,1.85,22.52
		c-0.97,8.47,2.26,10.14,1.23,12.75c-1.18,3-0.74,5.98,0.51,8.64c2.53,5.37,0.79,10.8,0.93,16.15c0.29,11.32,7.22,8,4.83,20.06
		c-4.79,24.18-8.28,27.2-3.39,35.07c0.9,1.45,3.91,1.65,2.37,4.63c4.53,0.41,8.54,1.85,12.75,1.23c2.78,4.32,4.73,5.45,9.87,6.17
		c1.31,5.23,8.12,0.37,14.6,3.19c13.41,5.83,45.45,0.45,47.31-5.76c-1.13-2.06-0.62-4.63-1.44-7.3c9.77,5.66,17.69,13.99,28.9,17.18
		c0.25-4.93-1.49,2.52-23.24-16.04c-28.12-23.99-15.68-61.52-20.57-183.69c-0.97-24.33,0.73-11.64,3.5-15.94
		c0-0.15-0.1-0.52-0.13-0.56c1.92-0.23,1.35,2.32,3.12,2.82c24.47-1.88,12.3,0.92,21.8-10.49c6.58,0.72,12.34-2.47,18.92-2.26
		c-13.73,19.91-15.81,13.5-38.78,13.99c3.7,0.93,7.51,2.58,11.21,2.88c19.45,1.58,21.76-6.94,24.07-6.17
		c7.14,19.04,23,47.54,29,60.99c-2.18-10.37-13.82-25.56-28.18-62.33c1.67-2.28,6.73-11.52,4.01-11.52
		c-2.37-0.31-4.75,1.27-6.89,0.1c-2.39-1.3-1.34-4.63-3.19-6.58c-0.21,2.06,1.34,3.7,1.03,5.76c-2.16,0.93-4.55,0.9-6.38,2.67
		c-0.95,0.92-2.73,0.93-4.21,0.14c2.8-2.11,5.41-4.34,6.37-7.96c1.1-4.15,4.19,0.08,8.95-18.62c1.62-6.36-0.8-2.26,12.96-4.11
		c0.25,0.33,0.45,0.59,0.61,0.79c-0.73-0.11-0.19,4.59,18.42,44.77c5.34,11.53,11.34,22.72,15.53,34.76
		c1.97,5.65,5.14,10.6,7.71,15.94c26.99,55.95,6.46,29.02,37.54,91.95c0.81,1.65,1.75,3.19,0.82,4.94
		c3.09,1.65,15.94,26.43,17.38,33.32c-5.35-1.03-9.87,2.35-15.12,2.57c-16.28,0.69-17.49,0.3-19.13,2.16
		c0.51,1.44,1.54,1.12,2.57,1.03c29.56-2.71,26.9-5.75,35.18-3.91c1.03-0.41,0.21-1.75,1.65-2.26c1.65-0.21,3.29,0.93,5.04,1.54
		c0.41,5.76,0.93,11.21,1.34,16.76c-14.3,2.67-28.8,3.19-42.48,8.54c6.77,1.18,33.77-6.84,46.08-6.17
		c19.2,1.05,41.26-2.22,55.85-16.56c25.74-25.29,33.17-21.29,30.96-186.78c-0.03-1.95-0.31-3.91-2.78-5.14
		c0.04,0.65,2.53,58,2.47,60.48c-2.68,101.67-1.15,102.55-40.63,138.03c-6.26,4.87-39.76,9.94-46.39,7.2
		c1.71-16.81-8.51-18.55,5.35-19.64c10.57-0.84,24.53-6.02,26.84-8.33c15.56-15.56,20.7-30.51,20.36-42.89
		c-0.93-34.64,3.22-53.85,1.85-78.27c-0.31-5.54-0.28-19.64,0.21-19.64c0.3,1.57,1.54,9.81,1.54,5.04
		c-1.53-20.6-0.67-34.92-2.16-41.86c-0.26-1.79-2.28-1.7-1.95-0.1c1.5,7.28-1.3,43.09,0.82,73.23c0,7.41-3.48,30.82-3.6,49.06
		c-0.17,24.97-3.92,45.56-23.82,56.18c0.84-4.58-4.56-12.4-9.61-13.19c-29.37-4.6-32.55-24.52-52.15-28.39
		c-1.44-3.47-13.21-30.03-12.24-32.81c2.95-8.44-3.08-6.7,0.72-54.61c2.82-35.6-2.71-31.53-1.75-42.99
		c2.21-26.28-1.75-18.52-0.62-25.4c1.93-11.68-5.2-19.46-10.08-20.57c-8.86-2.01-16.97-6.27-25.3-9.98
		c0.93-1.23,1.96-0.73,2.98-0.31c13.35,5.43,11.8,7.36,17.69,2.06c-5.86,0.72-10.08-2.16-14.71-4.11c3.29-2.67,7.83-3.18,9.77-6.69
		c3.7-6.66,7.99-5.84,7.51-8.23c-1.85,1.03-3.6,0.82-5.25-0.62c8.19-2.39,6.02-4.06,11.52-0.62c9.11,5.7-9.98,13.85-6.58,19.23
		c14.82-17.21,13.3-16.14,6.17,0.31c-1.74,4.01-5.45-0.48-8.43,0.41c2.29,4.59,9.79,4,14.81,2.98c3.4-0.69,5.25-3.5,6.27-6.79
		c8.43,0.1,16.56-0.72,24.68-0.82c1.54,1.54,3.29,3.61,5.35,3.7c4.63,0.22,8.74,2.42,13.37,2.57c2.47,0.08,5.86-0.72,7.2,2.78
		c2.26-1.13,4.11-1.63,6.58-0.93c6.84,1.95,8.15-5.57,14.09-4.42c1.13,0.22,2.17-1.24,1.85-2.67c-0.2-0.93-0.1-1.65,0.93-2.57
		c5.56,1.85,7.98,10.78,22.52,9.36c4.22,15.22,11.52,27.87,27.98,33.74c-4.73,2.67-8.95,2.72-13.27,2.88
		c-9.86,0.36-9.85-6.59-10.8-4.22c0.82,1.54,1.75,3.09,2.78,4.94c-6.17-0.82-9.05-4.01-9.36-9.77c10.06-2.39,5.43,3.45,10.49,4.42
		c-0.51-1.75-2.06-2.78-1.95-4.63c2.97-2.97,5.55-2.47-14.3-2.47c2.29,10.16,3.96,21.67,30.24,17.9c12.05-1.73,12.28,1.24,16.87-3.5
		c1.67-1.72,2.16-4.11,3.19-5.66c13.17-0.79,23.51-4.76,31.37-27.67c7.4-21.56-2.41-14.47,16.04-16.76
		C455.33,294.25,457.27,285.9,450.41,283.63z M193.08,69.7c1.23-0.51,2.37-0.72,3.6-0.62C195.54,70.21,195.54,70.21,193.08,69.7z
		 M204.49,32.47c-1.03,1.65-1.75,2.78-2.57,3.91c-1.65-0.72-0.93-2.06-1.54-3.19C201.92,32.88,202.95,32.67,204.49,32.47z
		 M194.21,24.14c1.75,2.26,0.31,2.88-1.34,4.11C193.49,26.6,193.8,25.68,194.21,24.14z M191.22,42.96
		c-0.62,0.31-1.13,0.41-1.34-0.41C190.71,41.83,190.92,42.55,191.22,42.96z M181.56,33.5c-0.31,1.03-0.82,1.23-1.44,1.44
		C179.6,33.7,180.53,33.8,181.56,33.5z M177.96,39.87c8.01,3.2,5.98,3.65-0.31,0.72C177.75,40.39,177.85,40.18,177.96,39.87z
		 M172.61,38.95c0.93-1.03,1.34-0.62,1.65,0.21C173.74,39.98,173.23,39.67,172.61,38.95z M171.68,29.28
		c1.03-0.82,2.06-0.82,4.22-0.82C169.44,34.2,171.16,33.43,171.68,29.28z M160.99,42.14c1.23,0.31,2.26,1.03,3.29,1.65
		c-1.44,1.75-3.09,1.54-4.94,0.41C159.34,43.16,160.27,42.75,160.99,42.14z M141.34,30.41c0.72-0.1,1.03,0.31,1.23,1.13
		C141.55,31.54,141.14,31.23,141.34,30.41z M135.04,39.33c-0.02,0-0.07,0.02-0.2,0.02C134.9,39.34,134.97,39.33,135.04,39.33z
		 M138.46,80.91c-0.28,0.28-1.38-0.49-0.1-1.13C138.87,80.19,138.77,80.6,138.46,80.91z M155.43,50.98c2.67,2.06-0.21,2.47-0.51,3.5
		C154.4,53.24,154.61,52.21,155.43,50.98z M153.27,30.31c-0.41,1.03-0.72,2.16-2.78,1.75C151.11,30.92,152.04,30.31,153.27,30.31z
		 M154.92,38.74c-0.82,2.57-2.57,4.22-5.25,5.76C150.39,41.21,152.96,40.18,154.92,38.74z M149.06,54.89
		c-0.1,1.03-0.62,1.65-0.72,1.44C147.62,55.71,148.44,55.4,149.06,54.89z M148.23,58.8c0.62,1.95-0.51,2.47-1.54,3.19
		C145.76,60.34,146.79,59.62,148.23,58.8z M147,71.86c0,1.34-0.31,1.95-1.34,2.26C145.46,72.99,146.07,72.48,147,71.86z
		 M144.53,77.82c-0.41-0.93-0.31-1.34,0.82-0.93C145.46,77.52,145.15,77.82,144.53,77.82z M144.94,58.69
		c-0.51,1.13-1.75,1.23-3.09,2.26C142.47,59,142.78,57.67,144.94,58.69z M141.75,74.84c-2.37-1.03-3.91-2.47-4.22-4.83
		C140.62,69.19,140.93,69.49,141.75,74.84z M138.15,56.84c0.62,1.85-0.62,3.39-0.51,5.14C136.61,60.13,136.71,58.49,138.15,56.84z
		 M134.55,85.85c-0.93,0-1.03-0.41-0.51-1.13C134.55,84.92,134.76,85.33,134.55,85.85z M134.86,79.98
		c-3.39-4.01-3.39-4.01-1.13-6.27c1.44,0,2.06,1.13,2.88,2.26C136.1,77.31,134.14,78.03,134.86,79.98z M283.69,510.32
		c2.47,0.21,4.63,0.31,6.07-1.85c0.62-1.54-2.98-2.37-0.21-4.11c7.33,2.57,6.39,8.09,23.86,12.86c8.48,2.31,13.26,2.87,16.35,10.7
		c0.47,2.05,3.31,0.37,1.32,1.56c-7.58,4.52-27.83,6.59-33.51,6.15c4.09-2.6,5.4-1.5-4.42-2.67c-3.29-9.57-9.87-17.79-13.58-27.56
		c1.65-1.13,3.19-1.44,5.14-1.44c-0.41,1.54-2.47,1.44-2.67,2.88C281.94,508.36,283.58,508.98,283.69,510.32z M284,499.21
		c-0.82,1.03-1.85,1.65-3.39,1.65c-2.06,2.64-5.4,0.54,0,0C283.86,497.96,283.45,498.38,284,499.21z M281.12,496.64
		c-1.34,1.23-3.39,1.54-4.42,3.5c-0.82-1.44-1.44-2.57-2.26-4.11C277,495.4,279.27,493.65,281.12,496.64z M273.4,493.55
		c-0.82-0.93-1.34-1.65-1.34-2.67C273.08,490.79,277.13,492.72,273.4,493.55z M58.24,185.82c6.94,10.75,10.28,8.54-0.62,8.54
		C57.31,191.58,58.13,189.11,58.24,185.82z M49.19,200.12c2.67-0.53,5.35-2.49,8.02-2.06c5.56,0.89,21.08-0.72,27.67-1.13
		c2.37,7.3,7.17,13.48,9.26,20.98c1.72,6.18,5.03,11.53,9.87,15.84c6.16,5.47,11.11,12.24,18.31,17.38
		c-9.56,6.64-17.08,23.46-19.03,35.18c-5.35,0.93-10.18-2.06-14.91-1.13c-1.54-0.82-1.87-2.05-2.47-3.09
		c-6.59-11.42-22.15-30.27-28.39-44.84c-1.41-3.3-3.6-5.56-6.79-6.99C37.63,224.35,35.43,202.87,49.19,200.12z M141.55,291.14
		c5.08,8.46-6.24,14.08-0.82,22.32c3.52,5.36,6.84,13.52,8.95,19.85c1.66,4.97-2.92,4.9-9.87,7.41
		c-6.85-11.3-5.17-38.35-12.03-27.26c-6.91,11.17,1.7,11.28-10.9,25.4c-7.76-0.69-10.49-10-0.31-18.62
		c5.03-4.26,6.97-7.6,4.83-13.58c3.09-0.21,5.75-0.99,8.43-0.41c1.03,0.22,1.96-0.1,2.78-0.72c9.78-7.37,3.29-23.62-11.11-21.91
		c9.71-8.65,21.41-0.87,20.06,6.38C141.44,290.32,141.44,290.83,141.55,291.14z M133.22,375.17c-3.81,0.62-7.41,0.31-11.21,0.1
		c-0.85-10.62,5.42-19.88,7.41-28.8c1.75,2.06,3.09,4.11,5.04,5.66C132.6,359.84,133.22,367.35,133.22,375.17z M118.3,403.04
		c-13.4,62.6-12.14,54.39-12.14,94.62c-5.76-1.23-11.11-3.39-16.97-3.39c0.1-3.7-0.72-6.79-1.85-9.98
		c-2.47,2.78-0.62,5.97-1.44,8.85c-0.82,0.62-2.47,0.1-3.19,1.34c-0.45,0.79,0.86,1.76,0.57,1.97c4.92,1.32,10.04,1.74,15.16,2.87
		c-8.13,5.32-2.26,3.31-17.79,4.42c-2.27-7.93,1.61-2.74,3.5-5.14c0.51-1.01-0.77-1.43-0.91-2.13c-0.14,0.05-0.44,0.01-1.04-0.14
		c-1.8,0,0.76-20.42,1.34-31.99c1.41-28.43-7.15-51.52-8.64-64.69c-1.45-12.8,0.44-14.5-1.75-17.07c-0.36-0.36,1.64-15.15,5.45-21.6
		c3.51-5.95,3.98-8.59-2.37-10.18c1.93,3.64,4.59,1.52,1.03,8.64c-4.11,0.31-8.43-1.23-12.45,0.93c3.29,1.95,6.48,3.5,10.39,3.19
		c-1.13,6.89-4.22,13.27-4.11,20.47c-3.6-2.37-6.56-5.15-8.74-8.74c-1.17-1.93-0.31-0.77,3.39-26.95
		c2.38-16.82,21.56-28.06,27.87-29.42c6.14-1.32,1.81-3.7,6.38-3.19c9.17,0.4,6.31,0.53,7.51,1.13c3.7,3.39,2.16,7.1,0.41,10.7
		c-2.26,4.63-0.74,10.53,3.7,13.27c10.73,6.61,7.4-8.84,15.74,2.47c-1.56,13.54-0.73,6.41-4.22,6.99c0.93,4.53-0.31,8.85-2.06,13.37
		c-0.93,0.51-1.34-1.95-2.98-0.41C117,378.58,123.51,378.71,118.3,403.04z M107.91,308.83c2.47-1.95,5.35-1.13,8.23-1.65
		c0.82,2.06,1.95,3.39,3.39,4.94c-2.16,2.57-4.22,5.25-7.1,7.61C109.77,316.44,108.43,312.84,107.91,308.83z M124.16,335.37
		c5.14-5.86,1.95-14.09,6.38-21.19c0.82,9.98,1.23,19.23,5.76,27.67C131.98,340.3,127.66,339.07,124.16,335.37z M131.06,304.92
		c-16.46,0.21-32.91,1.13-49.37,2.47c3.5-6.27,4.42-12.24-0.51-18.31c17.78-2.96,12.46,2.69,26.54-0.31
		C135.68,282.82,137.23,296.98,131.06,304.92z M73.97,306.67c-14.24-7.02-3.53-18.74,0.93-17.69
		C83.11,290.92,83.75,303.53,73.97,306.67z M35.82,253.5c2.06,0.51,2.88,2.67,5.25,3.39c-2.18-5.02-6.55-3.02-1.95-8.54
		c3.29,3.09,6.58,6.07,9.87,9.15c1.37-1.37-6.69-7.06-9.05-10.7c1.69-2.73,6.25-11.31,6.89-14.5c13.8,6.58,4.77,6.88,30.03,40.42
		c2.87,3.81,4.22,8.64,8.13,11.73c-1.65,1.65-3.5,0.72-4.94,1.65c-1.62-3.79-10.25-2.25-20.98-8.02c-5.09-2.74-9.48-8.1-12.03-8.64
		c1.2,4.8-9.98-5.05-18.2-7.2C30.16,258.02,34.17,256.79,35.82,253.5z M49.8,277.15c-0.51,0.72-0.93,0.93-1.85,0.82
		C48.16,276.84,48.26,276.02,49.8,277.15z M45.28,278.28c-14.82-4.94-7.29-4.81-7.51-8.23c6.14,0.72,2.92,7.86,7.92,4.73
		C46.1,276.12,45.59,277.15,45.28,278.28z M34.79,272.52c-0.72,0.72-0.72,0.72-1.95,0.31C33.45,272.32,33.96,271.91,34.79,272.52z
		 M26.56,263.57c2.98,1.23,0.93,2.88,1.13,4.53c-0.1,0.93,2.67,0.72,1.23,2.67c-1.65-0.82-3.39-1.65-5.14-2.47
		C23.88,266.15,25.84,265.32,26.56,263.57z M23.47,262.44c0,2.98-0.1,3.29-1.65,5.66C22.25,263.9,18.56,266.87,23.47,262.44z
		 M13.5,331.87c-3.28-5.05-5.48-10.68-8.74-15.84c-5.45-8.64-0.61-15.77-2.67-20.26c4.41-6.12,20.94-16.18,15.22-21.6
		c-2.88,2.16-3.7,5.55-5.66,8.64c-1.57-5.65-3.13-4.38,10.08-14.81c-0.1,1.13,0.31,1.85,1.44,2.26c10.44,3.85-0.28,1.25-8.33,23.24
		c-10.37,28.32-4.02,25.58-3.19,20.78c4.94-28.57,9.59-29.99,13.88-36.82c1.38,0.59,0.87,2.96,4.01-4.11
		c7.41,3.7,15.32,6.07,23.24,10.18c-16.5-1.24-19.33-2.15-21.08,2.16c-0.89,2.18-3.6,3.09-5.35,4.83c3.09-1.65,7.1-0.93,9.36-4.32
		c1.35-2.03,16.99,0.37,20.06,0.93c-28.65,14.33-23.86,18.14-28.08,22.94c-10.41,11.83-10.78,23.94-8.64,25.1
		c5.06-31.72,34.93-36.31,37.34-40.32c-4.33-1.4-10.87,3.02-16.87,5.25c7.1-5.55,15.02-9.57,23.24-13.47
		c-5.66,0.1-7.61-6.38-13.37-6.38c3.23-5.17,5.75,2.61,24.27,5.86c-8.89,3.91-10.93,10.4-7.71,16.35c1.56,2.89,3.15,7.91,9.67,6.99
		c6.68-0.94,13.46,0.04,20.26-1.23c2.88-0.54,6.07,1.03,9.26,0.41c0.51,2.16,2.37,3.7,1.13,6.07
		c-14.52-7.67-41.61,16.66-44.12,34.76c-1.04,7.51-0.31,15.32-3.09,22.73c-5.86-5.14-13.57-7.62-19.13-13.37
		c-4.42-4.57-13.31-6.54-18.82-10.08C13.78,344.02,19.71,341.43,13.5,331.87z M21.72,373.21c-1.44,0.31-1.03,1.44-2.06,2.16
		c-2.43-4.41-3.59-26.12-3.6-26.23c5.76,5.14,13.67,6.08,18.62,10.9c9.45,9.2,25.5,12.36,26.02,18.92
		C47.03,380,33.76,379.49,21.72,373.21z M68.93,497.25c0.51-3.7-1.02-7.4,0.62-11.01c1.39-3.05-3.64-10.24-2.78-12.65
		c1.98-5.51-1.45-10.6-0.93-15.94c1.25-12.6-4.53-18.83-1.54-24.27c4.08-7.43-3.07-11.04-1.34-23.66
		c2.22-16.18-6.41-15.54-4.22-22.52c0.42-1.33,0.21-2.88,0.31-4.53c1.03-0.41,1.95-0.82,3.29-1.44c2.16,2.98,5.86,4.01,9.15,5.76
		c-1.38,33.86,11.63,39.24,9.26,81.56c-0.9,16.03-1.9,16.82-1.34,24.17c-1.23,0.51-2.47,1.23-3.29,2.06c-2.16,0-3.7-1.44-5.14-1.23
		C68.85,494.79,71.19,497.82,68.93,497.25z M149.98,558.66c-11.59,4.44-10.84,5.13-29.42,5.76c-7.41,0.25-5.98-1.68-9.46-2.26
		c-6.38-0.51-12.45-2.97-18.92-3.5c-3.7-0.3-6.88-1.86-9.87-3.91c-7.19-4.92-16.18-4.59-15.02-13.16
		c3.13-23.08,9.55-29.25,4.42-38.36c-1.44-2.98,0.21-5.14,4.22-4.94c-4.25,8.82,7.59,15.59,9.26,13.37c3.09-3.6,8.03-4,11.52-7.2
		c2.58-2.36,6.58-1.85,9.87-3.39c0.72,1.95,1.34,3.91,2.06,5.97c-9.36,1.95-18.41,3.81-25.71,10.08c1.95,3.7,5.2,5.28,7.2,8.02
		c2.06,2.84,13.16-3.93,17.59-3.19c-2.3,1.84-7.64,2.11-8.43,5.14c3.7,1.65,17.28-2.57,20.78-6.58
		c11.53,18.62,14.11,18.88,23.96,22.22C146.69,547.34,147.92,552.9,149.98,558.66z M113.98,514.22c5.24,4.91,7.96,5.35-3.09,5.76
		C113.37,518.75,111.1,515.25,113.98,514.22z M112.65,510.62c1.13,0.41,1.54,0.82,1.75,1.65
		C113.47,512.37,113.16,511.76,112.65,510.62z M136.92,453.85c-1.4,13.68,0.23,27.36-0.51,41.04c-1.46,26.94,8.66,41.37,6.89,44.02
		c-3.7-1.95-8.13-2.05-10.8-6.38c-3.81-6.17-7.82-12.34-13.27-17.38c0.93-4.83-4.22-5.55-6.07-8.54c-0.93-3.29,4.22-8.95-3.81-9.57
		c-1.66-8.71,0.07-48.03,6.27-71.48c4.59-17.36,11.58-30.84,7.2-45.77c3.81-0.21,7.2-0.72,10.59-1.75
		c3.49,14.56,1.35,38.07,2.98,56.98C136.95,441.3,137.55,447.68,136.92,453.85z M140.28,353.23c-1.1,0-3.01-0.83-3.67-2.44
		C138.98,351.64,140.76,353.33,140.28,353.23z M160.28,351.71c-0.33,0.9-11.74,4.91-22.58-2.5c-1.69-1.16-2.3-1.63-2.45-1.8
		c-2.11,0.45-0.58,1.62-3.27-0.73c1.22-0.24,2.26-0.13,3.23,0.67c-0.03-0.08,0.14-0.03,0.28,0c5.55,0.76,11.21,0.38,17.27,0.68
		c1.54,1.13,3.29,3.29,6.48,2.67c-1.13-1.54-3.29-1.34-3.91-3.29C170.91,342.52,164.79,339.3,160.28,351.71z M176.11,319.73
		c-6.52,17.53-15.56,29.23-33.63,24.38c7.67-3.26,16.1-2.65,7.51-18.82c-1.58-2.97-1.34-6.58-3.81-9.26
		c-2.27-2.46-3.81-5.45-5.14-8.33c0.72-2.26,2.36-3.7,3.39-5.55c3.99-7.17,0.68-9.22-0.31-13.27c-1.4-5.72-7.74-12.85-11.83-12.45
		c-18.79,2.97-12.95,7.57-18.62,8.23c-2.17,0.25-4.42,0.51-6.89,0.82c-0.21-4.63,0.8-8.97,3.5-12.75
		c8.53-11.96,2.85-9.61,12.24-16.87c12.19-9.42,15.98-5.51,28.28-5.66c12.81-0.15,22.68,17.14,24.38,24.68
		C181.49,303.05,181.25,305.9,176.11,319.73z M223.11,305.64c-11.28,1.88-23.79,4.91-19.54,15.53c0.86-13.38,24.29-15.57,28.8-12.55
		c7.66,5.12,22.28,4.69,21.19,18c-1,12.12,3.38,11.66,1.34,16.15c-1.03,1.95-1.76,4.01-1.23,6.07c1.71,6.69-0.1,13.47,1.44,20.06
		c0,4.23,3.73,4.35,0.72,33.74c-2.84,27.68-0.62,35.34-0.62,41.65c-12.43-34.18-19.44-31.39-15.22-46.59
		c0.65-2.36,1.54-4.63-1.23-6.58c-0.1,4.01-1.75,7.61-2.26,12.45c-7.6-13.62-6.9-17.01-11.73-28.28
		c-2.81-6.56-8.79-10.23-3.19-17.07c-1.95-3.09-2.06-7.1-4.42-10.39c-0.82,1.65,0.31,2.57,0.1,3.7c-1.85,2.16-1.85,2.16-0.31,8.13
		c-7.71-15.53-12.45-32.19-19.44-48.13C214.39,305.87,212.39,299.05,223.11,305.64z M225.37,295.46
		c-20.43,6.88-16.37,13.68-43.09,13.68c0.82-5.45,0.21-10.08-0.21-14.91c19.91-0.93,21.6-1.07,31.16-5.97
		c8.72-4.46,14.08-0.69,21.6-4.83c1.13,0.82,2.06,1.54,2.67,2.57C235.35,291.55,230.52,293.73,225.37,295.46z M210.97,285.38
		c-15.57,11.23-26.22-1.05-28.8,5.66c-0.62-10.18-3.9-18.93-7.3-27.36c-8.8-21.8-41.95-20.54-49.88-14.3
		c-10.75-6.74-14.3-13.92-16.15-15.43c-20.66-16.88-9.31-28.41-36-54.92c-0.31-0.31-0.82-0.51-1.85-0.21
		c0.72,3.5,3.72,5.23,5.66,7.61c7.24,8.91,7.04,6.15,6.38,8.13c-15.45,0-13.23,0.38-14.91-1.03c-8.68-7.23-11.54-17.8-6.69-28.7
		c13.91-31.22,14.6-18.11,33.84-36.72c0.63-0.61,1.13-1.34,2.16-1.65c8.43,2.57,18.1,2.98,22.83,12.55
		c-0.21,0.72-1.34-0.1-1.44,0.82c0.73,1.46,9.65,0.43,16.04,31.37c0.65,3.13-2.02,8.25-1.85,9.98c2.67-3.39,5.34-6.78,4.01-11.62
		c-4.37-15.95-1.51-14.27-16.04-33.53c-12.29-16.27-32.91-5.67-15.84-15.43c2.59,1.14,14.08,6.94,15.74,9.26
		c3.6,6.07,9.1,10.34,13.88,15.32c9.73,10.13,10.26,31.78,44.74,25.61c13.79-2.47,17.47-23.48,12.55-36.51
		c1.95,1.65,3.7,3.5,5.76,4.94c-0.51,0.41-0.93,0.72-1.65,1.13c3.81,7.3,4.68,15.1,3.7,23.24c-0.16,1.37,1.65,5.24,0.51,8.02
		c-1.75,4.28-1.34,8.64-0.21,13.27c-14.72,14.72-20.43,13.64-32.81,15.22c-6.58,0.84-12.14-1.54-18-3.6
		c12.65,10.29,26.23,6.38,40.21,3.29c16.9,38.41,27.3,41.75,33.43,59.76c1.25,3.67,6.1,12.12,10.59,11.62
		c-0.1,0.31-0.21,0.62-0.31,0.93c-16.49,1.94-31.9-8.68-44.64-19.23c-16.25-13.46-26-10.25-33.94-18.72
		c0.93-8.33-3.17-16.25-4.53-24.79c-1.62-10.19-7.06-18.04-14.4-24.79c-1.13-1.03-1.13-1.03-3.81-1.23c0,2.98,2.37,4.42,4.11,5.97
		c11.04,9.76,11.45,21.91,14.4,30.96c4.56,14-6.97,15,19.13,24.79c12.91,4.84,7.85,6.19,45.25,27.56c-2.67,1.95-5.97,2.88-7.51,5.97
		c2.97,2.23,3.53-6.56,16.87-3.29c7.86,1.92,5.55-4.48,11.01,2.57c1.34-1.65-0.62-2.57-0.82-3.81c3.09-3.19,6.89-1.75,10.18-1.95
		c1.65,1.44,1.85,3.19,2.47,4.83C230.74,285.11,223.94,276.03,210.97,285.38z M255.4,288.88c0.41-0.93-0.1-2.06,1.13-3.19
		C256.64,287.23,255.61,287.95,255.4,288.88z M254.89,302.76c-5.55,2.38,1.76-6.96,4.42-17.07
		C258.69,291.55,256.43,297,254.89,302.76z M258.39,301.53c1.03-5.66,3.5-11.01,3.09-17.69c1.13,1.65,1.95,2.78,2.88,4.32
		C261.88,291.76,261.06,297,258.39,301.53z M284.72,295.05c-6.89,0.64-13.78,0.93-20.78,1.13c0.21-3.5,3.6-6.17,1.85-9.87
		c6.79,0.51,13.17-1.44,19.64-1.23c6.27,0.2,12.75,0.51,19.13-0.93c1.85,1.95,2.59,3.92,1.13,5.97
		C300.7,297.09,301.01,293.54,284.72,295.05z M349.41,301.94c-6.35-1.77-3.59-7.25-12.14-7.71c0.82-4.01,1.03-7.82,2.98-11.31
		c10.54,2.38,11.85,15.43,27.15,9.98c3.49-1.25,7.3-1.14,10.9-1.54c6.32-0.71,6.33-3.79,10.8-0.62c2.54,1.8,1.43,6.81-2.98,7.2
		C368.79,299.45,362.68,305.64,349.41,301.94z M368.33,346.06c-8.74,0.47-12.65-3.29-14.6-12.45c0.82-0.41,1.13,0.21,1.34,0.72
		c3.78,9.37,4.94,10.25,14.6,9.87c1.47-0.06,18.62,0.45,21.6-6.17c-1.44-0.72-1.85,0.82-3.09,0.72c1.83-4.38,0.3-3.62,12.34-5.04
		C391.5,348.77,408.46,343.91,368.33,346.06z M402.69,336.7c-1.32-1.54,1.37-5.52-3.5-5.45c-3.7,0.05-7.41,0.41-11.42,0.62
		c1.3,9.51-20.79-4.74-25.4-27.46c8.85-0.93,17.28-4.53,26.43-2.67c3.04-2.88,7.32-9.66,3.39-13.06c-6.96-6.04-4.16,0.15-31.68,0.82
		c-2.08-4.57,0.63-7,3.39-16.56c2.44-8.44,6.56-12.14,14.4-20.67c2.42-2.64,11.98-5.14,13.99-5.45c7.9-1.21,6.43,1.52,8.33,2.47
		c3.81,0.72,6.79,3.5,10.39,4.63c-1.54-2.88-4.83-3.6-7.82-5.86c11.06,2.33,20.73,13.02,24.27,20.36
		c5.93,12.32,3.68,14.45,5.25,21.29C435.67,302.56,424.85,334.56,402.69,336.7z M436.83,293.09c-0.41-2.98-0.72-5.35-1.03-8.13
		c5.76,0.72,11.93-1.65,16.66,4.22C447.94,294.22,442.18,291.65,436.83,293.09z"/>
	<path d="M83.24,496.47c0.02-0.01,0.03-0.01,0.04-0.02c-0.02-0.01-0.04-0.01-0.06-0.01C83.23,496.44,83.24,496.45,83.24,496.47z"/>
	<path d="M135.21,347.35c0.01,0.01,0.02,0.03,0.04,0.05c0.01,0,0.02,0,0.03-0.01C135.25,347.38,135.23,347.37,135.21,347.35z"/>
	<path d="M257.25,559.58c1.89-18.2-2.69-16.57-16.87-18.82c5.97-2.88,12.03,1.13,17.9-1.23c-2.47-2.16-5.25-1.23-7.82-1.85
		c-0.88-4.85-20.77-42.78-25.1-54.41c-22.69-60.96-14.7-22.01-52.04-122.6c-0.62,0.93-1.46,1.95-1.44,3.6
		c0.75,79.81-1.02,67.8,1.75,98.12c1.74,19.08-5.32-5.34,2.57,64.08c0.91,8.02,3.34,15.47,9.87,20.88c1.35,1.12,1.85,2.98,3.81,3.39
		c3.91,0.82,7.82,1.54,11.93,1.34c-3.29-1.34-6.69-2.26-9.46-4.53c1.14-1.37,11.94,5.46,38.26-2.57c7-2.14,13.68-0.93,20.67-0.41
		c0.1,1.23,1.43,1.65,1.75,2.78c1.52,5.46,0.93,11.11,2.16,16.87c-22.33,5.54-62.68,3.67-71.17,3.6c9.87,4.94,65.62,2.78,73.64-2.57
		C256.64,563.49,257.05,561.54,257.25,559.58z M234.01,541.38c-3.57,0-3.62,0.45-3.19-0.41
		C234.5,540.97,234.01,540.83,234.01,541.38z M226.19,540.04c-0.82,1.65,1.13,1.95,0.51,3.5c-6.79,0.1-13.37,2.45-20.57,2.78
		c-10.26,0.46-13.64-3.06-21.19-4.22c-9.42-15.44-4.19-21.78-6.89-40.73c-4.36-30.62,0.64-44.96-1.23-66.24
		c-2.3-26.12-1.26-22.47-0.93-32.6c0.29-8.84-0.51-10.81-0.51-28.08c31.49,76.57,18.83,43.68,32.6,73.44
		c12.85,27.75,12.36,34.8,22.32,52.76c1.06,1.91,14.32,27.94,13.58,29.62c-6.58-2.16-13.68-2.16-20.88-3.91
		c8.73-15.11-0.87-20.42,2.06-32.5c0.64-2.63-1.56-3.79-2.57,0.31c-3.15,12.73,4.72,13.83-0.93,28.39c-0.8,2.07-2.57,4.11-1.13,7.1
		c8.23,1.44,16.56,3.5,25.4,3.5C253.32,540.63,236.12,536.07,226.19,540.04z"/>
	<path d="M897.3,341.95c-3.91,0.05-7.92,0.21-11.83,0.82c0.1,1.23-0.71,2.26-0.62,2.98c0.79,6.4-5.5,6.68-13.37,6.89
		c-8.86,0.23-8.5-4.63-10.59-4.63c0.93,1.75,1.85,3.39,2.78,5.14c-5.86-0.72-8.64-3.6-9.36-9.77c10.73-2.04,5.1,3.28,10.7,4.53
		c-0.72-1.75-2.06-2.88-2.16-4.53c3.16-3.16,4.82-2.57-14.4-2.57c2.95,10.48,3.82,21.22,28.8,18.2c14.22-1.72,14.05,0.52,17.9-3.09
		C899.03,352.29,902.66,341.88,897.3,341.95z M894.32,354.91c-7.08,1.89-14.2,0.72-27.87,1.44c-9.16,0.48-12.96-2.98-15.12-12.55
		c3.97,0-0.75,11.04,15.32,10.7c4.36-0.09,17.73,0.62,22.32-5.76c-0.82-1.44-1.65,0.21-2.37-0.31c-0.21-1.23,0.41-2.06,1.44-2.98
		C903.41,344,898.46,340.42,894.32,354.91z"/>
	<path d="M246.87,237.04c10.37-9.35,22.81,12.88,38.16,28.8c12.48,12.94,11.58,14.44,15.12,14.6c0.82-1.03,0.72-1.75,0.21-2.16
		c-8.94-7-31.42-41.08-47.93-45.56C249.53,231.93,246.87,233.65,246.87,237.04z"/>
	<path d="M232.78,192.2c11.49,10.05,11.76,37.31,18.2,39.7c-0.93-3.09-2.88-5.14-2.98-7.92c-0.62-15.97-8.09-20.72-5.97-26.02
		C228.02,183.56,227.22,187.92,232.78,192.2z"/>
	<path d="M176.31,72.99c1-5,3.55-1.25,4.83-3.5c-0.46-6.37-8.57-4.05-10.59-4.63c-4.41-1.26-6.99,1.34-9.98,3.91
		c5.14-3.09,9.77-1.23,14.4,0.41c-4.32,0.31-8.33,0.82-12.03,3.19C167.36,73.3,171.68,73.71,176.31,72.99z"/>
	<path d="M675.55,80.6c0.82-0.31,2.26,0.72,3.19-0.51c-1.6-7.21-7.17-3.95-10.49-4.83c-4.41-1.18-6.89,1.44-10.49,3.6
		c3.19,1.03,4.53-1.75,6.99-1.75c1.85,2.26,5.66,0.21,8.02,2.67c-4.42,0.21-8.54,0.51-12.14,3.09
		C677.94,84.44,672.34,83.45,675.55,80.6z"/>
	<path d="M876.32,404.89c1.13,27.67-0.41,55.33-1.23,82.9C876.73,460.12,879.4,432.56,876.32,404.89z"/>
	<path d="M378.72,394.51c1.23,27.67-0.41,55.13-1.23,82.8C379.24,449.84,381.91,422.27,378.72,394.51z"/>
	<path d="M160.78,116.19c-3.91-4.94-9.36-7.51-14.19-10.8c-1.44-5.04-3.91-9.77-2.78-15.94c-6.78,5.16,0.63,12.65-0.1,18.72
		C147.83,105.69,156.84,118.26,160.78,116.19z"/>
	<path d="M325.65,281.78c-0.62,5.14-1.85,10.18,1.03,15.02c1.03-5.66,4.22-10.59,4.22-16.56
		C329.25,281.06,327.5,281.16,325.65,281.78z"/>
	<path d="M827.26,548.27c2.5-1.25,32.35-11.3,33.12-18.62c-20.33,11.62-6.68,7.26-29.72,15.74
		C823.57,547.99,826.86,548.67,827.26,548.27z"/>
	<path d="M328.53,537.88c2.28,0,32.78-11.04,34.35-18.51c-20.33,11.62-6.45,7.91-29.72,15.74
		C331.53,535.65,329.66,536.03,328.53,537.88z"/>
	<path d="M741.27,117.63c3.19,0.51,4.42,3.6,6.89,4.73c2.96-3.15-3.44-5.07-5.66-7.92c-2.78,0.93-5.22,2.61-7.82,4.01
		c-2.55,1.38-2.98,4.11-1.13,6.99C737.02,123.63,732.62,119.79,741.27,117.63z"/>
	<path d="M739.01,151.67c0.36,15.6-12.96,74.16,2.26,4.42C741.59,154.66,741.48,153.11,739.01,151.67z"/>
	<path d="M655.8,403.86c-1.71,36.53-2,36.46-0.31,39.39C655.08,430.09,657.14,417.13,655.8,403.86z"/>
	<path d="M158.41,394.2c-0.31,12.86-2.47,25.71-0.72,38.67C157.49,420.01,159.55,407.05,158.41,394.2z"/>
	<path d="M653.44,511.45c0.31,0,0.51,0,0.82,0C654.68,494.69,650.97,438.65,653.44,511.45z"/>
	<path d="M155.84,501.06c0.31,0,0.51,0,0.82,0C157.09,484.3,153.38,428.26,155.84,501.06z"/>
	<path d="M319.99,282.81c-3.89,10.47,1.51,11.27-0.93,18.1c7.17-2.92,0.46-9.45,2.37-17.18
		C321.54,283.32,321.13,282.91,319.99,282.81z"/>
	<path d="M609.62,231.9c-2.16,4.81,1.36,8.62,5.55,13.06c1.95,1.85,3.19,1.85,5.76,0.31c-2.26-1.95-4.63-3.59-7.2-5.04
		C610.85,238.59,612.3,234.47,609.62,231.9z"/>
	<path d="M178.57,109.71c6.83,3.84,16.73-2.42,4.53-3.7C180.52,105.73,179.19,107.34,178.57,109.71z"/>
	<path d="M173.74,103.02c0.89,2.84,16.34,0.3,18.1-1.23C189.06,100.56,175.49,101.48,173.74,103.02z"/>
	<path d="M655.08,317.37c3.29,9.05,7.61,17.59,13.58,25.2C665.06,333.62,659.3,325.9,655.08,317.37z"/>
	<path d="M725.64,560.82c20.51-1.17,21.76-0.22,21.91-3.7C727.54,560.93,729.65,556.36,725.64,560.82z"/>
	<path d="M250.16,546.73c-20.67,3.88-18.43-0.76-21.7,3.6C237.86,549.03,249.57,551.63,250.16,546.73z"/>
	<path d="M183.51,147.25c-2.88-0.51-22.32,5.86-23.96,7.71C167.98,153.42,175.8,150.64,183.51,147.25z"/>
	<path d="M637.29,244.24c-4.73,1.03-7.51,4.94-11.11,7.51C628.89,256.53,634.84,249.15,637.29,244.24z"/>
	<path d="M149.36,116.19c3.19,8.95,5.14,18.31,8.85,27.26C157.18,135.11,151.52,117.94,149.36,116.19z"/>
	<path d="M579.08,191.06c-1.23-0.93-2.47-1.75-3.7,0c1.85,3.29,4.34,4.91,7.41,4.22c4.83-1.09,4.52,2.1,8.13,0.41
		C584.65,190.27,586.88,196.96,579.08,191.06z"/>
	<path d="M680.18,576.35c-5.45-5.35-11.83-9.67-17.59-14.81C667.84,567.19,673.39,572.54,680.18,576.35z"/>
	<path d="M182.58,565.96c-5.55-5.35-11.83-9.77-17.59-14.81C170.24,556.8,175.8,562.15,182.58,565.96z"/>
	<path d="M244.4,267.28c0.45-2.68-4.83-4.7-4.53-7.2c0.56-4.52-2.88-5.35-5.97-6.48c1.03,1.85,3.6,1.95,4.63,3.91
		C238.02,262.14,240.59,266.45,244.4,267.28z"/>
	<path d="M756.7,545.18c-2.47-6.99-5.35-13.78-7.92-20.78C749.91,531.91,752.59,538.81,756.7,545.18z"/>
	<path d="M629.99,233.23c2.06-5.14,1.65-10.08-0.72-14.91C630.71,223.26,628.96,228.3,629.99,233.23z"/>
	<path d="M259.72,534.9c-3.19-7.1-5.97-13.99-8.54-21.5C251.6,520.19,256.53,532.94,259.72,534.9z"/>
	<path d="M232.16,466.3c2.78,7.71,7.1,14.4,11.42,21.19C244.68,486.93,245.49,489.2,232.16,466.3z"/>
	<path d="M729.65,476.68c2.88,7.61,7.2,14.4,11.52,21.19C742.13,497.39,743.28,499.52,729.65,476.68z"/>
	<path d="M187.11,93.05c1.19,0.68,3.58-0.39,3.29-1.85c-2.88-2.06-6.69-1.23-8.43,1.85C183.72,95.62,185.36,91.81,187.11,93.05z"/>
	<path d="M679.56,103.43c1.85,0.93,6.99,0,8.64-1.75C685.01,99.53,681.21,100.35,679.56,103.43z"/>
	<path d="M221.15,228.61c3.6,4.73,8.95,6.17,13.88,8.54C233.7,235.29,222.7,228.71,221.15,228.61z"/>
	<path d="M870.97,508.36c-2.67,6.07-4.63,11.73-7.41,17.07C867.16,521.84,871.28,512.58,870.97,508.36z"/>
	<path d="M373.37,498.08c-2.57,6.07-4.63,11.62-7.3,16.97C369.77,511.04,373.79,501.98,373.37,498.08z"/>
	<path d="M134.24,133.26c0.41-3.81-0.21-7.51,0.21-11.93C130.85,124.93,132.39,127.91,134.24,133.26z"/>
	<path d="M744.36,212.87c0-5.76,2.26-11.21,1.85-16.97C744.57,201.45,743.85,207.11,744.36,212.87z"/>
	<path d="M656.01,198.26c-2.67,4.94-1.95,10.29-2.16,15.53C655.91,208.76,654.47,203.3,656.01,198.26z"/>
	<path d="M166.13,548.68c-2.16-5.35-4.73-10.49-6.89-15.74C160.27,538.81,162.53,543.95,166.13,548.68z"/>
	<path d="M663.72,558.96c-2.16-5.25-4.63-10.39-6.89-15.63C657.86,549.09,660.23,554.23,663.72,558.96z"/>
	<path d="M157.8,162.27c3.7-1.85,6.38-5.04,9.67-7.61C163.15,155.79,160.37,158.87,157.8,162.27z"/>
	<path d="M758.66,141.7c3.6-2.57,3.5-6.27,5.35-8.85C760.2,134.29,759.48,137.48,758.66,141.7z"/>
	<path d="M605.1,196.72c2.88-2.67,2.16-6.17,2.06-9.57C605.72,190.14,605,193.33,605.1,196.72z"/>
	<path d="M293.46,280.85c-2.88-1.23-5.45-2.26-8.64-3.6C287.7,281.27,290.89,282.6,293.46,280.85z"/>
	<path d="M218.17,438.63c1.13,4.94,3.81,9.15,6.38,13.37C222.39,447.58,221.05,442.74,218.17,438.63z"/>
	<path d="M687.48,121.64c-2.88-0.41-3.7,1.03-3.29,5.55C685.43,125.34,687.69,124.21,687.48,121.64z"/>
	<path d="M169.11,155.99c3.09-0.41,6.17-0.72,9.67-3.09C174.56,152.8,171.58,153.52,169.11,155.99z"/>
	<path d="M624.02,244.75c1.73,2.36,6.94-0.22,5.55-4.53C627.93,242.49,625.77,243.21,624.02,244.75z"/>
	<path d="M156.97,444.39c-1.13,2.98-0.93,5.86-0.51,8.74C157.59,450.25,157.28,447.27,156.97,444.39z"/>
	<path d="M724.3,258.43c0.51-3.09-0.21-5.66-2.47-7.71C722.56,253.29,721.73,256.38,724.3,258.43z"/>
	<path d="M223.11,243.21c1.03,3.29,3.19,5.55,6.48,7.1C222.14,240.9,224.64,242.7,223.11,243.21z"/>
	<path d="M654.36,454.47c-0.93,3.29-0.72,6.17-0.62,9.77C655.08,460.74,655.19,458.38,654.36,454.47z"/>
	<path d="M708.67,179.24c2.88,0.51,5.45,1.03,7.92,1.54C714.43,178.31,711.96,177.9,708.67,179.24z"/>
	<path d="M667.12,169.88c-1.34,2.47-2.57,4.94-3.91,7.41C666.3,175.74,667.02,172.96,667.12,169.88z"/>
	<path d="M599.13,197.34c-3.81-2.98-3.81-2.98-5.97-1.65C594.71,197.24,596.46,198.06,599.13,197.34z"/>
	<path d="M769.15,126.37c-1.23,1.95-2.37,3.81-3.6,5.86C769.56,130.69,770.48,129.25,769.15,126.37z"/>
	<path d="M641.2,238.58c-2.47,1.65-3.81,3.29-3.91,5.76C640.38,243.93,640.69,241.56,641.2,238.58z"/>
	<path d="M220.33,183.86c-1.85-1.13-3.81-2.16-5.76-3.19C215.81,183.04,217.45,184.69,220.33,183.86z"/>
	<path d="M707.03,562.87c1.95,0.93,3.91,1.03,5.86,0.82C712.89,562.6,714.02,562.87,707.03,562.87z"/>
	<path d="M741.17,225.01c-1.23,2.16-2.78,4.22-4.22,6.48C739.63,230.15,740.86,227.89,741.17,225.01z"/>
	<path d="M730.78,236.94c-2.26,1.34-4.32,2.67-6.48,3.91C728.01,240.43,729.34,239.51,730.78,236.94z"/>
	<path d="M672.98,158.56c-2.88,1.23-2.88,3.5-3.5,5.45C671.34,162.88,671.95,160.93,672.98,158.56z"/>
	<path d="M632.87,208.45c-1.65,1.75-1.95,3.81-2.47,5.86C632.87,211.84,633.07,211.43,632.87,208.45z"/>
	<path d="M670.51,144.78c-1.1-0.55,0.12-1.53-4.32,4.01C669.38,148.79,669.59,146.53,670.51,144.78z"/>
	<path d="M700.85,186.23c0.74,1.48,4.28-2.56,5.25-3.39C703.43,182.53,702.09,184.28,700.85,186.23z"/>
	<path d="M248,504.35c-0.51-2.06-1.34-4.01-2.78-5.66C245.94,500.65,246.56,502.7,248,504.35z"/>
	<path d="M742.82,509.08c0.62,1.95,1.34,4.01,2.78,5.66C745.08,512.68,744.26,510.73,742.82,509.08z"/>
	<path d="M211.38,553.21c1.34,0.31,2.67,0.41,4.83-0.21C213.13,552.28,213.13,552.28,211.38,553.21z"/>
	<path d="M657.14,235.91c-1.44,1.85-2.37,3.81-1.95,6.38C658.43,235.43,657.94,236.17,657.14,235.91z"/>
	<path d="M283.89,276.84c-1.44-2.37-2.78-3.39-4.73-3.7C280.29,274.37,281.22,276.02,283.89,276.84z"/>
	<path d="M652,220.38c-1.85,1.75-2.67,3.39-2.37,5.66C650.77,224.39,652.1,222.85,652,220.38z"/>
	<path d="M642.02,215.03c-1.44,2.78-1.44,2.78-0.62,5.66C641.71,218.63,642.95,217.09,642.02,215.03z"/>
	<path d="M645.31,233.44c-1.85,0.82-2.78,2.26-3.09,4.63C644.49,237.04,644.8,235.19,645.31,233.44z"/>
	<path d="M752.49,152.29c-1.23,1.85-1.23,1.85-0.21,4.42C753.16,151.41,752.97,153.25,752.49,152.29z"/>
	<path d="M158.11,145.3c1.13,1.23,1.75,2.67,2.78,3.91C161.09,145.5,160.88,145.09,158.11,145.3z"/>
	<path d="M637.5,226.96c-0.82,1.54-1.75,2.78-1.54,4.63C637.81,229.63,637.81,229.63,637.5,226.96z"/>
	<path d="M715.77,449.02c0.41,2.47,1.34,4.73,2.98,6.69C718.34,453.13,717.41,450.97,715.77,449.02z"/>
	<path d="M718.85,455.6c0,2.26,1.34,3.81,2.67,5.45C720.91,459.1,720.5,457.04,718.85,455.6z"/>
	<path d="M711.55,226.14c-0.51-1.34-1.03-2.47-2.67-2.67C709.49,225.83,709.49,225.83,711.55,226.14z"/>
	<path d="M175.18,133.78c-1.13,1.54-1.44,2.67-1.13,4.42C174.77,136.76,175.9,135.83,175.18,133.78z"/>
	<path d="M135.07,134.91c-1.03,1.34-0.93,2.26-0.1,3.7C135.89,137.27,136.3,136.35,135.07,134.91z"/>
	<path d="M676.68,129.46c0.21-1.54,0.21-2.67-0.21-4.32C674.94,126.99,675.04,128.12,676.68,129.46z"/>
	<path d="M162.73,133.57c2.06,0.51,3.29,0.62,4.32-0.62C165.72,132.64,164.48,132.64,162.73,133.57z"/>
	<path d="M735.82,264.81c0.21-1.44-0.1-2.26-1.75-2.16C733.77,264.19,734.49,264.6,735.82,264.81z"/>
	<path d="M706.92,223.05c0.21-1.44-0.41-1.95-1.65-2.26C705.28,222.33,705.28,222.33,706.92,223.05z"/>
	<path d="M210.87,178.31c0.31,1.13,0.82,1.65,2.26,1.23C212.82,178,212.21,177.59,210.87,178.31z"/>
	<path d="M738.29,147.25c0.21,1.23,0.21,2.16,1.44,3.19C739.94,148.69,739.53,147.97,738.29,147.25z"/>
	<path d="M646.96,123.39c0-1.75-1.23-1.75-2.47-2.06C644.9,122.98,645.62,123.59,646.96,123.39z"/>
	<path d="M149.36,112.9c-0.31-1.75-1.34-1.54-2.78-2.26C147.31,112.38,147.92,113,149.36,112.9z"/>
	<path d="M720.19,247.74c0.41-1.03,0.1-1.65-1.34-2.26C719.37,246.6,719.26,247.43,720.19,247.74z"/>
	<path d="M673.08,141.08c-0.93,0.31-1.54,0.93-1.75,1.95C673.5,142.11,673.8,141.8,673.08,141.08z"/>
	<path d="M693.35,123.18c-1.44,0.1-1.54,1.03-1.44,2.47C693.04,124.83,693.65,124.31,693.35,123.18z"/>
	<path d="M677.61,121.85c-1.44,0.1-1.34,1.03-1.03,2.37C677.71,123.49,678.43,122.98,677.61,121.85z"/>
	<path d="M518.4,118.55c-0.72-0.72-1.34-1.03-2.06-0.21C516.85,119.17,517.57,118.86,518.4,118.55z"/>
	<path d="M714.53,446.03c0.31,1.13,0.41,2.26,1.34,2.88C715.87,447.89,715.87,446.75,714.53,446.03z"/>
	<path d="M216.94,435.75c0.31,1.03,0.41,2.16,1.34,2.78C218.27,437.5,218.27,436.37,216.94,435.75z"/>
	<path d="M601.6,194.77c0,1.65,0.72,1.54,1.85,1.13C603.04,194.97,602.53,194.66,601.6,194.77z"/>
	<path d="M685.94,137.58c0.31-0.51,0.93-0.82,0.62-2.37C685.94,136.24,685.22,136.66,685.94,137.58z"/>
	<path d="M647.37,253.6c0.72-0.21,1.03-0.62,0.93-1.44C647.89,252.47,646.86,252.57,647.37,253.6z"/>
	<path d="M317.22,539.73c0.1,0.1,0.1,0.21,0.21,0.21C318.55,539.94,318.07,539.45,317.22,539.73z"/>
	<path d="M815.22,550.02c-0.1,0-0.31,0.1-0.51,0.21C815.89,550.52,815.82,550.02,815.22,550.02z"/>
	<path d="M757.22,126.47c-1.13,0.1-1.34,0.72-1.13,2.06C757.01,128.02,757.63,127.61,757.22,126.47z"/>
	<path d="M664.96,132.75c-0.62-0.31-0.82,0.21-0.93,0.72C664.75,133.88,665.06,133.57,664.96,132.75z"/>
	<path d="M658.17,301.01c2.12,0.37,49.45-4.92,57.08-7.51C696.23,295.66,677.1,297.52,658.17,301.01z"/>
	<path d="M630.19,300.09c-4.22-0.05-8.43-1.03-12.55,0.51c13.42-1.07,5.33,2.25,5.86,6.48c1.85-1.65,2.26-4.01,4.11-5.86
		c4.63,0.1,9.46,0.21,14.3-0.41c0.16,1.3-4.25,8.34,2.16,0c4.11-0.41,8.43,0.41,12.34-1.54
		C649.81,299.11,634.62,300.14,630.19,300.09z"/>
	<path d="M680.8,300.6c4.63,3.7,14.3,4.22,20.16,0.82C680.67,299.13,681.55,298.52,680.8,300.6z"/>
	<path d="M561.9,223.87c4.73,10.08,10.8,19.23,18.62,27.15C574.04,242.28,567.87,233.13,561.9,223.87z"/>
	<path d="M601.71,286.1c-4.32-13.09-17.03-27.87-17.9-27.87c0.14,0.2,1.26,1.83,1.44,1.65c1.44,3.91,4.63,6.69,6.58,10.08
		c0.21,1.03-1.13,1.23-0.93,2.26c0.82,0.21,1.34-0.82,2.37-0.41c2.21,3.13,6.36,9.16,4.42,12.14
		C600.11,281.52,599.11,285.18,601.71,286.1z"/>
	<path d="M706.2,273.24c4.63-0.72,7.92-3.81,11.42-6.58C713.61,268.51,709.6,270.36,706.2,273.24z"/>
	<path d="M551.51,211.43c3.6,2.37,5.55,5.45,7.41,8.74C557.68,214.62,555.22,211.43,551.51,211.43z"/>
	<path d="M747.55,289.9c1.85,3.6-0.31,6.69-0.41,9.98C749.81,294.94,750.02,291.55,747.55,289.9z"/>
	<path d="M763.49,287.23c0-0.31,0.1-0.62,0.1-0.93c-2.37,0.31-4.94,0-7.71,1.54C763.87,287.85,760.48,287.98,763.49,287.23z"/>
	<path d="M619.6,267.59c-0.41,2.47,0.1,4.83,1.03,7.41C620.84,272.21,620.94,269.85,619.6,267.59z"/>
	<path d="M732.22,297.62c2.44-6.61,2.69-5.79,1.54-6.17C732.33,293.2,731.92,295.25,732.22,297.62z"/>
	<path d="M613.33,300.91c-0.72-1.34-1.54-2.57-3.29-2.88C610.96,299.16,611.68,300.5,613.33,300.91z"/>
	<path d="M701.27,274.99c1.75-0.31,3.7-0.31,4.94-1.85C704.35,273.24,702.81,274.17,701.27,274.99z"/>
	<path d="M603.14,300.5c0.72-0.51,1.75-0.82,1.85-2.16C603.56,298.44,603.25,299.37,603.14,300.5z"/>
	<path d="M620.94,312.74c0.41-0.93,0.93-1.95,1.34-2.88C621.14,310.37,620.84,311.5,620.94,312.74z"/>
	<path d="M559.23,226.75c-0.51,0.51-1.54,0.51-1.44,1.65C558.61,228.09,559.12,227.68,559.23,226.75z"/>
	<path d="M580.72,258.54c-1.13,0.72-1.85,1.44-2.06,3.19C579.8,260.8,580.72,260.28,580.72,258.54z"/>
	<path d="M590.29,276.02c0.31-0.51,1.03-0.51,0.72-1.85C590.49,274.89,589.77,274.99,590.29,276.02z"/>
	<path d="M573.32,249.79c-0.93,0.51-1.23,1.13-1.34,1.85C572.8,251.44,573.22,250.82,573.32,249.79z"/>
	<path d="M644.29,306.88c0.1,0.1,0.93-0.51,0.93-1.54C644.29,305.74,643.67,306.16,644.29,306.88z"/>
	<path d="M728.93,292.37c0.11,0,0.23,0,0.31,0C729.55,292.17,729.14,291.65,728.93,292.37z"/>
	<path d="M576.2,264.19c0.45,0,0.36-0.3,0.51-0.62C576.51,263.68,575.99,263.68,576.2,264.19z"/>
	<path d="M571.06,253.19c0.62-0.41,0.93-0.93,0.82-1.65C571.47,252.06,570.85,252.26,571.06,253.19z"/>
	<path d="M594.4,365.6c2.06,0.48,4.11,1.75,4.94,4.22c-5.62,6.49,0.82,7,1.54,9.57c0.44,1.54,1.65,2.57,3.91,1.75
		c-1.54-1.34-1.85-2.88-1.75-4.22c-1.03-1.03-2.37-1.03-2.98-2.47c-0.1-2.06,0.41-4.01,2.26-5.55c0.21-1.44,0.1-2.88-0.82-3.91
		c-2.98,0.41-5.14-1.75-7.61-1.85c-1.65-3.5,0-7.3-1.95-10.8C589.32,356.26,589.58,364.48,594.4,365.6z"/>
	<path d="M582.37,420.32c2.73-3.9,0.05-5.89,1.95-10.9c0.27-0.72,3.3-10.35,0.62-12.14c-1.85,3.5-1.54,7.41-2.47,11.01
		C581.34,411.78,580.11,415.9,582.37,420.32z"/>
	<path d="M610.04,399.54c0.1-0.41,0.1-0.93-0.82-1.44C606.53,406.31,606.29,430.74,610.04,399.54z"/>
	<path d="M581.34,421.45c-2.37,3.7-2.16,7.61,0.82,11.52C583.09,428.65,581.44,425.05,581.34,421.45z"/>
	<path d="M606.33,439.97c-0.32,7.04,0.1,6.89,0.93,6.48C608.01,438.35,607.03,424.7,606.33,439.97z"/>
	<path d="M586.38,387.92c-2.57,2.88-1.03,5.35-0.62,7.71C587.1,393.27,586.69,390.91,586.38,387.92z"/>
	<path d="M602.44,368.94c0-0.1-0.01-0.04-0.11,0.06C602.36,368.98,602.39,368.96,602.44,368.94z"/>
	<path d="M605.2,375.68c-0.03,0.03-0.06,0.06-0.1,0.1c1.34,0.72,0.51,2.26,1.23,3.29c0.93-0.72,1.34-1.44,1.44-2.67
		c-4.15-2.37-1.76,0.81-3.29-8.13c-0.97-0.29-1.48,0.33-2.05,0.66C602.94,371.29,602.74,374.05,605.2,375.68z"/>
	<path d="M566.02,379.08c-3.21-6.1-3-6.16-3.91-5.25C562.31,376.2,563.65,377.95,566.02,379.08z"/>
	<path d="M566.12,356.66c1.54,1.13,3.19,1.23,5.14,0.93C569.72,356.35,568.07,355.94,566.12,356.66z"/>
	<path d="M588.85,374.04c-0.93,1.44-0.72,2.78-0.31,4.32C589.77,376.2,589.77,376.2,588.85,374.04z"/>
	<path d="M584.94,482.13c-0.72,1.34-0.51,2.37,0.31,3.91C586.28,484.29,585.97,483.27,584.94,482.13z"/>
	<path d="M586.69,380.62c-0.93,1.95-1.23,3.09,0,4.73C587.1,383.71,587.61,382.57,586.69,380.62z"/>
	<path d="M584.84,488c-0.51,1.23-0.62,2.37,0.72,4.01C586.28,490.05,586.28,488.92,584.84,488z"/>
	<path d="M611.58,390.7c0.79-1.99-1.76-1.53-0.93,1.23C611.48,391.73,611.48,391.11,611.58,390.7z"/>
	<path d="M581.03,374.55c0.82-0.21,0.72-0.82,0.21-1.54C580.93,373.42,579.9,373.83,581.03,374.55z"/>
	<path d="M537.11,346.37c12.65-8.64,24.48-17.59,38.98-22.63C569.92,322.3,540.71,339.17,537.11,346.37z"/>
	<path d="M521.79,342.26c-5.57,5.74-2.16,16.66,2.57,17.69C519.32,351.1,520.35,349.56,521.79,342.26z"/>
	<path d="M549.46,360.67c1.64-5.3,0.47-11.15,2.44-16.44C549.72,349.47,548.59,354.89,549.46,360.67z"/>
	<path d="M534.54,327.03c1.95-3.6,3.19-7.51,5.25-11.11C536.7,319.01,534.54,322.61,534.54,327.03z"/>
	<path d="M542.15,312.94c-0.82,0-1.03,0.62-1.44,1.85C541.74,314.18,542.46,313.87,542.15,312.94z"/>
	<path d="M735.72,352.03c2.47-1.65,0.93-3.7,1.65-5.14c1.13-0.31,2.37,0.1,2.98-1.54c-0.19-4.4-10.65-5.39-8.64-12.03
		c-6.46,1.54-0.51-3.54-3.91-5.25c-1.49,5.95-1.37,9.97-10.39,10.39c-3.39,0.16-6.89-0.51-10.18,1.03c0.51,0.82,1.13,0.82,1.44,0.72
		c3.49-2.05,14.06,3.06,18.41-2.78C729.96,342.46,736.23,344.93,735.72,352.03z"/>
	<path d="M735.21,388.33c-0.21,4.11-0.21,7.92,1.65,12.03C738.81,393.89,738.29,389.57,735.21,388.33z"/>
	<path d="M740.55,359.64c-1.65,2.57-1.44,3.19,2.47,6.48C743.43,363.34,739.22,362.62,740.55,359.64z"/>
	<path d="M737.67,356.76c0.51-1.54,0.82-2.78-0.21-4.01C736.75,354.08,736.03,355.42,737.67,356.76z"/>
	<path d="M598.21,96.65c12.91,15.57,11.42,25.5,11.42,44.12c0,22.62-19.11,32.45-15.63,34.76c5.04-6.17,11.62-11.11,13.68-19.34
		c1.34,0.62-0.21,1.75,1.13,2.37c7.11-33.19,0.69-47.01-5.04-57.39c-4.63-8.38-16.66-12.91-18-12.24
		C586.81,90.76,595.44,93.31,598.21,96.65z"/>
	<path d="M575.99,88.01c-0.72-0.62-1.34-0.62-1.75,0.41C574.96,88.83,575.58,88.83,575.99,88.01z"/>
	<path d="M616.31,539.83c0.93-1.03,2.16-1.65,2.06-3.19c-1.13-1.54-2.57-0.82-3.19-0.82c-4.83,4.42-11.62,3.91-16.66,8.43
		c5.66,1.95,9.87-2.16,14.71-1.23c0.21,0.82,0,2.16,1.65,2.78c1.65-0.31,3.81-0.41,5.25-2.26
		C619.29,541.89,618.16,540.55,616.31,539.83z"/>
	<path d="M588.64,546.01c0.57,3.5,2.16,4.53,7.61,5.45c0.1-2.88,1.27-5.78-0.72-8.33C592.03,538.64,587.88,541.35,588.64,546.01z
		 M592.86,546.93c-0.62,0.41,0.41,1.34-0.72,1.85c-1.95-1.85-2.16-3.7-0.62-5.86c2.47,0.1,3.09,1.54,3.19,3.29
		C594.3,547.55,593.37,546.31,592.86,546.93z"/>
	<path d="M583.09,537.88c-5.59-0.26-3.87,10.18,1.44,10.18C589.63,548.06,588.21,538.11,583.09,537.88z M584.43,546.11
		c-3.29-2.06-3.6-3.29-1.44-6.07C586.28,541.27,586.69,542.92,584.43,546.11z"/>
	<path d="M577.02,535.51c-1.25-0.69-2.57-1.34-4.32-1.13c-0.48,14.9-0.15,7.98,2.06,7.1c1.75,0.82,1.13,3.5,3.81,3.81
		C576.4,539.89,581.94,538.25,577.02,535.51z M576.61,539.63c-2.16-0.62-2.16-0.62-1.85-2.88
		C576.92,537.67,576.92,537.67,576.61,539.63z"/>
	<path d="M559.02,264.29c1.13,1.54,2.06,3.29,4.11,3.7C562.11,266.35,560.67,265.12,559.02,264.29z"/>
	<path d="M543.8,278.08c0,0.51,0.31,0.82,0.93,0.72C544.62,278.28,544.31,278.08,543.8,278.08z"/>
	<path d="M547.4,280.44c0.31,0.82,1.03,0.93,1.75,0.82C548.63,280.85,548.22,280.24,547.4,280.44z"/>
	<path d="M99.07,154.24c2.37,6.99,4.53,13.16,5.97,19.64C106.89,169.16,103.59,157.95,99.07,154.24z"/>
	<path d="M116.25,139.95c-6.69-1.54-13.27-4.01-20.36-2.78C102.67,138.1,109.25,140.46,116.25,139.95z"/>
	<path d="M119.33,204.54c0.62,5.66,3.19,10.59,5.66,15.63c0.31-0.1,0.51-0.21,0.82-0.31C119.71,202.57,120.75,203.59,119.33,204.54z
		"/>
	<path d="M130.95,175.12c-2.16,2.78-1.85,5.66-0.72,9.46C133.63,181.09,131.16,178,130.95,175.12z"/>
	<path d="M123.34,188.9c-2.37,2.78-2.88,6.07-2.57,9.77C124.98,188.15,124.88,189.29,123.34,188.9z"/>
	<path d="M69.65,164.84c0.31-2.78,0.51-4.94,0.82-7.51C67.8,159.49,67.6,161.03,69.65,164.84z"/>
	<path d="M103.29,142.83c3.19,1.85,5.97,3.39,9.36,5.35C110.07,144.88,108.33,143.86,103.29,142.83z"/>
	<path d="M128.07,232c-0.1,2.37,0.1,4.53,2.57,5.86C130.44,235.6,129.92,233.44,128.07,232z"/>
	<path d="M94.13,147.04c0.31,3.29,2.26,4.42,4.11,5.66C97.53,150.75,96.91,148.69,94.13,147.04z"/>
	<path d="M112.65,198.47c2.26,1.03,3.09,4.01,6.07,4.22C117.27,200.53,115.32,198.88,112.65,198.47z"/>
	<path d="M88.27,179.75c1.03,1.95,1.54,4.01,3.39,5.45C91.25,183.04,90.12,181.29,88.27,179.75z"/>
	<path d="M73.66,171.52c-0.82-1.65-1.23-3.09-1.44-4.63C70.48,169.77,70.48,169.88,73.66,171.52z"/>
	<path d="M105.86,196.1c1.85,1.03,2.57,2.37,4.32,1.85C109.35,196.41,108.02,196.21,105.86,196.1z"/>
	<path d="M105.24,185.41c-0.72,1.34-0.72,2.26,0.41,3.29C106.27,187.46,106.58,186.64,105.24,185.41z"/>
	<path d="M127.15,225.62c-0.31,0.82-0.51,1.75,0.21,2.57C128.18,225.93,128.18,225.52,127.15,225.62z"/>
	<path d="M184.13,217.6c0-1.73-1.82-4.15-2.37-3.6C182.17,215.54,182.79,216.78,184.13,217.6z"/>
	<path d="M105.14,176.97c-1.13,1.13-0.41,1.95,0.21,2.98C105.75,178.93,106.37,178.11,105.14,176.97z"/>
	<path d="M195.13,232.82c-0.82-1.34-1.13-2.37-2.16-2.57C193.18,231.28,193.8,232,195.13,232.82z"/>
	<path d="M190.81,227.27c0.31,1.23,0.93,2.37,2.26,2.88c-0.21-1.34-1.03-2.26-2.16-2.98c-0.1-1.03-0.62-1.75-1.54-2.16
		C189.37,226.03,189.89,226.75,190.81,227.27z"/>
	<path d="M102.46,194.97c0.21,0.41,0.31,0.72,0.82,0.62C103.49,194.87,103.39,194.56,102.46,194.97z"/>
	<path d="M185.49,219.8c1.44,3.56,3.42,5.2,3.78,5.2c-0.72-2.06-1.85-3.81-3.6-5.25c-0.1-1.03-0.41-1.85-1.54-2.16
		C184.13,218.6,184.62,219.3,185.49,219.8z"/>
	<path d="M181.97,213.79c-0.1-1.03-0.51-1.75-1.44-2.26c-0.62-2.16-2.06-3.81-3.6-5.45c0.72,2.16,1.75,4.11,3.39,5.66
		C180.36,212.1,181.24,214.52,181.97,213.79z"/>
	<path d="M105.55,366.53c-1.03-0.93-2.37-1.03-2.98-2.47c-0.1-2.06,0.41-4.01,2.26-5.55c0.21-1.44,0-2.88-1.23-4.22
		c-2.78,0.93-4.83-1.65-7.1-1.65c-2.26-3.39,0.21-7.41-2.67-11.01c-1.54,3.5-1.19,6.49-0.62,9.46c1.17,6.1,6.42,2.15,8.64,8.33
		c-4.94,4.01-0.83,6.59,1.44,9.57c1.02,1.34,1.75,2.57,4.01,1.75C105.75,369.41,105.45,367.97,105.55,366.53z"/>
	<path d="M87.14,387.1c-0.31,7.51-5.14,14.4-2.88,22.83c1.85-1.85,1.74-3.6,1.65-5.25C85.55,398.39,90.96,389.22,87.14,387.1z"/>
	<path d="M109.77,404.69c1.22,0,0.29,2.52,2.78-16.66C109.65,387.06,109.65,401.6,109.77,404.69z"/>
	<path d="M84.05,422.07c1.65-3.7-0.41-7.3-0.31-11.01C81.07,414.77,82.3,418.47,84.05,422.07z"/>
	<path d="M109.25,436.26c1.03-4.42,0.82-8.85,0.51-13.37C108.94,427.31,108.53,431.74,109.25,436.26z"/>
	<path d="M88.17,385.25c1.44-2.37,1.03-4.73,0.41-7.51C86.32,380.41,87.65,382.88,88.17,385.25z"/>
	<path d="M104.83,358.61l-0.1,0.1C104.77,358.69,104.86,358.65,104.83,358.61z"/>
	<path d="M68.63,369.1c-1.23-2.37-2.26-4.32-3.7-6.89C64.72,365.91,65.44,367.04,68.63,369.1z"/>
	<path d="M68.63,346.37c1.54,1.13,3.29,1.13,5.45,1.13C71.4,345.75,71.4,345.75,68.63,346.37z"/>
	<path d="M91.25,367.97c1.03-1.54,1.23-2.78,0.1-4.94C90.64,365.19,90.33,366.43,91.25,367.97z"/>
	<path d="M87.24,471.64c-0.51,1.44-0.51,2.47,0.62,4.11C88.58,473.91,88.48,472.88,87.24,471.64z"/>
	<path d="M88.68,374.65c1.03-1.95,1.03-1.95,0.31-3.7C87.96,372.19,88.17,373.32,88.68,374.65z"/>
	<path d="M110.18,366.02c-0.1-0.06-2.27-1.19-2.31-1.05c-2.06-3.98,1.01-8.79-3.02-6.33c0.5,2.33,0.32,5.06,2.71,6.71
		c-0.02,0.02-0.02,0.03-0.04,0.04c1.34,0.72,0.51,2.26,1.23,3.29C109.66,367.97,110.07,367.25,110.18,366.02z"/>
	<path d="M87.34,477.61c-0.72,1.34-0.72,2.37,0.62,4.01C88.68,479.77,88.68,478.64,87.34,477.61z"/>
	<path d="M113.47,382.06c0.31-1.44,1.13-2.06,0.31-3.39C112.95,379.69,112.54,380.52,113.47,382.06z"/>
	<path d="M83.44,364.16c0.72-0.31,0.72-0.93,0.1-1.54C83.44,363.14,82.2,363.55,83.44,364.16z"/>
	<path d="M422.23,268.1c0.62,5.04,0.11,10.52,1.75,15.22c3.26,9.33-1.45,22.79-1.54,26.12c5.93-12.79,4.68-27.31,3.19-28.49
		C423.35,279.15,425.02,272.37,422.23,268.1z"/>
	<path d="M417.91,322.3c-0.23-0.23,2.72-3.11,4.53-8.54c-1.71,2.25-5.3,7.51-6.03,10.52C417.23,323.95,417.71,323.27,417.91,322.3z"
		/>
	<path d="M417.5,261.11c-2.37-2.37-2.31-6.55-6.48-7.2C411.96,255.28,416.28,261.11,417.5,261.11z"/>
	<path d="M414.1,327.34c0.93-0.72,1.85-1.54,2.06-2.98C413.09,327.43,413.21,326.45,414.1,327.34z"/>
	<path d="M416.37,324.46c0.04-0.25,0.1-0.18-0.1-0.1L416.37,324.46z"/>
	<path d="M39.72,335.98c12.55-8.64,24.38-17.59,38.57-22.52C72.84,311.61,42.71,328.99,39.72,335.98z"/>
	<path d="M27.48,350.07c-4.22-5.66-5.66-11.21-2.88-18.1C19.56,336.81,21.31,347.5,27.48,350.07z"/>
	<path d="M51.86,350.38c1.75-5.76,0.31-11.93,2.88-17.59C52.27,338.35,50.83,344.11,51.86,350.38z"/>
	<path d="M36.95,316.65c1.75-3.7,3.39-7.41,5.14-11.11C39.21,308.73,36.95,312.22,36.95,316.65z"/>
	<path d="M44.46,302.56c-0.62,0.21-0.93,0.72-1.13,1.34C44.35,303.89,44.97,303.69,44.46,302.56z"/>
	<path d="M229.59,326.83c2.78,5.25,9.26,7.71,8.64,14.91c2.37-1.85,1.03-3.81,1.65-5.25c10.43-2.84-8.45-6.37-5.55-13.47
		c-6.5,1.24-0.65-2.7-4.22-5.55c-1.24,16.13-14.11,7.16-20.26,12.34C214.37,327.15,225.88,333,229.59,326.83z"/>
	<path d="M237.82,377.64c-0.51,4.32-0.21,8.23,1.54,12.65C241,383.19,240.7,379.69,237.82,377.64z"/>
	<path d="M245.74,355.83c-0.21-2.88-3.91-3.81-2.57-6.69C241,351.41,241.52,352.64,245.74,355.83z"/>
	<path d="M239.56,342.46c-0.51,1.23-1.13,2.57,0.62,4.11C241.18,341.6,240.56,342.46,239.56,342.46z"/>
	<path d="M83.74,240.84c-7.41-9.05-13.37-18.2-19.13-27.56C65.85,219.45,78.91,238.27,83.74,240.84z"/>
	<path d="M95.57,261.11c8.35,11.88,2.51,13.98,5.66,11.62c1.34,0.62,1.13,2.47,2.88,2.98c-3.29-10.29-9.57-18.41-16.25-26.33
		c-0.63,1.25,4.93,7.49,6.48,10.18C94.59,260.69,91.19,262.75,95.57,261.11z"/>
	<path d="M61.53,209.68c-1.65-3.39-2.37-7.61-6.79-8.74C57.62,203.41,59.37,206.7,61.53,209.68z"/>
	<path d="M81.07,251.03c1.34-0.72,2.06-1.34,2.06-2.98C82,248.97,81.28,249.59,81.07,251.03z"/>
	<path d="M61.84,216.47c-0.72,0.41-1.23,0.82-1.85,1.23C60.81,217.5,61.73,217.39,61.84,216.47z"/>
	<path d="M92.28,265.84c0.72-0.72,1.44-0.51,1.13-1.75C92.8,264.29,92.49,264.6,92.28,265.84z"/>
	<path d="M78.5,253.8c0.21-0.1,0.51-0.31,0.72-0.41C78.81,253.29,78.4,253.39,78.5,253.8z"/>
	<path d="M87.65,249.59c0.2-0.2,0.23-1.75-1.13-1.75C86.73,248.56,87.04,249.18,87.65,249.59z"/>
	<path d="M73.36,243c0.72-0.51,1.03-1.03,1.03-1.65C73.77,241.56,73.36,242.08,73.36,243z"/>
	<path d="M74.49,241.36c0.62-0.31,1.13-0.82,1.23-2.06C74.9,240.02,74.49,240.64,74.49,241.36z"/>
	<path d="M144.43,252.47c9.9,4.57,11.37,4.55,14.3,8.02c12.15,14.38,11.3,23.06,12.34,41.45c1.28,22.59-16.41,33.47-13.88,36
		c5.04-6.48,11.42-12.03,12.96-20.98c1.34,1.23-0.51,2.37,0.51,3.29c2.85-2.85,4.23-36.24-4.42-51.43
		C157.9,254.19,145.72,250.25,144.43,252.47z"/>
	<path d="M132.91,252.26c0.72,0.41,1.44,0.41,2.26-1.03C133.94,251.23,133.22,251.13,132.91,252.26z"/>
	<path d="M139.39,251.44c0.51,0.51,0.82,0.93,1.65,0C140.52,251.03,140.11,250.92,139.39,251.44z"/>
	<path d="M118.82,529.55c0.51-1.22,5.06-4.11-1.54-4.11c-4.32,4.73-11.52,3.7-15.53,8.54c4.73,1.65,8.95-1.95,13.78-1.34
		c0.51,1.03,0.1,2.37,1.85,2.78c1.65-0.51,3.81-0.41,5.14-2.37C121.49,531.5,120.67,530.06,118.82,529.55z"/>
	<path d="M95.78,532.02c-5.19-3.87-8.08,6.09-2.78,8.64c1.33,0.64,2.98,0.93,4.83,1.44C98.3,537.9,99.34,534.67,95.78,532.02z
		 M94.44,539.73c-5.54-5.1,1.01-10.02,2.06-2.67C94.96,536.85,93.82,537.26,94.44,539.73z"/>
	<path d="M84.88,528.21c-5.51-0.5-4.27,9.92,1.23,10.18C91.12,538.63,90.11,528.69,84.88,528.21z M86.32,536.13
		c-3.39-1.03-3.81-2.67-1.65-5.97C87.96,532.02,88.27,533.25,86.32,536.13z"/>
	<path d="M74.38,524.72c-0.1,3.19-0.62,6.17-0.1,9.05c1.75,0.21,0.93-2.16,2.37-1.95c1.54,0.82,1.03,3.39,3.6,3.81
		c-0.62-1.85-1.15-3.41,0.1-5.14C82.11,528.02,78.79,524.72,74.38,524.72z M78.7,530.06c-2.37,0.1-3.19-0.72-2.47-2.98
		C77.78,527.39,79.01,527.8,78.7,530.06z"/>
	<path d="M70.27,267.69c0.21,0.31,0.51,0.41,1.54-0.31c-4.52-5.93-27.87-26.93-27.87-26.82C44.49,244.48,63.18,259.83,70.27,267.69z
		"/>
	<path d="M75.93,279.31c-0.93-1.13-1.75-2.37-3.81-2.16C73.25,278.59,74.38,279.21,75.93,279.31z"/>
	<path d="M45.69,268.51c0.1,0.82,0.72,0.93,1.34,0.93C46.82,268.82,46.31,268.61,45.69,268.51z"/>
	<path d="M865.62,134.6c-1.89-8.64-1.34-15.09-3.39-16.56c0.72,5.66-0.27,11.1,1.44,16.35c3.02,9.26-3.05,23.56-3.91,27.46
		C862.69,158.33,867.63,143.77,865.62,134.6z"/>
	<path d="M852.46,176.05c-0.51,0.1-0.82,0.41-1.03,1.03C852.15,176.97,852.66,176.87,852.46,176.05z"/>
	<path d="M855.44,172.55c-0.12-0.36,2.29-2.11,4.73-7.82c-3.15,3.31-6.16,8.52-6.07,9.26C855.13,173.99,855.23,173.17,855.44,172.55
		z"/>
<path fill="#e6e6e6" d="m206.8 163.6c0-5.1 4.1-9.2 9.3-9.2s9.2 4.2 9.2 9.2-4.1 9.2-9.3 9.2-9.2-4.1-9.2-9.2zm17.3-.1c0-4.5-3.5-8.2-8.2-8.2s-8.2 3.7-8.2 8.3c0 4.5 3.5 8.2 8.2 8.2s8.2-3.7 8.2-8.3zm-13 0c0-2.8 2.1-5.1 5.1-5.1 1.9 0 2.9.6 3.9 1.5l-1.4 1.7c-.8-.7-1.5-1.1-2.5-1.1-1.7 0-2.8 1.4-2.8 3.1s1.1 3 2.8 3c1.1 0 1.7-.5 2.5-1.1l1.4 1.4c-1.1 1.1-2.1 1.7-4 1.7-2.9 0-5-2.3-5-5.1z"/><path fill="#e6e6e6" d="m226.6 154.7h3.4l4.2 13.2 4.4-13.3h2.6l4.4 13.3 4.2-13.2h3.3l-6.2 18h-2.7l-4.4-12.8-4.4 12.8h-2.7z"/><path fill="#e6e6e6" d="m252.8 165.8c0-3.9 3.1-7 7.2-7 4.2 0 7.2 3.2 7.2 7s-3.1 7-7.3 7c-4 0-7.1-3.1-7.1-7zm11.3 0c0-2.3-1.7-4.3-4.2-4.3s-4.1 2-4.1 4.3 1.7 4.3 4.1 4.3c2.7.1 4.2-1.9 4.2-4.3z"/><path fill="#e6e6e6" d="m269.5 159.1h3.1v3c.8-2 2.4-3.4 4.8-3.3v3.2h-.2c-2.7 0-4.6 1.7-4.6 5.4v5.1h-3.1z"/><path fill="#e6e6e6" d="m279.1 153.9h3.1v11.1l5.6-6h3.8l-5.4 5.5 5.5 8h-3.5l-4.1-5.8-1.9 2v3.9h-3.1z"/><path fill="#e6e6e6" d="m291.7 165.8c0-3.9 3.1-7 7.2-7 4.2 0 7.2 3.2 7.2 7s-3.1 7-7.3 7c-4 0-7.1-3.1-7.1-7zm11.3 0c0-2.3-1.7-4.3-4.2-4.3s-4.1 2-4.1 4.3 1.7 4.3 4.1 4.3c2.6.1 4.2-1.9 4.2-4.3z"/><path fill="#e6e6e6" d="m308.2 167.6v-8.6h3.1v7.6c0 2.1 1.1 3.3 2.9 3.3s3-1.3 3-3.3v-7.6h3.1v13.4h-3.1v-2.1c-.8 1.3-2.1 2.3-4.2 2.3-3.1.2-4.8-1.8-4.8-5z"/><path fill="#e6e6e6" d="m323.9 168.8v-7.1h-1.7v-2.6h1.7v-3.7h3.1v3.7h3.6v2.6h-3.6v6.6c0 1.2.6 1.7 1.7 1.7.7 0 1.3-.2 1.9-.5v2.5c-.8.5-1.7.7-2.8.7-2.3 0-3.9-.9-3.9-3.9z"/><path fill="#e6e6e6" d="m333.2 154.7h3.2v15h9.4v2.9h-12.5v-17.9z"/><path fill="#e6e6e6" d="m356 172.5v-1.7c-.9 1.1-2.3 2-4.4 2-2.6 0-4.8-1.4-4.8-4.2 0-3 2.3-4.4 5.4-4.4 1.7 0 2.6.2 3.7.5v-.2c0-1.9-1.2-2.9-3.3-2.9-1.5 0-2.6.3-3.9.8l-.8-2.5c1.5-.7 2.9-1.1 5.1-1.1 4 0 5.9 2.1 5.9 5.7v8zm.1-5.6c-.8-.3-1.9-.5-3.1-.5-2 0-3.1.8-3.1 2.1s1.1 2 2.6 2c2 0 3.5-1.1 3.5-2.9z"/><path fill="#e6e6e6" d="m364.9 170.5v2.1h-3.1v-18.7h3.1v7.4c1-1.4 2.4-2.5 4.5-2.5 3.2 0 6.3 2.5 6.3 7s-3.1 7-6.3 7c-2.1 0-3.5-1.1-4.5-2.3zm7.7-4.7c0-2.6-1.7-4.3-3.9-4.3s-3.9 1.7-3.9 4.4c0 2.6 1.8 4.3 3.9 4.3s3.9-1.7 3.9-4.4z"/><path fill="#e6e6e6" d="m376.9 170.8 1.4-2.1c1.4 1.1 3 1.7 4.4 1.7s2.1-.5 2.1-1.5-1.3-1.4-2.8-1.8c-.1 0-.2-.1-.2-.1-2-.6-4.2-1.4-4.2-4s2.1-4.1 4.8-4.1c1.7 0 3.5.6 5 1.5l-1.2 2.2c-1.3-.8-2.6-1.3-3.8-1.3s-1.9.5-1.9 1.4 1.3 1.4 2.8 1.8c.1 0 .2.1.2.1 2 .6 4.2 1.5 4.2 4 0 2.9-2.2 4.2-5 4.2-1.9 0-4-.7-5.8-2z"/><path fill="#e6e6e6" d="m505.6 163.6c0-5.1 4.1-9.2 9.3-9.2s9.2 4.2 9.2 9.2-4.1 9.2-9.3 9.2-9.2-4.1-9.2-9.2zm17.4-.1c0-4.5-3.5-8.2-8.2-8.2s-8.2 3.7-8.2 8.3c0 4.5 3.5 8.2 8.2 8.2s8.2-3.7 8.2-8.3zm-13.1 0c0-2.8 2.1-5.1 5.1-5.1 1.9 0 2.9.6 3.9 1.5l-1.4 1.7c-.8-.7-1.5-1.1-2.5-1.1-1.7 0-2.8 1.4-2.8 3.1s1.1 3 2.8 3c1.1 0 1.7-.5 2.5-1.1l1.4 1.4c-1.1 1.1-2.1 1.7-4 1.7-2.9 0-5-2.3-5-5.1z"/><path fill="#e6e6e6" d="m525.4 154.7h3.4l4.2 13.2 4.4-13.3h2.6l4.4 13.3 4.2-13.2h3.3l-6.2 18h-2.7l-4.4-12.8-4.4 12.8h-2.7z"/><path fill="#e6e6e6" d="m551.7 165.8c0-3.9 3.1-7 7.2-7 4.2 0 7.2 3.2 7.2 7s-3.1 7-7.3 7c-4.1 0-7.1-3.1-7.1-7zm11.2 0c0-2.3-1.7-4.3-4.2-4.3s-4.1 2-4.1 4.3 1.7 4.3 4.1 4.3c2.7.1 4.2-1.9 4.2-4.3z"/><path fill="#e6e6e6" d="m568.3 159.1h3.1v3c.8-2 2.4-3.4 4.8-3.3v3.2h-.2c-2.7 0-4.6 1.7-4.6 5.4v5.1h-3.1z"/><path fill="#e6e6e6" d="m577.9 153.9h3.1v11.1l5.6-6h3.8l-5.4 5.5 5.5 8h-3.5l-4.1-5.8-1.9 2v3.9h-3.1z"/><path fill="#e6e6e6" d="m590.6 165.8c0-3.9 3.1-7 7.2-7 4.2 0 7.2 3.2 7.2 7s-3.1 7-7.3 7c-4.1 0-7.1-3.1-7.1-7zm11.2 0c0-2.3-1.7-4.3-4.2-4.3s-4.1 2-4.1 4.3 1.7 4.3 4.1 4.3c2.6.1 4.2-1.9 4.2-4.3z"/><path fill="#e6e6e6" d="m607 167.6v-8.6h3.1v7.6c0 2.1 1.1 3.3 2.9 3.3s3-1.3 3-3.3v-7.6h3.1v13.4h-3.1v-2.1c-.8 1.3-2.1 2.3-4.2 2.3-3 .2-4.8-1.8-4.8-5z"/><path fill="#e6e6e6" d="m622.7 168.8v-7.1h-1.7v-2.6h1.7v-3.7h3.1v3.7h3.6v2.6h-3.6v6.6c0 1.2.6 1.7 1.7 1.7.7 0 1.3-.2 1.9-.5v2.5c-.8.5-1.7.7-2.8.7-2.3 0-3.9-.9-3.9-3.9z"/><path fill="#e6e6e6" d="m632 154.7h3.2v15h9.4v2.9h-12.6z"/><path fill="#e6e6e6" d="m654.8 172.5v-1.7c-.9 1.1-2.3 2-4.4 2-2.6 0-4.8-1.4-4.8-4.2 0-3 2.3-4.4 5.4-4.4 1.7 0 2.6.2 3.7.5v-.2c0-1.9-1.2-2.9-3.3-2.9-1.5 0-2.6.3-3.9.8l-.8-2.5c1.5-.7 2.9-1.1 5.1-1.1 4 0 5.9 2.1 5.9 5.7v8zm.1-5.6c-.8-.3-1.9-.5-3.1-.5-2 0-3.1.8-3.1 2.1s1.1 2 2.6 2c2 0 3.5-1.1 3.5-2.9z"/><path fill="#e6e6e6" d="m663.7 170.5v2.1h-3.1v-18.7h3.1v7.4c1-1.4 2.4-2.5 4.5-2.5 3.2 0 6.3 2.5 6.3 7s-3.1 7-6.3 7c-2.1 0-3.5-1.1-4.5-2.3zm7.8-4.7c0-2.6-1.7-4.3-3.9-4.3-2.1 0-3.9 1.7-3.9 4.4 0 2.6 1.8 4.3 3.9 4.3s3.9-1.7 3.9-4.4z"/><path fill="#e6e6e6" d="m675.8 170.8 1.4-2.1c1.4 1.1 3 1.7 4.4 1.7s2.1-.5 2.1-1.5-1.3-1.4-2.8-1.8c-.1 0-.2-.1-.2-.1-2-.6-4.2-1.4-4.2-4s2.1-4.1 4.8-4.1c1.7 0 3.5.6 5 1.5l-1.2 2.2c-1.3-.8-2.6-1.3-3.8-1.3s-1.9.5-1.9 1.4 1.3 1.4 2.8 1.8c.1 0 .2.1.2.1 2 .6 4.2 1.5 4.2 4 0 2.9-2.2 4.2-5 4.2-2 0-4.1-.7-5.8-2z"/><path fill="#e6e6e6" d="m61 298.6c0-5.1 4.1-9.2 9.3-9.2s9.2 4.2 9.2 9.2-4.1 9.2-9.3 9.2c-5.1 0-9.2-4.2-9.2-9.2zm17.4-.1c0-4.5-3.5-8.2-8.2-8.2s-8.2 3.7-8.2 8.3c0 4.5 3.5 8.2 8.2 8.2s8.2-3.7 8.2-8.3zm-13.1-.1c0-2.8 2.1-5.1 5.1-5.1 1.9 0 2.9.6 3.9 1.5l-1.4 1.7c-.8-.7-1.5-1.1-2.5-1.1-1.7 0-2.8 1.4-2.8 3.1s1.1 3 2.8 3c1.1 0 1.7-.5 2.5-1.1l1.4 1.4c-1.1 1.1-2.1 1.7-4 1.7-2.8.1-5-2.2-5-5.1z"/><path fill="#e6e6e6" d="m80.9 289.7h3.4l4.2 13.2 4.4-13.3h2.6l4.4 13.3 4.2-13.2h3.3l-6.2 18h-2.7l-4.4-12.8-4.4 12.8h-2.7z"/><path fill="#e6e6e6" d="m107.1 300.8c0-3.9 3.1-7 7.2-7s7.2 3.2 7.2 7-3.1 7-7.3 7c-4 0-7.1-3.1-7.1-7zm11.3 0c0-2.3-1.7-4.3-4.2-4.3s-4.1 2-4.1 4.3 1.7 4.3 4.1 4.3c2.6.1 4.2-1.9 4.2-4.3z"/><path fill="#e6e6e6" d="m123.7 294h3.1v3c.8-2 2.4-3.4 4.8-3.3v3.2h-.2c-2.7 0-4.6 1.7-4.6 5.4v5.1h-3.1z"/><path fill="#e6e6e6" d="m133.4 288.9h3.1v11.1l5.6-6h3.8l-5.4 5.5 5.5 8h-3.5l-4.1-5.8-1.9 1.9v3.9h-3.1z"/><path fill="#e6e6e6" d="m146 300.8c0-3.9 3.1-7 7.2-7s7.2 3.2 7.2 7-3.1 7-7.3 7c-4.1 0-7.1-3.1-7.1-7zm11.2 0c0-2.3-1.7-4.3-4.2-4.3s-4.1 2-4.1 4.3 1.7 4.3 4.1 4.3c2.6.1 4.2-1.9 4.2-4.3z"/><path fill="#e6e6e6" d="m162.4 302.6v-8.6h3.1v7.6c0 2.1 1.1 3.3 2.9 3.3s3-1.3 3-3.3v-7.6h3.1v13.4h-3.1v-2.1c-.8 1.3-2.1 2.3-4.2 2.3-3 .2-4.8-1.8-4.8-5z"/><path fill="#e6e6e6" d="m178.1 303.8v-7.1h-1.7v-2.7h1.7v-3.7h3.1v3.7h3.6v2.6h-3.6v6.6c0 1.2.6 1.7 1.7 1.7.7 0 1.3-.2 1.9-.5v2.5c-.8.5-1.7.7-2.8.7-2.3.1-3.9-.9-3.9-3.8z"/><path fill="#e6e6e6" d="m187.4 289.7h3.2v15h9.4v2.9h-12.5v-17.9z"/><path fill="#e6e6e6" d="m210.2 307.5v-1.7c-.9 1.1-2.3 2-4.4 2-2.6 0-4.8-1.4-4.8-4.2 0-3 2.3-4.4 5.4-4.4 1.7 0 2.6.2 3.7.5v-.2c0-1.9-1.2-2.9-3.3-2.9-1.5 0-2.6.3-3.9.8l-.8-2.5c1.5-.7 2.9-1.1 5.1-1.1 4 0 5.9 2.1 5.9 5.7v8zm.1-5.6c-.8-.3-1.9-.5-3.1-.5-2 0-3.1.8-3.1 2.1s1.1 2 2.6 2c2 0 3.5-1.1 3.5-2.9z"/><path fill="#e6e6e6" d="m219.2 305.5v2.1h-3.1v-18.7h3.1v7.4c1-1.4 2.4-2.5 4.5-2.5 3.2 0 6.3 2.5 6.3 7s-3.1 7-6.3 7c-2.2 0-3.6-1.1-4.5-2.3zm7.7-4.7c0-2.6-1.7-4.3-3.9-4.3s-3.9 1.7-3.9 4.4c0 2.6 1.8 4.3 3.9 4.3s3.9-1.7 3.9-4.4z"/><path fill="#e6e6e6" d="m231.2 305.8 1.4-2.1c1.4 1.1 3 1.7 4.4 1.7s2.1-.5 2.1-1.5-1.3-1.4-2.8-1.8c-.1 0-.2-.1-.2-.1-2-.6-4.2-1.4-4.2-4s2.1-4.1 4.8-4.1c1.7 0 3.5.6 5 1.5l-1.2 2.2c-1.3-.8-2.6-1.3-3.8-1.3s-1.9.5-1.9 1.4 1.3 1.4 2.8 1.8c.1 0 .2.1.2.1 2 .6 4.2 1.5 4.2 4 0 2.9-2.2 4.2-5 4.2-2 0-4.1-.7-5.8-2z"/><path fill="#e6e6e6" d="m360.6 298.6c0-5.1 4.1-9.2 9.3-9.2s9.2 4.2 9.2 9.2-4.1 9.2-9.3 9.2-9.2-4.2-9.2-9.2zm17.4-.1c0-4.5-3.5-8.2-8.2-8.2s-8.2 3.7-8.2 8.3c0 4.5 3.5 8.2 8.2 8.2s8.2-3.7 8.2-8.3zm-13.1-.1c0-2.8 2.1-5.1 5.1-5.1 1.9 0 2.9.6 3.9 1.5l-1.4 1.7c-.8-.7-1.5-1.1-2.5-1.1-1.7 0-2.8 1.4-2.8 3.1s1.1 3 2.8 3c1.1 0 1.7-.5 2.5-1.1l1.4 1.4c-1.1 1.1-2.1 1.7-4 1.7-2.8.1-5-2.2-5-5.1z"/><path fill="#e6e6e6" d="m380.5 289.7h3.4l4.2 13.2 4.4-13.3h2.6l4.4 13.3 4.2-13.2h3.3l-6.2 18h-2.7l-4.4-12.8-4.4 12.8h-2.7z"/><path fill="#e6e6e6" d="m406.7 300.8c0-3.9 3.1-7 7.2-7 4.2 0 7.2 3.2 7.2 7s-3.1 7-7.3 7c-4.1 0-7.1-3.1-7.1-7zm11.3 0c0-2.3-1.7-4.3-4.2-4.3s-4.1 2-4.1 4.3 1.7 4.3 4.1 4.3c2.7.1 4.2-1.9 4.2-4.3z"/><path fill="#e6e6e6" d="m423.3 294h3.1v3c.8-2 2.4-3.4 4.8-3.3v3.2h-.2c-2.7 0-4.6 1.7-4.6 5.4v5.1h-3.1z"/><path fill="#e6e6e6" d="m433 288.9h3.1v11.1l5.6-6h3.8l-5.4 5.5 5.5 8h-3.5l-4.1-5.8-1.9 2v3.9h-3.1z"/><path fill="#e6e6e6" d="m445.6 300.8c0-3.9 3.1-7 7.2-7 4.2 0 7.2 3.2 7.2 7s-3.1 7-7.3 7c-4.1 0-7.1-3.1-7.1-7zm11.3 0c0-2.3-1.7-4.3-4.2-4.3s-4.1 2-4.1 4.3 1.7 4.3 4.1 4.3c2.6.1 4.2-1.9 4.2-4.3z"/><path fill="#e6e6e6" d="m462.1 302.6v-8.6h3.1v7.6c0 2.1 1.1 3.3 2.9 3.3s3-1.3 3-3.3v-7.6h3.1v13.4h-3.1v-2.1c-.8 1.3-2.1 2.3-4.2 2.3-3.1.2-4.8-1.8-4.8-5z"/><path fill="#e6e6e6" d="m477.8 303.8v-7.1h-1.8v-2.7h1.7v-3.7h3.1v3.7h3.6v2.6h-3.6v6.6c0 1.2.6 1.7 1.7 1.7.7 0 1.3-.2 1.9-.5v2.5c-.8.5-1.7.7-2.8.7-2.2.1-3.8-.9-3.8-3.8z"/><path fill="#e6e6e6" d="m487.1 289.7h3.2v15h9.4v2.9h-12.5v-17.9z"/><path fill="#e6e6e6" d="m509.9 307.5v-1.7c-.9 1.1-2.3 2-4.4 2-2.6 0-4.8-1.4-4.8-4.2 0-3 2.3-4.4 5.4-4.4 1.7 0 2.6.2 3.7.5v-.2c0-1.9-1.2-2.9-3.3-2.9-1.5 0-2.6.3-3.9.8l-.8-2.5c1.5-.7 2.9-1.1 5.1-1.1 4 0 5.9 2.1 5.9 5.7v8zm.1-5.6c-.8-.3-1.9-.5-3.1-.5-2 0-3.1.8-3.1 2.1s1.1 2 2.6 2c2 0 3.5-1.1 3.5-2.9z"/><path fill="#e6e6e6" d="m518.8 305.5v2.1h-3.1v-18.7h3.1v7.4c1-1.4 2.4-2.5 4.5-2.5 3.2 0 6.3 2.5 6.3 7s-3.1 7-6.3 7c-2.2 0-3.5-1.1-4.5-2.3zm7.7-4.7c0-2.6-1.7-4.3-3.9-4.3s-3.9 1.7-3.9 4.4c0 2.6 1.8 4.3 3.9 4.3s3.9-1.7 3.9-4.4z"/><path fill="#e6e6e6" d="m530.8 305.8 1.4-2.1c1.4 1.1 3 1.7 4.4 1.7s2.1-.5 2.1-1.5-1.3-1.4-2.8-1.8c-.1 0-.2-.1-.2-.1-2-.6-4.2-1.4-4.2-4s2.1-4.1 4.8-4.1c1.7 0 3.5.6 5 1.5l-1.2 2.2c-1.3-.8-2.6-1.3-3.8-1.3s-1.9.5-1.9 1.4 1.3 1.4 2.8 1.8c.1 0 .2.1.2.1 2 .6 4.2 1.5 4.2 4 0 2.9-2.2 4.2-5 4.2-1.9 0-4.1-.7-5.8-2z"/><path fill="#e6e6e6" d="m659.5 298.6c0-5.1 4.1-9.2 9.3-9.2s9.2 4.2 9.2 9.2-4.1 9.2-9.3 9.2-9.2-4.2-9.2-9.2zm17.3-.1c0-4.5-3.5-8.2-8.2-8.2s-8.2 3.7-8.2 8.3c0 4.5 3.5 8.2 8.2 8.2 4.8 0 8.2-3.7 8.2-8.3zm-13-.1c0-2.8 2.1-5.1 5.1-5.1 1.9 0 2.9.6 3.9 1.5l-1.4 1.7c-.8-.7-1.5-1.1-2.5-1.1-1.7 0-2.8 1.4-2.8 3.1s1.1 3 2.8 3c1.1 0 1.7-.5 2.5-1.1l1.4 1.4c-1.1 1.1-2.1 1.7-4 1.7-2.9.1-5-2.2-5-5.1z"/><path fill="#e6e6e6" d="m679.3 289.7h3.4l4.2 13.2 4.4-13.3h2.6l4.4 13.3 4.2-13.2h3.3l-6.2 18h-2.6l-4.4-12.8-4.4 12.8h-2.7z"/><path fill="#e6e6e6" d="m705.5 300.8c0-3.9 3.1-7 7.2-7 4.2 0 7.2 3.2 7.2 7s-3.1 7-7.3 7c-4 0-7.1-3.1-7.1-7zm11.3 0c0-2.3-1.7-4.3-4.2-4.3s-4.1 2-4.1 4.3 1.7 4.3 4.1 4.3c2.7.1 4.2-1.9 4.2-4.3z"/><path fill="#e6e6e6" d="m722.1 294h3.1v3c.8-2 2.4-3.4 4.8-3.3v3.2h-.2c-2.7 0-4.6 1.7-4.6 5.4v5.1h-3.1z"/><path fill="#e6e6e6" d="m731.8 288.9h3.1v11.1l5.6-6h3.8l-5.4 5.5 5.5 8h-3.5l-4.1-5.8-1.9 2v3.9h-3.1z"/><path fill="#e6e6e6" d="m744.4 300.8c0-3.9 3.1-7 7.2-7 4.2 0 7.2 3.2 7.2 7s-3.1 7-7.3 7c-4.1 0-7.1-3.1-7.1-7zm11.3 0c0-2.3-1.7-4.3-4.2-4.3s-4.1 2-4.1 4.3 1.7 4.3 4.1 4.3c2.6.1 4.2-1.9 4.2-4.3z"/><path fill="#e6e6e6" d="m760.9 302.6v-8.6h3.1v7.6c0 2.1 1.1 3.3 2.9 3.3s3-1.3 3-3.3v-7.6h3.1v13.4h-3.1v-2.1c-.8 1.3-2.1 2.3-4.2 2.3-3.1.2-4.8-1.8-4.8-5z"/><path fill="#e6e6e6" d="m776.6 303.8v-7.1h-1.7v-2.7h1.7v-3.7h3.1v3.7h3.6v2.6h-3.6v6.6c0 1.2.6 1.7 1.7 1.7.7 0 1.3-.2 1.9-.5v2.5c-.8.5-1.7.7-2.8.7-2.3.1-3.9-.9-3.9-3.8z"/><path fill="#e6e6e6" d="m785.9 289.7h3.2v15h9.4v2.9h-12.5v-17.9z"/><path fill="#e6e6e6" d="m808.7 307.5v-1.7c-.9 1.1-2.3 2-4.4 2-2.6 0-4.8-1.4-4.8-4.2 0-3 2.3-4.4 5.4-4.4 1.7 0 2.6.2 3.7.5v-.2c0-1.9-1.2-2.9-3.3-2.9-1.5 0-2.6.3-3.9.8l-.8-2.5c1.5-.7 2.9-1.1 5.1-1.1 4 0 5.9 2.1 5.9 5.7v8zm.1-5.6c-.8-.3-1.9-.5-3.1-.5-2 0-3.1.8-3.1 2.1s1.1 2 2.6 2c2 0 3.5-1.1 3.5-2.9z"/><path fill="#e6e6e6" d="m817.6 305.5v2.1h-3.1v-18.7h3.1v7.4c1-1.4 2.4-2.5 4.5-2.5 3.2 0 6.3 2.5 6.3 7s-3.1 7-6.3 7c-2.1 0-3.5-1.1-4.5-2.3zm7.7-4.7c0-2.6-1.7-4.3-3.9-4.3-2.1 0-3.9 1.7-3.9 4.4 0 2.6 1.8 4.3 3.9 4.3 2.2 0 3.9-1.7 3.9-4.4z"/><path fill="#e6e6e6" d="m829.6 305.8 1.4-2.1c1.4 1.1 3 1.7 4.4 1.7s2.1-.5 2.1-1.5-1.3-1.4-2.8-1.8c-.1 0-.2-.1-.2-.1-2-.6-4.2-1.4-4.2-4s2.1-4.1 4.8-4.1c1.7 0 3.5.6 5 1.5l-1.2 2.2c-1.3-.8-2.6-1.3-3.8-1.3s-1.9.5-1.9 1.4 1.3 1.4 2.8 1.8c.1 0 .2.1.2.1 2 .6 4.2 1.5 4.2 4 0 2.9-2.2 4.2-5 4.2-1.9 0-4-.7-5.8-2z"/><path fill="#e6e6e6" d="m206.3 434.2c0-5.1 4.1-9.2 9.3-9.2s9.2 4.2 9.2 9.2-4.1 9.2-9.3 9.2-9.2-4.1-9.2-9.2zm17.4-.1c0-4.5-3.5-8.2-8.2-8.2s-8.2 3.7-8.2 8.3c0 4.5 3.5 8.2 8.2 8.2s8.2-3.7 8.2-8.3zm-13.1-.1c0-2.8 2.1-5.1 5.1-5.1 1.9 0 2.9.6 3.9 1.5l-1.4 1.7c-.8-.7-1.5-1.1-2.5-1.1-1.7 0-2.8 1.4-2.8 3.1s1.1 3 2.8 3c1.1 0 1.7-.5 2.5-1.1l1.4 1.4c-1.1 1.1-2.1 1.7-4 1.7-2.9.1-5-2.2-5-5.1z"/><path fill="#e6e6e6" d="m226.1 425.3h3.4l4.2 13.2 4.4-13.3h2.6l4.4 13.3 4.2-13.2h3.3l-6.2 18h-2.7l-4.4-12.8-4.4 12.8h-2.7z"/><path fill="#e6e6e6" d="m252.4 436.4c0-3.9 3.1-7 7.2-7 4.2 0 7.2 3.2 7.2 7s-3.1 7-7.3 7c-4.1 0-7.1-3.1-7.1-7zm11.2 0c0-2.3-1.7-4.3-4.2-4.3s-4.1 2-4.1 4.3 1.7 4.3 4.1 4.3c2.7.1 4.2-1.9 4.2-4.3z"/><path fill="#e6e6e6" d="m269 429.7h3.1v3c.8-2 2.4-3.4 4.8-3.3v3.2h-.2c-2.7 0-4.6 1.7-4.6 5.4v5.1h-3.1z"/><path fill="#e6e6e6" d="m278.6 424.5h3.1v11.1l5.6-6h3.8l-5.4 5.5 5.5 8h-3.5l-4.1-5.8-1.9 2v3.9h-3.1z"/><path fill="#e6e6e6" d="m291.3 436.4c0-3.9 3.1-7 7.2-7 4.2 0 7.2 3.2 7.2 7s-3.1 7-7.3 7c-4.1 0-7.1-3.1-7.1-7zm11.2 0c0-2.3-1.7-4.3-4.2-4.3s-4.1 2-4.1 4.3 1.7 4.3 4.1 4.3c2.6.1 4.2-1.9 4.2-4.3z"/><path fill="#e6e6e6" d="m307.7 438.2v-8.6h3.1v7.6c0 2.1 1.1 3.3 2.9 3.3s3-1.3 3-3.3v-7.6h3.1v13.4h-3.1v-2.1c-.8 1.3-2.1 2.3-4.2 2.3-3 .2-4.8-1.8-4.8-5z"/><path fill="#e6e6e6" d="m323.4 439.4v-7.1h-1.7v-2.6h1.7v-3.7h3.1v3.7h3.6v2.6h-3.6v6.6c0 1.2.6 1.7 1.7 1.7.7 0 1.3-.2 1.9-.5v2.5c-.8.5-1.7.7-2.8.7-2.3 0-3.9-.9-3.9-3.9z"/><path fill="#e6e6e6" d="m332.7 425.3h3.2v15h9.4v2.9h-12.5v-17.9z"/><path fill="#e6e6e6" d="m355.5 443.1v-1.7c-.9 1.1-2.3 2-4.4 2-2.6 0-4.8-1.4-4.8-4.2 0-3 2.3-4.4 5.4-4.4 1.7 0 2.6.2 3.7.5v-.2c0-1.9-1.2-2.9-3.3-2.9-1.5 0-2.6.3-3.9.8l-.8-2.5c1.5-.7 2.9-1.1 5.1-1.1 4 0 5.9 2.1 5.9 5.7v8zm.1-5.6c-.8-.3-1.9-.5-3.1-.5-2 0-3.1.8-3.1 2.1s1.1 2 2.6 2c2 0 3.5-1.1 3.5-2.9z"/><path fill="#e6e6e6" d="m364.4 441.1v2.1h-3.1v-18.7h3.1v7.4c1-1.4 2.4-2.5 4.5-2.5 3.2 0 6.3 2.5 6.3 7s-3.1 7-6.3 7c-2.1 0-3.5-1.1-4.5-2.3zm7.7-4.7c0-2.6-1.7-4.3-3.9-4.3-2.1 0-3.9 1.7-3.9 4.4 0 2.6 1.8 4.3 3.9 4.3 2.2 0 3.9-1.7 3.9-4.4z"/><path fill="#e6e6e6" d="m376.5 441.4 1.4-2.1c1.4 1.1 3 1.7 4.4 1.7s2.1-.5 2.1-1.5-1.3-1.4-2.8-1.8c-.1 0-.2-.1-.2-.1-2-.6-4.2-1.4-4.2-4s2.1-4.1 4.8-4.1c1.7 0 3.5.6 5 1.5l-1.2 2.2c-1.3-.8-2.6-1.3-3.8-1.3s-1.9.5-1.9 1.4 1.3 1.4 2.8 1.8c.1 0 .2.1.2.1 2 .6 4.2 1.5 4.2 4 0 2.9-2.2 4.2-5 4.2-2 0-4.1-.7-5.8-2z"/><path fill="#e6e6e6" d="m505.1 434.2c0-5.1 4.1-9.2 9.3-9.2s9.2 4.2 9.2 9.2-4.1 9.2-9.3 9.2-9.2-4.1-9.2-9.2zm17.4-.1c0-4.5-3.5-8.2-8.2-8.2s-8.2 3.7-8.2 8.3c0 4.5 3.5 8.2 8.2 8.2s8.2-3.7 8.2-8.3zm-13.1-.1c0-2.8 2.1-5.1 5.1-5.1 1.9 0 2.9.6 3.9 1.5l-1.4 1.7c-.8-.7-1.5-1.1-2.5-1.1-1.7 0-2.8 1.4-2.8 3.1s1.1 3 2.8 3c1.1 0 1.7-.5 2.5-1.1l1.4 1.4c-1.1 1.1-2.1 1.7-4 1.7-2.9.1-5-2.2-5-5.1z"/><path fill="#e6e6e6" d="m525 425.3h3.4l4.2 13.2 4.4-13.3h2.6l4.4 13.3 4.2-13.2h3.3l-6.2 18h-2.7l-4.4-12.8-4.4 12.8h-2.7z"/><path fill="#e6e6e6" d="m551.2 436.4c0-3.9 3.1-7 7.2-7 4.2 0 7.2 3.2 7.2 7s-3.1 7-7.3 7c-4.1 0-7.1-3.1-7.1-7zm11.2 0c0-2.3-1.7-4.3-4.2-4.3s-4.1 2-4.1 4.3 1.7 4.3 4.1 4.3c2.7.1 4.2-1.9 4.2-4.3z"/><path fill="#e6e6e6" d="m567.8 429.7h3.1v3c.8-2 2.4-3.4 4.8-3.3v3.2h-.2c-2.7 0-4.6 1.7-4.6 5.4v5.1h-3.1z"/><path fill="#e6e6e6" d="m577.5 424.5h3.1v11.1l5.6-6h3.8l-5.4 5.5 5.5 8h-3.5l-4.1-5.8-1.9 2v3.9h-3.1z"/><path fill="#e6e6e6" d="m590.1 436.4c0-3.9 3.1-7 7.2-7 4.2 0 7.2 3.2 7.2 7s-3.1 7-7.3 7c-4.1 0-7.1-3.1-7.1-7zm11.2 0c0-2.3-1.7-4.3-4.2-4.3s-4.1 2-4.1 4.3 1.7 4.3 4.1 4.3c2.6.1 4.2-1.9 4.2-4.3z"/><path fill="#e6e6e6" d="m606.5 438.2v-8.6h3.1v7.6c0 2.1 1.1 3.3 2.9 3.3s3-1.3 3-3.3v-7.6h3.1v13.4h-3.1v-2.1c-.8 1.3-2.1 2.3-4.2 2.3-3 .2-4.8-1.8-4.8-5z"/><path fill="#e6e6e6" d="m622.2 439.4v-7.1h-1.7v-2.6h1.7v-3.7h3.1v3.7h3.6v2.6h-3.6v6.6c0 1.2.6 1.7 1.7 1.7.7 0 1.3-.2 1.9-.5v2.5c-.8.5-1.7.7-2.8.7-2.3 0-3.9-.9-3.9-3.9z"/><path fill="#e6e6e6" d="m631.5 425.3h3.2v15h9.4v2.9h-12.5v-17.9z"/><path fill="#e6e6e6" d="m654.3 443.1v-1.7c-.9 1.1-2.3 2-4.4 2-2.6 0-4.8-1.4-4.8-4.2 0-3 2.3-4.4 5.4-4.4 1.7 0 2.6.2 3.7.5v-.2c0-1.9-1.2-2.9-3.3-2.9-1.5 0-2.6.3-3.9.8l-.8-2.5c1.5-.7 2.9-1.1 5.1-1.1 4 0 5.9 2.1 5.9 5.7v8zm.1-5.6c-.8-.3-1.9-.5-3.1-.5-2 0-3.1.8-3.1 2.1s1.1 2 2.6 2c2 0 3.5-1.1 3.5-2.9z"/><path fill="#e6e6e6" d="m663.3 441.1v2.1h-3.1v-18.7h3.1v7.4c1-1.4 2.4-2.5 4.5-2.5 3.2 0 6.3 2.5 6.3 7s-3.1 7-6.3 7c-2.2 0-3.6-1.1-4.5-2.3zm7.7-4.7c0-2.6-1.7-4.3-3.9-4.3s-3.9 1.7-3.9 4.4c0 2.6 1.8 4.3 3.9 4.3s3.9-1.7 3.9-4.4z"/><path fill="#e6e6e6" d="m675.3 441.4 1.4-2.1c1.4 1.1 3 1.7 4.4 1.7s2.1-.5 2.1-1.5-1.3-1.4-2.8-1.8c-.1 0-.2-.1-.2-.1-2-.6-4.2-1.4-4.2-4s2.1-4.1 4.8-4.1c1.7 0 3.5.6 5 1.5l-1.2 2.2c-1.3-.8-2.6-1.3-3.8-1.3s-1.9.5-1.9 1.4 1.3 1.4 2.8 1.8c.1 0 .2.1.2.1 2 .6 4.2 1.5 4.2 4 0 2.9-2.2 4.2-5 4.2-2 0-4.1-.7-5.8-2z"/></g>
</svg>
