<?xml version="1.0" encoding="utf-8"?>
<!-- Generator: Adobe Illustrator 23.0.1, SVG Export Plug-In . SVG Version: 6.00 Build 0)  -->
<svg version="1.2" baseProfile="tiny" id="Layer_1" xmlns="http://www.w3.org/2000/svg" xmlns:xlink="http://www.w3.org/1999/xlink"
	 x="0px" y="0px" viewBox="0 0 900 600" xml:space="preserve">
<g>
	<path d="M672.04,409.57c-13.08-9.36-46.61-16.67-66.66-7.76c-5.72-4.9-10,0-14.8,2.65c-2.4-2.82-3.25-1.32-10.72,3.88
		c5.9-14.76,7.12-15.88,9.49-32.16c0.28-1.94-0.61-2.96-2.76-2.65c-2.35,3.98,3.41-5.48-7.25,27.97
		c-3.17,9.94-7.16,11.94-15.21,11.94c1.43-2.65,2.04-5.41,1.84-8.37c-1.74,3.06-2.86,6.43-5,9.7c-5.1-3.06-11.22-2.87-16.74-4.9
		c-5.61-2.06-11.64,0.71-17.56-0.61c-0.1-3.37-0.71-6.23-3.47-8.78c-0.31,3.16,1.63,5.82,0.71,8.58
		c-9.29,1.23-16.44-0.71-24.09-6.53c2.65-3.57,4.09-7.55,4.8-12.15c2.04-13.28,9.06-15.33,3.37-40.94
		c4.19,3.47,7.35,7.96,13.58,5.41c7.11,13.28,4.8,14.75,11.33,22.15c3.86,4.38,6.7,19.49,21.54,21.95c4.9,0.81,0.38,3.57,14.5-9.8
		c-0.41,3.98-2.25,7.45-1.84,11.33c1.23-4.9,3.16-9.49,4.29-14.39c13.76-9.66,14.58-14.36,14.58-11.5c1.38-2.37,1.39-4.64,3.39-2.8
		c0.39-0.04,0.83,0.2,0.92,0.1c0.82-1.63-1.33-1.63-0.82-2.86c8.63-10.55,9.93-18.07,11.13-19.7c9.53-1.77,8.66-2.67,9.9-1.94
		c4.8,2.81,10.01-3.5,21.23,2.76c1.44,0.8,2.86,1.43,4.9,0.71c-7.35-6.13-16.23-3.98-24.6-6.23c0-20.58-0.67-17.19-0.2-18.27
		c1.53-3.57,3.27-7.04,6.53-10.72c-0.41,10.11,0.31,19.4,0.92,28.89c2.16-0.68,1.6,0.24,0.92-30.22
		c-0.51-22.82,8.72,29.43,9.29,30.52c0.1-13.17-2.14-25.83-7.55-38.08c3.47-0.92,7.15-0.2,10.41-1.74c0.41,0.71,0.1,1.43,1.02,1.84
		c0.52-5.41,10.03-8.13,7.66-15.11c-3.04-0.61-1.62-5.47-3.27-6.02c-0.56,0-0.71,3.8,0.6,6.24c1.6,2.98-1.94,8.68-5.31,9.09
		c-1.31,0.24-6.75,0-7.66,1.02c2.25,1.94,5-0.2,7.45,1.12c-4.39,1.43-8.88,1.63-13.58,2.04c-0.1-1.53-1.94-1.53-2.55-3.16
		c2.45,0,4.8,1.02,6.84-0.92c-2.65-0.1-5.21-0.2-8.68-0.41c-1.23-8.17-0.41-15.82,3.47-23.17c4.08-0.31,7.96,1.23,11.94,0.1
		c0.92,0.71,1.84,1.43,3.27,2.55c-2.04-4.9-5.92-3.27-8.78-4.08c-0.51-1.12-1.23-2.04,0-3.06c2.01-0.81,3.52,2.04,5.61,0.96
		c-0.65,1.79,5.28,1.43,8.27,7.41c2.8,5.6,6.54,16.21,3.27,21.44c-2.39,3.81-2.54,7.76-2.35,12.05
		c1.05,23.57,25.38,40.08,22.77,49.72c-3.62,13.36-1.19,12.92-4.29,16.95c-1.95,2.54-4.08,5-5.51,7.66
		c-1.94,0.92-3.68-1.02-5.51,0.31c3.68,2.55,5.51,2.86,6.84,0.71c1.85-2.98,8.54-9.76,8.06-12.15c-0.72-3.67,0.99-6.64,1.84-9.8
		c1.68-6.26-1.61-15.99-4.08-18.07c-5.04-4.23-14.75-18.75-16.74-26.54c-5.11-20.04,2.71-16.62,1.84-23.58
		c-1.05-8.38-1.69-16.79-8.68-23.28c-2.2-2.04-4.17-2.69-5.11-2.86c-8.02-7.28-15.41,3.89-14.08,2.56
		c0.76,1.7-8.19,14.05-1.02,27.67c3.02,5.73,1.52,10.3-6.33,22.46c-13.11,20.29-10.31,31.32-31.03,51.66
		c-0.01,0.01-0.03,0.03-0.04,0.04c-0.25,0.14-3.56,3.04-20.58,18.64c-3.58-1.39-7.92-0.66-10.41-4.3c1.44,0.34,2.63,1.61,4.19,1.44
		c-1.63-2.35-4.8-2.45-6.94-4.59c0.08,1.45,1.1,1.89,1.68,2.55c-2.35-1.1-4.3-2.96-4.85-5.21c-1.12-4.6-4.16-8.19-6.64-11.74
		c-4.65-6.67-6.48-14.22-10.11-21.13c-3.22-6.15-2.42-13.53-5.1-19.91c-0.39-0.93,0.71-1.12,1.02-2.25
		c-10.41-7.67-11.88-41.69,3.37-47.27c0.92-0.41,1.83-0.82,2.45-1.53c2.94-3.39,7.25-4.59,10.52-7.15
		c4.08,1.63,7.05,4.39,10.31,6.64c4.6,3.16,6.29,7.66,7.25,12.76c1.91,10.16-2.97,15.75-0.82,18.99c-0.61,1.12-1.94,0.2-2.35,1.63
		c1.12,0.92,0.71,2.65,1.53,4.39c7.07-7.34,9.22-25.31-1.23-37.98c12.77,3.19,12.69,29.71,39.92,26.75
		c1.23,1.63,2.25,3.47,2.65,5.51c-11.22,9.85-18.02,25.73-28.69,25.73c-1.23-4.08,0.45-8.6-1.84-12.66c-2.31-4.11-7.15-7.66-10-6.64
		c0.71,3.47,3.78,5.1,6.13,7.25c0.31,0.82-0.12,1.75,0.41,2.65c1.57,2.69,1.63,5.72,2.25,8.68c0.77,3.72,0.96,1.67-18.89,13.58
		c0.41-1.53,1.74-2.25,1.74-4.49c-3.27,4.29-5.41,8.17-6.84,12.66c2.96-5.31,7.55-8.49,12.76-11.03
		c29.37-14.3,17.01-4.29,44.71-34.71c1.74,0.51,3.57,1.12,5.72,0.41c-1.53-1.63-3.47-1.23-5.41-1.74c-1.63-5.41-6.23-9.09-9.09-14.5
		c-0.28,2.56-0.87-0.1,2.35,7.15c-15.01,0.31-22.36-9.6-28.79-21.34c3.47,0,6.53,0,9.6,0c-3.57-1.53-7.25-1.94-10.92-1.23
		c-17.44-20.35-19.27-6.95-4.9-20.62c15.07-14.34,5.3-24.95,10.21-30.52c-2.04,0-3.37-0.51-3.47-2.45c0.82-0.31,1.74,0.41,2.55-0.92
		c-0.39-1.47,0.8-3.12,0.54-4.96c1.4,1.42,1.52,3.4,1.91,5.68c2.65-2.96,3.38-6.12,4.29-9.19c1.24-4.18,4.79-7.02,5.92-11.13
		c0.11-0.41,0.82-0.82,1.12-0.82c2.14,0.31,2.86-1.84,4.7-2.25c-0.71-1.33-1.12-2.35-1.63-3.37c-1.02-0.61-2.65,0.2-2.96-1.63
		c1.53-1.63,2.44,0.34,3.68,0.61c1.52,0.34,1.84,1.94,2.55,2.96c2.86-0.88-3.89-3.09,10.11-2.14c3.06,0.21,6.13,0.82,9.29-0.51
		c0.51,4.19,0.14,8.2,2.35,11.64c2.72,4.24-11.44,2.35-7.45,12.45c0.92-0.92,0-2.35,1.12-3.37c1.94,0.61,3.88-0.1,6.02-0.92
		c0.61-2.55,1.33-5.21,2.04-7.76c-2.14-4.19-1.63-8.68-2.35-12.76c1.74-2.86,5-3.57,7.45-5.92c-1.02-1.02,0.2-2.25-0.1-3.37
		c-1.63-0.92-3.16,0.1-4.9-0.1c0.82-1.53,3.37-1.23,3.57-3.47c-2.04-1.33-3.57,0.2-5.21,0.92c-0.51-2.14,0.82-4.39-0.92-6.13
		c-1.43,0.82-2.04,2.35-3.57,2.86c-2.56-3.74-7.26,1.3-10.11,0.51c-4.29-1.2-8.47,0.1-12.25-0.41c-1.74,0.51-1.53,3.06-3.68,2.35
		c-0.41-0.61,0.61-2.14-1.23-2.04c-2.35,2.55-5.1,4.49-8.88,4.29c-1.63-1.23-2.96-3.27-5.61-1.74c0.82,1.12,1.43,2.04,2.04,2.86
		c-1.75,1.85-2.71,5.84-2.39,5.71c0.2-0.06,0.8-0.34,1.88-0.69c2.25,1.94,2.25,1.94,4.59,1.63c0.61,0.82-0.1,1.23-0.82,2.04
		c-2.14-1.94-4.29-0.71-6.43,0.71c0-1.43,1.33-1.74,1.43-2.65c-0.38-1.34-2.34-0.33-0.87-0.95c-0.6-0.3-0.55-0.33-0.87-0.17
		c-0.13,5.36-5.06,10.82-4.7,19.19c0.18,4.19,3.51,7.74,2.35,12.15c-0.11,0.41,0.31,0.92,0.51,1.33c3.72,9.46,1.35,8.03,3.06,11.74
		c5.56,12.09-11.49,24.34-23.38,30.32c-7.67,3.86-6.6,7.84-11.13,8.88c-13,3-12.63,13.04-16.23,28.28
		c-13.2,55.78,9.66,31.69-9.39,90.14c-2.25,0.31-2.14-1.23-2.25-2.35c-5.31,0.51-5.61,1.02-5.51,6.33
		c-9.09,8.78-13.58,13.37-12.05,23.17c-4.08,4.49-3.24,16.21,0.41,20.42c6.2,7.15,3.22,11.26,5.61,13.48
		c11.87,10.97,13.97,10.04,26.95,14.8c0.89,56.03-4.58,60.75-0.51,61.76c1.53-1.23,1.11-3.06,1.33-4.7
		c0.19-1.43,2.25-50.02,2.25-50.12c-0.19-10.72,2.74-20.53,7.55-30.01c2.65-5.21,11.13-7.76,15.93-5.21
		c0.61,0.41,1.23,1.33,2.45,0.61c-1.33-0.92-1.94-2.55-3.06-3.47c-3.77-3.07-11.04-1.85-13.88,2.14c-2.46,3.46-5.31,6.64-6.94,11.13
		c-3.14-7.46-5.68-16.55-2.65-24.09c2.93-7.3,11.4-22.94,21.03-23.17c3.27-0.08,6.02,1.42,9.09,1.74c9.8,1,19.15,3.31,26.13,11.03
		c2.23,2.46,5.31,4.9,4.29,8.68s-1.49,8.04-5.41,10.31c-2.29,1.33,1.19,6.29-7.96,18.78c-5.52,7.54-2.26,16.88-11.64,28.89
		c-8.71,11.16-11.42,12.86-13.07,20.11c-0.98,4.31-7.78,15.82-7.66,25.93c0,0.31-0.31,0.61-0.61,1.23
		c-3.37-0.31-6.64,2.65-10.31,0.41c0-3.37,0-6.53,0-10.41c-1.02,3.57-1.94,6.43-1.84,10c-3.06-1.12-3.57,1.74-5,2.96
		c-1.63-0.1-2.55-1.33-3.98-1.33c-3.78,3.47-3.83,3.47-3.88,7.96c-0.01,1.02-0.09,2.15-0.82,2.76c-4.89,4.07,1.19,8.09-6.53,24.09
		c-3.17,6.56,4.13,12.45,11.64,13.58c-0.24,4.48,2.34,5.28,13.88,7.76c9.55,2.05,11.77,0.69,29.4-3.98
		c1.22-0.32,2.87-0.72,2.76-1.94c-0.19-2.04,1.43-2.25,2.35-3.06c0-4.85,0.52-9.38-4.59-10.62c-3.14-0.76-9.21-5.74-10.52-11.03
		c-1.34-5.41-4.49-10.11-7.35-14.39c-6.41,0-17.91,0.23-16.44,6.84c2.96-2.14,6.02-3.27,9.39-3.47c-3.47,1.74-7.35,2.65-9.7,6.43
		c2.99,1.74,15.97-7.16,17.97-1.74c-5.21,1.84-12.05-0.2-15.11,6.43c5.61-1.84,11.43-1.94,16.95-3.27c1.43,1.94,2.14,3.88,1.94,6.43
		c-1.23-0.1-2.35,0.82-3.68,0.31c0.61-1.12,2.45-1.02,2.45-2.55c-1.53-1.63-1.54-1.76-3.16-1.33c-4.31,1.15-9.19,1.02-12.45,4.8
		c2.45,0.2,4.8-0.1,7.15,0.2c0.2,0.71-0.82,1.33-0.1,2.14c19.01,0.49,6.69-5.17,16.95,3.57c4.97,4.24,8.8,3.2,8.06,8.37
		c-6.74-1.43-18.17,2.65-20.42,7.66c5.82-3.78,11.54-5.51,17.87-3.37c-13.68,5.82-27.56,8.68-41.65,1.12c-0.31-5-0.31-5-2.45-6.33
		c-1.33,0.92,0.82,2.55-0.71,3.57c-19.97-14.1-1.61-7.98-3.68-28.18c-0.31-3.04,0.7-5.38,3.01-7.21c0.86,2.36,3.14,1.41,4.64,2.31
		c3.47-3.27,2.86-7.96,4.7-12.05c5,1.94,10,2.25,14.7-0.82c2.04,2.96,2.14,5.82,1.63,9.19c2.86-2.96,2.45-7.86-0.51-12.66
		c7.64-27.33,10.2-27.1,9.6-32.16c10.41-8.68,16.23-20.11,20.42-32.67c25.26,1.13,40.29,8.84,45.02,4.8
		c24.99-21.36,7.86-11.04,25.52-21.95c-0.25,2.01-7.77,9.67-8.27,22.66c-0.5,13.01-2.68,8.89-15.72,39.81
		c-0.91,2.15-1.34,4.53-4.29,5.21c-0.82,0.19-0.51,1.53-1.02,2.14c-3.16-0.82-4.29,2.04-6.43,3.16c0.31,1.63,1.01,2.95,0.1,4.39
		c-4,6.31,0.41,11.88-1.94,14.29c-3.83,3.93-3.78,9.29-5.51,13.68c1.5,4.5,14.07,7.13,18.99,6.33c6.03-0.98,12.02-2.02,16.95,2.96
		c0.21,0.21,12.56,6.4,25.32,4.08c23.86-4.34,21.74-3.88,21.44-10.21c-0.37-7.72-2.83-8.4-9.19-10.52
		c-12.94-3.32-15.82-11.62-25.62-15.11c-6.96-2.48-4.98-10.84-8.47-13.07c14.59-33.91,51.09-44.11,58.39-100.05
		C688.49,414,675.9,412.34,672.04,409.57z M621.91,273.49c0.71,0.71,0.71,1.53,0.61,2.55C621.2,275.43,620.99,274.72,621.91,273.49z
		 M609.87,345.67c-2.76,1.33-5.72,1.63-9.09,2.65C612.11,325.28,609.87,326.69,609.87,345.67z M601.29,221.63
		c0.82-0.61,1.53-1.12,3.06-0.51C603.13,222.14,602.31,221.84,601.29,221.63z M608.85,194.99c0,0.84-1.61,4.33-2.25,0.51
		C607.21,194.88,607.93,194.68,608.85,194.99z M602.11,189.17c0.31,1.12,0.31,1.12-0.82,2.45
		C601.39,190.29,601.5,189.68,602.11,189.17z M592.72,201.11c0.1,0,0.1,0.2,0.1,0.2C590.59,202.43,589.49,198.42,592.72,201.11z
		 M588.53,191.72c-0.61,1.53-1.84,1.94-2.96,3.16C585.57,192.33,586.49,191.62,588.53,191.72z M574.54,207.75
		c0.92,1.63-0.2,1.94-0.61,2.76C573.42,209.38,573.52,208.67,574.54,207.75z M572.91,192.74c-0.61,1.53-1.23,1.94-2.14,1.74
		C570.97,193.25,571.79,193.15,572.91,192.74z M573.83,199.07c-0.51,1.94-1.94,2.96-3.37,3.78
		C570.67,200.81,572.4,200.09,573.83,199.07z M569.64,210.81c-0.1,0.71-0.41,0.82-0.71,0.92
		C568.62,211.12,569.03,211.01,569.64,210.81z M568.73,213.67c1.26,0.54-0.09,2.11-0.92,1.84
		C567.19,214.49,568.01,214.08,568.73,213.67z M566.58,213.26c-0.31,0.82-0.82,1.02-1.43,1.33
		C564.64,212.95,565.66,213.26,566.58,213.26z M558.62,231.84c0.2,0.31,0.51,0.41,0.92,0.71
		C558.69,232.92,558.15,232.79,558.62,231.84z M559.23,228.78c-1.12-1.53-2.86-2.76-0.92-4.7c1.23-0.1,1.53,0.71,2.14,1.33
		C560.05,226.53,559.64,227.55,559.23,228.78z M563.93,224.9c-1.33-0.82-2.65-1.74-2.65-3.57
		C564.03,221.33,564.13,221.53,563.93,224.9z M562.19,212.24c-0.2,1.12-0.41,2.25-0.71,3.88
		C560.56,214.28,560.56,213.06,562.19,212.24z M542.8,272.88c3.27,2.14,6.43,4.39,9.09,7.96c-4.9-0.82-8.37-3.57-12.25-5.41
		C540.24,274,541.67,273.8,542.8,272.88z M506.86,340.05c-0.61-7.35,2.45-15.31,2.96-23.99c1.02,1.33,0.92,2.65,1.23,3.78
		c2.62,13.98,7.53,11.3,9.7,31.44c-4.8,1.94-7.04-2.76-10.41-3.47C509.31,345.26,509,342.81,506.86,340.05z M510.94,410.7
		c-4.58,1.96-3.4,1.85-8.78-0.51C503.8,408.25,506.96,408.45,510.94,410.7z M509.62,451.43c1.63-1.02,0.61-2.25,1.23-3.57
		c1.23,4.9,1.94,9.8,5.31,13.48c-1.63,3.98-2.96,7.96-3.68,12.15c-8.2,0-27.24-8.73-26.64-17.87c0.47-7.23-10.73-9.27-6.53-24.09
		c0.71,0.2,0.2,1.12,1.23,1.53c-0.2-2.14,0.71-3.98,0.82-6.02c0.78-15.27,12.45-18.17,12.45-25.62c0.61,0.41,0.61,2.76,0,7.25
		c1.74,0.41,2.25-1.74,3.98-1.53c5.82,5.82-3.96,0.22-9.8,6.23c5.41,0.51,10.31-1.12,15.11,0.51c-2.94,2.52-11.58,0.1-16.23,3.27
		c7.25,1.12,14.6,0.1,21.74,0.71c0-2.86-3.68-1.8-1.33-3.37c5.82-2.55,11.84-4.39,18.58-2.35
		C514.01,422.54,506.96,434.89,509.62,451.43z M510.03,549.84c-1.02,0.68-2.56,0.49-3.34,1.01c-1.56,0.9,0.33-2.6-0.64-5.3
		c-0.52-1.43,0.82-2.35,1.74-3.27C511.56,543.92,511.86,545.04,510.03,549.84z M600.68,403.76c0.47-0.19,0.02,0.11,4.29,2.25
		c-9.19,7.76-18.89,14.7-26.44,23.89C570.66,427.64,585.13,423.75,600.68,403.76z M567.19,417.84c9.95-2.96,10.5-3.67,10.65-3.51
		c2.03-2.34,3.86-4.87,7.01-6.09c-0.98,1.23-5.54,6.83-6.97,6.15c0.02,0.05,0.06,0.11,0.13,0.18c-1.84,2.35-4.08,4.39-6.53,6.43
		C570.15,420.09,568.93,419.07,567.19,417.84z M572.3,422.23c0.82-1.63,2.35-2.24,3.57-3.16c3.89-2.94,7.91-5.68,10.82-9.6
		c1.35-1.82,3.37-1.33,4.9-2.25c1.94-1.02,3.57-2.55,5.92-3.06C567.83,432.61,579.58,426.78,572.3,422.23z M572.2,443.67
		c7.78-5.72,4.36-9.92,7.86-13.78c6.47-7.15,22.06-18.41,24.09-20.83c3.78-4.49,8.78-6.34,14.09-8.17
		c3.57-1.23,7.35,0.41,10.92-1.02c0.2,0.41,0.31,0.61,0.41,0.92c-2.14,2.14-4.08,4.29-6.33,6.23
		c-14.19,12.25-14.2,22.01-18.78,26.75c-3.11,3.22-4.8,7.25-6.53,11.54c-5.31,0.51-10.62,0.2-16.54,1.23
		c8.87-10.33,23.74-18.73,21.64-20.83c-9.07,7.16-13.84,9.7-20.62,17.56c-3.77,4.37-5.85,2.88-10.72,3.37
		C571.07,445.51,571.08,444.49,572.2,443.67z M561.27,470.01c-0.31-10.19,6.71-7.74,10.21-21.74c8.78,1.33,17.15-0.82,25.93-1.23
		c-2.04,6.23-0.71,12.25,0.1,18.17c-1.53,1.74-3.98,1.12-5.92,2.55c2.25,0.71,3.78-0.51,5.82-0.61c0.82,3.27,1.84,6.64,4.9,8.98
		C588.43,475.11,575.36,470.01,561.27,470.01z M600.78,468.38c5,0.1,9.8-0.92,15.11-2.55C610.9,474.14,603.69,477.75,600.78,468.38z
		 M605.38,527.89c0.82-0.51-0.1-1.12,0.92-1.63c3.06,0,6.23,1.94,9.9,1.74c0.51,3.57-0.71,6.23-1.53,8.88
		C608.84,538.6,600.56,530.89,605.38,527.89z M629.98,535.86c-2.35,1.33-5.72,1.23-6.02,5.21c3.16-0.92,5.82-2.35,9.09-2.14
		c-1.43,1.84-4.39,0.92-5.1,3.78c2.04,0.31,3.78-0.2,5.72-0.2c0.2,1.12-1.43,1.23-1.23,2.55c1.63,1.43,3.68,0.1,5.51,0.1
		c1.74,0.1,3.27-2.45,5.61-0.41c-2.14,1.12-4.7,0.92-6.23,3.16c2.96,2.25,5.61-1.12,8.88-0.61c-1.02,1.33-2.45,1.43-2.96,2.65
		c1.94,2.25,4.8-1.84,6.74,0.82c0.31,1.33-1.63,0.92-1.63,2.25c1.43,1.02,5-4.29,4.8,1.43c4.19-0.71,11.23,1.53,14.6,4.59
		c-0.61,2.86,0.31,6.02-0.61,9.29c-8.58,1.33-17.15,3.48-25.83,3.16c-16.11-0.59-16.72-11.33-28.07-8.06
		c-8.58,2.47-20.56-1.16-21.44-3.37c1.33-3.47,1.56-7.63,4.59-10.82c1.54-1.62,2.15-3.78,1.43-6.02c-1.51-4.7,1.48-8.88,1.43-13.48
		c-0.01-0.82,1.12-1.43,2.35-1.53c0.51,1.84,0.9,3.68,1.43,5.51c1.29,4.5,8.16,7.85,12.45,6.23c3.1-1.17,2.26-6.44,4.29-11.23
		C631.82,529.64,625.53,523.51,629.98,535.86z M684.49,424.79c-2.05,8.33-3.15,25.84-15.01,39.81c-6.17,7.27-9.45,15.32-15.62,21.23
		c-9.2,8.82-13.18,17.35-14.8,18.78c-6.45,5.69-10.31,12.97-13.27,20.72c-6.33,2.14-12.05,0.51-17.66-2.04
		c5.82-11.23,9.79-23.18,15.82-34.2c1.73-3.17,1.71-7.04,1.84-10.62c0.54-15.45,10-21.75,15.42-28.28c3.69-4.44,7.18-1.8,11.43-7.66
		c-8.88,4.59-18.69,7.34-26.85,13.58c-5.72,4.38-12.05,8.56-20.01,7.86c-2.51-0.22-1.52,1.75-6.02,1.94
		c-0.71-9.29-0.4-18.47,4.7-26.54c3.99-6.32,7.28-13.15,11.94-19.19c11.68-15.13,13.44-13.99,14.5-16.03
		c2.08-4.01,2.35-3.75,6.64-3.37c10,0.88,18.89,5.82,28.48,8.06C671.61,413.5,686.65,416.02,684.49,424.79z"/>
	<path d="M577.89,414.4c-0.01-0.03-0.03-0.05-0.04-0.06c-0.01,0.01-0.02,0.03-0.03,0.04C577.83,414.39,577.86,414.39,577.89,414.4z"
		/>
	<path d="M589.35,371.8c-0.04,0-0.07-0.01-0.1,0C589.25,372.21,589.35,372.21,589.35,371.8z"/>
	<path d="M243.88,226.94l0.1-0.1C243.92,226.84,243.92,226.78,243.88,226.94z"/>
	<path d="M237.04,247.36l0.1,0.1C237.11,247.3,237.11,247.36,237.04,247.36z"/>
	<path d="M382.21,563.42c-20.99-6.63-24.09-16.23-39.51-26.34c0.2-1.74,0.21-3.37,0.51-5c1.55-8.5-5.7-6.36-7.15-6.84
		c-1.88-12.22,9.35-89.85-0.1-98.11c-0.6-0.52-0.7-1.73-0.31-2.45c1.81-3.33,1.22-7.15,1.94-10.62c3.62-17.35-1.32-13.45,0.31-20.21
		c0.59-2.46,0.61-5,0.61-7.45c2.86-1.94,6.53-2.35,8.78-5.31c-5.79-13.23-12-102.47-19.4-125.77c-2.4-7.57,2.01-11.68-2.65-15.21
		c1.43-12.56-1.91-25.01-0.1-37.47c0.52-3.55-2.67-5.78-2.65-3.68c0.05,6.94-2.35,13.68-0.92,20.83
		c2.71,13.53-1.82,19.21,2.35,23.38c-8.98,3.49-2.58,2.46-10.41,4.9c-13.83,4.32-57.32-2.21-72.07-10.62
		c-0.71-4.08,1.74-7.76,1.23-11.94c0.69,0.4,0.53,1.26,1.26,1.32c0.6-2.07-1.56-3.19-1.77-4.79c-0.8-6.13-0.92-12.15,0.51-18.89
		c4.29,9.29,11.43,13.17,20.83,14.09c8.17-11.13,20.62-18.07,29.2-28.58c1.94,0.61,0.61,2.45,1.94,3.27
		c2.35,1.02,5.33,1.51,7.35,3.27c2.89,2.52,6.13,2.97,9.39,2.45c11.25-1.8,20.75-1.11,21.03-3.06c-0.86-0.86-17.82,0.72-19.09,0.92
		c-8.51,1.36-5.27-0.02-18.48-5.31c1.33-1.74-0.92-2.14-1.23-3.16c5.1-6.13,8.98-12.66,11.23-20.01c4.49-0.41,8.55-2.56,13.07-1.33
		c2.44,0.66,4.8-0.5,7.15-0.61c9.38-0.46,14.94,7.15,16.33,2.96c-6.94-5.72-15.93-3.57-24.19-5.92c0-22.51-1.4-17.22,6.02-28.48
		c0.1,9.49,0.2,18.89,1.43,28.69c3.71-2.47-0.67-22.71,1.33-36.04c3.21,2.29,6.95,30.77,7.45,34.61c0.11,0.82,0.1,1.84,1.74,1.53
		c-0.61-13.07-2.65-25.93-8.17-38.08c3.27-0.92,6.94-0.31,10.21-1.63c0.51,0.71,0.1,1.84,1.43,1.63c-0.27-5.09,9.59-7.69,7.45-15.11
		c-3.68-0.69-0.8-4.86-3.41-6.72c0.37-0.37-1.71-3.71-2.1-4.61c-3.06,0.31-5.92,0.31-8.78,1.63c1.76,27.7,0.71,17.1-1.02,20.21
		c2.25,1.63,4.9-0.41,7.25,0.61c-0.65,1.95-3.84,0.75-10,2.14c-2.75,0.62-4.49-0.51-6.23-2.86c2.55-0.1,4.9,0.71,7.04-1.02
		c-2.55,0-5.21,0-7.45,0c-2.71-3.91-2.26-14.02,0.56-19.41c2.04,0.67,3.99,0.42,5.77-0.6c-2-0.82-3.84-0.34-5.66,0.2
		c1.78-6.13-0.4-2.91,15.15-3.27c-0.75-2.24-5.27-1.19-7.04-1.94c-0.92-1.02-1.12-1.94-0.31-2.96c1.82-0.82,3.15,1.19,4.8,1.06
		c0.07,0.52-0.27,1.49,1.33,1.39c5.3-1.06,17.5,19.11,9.39,30.52c-2.55,3.59-1.6,23.64,16.03,43.69c6.32,7.19,8.45,12.22,2.76,30.01
		c-1.21,3.78-4.9,6.43-6.74,9.8c-4.7,0-8.37-1.74-11.94-3.88c0.61-2.45,2.45-4.7,2.25-7.76c-2.04,2.35-1.84,5.51-4.19,7.55
		c-3.68-2.35-3.16-7.04-6.13-9.49c11.01-8.47,3.13-9.35,5-21.54c0-0.61-0.31-0.92-1.02-0.92c-2.14,5.51,0.82,11.33-0.2,16.64
		c-14.8,3.06-29.2,3.57-43.69,1.74c13.78,2.45,27.56,3.27,42.06-0.51c-10.74,11.23-3.04,1.64-1.74,8.98
		c1.39,7.83,9.84,8.71,17.46,11.03c1.64,0.5,2.96,0,3.68-1.43c1.02-2.04,2.84-3.59,4.19-5.41c6.81-9.25,1.82-7.61,4.39-12.86
		c4.1-8.38-0.5-19.58-2.76-21.34c-5.81-4.54-17.22-21.18-18.68-36.04c-0.79-8.05,3.97-8.87,3.47-13.58
		c-0.91-8.58-1.37-17.22-8.47-23.79c-1.45-1.34-3.79-3.33-6.09-2.87c1.03-0.26-7.77-5.99-12.69,1.14c0-0.37-0.31,1.48-1.12,3.37
		c-9.97,23.09,4.38,25.47,0.1,35.12c-6,13.53-9.63,13.78-18.78,36.96c-4.6,11.65-16.66,27.07-23.28,30.93
		c-3.48,2.04-12.02,11.32-15.93,15.52c-4.67-1.19-9.22-1.24-12.1-5.07c2.82,1.12,9.07,5.39,9.85-0.85
		c-1.74,0.61-2.55,2.14-3.98,2.55c-8.72-4.53-7.6-4.64-7.47-2.91c-1.6-0.7-2.89-2.19-3.14-3.62c-0.84-4.69-4.1-8.16-6.53-11.74
		c-4.92-7.23-7.44-15.52-10.92-23.38c-2.44-5.52-1.94-11.94-4.29-17.56c-0.51-1.22,0.92-1.23,0.92-2.55
		c-9.92-7.54-11.87-41.09,3.37-47.16c1.23-0.49,2.65-0.92,3.06-2.86c-3.06-0.2-5.32,1.7-7.86,2.65c-5.5,2.06-7.69,12.47-8.37,18.27
		c-2.19,18.57,3.85,25.12,8.78,38.9c0.84,2.34,0.74,4.79,1.23,7.15c0.98,4.79,3.78,8.98,5,13.48c2.16,7.96,7.45,13.99,10.72,21.74
		c-1.94,7.66-1.92,15.92-0.92,24.3c1.2,10.01-6.69,11.84-3.5,21.33c2.63-0.07,0.26-3.57,2.58-3.77c0.41,0.82-0.2,1.94,0.82,2.96
		c6.33,3.06,12.86,6.84,20.42,7.76c-4.8-2.04-9.6-4.19-14.09-6.64c0-1.74-0.41-3.16,0-4.7c3.06,0.41,1.12,4.29,3.57,5
		c0.82-0.92-0.82-2.55,0.71-3.47c0.92,1.43-0.2,3.37,1.63,4.19c0.82-0.82-0.31-2.55,1.43-3.06c0.71,1.74-0.51,3.98,1.53,5.21
		c1.02-1.43-0.41-3.27,1.02-4.39c1.53,0.61,0.53,1.73,0.92,2.55c0.43,0.91,0.51,2.04,1.74,2.35c0.61-1.43-0.61-2.76,0.1-4.08
		c4.69,0,0.42,2.97,4.49,5.61c0.31-1.84-1.02-3.47,0.51-4.8c16.44,1.74,32.57,6.23,49.41,2.76c0.51,1.02,0.2,2.35,1.23,2.86
		c0.82-1.12-0.61-3.27,1.74-3.78c1.02,0.51-0.31,1.74,0.61,2.14c1.37-0.79,2.75-1.56,4.11-2.26c-0.52,0.6,0.44,1.35-0.13,1.85
		c-12.03,10.44-32.63,1.73-34.91,5.61c28.08,4.46,37.89-4.86,37.98,16.54c0.03,6.56,0.84,40.78,3.78,46.65
		c0-6.86-1.38-12.59-2.14-41.35c0-0.1-0.29-22.63-2.96-23.58c-1.4,0.9,1.78,6.97-3.47-0.61c5.07-2.25,5.95-4.93,7.15,3.47
		c0.8,5.62,7.91,51.34,8.17,56.25c2.02,38.55,4.21,45.54,10.21,65.54c-21.94,11.61-36,5.63-54.72,6.02c0.2,3.06,3.06,1.33,4.19,2.76
		c1.43,5.51,3.92,10.81,3.27,16.84c-0.63,5.83,1.9,9.6,5.21,15.11c-0.61,7.25-2,13.97-3.88,20.62c-3.08,10.9,1.11,22.05,1.84,26.03
		c1.97,10.84,7.51,8.31,9.49,18.99c1.96,10.56,0.15,19.13,2.86,27.36c3.71,11.25-0.64,38.59-5,47.37c-1.36,2.74-0.4,6.32,2.04,7.25
		c16.95,6.45,20.85,0.73,32.67,6.64c11.94,5.97,30.19,8.56,42.77,0c0.2-1.53-0.31-2.96,0.1-4.39
		C387.1,567.3,385.69,564.52,382.21,563.42z M333.21,118.22c0-5.92,0-12.05,0-18.27c1.94,0,3.88,0,6.13,0
		c0.9,0.3,0.74,2.44,2.44,2.63c0-0.03,0-0.05,0.01-0.08c0.17,0.17,0.1,0.08-0.01,0.08c-0.61,3.37,2.02,7.37,1.63,10.94
		C341.07,117.09,338.42,119.95,333.21,118.22z M326.47,90.55c1.02,1.23,0.71,1.84,0.82,2.65C325.35,92.8,326.06,91.98,326.47,90.55z
		 M314.73,163.03c-2.76,1.33-5.72,1.74-9.19,2.55C316.77,143.13,314.73,143.34,314.73,163.03z M239.09,240.21
		c-0.41-0.51-0.51-1.02,0.1-1.43C240.31,239.29,240.21,239.8,239.09,240.21z M242.66,242.36c-1.84,0.1-0.41,2.04-1.94,2.35
		c-0.2-1.63,0-3.06,0.71-4.49c3.22,0.29,2.85,2.66,3.06,6.23C242.35,245.52,243.58,243.58,242.66,242.36z M321.54,249.19
		c-0.15-0.51-0.09-0.99,0.13-1.52C321.45,248.2,321.45,248.67,321.54,249.19z M321.54,247.17c-0.22,0.15-0.28,2.33-0.28,2.53
		c-1.14-1.14-1.38-1.6,0.18-2.48c0.12-0.62,0.36-0.9,1.14-0.99c0.31,1.33,0.61,2.76,1.02,4.7
		C321.81,249.83,323.15,247.53,321.54,247.17z M313.1,485.94c-1.12-8.23-8.19-4.88-12.25-31.14c-1.95-12.61,4.98-20.64,3.78-31.65
		c0.71-1.12,1.43,0.51,2.04-0.41c-0.82-2.35-2.03-4.4-3.47-6.33c-6.45-8.68,0.19-15.94-6.64-27.77c1.74-0.82,3.16,0.1,4.29,0.2
		c1.43,1.33,0.92,2.96,1.63,4.59c1.43-1.43,0.1-3.06,1.23-4.49c10.62,0.71,21.34-1.23,32.16-1.63c0.77,2-1.23,6.45-0.1,10
		c1.94,6.11-1.12,23.61-2.25,26.34c-0.94,2.26,1.35,5.27,0.29,5.37c-1.01-1.14-1.18-3.06-3.04-4.14c0.41,2.45,1.12,4.19,2.76,5.92
		c0.03-0.12,0.43-1.63,0.34-1.72c0.02-0.01,0.05-0.01,0.07-0.01c0,0.01,0,0.02-0.02,0.07c0.01,0.01,0.02,0.02,0.02,0.02
		c0-0.06,0-0.08,0-0.09c1.13,0.09,2.65,14.52,2.75,16.52c1.32,26.8-3.74,62.61-3.06,81.16c-2.25,1.43-6.33-1.43-7.35,3.06
		c-2.96,0.82-5.82,0.1-8.78-0.41c0.1-6.94-0.35-13.87-1.84-20.52C313.97,501.36,314.14,493.6,313.1,485.94z M328.11,537.49
		c-2.04,1.74-3.88,3.98-6.64,2.96c-3.57-1.33-3.47-5.1-5-8.58c3.98,0.51,7.15,0.92,10.41,0.1
		C327.49,533.92,327.08,535.75,328.11,537.49z M373.64,577.81c-0.32,0.5-1.84,0.61-2.76,0.41c-6.53-1.44-13.27-0.22-19.8-1.94
		c-4.69-1.24-8.78-3.98-13.37-5.51c-10.98-3.66-3.23,0.63-24.81-4.39c-5.67-1.32,0.18-4.83,3.47-24.3c0.1-0.31,0.2-0.61,0.41-1.12
		c2.96,2.25,5.93,3.49,9.39,1.12c4-2.73,4.9-5.61,3.78-12.35c3.06-0.71,6.13-0.51,9.39-0.82c1.63,2.86,0.31,6.13,1.12,9.29
		c-2.55,1.23-5.51,1.94-7.15,5.1c13.1-2.56,11.42-2.4,12.15-1.43c-2.25,1.12-5,1.53-6.84,4.08c3.88,1.63,7.66-2.04,11.74,0.1
		c-2.04,1.84-4.9,1.43-6.02,3.98c5.26,2.98,8.01-4.06,10.62,0.71c-1.74,1.02-4.08,1.02-4.9,3.47c2.96,1.84,5.82-0.71,8.98-0.41
		c-0.82,2.04-3.27,1.53-3.88,3.37c2.45,1.33,4.8,1.23,6.94-0.82c1.12,0.71,2.45,0.92,2.96,2.45c-0.09,0.14,10.87,5.04,18.07,7.66
		c-0.92,2.65,0.71,4.9,0.61,7.35C381.35,576.22,375.79,574.42,373.64,577.81z"/>
	<path d="M262.67,135.57c0.3,1.63,0,2.96-1.23,4.49c-1.94-2.76-0.92-6.13-2.55-8.88c-2.04,4.29-1.42,9.28,2.14,12.25
		c5.01,4.17,5.31,9.9,6.64,15.82c-6.74,3.68-13.48,6.94-19.7,11.64c0.31-2.25,2.04-3.16,2.76-5.1c-3.37,2.55-7.76,9.9-7.86,13.78
		c3.37-7.04,9.18-10.13,15.31-12.97c24.23-11.2,16.4-5.39,42.26-33.69c1.63,0.71,3.47,1.12,5.51,0.41
		c-1.53-1.63-3.57-1.12-5.41-1.74c-1.53-5.41-6.13-8.98-8.98-13.68c0.1,2.45,1.53,4.39,2.45,6.43c-15.11,0.31-22.36-9.6-28.89-21.34
		c3.37,0,6.43,0,9.49,0c-3.57-1.43-7.15-1.84-10.82-1.23c-4.08-5-8.78-9.39-14.39-12.86c17.53-13.7,13.21-14.1,17.56-15.52
		c2.04-7.96,1.23-16.23,1.84-24.6c-0.92,0-2.35-0.31-2.25-2.35c0.71-0.2,1.63,0.1,2.25-0.71c0.76-1.99,0.03-9.05,2.86,0
		c3.16-7.04,6.13-14.09,10.52-20.62c2.35,0.71,3.27-1.63,5.41-2.65c-1.12-1.02-1.33-2.14-1.94-3.27c-1.02-0.41-2.45,0.31-3.16-0.92
		c2.14-1.63,4.49-0.51,6.64,3.06c1.12-0.2,0.2-1.23,0.51-1.53c6.33-2.65,12.56,1.53,18.78-1.12c0,5,1.23,9.39,2.45,13.68
		c-8.47,4.08-8.88,4.59-7.86,10.21c0.92-0.92,0.31-2.45,1.43-3.16c2.14,0.82,3.98-0.2,6.13-0.92c0.2-2.86,2.52-5.6,1.43-8.37
		c-1.57-3.97-1.02-8.17-2.04-11.84c1.74-3.06,5-3.68,7.25-5.92c0-1.23,0-2.45,0-3.57c-1.53-0.82-2.96,0.2-4.39-0.31
		c0.61-1.53,3.16-1.02,3.06-3.16c-2.35-0.71-2.35-0.71-5.1,0.82c-0.61-1.94,0.71-4.19-0.82-6.13c-1.63,1.02-2.35,2.76-3.98,3.27
		c-1.44-4.33-5.6,0.76-9.6,0.1c-4.41-0.72-8.68,0-12.66-0.31c-1.43,0.71-1.53,2.65-3.27,2.55c-0.82-0.41,0.31-1.94-1.33-2.35
		c-2.25,2.55-5,4.39-8.78,4.59c-1.63-0.92-2.86-3.37-5.51-2.14c-0.31,1.53,1.53,2.04,1.84,3.27c-2.04,1.02-1.33,3.57-2.65,5
		c1.53,0.41,3.57-1.02,4.8,1.33c0.41,0.92,1.74-0.71,2.55,0.1c0.31,0.71-0.1,1.12-0.82,1.84c-1.94-1.43-4.08-1.23-6.13,0.82
		c-0.31-1.43,1.02-1.84,1.02-2.04c0.13-2.17-2.45-1.97-2.65-2.04c0,4.29-2.34,7.86-3.57,11.84c-3.82,12.27,3.58,13.32,1.02,18.78
		c-0.19,0.41,0.31,1.12,0.61,1.63c2.53,4.33,2.03,9.87,3.06,11.74c2.95,5.36,1.02,10.1-1.84,14.6
		c-10.83,17.07-26.6,15.99-30.01,26.24c3.16-1.84,6.02-3.47,9.09-5.31C259.28,101.24,258.23,111.27,262.67,135.57z M307.08,36.85
		c0.61-0.31,1.33-0.61,2.35-0.2C308.4,37.87,307.79,36.85,307.08,36.85z M314.53,10.41c-0.31,1.23-0.82,2.04-1.63,2.65
		c-1.02-0.61-0.51-1.43-0.82-1.94C312.79,10.11,313.61,10.52,314.53,10.41z M307.69,4.29c1.12,1.74,0.1,2.14-0.82,2.76
		C306.57,5.92,306.97,5.31,307.69,4.29z M298.91,17.05c-1.53,0.82-2.14-0.71-3.16-1.12C296.87,15.93,297.99,16.13,298.91,17.05z
		 M295.13,13.07c0.1,0.92-0.31,1.02-0.71,1.23C293.7,13.48,294.31,13.37,295.13,13.07z M293.91,7.55c-0.71,1.33-1.63,1.84-2.45,2.45
		C291.46,7.96,291.46,7.96,293.91,7.55z M279.82,23.58c1.74,1.43-0.31,1.74-0.71,2.55C278.8,25.11,278.9,24.19,279.82,23.58z
		 M278.29,8.47c-0.31,1.07-1.36,2.52-2.35,1.53C276.35,9.09,277.16,8.58,278.29,8.47z M279.1,14.7c-0.31,1.94-1.84,2.86-3.47,4.39
		C275.73,16.33,277.98,15.93,279.1,14.7z M274.71,28.89c0.2,1.74-0.61,2.14-1.53,2.55C272.47,30.01,273.49,29.71,274.71,28.89z
		 M271.86,28.89c-0.1,1.23-1.02,1.02-2.04,1.63C270.32,29.2,270.53,28.28,271.86,28.89z M269.92,40.63
		c-2.04-0.82-2.86-2.04-3.47-4.19C269.51,36.65,269.51,38.59,269.92,40.63z M267.36,26.95c0.51,2.14-0.61,3.06-0.61,4.29
		C266.34,30.01,265.93,28.79,267.36,26.95z M264.91,44c-2.35-2.35-2.35-2.35-0.82-4.39c0.92,0.1,1.33,0.92,1.94,1.53
		C266.34,42.37,264.2,42.57,264.91,44z M265.73,109.03c6.9,11.62,17.01,20.27,29.61,17.56c1.74,1.33,2.25,3.47,3.16,5.51
		c-12.89,12.63-17.33,24.12-28.48,26.03c-0.51-0.51-0.41-1.33-0.41-2.55c2.25,0.1,4.08-0.61,6.33-0.92
		c-1.94-1.74-4.19-1.63-6.33-2.65c-0.88-9.39-5.19-6.02-4.7-12.56c0.76-10.03-1.91-32.37-9.29-39.2
		C261.44,101.27,263.53,105.33,265.73,109.03z M247.35,90.35c2.21,1.14,23.12,16.7-3.37,2.25
		C245.31,91.67,246.23,91.06,247.35,90.35z"/>
	<path d="M293.7,371.19c2.22-5.04-0.39-3.95,2.04-13.68c0.83,0.95,15.67,24.5,5.1,5.72c-5.91-10.5-5.44-3.26-2.86-17.66
		c0.6-3.37,2.45-6.33,3.98-9.29c1.43-2.76,1.23-6.23,3.47-8.88c-1.02-4.8,2.35-8.98,3.37-13.68c-5.36,5.69-5.27,15.58-8.68,21.95
		c-4.85,9.06-5.61,19.19-7.25,28.99c-2.61,15.65-6.03,18.12-7.15,26.54c-8.86,3.8-52.38-6.52-54.41-3.68
		c0.51,1.23,1.84,0.71,2.45,1.53c1.12-0.31,2.25-0.41,2.96-0.1c-4.53,41.91-4.62,12.19-15.42,60.33c-3.22,14.38,0.78,17.88,0,31.44
		c-1.51,26.23,2.23,35.46,1.02,66.15c-0.82,1.02-2.04,0.92-2.35,2.35c1.23,1.23,0.92,3.06,1.12,4.19c-0.71,2.25-2.86,1.43-3.68,2.76
		c-1.94,10.21,0.31,21.03-4.39,30.93c4.59,1.53,7.45,6.53,12.86,5c10.81,8.65,26.61,8.63,40.43,7.15c1.84-0.2,3.37-0.82,3.37-3.98
		c-4.67,3.15-32.67,4-41.04-4.59c-0.71-0.72-1.64-1.14-2.65-0.92c-4.09,0.87-6.74-1.74-9.9-3.47c3.57-8.88,3.16-18.17,3.06-27.16
		c8.98-5.21,8.98-5.21,13.48-5.21c2.14-3.16-0.51-6.84,0.92-10.11c17.21-2.23,9.88,2.92,13.07,5.72c0.51-2.14,0.71-4.39,0.31-6.64
		c-2.35-1.43-4.8-1.82-7.35-1.84c-7.35-0.05-7.96,0.31-10.31,6.94c-1.43-0.2-2.96,0.2-4.8-0.61c2.59-8.54-2.05-32.58-0.1-53.8
		c0.53-5.83-1.56-1.93-1.12-6.84c1.25-13.91-4.93-37.83,9.8-65.85c8.08-15.37,3.6-23.21,6.33-31.65c13.27,2.45,26.34,5,39.92,4.7
		c-0.48,8.11-5.69,13.05-7.35,18.68c-2.77,9.39-5.16,18.96-9.19,27.97c-3,6.72-3.54,13.96-5.61,20.93
		c-0.21,0.71-0.82,1.84,0.82,2.25c0.82-2.35,0.82-5,2.25-7.15c0,7.55-2.45,14.29-7.04,21.13c0.41,1.23,0.04,3.07-0.1,5
		c-0.16,2.15-1.76,3.77-2.25,5.72c-5.61,22.24-6.16,9.95-6.94,49.82c-0.07,3.71,3.36,2.89,2.25-5.61
		c-1.74-13.25,4.62-42.06,12.66-57.17c4.46-8.39,6.13-17.25,3.88-26.75c2.04-1.23,3.28-3.57,3.37-5.31
		c0.15-3.15,7.11-26.48,7.96-30.42c0.68-3.16,6.7-5.01,7.55-18.07c1.94-0.71,3.98-0.51,5.72-1.63c0-0.92-0.3-1.83,0-2.55
		C289.89,384.49,290.92,377.51,293.7,371.19z M230.2,551.48c-1.74,1.43-3.78,1.63-6.02,1.23
		C225.71,550.05,228.06,551.17,230.2,551.48z"/>
	<path d="M233.47,388.95c0,0.09-0.04,0.06,0.09,0.1L233.47,388.95z"/>
	<path d="M234.9,247.56c-2.45,6.23-7.04,11.43-7.96,18.48c-1.12,8.58-3.15,17.05-3.68,25.93c-2.48,42.27-3.43,29.48-4.29,39.61
		c-2.29,27.01-2.36,40.08-6.13,53.49c6.43,3.68,13.88,2.65,20.42,5.41c0.09-0.76,0.18-1.15,0.2-1.46
		c-5.98-1.44-11.46-4.06-17.76-4.77c2.76-10.72,3.06-21.54,4.29-32.97c1.99,5.42,1.25,11.01,3.96,12.85
		c-0.8-4.97-0.71-10.14-3.35-15.51c1.63-8.17,1.12-17.46,4.59-26.75c1.43,4.07,2.66,16.01,3.97,15.08
		c-1.23,1.48-1.42,12.49-1.42,14.46c2.06-2.62-0.68-6.18,1.23-9.84c7.51-14.41,1.25-30.36,5.31-56.56
		c3.82-24.67,1.5-12.85,5.21-14.8c-4.67-10.38,8.89-18.47,4.08-20.32c-2.55,2.76-3.16,6.53-5.21,10.21
		c-0.92-3.57,0.82-7.25-2.55-9.09c0.2-1.53,0.41-2.65,0.61-3.88C236.02,247.15,235.41,247.05,234.9,247.56z M232.35,298.81
		c-1.73,12.21,1.18,30.51-2.96,38.79c0.14-4.37-1.42-9.91-1.84-14.4c-0.12-1.33-0.31-2.76-2.35-2.86
		c1.84-15.42,0.51-30.83,4.8-46.04C232.96,282.58,233.52,290.53,232.35,298.81z M233.88,280.54c-3.57-9.39-5.82-18.68,1.63-27.05
		C238.27,262.47,235.41,271.45,233.88,280.54z"/>
	<path d="M316.67,91.27c-6.23-1.23-12.15-4.08-18.68-6.02c1.74-2.86,1.94-5.82,1.74-8.68c1.53-1.43,4.19-0.92,4.7-2.86
		c1.24-4.79,4.37-8.99,4.8-13.99c1.06-12.25,4.42-11.14,0.61-19.29c0.41,4.49-1.61,8.68-1.84,13.07
		c-0.28,5.41-1.63,10.41-3.47,15.42c-2.28,6.19-2.55,5.51-15.42,5.51c2.65,2.86,5.61,1.53,7.96,2.35c0.41,1.63-1.04,2.45-1.23,3.78
		c-0.67,4.69,0.71,9.6-1.74,14.19c1.94-2.04,3.27-4.29,3.57-7.15c1.53,0.92,2.04,2.14,2.55,3.47c-3.47,1.94-5.63,5.2-8.06,8.17
		c-5.98,7.28,0.26,10.31-1.63,15.11c-0.4,1.02-0.51,1.84,1.02,2.25c2.72-6.61-0.34-11.94,0.31-13.78c0.74-2.13,5.92-8.27,8.37-9.6
		c-3.27,5.31-4.7,11.03-5.82,17.66c3.67-2.9,4.03-21.82,15.11-19.8c-6.23,6.33-8.47,12.05-7.96,20.72
		c3.42-6.34,1.11-18.78,14.29-19.4C316.26,92.29,316.77,92.29,316.67,91.27z M301.77,89.43c1.02,0,1.53,0.1,1.74,0.82
		C302.58,91.47,302.18,90.86,301.77,89.43z"/>
	<path d="M594.04,267.88c0.1-2.45,1.02-4.8,0.31-7.04c1.63-1.43,4.51-1.02,5.1-3.37c1.48-5.91,5.24-11.22,4.8-17.66
		c-0.39-5.64,4.43-4.64,0.31-15.11c0.31,4.39-1.52,8.47-1.74,12.66c-0.29,5.51-1.61,10.73-3.57,15.82
		c-2.22,5.75-2.85,5.97-12.97,5.41c-0.71,0-1.53-0.41-1.84,0.92c1.94,2.14,5,0.51,7.35,1.74c-0.2,2.25-1.96,3.88-1.63,6.02
		c1.82,11.79-3.23,8.02-0.1,10.51c0.92-2.55,2.76-4.8,2.96-7.76c1.53,0.82,1.84,2.04,2.55,3.16c-5.07,4.5-11.79,10.13-10.21,16.33
		c1.8,7.07-0.53,8.42,1.63,9.29c2.95-6.5-0.57-11.82,0.41-13.99c0.98-2.16,5.41-7.45,8.17-9.19c-3.16,5.61-4.7,11.23-5.31,17.15
		c3.2-2.13,3.8-21.75,15.11-19.09c-7.15,5.1-7.86,12.76-8.88,20.62c5.03-1.37-1.41-18.95,16.4-19.49
		C612.45,273.66,613.38,274.32,594.04,267.88z M597.41,273.19c-1.21-1.21,1.15-1.76,1.33-0.31
		C598.43,273.7,597.92,273.59,597.41,273.19z"/>
	<path d="M613.03,274.82c-0.2,0-0.13,0.01-0.1,0.1L613.03,274.82z"/>
	<path d="M275.33,583.94c-7.17-3-11.83-9.16-17.87-13.48c-3.08-2.2-5.24-17.87-8.88-18.68c-0.31,2.96,2.35,4.9,1.84,7.55
		c-5.21,1.43-11.13,0.61-15.11,5.92c8.65,1.44,18.92-6.02,16.95-0.1c-8.78,0.92-11.54,2.04-12.66,5.41c4.8,0.2,8.98-2.04,13.48-2.65
		c4.36,7.27-4.71,1.53-9.19,7.55c13.39,0.3,13.42-4.27,14.5-0.82c-4.39,0.92-4.39,0.92-6.13,2.55c1.53,0.2,3.16,0.51,4.59,0.71
		c0.71,2.45,2.35,2.45,3.88,1.74c1.23-1.02-0.31-1.74,0.51-2.86c4.49,3.78,9.09,7.45,14.39,10c0.2,1.74,0.51,3.27-0.31,4.9
		c-3.88,0.71-8.27,0.51-10.92,4.49c3.98-1.74,7.76-4.19,12.45-2.35C278.18,591.58,278.57,585.3,275.33,583.94z"/>
	<path d="M638.55,385.69c-3.68-2.45-3.16-7.04-6.13-9.6c10.43-8.53,3.58-7.95,5-21.44c0.1-0.51,0-1.02-1.02-0.92
		c-1.74,5.51,0.41,11.13,0,16.74c-34.14,4.55-23.7,1.92-44,1.63c13.78,2.55,27.67,3.27,42.16-0.41c-2.14,2.25-4.29,3.37-5.31,5.51
		c7.21,2.49,1.07,10.21,13.07,10.21c0.1-1.33-1.53-0.92-1.84-1.84c0.82-2.35,2.35-4.59,2.25-7.76
		C640.9,380.58,640.8,383.64,638.55,385.69z"/>
	<path d="M293.19,308.92c0.55-9.06,3.57-5.66,3.27-11.23c-1.68-31.33-0.7-35.44-3.16-32.97c0,38.79,2.41,36.23-0.82,40.43
		C289.79,309.18,289.8,364.45,293.19,308.92z"/>
	<path d="M267.26,249.5c-2.35,2.14-1.54,5.73,1.43,7.04c3.26,1.44,6.84,1.94,10.62,2.96c-8.27,18.96-8.82,19.8-0.82,8.68
		c7.19-9.98-3.54-9.59,15.93-6.74c-10.97-4.82-26.75-2.37-26.75-9.29C267.67,251.34,268.08,250.32,267.26,249.5z"/>
	<path d="M628.24,376.5c-6.33,0.71-12.36,0.39-18.27,1.33c-6.79,1.07-5.8,1.9-21.03-5.72c-0.22,3.81,5.76,2.8,8.47,5.51
		c2.86,2.86,6.33,2.84,9.7,2.35C625.26,377.34,626.71,379.41,628.24,376.5z"/>
	<path d="M310.14,310.55c1.23-7.76,3.28-15.32,2.14-23.38c-0.31-2.23-0.58-4.32-0.79-6.26c-0.3,7.3-1,17-2.37,29.33
		C309.53,310.35,309.83,310.45,310.14,310.55z"/>
	<path d="M311.49,280.92C312.51,256.36,309.06,259.03,311.49,280.92L311.49,280.92z"/>
	<path d="M303.6,308.81c2.45-5.82,3.57-35.32,1.33-40.12C304.01,282.37,304.83,295.44,303.6,308.81z"/>
	<path d="M309.42,113.42c1.84-2.14,2.04-4.7,1.94-7.15c-0.21-5.1,3.57-9.6,8.27-10.72c-1.84-3.07,1.19-1.12,2.14-2.86
		c-3.19-1.45-1.64-1.48-11.54,5.72C308.01,100.03,311.23,107.58,309.42,113.42z"/>
	<path d="M616.09,276.76l0.1-0.1C616.05,276.47,616.13,276.53,616.09,276.76z"/>
	<path d="M607.31,279.82C608,282.32,603.72,284.02,607.31,279.82c-0.82,0.51-1.94,0.71-2.55,2.04c-0.51,4.59,0.92,9.29-0.2,14.09
		c2.27-1.7,1.55-5.51,2.35-9.9c1.13-6.24,7.26-7.26,7.86-7.86c0.51-0.71-1.12-1.12-0.2-1.84c0.57-0.09,1.13-0.27,1.54,0.19
		c0.07-2.24-0.31-2.31-3.37-1.52C611.18,276.87,608.42,277.42,607.31,279.82z"/>
	<path d="M252.15,407.94c0.78,2.61-0.2,1.07,3.37,7.15c-4.59,4.08-1.53,9.09-1.43,13.88c1.12-2.96,1.94-5.92,0.41-8.88
		c3.16-3.88,3.57-7.66,0.31-11.03c0.2-2.35,2.25-4.19,0.2-6.64C254.3,404.67,254.19,406.92,252.15,407.94z"/>
	<path d="M592.51,220.92c-1.33-4.39-9.29-4.9-14.39-0.61c1.74,0.61,2.65-1.02,4.29-1.23c1.43,1.33,3.98,0.2,5.82,1.84
		C572.22,221.98,585.34,227.09,592.51,220.92z"/>
	<path d="M294.42,39.1c0.2-2.04,2.25-1.74,3.68-2.25c-2.04-4.7-10.21-5.1-14.7-0.61c1.84,0.2,2.76-1.33,4.49-1.43
		c1.33,1.23,3.78,0.31,5.82,1.84C277.43,38.75,289.72,39.86,294.42,39.1z"/>
	<path d="M549.23,374.25c-5.39,7.04-9.33-1.95-10.72-2.35c-2.35,2.35,3,6.08,7.15,7.66c1.63,0.62,5.41-1.63,5-2.55
		c-0.73-1.63-0.22-0.54,4.39-9.29C553.58,366.74,554.57,367.27,549.23,374.25z"/>
	<path d="M634.57,282.48c1.11,0.81,1.33,2.73,2.93,3.26c-0.2-1.82-1.62-3.11-2.22-4.79c-3.16-0.31-5.51,0.1-8.68,1.33
		c-0.31,3.78-0.08,7.55,0.41,11.33c0.32,2.45-1.02,5.31,1.02,7.55c1.43-4.59,0.36-9.19,0.31-13.88
		C628.28,281.64,626.49,282.48,634.57,282.48z"/>
	<path d="M243.37,189.27c-2.26,2.71,4.93,7.76,7.35,7.76c1.94,0.1,4.52-0.92,4.49-2.25c-0.05-2.85,4.49-7.44,4.19-10.62
		C248.83,198.46,250.23,195.77,243.37,189.27z"/>
	<path d="M266.85,188.25c0.96-4.48,9.74-7.6,14.29-18.58c0.3-0.72,0.82-1.43-0.41-2.55c-3.68,9.29-12.35,14.5-16.84,23.58
		C265.73,190.19,266.75,189.27,266.85,188.25z"/>
	<path d="M252.46,254.5c1.12,7.96,7.55,14.19,6.94,23.07C261.65,272.68,256.75,256.85,252.46,254.5z"/>
	<path d="M283.19,69.73c-2.86-2.96-6.64-5.1-10-7.25c-1.12-3.68-2.45-7.04-2.55-10.72c-3.16,3.37,0.31,6.74-0.31,10.31
		C284.11,71.61,282.2,71.21,283.19,69.73z"/>
	<path d="M535.34,285.54c-3.88,3.16-4.19,9.39-0.61,12.86C534.63,294.01,538.3,290.13,535.34,285.54z"/>
	<path d="M577.81,254.1c-2.96-3.06-6.53-5.21-10-7.25c-1.12-3.57-2.65-6.94-2.45-10.82c-3.27,3.37,0.2,6.74-0.51,10.41
		C578.71,256.25,577.06,255.23,577.81,254.1z"/>
	<path d="M250.01,558.83c-3.47-3.47-13.17-2.86-16.54,0.82C238.88,560.05,244.09,558.52,250.01,558.83z"/>
	<path d="M240,103.01c-3.78,3.16-4.08,9.8-0.41,12.97C239.09,111.48,243.37,107.5,240,103.01z"/>
	<path d="M249.29,376.5c0,3.27,1.84,4.19,7.86,3.78c0.71-5.82-0.1-7.69-3.47-7.86C251.13,372.29,249.29,374.05,249.29,376.5z
		 M252.66,374.15c2.25-0.48,3.06,0.71,3.47,2.76c-0.92,0.82-1.63-0.31-2.35,0.31c-0.92,0.41,0.51,1.33-0.51,1.84
		C250.52,379.05,250,374.72,252.66,374.15z"/>
	<path d="M240.51,449.18c-2.76,3.06-3.06,4.19-1.63,7.35C245.19,446.83,239.84,420.79,240.51,449.18z"/>
	<path d="M222.65,384.46c0-6.91,4.5-25.65,5.09-32.54c-1.49,2.81-2.32,9.98-3.36,11.75c-0.05,0.1-0.56,0.91-0.21,0.57
		C223.49,376.42,219.65,382.06,222.65,384.46z"/>
	<path d="M240.11,375.38c-0.19,3.99,5.35,7.48,8.88,0.61C246.09,368.75,240.26,372.12,240.11,375.38z M246.84,375.78
		c-0.25,3.71-5.22,3.21-5-0.2C242.05,372.28,247.05,372.73,246.84,375.78z"/>
	<path d="M233.06,371.6c-0.1,2.35-0.92,4.8,0.1,7.04c1.84,0.1,0.72-2.18,2.25-2.04c1.83,0.16,0.98,2.82,3.68,2.25
		c-0.92-1.43-0.92-2.55,0.2-4.08C241.75,371.81,235.25,369.7,233.06,371.6z M234.7,373.13c1.12-1.02,2.14-0.51,3.37,0.51
		C235.72,375.38,235.72,375.38,234.7,373.13z"/>
	<path d="M550.76,455.62c3.16,4.16-0.83,7.69,3.68,8.37c-0.82-4.59,0-9.49-4.08-13.27C549.02,452.55,549.75,454.28,550.76,455.62z"
		/>
	<path d="M527.28,286.25c-1.06,4.72-0.47,14.88,2.76,15.42C526.88,290.4,529.73,289.78,527.28,286.25z"/>
	<path d="M310.55,171.51c7.45,1.02,14.9,1.43,22.36-0.51C325.45,171.3,318,171.92,310.55,171.51z"/>
	<path d="M605.89,354.04c7.45,1.02,14.8,1.53,22.26-0.51C620.69,353.84,613.24,354.45,605.89,354.04z"/>
	<path d="M292.99,61.25c4.19,0.71,8.27-0.31,12.45-0.61c0-0.51-0.1-1.02-0.1-1.53C290.81,60.2,292.99,59.54,292.99,61.25z"/>
	<path d="M541.06,574.85c-2.25-1.53-5.72-1.33-8.27,0.51C536.47,577,539.02,576.79,541.06,574.85z"/>
	<path d="M538.1,464.4c2.76,2.14,5.72,3.88,8.37,6.13C545.45,466.64,541.98,464.09,538.1,464.4z"/>
	<path d="M600.47,245.21c-2.25-1.94-10.92-1.53-13.48,0.51C591.7,246.54,595.78,245.01,600.47,245.21z"/>
	<path d="M590.78,250.11c2.65,1.23,5,0.61,7.45-0.51C595.47,246.34,592.82,246.54,590.78,250.11z"/>
	<path d="M296.36,65.74c2.65,1.02,4.9,0.82,7.35-0.51C302.66,62.44,297.1,61.53,296.36,65.74z"/>
	<path d="M274.92,208.36c2.25,4.59,2.04,9.7,4.08,14.7C279.72,218.06,277.78,210.81,274.92,208.36z"/>
	<path d="M232.14,103.52c-1.33,5.21-0.41,10,1.74,14.8C232.35,113.62,233.67,108.42,232.14,103.52z"/>
	<path d="M333.01,173.45c-0.2,4.49-1.02,8.78-0.61,13.27C333.01,182.33,334.33,177.94,333.01,173.45z"/>
	<path d="M282.06,78.2c-0.3-1.12-1.12-1.02-2.04-0.82C283.48,92.06,285.15,89.66,282.06,78.2z"/>
	<path d="M574.65,262.06c1.94,2.45,2.04,5.72,3.98,8.17C578.42,262.77,578.42,262.77,574.65,262.06z"/>
	<path d="M301.67,259.3c-2.25,3.57-0.82,7.35-1.02,11.13C301.36,266.75,303.09,263.18,301.67,259.3z"/>
	<path d="M312.38,174.26c-1.63,4.49-1.84,9.09-1.63,13.68C312.11,187.94,311.7,189.34,312.38,174.26z"/>
	<path d="M229.18,543.72c2.55-2.86,2.86-6.33,0.92-10.92C229.8,536.16,229.49,539.53,229.18,543.72z"/>
	<path d="M548,453.06c-2.76-1.84-5.31-2.25-8.88-1.84C541.67,453.88,543.51,454.19,548,453.06z"/>
	<path d="M318.51,270.43c-1.46,0.49-1.46-1.85,0.71,11.54c0.31-0.1,0.61-0.1,0.92-0.2C319.63,277.98,319.84,274.1,318.51,270.43z"/>
	<path d="M567.7,437.75c0.1,2.65-1.74,3.78-2.86,5.51c1.02,1.23,0.41,2.96,1.74,4.49c1.02-1.74,0-3.16,0.41-4.49
		C567.91,441.63,569.95,440.41,567.7,437.75z"/>
	<path d="M542.39,328.21c2.25-1.33,4.39-2.55,6.74-3.98C546.47,322.8,544.74,323.72,542.39,328.21z"/>
	<path d="M551.17,442.24c-0.41,2.35-0.92,4.7-1.43,6.94C553.62,446.12,553.92,443.88,551.17,442.24z"/>
	<path d="M628.34,356.18c-0.31,4.29-1.43,8.58-0.71,13.07C628.96,364.96,629.06,360.57,628.34,356.18z"/>
	<path d="M286.66,261.96c0,3.57,0,7.25,0,11.64C288.5,266.75,288.5,264.71,286.66,261.96z"/>
	<path d="M607.62,357.1c-1.74,4.39-1.74,8.88-0.82,13.48C607.11,366.09,607.42,361.59,607.62,357.1z"/>
	<path d="M542.29,299.52c0.82,2.45,2.65,4.08,4.29,5.92C546.47,301.06,545.04,299.22,542.29,299.52z"/>
	<path d="M566.79,271.14c-0.82-3.47-0.82-6.84-2.45-9.8C563.72,264.71,564.74,268.59,566.79,271.14z"/>
	<path d="M308.91,259.51c-2.76,2.35-2.55,3.78,0.92,6.33C308.3,263.9,310.95,261.45,308.91,259.51z"/>
	<path d="M280.02,225.92c0.41,2.76-0.82,5.72,0.92,8.78C282.37,230.11,282.17,228.17,280.02,225.92z"/>
	<path d="M271.04,88.1c-0.51-3.16-0.41-6.43-2.14-9.29C268.28,82.18,269.81,85.14,271.04,88.1z"/>
	<path d="M261.65,394.87c-2.96,0.41-5.51,1.63-7.66,3.88C256.95,398.24,259.81,397.53,261.65,394.87z"/>
	<path d="M351.79,165.79c-1.13,0-0.83-0.59,2.14,8.98c0.31-0.1,0.61-0.31,0.92-0.31C353.63,171.61,354.14,168.24,351.79,165.79z"/>
	<path d="M253.79,140.88c-3.47-0.41-5.21,1.94-6.84,4.39C249.5,144.05,252.15,143.13,253.79,140.88z"/>
	<path d="M265.02,430.4c-1.63-2.55-4.19-3.47-7.35-3.47C265.58,432.21,263.91,431.51,265.02,430.4z"/>
	<path d="M273.69,67.28c1.74,3.57,3.27,7.25,6.33,10C278.7,73.5,276.35,70.34,273.69,67.28z"/>
	<path d="M567.81,251.85c1.94,3.16,3.47,6.33,6.13,8.78C570.15,252.97,570.05,252.77,567.81,251.85z"/>
	<path d="M593.43,238.68c1.94-1.02,3.98-0.2,6.13-1.53C596.8,235.21,594.45,235.72,593.43,238.68z"/>
	<path d="M546.98,472.15c-1.74,2.65,0.1,5.31,0,7.96C548.92,477.46,546.88,474.81,546.98,472.15z"/>
	<path d="M248.78,234.9c-1.63-2.76-3.37-5.41-5-8.06C243.27,230.72,246.54,232.45,248.78,234.9z"/>
	<path d="M299.01,54.41c1.84-1.63,4.19,0.1,6.02-2.14C300.95,51.04,299.83,51.45,299.01,54.41z"/>
	<path d="M600.37,326.07c1.53-2.35,0.71-5.61,3.27-7.25C600.37,319.84,599.66,321.37,600.37,326.07z"/>
	<path d="M262.26,243.78c-1.84-2.55-4.29-3.88-7.25-4.39C257.15,241.33,259.6,242.76,262.26,243.78z"/>
	<path d="M253.48,441.32c-0.2,2.04-0.51,4.19,0.71,6.94C255.52,445.31,254.81,443.26,253.48,441.32z"/>
	<path d="M537.49,453.47c-2.38-1.87-4.8,1.08-1.63,3.98C536.47,455.92,536.98,454.8,537.49,453.47z"/>
	<path d="M314.12,220c-2.38-0.2-4.75-1.24-7.04-0.19c0-1.32,0.13-2.57,0.5-3.79c1.02-4.39,1.68-8.78,1.63-13.27
		c-0.01-0.71,0.2-1.74-1.63-1.94c0.71,7.04-3.15,13.47-2.04,20.62c1.04,6.73,0.92,13.58,1.53,20.32c2.02-10.39,0.07-16.62,0.01-21.7
		C309.46,221.79,311.74,221.39,314.12,220z"/>
	<path d="M304.93,143.53c1.63-2.76,1.53-5.61,3.27-7.66C304.73,137.21,304.52,139.96,304.93,143.53z"/>
	<path d="M646.92,348.42c-0.2,3.16,1.53,5.72,2.76,8.27C648.76,353.94,649.78,350.57,646.92,348.42z"/>
	<path d="M560.25,425.4c-2.25-1.02-4.39-1.94-7.04-3.06C556.48,426.01,558.01,426.62,560.25,425.4z"/>
	<path d="M262.26,254.91c-1.12,3.16-1.12,3.16-0.31,6.43C262.67,259.3,263.38,257.36,262.26,254.91z"/>
	<path d="M240.62,406.92c-1.94,2.35-1.63,4.49-0.61,6.64C241.23,411.62,240.82,409.47,240.62,406.92z"/>
	<path d="M542.18,426.62c1.33,1.63,0.61,3.78,2.04,5.92C545.04,427.24,544.94,427.13,542.18,426.62z"/>
	<path d="M631.61,316.27c-0.2,2.45,0.92,4.39,1.23,6.43C633.55,319.43,633.35,318.51,631.61,316.27z"/>
	<path d="M274.41,99.23c0.41-1.94-1.02-2.76-1.02-3.98c0-1.23,0.31-2.55-1.53-3.16C273.39,94.02,271.86,97.09,274.41,99.23z"/>
	<path d="M336.78,133.94c-0.2,2.14-0.1,4.29,1.23,6.74C338.52,137.92,337.8,135.88,336.78,133.94z"/>
	<path d="M584.65,267.78c1.02,0.92,1.94,1.02,2.96,0.41C586.78,263.18,584.52,266.25,584.65,267.78z"/>
	<path d="M562.8,368.23c7.45-4.8,14.09-13.68,13.48-18.38c-8.34,13.9-11.1,13.03-16.95,22.97
		C561.65,372.02,562.96,370.62,562.8,368.23z"/>
	<path d="M622.83,280.84c-3.16-0.1-3.16-0.1-5.21,1.12C621.3,282.27,621.3,282.27,622.83,280.84z"/>
	<path d="M545.25,418.46c1.84-0.41,3.37,1.23,6.02,1.33C548.92,418.25,547.39,417.13,545.25,418.46z"/>
	<path d="M337.09,143.84c-0.41,2.14,0.41,3.47,0.92,4.9C339.13,147.01,338.52,145.58,337.09,143.84z"/>
	<path d="M300.64,116.89c0.82-1.12,1.53-2.14,0.71-3.57C299.21,114.44,299.21,114.44,300.64,116.89z"/>
	<path d="M555.96,391.51c-1.63,0.61-2.45,2.65-4.39,2.76C554.64,395.08,554.94,394.87,555.96,391.51z"/>
	<path d="M546.78,486.86c0.71-1.43,1.63-2.86,0-4.49C546.78,483.89,546.78,485.43,546.78,486.86z"/>
	<path d="M595.98,299.52c0.82-1.33,1.33-2.35,0.31-3.98C594.66,296.87,594.25,297.99,595.98,299.52z"/>
	<path d="M249.8,394.77c0.71,1.12,1.12,2.55,2.76,3.27C252.56,395.9,251.64,394.98,249.8,394.77z"/>
	<path d="M271.96,403.35c0.2,1.53,0.2,2.86,1.63,3.88C273.59,404.88,273.59,404.88,271.96,403.35z"/>
	<path d="M632.53,326.68c-0.31,1.94-0.31,3.37,1.02,5.31C634.16,329.74,633.96,328.21,632.53,326.68z"/>
	<path d="M591.7,298.81c-0.51-1.74-1.74-2.35-2.55-3.88C588.73,297.58,589.65,298.3,591.7,298.81z"/>
	<path d="M275.02,164.05c0.61-1.43,2.25-2.04,2.25-3.88C275.94,161.09,275.02,162.32,275.02,164.05z"/>
	<path d="M518.7,522.18c1.09,0,0.75,1.19,1.12-4.39C518.91,519.22,518.5,520.65,518.7,522.18z"/>
	<path d="M235.41,471.44c0.82-1.63,1.43-2.76,0.61-4.19C234.19,468.38,235,469.6,235.41,471.44z"/>
	<path d="M271.45,251.14c-1.12,1.33-1.23,2.45,0.61,4.19C271.65,253.59,272.47,252.46,271.45,251.14z"/>
	<path d="M251.85,432.75c-0.31,1.43-0.31,2.65,1.23,3.78C253.28,434.79,253.17,433.57,251.85,432.75z"/>
	<path d="M634.27,352.3c-1.23,0.41-2.55,0.41-3.68,1.84C632.43,354.35,633.65,353.94,634.27,352.3z"/>
	<path d="M293.7,83.51c-1.53-0.71-2.25-1.74-3.78-0.82C290.64,84.22,291.66,84.53,293.7,83.51z"/>
	<path d="M572.71,342.4c-1.63,1.12-2.14,2.55-2.55,4.08C571.07,345.36,572.71,344.55,572.71,342.4z"/>
	<path d="M230.92,518.09c-0.31,1.74-0.61,2.86,0.1,4.08C232.04,520.85,231.94,519.83,230.92,518.09z"/>
	<path d="M544.02,493.18c1.23-0.71,1.33-1.63,0.92-2.96C543.82,490.94,543.71,491.76,544.02,493.18z"/>
	<path d="M634.16,341.69c-0.41,1.74,0.51,2.65,0.82,4.19C635.7,344.14,634.57,343.22,634.16,341.69z"/>
	<path d="M335.15,171.3c2.45,0.82,3.47-0.92,4.8-1.63C338.11,169.16,336.89,170.28,335.15,171.3z"/>
	<path d="M337.7,152.52c-0.1,1.63,0.41,2.45,1.43,3.68C339.13,154.46,339.03,153.44,337.7,152.52z"/>
	<path d="M602.31,354.45c-1.43-1.33-2.55-0.82-3.68,0.31C599.76,354.35,600.99,355.47,602.31,354.45z"/>
	<path d="M245.11,146.8c-1.94,0.41-2.35,1.33-1.94,2.86C244.5,149.15,244.9,148.33,245.11,146.8z"/>
	<path d="M540.14,329.33c-1.63,0.41-2.04,1.33-1.84,3.16C539.43,331.68,540.24,331.07,540.14,329.33z"/>
	<path d="M312.89,125.77c0,1.63,0.41,2.55,2.04,3.16C314.83,127.2,314.32,126.38,312.89,125.77z"/>
	<path d="M334.13,370.58c1.53,0.61,2.45,1.53,3.98,1.12C336.99,370.99,336.07,369.86,334.13,370.58z"/>
	<path d="M610.17,311.47c0-1.63-0.51-2.45-1.94-3.16C608.23,309.94,608.54,310.86,610.17,311.47z"/>
	<path d="M546.88,306.57c0.1,1.74,0.41,2.65,1.74,2.86C549.12,308.1,548.41,307.39,546.88,306.57z"/>
	<path d="M605.68,299.93c-0.1-1.84-0.82-2.25-2.35-1.43C603.74,299.63,604.25,300.14,605.68,299.93z"/>
	<path d="M569.95,281.15c-0.76-3.81-2.79-2.12-1.74-0.71C568.62,280.84,569.03,281.66,569.95,281.15z"/>
	<path d="M286.66,95.04c0.2-1.33,0-2.25-1.23-3.27C285.43,93.21,285.23,94.33,286.66,95.04z"/>
	<path d="M580.87,274.31c-0.1,1.12-0.41,2.45,0.92,3.57C582.61,276.25,581.69,275.23,580.87,274.31z"/>
	<path d="M567.19,274.21c-0.41,1.53,0.2,2.25,1.12,3.06C568.62,275.94,568.73,275.02,567.19,274.21z"/>
	<path d="M312.89,251.03c-1.84,1.33-2.45,2.35-1.94,4.08C312.28,254.1,312.28,252.77,312.89,251.03z"/>
	<path d="M533.1,308c0.61-0.92,0.61-1.63,0-2.25C531.77,306.47,532.18,307.08,533.1,308z"/>
	<path d="M632.84,310.24c1.12,1.02,1.94,0.61,3.27,0C634.67,309.63,633.76,309.43,632.84,310.24z"/>
	<path d="M303.71,172.12c1.53,0,2.25,0.51,3.27-0.2C306.05,171.1,305.24,170.69,303.71,172.12z"/>
	<path d="M281.04,239.91c0.41-1.12,0.2-1.94-0.61-3.37C279.92,238.17,279.61,239.09,281.04,239.91z"/>
	<path d="M577.71,339.95c0.71-0.82,0.82-1.43,0-2.35C577.1,338.52,576.89,339.24,577.71,339.95z"/>
	<path d="M533.61,467.46c1.55,0.39,2.43-0.92,1.43-1.63C534.22,465.93,533.51,466.23,533.61,467.46z"/>
	<path d="M236.12,162.83c-1.84,0.1-2.45,0.92-3.16,2.14C234.49,164.57,235.31,164.05,236.12,162.83z"/>
	<path d="M283.39,385.48c-0.41-1.12-0.61-2.45-1.94-3.06C281.55,383.75,282.47,384.67,283.39,385.48z"/>
	<path d="M295.85,116.07c0.51-1.74-1.33-1.94-1.63-3.47C293.4,114.75,294.31,115.46,295.85,116.07z"/>
	<path d="M310.44,117.2c0-1.33-0.51-1.94-2.04-1.53C308.4,117.4,309.12,117.81,310.44,117.2z"/>
	<path d="M336.48,127.1c-1.43-0.71-2.35-0.61-4.08-0.1C334.03,127.3,335.05,127.61,336.48,127.1z"/>
	<path d="M339.85,163.14c0.71-1.02-0.1-1.74-0.61-2.55C338.93,161.6,338.93,162.52,339.85,163.14z"/>
	<path d="M300.34,220.3c0.92-0.41,1.84,0.41,1.84-1.12C301.56,219.18,301.05,219.49,300.34,220.3z"/>
	<path d="M237.35,461.23c-0.31,0.61-0.41,1.33,0.31,2.14c0.41-0.92,1.74-1.33,0.51-2.65C237.86,460.92,237.45,461.03,237.35,461.23z
		"/>
	<path d="M255.01,468.68c-0.82,0.61-1.43,1.23-0.61,2.25C255.62,470.42,255.42,469.6,255.01,468.68z"/>
	<path d="M282.68,157.52c0.2-0.82,0.51-1.53-0.1-2.45C281.55,156.09,281.55,156.81,282.68,157.52z"/>
	<path d="M531.26,345.46c-1.33-0.1-2.04,0.51-2.45,1.74C529.73,346.89,530.75,346.79,531.26,345.46z"/>
	<path d="M634.37,338.32c0.41-1.23-0.1-2.04-0.92-2.76C633.32,335.69,632.45,336.97,634.37,338.32z"/>
	<path d="M355.47,176.92c-0.31,1.12,0.2,1.53,1.23,1.63C356.79,177.63,356.59,177.02,355.47,176.92z"/>
	<path d="M337.4,127.81c1.12,0.82,2.04,0.51,2.96-0.1C339.54,127.2,338.62,126.69,337.4,127.81z"/>
	<path d="M631.51,309.53c-1.12-0.61-2.04-0.71-3.06-0.1C629.47,309.94,630.39,310.35,631.51,309.53z"/>
	<path d="M332.5,352.51c0.1,1.84,0.2,2.45,1.23,2.55C333.41,354.45,333.11,353.84,332.5,352.51z"/>
	<path d="M522.17,491.86c-0.41,0.41-1.02,0.71-0.31,1.33C522.68,492.88,522.89,492.47,522.17,491.86z"/>
	<path d="M228.16,151.8c0.51,0.61,1.02,1.02,1.63-0.2C229.29,151.19,228.77,150.78,228.16,151.8z"/>
	<path d="M261.65,174.06c-0.82,0.41-1.33,0.92-0.51,2.14C261.95,175.39,262.06,174.88,261.65,174.06z"/>
	<path d="M617.93,380.68c0.1,1.02,0.61,1.23,1.63,1.02C619.26,380.79,619.05,380.17,617.93,380.68z"/>
	<path d="M556.48,358.53c0.71-0.51,1.12-0.92,0.41-2.14C556.17,357.2,555.76,357.71,556.48,358.53z"/>
	<path d="M540.14,417.84c0.61,0,1.02,0,2.35,0C541.16,417.54,540.65,417.13,540.14,417.84z"/>
	<path d="M644.27,339.95c0.39,1.54,2.02-0.14,0.2-0.82C644.37,339.54,644.17,339.75,644.27,339.95z"/>
	<path d="M241.94,428.87c-0.2,0.61-0.51,1.12,0.2,1.43C242.56,429.79,242.56,429.48,241.94,428.87z"/>
	<path d="M579.24,272.47c0.71,0.71,1.12,1.23,1.63,1.74C580.47,273.7,580.57,272.78,579.24,272.47z"/>
	<path d="M279.82,243.17c0.2-0.82,0.51-1.43-0.51-1.74C278.8,242.05,278.49,242.56,279.82,243.17z"/>
	<path d="M255.52,455.51c-0.39,3.1-0.06,1.88,0.41,2.35C256.44,457.15,256.44,456.43,255.52,455.51z"/>
	<path d="M576.59,345.57c-0.59,0.59,0.41,1.23,0.41,0.41C577.1,345.67,577.1,345.16,576.59,345.57z"/>
	<path d="M646.31,346.69c-0.1,0.82,0.2,1.33,0.61,1.74C646.72,347.91,647.03,347.2,646.31,346.69z"/>
	<path d="M564.74,353.43c-0.51,0.61-1.02,0.82-0.51,1.33C564.74,354.55,564.74,354.24,564.74,353.43z"/>
	<path d="M650.8,359.45c-0.31,1.23,0.31,1.53,1.12,1.84C652.13,359.86,651.52,359.65,650.8,359.45z"/>
	<path d="M555.25,377.01c-0.92-0.31-1.33-0.2-1.23,0.82C554.43,377.62,554.84,377.32,555.25,377.01z"/>
	<path d="M237.45,124.96c1.12-0.51,1.23-1.12,0-1.63C237.04,123.83,237.15,124.44,237.45,124.96z"/>
	<path d="M274.51,372.21c0.31,0.61,0.41,1.33,1.33,1.33C275.63,372.82,275.53,372.11,274.51,372.21z"/>
	<path d="M306.57,373.64c0-0.41-0.31-0.61-0.61-0.82C305.85,373.23,306.16,373.44,306.57,373.64z"/>
	<path d="M276.55,103.93c1.12,0.2,1.94,0.51,2.65-0.31C278.39,103.01,277.57,102.9,276.55,103.93z"/>
	<path d="M275.84,373.7c-0.03,1.03,0.56,1.69,1.43,2.08C277.16,374.8,276.68,374.12,275.84,373.7z"/>
	<path d="M275.84,373.54l-0.1,0.1C275.86,373.7,275.84,373.77,275.84,373.54z"/>
	<path d="M277.28,375.94c0-0.05-0.02-0.09-0.01-0.15C277.16,375.89,277.12,375.9,277.28,375.94z"/>
	<path d="M277.28,375.94c-0.04,1.01,0.45,1.6,1.42,1.99C278.59,377.05,278.21,376.27,277.28,375.94z"/>
	<path d="M280.02,380.28c0.04,0.01,0.07,0.04,0.11,0.05C280.13,380.11,280.13,380.17,280.02,380.28z"/>
	<path d="M281.55,382.32c0-0.98-0.48-1.66-1.42-1.99C280.09,381.28,280.58,382.03,281.55,382.32z"/>
	<path d="M558.41,389.77c0.82,0,0.92-0.61,1.12-1.63C558.62,388.75,558.01,388.95,558.41,389.77z"/>
	<path d="M280.12,380.17c-0.1-0.98-0.49-1.66-1.42-2.08C278.66,379.12,279.15,379.89,280.12,380.17z"/>
	<path d="M278.7,377.93l-0.1,0.1C278.76,378.11,278.7,378.14,278.7,377.93z"/>
	<path d="M277.98,252.26c-0.61,0.82-0.2,1.23,0.51,1.74C278.9,253.18,279,252.56,277.98,252.26z"/>
	<path d="M260.73,193.76c-1.02-0.41-1.12,0.31-1.63,0.82C260.12,194.68,260.52,194.37,260.73,193.76z"/>
	<path d="M233.16,476.24c0.82,0.1,1.33-0.2,0.92-1.43C233.37,475.22,232.76,475.42,233.16,476.24z"/>
	<path d="M518.6,446.84c1.02,0.31,1.33-0.2,1.63-0.82C519.32,445.61,518.91,445.92,518.6,446.84z"/>
	<path d="M520.54,505.74c0.71-0.71-0.51-1.35-0.51-0.2C520.03,505.74,520.34,505.95,520.54,505.74z"/>
	<path d="M574.44,286.25c-0.92-0.71-1.63-0.71-2.35,0C572.91,287.07,573.63,286.87,574.44,286.25z"/>
	<path d="M529.93,301.77c0.41,0.71,0,1.74,1.33,2.25C531.67,302.59,530.44,302.38,529.93,301.77z"/>
	<path d="M357.61,180.49c-0.41,1.02,0.1,1.23,0.71,1.23C358.73,181.1,358.53,180.69,357.61,180.49z"/>
	<path d="M519.93,517.79c0.71-0.71,0.71-1.53,0.2-2.65C519.42,516.15,519.72,516.97,519.93,517.79z"/>
	<path d="M258.48,181.1c0.41-0.2,0.61-0.2,0.71-0.31C260.07,179.92,258.22,179.03,258.48,181.1z"/>
	<path d="M241.84,422.44c-0.41,0.82-0.61,1.53,0.1,2.45C242.56,423.97,242.56,423.25,241.84,422.44z"/>
	<path d="M523.6,334.44c0.23,0.46,1.22,0.75,1.22-0.2C524.83,333.32,523.38,333.76,523.6,334.44z"/>
	<path d="M255.73,463.17c-0.71,0.31-1.02,0.51-0.61,0.92C255.62,464.19,255.83,463.89,255.73,463.17z"/>
	<path d="M534.63,418.05c0.51-0.61,1.33-0.1,1.12-1.53C535.24,416.93,534.53,416.62,534.63,418.05z"/>
	<path d="M231.02,526.36c-0.31,0.41-0.31,0.82-0.1,1.23C231.33,527.18,231.22,526.77,231.02,526.36z"/>
	<path d="M654.89,443.98c0.82,7.66,4.29,15.11-0.51,22.36c2.96-1.84,4.57-4.49,4.08-7.55C656.65,447.48,658.42,444.82,654.89,443.98
		z"/>
	<path d="M675.2,420.19c1.01,5.72-3.56,8.4-10.82,11.13c-3.79,1.42-1.6,2.64-0.61,2.25C670.01,432.04,680.32,425.09,675.2,420.19z"
		/>
	<path d="M647.33,474.81c2.55-1.12,4.7-2.45,4.8-5.72C650.4,470.93,648.25,472.36,647.33,474.81z"/>
	<path d="M646.72,427.03c2.55,1.84,5.1,3.68,8.47,3.57C652.74,428.46,649.68,427.85,646.72,427.03z"/>
	<path d="M680,424.07c-0.82,2.45,1.84,3.57,1.94,5.51C682.96,426.32,682.55,425.3,680,424.07z"/>
	<path d="M616.09,523.71c2.25-0.2,1.84-2.04,2.25-3.27C616.6,521.67,616.6,521.67,616.09,523.71z"/>
	<path d="M674.79,441.73c0.82,1.43,1.94,1.53,3.27,1.02C677.24,441.53,676.43,440.61,674.79,441.73z"/>
	<path d="M620.28,516.87c1.12-1.33,2.35-1.74,1.94-3.37C620.99,514.01,620.28,514.62,620.28,516.87z"/>
	<path d="M670.1,439.89c-1.02,1.63-0.51,2.55,0.71,3.47C671.43,442.14,671.53,441.12,670.1,439.89z"/>
	<path d="M624.26,511.56c1.12-0.92,1.84-1.53,1.63-2.86C624.67,509.31,624.16,510.03,624.26,511.56z"/>
	<path d="M644.68,478.38c1.12,0.1,1.53-0.41,2.04-1.94C645.5,477.05,644.68,477.16,644.68,478.38z"/>
	<path d="M674.28,417.74c-0.92-0.82-1.33-1.63-2.35-0.71C672.24,417.84,672.85,418.05,674.28,417.74z"/>
	<path d="M639.37,481.95c1.12-0.2,1.84-0.41,1.63-1.53C640.08,480.42,639.68,480.93,639.37,481.95z"/>
	<path d="M522.28,399.16c0.41-1.33-0.2-2.04-1.33-2.65C520.64,397.83,520.95,398.65,522.28,399.16z"/>
	<path d="M518.09,386.71c0.61-1.12,0.31-1.94-0.51-3.06C516.76,385.07,517.38,385.89,518.09,386.71z"/>
	<path d="M519.52,393.04c0.41-0.92,0.2-1.53-0.61-2.55C518.29,391.81,518.7,392.42,519.52,393.04z"/>
	<path d="M485.93,427.44c-1.43,1.02-3.16,1.33-4.19,3.06c1.53,2.65,3.57,5.1,4.49,7.55c1.02,0.92,1.74-0.1,2.55,0.41
		c1.84,2.25,3.68,4.9,6.94,4.7c4.75-0.65,6.93,2.26,11.64,2.04c-2.45-2.7-10.24-2.39-13.58-4.9
		C478.13,428.51,486.82,430.98,485.93,427.44z"/>
	<path d="M622.63,554.13c0.12,3.27,2.04,4.08,7.96,3.57c0.61-5.82-0.31-7.64-3.68-7.76C624.36,549.86,622.54,551.58,622.63,554.13z
		 M624.47,553.52c0.19-2.8,4.6-3.21,5,0.82c-0.92,0.82-3.88-1.02-2.25,2.14C624.98,556.27,624.35,555.25,624.47,553.52z"/>
	<path d="M616.91,549.33c-8.14,1.87,0.22,14.38,5.51,4.08C620.89,549.84,619.37,548.77,616.91,549.33z M617.73,555.87
		c-3.53-0.22-3.25-5.35,0.31-5.1C621.43,551,620.73,555.87,617.73,555.87z"/>
	<path d="M610.38,548.82c-1.12-0.2-2.35-0.61-3.88,0.1c-0.41,2.25-0.82,4.8-0.2,7.25c1.85,0.19,1.67-4.13,3.88-0.82
		c0.41,0.61,0.71,1.23,1.94,1.12C611.33,552.57,615.3,549.68,610.38,548.82z M607.83,550.56c1.53-0.82,2.55-0.51,3.78,0.82
		C609.66,552.8,608.54,552.8,607.83,550.56z"/>
	<path d="M612.01,405.29c-10.21,9.49-20.93,18.17-30.32,28.69C589.25,430.4,611.19,409.47,612.01,405.29z"/>
	<path d="M579.55,460.82c-4.9,1.53-9.09,2.96-13.37,4.39C569.54,466.03,575.77,463.78,579.55,460.82z"/>
	<path d="M573.52,467.87c0.71,0.51,1.23,0.41,1.84-0.1C574.65,467.46,574.03,467.36,573.52,467.87z"/>
	<path d="M326.57,411.72c-0.53-7.59,8.51-14.22,4.08-14.9c-7.83,12.53-7.4,4.47-3.68,21.44
		C328.62,415.5,328.41,413.35,326.57,411.72z"/>
	<path d="M316.77,438.98c0.1,4.7,0.1,9.39,2.35,13.78C319.63,447.96,319.12,443.26,316.77,438.98z"/>
	<path d="M323.31,407.43c-1.33-3.98-5-3.68-7.35-5.21C317.9,404.37,319.33,407.43,323.31,407.43z"/>
	<path d="M322.49,512.27c1.65,0,1.31,2.26,2.04-11.94C322.05,500.33,324.82,507.62,322.49,512.27z"/>
	<path d="M319.73,462.46c1.02-2.25,1.84-3.88,0-5.61C318.51,459.09,318.51,459.09,319.73,462.46z"/>
	<path d="M323.41,529.32c1.23-1.74,1.12-3.16-0.1-4.59C323.31,526.16,321.67,527.69,323.41,529.32z"/>
	<path d="M323.31,519.63c1.43-1.02,1.23-2.14,0.71-3.57C323.1,517.17,322.7,518.2,323.31,519.63z"/>
	<path d="M311.16,429.07c0.2,1.43,0.71,2.45,1.63,3.16C312.89,431.01,312.59,429.89,311.16,429.07z"/>
	<path d="M318.82,468.68c0.61-1.12,1.02-1.94,1.12-3.68C318.41,466.23,317.79,467.05,318.82,468.68z"/>
	<path d="M313.81,393.24c-0.2,0.92,0,1.33,1.02,1.63C315.04,393.75,314.73,393.24,313.81,393.24z"/>
	<path d="M314.43,397.32c-0.41,0.92-0.51,1.53,0.51,1.84C315.75,398.24,315.04,397.94,314.43,397.32z"/>
	<path d="M329.94,524.32c-0.92,1.23,0.51,1.53,0.71,0.92C330.76,524.73,330.56,524.32,329.94,524.32z"/>
	<path d="M359.85,560.66c2.25,0.92,3.98,1.02,5.72-0.2C366.15,558.11,361.63,558.4,359.85,560.66z"/>
<path fill="#e6e6e6" d="m206.8 163.6c0-5.1 4.1-9.2 9.3-9.2s9.2 4.2 9.2 9.2-4.1 9.2-9.3 9.2-9.2-4.1-9.2-9.2zm17.3-.1c0-4.5-3.5-8.2-8.2-8.2s-8.2 3.7-8.2 8.3c0 4.5 3.5 8.2 8.2 8.2s8.2-3.7 8.2-8.3zm-13 0c0-2.8 2.1-5.1 5.1-5.1 1.9 0 2.9.6 3.9 1.5l-1.4 1.7c-.8-.7-1.5-1.1-2.5-1.1-1.7 0-2.8 1.4-2.8 3.1s1.1 3 2.8 3c1.1 0 1.7-.5 2.5-1.1l1.4 1.4c-1.1 1.1-2.1 1.7-4 1.7-2.9 0-5-2.3-5-5.1z"/><path fill="#e6e6e6" d="m226.6 154.7h3.4l4.2 13.2 4.4-13.3h2.6l4.4 13.3 4.2-13.2h3.3l-6.2 18h-2.7l-4.4-12.8-4.4 12.8h-2.7z"/><path fill="#e6e6e6" d="m252.8 165.8c0-3.9 3.1-7 7.2-7 4.2 0 7.2 3.2 7.2 7s-3.1 7-7.3 7c-4 0-7.1-3.1-7.1-7zm11.3 0c0-2.3-1.7-4.3-4.2-4.3s-4.1 2-4.1 4.3 1.7 4.3 4.1 4.3c2.7.1 4.2-1.9 4.2-4.3z"/><path fill="#e6e6e6" d="m269.5 159.1h3.1v3c.8-2 2.4-3.4 4.8-3.3v3.2h-.2c-2.7 0-4.6 1.7-4.6 5.4v5.1h-3.1z"/><path fill="#e6e6e6" d="m279.1 153.9h3.1v11.1l5.6-6h3.8l-5.4 5.5 5.5 8h-3.5l-4.1-5.8-1.9 2v3.9h-3.1z"/><path fill="#e6e6e6" d="m291.7 165.8c0-3.9 3.1-7 7.2-7 4.2 0 7.2 3.2 7.2 7s-3.1 7-7.3 7c-4 0-7.1-3.1-7.1-7zm11.3 0c0-2.3-1.7-4.3-4.2-4.3s-4.1 2-4.1 4.3 1.7 4.3 4.1 4.3c2.6.1 4.2-1.9 4.2-4.3z"/><path fill="#e6e6e6" d="m308.2 167.6v-8.6h3.1v7.6c0 2.1 1.1 3.3 2.9 3.3s3-1.3 3-3.3v-7.6h3.1v13.4h-3.1v-2.1c-.8 1.3-2.1 2.3-4.2 2.3-3.1.2-4.8-1.8-4.8-5z"/><path fill="#e6e6e6" d="m323.9 168.8v-7.1h-1.7v-2.6h1.7v-3.7h3.1v3.7h3.6v2.6h-3.6v6.6c0 1.2.6 1.7 1.7 1.7.7 0 1.3-.2 1.9-.5v2.5c-.8.5-1.7.7-2.8.7-2.3 0-3.9-.9-3.9-3.9z"/><path fill="#e6e6e6" d="m333.2 154.7h3.2v15h9.4v2.9h-12.5v-17.9z"/><path fill="#e6e6e6" d="m356 172.5v-1.7c-.9 1.1-2.3 2-4.4 2-2.6 0-4.8-1.4-4.8-4.2 0-3 2.3-4.4 5.4-4.4 1.7 0 2.6.2 3.7.5v-.2c0-1.9-1.2-2.9-3.3-2.9-1.5 0-2.6.3-3.9.8l-.8-2.5c1.5-.7 2.9-1.1 5.1-1.1 4 0 5.9 2.1 5.9 5.7v8zm.1-5.6c-.8-.3-1.9-.5-3.1-.5-2 0-3.1.8-3.1 2.1s1.1 2 2.6 2c2 0 3.5-1.1 3.5-2.9z"/><path fill="#e6e6e6" d="m364.9 170.5v2.1h-3.1v-18.7h3.1v7.4c1-1.4 2.4-2.5 4.5-2.5 3.2 0 6.3 2.5 6.3 7s-3.1 7-6.3 7c-2.1 0-3.5-1.1-4.5-2.3zm7.7-4.7c0-2.6-1.7-4.3-3.9-4.3s-3.9 1.7-3.9 4.4c0 2.6 1.8 4.3 3.9 4.3s3.9-1.7 3.9-4.4z"/><path fill="#e6e6e6" d="m376.9 170.8 1.4-2.1c1.4 1.1 3 1.7 4.4 1.7s2.1-.5 2.1-1.5-1.3-1.4-2.8-1.8c-.1 0-.2-.1-.2-.1-2-.6-4.2-1.4-4.2-4s2.1-4.1 4.8-4.1c1.7 0 3.5.6 5 1.5l-1.2 2.2c-1.3-.8-2.6-1.3-3.8-1.3s-1.9.5-1.9 1.4 1.3 1.4 2.8 1.8c.1 0 .2.1.2.1 2 .6 4.2 1.5 4.2 4 0 2.9-2.2 4.2-5 4.2-1.9 0-4-.7-5.8-2z"/><path fill="#e6e6e6" d="m505.6 163.6c0-5.1 4.1-9.2 9.3-9.2s9.2 4.2 9.2 9.2-4.1 9.2-9.3 9.2-9.2-4.1-9.2-9.2zm17.4-.1c0-4.5-3.5-8.2-8.2-8.2s-8.2 3.7-8.2 8.3c0 4.5 3.5 8.2 8.2 8.2s8.2-3.7 8.2-8.3zm-13.1 0c0-2.8 2.1-5.1 5.1-5.1 1.9 0 2.9.6 3.9 1.5l-1.4 1.7c-.8-.7-1.5-1.1-2.5-1.1-1.7 0-2.8 1.4-2.8 3.1s1.1 3 2.8 3c1.1 0 1.7-.5 2.5-1.1l1.4 1.4c-1.1 1.1-2.1 1.7-4 1.7-2.9 0-5-2.3-5-5.1z"/><path fill="#e6e6e6" d="m525.4 154.7h3.4l4.2 13.2 4.4-13.3h2.6l4.4 13.3 4.2-13.2h3.3l-6.2 18h-2.7l-4.4-12.8-4.4 12.8h-2.7z"/><path fill="#e6e6e6" d="m551.7 165.8c0-3.9 3.1-7 7.2-7 4.2 0 7.2 3.2 7.2 7s-3.1 7-7.3 7c-4.1 0-7.1-3.1-7.1-7zm11.2 0c0-2.3-1.7-4.3-4.2-4.3s-4.1 2-4.1 4.3 1.7 4.3 4.1 4.3c2.7.1 4.2-1.9 4.2-4.3z"/><path fill="#e6e6e6" d="m568.3 159.1h3.1v3c.8-2 2.4-3.4 4.8-3.3v3.2h-.2c-2.7 0-4.6 1.7-4.6 5.4v5.1h-3.1z"/><path fill="#e6e6e6" d="m577.9 153.9h3.1v11.1l5.6-6h3.8l-5.4 5.5 5.5 8h-3.5l-4.1-5.8-1.9 2v3.9h-3.1z"/><path fill="#e6e6e6" d="m590.6 165.8c0-3.9 3.1-7 7.2-7 4.2 0 7.2 3.2 7.2 7s-3.1 7-7.3 7c-4.1 0-7.1-3.1-7.1-7zm11.2 0c0-2.3-1.7-4.3-4.2-4.3s-4.1 2-4.1 4.3 1.7 4.3 4.1 4.3c2.6.1 4.2-1.9 4.2-4.3z"/><path fill="#e6e6e6" d="m607 167.6v-8.6h3.1v7.6c0 2.1 1.1 3.3 2.9 3.3s3-1.3 3-3.3v-7.6h3.1v13.4h-3.1v-2.1c-.8 1.3-2.1 2.3-4.2 2.3-3 .2-4.8-1.8-4.8-5z"/><path fill="#e6e6e6" d="m622.7 168.8v-7.1h-1.7v-2.6h1.7v-3.7h3.1v3.7h3.6v2.6h-3.6v6.6c0 1.2.6 1.7 1.7 1.7.7 0 1.3-.2 1.9-.5v2.5c-.8.5-1.7.7-2.8.7-2.3 0-3.9-.9-3.9-3.9z"/><path fill="#e6e6e6" d="m632 154.7h3.2v15h9.4v2.9h-12.6z"/><path fill="#e6e6e6" d="m654.8 172.5v-1.7c-.9 1.1-2.3 2-4.4 2-2.6 0-4.8-1.4-4.8-4.2 0-3 2.3-4.4 5.4-4.4 1.7 0 2.6.2 3.7.5v-.2c0-1.9-1.2-2.9-3.3-2.9-1.5 0-2.6.3-3.9.8l-.8-2.5c1.5-.7 2.9-1.1 5.1-1.1 4 0 5.9 2.1 5.9 5.7v8zm.1-5.6c-.8-.3-1.9-.5-3.1-.5-2 0-3.1.8-3.1 2.1s1.1 2 2.6 2c2 0 3.5-1.1 3.5-2.9z"/><path fill="#e6e6e6" d="m663.7 170.5v2.1h-3.1v-18.7h3.1v7.4c1-1.4 2.4-2.5 4.5-2.5 3.2 0 6.3 2.5 6.3 7s-3.1 7-6.3 7c-2.1 0-3.5-1.1-4.5-2.3zm7.8-4.7c0-2.6-1.7-4.3-3.9-4.3-2.1 0-3.9 1.7-3.9 4.4 0 2.6 1.8 4.3 3.9 4.3s3.9-1.7 3.9-4.4z"/><path fill="#e6e6e6" d="m675.8 170.8 1.4-2.1c1.4 1.1 3 1.7 4.4 1.7s2.1-.5 2.1-1.5-1.3-1.4-2.8-1.8c-.1 0-.2-.1-.2-.1-2-.6-4.2-1.4-4.2-4s2.1-4.1 4.8-4.1c1.7 0 3.5.6 5 1.5l-1.2 2.2c-1.3-.8-2.6-1.3-3.8-1.3s-1.9.5-1.9 1.4 1.3 1.4 2.8 1.8c.1 0 .2.1.2.1 2 .6 4.2 1.5 4.2 4 0 2.9-2.2 4.2-5 4.2-2 0-4.1-.7-5.8-2z"/><path fill="#e6e6e6" d="m61 298.6c0-5.1 4.1-9.2 9.3-9.2s9.2 4.2 9.2 9.2-4.1 9.2-9.3 9.2c-5.1 0-9.2-4.2-9.2-9.2zm17.4-.1c0-4.5-3.5-8.2-8.2-8.2s-8.2 3.7-8.2 8.3c0 4.5 3.5 8.2 8.2 8.2s8.2-3.7 8.2-8.3zm-13.1-.1c0-2.8 2.1-5.1 5.1-5.1 1.9 0 2.9.6 3.9 1.5l-1.4 1.7c-.8-.7-1.5-1.1-2.5-1.1-1.7 0-2.8 1.4-2.8 3.1s1.1 3 2.8 3c1.1 0 1.7-.5 2.5-1.1l1.4 1.4c-1.1 1.1-2.1 1.7-4 1.7-2.8.1-5-2.2-5-5.1z"/><path fill="#e6e6e6" d="m80.9 289.7h3.4l4.2 13.2 4.4-13.3h2.6l4.4 13.3 4.2-13.2h3.3l-6.2 18h-2.7l-4.4-12.8-4.4 12.8h-2.7z"/><path fill="#e6e6e6" d="m107.1 300.8c0-3.9 3.1-7 7.2-7s7.2 3.2 7.2 7-3.1 7-7.3 7c-4 0-7.1-3.1-7.1-7zm11.3 0c0-2.3-1.7-4.3-4.2-4.3s-4.1 2-4.1 4.3 1.7 4.3 4.1 4.3c2.6.1 4.2-1.9 4.2-4.3z"/><path fill="#e6e6e6" d="m123.7 294h3.1v3c.8-2 2.4-3.4 4.8-3.3v3.2h-.2c-2.7 0-4.6 1.7-4.6 5.4v5.1h-3.1z"/><path fill="#e6e6e6" d="m133.4 288.9h3.1v11.1l5.6-6h3.8l-5.4 5.5 5.5 8h-3.5l-4.1-5.8-1.9 1.9v3.9h-3.1z"/><path fill="#e6e6e6" d="m146 300.8c0-3.9 3.1-7 7.2-7s7.2 3.2 7.2 7-3.1 7-7.3 7c-4.1 0-7.1-3.1-7.1-7zm11.2 0c0-2.3-1.7-4.3-4.2-4.3s-4.1 2-4.1 4.3 1.7 4.3 4.1 4.3c2.6.1 4.2-1.9 4.2-4.3z"/><path fill="#e6e6e6" d="m162.4 302.6v-8.6h3.1v7.6c0 2.1 1.1 3.3 2.9 3.3s3-1.3 3-3.3v-7.6h3.1v13.4h-3.1v-2.1c-.8 1.3-2.1 2.3-4.2 2.3-3 .2-4.8-1.8-4.8-5z"/><path fill="#e6e6e6" d="m178.1 303.8v-7.1h-1.7v-2.7h1.7v-3.7h3.1v3.7h3.6v2.6h-3.6v6.6c0 1.2.6 1.7 1.7 1.7.7 0 1.3-.2 1.9-.5v2.5c-.8.5-1.7.7-2.8.7-2.3.1-3.9-.9-3.9-3.8z"/><path fill="#e6e6e6" d="m187.4 289.7h3.2v15h9.4v2.9h-12.5v-17.9z"/><path fill="#e6e6e6" d="m210.2 307.5v-1.7c-.9 1.1-2.3 2-4.4 2-2.6 0-4.8-1.4-4.8-4.2 0-3 2.3-4.4 5.4-4.4 1.7 0 2.6.2 3.7.5v-.2c0-1.9-1.2-2.9-3.3-2.9-1.5 0-2.6.3-3.9.8l-.8-2.5c1.5-.7 2.9-1.1 5.1-1.1 4 0 5.9 2.1 5.9 5.7v8zm.1-5.6c-.8-.3-1.9-.5-3.1-.5-2 0-3.1.8-3.1 2.1s1.1 2 2.6 2c2 0 3.5-1.1 3.5-2.9z"/><path fill="#e6e6e6" d="m219.2 305.5v2.1h-3.1v-18.7h3.1v7.4c1-1.4 2.4-2.5 4.5-2.5 3.2 0 6.3 2.5 6.3 7s-3.1 7-6.3 7c-2.2 0-3.6-1.1-4.5-2.3zm7.7-4.7c0-2.6-1.7-4.3-3.9-4.3s-3.9 1.7-3.9 4.4c0 2.6 1.8 4.3 3.9 4.3s3.9-1.7 3.9-4.4z"/><path fill="#e6e6e6" d="m231.2 305.8 1.4-2.1c1.4 1.1 3 1.7 4.4 1.7s2.1-.5 2.1-1.5-1.3-1.4-2.8-1.8c-.1 0-.2-.1-.2-.1-2-.6-4.2-1.4-4.2-4s2.1-4.1 4.8-4.1c1.7 0 3.5.6 5 1.5l-1.2 2.2c-1.3-.8-2.6-1.3-3.8-1.3s-1.9.5-1.9 1.4 1.3 1.4 2.8 1.8c.1 0 .2.1.2.1 2 .6 4.2 1.5 4.2 4 0 2.9-2.2 4.2-5 4.2-2 0-4.1-.7-5.8-2z"/><path fill="#e6e6e6" d="m360.6 298.6c0-5.1 4.1-9.2 9.3-9.2s9.2 4.2 9.2 9.2-4.1 9.2-9.3 9.2-9.2-4.2-9.2-9.2zm17.4-.1c0-4.5-3.5-8.2-8.2-8.2s-8.2 3.7-8.2 8.3c0 4.5 3.5 8.2 8.2 8.2s8.2-3.7 8.2-8.3zm-13.1-.1c0-2.8 2.1-5.1 5.1-5.1 1.9 0 2.9.6 3.9 1.5l-1.4 1.7c-.8-.7-1.5-1.1-2.5-1.1-1.7 0-2.8 1.4-2.8 3.1s1.1 3 2.8 3c1.1 0 1.7-.5 2.5-1.1l1.4 1.4c-1.1 1.1-2.1 1.7-4 1.7-2.8.1-5-2.2-5-5.1z"/><path fill="#e6e6e6" d="m380.5 289.7h3.4l4.2 13.2 4.4-13.3h2.6l4.4 13.3 4.2-13.2h3.3l-6.2 18h-2.7l-4.4-12.8-4.4 12.8h-2.7z"/><path fill="#e6e6e6" d="m406.7 300.8c0-3.9 3.1-7 7.2-7 4.2 0 7.2 3.2 7.2 7s-3.1 7-7.3 7c-4.1 0-7.1-3.1-7.1-7zm11.3 0c0-2.3-1.7-4.3-4.2-4.3s-4.1 2-4.1 4.3 1.7 4.3 4.1 4.3c2.7.1 4.2-1.9 4.2-4.3z"/><path fill="#e6e6e6" d="m423.3 294h3.1v3c.8-2 2.4-3.4 4.8-3.3v3.2h-.2c-2.7 0-4.6 1.7-4.6 5.4v5.1h-3.1z"/><path fill="#e6e6e6" d="m433 288.9h3.1v11.1l5.6-6h3.8l-5.4 5.5 5.5 8h-3.5l-4.1-5.8-1.9 2v3.9h-3.1z"/><path fill="#e6e6e6" d="m445.6 300.8c0-3.9 3.1-7 7.2-7 4.2 0 7.2 3.2 7.2 7s-3.1 7-7.3 7c-4.1 0-7.1-3.1-7.1-7zm11.3 0c0-2.3-1.7-4.3-4.2-4.3s-4.1 2-4.1 4.3 1.7 4.3 4.1 4.3c2.6.1 4.2-1.9 4.2-4.3z"/><path fill="#e6e6e6" d="m462.1 302.6v-8.6h3.1v7.6c0 2.1 1.1 3.3 2.9 3.3s3-1.3 3-3.3v-7.6h3.1v13.4h-3.1v-2.1c-.8 1.3-2.1 2.3-4.2 2.3-3.1.2-4.8-1.8-4.8-5z"/><path fill="#e6e6e6" d="m477.8 303.8v-7.1h-1.8v-2.7h1.7v-3.7h3.1v3.7h3.6v2.6h-3.6v6.6c0 1.2.6 1.7 1.7 1.7.7 0 1.3-.2 1.9-.5v2.5c-.8.5-1.7.7-2.8.7-2.2.1-3.8-.9-3.8-3.8z"/><path fill="#e6e6e6" d="m487.1 289.7h3.2v15h9.4v2.9h-12.5v-17.9z"/><path fill="#e6e6e6" d="m509.9 307.5v-1.7c-.9 1.1-2.3 2-4.4 2-2.6 0-4.8-1.4-4.8-4.2 0-3 2.3-4.4 5.4-4.4 1.7 0 2.6.2 3.7.5v-.2c0-1.9-1.2-2.9-3.3-2.9-1.5 0-2.6.3-3.9.8l-.8-2.5c1.5-.7 2.9-1.1 5.1-1.1 4 0 5.9 2.1 5.9 5.7v8zm.1-5.6c-.8-.3-1.9-.5-3.1-.5-2 0-3.1.8-3.1 2.1s1.1 2 2.6 2c2 0 3.5-1.1 3.5-2.9z"/><path fill="#e6e6e6" d="m518.8 305.5v2.1h-3.1v-18.7h3.1v7.4c1-1.4 2.4-2.5 4.5-2.5 3.2 0 6.3 2.5 6.3 7s-3.1 7-6.3 7c-2.2 0-3.5-1.1-4.5-2.3zm7.7-4.7c0-2.6-1.7-4.3-3.9-4.3s-3.9 1.7-3.9 4.4c0 2.6 1.8 4.3 3.9 4.3s3.9-1.7 3.9-4.4z"/><path fill="#e6e6e6" d="m530.8 305.8 1.4-2.1c1.4 1.1 3 1.7 4.4 1.7s2.1-.5 2.1-1.5-1.3-1.4-2.8-1.8c-.1 0-.2-.1-.2-.1-2-.6-4.2-1.4-4.2-4s2.1-4.1 4.8-4.1c1.7 0 3.5.6 5 1.5l-1.2 2.2c-1.3-.8-2.6-1.3-3.8-1.3s-1.9.5-1.9 1.4 1.3 1.4 2.8 1.8c.1 0 .2.1.2.1 2 .6 4.2 1.5 4.2 4 0 2.9-2.2 4.2-5 4.2-1.9 0-4.1-.7-5.8-2z"/><path fill="#e6e6e6" d="m659.5 298.6c0-5.1 4.1-9.2 9.3-9.2s9.2 4.2 9.2 9.2-4.1 9.2-9.3 9.2-9.2-4.2-9.2-9.2zm17.3-.1c0-4.5-3.5-8.2-8.2-8.2s-8.2 3.7-8.2 8.3c0 4.5 3.5 8.2 8.2 8.2 4.8 0 8.2-3.7 8.2-8.3zm-13-.1c0-2.8 2.1-5.1 5.1-5.1 1.9 0 2.9.6 3.9 1.5l-1.4 1.7c-.8-.7-1.5-1.1-2.5-1.1-1.7 0-2.8 1.4-2.8 3.1s1.1 3 2.8 3c1.1 0 1.7-.5 2.5-1.1l1.4 1.4c-1.1 1.1-2.1 1.7-4 1.7-2.9.1-5-2.2-5-5.1z"/><path fill="#e6e6e6" d="m679.3 289.7h3.4l4.2 13.2 4.4-13.3h2.6l4.4 13.3 4.2-13.2h3.3l-6.2 18h-2.6l-4.4-12.8-4.4 12.8h-2.7z"/><path fill="#e6e6e6" d="m705.5 300.8c0-3.9 3.1-7 7.2-7 4.2 0 7.2 3.2 7.2 7s-3.1 7-7.3 7c-4 0-7.1-3.1-7.1-7zm11.3 0c0-2.3-1.7-4.3-4.2-4.3s-4.1 2-4.1 4.3 1.7 4.3 4.1 4.3c2.7.1 4.2-1.9 4.2-4.3z"/><path fill="#e6e6e6" d="m722.1 294h3.1v3c.8-2 2.4-3.4 4.8-3.3v3.2h-.2c-2.7 0-4.6 1.7-4.6 5.4v5.1h-3.1z"/><path fill="#e6e6e6" d="m731.8 288.9h3.1v11.1l5.6-6h3.8l-5.4 5.5 5.5 8h-3.5l-4.1-5.8-1.9 2v3.9h-3.1z"/><path fill="#e6e6e6" d="m744.4 300.8c0-3.9 3.1-7 7.2-7 4.2 0 7.2 3.2 7.2 7s-3.1 7-7.3 7c-4.1 0-7.1-3.1-7.1-7zm11.3 0c0-2.3-1.7-4.3-4.2-4.3s-4.1 2-4.1 4.3 1.7 4.3 4.1 4.3c2.6.1 4.2-1.9 4.2-4.3z"/><path fill="#e6e6e6" d="m760.9 302.6v-8.6h3.1v7.6c0 2.1 1.1 3.3 2.9 3.3s3-1.3 3-3.3v-7.6h3.1v13.4h-3.1v-2.1c-.8 1.3-2.1 2.3-4.2 2.3-3.1.2-4.8-1.8-4.8-5z"/><path fill="#e6e6e6" d="m776.6 303.8v-7.1h-1.7v-2.7h1.7v-3.7h3.1v3.7h3.6v2.6h-3.6v6.6c0 1.2.6 1.7 1.7 1.7.7 0 1.3-.2 1.9-.5v2.5c-.8.5-1.7.7-2.8.7-2.3.1-3.9-.9-3.9-3.8z"/><path fill="#e6e6e6" d="m785.9 289.7h3.2v15h9.4v2.9h-12.5v-17.9z"/><path fill="#e6e6e6" d="m808.7 307.5v-1.7c-.9 1.1-2.3 2-4.4 2-2.6 0-4.8-1.4-4.8-4.2 0-3 2.3-4.4 5.4-4.4 1.7 0 2.6.2 3.7.5v-.2c0-1.9-1.2-2.9-3.3-2.9-1.5 0-2.6.3-3.9.8l-.8-2.5c1.5-.7 2.9-1.1 5.1-1.1 4 0 5.9 2.1 5.9 5.7v8zm.1-5.6c-.8-.3-1.9-.5-3.1-.5-2 0-3.1.8-3.1 2.1s1.1 2 2.6 2c2 0 3.5-1.1 3.5-2.9z"/><path fill="#e6e6e6" d="m817.6 305.5v2.1h-3.1v-18.7h3.1v7.4c1-1.4 2.4-2.5 4.5-2.5 3.2 0 6.3 2.5 6.3 7s-3.1 7-6.3 7c-2.1 0-3.5-1.1-4.5-2.3zm7.7-4.7c0-2.6-1.7-4.3-3.9-4.3-2.1 0-3.9 1.7-3.9 4.4 0 2.6 1.8 4.3 3.9 4.3 2.2 0 3.9-1.7 3.9-4.4z"/><path fill="#e6e6e6" d="m829.6 305.8 1.4-2.1c1.4 1.1 3 1.7 4.4 1.7s2.1-.5 2.1-1.5-1.3-1.4-2.8-1.8c-.1 0-.2-.1-.2-.1-2-.6-4.2-1.4-4.2-4s2.1-4.1 4.8-4.1c1.7 0 3.5.6 5 1.5l-1.2 2.2c-1.3-.8-2.6-1.3-3.8-1.3s-1.9.5-1.9 1.4 1.3 1.4 2.8 1.8c.1 0 .2.1.2.1 2 .6 4.2 1.5 4.2 4 0 2.9-2.2 4.2-5 4.2-1.9 0-4-.7-5.8-2z"/><path fill="#e6e6e6" d="m206.3 434.2c0-5.1 4.1-9.2 9.3-9.2s9.2 4.2 9.2 9.2-4.1 9.2-9.3 9.2-9.2-4.1-9.2-9.2zm17.4-.1c0-4.5-3.5-8.2-8.2-8.2s-8.2 3.7-8.2 8.3c0 4.5 3.5 8.2 8.2 8.2s8.2-3.7 8.2-8.3zm-13.1-.1c0-2.8 2.1-5.1 5.1-5.1 1.9 0 2.9.6 3.9 1.5l-1.4 1.7c-.8-.7-1.5-1.1-2.5-1.1-1.7 0-2.8 1.4-2.8 3.1s1.1 3 2.8 3c1.1 0 1.7-.5 2.5-1.1l1.4 1.4c-1.1 1.1-2.1 1.7-4 1.7-2.9.1-5-2.2-5-5.1z"/><path fill="#e6e6e6" d="m226.1 425.3h3.4l4.2 13.2 4.4-13.3h2.6l4.4 13.3 4.2-13.2h3.3l-6.2 18h-2.7l-4.4-12.8-4.4 12.8h-2.7z"/><path fill="#e6e6e6" d="m252.4 436.4c0-3.9 3.1-7 7.2-7 4.2 0 7.2 3.2 7.2 7s-3.1 7-7.3 7c-4.1 0-7.1-3.1-7.1-7zm11.2 0c0-2.3-1.7-4.3-4.2-4.3s-4.1 2-4.1 4.3 1.7 4.3 4.1 4.3c2.7.1 4.2-1.9 4.2-4.3z"/><path fill="#e6e6e6" d="m269 429.7h3.1v3c.8-2 2.4-3.4 4.8-3.3v3.2h-.2c-2.7 0-4.6 1.7-4.6 5.4v5.1h-3.1z"/><path fill="#e6e6e6" d="m278.6 424.5h3.1v11.1l5.6-6h3.8l-5.4 5.5 5.5 8h-3.5l-4.1-5.8-1.9 2v3.9h-3.1z"/><path fill="#e6e6e6" d="m291.3 436.4c0-3.9 3.1-7 7.2-7 4.2 0 7.2 3.2 7.2 7s-3.1 7-7.3 7c-4.1 0-7.1-3.1-7.1-7zm11.2 0c0-2.3-1.7-4.3-4.2-4.3s-4.1 2-4.1 4.3 1.7 4.3 4.1 4.3c2.6.1 4.2-1.9 4.2-4.3z"/><path fill="#e6e6e6" d="m307.7 438.2v-8.6h3.1v7.6c0 2.1 1.1 3.3 2.9 3.3s3-1.3 3-3.3v-7.6h3.1v13.4h-3.1v-2.1c-.8 1.3-2.1 2.3-4.2 2.3-3 .2-4.8-1.8-4.8-5z"/><path fill="#e6e6e6" d="m323.4 439.4v-7.1h-1.7v-2.6h1.7v-3.7h3.1v3.7h3.6v2.6h-3.6v6.6c0 1.2.6 1.7 1.7 1.7.7 0 1.3-.2 1.9-.5v2.5c-.8.5-1.7.7-2.8.7-2.3 0-3.9-.9-3.9-3.9z"/><path fill="#e6e6e6" d="m332.7 425.3h3.2v15h9.4v2.9h-12.5v-17.9z"/><path fill="#e6e6e6" d="m355.5 443.1v-1.7c-.9 1.1-2.3 2-4.4 2-2.6 0-4.8-1.4-4.8-4.2 0-3 2.3-4.4 5.4-4.4 1.7 0 2.6.2 3.7.5v-.2c0-1.9-1.2-2.9-3.3-2.9-1.5 0-2.6.3-3.9.8l-.8-2.5c1.5-.7 2.9-1.1 5.1-1.1 4 0 5.9 2.1 5.9 5.7v8zm.1-5.6c-.8-.3-1.9-.5-3.1-.5-2 0-3.1.8-3.1 2.1s1.1 2 2.6 2c2 0 3.5-1.1 3.5-2.9z"/><path fill="#e6e6e6" d="m364.4 441.1v2.1h-3.1v-18.7h3.1v7.4c1-1.4 2.4-2.5 4.5-2.5 3.2 0 6.3 2.5 6.3 7s-3.1 7-6.3 7c-2.1 0-3.5-1.1-4.5-2.3zm7.7-4.7c0-2.6-1.7-4.3-3.9-4.3-2.1 0-3.9 1.7-3.9 4.4 0 2.6 1.8 4.3 3.9 4.3 2.2 0 3.9-1.7 3.9-4.4z"/><path fill="#e6e6e6" d="m376.5 441.4 1.4-2.1c1.4 1.1 3 1.7 4.4 1.7s2.1-.5 2.1-1.5-1.3-1.4-2.8-1.8c-.1 0-.2-.1-.2-.1-2-.6-4.2-1.4-4.2-4s2.1-4.1 4.8-4.1c1.7 0 3.5.6 5 1.5l-1.2 2.2c-1.3-.8-2.6-1.3-3.8-1.3s-1.9.5-1.9 1.4 1.3 1.4 2.8 1.8c.1 0 .2.1.2.1 2 .6 4.2 1.5 4.2 4 0 2.9-2.2 4.2-5 4.2-2 0-4.1-.7-5.8-2z"/><path fill="#e6e6e6" d="m505.1 434.2c0-5.1 4.1-9.2 9.3-9.2s9.2 4.2 9.2 9.2-4.1 9.2-9.3 9.2-9.2-4.1-9.2-9.2zm17.4-.1c0-4.5-3.5-8.2-8.2-8.2s-8.2 3.7-8.2 8.3c0 4.5 3.5 8.2 8.2 8.2s8.2-3.7 8.2-8.3zm-13.1-.1c0-2.8 2.1-5.1 5.1-5.1 1.9 0 2.9.6 3.9 1.5l-1.4 1.7c-.8-.7-1.5-1.1-2.5-1.1-1.7 0-2.8 1.4-2.8 3.1s1.1 3 2.8 3c1.1 0 1.7-.5 2.5-1.1l1.4 1.4c-1.1 1.1-2.1 1.7-4 1.7-2.9.1-5-2.2-5-5.1z"/><path fill="#e6e6e6" d="m525 425.3h3.4l4.2 13.2 4.4-13.3h2.6l4.4 13.3 4.2-13.2h3.3l-6.2 18h-2.7l-4.4-12.8-4.4 12.8h-2.7z"/><path fill="#e6e6e6" d="m551.2 436.4c0-3.9 3.1-7 7.2-7 4.2 0 7.2 3.2 7.2 7s-3.1 7-7.3 7c-4.1 0-7.1-3.1-7.1-7zm11.2 0c0-2.3-1.7-4.3-4.2-4.3s-4.1 2-4.1 4.3 1.7 4.3 4.1 4.3c2.7.1 4.2-1.9 4.2-4.3z"/><path fill="#e6e6e6" d="m567.8 429.7h3.1v3c.8-2 2.4-3.4 4.8-3.3v3.2h-.2c-2.7 0-4.6 1.7-4.6 5.4v5.1h-3.1z"/><path fill="#e6e6e6" d="m577.5 424.5h3.1v11.1l5.6-6h3.8l-5.4 5.5 5.5 8h-3.5l-4.1-5.8-1.9 2v3.9h-3.1z"/><path fill="#e6e6e6" d="m590.1 436.4c0-3.9 3.1-7 7.2-7 4.2 0 7.2 3.2 7.2 7s-3.1 7-7.3 7c-4.1 0-7.1-3.1-7.1-7zm11.2 0c0-2.3-1.7-4.3-4.2-4.3s-4.1 2-4.1 4.3 1.7 4.3 4.1 4.3c2.6.1 4.2-1.9 4.2-4.3z"/><path fill="#e6e6e6" d="m606.5 438.2v-8.6h3.1v7.6c0 2.1 1.1 3.3 2.9 3.3s3-1.3 3-3.3v-7.6h3.1v13.4h-3.1v-2.1c-.8 1.3-2.1 2.3-4.2 2.3-3 .2-4.8-1.8-4.8-5z"/><path fill="#e6e6e6" d="m622.2 439.4v-7.1h-1.7v-2.6h1.7v-3.7h3.1v3.7h3.6v2.6h-3.6v6.6c0 1.2.6 1.7 1.7 1.7.7 0 1.3-.2 1.9-.5v2.5c-.8.5-1.7.7-2.8.7-2.3 0-3.9-.9-3.9-3.9z"/><path fill="#e6e6e6" d="m631.5 425.3h3.2v15h9.4v2.9h-12.5v-17.9z"/><path fill="#e6e6e6" d="m654.3 443.1v-1.7c-.9 1.1-2.3 2-4.4 2-2.6 0-4.8-1.4-4.8-4.2 0-3 2.3-4.4 5.4-4.4 1.7 0 2.6.2 3.7.5v-.2c0-1.9-1.2-2.9-3.3-2.9-1.5 0-2.6.3-3.9.8l-.8-2.5c1.5-.7 2.9-1.1 5.1-1.1 4 0 5.9 2.1 5.9 5.7v8zm.1-5.6c-.8-.3-1.9-.5-3.1-.5-2 0-3.1.8-3.1 2.1s1.1 2 2.6 2c2 0 3.5-1.1 3.5-2.9z"/><path fill="#e6e6e6" d="m663.3 441.1v2.1h-3.1v-18.7h3.1v7.4c1-1.4 2.4-2.5 4.5-2.5 3.2 0 6.3 2.5 6.3 7s-3.1 7-6.3 7c-2.2 0-3.6-1.1-4.5-2.3zm7.7-4.7c0-2.6-1.7-4.3-3.9-4.3s-3.9 1.7-3.9 4.4c0 2.6 1.8 4.3 3.9 4.3s3.9-1.7 3.9-4.4z"/><path fill="#e6e6e6" d="m675.3 441.4 1.4-2.1c1.4 1.1 3 1.7 4.4 1.7s2.1-.5 2.1-1.5-1.3-1.4-2.8-1.8c-.1 0-.2-.1-.2-.1-2-.6-4.2-1.4-4.2-4s2.1-4.1 4.8-4.1c1.7 0 3.5.6 5 1.5l-1.2 2.2c-1.3-.8-2.6-1.3-3.8-1.3s-1.9.5-1.9 1.4 1.3 1.4 2.8 1.8c.1 0 .2.1.2.1 2 .6 4.2 1.5 4.2 4 0 2.9-2.2 4.2-5 4.2-2 0-4.1-.7-5.8-2z"/></g>
</svg>
