<?xml version="1.0" encoding="utf-8"?>
<!-- Generator: Adobe Illustrator 23.0.1, SVG Export Plug-In . SVG Version: 6.00 Build 0)  -->
<svg version="1.2" baseProfile="tiny" id="Layer_1" xmlns="http://www.w3.org/2000/svg" xmlns:xlink="http://www.w3.org/1999/xlink"
	 x="0px" y="0px" viewBox="0 0 900 600" xml:space="preserve">
<g>
	<path d="M553.44,69.32c-0.01-0.02-0.01-0.03-0.02-0.05C553.31,69.38,553.26,69.41,553.44,69.32z"/>
	<path d="M768.02,560.23c-4.53-5.6-6.79-12.88-12.98-17.14c-0.2-1.42,0.73-2.53,0.91-3.75c1.16-7.56-4.18-4.95-5.48-6.9
		c-2.1-2.8-4.3-0.21-12.27,0.71c-1.42-1.72-1.12-4.06-2.64-5.78c-1.45,4.75,1.69,7.2-2.74,6.39c-1.22-3.04-1.62-6.39-3.75-9.23
		c-0.81,3.45,0.71,6.59,1.12,9.84c-0.81,1.32-3.04,1.42-2.74,3.65c2.13,0.61,3.85-1.22,6.39-1.01c-1.42,1.83-0.63,3.37,0.61,4.77
		c1.1,1.24,1.42,3.35,3.96,3.14c-0.61-1.93-2.13-3.25-2.43-5.48c4.67-1.01,9.03-3.75,14.3-1.01c0.91,0,1.01-1.32,2.03-2.03
		c0.41,2.84-0.81,5.27-0.3,7.91c-4.36,0.61-8.72,0.61-13.08,3.04c3.03,2.8,14.52-3.64,16.43,0.41c-5.27,1.22-10.95,0.71-16.02,3.65
		c1.32,1.93,2.94,0.91,4.16,1.32c-0.2,1.42-2.43,1.52-2.13,3.45c0.58,1.54,0.15,1.47,18.15-2.94c0.81,0.51,1.12,1.12,1.22,2.33
		c-5.88-0.2-11.36,0.91-16.43,3.85c0.2,2.64,2.13,1.93,3.65,2.33c-0.64,4.94,11.44,2.46,17.34-1.22c3.99,8.43,14,6.98,19.37,25.76
		c-3.65,1.93-6.29,5.83-11.05,5.68c-1.87-0.06-14.37,0.97-16.63-2.94c-6.07-10.51-13.95-15.17-23.93-36.51
		c-1.42-3.04-3.65-5.68-5.98-7.81c-7.19-49.4-11.56-40.71-20.28-62.07c-1.39-3.4-4.28-4.2-6.19-12.07
		c-5.63-23.21-3.08-4.51-7.1-48.48c-0.73-8-11.52-13.87-16.02-44.62c1.01-0.91,2.03-2.03,1.72-3.65c0.91-0.41,1.83-0.6,2.33-1.12
		c4.96-5.08,9.64-4.29,22.62-8.92c-0.1,5.58,0.41,10.85-0.91,16.63c2.43-2.94,3.96-10.55,3.85-17.24c2.94-1.62,7.1-2.64,10.85-2.64
		c0.94,4.95-6.97,25.6-1.52,31.54c0.92,1,1.31,2.23,1.22,3.55c-0.46,6.79,3.25,12.58,4.46,19.37c-2.94,3.85,1.93,8.32-0.3,12.47
		c1.01,0.91,1.22-0.51,1.72-0.41c7.16,6,6.45,20.63,11.36,36.1c6.17,19.45,3.21,44.41,9.53,64.1c1.42,4.42,2.67,2.13,1.83-1.83
		c-5.23-24.39-3.37-22.1-4.46-36.51c-1.03-13.57-5.89-43.59-11.97-56.9c-3.21-7.03-5.73-3.72-6.49-19.88
		c-0.33-6.93-4.24-9.28-3.35-16.73c0.51-4.23-3.62-4.4-3.55-10.04c0.17-13.95,2.32-9.36,3.65-18.05c3.41-22.2-4.84-28.5-6.09-44.42
		c-0.21-2.74-1.2-5.49-2.54-8.01c-3.4-6.42-5.01-13.57-8.32-20.08c-2.51-4.93,2.88-10.51-2.54-18.15
		c-8.99-12.68-11.76-11.31-11.76-15.82c0-5.37-2.19-3.08-2.23-7.81c-0.42-49.06,19.22-90.13,18.46-122.21
		c-0.1-4.18-0.25-7.97,3.25-10.04c1.3-0.77,9.44-12.85,13.29-17.14c3.18-3.54,4.78-7.18,9.23-30.63c2.68-14.14-0.8-17.82,2.13-22.11
		c0.84-1.23,13.93-45.09,10.34-48.68c-2.43-0.19,0.96-1.63-6.69,29.92c-0.9,3.72-4.37,7.65-5.78,19.47
		c-1.58,13.19-3.14,41.68-13.29,52.94c-3.5,3.89-5.66,11.07-10.85,14.91c-6.93,5.12-1.44,14.9-7.61,44.12
		c-1.91,9.05-2.01,2-6.69-4.16c-0.1-1.83,1.01-3.35,0.1-4.97c-1.83,0-0.91,1.72-1.72,2.23c-3.09-1.55-3.69-6.83-5.48-10.14
		c-10.63-19.67-7.9-24.98-16.13-36.61c3.76-11.49,5.51-20.47,18.86-27.89c-0.41,3.14,0.79,5.78,0.71,8.72
		c-0.27,9.94,1.57,19.58,3.25,29.21c2.57,14.75-3.23,22.92,0.51,32.25c2.14-0.61,0.45-11.73,2.03-20.49
		c2.63-14.57,8.52-9.33,8.52-27.18c-1.93,6.69-4.06,13.18-8.11,19.27c-0.41-2.94-0.43-5.77-1.32-8.32
		c-3.24-9.28-1.17-23.1-3.96-32.15c-2.45-7.96,5.03-24.66,9.74-32.15c8.65-13.75,16.61-10.57,15.01-17.24
		c-1.42,2.54-2.94,4.36-5.78,4.77c0.81-12.58,1.52-25.05,8.32-36.61c-3.25,1.62-6.69,8.42-9.03,17.24
		c-1.72,6.49-1.52,13.18-1.62,19.98c-4.87,3.35-7.9,8.22-10.24,13.49c-2.53,5.68-6.25,10.67-7.5,16.94
		c-0.88,4.41,1.69,9.01-7.1,14.4c-11.64,7.14-12.14,21.07-14,23.43c-0.91-1.72,0.2-3.65-1.12-5.07c6.08-4.05,8.22-24.58,9.23-26.98
		c1.62-3.86,0.2-7.4-0.81-11.05c-1.93,12.47-2.33,25.15-8.32,36.51c-5.58-0.3-10.95,0.71-16.13-1.32c3.85,4.97,9.13,3.65,14.3,2.84
		c0.61,4.16-1.12,8.11-0.41,12.07c0.81,0.61,0.81-0.81,1.52-0.41c5.07,7.78,3.89,10.41,2.74,30.32c0,3.14-6.09,6.63-9.63,7.1
		c-4.12,0.55-4.82-3.02-9.94-14.1c-6.99-15.11-8.18-10.88-8.82-16.63c12.2,14.64,10.24,12.98,11.26,12.47
		c-3.59-5.66-12.28-20.3-17.55-22.11c-3.24-1.12-4.56-4.77-7-7.3c5.51-5.51-2-25.95,5.58-29.11c-1.42-1.12-3.75-0.71-3.55-3.14
		c0.61-0.41,1.72,0.41,2.54-0.81c-0.71-1.12,0.51-3.04,0-5.07c-1.32-1.12-2.84-1.93-2.43-4.56c2.54,0.91,2.84,2.54,2.43,4.56
		c1.22,1.72,2.13,3.45,2.13,5.88c3.04-3.14,3.55-7.4,5.17-11.05s4.56-6.69,5.78-10.85c3.45,0.51,5.27-4.26,9.03-1.83
		c0.41-1.22-1.01-1.12-1.01-1.93c0.71-0.61,1.42-1.32,0.81-2.33c6.19-2.23,12.58,2.03,19.07-0.91c0.1,5.17,1.42,9.84,2.74,14.4
		c-9.23,4.97-10.24,6.39-8.01,11.36c1.01-0.91,0-2.33,1.12-3.45c2.03,0.51,4.06-0.2,6.29-1.01c1.01-2.33,1.42-5.07,2.23-7.61
		c0.61-1.93-1.21-3.14-1.32-4.97c-0.19-3.14-0.61-6.29-0.91-9.33c1.73-3.46,5.38-3.67,7.71-6.39c-0.41-1.12,0-2.43,0.1-3.55
		c-1.72-1.42-3.35-0.1-4.97-0.41c0.71-1.52,3.14-1.22,3.55-3.35c-2.03-2.43-3.75,0.1-5.58,0.51c-0.51-2.03,0.91-4.46-0.91-6.39
		c-1.52,0.61-1.83,2.33-3.65,2.74c-1.01-1.32-2.83-1.61-4.26-0.91c-3.39,1.65-5.96,1.22-19.47,1.22c-1.62,0.41-1.62,2.33-3.35,2.74
		c-0.51-1.62-1.22-3.25-4.06-3.04c-0.3,0.1-0.51,1.22-1.32,1.62c-1.12-0.3-1.52-1.93-3.14-1.72c-1.72,1.01-0.91,3.85-3.14,4.87
		c-1.32-1.32-2.74-2.54-4.97-1.93c-0.97,3.06,5.24,3.21-1.42,5.98c1.01,2.43,0.51,3.25-3.45,5.27c0,1.52,1.72,1.32,2.54,2.43
		c-1.32,1.32-2.18,2.74-2.13,4.77c0.09,3.67-4.83,7.22-1.22,16.63c2.73,7.1-0.49,7,1.32,9.74c1.74,2.63,0.71,5.88,2.03,8.42
		c3.05,5.88,0,12.27,1.93,18.05c-1.56,6.23-5.59-1.93-12.47-6.79c-22.76-16.09-3.63,7.63-20.38-34.58
		c-7.81-19.66-11.63-12.76-14.5-29.82c-1.46-8.69-4.06-12.63-2.94-18.76c0.39-2.13,0.1-4.56-2.13-7.1
		c0.2,6.69-1.55,12.69,0.81,18.66c5.54,14.02,2.88,15.4,5.68,18.97c12.42,15.83,18.55,35.81,21.2,62.57
		c1.69,17.15,4.92,16.52,3.75,22.92c-17.49-27.21,0.09,1.72,1.01,4.97c-8.21-4.16-13.29-11.05-17.85-18.56
		c1.52,6.19,5.07,11.05,9.84,15.42c-1.52,1.01-3.35,0.3-4.36,1.83c1.83,0.61,3.45-0.71,5.48-0.3c1.72,0.71,2.74,3.55,5.58,2.94
		c4.46,12.27,8.52,24.44,13.89,36.31c-6.9,7.2-14.91,12.07-25.35,13.49c0.1-2.13-0.94-3.53-1.83-4.97
		c-15.36-25.06-3.47-31.02-15.52-49.19c-9.34-14.09-6.5-14.19-9.74-17.85c-17.62-19.94-6.86-51.84-8.72-55.37
		c-4.45,10.47-0.73,13.57-4.54,15.06c2.01,4.08-1.16,15.66,5.05,31.29c4.37,10.99,6.76,5.72,21.2,38.84
		c2.85,6.55-3.88,16.28,10.34,38.23c4.58,7.07,3.61,22.02,10.75,39.05c5.85,13.95-0.27,15.18,3.65,21.4
		c-2.16,3.35-0.44,4.3-0.81,5.78c-2.23,5.78-1.5,11.95-2.43,17.95c-0.33,2.13-1.64,3.95-1.72,5.98c-0.38,9.62-3.86,6.9-2.84,13.49
		c1.04,6.7-1.84,9.87-0.1,23.02c2.42,18.31,0.11,31.58,4.67,41.38c4.05,8.73,4.78,29.28,4.77,30.93c-0.03,2.74,2.23,4.56,2.23,7.3
		c7.3,3.04,14.71,0.1,22.11,0.51c3.14,4.87,5.58,10.34,10.04,13.69c-1.22,8.42,0.6,15.93,4.56,22.82
		c6.18,10.76-3.44,24.13,10.95,54.87c5.97,12.76,5.57,15.08,9.23,16.33c0.1,0.05,17.32,27.35,19.27,30.93
		c3.54,6.5,5.86,13.5,8.82,20.28c1.11,2.54,0.2,5.58,2.54,7.5c-3.97,4.91-0.8,10.63-3.45,15.92c-3.1,6.19,9.12,6.94,15.82,18.05
		c2.77,4.59,2.48,8.07,10.75,10.24c18.86,4.96,13.35,5.11,18.15,4.77c16.72-1.2,13.82,0.84,19.57-8.11
		c1.93,1.72,3.95,3.13,6.59,2.84c8.41-0.94,17.95,1.72,23.73-8.52C781.71,568.46,775.61,569.62,768.02,560.23z M756.35,559.62
		c4.16-2.64,5.07-2.64,7.3,0C761.12,558.61,758.89,559.72,756.35,559.62z M670.86,61.87c0.91-0.41,1.62-0.71,2.43-0.2
		C672.58,62.58,671.87,62.17,670.86,61.87z M678.97,33.57c-0.71,1.01-0.81,2.33-2.13,2.43C676.03,34.08,676.64,33.27,678.97,33.57z
		 M671.87,27.28c0.51,1.42,0,1.93-1.22,2.33C670.96,28.7,670.86,27.89,671.87,27.28z M661.83,34.28c-0.3,0.71-0.61,1.12-1.22,0.71
		C660.82,34.48,661.02,34.18,661.83,34.28z M662.54,41.18c-1.42-0.71-2.54-0.71-3.85-2.23C660.41,39.55,661.53,39.65,662.54,41.18z
		 M657.47,30.53c-1.22,0.91-2.03,1.62-3.35,2.74C654.83,30.73,654.83,30.73,657.47,30.53z M642.36,47.57c1.42,1.42,0,1.83-0.81,2.74
		C641.45,49.09,641.35,48.28,642.36,47.57z M640.53,31.44c-0.41,1.22-0.81,1.93-2.13,1.62C638.71,32.05,639.42,31.74,640.53,31.44z
		 M641.95,38.54c-1.22,1.22-2.13,2.84-3.85,3.45C639.52,39.35,639.52,39.35,641.95,38.54z M636.88,53.85
		c-0.1,1.12-0.51,1.62-1.83,1.83C635.26,54.46,635.46,53.75,636.88,53.85z M635.46,63.49c0.1,1.22-0.2,1.62-1.12,1.32
		C634.65,64.4,634.96,64.1,635.46,63.49z M633.94,53.55c-0.41,0.61-1.01,0.91-1.83,1.12C632.33,52.95,633.66,52.7,633.94,53.55z
		 M633.33,38.44c0.3,1.22-0.1,1.83-1.42,2.33C631.71,39.35,632.42,38.84,633.33,38.44z M732.22,559.83
		c-0.91,0.61-1.52,0.3-2.03-0.41C731,559.12,731.61,558.81,732.22,559.83z M730.59,555.97c-2.84,0.2-5.38,0.1-8.72,1.01
		C728.16,553.84,728.97,553.74,730.59,555.97z M689.62,419.57c5.41,8.08-0.54,22.85,5.68,43.1c2.09,6.81,3.31,13.82,7.2,19.98
		c8.83,13.98,21.27,35.28,20.38,52.94c-1.42,0.61-2.43,0.41-3.75-0.1c-7.04-16.83-16.56-18.42-25.56-69.88
		c-4.29-24.52-12.87-26.23-14.6-39.76c-1.84-14.37,1.22-16.02-2.54-25.05c-1.19-2.85-2.54-5.88,0.2-9.33
		C679.56,402.85,687.82,416.88,689.62,419.57z M629.07,51.72c0.41,1.52-0.41,2.64-0.81,3.75C628.26,54.26,627.55,52.84,629.07,51.72
		z M626.13,69.57c-1.12-1.52-2.74-2.84-0.71-4.67c1.22,0.1,1.83,0.81,2.23,1.93C627.21,67.51,626.93,67.2,626.13,69.57z
		 M604.94,114.4c-0.61-0.1-0.81-0.41-0.41-1.01C604.84,113.69,605.24,113.89,604.94,114.4z M615.59,154.76
		c-4.27-10.57-7.02-18.2-7.5-30.73c-0.46-11.8-5.18-19.18-5.38-21.5c-0.39-4.77,0.1-9.53-0.91-14.4
		c5.35,0.23,21.17,16.69,24.85,20.59c3.74,3.97,5.97,8.22,6.19,13.69c0.69,17.32-0.64,32.93-11.76,44.42
		C617.41,163.49,617.24,158.85,615.59,154.76z M605.65,240.06c4.26,0.71,7.81,0.51,11.46-0.1c-3.45-0.61-6.79-1.22-10.34-1.83
		c-0.61-1.22-2.23-2.23-0.71-3.96c0.18-4.94-1-9.87,0.41-14.71c0.2-0.91,0.81-2.03-0.51-2.74c-1.22,1.22-0.91,2.84-1.62,4.16
		c-3.96-1.98-3.01-12.9-10.33-37.22c5.48,0.1,10.14-2.03,14.4-4.46c33.15-18.94,26.77-44.18,26.77-60.24
		c1.93,4.77,5.31,8.5,7.71,12.88c5.95,10.86,7.19,17.61,10.95,21.09c2.96,2.74,3.36,0.44,10.45-1.01c6.39-1.31,4.92-3.05,6.69-23.63
		c1.62,1.62,0.61,3.96,2.33,5.58c0.75-5.59-6.73-21.67-6.59-22.01c8.36,12.54,4.81,18.66,22.82,48.27
		c2.23,3.66,6.98,11.23,5.98,15.72c-6.66,29.99-2.86,11.75-10.24,25.46c2.54-0.61,3.25-2.54,4.97-3.85
		c-8.71,30.5-0.77,60.65-13.8,65.21c2.17-8.51,8.68-58.19-0.81-0.61c-0.37,1.66,0.78,2.92-13.89,8.92
		c-1.39,0.57-10.54-0.97-17.34-1.52c-29.44-2.4-39.95-9.67-39.35-6.69c0.71,0.61,2.03,0,2.74,1.22c-1.62,0.51-3.04,0.51-4.67,0.1
		C603.72,255.98,604.13,248.07,605.65,240.06z M683.64,260.95c0.3-1.32,0.71-1.93,1.62-2.33
		C685.77,259.93,684.85,260.24,683.64,260.95z M682.52,261.96c0.3,0.61,0.51,1.12-0.3,2.03
		C682.32,263.18,681.61,262.67,682.52,261.96z M679.48,267.13c-0.2-1.22-0.71-2.33,0.71-3.96
		C680.59,264.9,681.3,266.02,679.48,267.13z M677.65,265.51c-0.1,1.22,1.52,2.33-0.81,3.14
		C676.94,267.54,676.34,266.63,677.65,265.51z M662.34,275.76c1.37-4.56,1.36-1.25,3.25-1.42c1.01-0.81,0.71-2.33,1.42-2.74
		c1.22-0.81,1.83,0.3,2.74-0.1c-0.1-1.72,1.01-2.23,2.54-2.33C674.3,273.5,665.97,276.29,662.34,275.76z M660.82,275.96
		c-0.1,0.3-0.41,0.51-0.71,0.41c-0.2,0-0.2-0.3-0.3-0.51C660.01,275.23,660.82,275.28,660.82,275.96z M657.47,277.78
		c-1.12,0.3-2.13,0.61-3.25-0.1C655.98,273.13,657.73,274.71,657.47,277.78z M652.81,273.22c0.61,0.1,1.32-0.41,1.72,0.51
		C654.53,275.03,652.81,275.99,652.81,273.22z M625.22,270.58c-1.01,0.1-2.03,0.61-2.84-0.71
		C623.6,269.47,624.41,270.08,625.22,270.58z M620.56,269.77c-0.71,0.51-1.32,0.51-2.33,0.1
		C619.14,268.76,619.85,268.25,620.56,269.77z M615.48,269.16c-0.51,0.51-0.92-1.02,0.1-0.81
		C615.89,268.66,615.79,268.96,615.48,269.16z M606.56,267.54c0.2,0.3,0.41,0.71,0.71,1.12c1.32-0.41,1.42-1.72,2.54-1.62
		c0.81,0.41,0,1.72,1.32,1.83c0.71,0.3,0.71-1.42,1.72-0.91c-1.01,2.13-7.91,2.13-11.46,0
		C603.01,266.22,605.04,269.26,606.56,267.54z M615.79,383.16c4.56-1.93,9.94-2.23,12.47-0.81
		C623.8,382.55,619.85,383.56,615.79,383.16z M610.82,381.94c-1.32-1.93-2.34-3.24-2.43-5.17c-1.68-35.85-6.23-28.72-7-42.29
		c-2.1-36.97-3.56-35.69-2.74-44.12c1.37-14.03-1.71-9.08,1.12-14.4c2.16-4.08,0.69-4.31,1.42-5.78c0.91-0.2,1.83-0.1,2.74,0.41
		c-0.41,1.93-0.81,3.85-1.42,6.49c2.43-2.23,2.84-4.67,3.96-6.69c1.83,0.3,3.65,0.51,5.78,0.71c-2.23,3.35-3.35,6.59-2.03,10.65
		c0.51-3.04,1.59-5.5,3.04-7.81c2.58-4.1,4.1-2.53,17.34-0.91c-1.36-2.55-10.49-3.33,9.63-1.32c1.01,1.22,0.3,2.94,1.62,3.25
		c1.52,0,1.42-1.62,2.54-1.62c0.81,0.51-0.5,2.12,1.32,2.43c1.12,0.19,0.51-2.03,1.83-1.72c1.22,0.81-0.41,3.04,1.93,2.94
		c1.12-0.2,0.61-2.03,1.93-2.13c2.07,3.8-1.98,3.84,6.79,4.77c4.37,13.12,1.16,3.66,3.75-1.52c0.93-0.23,2.54-0.3,2.64-0.2
		c4.46,7.2,6.19,14.71,6.9,22.51c2.74-8.52-0.41-15.82-4.87-23.12c3.63-1.11,6.26-3.23,8.29-6.25c-0.49-0.99-0.86-2,0.03-3.29
		c0,0.31,0,3.02,0,3.35c1.42,0.2,2.23-1.12,3.55-1.42c1.93,1.01,3.85,2.03,5.88,3.14c-0.71-2.13-2.54-2.94-3.85-4.56
		c2.11-1.72,3.92-2.45,5.57-2.42c-0.41,0.69-1.51,0.8-1.31,2.01c0.91,1.22,2.84,0.81,4.26,2.74c-0.3-2.62-1.91-3.54-2.93-4.75
		c4.25,0.11,7.37,5.38,11.65,12.15c2.56,4.04,4.46,8.11,1.52,13.08c-4.26,2.43-19.68,25.25-19.47,29.51
		c1.5-1.91,2.64-3.47,3.51-4.72c-0.13,0.73-0.17,1.5-0.06,2.28c4.87-7.5,9.84-14.2,17.04-19.47c-6.58,0.97-13.84,13.34-14.5,12.68
		c3.85-6.79,7.91-13.39,13.59-18.66c17.91,39.29,10.87,34.38,14.6,42.19c3.27,6.83,3.45,12.92,4.87,23.22
		c-2.28,1.9-7,0.38-16.84,4.36c-11.46,4.64-17.28,2.15-24.54,11.66c-0.17,2.97-4.33-0.07-12.17,0.91
		c-24.05,3.03-22.37,4.31-25.66,3.65C631.69,377.11,616.7,378.66,610.82,381.94z M681.81,514.29
		c-15.02-23.49-32.24-48.47-32.05-75.66c0.02-2.47,0.01-10.57-1.12-12.88c-2.68-5.52-8.1-23.08-6.29-27.08
		c1.83,1.22,2.13,3.55,4.36,4.46c1.42-3.38-3.06-3.52-3.65-6.59c-0.31-1.62-1.22-2.74-3.04-1.72c-5.78-7.99-11.27-16.14-1.72-13.49
		c1.52,3.04,3.85,5.58,6.09,8.42c1.52-3.65-4.26-4.77-2.13-8.32c21.08-6.45,14.82,0.07,19.88,0.51c-0.17-2.78-7.12-5.63,11.97-4.77
		c2.03,6.79-0.61,13.08-1.93,19.67c4.14,0.39,2.75,20.76,4.67,30.93c0.71,3.75,2.43,7.5,1.83,10.85c0.61,1.72,1.42,0.2,1.72,0.61
		c4.06,7.71,8.23,14.91,9.74,23.22c8.52,47,13.82,48.46,26.37,72.51c-8.11,1.62-14.1,6.29-19.67,11.56
		C693.6,544.01,695.52,535.71,681.81,514.29z M747.43,597.65c-14.65,1.37-33.24-1.2-37.42-15.31c-0.9-3.04-12.31-11.56-15.21-13.39
		c2.84-5.27,1.12-10.85,2.54-16.43c0.41-0.41,1.62,0.81,2.13-0.41c0.2-1.22-1.22-1.93-1.32-3.25c2.54-1.72,4.26-4.67,7.2-5.98
		c1.01,2.64,1.01,5.68,4.67,6.59c-0.1-2.33-2.33-3.85-1.83-5.98c5.48-3.75,10.95-5.78,15.11-5.48c-1.01,3.04,1.52,5.68,0.91,8.82
		c-6.31,0-21.53,4.85-16.94,9.03c18.26-6.69,18.26-6.69,20.79-4.77c-4.19,0.15-19.17,2.99-18.97,7.2c1.22,1.72,2.84,0.61,4.06,1.01
		c1.83,4.97,5.78,1.22,8.52,2.23c-1.32,1.32-3.75,0.51-4.67,2.54c1.42,1.72,1.42,1.72,2.03,1.83c10.75,0.88,15.28-6.64,15.82-0.1
		c-4.67,0.2-9.33,0-12.88,3.55c5.78,2.54,10.55-1.42,15.82-2.54c2.49,5.3,8.81,14.91,11.76,15.92c3.31,1.13,3.33,5.05,5.58,7.71
		C753.72,593.29,750.27,597.39,747.43,597.65z"/>
	<path d="M445.2,275.14c-0.91-0.71-0.91,0.41-1.72,0.61c-1.93-7-5.01-13.68-7.4-20.59c-2.74-7.88,0.8-12.84,2.03-29.11
		c-2.6,1.04-5.52,21.62-5.88,24.44c-0.65,5.15,4.81,16.82,7.1,21.5c6.21,12.68-2.88,22.9-1.83,26.98
		c-4.25,3.78-15.67,7.41-18.97-0.61c-1.68-4.09-6.78-17.71-5.68-22.11c2.15-8.62,3.63-13.17,2.94-16.63
		c-1.72,0.3-1.12,1.93-1.93,2.84c1.72-9.63-3.29-17.63-6.49-25.96c-9.67-25.14-3.9-39.88-1.22-52.13c3.85-1.12,7.61-1,11.26-1.42
		c2.54-0.29,7.17,3.05,7.81,5.58c3.03,12.08,13.96,13.71,12.98,29.92c-0.12,1.93,0.5,3.95,0.3,5.88c-0.19,1.87,7.88,9.49,9.43,14.4
		c-0.61-3.25-0.71-6.59-2.74-9.33c-8.61-11.61,0.49-20.96-11.76-31.95c2.41-12.66,1.33-1.99,3.14,1.12
		c0.93-19.53,1.59-18.46,0-18.46c-3.35,3.25-3.45,7.81-4.46,12.58c-7.1-10.51-8.67-12.41-12.17-12.07
		c-6.12,0.59-15.07-3.05-19.07,5.17c-17.96,36.92,1,44.16-19.6,60.34c-13.23,8.82,6.52,9.6-49.77,6.29
		c4.97,1.93,10.34,0.41,15.31,2.23c-15.75,2.1-26.69-4.89-40.97-3.35c-3.54,0.38-1.46-2.73-17.14-6.09
		c6.29-4.56,12.58-6.09,19.68-4.77c0.65,4.34,3.48,4.05,3.65,5.55c0.15,1.28-1.48,0.4-2.03,2.17c-0.39,1.25-0.05,1,2.43,1.62
		c4.27-2.3-5.6-9.56,0-11.76c3.23-1.27,6.48-2.71,10.14-1.52c11.29,3.66,13.06,1.87,15.72,3.25c7.02,3.62,11.86,2.78,23.33,3.65
		c6.75,0.51,13.31,2.51,20.05,2.33c-2.4-5.11-32.46-2.4-41.15-6.79c-4.28-2.16-9.39-0.9-14.1-2.84c-6.6-2.72-12.47-1.52-17.85,3.25
		c-3.75-3.14-8.02-2.35-11.97-1.12c-12.58,3.93-22.36,4-26.27,7.71c-2.91,3.09-6.32-0.18-8.42,0.41
		c-11.19,3.1-18.6-1.35-25.56,13.29c-1.53,3.83-0.55,0.92-6.9,1.83c1.72,1.32,3.75,0.71,5.48,1.22c0.71,0.81,0.1,1.62,0,2.33
		c-2.22,16.51,5.7,39.87,3.25,44.12c-1.52,2.64-0.1,5.78-0.81,8.92c-5.04,0-5.03,10.88-2.94,18.36c2.03-0.81,1.52-2.43,1.22-3.75
		c-2.49-14.57,2.25-12.3,3.14-13.49c0.91-1.83-0.1-4.36,0.41-7c2.94,9.84,4.67,19.98,13.39,26.98c-6.15-0.53-14.07-1.54-19.27,0.1
		c-0.27,0.09-21.6,11.8-32.66-1.32c-55.95-66.41-12.79-67.58,32.56-88.74c-0.67,1.64-2.16,1.83-2.57,2.97
		c2.27-0.99,4.55-1.98,6.62-3.28c1.9-1.18,22.45-2.9,24.95-2.94c-2.54-2.13-5.07-2.1-7.1-1.83c-8.2,1.12-16.73,0.92-24.54,3.96
		c-6.29,2.44-12.97,3.77-18.76,7.5c-3.95,2.55-8.61,3.46-12.88,5.27c-31.89,13.55-15.78,30.78-25.35-24.85
		c0.3-1.52,1.32-0.71,1.83-1.12c0.81-1.93,1.12-3.85,0.91-6.19c-1.93,1.12-1.22,3.04-2.33,4.56c-1.32-3.04-2.83-5.68-3.45-8.82
		c-9.72-49.42-12.51-12.33,22.01-44.12c5.7-5.25,9.77-11.86,10.95-19.57c1.56-10.14,3.85-20.28,1.22-30.73
		c2.23,7.3,8.19,12.38,10.75,19.47c1.84,5.09,7.45,19.24,12.17,16.53c5.29-3.04,11.41-0.49,11.87-8.32
		c1-17.33,0.96-16.26,1.83-16.63c2.61,9.12,4.42,3.25-4.97-16.73c1.93,1.83,4.57,6.19,5.27,9.13c3.11,12.95,14.67,35.14,19.07,40.67
		c12.61,15.87-4.61,28.59-4.36,66.63c0.01,0.96,2.24,1.65,2.23-0.81c-0.09-27.34,18-67.38,16.13-97.77
		c-0.44-7.22,1.53-6.34,5.68-11.56c13.23-16.67,14.57-18.36,15.62-24.54c3.57-21.05,5.88-15.73,5.38-40.77
		c-2.95,2.13-1.24,38.13-14.5,52.53c-2.33,2.53-3.35,5.88-5.27,8.62c-5.32,7.58-8.33,5.77-8.62,14c-0.31,9.02-2.45,38.07-5.38,40.16
		c-3.25-4.36-4.56-7.71-5.27-13.39c-1.83-0.3-0.91,1.52-1.62,2.23c-3.9-3.9-2.33-4.48-4.26-8.01
		c-12.28-22.45-9.07-27.45-17.14-38.74c2.84-11.56,7.1-22.01,18.76-27.89c-0.3,3.45,0.91,6.39,0.81,9.53
		c-0.59,18.42,5.56,27.73,3.35,43.51c-2.38,17.03,1.8,25.53,1.62,4.67c-0.18-21.67,5.96-12.26,9.63-33.57
		c0.39-1.55,0-1.69-0.71-2.64c-1.62,7.3-3.65,14-7.71,19.68c-2.23-10.55-4.01-21.09-3.96-32.05c0.04-8.74-2.11-5.76-1.83-11.97
		c0.59-12.77,10.09-34.43,23.33-40.67c1.93-0.91,2.03-1.62,1.62-4.77c-1.22,2.43-2.43,4.46-5.48,4.36
		c0.61-12.47,1.62-24.75,7.5-36.1c-8.11,11.05-10.75,23.63-9.94,37.12c-7.22,5.09-9.77,12.4-15.62,23.73
		c-4.97,9.64-1.03,14.49-5.48,18.05c-10.14,8.12-12.4,8.79-16.53,22.51c-0.4,1.32-0.51,2.64-1.22,4.16
		c-1.52-1.62,0.3-3.65-1.42-4.97c3.57-2.43,8.21-15.74,8.21-23.73c0-3.02,4.5-4.86,0-15.11c-1.77,0.62,0.23,6.49-0.81,9.03
		c-1.21,2.94-1.62,6.09-1.62,9.23c0,6.16-5.35,18.64-5.68,18.97c-5.78-0.2-11.05,0.71-16.23-1.32c4.06,5.17,9.43,3.35,14.5,2.94
		c0.2,4.46-1.12,8.72-0.61,13.18c1.2-1.99,1.12-1.88,1.22-1.83c4.16,5.07,4.55,10.65,3.85,16.53c-1.24,10.47,1.93,18.24-8.32,19.57
		c-0.1,0.1-0.2,0.1-0.3,0.2c-3.55,1.72-4.84,1.41-6.69-2.03c-4.61-8.55-7.08-17.72-12.58-23.43c-1.19-1.24-1.42-2.84-1.83-4.46
		c25.64,32.23,1.38-6.16-7.5-10.45c-2.33-1.12-3.75-4.06-5.48-6.09c0.91-1.72,2.32-2.64,2.23-4.56
		c-0.95-21.73-0.13-23.31,3.25-25.15c-2.84-0.71-3.45-1.22-3.35-2.54c0.81-0.41,1.93-0.1,2.54-1.42c0.72-8.64,1.24-2.6,2.74,0.41
		c3.55-7.5,6.39-15.31,11.16-22.01c1.01-0.71,1.93,0.51,2.64-0.1c1.12-3.14,3.55-2.23,6.59-1.83c-2.84-1.62-0.1-2.84-0.91-4.16
		c6.29-2.43,12.68,1.83,19.47-1.12c-1.12,5.58,1.83,10.14,1.93,14.81c-8.72,3.96-9.74,5.48-7.61,11.46
		c0.41-1.62,0.61-2.74,0.91-4.26c2.32,1.66,6.57-1.32,5.9,0.56c1.47-0.81,3.4-9.38,3.02-10.09c-2.15-4.1-1.32-8.72-2.43-12.88
		c1.72-3.25,5.38-3.96,7.81-6.39c-0.2-1.22,0-2.54,0.1-3.75c-1.52-0.91-2.94-0.1-4.36-0.51c0.51-1.52,2.94-1.22,2.84-3.35
		c-2.03-1.83-3.65-0.2-5.48,1.01c-0.3-2.23,0.51-4.56-0.51-6.79c-1.93,0.51-2.43,2.64-4.26,3.14c-1-2.87-4.36-1.11-7.3-0.3
		c-5.48,1.12-11.07-0.58-16.53,0.51c-1.42,0.28-1.32,2.54-3.35,2.54c-1.12-0.3,0.3-1.42-0.81-2.23c-3.64-1.82-2.88,0.09-4.36,1.01
		c-1.01-0.51-1.42-2.23-3.35-1.72c-0.91,1.32-0.91,3.35-2.64,4.67c-1.52-0.91-2.94-2.94-5.38-1.72c-0.51,1.72,1.52,2.23,1.83,3.55
		c-1.01,0.61-1.62,1.93-3.14,1.93c1.93,3.96-1.93,4.16-3.55,5.78c0.2,1.22,1.72,1.01,2.13,1.72c-2.33,7.81-6.44,14.94-2.43,23.22
		c1.88,3.89-1.18,6.46,1.52,9.84c1.22,1.52,0.1,3.14,0.61,4.67c5.07,15.21-0.29,12.87,2.64,20.38c-2.28,7.41-6.71-6.61-24.54-14
		c-1.53-5.47-8.33-34.19-16.63-42.49c-6.29-5.35-5.91-16.04-7.3-19.98c-4.78-13.57,0.7-15.58-3.85-20.59
		c-1.69,25.65,2.9,16.81,4.67,32.66c0.85,7.6,13.34,14.76,19.17,44.22c5.69,28.76,1.63,19.81,7.5,41.58c3.39,12.56-3.55-1.96-7-5.78
		c-0.81,0.81,3.88,8.02,6.59,11.16c1.22,1.41,1.83,2.64,1.32,4.67c-7.81-4.56-13.18-11.16-17.34-19.57
		c-0.3,3.96,1.32,6.69,9.23,16.23c-1.22,0.41-2.23,0.81-3.75,1.42c1.93,0.71,3.45,0,4.97-0.1c1.93,0.91,2.94,3.65,5.98,3.14
		c0.88,2.74,10.46,31.75,14.1,35.9c-7.61,8.32-18.76,14.1-25.66,13.39c-0.2-1.52-0.83-2.93-1.72-4.36
		c-15.39-24.68-3.54-30.5-15.31-48.88c-10.14-15.83-6.67-14.41-10.75-19.27c-15.97-19.02-6.76-49.06-8.11-54.26
		c-1.72,3.85-2.31,7.61-2.54,11.36c-0.24,3.92-2.08,3.64-1.42,3.64c0,41.86,10.67,31.39,25.25,68.66c3.7,9.44-2.74,19.58,9.03,36.51
		c7.2,10.37,4.02,22.82,12.37,41.78c0.31,0.71,3.77,30.21,4.46,38.94c1.64,20.7-4.46,14.53-2.94,24.54
		c3.25,21.49,13.88,31.63,21.91,43.31c8.33,12.11,22.12,14.98,35.09,9.33c15.25-6.64,17.97-0.68,24.85-3.85
		c7.41,4.2,5.11-3.04,11.66-3.04c7.58,0,15.39-2.53,32.86-7.1c5.61-1.47,11.18-4.28,12.37-9.74c0.98-4.47,3.25-8.72,4.16-13.69
		c8.01,1.42,15.62-1.52,23.53-1.32c-0.51-0.91-1.52-0.1-2.13-0.81c-0.1-1.01,0.71-0.91,1.32-1.12c8.69-2.97,11.02-10.34,34.89-12.47
		c13.33-1.19,16.27-1.87,23.12,1.72c1.32-3.55,2.03-7.2,0.2-10.75c-2.03-3.95-3.73-8.14-6.9-11.36c-5.44-5.53-2.91-10.78-5.07-13.89
		c-0.71-0.61-0.91,0.91-1.42,0.41c-0.61-1.42,0.91-1.93,1.01-3.14c-1.22-0.91-1.62-2.64-3.65-2.94c1.22-1.32,2.33-2.33,3.35-3.45
		c1.12,0.71,1.93,2.03,3.45,1.32c1.52-1.42,0.91-3.14,0.3-5.07c1.32,0.91,1.52,2.64,3.14,2.43c3.04-1.72-1.42-4.06,0.41-5.98
		c1.42,0.51,1.32,2.54,2.94,2.33c2.18-1.51-1.12-3.55-0.51-5.88c0.83-3.14,0.53-6.39,1.01-9.63c4.91-33.03,0.38-22.66,10.45-43.1
		c0.75,1.68-3.87,14.03-3.55,25.76c0.5,18.22,6.05,28.95,9.53,38.54c5.9,16.26-0.49,26.94,0.3,30.53c1.9,8.63,4.26,17.04,9.84,24.24
		c-2.48,0.53-7.23-3.87-11.16-4.87c-2.03-0.52-3.57-1.6-5.07-2.94c-7.36-6.55-11.18-1.44-6.69-0.51c4.6,0.96,5.7,3.76,6.29,4.06
		c11.8,4.54,16.43,12.08,32.76,3.55c1.13-0.59,2.22-1.52,2.54-2.84c0.89-3.76,3.96-6.29,4.87-10.55c6.97,12.19,2.82,6.45-0.41,7.1
		c1.62,2.54,3.55,3.25,7.5,2.33C446.83,291.16,441.76,284.06,445.2,275.14z M240.44,73.53c1.12-0.3,1.83-1.22,2.94-0.1
		C242.37,74.14,241.66,73.93,240.44,73.53z M246.43,45.54c3.13-0.89,2.11,0.33,0.71,2.54C246.43,47.06,246.02,46.35,246.43,45.54z
		 M241.66,38.64c0.71,1.93,0.1,2.43-1.32,2.74C240.75,40.47,241.05,39.86,241.66,38.64z M225.13,49.8c0.61-0.51,1.01-0.3,1.22,0.51
		C225.74,50.81,225.43,50.4,225.13,49.8z M227.46,41.99c-1.32,1.01-2.13,1.62-3.14,2.43C224.11,42.29,225.13,41.89,227.46,41.99z
		 M212.25,59.13c0.91,1.22,0.71,1.72-0.51,1.93C211.44,60.45,211.54,59.94,212.25,59.13z M208.9,44.62c-0.1-0.2-0.1-0.41-0.2-0.51
		C210.6,41.74,211.06,44.62,208.9,44.62z M211.33,49.9c-1.42,2.84-1.42,2.84-3.65,3.55C208.39,51.72,209.92,50.91,211.33,49.9z
		 M206.37,65.11c0.61,1.32-0.1,1.72-0.81,2.13C204.69,66.38,205.37,65.78,206.37,65.11z M205.66,75.66c-0.3,0.3-0.51,0.71-0.81,1.12
		C204.54,75.96,204.54,75.35,205.66,75.66z M201.9,66.12c0.41-0.71,0.51-1.93,2.23-1.01C203.32,65.62,202.92,66.43,201.9,66.12z
		 M203.63,50c-0.41,1.32-0.51,2.13-1.72,2.13C201.5,50.91,202.21,50.61,203.63,50z M201.7,77.38c-2.13-1.12-3.14-2.23-3.14-4.46
		C201.29,73.43,201.29,75.25,201.7,77.38z M199.27,63.18c-0.3,1.72-0.51,2.94-0.71,4.06C198.35,66.12,197.54,64.7,199.27,63.18z
		 M195.62,76.27c3.78,2.1,0.81,1.77,0.81,5.58C195.21,79.61,193.18,78.29,195.62,76.27z M185.78,166.83
		c-2.2-7.21-5.66-14.1-6.69-21.7c-0.9-6.59-1.13-13.28-2.64-19.78c-0.82-3.55-2.75-6.49-3.55-9.84c-1.23-5.17-0.1-10.55-1.22-16.43
		c9.13,5.37,15.84,12.48,23.33,19.68c6.41,6.16,8.24,13.49,7.81,21.91c-1.41,27.82-4.91,27.52-11.76,38.13
		C187.6,175.35,187.01,170.88,185.78,166.83z M287.6,242.69c-1.21,3.03-3.12,2.59-7.81,2.23
		C282.33,243.91,284.76,243.2,287.6,242.69z M279.89,245.03c-1.12,1.22-2.54,1.01-4.16,1.01
		C277.15,244.82,278.47,244.92,279.89,245.03z M257.28,339.04c-1.62-1.52-2.52-3.07-4.06-4.06c-1.61-1.04-2.94-2.23-3.75-4.46
		c4.67-0.91,8.21-3.55,13.08-5.58C260.52,330.01,260.62,335.08,257.28,339.04z M294.5,328.29c-10.84,1.25-32.54,9.39-31.24,4.16
		c1.12-10.24,9.43-16.63,13.69-25.15c0,2.74,0,5.58,0,8.82c1.67-2.8,2.1-6.04,0.3-9.33c1.62-2.13,3.35-4.16,5.17-6.49
		c3.65,5.27,6.37,10.34,5.17,16.84C285.99,325.86,294.87,326.44,294.5,328.29z M299.06,327.58c-15.36-9.22-5.4-6.93-9.33-19.47
		c-1.14-3.64-3.35-6.59-5.98-9.23c7.15-8.68,2.78-2.6,23.63,5.38c-4.56,3.85-10.24,5.27-13.39,9.94
		c16.79-4.63,14.94-11.29,18.97-7.61C307.06,322.3,307.41,325.22,299.06,327.58z M393.38,283.97c0.89,1.64,0.71,3.04-0.3,5.07
		c-0.2-2.13-1.42-3.04-2.43-3.96c0.2-0.81,1.52-1.22,0.51-2.13c-1.01-0.71-2.33,0.1-3.65-0.91c-2.54-4.16-4.26-9.03-4.87-14.5
		C386.89,272.71,390.26,278.23,393.38,283.97z M379.08,263.18c-3.14,2.64-7.61,1.83-10.75,4.67c4.06,1.42,7.1-2.94,10.95-1.52
		c-0.2,5.88,2.84,10.85,4.56,16.23c-4.26,2.54-8.92,1.12-14.1,2.03c10.01,4.33,13.2-3.72,17.24,2.33
		c-0.44,0.04-21.13,1.58-27.79,3.35c-9.01,2.38-27.04,13.28-32.86,13.49c-28,0.99-46.91-21.21-50.91-19.88
		c6.52,9.42,9.75,3.99,0.61,12.17c-2.2,0.37-1.17,2.06,0.07,0.38c4.23-1.3,6.77-7.48,9.36-2.81c-17.88,17.56-15.92,24.93-28.7,31.54
		c-2.74,1.42-5.48,2.84-8.21,5.07c-3.65-7.1-6.3-14.3-6.79-22.11c-0.69-10.87-2.11-10.08-3.45-24.24
		c-2.96-31.38,3.5-31.33,18.15-34.58c4.26,2.43,5.88,2.43,9.23,0.2c-0.91-1.22-2.84,0-4.06-1.62c7.4,1.52,14.5-0.91,21.5,0.91
		c0.41-0.61-1.01-0.91-0.41-1.62c6.29-0.51,11.97,1.32,17.14,4.77c-16.03,1.72-2.98,1.29-2.33,1.22
		c21.85-2.54,35.48,6.59,51.22,3.45c8.46-1.69,12.26,2.48,28.09-1.93C380.98,253.51,380.53,253.05,379.08,263.18z"/>
	<path d="M230.5,252.23l0.1,0.1C230.69,252.08,230.75,252.14,230.5,252.23z"/>
	<path d="M471.17,199.18c-0.57-3.44-11.68-17.57-12.98-19.27c-4.88-6.38-13.39-5.88-19.27-4.46c-1.12,0.1-2.03,1.01-1.52,3.14
		c3.95-2.1,12.25-3.24,15.52,0.41c8.38,9.35,18.14,16.25,18.56,33.27c0.57,23.43-1.19,70.68-1.22,70.79
		c-2.17,10.43-3.61,6.73-5.88,14c-4.26,1.42-8.92-0.61-12.78,1.93c0.49,2.75,4.44,1.42,11.66,1.42c2.87,0,11.03-10.47,9.33-19.88
		C471.95,276.97,478.37,242.82,471.17,199.18z"/>
	<path d="M301.09,64.3c4.42-3.19,1.48-7.52,3.75-10.75c3.26-4.65,2.75-7.2,7-24.75c1.01-4.16,0.92-8.33,1.42-12.47
		c0.09-0.71,0.1-1.42-0.91-2.03c-2.61,1.96,1.64,5.32-7.1,31.95C299.24,64.55,299.8,63.41,301.09,64.3z"/>
	<path d="M713.15,60.65c-1.2,4.85-1.95,9.84-2.33,14.91c-0.92,12.37-10.68,18.02-8.92,19.78c14-8.49,11.78-31.08,14.6-38.84
		C713.76,57.2,713.53,59.12,713.15,60.65z"/>
	<path d="M283.24,72.01c-1.2,4.54-1.9,9.13-2.13,13.79c-0.55,11.34-7.52,16.31-7.71,19.17c10.23-3.24,10.97-28.92,12.78-36.61
		C283.75,68.76,283.62,70.58,283.24,72.01z"/>
	<path d="M545.4,14.1c2.18-32.19-9.04-3.57,5.27,29.11C554.66,38.37,544.1,33.38,545.4,14.1z"/>
	<path d="M121.07,50.2c-9.71-17.07-3.83-26.89-6.39-37.63c-3.85,14.81-0.1,28.4,5.98,42.49C121.78,52.94,121.88,51.62,121.07,50.2z"
		/>
	<path d="M694.89,394.72c1.52-1.12,2.84-2.43,4.56,0.1c0.41,2.13,1.5,4.97,0.81,8.11c-1.04,4.73,5.58,6.49,7.91,13.49
		c0.71-3.45,0.06-6.24-2.54-8.52c-5.97-5.22,0.19-13.58-7.71-16.33C691.97,389.49,694.81,393.55,694.89,394.72z"/>
	<path d="M657.57,64.2c0.71-1.32,1.72-2.84,3.96-1.93c-1.01-5.48-9.84-6.19-15.92-1.01c2.33,0,3.45-1.32,5.07-1.83
		c1.62,1.22,3.96,1.01,6.69,1.62c-3.75,0.91-6.9,0.71-9.53,2.54C650.98,64.5,654.12,64.7,657.57,64.2z"/>
	<path d="M645.81,97.16c0.44-1.33-9.83-7.64-10.24-7.91c-1.32-3.45-2.54-7.1-2.74-10.95c-0.84,2.53-1.3,9.97,0.2,10.95
		c14.1,9.26,9.08,12.6,13.79,16.84c0.2-0.2,0.41-0.3,0.61-0.41C642.19,93.77,645.36,99.65,645.81,97.16z"/>
	<path d="M703.01,433.97c-0.81-1.83-2.64-2.94-4.77-3.55c6.9,8.32,8.82,19.17,15.21,27.79
		C710.92,449.69,706.58,442.07,703.01,433.97z"/>
	<path d="M724.31,49.9c1.19,0.59,3.08-1.77-0.41-3.04c-11.39-4.15-2.33-16.45-3.75-22.51C717.25,34.49,711.81,45.29,724.31,49.9z"/>
	<path d="M295.92,61.05c-0.79-4.33-9.77-2.94-7.81-13.49c0.72-3.85,2.43-7.5,2.13-11.56c-1.01,5.38-4.19,9.94-3.75,15.92
		C286.93,58.06,292.46,62.21,295.92,61.05z"/>
	<path d="M123.61,81.24c-0.61-8.21-0.81-16.43-1.42-24.54C120.57,65.01,120.06,73.22,123.61,81.24z"/>
	<path d="M191.25,320.78c2.23-9.84,2.43-20.08,4.16-30.02C192.17,300.5,191.36,310.54,191.25,320.78z"/>
	<path d="M182.74,301.72c6.02-19.07,0.9-8.37,11.05-12.27c-3.25-0.51-6.09-0.1-8.62-0.81c-0.61-1.62,0.91-2.94,0.1-4.36
		c-1.12,1.01-0.81,2.64-1.62,3.75c-1.93,1.12-3.85-0.61-6.09,0.1c2.13,1.83,4.56,1.42,6.9,2.03
		C183.95,294.11,182.13,297.66,182.74,301.72z"/>
	<path d="M767.92,566.52c-5.07-0.81-9.43,3.04-14.1,1.01C755.54,572.71,762.95,572.1,767.92,566.52z"/>
	<path d="M450.98,243.81c1.62,9.53-4.06,16.94-4.97,25.76C450.07,260.54,455.35,247.87,450.98,243.81z"/>
	<path d="M552.91,48.48c0.12-11.98-4.41,5.03,0.2,20.89C554.68,66.67,552.75,63.95,552.91,48.48z"/>
	<path d="M687.8,391.47c-3.04-3.85-5.48-8.01-7.81-12.37C677.65,382.65,681.3,388.43,687.8,391.47z"/>
	<path d="M231.52,199.79c0.17,6.01,2.38,3.81,2.84,20.79C236.89,216.63,235.17,204.26,231.52,199.79z"/>
	<path d="M655.95,86.61c0,3.32,5.75,0.71,13.89,0.71C668.55,84.62,668.51,85.5,655.95,86.61z"/>
	<path d="M126.75,61.76c-1.42-4.16-2.43-8.42-2.64-12.98C121.28,51.42,122.7,58.21,126.75,61.76z"/>
	<path d="M234.26,222.92c-2.54,4.41,3.36,5.02-2.84,16.94C233.5,241.94,237.5,232.03,234.26,222.92z"/>
	<path d="M557.37,51.01c-1.83-4.87-3.04-9.13-3.55-13.59C551.59,40.97,553.11,47.06,557.37,51.01z"/>
	<path d="M659.5,92.7c2.94,1.12,5.48,0.71,8.01-0.41c-0.61-2.74-2.64-2.64-4.46-2.84C661.12,89.35,660.21,90.67,659.5,92.7z"/>
	<path d="M549.06,7.61c-1.12,7.91-0.41,15.21,2.43,20.49C550.17,21.3,548.35,14.6,549.06,7.61z"/>
	<path d="M605.85,139.65c-1.42,3.85,0.2,7.5,0.51,11.26C608.39,147.06,606.66,143.3,605.85,139.65z"/>
	<path d="M438.41,256.08c1.62-3.75-0.3-7.1-0.91-11.05C435.67,249.29,437.4,252.63,438.41,256.08z"/>
	<path d="M118.44,20.69c-0.51,7,0.51,12.98,2.64,18.86C120.36,33.57,118.64,27.59,118.44,20.69z"/>
	<path d="M176.04,151.32c-1.42,1.32-1.22,6.49,0.3,10.95C177.66,159.33,177.66,158.31,176.04,151.32z"/>
	<path d="M207.89,293.1c-1.93,6.49-1.32,13.18-0.81,19.88C207.38,306.38,207.28,299.69,207.89,293.1z"/>
	<path d="M248.15,240.87c-3.96-0.51-8.01-0.91-11.97-1.42C239.93,242.29,243.99,242.08,248.15,240.87z"/>
	<path d="M226.24,198.98c-10.16,1.6-5.57,1.42,0.81,1.42c0.51-1.62,1.93-2.74,3.65-3.75C228.37,195.33,228.37,195.33,226.24,198.98z
		"/>
	<path d="M203.02,290.56c-2.23,2.54-4.56,9.74-4.46,14.71C200.18,299.79,202,295.23,203.02,290.56z"/>
	<path d="M711.32,104.16c-5.17,3.45-6.79,5.38-6.9,8.11C707.37,109.84,709.5,107.1,711.32,104.16z"/>
	<path d="M668.83,77.99c-2.94-1.22-5.17,0-7.71,0.71C663.05,80.63,666.7,80.32,668.83,77.99z"/>
	<path d="M237.4,222.21c2.23,2.43,4.36,1.24,6.19,0.91c2.13-0.38,3.65,1.01,6.29,1.52C245.92,219.77,241.76,222.61,237.4,222.21z"/>
	<path d="M281.11,115.62c-2.74,2.13-5.58,4.16-7,7.61C277.36,121.5,279.28,118.66,281.11,115.62z"/>
	<path d="M133.85,40.26c2.43,2.84,3.45,5.48,3.65,8.52C139.23,44.93,138.31,42.8,133.85,40.26z"/>
	<path d="M586.48,111.05c-0.2-3.45-2.74-5.88-3.75-9.03C582.42,105.68,584.75,108.21,586.48,111.05z"/>
	<path d="M699.97,126.57c-1.22,2.03-3.14,3.45-4.87,5.48C698.95,132.15,700.17,130.83,699.97,126.57z"/>
	<path d="M270.36,137.42c-1.72,2.33-3.14,4.16-5.38,6.19C269.04,143.61,269.95,142.59,270.36,137.42z"/>
	<path d="M697.33,413.48c-1.72-2.74-1.83-5.48-2.74-8.52C693.07,409.02,693.88,411.45,697.33,413.48z"/>
	<path d="M710.31,368.35c2.74,9.95,2.14,8.85,3.45,8.42c0-3.25-1.22-6.09-2.84-8.82C710.61,368.15,710.51,368.25,710.31,368.35z"/>
	<path d="M705.85,392.69c-1.32,3.25,0.51,5.88,1.42,8.62C706.76,398.47,706.66,395.53,705.85,392.69z"/>
	<path d="M237.7,200.3c2.64,1.83,5.58,0.91,9.23,0.81C243.48,199.18,240.54,199.59,237.7,200.3z"/>
	<path d="M180.1,208.52c0,3.55,0.71,4.36,4.97,5.58C185.17,212.51,184.57,212.98,180.1,208.52z"/>
	<path d="M231.31,239.85c-1.65-1.65-0.23-0.2-10.14,1.22C224.82,242.59,228.17,241.27,231.31,239.85z"/>
	<path d="M156.37,122.82c0.2-3.65-3.14-5.98-3.65-9.33C152.11,117.34,154.85,119.77,156.37,122.82z"/>
	<path d="M647.33,109.33c1.32,2.64,2.23,4.46,3.25,6.59C651.69,112.47,651.08,110.95,647.33,109.33z"/>
	<path d="M213.46,224.13c2.94,0,5.58-0.91,7.81-2.64C218.54,221.6,215.8,222.11,213.46,224.13z"/>
	<path d="M710.31,432.65c-0.41-4.06-1.52-4.97-6.49-5.38C706.15,429.4,708.79,430.01,710.31,432.65z"/>
	<path d="M181.11,191.17c-1.32,3.96,0.71,5.58,3.04,7.2C183.24,196.14,182.33,194.01,181.11,191.17z"/>
	<path d="M231.52,292.39c1.52,2.54,3.45,4.77,4.36,7.61C236.49,296.85,235.37,295.02,231.52,292.39z"/>
	<path d="M186.69,200.81c-0.81,1.93-0.81,1.93,4.87,3.96C189.94,203.44,188.31,202.13,186.69,200.81z"/>
	<path d="M224.22,219.98c2.84,1.52,5.78,2.23,8.82,0C230.1,220.69,227.16,220.38,224.22,219.98z"/>
	<path d="M564.27,28.9c1.93,2.74,3.14,5.17,3.45,8.01C568.93,32.66,568.33,31.34,564.27,28.9z"/>
	<path d="M188.01,298.98c1.93-2.13,3.04-4.77,4.06-7.5C189.94,293.5,188.82,296.14,188.01,298.98z"/>
	<path d="M560.92,61.87c1.22-2.74,0.61-5.27-1.01-7.61C559.63,54.53,559.55,53.66,560.92,61.87z"/>
	<path d="M229.69,191.98c1.22-2.84,1.22-3.25-0.3-7C228.98,187.62,228.78,189.55,229.69,191.98z"/>
	<path d="M217.22,289.34c-3.04,1.01-5.68,0.81-8.21,0.91C212.01,290.51,215.45,290.69,217.22,289.34z"/>
	<path d="M199.16,285.59c1.15,0,0.28,1.21,3.85-6.29C200.99,281.03,200.08,283.26,199.16,285.59z"/>
	<path d="M244.09,236.51c1.72,0.81,3.65,0.61,5.58,0.2C247.85,235.9,246.02,235.9,244.09,236.51z"/>
	<path d="M701.99,425.55c-1.52-1.72-3.14-3.35-4.67-5.07C697.63,423.42,699.56,424.74,701.99,425.55z"/>
	<path d="M175.84,168.46c0.81-1.42,1.32-2.84,0.61-4.56C175.13,166.02,175.13,166.02,175.84,168.46z"/>
	<path d="M197.66,243.6c-2.91-0.38-5.62,0.53-8.24,1.84c11.5-2.55,6.12-1.58,16.94-2.33C203.43,243,200.49,242.19,197.66,243.6z"/>
	<path d="M728.36,523.52c0.41-1.72-0.2-3.25-1.22-4.67C726.64,520.58,727.35,522.1,728.36,523.52z"/>
	<path d="M713.25,459.52c-0.61,2.23,0.61,3.45,1.52,5.27C715.28,462.57,714.98,461.05,713.25,459.52z"/>
	<path d="M605.55,157.2c1.72-1.52,1.42-3.14,0.81-4.77C605.14,153.75,605.24,155.27,605.55,157.2z"/>
	<path d="M130.2,67.24c-0.71,2.13,0.61,3.85,0.51,6.19C131.82,70.28,131.82,69.98,130.2,67.24z"/>
	<path d="M180.91,221.9c-1.01-1.93-1.83-2.94-3.25-4.06C177.36,220.38,178.58,221.09,180.91,221.9z"/>
	<path d="M197.54,267.74c1.83-0.1,3.35-0.91,4.67-2.13C200.48,266.02,198.86,266.42,197.54,267.74z"/>
	<path d="M142.78,53.65c0.91,2.03,1.93,3.04,3.25,3.85C145.72,55.88,144.7,54.87,142.78,53.65z"/>
	<path d="M285.98,66.73c1.22-1.62,1.22-1.62,1.32-4.06C285.57,63.99,284.86,65.01,285.98,66.73z"/>
	<path d="M176.45,226.26c1.22-1.32,1.93-2.43,1.52-4.36C176.24,223.02,176.24,224.34,176.45,226.26z"/>
	<path d="M243.48,148.48c-0.61,1.62,0,2.74,0.81,4.46C244.7,151.01,244.7,149.69,243.48,148.48z"/>
	<path d="M191.66,185.39c-0.61,1.83,0.41,2.74,1.52,4.06C193.59,187.52,193.49,186.3,191.66,185.39z"/>
	<path d="M715.89,55.58c1.72-1.42,1.42-2.74,1.83-4.16C715.28,52.23,715.58,53.55,715.89,55.58z"/>
	<path d="M689.72,393.7c0.71,1.42,1.72,1.72,3.65,1.52C692.16,393.81,691.34,393.1,689.72,393.7z"/>
	<path d="M573.09,42.19c0.81,2.03,1.72,3.04,3.14,3.55C575.83,44.32,575.02,43.31,573.09,42.19z"/>
	<path d="M252.21,226.36c-0.4-0.51-0.81-0.91-1.72-0.81C251.05,227.99,254.08,228.78,252.21,226.36z"/>
	<path d="M720.45,438.94c0.3-1.72,1.32-2.84,0.2-4.67C719.74,436.4,719.74,436.4,720.45,438.94z"/>
	<path d="M200.99,240.36c0-0.27,0.44-0.2-3.96-0.2C196.76,240.43,196.56,240.36,200.99,240.36z"/>
	<path d="M229.49,173.83c-0.51,1.52-0.71,2.43,0.41,3.55C230.6,175.96,230.71,175.05,229.49,173.83z"/>
	<path d="M654.12,138.44c0-1.42-0.51-2.43-1.83-3.45C651.79,137.02,653.31,137.52,654.12,138.44z"/>
	<path d="M159.71,137.62c1.32-0.2,2.23-0.71,2.64-1.93C160.93,135.39,160.22,136.2,159.71,137.62z"/>
	<path d="M700.37,388.63c1.32-1.42,2.03-2.33,2.03-4.06C700.57,385.39,700.78,386.81,700.37,388.63z"/>
	<path d="M215.09,243c0,0.16-0.38,0.1,3.45,0.1C218.54,242.95,218.92,243,215.09,243z"/>
	<path d="M656.46,143.71c-0.91,1.32-0.3,2.13,0.61,3.45C657.57,145.64,657.47,144.72,656.46,143.71z"/>
	<path d="M166.31,123.73c0.2,1.22,0.61,2.33,1.52,3.25C168.39,126.41,167.67,125.49,166.31,123.73z"/>
	<path d="M550.37,33.67c0.3-1.01,0.51-1.83-0.51-2.64C549.16,32.15,549.36,32.86,550.37,33.67z"/>
	<path d="M268.94,109.73c1.72-0.61,2.13-1.52,2.43-2.54C269.65,106.79,269.65,108.11,268.94,109.73z"/>
	<path d="M135.58,52.84c0.3-1.22,0.2-2.23-1.12-3.04C134.26,51.22,134.76,52.13,135.58,52.84z"/>
	<path d="M559.7,54.46c0.43-0.43,0.05-2.21-1.62-3.04C557.88,53.04,558.28,53.95,559.7,54.46z"/>
	<path d="M129.9,66.53c-0.1-1.62-0.51-2.64-1.72-3.55C127.67,64.81,128.48,65.52,129.9,66.53z"/>
	<path d="M699.56,97.87c1.42-0.41,1.52-1.83,2.23-2.54C701.79,94.63,699.16,95.46,699.56,97.87z"/>
	<path d="M734.65,526.26c0.2-1.12,0.3-1.83-0.71-2.23C733.53,524.84,733.64,525.55,734.65,526.26z"/>
	<path d="M233.95,244.92c1.32-1.32,1.01-2.13,0.3-3.35C233.44,242.69,233.85,243.61,233.95,244.92z"/>
	<path d="M186.69,215.61c0.41,1.62,1.32,1.22,2.33,0.81C188.21,215.11,187.5,215.21,186.69,215.61z"/>
	<path d="M190.75,216.02c0.15,1.22,2.29,1,1.93-0.1C192.07,215.31,191.36,215.11,190.75,216.02z"/>
	<path d="M210.52,251.95c0.1-0.01,0.2-0.01,0.3-0.03C210.73,251.82,210.74,251.77,210.52,251.95z"/>
	<path d="M206.06,252.73c1.45-0.29,3.08,0.22,4.46-0.78C208.99,252.13,207.39,251.59,206.06,252.73z"/>
	<path d="M206.06,252.73c-1.22-0.3-2.54-0.1-3.75,0.2C203.63,253.24,204.84,253.34,206.06,252.73z"/>
	<path d="M565.49,41.58c1.32-1.42-0.1-2.03-0.3-3.45C564.37,39.76,564.78,40.67,565.49,41.58z"/>
	<path d="M131.72,36c-0.61,1.22,0.2,1.93,0.91,2.84C133.04,37.52,132.63,36.71,131.72,36z"/>
	<path d="M650.68,118.96c0,1.22,0.61,1.83,1.62,2.74C652.6,119.98,652.1,119.37,650.68,118.96z"/>
	<path d="M561.73,24.24c-0.2,1.32,0,2.03,0.71,2.74C563.06,26.98,563.31,25.81,561.73,24.24z"/>
	<path d="M592.67,124.03c-1.62-0.41-2.13,0.41-2.84,2.03C591.35,125.56,592.26,125.25,592.67,124.03z"/>
	<path d="M207.38,239.55c0,0.29,1.11,0.3,1.22,0.3C208.6,239.49,209.22,239.55,207.38,239.55z"/>
	<path d="M716.29,440.15c-0.2-0.3-0.51-0.61-0.91-1.22C714.61,441.43,717.05,441.67,716.29,440.15z"/>
	<path d="M712.54,433.97c0.1,1.12,0.2,1.93,1.62,2.13C713.86,435.18,713.86,434.27,712.54,433.97z"/>
	<path d="M222.39,206.79c-1.01-0.91-1.62-0.51-2.64,1.01C221.07,207.3,221.68,206.99,222.39,206.79z"/>
	<path d="M659.09,116.93c0.61-0.51,0.3-1.01,0.1-1.93C659.09,115.82,659.09,116.33,659.09,116.93z"/>
	<path d="M271.27,107.1c1.29-0.1,1.89-0.87,2.11-2.04c0,0,0.03-0.01,0.12,0.01l-0.1-0.1c0,0.08-0.02,0.09-0.02,0.09
		C271.86,104.93,271.37,105.82,271.27,107.1z"/>
	<path d="M723.29,7.91c-1.01,0.3-1.01,0.91-0.3,1.93C723.49,9.03,723.49,8.52,723.29,7.91z"/>
	<path d="M292.98,19.37c-0.71,0.61-0.61,1.32-0.3,1.93C293.58,20.69,293.28,19.98,292.98,19.37z"/>
	<path d="M714.37,30.83c1.42-0.71,0.91-1.52,1.01-2.13C715.08,29.21,714.87,29.72,714.37,30.83z"/>
	<path d="M214.99,251.21c-1.36,0.09-2.81,0.01-4.09,0.54C212.33,251.94,213.75,252.07,214.99,251.21z"/>
	<path d="M210.63,251.72c0.14,0.14,0.05,0.11,0.27,0.03C210.81,251.74,210.72,251.73,210.63,251.72z"/>
	<path d="M715.69,469.87c0.51-1.01,0.3-1.62-0.71-2.03C714.37,468.85,714.98,469.36,715.69,469.87z"/>
	<path d="M716.09,475.75c-0.3,1.22,0.51,1.83,0.61,3.25C717.61,477.27,717.41,476.46,716.09,475.75z"/>
	<path d="M726.13,516.32c0.2-1.32-0.3-1.83-0.71-2.43C724.81,514.9,725.42,515.41,726.13,516.32z"/>
	<path d="M284.96,40.77c-0.2,0.51-0.51,1.01,0,1.62C285.47,41.78,285.27,41.28,284.96,40.77z"/>
	<path d="M696.82,100.4c1.01,0,1.42-0.61,1.52-1.72C697.23,98.78,696.72,99.19,696.82,100.4z"/>
	<path d="M731.81,518.85c0.81-0.71,0.1-0.91-0.3-1.32C731.1,518.14,731.3,518.55,731.81,518.85z"/>
	<path d="M266.71,111.86c1.22,0.41,1.01-0.81,1.72-0.91C267.61,109.44,266.35,111.27,266.71,111.86z"/>
	<path d="M718.02,484.88c0.51-0.61,0-0.91-0.61-1.22C717.31,484.47,717.51,484.88,718.02,484.88z"/>
	<path d="M653.52,125.66c0.1-0.91,0.1-0.91-1.12-1.83C652.4,125.05,652.81,125.45,653.52,125.66z"/>
	<path d="M561.43,31.44c-1.01-0.34-0.54,0.56,0.1,1.42C561.83,32.15,561.83,31.54,561.43,31.44z"/>
	<path d="M131.11,42.8c-0.41,0.81-0.2,1.22,0.1,1.72C131.92,43.91,131.52,43.51,131.11,42.8z"/>
	<path d="M119.75,44.93c1.22-0.61,0.61-1.32,0.1-2.13C119.25,43.51,119.35,44.22,119.75,44.93z"/>
	<path d="M182.53,277.28c-0.91,0.2-1.22,0.71-0.81,1.52C182.33,278.49,182.53,277.88,182.53,277.28z"/>
	<path d="M228.68,253.14c1.01,0.1,1.42-0.61,1.93-1.12C229.69,251.92,229.08,252.33,228.68,253.14z"/>
	<path d="M207.58,247.56c-2.03-0.63,1.34,0-14.91,0C208.11,249.19,198.24,247.56,207.58,247.56z"/>
	<path d="M215.09,240.36c0.71,0.41,1.32,0.71,1.93,0C216.41,239.95,215.8,239.75,215.09,240.36z"/>
	<path d="M181.92,222.61c0.3,1.01,0.91,1.32,1.93,1.12C183.45,222.61,183.04,222.21,181.92,222.61z"/>
	<path d="M243.59,206.59c0.41,0.81,0.91,1.01,1.62,0.51C244.8,206.49,244.4,206.08,243.59,206.59z"/>
	<path d="M194.7,206.79c-0.3-0.91-0.81-0.91-1.83-0.41C193.49,207.2,193.99,207.5,194.7,206.79z"/>
	<path d="M250.38,200.1c0.61,0.71,1.01,0.2,1.72,0.2C251.29,199.49,250.89,200.3,250.38,200.1z"/>
	<path d="M259.81,182.35c-1.12,0.2-1.32,0.81-1.12,2.13C259.91,183.97,260.22,183.46,259.81,182.35z"/>
	<path d="M257.78,187.72c1.01-0.2,1.01-0.61,0.81-1.42C257.68,186.41,257.48,186.81,257.78,187.72z"/>
	<path d="M273.71,130.42c0.51-0.1,0.81-0.3,0.71-1.12C273.61,129.51,273.4,129.81,273.71,130.42z"/>
	<path d="M203.02,290.46c0.51,0,1.01-0.1,1.62-0.1C204.03,289.85,203.53,290.36,203.02,290.46z"/>
	<path d="M229.79,286.81c-0.1,0.41,0.1,0.61,0.61,0.61C230.5,286.91,230.4,286.81,229.79,286.81z"/>
	<path d="M291.76,31.85c0.77-0.77-0.61-1.27-0.61-0.2C291.25,31.95,291.56,32.05,291.76,31.85z"/>
	<path d="M204.64,275.86c-0.3,0.2-0.61,0.41-0.51,0.81C204.54,276.67,204.74,276.36,204.64,275.86z"/>
	<path d="M716.9,0.91c-0.76-0.38-0.61-0.21-0.91,0.41C716.79,1.72,716.63,1.19,716.9,0.91z"/>
	<path d="M217.62,250.3c0.15,0,0.08,0,0.06,0.04C217.9,250.29,217.95,250.3,217.62,250.3z"/>
	<path d="M217.68,250.34c-0.96,0.33-1.93,0.09-2.7,0.77C215.98,251.11,216.97,251.3,217.68,250.34z"/>
	<path d="M217.87,250.3c0.46,0,0.96,0,1.48,0C218.82,249.77,218.37,250.23,217.87,250.3z"/>
	<path d="M257.38,195.53c0.71-0.51,0.81-0.91,0.41-1.62C256.97,194.32,257.07,194.82,257.38,195.53z"/>
	<path d="M714.98,408.82c-0.3-0.41-0.71-0.3-1.32,0.1C714.63,410.38,715.24,409.08,714.98,408.82z"/>
	<path d="M252.21,208.92c-0.61,1.01,0.3,1.01,0.61,1.32C253.32,209.23,252.71,209.12,252.21,208.92z"/>
	<path d="M671.47,346.04c-1.83,2.43,1.52,5.88-1.52,8.32c6.84,4.56,2.72,19.22,7.1,19.88c1.3-13.66-3.07-18.09-2.74-20.18
		c2.46-15.38-5.07-8.45,10.45-17.85c-1.31-2.61-8.01,3.99-11.87,5.27c-0.1,2.23,0.3,4.56-0.1,6.9
		C671.87,347.86,672.79,346.44,671.47,346.04z"/>
	<path d="M668.02,339.75c-9.46-18.92-5.92-20.87-10.75-23.73c-6.24-3.69-1.97-8.36-3.96-12.58c0,10-0.12,10.22,0.3,10.65
		C658.13,318.68,660.07,339.44,668.02,339.75z"/>
	<path d="M679.68,277.07c8,2.22,3.93,11.12,10.45,16.73c2.03-2.84,1.23-5.58,0.41-8.21c-1.9-6.09-3.45-7.4-12.47-10.85
		C677.25,276.46,678.88,276.85,679.68,277.07z"/>
	<path d="M634.65,290.76c3.65,3.95,4.87,9.43,5.58,15.01c3.58-1.47-1.03-13.03-5.07-17.34c-4.22-4.5-3.09-10.26-10.75-10.65
		C629.78,280.52,630.9,286.71,634.65,290.76z"/>
	<path d="M616.8,339.75c-2.57-7.35-7.49-1.73-8.42-13.49c2.33-0.41,4.56-0.81,7.61-1.32c-3.03-1.6-5.69,0.02-8.01-0.81
		c-8.69-29.53-0.34,10.19,2.64,14.3C612.23,337.14,606.95,332.49,616.8,339.75z"/>
	<path d="M663.76,308.92c-0.32-10.59,4.36-11.1,2.64-17.04c-3.25,9.33-6.39,18.26,0.2,27.89
		C665.69,315.61,663.87,312.47,663.76,308.92z"/>
	<path d="M637.69,312.77c5.07,2.54,10.04,5.07,15.11,7.61C654.42,318.76,646.34,313.64,637.69,312.77z"/>
	<path d="M601.49,296.04c-0.93-10,1.11-14.22-0.51-16.02c-1.52,7.3-1.72,14.1-0.41,21.09C601.89,298.88,601.73,298.67,601.49,296.04
		z"/>
	<path d="M676.44,283.16c5.86,2.89,3.41,8.61,4.46,9.84c1.83-3.45,1.1-8.48-1.93-9.94c-2.04-0.99-3.25-2.54-4.67-3.85
		C670.35,275.9,671.83,280.89,676.44,283.16z"/>
	<path d="M672.28,339.24c-0.2-2.23-1.34-4.36-0.91-6.69c0.39-2.13,0.71-4.26-1.22-6.19C670.86,330.62,668.53,335.49,672.28,339.24z"
		/>
	<path d="M615.59,290.05c3.65,2.43,7,5.48,11.46,6.59C623.19,294.31,620.35,290.46,615.59,290.05z"/>
	<path d="M622.48,361.86c-1.57-3.59-4.65-0.06-6.39-2.43c-1.32,3.55,1.62,6.09,1.32,9.23C618.12,364.74,613.68,360.1,622.48,361.86z
		"/>
	<path d="M625.22,306.48c12.14,2.89,14.59,1.6-4.06-1.83C622.69,305.88,624,306.19,625.22,306.48z"/>
	<path d="M676.54,356.58c3.75,1.42,7-1.12,10.55-1.32C683.43,354.86,679.99,355.06,676.54,356.58z"/>
	<path d="M689.72,347.15c-0.29-0.01-0.59-0.02-0.88-0.02C689.13,347.14,689.43,347.15,689.72,347.15z"/>
	<path d="M677.45,346.54c3.67,1.41,7.6,0.55,11.39,0.59C685,346.95,681.31,345.7,677.45,346.54z"/>
	<path d="M639.42,274.23c-3.35,1.22-4.06,3.55-2.33,8.11C637.8,279.51,638.51,277.17,639.42,274.23z"/>
	<path d="M675.32,329.91c3.14-1.93,6.29-3.96,9.43-5.98C680.8,324.84,677.55,326.46,675.32,329.91z"/>
	<path d="M698.04,285.49c-0.91-3.55-2.03-4.67-5.48-6.39C693.98,281.64,695.2,283.77,698.04,285.49z"/>
	<path d="M631.61,294.31c1.93,1.83,2.84,3.85,4.16,5.98C636.28,296.95,635.46,295.73,631.61,294.31z"/>
	<path d="M609.3,348.27c2.13,2.94,3.96,3.04,7.2,0C613.66,348.57,611.53,349.69,609.3,348.27z"/>
	<path d="M701.69,309.73c-2.54,0-4.26,0.81-5.88,2.13C697.84,312.06,699.56,311.15,701.69,309.73z"/>
	<path d="M648.14,305.67c0.2-2.13-0.51-3.65-2.84-4.87C645.91,303.04,646.62,304.66,648.14,305.67z"/>
	<path d="M617.61,350.7c-1.83,0.61-3.04,1.72-3.14,3.65C616.09,353.64,616.9,352.22,617.61,350.7z"/>
	<path d="M624.21,374.43c0.51,1.22,1.42,1.42,2.64,0.81C626.34,373.52,625.02,374.54,624.21,374.43z"/>
	<path d="M601.18,304.46c0.91,0,1.83,0.3,2.54-0.81C602.71,303.24,602,304.05,601.18,304.46z"/>
	<path d="M658.59,297.56c-1.13-0.28-1.39,1.72-0.71,2.13C658.69,299.18,658.69,298.37,658.59,297.56z"/>
	<path d="M602.1,289.04c1.52,1.01,2.43,0.61,3.35,0.51C604.63,288.84,603.72,288.74,602.1,289.04z"/>
	<path d="M620.35,377.27c0.81,0.41,1.62,0.51,2.43,0.1C621.98,377.07,621.16,376.87,620.35,377.27z"/>
	<path d="M613.56,303.54c-0.41-0.2-0.91-0.3-1.42,0C612.64,303.75,613.05,303.95,613.56,303.54z"/>
	<path d="M614.27,312.57c-0.1-0.91-0.81-0.71-1.32-0.41C613.35,312.27,613.76,312.47,614.27,312.57z"/>
	<path d="M677.96,362.57c0.41,0.71,0.81,1.01,1.83,0.41C679.17,362.16,678.57,361.96,677.96,362.57z"/>
	<path d="M610.72,368.35c0.41,0,0.81,0,1.42,0C611.63,367.84,611.22,367.94,610.72,368.35z"/>
	<path d="M669.95,338.94c-0.3-0.3-0.51-0.71-0.81-1.01C668.53,338.74,669.24,338.94,669.95,338.94z"/>
	<path d="M658.18,245.03c0.2,0.2,0.51,0.3,0.91,0.3c4.17-9.9-0.78-11.89,1.72-18.05c1.9-4.68,1.31-9.6,0-11.56
		C659.35,212.78,659.86,217.92,658.18,245.03z"/>
	<path d="M662.14,194.32c-0.71,5.27-0.1,10.75-0.91,16.02C663.96,205.17,663.96,199.79,662.14,194.32z"/>
	<path d="M661.22,184.68c-3.65-1.52-3.75,1.52-4.97,2.64c-1.93,0.81-4.16,0-6.69,1.83C661.54,189.14,653.31,189.96,661.22,184.68z"
		/>
	<path d="M676.64,189.35c-2.94-1.32-5.78-1.93-8.82-0.51C670.66,190.87,673.7,189.55,676.64,189.35z"/>
	<path d="M615.79,202.63c-1.32-2.64-4.16-3.25-4.97-6.29C609.7,200.1,610.92,201.42,615.79,202.63z"/>
	<path d="M676.84,207.7c-2.33-2.03-4.77-3.85-7.91-4.16C670.96,205.98,674,206.79,676.84,207.7z"/>
	<path d="M614.37,186.91c-1.32-2.13-1.83-4.56-3.04-6.9C610.11,182.96,610.92,184.99,614.37,186.91z"/>
	<path d="M656.56,223.42c-4.16-0.61-8.21-0.51-12.27,0.61C648.45,223.42,652.6,224.23,656.56,223.42z"/>
	<path d="M621.37,193.3c-1.72-1.22-2.84-3.14-5.58-4.26C616.3,193.2,619.44,192.29,621.37,193.3z"/>
	<path d="M606.24,234.33c2.32,1.89,5.19,1.8,7.91,2.14C611.42,234.66,606.13,234.22,606.24,234.33z"/>
	<path d="M614.37,236.61l0.1-0.1C613.93,236.4,614.2,236.48,614.37,236.61z"/>
	<path d="M660.21,179.92c1.01-2.13-0.1-4.26-0.3-6.29C659.2,175.76,658.99,177.79,660.21,179.92z"/>
	<path d="M657.67,261.56c1.72-1.62,1.52-3.45,1.62-5.27C657.88,257.7,657.27,259.33,657.67,261.56z"/>
	<path d="M610.52,209.63c-0.71-1.12-1.12-2.54-2.94-2.84C607.68,208.82,608.59,209.73,610.52,209.63z"/>
	<path d="M607.98,210.75c-1.62,0.71-1.52,2.13-2.03,3.96C608.08,213.48,607.98,212.06,607.98,210.75z"/>
	<path d="M621.87,173.83c-0.81,1.72,0.41,2.74,1.22,4.06C623.5,175.66,623.5,175.66,621.87,173.83z"/>
	<path d="M673.7,137.12c-0.41,1.32-0.1,2.43,0.51,3.65C674.71,139.45,674.51,138.23,673.7,137.12z"/>
	<path d="M681.26,254.42c-0.99,1.69-1.51,3.42-0.74,5.2C680.58,258.59,682.13,252.94,681.26,254.42z"/>
	<path d="M687.29,203.85c-1.12,0.41-1.62,1.22-1.83,2.33C687.19,205.57,687.19,205.57,687.29,203.85z"/>
	<path d="M682.83,213.28c0.91-1.42,0.51-2.23-0.51-3.25C681.91,211.35,681.91,212.27,682.83,213.28z"/>
	<path d="M659.8,165.62c0.71-0.91,0.91-1.83,0.1-3.04C658.59,163.59,659.4,164.6,659.8,165.62z"/>
	<path d="M690.13,170.38c-1.32,0.71-1.83,1.32-1.12,2.43C690.03,172.41,690.33,171.8,690.13,170.38z"/>
	<path d="M613.76,212.27c0.3-1.52-0.71-1.32-1.72-1.72C612.04,211.96,612.85,212.17,613.76,212.27z"/>
	<path d="M619.14,204.56c-0.71-0.71-1.42-0.91-2.54-0.3C617.41,205.37,618.12,205.68,619.14,204.56z"/>
	<path d="M688.1,182.45c-1.32,0.2-0.91,1.01-1.01,1.83C688.1,183.87,688.2,183.36,688.1,182.45z"/>
	<path d="M673.9,257.6c0,0,0,0,0.1,0C673.86,257.31,673.9,256.16,673.9,257.6z"/>
	<path d="M681.41,254.05c0.76-0.94,0.63-2.16,0.7-3.23C681.24,251.71,681.41,252.85,681.41,254.05z"/>
	<path d="M682.22,250.7l-0.1-0.1C682.12,250.89,682.05,250.87,682.22,250.7z"/>
	<path d="M652.7,240.97c0,0,0,0,0-0.1C650.68,240.87,650.12,240.97,652.7,240.97z"/>
	<path d="M616.9,236.61c-1.01,0-1.72,0-2.43-0.1C615.18,236.71,615.89,237.22,616.9,236.61z"/>
	<path d="M659.91,160.85c0.2-0.81,0-1.12-0.61-1.42C658.79,160.14,658.79,160.54,659.91,160.85z"/>
	<path d="M624.81,195.33c-0.41-0.81-0.71-1.32-1.62-0.71C623.29,195.53,623.7,195.84,624.81,195.33z"/>
	<path d="M688.91,174.74c-1.22,0-1.42,0.51-1.01,1.32C688.81,176.16,688.91,175.66,688.91,174.74z"/>
	<path d="M682.22,188.33c-0.91-0.61-1.22,0-1.72,0.81C681.51,189.25,682.01,188.94,682.22,188.33z"/>
	<path d="M659.09,252.83c0.1,0.3,0.1,0.61,0.1,0.91C659.47,253.75,659.74,253.09,659.09,252.83z"/>
	<path d="M682.32,248.98c-0.1,0.51-0.1,1.12-0.2,1.62C682.52,250.2,682.62,249.59,682.32,248.98z"/>
	<path d="M620.96,204.46c0.61,0.81,1.22,1.01,2.03,0C622.28,203.95,621.67,203.65,620.96,204.46z"/>
	<path d="M648.45,404.96c-2.54,2.13-2.02,4.56-1.01,6.69c4.07,8.68,2.28,8.96,4.16,9.43C655.55,416.9,649.89,412.17,648.45,404.96z"
		/>
	<path d="M674.51,414.19c0.85-9.32-4.5,3.58-1.12,9.63c1.65,2.95-1.2,7.62,1.52,9.43C678.19,426.7,672.27,423.73,674.51,414.19z"/>
	<path d="M651.08,401.21c1.53,0,1.67,2.19,1.32-16.23c-0.1-1.32-0.41-2.74-2.94-2.54C652.1,388.73,648.75,395.23,651.08,401.21z"/>
	<path d="M655.44,412.67c3.14,2.64,0.51,8.01,5.17,9.84C658.79,419.26,660.31,414.39,655.44,412.67z"/>
	<path d="M694.89,533.66c0.71,3.55,3.45,6.09,4.97,9.94C700.88,540.56,699.36,537.82,694.89,533.66z"/>
	<path d="M686.38,459.02c-0.3-4.16-1.72-7.91-3.85-11.46C682.42,451.82,684.55,455.37,686.38,459.02z"/>
	<path d="M659.5,430.21c3.14,1.93,5.78,4.46,9.43,6.9C667.31,433.46,662.24,429.81,659.5,430.21z"/>
	<path d="M688,462.36c0.2,4.16,1.32,8.01,2.84,11.87C690.74,470.07,689.52,466.22,688,462.36z"/>
	<path d="M656.76,428.39c-1.72-1.83-3.65-3.85-5.78-6.09C651.28,425.75,653.41,427.78,656.76,428.39z"/>
	<path d="M653.62,404.25c-0.51,2.84-0.51,2.94,0.71,5.58C654.73,406.48,654.73,406.48,653.62,404.25z"/>
	<path d="M664.67,385.39c-0.85,0,1.31,3.66,4.67,4.97C668.42,388.13,666.09,387.11,664.67,385.39z"/>
	<path d="M681.2,446.44c0.41-1.93,0-3.35-1.62-5.27C679.58,443.6,679.58,445.12,681.2,446.44z"/>
	<path d="M697.02,529.91c-0.2-2.23-1.32-3.35-3.14-4.77C694.49,527.37,695,528.79,697.02,529.91z"/>
	<path d="M647.94,418.65c-0.2,1.62,0.1,2.74,0.71,4.46C650.37,420.88,649.36,419.97,647.94,418.65z"/>
	<path d="M691.85,523.72c0.2-1.32-0.61-1.72-1.22-2.54C690.23,522.71,690.84,523.21,691.85,523.72z"/>
	<path d="M663.56,381.53c-0.2,1.83,0,2.94,0.81,4.06C664.83,385.12,664.82,382.72,663.56,381.53z"/>
	<path d="M669.54,438.12c0,1.42,0.51,1.83,1.22,1.62C671.16,438.73,670.25,438.73,669.54,438.12z"/>
	<path d="M672.38,441.78c0.51,1.01,0.91,1.62,1.93,1.62C674.21,442.18,673.7,441.78,672.38,441.78z"/>
	<path d="M724.41,572.91c0.91,2.74,3.05,1.17,10.43,0.2c-0.76,0.73-2.33,0.18-2.72,1.83c2.33,2.03,3.45-0.2,4.87-1.22
		c-0.51-1.22-1.52-0.3-2.03-0.71c-0.02,0.03-0.05,0.05-0.07,0.07c0.63-1.08,2.31-0.9,2.81-2.2
		C734.45,568.95,727.45,570.07,724.41,572.91z"/>
	<path d="M716.4,570.88c-1.21-4.61-2.91-5.55-6.78-3.7c0.69-2.21,0.48-4.23-1.73-5.43c-3.15-1.7-4.46,0.64-6.09,3.35
		c1.72,2.54,3.85,4.06,7.1,3.04c-0.1,4.67,1.72,5.88,6.59,4.77c1.01,1.72-1.52,1.42-1.42,2.64c1.01,1.22,2.14-0.43,3.14,0.2
		c1.24,0.78-1.22,1.93,0.51,2.74c2.03-1.12,2.94-3.25,4.46-5.07C720.45,571.79,719.03,570.07,716.4,570.88z M705.14,566.62
		c0.71-1.01,0.41-2.13-0.51-2.84C708.34,560.07,710.17,568.69,705.14,566.62z M712.44,571.79c-2.63,0-2.98-3.5,0.1-4.06
		C715.47,568.54,714.58,571.97,712.44,571.79z M719.84,574.23c-1.42,0.61-2.03,0-2.64-1.52C718.73,572.4,719.64,572.5,719.84,574.23
		z"/>
	<path d="M263.57,257.09c5.17,3.55,5.48,3.55,9.63-0.71c1.22-0.41,2.84,0.41,4.06-1.32c-1.83-0.51-3.75,0.51-4.97-1.22
		c-2.51,2.23-3.63,3.92-6.49,2.74c-2.82-1.17-5.98-0.61-8.92-0.91C259,256.89,261.13,257.6,263.57,257.09z"/>
	<path d="M258.9,291.98c2.74-0.81,4.88-2.32,7.1-4.16c1.94-1.61,5.27-1.12,7.91-3.35C266.81,283.77,262.55,287.32,258.9,291.98z"/>
	<path d="M283.95,262.27c6.39-1.83,12.88-2.03,19.47-1.52C296.83,259.53,290.24,258.51,283.95,262.27z"/>
	<path d="M267.01,265.92c5.17,0.41,10.95-1.83,13.18-4.97C276.24,262.98,271.98,264.19,267.01,265.92z"/>
	<path d="M263.77,261.46c-3.65,0.71-6.59,1.32-9.84,2.03C257.68,264.4,260.62,263.79,263.77,261.46z"/>
	<path d="M270.26,250.7c-2.03-0.81-3.55,1.01-5.27,0.51c-0.51,1.32-0.2,1.83,0.1,2.33C265.29,253.65,269.35,251.52,270.26,250.7z"/>
	<path d="M249.06,255.88c1.83,1.12,3.35,0.51,4.97-0.41C252.31,254.76,250.68,255.57,249.06,255.88z"/>
	<path d="M361.13,285.49c2.13,0,4.36,0,6.49,0C365.39,284.58,363.16,284.68,361.13,285.49z"/>
	<path d="M308.09,262.67c1.52,0.71,2.64,0.51,3.75,0C310.72,261.76,309.61,261.56,308.09,262.67z"/>
	<path d="M367.32,266.93c-1.32-0.61-2.43-0.41-4.06,0.3C364.98,268.45,366.1,268.35,367.32,266.93z"/>
	<path d="M319.95,264.9c-2.23,0-3.65,0-4.97,0C316.51,265.31,317.82,265.51,319.95,264.9z"/>
	<path d="M357.28,266.83c-0.3,1.01,0.2,1.12,2.84,0.41C358.9,266.32,358.09,266.53,357.28,266.83z"/>
	<path d="M255.96,296.55c1.22-0.71,1.93-1.52,1.83-3.04C256.36,294.11,255.86,295.02,255.96,296.55z"/>
	<path d="M348.25,267.03c1.42,0.81,2.33,0.91,3.65,0.1C350.58,266.32,349.57,266.53,348.25,267.03z"/>
	<path d="M317.92,262.67c1.01,1.12,2.13,1.22,3.55,1.01C320.46,262.37,319.34,262.37,317.92,262.67z"/>
	<path d="M251.9,302.83c1.22-0.3,1.72-0.81,1.93-2.13C252.71,301.01,252.21,301.52,251.9,302.83z"/>
	<path d="M239.73,266.02c0.51,1.27,2.13,0.44,2.13-0.41C240.95,265,240.54,266.02,239.73,266.02z"/>
	<path d="M280.2,273.63c0.71,0.61,0.71,0.61,1.72,0.41C281.52,273.42,280.91,273.22,280.2,273.63z"/>
	<path d="M325.63,264.7c1.22,0.91,2.13,1.01,3.04,0.51C327.56,264.5,327.56,264.5,325.63,264.7z"/>
	<path d="M347.84,286c0,0,0.2,0,0.41,0.1C348.05,285.59,347.84,286,347.84,286z"/>
	<path d="M259.81,271.9c-0.41-0.3-0.71-0.2-1.12,0.1C259.1,272.21,259.51,272.21,259.81,271.9z"/>
	<path d="M227.66,76.06c0.41-2.13,2.03-2.43,3.85-2.13c0.1-2.43-0.81-3.65-2.74-3.96c-4.56-0.72-9.13-1.52-12.68,2.74
		c3.55-1.83,6.9-1.12,10.75,0.2c-3.25,0.91-6.39,0.51-8.92,2.54C220.97,76.37,224.01,76.27,227.66,76.06z"/>
	<path d="M211.94,107.4c0.61,3.85,2.33,7.1,5.07,10.55c0-3.25-2.03-5.27-2.54-7.81c-0.2-0.99,2.28-0.77,0.81-2.23
		c-7.29-6-12.27-6.12-12.27-18.26c-1.72,3.35-0.71,6.79-0.81,10.34C204.95,102.84,208.6,104.66,211.94,107.4z"/>
	<path d="M225.53,97.97c1.54,1.72,1.06,2.49,13.89,0.81C239.43,95.45,232.2,98.65,225.53,97.97z"/>
	<path d="M229.49,104.16c2.74,1.62,5.27,0.71,8.42-0.3C234.36,100.1,231.52,100.3,229.49,104.16z"/>
	<path d="M238.82,89.75c-2.94-1.93-5.17,0.1-7.81,0.41C232.84,92.09,236.39,91.88,238.82,89.75z"/>
	<path d="M217.72,121.5c0.91,1.93,1.83,3.85,2.74,5.88C221.88,124.85,221.27,123.12,217.72,121.5z"/>
	<path d="M224.01,149.79c-0.1-1.22-0.41-2.33-1.93-2.94C221.88,148.58,222.9,149.29,224.01,149.79z"/>
	<path d="M227.05,156.49c0-0.41-0.1-0.91-1.01-0.91C225.13,157.22,227.63,158.78,227.05,156.49z"/>
	<path d="M220.97,130.52c-0.71,1.32,0.41,1.72,1.12,2.84C222.49,131.54,221.98,130.93,220.97,130.52z"/>
	<path d="M222.49,135.49c-0.3,1.12,0.2,1.62,1.42,1.83C223.91,136,223.3,135.7,222.49,135.49z"/>
	<path d="M403.62,257.91c1.39-2.45,0.2-4.56-3.45-6.49c0.81-1.72,2.13-0.51,3.25-0.3c0.51-2.23-1.93-2.03-2.13-3.45
		c0.07-0.87,7.58-3.57-5.27-2.03c-0.2,2.64-0.2,5.07,2.33,6.49C392.88,259.19,401.17,262.24,403.62,257.91z M397.64,247.16
		c2.43,0.61,2.43,0.61,0.81,2.84C397.44,249.08,397.03,248.27,397.64,247.16z M400.17,253.85c2.97-0.23,3.69,4.26-0.2,4.26
		C397.39,257.85,397.19,254.08,400.17,253.85z"/>
	<path d="M404.43,267.95c2.08-12.09-9.93-7.71-6.9-1.72C399.12,269.34,401.8,268.15,404.43,267.95z M398.86,263.89
		c0.37-2.57,4.66-2.03,4.46,0.51c-0.51,0.71-1.52-0.3-1.93,0.61c-0.41,0.41,0.41,1.12-0.3,1.52
		C399.26,266.63,398.45,265.71,398.86,263.89z"/>
	<path d="M314.58,242.9c1.52,2.23,3.75,2.43,5.98,3.75C318.63,242.9,317.42,242.08,314.58,242.9z"/>
	<path d="M322.18,242.19c1.22,2.33,3.35,0.71,4.56,1.83C325.84,241.98,324.31,241.58,322.18,242.19z"/>
<path fill="#e6e6e6" d="m206.8 163.6c0-5.1 4.1-9.2 9.3-9.2s9.2 4.2 9.2 9.2-4.1 9.2-9.3 9.2-9.2-4.1-9.2-9.2zm17.3-.1c0-4.5-3.5-8.2-8.2-8.2s-8.2 3.7-8.2 8.3c0 4.5 3.5 8.2 8.2 8.2s8.2-3.7 8.2-8.3zm-13 0c0-2.8 2.1-5.1 5.1-5.1 1.9 0 2.9.6 3.9 1.5l-1.4 1.7c-.8-.7-1.5-1.1-2.5-1.1-1.7 0-2.8 1.4-2.8 3.1s1.1 3 2.8 3c1.1 0 1.7-.5 2.5-1.1l1.4 1.4c-1.1 1.1-2.1 1.7-4 1.7-2.9 0-5-2.3-5-5.1z"/><path fill="#e6e6e6" d="m226.6 154.7h3.4l4.2 13.2 4.4-13.3h2.6l4.4 13.3 4.2-13.2h3.3l-6.2 18h-2.7l-4.4-12.8-4.4 12.8h-2.7z"/><path fill="#e6e6e6" d="m252.8 165.8c0-3.9 3.1-7 7.2-7 4.2 0 7.2 3.2 7.2 7s-3.1 7-7.3 7c-4 0-7.1-3.1-7.1-7zm11.3 0c0-2.3-1.7-4.3-4.2-4.3s-4.1 2-4.1 4.3 1.7 4.3 4.1 4.3c2.7.1 4.2-1.9 4.2-4.3z"/><path fill="#e6e6e6" d="m269.5 159.1h3.1v3c.8-2 2.4-3.4 4.8-3.3v3.2h-.2c-2.7 0-4.6 1.7-4.6 5.4v5.1h-3.1z"/><path fill="#e6e6e6" d="m279.1 153.9h3.1v11.1l5.6-6h3.8l-5.4 5.5 5.5 8h-3.5l-4.1-5.8-1.9 2v3.9h-3.1z"/><path fill="#e6e6e6" d="m291.7 165.8c0-3.9 3.1-7 7.2-7 4.2 0 7.2 3.2 7.2 7s-3.1 7-7.3 7c-4 0-7.1-3.1-7.1-7zm11.3 0c0-2.3-1.7-4.3-4.2-4.3s-4.1 2-4.1 4.3 1.7 4.3 4.1 4.3c2.6.1 4.2-1.9 4.2-4.3z"/><path fill="#e6e6e6" d="m308.2 167.6v-8.6h3.1v7.6c0 2.1 1.1 3.3 2.9 3.3s3-1.3 3-3.3v-7.6h3.1v13.4h-3.1v-2.1c-.8 1.3-2.1 2.3-4.2 2.3-3.1.2-4.8-1.8-4.8-5z"/><path fill="#e6e6e6" d="m323.9 168.8v-7.1h-1.7v-2.6h1.7v-3.7h3.1v3.7h3.6v2.6h-3.6v6.6c0 1.2.6 1.7 1.7 1.7.7 0 1.3-.2 1.9-.5v2.5c-.8.5-1.7.7-2.8.7-2.3 0-3.9-.9-3.9-3.9z"/><path fill="#e6e6e6" d="m333.2 154.7h3.2v15h9.4v2.9h-12.5v-17.9z"/><path fill="#e6e6e6" d="m356 172.5v-1.7c-.9 1.1-2.3 2-4.4 2-2.6 0-4.8-1.4-4.8-4.2 0-3 2.3-4.4 5.4-4.4 1.7 0 2.6.2 3.7.5v-.2c0-1.9-1.2-2.9-3.3-2.9-1.5 0-2.6.3-3.9.8l-.8-2.5c1.5-.7 2.9-1.1 5.1-1.1 4 0 5.9 2.1 5.9 5.7v8zm.1-5.6c-.8-.3-1.9-.5-3.1-.5-2 0-3.1.8-3.1 2.1s1.1 2 2.6 2c2 0 3.5-1.1 3.5-2.9z"/><path fill="#e6e6e6" d="m364.9 170.5v2.1h-3.1v-18.7h3.1v7.4c1-1.4 2.4-2.5 4.5-2.5 3.2 0 6.3 2.5 6.3 7s-3.1 7-6.3 7c-2.1 0-3.5-1.1-4.5-2.3zm7.7-4.7c0-2.6-1.7-4.3-3.9-4.3s-3.9 1.7-3.9 4.4c0 2.6 1.8 4.3 3.9 4.3s3.9-1.7 3.9-4.4z"/><path fill="#e6e6e6" d="m376.9 170.8 1.4-2.1c1.4 1.1 3 1.7 4.4 1.7s2.1-.5 2.1-1.5-1.3-1.4-2.8-1.8c-.1 0-.2-.1-.2-.1-2-.6-4.2-1.4-4.2-4s2.1-4.1 4.8-4.1c1.7 0 3.5.6 5 1.5l-1.2 2.2c-1.3-.8-2.6-1.3-3.8-1.3s-1.9.5-1.9 1.4 1.3 1.4 2.8 1.8c.1 0 .2.1.2.1 2 .6 4.2 1.5 4.2 4 0 2.9-2.2 4.2-5 4.2-1.9 0-4-.7-5.8-2z"/><path fill="#e6e6e6" d="m505.6 163.6c0-5.1 4.1-9.2 9.3-9.2s9.2 4.2 9.2 9.2-4.1 9.2-9.3 9.2-9.2-4.1-9.2-9.2zm17.4-.1c0-4.5-3.5-8.2-8.2-8.2s-8.2 3.7-8.2 8.3c0 4.5 3.5 8.2 8.2 8.2s8.2-3.7 8.2-8.3zm-13.1 0c0-2.8 2.1-5.1 5.1-5.1 1.9 0 2.9.6 3.9 1.5l-1.4 1.7c-.8-.7-1.5-1.1-2.5-1.1-1.7 0-2.8 1.4-2.8 3.1s1.1 3 2.8 3c1.1 0 1.7-.5 2.5-1.1l1.4 1.4c-1.1 1.1-2.1 1.7-4 1.7-2.9 0-5-2.3-5-5.1z"/><path fill="#e6e6e6" d="m525.4 154.7h3.4l4.2 13.2 4.4-13.3h2.6l4.4 13.3 4.2-13.2h3.3l-6.2 18h-2.7l-4.4-12.8-4.4 12.8h-2.7z"/><path fill="#e6e6e6" d="m551.7 165.8c0-3.9 3.1-7 7.2-7 4.2 0 7.2 3.2 7.2 7s-3.1 7-7.3 7c-4.1 0-7.1-3.1-7.1-7zm11.2 0c0-2.3-1.7-4.3-4.2-4.3s-4.1 2-4.1 4.3 1.7 4.3 4.1 4.3c2.7.1 4.2-1.9 4.2-4.3z"/><path fill="#e6e6e6" d="m568.3 159.1h3.1v3c.8-2 2.4-3.4 4.8-3.3v3.2h-.2c-2.7 0-4.6 1.7-4.6 5.4v5.1h-3.1z"/><path fill="#e6e6e6" d="m577.9 153.9h3.1v11.1l5.6-6h3.8l-5.4 5.5 5.5 8h-3.5l-4.1-5.8-1.9 2v3.9h-3.1z"/><path fill="#e6e6e6" d="m590.6 165.8c0-3.9 3.1-7 7.2-7 4.2 0 7.2 3.2 7.2 7s-3.1 7-7.3 7c-4.1 0-7.1-3.1-7.1-7zm11.2 0c0-2.3-1.7-4.3-4.2-4.3s-4.1 2-4.1 4.3 1.7 4.3 4.1 4.3c2.6.1 4.2-1.9 4.2-4.3z"/><path fill="#e6e6e6" d="m607 167.6v-8.6h3.1v7.6c0 2.1 1.1 3.3 2.9 3.3s3-1.3 3-3.3v-7.6h3.1v13.4h-3.1v-2.1c-.8 1.3-2.1 2.3-4.2 2.3-3 .2-4.8-1.8-4.8-5z"/><path fill="#e6e6e6" d="m622.7 168.8v-7.1h-1.7v-2.6h1.7v-3.7h3.1v3.7h3.6v2.6h-3.6v6.6c0 1.2.6 1.7 1.7 1.7.7 0 1.3-.2 1.9-.5v2.5c-.8.5-1.7.7-2.8.7-2.3 0-3.9-.9-3.9-3.9z"/><path fill="#e6e6e6" d="m632 154.7h3.2v15h9.4v2.9h-12.6z"/><path fill="#e6e6e6" d="m654.8 172.5v-1.7c-.9 1.1-2.3 2-4.4 2-2.6 0-4.8-1.4-4.8-4.2 0-3 2.3-4.4 5.4-4.4 1.7 0 2.6.2 3.7.5v-.2c0-1.9-1.2-2.9-3.3-2.9-1.5 0-2.6.3-3.9.8l-.8-2.5c1.5-.7 2.9-1.1 5.1-1.1 4 0 5.9 2.1 5.9 5.7v8zm.1-5.6c-.8-.3-1.9-.5-3.1-.5-2 0-3.1.8-3.1 2.1s1.1 2 2.6 2c2 0 3.5-1.1 3.5-2.9z"/><path fill="#e6e6e6" d="m663.7 170.5v2.1h-3.1v-18.7h3.1v7.4c1-1.4 2.4-2.5 4.5-2.5 3.2 0 6.3 2.5 6.3 7s-3.1 7-6.3 7c-2.1 0-3.5-1.1-4.5-2.3zm7.8-4.7c0-2.6-1.7-4.3-3.9-4.3-2.1 0-3.9 1.7-3.9 4.4 0 2.6 1.8 4.3 3.9 4.3s3.9-1.7 3.9-4.4z"/><path fill="#e6e6e6" d="m675.8 170.8 1.4-2.1c1.4 1.1 3 1.7 4.4 1.7s2.1-.5 2.1-1.5-1.3-1.4-2.8-1.8c-.1 0-.2-.1-.2-.1-2-.6-4.2-1.4-4.2-4s2.1-4.1 4.8-4.1c1.7 0 3.5.6 5 1.5l-1.2 2.2c-1.3-.8-2.6-1.3-3.8-1.3s-1.9.5-1.9 1.4 1.3 1.4 2.8 1.8c.1 0 .2.1.2.1 2 .6 4.2 1.5 4.2 4 0 2.9-2.2 4.2-5 4.2-2 0-4.1-.7-5.8-2z"/><path fill="#e6e6e6" d="m61 298.6c0-5.1 4.1-9.2 9.3-9.2s9.2 4.2 9.2 9.2-4.1 9.2-9.3 9.2c-5.1 0-9.2-4.2-9.2-9.2zm17.4-.1c0-4.5-3.5-8.2-8.2-8.2s-8.2 3.7-8.2 8.3c0 4.5 3.5 8.2 8.2 8.2s8.2-3.7 8.2-8.3zm-13.1-.1c0-2.8 2.1-5.1 5.1-5.1 1.9 0 2.9.6 3.9 1.5l-1.4 1.7c-.8-.7-1.5-1.1-2.5-1.1-1.7 0-2.8 1.4-2.8 3.1s1.1 3 2.8 3c1.1 0 1.7-.5 2.5-1.1l1.4 1.4c-1.1 1.1-2.1 1.7-4 1.7-2.8.1-5-2.2-5-5.1z"/><path fill="#e6e6e6" d="m80.9 289.7h3.4l4.2 13.2 4.4-13.3h2.6l4.4 13.3 4.2-13.2h3.3l-6.2 18h-2.7l-4.4-12.8-4.4 12.8h-2.7z"/><path fill="#e6e6e6" d="m107.1 300.8c0-3.9 3.1-7 7.2-7s7.2 3.2 7.2 7-3.1 7-7.3 7c-4 0-7.1-3.1-7.1-7zm11.3 0c0-2.3-1.7-4.3-4.2-4.3s-4.1 2-4.1 4.3 1.7 4.3 4.1 4.3c2.6.1 4.2-1.9 4.2-4.3z"/><path fill="#e6e6e6" d="m123.7 294h3.1v3c.8-2 2.4-3.4 4.8-3.3v3.2h-.2c-2.7 0-4.6 1.7-4.6 5.4v5.1h-3.1z"/><path fill="#e6e6e6" d="m133.4 288.9h3.1v11.1l5.6-6h3.8l-5.4 5.5 5.5 8h-3.5l-4.1-5.8-1.9 1.9v3.9h-3.1z"/><path fill="#e6e6e6" d="m146 300.8c0-3.9 3.1-7 7.2-7s7.2 3.2 7.2 7-3.1 7-7.3 7c-4.1 0-7.1-3.1-7.1-7zm11.2 0c0-2.3-1.7-4.3-4.2-4.3s-4.1 2-4.1 4.3 1.7 4.3 4.1 4.3c2.6.1 4.2-1.9 4.2-4.3z"/><path fill="#e6e6e6" d="m162.4 302.6v-8.6h3.1v7.6c0 2.1 1.1 3.3 2.9 3.3s3-1.3 3-3.3v-7.6h3.1v13.4h-3.1v-2.1c-.8 1.3-2.1 2.3-4.2 2.3-3 .2-4.8-1.8-4.8-5z"/><path fill="#e6e6e6" d="m178.1 303.8v-7.1h-1.7v-2.7h1.7v-3.7h3.1v3.7h3.6v2.6h-3.6v6.6c0 1.2.6 1.7 1.7 1.7.7 0 1.3-.2 1.9-.5v2.5c-.8.5-1.7.7-2.8.7-2.3.1-3.9-.9-3.9-3.8z"/><path fill="#e6e6e6" d="m187.4 289.7h3.2v15h9.4v2.9h-12.5v-17.9z"/><path fill="#e6e6e6" d="m210.2 307.5v-1.7c-.9 1.1-2.3 2-4.4 2-2.6 0-4.8-1.4-4.8-4.2 0-3 2.3-4.4 5.4-4.4 1.7 0 2.6.2 3.7.5v-.2c0-1.9-1.2-2.9-3.3-2.9-1.5 0-2.6.3-3.9.8l-.8-2.5c1.5-.7 2.9-1.1 5.1-1.1 4 0 5.9 2.1 5.9 5.7v8zm.1-5.6c-.8-.3-1.9-.5-3.1-.5-2 0-3.1.8-3.1 2.1s1.1 2 2.6 2c2 0 3.5-1.1 3.5-2.9z"/><path fill="#e6e6e6" d="m219.2 305.5v2.1h-3.1v-18.7h3.1v7.4c1-1.4 2.4-2.5 4.5-2.5 3.2 0 6.3 2.5 6.3 7s-3.1 7-6.3 7c-2.2 0-3.6-1.1-4.5-2.3zm7.7-4.7c0-2.6-1.7-4.3-3.9-4.3s-3.9 1.7-3.9 4.4c0 2.6 1.8 4.3 3.9 4.3s3.9-1.7 3.9-4.4z"/><path fill="#e6e6e6" d="m231.2 305.8 1.4-2.1c1.4 1.1 3 1.7 4.4 1.7s2.1-.5 2.1-1.5-1.3-1.4-2.8-1.8c-.1 0-.2-.1-.2-.1-2-.6-4.2-1.4-4.2-4s2.1-4.1 4.8-4.1c1.7 0 3.5.6 5 1.5l-1.2 2.2c-1.3-.8-2.6-1.3-3.8-1.3s-1.9.5-1.9 1.4 1.3 1.4 2.8 1.8c.1 0 .2.1.2.1 2 .6 4.2 1.5 4.2 4 0 2.9-2.2 4.2-5 4.2-2 0-4.1-.7-5.8-2z"/><path fill="#e6e6e6" d="m360.6 298.6c0-5.1 4.1-9.2 9.3-9.2s9.2 4.2 9.2 9.2-4.1 9.2-9.3 9.2-9.2-4.2-9.2-9.2zm17.4-.1c0-4.5-3.5-8.2-8.2-8.2s-8.2 3.7-8.2 8.3c0 4.5 3.5 8.2 8.2 8.2s8.2-3.7 8.2-8.3zm-13.1-.1c0-2.8 2.1-5.1 5.1-5.1 1.9 0 2.9.6 3.9 1.5l-1.4 1.7c-.8-.7-1.5-1.1-2.5-1.1-1.7 0-2.8 1.4-2.8 3.1s1.1 3 2.8 3c1.1 0 1.7-.5 2.5-1.1l1.4 1.4c-1.1 1.1-2.1 1.7-4 1.7-2.8.1-5-2.2-5-5.1z"/><path fill="#e6e6e6" d="m380.5 289.7h3.4l4.2 13.2 4.4-13.3h2.6l4.4 13.3 4.2-13.2h3.3l-6.2 18h-2.7l-4.4-12.8-4.4 12.8h-2.7z"/><path fill="#e6e6e6" d="m406.7 300.8c0-3.9 3.1-7 7.2-7 4.2 0 7.2 3.2 7.2 7s-3.1 7-7.3 7c-4.1 0-7.1-3.1-7.1-7zm11.3 0c0-2.3-1.7-4.3-4.2-4.3s-4.1 2-4.1 4.3 1.7 4.3 4.1 4.3c2.7.1 4.2-1.9 4.2-4.3z"/><path fill="#e6e6e6" d="m423.3 294h3.1v3c.8-2 2.4-3.4 4.8-3.3v3.2h-.2c-2.7 0-4.6 1.7-4.6 5.4v5.1h-3.1z"/><path fill="#e6e6e6" d="m433 288.9h3.1v11.1l5.6-6h3.8l-5.4 5.5 5.5 8h-3.5l-4.1-5.8-1.9 2v3.9h-3.1z"/><path fill="#e6e6e6" d="m445.6 300.8c0-3.9 3.1-7 7.2-7 4.2 0 7.2 3.2 7.2 7s-3.1 7-7.3 7c-4.1 0-7.1-3.1-7.1-7zm11.3 0c0-2.3-1.7-4.3-4.2-4.3s-4.1 2-4.1 4.3 1.7 4.3 4.1 4.3c2.6.1 4.2-1.9 4.2-4.3z"/><path fill="#e6e6e6" d="m462.1 302.6v-8.6h3.1v7.6c0 2.1 1.1 3.3 2.9 3.3s3-1.3 3-3.3v-7.6h3.1v13.4h-3.1v-2.1c-.8 1.3-2.1 2.3-4.2 2.3-3.1.2-4.8-1.8-4.8-5z"/><path fill="#e6e6e6" d="m477.8 303.8v-7.1h-1.8v-2.7h1.7v-3.7h3.1v3.7h3.6v2.6h-3.6v6.6c0 1.2.6 1.7 1.7 1.7.7 0 1.3-.2 1.9-.5v2.5c-.8.5-1.7.7-2.8.7-2.2.1-3.8-.9-3.8-3.8z"/><path fill="#e6e6e6" d="m487.1 289.7h3.2v15h9.4v2.9h-12.5v-17.9z"/><path fill="#e6e6e6" d="m509.9 307.5v-1.7c-.9 1.1-2.3 2-4.4 2-2.6 0-4.8-1.4-4.8-4.2 0-3 2.3-4.4 5.4-4.4 1.7 0 2.6.2 3.7.5v-.2c0-1.9-1.2-2.9-3.3-2.9-1.5 0-2.6.3-3.9.8l-.8-2.5c1.5-.7 2.9-1.1 5.1-1.1 4 0 5.9 2.1 5.9 5.7v8zm.1-5.6c-.8-.3-1.9-.5-3.1-.5-2 0-3.1.8-3.1 2.1s1.1 2 2.6 2c2 0 3.5-1.1 3.5-2.9z"/><path fill="#e6e6e6" d="m518.8 305.5v2.1h-3.1v-18.7h3.1v7.4c1-1.4 2.4-2.5 4.5-2.5 3.2 0 6.3 2.5 6.3 7s-3.1 7-6.3 7c-2.2 0-3.5-1.1-4.5-2.3zm7.7-4.7c0-2.6-1.7-4.3-3.9-4.3s-3.9 1.7-3.9 4.4c0 2.6 1.8 4.3 3.9 4.3s3.9-1.7 3.9-4.4z"/><path fill="#e6e6e6" d="m530.8 305.8 1.4-2.1c1.4 1.1 3 1.7 4.4 1.7s2.1-.5 2.1-1.5-1.3-1.4-2.8-1.8c-.1 0-.2-.1-.2-.1-2-.6-4.2-1.4-4.2-4s2.1-4.1 4.8-4.1c1.7 0 3.5.6 5 1.5l-1.2 2.2c-1.3-.8-2.6-1.3-3.8-1.3s-1.9.5-1.9 1.4 1.3 1.4 2.8 1.8c.1 0 .2.1.2.1 2 .6 4.2 1.5 4.2 4 0 2.9-2.2 4.2-5 4.2-1.9 0-4.1-.7-5.8-2z"/><path fill="#e6e6e6" d="m659.5 298.6c0-5.1 4.1-9.2 9.3-9.2s9.2 4.2 9.2 9.2-4.1 9.2-9.3 9.2-9.2-4.2-9.2-9.2zm17.3-.1c0-4.5-3.5-8.2-8.2-8.2s-8.2 3.7-8.2 8.3c0 4.5 3.5 8.2 8.2 8.2 4.8 0 8.2-3.7 8.2-8.3zm-13-.1c0-2.8 2.1-5.1 5.1-5.1 1.9 0 2.9.6 3.9 1.5l-1.4 1.7c-.8-.7-1.5-1.1-2.5-1.1-1.7 0-2.8 1.4-2.8 3.1s1.1 3 2.8 3c1.1 0 1.7-.5 2.5-1.1l1.4 1.4c-1.1 1.1-2.1 1.7-4 1.7-2.9.1-5-2.2-5-5.1z"/><path fill="#e6e6e6" d="m679.3 289.7h3.4l4.2 13.2 4.4-13.3h2.6l4.4 13.3 4.2-13.2h3.3l-6.2 18h-2.6l-4.4-12.8-4.4 12.8h-2.7z"/><path fill="#e6e6e6" d="m705.5 300.8c0-3.9 3.1-7 7.2-7 4.2 0 7.2 3.2 7.2 7s-3.1 7-7.3 7c-4 0-7.1-3.1-7.1-7zm11.3 0c0-2.3-1.7-4.3-4.2-4.3s-4.1 2-4.1 4.3 1.7 4.3 4.1 4.3c2.7.1 4.2-1.9 4.2-4.3z"/><path fill="#e6e6e6" d="m722.1 294h3.1v3c.8-2 2.4-3.4 4.8-3.3v3.2h-.2c-2.7 0-4.6 1.7-4.6 5.4v5.1h-3.1z"/><path fill="#e6e6e6" d="m731.8 288.9h3.1v11.1l5.6-6h3.8l-5.4 5.5 5.5 8h-3.5l-4.1-5.8-1.9 2v3.9h-3.1z"/><path fill="#e6e6e6" d="m744.4 300.8c0-3.9 3.1-7 7.2-7 4.2 0 7.2 3.2 7.2 7s-3.1 7-7.3 7c-4.1 0-7.1-3.1-7.1-7zm11.3 0c0-2.3-1.7-4.3-4.2-4.3s-4.1 2-4.1 4.3 1.7 4.3 4.1 4.3c2.6.1 4.2-1.9 4.2-4.3z"/><path fill="#e6e6e6" d="m760.9 302.6v-8.6h3.1v7.6c0 2.1 1.1 3.3 2.9 3.3s3-1.3 3-3.3v-7.6h3.1v13.4h-3.1v-2.1c-.8 1.3-2.1 2.3-4.2 2.3-3.1.2-4.8-1.8-4.8-5z"/><path fill="#e6e6e6" d="m776.6 303.8v-7.1h-1.7v-2.7h1.7v-3.7h3.1v3.7h3.6v2.6h-3.6v6.6c0 1.2.6 1.7 1.7 1.7.7 0 1.3-.2 1.9-.5v2.5c-.8.5-1.7.7-2.8.7-2.3.1-3.9-.9-3.9-3.8z"/><path fill="#e6e6e6" d="m785.9 289.7h3.2v15h9.4v2.9h-12.5v-17.9z"/><path fill="#e6e6e6" d="m808.7 307.5v-1.7c-.9 1.1-2.3 2-4.4 2-2.6 0-4.8-1.4-4.8-4.2 0-3 2.3-4.4 5.4-4.4 1.7 0 2.6.2 3.7.5v-.2c0-1.9-1.2-2.9-3.3-2.9-1.5 0-2.6.3-3.9.8l-.8-2.5c1.5-.7 2.9-1.1 5.1-1.1 4 0 5.9 2.1 5.9 5.7v8zm.1-5.6c-.8-.3-1.9-.5-3.1-.5-2 0-3.1.8-3.1 2.1s1.1 2 2.6 2c2 0 3.5-1.1 3.5-2.9z"/><path fill="#e6e6e6" d="m817.6 305.5v2.1h-3.1v-18.7h3.1v7.4c1-1.4 2.4-2.5 4.5-2.5 3.2 0 6.3 2.5 6.3 7s-3.1 7-6.3 7c-2.1 0-3.5-1.1-4.5-2.3zm7.7-4.7c0-2.6-1.7-4.3-3.9-4.3-2.1 0-3.9 1.7-3.9 4.4 0 2.6 1.8 4.3 3.9 4.3 2.2 0 3.9-1.7 3.9-4.4z"/><path fill="#e6e6e6" d="m829.6 305.8 1.4-2.1c1.4 1.1 3 1.7 4.4 1.7s2.1-.5 2.1-1.5-1.3-1.4-2.8-1.8c-.1 0-.2-.1-.2-.1-2-.6-4.2-1.4-4.2-4s2.1-4.1 4.8-4.1c1.7 0 3.5.6 5 1.5l-1.2 2.2c-1.3-.8-2.6-1.3-3.8-1.3s-1.9.5-1.9 1.4 1.3 1.4 2.8 1.8c.1 0 .2.1.2.1 2 .6 4.2 1.5 4.2 4 0 2.9-2.2 4.2-5 4.2-1.9 0-4-.7-5.8-2z"/><path fill="#e6e6e6" d="m206.3 434.2c0-5.1 4.1-9.2 9.3-9.2s9.2 4.2 9.2 9.2-4.1 9.2-9.3 9.2-9.2-4.1-9.2-9.2zm17.4-.1c0-4.5-3.5-8.2-8.2-8.2s-8.2 3.7-8.2 8.3c0 4.5 3.5 8.2 8.2 8.2s8.2-3.7 8.2-8.3zm-13.1-.1c0-2.8 2.1-5.1 5.1-5.1 1.9 0 2.9.6 3.9 1.5l-1.4 1.7c-.8-.7-1.5-1.1-2.5-1.1-1.7 0-2.8 1.4-2.8 3.1s1.1 3 2.8 3c1.1 0 1.7-.5 2.5-1.1l1.4 1.4c-1.1 1.1-2.1 1.7-4 1.7-2.9.1-5-2.2-5-5.1z"/><path fill="#e6e6e6" d="m226.1 425.3h3.4l4.2 13.2 4.4-13.3h2.6l4.4 13.3 4.2-13.2h3.3l-6.2 18h-2.7l-4.4-12.8-4.4 12.8h-2.7z"/><path fill="#e6e6e6" d="m252.4 436.4c0-3.9 3.1-7 7.2-7 4.2 0 7.2 3.2 7.2 7s-3.1 7-7.3 7c-4.1 0-7.1-3.1-7.1-7zm11.2 0c0-2.3-1.7-4.3-4.2-4.3s-4.1 2-4.1 4.3 1.7 4.3 4.1 4.3c2.7.1 4.2-1.9 4.2-4.3z"/><path fill="#e6e6e6" d="m269 429.7h3.1v3c.8-2 2.4-3.4 4.8-3.3v3.2h-.2c-2.7 0-4.6 1.7-4.6 5.4v5.1h-3.1z"/><path fill="#e6e6e6" d="m278.6 424.5h3.1v11.1l5.6-6h3.8l-5.4 5.5 5.5 8h-3.5l-4.1-5.8-1.9 2v3.9h-3.1z"/><path fill="#e6e6e6" d="m291.3 436.4c0-3.9 3.1-7 7.2-7 4.2 0 7.2 3.2 7.2 7s-3.1 7-7.3 7c-4.1 0-7.1-3.1-7.1-7zm11.2 0c0-2.3-1.7-4.3-4.2-4.3s-4.1 2-4.1 4.3 1.7 4.3 4.1 4.3c2.6.1 4.2-1.9 4.2-4.3z"/><path fill="#e6e6e6" d="m307.7 438.2v-8.6h3.1v7.6c0 2.1 1.1 3.3 2.9 3.3s3-1.3 3-3.3v-7.6h3.1v13.4h-3.1v-2.1c-.8 1.3-2.1 2.3-4.2 2.3-3 .2-4.8-1.8-4.8-5z"/><path fill="#e6e6e6" d="m323.4 439.4v-7.1h-1.7v-2.6h1.7v-3.7h3.1v3.7h3.6v2.6h-3.6v6.6c0 1.2.6 1.7 1.7 1.7.7 0 1.3-.2 1.9-.5v2.5c-.8.5-1.7.7-2.8.7-2.3 0-3.9-.9-3.9-3.9z"/><path fill="#e6e6e6" d="m332.7 425.3h3.2v15h9.4v2.9h-12.5v-17.9z"/><path fill="#e6e6e6" d="m355.5 443.1v-1.7c-.9 1.1-2.3 2-4.4 2-2.6 0-4.8-1.4-4.8-4.2 0-3 2.3-4.4 5.4-4.4 1.7 0 2.6.2 3.7.5v-.2c0-1.9-1.2-2.9-3.3-2.9-1.5 0-2.6.3-3.9.8l-.8-2.5c1.5-.7 2.9-1.1 5.1-1.1 4 0 5.9 2.1 5.9 5.7v8zm.1-5.6c-.8-.3-1.9-.5-3.1-.5-2 0-3.1.8-3.1 2.1s1.1 2 2.6 2c2 0 3.5-1.1 3.5-2.9z"/><path fill="#e6e6e6" d="m364.4 441.1v2.1h-3.1v-18.7h3.1v7.4c1-1.4 2.4-2.5 4.5-2.5 3.2 0 6.3 2.5 6.3 7s-3.1 7-6.3 7c-2.1 0-3.5-1.1-4.5-2.3zm7.7-4.7c0-2.6-1.7-4.3-3.9-4.3-2.1 0-3.9 1.7-3.9 4.4 0 2.6 1.8 4.3 3.9 4.3 2.2 0 3.9-1.7 3.9-4.4z"/><path fill="#e6e6e6" d="m376.5 441.4 1.4-2.1c1.4 1.1 3 1.7 4.4 1.7s2.1-.5 2.1-1.5-1.3-1.4-2.8-1.8c-.1 0-.2-.1-.2-.1-2-.6-4.2-1.4-4.2-4s2.1-4.1 4.8-4.1c1.7 0 3.5.6 5 1.5l-1.2 2.2c-1.3-.8-2.6-1.3-3.8-1.3s-1.9.5-1.9 1.4 1.3 1.4 2.8 1.8c.1 0 .2.1.2.1 2 .6 4.2 1.5 4.2 4 0 2.9-2.2 4.2-5 4.2-2 0-4.1-.7-5.8-2z"/><path fill="#e6e6e6" d="m505.1 434.2c0-5.1 4.1-9.2 9.3-9.2s9.2 4.2 9.2 9.2-4.1 9.2-9.3 9.2-9.2-4.1-9.2-9.2zm17.4-.1c0-4.5-3.5-8.2-8.2-8.2s-8.2 3.7-8.2 8.3c0 4.5 3.5 8.2 8.2 8.2s8.2-3.7 8.2-8.3zm-13.1-.1c0-2.8 2.1-5.1 5.1-5.1 1.9 0 2.9.6 3.9 1.5l-1.4 1.7c-.8-.7-1.5-1.1-2.5-1.1-1.7 0-2.8 1.4-2.8 3.1s1.1 3 2.8 3c1.1 0 1.7-.5 2.5-1.1l1.4 1.4c-1.1 1.1-2.1 1.7-4 1.7-2.9.1-5-2.2-5-5.1z"/><path fill="#e6e6e6" d="m525 425.3h3.4l4.2 13.2 4.4-13.3h2.6l4.4 13.3 4.2-13.2h3.3l-6.2 18h-2.7l-4.4-12.8-4.4 12.8h-2.7z"/><path fill="#e6e6e6" d="m551.2 436.4c0-3.9 3.1-7 7.2-7 4.2 0 7.2 3.2 7.2 7s-3.1 7-7.3 7c-4.1 0-7.1-3.1-7.1-7zm11.2 0c0-2.3-1.7-4.3-4.2-4.3s-4.1 2-4.1 4.3 1.7 4.3 4.1 4.3c2.7.1 4.2-1.9 4.2-4.3z"/><path fill="#e6e6e6" d="m567.8 429.7h3.1v3c.8-2 2.4-3.4 4.8-3.3v3.2h-.2c-2.7 0-4.6 1.7-4.6 5.4v5.1h-3.1z"/><path fill="#e6e6e6" d="m577.5 424.5h3.1v11.1l5.6-6h3.8l-5.4 5.5 5.5 8h-3.5l-4.1-5.8-1.9 2v3.9h-3.1z"/><path fill="#e6e6e6" d="m590.1 436.4c0-3.9 3.1-7 7.2-7 4.2 0 7.2 3.2 7.2 7s-3.1 7-7.3 7c-4.1 0-7.1-3.1-7.1-7zm11.2 0c0-2.3-1.7-4.3-4.2-4.3s-4.1 2-4.1 4.3 1.7 4.3 4.1 4.3c2.6.1 4.2-1.9 4.2-4.3z"/><path fill="#e6e6e6" d="m606.5 438.2v-8.6h3.1v7.6c0 2.1 1.1 3.3 2.9 3.3s3-1.3 3-3.3v-7.6h3.1v13.4h-3.1v-2.1c-.8 1.3-2.1 2.3-4.2 2.3-3 .2-4.8-1.8-4.8-5z"/><path fill="#e6e6e6" d="m622.2 439.4v-7.1h-1.7v-2.6h1.7v-3.7h3.1v3.7h3.6v2.6h-3.6v6.6c0 1.2.6 1.7 1.7 1.7.7 0 1.3-.2 1.9-.5v2.5c-.8.5-1.7.7-2.8.7-2.3 0-3.9-.9-3.9-3.9z"/><path fill="#e6e6e6" d="m631.5 425.3h3.2v15h9.4v2.9h-12.5v-17.9z"/><path fill="#e6e6e6" d="m654.3 443.1v-1.7c-.9 1.1-2.3 2-4.4 2-2.6 0-4.8-1.4-4.8-4.2 0-3 2.3-4.4 5.4-4.4 1.7 0 2.6.2 3.7.5v-.2c0-1.9-1.2-2.9-3.3-2.9-1.5 0-2.6.3-3.9.8l-.8-2.5c1.5-.7 2.9-1.1 5.1-1.1 4 0 5.9 2.1 5.9 5.7v8zm.1-5.6c-.8-.3-1.9-.5-3.1-.5-2 0-3.1.8-3.1 2.1s1.1 2 2.6 2c2 0 3.5-1.1 3.5-2.9z"/><path fill="#e6e6e6" d="m663.3 441.1v2.1h-3.1v-18.7h3.1v7.4c1-1.4 2.4-2.5 4.5-2.5 3.2 0 6.3 2.5 6.3 7s-3.1 7-6.3 7c-2.2 0-3.6-1.1-4.5-2.3zm7.7-4.7c0-2.6-1.7-4.3-3.9-4.3s-3.9 1.7-3.9 4.4c0 2.6 1.8 4.3 3.9 4.3s3.9-1.7 3.9-4.4z"/><path fill="#e6e6e6" d="m675.3 441.4 1.4-2.1c1.4 1.1 3 1.7 4.4 1.7s2.1-.5 2.1-1.5-1.3-1.4-2.8-1.8c-.1 0-.2-.1-.2-.1-2-.6-4.2-1.4-4.2-4s2.1-4.1 4.8-4.1c1.7 0 3.5.6 5 1.5l-1.2 2.2c-1.3-.8-2.6-1.3-3.8-1.3s-1.9.5-1.9 1.4 1.3 1.4 2.8 1.8c.1 0 .2.1.2.1 2 .6 4.2 1.5 4.2 4 0 2.9-2.2 4.2-5 4.2-2 0-4.1-.7-5.8-2z"/></g>
</svg>
