<?xml version="1.0" encoding="utf-8"?>
<!-- Generator: Adobe Illustrator 23.0.1, SVG Export Plug-In . SVG Version: 6.00 Build 0)  -->
<svg version="1.2" baseProfile="tiny" id="Layer_1" xmlns="http://www.w3.org/2000/svg" xmlns:xlink="http://www.w3.org/1999/xlink"
	 x="0px" y="0px" viewBox="0 0 900 600" xml:space="preserve">
<g>
	<path d="M651.4,181.33l0.1,0.1C651.45,181.32,651.54,181.33,651.4,181.33z"/>
	<path d="M654.04,403.82l0.1-0.1C654.02,403.59,654.04,403.64,654.04,403.82z"/>
	<path d="M630.17,315.03l0.1-0.1C630.11,314.89,630.17,314.77,630.17,315.03z"/>
	<path d="M599.15,247.79C599.76,264.77,611.64,279.47,599.15,247.79L599.15,247.79z"/>
	<path d="M730.54,34.33c0-4.08-0.88-7.53-4.98-8.64c-2.65-0.53-0.47-2.02-4.98-2.34c-1.62,2.43,2.12-1.51,3.45,7.82
		c0.2,2.34-0.3,4.37-2.13,5.89c1.02,1.02,1.42,1.12,1.83,0.61c2.31-3.24-0.14-1.52,5.59-1.52c0.2,0.2,31.33,25.24,34.44,26.41
		c5.08,1.92,4.44,8.48-1.42,5.18c-1.76-4.7,1.62-1.44-41.35-29.16c-0.06-0.4-0.1-0.71-0.14-0.97c-0.03-1.32-0.24-4.94-0.87-13.46
		c-2.84-2.27-4.56-1.61-6.2-0.61c2.65,3.98,4.4-5.73,6.1,13.82c-1.42-0.1-2.54,0.51-3.86-0.2c0-9.23,0.25-6.93-2.44-12.29
		c-1.22,0-2.34,0-3.35,0c-1.42-0.91-2.24-2.34-3.96-2.44c-2.64,0.61-2.84,3.35-4.06,5.18c-45.04-3.81-33.95-6.07-115.82-13.21
		c-3.82-0.33-3.96-2.81-5.99-1.32c-1.14,0.83-4.7,0.11-10.57-1.02c-9.82-1.89,1.02-2.92-8.03-5.18c-1.88-5.02-1.5-4.37-9.14-4.37
		c-6.95-2.32-5.03-4.37-7.31,0.2c-7.54,2.86-7.11-2.95-9.35,4.88c-0.1,0.04-40.53,17.93-40.64,17.98
		c-7.77,4.22-12.46,7.42-7.31,14.73c1.45,2.06,6.05,1.77,8.43,0.41c5.12-2.93,9.94-4.03,11.18-6.1c0.27-0.53-0.22-0.27,17.47-7.62
		c3.78,6.43-3.22,71.62,4.27,71.62c10.69-0.56,13.76,1.77,18.29-0.81c1.53,2.29-1.79-1.92,5.99,14.02c1.71,3.5,1.26,5.84,1.22,8.03
		c-0.68,38.82,14.03,52.34,19.61,63.5c6.68,13.36,1.29,11.16,7.01,24.59c0.06,0.12,8.38,18.07,8.43,18.19
		c3.99,8.87,6.99,16,9.22,21.65c-0.04-1.08-0.03-2.18,0.03-3.27c0-5.56-7.42-15.13-6.4-16.36c6.74,0.75,4.17,1.82,15.14-9.14
		c3.67-3.67,3.52,0.16,5.59-1.22c-0.3-0.81-0.61-1.63-1.02-2.54c8.64-13.72,7.77-35.06,4.06-45.01c-0.7-1.41,1.08-1.69,3.66,2.95
		c7.46,13.41,8.75,14.69,9.04,17.78c0.9,9.66,15.67,27.23,20.73,27.23c0.41-1.93-1.42-2.84-1.73-4.77c0-10.02,0.48-5.33-3.25-12.8
		c-1.98-3.95-1.63-3.83-2.74-4.57c-3.7,1.48,4.85,7.04,2.74,14.43c-0.42-0.21-16.98-17.91-14.12-21.84
		c-5.99-10.71-6.93-11.48-6.91-12.75c4.25,1.73,5.22,5.66,9.04,7.57c2.02,1.01,1.25-1.9-2.03-4.17c-1.63-1.13-0.57,0.3-10.46-11.99
		c2.65-6.49-2.03-26.32,3.05-31.39c-3.07-1.23-1.96-2.35-2.38-2.56c2.33-0.76,1.74,0.25,2.73-6.07c4.37,9.07-0.84,7.64,11.02-13.12
		c0.3-0.71,0.91-1.32,1.63-1.12c1.12,0.31,1.32-0.61,2.03-1.02c1.02-0.71,2.54-0.81,3.76-1.22c-0.51-1.12,1.42-1.73,0.71-2.95
		c1.93-0.3,3.76-1.22,5.79-0.3c0.3,0.2,0.91,0.2,1.32,0c2.12-0.64,4.56,1.76,9.14-0.2c1.8-0.9,0.37,6.11,2.95,10.46
		c2.45,4.91-9.29,1.74-7.01,11.78c1.74-5.82-0.53-1.05,6.71-3.86c2.22-7.21,1.54-3.73-0.2-19.4c1.93-3.15,5.69-3.56,7.42-6.3
		c11.93-0.95,8.63,2.61,9.04-39.82c0.03-3.1-0.1-2.6,3.35-4.98c22.25-15.32,4.84-3.67,20.01-15.54c1.98,2.57,4.06,8.15,3.66,9.35
		c-1.22,2.74-1.02,5.69-1.63,8.53c2.42,4.85,1.36,5.72,2.64-3.05c0.54-3.71,2.05-5.7,0.2-10.46c-2.97-7.68-2.95-3.8-0.51-7.21
		c2.26-2.82,0.15-6.98,0.81-7.92c2.37,1.9-0.17,3.75,3.15,7.62c1.06,1.41,3.49,1.54,3.05,0.2c-0.81-0.3-1.63-0.71-2.44-1.12
		c-0.3-2.54,0.3-5.08-1.12-7.11c2.11-2.11,1.86-2.64,2.95-2.64c1.78,0,2.46,7.18,2.13,8.94c-0.3,1.63,0.3,2.95,1.32,4.17
		c1.22-0.1,2.54-0.3,3.56-0.41c3.63,3.18,6.63,4.83,3.35,8.84c-11.24,13.77,0.34,34.89-10.16,63.5c-5.24,14.28,2.36,7.96-8.03,47.55
		c-2.03,7.76-1.36,5.79-10.77,20.62c-1.93,0.1-2.43,0.31-2.74,1.22c-0.88,2.55-1.8,5.17-0.81,8.03c1.67,4.85-4.58,17.35-6.5,22.15
		c-6.62-6.3-4.75-6.47-5.08-10.77c0-0.61-0.41-1.02-1.22-0.81c-1.77,3.55-0.51,4.91-10.26-15.44c-3.36-7.01-5.07-7.5-5.59-11.78
		c-0.81-0.71-2.44,0.1-2.84-1.93c0.44-7,7.62-9.95,8.84-11.78c2.3-3.44,6.67-4.09,8.94-4.77c7.6-2.3-0.77-9.66,7.01-25.09
		c1.42-2.81,0.45-2.83,3.76-6.91c9.51-11.72,9.97-9.36,6.6-11.28c0.08-0.7-0.14-17.62,6.71-30.99c1.21-2.37,5.89-15.09,3.86-15.85
		c-0.71,2.34-1.82,4.27-3.15,6.2c-1.91,2.76-3.16,6.56-4.47,9.75c-2.19,5.35,0.44,4.5-3.15,15.44c-2.39,7.27-3.08,14.89-3.05,17.78
		c0.03,2.69-3.56,2.27-4.47,7.11c0,0,0,0,0,0c0-0.04-0.2-0.02-3.56,6.3c-7.23,13.62-4.98,14.48-4.98,23.57
		c-5.38,1.32-10.36,3.15-12.9,8.74c-4.95,2.23-6.91,5.49-8.33,10.46c-2.76,0.92-2.13-0.72-1.93-1.73c0.47-2.36,1.43-6.33-0.71-5.38
		c-0.75,1.49-0.47,6.34-1.52,10.57c-0.33,2.32,2.26,1,2.54,4.06c-8.14,9.76,0.51,3.24,1.63,2.95c1.63,3.15,2.83,6.3,3.35,9.75
		c0.82,5.44,1.52,2.75,1.52,5.18c-0.21,2.25,0.08,14.74-10.57,22.35c0.38,0.13,1.75,1.2,4.06-1.12c11.21-11.21,8.8-29.22,6.3-30.88
		c-0.1,0.51-0.2,1.12-1.32,1.63c-1.12-6.74-4.74-7.09-1.12-10.26c0.21,0.28,6.94,9.9,9.35,15.04c6.62,14.14,12.53,20.32,13.82,22.25
		c-0.52,9.97,1.02,10.99-3.76,23.98c-4.07,11.06-7.37,45.59-7.52,50.29c-0.19,5.82-1.78,8.53-2.34,11.58
		c-0.38,4.89,2.71,3.47-17.27,9.75c-1.52,0.48-38.19,1.73-44.8-1.32c0-8.2-1.91-9.41,0-10.26c8.13,9.61,0.99-1.34,0.71-5.79
		c0-1.59-1.84-0.65-1.52-3.45c0.1-0.88,2.9-11.44-2.34-19.81c-0.2,0.91-0.51,1.32-0.41,1.63c1.12,4.27,1.01,8.64,1.73,13
		c0.46,2.81-1.81,4.27-1.32,15.85c0.42,9.89-11.52,20.45-11.99,27.94c-0.6,9.62-1.61,37.33-0.81,46.83
		c2.46,29.35-2.8,20.54-0.91,37.49c0.1,0.04,11.78,4.62,15.14,6.3c0.37,1.84-0.47,4.85,4.06,6.3c2.64,1.13,1.04-1.76,6.5,14.43
		c3.51,10.4-2.5,25.19-4.37,35.96c-2.89,16.64,0.55,20.96,7.21,42.06c2.05,6.5,1.95,3.17,2.64,5.99
		c4.55,18.61-2.48,13.68-1.42,20.01c0.16,0.47-1.67,8.91-2.03,9.75c-0.52,1.04,3.94,10.24,4.27,10.87
		c2.67,5.1-0.21,12.34,2.74,21.74c1.99,6.32,4.09,6.41,10.16,10.77c3.58,2.57,3.03,3.5,5.69,4.27c12.43,3.56,14.48-2.48,17.88-13.82
		c4.76,4.03,5.63,5.75,10.36,6.6c2.71,0.49,6.55,0.96,8.13-1.22c0.18-0.37,2.05-0.09,3.05-2.03c3.05-5.95,4.38-7.38,3.56-9.75
		c-0.32-0.93-1.52-0.65-1.52-0.2c-0.41,3.11-1.91,4.28-6.3,10.87c-4.14,0.92-6.74,0.33-10.67-0.91c-2.22-0.7-0.93-1.74-2.74-3.56
		c-9.49-8.07-14-40.61-15.14-42.97c-0.12-0.12-0.68-0.2-0.2-0.2c4.35,0,1.07-3.79,2.95-6.6c4.86-1.46,3.18-1.02,4.27,1.52
		c0.24,0.49,1.28,0.59,1.63-0.1c0.88-3.07-0.19-4.82,1.52-11.58c0.47-1.84-0.67-1.08-0.91-0.1c-0.2,0.81-0.1,1.63-0.3,2.44
		c-0.1,0.41-0.61,0.71-1.32,1.63c0-53.42-7.47-51.08-4.88-58.92c0.03-0.1,6.49-19.01,6.39-19.11c5.5-0.87,2.23-0.82-3.14-12.99
		c-0.75-3.02,0.45-1.68-1.52-5.89c-2.19-4.68-3.17-5.17-2.95-7.62c0.94-10.35,0.77-22.16,1.02-24.59c3,2.21,6.51,5.16,4.88,2.74
		c-3.99-5.93-4.74-2.5-5.18-9.65c0-2.9-1.17-2.95,0.1-11.38c0.73-2.94,8.97,8.28,20.22,9.65c-0.66-0.79-19.51-13.06-19.61-13.11
		c1.96-4.9,2.32-3.77,2.54-7.31c0.36-5.72-0.04-5.71-1.02-5.59c0,10.41,0.47,3.93-3.05,15.65c-3.86,2.03-8.23,2.74-11.89,5.28
		c1.93,0.1,3.65-0.93,5.49-1.52c6.01-1.95,6.65-4.37,5.99,3.35c-1.81,21.3,1.47,32.13-3.56,30.58c-0.3-0.2-0.81,0.2-1.22,0.41
		c-5.52,2.39-10.29,2.15-19.81,2.74c-2.26,0.14-5.24,0.88-6.2,0.71c-2.26-0.4-7.61-1.01-8.94-2.84c0-6.71-0.75-4.23-15.75-9.85
		c-0.33-7.84-0.3-6.88,2.03-7.21c-2.52-8.81,0.8-5.82,1.22-13.11c0.62-10.77-3.34-6.82-2.84-47.75c0.25-20.65,0.88-16.56,7.31-26.82
		c4.47-7.13,3-0.95,4.37-7.11c1.14,3.86-0.8,5.38,0.71,5.38c5.14,0.54,1.24,1.29,9.85,4.17c-0.2,1.22-0.71,2.44-0.1,3.66
		c1.73-0.71,1.22-2.44,1.73-3.66c2.74-0.41,5.38,0.2,8.03-0.41c-0.34-5.16-1.47-4.47,4.17-4.47c0.78,0.78,0.73,2.03,1.72,2.48
		c-0.01-0.77-0.09-1.63-0.09-2.48c24.7-0.69,21.11-2.63,21.64,2.13c-7.3,5.55-5.31-3.29-7.42,1.63c-0.1,0-8.52,0.16-9.24,0.2
		c-1.06,0-2.2,1.52,1.32,1.52c6.2,0,5.48-0.31,8.74,0.1c4.66,30.29,3.22,11.63,3.05,10.67c-2.17-11.94-1.63-7.47-1.63-10.67
		c1.1,0,6.56-0.19,7.82-0.91c-3.71-1.24-4-0.25,9.85-4.37c5.12,3.23,6.48,14.95,8.94,13.72c0.35-0.79-0.13-7.05-5.18-14.63
		c6.76-3.6,2.31-1.99,12.7,15.95c8.64,14.92,1.65,4.17,2.84,16.66c0.99,10.31,2.58,2.19,0.1,47.44
		c-1.52,27.73-0.22,21.17-13.31,23.67c-15.23,2.91-17.29-0.14-20.52,2.44c10.11,2.89,23.16-1.46,30.27-0.1
		c-0.46,3-0.71,4.24-2.34,8.33c-2.87,7.25-0.36,7.73-2.44,21.23c-1.2,7.81,3.17,25.18,2.24,29.87
		c-11.25,56.55-11.52,62.02-16.66,66.14c-6-4.5-5.53-3.77-8.74-4.57c-4.37,7.44,7.53,11.31,12.9,3.35c0.82-1.21,1.33-2.41,2.95-2.74
		c0.92-0.19,0.61-1.83,2.03-1.73c0,0.65-0.01,3.57,0.51,3.96c1.51,1.28,1.08,2.22,2.84,4.88c1.91-0.38,0.93-3.73,0.2-4.88
		c-2.53-3.99,0.94-5.09-4.37-7.21c1.49-20.82,3.27-22.43,7.62-40.84c7.27-30.75-1.31-38.14,0.91-48.05c0.14-0.63,0.1,0.28,0.1-10.46
		c0-4.19,1.05,0.21,5.08-13.82c0.75-2.61,0-4.17-0.3-6.3c3.62-3.78,1.79-9.03,2.03-15.75c0.44-12.38,1.52-10.78,1.52-17.88
		c0-0.1,0.04-18.94,0.41-19.81c3.7-8.81-5-20.06,1.32-23.67c0.28-5.41-5.28-7.92-13-26.52c0.2-1.73,0.41-3.15,0.41-4.47
		c0-1.63-2.36-2.11-2.64-0.1c-0.24,0.71-0.51,1.95-0.51-1.12c0-8.51,2.27-7.22,2.03-17.68c-0.35-4.17,0.94-4.2,0.2-6.4
		c-1.71-5.14,0.76-3.53,1.93-18.19c2.67-33.28,7.72-18.07,7.72-42.67c2.22-14.78,7.19-16.73,8.23-22.05
		c2.48-12.73,0.81-10.14,0.81-15.85c4.73-1.5,12.29-17.19,14.32-21.74c6.87-15.37,4.26-26.73,4.37-27.63
		c0.65-9.47,1.5-11.65,0.71-14.32c1.74-3.22,6.11-14.64,5.18-18.19c-0.12-0.36,0.92-4.51,1.42-7.82c1.37-8.97,0.41-9.29,0.41-30.48
		c0-9.97,5.61-11.21,7.31-17.47c0.11,0.06,31.48,20.9,32.61,22.45c2.75,3.76,8.92,4,9.96,1.93C772.07,62.8,768.8,63.58,730.54,34.33
		z M725.26,26.5c0.35,0.7,0.16,0.33-0.1,0.2C725.16,26.71,725.26,26.6,725.26,26.5z M728.21,33.21c-1.02,0.3-1.63-0.51-2.44-0.81
		c-0.91-1.73-0.51-3.45-0.2-5.18C728.31,28.84,729.02,30.36,728.21,33.21z M659.02,123.83c0.61,0,1.22,0,2.03,0
		C660.24,124.64,659.63,124.34,659.02,123.83z M569.31,13.91c12.86,2.14,11.42-0.01,12.5,8.64c-2.13,0.41-3.96-0.3-5.89-0.3
		c-1.93-0.1-3.96,0.3-5.89-0.81C570.27,15.53,568.11,13.91,569.31,13.91z M559.05,43.47c-1.72-0.95,0.11-1.61-0.51-8.43
		c5.03-5.98,4.62-5.08,8.23-12.29c11.25,1.7,11.11,1.82,9.35,3.15c-12.74,10.92-11.81,14.05-15.34,14.83
		C560.13,40.73,559.17,43.23,559.05,43.47z M559.56,44.79c-0.32,1.92-0.01,1.73-0.41,1.73C559.15,44.45,559.02,44.79,559.56,44.79z
		 M563.73,9.03c-1.9,1.9-2.7,0.06,2.84,3.76c2.71,9.5,2.06,7.31-6.4,6.3C560.17,13.35,559.25,9.67,563.73,9.03z M557.83,17.97
		c-0.91,1.6-2.95,0.16-2.95-0.51c-0.55-7.21,1.56-5.82-0.71-12.8C561.81,1.39,558.25,17.23,557.83,17.97z M552.04,5.17
		c1.17,1.83,1.85,2.51,1.42,4.77c-1.14,5.97,0.71,6.68-0.71,7.72c-0.82,0.6-1.63,0.51-2.84-0.2c-0.61-12.15-0.3-6.69-2.74-14.02
		C550.42,2.73,550.57,2.86,552.04,5.17z M544.93,5.88c0-4.87,5.47,7.54,2.54,11.28C544.32,12.43,544.03,18.99,544.93,5.88z
		 M538.43,5.37c4.2,0.28,5.74-0.14,5.08,6.1c-0.24,1.45-1.86,0.91-2.74,0.91C537.82,5.36,536.84,10.65,538.43,5.37z M513.03,29.35
		c-12.37,4.86-9.09,5.07-17.68,9.96c-4.23,2.41-8.24-4.16-5.79-6.91c4.45-4.98,8.35-4.65,43.08-21.03c3.08-1.45,4.14-2.4,6.81,1.83
		c1.02,0.51,2.24,0.91,3.35,1.42c1.13,4.15,6.96,4.57-3.96,3.96C527.71,18.58,546.57,16.17,513.03,29.35z M619.6,130.84
		c-2.24-2.44-2.24-2.74-0.41-4.27C621.22,128.6,621.14,127.37,619.6,130.84z M619.3,105.75c0.25-0.25,0.51-0.62,0.51-0.1
		c-0.2,0.1-0.3,0.2-0.41,0.3C619.4,105.85,619.3,105.75,619.3,105.75z M621.84,131.45c0-0.1-0.1-0.3-0.1-0.3
		C622.37,130.82,622.63,131.05,621.84,131.45z M621.63,125.45c-1.38-2.21,1.48-2.22,1.83-0.91c0.2,0.75,0.28,1.6,0.39,2.45
		C622.71,127.11,622.12,126.34,621.63,125.45z M621.63,115.6c0-0.1,0.3,0,0.81,0c-0.3,1.02-0.41,1.73-0.51,2.64
		C621.14,117.44,621.18,116.24,621.63,115.6z M624.38,104.73c2.14-2.85,2,0.91,0.41,0.51C624.58,105.24,624.38,104.73,624.38,104.73
		z M623.97,97.62c0.78,0,0.32-0.59,0.81,1.12C624.28,98.13,624.07,97.92,623.97,97.62z M624.8,117.52
		C624.8,117.52,624.8,117.53,624.8,117.52C624.8,117.53,624.8,117.52,624.8,117.52z M624.87,117.37c0.01-0.01,0.01-0.02,0.01-0.04
		c0.62-1.24,0.08-0.91,1.22-0.91C625.62,117.87,625.08,117.19,624.87,117.37z M626.71,129.32c-0.1,0-0.2,0-0.2,0.1
		c0-0.19-0.36-0.41,0.3-0.41C626.71,129.11,626.71,129.21,626.71,129.32z M627.22,126.67c0-0.48-0.28-0.42,0.51-0.81
		C627.68,125.91,627.68,126.22,627.22,126.67z M627.32,118.14c1.09-1.45,0.81-1.22,1.22-1.22
		C629.77,117.53,627.32,119.41,627.32,118.14z M628.64,114.99c0-0.31,0.2-0.58,0.2-0.1C628.85,114.89,628.75,114.89,628.64,114.99z
		 M629.46,103.21c0-0.25-0.03-0.24,0.1-0.1L629.46,103.21z M630.27,106.66c-1.41-0.47,0.81-2.03,2.95-4.17
		C632.71,104.73,632.71,104.73,630.27,106.66z M630.17,98.33c0.51-0.41,1.02-0.71,1.73-1.22C631.79,98.74,631.79,98.74,630.17,98.33
		z M634.43,112.45c-0.6,1.5-1.04,0.07-1.52,1.52c0-0.1-0.1-0.3-0.1-0.3c0.88-0.44-0.12-2.55,1.12-1.93
		C634.23,111.84,634.54,112.25,634.43,112.45z M635.55,107.57c0-0.22-0.29-0.02,0.1-0.41C635.87,107.39,635.96,107.37,635.55,107.57
		z M639.72,94.98c-0.28,0-0.81-0.3,0-0.3C640.11,94.67,639.72,95.17,639.72,94.98z M636.77,92.64c-0.91,0.3-0.81,2.44-2.64,2.03
		c-0.2-0.51-0.3-1.02-0.51-1.73c-2.77-0.92-1.3-1.61-3.96,0.61c-0.91-0.51-1.73-1.02-2.74-1.63c-1.12,1.52-1.22,3.35-2.64,4.57
		c-1.32-0.81-2.44-2.54-4.57-1.52c-0.1,1.32,1.42,1.73,1.63,2.95c-2.84,2.48-2.78,1.85-2.03,3.35c-0.71,1.83-2.24,2.64-4.06,3.45
		c0.91,0.71,1.63,1.12,2.44,1.73c-2.68,4.02-1.37,2.56-2.03,5.38c-0.69,2.93-3.6,6.59-1.12,13.11c2.37,6.22,0.14,6.85,1.83,10.06
		c1.36,2.59,0.84,7.24,2.34,9.45c1.02,1.51,0.2,0.38,0.51,19.61c0.1,5.98-11.27-11.54-25.4-16.25c-0.2-0.1-0.61,0.2-1.12,0.41
		c0.3,0.41,0.51,0.91,0.81,1.12c16.18,11.06,4.58,1.42,20.01,17.47c0.4,2,4.56,14.5,2.34,30.58c-0.66,4.77-4.12,17.88-5.49,13.92
		c-8.4-24.43-6.09-22.72-8.33-23.47c-1.02,5.11,2.97,18.95,8.33,25.6c-1.13,3.96-7.09,9.4-10.57,11.58
		c-2.11,1.32-2.92,1.12-8.64,1.12c-3.38-6.77-11.19-27.08-10.97-30.99c0.68-12.09,1.97-7.11,0.2-13.31c2.02-2.02,0.66-2.55-0.91-6.6
		c-0.71-1.83-2.54-2.64-3.35-5.18c-0.21,5.52,2.67,3.67,3.76,13.51c0.2,1.02-0.51,1.42-1.22,1.83c-2.97-2.43-0.71-2.8-2.54-5.08
		c-0.27-0.34-5.19-4.47-8.13-10.67c-6.34-13.4-11.18-25.3-11.18-42.87c0-6.99-0.57-9.81-0.1-11.68c0.73-2.18,1.07-5.57,0-7.72
		c-1.42,0.3-0.61,2.03-1.83,2.34c-4.34-7.24-8.4-29.35-9.55-36.27c-3.38-0.84,0.76,14.27,1.73,22.05
		c-24.95-3.23-14.04,20.55-18.79-69.79c5.64-3.88,5.45-2.98,5.49-1.52c0.13,5.84,3.73,7.5,3.45,12.6c-0.09,1.63,0,1.63,2.13,3.05
		c0.79,14.25,0.75,9.67,2.64,27.02c0.54,4.95,1.25,4.78,2.13,5.49c1.32-6.92-0.92-9.32-2.54-32.51c-0.09-1.32-0.81-2.13-2.03-2.54
		c-0.2-2.03-0.72-3.85-1.83-5.59c-2.67-4.2-1.06-6.87-2.64-10.26c-2.52-2.52,23.98-0.2,28.55,1.32c-0.61,4.04-2.68,5.07-5.59,9.14
		c-8.82,14.11,9,34.37,10.46,57.81c0.64,10.16,5.1,15.92,2.24-6.5c-0.34-2.66,0.59-6.42-2.95-11.58c-1.44-2.1-2.13-5.64-5.18-12.39
		c-1.38-3.06-0.41-0.91-0.41-16.56c1.52-1.22,2.54-3.05,4.77-3.45c1.03-3.6,0.8-2.41,2.84-4.17c14.29-14.29,4.33-8.82,32.41-7.72
		c19.09,0.75,42.2,4.19,44.6,5.28c0,5.55-0.3,11.03-0.41,17.98c-0.87,57.36-0.01,11.64,1.22,41.25
		C644.19,93.05,640.53,91.83,636.77,92.64z M616.86,124.34h0.1C616.96,124.58,616.99,124.61,616.86,124.34z M645.71,103.82
		c-0.76-0.76,0-1.23,0.51-0.2C646.12,103.61,645.81,103.82,645.71,103.82z M644.7,98.53c-0.91-1.63-0.41-2.13,2.34-2.24
		C646.22,97.11,645.51,97.82,644.7,98.53z M647.44,102.6c-0.32-0.32-0.26,0.01,0.1-0.71C647.97,101.88,647.49,102.49,647.44,102.6z
		 M648.66,104.63c1.12-0.61,1.93,0,2.54,0.91C650.38,105.24,649.47,104.93,648.66,104.63z M650.89,99.85
		c-0.62,0.62-0.54,0.96-0.81,0.41C650.81,99.53,650.62,99.58,650.89,99.85z M650.79,96.91c0.26,0,0.23-0.05,0.1,0.2L650.79,96.91z
		 M656.89,106.15c-0.35,0-0.01-0.72,0.51-0.2C657.19,106.05,657.09,106.05,656.89,106.15z M658.92,95.59c0-0.81,0-1.52,1.02-1.73
		C660.14,94.98,660.14,94.98,658.92,95.59z M664.81,101.38c-1.02-0.1-0.91-0.81-0.91-1.32c0-0.91,0.3-1.02,2.13-0.61
		C665.42,100.36,665.12,100.87,664.81,101.38z M677.71,54.85c0-0.31,0.18-0.5,0.49-0.57C678.04,54.46,677.88,54.68,677.71,54.85z
		 M684.82,50.07c-13.45,9.5-1.47-1.04,0.46-0.72C685.12,49.63,685.01,49.89,684.82,50.07z M685.49,49.24
		c0.31-0.84,1.02-1.08,1.82-1.27C686.99,48.82,686.36,49.21,685.49,49.24z M696.81,40.93c-20.55,12.62-15.52,8.75-27.43,19.81
		c-1.42-0.2-3.15-0.1-4.67,0.91c-2.03,1.19-3.34-0.31-4.27,1.12c0.82,0.82,6.45,0.69,6.6,0.71c0.51,0,1.02,0.41,1.63,0.61
		c5.12-2.99,3.07-0.32,5.18-2.44c3.7-3.7,2.36-4.63,1.73,22.05c-0.37,15.46,2.75,13.98-10.76,13.52c2.06-1.79,2.81-2.09,2.53-2.65
		c-0.55-1.65-2.99-0.4-4.57,0.3c-0.61-1.63,0.3-3.56-0.51-5.08c-1.67-0.56-2.34,2.6-4.77,2.44c0.1-0.2,0.2-0.51,0.61-0.81
		c-3.35-0.91-6.1,1.02-9.14,1.32c2.62-8.11-1.65-49.78-0.2-56.99c13.78-2.65,2.13-0.1,20.01-0.1c2.84,0,5.69,0.2,8.84,0.91
		c-3.24,2.78-12.33,8.43-12.39,8.53c-1.58,2.5-4.16,3.96-6.1,6.1c-5.12,5.65-1.05,3.38-1.63,6.81c-0.65,2.93,0.3,3.35,0.71,3.96
		c2.16-3.38-1.64-6.67,2.34-8.94c2.54-1.67,8.31-7.2,19-14.32c2.51-2.09-2.09-2.25,20.12-0.1
		C699.05,39.71,697.82,40.31,696.81,40.93z M703.01,36.56c-6.35,0-40.91-3.61-47.65-4.77c-77.81-13.45-70-1.74-70-15.24
		c7.23,0,101.85,10.6,105.15,12.7c1.02,1.73,0.2,4.27,2.34,5.59c3.18-2.01-0.24-5.38,3.76-5.38c6.71,0.35,6.17,0.12,6.81,2.03
		C704.88,36.96,704.92,36.56,703.01,36.56z M705.75,27.21c-1.57-1.57-1.3-0.25,0-2.84C706.97,25.79,706.97,25.79,705.75,27.21z
		 M656.48,174.42c-0.67-1-1.66-2.14,0.2-1.52C657.66,173.22,657.36,173.54,656.48,174.42z M646.52,547.47
		c2.51,23.2,14.66,33.8,4.77,49.17c-0.51,0.91-1.52,1.12-2.44,1.12c-11.34,0-4.04,0.79-12.8-4.98c-12.19-8.02-8.1-4.68-10.06-14.02
		c-4.75-22.66,3.66-4.9-5.99-26.62c0.61-3.66,0.91-7.11,2.24-10.57c3.49,2.71,2.27,0.8,2.64,7.52c0,2.25,1.73,2.46,1.73,0.41
		c0.01-0.1,0.43-5.66,0.71-7.62c3.39-2.04,2.31-1.63,7.11-1.32c3.99,0.25,3.65,2.14,5.79,3.86c2.13,1.71,2.93-6.47,2.74-8.03
		c-0.1-0.1-1.52,0.3-0.81-1.12C643.7,536.05,646.27,545.12,646.52,547.47z M655.46,450.76c0,0.11,0.04,0.21-0.2,0
		C655.36,450.76,655.46,450.76,655.46,450.76z M647.54,430.13c1.63,2.34,1.52,5.59,3.66,7.52c-0.41,4.57,1.42,8.23,3.35,11.99
		c-1.12,1.4-8.56,18.44-6.71,26.62c4.18,18.42,4.81,18.77,4.67,21.64c-1.75,37.85,1.01,32.5-3.86,35.15
		c-2.58,6.27-1.67,7.17-3.15,3.66c-0.72-1.72-1.63-3.25-3.96-3.35c-2.82-12.71-5.54-13.56,1.83-52.93c0.62-3.3,1.3-6.07,0.3-9.55
		c-1.11-3.86-1.1-7.41-2.03-9.04c-2.27-4.55,0.13-5.91,2.64-19.1C646.1,433.22,642.89,438.92,647.54,430.13z M614.93,424.24
		c0.88,0,4.34,0.5,4.98,0.1c1.92-1.22,8.7-0.02,15.44-1.02c8.49-1.25,10.51-3.97,9.96-1.52c-5.42,23.73-0.02,11.41-4.57,25.7
		c-2.13,0.61-3.25,1.83-3.56,3.86c1.32,0.91,1.73-1.02,2.74-0.81c1.07,0.53,0.49,2.97,0.1,3.45c-2.93,4.63,2.45,18.64,2.34,19.2
		c-2.91,27.63-8.54,21.74-2.44,62.38c0,2.9-0.16,1.99,0.71,4.37c-7.52-4.78-17.3,2.5-15.95-0.2c1.03-3.25-0.46-8.41,0.71-11.58
		c1.48-5.19-11.92-32.53-12.7-40.13c-0.1-0.93,1-13.4,1.52-15.24c1.63,1.02,0.61,2.74,1.73,3.96c1.97-7.87-0.62-5.5,3.05-19.71
		c0.94-3.64,0.2-3.63,0.2-10.26c0.4-7.68,1.38-5.42,0.41-8.84C617.18,429.46,614.1,425.9,614.93,424.24z M606.7,312.79
		c-0.51-0.71-1.12-1.02-1.12-1.42C605.27,308.89,607.48,307.34,606.7,312.79z M608.63,310.25c2.1,0.53,1.4,0.29,1.73,3.56
		C608.12,313.2,608.12,313.2,608.63,310.25z M621.94,315.23c-0.74,0.74-1.35,0.91-6.4,0.41c-1.41-0.26-3.86-0.15-3.86-2.03
		c-0.63-3.78,2.31-2,5.08-1.83C622.97,312.16,621.94,311.32,621.94,315.23z M656.18,312.69c-0.33,0.67-2.84,2.34-2.54-1.63
		c1.84-0.92,2.54,4.24,2.54-0.41c1.52-0.51,1.52-0.51,1.83,1.83C657.39,312.49,656.68,312.59,656.18,312.69z M660.44,311.78
		c-1.28,0-1.87-1.3-0.2-3.35C660.72,311.34,661.16,311.42,660.44,311.78z M662.27,311.17c-1.32-3.51,0.29-3.72,1.12-2.34
		c0.1,0.3,0.41,0.51,0.71,0.91c0.81-0.81-0.41-2.54,1.22-2.84c1.12,0.2,0.51,1.73,1.73,2.03c0-1.59-0.71-3.45,1.73-3.05
		C669.79,309.95,671.25,308.29,662.27,311.17z M670.6,306.49c-0.51,0-0.22,0.12-0.51-1.02c0-0.37,0.61-0.05,0.61,0.1
		C670.7,305.88,670.6,306.19,670.6,306.49z M654.45,542.5c-1.32-0.49-1.81-4.34,2.24,0.1C655.77,542.6,655.06,542.8,654.45,542.5z"
		/>
	<path d="M220.54,171.98l-0.1,0.1C220.56,172.26,220.52,172.14,220.54,171.98z"/>
	<path d="M286.99,111.84l0.1-0.1C287.03,111.74,287.02,111.79,286.99,111.84z"/>
	<path d="M257.42,277.34c0.04-0.12,0.01-0.07-0.1-0.1L257.42,277.34z"/>
	<path d="M179.64,9.54C179.85,9.42,179.28,9.67,179.64,9.54L179.64,9.54z"/>
	<path d="M408.08,60.33c-7.38-3.39-14.07-11.8-28.34-21.03c-5.53-3.57-5.08-4.29-5.08-5.99c-0.41-6.29-5.56-5.74-6.5-7.31
		c-0.91-1.22-2.13-1.63-3.96-1.22c0.71,0.71,1.22,1.12,1.73,1.52c2.27,1.82,3.66,7.87,0.81,11.38c-0.82,1.23,0.62,1.86,1.22,1.12
		c2.39-2.39-0.37-2.22,5.69-1.12c38.62,30.04,39.65,28.43,37.59,31.8c-2.34,0-4.43,0.52-4.77-1.73
		c-0.61-3.93-31.59-22.04-39.72-27.33c-1.23-0.8-1.59-1.82-1.32-3.25c0.41-2.15,0.47,0.51-1.12-11.38
		c-2.24-2.03-2.24-2.13-3.66-2.13c-2.87,0-3.21,2.13,0.51,2.13c2.33,0,2.18,1.77,3.35,12.7c-1.42,0-2.64,0.61-3.96-0.1
		c0-4.92,0.74-8.71-3.05-12.5c-3.98,0.5-2.05,0.55-4.77-1.42c-2.41-1.74-3.65-0.02-4.88,2.44c-1.29,3-0.09,2.13-2.23,2.13
		c-43.88-4.18-30.84-4.5-80.97-10.16c-31.95-3.6-34.53-1.91-38.5-5.38c-1.43,1.71-2.63,1.67-13-0.41c-6.76-1.35,1.06-3.26-6.91-5.08
		c-3.48-7.55-4.11-1.76-12.09-5.18c-1.32,0.3-1.22-1.73-2.54-1.42c-1.42,0.51-1.32,2.13-2.03,2.95c-7.28,3.28-7.19-3.91-9.14,4.88
		c-0.42,0.17-0.65,0.26-0.77,0.3c-0.42,0.22-4.02,1.89-24.72,10.97c-6.48,2.84-21.03,7.82-24.18,14.12
		c-0.51,1.02-1.23,2.34-0.51,3.25c1.19,1.5,1.88,8.48,10.06,4.67c4.94-2.3,10.32-4.46,10.87-5.28c0.96-1.44,1.77-1.96,10.06-5.18
		c10.41-4.05,13.65-6.58,16.76-7.62c0.54,8.64,5.31,10.24,2.95,14.32c-0.7,1.05,1.61,1.8,2.95,2.54c1.07,12.35-0.61,5.56,2.34,25.2
		c2.16,14.39,3.47,4.08,2.34-2.24c-3.75-20.82-0.27-23.36-4.67-26.01c0-1.93-0.61-3.56-1.63-5.18c-2.82-4.49-1-7.8-2.64-9.85
		c-3.59-3.59,23.53-0.21,28.55,0.71c-0.13,2.56-1.24,4.03-5.28,8.94c-9.65,11.73,8.27,33.88,9.96,58.31
		c0.13,1.81,0.87,8.87,2.84,8.43c0-0.1,1.04-17.87-2.95-26.31c-1.49-3.17-0.16-3.36-1.22-4.06c-1.01-0.56-6.66-11.95-6.91-16.25
		c0.61,0.51,0.71,1.42,1.93,1.32c0.53-6.23-1.8-11.82,4.06-13.92c1.42-0.61,1.63-2.44,2.74-3.45c12.43-11.36,10.01-11.08,12.6-10.57
		c25.83,3.62,25.68,0.82,58.92,6.1c11.03,1.75,7.16,0.34,7.11,4.88c-0.13,13.12,0.44,30.19,0.51,43.79
		c0.08,15.55,7.53,12.01-11.38,12.5c-2.3,2.3-2.7,3.71-3.25,0.41c-2.47-1.06-1.94-1.32-3.96,0.71c-1.12-0.3-1.63-1.93-3.25-1.12
		c-3.27,8.51-2.73,0.14-6.71,2.44c-0.3,1.42,1.52,1.83,1.42,3.15c-0.71,0.61-1.63,1.32-2.44,2.03c1.95,2.6-2.64,3.46-3.15,4.98
		c4.8,3.43,0.2,0.13,0.2,6.3c-0.33,3-4.09,6.69-0.91,14.43c2.08,5.06-0.46,6.22,1.73,9.75c0.34,0.55,1.44,7.5,1.52,8.03
		c2.06,2.06,0.7,4,0.81,11.07c0.23,14.4,1.98,12.58-9.55,3.66c-2.71-2.09-2.62-3.34-5.38-5.38c-1.5-1.11-10.22-6.56-10.97-4.06
		c2.88,2.88,6.97,4.8,9.65,6.5c3.5,2.22,2.41,3.61,10.06,10.46c1.5,1.13,3.04,9.43,3.25,11.07c2.56,20.33-4.22,39.31-5.49,34.24
		c-9.27-24.72-5.32-21.6-8.43-23.47c-0.7,3.25,2.41,18.03,8.53,25.8c-1.34,4.03-7.17,9.28-11.07,11.78
		c-2.26,1.45-1.66,0.3-8.13,1.02c-16.69-36.47-8.9-36.27-10.16-41.86c-0.71-3.16-0.86-1.9,0.51-3.96c-2.18-6.54-3.1-6.5-5.4-9.46
		c-0.58,3.65,2.73,2.99,3.78,13.52c-0.51,0.3-0.91,0.61-1.32,0.81c-0.91-0.71-1.9-1.42-1.73-2.54c0.58-3.67-12.9-10.45-18.9-41.35
		c-1.06-5.44-2.06-26.08-1.02-27.13c0.36-7.23,0.38-5.73-0.61-7.72c-0.51,1.22-0.81,1.93-1.12,2.74c-3.11-1.56-9.71-30.7-9.75-35.35
		c0-0.5-1.47-1.15-1.42,0.81c0.58,25.4,8.36,20.73-6.3,20.73c-1.32,0-2.74,0.1-3.96-0.3c-1.9-4.76,2.35-1.11,2.03-3.96
		c0-0.1-4.09-27.56-4.27-60.55c-0.01-1.42-0.2-2.74-0.41-4.17c0-0.41-0.2-0.91-1.02-0.71c-1.49,8.96,1.21,70.19,2.34,73.96
		c5.28-0.41,10.57-0.1,15.85-0.3c3.56,12.58,7.09,10.11,6.6,21.84c-1.57,37.8,15.69,52.81,19.71,61.97
		c1.11,2.54,2.13,5.08,3.56,7.01c-0.21,13.53,9.42,30.97,10.36,32.41c4.69,6.04,11.91,33.19,13.51,39.11
		c1.91,7.09,4.4,5.85,1.12-3.86c-7.6-22.44-0.64-9.5-8.33-25.5c-2.54-5.28-2.71-4.31,0.61-3.96c4.68,0.49,5.23-2.15,7.62-4.47
		c6.07-5.91,6.45-6.86,8.23-7.01c0.81,0.1,1.32,1.52,2.74,1.02c-2.52-6.93,5.59-4.28,5.59-32.61c0-13.09-8.71-29.15,7.92-0.1
		c2.48,4.34,1.54,2.82,2.84,8.03c3.38,10.97,13.78,22.62,18.9,24.89c3.06,1.02-0.3-3.7-0.51-4.27c0-9.36,0.87-4.97-5.18-17.07
		c-0.91-1.36-2.26-0.14-1.63,1.12c3.25,7.9,4.5,5.58,3.76,12.7c-2.39-2.39-16.23-18.14-14.43-21.74c0.58-1.01-0.47-1.3-6.5-12.09
		c-2.03-3.04,2.88,0.56,5.28,3.56c0.9,1.13,2.24,1.93,3.45,2.84c0.2,0.2,0.71,0,1.32,0c-1.27-3.43-4.05-4.33-5.18-5.69
		c-11.57-13.97-7.93-7.88-7.72-17.27c0.42-18.52-2.28-19.86,2.34-24.69c-1.93-0.61-1.93-0.61-2.74-2.44
		c2.88-0.82,1.82,0.49,2.95-5.89c-1.49-0.62-3.35-2.54-2.24-3.66c0.78-0.52,1.93,0.51,2.13,1.42c0.18,0.82,0.1,1.52,0.1,2.34
		c2.05,1.03,1.31,8.37,3.56,2.74c2.5-6.28,2.32-7.86,4.17-10.16c3.08-3.84,2.48-7.42,5.89-7.42c0.37,0,0.86-1.53,4.52-2.02
		c1.24-2.36,0.59-1.61,1.17-3.06c1.93-0.3,3.76-0.73,5.79-0.2c1.12,0.29,2.33-0.2,3.45,0.1c5.04,1.35,5.68-0.49,7.62,0
		c2.01,14.09,3.3,9.03,1.83,12.7c-7.54,2.74-7.74,4.59-6.71,9.14c0.3-1.12,0.61-2.03,0.91-3.15c2.13,1.02,3.86-0.1,5.69-0.61
		c3.29-10.97,1.66-4.27,0.41-13.82c-1.28-9.7,1.49-6.02,6.1-10.87c0-1.87-0.63-2.84,2.13-2.84c8-0.57,7.2,2.54,6.3-9.65
		c-1.39-8.36-0.25-14.71-1.02-31.6c6.16-5.47,13.27-9.72,16.36-12.8c-4.45,1.27-16.08,8.71-22.76,16.56
		c-1.93-0.1-3.78-0.13-5.38,1.12c-0.48,0.38-3.09,0.46-3.96,0.61c-0.4,1.61,0.37,1.12,8.23,1.12c5.21-4.17,5.11-4.74,5.08-2.03
		c-0.19,17.77-0.58,17.4,0.41,18.9c0.51,0.78,0.41,1.11,0.41,10.36c0,3.14,2.01,0.9,1.02,5.49c-10.4,0.43-7.52-0.46-8.64-1.02
		c-0.51-0.2-1.22,0-1.63-0.3c-0.92-0.7-1.52,0.1-2.44,0.2c-0.51-1.83,0.51-3.76-0.61-5.59c-1.31,1.01-2.42,1.81-3.63,2.62
		c-1.06-1.98-2.12-1.14-6.13-0.28c-0.56-0.28-3.48-54.48-2.44-56.38c6.26-1.25,3.6,0.15,24.79,0.61c6.45,0.14-1.82,1.92-15.75,15.44
		c-4.46,4.33-1.13,3.39-1.42,6.91c0,3.22,0.05,2.87,0.61,3.15c2.13,0,0.15-4.49,0.91-7.11c30.55-23.36,20.71-15.78,22.66-17.37
		c22.7,2.03,19.74,0.51,11.78,6.2c-2.3,1.38-0.69,2.87,8.64-3.35c5.36,9.65,2.43,7.63,1.63,19.3c-0.3,4.3-0.93,4.61-6.4,19.3
		c-3.19,8.55,1.19,2.59-3.35,16.15c-1.71,5.1-3.14,13.62-3.05,17.68c0.07,3.17-3.43,1.78-4.47,7.11c-0.36,1.86-0.28-1.61-6.81,13.21
		c-3.94,8.95-0.66,15.04-2.13,17.07c-3.99,0.33-10.09,3.38-11.68,6.91c-1.34,2.96-6.13,2.76-8.53,9.96c-0.8,2.4,0.05,1.97-2.84,2.34
		c0.3-2.95,1.63-5.59,0.41-8.43c1.83-0.91,2.45-2.54,3.05-4.37c2.14-6.59,2.26-3.57,3.45-10.16c0.48-2.62,0.31-6.55,1.22-8.23
		c2.54-4.68-0.71-13.53-0.71-8.64c0,8.11-1.35,4.97-1.83,14.32c-0.22,4.37-0.14,3.14-3.66,13.31c-1.08,3.94-4.96,3.51-15.65,1.73
		c2.74,2.44,2.74,2.43,5.69,2.74c8.12,0.87,8.34-5.85,6.1,11.68c1.02,0.91,2.64,1.32,2.54,3.25c-1.12,1.63-3.05,2.84-3.56,5.38
		c2.13-0.3,3.35-1.93,5.18-2.64c5.09,9.87,2.51,11.93,4.57,13.61c2.42,3.63-3.22,20.07-9.75,23.16c-0.1,0.1-0.1,0.41-0.2,0.61
		c4.92,0.82,13.92-12.32,11.58-28.34c-0.68-4.69-2.17-3.33-2.84-4.67c-2.55-6.91-2.54-5.59-0.51-7.11
		c4.31,2.87,11.93,20.69,14.32,23.87c1.39,1.85,2.74,3.76,3.66,5.89c0.96,2.24,2.48,2.96,5.38,7.31c0,7.99,0.66,18.51-5.99,29.16
		c-1.83-4.57-3.11-3.32-4.77-4.98c-2.74-2.24-5.79-2.64-8.84-1.52c-4.27-1.32-8.53-1.93-12.8-1.83
		c-3.06,0.07-33.36,28.7-37.77,42.18c0.91,0.16,1.22-0.86,3.84-3.47c6.26,15.16,5.55,13.14,2.34,15.95c-3.5,3.06-7.12,5.9-8.18,8.99
		c0.11-0.11,9.59-8.69,9.7-8.79c2.41-2.41,3.07,0.74,4.27,21.64c0,4.93,2.82,3.55,1.52-11.99c-0.98-11.78-3.02-15.07-8.13-27.84
		c18.39-21.36,17.03-17.93,26.92-28.85c3.25-3.58,3.43-5.72,7.31-5.49c11.48,0.69,10.24,0.28,10.36,0.41
		c2.19,2.19,6.32-1.38,9.75,2.54c1.09,4.38,1.72,6.35,1.02,9.24c-4.53,18.55-3.01,17.35-4.27,18.29
		c-1.93,1.29,5.58,11.27,3.66,23.87c-0.12,0.82-1.6,10.52-2.13,11.58c-4.68,8.09-3.88,47.97-4.98,47.95
		c-5.94-0.09-7.85,2.79-10.26,3.76c-2.52,13.32,4.13,6.5-4.77,17.07c0,0-0.2,0-0.3,0c-1.12-2.64-0.2-3.96,2.74-6.6
		c0-11.79-14.38-42.09-10.46-40.23c-0.08-0.16,0.05-2.49-1.73-2.13c-5.79-12.44-8.09-25.1-8.03-34.14c0.05-6.53-1.54-4.32-2.03-6.6
		c5.52-17.94,9.33-22.77,6.4-22.35c-0.96,1.29-7.99,17.71-7.82,24.48c0.26,10.28,0.14,13.27,1.83,21.03
		c3.02,13.85,6.68,16.51,7.01,18.79c1.76,8.78,3.96,12.13,3.96,14.63c-8.92-3.47-14.87-12.81-16.76-20.62
		c-3.58-8.95,0.32,23.06,17.78,23.06c1.72,3.04,4.85,15.45,3.76,16.76c-0.95,0.47,0.08,0.14-13.41,0.3
		c-3.81,0.05-5.74-0.24-14.63-3.76c-14.43-5.72-6.46-2.61-29.26-26.01c-5.02-2.51,9.17,12.87,14.63,19.61
		c13.37,16.49,42.66,12.29,43.69,12.5c0.3,1.73,0.61,3.56,0.91,4.98c-5.85,9.5-5.11,11.2-4.27,14.73c1.61,1.07,0.63,4.61,1.32,6.91
		c2.33,7.8-2.1,20.01,4.47,20.01c7.27,0,20.52,1.01,24.59-4.06c19.34-2.06,8.99-4.12,18.08-1.83c6.75,1.7,6.35-1.37,24.38-1.83
		c1.13-0.03,1.12-0.64,1.93-1.73c2.94-1.26,8.33-3.56,5.28-4.47c-7.76,4.94-28.69,6.15-25.3,4.98c15.32-6.24,13.9-4.59,13.51-7.31
		c4.41-2.3,6.43,0.19,9.45,1.12c3.3,1.02,1.49-3.84-3.96-4.37c-8.75-0.85-0.96,3.74-24.08,10.36c-1.02,0.29-1.93,0.2-3.15-0.3
		c2.67-2.14,5.07-3.26,4.06-4.27c-1.36-1.7-6.01,4.25-8.23,2.03c-2.13,1.06-0.46,5.49-13.41,5.49c-5.57,0,7.86-3.8,5.28-6.81
		c-3.04,2.09-7.2,4.77-10.26,6.71c-12.88,1.29,4.82-2.86,9.04-10.77c10.64-2.13,11.17-0.41,14.67-0.41
		c-1.81-4.01-14.47-2.03-17.21,0.71c-5.57,5.57-12.57,7.13-14.73,10.46c-5.68-0.36-7.03,0.76-4.77,1.32
		c3.79,1.31,8.43,0.35,9.96,0.61c1.59,0.27,0.81,0.92,3.86,0.41c-1.64,1.14-2.73,1.19-9.04,1.52c-17.15,0.9-10.45-0.91-11.89-16.56
		c-0.8-8.71-0.81-9.1-1.93-9.55c-1.41-0.71-0.07-4.18,0.91-5.38c1.73,0.94-0.78,2.86,1.52,3.15c2.73-2.73,3.75-5.35,7.42-8.94
		c0.76-0.74,0.83-1.52,0.2-8.13c-0.42-4.49,5.06-6.08,9.75-4.77c1.12,3.56,4.17,6.1,5.69,9.65c-1.93,0.2-3.55,0.22-5.28,0.51
		c-9.29,1.55-5.59,9.32-2.84,5.69c1.96-2.59,5.34-2.89,9.85-3.45c0.76,1.51,0.21,0.71-1.02,1.32c-4.72,1.94-6.44,2.32-7.21,4.27
		c-0.68,1.13,0.42,2.06,1.42,1.73c2.13-0.95,0.92-0.81,4.57-2.03c0.6,1.19-3.24,5.18,3.86,1.63c1.68-0.84,3.54-1.79,3.86-0.2
		c-7.18,2.87-1.6,6.63,2.34,1.12c1.83,1.73,3.45,3.45,5.59,4.37c1.42,0.2,2.95-0.81,4.37,0.3c3.26,8.14,2.78,8.43,4.17,9.35
		c1.42-2.03,1.07-4.05,0.51-6.1c-1.58-5.73-2.4-4.66-5.49-5.69c-4.97-1.31-2.93-1.18-11.38-7.21c1.73-0.91,2.75-2.51,4.47-3.05
		c1.14-0.36,3.74-6.03,3.96-8.23c0.22-2.13,0.91-4.06,2.54-5.99c2.03,1.63,4.37,0.51,6.6,0.51c2.94,0,0.59,6.91,2.54,11.18
		c-4.34,0.77-9.09,1.23-7.11,5.18c5.6-1.72,3.15-1.75,3.15,0.91c0,1.3,1.86,1.16,3.15,1.02c6.12-0.66,3.81-1.17,1.02,1.22
		c-0.61,0.61-0.91,1.32,0,2.13c6.9,0,1.57,3.09,10.26,0.61c2.18,1.53,4.48,3.94,8.43,1.83c2.64,0.92,6.53,4.72,5.28,7.01
		c-0.62,0.83,0.29,3.11,1.93,7.92c0.1,0.3,0.51,0.41,0.91,0.81c2.57-6.6-3.16-12.96-2.95-16.36c0.21-1.46-1.98-1.42-3.35-1.42
		c-7.28,0-6.1,0.74-9.75-2.74c-2.25-2.15,1.01-1.6-3.66-4.77c-6.31-4.29-4.47-4.11-4.88-8.84c-0.41-4.74-0.53-7.92-3.25-7.92
		c-3.98-0.4-2.8-1.4-2.24-4.37c5.18-27.15,5.26-23.79,5.08-25.2c-0.22-3.89,3.55-18.7,5.18-24.08c1.47-4.83,0.61-2.33,0.61-6.4
		c2.18-22.89-2.97-29.39-2.44-32.61c0.81-3.56,0.25-7.21,0.2-10.77c-0.04-2.95-1.42-5.38-3.86-7.01c-3.84-2.56-2.92-2.83-8.94-1.32
		c-9.31-3.2-11.28,1.17-9.96-3.76c3.22-12.01-1.46-12.56,5.18-27.23c2.01-4.43,3.64-4.16,4.47-9.65c0.63-4.15,1.64-8.65,0.61-12.09
		c-0.95-3.16,1.16-1.78,3.96-5.79c19.48-27.88,14.35-42.35,15.04-48.97c0.52-4.99,0.91-7.81,0.61-11.68
		c1.52-3.03,5.8-14.78,5.18-16.76c-0.69-2.23,0.75-4.65,1.32-9.14c2.25-17.8-3.56-33.88,5.18-42.97c5.22-5.43-5.72-8.99,29.46,13.41
		c7.99,5.09,5.98,7.55,13.41,7.42C415.54,72.05,415.25,63.63,408.08,60.33z M373.03,34.63c-2.19-1.09-3.58-1.32-2.34-6.91
		C372.1,29.48,375.1,31.74,373.03,34.63z M187.83,7c0.57,1.39,1.68,6.5-1.02,6.5c-2.27,0-0.6-1.63-4.17-4.57
		C183.51,5.47,182.91,6.24,187.83,7z M189.05,19.7c-13.56-0.21-7.97-1.15-11.68,2.03c-3.7,3.17-28.29,10.73-31.8,14.93
		c-1.65,1.98-6.54,4.88-9.75,3.45c-7.49-11.99,7.21-8.61,41.86-27.63c3.29-2.19,6.02-0.8,6.2,1.52c1.22,0.51,2.34,0.91,3.45,1.32
		c0.83,3.32,1.19,2.55,3.15,3.86C189.86,19.49,189.46,19.7,189.05,19.7z M192,17.97c0-1.42-1.52-1.42-2.44-2.34
		c0.1-2.95,0.2-5.99,0.3-8.84C192.66,4,194.85,18.54,192,17.97z M194.84,18.68c0-9.68-0.16-7.49-2.64-14.43
		c3.71,0,3.23-1.21,6.4,4.67C196.91,17.39,200.64,19.43,194.84,18.68z M203.37,17.56c-0.2,1.93-0.91,2.13-3.35,1.63
		c-1.69-4.23,1.82-6.65-0.91-13.11c0.71-1.02,1.63-1.32,2.74-0.91C205.08,6.14,203.73,14.19,203.37,17.56z M261.79,125.45
		c0.13-0.26,0.08-0.26,0.2,0H261.79z M264.63,106.46c0.13,0.26,0.16,0.2-0.1,0.2L264.63,106.46z M264.63,131.75
		c-3.24-1.08-1.47-6.42,1.12-2.54C265.45,129.92,265.04,130.84,264.63,131.75z M266.87,132.16c0.13,0.26,0.16,0.2-0.1,0.2
		L266.87,132.16z M266.77,119.56c-0.61-1.93-0.61-1.93,0.51-3.05C267.17,117.43,266.97,118.44,266.77,119.56z M273.68,115.6
		c0.26,0.13,0.26,0.08,0,0.2V115.6z M269,98.94c0.34-0.34,0.09-0.21,0.71,0.1C269.71,99.49,269.24,99.05,269,98.94z M269.41,105.75
		c1.67-1.67,0.71-1.27,1.63-0.81C271.04,106.38,269.41,106.5,269.41,105.75z M271.64,130.33c-0.43-0.43,0.1-0.53,0.1-0.2
		C271.75,130.13,271.64,130.23,271.64,130.33z M269.82,118.75c0.2-1.32,0.2-1.32,2.13-1.02
		C271.57,117.93,270.79,118.43,269.82,118.75z M272.46,127.79c-0.61-0.71,0-1.02,0.1-1.32
		C272.56,126.78,272.56,127.18,272.46,127.79z M273.37,119.36c-0.55,0.55-0.95-0.43-0.81-0.71
		C273.27,117.22,274.74,118,273.37,119.36z M274.49,104.02c-0.13,0-0.13,0.05,0-0.2V104.02z M276.93,98.23
		c0.47,1.41-0.82,2-2.24,1.52C275.4,99.14,276.11,98.63,276.93,98.23z M274.59,107.78c0.71-2.13,2.24-2.74,3.45-3.96
		C277.74,105.75,277.23,106.36,274.59,107.78z M278.15,115.3c-0.61-1.32,0-1.93,0.41-2.84C280.25,114.14,279.97,113.17,278.15,115.3
		z M280.69,108.69c0-0.1-0.1-0.1-0.2-0.1C281.02,108.05,280.69,108.59,280.69,108.69z M284.55,96.09c0-0.59-0.08-0.18,0.2,0.1
		C284.65,96.2,284.55,96.09,284.55,96.09z M290.74,104.83c-0.75-0.37-0.09-1.39,0.51-0.2C291.05,104.63,290.74,104.83,290.74,104.83
		z M289.32,99.35c0.2-1.83,0.2-1.83,2.24-1.93C290.95,98.63,290.95,98.63,289.32,99.35z M303.14,125.45
		c0.81-0.31,3.05-1.25,3.05-0.51C306.19,125.59,305.81,125.45,303.14,125.45z M309.54,98.02c0.69,0,0.74-0.13,0.1,0.51
		C309.21,98.53,309.44,98.02,309.54,98.02z M311.37,100.06c-1.73,2.71-2.54,3.52-2.54,0.3
		C309.54,100.26,310.25,100.16,311.37,100.06z M304.26,94.16c1.22,1.32,1.02,1.83-0.1,2.44C304.15,95.89,304.15,95.38,304.26,94.16z
		 M302.94,93.25c0.14,0,0.14-0.04-0.1,0.2C302.83,93.35,302.83,93.25,302.94,93.25z M302.02,106.66c0.41,0-0.3,0.52-0.3-0.1
		C301.82,106.66,301.92,106.66,302.02,106.66z M298.06,105.14c0,0.26,0.05,0.23-0.2,0.1L298.06,105.14z M305.68,186.11
		c0.24,0.47,0.01,0.66-0.1,1.12C305.58,186.61,305.68,186.41,305.68,186.11z M300.19,173.1c0.91,0.41,1.52,0.71,2.34,1.12
		C302.14,174.61,301.72,176.67,300.19,173.1z M343.3,399.16c-0.4,0.69-0.89,0.67-1.67,0.09
		C342.28,399.25,342.83,399.18,343.3,399.16z M350.07,368.97c1.54,1.54,1.07,1.22-1.02,1.22
		C349.57,369.69,349.77,369.38,350.07,368.97z M346.82,366.33c0.89,0,0.32,0.51,0.2,0.51C346.82,366.84,346.4,366.33,346.82,366.33z
		 M314.92,311.37c0.45,3.57,0.97,5.68,2.54,7.31c1.37,1.43,1.13,3.07,2.34,6.1c0.85,2.12,0.41,4.27,0,6.5
		c-1.75-0.75-1.29-1.3-5.89-4.37C313.5,322.04,313.7,317.77,314.92,311.37z M315.53,352.11c-1.36-5.14-2.78-16.07-2.44-18.19
		c0.88-5.41,0.76-2.83,3.86-0.91c1.01,0.62,2.24,1.02,3.56,1.63C323.06,352.08,323.33,349.14,315.53,352.11z M318.89,358.71
		c-1.41-1.87-3.62-2.48,3.35-4.47C321.63,356.58,319.9,357.19,318.89,358.71z M323.76,367.45c-4.77-8.44-3.92-6.84-2.03-9.04
		c1.22,4.17,1.42,4.37,5.28,6.2C326.2,366.23,324.98,366.74,323.76,367.45z M330.98,239.95c8.4,0.88,3.3-0.18,7.42,3.25
		c0.48-1.91-0.31-2.74,5.38-2.74c4.51,4.51,4.63,3.23,4.17,14.93c-0.28,6.99,1.83,10.16,1.83,20.62c0,2.48-0.23,7.24,0.61,15.54
		c0.68,6.72-3.64,9.81-5.38,26.72c-0.87,8.41-4.48,24.37-6.71,31.6c-5.08,0.63-4.59,0.22-6.81,6.4c-0.84,2.35,1.35,0.28-1.32,5.28
		c-5.73-1.43-7.27-1.05-6.1-6.71c2.26-10.93-5.5-29.44,0.2-20.32c1.55-0.19-0.19-4.03-0.3-4.27c-6.59-13.79-3.63-14.91-6.6-16.05
		c-0.73-12.35,4.24-22.2,3.56-28.95c-0.71-6.98,3.52-13.48,2.34-14.83c-3.73,1.24-3.41,12.57-6.2,2.24c-1.65-6.13,0.45-5,3.76-19.81
		c1.71-7.66,1.61-6.37,2.64-7.72C325.92,241.9,327.18,239.55,330.98,239.95z M350.68,25.18c1.37,1.72,1.5,1.5,0.1,3.15
		C349.19,27.27,349.45,27.97,350.68,25.18z M205.1,19.9c0-5.79-0.57-7.96,2.13-9.55c0.41,0,0.61-0.71,1.22,0
		c-0.51,0-0.91-0.1-1.22,0c0.43,1.5,0.01,1.43,4.47,3.66c0.41,2.34,1.83,4.57,1.02,7.01C209.37,21.22,207.64,20.92,205.1,19.9z
		 M205.1,50.48c-2.73-7.84,0-4.83,0-3.86C205.1,47.74,205.1,48.85,205.1,50.48z M220.44,27.42c-9.77,8.06-11.55,12.72-12.9,13.41
		c-1.89,0.97-2.89,2.46-3.6,4.23c-1.5-1.36-0.02-1.23-0.37-9.2c3.15-3.56,6.5-7.11,7.82-11.89
		C224.02,25.07,221.91,26.2,220.44,27.42z M213.84,15.12c1.83-0.1,8.64,1.02,11.78,1.93c0.67,1.35,0.47,2.01,1.22,6.5
		C211.31,23.56,216.57,23.31,213.84,15.12z M292.47,103.41c-0.41-0.41,0.2-0.54,0.2-0.2C292.67,103.31,292.57,103.31,292.47,103.41z
		 M296.43,106.56c-0.1,0-0.11-0.08-0.11-0.21C296.39,106.42,296.43,106.49,296.43,106.56z M295.82,98.13c0-0.1,0.2-0.22,0.2,0.1
		C295.78,98.23,295.82,98.51,295.82,98.13z M295.62,100.87c0,0,0.1,0.1,0.2,0.2c-0.67,0.34-0.51,0.2-0.71,0
		C295.21,100.97,295.42,100.97,295.62,100.87z M296.16,106.19c-0.95,0.23-1.8,0.01-2.47-0.85c0.2-0.1,0.41-0.3,0.51-0.2
		C294.34,105.2,295.6,105.73,296.16,106.19z M272.97,28.03c-15.83-2.54-26.52-1.28-40.74-3.56c-2.7-0.43-1.54,0.66-1.93-6.4
		c1.73-2.31,102.78,11.52,105.05,12.09c1.12,1.73,0.41,4.37,2.34,5.89c2.03-1.22,1.52-3.25,2.03-5.08c1.19-0.46,1.24-0.2,7.92-0.2
		c1.52,2.03,1.12,4.47,2.13,6.71C343.46,37.88,335.86,38.14,272.97,28.03z M367.85,48.45c-9.74,12.04-3,27.67-6.4,45.92
		c-4.68,25.14-6.74,22.27-6.1,24.08c0.57,1.58-0.8,17.77-0.81,17.88c-0.55,6.84-1.41,7.1-4.98,22.66
		c-1.8,7.86-4.35,10.99-11.07,21.23c-3.36-0.75-3.98,5.52-3.66,8.53c1.9,7.62-5.69,21.71-6.4,22.66c-8.71-8.27-2.62-8.72-5.59-11.68
		c-1.42,0.2-0.71,1.63-1.63,2.24c-4.52-4.52-7.69-16.41-13-24.38c-1.5-2.25-1.52-2.24-1.83-4.67c-0.52-1.04-3.25,0.1-2.54-3.45
		c1.21-6.06,7.42-8.67,8.43-10.16c4.38-6.45,13.82-3.24,12.8-10.67c-1.46-10.64,2.14-22.55,14.83-34.95
		c2.41-2.35-0.15-1.64-0.81-2.74c0-10.38,0.51-11.9,4.27-25.8c7.57-20.19,4.83-7.08,8.13-30.99c0-1.94,3.12-4.51-1.83-13.51
		c-2.67-3.56,4.02,1.6,2.03-10.36c1.21-1.21,1.51,2.13,1.42,2.95c-0.11,2.17,2.64,6.58,5.18,4.67c-4.03-1.79-2.18-0.85-3.56-8.43
		c4.44-7.77,5.16,4,4.88,5.79c-1,6.28,3.34,4.15,4.88,4.37C367.98,42.59,371.24,44.27,367.85,48.45z"/>
	<path d="M255.39,298.77v0.1C255.47,298.68,255.43,298.7,255.39,298.77z"/>
	<path d="M337.17,390.11l0.1-0.1C337.04,390,337.11,389.98,337.17,390.11z"/>
	<path d="M237.1,146.59c1.9-32.3-16.36-44.8-19.81-45.21c0.54,1.34-0.26-0.02,8.33,9.65c6.6,6.6,6.64,22.18,8.43,28.75
		c2.5,1.25,0.27,5.14,2.24,8.94C236.7,147.81,237.1,147.2,237.1,146.59z"/>
	<path d="M234.87,325.49c0.78-1.87-3.04-7.08,1.42-11.18c2.68-2.46,2.31-13.94,5.49-16.66c1.57-1.35,3.51-3.06,4.37-4.77
		c1.28-3.2,4.78-1.52,5.08-4.88c0.36-4.03,3.79-6.27,3.96-8.74c0-1.55-1.92,1.05-2.64,1.93c-2.07-9.94-1.23-9.61-3.56-12.09
		c-0.1,0.3-0.41,0.71-0.3,0.91c1.02,3.96,1.11,8.23,1.73,12.29c0.75,4.93-3.14,7.14-5.59,9.14c-2.62,1.57,0.59,0.23-3.56,4.37
		c-2.14,2.14-4.07,3.46-3.86,6.3c0.17,2.34-0.91,4.57-0.41,6.91C237,310.97,229.45,320.08,234.87,325.49z"/>
	<path d="M682.49,576.94c1.65-4.96-2.36-9.96-5.49-14.93c-3.94-6.28-0.06-14.32-3.25-14.32c-0.91,1.73,0,3.96-1.22,5.89
		c-1.02-0.81-2.13-0.92-3.25-0.61c-5.35,1.47-5.83,1.04-7.52,2.44c-1,0.83-0.18,2.54,1.83,2.54c7.58,0.49,9.29-3.57,9.25-1.83
		c-0.13,5.56,7.52,15.24,9.14,20.52C682.08,576.73,682.18,576.73,682.49,576.94z"/>
	<path d="M238.32,315.03c-6.62,9.93,9.98,21.29,11.48,17.78c-0.25-2.73-9.9-3.48-10.26-16.36c1.71-0.57,4.74-0.03,7.42-1.73
		C240.96,315.62,239.51,312.89,238.32,315.03z"/>
	<path d="M682.39,166.5c0-0.52-0.69-2.57-1.32-1.93c-0.68,0.68-1.74,17.13-1.83,18.08C678.11,195.22,684.39,184.56,682.39,166.5z"/>
	<path d="M599.79,409.71c0,0.51,0.41,0.81,1.12,0.61c0.2-1.22,0.3-2.54,0.51-3.96c10.03,1,12.53,4.66,13.31,2.84
		c-1.83-1.42-4.16-1.76-6.3-2.44c-6.99-2.23-7.31-0.07-7.31-4.57c0-16.03-2.43-15.14,2.24-15.14c-0.58,0,1.13-0.24-3.56-1.52
		c-0.41,0.3-0.91,0.61-1.52,0.91c2.07,0.59,1.52,0.47,1.52,16.46c0,2.13-0.31,1.76-3.35,1.52
		C601.18,406.8,599.4,405.37,599.79,409.71z"/>
	<path d="M646.73,123.73c-5.76,0.96-8.19,0.88-7.21,2.44c4.29,0.31,2.85,0.45,8.13,0.1c-0.2-2.24,1.93-1.52,3.05-2.24
		c0.2-3.28-4.55-3.6-6.6-3.05c-2.44-0.81-4.37,0.41-6.3,1.73c-0.1,0,0,0.3,0.1,0.71c1.12-0.51,2.24-0.91,3.45-1.42
		C642.87,123.22,645.1,122.41,646.73,123.73z"/>
	<path d="M289.83,123.83c4.19,0.73-1.69,1.46-5.38,2.13c-0.2,0-0.41,0.51-0.71,0.91c2.84,0.51,5.59,0.71,8.23,0.2
		c1.57-1.57,0.43-1.34,3.56-2.24c-0.5-1.37-0.53-3.15-5.18-3.15c-3.75,0-5.53-0.52-8.13,2.95
		C286.42,122.84,284.9,122.97,289.83,123.83z"/>
	<path d="M660.34,303.45c-0.24,1.21,0.88,2.84,2.64-1.73c1.68-4.35,3.85-16.73,0.2-18.19C663.19,301.88,661.13,299.48,660.34,303.45
		z"/>
	<path d="M595.42,359.12c2.34-18.74,0.78-27.67,1.93-29.97c0.41-0.82,2.47-0.26,1.73-2.84c0-0.77-1.22-1.52-2.23,1.02
		c-1.33,3.98-0.9,6.51-1.02,15.85C595.64,357.96,594.35,356.09,595.42,359.12z"/>
	<path d="M669.28,433.28c-2.03,2.14-4.06,4.27-7.82,4.67c1.12,1.12,1.73,2.03,2.64,1.73c0.57-0.13,2.64-1.21,2.64-1.42
		c0.86-2,10.41-5.39,6.5-13.21C670.8,425.79,673.87,428.44,669.28,433.28z"/>
	<path d="M669.89,547.37c-8.07,2.52-8.2,2.27-9.14,3.05c-0.56,0.46-0.99,2.01,1.52,2.64C676.62,550.19,672.25,546.63,669.89,547.37z
		"/>
	<path d="M310.45,321.12c0.53-0.36,1.2-0.23,0.81-1.83c-2.14-8.77-0.42-15.41-2.64-18.08C307.1,306.6,308.12,316.25,310.45,321.12z"
		/>
	<path d="M633.93,155.73c2.17,6.81,4.62,7.1,2.95,4.17c-1.92-5-2.23-3.07-0.1-4.77c-2.84-3.25-6.5-4.88-9.45-7.21
		c-0.71-2.54-1.42-4.98-2.13-7.42c-0.91,2.34,0,4.67-0.1,7.21C636.47,156.13,632.85,153.04,633.93,155.73z"/>
	<path d="M280.48,156.85c1.9-1.14,3.4,0.28-8.03-7.72c-0.71-2.64-1.52-4.98-2.24-7.52c-0.91,2.44-0.1,4.67-0.1,7.21
		c2.74,2.03,5.69,4.17,8.53,6.3c0.51,3.25,1.83,6.1,4.37,8.94C282.41,161.01,280.79,159.08,280.48,156.85z"/>
	<path d="M647.13,362.88c-2.85-6.65-30.53-28.5-19.71-17.68c15.87,13.43,18.67,16.86,19.01,17.6
		C646.54,362.77,646.74,362.78,647.13,362.88z"/>
	<path d="M646.43,362.8C646.16,362.86,646.6,363.17,646.43,362.8L646.43,362.8z"/>
	<path d="M283.73,280.08c0.07,1.93-0.1,4.06,1.32,6.4C289.62,260.58,283.25,267.21,283.73,280.08z"/>
	<path d="M243.2,298.16c-3.65,1.37,1.79,15.11,4.57,13.72C243.36,298.98,245.11,298.55,243.2,298.16z"/>
	<path d="M257.22,240.66c-0.61,1.32-0.62,1.33-0.3,1.63c9.08,8.69,10.53,9.88,14.22,8.13c-2.54-1.52-5-2.81-7.31-4.17
		C261.26,244.76,259.86,242.08,257.22,240.66z"/>
	<path d="M672.33,560.38c-0.76-2.66-8.65-0.55-7.92,2.34C665.14,565.65,673.21,563.45,672.33,560.38z"/>
	<path d="M270.93,330.57c-0.27,0.53-0.1,1.12,0.1,1.42c7.91,14.5,16.2,18.13,11.48,13.41C275.02,337.91,272.91,332.55,270.93,330.57
		z"/>
	<path d="M694.27,145.27c-0.63,1.26-0.41-1.42-0.41,11.78c0,0.91,1.78,0.82,1.83-1.52C695.74,153.24,696.28,144.69,694.27,145.27z"
		/>
	<path d="M233.95,176.76c1.72-2.15-2.41-8.53-4.27-10.57C225.42,164.06,231.65,173.69,233.95,176.76z"/>
	<path d="M655.54,159.23c0.1,0.16,0.94,0.09,1.55-1.68c3.48-10.03,2.94-5.38,3.96-11.38c0.66-3.88,0.11-5.95,1.52-9.24
		c1.26-2.52,0.74-7.12-0.71-9.65c-2.23,7.81,0.58,11.63-6.5,31.7c-6.85,1.14-12.4-0.41-14.43-0.41c2.01,3.01,6.88,3.06,10.16,2.24
		C653.75,160.43,654.73,160.98,655.54,159.23z"/>
	<path d="M655.57,240.66c-1.42-1.12-2.44-0.38-3.05-0.2c1.71,1.46,3.14,2.45,6.6,6.3C664.91,252.54,663.38,246.83,655.57,240.66z"/>
	<path d="M193.11,29.75c2.94-0.74-1.48-8.95-4.17-6.71C187.04,24.64,191.73,28.99,193.11,29.75z"/>
	<path d="M669.28,449.84c1.92,4.17,7.5-5.19,4.77-6.1C673.43,443.54,672.94,443.51,669.28,449.84z"/>
	<path d="M677.61,353.13c-1.39-1.39-6.29-0.2-16.66-0.2C663.41,355.16,676.95,353.28,677.61,353.13z"/>
	<path d="M625.09,269.92c0.85,2.63,5.24,14.68,7.31,12.9c-3.86-6.86-2.52-3.45-7.01-15.65
		C624.48,268.29,624.78,269.21,625.09,269.92z"/>
	<path d="M221.97,147.7c0.46-3.64,0.51-8.79-2.54-11.07c-0.21,1.7,0.01,0.79,1.02,9.85C220.44,148.95,221.97,148.44,221.97,147.7z"
		/>
	<path d="M602.94,314.11c-0.41,0.2-0.71,0.3-0.71,0.41C590.87,335.34,605.41,317.2,602.94,314.11z"/>
	<path d="M300.5,152.07c0.91-0.18,0.4-1.98-2.24-2.34C293.17,149.05,292.11,154.87,300.5,152.07z"/>
	<path d="M626.21,327.22c1.43-3.02,1.97-8.63,0.3-7.52C623.78,321.52,624.51,330.79,626.21,327.22z"/>
	<path d="M194.23,37.88c1.88,12.6,3.78,8.98,1.93-1.12C195.85,35.07,193.87,35.48,194.23,37.88z"/>
	<path d="M292.57,146.69c-1.61-0.23-2.36,1.52,0.1,1.52c9.71-0.65,9.85-0.6,9.85-1.42C301.66,145.05,298.59,147.17,292.57,146.69z"
		/>
	<path d="M649.37,151.16c7.45,2.24,8.52-2.54,2.54-2.54C650.38,148.62,649.98,149.02,649.37,151.16z"/>
	<path d="M657.5,146.08c-0.75-2.06-5.86,0.03-10.77-0.3c-1.25,0-0.81,1.72,0.81,1.52C658.21,146.04,657.09,146.48,657.5,146.08z"/>
	<path d="M669.08,569.72c1.36,0.17,2.6-0.4,2.34,0.1c0.04,0,0.08-0.15,0.1-0.19c0.59-0.58,1.25-1.16,1.83-1.74
		c1.47-1.47-2.99-2.61-5.08-0.1C667.67,568.38,668.07,569.72,669.08,569.72z"/>
	<path d="M659.32,467.01c0.98,3.93,1.88-5.58,0.61-10.46C658.13,457.9,658.92,464.85,659.32,467.01z"/>
	<path d="M677.21,197.48c1.62,0,3.87-7.31,2.74-7.31C677.55,190.17,676.65,195.1,677.21,197.48z"/>
	<path d="M664.4,323.26c-2.54-2.64-3.96-6.1-7.52-7.62c2.03,3.56,4.77,6.81,6.5,7.92C663.49,323.66,663.69,323.46,664.4,323.26z"/>
	<path d="M645.41,281.1c2.48,0.83,2.11-8.08,0.61-9.96C645.81,274.59,645.61,277.74,645.41,281.1z"/>
	<path d="M297.35,141.2c2.05-1.27,4.97,0.56,4.27-2.03c-2.03-0.61-3.96-0.1-5.89,1.02C296.03,141.2,296.84,141.51,297.35,141.2z"/>
	<path d="M707.89,109.71c-1.02,2.44-1.42,4.47,0.1,7.01C708.8,114.18,709.11,112.15,707.89,109.71z"/>
	<path d="M664.81,169.55c0.91-1.63,2.13-3.15,2.74-5.89C664.75,165.12,662.27,168.85,664.81,169.55z"/>
	<path d="M650.49,139.47c0.81,0.3,1.52,0.91,1.93,0.71c1.89-0.94,4.37,0.05,4.37-1.52C656.2,136.9,652.07,138.31,650.49,139.47z"/>
	<path d="M631.59,324.88c0,2.47,11.22,19.38,0.71,0.61C632.2,325.19,631.89,325.09,631.59,324.88z"/>
	<path d="M257.02,254.99c10.02,5.01,3.87-1.23-1.42-1.42C256.41,254.48,256.61,254.88,257.02,254.99z"/>
	<path d="M710.02,63.08c-0.61,2.15-0.85,3.51,1.12,4.17C713.26,64.48,710.72,61.69,710.02,63.08z"/>
	<path d="M615.64,219.73c-0.23,0.46-1.55,1.53,1.32,3.76C619.1,225.63,619.06,221.06,615.64,219.73z"/>
	<path d="M714.19,52.1c-0.44-1.32-3.19-0.26-1.42,4.17C714.59,54.75,715,53.63,714.19,52.1z"/>
	<path d="M671.82,572.57c1.29-0.55,3.62-1.2,3.05-2.34c-0.81-0.81-1.61-0.41-3.42-0.41C671.04,571.03,670.49,572.23,671.82,572.57z"
		/>
	<path d="M622.45,409.2c1.93,1.42,2.95,1.63,6.4,1.02C627.74,409.75,622.99,408.12,622.45,409.2z"/>
	<path d="M696.91,137.85c-1.12,0.3-1.12,1.22-1.12,1.93c-0.1,1.22-0.71,2.64,0.2,3.96C697.37,142.92,697.68,138.9,696.91,137.85z"/>
	<path d="M260.98,221.05c-0.95-0.95-1.73,2.84,1.93,4.06C263.77,224.54,263.48,222.48,260.98,221.05z"/>
	<path d="M236.09,193.01c0.1-1.73-0.1-3.15-1.52-4.57C233.71,189.86,233,190.84,236.09,193.01z"/>
	<path d="M648.86,186.61c1.32-1.32,1.32-1.32,1.42-3.96C647.48,184.43,647.34,186.2,648.86,186.61z"/>
	<path d="M286.38,172.49c0.63-2.14-0.73-5.63-2.64-4.67C283.86,168.1,285.64,171.94,286.38,172.49z"/>
	<path d="M699.45,107.98c0.1-0.2-0.1-0.61-0.2-0.91c-1.63,0.81-1.63,0.81-2.64,3.76C697.86,110.83,697.57,111.75,699.45,107.98z"/>
	<path d="M309.23,279.17c3.03-4.44,0.48-5.8-0.71-1.73C308.32,278.15,308.42,278.86,309.23,279.17z"/>
	<path d="M247.57,312.08c0.03-0.02,0.06-0.05,0.09-0.08C247.66,311.9,247.67,311.98,247.57,312.08z"/>
	<path d="M251.02,309.24c-0.61,0.51-2.89,2.39-3.36,2.77c-0.75,3.32-1.12,3.04,0.11,2.42C250.1,311.74,251.24,309.48,251.02,309.24z
		"/>
	<path d="M665.12,276.32c-2.43,2.21-1.89,3.92-1.63,4.98C664.61,279.47,665.42,278.15,665.12,276.32z"/>
	<path d="M639.01,166.5c0,0.54-0.72-0.91,1.93,4.77C641.55,168.12,641.14,167.31,639.01,166.5z"/>
	<path d="M658.72,488.96c1.32-2.03,1.32-2.84,0-4.98C657.9,485.81,658,487.33,658.72,488.96z"/>
	<path d="M640.12,243.91c2.44-0.81,3.76-1.73,4.67-3.25C642.97,240.36,642.77,240.56,640.12,243.91z"/>
	<path d="M284.75,288.11c-0.91,1.52-0.51,3.05-0.1,4.67C286.07,290.14,286.07,289.63,284.75,288.11z"/>
	<path d="M288.41,254.48c-2.34,0.81-2.34,0.81-2.95,2.24C287.29,257.32,287.49,257.22,288.41,254.48z"/>
	<path d="M293.69,187.53c0.1,0.1,0.61-0.2,0.81-0.41c0.81-0.91,0.81-2.03,1.02-3.86C294.21,184.45,291.65,186.17,293.69,187.53z"/>
	<path d="M646.02,192.3c1.73-1.22,2.03-2.54,1.83-4.47C646.12,189.05,645.91,190.37,646.02,192.3z"/>
	<path d="M306.49,239.44c-0.71-0.3-1.02,0.1-1.22,1.02c0.71,0.51,1.52,1.02,2.64,1.93C307.91,240.26,307.81,239.85,306.49,239.44z"
		/>
	<path d="M291.96,189.26c-0.61,1.12-1.42,2.24-0.71,4.06C292.51,191.55,294.04,188.66,291.96,189.26z"/>
	<path d="M659.63,482.35c1.89-1.89,1.02-3.66,0-3.66C658.64,479.02,658.23,480.81,659.63,482.35z"/>
	<path d="M645.91,269.31c0.51-1.22,0.91-2.44,0.3-3.66C644.9,266.67,644.9,266.97,645.91,269.31z"/>
	<path d="M666.84,261.28c-0.71,1.73-0.2,3.25,0,5.18C668.06,262.5,668.06,262.5,666.84,261.28z"/>
	<path d="M650.69,357.19c0-2.57,0.38-2.66-0.3-6.1C649.98,353.23,649.88,355.26,650.69,357.19z"/>
	<path d="M197.28,51.19c-0.71,1.63-0.71,1.83,1.42,2.64C199.01,52.21,199.01,52.21,197.28,51.19z"/>
	<path d="M659.83,475.55c1.32-2.13,1.32-2.54,0-4.37C659.22,472.7,659.22,474.02,659.83,475.55z"/>
	<path d="M233.95,184.89c0.38,2.83,3.33,0.89,0.91-1.22C234.06,183.67,233.86,184.17,233.95,184.89z"/>
	<path d="M653.84,355.26c1.22-0.61,2.03-1.63,2.24-3.25C653.75,354.33,652.55,354.49,653.84,355.26z"/>
	<path d="M658.41,513.95c1.02-1.83,1.02-1.83-0.1-3.05C658.19,511.19,656.8,513.34,658.41,513.95z"/>
	<path d="M665.62,272.76c1.02-0.71,1.83-1.63,1.42-3.25C665.62,270.33,665.42,271.44,665.62,272.76z"/>
	<path d="M698.13,129.72c-0.1,0.71,0,1.32,0,2.34C701.14,130.56,698.51,127.07,698.13,129.72z"/>
	<path d="M266.97,346.62c0.81,1.32,1.73,2.13,3.25,2.84C268.7,347.23,268.7,347.23,266.97,346.62z"/>
	<path d="M712.36,61.04c0.38-2.28,0.16-1.65-0.1-2.95C710.73,59.22,710.83,60.03,712.36,61.04z"/>
	<path d="M646.02,260.68c-1.12,1.32-1.02,1.52,0.41,3.05C646.42,260.39,646.54,261.2,646.02,260.68z"/>
	<path d="M310.66,246.45c0-2.44,0-2.44-1.73-3.05C309.03,244.93,309.54,245.74,310.66,246.45z"/>
	<path d="M648.45,224c-0.63-1.89-2.18,0-1.12,2.13C648.45,225.73,648.56,224.81,648.45,224z"/>
	<path d="M293.28,224.81c0-0.3-0.51-0.51-0.81-0.81c-0.81,1.12-0.81,2.03-0.2,3.05C293.49,226.74,293.59,225.83,293.28,224.81z"/>
	<path d="M319.09,220.34c-0.91,1.02-0.91,1.73-0.2,2.64C320.21,222.07,320.21,222.07,319.09,220.34z"/>
	<path d="M698.64,134.39c-0.1-0.2-0.2-0.51-0.3-0.51c-0.3,0-0.71,0-0.81,0.2C695.79,136.32,698.64,137.54,698.64,134.39z"/>
	<path d="M200.63,102.29c-0.41,0.81-0.61,1.63,0.1,2.44C202.05,103.82,201.95,103.1,200.63,102.29z"/>
	<path d="M284.45,301.01c0-1.63,0-2.54,0-3.56C283.23,298.47,283.23,298.47,284.45,301.01z"/>
	<path d="M234.16,178.99c-0.3,1.63-0.3,1.63,0.91,2.24C235.27,180.21,235.27,179.4,234.16,178.99z"/>
	<path d="M673.55,220.24c-0.1,0.61,0.1,1.22,0.2,1.93C676.6,220.87,673.55,218.66,673.55,220.24z"/>
	<path d="M675.99,215.16c-0.61,0.71-0.71,1.32,0,2.03C677.21,215.97,677.21,215.97,675.99,215.16z"/>
	<path d="M321.02,218.62c0.41-0.81,0.71-1.12,0.81-1.52C322.03,216.32,320.24,215.09,321.02,218.62z"/>
	<path d="M198.5,98.63c1.32-0.71,1.32-1.02,0-2.03C198.5,97.31,198.5,97.92,198.5,98.63z"/>
	<path d="M632.2,294.51c0.34-2.02,0.29-1.13-0.41-1.83C631.07,294.13,631.33,293.64,632.2,294.51z"/>
	<path d="M617.06,305.07c-0.51,1.03-0.7,0.42,0.71,1.83C618.54,306.13,618.17,306.18,617.06,305.07z"/>
	<path d="M244.62,179.2c-0.22,1.53-0.78,1.4,0.51,1.83C245.53,179.81,245.69,180.26,244.62,179.2z"/>
	<path d="M701.79,98.23c-0.91,0.91,0.1,2.56,0.61,0.51C702.61,98.52,702.15,97.87,701.79,98.23z"/>
	<path d="M627.02,312.79c-1.32,0.81-0.91,1.52,0,2.74C627.02,314.22,627.02,313.5,627.02,312.79z"/>
	<path d="M196.77,47.33c-1.02,0.68-0.09,1.15,0.91,2.44C197.61,48.98,197.86,46.78,196.77,47.33z"/>
	<path d="M614.32,303.34c0.41-0.81-0.1-1.22-1.02-1.63C613,303.26,613.81,303.75,614.32,303.34z"/>
	<path d="M632.4,288.51c-0.71,0-0.3-0.3-0.3,2.24C632.5,290.75,632.4,291.09,632.4,288.51z"/>
	<path d="M339.81,390.92c0.84-1.4-0.58-1.58-1.83-1.83C338.19,390,338.9,390.51,339.81,390.92z"/>
	<path d="M308.32,284.85c0.63-0.79,1.17-0.76,0.2-1.73C307.94,283.42,308.1,283.32,308.32,284.85z"/>
	<path d="M603.25,387.16c0.84,0.56,1.78,0.44,2.71,0.49C605.17,386.91,604.21,387.25,603.25,387.16z"/>
	<path d="M605.96,387.65c0.04,0.04,0.09,0.07,0.13,0.12c0.28,0.05,0.17,0,0.1-0.1l-0.02,0.02
		C606.2,387.65,606.15,387.67,605.96,387.65z"/>
	<path d="M309.23,287.9c-0.81,0.91-0.81,0.91,0,1.73C309.23,289.02,309.23,288.51,309.23,287.9z"/>
	<path d="M213.84,124.34c-0.29,0.86-0.81,0.22,0.1,2.03C214.73,124,214.81,125.31,213.84,124.34z"/>
	<path d="M309.23,295.52c0-2.31,0.14-1.93-0.41-1.93C308.83,295.87,308.71,295.52,309.23,295.52z"/>
	<path d="M636.67,334.23c0.09,0.86,0.65,1.45,1.32,1.95C638.02,335.17,637.62,334.51,636.67,334.23z"/>
	<path d="M637.99,336.18c-0.01,0.06,0.01,0.11,0,0.18c1.47,0.98,0.88,0.68,0.1-0.1l-0.03,0.03
		C638.09,336.26,638.08,336.24,637.99,336.18z"/>
	<path d="M246.04,185.29c0.2-0.2,0.2-0.51,0.41-0.91c-0.2-0.2-0.41-0.3-0.71-0.51C244.59,185.02,245.89,185.45,246.04,185.29z"/>
	<path d="M700.47,102.49c0-0.85-1.43-0.56-1.22,0.51c0.1,0.1,0.3,0.2,0.61,0.51C700.06,103.1,700.37,102.8,700.47,102.49z"/>
	<path d="M638.09,184.38c-0.69-0.69-0.3-0.92-1.12-0.51C637.35,185,637.77,184.49,638.09,184.38z"/>
	<path d="M288.41,180.32c-0.56,0.56,0.1,0.71,0.2,0.71C289.02,180.62,288.69,180.88,288.41,180.32z"/>
	<path d="M660.14,436.84c-0.27-0.13-0.37-0.65-1.12,0.1C659.35,437.59,659.49,437.49,660.14,436.84z"/>
	<path d="M287.49,176.56c-0.49-0.49-0.64-0.66-0.81-0.3C287.15,177.19,287.07,176.98,287.49,176.56z"/>
	<path d="M641.55,174.93c-0.3,0,0.11,1.05,0.81,0.81C641.95,175.33,642.44,174.93,641.55,174.93z"/>
	<path d="M215.67,127.79c0-0.38-0.61,0-0.61,0.1C215.06,129.56,215.67,129.45,215.67,127.79z"/>
	<path d="M671.31,161.11c1.14,0,0.7-0.43,0.51-1.02c-0.3,0.2-0.51,0.3-0.81,0.51C671.11,160.81,671.21,161.11,671.31,161.11z"/>
	<path d="M282.72,185.7c0.2-0.2,0.31-0.1-0.1-0.91C281.78,185.34,281.83,184.81,282.72,185.7z"/>
	<path d="M606.28,387.78c0.51,0.67,1.27,0.5,1.94,0.6C607.76,387.55,606.95,387.81,606.28,387.78z"/>
	<path d="M608.12,388.48c0.57,0.66,1.31,0.54,2.06,0.6C609.67,388.22,608.89,388.48,608.12,388.48z"/>
	<path d="M610.21,389.13c-0.16,0.16,0.38-0.05-0.03-0.05C610.19,389.1,610.2,389.11,610.21,389.13z"/>
	<path d="M610.34,389.19c0.52,0.67,1.37,0.41,2.05,0.51C611.83,389.14,611.09,389.18,610.34,389.19z"/>
	<path d="M288.1,112.04c-0.17,0,0.09-0.1-0.91-0.1C287.67,112.18,287.32,112.44,288.1,112.04z"/>
	<path d="M218.61,168.23c0,0.24,0.17,0.64,0.51,0.3C218.74,167.76,218.95,168.06,218.61,168.23z"/>
	<path d="M292.57,269.72c0-0.47-0.72-0.83-0.2,0.2C292.47,269.92,292.47,269.82,292.57,269.72z"/>
	<path d="M323.36,212.11c0,0.24,0.23,0.3,0.41,0.3C323.76,211.75,323.55,212.11,323.36,212.11z"/>
	<path d="M284.75,306.09c0.22-0.44,0.57-0.35,0-0.91C284.46,305.75,284.49,305.83,284.75,306.09z"/>
	<path d="M612.49,389.9c-0.13-0.25-0.1-0.24-0.1-0.1L612.49,389.9z"/>
	<path d="M654.75,403.72l-0.1,0.1C654.91,403.69,654.9,403.72,654.75,403.72z"/>
	<path d="M678.73,210.79l-0.1,0.2C678.89,211,678.86,211.05,678.73,210.79z"/>
	<path d="M660.34,184.18c0.15-0.08,0.38-0.09,0.6-0.09C660.7,183.86,660.51,183.82,660.34,184.18z"/>
	<path d="M661.15,184.07c-0.07,0-0.14,0-0.21,0.01C661.08,184.19,661.02,184.21,661.15,184.07z"/>
	<path d="M651.4,181.43l-0.1-0.1C651.17,181.46,651.14,181.43,651.4,181.43z"/>
	<path d="M643.27,179.4c0,0.1,0.1,0.3,0,0.51C643.42,179.76,643.65,179.77,643.27,179.4z"/>
	<path d="M642.26,175.84c0.1,0,0.2,0.1,0.3,0.1C642.46,175.84,642.36,175.84,642.26,175.84z"/>
	<path d="M220.95,171.48c0.1,0.1,0.2,0.1,0.3,0.1C221.15,171.58,221.05,171.48,220.95,171.48z"/>
	<path d="M637.89,162.13c-0.2-0.1-0.3-0.1-0.51-0.2C637.48,162.03,637.38,162.54,637.89,162.13z"/>
	<path d="M283.84,347.64c0,0.1,0.1,0.1,0.2,0.1C283.76,347.46,283.84,347.5,283.84,347.64z"/>
	<path d="M283.73,347.44c0.03,0.03,0.06,0.06,0.09,0.09C283.82,347.48,283.8,347.44,283.73,347.44z"/>
	<path d="M638.9,337.07c0-0.13,0.03-0.13-0.1,0H638.9z"/>
	<path d="M630.98,315.03c-0.2-0.1-0.3-0.1-0.51-0.2C630.57,314.93,630.47,315.43,630.98,315.03z"/>
	<path d="M286.27,311.37c0,0-0.1,0.1-0.2,0.2C286.25,311.57,286.64,312.1,286.27,311.37z"/>
	<path d="M251.02,309.14c0.3,0.3,0.96,0.14,0.81-0.61C251.33,308.42,251.12,308.63,251.02,309.14z"/>
	<path d="M252.55,307.81l-0.1-0.1C252.44,307.89,252.39,307.77,252.55,307.81z"/>
	<path d="M252.43,307.81c-0.44-0.03-0.69,0.24-0.6,0.71C252.21,308.53,252.4,308.25,252.43,307.81z"/>
	<path d="M253.26,307.1l-0.1-0.1C253.04,307.19,252.99,307.1,253.26,307.1z"/>
	<path d="M252.55,307.81c0.17-0.25,0.35-0.46,0.52-0.69C252.68,307.17,252.46,307.38,252.55,307.81z"/>
	<path d="M253.26,307.21c0.17-0.26,0.35-0.45,0.52-0.62C253.42,306.58,253.26,306.77,253.26,307.21z"/>
	<path d="M253.97,306.6l-0.1-0.1C253.73,306.63,253.74,306.57,253.97,306.6z"/>
	<path d="M255.29,298.77v-0.1C255.16,298.92,255.14,298.92,255.29,298.77z"/>
	<path d="M576.22,102.39c-1.12-1.12-2.24-1.93-4.17-2.84c2.76,6.89,11.83,6.8,15.54,29.97c0.1,0.62,1.33,8.91,1.73,9.04
		c2.03,1.11,0.17,3.76,1.83,8.74c2.21-2.01,0.06-17.11-0.3-19.2C589.21,118.6,588.71,114.89,576.22,102.39z"/>
	<path d="M589.43,173.41c-1.26-5.58-6.1-10.96-6.1-7.52C583.33,165.99,590.44,180.46,589.43,173.41z"/>
	<path d="M545.34,21.52c-5.55-0.4,3.76,10.31,3.76,5.79C548.86,24.93,547.81,22.76,545.34,21.52z"/>
	<path d="M575.41,146.48c1.6,3.21,2.84-5.62,0-9.96C573.67,133.87,574.28,136.62,575.41,146.48z"/>
	<path d="M549.4,35.85c-0.21,0.41-0.2,0.72,1.32,8.03c0,0.2,0.51,0.41,0.91,0.71C552.21,41.15,551.7,31.25,549.4,35.85z"/>
	<path d="M545.03,91.62c-1.02-1.12-0.61-2.95-2.03-4.27C540.15,89.5,542.72,94.52,545.03,91.62z"/>
	<path d="M589.73,187.73c-1.7,0.57-0.44,2.93,1.22,4.47C591.52,190.03,590.33,187.14,589.73,187.73z"/>
	<path d="M552.04,50.07c0,0.51-0.3,1.12-0.1,1.52c0.3,0.71,0.91,1.42,2.13,0.91C553.97,51.29,553.67,50.38,552.04,50.07z"/>
	<path d="M590.24,185.29c0.7,0,0.81-2.54-0.71-2.54C588.13,182.75,589,185.71,590.24,185.29z"/>
	<path d="M555.5,101.07c0,1.35-0.5,3.05,0.71,2.64C556.82,101.88,556.82,101.88,555.5,101.07z"/>
	<path d="M553.87,95.79c-0.44-0.09-0.95,0.35,0.1,1.93c0.3-0.3,0.51-0.61,0.91-1.02C554.48,96.3,554.18,95.79,553.87,95.79z"/>
	<path d="M589.94,180.32c0.41-0.91,0.3-1.73-0.61-2.34C588.82,179.4,588.82,179.4,589.94,180.32z"/>
	<path d="M552.75,48.04c0-0.91-0.12-2.28-1.02-1.83c-0.84,0.42-0.15,1.39,0.41,2.13C552.35,48.24,552.55,48.14,552.75,48.04z"/>
	<path d="M568.6,123.42c-0.51,0.61-0.3,1.02,0.3,1.42C570.38,124.21,569.18,122.85,568.6,123.42z"/>
	<path d="M599.79,179.81c0.54,0,0.96-0.74,0.2-1.12c-0.2-0.1-0.41,0.2-0.81,0.41C599.49,179.4,599.59,179.81,599.79,179.81z"/>
	<path d="M600.91,184.28c0.87-0.87,0.45-0.72,0-1.63C600.27,183.71,599.94,183.3,600.91,184.28z"/>
	<path d="M573.68,167.41c0.16,0.31,0.6,0.29,0.2-0.51C573.78,167.11,573.68,167.21,573.68,167.41z"/>
	<path d="M570.02,127.08c0,0.36,1.05,0.98,0.3-0.51C570.23,126.78,570.02,126.98,570.02,127.08z"/>
	<path d="M626.71,449.94c0,2.72-0.39,4.35,1.78,4.96c0.69-3.11,1.16-5.75-2.39-7.09c0-6.78,0.6-6.64-0.3-7.82
		c-1.63,1.42-1.94,2.34-1.83,5.28C624.07,447.81,624.17,448.01,626.71,449.94z"/>
	<path d="M635.15,436.23c0-1.99-4.64-9.13-5.08-9.35C626.64,424.31,630.57,437.53,635.15,436.23z"/>
	<path d="M634.13,500.03c2.08,2.08,0.07-9.43-0.61-12.29C633.22,490.78,633.52,497.59,634.13,500.03z"/>
	<path d="M634.43,480.12c0.85-1.92,1.28-4.48,0.3-7.42C633.42,476.15,633.52,477.88,634.43,480.12z"/>
	<path d="M628.44,455.02c0.04,0,0.01,0.07,0,0.1c-0.85,1.67-1.27,3.42,0.1,5.19c1.49-0.96,1.71-4.22-0.06-5.26
		c0.01-0.03,0.03-0.07,0.06-0.12c-0.02,0-0.03-0.01-0.05-0.02c-0.01,0.03-0.01,0.06-0.02,0.09L628.44,455.02z"/>
	<path d="M634.94,466.81c1.32-0.2,1.12-1.42,1.52-2.44C635.08,462.98,633.96,465.4,634.94,466.81z"/>
	<path d="M616.25,480.42c-0.71,1.12-0.3,2.13-0.1,3.25C617.47,482.05,617.47,481.74,616.25,480.42z"/>
	<path d="M616.86,487.33c-0.61,0.91-0.51,1.63,0.51,2.64C617.98,488.75,617.87,487.94,616.86,487.33z"/>
	<path d="M617.77,493.63c-0.1-0.1-0.3,0.2-0.41,0.41C616.89,496.44,619.77,494.29,617.77,493.63z"/>
	<path d="M635.25,469.86c0-0.64-1.49-0.87-0.91,1.42C634.45,471.28,635.48,471.26,635.25,469.86z"/>
	<path d="M639.11,437.55c0.1,0,0.1-0.1,0.2-0.2C638.86,436.89,638.89,437.55,639.11,437.55z"/>
	<path d="M660.95,62.06c0.04,0,0.08-0.07,0.1-0.1C661.03,61.92,661.03,61.86,660.95,62.06z"/>
	<path d="M670.3,51.19c-11.6,10.9-10.03,9.28-9.28,10.72c0.26-0.59-0.46,0.21,10.19-10.11C673.62,48.79,670.64,50.76,670.3,51.19z"
		/>
	<path d="M664.91,87.87c2.97-1.7,0.11-4.99-0.71-3.35c-0.41,1.12-1.42,1.63-2.54,2.34C662.78,88.37,663.81,88.5,664.91,87.87z"/>
	<path d="M678.93,43.98c8.76-5.84,7.42-4.38,7.42-5.89C678.04,42.24,678.43,44.48,678.93,43.98z"/>
	<path d="M663.08,38.9c-1-0.7-3.09-2.12-3.96-0.81C658.2,39.24,660.65,41.9,663.08,38.9z"/>
	<path d="M672.13,49.97c0.51,0.1,0.71-0.2,0.61-0.71C672.43,49.36,672.13,49.56,672.13,49.97z"/>
	<path d="M673.55,48.65c0.13-0.27,0.16-0.23-0.1-0.1L673.55,48.65z"/>
	<path d="M672.74,49.26l0.1,0.1C673.03,49.17,672.96,49.29,672.74,49.26z"/>
	<path d="M673.45,48.55c-0.08,0.25-0.31,0.51-0.5,0.7C673.29,49.21,673.45,48.89,673.45,48.55z"/>
	<path d="M641.5,555.29C641.45,555.28,641.41,555.29,641.5,555.29L641.5,555.29z"/>
	<path d="M641.75,555.3c-0.12,0-0.2,0-0.24,0c0.21,0.04,0.55,0.32-8.49,1.93c-1.41,0-3.03,0.87-2.64,2.44
		c0.85,3.41,10.35,1.17,13.11-1.02C645.03,557.42,644.23,554.62,641.75,555.3z"/>
	<path d="M641.14,550.52c-6.89,1.55-9.81,0.95-13.31,1.42c-1.64,0.22-2.15,3.02,0.1,3.25C644.82,556.9,646.31,549.36,641.14,550.52z
		"/>
	<path d="M643.88,564.34c0.59-0.81,0.17-2.64-1.52-2.64c-0.1,0-5.58,1.09-5.69,1.12c-1.26,0-2.24,0.79-2.24,2.03
		C634.85,568.15,641.72,567.29,643.88,564.34z"/>
	<path d="M638.7,568.81c-0.85,0.85-0.91,2.1,1.63,2.95C649.53,571.14,643.29,564.22,638.7,568.81z"/>
	<path d="M641.75,574.09c-4.13,1.03-0.64,3.81,1.32,2.13C643.91,575.1,643.01,574.51,641.75,574.09z"/>
	<path d="M326.3,165.69c-1.3,0-2.4,20.69-2.13,23.77C328.29,187.81,328.63,167.24,326.3,165.69z"/>
	<path d="M338.7,146.38c0,13.48-0.28,11.66,1.12,12.5C340.9,155.99,341.73,145.37,338.7,146.38z"/>
	<path d="M324.98,191.39c-2.32-0.58-4.16,5.8-2.13,7.31C323.56,197.55,326.19,191.39,324.98,191.39z"/>
	<path d="M309.03,168.12c-1.54,2.7,1.94,4.34,3.35-3.05C310.66,165.79,309.74,166.6,309.03,168.12z"/>
	<path d="M352.31,111.94c-0.27,3.99-0.43,5.62,1.02,5.08C354.5,109.96,352.31,111.27,352.31,111.94z"/>
	<path d="M355.56,63.69c-0.87,0-1.63,2.11-0.71,3.76C356.9,70.53,357.86,63.69,355.56,63.69z"/>
	<path d="M358.2,52.61c-1.3,0.65-1.18,3.03-0.51,4.27C359.83,56.88,360.33,52.61,358.2,52.61z"/>
	<path d="M340.93,139.37c-1.89,10.08,2.65,3.36,0.71-0.71C341.34,138.97,341.03,139.07,340.93,139.37z"/>
	<path d="M342.76,111.84c2.92-2.34,1.23-7.23-1.32,0C341.95,111.84,342.56,112.04,342.76,111.84z"/>
	<path d="M343.17,133.28c1.32-1.63,1.32-1.63,1.12-3.15C342.96,130.53,342.96,130.53,343.17,133.28z"/>
	<path d="M356.48,59.42c-0.45,2.26-0.44,1.62,0.3,2.74c0.59-0.29,0.71,0.19,0.71-2.13C357.49,59.62,357.29,59.22,356.48,59.42z"/>
	<path d="M343.06,134.9c-1.31,0.66-1.3,1.75-0.61,2.44C344.27,135.86,343.59,134.9,343.06,134.9z"/>
	<path d="M345.2,103c-0.51-0.1-0.91,0.1-1.02,0.61c0,0.3,0.3,0.51,0.41,0.81c0.3-0.2,0.71-0.51,1.02-0.71
		C345.4,103.41,345.4,103.1,345.2,103z"/>
	<path d="M346.93,100.77c0.3-0.61,1.02-1.02,0.41-1.83C346.42,99.75,346.42,99.75,346.93,100.77z"/>
	<path d="M315.94,161.93c1.11,0,0.46,0.73,1.22-0.41C316.11,161.17,316.17,161.47,315.94,161.93z"/>
	<path d="M339.2,288.11c1.08-5.57-1.26-10.89-2.44-11.48c-3.2-1.07-1.13,4.33,0.3,10.06C337.51,288.43,338.2,289.61,339.2,288.11z"
		/>
	<path d="M323.15,249.7c-0.87,1.54,0.21,6.04,2.13,5.69c-0.3-1.93-0.3-3.96-1.52-5.79C323.76,249.5,323.46,249.7,323.15,249.7z"/>
	<path d="M346.62,263.82c-0.81,1.83-0.51,3.45-0.81,5.49C347.44,267.56,348.12,265.7,346.62,263.82z"/>
	<path d="M327.72,259.86c-0.2-1.42-0.2-2.24-0.51-3.15C326.35,254.99,323.79,257.9,327.72,259.86z"/>
	<path d="M330.06,263.11c-0.22-2.92-2.03-2.53-2.03-1.73C328.03,262.5,328.84,262.91,330.06,263.11z"/>
	<path d="M335.55,313.4c-0.41,1.32-0.41,1.32,0,2.84C336.97,315.13,336.97,314.22,335.55,313.4z"/>
	<path d="M336.97,305.78c-0.71,2.13-0.71,2.13,0.91,2.95C338.19,307.51,338.29,306.49,336.97,305.78z"/>
	<path d="M337.27,296.74c-0.3,1.63-0.3,2.84,0.3,4.98C338.19,298.47,338.19,298.47,337.27,296.74z"/>
	<path d="M345.4,270.53c-0.71,0.91-0.71,1.73,0,2.95C345.4,272.16,345.4,271.44,345.4,270.53z"/>
	<path d="M323.66,266.97c0.42-2.08,0.72-0.98,0.2-2.54C323.25,264.43,323.47,264.53,323.66,266.97z"/>
	<path d="M322.24,259.25c-0.2,0.3-0.51,0.41-0.61,0.71c-0.1,0.1,0.2,0.51,0.3,0.51C323.37,259.75,322.84,260.45,322.24,259.25z"/>
	<path d="M344.79,275.71c-0.1,0-0.1-0.1-0.2-0.1C344.47,275.73,344.45,276.05,344.79,275.71z"/>
	<path d="M317.06,50.68c-19.61,18.06-11.01,13.53,1.52-0.51C318.07,49.97,317.46,50.17,317.06,50.68z"/>
	<path d="M308.02,39.1c-0.81-0.41-1.63-0.81-2.84-1.42c-0.75,1.89-1.69,3.08-0.61,3.96C305.91,42.74,308.53,41.65,308.02,39.1z"/>
	<path d="M323.76,44.89c0.82,0-1.64,1.28,8.23-5.18C328.71,39.71,325.22,42.64,323.76,44.89z"/>
	<path d="M308.12,88.07c3.36,0,1.79-5.45-1.22-3.05c0,0.81,1.12,1.32,0.71,2.34C307.51,87.46,307.91,88.07,308.12,88.07z"/>
	<path d="M318.68,50.28c-0.11-0.32-0.1-0.42-0.1-0.1L318.68,50.28z"/>
<path fill="#e6e6e6" d="m206.8 163.6c0-5.1 4.1-9.2 9.3-9.2s9.2 4.2 9.2 9.2-4.1 9.2-9.3 9.2-9.2-4.1-9.2-9.2zm17.3-.1c0-4.5-3.5-8.2-8.2-8.2s-8.2 3.7-8.2 8.3c0 4.5 3.5 8.2 8.2 8.2s8.2-3.7 8.2-8.3zm-13 0c0-2.8 2.1-5.1 5.1-5.1 1.9 0 2.9.6 3.9 1.5l-1.4 1.7c-.8-.7-1.5-1.1-2.5-1.1-1.7 0-2.8 1.4-2.8 3.1s1.1 3 2.8 3c1.1 0 1.7-.5 2.5-1.1l1.4 1.4c-1.1 1.1-2.1 1.7-4 1.7-2.9 0-5-2.3-5-5.1z"/><path fill="#e6e6e6" d="m226.6 154.7h3.4l4.2 13.2 4.4-13.3h2.6l4.4 13.3 4.2-13.2h3.3l-6.2 18h-2.7l-4.4-12.8-4.4 12.8h-2.7z"/><path fill="#e6e6e6" d="m252.8 165.8c0-3.9 3.1-7 7.2-7 4.2 0 7.2 3.2 7.2 7s-3.1 7-7.3 7c-4 0-7.1-3.1-7.1-7zm11.3 0c0-2.3-1.7-4.3-4.2-4.3s-4.1 2-4.1 4.3 1.7 4.3 4.1 4.3c2.7.1 4.2-1.9 4.2-4.3z"/><path fill="#e6e6e6" d="m269.5 159.1h3.1v3c.8-2 2.4-3.4 4.8-3.3v3.2h-.2c-2.7 0-4.6 1.7-4.6 5.4v5.1h-3.1z"/><path fill="#e6e6e6" d="m279.1 153.9h3.1v11.1l5.6-6h3.8l-5.4 5.5 5.5 8h-3.5l-4.1-5.8-1.9 2v3.9h-3.1z"/><path fill="#e6e6e6" d="m291.7 165.8c0-3.9 3.1-7 7.2-7 4.2 0 7.2 3.2 7.2 7s-3.1 7-7.3 7c-4 0-7.1-3.1-7.1-7zm11.3 0c0-2.3-1.7-4.3-4.2-4.3s-4.1 2-4.1 4.3 1.7 4.3 4.1 4.3c2.6.1 4.2-1.9 4.2-4.3z"/><path fill="#e6e6e6" d="m308.2 167.6v-8.6h3.1v7.6c0 2.1 1.1 3.3 2.9 3.3s3-1.3 3-3.3v-7.6h3.1v13.4h-3.1v-2.1c-.8 1.3-2.1 2.3-4.2 2.3-3.1.2-4.8-1.8-4.8-5z"/><path fill="#e6e6e6" d="m323.9 168.8v-7.1h-1.7v-2.6h1.7v-3.7h3.1v3.7h3.6v2.6h-3.6v6.6c0 1.2.6 1.7 1.7 1.7.7 0 1.3-.2 1.9-.5v2.5c-.8.5-1.7.7-2.8.7-2.3 0-3.9-.9-3.9-3.9z"/><path fill="#e6e6e6" d="m333.2 154.7h3.2v15h9.4v2.9h-12.5v-17.9z"/><path fill="#e6e6e6" d="m356 172.5v-1.7c-.9 1.1-2.3 2-4.4 2-2.6 0-4.8-1.4-4.8-4.2 0-3 2.3-4.4 5.4-4.4 1.7 0 2.6.2 3.7.5v-.2c0-1.9-1.2-2.9-3.3-2.9-1.5 0-2.6.3-3.9.8l-.8-2.5c1.5-.7 2.9-1.1 5.1-1.1 4 0 5.9 2.1 5.9 5.7v8zm.1-5.6c-.8-.3-1.9-.5-3.1-.5-2 0-3.1.8-3.1 2.1s1.1 2 2.6 2c2 0 3.5-1.1 3.5-2.9z"/><path fill="#e6e6e6" d="m364.9 170.5v2.1h-3.1v-18.7h3.1v7.4c1-1.4 2.4-2.5 4.5-2.5 3.2 0 6.3 2.5 6.3 7s-3.1 7-6.3 7c-2.1 0-3.5-1.1-4.5-2.3zm7.7-4.7c0-2.6-1.7-4.3-3.9-4.3s-3.9 1.7-3.9 4.4c0 2.6 1.8 4.3 3.9 4.3s3.9-1.7 3.9-4.4z"/><path fill="#e6e6e6" d="m376.9 170.8 1.4-2.1c1.4 1.1 3 1.7 4.4 1.7s2.1-.5 2.1-1.5-1.3-1.4-2.8-1.8c-.1 0-.2-.1-.2-.1-2-.6-4.2-1.4-4.2-4s2.1-4.1 4.8-4.1c1.7 0 3.5.6 5 1.5l-1.2 2.2c-1.3-.8-2.6-1.3-3.8-1.3s-1.9.5-1.9 1.4 1.3 1.4 2.8 1.8c.1 0 .2.1.2.1 2 .6 4.2 1.5 4.2 4 0 2.9-2.2 4.2-5 4.2-1.9 0-4-.7-5.8-2z"/><path fill="#e6e6e6" d="m505.6 163.6c0-5.1 4.1-9.2 9.3-9.2s9.2 4.2 9.2 9.2-4.1 9.2-9.3 9.2-9.2-4.1-9.2-9.2zm17.4-.1c0-4.5-3.5-8.2-8.2-8.2s-8.2 3.7-8.2 8.3c0 4.5 3.5 8.2 8.2 8.2s8.2-3.7 8.2-8.3zm-13.1 0c0-2.8 2.1-5.1 5.1-5.1 1.9 0 2.9.6 3.9 1.5l-1.4 1.7c-.8-.7-1.5-1.1-2.5-1.1-1.7 0-2.8 1.4-2.8 3.1s1.1 3 2.8 3c1.1 0 1.7-.5 2.5-1.1l1.4 1.4c-1.1 1.1-2.1 1.7-4 1.7-2.9 0-5-2.3-5-5.1z"/><path fill="#e6e6e6" d="m525.4 154.7h3.4l4.2 13.2 4.4-13.3h2.6l4.4 13.3 4.2-13.2h3.3l-6.2 18h-2.7l-4.4-12.8-4.4 12.8h-2.7z"/><path fill="#e6e6e6" d="m551.7 165.8c0-3.9 3.1-7 7.2-7 4.2 0 7.2 3.2 7.2 7s-3.1 7-7.3 7c-4.1 0-7.1-3.1-7.1-7zm11.2 0c0-2.3-1.7-4.3-4.2-4.3s-4.1 2-4.1 4.3 1.7 4.3 4.1 4.3c2.7.1 4.2-1.9 4.2-4.3z"/><path fill="#e6e6e6" d="m568.3 159.1h3.1v3c.8-2 2.4-3.4 4.8-3.3v3.2h-.2c-2.7 0-4.6 1.7-4.6 5.4v5.1h-3.1z"/><path fill="#e6e6e6" d="m577.9 153.9h3.1v11.1l5.6-6h3.8l-5.4 5.5 5.5 8h-3.5l-4.1-5.8-1.9 2v3.9h-3.1z"/><path fill="#e6e6e6" d="m590.6 165.8c0-3.9 3.1-7 7.2-7 4.2 0 7.2 3.2 7.2 7s-3.1 7-7.3 7c-4.1 0-7.1-3.1-7.1-7zm11.2 0c0-2.3-1.7-4.3-4.2-4.3s-4.1 2-4.1 4.3 1.7 4.3 4.1 4.3c2.6.1 4.2-1.9 4.2-4.3z"/><path fill="#e6e6e6" d="m607 167.6v-8.6h3.1v7.6c0 2.1 1.1 3.3 2.9 3.3s3-1.3 3-3.3v-7.6h3.1v13.4h-3.1v-2.1c-.8 1.3-2.1 2.3-4.2 2.3-3 .2-4.8-1.8-4.8-5z"/><path fill="#e6e6e6" d="m622.7 168.8v-7.1h-1.7v-2.6h1.7v-3.7h3.1v3.7h3.6v2.6h-3.6v6.6c0 1.2.6 1.7 1.7 1.7.7 0 1.3-.2 1.9-.5v2.5c-.8.5-1.7.7-2.8.7-2.3 0-3.9-.9-3.9-3.9z"/><path fill="#e6e6e6" d="m632 154.7h3.2v15h9.4v2.9h-12.6z"/><path fill="#e6e6e6" d="m654.8 172.5v-1.7c-.9 1.1-2.3 2-4.4 2-2.6 0-4.8-1.4-4.8-4.2 0-3 2.3-4.4 5.4-4.4 1.7 0 2.6.2 3.7.5v-.2c0-1.9-1.2-2.9-3.3-2.9-1.5 0-2.6.3-3.9.8l-.8-2.5c1.5-.7 2.9-1.1 5.1-1.1 4 0 5.9 2.1 5.9 5.7v8zm.1-5.6c-.8-.3-1.9-.5-3.1-.5-2 0-3.1.8-3.1 2.1s1.1 2 2.6 2c2 0 3.5-1.1 3.5-2.9z"/><path fill="#e6e6e6" d="m663.7 170.5v2.1h-3.1v-18.7h3.1v7.4c1-1.4 2.4-2.5 4.5-2.5 3.2 0 6.3 2.5 6.3 7s-3.1 7-6.3 7c-2.1 0-3.5-1.1-4.5-2.3zm7.8-4.7c0-2.6-1.7-4.3-3.9-4.3-2.1 0-3.9 1.7-3.9 4.4 0 2.6 1.8 4.3 3.9 4.3s3.9-1.7 3.9-4.4z"/><path fill="#e6e6e6" d="m675.8 170.8 1.4-2.1c1.4 1.1 3 1.7 4.4 1.7s2.1-.5 2.1-1.5-1.3-1.4-2.8-1.8c-.1 0-.2-.1-.2-.1-2-.6-4.2-1.4-4.2-4s2.1-4.1 4.8-4.1c1.7 0 3.5.6 5 1.5l-1.2 2.2c-1.3-.8-2.6-1.3-3.8-1.3s-1.9.5-1.9 1.4 1.3 1.4 2.8 1.8c.1 0 .2.1.2.1 2 .6 4.2 1.5 4.2 4 0 2.9-2.2 4.2-5 4.2-2 0-4.1-.7-5.8-2z"/><path fill="#e6e6e6" d="m61 298.6c0-5.1 4.1-9.2 9.3-9.2s9.2 4.2 9.2 9.2-4.1 9.2-9.3 9.2c-5.1 0-9.2-4.2-9.2-9.2zm17.4-.1c0-4.5-3.5-8.2-8.2-8.2s-8.2 3.7-8.2 8.3c0 4.5 3.5 8.2 8.2 8.2s8.2-3.7 8.2-8.3zm-13.1-.1c0-2.8 2.1-5.1 5.1-5.1 1.9 0 2.9.6 3.9 1.5l-1.4 1.7c-.8-.7-1.5-1.1-2.5-1.1-1.7 0-2.8 1.4-2.8 3.1s1.1 3 2.8 3c1.1 0 1.7-.5 2.5-1.1l1.4 1.4c-1.1 1.1-2.1 1.7-4 1.7-2.8.1-5-2.2-5-5.1z"/><path fill="#e6e6e6" d="m80.9 289.7h3.4l4.2 13.2 4.4-13.3h2.6l4.4 13.3 4.2-13.2h3.3l-6.2 18h-2.7l-4.4-12.8-4.4 12.8h-2.7z"/><path fill="#e6e6e6" d="m107.1 300.8c0-3.9 3.1-7 7.2-7s7.2 3.2 7.2 7-3.1 7-7.3 7c-4 0-7.1-3.1-7.1-7zm11.3 0c0-2.3-1.7-4.3-4.2-4.3s-4.1 2-4.1 4.3 1.7 4.3 4.1 4.3c2.6.1 4.2-1.9 4.2-4.3z"/><path fill="#e6e6e6" d="m123.7 294h3.1v3c.8-2 2.4-3.4 4.8-3.3v3.2h-.2c-2.7 0-4.6 1.7-4.6 5.4v5.1h-3.1z"/><path fill="#e6e6e6" d="m133.4 288.9h3.1v11.1l5.6-6h3.8l-5.4 5.5 5.5 8h-3.5l-4.1-5.8-1.9 1.9v3.9h-3.1z"/><path fill="#e6e6e6" d="m146 300.8c0-3.9 3.1-7 7.2-7s7.2 3.2 7.2 7-3.1 7-7.3 7c-4.1 0-7.1-3.1-7.1-7zm11.2 0c0-2.3-1.7-4.3-4.2-4.3s-4.1 2-4.1 4.3 1.7 4.3 4.1 4.3c2.6.1 4.2-1.9 4.2-4.3z"/><path fill="#e6e6e6" d="m162.4 302.6v-8.6h3.1v7.6c0 2.1 1.1 3.3 2.9 3.3s3-1.3 3-3.3v-7.6h3.1v13.4h-3.1v-2.1c-.8 1.3-2.1 2.3-4.2 2.3-3 .2-4.8-1.8-4.8-5z"/><path fill="#e6e6e6" d="m178.1 303.8v-7.1h-1.7v-2.7h1.7v-3.7h3.1v3.7h3.6v2.6h-3.6v6.6c0 1.2.6 1.7 1.7 1.7.7 0 1.3-.2 1.9-.5v2.5c-.8.5-1.7.7-2.8.7-2.3.1-3.9-.9-3.9-3.8z"/><path fill="#e6e6e6" d="m187.4 289.7h3.2v15h9.4v2.9h-12.5v-17.9z"/><path fill="#e6e6e6" d="m210.2 307.5v-1.7c-.9 1.1-2.3 2-4.4 2-2.6 0-4.8-1.4-4.8-4.2 0-3 2.3-4.4 5.4-4.4 1.7 0 2.6.2 3.7.5v-.2c0-1.9-1.2-2.9-3.3-2.9-1.5 0-2.6.3-3.9.8l-.8-2.5c1.5-.7 2.9-1.1 5.1-1.1 4 0 5.9 2.1 5.9 5.7v8zm.1-5.6c-.8-.3-1.9-.5-3.1-.5-2 0-3.1.8-3.1 2.1s1.1 2 2.6 2c2 0 3.5-1.1 3.5-2.9z"/><path fill="#e6e6e6" d="m219.2 305.5v2.1h-3.1v-18.7h3.1v7.4c1-1.4 2.4-2.5 4.5-2.5 3.2 0 6.3 2.5 6.3 7s-3.1 7-6.3 7c-2.2 0-3.6-1.1-4.5-2.3zm7.7-4.7c0-2.6-1.7-4.3-3.9-4.3s-3.9 1.7-3.9 4.4c0 2.6 1.8 4.3 3.9 4.3s3.9-1.7 3.9-4.4z"/><path fill="#e6e6e6" d="m231.2 305.8 1.4-2.1c1.4 1.1 3 1.7 4.4 1.7s2.1-.5 2.1-1.5-1.3-1.4-2.8-1.8c-.1 0-.2-.1-.2-.1-2-.6-4.2-1.4-4.2-4s2.1-4.1 4.8-4.1c1.7 0 3.5.6 5 1.5l-1.2 2.2c-1.3-.8-2.6-1.3-3.8-1.3s-1.9.5-1.9 1.4 1.3 1.4 2.8 1.8c.1 0 .2.1.2.1 2 .6 4.2 1.5 4.2 4 0 2.9-2.2 4.2-5 4.2-2 0-4.1-.7-5.8-2z"/><path fill="#e6e6e6" d="m360.6 298.6c0-5.1 4.1-9.2 9.3-9.2s9.2 4.2 9.2 9.2-4.1 9.2-9.3 9.2-9.2-4.2-9.2-9.2zm17.4-.1c0-4.5-3.5-8.2-8.2-8.2s-8.2 3.7-8.2 8.3c0 4.5 3.5 8.2 8.2 8.2s8.2-3.7 8.2-8.3zm-13.1-.1c0-2.8 2.1-5.1 5.1-5.1 1.9 0 2.9.6 3.9 1.5l-1.4 1.7c-.8-.7-1.5-1.1-2.5-1.1-1.7 0-2.8 1.4-2.8 3.1s1.1 3 2.8 3c1.1 0 1.7-.5 2.5-1.1l1.4 1.4c-1.1 1.1-2.1 1.7-4 1.7-2.8.1-5-2.2-5-5.1z"/><path fill="#e6e6e6" d="m380.5 289.7h3.4l4.2 13.2 4.4-13.3h2.6l4.4 13.3 4.2-13.2h3.3l-6.2 18h-2.7l-4.4-12.8-4.4 12.8h-2.7z"/><path fill="#e6e6e6" d="m406.7 300.8c0-3.9 3.1-7 7.2-7 4.2 0 7.2 3.2 7.2 7s-3.1 7-7.3 7c-4.1 0-7.1-3.1-7.1-7zm11.3 0c0-2.3-1.7-4.3-4.2-4.3s-4.1 2-4.1 4.3 1.7 4.3 4.1 4.3c2.7.1 4.2-1.9 4.2-4.3z"/><path fill="#e6e6e6" d="m423.3 294h3.1v3c.8-2 2.4-3.4 4.8-3.3v3.2h-.2c-2.7 0-4.6 1.7-4.6 5.4v5.1h-3.1z"/><path fill="#e6e6e6" d="m433 288.9h3.1v11.1l5.6-6h3.8l-5.4 5.5 5.5 8h-3.5l-4.1-5.8-1.9 2v3.9h-3.1z"/><path fill="#e6e6e6" d="m445.6 300.8c0-3.9 3.1-7 7.2-7 4.2 0 7.2 3.2 7.2 7s-3.1 7-7.3 7c-4.1 0-7.1-3.1-7.1-7zm11.3 0c0-2.3-1.7-4.3-4.2-4.3s-4.1 2-4.1 4.3 1.7 4.3 4.1 4.3c2.6.1 4.2-1.9 4.2-4.3z"/><path fill="#e6e6e6" d="m462.1 302.6v-8.6h3.1v7.6c0 2.1 1.1 3.3 2.9 3.3s3-1.3 3-3.3v-7.6h3.1v13.4h-3.1v-2.1c-.8 1.3-2.1 2.3-4.2 2.3-3.1.2-4.8-1.8-4.8-5z"/><path fill="#e6e6e6" d="m477.8 303.8v-7.1h-1.8v-2.7h1.7v-3.7h3.1v3.7h3.6v2.6h-3.6v6.6c0 1.2.6 1.7 1.7 1.7.7 0 1.3-.2 1.9-.5v2.5c-.8.5-1.7.7-2.8.7-2.2.1-3.8-.9-3.8-3.8z"/><path fill="#e6e6e6" d="m487.1 289.7h3.2v15h9.4v2.9h-12.5v-17.9z"/><path fill="#e6e6e6" d="m509.9 307.5v-1.7c-.9 1.1-2.3 2-4.4 2-2.6 0-4.8-1.4-4.8-4.2 0-3 2.3-4.4 5.4-4.4 1.7 0 2.6.2 3.7.5v-.2c0-1.9-1.2-2.9-3.3-2.9-1.5 0-2.6.3-3.9.8l-.8-2.5c1.5-.7 2.9-1.1 5.1-1.1 4 0 5.9 2.1 5.9 5.7v8zm.1-5.6c-.8-.3-1.9-.5-3.1-.5-2 0-3.1.8-3.1 2.1s1.1 2 2.6 2c2 0 3.5-1.1 3.5-2.9z"/><path fill="#e6e6e6" d="m518.8 305.5v2.1h-3.1v-18.7h3.1v7.4c1-1.4 2.4-2.5 4.5-2.5 3.2 0 6.3 2.5 6.3 7s-3.1 7-6.3 7c-2.2 0-3.5-1.1-4.5-2.3zm7.7-4.7c0-2.6-1.7-4.3-3.9-4.3s-3.9 1.7-3.9 4.4c0 2.6 1.8 4.3 3.9 4.3s3.9-1.7 3.9-4.4z"/><path fill="#e6e6e6" d="m530.8 305.8 1.4-2.1c1.4 1.1 3 1.7 4.4 1.7s2.1-.5 2.1-1.5-1.3-1.4-2.8-1.8c-.1 0-.2-.1-.2-.1-2-.6-4.2-1.4-4.2-4s2.1-4.1 4.8-4.1c1.7 0 3.5.6 5 1.5l-1.2 2.2c-1.3-.8-2.6-1.3-3.8-1.3s-1.9.5-1.9 1.4 1.3 1.4 2.8 1.8c.1 0 .2.1.2.1 2 .6 4.2 1.5 4.2 4 0 2.9-2.2 4.2-5 4.2-1.9 0-4.1-.7-5.8-2z"/><path fill="#e6e6e6" d="m659.5 298.6c0-5.1 4.1-9.2 9.3-9.2s9.2 4.2 9.2 9.2-4.1 9.2-9.3 9.2-9.2-4.2-9.2-9.2zm17.3-.1c0-4.5-3.5-8.2-8.2-8.2s-8.2 3.7-8.2 8.3c0 4.5 3.5 8.2 8.2 8.2 4.8 0 8.2-3.7 8.2-8.3zm-13-.1c0-2.8 2.1-5.1 5.1-5.1 1.9 0 2.9.6 3.9 1.5l-1.4 1.7c-.8-.7-1.5-1.1-2.5-1.1-1.7 0-2.8 1.4-2.8 3.1s1.1 3 2.8 3c1.1 0 1.7-.5 2.5-1.1l1.4 1.4c-1.1 1.1-2.1 1.7-4 1.7-2.9.1-5-2.2-5-5.1z"/><path fill="#e6e6e6" d="m679.3 289.7h3.4l4.2 13.2 4.4-13.3h2.6l4.4 13.3 4.2-13.2h3.3l-6.2 18h-2.6l-4.4-12.8-4.4 12.8h-2.7z"/><path fill="#e6e6e6" d="m705.5 300.8c0-3.9 3.1-7 7.2-7 4.2 0 7.2 3.2 7.2 7s-3.1 7-7.3 7c-4 0-7.1-3.1-7.1-7zm11.3 0c0-2.3-1.7-4.3-4.2-4.3s-4.1 2-4.1 4.3 1.7 4.3 4.1 4.3c2.7.1 4.2-1.9 4.2-4.3z"/><path fill="#e6e6e6" d="m722.1 294h3.1v3c.8-2 2.4-3.4 4.8-3.3v3.2h-.2c-2.7 0-4.6 1.7-4.6 5.4v5.1h-3.1z"/><path fill="#e6e6e6" d="m731.8 288.9h3.1v11.1l5.6-6h3.8l-5.4 5.5 5.5 8h-3.5l-4.1-5.8-1.9 2v3.9h-3.1z"/><path fill="#e6e6e6" d="m744.4 300.8c0-3.9 3.1-7 7.2-7 4.2 0 7.2 3.2 7.2 7s-3.1 7-7.3 7c-4.1 0-7.1-3.1-7.1-7zm11.3 0c0-2.3-1.7-4.3-4.2-4.3s-4.1 2-4.1 4.3 1.7 4.3 4.1 4.3c2.6.1 4.2-1.9 4.2-4.3z"/><path fill="#e6e6e6" d="m760.9 302.6v-8.6h3.1v7.6c0 2.1 1.1 3.3 2.9 3.3s3-1.3 3-3.3v-7.6h3.1v13.4h-3.1v-2.1c-.8 1.3-2.1 2.3-4.2 2.3-3.1.2-4.8-1.8-4.8-5z"/><path fill="#e6e6e6" d="m776.6 303.8v-7.1h-1.7v-2.7h1.7v-3.7h3.1v3.7h3.6v2.6h-3.6v6.6c0 1.2.6 1.7 1.7 1.7.7 0 1.3-.2 1.9-.5v2.5c-.8.5-1.7.7-2.8.7-2.3.1-3.9-.9-3.9-3.8z"/><path fill="#e6e6e6" d="m785.9 289.7h3.2v15h9.4v2.9h-12.5v-17.9z"/><path fill="#e6e6e6" d="m808.7 307.5v-1.7c-.9 1.1-2.3 2-4.4 2-2.6 0-4.8-1.4-4.8-4.2 0-3 2.3-4.4 5.4-4.4 1.7 0 2.6.2 3.7.5v-.2c0-1.9-1.2-2.9-3.3-2.9-1.5 0-2.6.3-3.9.8l-.8-2.5c1.5-.7 2.9-1.1 5.1-1.1 4 0 5.9 2.1 5.9 5.7v8zm.1-5.6c-.8-.3-1.9-.5-3.1-.5-2 0-3.1.8-3.1 2.1s1.1 2 2.6 2c2 0 3.5-1.1 3.5-2.9z"/><path fill="#e6e6e6" d="m817.6 305.5v2.1h-3.1v-18.7h3.1v7.4c1-1.4 2.4-2.5 4.5-2.5 3.2 0 6.3 2.5 6.3 7s-3.1 7-6.3 7c-2.1 0-3.5-1.1-4.5-2.3zm7.7-4.7c0-2.6-1.7-4.3-3.9-4.3-2.1 0-3.9 1.7-3.9 4.4 0 2.6 1.8 4.3 3.9 4.3 2.2 0 3.9-1.7 3.9-4.4z"/><path fill="#e6e6e6" d="m829.6 305.8 1.4-2.1c1.4 1.1 3 1.7 4.4 1.7s2.1-.5 2.1-1.5-1.3-1.4-2.8-1.8c-.1 0-.2-.1-.2-.1-2-.6-4.2-1.4-4.2-4s2.1-4.1 4.8-4.1c1.7 0 3.5.6 5 1.5l-1.2 2.2c-1.3-.8-2.6-1.3-3.8-1.3s-1.9.5-1.9 1.4 1.3 1.4 2.8 1.8c.1 0 .2.1.2.1 2 .6 4.2 1.5 4.2 4 0 2.9-2.2 4.2-5 4.2-1.9 0-4-.7-5.8-2z"/><path fill="#e6e6e6" d="m206.3 434.2c0-5.1 4.1-9.2 9.3-9.2s9.2 4.2 9.2 9.2-4.1 9.2-9.3 9.2-9.2-4.1-9.2-9.2zm17.4-.1c0-4.5-3.5-8.2-8.2-8.2s-8.2 3.7-8.2 8.3c0 4.5 3.5 8.2 8.2 8.2s8.2-3.7 8.2-8.3zm-13.1-.1c0-2.8 2.1-5.1 5.1-5.1 1.9 0 2.9.6 3.9 1.5l-1.4 1.7c-.8-.7-1.5-1.1-2.5-1.1-1.7 0-2.8 1.4-2.8 3.1s1.1 3 2.8 3c1.1 0 1.7-.5 2.5-1.1l1.4 1.4c-1.1 1.1-2.1 1.7-4 1.7-2.9.1-5-2.2-5-5.1z"/><path fill="#e6e6e6" d="m226.1 425.3h3.4l4.2 13.2 4.4-13.3h2.6l4.4 13.3 4.2-13.2h3.3l-6.2 18h-2.7l-4.4-12.8-4.4 12.8h-2.7z"/><path fill="#e6e6e6" d="m252.4 436.4c0-3.9 3.1-7 7.2-7 4.2 0 7.2 3.2 7.2 7s-3.1 7-7.3 7c-4.1 0-7.1-3.1-7.1-7zm11.2 0c0-2.3-1.7-4.3-4.2-4.3s-4.1 2-4.1 4.3 1.7 4.3 4.1 4.3c2.7.1 4.2-1.9 4.2-4.3z"/><path fill="#e6e6e6" d="m269 429.7h3.1v3c.8-2 2.4-3.4 4.8-3.3v3.2h-.2c-2.7 0-4.6 1.7-4.6 5.4v5.1h-3.1z"/><path fill="#e6e6e6" d="m278.6 424.5h3.1v11.1l5.6-6h3.8l-5.4 5.5 5.5 8h-3.5l-4.1-5.8-1.9 2v3.9h-3.1z"/><path fill="#e6e6e6" d="m291.3 436.4c0-3.9 3.1-7 7.2-7 4.2 0 7.2 3.2 7.2 7s-3.1 7-7.3 7c-4.1 0-7.1-3.1-7.1-7zm11.2 0c0-2.3-1.7-4.3-4.2-4.3s-4.1 2-4.1 4.3 1.7 4.3 4.1 4.3c2.6.1 4.2-1.9 4.2-4.3z"/><path fill="#e6e6e6" d="m307.7 438.2v-8.6h3.1v7.6c0 2.1 1.1 3.3 2.9 3.3s3-1.3 3-3.3v-7.6h3.1v13.4h-3.1v-2.1c-.8 1.3-2.1 2.3-4.2 2.3-3 .2-4.8-1.8-4.8-5z"/><path fill="#e6e6e6" d="m323.4 439.4v-7.1h-1.7v-2.6h1.7v-3.7h3.1v3.7h3.6v2.6h-3.6v6.6c0 1.2.6 1.7 1.7 1.7.7 0 1.3-.2 1.9-.5v2.5c-.8.5-1.7.7-2.8.7-2.3 0-3.9-.9-3.9-3.9z"/><path fill="#e6e6e6" d="m332.7 425.3h3.2v15h9.4v2.9h-12.5v-17.9z"/><path fill="#e6e6e6" d="m355.5 443.1v-1.7c-.9 1.1-2.3 2-4.4 2-2.6 0-4.8-1.4-4.8-4.2 0-3 2.3-4.4 5.4-4.4 1.7 0 2.6.2 3.7.5v-.2c0-1.9-1.2-2.9-3.3-2.9-1.5 0-2.6.3-3.9.8l-.8-2.5c1.5-.7 2.9-1.1 5.1-1.1 4 0 5.9 2.1 5.9 5.7v8zm.1-5.6c-.8-.3-1.9-.5-3.1-.5-2 0-3.1.8-3.1 2.1s1.1 2 2.6 2c2 0 3.5-1.1 3.5-2.9z"/><path fill="#e6e6e6" d="m364.4 441.1v2.1h-3.1v-18.7h3.1v7.4c1-1.4 2.4-2.5 4.5-2.5 3.2 0 6.3 2.5 6.3 7s-3.1 7-6.3 7c-2.1 0-3.5-1.1-4.5-2.3zm7.7-4.7c0-2.6-1.7-4.3-3.9-4.3-2.1 0-3.9 1.7-3.9 4.4 0 2.6 1.8 4.3 3.9 4.3 2.2 0 3.9-1.7 3.9-4.4z"/><path fill="#e6e6e6" d="m376.5 441.4 1.4-2.1c1.4 1.1 3 1.7 4.4 1.7s2.1-.5 2.1-1.5-1.3-1.4-2.8-1.8c-.1 0-.2-.1-.2-.1-2-.6-4.2-1.4-4.2-4s2.1-4.1 4.8-4.1c1.7 0 3.5.6 5 1.5l-1.2 2.2c-1.3-.8-2.6-1.3-3.8-1.3s-1.9.5-1.9 1.4 1.3 1.4 2.8 1.8c.1 0 .2.1.2.1 2 .6 4.2 1.5 4.2 4 0 2.9-2.2 4.2-5 4.2-2 0-4.1-.7-5.8-2z"/><path fill="#e6e6e6" d="m505.1 434.2c0-5.1 4.1-9.2 9.3-9.2s9.2 4.2 9.2 9.2-4.1 9.2-9.3 9.2-9.2-4.1-9.2-9.2zm17.4-.1c0-4.5-3.5-8.2-8.2-8.2s-8.2 3.7-8.2 8.3c0 4.5 3.5 8.2 8.2 8.2s8.2-3.7 8.2-8.3zm-13.1-.1c0-2.8 2.1-5.1 5.1-5.1 1.9 0 2.9.6 3.9 1.5l-1.4 1.7c-.8-.7-1.5-1.1-2.5-1.1-1.7 0-2.8 1.4-2.8 3.1s1.1 3 2.8 3c1.1 0 1.7-.5 2.5-1.1l1.4 1.4c-1.1 1.1-2.1 1.7-4 1.7-2.9.1-5-2.2-5-5.1z"/><path fill="#e6e6e6" d="m525 425.3h3.4l4.2 13.2 4.4-13.3h2.6l4.4 13.3 4.2-13.2h3.3l-6.2 18h-2.7l-4.4-12.8-4.4 12.8h-2.7z"/><path fill="#e6e6e6" d="m551.2 436.4c0-3.9 3.1-7 7.2-7 4.2 0 7.2 3.2 7.2 7s-3.1 7-7.3 7c-4.1 0-7.1-3.1-7.1-7zm11.2 0c0-2.3-1.7-4.3-4.2-4.3s-4.1 2-4.1 4.3 1.7 4.3 4.1 4.3c2.7.1 4.2-1.9 4.2-4.3z"/><path fill="#e6e6e6" d="m567.8 429.7h3.1v3c.8-2 2.4-3.4 4.8-3.3v3.2h-.2c-2.7 0-4.6 1.7-4.6 5.4v5.1h-3.1z"/><path fill="#e6e6e6" d="m577.5 424.5h3.1v11.1l5.6-6h3.8l-5.4 5.5 5.5 8h-3.5l-4.1-5.8-1.9 2v3.9h-3.1z"/><path fill="#e6e6e6" d="m590.1 436.4c0-3.9 3.1-7 7.2-7 4.2 0 7.2 3.2 7.2 7s-3.1 7-7.3 7c-4.1 0-7.1-3.1-7.1-7zm11.2 0c0-2.3-1.7-4.3-4.2-4.3s-4.1 2-4.1 4.3 1.7 4.3 4.1 4.3c2.6.1 4.2-1.9 4.2-4.3z"/><path fill="#e6e6e6" d="m606.5 438.2v-8.6h3.1v7.6c0 2.1 1.1 3.3 2.9 3.3s3-1.3 3-3.3v-7.6h3.1v13.4h-3.1v-2.1c-.8 1.3-2.1 2.3-4.2 2.3-3 .2-4.8-1.8-4.8-5z"/><path fill="#e6e6e6" d="m622.2 439.4v-7.1h-1.7v-2.6h1.7v-3.7h3.1v3.7h3.6v2.6h-3.6v6.6c0 1.2.6 1.7 1.7 1.7.7 0 1.3-.2 1.9-.5v2.5c-.8.5-1.7.7-2.8.7-2.3 0-3.9-.9-3.9-3.9z"/><path fill="#e6e6e6" d="m631.5 425.3h3.2v15h9.4v2.9h-12.5v-17.9z"/><path fill="#e6e6e6" d="m654.3 443.1v-1.7c-.9 1.1-2.3 2-4.4 2-2.6 0-4.8-1.4-4.8-4.2 0-3 2.3-4.4 5.4-4.4 1.7 0 2.6.2 3.7.5v-.2c0-1.9-1.2-2.9-3.3-2.9-1.5 0-2.6.3-3.9.8l-.8-2.5c1.5-.7 2.9-1.1 5.1-1.1 4 0 5.9 2.1 5.9 5.7v8zm.1-5.6c-.8-.3-1.9-.5-3.1-.5-2 0-3.1.8-3.1 2.1s1.1 2 2.6 2c2 0 3.5-1.1 3.5-2.9z"/><path fill="#e6e6e6" d="m663.3 441.1v2.1h-3.1v-18.7h3.1v7.4c1-1.4 2.4-2.5 4.5-2.5 3.2 0 6.3 2.5 6.3 7s-3.1 7-6.3 7c-2.2 0-3.6-1.1-4.5-2.3zm7.7-4.7c0-2.6-1.7-4.3-3.9-4.3s-3.9 1.7-3.9 4.4c0 2.6 1.8 4.3 3.9 4.3s3.9-1.7 3.9-4.4z"/><path fill="#e6e6e6" d="m675.3 441.4 1.4-2.1c1.4 1.1 3 1.7 4.4 1.7s2.1-.5 2.1-1.5-1.3-1.4-2.8-1.8c-.1 0-.2-.1-.2-.1-2-.6-4.2-1.4-4.2-4s2.1-4.1 4.8-4.1c1.7 0 3.5.6 5 1.5l-1.2 2.2c-1.3-.8-2.6-1.3-3.8-1.3s-1.9.5-1.9 1.4 1.3 1.4 2.8 1.8c.1 0 .2.1.2.1 2 .6 4.2 1.5 4.2 4 0 2.9-2.2 4.2-5 4.2-2 0-4.1-.7-5.8-2z"/></g>
</svg>
