<?xml version="1.0" encoding="utf-8"?>
<!-- Generator: Adobe Illustrator 23.0.1, SVG Export Plug-In . SVG Version: 6.00 Build 0)  -->
<svg version="1.2" baseProfile="tiny" id="Layer_1" xmlns="http://www.w3.org/2000/svg" xmlns:xlink="http://www.w3.org/1999/xlink"
	 x="0px" y="0px" viewBox="0 0 900 600" xml:space="preserve">
<g>
	<path d="M898.42,458.83c-10.41,0.2-20.31-6.06-24.55-15.25c-3.23-0.5-5.95-2.04-8.18-4.44c-4.55-4.89-6.87,2.47-6.06-4.95
		c1.14-10.4-1.21-22.93,2.93-41.22c3.6-15.88,0.98-47.93-1.52-63.95c-0.49-3.13,1.57-11.34-2.02-11.01
		c-1.37,5.39-0.27,9.19,2.22,37.28c2.55,28.77-2.1,33.9-2.32,37.89c-0.6,10.8-2.58,21.51-1.41,32.43c0.53,4.95-1.31,9.9,0,14.75
		c-6.15,3.79-3.11-1.71-6.57-4.65c0.1,2.53,0.31,4.65,0.4,6.87c-3.44,2.12-6.97,0.2-10.41,0.91c-0.99-4.53,0.79-1.73-2.32-29.3
		c-2.24-19.85-9.5-18.54-7.68-44.86c0.71-10.23,2.43-20.96-0.6-29.09c6.16,0.6,7.47,0.31,9.4-2.22c-2.22-1.52-4.15,0.81-6.66,0.2
		c-0.4-2.43-3.23-1.62-5.15-3.13c1.89-4.56,4.7-20.73,1.82-31.83c27.71,7.76,23.17,15.4,29.3,14.75
		c-3.6-7.21-17.11-14.1-24.25-15.76c-2.63-0.61-5.13-1.33-7.28-3.44c-4.61-4.53-30.29-6.46-40.11-4.85
		c-12.34,2.02-16.96-8.49-24.65-1.31c-9.61-0.43-15.67-8.52-17.78-8.99c-16.32-3.67-19.25-5.44-21.93-1.52
		c-9.8-5.25-14.65-15.46-23.64-21.12c3.44-6.97,5.28-13.74,5.15-20.81c-0.17-10,1.04-19.9,0-29.9c-1.01-9.68,6.42-9.39,1.92-23.24
		c-12.85-39.53-11.49-50.04-27.48-74.96c-2.54-3.96-2.75-11.09-2.12-11.72c1.16-2.32,4.32,4.78,8.28,6.37
		c3.84-1.82,8.08-2.32,12.43-3.13c2.43-3.23,2.63-7.37,3.84-11.12c-1.82,3.23-3.23,6.57-5.25,9.9c-3.84-0.31-7.68,0.4-11.31,2.22
		c-10.07-10.08-8.34-20.44-11.8-20.6c0.27,1.43-1.53,0.4-1.63,0.89c-0.5,1.82,0.91,2.73,0.91,3.84c-0.91,0.81-1.82,1.52-3.13,2.53
		c5.25,4.55,4.65,11.01,5.96,16.47c-0.5,1.11-1.41,0.4-2.22,1.31c2.92,1.6,1.02,5.43,3.62,7.35c0.4-0.56,0.87-1.16,1.53-2.2
		c6.56,11.98,7.84,12.33,15.15,36.77c1.97,6.58,10.72,32.23,13.13,41.93c1.01,4.05-2.1,3.67-2.83,7.28
		c-4.74,23.32,4.54,32.16-7.88,62.33c-3.07,7.46-8.42,8.76-9.19,19.9c-0.1,1.41-0.4,2.83-0.81,4.95c3.84-4.15,2.83-9.5,5.76-13.94
		c3.64,8,13.89,12.17,8.79,24.55c-5.56,13.5-15.86,17.48-23.84,14.44c-0.77-0.39-40.38-8.27-36.58-41.62
		c0.52-4.54,3.84-8.28,7.68-11.12c-1.52,3.84-4.95,7.07-4.34,11.82c1.41-0.5,1.71-1.62,2.02-2.63c5.29-17,18.67-12.55,20.31-25.56
		c1.84-14.67,2.59-24.13,10.21-36.98c5.2-8.77-1.33-18.06-2.12-44.65c-0.44-14.97-7.09-33.6-8.59-41.62
		c-1.81-9.68-11.08-7.86-15.25-10.81c-4.66-3.31-5.46-8.59-7.07-13.74c2.22,0,3.84-0.5,5.76-1.01c-0.81-1.41-2.32-0.6-2.93-1.72
		c0-1.92,2.22-2.43,2.93-4.15c-3.92-2.08-4.73,6.48-9.7,8.59c-2.44,1.22,0.28,10.17,5.05,10.81c2.29,3.78,2.57,2.4-0.6,4.85
		c0-0.22-1.21,5.38-1.31,5.86c-3.94,0.5-7.58,1.72-11.21,3.53c-2.43-2.32-5.45-3.94-8.59-5.05c-4.02-1.43-2.25-3.53-6.06-12.33
		c6.38-10.94,0.31-12.21,14.15-14.25c0,2.43-1.31,4.44-0.81,6.97c2.43-1.72,1.62-4.65,3.13-6.57c3.03,0.6,5.46,3.13,9.3,2.83
		c-6.77-6.66-16.37-6.57-23.74-0.6c-18.29-4.77-18.49-1.83-24.05-6.66c-0.6-4.65-4.55-5.51-8.89-5.96
		c-3.54-0.37-6.87-1.66-10.5-1.52c-7.53,0.28-11.12,8.99-11.21,8.89c-1.41,0.5-1.3,1.52-1.01,2.73c0.02,0.1,2.66,12.83,2.73,12.93
		c3.94,1.92,7.98,4.55,13.13,3.34c2.26,3.07,0.55,3.69,0.1,27.08c-0.25,13.02-8.05,16.45-8.28,35.77
		c-0.34,28.25-7.92,19.3-2.12,34.75c-2.83,2.02-1.72,5.96-4.24,8.99c0.31-3.13,1.11-5.46,1.82-7.88c-3.93-0.72-2.87-0.82-5.96,1.92
		c-0.91,0.2-1.21-1.31-2.43-0.5c-1.31,1.21-1.21,3.44-2.32,5.15c-1.52-0.6-0.31-3.03-2.63-3.44c-0.91,3.63-1.82,7.28-1.62,11.31
		c-2.02,0.1-2.83-2.73-5.25-2.02c-0.31,2.73-2.32,5.25-0.31,8.38c-2.83,1.11-2.73,3.63-3.34,5.76c-1.21,0.31-2.43-1.72-3.74,0.2
		c0.1,2.32,2.53,3.94,2.93,6.26c-0.91,1.21-2.53,0-3.44,1.41c1.11,1.31,1.72,2.83,1.62,4.75c-1.52,0.31-3.34-1.31-4.34,0.31
		c-0.6,1.52,0.6,2.22,0.5,3.34c0,1.11-1.92,0.71-1.82,1.52c-0.1,1.41,0.91,1.82,1.21,2.73c-0.2,0.81-1.62,0.91-1.31,2.43
		c1.11,1.62,2.43,3.44,5.05,3.63c-0.4,1.21-2.12-0.31-2.32,1.21c0.31,1.11,1.52-0.4,1.82,1.01c-1.01,0.6-2.53,0.81-3.34,2.22
		c0.31,1.11,1.41,1.72,2.02,2.53c1.31,0.6,2.63-0.1,3.74,0.71c1.88,6.09-9.44,1.57-20.31,5.35c-2.12,4.65-1.31,10.31-3.53,14.96
		c2.21,6.12,8.31,2.43,13.94,8.28c0.2,1.21-1.31,2.22-1.41,3.94c3.63,1.21,8.49,0.5,9.9,4.85c27.99,14.65,57.68,24.35,85.98,38.29
		c-6.91,20.08-15.48,43.02-23.44,61.23c-8.84,20.22-8.73,26.79-11.82,33.95c-1.67,3.86-4.05,7.37-5.15,11.52
		c-1.15,4.32-4.58,4.77-3.13,8.38c2.53-1.21,3.71-3.44,4.44-5.56c20.31-58.66,8.82-18.31,41.22-106.89
		c5.92-16.2,2.05-11.85,11.52-7.68c-4.34,13.5-21.37,50.71-21.42,50.82c-1.61,3.24-1.64,7.27-2.43,11.01
		c-0.83,3.95-15.73,45.44-17.18,48.9c0.71,2.02,4.32,3.02,3.03,5.56c-1.54,3.02-1.41,7.28-6.16,8.38c-3.03-1.11-5.56,1.62-8.69,2.32
		c-2.02-1.31-1.21-4.75-3.63-6.06c-0.91,1.01,0.71,1.72,0.2,2.63c-15.25,14.15-31.32,27.28-48.8,39.5
		c-10.75-0.74,1.16-2.4-29.9-2.63c-1.11-0.01-2.34,0.41-3.23-0.4c-5.85-5.34-18.8,4.75-7.18,16.87c9.33-1.78,38.88,8.65,52.94,8.49
		c8-0.09,32.92,5.36,34.65,6.16c1.6,0.74,3.03,0.1,3.84-2.22c-2.63,1.41-4.06-0.77-5.76-1.52c-3.06-1.35-2.92-11.21-0.1-13.03
		c7.59-4.91,16.62,7.3,8.28,14.04c-4.52,3.66,5.15,1.15,5.96-4.95c0.88-6.57-3.64-11.7-10.31-12.33
		c-6.17-0.58-12.33-1.31-18.49-3.44c7.48-10.04,15.72-15.88,18.59-18.99c5.87-6.37-2.52,8.28,52.33-39.2
		c0.11-0.09,79.21-65.94,79.31-65.98c3.41-1.27,7.47-0.63,11.21-1.31c1.72-0.31,3.44-0.91,5.66-0.6
		c1.75,31.45-0.75,52.91-1.21,54.36c-0.49,1.52-1.82,2.53-1.31,4.24c-9.53,2.6-0.91,4.75-6.87,13.64
		c-1.71,2.55-1.11,15.36-1.11,18.39c9.7,2.02,18.99,1.62,28.49-1.41c0.6,0.6,1.31,1.41,1.82,2.02c9.08,1.54,59.62,6.67,68.8,6.87
		c8.96,0.2,24.09,7.6,37.08,4.44c0.1-0.02,13.18-3.06,14.04-2.73c9.42,3.68,17.87-1.06,24.25-0.1c1.01-2.93,5.06-4.34,4.75-7.68
		C899.44,467.12,901.14,462.67,898.42,458.83z M672.91,90.68c1.72,2.53,2.83,4.95,3.63,7.37C674.74,96.34,673.02,92.9,672.91,90.68z
		 M642.41,105.53c-0.4-1.92-3.34-3.44-1.41-6.57C641.9,101.29,643.01,103.21,642.41,105.53z M537.63,257.48
		c-0.6,0.1-0.71-0.4-1.11-0.91C537.63,256.57,537.94,256.77,537.63,257.48z M858,441.86c1.51-1.02,2.63-0.6,3.44,0.91
		c-5.96,6.66-9.29,7.58-16.47,4.04C852.55,445.69,849.3,447.74,858,441.86z M764.25,295.06c2.73-5.96,6.99-0.13,9.5-0.1
		c4.65,0.06,8.99,2.93,14.04,1.62c5.76,9.4,6.57,18.49,0.6,27.99c7.49-9.36,7.44-18.81,1.52-28.09c12.63-0.4,24.35,0.5,35.66,4.24
		c4.22,11.25,0.4,32.74-1.31,33.14c-1.62,0.38-1.73,1.81-2.32,3.03c-7.13,14.73,4.62,12.83-15.46,12.83
		c2.32-1.92,5.05-2.93,6.26-5.66c-0.71-0.31-0.91,0.1-1.21,0.4c-10.82,9.23-10.5,4.16-13.84,6.97c-5.52,4.64-11.54,0.91-35.16,6.16
		c-10.64,2.37-17.06-2.31-26.17-8.59c-0.4-6.77-0.91-7.39-7.28-9.4c-5.15-1.63-9.98-4.29-15.15-6.06c-0.6-0.21-1.01-0.5-0.71-1.21
		c5.25-0.6,6.08-0.5,6.97-2.63c1.62-3.85,7.44-5.53,8.08-7.78c-1.62,0.31-2.32-0.91-3.23-1.82c0.6-1.21,1.11-1.92,2.32-1.21
		c0.31,0.5-0.6,1.01,0.1,1.62c3.23-2.32,7.07-4.15,7.47-8.69c7.47-0.81,12.59-4.77,16.77-10.31c2.1-2.78,0.53-3.46-7.28-14.44
		C750.3,291.62,756.07,295.87,764.25,295.06z M738.58,302.24c2.77,0.34,1.02,2.34-0.6,1.41
		C737.88,303.05,737.98,302.54,738.58,302.24z M738.79,285.06c0.4,1.41,0.7,2.94,2.12,3.34c4.84,1.35,6.57,5.76,9.29,9.09
		c-11.02,10.69-8.47,9.55-11.21,8.18c1.21-0.91,2.83-0.91,3.03-2.53c-0.1-1.31-1.31-1.52-2.02-2.53c1.01-0.71,2.22-0.5,2.63-1.62
		c0.2-1.31-1.21-1.72-1.62-2.93c0.5-0.5,1.3-0.9,0.91-1.82c-0.64-1.5-2.02-0.5-3.13-1.11c1.96-6.17-13.08-7.28-13.54-10.5
		C730.2,281.72,734.24,284.56,738.79,285.06z M682.41,315.27c18.49-0.57,19.11-21.82,22.93-21.82c-2.63-8.38-7.28-15.46-12.12-22.43
		c3.92-4.66-0.5,0.25,4.85-7.98c2.32,2.63,5.07,4.42,7.78,6.37c2.75,1.99,3.86,5.43,6.37,7.68c5.18,4.66,2.76,10.12,5.15,13.03
		c0.4-3.34-1.11-5.96-1.62-9.6c4.34,4.65,9.8,5.86,14.34,8.18c-1.41,4.34-1.31,8.79-3.34,12.63c2.63-2.83,3.63-6.26,3.94-10.31
		c2.12,3.13,0.4,6.26,1.31,9.19c3.57-8.77-1.36-11.02,3.63-9.6c3.8,14.3-9.41,23.07-13.22,27.36c-0.08-1.5,1.91-2.12,1.72-4.33
		c-4.85,5.35-9.4,10.21-16.16,12.33c2.05,3.07,9.92-3.29,11.72-5.25c0.91-1,1.41-2.31,2.71-2.72c-2.83,6.46-9.5,8.08-14.84,11.61
		c-1.08-2.18-3.11-2.43-4.44-3.65c0,0.1-1.98,1.25-2.94-0.9c-1.92-4.28-17.67-3.87-29.5-10.91
		C674.63,314.46,678.47,315.39,682.41,315.27z M711.71,332.85c-1.01-0.5-1.62-0.81-2.32-1.11
		C710.7,330.93,711.51,330.52,711.71,332.85z M698.27,325.88c-0.91,0.2-1.41-0.4-2.32-1.01
		C697.27,324.77,697.97,324.86,698.27,325.88z M643.41,261.12c-10.48,10.76-6.55,28.33,3.03,37.99c1.91,1.92,3.84,3.74,5.76,5.56
		c-12.43-2.32-23.74-7.58-34.96-13.03c7.37-1.08,17.03-5.89,16.16-13.54c-1.15-10.15,7.92-16.31,9.9-18.99
		c3.18-4.31,1.82-7.98-3.44-9.19c-0.1-0.1-0.1-0.31-0.4-0.81c6.06,1.31,12.02-0.4,17.88,1.01
		C657.36,252.25,655.13,249.09,643.41,261.12z M598.46,267.48c2.12,0.81-0.31,1.31,0.2,2.02c1.7,2.38,3.43,3.53-1.11,0.81
		C597.85,269.2,598.15,268.39,598.46,267.48z M597.24,253.64c1.31,0.2,1.52,0.81,0.71,1.82
		C597.56,255.86,595.93,255.14,597.24,253.64z M600.78,281.02c3.74-1.21,3.84-4.44,4.75-7.07c-0.4-1.21-1.62-1.52-1.82-2.53
		c0.2-0.71,1.01-1.31,0.5-2.22c-1.11-1.52-3.13-2.22-3.94-3.94c0.2-1.62,1.72-2.22,2.12-3.63c6.56-0.23,7.04-5.86,4.34-5.05
		c-0.81,0.6,0.4,1.62-0.81,2.43c-2.22,0.71-4.85,1.41-7.78,0.5c1.21-0.71,1.92-1.41,1.01-2.93c7.1,0.65,2.69-6.27-3.74-4.04
		c-0.31-0.91-0.31-1.41,0.1-1.92c4.24-1.31,9.37,4.3,6.57-0.6c1.31,0.1,2.22-0.5,2.93-1.31c-1.12-2.99-4.52,1.35-9.29-6.97
		c-3.71-6.47-12.67-14.6-13.84-14.96c-3.35-1.02-5.97-5.41-2.02-7.78c5.76-1.11,6.87,4.24,9.9,7.18c0.71-0.6,1.31-1.01,1.21-2.12
		c-3.24-5.03-4.77-3.38,0.81-5.96c2.02,1.82,3.13,4.04,3.74,6.87c3.84,1.72,6.96,4.79,11.01,6.47c4.42,1.82,0.2,12.42,3.44,16.87
		c1.11,0,1.11-1.62,2.53-2.02c2.73,6.16,8.69,7.37,14.75,8.89c-0.91-1.62-2.83-2.22-4.15-4.04c13.73,1.72,21.88-0.4,19.19,4.15
		c-4.63,7.83-11.38,11.48-11.31,22.22c0.02,2.53,0.2,5.44-2.53,6.87c-12.83,6.73-11.26,4.77-28.19-1.01c-0.81-0.28-1-0.52-1.31-3.34
		C599.98,279.91,600.27,281.02,600.78,281.02z M602.49,276.27c-0.2-0.1-0.4-0.2-0.5-0.2C601.73,275.01,603.14,275.64,602.49,276.27z
		 M596.14,274.86c-2.32-0.4-2.32-0.4-3.23-2.12C594.11,273.34,595.23,273.84,596.14,274.86z M579.97,228.48
		c0.91,0.91,1.92,1.72,3.13,2.83C579.97,232.12,580.68,229.6,579.97,228.48z M582.39,245.56c-0.1,1.11-0.2,1.62-1.11,1.72
		C580.17,245.96,580.78,245.66,582.39,245.56z M579.06,254.55c-0.5,0.1-0.91,0.1-0.91-0.6
		C579.58,253.08,580.22,254.16,579.06,254.55z M579.77,260.81c-0.1,0.2-0.1,0.4-0.2,0.81C577.75,261.26,578.41,260,579.77,260.81z
		 M580.27,264.25c-1.82,0.2-3.13-0.31-4.44-1.01C577.64,261.93,578.86,263.03,580.27,264.25z M618.26,249.6
		c1.31-0.6,2.63-0.6,4.24-0.2C620.99,252.22,619.57,250.21,618.26,249.6z M631.89,249.29c1.62,0,2.73-0.5,4.44,0.2
		C634.63,249.7,633.51,250.1,631.89,249.29z M619.79,119.27c3.76-0.47,9.02,5.44,13.24,4.15c6.44-1.97,10.23-2.34,10.91-5.35
		c0.47-2.08,1.71-4.98,1.71-7.02c0-0.11,7.6,1.42,12.33,3.49c4.75,2.08,3.71,3.57,6.47,13.03c1.34,4.6,7.4,28.38,6.87,32.23
		c-1.28,9.33,3.27,30.7,4.55,40.92c-11.57,21.06-10.38,26.86-13.34,47.08c-15.25-1.92-30.51-0.1-46.26-0.4
		c-0.91-1.21-2.53-3.03-4.55-4.24c1.41-4.15-1.21-7.58-1.41-11.31c0-1.21-1.21-2.02-2.63-2.12c-3.44,0,0.03-1.08-8.99-5.35
		c-3.42-1.62-0.09-2.63-0.81-7.07c-2.67-16.51-4.56-15.26-3.34-18.09c5.28-12.22,3.13-30.64,1.01-43.84
		c-1.69-10.48-0.2-22.8,1.21-33.34c0-1.15,2.73,0.82,4.34,0c5.37-2.74,11.5,4.35,15.36-3.84
		C617.64,115.18,618.92,118.51,619.79,119.27z M617.25,95.53c-1.01,2.83-1.52,5.76-3.84,7.98c2.73,14.01,5.19,6.31-1.11,16.97
		c-2.53-0.91-5.15-0.5-7.78-1.62c-0.5-5.35-2.83-10.31-4.24-15.66c3.84-2.73,7.07-5.76,9.9-9.19
		C612.6,94.72,615.02,94.12,617.25,95.53z M598.15,91.48c3.44,0.91,6.77,0.71,10.21,1.92c-3.34,4.04-7.78,6.37-10.61,9.9
		c2.32,5.05,3.63,10.1,5.46,15.46c-3.84-2.02-7.78-1.41-11.62-2.12c-0.5-5.25-0.82-10.1-1.41-14.96
		C589.53,96.38,595.33,95.16,598.15,91.48z M566.83,103c-2.02-4.75-2.02-9.9-3.63-14.65c1.83,0.15,4.53-4.73,8.89-7.58
		c2.73,0.4,5.35,0.91,8.69,1.41c-3.74,2.12-6.26,4.56-9.09,6.37c-2.96,1.89-2.08,2.26,0.6,16.37
		C570.17,104.22,568.45,103.61,566.83,103z M568.65,193.23c7.07-17.82-1.66-18.16,8.08-44.45c5.44-14.68,2.49-16.06,3.53-19.9
		c5.69-20.9-7.16-30.7-1.52-36.58c-7.63,3.02-2.3,5.13-1.41,13.94c-1.41,0.1-2.53,0-3.34-0.81c0.81-5.25-1.92-9.7-2.93-14.44
		c2.64-2.64-2.19,0.87,9.9-6.87c4.44-2.84,9.09-1.41,11.31,3.44c-0.6,0.81-1.61,0.61-2.42,0.91c0.52-2.46-2.28-2.58-4.25-2.11
		c-3.12,0.75-5.46,2.93-8.38,4.04c4.22,2.98,4.43-2.79,12.61-1.92c-12.51,10.34-3.56,6.41-1.61,4.14c2.33-2.72,4.95-2.43,8.49-1.82
		c-3.13,2.22-6.06,3.63-7.98,6.57c-1.72-1.01-3.13-0.71-4.15,0.81c0.6,1.62,2.12,0.71,3.23,1.72c1.21,6.26,0.1,13.13,2.12,19.3
		c1.21,1.21,3.13,0.4,4.04,2.12c-1.31,6.47-0.59,13.14-1.41,19.7c-1.09,8.69,2.06,16.98,1.52,25.77
		c-1.14,18.67,0.96,25.49-1.01,29.09c-4.34,7.95,3.34,11.66,2.12,22.63c-2.92-0.98-1.08-4.6-8.69,0.2
		c-1.72-2.22-5.56-0.91-6.77-4.15c-1.31,0.6-2.43,1.11-3.23,1.52c-0.91,0.91,0.5,1.72-0.5,2.32c-3.8-5.2,1.79-9.46-1.72-10.81
		c-1.41,0.81-1.41,2.83-3.03,3.34c-1.11-1.31,0.83-2.74-0.31-4.15C569.77,205.27,566.75,198.01,568.65,193.23z M573.3,223.63
		c-0.1-1.62,0.2-3.23,0.81-4.85C576.13,220.81,574.21,222.12,573.3,223.63z M574.21,268.8c-0.81,0.31-1.41,0.4-1.92-0.5
		C573.09,267.68,573.71,267.68,574.21,268.8z M571.38,216.16c-0.31-0.6-0.31-1.01,0.1-1.52
		C571.99,215.14,571.89,215.66,571.38,216.16z M568.45,225.05c-0.5,0.81-0.71,1.21-1.01,1.62
		C567.14,225.95,567.14,225.56,568.45,225.05z M565.02,215.45c0,1.62,0.4,3.03-1.01,4.15C563.5,218.08,562.19,216.46,565.02,215.45z
		 M563.4,229.5c0.31,1.82-1.09,3.4,0.6,4.75c1.24,0.99,1.82-1.01,2.93-0.2c0,1.01,0.81,1.72,1.62,2.93
		c-1.92,0.1-2.83,1.41-4.44,2.83C563.9,236.06,560.87,233.34,563.4,229.5z M562.69,260.1c-1.62,4.34-4.65,2.83-7.18,2.63
		C557.74,261.72,560.06,261.32,562.69,260.1z M553.6,260.61c0.91-0.81,1.52-0.6,2.02,0.1C554.91,261.12,554.31,261.02,553.6,260.61z
		 M556.83,252.32c8.05,2.69,7.53,2.02,7.07,2.93C561.23,254.48,556.01,253.97,556.83,252.32z M556.02,234.75
		c0.71-0.31,0.91,0,0.91,0.71C556.53,235.15,556.33,234.95,556.02,234.75z M562.19,221.41c0.4,1.11,0.6,2.02-0.4,2.83
		C561.78,223.33,561.18,222.32,562.19,221.41z M562.8,243.74c-3.03,0.71-4.44-0.2-4.44-2.83
		C560.06,241.92,561.38,242.73,562.8,243.74z M558.35,231.62c-0.91-0.4-1.62-0.5-1.52-1.52
		C557.64,230.1,558.35,230.31,558.35,231.62z M554,213.63c0.31,1.82-1.11,3.63,0.91,4.55c0.91,0.2,1.62-0.6,2.63-1.01
		c0,1.01-0.2,1.72-0.91,2.43c-1.72-0.81-2.63-0.1-2.73,2.43C552.39,217.88,552.49,216.66,554,213.63z M551.07,236.16
		c-1.11-0.5-1.92-0.81-2.22-1.72C550.37,233.94,550.47,234.95,551.07,236.16z M546.63,269.6c-0.5,0.1-1.01,0.91-1.72-0.1
		C545.62,269.2,546.12,269.1,546.63,269.6z M543.5,238.59c-1.01-0.71-1.21-1.41-1.72-2.53C543.09,236.67,544,236.87,543.5,238.59z
		 M542.99,240.41c1.31,2.63-1.41,2.83-1.52,4.65C539.51,241.69,540.73,241.91,542.99,240.41z M615.53,402.76
		c8.39-32.59,13.51-31.86,21.32-55.67c38.23,17.84,24.67,12.4,33.84,17.99c6.08,3.7,13.03,5.46,19.7,8.49
		c-65.35,57.18-45.78,33.93-80.11,65.37c-3.01,2.75-6.47,4.95-9.5,7.88C605.04,428.71,611.91,416.83,615.53,402.76z M652.9,409.74
		c0.44-0.77,0.95-1.31,1.85-1.38C655.19,408.28,654.39,409.57,652.9,409.74z M575.02,510.06c-0.1,0.4-0.1,0.91-0.1,1.31
		c-4.95-0.1-10,0.4-15.05-0.6c4.15,2.02,8.69,2.02,13.13,3.03c1.05,9.94,9.7,12.98-8.59,9.3c-3.22-0.65-6.26-2.22-9.7-2.22
		c-12.93,0-25.47-2.6-37.99-5.25c-25.28-5.36-21.59-2.57-23.84-4.44c-3.09-2.57-2.03-8.51,1.92-10.61
		C506.24,494.47,573.13,509.8,575.02,510.06z M747.98,466.51c-8.28,1.31-16.27,2.73-24.55,0.81c-2.99-15.91,4.47-17.73,2.93-26.97
		c2.53,0.1,4.75,1.82,6.57,0.4c2.73,0.4,4.24,3.13,7.78,2.93c-2.32-4.15-6.06-5.05-9.7-6.16c18.96,0.95,15.32-5.78,18.18-1.01
		c-1.11,3.44-4.55,4.04-7.47,6.16c4.34,1.41,6.47-1.21,8.99-3.03c1.62,2.43,3.53,3.94,6.37,2.53c1.92,1.82,3.84,2.53,6.16,1.41
		c-4.24-4.65-9.7-7.88-13.54-13.24c1.15-2.97-1.65-5.89-0.91-10.71c2.12-13.85,0.62-15.96,4.75-23.84
		c14.25-27.18-5.74-22.12,31.12-26.67c-0.2,3.94,0.59,7.47,0.2,11.12c-1.5,14.02,1.6,28.77,1.11,37.38
		c-0.57,10.11-1.71,20.1-1.62,30.31c0.02,1.92,0.5,4.44-1.11,6.47c-2.53-0.2-5.25,0.5-7.78-0.6c2.22-4.55,1.41-8.08-2.02-9.5
		c-0.4,1.41,0.81,2.83,0.31,4.44c-3.95,5.92-3.53,5.35-10.71,4.75c-3.53-0.3-7.07-1.01-10.1-0.4
		C748.69,456.92,742.73,459.74,747.98,466.51z M733.43,378.11c8.08-1.52,16.27-3.03,25.06-4.65c-3.94,13.54-9.6,25.77-14.65,38.9
		c2.73-1.62,2.63-4.44,4.44-5.96c-2.43,8.28-1.41,16.67-0.81,25.16c-4.75,2.43-9.7,3.94-15.56,2.93
		C734.61,426.86,733.42,378.21,733.43,378.11z M751.52,438.62c0-2.16,2.24-1.46,2.63,0.31
		C753.04,439.23,752.23,439.43,751.52,438.62z M829.62,476.01c-3.74,0.2-6.97-1.61-10.61-1.52c-8.08,0.21-16.16-0.91-24.25-1.82
		c-42.97-4.83-43.77-1.73-45.77-7.37c-1.67-4.72,1.73-6.26,6.47-10.1c43.97,3.63,27.02,3.72,32.13-29.5
		c1.46-9.48-2.18-55.1-0.6-56.68c2.02-0.1,3.94-1.11,6.06-1.01c1.34,3.56,0.02,2.51-0.31,12.43c-0.55,16.59,1.33,49.68,0.4,56.88
		c-1.15,8.95-1.93,15.98,0.2,16.27c2.45-2.63-0.81-82.44,2.63-86.48c-2.24-5.05-71.68,12.09-82.04,11.72
		c-34.08,25.56-70.33,59.64-82.44,66.88c-8.13,4.86-17.71,16.12-30.92,26.47c-2.21,1.73-5.05,1.62-7.18,3.13
		c-22.19,15.71-25.48,22.65-32.63,29.6c-8.08-0.1-15.25-3.44-23.03-4.04c29.22-19.84,48.98-42.78,45.97-33.74
		c-10.5,7.22-11.2,10.39-16.87,14.44c-17.93,12.81-19.27,13.59-19.4,16.47c10.95-9.26,20.84-14.9,27.78-22.74
		c11.2-12.64,24.37-6.14,26.67-20.21c0.66-4.05,12.37-10.96,21.42-17.58c11.84-8.66-3.89,0.7-15.46,9.7
		c-1.71,1.33-3.23,2.83-5.46,3.44c-0.4-1.41,0.61-1.71,1.11-2.12c25.09-20.63,23.13-22.69,44.45-35.35
		c-2.91,2.88-6.28,5.28-8.78,8.78c9.74-9.21,24.35-16.13,32.23-25.36c6.37-7.47,9.32-6.3,33.24-25.66
		c-3.66-0.21-0.1,0.58-30.61,20.91c-1.51,1.01-9.15,12.7-18.97,16.38c1.62-2.25,4-3.73,5.94-5.66c2.63-2.63,4.56-5.95,7.58-7.98
		c10.74-7.22,20.29-16.08,29.5-25.06c0.51-0.5,0.91-1.01,0-1.82c-2.02,0.5-3.34,2.12-4.75,3.23c-34.6-12.87-14.67-9.94-53.95-26.37
		c-0.5-0.31-1.41-0.5-0.71-1.62c9.31,3.73,10.47,4.22,12.43,3.53c3.49-1.23,3.41,0.5,20.41,1.21c-4.24-2.63-9.29-1.01-13.74-2.73
		c0.91-1.01,2.93,0.31,3.84-2.02c-4.44,0.6-8.49,1.52-12.43,3.03c-3.23-1.82-6.97-2.63-9.9-4.75c0.1-2.02,1.21-3.23,1.52-4.85
		c-3.03-1.92-5.96-4.24-9.5-5.15c-1.83-6.42,16.7,8.28,25.56,8.28c-0.52-0.63-32.2-16.31-36.98-16.67
		c-4.44-0.34-15.35-1.78-17.07-0.2c9.7,0.31,18.99,0.81,27.38,6.06c-2.22,2.83-1.52,6.77-4.15,9.5
		c-18.96-4.84-18.09-9.21-48.29-19.9c-15.67-5.55-30-13.84-44.96-20.81c2.12-3.84,2.12-3.84,0.2-5.66c-0.91-0.1-1.11,1.01-2.12,1.01
		c-2.43-4.65-8.18-2.53-11.72-5.46c5.14-14.77-4.25-14.63,13.64-15.05c15.69-0.37,33-3.54,48.59,4.85
		c13.16,7.07,18.36,7.57,19.9,8.49c10.05,5.96,33.75,17.35,46.17,20.71c20.02,5.43,7.63,5.59,27.18,12.63
		c18.59,6.7,38.14,18.9,56.07,24.15c1.72,0.5,2.91,1.71,2.53,3.44c-4.93,22.23-3.08,11.28-7.98,15.05c5.15,3.53,6.62,3.12,7.88-2.53
		c0.59-2.63,2.32-4.85,2.83-7.58c1.31,1.01,3.11,1.52,3.44,2.53c0.95,2.95,3.74,3.12,5.86,4.34c10.37,5.97,16.97,1.9,46.98-2.63
		c2.82-0.43,5.76-0.2,8.08-2.43c0.31-0.4,1.01-0.31,1.21-0.1c0.31,35.46,1.72,70.62-1.21,105.88c11.01-0.71,20.71,3.53,31.12,3.53
		c-0.1,2.63-0.48,4.86-1.41,6.87C829.03,471.67,832.04,473.99,829.62,476.01z M802.94,456.71c-1.12-3.66,3.32-19.28,1.21-93.86
		c-0.09-3.24-0.91-6.57,1.21-9.9c4.75-0.4,9.7-0.81,15.15-0.2c3.51-2.19,0.84-6.84,5.46-12.22c0.81-1.21,2.2,0.36,2.63,1.21
		c-2.08,8.31,1.06,11.1,0.1,28.09c-1.51,26.7,11.69,38.66,9.9,73.45c-1.11,0.5-2.63-0.4-3.23,0.91c1.72,6.06-2.53,10.71-2.83,16.06
		C822.13,460.14,812.74,456.61,802.94,456.71z M884.07,477.63c-14.27,1.84-8.71-3.55-22.33,0.2c-9.9,2.73-19.4,0.81-29-0.81
		c0.1-11.01,3.63-20.91,6.06-31.12c1.41,0,2.53,0.31,3.53,0.71c2.22,4.04,8.78,6.03,13.64,4.15c4.23-1.64,8.08-7.37,7.28-10.71
		c5.58,2.79,0.21,7.59,3.53,11.12c2.32-1.01,2.32-3.23,3.53-5.46c0.4,2.02-0.91,3.84,0.91,5.25c0.6,0.81,1.93-0.32,2.63,0.6
		c0.21,0.28,7.83,8.93,9.29,8.08c2.43-1.41,5.06,1.57,6.97,1.01c2.11-0.62,4.04,0.2,6.37,0.81
		C895.73,470.44,904.03,475.05,884.07,477.63z"/>
	<path d="M676.46,116.53c0.11,0.33,0.62,1.48,2.51,5.06C679.66,119.05,678.63,117.46,676.46,116.53z"/>
	<path d="M676.46,116.53C676.5,116.49,676.38,116.29,676.46,116.53L676.46,116.53z"/>
	<path d="M673.02,83.91l-0.1,0.1C673.03,84.01,673.07,84.1,673.02,83.91z"/>
	<path d="M456.71,457.72c-11.82,1.01-18.79-5.96-24.65-15.15c-2.93-0.5-5.69-1.99-7.98-4.34c-4.46-4.6-6.97,2.43-6.16-4.95
		c1.14-10.4-1.21-22.93,2.93-41.22c3.54-15.62,0.95-48.05-1.52-63.95c-0.22-1.43,1.04-13.47-1.76-10.68
		c-4.18-7.99-18.57-15.02-26.22-16.19c-6.24-0.95,4.04-3.41,5.76-13.74c-1.52-3.34-3.53-6.66-5.86-9.9
		c-3.44-0.91-6.47-2.83-9.6-4.75c-3.13,0.71-5.96,2.32-9.19,3.44c-1.31-2.12-2.73-4.15-4.44-5.66c0.2-0.81,0.5-1.21,1.21-1.21
		c1.21,0.31-0.31,1.41,0.6,1.92c1.62-0.5,2.63-1.62,2.22-3.23c-0.5-1.62,0.5-4.24-2.32-4.75c-1.31,1.21,0.71,2.02-0.1,3.53
		c-3.13,1.01-6.47,2.43-8.69,5.96c0,0.6,1.01,0.1,1.52,0.4c0.4,4.75-1.88,8.05-5.66,10.5c-3.85,2.51-2.49,4.32-6.77,6.26
		c-1.44-0.36,0.67-2.11-1.52-3.74c-2.02,1.11-2.32,4.55-5.46,4.44c1.72,0.31,3.23,1.72,5.05,0.71c0.86-0.86,0.6-0.77,0.6-0.1
		c-9.37,20.07-27.4,26.6-36.37,35.46c-5.83,5.76-16.65,9.89-19.7,13.13c-4.89,5.18-10.48-1.43-40.52-7.88
		c-9.42-2.02-18.4-14.18-26.97-17.47c-7.47,1.52-19.2-4.1-22.93-13.34c-1.04-2.57-3.96-8.65-6.57-7.58c0.5,2.12,0.91,4.24,1.52,6.87
		c-7.58-2.83-14.65-6.06-21.62-9.7c4.34,0.2,7.77-2.15,11.41-3.74c3.53-1.54,5.27-5.56,4.95-9.29
		c-1.26-14.69,14.3-17.99,11.12-26.27c-2.46-6.38-4.92-4.67-11.82-6.87c-5.9-1.89-11.82-3.03-17.99,0.1
		c-0.6-0.2-1.11-0.91-1.72-1.52c0.89-0.89,1.41,0.09,2.43-0.4c7.43-3.62,15.66-1.51,23.34-3.13c17.42-3.68,32.67,1.54,48.8,9.29
		c9.44,4.53,18.35,14.74,23.34,19.5c13.08,12.46,17.69,9.98,24.35,18.09c-2.93,0.31-5.66-3.74-8.89-0.5
		c1.31,1.31,3.03,1.21,3.84,2.32c-1.52,4.24-1.11,9.09-4.34,13.24c-11.31,2.04-43.27,13.83-1.01,3.03
		c38.85-9.93,42.15-18.77,58.49-27.78c-0.2-7.58-0.2-14.65-0.91-21.82c0.31-0.91,1.62-0.6,1.92-1.41c0.69-1.03-1.49-2.24,0.31-2.83
		c5.55-1.84,11.39-1.63,16.97-2.83c0.5-0.11,1.11,0.71,1.11,1.82c-3.63,1.41-8.18,0.71-11.52,3.44c4.95,1.11,9.6-1.41,15.15-0.4
		c-3.34,2.02-6.56,2.14-9.19,3.53c-2.52,1.33-6.06-0.5-7.78,3.23c17.03-1.82,18.03-6.53,20.11,0.1c-4.85,1.72-10.81,1.41-13.94,6.97
		c8.36-5.71,15.83-0.02,15.36-9.8c-0.71-1.01-1.62-1.62-2.73-2.43c0.31-2.73-1.41-4.34-3.74-5.05c-1.47-3.44-0.07-5.05-6.66-3.53
		c-8.58,1.98-13.8,0.73-16.47,5.35c-1.52,2.63-4.24,2.12-6.87,2.32c3.03-3.03,5.96-6.06,9.19-9.4c-4.55-3.13-7.18-7.68-10.5-11.52
		c0.5,5.35,4.65,7.78,8.28,10.91c-3.13,3.13-6.06,6.06-8.69,10.1c-3.74-4.85-7.28-8.99-7.68-15.15
		c10.77-10.42,9.63-10.13,12.53-10.41c3.13-0.3,6.16-0.71,9.5-2.02c1.92,4.34,5.96,6.66,9.5,10.21
		c-12.52,7.06-11.48,5.94-11.01,6.87c16.48-6.5,9.41-3.95,6.26,2.32c4.55-0.31,5.35-5.05,8.79-6.57c-0.81-3.23-3.63-5.57-5.35-8.38
		c-3.6-5.88-2.97-1.68-7.47-7.18c-5.86,2.53-12.73,1.82-17.99,6.06c-3.13,2.53-6.66,4.85-8.59,8.89c1.86,1.17,2.95,11.36,9.5,16.06
		c4.3,3.09,2.13,2.58,9.09,1.31c-0.15,9.18,2.86,19.57-1.21,21.22c-3.15,1.27-16.51,11.41-20.16,12.81
		c0.02-0.02,0.03-0.04,0.04-0.04l-0.04,0.04c-0.01,0-0.02,0.01-0.03,0.01c-0.87,1.02,0.37-0.39,0.18-1.2
		c-7.07-2.42-11.7-11.99-23.14-10.91c-1.21,0.11-2.43-0.6-3.94,0.1c1.82,1.62,3.83,2.25,5.86,2.53c10.47,1.45,14.95,9.16,20.46,9.97
		c-0.57,0.34-1.24,0.38-1.66,0.03c-2.73-2.02-6.16-1.52-8.99-3.13c0.4,3.44,4.44,2.43,5.76,4.95c-0.71,0.91-2.02,0.91-2.83,1.62
		c-3.44-2.83-3.94-9.3-10.61-7.78c3.94,1.82,6.57,4.85,9.19,8.49c-2.73,0.81-4.85,2.73-7.47,1.41c-0.71-1.31,0.91-1.41,0.5-2.73
		c-2.9-2.42-1.36-6.01-9.5-14.15c-0.18-0.18-11.05-4.44-17.68-11.41c-1.92-2.02-18.07-17.46-20.61-18.59
		c-14.99-5.62-29.15-17.45-53.24-13.24c-15.42,2.69-18.44-0.73-28.59,5.35c0.6-3.53-1.84-6.16-1.52-9.4
		c0.1-1.01-0.71-2.43-1.82-2.53c-2.63-0.22-3.85-2.51-5.86-3.34c-4.06-1.67-7.19-3.63-8.38-8.38c-0.58-2.31-3.24-3.49-7.58,0.31
		c-2.02-1.92-5.56-0.91-6.97-4.15c-1.31,0.6-2.43,1.11-3.34,1.62c-0.91,0.81,0.31,1.62-0.4,2.32c-3.95-3.95,1.57-9.67-1.62-10.81
		c-1.62,0.5-1.52,2.73-3.44,3.34c0.71-2.93-2.43-3.53-2.93-5.86c-3.94,1.52-1.92,6.06-4.75,8.38c0.2-2.73,1.01-5.05,1.72-7.37
		c-1.01-0.5-2.22,0-3.03-0.71c-5.04,4.58-2.8,1.24-4.95,1.82c-1.62,1.11-1.41,3.63-2.63,5.35c-1.52-0.6-0.31-3.03-2.63-3.44
		c-0.91,3.63-1.82,7.28-1.62,11.21c-2.02,0.1-2.83-2.73-5.15-2.02c-1.01,1.52-0.4,3.63-1.41,4.85c-0.4,1.52,1.31,2.12,0.5,3.74
		c-2.12,0.91-2.12,3.44-2.83,5.56c-1.21,0.2-2.43-1.82-3.74,0.2c0.2,2.22,2.53,3.84,2.93,6.16c-0.91,1.21-2.53,0-3.44,1.41
		c1.11,1.31,1.72,2.83,1.52,4.65c-1.41,0.5-3.34-1.41-4.34,0.5c-0.6,1.41,0.71,2.12,0.5,3.23c0,1.11-1.82,0.71-1.82,1.52
		c-0.1,1.52,0.91,1.92,1.21,2.73c-0.1,0.91-1.62,0.81-1.11,2.73c0.81,1.31,2.22,3.03,4.85,3.34c-0.4,1.21-2.02-0.31-2.32,1.21
		c0.2,1.11,1.52-0.4,1.82,1.01c-0.81,0.91-2.83,0.71-3.23,2.73c0.6,0.71,1.41,1.52,1.92,2.12c2.24,1.04,5.41-1.42,2.93,4.04
		c-6.37,0.5-12.83-0.31-19.3,2.02c-2.48,2.92-0.21,10.11-4.34,7.68c-2.47-1.45-5.17-2.61-7.28-4.75
		c-7.67-7.79-12.41-3.79-26.67-17.88c-1.83-1.81-1.7-4.34-1.21-6.66c0.84-4.03-1.41-7.18-2.93-10.61c-0.1-0.31-1.01-0.31-1.52-0.4
		c-0.46,1.24-1.2,2.55,0.6,5.66c2.63,4.54-0.63,11.1,2.53,14.15c13.33,12.88,18.92,10.66,24.35,15.36c4.22,3.66,8.49,7.18,13.13,10
		c0.1,1.41-0.91,2.32-0.6,3.63c2.56,5.41,7.58,1.57,13.84,7.58c0.13,1.78-3.89,4.55,1.01,4.55c7.12,0,5.89,4.01,9.9,5.76
		c4.28,1.85,8.89,3.34,12.83,6.16c-12.83,1.72-25.66-0.2-38.39,0.5c-1.86-5.34-7.96-6.7-9.8-10.31c-1.52-2.98-2.64-3.41-14.04-14.65
		c-22.3-21.98-18.67-24.02-23.64-24.35c-5.86-0.38-9.9-4.34-14.55-7.18c0.31-2.63,0.5-4.85-0.2-7.18c-1.18-3.13,4.05-2.66,2.02-7.47
		c6.23-8.85,8.05-4.54,11.12-2.63c5.2,3.24,11.09,3.04,9.6-1.41c23.05-6.1-0.47-1.98-3.94-0.2c1.92-5.25,2.63-10,3.13-14.75
		c-2.43,4.65-2.53,10-4.24,15.15c-15.75-13.19-13.33-1.24-7.37-22.93c3.94,3.03,7.98,5.35,12.73,6.06
		c-3.23-3.03-7.58-4.44-10.81-7.47c10.04-6.02,17.58,0.5,17.58-2.53c-2.43-0.81-5.05-2.61-7.28-2.22
		c-9.95,1.74-16.02,0.09-18.59,21.72c1.21,2.02,3.34,2.53,4.95,4.04c-0.1,0.02-8.56-1.31-5.76,3.53c-4.91,1.4-2.77,5.4-3.13,5.76
		c-3.52,3.45-1.26,7.47-1.31,11.31c-0.04,2.78-3.44,1.16-5.25,3.23c-0.12,5.92-3.53,11.09-3.53,18.79
		c1.42-1.07,1.44-1.79,4.44-14.55c2.73,3.03,5.86,4.44,9.3,5.35c-3.03-2.53-6.66-4.24-8.59-8.08c1.92-0.4,3.53-0.71,4.95-1.01
		c14.4,9.6,16.08,4.6,17.68,11.01c-1.72,4.75-2.02,9.9-4.55,14.34c-17.09,1.56-9.5,2.85-23.22-7.05c-5.17,0.7,7.04,8.8,9.88,10.18
		c1.74,0.85,9.83-0.15,13.84-0.6c6.38-6.22,4.06-18.64,7.18-13.34c4.68,7.97,22.76,21.61,30.81,32.03c0.92,1.18,5.81,3.69,7.98,7.37
		c2.85,4.85,8.36,3.22,18.18,2.93c17.3-0.51,18.02,2.35,27.68-1.41c13.87,8.07,8.51,2.64,56.17,24.45c7.88,3.6,10.94,1.68,9.7,5.25
		c-14.69,42.2-9.95,29.21-26.57,68.8c-3.95,9.42-5.83,19.86-8.18,24.96c-1.82,3.94-4.18,7.57-5.35,11.82
		c-1.18,4.25-4.44,4.63-3.13,8.38c2.53-1.52,3.82-3.64,4.55-5.76c3.25-9.42,8.64-18.08,10.61-27.99c0.36-1.81,0.45-2.57,0.44-2.86
		c0.57-0.44,4.81-7.85,30.27-76.15c6.02-16.16,1.81-11.69,11.52-7.58c-4.74,15.33-17.88,43.2-18.28,43.95
		c-5.26,9.81-2.19,12.91-13.24,40.41c-7.93,19.75-2.82,9.96-9.5,26.27c0.71,2.02,4.15,2.93,3.03,5.35
		c-1.41,3.04-1.41,7.28-6.06,8.59c-3.03-1.21-5.66,1.52-8.79,2.32c-2.02-1.41-1.21-4.65-3.63-5.96c-0.81,0.91,0.6,1.62,0.2,2.53
		c-15.24,14.33-31.51,27.47-49.09,39.89c-16.94-4.89-31.42-1.82-32.84-3.23c-6.07-6.05-18.79,5.76-7.28,16.77
		c7.68-1.01,14.96,1.7,22.22,3.23c26.52,5.58,59.18,8.29,64.66,11.12c1.81,0.93,3.44,0.71,4.65-2.02c-2.63,1.21-3.63-1.26-5.56-1.31
		c-2.2-0.06-3.82-9.26-1.11-12.53c1.01-1.22,5.44-2.18,7.07-1.41c3.6,1.7,6.3,7.18,5.25,11.01c-0.93,3.4-4.73,3.37-4.15,5.56
		c11.68-3.18,6.71-17.68-0.81-19.09c-2.22-0.42-4.55-0.48-6.87-0.6c-4.75-0.25-9.4-1.52-14.25-2.73
		c7.75-10.34,15.96-16.23,18.69-19.3c5.13-5.76-0.64,6.1,49.51-36.98c0.11-0.09,82.03-68.26,82.14-68.3
		c3.33-1.21,7.27-0.62,10.81-1.21c1.82-0.31,3.63-0.91,5.96-0.71c1.76,31.14-0.74,52.96-1.11,54.05c-0.51,1.51-1.92,2.83-1.41,4.55
		c-0.91,0.31-1.52,0.61-2.22,0.71c-5.73,0.84,0.68,5.08-4.65,13.03c-1.71,2.55-1.11,15.36-1.11,18.39
		c9.7,2.02,18.99,1.52,28.49-1.41c0.6,0.6,1.31,1.41,1.82,2.02c9.08,1.54,59.62,6.67,68.8,6.87c9.21,0.21,23.84,7.66,37.08,4.44
		c0.1-0.02,13.18-3.06,14.04-2.73c9.42,3.68,17.87-1.06,24.25-0.1c1.01-2.93,5.05-4.34,4.75-7.68
		C457.93,466.21,459.54,461.76,456.71,457.72z M348,226.47c0.31,1.11,1.82,1.72,1.41,3.23C347.7,227.78,347.7,227.78,348,226.47z
		 M289.11,300.42c-7.43,1.86-1.67,1.69-0.1-9.29C290.42,294.25,289.91,297.39,289.11,300.42z M290.52,300.01
		c0.5-3.63,1.11-6.87,0.71-10.31c1.01,0.2,1.72,0.31,2.43,0.5C295.59,299.93,292.82,299.3,290.52,300.01z M95.63,256.97
		c-0.6,0-0.81-0.31-0.81-0.91C95.63,256.06,95.93,256.27,95.63,256.97z M419.53,442.17c-5.86,6.77-9.19,7.68-16.57,4.15
		c7.58-1.12,4.39,1.04,13.03-4.95C417.31,440.45,418.42,440.75,419.53,442.17z M412.46,315.38c1.91,2.28,4.03,2.35,4.53,2.28
		c-1.91,15.44,4.6,31.13,2.14,66.11c-0.21,3.03-2.02,5.56-2.12,8.6c-0.33,10.21-2.87,20.2-1.52,30.51c0.74,5.66-1.31,11.41,0,17.28
		c-1.21,0.5-2.12,1.41-3.53,1.01c-1.31-1.62-0.91-4.15-2.93-5.86c0.1,2.53,0.31,4.75,0.4,6.87c-3.44,2.32-7.07,0.2-10.41,1.01
		c-0.02-0.11-1.49-34.42-4.55-40.71c-12.15-25-0.16-46.73-6.16-62.84c3.63,0.91,6.87,1.11,9.9-1.72c-2.63-1.72-4.65,0.6-6.97,0
		c-0.81-2.12-3.34-1.82-5.25-3.03c2.66-10.31,4.34-21.78,1.82-32.03C395.99,305.15,406.99,308.86,412.46,315.38z M390.74,459.74
		c-10.21,0-19.6-3.53-29.61-3.53c-0.02-0.1,2.3-66.96,1.21-94.26c-0.12-3.13-0.5-6.37,1.21-9.5c4.95-0.4,9.9-0.81,15.36-0.2
		c3.53-3.23,1.31-9.8,6.16-12.73c0.81,0.5,1.62,1.11,1.92,2.32c-2.16,2.98,0.77,11.64,0.2,23.94c-1.82,39.13,11.57,37.32,9.5,77.08
		c-1.11,0.5-2.43-0.4-3.23,0.91C394.99,449.84,390.94,454.49,390.74,459.74z M361.34,285.87c-2.22,1.72-3.23,4.55-5.05,6.87
		c-1.92,0-3.74,0-6.37,0C357.32,286.9,361.78,282.35,361.34,285.87z M298.4,339.32c-0.35,3.34-3.15,5.72-1.11,7.18
		c3.03,2.17,5.87-5.55,6.06-10.71c9.3-4.24,16.77-11.21,24.45-18.39c-0.91,4.24-4.95,6.37-5.46,10.41
		c4.09,1.23,8.34-11.81,14.65-17.68c3.92-3.65,7.47-7.58,10.5-12.73c4.44,9.4,5.15,17.99-0.5,26.47c7.47-8.69,7.18-17.99,1.72-27.89
		c3.34,0.2,6.26-1.01,9.4,0c2.63,3.74,5.25,7.47,9.3,10c-3.13-4.04-5.46-8.59-8.59-12.53c1.72-3.94,4.65-6.87,6.66-10.61
		c-1.21,0.1-1.31,1.21-2.43,1.21c-3.03-4.55,2.12-7.98,1.01-12.73c2.63,2.32,4.55,3.94,6.47,5.56c-0.91,1.52-3.23,1.62-3.34,4.34
		c4.55-2.32,8.69-4.34,13.03-6.57c3.74,3.03,4.65,8.59,9.19,11.01c-1.52-2.63-3.74-4.85-4.85-7.98c6.06,0.4,6.57,6.57,10.61,8.99
		c-1.41,2.02-0.91,4.34-2.22,5.86c-4.45,5.15-9.09,10.21-13.54,15.25c-3.53-1.11-6.47,1.11-9.7,1.31c2.02,1.41,4.04,1.01,6.26,0.71
		c-3.44,15.25-16.25,21.14-20.81,30.51c8.79-9.4,19.19-17.68,22.22-31.32c3.53,0.1,5.25-2.73,7.68-4.44
		c2.53,9.4,0.03,18.19-1.21,27.08c-0.54,3.85-3.97-1.69-6.57,17.78c-21.89,0-8.54,0.65-6.06-5.86c-0.99-0.25-0.53,0.02-1.11,0.31
		c-10.95,9.38-11.54,4.56-13.94,6.97c-5.34,4.61-11.52,1.14-35.16,6.26c-13.08,2.83-18.89-4.41-26.67-8.38
		C295.45,339.97,289.4,343.58,298.4,339.32z M138.06,218.58c6.15-1.28,6.95,4.78,10.21,7.18c2.53-3.34-2.32-3.94-1.82-6.47
		c1.11,0,2.12-1.11,3.74-1.52c3.76,3.76,1.98,5.69,4.24,7.07c11.18,6.79,12.07,6.79,12.02,9.5c-0.05,3.03,0.96,5.95-0.1,8.99
		c-0.63,1.81,1.21,2.93,1.41,4.34c1.52,0,1.21-1.82,2.53-1.72c2.12,2.02,3.43,5.18,6.26,6.26c2.72,1.04,5.76,1.21,8.49,2.43
		c-4.23-5.44-10.3-2.18-10.81-7.78c5.35-2.93,22.12-0.5,26.17,3.84c1.37,9.83-12.17,11.15-11.62,26.47
		c0.08,2.32,0.22,5.18-2.32,6.57c-3,1.63-10.18,5.45-13.44,4.34c-18.47-6.28-15.22-4.24-16.16-8.49c1.11-0.5,1.41,1.11,2.22,0.71
		c3.74-0.91,3.23-4.55,4.44-7.07c-3.78-3.78-0.41-2.34-1.62-4.85c-0.69-1.43-3.13-1.92-3.84-4.04c0.81-1.01,1.52-2.12,2.32-3.23
		c6.93-0.74,6.8-5.72,4.24-5.15c-0.81,0.5,0.31,1.41-0.6,2.32c-2.32,0.81-4.95,1.41-8.18,0.6c1.82-0.5,1.62-1.62,1.41-2.73
		c2.83-0.31,2.83-0.31,3.34-2.93c-2.12-1.52-4.55-2.22-7.18-1.31c-0.4-0.81-0.4-1.41,0.2-1.92c3.9-1.05,9.45,4.12,6.37-0.5
		c2.37,0,3.62-1.57,2.53-2.12c-0.86-0.86-4.5,0.92-8.79-6.37c-3.17-5.4-11.99-14.11-13.64-14.65
		C136.8,225.28,134.27,221.24,138.06,218.58z M157.86,271.52c-0.71-0.5-1.41-1.01-2.32-1.62
		C157.18,263.88,155.89,269.39,157.86,271.52z M155.14,253.44c0.62-0.82,2.22,0.53,0.5,1.82
		C154.63,254.75,154.43,254.15,155.14,253.44z M159.99,274.86c0.6,0.2,0.81,0.71,0.5,0.81
		C159.89,275.97,159.89,275.46,159.99,274.86z M153.83,274.55c-1.11-0.5-2.63-0.31-3.03-2.02
		C152,272.94,153.21,273.34,153.83,274.55z M137.76,227.98c1.01,0.91,2.02,1.82,3.13,2.93
		C137.96,231.72,138.67,228.99,137.76,227.98z M139.47,246.97c-1.52-1.62-0.6-1.72,0.81-1.92
		C140.49,246.16,140.08,246.57,139.47,246.97z M137.66,253.64c-0.5,0.31-1.01,0.91-1.52,0
		C136.65,253.13,137.15,252.93,137.66,253.64z M137.56,261.02c-0.4-0.31-1.21,0.1-1.01-0.81
		C137.05,260.21,137.66,259.9,137.56,261.02z M138.06,263.34c-0.4,0.79,1.18,1.05-4.75-0.2
		C135.64,261.22,136.75,262.93,138.06,263.34z M132.1,218.28c0.91,2.32,0.91,2.32-1.21,5.46C131.29,221.61,131.4,220,132.1,218.28z
		 M132.1,268.39c-0.6,0.2-1.21,0.31-1.82-0.6C131.29,267.18,131.8,267.28,132.1,268.39z M129.58,214.24c0.31,0.5,0.4,1.01-0.2,1.31
		C129.17,215.14,129.07,214.64,129.58,214.24z M126.24,224.95c-0.2,0.4-0.4,0.81-0.71,1.21
		C125.23,225.35,125.03,224.85,126.24,224.95z M123.01,215.04c0.1,1.41,0.4,2.83-0.91,4.15
		C121.39,217.47,120.38,215.95,123.01,215.04z M121.59,229.39c0.1,1.52-1.41,3.34,0.5,4.44c1.11,0.5,1.72-0.6,2.73-0.6
		c0.31,1.01,0.71,2.12,1.72,2.93c-1.72,0.71-2.83,1.52-3.74,2.63c-2.43-1.82-0.81-5.05-2.83-6.77
		C120.38,230.91,120.59,230,121.59,229.39z M120.59,259.9c-1.62,3.74-4.34,2.73-6.87,2.02C115.84,261.32,118.06,260.61,120.59,259.9
		z M111.59,260c0.91-0.71,1.52-0.5,2.22,0.4C113,260.31,112.4,260.71,111.59,260z M114.72,252.32c2.63,0.1,4.95,1.01,7.28,2.12
		C119.47,254.04,116.84,253.94,114.72,252.32z M113.91,234.14c0.71-0.1,1.01,0.1,1.01,0.81
		C114.62,234.65,114.32,234.44,113.91,234.14z M119.97,221.01c0.81,1.01,0.6,1.82-0.1,3.34
		C119.47,222.92,119.37,222.01,119.97,221.01z M116.75,240.71c1.21,0.71,2.53,1.41,4.55,2.63
		C118.48,244.51,114.38,242.18,116.75,240.71z M116.13,231.21c-0.6-0.5-1.52-0.4-1.21-1.82C115.43,230,116.54,229.7,116.13,231.21z
		 M111.9,213.33c0.6,1.52-1.01,3.44,1.41,4.55c0.6,0.2,1.21-1.01,2.63-1.01c-0.81,0.91-0.2,2.51-2.12,2.02
		c-1.61-0.41-1.52,1.21-2.22,2.22C110.48,217.17,110.48,216.36,111.9,213.33z M108.87,235.15c-1.01,0.31-1.62-0.2-1.92-1.21
		C108.26,233.23,108.46,234.34,108.87,235.15z M104.62,269.1c-0.5,0.31-1.01,0.81-1.62,0C103.61,268.59,104.12,268.59,104.62,269.1z
		 M101.49,237.88c-1.11-0.31-1.11-1.11-1.62-2.22C101.09,236.26,102,236.47,101.49,237.88z M98.66,241.41
		c0.6-0.4,1.41-0.91,2.22-1.41c1.72,2.32-1.21,2.63-1.31,4.04C99.57,244.91,98.22,243.05,98.66,241.41z M161.6,436.51
		c3.42-9.6,6.97-19.23,10.5-28.8c3.11-8.42,3.02-15.94,7.28-24.45c24.15-48.35,4.96-37.43,34.25-27.89
		c6.77,2.21,13.35,7.85,14.85,8.79c6.15,3.86,13.24,5.66,20.11,8.69c-7.18,6.57-14.63,12.61-22.43,17.99
		c-6.1,4.21-1.33,3.03-12.02,11.92c-13.39,11.14-23.4,14.11-34.65,25.36c-0.73,0.73-13.25,12.32-20.41,17.99
		C160.6,443.07,160.49,439.64,161.6,436.51z M212.88,407.82c0.15,0-0.47,1.24-1.97,1.4C211.32,408.4,211.95,407.83,212.88,407.82z
		 M117.85,510.36c4.15,2.02,8.89,1.82,13.24,2.93c0.89,11.61,9.84,12.54-8.89,9.5c-20.67-4.66-8.45,0.57-45.77-7.07
		c-7.79-1.59-15.36-3.84-23.34-4.04c-6.17-0.16-5.81-11.9,3.34-12.53c7.08-0.48,14.34-0.98,21.32,0.31
		c9.37,1.73,37.62,5.33,39.5,7.78C122.88,506.06,148.94,512.79,117.85,510.36z M305.57,466.01c-8.08,1.31-16.06,2.63-24.15,0.71
		c-2.7-16.57,4.47-17.83,2.93-26.87c2.53,0.1,4.85,1.62,6.66,0.4c2.83,0.5,4.24,3.03,7.07,2.53c-1.82-3.63-5.35-4.65-9.09-5.96
		c18.92,0.96,15.9-6.21,17.99-1.01c-1.01,3.63-4.55,4.15-7.37,6.37c4.24,1.41,6.47-1.31,8.79-3.03c2.93,3.23,3.03,3.23,6.57,2.63
		c1.82,1.31,3.63,2.63,6.06,1.11c-4.15-4.55-9.6-7.68-13.44-13.03c1.24-3.22-1.58-5.6-0.81-10.91c2.55-17.58,0.66-17.09,2.63-19.8
		c5.42-7.48,8.85-24.54,9.4-26.87c7.88-1.62,15.76-2.73,24.15-3.74c0,48.08,1.56,39.67,1.11,48.29c-0.52,10.1-1.87,20.11-1.52,30.31
		c0.07,2.02,0.4,4.44-1.01,6.66c-2.63-0.2-5.25,0.4-7.88-0.5c2.12-4.65,1.41-7.98-2.12-9.7c-0.2,1.62,0.91,3.13,0.31,4.44
		c-2.02,5.76-6.37,5.57-11.21,4.85c-11.29-1.68-9.59,0.13-12.22,2.12C300.02,461.35,306.76,464.21,305.57,466.01z M291.62,377.5
		c8.08-1.52,16.27-3.03,24.65-4.55c-0.5,2.43-0.61,4.34-1.31,6.06c-19.78,48.38-10.52,28.48-8.49,26.77
		c-2.53,8.38-1.41,16.77-0.71,25.16c-4.85,2.32-9.8,4.04-15.46,2.93C293.43,416.26,291.32,379.69,291.62,377.5z M309.41,438.12
		c0.2-0.71,0.4-1.21,1.01-1.41C313.94,438.46,310.55,439.43,309.41,438.12z M386.09,475.19c-3.13-0.31-6.06-1.61-9.19-1.52
		c-8.08,0.22-16.16-0.91-24.25-1.82c-42.97-4.83-43.77-1.73-45.77-7.37c-1.67-4.72,1.73-6.26,6.47-10.1
		c9.8,0.91,19.6,1.72,29.3,1.31c2.32-3.34,1.72-6.77,1.82-10c0.87-30.31,2.25-26.7,1.31-34.35c-1.75-14.24-0.5-28.49-1.41-42.94
		c8.86-0.81,6.72-5.35,6.16,11.31c-0.55,16.47,1.45,51.4,0,59.1c-2.13,11.31,1.27,31.34,1.92-15.96c0.14-10.01-1.04-40.84-0.2-42.03
		c2.92-4.09-1.31-10.93,1.62-14.55c-2.3-4.89-70.61,12.12-82.14,11.92c-33.77,27.18-114.03,94.35-119.12,96.08
		c-11.59,3.94-32.21,28.58-33.95,30c-7.98-0.1-15.15-3.44-22.93-4.04c30.36-20.76,47.62-42,45.97-33.74
		c-12.47,9.36-11.71,10.86-16.87,14.55c-18.45,13.17-19.27,13.76-19.39,16.35c11.09-9.38,20.24-14.32,27.78-22.74
		c11.52-12.87,24.35-5.89,26.67-20.11c0.66-4.05,12.36-10.96,21.42-17.58c11.83-8.64-4.83,1.41-15.46,9.6
		c-5.83,4.49-7.02,4.08-4.24,1.31c25.52-21.79,23.32-22.8,44.45-35.36c-2.93,3.03-6.37,5.35-8.89,8.79
		c0.1-0.07,25.77-19.39,25.96-19.19c5.7-3.07,1.64-4.46,20.61-17.28c17.23-11.65,27.14-21.86,9.41-8
		c-4.55,3.56-10.04,7.33-14.76,10.44c-13.55,8.92-4.34,3.09-10.99,9.81c-8.25,8.34-14.37,10.59-14.47,10.66
		c-1.63-0.19,3.76-4.15,5.63-6.02c2.63-2.63,4.56-5.95,7.58-7.98c10.74-7.22,20.29-16.08,29.5-25.06c0.51-0.5,0.91-1.01,0.1-1.72
		c-2.12,0.4-3.44,2.22-4.85,3.23c-14.44-5.37-17.41-6.01-23.14-10.5c-5.18-4.07-30.71-15.82-30.81-15.86
		c-0.5-0.31-1.41-0.5-0.71-1.62c18.31,7.33,8.01,1.37,18.49,3.53c4.76,0.98,9.6,1.01,14.44,1.21c-4.24-2.73-9.29-1.11-13.74-2.83
		c1.01-0.91,3.03,0.31,3.94-2.12c-4.44,0.81-8.38,1.62-12.43,3.13c-3.03-1.62-6.77-2.73-9.9-4.75c-0.2-1.92,1.11-3.23,1.41-4.95
		c-3.13-1.82-5.96-4.15-9.7-5.05c0-5.87,11.91,6.02,25.56,8.69c-0.38-1.09-31.94-16.64-36.98-16.97c-6.04-0.4-15.02-1.78-17.38-0.2
		c10,0.31,19.4,0.81,27.68,6.06c-2.22,2.73-1.41,6.77-4.15,9.4c-16.12-3.72-14.57-7.18-52.33-21.52c-24.37-9.25-14.44-7-40.71-19.1
		c0.2-1.92,2.83-3.74,0.6-5.66c-1.41-0.6-1.72,0.91-2.63,0.81c-4.09-5.26-8.9-2.07-11.72-5.56c4.4-14.56-3.09-14.33,12.53-14.85
		c5.46-0.18,10.9,0.67,16.27-0.71c5.12-1.32,23.24,0.23,33.34,5.66c13.16,7.07,18.36,7.58,19.9,8.49
		c31.28,18.4,34.43,13.25,44.76,24.75c9.42,10.49,16.32,6.09,22.83,8.38c1.93,0.68,2.03,2.82,3.53,3.84
		c2.34,1.59,4.64,3.13,6.77,4.95c14.45,12.31,28.64,11.06,32.84,12.33c17.02,5.13,17.96,6.5,20.71,4.24
		c0.81,2.93-1.31,13.24-3.23,16.77c-1.31,0.31-2.83-0.4-4.15,0.71c5.15,3.53,6.62,3.12,7.88-2.53c0.59-2.63,2.32-4.75,2.83-7.58
		c1.31,1.01,3.12,1.52,3.44,2.53c0.97,3.05,3.73,3.14,5.86,4.34c9.64,5.44,19.38,2.54,36.17-1.01c6.67-1.41,13.84-0.6,20-4.24
		c0.31-0.31,2.23,68.07-0.91,105.78c11.01-0.6,20.71,3.63,31.42,3.63C385.71,477.81,391.05,475.19,386.09,475.19z M222.42,401.72
		c0.05-0.05,0.12-0.1,0.21-0.17c0.66-0.46,1.15-1.02,0.22-0.03C222.69,401.56,222.53,401.64,222.42,401.72z M441.96,477.32
		c-14.61,1.66-9.77-3.6-21.32-0.2c-10.02,2.96-19.8,1.21-29.9-0.5c0.71-9.8,3.84-25.06,6.16-31.12c1.21-0.2,2.22,0.31,3.23,0.6
		c2.22,4.04,8.91,6.1,13.74,4.15c4.15-1.68,8.08-7.37,7.28-10.71c5.53,2.76,0.24,7.62,3.53,11.12c2.43-1.01,2.22-3.53,3.53-5.25
		c0.6,1.82-0.81,3.63,0.91,5.25c0.5,0.71,1.81-0.5,2.53,0.5c0.21,0.29,7.83,8.93,9.29,8.08c2.4-1.39,5,1.67,6.97,1.11
		c2.21-0.63,4.15,0.2,6.37,0.81C453.76,470.41,461.66,475.09,441.96,477.32z"/>
	<path d="M275.16,302.74c0.76-3.24-11.66-8.29-12.93-12.63c-2.13-7.25-3.24-3.31-7.78-15.46c-2.09-5.59-5.41-8.37-10.21-12.73
		c-1.92-0.35-0.65,2.09-2.73,0.71c-7.73-6.1-13.73-2.88-24.75-4.65c-19.96-3.2-28.03,34-23.34,36.17c2.07-1.38-1.35-3.1,5.35-21.42
		c1.47-4.01,7.7-13.29,12.33-12.73c26.02,3.17,26.56-2.72,41.62,14.85c-0.91,1.82-1.21,3.63,1.11,4.85c0.5,0.31,1.11,1.21,1.01,1.62
		c-0.71,2.02,1.21,2.93,1.72,4.55c0.2-0.31,0.5-0.6,0.81-1.11c7.29,10.93-8.03-2.71-18.79-5.66c1.01-1.92,1.93-3.52,3.44-4.65
		c2.06-1.54,4.44-7.17,0.71-8.49c-3.74,1.52-2.02,5.05-2.93,7.98c-2.02,1.11-2.93,3.53-4.44,5.46c0,0.81,0.51,1.2,1.21,1.41
		c5.59,1.71,10.1,5.47,15.46,7.68C265.15,293.91,271.03,303.2,275.16,302.74z"/>
	<path d="M676.56,76.54c3.44-1.62,7.28-2.22,10.81-4.24c-0.1,2.73-2.32,4.75-1.82,7.88c2.12-1.92,2.32-4.55,3.34-6.37
		c8.38,2.22,9.19,10,12.33,16.16c-0.41-8.89-5.06-14.84-12.54-18.99c-2.16,0.21-12.76,3.4-13.03,3.94c-1.41,3.29-3.88,7.1-2.93,8.99
		C674.74,81.79,675.65,79.16,676.56,76.54z"/>
	<path d="M676.96,252.12c-0.2,2.32,0.63,4.23,1.62,5.76c2.68,4.13,0.31,4.89,3.94,11.82c1.73,3.82,5.41,2.25,4.34-2.22
		c-1.58-6.64-6.02-6.9-6.66-11.52C679.99,254.45,679.38,252.53,676.96,252.12z"/>
	<path d="M694.74,198.88c1.67,4.19,5.92-1.03-1.62-7.88c0.91-4.34-0.91-7.88-3.53-11.21c0.1,3.34,1.62,6.37,1.82,9.8
		c-3.53-0.62-4.43-5.8-6.97-6.16C684.43,189.24,690.93,189.31,694.74,198.88z"/>
	<path d="M692.62,256.47c5.92-0.56,0.22-9.93,1.31-13.13c0.73-2.13-3.79-4.73-2.93-9.29c0.4-1.31,0.2-2.63-1.72-3.94
		c0.2,5.76,0,10.81,2.83,15.66C691,249.19,691.5,252.73,692.62,256.47z"/>
	<path d="M282.43,329.71c4.67-3.06,9.49-8.43-6.77-0.31c-0.71-3.74,3.23-5.66,3.44-9.09c-4.04,2.83-7.68,8.99-6.97,11.72
		C275.46,331.13,279.24,331.8,282.43,329.71z"/>
	<path d="M231.72,279.3c-1.76-7.05-3.33-6.97-5.25-6.87c-1.21,4.55,3.63,6.26,4.75,10.31c-1.21,3.23,3.13,5.76,1.41,9.4
		C239.46,287.71,233.28,285.53,231.72,279.3z"/>
	<path d="M702.82,187.26c-3.15-2.2-3.13-5.05-3.84-8.18c-1.1-4.85-3.44-9.29-4.24-14.25c-0.71,1.41-0.43,2.84,0.1,4.04
		c1.44,3.27,1.38,6.89,2.73,10.21c0.49,1.21,0.82,2.53,0.4,3.94c-1.11,3.78,5.53,4.06,3.63,11.62
		C704.94,192.52,705.43,189.1,702.82,187.26z"/>
	<path d="M690.19,178.27c0.5-7.58-4.04-27.28-7.28-30.11C690.45,173.77,686.91,178.27,690.19,178.27z"/>
	<path d="M255.97,270.41c-3.22,1.61,0.61-0.51,13.94,25.25C267.38,285.97,262.03,277.99,255.97,270.41z"/>
	<path d="M696.05,99.06c-7.85-4.91-7.64-18.86-11.92-18.28c0.29,4.47,5.75,13.92,7.28,16.97C692.92,98.16,694.53,98.66,696.05,99.06
		z"/>
	<path d="M42.69,233.34c6.86-8.63,4.03-23.26,3.03-16.27C44.65,224.56,40.67,231.72,42.69,233.34z"/>
	<path d="M312.14,320.22c1.21,0.6,1.92-0.4,2.32-0.91c3.35-5.31,13.6-7.23,11.01-11.62C320.73,311.73,314.46,313.76,312.14,320.22z"
		/>
	<path d="M334.87,299.81c-4.44,0.6-5.05,5.86-9.4,6.47C327.69,311.38,333.96,305.3,334.87,299.81z"/>
	<path d="M199.39,278.69c-5.41,1.54,0.82,7.24,10.61,9.09C205.35,285.97,202.52,282.03,199.39,278.69z"/>
	<path d="M660.39,85.22c1.82,0.4,1.82,2.32,3.03,3.13c1.21,0.1,1.01-1.31,2.12-1.72c0.71,0.5,2.63,0.31,1.92,2.43
		c-0.78,0.02-1.54-0.76-2.32,0.31c0.4,0.91,1.21,1.01,2.02,1.11c0.68-0.38,0.43-0.87,0.4-1.35c3.18,1.98,2.92-3.37-2.12-4.4
		c-6.34-1.31-6.37-1.21-8.28,0.91C658.47,86.54,659.38,84.82,660.39,85.22z"/>
	<path d="M289.3,322.74c2.73,0.71,12.63-5.46,15.15-9.19C299.31,316.38,294.46,319.71,289.3,322.74z"/>
	<path d="M304.56,325.57c-4.85,2.02-9.7,4.15-14.65,6.26C293.04,333.55,300.11,330.32,304.56,325.57z"/>
	<path d="M684.94,287.79c-1.72,2.83-2.83,5.86-4.15,8.79C684.23,296.08,686.75,290.92,684.94,287.79z"/>
	<path d="M650.19,91.19c-0.1-1.52,0.71-2.73,1.72-3.63c1.92-0.91,2.83,0.71,4.15,1.82c0.5-2.02,0.31-3.25-1.82-3.53
		c-3.23-0.43-4.65,0.81-5.46,4.95C649.17,91.38,649.68,91.09,650.19,91.19z"/>
	<path d="M679.59,239.4c1.31-3.94,1.52-8.28,3.34-12.12C680.69,228.99,679.08,234.75,679.59,239.4z"/>
	<path d="M249.09,306.08c1.82,1.82,3.94,3.34,7.47,2.32C254.15,305.87,251.62,306.08,249.09,306.08z"/>
	<path d="M673.62,287.59c1.92-2.63,3.13-5.46,2.22-9.09C672.08,288.41,672.37,287.27,673.62,287.59z"/>
	<path d="M634.63,110.38c-0.56-2.16-3.73-11.37-5.46-10.5C634.5,111.87,633.69,110.84,634.63,110.38z"/>
	<path d="M619.17,102.29c3.13,0.1,6.06-0.6,8.49-2.63C624.73,100.07,621.79,100.68,619.17,102.29z"/>
	<path d="M650.29,91.09c-1.07,3.21,0.1,1.52,5.86-0.4C652.81,89.57,652.81,89.57,650.29,91.09z"/>
	<path d="M283.95,312.95c-2.12,1.41-3.13,3.63-5.05,5.76C281.62,317.89,283.55,315.77,283.95,312.95z"/>
	<path d="M642.91,113.1c-2.32-0.6-4.65-1.41-7.37-1.01C638.06,114.62,639.98,114.72,642.91,113.1z"/>
	<path d="M44.2,216.36c-2.63,0.31-5.15,1.01-7.07,3.13C39.96,219.39,42.18,217.98,44.2,216.36z"/>
	<path d="M674.23,246.26c0.71,1.52,1.11,3.03,2.53,4.15C677.87,247.38,677.36,246.37,674.23,246.26z"/>
	<path d="M669.59,105.43c0.31-2.73-2.02-4.44-2.73-6.77C666.25,101.49,667.97,103.51,669.59,105.43z"/>
	<path d="M231.82,298.4c4.44-4.23-1-7.82,0-2.83C231.92,296.37,231.21,297.18,231.82,298.4z"/>
	<path d="M633.21,113.1c-2.73-0.31-4.75,0.6-6.47,2.53C627.15,116.44,626.05,117.04,633.21,113.1z"/>
	<path d="M657.26,88.76c1.82,1.62,3.53,1.62,5.35,1.21C661.2,88.66,659.58,87.95,657.26,88.76z"/>
	<path d="M346.08,271.42c-2.43,1.82-2.63,3.34-1.82,5.15C345.55,277,345.03,276.91,346.08,271.42z"/>
	<path d="M200.8,295.46c-0.1-2.93-0.31-3.44-1.72-5.46C198.58,292.33,200.2,293.75,200.8,295.46z"/>
	<path d="M273.75,283.85c0.31,1.92,0.6,3.74,1.01,5.66C275.36,287.39,275.36,285.46,273.75,283.85z"/>
	<path d="M344.77,259.19c-1.21,1.62-1.21,1.62-0.2,4.85C344.57,262.43,345.98,260.91,344.77,259.19z"/>
	<path d="M661.4,256.77c2.22-1.11,2.83-2.83,4.44-4.24C663.42,253.13,663.12,253.44,661.4,256.77z"/>
	<path d="M682.72,99.77c2.12,0.5,3.23-0.5,4.65-1.92C685.34,98.06,684.03,98.25,682.72,99.77z"/>
	<path d="M682.01,81.79c-2.43,0.2-3.94,1.11-5.35,2.43C678.57,84.01,680.4,83.6,682.01,81.79z"/>
	<path d="M673.02,259.9c0.2,2.02,0.5,3.13,1.62,3.94C674.94,262.53,675.44,261.12,673.02,259.9z"/>
	<path d="M675.24,267.18c-0.5,1.31-0.5,2.53-0.1,4.44C676.75,268.9,676.75,268.9,675.24,267.18z"/>
	<path d="M681.81,179.29c0,2.12,0.31,3.74,2.63,4.15C683.32,182.32,684.03,180.09,681.81,179.29z"/>
	<path d="M662.1,106.54c-0.4-1.82-1.31-2.53-2.43-3.44C659.98,105.03,659.98,105.03,662.1,106.54z"/>
	<path d="M44.2,213.63c-0.4-1.21-1.31-1.82-2.83-2.83C41.78,213.03,42.99,213.33,44.2,213.63z"/>
	<path d="M244.95,306.48c0.81,0.81,1.41,1.31,2.83,1.01C247.48,305.27,246.47,305.57,244.95,306.48z"/>
	<path d="M210.7,277.49c1.11,1.52,2.53,1.31,3.94,2.22C213.33,277.68,213.33,277.68,210.7,277.49z"/>
	<path d="M683.93,138.16c0.5-1.62-0.31-2.43-0.71-4.04C682.72,135.84,682.72,136.85,683.93,138.16z"/>
	<path d="M692.41,222.01c1.52-0.6,1.52-0.6,2.12-2.53C693.33,220,692.92,221.01,692.41,222.01z"/>
	<path d="M339.92,295.67c-1.01,0.31-2.02,0.71-2.73,1.72C338.81,297.08,338.81,297.08,339.92,295.67z"/>
	<path d="M308.7,310.73c1.31,0,2.12-0.5,2.63-1.92C309.71,308.6,309.31,309.81,308.7,310.73z"/>
	<path d="M689.89,227.07c-0.91,1.11-0.91,1.92,0.31,2.73C691.21,228.69,690.59,227.98,689.89,227.07z"/>
	<path d="M663.42,93.81c-0.1,1.41,0.81,1.82,1.82,2.43C665.04,94.92,664.73,94.22,663.42,93.81z"/>
	<path d="M681.81,225.85c1.11-0.2,1.31-0.71,1.01-1.72C681.91,224.24,681.4,224.54,681.81,225.85z"/>
	<path d="M215.55,290.72c-0.1-1.31-0.91-1.21-1.92-1.31C213.94,290.62,214.64,290.92,215.55,290.72z"/>
	<path d="M270.81,320.83c1.11-0.31,1.52-0.81,1.31-1.82C271.32,319.41,270.81,319.82,270.81,320.83z"/>
	<path d="M240.71,305.57c1.01,0.71,1.41,0.5,1.82,0C241.82,304.36,241.51,305.27,240.71,305.57z"/>
	<path d="M655.13,98.76c0.1-1.01,0-1.62-0.81-2.12C654.03,97.54,654.03,98.16,655.13,98.76z"/>
	<path d="M346.49,254.15c1.01,0.71,1.21,0.1,1.52-0.81C346.79,252.93,346.58,253.44,346.49,254.15z"/>
	<path d="M305.87,324.57c-0.71,0.2-1.11,0.4-1.41,1.01C304.96,325.48,305.47,325.37,305.87,324.57z"/>
	<path d="M691.4,223.84c-0.4,0.4-0.5,0.71-0.31,1.01C691.4,225.15,692.34,224.59,691.4,223.84z"/>
	<path d="M700.9,362.65l0.1,0.1C701.02,362.66,701.11,362.61,700.9,362.65z"/>
	<path d="M677.46,341.94c-7.15-4.19-3.93-1.69-2.22-2.83c-2.97-2.97-38.1-15.65-42.13-16.97c-22.04-7.24-59.72-31.49-80.42-29.71
		c-6.28,0.54-15.58-2.89-16.87,1.62c8.28-1.11,16.38,1.95,24.35-0.2c1.78-0.48,34.93,12.24,43.04,16.27
		c18.6,9.23,13.34,8.18,16.06,9.09c15.61,4.02,54.69,20.28,52.33,19.5c-10.24,0,38.89,21.39,43.74,23.54
		c-3.63-0.4-7.18-0.2-10.71-0.71c-1.28-0.1-2.96-0.87-3.6,1.1c1.75-0.24,12.21,3.48,22.19,1.53
		C722.09,360.19,701.75,356.16,677.46,341.94z"/>
	<path d="M591.28,300.82c13.67,7.98,37.26,12.92,52.94,20.81c8.32,4.19-1.27-2.7-9.5-5.56c-33.55-11.64-35.54-11.7-49.81-20.61
		c-3.1-1.94-14.12-7.83-16.77-6.87C567.9,290.13,567.6,287,591.28,300.82z"/>
	<path d="M653.22,322.64c16.47,10.21,34.45,17.18,52.33,24.25C688.07,338.71,670.19,331.74,653.22,322.64z"/>
	<path d="M687.46,364.67c3.63-0.6,7.37,1.31,11.12-0.6C696.15,361.64,690.69,361.94,687.46,364.67z"/>
	<path d="M560.06,286.47c-4.85-1.92-10.1-0.91-15.05-1.72C549.96,286.78,555.02,286.47,560.06,286.47z"/>
	<path d="M754.55,459.04c5.25,1.11,10.1,1.72,15.56,2.32C766.67,459.14,757.48,457.82,754.55,459.04z"/>
	<path d="M520.66,287.08c4.85,0.71,9.6,0.6,15.05-1.01C518.16,286.07,520.66,285.72,520.66,287.08z"/>
	<path d="M713.12,350.63c2.53,1.92,5.05,4.04,8.49,4.04C718.78,353.36,716.46,350.94,713.12,350.63z"/>
	<path d="M626.04,334.36c-3.34-2.32-6.66-4.55-10.71-5.35C618.97,330.73,622.2,332.95,626.04,334.36z"/>
	<path d="M568.55,274.75c-1.82,1.82-2.22,4.04-1.52,6.57C568.15,279.2,568.65,277.08,568.55,274.75z"/>
	<path d="M796.57,462.17c2.73,1.31,5.86,1.11,8.79,1.52C802.44,462.77,799.61,461.96,796.57,462.17z"/>
	<path d="M696.76,366.69c2.02-0.71,4.24-1.01,4.24-3.84C699.08,363.56,698.37,365.58,696.76,366.69z"/>
	<path d="M617.25,327.8c-0.6-1.01-1.62-1.31-2.73-1.62C615.53,327.6,615.53,327.6,617.25,327.8z"/>
	<path d="M637.45,427.11c1.41-0.1,2.02-1.31,2.73-2.22C638.97,425.19,638.06,425.9,637.45,427.11z"/>
	<path d="M629.28,432.58c-0.89,0.05-1.46,0.44-1.94,1.18c1.47,0.14,1.87-1.19,1.97-1.19c0.8-0.16,1.21-0.63,1.47-1.03
		C629.63,431.4,629.71,432.16,629.28,432.58z"/>
	<path d="M635.73,428.12c0.91-0.1,1.41-0.2,1.72-1.11C636.75,427.01,636.24,427.31,635.73,428.12z"/>
	<path d="M766.98,327.9c5.41-7.64,20.04-29.78,10.81-31.32c-1.82,11.7-7.61,22.28-13.84,31.62
		C765.76,329.21,766.47,328.61,766.98,327.9z"/>
	<path d="M813.85,299.4c-10.71,19.9-28.9,31.62-46.87,43.65C786.17,332.35,804.46,320.73,813.85,299.4z"/>
	<path d="M736.46,333.05c1.11,2.53,4.04,1.62,5.25,3.84c-0.18,4.23-5.09,8.79-2.22,10.41c1.62,0.91,2.83-0.4,3.44-1.62
		C747.3,338.28,746.06,333.05,736.46,333.05z"/>
	<path d="M816.38,318.3c1.52-2.63,2.06-5.67,2.93-8.49c0.38-1.22,0.2-2.22-1.11-3.34c0,12.34-8.61,19.11-17.47,29.3
		C788.39,349.95,809.4,330.36,816.38,318.3z"/>
	<path d="M756.88,309.21c8.39-2.45,10.03-12.67,2.83-13.13c2.02,2.12,3.03,4.34,2.32,7.18C761.52,305.87,759.2,307.18,756.88,309.21
		z"/>
	<path d="M724.95,328.61c2.22,2.93,5.46,2.63,8.28,4.34C730.3,329.71,727.87,328.4,724.95,328.61z"/>
	<path d="M753.14,351.84c0.31,0.1,0.6,0,0.91-0.71C752.14,350.18,752.1,351.64,753.14,351.84z"/>
	<path d="M772.12,443.07c-1.21-1.82-2.53-3.15-4.85-2.63c-2.13,0.48-4.15-0.81-6.66-0.5c1.72,2.42,4.44,2.92,6.16,4.85
		C768.39,443.58,770,442.57,772.12,443.07z"/>
	<path d="M854.77,348.41c-3.11,0.78,1.33,11.22,0.81,24.15C858.21,368.31,857.4,351.24,854.77,348.41z"/>
	<path d="M854.87,378.01c-1.88,7.86,2.16,7.07-7.78,27.89c0.5,0.2,0.91,0.31,1.31,0.5C852.75,397.51,857.3,388.62,854.87,378.01z"/>
	<path d="M848.81,333.05c1.72,2.02,2.22,4.95,4.75,7.07c2.12-5.25-5.35-11.82-12.33-11.12
		C843.56,331.13,846.89,330.52,848.81,333.05z"/>
	<path d="M852.14,323.76c-1.52-1.82-1.52-1.82-4.55-3.23C850.02,324.36,850.02,324.36,852.14,323.76z"/>
	<path d="M847.19,394.07c-0.31,1.82-0.6,3.63-1.01,5.76C847.7,397.81,848,396.7,847.19,394.07z"/>
	<path d="M851.03,423.58c0.81-1.92,0.71-3.34,0-4.75C850.12,420.24,850.02,421.55,851.03,423.58z"/>
	<path d="M830.24,326.07c0.37,1.52,1.31,2.12,2.81,2.03C832.51,326.25,830.2,325.96,830.24,326.07z"/>
	<path d="M843.75,402.06c0.91-0.1,1.52-0.2,1.52-1.62C843.96,400.44,843.56,400.84,843.75,402.06z"/>
	<path d="M840.83,318.8c0.4,0.71,1.01,0.4,1.82,0.4C841.84,318.2,841.33,318.3,840.83,318.8z"/>
	<path d="M836.89,328.8c0.6,1.01,1.31,0.71,2.43,0.71C838.3,328.1,837.69,328.51,836.89,328.8z"/>
	<path d="M590.27,187.67c-2.53,2.02-7.47,11.41-7.07,13.34C586.74,199.19,591.49,190.2,590.27,187.67z"/>
	<path d="M590.17,134.43c1.82-2.53,2.63-5.46,1.82-8.79c-2.12,1.82-3.23,9.4-2.53,15.66C591.89,138.97,591.99,137.96,590.17,134.43z
		"/>
	<path d="M587.85,154.53c1.82-3.74,1.62-7.58,0.91-11.41C589.17,146.95,587.34,150.69,587.85,154.53z"/>
	<path d="M578.65,95.63c1.82,1.21,1.82,1.21,3.63-0.5C580.87,93.91,579.97,95.22,578.65,95.63z"/>
	<path d="M587.55,115.13c-1.31,1.21-1.31,1.21-0.6,2.83C588.25,116.54,588.25,116.54,587.55,115.13z"/>
	<path d="M579.97,205.04c-1.01,1.21-0.2,1.41,0.1,2.02C581.08,206.16,580.47,205.75,579.97,205.04z"/>
	<path d="M580.87,204.14c0.91-0.5,0.6-0.91,0-1.62C580.07,203.43,580.47,203.73,580.87,204.14z"/>
	<path d="M617.45,260c-2.73-1.21-5.05-1.31-7.78-1.01C611.59,261.62,613.51,261.82,617.45,260z"/>
	<path d="M625.23,259.4c-2.12,0.2-4.24-1.01-6.37,0.31C621.08,260.31,623.21,261.02,625.23,259.4z"/>
	<path d="M610.58,266.87c0.4,1.72,1.52,2.12,2.83,2.22C612.7,268.09,612.1,267.08,610.58,266.87z"/>
	<path d="M694.94,269.2c3.84,5.66,8.15,11.14,11.62,17.07C723.25,314.78,700.02,267.51,694.94,269.2z"/>
	<path d="M714.74,307.09c-2.11,14.28-14.08,19.87-11.41,18.75C711.33,322.47,717.35,309.7,714.74,307.09z"/>
	<path d="M726.46,311.43c-0.81,0.71-1.21,0.81-1.01,1.41C726.06,312.74,726.16,312.24,726.46,311.43z"/>
	<path d="M728.79,308.7c-0.6,0-0.91,0.31-0.6,0.91C728.48,309.31,728.99,309.21,728.79,308.7z"/>
	<path d="M857.3,460.65c-3.14,0.22-3.94,2.12-3.23,7.37C864.97,469.05,862.17,460.31,857.3,460.65z M858,466.71
		c-0.31-0.5-2.02-2.02-2.73-2.32c0.2-1.41,1.11-2.12,2.53-2.02C859.66,462.37,860.93,465.74,858,466.71z"/>
	<path d="M866.59,459.95c-5.67-0.27-5.63,7.78-0.2,7.78C871.64,467.73,871.81,460.19,866.59,459.95z M866.59,466.11
		c-2.79,0.2-3.37-4.44-0.1-4.44C869.36,461.66,869.59,465.89,866.59,466.11z"/>
	<path d="M873.36,459.74c-4.37,1.07-0.63,3.93-1.41,7.07c1.92,0.5,1.82-1.72,3.23-2.12c0.4,0.03,4.21,6.61,2.02-4.85
		C875.79,459.04,874.57,459.44,873.36,459.74z M873.36,462.57c-0.2-0.1-0.2-0.6-0.31-1.01C877.1,459.54,876.11,464.18,873.36,462.57
		z"/>
	<path d="M543.9,509.55c0.34-1.04,0.53-0.77-5.25-1.41C540.16,509.85,541.98,509.85,543.9,509.55z"/>
	<path d="M508.13,504.4c1.21,0.91,2.43,1.01,4.15,1.01C510.97,503.48,509.55,504,508.13,504.4z"/>
	<path d="M521.37,506.52c-1.01-1.62-2.43-1.11-3.74-1.01C518.64,506.82,519.85,506.82,521.37,506.52z"/>
	<path d="M497.22,504.19c0.5,0.6,0.91,1.21,2.02,1.11C498.84,504.29,498.44,503.79,497.22,504.19z"/>
	<path d="M740.71,426.61c2.43-3.53,2.73-7.68,2.83-11.82C741.11,418.32,741.32,422.56,740.71,426.61z"/>
	<path d="M596.23,102.29c-0.81-1.01-1.52-1.31-2.63-0.81C594.21,102.7,595.02,102.7,596.23,102.29z"/>
	<path d="M566.23,88.56c0.79,0.53,1.69,1.63,3.13,0.91C568.66,88.07,567.53,88.31,566.23,88.56z"/>
	<path d="M235.45,341.64c-1.41-1.01-3.23-1.31-4.44-2.63c0.6,0,1.31,0,2.53,0c-3.7-3.45-37.33-15.61-42.13-17.18
		c-22.44-7.32-60.18-31.59-81.13-29.8c-6.34,0.54-15.3-2.84-16.57,1.62c8.28-1.11,16.38,1.95,24.35-0.2
		c1.78-0.48,34.93,12.24,43.04,16.27c18.6,9.23,13.34,8.18,16.06,9.09c20.06,5.16,46.59,17.9,52.43,19.4c0,0.36-1.02-0.37-2.12,0.6
		c30.43,20.22,57.89,24.68,40.81,22.83c-1.92-0.21-3.74,0.01-5.66-0.31c-1.18-0.19-2.86-0.87-3.59,1c1.5-0.2,12.8,3.55,22.18,1.53
		C280.08,359.87,260,356.36,235.45,341.64z"/>
	<path d="M254.75,366.19c5.42-1.61,3.76-2.79,4.29-3.85C257.55,362.64,256.22,365.17,254.75,366.19z"/>
	<path d="M162.51,306.58c7.2,2.54,31.42,10.29,40.92,15.15c5.43,2.78,3-2.6-29.2-12.73c-25.8-8.11-42.89-22.97-48.09-20.61
		C139.27,292.53,149.67,302.05,162.51,306.58z"/>
	<path d="M211.41,321.94c3.63,4.14,44.55,23.13,52.23,24.25C246.17,338.31,228.18,331.34,211.41,321.94z"/>
	<path d="M244.85,364.27c4.15-0.4,7.88,1.11,12.02-0.81C253.44,361.23,248.49,361.64,244.85,364.27z"/>
	<path d="M118.06,285.97c-4.95-1.62-10-1.11-15.05-1.62C107.95,286.47,113.1,285.87,118.06,285.97z"/>
	<path d="M313.05,458.23c4.75,1.31,9.6,2.22,14.44,2.02C322.74,459.14,317.99,457.52,313.05,458.23z"/>
	<path d="M78.66,286.68c4.75,0.6,9.5,0.71,14.75-1.01C76.73,285.67,78.66,285.33,78.66,286.68z"/>
	<path d="M184.03,333.96c-3.23-2.43-6.66-4.55-10.71-5.35C176.96,330.32,180.39,332.45,184.03,333.96z"/>
	<path d="M271.12,350.02c2.53,2.02,5.05,4.24,8.59,4.15C276.88,352.85,274.35,350.53,271.12,350.02z"/>
	<path d="M126.94,274.15c-2.12,1.62-2.63,3.23-1.82,6.66C126.24,278.8,126.65,276.58,126.94,274.15z"/>
	<path d="M354.67,461.66c2.73,1.31,5.76,1.21,8.59,1.52C360.33,462.27,357.6,461.56,354.67,461.66z"/>
	<path d="M175.45,327.6c-0.91-1.31-1.92-1.62-3.44-2.12C173.02,326.99,173.93,327.6,175.45,327.6z"/>
	<path d="M195.45,426.71c1.41-0.2,2.02-1.31,2.73-2.32C196.96,424.68,196.05,425.49,195.45,426.71z"/>
	<path d="M193.73,427.71c0.91-0.1,1.41-0.31,1.72-1.11C194.74,426.61,194.23,426.9,193.73,427.71z"/>
	<path d="M187.27,432.09c-1.02,0.05-1.9,0.94-1.86,1.18c-0.22,0-0.19-0.02-0.07,0.1c0.02-0.04,0.05-0.06,0.07-0.1
		c0.04,0.18,0.63-0.03,2.15-1.34c0.54-0.11,0.93-0.32,1.21-0.88C187.65,430.91,187.73,431.71,187.27,432.09z"/>
	<path d="M366.39,307.49c-11.01,15.15-26.47,24.85-42.33,35.16C335.17,340.52,366.49,314.46,366.39,307.49z"/>
	<path d="M376.09,293.95c-4.24,1.62-7.47,7.88-6.66,12.33C372.35,302.74,373.26,298.2,376.09,293.95z"/>
	<path d="M389.22,287.69c-4.34,1.82-9.09,2.43-13.03,5.05C377.48,296.35,386.34,290.2,389.22,287.69z"/>
	<path d="M369.82,282.94c1.31,3.74,3.94,6.66,6.26,9.9C375.08,288.9,372.25,286.07,369.82,282.94z"/>
	<path d="M392.66,288.49c-0.2-0.81-0.71-1.21-1.62-1.11C390.94,288.9,391.54,289,392.66,288.49z"/>
	<path d="M312.04,351.23c-0.4-1.31-0.91-1.11-1.62-0.71C310.73,351.64,311.33,351.44,312.04,351.23z"/>
	<path d="M325.67,443.88c1.01-2.02,2.83-1.01,4.75-1.11c-3.23-3.23-3.53-3.23-11.82-3.13C319.7,441.12,325.13,444.98,325.67,443.88z
		"/>
	<path d="M413.77,371.64c2.53-5.56,1.52-21.62-1.31-23.64C409.93,349.27,414.09,360.63,413.77,371.64z"/>
	<path d="M405.09,405.39c0.5,0.2,0.91,0.31,1.31,0.5c4.24-8.89,8.89-17.78,6.47-28.39C411.33,383.93,414.32,388.14,405.09,405.39z"
		/>
	<path d="M402.06,329.92c3.23,0.71,5.32,2.6,6.66,5.56c5.31,11.68,5.74-7.95-9.19-7.08C399.93,329.81,401.15,329.81,402.06,329.92z"
		/>
	<path d="M410.13,323.96c-0.91-2.22-1.01-2.22-4.15-3.44C406.9,322.04,407.61,324.06,410.13,323.96z"/>
	<path d="M405.28,393.47c-0.4,1.92-0.71,3.74-1.01,5.56C405.59,397.31,406.19,395.49,405.28,393.47z"/>
	<path d="M409.03,423.06c0.81-1.92,0.71-3.34,0-4.75C408.12,419.74,408.02,421.05,409.03,423.06z"/>
	<path d="M391.04,327.6c-0.5-1.68-1.75-1.69-2.83-2.12C388.54,327.05,389.5,327.69,391.04,327.6z"/>
	<path d="M401.75,400.44c-0.8,1.61,1.86,1.45,1.41-0.2C402.56,399.73,402.15,400.03,401.75,400.44z"/>
	<path d="M400.34,318.7c-0.31-1.21-0.91-0.71-2.12-0.6C399.32,318.9,399.83,318.9,400.34,318.7z"/>
	<path d="M397,328.91c-0.6-1.21-1.11-1.01-1.92-0.4C395.79,329.21,396.4,329.11,397,328.91z"/>
	<path d="M80.67,307.18c-2.93,0.1-5.15,0.31-6.87-2.12C74.61,309.01,77.34,310.02,80.67,307.18z"/>
	<path d="M69.16,301.53c0.4,2.12,1.82,2.73,3.84,3.44C72.7,302.14,71.38,301.63,69.16,301.53z"/>
	<path d="M17.33,238.38c0.31,2.73,1.92,3.13,3.84,3.34C20.36,240.41,19.45,239.29,17.33,238.38z"/>
	<path d="M67.95,301.53c-0.4-2.43-1.52-2.83-3.34-2.83C65.21,300.37,66.28,301.06,67.95,301.53z"/>
	<path d="M23.8,244.04c0.4,0.81,0.81,1.41,2.22,1.11C25.42,244.44,25.11,243.64,23.8,244.04z"/>
	<path d="M61.07,295.05c-1.94-1.47-1.61,1.01,0.51,1.22C61.5,295.46,61.32,295.3,61.07,295.05z"/>
	<path d="M14.2,247.78c-0.2,1.11,0.71,1.01,1.52,1.72C15.51,247.98,15.11,247.68,14.2,247.78z"/>
	<path d="M175.55,259.4c-2.93-0.81-5.25-1.62-7.88-0.6C169.79,261.22,171.8,261.32,175.55,259.4z"/>
	<path d="M183.42,258.49c-2.32,0.6-4.34-0.5-6.66,0.4C179.99,260.41,181,260.41,183.42,258.49z"/>
	<path d="M171.61,268.29c-0.81-0.71-1.62-1.41-2.63-2.12C169.28,267.88,169.28,267.88,171.61,268.29z"/>
	<path d="M412.56,460.24c-3.13,0.29-3.94,2.12-3.13,7.37C420.49,468.44,417.43,459.79,412.56,460.24z M413.27,466.21
		c-0.71-1.41-0.91-1.62-2.63-2.02c0.1-1.52,1.02-2.2,2.32-2.32C415.41,461.63,416.08,465.43,413.27,466.21z"/>
	<path d="M421.86,459.54c-5.7-0.27-5.38,7.78-0.2,7.78C426.77,467.32,427.15,459.79,421.86,459.54z M421.96,465.6
		c-2.79,0.4-3.55-4.31-0.2-4.55C424.71,461.05,424.74,465.4,421.96,465.6z"/>
	<path d="M426.91,462.67c1.18,1.34,0.6,2.53,0.31,3.74c2.02,0.4,1.92-1.82,3.13-2.12c1.52-0.2,0.71,1.82,2.53,1.82
		c0.5-2.43,0.31-4.65-0.5-6.87C429.47,458.08,424.74,460.22,426.91,462.67z M428.22,462.07c0.71-1.62,1.62-1.62,2.83-1.21
		C430.95,463.08,429.84,462.67,428.22,462.07z"/>
	<path d="M96.74,507.94c1.62,1.31,3.44,1.41,5.25,1.01C100.38,507.53,98.46,507.94,96.74,507.94z"/>
	<path d="M66.13,504c1.21,0.91,2.43,1.01,4.04,0.91C68.95,502.98,67.54,503.48,66.13,504z"/>
	<path d="M79.47,505.91c-1.41-1.31-2.63-1.01-4.15-1.11C77.04,506.32,77.04,506.32,79.47,505.91z"/>
	<path d="M55.22,503.79c0.4,0.6,0.91,1.11,1.62,1.11C57.53,504.44,56.56,503.12,55.22,503.79z"/>
	<path d="M301.43,414.18c-2.22,3.63-2.02,7.78-2.73,11.82C301.02,422.36,301.53,418.32,301.43,414.18z"/>
	<path d="M16.42,269c4.49,2.19,9.48-0.4,10.81-0.4C27.33,268.59,24.35,267,16.42,269z"/>
	<path d="M14.9,271.72c-1.01,3.03-3.03,5.76-2.02,9.29C14.2,277.99,15.21,274.96,14.9,271.72z"/>
<path fill="#e6e6e6" d="m206.8 163.6c0-5.1 4.1-9.2 9.3-9.2s9.2 4.2 9.2 9.2-4.1 9.2-9.3 9.2-9.2-4.1-9.2-9.2zm17.3-.1c0-4.5-3.5-8.2-8.2-8.2s-8.2 3.7-8.2 8.3c0 4.5 3.5 8.2 8.2 8.2s8.2-3.7 8.2-8.3zm-13 0c0-2.8 2.1-5.1 5.1-5.1 1.9 0 2.9.6 3.9 1.5l-1.4 1.7c-.8-.7-1.5-1.1-2.5-1.1-1.7 0-2.8 1.4-2.8 3.1s1.1 3 2.8 3c1.1 0 1.7-.5 2.5-1.1l1.4 1.4c-1.1 1.1-2.1 1.7-4 1.7-2.9 0-5-2.3-5-5.1z"/><path fill="#e6e6e6" d="m226.6 154.7h3.4l4.2 13.2 4.4-13.3h2.6l4.4 13.3 4.2-13.2h3.3l-6.2 18h-2.7l-4.4-12.8-4.4 12.8h-2.7z"/><path fill="#e6e6e6" d="m252.8 165.8c0-3.9 3.1-7 7.2-7 4.2 0 7.2 3.2 7.2 7s-3.1 7-7.3 7c-4 0-7.1-3.1-7.1-7zm11.3 0c0-2.3-1.7-4.3-4.2-4.3s-4.1 2-4.1 4.3 1.7 4.3 4.1 4.3c2.7.1 4.2-1.9 4.2-4.3z"/><path fill="#e6e6e6" d="m269.5 159.1h3.1v3c.8-2 2.4-3.4 4.8-3.3v3.2h-.2c-2.7 0-4.6 1.7-4.6 5.4v5.1h-3.1z"/><path fill="#e6e6e6" d="m279.1 153.9h3.1v11.1l5.6-6h3.8l-5.4 5.5 5.5 8h-3.5l-4.1-5.8-1.9 2v3.9h-3.1z"/><path fill="#e6e6e6" d="m291.7 165.8c0-3.9 3.1-7 7.2-7 4.2 0 7.2 3.2 7.2 7s-3.1 7-7.3 7c-4 0-7.1-3.1-7.1-7zm11.3 0c0-2.3-1.7-4.3-4.2-4.3s-4.1 2-4.1 4.3 1.7 4.3 4.1 4.3c2.6.1 4.2-1.9 4.2-4.3z"/><path fill="#e6e6e6" d="m308.2 167.6v-8.6h3.1v7.6c0 2.1 1.1 3.3 2.9 3.3s3-1.3 3-3.3v-7.6h3.1v13.4h-3.1v-2.1c-.8 1.3-2.1 2.3-4.2 2.3-3.1.2-4.8-1.8-4.8-5z"/><path fill="#e6e6e6" d="m323.9 168.8v-7.1h-1.7v-2.6h1.7v-3.7h3.1v3.7h3.6v2.6h-3.6v6.6c0 1.2.6 1.7 1.7 1.7.7 0 1.3-.2 1.9-.5v2.5c-.8.5-1.7.7-2.8.7-2.3 0-3.9-.9-3.9-3.9z"/><path fill="#e6e6e6" d="m333.2 154.7h3.2v15h9.4v2.9h-12.5v-17.9z"/><path fill="#e6e6e6" d="m356 172.5v-1.7c-.9 1.1-2.3 2-4.4 2-2.6 0-4.8-1.4-4.8-4.2 0-3 2.3-4.4 5.4-4.4 1.7 0 2.6.2 3.7.5v-.2c0-1.9-1.2-2.9-3.3-2.9-1.5 0-2.6.3-3.9.8l-.8-2.5c1.5-.7 2.9-1.1 5.1-1.1 4 0 5.9 2.1 5.9 5.7v8zm.1-5.6c-.8-.3-1.9-.5-3.1-.5-2 0-3.1.8-3.1 2.1s1.1 2 2.6 2c2 0 3.5-1.1 3.5-2.9z"/><path fill="#e6e6e6" d="m364.9 170.5v2.1h-3.1v-18.7h3.1v7.4c1-1.4 2.4-2.5 4.5-2.5 3.2 0 6.3 2.5 6.3 7s-3.1 7-6.3 7c-2.1 0-3.5-1.1-4.5-2.3zm7.7-4.7c0-2.6-1.7-4.3-3.9-4.3s-3.9 1.7-3.9 4.4c0 2.6 1.8 4.3 3.9 4.3s3.9-1.7 3.9-4.4z"/><path fill="#e6e6e6" d="m376.9 170.8 1.4-2.1c1.4 1.1 3 1.7 4.4 1.7s2.1-.5 2.1-1.5-1.3-1.4-2.8-1.8c-.1 0-.2-.1-.2-.1-2-.6-4.2-1.4-4.2-4s2.1-4.1 4.8-4.1c1.7 0 3.5.6 5 1.5l-1.2 2.2c-1.3-.8-2.6-1.3-3.8-1.3s-1.9.5-1.9 1.4 1.3 1.4 2.8 1.8c.1 0 .2.1.2.1 2 .6 4.2 1.5 4.2 4 0 2.9-2.2 4.2-5 4.2-1.9 0-4-.7-5.8-2z"/><path fill="#e6e6e6" d="m505.6 163.6c0-5.1 4.1-9.2 9.3-9.2s9.2 4.2 9.2 9.2-4.1 9.2-9.3 9.2-9.2-4.1-9.2-9.2zm17.4-.1c0-4.5-3.5-8.2-8.2-8.2s-8.2 3.7-8.2 8.3c0 4.5 3.5 8.2 8.2 8.2s8.2-3.7 8.2-8.3zm-13.1 0c0-2.8 2.1-5.1 5.1-5.1 1.9 0 2.9.6 3.9 1.5l-1.4 1.7c-.8-.7-1.5-1.1-2.5-1.1-1.7 0-2.8 1.4-2.8 3.1s1.1 3 2.8 3c1.1 0 1.7-.5 2.5-1.1l1.4 1.4c-1.1 1.1-2.1 1.7-4 1.7-2.9 0-5-2.3-5-5.1z"/><path fill="#e6e6e6" d="m525.4 154.7h3.4l4.2 13.2 4.4-13.3h2.6l4.4 13.3 4.2-13.2h3.3l-6.2 18h-2.7l-4.4-12.8-4.4 12.8h-2.7z"/><path fill="#e6e6e6" d="m551.7 165.8c0-3.9 3.1-7 7.2-7 4.2 0 7.2 3.2 7.2 7s-3.1 7-7.3 7c-4.1 0-7.1-3.1-7.1-7zm11.2 0c0-2.3-1.7-4.3-4.2-4.3s-4.1 2-4.1 4.3 1.7 4.3 4.1 4.3c2.7.1 4.2-1.9 4.2-4.3z"/><path fill="#e6e6e6" d="m568.3 159.1h3.1v3c.8-2 2.4-3.4 4.8-3.3v3.2h-.2c-2.7 0-4.6 1.7-4.6 5.4v5.1h-3.1z"/><path fill="#e6e6e6" d="m577.9 153.9h3.1v11.1l5.6-6h3.8l-5.4 5.5 5.5 8h-3.5l-4.1-5.8-1.9 2v3.9h-3.1z"/><path fill="#e6e6e6" d="m590.6 165.8c0-3.9 3.1-7 7.2-7 4.2 0 7.2 3.2 7.2 7s-3.1 7-7.3 7c-4.1 0-7.1-3.1-7.1-7zm11.2 0c0-2.3-1.7-4.3-4.2-4.3s-4.1 2-4.1 4.3 1.7 4.3 4.1 4.3c2.6.1 4.2-1.9 4.2-4.3z"/><path fill="#e6e6e6" d="m607 167.6v-8.6h3.1v7.6c0 2.1 1.1 3.3 2.9 3.3s3-1.3 3-3.3v-7.6h3.1v13.4h-3.1v-2.1c-.8 1.3-2.1 2.3-4.2 2.3-3 .2-4.8-1.8-4.8-5z"/><path fill="#e6e6e6" d="m622.7 168.8v-7.1h-1.7v-2.6h1.7v-3.7h3.1v3.7h3.6v2.6h-3.6v6.6c0 1.2.6 1.7 1.7 1.7.7 0 1.3-.2 1.9-.5v2.5c-.8.5-1.7.7-2.8.7-2.3 0-3.9-.9-3.9-3.9z"/><path fill="#e6e6e6" d="m632 154.7h3.2v15h9.4v2.9h-12.6z"/><path fill="#e6e6e6" d="m654.8 172.5v-1.7c-.9 1.1-2.3 2-4.4 2-2.6 0-4.8-1.4-4.8-4.2 0-3 2.3-4.4 5.4-4.4 1.7 0 2.6.2 3.7.5v-.2c0-1.9-1.2-2.9-3.3-2.9-1.5 0-2.6.3-3.9.8l-.8-2.5c1.5-.7 2.9-1.1 5.1-1.1 4 0 5.9 2.1 5.9 5.7v8zm.1-5.6c-.8-.3-1.9-.5-3.1-.5-2 0-3.1.8-3.1 2.1s1.1 2 2.6 2c2 0 3.5-1.1 3.5-2.9z"/><path fill="#e6e6e6" d="m663.7 170.5v2.1h-3.1v-18.7h3.1v7.4c1-1.4 2.4-2.5 4.5-2.5 3.2 0 6.3 2.5 6.3 7s-3.1 7-6.3 7c-2.1 0-3.5-1.1-4.5-2.3zm7.8-4.7c0-2.6-1.7-4.3-3.9-4.3-2.1 0-3.9 1.7-3.9 4.4 0 2.6 1.8 4.3 3.9 4.3s3.9-1.7 3.9-4.4z"/><path fill="#e6e6e6" d="m675.8 170.8 1.4-2.1c1.4 1.1 3 1.7 4.4 1.7s2.1-.5 2.1-1.5-1.3-1.4-2.8-1.8c-.1 0-.2-.1-.2-.1-2-.6-4.2-1.4-4.2-4s2.1-4.1 4.8-4.1c1.7 0 3.5.6 5 1.5l-1.2 2.2c-1.3-.8-2.6-1.3-3.8-1.3s-1.9.5-1.9 1.4 1.3 1.4 2.8 1.8c.1 0 .2.1.2.1 2 .6 4.2 1.5 4.2 4 0 2.9-2.2 4.2-5 4.2-2 0-4.1-.7-5.8-2z"/><path fill="#e6e6e6" d="m61 298.6c0-5.1 4.1-9.2 9.3-9.2s9.2 4.2 9.2 9.2-4.1 9.2-9.3 9.2c-5.1 0-9.2-4.2-9.2-9.2zm17.4-.1c0-4.5-3.5-8.2-8.2-8.2s-8.2 3.7-8.2 8.3c0 4.5 3.5 8.2 8.2 8.2s8.2-3.7 8.2-8.3zm-13.1-.1c0-2.8 2.1-5.1 5.1-5.1 1.9 0 2.9.6 3.9 1.5l-1.4 1.7c-.8-.7-1.5-1.1-2.5-1.1-1.7 0-2.8 1.4-2.8 3.1s1.1 3 2.8 3c1.1 0 1.7-.5 2.5-1.1l1.4 1.4c-1.1 1.1-2.1 1.7-4 1.7-2.8.1-5-2.2-5-5.1z"/><path fill="#e6e6e6" d="m80.9 289.7h3.4l4.2 13.2 4.4-13.3h2.6l4.4 13.3 4.2-13.2h3.3l-6.2 18h-2.7l-4.4-12.8-4.4 12.8h-2.7z"/><path fill="#e6e6e6" d="m107.1 300.8c0-3.9 3.1-7 7.2-7s7.2 3.2 7.2 7-3.1 7-7.3 7c-4 0-7.1-3.1-7.1-7zm11.3 0c0-2.3-1.7-4.3-4.2-4.3s-4.1 2-4.1 4.3 1.7 4.3 4.1 4.3c2.6.1 4.2-1.9 4.2-4.3z"/><path fill="#e6e6e6" d="m123.7 294h3.1v3c.8-2 2.4-3.4 4.8-3.3v3.2h-.2c-2.7 0-4.6 1.7-4.6 5.4v5.1h-3.1z"/><path fill="#e6e6e6" d="m133.4 288.9h3.1v11.1l5.6-6h3.8l-5.4 5.5 5.5 8h-3.5l-4.1-5.8-1.9 1.9v3.9h-3.1z"/><path fill="#e6e6e6" d="m146 300.8c0-3.9 3.1-7 7.2-7s7.2 3.2 7.2 7-3.1 7-7.3 7c-4.1 0-7.1-3.1-7.1-7zm11.2 0c0-2.3-1.7-4.3-4.2-4.3s-4.1 2-4.1 4.3 1.7 4.3 4.1 4.3c2.6.1 4.2-1.9 4.2-4.3z"/><path fill="#e6e6e6" d="m162.4 302.6v-8.6h3.1v7.6c0 2.1 1.1 3.3 2.9 3.3s3-1.3 3-3.3v-7.6h3.1v13.4h-3.1v-2.1c-.8 1.3-2.1 2.3-4.2 2.3-3 .2-4.8-1.8-4.8-5z"/><path fill="#e6e6e6" d="m178.1 303.8v-7.1h-1.7v-2.7h1.7v-3.7h3.1v3.7h3.6v2.6h-3.6v6.6c0 1.2.6 1.7 1.7 1.7.7 0 1.3-.2 1.9-.5v2.5c-.8.5-1.7.7-2.8.7-2.3.1-3.9-.9-3.9-3.8z"/><path fill="#e6e6e6" d="m187.4 289.7h3.2v15h9.4v2.9h-12.5v-17.9z"/><path fill="#e6e6e6" d="m210.2 307.5v-1.7c-.9 1.1-2.3 2-4.4 2-2.6 0-4.8-1.4-4.8-4.2 0-3 2.3-4.4 5.4-4.4 1.7 0 2.6.2 3.7.5v-.2c0-1.9-1.2-2.9-3.3-2.9-1.5 0-2.6.3-3.9.8l-.8-2.5c1.5-.7 2.9-1.1 5.1-1.1 4 0 5.9 2.1 5.9 5.7v8zm.1-5.6c-.8-.3-1.9-.5-3.1-.5-2 0-3.1.8-3.1 2.1s1.1 2 2.6 2c2 0 3.5-1.1 3.5-2.9z"/><path fill="#e6e6e6" d="m219.2 305.5v2.1h-3.1v-18.7h3.1v7.4c1-1.4 2.4-2.5 4.5-2.5 3.2 0 6.3 2.5 6.3 7s-3.1 7-6.3 7c-2.2 0-3.6-1.1-4.5-2.3zm7.7-4.7c0-2.6-1.7-4.3-3.9-4.3s-3.9 1.7-3.9 4.4c0 2.6 1.8 4.3 3.9 4.3s3.9-1.7 3.9-4.4z"/><path fill="#e6e6e6" d="m231.2 305.8 1.4-2.1c1.4 1.1 3 1.7 4.4 1.7s2.1-.5 2.1-1.5-1.3-1.4-2.8-1.8c-.1 0-.2-.1-.2-.1-2-.6-4.2-1.4-4.2-4s2.1-4.1 4.8-4.1c1.7 0 3.5.6 5 1.5l-1.2 2.2c-1.3-.8-2.6-1.3-3.8-1.3s-1.9.5-1.9 1.4 1.3 1.4 2.8 1.8c.1 0 .2.1.2.1 2 .6 4.2 1.5 4.2 4 0 2.9-2.2 4.2-5 4.2-2 0-4.1-.7-5.8-2z"/><path fill="#e6e6e6" d="m360.6 298.6c0-5.1 4.1-9.2 9.3-9.2s9.2 4.2 9.2 9.2-4.1 9.2-9.3 9.2-9.2-4.2-9.2-9.2zm17.4-.1c0-4.5-3.5-8.2-8.2-8.2s-8.2 3.7-8.2 8.3c0 4.5 3.5 8.2 8.2 8.2s8.2-3.7 8.2-8.3zm-13.1-.1c0-2.8 2.1-5.1 5.1-5.1 1.9 0 2.9.6 3.9 1.5l-1.4 1.7c-.8-.7-1.5-1.1-2.5-1.1-1.7 0-2.8 1.4-2.8 3.1s1.1 3 2.8 3c1.1 0 1.7-.5 2.5-1.1l1.4 1.4c-1.1 1.1-2.1 1.7-4 1.7-2.8.1-5-2.2-5-5.1z"/><path fill="#e6e6e6" d="m380.5 289.7h3.4l4.2 13.2 4.4-13.3h2.6l4.4 13.3 4.2-13.2h3.3l-6.2 18h-2.7l-4.4-12.8-4.4 12.8h-2.7z"/><path fill="#e6e6e6" d="m406.7 300.8c0-3.9 3.1-7 7.2-7 4.2 0 7.2 3.2 7.2 7s-3.1 7-7.3 7c-4.1 0-7.1-3.1-7.1-7zm11.3 0c0-2.3-1.7-4.3-4.2-4.3s-4.1 2-4.1 4.3 1.7 4.3 4.1 4.3c2.7.1 4.2-1.9 4.2-4.3z"/><path fill="#e6e6e6" d="m423.3 294h3.1v3c.8-2 2.4-3.4 4.8-3.3v3.2h-.2c-2.7 0-4.6 1.7-4.6 5.4v5.1h-3.1z"/><path fill="#e6e6e6" d="m433 288.9h3.1v11.1l5.6-6h3.8l-5.4 5.5 5.5 8h-3.5l-4.1-5.8-1.9 2v3.9h-3.1z"/><path fill="#e6e6e6" d="m445.6 300.8c0-3.9 3.1-7 7.2-7 4.2 0 7.2 3.2 7.2 7s-3.1 7-7.3 7c-4.1 0-7.1-3.1-7.1-7zm11.3 0c0-2.3-1.7-4.3-4.2-4.3s-4.1 2-4.1 4.3 1.7 4.3 4.1 4.3c2.6.1 4.2-1.9 4.2-4.3z"/><path fill="#e6e6e6" d="m462.1 302.6v-8.6h3.1v7.6c0 2.1 1.1 3.3 2.9 3.3s3-1.3 3-3.3v-7.6h3.1v13.4h-3.1v-2.1c-.8 1.3-2.1 2.3-4.2 2.3-3.1.2-4.8-1.8-4.8-5z"/><path fill="#e6e6e6" d="m477.8 303.8v-7.1h-1.8v-2.7h1.7v-3.7h3.1v3.7h3.6v2.6h-3.6v6.6c0 1.2.6 1.7 1.7 1.7.7 0 1.3-.2 1.9-.5v2.5c-.8.5-1.7.7-2.8.7-2.2.1-3.8-.9-3.8-3.8z"/><path fill="#e6e6e6" d="m487.1 289.7h3.2v15h9.4v2.9h-12.5v-17.9z"/><path fill="#e6e6e6" d="m509.9 307.5v-1.7c-.9 1.1-2.3 2-4.4 2-2.6 0-4.8-1.4-4.8-4.2 0-3 2.3-4.4 5.4-4.4 1.7 0 2.6.2 3.7.5v-.2c0-1.9-1.2-2.9-3.3-2.9-1.5 0-2.6.3-3.9.8l-.8-2.5c1.5-.7 2.9-1.1 5.1-1.1 4 0 5.9 2.1 5.9 5.7v8zm.1-5.6c-.8-.3-1.9-.5-3.1-.5-2 0-3.1.8-3.1 2.1s1.1 2 2.6 2c2 0 3.5-1.1 3.5-2.9z"/><path fill="#e6e6e6" d="m518.8 305.5v2.1h-3.1v-18.7h3.1v7.4c1-1.4 2.4-2.5 4.5-2.5 3.2 0 6.3 2.5 6.3 7s-3.1 7-6.3 7c-2.2 0-3.5-1.1-4.5-2.3zm7.7-4.7c0-2.6-1.7-4.3-3.9-4.3s-3.9 1.7-3.9 4.4c0 2.6 1.8 4.3 3.9 4.3s3.9-1.7 3.9-4.4z"/><path fill="#e6e6e6" d="m530.8 305.8 1.4-2.1c1.4 1.1 3 1.7 4.4 1.7s2.1-.5 2.1-1.5-1.3-1.4-2.8-1.8c-.1 0-.2-.1-.2-.1-2-.6-4.2-1.4-4.2-4s2.1-4.1 4.8-4.1c1.7 0 3.5.6 5 1.5l-1.2 2.2c-1.3-.8-2.6-1.3-3.8-1.3s-1.9.5-1.9 1.4 1.3 1.4 2.8 1.8c.1 0 .2.1.2.1 2 .6 4.2 1.5 4.2 4 0 2.9-2.2 4.2-5 4.2-1.9 0-4.1-.7-5.8-2z"/><path fill="#e6e6e6" d="m659.5 298.6c0-5.1 4.1-9.2 9.3-9.2s9.2 4.2 9.2 9.2-4.1 9.2-9.3 9.2-9.2-4.2-9.2-9.2zm17.3-.1c0-4.5-3.5-8.2-8.2-8.2s-8.2 3.7-8.2 8.3c0 4.5 3.5 8.2 8.2 8.2 4.8 0 8.2-3.7 8.2-8.3zm-13-.1c0-2.8 2.1-5.1 5.1-5.1 1.9 0 2.9.6 3.9 1.5l-1.4 1.7c-.8-.7-1.5-1.1-2.5-1.1-1.7 0-2.8 1.4-2.8 3.1s1.1 3 2.8 3c1.1 0 1.7-.5 2.5-1.1l1.4 1.4c-1.1 1.1-2.1 1.7-4 1.7-2.9.1-5-2.2-5-5.1z"/><path fill="#e6e6e6" d="m679.3 289.7h3.4l4.2 13.2 4.4-13.3h2.6l4.4 13.3 4.2-13.2h3.3l-6.2 18h-2.6l-4.4-12.8-4.4 12.8h-2.7z"/><path fill="#e6e6e6" d="m705.5 300.8c0-3.9 3.1-7 7.2-7 4.2 0 7.2 3.2 7.2 7s-3.1 7-7.3 7c-4 0-7.1-3.1-7.1-7zm11.3 0c0-2.3-1.7-4.3-4.2-4.3s-4.1 2-4.1 4.3 1.7 4.3 4.1 4.3c2.7.1 4.2-1.9 4.2-4.3z"/><path fill="#e6e6e6" d="m722.1 294h3.1v3c.8-2 2.4-3.4 4.8-3.3v3.2h-.2c-2.7 0-4.6 1.7-4.6 5.4v5.1h-3.1z"/><path fill="#e6e6e6" d="m731.8 288.9h3.1v11.1l5.6-6h3.8l-5.4 5.5 5.5 8h-3.5l-4.1-5.8-1.9 2v3.9h-3.1z"/><path fill="#e6e6e6" d="m744.4 300.8c0-3.9 3.1-7 7.2-7 4.2 0 7.2 3.2 7.2 7s-3.1 7-7.3 7c-4.1 0-7.1-3.1-7.1-7zm11.3 0c0-2.3-1.7-4.3-4.2-4.3s-4.1 2-4.1 4.3 1.7 4.3 4.1 4.3c2.6.1 4.2-1.9 4.2-4.3z"/><path fill="#e6e6e6" d="m760.9 302.6v-8.6h3.1v7.6c0 2.1 1.1 3.3 2.9 3.3s3-1.3 3-3.3v-7.6h3.1v13.4h-3.1v-2.1c-.8 1.3-2.1 2.3-4.2 2.3-3.1.2-4.8-1.8-4.8-5z"/><path fill="#e6e6e6" d="m776.6 303.8v-7.1h-1.7v-2.7h1.7v-3.7h3.1v3.7h3.6v2.6h-3.6v6.6c0 1.2.6 1.7 1.7 1.7.7 0 1.3-.2 1.9-.5v2.5c-.8.5-1.7.7-2.8.7-2.3.1-3.9-.9-3.9-3.8z"/><path fill="#e6e6e6" d="m785.9 289.7h3.2v15h9.4v2.9h-12.5v-17.9z"/><path fill="#e6e6e6" d="m808.7 307.5v-1.7c-.9 1.1-2.3 2-4.4 2-2.6 0-4.8-1.4-4.8-4.2 0-3 2.3-4.4 5.4-4.4 1.7 0 2.6.2 3.7.5v-.2c0-1.9-1.2-2.9-3.3-2.9-1.5 0-2.6.3-3.9.8l-.8-2.5c1.5-.7 2.9-1.1 5.1-1.1 4 0 5.9 2.1 5.9 5.7v8zm.1-5.6c-.8-.3-1.9-.5-3.1-.5-2 0-3.1.8-3.1 2.1s1.1 2 2.6 2c2 0 3.5-1.1 3.5-2.9z"/><path fill="#e6e6e6" d="m817.6 305.5v2.1h-3.1v-18.7h3.1v7.4c1-1.4 2.4-2.5 4.5-2.5 3.2 0 6.3 2.5 6.3 7s-3.1 7-6.3 7c-2.1 0-3.5-1.1-4.5-2.3zm7.7-4.7c0-2.6-1.7-4.3-3.9-4.3-2.1 0-3.9 1.7-3.9 4.4 0 2.6 1.8 4.3 3.9 4.3 2.2 0 3.9-1.7 3.9-4.4z"/><path fill="#e6e6e6" d="m829.6 305.8 1.4-2.1c1.4 1.1 3 1.7 4.4 1.7s2.1-.5 2.1-1.5-1.3-1.4-2.8-1.8c-.1 0-.2-.1-.2-.1-2-.6-4.2-1.4-4.2-4s2.1-4.1 4.8-4.1c1.7 0 3.5.6 5 1.5l-1.2 2.2c-1.3-.8-2.6-1.3-3.8-1.3s-1.9.5-1.9 1.4 1.3 1.4 2.8 1.8c.1 0 .2.1.2.1 2 .6 4.2 1.5 4.2 4 0 2.9-2.2 4.2-5 4.2-1.9 0-4-.7-5.8-2z"/><path fill="#e6e6e6" d="m206.3 434.2c0-5.1 4.1-9.2 9.3-9.2s9.2 4.2 9.2 9.2-4.1 9.2-9.3 9.2-9.2-4.1-9.2-9.2zm17.4-.1c0-4.5-3.5-8.2-8.2-8.2s-8.2 3.7-8.2 8.3c0 4.5 3.5 8.2 8.2 8.2s8.2-3.7 8.2-8.3zm-13.1-.1c0-2.8 2.1-5.1 5.1-5.1 1.9 0 2.9.6 3.9 1.5l-1.4 1.7c-.8-.7-1.5-1.1-2.5-1.1-1.7 0-2.8 1.4-2.8 3.1s1.1 3 2.8 3c1.1 0 1.7-.5 2.5-1.1l1.4 1.4c-1.1 1.1-2.1 1.7-4 1.7-2.9.1-5-2.2-5-5.1z"/><path fill="#e6e6e6" d="m226.1 425.3h3.4l4.2 13.2 4.4-13.3h2.6l4.4 13.3 4.2-13.2h3.3l-6.2 18h-2.7l-4.4-12.8-4.4 12.8h-2.7z"/><path fill="#e6e6e6" d="m252.4 436.4c0-3.9 3.1-7 7.2-7 4.2 0 7.2 3.2 7.2 7s-3.1 7-7.3 7c-4.1 0-7.1-3.1-7.1-7zm11.2 0c0-2.3-1.7-4.3-4.2-4.3s-4.1 2-4.1 4.3 1.7 4.3 4.1 4.3c2.7.1 4.2-1.9 4.2-4.3z"/><path fill="#e6e6e6" d="m269 429.7h3.1v3c.8-2 2.4-3.4 4.8-3.3v3.2h-.2c-2.7 0-4.6 1.7-4.6 5.4v5.1h-3.1z"/><path fill="#e6e6e6" d="m278.6 424.5h3.1v11.1l5.6-6h3.8l-5.4 5.5 5.5 8h-3.5l-4.1-5.8-1.9 2v3.9h-3.1z"/><path fill="#e6e6e6" d="m291.3 436.4c0-3.9 3.1-7 7.2-7 4.2 0 7.2 3.2 7.2 7s-3.1 7-7.3 7c-4.1 0-7.1-3.1-7.1-7zm11.2 0c0-2.3-1.7-4.3-4.2-4.3s-4.1 2-4.1 4.3 1.7 4.3 4.1 4.3c2.6.1 4.2-1.9 4.2-4.3z"/><path fill="#e6e6e6" d="m307.7 438.2v-8.6h3.1v7.6c0 2.1 1.1 3.3 2.9 3.3s3-1.3 3-3.3v-7.6h3.1v13.4h-3.1v-2.1c-.8 1.3-2.1 2.3-4.2 2.3-3 .2-4.8-1.8-4.8-5z"/><path fill="#e6e6e6" d="m323.4 439.4v-7.1h-1.7v-2.6h1.7v-3.7h3.1v3.7h3.6v2.6h-3.6v6.6c0 1.2.6 1.7 1.7 1.7.7 0 1.3-.2 1.9-.5v2.5c-.8.5-1.7.7-2.8.7-2.3 0-3.9-.9-3.9-3.9z"/><path fill="#e6e6e6" d="m332.7 425.3h3.2v15h9.4v2.9h-12.5v-17.9z"/><path fill="#e6e6e6" d="m355.5 443.1v-1.7c-.9 1.1-2.3 2-4.4 2-2.6 0-4.8-1.4-4.8-4.2 0-3 2.3-4.4 5.4-4.4 1.7 0 2.6.2 3.7.5v-.2c0-1.9-1.2-2.9-3.3-2.9-1.5 0-2.6.3-3.9.8l-.8-2.5c1.5-.7 2.9-1.1 5.1-1.1 4 0 5.9 2.1 5.9 5.7v8zm.1-5.6c-.8-.3-1.9-.5-3.1-.5-2 0-3.1.8-3.1 2.1s1.1 2 2.6 2c2 0 3.5-1.1 3.5-2.9z"/><path fill="#e6e6e6" d="m364.4 441.1v2.1h-3.1v-18.7h3.1v7.4c1-1.4 2.4-2.5 4.5-2.5 3.2 0 6.3 2.5 6.3 7s-3.1 7-6.3 7c-2.1 0-3.5-1.1-4.5-2.3zm7.7-4.7c0-2.6-1.7-4.3-3.9-4.3-2.1 0-3.9 1.7-3.9 4.4 0 2.6 1.8 4.3 3.9 4.3 2.2 0 3.9-1.7 3.9-4.4z"/><path fill="#e6e6e6" d="m376.5 441.4 1.4-2.1c1.4 1.1 3 1.7 4.4 1.7s2.1-.5 2.1-1.5-1.3-1.4-2.8-1.8c-.1 0-.2-.1-.2-.1-2-.6-4.2-1.4-4.2-4s2.1-4.1 4.8-4.1c1.7 0 3.5.6 5 1.5l-1.2 2.2c-1.3-.8-2.6-1.3-3.8-1.3s-1.9.5-1.9 1.4 1.3 1.4 2.8 1.8c.1 0 .2.1.2.1 2 .6 4.2 1.5 4.2 4 0 2.9-2.2 4.2-5 4.2-2 0-4.1-.7-5.8-2z"/><path fill="#e6e6e6" d="m505.1 434.2c0-5.1 4.1-9.2 9.3-9.2s9.2 4.2 9.2 9.2-4.1 9.2-9.3 9.2-9.2-4.1-9.2-9.2zm17.4-.1c0-4.5-3.5-8.2-8.2-8.2s-8.2 3.7-8.2 8.3c0 4.5 3.5 8.2 8.2 8.2s8.2-3.7 8.2-8.3zm-13.1-.1c0-2.8 2.1-5.1 5.1-5.1 1.9 0 2.9.6 3.9 1.5l-1.4 1.7c-.8-.7-1.5-1.1-2.5-1.1-1.7 0-2.8 1.4-2.8 3.1s1.1 3 2.8 3c1.1 0 1.7-.5 2.5-1.1l1.4 1.4c-1.1 1.1-2.1 1.7-4 1.7-2.9.1-5-2.2-5-5.1z"/><path fill="#e6e6e6" d="m525 425.3h3.4l4.2 13.2 4.4-13.3h2.6l4.4 13.3 4.2-13.2h3.3l-6.2 18h-2.7l-4.4-12.8-4.4 12.8h-2.7z"/><path fill="#e6e6e6" d="m551.2 436.4c0-3.9 3.1-7 7.2-7 4.2 0 7.2 3.2 7.2 7s-3.1 7-7.3 7c-4.1 0-7.1-3.1-7.1-7zm11.2 0c0-2.3-1.7-4.3-4.2-4.3s-4.1 2-4.1 4.3 1.7 4.3 4.1 4.3c2.7.1 4.2-1.9 4.2-4.3z"/><path fill="#e6e6e6" d="m567.8 429.7h3.1v3c.8-2 2.4-3.4 4.8-3.3v3.2h-.2c-2.7 0-4.6 1.7-4.6 5.4v5.1h-3.1z"/><path fill="#e6e6e6" d="m577.5 424.5h3.1v11.1l5.6-6h3.8l-5.4 5.5 5.5 8h-3.5l-4.1-5.8-1.9 2v3.9h-3.1z"/><path fill="#e6e6e6" d="m590.1 436.4c0-3.9 3.1-7 7.2-7 4.2 0 7.2 3.2 7.2 7s-3.1 7-7.3 7c-4.1 0-7.1-3.1-7.1-7zm11.2 0c0-2.3-1.7-4.3-4.2-4.3s-4.1 2-4.1 4.3 1.7 4.3 4.1 4.3c2.6.1 4.2-1.9 4.2-4.3z"/><path fill="#e6e6e6" d="m606.5 438.2v-8.6h3.1v7.6c0 2.1 1.1 3.3 2.9 3.3s3-1.3 3-3.3v-7.6h3.1v13.4h-3.1v-2.1c-.8 1.3-2.1 2.3-4.2 2.3-3 .2-4.8-1.8-4.8-5z"/><path fill="#e6e6e6" d="m622.2 439.4v-7.1h-1.7v-2.6h1.7v-3.7h3.1v3.7h3.6v2.6h-3.6v6.6c0 1.2.6 1.7 1.7 1.7.7 0 1.3-.2 1.9-.5v2.5c-.8.5-1.7.7-2.8.7-2.3 0-3.9-.9-3.9-3.9z"/><path fill="#e6e6e6" d="m631.5 425.3h3.2v15h9.4v2.9h-12.5v-17.9z"/><path fill="#e6e6e6" d="m654.3 443.1v-1.7c-.9 1.1-2.3 2-4.4 2-2.6 0-4.8-1.4-4.8-4.2 0-3 2.3-4.4 5.4-4.4 1.7 0 2.6.2 3.7.5v-.2c0-1.9-1.2-2.9-3.3-2.9-1.5 0-2.6.3-3.9.8l-.8-2.5c1.5-.7 2.9-1.1 5.1-1.1 4 0 5.9 2.1 5.9 5.7v8zm.1-5.6c-.8-.3-1.9-.5-3.1-.5-2 0-3.1.8-3.1 2.1s1.1 2 2.6 2c2 0 3.5-1.1 3.5-2.9z"/><path fill="#e6e6e6" d="m663.3 441.1v2.1h-3.1v-18.7h3.1v7.4c1-1.4 2.4-2.5 4.5-2.5 3.2 0 6.3 2.5 6.3 7s-3.1 7-6.3 7c-2.2 0-3.6-1.1-4.5-2.3zm7.7-4.7c0-2.6-1.7-4.3-3.9-4.3s-3.9 1.7-3.9 4.4c0 2.6 1.8 4.3 3.9 4.3s3.9-1.7 3.9-4.4z"/><path fill="#e6e6e6" d="m675.3 441.4 1.4-2.1c1.4 1.1 3 1.7 4.4 1.7s2.1-.5 2.1-1.5-1.3-1.4-2.8-1.8c-.1 0-.2-.1-.2-.1-2-.6-4.2-1.4-4.2-4s2.1-4.1 4.8-4.1c1.7 0 3.5.6 5 1.5l-1.2 2.2c-1.3-.8-2.6-1.3-3.8-1.3s-1.9.5-1.9 1.4 1.3 1.4 2.8 1.8c.1 0 .2.1.2.1 2 .6 4.2 1.5 4.2 4 0 2.9-2.2 4.2-5 4.2-2 0-4.1-.7-5.8-2z"/></g>
</svg>
