<?xml version="1.0" encoding="utf-8"?>
<!-- Generator: Adobe Illustrator 23.0.1, SVG Export Plug-In . SVG Version: 6.00 Build 0)  -->
<svg version="1.2" baseProfile="tiny" id="Layer_1" xmlns="http://www.w3.org/2000/svg" xmlns:xlink="http://www.w3.org/1999/xlink"
	 x="0px" y="0px" viewBox="0 0 900 600" xml:space="preserve">
<g>
	<path d="M757.66,524.52v-0.1C757.65,524.44,757.63,524.52,757.66,524.52z"/>
	<path d="M900,115.61c-1.35-4.05-153.64,0.15-157.52-1.93c-0.51-2.34-1.02-5.27-4.07-5.19c-8.47,0.22-17.96-4.75-28.31,2.24
		c-1.66,4.16-0.96,3.46-3.56,3.46c-94.89,0.16-93.5,0.91-92.76-2.24c0.76-3.25-0.72-6.52,0.61-9.57c0.81-1.87,0.91-9.27-3.05-17.21
		c-1.7-2.92-0.35-5.64-3.46-10.69c-1.6-2.59,1.25-4.35-3.67-6.92c0.41-6.31-4.79-14.05-10.28-15.48c-4.18-6.27-4.45-7.64-5.7-7.23
		c-1.93,0.63-2.65-1.12-4.07-1.83c-0.92,0.71-2.24,0.92-3.26,0.71c-1.32,1.32,0.31,3.36-1.53,4.48c-0.51-3.36-0.51-3.36-1.73-4.79
		c-1.43,2.04-0.2,4.79-2.14,6.41c2.34,1.32-0.2,2.04-0.2,3.26c-0.81-1.32,0.61-2.24,0.2-3.26c-2.75,0.81-3.36,3.16-3.67,4.89
		c-10.05,4.71-10.45,15.37-15.27,24.74c-1.42,2.75-3.56,5.6-3.36,8.55c0.31,4.48,0.78,9.5,3.97,12.93c3.53,3.8,5.19,8.65,8.45,12.52
		c-14.05,0-27.9,0-41.85,0c-0.51-2.14-0.83-3.97-1.22-5.7c-0.93-4.06-5.38-5.16-7.33-1.02c-3.05-4.07-7.13-2.75-9.27,0.61
		c-2.04-0.41-3.26-2.55-5.4-2.55c-2.85,1.27-2.1,3.77-2.34,3.77c-4.46-2.98-6.31-4.12-9.57,0.71c0.31,1.32,0.71,2.75,1.22,4.68
		c-11.51,0-22.6,0-33.6,0c-0.53,4.25,0.55,3.67,4.28,3.67c36.82,0,34.29-0.27,35.43,0.71c1.75,1.5,3.56,1.73,5.7-0.1
		c0.92,2.34,1.63,4.17,2.55,6.72c-16.09,0-31.77,0-47.35,0c-0.31,1.63-0.31,2.65,0.81,3.87c44.1,0,23.05-2.53,33.09,12.73
		c-5.93,9.32-3.38,9.99-8.45,37.27c-4.45,23.94-0.51,18.72-2.24,20.87c-2.63,2.93,0.31,10.48,0.41,13.34
		c1.23,34.98,4.48,29.59,21.69,29.94c5.6,0.11,9.46-2.05,12.73-6.21c6.57-8.37,16.15-12.12,20.67-19.24
		c4.46-7.04,10.59-13.24,11.71-22.71c9.75,13.13,42.29,5.67,56.82,12.93c0,4.98,1.15,6.32-1.12,8.04c-0.65,0.65,1.08,3.04-1.83,6.41
		c-11.36,13.15,1.6,35.11,2.55,47.96c0.15,2.07,5.88,10.43,7.64,14.97c1.51,3.92,8.23,18.03,11.3,15.99
		c-0.02-0.1-9.74-20.69-12.73-24.95c-5.52-7.87-1.39-8.17-5.5-19.04c-3.25-8.59-9.53-26.01-2.34-31.87
		c1.3,2.16,1.75,16.48,11.61,35.23c4.47,8.51,14.31,14.47,16.8,25.86c0.8,3.67,0.63,7.62,2.55,11c2.45,4.33,2.34,8.9,2.24,13.55
		c-4.04-3.83-8.5-6.94-14.56-7.85c0.1,2.34,1.62,2.77,2.75,3.26c12.27,5.29,11.17,16.11,23.83,29.53c2.42,2.57,5.95,3.75,7.64,7.23
		c0.84,1.72,2.24,0.81,3.05-0.41c-1.63-3.67-4.79-6.31-4.89-10.49c2.24,4.07,5.58,7.44,6.31,12.12c1.06,6.73,7.34,22.07,8.35,22.91
		c3.57,2.97,3.15,11.87,2.95,18.33c-1.19,39.8,29.51,62.94,45.11,86.85c5.59,8.56,13.44,15.58,17,25.76
		c-3.11,4.44-2.94,2.07-1.02,11.3c-0.71,1.63-2.65,2.34-2.65,4.89c1.83-1.12,3.46-0.61,5.09-0.81c2.34-0.3,4.88-2.44,4.79-4.79
		c-0.18-4.54,3.48-9.85,1.93-14.87c-0.94-3.05,0.05-5.9,0.31-8.86c0.29-3.38,3.39-3.1,11.81-6.62c1.94-0.81,5.8,1.53,6.01,3.46
		c-0.92,0.41-2.14-0.31-2.85,0.81c-0.81,0.81,0.71,1.63,0,2.44c-3.97,1.93-4.68,2.95-4.07,6.11c1.83-2.85,7.13-3.86,7.13-3.76
		c0.56-0.42,1.1-0.86,1.83-1.44c-0.1,1.53-1.22,1.53-2.03,1.93c-0.54,1.14-1.52,2.15-1.33,3.97c2.75-1.22,5.61-1.39,8.35-2.04
		c4.86-1.15,1.37-1.92,8.76-7.23c3.67-2.64,7.12-5.31,11.61-6.41c5.49-1.35,13.64,3.56,14.05,9.16c1,13.68-0.6,26.5-11.51,35.03
		c-20.59,16.11-11.23,23.85-21.08,24.95c-10.22,1.14-15.17,0.94-17.92,5.19c-3.67-0.31-7.13,0.31-10.69-0.31
		c0.9-11.69,11.62-6.69,17.11-20.57c1.26-3.18,0.61-6.09,2.14-4.07c2.4-2.74,1.23-10.2,6.31-12.93c1.19-0.4-1.32-4.79,8.76-15.27
		c7.09-7.37-8.12,2.62-9.37,14.66c-5.44,2.46-5.01,9.81-6.67,12.57c0.05-0.32-0.63-1.37-1.06-0.25c-4.61,12.1,1.02,7-16.6,18.43
		c-0.71-5.29-2.65-10.18-3.26-15.27c-0.62-5.19-5.29-7.94-6.62-12.73c-2.69,5,2.02,8.52,2.34,10.18c1.57,8.04,4.68,15.88,4.07,24.34
		c-0.34,4.69,1.14,3.54,13.54,3.36c2.8-0.04,1.05-1.46,6.31-2.55c10.78-2.23,16.04-1.34,19.45-6.52c3.49,3.49,7.45,3.24,20.36,3.56
		c17.97,0.45,16.03-13.37,35.43-25.96c5.2-3.37,10.43-3.72,14.97-18.23c4.06-12.97-7.9-35.77-14.97-36.04
		c-6.01-0.23-11.71,0.71-16.9,3.87c-16.38,9.96-10.23,12.33-18.02,5.09c-1.19-10.13-2.31-12.37-1.43-16.49
		c0.12-0.54-4.82-31.05-5.91-35.33c-3.81-15.01,5.28,17.64-9.37-39.2c-6.1-23.7-10.25-13.84-11.71-28.51
		c-1.77-17.78-8.63-24.59-8.15-26.17c1.05-3.38,0.19-6.93,1.02-10.28c1.54-6.26,2.95-23.01-2.75-35.64
		c-7.28-16.13-8.12-29.12-19.24-40.52c-2.67-2.74-9.59-12.45-7.94-16.19c0.99-2.25,1.22-4.38-0.31-6.41
		c7.98-7.14,6.75-30.77,6.82-31.26c2.84-19.86-8.83-23.12-6.82-46.02c0.1-0.51-0.1-1.12,0.31-1.63c3.36-3.56,4.17-8.45,6.31-12.93
		c167.95,0,161.89,1.08,161.89-1.93c0-2.24-2.41-1.93-5.5-1.93c-180.24,0-165.13,1.76-151.82-4.38c1.02-1.12,0.1-2.44,1.43-3.26
		C909.54,117.85,899.49,118.26,900,115.61z M803.37,485.72c-0.4-4.28-3.55-0.73,11-11.3c4.34-3.16,14.58-7.1,18.53-3.87
		c9.25,7.56,10.43,16.28,11.2,27.19c0.93,13.08-7.51,17.9-17.92,23.83c-16.15,9.19-10.52,22.99-29.83,23.32
		c-8.87,0.15-20.7,1.23-18.84-7.33C779.59,528.01,806.69,521.5,803.37,485.72z M729.45,120.09c-1.5,4.39-1.53,4.38-5.7,4.58
		c0-1.81,3.25-5.65,0.81-9.47c-1.03-1.62-0.92-3.56-1.32-5.4C728.51,105.59,730.8,116.13,729.45,120.09z M712.83,112.91
		c1.68-3.01,2.76-3.51,8.27-3.51c1.12,4.89,4.07,9.57,0.71,14.46c0.51,1.02,1.32,0.51,1.83,0.81c-0.2,0.61-1.12,1.02-1.32,0.71
		c-1.38-2.01-4.27-1.46-5.63-3.46c-0.08,0-0.13-0.19,0,0c3.9,0.24,1.27-6.54-0.89-9.77C715.15,112.32,711.9,113.22,712.83,112.91z
		 M712.65,112.86c-0.2,0.71-0.31,1.63-1.53,1.02C711.33,112.96,711.84,112.66,712.65,112.86z M586.39,54.92
		c1.1,0,0.82,1.38,0.1,1.02C585.88,55.64,585.99,55.23,586.39,54.92z M578.76,58.38c-0.2,0.71-0.61,1.12-1.73,1.12
		C577.54,58.69,577.64,57.88,578.76,58.38z M573.16,61.44c0.31,0.61,0.31,1.02-0.41,1.32C572.44,62.15,572.75,61.74,573.16,61.44z
		 M566.95,82.11c0.41,0.41,0.31,0.81,0.2,1.32C566.33,83.03,566.33,82.62,566.95,82.11z M562.87,83.64c0.81,0.2,1.12,0.61,0.51,1.43
		C562.26,84.86,562.36,84.25,562.87,83.64z M563.08,97.48c-0.61,0.41-0.81,0-1.12-0.41C562.57,96.67,562.87,96.77,563.08,97.48z
		 M559,82.92c-0.95,1.42-2.14-0.6-0.2-1.32C559.51,82.01,559.31,82.52,559,82.92z M560.84,98.3c1.43,0.92,0.61,3.56,2.44,3.46
		c1.53,0.2,2.24-1.02,3.26-0.61c1.12-1.32-0.41-2.85,1.22-3.87c-1.83-0.71-3.36-1.32-5.09-2.14c4.38-2.95,5.7,3.56,9.27,2.55
		c2.1-2.1-2.24-1.33-2.24-6.92c0.2-2.85-0.63-5.81-0.1-8.55c1.98-10.26-2.8-16.29,4.68-16.29c3.74-7.49,12.31-7.89,16.09-5.91
		c5.62,2.95,9.96,2.35,10.59,6.11c-1.12,0.51-2.34-0.41-3.77,1.22c3.05,0.51,5.6,1.43,7.84,3.26c0.31,4.28,3.87,7.64,3.67,12.32
		c-6.19-2.71-17.3,2.79-12.52,4.38c4.36-5.44,12.35-4.07,13.64-1.22c1.26,2.78,3.29,5.3,2.95,8.65c-0.32,3.14,2.08,5.85-1.43,8.25
		c-2.08,1.42,1.84,1.6,0.31,10.79c-1.22,0.61-2.24,0.41-3.26,0.31c-1.43-1.83,0.2-4.99-3.05-6.11c0.81,2.04,1.63,3.87,0.41,6.01
		c-7.03,0.71-14.15,0.71-21.28-3.16c0.81,2.34,2.44,2.34,3.36,3.36c-5.8-0.71-11.91,1.93-17.51-1.73c-0.1-2.14-0.51-4.07-1.93-5.7
		c1.02-1.93,2.34-3.87,0.1-5.7c-1.53,0.61-0.61,2.24-1.43,2.95C561.45,102.98,560.43,102.07,560.84,98.3z M520.01,108.38
		c0.5,2.21,2.24,9.69,2.24,11.94c2.36-1.73,2.86-1.45,2.04-2.27c210.99,0,192.44-1.57,192.44,3.67
		c-12.24,5.1-12.32,3.56-189.18,3.56c-1.26-4.18-5.52-2.73-5.29-4.96c0,0-0.01,0-0.01,0.01c0,0.05,0.05,0.08-0.07,0.04
		c-0.01,0.01-0.02,0.02-0.02,0.02c0.7-0.7-2.82,1.21-4.48,0.2c-0.41-3.05-0.29-6.42-1.43-9.47
		C515.07,107.98,519.2,104.78,520.01,108.38z M626.1,132.2c-1.3,0.32-1.28-1.68,0.41-1.12C626.82,131.59,626.92,132.1,626.1,132.2z
		 M610.83,129.76c0-0.41-0.73-0.31,6.01-0.31C616.84,129.87,617.55,129.76,610.83,129.76z M610.02,131.9
		c-4.17,0.81-7.84-0.92-11.61-0.71C606.76,130.27,606.76,130.27,610.02,131.9z M511.56,106.95c1.02,0.92,1.93,1.73,2.65,2.44
		c1.12,3.97,0.92,8.15,2.24,11.81c-1.91,3.44-0.99,3.37-4.28,1.73c-1.22-5.19-1.63-10.49-4.48-14.97
		C509.01,106.85,510.33,107.36,511.56,106.95z M493.64,108.18c4.17,1.83,4.17,6.11,5.4,9.77C495.18,115,485.48,111.31,493.64,108.18
		z M497.91,109.4c1.43,0.4,1.72-1.22,2.76-1.63c2.14,1.12,3.75,3.11,6.11,3.77c2.56,0.71,2.75,9.32,2.04,13.75
		c-1.22-0.71-1.12-3.26-3.46-2.34C504.33,117.54,500.56,113.78,497.91,109.4z M547.8,192.07c-0.71-1.53,0.71-3.26-0.81-5.09
		c-5.32,15.96-4.2,23.1-27.7,41.24c-6.87,5.3-7.34,12.55-18.73,12.93c-4.38,0.14-10.69-0.31-15.17-2.04
		c-1.02-3.26-1.72-6.82-1.63-10.39c0.64-26.05-4.89-1.75,0.71-45.92c1.09-8.57,4.44-12.48,0.92-14.05
		c6.05-16.88-0.66-12.38,7.74-26.37c-2.04-3.67-3.87-7.84-3.46-12.83c22.85,0,13.17-0.2,14.36,2.95c11.9-9.21,11.18,3.69,18.73-1.43
		c-1.73-0.71-3.85,0.09-5.09-1.53c-1.07-1.39-2.13-7.42,1.73-6.21c0.49,0.15,6.99,0.23,5.8,4.07c-3.3,10.67,1.68,7.26-9.16,12.83
		c-16.29,8.37-10.81,39.5-5.7,57.12c2.72,9.39,5.46,15.68,3.16,21.79c-0.58,1.54-0.71,3.36-0.31,4.99c2.44-2.95,2.73-6.52,2.75-9.98
		c0.14-20.86-11.08-26.6-1.53-32.89c7.16-4.72,0.24-12.44,8.35-25.25c10.44-16.5,21.96-16.26,38.69-18.23
		c8.46,10.65,0.65,19.29,0.51,25.05c-8.96,4.89-19.24,2.14-27.9,6.92c1.22,0.41,23.72-0.1,25.46-0.61c1.53-0.61,0-2.34,1.32-2.95
		c2.23,0,0.26,6.97,2.24,21.38c0.62,4.48-2.85,6.92-4.99,10.18C553.91,196.76,550.45,195.13,547.8,192.07z M600.14,204.9
		c-1.53-1.22-3.46-1.93-5.19-2.85c-0.81,0.92-1.93,0.6-2.95,0.41c-13.15-2.52-19.24,0.75-30.65-3.87c5.4-5.29,6.72-11.51,4.07-18.53
		c3.26-0.41,5.19,1.43,8.04,2.34c-1.93-2.95-4.48-4.07-7.23-5.09c-0.71-5.29-1.11-10.69-0.92-16.09c0.15-4.17,6.54-10.85-1.32-24.13
		c4.89-2.85,9.88-5.5,16.29-5.5c-1.53-2.34-3.16-1.53-4.38-1.43c-9.77,0.24-8.58,6.65-27.39,6.92
		c-15.82,0.23-35.18,15.51-31.87,37.98c-2.55,2.34-4.38,5.29-6.41,8.76c-2.44-7.13-4.1-37.49,5.6-40.73
		c1.53-0.51,2.84-1.54,4.28-2.24c3.85-1.87,6.67-4.48,6.72-9.16c0.03-2.93-4.07-2.14,70.36-2.14c-4.38,0-8.55,1.43-12.93,1.32
		c0,1.32,0.81,1.34,1.63,1.43c23.33,2.46,23.91,2.93,27.39,1.22c10.74-5.28,14.97,5.76,23.22,4.28c-3.26-0.81-5.4-3.26-8.15-4.89
		c0.81-1.43,2.34-1.22,3.26-1.83c1.38-2.53-18.24-1.63,71.99-1.63c1.48,2.59-2.9,3.59,2.34,6.21c1.22,0.71,2.16,1.73,2.14,2.95
		c-0.05,3.37,2.71,9.81,1.43,16.7c-0.48,2.55-0.71,5.4-0.31,7.94c0.93,5.9-1.32,11.3-2.34,16.9c-0.1,0.81-0.2,1.93-1.53,2.44
		c-2.99-4.98,1.34-4.77-17.41-18.12c-4.38-3.12-11.39-12.22-14.87-14.36c-3.06-1.88-7.55-19.08-23.52-19.45
		c-0.2,4.03,10.61,0.73,14.76,10.08c4.68,10.54,6.68,9.39,8.96,12.32c3.39,4.36,7.25,8.34,9.77,13.34c1.75,3.45,5.31,5.39,7.74,8.35
		c6.18,7.54,8.6,16.04,11.51,23.01c-6.29-1.45-18.13-5.28-27.9-4.89c-25.99,1.04,5.74-2.52-45,3.36
		C604.63,199.11,606.89,210.28,600.14,204.9z M701.14,200.22c-1.02,0.71-1.93,0.41-3.26-0.2C699.31,199,700.13,199.71,701.14,200.22
		z M696.56,199.61c0,0.97-1.31,0.64-1.12-0.1C695.44,199.19,696.32,198.63,696.56,199.61z M671.01,195.64
		c-1.32,1.02-2.44,0.81-4.17,0.61C668.46,195.23,669.58,195.33,671.01,195.64z M665.41,195.44c-1.53,1.12-2.95,0.2-4.38,0.41
		C661.03,194.94,660.25,195.07,665.41,195.44z M652.17,195.33c-0.81,1.32-5.19,2.24-10.79,2.04
		C644.94,196.76,648.5,196.05,652.17,195.33z M630.18,199.51c-0.71,0.92-1.32,1.63-2.65,0.31
		C628.45,199.2,629.16,199.1,630.18,199.51z M624.07,202.46c-1.22,1.02-1.63,0.81-1.93,0.1
		C622.74,201.54,623.15,202.36,624.07,202.46z M618.47,202.26c-0.05,2.04-1.02,2.24-2.65,1.02
		C616.84,201.97,618.49,201.53,618.47,202.26z M611.85,206.02c-0.31-0.81-0.51-1.32,0.2-1.73
		C613.17,204.9,612.36,205.31,611.85,206.02z M608.28,205.21c-0.31,2.44-1.32,4.17-1.22,6.11
		C605.74,209.18,605.64,207.14,608.28,205.21z M650.64,334.93c-7.56-5.62-6.86-8.17-15.58-23.52c3.63,0-2.29-14.25,4.69-1.32
		C644.96,319.72,654.86,323.8,650.64,334.93z M736.48,503.75c-0.38,2.14,1.22,5.29-2.34,6.72c-0.41-2.85-0.92-5.4-1.93-7.94
		c2.55-1.63,3.46-4.79,6.41-6.11C738.11,498.96,736.92,501.21,736.48,503.75z M742.89,480.43c-7.43,1.54-5.23,13.56-7.84,14.87
		c-3.36-9.67-11.52-15.94-16.8-24.34c-8.01-12.75-7.76-12.38-17.21-21.48c-12.45-12-7.69-10.63-11.1-15.17
		c-3.77-4.07-5.27-9.28-7.64-14.05c-13.11-26.5-7.42-36.44-9.47-47.04c-0.22-1.12,0.71-1.63,1.02-2.24
		c-4.38-8.25-8.85-16.09-11.2-25.05c-1.42-5.4-5.15-9.39-7.53-14.25c-0.3-0.61-0.92-1.02-2.14-0.92c5.2-7.32,2.95-14.77,8.86-17
		c4.71-1.78,9.06-4.37,14.15-5.09c4.28-0.6,8.12-2.06,11.51-5.19c2.22-2.05,8.45-1.63,11.71,0.51c1.52-0.19-1.96-1.83,3.97-0.92
		c0.85,7.77,5.76,15.36,3.56,31.77c-0.61,4.58-0.92,9.07,0.81,13.64c2.43,6.41-0.3,34.83,6.11,41.24c5.5,4.58,6.92,11.51,9.98,17.51
		c2.75,5.4,4.25,11.3,4.07,17.31c-0.42,14.46,10.19,28.86,11.61,34.21C742.22,469.67,751.59,478.63,742.89,480.43z M761.52,483.08
		c-2.34-5.8-6.21-7.64-12.42-6.01c-0.22-8.18-16.64-26.09-17.82-51.52c-0.6-13-9.79-33.02-17.11-41.64
		c-6.18-7.28,1.11-26.54-5.7-38.59c2.14,0.61,3.77,1.12,5.5,0.81c3.26,6.21,5.41,13.02,10.08,18.12
		c15.03,16.43,10.34,32.28,14.15,48.26c6.26,26.27,21.16,30.11,25.35,50.1c1.51,7.21,5.91,13.24,9.06,20.06
		C767.41,487.01,769.92,486.93,761.52,483.08z M708.37,338.39c4.17,4.81,4.33,4.47,0.71,3.56
		C708.88,341.04,708.68,340.12,708.37,338.39z M732.2,237.79c22.57,30.54,8.12,14.23,23.62,48.06
		c-40.19-16.69-54.63,26.3-46.02,14.66c3.59-4.86,13.17-14.29,22.1-14.76c11.34-0.61,23.7-3.04,25.46,8.96
		c4.14,28.37-4.9,25.62,3.46,44.19c5.37,11.93,2.88,20.47,7.84,27.29c12.72,17.48,24.11,104.24,25.76,108.54
		c-3.97-1.02-7.43-1.52-10.89,0c-3.26,1.43-6.92,1.83-8.25,6.21c-4.07-7.74-8.79-14.55-10.28-23.01
		c-3.22-18.19-17.32-18.43-22.5-43.58c-2.77-13.43-2.95-29.99-9.37-41.75c-8.08-14.8-11.58-12.43-17.11-28.71
		c-1.79-5.27-6.62-4.49-6.62-13.34c0-8.15,1.53-16.7-3.16-24.23c0.62-6.56-5.48-17.59-5.4-20.36c19.51-18.08,21.27-18.6,24.23-24.64
		c-7.33,8.45-17.11,14.25-24.44,23.72c0-9.6-1.17,4.22,11.4-19.24c-4.99,2.65-8.15,7.33-11.61,12.22
		c-1.02-6.11-2.98-11.27-6.92-15.37c-1.4-1.45-0.61-3.87-1.93-5.7c-2.84,0.76-8.18-6.52-19.45-6.52c5.91,2.95,12.73,4.38,18.02,9.16
		c0,5.9,6.7,7.52,7.23,18.94c0.21,4.58,1.32,8.86,4.07,12.63c-1.12,3.36,0.92,6.31,1.12,9.57c-5.08,0.78-13.17-2.49-18.02,1.83
		c-3.43,3.06-2.66,0.25-25.56,10.08c-4.31,1.85-4.55,5.18-6.82,11.51c-7.39-10.64-1.53,1.25-16.7-24.23
		c-5.05-8.48-0.74-15.33-10.49-26.58c-22.75-26.23-19.01-41.15-21.89-49.18c6.27-13.38-1.06-10.96,28.61-10.59
		c-12.38-4.8-20.93-0.74-21.38-3.46c1.93-0.2,3.56-1.76,5.4-1.93c13.78-1.34,8.16-7.63,33.02-7.63c0.83-3.07,2.3,0.58,10.46-1.64
		c7.16-1.94,9.1,6.41,11.1,6.41c0.71-2.65-1.93-4.17-2.24-6.52c0.71-0.71,1.73-0.4,2.55-0.71c10.69-4.08,16.84,4.38,30.04,4.38
		c4.48,0,5.49-1.24,6.82-0.41c5.18,3.8,12.39,1.96,13.85,5.7c-8.82-1.84-11.36-3.41-13.24,0c4.99,0.81,9.67,1.63,14.46,2.55
		c3.05,4.07,2.24,10.18,7.33,13.44C726.6,229.24,729.04,233.52,732.2,237.79z M726.29,144.73c2.04,2.34,1.93,3.26-0.51,4.48
		c-0.61,2.45-0.78,10.93,1.73,11.1c0.51,0.1,0.61,0.51,0.81,1.02c2.14,7.13,6.1,13.75,6.52,21.38c0.58,10.49,1.25,28.11-5.19,37.78
		c-4.3-2.95-0.41-3.39-6.41-14.05c-2.54-4.5-8.56-2.48-14.36-5.91c-2.56-1.51-5.29,0.8-5.09-1.93c1.02-0.92,1.43,0.92,2.55,0.41
		c0.92-2.14,0.31-4.07-1.12-5.8c-1.53,0-1.02,1.22-1.63,1.93c-3.16-5.29-4.17-11.61-7.64-16.8c-3.46-5.19-8.96-8.45-12.52-13.54
		c1.02-0.61,1.53-0.1,1.83,0.31c5.91,7.94,19.55,14.77,18.73,24.34c0,1.43,0.71,1.42,1.02,1.63c3.67-6.01,4.36-12.8,6.41-19.14
		c1.45-4.48-1.94-11.77,1.22-12.93c-2.14-10.72,3.42-19.31-6.82-25.96c0.41-2.24,0.92-4.48,1.93-6.72c2.95,0.2,5.22-3.61,8.25-1.73
		c1.44,0.89,4.28,0.61,3.97,3.77c-3.9,3.16-10.98,1.51-6.01,4.99c2.55-1.22,5.94-0.68,8.15-3.26c0.71-0.83,0.79-0.61,12.42-0.61
		C733.12,135.56,729.76,140.15,726.29,144.73z M730.67,123.35c2.85-4.68,0.81-9.06,0.2-13.34c1.73-0.81,2.83-0.51,3.16,1.02
		C735.47,117.78,737.05,120.91,730.67,123.35z M737.7,120.29c0-3.26-1.32-6.31-1.22-9.98c2.44-0.31,3.56,0.71,3.56,2.95
		C740.04,118.03,741.56,120.89,737.7,120.29z"/>
	<path d="M163.65,261.52c1.92,1.12,3.76,2.23,6.1,2.44C167.91,262.64,166.38,260.62,163.65,261.52z"/>
	<path d="M452.7,447.64c-12.35-12.84-27.14,2.68-32.58,19.65c-4.01,12.5-3.93,0.09-4.79-2.75c-1.41-4.69-3.96-8.86-5.6-13.34
		c-2.02-5.5-5.92-7.35-11-8.04c-7.16-0.98-6.92-6.8-25.56-22.2c-3.57-2.95-4.58-7.74-8.25-10.49c-1.64-1.1,1.56-1.07-3.77-9.06
		c1.43-4.07,2.05-8.15,1.02-12.32c-0.62-2.49,4.08-3.23-1.22-10.59c-10.32-14.32-24.37-19.11-42.76-28.31
		c-7.78-3.89-3.31-5.17-6.21-8.65c-2.44-3.46-6.36-4.94-9.27-7.74c-0.73-0.7-1.93-0.51-2.95-0.31c-8.6,1.72-8.95-0.31-9.98,0.71
		c-0.81,0.61-0.1,1.32-0.2,1.73c-2.24,2.85-4.89-1.83-7.23,0.61c3.26,2.85,9.64,3.72,12.83,1.22c2.12-1.66,4.28-1.22,6.31-1.93
		c16.67,16.67,7.36,13.37,25.15,20.97c6.93,2.96,26.91,13.52,33.19,25.05c-3.29-0.17-6.95-8.53-16.7-9.27
		c-19.88-1.5-37.69,14.99-39.61,27.39c-5.23-4.42-6.55-2.17,6.92-21.18c-0.57-0.57-9.49,8.36-12.42,15.48
		c-3.58-1.79-0.2-6.37-0.31-8.96c-0.47-11.44,4.52-16.25,3.46-17.31c-4.68,5.8-5.91,12.93-7.64,20.06c-2.85-1.73-5.09-3.56-7.53-5.7
		c3.2-1.6,2.42-6.91,6.41-19.14c4.65-14.23,14.26-7.5,18.94-13.75c-11.94,2.49-20.19,3.17-20.57,14.05c-0.1,0.92,0.2,1.93-0.31,2.75
		c-3.15,5.1-3.74,13.95-5.5,14.76c-1.43-0.71-1.83-2.04-1.83-3.46c0-4.68-1.99-9.05-1.22-13.85c0.33-2.03-0.91-3.88-2.65-4.99
		c-6.84-4.38-3.96-13.52-15.17-19.24c-0.93-0.48-0.51-0.01-0.51,0.41c9.72,8.05,7.84,10.07,9.77,13.34
		c7.07,11.95,3.66,13.06,6.41,13.85c0.2-2.55-1.12-4.68-0.81-7.03c2.24,5.09,1.63,10.49,1.73,15.88c-5.1-3.49-3.24-6.94-11.81-13.44
		c-9.23-7-19.11-16.35-26.98-11.1c12.42,3.16,22.81,9.57,31.67,18.33c-0.51,0.92-0.81,1.43-1.12,1.93c16.09,19.3,5.65-1-21.08,19.85
		c-8.58,6.69-11.3,17.21-13.03,27.8c-6.27-3.14-1.07-1.42-12.22-11.71c-4.74-20.64-3.67-18.02-4.79-18.02
		c0.51,5.4,1.53,10.79,3.05,16.8c-19.17-16.05-12.19-14.45-18.94-17.31c0.22,2.47,1.12,1.63,6.52,7.03
		c0.65-1.31-0.98,2.6,14.76,13.85c4.28,3.05,6.24,8.1,10.49,11.3c1.33,1.01,0.91,2.54,0.31,3.87c-2.94,6.5,1.77,9.33,0.41,10.69
		c-9.78-3.79-12.16-3.59-13.95-7.13c-10.24-20.29-24.89-28.9-28.61-38.18c-1.95-4.87-5.61-15.22-2.44-19.45
		c10.75,5.15-0.65,9.73,7.33,18.63c0.31-3.67-1.43-7.23,0.1-11.1c1.83,1.73,2.14,3.97,3.97,5.29c-0.61-4.48-4.68-7.84-3.36-13.44
		c3-4.37,9.56-7.55,11.3-11.4c-4.58,0.2-5.59,4.19-8.04,6.11c-9.59,7.49-0.88,12.97-9.06,4.79c1.93-3.16,1.43-6.92,3.46-10.49
		c-2.14,0.81-1.53,2.65-2.75,3.26c-2.1-0.7-3-0.11-2.57,2.11c-2.24-4.42-9.64-7.02-14.54-13.72c-0.71,2.75,2.34,3.36,1.63,5.5
		c-10.77-4.79-18.03-2.35-32.28-23.72c5.01-0.42,9.18-1.73,12.12-11c1.74-5.5,5.7-9.37,9.27-13.85c4.17,1.83,8.65,2.34,12.63,4.48
		c-1.3-5.83-9.64-4.32-11.51-5.91c0.71-1.02,1.12-2.34,2.44-2.85c5.29,1.02,10.18-0.1,14.97-2.14c-4.89-0.71-9.67,0.51-15.17,1.02
		c6.21-7.94,4.99-15.58,0-23.52c9.96,0.66,14.7,10.69,29.73,8.65c10.74-1.45,11.32,2.77,13.64,1.73c0.71-1.12-1.22-1.63-0.92-2.14
		c9.06-5.8,18.94-7.03,28.61-9.37c6.16,7.97,13.38,7.38,20.87,23.72c0.81,1.53,2.14,2.95,2.04,4.89c-2.14,0.51-1.43-2.44-4.07-2.34
		c3.77,4.99,8.76,7.33,13.34,10.49c-0.41,2.55-0.95,5.12,0.92,7.64c1.6,2.16,1.12,5.6,3.87,7.43c4.33-3.35-4.9-5-0.61-14.36
		c21.67-47.32,29.96-15.41,43.38-84.31c-7.54,1-2.45,25.23-21.59,49.59c-5.65,7.19-19.43,17.53-20.26,21.99
		c-0.81-1.43-0.61-2.95-2.24-4.28c-0.1,5.29,3.67,10.39-1.22,14.66c-4.32-8.11-4.51,0.6-9.37-8.45
		c-14.21-26.49-11.62-17.41-23.42-28.1c7.74-3.56,14.05-8.76,22.4-10.39c-4.57-5-14.39,4.24-21.48,7.33
		c-1.63,0.71-3.36,1.53-4.68,2.85c-10.58-0.92-10.32,4.4-26.88,3.16c-1.32-0.1-2.55,0.1-3.46,2.04c2.95-0.1,5.5-0.2,7.94,0.51
		c-3.67,0.51-6.82,2.34-10.39,3.05c-0.41-1.12-0.81-1.83-1.93-1.93c-5.06,0-0.95-1.96-2.14-6.92c-1.63,2.34-1.73,4.99-3.46,7.23
		c-3.16-1.83-6.52-2.55-10.08-3.05c-2.13-0.71-5.74-4.56-19.55-4.89c-1.12-0.03-2.63,0.39-3.36-0.41
		c-1.99-2.17-10.14-8.08-8.55-9.67c0.37,0,4.75,1.45,3.68-3.97c-0.01-0.03-0.01-0.07-0.01-0.11c-0.51-0.1-0.61-1.22-1.53,0.2
		c-1.02,0.71,0,2.14-0.92,2.85c-5.5-0.81-6.62-1.83-6.62-6.01c2.26,2.26,0.08,5.09,6.92,2.65c-1.12-1.32-0.2-2.34,0.1-3.46
		c-1.63-0.92-3.46-1.02-4.89-2.14c5.45-2.73,6.57,5.35,9.88,2.04c-5.95-9.83-1.21-13.61-2.65-27.08c-0.31-2.95,1.22-4.17,4.38-4.07
		c4.84-7.26,11.54-7.88,14.05-6.72c8.03,3.71,12.11,3.44,12.63,7.03c-1.12,0.51-2.65-0.92-3.46,1.32c3.05,0.1,5.5,1.43,7.74,3.16
		c0.31,4.38,3.87,7.74,3.36,12.22c-5.19-1.63-8.25-1.02-13.75,3.05c0.1,0.81,0.51,1.22,1.43,1.32c6.28-6.28,12.25-4.18,15.07,1.63
		c1.23,2.54,0.95,5.08,1.53,7.64c0.65,2.84,0.61,5.29-1.93,6.92c1.53,3.56,0.81,7.03,1.02,10.89c2.44,0.92,2.04,4.79,5.5,5.8
		c0-5.55-3.88-6.47-3.56-8.15c0.64-3.35-0.32-6.62,0.51-9.98c1-4.08,1.06-8.58-0.92-12.12c-2.99-5.33-2.34-11.81-6.21-16.7
		c-0.5-0.99,1.73-3.31-2.65-5.5c-0.81-7.94-5.29-14.46-10.89-15.78c-1.73-4.38-4.79-7.53-9.98-8.65c-0.61,1.22-2.24-0.2-3.05,0.51
		c-1.12,1.53,0,3.26-1.22,4.48c-1.32-1.63,0-3.67-1.53-5.09c-1.75,1.57-0.85,3.88-1.7,5.58c0.68,1.28,0.11,1.59-0.78,2.85
		c0.56-1.04,0.51-0.71-0.18-0.43c0.02,0.1-0.05,2.5-1.09,3.82c0.48-2.74,1.53-5.54,1.62-5.76c-2.86,1.04-3.87,3.45-4.57,6.16
		c-1.22,0.2-2.02,1.04-2.95,1.73c-5.7,4.21-7.28,10.71-9.57,16.8c-1.69,4.49-4.38,8.55-5.7,13.75c-3.97-8.37-5.19-10.37-5.51-10.66
		c-0.03-0.18-0.09-0.45-0.19-0.85c-2.4-9.61-0.55-23.28-4.17-32.48c-20.25-51.5-14.48-48.21-17.72-53.05
		c-5.15-7.69,13.32-6.85,14.25-17.41c0.4-4.51-19.57-3.16,195.09-3.16c0.94,2.36-1.5,3.32,1.12,4.89c5.82,3.05,3.59,4.88-0.71,17.31
		c-2.48,7.15-3.88,10.73-15.78,31.06c-13.92,23.78-7.61,24.66-11.71,35.43c-10.08,5.09-17.79,12.28-22.5,22.4
		c-8.59,18.46-11.33,24.08-11.91,31.06c-0.31,3.67,0,7.33-1.73,10.79c-0.41,0.81-0.51,1.83,0.71,2.34
		c3.47-1.98,1.06-3.18,4.48-10.79c0.82-1.83,0.1-3.26-1.93-3.97c1.22-1.83,0.81-3.87,1.83-5.5c6.16-9.77,11.84-32.58,31.06-43.88
		c3.31-1.95,2.43-5.67,3.46-6.52c2.74-2.26,1.93-5.6,3.46-8.65c-1.63,0.51-1.32,1.83-2.44,2.24c0.77-9.4,5.79-16.29,14.36-30.24
		c1.63-2.65,2.14-6.11,3.77-8.55c5.91-8.86,8.65-18.68,11.2-28.82c1.2-4.77-3.61-6.5-4.17-7.74c0.71-1.63,0.32-4.16,2.04-5.19
		c1.62-0.97,3.06-2.51,5.04-3.01c-1.37,2.29-1.32,2.35,0.24,3.73c0.19-1.16,0.38-2.33-0.04-3.76c2.69-0.51,5.88,1.48,6.86,3.35
		c-1.93,2.34-5.09,2.34-7.53,3.46c1.63,5.86,4.81-3.55,22.2-1.32c-1.63,3.97-2.64,8.05-5.29,11c-10.72,11.92-8.37,35.71-12.83,49.18
		c-14.58,44.06-14.32,22.18-17.11,42.15c5.98-2.99-0.33-3.21,6.82-12.22c19.02-23.98,13.22-63.95,26.78-80.34
		c2.35-2.84,2.44-6.82,4.68-10.18c12.73,0,25.66,0,38.39,0c3.43-5.15-0.79-3.87-42.26-3.87c1.22-1.73,2.14-2.95,2.95-4.07
		c3.36,1.22,4.68,0.71,6.92-3.16c10.89,0,21.99,0,33.09,0c0.2-1.43,0.61-2.44-0.51-3.56c-37.99,0-33.37,1.07-34.31-3.26
		c-0.38-1.74-1.53-3.39-3.16-3.16c-3.06,0.45-5.91-1.93-8.96-0.31c-3.03-3.03-6.16-0.49-8.15-1.02c-4.3-1.15-7.48,1.21-10.89,3.16
		c-1.31,0.75-1.63,2.24-1.12,4.28c3.56-2.65,6.21-6.52,11.51-5.29c1.12,4.89,3.97,9.57,0.61,14.56c0.92,0.92,1.43,0.51,1.93,0.31
		c0.1,2.34-1.23,1.94-2.14,0.81c-1.85-2.29-4.44-0.93-3.77-2.95c1.63-1.02,0.92-2.95,2.24-4.07c-1.93-1.93-2.65-4.28-4.17-6.11
		c-1.12,0.51-2.04,0.92-2.85,1.22c-0.51,0.61,0.41,1.53-0.51,1.93c-232.28,0-206.12,2.14-208.02-4.99c-0.95-4.5-4.36-6.44-7.74-1.83
		c-3.29-4.28-7.27-2.45-9.16,0.71c-5.8-3.36-5.8-3.36-8.35,0.71c-2.24-1.93-4.48-3.16-7.33-1.02c-3.83,2.87,1.76,6.71-1.53,6.72
		c-95.22,0.16-90.72,0.67-92.25-0.31c-3.53-2.25-6.77,4.38,1.63,4.38c102.7,0,96.41-0.44,97.44,0.31c2.13,1.54,4.17,1.63,6.31,0.31
		c3,8.56,17.34,5.72-99.17,5.91c-1.73,0-4.63-0.92-4.58,2.04c0.04,2.55,2.75,1.73,4.48,1.73c90.03,0,82.97-0.31,84.41,0.61
		c0.81,5.09,1.12,10.49,6.01,13.95c-1.32-4.58-3.77-8.96-3.16-14.25c2.83,0,2.47-0.06,2.04,0.1c2.24,1.83,4.99,0.71,7.43,1.22
		c-0.66-0.6-1.35-1.03-2.07-1.32c14.06,0,5.76,0.28,6.95,3.36c3.16-2.34,6.31-4.79,10.69-3.16c3.16,3.56,5.5,4.07,7.64,1.53
		c-5.4-0.61-5.8-1.02-5.8-6.82c2.65-1.83,5.19-0.1,7.64,0.41c1.93,4.28-1.02,7.94-0.51,11.91c-3.77,1.43-6.92,3.37-10.08,5.19
		c-2.13,1.23-4.19,2.95-3.77,5.7c1.09,7.13,0.55,14.34,4.07,21.28c1.7,3.36,14.63,39.6,16.09,46.02c0.88,3.85,0.61,18.08,2.04,21.18
		c17.86,38.75,14.09,36.01,17.41,37.88c1.63-1.73-0.41-3.46,0.41-4.99c0.81,0.31,1.32,1.12,1.43,1.83
		c2.17,10.37,9.35,1.02,15.99,16.19c-2.34,2.04-1.06,5.22-2.34,7.64c-1.37,2.58-2.85,4.99-4.28,7.43c-4.79-0.31-8.35-2.55-11.51-5.8
		c2.55-6.52,2.04-17.11-1.02-20.47c-1.59,5.31,3.23-0.01-0.1,16.8c-1.68,8.48,3.39,9.69,11.1,11.51c-1.22,3.16-4.89,0.31-6.11,2.75
		c0.61,1.73,2.14,0.71,3.16,1.63c-6.36,8.42-6.64,17.5-10.39,20.36c-6.81,5.2-8.96-6.23-12.93-9.67
		c-3.04-2.64-16.28-18.92-13.64-21.79c2.04,4.79,4.89,8.65,9.27,11.3c-1.83-2.95-4.21-5.48-5.8-8.55c-1.57-3.03-3.87-5.4-6.21-7.74
		c-3.58-3.58-5.28-8.54-4.79-8.04c-1.63-2.65-3.26-5.5-3.26-8.55c0-8.04-1.43-16.09-0.2-24.13c0.63-2.53-2.58-1.88-0.31-10.69
		c3.61-13.96-8.02-9.9-11.81-51.52c-0.2-2.25-1.96-34.75-1.53-37.16c0.44-2.44-0.92-5.09-0.92-8.15c-2.55,1.73-2.47,3.47-1.73,5.29
		c3.04,7.44-4.96,0.06,4.58,60.18c1.65,10.38,8.35,18.94,10.28,29.43c-1.02,0.71-1.21,1.94-1.32,3.36
		c-1.74,21.48-2.78,39.71,11.2,52.84c-2.52,4.2,9.34,22.92,13.03,23.72c8.03,1.76,5.83,20.97,25.05,31.87
		c15.36,8.72,20.35,7.12,22.5,9.27c6.74,6.74,6.76,1.33,6.31,8.35c-0.15,2.29-6.02,10.46,3.97,26.47
		c5.78,9.27,17.64,16.76,27.49,35.43c3,5.69,7.43,4.58,16.39,8.25c11.2,4.58,10.15,11.52,19.35,11.71
		c6.21,0.13,12.22,1.93,18.73,1.63c1.32,5.7,3.64,10.9,5.7,16.29c5.06,13.24,4.31,14.28,40.63,30.55
		c0.58,3.47-7.12-1.83,21.89,12.01c2.47,1.18,3.87,3.46,6.21,4.68c-0.51,0.81-1.63,1.02-1.43,2.04c0.5,2.45,3.16,2.14,4.89,3.56
		c-2.85,3.46-1.02,6.11,1.32,8.76c4.28,5.71,0.11-4.06,8.15,12.42c1.7,3.48,2.96,8.03,6.41,9.47c5.31,2.21,10.8,5.14,17.11,3.67
		c10.3-2.41,20.78-12.78,18.02-28.61c-2.37-13.59,2.34-15.63,3.97-18.73c9.15-17.38,6.55-24.48,7.33-10.59
		c0.92,16.39-11.67,20.27-10.18,25.05c2.24-4.48,6.23-7.52,9.06-11.51c5.23-7.36,1.52-10.87,2.34-23.11
		c0.17-2.52,0.01-11.81-0.31-14.46c2.95-1.02,3.69-3.86,4.48-6.41c2.79-8.97,15.65-26.63,24.13-21.18c-2.4,1.47-2.57-5.2-13.24,7.84
		c3.77-1.22,5.91-4.99,9.27-6.82c1.22,0.31,2.34,0.54,3.46,0.71c8.06,1.25,5.28,5.54,9.47,7.64c3.1,1.55,8.14,15.81,9.16,19.04
		c1.75,5.51-2.93,15.32-4.79,20.77c-3.75,11.04-7.47,10.5-9.47,13.85c-10.42,17.48-4.24,40.21-37.57,38.49
		c-2.34-0.12-4.53-1.72-4.99-4.58c-0.11-0.71,0.2-1.73-1.02-1.83c-0.74,10.51,3.91,8.75,12.73,9.27
		c14.87,0.86,25.08-12.68,27.7-24.23c5.06-22.35,10.13-11.55,18.73-39.3c1.39-4.49,2.95-9.16,1.12-14.15
		C463.69,464.24,459.74,454.96,452.7,447.64z M192.96,364.66c0.92,1.22,1.93,2.44,0.31,4.38
		C192.65,367.31,192.76,365.98,192.96,364.66z M201.82,285.44c-7.53,0.81-14.05-2.14-20.57-5.29
		C188.17,281.88,195.3,282.29,201.82,285.44z M190.41,216.1c0-0.1,0.41-0.2,0.51-0.2C191.86,216.84,189.85,216.95,190.41,216.1z
		 M180.64,214.48c0.79,0,0.4,1.67-0.61,0.92C179.93,214.88,180.13,214.58,180.64,214.48z M172.9,217.73
		c-0.1,1.02-0.81,1.12-1.63,1.53C171.48,217.84,171.98,217.63,172.9,217.73z M167.5,220.58c0.2,0.61,0.31,1.12-0.51,1.43
		C166.38,221.3,166.89,220.99,167.5,220.58z M161.4,241.46c0.1,0.71,0,1.12-0.61,1.22C160.28,242.17,160.28,241.66,161.4,241.46z
		 M156.92,242.99c1.48,0.63,0.81,1.53,0.31,1.53C156.61,244.21,156.41,243.8,156.92,242.99z M362.08,110.11
		c4.39-1,3.46,2.85,3.46,9.37c-0.2,0.41-0.92,0.81-2.34,0.41C363.41,116.52,361.78,113.57,362.08,110.11z M359.64,110.82
		c0.97,4.69,3.25,10.13-2.44,12.32c-1.32-2.55,1.69-4.46,0.71-6.92C354.2,106.92,359.25,108.94,359.64,110.82z M349.15,123.86
		c3.54-6.85,1.08-6.79-0.41-14.25c3.97-1.83,4.86-1.11,6.01,2.95c1.32,4.68,0.48,10.77-2.65,11.81
		C351.5,124.29,350.09,123.96,349.15,123.86z M97.25,111.03c4.04-5.84,8.25,0.52,8.76,7.13C103.05,115.81,99.08,114.79,97.25,111.03
		z M116.09,125.79c-0.81-2.04-2.14-2.34-3.67-2.34c-0.51-5.29-4.48-8.55-6.52-13.24c1.45-1.69,1.79-2.38,2.34-1.83
		c6.67,4.71,7.13,3.39,7.43,6.41c0.26,2.65,1.73,5.29,0.31,8.04C115.68,123.35,115.98,124.16,116.09,125.79z M122.3,124.36
		c-5.62,0-2.08-8.45-7.43-15.48c0.71-2.14,2.55-1.12,3.87-1.43c5.16,2.77,2.88,11.05,5.09,13.95
		C123.21,122.53,122.81,123.35,122.3,124.36z M130.75,122.23c-2.9-0.6-0.2-2.63-2.37-1.53c-1.15,0.58-2.02,0.9-3.33,0.32
		c0.1-4.38-2.34-8.65-1.12-13.24c2.04-1.12,3.19-0.52,3.56,1.32c1.12,5.43,1.73,5.14,1.73,11.22c3.03-2.62,211.92-1.64,212.19-1.55
		c14.12,8.99-47.3,6.72-171.76,6.72C116.26,125.49,142.92,125.61,130.75,122.23z M152.44,242.78c-0.71-0.92-0.31-1.43,0.61-1.73
		C153.45,241.87,153.56,242.58,152.44,242.78z M308.32,393.98c6.76-13.07,17.62-19.72,32.48-20.36c4.48-0.19,7.44,2.03,10.39,4.48
		c0.61,0.51,6.02,11.99,7.74,20.57c-1.73,0.2-3.67-1.63-5.19,1.12c4.68,2.24,7.84,5.91,8.76,11.71c3.46,2.34,4.7,7.21,8.65,10.08
		c6.13,4.45,10.67,10.72,16.39,15.78c6.96,6.15-7.64,0.45-10.18,15.27c-5.29-6.53-24.05-16.07-0.92,2.55
		c-2.24,6.62-4.48,13.24-6.72,19.75c-11.51-5.6-18.44-14.76-23.11-26.07c-5.71-13.82-19.7-11.85-33.4-21.18
		c-0.81-3.77-3.92-7.94-3.87-13.13C309.41,407.45,302.94,404.4,308.32,393.98z M335.51,440.82c-3.77,3.16-7.84,5.09-11.71,7.94
		c-5.09-4.68-8.86-9.67-9.88-17.31C320.64,436.24,328.38,437.16,335.51,440.82z M267.9,448.46c-9.42-0.83-14.74-0.24-18.94-5.8
		c-3.87-5.14-8.35-3.58-8.35-8.86c5.48,4.78,20.99,12.96,31.46,11.1c1.22,1.22,2.04,2.34,2.24,3.87
		C272.07,449.78,269.94,448.64,267.9,448.46z M337.44,504.56c1.53-0.71,2.75,1.12,4.38,0c-8.37-5.2-44.74-18.98-48.57-24.95
		c-19.73-30.74-11.55-27.76-15.88-30.65c-0.41-0.2-0.71-0.71-0.81-1.02c-1.02-6.31-6.72-7.43-11.1-9.98
		c-0.92-0.61-2.04-0.41-2.55,1.02c1.73,1.83,4.38,2.14,6.31,3.97c-14.46-0.76-26.86-12.69-28.51-9.16
		c-1.12-2.24-2.24-4.58-0.61-7.33c3.05,1.43,6.31,1.83,10.18,1.43c-3.05-2.65-6.31-3.87-9.57-5.7c1.22-6.62,1.63-13.34,4.99-19.45
		c6.72,3.26,11.81,9.27,19.14,11.51c-2.95-2.14-5.09-5.29-9.16-6.31c-1.93-3.16-4.07-6.62-8.25-7.94c1.88-5.11,3.4-7.45,24.34-15.48
		c8.23-3.15,16.14,1.73,21.28,8.65c5.53,7.46,11.42,9.06,13.24,21.28c0.71,4.79,3.41,8.77,4.38,13.44
		c4.23,20.37,2.89,15.51,21.79,35.33c-2.24-1.32-4.48-2.75-6.82-4.07c1.93,2.85,4.68,4.68,7.53,6.11
		c2.91,1.45,1.71,0.88,13.34,12.32c9.6,9.44-9.73-15.74-21.59-27.59c4.58-2.14,9.88-2.95,13.34-7.74c3.26,3.36,5.62,6.91,7.33,11
		c7.1,16.96,21.5,23.67,23.01,25.35c-0.92,2.24-2.34,3.58-4.99,3.26c-2.45-0.29-4.38,1.22-6.52,2.24c-2.75-0.61-4.89-2.65-8.15-4.28
		c1.53,2.95,3.87,3.77,5.8,5.19c0.31,0.92-0.81,1.53-0.61,2.75c3.05,3.97,4.58,8.55,2.34,13.75c-0.81,0.41-1.12-0.81-2.04-0.51
		c-1.32,3.77-0.92,8.04-2.04,12.22C348.13,509.04,342.53,507.31,337.44,504.56z M354.65,519.02c-1.12,0.31-1.43-0.41-1.83-1.22
		C355.31,514.23,355.63,512.16,354.65,519.02z M412.48,491.94c-4.34,18.46-13.03,15.92-10.59,30.44c0.41,2.44,0.22,5.08,1.22,7.53
		c0.63,1.54-1.97,10.05-2.55,11.61c-3.09,8.34-15.13,14.68-24.03,10.39c-2.62-1.27-5.87-0.7-6.36-2.96c0.61,0.5,1.19,1.1,2.09,0.11
		c-1.32-1.73-2.55-3.67-2.95-6.11c-0.81,2.34-0.81,2.34,0.41,5.4c-2.14-1.32-3.05-3.67-3.67-5.7
		c-3.45-14.29-10.68-12.39-12.01-18.84c1.26-0.98,5.09,1.4,5.09-10.08c0-2.95-2.04-6.01,0.71-8.65c-0.92-5.91,1.22-12.32-3.05-17.72
		c1.12-2.55,3.77-1.93,5.5-2.95c1.12,0.41,0.51,1.93,1.53,2.04c0.92,0.41,1.62,0.09,2.04-0.51c17.59-25.25,8.98-49.7,35.84-40.12
		c4.68,1.67,3.94,4.35,4.68,5.09c6.11,8.35,6.26,18.34,7.94,27.9C415.11,483.29,413.49,487.66,412.48,491.94z"/>
	<path d="M286.84,332.28c-0.62-1.25,0.71,0.46-14.87-3.46c-5.92-1.49-12.42-4.28-17.51,2.65c-6.01-7.57-10.04,5.08-33.5,3.46
		c-5.21-0.36-2.88,2.59-8.35,3.26c-2.54,0.31-4.17,1.53-3.97,4.48c-10.15-4.3-17.06,16.84-15.37,18.53
		c1.22-0.31,0.81-1.73,1.53-2.44c3.77-1.02,7.23-2.55,10.08-5.09c-0.37-1.11,0.22-1.17-9.57,3.26c-0.41-1.32-0.1-2.34,0.81-2.85
		c2.44-2.04,4-4.66,5.91-7.13c2.04-2.65,2.62-1.39,9.88-2.14c8.34-0.86,3.7-7.97,9.98-7.74c5.46,0.2,20.53-1.28,28.92-5.91
		c2.04,0.61,2.65,2.34,4.79,2.55c2.85-3.67,6.72-5.19,11.71-3.05c0.61,0.71,0.41,2.34,1.73,2.55c5.26,0.83,7.87,6.29,10.28,4.68
		c1.12-1.43-0.41-2.85-0.1-4.17C285.72,333.4,285.72,333.4,286.84,332.28z M212,341.65c0.71-0.81,1.43-1.32,2.55-1.73
		C214.04,341.24,213.32,341.75,212,341.65z"/>
	<path d="M246.31,342.26c2.14-2.04,4.07-3.87,6.41-6.01c-4.48-0.2-6.82,2.04-8.86,4.89c-0.61-0.1-0.71-1.12-1.53-0.71
		c-0.51,0.51-0.1,1.63-1.32,2.14c-4.58,0.2-9.37,1.43-14.25,1.43c-0.2-0.92,1.02-1.43-0.2-2.34c-3.77,5.19-11.1,2.44-15.37,7.13
		c14.56-1.53,28.82-5.4,44.09-2.55C253.14,342.26,249.16,343.79,246.31,342.26z"/>
	<path d="M303.94,344.5c10.29,0-3.14-7.96-16.19,4.48c-4.48,4.27-5.7,12.63-2.24,17.31C284.87,361.49,289.51,343.5,303.94,344.5z"/>
	<path d="M275.64,276.89c1.73,0.1,2.43-1.44,3.46-2.44c12.85-12.5,15.59-8.6,17.61-14.46C294.03,258.2,271.91,273.99,275.64,276.89z
		"/>
	<path d="M444.25,481.04c0.19-1.12-0.1-2.44,1.12-4.17c-2.24,0.1-3.36-0.79-4.68-1.02c-6.28-1.09-7.66,8.08-1.63,9.16
		C441.5,485.45,443.81,483.68,444.25,481.04z M440.38,477.88c0.2,1.32-1.02,3.67,2.14,2.55
		C440.21,487.68,432.7,477.48,440.38,477.88z"/>
	<path d="M191.33,311.31c-5.36-1.25-10.79,5.51-18.12,4.07c-1.72-0.34-3.67,0-5.5,0c-1.02,0.1-2.14,0-2.65,1.53
		C169.64,319.04,187.97,315.18,191.33,311.31z"/>
	<path d="M431.22,502.52c3.05,0.31,5.8,2.14,9.06,0.81c-0.81-1.53-2.24-1.12-2.65-2.04c-0.1-2.24,3.87-1.32,3.05-4.28
		c-0.92,0.31-1.73,0.51-2.65,0.81c-2.24-2.14-3.16-2.65-4.48-1.83C431.11,497.53,431.63,499.98,431.22,502.52z M434.78,497.74
		c2,1.14,0.61,4.78-1.53,2.65C433.36,499.16,433.46,498.15,434.78,497.74z"/>
	<path d="M433.15,490.71c-0.12,6.28,9.06,6.41,9.06,0C442.22,484.76,433.27,484.5,433.15,490.71z M435.09,490.51
		c0.21-3.4,5.07-2.77,5.29,0.31C439.73,494.5,434.73,493.57,435.09,490.51z"/>
	<path d="M141.74,272.61c1.75,3.5,4.68,3.18,4.68,11.91c0,2.55-0.41,5.5,2.24,7.43C151.01,286.06,147.34,275.26,141.74,272.61z"/>
	<path d="M192.35,229.04c-1.52-1.33-2.95-3.26-5.5-2.04c3.16,1.02,4.68,4.48,7.84,5.09c1.43,2.14-1.32,7.33,4.68,6.01
		c-0.51-2.44-3.36-4.58-1.12-7.13C196.52,228.93,194.09,230.56,192.35,229.04z"/>
	<path d="M175.55,322.2c-1.63,1.12-4.07,0.71-4.89,2.85c1.02,1.63,1.83-0.2,2.34,0c2.04,2.55-3.46,5.19,0.71,7.64
		c0.1-2.44,1.96-7.41,3.56-9.57c1.35-1.82,1.32-3.87,1.63-6.01C175.55,317.62,176.67,320.67,175.55,322.2z"/>
	<path d="M199.58,257.34c-24.07,7.24-22.37,6.46-23.11,7.94c9.98-2.85,19.35-6.11,29.12-7.64
		C203.45,256.22,201.52,256.76,199.58,257.34z"/>
	<path d="M233.99,409.26c0.41-0.1,0.92-0.1,1.43-0.2c-2.85-7.43-4.48-15.07-4.28-23.01C229.31,394.19,230.84,401.82,233.99,409.26z"
		/>
	<path d="M179.32,228.53c1.12,0,2.55-0.31,2.75-1.93c-4.79-1.93-11.4,2.75-11.81,8.35C171.77,234.94,173.07,228.86,179.32,228.53z"
		/>
	<path d="M215.05,355.5c8.12-2.39,14.84-5.4,21.48-4.17C232.77,348.47,220.25,351.02,215.05,355.5z"/>
	<path d="M226.05,301.63c3.97,2.14,6.11,5.8,9.57,8.86C233.89,303.57,230.02,299.8,226.05,301.63z"/>
	<path d="M225.34,412.21c0.92,7.33,4.17,15.37,7.64,18.12C230.02,424.43,227.99,418.22,225.34,412.21z"/>
	<path d="M147.55,322.4c-0.71-6.72,4.99-11,6.41-16.7C149.99,309.07,145.82,319.55,147.55,322.4z"/>
	<path d="M794.72,486.34c8.08,4.04-7.65-10.35-16.29,6.31C786.41,486.66,787.92,483.5,794.72,486.34z"/>
	<path d="M280.93,290.84c2.95-2.14,4.17-5.19,5.91-7.94C281.65,284.32,280.02,286.77,280.93,290.84z"/>
	<path d="M346.1,141.78c-0.92,3.36-1.93,6.72-2.34,10.39C347.83,148.5,349.05,143.3,346.1,141.78z"/>
	<path d="M189.8,301.12c1.32,0.2,13.44-2.04,14.05-2.95C199.48,299.8,194.28,297.36,189.8,301.12z"/>
	<path d="M313.31,201.24c-2.04,2.34-1.43,4.99-1.53,7.53c-1.83,1.73-3.46,3.56-3.56,6.31C311.68,211.22,314.33,207.04,313.31,201.24
		z"/>
	<path d="M126.67,222.62c1.02-6.41-1.02-12.32-3.16-18.12C124.94,210.5,125.86,216.51,126.67,222.62z"/>
	<path d="M183.29,230.56c-5.09-0.92-7.33,0.1-8.96,4.28C177.18,233.01,180.95,233.31,183.29,230.56z"/>
	<path d="M324.31,221.09c2.65-3.26,2.04-6.72,2.14-10.08C323.9,214.78,323.19,218.34,324.31,221.09z"/>
	<path d="M134.92,269.66c-0.92-4.48-3.36-7.94-6.52-11.1C130.65,262.23,131.87,266.61,134.92,269.66z"/>
	<path d="M267.49,335.95c-1.63-3.46-3.77-4.58-7.43-3.67C265.66,337.07,265.66,337.07,267.49,335.95z"/>
	<path d="M255.58,296.75c-0.61-1.83,1.43-1.63,1.53-3.36c-4.28,2.55-9.06,0-13.34,2.55C247.74,296.54,251.51,295.93,255.58,296.75z"
		/>
	<path d="M295.49,268.24c-3.46,3.26-4.07,8.04-5.91,12.12C292.23,276.69,294.47,272.82,295.49,268.24z"/>
	<path d="M431.12,456.91c-5.09,2.85-5.7,8.35-7.94,12.83C427.15,466.28,426.94,460.27,431.12,456.91z"/>
	<path d="M113.64,161.12c-0.1-3.36-0.1-6.72-1.93-9.77C111.2,154.81,111.61,158.17,113.64,161.12z"/>
	<path d="M145.31,317.62c-1.43-3.16-2.55-5.7-3.87-8.86C140.22,312.12,141.85,315.79,145.31,317.62z"/>
	<path d="M117.61,175.48c-0.2-4.58-1.43-8.65-3.26-10.49C114.35,168.45,115.88,173.54,117.61,175.48z"/>
	<path d="M236.95,319.66c-4.48-0.1-8.96-0.1-13.24,1.63C228.19,320.67,232.67,321.08,236.95,319.66z"/>
	<path d="M135.33,234.84c0.3-0.11,0.71-1.22,0-1.83c-5.91,3.67-5.91,3.67-5.6,6.52C131.77,237.89,133.08,235.62,135.33,234.84z"/>
	<path d="M622.54,290.94c0.57-4.72,1.55-9.36,1.05-14.06C623.98,281.67,622.16,286.22,622.54,290.94z"/>
	<path d="M194.18,247.87c2.44-1.02,5.19,0,7.74-1.32C199.99,244.41,196.22,245.02,194.18,247.87z"/>
	<path d="M343.96,153.08c-1.73,2.85-2.44,6.01-2.65,9.27C343.04,159.49,344.37,156.54,343.96,153.08z"/>
	<path d="M103.05,145.95c2.95,0.92,5.8,2.04,8.86,0.1C108.96,146.36,106.01,146.26,103.05,145.95z"/>
	<path d="M118.73,284.43l0.1,0.1C118.87,284.42,118.86,284.45,118.73,284.43z"/>
	<path d="M120.97,282.7c0.29-2.41,0.78-5.63,0.68-5.73c1.76-0.62,2.06-1.93,1.46-3.94c-1.07,1.07-2.34,3.34-1.75,3.73
		c-1.41,0.56-1.32,1.65-2.5,7.7C120.1,284.68,120.8,284.08,120.97,282.7z"/>
	<path d="M338.36,137.91c0.81,3.26,2.44,3.87,5.91,2.14C341.92,139.74,340.8,137.4,338.36,137.91z"/>
	<path d="M142.46,304.99c1.22-2.55,2.24-4.99,1.43-7.94C142.36,299.5,141.95,302.14,142.46,304.99z"/>
	<path d="M194.89,314.67c8.77-0.35,7.74-0.26,7.74-1.22C201.17,313.33,193.96,310.91,194.89,314.67z"/>
	<path d="M262.1,318.23c-2.75-0.92-5.5-0.51-8.15,0.92C256.7,319.45,259.45,319.04,262.1,318.23z"/>
	<path d="M236.23,312.43c2.04,1.43,4.07,2.75,6.31,4.38C241.63,313.24,240.61,312.43,236.23,312.43z"/>
	<path d="M298.04,259.28c3.36-1.02,4.28-2.14,4.28-5.4C300.89,255.81,298.14,256.32,298.04,259.28z"/>
	<path d="M328.99,201.75c-2.14,2.44-2.95,4.68-2.55,7.43C328.08,207.14,329.2,205.01,328.99,201.75z"/>
	<path d="M187.67,274.24c-2.95-1.43-5.7-2.65-9.16-3.46C180.74,273.12,184.31,274.45,187.67,274.24z"/>
	<path d="M223.2,293.18c-1.83-1.43-3.77-2.85-6.41-2.55C218.72,292.06,220.55,293.79,223.2,293.18z"/>
	<path d="M205.99,297.76c2.95-0.31,5.91,0.31,8.65-1.02C211.69,295.83,208.74,296.44,205.99,297.76z"/>
	<path d="M272.18,306.83c0.31-2.65-1.12-4.38-2.75-6.11C269.12,303.26,270.65,304.99,272.18,306.83z"/>
	<path d="M201.61,275.06c0.41-5.6,0.31-6.01-2.55-7.03C201.72,269.66,199.07,272.92,201.61,275.06z"/>
	<path d="M191.53,239.01c0.81-0.81,2.04-1.22,2.75-2.75C191.44,234.92,188.94,238.76,191.53,239.01z"/>
	<path d="M263.62,338.9c-1.53-2.04-1.93-5.09-5.4-5.09C261.42,335.04,262.58,340.99,263.62,338.9z"/>
	<path d="M115.17,229.34c1.63,1.53,1.53,4.17,3.87,5.5C118.22,231.89,117.61,230.87,115.17,229.34z"/>
	<path d="M261.59,365.17c1.43,1.12,3.36,1.43,4.89,2.55C265.66,365.27,263.62,365.17,261.59,365.17z"/>
	<path d="M137.26,269.36c0.92,1.22,1.43,2.85,3.87,3.46C140.01,270.88,139.1,269.56,137.26,269.36z"/>
	<path d="M194.79,278.01c-0.61-2.44-2.44-2.55-4.48-2.65C191.64,276.48,193.37,276.99,194.79,278.01z"/>
	<path d="M209.45,354.07c0.94,0.94,0.02,1.34,4.79-3.05C212.1,351.42,210.68,352.65,209.45,354.07z"/>
	<path d="M279.41,297.97c1.22-2.14,0.71-3.46-0.81-4.58C278.59,294.81,277.98,296.24,279.41,297.97z"/>
	<path d="M613.58,261.52c-2.04,1.22-2.65,3.36-3.67,5.19C611.95,265.59,612.97,263.65,613.58,261.52z"/>
	<path d="M314.94,377.69c1.63-1.02,2.95-1.93,4.38-2.85C316.26,375.25,316.26,375.25,314.94,377.69z"/>
	<path d="M202.63,269.56c1.63-1.83,2.04-3.16,1.53-4.68C203.24,266,202.43,267.22,202.63,269.56z"/>
	<path d="M349.46,141.78c1.32,0.41,2.44,0.51,3.77-0.92C350.68,140.35,350.68,140.35,349.46,141.78z"/>
	<path d="M420.32,480.23c0.1-1.22,0.31-2.55,0.41-3.77C419.82,477.58,419.1,478.8,420.32,480.23z"/>
	<path d="M267.9,353.26c-0.41,1.32,0.1,2.34,0.81,3.36C269.22,355.39,269.43,354.27,267.9,353.26z"/>
	<path d="M255.27,350.51c-1.43-1.32-2.65-1.83-4.38-1.53C252.32,349.79,253.34,350.51,255.27,350.51z"/>
	<path d="M172.19,342.06c0.2,2.24,0.2,2.24,1.83,2.95C174.02,343.58,173.21,342.77,172.19,342.06z"/>
	<path d="M303.23,253.37c1.63,0,2.04-0.92,2.44-2.65C304.05,251.44,302.93,251.74,303.23,253.37z"/>
	<path d="M308.32,244.51c1.02-1.43,1.02-2.34,0.51-3.56C307.51,241.97,307.41,242.99,308.32,244.51z"/>
	<path d="M219.74,322.51c-1.43,0-2.65,0.2-2.85,2.04C217.8,323.93,218.72,323.22,219.74,322.51z"/>
	<path d="M246.92,318.74c-1.12-0.51-2.44-1.02-3.56,0.41C244.79,320.16,245.8,319.25,246.92,318.74z"/>
	<path d="M122.3,198.9c0,1.63,0.2,2.65,1.22,3.97C123.52,201.24,123.72,200.12,122.3,198.9z"/>
	<path d="M167.91,268.24c1.6,1.44,4.12,1.77,3.46,1.12C170.46,268.54,169.64,267.73,167.91,268.24z"/>
	<path d="M237.05,295.42c-0.92-0.2-1.83-0.31-2.75-0.51C235.01,296.14,235.93,296.34,237.05,295.42z"/>
	<path d="M305.88,249.91c1.43-0.61,1.83-1.32,1.73-2.75C306.18,247.67,305.67,248.38,305.88,249.91z"/>
	<path d="M310.16,236.88c-0.92,0.71-1.43,1.32-0.61,2.65C310.56,238.71,310.77,238,310.16,236.88z"/>
	<path d="M110.08,136.38c-0.41,1.02-0.71,1.93,0.61,2.65C111.3,138.01,111.3,137.3,110.08,136.38z"/>
	<path d="M263.22,289.62c1.12-0.71,1.83-1.22,0.71-2.75C263.22,287.79,262.91,288.5,263.22,289.62z"/>
	<path d="M309.65,377.8c0.69,0.69,2.01-0.76,2.34-1.83C310.77,376.47,310.05,376.98,309.65,377.8z"/>
	<path d="M339.99,168.76c0.2-0.51,1.12-0.92,0.41-1.83C339.38,167.54,339.48,168.15,339.99,168.76z"/>
	<path d="M264.64,292.16c1.22-0.51,1.93-0.92,1.83-2.34C265.56,290.23,265.05,290.84,264.64,292.16z"/>
	<path d="M127.08,257.24c0.1-0.92,0-1.53-1.12-1.83C125.55,256.63,125.96,257.04,127.08,257.24z"/>
	<path d="M177.48,350.61c0.2-0.81,0.51-1.53-1.02-1.73C176.57,349.69,176.47,350.2,177.48,350.61z"/>
	<path d="M300.58,367.31c0.1,0.1,0.2,0.2,0.31,0.31C303.51,365,300.88,364.93,300.58,367.31z"/>
	<path d="M120.67,182.71c0.1-0.61-0.1-1.02-0.92-1.32C119.34,182.5,119.75,182.81,120.67,182.71z"/>
	<path d="M701.55,265.18c-0.81,1.63-1.43,3.36-2.04,4.89c5.5,5.96,15.76-26.72,13.24-28.61
		C706.13,245.57,709.96,248.37,701.55,265.18z"/>
	<path d="M734.64,333.3c0.71,6.82,1.32,13.85,10.18,15.88c-0.1,4.68,3.43,7.36,5.8,10.59c0.9,1.23,2.04,1.22,3.05,0.2
		c-9.56-12.58-6.18-11.46-13.64-17.31c-0.8-0.63-1.93-1.22-1.83-2.34c0.1-3.05-0.92-6.01-1.22-9.16c-1.73,0.51-3.46-0.31-5.29-0.1
		C732.24,332.71,733.6,332.12,734.64,333.3z"/>
	<path d="M696.87,258.67c8.45-4.79,13.95-17.72,9.47-23.22c-1.53,8.76-4.07,16.7-11.61,21.99c0.61,2.14,0.2,4.28,2.44,5.29
		C698.19,261.11,696.66,259.99,696.87,258.67z"/>
	<path d="M686.99,244.61c0,0.53,2.34,0.12-1.02-3.67c-6.09-6.87-21.42-4.67-29.32-1.93c-6.88,2.38-5.4,4.97-3.56,3.87
		C660.45,239.34,680.46,233.61,686.99,244.61z"/>
	<path d="M709.8,209.49c-7.03-0.1-14.25,0-20.77,3.36C693.2,215.9,707.66,213.05,709.8,209.49z"/>
	<path d="M744.01,295.73c0.99,20.05-1.84,24.13-5.19,34.01C745.95,325.05,747.98,302.04,744.01,295.73z"/>
	<path d="M707.97,233.82c1.43,0.2,14.87-4.28,18.43-6.21C719.98,226.18,709.29,229.95,707.97,233.82z"/>
	<path d="M671.31,238.81c-2.27,5.56,10.97,2.64,15.17,12.52c1.11,2.21,3.87-0.46-1.22-5.4C681.44,242.23,676.2,241.15,671.31,238.81
		z"/>
	<path d="M687.81,225.98c1.73,4.58,0.87,9.66,2.04,14.15c1.18,4.57,3.26,8.96,3.16,14.46c3.01-3.2,0.09-9.33-1.53-12.93
		C688.71,235.52,694.07,237.88,687.81,225.98z"/>
	<path d="M679.36,214.37c-19.23,4.44-20.69,2.15-32.68,1.93C655.22,219.06,673.65,219.06,679.36,214.37z"/>
	<path d="M760.61,439.4c3.46-3.87,4.07-11.91,1.12-15.99C762.13,430.48,758.66,436.15,760.61,439.4z"/>
	<path d="M723.65,221.4c-2.86-5.28-8.25-1.49-24.44-4.28C706.42,220.73,717.98,218.97,723.65,221.4z"/>
	<path d="M754.6,330.04c-1.05,2.79,2.51,5.89,1.43,13.64c-0.1,1.43,0.41,2.75,2.44,3.97C756.34,340.41,760.23,334.67,754.6,330.04z"
		/>
	<path d="M607.06,219.97c5.91-1.12,10.79-3.97,16.29-4.68C618.16,214.48,608.49,217.12,607.06,219.97z"/>
	<path d="M714.28,256.93c3.26-6.11,8.76-10.18,13.34-15.17C721.71,245.53,716.52,249.91,714.28,256.93z"/>
	<path d="M711.84,329.53c-0.62,3.97,0.61,7.53,2.14,11c1.32-0.1,1.53-0.71,1.02-1.73c-3.31-7.89,0.01-10.68-5.29-14.66
		C710,326.68,712.14,327.6,711.84,329.53z"/>
	<path d="M694.42,282.08c-1.12-5.8-11.1-11.71-18.02-12.63C683.63,272.82,690.56,275.36,694.42,282.08z"/>
	<path d="M678.85,203.28c4.17,6.01,9.37,11.2,10.79,18.63C691.06,218.34,684.75,207.04,678.85,203.28z"/>
	<path d="M760,411.7c-0.51,3.67,1.22,6.72,1.22,10.49C763.26,419.13,762.54,414.04,760,411.7z"/>
	<path d="M774.56,412.92c-0.2,4.99,1.22,9.57,3.56,13.85C776.59,422.19,776.8,417.2,774.56,412.92z"/>
	<path d="M767.74,369.85c-1.32,2.85-1.43,5.19-0.31,7.94C768.14,375.25,768.86,372.6,767.74,369.85z"/>
	<path d="M780.77,473.51c0.51-3.77-1.93-6.62-2.95-9.98C778.43,466.99,778.94,470.45,780.77,473.51z"/>
	<path d="M702.67,286.67c0.49,4.19,4.78,2.12,6.01-1.22C706.85,286.36,704.91,286.97,702.67,286.67z"/>
	<path d="M769.06,388.59c-0.31-2.14,1.22-4.58-1.02-6.52C767.43,384.41,767.12,386.65,769.06,388.59z"/>
	<path d="M745.95,338.8c0,1.83,0,1.83,1.53,2.85C753.53,338.11,748.92,337.81,745.95,338.8z"/>
	<path d="M752.67,318.43c-0.81-3.05-2.75-5.5-4.79-7.74C748.08,314.16,750.43,316.3,752.67,318.43z"/>
	<path d="M684.34,206.53c2.34-1.43,4.38-2.65,6.72-4.17C686.48,202.46,684.75,203.48,684.34,206.53z"/>
	<path d="M674.57,208.98c-2.34,1.22-4.58,2.44-7.43,4.07C671.11,212.85,673.25,211.73,674.57,208.98z"/>
	<path d="M648.7,200.84c1.43,1.43,2.85,2.75,5.4,2.65C652.97,201.02,651.29,199.98,648.7,200.84z"/>
	<path d="M629.87,204.7c-0.61,3.67,0.41,4.79,3.87,5.4C631.91,208.98,631.09,207.14,629.87,204.7z"/>
	<path d="M755.92,323.32c-0.51-2.04-0.2-4.58-3.36-4.89C753.99,319.96,754.09,322.2,755.92,323.32z"/>
	<path d="M645.25,204.19c0.71,1.32,1.83,2.24,3.77,3.05C647.08,203.28,647.08,203.28,645.25,204.19z"/>
	<path d="M774.96,457.62c2.14-1.63,1.02-2.95,0.41-4.38C774.41,453.24,774.64,453.04,774.96,457.62z"/>
	<path d="M755.92,365.58c0.2,2.04,0.51,4.07,2.44,5.29C758.27,368.83,757.86,366.8,755.92,365.58z"/>
	<path d="M770.99,394.29c-1.73,1.73-0.31,2.95,0.31,4.17C771.81,397.14,771.6,395.82,770.99,394.29z"/>
	<path d="M757.35,403.96c-0.31-1.22-0.31-2.65-1.73-4.07C754.91,402.13,755.82,403.15,757.35,403.96z"/>
	<path d="M724.77,357.13c1.53-0.51,1.73-1.73,2.24-2.85C724.77,354.99,724.77,354.99,724.77,357.13z"/>
	<path d="M753.07,394.39c0,1.43,0.51,2.55,1.93,3.36C755.11,395.92,754.4,395,753.07,394.39z"/>
	<path d="M774.05,408.65c0.41-1.63,0.1-2.85-1.02-3.87C772.83,406.1,772.42,407.53,774.05,408.65z"/>
	<path d="M639.95,238.91c1.63,0.71,2.75,0.81,4.28,0.2C642.8,238.2,641.78,237.69,639.95,238.91z"/>
	<path d="M751.65,389.61c-0.71,1.22,0,1.93,1.12,2.95C753.18,390.93,752.97,390.01,751.65,389.61z"/>
	<path d="M725.99,328.62c-0.31-1.53-1.22-1.93-3.16-2.24C724.05,327.6,724.56,328.62,725.99,328.62z"/>
	<path d="M679.05,262.74c-1.12-0.61-1.93-1.43-3.26-0.61C676.81,262.43,677.52,263.15,679.05,262.74z"/>
	<path d="M618.67,255.61c0.41-1.12-0.1-1.73-0.51-2.55C617.86,253.88,617.55,254.69,618.67,255.61z"/>
	<path d="M751.34,348.17c0.92,1.02,1.43,0.81,1.73-0.2C752.36,347.15,751.85,347.45,751.34,348.17z"/>
	<path d="M722.12,325.05c-0.1-1.53-0.71-2.14-1.93-2.65C720.29,323.63,720.59,324.44,722.12,325.05z"/>
	<path d="M759.18,372.91c0-0.92-0.31-1.53-0.92-2.04C758.37,371.58,758.16,372.5,759.18,372.91z"/>
	<path d="M717.74,318.64c-0.71,0.51-0.51,0.92-0.1,1.43C718.86,319.66,718.45,319.15,717.74,318.64z"/>
	<path d="M745.03,292.37c-0.41-0.2-0.41-0.81-1.12-0.71C743.32,292.54,744.17,293.37,745.03,292.37z"/>
	<path d="M646.67,157.97c7.77,15.74-0.11-12.96-7.94-12.22C638.18,147.68,641.08,146.63,646.67,157.97z"/>
	<path d="M612.76,144.52c-6.72,1.53-13.03,1.73-18.73,4.58C596.58,150.13,609.1,147.07,612.76,144.52z"/>
	<path d="M581.2,186.07c-0.41,0.41-0.34-0.02,0,2.34c3.56,1.22,5.29,4.89,8.76,6.52C588.63,190.34,585.17,188,581.2,186.07z"/>
	<path d="M578.76,170.9c-5.55,8.87,1.71,16.54,2.44,15.07C577.33,181.79,579.16,176.39,578.76,170.9z"/>
	<path d="M617.25,163.77c0.71,2.14,2.16,3.86,2.75,6.11c0.53,2.03,0.1,4.58,2.44,5.91C622.23,171.1,621.62,166.62,617.25,163.77z"/>
	<path d="M680.98,176.5c3.36,4.28,7.53,7.94,10.39,12.63C690.86,184.95,685.67,178.84,680.98,176.5z"/>
	<path d="M664.39,178.43c-0.31-2.34-2.14-1.12-3.26-1.73c-1.02-1.22-1.83-2.34-2.85-3.67c-0.51,2.04,1.12,2.95,1.32,4.38
		c-0.51,0.41-1.32,0.71-0.51,1.83C660.72,178.84,662.76,180.06,664.39,178.43z"/>
	<path d="M627.12,137.09c-2.65,0.61-5.4,0-7.33,2.85C622.64,141.06,624.88,140.15,627.12,137.09z"/>
	<path d="M576.11,162.24c9.73-6.49-2.68-3.64-2.24,3.36C576.01,165.4,575.19,163.26,576.11,162.24z"/>
	<path d="M656.14,166.01c3.56-0.92,7.03-1.02,10.49-1.73C663.27,162.85,657.46,163.77,656.14,166.01z"/>
	<path d="M656.45,169.98c-1.32-2.85-3.67-4.89-5.7-7.23c-0.2-0.2-0.92,0-1.32,0C651.25,165.7,653.09,168.55,656.45,169.98z"/>
	<path d="M578.55,170.69c1.63-2.85,3.05-5.19,4.58-7.74C579.47,164.58,578.45,166.21,578.55,170.69z"/>
	<path d="M566.23,163.26c3.05-0.41,4.28-3.56,6.52-5.19C570.2,159.39,567.56,160.51,566.23,163.26z"/>
	<path d="M574.38,184.23c3.19,3.42,5.86,7.32,6.72,4.07c-1.22-0.71-2.44-1.63-3.87-2.14C576.21,185.66,576.52,182.81,574.38,184.23z
		"/>
	<path d="M639.03,190.75c-2.14-2.44-4.79-4.17-7.94-5.09C633.43,187.8,635.98,189.73,639.03,190.75z"/>
	<path d="M623.56,177.92c0.71,2.44,2.44,3.46,4.48,4.07C626.61,180.67,626.31,178.13,623.56,177.92z"/>
	<path d="M673.14,166.93c-1.73-2.04-3.16-4.48-6.31-4.89C673.87,168.37,672.49,167.58,673.14,166.93z"/>
	<path d="M664.29,176.09c1.93,0.1,3.87,0.1,5.91-1.43C667.75,174.05,666.02,174.97,664.29,176.09z"/>
	<path d="M614.5,144.02c2.14-0.92,3.05-2.14,3.87-3.67C617.04,141.27,615.11,141.27,614.5,144.02z"/>
	<path d="M583.24,152.98c-1.83,0-3.36,0.51-4.48,1.83C579.15,155.6,578.82,155.69,583.24,152.98z"/>
	<path d="M572.55,171c1.22-2.14,1.22-2.14,0.51-4.48C572.65,168.15,571.63,169.17,572.55,171z"/>
	<path d="M643.21,135.16c-1.32-0.31-2.75-0.61-3.77,1.12C641.17,136.89,642.09,135.67,643.21,135.16z"/>
	<path d="M674.57,169.47c0.92,1.12,1.83,2.14,2.75,3.26C677.12,171.1,676.1,169.98,674.57,169.47z"/>
	<path d="M645.65,166.93c1.32-0.51,2.95,0.61,4.99-0.61C648.4,165.7,647.08,166.11,645.65,166.93z"/>
	<path d="M633.54,167.94c-1.73,0.71-2.85,0.71-3.67,1.73C630.99,169.57,632.21,169.57,633.54,167.94z"/>
	<path d="M661.33,180.67c0.71,1.32,1.43,2.24,3.16,3.05C663.68,181.89,663.27,180.77,661.33,180.67z"/>
	<path d="M665.81,185.97c-0.2,1.32,0.71,1.63,1.63,2.14C667.65,186.68,666.93,186.17,665.81,185.97z"/>
	<path d="M645.55,166.93c-0.51,0-1.12,0-1.83,0C644.43,167.54,644.94,167.03,645.55,166.93z"/>
	<path d="M590.36,196.56c-0.31,1.02-0.1,1.43,0.81,1.43C591.38,197.27,590.98,196.96,590.36,196.56z"/>
	<path d="M593.22,200.83c0.26,0.58,0.51,1.24,1.58,1.24C595.11,202.01,594.74,200.58,593.22,200.83z"/>
	<path d="M676.81,361.91c12.66,2.87,19.71,12.62,27.29,16.9C700.13,371.58,682.61,360.69,676.81,361.91z"/>
	<path d="M697.28,321.39c-5.4-3.67-6.82-10.49-11.1-14.76C679.56,309.22,693.09,318.27,697.28,321.39z"/>
	<path d="M694.83,360.79c-4.59-3.06-5.55-9.16-7.84-12.93c-0.81,9.06,5.09,13.95,11.81,18.53
		C697.99,363.95,696.78,362.09,694.83,360.79z"/>
	<path d="M678.34,329.74c-1.82,5.66,3.51,8.07,8.86,16.09c1.23-7.7-7.95-7.94-8.04-16.09C679.15,329.43,678.85,329.43,678.34,329.74
		z"/>
	<path d="M701.35,337.07c-0.24,1.52,0.31,2.95,2.14,3.87c0.71-9.06-0.61-12.63-5.29-14.15C696.75,328.8,702.44,330.12,701.35,337.07
		z"/>
	<path d="M727.52,436.44c0.81-1.73,0.32-2.45-0.1-3.26C713.29,405.96,714.69,411.14,727.52,436.44z"/>
	<path d="M679.97,309.58c-1.83,4.28-3.26,8.65-4.79,13.03C678.34,318.84,681.29,314.97,679.97,309.58z"/>
	<path d="M699.41,338.09c-0.86-1.98-2.08-1.13-9.47,1.43C695.81,342.55,700.56,340.72,699.41,338.09z"/>
	<path d="M695.75,432.07c-3.36-5.8-5.5-12.01-7.94-18.23C687.5,418.52,692.59,429.72,695.75,432.07z"/>
	<path d="M700.23,439.8c2.44,4.28,3.87,8.45,6.52,12.01C706.75,448.46,703.18,441.74,700.23,439.8z"/>
	<path d="M684.65,403.25c-1.43,2.34-0.1,6.01,2.85,7.84C686.99,408.24,687.2,405.29,684.65,403.25z"/>
	<path d="M744.62,474.93c-0.92-3.36-2.75-5.91-5.6-7.74C740.85,470.15,742.48,472.69,744.62,474.93z"/>
	<path d="M669.07,352.03c1.73-1.53,1.32-3.46,1.93-5.5C667.34,349.59,667.24,349.79,669.07,352.03z"/>
	<path d="M680.78,391.13c-0.2,2.24,0.81,3.97,1.83,5.7C683.02,393.48,682.72,392.56,680.78,391.13z"/>
	<path d="M672.53,328.11c-1.22,2.24-2.04,4.38-0.51,7.53C672.74,332.59,672.94,330.35,672.53,328.11z"/>
	<path d="M671.01,362.83c1.83,1.53,1.83,1.53,2.85-1.22C672.23,360.99,671.41,361.5,671.01,362.83z"/>
	<path d="M713.67,408.14c0.51,1.63,0.61,3.46,1.83,4.89C716.62,410.68,715.4,409.26,713.67,408.14z"/>
	<path d="M703.59,327.09c-1.12-2.34-1.12-2.34-3.56-4.07C701.55,325.97,701.55,325.97,703.59,327.09z"/>
	<path d="M710.61,401.11c-0.41,1.43,0.2,2.14,1.63,3.05C712.14,402.64,712.04,401.62,710.61,401.11z"/>
	<path d="M697.58,435.63c-0.1,1.12,0.41,1.73,1.83,2.44C698.8,436.65,699.11,435.43,697.58,435.63z"/>
	<path d="M730.47,454.77c0.31,1.22,0.61,2.04,1.73,2.55C732,456.4,731.89,455.38,730.47,454.77z"/>
	<path d="M696.46,351.22c1.43,0.51,2.24,0.41,2.55-0.92C697.99,349.79,697.28,350,696.46,351.22z"/>
	<path d="M708.58,394.19c-0.31,0.81-0.41,1.53,0.61,2.24C710.23,395.6,709.39,393.98,708.58,394.19z"/>
	<path d="M706.75,387.98c-0.41,0.61-0.41,1.02,0.41,1.22C707.76,388.49,707.15,388.28,706.75,387.98z"/>
	<path d="M716.72,415.27c0-0.86-0.7-1.45-1.21-2.02C715.49,414.14,715.88,414.8,716.72,415.27z"/>
	<path d="M715.4,413.13c0.16,0.22,0.1,0.09,0.1-0.1L715.4,413.13z"/>
	<path d="M673.45,325.97c-1.53,0.51-1.02,1.43-0.81,2.24C673.14,327.6,673.65,326.99,673.45,325.97z"/>
	<path d="M543.83,183.73c-5.29,5.6-9.06,13.13-17,16.39c3.52,1.54,6.63-2.38,7.84-2.85c5.07-1.98,7.96-6.3,10.69-10.69
		C546.18,185.26,545.97,184.23,543.83,183.73z"/>
	<path d="M498.42,206.13c-0.61-7.33-2.85-14.76-5.19-16.8C495.06,194.82,495.57,200.83,498.42,206.13z"/>
	<path d="M500.05,164.69c1.02-2.85,1.43-5.7-0.2-8.45C497.91,159.09,498.52,161.94,500.05,164.69z"/>
	<path d="M499.74,154.2c0.31-3.05,1.43-5.7-0.2-9.06C497.71,148.19,497.81,150.84,499.74,154.2z"/>
	<path d="M493.94,147.27c-2.44,2.65-2.55,3.77-0.41,7.33C493.64,152.06,494.65,150.02,493.94,147.27z"/>
	<path d="M511.15,231.28c2.75-2.24,3.05-3.56,2.04-7.13C510.84,225.98,512.37,228.73,511.15,231.28z"/>
	<path d="M499.13,131.59c-2.14-2.04-4.58-2.14-7.84-1.12C494.14,132.31,496.79,130.98,499.13,131.59z"/>
	<path d="M491.9,160.21c0.41-1.63,0.71-3.05,1.12-4.68C490.48,156.95,490.38,157.35,491.9,160.21z"/>
	<path d="M554.32,139.54c-2.14,0.81-2.95,2.34-3.97,3.56C551.67,142.28,553.4,141.78,554.32,139.54z"/>
	<path d="M499.74,167.64c-1.12,1.83-1.32,3.05,0.2,4.48C500.25,170.59,500.36,169.37,499.74,167.64z"/>
	<path d="M502.19,145.95c1.32,1.12,2.34,0.1,3.36-0.31C504.53,145.44,503.31,144.83,502.19,145.95z"/>
	<path d="M546.58,147.99c-0.92,0.61-1.43,1.32-1.22,2.85C546.68,150.02,546.68,149.01,546.58,147.99z"/>
	<path d="M498.83,210.71c-0.41,1.53-0.31,2.55,1.02,3.87C500.25,212.74,499.74,211.83,498.83,210.71z"/>
	<path d="M523.57,172.12c1.32,0.1,2.34-0.1,3.46-1.93C525.2,170.39,524.18,170.69,523.57,172.12z"/>
	<path d="M522.45,203.68c1.22-0.92,2.65-0.2,3.16-2.34C524.39,201.85,523.16,201.65,522.45,203.68z"/>
	<path d="M499.13,223.84c-0.41,1.12-0.61,1.93,0.81,2.44C500.25,225.37,500.36,224.56,499.13,223.84z"/>
	<path d="M518.68,207.14c1.53-0.1,2.14-0.71,2.85-1.73C520.11,205.21,519.29,205.72,518.68,207.14z"/>
	<path d="M532.12,169.88c-1.12-0.51-1.83-0.41-2.44,1.02C530.8,171,531.72,171.41,532.12,169.88z"/>
	<path d="M502.8,135.97c-0.41,1.12-0.2,1.83,0.81,3.16C503.72,137.6,504.12,136.58,502.8,135.97z"/>
	<path d="M499.64,179.65c-0.41,1.02-0.41,1.73,0.41,2.14C500.66,181.08,500.46,180.37,499.64,179.65z"/>
	<path d="M490.99,163.67c0.61-0.1,0.71-0.41,0.61-1.22C490.78,162.65,490.38,162.95,490.99,163.67z"/>
	<path d="M546.17,178.43c0.41-0.61,1.02-1.12,0.1-2.04C545.67,177.01,545.36,177.62,546.17,178.43z"/>
	<path d="M820.99,500.39c-4.24,2.03-3.25,7.96,1.12,8.76c4.07,0.74,4.99-2.75,6.62-5.29C826.49,501.81,824.76,498.57,820.99,500.39z
		 M820.48,503.54c0.52-1.52,1.53-1.73,4.07-1.02c0.31,1.02-0.92,1.12-0.81,2.04c-0.2,1.02,1.43,0.61,1.43,1.53
		C823.71,508.58,819.42,506.63,820.48,503.54z"/>
	<path d="M805.41,519.63c2.55,1.93,4.48,4.07,7.03,5.19c1.32-1.93-1.43-2.34-0.51-3.77c1.12-1.12,3.46,0.92,4.28-1.43
		c-0.81-0.81-1.83-0.51-2.65-0.92c-0.81-2.55-1.53-3.64-2.95-3.56C807.75,515.3,807.04,517.8,805.41,519.63z M809.89,520.24
		c-1.93-1.53-1.93-1.53,0.71-3.05C811.93,518.61,810.6,519.33,809.89,520.24z"/>
	<path d="M816.81,517.59c6.16,0,6.05-9.62-0.2-9.37C810.64,508.47,810.8,517.59,816.81,517.59z M816.41,510.26
		c3.55,0,4.39,4.79,0.61,5.29C812.98,515.11,813.32,510.48,816.41,510.26z"/>
	<path d="M837.58,479.11c-4.76-9.85-18.46-2.16-23.52,5.29c2.75-2.55,6.02-4.25,9.27-6.11
		C833.07,472.71,835.93,479.11,837.58,479.11z"/>
	<path d="M811.82,486.13c-2.44,1.73-4.38,3.97-6.11,6.41C808.77,491.43,810.3,488.68,811.82,486.13z"/>
	<path d="M806.83,493.67c-0.41-0.31-0.71-0.71-1.12-1.12c-0.1,1.12-1.32,1.83-0.71,3.05C805.92,495.3,806.63,494.79,806.83,493.67z"
		/>
	<path d="M605.54,78.55c-0.92-2.44-3.67-4.48-1.12-7.03c-1.43-1.63-3.16-0.92-4.99-1.22c-4.07-3.26-4.07-3.26-7.13-2.95
		c3.46,1.43,5.19,4.58,8.35,5.29C601.78,74.65,599.36,80,605.54,78.55z"/>
	<path d="M612.26,98.4c-3.56-1.53-25.35,3.87-29.43,7.03C592.3,102.88,601.67,99.62,612.26,98.4z"/>
	<path d="M581.3,69.99c2.01-1.36,5.19-0.1,6.72-2.75c-4.38-2.34-10.69,1.93-11.81,8.15C578.04,73.76,579.24,71.38,581.3,69.99z"/>
	<path d="M579.78,75.49c3.36-1.63,6.82-1.93,9.57-4.38C584.56,69.99,582.42,70.91,579.78,75.49z"/>
	<path d="M599.53,88.93c3.05-1.53,5.8-0.41,8.76-1.93C605.54,84.96,601.67,85.77,599.53,88.93z"/>
	<path d="M576.42,105.12c-1.83-2.44-4.17-2.85-6.21-3.46C571.73,103.39,573.67,104.31,576.42,105.12z"/>
	<path d="M596.58,79.77c1.53-0.92,3.16-1.22,3.16-3.46C597.59,76.51,596.37,77.02,596.58,79.77z"/>
	<path d="M608.59,109.7c2.04-1.63,1.53-3.77,2.24-5.29C609,105.53,608.69,107.26,608.59,109.7z"/>
	<path d="M573.87,108.99c1.43,0.61,2.34,1.32,3.67,1.32C576.01,108.89,576.01,108.89,573.87,108.99z"/>
	<path d="M720.29,155.42c1.93,7.84-1.83,15.68-0.71,23.93c2.93-1.67-0.57-0.94,2.24-14.46c0.63-3.05-0.14-5.91,0.31-8.86
		C722.21,155.42,721.61,154.81,720.29,155.42z"/>
	<path d="M721,153.18c2.34-3.56,2.24-8.86-0.31-11.61C718.86,145.75,720.08,149.31,721,153.18z"/>
	<path d="M712.55,195.13c-0.2-2.95-0.41-5.7-0.61-8.65C709.8,189.22,710,192.38,712.55,195.13z"/>
	<path d="M712.75,138.52c1.12,3.05,2.14,3.46,6.11,2.04C716.42,140.25,715.3,137.6,712.75,138.52z"/>
	<path d="M716.93,201.75c-1.32-1.83-2.55-3.46-4.07-5.7C713.47,200.42,713.87,200.83,716.93,201.75z"/>
	<path d="M723.34,141.88c1.73,0.81,2.85,0.71,4.38-0.61C725.99,140.35,724.87,140.35,723.34,141.88z"/>
	<path d="M712.96,129.35c0.2-1.22,0.71-2.55,0-4.28C711.53,126.81,711.43,128.03,712.96,129.35z"/>
	<path d="M727.11,161.02c-0.92,1.53-0.1,2.55,0.51,3.46C728.13,163.36,728.23,162.34,727.11,161.02z"/>
	<path d="M727.92,169.17c0.51-1.02,0.71-1.93-0.51-3.16C727.31,167.33,726.6,168.25,727.92,169.17z"/>
	<path d="M727.41,173.95c0.92-1.12,1.22-1.93,0.71-3.05C726.91,171.51,727.01,172.42,727.41,173.95z"/>
	<path d="M292.13,427.69c5.31,1.86,1.7,5.35,6.92,5.6c-2.24-1.73-2.23-4.5-4.28-5.5c-5.27-2.59-7.23-7.64-9.88-12.42
		c-3.36-1.43-6.31-3.46-8.76-6.72c0.1-1.22,0.81-2.65-0.61-3.97c-0.1,2.04-1.32,3.56-1.63,5.4c1.93,3.67,4.68,6.31,9.06,7.13
		C285.71,422,287.97,426.23,292.13,427.69z"/>
	<path d="M297.12,400.7c-5.8,0.81-10.79-2.55-16.9-3.97C283.38,401.32,292.34,403.15,297.12,400.7z"/>
	<path d="M302.01,414.14c1.73-4.68-1.73-10.49-6.31-11C297.63,407.02,300.89,409.56,302.01,414.14z"/>
	<path d="M297.63,410.89c-0.61,3.56-4.38,1.22-6.52,3.36c2.75,0.1,4.89,1.12,7.13,0.31C300.79,413.79,300.89,410.89,297.63,410.89z"
		/>
	<path d="M294.07,435.32c13.13,2.92,10.85,2.98,11.3,1.63c-3.46-1.83-7.33-2.14-11.2-2.34
		C294.07,434.81,294.07,435.02,294.07,435.32z"/>
	<path d="M300.18,475.95c-2.44-2.34-5.7-3.67-8.04-6.21C293.46,473.51,296.82,474.73,300.18,475.95z"/>
	<path d="M302.11,414.96c-0.71,3.46,0.1,5.19,3.36,7.13C304.25,419.54,303.33,417.51,302.11,414.96z"/>
	<path d="M343.96,503.34c1.73,1.43,3.16,3.46,6.11,3.87C348.54,504.46,346,504.36,343.96,503.34z"/>
	<path d="M251.71,428.3c1.12,1.53,2.44,2.75,4.68,1.32C254.97,428.3,253.54,427.69,251.71,428.3z"/>
	<path d="M302.11,477.38c1.12,1.12,1.53,3.26,4.28,3.16C305.17,478.8,304.05,477.48,302.11,477.38z"/>
	<path d="M284.7,461.59c1.02,2.75,2.95,3.67,4.79,4.89C288.26,464.85,287.45,462.71,284.7,461.59z"/>
	<path d="M266.88,414.14c1.22,0.92,2.24,1.53,4.07,0.71C269.33,414.45,268.61,413.02,266.88,414.14z"/>
	<path d="M302.62,422.09c-1.12,0.1-1.83,0.71-2.65,1.83C302.31,424.02,302.31,424.02,302.62,422.09z"/>
	<path d="M307.51,481.14c1.02,1.73,1.02,1.73,2.65,1.93C309.54,482.16,308.83,481.45,307.51,481.14z"/>
	<path d="M314.43,486.84c1.02,0.41,1.32,1.12,2.04,0.51C316.26,486.74,315.96,486.34,314.43,486.84z"/>
	<path d="M282.26,430.03c0.61,1.02,1.32,1.43,2.75,1.63C284.29,430.23,283.48,429.83,282.26,430.03z"/>
	<path d="M317.49,452.94c-0.2,0.81,0,1.32,0.92,1.43C318.81,453.45,318.3,453.14,317.49,452.94z"/>
	<path d="M313.21,448.87c0.51,1.02,0.81,1.73,2.14,1.73C314.94,449.48,314.53,448.97,313.21,448.87z"/>
	<path d="M370.13,503.14c2.07,17.05,6.41,5.08-0.41,34.62C380.31,515.52,368.38,488.73,370.13,503.14z"/>
	<path d="M380.72,462.82c0.97-0.24,0.68-0.04,4.58-8.55c2.94-6.4,8.39-6.51,12.63-7.43C390.19,443.47,380.72,455.28,380.72,462.82z"
		/>
	<path d="M378.68,466.18c-2.44,7.13-4.99,14.36-5.5,22.09C374.71,480.84,377.76,473.81,378.68,466.18z"/>
	<path d="M338.05,396.43c-2.1,2.82-6.1,11.78-3.67,13.13c1.28-0.99,1.33-2.72,2.34-3.85c-0.08,3.38,0.76,5.17,3.77,6.29
		c5.43,2.02,3.54,3,5.5,2.34c0-6.25-0.7,0.99-5.7-7.43c-0.78-1.32-1.51-3.09-3.45-1.42c0.06-4.41,4.23-6.93,3.55-10.09
		c3.59-0.28-2.34-9.98-2.34-7.74C340.75,398.49,340.57,393.06,338.05,396.43z"/>
	<path d="M332.05,410.17c-3.87-0.2-7.74,1.12-11.4-0.92C323.6,412.82,329.91,413.33,332.05,410.17z"/>
	<path d="M359.54,411.19c-4.17-3.36-7.64-2.14-11-0.1C351.9,410.17,355.36,412.11,359.54,411.19z"/>
	<path d="M358.11,421.88c2.44,2.55,5.5,2.24,8.86,3.46C364.53,422.19,361.37,420.97,358.11,421.88z"/>
	<path d="M353.84,397.24c-2.95,0.1-5.8-0.2-8.86-0.31C347.63,399.58,350.68,398.57,353.84,397.24z"/>
	<path d="M347.22,419.44c2.24,3.05,6.01,3.87,9.47,2.14C353.53,421.68,350.58,420.46,347.22,419.44z"/>
	<path d="M357.5,416.59c1.83,0.1,3.77,0.1,5.4-2.44C360.05,414.04,358.72,415.16,357.5,416.59z"/>
	<path d="M351.29,417c-1.43-0.71-2.75-1.63-4.68-0.92C348.13,418.01,349.86,417,351.29,417z"/>
	<path d="M360.05,442.65c1.02,0.61,1.63,2.24,3.87,1.02C362.49,442.76,361.57,441.94,360.05,442.65z"/>
	<path d="M354.96,441.43c0.81,1.22,1.73,0.92,3.05,0.51C356.89,440.72,355.97,440.82,354.96,441.43z"/>
	<path d="M319.01,410.68c-1.12-0.61-1.93-0.61-2.75,0C317.28,411.6,318,411.7,319.01,410.68z"/>
	<path d="M335.71,382.99c-0.31-1.22-0.71-1.93-2.14-2.24C333.98,382.07,334.49,382.68,335.71,382.99z"/>
	<path d="M347.32,438.17c0.31,0.92,0.92,1.02,2.34,0.81C348.74,437.97,348.34,437.16,347.32,438.17z"/>
<path fill="#e6e6e6" d="m206.8 163.6c0-5.1 4.1-9.2 9.3-9.2s9.2 4.2 9.2 9.2-4.1 9.2-9.3 9.2-9.2-4.1-9.2-9.2zm17.3-.1c0-4.5-3.5-8.2-8.2-8.2s-8.2 3.7-8.2 8.3c0 4.5 3.5 8.2 8.2 8.2s8.2-3.7 8.2-8.3zm-13 0c0-2.8 2.1-5.1 5.1-5.1 1.9 0 2.9.6 3.9 1.5l-1.4 1.7c-.8-.7-1.5-1.1-2.5-1.1-1.7 0-2.8 1.4-2.8 3.1s1.1 3 2.8 3c1.1 0 1.7-.5 2.5-1.1l1.4 1.4c-1.1 1.1-2.1 1.7-4 1.7-2.9 0-5-2.3-5-5.1z"/><path fill="#e6e6e6" d="m226.6 154.7h3.4l4.2 13.2 4.4-13.3h2.6l4.4 13.3 4.2-13.2h3.3l-6.2 18h-2.7l-4.4-12.8-4.4 12.8h-2.7z"/><path fill="#e6e6e6" d="m252.8 165.8c0-3.9 3.1-7 7.2-7 4.2 0 7.2 3.2 7.2 7s-3.1 7-7.3 7c-4 0-7.1-3.1-7.1-7zm11.3 0c0-2.3-1.7-4.3-4.2-4.3s-4.1 2-4.1 4.3 1.7 4.3 4.1 4.3c2.7.1 4.2-1.9 4.2-4.3z"/><path fill="#e6e6e6" d="m269.5 159.1h3.1v3c.8-2 2.4-3.4 4.8-3.3v3.2h-.2c-2.7 0-4.6 1.7-4.6 5.4v5.1h-3.1z"/><path fill="#e6e6e6" d="m279.1 153.9h3.1v11.1l5.6-6h3.8l-5.4 5.5 5.5 8h-3.5l-4.1-5.8-1.9 2v3.9h-3.1z"/><path fill="#e6e6e6" d="m291.7 165.8c0-3.9 3.1-7 7.2-7 4.2 0 7.2 3.2 7.2 7s-3.1 7-7.3 7c-4 0-7.1-3.1-7.1-7zm11.3 0c0-2.3-1.7-4.3-4.2-4.3s-4.1 2-4.1 4.3 1.7 4.3 4.1 4.3c2.6.1 4.2-1.9 4.2-4.3z"/><path fill="#e6e6e6" d="m308.2 167.6v-8.6h3.1v7.6c0 2.1 1.1 3.3 2.9 3.3s3-1.3 3-3.3v-7.6h3.1v13.4h-3.1v-2.1c-.8 1.3-2.1 2.3-4.2 2.3-3.1.2-4.8-1.8-4.8-5z"/><path fill="#e6e6e6" d="m323.9 168.8v-7.1h-1.7v-2.6h1.7v-3.7h3.1v3.7h3.6v2.6h-3.6v6.6c0 1.2.6 1.7 1.7 1.7.7 0 1.3-.2 1.9-.5v2.5c-.8.5-1.7.7-2.8.7-2.3 0-3.9-.9-3.9-3.9z"/><path fill="#e6e6e6" d="m333.2 154.7h3.2v15h9.4v2.9h-12.5v-17.9z"/><path fill="#e6e6e6" d="m356 172.5v-1.7c-.9 1.1-2.3 2-4.4 2-2.6 0-4.8-1.4-4.8-4.2 0-3 2.3-4.4 5.4-4.4 1.7 0 2.6.2 3.7.5v-.2c0-1.9-1.2-2.9-3.3-2.9-1.5 0-2.6.3-3.9.8l-.8-2.5c1.5-.7 2.9-1.1 5.1-1.1 4 0 5.9 2.1 5.9 5.7v8zm.1-5.6c-.8-.3-1.9-.5-3.1-.5-2 0-3.1.8-3.1 2.1s1.1 2 2.6 2c2 0 3.5-1.1 3.5-2.9z"/><path fill="#e6e6e6" d="m364.9 170.5v2.1h-3.1v-18.7h3.1v7.4c1-1.4 2.4-2.5 4.5-2.5 3.2 0 6.3 2.5 6.3 7s-3.1 7-6.3 7c-2.1 0-3.5-1.1-4.5-2.3zm7.7-4.7c0-2.6-1.7-4.3-3.9-4.3s-3.9 1.7-3.9 4.4c0 2.6 1.8 4.3 3.9 4.3s3.9-1.7 3.9-4.4z"/><path fill="#e6e6e6" d="m376.9 170.8 1.4-2.1c1.4 1.1 3 1.7 4.4 1.7s2.1-.5 2.1-1.5-1.3-1.4-2.8-1.8c-.1 0-.2-.1-.2-.1-2-.6-4.2-1.4-4.2-4s2.1-4.1 4.8-4.1c1.7 0 3.5.6 5 1.5l-1.2 2.2c-1.3-.8-2.6-1.3-3.8-1.3s-1.9.5-1.9 1.4 1.3 1.4 2.8 1.8c.1 0 .2.1.2.1 2 .6 4.2 1.5 4.2 4 0 2.9-2.2 4.2-5 4.2-1.9 0-4-.7-5.8-2z"/><path fill="#e6e6e6" d="m505.6 163.6c0-5.1 4.1-9.2 9.3-9.2s9.2 4.2 9.2 9.2-4.1 9.2-9.3 9.2-9.2-4.1-9.2-9.2zm17.4-.1c0-4.5-3.5-8.2-8.2-8.2s-8.2 3.7-8.2 8.3c0 4.5 3.5 8.2 8.2 8.2s8.2-3.7 8.2-8.3zm-13.1 0c0-2.8 2.1-5.1 5.1-5.1 1.9 0 2.9.6 3.9 1.5l-1.4 1.7c-.8-.7-1.5-1.1-2.5-1.1-1.7 0-2.8 1.4-2.8 3.1s1.1 3 2.8 3c1.1 0 1.7-.5 2.5-1.1l1.4 1.4c-1.1 1.1-2.1 1.7-4 1.7-2.9 0-5-2.3-5-5.1z"/><path fill="#e6e6e6" d="m525.4 154.7h3.4l4.2 13.2 4.4-13.3h2.6l4.4 13.3 4.2-13.2h3.3l-6.2 18h-2.7l-4.4-12.8-4.4 12.8h-2.7z"/><path fill="#e6e6e6" d="m551.7 165.8c0-3.9 3.1-7 7.2-7 4.2 0 7.2 3.2 7.2 7s-3.1 7-7.3 7c-4.1 0-7.1-3.1-7.1-7zm11.2 0c0-2.3-1.7-4.3-4.2-4.3s-4.1 2-4.1 4.3 1.7 4.3 4.1 4.3c2.7.1 4.2-1.9 4.2-4.3z"/><path fill="#e6e6e6" d="m568.3 159.1h3.1v3c.8-2 2.4-3.4 4.8-3.3v3.2h-.2c-2.7 0-4.6 1.7-4.6 5.4v5.1h-3.1z"/><path fill="#e6e6e6" d="m577.9 153.9h3.1v11.1l5.6-6h3.8l-5.4 5.5 5.5 8h-3.5l-4.1-5.8-1.9 2v3.9h-3.1z"/><path fill="#e6e6e6" d="m590.6 165.8c0-3.9 3.1-7 7.2-7 4.2 0 7.2 3.2 7.2 7s-3.1 7-7.3 7c-4.1 0-7.1-3.1-7.1-7zm11.2 0c0-2.3-1.7-4.3-4.2-4.3s-4.1 2-4.1 4.3 1.7 4.3 4.1 4.3c2.6.1 4.2-1.9 4.2-4.3z"/><path fill="#e6e6e6" d="m607 167.6v-8.6h3.1v7.6c0 2.1 1.1 3.3 2.9 3.3s3-1.3 3-3.3v-7.6h3.1v13.4h-3.1v-2.1c-.8 1.3-2.1 2.3-4.2 2.3-3 .2-4.8-1.8-4.8-5z"/><path fill="#e6e6e6" d="m622.7 168.8v-7.1h-1.7v-2.6h1.7v-3.7h3.1v3.7h3.6v2.6h-3.6v6.6c0 1.2.6 1.7 1.7 1.7.7 0 1.3-.2 1.9-.5v2.5c-.8.5-1.7.7-2.8.7-2.3 0-3.9-.9-3.9-3.9z"/><path fill="#e6e6e6" d="m632 154.7h3.2v15h9.4v2.9h-12.6z"/><path fill="#e6e6e6" d="m654.8 172.5v-1.7c-.9 1.1-2.3 2-4.4 2-2.6 0-4.8-1.4-4.8-4.2 0-3 2.3-4.4 5.4-4.4 1.7 0 2.6.2 3.7.5v-.2c0-1.9-1.2-2.9-3.3-2.9-1.5 0-2.6.3-3.9.8l-.8-2.5c1.5-.7 2.9-1.1 5.1-1.1 4 0 5.9 2.1 5.9 5.7v8zm.1-5.6c-.8-.3-1.9-.5-3.1-.5-2 0-3.1.8-3.1 2.1s1.1 2 2.6 2c2 0 3.5-1.1 3.5-2.9z"/><path fill="#e6e6e6" d="m663.7 170.5v2.1h-3.1v-18.7h3.1v7.4c1-1.4 2.4-2.5 4.5-2.5 3.2 0 6.3 2.5 6.3 7s-3.1 7-6.3 7c-2.1 0-3.5-1.1-4.5-2.3zm7.8-4.7c0-2.6-1.7-4.3-3.9-4.3-2.1 0-3.9 1.7-3.9 4.4 0 2.6 1.8 4.3 3.9 4.3s3.9-1.7 3.9-4.4z"/><path fill="#e6e6e6" d="m675.8 170.8 1.4-2.1c1.4 1.1 3 1.7 4.4 1.7s2.1-.5 2.1-1.5-1.3-1.4-2.8-1.8c-.1 0-.2-.1-.2-.1-2-.6-4.2-1.4-4.2-4s2.1-4.1 4.8-4.1c1.7 0 3.5.6 5 1.5l-1.2 2.2c-1.3-.8-2.6-1.3-3.8-1.3s-1.9.5-1.9 1.4 1.3 1.4 2.8 1.8c.1 0 .2.1.2.1 2 .6 4.2 1.5 4.2 4 0 2.9-2.2 4.2-5 4.2-2 0-4.1-.7-5.8-2z"/><path fill="#e6e6e6" d="m61 298.6c0-5.1 4.1-9.2 9.3-9.2s9.2 4.2 9.2 9.2-4.1 9.2-9.3 9.2c-5.1 0-9.2-4.2-9.2-9.2zm17.4-.1c0-4.5-3.5-8.2-8.2-8.2s-8.2 3.7-8.2 8.3c0 4.5 3.5 8.2 8.2 8.2s8.2-3.7 8.2-8.3zm-13.1-.1c0-2.8 2.1-5.1 5.1-5.1 1.9 0 2.9.6 3.9 1.5l-1.4 1.7c-.8-.7-1.5-1.1-2.5-1.1-1.7 0-2.8 1.4-2.8 3.1s1.1 3 2.8 3c1.1 0 1.7-.5 2.5-1.1l1.4 1.4c-1.1 1.1-2.1 1.7-4 1.7-2.8.1-5-2.2-5-5.1z"/><path fill="#e6e6e6" d="m80.9 289.7h3.4l4.2 13.2 4.4-13.3h2.6l4.4 13.3 4.2-13.2h3.3l-6.2 18h-2.7l-4.4-12.8-4.4 12.8h-2.7z"/><path fill="#e6e6e6" d="m107.1 300.8c0-3.9 3.1-7 7.2-7s7.2 3.2 7.2 7-3.1 7-7.3 7c-4 0-7.1-3.1-7.1-7zm11.3 0c0-2.3-1.7-4.3-4.2-4.3s-4.1 2-4.1 4.3 1.7 4.3 4.1 4.3c2.6.1 4.2-1.9 4.2-4.3z"/><path fill="#e6e6e6" d="m123.7 294h3.1v3c.8-2 2.4-3.4 4.8-3.3v3.2h-.2c-2.7 0-4.6 1.7-4.6 5.4v5.1h-3.1z"/><path fill="#e6e6e6" d="m133.4 288.9h3.1v11.1l5.6-6h3.8l-5.4 5.5 5.5 8h-3.5l-4.1-5.8-1.9 1.9v3.9h-3.1z"/><path fill="#e6e6e6" d="m146 300.8c0-3.9 3.1-7 7.2-7s7.2 3.2 7.2 7-3.1 7-7.3 7c-4.1 0-7.1-3.1-7.1-7zm11.2 0c0-2.3-1.7-4.3-4.2-4.3s-4.1 2-4.1 4.3 1.7 4.3 4.1 4.3c2.6.1 4.2-1.9 4.2-4.3z"/><path fill="#e6e6e6" d="m162.4 302.6v-8.6h3.1v7.6c0 2.1 1.1 3.3 2.9 3.3s3-1.3 3-3.3v-7.6h3.1v13.4h-3.1v-2.1c-.8 1.3-2.1 2.3-4.2 2.3-3 .2-4.8-1.8-4.8-5z"/><path fill="#e6e6e6" d="m178.1 303.8v-7.1h-1.7v-2.7h1.7v-3.7h3.1v3.7h3.6v2.6h-3.6v6.6c0 1.2.6 1.7 1.7 1.7.7 0 1.3-.2 1.9-.5v2.5c-.8.5-1.7.7-2.8.7-2.3.1-3.9-.9-3.9-3.8z"/><path fill="#e6e6e6" d="m187.4 289.7h3.2v15h9.4v2.9h-12.5v-17.9z"/><path fill="#e6e6e6" d="m210.2 307.5v-1.7c-.9 1.1-2.3 2-4.4 2-2.6 0-4.8-1.4-4.8-4.2 0-3 2.3-4.4 5.4-4.4 1.7 0 2.6.2 3.7.5v-.2c0-1.9-1.2-2.9-3.3-2.9-1.5 0-2.6.3-3.9.8l-.8-2.5c1.5-.7 2.9-1.1 5.1-1.1 4 0 5.9 2.1 5.9 5.7v8zm.1-5.6c-.8-.3-1.9-.5-3.1-.5-2 0-3.1.8-3.1 2.1s1.1 2 2.6 2c2 0 3.5-1.1 3.5-2.9z"/><path fill="#e6e6e6" d="m219.2 305.5v2.1h-3.1v-18.7h3.1v7.4c1-1.4 2.4-2.5 4.5-2.5 3.2 0 6.3 2.5 6.3 7s-3.1 7-6.3 7c-2.2 0-3.6-1.1-4.5-2.3zm7.7-4.7c0-2.6-1.7-4.3-3.9-4.3s-3.9 1.7-3.9 4.4c0 2.6 1.8 4.3 3.9 4.3s3.9-1.7 3.9-4.4z"/><path fill="#e6e6e6" d="m231.2 305.8 1.4-2.1c1.4 1.1 3 1.7 4.4 1.7s2.1-.5 2.1-1.5-1.3-1.4-2.8-1.8c-.1 0-.2-.1-.2-.1-2-.6-4.2-1.4-4.2-4s2.1-4.1 4.8-4.1c1.7 0 3.5.6 5 1.5l-1.2 2.2c-1.3-.8-2.6-1.3-3.8-1.3s-1.9.5-1.9 1.4 1.3 1.4 2.8 1.8c.1 0 .2.1.2.1 2 .6 4.2 1.5 4.2 4 0 2.9-2.2 4.2-5 4.2-2 0-4.1-.7-5.8-2z"/><path fill="#e6e6e6" d="m360.6 298.6c0-5.1 4.1-9.2 9.3-9.2s9.2 4.2 9.2 9.2-4.1 9.2-9.3 9.2-9.2-4.2-9.2-9.2zm17.4-.1c0-4.5-3.5-8.2-8.2-8.2s-8.2 3.7-8.2 8.3c0 4.5 3.5 8.2 8.2 8.2s8.2-3.7 8.2-8.3zm-13.1-.1c0-2.8 2.1-5.1 5.1-5.1 1.9 0 2.9.6 3.9 1.5l-1.4 1.7c-.8-.7-1.5-1.1-2.5-1.1-1.7 0-2.8 1.4-2.8 3.1s1.1 3 2.8 3c1.1 0 1.7-.5 2.5-1.1l1.4 1.4c-1.1 1.1-2.1 1.7-4 1.7-2.8.1-5-2.2-5-5.1z"/><path fill="#e6e6e6" d="m380.5 289.7h3.4l4.2 13.2 4.4-13.3h2.6l4.4 13.3 4.2-13.2h3.3l-6.2 18h-2.7l-4.4-12.8-4.4 12.8h-2.7z"/><path fill="#e6e6e6" d="m406.7 300.8c0-3.9 3.1-7 7.2-7 4.2 0 7.2 3.2 7.2 7s-3.1 7-7.3 7c-4.1 0-7.1-3.1-7.1-7zm11.3 0c0-2.3-1.7-4.3-4.2-4.3s-4.1 2-4.1 4.3 1.7 4.3 4.1 4.3c2.7.1 4.2-1.9 4.2-4.3z"/><path fill="#e6e6e6" d="m423.3 294h3.1v3c.8-2 2.4-3.4 4.8-3.3v3.2h-.2c-2.7 0-4.6 1.7-4.6 5.4v5.1h-3.1z"/><path fill="#e6e6e6" d="m433 288.9h3.1v11.1l5.6-6h3.8l-5.4 5.5 5.5 8h-3.5l-4.1-5.8-1.9 2v3.9h-3.1z"/><path fill="#e6e6e6" d="m445.6 300.8c0-3.9 3.1-7 7.2-7 4.2 0 7.2 3.2 7.2 7s-3.1 7-7.3 7c-4.1 0-7.1-3.1-7.1-7zm11.3 0c0-2.3-1.7-4.3-4.2-4.3s-4.1 2-4.1 4.3 1.7 4.3 4.1 4.3c2.6.1 4.2-1.9 4.2-4.3z"/><path fill="#e6e6e6" d="m462.1 302.6v-8.6h3.1v7.6c0 2.1 1.1 3.3 2.9 3.3s3-1.3 3-3.3v-7.6h3.1v13.4h-3.1v-2.1c-.8 1.3-2.1 2.3-4.2 2.3-3.1.2-4.8-1.8-4.8-5z"/><path fill="#e6e6e6" d="m477.8 303.8v-7.1h-1.8v-2.7h1.7v-3.7h3.1v3.7h3.6v2.6h-3.6v6.6c0 1.2.6 1.7 1.7 1.7.7 0 1.3-.2 1.9-.5v2.5c-.8.5-1.7.7-2.8.7-2.2.1-3.8-.9-3.8-3.8z"/><path fill="#e6e6e6" d="m487.1 289.7h3.2v15h9.4v2.9h-12.5v-17.9z"/><path fill="#e6e6e6" d="m509.9 307.5v-1.7c-.9 1.1-2.3 2-4.4 2-2.6 0-4.8-1.4-4.8-4.2 0-3 2.3-4.4 5.4-4.4 1.7 0 2.6.2 3.7.5v-.2c0-1.9-1.2-2.9-3.3-2.9-1.5 0-2.6.3-3.9.8l-.8-2.5c1.5-.7 2.9-1.1 5.1-1.1 4 0 5.9 2.1 5.9 5.7v8zm.1-5.6c-.8-.3-1.9-.5-3.1-.5-2 0-3.1.8-3.1 2.1s1.1 2 2.6 2c2 0 3.5-1.1 3.5-2.9z"/><path fill="#e6e6e6" d="m518.8 305.5v2.1h-3.1v-18.7h3.1v7.4c1-1.4 2.4-2.5 4.5-2.5 3.2 0 6.3 2.5 6.3 7s-3.1 7-6.3 7c-2.2 0-3.5-1.1-4.5-2.3zm7.7-4.7c0-2.6-1.7-4.3-3.9-4.3s-3.9 1.7-3.9 4.4c0 2.6 1.8 4.3 3.9 4.3s3.9-1.7 3.9-4.4z"/><path fill="#e6e6e6" d="m530.8 305.8 1.4-2.1c1.4 1.1 3 1.7 4.4 1.7s2.1-.5 2.1-1.5-1.3-1.4-2.8-1.8c-.1 0-.2-.1-.2-.1-2-.6-4.2-1.4-4.2-4s2.1-4.1 4.8-4.1c1.7 0 3.5.6 5 1.5l-1.2 2.2c-1.3-.8-2.6-1.3-3.8-1.3s-1.9.5-1.9 1.4 1.3 1.4 2.8 1.8c.1 0 .2.1.2.1 2 .6 4.2 1.5 4.2 4 0 2.9-2.2 4.2-5 4.2-1.9 0-4.1-.7-5.8-2z"/><path fill="#e6e6e6" d="m659.5 298.6c0-5.1 4.1-9.2 9.3-9.2s9.2 4.2 9.2 9.2-4.1 9.2-9.3 9.2-9.2-4.2-9.2-9.2zm17.3-.1c0-4.5-3.5-8.2-8.2-8.2s-8.2 3.7-8.2 8.3c0 4.5 3.5 8.2 8.2 8.2 4.8 0 8.2-3.7 8.2-8.3zm-13-.1c0-2.8 2.1-5.1 5.1-5.1 1.9 0 2.9.6 3.9 1.5l-1.4 1.7c-.8-.7-1.5-1.1-2.5-1.1-1.7 0-2.8 1.4-2.8 3.1s1.1 3 2.8 3c1.1 0 1.7-.5 2.5-1.1l1.4 1.4c-1.1 1.1-2.1 1.7-4 1.7-2.9.1-5-2.2-5-5.1z"/><path fill="#e6e6e6" d="m679.3 289.7h3.4l4.2 13.2 4.4-13.3h2.6l4.4 13.3 4.2-13.2h3.3l-6.2 18h-2.6l-4.4-12.8-4.4 12.8h-2.7z"/><path fill="#e6e6e6" d="m705.5 300.8c0-3.9 3.1-7 7.2-7 4.2 0 7.2 3.2 7.2 7s-3.1 7-7.3 7c-4 0-7.1-3.1-7.1-7zm11.3 0c0-2.3-1.7-4.3-4.2-4.3s-4.1 2-4.1 4.3 1.7 4.3 4.1 4.3c2.7.1 4.2-1.9 4.2-4.3z"/><path fill="#e6e6e6" d="m722.1 294h3.1v3c.8-2 2.4-3.4 4.8-3.3v3.2h-.2c-2.7 0-4.6 1.7-4.6 5.4v5.1h-3.1z"/><path fill="#e6e6e6" d="m731.8 288.9h3.1v11.1l5.6-6h3.8l-5.4 5.5 5.5 8h-3.5l-4.1-5.8-1.9 2v3.9h-3.1z"/><path fill="#e6e6e6" d="m744.4 300.8c0-3.9 3.1-7 7.2-7 4.2 0 7.2 3.2 7.2 7s-3.1 7-7.3 7c-4.1 0-7.1-3.1-7.1-7zm11.3 0c0-2.3-1.7-4.3-4.2-4.3s-4.1 2-4.1 4.3 1.7 4.3 4.1 4.3c2.6.1 4.2-1.9 4.2-4.3z"/><path fill="#e6e6e6" d="m760.9 302.6v-8.6h3.1v7.6c0 2.1 1.1 3.3 2.9 3.3s3-1.3 3-3.3v-7.6h3.1v13.4h-3.1v-2.1c-.8 1.3-2.1 2.3-4.2 2.3-3.1.2-4.8-1.8-4.8-5z"/><path fill="#e6e6e6" d="m776.6 303.8v-7.1h-1.7v-2.7h1.7v-3.7h3.1v3.7h3.6v2.6h-3.6v6.6c0 1.2.6 1.7 1.7 1.7.7 0 1.3-.2 1.9-.5v2.5c-.8.5-1.7.7-2.8.7-2.3.1-3.9-.9-3.9-3.8z"/><path fill="#e6e6e6" d="m785.9 289.7h3.2v15h9.4v2.9h-12.5v-17.9z"/><path fill="#e6e6e6" d="m808.7 307.5v-1.7c-.9 1.1-2.3 2-4.4 2-2.6 0-4.8-1.4-4.8-4.2 0-3 2.3-4.4 5.4-4.4 1.7 0 2.6.2 3.7.5v-.2c0-1.9-1.2-2.9-3.3-2.9-1.5 0-2.6.3-3.9.8l-.8-2.5c1.5-.7 2.9-1.1 5.1-1.1 4 0 5.9 2.1 5.9 5.7v8zm.1-5.6c-.8-.3-1.9-.5-3.1-.5-2 0-3.1.8-3.1 2.1s1.1 2 2.6 2c2 0 3.5-1.1 3.5-2.9z"/><path fill="#e6e6e6" d="m817.6 305.5v2.1h-3.1v-18.7h3.1v7.4c1-1.4 2.4-2.5 4.5-2.5 3.2 0 6.3 2.5 6.3 7s-3.1 7-6.3 7c-2.1 0-3.5-1.1-4.5-2.3zm7.7-4.7c0-2.6-1.7-4.3-3.9-4.3-2.1 0-3.9 1.7-3.9 4.4 0 2.6 1.8 4.3 3.9 4.3 2.2 0 3.9-1.7 3.9-4.4z"/><path fill="#e6e6e6" d="m829.6 305.8 1.4-2.1c1.4 1.1 3 1.7 4.4 1.7s2.1-.5 2.1-1.5-1.3-1.4-2.8-1.8c-.1 0-.2-.1-.2-.1-2-.6-4.2-1.4-4.2-4s2.1-4.1 4.8-4.1c1.7 0 3.5.6 5 1.5l-1.2 2.2c-1.3-.8-2.6-1.3-3.8-1.3s-1.9.5-1.9 1.4 1.3 1.4 2.8 1.8c.1 0 .2.1.2.1 2 .6 4.2 1.5 4.2 4 0 2.9-2.2 4.2-5 4.2-1.9 0-4-.7-5.8-2z"/><path fill="#e6e6e6" d="m206.3 434.2c0-5.1 4.1-9.2 9.3-9.2s9.2 4.2 9.2 9.2-4.1 9.2-9.3 9.2-9.2-4.1-9.2-9.2zm17.4-.1c0-4.5-3.5-8.2-8.2-8.2s-8.2 3.7-8.2 8.3c0 4.5 3.5 8.2 8.2 8.2s8.2-3.7 8.2-8.3zm-13.1-.1c0-2.8 2.1-5.1 5.1-5.1 1.9 0 2.9.6 3.9 1.5l-1.4 1.7c-.8-.7-1.5-1.1-2.5-1.1-1.7 0-2.8 1.4-2.8 3.1s1.1 3 2.8 3c1.1 0 1.7-.5 2.5-1.1l1.4 1.4c-1.1 1.1-2.1 1.7-4 1.7-2.9.1-5-2.2-5-5.1z"/><path fill="#e6e6e6" d="m226.1 425.3h3.4l4.2 13.2 4.4-13.3h2.6l4.4 13.3 4.2-13.2h3.3l-6.2 18h-2.7l-4.4-12.8-4.4 12.8h-2.7z"/><path fill="#e6e6e6" d="m252.4 436.4c0-3.9 3.1-7 7.2-7 4.2 0 7.2 3.2 7.2 7s-3.1 7-7.3 7c-4.1 0-7.1-3.1-7.1-7zm11.2 0c0-2.3-1.7-4.3-4.2-4.3s-4.1 2-4.1 4.3 1.7 4.3 4.1 4.3c2.7.1 4.2-1.9 4.2-4.3z"/><path fill="#e6e6e6" d="m269 429.7h3.1v3c.8-2 2.4-3.4 4.8-3.3v3.2h-.2c-2.7 0-4.6 1.7-4.6 5.4v5.1h-3.1z"/><path fill="#e6e6e6" d="m278.6 424.5h3.1v11.1l5.6-6h3.8l-5.4 5.5 5.5 8h-3.5l-4.1-5.8-1.9 2v3.9h-3.1z"/><path fill="#e6e6e6" d="m291.3 436.4c0-3.9 3.1-7 7.2-7 4.2 0 7.2 3.2 7.2 7s-3.1 7-7.3 7c-4.1 0-7.1-3.1-7.1-7zm11.2 0c0-2.3-1.7-4.3-4.2-4.3s-4.1 2-4.1 4.3 1.7 4.3 4.1 4.3c2.6.1 4.2-1.9 4.2-4.3z"/><path fill="#e6e6e6" d="m307.7 438.2v-8.6h3.1v7.6c0 2.1 1.1 3.3 2.9 3.3s3-1.3 3-3.3v-7.6h3.1v13.4h-3.1v-2.1c-.8 1.3-2.1 2.3-4.2 2.3-3 .2-4.8-1.8-4.8-5z"/><path fill="#e6e6e6" d="m323.4 439.4v-7.1h-1.7v-2.6h1.7v-3.7h3.1v3.7h3.6v2.6h-3.6v6.6c0 1.2.6 1.7 1.7 1.7.7 0 1.3-.2 1.9-.5v2.5c-.8.5-1.7.7-2.8.7-2.3 0-3.9-.9-3.9-3.9z"/><path fill="#e6e6e6" d="m332.7 425.3h3.2v15h9.4v2.9h-12.5v-17.9z"/><path fill="#e6e6e6" d="m355.5 443.1v-1.7c-.9 1.1-2.3 2-4.4 2-2.6 0-4.8-1.4-4.8-4.2 0-3 2.3-4.4 5.4-4.4 1.7 0 2.6.2 3.7.5v-.2c0-1.9-1.2-2.9-3.3-2.9-1.5 0-2.6.3-3.9.8l-.8-2.5c1.5-.7 2.9-1.1 5.1-1.1 4 0 5.9 2.1 5.9 5.7v8zm.1-5.6c-.8-.3-1.9-.5-3.1-.5-2 0-3.1.8-3.1 2.1s1.1 2 2.6 2c2 0 3.5-1.1 3.5-2.9z"/><path fill="#e6e6e6" d="m364.4 441.1v2.1h-3.1v-18.7h3.1v7.4c1-1.4 2.4-2.5 4.5-2.5 3.2 0 6.3 2.5 6.3 7s-3.1 7-6.3 7c-2.1 0-3.5-1.1-4.5-2.3zm7.7-4.7c0-2.6-1.7-4.3-3.9-4.3-2.1 0-3.9 1.7-3.9 4.4 0 2.6 1.8 4.3 3.9 4.3 2.2 0 3.9-1.7 3.9-4.4z"/><path fill="#e6e6e6" d="m376.5 441.4 1.4-2.1c1.4 1.1 3 1.7 4.4 1.7s2.1-.5 2.1-1.5-1.3-1.4-2.8-1.8c-.1 0-.2-.1-.2-.1-2-.6-4.2-1.4-4.2-4s2.1-4.1 4.8-4.1c1.7 0 3.5.6 5 1.5l-1.2 2.2c-1.3-.8-2.6-1.3-3.8-1.3s-1.9.5-1.9 1.4 1.3 1.4 2.8 1.8c.1 0 .2.1.2.1 2 .6 4.2 1.5 4.2 4 0 2.9-2.2 4.2-5 4.2-2 0-4.1-.7-5.8-2z"/><path fill="#e6e6e6" d="m505.1 434.2c0-5.1 4.1-9.2 9.3-9.2s9.2 4.2 9.2 9.2-4.1 9.2-9.3 9.2-9.2-4.1-9.2-9.2zm17.4-.1c0-4.5-3.5-8.2-8.2-8.2s-8.2 3.7-8.2 8.3c0 4.5 3.5 8.2 8.2 8.2s8.2-3.7 8.2-8.3zm-13.1-.1c0-2.8 2.1-5.1 5.1-5.1 1.9 0 2.9.6 3.9 1.5l-1.4 1.7c-.8-.7-1.5-1.1-2.5-1.1-1.7 0-2.8 1.4-2.8 3.1s1.1 3 2.8 3c1.1 0 1.7-.5 2.5-1.1l1.4 1.4c-1.1 1.1-2.1 1.7-4 1.7-2.9.1-5-2.2-5-5.1z"/><path fill="#e6e6e6" d="m525 425.3h3.4l4.2 13.2 4.4-13.3h2.6l4.4 13.3 4.2-13.2h3.3l-6.2 18h-2.7l-4.4-12.8-4.4 12.8h-2.7z"/><path fill="#e6e6e6" d="m551.2 436.4c0-3.9 3.1-7 7.2-7 4.2 0 7.2 3.2 7.2 7s-3.1 7-7.3 7c-4.1 0-7.1-3.1-7.1-7zm11.2 0c0-2.3-1.7-4.3-4.2-4.3s-4.1 2-4.1 4.3 1.7 4.3 4.1 4.3c2.7.1 4.2-1.9 4.2-4.3z"/><path fill="#e6e6e6" d="m567.8 429.7h3.1v3c.8-2 2.4-3.4 4.8-3.3v3.2h-.2c-2.7 0-4.6 1.7-4.6 5.4v5.1h-3.1z"/><path fill="#e6e6e6" d="m577.5 424.5h3.1v11.1l5.6-6h3.8l-5.4 5.5 5.5 8h-3.5l-4.1-5.8-1.9 2v3.9h-3.1z"/><path fill="#e6e6e6" d="m590.1 436.4c0-3.9 3.1-7 7.2-7 4.2 0 7.2 3.2 7.2 7s-3.1 7-7.3 7c-4.1 0-7.1-3.1-7.1-7zm11.2 0c0-2.3-1.7-4.3-4.2-4.3s-4.1 2-4.1 4.3 1.7 4.3 4.1 4.3c2.6.1 4.2-1.9 4.2-4.3z"/><path fill="#e6e6e6" d="m606.5 438.2v-8.6h3.1v7.6c0 2.1 1.1 3.3 2.9 3.3s3-1.3 3-3.3v-7.6h3.1v13.4h-3.1v-2.1c-.8 1.3-2.1 2.3-4.2 2.3-3 .2-4.8-1.8-4.8-5z"/><path fill="#e6e6e6" d="m622.2 439.4v-7.1h-1.7v-2.6h1.7v-3.7h3.1v3.7h3.6v2.6h-3.6v6.6c0 1.2.6 1.7 1.7 1.7.7 0 1.3-.2 1.9-.5v2.5c-.8.5-1.7.7-2.8.7-2.3 0-3.9-.9-3.9-3.9z"/><path fill="#e6e6e6" d="m631.5 425.3h3.2v15h9.4v2.9h-12.5v-17.9z"/><path fill="#e6e6e6" d="m654.3 443.1v-1.7c-.9 1.1-2.3 2-4.4 2-2.6 0-4.8-1.4-4.8-4.2 0-3 2.3-4.4 5.4-4.4 1.7 0 2.6.2 3.7.5v-.2c0-1.9-1.2-2.9-3.3-2.9-1.5 0-2.6.3-3.9.8l-.8-2.5c1.5-.7 2.9-1.1 5.1-1.1 4 0 5.9 2.1 5.9 5.7v8zm.1-5.6c-.8-.3-1.9-.5-3.1-.5-2 0-3.1.8-3.1 2.1s1.1 2 2.6 2c2 0 3.5-1.1 3.5-2.9z"/><path fill="#e6e6e6" d="m663.3 441.1v2.1h-3.1v-18.7h3.1v7.4c1-1.4 2.4-2.5 4.5-2.5 3.2 0 6.3 2.5 6.3 7s-3.1 7-6.3 7c-2.2 0-3.6-1.1-4.5-2.3zm7.7-4.7c0-2.6-1.7-4.3-3.9-4.3s-3.9 1.7-3.9 4.4c0 2.6 1.8 4.3 3.9 4.3s3.9-1.7 3.9-4.4z"/><path fill="#e6e6e6" d="m675.3 441.4 1.4-2.1c1.4 1.1 3 1.7 4.4 1.7s2.1-.5 2.1-1.5-1.3-1.4-2.8-1.8c-.1 0-.2-.1-.2-.1-2-.6-4.2-1.4-4.2-4s2.1-4.1 4.8-4.1c1.7 0 3.5.6 5 1.5l-1.2 2.2c-1.3-.8-2.6-1.3-3.8-1.3s-1.9.5-1.9 1.4 1.3 1.4 2.8 1.8c.1 0 .2.1.2.1 2 .6 4.2 1.5 4.2 4 0 2.9-2.2 4.2-5 4.2-2 0-4.1-.7-5.8-2z"/></g>
</svg>
