<?xml version="1.0" encoding="utf-8"?>
<!-- Generator: Adobe Illustrator 23.0.1, SVG Export Plug-In . SVG Version: 6.00 Build 0)  -->
<svg version="1.2" baseProfile="tiny" id="Layer_1" xmlns="http://www.w3.org/2000/svg" xmlns:xlink="http://www.w3.org/1999/xlink"
	 x="0px" y="0px" viewBox="0 0 900 600" xml:space="preserve">
<g>
	<path d="M870.06,301.41c0.03,0.04,0.05,0.1,0.1,0.1L870.06,301.41z"/>
	<path d="M872.38,286.59c-0.65,5.55,5.48,2.59-0.4,17.44c-0.22-2.7-8.53-6.61-11.7-0.4c0.63,3.14-2.66,1.48-2.72,6.55
		c-0.14,10.77-6.11,26.92-4.94,38.42c0.67,6.6-2.12,4.4-2.12,10.49c0,5.07-2.02,1.78-2.02,11.19c0,3.83-2.98,9.67-1.11,13.9
		c-2.52-0.4-2.74,2.54-4.64,3.24c0-3.49-6-2.98-12-10.69c-4.01-5.16-10.18-6.25-15.73-8.67c-1.52-0.51-3.31,1.4-8.77-3.93
		c-5.66-5.53-5.37-4.44-6.96-6.66c-5.61-7.8,1.32-18.81-0.1-25.71c-1.85-9-0.49-10.61-2.82-16.23
		c-4.28-10.31-16.16-22.39-19.16-22.08c-5.04,0.51-42.19-34.72-85.51-35.09c-67.43-0.58-91.25,13.14-96.9,14.92
		c-11.5,3.62-12.39,7.52-15.53,9.38c-6.39,3.77-12.3,8.37-18.55,12.91c-0.81-0.2-1.71-1.51-3.43-1.01
		c-4.57,9.89-16.14,9.96-25.51,25.51c-24.22,40.19-6.38,71.72,0.6,100.83c3.97,16.56,3.09,25.36,5.75,25.71
		c3.09-5.29-9.91-52.5-11.6-58.38c-4.46-15.6-3.95-20.15-2.62-32.07c2.17-19.48,1.17-15.63,11.5-35.39
		c3.04-5.82-0.02-3.18,19.26-17.65c4.34,5.24,9.48,9.38,16.03,12c0-1.41-1.71-1.31-1.41-2.72c1.21-1.11,2.42-2.22,3.83-3.53
		c0.6,0.4,1.31,0.4,1.51,1.21c-0.4,0.81-1.51,0.81-1.82,1.71c0.71,0.91,1.51-0.81,2.22,0.2c-1.37,2.39-4.21,3.46-1.41,5.14
		c0.75-0.25,0.51-0.98,5.34-2.02c0.6,1.21-0.91,2.02-0.1,3.23c1.41-0.6,1.51-2.22,2.72-3.13c10.83,11.95,11.38,7.7,6.66,11.9
		c-0.91-0.2-1.41-0.81-1.82-1.31c-0.1-1.01,1.51-1.11,1.31-2.12c-1.31-0.61-1.92,0.71-3.13,0.91c-10.74-9.02-17.3-11.09-1.31,0.91
		c-3.33,10.49-6.96,20.27-11.7,29.65c14.47-22.54,10.05-28,13.41-28.44c1.91-0.25,1.71,2.62,3.63,2.32
		c0.91-1.51,2.92-1.92,3.53-4.03c6.02,5.67,5.45,4.03,2.42,5.55c-0.1-0.81,1.01-1.31,0-2.12c-1.51-0.4-2.32,0.91-3.23,1.71
		c-1.21,0.2-1.71-1.21-2.72-1.11c2.72,4.84,6.96,8.57,10.99,11.9c0.1,0.71-0.81,1.31,0,2.02c2.92,0.5,4.94,2.52,6.05,5.95
		c6.1,1.86,3.47,5.54,8.17,8.77c11.48,7.9,9.59,4.19,13.41,7.66c3.33,3.02,10,2.03,9.48,0.1c-1.92-0.5-3.93,0.1-6.55-0.81
		c2.62-0.71,3.93-2.22,5.45-3.23c4.13,1.24,0.42,3.95,7.26,6.35c1.93,0.68,2.12,2.02,1.51,3.73c-4.23-1.47-11,3.85-4.34,8.47
		c0.91-4.74,0.91-4.74,3.93-6.35c-1.01,2.32,0.63,4.13,0.6,6.15c-0.05,3.73,1.71,6.56,3.83,9.28c7.23,9.25,1.59,14.49,8.37,28.33
		c-4.03-1.11-7.66-1.51-10.99-3.23c0.6-2.12,2.63-3.53,2.02-5.65c-1.59-5.45-1.01-10.99-1.11-16.44c-0.11-6.1-4.02,2.82-0.6,16.94
		c-1.21,2.72-3.93,4.44-5.45,6.86c1.92,1.92,2.82-0.1,4.03-0.4c5.73,5.4,13.58,1.24,13.01,5.24c-0.45,5.72,3.44,8.88,3.93,12.2
		c1.31,8.8,3.65,12.87,2.72,14.72c-6.15,0.1-12.4,1.11-18.76-1.41c-1.61-3.43-1.71-4.94-0.6-7.36c4.03,1.92,8.27,1.92,12.71,1.71
		c-5.56-1.72-14.87-2.42-12.71-6.76c2.82-0.1,5.75,0.71,8.57-0.3c-8.45-2.72-9.33,0.95-11.9-8.47c2.32-0.71,4.54-0.91,7.36-1.01
		c-2.92-1.21-5.34-1.82-8.17-0.71c-2.3-17.1,0.65-23.43-4.44-28.23c1.01-1.51,2.82-1.31,3.63-2.62c-2.12-1.11-4.03,0.3-6.45,0.71
		c0.6-2.62-0.3-4.94-0.4-7.46c3.02,0.6,5.75,2.32,8.97,0.5c-2.42-2.2-8.6-0.96-9.08-7.66c-0.23-3.22-17.05-22.08-12.6-8.77
		c1.14,3.41,3.07,6.19,5.13,9.01c-3.06-1.56-6.14-3.36-9.77-3.07c-16.54,1.35-16.43,1.29-17.24,3.03c0.2,2.02,1.61,2.09,3.13,1.82
		c3.62-0.66,7.46-0.91,10.99-2.12c9.47-3.24,14.74,6.22,13.45,1.08c2.65,2.87,4.03,6.4,4.6,10.21c1.45,9.76,6.62,3.76,6.35,15.93
		c-0.06,2.81-0.19,21.74,2.62,24.2c5.55,4.86-0.2,9.08,3.23,16.84c2.13,4.83,2.52,9.98,3.83,15.02c-2.12,1.51-4.64,1.2-6.96,1.71
		c-34.68,7.72-58.83-1.51-81.98-1.51c-1.61-3.13-3.33-6.14-6.45-7.87c-6.31-3.48-11.99-8.78-26.92-7.87
		c-2.32,0.14-4.44,0.5-6.55-0.91c-1.51-1.01-3.53-1.21-5.24-1.92c-17.88-7.34-11.16-5.56-13.41-10.39
		c-16.1-8.59-14.63-11.56-17.85-12c-3.17-0.44-4.64-4.52-5.24-7.66c-6.66,0.91-11.6,4.03-14.92,9.58c-1.61-0.3-3.02-1.01-4.64-1.01
		c-2.97,0,0.07-3.59-7.76-4.74c-1.51-0.22-3.15-0.48-4.23-1.71c-1.75-1.98-4.13-3.43-4.94-6.25c-0.43-1.15-1.74-1.84-3.53-0.1
		c-19.9,19.35-12.5,38-20.17,55.26c-2.93,6.6-4.34,16.47-4.34,22.49c0,10.63,2.45,12.5,7.87,23.9c4.9,10.3,19.91,17.67,35.29,9.98
		c1.21-0.6,2.42-1.01,3.63-0.91c0.2-0.81,0.4-1.41,0.6-2.02c14.01-1.29,17.48-11.28,14.52-13.71c-3.33-2.74-0.19,0.09-3.03-8.07
		c-2.04-5.87,1.99-2.74,12.2-9.78c2.92-2.02,3.93-5.75,2.82-8.57c4.24,0.5,7.26,3.64,11.09,5.14c16.76,6.57,31.64,21.88,47.19,30.65
		c14.15,7.98,46.42,23.97,62.11,22.59c11.31-0.99,15.28,3.52,21.78,0.4c6.75-3.23,11.9-8.07,15.33-14.52
		c3.03,0.4,6.04,0.44,8.87,1.61c3.36,1.39,13.98-3.39,17.24-13.01c9.31-27.46-0.49-56-2.12-65.44c-0.02-0.1-2.83-13.4-4.24-16.13
		c-4.84-9.44-0.37-4.2-4.94-14.92c-5.08-11.92,0.27-17.72-8.37-27.02c-1.21-1.3-2.92-3.76-2.92-5.65c0.91,0.1,0.71,1.61,2.42,1.31
		c-3.13-3.93-3.09-7.96-2.12-12.3c1.05-4.67-5.07-4.6-6.45-6.76c6.6-0.76,7.02,0.75,18.86,2.32c10.23,1.35,18.03-1.1,20.07,1.21
		c4.25,4.82,10.19,7.15,15.53,10.18c29.14,16.53,9.33-3.73,4.94,41.44c-2.32,23.89-5.9,19.53-3.33,29.95
		c5.49,22.22,16.31,21.74,53.54,20.87c15.16-0.35,24.08-4.26,35.49-7.87c11.26-3.56,6.41-5.95,17.55-5.95
		c7.71,0,7.46-0.53,7.46-2.32c4.06-0.51,5.14,1.02,10.49,1.21c0,6.27,1.31,2.01,4.94,9.58c0.71-0.71,0.6-1.71,1.51-2.02
		c0.3,1.41-0.6,3.13,1.21,4.03c2.02-1.31,0.91-4.23,3.23-5.24c0.71,0.1,0.92,1.65,2.42,1.11c1.32-0.47,1.61-3.03,3.93-2.52
		c-0.31-7.33,3.49-1.76,7.36-15.53c8.66-2.39,11.12-8.1,12.5-9.18c7.33-5.7,2.92-11.58,4.34-20.67c3.83-3.73,4.44-8.77,1.31-12.81
		c2.62-1.31,2.22-3.03,1.01-5.14c-2.62-4.58-0.1-6.03,1.31-13.81c0.02-0.1,3.54-22.19,3.23-22.79c-1.69-3.18,0.98-4.21,1.61-13.71
		c0.68-10.22,2.36-9.49,1.82-14.82c-0.72-7.13,1.66-14.99-0.91-20.77c-1.26,0.29-1.32,1.5-2.21,1.77c0.32-3.1,3.13-4.41,4.43-6.72
		c0.71,0.2,0.3,1.41,1.41,1.01C876.75,296.21,879.36,289.87,872.38,286.59z M621.4,367.56c5.45,4.24,10.89,11.09,11.39,14.42
		C630.28,381.27,623.72,373.2,621.4,367.56z M576.63,468.19c-1.21-0.91-2.42-1.71-3.53-2.52
		C575.73,465.37,575.73,465.37,576.63,468.19z M502.93,441.27c-1.82-0.71-3.63-1.31-5.85-2.02
		C498.89,438.24,498.89,438.24,502.93,441.27z M473.88,416.86c3.86,6.06,1.65,4.78,12.4,10.59c4.01,2.17,7.36,4.94,11.39,7.36
		c-2.19,2.92-2.15,2.4-2.42,4.03c-8.47-1.61-17.14-2.42-23.29-10.29c0.5-2.82-2.81-3.29-8.27-4.44
		C466.12,420.19,469.55,418.07,473.88,416.86z M467.23,461.63c-7.02-4.93-11.86-18.76-2.72-25.41c7.44-5.42,2.7-6.95,8.57-3.43
		C466.12,441.37,466.22,451.25,467.23,461.63z M444.34,520.02c-15.31,1.51-17.92-4.41-26.22-19.26c-6.02-10.78-3.22-26.27,2.02-36.5
		c2.63-5.14,2.04-10.98,3.43-16.44c3.22-12.64-0.41-10.69,3.13-18.96c2.64-6.19,5.65-12.3,11.39-16.94c3.23,3.83,6.74,7.37,12,8.07
		c4.08,0.54,1.38,4.96,7.97,4.74c3.63-0.12,6.66,2.12,10.08,2.62c-1.28,6.4-15.12,9.84-12.2,20.27c0.42,1.51-0.4,3.33,1.01,4.64
		c1.11-0.81,0-2.12,0.81-3.03c0.95,12.02,8.98,15.06,9.78,16.44c6.57,11.21,15,3.93,3.03,11.5c-4.74-2.52-8.77-5.85-13.92-7.16
		c-2.55,3.82,12.1,8.72,12.1,10.69c-6.15-1.21-11.29-5.55-17.65-5.85c-0.81,1.21,0.4,1.61,0.5,2.52c-1.21,0.4-2.62-0.71-3.83,0.61
		c3.13,4.13,7.87,5.95,12.6,7.86c-2.67,4.01-7.16-3.54-15.53-2.12c2.72,3.73,6.86,3.73,10.18,5.65c-2.22,2.72-1.53,6.54-3.43,9.48
		c-1.49,2.31,2.59,3.22,3.33,4.84c-1.01,2.62-1.94,5.36-0.1,8.17c0.6,0.91-0.71,1.51-0.4,2.32c0.2,1.11,1.51,1.41,1.82,2.62
		C452.51,518.81,448.47,519.61,444.34,520.02z M472.27,487.75c-2.92-1.71-4.74-1.51-6.15,0.6c0.91,0.1,1.82,0.2,3.13,0.3
		c-3.33,3.33-0.71,6.76-0.71,10.08c0,3.73,1.11,6.55,4.03,8.57c-2.02,4.13-8.26,7.53-12.3,6.76c-3.32-0.63-5.37-5.06-3.73-7.86
		c2.98-5.09-2.45-4.73-2.82-7.16c4.31-4.89,1.86-5.68,5.75-8.27c14.59-8.34,6.04-8.49,16.64-4.64
		C474.99,487.65,473.28,486.94,472.27,487.75z M471.36,481.8c0-1.11,0.5-1.51,1.21-2.02c2.12,2.02,4.74,3.13,7.46,4.44
		C477.01,484.02,474.39,482.31,471.36,481.8z M475.09,477.87c3.33-1.21,5.95,1.51,9.08,1.51
		C483.72,482.95,481.59,479.43,475.09,477.87z M479.23,474.74c1.71-0.5,1.71-0.5,3.23,1.21
		C481.45,475.55,480.54,475.25,479.23,474.74z M641.27,522.34c-2.22,5.61-13.24,14.84-21.68,12.1c-9.65-3.13-9.11,2.66-34.28-5.34
		c-50.05-15.92-58.57-36.81-80.36-45.88c-14.57-6.06-23.28-12.95-26.32-13.01c-5.35-0.1-10.07-5.64-9.28-12
		c0.84-6.72-0.02-16.3,4.74-23.29c6.05,3.03,12.31,5.21,18.96,6.15c11.54,1.63,7.6,4.68,36.3,7.87c5.65,0.63,15.89,1.67,19.16,6.05
		c1.9,2.54,6.46,3.67,7.76,6.96c0.72,1.82,5.78,2.12,7.16,2.02c8.14-0.6,9.61,6.3,16.34,10.59c11.17,7.12,3.84,17.95,19.66,32.17
		c-4.52-7.69-8.13-12.11-10.08-21.78c-2.31-11.44-7.17-10.08-10.59-18.96c23.09,4.13,45.68,4.94,68.57-1.41
		C647.93,483.57,648.6,503.83,641.27,522.34z M667.89,509.23c-2.44,8.68-11.26,12.67-13.92,12.1c-3.13-0.67-5.95-2.22-9.58-1.71
		c8.02-26.74,6.57-58.73,2.42-71.19c6.05,4.44,12.3,1.21,18.45,2.02C665.35,450.57,675.67,481.49,667.89,509.23z M866.33,305.34
		c1.01,0.5,1.31,1.21,1.61,2.12c-2.42,1.92-4.84,3.43-7.97,5.04C860.38,302.8,864.6,307.86,866.33,305.34z M855.54,340.03
		c6.45-0.5,9.78-2.92,10.39-8.07c-3.43,2.02-5.75,5.04-9.48,6.05c-0.71-2.62,0.4-4.94,1.01-7.36c3.43,0.2,5.65-0.5,10.18-3.23
		c-2.28,16.27-0.01,15.82-12.3,21.18C854.73,345.58,854.33,342.75,855.54,340.03z M855.34,350.31c3.73-1.21,7.26-2.22,10.49-4.74
		c-0.6,8.27-6.55,10.89-12.6,13.92C852.52,355.86,855.74,353.54,855.34,350.31z M863.31,355.26c1.61,6.86-4.13,10.99-11.9,13.01
		C850.18,359.19,857.67,363.31,863.31,355.26z M851.21,369.98c4.23-0.1,7.76-1.71,10.79-4.03c1.61,0.71,1.01,1.82,0.6,2.52
		c-4.13,3.13-7.86,6.66-12.6,9.38C849.69,375.02,851.51,372.7,851.21,369.98z M849.29,380.06c4.34-1.51,8.27-3.63,11.7-7.56
		c0.2,2.42,1.01,4.24,0.5,5.95c-0.71,0.71-1.31-0.1-1.82,0.2c-3.23,3.33-7.56,4.54-11.9,5.65
		C849.89,383.69,849.19,381.79,849.29,380.06z M858.06,387.62c1.47,2.06-2.17,2.48-7.36,3.93c-0.95-10.01-4.13-2.84,9.18-9.08
		c-1.01,4.24-5.75,4.24-8.57,6.96C854.13,390.35,855.94,388.43,858.06,387.62z M823.17,407.08c0.34,0.75-0.16,1.67-0.61,2.12
		C822.57,408.51,822.05,409.69,823.17,407.08z M797.56,359.09c1.31,3.03,3.53,5.14,5.65,7.66c-2.22,3.43,1.51,4.24,2.72,6.66
		c-0.3,0.81-1.41,2.02-0.1,3.23c2.52,2.32,4.54,4.84,3.13,8.87c-1.92,0.4-3.83,1.82-6.76,1.71s-5.24,2.62-7.76,4.24
		c-0.1,1.41,0.71,2.72,0.2,4.13c-5.95,1.51-11.7,3.63-16.13,8.27c3.43-0.71,5.34-4.27,9.18-4.54c3.43-0.24,6.76-1.11,10.08-2.22
		c-0.3-1.51-1.41-2.82-1.41-4.44c5.65-4.94,12-5.95,17.75-2.72c-0.67,5.34,4.49,2.42,3.83,9.38c-4.44,0.81-4.44,0.81-6.45,2.62
		c10.2-0.68,8.68,1.07,7.97-7.87c1.31,2.22,2.41,4.84,1.71,7.26c-1.61,5.63-12.78,0.42-16.23,3.23c6.1,1.61,13.68,6.53,15.33,8.37
		c-2.92,4.94-7.16,4.77-11.9,3.93c-8.65-1.52-10.88,0.89-13.51-1.01c-1.93-1.39-4.14-2.31-6.45-3.13c-5.15-1.8-9.27-5.57-14.02-7.97
		c-1.41-0.71-2.82-1.21-4.24-2.02c2.02-2.72,2.92-5.95,4.24-8.97c6.15,1.11,12.1,1.01,18.15,1.41c-0.4-1.61-1.31-1.61-1.92-1.61
		c-3.83,0.3-7.55-1.06-11.39-0.1c-1.71,0.43-3.03-0.5-4.34-2.02c2.83-9.92,0.87-10.12,4.24-11.29
		C790.8,376.08,799.16,362.68,797.56,359.09z M559.09,296.37c0.5,2.42-1.11,3.03-2.22,3.93
		C557.58,299.09,558.18,297.88,559.09,296.37z M557.27,303.12c1.51-1.21,3.23-2.22,4.54-3.93c0.5,1.51-0.81,1.92-1.41,2.72
		C559.09,303.42,557.62,305.89,557.27,303.12z M562.22,308.17c0-0.5,0.4-0.6,1.21-0.81C563.12,308.06,562.92,308.57,562.22,308.17z
		 M561.81,304.13c-0.3,1.01-1.01,1.61-1.92,2.12C559.69,304.84,560.8,304.54,561.81,304.13c0.3-0.81,0.81-1.21,1.61-1.51
		C563.22,303.53,562.62,303.93,561.81,304.13z M567.06,311.8c0.3-1.82,2.32-2.22,2.92-3.93c-2.52-0.81-3.63,1.71-5.85,2.62
		c0.71-2.52,3.43-3.13,3.53-5.14c-0.91-1.51-1.92-0.2-2.92-0.3c1.28-3.41,1.61-1.93,6.96,2.62
		C569.88,309.07,569.07,311.09,567.06,311.8z M574.82,314.92c2.27-3.18,2.35-4.11,4.54-1.61
		C577.95,313.81,576.63,314.22,574.82,314.92z M593.98,333.27c-0.2-0.6,0.1-0.71,0.81-0.91
		C594.68,333.07,594.48,333.37,593.98,333.27z M603.76,343.66c0.2-0.91,0.81-0.91,1.51-0.61
		C604.97,343.76,604.67,344.16,603.76,343.66z M602.95,341.54c-0.1-1.21,1.41-1.51,1.21-2.92c-1.71,0.5-1.71,0.5-2.92,1.51
		c-1.92-1.21-4.03-2.32-5.24-4.54c6.19-1.91,2.85,0.3,3.63,1.71c0.71-1.01,1.71-1.82,1.92-3.53c1.82,2.52,3.43,4.74,4.94,6.96
		C605.37,341.24,604.26,341.54,602.95,341.54z M597.91,333.27c0.71-0.91,1.11-2.22,2.72-0.5
		C598.67,333.51,598.41,333.27,597.91,333.27z M607.89,343.76c-0.2-0.2,0-0.5,0.2-0.71C609.19,342.69,608.87,344.73,607.89,343.76z
		 M610.31,345.37c1.01,0.4,1.41,1.21,1.61,2.22C607.97,347.59,607.99,348.17,610.31,345.37z M612.03,351.83
		c0.91,0.3,0.91,1.11,1.01,1.61C612.53,353.04,611.93,352.73,612.03,351.83z M613.04,353.54c3.03,0.3,3.93,2.72,5.24,4.94
		C616.36,356.87,613.44,356.57,613.04,353.54z M696.63,374.01c-2.21,1.4-2.59,0.33-14.62-8.37c-4.77-3.45-8.46-0.09-13.51-2.62
		c-1.68-0.84-9.07,1.58-23.7-2.32c-11.11-2.96-2.85,6.11-15.53-24.5c-0.87,2.38-1.47,0.5,6.86,21.78c-4.2,4.2-4.73-12.2-14.82-23.09
		c3.73,8.57,6.86,17.34,11.09,25.71c-3.93,4.24-7.56-0.2-11.39-0.4c-5.48-10.38-5.87-12.59-9.58-16.74
		c-13.3-14.89-4.08-8.74-18.15-20.37c-12.78-10.56-9.15-10.07-15.02-13.51c-5.46-3.2-9.58-7.97-14.52-11.7
		c0.6-1.41,1.61-2.22,2.62-2.82c6.14-3.65,11.8-8.16,17.65-12.2c26.52-18.32,90.11-24.09,115.86-21.48
		c26.36,2.67,51.29,18.52,72,31.56c0.3,1.01-1.21,0.5-0.71,1.71c12.67,0.9,25.7,19.57,25.11,31.36c-3.73-4.03-3.63-9.88-7.06-13.92
		c-0.6,2.22,1.31,3.53,1.82,6.05c-11.93-14.03-15.25-13.25-21.28-21.68c-0.6-1.01-1.11-2.32-2.82-1.71
		c-0.3,1.11,1.01,1.51,1.11,2.72c-12.81-3.73-25.91-3.44-38.92-4.24c-18.41-1.13-24.5,10.99-35.7,20.17
		c1.71,0.5,1.92-1.11,3.13-1.01c-7.26,10.59-7.76,22.49-6.55,34.49c-1.21,1.11-2.62,0.5-3.93,1.21c0.81,0.91,1.31,2.23,2.32,2.72
		c2.71,1.33,3.64,3.73,4.64,6.25c2.91,7.34,5.99,8.03,8.37,13.51c0.99,2.28,7.77,12.71,12.71,12.3
		C711.58,384.49,699.13,375.74,696.63,374.01z M694.21,353.54c5.04,0.1,8.77,3.63,13.21,3.03c12.76,10.79,12.13,8.96,9.38,14.12
		C703.21,367.2,701.64,369.09,694.21,353.54z M716.09,372.5c-0.6,2.82-1.21,5.55-1.92,8.97c-4.84-3.53-7.36-8.17-10.08-13.01
		C708.02,370.38,711.75,372.3,716.09,372.5z M788.28,458.61c-17.78,5.96-34.02,10.42-65.14,8.17c-6.28-0.46-16.88,0.5-20.47-8.47
		c-5.71-14.27-4.66-17.75-1.82-26.82c3.41-10.84,1.27-9.43,5.75-31.46c1.06-5.23,4.24-9.58,6.66-14.22c0.2,0.1,0.5,0.1,0.71,0.2
		c-7.83,43.07-3.61,36.74,8.87,56.27c3.47,5.43,6.35,1.39,14.62,4.94c25.07,10.77,35.47,2.38,59.59,4.03
		c3.85,0.26,6.1-2.18,8.07,1.31C787.11,454.46,793.92,456.72,788.28,458.61z M821.56,452.76c-4.94-1.31-10.29-1.11-15.53-2.22
		c5.34-1.92,10.79-3.33,16.64-0.3C822.47,450.95,822.37,451.75,821.56,452.76z M863.81,398.41c-1.82,2.32-4.94,2.02-7.56,3.83
		c7.43,2.29,5.42-2.19,8.57,2.22c-1.11,3.13,0.71,7.26-3.63,8.67c0.35,12.95,1.52,17.1-3.63,20.37c-2.84,1.8-3.58,8.64-20.87,9.78
		c-7.42,0.49-6.25,2.65-19.76,2.52c-28.59-0.28-50.77,10.3-76.23,0.5c-3.93-1.51-7.66-3.71-12.2-2.72
		c-3.95,0.86-14.28-19.58-15.63-22.49c-1.8-3.87,0.84-16.58,1.82-23.39c4.8-33.65,4.11-23.92,20.67-50.01
		c0.4,2.02-0.2,3.63,0.3,5.04c1.51-2.12,1.92-4.94,1.21-7.36c7.66-15.13,8.67-17.85,7.46-21.28c-2.02,1.82-1.61,4.74-3.43,6.76
		c-4.44-3.03-10.29-3.23-14.52-7.36c-0.91,0.1-1.11,0.81-1.11,1.92c3.68,0.43,6.35,6.37,14.92,7.56
		c-10.86,21.26-15.4,20.37-19.66,31.26c-9.27-5.34-6.63-9.24-18.05-12.1c-3.13-0.78-5.85-2.72-8.97-3.33
		c-2.58-7.58-0.56-18.93,1.31-26.72c2.5-10.39,8.42-11.38,6.35-14.02c18.55-16.65,22.17-12.34,49.71-12
		c1.01,0.01,2.32-0.3,2.82,1.31c0.47,2.11,10.15-2.88,21.88,9.18c4.42,4.54,14.14,9.98,18.45,20.67c-3.43,3.73-2.62,9.08-4.74,13.41
		c4.77-4.49,1.18-6.79,5.34-11.6c4.24,4.54,2.82,9.98,0.4,13.51c0.91,10.38,2.03,19.57-2.62,24
		c-16.12,15.36-16.58,10.68-17.75,17.65c-2.24,13.41-6.61,14.73-6.86,20.87c5.76-1.1,3.19,1.75,22.18,10.49
		c6.88,3.16,5.86,2,21.58,3.93c12.79,1.57,11.1-11.3,18.76-17.04c8.26-6.2,6.42-9.7,10.29-10.49c3.88-0.79,4.86-2.75,7.26-5.95
		c1.11,1.92,1.01,3.63,1.01,5.24c-3.23,2.32-6.35,4.64-9.38,6.86c0.51,2.22,3.17,0.49,4.44-0.61c4.71-4.07,10.69-4.44,16.34-5.55
		C862.6,393.77,862.6,396.4,863.81,398.41z M860.89,388.23c0.91-2.12,1.6-4.23,1.21-6.66c-0.21-1.31,1.11-1.71,2.62-0.81
		C864.41,383.89,863.81,386.61,860.89,388.23z M864.52,378.85c-0.91-1.41-1.31-3.93-1.01-6.76c1.01,0.4,0.6,1.21,1.01,1.71
		c2.02-1.41,0.1-2.52-0.3-3.73c1.41-2.12,0.81-4.24-0.3-6.25c1.11-0.71,0.6,1.01,1.82,0.4c0.2-2.82-0.2-6.15,0.71-9.88
		C868.15,361.51,865.93,375.22,864.52,378.85z M868.25,351.12c-1.51-1.61-0.2-2.72,0.4-3.93
		C869.15,348.6,868.55,349.81,868.25,351.12z M871.17,313.71c0,10.18,1.01,20.47-2.32,30.65c-2.24-3.66,2.6-15.68,1.21-25.11
		C869.78,317.34,870.36,315.53,871.17,313.71z M869.86,312.2c-1.71,3.73-1.61,7.66-1.21,11.5c-14.73,8.84-11.15,6.38-9.08-3.63
		c4.94-0.81,6.25-1.71,7.06-4.44c-1.89-0.76-3.68,2.42-6.66,2.62c0.1-1.61-0.4-3.23,0-4.94c2.82-0.4,5.65-1.01,7.87-3.13
		C869.15,310.62,867.48,313.09,869.86,312.2z M871.37,305.85c-8.36-6.43-1.56-2.07,0.53-1.75
		C872.73,304.22,872,305.32,871.37,305.85z"/>
	<path d="M573.78,317.1c-0.06,0.02-0.11,0.02-0.17,0.04C573.64,317.2,573.63,317.25,573.78,317.1z"/>
	<path d="M168.16,308.37l0.1,0.1C168.23,308.4,168.21,308.39,168.16,308.37z"/>
	<path d="M472.44,183.15h0.01l0.01-0.01C472.46,183.14,472.45,183.14,472.44,183.15z"/>
	<path d="M453.01,252.71c0.02-2.96,5.31-2.01,10.18-8.27c6.35,0.3,7.37,0.01,11.19-2.32c1.31-0.8,2.3-1.91,2.12-3.23
		c-0.66-4.63,0.71-9.58-3.13-13.81c1.92,0.2,2.92,2.12,4.54,0.71c-0.2-2.12-3.23-2.72-2.82-5.14c2.22-1.92,2.12-3.02-0.81-8.27
		c0.3-1.82,1.69-2.84,2.72-4.13c5.25-6.58-0.26-6.95,0.91-10.18c0.94-2.61,0.5-4.84-1.71-6.45c1.11-2.92,0.72-5.06-1.11-6.66
		c-4.59-4.01,0.86,0.29,1.11-5.24c0.15-3.43-1.92-5.75-4.54-7.56c2.88-6.9,1.15-8.81,2.62-11.8c0.74-1.5,0.5-3.33-1.51-4.34
		c-1.03,1.94,0.5,8.36-2.12,1.82c1.92-3.23,6.25-5.65,3.73-10.39c2.22-4.03,2.22-4.54,0.4-6.05c-1.38,1.87-0.85,4.6-2.87,6.04
		c0.78-3.59,1.6-6.12-0.76-7.15c-0.91,5.65-4.44,8.07-9.48,8.97c-0.4-2.62-0.4-2.62,0.5-4.94c4.94-1.92,5.75-2.62,4.74-5.04
		c-7.6,6.33-8.47,4.95-7.06,10.99c-2.22,2.12-2.42,4.64-0.71,7.16c-1.21,2.12-1.71,4.13-0.6,6.35c-2.02,1.82-2.32,4.13-1.82,6.96
		c-1.92-0.5-2.62,1.01-3.53,1.92c-2.42-1.61-5.24-2.12-7.06-4.34c0.5-0.91,1.82-1.31,1.61-3.03c-3.13-1.92-4.24,2.12-6.35,2.72
		c-0.91-1.51-0.1-3.53-1.71-4.54c-1.92,0.3-1.01,2.12-1.61,2.92c-1.21,0.4-2.12-1.01-3.33-0.3c-0.62,1.36,4.15,4.27-3.73,1.11
		c-0.8-0.32-1.6-0.89-2.42-0.4c-2.99,1.78-6.55,2.02-9.38,4.13c-17.4,13.01-17.98,1.96-33.17,17.65c-5.68,5.87-8.34,4.44-13.31,6.55
		c-15.46,6.57-23.49-26.77-61.61-16.23c-13.81,3.82-8.01,7.86-20.87,10.39c-6.03,1.19-12.39,3.71-20.87,14.22
		c-11.09,13.74-23.52,15.68-28.13,21.48c-5.2,6.53-16.37,14.19-21.18,16.23c-13.29,5.65-13.82,10.38-21.07,17.04
		c-16.16,14.85-16.13,22.18-22.59,30.05c-2.23,2.72-4.13,5.65-5.85,8.87c-1.92,0-3.4,0.94-4.84,2.32
		c-30.57,29.2-43.85,30.51-30.35,150.34c-17.22-9.34-19.59-1.54-33.78-7.36c-4.52-1.85-8.97-4.03-13.41-6.05
		c-0.1-1.61-0.3-2.92-0.4-4.24c-0.1-0.07-18.61-11.37-22.39-16.23c-0.79-1.02,0.1-2.52-1.41-3.73c-6.15,0.91-11.09,4.13-14.42,9.58
		c-1.61-0.3-2.92-1.01-4.44-1.01c-1.01,0-1.71-0.5-2.12-1.51c-2.27-5.68-9.1,0.45-14.92-11.19c-0.6-1.39-2.01-1.72-2.72-1.01
		c-8.19,8.19-13.74,15.01-15.93,29.85C4.39,471.08,4.87,458.07,2.29,469c-2.12,8.99-3.9,20.49,0.1,29.04
		c6.11,13.06,8.08,16.14,11.8,18.86c17.12,12.53,29.85,0.48,32.57,1.61c0.81-0.71,0.3-1.61,1.11-2.12c6.86-0.4,12.3-3.23,15.33-9.78
		c1.34-2.49-0.48-3.3-2.62-5.45c-0.4-1.21,0.22-2.33-0.3-3.43c-2.03-4.26-2.58-7.2,1.21-7.87c5.79-1.02,16.94-8.55,12.5-13.61
		c4.44,0.5,7.47,3.62,11.19,5.04c24.53,9.37,37.78,32.71,87.93,49.31c25.13,8.32,16.03,1.37,35.19,5.24
		c6.54,1.32,13.27-3.03,16.94-7.16c1.86-1.86,0.57,0.2,1.92,0.5c1.71-0.2,2.93-1.51,3.93-2.92c1.95-2.75,6.86-5.23,6.96-5.34
		c9.02-11.53,8.09-17.95,13.61-64.13c0.46-3.82,4.61-2.99,1.92-9.58c-2.43-5.93-3.18-5.52-3.23-7.66
		c-0.48-22.33-3.83-18.9-3.83-21.48c-2.38-29.55-0.71-25.69-2.92-36.3c-1.94-9.31-5.86-8.9-8.97-24.4
		c-1.76-8.79-3.5,5.95,3.53,17.85c6.6,11.18,5.14,43.24,7.26,46.08c3.64,4.89,0.41,17.81,5.75,25.71c0.43,0.63,1.45,3.9,0.91,4.44
		c-3.44,3.36-1.57,6.57-2.62,8.67c-4.44-0.2-7.46-3.73-11.29-4.64c0-3.23,0-6.25,0-9.58c3.93,2.32,7.36,5.45,12.4,6.05
		c-4.49-7.1-15.96-8.32-10.39-12.5c0.91-0.4,2.02,0.61,2.82-0.4c-2.52-2.32-2.62-6.25-5.75-7.76c1.38-5.17,3.8-0.8,5.85-3.03
		c0-1.21-1.31-0.91-1.61-1.81c3.11-6.66-2.63-10.15,0-19.16c2.54-8.71-2.38-10.43-1.71-21.78c0.17-2.93-0.81-5.55-2.42-8.07
		c1.21,4.23,0.78,8.47,0.91,12.71c0.26,8.67,2.47,8.49,1.61,12.91c-1.67,8.6-1.81,11.37-0.5,15.63c2.17,7.08-1.01,4.64-3.93,13.41
		c3.14,4.18,4.04,3.56,1.31,7.97c-1.24,2-1.9,4.23-1.31,6.55c1.14,4.53,0.1,9.08,0.3,13.41c-3.8,2.05-19.25,4.12-21.88,4.34
		c-30.85,2.55-31.45-1.92-68.06-4.03c-1.41-3.63-4.03-6.45-7.16-8.37c-1.11-9.28-1.75-18.24-3.23-27.23
		c-4-24.37-0.68-19.05-1.61-34.79c-3.49-59.04,5.91-60.03,23.39-79.56c4.78-5.34,8.67-4.44,8.57-4.34c0.29,1.38,1.94,1.23,2.48,2.35
		c1.8,1.07,3.99,0.89,6.09,1.78c-2.42,3.13-5.85,5.24-7.26,9.18c3.93-2.22,7.66-4.13,9.18-8.47c2.62,0.3,4.84,1.92,7.56,1.71
		c-0.4-1.41-2.12-1.01-2.52-2.12c5.07-3.23,3.29,0.11,4.44,1.11c1.71,0,3.03,1.71,5.45,2.12c-1.92-2.52-4.64-3.33-5.24-5.75
		c-1.71-0.91-3.03,0.5-4.64,0.2c0.6-1.21,1.21-2.22,1.71-3.23c4.13,1.61,7.97,3.63,11.29,6.55c-0.1,1.71,0.2,3.63-1.31,5.04
		c-1.33,0.67-7.85-4,6.86,7.16c0.5,1.31-1.41,1.31-1.01,2.42c1.31,0.2,2.22-0.81,3.43-0.71c2.72,1.92,4.34,4.93,6.96,7.06
		c1.11,0.9,3.03,1.01,3.43,2.82c11.67,7.5,8.66,11.72,12.81,18.05c1.35-7.58-2.29-10,3.23-3.93c1.21-1.21,1.51-2.92,2.92-3.73
		c1.21,2.02,0.6,3.13-3.23,5.65c1.61,1.01,2.22,2.62,2.82,4.34c2.12-2.32,4.34-4.44,4.74-7.87c3.2,0.6,10.16-10.05,18.76-14.92
		c1.72-0.98,0.61-2.91,4.03-3.43c3.68-0.56,3-2.63,6.55-4.74c5.73-3.41,9.27-0.75,11.9-3.73c4.11-4.64,7.83-5.06,13.51-9.48
		c9.75-8.86,14.76-14.36,23.9-13.11c6.65,0.91,12.81-0.39,18.65-3.53c5.05-2.71,10.79-4.34,14.92-8.77
		c3.41,5.69,3.5,11.75,21.98,25.71c5.23,3.95,11.07,7.17,15.13,12.5c5.94,7.81,23.61,10.1,26.82,8.17
		C432.81,319.97,452.87,273.13,453.01,252.71z M471.26,147.84c0.81,1.11,1.92,2.22,0.4,3.83
		C471.67,150.36,469.95,149.35,471.26,147.84z M90.62,439.96c-5.43-1.92-5.59-1.38-5.14-2.72C87.79,436.53,88.8,439.25,90.62,439.96
		z M61.78,415.45c1.11,2.42,2.31,5.16,4.54,6.15c3.01,1.34,5.36,3.7,8.47,4.94c3.95,1.57,6.96,4.74,10.69,6.96
		c-1.11,1.51-2.32,2.42-2.32,3.93c-7.62-1.16-20.07-3.37-22.69-9.58c-1.88-4.45-5.75-3.63-8.87-5.34
		C54.11,418.68,57.54,416.56,61.78,415.45z M54.92,459.82c-1.01,1.01-7.26-4.82-7.97-17.85c-0.13-2.47,3.22-4.82,11.09-12.2
		c0.81,0.5,1.61,1.01,2.72,1.71C53.81,439.96,53.91,449.74,54.92,459.82z M32.13,519.11c-15.29,1.7-17.92-4.41-26.22-19.26
		c-6.02-10.78-3.41-25.61,2.02-36.5c2.57-5.17,2.04-10.98,3.43-16.44c3.22-12.64-0.3-10.64,3.13-18.96
		c2.62-6.35,5.55-12.6,11.29-17.14c1.11,1.71,2.91,3.04,4.54,4.54c5.33,4.89,8.92,2.11,10.39,6.05c0.6,1.62,2.22,2.24,3.83,2.22
		c4.03-0.05,7.56,1.82,11.29,2.82c-1.37,6.52-15.14,9.66-12.2,20.17c0.42,1.51-0.4,3.33,1.11,4.64c1.11-0.81,0-2.12,0.81-3.03
		c0.5,6.35,3.13,11.6,8.37,15.23c2.86,2.29,3.34,6.18,10.59,8.77c-2.42,1.51-4.34,2.72-6.15,3.93c-4.74-2.52-8.77-5.85-14.02-7.16
		c-2.48,3.72,11.84,8.71,12.2,10.69c-7.33-1.42-21.45-10.51-17.14-3.33c-1.21,0.3-2.72-0.81-3.93,0.5c3.33,4.03,7.87,6.05,12.6,7.76
		c-2.94,4.2-10.13-4.84-15.33-1.51c2.52,3.23,6.55,3.43,9.98,5.24c-2.32,2.72-1.53,6.54-3.43,9.48c-1.49,2.31,2.59,3.22,3.33,4.84
		c-1.01,2.62-1.94,5.36-0.1,8.17c0.6,0.91-0.71,1.41-0.4,2.32c0.1,1.11,1.61,1.31,1.82,2.72C40.3,517.9,36.27,518.65,32.13,519.11z
		 M60.06,486.44c-3.03-1.71-4.74-1.41-6.25,0.6c0.91,0.1,1.82,0.2,3.13,0.3c-3.33,3.33-0.71,6.76-0.71,10.08
		c0,3.73,1.11,6.55,4.03,8.57c-2.02,4.13-8.26,7.53-12.3,6.76c-3.32-0.63-5.44-5.04-3.73-7.87c3.05-5.05-2.45-4.73-2.82-7.16
		c4.26-4.83,1.83-5.66,5.75-8.27c3.53-2.02,6.96-4.13,9.98-7.16c2.32,0.71,4.34,2.02,6.86,2.32
		C62.79,486.24,61.07,485.63,60.06,486.44z M59.05,480.49c0-1.11,0.5-1.51,1.31-2.02c2.02,2.12,4.84,3.03,7.36,4.44
		C64.7,482.71,62.08,480.99,59.05,480.49z M71.56,479.28c-1.57,1.57-2.73-1.65-9.28-2.42C65.36,475.6,72.14,478.12,71.56,479.28z
		 M67.22,473.03c1.51-0.81,2.12,0.6,3.53,1.11C68.73,474.14,68.73,474.14,67.22,473.03z M236.82,494.81
		c3.02-50.02-5.52-35.92,11.19-32.67c0.27,8.47-1.11,16.34-3.53,36.2c-2.54,20.85-12.06,22.65-15.23,26.72
		c1.71-3.63,2.32-7.56,3.93-11.09C236.01,507.81,236.44,501.26,236.82,494.81z M164.53,467.08c-1.51-1.11-2.62-1.92-4.34-3.13
		C163.42,464.36,163.42,464.36,164.53,467.08z M136.09,453.67c0.88,1.34,6.79,4.12,8.07,7.16c0.51,1.21,1.92,1.39,3.23,1.51
		c11.28,1.1,6.17-2.51,17.14,8.07c4.05,3.91,8.93,6.41,10.59,13.71c3.67,16.15,8.58,17.25,10.79,20.57
		c3.49,5.24-5.48-10.67-6.45-13.31c-3.36-9.14-2.72-14.6-9.58-20.97c-1.62-1.51-2.42-3.33-3.33-5.95
		c22.89,4.03,45.48,4.94,67.66-1.21c2.45,2.45,1.16,29.31-1.01,43.16c-2.64,16.83-8.01,20.25-14.72,24.81
		c-7.82,5.31-10,0.16-21.38,0.91c-20.46,1.35-55.85-17.2-73.41-28.23c-11.55-7.26-22.24-20.51-24.91-18.86
		c-0.81,0.5-1.31-0.4-1.92-0.71c-7.09-4.54-8-3.19-15.23-7.56c-18.21-11-17.56-7.43-20.57-9.78c-2.9-2.26-4.53-5.04-4.34-8.47
		c0.42-7.38,0.01-17.2,5.04-24.91c6.82,3.9,35.57,12.47,54.85,14.12C121.64,448.15,133.31,449.44,136.09,453.67z M230.37,352.43
		c-0.5-1.21,0.81-0.81,1.11-1.41C231.28,351.63,231.48,352.73,230.37,352.43z M461.28,238.79c0.53-2.54,3.14-4.24,3.14-4.05
		c0.3-0.9,1.11-1.4,2.11-1.9c2.52,1.01,5.85,1.11,6.86,4.64c-4.41-5.51-12.99-1.82-6.86-1.31c1.61,0.13,3.23,0.1,4.84,1.61
		C467.83,237.58,464.61,235.26,461.28,238.79z M467.63,229.41c-2.82,2.12-5.95,3.63-7.46,6.55c-1.31-0.4-1.41-1.31-1.71-2.12
		C464.99,225.4,462.52,226.49,467.63,229.41z M451.9,238.19c1.31-5.65,2.72-11.19,8.37-14.42c0.6,0.1,1.01,0.91,1.82,1.92
		C458.15,229.52,455.73,234.36,451.9,238.19z M468.84,230.73c0.4-0.8,0.03-0.8,4.44,1.71c-0.2,0.2-0.4,0.4-0.5,0.61
		C471.67,231.94,469.85,231.94,468.84,230.73z M473.88,239.5c-2.32,3.23-6.86,3.93-11.7,2.12
		C465.31,237.48,469.55,239.4,473.88,239.5z M471.06,164.48c0.5,0.91,0.2,1.71-0.2,2.82C469.55,165.89,470.56,165.38,471.06,164.48z
		 M460.47,151.47c3.75-1,0.85,1.12,8.17-2.82c1.01,3.73-1.11,5.85-7.87,8.27C459.16,155.2,460.07,153.28,460.47,151.47z
		 M460.27,158.33c2.92-0.1,5.85,0,8.17-2.22c-1.71,3.73-5.65,4.44-8.47,6.55C459.49,161.71,459.15,163.19,460.27,158.33z
		 M459.77,164.28c3.33-0.1,6.15-1.61,8.77-3.63c-0.71,5.85-6.25,6.55-10.18,9.58C457.95,167.7,458.66,165.99,459.77,164.28z
		 M458.05,172.24c3.18-0.84,6.19-0.89,10.99-5.95c0.46,8.83-1.07,5-10.89,9.68C457.55,174.66,457.55,173.55,458.05,172.24z
		 M447.26,176.48c-0.2,0.2-0.5,0.4-0.71,0.6C446.26,176.38,446.66,176.28,447.26,176.48z M437.99,178.19c0.81,0,1.01,0.6,1.31,1.21
		C438.19,179.5,437.69,179.3,437.99,178.19z M434.66,181.82c-0.71,0.5-1.31,0.71-2.02,0C433.35,180.71,433.95,181.01,434.66,181.82z
		 M433.15,194.22c-0.71,1.31-1.41,1.31-2.32,0.71C431.33,193.82,432.14,194.02,433.15,194.22z M432.44,200.48
		c-0.75,0.75-1.1-0.4-0.2-0.4C432.24,200.07,432.34,200.27,432.44,200.48z M417.82,197.25c0.5,0,0.91,0.1,0.91,1.21
		C418.18,198.02,416.9,197.25,417.82,197.25z M414.9,183.43c-0.91,0.2-1.61,0.1-2.22-0.6C413.69,182.33,414.29,182.73,414.9,183.43z
		 M375.37,196.44c0,0.71-0.4,0.71-1.11,0.61C374.66,196.54,374.97,196.34,375.37,196.44z M377.99,197.85
		c2.22,2.02,2.22,2.02,7.26,0.91c0.81,0.91,1.41,2.31,3.03,1.82c3.32-1.02,6.45-1.41,9.18,1.92c-0.71,2.02-0.62,4.53-2.12,6.96
		c-1.43,2.31-0.2,5.45-0.3,8.37c1.31,0.6,2.52,1.21,3.83,1.82c-4.85,19.07,0.59,21.05-0.71,15.23c-1.62-5.51,2.39-9.64,3.53-16.74
		c-1.51-0.5-3.23-0.2-4.44-1.21c-1.21-7.66,1.01-13.21,6.55-16.44c5.33,2.84,4.75-2.74,10.29,1.41c-0.71,2.12-2.42,3.83-1.11,6.96
		c1.31-2.72,2.22-5.04,3.63-7.06c-2.12-2.22-2.32-2.32-6.45-3.73c1.61-0.4,6.75,0.91,7.36,2.12c2.84,5.57-6.37,11.62-5.75,15.13
		c6.25-5.04,12.91-8.77,21.28-8.37c-3.31,7.29-9.47,9.96-14.62,21.18c-1.12,2.45-2.22,1.02-8.37,6.25
		c-4.46,3.79-12.68,6.19-17.44,10.59c-1.41-3.23-3.83-5.75-5.75-8.27c4.13-4.74,6.96-9.98,10.49-14.82c-1.21-0.71-1.61-0.3-1.82,0.2
		c-1.92,3.53-5.08,6.24-6.25,10.29c-0.52,1.81-2.02,2.22-3.63,2.92c-2.22-2.12-4.36-4.61-7.06-6.45
		c-3.49-2.39,4.51-10.07-6.45-27.33c-0.6-1.19-1.27-1.87-1.85-2.24C371.59,199.27,373.96,199,377.99,197.85z M303.78,184.54
		c3.58-3.93,25.18-8.55,36.1-1.41c-5.55,1.01-10.49-2.02-15.73-1.01c1.31,1.51,3.13,0.5,4.64,1.51
		c-11.29,1.31-21.38,8.17-33.58,7.36C298.94,190.09,301.28,187.29,303.78,184.54z M170.68,307.66c0-0.81,0.6-0.6,1.21-1.11
		C171.79,307.96,171.28,307.86,170.68,307.66z M165.84,306.05c1.11-2.77,3.73-3.11,4.64-5.45c-0.71-1.01-1.41,0.5-2.12,0
		c1.51-1.92,1.51-1.92,4.13-0.3C169.87,301.91,168.86,305.14,165.84,306.05z M173.9,308.97c0-1.01,0.5-1.01,1.11-1.01
		C175.22,309.17,174.61,309.07,173.9,308.97z M174.31,302.82c-1.98,1.98-1.07-1.27,0.5-1.41
		C175.52,302.22,174.61,302.42,174.31,302.82z M176.63,309.68c3.95-3.29,2.55-2.99,3.43-2.12
		C178.95,308.06,179.35,310.69,176.63,309.68z M176.43,304.43c0.1-1.01,0.71-1.51,1.51-1.82
		C178.04,303.73,177.03,303.83,176.43,304.43z M199.82,321.37c1.01-1.21,2.92-1.61,2.82-3.53c0.81,0.3,1.31,0.91,1.92,1.61
		C201.7,322.06,200.79,323.64,199.82,321.37z M197.3,320.27c0.4-3.03,3.53-1.82,3.83-3.83c0.81,0.4,1.31,0.81,1.61,1.31
		C200.83,317.95,199.52,319.56,197.3,320.27z M210.71,331.26c-3.43-1.21-4.64-4.64-7.36-6.66c0.91-1.31,1.71-2.42,2.72-3.93
		C217.35,331.08,214.6,326.07,210.71,331.26z M213.73,333.58c0.1-1.31,1.21-1.81,2.72-2.82
		C215.75,332.47,215.04,333.27,213.73,333.58z M215.35,334.79c5.4-4.5,3.4,0.17,3.73,0.61c1.29,0,0.96-3.3,3.03,0
		C217.94,337.28,218.94,337.78,215.35,334.79z M221.9,339.83c-1.11-0.1-1.61-0.81-2.22-1.81c1.61-1.31,3.13-2.42,4.84-0.5
		C223.82,338.72,222.71,339.12,221.9,339.83z M224.42,343.26c0.2-1.92,0.91-2.72,1.61-3.63c0.53,0.22,1.55,1.28,2.28,2.42
		C227.02,342.14,225.72,341.66,224.42,343.26z M229.06,344.77c-1.08-0.88-0.54-1.86-0.7-2.65
		C228.98,343.1,229.38,344.14,229.06,344.77z M344.52,286.39c-17.34,11-24.62,10-32.17,9.48c-7.41-0.51-20.87,11.45-25.81,15.23
		c-3.32,2.53-7.14,4.25-9.98,7.36c-1.3,1.42-3.33,2.12-5.45,2.12c-10.65,0-3.26,6.29-10.89-0.71c0.29,4.85,4.72,2.36,0.2,6.76
		c-3.82,3.72-7.04-0.39-12.4-4.94c-0.57,0-0.38-0.15-0.1-0.3c-1.73-2.88-4.84-3.39-0.5,0.4c4.27,7.21,8.37,6.32,4.64,9.58
		c-1.31-0.2-1.61-1.92-3.13-2.22c-0.1,1.21,1.11,1.71,1.51,2.72c-4.03,6.05-10.59,9.68-15.73,15.33
		c-7.46-13.61-19.86-22.18-31.76-31.86c3.85-2.57,6.35-16.33,6.35-19.97c-1.71,1.82-2.22,2.02-2.22,5.95
		c0,5.14-3.23,8.57-5.65,13.01c-8.77-7.56-18.45-12.91-29.44-16.34c1.71-2.92,3.12-5.65,5.14-7.87c6.26-6.84,9.37-16.36,20.07-24.91
		c10.54-8.43,7.49-14.41,24.7-21.68c4.16-1.76,16.22-10.97,21.38-16.94c3.33-3.85,16.49-6.05,29.34-22.28
		c9.21-11.63,14.06-9.55,16.03-9.98c26.86-5.91-0.35-0.39-8.17,35.39c-3.35,15.32,3.22,30.45,12,35.7
		c20.91,12.49,29.47,10.25,38.72,6.66c6.32-2.46,3.35-2.02,7.26,2.22c-3.03,3.43-6.66,6.15-9.18,9.88
		c4.03-2.02,7.56-4.44,10.29-8.37C346.77,283.86,350.88,282.35,344.52,286.39z M334.13,261.28c-11.59-23.29-5.98-12.3-1.21-12.1
		c-2.22-1.82-3.42-4.06-5.95-4.54c-1.54-0.29-10.5-18.6-15.23-17.55c0.6,2.72,3.33,3.93,4.13,6.45c-3.03,1.82-5.85,3.93-8.57,6.35
		c-1.94,1.73-10.4,3.41-9.31,5.15c2.46,0.01,4.58,0.1,6.49-2.02c1.73-1.9,6.34-0.42,12.81-7.97c3.03,5.75,7.07,10.79,9.08,17.04
		c4.18,13.02,7.7,14.59,7.26,16.13c-17.8,8.49-25.16,1.5-36-2.82c-30.22-12.05-7.19-66.74,8.17-72c15.37-5.26,20.61-8.71,33.68-7.87
		c1.71,4.44,6.05,6.76,8.97,10.29c-0.71-4.34-6.35-5.24-6.76-9.78c5.34-0.91,9.03,1.38,11.39,5.95c1.06,2.05,17.66,6.97,19.56,15.02
		c1.58,6.66,3.63,13.31,2.72,20.37c6.55,6.35,12.3,13.31,17.65,21.18c2.18-6.19,5.79-3.94,20.17-14.22
		c6.85-4.9,3.45-2.62,17.04-19.46c4.95-6.14,7.66-13.21,7.66-21.18c0-1.51,0.12-2.9,1.51-3.83c5.18-3.45,6.75-9.27,7.87-9.58
		c3.82-1.05,5.65-4.34,7.66-7.36c1.01,1.01,0.4,2.12,1.01,3.13c-4.66,0.76-3.8,5.2-5.79,7.85c0.03,0.04,0.05,0.09,0.08,0.14
		c2.97-0.89,1.89-4.58,5.51-5.87c13.46-3.9,14.19-5.66,17.34-1.11c1.74,2.51-0.36,3.95-0.81,4.78c-0.11,1.47,1.18,1.03,0.18,1.28
		c-2.26,2.26,2.43,1.37,1.83,8.06c0,0.1-0.1,0.2-0.1,0.3c1.51,3.03,0.2,6.56,1.71,9.38c2.37,4.4-1.11,5.15-5.14,11.9
		c-6.18,10.36-14.91,5.38-20.27,19.16c-0.9,2.32-1.43,5.23-2.92,6.76c-2.55,2.6-2.93,5.95-4.44,8.87
		c-13.69,26.56-7.77,22.72-20.87,37.11c0,3.62-13.02,11.38-14.12,14.02c-1.82,5.55-6.55,5.07-10.69,5.24
		c-2.57,0.11-18.8,0.42-20.97-1.41C346.41,277.18,342.08,277.25,334.13,261.28z M405.42,331.05c-21.57-4.31-8.9-1.58-43.26-29.04
		c-6.47-5.17-13.19-15.87-12.4-17.44c32.72,28.8,31.36,22.06,53.04,21.28c6.15-0.22,4.37-4.69,11.7-10.18
		c5.21-3.9,17.76-15.64,20.17-24c1.06-3.68,13.17-23.59,16.23-31.06c2.32-0.61,4.44-1.92,5.75-4.54c1.01,0.5,1.92,1.01,3.03,1.61
		c-1.01,2.72,0.71,5.24,1.31,7.87c-1.92,0.81-3.74,1.49-5.55,2.22c-6.9,2.78-4.07,14.51-12.5,35.29
		c-7.19,17.72-21.21,39.06-25.31,43.56C414.35,330.21,410.46,332.06,405.42,331.05z"/>
	<path d="M472.45,183.15c-0.04,0-0.08,0.01-0.11,0.02C472.38,183.21,472.39,183.17,472.45,183.15z"/>
	<path d="M882.16,228.2c-2.08-2.79-2.77-1.33-7.77,0.02c0.69-0.58,1.11-1.33,1.02-2.34c-10.28-0.6-3.9,7.85-5.45,14.02
		c-6.05,3.13-7.46,9.18-0.3,17.34c-1.92,9.18-3.23,18.65-4.34,28.23c-1.11-0.6-2.01-0.79-3.03-0.2c-7.34,4.28-2.03,9.5-4.64,15.02
		c-0.42,0.9-1.31,3.33,1.21,4.34c0.4-1.01,1.71-4.44,2.02-5.24c7.76-2.45,9.4,3.98,11.09,1.61c-0.5-2.18-6.71-6.02-10.59-4.44
		c0-3.13-1.01-6.25,1.82-8.87c-0.3,2.96-0.71,5.9,3.13,6.86c2.11,0.53,3.02-1.01,4.24-2.42c1.31-1.52,0.49-3.03,0.5-4.44
		c0.1-9.88,2.82-19.56,2.62-29.54c4.74-3.83,8.87-8.07,6.15-14.82C883.88,240.2,885.05,232.06,882.16,228.2z M874.02,228.44
		c0.56-0.26-1.45,3.11-1.74,4C871.39,229.77,872.66,229.08,874.02,228.44z M868.15,290.02c-0.4-10.69,2.12-21.07,3.43-31.56
		C871.27,269.04,868.85,279.43,868.15,290.02z M875.2,254.82c-1.21-1.92-1.61-4.74-4.94-3.33c0.5,1.41,1.51,2.62,1.11,4.23
		c-3.33-2.62-4.44-6.96-2.32-10.59c-0.1,2.12-0.5,4.13,2.42,4.44c-0.81-2.12,0.3-3.93,0.3-5.95c3.43,0.71,4.34,3.03,3.23,6.96
		c1.92-0.5,2.32-1.11,2.32-3.03c0-7.53-8.08-5.74-4.84-8.97c1.51,1.51,3.53,1.21,5.55,1.61
		C875.72,245.69,880.78,245.31,875.2,254.82z M875.2,237.08c-1.11-2.72-0.71-4.24,1.71-6.45c1.41,1.61,1.71,3.43,1.92,5.24
		C877.83,237.48,876.41,237.08,875.2,237.08z"/>
	<path d="M898.4,62.43c-3.34,1.18-20.78,153.91-24.3,161.13c0.4,0.81,0.91,1.61,1.41,2.42c2.32,0.91,3.03,0.5,3.33-2.12
		c0.62-14.81,17.22-131.24,20.97-158.01C899.99,64.55,900.51,62.84,898.4,62.43z"/>
	<path d="M211.11,335.69c-1.11,2.92-2.93,6.16-1.41,8.97c4.03,7.45-0.8,11.3,16.54,35.09c2.59,3.56,4.04,10.91,10.79,13.31
		c0.51-1.39-4.29-4.87-5.24-8.57c-2.15-8.38-15.94-18.03-19.46-36.5c1.31-0.71,2.22,0.91,3.43,0.1c-0.47-1.86-4.93-1.87-3.03-8.57
		C214.05,334.84,211.26,334.68,211.11,335.69z"/>
	<path d="M538.02,372.09c-8.06-4.47,19.79,24.27,33.48,42.15c0.2-0.71,0.4-1.01,0.3-1.11c-4.24-5.85-7.38-12.39-12.2-17.75
		C540.97,374.71,541.25,373.89,538.02,372.09z"/>
	<path d="M219.18,353.64c5.57,10.81,9.54,7.8,12.6,20.57c1.43,5.97,0.84,7.5,2.42,7.66C237.83,373.61,230.17,359.09,219.18,353.64z"
		/>
	<path d="M591.96,414.65c10.29,4.64,20.57,8.97,29.44,15.93c0.72-1.79-10.27-12.08-26.12-17.65
		C594.09,412.51,592.87,412.63,591.96,414.65z"/>
	<path d="M193.16,323.39c-4.36,15.99-7.45,22.9-9.28,32.17c-2.02,10.28,0.81,20.47,0.1,30.96c4.25-3.34-2.71-21.41,2.32-36.8
		C190.37,337.27,195.07,324.03,193.16,323.39z"/>
	<path d="M582.28,448.63c0.71,0.71,1.31,1.41,2.62,1.51c-0.71-1.01-1.41-1.61-2.32-1.82c-0.61,0.61-0.1,0.14-0.1,0
		c-0.72-1.26-1.3-0.66-2.62-2.42c-0.26-0.26,0.46,0.39,0.1-1.71c-2.66-22.61-11.69-16.48,18.35-6.05
		c-7.36-3.93-14.82-7.56-22.18-11.7c-1.01-5.04-2.32-10.18-1.51-15.53c2.5-16.57-2.01-24.2-5.95-46.69
		c-3.43,5.5,6.56,20.49,4.74,44.67c-1.48,19.64,5.53,30.16,6.15,36.8c-15.43-10.29-29.54-22.08-42.35-35.49
		C550.42,428.47,578.98,447.8,582.28,448.63z"/>
	<path d="M159.18,350.92c0-0.1-0.3-0.1-0.81-0.4c-0.68,6.11,11.36,27.83,14.22,46.59C171.88,376.48,164.23,370.15,159.18,350.92z"/>
	<path d="M543.26,395.29c28.57,31.44,46.03,45.46-1.41-3.13c-1.64-1.68-4.47-4.64-5.34-2.72
		C539.33,390.75,541.24,393.07,543.26,395.29z"/>
	<path d="M162.21,402.45c1.11,10.39,4.34,20.27,6.35,30.45C167.85,422.51,164.33,412.63,162.21,402.45z"/>
	<path d="M594.48,445.7c6.25,5.14,13.61,7.97,21.48,9.68C608.6,452.66,601.54,449.13,594.48,445.7z"/>
	<path d="M184.09,314.72c-0.2,4.64-4.03,6.35-7.26,8.57C187.98,322.49,188.35,314.31,184.09,314.72z"/>
	<path d="M182.27,420.39c6.35,0.91,11.9,2.82,17.34,4.84C196.59,421.81,186.11,418.68,182.27,420.39z"/>
	<path d="M183.69,394.48c-1.82,7.56-1.92,15.23-2.12,22.89C183.18,409.81,182.88,402.14,183.69,394.48z"/>
	<path d="M206.47,341.44c1.01-3.23,2.82-6.55-0.4-9.58C204.96,335.09,205.77,338.32,206.47,341.44z"/>
	<path d="M160.19,313.81c2.04-3.85,5.89-2.44,8.47-3.83c0.3-0.91-0.4-1.11-0.5-1.61C163.39,308.96,157.05,310.15,160.19,313.81z"/>
	<path d="M185.4,412.63c4.64,2.12,9.58,1.11,14.42,1.21C195.18,412.13,190.24,413.13,185.4,412.63z"/>
	<path d="M188.73,368.67c3.83,2.82,8.27,1.31,12.4,1.61C197.2,368.67,193.06,368.46,188.73,368.67z"/>
	<path d="M580.06,409.5c3.93,2.92,7.97,5.85,12,8.67C588.13,415.15,585.51,410.41,580.06,409.5z"/>
	<path d="M631.69,404.36c2.61-3.62-1.87-6.67-6.05-4.74C628.77,400.13,629.67,402.75,631.69,404.36z"/>
	<path d="M618.68,411.92c4.64-2.12,6.76-2.02,12,0.61C628.66,407.47,620.78,408.43,618.68,411.92z"/>
	<path d="M200.12,346.99c-3.23-2.42-5.55-2.82-8.37-1.11C194.58,347.59,197.6,345.78,200.12,346.99z"/>
	<path d="M602.15,459.11c-11.28-6.63-10.09-6.34-10.49-5.55c3.03,2.72,6.55,4.44,10.18,6.15
		C601.94,459.52,602.04,459.32,602.15,459.11z"/>
	<path d="M184.79,434.61c1.21,3.83,4.74,5.24,7.66,7.26C190.44,438.95,187.11,437.43,184.79,434.61z"/>
	<path d="M606.99,364.23c1.82,1.01,3.02,2.82,5.24,3.02C611.12,365.24,609.3,364.23,606.99,364.23z"/>
	<path d="M625.64,433.7c-0.81-1.11-1.61-2.22-3.03-2.62C623.22,432.49,624.33,433.2,625.64,433.7z"/>
	<path d="M562.92,394.69c0.33,2.32,2.28,1.06,0.28-0.05c-0.32-1.14-1.99-4.2-2.7-3.49C561,392.52,561.77,393.79,562.92,394.69z"/>
	<path d="M544.27,367.86c0.29,1.15,0.87,2.2,1.88,2.91C545.98,369.47,545.32,368.52,544.27,367.86z"/>
	<path d="M546.28,370.88c-0.05-0.03-0.09-0.08-0.14-0.11C546.18,371.05,546.17,371,546.28,370.88z"/>
	<path d="M559.49,388.83c-0.24,0.24-0.01-0.99-3.13-4.34c-0.2-0.81-0.6-1.41-1.31-1.82c-0.3-1.01-1.01-1.82-1.82-2.52
		c-0.3-1.01-1.01-1.82-1.82-2.52c-1.47-3.67-3.62-2.6-0.3,0.3c0.13,0.45,8.59,12.53,9.28,13.11
		C561.04,390.42,560.17,389.4,559.49,388.83z"/>
	<path d="M593.17,457.5c0.71,1.07,2.09,0.98,1.51,0.4C594.28,457.6,593.88,457.2,593.17,457.5z"/>
	<path d="M182.78,456.69c-0.71-0.2-0.91-0.91-1.92-0.5C181.37,456.79,181.87,457.3,182.78,456.69z"/>
	<path d="M183.99,391.35c0,0.2,0,0.5,0.1,1.41C184.27,391.14,184.46,391.35,183.99,391.35z"/>
	<path d="M543.56,366.55c-0.1,0.71,0.1,1.11,0.81,1.31C544.37,367.25,544.37,366.65,543.56,366.55z"/>
	<path d="M547.57,372.72c-0.76-2.92-2.61-1.34-0.18,0.18c0.17,0.96,1.7,3.06,2.12,2.22C548.97,373.77,547.7,372.59,547.57,372.72z"
		/>
	<path d="M755.21,430.17c-2.51-1.67-11.34-6.83-11.7-11.9c-0.21-2.92-0.92-5.75-0.1-8.67c1.94-6.91-14.95,10.59,11.7,23.39
		C759.01,434.87,762.6,435.1,755.21,430.17z"/>
	<path d="M762.77,338.62c11.46,25.54,4.02,19.79,11.7,28.23c-6.33-17.72-1.91-17.21-16.13-37.61c-1.42-1.7-3.87-2.82-0.5,1.51
		C759.45,333.37,761.5,335.78,762.77,338.62z"/>
	<path d="M733.03,427.75c4.28-8.01,5.77-23.27,3.43-16.13c-2.98,9.08-1.39,13.16-4.94,15.33c0.6,3.33,0.91,3.83,2.72,4.54
		C734.24,429.97,732.93,428.86,733.03,427.75z"/>
	<path d="M766.61,370.78c-1.31,4.54-2.02,9.18-4.94,13.01c1.41,0.1,2.52-0.4,2.52-1.41C764.19,379.76,772.36,372.43,766.61,370.78z"
		/>
	<path d="M788.69,444.69c3.63,0.4,7.26,0.3,11.39-0.91C787.36,443.79,788.28,443.49,788.69,444.69z"/>
	<path d="M785.36,351.52c-2.22,3.13-4.34,6.35-6.76,9.38C782.23,358.68,784.25,355.46,785.36,351.52z"/>
	<path d="M742.71,443.99c-3.33-1.92-6.35-3.73-9.48-5.95C733.94,440.86,738.98,443.99,742.71,443.99z"/>
	<path d="M749.16,309.48c-1.71,1.92-4.54,3.13-3.63,6.45C748.66,314.82,747.85,311.59,749.16,309.48z"/>
	<path d="M729.7,337.41c-2.22-2.32-5.14-2.72-8.67-3.23C724.15,335.89,726.68,337.21,729.7,337.41z"/>
	<path d="M737.87,313.21c0.4,2.22,0.81,4.44,3.13,5.65C740.49,316.74,739.68,314.72,737.87,313.21z"/>
	<path d="M745.43,315.93c-2.22,3.13-2.22,4.94,0,6.15C745.43,319.96,745.43,317.95,745.43,315.93z"/>
	<path d="M857.56,410.31c-1.11,1.71-2.22,3.33-3.73,5.45C856.65,414.55,858.57,413.44,857.56,410.31z"/>
	<path d="M736.46,358.68c-1.11,1.92-0.3,4.03-1.01,5.95C738.27,363.02,735.95,360.7,736.46,358.68z"/>
	<path d="M803.01,443.59c2.22,0,4.44-0.4,6.35-1.71C807.04,441.77,804.92,442.38,803.01,443.59z"/>
	<path d="M809.16,424.43c-2.32,1.01-3.63-1.21-6.15-1.41C806.33,425.94,807.34,426.24,809.16,424.43z"/>
	<path d="M760.76,434.41c1.71,1.21,1.71,1.21,3.83,1.01C763.58,434.31,762.57,433.1,760.76,434.41z"/>
	<path d="M744.42,444.39c0.81,2.32,2.72,2.92,4.34,4.03C749.79,447.39,749.56,447.47,744.42,444.39z"/>
	<path d="M754.3,303.53c-2.02,0.4-3.23,1.11-3.33,3.03C752.39,306.05,753.5,305.24,754.3,303.53z"/>
	<path d="M851.61,398.01c1.31,2.02,1.31,3.63,1.11,5.24C854.43,401.34,854.33,400.63,851.61,398.01z"/>
	<path d="M725.16,435.12c0.4-1.31,1.01-2.62-0.2-4.34C723.85,432.59,724.66,433.91,725.16,435.12z"/>
	<path d="M753.6,404.87c1.82,0,2.92-0.6,3.83-1.61C756.12,403.25,754.81,403.35,753.6,404.87z"/>
	<path d="M766.4,436.12c1.31,0.71,2.22,1.31,3.53,0.3C768.82,435.42,768.02,435.12,766.4,436.12z"/>
	<path d="M772.25,436.83c1.61,0.5,2.72,0.6,4.23,0.1C774.97,435.92,773.97,435.52,772.25,436.83z"/>
	<path d="M759.04,387.02c1.01-0.3,2.32-0.4,1.92-2.12C759.65,384.9,759.24,385.91,759.04,387.02z"/>
	<path d="M782.74,437.13c-2.42,0-1.54,1.93,1.21,1.11C783.75,437.43,783.24,437.23,782.74,437.13z"/>
	<path d="M745.83,394.98c1.41-0.3,2.12-0.71,2.72-1.92C747.14,393.07,746.54,393.77,745.83,394.98z"/>
	<path d="M846.67,419.28c1.41,0.5,2.22-0.1,3.03-0.61C848.68,418.48,847.78,418.28,846.67,419.28z"/>
	<path d="M773.36,344.77c-1.21,0.71-1.61,1.41-1.82,2.92C772.96,346.99,773.26,346.08,773.36,344.77z"/>
	<path d="M746.54,403.66c-1.31,0-2.02,0.3-2.02,1.51C745.53,405.27,746.24,404.97,746.54,403.66z"/>
	<path d="M763.28,401.94c0.35,0-0.12-1.8-2.32-0.6C761.77,402.24,762.47,402.34,763.28,401.94z"/>
	<path d="M735.85,365.84c-0.81,0.5-1.11,1.11-0.81,2.42C736.05,367.56,736.56,366.85,735.85,365.84z"/>
	<path d="M757.43,387.52c-1.11,0.61-1.92,0.81-2.02,2.02C756.32,389.34,757.13,389.24,757.43,387.52z"/>
	<path d="M818.33,442.78c0.3,0.5,0.71,0.81,1.51,0.3C819.44,442.98,819.14,442.07,818.33,442.78z"/>
	<path d="M813.29,441.97c0.5,0,0.91,0,1.41,0C814.2,441.57,813.8,441.57,813.29,441.97z"/>
	<path d="M752.39,391.25c0.3-0.2,1.01,0,0.71-0.81C752.49,390.24,752.29,390.65,752.39,391.25z"/>
	<path d="M698.54,284.17c3.95-3.95,9.87-0.44,20.47-2.72c30.8-6.63,21.14,7.63,35.9,11.39c-0.1-0.4-0.1-0.81-0.4-0.81
		c-8.32-7.36-11.72-12.66-14.12-13.41c-12.3-3.84-15.96,1.18-19.26,1.21c-20.84,0.2-20.34-0.32-25.71,5.85
		C697.03,285.88,697.84,284.97,698.54,284.17z"/>
	<path d="M659.22,325.61c0.6,3.43,9.28,14.42,12.5,15.53c-2.46-5.73-6.8-6.77-9.38-12.81C661.83,327.13,660.83,326.01,659.22,325.61
		z"/>
	<path d="M628.16,334.58c-5.85-2.32-11.7-4.44-17.85-5.65C613.04,331.46,624.73,335.29,628.16,334.58z"/>
	<path d="M657.1,322.58c-6.26-5.23-16.72-15.37-18.05-11.39c8.17,2.02,12.2,9.58,19.06,13.71
		C658.41,323.69,657.7,323.09,657.1,322.58z"/>
	<path d="M618.18,345.17c3.13,5.04,5.95,10.29,10.29,14.32C626.14,353.94,622.72,349.1,618.18,345.17z"/>
	<path d="M596.1,322.08c1.31,2.22,3.74,2.4,5.75,3.33C612.36,330.27,607.8,324.59,596.1,322.08z"/>
	<path d="M617.37,296.17c3.03,2.62,6.05,4.94,10.18,7.06C626.14,299.39,621,296.17,617.37,296.17z"/>
	<path d="M641.47,359.29c2.42-2.62,2.32-9.58,0.2-13.01C641.37,350.72,642.18,354.75,641.47,359.29z"/>
	<path d="M632.7,306.35c1.82,1.51,3.23,3.33,5.85,3.33C637.94,306.65,637.24,306.25,632.7,306.35z"/>
	<path d="M634.01,334.99c0.91,2.42,0.6,5.14,2.32,7.36C636.03,339.83,636.43,337.1,634.01,334.99z"/>
	<path d="M679.89,345.37c1.31,1.82,2.32,3.33,5.04,2.02C683.62,345.17,682.01,345.07,679.89,345.37z"/>
	<path d="M652.86,279.13c-1.31-1.71-2.62-3.43-5.45-3.53C648.73,277.92,650.85,278.42,652.86,279.13z"/>
	<path d="M673.43,341.74c1.61,1.61,2.32,3.43,5.14,3.02C677.57,342.45,675.96,341.84,673.43,341.74z"/>
	<path d="M672.02,291.83c1.11,1.92,2.32,3.93,3.53,5.75C676.06,294.75,674.14,293.24,672.02,291.83z"/>
	<path d="M648.83,357.47c-0.2-1.82-0.1-3.73-1.51-5.14C647.22,354.15,648.02,355.76,648.83,357.47z"/>
	<path d="M666.88,287.19c-0.71-1.61-1.51-2.62-3.13-2.82C664.56,285.38,664.76,286.99,666.88,287.19z"/>
	<path d="M688.96,291.93c-1.92,1.11-2.42,2.52-2.62,4.03C687.65,295.06,688.56,293.95,688.96,291.93z"/>
	<path d="M686.24,297.68c-1.41,1.21-2.02,2.02-1.81,3.53C685.74,300.5,686.34,299.59,686.24,297.68z"/>
	<path d="M777.19,300c-0.5-1.11-0.81-2.52-2.62-2.12C777.06,301.08,776.56,300.63,777.19,300z"/>
	<path d="M667.79,357.88c0.5-1.21,0.5-2.12-0.6-3.13C666.98,356.06,666.68,356.97,667.79,357.88z"/>
	<path d="M658.21,281.24c0.6,1.21,1.41,1.61,3.33,1.71C660.33,281.85,659.72,280.84,658.21,281.24z"/>
	<path d="M646.61,349.51c0.2,1.21,0.3,2.02,0.81,2.72C647.32,351.52,647.52,350.62,646.61,349.51z"/>
	<path d="M691.69,287.9c-0.91,0.4-1.61,0.71-1.51,1.92C691.18,289.51,691.79,289.21,691.69,287.9z"/>
	<path d="M597.71,515.78c-4.49,0-26.01-2.32-33.98-5.95c-1.31-0.6-3.03-1.11-5.34-0.71c4.13,2.82,7.97,5.15,12.4,4.94
		c6.55-0.31,10.75,4.18,22.89,4.64C604.05,519.1,600.63,515.78,597.71,515.78z"/>
	<path d="M600.94,489.67c0.25-3.73-2.95-6.85-3.33-10.99c-0.54-5.95-2.62-8.97-4.64-9.98c0.5,4.74,2.02,9.18,4.23,13.41
		c-0.2,0.71-1.12,1.01-0.81,1.92C607.46,516.06,600.72,492.98,600.94,489.67z"/>
	<path d="M476.41,452.86c-3.19-0.56-4.02,2.24-0.81,3.13c5.27,1.45,6.37-1.25,8.27,0c2.92,1.93,6.35,2.02,9.38,3.53
		C490.49,455.1,489.98,455.23,476.41,452.86z"/>
	<path d="M643.18,494.51c-1.08,0.43-0.61,0.5-1.31,9.58c0,2.37-5.21,9.36-3.93,17.65c4.02-5.17-0.53-8.91,5.04-14.72
		c0.57-0.59,0.88-1.01,1.21-10.39C644.29,495.82,644.6,494.71,643.18,494.51z"/>
	<path d="M575.22,500.15c-16.86-6.32-13.98-5.48-14.82-4.64C562.92,497,574.3,502.93,575.22,500.15z"/>
	<path d="M610.41,527.28c0.4-3.73-0.91-6.76-3.33-9.48C606.78,521.53,608.09,524.56,610.41,527.28z"/>
	<path d="M541.04,498.74c2.42,2.62,11.6,7.66,14.42,7.26C540.27,497.49,541.5,497.81,541.04,498.74z"/>
	<path d="M605.27,514.17c-0.13-0.27-0.25-0.55-0.36-0.83C605,513.62,605.11,513.9,605.27,514.17z"/>
	<path d="M603.76,504.89c-0.36,2.92,0.02,5.77,1.15,8.45C603.99,510.6,605.87,507.45,603.76,504.89z"/>
	<path d="M644.19,490.88c1.31-3.33,1.01-6.66-0.1-10.08C643.69,484.12,644.6,487.45,644.19,490.88z"/>
	<path d="M536.91,482.81c2.32,1.51,4.64,2.92,7.36,3.43C542.05,484.52,539.73,483.21,536.91,482.81z"/>
	<path d="M613.24,527.98c1.51,1.11,2.52,1.92,4.34,1.21C616.36,527.88,615.46,526.98,613.24,527.98z"/>
	<path d="M527.53,487.75c1.21,1.21,1.92,3.23,4.44,3.63C530.55,489.57,529.55,487.95,527.53,487.75z"/>
	<path d="M497.58,463.45c0.71,1.31,1.71,1.61,3.33,2.02C500,463.85,499.3,463.25,497.58,463.45z"/>
	<path d="M553.95,491.28c-0.81-1.21-1.92-1.21-3.43-1.71C551.63,490.88,552.33,491.48,553.95,491.28z"/>
	<path d="M494.35,460.83c0.2,1.21,1.01,1.51,2.22,1.82C496.17,461.13,495.66,460.53,494.35,460.83z"/>
	<path d="M525.11,485.23c0.6,1.51,1.01,2.52,2.32,2.62C527.13,486.74,526.52,485.94,525.11,485.23z"/>
	<path d="M582.18,497.33c-0.2-1.01-0.81-1.41-1.82-1.71C580.67,496.62,581.07,497.23,582.18,497.33z"/>
	<path d="M534.89,493.6c0.1,0.91,0.6,1.21,1.61,1.41C536.2,494,535.9,493.6,534.89,493.6z"/>
	<path d="M501.72,466.58c0.81,0.81,1.11,1.41,2.32,1.01C503.63,466.78,503.23,466.37,501.72,466.58z"/>
	<path d="M602.55,530.61c0.6,0,1.11,0.1,1.01-1.01C603.05,529.7,602.75,529.8,602.55,530.61z"/>
	<path d="M441.52,466.98c-7.02-1.11-5.53,6.87-6.66,8.37C446.18,481.72,448.65,468.1,441.52,466.98z M443.43,472.22
		c-0.28,2.12-1.82,2.82-3.83,2.42c-0.71-0.91,1.01-1.51,0.2-2.42c-0.71-1.01-1.41-0.2-2.32-0.2
		C438.28,467.27,443.85,469.09,443.43,472.22z"/>
	<path d="M442.22,453.27c1.01,2.02,2.82,2.82,4.64,1.81c2.72-1.51,2.02-4.44,2.62-7.16c-3.23-0.6-6.25-1.11-9.28-1.61
		c0.1,1.82,0.1,1.82,2.22,3.13c0,2.43-4.89,1.92-3.33,5.04C440,454.07,440.91,453.77,442.22,453.27z M444.54,449.64
		c1.42-0.71,3.81-0.22,1.51,3.73C443.13,452.76,444.24,451.05,444.54,449.64z"/>
	<path d="M442.22,465.77c6.25,0.24,7.27-9.96,0.2-10.08C435.56,455.56,435.74,465.52,442.22,465.77z M439.4,460.12
		c0.7-3.86,6.37-2.44,5.95,0.81C444.86,464.73,438.73,463.79,439.4,460.12z"/>
	<path d="M452.41,493.7c-2.22-1.61-4.44-2.62-7.97-2.42c1.71,1.71,3.03,2.82,4.34,4.13C449.89,494.81,451.7,495.92,452.41,493.7z"/>
	<path d="M444.84,496.52c2.2,3.66,5.29,2.29,4.64,0C447.97,496.52,446.56,496.52,444.84,496.52z"/>
	<path d="M808.85,396.29c2.31-6.17,1.41,5.08,6.55,1.01c-1.82-0.2-2.22-1.31-2.62-2.72c-1.73-6.15-4.72-0.02-8.67,0.5
		c-0.81-0.4,0-1.61-1.31-2.12C798.95,400.67,819,403.91,808.85,396.29z M806.84,398.31c-0.6-0.4-1.11-0.71-1.82-1.11
		C806.57,396.12,808.82,396.33,806.84,398.31z"/>
	<path d="M798.17,368.36c0.3,2.62,1.61,4.03,2.92,5.55C800.89,371.89,800.28,370.08,798.17,368.36z"/>
	<path d="M805.93,380.16c-0.81-1.71-1.92-3.13-3.73-3.93C803.11,377.84,803.81,379.66,805.93,380.16z"/>
	<path d="M463.3,490.07c1.21,0.1,2.42,0.71,3.43,0.1C467.51,488.2,464.04,487.68,463.3,490.07z"/>
	<path d="M396.75,278.92c5.32-0.82,14.91-4.82,17.65-9.48c-3.17,0-6.85,3.14-11.09,4.84c-10.53,4.22-15.71-1.56-18.35-3.23
		C379.08,267.34,387.76,280.31,396.75,278.92z"/>
	<path d="M350.57,219.23c-7.77-2.51-28.09-3.6-29.95-0.4c1.52,0.76,7.32-0.87,16.03,0.1c20.18,2.25,16.92,5.98,27.23,4.13
		C363.44,221.12,364.4,223.7,350.57,219.23z"/>
	<path d="M383.24,278.12c7.75,8.09,10.79,8.3,10.79,12.1c2.62,1.11,2.62,1.11,5.65,0.3c-1.41-1.41-3.13-0.4-4.44-1.41
		C391.49,282.7,378.05,271.64,383.24,278.12z"/>
	<path d="M372.45,239.7c-2.02-1.31-2.16-3.41-3.03-5.24c-1.23-2.62-4.66-5.67-5.65-2.52c3.23,3.03,6.65,6.05,8.27,10.99
		C372.95,241.31,373.15,240.1,372.45,239.7z"/>
	<path d="M431.84,223.26c0.57-3.51,5.39-4.54,6.55-8.37c-2.42,3.13-7.36,4.03-7.97,8.97c-1.11,0.81-2.12,1.51-3.23,2.32
		C429.32,225.99,431.51,225.28,431.84,223.26z"/>
	<path d="M460.68,191.1c4.85-6.26,8.27-3.52,7.26-7.97c-2.82,3.53-7.66,4.03-8.97,8.87C459.87,192.01,460.28,191.61,460.68,191.1z"
		/>
	<path d="M414.39,289.51c-3.33,1.71-6.66,3.23-9.68,5.24C408.65,294.35,411.77,292.44,414.39,289.51z"/>
	<path d="M356.31,205.92c1.92,3.33,3.13,6.86,4.54,10.29C361.35,212.68,359.34,208.04,356.31,205.92z"/>
	<path d="M438.19,250.29c2.42-2.82,3.73-6.15,5.04-9.58c-0.2-0.2-0.4-0.3-0.6-0.4C436.84,251.2,437.17,249.78,438.19,250.29z"/>
	<path d="M305.09,221.65c1.48-1.47-0.14-2.75-3.13-6.55C302.47,217.62,302.27,220.44,305.09,221.65z"/>
	<path d="M470.36,182.83c0.91-2.82-0.91-5.14-4.44-5.75C468.14,178.39,468.54,181.01,470.36,182.83z"/>
	<path d="M310.94,224.78c-2.12-0.91-3.73-2.52-5.95-3.03C307.41,225.48,308.72,226.19,310.94,224.78z"/>
	<path d="M465.82,200.58c0.6-1.41,1.82-2.42,2.32-3.93C462.73,200.8,461.94,209.63,465.82,200.58z"/>
	<path d="M315.98,246.25c-2.72,0.5-4.34,2.32-5.65,4.54C312.55,249.58,314.57,248.37,315.98,246.25z"/>
	<path d="M444.54,237.28c1.51-1.92,1.81-4.13,2.02-6.45C445.05,232.74,444.64,234.96,444.54,237.28z"/>
	<path d="M299.74,226.89c1.92,0.91,3.93,1.71,5.95,0.1C303.68,226.39,301.76,226.39,299.74,226.89z"/>
	<path d="M337.56,251.3c1.31,1.61,3.33,2.42,4.84,3.93C342.5,251.9,338.87,253.01,337.56,251.3z"/>
	<path d="M416.11,288.2c2.19,0.09,3.79-0.89,5.34-2.42C418.79,285.1,417.84,287.29,416.11,288.2z"/>
	<path d="M418.53,265.92c-2.12,0.3-3.23,1.01-3.63,3.13C416.81,268.54,417.62,267.63,418.53,265.92z"/>
	<path d="M299.24,207.94c-0.6,1.92-0.71,3.23,0.91,4.64C300.75,210.66,300.45,209.45,299.24,207.94z"/>
	<path d="M393.92,297.98c1.11,1.51,2.52,1.82,3.93,2.02C396.95,298.79,396.04,297.38,393.92,297.98z"/>
	<path d="M386.76,255.93c-1.11,2.22-1.11,2.22-0.2,3.53C387.07,258.35,387.17,257.14,386.76,255.93z"/>
	<path d="M285.28,245.1c-0.67,0.55-0.73,0.54,0.16,0.85c0.96,0.33,1.91,0.32,3.12-0.4C287.27,244.44,286.28,244.27,285.28,245.1z"/>
	<path d="M425.28,256.54c-1.41,0.71-2.12,1.61-1.92,3.02C424.38,258.86,425.38,258.15,425.28,256.54z"/>
	<path d="M373.66,246.46c0.4-1.31,0.61-2.32-0.91-2.92C372.24,244.74,372.45,245.65,373.66,246.46z"/>
	<path d="M449.79,185.55c-0.91-0.3-1.21,0.2-1.31,0.6C446.69,188.54,449.79,187.43,449.79,185.55z"/>
	<path d="M388.78,249.38c-1.31,0.71-1.92,1.31-1.71,2.52C388.28,251.5,388.68,250.79,388.78,249.38z"/>
	<path d="M428.21,253.01c1.41-0.3,1.92-1.11,2.12-2.82C429.01,250.99,428.31,251.7,428.21,253.01z"/>
	<path d="M421.85,261.78c-1.61,0.71-2.32,1.41-2.32,3.13C420.85,264.3,421.55,263.7,421.85,261.78z"/>
	<path d="M346.23,215.4c-0.2-1.51-0.61-2.22-1.92-2.92C344.52,213.89,344.92,214.69,346.23,215.4z"/>
	<path d="M373.35,248.37c-0.84,1.68,1.01,3.02,1.01,0.81C374.26,248.67,374.06,248.17,373.35,248.37z"/>
	<path d="M469.75,194.83c1.31-0.3,2.22-0.4,2.12-1.82C470.76,193.11,470.25,193.52,469.75,194.83z"/>
	<path d="M381.62,267.83c1.17-0.29,0.63-2.29-0.2-2.02C380.82,266.62,380.71,267.33,381.62,267.83z"/>
	<path d="M471.26,201.48c-2.48,1.86-0.35,1.36,1.11-0.1C471.97,200.98,471.57,201.18,471.26,201.48z"/>
	<path d="M462.09,181.62c-0.71,0.5-1.21,0.81-0.91,1.71C461.68,182.93,462.39,183.03,462.09,181.62z"/>
	<path d="M373.76,260.87c0.1-0.81,0.4-1.51-0.4-2.32C373.15,259.46,372.65,260.17,373.76,260.87z"/>
	<path d="M343,255.53c0.81,0.71,0.91,1.82,2.12,1.51C344.92,256.03,344.62,255.43,343,255.53z"/>
	<path d="M453.11,222.05c-1.01,0.4-1.51,0.71-1.61,1.61C452.51,223.47,452.91,223.06,453.11,222.05z"/>
	<path d="M303.07,259.66c-0.5-0.1-0.6,0.3-1.01,1.01C302.77,260.27,303.07,260.17,303.07,259.66z"/>
	<path d="M292.79,245.75c0.5,0.4,1.01,0.61,1.71-0.1C293.69,245.04,293.19,245.14,292.79,245.75z"/>
	<path d="M445.65,190.09c-0.91-0.2-1.31,0.1-0.81,1.11C445.35,191,445.65,190.59,445.65,190.09z"/>
	<path d="M279.78,258.76c-5.14,2.82-9.28,6.96-14.62,8.37s-10.59,3.93-16.44,3.73c6.36,3.18,5.93,0.25,12.6-0.91
		c6.16-1.07,11.23-4.54,16.54-7.56C278.96,261.76,280.08,260.87,279.78,258.76z"/>
	<path d="M265.56,301.31c0.3-6.45,1.51-12.2,4.44-17.44C265.97,284.97,262.84,297.38,265.56,301.31z"/>
	<path d="M276.55,292.74c-0.83,1.4-1.11,2.52-0.3,3.83c0.91-4.34,4.24-8.27,2.42-13.01C276.68,285.27,277.77,290.69,276.55,292.74z"
		/>
	<path d="M220.79,271.97c3.17,3.41,4.1-1.31,10.29,0.71c1.52,0.49,3.03,0.3,4.44-1.71C230.27,271.26,225.63,270.96,220.79,271.97z"
		/>
	<path d="M294.8,273.38c-3.33,2.82-6.76,5.34-10.59,7.06C290.06,279.93,294.8,276.71,294.8,273.38z"/>
	<path d="M249.13,307.26c-3.63,0.2-5.55,2.52-8.17,3.53C244.59,312,246.3,309.27,249.13,307.26z"/>
	<path d="M273.83,302.82c-2.22,0.5-4.23,1.11-6.86,2.42C271.51,305.44,272.92,304.94,273.83,302.82z"/>
	<path d="M238.34,317.34c1.01,1.82,2.32,3.23,4.13,4.34C241.56,319.86,240.15,318.35,238.34,317.34z"/>
	<path d="M251.55,307.26c1.82,0.6,2.82,1.01,4.03-0.4C254.17,306.96,253.16,306.65,251.55,307.26z"/>
	<path d="M245.29,271.26c-1.82-0.4-3.03-0.71-4.64,0.1C242.27,272.17,243.48,272.47,245.29,271.26z"/>
	<path d="M276.45,281.34c1.92,0.2,3.23,0.6,4.64-0.61C279.48,280.13,278.27,280.03,276.45,281.34z"/>
	<path d="M323.54,286.39c1.61-0.5,3.33-0.81,4.03-2.72C325.96,284.27,324.25,284.67,323.54,286.39z"/>
	<path d="M242.77,230.22c-2.02,0.1-3.43,1.01-4.54,2.32C238.93,233.24,238.21,233.38,242.77,230.22z"/>
	<path d="M267.07,215.3c-2.12,0.25-4.08,2.12-3.83,2.62C264.86,217.42,266.07,216.61,267.07,215.3z"/>
	<path d="M235.11,313.81c0.5,1.11,1.11,2.02,2.32,2.52C236.93,315.12,236.12,314.32,235.11,313.81z"/>
	<path d="M254.77,290.82c-1.71,0.4-2.12,1.11-1.92,2.52C253.87,292.84,254.47,292.23,254.77,290.82z"/>
	<path d="M209.7,293.44c1.11-1.21,1.51-2.22,0.71-3.83C209.4,290.92,209.2,291.93,209.7,293.44z"/>
	<path d="M209.2,284.47c-0.2,1.71-0.2,1.71,0.71,3.03C210.1,285.78,210.1,285.78,209.2,284.47z"/>
	<path d="M219.58,272.37c-1.51,0.2-2.52,0.1-3.73,1.11C217.26,273.78,218.27,273.88,219.58,272.37z"/>
	<path d="M276.15,298.59c-0.6,1.01-0.5,1.71,0.91,2.22C277.46,299.59,277.46,298.89,276.15,298.59z"/>
	<path d="M249.83,317.85c0.6,1.31,1.21,1.92,2.42,2.42C251.85,318.85,251.14,318.35,249.83,317.85z"/>
	<path d="M208.89,280.23c-0.86,0.22-0.53,1.44,0.3,1.11C209.5,280.84,209.6,280.44,208.89,280.23z"/>
	<path d="M300.85,291.93c1.35,1.69,1.51,0.4,1.61,0.3C302.06,291.63,301.56,291.53,300.85,291.93z"/>
	<path d="M316.68,289.81c0.5-0.1,0.91-0.1,0.91-0.61C317.29,289.11,316.99,289.21,316.68,289.81z"/>
	<path d="M268.79,233.65c-0.4,0.2-1.11,0.1-1.01,1.11C268.49,234.76,268.89,234.36,268.79,233.65z"/>
	<path d="M263.24,217.92c-0.27-0.27-1.31-0.18-1.31,0.81C262.64,218.83,262.94,218.42,263.24,217.92z"/>
	<path d="M252.96,297.17c0.4-0.4,1.11-0.5,0.6-1.71C252.86,295.96,252.15,296.27,252.96,297.17z"/>
	<path d="M188.53,516.49c-1.28-3.62-24.24-2.31-37.01-7.97c-1.4-0.62-3.03-1.01-5.24-0.71c9.56,7.44,9.04,2.8,20.77,6.76
		C172.29,516.34,183.55,518.87,188.53,516.49z"/>
	<path d="M190.54,499.65c1.54-3.28-2.28-5.12-1.61-8.67c0.93-5-2.73-6.88-3.03-10.69c-0.1-4.74-2.22-8.87-4.13-13.51
		c-1.71,1.11-1.2,2.22-0.91,3.23c3.81,13.12,4.91,10.12,4.03,10.99c-2.52,3.08,2.09,5.02,3.83,15.02
		C188.95,497.33,189.43,498.54,190.54,499.65z"/>
	<path d="M74.58,453.67c-2.63,0.05-4.92-1.04-10.49-1.92c-3.11-0.49-4.05,2.3-0.71,3.13c5.3,1.31,5.82-1.07,8.57,0.1
		c3,1.28,5.95,2.32,8.97,3.53C79.52,455.79,77.51,453.62,74.58,453.67z"/>
	<path d="M227.45,515.78c0.55-10.52,3.93-8.97,3.93-11.7c1.06-10.61,0.82-10.79-0.61-10.79c-1.54,1.03,0.69,9.75-3.53,14.52
		c-0.44,0.44-2.1,12.4-2.12,12.5C227.04,519.21,227.45,517.4,227.45,515.78z"/>
	<path d="M163.52,499.04c-5.45-1.92-10.18-3.73-15.53-5.65C151.22,496.72,159.89,500.05,163.52,499.04z"/>
	<path d="M194.17,516.49c0.3,3.63,1.51,6.86,4.03,10.08C198.71,522.14,196.79,517.3,194.17,516.49z"/>
	<path d="M128.63,497.73c4.34,2.82,8.67,5.65,13.51,7.66c0.2-0.3,0.4-0.61,0.61-0.91C127.4,495.96,129.34,496.67,128.63,497.73z"/>
	<path d="M191.15,502.98c0,3.36,0.31,6.17,1.4,8.78C191.78,509.11,193.71,505.89,191.15,502.98z"/>
	<path d="M192.55,511.76c0.11,0.37,0.27,0.75,0.51,1.1C192.87,512.5,192.71,512.13,192.55,511.76z"/>
	<path d="M231.78,489.46c1.51-3.33,1.11-6.66,0-10.08C231.28,482.71,232.39,486.14,231.78,489.46z"/>
	<path d="M124.6,481.6c2.32,1.31,4.64,2.82,7.36,3.23C129.64,483.31,127.52,481.7,124.6,481.6z"/>
	<path d="M205.26,527.98c-1.21-1.31-2.12-2.22-3.83-1.11C202.54,527.68,203.45,528.69,205.26,527.98z"/>
	<path d="M119.66,490.07c-1.41-1.82-2.42-3.43-4.44-3.63C116.53,487.65,117.24,489.67,119.66,490.07z"/>
	<path d="M141.54,490.07c-0.4-1.41-1.71-1.11-2.62-1.41C139.32,489.77,140.12,490.27,141.54,490.07z"/>
	<path d="M85.37,462.44c0.71,0.91,1.51,1.41,3.13,1.51C86.99,462.34,86.99,462.34,85.37,462.44z"/>
	<path d="M82.04,459.62c0.3,1.21,1.11,1.41,2.42,1.82C83.86,460.02,83.46,459.21,82.04,459.62z"/>
	<path d="M169.97,496.02c-0.4-1.11-0.91-1.41-1.92-1.81C168.36,495.31,168.76,495.92,169.97,496.02z"/>
	<path d="M112.8,483.92c0.61,1.51,0.91,2.52,2.32,2.62C114.92,485.43,114.31,484.62,112.8,483.92z"/>
	<path d="M124.09,493.4c-0.4-0.4-0.4-1.41-1.51-1.01C122.78,493.09,123.08,493.6,124.09,493.4z"/>
	<path d="M89.81,465.57c0.3,0.71,0.81,1.11,2.02,0.81C91.22,465.47,90.82,464.76,89.81,465.57z"/>
	<path d="M190.44,529.19c0.71,0.4,0.81-0.1,1.01-0.6C190.64,528.19,190.34,528.49,190.44,529.19z"/>
	<path d="M26.69,463.15c-7.18-1.22-5.44,6.85-6.66,8.47C31.91,477.56,33.44,464.3,26.69,463.15z M28.7,468.39
		c-0.28,2.12-1.82,2.72-4.13,2.32c0.91-2.62,0.71-2.82-1.82-2.72C23.53,463.72,29.14,465.13,28.7,468.39z"/>
	<path d="M27.29,449.53c1.21,1.92,3,2.89,4.84,1.82c2.69-1.57,1.92-4.54,2.52-7.06c-3.33-0.71-6.25-1.41-9.28-1.51
		c-1.31,2.62,2.02,1.51,2.12,3.13c0,2.04-4.69,1.66-3.23,4.84C25.28,450.34,26.08,450.04,27.29,449.53z M30.01,445.8
		c2.91-0.73,2.55,2.42,1.31,3.53C29.01,448.83,29.01,448.83,30.01,445.8z"/>
	<path d="M27.49,451.85c-6.86,0.24-6.12,10.43,0.3,10.18C34.11,461.8,34.4,451.61,27.49,451.85z M27.39,459.62
		c-3.62-0.24-3.73-5.33,0-5.55C31.77,454.07,31.66,459.62,27.39,459.62z"/>
	<path d="M36.47,494.3c1.01-0.91,2.92,0.4,3.53-1.82c-2.12-1.82-4.44-2.62-7.46-2.52C33.54,492.09,35.46,492.59,36.47,494.3z"/>
	<path d="M32.43,495.11c1.21,1.61,2.02,2.92,3.73,2.22c0.91-0.3,1.71-0.91,0.91-2.22C35.76,495.11,34.35,495.11,32.43,495.11z"/>
	<path d="M411.27,207.43c-2.12-0.3-2.12-0.3-4.64,0.4c-0.63-0.5-1.09-1.25-0.71-2.02c4.24,0.71,5.14,0.3,5.04-2.72
		c-1.11,0.91-2.32,1.23-3.73,0.81c-6.27-1.87-2.35,4.82-4.03,7.76c-0.91,0.3-1.31-0.91-2.22-0.1
		C402.42,215.53,409.99,213.66,411.27,207.43z M406.63,209.45c0.71,1.11,0.71,1.11-0.6,2.12
		C405.62,210.46,405.92,209.95,406.63,209.45z"/>
	<path d="M383.94,202.9c-2.22-0.2-3.93-1.11-6.45,0C380.01,203.8,382.03,203.8,383.94,202.9z"/>
	<path d="M391.6,202.49c-2.22-0.4-2.22-0.4-4.64,0.91C388.58,203.6,390.19,203.9,391.6,202.49z"/>
	<path d="M50.99,488.76c1.21,0.1,2.42,0.71,3.43,0.1C55.2,486.89,51.73,486.37,50.99,488.76z"/>
	<path d="M304.99,187.87c1.01-0.3,1.92-0.6,3.23-1.11C306.4,185.75,305.49,186.16,304.99,187.87z"/>
<path fill="#e6e6e6" d="m206.8 163.6c0-5.1 4.1-9.2 9.3-9.2s9.2 4.2 9.2 9.2-4.1 9.2-9.3 9.2-9.2-4.1-9.2-9.2zm17.3-.1c0-4.5-3.5-8.2-8.2-8.2s-8.2 3.7-8.2 8.3c0 4.5 3.5 8.2 8.2 8.2s8.2-3.7 8.2-8.3zm-13 0c0-2.8 2.1-5.1 5.1-5.1 1.9 0 2.9.6 3.9 1.5l-1.4 1.7c-.8-.7-1.5-1.1-2.5-1.1-1.7 0-2.8 1.4-2.8 3.1s1.1 3 2.8 3c1.1 0 1.7-.5 2.5-1.1l1.4 1.4c-1.1 1.1-2.1 1.7-4 1.7-2.9 0-5-2.3-5-5.1z"/><path fill="#e6e6e6" d="m226.6 154.7h3.4l4.2 13.2 4.4-13.3h2.6l4.4 13.3 4.2-13.2h3.3l-6.2 18h-2.7l-4.4-12.8-4.4 12.8h-2.7z"/><path fill="#e6e6e6" d="m252.8 165.8c0-3.9 3.1-7 7.2-7 4.2 0 7.2 3.2 7.2 7s-3.1 7-7.3 7c-4 0-7.1-3.1-7.1-7zm11.3 0c0-2.3-1.7-4.3-4.2-4.3s-4.1 2-4.1 4.3 1.7 4.3 4.1 4.3c2.7.1 4.2-1.9 4.2-4.3z"/><path fill="#e6e6e6" d="m269.5 159.1h3.1v3c.8-2 2.4-3.4 4.8-3.3v3.2h-.2c-2.7 0-4.6 1.7-4.6 5.4v5.1h-3.1z"/><path fill="#e6e6e6" d="m279.1 153.9h3.1v11.1l5.6-6h3.8l-5.4 5.5 5.5 8h-3.5l-4.1-5.8-1.9 2v3.9h-3.1z"/><path fill="#e6e6e6" d="m291.7 165.8c0-3.9 3.1-7 7.2-7 4.2 0 7.2 3.2 7.2 7s-3.1 7-7.3 7c-4 0-7.1-3.1-7.1-7zm11.3 0c0-2.3-1.7-4.3-4.2-4.3s-4.1 2-4.1 4.3 1.7 4.3 4.1 4.3c2.6.1 4.2-1.9 4.2-4.3z"/><path fill="#e6e6e6" d="m308.2 167.6v-8.6h3.1v7.6c0 2.1 1.1 3.3 2.9 3.3s3-1.3 3-3.3v-7.6h3.1v13.4h-3.1v-2.1c-.8 1.3-2.1 2.3-4.2 2.3-3.1.2-4.8-1.8-4.8-5z"/><path fill="#e6e6e6" d="m323.9 168.8v-7.1h-1.7v-2.6h1.7v-3.7h3.1v3.7h3.6v2.6h-3.6v6.6c0 1.2.6 1.7 1.7 1.7.7 0 1.3-.2 1.9-.5v2.5c-.8.5-1.7.7-2.8.7-2.3 0-3.9-.9-3.9-3.9z"/><path fill="#e6e6e6" d="m333.2 154.7h3.2v15h9.4v2.9h-12.5v-17.9z"/><path fill="#e6e6e6" d="m356 172.5v-1.7c-.9 1.1-2.3 2-4.4 2-2.6 0-4.8-1.4-4.8-4.2 0-3 2.3-4.4 5.4-4.4 1.7 0 2.6.2 3.7.5v-.2c0-1.9-1.2-2.9-3.3-2.9-1.5 0-2.6.3-3.9.8l-.8-2.5c1.5-.7 2.9-1.1 5.1-1.1 4 0 5.9 2.1 5.9 5.7v8zm.1-5.6c-.8-.3-1.9-.5-3.1-.5-2 0-3.1.8-3.1 2.1s1.1 2 2.6 2c2 0 3.5-1.1 3.5-2.9z"/><path fill="#e6e6e6" d="m364.9 170.5v2.1h-3.1v-18.7h3.1v7.4c1-1.4 2.4-2.5 4.5-2.5 3.2 0 6.3 2.5 6.3 7s-3.1 7-6.3 7c-2.1 0-3.5-1.1-4.5-2.3zm7.7-4.7c0-2.6-1.7-4.3-3.9-4.3s-3.9 1.7-3.9 4.4c0 2.6 1.8 4.3 3.9 4.3s3.9-1.7 3.9-4.4z"/><path fill="#e6e6e6" d="m376.9 170.8 1.4-2.1c1.4 1.1 3 1.7 4.4 1.7s2.1-.5 2.1-1.5-1.3-1.4-2.8-1.8c-.1 0-.2-.1-.2-.1-2-.6-4.2-1.4-4.2-4s2.1-4.1 4.8-4.1c1.7 0 3.5.6 5 1.5l-1.2 2.2c-1.3-.8-2.6-1.3-3.8-1.3s-1.9.5-1.9 1.4 1.3 1.4 2.8 1.8c.1 0 .2.1.2.1 2 .6 4.2 1.5 4.2 4 0 2.9-2.2 4.2-5 4.2-1.9 0-4-.7-5.8-2z"/><path fill="#e6e6e6" d="m505.6 163.6c0-5.1 4.1-9.2 9.3-9.2s9.2 4.2 9.2 9.2-4.1 9.2-9.3 9.2-9.2-4.1-9.2-9.2zm17.4-.1c0-4.5-3.5-8.2-8.2-8.2s-8.2 3.7-8.2 8.3c0 4.5 3.5 8.2 8.2 8.2s8.2-3.7 8.2-8.3zm-13.1 0c0-2.8 2.1-5.1 5.1-5.1 1.9 0 2.9.6 3.9 1.5l-1.4 1.7c-.8-.7-1.5-1.1-2.5-1.1-1.7 0-2.8 1.4-2.8 3.1s1.1 3 2.8 3c1.1 0 1.7-.5 2.5-1.1l1.4 1.4c-1.1 1.1-2.1 1.7-4 1.7-2.9 0-5-2.3-5-5.1z"/><path fill="#e6e6e6" d="m525.4 154.7h3.4l4.2 13.2 4.4-13.3h2.6l4.4 13.3 4.2-13.2h3.3l-6.2 18h-2.7l-4.4-12.8-4.4 12.8h-2.7z"/><path fill="#e6e6e6" d="m551.7 165.8c0-3.9 3.1-7 7.2-7 4.2 0 7.2 3.2 7.2 7s-3.1 7-7.3 7c-4.1 0-7.1-3.1-7.1-7zm11.2 0c0-2.3-1.7-4.3-4.2-4.3s-4.1 2-4.1 4.3 1.7 4.3 4.1 4.3c2.7.1 4.2-1.9 4.2-4.3z"/><path fill="#e6e6e6" d="m568.3 159.1h3.1v3c.8-2 2.4-3.4 4.8-3.3v3.2h-.2c-2.7 0-4.6 1.7-4.6 5.4v5.1h-3.1z"/><path fill="#e6e6e6" d="m577.9 153.9h3.1v11.1l5.6-6h3.8l-5.4 5.5 5.5 8h-3.5l-4.1-5.8-1.9 2v3.9h-3.1z"/><path fill="#e6e6e6" d="m590.6 165.8c0-3.9 3.1-7 7.2-7 4.2 0 7.2 3.2 7.2 7s-3.1 7-7.3 7c-4.1 0-7.1-3.1-7.1-7zm11.2 0c0-2.3-1.7-4.3-4.2-4.3s-4.1 2-4.1 4.3 1.7 4.3 4.1 4.3c2.6.1 4.2-1.9 4.2-4.3z"/><path fill="#e6e6e6" d="m607 167.6v-8.6h3.1v7.6c0 2.1 1.1 3.3 2.9 3.3s3-1.3 3-3.3v-7.6h3.1v13.4h-3.1v-2.1c-.8 1.3-2.1 2.3-4.2 2.3-3 .2-4.8-1.8-4.8-5z"/><path fill="#e6e6e6" d="m622.7 168.8v-7.1h-1.7v-2.6h1.7v-3.7h3.1v3.7h3.6v2.6h-3.6v6.6c0 1.2.6 1.7 1.7 1.7.7 0 1.3-.2 1.9-.5v2.5c-.8.5-1.7.7-2.8.7-2.3 0-3.9-.9-3.9-3.9z"/><path fill="#e6e6e6" d="m632 154.7h3.2v15h9.4v2.9h-12.6z"/><path fill="#e6e6e6" d="m654.8 172.5v-1.7c-.9 1.1-2.3 2-4.4 2-2.6 0-4.8-1.4-4.8-4.2 0-3 2.3-4.4 5.4-4.4 1.7 0 2.6.2 3.7.5v-.2c0-1.9-1.2-2.9-3.3-2.9-1.5 0-2.6.3-3.9.8l-.8-2.5c1.5-.7 2.9-1.1 5.1-1.1 4 0 5.9 2.1 5.9 5.7v8zm.1-5.6c-.8-.3-1.9-.5-3.1-.5-2 0-3.1.8-3.1 2.1s1.1 2 2.6 2c2 0 3.5-1.1 3.5-2.9z"/><path fill="#e6e6e6" d="m663.7 170.5v2.1h-3.1v-18.7h3.1v7.4c1-1.4 2.4-2.5 4.5-2.5 3.2 0 6.3 2.5 6.3 7s-3.1 7-6.3 7c-2.1 0-3.5-1.1-4.5-2.3zm7.8-4.7c0-2.6-1.7-4.3-3.9-4.3-2.1 0-3.9 1.7-3.9 4.4 0 2.6 1.8 4.3 3.9 4.3s3.9-1.7 3.9-4.4z"/><path fill="#e6e6e6" d="m675.8 170.8 1.4-2.1c1.4 1.1 3 1.7 4.4 1.7s2.1-.5 2.1-1.5-1.3-1.4-2.8-1.8c-.1 0-.2-.1-.2-.1-2-.6-4.2-1.4-4.2-4s2.1-4.1 4.8-4.1c1.7 0 3.5.6 5 1.5l-1.2 2.2c-1.3-.8-2.6-1.3-3.8-1.3s-1.9.5-1.9 1.4 1.3 1.4 2.8 1.8c.1 0 .2.1.2.1 2 .6 4.2 1.5 4.2 4 0 2.9-2.2 4.2-5 4.2-2 0-4.1-.7-5.8-2z"/><path fill="#e6e6e6" d="m61 298.6c0-5.1 4.1-9.2 9.3-9.2s9.2 4.2 9.2 9.2-4.1 9.2-9.3 9.2c-5.1 0-9.2-4.2-9.2-9.2zm17.4-.1c0-4.5-3.5-8.2-8.2-8.2s-8.2 3.7-8.2 8.3c0 4.5 3.5 8.2 8.2 8.2s8.2-3.7 8.2-8.3zm-13.1-.1c0-2.8 2.1-5.1 5.1-5.1 1.9 0 2.9.6 3.9 1.5l-1.4 1.7c-.8-.7-1.5-1.1-2.5-1.1-1.7 0-2.8 1.4-2.8 3.1s1.1 3 2.8 3c1.1 0 1.7-.5 2.5-1.1l1.4 1.4c-1.1 1.1-2.1 1.7-4 1.7-2.8.1-5-2.2-5-5.1z"/><path fill="#e6e6e6" d="m80.9 289.7h3.4l4.2 13.2 4.4-13.3h2.6l4.4 13.3 4.2-13.2h3.3l-6.2 18h-2.7l-4.4-12.8-4.4 12.8h-2.7z"/><path fill="#e6e6e6" d="m107.1 300.8c0-3.9 3.1-7 7.2-7s7.2 3.2 7.2 7-3.1 7-7.3 7c-4 0-7.1-3.1-7.1-7zm11.3 0c0-2.3-1.7-4.3-4.2-4.3s-4.1 2-4.1 4.3 1.7 4.3 4.1 4.3c2.6.1 4.2-1.9 4.2-4.3z"/><path fill="#e6e6e6" d="m123.7 294h3.1v3c.8-2 2.4-3.4 4.8-3.3v3.2h-.2c-2.7 0-4.6 1.7-4.6 5.4v5.1h-3.1z"/><path fill="#e6e6e6" d="m133.4 288.9h3.1v11.1l5.6-6h3.8l-5.4 5.5 5.5 8h-3.5l-4.1-5.8-1.9 1.9v3.9h-3.1z"/><path fill="#e6e6e6" d="m146 300.8c0-3.9 3.1-7 7.2-7s7.2 3.2 7.2 7-3.1 7-7.3 7c-4.1 0-7.1-3.1-7.1-7zm11.2 0c0-2.3-1.7-4.3-4.2-4.3s-4.1 2-4.1 4.3 1.7 4.3 4.1 4.3c2.6.1 4.2-1.9 4.2-4.3z"/><path fill="#e6e6e6" d="m162.4 302.6v-8.6h3.1v7.6c0 2.1 1.1 3.3 2.9 3.3s3-1.3 3-3.3v-7.6h3.1v13.4h-3.1v-2.1c-.8 1.3-2.1 2.3-4.2 2.3-3 .2-4.8-1.8-4.8-5z"/><path fill="#e6e6e6" d="m178.1 303.8v-7.1h-1.7v-2.7h1.7v-3.7h3.1v3.7h3.6v2.6h-3.6v6.6c0 1.2.6 1.7 1.7 1.7.7 0 1.3-.2 1.9-.5v2.5c-.8.5-1.7.7-2.8.7-2.3.1-3.9-.9-3.9-3.8z"/><path fill="#e6e6e6" d="m187.4 289.7h3.2v15h9.4v2.9h-12.5v-17.9z"/><path fill="#e6e6e6" d="m210.2 307.5v-1.7c-.9 1.1-2.3 2-4.4 2-2.6 0-4.8-1.4-4.8-4.2 0-3 2.3-4.4 5.4-4.4 1.7 0 2.6.2 3.7.5v-.2c0-1.9-1.2-2.9-3.3-2.9-1.5 0-2.6.3-3.9.8l-.8-2.5c1.5-.7 2.9-1.1 5.1-1.1 4 0 5.9 2.1 5.9 5.7v8zm.1-5.6c-.8-.3-1.9-.5-3.1-.5-2 0-3.1.8-3.1 2.1s1.1 2 2.6 2c2 0 3.5-1.1 3.5-2.9z"/><path fill="#e6e6e6" d="m219.2 305.5v2.1h-3.1v-18.7h3.1v7.4c1-1.4 2.4-2.5 4.5-2.5 3.2 0 6.3 2.5 6.3 7s-3.1 7-6.3 7c-2.2 0-3.6-1.1-4.5-2.3zm7.7-4.7c0-2.6-1.7-4.3-3.9-4.3s-3.9 1.7-3.9 4.4c0 2.6 1.8 4.3 3.9 4.3s3.9-1.7 3.9-4.4z"/><path fill="#e6e6e6" d="m231.2 305.8 1.4-2.1c1.4 1.1 3 1.7 4.4 1.7s2.1-.5 2.1-1.5-1.3-1.4-2.8-1.8c-.1 0-.2-.1-.2-.1-2-.6-4.2-1.4-4.2-4s2.1-4.1 4.8-4.1c1.7 0 3.5.6 5 1.5l-1.2 2.2c-1.3-.8-2.6-1.3-3.8-1.3s-1.9.5-1.9 1.4 1.3 1.4 2.8 1.8c.1 0 .2.1.2.1 2 .6 4.2 1.5 4.2 4 0 2.9-2.2 4.2-5 4.2-2 0-4.1-.7-5.8-2z"/><path fill="#e6e6e6" d="m360.6 298.6c0-5.1 4.1-9.2 9.3-9.2s9.2 4.2 9.2 9.2-4.1 9.2-9.3 9.2-9.2-4.2-9.2-9.2zm17.4-.1c0-4.5-3.5-8.2-8.2-8.2s-8.2 3.7-8.2 8.3c0 4.5 3.5 8.2 8.2 8.2s8.2-3.7 8.2-8.3zm-13.1-.1c0-2.8 2.1-5.1 5.1-5.1 1.9 0 2.9.6 3.9 1.5l-1.4 1.7c-.8-.7-1.5-1.1-2.5-1.1-1.7 0-2.8 1.4-2.8 3.1s1.1 3 2.8 3c1.1 0 1.7-.5 2.5-1.1l1.4 1.4c-1.1 1.1-2.1 1.7-4 1.7-2.8.1-5-2.2-5-5.1z"/><path fill="#e6e6e6" d="m380.5 289.7h3.4l4.2 13.2 4.4-13.3h2.6l4.4 13.3 4.2-13.2h3.3l-6.2 18h-2.7l-4.4-12.8-4.4 12.8h-2.7z"/><path fill="#e6e6e6" d="m406.7 300.8c0-3.9 3.1-7 7.2-7 4.2 0 7.2 3.2 7.2 7s-3.1 7-7.3 7c-4.1 0-7.1-3.1-7.1-7zm11.3 0c0-2.3-1.7-4.3-4.2-4.3s-4.1 2-4.1 4.3 1.7 4.3 4.1 4.3c2.7.1 4.2-1.9 4.2-4.3z"/><path fill="#e6e6e6" d="m423.3 294h3.1v3c.8-2 2.4-3.4 4.8-3.3v3.2h-.2c-2.7 0-4.6 1.7-4.6 5.4v5.1h-3.1z"/><path fill="#e6e6e6" d="m433 288.9h3.1v11.1l5.6-6h3.8l-5.4 5.5 5.5 8h-3.5l-4.1-5.8-1.9 2v3.9h-3.1z"/><path fill="#e6e6e6" d="m445.6 300.8c0-3.9 3.1-7 7.2-7 4.2 0 7.2 3.2 7.2 7s-3.1 7-7.3 7c-4.1 0-7.1-3.1-7.1-7zm11.3 0c0-2.3-1.7-4.3-4.2-4.3s-4.1 2-4.1 4.3 1.7 4.3 4.1 4.3c2.6.1 4.2-1.9 4.2-4.3z"/><path fill="#e6e6e6" d="m462.1 302.6v-8.6h3.1v7.6c0 2.1 1.1 3.3 2.9 3.3s3-1.3 3-3.3v-7.6h3.1v13.4h-3.1v-2.1c-.8 1.3-2.1 2.3-4.2 2.3-3.1.2-4.8-1.8-4.8-5z"/><path fill="#e6e6e6" d="m477.8 303.8v-7.1h-1.8v-2.7h1.7v-3.7h3.1v3.7h3.6v2.6h-3.6v6.6c0 1.2.6 1.7 1.7 1.7.7 0 1.3-.2 1.9-.5v2.5c-.8.5-1.7.7-2.8.7-2.2.1-3.8-.9-3.8-3.8z"/><path fill="#e6e6e6" d="m487.1 289.7h3.2v15h9.4v2.9h-12.5v-17.9z"/><path fill="#e6e6e6" d="m509.9 307.5v-1.7c-.9 1.1-2.3 2-4.4 2-2.6 0-4.8-1.4-4.8-4.2 0-3 2.3-4.4 5.4-4.4 1.7 0 2.6.2 3.7.5v-.2c0-1.9-1.2-2.9-3.3-2.9-1.5 0-2.6.3-3.9.8l-.8-2.5c1.5-.7 2.9-1.1 5.1-1.1 4 0 5.9 2.1 5.9 5.7v8zm.1-5.6c-.8-.3-1.9-.5-3.1-.5-2 0-3.1.8-3.1 2.1s1.1 2 2.6 2c2 0 3.5-1.1 3.5-2.9z"/><path fill="#e6e6e6" d="m518.8 305.5v2.1h-3.1v-18.7h3.1v7.4c1-1.4 2.4-2.5 4.5-2.5 3.2 0 6.3 2.5 6.3 7s-3.1 7-6.3 7c-2.2 0-3.5-1.1-4.5-2.3zm7.7-4.7c0-2.6-1.7-4.3-3.9-4.3s-3.9 1.7-3.9 4.4c0 2.6 1.8 4.3 3.9 4.3s3.9-1.7 3.9-4.4z"/><path fill="#e6e6e6" d="m530.8 305.8 1.4-2.1c1.4 1.1 3 1.7 4.4 1.7s2.1-.5 2.1-1.5-1.3-1.4-2.8-1.8c-.1 0-.2-.1-.2-.1-2-.6-4.2-1.4-4.2-4s2.1-4.1 4.8-4.1c1.7 0 3.5.6 5 1.5l-1.2 2.2c-1.3-.8-2.6-1.3-3.8-1.3s-1.9.5-1.9 1.4 1.3 1.4 2.8 1.8c.1 0 .2.1.2.1 2 .6 4.2 1.5 4.2 4 0 2.9-2.2 4.2-5 4.2-1.9 0-4.1-.7-5.8-2z"/><path fill="#e6e6e6" d="m659.5 298.6c0-5.1 4.1-9.2 9.3-9.2s9.2 4.2 9.2 9.2-4.1 9.2-9.3 9.2-9.2-4.2-9.2-9.2zm17.3-.1c0-4.5-3.5-8.2-8.2-8.2s-8.2 3.7-8.2 8.3c0 4.5 3.5 8.2 8.2 8.2 4.8 0 8.2-3.7 8.2-8.3zm-13-.1c0-2.8 2.1-5.1 5.1-5.1 1.9 0 2.9.6 3.9 1.5l-1.4 1.7c-.8-.7-1.5-1.1-2.5-1.1-1.7 0-2.8 1.4-2.8 3.1s1.1 3 2.8 3c1.1 0 1.7-.5 2.5-1.1l1.4 1.4c-1.1 1.1-2.1 1.7-4 1.7-2.9.1-5-2.2-5-5.1z"/><path fill="#e6e6e6" d="m679.3 289.7h3.4l4.2 13.2 4.4-13.3h2.6l4.4 13.3 4.2-13.2h3.3l-6.2 18h-2.6l-4.4-12.8-4.4 12.8h-2.7z"/><path fill="#e6e6e6" d="m705.5 300.8c0-3.9 3.1-7 7.2-7 4.2 0 7.2 3.2 7.2 7s-3.1 7-7.3 7c-4 0-7.1-3.1-7.1-7zm11.3 0c0-2.3-1.7-4.3-4.2-4.3s-4.1 2-4.1 4.3 1.7 4.3 4.1 4.3c2.7.1 4.2-1.9 4.2-4.3z"/><path fill="#e6e6e6" d="m722.1 294h3.1v3c.8-2 2.4-3.4 4.8-3.3v3.2h-.2c-2.7 0-4.6 1.7-4.6 5.4v5.1h-3.1z"/><path fill="#e6e6e6" d="m731.8 288.9h3.1v11.1l5.6-6h3.8l-5.4 5.5 5.5 8h-3.5l-4.1-5.8-1.9 2v3.9h-3.1z"/><path fill="#e6e6e6" d="m744.4 300.8c0-3.9 3.1-7 7.2-7 4.2 0 7.2 3.2 7.2 7s-3.1 7-7.3 7c-4.1 0-7.1-3.1-7.1-7zm11.3 0c0-2.3-1.7-4.3-4.2-4.3s-4.1 2-4.1 4.3 1.7 4.3 4.1 4.3c2.6.1 4.2-1.9 4.2-4.3z"/><path fill="#e6e6e6" d="m760.9 302.6v-8.6h3.1v7.6c0 2.1 1.1 3.3 2.9 3.3s3-1.3 3-3.3v-7.6h3.1v13.4h-3.1v-2.1c-.8 1.3-2.1 2.3-4.2 2.3-3.1.2-4.8-1.8-4.8-5z"/><path fill="#e6e6e6" d="m776.6 303.8v-7.1h-1.7v-2.7h1.7v-3.7h3.1v3.7h3.6v2.6h-3.6v6.6c0 1.2.6 1.7 1.7 1.7.7 0 1.3-.2 1.9-.5v2.5c-.8.5-1.7.7-2.8.7-2.3.1-3.9-.9-3.9-3.8z"/><path fill="#e6e6e6" d="m785.9 289.7h3.2v15h9.4v2.9h-12.5v-17.9z"/><path fill="#e6e6e6" d="m808.7 307.5v-1.7c-.9 1.1-2.3 2-4.4 2-2.6 0-4.8-1.4-4.8-4.2 0-3 2.3-4.4 5.4-4.4 1.7 0 2.6.2 3.7.5v-.2c0-1.9-1.2-2.9-3.3-2.9-1.5 0-2.6.3-3.9.8l-.8-2.5c1.5-.7 2.9-1.1 5.1-1.1 4 0 5.9 2.1 5.9 5.7v8zm.1-5.6c-.8-.3-1.9-.5-3.1-.5-2 0-3.1.8-3.1 2.1s1.1 2 2.6 2c2 0 3.5-1.1 3.5-2.9z"/><path fill="#e6e6e6" d="m817.6 305.5v2.1h-3.1v-18.7h3.1v7.4c1-1.4 2.4-2.5 4.5-2.5 3.2 0 6.3 2.5 6.3 7s-3.1 7-6.3 7c-2.1 0-3.5-1.1-4.5-2.3zm7.7-4.7c0-2.6-1.7-4.3-3.9-4.3-2.1 0-3.9 1.7-3.9 4.4 0 2.6 1.8 4.3 3.9 4.3 2.2 0 3.9-1.7 3.9-4.4z"/><path fill="#e6e6e6" d="m829.6 305.8 1.4-2.1c1.4 1.1 3 1.7 4.4 1.7s2.1-.5 2.1-1.5-1.3-1.4-2.8-1.8c-.1 0-.2-.1-.2-.1-2-.6-4.2-1.4-4.2-4s2.1-4.1 4.8-4.1c1.7 0 3.5.6 5 1.5l-1.2 2.2c-1.3-.8-2.6-1.3-3.8-1.3s-1.9.5-1.9 1.4 1.3 1.4 2.8 1.8c.1 0 .2.1.2.1 2 .6 4.2 1.5 4.2 4 0 2.9-2.2 4.2-5 4.2-1.9 0-4-.7-5.8-2z"/><path fill="#e6e6e6" d="m206.3 434.2c0-5.1 4.1-9.2 9.3-9.2s9.2 4.2 9.2 9.2-4.1 9.2-9.3 9.2-9.2-4.1-9.2-9.2zm17.4-.1c0-4.5-3.5-8.2-8.2-8.2s-8.2 3.7-8.2 8.3c0 4.5 3.5 8.2 8.2 8.2s8.2-3.7 8.2-8.3zm-13.1-.1c0-2.8 2.1-5.1 5.1-5.1 1.9 0 2.9.6 3.9 1.5l-1.4 1.7c-.8-.7-1.5-1.1-2.5-1.1-1.7 0-2.8 1.4-2.8 3.1s1.1 3 2.8 3c1.1 0 1.7-.5 2.5-1.1l1.4 1.4c-1.1 1.1-2.1 1.7-4 1.7-2.9.1-5-2.2-5-5.1z"/><path fill="#e6e6e6" d="m226.1 425.3h3.4l4.2 13.2 4.4-13.3h2.6l4.4 13.3 4.2-13.2h3.3l-6.2 18h-2.7l-4.4-12.8-4.4 12.8h-2.7z"/><path fill="#e6e6e6" d="m252.4 436.4c0-3.9 3.1-7 7.2-7 4.2 0 7.2 3.2 7.2 7s-3.1 7-7.3 7c-4.1 0-7.1-3.1-7.1-7zm11.2 0c0-2.3-1.7-4.3-4.2-4.3s-4.1 2-4.1 4.3 1.7 4.3 4.1 4.3c2.7.1 4.2-1.9 4.2-4.3z"/><path fill="#e6e6e6" d="m269 429.7h3.1v3c.8-2 2.4-3.4 4.8-3.3v3.2h-.2c-2.7 0-4.6 1.7-4.6 5.4v5.1h-3.1z"/><path fill="#e6e6e6" d="m278.6 424.5h3.1v11.1l5.6-6h3.8l-5.4 5.5 5.5 8h-3.5l-4.1-5.8-1.9 2v3.9h-3.1z"/><path fill="#e6e6e6" d="m291.3 436.4c0-3.9 3.1-7 7.2-7 4.2 0 7.2 3.2 7.2 7s-3.1 7-7.3 7c-4.1 0-7.1-3.1-7.1-7zm11.2 0c0-2.3-1.7-4.3-4.2-4.3s-4.1 2-4.1 4.3 1.7 4.3 4.1 4.3c2.6.1 4.2-1.9 4.2-4.3z"/><path fill="#e6e6e6" d="m307.7 438.2v-8.6h3.1v7.6c0 2.1 1.1 3.3 2.9 3.3s3-1.3 3-3.3v-7.6h3.1v13.4h-3.1v-2.1c-.8 1.3-2.1 2.3-4.2 2.3-3 .2-4.8-1.8-4.8-5z"/><path fill="#e6e6e6" d="m323.4 439.4v-7.1h-1.7v-2.6h1.7v-3.7h3.1v3.7h3.6v2.6h-3.6v6.6c0 1.2.6 1.7 1.7 1.7.7 0 1.3-.2 1.9-.5v2.5c-.8.5-1.7.7-2.8.7-2.3 0-3.9-.9-3.9-3.9z"/><path fill="#e6e6e6" d="m332.7 425.3h3.2v15h9.4v2.9h-12.5v-17.9z"/><path fill="#e6e6e6" d="m355.5 443.1v-1.7c-.9 1.1-2.3 2-4.4 2-2.6 0-4.8-1.4-4.8-4.2 0-3 2.3-4.4 5.4-4.4 1.7 0 2.6.2 3.7.5v-.2c0-1.9-1.2-2.9-3.3-2.9-1.5 0-2.6.3-3.9.8l-.8-2.5c1.5-.7 2.9-1.1 5.1-1.1 4 0 5.9 2.1 5.9 5.7v8zm.1-5.6c-.8-.3-1.9-.5-3.1-.5-2 0-3.1.8-3.1 2.1s1.1 2 2.6 2c2 0 3.5-1.1 3.5-2.9z"/><path fill="#e6e6e6" d="m364.4 441.1v2.1h-3.1v-18.7h3.1v7.4c1-1.4 2.4-2.5 4.5-2.5 3.2 0 6.3 2.5 6.3 7s-3.1 7-6.3 7c-2.1 0-3.5-1.1-4.5-2.3zm7.7-4.7c0-2.6-1.7-4.3-3.9-4.3-2.1 0-3.9 1.7-3.9 4.4 0 2.6 1.8 4.3 3.9 4.3 2.2 0 3.9-1.7 3.9-4.4z"/><path fill="#e6e6e6" d="m376.5 441.4 1.4-2.1c1.4 1.1 3 1.7 4.4 1.7s2.1-.5 2.1-1.5-1.3-1.4-2.8-1.8c-.1 0-.2-.1-.2-.1-2-.6-4.2-1.4-4.2-4s2.1-4.1 4.8-4.1c1.7 0 3.5.6 5 1.5l-1.2 2.2c-1.3-.8-2.6-1.3-3.8-1.3s-1.9.5-1.9 1.4 1.3 1.4 2.8 1.8c.1 0 .2.1.2.1 2 .6 4.2 1.5 4.2 4 0 2.9-2.2 4.2-5 4.2-2 0-4.1-.7-5.8-2z"/><path fill="#e6e6e6" d="m505.1 434.2c0-5.1 4.1-9.2 9.3-9.2s9.2 4.2 9.2 9.2-4.1 9.2-9.3 9.2-9.2-4.1-9.2-9.2zm17.4-.1c0-4.5-3.5-8.2-8.2-8.2s-8.2 3.7-8.2 8.3c0 4.5 3.5 8.2 8.2 8.2s8.2-3.7 8.2-8.3zm-13.1-.1c0-2.8 2.1-5.1 5.1-5.1 1.9 0 2.9.6 3.9 1.5l-1.4 1.7c-.8-.7-1.5-1.1-2.5-1.1-1.7 0-2.8 1.4-2.8 3.1s1.1 3 2.8 3c1.1 0 1.7-.5 2.5-1.1l1.4 1.4c-1.1 1.1-2.1 1.7-4 1.7-2.9.1-5-2.2-5-5.1z"/><path fill="#e6e6e6" d="m525 425.3h3.4l4.2 13.2 4.4-13.3h2.6l4.4 13.3 4.2-13.2h3.3l-6.2 18h-2.7l-4.4-12.8-4.4 12.8h-2.7z"/><path fill="#e6e6e6" d="m551.2 436.4c0-3.9 3.1-7 7.2-7 4.2 0 7.2 3.2 7.2 7s-3.1 7-7.3 7c-4.1 0-7.1-3.1-7.1-7zm11.2 0c0-2.3-1.7-4.3-4.2-4.3s-4.1 2-4.1 4.3 1.7 4.3 4.1 4.3c2.7.1 4.2-1.9 4.2-4.3z"/><path fill="#e6e6e6" d="m567.8 429.7h3.1v3c.8-2 2.4-3.4 4.8-3.3v3.2h-.2c-2.7 0-4.6 1.7-4.6 5.4v5.1h-3.1z"/><path fill="#e6e6e6" d="m577.5 424.5h3.1v11.1l5.6-6h3.8l-5.4 5.5 5.5 8h-3.5l-4.1-5.8-1.9 2v3.9h-3.1z"/><path fill="#e6e6e6" d="m590.1 436.4c0-3.9 3.1-7 7.2-7 4.2 0 7.2 3.2 7.2 7s-3.1 7-7.3 7c-4.1 0-7.1-3.1-7.1-7zm11.2 0c0-2.3-1.7-4.3-4.2-4.3s-4.1 2-4.1 4.3 1.7 4.3 4.1 4.3c2.6.1 4.2-1.9 4.2-4.3z"/><path fill="#e6e6e6" d="m606.5 438.2v-8.6h3.1v7.6c0 2.1 1.1 3.3 2.9 3.3s3-1.3 3-3.3v-7.6h3.1v13.4h-3.1v-2.1c-.8 1.3-2.1 2.3-4.2 2.3-3 .2-4.8-1.8-4.8-5z"/><path fill="#e6e6e6" d="m622.2 439.4v-7.1h-1.7v-2.6h1.7v-3.7h3.1v3.7h3.6v2.6h-3.6v6.6c0 1.2.6 1.7 1.7 1.7.7 0 1.3-.2 1.9-.5v2.5c-.8.5-1.7.7-2.8.7-2.3 0-3.9-.9-3.9-3.9z"/><path fill="#e6e6e6" d="m631.5 425.3h3.2v15h9.4v2.9h-12.5v-17.9z"/><path fill="#e6e6e6" d="m654.3 443.1v-1.7c-.9 1.1-2.3 2-4.4 2-2.6 0-4.8-1.4-4.8-4.2 0-3 2.3-4.4 5.4-4.4 1.7 0 2.6.2 3.7.5v-.2c0-1.9-1.2-2.9-3.3-2.9-1.5 0-2.6.3-3.9.8l-.8-2.5c1.5-.7 2.9-1.1 5.1-1.1 4 0 5.9 2.1 5.9 5.7v8zm.1-5.6c-.8-.3-1.9-.5-3.1-.5-2 0-3.1.8-3.1 2.1s1.1 2 2.6 2c2 0 3.5-1.1 3.5-2.9z"/><path fill="#e6e6e6" d="m663.3 441.1v2.1h-3.1v-18.7h3.1v7.4c1-1.4 2.4-2.5 4.5-2.5 3.2 0 6.3 2.5 6.3 7s-3.1 7-6.3 7c-2.2 0-3.6-1.1-4.5-2.3zm7.7-4.7c0-2.6-1.7-4.3-3.9-4.3s-3.9 1.7-3.9 4.4c0 2.6 1.8 4.3 3.9 4.3s3.9-1.7 3.9-4.4z"/><path fill="#e6e6e6" d="m675.3 441.4 1.4-2.1c1.4 1.1 3 1.7 4.4 1.7s2.1-.5 2.1-1.5-1.3-1.4-2.8-1.8c-.1 0-.2-.1-.2-.1-2-.6-4.2-1.4-4.2-4s2.1-4.1 4.8-4.1c1.7 0 3.5.6 5 1.5l-1.2 2.2c-1.3-.8-2.6-1.3-3.8-1.3s-1.9.5-1.9 1.4 1.3 1.4 2.8 1.8c.1 0 .2.1.2.1 2 .6 4.2 1.5 4.2 4 0 2.9-2.2 4.2-5 4.2-2 0-4.1-.7-5.8-2z"/></g>
</svg>
