<?xml version="1.0" encoding="utf-8"?>
<!-- Generator: Adobe Illustrator 23.0.1, SVG Export Plug-In . SVG Version: 6.00 Build 0)  -->
<svg version="1.2" baseProfile="tiny" id="Layer_1" xmlns="http://www.w3.org/2000/svg" xmlns:xlink="http://www.w3.org/1999/xlink"
	 x="0px" y="0px" viewBox="0 0 900 600" xml:space="preserve">
<g>
	<path d="M149.48,305.83l0.1-0.1C149.47,305.76,149.51,305.78,149.48,305.83z"/>
	<path d="M365.1,102.08c-36.39-6.84-32.73-4.79-32.58-11.06c0.72-30.66,3.23-17.99-11.67-32.89c1.91-1.11,4.12-0.8,5.73-2.31
		c0.6-3.82,0.31-7.74,0.6-11.57c1.1-14.15,1.57-12.16-2.61-12.77c-147.03-21.43-89.12-22.7-194.6-7.34
		c-3.02-3.53-10.76,1.61-15.39,1.61c-1.11,0-1.26,2.27-4.42,1.11c-3.11-1.14-3.72,2.41-5.13,5.93c-7.21,2.06-12.84,2.01-10.86,9.65
		c1.09,4.2,5.31,4.2,9.45,3.02c5.08-1.45,6.31-3.61,8.75,6.34c0.95,3.89-2.4,39.84,2.92,56.42c4.22,13.16-3.28-0.98,9.55,22.63
		c1.87,33.68,9.65,39.23,17.9,47.87c-0.3,5.63,0.4,11.16,3.42,15.79c0,27.27,16.82,57.89,16.9,59.13
		c1.56,26.72,1.65,6.15-2.11,29.97c-1.84,1.38-4.77,1.8-5.13,7.04c-0.07,0.51-0.72,2.84,0.3,4.12c1.21,1.71,2.72,3.12,4.83,3.92
		c0-1.41,0-2.61,0-4.02c-3.31,3.31-1.4,1.07-1.11-0.4c1.54-4.63-3.76-2.36,13.68,7.44c0.38,3.41,0.39,2.6,0.8,3.22
		c0.38-3.46-0.01-2.83,3.22-1.91c0.22,0.39,1.45,7.97,2.11,0.7c10.72,1.01,9.32-0.2,9.76,3.32c0,0.91,0.8,1.71,0.5,2.92
		c-4.93-0.3-9.81,0.09-14.08-2.61c-1.12-0.71-1.03,0.97-5.33-2.01c-0.81-3.67-0.06-3.78-1.21-0.91c-2.41-0.5-2.01-2.31-2.01-4.32
		c-0.5,0.8-0.7,1.31-1.11,1.71c-1.5,1.12-3.98-0.45,7.44,6.64c-1.41,7.24-1.41,7.24,0.1,9.15c1.8-1.08,1.41-5.57,3.02-8.25
		c3.32,0.7,6.44,1.41,9.76,2.11c-5.58,6.97-4.66,7.53-0.6,3.02c1.01-1.01,1.61-2.31,2.61-2.82c4.02-0.8,7.94,0.5,11.36-1.61
		c0-1.61,0-2.92,0-4.22c0.7-0.7,1.31-1.01,2.01-0.5c0.61,0.61-0.72,4.03,2.31-0.3c0.4,1.31,0.7,2.11,0.91,3.02
		c3.6-3.6-1.72-3.92,7.44-5.23c-1.15,1.61-1.17,1.42-1.51,3.82c-0.1,0.5-0.8,1.01-0.1,1.71c4.53-1.01,4.5-1.41,5.93-1.41
		c0.91,0.1,1.81-0.7,2.72-1.21c1.88-3.76-2.14-4.82,2.72-5.83c1.2,4.45,0.31,21.9,3.62,15.29c17.6,23.07,3.47,3.06,11.67,36.91
		c2.5,10.32,1.74,13.96,0.8,20.31c-0.91,6.16,1.86,8.94,1.41,35.9c-0.08,4.97-2.67,3.64-5.13,4.83c-4.29,2.07-4.83,2.11-4.83,0.8
		c-1.78-14.57-2.48-17.9,0.8-21.12c0.5-0.49,0.6-1.14-0.1-1.61c-0.6,0.3-1.31,0.7-2.11,1.21c-1.31-4.73-0.6-9.65-1.31-14.38
		c-1.01,22.24,2.57,10.8-6.74,28.26c-0.3,0.4-0.7,1.01,0,1.71c1.96-0.6,7.14-13.72,7.14-8.25c1.13,15.83,5.56,19.04-8.95,25.14
		c-5.83,2.45-0.33,1.68-11.26-1.21c-9.14-2.42-8.85-2.7-8.85-3.32c3.74-2.49-6.56,1.61-9.35-6.94c2.47-3.43,0.59-0.47-1.31-14.18
		c-1.5-10.81-1.88-9.89-1.41-10.36c1.11-0.1,2.11,1.21,3.32,0.5c-0.2-2.11-2.41-2.11-3.42-3.32c-2.17-9.79-8.85-10.34,4.83-3.82
		c12.37,5.9,14.01,9.09,17.8,10.66c1.41,0.58,3.17-1.19,2.01-2.82c-5.01-6.02-25.38-14.88-29.57-14.18
		c-2.66-3.65-4.1-5.96-5.93-7.14c-12-0.32-12.08,13.43-4.42,9.86c1.01-0.4,1.2-2,0.3-2.61c-0.71-0.49-1.61-0.8-2.41-1.31
		c1.04-4.02,5.25-5.01,6.03-4.22c3.04,3.46,8.96,13.53,8.55,15.19c-0.1,0.33,1.23,11.13,1.51,13.68c1.12,10.33-3.29,5.24-4.53-3.42
		c-0.89,4.9,1.31,8,1.31,9.45c-3.52,1.01-7.07,1.25-10.36,2.72c-2.93,1.31-4.05,0.33-17.1-7.14c-5.33-3.05-2.79-1.76-3.42-7.04
		c-2-16.65-2.85-14.75-2.31-23.53c8.03-6.33,15.5-3.32,19.71-5.43c-2.81-2.81-13.48-2.51-19.71,3.12c-1.16-3.47,0.05-2.3-3.32-15.79
		c0-1.57,1.53,0.88,2.72,0.6c-0.1-2.92-2.11-4.32-4.02-5.43c-0.8-2.41-1.32-4.62-2.41-6.54c-3.48-6.09,3.04-29.39,7.24-33.59
		c0.26-1.72,5.12-9.45,5.43-11.97c0.13-0.53-0.93-1.69-1.61-1.01c-1.15,0.92-11.19,17.08-11.46,21.22
		c-0.37,5.59-6.15,20.88-2.51,24.94c2.26,2.53,6.47,18.97,6.54,31.18c0.03,4.98,0.23,3.34,2.72,18.5c0.99,6.04-0.45,7.36,1.81,8.55
		c0.83,0.44,4.42,2.91,5.03,4.02c-1.7,0.85-7.8,2.56-9.15,2.92c-5.58,1.49-6.04,6-11.16,9.35c-13.09,14.77-15.52,29.05-22.93,33.99
		c-1.11-0.4-2.21-0.8-3.22-1.21c-3.37,4.34-0.09,1.34-16.19-2.51c-5.4-1.29-13.46,7.87-12.77,16.79
		c-3.67,4.19-11.73,19.28-13.07,28.36c-1.12,7.58,3.66,22.39,5.43,23.83c10.26,2.05,8.7,0.95,17.6-8.45
		c3.32-3.51,7.86-7.38,8.55-9.25c1.45-3.94,5.96-7.74,7.44-11.06c-0.76-1.89-2.69,0.11,10.06-8.85c-0.8,4.42-0.91,8.75-0.4,13.27
		c2.41,1.01,2.51,3.42,3.32,5.43c0.99,3.28-3.52,5.61-3.52,9.45c-2.21,2.01-4.22,3.72-6.24,5.63c-2.51,13.81-3.94,16.9-1.91,19.61
		c0.76,0.76-0.8,1.47,1.41,6.03c4.85,10.03,5.56,7.61,8.15,8.75c2.26,1,7.46,1.5,9.45-0.2c5.74-4.89,1.38-1.32,4.53-6.03
		c5.71-8.57,15.01-19.17,16.39-27.45c3.45-3.83,4.46-4.37,7.34-8.35c3.98-5.49,0.58-6.39,2.92-9.05
		c14.33-16.33,12.68-13.79,23.23-22.23c4.73,1.31,9.27,2.69,13.27,5.23c6.09,3.86,13.72,4.83,16.39-0.5
		c-1.86-0.72-5.25,1.76-8.05,0.91c-2.98-0.91-5.97-1.8-8.48-3.77c2.22-0.49-1.92-5.31-1.18-9c11.18,3.73,16.77,4.82,5.73,0.4
		c-4.15-1.38-4.52-0.51,1.21-2.72c4.5-1.73,16.57-8,16.79-11.97c0-0.82,4.52-4.99,5.03-5.43c1.83-1.59,3.43-0.76,4.83-1.91
		c8.13-6.73,6.06-8.59,6.54-13.78c1.52-16.5-1.83-12.52,11.77-16.29c29,17.4,25.75,14.63,25.75,24.34
		c-0.1,0.1-18.27,13.71-21.82,13.98c-0.67-7.4-0.62-6.3,6.03-9.96c0.5,1.51-0.91,2.82-0.1,4.22c0.91-0.8,0.9-1.91,1.11-2.92
		c1.16-5.66,13.87-11.47,11.06-12.87c-2.48,1.7-6.83,6.54-9.45,7.64c-1.91,0.8-2.81,2.63-4.63,3.52c-8.14,3.96-3.94,4.45-5.33,11.97
		c-3.51,2.45-3.81,2.45-4.42,2.01c-0.45-2.81,1-11.43-1.81-6.74c-2.73,3.92-8.09,6.12-12.87,8.35
		c-23.26,10.82-6.11,6.81-22.02,10.16c0.8,2.41,6.59,0.47,9.05-0.8c1.64-1.64,1.98-2.86,8.35-5.83c1.31-0.33,1.58-1.87,0.5,7.44
		c-3.62,2.72-7.07,5.87-11.36,7.94c-0.9,0.43-1.28,1.37,0.2,2.11c3.24,1.08,10.32-6.97,11.57-5.93c0.15,2.44-2.58,52.58-4.02,56.92
		c-53.2-27.16-39.31-21.77-47.07-20.62c-4.53,0.68-8.75,2.01-12.97,3.42c-2.01,3.22-6.24,13.68-6.54,16.39
		c0.11,0.06,120.7,69.83,123.3,70.7c7.88,0-119.29-69.07-120.98-72.21c0.56-2.24,3.87-10.7,5.53-12.77
		c59.49,34,59.39,32.31,59.84,29.87c0.39-1.56,4.92-68.97,4.93-69.09c0.47-6.26-3.29-3.63,20.52-18c1.63,0-5.95,98.74-6.84,102.08
		c2.39,1.4,63.12,38.38,66.17,39.52c4.62,0-7.07-5.6-61.15-38.72c-3.12-1.91-2.23-1.49-1.91-3.72c13.29-6.14,10.79-6,14.58-3.72
		c72.9,43.68,68.57,41.85,70,41.74c1.53-1.28,6.52,2.53-68.08-42.84c-4.72-2.87-3.92-1.8-3.92-5.03
		c2.77-44.25,0.84-39.98,6.34-36.91c88.55,49.42,79.79,46.8,83.37,44.25c17.64-12.55,14.14-8.22,12.67-19.71
		c-0.54-4.24-1.57-4.4-17.9-13.07c-2.55-1.35-2.21-1.7-2.21-3.12C371.08,71.24,370.99,103.18,365.1,102.08z M157.93,294.16
		c-1.36-0.68,0.2-2.08,0.2-0.3C158.13,293.96,158.03,294.06,157.93,294.16z M188.3,417.15c1.01,0.6,0.91,1.51,0.91,2.41
		c1.81,0.3,3.22,1.21,4.42,2.92c-2.31,0.3-4.42,0.7-6.84,1.11c-4.72,3.63-7.54,5.19-10.96,10.76c-1.93,3.14-9.52,15.19-10.06,15.19
		c-0.14,0.14-12.73-6.11-13.78-6.64c2.8-2.8,14.63-5.2,19.11-12.47C174.17,425.46,172.22,427.42,188.3,417.15z M164.57,450.54
		c-4.31,5.49-3.15,3.94-4.02,4.53c-4.04-2.02-3.26-0.43-4.91-9.24C159.15,447.13,162.56,448.83,164.57,450.54z M155.22,449.84
		c0.41,3.61,0.49,2.81-2.92,1.11c-0.22-2.66-0.26-2.84-1.01-6.94c1.89,0.1,1.92,0.1,4.27,1.77
		C154.67,446.96,154.77,445.92,155.22,449.84z M113.38,458.29c0.37,0,0.1,0.27,0.1,0.4C113.12,458.33,113.38,458.63,113.38,458.29z
		 M115.09,468.95c-2.85,3.48,2.12,3.47-1.61,7.54c-3.4,3.71-4.05,2.58-9.15,6.54c-3.74,2.9-0.55,1.56-8.45,9.45
		c-1.69,0.85-0.95-5.91-4.93-11.16c-1.85,0.19-0.62,2.1,0.4,5.73c2.71,9.66-0.89,9.53,2.01,11.46c-1.53,2.14-1.04,3.08-2.61,1.11
		c-10.18,13.57-5.51,11.01-9.96,13.98c-5.59-0.53-7.03,0.98-9.86-6.64c-2.91-7.84-2.14-12.91-1.11-18c1.09-5.4,4.7-13.43,5.23-13.78
		c2.43-1.39,2.12-3.58,4.42-7.04c5.76-7.68-0.49-7.76,9.76-19.71c3.22-0.1,5.93,0.2,8.65,1.31c0,7.17,6.43,5.63-2.11,19.51
		c5.12-1.71,8.98-8.7,4.93-15.39c-3.99-6.58,2.55,0.06,7.94-2.21c2.33-1.16,3.52,2.51,3.52,6.03c0,5.56-8.73,15.3-3.82,16.39
		c2.05,0.61,1.7-1.52,2.01-1.11c0.91,0.2,1.81,0.3,2.61-0.4c-1.21-1.31-1.51-1.31-2.82,0.1c-2.5-0.94,0.22-7.06,2.01-9.05
		c3.01-3.01,2.5-5.14,2.92,2.72c2.06,0.77,2.8-6.1,2.31-8.65c-0.58-3.03-1.19-3.47,1.51-5.33c0.71-0.49,2.01-0.2,1.91-1.61
		c-4.92,0-5.06,3.46-6.74,0.1c4.57-2.99,3.47-6.14,15.99-23.33c1.31-1.8,2.61-3.52,3.22-5.93c4.18-0.44,8.59-11.1,14.28-12.97
		c15.22-5,8.1-5.05,17.6,0.6c4.81,2.87,9.07-0.03,11.67-0.3c11.23-1.19,8.45-2.7,10.96,4.12c-2.8,3.3-6.39,5.6-9.98,7.89
		c-0.27-1.61,2.31-3.01,0.72-6.18c-2.59,1.94,2.77-1.46-9.96,15.99c-5.41,6.31-21.94,8.55-24.54,13.17
		c0.71,0.28,1.64,0.57,1.11,1.11c-4.22,2.27-0.8,0.7-6.24,4.22C112.68,466.28,124.01,459.21,115.09,468.95z M150.59,449.24
		c-2.01-0.4-2.01-0.4-4.22-2.11c0.91-1.11,1.91-2.01,3.42-2.61C150.69,446.22,150.69,447.73,150.59,449.24z M116.19,475.68
		c0-2.59,0.2-3.61,0.4-4.63c16.63-16.63,6.34-9.2,26.05-21.52c2.81-1.4-0.13-2.34,16.39,7.64c-1.51,3.12-5.53,7.94-9.45,11.06
		c-0.8-0.3-1.61-0.7-2.51-1.01c-21.52,5.87-18.42-0.63-25.24,3.92C118.55,471.66,117.37,474.51,116.19,475.68z M144.55,514
		c0.38,1.14-1.52,2.75-13.17,19.91c-5.58,8.21-6.25,10.09-9.05,10.26c-1.55,0.09-5.52,0.01-7.14-2.01
		c-5.98-8.5-7.39-9.78-6.64-13.17c0.65-2.96-0.76-3.76,2.01-15.79c0.51-1.69,0.35-1.8,7.44-7.54c-0.69-3.79,2.72-3.54,2.21-8.35
		c-0.09-0.81,0.4-1.61,0.7-2.51c-9.05-13.57-1.83-24.98,7.94-23.23c2.3,0.41,8.87,12.95,4.93,27.76c-0.51,1.91-0.8,3.82-1.31,6.03
		c9.2-3.07,3.21-24.2,3.32-25.24c0.19-1.15-2.81-4.25-3.62-6.94c5.13-0.3,9.65-2.11,14.28-3.42c3,1.5,2.96,6.25,2.01,7.94
		c-1.69,3.01-2.88,6.84-2.92,6.94c0.23,0.7,1.81,5.21,2.21,5.73c3.05,3.93,0.96,6.08,6.03,10.26
		C152.86,505.97,142.84,510.56,144.55,514z M152.4,493.99c-4.14-7.01-5.3-7.96-4.53-11.26c0.87-3.71,1.77-6.12,3.42-3.92
		C154.7,483.92,157.05,488.43,152.4,493.99z M182.57,469.55c1.71-1.51,4.42-2.92,8.15-4.12
		C190.43,473.67,199.66,476.39,182.57,469.55z M230.84,421.08c-2.16,20.54-0.21,10.22-18.5,30.17c-5.21,5.68-11.6,8.1-18.71,10.86
		c-28.87,11.2-23.61,17.18-35.1,24.84c-2.19-11.21-6.95-9.3-7.34-16.29c0.77-0.97,5.65-6.28,7.24-7.94
		c13.49-14.18,11.82-23.98,28.96-36.3c12.23-2.29,8.92-2.2,12.27-0.8c-0.9,0.42-11.76,5.07-9.86,7.74c2.66-1.33,3.74-2.82,8.65-5.13
		c2.6-1.22,1.44-0.63,2.61-1.81c15.05,4.16,13.7,4.87,20.72,0.4c0.5-0.4,1.09-0.61,1.41-1.11c1.75-2.76,4.83-3.72,6.74-6.03
		C230.94,419.87,230.94,420.47,230.84,421.08z M219.18,540.35c-0.1,1.01-0.5,2.01-1.61,2.51c-2.61-1.11-51.19-27.56-53.9-29.47
		c1.59-1.73,3.91-1.58,10.66-3.02c4.14-0.88,1.56-0.78,41.43,19.41C221.1,532.5,219.54,530.28,219.18,540.35z M240.19,457.38
		c-12.95,8.1-13.15,8.05-15.89,8.05c-0.88-8.76,6.85-5.84,15.59-14.58C240.6,452.96,240.6,453.26,240.19,457.38z M331.61,105.39
		c20.35,4.07,15.44,2.18,14.18,5.53c-0.81,2.15-15.34,190.59-15.89,193.89c-2.51-0.4-7.54-2.51-11.87-4.83
		c-1.02-5.12,12.97-185.55,12.97-185.65C331.12,111.53,331.41,108.71,331.61,105.39z M351.62,109.32c2.82,0.2,5.23,0.8,7.94,1.41
		c0.4,2.79-16.12,196.05-16.79,200.13c-6.99-3.15-6.03-0.02-4.42-19.81C353.81,101.03,352.9,111.73,351.62,109.32z M337.85,372
		c-2.31,1.71-4.73,3.22-7.54,4.63c0-3.81,3.01-48.77,3.02-48.88c0.27-3.01,4.55-1.32-54.91-28.76c13.24-4.41,9.84-4.45,11.16-1.21
		c1.43,3.49,6.07,3.29,6.74-0.7c0.32-3.22-0.03-2.84,1.11-4.83c5.71,4.51,19.98,9.14,32.28,15.29c-0.25,4.51-0.43,6.84-0.3,7.84
		c0.46,3.66,5.5,4.13,6.64,0.7c1.66-6.64-1.5-6.08,6.54-3.12c0.3,2.21,0,4.42-0.5,6.54c-8.61,4.3-7.62,1.72-8.25,4.42
		C342.84,328.44,344.01,301.11,337.85,372z M278.81,463.82c0.1,0.08,36.2,19.06,38.92,18.1c0,1.25-0.91,29.33-1.61,31.78
		c-2.61-1.11-44.15-25.85-47.77-28.36c1.35-32.29-1.25-33.99,3.22-36.71c1.53-0.61-0.6-2.39,3.92-0.2
		c44.15,21.37,41.8,19.7,42.44,18.2c-0.63-1.65,0.43-0.14-41.23-19.91c-3.5-1.94-2.92-0.92-2.92-3.32c0-8.72-11.04-12.5,44.85,14.28
		c0.4,3.32-0.2,17.7-0.91,22.83c-3.07-0.19-36.48-18.12-38.72-18.3C278.31,462.81,278.21,463.42,278.81,463.82z M225.01,217.53
		c3.22,0.3,4.63-1.61,5.93-3.92c-0.1,0.6-0.11,1.2-0.3,1.71c-10.34,27.49,3.38,8.15,4.63-3.92c1.81-0.91,3.82-1.41,5.83-1.81
		c1.21,0.7,1.79,1.71,1.91,2.92c0.79,7.58,1.38,9.64-0.5,13.07c-4.29,7.82-12.18,15.01-18.5,18.4c-2.72-2.72-0.52-2.38-4.63,0.91
		c-7.89-2.63-17.39-14.79-22.02-22.23c-7.77-12.47-8.32-27.34-3.22-40.63c1.18-3.07,2.02-2.49,5.03-5.13
		c11.14-9.77,26.05,2.46,26.05-3.82c13.27-11.23-0.34-5.84,22.33-14.78c4.85-1.91,1.01-1.07,8.75-5.23
		c2.03-1.09,5.14-5.35,6.34-6.94c-3.12,0.13-5.53,6.11-5.53,2.72c5.68-25.56,25.18-42.27,24.64-47.67c0-1.96,1.76-3.27,1.31-6.13
		c-0.4-2.55,1.3-2.01,3.72-7.44c3.62-8.12-8.44-30.03-0.91-30.57c2.17-0.31,1.81-1.56,1.81,1.51c2.54-0.73,3.14-2.51,8.75-5.43
		c2.1,1.2,1.18,1.18,4.63,1.81c-1.77,1.96-7.02,3.55-5.83,5.33c3.42-0.7,6.34-3.42,10.26-3.32c2.07,4.55,2.12,3.33-4.12,5.73
		c-6.15,1.54-2.61,5.21,7.54-0.8c1.21,0.33,0.74,0.62,2.82,4.42c-3.25-1.41-4.95,0.59-9.05,3.32c0,7.71,4.19,7.34-0.1,14.88
		c-8.96,15.74-1.14-5.15-9.96,31.78c-16.76,70.24-5.3,23.07-27.15,72.61c0,0.48-0.83,2.37-2.92,3.82
		c-12.17,8.48-10.43,10.06-18.71,13.07C228.25,211.43,224.15,211.52,225.01,217.53z M181.97,177.7c1.71-2.32,2.96,0.04,3.22-4.42
		c0.84-14.43-0.31-11.11,4.12-14.28c0.2,0.5,0.5,0.91,0.5,1.31c0,1.25-0.56,6.3,1.21,3.52c0.94-1.49,1.11-3.22,1.31-4.93
		c1.41-0.3,1.51,1.01,2.31,1.61c2.01,0,1.6-0.51,1.81-0.3c1.41,1.11,2.61-0.3,3.92-0.5c0.3,0,0.81-0.2,0.91-0.4
		c0.74-1.59,2.61-2.11,3.42-3.72c0.4,0.2,0.8,0.5,1.41,0.8c1.98-1.98,0.82-1.71,2.92-1.71c0.91-0.91,0.2-1.41-0.4-1.91
		c0.78-4.7-0.8-3.93,2.41-5.53c0.5-1.11-0.2-2.51,1.01-3.72c5.64,6.44,5.12,8.29,7.84,0.4c4.77-13.81,2.16-9.8,3.62-12.87
		c1.81-3.81,0.93-7.28,1.11-9.35c0.31-3.55,0.93-2.83,3.22-6.94c3.02,10.57,1.45,3.36,0.2,11.57c-0.72,4.77,3.13,3.73,1.11,12.97
		c-2.17,6.52-3.94,11.78-3.82,19.21c-1.11,1.01-2.21,1.01-3.52,0.7c-0.7-1.91-0.49-3.92-0.8-5.83c-0.31-1.88-1.31-1.79-1.31,0.1
		c0,8.27,0.32,10.77-1.41,17.2c-0.8,0.5-1.61,0-2.31-0.2c-22.94-7.91-26,17.66-36,25.44C176.31,198.34,174.95,187.21,181.97,177.7z
		 M178.97,177.8c0.05-0.34,0.25-0.49,0.68-0.4C179.4,177.48,179.17,177.64,178.97,177.8z M130.58,72.81
		c-2.06-8.88-2.61-6.86-2.61-17.6c0-2.25,0.93-2.5,3.42-6.24c87.2-12.46,60.54-12.57,96.95-7.34c40.52,5.82,26.5,2.48,17.9,6.64
		c-0.65,2.33-0.2,19.49-0.2,22.23c5.32,8.87,6.64-23.53-0.91,84.88c-12.6,5.6-9.92,3.08-16.49,12.47c-1.81,2.94-1.32,1.59-5.53,5.33
		c-2.42-0.97-1.9,0.95-1.21-10.86c10.27-3.73,0.7-1.58,9.25-23.83c0.75-1.94,0.23-5.31,0.1-7.54c-2.78-3.71-2.32-1.45-0.3-8.05
		c0.76-2.49-0.25-4.82-0.8-7.24c-1.4-6.1,3.27-4.92-3.11-6.11c0.1-0.58,0.19-1.25,0.29-1.73c1.71-0.5,2.21,0.91,3.22,1.41
		c4.06,0,5.41-1.57,1.31-3.62c1.23-1.09,3.34-2.37,2.61-3.82c-0.78-1.55-2.54-0.46-5.13,0.4c1.46-2.29,2.3-1.6,1.71-8.65
		c-4.37,1.64-5.53,5.62-8.95,4.12c0.08-0.53,1.15-3.83-1.01-3.22c-3.72,1.35-3.06,1.72-4.22-0.6c-6.14,1.89-2.31,2.53-4.32-1.51
		c-9.87,7.99-3.75,3.02-10.16,3.82c0.91-2.21-0.1-3.72-1.11-5.23c-2.03,0.51,0.34,0.21-4.22,3.02c-4.84,2.56-6.54,5.11-9.35,4.32
		c-2.17,4.33-1.19-0.81,0.6,9.65c0.13,0.74,0.46,3.9-0.5,4.22c-4.01,0,0.28-7.69-2.01-10.36c-1.21-1.41-2.41-2.72-2.41-4.83
		c0-1.11-1.71-1.71-2.51-0.91c-2.19,2.56-1.53,3.12-1.91,5.23c-1.2-0.8-2.09-1.81-3.22-1.01c-1.16,0.96-0.03,2.45,0.7,3.92
		c-0.91-0.4-1.51-0.6-2.31-0.91c0,0.5-0.21,0.91,0,1.11c4.06,3.87,3.73,3.03,3.02,5.43c-2.03,6.82-3.49,8.95-3.52,12.47
		c-0.11,12.95,5.74,17.45,5.23,22.23c-0.42,3.91,0.28,15.14,4.02,16.39c0,11.74-0.97-4.47-12.87-7.84
		c-4.31-1.22-2.26,0.18-5.03-10.36c-4.35-16.57-20.93-17.54-19.81-27.56C146.92,99.37,135.11,92.36,130.58,72.81z M139.12,46.26
		c-3.17,0.49-2.89,1.43-2.21-15.89c1.03-1.03,61.1-10.76,63.16-10.76c0.54,1.08,0.4-0.87,0.4,15.69
		C200.47,36.76,203.09,36.34,139.12,46.26z M280.92,65.07c-13.53,0-7.37-12.9-2.31-11.36c1.31,0.4,2.41,1.31,3.62,2.21
		C280.48,62.91,282.68,62.57,280.92,65.07z M282.43,72.61c5.95,8.32,0.95,18.15-0.8,16.39C281.21,89,282.18,76.36,282.43,72.61z
		 M280.32,73.41c-1.7,31.8-0.63,26.17-5.73,35.6c-4.71,8.71-0.03-10.59,0.6-38.62c1.91-0.8,3.42-1.11,5.13-1.41
		C280.72,70.7,280.52,72.11,280.32,73.41z M270.47,113.14c0,7.63-15.04,16.06-15.99,37.61c-9.29,4.44-8.25,17.43-3.42-53.2
		c2.45-35.74-0.18-20.34,11.67-24.04c2.14-0.67,6.72-1.92,10.26-2.31C272.98,81.79,270.47,108.85,270.47,113.14z M227.48,98.79
		c-0.04,0.11-0.09,0.26-0.16,0.47C226.93,98.79,227.27,98.81,227.48,98.79z M222.9,101.98c0.8-1.11,1.71-1.31,3.02-0.91
		C225.21,102.68,224.1,102.28,222.9,101.98z M226.72,104.89c-0.4,1.51-0.4,1.51-1.91,1.21
		C224.71,104.89,225.61,104.99,226.72,104.89z M226.86,109.62c-0.69,1.34-1.6,2.1-3.46,1.81
		C224.56,110.36,225.54,109.59,226.86,109.62z M217.67,135.36c2.81-0.7,1.84-1.43,2.82,0.2
		C219.38,135.46,218.47,135.46,217.67,135.36z M217.77,143.31c-0.3-2.61,0.3-4.32,1.11-6.24
		C219.38,139.69,219.38,139.69,217.77,143.31z M217.37,98.36c2.59-2.59,2.2,1.75,0.4,0.4C217.67,98.76,217.57,98.66,217.37,98.36z
		 M217.61,135.52c-0.04,0.11-0.07,0.21-0.14,0.34C217.17,135.58,217.46,135.6,217.61,135.52z M219.58,132.65
		c1.82-1.09,1.71-1.2,2.11-0.8C221.69,132.21,221.84,132.08,219.58,132.65z M215.66,140.49c-0.1,1.11-0.1,2.21-0.1,3.42
		C213.78,143.73,214.35,140.85,215.66,140.49z M213.04,135.87l0.1-0.2C213.27,135.92,213.3,135.87,213.04,135.87z M205.8,136.07
		c1.11,0.4,1.41,1.21,1.31,2.21c1.41,0.6,1.31,1.91,2.51,3.52c-2.01-1.81-2.01-1.81-2.51-3.52
		C206.2,137.98,205.9,137.17,205.8,136.07z M207.11,144.62c-0.33,1.31,0.01,1.21-0.4,1.21c-0.06-0.22-0.24-1.07,0.1-1.41
		C206.91,144.52,207.01,144.62,207.11,144.62z M198.76,116.66c2.31-0.3,4.12-0.3,6.24,0.2
		C203.49,117.46,202.68,117.36,198.76,116.66z M202.08,149.24c0,0.9-0.5,0.4-0.5,0.3c-0.1-0.2,0-0.4-0.1-0.6
		C201.68,149.04,201.98,149.04,202.08,149.24z M201.28,128.12c-0.25,0.13-0.2,0.16-0.2-0.1L201.28,128.12z M197.65,157.09
		c0,0.26,0.23,0.5-0.01,0.58C197.53,157.54,197.51,157.23,197.65,157.09z M196.75,140.19c0-0.91,0-1.81,0-2.82
		C197.86,139.49,197.86,139.49,196.75,140.19z M196.35,129.93c2.95,2.26,2.31,5.54,2.31,4.02
		C197.25,133.15,197.25,131.64,196.35,129.93z M195.84,107.71c-0.54-0.36-0.65-0.13,0-1.11
		C196.41,106.89,196.73,106.82,195.84,107.71z M196.35,153.97c-0.1,0-0.3,0-0.4,0C195.63,152.38,196.35,151.23,196.35,153.97z
		 M197.05,122.59c1.13-1.81,2.1,0.98,2.61,2.01C197.76,124.5,197.25,123.6,197.05,122.59z M199.67,104.99
		c1.71-1.41,2.82-1.71,6.24-1.81C203.79,104.49,201.88,104.99,199.67,104.99z M206,121.18c0.4-0.5,0.3,0,0.4,0.2
		c0.87,0.44,0.1,1.15,0.1,0.6C206.5,121.55,206.48,121.18,206,121.18z M194.64,150.05c0-0.5,0-0.91,0-1.41
		C195.54,149.44,195.54,149.44,194.64,150.05z M193.83,113.94c-0.1,0.1-0.3,0.1-0.5,0.2c0-0.2,0-0.3-0.1-0.4
		C193.58,113.74,193.83,113.68,193.83,113.94z M192.02,102.48c-0.5-1.31-0.5-1.31,1.01-1.51
		C192.73,101.37,192.43,101.88,192.02,102.48z M192.83,145.22c-0.4,0-0.3,0.31-0.3-1.71C193.35,143.39,192.83,144.12,192.83,145.22z
		 M190.01,129.73c-1.41-1.71-1.21-3.32-1.01-5.53C189.41,126.41,189.61,127.82,190.01,129.73z M188.3,122.89
		c0-1.85-0.07-1.61,0.2-1.61C188.5,123.14,188.57,122.89,188.3,122.89z M179.55,110.42c0.78-3.11,3.02,2.36,3.02-3.02
		c1.11,0.91,1.41,2.01,1.81,3.32C182.67,111.23,181.16,110.72,179.55,110.42z M181.16,120.08c-0.1,0.2-0.2,0.3-0.2,0.6
		c-0.2-0.1-0.5-0.2-0.5-0.3C180.46,119.43,180.96,119.98,181.16,120.08z M178.45,114.85c-0.5-1-0.39-2,0.6-2.11
		C180.15,112.74,180.02,114.85,178.45,114.85z M178.55,136.47c-0.19,0-0.23,0.03-0.27-0.11
		C178.35,136.4,178.45,136.42,178.55,136.47z M182.77,102.28c0.2,0.8,0.7,1.51,0,2.41C182.17,103.79,182.17,103.08,182.77,102.28z
		 M178.04,135.57c0.1,0.2,0,0.5,0.1,0.6C177.27,135.29,178.04,135.16,178.04,135.57z M177.64,131.14c0.38-0.38,0.1,0.22,0.1,0.4
		C177.74,131.34,177.74,131.24,177.64,131.14z M181.97,146.12c0.91,1.71,0.91,1.71,0.7,4.93
		C181.66,149.44,181.56,147.93,181.97,146.12z M182.77,118.57c-0.97,0.49-1.38-0.8,0.27-0.8
		C182.97,118.05,182.95,118.39,182.77,118.57z M181.66,115.05c-0.1-1.61,0.1-1.71,2.21-1.21
		C182.97,114.35,182.37,114.75,181.66,115.05z M183.69,117.15c0.01,0.34-0.16,0.54-0.51,0.51
		C183.33,117.5,183.52,117.31,183.69,117.15z M294.2,51.79c-2.07,1.38-4.24,2.86-6.42,4.34C287.03,53.22,291.23,51.57,294.2,51.79z
		 M308.28,74.62c1.2-1.2,0.03-4.93,5.43-6.24c2.02,0,2.99,3.89,2.72,6.54c-0.36,3.43-3.54,3.01-5.63,3.22
		c-3.61-4.33-5.18,0.21-5.63-7.44c3.92-3.12,5.23-3.72,7.44-3.02C307.37,69.22,306.12,74.08,308.28,74.62z M287.16,152.46
		c13.26-5.16,11.32-4.83,10.96,1.11c-0.59,9.72-7.74,129.68-8.45,139.59c-4.83,1.61-9.45,3.12-13.98,4.93
		c-0.98,12.77-3.48,41.8-4.32,53.2c-0.35,4.77,1.7,4.45,14.48,10.26c0.13,0.6-1.93,2.51-1.71,4.02c0.25,3.74-3.02,50.41-3.62,57.42
		c-0.33,3.89,0.47,2.95-6.03,5.63c-1.34-0.54-0.71,0.54-1.71-22.43c-0.28-1.66,0.53-6.86-5.73-7.44c-5.14-0.48-3.82,7.88-1.11-45.96
		c0.01-0.11,10.09-179.1,11.06-180.82C283.1,161.15,285.32,158.39,287.16,152.46z M304.66,146.02c15.37-5.62,12.34-9.6,10.06,23.43
		c-0.01,0.11-7.27,108.84-8.85,125.21c-12.36-6.55-9.82,3.72-5.63-60.34c0.88-13.51,4.48-79.96,5.33-83.87
		C305.89,148.95,305.76,147.63,304.66,146.02z M318.94,140.79c2.51-0.8,4.73-1.61,7.24-2.51c0.29,2.06-9.99,156.89-10.16,159
		c0,2.32-1.37,1.81-7.94-1.61C308.26,290.24,317.87,151.52,318.94,140.79z M328.79,364.76c0,9.92-1.27,10.31,0.5,12.57
		c-4.4-1.57-50.66-21.51-55.21-24.24c-0.85-1.82,3.45-50.21,3.82-51.39c1.37-0.11,51.04,23.71,52.9,24.64
		c0.3,3.92-1.51,32.79-2.01,35.5c-2.31,1.85-51.18-25.51-51.79-21.82C276.59,341.25,275.86,340.33,328.79,364.76z M302.95,369.08
		c2.47,0.62-1.7-0.93,7.84,3.22c0.16,2.07-2.65,44.83-2.82,46.36c-1.32,12.53,2.18,14.8-9.25,7.94
		C299.13,414.74,302.24,372.6,302.95,369.08z M296.71,424.29c0,2.28-5.4-2.75-9.05-2.21c-0.21-3.4,1.56-24.44,1.91-29.16
		c2.56-35.02-1.54-30.36,11.06-25.24C300.64,368.76,296.8,423.08,296.71,424.29z M313.21,373.51c3.22,0.91,10.16,3.92,12.77,5.63
		c-1.88,2.17-0.79-0.68-5.93,57.63c-2.51-0.6-7.94-3.22-10.96-5.33C309.09,431.33,312.57,376.04,313.21,373.51z M318.74,507.06
		c0.08-1.52,2.41-48.97,2.41-50.38c3.32-1.91,6.44-3.92,9.65-5.63c0.65,0.98,0.79-4.29-4.42,59.23
		C316.53,515.2,318.28,515.82,318.74,507.06z M318.74,455.67c-47.4-22.42-51.33-21.93-39.12-27.35c0.3,0.8,0.42,1.5,0.7,2.11
		c1.53,3.27,6,2.7,6.64-0.91c2-6.99-5.64-9.69,32.48,9.76c0.61,1.72-0.22,6.37,0,8.65c0.36,3.66,5.39,4.14,6.54,0.7
		c0.29-0.86,0.46-2.97,0.91-5.43c5.55,2.61,4.63,1.8,4.63,5.23C327.29,450.84,323.26,453.46,318.74,455.67z M326.88,440.89
		c5.11-61.34,5.21-58.74,3.92-61.65c6.15-3.92,6.1-3.85,6.54-3.42c0.32,0.32,0.62-4.71-5.23,66.17
		C332.11,444.32,329.32,441.89,326.88,440.89z M330.91,70.4c0.17,6.14-2.57,58.71-2.92,64.87c-1.82,0.78-38.19,14.89-39.82,14.08
		c0-0.5-0.02-0.74-0.04-0.84c0.19-0.24,1.08-2.82,4.46-20.78c0.63-5,1.27-0.81,3.42-13.98c4.47-27.31,1.69-20.37,8.15-27.35
		c2.27-2.45,1.59-2.7,2.72-7.94c1.04,0,3.6,1.44,7.14,1.21c4.9,0,5.9-7.92,2.41-11.67c-1.94-2.08-3.02-4.42-4.32-7.04
		c2.85-1.66,8.17,6.42,16.29,11.06c0.36-2.14,1.93-0.13-9.35-9.65c-3.05-2.58-2.82-2.01-1.31-3.02
		C322.16,63.06,326.48,66.68,330.91,70.4z M324.47,34.7c0.85,1.69,0.51-2.27-0.2,20.62c-2.61,1.31-11.97,3.72-15.69,4.12
		c-3.77-7.54-2.47-1.67-7.24-6.44c-2.87-0.24-3.82,0.02-3.82-0.91c0-5.86-7.55-2.57-12.17,1.21c-1.46,1.46-4.93-0.4-5.03-0.4
		c-5.03-2.11-7.62,0.41-9.55,4.32c-0.62,1.26,0.66,5.51,1.01,6.44c1.15,3.06,2.94,3.32,5.53,3.32c2.79,0-12.53,4.09-17.1,4.73
		c-0.7-2.79-0.3-0.74-0.3-16.09c0-2.77,1.13-6.01-7.14-4.83c1.01,2.51,3.42,1.41,5.13,2.51c0.19,1.23,0.31,16.37-0.2,18.6
		c-3.22-0.3-6.24-1.31-9.35-2.01c-0.59-1.7-0.5-18.73-0.3-20.21c4.36-1.82,61.6-12.77,62.85-14.38c0.54-2.17-1.39-1.75-38.12-7.34
		C189.08,15.21,241.11,22.35,324.47,34.7z M227.91,20.9c-1.02,0.06-1.99,0.07-2.94-0.24C225.97,20.59,226.96,20.55,227.91,20.9z
		 M219.18,19.51c2.03,0,5.48,0.83,1.51,0.5C220.18,20.01,219.78,19.61,219.18,19.51C212.17,19.51,217.5,18.14,219.18,19.51z
		 M210.73,18.3c2.59,0,3.15-0.13,2.61,0.4C210.33,18.71,210.73,18.58,210.73,18.3z M208.52,17.9c-0.8,0-1.71,0-2.72,0
		C206.81,17.1,207.61,17.7,208.52,17.9z M204.9,19.51c121.84,19.69,114.13,12.1,66.58,22.53c-7,1.53-2.67,4.17-68.59-6.24
		c-0.6-3.42-0.5-13.48,0.1-16.19C203.59,19.61,204.29,19.41,204.9,19.51z M96.38,43.55c-1.41-4.53-1.02-5.26,3.32-6.74
		c2.68-0.91,3.37-1.42,5.43-1.71c1.01,2.21,1.91,4.32,2.61,7.04C103.66,42.66,97.3,45.38,96.38,43.55z M148.07,197.62
		c3.58,0,4.01,1.22,1.71-2.51c-8.77-14.25-2.2-24.6-4.02-29.47c-1.55,1.65-2.4,7.67-2.82,9.45c-1.81-0.91-3.24-2-4.22-3.62
		c-6.03-9.9-8.47-13.18-9.05-17.4c-0.51-2.55-1.66-0.48-2.01-5.13c-0.3-4-0.88-14.48-1.01-14.78c-1.59-3.99,1.67-5.46-1.51-8.15
		c-4.27-3.61-4-6.24-7.84-15.99c-7.23-18.34,4.25-50.51-10.56-76.43c0.5-1.51,1.71-1.01,2.61-1.61c0.5-0.7,1.11-1.51,1.81-2.51
		c3.45,1.38,3.19-2.24,4.63-0.8c0.64,2.13,0.84,4.58,2.51,3.32c-0.46-4.55-1.63-3.71,8.45-5.93c1-0.22,1.9,0.21,2.51,1.01
		c1.11,1.45,3.26,2.67,4.12,1.81c2.64-3.17-12.92-0.36,28.46-6.54c105.51-15.74-23.58,5.8-26.15,6.44
		c-2,20.01,2.13,17.83-6.84,15.59c-0.93-13.06,0.88-9.76-0.5-15.99c-9.68,5.92-1.76,12.35-0.7,17c0.2,0.7,1.31,1.31,2.11,2.11
		c-0.6,1.51-1.31,3.02-3.02,3.82c0.9,12.21,0.71,21.54,4.53,31.78c1.25,2.81,1.49,1.4,3.62,4.73c4.25,6.63,10.26,21.62,8.55,30.17
		c-1.11-0.7-2.21-1.31-3.52-2.21c-0.1,0.91-0.29,1.5-0.1,1.91c1.2,2.51,2.73,5.48,5.03,4.32c10.72,10.39,15.72,13.62,20.31,26.05
		c2.91,5.82-2.49,2.89-4.63,4.53c3.15,3.15,12.17,2.26,19.01,11.26c4.56,6.01,3.82,1.75,3.82,9.65c-1.91-1.31-3.32,0.8-5.23,0.2
		c0.1,0.6,0.2,1.01,0.3,1.61c-6.03,5.73-11.81,10.38-16.19,17.5c-8.65,14.06-6.31,19.81-10.06,25.95
		C150.19,215.11,148.28,205.26,148.07,197.62z M125.95,37.51c-1.31-2.41-0.91-3.82,0.4-5.83C126.55,33.69,126.55,35.2,125.95,37.51z
		 M198.46,310.15c-2.01,0-3.82,0-5.93,0c-0.2-1.11-0.91-2.41-0.3-4.02c1.74,5.21,2.23,0.79,2.61,0.4c0.87,0.87,0,2.25,1.71,2.61
		c0.1-1.01,0.3-2.01,0.4-2.92C199,304.95,198.46,307.46,198.46,310.15z M212.54,306.73c-0.3-0.3-0.22-0.28,0-0.5
		C212.54,306.38,212.76,306.51,212.54,306.73z M214.15,306.63c0-3.87-0.32-3.98,2.11-4.12
		C216.56,305.73,216.56,305.73,214.15,306.63z M224.71,290.54c-3.29,8.05-1.6,7.13-4.32,8.25c-9.94,4.06-40.58,10.1-57.42-6.74
		c0.78-5.97,0.94-6.89,1.21-13.48c0.54-13.17,3.22,0.01,1.31-22.93c5.03-2.52-1.1-2.19-11.57-30.17c-1.83-4.9-1.48-3.85,0.6-5.93
		c2.5-10.7,7.08-23.55,14.38-31.78c1.59-1.8,7.7-8.58,9.88-9.66c-1.8,4.57-4.42,9.06-4.34,16.7c0.03,2.54,0.01,1.93,3.02,3.62
		c2.89,1.63,5.84-1.39,7.54-4.22c12.7-21.17,5.53-9.35,4.02,2.11c-1.66,12.62,0.9,24.1,14.68,40.03
		c6.54,7.55,13.14,9.08,15.49,10.26c0,0.91,0,1.91,0,3.12c1.81-0.2,2.11-1.81,3.22-2.82c6.53-0.57,17.53-12.34,22.23-21.72
		c1.86,6.05-0.43,7.38-2.92,19.31c-0.2,1.31-0.8,2.21-1.91,2.82C237.99,268.52,229.33,279.22,224.71,290.54z M233.76,320.01
		c-7.55-7.03-9.34-8.97-8.15-11.87c0.87-2.11,1.45-7.72,0.2-9.96c-2.29-4.1,8.58-18.94,11.36-29.16
		C237.48,272.14,234.66,314.27,233.76,320.01z M244.62,411.42c-2.03-1.22-2.31-1.22-2.31-3.82c0-35.8-1.96-30.7-1.11-35.6
		c1.85-10.58-0.74-16.44-4.22-27.86c2.51-2.8,1.71-1.62,1.71-11.06c0-4.99,2.01-4.93-0.1-7.74c-3.99-5.32-3.44,4.15,0.8-54.71
		c0.76-10.6,0.47-10.75,1.81-20.11c0.01-0.03,4.74-8.17,6.74-18.4c1.12-5.75-0.31-6.92-2.61-21.22c-0.67-4.14,1.8-0.92,9.96-9.96
		c2-1.82,4.39-3.85,8.85-7.04c0.55,1.64-14.5,218.07-14.78,219.74C248.55,413.78,248.41,413.69,244.62,411.42z M251.66,415.14
		c0-0.1,14.04-229.11,17.6-230c2.74-0.68,2.88-6.12,4.73-6.74c0.01,0.1-11.2,218.6-14.38,221.15c-3.44,3.07-2.66,4.63-3.72,17.7
		C253.97,417.05,253.97,417.05,251.66,415.14z M258.5,419.37c1.49-19.84-0.92-8.72,8.85-11.16c1.2-0.2,2.76-1.62,1.91-3.52
		c-1.41-0.4,0.5,4.68-10.06-0.6c0.6-1.41,1.71-0.2,3.12-0.91c2.43-3.65,4.62-3.55,7.44-2.11c2.64,1.34,1.01,9.58,1.01,19.11
		C267.35,422.69,260.59,421.73,258.5,419.37z M265.44,424.09c7.44-2.23,4.91-1.48,5.43,4.02
		C268.96,426.71,267.45,425.6,265.44,424.09z M269.16,440.59c1.84-1.84,0.05,13.83-7.84,5.93
		C264.03,444.31,266.34,442.1,269.16,440.59z M259.5,467.64c0-1.66,0.91-16.68,1.01-17.4c9.18,2.5,6.34-0.34,6.34,15.49
		c0,16.32,0.17,14.35-2.01,13.48C256.32,474.72,259.5,477.12,259.5,467.64z M242.61,553.62c-0.39-3.55,6.23-97.95,6.24-98.05
		c2.21-2.31,6.24-5.03,9.15-6.44c0.75,1.51,0.53-0.67-1.21,27.35C251.56,560.72,257.06,547.02,242.61,553.62z M337.54,522.55
		c16.76,8.9,14.33,8.08,14.98,8.95c-2.69,3.31-7.1,2.57-8.75,4.83c-0.51,0.7-0.5,1.31,0.5,1.91c3.22-1.41,6.54-2.72,10.06-4.22
		c0.67,1.24,1.56,7.97,1.61,8.35c-4.73,3.52-9.55,6.84-14.38,10.16c-0.11-0.06-82.12-45.97-84.18-48.88
		c-0.05-1.31-0.3-8.65,1.01-8.65c0.21,0,73.27,41.16,81.96,46.06c0.53,3.98-0.56,3.23,0.6,6.74c0.4,1.2,2.15,0.33,1.91-0.4
		c-0.4-2.51,0.2-5.13-1.11-7.64c-2.31-1.81-81.26-46.36-83.97-47.37c0-3.84,0.37-7.17,0.7-13.27c2.21,0.4,4.12,1.41,7.64,3.92
		c-0.75,2.99-0.16,3.34,2.31,4.83c1.18,0.71,43.01,25.86,48.78,29.06c6.46-2.87,4.91-2.96,8.25-1.11c1.17,5.83-2.9,3.2-1.21,9.45
		c1.06,3.91,6,3.17,8.15,2.92C338.01,527.52,335.25,521.33,337.54,522.55z M333.72,525.67c-3.72,1.41-4.83,1.31-7.14-0.91
		c1.37-2.46,35.19-408.61,35.2-408.71c0.66-12.01,2.91-3.57-29.67-12.87c-0.4-1.51-0.3-2.72,0.1-4.12
		c38.09,7.35,34.47,5.82,34.09,10.16C366.3,109.32,334.7,524.19,333.72,525.67z"/>
	<path d="M746.07,417.76C753.18,420.1,746.89,417.71,746.07,417.76L746.07,417.76z"/>
	<path d="M691.76,290.12C691.71,276.81,690.11,264.64,691.76,290.12L691.76,290.12z"/>
	<path d="M803.27,509.58c3.84-49.52,31.28-398.98,30.67-404.48c-15.4-4.2-36.1-5.2-36.1-9.15c-1.69-30.37,7.52-19.6-9.76-33.99
		c-5.18-4.32,3.73-0.22,4.12-5.73c0.1-1.44,0.61-16.61,1.31-21.52c-2.26-1.81-93.86-12.87-100.57-15.69
		c-1.27-0.53-2.22,0.64-0.7-1.81c2.39-0.75,1.11,2.12,5.83,1.01c0.93-0.22,1.26-1.46,0.6-2.11c-1.31-1.64-2.73-0.39-0.8-2.31
		c0.44-0.44,2.5-1.62,1.41-2.72c-1.19-1.19-1.36-0.51-4.27-0.12c1.15-2.38,0.96-4.95,1.06-7.42c-2.16-1.89-5.31,5.46-9.25,3.62
		c0.1-0.91,0.3-1.71,0.4-2.61c-1.81-1.41-3.12,0.7-4.63,0.5c-0.5-0.4-0.3-1.41-1.51-1.51c-5.82,3.33-0.32-0.84-3.72-1.61
		c-7.65,7.65-5.42,2.46-9.25,3.42c0-1.97-0.13-3.85-1.91-5.33c-2.47,2.47-1.16,1.51-8.05,5.73c-5.75,3.52-5.06,0.09-6.44,4.22
		c2.21,3.62,1.51,7.44,2.01,11.46c-3.75,0-2.46-1.32-2.11-9.25c-1.34-1.79-3.12-3.49-3.12-5.73c0-0.98-1.59-2.11-2.72-1.11
		c-3.38,3.38-0.05,5.91-4.22,3.82c-3.66,1.1,1.78,4.2-2.72,3.72c0.84,3.68,6.43,2.96,2.06,7.87c-0.51-1.86-1.71-0.23-40.78,5
		c-0.93,0.12-3.05,0.15-4.53,0.7c-1.13,0.32-2.11,1.78-2.11,0.6c-0.4-1.39,0.23-3.14-2.61-2.72c-15.85,2.37-13.56,4.97-16.69,3.82
		c-2.91-1.06-3.53,1.58-5.23,5.83c-4.77,1.3-6.32,0.83-8.45,4.73c-3.04,5.57,1.62,10.04,6.74,8.85c1.21-0.28,2.52-0.78,3.72-1.11
		c0.71-0.19,1.61-0.2,2.21-0.3c10.31,9.66-6.01,41.76-2.31,48.78c1.27,2.4-4.04,21.41,10.26,33.19c16.29,3.62,30.91-0.78,32.79-0.4
		c4.82,12.87,5.58,22.34,12.67,32.89c0.73,1.28,0.85,0.82,1.51,18.2c0.3,2.4-1.18,2.11-2.21,11.36c-0.94,8.39-3.75-1.03-6.13,13.27
		c1.21,2.31,3.02,3.92,5.73,5.33c-0.2-1.71-0.1-3.12-0.6-4.42c-0.54-0.54-0.82-1.75-0.1-2.01c6.43,5.82,5.98,5.32,12.97,9.45
		c0.66,3.6,0.34,3.12,0.91,3.12c0.82-3.27,0.07-2.74,3.32-1.81c0.5,2.92,0.5,2.92,1.81,3.52c0-1.52-0.03-2.13,0.1-3.02
		c10.59,1.65,8.65-1.8,10.56,5.83c-7.12,1.27-13.48-2.07-18.1-2.61c0.6,0.5,1.11,1.11,1.71,1.21c-0.56,2.07-2.23,8.75,0.4,8.75
		c1.61-2.31,1.11-5.53,2.61-8.15c3.22,0.7,6.44,1.41,9.86,2.11c-4.29,5.28-4.14,5.35-3.32,5.93c1.81-1.91,3.62-3.92,5.33-5.83
		c16.62-0.64,9.34-1.76,11.26-5.93c0.7-0.4,1.41-0.91,2.21-0.2c-0.33,1.65-0.08,1.43,0.5,2.01c0.91-0.5,0.3-1.81,1.51-1.81
		c1.11,0.5-0.1,2.11,1.21,2.51c1.41-1.01,1.01-2.61,1.61-3.92c1.51-0.5,3.02-1.11,4.73-0.8c0.2-0.1,0.2-0.3,0.4-0.4
		c0.56,0,0.75,0.4-0.4,0.4c-1.63,6.11-1.35,5.48,3.42,3.82c1.11-0.39,2.51,0.1,3.32-1.21c2.51,0.13,1.71-2.26,1.71-4.02
		c0.28-1.65-0.01-1.62,2.41-2.31c1.38,4.93,0.31,20.8,3.62,15.29c11.69,15.71,8.76,10.12,9.15,19.21
		c1.05,24.36,4.63,2.19,4.63,76.63c-3.02,2.31-7.04,1.81-9.76,4.53c-4.84-24.22,1.93-21.68,0.6-24.34c-0.8,0.4-1.51,0.91-2.51,1.41
		c-0.32-4.52-0.58-8.35-0.79-11.58c0.02,7-0.39,14.3-1.92,16.61c-1.81,2.72-3.27,5.66-4.93,8.55c-0.29,0.51-0.3,1.31-0.5,2.72
		c2.65-2.38,3.97-7.09,6.94-10.46c0.89,2.51,1.16,9.03,2.01,16.19c0.59,5.01-5.79,8.52-10.46,10.46c-2.87,1.19-3.34,1.53-3.37,1.61
		c-0.01,0-0.03,0-0.05,0c-5.17-3.37-19.1-3.59-25.24-10.96c2.1-0.95,2.09,0.2,8.05,0.2c-10.82-2.16-9.62-0.58-7.94-3.92
		c-5.3-27.14-4.72-22.43-0.5-22.43c-0.2-2.31-2.55-2.2-3.22-3.62c-5.05-10.76-5.33-8.6,5.03-3.52c11.45,5.61,13.26,8.75,17.4,10.56
		c1.48,0.65,3.1-1.33,2.01-2.82c-3.89-5.31-26.73-15.88-29.16-14.18c0,1.23-3.29-5.01-6.44-7.34c-12.93,0-11.1,13.93-4.12,9.65
		c0.81-0.5,0.91-1.91,0.1-2.41c-0.8-0.5-1.61-0.8-2.51-1.31c0.7-3.12,2.82-4.22,5.73-4.73c11.09,15.85,8.07,12.27,10.56,33.39
		c0.11,0.9-0.5,1.51-1.61,1.61c-2.41-2.92-2.41-6.74-3.62-10.76c-0.2,4.22,0.8,7.54,1.81,10.96c-3.62,1.01-7.27,1.33-10.66,2.82
		c-2.57,1.13-3.73,0.08-14.88-6.13c-5.72-3.18-5.34-3.4-5.33-4.53c0.1-11.04-3.02-17.33-2.21-27.05c7.57-6.06,13.15-3.71,19.21-5.23
		c0-3.05-11.82-2.94-18.1,1.91c-1.53,1.18-1.08,2.61-4.53-15.29c1.21-0.2,1.41,1.41,2.82,0.91c-0.3-2.72-2.01-4.32-4.12-5.33
		c-1.21-2.82-1.51-5.73-3.32-8.05c-1.06-1.06,0.39-12.45,3.62-23.13c1.11-3.67,1.89-3.69,3.82-6.84c1.16-1.16,0.36-1.63,1.33-2.07
		c1.54-4.67,6.7-11.41,4.3-12.21c-0.85-0.42-1.64,0.97-2.31,2.11c-11.76,20.09-8.72,13.53-11.77,27.86
		c-2.44,11.47-3.22,14.16-0.5,16.59c4.43,3.54,9.55,56.31,9.55,56.42c0,1.42,6.03,3.6,6.03,5.63c-10.18,2.96-11.59,3.28-13.17,5.13
		c-4.44,5.19-13.14,12.36-17.6,22.73c-0.08,0.19-7.3,15.03-12.17,18.2c-5.58-3.1-2.19,1.81-6.13,0.7c-1.73-0.48-3.22-1.91-3.22-1.91
		c-8.76-2.42-12.3-4.09-16.29-0.1c-4.94,4.94-6.28,9.29-6.44,14.68c-2.51,2.51-8.05,13.94-8.45,14.78
		c-6.35,13.33-5.58,18.56-1.11,33.39c0.98,3.25,1.61,4.31,5.73,4.63c5.85,0.81,5.59,0.79,21.12-16.49c3.14-3.49-0.2-0.67,4.53-7.04
		c5.48-7.38,4.09-4.78,3.82-7.44c12.01-9.01,11.06-5.88,11.06-13.38c17.83-17.83,5.43-8.55,20.92-18.4
		c12.53-7.97,7.51-7.85,19.41-0.91c4.09,2.38,8.07,1.83,0.1-2.51c-2.43-9.32-3.19-8.97,8.55-2.72c0.85-0.73,0.57-0.75-5.73-4.12
		c-3.96-2.12-5.29-0.42,7.04-7.54c3.3-1.9,4.51-4.35,6.44-7.24c2.22-3.33,12.69-8.16,15.29-10.76c4.7,5.22,4.19,3.64,5.53,5.43
		c-5.74,1.32-6.11,0.69-9.65,3.32c-9.06,6.7-10.41,14.07-16.59,21.22c-0.2,0.2-0.53,2.48-1.81,3.32
		c-2.45,1.61-3.34,4.04-11.77,13.98c-4.58,5.4-3.75,4.04-6.84,3.12c-16.47,5.07-17.84,1.36-21.22,2.31
		c-5.92,1.68-10.33,3.75-10.46,10.56c-0.35,18.85,0.98,5.01,3.42,16.49c0.6,2.83-3.52,4.93-3.52,8.75c-4.8,4.8-7.31,4.07-8.95,20.21
		c-0.47,4.62,1.41,12.21,7.24,19.31c6.94,1.74,3.7,1.42,9.25,1.71c1.9,0.1,6.37-2.41,6.54-4.93c0.39-2.33,18.12-23.69,17.4-29.67
		c10.51-11.22,9.25-10.75,9.25-16.59c22.15-22.15-6.72,2.73,25.75-24.64c3.91-5.86,18.45,12.65,26.85,3.32
		c0.4-0.5,0.5-1.01-0.3-1.51c-6.15,1.54-6.99,2.64-21.12-4.42c5.17-4.26,3.55,1.26,6.03,1.51c-1.65-5.76-1.9-3.39,2.31-5.33
		c2.25-1.04,2.69-0.52,7.64,0.3c-0.5-1.41-2.01-1.11-2.51-2.21c19.18-9.59,10.07-8.15,19.81-16.59c2.38-2.38,3.56-0.31,6.64-3.52
		c0.86-0.9,4.32-4.47,4.63-6.94c1.44-20.88,1.07-17.18,1.51-18.5c2.58-2.38,6.05-0.85,9.76-3.32c2.44-2.88-3.46-6.38,3.72-1.91
		c17.21,10.72,24.86,13.03,22.02,22.02c-1.46,1.15-20.58,15.41-22.23,14.18c0.77-8.06-2.3-5.26,5.33-9.55
		c2.03-1.35,0.46,2.24,1.41,3.82c2.3-7.67-0.42-2.69,11.77-14.38c0.31-0.3,0.8-0.6,0.1-1.41c-6.91,4.32,2.82-0.17-19.31,14.58
		c0,2.82,0,5.63,0,8.35c-1.41,1.11-2.51,2.01-4.22,2.31c-1.25-3.76,1.26-11.36-2.21-6.84c-5.39,7-18.11,8.48-25.85,15.39
		c-2.33,2.08-3.7,1.85-9.25,3.02c0.2,0.4,0.4,0.91,0.6,0.91c10.4,0.89,7.08-3.85,18.1-7.74c0,5.65-1.1,4.59-0.01,6.36
		c-1.33,2.65-9.05,7.85-11.76,9.13c-1.59,0.76-0.99,2.6,0.7,2.31c3.98,0,9.54-6.53,19.61-12.57c0,8.6-9.7,151.28-10.66,159.9
		c-55.67-27.29-38.09-22.23-46.86-20.82c-4.52,0.73-8.95,1.91-13.27,3.42c-1.81,2.92-6.13,13.58-6.54,16.39
		c0.1,0.06,131.52,77.22,124,69.69c-5.3-4.12-120.43-69.01-121.59-71c5.09-15.26,5.29-12.95,7.54-11.77
		c56.89,29.83,57.11,32.13,57.73,28.76c0.65-2.58,11.93-172.79,12.37-175.89c21.73-14.71,21.25-15.73,20.82-10.86
		c-19.2,214.94-13.49,197.91-14.48,201.54c2.6,1.73,65.06,39.15,65.17,39.22c1.39,0.85,2.72-0.38,0.91-1.71
		c-0.5-0.37-49.86-29.94-52.4-31.48c-14.17-8.62-15.81-6.62,1.01-14.38c14.16,7.86,71.36,43.48,73.11,43.34
		c1.16-3.2-29.07-17.62-72.21-45.36c1.44-17.29,1.49-39.9,3.12-41.23c69.45,37.88,82.17,48.85,85.18,46.97
		c17.26-12.95,17.11-7.3,13.17-23.83C799.01,518.08,802.16,523.87,803.27,509.58z M694.66,11.06c0.13,0,0.14-0.04-0.1,0.2
		C694.66,11.16,694.66,11.06,694.66,11.06z M622.05,202.74c0,0.4-0.5,1.14-0.5,0.5c0-0.3,0.1-0.6,0.1-1.01
		C621.85,202.54,622.15,202.64,622.05,202.74z M624.35,204.16c-0.02,0.53-0.09,1.1-0.09,1.9
		C623.61,205.13,623.91,204.64,624.35,204.16z M613.8,354.7c-0.18-0.35-0.52-0.6,0-0.6C614.35,354.65,614.3,354.2,613.8,354.7z
		 M616.12,356.21c-0.91-4.02-0.7-4.42,2.21-5.23C619.09,360.06,620.87,358.33,616.12,356.21z M641.86,331.17
		c-0.64-0.56,0.65-3.51,1.11-5.33c0.23-1.41-1.51-1.42-1.51-0.8c-0.72,3.33-3.32,6.87-4.22,8.45c-4.83,7.44-6.1,9.65-20.01,14.88
		c-15.36,5.78-6.77,5.65-8.95,6.74c-13.78,9.54-22.93,13.21-25.54,18.3c-2.59,5.05-5.64,5.49-5.23,8.15
		c2.33,0.33,0.49,3.95-0.8,5.13c-3.79,3.47-3.43,2.02-9.15,6.44c-2.45,1.89-0.52,1.53-7.94,8.95c-1.47,1.47-0.49-4.78-4.63-11.16
		c-1.92,0-0.91,1.37,0.3,5.53c2.52,8.67-0.64,9.73,1.91,11.77c-1.53,1.84-0.98,2.64-2.61,1.01c-11.25,15.98-6.67,13.71-16.19,13.27
		c-5.4-7.33-6.53-16.74-4.22-25.54c1.38-5.25,4.61-12.41,5.13-12.67c2.32-1.16,1.88-3.62,4.32-7.14c5.06-7.26-0.62-6.72,9.45-19.31
		c3.32-0.2,6.03,0.1,8.75,1.21c0.79,6.31,4.5,8.65,1.01,14.58c-6.5,11.03,8.07-0.99,2.01-9.65c-0.48-0.56-1.51-2.27-1.51-3.02
		c4.1,0,3.84,2.05,10.26,0.4c3.08,1.44,2.31,4.75,2.31,10.06c-2.49,2.99-6.8,10.82-4.32,12.37c0.7,0.5,1.71,0.6,2.31,0
		c1.38-1.2,1.76-0.05,3.62-1.91c-2.11-0.4-2.11-0.4-4.53,0.3c-1.33-3.48,2.38-7.73,4.42-10.56c0.59-4.16-0.28-7.66,1.41,5.03
		c2.31-2.11,2.72-5.73,1.51-11.97c0.6-2.01,2.82-2.21,4.12-3.62c-1.21-0.3-2.92,0.1-5.93,1.51c-0.3-0.3-0.7-0.7-1.01-1.01
		c0.3-0.5,0.3-0.8,0.5-0.91c4.62-3.16,2.38-5,14.98-22.12c5.4-7.34,3.5-7.14,4.53-7.14c2.21,0,2.82-1.91,3.92-3.12
		c9.44-10.34,3.58-7.3,20.42-13.38c0.94,0.68,4.66,2.13,2.72,2.72c-12.42,4.52-11.13,6.91-9.45,6.03
		c1.83-0.95,11.62-6.29,13.17-4.73c2.94,2.23,8.27,1.39,8.45,1.21c3.72-2.11,6.66-0.96,12.87-2.51c1.01,1.51,1.01,3.52,2.11,5.13
		C649.1,326.44,644.88,328.15,641.86,331.17z M615.81,413.63c-12.78,12.28-3.59,5.03-8.75,13.27c-17.6,24.64-16.5,25.63-19.81,26.15
		c-2.1,0.33-6.45,0.01-7.54-1.81c-6.87-9.61-6.97-9.83-6.84-12.47c0.3-5.93,0.8-11.97,2.51-18.1c2.21-1.81,4.63-3.82,6.94-5.83
		c0-4.82,2.93-4.06,2.51-8.85c-0.37-2.19,1.97,0.25-1.71-5.93c-4.77-8.01-0.62-21.32,9.65-19.61c1.92,0.21,4.73,6.78,5.23,8.05
		c3.16,7.98-0.74,23.67-1.31,26.15c9.17-4.89,3.19-23.95,3.42-25.54c0.12-0.61-1.42-2.35-4.02-6.84
		c10.41-0.59,23.6-11.16,13.38,11.57c6.3,13.78,6.67,14.23,8.65,15.49C617.83,411.12,617.1,412.4,615.81,413.63z M618.33,400.76
		c-1.97,3.29-0.91,3.95-4.22-1.51c-2.17-3.58-3.86-5.47,0.3-12.27C617.87,390.76,620.96,396.36,618.33,400.76z M694.76,333.78
		c-1.35,10.44-1.15,11.22-5.83,15.19c-1.97,1.67-5.3,2.73-6.24,5.43c-0.48,1.39-12.09,14.27-22.83,16.29
		c-1.1,0.21-2.11,1.01-3.22,1.41c-0.4,0.2-1.01-0.1-1.81-0.1c-1.24,2.72-17.18,7.28-21.62,14.68c-1.66,2.22,2.95-1.93-10.06,9.86
		c-1.42-4.26-2.24-7.3-5.33-10.56c-6.82-7.19,1.66-5.35,16.69-29.47c8.32-13.35,10.95-19.2,25.64-22.23
		c1.31-0.27,2.51-0.1,3.62,1.11c-3.62,1.91-7.84,3.12-9.96,7.34c0.6,0.1,0.91,0.2,1.01,0.1c3.22-2.82,7.24-4.22,11.06-6.74
		c6.16,1.95,7.47,2.29,13.68,3.62c2.9-0.79,7.62-3.78,7.84-4.12c1.74-2.69,4.73-3.82,6.74-6.13c0.1-0.2,0.4-0.1,0.7-0.2
		C695.16,330.77,694.96,332.27,694.76,333.78z M684.1,542.46c-0.2,0.91-0.7,1.41-1.51,1.81c-3.32-1.41-51.59-27.86-53.8-29.47
		c0.8-1.1,0.86-1.01,11.46-3.02c3.07-0.58,0.64-1.25,43.04,20.62C684.78,533.29,685.76,532.52,684.1,542.46z M704.01,362.04
		c-20.61,13.74-16.75,11.24-15.09,2.82c11.45-5.73,7.34-3.72,15.19-9.15C704.21,357.82,704.11,359.93,704.01,362.04z M797.34,100.47
		c37.57,7.31,34.37,5.58,33.99,10.46c-0.01,0.11-31.65,414.86-32.28,416.05c-2.41,1.21-4.83,1.61-7.04-0.6
		c1.89-8.19,36.08-413.66,34.8-415.75c-0.46-0.15-21.92-4.1-29.67-6.03C796.84,103.18,796.74,101.88,797.34,100.47z M778.83,482.52
		c1.3,0.62,2.51,1.51,4.22,0.7c0.36,3.6-1.55,23.91-0.8,26.65c2.2,10.47-5.37,2.28-46.16-21.52c-2.98-1.74-2.11,3.96-1.61-51.39
		c0.02-1.79-3.56-3.2,49.68,22.12c0.2,7.64-0.7,15.19-0.91,22.73c-3.76-0.21-36.01-18.1-39.22-18.3
		C743.6,465.69,740.11,464,778.83,482.52z M737,345.15c-1.48-5.17,2.22-6.72,0.3-10.56c-0.3-0.61-1.1-24.24-1.11-24.34
		c-0.84-22.6-4.56,46.22,5.23-128.83c1.57-28.06-2.34-22.93,22.02-31.58c0,7.66-11.77,189.11-11.77,203.55
		c-15.48,5.05-13.39,3.98-13.78,8.95c-4.3,55.52-5.24,52.04-1.11,54c10.44,4.97,9.64,2.03,8.85,10.76
		c-1.95,1.51-6.41,2.92-12.37,5.63c-0.89,3.12-1.41,47.87-1.41,47.97c-0.94,0.71-0.92,0.27-7.44-3.32
		c-0.22-1.99,3.92-72.41,3.92-72.51c3.46-55.24,1.81-47.24,5.73-50.28C737.26,352.14,738.03,348.76,737,345.15z M687.72,130.24
		c1.01,0.51,1.29,2.11,2.61,3.62c3.33,3.8,0.11,9.16,0.6,11.97c4.51-5.76-1.6-11.89,8.65-1.11c-2.21,2.92-6.44,6.34-11.16,9.05
		c-3.21-3.86-1.95,1.14-5.43,0.7c-29.4-15.06-21.32-67.95-1.61-74.62c6.66-2.25,19.51,5.3,23.33,7.94
		c6.21,4.3,8.83,14.24,9.25,20.92c0.49,3.46,0.09,1.77,1.41,3.42c0.8-0.5,1.51-0.91,2.31-1.31c2.51,2.01,5.13,3.72,7.14,6.13
		c0,0.1-7.7,20.99-0.91,22.12c-2.12-10.58,0.69-16.14,3.02-20.11c1.79-3.06,6.92-11.51,9.76-14.18c3.56-3.36,3.18-9.52,5.63-13.58
		c2.52-4.16-2.59-24.03-3.62-28.76c-0.66-3.03,0.65-5.62,4.32-6.24c0,4.17-0.31,2.54,2.11,2.21c6.28-4.63,6.28-4.3,7.22-4.52
		c1.55,2.56,8.16-0.64-0.99,4.92c-1.91,1.16-0.91,2.02-0.1,1.61c9.79-3.92,9.23-4.91,10.86,0.4c-3.42,2.35-7.59,1.92-8.45,4.93
		c10.08-0.49,10.38-7.51,13.31,1.03c-1.65-0.9-3.19-0.66-4.76,0.38c-4.3,2.86-4.64,2.49-3.92,5.23c4.29,16.41-3.19,5.45-5.33,30.37
		c-2.11,24.59,2.22,17.38-2.51,34.6c-2.96,10.75-5.06,11.15-10.36,20.42c-6.63,1.14-7.55-1.41-21.72-5.53
		c-5.52-1.6-10.7-3.56-19.81-12.67c-12.47-12.47-11.29-17.74-12.07-11.16C686.19,131.15,684.6,132.11,687.72,130.24z M704.21,44.25
		c22.55,2.51,18.67,2.53,7.64,4.93c-0.83,3.74-0.4-2.9-0.4,21.62c0,2.91,3,2.03,4.63,3.42c0.29,1.32-0.9,14.68-0.91,14.78
		c-1.13,14.06,0.75,7.2-7.74-3.72c-4.95-6.37-13.24-7.92-21.12-9.35c0-1.71,0-3.12,0-4.83c2.99-0.15,5.37-1.11,5.43-4.12
		c0.23-10.92,2.83-14.98,4.02-19.51C697.09,42.44,693.25,43.03,704.21,44.25z M738,72.41c0.39,1.58,0.64,1.37,0,9.86
		c-1.51,19.96,0.56,18.35-11.36,31.98c-7.53-9.27-11.05-0.24-10.06-16.69c1.46-24.22,1.45-22.02,2.01-22.93
		C730.38,75.93,720.56,75.9,738,72.41z M736.19,64.56c-1.04-0.13-6-0.14-5.13-4.32c0.81-3.92,1.31-5.33,6.74-4.32
		C735.56,63.76,737.87,63,736.19,64.56z M740.72,87.29c0.52,0.9,0.2,2.11-1.01,2.61c-0.3-2.41,0-6.54,0.5-8.45
		C741.53,82.34,739.11,84.51,740.72,87.29z M744.74,53.8c1.81-1.61,1.81-1.61,4.53-1.91c0,0.2,0.1,0.5,0,0.6
		C747.38,53.76,744.74,55.82,744.74,53.8z M767.87,69.49c1.11,0.1,1.71-0.91,2.61-0.91c3.52,0.91,4.63,1.01,4.73,4.53
		c-1.71,1.01-2.51,3.52-5.33,3.12c-1.31-0.7-2.21-2.31-3.42-3.42c-0.8-0.1-0.7,0.6-1.21,0.91c-1.19,0.43-4.83,0.07-4.83-1.81
		c0-0.6,0.3-1.31,0.7-1.51c1.61-0.8,2.71-2.24,4.53-2.61C766.86,67.53,767.87,65.16,767.87,69.49z M737.4,160.1
		c3.77,0.4,3.12,0.17,3.12,2.41c-0.01,0.13-7.51,134.61-8.25,141.2c-11.78-0.44-8.61,16.68,2.11-142.3
		C734.38,158.97,735.73,159.93,737.4,160.1z M770.29,147.83c1.91-1.41,5.73-2.82,11.57-4.42c0,3.62-7.48,110.25-14.18,210.69
		c-11.64-5.17-9.93,3.05-6.03-56.02C761.73,296.73,771.24,149.38,770.29,147.83z M798.55,375.72c0.26-1.19,0.15-2.21,0.5-4.32
		c1.51-0.5,2.41,0.6,3.52,0.91c2.4,11.7-4.94,9.47-6.13,10.66c-0.37,0.37-0.45,1.41,0.1,1.41c3.75,0,2.44,0.26,5.03-0.6
		c0.47,0.47,0.6,0.58,0.6,0.7c-4.37,54.77-2.5,48.49-8.85,52.3c-0.91-0.61-0.87,2.61,1.91-40.13c0.66-10.15,1.08-11.32-1.61-12.47
		c-2.91-1.25,5.28,3.23-49.78-23.53c-2.99-1.46-5.4-1.24,7.34-4.83c0.61,2.03,0.76,5.04,4.22,4.83c3.76-0.23,2.54-3.9,4.02-7.84
		c38.41,20.95,32.28,8.75,32.28,22.43C791.71,379.62,797.58,380.21,798.55,375.72z M817.65,113.54c-0.44-3.94-3.38-3.25,7.14-1.31
		c0,5.58-21.27,256.72-21.52,257.86c-6.29-2.7-3.99,4.84,1.21-77.74C808.87,222.5,817.87,115.49,817.65,113.54z M744.84,417.36
		c-11.55-5.36-10.7,3.15-5.23-50.28c0.21-2.05,0.18-6.56,1.81-4.93c57.57,26.93,51.89,23.67,51.89,26.85
		c-2.17,36.82-0.94,34.85-5.83,32.48c-49.79-24.11-47.53-22.16-48.37-21.32c-0.3,0.4,0.09,1.13,1.01,1.61
		c66.43,35.04,47.77,15.78,50.38,34.09c0.4,2,2.29,2.4-2.51,0.4c-37.15-15.43-42.82-18.44-41.92-18.5
		C745.7,417.64,745.29,417.51,744.84,417.36z M785.17,438.07c-1.95-0.19-3.26-0.78-5.72-2.67
		C781.87,435.82,783.43,436.53,785.17,438.07z M779.12,435.26c-0.53,0-1.04-0.05-1.25-0.6
		C778.41,434.63,778.98,434.54,779.12,435.26z M777.69,434.55c-0.55,0-1.09-0.04-1.37-0.6
		C776.89,434.04,777.46,433.97,777.69,434.55z M749.27,433.85c2.79-0.38,3.12-3.01,3.12-5.93c0-5.01,4.86-1.18,32.28,12.67
		c0.58,2.08-0.14,6.34,0,8.35c0.27,3.86,5.74,4.61,6.64,0.5c1.41-6.47-0.85-5.03,5.33-2.72c0.1,0.91,0.1,1.81,0.2,2.61
		c-2.41,2.01-10.06,6.44-13.07,7.64c-2-0.92-43.91-20.67-47.87-22.93c2.36-1.68-1.44,0.08,8.45-4.22
		C745.48,430.08,745.26,434.4,749.27,433.85z M796.23,444.21c-1.21-0.6-2.51-1.21-3.62-1.81c-0.7-1.21-0.5-2.22,0.5-2.92
		c1.3-0.91,2.61-1.91,4.42-2.51C797.75,438.81,797.91,445.05,796.23,444.21z M770.69,355.91c-0.96-11.56,12.48-201.32,13.38-211.8
		c0-2.81,0.47-1.62,7.44-4.53c0,4.22,0.56-5.04-1.11,19.51C775.12,384.35,780.49,360.58,770.69,355.91z M786.48,458.09
		c3.02-1.91,6.24-3.72,10.16-5.93c-5.62,66.81-3.87,58.86-8.65,61.65C781.7,517.47,783.16,521.82,786.48,458.09z M801.97,107.91
		c0.63,0.11,9.32,1.65,10.66,2.51c-4.29,3.15,0.34-4.11-20.01,245.18c-0.98,12.04,4.57,11.55-12.07,4.73
		c-2.2-17.56,15.58-244.28,15.59-244.38C796.76,105.26,795.71,106.84,801.97,107.91z M795.83,71.4c1.32,0.66-2.18,61.65-2.51,65.07
		c-5.08,2.8-35.91,13.5-41.43,15.49c-3.89,1.4-3.59,0.8-3.22-0.3c3.17-5.89,7.23-19.77,6.54-25.04c-1.13-8.61,0.75-29.02,1.21-36.71
		c2.01-2.01,6.79-4.38,5.33-12.57c-1.26-7.07,8.37,8.01,14.28-0.7c10.13-14.94-21.49-9.04,2.92-14.78
		c4.93,3.62,9.35,7.74,14.18,11.26c2.97-0.91,0.11-2.42-10.86-11.26C782.77,59.27,783.68,61.08,795.83,71.4z M790.6,37.51
		c-0.56,24.19,1.26,18.97-7.94,21.62c-1.52,0.44,0.73-0.18-14.08,3.52c-5.25-3.75-4.05-1.9-5.43-5.13
		c-1.83-3.65-3.64-1.07-4.83-2.82c-1.49-2.19-3.7-1.52-5.63-1.19c1.32-1.95-0.35-4.16-2.51-3.94c-3.64,0.37-3.6,1.51-5.33,1.51
		c-0.94,0.19-2.55,1.69-2.82,1.91c-3.43,2.29-9.13-3.05-11.67,3.22c-1.93,4.78-1.08,11.24,3.72,10.76c0.91-0.09,1.91,0.2,2.92,0.3
		c1.16,3.88,2.86,2.71-10.46,6.24c-1.5-0.88-0.92-0.4-0.91-19.07c2.49-0.25,18.39-4.3,58.63-15.53c4.06-1.13,2.78-0.56,4.02-2.11
		c-3.56-1.02-57.77,15.06-62.65,17.38c0-0.1,0-0.18,0-0.28c-2.11-2.31-4.63-1.51-7.34-1.61c1.05,1.84-0.5,1.11,5.13,2.51
		c0.42,2.53,0.29,15.63,0.1,18.71c-3.52-0.3-6.64-1.21-9.65-2.11c-0.5-2.82-0.6-16.59-0.2-20.01c7.24-2.41,60.38-12.69,62.65-14.28
		c0.61-2.43-1.57-1.97-33.09-6.74C611.63,10.47,790.67,34.57,790.6,37.51z M769.88,36c-2.92,1.21-23.23,5.83-44.15,10.06
		c-4.22-1.3,1.72-0.35-23.03-3.92c-7.79-1.12-5.48,0.12-9.05-4.53c1.74-5.5,2.03-5.69,1.71-8.85
		C694.28,22.83,683.53,23.18,769.88,36z M691.74,8.35c0.35,0.35,0.18,0.13-0.1,0.4C691.44,8.55,691.29,8.8,691.74,8.35z
		 M688.42,20.82c0.78-0.99,1.77-1.48,2.85-1.88C691.64,20.39,689.92,20.82,688.42,20.82z M690.54,15.39
		c-0.6,0.89-1.23,0.36-2.01,0.1c0.86-0.69,0.98-1.32,1.91-0.7C690.54,14.88,690.64,15.29,690.54,15.39z M690.03,10.56
		c-0.7,1.61-1.81,1.11-3.12,1.01C687.82,10.36,688.73,10.06,690.03,10.56z M685.61,35c-0.13,0.38-0.07,0.4-0.2,0H685.61z
		 M685.11,41.23c0.7,0,0.5,0.4,0.4,0.4C683.99,42.14,684.29,42.05,685.11,41.23z M682.29,7.24c2.31-1.16,0.99,2.99-0.6,0.6
		C681.89,7.54,681.99,7.34,682.29,7.24z M681.79,45.05c0.88,0,0.68-0.27,1.21-0.8c1.5-0.5,0.92-0.67,1.51,0.8
		c-3.6,0-1.93,0.3-3.02,0.3C681.59,45.26,681.69,45.05,681.79,45.05z M681.79,53.7c-0.1-2.92,0.3-5.03,1.61-7.34
		C683.9,49.18,682.99,51.09,681.79,53.7z M680.18,49.88c-0.3,1.01-0.5,2.11-0.7,3.52C678.57,51.39,678.57,51.39,680.18,49.88z
		 M670.42,30.57c0.57,0,0.44,0.64,0.6,0.8c0.22,0.67,0,0.43,0,0C670.07,30.9,670.42,30.77,670.42,30.57z M671.73,48.47
		c1.11,0.5,1.31,1.31,0.91,2.51C672.33,50.18,672.03,49.28,671.73,48.47c-1.31-1.21-1.31-1.21-1.81-3.32
		C670.93,46.26,671.83,47.17,671.73,48.47z M671.43,54.81c-0.73,1.46-0.98-0.05-0.91-0.2c0-0.2,0.4-0.2,0.7-0.3
		C671.23,54.31,671.53,54.71,671.43,54.81z M669.92,12.87c-2.31,1.11-4.22,2.41-6.74,1.11C665.29,13.58,667.31,12.37,669.92,12.87z
		 M665.8,58.33c0.41,0,1.05,0.53,0.4,1.31C665.72,58.92,665.49,58.95,665.8,58.33z M665.19,37.51c0.1,0,0.3,0.1,0.5,0.1
		C665.48,37.61,665.57,37.89,665.19,37.51z M667.91,26.05c1.65,0,1.11,0.61,1.11,1.01C663.48,26.13,660.92,26.05,667.91,26.05z
		 M662.08,31.48c1.93,0.58,1.78,3.79,0.1,2.11c-0.4-0.4-0.7-1.11-1.11-1.71C661.57,31.78,661.87,31.48,662.08,31.48z M662.98,43.75
		c-1.41-1.51-1.41-1.51-1.91-4.12C662.38,41.23,662.38,41.23,662.98,43.75z M662.28,66.88c-0.1,0.1-0.1,0.2-0.1,0.3
		C662,67,661.95,67.2,662.28,66.88z M661.37,47.67c0.5,0.6,0.7,1.21,0,2.01C660.87,48.98,660.57,48.37,661.37,47.67z M660.27,16.09
		c0.66,0.66,0.31,0.5-0.3,1.11C659.64,16.55,659.4,16.95,660.27,16.09z M660.17,63.56c-0.1,0-0.2,0-0.3,0
		C659.86,60.82,660.66,61.59,660.17,63.56z M659.26,58.53c0.41,0.41,0.3,0.5,0,0.8C658.89,58.6,659.1,58.69,659.26,58.53z
		 M657.65,23.13c0.2,0,0.59,0.5,0.2,0.5C656.97,23.63,657.53,23.13,657.65,23.13z M657.25,53.9c0,0.37-0.2,0.71-0.2,0.1
		C657.05,53.9,657.15,53.9,657.25,53.9z M655.74,11.57c1.49-2.24,0.8,0.3,0.1,0.3C655.74,11.77,655.64,11.67,655.74,11.57z
		 M656.44,40.63c0-0.2,0-0.4,0.1-0.6C656.54,40.73,656.58,40.63,656.44,40.63z M653.02,31.68c0.04,0.3,0.37,3.81,0.4,4.02
		c0.7,0.91,0.5,1.91,0.5,3.52c-0.7-1.51-0.6-2.51-0.5-3.52C652.32,34.49,652.92,32.99,653.02,31.68z M646.49,28.96
		c-0.1-1.81-0.1-1.81,1.91-2.21C647.8,27.35,647.29,27.96,646.49,28.96z M646.59,62.45c-0.52-5.73-0.98-5.91,0.2-7.34
		C646.79,63.27,646.88,62.45,646.59,62.45z M645.68,23.94c0.85-1.27,0.78-0.91,2.72-0.91C648.21,23.18,646.09,25.16,645.68,23.94z
		 M646.59,14.18c0-0.8-0.1-1.61-0.1-2.51C647.19,12.47,647.8,13.17,646.59,14.18z M644.48,18.71c2.01,0.34,2,1.78,2.51-1.31
		c0.6,0,0.91,0.7,1.21,3.02C641.74,20.42,643.8,18.54,644.48,18.71z M645.18,30.27c-0.53-0.53-0.35-0.3,0-1.01
		C645.6,30.1,645.58,29.48,645.18,30.27z M642.77,22.23c1.97-0.44,1.49,2.48-0.7,2.01C642.36,23.43,642.57,22.73,642.77,22.23z
		 M642.67,46.36c-0.18-0.45-0.36-0.91-0.54-1.35C642.82,45.26,642.58,45.9,642.67,46.36z M642.26,40.73c0-0.53,0.2-0.11,0.2,0
		c-0.1,0.1-0.1,0.2-0.1,0.3C642.36,40.93,642.26,40.83,642.26,40.73z M641.93,44.64c-0.03-0.04-0.05-0.08-0.06-0.1
		C641.87,44.45,641.9,44.51,641.93,44.64z M644.68,66.88c0.62,2.11,0.6,2.11,2.72,3.42c-0.2,1.71,0.7,3.72-1.61,5.13
		c-7.74-3.32-5.23-1.63-1.31-2.41c0.65,0,1.06-0.9,0-1.61c-0.64-0.64-3.63,0.74-8.95-1.81c-5.57,3.13-13.51-4.39-22.93,8.95
		c-13.12,18.57,1,8.12-14.38,11.97c-0.5-7.27-4.35-7.95-6.64-24.54c-1.94-14.12,3.4-14.51,3.82-18.1c11.33,2.38-7.73,4.49,35-2.61
		c3.6-0.6,2.17-0.61,8.85-2.51C647,58.25,640.5,52.74,644.68,66.88z M640.86,21.11c0,0.22,0,0.39,0,0.61
		C640.54,21.41,640.66,21.48,640.86,21.11z M640.05,24.64c-3.22,5.53-1.91,10.86-0.91,16.49c-8.43,3.01-30.75,6.15-36.91,6.84
		c-0.7-2.92-0.5-12.07,0.3-16.39C603.02,31.44,639.95,24.64,640.05,24.64z M592.48,42.24c0.27-20.53-0.12-9.52,6.84-12.17
		c-1.48-2.97-7.1-1.45,36.61-7.64c0.2,0,0.4,0.2,0.91,0.4c-0.5,0.4-0.9,0.81-1.41,0.91c-50.29,9.32-30.05,1.57-35.9,22.63
		C591.42,45.15,592.44,45.16,592.48,42.24z M562.82,38.12c1.18-1.18,3.45-1.49,6.24-2.01c1.41,2.41,2.21,5.13,3.22,7.94
		C562.04,49.16,559.62,41.31,562.82,38.12z M587.35,125.31c-0.1,0.5-0.2,0.91-0.3,1.41c-2.01,0.1-4.05,0.12-5.53-1.81
		c-0.92-1.2-2.31-1.91-2.61-3.62c-0.33-1.32-2.8-2.09-3.22-4.63c1.51,0.6,2.72,1.21,4.02,1.61c0.34,0.17,1.37-0.54,0.6-1.31
		c-0.34-0.34-2.37-1.62-3.62-2.72c-0.4-0.3-0.6-0.71-1.01-1.01c-0.7-0.51-1.41-0.91-2.21-1.41c0-0.5,0.1-1.21,0-1.81
		c0.3-0.3,1.01-0.5,0.91-0.8c0.2-1.51-0.4-2.72-2.01-3.42c0.2-1.61,0.51-3.22-0.2-4.83c-0.54-1.22,0.18-6.77-0.6-9.76
		c-0.56-2.15,5.25-9.85,6.24-32.68c0.37-8.48-3.24-17.68-4.53-19.01c-1.63-1.69-2.11-3.82-2.21-6.24c0.7-0.3,1.51-0.6,2.11-0.8
		c2.55-3.28,0.99-2.56,3.72-2.01c3.71-2.78,2.24-3.03,3.82,1.51c0.21,0.6,0.7,0.8,1.61,0.4c-0.1-1.01-0.2-2.21-0.3-3.42
		c1.9-1.32,7.11-2.41,9.76-2.41c-1.11,4.02-0.8,8.05-1.01,12.27c-3.05-1.83-1.65-4.69-0.3-8.05c-2.31-3.24-5.96,8.97,0.3,10.76
		c1.66,8.71,6.8,2.12-0.7,10.46c1.25,6.24-2.12,0.16,1.11,21.02c2.86,18.49,6.47,18.57,1.71,23.33c-3.05,3.05-3.55,5.22-3.92,7.44
		c1.44-0.96,1.48-3.73,9.65-9.25c6.65-4.5,7.65,2.58,9.25-2.21c1.41-4.22,4.11-7.65,6.34-11.36c5.25-8.77,14.12-7.84,23.83-7.84
		c1.44,0,1.09,0.18,1.61,3.32c-15.99,10.66-16.99,13.55-28.56,38.62c0.5,2.92,1.01,6.03,1.61,9.35
		C605.31,128.83,592.05,125.67,587.35,125.31z M656.44,219.94c-0.1-1.41-0.3-2.72-0.6-4.22c1.31,0.7,0.5,2.41,1.91,2.51
		c1.38-2.3,1.16-2.2,2.21,0.6c1.3-0.47,0.62-1.35,1.11-2.82c0.37-0.73,1.31-0.23,1.31,0C663.21,221.87,662.78,219.08,656.44,219.94z
		 M676.96,216.22c-0.26-0.77-0.32-0.69,0.1-1.11C677.06,215.62,677.06,215.92,676.96,216.22z M678.67,216.02
		c-1.05-2.1,0.1-4.96,1.91-3.92C680.88,215.21,680.88,215.21,678.67,216.02z M686.31,207.67c-0.4,0.4-36.66,13.95-59.03-5.93
		c0-3.41-0.51,1.85,1.31-17.3c0.43-4.56,2.12-2.91,1.71-9.96c-0.62-10.57-0.75-9.47,1.01-10.06c0-3.18-21.76-40.09-17.7-50.28
		c1.94-4.87,5.44-13.61,8.85-17.6c12.43-14.56,22.35-20.55,19.91-16.9c-0.78,1.56-2.29,3.19-1.41,5.53
		c0.68,1.81-2.48,6.88,3.42,11.36c1.53,1.16,4.17,1.06,2.41-0.7c-1.31-1.74-4.12-3.46-4.02-7.94c0.05-2.34-1.76-7.29,5.03-11.06
		c0.91,0.6,0.7,1.51,0.2,2.11c-1.41,1.91-1.01,4.02-0.91,6.13c0.25,1.23,1.6,0.84,1.81,0.2c3.17-15.83-2.14-12.38,4.32-16.49
		c1.61,1.61-0.4,3.92,1.11,5.73c1.71-1.71,1.71-3.82,2.01-5.83c1.79-0.28,1.57,2.16,3.22,1.61c0.4-0.1,0.8-0.4,1.01-0.3
		c1.61,1.11,2.92-0.4,4.32-0.6c0.2,0,0.5-0.1,0.6-0.3c0.7-1.71,2.61-2.21,3.62-3.62c1.53,0.76,0.62,0.88,2.82-1.01
		c3.87,0,0.08-1.84,1.11-3.02c0.54-1.09-1.66-2.62,2.11-4.42c0.3-1.21-0.4-2.82,1.01-3.82c4.76,6.12,4.49,5.71,5.33,5.43
		c2.37,0,6.29-17.6,6.34-17.7c1.79-4.32,0.68-6.94,0.91-8.75c0.23-4.42,1.07-3.68,3.22-7.54c2.27,6.48,2.36,4.46,0.4,11.16
		c-0.93,3.19,0.96,2.63,1.41,7.44c0.66,7.15-2.5,6.17-4.43,24.94c-0.91,0.7-2.01,0.6-3.22,0.5c-0.4-2.61-0.7-4.93-1.11-7.34
		c-3.84,0.38,2.66,16.01-4.63,16.09c-8.21,0.09-13.24,5.09-21.62,11.16c-0.45,0.32-9.03,6.51-9.35,6.94
		c-0.66,0.98,0.2,1.84,1.11,1.61c1.14-0.19,2-0.99,6.54-4.12c5.82-4.02,1.86-0.9,5.93-3.62c4.47-3.57,13.91-10.73,10.46-6.13
		c-11.12,11.45-13.67,26.88-11.77,42.04c0.61,4.83,3.17,8.45,3.72,10.16c8.31,25.51,18.77,15.38,18,23.83
		c2.01,0,2.21-1.91,3.52-2.82c2.21-0.1,4.22-1.42,6.03-2.92c10.43-8.6,7.05-7.84,13.27-2.72c0.34,1.07-0.2,4.86-1.31,5.23
		c-1.86,1.16,0.26,2.23-3.72,14.88c-1.96,6.22-1.15,7.72-4.22,13.38C687.2,202.31,689.16,200.22,686.31,207.67z M701.5,253.93
		c2.53-2.67,1.93-5.45,1.51-11.46c-0.57-8.23,6.44-1.18-8.95-16.9c-2.77-2.83-5.53-5.58-4.32-7.54c1.28-2.08,1.73-8.77,0.2-10.86
		c-2.21-2.58,9.78-20.95,11.06-27.45c0.02-0.11,5.06-23.46,7.94-26.35c2.74,0.75,4.48-7.18-4.73,99.96
		C703.59,260.58,703.73,261.52,701.5,253.93z M719.4,322.52c-1.24,0.25,0.28,1.12-12.47-6.94c0-0.1-0.2-14.65-0.7-17.6
		c-4-23.6,6.72-144.82,6.74-144.92c6.54,2.41,12.87,4.73,19.31,7.14c0,6.55-9.54,142.07-9.55,142.2
		C722.16,310.59,721.41,297.92,719.4,322.52z M722.82,312.56c13.26,4.82,10.16-4.93,9.15-1.91c-0.96,3.82-11.64-1.91-8.75-1.91
		c2.11-0.3,1.98,0.97,3.52-1.41c2.46-3.79,6.41-0.67,7.74,0c0,6.34,0,12.27,0,18.1c-2.9,2.56-9.74,1.99-12.37-0.5
		C721.84,322.15,722.43,320.82,722.82,312.56z M728.95,329.26c5.27-1.39,5.91-2.65,5.33,3.92
		C732.57,331.87,730.96,330.67,728.95,329.26z M732.27,345.95c0.3-0.1,0.8-0.1,1.61-0.2c-0.79,8.66-4.66,9.52-8.65,6.34
		C726.24,350.68,730.56,346.86,732.27,345.95z M708.84,555.03c-1.55-0.7,11.79-201.07,13.48-200.23c6.99,2.54,7.21,1.98,6.84,5.33
		C716.33,581.36,721.19,545.65,708.84,555.03z M807.09,554.03c-0.11-0.06-82.28-46.01-84.38-48.88c0-2.82-0.1-5.73,0.5-8.45
		c1.03-0.26-5.96-4.06,82.36,45.76c0.1,0.91,0.2,1.61,0.6,2.41c0.13,1.21,0.01,5.74,1.81,5.03c1.22-0.48,0.72-1.51,0.6-2.41
		c-0.27-2.12,0.1-4.32-1.11-6.34c-2.41-1.71-81.36-46.26-84.07-47.27c0.2-4.32,0.5-8.85,0.8-13.27c2.31,0.5,4.12,1.41,7.54,3.82
		c0.3,1.31,0.7,2.61,1.01,3.92c2.82,2.11,47.57,28.76,50.28,29.97c6.49-2.84,4.53-2.86,8.05-0.91c0.29,5.25-3.76,5.95-0.8,10.46
		c1.81,2.76,4.64,2.13,7.74,1.81c3.3-0.34,3.74-2.54,4.12-5.63c2.61,0.8,10.36,5.13,15.79,8.65c0.76,2.65-13.12,4.77-8.25,6.94
		c8.7-3.07,5.97-2.36,10.16-4.22c0.6,2.92,1.21,5.63,1.41,8.55C816.65,547.39,811.92,550.71,807.09,554.03z"/>
	<path d="M613.4,216.22l0.1-0.1C613.39,216.16,613.42,216.18,613.4,216.22z"/>
	<path d="M650.5,328.35c-0.11,0.11-0.15,0.16,0.01,0H650.5z"/>
	<path d="M611.29,219.74C611.39,219.66,611.46,219.57,611.29,219.74L611.29,219.74z"/>
	<path d="M218.27,373.01c0.6,0,1.53-0.93,0.2-1.81c-0.49-0.37-34.69-0.6-34.8-0.6C183.68,371.81,216.5,373.01,218.27,373.01z"/>
	<path d="M648.2,280.68c45.07,4.35,36.01-0.28,31.88-0.3C645.85,280.21,648.46,279.52,648.2,280.68z"/>
	<path d="M215.25,309.95c-3.63,0,9.86,28,11.26,39.22c0,0.3,0.3,0.5,0.5,0.8C229.23,348.87,223.78,336.24,215.25,309.95z"/>
	<path d="M679.68,220.24c-0.06-0.17-5.42-9.45,7.04,24.64c1.77,4.84,3.52,9.65,4.42,14.88C693.11,253.86,684,237.15,679.68,220.24z"
		/>
	<path d="M668.11,239.55c-1.2-3.86-0.55-6.33-1.01-14.08c0-1.67-1.71-1.64-1.71-0.91C662.18,236.79,668.11,242.21,668.11,239.55z"/>
	<path d="M202.88,319.8c0-15.12-6.7,6.32,0.7,10.76C204.34,329.06,202.88,331.22,202.88,319.8z"/>
	<path d="M624.26,269.52c0.44,0.44,1.48-0.3-0.1-2.21C602.2,240.8,605.98,248.39,624.26,269.52z"/>
	<path d="M159.74,360.03c0.69,0.69,1.46-0.43,0.7-1.41C140.95,333.23,139.69,336.74,159.74,360.03z"/>
	<path d="M611.59,220.44c0.1-0.02,0.15-0.05,0.1-0.1L611.59,220.44z"/>
	<path d="M620.64,209.99c-10.5,10.11-7.56,9.89-8.92,10.41c0.96,1.47-1.39,2.76,9.83-9C622.89,209.98,621.43,209.23,620.64,209.99z"
		/>
	<path d="M149.99,306.43l-0.2,0.2C149.98,306.63,150.01,306.63,149.99,306.43z"/>
	<path d="M147.87,310.05l-0.1,0.1C147.88,310.09,147.87,310.1,147.87,310.05z"/>
	<path d="M156.12,300.7c-2.25,2.18-10.49,9.74-7.74,11.26c8.96-10.63,8.67-9.29,9.76-11.36C157.33,299.99,156.63,300.2,156.12,300.7
		z"/>
	<path d="M161.75,335.29c0.68-4.4-0.02-6.86,1.61-13.38C171.09,290.99,159.24,325.26,161.75,335.29z"/>
	<path d="M626.07,244.08c0.2-0.29,0.4-0.29,0.4-1.91c-0.48-8.25,2.65-16.11,3.92-21.22C633.26,209.48,623.5,234.54,626.07,244.08z"
		/>
	<path d="M654.73,307.13c-0.66,0.31-0.22,1.51,0.4,1.51c2.65,0.38,5.03-1.62,5.03-3.02C659.56,305.32,660.39,304.48,654.73,307.13z"
		/>
	<path d="M619.33,220.75c-0.1,0.1,0.2,0.5,0.3,1.01c7.43-7.77,6.29-6.51,6.74-8.15C623.36,216.02,621.25,218.23,619.33,220.75z"/>
	<path d="M191.02,402.07c-0.4,0.2-0.2,1.11,0.2,1.21c3.16,1.05,6.92-3.22,4.83-3.22C194.24,400.46,192.53,401.06,191.02,402.07z"/>
	<path d="M155.52,312.26c7.62-8.31,6.77-6.57,6.24-7.64C160.19,305.81,154.64,310.5,155.52,312.26z"/>
	<path d="M643.97,290.94c0-2.02-3.75,0.35-1.51,3.72C643.77,293.46,644.07,292.25,643.97,290.94z"/>
	<path d="M177.64,382.66c-0.2,0.91-0.3,1.91,1.01,2.31C181.43,380.95,178.07,379.21,177.64,382.66z"/>
	<path d="M634.82,215.01c-0.64-0.96,0.43-3.36-2.02-0.41c-0.03,0.03-0.06,0.08-0.09,0.11c0.48-0.48,0.11,1.79,3.62,2.01
		C635.83,216.22,635.32,215.62,634.82,215.01z"/>
	<path d="M628.89,212.2c1.41,1.01,2.31,2.2,3.91,2.41c-0.91-1.21-1.6-2.61-1.7-4.42C630.9,211.39,630.1,211.8,628.89,212.2z"/>
	<path d="M636.93,277.06c-0.8-2.61-1.81-4.22-3.42-5.83C633.62,273.54,635.22,275.05,636.93,277.06z"/>
	<path d="M660.87,228.59c0-4.3,0.12-3.6-0.3-4.02C660.57,228.75,660.48,228.98,660.87,228.59z"/>
	<path d="M691.04,263.59c0,3.69-0.04,3.32,0.1,3.32C691.14,263.22,691.18,263.59,691.04,263.59z"/>
	<path d="M171.81,365.97c-0.19-1.47-0.77-2.64-2.11-3.45C169.72,364.08,170.42,365.27,171.81,365.97z"/>
	<path d="M169.7,362.52c0-0.07,0.02-0.07-0.1-0.1C169.6,362.45,169.66,362.49,169.7,362.52z"/>
	<path d="M208.01,471.56c0,2.57-0.07,2.58,0.2,2.31C208.21,471.21,208.28,471.56,208.01,471.56z"/>
	<path d="M226.63,354.09C226.65,354.08,226.65,354.03,226.63,354.09L226.63,354.09z"/>
	<path d="M226.62,354.1c0,0.02,0,0.03,0,0.05c0-0.02,0.01-0.04,0.01-0.06C226.63,354.1,226.62,354.1,226.62,354.1z"/>
	<path d="M226.62,354.15c-0.04,0.2-0.1,0.8-0.1,2.56C226.66,356.71,226.62,357.09,226.62,354.15z"/>
	<path d="M629.19,264.49c-0.4-1.21-0.5-2.01-1.41-2.41C627.78,262.98,627.98,263.69,629.19,264.49z"/>
	<path d="M163.16,351.99c0.04,0.02,0.07,0.04,0.11,0.05C163.27,351.82,163.27,351.88,163.16,351.99z"/>
	<path d="M164.67,354.6c0-1.07-0.29-2.04-1.4-2.56C163.29,353.08,163.61,354.03,164.67,354.6z"/>
	<path d="M163.26,351.73c0.01-0.74,0.05-1.48-0.7-1.95C162.66,350.45,162.49,351.3,163.26,351.73z"/>
	<path d="M163.26,351.89l0.1-0.1C163.24,351.72,163.26,351.66,163.26,351.89z"/>
	<path d="M163.66,299.59c-0.07,0.22-0.24,0.91,0.1,0.91C163.76,299.52,164.07,299.59,163.66,299.59z"/>
	<path d="M173.12,366.97c-0.6-0.4-1.01-0.6-1.41-0.91C171.81,366.67,171.81,367.27,173.12,366.97z"/>
	<path d="M196.15,315.68c-0.07,0.22-0.24,0.91,0.1,0.91C196.31,316.4,196.5,315.68,196.15,315.68z"/>
	<path d="M628.08,209.08c-0.1,0.3-0.1,0.6-0.1,0.91C628.3,209.99,628.43,210.12,628.08,209.08z"/>
	<path d="M627.18,260.57c-0.1-0.4-0.2-0.91-0.2-1.71C626.37,259.77,626.78,260.17,627.18,260.57z"/>
	<path d="M230.74,401.47l0.1-0.2C230.71,401.13,230.74,401.09,230.74,401.47z"/>
	<path d="M695.06,310.75c0.1-0.2,0.1-0.4,0.2-0.6C695.16,310.35,695.06,310.55,695.06,310.75z"/>
	<path d="M167.79,358.93c0,0.1,0,0.3,0,0.3C167.89,359.33,168.81,359.95,167.79,358.93z"/>
	<path d="M168.37,359.68c-0.1,0.64-0.21,1.18,0.62,1.36C168.99,360.46,168.89,359.99,168.37,359.68z"/>
	<path d="M168.39,359.53l-0.1,0.1C168.35,359.67,168.39,359.74,168.39,359.53z"/>
	<path d="M168.89,361.04c-0.1,0.58-0.09,1.16,0.7,1.38C169.7,361.82,169.69,361.24,168.89,361.04z"/>
	<path d="M162.66,349.67c-0.2-0.2-0.3-0.4-0.2-0.2C162.36,349.27,162.46,349.57,162.66,349.67z"/>
	<path d="M633.62,271.13c-0.03,0-0.05-0.01-0.08-0.02C633.49,271.29,633.51,271.23,633.62,271.13z"/>
	<path d="M632.81,269.82c-0.1,0.58-0.09,1.16,0.72,1.29C633.61,270.55,633.57,270.01,632.81,269.82z"/>
	<path d="M627.78,261.94c0.01-0.55,0.04-1.09-0.7-1.27C627.18,261.15,627.1,261.72,627.78,261.94z"/>
	<path d="M627.88,261.98c-0.13-0.03-0.1-0.1-0.1,0.1L627.88,261.98z"/>
	<path d="M632.21,268.41l-0.1,0.1C632.18,268.53,632.21,268.65,632.21,268.41z"/>
	<path d="M632.2,268.57c-0.02,0.48-0.12,1.08,0.61,1.26C632.81,269.26,632.71,268.8,632.2,268.57z"/>
	<path d="M631.91,268.21l0.2,0.2C632.24,268.41,632.29,268.47,631.91,268.21z"/>
	<path d="M256.69,185.75c-0.5,0.8-1.11,1.41-1.51,2.01C245.89,206.34,264.24,190,256.69,185.75z"/>
	<path d="M227.72,206.87c2.48,0,8.49-5.13,7.94-9.45C232.81,199.64,224.07,206.87,227.72,206.87z"/>
	<path d="M275.09,154.57c2.81-2.35,6.36-6.66,3.22-8.55C273.46,152.7,272.75,153.85,275.09,154.57z"/>
	<path d="M293.5,99.96c2.72-0.68,2.91-8.95,1.11-8.95C293.21,91.01,293.5,92.8,293.5,99.96z"/>
	<path d="M288.47,62.15c0.76-3.03-1.85-3.69-2.11-2.01C285.79,63.78,288.17,63.92,288.47,62.15z"/>
	<path d="M228.33,231.61c0-0.2-0.4-0.4-0.8-0.7C224.28,240.64,228.72,234.98,228.33,231.61z"/>
	<path d="M282.84,142.71c-0.8,1.01-1.81,2.21-2.41,3.82c0.7,0,0.91,0.1,1.11,0.1C283.36,145.64,284.99,142.4,282.84,142.71z"/>
	<path d="M292.49,65.17c1.24-0.18,1.21-2.41,0.7-2.92C291.41,60.47,290.22,65.17,292.49,65.17z"/>
	<path d="M291.48,104.79c0,1.72-0.57,3.34,0.91,2.92C292.79,106.7,292.99,105.7,291.48,104.79z"/>
	<path d="M292.29,68.99c0,2.51,2.33,1.8,0.8-2.01C292.69,67.98,292.29,68.49,292.29,68.99z"/>
	<path d="M258.2,178.41c1.11-1.41,1.11-1.41,0.6-2.51C258.09,176.6,256.23,178.16,258.2,178.41z"/>
	<path d="M256.89,181.02c-0.1-0.1-0.8,0.1-0.8,0.2C255.38,185.42,258.53,182.67,256.89,181.02z"/>
	<path d="M223.8,242.27c0.8-1.31,1.41-2.21,0.8-3.62C223.2,239.55,223.3,240.66,223.8,242.27z"/>
	<path d="M264.43,141.6c1.21,0,2.04-1.91,1.11-1.91C264.33,139.42,263.13,140.95,264.43,141.6z"/>
	<path d="M222.09,219.04c-0.2,0.8-0.4,1.41-0.7,2.21c0.4,0.1,0.7,0.3,0.91,0.2C223.1,220.91,223.49,219.73,222.09,219.04z"/>
	<path d="M278.91,141.3c-0.35-1.76-2.22-0.33-0.7,2.72C278.81,142.91,279.01,142.2,278.91,141.3z"/>
	<path d="M262.72,171.87c-2.11,0.2-2.41,0.5-2.21,2.41C261.62,173.78,262.22,172.88,262.72,171.87z"/>
	<path d="M279.62,133.86c-0.91,0.8-0.91,0.8-0.8,2.51C279.42,135.57,279.82,134.86,279.62,133.86z"/>
	<path d="M286.66,131.04c-1.11,0.5-1.21,1.41-0.7,2.82C286.25,132.65,286.46,131.84,286.66,131.04z"/>
	<path d="M238.49,190.88c0.4-0.4,0.8-0.8,0.4-1.41C237.56,189.28,237.61,191.76,238.49,190.88z"/>
	<path d="M237.78,194.7c-1.41,0.7-1.41,0.7-1.21,2.01C237.68,195.81,237.68,195.81,237.78,194.7z"/>
	<path d="M284.95,137.48c-0.91,0.4-1.21,1.01-1.01,2.31C284.44,138.68,284.75,138.08,284.95,137.48z"/>
	<path d="M241.2,184.74c-1.73,1.34-1.41,0.49-1.41,1.91C240.94,186.27,240.5,186.66,241.2,184.74z"/>
	<path d="M293.4,73.92c0.66,0,0.76,0.3,0.4-1.51C293.26,72.41,293.4,72.17,293.4,73.92z"/>
	<path d="M241.8,181.52c-0.79,0.79-0.71,0.27-0.5,2.11C242.34,181.82,242.22,182.77,241.8,181.52z"/>
	<path d="M279.32,128.02c0,0.7,0,1.31,0,1.91C279.52,129.33,280.52,128.63,279.32,128.02z"/>
	<path d="M292.89,77.54c-0.3,0.61-0.28,0.62,0.3,1.21C293.46,78.21,293.7,77.94,292.89,77.54z"/>
	<path d="M287.56,120.28c0-0.1-0.21-0.39-0.4,0C287.16,120.66,287.56,121.03,287.56,120.28z"/>
	<path d="M289.07,115.45c-0.1-0.1-0.1-0.2-0.2-0.2c-0.1,0.2-0.2,0.4-0.2,0.6C288.99,116.18,288.73,116.12,289.07,115.45z"/>
	<path d="M217.87,225.47c0.37,0.37,0.1,0.19,0.4-0.4c-0.1-0.1-0.2-0.2-0.2-0.2C217.97,225.07,217.87,225.27,217.87,225.47z"/>
	<path d="M290.98,110.32c-0.26,0-0.23-0.05-0.1,0.2L290.98,110.32z"/>
	<path d="M172.61,232.51c-0.65-9.7,0.83-19.34-0.4-23.03c-1.58,0.79-1.75,22.46-0.7,24.74c2.13,4.64-0.67,9.27,3.92,11.57
		c-1.31-3.92-0.6-7.84-1.01-11.57C173.82,233.62,173.22,233.12,172.61,232.51z"/>
	<path d="M169.9,295.37c1.74,0,3.25-6.92,1.11-10.36C170.25,286.83,167.94,295.37,169.9,295.37z"/>
	<path d="M180.06,256.75c-3.15-2.59-1.27-3.62-3.12-4.73c0,4.14-0.8,2.96,4.32,7.44C181.36,258.96,181.78,258.17,180.06,256.75z"/>
	<path d="M184.68,261.48c-1.75-1.19-2.52,2.47,1.21,3.22C186.19,263.19,185.7,262.17,184.68,261.48z"/>
	<path d="M171.51,280.89c0.91-1.01,0.91-1.01,0.4-2.41C171.1,279.18,170.9,279.98,171.51,280.89z"/>
	<path d="M217.57,252.42c-1.45,2.9,1.28,2.23,0.7,0.5C218.17,252.73,217.77,252.63,217.57,252.42z"/>
	<path d="M172.11,274.65c1.11-0.3,1.21-0.91,0.7-1.81C171.91,273.14,171.51,273.75,172.11,274.65z"/>
	<path d="M215.25,257.45c0.4-0.79,0.45-0.11,0-1.01C214.73,256.97,214.9,256.75,215.25,257.45z"/>
	<path d="M174.52,176.09c1.91-0.81,1.69-2.62,0.8-2.92c-2.23-0.89-0.31,0.77-11.57,0.6c-2.35-0.03-0.16,0.06-6.03,2.41
		c-0.2,0-0.3,0.4-0.5,0.7c1.71,1.61,3.12,0.3,4.83-0.2C166.33,177.86,171.9,177.2,174.52,176.09z"/>
	<path d="M126.35,125.61c2.24-1.44,0.68-2.96-3.82-9.55C121.57,114.13,120.16,118.32,126.35,125.61z"/>
	<path d="M115.89,37.41c0-4.49-3.91-2.6-1.11,0.91C114.84,38.42,115.89,39.08,115.89,37.41z"/>
	<path d="M149.38,198.62c-0.94,1.13-0.13,1.98,1.91,3.72c0.3,0.3,0.8,0.4,1.21-0.2C151.59,200.83,150.99,199.33,149.38,198.62z"/>
	<path d="M157.53,189.67c1.12-1.86,0.16-2.2-0.2-2.92C154.65,187,156.77,191.18,157.53,189.67z"/>
	<path d="M119.82,92.32c0-1-1.51-0.87-1.51,0C118.31,97.43,120.1,95.68,119.82,92.32z"/>
	<path d="M120.32,108.71c-0.3,1.51-0.3,2.72,1.21,4.12C121.63,111.03,121.83,109.72,120.32,108.71z"/>
	<path d="M157.03,181.83c0.91-0.2,1.21-1.01,0.8-2.41C156.19,179.86,156.19,181.83,157.03,181.83z"/>
	<path d="M134.4,106.8c-1.09,1.81,0.8,3.47,0.8,2.72C135.84,108.56,135.38,107.13,134.4,106.8z"/>
	<path d="M116.19,46.76c0.78,1.56,2.69,1.07,1.31-1.01C117.15,45.53,115.68,45.74,116.19,46.76z"/>
	<path d="M117.4,41.94c-1.39-2.79-2.16-1.56-2.11-1.41C115.69,42.54,116.41,41.94,117.4,41.94z"/>
	<path d="M119.21,99.16c-1.31,0.6-1.31,1.31-0.4,2.61C119.44,100.31,119.59,101.05,119.21,99.16z"/>
	<path d="M157.23,183.74c-1.12,0.37-0.91,0.38-0.5,1.41C157.47,184.15,157.64,184.57,157.23,183.74z"/>
	<path d="M119.61,104.79c-0.4,0.7-0.6,1.41,0.4,2.21C120.22,106.2,120.62,105.5,119.61,104.79z"/>
	<path d="M136.81,112.33c-0.7,1.01-0.2,1.41,0.7,1.81C138.12,113.24,137.52,112.74,136.81,112.33z"/>
	<path d="M153.61,151.35c0.1,0.41,0.69,1.54,1.81,0.7C154.21,151.15,154.08,150.88,153.61,151.35z"/>
	<path d="M73.55,507.16c0.1,0.6,0.5,0.8,1.11,0.7c0.04-0.1,3.45-26.05,3.42-26.15c-3.72,4.46-6.26,9.81-6.34,18.81
		C71.7,506.31,72.55,504.16,73.55,507.16z M75.67,489.16c-0.2,3.22-1.01,6.34-1.71,9.65C73.35,494.99,73.96,491.78,75.67,489.16z"/>
	<path d="M79.09,506.16c0.6,0.7,1.21,1.51,2.11,2.51c1.47-3.44-1.34-3.72-0.3-10.46c2.1-13.58,3.53-12.12,4.32-15.69
		C80.07,485.3,79.09,500.31,79.09,506.16z"/>
	<path d="M86.73,463.01c4.2-5.78,4.68-5.03,4.93-11.36C86.81,451.65,85.87,458.31,86.73,463.01z"/>
	<path d="M150.09,414.44c3.97-1.99,7.08-3.89,11.57-5.03c0.4-0.1,0.6-0.7,0.91-1.01c-0.2-0.3-0.5-0.5-0.7-0.8
		C159.42,408.54,147.72,412.86,150.09,414.44z"/>
	<path d="M93.77,470.46c-3.7,4.16-3.2,6.67-3.32,8.05C92.46,475.38,93.37,473.17,93.77,470.46z"/>
	<path d="M83.81,474.18c1.21-1.31,1.31-2.82,1.71-5.13C83.71,470.96,83.41,472.27,83.81,474.18z"/>
	<path d="M139.33,446.52c1.43,0.2,1.98-1.51,1.61-1.51C140.08,443.3,138.05,446.52,139.33,446.52z"/>
	<path d="M142.54,420.67c-0.8,0.6-0.8,1.31-0.1,2.21C143.05,422.08,143.25,421.38,142.54,420.67z"/>
	<path d="M134,448.43c-0.18-0.35-0.92-0.26-0.6,0.7C133.59,448.93,133.79,448.63,134,448.43z"/>
	<path d="M147.17,417.96c0.1-0.2,0.1-0.5,0.2-0.8c-1.42,0.47-0.56-0.23-1.01,1.11C146.57,418.16,146.97,418.16,147.17,417.96z"/>
	<path d="M128.87,449.74c-0.14-0.14-0.4-0.16-0.4,0.1C128.6,449.98,128.87,450,128.87,449.74z"/>
	<path d="M286.46,318.7c37.89,18.13,43.7,20.95,42.94,17.9c-0.21-0.83,4.24,1.78-42.64-19.71
		C283.87,315.24,282.21,316.67,286.46,318.7z"/>
	<path d="M291.79,332.17c-0.5,0.5,0.09,1.22,1.51,1.91c31.51,15.39,36.12,18.16,35.4,14.58
		C291.29,331.4,293.01,330.95,291.79,332.17z"/>
	<path d="M214.65,445.41c-9.36,7.2-7.54,5.64-7.84,6.84c1.95-0.39,7.68-3.74,8.95-6.84C215.05,445.41,214.75,445.31,214.65,445.41z"
		/>
	<path d="M155.22,476.09c0.97-0.81,4-3.42,3.22-4.42C155.01,473.47,154.51,474.18,155.22,476.09z"/>
	<path d="M160.75,470.96c1.31-0.6,1.91-1.71,3.02-2.82C161.73,467.22,160.16,469.55,160.75,470.96z"/>
	<path d="M188.2,434.55c-1.11,0.2-1.31,0.7-1.51,3.32C187.98,436.47,190.1,434.55,188.2,434.55z"/>
	<path d="M165.67,466.63c1.83-1.1,1.27-0.75,1.91-1.81C165.55,464.7,165.15,465.58,165.67,466.63z"/>
	<path d="M183.58,439.98c0.4-0.4,0.7-0.8,1.11-1.21C183.78,438.78,182.87,438.78,183.58,439.98z"/>
	<path d="M199.97,455.27c0.2,0.1,0.4,0.3,0.6,0.2C202.62,454.79,199.97,454.08,199.97,455.27z"/>
	<path d="M194.74,456.07c-0.27,0.54-0.27,0.43,0,0.7c0-0.2,0.1-0.3,0.2-0.5C194.84,456.17,194.74,456.17,194.74,456.07z"/>
	<path d="M190.21,457.88c0,0,0.1,0,0.2-0.1C190.51,457.78,190.7,457.4,190.21,457.88z"/>
	<path d="M190.11,457.88c-0.03,0.03-0.05,0.06-0.07,0.09C190.08,457.96,190.11,457.94,190.11,457.88z"/>
	<path d="M190.04,457.97c-0.04,0.01-0.09,0.01-0.13,0.01C189.91,458.33,189.94,458.14,190.04,457.97z"/>
	<path d="M111.87,530.49c0.45,1.81,2.72,2.75,2.72,2.21c0.33-1.31,0.24-15.85,1.91-22.53C112.34,511.84,110.92,527.63,111.87,530.49
		z"/>
	<path d="M123.64,511.99c-2.15,1.08-9.94,27.7,0,29.77c-0.27-1.89-0.65-1.4-1.41-2.61c-2.8-4.49-0.74-3.74-0.7-6.84
		C121.63,522.64,123.98,519.29,123.64,511.99z M120.62,530.59c-0.33,0-0.5-3.42,0-3.42C120.62,528.28,120.62,529.39,120.62,530.59z
		 M121.02,525.16c0-3.12,0.3-3.17,0.3,0C121.22,525.16,121.12,525.16,121.02,525.16z"/>
	<path d="M132.99,507.36c-1.17,4.69-2.79,20.02-4.12,23.33c-0.94,2.33-3.31,7.54-0.3,6.03c2.59-5.6,2.4-4.06,5.43-26.35
		C134.23,508.68,134.61,507.04,132.99,507.36z"/>
	<path d="M121.32,485.24c0.5,1.81,1.61,3.02,4.12,2.82c-1.11-1.31-0.89-2.61-0.5-4.12C129.04,468.08,119.29,477.91,121.32,485.24z
		 M124.04,480.51c0-0.33-0.28-0.8,0.1-0.8C124.14,480.16,124.41,480.51,124.04,480.51z"/>
	<path d="M320.05,37.21c2.74-0.74,2.18-0.86,2.82-1.71C319.81,33.15,185.25,73.76,320.05,37.21z"/>
	<path d="M190.01,170.06c0-0.91,0-1.71,0-2.51C188.5,168.55,188.5,168.95,190.01,170.06z"/>
	<path d="M220.58,149.24c0.64-2.57-1.1-1.9-0.6,0.1C220.08,149.24,220.28,149.24,220.58,149.24z"/>
	<path d="M188.4,174.59c0.7-0.5,0.7-1.01,0-1.51C187.6,173.68,187.9,174.18,188.4,174.59z"/>
	<path d="M636.73,129.03c0.95-27.5-3.58,8.79-0.8,14.88c2.25,4.94-1,8.47,3.82,11.36c0-2.76-0.61-1.23-0.91-6.84
		C638.84,136.66,635.94,152.03,636.73,129.03z"/>
	<path d="M633.31,203.35c-0.2,0.59,0.61,2,1.31,1.31c1.4-1.4,2.54-6.39,0.8-9.86C634.47,195.99,634.75,194.38,633.31,203.35z"/>
	<path d="M637.24,100.97c3.14,1.57,1.21-3.67,0.2-7.04C634.48,92.29,635.45,100.37,637.24,100.97z"/>
	<path d="M643.77,165.74c-2.19-1.81-1.03-2.45-2.21-4.42c-1.39,3.12-0.43,3.6,4.22,7.94C645.62,167.62,645.93,167.51,643.77,165.74z
		"/>
	<path d="M648.7,170.76c-1.98-0.66-2.19,2.54,1.71,3.52C650.31,172.57,649.81,171.47,648.7,170.76z"/>
	<path d="M684.4,58.83c0.95,0,0.5-1.8,0.5-1.91c-0.3,0.2-0.7,0.3-0.8,0.5C683.94,57.9,683.89,58.83,684.4,58.83z"/>
	<path d="M653.53,76.83c-0.1,0.91-0.1,1.71-0.2,2.41C654.84,77.94,654.73,77.94,653.53,76.83z"/>
	<path d="M636.93,182.13c-1.45,1.45-0.21,3.48,0.4,0.4C637.34,182.53,637.14,182.43,636.93,182.13z"/>
	<path d="M635.63,188.16c0,0.7,0,1.31,0,2.72C636.83,188.66,636.83,188.66,635.63,188.16z"/>
	<path d="M652.72,84.07c0.2,0,0.4-0.4,0.7-0.8c-0.4-0.2-0.7-0.5-1.11-0.7C651.71,83.18,652.06,84.07,652.72,84.07z"/>
	<path d="M681.89,164.03c0.8-0.7,0.8-1.41,0-2.11C681.08,162.72,681.18,163.42,681.89,164.03z"/>
	<path d="M732.17,139.19c0.2-0.5,0.1-1.01-0.6-1.01c-1.81,3.22-3.32,6.54-6.03,9.35C729.47,151.46,731.45,141.03,732.17,139.19z"/>
	<path d="M702.3,139.39c2.11,1.41,4.22,1.31,7.04,0c-2.51-1.41-4.93-0.8-6.84-1.71C702,138.88,702,139.19,702.3,139.39z"/>
	<path d="M699.19,95.04c-1.51-1.81-6.35-6.02-7.54-2.92C699.63,95.59,697.69,95.41,699.19,95.04z"/>
	<path d="M733.38,148.14c0.77,0.38,3.3-1.97,4.02-3.62C737.4,141.91,730.38,147.14,733.38,148.14z"/>
	<path d="M679.88,120.78c-0.31,2.14,4.76,1.4,6.94,0.7C684.87,120.73,680.17,118.69,679.88,120.78z"/>
	<path d="M752.18,89.81c0-1-2.96-2.78-1.11,5.73C752.39,93.23,752.29,91.52,752.18,89.81z"/>
	<path d="M743,59.04c0.04,0,0.03-0.05,0.03-0.1C742.9,58.9,742.94,58.94,743,59.04z"/>
	<path d="M743,59.04c-1.48,0.71-1.68,1.91-1.38,3.41C742.06,65.47,745.64,62.53,743,59.04z"/>
	<path d="M748.56,65.07c0.97-1.95-0.53-3.98-1.71-2.21C745.84,64.89,748.09,66.25,748.56,65.07z"/>
	<path d="M750.58,104.59c-1.61,1.11-0.6,2.31-0.2,4.12C751.98,106,751.98,105.9,750.58,104.59z"/>
	<path d="M704.01,102.78c1.45,1.45,3.1-0.94-2.51-2.92C702.3,100.87,703.01,101.88,704.01,102.78z"/>
	<path d="M741.02,138.58c-1.91,0.4-2.01,0.4-3.02,3.42C740.52,140.09,740.52,140.09,741.02,138.58z"/>
	<path d="M751.58,99.36c0-1.99-2.44-0.61-1.11,2.31C751.68,101.27,751.58,100.27,751.58,99.36z"/>
	<path d="M694.36,118.07c-1.45,0.72,1.04,2.82,3.02,0.4C696.37,117.56,695.36,117.56,694.36,118.07z"/>
	<path d="M747.86,68.29c-0.5,1.01-0.2,1.81,0.6,2.61C750.5,68.86,748.44,67.13,747.86,68.29z"/>
	<path d="M743.64,134.06c-1.41,0.3-1.71,1.21-1.91,2.92C743.54,135.77,743.54,135.77,743.64,134.06z"/>
	<path d="M673.54,117.36c0.4,0.91,0.8,1.61,2.11,1.71C675.65,117.07,674.49,116.73,673.54,117.36z"/>
	<path d="M746.96,124.4c-1.51,0-1.51,0-1.41,2.31C746.75,126.11,746.85,125.21,746.96,124.4z"/>
	<path d="M688.32,148.14c-0.6,1.11-0.8,2.11-0.1,3.42C689.46,148.15,689.73,148.84,688.32,148.14z"/>
	<path d="M688.93,120.48c0.7,0,1.41,0,2.61,0C689.73,119.17,689.63,119.17,688.93,120.48z"/>
	<path d="M724.93,144.31c0.64,0,0.4-1.28,0.4-1.71C723.47,142.6,724.12,144.31,724.93,144.31z"/>
	<path d="M733.28,132.65c-0.3,1.01-0.5,1.61-0.7,2.21C733.38,134.46,733.98,133.96,733.28,132.65z"/>
	<path d="M702.5,116.96c0-0.89-1.61-1.35-1.61,0.2C702.4,117.16,702.24,117.22,702.5,116.96z"/>
	<path d="M745.85,130.24c-0.9-0.75-0.85-0.88-1.51,0.1C744.82,130.81,744.96,130.68,745.85,130.24z"/>
	<path d="M733.98,129.23c0.3-0.3,0.6-0.6,0.8-0.91c-0.2-0.2-0.2-0.4-0.3-0.4c-0.6,0-0.6,0.09-0.91,1.01
		C733.58,129.03,733.98,129.23,733.98,129.23z"/>
	<path d="M748.26,79.25c0.53,0,0.4,0.28,0.4-1.41C748.13,77.84,748.26,77.56,748.26,79.25z"/>
	<path d="M711.15,138.78c0.11,0,0.9-0.25,0-0.7C710.86,137.78,710.06,138.78,711.15,138.78z"/>
	<path d="M749.37,74.42c-0.1-0.7-0.1-1.11-0.2-1.81C748.46,73.31,748.56,73.82,749.37,74.42z"/>
	<path d="M681.99,135.06c0,0,0.1-0.1,0.2-0.1c0-0.1,0-0.2,0.1-0.3C681.63,134.66,681.99,134.87,681.99,135.06z"/>
	<path d="M579.51,36.2c-0.67-2.02-3.96,1.31-0.2,3.32C579.91,38.12,579.91,37.01,579.51,36.2z"/>
	<path d="M610.48,107.1c-0.7,1.71-0.6,3.22-0.2,4.53C610.98,113.02,613.02,110.14,610.48,107.1z"/>
	<path d="M587.96,53.3c0-0.82-2.6-0.32-0.5,4.12C588.36,55.61,588.56,54.51,587.96,53.3z"/>
	<path d="M587.05,109.52c0.6-1.41,1.01-2.41,1.41-3.42C586.93,105,586.34,107.81,587.05,109.52z"/>
	<path d="M580.52,46.36c-2.52,0,2.28,4.13,1.21,0.91C581.62,46.66,581.22,46.26,580.52,46.36z"/>
	<path d="M581.32,42.64c-0.5-0.8-0.7-1.31-1.01-1.71c-0.3-0.3-1.21,0-1.11,0.3C579.61,43.24,580.32,42.64,581.32,42.64z"/>
	<path d="M587.86,63.76c0.3-1.91,0.3-1.91-0.8-2.21C587.35,62.25,587.56,62.96,587.86,63.76z"/>
	<path d="M585.85,113.84c-0.1,0.3,0.1,0.6,0.1,0.91C587.7,114.16,585.85,113.15,585.85,113.84z"/>
	<path d="M610.08,101.57c-0.38,0.19-0.61,0.29-0.3,0.91C610.66,102.04,610.48,101.97,610.08,101.57z"/>
	<path d="M748.56,378.64c46.35,21.96,42.85,19.89,43.24,17.5c-9.64-3.86-41.87-19.15-44.35-19.91
		C746.25,375.85,745.28,377.54,748.56,378.64z"/>
	<path d="M756.21,394.23c33.56,15.96,35,17.74,35,14.58c-2.27-0.94-15.61-7.34-34.19-16.39
		C754.15,391.02,752.85,392.63,756.21,394.23z"/>
	<path d="M783.26,468.14c-0.7-1.41-1.9-1.62-2.92-2.11c-39.01-18.78-42.84-20.32-42.84-19.01c-0.27,0.82-0.39,0.96,2.41,2.31
		C786.94,472.03,781.37,469.09,783.26,468.14z"/>
	<path d="M670.72,361.74c1.83,0.1,7.85-3.44,9.25-7.14C677.87,355.71,672.23,360.03,670.72,361.74z"/>
	<path d="M618.73,384.77c1.11,1.67,2.12-0.43,4.53-3.32C621.04,381.86,619.33,382.86,618.73,384.77z"/>
	<path d="M625.07,380.15c0.75-0.38-0.27,0.99,2.72-2.41C625.77,377.33,625.17,378.03,625.07,380.15z"/>
	<path d="M652.02,344.24c-2.6,1.44-1.02,4.66,1.31,0C652.82,344.24,652.32,344.04,652.02,344.24z"/>
	<path d="M629.69,375.52c-0.1,0.2,0.1,0.5,0.2,1.01c0.7-0.7,1.31-1.21,2.01-1.81C631.06,374.21,631.25,373.57,629.69,375.52z"/>
	<path d="M658.46,365.76c0.34,0.68,0.3,0.5,0.7,0.1c-0.1-0.1-0.3-0.2-0.5-0.3L658.46,365.76z"/>
	<path d="M664.69,364.26c-0.3,0.15-0.61,0.7,0,0.7C665.77,363.88,664.75,364.13,664.69,364.26z"/>
	<path d="M648.1,348.27c-0.41,1.24,0.2,1.19,0.2,0C648.3,348.37,648.1,348.27,648.1,348.27z"/>
	<path d="M654.33,367.17c-0.29,0.29,0.13,1,0.3,0.3C654.63,367.13,654.43,367.17,654.33,367.17z"/>
	<path d="M648.5,348.06c-0.1,0.1-0.1,0.1-0.1,0.3C648.4,348.27,648.5,348.17,648.5,348.06z"/>
	<path d="M585.85,441.09c0.2-11.81,3.15-19.3,1.71-19.51c-1.67,0.84-8.4,24.01-1.41,29.16c0.5,0.3,1.01,0.7,1.81-0.2
		C582.26,443.42,585.78,445.15,585.85,441.09z M585.64,431.13c0.38,0.76,0.14,0.63,0,0.91
		C585.75,431.64,585.75,431.33,585.64,431.13z M585.24,433.85c0,1.61,0,3.12,0,4.73C584.64,436.97,584.74,435.46,585.24,433.85z"/>
	<path d="M576.09,439.18c0.02,1.71,0.7,3.12,2.82,3.62c0.03-0.11,1.29-22.95,1.21-23.13C576.41,425.23,576.02,432.89,576.09,439.18z
		"/>
	<path d="M596.91,417.15c-4.14,24.82-0.78,15.09-5.53,27.66c-0.19,0.51,0,1.11,0.1,2.21c0.8-0.7,1.21-0.8,1.21-1.11
		c4.72-10.89,1.92-9.11,3.02-10.76c1.36-1.73,0.34-2.09,1.61-10.76c1-6.8,1.16-5.21,0.5-8.15
		C597.31,416.75,597.01,416.85,596.91,417.15z"/>
	<path d="M589.27,397.44c-1.24-6.18,2.96-8.28-0.1-13.38C582.2,390.01,586.22,399.62,589.27,397.44z M588.66,389.4
		c-0.27,0-0.2,0.23-0.2-1.61C588.73,387.79,588.66,387.55,588.66,389.4z"/>
	<path d="M606.96,332.48c0.1-0.91,0.1-1.61,0.2-2.51C605.76,331.17,605.76,331.17,606.96,332.48z"/>
	<path d="M603.14,355.41c0,0.99,2.18,0.57,2.01-0.91c-0.2-0.1-0.5-0.4-0.8-0.4C603.65,354.1,603.14,354.7,603.14,355.41z"/>
	<path d="M609.98,328.65c2.3-2.04,1.51-0.76,1.51-2.11C610.68,326.95,611.19,325.99,609.98,328.65z"/>
	<path d="M597.51,358.12c0,0.58,0.91,0.31,0.3-0.3C597.71,357.92,597.51,358.02,597.51,358.12z"/>
	<path d="M592.89,359.03c-0.24,0.24-0.32,0.08,0,0.4c0.1-0.1,0.1-0.1,0.2-0.2C592.99,359.23,592.89,359.13,592.89,359.03z"/>
	<path d="M538.78,417.66c0.7-1.09-0.5,2.82,3.62-26.05c-4.93,6.03-5.89,10.66-6.34,18.1C535.84,413.53,535.96,413.63,538.78,417.66z
		 M540.09,398.35c-0.6,3.02-1.11,6.13-1.61,9.15C537.77,404.38,538.18,401.26,540.09,398.35z"/>
	<path d="M543.81,404.78c-1.38,11.86-0.87,11.04,1.81,13.48c0.99-3.96-2.59-3.88,0.3-16.19c1.97-8.35,3.07-7.58,3.32-10.56
		c-1.01,1.31-2,1.91-2.31,2.82C545.75,397.76,544.23,401.17,543.81,404.78z"/>
	<path d="M555.57,361.24c-4.74,0-5.38,6.66-4.63,11.36C553.37,368.56,556.26,367.23,555.57,361.24z"/>
	<path d="M557.89,380.35c-2.01,2.11-3.22,4.63-3.12,7.64C556.28,385.68,557.28,383.16,557.89,380.35z"/>
	<path d="M547.93,383.56c0.91-1.31,1.71-2.72,1.21-4.53C547.83,381.05,547.83,381.05,547.93,383.56z"/>
	<path d="M560.1,378.13c0.46,0.46,0.23,0.35,0.5-0.2C560.5,378.13,560.4,378.13,560.1,378.13z"/>
	<path d="M650.41,328.55l-0.1,0.1C652.88,329.68,651.65,329.05,650.41,328.55z"/>
	<path d="M653.33,329.86c-0.5-0.2-1.01-0.4-1.61-0.6C653.42,329.94,653.19,329.86,653.33,329.86z"/>
	<path d="M653.23,329.96l0.2,0.1C653.18,329.82,653.23,329.83,653.23,329.96z"/>
<path fill="#e6e6e6" d="m206.8 163.6c0-5.1 4.1-9.2 9.3-9.2s9.2 4.2 9.2 9.2-4.1 9.2-9.3 9.2-9.2-4.1-9.2-9.2zm17.3-.1c0-4.5-3.5-8.2-8.2-8.2s-8.2 3.7-8.2 8.3c0 4.5 3.5 8.2 8.2 8.2s8.2-3.7 8.2-8.3zm-13 0c0-2.8 2.1-5.1 5.1-5.1 1.9 0 2.9.6 3.9 1.5l-1.4 1.7c-.8-.7-1.5-1.1-2.5-1.1-1.7 0-2.8 1.4-2.8 3.1s1.1 3 2.8 3c1.1 0 1.7-.5 2.5-1.1l1.4 1.4c-1.1 1.1-2.1 1.7-4 1.7-2.9 0-5-2.3-5-5.1z"/><path fill="#e6e6e6" d="m226.6 154.7h3.4l4.2 13.2 4.4-13.3h2.6l4.4 13.3 4.2-13.2h3.3l-6.2 18h-2.7l-4.4-12.8-4.4 12.8h-2.7z"/><path fill="#e6e6e6" d="m252.8 165.8c0-3.9 3.1-7 7.2-7 4.2 0 7.2 3.2 7.2 7s-3.1 7-7.3 7c-4 0-7.1-3.1-7.1-7zm11.3 0c0-2.3-1.7-4.3-4.2-4.3s-4.1 2-4.1 4.3 1.7 4.3 4.1 4.3c2.7.1 4.2-1.9 4.2-4.3z"/><path fill="#e6e6e6" d="m269.5 159.1h3.1v3c.8-2 2.4-3.4 4.8-3.3v3.2h-.2c-2.7 0-4.6 1.7-4.6 5.4v5.1h-3.1z"/><path fill="#e6e6e6" d="m279.1 153.9h3.1v11.1l5.6-6h3.8l-5.4 5.5 5.5 8h-3.5l-4.1-5.8-1.9 2v3.9h-3.1z"/><path fill="#e6e6e6" d="m291.7 165.8c0-3.9 3.1-7 7.2-7 4.2 0 7.2 3.2 7.2 7s-3.1 7-7.3 7c-4 0-7.1-3.1-7.1-7zm11.3 0c0-2.3-1.7-4.3-4.2-4.3s-4.1 2-4.1 4.3 1.7 4.3 4.1 4.3c2.6.1 4.2-1.9 4.2-4.3z"/><path fill="#e6e6e6" d="m308.2 167.6v-8.6h3.1v7.6c0 2.1 1.1 3.3 2.9 3.3s3-1.3 3-3.3v-7.6h3.1v13.4h-3.1v-2.1c-.8 1.3-2.1 2.3-4.2 2.3-3.1.2-4.8-1.8-4.8-5z"/><path fill="#e6e6e6" d="m323.9 168.8v-7.1h-1.7v-2.6h1.7v-3.7h3.1v3.7h3.6v2.6h-3.6v6.6c0 1.2.6 1.7 1.7 1.7.7 0 1.3-.2 1.9-.5v2.5c-.8.5-1.7.7-2.8.7-2.3 0-3.9-.9-3.9-3.9z"/><path fill="#e6e6e6" d="m333.2 154.7h3.2v15h9.4v2.9h-12.5v-17.9z"/><path fill="#e6e6e6" d="m356 172.5v-1.7c-.9 1.1-2.3 2-4.4 2-2.6 0-4.8-1.4-4.8-4.2 0-3 2.3-4.4 5.4-4.4 1.7 0 2.6.2 3.7.5v-.2c0-1.9-1.2-2.9-3.3-2.9-1.5 0-2.6.3-3.9.8l-.8-2.5c1.5-.7 2.9-1.1 5.1-1.1 4 0 5.9 2.1 5.9 5.7v8zm.1-5.6c-.8-.3-1.9-.5-3.1-.5-2 0-3.1.8-3.1 2.1s1.1 2 2.6 2c2 0 3.5-1.1 3.5-2.9z"/><path fill="#e6e6e6" d="m364.9 170.5v2.1h-3.1v-18.7h3.1v7.4c1-1.4 2.4-2.5 4.5-2.5 3.2 0 6.3 2.5 6.3 7s-3.1 7-6.3 7c-2.1 0-3.5-1.1-4.5-2.3zm7.7-4.7c0-2.6-1.7-4.3-3.9-4.3s-3.9 1.7-3.9 4.4c0 2.6 1.8 4.3 3.9 4.3s3.9-1.7 3.9-4.4z"/><path fill="#e6e6e6" d="m376.9 170.8 1.4-2.1c1.4 1.1 3 1.7 4.4 1.7s2.1-.5 2.1-1.5-1.3-1.4-2.8-1.8c-.1 0-.2-.1-.2-.1-2-.6-4.2-1.4-4.2-4s2.1-4.1 4.8-4.1c1.7 0 3.5.6 5 1.5l-1.2 2.2c-1.3-.8-2.6-1.3-3.8-1.3s-1.9.5-1.9 1.4 1.3 1.4 2.8 1.8c.1 0 .2.1.2.1 2 .6 4.2 1.5 4.2 4 0 2.9-2.2 4.2-5 4.2-1.9 0-4-.7-5.8-2z"/><path fill="#e6e6e6" d="m505.6 163.6c0-5.1 4.1-9.2 9.3-9.2s9.2 4.2 9.2 9.2-4.1 9.2-9.3 9.2-9.2-4.1-9.2-9.2zm17.4-.1c0-4.5-3.5-8.2-8.2-8.2s-8.2 3.7-8.2 8.3c0 4.5 3.5 8.2 8.2 8.2s8.2-3.7 8.2-8.3zm-13.1 0c0-2.8 2.1-5.1 5.1-5.1 1.9 0 2.9.6 3.9 1.5l-1.4 1.7c-.8-.7-1.5-1.1-2.5-1.1-1.7 0-2.8 1.4-2.8 3.1s1.1 3 2.8 3c1.1 0 1.7-.5 2.5-1.1l1.4 1.4c-1.1 1.1-2.1 1.7-4 1.7-2.9 0-5-2.3-5-5.1z"/><path fill="#e6e6e6" d="m525.4 154.7h3.4l4.2 13.2 4.4-13.3h2.6l4.4 13.3 4.2-13.2h3.3l-6.2 18h-2.7l-4.4-12.8-4.4 12.8h-2.7z"/><path fill="#e6e6e6" d="m551.7 165.8c0-3.9 3.1-7 7.2-7 4.2 0 7.2 3.2 7.2 7s-3.1 7-7.3 7c-4.1 0-7.1-3.1-7.1-7zm11.2 0c0-2.3-1.7-4.3-4.2-4.3s-4.1 2-4.1 4.3 1.7 4.3 4.1 4.3c2.7.1 4.2-1.9 4.2-4.3z"/><path fill="#e6e6e6" d="m568.3 159.1h3.1v3c.8-2 2.4-3.4 4.8-3.3v3.2h-.2c-2.7 0-4.6 1.7-4.6 5.4v5.1h-3.1z"/><path fill="#e6e6e6" d="m577.9 153.9h3.1v11.1l5.6-6h3.8l-5.4 5.5 5.5 8h-3.5l-4.1-5.8-1.9 2v3.9h-3.1z"/><path fill="#e6e6e6" d="m590.6 165.8c0-3.9 3.1-7 7.2-7 4.2 0 7.2 3.2 7.2 7s-3.1 7-7.3 7c-4.1 0-7.1-3.1-7.1-7zm11.2 0c0-2.3-1.7-4.3-4.2-4.3s-4.1 2-4.1 4.3 1.7 4.3 4.1 4.3c2.6.1 4.2-1.9 4.2-4.3z"/><path fill="#e6e6e6" d="m607 167.6v-8.6h3.1v7.6c0 2.1 1.1 3.3 2.9 3.3s3-1.3 3-3.3v-7.6h3.1v13.4h-3.1v-2.1c-.8 1.3-2.1 2.3-4.2 2.3-3 .2-4.8-1.8-4.8-5z"/><path fill="#e6e6e6" d="m622.7 168.8v-7.1h-1.7v-2.6h1.7v-3.7h3.1v3.7h3.6v2.6h-3.6v6.6c0 1.2.6 1.7 1.7 1.7.7 0 1.3-.2 1.9-.5v2.5c-.8.5-1.7.7-2.8.7-2.3 0-3.9-.9-3.9-3.9z"/><path fill="#e6e6e6" d="m632 154.7h3.2v15h9.4v2.9h-12.6z"/><path fill="#e6e6e6" d="m654.8 172.5v-1.7c-.9 1.1-2.3 2-4.4 2-2.6 0-4.8-1.4-4.8-4.2 0-3 2.3-4.4 5.4-4.4 1.7 0 2.6.2 3.7.5v-.2c0-1.9-1.2-2.9-3.3-2.9-1.5 0-2.6.3-3.9.8l-.8-2.5c1.5-.7 2.9-1.1 5.1-1.1 4 0 5.9 2.1 5.9 5.7v8zm.1-5.6c-.8-.3-1.9-.5-3.1-.5-2 0-3.1.8-3.1 2.1s1.1 2 2.6 2c2 0 3.5-1.1 3.5-2.9z"/><path fill="#e6e6e6" d="m663.7 170.5v2.1h-3.1v-18.7h3.1v7.4c1-1.4 2.4-2.5 4.5-2.5 3.2 0 6.3 2.5 6.3 7s-3.1 7-6.3 7c-2.1 0-3.5-1.1-4.5-2.3zm7.8-4.7c0-2.6-1.7-4.3-3.9-4.3-2.1 0-3.9 1.7-3.9 4.4 0 2.6 1.8 4.3 3.9 4.3s3.9-1.7 3.9-4.4z"/><path fill="#e6e6e6" d="m675.8 170.8 1.4-2.1c1.4 1.1 3 1.7 4.4 1.7s2.1-.5 2.1-1.5-1.3-1.4-2.8-1.8c-.1 0-.2-.1-.2-.1-2-.6-4.2-1.4-4.2-4s2.1-4.1 4.8-4.1c1.7 0 3.5.6 5 1.5l-1.2 2.2c-1.3-.8-2.6-1.3-3.8-1.3s-1.9.5-1.9 1.4 1.3 1.4 2.8 1.8c.1 0 .2.1.2.1 2 .6 4.2 1.5 4.2 4 0 2.9-2.2 4.2-5 4.2-2 0-4.1-.7-5.8-2z"/><path fill="#e6e6e6" d="m61 298.6c0-5.1 4.1-9.2 9.3-9.2s9.2 4.2 9.2 9.2-4.1 9.2-9.3 9.2c-5.1 0-9.2-4.2-9.2-9.2zm17.4-.1c0-4.5-3.5-8.2-8.2-8.2s-8.2 3.7-8.2 8.3c0 4.5 3.5 8.2 8.2 8.2s8.2-3.7 8.2-8.3zm-13.1-.1c0-2.8 2.1-5.1 5.1-5.1 1.9 0 2.9.6 3.9 1.5l-1.4 1.7c-.8-.7-1.5-1.1-2.5-1.1-1.7 0-2.8 1.4-2.8 3.1s1.1 3 2.8 3c1.1 0 1.7-.5 2.5-1.1l1.4 1.4c-1.1 1.1-2.1 1.7-4 1.7-2.8.1-5-2.2-5-5.1z"/><path fill="#e6e6e6" d="m80.9 289.7h3.4l4.2 13.2 4.4-13.3h2.6l4.4 13.3 4.2-13.2h3.3l-6.2 18h-2.7l-4.4-12.8-4.4 12.8h-2.7z"/><path fill="#e6e6e6" d="m107.1 300.8c0-3.9 3.1-7 7.2-7s7.2 3.2 7.2 7-3.1 7-7.3 7c-4 0-7.1-3.1-7.1-7zm11.3 0c0-2.3-1.7-4.3-4.2-4.3s-4.1 2-4.1 4.3 1.7 4.3 4.1 4.3c2.6.1 4.2-1.9 4.2-4.3z"/><path fill="#e6e6e6" d="m123.7 294h3.1v3c.8-2 2.4-3.4 4.8-3.3v3.2h-.2c-2.7 0-4.6 1.7-4.6 5.4v5.1h-3.1z"/><path fill="#e6e6e6" d="m133.4 288.9h3.1v11.1l5.6-6h3.8l-5.4 5.5 5.5 8h-3.5l-4.1-5.8-1.9 1.9v3.9h-3.1z"/><path fill="#e6e6e6" d="m146 300.8c0-3.9 3.1-7 7.2-7s7.2 3.2 7.2 7-3.1 7-7.3 7c-4.1 0-7.1-3.1-7.1-7zm11.2 0c0-2.3-1.7-4.3-4.2-4.3s-4.1 2-4.1 4.3 1.7 4.3 4.1 4.3c2.6.1 4.2-1.9 4.2-4.3z"/><path fill="#e6e6e6" d="m162.4 302.6v-8.6h3.1v7.6c0 2.1 1.1 3.3 2.9 3.3s3-1.3 3-3.3v-7.6h3.1v13.4h-3.1v-2.1c-.8 1.3-2.1 2.3-4.2 2.3-3 .2-4.8-1.8-4.8-5z"/><path fill="#e6e6e6" d="m178.1 303.8v-7.1h-1.7v-2.7h1.7v-3.7h3.1v3.7h3.6v2.6h-3.6v6.6c0 1.2.6 1.7 1.7 1.7.7 0 1.3-.2 1.9-.5v2.5c-.8.5-1.7.7-2.8.7-2.3.1-3.9-.9-3.9-3.8z"/><path fill="#e6e6e6" d="m187.4 289.7h3.2v15h9.4v2.9h-12.5v-17.9z"/><path fill="#e6e6e6" d="m210.2 307.5v-1.7c-.9 1.1-2.3 2-4.4 2-2.6 0-4.8-1.4-4.8-4.2 0-3 2.3-4.4 5.4-4.4 1.7 0 2.6.2 3.7.5v-.2c0-1.9-1.2-2.9-3.3-2.9-1.5 0-2.6.3-3.9.8l-.8-2.5c1.5-.7 2.9-1.1 5.1-1.1 4 0 5.9 2.1 5.9 5.7v8zm.1-5.6c-.8-.3-1.9-.5-3.1-.5-2 0-3.1.8-3.1 2.1s1.1 2 2.6 2c2 0 3.5-1.1 3.5-2.9z"/><path fill="#e6e6e6" d="m219.2 305.5v2.1h-3.1v-18.7h3.1v7.4c1-1.4 2.4-2.5 4.5-2.5 3.2 0 6.3 2.5 6.3 7s-3.1 7-6.3 7c-2.2 0-3.6-1.1-4.5-2.3zm7.7-4.7c0-2.6-1.7-4.3-3.9-4.3s-3.9 1.7-3.9 4.4c0 2.6 1.8 4.3 3.9 4.3s3.9-1.7 3.9-4.4z"/><path fill="#e6e6e6" d="m231.2 305.8 1.4-2.1c1.4 1.1 3 1.7 4.4 1.7s2.1-.5 2.1-1.5-1.3-1.4-2.8-1.8c-.1 0-.2-.1-.2-.1-2-.6-4.2-1.4-4.2-4s2.1-4.1 4.8-4.1c1.7 0 3.5.6 5 1.5l-1.2 2.2c-1.3-.8-2.6-1.3-3.8-1.3s-1.9.5-1.9 1.4 1.3 1.4 2.8 1.8c.1 0 .2.1.2.1 2 .6 4.2 1.5 4.2 4 0 2.9-2.2 4.2-5 4.2-2 0-4.1-.7-5.8-2z"/><path fill="#e6e6e6" d="m360.6 298.6c0-5.1 4.1-9.2 9.3-9.2s9.2 4.2 9.2 9.2-4.1 9.2-9.3 9.2-9.2-4.2-9.2-9.2zm17.4-.1c0-4.5-3.5-8.2-8.2-8.2s-8.2 3.7-8.2 8.3c0 4.5 3.5 8.2 8.2 8.2s8.2-3.7 8.2-8.3zm-13.1-.1c0-2.8 2.1-5.1 5.1-5.1 1.9 0 2.9.6 3.9 1.5l-1.4 1.7c-.8-.7-1.5-1.1-2.5-1.1-1.7 0-2.8 1.4-2.8 3.1s1.1 3 2.8 3c1.1 0 1.7-.5 2.5-1.1l1.4 1.4c-1.1 1.1-2.1 1.7-4 1.7-2.8.1-5-2.2-5-5.1z"/><path fill="#e6e6e6" d="m380.5 289.7h3.4l4.2 13.2 4.4-13.3h2.6l4.4 13.3 4.2-13.2h3.3l-6.2 18h-2.7l-4.4-12.8-4.4 12.8h-2.7z"/><path fill="#e6e6e6" d="m406.7 300.8c0-3.9 3.1-7 7.2-7 4.2 0 7.2 3.2 7.2 7s-3.1 7-7.3 7c-4.1 0-7.1-3.1-7.1-7zm11.3 0c0-2.3-1.7-4.3-4.2-4.3s-4.1 2-4.1 4.3 1.7 4.3 4.1 4.3c2.7.1 4.2-1.9 4.2-4.3z"/><path fill="#e6e6e6" d="m423.3 294h3.1v3c.8-2 2.4-3.4 4.8-3.3v3.2h-.2c-2.7 0-4.6 1.7-4.6 5.4v5.1h-3.1z"/><path fill="#e6e6e6" d="m433 288.9h3.1v11.1l5.6-6h3.8l-5.4 5.5 5.5 8h-3.5l-4.1-5.8-1.9 2v3.9h-3.1z"/><path fill="#e6e6e6" d="m445.6 300.8c0-3.9 3.1-7 7.2-7 4.2 0 7.2 3.2 7.2 7s-3.1 7-7.3 7c-4.1 0-7.1-3.1-7.1-7zm11.3 0c0-2.3-1.7-4.3-4.2-4.3s-4.1 2-4.1 4.3 1.7 4.3 4.1 4.3c2.6.1 4.2-1.9 4.2-4.3z"/><path fill="#e6e6e6" d="m462.1 302.6v-8.6h3.1v7.6c0 2.1 1.1 3.3 2.9 3.3s3-1.3 3-3.3v-7.6h3.1v13.4h-3.1v-2.1c-.8 1.3-2.1 2.3-4.2 2.3-3.1.2-4.8-1.8-4.8-5z"/><path fill="#e6e6e6" d="m477.8 303.8v-7.1h-1.8v-2.7h1.7v-3.7h3.1v3.7h3.6v2.6h-3.6v6.6c0 1.2.6 1.7 1.7 1.7.7 0 1.3-.2 1.9-.5v2.5c-.8.5-1.7.7-2.8.7-2.2.1-3.8-.9-3.8-3.8z"/><path fill="#e6e6e6" d="m487.1 289.7h3.2v15h9.4v2.9h-12.5v-17.9z"/><path fill="#e6e6e6" d="m509.9 307.5v-1.7c-.9 1.1-2.3 2-4.4 2-2.6 0-4.8-1.4-4.8-4.2 0-3 2.3-4.4 5.4-4.4 1.7 0 2.6.2 3.7.5v-.2c0-1.9-1.2-2.9-3.3-2.9-1.5 0-2.6.3-3.9.8l-.8-2.5c1.5-.7 2.9-1.1 5.1-1.1 4 0 5.9 2.1 5.9 5.7v8zm.1-5.6c-.8-.3-1.9-.5-3.1-.5-2 0-3.1.8-3.1 2.1s1.1 2 2.6 2c2 0 3.5-1.1 3.5-2.9z"/><path fill="#e6e6e6" d="m518.8 305.5v2.1h-3.1v-18.7h3.1v7.4c1-1.4 2.4-2.5 4.5-2.5 3.2 0 6.3 2.5 6.3 7s-3.1 7-6.3 7c-2.2 0-3.5-1.1-4.5-2.3zm7.7-4.7c0-2.6-1.7-4.3-3.9-4.3s-3.9 1.7-3.9 4.4c0 2.6 1.8 4.3 3.9 4.3s3.9-1.7 3.9-4.4z"/><path fill="#e6e6e6" d="m530.8 305.8 1.4-2.1c1.4 1.1 3 1.7 4.4 1.7s2.1-.5 2.1-1.5-1.3-1.4-2.8-1.8c-.1 0-.2-.1-.2-.1-2-.6-4.2-1.4-4.2-4s2.1-4.1 4.8-4.1c1.7 0 3.5.6 5 1.5l-1.2 2.2c-1.3-.8-2.6-1.3-3.8-1.3s-1.9.5-1.9 1.4 1.3 1.4 2.8 1.8c.1 0 .2.1.2.1 2 .6 4.2 1.5 4.2 4 0 2.9-2.2 4.2-5 4.2-1.9 0-4.1-.7-5.8-2z"/><path fill="#e6e6e6" d="m659.5 298.6c0-5.1 4.1-9.2 9.3-9.2s9.2 4.2 9.2 9.2-4.1 9.2-9.3 9.2-9.2-4.2-9.2-9.2zm17.3-.1c0-4.5-3.5-8.2-8.2-8.2s-8.2 3.7-8.2 8.3c0 4.5 3.5 8.2 8.2 8.2 4.8 0 8.2-3.7 8.2-8.3zm-13-.1c0-2.8 2.1-5.1 5.1-5.1 1.9 0 2.9.6 3.9 1.5l-1.4 1.7c-.8-.7-1.5-1.1-2.5-1.1-1.7 0-2.8 1.4-2.8 3.1s1.1 3 2.8 3c1.1 0 1.7-.5 2.5-1.1l1.4 1.4c-1.1 1.1-2.1 1.7-4 1.7-2.9.1-5-2.2-5-5.1z"/><path fill="#e6e6e6" d="m679.3 289.7h3.4l4.2 13.2 4.4-13.3h2.6l4.4 13.3 4.2-13.2h3.3l-6.2 18h-2.6l-4.4-12.8-4.4 12.8h-2.7z"/><path fill="#e6e6e6" d="m705.5 300.8c0-3.9 3.1-7 7.2-7 4.2 0 7.2 3.2 7.2 7s-3.1 7-7.3 7c-4 0-7.1-3.1-7.1-7zm11.3 0c0-2.3-1.7-4.3-4.2-4.3s-4.1 2-4.1 4.3 1.7 4.3 4.1 4.3c2.7.1 4.2-1.9 4.2-4.3z"/><path fill="#e6e6e6" d="m722.1 294h3.1v3c.8-2 2.4-3.4 4.8-3.3v3.2h-.2c-2.7 0-4.6 1.7-4.6 5.4v5.1h-3.1z"/><path fill="#e6e6e6" d="m731.8 288.9h3.1v11.1l5.6-6h3.8l-5.4 5.5 5.5 8h-3.5l-4.1-5.8-1.9 2v3.9h-3.1z"/><path fill="#e6e6e6" d="m744.4 300.8c0-3.9 3.1-7 7.2-7 4.2 0 7.2 3.2 7.2 7s-3.1 7-7.3 7c-4.1 0-7.1-3.1-7.1-7zm11.3 0c0-2.3-1.7-4.3-4.2-4.3s-4.1 2-4.1 4.3 1.7 4.3 4.1 4.3c2.6.1 4.2-1.9 4.2-4.3z"/><path fill="#e6e6e6" d="m760.9 302.6v-8.6h3.1v7.6c0 2.1 1.1 3.3 2.9 3.3s3-1.3 3-3.3v-7.6h3.1v13.4h-3.1v-2.1c-.8 1.3-2.1 2.3-4.2 2.3-3.1.2-4.8-1.8-4.8-5z"/><path fill="#e6e6e6" d="m776.6 303.8v-7.1h-1.7v-2.7h1.7v-3.7h3.1v3.7h3.6v2.6h-3.6v6.6c0 1.2.6 1.7 1.7 1.7.7 0 1.3-.2 1.9-.5v2.5c-.8.5-1.7.7-2.8.7-2.3.1-3.9-.9-3.9-3.8z"/><path fill="#e6e6e6" d="m785.9 289.7h3.2v15h9.4v2.9h-12.5v-17.9z"/><path fill="#e6e6e6" d="m808.7 307.5v-1.7c-.9 1.1-2.3 2-4.4 2-2.6 0-4.8-1.4-4.8-4.2 0-3 2.3-4.4 5.4-4.4 1.7 0 2.6.2 3.7.5v-.2c0-1.9-1.2-2.9-3.3-2.9-1.5 0-2.6.3-3.9.8l-.8-2.5c1.5-.7 2.9-1.1 5.1-1.1 4 0 5.9 2.1 5.9 5.7v8zm.1-5.6c-.8-.3-1.9-.5-3.1-.5-2 0-3.1.8-3.1 2.1s1.1 2 2.6 2c2 0 3.5-1.1 3.5-2.9z"/><path fill="#e6e6e6" d="m817.6 305.5v2.1h-3.1v-18.7h3.1v7.4c1-1.4 2.4-2.5 4.5-2.5 3.2 0 6.3 2.5 6.3 7s-3.1 7-6.3 7c-2.1 0-3.5-1.1-4.5-2.3zm7.7-4.7c0-2.6-1.7-4.3-3.9-4.3-2.1 0-3.9 1.7-3.9 4.4 0 2.6 1.8 4.3 3.9 4.3 2.2 0 3.9-1.7 3.9-4.4z"/><path fill="#e6e6e6" d="m829.6 305.8 1.4-2.1c1.4 1.1 3 1.7 4.4 1.7s2.1-.5 2.1-1.5-1.3-1.4-2.8-1.8c-.1 0-.2-.1-.2-.1-2-.6-4.2-1.4-4.2-4s2.1-4.1 4.8-4.1c1.7 0 3.5.6 5 1.5l-1.2 2.2c-1.3-.8-2.6-1.3-3.8-1.3s-1.9.5-1.9 1.4 1.3 1.4 2.8 1.8c.1 0 .2.1.2.1 2 .6 4.2 1.5 4.2 4 0 2.9-2.2 4.2-5 4.2-1.9 0-4-.7-5.8-2z"/><path fill="#e6e6e6" d="m206.3 434.2c0-5.1 4.1-9.2 9.3-9.2s9.2 4.2 9.2 9.2-4.1 9.2-9.3 9.2-9.2-4.1-9.2-9.2zm17.4-.1c0-4.5-3.5-8.2-8.2-8.2s-8.2 3.7-8.2 8.3c0 4.5 3.5 8.2 8.2 8.2s8.2-3.7 8.2-8.3zm-13.1-.1c0-2.8 2.1-5.1 5.1-5.1 1.9 0 2.9.6 3.9 1.5l-1.4 1.7c-.8-.7-1.5-1.1-2.5-1.1-1.7 0-2.8 1.4-2.8 3.1s1.1 3 2.8 3c1.1 0 1.7-.5 2.5-1.1l1.4 1.4c-1.1 1.1-2.1 1.7-4 1.7-2.9.1-5-2.2-5-5.1z"/><path fill="#e6e6e6" d="m226.1 425.3h3.4l4.2 13.2 4.4-13.3h2.6l4.4 13.3 4.2-13.2h3.3l-6.2 18h-2.7l-4.4-12.8-4.4 12.8h-2.7z"/><path fill="#e6e6e6" d="m252.4 436.4c0-3.9 3.1-7 7.2-7 4.2 0 7.2 3.2 7.2 7s-3.1 7-7.3 7c-4.1 0-7.1-3.1-7.1-7zm11.2 0c0-2.3-1.7-4.3-4.2-4.3s-4.1 2-4.1 4.3 1.7 4.3 4.1 4.3c2.7.1 4.2-1.9 4.2-4.3z"/><path fill="#e6e6e6" d="m269 429.7h3.1v3c.8-2 2.4-3.4 4.8-3.3v3.2h-.2c-2.7 0-4.6 1.7-4.6 5.4v5.1h-3.1z"/><path fill="#e6e6e6" d="m278.6 424.5h3.1v11.1l5.6-6h3.8l-5.4 5.5 5.5 8h-3.5l-4.1-5.8-1.9 2v3.9h-3.1z"/><path fill="#e6e6e6" d="m291.3 436.4c0-3.9 3.1-7 7.2-7 4.2 0 7.2 3.2 7.2 7s-3.1 7-7.3 7c-4.1 0-7.1-3.1-7.1-7zm11.2 0c0-2.3-1.7-4.3-4.2-4.3s-4.1 2-4.1 4.3 1.7 4.3 4.1 4.3c2.6.1 4.2-1.9 4.2-4.3z"/><path fill="#e6e6e6" d="m307.7 438.2v-8.6h3.1v7.6c0 2.1 1.1 3.3 2.9 3.3s3-1.3 3-3.3v-7.6h3.1v13.4h-3.1v-2.1c-.8 1.3-2.1 2.3-4.2 2.3-3 .2-4.8-1.8-4.8-5z"/><path fill="#e6e6e6" d="m323.4 439.4v-7.1h-1.7v-2.6h1.7v-3.7h3.1v3.7h3.6v2.6h-3.6v6.6c0 1.2.6 1.7 1.7 1.7.7 0 1.3-.2 1.9-.5v2.5c-.8.5-1.7.7-2.8.7-2.3 0-3.9-.9-3.9-3.9z"/><path fill="#e6e6e6" d="m332.7 425.3h3.2v15h9.4v2.9h-12.5v-17.9z"/><path fill="#e6e6e6" d="m355.5 443.1v-1.7c-.9 1.1-2.3 2-4.4 2-2.6 0-4.8-1.4-4.8-4.2 0-3 2.3-4.4 5.4-4.4 1.7 0 2.6.2 3.7.5v-.2c0-1.9-1.2-2.9-3.3-2.9-1.5 0-2.6.3-3.9.8l-.8-2.5c1.5-.7 2.9-1.1 5.1-1.1 4 0 5.9 2.1 5.9 5.7v8zm.1-5.6c-.8-.3-1.9-.5-3.1-.5-2 0-3.1.8-3.1 2.1s1.1 2 2.6 2c2 0 3.5-1.1 3.5-2.9z"/><path fill="#e6e6e6" d="m364.4 441.1v2.1h-3.1v-18.7h3.1v7.4c1-1.4 2.4-2.5 4.5-2.5 3.2 0 6.3 2.5 6.3 7s-3.1 7-6.3 7c-2.1 0-3.5-1.1-4.5-2.3zm7.7-4.7c0-2.6-1.7-4.3-3.9-4.3-2.1 0-3.9 1.7-3.9 4.4 0 2.6 1.8 4.3 3.9 4.3 2.2 0 3.9-1.7 3.9-4.4z"/><path fill="#e6e6e6" d="m376.5 441.4 1.4-2.1c1.4 1.1 3 1.7 4.4 1.7s2.1-.5 2.1-1.5-1.3-1.4-2.8-1.8c-.1 0-.2-.1-.2-.1-2-.6-4.2-1.4-4.2-4s2.1-4.1 4.8-4.1c1.7 0 3.5.6 5 1.5l-1.2 2.2c-1.3-.8-2.6-1.3-3.8-1.3s-1.9.5-1.9 1.4 1.3 1.4 2.8 1.8c.1 0 .2.1.2.1 2 .6 4.2 1.5 4.2 4 0 2.9-2.2 4.2-5 4.2-2 0-4.1-.7-5.8-2z"/><path fill="#e6e6e6" d="m505.1 434.2c0-5.1 4.1-9.2 9.3-9.2s9.2 4.2 9.2 9.2-4.1 9.2-9.3 9.2-9.2-4.1-9.2-9.2zm17.4-.1c0-4.5-3.5-8.2-8.2-8.2s-8.2 3.7-8.2 8.3c0 4.5 3.5 8.2 8.2 8.2s8.2-3.7 8.2-8.3zm-13.1-.1c0-2.8 2.1-5.1 5.1-5.1 1.9 0 2.9.6 3.9 1.5l-1.4 1.7c-.8-.7-1.5-1.1-2.5-1.1-1.7 0-2.8 1.4-2.8 3.1s1.1 3 2.8 3c1.1 0 1.7-.5 2.5-1.1l1.4 1.4c-1.1 1.1-2.1 1.7-4 1.7-2.9.1-5-2.2-5-5.1z"/><path fill="#e6e6e6" d="m525 425.3h3.4l4.2 13.2 4.4-13.3h2.6l4.4 13.3 4.2-13.2h3.3l-6.2 18h-2.7l-4.4-12.8-4.4 12.8h-2.7z"/><path fill="#e6e6e6" d="m551.2 436.4c0-3.9 3.1-7 7.2-7 4.2 0 7.2 3.2 7.2 7s-3.1 7-7.3 7c-4.1 0-7.1-3.1-7.1-7zm11.2 0c0-2.3-1.7-4.3-4.2-4.3s-4.1 2-4.1 4.3 1.7 4.3 4.1 4.3c2.7.1 4.2-1.9 4.2-4.3z"/><path fill="#e6e6e6" d="m567.8 429.7h3.1v3c.8-2 2.4-3.4 4.8-3.3v3.2h-.2c-2.7 0-4.6 1.7-4.6 5.4v5.1h-3.1z"/><path fill="#e6e6e6" d="m577.5 424.5h3.1v11.1l5.6-6h3.8l-5.4 5.5 5.5 8h-3.5l-4.1-5.8-1.9 2v3.9h-3.1z"/><path fill="#e6e6e6" d="m590.1 436.4c0-3.9 3.1-7 7.2-7 4.2 0 7.2 3.2 7.2 7s-3.1 7-7.3 7c-4.1 0-7.1-3.1-7.1-7zm11.2 0c0-2.3-1.7-4.3-4.2-4.3s-4.1 2-4.1 4.3 1.7 4.3 4.1 4.3c2.6.1 4.2-1.9 4.2-4.3z"/><path fill="#e6e6e6" d="m606.5 438.2v-8.6h3.1v7.6c0 2.1 1.1 3.3 2.9 3.3s3-1.3 3-3.3v-7.6h3.1v13.4h-3.1v-2.1c-.8 1.3-2.1 2.3-4.2 2.3-3 .2-4.8-1.8-4.8-5z"/><path fill="#e6e6e6" d="m622.2 439.4v-7.1h-1.7v-2.6h1.7v-3.7h3.1v3.7h3.6v2.6h-3.6v6.6c0 1.2.6 1.7 1.7 1.7.7 0 1.3-.2 1.9-.5v2.5c-.8.5-1.7.7-2.8.7-2.3 0-3.9-.9-3.9-3.9z"/><path fill="#e6e6e6" d="m631.5 425.3h3.2v15h9.4v2.9h-12.5v-17.9z"/><path fill="#e6e6e6" d="m654.3 443.1v-1.7c-.9 1.1-2.3 2-4.4 2-2.6 0-4.8-1.4-4.8-4.2 0-3 2.3-4.4 5.4-4.4 1.7 0 2.6.2 3.7.5v-.2c0-1.9-1.2-2.9-3.3-2.9-1.5 0-2.6.3-3.9.8l-.8-2.5c1.5-.7 2.9-1.1 5.1-1.1 4 0 5.9 2.1 5.9 5.7v8zm.1-5.6c-.8-.3-1.9-.5-3.1-.5-2 0-3.1.8-3.1 2.1s1.1 2 2.6 2c2 0 3.5-1.1 3.5-2.9z"/><path fill="#e6e6e6" d="m663.3 441.1v2.1h-3.1v-18.7h3.1v7.4c1-1.4 2.4-2.5 4.5-2.5 3.2 0 6.3 2.5 6.3 7s-3.1 7-6.3 7c-2.2 0-3.6-1.1-4.5-2.3zm7.7-4.7c0-2.6-1.7-4.3-3.9-4.3s-3.9 1.7-3.9 4.4c0 2.6 1.8 4.3 3.9 4.3s3.9-1.7 3.9-4.4z"/><path fill="#e6e6e6" d="m675.3 441.4 1.4-2.1c1.4 1.1 3 1.7 4.4 1.7s2.1-.5 2.1-1.5-1.3-1.4-2.8-1.8c-.1 0-.2-.1-.2-.1-2-.6-4.2-1.4-4.2-4s2.1-4.1 4.8-4.1c1.7 0 3.5.6 5 1.5l-1.2 2.2c-1.3-.8-2.6-1.3-3.8-1.3s-1.9.5-1.9 1.4 1.3 1.4 2.8 1.8c.1 0 .2.1.2.1 2 .6 4.2 1.5 4.2 4 0 2.9-2.2 4.2-5 4.2-2 0-4.1-.7-5.8-2z"/></g>
</svg>
