<?xml version="1.0" encoding="utf-8"?>
<!-- Generator: Adobe Illustrator 23.0.1, SVG Export Plug-In . SVG Version: 6.00 Build 0)  -->
<svg version="1.2" baseProfile="tiny" id="Layer_1" xmlns="http://www.w3.org/2000/svg" xmlns:xlink="http://www.w3.org/1999/xlink"
	 x="0px" y="0px" viewBox="0 0 900 600" xml:space="preserve">
<g>
	<path d="M612.82,349.24C612.66,349.33,613.34,349.45,612.82,349.24L612.82,349.24z"/>
	<path d="M732.8,374.97c0.41-0.61,1.32-0.1,1.73-1.02c-0.81-0.92-1.73-1.93-1.02-3.77c3.66-2.04,2.14-5.19,1.02-8.14
		c0.71-1.53,1.32-2.95,2.04-4.38c-4.24-4.52-1.86-15.88-13.64-34.5c-2.95,0.2-4.07-0.1-6.31-1.53c3.46,0.61,3.46,0.61,5.8-0.1
		c-4.27-2.44-8.96-3.26-12.62-6.41c1.22-1.42,3.77-1.42,3.77-4.07c-2.34-3.05-4.58,0.41-6.82,0.41c-0.51-0.71-0.1-1.83-1.42-2.34
		c-1.22,0.81-2.54-0.1-3.56-0.51c-1.12,0.51-0.71,1.83-1.83,1.93c-3.85-3.37-1.31-2.18-6.11,1.93c-2.3-0.1-8.8,0.98-9.77,2.44
		c-1.82,2.73-22.37,17.46-22.39,17.51c-1.26,2.49-8.44,11.04-11.71,12.01c-5.89,1.75-2.09,4.65-6.31,5.39
		c-8.02,1.42-2.47-0.03-10.08-2.75c-9.99-3.57-13.75-5.72-22.6-2.95c-3.58,1.12-12.62-2.11-12.93-2.24
		c-9.71-4.1-20.02-1.07-25.14-0.61c-16.55,1.48-29.22,1.74-40.61,6.31c-21.47,8.61-31.1,8.51-44.48,16.49
		c-14.22,8.48-12.52,2.4-24.94,3.46c-2.27,5.04-23.79,6.25-26.26,10.28c-4.48,7.3-26.71,12-34.81,37.56
		c-3.46,1.42-3.66,1.63-6.51,6.11c-3.15,1.26-6.59,1.83-8.55,5.29c-0.66,1.17-18.01,9.89-23.61,13.94
		c-0.31,0.41-0.09,1.44-1.12,2.14c-11.05,7.55-12.7,4.37-28.09,7.02c-16.35,2.82-10.3-0.96-26.06,2.85
		c-6.61,1.6-8.2,4.96-22.29,12.32c-15.69,8.19-24.51,7.89-36.64,9.97c-8.19-8.19-10.1,1.17-21.68,5.6
		c-2.86,1.09-5.48,3.21-8.65,4.07c-7.59,2.05-4.63,27.89,11.6,32.88c0.51,0.2,0.92,0.81,1.53,0.51c0.41-0.31,0.31-1.02,0.92-0.81
		c4.82,3.75,1.12,5.95,1.12,16.9c0,12.41,16.03,18.91,18.02,18.63c1.75-0.25,23.05,1.48,25.24-3.16
		c6.25-13.21-6.07-15.06-7.63-12.72c1.12,2.04,3.66,1.83,5.09,3.36c2.16,8.97,0.81,8.94-9.47,10.08c-13.6,1.5-27.48-3-28.8-15.88
		c1.43-4.12,1.4-7.75,1.12-15.37c-9.11-11.18-7.57-6.01-9.26-5.8c-5.92-1.97-2.78-2.12-4.78-4.68c-4.15-5.33-7.18-16.25-4.17-20.66
		c2.14-0.61,16.22-7.73,19.64-10.79c0.58,1.16-1.94,5.3-0.31,10.99c1.08,3.75,8.02,5.47,9.06,7.23c1.51,2.55,4.17,3.26,6.62,4.58
		c1.63-1.73,3.97-1.93,5.7-2.95c2.85,0.92,5.8,0.2,8.86,0.92c-3.88,8.62,2.42,15.16-4.58,12.82c-4.23-1.15-5.54-3.06-6.51,1.32
		c1.83,3.05,5.6,2.24,8.75,4.38c-5.12,0.53-9.62-3.31-10.08,0.81c1.83,3.56,5.6,2.44,8.45,3.26c2.29,7.65-4.76-4.64-8.65,3.16
		c2.04,3.46,5.29,0.71,8.04,1.22c0.1,2.14-0.61,4.07-0.92,6.11c-1.63-2.95-4.07-3.87-6.82-2.65c-0.2,1.12,1.32,1.83,0.71,3.16
		c-0.08,0.1-11.22,4.5,6.01,1.42c2.04,0.51,2.65,3.16,4.99,2.75c1.02-2.14-1.42-3.05-1.53-4.38c0.31-6.82,3.26-12.62,4.89-19.14
		c-2.36-2.36,0.51-3.91,1.42-14.45c0.15-1.7-4.22-3.12,1.63-3.56c10.71-0.81,13.36-4.38,24.63-4.38c1.2,0,31.86-1.15,37.05-2.34
		c25.28-5.81,28.03-2.13,37.15-5.7c6.01,3.36,12.11-0.51,18.02-0.61c1.83,0.92,1.54,3.24,3.26,4.38c3.48,2.31,5.8,5.7,8.75,9.57
		c-4.68-1.22-8.75-2.34-12.62-3.36c-0.71-3.87-1.64-4.84-5.09-4.27c-4.06,0.67-7.85-0.38-14.45-0.71
		c-6.1-0.31-12.01,1.32-18.12,0.92c-1.72,0-1.99,4.38-4.07,5.7c-1.42,16.74-2.85,18.42,6.62,33.69c-1.02,3.56-0.61,7.43-2.24,10.89
		c-4.22,8.96-0.23,16.42,5.19,24.84c4.15,6.45,4.47,4.9,19.95,10.08c11.18,3.73,16.22-0.29,17.4,0.31c0.51,0.31,0,1.32,1.22,1.22
		c2.04-3.16,2.24-6.82,2.95-10.89c-4.27-3.87-9.97-7.02-10.89-15.06c0.51-2.44,1.53-6.21,5.09-8.75c0.98-0.81,3.46-5.89,7.12-12.93
		c2.73-5.23-5.65-4.38,14.76-3.05c6.6,0.94,49.65,38.82,95.07,30.23c7.55-1.43,7.6-4.44,13.13-11.5c5.75-7.33,1.87-11.89,2.14-15.06
		c0.98-11.72-5.46-16.27-6.92-22.7c-3.85-16.88-9.82-21.73-12.72-27.28c-4.03-7.71-7.42-15.88-13.33-22.6
		c-1.53-1.73-2.44-3.87-3.05-6.21c5.37-4.97,8.81-10.7,1.93-11.91c-1.73-0.31-3.16-0.92-4.27-2.44c-9.16,0.81-17.1-2.85-24.73-7.12
		c1.48,8.7,16.35,11.65,25.14,9.57c1.67,4.16,8.57,1.2,0.51,9.26c-4.3-8.07,1.75-0.74-14.86-5.09c3.36,3.16,7.12,4.89,12.01,3.56
		c0.77,4.89,3.61,3.88,3.56,6.41c-0.08,4.46,3.24,5.6,8.65,15.37c3.87,6.98,6.87,14.53,12.11,20.76c0.42,0.5,0.71,1.02,0.92,1.63
		c5.51,16.25,9.47,15.5,1.73,19.44c-9.82,5-34.03,14.25-42.65,7.63c-6.22-4.77-2.14-3.61-14.96-13.33
		c-38.89-29.48-36.36-39.67-40.41-45.9c-33.84-52.07,13.53-62.32,23-75.93c1.87-2.69-0.15-1.06,17-6.21
		c-4.31,12.61,1.63,14.71,1.83,23c0.04,1.63,1.22,3.26,2.24,5.6c-2.75-1.63-5.19-2.04-7.02-3.36c-0.51-2.54,1.22-5.29-1.83-7.12
		c0.92,2.24,1.02,4.27-0.1,6.41c-1.73,0-3.05-1.63-5.19-1.42c1.32,1.63,3.26,1.53,4.68,3.16c-2.04,0.31-3.36,1.73-4.89,2.54
		c-2.14,0.1-4.68-1.32-6.31,1.32c1.12,0.92,2.54-0.41,3.66,0.81c-1.12,1.32-3.05,1.83-4.07,4.17c2.54-1.63,4.58-2.85,6.62-4.17
		c6.96,1.61,16.91,6.58,20.05,13.03c3.96-3.24-4.94-9.99-11.2-12.42c-6.82-2.64-9.76-1.89-2.04-4.78
		c21.39,11.52,21.32,13.92,27.18,19.64c0.11,0.11,15.47,13.94,17.4,14.76c0.71,0.3,1.42-0.91,1.83-0.61
		c2.53,1.86,4.68,0.1,6.92-0.81c5.41,2.17,12.26-3.77,20.76-1.73c2.09,0.5,4.19-0.14,11.2-0.92c1.27,1.27-0.27,15.57,3.87,34.1
		c3.05,13.67-4.52,16.4-0.31,29.31c-9.31,55.86,6.19,66.02,8.35,94.15c0.72,9.41,15.96,8.48,25.85,6.62c9.97,3.49,6,2.92,13.54,4.27
		c2.65,0.48,3.97-2.24,6.41-2.44c6.82,3.56,11.09,3.56,15.06-0.31c-0.31-2.48-8.75-3.98-12.52-8.13c1.83-0.2,2.75,0.71,3.46,2.04
		c3.56,1.73,7.43,2.44,10.79,4.58c0.81-0.2,1.73-0.31,1.83-1.63c-1.02-1.32-2.65-1.53-4.17-2.04c-9.66-3.22-6.26-3.7-13.03-6.01
		c-10.48-3.57-7.61-7.52-15.78-6.82c-6.01,0.51-11.81-0.51-17.51-3.05c-8.63-25.88,17.07-63.98,10.59-99.75
		c-1.15-6.36,2.82-4.87,4.68-20.36c0.58-4.79,1.54-9.67,0.81-14.45c-0.6-3.97,0.71-7.43,1.02-11.2c11.89,1.73,12.97-2.97,19.54-0.61
		c3.21,1.15,4.96,0.27,9.26-0.51c0.79,2.83,2.27,20.32,5.9,30.43c1.72,4.78-0.69,4.33-1.42,10.28c-2.77,22.32,4.77,80.82,4.68,82.85
		c-0.22,5.24,2.37,4.02,2.95,10.18c0.38,4.04,1.15,9,5.19,9.47c3.94,0.45,6.17,4.28,11.09,1.93c1.42-1.73,0.31-3.56,1.12-5.09
		c1.83,0.51,3.66,0.39,5.5-0.1c14.99-4.04,20.62,3.84,28.6,4.07c2.72-4.18,7.87,1.81,11.71-2.75c0-4.08-4.26-2.68-9.67-6.01
		c-9.34-5.74-13.67-2.11-18.52-5.29c-5.3-3.47-12.96,0.41-18.73-3.16c0.1-2.65-2.34-4.48-2.44-6.41c0-3.08,2.51-5.02,2.24-9.57
		c-1.31-21.86,8.92-42.63,11.6-59.03c2.37-14.54-4.85-13.06-3.56-22.39c1.65-11.96-0.71-14.26-0.31-22.9
		c0.17-3.67,0.31-7.43,0-11.09c-5.03,3.77-0.61,0.56-2.85,41.53c10.94,6.7-8.93,43.93-8.65,70.33c0.2,18.87-1.05,12.54-3.32,17.82
		c-0.04,0.12-0.49,0.29,2.96-1.28c1.33-0.61,2.27,1.91,1.98,4.02c2.19,3.65,10.67,3.8,14.66,2.85c5.73-1.36,7.79,3.3,13.44,4.89
		c3.66,1.03,6.31,3.56,9.36,5.6c-4.21,0.45-8.07-1.96-11.81-3.16c-4.08-1.31-8.15-0.48-12.11-1.63c-0.76-0.22-1.77-2.58-2.48-1.48
		c-0.6,0.93,2.16,1.47-2.12,2.62c-5.67,1.52-0.03-1.92-6.31-0.52c-0.99,0.22-1-0.05-1,0.24c-0.01,1.64-0.11,1.61-0.71,1.58
		c-3.63-0.18-0.25-3.5-3.56-4.99c-0.4,1.13,0.5,2.15-0.31,3.46c-4.19-1.12-4.63,2.78-2.71,2.1c0.67-0.24,1.25-0.82,1.98-0.76
		c1.93,2.13,5.52,1.88,3.77,4.68c-4.82,1.52-6.05-3.48-9.36-2.54c-0.71,0.2-1.83-1.02-2.95-1.63c1.25-7.53-3.79-16.52-3.36-23.21
		c0.29-4.59-3.25-14.42-3.46-31.76c-0.39-32.51-4.37-28.75,1.02-48.45c2.77-10.13-5.76-7.42-4.48-37.15
		c10.33-5.87,6.06-2.35,9.17-3.03c4.98-1.66,7.39-3.73,11.9-4.3c-3.69-3.3-9.48,6.54,5.09-12.72c0.67-0.78,1.54,0.28,1.93-0.51
		c0.11-4.16,3.3-7.17,4.07-10.79c1.73,1.02,3.36,0.1,4.78,0.61c0.95,1.42,1.06,15.34-4.58,23.51c-0.89,1.29-0.81,2.7-0.71,4.27
		c6.01-10.01,10.42-15.1,8.55-27.28c4.07-0.71,4.07-0.71,6.51,0.41c1.12,3.46,3.68,6,5.7,8.96c4.76,6.97,10.54-1.08,12.21-1.32
		c4.89,1.42,5.6,1.22,7.94-2.65c-1.63-1.12-3.36-1.63-5.5-2.54c0.51,2.34,2.54,2.24,3.56,4.07c-4.89-0.71-9.57-0.51-13.33,2.65
		c-8.82-2.27-8.37-21.03-12.82-20.76c-0.2,2.85,0.92,5.5,1.12,8.55c-11.02,0.24-6.46-1.81-26.87,0.51c2.65,1.53,5.39,1.73,8.55,1.22
		c-1.69,5.93-14.23,13.9-19.44,17.1c-3.66,2.24-7.53,2.85-11.6,2.75c-0.81-0.2,0-1.73-1.53-1.32c0,0.92-0.81,1.83-0.41,2.95
		c1.36,2.5,13.54,1.75,30.43-13.64c-4.38,6.01-7.33,13.13-12.72,16.39c-10.08,3.26-18.63,5.9-27.79,7.33
		c1.53-1.93,4.27-1.73,5.9-4.07c-3.21,0.39-8.95,4.34-18.02,3.56c4.5-3.48,5.26-3.07,10.38-10.38c0.36-0.72,13.06-9.66,10.18-29.21
		c-1.54-10.47,2.83,1.5,2.24,11.5c-0.46,7.84-1.81,12.23-0.71,14.15c2.66-4.07,5.3-18.77-1.12-34c2.85-0.92,5.39-2.04,7.63-4.89
		c-2.95,0.71-4.99,2.14-7.74,1.53c-8.53-31.26-12.36-15.64-5.7-29.62c1.97-1.31,2.73-0.45,11.71,2.04c0.94,0.26,1.42,0.42,1.66,0.51
		c0.24-0.13,2.38-0.22,13.3,0.91c1.83,0.19,3.66,0.1,5.39-0.71c3.6,2.95,9.04,1.32-8.96,3.66c2.54,1.32,4.58,1.73,6.62,1.53
		c24.08-2.39,15.01-3.85,21.07-1.83c0.41,0.92,0.31,2.04,1.63,2.65c11.28-2.05,5.76,0.87,7.74,1.53c0.81,0,1.02-1.42,2.14-0.92
		c-0.51,1.93-1.46,3.68-0.81,5.5c1.06,2.97,0.71,6.11,1.63,9.06c-2.85,3.74-7.01,9.67-4.17,14.35c0.51-6.51,4.38-10.38,7.53-14.45
		c-2.65-3.16-1.32-7.23-3.16-10.38c1.22-2.14,1.22-4.78,3.56-6.01c0.63,1.27-0.68,1.25,1.93,0.81c0.81,0.81,0.71,2.75,2.54,2.54
		c0.41-0.71-0.81-1.32-0.2-2.04c2.35-2.35,2.87,3.08,1.93,5.29c-2.44-1.32-4.58-1.73-6.21,0.81c0.11,3.92,0.11,6.7,3.87,5.09
		c1.32-1.22,0.1-2.65,0.81-3.77c3.59-2.15,4.09,0.58,3.26-8.14c-1.99-2.1-4.49-0.38-6.61-1.09c2.82-1.99,3.48-3.21,9.25-1.15
		c1.22,3.05-0.31,6.01,1.12,8.75c-1.73,2.75-3.36,5.5-5.09,8.24c12.14-6.34,20.68-4.86,23.72-5.7c7.97-2.2,10.45,9.77,18.22,15.47
		c-9.07,10.12-7.25,7.88-9.36,6.62c-4.1-3.21-8.1-7.59-11.81-4.58c4.48,0.61,7.53,3.46,10.38,6.62c-2.34,4.89-4.68,9.47-7.02,14.35
		c-2.34-1.93-5.19-2.24-6.41-4.78c-2.43,1.87,3.04,3.42-4.48,5.09c3.16,2.34,4.27-1.22,6.31-1.42c2.04,0.31,2.95,2.24,4.99,2.95
		c4.27-4.27,4.78-10.59,8.65-15.06c5.19-0.61,6.62-6.11,10.79-8.55c1.63,1.32,3.78,0.18,5.6,1.32c1.74,1.1,3.66,1.32,4.99,0.41
		c2.95-0.1,5.29,2.44,7.74,0.31c-0.31-1.93-2.34-1.42-2.95-2.65c1.42-1.22,3.16,2.04,4.58-0.41
		C736.16,377.31,733.72,376.8,732.8,374.97z M239.46,488.36c0.41-3.77-1.53-8.24,3.97-10.79c0,3.04,0.4,3.74,0,5.19
		c-1.19,4.26,0.25,7.61,3.77,10.08C249.98,494.78,243.7,492.43,239.46,488.36z M269.28,498.64c0.4-0.8,0.18-0.62,0.81-0.31
		C269.79,498.63,270.21,499.01,269.28,498.64z M370.05,480.71c-2.95,1.24-12.52,2.06-15.67,1.42c-8.26-1.65-1.16,3.11-37.25,4.38
		c-22.94,0.81-28.36,2.31-35.93,4.17c-6.98,1.71-7.7-0.34-19.14,4.07c-4.71,1.82-6.79-0.23-12.32-3.96
		c-4.31-2.9-3.19-5.98-2.85-11.81c2.46-2.25,15.13-0.72,32.67-7.84c21.57-8.75,21.29-17.3,41.12-17.3c13.76,0,14.37-1.83,23.61-2.14
		c15.62-0.52,15.49-8.29,18.18-5.28c4.41,4.95,9.2,7.52,15.41,10.36c15.49,7.08,11.63,8.29,17,21.17
		C393.07,479.28,377.42,482.14,370.05,480.71z M393.15,481.43c0.92-0.92,1.83-1.02,2.95-1.02
		C405.96,498.82,397.61,484.93,393.15,481.43z M395.29,531.21c-3.68-1.76-8.31-2.13-9.45-1.79c-1.17,0.34-1.97,2.25-2.16,3.01
		c-2.17-0.1-2.16-0.08-3.97,1.02c0.61,3.87,4.17,5.09,12.21,4.07c-0.21,0.7-0.48,1.29-1.01,1.54c-0.47,0.21-7.65-0.08-10.39-1.23
		c-1.17-0.49-2.21-0.53-2.95,0.51c0.19,7.44,10.85,3.55,9.97,5.29c-0.67,1.59-1.12,2.14-1.12,2.24c-1.83,0.56-5.32-1.66-7.43,0.1
		c0.61,3.87,4.17,2.85,6.51,3.66c1.58,4.2-3.08,1.05-3.87,1.22c-0.61,2.65,0.41,3.26,4.27,2.34c2.95,4.48,6.62,8.45,10.99,11.5
		c0,2.04-0.81,3.66-1.12,5.19c-10.89,5.13-16.12,0.95-30.13-3.16c-5.34-1.56-9.99-12.15-11.3-16.79c-2.79-9.91,2.79-9.74,2.44-16.79
		c-0.1-2.04,0.2-3.87,1.83-5.5c-4.07-5.5-8.66-10.59-8.55-17.81c0.1-6.51-1.42-13.23,3.56-19.14c4.44,1.27,10.21-2.66,26.16,0
		c4.62,0.77,7.55-2.43,8.24,0.51c-2.38,0.79-9.45,3.11-11.3,3.66c-3.79,5.05-7.56,9.31-4.38,15.67c2.92,5.83,5.44,4.19,9.79,8.87
		c5.23,5.62-0.69,4.6,14.17,4.22C400.43,523.53,401.15,522.41,395.29,531.21z M380.53,514.31c-3.61-0.5-7.02-4.72-7.02-6.32
		c-1.09-4.09,1.03-7.05,4.17-9.86C375.8,503.93,377.24,509.16,380.53,514.31z M479.46,526.52c-0.74-3.05-3.97-4.91-3.31-5.82
		c0.09-0.12,29.21,1.32,41.69-13.11c10.26,31.37,7.52,28.61-1.53,42.44c-17.2,8.82-46.17-0.87-63.72-7.23
		c-10.46-3.79-33.55-27.22-59.54-21.58c-0.92,0.2-1.73,0.1-2.85-0.51c-0.71-1.93-2.65-3.26-4.17-4.78
		c-8.81-8.81-7.51-9.91-5.5-19.64c2.58-1.29,4.68-1.98,8.04-1.32c1.74,0.34,31.68,8.24,51.4,7.02c5.72-0.35,12.02,2.26,14.15,4.17
		C472.58,519.27,479.67,527.42,479.46,526.52z M446.89,500.37c-1.37,0.51-2.69,0.69-3.97,0c-2.9-1.18-17.35-0.2-39.43-4.55
		c-0.39-0.08,11.45-4.25,24.06-13.06C433.87,488.97,439.77,495.07,446.89,500.37z M404.25,445.4c-31.07-9.93,0.91,1.73,1.02,1.73
		c2.14,3.26,4.17,6.31,7.12,9.47c-10.15-0.8-25.53-4.54-27.28-4.89c11.27,4.83,21.7,6.92,26.67,6.92
		c7.32,13.91,5.64,12.07,13.64,21.78c-6.78,4.99-13.96,8.64-21.37,12.82c-1.26-0.67-1.5-1.4-2.24-2.24
		c2.08-1.43,1.74-2.51-2.75-11.81c-4.92-10.2-3.23-13.54-8.53-18.58c-5.48-5.21-21.13-8.25-27.3-17.05
		c22.97-13.65,23.01-13.14,23.51-14.15c1.83-3.66,5.39-4.89,8.96-6.21c1-1.8,2.17-3.63,4.46-5.39c0.48-0.37-1.28,6.88-0.28,14.25
		C400.47,436.55,402.21,440.72,404.25,445.4z M671.02,566.52c3.05,0.41,5.6,1.93,9.16,3.36
		C675.8,570.49,673.57,567.95,671.02,566.52z M466.64,372.54c-0.81-0.61-1.53-1.32-3.16-1.83
		C465.14,370.05,469.2,369.61,466.64,372.54z M465.32,373.24c-0.31,1.22-1.12,1.53-2.34,2.65
		C463.49,374.05,463.99,373.44,465.32,373.24z M457.78,373.61c1.33-0.16,0.13,1.26-1.21,1.26
		C456.88,374.09,457.19,373.67,457.78,373.61z M458.91,375.89c-0.92,0.92-1.73,1.32-3.26,1.22
		C456.87,376.29,457.58,375.89,458.91,375.89z M457.58,378.84c1.21-0.53,2.44-1.42,4.17-0.61c-2.14,1.12-4.17,2.34-6.31,3.46
		C454.54,379.36,456.44,379.33,457.58,378.84z M458.09,396.24c0.71-1.73,0.81-3.46-0.2-4.99c1.02-1.63,3.46-1.63,3.87-3.97
		c-2.05-0.51-4.78,3.24-5.01,2.32c-0.88-3.61,4.5-2.97,4.3-6.49c-3.57,0.89-4.54,4.01-4.98,3.45c-0.7-0.89-0.82-1.77-0.72-2.94
		c10.12-5.33,3.67-5.72,9.16,12.21c0.89,2.91-2.69,4.88-1.11,6.9c0.18,0.24-0.16,0.41,1.91-3.11c0.83-0.83,1.79,7.14,3.17,9.14
		C462.27,406.45,460.47,401.52,458.09,396.24z M602.42,399.3c-1.03,6.53-1.3,1.99-2.51,4.25c-1.8,3.37,1.54,1.44-2.14,7.12
		c-7.9,12.23-14.36,10.98-20.18,15.49c-2.64,21.09-2.05,26.65-6.72,46.31c-1.26,5.29,0.31,3.24,0.2,8.04
		c-0.77,36.32-1.28,29-3.66,37.25c-16.61,57.48-2.28,57.88-8.04,62.49c2.21,0.32,2.09-1.65,2.65-2.54
		c10.89,7.87,20.89,0.88,26.36,7.02c0.69,0.78,5.17,2.49,2.7,2.31c-3.11-0.23-8-2.86-6.95-1.11c1.29,2.15,3.05,2.78,10.36,4.09
		c2.54,3.77,7.12,4.78,11.6,6.92c-2.31,1.16-4.77,1.52-7.12,0.41c-10.67-5.02-8.43-1.47-24.73-10.79c-1.01-0.5-2.35-1.03-2.38,0.09
		c-0.04,1.47,4.55,2.88,8.18,6.22c2.84,2.61,7.31,0.52,9.06,4.89c-5.75,0-10.92-2.59-16.08-4.38c-5.19,2.15-24.89,2.46-22.49-6.41
		c2.01-7.46-15-38.39-10.08-70.23c0.97-6.28-1.03-3.31-0.41-7.94c1.01-7.52,3.16-11.26,0.2-21.99c1.93-4.27,2.27-9.05,3.56-13.54
		c0.73-2.54,0.22-5.19-0.51-7.74c-3.51-12.29-2.93-28.3-4.38-34.1c0.48-0.63,1.17-1.48,1.63-2.04c0-1.02-1.12-1.02-1.32-2.14
		c0.42-3.38,8.2-19.02,5.29-30.94c-1.47-6.04,1.28-10.45,2.95-19.14c-3.32,2.92-5.19,7.07-4.99,11.81c0.12,2.75-0.61,5.29-0.41,8.35
		c-6.96,0.7-12.3,1.37-17.51,1.02c-0.7-2.62,0.13-5.04,1.53-6.41c3.91-3.86,13.72-26.1,36.64-29.52c9.66-1.44,14.87-3.44,21.27,0.61
		c7.58,4.8,13.86,6.11,16.08,14.25C602.05,384.53,603.61,391.77,602.42,399.3z M527.61,411.31c-2.2-3.47-3.28-6.3-3.35-10.43
		c-0.01-0.47,4.25-1.01,7.11-0.16c11.88,3.49,13.89-7.61,7.94,15.27C534.73,415.89,530.4,415.72,527.61,411.31z M593.67,354.51
		c8.63,10.45,9.4,24.37,9.87,24.84c-2.36-1.33-3.43-8.36-8.35-11.6c-14.27-9.41-14.89-10.87-22.09-9.67
		c-13.54,2.27-31.01,2.4-42.24,23.21c-3.72,6.89-9.02,8.77-9.97,18.12c-0.16,1.52-2.85,6.41-1.71,5.91
		c0.89-0.39,1.84-2.61,1.96-1.73c1.76,7.42,5.91,12.95,12.98,15.77c1.42-0.1,2.54-0.81,3.87-0.31c0,2.57-1.63,6.47-1.42,10.18
		c-11.06,2.59-14.54-1.15-21.07,0.81c-3.76,1.13-7.54,2.18-11.6,1.73c-4.56-0.5-7.49,5.5-12.21-1.32
		c-3.86-5.58-10.7-9.36-17.3-16.69c-6.46-7.18-3.88-7.55-5.8-14.66c-1.06-3.93-5.24-17.62-4.78-21.48
		c6.74-3.53,7.39-4.62,10.28-4.58c10.03,0.13,10.04-6.25,38.98-14.76c27.93-8.21-6.17-2.88,51.6-13.13
		c6.31-1.12,12.82-1.02,19.14-2.34c2.92-0.61,10.46,2.9,14.25,2.75C595.72,347.87,594.56,351.91,593.67,354.51z M619.76,346.76
		c-0.59-0.01-1.17-0.23-1.67-0.3C620.42,345.62,621.78,346.81,619.76,346.76z M647.81,348c0.04-0.35,0.16-0.57,0.35-0.73
		c1.49-1.26,1.84,0.35,3.11,2.46C648.54,349.73,649.16,348.11,647.81,348z M658.3,351.46c1.22-0.31,2.34-0.61,4.27-1.12
		C660.03,353.09,660.03,353.09,658.3,351.46z M665.52,351.46c0.41-1.12,1.22-1.73,2.54-1.83
		C667.87,351.36,666.34,350.85,665.52,351.46z M695.25,316.34c-1.63,0.71-2.34-0.1-3.16-1.02
		C691.23,314.47,694.33,315.08,695.25,316.34z M681.69,322.55c-0.12,0.23-1.69,1.43-1.26,0.37
		C680.76,322.09,682.37,321.3,681.69,322.55z M682.62,333.85c0.51-0.92,1.42-0.61,2.75-1.12
		C684.35,333.95,683.54,333.95,682.62,333.85z M685.98,316.65c3.21-1.92,2.87,0.24,1.48,0.3
		C687.03,316.96,686.54,316.8,685.98,316.65z M687.97,347.36c0.05-0.67,0.92-0.71,1.07,0.44
		C688.32,348.06,687.91,348.09,687.97,347.36z M691.48,335.27c1.53-0.52,1.53-0.47,2.14,0.92
		C692.6,336.19,691.89,336.09,691.48,335.27z M693.25,328.78c0.91-0.25,1.07,0.14,2.01,1.3
		C691.32,330.68,691.35,329.31,693.25,328.78z M706.44,320.01c-0.81-0.81-1.53-1.32-2.14-1.93
		C705.15,316.39,708.23,317.02,706.44,320.01z M699.52,321.94c0.81,1.22,0.81,1.22,0.31,3.56
		C698.91,323.98,699.01,322.96,699.52,321.94z M701.76,343.72c-0.4-0.6,0.11-0.73,0.61-1.12
		C703.09,344.05,702.06,344.32,701.76,343.72z M699.11,332.63c4.38-2.92,3.04-2.86,5.19-0.41
		C700.39,332.44,699.43,332.63,699.11,332.63z M705.32,353.49c1.4,0.69,1.81,1.97,2.24,3.46c-1.32-0.71-1.93-1.93-3.36-2.44
		C704.69,354.11,704.9,353.82,705.32,353.49z M707.06,360.7c-0.51,0.05-0.89-0.51-1.64-0.39
		C707.37,357.19,708.44,360.56,707.06,360.7z M706.54,349.93c1.42-0.2,2.04,0.51,3.46,0.71
		C708.27,351.46,707.36,351.46,706.54,349.93z M716.44,353.72c0.9,0.79-0.7,1.51-1.65,2.22c-0.41-0.61-0.71-1.32-1.12-2.04
		C714.65,352.74,715.54,352.93,716.44,353.72z M714.18,369.17c1.02,1.12,2.04,2.34,3.36,3.87
		C715.6,371.92,714.58,370.8,714.18,369.17z M724.86,336.09c-0.81-0.2-1.73-0.31-2.54-0.51c0-1.42,1.12-1.12,1.73-1.73
		C724.68,334.59,725.19,335.15,724.86,336.09z M726.49,374.15c1.73,1.12,2.75,1.93,3.97,3.56C728.12,377.51,727,376.8,726.49,374.15
		z M727.61,355.12c2.44,0.71,3.36,2.14,5.09,3.26C729.76,357.99,729.31,357.74,727.61,355.12z"/>
	<path d="M734.23,66.46c0.41-0.81,1.53-0.1,1.83-1.32c-1.12-0.71-1.63-1.83-1.22-3.56c3.77-2.04,2.54-5.09,1.22-7.94
		c0.31-1.93,1.63-3.05,1.93-4.17c-0.45-2.72-0.2,2.97-4.38-14.35c-1.74-7.22-4.78-13.94-9.06-20.36c-2.24,0-4.58-0.1-6.82-1.73
		c2.14-0.41,4.07,1.83,6.31-0.1c-4.27-2.24-8.96-3.26-12.72-6.31c1.32-1.32,3.87-1.42,3.87-3.97c-2.34-3.05-4.48,0.2-6.92,0.41
		c-0.31-0.61-0.1-1.63-1.12-2.34c-1.22,0.31-2.75,0.2-3.97-0.71c-0.61,0.81-1.02,1.42-1.42,2.04c-1.02-0.41-1.32-1.93-2.85-1.83
		c-6.48,5.94,0.15,2.39-8.04,4.17c-1.83,0.4-4.05,0.42-5.19,1.83c-4.57,5.67-21.41,14.14-29.82,26.26
		c-1.13,1.62-2.44,2.65-4.38,3.26c-8.16,2.58,1.15,4.73-11.4,6.21c-1.32-1.93-3.46-2.86-5.7-3.66c-13.66-4.92-14.22-4.9-24.73-2.14
		c-3.97-1.53-8.44-1.95-12.62-3.56c-9.04-3.48-16.82,0.23-26.77-0.2c-2.08-0.09-15.06-0.48-19.64,0.81
		c-21.06,5.93-28.57,7.9-35.42,13.44c-2.36,1.9-36.74,27.19-39.7,27.79c-1.12-0.61-2.04-1.12-3.05-1.73
		c-12.5,1.72-7.1,3.56-6.92,4.17c-1.81,2.67-1.78,1.27,2.24,1.87c1.77,0.27-2.87,1.82-3.57,3.25c-0.54,1.1,2.09-0.4,2.76-0.03
		c1.32,0.44-2.96,1.37-5.29,3.47c0.2,1,0.71,0.6,1.32,0.4c9.47-3.16-0.45,2.33-1.12,3.87c1.47,0,6.06-4.02,3.87,1.83
		c-0.92,1.32-2.54,1.73-3.05,3.26c1.12,0.61,1.73-1.02,2.85-0.51c0.56,8.4-1.6,3.71-4.68,8.55c2.14-1.02,3.46-1.63,5.6-2.54
		c-0.92,2.04,0.92,3.46-0.81,4.89c0.68,1.58,0.02,0.6,1.83,9.06c-1.16,1.03-6.59,1.73,0.51,1.73c0.99,0.79,1.12,1.59,1.4,2.38
		c0.67,0.31,1.13,0.81,0.94,1.69c-1.63,0.71-3.66,0.2-4.99,1.73c1.32,0.62,2.73,0.16,4.07,0.16c-0.17,0.28-0.35,0.61-0.51,0.96
		c1.82,0.36,2.18-0.87,1.63-1.17c0.39-0.12,0.89-0.14,1.63,0.05c3.26,5.29,9.77,7.84,14.25,12.72c-0.92,0.81-1.93,0.61-2.34,1.42
		c1.99,1,4.58-0.94,4.58,1.32c-1.02,0.51-1.93,1.12-3.46,1.02c-2.01-1.61-5.09-1.83-7.03-4.27c-2.64-0.32-3.96-3.05-6.91-3.97
		c2.24,3.66,3.96,5.3,8.04,7.74c8.61,5.13,14.24,10.07,21.68,4.07c7.55-6.09,11.63-2.96,21.68-7.53c8.03-3.66,8.01,0.04,16.18-4.17
		c1.71,14.24,0.43,12.91,3.46,26.97c3.08,14.28-4.8,16.64-0.41,29.01c-8.8,60.35,6.12,64.87,8.55,94.76
		c0.21,2.65,1.85,4.44,4.38,5.5c9.62,4.03,20.97,0.37,21.07,0.41c8.63,3.57,13.94,6.54,20.15,1.83c6.92,3.56,12.11,3.46,15.37-0.51
		c-0.85-2.72-12.67-5.09-12.11-8.45c3.77,3.97,9.36,4.17,13.74,7.12c0.51-0.41,1.63-0.31,1.83-1.63c-1.16-2.32-7.62-2.29-11.4-5.39
		c-4.33-3.56-9.54-2.78-12.82-6.51c-5.9-6.72-12.77,0.01-26.36-6.41c-8.08-28.27,17.37-63.12,10.38-100.15
		c-0.99-5.23,2.91-4.65,4.78-20.05c0.57-4.69,1.52-9.36,0.81-14.05c-0.62-4.07,0.71-7.63,1.02-11.5c9.31,2.17,12.94-2.17,17.71-0.81
		c3.69,1.05,7.23,1.12,10.99-0.31c0.78,2.8,2.39,20.36,5.9,30.43c2.3,6.59-2.45,1.56-1.93,24.53c1.32,58.8,5.47,56.08,5.29,68.81
		c-0.03,1.83,0.2,3.77,1.42,5.29c2.14,2.68,1.21,6.64,1.83,8.86c1.73,6.14,3.47,4.71,9.47,7.33c2.34,1.02,4.89,1.53,7.12-0.61
		c0-1.53,0.1-2.85,0.2-4.48c4.96,1.74,12.36-4.29,24.73,1.22c13.34,5.94,7.9-0.44,14.35,1.42c6.7,1.93,9.21-3.24,3.97-4.68
		c-10.7-2.94-10.01-6.5-17.91-6.21c-5.11,0.19-6.77-2.3-12.01-3.26c-3.76-0.69-10.86,0.81-13.74-1.73
		c-0.31-2.65-2.44-4.58-2.75-7.12c0.1-1.22,0.72-2.14,1.12-3.16c3.13-7.93-1.95-9.8,4.78-35.52c4.94-18.87,12.18-33.64,5.9-43.66
		c-4.11-6.57,0.55-9.32-1.22-21.37c-1.03-6.99,0.09-13.99-0.5-20.98c8.54-10.55,9.72-18.62,8.44-27.27c2.34,0.1,4.48-0.81,6.51,0.81
		c1.12,3.36,3.67,5.9,5.7,8.86c4.97,7.23,10.44-1.17,12.82-1.32c3.05,1.83,5.7,0.81,7.74-1.93c1.02,0.31,1.73,1.02,2.95,0.71
		c1.32-0.41,2.14-2.04,3.56-2.44c2.14,0.2,3.05,2.24,5.19,2.85c4.17-4.17,4.68-10.48,8.45-14.86c5.19-0.71,6.82-6.01,10.89-8.65
		c1.53,1.53,3.66,0.1,5.5,1.32c1.83,1.22,3.97,1.22,5.29,0.51c2.95-0.1,5.09,2.24,7.43,0.41c0.2-1.02-0.51-1.32-0.71-1.83
		c-0.7-0.2-1.41-0.02-2.04-0.92c0.98-0.62,1.64-0.36,2.34,0.61C741.66,71.86,734.87,67.4,734.23,66.46z M718.55,44.68
		c-0.2,0.96-1.24,1.15-1.93,1.93c-0.06-0.1-1.02-1.85-1.02-2.14C717.13,43.77,717.13,43.77,718.55,44.68z M709.57,40.55
		c0.67,0.14,2.36,0.85,1.3,1.23C708.95,42.48,707.55,40.13,709.57,40.55z M709.9,50.59c-1.04,0.66-1.7,0.78-2.24-0.31
		C708.62,49.12,708.98,49.67,709.9,50.59z M707.15,43.97c1.63,1.42,1.63,1.42,2.34,3.87C706.43,43.76,706.35,44.78,707.15,43.97z
		 M708.58,8.35c0.65,0.77,0,3.67-2.44,0C707.15,7.74,707.97,7.63,708.58,8.35z M704.2,20.87c1.26,0.23,3.32,2.84-2.54,1.83
		C702.88,21.78,703.59,21.27,704.2,20.87z M702.57,8.86c0.31,0.1,0.41,0.41,0.2,0.61C701.8,10.44,701.38,8.53,702.57,8.86z
		 M701.1,13.29c0.55-2.46,1.46,0.57,0.67,2.89C701.04,15.22,700.86,14.38,701.1,13.29z M697.28,6.62c-1.93,0.31-1.93,0.31-3.56-1.63
		C695.14,5.7,696.06,6.11,697.28,6.62z M697.18,20.15c-1.12,1.12-2.14,0.1-3.16,0.2C695.05,18.99,696.08,18.78,697.18,20.15z
		 M694.47,26.69c-0.37-0.28-0.63-0.61-0.97-0.61C696.24,23.62,695.95,27.95,694.47,26.69z M689.85,37.56
		c0.81-0.31,0.81,0.31,1.73,1.12C689.95,38.58,689.55,38.37,689.85,37.56z M686.9,23.82c-0.81,0.27-1.59,0.81-2.75,0.71
		C684.97,23.61,685.88,23.61,686.9,23.82z M683.95,12.62c-0.22,0.87-0.68,1.2-1.53,0.92C682.62,12.82,682.93,12.21,683.95,12.62z
		 M670.21,40.1c-0.53,1.56-1.62,1.43-3.15,2.34C668.07,40.71,668.88,40.2,670.21,40.1z M663.49,41.63
		c-1.53,2.04-1.53,2.04-3.36,0.71C661.25,41.68,662.31,41.21,663.49,41.63z M653.01,40.2c-0.91,0.73-1.44,0.34-2.04-0.61
		c-0.41-0.81-1.42-0.2-1.93-0.81C651.07,36.16,651.75,38.32,653.01,40.2z M623.28,37.05c-1.53,0.61-2.44,0.41-3.77,0.2
		C620.84,36.85,621.76,36.95,623.28,37.05z M472.14,75.22c-0.18,0.37-0.3,0.73-0.46,1.1C469.9,75.38,470.98,74.64,472.14,75.22z
		 M489.04,140.45c2.34-0.1,4.07-0.81,5.39,0.81C492.34,142,492.19,141.95,489.04,140.45z M538.6,127.84c0,0.36-3.11,2.1-7.12,2.04
		c-8.42-0.14-9.35,1.89-9.35,1.32c0-1.15,1.36-1.53,0.6-3.05c-7.65,5.24-8.28,6.57-10.79,5.5c-0.71-0.31-1.64-0.11-2.14,0.41
		c-2.6,2.7-6.21,2.75-9.26,4.27c-4.02,2.01-6.19-0.04-24.33-15.78c-15.77-13.69-6.09-32.36-4.57-44.9c0.1-0.82-0.01-1.21,0.09-1.21
		c1.79,0.03,3.4-0.8,5.29-0.51c1.02,0.1,2.45-0.4,2.95-1.32c0.98-1.81,9.71-6.1,21.68-14.76c45.38-32.82,62.44-22.36,80.41-26.06
		c7.81-1.61,10.71,1.65,17.45,2.33c0.04,0,0.07-0.01,0.08-0.02c-0.09,0.06-1.09,0.97-4.06,8.71c-0.34,0.68,6.66,5.68,9.82,25
		c0.01,0.04,0.01,0.07,0.02,0.11c-1.63-0.71-1.53-2.24-2.24-3.26c-1.87-2.67-1.64-2.5-2.31-4.15c-3.91-5.86-9.62-7.48-17.03-12.85
		c-2.24-1.62-5.19-1.61-7.94-1.12c-0.1,0.02-21.9,3.51-23.61,4.48c-18.27,10.33-18.14,18.87-22.7,23.72
		c-7.49,7.96-4.81,10.75-9.26,19.64c1.73-0.41,1.53-1.83,2.54-2.34c1.2,1.79,0.61,7.06,8.55,13.44c4.53,3.64,8.04,1.53,7.91,1.14
		c-0.79-2.38-13.78-3.45-13.1-17.32c2.85-0.81,5.7-0.29,8.55,0.41c7,1.72,9.5-2.04,9.5,0.98C544.23,98.68,538.6,108.82,538.6,127.84
		z M579.59,117.09c-7.61,54.97-8.18,49.06-7.2,51.36c0.63,1.48,0.67,1.87-1.02,31.15c-0.33,5.79-8.71,25.25-10.48,49.26
		c-1.37,18.58,4.18,18.5-0.2,22.7c1.97-0.28,2.56-1.05,2.95-3.15c10.17,7.74,18.06,1.71,25.55,6.21c0.86,2.05,6.68,2.92,3.85,3.04
		c-2.5,0.11-8.3-2.52-7.27-0.95c1.18,1.8,1.77,1.92,10.95,4.32c2.24,3.97,7.12,4.38,10.99,6.72c-5.05,2.84-5.28,0.29-21.48-4.99
		c-4.6-1.5-11.63-7.8-12.38-5.6c-0.63,1.87,5.61,2.9,7.9,6.41c0.84,1.28,7.24,0.53,8.96,4.68c-5.78,0.45-11.15-2.63-16.29-4.27
		c-0.71,0-0.93,1.55-2.24,0.92c-0.82-0.39-2.03-0.09-2.95,0.1c-6.38,1.35-19.21-0.43-17.1-7.33c1.15-3.75-6.92-29.63-7.84-32.16
		c-2.12-5.87-1.87-7.64-2.65-24.63c-0.65-14.1,2-15.65,0-18.83c-0.44-0.71-0.31-1.33,0.71-6.92c1.5-8.17,1.32-8.35-0.51-17.71
		c1.24-2.55,4.81-15.25,3.16-20.46c-2.61-8.24-2.63-14.16-4.38-34.61c-0.61-7.13,2.95-9.23,5.6-22.9
		c2.67-13.77-2.77-10.29,1.12-24.12c0.63-2.23,1.63-4.48,1.83-7.63c-3.77,3.66-5.12,7.73-4.78,11.4c0.1,1.09-0.39,8.36-0.53,8.38
		c-5.81,0.77-11.55,1.5-17.59,0.89c0.21-6.16,2.3-6.19,4.27-9.16c7.57-12.77,19.36-24.18,34.1-26.46
		c9.81-1.52,15.05-3.25,20.87,0.41c8.41,5.29,14.63,6.62,16.79,15.17c1.49,5.87,4.54,19.34,0.92,25.55
		c-0.69-0.35-0.63-1.31-1.54,0.67c-1.21,2.63,0.99,1.44-1.15,5.4C592.37,115.02,580.07,113.64,579.59,117.09z M682.01,260.56
		c-4.48,0.61-6.82-2.44-9.87-3.77C675.4,257.51,678.45,258.94,682.01,260.56z M651.89,90.49c-0.45,21.52-6.57,18.74-5.91,24.44
		c-0.71,0.81-1.42,1.63-2.43,2.74c0.62,26.12-0.31,36.91-0.31,39.08c11.43,7.62-11.11,46.68-8.55,74.81
		c0.94,10.36-2.54,10.63-2.84,12.46c0,1.86,2.93-2.79,4.05,0.9c0.67,2.22-0.14,2.39,0.85,3.45c2.8,2.98,10.09,3.09,14.11,2.22
		c6.16-1.33,6.95,2.94,14.55,5.29c1.32,0.41,17.52,9.47,0.92,3.56c-12.55-4.46-14.44-0.94-17.94-4.42c-0.71-0.7-0.53-0.72-0.59-0.66
		c-1.1,0.92,0.52,1.32-0.09,2.23c-3.56,0.82-4.28,2.24-5.5-0.2h-0.01c-1.52-0.6-2.84,0.51-4.16,0.71c-0.2,0.51,0.41,1.02-0.2,1.42
		c-0.57,0.22-2.12-0.49-2.17-0.59c-0.54-1.44,0.39-3.58-1.9-4.3c-0.61,1.02,0.92,2.14-0.41,3.36c-1.32-0.2-3.15-0.61-3.66,1.82
		c0,1.3,2.54-0.41,3.16-0.3c1.62,1.26,3.76,2.17,3.88,2.23c1.73,3.12-2.3,3.39-3.36,2.44c-2.45-2.2-9.47-3.8-8.95-4.32
		c1.35-7.43-4.08-16.65-3.37-23.37c0.43-4.01-3.24-13.18-3.46-32.06c-0.38-32.33-4.38-27.77,1.02-47.74
		c2.97-10.98-6.3-8.49-4.38-37.25c8.86-5.32,5.98-2.85,8.65-2.85c3.97-1.22,7.63-3.77,12.42-4.78c-1.57-1.57-3.21,0.46-4.38-0.7
		c4.95-4.37,8.78-12.86,11.4-12.11c0.1-3.97,3.16-6.82,3.97-10.48C651.88,87.52,651.96,86.93,651.89,90.49z M713.98,72.36
		c-1.87,2.3-3.74,4.41-6.22,6.02c-6-4.63-9.19-8.26-13.01-6.35c-2.63,1.32,0.21-1.64,10.16,7.06c-1.97,4.03-6.79,13.98-7.12,14.66
		c-2.24-2.04-5.39-1.93-6.31-4.89c-1.51,0.86-0.41,2.23-0.41,3.05c-3.24,4.45-6.89-0.17-9.97-0.31c0.18,1.89,1.87,1.88,3.04,2.98
		c1.42,1.33-4.01,0.11-6.81,0.48c-2.34,0.31-4.27,1.73-6.21,2.85c-3.46-0.81-5.21-3.25-6.21-6.62c-0.21-0.7-4.04-13.17-5.85-14.17
		c-1.55-0.85,0.35,6.35,0.44,7.9c0,0.93-1.7,0.88-2.63,0.77c-3.76-0.44-7.63,0.31-11.4-0.81c-0.2,0-0.51-0.2-0.71-0.1
		c-4.38,2.09-9.78,0.56-14.45,3.05c3.87,0,7.23,0,10.89,0c-2.03,6.09-20.18,19.85-30.43,19.85c-1.26,0-0.98-2.77-2.12-1.38
		c-4.71,5.74,9.82,4.07,16.88-0.85c18.89-13.19,12.85-10.71,6.82-0.42c-1.84,3.15-4.89,5.19-6.92,6.92
		c-42.23,12.85-22.77,5.03-21.07,2.95c-3.76,0.47-6.1,2.3-8.96,2.75c-15.22,2.41-7.05,0.49-3.56-3.87
		c8.55-10.68,17.59-15.68,14.45-37.66c0-1.53-0.08-1.36,0.2-0.87c4.32,7.55,2.08,17.98,1.22,28.45c1.44,0,1.49-0.88,1.73-1.83
		c2.55-10.1,3.23-14.39-3.97-40.71c-6.34-23.2-10.81-9.62-4.08-23.82c0.97,0,0.07-1.65,5.5,0.31c7.4,2.67,15.07,1.92,22.6,3.16
		c4.4,0.72,0.7-2.52,8.35,1.12c-3.39,0.51-12.7,1.82-12.82,1.83c4.22,3.22,21.28-0.42,24.22-1.42c0.92,0,1.83,1.22,3.05,0.51
		c0.41,1.12-0.1,2.44,1.53,3.05c10.54-1.44,6.41,0.24,7.33,1.53c1.22,0.51,1.12-1.32,2.24-1.22c0.1,0,0.31,0.2,0.31,0.31
		c-2.42,4.52,0.71,10.15,0.71,14.35c-4.19,6.53-6.24,10.21-4.07,14.25c0-5.18,5.4-11.95,7.63-13.95c-2.77-2.78-1.44-7.26-3.26-10.59
		c1.4-2.6,1.25-5.23,4.06-6.27c-0.1,0.39-0.3,0.78-0.39,1.17c0.61,0.81,1.23-0.01,1.53,0.2c0.73,0.51,2.18,3.51,3.05,2.34
		c0.21-0.72-0.91-1.15-0.51-2.14c0.73-0.18,1.27-0.58,2.14-0.1c0,1.46,0.58,3.66-0.2,5.5c-2.42-1.47-4.66-1.55-6.31,0.81
		c0.51,1.73-0.41,3.66,0.92,5.29c4.95,1.24,3.43-3.23,3.77-3.97c1.75-1.16,5.71-0.1,3.05-8.86c-3.57-0.74-6.45-0.32-6.91-0.32
		c2.42-2.41,5.66-2.01,8.74-0.8c1.63,2.85-0.41,5.9,1.32,8.45c-1.32,3.05-3.56,5.5-4.89,8.75c2.65-1.53,5.7-2.14,8.35-3.56
		c3.33-1.8,4.46-0.91,15.98-2.34c2.54-0.32,4.51,0.48,6.11,2.54c1.87,2.41,4.03,4.6,5.6,7.33
		C714.48,72.33,717.13,68.49,713.98,72.36z M715.3,58.73c1.42,1.53,2.85,3.05,3.97,4.48C717.54,62.7,717.33,62.49,715.3,58.73z
		 M725.78,24.53c1.02,0.41,0.92,1.53,1.93,3.05c-1.63-0.92-2.75-1.22-3.87-1.32C724.05,24.84,725.07,24.84,725.78,24.53z
		 M727.72,45.69c-0.5,0.06-0.82-0.51-1.44-1.41C727.89,45.15,728.92,45.55,727.72,45.69z M728.53,64.94
		c1.53,0.92,2.65,1.63,3.56,3.36C729.95,67.89,728.63,67.48,728.53,64.94z M729.55,45.7c2.24,0.92,3.36,2.14,4.27,3.56
		C732.4,48.45,730.36,48.35,729.55,45.7z"/>
	<path d="M469.29,118.27l0.1,0.1C469.37,118.33,469.4,118.31,469.29,118.27z"/>
	<path d="M478.08,133.88C478.04,133.84,478.03,133.83,478.08,133.88L478.08,133.88z"/>
	<path d="M478.08,133.88c0.02,0.02,0.03,0.04,0.05,0.06h0.01C478.11,133.92,478.1,133.9,478.08,133.88z"/>
	<path d="M461.65,85.4C461.54,85.51,461.5,85.55,461.65,85.4L461.65,85.4z"/>
	<path d="M612.19,107.18l-0.1,0.1C612.13,107.28,612.17,107.22,612.19,107.18z"/>
	<path d="M413.84,184.38C413.84,184.31,413.81,184.31,413.84,184.38L413.84,184.38z"/>
	<path d="M209.94,232.17c-1.22-0.41-2.54,0.1-3.66-0.71c-1.02-2.04,0-4.07,0.1-5.8c1.24-2.68,2.13,0.83,5.5-14.25
		c1.33-5.95,6.73-5.65,5.29-13.33c-0.92-1.83-2.75-1.32-3.66-2.54c1.93-1.22,3.56-2.65,6.21-3.46c-1.22,7.94,2.24,13.94,5.7,19.75
		c-8.15,23.64,13.33,33.44,38.07,28.09c3.86-0.84,5.09-3.36,3.66-7.23c-2.75,4.48-2.75,4.55-8.35,5.39
		c-19.3,2.93-37.14-3.51-30.53-23.31c2.17-6.49-4.88-9.04-5.5-12.93c-0.53-3.35-1.32-6.82-1.02-10.69
		c7.63-2.24,15.47-3.36,23.51-4.27c0.51,2.24,1.83,3.56,3.97,3.36c1.32-0.2,2.04,0.92,3.26,1.32c3.37-4.12,1.01-3.6,12.42-1.53
		c0,5.29-5.29,6.41-6.51,10.18c-6.52-1.12-10.5-4.97-11.2-0.1c2.44,3.77,7.12,2.85,10.69,4.38c0.45,3.16-1,0.92-4.48,0.2
		c-3.97-0.82-6.49-2.14-7.12,0.61c1.73,3.05,4.17,3.87,9.97,3.16c-0.2,1.22-0.92,2.14-1.63,3.46c-7.41-7.41-12.47,2.98-4.38,1.73
		c1.22-0.19,2.54-1.02,3.87-0.41c-1.12,8.04-0.41,9.77,4.17,10.38c0.81-1.83-1.32-2.75-1.63-4.48c0.93-4.64,3.16-16.59,7.84-21.58
		c2.12-2.26,3.66-4.68,2.75-7.84c1.73-1.44,1.92-1.24,0.1-3.05c6.64-4.21,39.59-7.03,39.7-7.02c15.32,0.97,15.73,2.47,23.41,0.1
		c0.61,5.1,1.8,7.92,6.21,19.24c8.97,23.02,10.68,10.97,10.79,10.89c13.13-2.54,25.85-7.12,38.37-11.91
		c6.61,3.97,14.41,8.15,19.95,3.56c3.47-2.88,20.12-13.83,28.8-16.79c15.82-5.39,17.44-11.92,24.73-13.74
		c4.84-0.81,8.39-0.14,32.47-24.22c0.51-0.51,1.12-1.12,0.2-2.04c-20.73,15.55-24.56,21.45-29.21,22.6
		c-6.23,1.53-30.56,8.09-46.21,14.96c-10.56,4.63,36.17-9.92,34.16-8.27c-2.76,2.25-10.95,6.64-14.31,7.77
		c-13.43,4.5-22.64,12.08-34.91,19.75c-4.06-0.36-8.71-2.56-12.42-4.68c27.34-12.08,26.82-9.2,24.81-12.37
		c-0.03-0.05-0.04-0.08-0.05-0.1c0.01,0.18-0.16,0.83-2.27,1.58c-18.92,6.73-37.59,14.11-57,19.14c-3.06,0.79-6.11,1.73-8.55,4.17
		c-4.63-3.6-6.14-13.96-10.48-22.8c-1.5-3.06-2.14-6.31-0.81-9.57c-4.38-12.11-7.33-24.53-12.01-36.44
		c12.18-4.57,17.36-7.2,21.07-9.16c6.26-3.32,17.07-3.55,37.97-16.59c5.38-3.36,7.75-3.81,13.74-6.21
		c3.56,2.95,13.84,2.44,17.2-1.22c-26.27,0-10.87,1.35-8.75-10.38c1.09-6.02,5.26-2.03,26.67-14.05c9.73-5.46,27.86-2.21,32.26-6.57
		c-0.05,0.03,0.02,0.04-0.05,0.12c-4.39,12.63-2.87,9.85-1.47,8.79c0.2-2.43,1.02-4.77,2.83-6.6c-0.49-0.31-0.59-0.77-0.59-1.34
		c0-1.08-0.81-0.61-0.61-1.02c-0.06,0.02-0.09,0.03-0.11,0.04c0,0,0.01-0.01,0.01-0.01c1.79-3.65-0.88-0.7-7.63,0.38
		c-8.41,1.34-15.63-0.1-21.07,2.04c-22.58,8.86-18.31,10.79-24.94,12.01c-13.93,2.56-1.43,10.49-21.48,18.93
		c-7.9,3.33-4.29,3.1-10.08,5.9c-30.77,14.9-28.22,10.52-32.16,12.52c-17.33,8.79-24.16,8.76-26.06,12.32
		c-3.16,0-5.9,0.52-8.65,1.53c-6.81,2.48-13.94,1.44-20.97,1.53c-23.36,0.27-32.06,6.49-46.21,14.86
		c-8.34,4.93-19.18,8.21-37.97,13.64c-5.97,2.17-1.55-0.61-6.72-2.54c-3.26-1.22-6.41-0.5-9.47,0.51
		c-1.76,0.58-23.86,6.62-25.45,7.74c-0.1,3.16-1.24,6.31-1.83,9.57c-3.25,17.82,11.33,17.1,7.12,37.56
		c-3.9,18.98,22.31,38.61,50.17,22.7C222.62,237.37,217.16,237.86,209.94,232.17z M247.4,187.08c1.11-1.11,2.48-1.03,4.07-1.22
		C254.88,189.87,251.02,186.86,247.4,187.08z M261.55,186.26c-1.24,0-2.22-0.03-3.37-0.48c-2.17-0.85-1.09-0.57,5.59-1.64
		C264.18,184.04,263.47,184.34,261.55,186.26z M217.08,244.07c-0.57,3.36,1.42,0.31-5.2,5.61c-9.41-0.78-19.96,3.65-34.2-7.63
		c-12.79-10.13-0.78-21.03-6.31-31.96c-6.89-13.62-8.76-13.98-6.72-23c2.03-8.97,0.94-8.1,3.22-8.73c1.81-0.5,6.58-0.66,8.08-1.34
		c0.1,0,1.16-0.61,4.43-1.73c17.44-5.99,16.4-4.51,19.19-2.34c0.31,1.02-1.32,1.02-1.02,2.14c1.26,2.37,2.21,0.45,33.73-8.73
		c11.19-3.26,23.82-13.9,29.37-15.71c32.55-10.56,41.11-3.24,51.1-7.33c2.46-1.01,4.91-1.53,8.14-1.53
		c9.45,32.41,8.84,29.23,6.65,30.28c-3.03,1.45-5.31,0.57-7.11,1.31c-1.18,0.49-2.82,2.21-0.77,1.56c0.7-0.22,2.53-1.74,2.79-1.49
		c2.64,1.43,5.06,1.24,7.22-0.42c0.89,1.78,1.73,3.17,1.45,5.22c-0.09,0.66,0.36-0.62-3.98,0.38c-1.22-3.04-1.22-0.27-2.04,0
		c-2.35,0.47-4.68-0.6-13.64,0.41c-2.03,0.23-3.87-0.31-5.39-1.42c-3.05,0.41-5.8,0.71-8.86,1.12c0.54-0.97,5.94-4.02,3.7-3.45
		c-15.39,3.89,14.04,2.49-52.45,8.34c-11.6,1.02-30.33,3.67-38.58,11.91c-1.67-0.62-3.08-1.29-4.78-0.61
		c-7.84-5.39-8.65-6.41-8.55-11.4c4.17-2.85,8.42-5.07,13.44-6.21c-6.74,0-7.38,1.31-12.83,2.74c0-2.58,0.43-7.37-1.2-7.15
		c-1,0.14-1.21,1.08-1.55,1.75c-1.42,2.85-3.17,5.37-5.9,7.02c-4.33,2.61-3.52,16.05,7.63,20.15c3.39,1.25,4.03-1.09,8.31-3.44
		c0.1-0.06,2.28-1.13,2.38-1.03c2.06,2.1,5.18,1.72,7.93,3.15c-0.2,1.93-1.6,3.47-2.14,5.29c-0.55,1.86-3.56,2.38-3.56,4.29
		c-13-1.69-11.04-1.57-11.91-0.41c2.54,3.56,6.31,3.26,10.08,3.46c0,1.71-0.81,3.15-0.92,3.46c-5.43-1.42-7.13-2.36-8.18-2.26
		c-2.46,0.24-2.92,5.02,7.67,5.31c0.23,1.47-0.15,2.84-0.81,3.77c-2.59-1.4-4.77-2.06-7.12-0.2c1.12,2.95,1.22,3.05,5.8,2.65
		c-0.6,1.5-1.28,2.99-0.64,4.77c0.2,0.82-3.27-1.25-4.14-1.39c-0.15-0.05-1.78,1.14-4.89,1.71c2.54,1.63,4.89,3.76,7.84,3.46
		c2.91-0.3,5.16,2.33,7.92,1.3c0.04-0.02,0.43-0.19,0.46-0.16C214.81,238.73,217.92,239.11,217.08,244.07z M198.85,199.49
		c-10.16-5.08-10.61-4.97-9.26-14.86c1.4-1.6,3.61-2.49,4.99-4.78c0.53,7.94-0.3,10.59,3.56,14.15
		C202.21,197.76,202.47,195.87,198.85,199.49z"/>
	<path d="M451.58,147.69c2.75-2.04,6.09-2.59,9.06-3.97c12.18-5.67,12.76-11.85,8.86-10.79c0.38,2.31-1.03,3.58-18.52,13.74
		C451.17,147.08,451.27,147.38,451.58,147.69z"/>
	<path d="M437.02,416.19c-2.34,7.02,0.81,13.03,2.95,19.34c1.32-1.73,0.33-3.37-0.31-4.89c-3.47-8.29-1.11-13.97-1.73-15.37
		c-5.39-1.32-10.28-3.36-15.37-5.09C426.33,414.36,432.03,414.05,437.02,416.19z"/>
	<path d="M407.4,426.17c4.68,7.82,33.5,18.66,35.32,17.51C403.87,428.13,412.87,427.45,407.4,426.17z"/>
	<path d="M422.57,120.1c-0.1,0.02-28.64,3.55-35.01,7.12C387.94,127.42,422.46,120.2,422.57,120.1z"/>
	<path d="M261.04,224.23c-0.71-0.1-1.53-0.1-1.83,1.02c2.3,3.37,6.17,0.93,6.72,6.41C271.31,227.25,267.04,225.83,261.04,224.23z"/>
	<path d="M413.31,450.29c-0.81,1.63,19.8,8.28,26.46,9.67C430.91,456.7,422.16,453.55,413.31,450.29z"/>
	<path d="M446.69,393.49c-7.17-6.15-9.66-8.95-10.18-6.11c3.66,3.16,7.43,6.21,11.6,9.67C448.22,395.02,447.4,394.21,446.69,393.49z
		"/>
	<path d="M457.38,97.92c-2.24,6.92-0.2,13.23,2.75,19.54C458.4,111.05,456.87,104.63,457.38,97.92z"/>
	<path d="M701.15,388.3c-5.96,2.17-10.95-6.77-6.11,1.53c1.53,0.51,2.95,0.92,4.17,1.32C700.33,390.54,701.25,389.93,701.15,388.3z"
		/>
	<path d="M421.86,401.33c4.07-0.92,8.14-0.61,12.01-1.53C429.59,398.07,425.62,398.99,421.86,401.33z"/>
	<path d="M444.86,83.56c4.78,1.22,9.36,1.12,13.94,0.81C454.32,83.06,447.61,82.75,444.86,83.56z"/>
	<path d="M409.74,96.9c2.54,0.61,6.31,0.51,9.26-0.41C416.05,96.49,413.2,93.74,409.74,96.9z"/>
	<path d="M656.36,379.24c-3.26,2.04-4.48,3.66-4.78,6.62C653.92,384.13,655.96,382.5,656.36,379.24z"/>
	<path d="M418.09,106.57c2.95,2.04,4.48,2.14,8.24,0.31C418.36,106.87,419.75,105.74,418.09,106.57z"/>
	<path d="M487.4,452.02c-2.75-1.32-5.7-1.22-8.65-0.71C481.6,452.63,484.45,452.43,487.4,452.02z"/>
	<path d="M243.43,222.09c2.44-0.31,4.78,1.12,6.72-1.12C247.81,219.65,246.18,219.85,243.43,222.09z"/>
	<path d="M456.56,90.08c-3.26,0.41-6.72-0.1-10.18,1.93C458.13,91.06,456.99,91.35,456.56,90.08z"/>
	<path d="M246.28,216.49c2.04,2.54,2.75,2.65,6.01,0.71C250.25,216.8,248.62,215.37,246.28,216.49z"/>
	<path d="M459.92,159.7c3.42-1.44,8.61-6.76,10.59-9.36C466.09,153.22,460.73,158.71,459.92,159.7z"/>
	<path d="M628.58,392.98c-2.04-0.71-4.07-1.53-6.31,0.1C625.73,393.9,625.73,393.9,628.58,392.98z"/>
	<path d="M459.11,130.28c-1.02,1.83-3.16,2.75-4.17,4.68C456.97,133.95,458.8,132.83,459.11,130.28z"/>
	<path d="M454.63,420.98c-0.81-1.22-1.93-2.24-4.17-2.34C451.78,420.26,452.9,421.08,454.63,420.98z"/>
	<path d="M641.4,368.45c-2.04,0.92-2.54,2.44-3.16,4.07C639.37,371.41,641.5,371,641.4,368.45z"/>
	<path d="M646.59,363.67c1.42-1.12,2.65-2.24,3.36-3.97C647.92,360.11,647.41,360.62,646.59,363.67z"/>
	<path d="M371.37,135.17c2.14-0.2,3.77-1.42,5.39-2.65C374.93,133.23,372.9,133.64,371.37,135.17z"/>
	<path d="M611.99,350.95c1.53,0.31,2.85,1.53,4.99,0.71C614.23,350.74,614.23,350.74,611.99,350.95z"/>
	<path d="M611.78,412.93c-1.83,1.22-1.83,1.22-1.93,3.26C610.66,415.07,611.58,414.36,611.78,412.93z"/>
	<path d="M476.82,503.32c0.41,1.32,1.42,2.24,2.65,2.95C478.96,504.95,478.04,503.93,476.82,503.32z"/>
	<path d="M453.31,97.2c-1.02,0.81-2.14,1.63-3.26,2.44C451.68,99.65,452.9,99.03,453.31,97.2z"/>
	<path d="M465.11,112.47c-1.32-1.02-2.24-0.31-3.77,0.81C463.08,113.49,464.3,113.9,465.11,112.47z"/>
	<path d="M474.27,130.28c1.22,0,2.14-0.31,3.46-1.12C475.9,128.76,475.09,129.06,474.27,130.28z"/>
	<path d="M603.74,422.3c-0.52,0.52,0.16,2.2,2.34-0.92C604.76,421.08,604.15,421.59,603.74,422.3z"/>
	<path d="M481.7,131.81c-1.88,0.3-3.29-0.06-3.92,1.71C479.06,133.35,480.33,133.38,481.7,131.81z"/>
	<path d="M477.73,133.64c0.01-0.05,0.04-0.08,0.05-0.12C477.61,133.55,477.59,133.49,477.73,133.64z"/>
	<path d="M431.22,151.15c1.13-0.35,4.02-1.27,3.16-2.14C433.05,149.32,431.93,150.03,431.22,151.15z"/>
	<path d="M646.9,389.93c1.53-0.31,2.34-0.61,2.85-2.14C648.43,388.1,647.61,388.51,646.9,389.93z"/>
	<path d="M465.32,119.29c1.63,0,2.65-0.51,3.56-1.22C467.66,117.86,466.44,117.46,465.32,119.29z"/>
	<path d="M462.87,438.79c-0.41-0.71-1.12-0.92-2.44-1.42C461.25,438.58,461.86,439.19,462.87,438.79z"/>
	<path d="M434.88,471.66l0.1-0.1C434.77,471.52,434.82,471.5,434.88,471.66z"/>
	<path d="M434.82,471.53c-0.53-1.32-1.62-1.81-2.89-2.11C432.42,470.79,433.56,471.31,434.82,471.53z"/>
	<path d="M475.6,501.69c-0.41-1.02-0.81-2.04-2.04-2.44C473.77,500.37,474.58,501.08,475.6,501.69z"/>
	<path d="M618.91,372.12c-3.05-0.34-2.33,1.98-1.02,1.32C618.4,373.14,619.01,373.04,618.91,372.12z"/>
	<path d="M363.33,138.32c-1.12-0.2-1.83,0.41-2.75,0.92C361.8,139.44,362.62,139.04,363.33,138.32z"/>
	<path d="M371.37,135.07c-1.12,0-2.14,0.51-3.36,1.42C369.54,136.39,370.56,136.08,371.37,135.07z"/>
	<path d="M622.06,370.9c0.81-0.1,1.12-0.81,1.73-1.93C622.57,369.47,621.45,369.27,622.06,370.9z"/>
	<path d="M425.11,118.98c-1.22-0.1-1.93,0.31-2.44,1.22C423.59,120.21,424.2,119.6,425.11,118.98z"/>
	<path d="M450.97,463.72c0.31-0.81-0.41-1.02-1.02-1.53C449.95,463.32,450.36,463.62,450.97,463.72z"/>
	<path d="M447.1,459.35c0.31-0.81-0.2-0.92-0.61-1.12C446.28,458.84,446.89,458.94,447.1,459.35z"/>
	<path d="M440.08,145.35c-1.37,0.51-1.9,1.18-1.88,1.52c-0.02-0.03-0.04-0.05-0.06-0.09c-1.38,0.37-4.19,1.81-3.46,2.54
		c1.53-0.31,2.75-1.02,3.77-2.14c-0.04-0.04-0.08-0.09-0.12-0.13c0.04,0.02,0.07,0.03,0.12,0.03
		C439.26,146.77,440.18,146.67,440.08,145.35z"/>
	<path d="M616.67,403.06c0.92-0.51,1.42-1.02,0.92-1.93C616.87,401.53,616.57,401.94,616.67,403.06z"/>
	<path d="M439.26,474.41c-0.71-0.81-1.22-1.32-2.14-1.22C437.43,474,438.04,474.41,439.26,474.41z"/>
	<path d="M471.12,495.28c0.1,0.81,0.31,1.32,1.12,1.53C472.04,496.19,471.73,495.68,471.12,495.28z"/>
	<path d="M473.66,499.14c-0.04-0.02-0.06-0.04-0.1-0.06C473.56,499.29,473.54,499.27,473.66,499.14z"/>
	<path d="M472.14,496.91c0,0.98,0.49,1.67,1.42,2.18C473.59,498.06,473,497.38,472.14,496.91z"/>
	<path d="M452.29,137.1c0.61-0.2,1.12-0.41,1.53-1.63C453,136.19,452.29,136.08,452.29,137.1z"/>
	<path d="M438.34,444.59c-0.51,0.71-0.31,1.32-0.1,1.93C438.75,445.91,438.55,445.3,438.34,444.59z"/>
	<path d="M437.23,473.09c-0.48-0.97-1.16-1.36-2.19-1.32C435.45,472.62,436.15,473.19,437.23,473.09z"/>
	<path d="M435.04,471.76c-0.01-0.03-0.03-0.06-0.05-0.1C434.88,471.77,434.81,471.81,435.04,471.76z"/>
	<path d="M441.19,475.84c0.41,0.31,0.71,0.51,1.12,0.81C442.21,476.14,442.01,475.23,441.19,475.84z"/>
	<path d="M430.1,468.1c0.51,0.81,1.02,1.42,1.93,1.22C431.63,468.61,431.12,468.1,430.1,468.1z"/>
	<path d="M464.19,78.61c0.04,0.02,0.07,0.05,0.11,0.07C464.25,78.63,464.19,78.54,464.19,78.61z"/>
	<path d="M556.21,452.12c1.02-0.61,1.22-1.32,0.81-2.04c-0.92-1.93-1.84-4.17-3.16-5.6c-9.48-10.3-8.73-11.81-10.16-11.91
		c-1.97-0.13-1.28,1.76-0.33,3.46C550.2,448.21,556,446.14,556.21,452.12z"/>
	<path d="M559.05,492.55c1.11-2.09,0.53-2.77-1.21-4.91c-0.36-0.15-0.72,0.27-1.23,0.14c-1.45-0.35-0.63-3.7-2.33-6.25
		c-0.2-2.65,1.53-3.77,2.14-5.5c-6.62,3.77-6.41,9.36,0.41,13.64C557.19,490.41,557.72,495.05,559.05,492.55z"/>
	<path d="M549.41,401.82c-1.09,4.35,1.86,11.11,6.7,13.05C550.57,409.04,550.5,397.44,549.41,401.82z"/>
	<path d="M581.34,374.55c-1.84-2.68-3.96-3.34-5.7-5.89c-3.52,2.51,4.11,1.04,5.61,11.71C582.16,386.89,584.53,379.21,581.34,374.55
		z"/>
	<path d="M581.36,395.92c-0.14,6.85,4.23-3.92,0.6-9.65C579.55,387.71,581.48,389.91,581.36,395.92z"/>
	<path d="M551.53,505.15c-2.54,5.39-0.92,10.59,0.51,15.88C551.53,515.74,551.43,510.44,551.53,505.15z"/>
	<path d="M551.43,489.68c-1.93,3.26-2.14,4.99-1.53,11.81C549.49,497.62,551.93,494.16,551.43,489.68z"/>
	<path d="M585.22,386.47c0.92,1.22,2.24,0.92,3.36,1.02c1.06,0.1,2,1,3.46,1.32C589.39,385.05,587.56,384.43,585.22,386.47z"/>
	<path d="M578.7,411c1.42-2.44,1.32-4.68,1.83-6.82C578.91,406.01,578.3,408.05,578.7,411z"/>
	<path d="M559.56,419.08c-6.59-10.45,0.14,5.14,1.84,3.43C560.84,421.38,560.28,420.23,559.56,419.08z"/>
	<path d="M570.15,444.28c-0.31,1.42-0.1,2.85,0.71,4.48C571.95,446.81,571.54,445.45,570.15,444.28z"/>
	<path d="M558.75,493.95c-0.51,1.73-0.51,2.75,0.81,3.66C560.18,496.08,560.12,495.15,558.75,493.95z"/>
	<path d="M557.33,461.59c0.42-1.25,1.69-1.67,1.22-2.85C557.53,458.11,557.03,460.28,557.33,461.59z"/>
	<path d="M568.02,584.85c-2.28,0-1.23,0-2.83,0C565.71,585.05,566.8,586.32,568.02,584.85z"/>
	<path d="M565.06,584.82c-0.1,0-0.19,0.03,0.12,0.03C565.15,584.83,565.1,584.82,565.06,584.82z"/>
	<path d="M551.83,370.39c-0.95,0.45-1.67,0.91-2.32,1.72C547.25,374.92,550.38,373.47,551.83,370.39z"/>
	<path d="M565.57,592.58c0.31-0.85,0.31-1.6-0.41-2.14C564.57,589.99,564.12,591.79,565.57,592.58z"/>
	<path d="M557.33,455.48c0.81-0.1,1.02-0.51,1.22-0.92C559.04,452.13,556.77,453.6,557.33,455.48z"/>
	<path d="M553.16,529.88c0,1.22-0.1,2.04,1.12,2.44C554.58,531.31,554.58,530.6,553.16,529.88z"/>
	<path d="M591.32,413.44c1.34-0.35,1.83-1.58,2.14-2.95C592.14,411.51,591.53,412.32,591.32,413.44z"/>
	<path d="M561.5,422.4c-0.49,0.49,0.42,2.34,2.54,2.95C563.03,424.03,562.83,422.81,561.5,422.4z"/>
	<path d="M559.47,501.28c1.13-0.2,1.42-0.73,0.71-1.73C559.16,499.76,558.86,500.37,559.47,501.28z"/>
	<path d="M575.45,416.29c0.51-0.51,1.93-0.41,1.12-1.73C575.75,414.87,575.24,415.28,575.45,416.29z"/>
	<path d="M595.51,401.73c-0.93,2.25,1.61,1.16,0.6-0.8C595.81,401.18,595.62,401.44,595.51,401.73z"/>
	<path d="M543.11,429.32c-0.03-0.92-1.62-1.05-0.84,1.02C542.71,430.01,543.12,429.7,543.11,429.32z"/>
	<path d="M553.73,369.49c0.53-0.53,0.8-0.86,0.65-2.06c-0.35,0.51-0.66,0.63-0.91,0.94C553.14,368.79,553.4,369.82,553.73,369.49z"
		/>
	<path d="M485.78,407.85c0,2.5-6.92,5.84-6.92,7.33c5.46,1.58,6.49-5.82,7.99-6.73C490.31,406.35,487.23,405.23,485.78,407.85z"/>
	<path d="M511.73,367.34c1.66-0.45,0.06-0.52,6.71-4.47c1.9-1.13,3.72-1.94,2.15-3.37C518.12,360.6,511.85,365.42,511.73,367.34z"/>
	<path d="M520.8,427.7c-1.06-2.9-1.25-3.61-3.97-3.97C517.64,425.57,517.95,427.7,520.8,427.7z"/>
	<path d="M498.5,426.98c0.81,1.73,1.12,4.07,4.27,3.66C501.86,428.61,500.13,427.9,498.5,426.98z"/>
	<path d="M496.26,370.29c1.12-1.12,2.75-2.04,2.85-4.58C497.18,366.93,496.36,368.35,496.26,370.29z"/>
	<path d="M578.5,350.34c1.83-1.73,3.46-2.44,4.48-4.89C580.64,346.78,579.52,347.89,578.5,350.34z"/>
	<path d="M508.17,378.02c0.1-1.42,1.73-2.04,1.83-4.07C508.37,375.27,507.35,376.29,508.17,378.02z"/>
	<path d="M515.29,415.48c1.12-0.41,1.73-0.92,1.93-1.83C515.7,413.24,515.5,414.26,515.29,415.48z"/>
	<path d="M511.63,417.72c0.24,0.81,0.59,1.72,1.32,2.14C513.86,420.46,514.26,417.91,511.63,417.72z"/>
	<path d="M517.63,397.56c0.4,0.7,0.8,1.02,1.63,1.02C519.42,397.11,518.89,397.19,517.63,397.56z"/>
	<path d="M512.85,394.61c0.3,0.9,0.82,1.32,1.63,0.81C514.28,394.41,513.66,394.41,512.85,394.61z"/>
	<path d="M517.33,410.74c0.56-0.97-0.01-1.12-0.31-1.26C515.47,410.51,516.58,412.04,517.33,410.74z"/>
	<path d="M494.63,375.86c0.36,1.3,0.92,0,1.32-1.2C495.21,374.83,494.41,375.07,494.63,375.86z"/>
	<path d="M443.03,524.9c-15.63-10.03-10.65-8.13-14.76-10.38C429.83,519.47,437.34,524.57,443.03,524.9z"/>
	<path d="M511.32,532.63c-1.22,3.66-2.14,6.62-3.36,9.87C511.69,539.58,513.48,536.72,511.32,532.63z"/>
	<path d="M383.08,499.65c-0.2,0.1-0.31,0.51-0.51,1.02c2.76,2.31,5.44,0.9,8.52,0.5C395.69,501.17,384.73,499.1,383.08,499.65z"/>
	<path d="M450.56,505.46c0-0.23,0-0.86,0-1.12c-2.2-0.2-4.39-0.85-7.26-0.34C442.79,504.09,446.55,505.92,450.56,505.46z"/>
	<path d="M449.31,529.06c1.11,0.43,2.19,0.49,3.4,0.32C449.48,526.96,445.12,527.44,449.31,529.06z"/>
	<path d="M394.07,501.08c0.92,1.22,1.73,1.12,3.05,0.2C395.9,500.47,395.09,500.16,394.07,501.08z"/>
	<path d="M405.37,501.89c1.02,0.71,1.83,1.02,2.95-0.2C407.2,501.18,406.38,500.98,405.37,501.89z"/>
	<path d="M401.12,500.66c-1.59-0.45-0.9,2.35,0.89,0.72C401.8,501.1,401.46,500.74,401.12,500.66z"/>
	<path d="M520.08,532.83c-0.41,0.92-1.22,1.53-0.71,2.44C520.28,534.77,520.38,533.95,520.08,532.83z"/>
	<path d="M482.52,530.19c-0.44-1.76-1.55-1.15-1.18-0.41C481.49,530.24,482.04,530.25,482.52,530.19z"/>
	<path d="M462.77,532.22c-0.51-0.68-0.97-1.25-1.63-0.71C461.35,532.12,461.75,532.43,462.77,532.22z"/>
	<path d="M467.25,533.04c-0.48-0.36-1-0.27-1.63-0.1C466.68,533.42,466.74,533.45,467.25,533.04z"/>
	<path d="M473.46,533.85c-0.38-0.38-0.84-0.69-1.36-0.63C470.23,533.42,472.32,534.99,473.46,533.85z"/>
	<path d="M424.2,507.59c-0.2,1.02,0,1.63,1.02,1.83C425.52,508.41,425.01,508,424.2,507.59z"/>
	<path d="M325.15,471.56c4.1-1.85,9.17-3.22,12.43-6.72C336.9,463.83,338.66,463.12,325.15,471.56z"/>
	<path d="M351.03,475.94c1.88-0.08,3.95-0.11,5.15-0.34C359.99,474.9,360.7,471.47,351.03,475.94z"/>
	<path d="M249.14,485.56c0.81-0.02,3.92-0.71,4.88-2.49c-1.5,0.75-4.47-0.06-6.82,0.92C247.74,484.8,247.92,485.59,249.14,485.56z"
		/>
	<path d="M345.32,481.03c2.75,0.2,4.07-0.81,4.78-2.85C347.66,478.18,347.66,478.18,345.32,481.03z"/>
	<path d="M341.24,456.7c3.46-1.22,3.46-1.22,4.38-3.77C343.79,454.05,342.36,454.87,341.24,456.7z"/>
	<path d="M365.37,478.38c-1.32-0.92-2.34-1.63-4.48-1.63C363.33,478.58,363.33,478.58,365.37,478.38z"/>
	<path d="M257.78,482.86c1.35,0.18,2.36,0.27,3.16-1.12C259.41,481.33,258.49,481.74,257.78,482.86z"/>
	<path d="M320.07,473.09c-2.54,0.2-2.54,0.2-3.66,1.32C318,474.28,318.81,474.12,320.07,473.09z"/>
	<path d="M307.55,475.02c0.87,0.22,1.14-0.06,1.22-0.61C308.2,474.08,307.89,474.45,307.55,475.02z"/>
	<path d="M621.35,430.54c1.06-5.07-6.64,0.03-2.24,9.68C619.93,436.65,620.71,433.61,621.35,430.54z"/>
	<path d="M631.18,476.81c13.43-8.3,5.45-12.71-0.06,0.04C631.14,476.84,631.16,476.82,631.18,476.81z"/>
	<path d="M623.39,553.38c1.56-2.73,0.97-5.65,0.71-8.95C622.65,547.11,623.12,550.05,623.39,553.38z"/>
	<path d="M619.52,473.6c1.41,1.72,3.66,1.93,5.5,2.85C623.13,473.38,621.73,471.51,619.52,473.6z"/>
	<path d="M635.03,416.48c2-0.45,2.45-2.33,3.11-5.07C633.5,416.72,632.47,417.05,635.03,416.48z"/>
	<path d="M636.72,420.87c-0.93-1.31-1.79-2.08-3.26-1.42C633.67,421.59,634.89,421.38,636.72,420.87z"/>
	<path d="M628.48,479.5c-1.12,0.92-1.12,1.93-0.61,3.26C629.09,481.23,629.09,481.23,628.48,479.5z"/>
	<path d="M626.61,561.78c4.04,0.24,1.93-2.48-1.8-0.04C625.5,561.7,626.08,561.75,626.61,561.78z"/>
	<path d="M618.91,442.96c-0.98,0.39-1.31,2.17-0.51,2.75C618.4,444.69,619.21,443.98,618.91,442.96z"/>
	<path d="M639.37,422.3c0.2,0.71,0.61,0.92,1.83,0.92C640.69,421.89,640.37,421.19,639.37,422.3z"/>
	<path d="M619.82,454.87c0.39-1.33-0.02-1.63-1.12-1.63C618.6,454.16,619.01,454.67,619.82,454.87z"/>
	<path d="M625.73,527.03c-0.51,0.76-0.69,1.43-0.1,2.14C626.25,528.55,626,527.85,625.73,527.03z"/>
	<path d="M393.56,426.57c0.1,1.22,0.81,1.93,2.34,3.05C395.19,427.79,394.48,427.18,393.56,426.57z"/>
	<path d="M460.33,394.82c2.14-1.73,2.14-1.73,1.32-3.97C460.74,392.37,460.23,393.39,460.33,394.82z"/>
	<path d="M558.03,143.1c0.76-0.82,1.34-1.85,0.81-2.84c-0.06-0.1-4-7.04-6.11-8.56c-2.71-1.96-4.47-6.2-6.11-7.84
		c-1.21-1.41-3.62-0.67-1.64,2.54c0.87,0.87,2.13,5.45,9.81,11.06C556.84,138.95,558.03,140.57,558.03,143.1z"/>
	<path d="M559.98,178.43c-0.61-0.71-1.32,0.71-2.14-0.51c-0.71-1.83-0.61-4.38-1.93-6.01c0.12-2.35,1.73-3.57,2.85-5.8
		c-7.12,3.87-6.92,9.67-0.1,14.15c0.51,1.22,0.31,2.75,1.53,3.66C562.01,181.68,562.01,181.48,559.98,178.43z"/>
	<path d="M584.1,73.28c3.67-7.27-4.97-11.06-6.72-14.55c-0.48,1.66-0.63,2.09-0.36,2.34c1.1,0.99,5.06,2.19,6.16,10.48
		C583.28,72.27,583.08,73.08,584.1,73.28z"/>
	<path d="M583.39,77.25c-0.87,0.43-0.44-0.58-0.1,11.81C585.39,85.46,586.6,79.46,583.39,77.25z"/>
	<path d="M556.52,104.33c-2.63-3.86-3.16-8.55-4.78-13.33C549.89,95.38,552.16,101.59,556.52,104.33z"/>
	<path d="M553.87,211.51c-0.81-5.19-0.51-10.38-0.71-15.57C550.95,201.15,552.18,206.13,553.87,211.51z"/>
	<path d="M553.36,180.05c-2.04,3.46-2.34,6.01-1.63,11.6C551.73,187.97,553.69,184.55,553.36,180.05z"/>
	<path d="M566.08,116.85c-1.02-2.65-2.54-3.97-3.66-5.6C556.09,100.7,558.62,109.8,566.08,116.85z"/>
	<path d="M586.54,77.25c2.64,0.7,5.06,0.81,7.02,1.83C590.92,75.42,589.7,75.01,586.54,77.25z"/>
	<path d="M572.39,139.04c1.11-2.3,1.1-2.38-0.2-4.27C571.09,135.31,571.19,133.84,572.39,139.04z"/>
	<path d="M582.37,94.86c-1.28,1.58-2.01,3.21-1.92,5.35C580.61,104.13,582.24,95.17,582.37,94.86z"/>
	<path d="M591.73,104.94c2.24-0.61,3.26-2.14,3.66-4.27C594.17,102.09,592.95,103.51,591.73,104.94z"/>
	<path d="M569.65,276.34c0.2-0.2,0.31-0.51,0.41-0.71C563.7,274.65,565.88,275.71,569.65,276.34z"/>
	<path d="M561.61,187.91c0.98-5.33-3.29-2.13-0.1,0.58C561.54,188.3,561.58,188.11,561.61,187.91z"/>
	<path d="M553.87,61.17c-2,0.49-2.63,1.4-3.46,3.26C552.14,63.72,552.85,62.7,553.87,61.17z"/>
	<path d="M559.16,151.76c0.8-0.92,1.49-1.35,1.02-3.05C559.36,149.93,558.75,150.54,559.16,151.76z"/>
	<path d="M560.37,144.75c0.04-0.47-0.06-0.98-0.18-1.44C557.67,146.52,560.23,146.56,560.37,144.75z"/>
	<path d="M566.59,280.72c-0.41,0.92-0.31,1.63,0.71,2.44C567.71,282.04,567.71,281.23,566.59,280.72z"/>
	<path d="M555.29,220.67c-0.59,1.23-0.09,1.82,0.8,2.34C556.52,221.99,556.41,221.17,555.29,220.67z"/>
	<path d="M561.5,192.17c0.5-0.67,1.36-0.79,0.61-2.04C560.89,190.54,560.79,191.15,561.5,192.17z"/>
	<path d="M597.74,91.81c-0.32,0.53-1,1.01-0.51,1.83C597.94,92.83,597.94,92.83,597.74,91.81z"/>
	<path d="M577.18,106.35c-0.05,0.54,1.1,0.94,1.62-1.21C577.82,105.42,577.24,105.61,577.18,106.35z"/>
	<path d="M537.38,121.33c-2.44-0.2-10.99,3.56-13.44,6.01C530.15,127.03,535.95,124.48,537.38,121.33z"/>
	<path d="M521.39,123.36c-2.14-1.63-4.68-2.04-7.02-2.75C518.76,124.17,518.91,124.27,521.39,123.36z"/>
	<path d="M479.47,79.09c1.53-1.12,3.66-1.73,4.07-4.38C481.3,75.73,480.18,77.25,479.47,79.09z"/>
	<path d="M512.34,57c-1.42,1.73-2.75,3.46-4.17,5.19C510.1,60.97,512.04,59.64,512.34,57z"/>
	<path d="M506.23,93.54c1.22-1.84,2.49-2.94,1.93-5.39C506.03,89.67,506.64,91.81,506.23,93.54z"/>
	<path d="M583.95,36.48c-1.33,1.16-2.28,1.47-2.9,3.93c1.45-1.45,2.5-2.39,3.56-3.36C583.87,36.31,584.04,36.43,583.95,36.48z"/>
	<path d="M501.76,87.23c-0.6-0.46-1.43-0.54-2.34,0C500.64,88.14,500.64,88.14,501.76,87.23z"/>
	<path d="M499.91,128.35c1.03,3.42,5.01,5.45,2.39,2.1C501.72,129.7,500.86,129.09,499.91,128.35z"/>
	<path d="M519.87,88.75c2.26,1.43,1.18-1.8-0.81-0.92C519.16,88.35,519.56,88.56,519.87,88.75z"/>
	<path d="M509.79,81.56c-2.02-0.19-0.67,1.26-0.23,1.46C510.95,83.66,511.31,81.7,509.79,81.56z"/>
	<path d="M489.24,87.94c0.99,0.45,1.56,0.42,1.83-0.61C490.1,86.77,489.69,87.06,489.24,87.94z"/>
	<path d="M518.96,103.82c-1.14,0.29-1.64,0.83-1.72,2.24C518.28,105.43,518.86,105.03,518.96,103.82z"/>
	<path d="M519.06,99.85c-0.78,0.39-1.13,0.98-1.02,1.93C519.47,101.68,519.67,101.07,519.06,99.85z"/>
	<path d="M505.01,101.58c0.4,0.81,1.4-0.03,0.61-1.02C505.11,100.66,504.61,100.87,505.01,101.58z"/>
	<path d="M506.95,67.89c0.58,0.29,1.04-0.62,1.12-1.52C506.42,67.02,506.48,67.73,506.95,67.89z"/>
	<path d="M700.95,81.63c1.34-0.48,2.03-1.24,2.14-3.05c-3.56,2.04-5.6-1.22-8.86-2.24C697.59,81.38,696.01,79.98,700.95,81.63z"/>
	<path d="M653.41,76.03c2.93-1.56,4.51-3.47,4.79-6.72C655.75,71.35,654.02,73.28,653.41,76.03z"/>
	<path d="M615.65,68.19c-1.85,1.62-8.61,3.71-3.59,3.88C613.69,72.13,614.58,71.02,615.65,68.19z"/>
	<path d="M613.82,97.51c2.65-1.32,2.95-3.36,3.46-5.29C615.75,93.44,614.53,94.86,613.82,97.51z"/>
	<path d="M647.71,54.96c0.96-0.78,1.92-1.56,2.6-2.38C653.12,49.18,650.04,49.15,647.71,54.96z"/>
	<path d="M640.18,63.21c1.12-1.12,2.95-1.73,2.85-3.77C641.3,60.15,640.28,61.38,640.18,63.21z"/>
	<path d="M614.02,41.63c1.47,0,2.58,1.41,4.89,0.92C617.07,40.81,615.57,41.63,614.02,41.63z"/>
	<path d="M604.96,113.69c2.24,0.2,2.44-1.12,3.05-2.14C606.9,111.76,605.78,112.06,604.96,113.69z"/>
	<path d="M624.51,89.98c1.32-0.92,2.44-1.73,4.27-2.95C625.32,87.94,625.32,87.94,624.51,89.98z"/>
	<path d="M612.19,106.87l0.2-0.1C612.16,106.69,612.16,106.73,612.19,106.87z"/>
	<path d="M611.27,106.57c0.33,0.08,0.63,0.11,0.91,0.16c0-1.28,1.79-1.84,1.23-3.52C612.19,104.12,611.27,104.94,611.27,106.57z"/>
	<path d="M648.73,80.61c0.62-0.21,1.45-0.36,2.11-0.85C652.58,78.44,649.83,77.6,648.73,80.61z"/>
	<path d="M636.11,67.08c0.2-0.51,1.63-0.31,0.92-1.32C636.31,65.75,636.11,66.36,636.11,67.08z"/>
	<path d="M632.55,70.43c0.81,0.1,1.32,0,0.92-1.02C632.95,69.62,632.55,69.82,632.55,70.43z"/>
	<path d="M621.96,118.98c-2.75,2.65-3.26,7.43-1.12,11.2C623.49,120.71,623.49,120.71,621.96,118.98z"/>
	<path d="M639.06,159.19c-2.47,2.36-4.67,4.65-5.8,8.04C636.65,165.13,642.75,160.83,639.06,159.19z"/>
	<path d="M626.03,234.71c-1.36,3.34-1.49,6.36-0.51,9.67C626.95,241.02,625.93,237.77,626.03,234.71z"/>
	<path d="M640.08,101.88c-1.53,1.63-3.05,3.36-4.68,5.09C638.04,107.38,638.96,106.57,640.08,101.88z"/>
	<path d="M621.15,162.95c1.32,3.16,3.66,3.26,5.9,3.66C625.42,165.19,624.51,162.85,621.15,162.95z"/>
	<path d="M636.73,111.67c0.4,0,0.98-0.08,1.82-0.21C635.27,107.51,635.15,111.66,636.73,111.67z"/>
	<path d="M627.05,252.22c1.93,0.31,1.93,0.2,3.46-0.41C628.78,251.1,628.78,251.1,627.05,252.22z"/>
	<path d="M630.1,173.13c1.22-0.81,1.02-1.83,0.51-3.05C629.49,171.61,629.49,171.61,630.1,173.13z"/>
	<path d="M619.81,135.36c-0.03,3.52,0.76-0.6,1.13-1.82C620.13,134.04,619.82,134.66,619.81,135.36z"/>
	<path d="M627.25,217.41c-0.22,0.98-0.49,1.64,0.31,2.65C627.86,219.14,628.07,218.32,627.25,217.41z"/>
	<path d="M642.32,113.79c0.2-0.2,0.31-0.31,0.61-0.71C641.44,111.21,640.27,113.11,642.32,113.79z"/>
	<path d="M620.94,143.51c-0.71,1.22-0.1,1.53,0.61,1.83C622.27,144.33,621.66,144.02,620.94,143.51z"/>
	<path d="M292.22,153.75c12.95-0.11,4.06-4.25-6.66,0.35C287.81,153.63,290.02,153.77,292.22,153.75z"/>
	<path d="M308.37,151.45c2.34-1.22,4.68-2.65,7.02-4.07C312.13,147.28,309.89,148.71,308.37,151.45z"/>
	<path d="M282.41,154.1c-1.93-0.81-3.16-0.81-4.68,0.61C279.46,155.01,280.88,154.64,282.41,154.1z"/>
	<path d="M222.97,172.42c0.23-0.32,0.04-0.54-0.31-0.71C219.46,171.71,220.82,175.42,222.97,172.42z"/>
	<path d="M307.45,151.66c-1.83-0.1-3.16-0.2-4.48,0.31C304.05,152.03,305.57,152.7,307.45,151.66z"/>
	<path d="M216.46,175.78c1.52-0.99-0.65-2.21-1.63,0C215.54,176.19,216.05,176.19,216.46,175.78z"/>
	<path d="M274.68,154.81c-0.84-0.47-1.38-0.18-1.83,0.61C273.66,155.83,274.17,155.63,274.68,154.81z"/>
<path fill="#e6e6e6" d="m206.8 163.6c0-5.1 4.1-9.2 9.3-9.2s9.2 4.2 9.2 9.2-4.1 9.2-9.3 9.2-9.2-4.1-9.2-9.2zm17.3-.1c0-4.5-3.5-8.2-8.2-8.2s-8.2 3.7-8.2 8.3c0 4.5 3.5 8.2 8.2 8.2s8.2-3.7 8.2-8.3zm-13 0c0-2.8 2.1-5.1 5.1-5.1 1.9 0 2.9.6 3.9 1.5l-1.4 1.7c-.8-.7-1.5-1.1-2.5-1.1-1.7 0-2.8 1.4-2.8 3.1s1.1 3 2.8 3c1.1 0 1.7-.5 2.5-1.1l1.4 1.4c-1.1 1.1-2.1 1.7-4 1.7-2.9 0-5-2.3-5-5.1z"/><path fill="#e6e6e6" d="m226.6 154.7h3.4l4.2 13.2 4.4-13.3h2.6l4.4 13.3 4.2-13.2h3.3l-6.2 18h-2.7l-4.4-12.8-4.4 12.8h-2.7z"/><path fill="#e6e6e6" d="m252.8 165.8c0-3.9 3.1-7 7.2-7 4.2 0 7.2 3.2 7.2 7s-3.1 7-7.3 7c-4 0-7.1-3.1-7.1-7zm11.3 0c0-2.3-1.7-4.3-4.2-4.3s-4.1 2-4.1 4.3 1.7 4.3 4.1 4.3c2.7.1 4.2-1.9 4.2-4.3z"/><path fill="#e6e6e6" d="m269.5 159.1h3.1v3c.8-2 2.4-3.4 4.8-3.3v3.2h-.2c-2.7 0-4.6 1.7-4.6 5.4v5.1h-3.1z"/><path fill="#e6e6e6" d="m279.1 153.9h3.1v11.1l5.6-6h3.8l-5.4 5.5 5.5 8h-3.5l-4.1-5.8-1.9 2v3.9h-3.1z"/><path fill="#e6e6e6" d="m291.7 165.8c0-3.9 3.1-7 7.2-7 4.2 0 7.2 3.2 7.2 7s-3.1 7-7.3 7c-4 0-7.1-3.1-7.1-7zm11.3 0c0-2.3-1.7-4.3-4.2-4.3s-4.1 2-4.1 4.3 1.7 4.3 4.1 4.3c2.6.1 4.2-1.9 4.2-4.3z"/><path fill="#e6e6e6" d="m308.2 167.6v-8.6h3.1v7.6c0 2.1 1.1 3.3 2.9 3.3s3-1.3 3-3.3v-7.6h3.1v13.4h-3.1v-2.1c-.8 1.3-2.1 2.3-4.2 2.3-3.1.2-4.8-1.8-4.8-5z"/><path fill="#e6e6e6" d="m323.9 168.8v-7.1h-1.7v-2.6h1.7v-3.7h3.1v3.7h3.6v2.6h-3.6v6.6c0 1.2.6 1.7 1.7 1.7.7 0 1.3-.2 1.9-.5v2.5c-.8.5-1.7.7-2.8.7-2.3 0-3.9-.9-3.9-3.9z"/><path fill="#e6e6e6" d="m333.2 154.7h3.2v15h9.4v2.9h-12.5v-17.9z"/><path fill="#e6e6e6" d="m356 172.5v-1.7c-.9 1.1-2.3 2-4.4 2-2.6 0-4.8-1.4-4.8-4.2 0-3 2.3-4.4 5.4-4.4 1.7 0 2.6.2 3.7.5v-.2c0-1.9-1.2-2.9-3.3-2.9-1.5 0-2.6.3-3.9.8l-.8-2.5c1.5-.7 2.9-1.1 5.1-1.1 4 0 5.9 2.1 5.9 5.7v8zm.1-5.6c-.8-.3-1.9-.5-3.1-.5-2 0-3.1.8-3.1 2.1s1.1 2 2.6 2c2 0 3.5-1.1 3.5-2.9z"/><path fill="#e6e6e6" d="m364.9 170.5v2.1h-3.1v-18.7h3.1v7.4c1-1.4 2.4-2.5 4.5-2.5 3.2 0 6.3 2.5 6.3 7s-3.1 7-6.3 7c-2.1 0-3.5-1.1-4.5-2.3zm7.7-4.7c0-2.6-1.7-4.3-3.9-4.3s-3.9 1.7-3.9 4.4c0 2.6 1.8 4.3 3.9 4.3s3.9-1.7 3.9-4.4z"/><path fill="#e6e6e6" d="m376.9 170.8 1.4-2.1c1.4 1.1 3 1.7 4.4 1.7s2.1-.5 2.1-1.5-1.3-1.4-2.8-1.8c-.1 0-.2-.1-.2-.1-2-.6-4.2-1.4-4.2-4s2.1-4.1 4.8-4.1c1.7 0 3.5.6 5 1.5l-1.2 2.2c-1.3-.8-2.6-1.3-3.8-1.3s-1.9.5-1.9 1.4 1.3 1.4 2.8 1.8c.1 0 .2.1.2.1 2 .6 4.2 1.5 4.2 4 0 2.9-2.2 4.2-5 4.2-1.9 0-4-.7-5.8-2z"/><path fill="#e6e6e6" d="m505.6 163.6c0-5.1 4.1-9.2 9.3-9.2s9.2 4.2 9.2 9.2-4.1 9.2-9.3 9.2-9.2-4.1-9.2-9.2zm17.4-.1c0-4.5-3.5-8.2-8.2-8.2s-8.2 3.7-8.2 8.3c0 4.5 3.5 8.2 8.2 8.2s8.2-3.7 8.2-8.3zm-13.1 0c0-2.8 2.1-5.1 5.1-5.1 1.9 0 2.9.6 3.9 1.5l-1.4 1.7c-.8-.7-1.5-1.1-2.5-1.1-1.7 0-2.8 1.4-2.8 3.1s1.1 3 2.8 3c1.1 0 1.7-.5 2.5-1.1l1.4 1.4c-1.1 1.1-2.1 1.7-4 1.7-2.9 0-5-2.3-5-5.1z"/><path fill="#e6e6e6" d="m525.4 154.7h3.4l4.2 13.2 4.4-13.3h2.6l4.4 13.3 4.2-13.2h3.3l-6.2 18h-2.7l-4.4-12.8-4.4 12.8h-2.7z"/><path fill="#e6e6e6" d="m551.7 165.8c0-3.9 3.1-7 7.2-7 4.2 0 7.2 3.2 7.2 7s-3.1 7-7.3 7c-4.1 0-7.1-3.1-7.1-7zm11.2 0c0-2.3-1.7-4.3-4.2-4.3s-4.1 2-4.1 4.3 1.7 4.3 4.1 4.3c2.7.1 4.2-1.9 4.2-4.3z"/><path fill="#e6e6e6" d="m568.3 159.1h3.1v3c.8-2 2.4-3.4 4.8-3.3v3.2h-.2c-2.7 0-4.6 1.7-4.6 5.4v5.1h-3.1z"/><path fill="#e6e6e6" d="m577.9 153.9h3.1v11.1l5.6-6h3.8l-5.4 5.5 5.5 8h-3.5l-4.1-5.8-1.9 2v3.9h-3.1z"/><path fill="#e6e6e6" d="m590.6 165.8c0-3.9 3.1-7 7.2-7 4.2 0 7.2 3.2 7.2 7s-3.1 7-7.3 7c-4.1 0-7.1-3.1-7.1-7zm11.2 0c0-2.3-1.7-4.3-4.2-4.3s-4.1 2-4.1 4.3 1.7 4.3 4.1 4.3c2.6.1 4.2-1.9 4.2-4.3z"/><path fill="#e6e6e6" d="m607 167.6v-8.6h3.1v7.6c0 2.1 1.1 3.3 2.9 3.3s3-1.3 3-3.3v-7.6h3.1v13.4h-3.1v-2.1c-.8 1.3-2.1 2.3-4.2 2.3-3 .2-4.8-1.8-4.8-5z"/><path fill="#e6e6e6" d="m622.7 168.8v-7.1h-1.7v-2.6h1.7v-3.7h3.1v3.7h3.6v2.6h-3.6v6.6c0 1.2.6 1.7 1.7 1.7.7 0 1.3-.2 1.9-.5v2.5c-.8.5-1.7.7-2.8.7-2.3 0-3.9-.9-3.9-3.9z"/><path fill="#e6e6e6" d="m632 154.7h3.2v15h9.4v2.9h-12.6z"/><path fill="#e6e6e6" d="m654.8 172.5v-1.7c-.9 1.1-2.3 2-4.4 2-2.6 0-4.8-1.4-4.8-4.2 0-3 2.3-4.4 5.4-4.4 1.7 0 2.6.2 3.7.5v-.2c0-1.9-1.2-2.9-3.3-2.9-1.5 0-2.6.3-3.9.8l-.8-2.5c1.5-.7 2.9-1.1 5.1-1.1 4 0 5.9 2.1 5.9 5.7v8zm.1-5.6c-.8-.3-1.9-.5-3.1-.5-2 0-3.1.8-3.1 2.1s1.1 2 2.6 2c2 0 3.5-1.1 3.5-2.9z"/><path fill="#e6e6e6" d="m663.7 170.5v2.1h-3.1v-18.7h3.1v7.4c1-1.4 2.4-2.5 4.5-2.5 3.2 0 6.3 2.5 6.3 7s-3.1 7-6.3 7c-2.1 0-3.5-1.1-4.5-2.3zm7.8-4.7c0-2.6-1.7-4.3-3.9-4.3-2.1 0-3.9 1.7-3.9 4.4 0 2.6 1.8 4.3 3.9 4.3s3.9-1.7 3.9-4.4z"/><path fill="#e6e6e6" d="m675.8 170.8 1.4-2.1c1.4 1.1 3 1.7 4.4 1.7s2.1-.5 2.1-1.5-1.3-1.4-2.8-1.8c-.1 0-.2-.1-.2-.1-2-.6-4.2-1.4-4.2-4s2.1-4.1 4.8-4.1c1.7 0 3.5.6 5 1.5l-1.2 2.2c-1.3-.8-2.6-1.3-3.8-1.3s-1.9.5-1.9 1.4 1.3 1.4 2.8 1.8c.1 0 .2.1.2.1 2 .6 4.2 1.5 4.2 4 0 2.9-2.2 4.2-5 4.2-2 0-4.1-.7-5.8-2z"/><path fill="#e6e6e6" d="m61 298.6c0-5.1 4.1-9.2 9.3-9.2s9.2 4.2 9.2 9.2-4.1 9.2-9.3 9.2c-5.1 0-9.2-4.2-9.2-9.2zm17.4-.1c0-4.5-3.5-8.2-8.2-8.2s-8.2 3.7-8.2 8.3c0 4.5 3.5 8.2 8.2 8.2s8.2-3.7 8.2-8.3zm-13.1-.1c0-2.8 2.1-5.1 5.1-5.1 1.9 0 2.9.6 3.9 1.5l-1.4 1.7c-.8-.7-1.5-1.1-2.5-1.1-1.7 0-2.8 1.4-2.8 3.1s1.1 3 2.8 3c1.1 0 1.7-.5 2.5-1.1l1.4 1.4c-1.1 1.1-2.1 1.7-4 1.7-2.8.1-5-2.2-5-5.1z"/><path fill="#e6e6e6" d="m80.9 289.7h3.4l4.2 13.2 4.4-13.3h2.6l4.4 13.3 4.2-13.2h3.3l-6.2 18h-2.7l-4.4-12.8-4.4 12.8h-2.7z"/><path fill="#e6e6e6" d="m107.1 300.8c0-3.9 3.1-7 7.2-7s7.2 3.2 7.2 7-3.1 7-7.3 7c-4 0-7.1-3.1-7.1-7zm11.3 0c0-2.3-1.7-4.3-4.2-4.3s-4.1 2-4.1 4.3 1.7 4.3 4.1 4.3c2.6.1 4.2-1.9 4.2-4.3z"/><path fill="#e6e6e6" d="m123.7 294h3.1v3c.8-2 2.4-3.4 4.8-3.3v3.2h-.2c-2.7 0-4.6 1.7-4.6 5.4v5.1h-3.1z"/><path fill="#e6e6e6" d="m133.4 288.9h3.1v11.1l5.6-6h3.8l-5.4 5.5 5.5 8h-3.5l-4.1-5.8-1.9 1.9v3.9h-3.1z"/><path fill="#e6e6e6" d="m146 300.8c0-3.9 3.1-7 7.2-7s7.2 3.2 7.2 7-3.1 7-7.3 7c-4.1 0-7.1-3.1-7.1-7zm11.2 0c0-2.3-1.7-4.3-4.2-4.3s-4.1 2-4.1 4.3 1.7 4.3 4.1 4.3c2.6.1 4.2-1.9 4.2-4.3z"/><path fill="#e6e6e6" d="m162.4 302.6v-8.6h3.1v7.6c0 2.1 1.1 3.3 2.9 3.3s3-1.3 3-3.3v-7.6h3.1v13.4h-3.1v-2.1c-.8 1.3-2.1 2.3-4.2 2.3-3 .2-4.8-1.8-4.8-5z"/><path fill="#e6e6e6" d="m178.1 303.8v-7.1h-1.7v-2.7h1.7v-3.7h3.1v3.7h3.6v2.6h-3.6v6.6c0 1.2.6 1.7 1.7 1.7.7 0 1.3-.2 1.9-.5v2.5c-.8.5-1.7.7-2.8.7-2.3.1-3.9-.9-3.9-3.8z"/><path fill="#e6e6e6" d="m187.4 289.7h3.2v15h9.4v2.9h-12.5v-17.9z"/><path fill="#e6e6e6" d="m210.2 307.5v-1.7c-.9 1.1-2.3 2-4.4 2-2.6 0-4.8-1.4-4.8-4.2 0-3 2.3-4.4 5.4-4.4 1.7 0 2.6.2 3.7.5v-.2c0-1.9-1.2-2.9-3.3-2.9-1.5 0-2.6.3-3.9.8l-.8-2.5c1.5-.7 2.9-1.1 5.1-1.1 4 0 5.9 2.1 5.9 5.7v8zm.1-5.6c-.8-.3-1.9-.5-3.1-.5-2 0-3.1.8-3.1 2.1s1.1 2 2.6 2c2 0 3.5-1.1 3.5-2.9z"/><path fill="#e6e6e6" d="m219.2 305.5v2.1h-3.1v-18.7h3.1v7.4c1-1.4 2.4-2.5 4.5-2.5 3.2 0 6.3 2.5 6.3 7s-3.1 7-6.3 7c-2.2 0-3.6-1.1-4.5-2.3zm7.7-4.7c0-2.6-1.7-4.3-3.9-4.3s-3.9 1.7-3.9 4.4c0 2.6 1.8 4.3 3.9 4.3s3.9-1.7 3.9-4.4z"/><path fill="#e6e6e6" d="m231.2 305.8 1.4-2.1c1.4 1.1 3 1.7 4.4 1.7s2.1-.5 2.1-1.5-1.3-1.4-2.8-1.8c-.1 0-.2-.1-.2-.1-2-.6-4.2-1.4-4.2-4s2.1-4.1 4.8-4.1c1.7 0 3.5.6 5 1.5l-1.2 2.2c-1.3-.8-2.6-1.3-3.8-1.3s-1.9.5-1.9 1.4 1.3 1.4 2.8 1.8c.1 0 .2.1.2.1 2 .6 4.2 1.5 4.2 4 0 2.9-2.2 4.2-5 4.2-2 0-4.1-.7-5.8-2z"/><path fill="#e6e6e6" d="m360.6 298.6c0-5.1 4.1-9.2 9.3-9.2s9.2 4.2 9.2 9.2-4.1 9.2-9.3 9.2-9.2-4.2-9.2-9.2zm17.4-.1c0-4.5-3.5-8.2-8.2-8.2s-8.2 3.7-8.2 8.3c0 4.5 3.5 8.2 8.2 8.2s8.2-3.7 8.2-8.3zm-13.1-.1c0-2.8 2.1-5.1 5.1-5.1 1.9 0 2.9.6 3.9 1.5l-1.4 1.7c-.8-.7-1.5-1.1-2.5-1.1-1.7 0-2.8 1.4-2.8 3.1s1.1 3 2.8 3c1.1 0 1.7-.5 2.5-1.1l1.4 1.4c-1.1 1.1-2.1 1.7-4 1.7-2.8.1-5-2.2-5-5.1z"/><path fill="#e6e6e6" d="m380.5 289.7h3.4l4.2 13.2 4.4-13.3h2.6l4.4 13.3 4.2-13.2h3.3l-6.2 18h-2.7l-4.4-12.8-4.4 12.8h-2.7z"/><path fill="#e6e6e6" d="m406.7 300.8c0-3.9 3.1-7 7.2-7 4.2 0 7.2 3.2 7.2 7s-3.1 7-7.3 7c-4.1 0-7.1-3.1-7.1-7zm11.3 0c0-2.3-1.7-4.3-4.2-4.3s-4.1 2-4.1 4.3 1.7 4.3 4.1 4.3c2.7.1 4.2-1.9 4.2-4.3z"/><path fill="#e6e6e6" d="m423.3 294h3.1v3c.8-2 2.4-3.4 4.8-3.3v3.2h-.2c-2.7 0-4.6 1.7-4.6 5.4v5.1h-3.1z"/><path fill="#e6e6e6" d="m433 288.9h3.1v11.1l5.6-6h3.8l-5.4 5.5 5.5 8h-3.5l-4.1-5.8-1.9 2v3.9h-3.1z"/><path fill="#e6e6e6" d="m445.6 300.8c0-3.9 3.1-7 7.2-7 4.2 0 7.2 3.2 7.2 7s-3.1 7-7.3 7c-4.1 0-7.1-3.1-7.1-7zm11.3 0c0-2.3-1.7-4.3-4.2-4.3s-4.1 2-4.1 4.3 1.7 4.3 4.1 4.3c2.6.1 4.2-1.9 4.2-4.3z"/><path fill="#e6e6e6" d="m462.1 302.6v-8.6h3.1v7.6c0 2.1 1.1 3.3 2.9 3.3s3-1.3 3-3.3v-7.6h3.1v13.4h-3.1v-2.1c-.8 1.3-2.1 2.3-4.2 2.3-3.1.2-4.8-1.8-4.8-5z"/><path fill="#e6e6e6" d="m477.8 303.8v-7.1h-1.8v-2.7h1.7v-3.7h3.1v3.7h3.6v2.6h-3.6v6.6c0 1.2.6 1.7 1.7 1.7.7 0 1.3-.2 1.9-.5v2.5c-.8.5-1.7.7-2.8.7-2.2.1-3.8-.9-3.8-3.8z"/><path fill="#e6e6e6" d="m487.1 289.7h3.2v15h9.4v2.9h-12.5v-17.9z"/><path fill="#e6e6e6" d="m509.9 307.5v-1.7c-.9 1.1-2.3 2-4.4 2-2.6 0-4.8-1.4-4.8-4.2 0-3 2.3-4.4 5.4-4.4 1.7 0 2.6.2 3.7.5v-.2c0-1.9-1.2-2.9-3.3-2.9-1.5 0-2.6.3-3.9.8l-.8-2.5c1.5-.7 2.9-1.1 5.1-1.1 4 0 5.9 2.1 5.9 5.7v8zm.1-5.6c-.8-.3-1.9-.5-3.1-.5-2 0-3.1.8-3.1 2.1s1.1 2 2.6 2c2 0 3.5-1.1 3.5-2.9z"/><path fill="#e6e6e6" d="m518.8 305.5v2.1h-3.1v-18.7h3.1v7.4c1-1.4 2.4-2.5 4.5-2.5 3.2 0 6.3 2.5 6.3 7s-3.1 7-6.3 7c-2.2 0-3.5-1.1-4.5-2.3zm7.7-4.7c0-2.6-1.7-4.3-3.9-4.3s-3.9 1.7-3.9 4.4c0 2.6 1.8 4.3 3.9 4.3s3.9-1.7 3.9-4.4z"/><path fill="#e6e6e6" d="m530.8 305.8 1.4-2.1c1.4 1.1 3 1.7 4.4 1.7s2.1-.5 2.1-1.5-1.3-1.4-2.8-1.8c-.1 0-.2-.1-.2-.1-2-.6-4.2-1.4-4.2-4s2.1-4.1 4.8-4.1c1.7 0 3.5.6 5 1.5l-1.2 2.2c-1.3-.8-2.6-1.3-3.8-1.3s-1.9.5-1.9 1.4 1.3 1.4 2.8 1.8c.1 0 .2.1.2.1 2 .6 4.2 1.5 4.2 4 0 2.9-2.2 4.2-5 4.2-1.9 0-4.1-.7-5.8-2z"/><path fill="#e6e6e6" d="m659.5 298.6c0-5.1 4.1-9.2 9.3-9.2s9.2 4.2 9.2 9.2-4.1 9.2-9.3 9.2-9.2-4.2-9.2-9.2zm17.3-.1c0-4.5-3.5-8.2-8.2-8.2s-8.2 3.7-8.2 8.3c0 4.5 3.5 8.2 8.2 8.2 4.8 0 8.2-3.7 8.2-8.3zm-13-.1c0-2.8 2.1-5.1 5.1-5.1 1.9 0 2.9.6 3.9 1.5l-1.4 1.7c-.8-.7-1.5-1.1-2.5-1.1-1.7 0-2.8 1.4-2.8 3.1s1.1 3 2.8 3c1.1 0 1.7-.5 2.5-1.1l1.4 1.4c-1.1 1.1-2.1 1.7-4 1.7-2.9.1-5-2.2-5-5.1z"/><path fill="#e6e6e6" d="m679.3 289.7h3.4l4.2 13.2 4.4-13.3h2.6l4.4 13.3 4.2-13.2h3.3l-6.2 18h-2.6l-4.4-12.8-4.4 12.8h-2.7z"/><path fill="#e6e6e6" d="m705.5 300.8c0-3.9 3.1-7 7.2-7 4.2 0 7.2 3.2 7.2 7s-3.1 7-7.3 7c-4 0-7.1-3.1-7.1-7zm11.3 0c0-2.3-1.7-4.3-4.2-4.3s-4.1 2-4.1 4.3 1.7 4.3 4.1 4.3c2.7.1 4.2-1.9 4.2-4.3z"/><path fill="#e6e6e6" d="m722.1 294h3.1v3c.8-2 2.4-3.4 4.8-3.3v3.2h-.2c-2.7 0-4.6 1.7-4.6 5.4v5.1h-3.1z"/><path fill="#e6e6e6" d="m731.8 288.9h3.1v11.1l5.6-6h3.8l-5.4 5.5 5.5 8h-3.5l-4.1-5.8-1.9 2v3.9h-3.1z"/><path fill="#e6e6e6" d="m744.4 300.8c0-3.9 3.1-7 7.2-7 4.2 0 7.2 3.2 7.2 7s-3.1 7-7.3 7c-4.1 0-7.1-3.1-7.1-7zm11.3 0c0-2.3-1.7-4.3-4.2-4.3s-4.1 2-4.1 4.3 1.7 4.3 4.1 4.3c2.6.1 4.2-1.9 4.2-4.3z"/><path fill="#e6e6e6" d="m760.9 302.6v-8.6h3.1v7.6c0 2.1 1.1 3.3 2.9 3.3s3-1.3 3-3.3v-7.6h3.1v13.4h-3.1v-2.1c-.8 1.3-2.1 2.3-4.2 2.3-3.1.2-4.8-1.8-4.8-5z"/><path fill="#e6e6e6" d="m776.6 303.8v-7.1h-1.7v-2.7h1.7v-3.7h3.1v3.7h3.6v2.6h-3.6v6.6c0 1.2.6 1.7 1.7 1.7.7 0 1.3-.2 1.9-.5v2.5c-.8.5-1.7.7-2.8.7-2.3.1-3.9-.9-3.9-3.8z"/><path fill="#e6e6e6" d="m785.9 289.7h3.2v15h9.4v2.9h-12.5v-17.9z"/><path fill="#e6e6e6" d="m808.7 307.5v-1.7c-.9 1.1-2.3 2-4.4 2-2.6 0-4.8-1.4-4.8-4.2 0-3 2.3-4.4 5.4-4.4 1.7 0 2.6.2 3.7.5v-.2c0-1.9-1.2-2.9-3.3-2.9-1.5 0-2.6.3-3.9.8l-.8-2.5c1.5-.7 2.9-1.1 5.1-1.1 4 0 5.9 2.1 5.9 5.7v8zm.1-5.6c-.8-.3-1.9-.5-3.1-.5-2 0-3.1.8-3.1 2.1s1.1 2 2.6 2c2 0 3.5-1.1 3.5-2.9z"/><path fill="#e6e6e6" d="m817.6 305.5v2.1h-3.1v-18.7h3.1v7.4c1-1.4 2.4-2.5 4.5-2.5 3.2 0 6.3 2.5 6.3 7s-3.1 7-6.3 7c-2.1 0-3.5-1.1-4.5-2.3zm7.7-4.7c0-2.6-1.7-4.3-3.9-4.3-2.1 0-3.9 1.7-3.9 4.4 0 2.6 1.8 4.3 3.9 4.3 2.2 0 3.9-1.7 3.9-4.4z"/><path fill="#e6e6e6" d="m829.6 305.8 1.4-2.1c1.4 1.1 3 1.7 4.4 1.7s2.1-.5 2.1-1.5-1.3-1.4-2.8-1.8c-.1 0-.2-.1-.2-.1-2-.6-4.2-1.4-4.2-4s2.1-4.1 4.8-4.1c1.7 0 3.5.6 5 1.5l-1.2 2.2c-1.3-.8-2.6-1.3-3.8-1.3s-1.9.5-1.9 1.4 1.3 1.4 2.8 1.8c.1 0 .2.1.2.1 2 .6 4.2 1.5 4.2 4 0 2.9-2.2 4.2-5 4.2-1.9 0-4-.7-5.8-2z"/><path fill="#e6e6e6" d="m206.3 434.2c0-5.1 4.1-9.2 9.3-9.2s9.2 4.2 9.2 9.2-4.1 9.2-9.3 9.2-9.2-4.1-9.2-9.2zm17.4-.1c0-4.5-3.5-8.2-8.2-8.2s-8.2 3.7-8.2 8.3c0 4.5 3.5 8.2 8.2 8.2s8.2-3.7 8.2-8.3zm-13.1-.1c0-2.8 2.1-5.1 5.1-5.1 1.9 0 2.9.6 3.9 1.5l-1.4 1.7c-.8-.7-1.5-1.1-2.5-1.1-1.7 0-2.8 1.4-2.8 3.1s1.1 3 2.8 3c1.1 0 1.7-.5 2.5-1.1l1.4 1.4c-1.1 1.1-2.1 1.7-4 1.7-2.9.1-5-2.2-5-5.1z"/><path fill="#e6e6e6" d="m226.1 425.3h3.4l4.2 13.2 4.4-13.3h2.6l4.4 13.3 4.2-13.2h3.3l-6.2 18h-2.7l-4.4-12.8-4.4 12.8h-2.7z"/><path fill="#e6e6e6" d="m252.4 436.4c0-3.9 3.1-7 7.2-7 4.2 0 7.2 3.2 7.2 7s-3.1 7-7.3 7c-4.1 0-7.1-3.1-7.1-7zm11.2 0c0-2.3-1.7-4.3-4.2-4.3s-4.1 2-4.1 4.3 1.7 4.3 4.1 4.3c2.7.1 4.2-1.9 4.2-4.3z"/><path fill="#e6e6e6" d="m269 429.7h3.1v3c.8-2 2.4-3.4 4.8-3.3v3.2h-.2c-2.7 0-4.6 1.7-4.6 5.4v5.1h-3.1z"/><path fill="#e6e6e6" d="m278.6 424.5h3.1v11.1l5.6-6h3.8l-5.4 5.5 5.5 8h-3.5l-4.1-5.8-1.9 2v3.9h-3.1z"/><path fill="#e6e6e6" d="m291.3 436.4c0-3.9 3.1-7 7.2-7 4.2 0 7.2 3.2 7.2 7s-3.1 7-7.3 7c-4.1 0-7.1-3.1-7.1-7zm11.2 0c0-2.3-1.7-4.3-4.2-4.3s-4.1 2-4.1 4.3 1.7 4.3 4.1 4.3c2.6.1 4.2-1.9 4.2-4.3z"/><path fill="#e6e6e6" d="m307.7 438.2v-8.6h3.1v7.6c0 2.1 1.1 3.3 2.9 3.3s3-1.3 3-3.3v-7.6h3.1v13.4h-3.1v-2.1c-.8 1.3-2.1 2.3-4.2 2.3-3 .2-4.8-1.8-4.8-5z"/><path fill="#e6e6e6" d="m323.4 439.4v-7.1h-1.7v-2.6h1.7v-3.7h3.1v3.7h3.6v2.6h-3.6v6.6c0 1.2.6 1.7 1.7 1.7.7 0 1.3-.2 1.9-.5v2.5c-.8.5-1.7.7-2.8.7-2.3 0-3.9-.9-3.9-3.9z"/><path fill="#e6e6e6" d="m332.7 425.3h3.2v15h9.4v2.9h-12.5v-17.9z"/><path fill="#e6e6e6" d="m355.5 443.1v-1.7c-.9 1.1-2.3 2-4.4 2-2.6 0-4.8-1.4-4.8-4.2 0-3 2.3-4.4 5.4-4.4 1.7 0 2.6.2 3.7.5v-.2c0-1.9-1.2-2.9-3.3-2.9-1.5 0-2.6.3-3.9.8l-.8-2.5c1.5-.7 2.9-1.1 5.1-1.1 4 0 5.9 2.1 5.9 5.7v8zm.1-5.6c-.8-.3-1.9-.5-3.1-.5-2 0-3.1.8-3.1 2.1s1.1 2 2.6 2c2 0 3.5-1.1 3.5-2.9z"/><path fill="#e6e6e6" d="m364.4 441.1v2.1h-3.1v-18.7h3.1v7.4c1-1.4 2.4-2.5 4.5-2.5 3.2 0 6.3 2.5 6.3 7s-3.1 7-6.3 7c-2.1 0-3.5-1.1-4.5-2.3zm7.7-4.7c0-2.6-1.7-4.3-3.9-4.3-2.1 0-3.9 1.7-3.9 4.4 0 2.6 1.8 4.3 3.9 4.3 2.2 0 3.9-1.7 3.9-4.4z"/><path fill="#e6e6e6" d="m376.5 441.4 1.4-2.1c1.4 1.1 3 1.7 4.4 1.7s2.1-.5 2.1-1.5-1.3-1.4-2.8-1.8c-.1 0-.2-.1-.2-.1-2-.6-4.2-1.4-4.2-4s2.1-4.1 4.8-4.1c1.7 0 3.5.6 5 1.5l-1.2 2.2c-1.3-.8-2.6-1.3-3.8-1.3s-1.9.5-1.9 1.4 1.3 1.4 2.8 1.8c.1 0 .2.1.2.1 2 .6 4.2 1.5 4.2 4 0 2.9-2.2 4.2-5 4.2-2 0-4.1-.7-5.8-2z"/><path fill="#e6e6e6" d="m505.1 434.2c0-5.1 4.1-9.2 9.3-9.2s9.2 4.2 9.2 9.2-4.1 9.2-9.3 9.2-9.2-4.1-9.2-9.2zm17.4-.1c0-4.5-3.5-8.2-8.2-8.2s-8.2 3.7-8.2 8.3c0 4.5 3.5 8.2 8.2 8.2s8.2-3.7 8.2-8.3zm-13.1-.1c0-2.8 2.1-5.1 5.1-5.1 1.9 0 2.9.6 3.9 1.5l-1.4 1.7c-.8-.7-1.5-1.1-2.5-1.1-1.7 0-2.8 1.4-2.8 3.1s1.1 3 2.8 3c1.1 0 1.7-.5 2.5-1.1l1.4 1.4c-1.1 1.1-2.1 1.7-4 1.7-2.9.1-5-2.2-5-5.1z"/><path fill="#e6e6e6" d="m525 425.3h3.4l4.2 13.2 4.4-13.3h2.6l4.4 13.3 4.2-13.2h3.3l-6.2 18h-2.7l-4.4-12.8-4.4 12.8h-2.7z"/><path fill="#e6e6e6" d="m551.2 436.4c0-3.9 3.1-7 7.2-7 4.2 0 7.2 3.2 7.2 7s-3.1 7-7.3 7c-4.1 0-7.1-3.1-7.1-7zm11.2 0c0-2.3-1.7-4.3-4.2-4.3s-4.1 2-4.1 4.3 1.7 4.3 4.1 4.3c2.7.1 4.2-1.9 4.2-4.3z"/><path fill="#e6e6e6" d="m567.8 429.7h3.1v3c.8-2 2.4-3.4 4.8-3.3v3.2h-.2c-2.7 0-4.6 1.7-4.6 5.4v5.1h-3.1z"/><path fill="#e6e6e6" d="m577.5 424.5h3.1v11.1l5.6-6h3.8l-5.4 5.5 5.5 8h-3.5l-4.1-5.8-1.9 2v3.9h-3.1z"/><path fill="#e6e6e6" d="m590.1 436.4c0-3.9 3.1-7 7.2-7 4.2 0 7.2 3.2 7.2 7s-3.1 7-7.3 7c-4.1 0-7.1-3.1-7.1-7zm11.2 0c0-2.3-1.7-4.3-4.2-4.3s-4.1 2-4.1 4.3 1.7 4.3 4.1 4.3c2.6.1 4.2-1.9 4.2-4.3z"/><path fill="#e6e6e6" d="m606.5 438.2v-8.6h3.1v7.6c0 2.1 1.1 3.3 2.9 3.3s3-1.3 3-3.3v-7.6h3.1v13.4h-3.1v-2.1c-.8 1.3-2.1 2.3-4.2 2.3-3 .2-4.8-1.8-4.8-5z"/><path fill="#e6e6e6" d="m622.2 439.4v-7.1h-1.7v-2.6h1.7v-3.7h3.1v3.7h3.6v2.6h-3.6v6.6c0 1.2.6 1.7 1.7 1.7.7 0 1.3-.2 1.9-.5v2.5c-.8.5-1.7.7-2.8.7-2.3 0-3.9-.9-3.9-3.9z"/><path fill="#e6e6e6" d="m631.5 425.3h3.2v15h9.4v2.9h-12.5v-17.9z"/><path fill="#e6e6e6" d="m654.3 443.1v-1.7c-.9 1.1-2.3 2-4.4 2-2.6 0-4.8-1.4-4.8-4.2 0-3 2.3-4.4 5.4-4.4 1.7 0 2.6.2 3.7.5v-.2c0-1.9-1.2-2.9-3.3-2.9-1.5 0-2.6.3-3.9.8l-.8-2.5c1.5-.7 2.9-1.1 5.1-1.1 4 0 5.9 2.1 5.9 5.7v8zm.1-5.6c-.8-.3-1.9-.5-3.1-.5-2 0-3.1.8-3.1 2.1s1.1 2 2.6 2c2 0 3.5-1.1 3.5-2.9z"/><path fill="#e6e6e6" d="m663.3 441.1v2.1h-3.1v-18.7h3.1v7.4c1-1.4 2.4-2.5 4.5-2.5 3.2 0 6.3 2.5 6.3 7s-3.1 7-6.3 7c-2.2 0-3.6-1.1-4.5-2.3zm7.7-4.7c0-2.6-1.7-4.3-3.9-4.3s-3.9 1.7-3.9 4.4c0 2.6 1.8 4.3 3.9 4.3s3.9-1.7 3.9-4.4z"/><path fill="#e6e6e6" d="m675.3 441.4 1.4-2.1c1.4 1.1 3 1.7 4.4 1.7s2.1-.5 2.1-1.5-1.3-1.4-2.8-1.8c-.1 0-.2-.1-.2-.1-2-.6-4.2-1.4-4.2-4s2.1-4.1 4.8-4.1c1.7 0 3.5.6 5 1.5l-1.2 2.2c-1.3-.8-2.6-1.3-3.8-1.3s-1.9.5-1.9 1.4 1.3 1.4 2.8 1.8c.1 0 .2.1.2.1 2 .6 4.2 1.5 4.2 4 0 2.9-2.2 4.2-5 4.2-2 0-4.1-.7-5.8-2z"/></g>
</svg>
