<?xml version="1.0" encoding="utf-8"?>
<!-- Generator: Adobe Illustrator 23.0.1, SVG Export Plug-In . SVG Version: 6.00 Build 0)  -->
<svg version="1.2" baseProfile="tiny" id="Layer_1" xmlns="http://www.w3.org/2000/svg" xmlns:xlink="http://www.w3.org/1999/xlink"
	 x="0px" y="0px" viewBox="0 0 900 600" xml:space="preserve">
<g>
	<path d="M887.22,331.91c-2.52-4.35,1.44-1.49-0.72-18.19c-5.5-42.72-2.54-43.48-9.81-80.53c-0.37-1.87-0.03-2.29,2.04-1.64
		c8.86,2.78,11.87-8.24,10.53-13.8c-2.23-9.18-0.52-15.9-9.71-17.88c-6.03-1.3-9.01-7.15-26.98-9.2c-4.8-0.55-9.61-1.84-15.13-1.02
		c2.96,2.86,6.56,0.58,9.3,2.15c2.98,1.7,6.44,2.15,9.81,2.66c4.47,0.68,14.09,7.54,18.19,6.95c-3.58-2.66-7.66-4.29-11.45-6.54
		c5.01,0.41,8.69,4.29,13.49,5.52c-2.45,3.58-5.23,4.23-9.1,2.45c-9.99-4.6-9.29-1.92-16.86-4.09c-2.76,2.35-5.93,0.01-8.89,0.2
		c-3.37,0.22-6.23-1.33-10.12-1.94c2.66,2.76,5.42,3.27,8.28,3.07c1.94,2.55,4.19,4.6,7.05,6.23c-4.89,5.77-11.34-1.8-17.27-1.53
		c-1.84,0.08-2.86-2.25-4.91-2.45c-0.51,1.84,2.96,2.45,0.92,4.91c6.34-2.55,10.32,2.45,15.74,4.09c1.23,0,2.96-1.94,4.39,0.2
		c4.44-1.48,3.32-2.82,2.25-6.03c-2.87-2.65-11.49-4.53,8.58-3.78c8.41,0.31,15.48,7.45,19.62,1.74c0.52-0.71,1.84-0.82,2.86-1.23
		c1.74,0.72,3.27,1.84,4.5,3.37c-1.33,2.04-2.66,3.99-4.39,5.72c2.45-0.1,3.58-1.94,5.11-3.47c2.55,4.7,3.09,9.81,3.27,14.72
		c0.12,3.37-3.07,5.83-6.75,7.26c-1.57-3.13-14.52-0.38-28.82,0.31c-17.73,0.85-8.5-2.49-26.16-0.92
		c-34.27,3.04-43.65,6.67-113.75,3.37c-0.29-16.84-3.35-17.79-1.33-21.67c2.33-4.46,3.37-9.5,4.7-14.31
		c1.72-0.78,80.53,1.02,80.63,1.02c4.15,0.04,7.96-2.93,16.05,5.83c3.38,3.67,7.56,4.7,12.77,4.7c-2.32-4-6.42-1.34-11.04-6.54
		c-3.9-4.38-8.88-7.57-13.39-11.34c-1.98-1.65-3.46-5.67-6.85-6.23c-0.1,1.23,1.33,1.84,1.23,3.58
		c-17.76-14.55-16.2-4.54-39.65-40.98c-6.85-10.64-3.28-8.33-3.07-10.73c-3.32-3.32-7.25-2.46-14-15.74
		c-4.61-9.06,6.5-19.78-11.04-29.74c-1.54-0.87-14.23-8.66-16.05-6.85c0.1,1.56,7.79,3.57-3.37,1.23
		c-13.82-2.9-23.95,5.15-37.71,10.32c-7.05,2.65-12.98,6.95-18.19,12.37c-1.23-0.1-1.84-1.53-3.47-1.12
		c-0.1,1.23,1.12,1.84,1.43,3.07c-1.84,2.86-4.09,5.72-5.52,9.2c-3.37-1.12-6.13-2.86-8.48-5.62c0,10.14,12.03,4.5,6.13,10.94
		c3.17,5.52,8.38,8.48,14.1,11.04c-3.95,2.63-43.89-16.06-56.52-17.48c-6.24-0.7-11.96-3.88-18.29-5.52
		c1.53-1.43,3.78-1.12,5.31-3.17c-7.36,0.82-14.31,0.92-21.87,1.02c-4.29-5.21-8.38-11.62-10.73-18.91
		c-1.81-5.6-4.36-7.34-2.45-10.42c0.65-1.05-4.88-11.64-1.12-31.68c0.69-3.7,2.51-3.42,4.39-5.62c9.15-8.59,25.43-2.75,41.29-7.77
		c20.75-6.56,83.11-9.38,86.56-10.22c22.42-5.48,39.12-10.68,49.16,0.82c3.78,4.33,9.2,7.61,9.71,9.3
		c-6.85-0.1-13.9-1.64-19.62,3.47c-5.01-1.43-9.9-2.69-14.61-4.39c-4.89-1.77-9.71,0-14.51-0.31c3.99,3.17,9.19,0.84,13.39,3.07
		c4.08,2.16,8.79,2.25,13.29,4.19c-5.52,9.03-8.55,10.32,1.33,23.61c3.29,4.43-0.99,2.65,2.76,5.93
		c6.77,6.66,17.72,21.91,15.74,32.29c1.33-2.04,3.36-3.19,5.21-4.5c1.92-1.35,2.86-3.68,4.8-5.42c3.17,1.74,6.85,2.15,9.81,3.99
		c1.94,3.17,1.74,7.05,3.99,10.83c0.74-3.56-4.93-12.31,5.01,3.37c5.42,8.55,8.44,3,21.16,28c8.77,17.24,16.11,42.7,29.23,49.26
		c0.51,0.92-0.72,1.12-0.72,2.15c0.31,0.61,2.35,0.2,1.53,1.84c1.23,0,2.25-0.51,2.76-1.84c-0.61-0.2-1.43,0.31-1.64-1.12
		c9.2,3.94,24.86,0.25,8.69-0.51c-27.51-1.29-27.31-51.1-55.39-74.3c10.44-0.44,7.97-5.97,12.16-6.44c3.27-0.1,5.31-1.94,6.34-4.91
		c1.12-0.31,1.84,0.92,2.55,0.61c2.25-0.51,2.55-2.76,4.19-3.47c7.88,2.19,5.98,0.41,14.82-15.94c4.19,1.23,6.58-1.3,8.58-4.29
		c11.26-16.83,5.95-9.05,19.21-3.68c0.51-1.84,1.84-1.43,3.37-1.02c1.65-4.96,7.55-2.22,5.31-8.48c-8.47-5.86-2.45-1.9-0.82-3.99
		c0.1-1.53-2.45-3.37,0.31-4.8c-2.45-2.15-4.7-0.51-6.85-0.82c0.6-2.27,6.36-2.81-5.52-15.43c0.82-0.82,2.45,0.2,3.17-1.53
		c0.25-1.85-2.21-2.09-5.93-4.7c-6.2-4.35-4.27-8.99-9.91-12.57c-1.13-0.71-2.15-1.43-2.55-2.66c0.1-1.23,2.04-0.31,1.94-1.74
		c-0.1-0.82-0.71-1.32-1.43-1.23c-5.76,0.72-5.43-6.82-17.07-8.48c-0.82-0.92,0.51-2.45-0.2-2.76c-1.84-1.12-2.86-0.1-3.78,0
		c-1.12-0.41-0.31-1.33-0.82-1.94c-1.12-0.82-2.64,0.49-3.88-0.92c-1.01-1.14-2.55-0.72-3.58-1.02c-1.43,1.33-0.1,2.55-0.41,3.58
		c-0.2,0.2-0.41,0.51-0.51,0.51c-5.83-1.84-9.72,2.74-14.21,4.7c-5.32,2.33-9.94,6.21-13.69,10.83c-2.42,2.98-7.9,4.86-12.47,11.75
		c-1.55,2.34-1.64,2.25-5.21,2.66c-19.08-20.48-16.37-16.54-18.09-18.91c-1.23-1.69-23.3-3.45-26.37-1.64
		c-16.09,9.55-71.8,6.64-108.64,15.94c-7.26,1.83-14.62,1.11-21.77,2.45c-13.91,2.61-18.37,4.57-28,1.53
		c-1.94-0.61-3.77-0.68-5.72,0.1c-2.13,0.85-4.6,0.81-6.85,1.53C511.65,44.22,507.77,51,498.77,57.6
		c-10.96,8.04-12.11,26.94-9.71,31.17c1.13,1.99-4.55,10.46-1.74,27.49c0.94,5.68-0.7,10.67,2.35,11.86
		c-1.6,10.97,1.64,9.17,0.1,23.3c-2.32,21.39,1.13,8.14-2.66,20.03c-14.69-4.2-11.3-0.12-15.23-1.53c-3.2-1.15-5.93,0.2-8.99,0.82
		c-0.33,7.57-2.9,3.08-3.99,7.97c-3.73,11.93,0.22,17.31,5.31,26.78c-1.33,2.15,0.03,4.39,0.2,6.64
		c1.26,16.12,1.29,15.07,1.12,15.33c-3.86,5.94,5.37,24.26,8.79,30.46c-3.07,5.11-4.28,10.84-6.75,16.25
		c-4.28,9.4,0.23,17.5-1.02,27.9c-1.14,9.4-1.03,19.21-3.47,28.21c-2.67,9.81-2.78,19.95-5.93,29.64
		c-1.19,3.65-0.37,8.63-2.15,11.96c-1.33,0-0.61-2.04-2.25-1.74c-9.13,5.04-3.36,12.89-11.75,26.16c-1.94,3.07-2.86,6.64-4.7,10.12
		c10.14,17,16.67,10.79,38.02,21.77c9.8,5.04,11.7,2.26,20.75,4.6c7.25,1.87,19.55,0.79,26.98-0.1c6.22-0.74,19.35-7.87,20.24-14.92
		c0.92-7.34-5.32-6.88-16.86-10.22c-6.41-1.85-8.55-5.6-10.73-6.44c-7.41-2.84-10.63-9.81-15.13-15.74
		c5.11-1.33,10.22,1.33,15.43-0.72c-0.69-3.13,29.43-57.71,28.51-60.91c-1.53-0.31-2.03,0.93-2.45,1.84
		c-34.01,72.99-23.37,52.56-25.65,36.89c-1.43,0.2-0.82,1.12-0.82,1.64c0.61,5.11-0.88,10.01-0.61,15.13
		c0.25,4.72-6.72,3.72-15.84,3.27c-6.72-0.33-7.38-14.02-5.31-20.75c2.35-1.23,3.59-3.88,4.7-6.64c3-7.45,7.99-13.83,11.65-20.85
		c1.42-2.73,2.85,1,2.04-8.58c-0.59-7.05,1.48-13.99,0.41-21.05c-0.42-2.78,12.38-17.17,19.21-33.01
		c5.68-13.15,21.44-9.13,22.99-34.85c3.68,0.1,7.25,0.02,10.83,0.72c4.29,0.84,8.68-0.49,12.98,0c21.42,2.46,29.78-2.46,72.77-1.02
		c5.42,0.18,10.73-0.2,16.76-1.12c-3.68,12.26,0,23.71,2.35,35.16c-1.02,1.7-39.29,0.16-42.72-0.1
		c-15.31-1.19-59.15,3.08-70.11,2.55c-3.88-0.19-7.66,0.64-11.45,1.84c-5.61,1.78-8.25,6.04-10.12,11.24
		c-5.34,14.91-7.04,47.4-5.62,49.67c1.52-3.04,1.24-19.5,1.84-22.07c3.07-0.2,6.23,0.61,9.5-0.41c0.92,3.17,1.12,6.44,3.17,8.99
		c1.07-0.36,1.37,1.1-2.76-10.94c-3.47,0.1-6.64,0.31-10.32,0.41c2.96-8.89,3.26-18.09,6.34-26.67c4.66-12.98,26.97-9.54,60.6-11.34
		c40.34-2.17,33.26,1.23,55.6,0.41c5.52-0.2,10.94-0.1,16.76,0.2c3.07,12.37,8.38,24.22,9.61,37.3
		c-8.44-16.89-9.62-18.83-21.77-14.72c-10.18,3.45-3.57,43.63,6.54,67.45c3.76,8.86,8.31,16.55,16.35,14.1
		c7.97-2.43,9.93-6.12,9.2-20.13c-1.06-20.31-3.32-7.69,6.23-12.26c2.55,2.04,5.11,2.76,7.56,0.31c5.31,2.66,7.15,2.04,9.71-3.27
		c1.02-0.1,2.25,0.31,3.37-0.1c1.12-0.41,2.25-0.72,3.58-1.12c2.79,7.93,8.7,28.46,15.64,26.67c3.98-1.03,8.15-1.84,9.1-6.95
		c2.68-14.56-9.82-77.96-22.28-76.34c-16.36,2.13-7.24,20.89-9.2,25.45c-2.66-0.2-5.21-0.61-8.07-1.64
		c0.1-11.96-1.43-23.81-0.1-35.77c21.05-4,42,0.38,77.57-1.53c18.33-0.99,48.23,0.29,48.34,0.31c3.68,0.39,6.85,2.05,10.32,3.07
		c3.88,1.13,6.36,3.55,9.2,5.93c5.54,4.63,11.16,31.61,11.96,37.1c0.81,5.56,5.96,2.64-7.66-36.59c-1.02-1.43-1.74-0.41-2.45-0.72
		c-10.62-13.89-15.01-12.35-47.62-12.88c-10.57-0.17-48.76,2.03-63.98,0.72c-18.5-1.59-33.02,2.25-35.26,1.74
		c1.5-14.97,3.87-10.58,6.64-29.33c1.34-9.07-7.44-5.66,15.02-5.31c97.88,1.5,55.57-3.03,102.61-3.99
		c12.31-0.25,3.84,3.37,38.22-0.31c1.74-0.19,3.47-0.41,5.42,0.2c8.82,58.06,6.04,52.52,6.85,63.57c0.37,5.05,3.27,19.7,3.27,26.78
		c0,1.94-0.31,3.99,1.43,5.62c-2.8,1.36-20.5,0.33-1.94,2.55c1.94,3.47,3.88,6.95,5.93,10.42c-0.72,0.61-1.64,1.02-0.72,2.04
		c2.25,2.86,3.07,6.64,5.11,9.61c4.89,7.1,4.09,13.12,4.09,21.77c-7.97,0.1-15.74,1.23-24.43,0.41
		c-5.93-16.96-10.42-34.54-18.4-51.2c-2.58,3.28,8.77,22.39,12.16,39.55c0.81,4.09,3.22,7.74,4.8,11.65
		c1.74,4.3,12.85,2.31,18.4,2.55c8.79,0.39,9.29-0.82,9.4-9.2C900.15,356.35,892.93,341.78,887.22,331.91z M740.98,39.21
		c-1.33,0.72-2.76,1.53-4.19,2.45c-2.55-1.84-5.62-0.41-8.38-1.12C732.49,39.52,736.68,38.7,740.98,39.21z M846.45,60.77
		c-0.82,0.51-1.33,0.41-2.15-0.41C845.32,59.75,846.04,59.44,846.45,60.77z M837.15,51.06c4.61,3.07,0.56,2.44,1.12,4.7
		c-0.1,1.12,1.53,0.51,1.53,1.53c-1.33,1.53-2.66,1.43-4.19-0.1C837.96,55.56,837.96,53.41,837.15,51.06z M834.18,48.71
		c0.61-0.1,0.82,0.31,1.02,1.02C834.08,49.74,833.77,49.43,834.18,48.71z M831.83,39.82c1.43,0.71,1.68,2.06-0.82,1.43
		C831.22,40.54,831.22,39.92,831.83,39.82z M844.61,71.5c-3.99,1.53-11.86-1.74-15.53-6.64C834.9,67.01,838.47,72.01,844.61,71.5z
		 M827.03,58.52c-1.74-1.33-3.68-2.45-4.7-4.7C824.27,55.05,826.41,55.97,827.03,58.52z M821.92,57.6c-0.82,0-1.02-0.41-1.02-1.23
		C821.51,56.79,822.12,56.89,821.92,57.6z M818.34,46.67c-0.2,0.92,0.92,2.66-1.33,3.37C817.52,48.61,817.93,47.69,818.34,46.67z
		 M817.32,52.39c-1.53,0.2-2.96,0.51-4.29-0.92C814.76,51.17,816.09,51.68,817.32,52.39z M814.25,43.4
		c-1.84-1.12-1.23-2.96-1.64-5.01C815.07,39.72,813.54,41.97,814.25,43.4z M811.19,14.48c-0.72,0-1.43-0.1-1.53-1.94
		C810.47,13.46,811.6,13.15,811.19,14.48z M805.98,29.7c0.1,0.92-0.31,1.64-0.82,2.55c-1.12-0.41-2.35-0.41-2.45-1.74
		C803.52,29.09,804.75,29.5,805.98,29.7z M809.55,52.49c-0.52,1.03,1.28,0.9-5.93-0.61C805.98,50.45,807.61,51.98,809.55,52.49z
		 M802.09,13.46c-0.41,0.72-0.72,1.12-1.64,0.82C800.56,12.54,801.27,13.05,802.09,13.46z M802.7,20.71
		c-1.54,1.88-0.63,6.55-3.37,0.51C800.35,20.61,801.17,20.2,802.7,20.71z M797.59,44.52c-0.61,0.61-1.12,0.51-1.64,0.1
		C796.47,43.6,796.98,43.71,797.59,44.52z M797.49,51.78c-0.61,0.51-1.12,0.41-1.64-0.2C796.47,50.96,797.08,51.06,797.49,51.78z
		 M795.24,14.89c-0.82,1.12-1.53,1.53-2.66,0.92C793.2,14.89,794.02,14.78,795.24,14.89z M791.97,41.66c0.9,0.3-0.26,1.93-1.23,0.72
		C790.95,41.76,791.26,41.25,791.97,41.66z M790.03,13.05c-0.61,0.1-1.12,0.61-1.64-0.2C788.91,12.54,789.42,12.33,790.03,13.05z
		 M788.4,46.16c-0.31,0.61-0.61,0.92-1.53,0.41C787.38,45.85,787.78,45.55,788.4,46.16z M783.59,26.33
		c-0.91,2.8,1.21,3.44-0.31,5.62C782.49,29.66,783.16,26.86,783.59,26.33z M778.08,40.33c-1.33-0.41-1.64-1.12-1.12-2.45
		C778.18,38.19,778.69,38.7,778.08,40.33z M776.13,32.16c0.2-0.92,0.61-1.33,1.53-1.53C777.87,31.85,777.36,32.26,776.13,32.16z
		 M777.46,22.55c-1.12,1.23-2.15,1.43-3.78,0.1C775.21,21.63,776.24,21.22,777.46,22.55z M770.51,24.19
		c-0.92,0.82-1.53,1.23-2.76,0.61C768.57,23.98,769.08,23.16,770.51,24.19z M762.95,33.18c-0.41,1.23-1.23,1.43-2.35,1.53
		C761.11,33.69,761.62,33.08,762.95,33.18z M761.01,41.15c-0.1-1.23,0.2-1.84,1.33-1.64C762.44,40.54,761.83,40.74,761.01,41.15z
		 M758.66,45.95c0.41,2.76,0.41,2.76-1.33,3.17C757.84,48,758.25,46.98,758.66,45.95z M742.61,45.85c0.61,1.02,1.74,0.41,2.76,0.92
		c0.1,2.86-0.1,5.93,0.72,9.1c2.66-0.72,5.21-3.37,7.77-0.82c2.91,0.32,4.7-4.12,4.7,1.64c-0.17,2.97,2.24,9.9,6.23,4.91
		c-0.72-1.02-2.13-0.11-2.76-1.23c-0.7-1.24-1.21-2.55-1.12-3.99c1.03-16.91-0.64-16.06,13.8-17.17c1.43,3.07,1.12,6.54,3.07,9.3
		c0.51-0.31,0-1.43,1.12-1.33c0.31,1.12-0.61,1.02-1.12,1.33c-1.02,3.88-4.39,6.85-4.8,11.04c1.43,1.12,2.04-1.23,3.07-0.61
		c1.43,1.12,0,3.47,2.35,4.29c0-15.57,32.79-4.49,37.92-6.85c3.07,5.11,3.68,5.62,7.15,5.93c0.45-0.9-3.99-5.32,5.21,1.94
		c-1.12,1.53,0.41,2.76,0.61,3.78c-3.58,3.17-6.17,6.83-8.28,10.73c-4.03,7.46-7.58-1.09-11.55,9.4c-2.37,6.26-5.4,14.55-8.79,9.71
		c-0.92-1.12-2.04-1.94-2.55-2.76c-0.61-1.12,0.92-2.15-0.51-2.86c-2.87,0-4.3,3.6,0.1,6.23c-1.12,1.23-2.04,2.25-2.66,2.96
		c-3.88,1.74-5.72-4.09-9.5-2.35c0.51,2.76,3.07,2.04,4.19,3.37c0.31,2.15-0.72,3.37-2.66,3.37c-7.23,0-6.43,10.51-13.59,4.8
		c-11.42-9.1-2.11-13.08-23.2-19.11c1.74-1.02,1.53-2.86,2.76-3.88c0.82,0.1,0,1.33,1.23,1.12c0.61-1.43,2.45-2.35,3.37-4.91
		c-1.43,1.02-2.04,1.94-2.86,2.04c-7.15,0.93-11.8,14.18-13.29,9.71c-3.87-20.79-12.46-18.6-23.71-43.74
		c-1.23-2.76-0.3-5.21,2.15-6.75c10.3-6.47,0.02-1.94,23.1-1.94C742.92,43.91,741.69,44.73,742.61,45.85z M553.24,40.44
		c-0.92,0.61-1.64,0.72-2.25,0.1C551.6,40.03,552.22,40.03,553.24,40.44z M644.6,124.95c1.74-4.39,5.31-7.36,7.46-11.24
		c5.71,3.26,2.74,8.26,8.99,10.42c1.64,5.11,3.27,6.95,10.02,11.45C661.77,133.64,652.37,131.7,644.6,124.95z M655.13,140.08
		c7.66,0,15.23,1.84,23.3,1.64c-7.68,20.05-13.58,10.4-7.87,54.17c-6.95-0.51-13.49,0.28-20.13,1.02c-3.58,0.4-7.15-0.72-11.04-0.41
		c5.83-29.14-1.68-31.08-2.45-40.78c-0.29-3.61-4.24-17.96-7.77-23.51C635.99,134.03,643.46,140.08,655.13,140.08z M635,202.01
		c-0.31-0.41-0.51-0.72-1.02-1.43c-3.88,3.58-8.28,3.27-12.88,1.23c3.62,3.92,8.14,4.27,12.75,1.17c-0.5,6.21-12.53,0.99-19.19,2.11
		c-11.19,1.87-20.37-4.1-30.15-3.07c-6.03,0.64-11.96-0.72-18.19-1.74c0.51-2.96-0.44-5.64,1.23-8.18c1.7-2.58,2.35-5.31-0.2-8.18
		c1.84-1.53,2.76-3.68,4.19-5.42c3.27,0.31,6.34,0.2,9.61-0.31c2.66,7.97,8.99,12.06,15.64,15.74c-4.7-4.91-10.32-8.99-13.9-15.64
		c5.62-0.1,10.22-1.72,15.02-2.04c27.44-1.84,32.4,1.2,40.88-3.47C638.35,178.46,640.16,194.17,635,202.01z M570.82,203.03
		c-3.47,0.31-3.47,0.31-4.7-1.64C567.96,202.01,569.39,202.52,570.82,203.03z M544.35,60.57c0.92,0.82,0.72,1.43,0.31,2.25
		C543.84,62.1,543.43,61.49,544.35,60.57z M544.04,57.81c0.2,0.1,0.51,0.1,0.61,0.2C545.2,58.84,543.38,59.14,544.04,57.81z
		 M543.73,67.62c-0.41-1.23-0.61-2.04-0.1-3.07C545.27,65.37,545.68,66.19,543.73,67.62z M544.65,52.39
		c-0.1-0.82-0.1-1.33,0.92-1.43C545.98,51.88,545.78,52.49,544.65,52.39z M545.57,68.44c1.02,0.61,1.02,1.23,0.72,2.25
		C545.57,69.97,545.16,69.46,545.57,68.44z M492.12,162.97c0.77,0.79,1.46,1.52,2.09,2.2c-2.24-4.13-3.99-9.58-2.6-14.98
		c3-11.63-8.12-25,4.09-82.37c0.83-3.88,2.45-6.96,5.21-8.89c10.68-7.46,32.89-23.54,45.38-18.8c-0.51,1.33-0.92,2.35-1.84,3.07
		c-4.39-0.1-8.69-0.51-12.67,1.84c3.99,0,7.97,0,11.86,0c0.2,3.58-1.23,6.13-3.78,7.97c-3.37,0.2-6.85-0.51-10.12,1.33
		c3.47,0,6.75,0.72,10.02,1.64c0.31,1.74,1.12,3.37,0.61,5.31c-8.28,1.31-7.49,3.4,0.72,1.53c0.51,6.34,3.68,11.55,5.11,17.27
		c-0.72,0.51-1.12-0.82-1.74-0.1c0.72,3.58,1.12,7.05,0.1,10.83c-19.46,6.15-9.74,11.43-12.88,20.85c5.39-3.71,0.81-5.67,3.17-14.41
		c4.09-0.82,7.87-2.55,11.75-3.88c0.82-1.43,0.92-2.96,1.12-4.6c4.4,4.4,3.09,8.1,8.07,15.74c9.29,14.26,8.67,6.84,11.86,8.48
		c3.81,1.97,4.88-2.01,10.22,1.43c12.23,7.88,21.28,5.7,24.22,9.3c1.66,2.03,3.47,3.99,6.03,5.01c-1.43-2.25-3.88-3.58-5.42-6.44
		c4.27,0.77,19.98,5.32,21.56,8.48c9.76,22.39,4.27,13.24,11.04,28.92c8.51,19.72-3.02,7.75-62.65,15.64
		c-1.12-0.82-0.51-2.25-1.94-2.45c-1.02,0.92-0.82,2.35-1.23,3.47c-3.12,6.77-6.8,4.9-2.66,11.75c-3.88,4.29-1.74,10.63-4.5,15.74
		c1.43,3.37-0.61,6.34-1.12,9.4c-2.96,1.33-5.83,0.92-8.58,1.23c-41.02,4.56-52.52-14.32-65.3-16.35
		C488.34,186.27,489.57,174.72,492.12,162.97z M468.31,238.9c-2.14-5.36,1.09-5.26-0.82-23.4c-1.2-11.39,0.65-5.63-5.72-21.26
		c-4.81-11.78,2.31-13.81,3.47-21.26c4.92-1.54,5.67,2.24,10.12-0.1c1.28-0.77,2.76-0.51,10.83,1.43
		c-1.63,27.13-5.69,24.08,10.22,31.99c2.74,1.36,5.62,2.76,6.95,6.13c-7.15,1.02-2.25,2.86-2.25,4.09
		c-0.92,0.61-2.25,0.82-2.76,1.94c0.1,1.43,1.84,1.74,2.04,3.07c-1.02,0.92-2.77,1.33-2.96,2.86c-0.54,4.29-2.35,8.28-1.74,12.26
		c-6.85,6.44-14.61,11.34-20.24,19.32C470.44,248.43,471.1,245.9,468.31,238.9z M503.37,223.78c-0.2,3.68-1.02,5.52-3.27,7.46
		C500.61,228.38,501.53,226.03,503.37,223.78z M456.25,375.54c4.8,3.58,9.4,6.64,15.23,6.85c-2.76,5.52-7.15,6.85-12.77,6.13
		C457.38,384.33,455.33,380.55,456.25,375.54z M492.02,382.9c-4.29,2.96-10.42,2.55-14.31,7.26c3.44,0.95,9.6-3.58,16.35-4.39
		c-3.27,0.92-6.13,2.86-9.5,3.17c-1.74,1.94-5.01,2.15-5.83,5.11c1.33,1.94,2.86,0.82,4.09,0.2c4-2.02,8.39-3.15,12.47-4.91
		c1.64-0.71,2.25-0.1,2.66,1.33c-6.13,0.92-12.06,1.84-15.84,7.26c1.33,2.45,2.66,1.33,3.88,0.82c4.6-1.93,9.4-3.37,13.9-5.72
		c0.82,1.23,1.33,2.15,1.94,3.17c-5.11,0.72-10.22,0.92-12.57,6.44c0.51,0.51,0.82,0.92,1.02,0.92c4.6-1.02,8.69-3.68,13.59-4.91
		c1.02,0.41,2.15,1.02,3.27,1.53c-4.39,2.35-9.2,2.96-13.18,5.83c5.93,1.23,10.73-1.43,15.23-4.6c6.9,3.32,11.44,12.26,29.13,12.98
		c1.12,4.29-0.29,6.57-3.58,7.97c-0.6,0.26-15.02,13.67-43.84,6.13c-3.17-0.83-6.54-1.12-9.2-2.15c-1.23,0.51-0.41,1.43-1.33,1.64
		c-3.99-1.71-14.01-9.06-30.25-12.67c-4.4-0.98-12.01-6.3-10.22-10.42c4.82-11.15,8.79-13.99,8.79-21.16c0-4.91,5.65-13.38,4.8-6.03
		c-0.49,4.29,2.04,7.77,3.07,11.65c1.22,4.59,13.72-0.18,18.19-2.66c-1.23-0.72-2.25,0.82-3.07,0c2.66-3.99,4.7-8.38,8.99-11.34
		c2.45,0.82,4.5-1.64,7.15-2.04C488.85,376.77,489.36,380.35,492.02,382.9z M509.09,330.58c0.2,1.02-0.31,1.94-1.12,2.76
		c-10.2,10.29-12.49,22.17-14.82,24.43c-3.12,3.02-4.19,6.75-4.6,10.83c-1.12-23.1,7.56-42.72,20.95-60.5
		C510.55,308.44,507.23,321.2,509.09,330.58z M536.17,260.88c-4.94,1.87-6.39,7.93-8.28,9.3c-0.72-1.94,2.45-3.88-0.31-6.13
		c-1.43,1.94-1.46,4.19-1.23,6.13c1.59,13.2-48.97,61.75-40.67,101.48c-4.09,2.86-9.91,3.07-12.57,7.97
		c-4.8,0.41-8.48-1.84-12.37-4.09c1.53-2.25,1.02-4.7,1.12-7.26c-2.45,1.02-2.25,3.68-4.29,5.42c0.03-0.1,13.84-65.45,12.16-81.66
		c-1.24-11.96,3.29-22.32,8.79-32.4c3.49-6.4,15.67-14.97,22.07-24.63c3.68-5.55,5.2-4.89,6.85-22.99c2.45,0.72,4.6,1.33,6.13,1.74
		c2.25,1.94,1.23,4.8,3.07,6.54c1.02-1.74,0.31-3.78,1.53-5.52c10.32,2.58,5.53,5.21,27.08,5.21c1.12,1.64-1.53,2.25-0.51,4.29
		c3.27-5.31,8.38-5.52,13.69-5.62c-0.92,3.88-1.94,7.46-3.58,10.94C547.33,245.56,550.12,255.61,536.17,260.88z M666.88,232.88
		c-1.92,0.24-47.1,0.6-50.28,0.82c-11.45,0.8-22.9,2.69-34.44,1.64c-8.69-0.79-17.37,0.92-26.27-1.02
		c2.25-5.31,4.39-10.73,5.11-16.35c4.39-3.07,3.17-8.38,5.31-12.47c8.99,1.94,18.09-0.1,26.67,0c0.92,0.92-0.51,1.02,0.1,1.74
		c2.25,0.61,4.39-1.22,6.54-0.51c9.23,3.05,17.65,0.36,18.29,1.33c-0.51,1.53-2.66,1.43-3.37,3.37c2.96-0.2,4.8-1.64,6.34-3.78
		c2.98,1.19,12.42,1.93,13.8-1.02c1.33-2.86,4.19-4.5,4.7-8.18c10.63,1.94,21.05-1.33,31.78-0.1c1.21,7.01-4.15,12.67,1.02,22.07
		c-3.27,0.82-0.72,2.96-0.72,4.7C668.62,226.85,669.64,231.04,666.88,232.88z M672.1,373.5c-12.06-15.04-25.2-73.89-11.14-73.89
		c-1.74,27.39,3.88,52.84,18.19,76.34C675.47,376.67,674.32,376.28,672.1,373.5z M679.76,371.25
		c-12.25-16.7-22.87-67.59-12.88-72.97c8.69,7.66,10.94,18.4,14.82,28.92c-9.04,1.97-13.92,1.32-8.79,13.08
		c2.47,5.67,6.05-0.08,12.06,1.12C687.62,356.15,689.37,382.6,679.76,371.25z M682.32,338.65c-2.45,0.31-4.6,1.33-6.95,0.82
		c-2.15-3.17-2.45-4.39-1.84-8.07c2.04-0.2,4.09-1.33,6.34-0.61C680.37,333.44,680.88,336.1,682.32,338.65z M727.28,291.64
		c9.91,15.86,20.6,68,13.69,71.95C726.24,351.31,716.34,269.75,727.28,291.64z M715.12,295.52c0.31-4.29,1.02-4.91,5.31-5.62
		c0.41,26.37,5.72,51.51,17.68,75.12c-3.96,1.64-6.22,2.97-11.45-10.42C720.47,338.7,713.95,311.95,715.12,295.52z M702.04,304.82
		c0.93,10.38,8.02,6.45,12.16,9.81c1.02,8.38,3.47,16.76,5.01,25.24c-2.86,1.84-5.52,0.82-7.97,1.02c-1.95,6.56-3.64,2.13-7.97,4.09
		c-2.37,1.08-4.5,1.02-6.34-0.72c-6.03,1.84-6.64,1.53-9.71-3.99c-0.44-1.32-7.51-5.63-3.37-12.57c4.81-9.62-22.87-70.4-12.57-99.44
		c2.25,0.72,3.17,2.66,4.7,4.39c0.41-3.37-1.84-4.91-3.37-6.64c-0.02-0.1,0.19-33.01,0.2-33.11c0.85-7.2-1.67-12.47-1.53-19.21
		c0.4-19.85,15.66-35.73,10.22-41.59c-0.92,1.12-0.31,2.86-2.15,3.47c-26.87-16.23-15-15.04-25.75-23.51
		c11.49-12.98,23.07-13.74,33.52-19.83c10.27-5.99,21.03-3.13,33.52,0c7.54,1.89,10.31,6.83,13.9,10.42c0,0.1,0.71,30.66,0.72,30.76
		c1.31,20.91-16.33,30.46-19.62,38.53c-1.43-0.72-1.84-2.45-3.68-2.35c0.2,3.27,2.04,5.31,4.7,6.64c2.67-0.8-2.07,0.03,11.86-14.21
		c8.92-9.12,11.63-22.46,10.12-26.37c-0.95-2.44-0.2-4.8,0.2-7.15c0.92,0.2,1.02,0.92,1.43,1.23c2.35,1.43,2.35,4.7,4.8,5.93
		c2.04,1.02,3.18,2.76,3.78,4.8c3.47,11.71,13.77,20.21,15.84,26.37c2.16,6.44,20.04,19.33,33.93,27.39
		c5.23,2.62,4.64,1.66-83.29,1.02c0.31-6.54,1.33-12.47,0.1-18.5c-4.91,0.82-0.34,18.93-7.97,33.11c-1.1,2.05-1.55,4.6-0.82,6.85
		c2.2,6.76,1.71,13.7,2.45,20.54C710.55,250.81,698.04,260.05,702.04,304.82z"/>
	<path d="M494.22,165.17C498.41,172.92,504.29,175.97,494.22,165.17L494.22,165.17z"/>
	<path d="M428.35,554.29c-4.7-38.01-1.3-25.71-5.72-57.74c-1.71-12.37-4.09-21.02-3.37-22.18c1.34-0.96,7.63,3.79,11.04-3.88
		c2.74-6.17,1.87-7.41-0.41-19.83c-1.49-8.1-7.13-6.45-13.59-10.32c-10.65-6.38-30.44-8.76-36.28-7.77c2.86,2.76,6.43,0.52,9.2,2.15
		c2.96,1.74,6.43,2.09,9.81,2.66c4.46,0.74,14.09,7.54,18.19,6.95c-3.58-2.66-7.66-4.29-11.45-6.54c5.01,0.41,8.69,4.29,13.49,5.52
		c-5.9,8.6-11.21-1.82-22.28-0.61c-1.12,0.12-2.25-0.51-3.47-1.12c-2.96,2.45-6.13,0.17-9.1,0.31c-3.38,0.16-6.23-1.33-10.12-1.94
		c2.66,2.86,5.31,3.27,8.28,3.07c1.94,2.55,4.19,4.7,7.05,6.23c-4.89,5.77-11.33-1.63-17.27-1.53c-1.84,0.03-2.96-2.15-4.91-2.66
		c-0.61,2.04,2.86,2.55,0.82,5.01c6.44-2.66,10.22,2.45,15.74,3.99c1.23-0.2,2.96-1.64,4.5,0.2c1.43-0.41,2.55-1.12,3.27-2.35
		c-0.41-1.12-0.72-2.35-1.12-3.58c-1.23-1.33-3.27-1.64-4.39-3.47c23.72-2.76,27.34,8.55,32.5,1.43c0.52-0.71,1.84-0.82,2.86-1.23
		c1.84,0.72,3.27,1.84,4.5,3.27c-1.23,2.15-2.76,3.99-4.91,6.13c2.96-0.41,3.99-2.35,5.62-3.78c2.55,4.7,3.02,9.81,3.27,14.72
		c0.17,3.37-3.07,5.83-6.75,7.26c-2.23-4.47-30.18,2.71-41.7-0.41c-13.11-3.55-31.95,6.85-121.92,3.68
		c-24.65-0.87-37.25,1.3-62.14-0.41c-19.68-1.35-57.69,2.41-73.07,1.74c-4.19-0.18-8.37-0.26-12.67,0.2
		c-4.29,0.46-8.58-1.02-13.49-0.61c2.45-5.83,4.6-11.24,5.31-16.76c3.99-3.27,3.37-8.18,5.21-12.57c8.99,1.84,18.09,0.1,26.88,0
		c0.92,1.02-0.51,1.12,0.1,1.84c2.76,0.2,5.62-1.33,8.48-0.2c6.32,2.49,14.27,0.26,16.35,0.82c-0.51,1.74-2.66,1.74-3.58,3.37
		c2.96,0.2,4.8-1.23,6.13-3.27c13.39,1.53,12.77,1.43,19.11-9.1c30.69,0,43.64-3.16,85.64-1.64c0.1,0,71.33,0.85,71.44,0.82
		c12.66-3.92,12.47,10.63,27.7,10.63c-1.73-3.84-6.36-1.32-11.14-6.75c-5.67-6.44-10.67-7.95-15.94-14.61
		c-0.99-1.25-2.15-2.45-4.39-2.96c0.72,1.23,1.23,2.15,2.15,3.78c-16.24-10.95-21.47-12.72-29.13-25.14
		c-6.92-11.22-5.31-5.31-15.33-23.91c-0.41-1.23,1.33-1.74,0.92-3.37c-11.28-4.76-16.36-21.24-17.58-24.02
		c5.42-2.96,9.71-7.05,13.29-11.75c-0.61-1.22-0.09-0.65-1.53-1.23c0.82-1.84,1.33-3.88,3.17-5.31c3.17,1.74,6.85,2.04,9.81,3.88
		c1.94,3.17,1.74,7.05,3.99,10.73c0.61-2.35-1.02-3.58-0.72-5.42c3.67,3.4,5.45,10.32,9.4,13.18c21.8,15.84,27.99,63.56,46.81,72.97
		c0.51,0.92-0.72,1.12-0.72,2.15c0.2,0.61,2.35,0.1,1.53,1.84c2.15,0.41,3.27-0.1,3.68-1.43c-0.51-0.2-1.43,0.31-1.64-0.92
		c0.8-0.1,1.37,0.25,1.64,0.92c11.15,2.03,21.33-0.96,7.05-1.64c-28.01-1.32-27.39-51.58-55.49-74.3
		c10.51-0.45,8.11-5.87,12.26-6.44c3.8-0.52,4.91-1.53,6.44-4.91c1.02-0.31,1.64,0.92,2.66,0.61c1.24,0,2.46-2.71,3.78-3.37
		c8.19,2.23,5.98,0.31,14.92-15.94c4.19,1.23,6.55-1.32,8.48-4.29c11.02-16.91,6.02-9.11,19.11-3.68c0.72-1.23,1.74-2.25,3.37-0.51
		c1.6-5.05,7.38-2.9,5.52-8.48c-1.23-1.53-3.17-2.04-4.7-3.47c1.12-0.82,2.55,0.72,3.68-0.72c-0.41-1.53-1.43-3.37,0.1-5.11
		c-2.25-1.84-4.5-0.41-6.64-0.51c0.41-1.64,2.04-2.45,1.94-3.68c-1.33-5.01-4.19-8.38-7.56-11.75c0.92-0.92,2.45,0.2,3.17-1.64
		c0.25-1.77-3.01-2.65-5.93-4.7c-6.2-4.35-4.27-8.99-9.91-12.57c-5.41-3.43-0.61-3.11-0.61-4.6c-0.1-0.61-0.71-1.11-1.43-1.02
		c-5.75,0.71-5.44-6.79-17.07-8.48c-0.72-0.92,0.41-2.35-0.2-2.76c-1.84-1.23-2.86-0.1-3.78,0c-1.12-0.41-0.31-1.33-1.02-2.04
		c-2.55,0.72-4.7-2.25-7.36-1.64c-1.33,1.23,0,2.35-0.2,3.47c-0.2,0.2-0.41,0.51-0.51,0.51c-6.03-1.84-9.92,2.85-14.51,4.91
		c-9.81,4.39-11.86,10.21-16.56,13.39c-11.76,7.95-8.33,12.05-14.61,11.55c-21-22.02-16.85-17.09-18.09-18.8
		c-0.65-0.89-11.44-3.3-24.63-2.04c-5.49,0.52-0.49,2.93-21.56,5.31c-10,1.13-16.11-5.56-26.27-6.75c-12.23-1.43-22-0.78-50.69,3.58
		c-11.03,1.68-8.05,9.26-9.4,12.98c-8.61,4.69-11.66,0.47-36.18,5.93c-12.49,2.78-15.89-3.21-22.28-0.61
		c-0.1,0.04-19.94,3.49-32.09,15.64c-5.1,5.1-15.74,8.01-17.37,27.18c-1.09,12.81,2.03,7.32,0.2,13.18
		c-3.74,12.06-1.92,15.37-1.02,31.37c0.1,1.84,0.2,3.47,1.94,4.39c-0.72,4.8-0.49,9.29,0.51,13.9c1.17,5.39-2.4,15.1-1.23,22.99
		c0.29,1.94-1.12,4.19-1.94,6.54c-8.18-3.37-16.05-1.94-24.02-1.33c-0.41,2.55,0.31,5.12-2.66,5.72c-0.51,0.1-0.92,1.33-1.23,2.04
		c-4.2,12.03-0.3,17.32,4.91,26.98c-0.47,2.98,1.42,21.05,1.43,21.16c0,4.82-3.39,1.1,1.33,14.82c1.97,5.71,4.29,11.45,7.66,16.96
		c-3.07,4.7-3.92,10.3-6.44,15.33c-2.49,4.99-2.72,10.62-1.84,15.84c4.02,23.78-12.28,66.76-4.39,63.26
		c0.72-0.82,0.72-1.74,0.82-2.66c1.65-15.34,3.38-11.71,4.39-21.26c3.96-37.14,3.53-30.97,3.17-41.7
		c-1.09-31.96,31.65-42.93,35.87-61.11c3.86-16.62-1.84-14.85,8.38-12.16c1.53,1.94,1.53,4.19,2.15,7.05
		c1.74-2.15,0.82-4.29,2.15-6.03c11.44,2.34,2.24,4.66,27.18,5.21c0.72,1.64-1.53,2.15-0.92,4.29c3.37-5.11,8.28-5.72,13.69-5.72
		c-1.39,9.72-6.04,14.31-7.46,20.85c-5.81,26.7-16.27,14-22.69,31.27c-0.92-2.76,2.25-4.7-0.2-6.85c-3.7,3.31,1.61,5.19-4.91,16.56
		c-8.45,14.75-36.79,52.84-36.79,72.05c7.9,5.27-4.34-5,23.3-44.87c0.31,2.45-0.01,4.7-0.31,7.05c-2.13,16.65,2.08,14.83-1.74,19.01
		c-5.03,5.5-8.79,11.96-11.75,18.91c1.74,0.82,2.27-0.09,2.86-1.02c10.8-17.13,10.32-17.55,12.26-18.91c0.51-2.25,0.13-4.4,0-6.44
		c-0.43-7.06,1.48-13.99,0.41-21.05c-0.14-0.92,7.7-13.19,8.58-14.31c11.14-14.02,9.24-22.47,18.09-27.29
		c10.32-5.62,14.41-14.92,15.43-26.16c42.38,2.35,47.69,0.98,64.9-0.2c13.22-0.91,27.3,0.46,40.78-1.23
		c9.73-1.22,102.91,4.33,147.57-1.53c11.13-1.46,21.95-2.54,33.01-1.12c13.38,1.72,28.28-2.31,33.93-1.02
		c2.89,20.67,4.27,28.11,6.34,48.65c0.47,4.71,0.02,9.4,0.41,14.1c0.54,6.54,1.86,12.98,2.76,19.42c1.23,8.78-0.53,11.32,1.94,13.8
		c-3.27,1.64-6.54,0.2-9.61,1.23c11.17,5.12,3.4-5.98,13.49,11.55c-0.1,0.82-1.82,0.81-0.82,2.04c4.67,5.74,4.44,12.9,8.48,11.55
		c-3.32-9.63-4.91-13.3-10.53-22.79C427.12,571.02,430.9,574.89,428.35,554.29z M109.49,444.12c1.74,0.1,3.07,1.12,4.5,1.64
		C110.62,445.86,110.62,445.86,109.49,444.12z M178.17,444.53c-0.31-0.41-0.51-0.72-1.02-1.43c-3.88,3.58-8.28,3.27-12.88,1.23
		c3.64,3.94,8.18,4.18,12.83,1.12c0.18,0,0.11,2.79-3.42,3.17c-7.46,0.81-8.49-2.13-15.74-0.92c-11.31,1.89-20.06-4.12-30.15-3.07
		c-6.13,0.64-12.06-0.72-18.09-1.74c0.31-2.96-0.52-5.73,1.12-8.18c1.73-2.56,2.35-5.31,0-7.97c5.75-8.4,1.39-4.42,13.49-5.93
		c2.66,7.97,8.99,11.96,15.53,15.94c0.51-1.33-1.43-1.43-0.82-2.55c15.66,0,13.53-11.04,14.61-15.84c9.4-1.02,18.91,1.33,28.31-2.86
		C181.95,423.76,182.96,437.43,178.17,444.53z M143.22,430.32c-7.7,2.95-12.16-9.59-15.23-17.27c-5.11-12.82-16.56-57.72-2.86-58.97
		C121.25,375.57,129.99,413.62,143.22,430.32z M127.28,420.72c2.35,1.74,3.27,4.5,4.39,7.15
		C130.55,425.31,126.66,424.39,127.28,420.72z M152.93,406.92c6.59-1.88,3.83-4.51,9.81-1.02c2.15-0.1,3.68-1.23,5.42-1.84
		c4.19,2.66,5.52,2.35,10.12-2.25c2.15,3.17,1.74,6.95,3.37,10.73c-9.5,3.99-18.8,1.33-28.1,2.15
		C153.34,411.72,153.13,409.27,152.93,406.92z M280.06,368.08c1.64,3.98,5.91,5.84,7.77,9.61c0.1,0.2,0.41,0.31,0.61,0.41
		c5.35,2.29,0.71,5.37,13.69,22.07c8.98,11.55,3.73,7.77,8.69,13.18c30.38,33.17,69.8,24.63-37.51,24.63
		c-6.44,0-12.78-1.56-19.21-0.51c-1.84,0.3-3.78,0.22-5.62-0.31c-6.13-1.75-10.19-0.71-36.08,1.12c-3.99,0.28-7.96-0.69-11.96,0.31
		c-5.92,1.47-11.85,0.31-17.48,0.2c5.65-42.36-7.09-30.94,1.64-38.94c3.31,8.83,7.99,25.84,15.23,23.91
		c4.1-1.09,7.98-2.25,8.69-7.36c3.17-22.79-10.64-52.57-5.93-51c30.28,4.88,36.68,3.8,44.25-0.1c7.77-4.01,11.65-1.03,21.67-7.66
		c1.84-1.22,3.88-2.04,6.23-2.25C275.77,360.01,278.33,363.89,280.06,368.08z M188.29,345.4c0.72,0.41,1.02-1.02,2.04-0.31
		c6.4,8.88,12.5,33.29,14.41,44.56c9.65,56.89-12.79,17.56-18.09-29.64c-0.33-2.93-1.35-14.76,1.02-16.45
		C188.49,343.96,187.37,344.99,188.29,345.4z M201.78,419.59c-4.7,1.64-5.52,1.33-7.97-3.07c-8.43-15.15-16-50.11-15.02-67.14
		c0.22-3.78,1.23-4.5,5.21-4.8C184.4,370.95,189.82,396.09,201.78,419.59z M274.44,351.73c-15.23,4.53-31.32,18.45-74.81,8.99
		c-9.9-25.73-9.52-21.57-22.48-17.68c-0.92,4.91-0.41,9.91-0.82,15.13c-2.35-0.61-4.6,0.2-7.05,0.1c0.82-9.1-1.74-18.19,2.15-26.78
		c0.51-0.1,0.82,0.92,1.43,0.41c0.72-1.23-0.51-2.04-0.31-3.37c3.88-3.68,5.93-8.69,7.97-14.21c2.86,3.07,6.03,4.7,8.89,6.64
		c0,2.15-0.72,4.19,0.92,5.83c14.04,14.04,17.38,17.86,46.19,20.54c2.15,0.2,4.4,0.83,6.64,0.51c32.01-4.61,31.24-15.07,40.67-25.86
		C284.78,327.29,273.22,344.04,274.44,351.73z M177.15,368.08c-2.05-2.44-10.99-1.72-7.77-7.26c2.45,0.1,5.01,0.2,7.56,0.92
		C177.43,366.58,178.04,368.08,177.15,368.08z M389.72,303.09c-0.72,0.82-1.33,0.61-2.15-0.31
		C388.6,302.27,389.21,302.06,389.72,303.09z M380.32,293.38c4.92,3.44,0.34,2.44,1.23,5.11c0,0.92,1.74,0.2,1.43,1.43
		c-1.23,1.23-2.45,1.33-3.99-0.2C380.93,297.87,381.75,295.93,380.32,293.38z M378.17,292.15c-0.72,0.2-0.92-0.1-1.02-0.92
		C378.17,291.13,378.38,291.54,378.17,292.15z M375,282.24c0.61,0.31,1.23,0.61,1.02,1.53C374.35,284.44,373.79,283.21,375,282.24z
		 M387.78,313.92c-3.88,1.64-12.16-1.74-15.13-6.34C378.07,309.32,381.75,314.63,387.78,313.92z M370.2,301.14
		c-1.64-1.53-3.68-2.55-4.5-4.91C366.93,298.08,369.89,298.28,370.2,301.14z M365.09,300.02c-0.72,0-1.02-0.31-1.02-1.23
		C364.68,299.2,365.3,299.3,365.09,300.02z M362.23,289.39c-0.51,0.92,0,2.35-1.94,3.37C361.64,288.44,361.57,289.06,362.23,289.39z
		 M358.14,286.43c-2.96-1.33-1.33-3.58-2.04-5.01C358.24,282.44,357.12,284.38,358.14,286.43z M361,294.91
		c-1.74,0.31-3.27,0.41-4.91-1.02C358.14,293.79,359.47,294.09,361,294.91z M354.77,256.79c-1.23,0.31-1.74,0.1-1.74-1.02
		C353.95,255.36,354.36,255.87,354.77,256.79z M349.25,272.12c0,3.47-2.69,2.56-3.37,0.92C346.8,271.51,348.02,271.91,349.25,272.12
		z M352.73,295.22c-2.04-0.1-4.09-0.2-6.34-1.23C349.25,292.87,350.89,294.6,352.73,295.22z M343.73,256.07
		c0.2-0.61,0.72-0.61,1.53-0.2C344.77,257.62,343.4,256.74,343.73,256.07z M344.75,266.91c-1.85,0.62-0.1,0.67-2.25-3.27
		C346.58,262.28,345.78,262.8,344.75,266.91z M340.77,286.94c-0.61,0.82-1.02,0.61-1.64,0.1
		C339.85,286.32,340.36,285.81,340.77,286.94z M340.87,294.19c-0.82,0.51-1.33,0.41-1.74-0.1
		C339.75,293.58,340.26,293.58,340.87,294.19z M338.42,257.51c-0.82,1.02-1.53,1.23-2.66,0.82
		C336.48,257.51,337.19,257.1,338.42,257.51z M335.45,284.89c-0.51,0.51-1.02,0.51-1.64-0.1
		C334.53,283.97,334.94,283.26,335.45,284.89z M333.21,255.36c-0.61,0.41-1.12,0.72-1.64,0.2
		C331.98,254.95,332.49,254.95,333.21,255.36z M331.67,288.57c-0.41,0.61-0.82,1.02-1.43,0.51
		C330.45,288.16,330.96,288.16,331.67,288.57z M326.69,269.54C326.73,269.13,327.28,267.97,326.69,269.54
		c-0.19,1.38,1.02,2.79,0.59,4.41C325.88,272.28,325.77,272.13,326.69,269.54z M321.15,280.5c1.96,3.42-2.5,2.2-0.82,0.1
		C320.33,280.5,320.74,280.6,321.15,280.5z M319.31,274.57c0.41-0.92,0.72-1.43,1.53-1.23
		C321.04,274.37,320.64,274.78,319.31,274.57z M320.74,265.07c-1.23,1.33-2.25,1.33-3.58,0.2
		C318.39,263.94,319.41,263.64,320.74,265.07z M313.58,266.6c-0.72,1.12-1.53,1.12-2.55,0.82
		C311.74,266.4,312.36,265.68,313.58,266.6z M306.33,275.49c-0.61,1.33-1.12,1.84-2.35,1.33C304.28,276,304.9,275.7,306.33,275.49z
		 M305.61,281.93c0,1.02-0.41,1.53-1.43,1.43C304.18,282.65,304.39,282.03,305.61,281.93z M302.55,288.47
		c-0.1,1.43,0.1,2.76-1.43,3.68C301.22,290,301.22,290,302.55,288.47z M285.68,288.37c0.41,1.12,1.74,0.41,2.86,0.92
		c0,17.19,1.76,4.14,8.38,8.28c1.94,0.2,2.86-1.33,4.19-1.33c0.36,0.56,1.28,15.1,6.85,7.87c-1.09-1.63-5.99,2.69-2.96-17.37
		c0.78-5.15,7.69-4.6,12.98-5.01c1.41,3.12,1.25,6.43,2.99,9.17c0.46-0.33,0.09-1.3,1.09-1.3c0.38,1.4-1.34,1.01-1.02,1.43
		c-1.02,3.88-4.39,6.85-5.01,11.14c1.43,1.12,1.94-1.23,3.07-0.61c1.43,1.12,0,3.37,2.35,4.29c-0.3-15.71,32.77-4.34,38.12-6.95
		c1.53,3.27,3.17,5.93,6.85,6.23c0.78-1.42-3.64-5.43,5.31,1.64c-1.02,1.53,0.31,2.76,0.61,3.78c-3.58,3.27-6.08,6.88-8.28,10.73
		c-4.39,7.69-7.72-1.21-11.75,9.71c-5.66,15.34-7.03,11.2-11.55,6.23c-0.31-0.61,1.12-1.64-0.2-2.45c-2.68,0-4.38,3.71,0.1,6.23
		c-1.12,1.23-2.04,2.25-2.66,2.96c-3.88,1.74-5.72-4.09-9.5-2.45c0.41,2.86,2.96,2.04,4.09,3.37c0.31,2.04-0.61,3.34-2.55,3.37
		c-7.29,0.12-6.52,10.38-13.29,5.21c-11.19-8.55-3.22-14.03-23.1-19.21c4.22-6.86,1.44-2.86,3.68-2.86
		c0.41-1.53,2.45-2.25,3.27-5.01c-2.96,2.18-10.41,3.43-14.21,12.88c-1.93,4.81-5.62,6.13-9.1,8.58
		c6.44-13.49,11.14-27.39,11.55-42.82c-0.31-0.51-1.33,0.92-1.94-0.1c-1.64-6.85-6.44-12.16-9.5-18.7c2.86-2.45,6.13,1.64,8.99-1.64
		C286.09,286.43,285.07,287.14,285.68,288.37z M284.97,315.55c0.72,1.23,0.92,2.45-0.31,3.88
		C284.35,318.01,284.76,316.78,284.97,315.55z M276.79,282.65c2.76-1.53,4.29-1.74,7.36-0.92
		C279.08,284.62,280.85,284.49,276.79,282.65z M266.06,262.72c5.51,0.82,8.36,6.68,12.67,10.02c13.77,10.65-0.16,1.78-9.71,6.64
		c2.15,1.23,3.78,2.66,4.6,4.39c4.29,9.09,10.2,13.61,11.96,29.43c0.61,2.5-1.19,2.37-0.73,2.22c-0.43-10.52,0.02-8.06-7.25-22.76
		c-1.71-3.46-11.1-14.9-11.75-15.23c-11.48-4.59-10.68-11.59-29.64-6.85c-1.94-1.12-3.78-2.15-5.83-3.27
		C236.58,264.7,253.82,260.9,266.06,262.72z M142.91,268.85c0.49-2.15,1.44-3.97,3.68-4.7c3.38-1.1,6.85-2.26,10.53-2.45
		c64.75-3.44,34.88-1.23,60.71,4.6c5.93,1.34,11.34,4.09,17.37,6.95c8.04-3.74,16.26-1.29,24.53,2.76
		c15.43,7.56,26.83,37.62,21.77,45.17c-10.77,16.06-15.05,20.21-36.48,23.2c-3.06,0.43-5.42-1.63-8.38-1.43
		c-22.56,1.55-47.91-14.51-43.95-20.85c4.7,1.02,8.9,3.25,13.39,4.5c4.71,1.31,9.3-0.51,13.8-0.61c0.64,3.66-1.48,10.05,5.11,1.43
		c1.84,4.5,4.6,8.07,8.69,10.63c-1.33-5.83-6.03-9.61-8.58-14.61c-5.86,2.23-4.4-1.45-8.58-0.51c-10.91,2.44-27.23-1.9-34.95-10.53
		c1.84-12.47,1.84-12.47,0.2-13.8c-0.51,0.51-0.6,1.02-0.61,1.64c-0.15,6.55-3.34,12.47-4.6,18.91c-0.6,3.07-3.07,5.51-5.21,7.87
		c-4.63,5.1-5.58,16.56-4.39,22.07c1.63,7.58-3.91,17.83,2.86,18.4c3.37,0.28,5.52,2.35,8.38,3.78c4.24,30.4,8.26,23.11,3.17,28.21
		c-2.04,1.02-2.76-1.02-4.09-1.02c-3.7,4.93-3.28,4.98-8.48,3.68c-1.21-0.3-2.45,0.45-7.15,1.84c-2.86-3.07-5.62,0-8.48,0.2
		c-3.37-3.27-6.44-6.75-8.18-11.24c-2.04,1.02-3.78,1.94-5.83,1.64c-2.45-2.96-2.86-4.39-2.25-8.07c2.04-1.74,6.13,0.31,7.36-3.78
		c-2.86-0.31-5.01,0.72-7.36,0.92c-2.15,0-4.1,6.64,0.2,12.47c2.24,3.03,4.17,0.41,7.36,0.41c1.53,2.96,4.99,5.01,5.52,8.69
		c1.93,13.45,0.85,31.37-7.15,20.03c-10.24-14.51-23.14-65.95-12.16-72.46c7.97,7.56,11.04,17.58,13.8,27.9
		c5.53-5.03-6.72-44.93-8.99-63.57C133.39,300.19,134.97,303.34,142.91,268.85z M139.74,359.6c2.55,0.82,2.96,1.74,2.35,5.11
		C141.17,363.08,140.25,361.65,139.74,359.6z M94.47,282.54c0.51,0.1,1.12-0.41,1.84,0.31C95.62,283.68,93.72,283.54,94.47,282.54z
		 M98.15,285.71c7.39-5.17,3.7-4.2,32.81-6.03c2.14-0.13,4.29-0.92,6.85-0.41c-1.64,3.17-5.83,0.92-7.26,3.99
		c1.43,1.12,3.17,0.41,4.91,1.02c-4.7,25.5-6.75,30.14,5.83,71.64c-2.15-0.1-3.96,0.09-5.11-1.64c-6.01-8.99-12.73-0.17-23.51-1.74
		c-1.53-0.22-3.07-0.51-4.09,1.23c-4.7-5.62-8.38-11.24-10.83-17.88c10.83,0.1,10.83,0.1,13.08-3.37c-4.8,0.61-9.3,1.02-13.9,0.51
		c-5.54-11.64-1.67-8.29-2.76-11.65C91.78,314.05,88.85,292.22,98.15,285.71z M117.06,380.45c0,0.89-1.3,0.18-0.72-0.41
		C116.75,379.94,117.06,380.04,117.06,380.45z M40.61,467.01c-0.53,4.19-2.35,8.18-1.74,12.16c-6.75,6.44-14.51,11.34-20.13,19.32
		c-2.78-3.53-8.86-17.61-8.07-23.1c4.57-31.77-11.83-39.6-6.34-51.1c1.42-2.97,3.47-5.72,3.99-8.99c1.84-0.41,3.37-0.4,4.8,0.2
		c4.47,1.88,3.83-1.38,9.91-0.2c2.05,0.4,4.09,1.02,6.23,1.53c-0.51,8.48-2.66,16.76-0.92,25.45c9.63,7.22,15.24,6.73,18.09,12.67
		c-1.33,0.51-3.07,0.2-3.88,1.64c-0.1,1.33,1.64,1.33,1.64,2.55c-0.92,0.61-2.25,0.82-2.66,1.84c0,1.64,1.94,1.74,2.04,3.17
		C42.55,465.07,40.81,465.48,40.61,467.01z M43.47,474.06c0.1-3.07,1.43-5.31,3.17-7.36C46.13,469.26,45.82,471.92,43.47,474.06z
		 M96,457.1c-41.32,4.59-52.41-14.26-65.41-16.35c0.92-11.86,2.25-23.51,4.8-35.36c2.55,3.37,5.01,6.64,7.36,9.81
		c1.54-1.02-0.31-2.04-3.88-7.26c-7.4-10.8-2.14-13.26-3.27-22.28c-2.1-16.81-3.27-32.38-1.23-46.3c4.3-29.21,5.4-34.22,10.22-37.61
		c11.03-7.76,32.96-23.59,45.58-18.7c-1.02,1.12-1.02,2.35-2.15,2.96c-4.29-0.1-8.69-0.41-12.77,1.84c4.09,0,8.07,0,12.06,0
		c0.2,3.68-1.23,6.23-3.88,8.07c-3.37,0-6.85-0.51-10.12,1.33c3.47-0.51,6.64,0.82,9.91,1.43c2.24,9.51-0.47,2.78-5.31,7.36
		c2.55,0.51,4.5-0.1,6.75-0.51c0.41,6.23,3.78,11.45,5.11,17.37c-0.61-0.2-1.12-0.41-1.74-0.61c0.51,3.78,1.23,7.36,0,11.14
		c-3.34,1.3-13.16,3.26-12.57,11.34c0.22,2.96,1.33,5.93,0.1,9.1c4.93-3.29,0.7-6.05,2.76-13.69c12.55-4.62,12.52-3.13,12.88-8.79
		c4.79,4.22,5.86,18.92,16.45,24.94c1.74-1.02,3.99-1.02,8.99,0c-4.91,0.1-9.4,1.53-13.59,4.29c4.6,1.64,8.58-2.45,13.39-1.33
		c-0.01,0.1-0.6,11.05-0.82,11.55c-6.03,0.72-9.61,4.39-9.2,10.53c2.15-3.88,3.88-7.46,9.1-7.05c-10.58,5.77-0.89,8.28,1.23,11.24
		c-3.68,3.88-3.68,5.52-0.2,8.99c2.22-2.22-1.02-16.5,5.21,8.99c-2.04,1.12-3.17-1.64-5.31-0.41c1.53,2.25,4.29,2.04,6.34,3.47
		c0.72,3.37,2.76,6.64,3.47,10.42c-3.58-0.1-6.95,1.43-10.73,0.61c-0.61-0.41,0-2.15-1.53-2.04c-1.28,1.41-0.36,3.55-3.37,6.95
		c-3.79,4.28-3.27,3.47-0.41,8.28c-3.99,4.19-1.74,10.53-4.5,15.64c1.33,3.27-0.72,6.34-1.23,9.4
		C101.62,457.2,98.76,456.79,96,457.1z M86.91,306.87c1.43,0.92,1.94,1.74-0.31,3.37C86.7,308.81,86.19,307.99,86.91,306.87z
		 M87.93,305.13c-1.12-0.51-1.12-1.23-0.41-2.15C88.54,303.8,88.34,304.41,87.93,305.13z M87.32,300.33c1.18,0,0.39,0.89,0.1,1.12
		C87.01,301.04,87.01,300.63,87.32,300.33z M88.03,295.11c-0.41-0.82-0.2-1.33,0.61-1.64C89.26,294.3,89.05,294.81,88.03,295.11z
		 M88.75,310.75c0.92,0.72,1.12,1.43,0.72,2.55C88.85,312.49,88.34,311.98,88.75,310.75z"/>
	<path d="M407.5,563.38c-0.92-13.9-5.21-26.78-9.5-38.94c-1.02-1.23-1.64-0.2-2.55-0.72c-8.35-15.03-24.48-12.16-47.01-12.67
		c-12.09-0.28-48.27,2.06-64.28,0.72c-24.09-2.03-33.1,4.43-44.76,2.15c-0.1-0.02-84.92-1.02-107.72,0.92
		c-49.88,4.25-55.81-12.92-60.19,62.75c0,0.2,0.31,0.31,1.02,1.33c1.53-7.77,1.02-14.92,1.53-22.28c3.27-0.1,6.34,0.41,9.71-0.31
		c0.92,3.43,1.69,9.35,3.99,8.58c-1.23-3.47-2.35-7.05-3.47-10.42c-3.47,0-6.75,0-10.22,0c13.72-41.66-21.49-37.81,155.75-37.81
		c36.05,0,35.09-3.5,52.22-2.15c25.99,2.05,70.15-1.38,92.18,0.51c11.02,0.95,10.82,5.77,13.8,3.78c8.01,7.35,8.58,7.3,9.81,11.14
		C409,564.81,404.29,562.44,407.5,563.38z"/>
	<path d="M70.86,595.88c1.33,0.72,1.94-0.2,2.45-1.12C101.45,535.82,73.99,584.68,70.86,595.88z"/>
	<path d="M30.49,517.29c1.33,0.92,2.25,0.2,2.76-0.41c4.56-6.21,15.17-14.94,11.85-20.95C40.41,503.8,35.81,510.75,30.49,517.29z"/>
	<path d="M400.15,576.67c0.75,3.57,2.16,6.94,3.88,10.12c1.65,3.06,2.04,6.75,4.09,9.61c1.63-1.22,3.08,3.61-9.91-29.74
		C395.31,567.62,399.41,573.16,400.15,576.67z"/>
	<path d="M36.63,544.78c5.21-4.17,3.03-8.9,9.1-15.94c4.02-4.67,6.54-10.12,8.79-16.56c-4.53,1.32-1.66,5.93-11.14,17.78
		C39.92,534.38,38.67,539.78,36.63,544.78z"/>
	<path d="M368.26,458.53c-2.86-1.74-32.09-1.12-38.73,0.72C342.4,458.94,355.28,458.02,368.26,458.53z"/>
	<path d="M786.35,216.52c12.88-0.1,25.75-0.92,38.73-0.82C812.11,214.28,799.23,215.71,786.35,216.52z"/>
	<path d="M703.88,45.85c-2.35-2.45-15.94-3.58-20.64-1.94C690.18,45.55,696.73,46.26,703.88,45.85z"/>
	<path d="M651.14,34.81c6.13-0.82,12.67,2.04,18.6-1.64C663.51,32.98,657.17,31.85,651.14,34.81z"/>
	<path d="M632.24,40.64c-3.27-1.43-12.06,1.12-16.25,4.91c5.21-0.82,10.22-2.86,15.43-3.58C631.93,41.87,632.34,41.25,632.24,40.64z
		"/>
	<path d="M689.26,33.79c-5.11,0-9.81,0-14.92,0C678.13,37.06,686.81,37.17,689.26,33.79z"/>
	<path d="M186.45,459.86c7.46,1.02,14.92,1.33,23.1,0.72C207.19,459.14,194.42,458.94,186.45,459.86z"/>
	<path d="M594.12,87.75c-0.32-0.16-0.22-1.18-1.43-1.64C591.86,88.88,628.48,141.05,594.12,87.75z"/>
	<path d="M637.55,35.22c-21.64,0,0.65,2.88,8.79,0.92C643.58,34.61,640.52,35.22,637.55,35.22z"/>
	<path d="M859.53,318.42c-1.12-1.64,0.2-2.15,1.53-2.66c-4.09-1.84-5.13-1.54-6.44,1.84c-1.35,3.47-1.33,3.47-1.02,5.83
		c2.66-1.53,1.84-4.7,3.37-6.75C858.1,316.68,858.1,318.31,859.53,318.42z"/>
	<path d="M400.25,559.19c1.12,0.1,1.12,1.43,2.15,1.74c0.92-0.51-0.2-1.12,0-1.74c0.31-0.72,1.43,0,1.64-0.92
		c-0.41-1.23-3.78-1.63-5.01-0.51c-1.32,1.2-4.34,14.24,0,4.7C399.43,561.34,399.43,560.11,400.25,559.19z"/>
	<path d="M81.08,493.17c3.9-5.6,10.95-1.47,9.1-7.87c-3.47,1.12-5.83,3.99-8.89,5.31C80.47,490.82,80.26,491.74,81.08,493.17z"/>
	<path d="M555.59,46.47c12.91,4.3,10.9,4.17,11.45,3.07C563.23,47.95,556.55,42.64,555.59,46.47z"/>
	<path d="M673.83,47.79c2.55-1.23,5.62-1.23,8.38-2.45C679.56,42.38,676.59,43.19,673.83,47.79z"/>
	<path d="M410.88,456.69c-4.8-0.31-9.5,0.31-14.1,1.53C401.37,456.89,406.38,458.94,410.88,456.69z"/>
	<path d="M866.78,214.99c4.5-1.19-4.9-1.69-13.29,0.92C857.89,214.48,862.37,216.16,866.78,214.99z"/>
	<path d="M309.5,380.04c0.31-3.17,1.64-6.34,0.31-9.71C307.25,373.5,308.68,376.77,309.5,380.04z"/>
	<path d="M875.67,358.78c2.49-0.83-2.84-8.74-4.91-12.47C869.65,346.69,869.25,345.6,875.67,358.78z"/>
	<path d="M766.94,127.61c-2.45,2.15-2.55,3.99-0.61,9.91C766.53,134.36,768.06,131.19,766.94,127.61z"/>
	<path d="M696.32,31.95c-2.35-2.15-5.31-3.37-8.38-4.6C690.08,30.11,692.33,32.46,696.32,31.95z"/>
	<path d="M858.81,216.93c1.12,3.37,1.43,6.85,0.82,10.63C862.08,224.39,861.67,219.59,858.81,216.93z"/>
	<path d="M407.71,565.12c-2.35,1.02-2.25-1.74-3.99-2.25c0.2,3.58,3.78,5.01,4.19,8.69C409.04,568.9,407.81,567.17,407.71,565.12z"
		/>
	<path d="M494.17,364.51c4.35,1.54,9.92-0.61,9.81-0.61C500.5,363.94,497.34,363.59,494.17,364.51z"/>
	<path d="M864.43,322.81c-2.25,0.82-2.25-1.74-3.88-2.45c0.1,3.58,3.58,5.21,4.29,8.69C865.66,326.59,864.74,324.96,864.43,322.81z"
		/>
	<path d="M401.78,459.04c1.23,3.78,1.84,7.26,1.33,10.83C405.36,466.4,404.85,461.7,401.78,459.04z"/>
	<path d="M754.67,137.32c2.25-0.31,3.99-1.64,5.72-2.86C756.41,133.84,755.28,134.46,754.67,137.32z"/>
	<path d="M297.84,379.84c2.35-0.31,3.99-1.64,5.72-2.86C299.58,376.36,298.46,376.97,297.84,379.84z"/>
	<path d="M219.46,459.45c-2.35-0.82-4.7-0.82-6.95-0.31C214.76,460.78,217.11,459.96,219.46,459.45z"/>
	<path d="M61.66,498.49c2.86,1.02,5.31,0.72,7.46-1.53C66.47,496.65,64.22,497.98,61.66,498.49z"/>
	<path d="M378.17,458.43c2.55,0,5.11,0,8.48,0C383.38,457.41,380.73,457.3,378.17,458.43z"/>
	<path d="M834.8,215.91c2.76,0,5.42,0,8.79,0C840.01,214.99,837.45,214.68,834.8,215.91z"/>
	<path d="M133.31,473.04c0.61-3.07,0.31-6.03-0.82-8.99C131.57,467.11,132.49,470.08,133.31,473.04z"/>
	<path d="M561.11,42.58c2.35,1.53,2.45,1.53,8.58,1.53C569.35,43.96,562.47,41.85,561.11,42.58z"/>
	<path d="M47.25,483.26c1.94-2.45,1.84-4.6,1.12-6.85C47.46,478.36,46.74,480.4,47.25,483.26z"/>
	<path d="M875.27,361.44c-0.51,2.76,0.82,5.42,0.1,8.18C877.11,366.86,876.29,364.2,875.27,361.44z"/>
	<path d="M358.35,442.69c-0.41-2.86-1.74-4.09-3.68-5.83C354.97,439.62,355.38,441.46,358.35,442.69z"/>
	<path d="M310.62,387.4c-0.1-2.55,0.1-4.29-2.04-5.62C307.66,384.13,308.37,385.56,310.62,387.4z"/>
	<path d="M417.31,595.88c-0.31-2.66-2.15-4.7-3.68-6.95C413.94,591.69,415.17,594.04,417.31,595.88z"/>
	<path d="M811.7,194.65c0.31,3.78,0.92,4.7,3.47,4.8C814.36,197.31,813.33,195.88,811.7,194.65z"/>
	<path d="M767.45,144.88c-0.1-2.45,0.1-4.29-2.04-5.62C764.48,141.61,765.1,143.14,767.45,144.88z"/>
	<path d="M75.15,572.99c1.64-2.15,2.66-4.09,3.07-6.44C76.79,568.29,74.85,569.82,75.15,572.99z"/>
	<path d="M534.84,324.04c-1.23,1.84-3.17,3.37-3.07,6.03C533.51,328.53,534.43,326.8,534.84,324.04z"/>
	<path d="M75.36,495.73c-2.25,1.74-1.84,3.88-2.15,5.72C74.85,500.02,75.46,498.28,75.36,495.73z"/>
	<path d="M664.63,53.52c2.45-0.2,3.88-0.61,4.8-2.45C666.99,50.04,665.96,51.37,664.63,53.52z"/>
	<path d="M117.77,467.11c0.82-2.25,0.2-4.7,0.72-7.05C116.95,461.49,116.95,462.72,117.77,467.11z"/>
	<path d="M625.39,36.14c-2.04,0.51-4.09,0.92-6.13,1.43C621.61,38.39,623.76,38.49,625.39,36.14z"/>
	<path d="M511.44,334.87c3.07,1.02,5.11-0.72,7.36-0.61C516.55,333.74,514.3,333.44,511.44,334.87z"/>
	<path d="M126.87,461.8c2.76,1.02,5.52,0.72,8.28,0C132.39,461.8,129.63,461.8,126.87,461.8z"/>
	<path d="M54.61,577.28c3.17,1.12,5.21-0.72,7.46-0.51C59.72,576.16,57.47,575.96,54.61,577.28z"/>
	<path d="M35.09,550.92c-1.53,1.74-1.84,3.68-2.86,5.62C34.38,555,34.48,554.7,35.09,550.92z"/>
	<path d="M525.75,342.94c1.23-1.33,1.94-2.86,2.55-5.31C526.36,339.57,525.65,341.1,525.75,342.94z"/>
	<path d="M68.72,586.07c1.64-1.74,2.04-3.37,2.45-5.11C69.64,582.09,68.82,583.62,68.72,586.07z"/>
	<path d="M611.19,95.32c-0.51-2.04-1.74-3.58-3.68-4.29C608.53,92.66,609.35,94.5,611.19,95.32z"/>
	<path d="M752.73,100.53c-0.31-2.25-1.84-3.58-3.68-4.6C749.56,98.08,751.2,99.3,752.73,100.53z"/>
	<path d="M195.14,469.16c0.51-2.25,1.23-4.39,0-6.54C194.32,464.76,195.03,467.01,195.14,469.16z"/>
	<path d="M296.11,342.94c-0.61-2.04-1.84-3.58-3.88-4.5C292.94,340.49,294.37,341.82,296.11,342.94z"/>
	<path d="M109.39,464.76c0.1-1.23,0.1-2.45,0.2-3.78C107.76,462.21,108.68,463.43,109.39,464.76z"/>
	<path d="M840.01,221.94c0.82-1.74,0.51-3.07-0.61-4.19C838.99,219.08,838.99,220.41,840.01,221.94z"/>
	<path d="M204.64,467.93c0.31-2.45,0.1-4.09-1.43-5.83C202.7,464.35,203.62,465.79,204.64,467.93z"/>
	<path d="M383.18,464.76c0.92-2.15,0.61-3.37-0.51-4.5C382.16,461.7,382.36,462.92,383.18,464.76z"/>
	<path d="M646.24,104c0.51-1.43,0.41-2.76-1.43-3.78C644.5,101.86,645.11,102.98,646.24,104z"/>
	<path d="M353.54,436.56c-0.51-1.84-1.64-2.35-3.47-2.96C350.89,435.43,351.7,436.15,353.54,436.56z"/>
	<path d="M410.57,572.99c2.04,0.92,3.37-0.2,4.8-0.41C413.84,571.77,412.41,571.77,410.57,572.99z"/>
	<path d="M886,358.89c-2.15-0.1-4.29-1.12-6.85,0C881.7,360.11,883.85,359.09,886,358.89z"/>
	<path d="M603.11,48.92c1.53,0.1,2.76,0.2,3.88,0.31C605.87,47.59,604.64,47.28,603.11,48.92z"/>
	<path d="M867.81,330.17c0,0.84-0.27,1.12,4.5,0.1C870.67,329.25,869.13,329.35,867.81,330.17z"/>
	<path d="M518.29,357.25c-1.33,0.92-2.04,2.25-2.45,3.78C517.16,360.11,517.98,358.89,518.29,357.25z"/>
	<path d="M809.76,194.04c-0.41-1.84-0.41-1.84-2.76-2.45C807.51,193.02,808.53,193.63,809.76,194.04z"/>
	<path d="M178.89,449.84c2.15,1.12,3.68,1.12,5.52,0.72C182.67,449.74,181.24,449.13,178.89,449.84z"/>
	<path d="M60.34,466.19c-1.53,1.84,0,2.86,0.1,4.5C61.46,469.06,61.36,467.83,60.34,466.19z"/>
	<path d="M769.18,148.46c0.41-1.53-0.31-2.35-1.53-3.58C767.86,147.13,767.86,147.13,769.18,148.46z"/>
	<path d="M635.1,111.97c-0.61-1.64-1.84-1.74-3.17-1.74C632.54,111.46,633.46,112.18,635.1,111.97z"/>
	<path d="M312.36,391.18c0.31-1.64-0.2-2.66-1.64-3.47C310.31,389.34,311.33,390.16,312.36,391.18z"/>
	<path d="M59.82,476.01c0.51-1.43,0.72-2.35,0-3.58C58.8,473.65,59.01,474.57,59.82,476.01z"/>
	<path d="M778.48,159.29c0.51,1.74,1.94,1.84,2.96,2.35C780.94,160.52,780.12,159.6,778.48,159.29z"/>
	<path d="M764.99,122.81c1.64-0.92,0.51-2.04,0.61-3.07C764.58,120.56,764.58,121.58,764.99,122.81z"/>
	<path d="M321.66,401.6c0.51,1.84,1.94,1.94,2.96,2.45C324.11,402.93,323.39,402.01,321.66,401.6z"/>
	<path d="M244.6,459.04c1.23,1.02,2.35,1.53,4.5,0.51C247.15,459.35,245.93,458.84,244.6,459.04z"/>
	<path d="M308.68,365.63c0.61-1.33,0.51-2.35,0.1-3.88C307.86,363.28,307.76,364.3,308.68,365.63z"/>
	<path d="M348.84,432.88c-0.1-1.53-0.51-2.35-2.15-2.66C347,431.65,347.41,432.37,348.84,432.88z"/>
	<path d="M805.98,190.67c-0.51-1.74-0.82-2.76-2.35-2.66C803.73,189.24,804.24,189.85,805.98,190.67z"/>
	<path d="M629.89,107.48c0.72-1.33,0-1.84-0.82-2.66C628.56,106.05,628.76,106.76,629.89,107.48z"/>
	<path d="M591.87,105.54c1.53,0.41,2.04,0,2.55-1.02C593.1,103.8,592.59,104.51,591.87,105.54z"/>
	<path d="M644.09,89.39c0.1-1.74,0-2.45-1.02-3.17C642.36,87.34,642.97,88.06,644.09,89.39z"/>
	<path d="M738.22,108.19c0.92-0.72,1.64-1.43,1.23-2.86C737.91,105.94,738.22,107.17,738.22,108.19z"/>
	<path d="M325.44,418.37c-0.1-0.92-0.61-1.33-1.43-1.43C323.91,418.06,325.03,417.96,325.44,418.37z"/>
	<path d="M22.01,526.49c1.74,0,2.45-0.72,2.96-2.15C23.14,524.24,22.93,525.37,22.01,526.49z"/>
	<path d="M27.22,522.1c1.23,0,2.15-0.2,2.04-1.84C27.94,520.26,27.63,521.18,27.22,522.1z"/>
	<path d="M330.75,422.56c-0.31-1.43-0.72-2.25-2.04-2.35C328.61,421.64,329.42,422.04,330.75,422.56z"/>
	<path d="M332.08,423.78c0.41,1.12,0.82,1.84,2.15,1.53C334.02,423.99,333.41,423.58,332.08,423.78z"/>
	<path d="M782.37,175.95c-0.1-0.92-0.72-1.33-1.64-1.43C780.83,175.44,781.45,175.85,782.37,175.95z"/>
	<path d="M785.33,177.79c0.33,1.98,2.04,2.43,2.04,1.53C787.07,178.4,786.66,177.59,785.33,177.79z"/>
	<path d="M790.85,182.9c0.1-1.43-0.72-1.64-2.04-1.74C789.21,182.39,789.73,183.1,790.85,182.9z"/>
	<path d="M104.38,467.22c0.92-1.02,1.12-1.94,0.72-3.27C104.49,464.97,104.08,465.89,104.38,467.22z"/>
	<path d="M662.39,56.58c1.22-0.11,2.17-1.03,1.43-2.15C662.8,54.74,662.28,55.36,662.39,56.58z"/>
	<path d="M599.33,48.92c0.18-1.98-2.34-0.47-0.92,0C598.72,49.02,599.02,48.92,599.33,48.92z"/>
	<path d="M83.23,468.65c-1.43,0.1-2.15,0.72-2.66,2.25C82.21,470.59,83.02,470.08,83.23,468.65z"/>
	<path d="M863.92,330.88c-0.1,0.92-0.1,1.64,1.23,1.64C865.15,331.7,864.84,331.19,863.92,330.88z"/>
	<path d="M408.22,575.24c0.1-0.92,0.2-1.64-1.12-1.64C407.09,574.42,407.4,574.93,408.22,575.24z"/>
	<path d="M727.49,215.09c-0.82-0.51-1.43-0.51-2.25,0C725.95,215.5,726.67,215.5,727.49,215.09z"/>
	<path d="M270.76,457.51c-0.82-0.51-1.43-0.51-2.25,0C269.23,458.02,269.94,458.02,270.76,457.51z"/>
	<path d="M301.52,349.89c-0.51,1.02,0.1,1.74,0.82,2.86C302.65,351.12,302.34,350.51,301.52,349.89z"/>
	<path d="M758.25,107.07c-0.2,1.33-0.1,2.04,0.92,2.86C759.58,108.81,759.07,108.19,758.25,107.07z"/>
	<path d="M16.39,533.34c0.92-0.31,1.33-0.61,1.43-1.53C16.8,531.7,16.49,532.21,16.39,533.34z"/>
	<path d="M409.96,578.1c-0.61,0.41,0.1,0.82,0.51,1.64C410.47,578.61,410.26,577.9,409.96,578.1z"/>
	<path d="M612.82,48c-0.82-1.12-1.33,0-1.94,0.1C611.7,49.02,612.21,48.82,612.82,48z"/>
	<path d="M353.13,463.03c0.1-0.51,0.51-1.12,0-1.53C352.52,462,353.03,462.51,353.13,463.03z"/>
	<path d="M358.04,462.92c0.31-1.12,0.61-1.74,0-2.35C357.32,461.19,357.73,461.9,358.04,462.92z"/>
	<path d="M367.75,443.2c0.19,0.84,1.82,0.32,0.92-1.02C368.06,442.38,367.63,442.69,367.75,443.2z"/>
	<path d="M824.58,200.68c0.18,0.79,1.74,0.42,0.92-1.02C824.88,199.87,824.46,200.17,824.58,200.68z"/>
	<path d="M770.61,151.01c0,0.72,0.31,1.02,1.12,0.82C771.84,150.81,771.53,150.5,770.61,151.01z"/>
	<path d="M866.37,335.69c0.2,0.41,0.31,0.72,0.51,1.23C867.5,336.3,867.09,335.89,866.37,335.69z"/>
	<path d="M606.59,89.9c-0.41-0.92-0.82-1.33-1.94-1.33C604.95,89.39,605.36,89.9,606.59,89.9z"/>
	<path d="M814.76,218.06c-0.61,0.82-0.2,1.43-0.31,2.66C815.17,219.49,815.38,218.87,814.76,218.06z"/>
	<path d="M809.76,220.71c0.51-0.72,0.31-1.23,0.2-1.94C809.35,219.59,809.65,220.1,809.76,220.71z"/>
	<path d="M313.69,393.33c0.2,0.82,0.41,1.33,1.23,0.92C315.12,393.43,314.71,393.22,313.69,393.33z"/>
	<path d="M840.72,198.33c-0.2-0.82-0.51-1.12-1.23-0.92C839.39,198.43,839.8,198.64,840.72,198.33z"/>
	<path d="M49.4,473.55c-0.53-0.53-0.41-0.2-0.61,0.2C49.11,473.76,49.4,474.09,49.4,473.55z"/>
	<path d="M51.65,499.82c0,0.1,0.41,0.31,0.51,0.31C53.81,499.02,51.9,498.57,51.65,499.82z"/>
	<path d="M57.17,509.22c-0.72,0.2-1.33,0.41-0.72,1.23C57.17,510.24,57.58,509.94,57.17,509.22z"/>
	<path d="M18.33,529.35c1.12,1.02,1.33,0.51,1.74,0C19.25,528.54,19.05,529.35,18.33,529.35z"/>
	<path d="M383.79,440.85c0.1-1.02-0.41-1.02-1.43-1.02C382.77,440.85,383.08,441.26,383.79,440.85z"/>
	<path d="M304.9,373.91c1.23-0.1,1.23-0.61,1.23-1.33C305.1,372.68,305.1,373.19,304.9,373.91z"/>
	<path d="M761.83,131.29c0.92,0,1.33-0.31,0.82-1.23C762.03,130.27,761.72,130.68,761.83,131.29z"/>
	<path d="M114.09,460.47C113.89,460.47,113.68,460.57,114.09,460.47L114.09,460.47z"/>
	<path d="M563.25,118.82c1.99-0.78,8.98-3.02,10.94-2.15c4.51,2.01,6.86,12.97,1.74,14.1c-3.72-4.43-10.86-2.92-12.98,7.05
		c1.86-0.62,4.03-7.16,8.99-6.03c-10.25,6.3,0.85,8.63,1.64,11.24c-3.58,3.99-3.58,3.99-0.41,9.2c1.64-1.43,0.61-3.27,0.92-4.8
		c3.78-4.7,3.78-4.7-1.23-9.4c1.53-1.53,3.78-1.64,5.62-2.76c2.66,4.09,6.34,7.36,8.89,11.55c-2-8.85-11.43-11.24-5.93-19.62
		c24.35,25.99,33.37,33.01,26.47,25.45c-24.06-26.38-26.33-26.1-28.31-32.6c-2.93-9.62-9.44-6.03-18.8-3.07
		c-0.31,0.1-0.61,0.41-0.92,0.61C560.6,119.84,562.02,119.31,563.25,118.82z"/>
	<path d="M498.36,92.97c-5.1,1.7,19.99,44.82,22.69,49.36c1.54-1.03-8.01-18.62-8.89-20.24C494.67,89.97,501.18,96.66,498.36,92.97z
		"/>
	<path d="M563.15,125.67c3.27,1.42,3.68,1.43,6.54-0.72c-5.01,0.31-8.37-2.28-12.16-3.78c-12.71-5.02-8.39-2.18-18.91-18.7
		c0.82,6.75,4.98,11.58,9.1,16.56C548.47,119.94,546.93,118.62,563.15,125.67z"/>
	<path d="M573.68,152.85c-4.5,5.11-6.34,10.42-4.6,16.35c-1.74,1.94-4.09,0.82-6.34,2.25c4.56,1.59,8.4,0.81,8.48-4.29
		C571.41,155.74,575.54,159.22,573.68,152.85z"/>
	<path d="M524.83,150.61c0-0.33,0.01-0.45,0-0.44c-0.01,0.01-0.03,0.15-0.1,0.34L524.83,150.61z"/>
	<path d="M526.77,135.28c0.1,4.09-1.23,8.07-2.04,12.26c-1.94-1.53-1.84-3.88-3.37-5.42c-0.4,0.4,1.01,4.6,2.86,6.23
		c0.58,0.58,0.62,1.17,0.61,1.81c1.8-5.62,3.22-11.33,3.17-17.45c-0.07-8.3,4.55-14.62,3.68-17.88
		C529.75,117.89,526.57,127.29,526.77,135.28z"/>
	<path d="M527.08,92.15c-5.93-8.89-12.77-16.86-18.4-26.37C508.68,69.87,521.25,87.65,527.08,92.15z"/>
	<path d="M517.16,175.24c0.77,11.84-5.47,24.09-3.99,27.49c1.74-6.85,4.4-13.49,4.6-20.64c0.37-13.3,3.06-10.74,1.33-12.47
		C518.08,171.45,517.04,173.29,517.16,175.24z"/>
	<path d="M499.89,137.42c1.91-0.96-3.68-4.99-8.79-21.26C490.8,124.54,495.7,130.78,499.89,137.42z"/>
	<path d="M558.25,158.78c3.88-0.51,7.87,0.61,11.86-2.15C567.14,154.39,561.11,155.51,558.25,158.78z"/>
	<path d="M594.83,166.55c-7.15-1.74-14.1-4.19-21.16-6.64C574.9,162.97,587.78,166.85,594.83,166.55z"/>
	<path d="M548.95,98.28c2.96,4.91,5.11,10.42,9.2,14.51C559.92,111.91,560.67,112.28,548.95,98.28z"/>
	<path d="M518.59,58.73c-0.41,2.55,5.01,12.57,9.4,17.17C525.13,70.18,522.37,64.35,518.59,58.73z"/>
	<path d="M514.1,94.5c-4.7-5.21-10.12-9.91-13.9-15.84C502.96,85.51,508.68,89.8,514.1,94.5z"/>
	<path d="M569.79,147.34c-2.45-2.55-5.21-4.19-8.79-4.39C563.97,144.37,565.6,148.25,569.79,147.34z"/>
	<path d="M590.64,128.63c-2.66-3.68-6.44-6.34-9.2-10.02C583.18,123.22,586.96,125.87,590.64,128.63z"/>
	<path d="M522.27,159.91c1.33-2.96,2.15-6.03,2.45-9.3C522.99,153.47,522.48,156.64,522.27,159.91z"/>
	<path d="M528.51,175.85c-7.63-7.63-6.37-6.92-7.26-6.03C530.4,180.35,532.8,178,528.51,175.85z"/>
	<path d="M556.1,183.51c1.53,1.53,3.37,2.25,5.62,2.04C560.29,183.62,558.14,183.72,556.1,183.51z"/>
	<path d="M597.8,133.54c-1.84-1.23-3.58-2.55-5.42-3.99C593.5,131.8,595.45,133.03,597.8,133.54z"/>
	<path d="M526.36,153.16c1.23,1.84,3.07,2.66,4.8,3.78C529.73,154.59,528.71,153.88,526.36,153.16z"/>
	<path d="M540.87,73.14c-1.64-0.41-2.55,0.61-3.78,1.02C538.52,74.77,539.85,74.98,540.87,73.14z"/>
	<path d="M534.95,142.12c1.02,1.64,1.94,2.15,3.17,2.25C537.6,143.25,536.58,142.74,534.95,142.12z"/>
	<path d="M521.15,48.92c-1.33-0.61-1.64,0.1-2.25,0.51C519.82,50.14,520.23,49.43,521.15,48.92z"/>
	<path d="M528.2,46.67c-0.51-0.51-0.92-0.41-1.43,0.1C527.28,47.18,527.79,47.28,528.2,46.67z"/>
	<path d="M532.08,97.17c-0.06-0.04-0.2-0.14-0.41-0.21C531.27,97.76,531.97,97.46,532.08,97.17z"/>
	<path d="M612,131.9c-0.1-0.2-0.2-0.31-0.2-0.51C611.39,131.8,611.9,131.8,612,131.9z"/>
	<path d="M502.65,141c0.2,0.51,0.41,1.02,0.92,1.23C503.37,141.71,503.37,141.1,502.65,141z"/>
	<path d="M504.93,144.15c-0.24-0.81-0.69-1.46-1.26-2.02C503.76,142.97,504.14,143.65,504.93,144.15z"/>
	<path d="M538.22,144.27c0.1,0.92,0.92,0.82,1.43,1.64C539.65,144.47,538.93,144.37,538.22,144.27z"/>
	<path d="M505,144.37c0.39-0.39-0.2,0.91,0.92,1.23C505.77,144.71,504.89,143.93,505,144.37z"/>
	<path d="M533.31,180.04c0,0.31,0.2,0.51,0.51,0.61C534.07,180.15,533.52,179.93,533.31,180.04z"/>
	<path d="M681.6,166.45c-6.23,5.01-3.68,18.09,10.02,24.63C685.59,183.92,680.37,176.56,681.6,166.45z"/>
	<path d="M689.98,223.17c-6.82-0.65,2.76,19.37,8.28,25.35c-0.1-5.52-4.32-8.48-5.11-12.88
		C692.4,231.45,691.41,227.25,689.98,223.17z"/>
	<path d="M731.06,127.2c0.31-2.15-0.61-4.29-0.31-6.44c0.72-0.51,1.84,0.41,2.45-0.72c-0.41-5.01-5.42-9.81-9.71-9.2
		c1.43,2.66,3.78,4.5,5.42,7.05C727.08,121.48,729.63,124.24,731.06,127.2z"/>
	<path d="M691.62,260.88c-0.82-6.34,0.2-12.88-1.74-19.21C688.45,248.31,689.37,254.64,691.62,260.88z"/>
	<path d="M678.02,249.84c0.41-5.52-0.61-10.94-0.61-16.45C674.55,239.01,675.37,244.53,678.02,249.84z"/>
	<path d="M728,147.34c2.96-5.42,4.7-11.04,2.96-17.37C730.86,135.89,729.53,141.61,728,147.34z"/>
	<path d="M713.08,112.79c-3.58-0.82-6.34,2.25-8.18,8.79C706.95,118.11,709.7,115.35,713.08,112.79z"/>
	<path d="M692.43,216.22c5.21-1.02,6.34-2.04,4.7-4.91C694.78,212.33,693.97,214.38,692.43,216.22z"/>
	<path d="M696.32,307.79c2.45-2.25,3.68-5.11,3.99-8.48C698.05,301.65,697.44,304.82,696.32,307.79z"/>
	<path d="M713.69,337.12c-1.23-1.23-2.55-2.45-3.37-4.6C708.17,335.89,712.47,339.91,713.69,337.12z"/>
	<path d="M692.02,265.89c-0.41,1.84,0,3.47,0.51,5.21C694.27,268.75,694.17,267.93,692.02,265.89z"/>
	<path d="M695.5,194.55c-1.12,0.2-1.94-0.51-2.96-0.82c-0.51,1.94,0.92,2.86,1.94,4.19C694.58,196.7,694.89,195.67,695.5,194.55z"/>
	<path d="M673.32,176.77c1.94-1.53,2.45-2.96,2.35-4.8C673.73,172.78,673.93,174.52,673.32,176.77z"/>
	<path d="M703.57,342.53c0.2-2.35-1.53-3.17-2.86-4.09C700.81,340.29,701.63,341.72,703.57,342.53z"/>
	<path d="M672.3,257.2c0.51-2.15,0.82-3.58,1.12-5.11C671.48,254.34,671.48,254.34,672.3,257.2z"/>
	<path d="M693.76,280.4c-0.72,2.35,0.61,3.88,0.82,5.52C694.37,284.18,695.29,282.34,693.76,280.4z"/>
	<path d="M686.3,315.14c1.84,0.2,3.07,0.2,3.88-2.04C688.04,313,687.22,313.71,686.3,315.14z"/>
	<path d="M683.64,126.69c-1.43,1.74-1.74,2.96-0.41,4.29C684.05,129.04,684.05,129.04,683.64,126.69z"/>
	<path d="M693.15,199.15c-0.41,1.94,1.12,2.66,1.74,3.78C694.78,201.5,694.99,199.97,693.15,199.15z"/>
	<path d="M691.62,216.01c-1.64,1.33-1.84,2.15-1.43,3.47C691.41,218.77,691.62,217.85,691.62,216.01z"/>
	<path d="M692.64,338.85c-0.1,1.53,0.51,2.25,2.35,2.76C694.48,339.98,693.86,339.26,692.64,338.85z"/>
	<path d="M698.87,333.95c0,1.12,0,2.35,1.64,2.76C701.02,335.07,700,334.46,698.87,333.95z"/>
	<path d="M704.19,159.5c0,1.53,0,2.45,1.64,2.96C706.13,160.83,705.41,160.31,704.19,159.5z"/>
	<path d="M694.48,192.71c0-1.12-0.31-2.04-1.74-2.66C692.54,191.69,693.35,192.2,694.48,192.71z"/>
	<path d="M693.66,277.23c0.61-1.33,0.1-2.15-0.82-3.27C692.23,275.59,692.13,276.51,693.66,277.23z"/>
	<path d="M698.67,252.6c0.61-1.43,0.2-2.15-0.92-2.55C696.93,251.37,697.54,251.99,698.67,252.6z"/>
	<path d="M679.25,254.13c-0.61,1.43-0.31,2.15,0.92,2.66C680.78,255.56,680.27,254.95,679.25,254.13z"/>
	<path d="M699.59,258.53c0.31-1.74,0.31-2.76-1.23-3.37C698.05,256.59,698.46,257.4,699.59,258.53z"/>
	<path d="M724.22,154.8c-0.92,1.12-1.43,1.84-1.43,3.07C724.42,157.35,724.52,156.43,724.22,154.8z"/>
	<path d="M708.99,165.42c-0.51,1.12,0.1,1.64,1.12,2.15C710.52,166.34,710.32,165.63,708.99,165.42z"/>
	<path d="M708.07,327.41c0.41-1.53,0-2.15-1.12-2.35C706.33,326.18,707.05,326.69,708.07,327.41z"/>
	<path d="M693.66,206.1c0.61-1.12-0.31-1.53-1.12-2.66C692.23,205.28,692.74,205.89,693.66,206.1z"/>
	<path d="M685.59,122.4c-1.23,0.51-0.61,1.12-0.51,1.74C686.3,123.63,685.99,123.11,685.59,122.4z"/>
	<path d="M680.17,261.08c-0.41,0.51-0.41,0.92,0.2,1.33C681.19,261.8,680.88,261.49,680.17,261.08z"/>
	<path d="M699.28,265.37c0.31-1.02-0.2-1.43-1.02-1.64C697.95,264.76,698.46,265.07,699.28,265.37z"/>
	<path d="M697.64,332.62c-0.1,1.02,0.51,1.23,1.23,1.43C698.77,333.44,698.77,332.72,697.64,332.62z"/>
	<path d="M710.73,331.91c0-1.12-0.41-1.43-1.43-1.43C709.19,331.39,709.5,331.91,710.73,331.91z"/>
	<path d="M700.51,154.8c0,0.61,0.31,0.82,0.82,0.82C701.84,154.49,701.53,154.28,700.51,154.8z"/>
	<path d="M490.28,274.16c4.39-6.23,11.45-10.94,12.57-19.21c-2.83-2.83-1.27,3.09-15.74,19.93
		C488.75,275.9,489.77,274.98,490.28,274.16z"/>
	<path d="M499.18,289.08c-2.74,3.9-4.19,8.69-6.23,13.08c0.41,0.1,0.72,0.2,1.02,0.31c1.94-2.45,3.28-5.31,4.09-8.28
		c1.9-7.01,10.12-12.2,12.67-24.02C507.44,270.18,511.18,271.97,499.18,289.08z"/>
	<path d="M537.6,250.66c5.03-5.87,10.72-1.17,9.1-7.66C542.1,244.63,537.7,248.2,537.6,250.66z"/>
	<path d="M526.16,254.23c-2.86-0.2-5.11,1.43-8.38,1.53C522.07,257.1,523.4,256.79,526.16,254.23z"/>
	<path d="M505.31,233.18c-1.33,2.66-1.33,4.8-1.12,6.95C505.72,238.19,506.02,236.15,505.31,233.18z"/>
	<path d="M529.94,259.04c1.64-1.43,2.15-3.17,2.35-5.62C529.63,254.95,530.45,257.3,529.94,259.04z"/>
	<path d="M489.26,313.92c1.74-1.12,2.25-2.96,2.55-5.01C490.18,310.24,489.98,312.28,489.26,313.92z"/>
	<path d="M463.61,365.73c1.02-1.64,1.74-2.96,1.64-4.7C464.22,362.26,463,363.38,463.61,365.73z"/>
	<path d="M517.16,223.88c-1.74,1.64,0,2.66,0.1,4.5C518.08,226.44,518.18,225.31,517.16,223.88z"/>
	<path d="M516.65,233.39c0.41-1.23,0.61-2.25-0.1-3.37C515.63,231.24,515.83,232.16,516.65,233.39z"/>
	<path d="M484.46,279.78c0.92-0.31,1.94-0.61,1.43-2.04C483.67,277.93,483.92,280.33,484.46,279.78z"/>
	<path d="M479.14,284.08c1.43-0.2,2.25-0.82,2.45-2.35C479.96,281.93,479.35,282.65,479.14,284.08z"/>
	<path d="M465.76,359.09c1.53-0.41,1.43-1.33,1.02-2.45C465.55,357.15,465.45,357.97,465.76,359.09z"/>
	<path d="M540.16,226.23c-1.64-0.1-2.25,0.72-2.86,2.15C539.03,228.28,539.65,227.56,540.16,226.23z"/>
	<path d="M473.32,290.72c0.82-0.2,1.43-0.51,1.02-1.53C473.52,289.39,473.01,289.7,473.32,290.72z"/>
	<path d="M506.23,230.93c0-0.46-0.49-0.01-0.72,0.1C505.86,231.38,505.84,231.71,506.23,230.93z"/>
	<path d="M509.91,256.79c-1.23-0.31-1.43,0.1-1.53,0.61C509.19,258.02,509.29,257.2,509.91,256.79z"/>
	<path d="M513.07,267.62c1.12,0.51,1.02-0.1,1.02-1.02C513.48,266.91,512.97,267.11,513.07,267.62z"/>
	<path d="M475.47,287.35c0.82,0.41,1.23,0.31,1.23-0.92C475.98,286.53,475.57,286.63,475.47,287.35z"/>
	<path d="M769.8,56.99c3.39-2.46-3.49-5.31,1.74-7.15c1.53-0.2,1.23,1.64,2.45,1.53c1.23-0.51,1.33-8.18,0-10.83
		c-3.17,1.02-6.34,2.66-9.81,1.53c-1.64,2.55-1.64,2.55-1.23,6.13c1.81-0.56,1.11-5.16,4.09-3.17c0,2.25-1.53,3.68-3.07,5.52
		c3.27-0.72,4.29-1.84,5.93-5.93c2.53-0.95,4.08-2.15,2.66,3.17c-3.47,0.1-5.42,3.07-8.07,4.91
		C764.38,54.36,767.38,58.53,769.8,56.99z"/>
	<path d="M804.44,67.62c6.81,1.77,6.56,13.7,11.55,9.71c-0.72-6.44-7.46-12.47-14.61-13.18C802.09,65.78,802.81,67.2,804.44,67.62z"
		/>
	<path d="M807.51,80.09c0.92-0.82,1.94-1.53,2.86-2.25c-3.17-3.68-5.31-4.8-10.02-5.01C803.32,75.39,803.62,79.27,807.51,80.09z"/>
	<path d="M765.2,93.07c0.92-2.76,0.41-7.15-1.23-11.45C763.26,85.91,763.67,89.49,765.2,93.07z"/>
	<path d="M768.57,68.64c-3.07,2.15-2.96,5.42-4.91,7.56C766.53,74.77,768.67,72.83,768.57,68.64z"/>
	<path d="M743.12,75.59c-0.72,1.43-2.76,2.15-2.25,4.39c2.86-1.74,3.37-3.37,2.15-7.56C741.18,73.85,743.02,74.57,743.12,75.59z"/>
	<path d="M745.98,62.2c-3.27,1.74-2.25,3.68-1.74,6.13C745.37,66.39,746.29,64.76,745.98,62.2z"/>
	<path d="M777.67,74.98c1.02-1.12,0.82-2.04-0.1-3.47C776.34,73.04,776.54,73.96,777.67,74.98z"/>
	<path d="M776.85,66.7c-1.02,1.02-0.51,1.94,0.1,3.47C778.08,68.64,778.38,67.72,776.85,66.7z"/>
	<path d="M764.69,64.35c-0.41-0.51-0.92-0.72-1.43-0.1C763.26,65.81,765.2,65.12,764.69,64.35z"/>
	<path d="M656.56,216.93c-34.3-1.58,7.31,4.09,13.9-0.1C665.35,216.01,660.96,217.13,656.56,216.93z"/>
	<path d="M590.03,230.52c0.61-3.07,0.2-6.03-0.82-8.99C588.29,224.7,589.21,227.66,590.03,230.52z"/>
	<path d="M574.39,224.49c0.92-2.25,0.41-4.6,0.61-6.85C573.37,219.79,574.29,222.25,574.39,224.49z"/>
	<path d="M591.97,219.28c-2.76,0-5.62,0-8.38,0C586.35,220.3,589.21,219.9,591.97,219.28z"/>
	<path d="M652.06,226.54c0.1-2.15,1.23-4.29-0.1-6.44C651.04,222.25,651.86,224.39,652.06,226.54z"/>
	<path d="M661.06,225.01c0.51-2.66,0.51-2.66-1.23-5.31C659.63,221.94,660.55,223.27,661.06,225.01z"/>
	<path d="M566.01,222.35c0-1.33,0-2.66,0-4.5C564.48,219.79,565.5,221.02,566.01,222.35z"/>
	<path d="M635.92,207.43c1.74,1.23,3.27,1.02,5.21,0.82C639.39,207.22,637.96,206.61,635.92,207.43z"/>
	<path d="M561.11,224.6c1.02-0.72,1.02-1.64,0.82-3.27C561.31,222.66,560.8,223.47,561.11,224.6z"/>
	<path d="M570.51,218.06c0,0,0.1,0,0.31-0.1C570.45,217.95,570.51,217.93,570.51,218.06z"/>
	<path d="M460.85,398.03c-2.66-0.71-5.31,0.92-5.83,3.58c-0.31,1.23,0.2,2.55-0.82,3.88c1.84,0.61,2.96,1.12,4.19,1.53
		C464.48,408.66,466.8,399.6,460.85,398.03z M461.77,403.75c-0.5,1.23-1.53,1.74-2.96,1.23c0.64-3.86-1.11-1.29-1.74-2.86
		C457.97,397.86,463.37,399.83,461.77,403.75z"/>
	<path d="M475.98,406.92c-0.1,1.33-1.64,1.64-1.43,2.86c1.02,0.82,1.74,0.1,2.35-0.61c3.83-3.19,1.74,0.81,3.07,1.53
		c1.94-1.02,2.45-2.55,2.66-8.28c-2.15-0.31-4.29-1.94-6.54-0.1C474.44,403.85,475.16,405.59,475.98,406.92z M479.86,406
		c-1.12,0-2.35,0.1-2.66-1.43C480.12,402.9,481.03,404.53,479.86,406z"/>
	<path d="M469.54,400.07c-6.08,0-6.16,9.3,0.2,9.3C475.41,409.37,476.13,400.07,469.54,400.07z M469.84,407.33
		c-3.83,0.23-3.52-5.23-0.31-5.42C473.1,401.7,473.24,407.13,469.84,407.33z"/>
	<path d="M503.26,407.23c3.47,0,5.62-1.43,7.77-3.07C508.17,403.85,505.61,404.26,503.26,407.23z"/>
	<path d="M616.09,197.11c0.1,1.23,0.61,1.84,2.04,2.35C618.13,197.82,617.42,197.31,616.09,197.11z"/>
	<path d="M602.7,196.59c0.2,0.61,0.61,0.51,1.12,0.41C603.62,196.29,603.32,196.19,602.7,196.59z"/>
	<path d="M608.83,197.72c-1.53,0-0.2,1.43,0.41,0.82C609.86,197.92,609.14,197.92,608.83,197.72z"/>
	<path d="M731.37,317.9c-0.92,2.76,0.1,5.42,0.41,8.28c-1.64-0.61-0.82-2.66-2.15-3.27c-0.72,3.88,2.45,12.06,5.11,12.88
		c0.1-1.12-1.43-1.53-1.12-2.76c0.79-0.3,2.66,2.99,2.66-2.66c0-3.88-1.68-7.45-2.35-11.24C733.71,317.91,732.8,317.39,731.37,317.9
		z M734.54,329.04c-1.43-1.94-1.02-3.99-1.53-5.83C734.13,324.75,734.85,326.59,734.54,329.04z"/>
	<path d="M739.96,339.26c-0.61,5.93,1.64,11.85-0.31,17.68c-1.33,0-1.12-1.23-2.35-1.94c0.61,1.94,1.23,3.37,2.96,5.01
		C742.71,352.65,740.87,345.91,739.96,339.26z"/>
	<path d="M724.22,293.68c3.07,2.55,4.29,6.54,6.54,9.81C729.46,298.89,725.38,289.02,724.22,293.68z"/>
	<path d="M730.25,316.78c-1.33,1.53-1.02,2.66-0.82,3.78C730.35,319.74,730.25,318.62,730.25,316.78z"/>
	<path d="M731.17,306.76c0.51,1.23,0.82,1.84,1.12,2.66C732.7,308.4,732.8,307.68,731.17,306.76z"/>
	<path d="M273.62,317.8c-7.52,2.45-13.54,1.14-26.88,0C253.8,322.71,271.58,322.81,273.62,317.8z"/>
	<path d="M163.76,297.98c-1.53-3.88-3.78-6.85-4.5-10.63c1.74-4.19,3.07-8.69,5.31-12.98C156.3,279.07,154.46,291.13,163.76,297.98z
		"/>
	<path d="M220.68,292.25c7.05-4.8,11.96-12.16,20.75-14.72C236.67,270.74,223.85,288.78,220.68,292.25z"/>
	<path d="M217.21,292.56c-1.03-4.13-7.69,5.45-17.07-0.92C203.31,297.98,212,297.98,217.21,292.56z"/>
	<path d="M268.62,290c-3.47,0.31-5.93,2.55-8.99,3.07c-2.97,0.5-6.03,0.31-9.3,0.82C256.25,296.85,266.16,294.81,268.62,290z"/>
	<path d="M146.69,294.81c-3.27,1.53-4.39,6.23-2.66,11.65C146.18,302.17,147.2,297.77,146.69,294.81z"/>
	<path d="M155.79,283.46c-4.8-1.23-7.26,2.55-7.36,10.32C150.58,290.41,151.5,286.22,155.79,283.46z"/>
	<path d="M154.68,307.5c-0.72,4.47-0.18,9.05-0.01,13.57C156.92,316.64,154.31,312.05,154.68,307.5z"/>
	<path d="M154.68,307.5c0.13-0.8,0.29-1.58,0.5-2.37C154.88,305.92,154.74,306.71,154.68,307.5z"/>
	<path d="M236.42,296.44c-2.42-1.29-4.7-0.82-7.05,0.41c5.01-0.61,10.02,2.55,15.53,0.2C242.14,295.21,240.52,298.62,236.42,296.44z
		"/>
	<path d="M216.8,311.26c1.12,6.03,4.09,9.2,7.66,7.77C220.79,317.29,218.64,314.43,216.8,311.26z"/>
	<path d="M151.6,277.33c2.76-0.82,5.72-0.41,8.07-2.25C157.94,273.14,154.56,273.96,151.6,277.33z"/>
	<path d="M168.26,273.65c2.25,1.43,3.68,3.58,6.85,3.88C173.26,274.37,172.14,273.75,168.26,273.65z"/>
	<path d="M143.83,308.71c-1.84,1.43-1.94,2.25-0.82,7.26C144.34,313,144.45,312.08,143.83,308.71z"/>
	<path d="M170.91,400.38c-0.72-1.94-1.94-3.47-3.27-5.21C167.34,399.15,168.05,400.17,170.91,400.38z"/>
	<path d="M155.07,290.52c-2.04,2.86-0.82,5.83-0.51,8.79C154.66,296.44,155.38,293.48,155.07,290.52z"/>
	<path d="M215.68,335.69c0.51-1.53,3.58-1.84,1.84-4.6C214.76,332.01,215.06,333.85,215.68,335.69z"/>
	<path d="M181.85,290.52c-0.41,1.94-0.72,3.78,0.1,6.34C183.79,294.19,181.75,292.46,181.85,290.52z"/>
	<path d="M220.99,295.22c-2.76,0.51-3.47,1.84-3.47,4.29C219.15,298.38,220.58,297.57,220.99,295.22z"/>
	<path d="M238.67,316.47c1.43,1.64,3.07,1.84,4.8,1.53C242.15,316.88,240.72,316.06,238.67,316.47z"/>
	<path d="M199.43,293.38c-0.92-1.94-2.35-1.84-3.68-1.94C196.16,293.07,196.97,294.09,199.43,293.38z"/>
	<path d="M160.69,364.61c2.04-0.51,3.17-1.74,3.78-4.5C162.33,361.65,161.82,363.38,160.69,364.61z"/>
	<path d="M143.22,323.01c1.43-1.43,0.82-2.66,0-3.78C142.61,320.46,142.3,321.58,143.22,323.01z"/>
	<path d="M152.42,399.87c0.2-1.84-1.23-2.66-1.84-3.88C150.27,397.62,150.17,399.15,152.42,399.87z"/>
	<path d="M163.25,342.43c1.53-1.53,1.74-3.07,1.94-5.31C163.76,338.85,163.15,340.29,163.25,342.43z"/>
	<path d="M185.22,283.36c-0.51-1.74-1.23-2.45-3.27-2.04C182.67,282.85,183.48,283.57,185.22,283.36z"/>
	<path d="M189.82,286.63c0.1-1.64-0.92-2.15-2.45-2.86C187.47,285.92,188.59,286.32,189.82,286.63z"/>
	<path d="M168.77,393.12c0.82-1.53,0-2.45-0.72-4.09C167.03,391.18,167.34,392.1,168.77,393.12z"/>
	<path d="M164.78,299.92c0.72,1.12,1.33,2.35,2.35,3.88C167.24,301.65,167.03,300.22,164.78,299.92z"/>
	<path d="M194.93,290.82c-1.02-1.64-2.15-1.94-3.68-2.45C191.87,290.31,192.58,291.13,194.93,290.82z"/>
	<path d="M150.07,370.84c1.53-0.31,2.76-1.12,4.09-2.76C151.8,368.29,150.99,369.72,150.07,370.84z"/>
	<path d="M149.25,268.75c-1.33,0-2.76-0.1-3.78,1.53C147.41,270.48,148.02,269.05,149.25,268.75z"/>
	<path d="M160.18,395.58c-0.2,1.33,0,2.35,1.43,2.86C162.33,396.7,160.9,396.29,160.18,395.58z"/>
	<path d="M169.28,310.55c0.61-1.53,0.1-2.55-1.12-3.37C167.85,308.5,168.05,309.63,169.28,310.55z"/>
	<path d="M229.78,341.82c0.31-1.53,0.51-2.55,0.72-3.58C228.66,338.96,228.66,338.96,229.78,341.82z"/>
	<path d="M167.75,385.56c-0.82,0.82-0.51,1.64-0.1,2.45C168.87,388.11,168.87,387.81,167.75,385.56z"/>
	<path d="M218.13,300.84c-1.53,0.51-1.94,1.23-1.64,2.45C217.72,303.09,218.03,302.37,218.13,300.84z"/>
	<path d="M164.37,346.83c-0.72,0.51-1.33,1.02-0.82,2.15C165.09,348.46,164.27,347.54,164.37,346.83z"/>
	<path d="M168.26,327.2c0.72-1.23,0.1-1.94-0.72-2.76C167.13,325.57,166.93,326.59,168.26,327.2z"/>
	<path d="M158.24,390.57c-0.41,1.02,0,1.53,0.92,1.94C159.98,391.28,158.96,391.08,158.24,390.57z"/>
	<path d="M227.12,310.75c0.31,1.64,1.02,1.94,1.94,1.94C229.58,311.26,228.45,311.26,227.12,310.75z"/>
	<path d="M145.47,340.59c-0.51-0.92-0.72-1.23-0.92-1.53C144.24,339.77,144.65,339.98,145.47,340.59z"/>
	<path d="M148.33,278.97c-0.41,0.31-0.72,0.61-0.41,1.23C150.01,280.19,150.19,277.57,148.33,278.97z"/>
	<path d="M143.73,329.35c0.41-0.41,0.41-0.82,0-1.12C143.45,327.95,142.45,329.03,143.73,329.35z"/>
	<path d="M232.95,314.33c0.41,1.02,0.82,1.53,1.84,1.43C234.89,314.53,234.28,314.33,232.95,314.33z"/>
	<path d="M70.04,377.79c0.1,4.09-1.23,8.07-2.04,12.26c-3.11-2.46-13.01-29.01-24.12-48.65c-1.04-1.83-0.92-4.09-2.25-5.83
		C35.88,337.5,68,390.62,68,392.67c1.8-5.7,3.22-11.32,3.17-17.44c-0.07-8.35,4.81-15.39,3.58-17.68
		C73.17,359.92,69.85,369.82,70.04,377.79z"/>
	<path d="M112.76,367.67c-4.91,0.2-8.48-2.46-12.37-4.09c-13.52-5.66-8.12-2.46-18.4-18.6c0.72,6.75,4.8,11.65,8.99,16.56
		c0.61,0.81-1.08-0.27,15.74,6.85C108.46,369.12,110.62,370.33,112.76,367.67z"/>
	<path d="M112.15,411.93c-1.64,1.64-3.99,0.51-6.13,2.04c4.62,1.41,8.41,0.76,8.48-4.19c0.18-11.69,4.11-8.28,2.76-13.69
		C113.38,397.11,111.33,403.34,112.15,411.93z"/>
	<path d="M67.9,393.02l0.1,0.1C68,392.43,68.03,392.65,67.9,393.02z"/>
	<path d="M70.86,335.07c-6.34-9.3-13.39-17.37-19.11-27.08C52.06,312.49,65.14,330.88,70.86,335.07z"/>
	<path d="M62.48,411.82c-3.58,5.42-1.32,11.45-2.76,16.86c-9.6,36,2.61,4.74,1.33-9.3C60.76,416.24,63.37,414.05,62.48,411.82z"/>
	<path d="M43.37,379.73c-2.86-7.05-7.66-13.29-8.99-20.95C34.17,367.06,38.98,373.4,43.37,379.73z"/>
	<path d="M101.52,400.99c3.58,1.02,9.5-0.1,11.34-2.15C110.52,396.7,103.87,398.03,101.52,400.99z"/>
	<path d="M102.03,354.9c-2.04-5.52-6.34-9.61-9.91-14.1C95.29,345.6,97.02,351.43,102.03,354.9z"/>
	<path d="M61.97,301.25c-0.61,2.35,4.7,12.16,9.3,17.17C68.41,312.59,65.65,306.87,61.97,301.25z"/>
	<path d="M57.37,336.91c-4.91-5.11-10.02-9.91-14-15.74C46.13,328.02,51.85,332.42,57.37,336.91z"/>
	<path d="M103.97,386.17c3.37,0.51,4.91,4.91,9.1,3.68c-2.35-2.55-5.31-4.09-8.58-4.91C104.28,385.25,104.18,385.66,103.97,386.17z"
		/>
	<path d="M68,393.12c-1.74,2.86-2.25,6.03-2.45,9.3C66.77,399.46,67.69,396.39,68,393.12z"/>
	<path d="M64.83,411.93c2.52,4.26,6.42,7.46,9.1,8.58C73.88,420.39,64.93,412.02,64.83,411.93z"/>
	<path d="M98.97,426.03c1.84,1.64,3.88,1.94,5.93,2.25C103.05,426.34,102.44,426.13,98.97,426.03z"/>
	<path d="M69.84,395.58c1.02,1.84,2.76,2.86,4.7,3.68C73.31,397.52,71.68,396.39,69.84,395.58z"/>
	<path d="M84.15,315.45c-1.74-0.1-2.76,0.61-4.39,1.23C81.8,317.19,83.13,317.39,84.15,315.45z"/>
	<path d="M78.22,384.64c0.92,1.53,1.84,2.15,3.17,2.25C80.88,385.76,79.86,385.25,78.22,384.64z"/>
	<path d="M62.48,292.25c0.72,0.1,1.12-0.2,1.64-0.92C63.06,290.8,61.73,292,62.48,292.25z"/>
	<path d="M71.68,289.39c-0.72-0.82-1.12-0.31-1.94-0.41C70.56,289.8,71.07,289.49,71.68,289.39z"/>
	<path d="M76.59,422.45c-0.2,0.51,0.2,0.51,0.51,0.82C77.1,422.76,76.89,422.56,76.59,422.45z"/>
	<path d="M48.28,386.89c0.2,0.51,0.2,1.12,0.92,1.23C49.09,387.5,48.79,387.09,48.28,386.89z"/>
	<path d="M81.39,386.79c0.1,0.92,0.92,0.82,1.43,1.64C82.82,386.99,82.1,386.89,81.39,386.79z"/>
	<path d="M46.92,384.96c0.22,0.8,0.69,1.38,1.26,2.03C48.08,386.13,47.7,385.39,46.92,384.96z"/>
	<path d="M46.92,384.96c-0.02-0.07-0.05-0.14-0.07-0.21C46.74,384.84,46.68,384.84,46.92,384.96z"/>
	<path d="M45.93,383.52c0.1,0.51,0.41,0.92,0.82,1.33C46.64,384.23,46.64,383.72,45.93,383.52z"/>
	<path d="M74.85,339.47c0,0.51,0.1,0.82,0.61,0.61C75.26,339.88,75.05,339.67,74.85,339.47z"/>
	<path d="M313.48,296.14c-1.34-2.34-0.41-3.47,1.94-3.78c1.02,0.2,0.82,1.53,1.84,1.64c1.23-0.51,1.43-7.97,0.1-10.94
		c-3.27,1.02-6.64,2.45-10.12,1.43c-1.33,2.04-1.53,3.88-1.02,6.13c1.94-0.72,0.82-4.5,4.09-3.37c0.2,2.45-1.53,3.88-2.86,5.62
		c2.96-0.41,3.99-1.43,5.62-5.62c3.39-1.27,3.61-2.25,2.86,2.96c-3.68,0.2-5.42,3.37-8.28,5.01c0.1,1.53,1.12,2.35,1.94,3.37
		C312.14,301.41,315.07,298.9,313.48,296.14z"/>
	<path d="M347.21,309.83c7.22,1.73,7.27,14.82,12.06,9.71c-1.33-6.54-7.36-12.06-14.51-13.08
		C344.96,308.09,345.88,309.51,347.21,309.83z"/>
	<path d="M350.78,322.61c0.92-0.72,1.84-1.43,2.66-2.15c-2.45-3.47-5.62-5.21-9.91-4.91C346.7,317.8,346.9,321.89,350.78,322.61z"/>
	<path d="M308.58,335.58c1.02-3.78-0.41-7.26-1.12-10.83C306.63,328.43,306.84,332.11,308.58,335.58z"/>
	<path d="M307.04,318.72c2.76-1.43,4.91-3.37,4.5-6.95C308.88,313.31,308.68,316.47,307.04,318.72z"/>
	<path d="M321.04,317.39c0.92-1.23,0.72-2.04,0.1-2.96C320.01,314.11,319.27,316.33,321.04,317.39z"/>
	<path d="M320.02,308.81c-0.82,1.53-0.72,2.45,0.31,3.47C321.35,311.16,321.35,310.24,320.02,308.81z"/>
	<path d="M308.17,307.28c-0.61-1.02-1.12-0.92-1.84-0.72C306.63,307.68,307.14,307.79,308.17,307.28z"/>
	<path d="M109.8,292.66c0.1-0.2,0.2-0.51,0.31-0.82c-3.68-1.23-6.75-4.6-11.04-4.19C98.62,289.46,96.65,287.91,109.8,292.66z"/>
	<path d="M104.08,285.1c2.86,1.94,6.03,1.23,8.79,1.74C109.08,285.3,106.94,284.89,104.08,285.1z"/>
	<path d="M205.46,355.62c2.45-1.23,3.16-3.78,4.39-5.72c1.43-2.25,5.21-0.92,5.21-4.6C213.83,346.32,199.96,351.62,205.46,355.62z"
		/>
	<path d="M187.47,324.14c-2.18-0.87-3.05,2.53-4.7,5.62c0.69,1.38,0.74-0.66,4.7-2.15C189.06,327.02,189.15,324.62,187.47,324.14z"
		/>
	<path d="M180.73,331.7c-1.33,2.76-2.86,5.42-2.15,8.89C182.36,330.98,182.19,332.07,180.73,331.7z"/>
	<path d="M159.26,439.42c0.2,1.53,0.72,2.25,2.15,2.25C161.31,440.34,160.59,439.93,159.26,439.42z"/>
	<path d="M145.88,438.8c0.31,1.02,0.72,0.82,1.23,0.82C146.9,438.6,146.39,439.01,145.88,438.8z"/>
	<path d="M151.39,440.54c0.2,0.82,0.72,0.72,1.23,0.51C152.52,439.93,152.01,440.13,151.39,440.54z"/>
	<path d="M195.24,380.76c-1.33-0.82-0.72-2.76-2.15-3.58c-0.31,4.19,2.35,11.45,5.11,13.8c0.61-1.74-1.64-2.04-0.92-3.47
		c0.72-0.31,0.82,1.12,1.64,0.61c2.04-3.27-0.31-14.51-3.58-16.05C193.59,374.13,195.56,379.14,195.24,380.76z M196.87,378
		c0.72,1.64,1.43,3.27,1.43,6.03C196.77,381.78,196.87,379.84,196.87,378z"/>
	<path d="M203.21,393.53c-0.72,6.44,2.66,12.77-1.02,19.21C204.53,419.76,207.15,401.56,203.21,393.53z"/>
	<path d="M192.48,353.98c-1.12-4.8-2.35-6.44-4.8-6.23C189.21,349.79,190.64,351.73,192.48,353.98z"/>
	<path d="M193.91,371.46c-1.43,1.33-1.12,2.55-1.02,4.29C193.91,374.22,193.81,373.09,193.91,371.46z"/>
	<path d="M261.56,268.85c4.29,2.04,6.44,6.34,9.91,8.89c1.53-0.92,1.33-1.84,0.82-2.76c-1.72-3.07-3.89-6.43-7.26-7.26
		c-4.09-1.01-8.48-2.15-13.59-0.92C255.02,269.26,258.29,269.67,261.56,268.85z"/>
<path fill="#e6e6e6" d="m206.8 163.6c0-5.1 4.1-9.2 9.3-9.2s9.2 4.2 9.2 9.2-4.1 9.2-9.3 9.2-9.2-4.1-9.2-9.2zm17.3-.1c0-4.5-3.5-8.2-8.2-8.2s-8.2 3.7-8.2 8.3c0 4.5 3.5 8.2 8.2 8.2s8.2-3.7 8.2-8.3zm-13 0c0-2.8 2.1-5.1 5.1-5.1 1.9 0 2.9.6 3.9 1.5l-1.4 1.7c-.8-.7-1.5-1.1-2.5-1.1-1.7 0-2.8 1.4-2.8 3.1s1.1 3 2.8 3c1.1 0 1.7-.5 2.5-1.1l1.4 1.4c-1.1 1.1-2.1 1.7-4 1.7-2.9 0-5-2.3-5-5.1z"/><path fill="#e6e6e6" d="m226.6 154.7h3.4l4.2 13.2 4.4-13.3h2.6l4.4 13.3 4.2-13.2h3.3l-6.2 18h-2.7l-4.4-12.8-4.4 12.8h-2.7z"/><path fill="#e6e6e6" d="m252.8 165.8c0-3.9 3.1-7 7.2-7 4.2 0 7.2 3.2 7.2 7s-3.1 7-7.3 7c-4 0-7.1-3.1-7.1-7zm11.3 0c0-2.3-1.7-4.3-4.2-4.3s-4.1 2-4.1 4.3 1.7 4.3 4.1 4.3c2.7.1 4.2-1.9 4.2-4.3z"/><path fill="#e6e6e6" d="m269.5 159.1h3.1v3c.8-2 2.4-3.4 4.8-3.3v3.2h-.2c-2.7 0-4.6 1.7-4.6 5.4v5.1h-3.1z"/><path fill="#e6e6e6" d="m279.1 153.9h3.1v11.1l5.6-6h3.8l-5.4 5.5 5.5 8h-3.5l-4.1-5.8-1.9 2v3.9h-3.1z"/><path fill="#e6e6e6" d="m291.7 165.8c0-3.9 3.1-7 7.2-7 4.2 0 7.2 3.2 7.2 7s-3.1 7-7.3 7c-4 0-7.1-3.1-7.1-7zm11.3 0c0-2.3-1.7-4.3-4.2-4.3s-4.1 2-4.1 4.3 1.7 4.3 4.1 4.3c2.6.1 4.2-1.9 4.2-4.3z"/><path fill="#e6e6e6" d="m308.2 167.6v-8.6h3.1v7.6c0 2.1 1.1 3.3 2.9 3.3s3-1.3 3-3.3v-7.6h3.1v13.4h-3.1v-2.1c-.8 1.3-2.1 2.3-4.2 2.3-3.1.2-4.8-1.8-4.8-5z"/><path fill="#e6e6e6" d="m323.9 168.8v-7.1h-1.7v-2.6h1.7v-3.7h3.1v3.7h3.6v2.6h-3.6v6.6c0 1.2.6 1.7 1.7 1.7.7 0 1.3-.2 1.9-.5v2.5c-.8.5-1.7.7-2.8.7-2.3 0-3.9-.9-3.9-3.9z"/><path fill="#e6e6e6" d="m333.2 154.7h3.2v15h9.4v2.9h-12.5v-17.9z"/><path fill="#e6e6e6" d="m356 172.5v-1.7c-.9 1.1-2.3 2-4.4 2-2.6 0-4.8-1.4-4.8-4.2 0-3 2.3-4.4 5.4-4.4 1.7 0 2.6.2 3.7.5v-.2c0-1.9-1.2-2.9-3.3-2.9-1.5 0-2.6.3-3.9.8l-.8-2.5c1.5-.7 2.9-1.1 5.1-1.1 4 0 5.9 2.1 5.9 5.7v8zm.1-5.6c-.8-.3-1.9-.5-3.1-.5-2 0-3.1.8-3.1 2.1s1.1 2 2.6 2c2 0 3.5-1.1 3.5-2.9z"/><path fill="#e6e6e6" d="m364.9 170.5v2.1h-3.1v-18.7h3.1v7.4c1-1.4 2.4-2.5 4.5-2.5 3.2 0 6.3 2.5 6.3 7s-3.1 7-6.3 7c-2.1 0-3.5-1.1-4.5-2.3zm7.7-4.7c0-2.6-1.7-4.3-3.9-4.3s-3.9 1.7-3.9 4.4c0 2.6 1.8 4.3 3.9 4.3s3.9-1.7 3.9-4.4z"/><path fill="#e6e6e6" d="m376.9 170.8 1.4-2.1c1.4 1.1 3 1.7 4.4 1.7s2.1-.5 2.1-1.5-1.3-1.4-2.8-1.8c-.1 0-.2-.1-.2-.1-2-.6-4.2-1.4-4.2-4s2.1-4.1 4.8-4.1c1.7 0 3.5.6 5 1.5l-1.2 2.2c-1.3-.8-2.6-1.3-3.8-1.3s-1.9.5-1.9 1.4 1.3 1.4 2.8 1.8c.1 0 .2.1.2.1 2 .6 4.2 1.5 4.2 4 0 2.9-2.2 4.2-5 4.2-1.9 0-4-.7-5.8-2z"/><path fill="#e6e6e6" d="m505.6 163.6c0-5.1 4.1-9.2 9.3-9.2s9.2 4.2 9.2 9.2-4.1 9.2-9.3 9.2-9.2-4.1-9.2-9.2zm17.4-.1c0-4.5-3.5-8.2-8.2-8.2s-8.2 3.7-8.2 8.3c0 4.5 3.5 8.2 8.2 8.2s8.2-3.7 8.2-8.3zm-13.1 0c0-2.8 2.1-5.1 5.1-5.1 1.9 0 2.9.6 3.9 1.5l-1.4 1.7c-.8-.7-1.5-1.1-2.5-1.1-1.7 0-2.8 1.4-2.8 3.1s1.1 3 2.8 3c1.1 0 1.7-.5 2.5-1.1l1.4 1.4c-1.1 1.1-2.1 1.7-4 1.7-2.9 0-5-2.3-5-5.1z"/><path fill="#e6e6e6" d="m525.4 154.7h3.4l4.2 13.2 4.4-13.3h2.6l4.4 13.3 4.2-13.2h3.3l-6.2 18h-2.7l-4.4-12.8-4.4 12.8h-2.7z"/><path fill="#e6e6e6" d="m551.7 165.8c0-3.9 3.1-7 7.2-7 4.2 0 7.2 3.2 7.2 7s-3.1 7-7.3 7c-4.1 0-7.1-3.1-7.1-7zm11.2 0c0-2.3-1.7-4.3-4.2-4.3s-4.1 2-4.1 4.3 1.7 4.3 4.1 4.3c2.7.1 4.2-1.9 4.2-4.3z"/><path fill="#e6e6e6" d="m568.3 159.1h3.1v3c.8-2 2.4-3.4 4.8-3.3v3.2h-.2c-2.7 0-4.6 1.7-4.6 5.4v5.1h-3.1z"/><path fill="#e6e6e6" d="m577.9 153.9h3.1v11.1l5.6-6h3.8l-5.4 5.5 5.5 8h-3.5l-4.1-5.8-1.9 2v3.9h-3.1z"/><path fill="#e6e6e6" d="m590.6 165.8c0-3.9 3.1-7 7.2-7 4.2 0 7.2 3.2 7.2 7s-3.1 7-7.3 7c-4.1 0-7.1-3.1-7.1-7zm11.2 0c0-2.3-1.7-4.3-4.2-4.3s-4.1 2-4.1 4.3 1.7 4.3 4.1 4.3c2.6.1 4.2-1.9 4.2-4.3z"/><path fill="#e6e6e6" d="m607 167.6v-8.6h3.1v7.6c0 2.1 1.1 3.3 2.9 3.3s3-1.3 3-3.3v-7.6h3.1v13.4h-3.1v-2.1c-.8 1.3-2.1 2.3-4.2 2.3-3 .2-4.8-1.8-4.8-5z"/><path fill="#e6e6e6" d="m622.7 168.8v-7.1h-1.7v-2.6h1.7v-3.7h3.1v3.7h3.6v2.6h-3.6v6.6c0 1.2.6 1.7 1.7 1.7.7 0 1.3-.2 1.9-.5v2.5c-.8.5-1.7.7-2.8.7-2.3 0-3.9-.9-3.9-3.9z"/><path fill="#e6e6e6" d="m632 154.7h3.2v15h9.4v2.9h-12.6z"/><path fill="#e6e6e6" d="m654.8 172.5v-1.7c-.9 1.1-2.3 2-4.4 2-2.6 0-4.8-1.4-4.8-4.2 0-3 2.3-4.4 5.4-4.4 1.7 0 2.6.2 3.7.5v-.2c0-1.9-1.2-2.9-3.3-2.9-1.5 0-2.6.3-3.9.8l-.8-2.5c1.5-.7 2.9-1.1 5.1-1.1 4 0 5.9 2.1 5.9 5.7v8zm.1-5.6c-.8-.3-1.9-.5-3.1-.5-2 0-3.1.8-3.1 2.1s1.1 2 2.6 2c2 0 3.5-1.1 3.5-2.9z"/><path fill="#e6e6e6" d="m663.7 170.5v2.1h-3.1v-18.7h3.1v7.4c1-1.4 2.4-2.5 4.5-2.5 3.2 0 6.3 2.5 6.3 7s-3.1 7-6.3 7c-2.1 0-3.5-1.1-4.5-2.3zm7.8-4.7c0-2.6-1.7-4.3-3.9-4.3-2.1 0-3.9 1.7-3.9 4.4 0 2.6 1.8 4.3 3.9 4.3s3.9-1.7 3.9-4.4z"/><path fill="#e6e6e6" d="m675.8 170.8 1.4-2.1c1.4 1.1 3 1.7 4.4 1.7s2.1-.5 2.1-1.5-1.3-1.4-2.8-1.8c-.1 0-.2-.1-.2-.1-2-.6-4.2-1.4-4.2-4s2.1-4.1 4.8-4.1c1.7 0 3.5.6 5 1.5l-1.2 2.2c-1.3-.8-2.6-1.3-3.8-1.3s-1.9.5-1.9 1.4 1.3 1.4 2.8 1.8c.1 0 .2.1.2.1 2 .6 4.2 1.5 4.2 4 0 2.9-2.2 4.2-5 4.2-2 0-4.1-.7-5.8-2z"/><path fill="#e6e6e6" d="m61 298.6c0-5.1 4.1-9.2 9.3-9.2s9.2 4.2 9.2 9.2-4.1 9.2-9.3 9.2c-5.1 0-9.2-4.2-9.2-9.2zm17.4-.1c0-4.5-3.5-8.2-8.2-8.2s-8.2 3.7-8.2 8.3c0 4.5 3.5 8.2 8.2 8.2s8.2-3.7 8.2-8.3zm-13.1-.1c0-2.8 2.1-5.1 5.1-5.1 1.9 0 2.9.6 3.9 1.5l-1.4 1.7c-.8-.7-1.5-1.1-2.5-1.1-1.7 0-2.8 1.4-2.8 3.1s1.1 3 2.8 3c1.1 0 1.7-.5 2.5-1.1l1.4 1.4c-1.1 1.1-2.1 1.7-4 1.7-2.8.1-5-2.2-5-5.1z"/><path fill="#e6e6e6" d="m80.9 289.7h3.4l4.2 13.2 4.4-13.3h2.6l4.4 13.3 4.2-13.2h3.3l-6.2 18h-2.7l-4.4-12.8-4.4 12.8h-2.7z"/><path fill="#e6e6e6" d="m107.1 300.8c0-3.9 3.1-7 7.2-7s7.2 3.2 7.2 7-3.1 7-7.3 7c-4 0-7.1-3.1-7.1-7zm11.3 0c0-2.3-1.7-4.3-4.2-4.3s-4.1 2-4.1 4.3 1.7 4.3 4.1 4.3c2.6.1 4.2-1.9 4.2-4.3z"/><path fill="#e6e6e6" d="m123.7 294h3.1v3c.8-2 2.4-3.4 4.8-3.3v3.2h-.2c-2.7 0-4.6 1.7-4.6 5.4v5.1h-3.1z"/><path fill="#e6e6e6" d="m133.4 288.9h3.1v11.1l5.6-6h3.8l-5.4 5.5 5.5 8h-3.5l-4.1-5.8-1.9 1.9v3.9h-3.1z"/><path fill="#e6e6e6" d="m146 300.8c0-3.9 3.1-7 7.2-7s7.2 3.2 7.2 7-3.1 7-7.3 7c-4.1 0-7.1-3.1-7.1-7zm11.2 0c0-2.3-1.7-4.3-4.2-4.3s-4.1 2-4.1 4.3 1.7 4.3 4.1 4.3c2.6.1 4.2-1.9 4.2-4.3z"/><path fill="#e6e6e6" d="m162.4 302.6v-8.6h3.1v7.6c0 2.1 1.1 3.3 2.9 3.3s3-1.3 3-3.3v-7.6h3.1v13.4h-3.1v-2.1c-.8 1.3-2.1 2.3-4.2 2.3-3 .2-4.8-1.8-4.8-5z"/><path fill="#e6e6e6" d="m178.1 303.8v-7.1h-1.7v-2.7h1.7v-3.7h3.1v3.7h3.6v2.6h-3.6v6.6c0 1.2.6 1.7 1.7 1.7.7 0 1.3-.2 1.9-.5v2.5c-.8.5-1.7.7-2.8.7-2.3.1-3.9-.9-3.9-3.8z"/><path fill="#e6e6e6" d="m187.4 289.7h3.2v15h9.4v2.9h-12.5v-17.9z"/><path fill="#e6e6e6" d="m210.2 307.5v-1.7c-.9 1.1-2.3 2-4.4 2-2.6 0-4.8-1.4-4.8-4.2 0-3 2.3-4.4 5.4-4.4 1.7 0 2.6.2 3.7.5v-.2c0-1.9-1.2-2.9-3.3-2.9-1.5 0-2.6.3-3.9.8l-.8-2.5c1.5-.7 2.9-1.1 5.1-1.1 4 0 5.9 2.1 5.9 5.7v8zm.1-5.6c-.8-.3-1.9-.5-3.1-.5-2 0-3.1.8-3.1 2.1s1.1 2 2.6 2c2 0 3.5-1.1 3.5-2.9z"/><path fill="#e6e6e6" d="m219.2 305.5v2.1h-3.1v-18.7h3.1v7.4c1-1.4 2.4-2.5 4.5-2.5 3.2 0 6.3 2.5 6.3 7s-3.1 7-6.3 7c-2.2 0-3.6-1.1-4.5-2.3zm7.7-4.7c0-2.6-1.7-4.3-3.9-4.3s-3.9 1.7-3.9 4.4c0 2.6 1.8 4.3 3.9 4.3s3.9-1.7 3.9-4.4z"/><path fill="#e6e6e6" d="m231.2 305.8 1.4-2.1c1.4 1.1 3 1.7 4.4 1.7s2.1-.5 2.1-1.5-1.3-1.4-2.8-1.8c-.1 0-.2-.1-.2-.1-2-.6-4.2-1.4-4.2-4s2.1-4.1 4.8-4.1c1.7 0 3.5.6 5 1.5l-1.2 2.2c-1.3-.8-2.6-1.3-3.8-1.3s-1.9.5-1.9 1.4 1.3 1.4 2.8 1.8c.1 0 .2.1.2.1 2 .6 4.2 1.5 4.2 4 0 2.9-2.2 4.2-5 4.2-2 0-4.1-.7-5.8-2z"/><path fill="#e6e6e6" d="m360.6 298.6c0-5.1 4.1-9.2 9.3-9.2s9.2 4.2 9.2 9.2-4.1 9.2-9.3 9.2-9.2-4.2-9.2-9.2zm17.4-.1c0-4.5-3.5-8.2-8.2-8.2s-8.2 3.7-8.2 8.3c0 4.5 3.5 8.2 8.2 8.2s8.2-3.7 8.2-8.3zm-13.1-.1c0-2.8 2.1-5.1 5.1-5.1 1.9 0 2.9.6 3.9 1.5l-1.4 1.7c-.8-.7-1.5-1.1-2.5-1.1-1.7 0-2.8 1.4-2.8 3.1s1.1 3 2.8 3c1.1 0 1.7-.5 2.5-1.1l1.4 1.4c-1.1 1.1-2.1 1.7-4 1.7-2.8.1-5-2.2-5-5.1z"/><path fill="#e6e6e6" d="m380.5 289.7h3.4l4.2 13.2 4.4-13.3h2.6l4.4 13.3 4.2-13.2h3.3l-6.2 18h-2.7l-4.4-12.8-4.4 12.8h-2.7z"/><path fill="#e6e6e6" d="m406.7 300.8c0-3.9 3.1-7 7.2-7 4.2 0 7.2 3.2 7.2 7s-3.1 7-7.3 7c-4.1 0-7.1-3.1-7.1-7zm11.3 0c0-2.3-1.7-4.3-4.2-4.3s-4.1 2-4.1 4.3 1.7 4.3 4.1 4.3c2.7.1 4.2-1.9 4.2-4.3z"/><path fill="#e6e6e6" d="m423.3 294h3.1v3c.8-2 2.4-3.4 4.8-3.3v3.2h-.2c-2.7 0-4.6 1.7-4.6 5.4v5.1h-3.1z"/><path fill="#e6e6e6" d="m433 288.9h3.1v11.1l5.6-6h3.8l-5.4 5.5 5.5 8h-3.5l-4.1-5.8-1.9 2v3.9h-3.1z"/><path fill="#e6e6e6" d="m445.6 300.8c0-3.9 3.1-7 7.2-7 4.2 0 7.2 3.2 7.2 7s-3.1 7-7.3 7c-4.1 0-7.1-3.1-7.1-7zm11.3 0c0-2.3-1.7-4.3-4.2-4.3s-4.1 2-4.1 4.3 1.7 4.3 4.1 4.3c2.6.1 4.2-1.9 4.2-4.3z"/><path fill="#e6e6e6" d="m462.1 302.6v-8.6h3.1v7.6c0 2.1 1.1 3.3 2.9 3.3s3-1.3 3-3.3v-7.6h3.1v13.4h-3.1v-2.1c-.8 1.3-2.1 2.3-4.2 2.3-3.1.2-4.8-1.8-4.8-5z"/><path fill="#e6e6e6" d="m477.8 303.8v-7.1h-1.8v-2.7h1.7v-3.7h3.1v3.7h3.6v2.6h-3.6v6.6c0 1.2.6 1.7 1.7 1.7.7 0 1.3-.2 1.9-.5v2.5c-.8.5-1.7.7-2.8.7-2.2.1-3.8-.9-3.8-3.8z"/><path fill="#e6e6e6" d="m487.1 289.7h3.2v15h9.4v2.9h-12.5v-17.9z"/><path fill="#e6e6e6" d="m509.9 307.5v-1.7c-.9 1.1-2.3 2-4.4 2-2.6 0-4.8-1.4-4.8-4.2 0-3 2.3-4.4 5.4-4.4 1.7 0 2.6.2 3.7.5v-.2c0-1.9-1.2-2.9-3.3-2.9-1.5 0-2.6.3-3.9.8l-.8-2.5c1.5-.7 2.9-1.1 5.1-1.1 4 0 5.9 2.1 5.9 5.7v8zm.1-5.6c-.8-.3-1.9-.5-3.1-.5-2 0-3.1.8-3.1 2.1s1.1 2 2.6 2c2 0 3.5-1.1 3.5-2.9z"/><path fill="#e6e6e6" d="m518.8 305.5v2.1h-3.1v-18.7h3.1v7.4c1-1.4 2.4-2.5 4.5-2.5 3.2 0 6.3 2.5 6.3 7s-3.1 7-6.3 7c-2.2 0-3.5-1.1-4.5-2.3zm7.7-4.7c0-2.6-1.7-4.3-3.9-4.3s-3.9 1.7-3.9 4.4c0 2.6 1.8 4.3 3.9 4.3s3.9-1.7 3.9-4.4z"/><path fill="#e6e6e6" d="m530.8 305.8 1.4-2.1c1.4 1.1 3 1.7 4.4 1.7s2.1-.5 2.1-1.5-1.3-1.4-2.8-1.8c-.1 0-.2-.1-.2-.1-2-.6-4.2-1.4-4.2-4s2.1-4.1 4.8-4.1c1.7 0 3.5.6 5 1.5l-1.2 2.2c-1.3-.8-2.6-1.3-3.8-1.3s-1.9.5-1.9 1.4 1.3 1.4 2.8 1.8c.1 0 .2.1.2.1 2 .6 4.2 1.5 4.2 4 0 2.9-2.2 4.2-5 4.2-1.9 0-4.1-.7-5.8-2z"/><path fill="#e6e6e6" d="m659.5 298.6c0-5.1 4.1-9.2 9.3-9.2s9.2 4.2 9.2 9.2-4.1 9.2-9.3 9.2-9.2-4.2-9.2-9.2zm17.3-.1c0-4.5-3.5-8.2-8.2-8.2s-8.2 3.7-8.2 8.3c0 4.5 3.5 8.2 8.2 8.2 4.8 0 8.2-3.7 8.2-8.3zm-13-.1c0-2.8 2.1-5.1 5.1-5.1 1.9 0 2.9.6 3.9 1.5l-1.4 1.7c-.8-.7-1.5-1.1-2.5-1.1-1.7 0-2.8 1.4-2.8 3.1s1.1 3 2.8 3c1.1 0 1.7-.5 2.5-1.1l1.4 1.4c-1.1 1.1-2.1 1.7-4 1.7-2.9.1-5-2.2-5-5.1z"/><path fill="#e6e6e6" d="m679.3 289.7h3.4l4.2 13.2 4.4-13.3h2.6l4.4 13.3 4.2-13.2h3.3l-6.2 18h-2.6l-4.4-12.8-4.4 12.8h-2.7z"/><path fill="#e6e6e6" d="m705.5 300.8c0-3.9 3.1-7 7.2-7 4.2 0 7.2 3.2 7.2 7s-3.1 7-7.3 7c-4 0-7.1-3.1-7.1-7zm11.3 0c0-2.3-1.7-4.3-4.2-4.3s-4.1 2-4.1 4.3 1.7 4.3 4.1 4.3c2.7.1 4.2-1.9 4.2-4.3z"/><path fill="#e6e6e6" d="m722.1 294h3.1v3c.8-2 2.4-3.4 4.8-3.3v3.2h-.2c-2.7 0-4.6 1.7-4.6 5.4v5.1h-3.1z"/><path fill="#e6e6e6" d="m731.8 288.9h3.1v11.1l5.6-6h3.8l-5.4 5.5 5.5 8h-3.5l-4.1-5.8-1.9 2v3.9h-3.1z"/><path fill="#e6e6e6" d="m744.4 300.8c0-3.9 3.1-7 7.2-7 4.2 0 7.2 3.2 7.2 7s-3.1 7-7.3 7c-4.1 0-7.1-3.1-7.1-7zm11.3 0c0-2.3-1.7-4.3-4.2-4.3s-4.1 2-4.1 4.3 1.7 4.3 4.1 4.3c2.6.1 4.2-1.9 4.2-4.3z"/><path fill="#e6e6e6" d="m760.9 302.6v-8.6h3.1v7.6c0 2.1 1.1 3.3 2.9 3.3s3-1.3 3-3.3v-7.6h3.1v13.4h-3.1v-2.1c-.8 1.3-2.1 2.3-4.2 2.3-3.1.2-4.8-1.8-4.8-5z"/><path fill="#e6e6e6" d="m776.6 303.8v-7.1h-1.7v-2.7h1.7v-3.7h3.1v3.7h3.6v2.6h-3.6v6.6c0 1.2.6 1.7 1.7 1.7.7 0 1.3-.2 1.9-.5v2.5c-.8.5-1.7.7-2.8.7-2.3.1-3.9-.9-3.9-3.8z"/><path fill="#e6e6e6" d="m785.9 289.7h3.2v15h9.4v2.9h-12.5v-17.9z"/><path fill="#e6e6e6" d="m808.7 307.5v-1.7c-.9 1.1-2.3 2-4.4 2-2.6 0-4.8-1.4-4.8-4.2 0-3 2.3-4.4 5.4-4.4 1.7 0 2.6.2 3.7.5v-.2c0-1.9-1.2-2.9-3.3-2.9-1.5 0-2.6.3-3.9.8l-.8-2.5c1.5-.7 2.9-1.1 5.1-1.1 4 0 5.9 2.1 5.9 5.7v8zm.1-5.6c-.8-.3-1.9-.5-3.1-.5-2 0-3.1.8-3.1 2.1s1.1 2 2.6 2c2 0 3.5-1.1 3.5-2.9z"/><path fill="#e6e6e6" d="m817.6 305.5v2.1h-3.1v-18.7h3.1v7.4c1-1.4 2.4-2.5 4.5-2.5 3.2 0 6.3 2.5 6.3 7s-3.1 7-6.3 7c-2.1 0-3.5-1.1-4.5-2.3zm7.7-4.7c0-2.6-1.7-4.3-3.9-4.3-2.1 0-3.9 1.7-3.9 4.4 0 2.6 1.8 4.3 3.9 4.3 2.2 0 3.9-1.7 3.9-4.4z"/><path fill="#e6e6e6" d="m829.6 305.8 1.4-2.1c1.4 1.1 3 1.7 4.4 1.7s2.1-.5 2.1-1.5-1.3-1.4-2.8-1.8c-.1 0-.2-.1-.2-.1-2-.6-4.2-1.4-4.2-4s2.1-4.1 4.8-4.1c1.7 0 3.5.6 5 1.5l-1.2 2.2c-1.3-.8-2.6-1.3-3.8-1.3s-1.9.5-1.9 1.4 1.3 1.4 2.8 1.8c.1 0 .2.1.2.1 2 .6 4.2 1.5 4.2 4 0 2.9-2.2 4.2-5 4.2-1.9 0-4-.7-5.8-2z"/><path fill="#e6e6e6" d="m206.3 434.2c0-5.1 4.1-9.2 9.3-9.2s9.2 4.2 9.2 9.2-4.1 9.2-9.3 9.2-9.2-4.1-9.2-9.2zm17.4-.1c0-4.5-3.5-8.2-8.2-8.2s-8.2 3.7-8.2 8.3c0 4.5 3.5 8.2 8.2 8.2s8.2-3.7 8.2-8.3zm-13.1-.1c0-2.8 2.1-5.1 5.1-5.1 1.9 0 2.9.6 3.9 1.5l-1.4 1.7c-.8-.7-1.5-1.1-2.5-1.1-1.7 0-2.8 1.4-2.8 3.1s1.1 3 2.8 3c1.1 0 1.7-.5 2.5-1.1l1.4 1.4c-1.1 1.1-2.1 1.7-4 1.7-2.9.1-5-2.2-5-5.1z"/><path fill="#e6e6e6" d="m226.1 425.3h3.4l4.2 13.2 4.4-13.3h2.6l4.4 13.3 4.2-13.2h3.3l-6.2 18h-2.7l-4.4-12.8-4.4 12.8h-2.7z"/><path fill="#e6e6e6" d="m252.4 436.4c0-3.9 3.1-7 7.2-7 4.2 0 7.2 3.2 7.2 7s-3.1 7-7.3 7c-4.1 0-7.1-3.1-7.1-7zm11.2 0c0-2.3-1.7-4.3-4.2-4.3s-4.1 2-4.1 4.3 1.7 4.3 4.1 4.3c2.7.1 4.2-1.9 4.2-4.3z"/><path fill="#e6e6e6" d="m269 429.7h3.1v3c.8-2 2.4-3.4 4.8-3.3v3.2h-.2c-2.7 0-4.6 1.7-4.6 5.4v5.1h-3.1z"/><path fill="#e6e6e6" d="m278.6 424.5h3.1v11.1l5.6-6h3.8l-5.4 5.5 5.5 8h-3.5l-4.1-5.8-1.9 2v3.9h-3.1z"/><path fill="#e6e6e6" d="m291.3 436.4c0-3.9 3.1-7 7.2-7 4.2 0 7.2 3.2 7.2 7s-3.1 7-7.3 7c-4.1 0-7.1-3.1-7.1-7zm11.2 0c0-2.3-1.7-4.3-4.2-4.3s-4.1 2-4.1 4.3 1.7 4.3 4.1 4.3c2.6.1 4.2-1.9 4.2-4.3z"/><path fill="#e6e6e6" d="m307.7 438.2v-8.6h3.1v7.6c0 2.1 1.1 3.3 2.9 3.3s3-1.3 3-3.3v-7.6h3.1v13.4h-3.1v-2.1c-.8 1.3-2.1 2.3-4.2 2.3-3 .2-4.8-1.8-4.8-5z"/><path fill="#e6e6e6" d="m323.4 439.4v-7.1h-1.7v-2.6h1.7v-3.7h3.1v3.7h3.6v2.6h-3.6v6.6c0 1.2.6 1.7 1.7 1.7.7 0 1.3-.2 1.9-.5v2.5c-.8.5-1.7.7-2.8.7-2.3 0-3.9-.9-3.9-3.9z"/><path fill="#e6e6e6" d="m332.7 425.3h3.2v15h9.4v2.9h-12.5v-17.9z"/><path fill="#e6e6e6" d="m355.5 443.1v-1.7c-.9 1.1-2.3 2-4.4 2-2.6 0-4.8-1.4-4.8-4.2 0-3 2.3-4.4 5.4-4.4 1.7 0 2.6.2 3.7.5v-.2c0-1.9-1.2-2.9-3.3-2.9-1.5 0-2.6.3-3.9.8l-.8-2.5c1.5-.7 2.9-1.1 5.1-1.1 4 0 5.9 2.1 5.9 5.7v8zm.1-5.6c-.8-.3-1.9-.5-3.1-.5-2 0-3.1.8-3.1 2.1s1.1 2 2.6 2c2 0 3.5-1.1 3.5-2.9z"/><path fill="#e6e6e6" d="m364.4 441.1v2.1h-3.1v-18.7h3.1v7.4c1-1.4 2.4-2.5 4.5-2.5 3.2 0 6.3 2.5 6.3 7s-3.1 7-6.3 7c-2.1 0-3.5-1.1-4.5-2.3zm7.7-4.7c0-2.6-1.7-4.3-3.9-4.3-2.1 0-3.9 1.7-3.9 4.4 0 2.6 1.8 4.3 3.9 4.3 2.2 0 3.9-1.7 3.9-4.4z"/><path fill="#e6e6e6" d="m376.5 441.4 1.4-2.1c1.4 1.1 3 1.7 4.4 1.7s2.1-.5 2.1-1.5-1.3-1.4-2.8-1.8c-.1 0-.2-.1-.2-.1-2-.6-4.2-1.4-4.2-4s2.1-4.1 4.8-4.1c1.7 0 3.5.6 5 1.5l-1.2 2.2c-1.3-.8-2.6-1.3-3.8-1.3s-1.9.5-1.9 1.4 1.3 1.4 2.8 1.8c.1 0 .2.1.2.1 2 .6 4.2 1.5 4.2 4 0 2.9-2.2 4.2-5 4.2-2 0-4.1-.7-5.8-2z"/><path fill="#e6e6e6" d="m505.1 434.2c0-5.1 4.1-9.2 9.3-9.2s9.2 4.2 9.2 9.2-4.1 9.2-9.3 9.2-9.2-4.1-9.2-9.2zm17.4-.1c0-4.5-3.5-8.2-8.2-8.2s-8.2 3.7-8.2 8.3c0 4.5 3.5 8.2 8.2 8.2s8.2-3.7 8.2-8.3zm-13.1-.1c0-2.8 2.1-5.1 5.1-5.1 1.9 0 2.9.6 3.9 1.5l-1.4 1.7c-.8-.7-1.5-1.1-2.5-1.1-1.7 0-2.8 1.4-2.8 3.1s1.1 3 2.8 3c1.1 0 1.7-.5 2.5-1.1l1.4 1.4c-1.1 1.1-2.1 1.7-4 1.7-2.9.1-5-2.2-5-5.1z"/><path fill="#e6e6e6" d="m525 425.3h3.4l4.2 13.2 4.4-13.3h2.6l4.4 13.3 4.2-13.2h3.3l-6.2 18h-2.7l-4.4-12.8-4.4 12.8h-2.7z"/><path fill="#e6e6e6" d="m551.2 436.4c0-3.9 3.1-7 7.2-7 4.2 0 7.2 3.2 7.2 7s-3.1 7-7.3 7c-4.1 0-7.1-3.1-7.1-7zm11.2 0c0-2.3-1.7-4.3-4.2-4.3s-4.1 2-4.1 4.3 1.7 4.3 4.1 4.3c2.7.1 4.2-1.9 4.2-4.3z"/><path fill="#e6e6e6" d="m567.8 429.7h3.1v3c.8-2 2.4-3.4 4.8-3.3v3.2h-.2c-2.7 0-4.6 1.7-4.6 5.4v5.1h-3.1z"/><path fill="#e6e6e6" d="m577.5 424.5h3.1v11.1l5.6-6h3.8l-5.4 5.5 5.5 8h-3.5l-4.1-5.8-1.9 2v3.9h-3.1z"/><path fill="#e6e6e6" d="m590.1 436.4c0-3.9 3.1-7 7.2-7 4.2 0 7.2 3.2 7.2 7s-3.1 7-7.3 7c-4.1 0-7.1-3.1-7.1-7zm11.2 0c0-2.3-1.7-4.3-4.2-4.3s-4.1 2-4.1 4.3 1.7 4.3 4.1 4.3c2.6.1 4.2-1.9 4.2-4.3z"/><path fill="#e6e6e6" d="m606.5 438.2v-8.6h3.1v7.6c0 2.1 1.1 3.3 2.9 3.3s3-1.3 3-3.3v-7.6h3.1v13.4h-3.1v-2.1c-.8 1.3-2.1 2.3-4.2 2.3-3 .2-4.8-1.8-4.8-5z"/><path fill="#e6e6e6" d="m622.2 439.4v-7.1h-1.7v-2.6h1.7v-3.7h3.1v3.7h3.6v2.6h-3.6v6.6c0 1.2.6 1.7 1.7 1.7.7 0 1.3-.2 1.9-.5v2.5c-.8.5-1.7.7-2.8.7-2.3 0-3.9-.9-3.9-3.9z"/><path fill="#e6e6e6" d="m631.5 425.3h3.2v15h9.4v2.9h-12.5v-17.9z"/><path fill="#e6e6e6" d="m654.3 443.1v-1.7c-.9 1.1-2.3 2-4.4 2-2.6 0-4.8-1.4-4.8-4.2 0-3 2.3-4.4 5.4-4.4 1.7 0 2.6.2 3.7.5v-.2c0-1.9-1.2-2.9-3.3-2.9-1.5 0-2.6.3-3.9.8l-.8-2.5c1.5-.7 2.9-1.1 5.1-1.1 4 0 5.9 2.1 5.9 5.7v8zm.1-5.6c-.8-.3-1.9-.5-3.1-.5-2 0-3.1.8-3.1 2.1s1.1 2 2.6 2c2 0 3.5-1.1 3.5-2.9z"/><path fill="#e6e6e6" d="m663.3 441.1v2.1h-3.1v-18.7h3.1v7.4c1-1.4 2.4-2.5 4.5-2.5 3.2 0 6.3 2.5 6.3 7s-3.1 7-6.3 7c-2.2 0-3.6-1.1-4.5-2.3zm7.7-4.7c0-2.6-1.7-4.3-3.9-4.3s-3.9 1.7-3.9 4.4c0 2.6 1.8 4.3 3.9 4.3s3.9-1.7 3.9-4.4z"/><path fill="#e6e6e6" d="m675.3 441.4 1.4-2.1c1.4 1.1 3 1.7 4.4 1.7s2.1-.5 2.1-1.5-1.3-1.4-2.8-1.8c-.1 0-.2-.1-.2-.1-2-.6-4.2-1.4-4.2-4s2.1-4.1 4.8-4.1c1.7 0 3.5.6 5 1.5l-1.2 2.2c-1.3-.8-2.6-1.3-3.8-1.3s-1.9.5-1.9 1.4 1.3 1.4 2.8 1.8c.1 0 .2.1.2.1 2 .6 4.2 1.5 4.2 4 0 2.9-2.2 4.2-5 4.2-2 0-4.1-.7-5.8-2z"/></g>
</svg>
