<?xml version="1.0" encoding="utf-8"?>
<!-- Generator: Adobe Illustrator 23.0.1, SVG Export Plug-In . SVG Version: 6.00 Build 0)  -->
<svg version="1.2" baseProfile="tiny" id="Layer_1" xmlns="http://www.w3.org/2000/svg" xmlns:xlink="http://www.w3.org/1999/xlink"
	 x="0px" y="0px" viewBox="0 0 900 600" xml:space="preserve">
<g>
	<path d="M477.06,369.55c-0.7-3.44,2.18-9.35,4.89-9.05c4.57,0.52,8.84-0.73,13.63-1.04c8.49-10.7,8.03-9.71,8.53-11.02
		c3.15-8.27,7.72-15.9,10.4-24.44c2.41-7.68,7.69-13.83,12.59-20.07c10.45-13.35,19.45-11.02,33.38-17.16
		c6.06-2.68,0.36-6.84,6.87-14.66c47.5-57.11,21.32-45.64,44.61-68.73c11.63-11.52,17.48-10.01,27.35-11.75
		c6.44-11.46,13.24-23.05,19.44-31.61c11.51-15.88,9.75-21.65,22.56-27.14c4.48-1.91,9.86-2.27,12.27-6.45
		c6.28-10.86,32.69-2.54,46.48-4.06c0.34,1.37-4.78,1.3-6.34,2.7c-2.81,6.34-1.66,17.99,2.18,19.13c-2.44,3.1,7.59,23.94,6.87,39.21
		c1.24,1.15,3.85,0.42,4.16,3.12c-1.35,0.11-2.5-0.93-3.74-0.73c-1.46,6.76,4.79,8.53,8.42,12.59c10.71-3.22,21.94-2.81,33.18-2.91
		c3.54-6.14,4.26-12.79,4.79-20.28c-5.61,6.19-17.69,3.5-19.76,0.93c-1.53-1.9-3.64-2.7-5.72-3.64c-2.29,1.24-4.57,2.29-7.38,2.7
		c0.42-3.85,3.95-3.85,6.55-5.41c-10.09-10.92-18.2-22.46-15.6-38.48c-1.35-1.87-3.54-1.24-5.51-1.35
		c-1.24,4.79-1.46,9.77-3.12,14.45c-1.16,0-0.81,1.25,2.08-17.05c-2.29,3.02-2.7,6.34-4.16,9.26c-0.77-7.67,6.18-12.12,3.85-14.45
		c-1.05,0.28-2.2-4.69,2.39-11.96c-1.82,0-2.65-0.12-1.35-2.29c1.51-1.8-2.46-13.15,9.98-28.7c1.24-1.56,2.6-3.22,2.81-4.99
		c4.26-6.65,12.37-5.1,17.78-8.42c1.15-1.15,0.2-2.29,1.24-3.12c1.97,0.83,4.57-0.42,5.92,1.46c1.46,0.62,1.77-0.93,2.7-0.62
		c0.73,0.11,0.73,1.37,1.66,1.15c1.25-0.29,2.29-1.56,3.33-1.35c1.66,0.62,0.93,1.77,1.24,2.7c1.66-0.42,3.02-2.6,4.99-0.93
		c-0.11,1.66-1.66,2.39-1.97,4.47c13.45,0.2,24.47,9.4,27.13,24.56c2.08,1.56,4.79,0.93,5.92,3.12c-0.93,1.66-2.7,0.83-3.95,1.56
		c1.87,1.87,4.99,1.56,6.14,4.47c-2.39,0.52-3.85,2.18-4.99,4.06c0.93,1.24,2.29,2.18,2.81,4.06c-1.77,0.73-0.62,2.29-0.42,3.43
		c-2.18,1.35-3.95-0.42-6.14-0.42c-4.06,8.42-5.1,18.09-10.09,26.51c10.11,5.34,24.11,20.25,28.28,32.34
		c6.12,17.73-1.03,26.89,3.22,32.86c8.21,11.52,15.29,26.75,14.14,41.49c-0.94,12.14,11.13,17.42,11.33,33.27
		c1.24,7.42,4.47,1.06,4.47,31.41c17.68,5.52,35.43,20.74,29.43,39.21c-6.99,21.48-30.37,14.4-31.82,15.29
		c-5.83,3.54-18.52-4.5-23.6-5.3c-0.62-0.1-0.31-1.56-1.46-1.24c-1.27,2.74,3.96,6.03,6.03,8.22c7.23,7.61,18.7,2.62,18.2,6.65
		c-18.57,0.87-17.59-5.2-24.54-8.94c-1.45,9.34,8.09,12.55,17.47,13.1c0.83,0.11,1.97-0.62,2.6,1.04
		c-9.26,2.18-16.43-1.66-22.98-7.59c-1.51,15.48,23.54,14.15,24.65,11.23c1.21-3.2,4.16-3.85,7.38-5.1
		c-0.52-4.57,1.97-8.11,5.83-11.02c1.35,2.29-0.83,3.54-1.46,4.99c6.41,12.39,4.54,13.62,2.39,20.07
		c-4.71,23.91-45.05,16.79-59.9-3.12c-0.83,2.81-1.57,4.89-1.97,6.96c-7.55,38.55-91.28-0.96-58.03-34.22
		c-4.82-4.2-23.19-18.11-23.19-14.98c3.43,14.03,5.48,28.4,8.84,42.53c0.02,0.11,10.53,40.69,17.47,77.16
		c0.79,4.17,0.73,2.73,8.22,8.63c1.56,6.96,4.26,13.63,5.1,20.59c3.71,2.59,40.77-7.71,52.51-7.07c0.73,0,1.56,0.02,2.18-0.2
		c4.62-1.66,9.36-1.46,14.03-2.29c0.2,0,0.42,0.52,1.15,1.46c-23.6,2.39-46.06,8.11-69.04,10.61c-0.83,1.66,0.83,3.85-1.77,5.41
		c-1.46-9.77-3.01-19.03-6.03-28.49c-4.57-2.28-5.23-4.52-4.79,3.54c0.24,4.21,4.03,7.87,1.15,10.5c-3.4-9.44-1.26-1.67-6.45-33.27
		c-1.69-10.29-5.33-20.27-7.28-30.57c-0.95-4.99-0.64-10.19-2.6-14.98c-3.4-8.29-3.72-14.07-14.45-63.43
		c-0.78-3.59,1.78-0.65-28.18-26.73c-7.85-7.85,5.92,22.15,6.76,33.27c1.9,25.09,21.26,105.85,22.77,109.91
		c1.13,3.02,1.77,6.45,1.97,10.5c-7.69-19.66-10.71-39.83-15.7-59.9c-4.7,5.99-9.06,2.91-17.47,3.74
		c-5.83,0.58-16.85-5.83-19.35-11.23c-1.1-1.65-1.05-15.2-16.53-26.73c-6.74-5.02-9.67-11.96-9.26-20.79
		c2.5-1.66,4.99-3.74,8.22-4.68c5.6-1.64,5.17-7.23,10.19-5.61c0.65-2.41-1.56-8.99-0.73-12.17c1.31-4.97-0.92-8.54-3.14-12.27
		c-7.4,5.57-23.76,14.08-23.27,14.56c-1.38,1.73-2.49,0.28-0.42-0.42c11.45-8.18,24.16-15.71,25.79-14.98
		c7.05,9.22,3.29,20.97,3.95,28.28c0.85,9.39,12.91,15.39,19.35,7.49c-1.15-8.94,3.85-16.64,6.24-25.58
		c-0.52-4.79-3.85-9.67-3.02-15.6c-2.39-2.29-4.37-5.1-6.65-7.91c-6.65,3.43-11.96,9.15-19.35,11.13
		c6.03-4.06,12.06-8.11,18.3-12.37c-2.6-3.74-4.47-7.8-7.69-11.02c-7.17,7.83-16.68,12.29-25.38,17.99
		c0.44-2.68,12.56-8.02,24.96-18.43c-1.15-6.75-2.08-13.51-4.26-20.47c-6.65,5.51-13.18,10.34-20.28,14.45
		c-1.36,0.79-4.13,5.29-15.08,12.17c-16.03,10.07-16.47,13.64-27.86,19.97c-3.75,2.08-7.18,4.68-9.88,8c0.2,1.35,0.73,2.5,2.08,3.22
		c-3.33,4.89-2.6,9.88,0,14.98c-1.87,0-2.48-1.15-2.91-2.18c-4.39-10.55,3.54-10.5-2.08-16.74c-7.69,0.11-6.96,0.93-9.88-7.8
		c-4.16-1.66-8.73,0.62-12.59-1.56c-9.3,12.29-14.36,0.97-24.54,12.59c-12.5,14.26-36.87,16.02-44.09,44.19
		c3.74,3.33,3.74,3.33-0.83,10.5c3.99,13.98-1.28,19.71,7.91,31.2c1.46-1.35,2.08-2.81,2.91-4.16c0.28-0.56-5.75-2.51,1.15-2.12
		c4.67-9.63,4.82-6.47,1.47,0.14c1.66,0.22,3.26,0.61,4.87,1.15c-2.15,1.42-4.26,1.84-6.18,1.29c-5.87,10.43-5.6,1.23,6.8,11.92
		c1.16-0.41,34.35-6.38,49.4-5.41c5.77,0,23.8-3.22,32.03-3.74c6.45-0.41,12.89-0.34,19.24-1.87c3.64-0.88,7.3-1.46,11.03-1.46
		c-7.59-7.53-13.53-13.6-16.23-16.84c-16.11,0.67-17.14,10.34-20.07,6.24c2.15-0.98,16.26-16.59,22.67-6.96
		c2.69,4.03,8.83,7.48,17.68,18.62c10.51,13.22,19.13,17.96,45.75,44.82c4.03,4.08,6.94,9.08,11.44,12.79
		c3.93,3.25,7.49,6.96,11.13,10.61c2.09,2.09,3.98,4.22,1.56,4.79c-2.9-5.8-47.51-47.88-73.45-73.56
		c-6.23,5.32-103.3,9.79-113.11,13.36c-2.5-1.77-4.79-3.74-7.8-4.68c0.52,5.3-2.4,8.63-7.59,9.05c-17.57,1.41-24.4,2.09-38.58-15.8
		c-2.74-3.47,1.01-21.04,1.97-24.75C480.62,387.13,478.48,376.49,477.06,369.55z M676.92,351.25c-3.81,7.37,5.96,16.77,13.72,15.18
		C680.77,363,676.82,358.84,676.92,351.25z M693.98,365.71c-1.96,0.92-3.22,2.58-4.76,3.93c-1.72-0.35-2.77-2.27-5.01-2.27
		c0.99,2.97,1.54,3.3,8.94,1.56C693.88,368.2,694.29,367.26,693.98,365.71z M688.26,372.98c-3.48,2.27-5.67,0.02-11.86-8.94
		c-2.42-3.51-2.81-7.59-3.01-12.06c-2.39,5.51-8.32,5.72-12.27,8.84c-1.6,19.4,15.57,17.01,20.59,33.27
		c3.09,10.02,3.34,16.02,12.68,19.55c9.59,3.63,12.28,1.55,17.16,2.5c4.47,0.86,8.55-3.13,7.69-7.59
		c-0.92-4.79-1.97-9.57-3.02-14.35c-0.56-0.73-3.72-3.14-4.16-0.52c0.2,0.93,1.87,0.83,1.66,2.5c-1.46,4.06-5.72,5.83-11.13,4.26
		c-0.42-2.08,2.08-2.18,2.5-3.64c-1.24-1.46-3.43-0.73-5.41-1.77c9.74-7.68,3.86-1.08-1.87-4.99c2.91-3.02,6.96-3.02,10.09-4.79
		c0.52-1.04,0.11-1.77-0.31-3.01c-7.33,7.55-18.65,3.14-8.22,0.42c3.22-0.84,7.86-4.39,5.92-7.28c-4.47,4.26-9.46,6.76-15.7,3.54
		c5.1-2.08,10.29-3.95,15.18-7.28c1.77-2.19-1.15-5.72,1.46-8.11c-0.83-1.24-1.87-2.29-3.64-3.02c-2.08,4.57-4.26,9.05-7.59,13.52
		C693.04,370.59,690.65,371.43,688.26,372.98z M696.78,366.85c1.24-1.04,1.77-2.29,2.29-3.64
		C697.2,364.04,697.2,364.04,696.78,366.85z M700.11,359.99c1.66-2.18,3.44-2.4,5.2-0.83c1.87,1.66,3.94,3.01,3.43,6.24
		c-1.28,8.17,0.06,19.49,6.45,24.75c-10.49-56.47,0-11.56-10.29-52C703.03,345.32,699.91,352.08,700.11,359.99z M658.21,165.74
		c-9.15,11.77-12.68,23.51-18.72,30.99c-6.88,8.54-9.03,22.71,2.18,38.58c7.14,10.11,13.88,6.63,19.44,10.71
		c2.81-2.6,5.83-5.2,9.15-8.11c-2.7-12.37-1.35-25.06-0.83-37.33C657.68,191.52,656.44,179.46,658.21,165.74z M636.05,240.92
		c1.97-0.62,3.02-1.56,4.26-2.39c-1.87-1.87-3.43-3.85-4.89-6.03C634.7,235.41,638.03,237.59,636.05,240.92z M640.22,242.9
		c0.73,0.2,0.93-0.11,1.15-0.62C640.64,241.54,640.64,242.69,640.22,242.9z M739.31,182.27c-1.39-28.12-15.42-44.98-8.22-56.88
		c-11.75-1.87-23.19-4.06-35.25,1.66c3.86,1.62,14.66,8.3,18.09,12.9c33.53,44.95,13.21,57.91,13.21,63.12
		c7.07-1.24,13.63-3.74,20.59-4.57C740.25,195.37,739.65,189.03,739.31,182.27z M787.78,195.58c2.08,0.52,3.74,0.93,5.51,1.35
		c6.65-11.96,9.57-24.54,6.76-38.06c-2.34-0.5-3.98,7.46-8,12.17C790.18,173.21,794.38,183.63,787.78,195.58z M746.49,97.52
		c1.66,0.42,2.18,1.15,3.02,2.18C750.24,96.9,748.57,97.41,746.49,97.52z M753.04,115.19c-0.11,0.73-0.11,1.35-0.2,1.97
		C753.87,116.65,753.36,115.92,753.04,115.19z M760.22,90.55c1.15-0.73,2.18-1.56,3.33-2.29C761.26,87.12,760.84,89.1,760.22,90.55z
		 M761.68,103.55c0.42,1.04,1.04,1.04,1.87,0.73C763.34,103.03,762.82,102.71,761.68,103.55z M767.6,101.68
		c1.77-0.42,3.02-1.15,3.74-3.22C769.48,99.08,768.02,99.29,767.6,101.68z M771.45,111.77c0.52-0.31,1.04-0.62,1.77-1.04
		C772.24,110.14,770.56,111.17,771.45,111.77z M771.03,77.14c1.56,0.31,2.6,1.66,4.06,0.11C773.32,76.31,773.32,76.31,771.03,77.14z
		 M777.28,87.95c-1.35-0.52-1.77,0.73-2.6,1.04c0.11,1.15,1.04,1.15,1.77,1.77C776.96,89.72,777.59,88.99,777.28,87.95z
		 M779.14,71.42c1.77,0.52,3.43,0.62,5.2,0C782.58,70.59,780.81,71,779.14,71.42z M779.67,77.35c0.97,2.5,4.15,3.27,6.45,0.2
		C783.93,77.55,781.95,77.97,779.67,77.35z M783.09,89.3c1.46,0.83,2.08,0.52,2.7,0.31C785.17,88.37,784.55,89.1,783.09,89.3z
		 M786.43,98.69c0.6,0.11,1.24,0.22,1.34-0.96C787.2,98.07,786.77,98.39,786.43,98.69z M786.42,98.7c-1.29,1.18-1.14,2.25-1.87,4.75
		C792.37,103.44,785.17,104.68,786.42,98.7z M788.5,75.68c2.59,0.73,3-3.01,5.83-2.6C792.23,72.56,789.63,74.95,788.5,75.68z
		 M791.11,82.13c0.42,2.7,1.46,3.95,3.22,4.57C794.01,84.83,792.55,84,791.11,82.13z M795.05,99.29c1.46,0.52,1.77-0.2,1.66-1.24
		C796.2,98.45,795.26,98.35,795.05,99.29z M799.84,96.27c-1.24,0.2-2.18,0.93-3.12,1.66C801.88,103.09,803.79,98.25,799.84,96.27z
		 M804.52,100.01c0,1.24,0.83,0.73,1.77,0.83C805.56,99.6,805.03,99.5,804.52,100.01z M811.17,88.99c-0.83,0.52-1.56,1.04-2.39,1.66
		c1.04,1.04,2.08,0.52,3.12,0.52C812.42,90.45,811.79,89.92,811.17,88.99z M809.09,134.33c2.18-5.92,3.22-12.17,3.85-18.4
		c-1.77-2.81-4.67-3.25-7.28-3.74c-5.81-1.1-11.32-3.41-17.16-4.47c-1.24-0.23-0.93-1.56-1.87-1.97c-3.36,0-17.76,9.12-19.76,10.71
		c-2.72,2.17-6.11,2.95-8.94,4.89c-0.92,0.64-1.46-0.52-2.39-0.2c-1.35,2.7-0.83,6.14-3.02,8.73c-1.87-2.39-1.66-9.67,0.31-12.59
		c-2.14,0.14-1.55-2.08-4.06-6.76c-0.31,3.33,1.35,6.34,1.24,9.77c-3.01,0.93-2.18,4.16-3.54,6.55c-3.01-2.6,1.04-6.14-1.56-8.22
		c1.04-1.56,1.97,0,3.02-0.52c-1.51-7.16-0.42-6.11-4.47-5.3c-1.66,9.67-0.42,13,6.14,16.43c-1.46,6.87-0.32,13.63,1.66,20.28
		c0.86,2.88,3.23,3.8,7.8,11.86c4.39,7.73,8.56,8.2,9.67,10.29c3.18,6,8.94,4.48,13.83,5.1c6.12,0.77,8.17-12.59,21.21-30.16
		c1.55-2.09,2.08-4.57,2.7-8c-4.37,2.81-8.42-1.24-12.27,1.66c0.51-5.29,2.83-2.04,11.02-6.14
		C806.49,133.5,807.53,134.12,809.09,134.33z M807.64,135.69c-1.15,0.52-1.87,0.83-1.56,2.08
		C807.43,137.76,807.53,136.93,807.64,135.69z M867.22,293.54c-0.11-4.11-7.69-24.24-13.1-33.59c-1.98-3.43-2.38-7.28-2.29-11.44
		c0.11-5.3-1.66-10.61-2.5-15.91c-1.14-7.18-4.54-13.37-8-19.44c-1.06-1.86-3.52-2.18-4.26-4.79c-3.43-11.99,5.99-22.05-11.13-48.36
		c-4.47-6.87-10.19-12.17-17.89-16.53c-4.34,4.34,10.89,10.15,2.81,14.35c-0.52-4.06-3.02-6.65-5.3-9.57
		c-1.24,2.08-2.39,3.95-3.64,5.92c3.95,15.18,2.5,29.74-5.83,43.57c1.97,0.83,3.43,3.22,6.34,2.39c1.77,3.74,4.79,6.24,8.94,8.11
		c-1.97,0.93-3.02-0.52-4.47,0.31c-0.73,3.22,1.15,6.55,0.2,9.67c-2.18-3.54-1.98-8-3.54-11.96c-1.97-5-4.53-4.67-8.94-6.03
		c-0.31,2.91,1.04,5.61,0.73,9.15c-1.66-3.43-1.24-6.65-2.39-9.57c-13.18-6.42-60.94,4.58-74.87,8.73
		c-1.32,5.61,10.08,15.76,7.8,39.52c6.34-4.89,12.68-8.22,19.44-12.48c-0.93,4.47,0.83,8.32,0.42,13.1
		c-1.77-3.22-1.04-6.34-2.6-9.05c-6.03,2.7-11.13,6.76-17.16,9.36c-1.04,8.53-5.51,16.22-5.51,25.27c3.22,3.12,6.76,6.45,10.5,9.98
		c6.55-4.68,14.89-7.87,21.21-13.94c15.29-14.67,23.47-15.34,22.56-18.51c-12.43,0.73-10.82,0.86-10.82-0.11
		c3.54-0.62,7.07-1.15,10.82-1.15c0.62-5.61-1.35-10.61-1.46-15.91c-8.73,0.11-16.95,1.87-25.38,1.97
		c8.63-2.5,17.47-3.12,26.51-3.74c0.83,4.99,1.56,9.57,2.5,14.98c3.74-3.95,8.21-6.04,11.44-9.98c3.03-3.7,13.99-10.68,15.91-11.23
		c1.55-0.44,1.77-2.91,2.7-4.99c1.46,2.81-0.83,4.37-1.24,6.45c2.89,8.66-2.71,4.81,8.11,25.79c6.31,12.23,12.82,19.32,14.98,25.79
		c3.54,16.07,0.73,21.83,6.24,38.37c9.26-9.15,20.17-9.05,32.13-6.45C867.11,305.39,867.38,299.57,867.22,293.54z M828.75,331.29
		c-14.56-14.26-38.45-20.16-50.95-10.92c-23.63,17.48,23.5,54.49,49.71,41.38C840.89,355.05,837.95,340.29,828.75,331.29z
		 M832.38,329.41c-0.42,1.04-0.52,1.77,0,2.91C832.8,331.18,832.6,330.45,832.38,329.41z M794.64,314.44
		c17.32,0.62,26.47,8.87,35.46,15.29c3.85-11.55,3.72-7.58,2.7-11.33c-8.68-25.75,0.2-32.49-10.29-46.79
		c-5.04-6.87-22.69-27.07-18.62-42.22c-9.26,2.98-15.74,12.51-27.14,19.86c-0.73,1.15,0.73,1.46,0.62,2.6
		c-1.42,4.55-7.69,4.09-27.24,22.56c-5.24,4.95-11.96,8-18.62,11.96c13.22,14.45,24.86,30.16,36.72,46.38
		C773.23,321.05,777.96,313.84,794.64,314.44z M897.59,337.42c-10.49-30.15-69.32-35.42-63.23-6.76
		C841.54,364.42,909.17,370.72,897.59,337.42z M860.99,365.5c-1.14-0.54-4.9-2.59-6.34-1.87
		C856.41,365.29,858.69,365.5,860.99,365.5z M846.12,359.99c3.35,1.01,8.31,3.85,8.73,3.43c-3.54-2.81-7.8-4.68-11.23-7.69
		C843.72,357.7,844.35,359.46,846.12,359.99z M842.58,352.92c15.79,14.22,45.51,18.99,53.77,1.77c-17.64,13.9-45.9,3.68-58.54-12.79
		C838.1,348.44,838.2,348.97,842.58,352.92z M839.45,352.08c-1.97,1.66-1.97,1.66-2.39,4.68c1.56,0.11,2.7,0.2,3.85,0.2
		C842.37,354.68,841.02,353.33,839.45,352.08z M874.19,374.86c-0.8,7.05-6.46,7.14-6.96,8.42c-2.41,6.05-17.04,6.04-23.71,2.29
		c-11.97-6.73-2.36-16.61-3.33-26.31c-6.98-3.18-1.04,8.55-24.02,12.48c1.69,16.04,26.17,32.8,48.45,28.18
		C874.3,399.92,882.61,386.41,874.19,374.86z M822.09,392.43c17.66,16.35,45.35,19.67,52.72,4.37c-18.49,14.61-55.17-1.65-60-23.09
		C812.19,376.74,818.28,388.9,822.09,392.43z M812.94,401.06c-19.9,13.99-54.5-0.41-60.52-24.02
		C748.13,403.29,801.61,424.24,812.94,401.06z M682.33,275.55c5.44,10.69,1.55,16.25,7.18,24.23c10.16,14.39,18.29,18.84,33.8,33.9
		c23.6,22.92,29.34,15.75,45.75,37.75c10.38,13.92,9,15.34,13.94,16.12c5.52,0.86,10.92-0.37,16.43,0.11
		c2.61,0.22,3.67-2.12,5.61-4.35c-1.72,0.43-8.36-0.01-12.48-2.83c4.89,0.11,9.77,1.46,14.56,0c0.18,1.46-0.73,2.41-1.86,2.77
		c0.26,2.62-0.56,4.53-1.88,5.03c-2.18,0.83-4.16,2.32-6.76,2.39c-5.09,0.16-10.09-0.87-15.18-0.42
		c-5.16,0.46-13.72-20.79-21.83-26.1c-8,3.15-6.29,15.84-0.83,23.09c11.18,14.81,31.36,20.39,44.61,16.95
		c15.12-3.91,15.34-19.88,6.65-27.86c-1.15,1.66-0.73,3.95-2.91,4.16c0.11-1.04,0.31-2.18,0.42-3.22
		c-3.95-0.73-8.11-0.73-12.06-2.39c2.7-4.06,11.53,4.42,15.6-3.95c2.57-1.83,16.37,1.34,22.77-11.13
		c-18.29,12.85-52.96,3.95-63.64-25.16c-0.43,19.51,17.18,30.29,36.08,35.15c-4.99,0.52-9.36-1.87-14.03-3.01
		c-1.24,0.93-0.73,2.7-1.66,4.06c-1.97-1.77,0.11-3.33-0.11-5.2c-8.52-3.28-20.78-14.27-21.74-25.16c-0.2-2.29-1.07-4.12-2.81-5.72
		c-4.84-4.44-16.29-26.88-42.53-53.24c-2.68-2.69-10.25-10.83-8-13.94c1.15,0.73,0.83,2.39,2.18,2.81c1.25-1.96-0.16-5.53,1.87-8
		c3.75-4.57,3.99-18.08,3.54-22.36c-2.39-22.79-8.92-25.79-7.49-33.18c-1.49-0.2-2.32,0.92-3.49,1.11c0.97-2.95,3.49-5.02,5.56-6.73
		c4.15-3.44,4.12-7.95,7.28-8.42c0,5.41-2.91,9.26-6.24,13.52c3.33-0.52,5.07-2.09,6.14-4.79c3.96-9.95,8.2-14.85,5.1-24.33
		c-1.7-5.18-10.35-27.28-15.08-29.22c0.11-4.99-10.82-15.49-19.44-18.62c-1.87,1.24-3.74,2.5-5.61,3.85
		c-7.59,2.33-14.18,3.53-19.44,13.52c-7.41,14.06-4.59,7.15-3.12,9.46c-3.18,4.77-8.9,0.55-6.03,25.79
		c0.58,5.11,2.65,14.11,7.69,15.08c1.04-7.07-1.15-13.83-0.42-20.9c1.66,0.62,1.24,2.6,2.39,3.43c0.83-0.62,0.52-2.08,2.18-2.7
		c-0.38,17.58,5.46,18.74,8.42,26.51c-2.81-4.26-6.55-7.59-9.15-12.06C674.14,211.56,665.95,243.34,682.33,275.55z M812.21,374.02
		c-1.04,0.2-1.24,0.73-0.2,1.66C812.74,375.06,812.63,374.55,812.21,374.02z M607.57,329.83c3.85-4.37,9.03-6.98,13.94-9.88
		c6.01-3.56,10.18-9.38,16.02-13.1c5.08-3.24,10.72-6.01,15.18-10.19c8.52-7.97,14.7-10.77,26.93-20.39
		c-2.08-3.22-3.54-6.55-4.89-10.29c-7.38,4.06-11.65,11.75-19.44,14.87c2.91-2.91,6.34-5.3,9.26-8.22c2.91-2.91,5.2-6.65,9.88-7.69
		c-7.3-21.6-2.38-25.06-6.55-21.01c-28.26,27.47-7.95,5.94-36.08,30.47c1.77,6.96,2.81,14.03,0.93,21.94c0.2-8.11,0-15.6-2.18-22.77
		c-3.12,0.93-3.02,5.1-6.45,5.41c-0.52,5.2-4.57,9.77-2.39,15.29c-3.16,0.52,2.22-6.98-9.26,10.92c-3.75,5.85,3.13,1.52-10.82,14.56
		c-1.34,1.26-3.01,1.35-4.68,1.77C598.43,334.21,603.57,326.16,607.57,329.83z M584.48,319.43c22.77,2.53,22.17-12.7,27.35-18.72
		c-8.42,6.14-18.09,8.94-27.86,12.27c7.93-6.66,24.97-4.67,35.15-23.4c0.74-1.35-1.04-2.19-0.73-3.74c1.15-2.39,3.01-4.99,1.77-8.42
		c6.24-3.02,12.37-5.92,16.64-12.27c-4.68,0.52-8.32,2.5-11.86,4.47c3.43-5.61,10.61-8.53,16.53-6.96
		c8.32-5.92,13.41-11.23,13.21-13.94c-1.66-0.11-3.02,0.83-4.79,1.35c-1.04-2.08-3.11-1.18-4.89-1.56c-4.68-1-2.13-3.63-2.22-3.76
		c1.97,1.97,3.63,2.79,5.75,0.96c-2.18,0.62-3.01-4.89-5.83-1.04c-0.52,0.2-1.35,0.83-1.56,0.73c-2.6-2.08-6.02-3.02-7.49-6.87
		c-3.09-8.15-9.39-12.74-8.42-27.04c-2.7,2.7-3.22,5.83-4.06,9.57c-3.82-11.84,7.31-16.22,16.33-26.93
		c-4.51,2.65-9.03,0.71-15.7,5.41c-31.5,22.19-2.37,17.37-54.59,77.68c-0.92,1.06-1.46,2.29-1.35,3.64
		C567.75,303.82,567.06,317.5,584.48,319.43z M630.96,222.51c-2.39,2.08-0.11,4.06,0.42,6.14c0.73-0.83,2.08-1.77,0.42-2.81
		C630.13,224.8,632.83,223.55,630.96,222.51z M629.71,220.12c0.73,0.2,0.93-0.31,1.15-1.15
		C629.92,219.18,629.71,219.49,629.71,220.12z M630.13,213.57c-1.04,1.04-1.35,2.29-1.97,4.26
		C629.92,216.28,630.96,215.44,630.13,213.57z M515.12,373.61c-0.45-0.89-0.76-1.81-0.97-2.76c9.57-20.71,28.22-25.08,38.94-37.28
		c3.45-3.93,8.01-5.81,12.79-7.38c1.55-0.51,7.64,2.43,14.03-4.68c-2.08-1.56-4.59-1.73-6.65-2.81c-2.31-1.2-2.81-3.54-3.85-5.51
		c-1.77-0.31-2.5,2.18-4.37,1.56c-1.53-2.72,2.65-4.94,1.77-7.28c-2.32-6.16-2.5-12.37-2.91-19.13c-5.83,2.91-11.44,4.38-17.05,5.83
		c-14.65,3.78-15.23,10.71-25.06,23.81c-9.52,12.69-9.45,26.4-21.94,40.34c-1.96,2.19-3.12,4.79-4.26,8.11
		c5.2-4.37,7.59-10.29,11.96-14.56c-12.69,21.65-12.64,16.2-9.57,22.36c1.97,0.52,4.06,1.15,5.92,1.66c1.46-0.73,1.35-2.6,3.01-2.91
		c0.58,2.53-3.94,3.57,3.85,5.51c0.96-0.38,1.12-1.2,1.3-1.91C513.07,375.59,513.73,374.36,515.12,373.61z M478.73,414.58
		c0.17,4.44,1.93,4.44,5.83,9.26c8.43,10.45,24.63,9.54,30.05,7.91c11.84-3.58,0.76-9.54-2.39-23.81
		c-6.14,0.62-11.54,1.46-17.05-1.24c2.18-2.39,2.18-2.39,16.02-0.62c0.45-1.47-0.06-6.28-0.31-7.8c-6.24-0.93-12.79,0.83-19.44-2.6
		c3.74-3.22,7.28-1.51,10.4-1.56s6.34,0.11,9.46,0.42c-6.24-1.87-12.79-0.93-19.44-2.6c2.5-3.12,4.47-3.12,18.51-1.35
		c-0.2-0.93-1.46-0.2-1.66-1.56c0.31-2.39,3.12-3.85,4.16-6.34c-27.01-8.7-14.77-6.6-23.81,1.66c0.11-4.57-1.78-8.73-2.29-13
		c-0.52-4.32,5.53-7.28,5.83-9.15c-6.77,5.02-14.05-6.76-10.61,17.78C484.17,395.77,477.83,391.32,478.73,414.58z"/>
	<path d="M60.79,171.87c-12.23,23.18-44.82,8.17-57.71-14.66c-9.09-16.1,3.54-35.48,17.57-32.23c2.56,0.85-0.22-3.2,5.72-5.61
		c-0.93-2.18,0.93-3.22,1.77-4.68c-5.5-21.98,15.48-38.14,42.64-21.94c14.27,8.52,15.95,17.55,19.55,16.12
		c5.95-1.73,28.04-1.06,37.12,2.18c1.9,0.68,34.65-7.46,56.05,0.62c5.57,2.1,8.32-3.18,18.51-1.46c6.45,1.09,8.35-4.55,22.56-3.43
		c18.23,1.43,12.23-8.58,49.29,4.16c4.45-6.68,1.28-2.67,0.73-4.89c0-1.15,0.96-1.97,0.93-3.33c-0.29-19.71,12.47-27.32,12.17-32.23
		c0.73-0.93,1.87-0.52,2.39-1.24c5.33-7.34,17.35-2.32,16.53-10.29c2.39,1.24,5.2-0.2,6.65,2.18c1.15,0.11,1.35-1.35,2.5-0.93
		c0.62,0.11,0.73,1.35,2.08,0.83c0.83,0.11,1.56-1.15,2.91-0.93c1.35,0.31,0.52,1.66,1.15,2.39c1.56-0.31,2.91-2.5,4.79-0.83
		c0.11,1.77-1.77,2.39-1.66,4.57c14.44,0.41,25.66,11.77,26.73,24.33c2.08,1.77,4.79,1.24,6.14,3.12c-0.92,3.3-8.76-0.65,2.81,5.41
		c6.14-3.43,12.79-5.2,19.76-5.92c10.16-1.06,1.46-1.05,13.52-3.85c16.51-3.84,46.74,2.84,50.12,2.18
		c3.64-8.84,10.4-13.94,19.35-16.85c18.93-35.75,61.91-20,65.83,16.53c1.87,17.42-11.14,30.9-27.77,34
		c-6.92,1.29-8.48,14.86-26.83,13.63c-19.06-1.29-25.83-16.24-30.78-24.85c-19.67,1.44-2.57,7.49-67.6,13.83
		c-3.03,7.95-6.8,15.46-14.87,18.2c-0.23-0.46,0.6,1.51-0.2,4.26c-6.06,20.75-19.26,21.34-24.44,24.33
		c-3.02,6.65-2.81,14.03-8.11,19.55c2.29,1.15,3.85,3.12,6.34,2.7c5.1,4.47,4.89,10.29,4.79,16.12c-3.84-5.61,0.93-14.35-12.06-15.7
		c-0.42,2.6,1.15,4.99,0.42,7.69c-1.66-2.7-0.62-6.03-2.5-8.84c-16.15-4.75-32.55,0.92-51.58,3.54c-7.49,1.03-14.04,3.42-20.17,7.8
		c-22.77,16.26-20.28,6.9-18.09,18.62c0.16,0.82,2,10.82,1.15,13.52c-1.35-6.87-1.66-13.31-3.64-19.66
		c-17.69,9.78-48.35,36.15-51.68,37.85c-6.33,3.23-11.33,8.22-16.43,13.31c1.66,6.55,2.39,13.1,1.24,19.76
		c0.31-7.38-1.15-14.56-2.5-21.94c3.33-1.97,4.79-5.72,8.84-7.59c-6.99,0.7-13.19,4.72-14.56,5.41c3.64-5.92,10.61-8.63,17.57-7.38
		c4.16-4.47,9.98-7.59,13.41-13.31c-2.5-1.24-3.95,0.62-5.92,0.73c-1.16-2.65-8.25,0.41-7.38-4.99c1.97,0.52,3.74,2.81,6.34,0.83
		c-0.83-1.77-3.54-0.73-3.64-2.91c-1.35,0.52-2.39,0.83-2.7,2.08c-0.83,0.31-1.77,0.42-2.91,0c-2.29-2.08-4.99-3.22-6.34-6.76
		c-1.87-4.89-4.98-9.36-6.87-14.25c-2.77-7.2,0.48-22.65-5.51-3.33c-0.72-7.68-1.87-7.87,11.75-21.11c9.47-9.21,4.03-4.03,1.46-3.85
		c-11.23,0.81-28.68,13.48-31.82,27.86c-0.62,2.84-9.48,20.03-14.45,27.04c-23.85,33.61-24.65,21.57-20.17,50.64
		c0.07,0.32-0.07,3.62,2.33,2.42c-0.05-0.07-0.11-0.14-0.15-0.24c1.64-2.86,3.55-1.2,0.31,0.42c-1.26-1.26-1.51,11.05,5.51,13.31
		c5.2,1.68,10.29,3.69,16.02,3.22c14.98-1.23,17.56-15.23,19.97-19.24c-11.58,8.09-29.34,12.59-23.5,9.67
		c7.91-2.91,15.83-5.8,22.77-10.82c4.04-2.92,0.15,2.6,8.42-10.09c0.11-1.66-1.46-2.18-0.93-3.85c1.35-2.39,2.81-4.99,1.77-8.53
		c3.43-1.24,6.87-2.18,9.46-4.89c-1.97,2.39-2.7,5.72-5.83,6.65c-1.04,5.1-3.95,9.57-2.7,14.87c-1.04,0-0.62-1.35-1.66-0.93
		c-2.7,4.99-6.77,9.35-8.53,14.76c-2.4,7.38-8.11,10.82-14.25,14.56c0.42,1.97,0.52,4.47,2.39,6.24c2.7,1.04,5.61-0.93,8.22,1.24
		c3.43-3.95,7.91-6.23,12.06-8.94c13.74-8.99,9.54-9.2,12.68-10.09c5.81-1.64,19.31-8.51,23.4-14.14c1.85-2.55,1.94-0.76,10.92-6.45
		c6.94-4.39,41.27-30.63,52.1-35.67c3.54-1.65,6.97-3.95,9.26-7.07c4.26-5.82,11.33-7.07,16.64-11.44
		c-0.61,4.17,2.29,23.55-1.56,3.64c-13.8,6.6-75.05,53.63-123.74,83.09c-10.71,6.48-13.9,9.51-9.67,12.59
		c-3.81,6.09-2.19,8.68-0.31,14.87c-4.37-3.12-4.99-7.69-2.29-14.56c-1.71-3.85-0.52-1.9-2.29-4.26c-7.18,0.52-7.18,0.52-9.88-7.59
		c-4.06-1.87-8.73,0.93-12.48-1.77c-3.64,4.99-5.41,6.27-11.44,6.65c-12.7,0.82-12.28,8.12-22.05,13.83
		c-17.16,10.03-30.23,17.11-35.35,36.5c3.85,3.02,3.85,3.12-0.83,10.5c4.03,7.5-2.65,16.88,8,31.09c4.34-5,5.88-12.26,8.07-11.87
		c-1.87,4.85-4.35,9.3-7.34,13.53c8.63,4.37,9.88,5.41,9.77,8.22c-2.81-1.56-4.99-3.95-8.11-4.89c-0.11,4.79-1.56,7.18-5.2,8.63
		c-0.11,0.04-14.93,3.22-24.75-1.04c-6.96-3.02-11.47-8.61-16.12-14.14c-3.67-4.36,2.49-28.28,2.5-28.39
		c0.48-7.17-0.97-14.24-2.5-21.21c-0.74-3.43,2.5-9.66,5.3-9.15c4.57,0.84,8.84-0.83,13.41-1.04c2.39-3.02,4.85-6.06,7.28-9.05
		c0.7-0.86,9.88-20.91,11.75-26.62c2.42-7.37,7.5-13.3,12.17-19.44c5.83-7.68,13.51-12.09,22.88-13.83
		c2.89-0.54,14.7-3.52,14.03-7.91c-1.6-10.68,32.49-38.44,36.5-61.66c1.1-6.37,7.45-13.51,12.17-17.89
		c11.13-10.31,14.07-9.3,26.93-11.23c15.92-28.38,17.46-25.36,16.74-29.53c-17,8.34-43.32-2.32-59.9-11.23
		c-15.57-8.36-27.06,5.39-45.03-0.62c-5.41-1.81-3.85,4.08-25.16-0.93C59.23,148.22,67.98,158.26,60.79,171.87z M163.85,209.93
		c-0.69,0.69-1.28,1.01-1.56,3.54C163.64,212.84,164.47,212.01,163.85,209.93z M162.6,217.94c1.04-0.62,1.56-1.24,1.56-2.39
		C163.33,216.28,162.81,216.79,162.6,217.94z M165.62,222.82c-1.44-1.06,0.11-2.29-1.04-3.64c-2.18,2.29-0.2,4.16-0.11,6.87
		C165.4,224.7,166.98,223.84,165.62,222.82z M26.27,362.17c-3.95,3.74-3.74,7.38-1.77,11.23c1.35-0.73,1.66-2.39,3.43-2.91
		C26.69,367.88,26.27,365.39,26.27,362.17z M28.35,373.4c-3.02,1.77-3.02,5.72-6.45,8.11c1.04-4.89-0.6-8.63-1.56-12.59
		c-0.93-3.82,2.92-6.67,5.51-9.77c-2.91,1.15-5.83,1.35-8.84,0.93c-3.85,4.89-2.67,10.5-1.77,15.7c2.82,16.29-3.31,10.56-2.91,36.81
		c0.03,2.03,6.44,10.4,11.13,13.1c9.39,5.41,24.97,5.47,30.05-0.52c-0.11-1.97-7.18-18.82-8.53-20.48
		c-4.35,0.92-16.85,1.61-15.49-2.81c4.99-1.24,9.98,0.2,15.18,1.04c0-2.7,0-5.3,0-8.11c-6.45-0.52-12.9,0.52-18.82-1.77
		c0.31-2.7,1.77-2.5,3.12-2.5c5.3,0,10.61,0.11,15.8,1.24c1.12-3.91-17.5-0.52-18.93-3.95c2.18-2.18,2.5-2.18,16.22-0.93
		c-0.11-3.33,3.12-4.79,4.26-7.59C40.31,377.35,34.28,375.37,28.35,373.4z M79.41,291.15c-14.07,3.85-14.56,10.77-24.33,23.71
		c-9.29,12.29-9.44,25.67-21.42,39.72c-2.01,2.36-3.43,4.99-4.47,8.63c5.3-4.47,7.69-10.4,12.06-14.76
		c-3.54,6.24-6.87,12.59-11.44,17.78c0.2,5.41,4.26,5.72,7.91,6.55c1.24-0.73,1.35-2.39,2.7-3.12c0.83,1.35-0.93,2.29-0.52,3.64
		c10.95,8.21-3.25-8.54,33.9-32.45c14.72-9.48,11.51-13.96,25.69-17.89c2.46-0.68,7.89,2.33,13.83-4.99
		c-4.57-1.87-9.98-2.29-10.29-8.53c-2.08,0.52-2.7,2.29-4.47,1.97c-0.42-2.39-0.42-2.39,1.87-6.45c-2.39-6.14-2.5-12.9-3.12-19.86
		C91.47,288.23,85.44,289.5,79.41,291.15z M55.38,176.96c-22.67,8-53.77-17.89-52-38.68C-7.82,162.59,40.5,194.84,55.38,176.96z
		 M25.33,122.58c-0.73,2.81-0.38,5.59-1.46,8.22c-0.55,1.34,0.4,3.23,1.56,4.68c2.7,3.38,8.49,17.36,18.93,11.44
		c-10.4-1.56-13.83-9.26-17.78-16.53c2.7,1.46,4.8,3.74,5.92,6.45c2.31,5.51,7.61,5.99,11.96,8.11c1.46,0.71,3.33,0,5.1-1.04
		c-5.17-1.48-11.34-4.12-13.72-8.94c-0.39-0.8-0.77-1.53-1.12-2.22c3.44,3.88,8.81,8.15,15.88,9.29
		c-9.67-6.76-13.31-9.15-21.74-24.85C28.76,119.98,28.14,122.06,25.33,122.58z M26.69,146.5c4.79,5.92,7.18,6.96,11.44,4.68
		c-3.85-2.6-8.84-3.12-10.29-8.32C26.58,144.21,26.69,145.35,26.69,146.5z M77.85,99.39c-35.58-30.42-66.44,3.9-27.97,32.76
		C84.44,158.08,110.25,127.09,77.85,99.39z M280.73,93.98c1.04,0.73,1.77,1.35,2.18,2.29C283.75,93.98,282.6,93.78,280.73,93.98z
		 M286.86,111.87c-0.52,0.42,0,0.62,0.11,1.04C287.17,112.39,287.28,112.08,286.86,111.87z M293.73,86.71
		c1.46-0.2,2.39-1.15,3.64-2.08C294.87,83.58,294.56,85.66,293.73,86.71z M295.28,100.64c0,0.11,1.56,1.55,1.56-0.83
		C295.91,99.7,295.39,100.01,295.28,100.64z M301.22,97.83c2.18-0.31,2.18-0.31,3.74-2.7C303.19,95.64,301.84,95.96,301.22,97.83z
		 M304.85,107.81c0.73,0.73,1.15,0.31,1.87-1.24C305.58,107.3,305.27,107.5,304.85,107.81z M304.75,73.5
		c1.46,1.04,2.5,1.77,3.85,0.11C307.35,72.77,306.21,72.88,304.75,73.5z M310.78,84.31c-1.24,0.2-2.08,0.73-2.7,1.97
		c0.73,0.42,1.24,0.73,1.77,0.93C310.88,86.5,310.99,85.66,310.78,84.31z M312.44,68.4c1.87,0,3.74,0,5.51,0
		C316.92,67.57,316.92,67.57,312.44,68.4z M313.48,74.43c0.88,2.06,3.87,2.83,6.34-0.31C317.33,74.54,315.46,74.65,313.48,74.43z
		 M317.23,85.98c0.73,1.04,1.46,0.42,2.18,0.31C318.79,85.25,318.06,85.66,317.23,85.98z M319.31,96.59
		c-2.33,4.28-0.34,3.64,2.7,3.64C320.87,99.08,319.2,98.45,319.31,96.59z M321.81,72.04c1.77,0.73,1.77,0.73,3.74-1.87
		c0.8,0,1.61,0,2.7,0C325.98,68.28,323.63,71.92,321.81,72.04z M325.03,79.32c1.15,3.43,1.15,3.43,3.85,4.26
		C327.31,81.81,326.17,80.57,325.03,79.32z M329.92,95.12c-2.11-0.38-0.16,2.51,0.09,0.04c1.61,0.36,2.74,1.95,4.68,1.95
		C337.09,94.06,333.08,91.22,329.92,95.12z M338.23,96.37c-0.31,1.97,0.73,1.04,1.46,0.62C339.28,96.48,338.96,96.17,338.23,96.37z
		 M344.89,85.87c-1.15,0.11-1.66,1.04-2.7,1.66c1.46,0.83,2.39,0.52,3.43,0.11C345.72,86.91,345.31,86.5,344.89,85.87z
		 M339.07,108.85c-5.71-1.07-11.12-3.38-16.74-4.37c-2.15-0.38-0.5-4.29-5.61-1.04c-5.41,3.44-11.49,5.97-16.64,9.98
		c-2.63,2.05-5.91,2.83-8.63,4.68c-0.93,0.63-1.46-0.62-2.18-0.31c-1.66,2.81-0.83,6.45-3.85,9.46c-1.63-17.93,2.01-7.86-3.54-20.7
		c0.62,3.43,1.35,6.87,2.08,10.4c-3.22,0.73-2.7,3.74-3.43,6.45c-3.54-2.7,0.62-6.24-1.97-8.22c1.98-2.77,3.93,3.96,1.87-6.34
		c-1.15,0.2-2.18,0.42-3.22,0.52c-1.97,8.84-0.2,13.52,6.45,16.43c-1.69,3.55-1.24,18.09,3.74,24.02
		c5.92,7.05,5.47,10.4,11.65,15.39c6.42,5.19,4.47,6.01,7.8,6.87c19.37,4.93,10.66-4.16,30.47-28.7c1.53-1.9,2.18-4.37,2.7-7.28
		c-3.22,0.52-6.02,0.7-8.84-0.42c-1.35-0.53-1.87,1.77-3.43,0.93c-1.16-4.13,3.8-2.09,11.33-5.92c1.24-0.63,2.29,0.2,3.64,0.31
		c2.08-6.03,3.22-12.27,3.74-18.62C344.58,109.89,341.77,109.36,339.07,108.85z M341.05,132.77c-1.24,0.11-1.77,0.52-1.15,1.77
		C340.94,134.43,341.05,133.71,341.05,132.77z M447.11,90.34c-0.62,0.31-0.62,0.73-0.52,1.35
		C447.42,91.49,447.11,90.87,447.11,90.34z M448.98,92.22c4.37,0.11,8.53,0.93,13.1-0.52c-0.11-4.99-0.62-10.19,1.46-15.29
		C456.99,77.55,450.65,84.42,448.98,92.22z M527.7,95.13c1.29-17.46-12.45-38.48-34.31-38.99c-35.37-0.84-34.29,54.09,0.62,63.85
		C511.07,124.74,526.34,113.53,527.7,95.13z M498.69,122.99c-22.63-3.63-38.15-27.07-31.92-49.91
		C457.05,95.09,473.79,122.59,498.69,122.99z M495.78,125.18c-12.06-2.51-14.83-4.41-24.85-14.14c-6.96,0.42-13.83,0-20.48,1.87
		C457.42,135.9,491.05,142.28,495.78,125.18z M477.37,136.62c-21.92-2.96-26.27-20.49-30.16-23.29
		C449.4,126.01,464.9,137.97,477.37,136.62z M326.38,193.92c5.72-6.65,5.72-15.49,9.46-22.67c1.24-0.31,1.33,1.54,2.39,0.83
		c6.16-4.11,15.26-3.31,20.9-20.07c0.83-2.48,0.57-4.52,2.23-6.18c0.3-0.3-0.79-0.8,2.03-2.87c5.08-3.73,9.03-8.22,10.92-14.56
		c0.93-3.12,2.63-6.02,3.12-9.26c0.11-0.73,0.31-1.46,1.56-1.66c-0.31,2.5-0.62,4.99-1.04,7.49c3.85,0.72,33.59-2.64,47.42-8.53
		c12.44-5.29,32.41-7.93,39.52-7.49c0.62-0.62-0.11-1.04,0-1.56c0.83-0.93,2.08-0.11,3.22-0.83c-0.2-2.5-2.18-4.06-3.01-6.55
		c-2.81,0.62-5.51,1.56-8.73,0.83c2.39-1.46,5.1-1.04,7.38-2.7c-0.42-1.24-0.2-2.91-1.24-4.16c-8.2,2.18-25.3-0.74-32.55-2.81
		c-7.56-2.16-14.98-0.16-22.98-1.04c-6.04-0.66-11.75,0.83-17.78,1.97c0.52,0.98,10.92,1.12-13.94,3.95
		c-7.28,0.83-13.31,4.47-19.66,7.8c0.83,1.56,2.39,2.29,2.7,4.37c-1.56,0.73-0.31,2.29-0.52,3.43c-2.08,1.24-3.64-0.2-6.03-0.62
		c-3.95,9.46-6.14,19.75-10.92,29.53c3.74,0.11,6.87,0.2,10.5,1.15c-3.74,1.77-7.18,0.83-10.92,1.04c-2.7,4.47-6.49,8.45-8.53,13.63
		c-2.41,6.11,0.93,7.29,0.93,19.54c-5.78-5.77,0.09-19.31-9.46-5.83c-5.07,7.16-7.38,16.12-14.56,22.05
		C314.94,192.67,320.87,191.63,326.38,193.92z M295.28,192.98c5.44-1.21,9.68,1.24,14.14-6.34c2.13-3.62,5.61-6.24,6.87-10.61
		c-3.85-0.93-7.82-0.68-11.54-1.97c-1.78-0.62-7.65,3.99-12.17,2.7c3.02-2.18,6.87-2.08,10.19-3.54c-0.52-2.91-3.22-2.7-4.99-4.06
		c-2.6,0.93-4.99,2.39-7.91,2.7c0.62-3.85,4.06-3.95,6.45-5.2c-0.31-1.77-1.56-2.81-2.91-3.64c-1.04-0.31-1.66,0.93-2.7,0.83
		c-0.93-1.24,0.83-1.56,0.83-2.7c-2.68-4.85-13.76-16.69-10.4-32.96c-1.35-1.97-3.54-1.04-5.61-1.56c-5,21.81-4.48,18.35-1.24-1.77
		c-2.29,2.6-2.29,5.83-3.85,8.42c-0.42-2.6-0.22-3.75,1.24-6.87c4.02-8.52,6.05-8.17-1.97-4.16c1.87-3.01,2.6-6.34,3.64-9.57
		c-4.68-1.46-9.46-1.35-14.45-2.81c-0.93,15.18-2.08,29.95,0.52,44.71c0.42,1.66,4.47-0.52,3.74,2.91
		c-1.04-0.62-2.18-1.15-4.06-1.04c3.33,15.18,10.09,28.08,22.36,38.16C286.04,194.75,290.59,194.03,295.28,192.98z M174.97,239.04
		c-0.93-0.73-0.93,0.31-0.93,0.93C174.35,239.67,174.66,239.35,174.97,239.04z M169.77,237.28c1.66-0.11,2.6-1.24,3.95-1.97
		c-6.25-7.36-3.92-7.64-6.03-4.68C170.71,232.19,170.19,234.78,169.77,237.28z M181,180.29c-7.55,15.83-15.43,18.3-13.63,32.86
		c3.46,27.87,24.58,27.49,27.14,29.74c2.08-1.15,3.22-3.33,5.3-4.16c1.99,2.65-1.65,2.57,16.64-9.98c-0.31-1.77-2.18-1.77-2.81-3.22
		c2.92-0.34,4.01,4.69,7.91-0.93c-1.32-1.24-2.16,1.17-8.53-5.2c2.7,0.83,4.89,2.7,7.69,3.22c0.83,0.2,0.83,0.83,0.83,1.46
		c35.19-20.78,35.49-20.14,37.02-22.67c0.74-1.24,1.97-1.8,3.43-1.97c5.29-0.64,10.09-3.22,15.49-3.33
		c0.5-2.49-18.31-12.86-21.52-44.51c-1.3-12.79-2.09-35.87,0.31-42.33c-4.06-0.42-7.59-1.97-11.96-1.66
		c2.5,14.34,7.07,37.2,1.56,57.19c-2.82,10.25-9.47,26.41-18.93,31.2c-8.37,4.24-23.74,15.01-30.26-1.35
		c-11.87-29.79-1.26-29.44-4.16-32.34C188.39,168.13,184.13,173.75,181,180.29z M205.76,199.01c2.08,0.23,4.26,1.24,6.24-0.11
		c-2.91-7.49-8.67-13.23-12.06-20.48c-3.22-6.9-0.03-9.83-4.99-13.83c-2.93,21.16,6.2,28.2,5.92,29.85
		C200.55,197.97,203.15,198.72,205.76,199.01z M119.34,141.82c20.23,6.42,13.22,7.33,27.24,12.17c11.64,4.01,29.58,7.59,40.66,2.7
		c-1.46-1.66-2.5-3.54-5.51-2.91c1.77-1.87-1.04-2.6-0.62-4.06c3.38-2.15,4.33,9.58,32.45,21.63c4.35,1.45-1.28,1.49-14.35-3.54
		c4.68,10.61,8.84,20.79,14.35,30.05c13.63-3.64,21.02-12.99,26.31-24.65c4.13-9.12,6.08-41.2,2.18-58.65
		c-0.65-6.83,1.2-7.79-4.47-5.41c-9.05,3.8-6.19-2.8-21.01,0.83c-17.53,4.3-7.67-0.07-35.04,6.65c-0.52-1.46,1.04-1.66,1.04-3.01
		c-14.98-4.47-30.16-2.91-46.17-2.08c1.56,1.66,3.85,0.93,3.95,3.12c-10.61-1.46-21.01-4.99-31.92-2.7
		c0.11-1.97,1.87-0.93,2.81-2.29c-7.07,1.56-14.14-1.35-21.11,1.97c6.55,11.96,5.2,22.98-4.79,32.76
		C96.23,148.74,116.48,140.92,119.34,141.82z M86.48,140.78c-24.86,8.75-54.44-14.68-55.94-38.79
		C21.65,129.81,71.52,160.1,86.48,140.78z M53.1,142.45c-6.46,7.34-12.46,5.93-14.76,11.65c-1.64,4.08-12.09-2.52-14.76-8
		c0.73-1.97,0.93-4.06,2.6-5.72c-2.29-4.06-5.92-7.69-3.74-13C6.8,124.02,0.75,138.02,7.88,151.61
		c8.52,16.22,24.24,25.24,38.58,25.16C65.57,176.66,67.23,155.75,53.1,142.45z"/>
	<path d="M34.72,132.74C29.03,126.32,28.66,120.98,34.72,132.74L34.72,132.74z"/>
	<path d="M61.94,405.64l0.11,0.11C61.92,405.72,61.85,405.77,61.94,405.64z"/>
	<path d="M260.86,432.05c2.46,9.78,3.47,19.95,6.96,29.53c0.95,2.59,1.66,5.51,1.56,9.05c-7.8-19.24-10.5-39.31-15.6-59.07
		c-2.91,3.54-6.45,4.39-10.4,3.74c-7.28-1.18-6.43,0.97-11.23-0.31c-5.75-1.53-14.39-7.35-15.8-13.31
		c-6.64-28.04-25.72-20.73-25.06-45.13c2.81-1.77,5.3-4.18,8.73-4.89c4.61-0.95,4.25-7.01,9.88-5.51c-0.31-4.16-1.6-8.22-0.83-11.86
		c0.92-4.35-1.21-9.1-2.95-13.18c-1.37,0.64,1.67-2.14,2.43,0.92c2.5,4.99,4.22,10.39,3.54,15.91c-0.44,3.54-0.02,7.07-0.42,10.5
		c-1.05,9.12,12.73,16.51,19.35,8c-1.15-8.94,3.85-16.43,6.24-25.58c-2.6-7.59-4.06-16.53-6.34-25.48c-2.29,1.46-4.37,2.7-6.45,3.95
		c-0.62,4.68-1.15,9.26-3.85,13.31c0.31-3.85,2.91-7.38,1.77-11.65c-32.24,18.22,0.02-1.08,8.11-7.59
		c-1.41-8.72-5.55-8.94,4.16-13.41c-1.24,2.5-3.33,3.22-4.68,4.99c5.32,17.64,4.02,19.84,5.61,23.61
		C246,343.09,243.14,361.66,260.86,432.05z M210.02,347.71c-2.39,10.2,7.59,16.65,14.03,15.39
		C216.47,360.92,210.75,356.97,210.02,347.71z M218.13,364.35c0.11,1.15,0.83,1.77,1.66,2.5c1.24-0.2,2.6-0.42,3.95-1.04
		C221.56,366.75,220.21,364.15,218.13,364.35z M223.64,365.71c2.73,0,3.9,0.5,4.16-3.22C225.51,362.58,224.99,364.77,223.64,365.71z
		 M229.15,370.07c-1.56-0.11-1.56-1.97-2.39-1.87c-7.22-0.72-4.54,8.99-16.53-7.49c-2.59-3.55-3.02-7.59-3.12-12.17
		c-2.7,5.2-8.22,5.92-12.48,8.73c-1.29,21.47,17.95,16.92,21.32,35.77c2.79,22.32,23.66,18.57,29.22,19.76
		c4.79,0.73,8.58-3.13,7.8-7.91c-0.01-0.04-2.35-10.75-3.12-14.45c-0.93-0.52-1.97-1.04-3.02-1.46c-2.5,1.87,1.05,2.18,0.62,3.43
		c-1.55,4.58-6.87,6.65-11.44,4.37c0.42-1.87,2.39-2.08,2.81-3.54c-1.46-1.04-3.43-0.73-5.2-1.56c0.93-1.77,3.02-1.97,3.95-3.74
		c-14.03-1.4,0.23-3.88,4.16-6.24c0.31-1.04,0-1.87-0.73-2.6c-3.43,3.43-7.28,4.99-12.37,2.91c1.33-3.61,5.39-1.31,9.88-6.34
		c0.93-1.05,1.77-2.08,0.52-3.85c-4.47,4.57-9.46,6.87-15.8,3.54c24.69-8.54,12.04-11.08,16.74-15.39
		C235.09,352.95,236.8,360.32,229.15,370.07z M230.4,363.62c1.35-1.24,1.87-2.5,2.18-4.47C230.71,361.13,230.71,361.13,230.4,363.62
		z M236.01,354.89c4.57,1.24,6.25,3.54,5.92,8.11c-0.6,8.46,0.31,18.23,6.65,23.81c-9.92-52.88-1.91-22.1-10.19-51.89
		C229.66,365.11,233.99,354.89,236.01,354.89z"/>
	<path d="M308.18,495.48c0.11,3.54,0.11,3.54-1.24,5.3c-5.08-28.59-6.15-29.14-11.02-30.57c-1.35,5.51,2.08,10.4,2.39,16.02
		c-1.24-0.31-1.57-0.72-1.77-1.35c-1-3.21-2.28-6.45-2.39-9.88c-0.42-13.31-9.3-45-10.4-50.85c-1.19-6.33-1.57-12.89-3.74-19.24
		c-6.23-18.16-14.53-69.04-16.95-76.64c-7.28-22.87-8.16-34.52-10.61-40.14c-5.83,1.24-11.33,0.83-16.95,0.93
		c5.41-2.6,11.33-1.35,16.85-2.18c0.83,0.62,1.66,1.24,2.29,1.77c6.65-3.95,11.73-9.72,18.51-13.1
		c15.21-7.59,10.22-10.7,33.07-24.12c8.45-4.96-6.4-1.86-9.36-2.39c3.85-2.08,8-0.62,11.75-2.39c-0.42-5.3-1.24-10.4-2.18-15.6
		c-27.21,2.95-25.06,3.2-25.06,1.97c8.63-2.39,17.57-2.6,26.42-3.54c0.83,5.2,1.66,9.77,2.5,14.76
		c18.24-14.69,16.98-15.91,28.39-21.52c-1.99,4.97-3.73,3.01-12.68,10.5c-18.2,15.23-15.01,11.51-15.7,12.9
		c-0.2,0.93,1.24,1.66,0.73,2.91c-8.53,7.38-18.33,13.28-26.51,21.21c-8.24,7.98-19.66,11.75-28.59,19.55
		c0.01,0.11,32.84,147.12,34.53,151.72c4.75,12.98,0.18,26.47,11.96,30.57c2.18,7.59,4.47,14.56,5.61,21.94
		c23.29-3.12,45.75-8.94,68.95-9.67C374.3,485.03,318.68,495.2,308.18,495.48z"/>
	<path d="M189.85,331.39c-3.31,1.8-5.8,4.07-7.69,7.07c-3.18,5.03-12.12,1.82-17.89,7.59c-1.13,0.56,13.92,18.5,15.91,20.7
		c11.06,12.17,11.67,17.55,21.11,28.49c9.63,11.16,35.94,41,42.95,52.72c4.65,7.77,16.2,14.74,19.86,22.77
		c0.84,1.86,5.65,1.84,8.84,6.45c-3.02-0.42-4.79-3.54-7.49-1.77c-3.43-2.6-4.48-6.75-7.38-9.67c-22.84-23.02-9.7-12.85-45.97-54.9
		c-30.25-35.09-15.18-19.33-28.49-36.6c-0.08-0.11-22.25-27.14-22.36-27.24c-3.74-2.08-6.65,0.2-10.19-0.93
		c5.11-3.22,10.11-0.39,8.22-8.32c-3.33,3.02-6.55,5.61-9.88,8c0.65,4.84-11.15,26.65-13.83,31.3c-4.17,8.36-3.75,12.55-6.96,16.22
		c-3.84,4.37-4.37,1.52,8.73,6.34c1.15,0.42,3.02,1.15,1.35,3.54c-1.33-4.57-8.26-3.15-12.63-6.51c-1.86,2.04-4.24,2.55-6.92,2.35
		c-9.57-0.73-30.34,4.49-47.01,5.1c-3.19,0.11-6.58-0.2-9.57,1.31c-0.11-2.83,2.42-2.14,3.85-2.24c34.66-2.71,40.27-7.06,49.29-6.03
		c7.59,0.87,12.01-4.41,14.35-11.65c1.64-5.1,8.29-15.25,15.08-30.78c5.44-12.45,1.94-5.46-0.62-5.83
		c0.47-1.75,1.03-1.47,15.18-12.59c0.52-0.4,1.02-0.7,1.62-0.62c0.76-1.46,2.36-1.78,3.79-2.39c-0.42,3.12,1.77,5.3,2.29,8
		c1.97-0.42,3.63-0.64,5.3-1.04c5.25-1.26,5.22-8.45-1.15-7.49c-16.69,2.51,6.99-8.58,7.38,3.64c0.11,0.62-0.83,1.46,0,2.08
		C195.11,324.32,224.24,312.7,189.85,331.39z M163.33,335.65c-0.73-0.52-1.46,0.31-1.97,0c0.87,6.09,0.16,8.31,3.43,6.14
		C164.68,339.71,163.74,337.73,163.33,335.65z"/>
	<path d="M62.46,405.43c0.13-0.08,0.11-0.02,0.11,0.11L62.46,405.43z"/>
	<path d="M704.79,442.76c4.06,5.1,7,10.89,11.65,15.49c5.12,5.07,11.02,9.46,14.25,16.12c0.2,0.31,0.42,0.73,0.73,0.83
		c3.85,0.83,6.24,4.16,9.88,5.41c1.51,8.33,5.01,23.56,0.11,25.79c1.46-8.84-0.62-16.95-1.66-25.38c-2.91-0.62-4.68-3.95-7.91-2.29
		c-3.12-2.39-4.15-6.24-6.65-8.84c-27.04-28-10.77-14.44-43.68-52c-10.2-11.64-20.51-23.18-28.7-36.5
		c-5.43-8.83-13.53-15.59-19.55-24.13c-9.54-13.53-7.75-5.58-15.39-7.8c2.08-2.08,4.79-1.56,6.96-2.7c1.02-1.73,1.52-3.54,0.58-5.57
		c-2.69,3.1-6.22,5.38-9.63,8.07c0.87,5.51-14,31.49-15.8,35.67c-1.75,4.06-2.31,8.62-5.3,12.17c-0.52,0.62-1.66,1.04-1.46,2.39
		c8.78,3.13,9.61,2.59,11.3,4.35c-4.37-0.27-8.15-2.29-12.34-3.41c-2.5,1.77-2.91,2.1-4.89,1.97c-14.3-0.94-23.45,3.99-58.96,5.72
		c2.3-2.84-0.23-0.29,37.23-5.72c5.72-0.83,11.54-2.59,17.37-1.97c9.94,1.06,11.06-6.37,21.94-28.28
		c15.2-30.62,8.4-18.85,5.61-20.17c2.27-2.01,17.16-14.07,21.42-15.6c-0.93,1.04-0.61,1.96,0,2.91c0.97,1.54,0.93,3.54,2.08,4.99
		c1.77,0.31,3.33-0.62,4.99-0.73c4.5-0.53,5.06-6.03,1.56-7.69c-2.81,0.11-5.72,1.46-8.63,0.52c1.97-2.81,5.41-2.29,7.91-2.7
		c3.74-0.31,5.41,2.91,5.2,8c0.83,0.93,2.08-0.93,3.01,0.73c-2.01,3.58-11.99,0.7-17.47,7.18c8.81,13.38,9.24,10.32,30.78,40.66
		C672.52,406,674.66,404.91,704.79,442.76z M631.06,345.01c0-2.39-0.83-4.26-1.66-6.76c-2.5,2.39-0.42,4.89-1.15,6.87
		C629.29,346.36,630.02,345.74,631.06,345.01z"/>
	<path d="M393.66,508.48c-1.46-5.3-2.91-10.5-4.26-15.29c-3.43-3.33-8-4.79-10.82-8.53c10.27,5.31,13.85,8.17,14.98,13.41
		c0.87,4.05,2.91,8.11,1.04,12.79c-19.22,1.07-18.34,0.32-23.61,1.15C-19.29,572.85,318.5,513.33,393.66,508.48z"/>
	<path d="M839.56,515.14c1.61-0.25,3.12-0.41,4.53-0.53C766.45,527.3,453.66,573.2,839.56,515.14z"/>
	<path d="M860.25,511.7c-1.97-5.3-3.11-10.39-4.36-15.18c-3.54-3.22-8.11-4.68-10.82-8.53c9.04,5.91,13.42,6.52,15.29,15.29
		c3.42,16.03,1.02,9.8-16.27,11.32C853.36,513.08,859.27,512.04,860.25,511.7z"/>
	<path d="M645.73,516.18c4.17-0.28,8.11-1.47,12.27-1.77c23.73-1.68,28.76-6.08,37.96-7.18c8.18-0.97,24.55-1.56,27.86-3.22
		c-1.24-3.64-4.06-6.34-4.68-9.98c1.35,0.31,1.96,1.46,2.39,2.5c3.06,7.36,9.86,7.58,11.13,8.42c3.02,1.56,5.83,3.54,8.84,5.1
		c-4.56,1.18-8.3-5.18-10.19-4.57c-2.38,0.76-3.54-1.15-5.41-1.66c-2.31,3.02-4.69,2.61-17.78,4.16
		c-32.84,3.88-12.11,3.32-35.77,7.18c-8.94,1.46-18.09,1.66-27.55,3.12c-2.81,5.92-5.83,12.17-8.84,18.4
		c4.16,3.22,9.46,4.47,12.68,8.84c-5.72-2.18-10.82-5.2-16.12-8.32C637.08,531.87,641.55,516.46,645.73,516.18z"/>
	<path d="M251.51,489.03l0.11-0.11C251.7,489.24,251.9,489.48,251.51,489.03z"/>
	<path d="M187.97,511.5c32.64-3.34,31.65-6.47,42.01-7.59c37.93-4.1,26.93,1.06,21.75-14.63c0.82,0.84,1.89,1.64,2.37,2.68
		c4.25,9.23,9.84,7.84,16.53,12.48c1.35,0.83,3.43,0.62,4.47,2.91c-4.45-0.34-9.26-4.91-9.08-5.1c-2.38,0.11-4.56-0.11-6.52-2.08
		c-3.47,5.88-25.79,2.82-40.66,8.63c-10.12,3.96-29.69,4.28-40.34,6.24c-3.43,5.61-5.61,12.17-9.05,18.2
		c4.16,3.33,9.46,4.68,12.79,8.94c-5.72-2.18-11.02-4.99-16.22-8.42c3.32-3.72,5.61-11.4,9.77-17.99
		C177.56,512.99,177.71,512.54,187.97,511.5z"/>
	<path d="M81.07,423c41.82-5.23,19.62-1.35,41.49-3.64c6.76-0.71,13.41-2.35,20.28-2.7c21.33-1.09,34.63-4.05,34.53-4.16
		c-4.57-6.24-11.44-10.29-16.02-16.02c-14.76-1.5-17.13,10.73-20.39,6.03c5.86-3.37,5.2-7.27,15.6-9.98
		c5.32-1.39,5.85,2.58,10.61,6.87c14.13,12.74,13.13,15.44,23.6,25.06c52.87,48.58,37.53,38.56,46.48,46.17
		c1.57,1.33,14.39,12.55,15.08,16.02c-0.83,0-1.24,0.2-1.4,0.48c-3-4.33-15.75-18.93-61.63-61.32c-4.39-4.06-7.84-8.86-11.86-13.2
		c0.86,5-7.32,1.45-48.98,8.31c-19.26,3.18-20.49-1.08-42.22,3.02C68.87,427.22,53.91,426.4,81.07,423z"/>
	<path d="M250.94,487.13C253.06,490.17,250.35,488.14,250.94,487.13L250.94,487.13z"/>
	<path d="M277.51,495.06c3.05-0.93,15.29-2.01,17.99,0.11c3.21,2.51,6.55,4.68,10.29,6.76c-3.45,2.99-11.4-8.07-16.43-7.18
		c-3.85,0.69-7.69,0.62-11.44,1.77c-1.15,1.97,0,4.79-2.81,6.55c1.56-9.05-1.04-17.47-0.93-26.1
		C276.15,482.8,276.88,488.83,277.51,495.06z"/>
	<path d="M139,255.68c-4.89,4.79-8.1,10.26-10.19,16.22c-2.59,7.37-17.85,19.52-6.14,7.07c8.14-8.66,4.4-13.56,15.7-24.65
		c-0.2-2.08-1.24-3.85-1.15-6.03c1.46,1.46,0.62,3.64,2.91,5.3c1.66-1.97,3.43-4.06,5.2-6.14c-0.62,3.33-3.64,4.68-5.3,7.28
		c2.18,5.72,5.83,10.61,9.15,15.91C145.94,270.91,140.37,258.68,139,255.68z"/>
	<path d="M152.93,242.69c-0.23,2.67-2.84,3.17-1.77,7.69c2.79,11.83,1.22,5.04,5.3,18.82c-6.76-7.49-9.57-22.88-7.59-25.58
		c0.62-0.31,0.93,0.73,2.08,0.31c1.73-12.33,13.79-14.89,9.57-12.06C156.66,234.46,153.37,237.39,152.93,242.69z"/>
	<path d="M282.81,442.13c-2.58,5.15-11.83-0.03-5.41-6.45c-4.47-0.93-4.57-4.06-4.57-7.38c2.39-0.93,4.84-2.77,7.07-0.2
		c2.14,2.44,1.15,4.89-0.52,7.07C283.02,437.14,284.27,439.64,282.81,442.13z M276.26,428.83c0.56,3.9-0.98,1.51-1.66,2.7
		c0,2.57,4.41,2.59,4.78,0C279.79,429.56,278.54,428.72,276.26,428.83z M279.28,437.77c-3.39-0.23-3.34,4.81,0,4.57
		C282.92,442.08,282.35,437.55,279.28,437.77z"/>
	<path d="M748.78,442.44c-2.86,4.39-11.15,0.56-5.51-6.65c-3.95-1.56-4.37-2.29-4.26-7.59c2.5-0.93,4.91-2.73,7.28,0.11
		c1.47,1.76,1.24,3.95-0.83,6.76C749.3,437.25,750.41,439.93,748.78,442.44z M745.66,430.69c-0.42-1.56-1.46-2.18-3.02-1.77
		c-0.62,0.52,0.2,1.04,0,1.56c-0.11,1.24-1.56,0.2-1.97,1.35C742.45,435.2,746.09,432.84,745.66,430.69z M745.66,437.67
		c-3.21-0.46-3.88,4.35-0.62,4.57C748.55,442.49,748.84,437.89,745.66,437.67z"/>
	<path d="M173.31,251.32c4.06-0.21,7.8-2.39,12.48-2.7c-5.2,6.55-19.13,8.11-24.54,3.12C165.4,250.8,169.36,251.52,173.31,251.32z"
		/>
	<path d="M747.74,488.41c-5.1-15.7-7.28-31.51-11.33-46.79C738.69,445.15,748.36,484.66,747.74,488.41z"/>
	<path d="M281.14,484.77c-4.89-15.6-7.38-31.3-11.23-46.69C272.72,443.07,281.98,481.55,281.14,484.77z"/>
	<path d="M291.75,508.69c19.76-5.1,40.25-6.14,60.31-9.15C332.1,502.97,311.82,504.84,291.75,508.69z"/>
	<path d="M144.19,332.64c4.68,1.46,6.25,4.26,5.1,8.53c-0.82,3.02-2.5,4.16-5.51,3.54c2.39-1.35,3.85-3.12,3.54-6.34
		c-0.93,0.83-1.66-0.83-2.6,0.2c-0.2,0.93,1.77,0.83,0.62,2.18c-1.87,0.42-3.03-0.73-2.91-2.5c0.19-2.91,2.39-2.5,4.37-2.08
		C146.48,334.5,144.72,334.41,144.19,332.64z"/>
	<path d="M610.79,336.17c8.26,1.24,6.16,13.26-0.52,11.65c2.5-1.24,3.64-3.22,3.74-6.14c-0.93,0.11-1.77-0.42-2.5,0
		c-0.11,0.83,1.24,1.15,0.31,2.08c-1.87,0.52-2.81-0.42-2.81-2.19c0-3.12,2.6-2.18,4.47-2.18
		C612.97,337.84,611.2,337.63,610.79,336.17z"/>
	<path d="M290.71,218.98c-8.94,2.08-18.09,2.91-27.66,5.41C266.69,221.16,282.4,218.14,290.71,218.98z"/>
	<path d="M759.59,511.81l-0.11-0.11C759.7,511.68,759.91,511.64,759.59,511.81z"/>
	<path d="M759.76,511.69c3.09-2.52,36.15-6.05,43.61-6.64C802.6,505.2,759.83,511.68,759.76,511.69z"/>
	<path d="M751.28,446.92c0.42,1.04,0.52,2.29,0.93,3.85c-2.81,0.62-5.2,2.08-7.8,1.56c-0.42-1.77,2.01-1.15,1.66-2.6
		c-0.38-1.57-3.22-0.83-2.91-3.22c1.35,0.11,2.62,0.54,3.85-0.83C748.49,444.02,750.44,444.84,751.28,446.92z M748.36,446.61
		c-1.04,1.24-0.83,2.18-0.11,3.12C750.44,448.69,750.44,448.69,748.36,446.61z"/>
	<path d="M285.82,450.77c-2.5,0.62-4.79,1.97-7.49,1.46c-0.52-1.66,1.87-1.15,1.66-2.7c-0.52-1.35-2.81-0.83-3.12-2.91
		c1.24-0.52,2.39,0.52,3.74-0.73C284.27,442.04,286.47,448.68,285.82,450.77z M282.29,446.61c-1.04,1.24-0.83,2.18-0.11,3.12
		C284.27,448.69,284.27,448.69,282.29,446.61z"/>
	<path d="M244.33,325.77c-2.81-10.92-7.91-21.32-7.49-32.96C236.53,304.45,243.19,314.44,244.33,325.77z"/>
	<path d="M193.28,313.29c7.38-6.65,16.64-10.5,24.12-17.16C210.64,303.73,201.7,308.1,193.28,313.29z"/>
	<path d="M207.31,263.28c-5.6,2.73-11.34,12.37-18.4,14.03C201.3,268.75,203.87,259.49,207.31,263.28z"/>
	<path d="M275.64,510.88c-11.13,0.73-22.25,1.77-33.27,3.02C253.38,512.01,264.4,510.66,275.64,510.88z"/>
	<path d="M196.08,520.65c9.77-1.46,19.55-2.91,29.22-4.47C215.74,518.36,206.07,520.75,196.08,520.65z"/>
	<path d="M717.27,351.98c-2.39-7.8-5.1-15.6-6.03-23.92C713.94,335.86,716.02,343.66,717.27,351.98z"/>
	<path d="M662.67,524.18c9.26-1.24,18.51-3.22,27.86-4.16C681.4,522,672.14,523.98,662.67,524.18z"/>
	<path d="M163.64,299.05c6.34-5.41,12.48-10.61,18.72-15.91C176.95,290.11,167.38,298.01,163.64,299.05z"/>
	<path d="M772.07,506.19c-6.24-1.46-9.98-6.55-15.29-8.53C759.7,497.05,769.58,502.55,772.07,506.19z"/>
	<path d="M740.77,514.3c-10.5,0.62-21.01,1.87-31.51,2.81C719.66,515.55,730.16,513.99,740.77,514.3z"/>
	<path d="M100.31,405.64c7.18-0.11,13.63-1.46,20.79-1.35C117.57,406.05,103.74,406.99,100.31,405.64z"/>
	<path d="M587.49,407.82c-7.46,3.39-39.44,1.79-10.92,0.52C580.01,408.19,583.54,406.99,587.49,407.82z"/>
	<path d="M250.26,348.33c-1.77-6.87-3.43-13-5.1-19.24C247.76,332.53,250.78,344.59,250.26,348.33z"/>
	<path d="M245.99,236.65c-0.52-1.03-2.67,0.47,17.89-11.02c0.2,0.2,0.42,0.42,0.52,0.73C258.27,229.69,252.44,233.85,245.99,236.65z
		"/>
	<path d="M298.93,217.52c6.96-1.35,17.16-0.83,20.59,1.35C312.66,218.04,305.79,217.63,298.93,217.52z"/>
	<path d="M75.77,408.24c6.24,0.42,11.65-0.73,17.26-0.73c-4.26,1.97-8.94,1.87-13.52,2.18C78.36,409.69,77.12,410.11,75.77,408.24z"
		/>
	<path d="M282.71,490.91c0-0.31,0-0.73,0-1.04C307.16,485.61,296.58,490.02,282.71,490.91z"/>
	<path d="M763.54,491.84c-4.57,1.77-9.36,2.18-14.25,2.39c0-0.42-0.11-0.73-0.11-1.15C764.7,490.73,763.54,490.55,763.54,491.84z"/>
	<path d="M731.73,415.41c-2.7-5.92-3.64-12.27-4.37-18.62C729.23,402.93,730.79,409.06,731.73,415.41z"/>
	<path d="M139.93,272.33c12.37,8,10.69,5.97,9.77,7.8c-4.16-1.24-6.76-4.89-10.5-6.76C139.41,273.05,139.62,272.74,139.93,272.33z"
		/>
	<path d="M542.88,412.29c6.45-0.62,12.9-1.15,19.44-2.08C555.99,412.4,549.54,413.23,542.88,412.29z"/>
	<path d="M187.56,317.97c0.59,0.59-6.43,6.84-15.08,10.09C177.68,325.04,182.36,321.09,187.56,317.97z"/>
	<path d="M194.01,265.66c0-4.68,0-9.26,0-13.83C194.21,256.41,195.36,260.99,194.01,265.66z"/>
	<path d="M264.82,410.32c-1.63-3.11-5.23-15.29-3.43-17.26C262.22,399.19,264.2,404.6,264.82,410.32z"/>
	<path d="M231.96,285.43c-3.02,4.06-6.65,7.28-11.65,8.63C224.47,291.46,228.11,288.34,231.96,285.43z"/>
	<path d="M754.92,497.77c-3.33,1.15-6.65,1.66-10.09,1.04C748.05,497.25,751.48,496.94,754.92,497.77z"/>
	<path d="M147.11,401.79c4.16-0.2,7.8-0.42,11.44-0.62C154.28,403.45,150.02,403.56,147.11,401.79z"/>
	<path d="M653.94,321.82c-1.68,2.23-9.34,7.83-15.49,9.57C638.55,331.32,653.17,321.92,653.94,321.82z"/>
	<path d="M654.36,537.08c1.15-3.33,1.46-6.96,3.95-9.77C657.17,530.74,656.75,534.27,654.36,537.08z"/>
	<path d="M229.57,226.67c2.18,3.33,3.02,7.07,3.02,11.02C231.54,234.05,230.61,230.42,229.57,226.67z"/>
	<path d="M613.91,405.64c3.74-0.42,7.38-1.35,11.13-0.73C621.4,406.36,617.65,406.47,613.91,405.64z"/>
	<path d="M192.34,523.98c-1.66,3.43-1.87,6.96-4.26,9.98C188.7,528.86,190.16,525.53,192.34,523.98z"/>
	<path d="M147.11,229.06c-1.87-2.29-2.7-5.1-3.02-8.11C145.85,223.35,146.79,226.15,147.11,229.06z"/>
	<path d="M243.29,238.53c-2.29,2.39-4.68,4.68-8.22,5.41C243.8,237.31,242.81,237.56,243.29,238.53z"/>
	<path d="M224.37,252.15c2.6-2.18,5.2-4.37,7.91-6.65C230.5,248.72,227.9,251.01,224.37,252.15z"/>
	<path d="M162.08,198.49c-1.77,1.46-3.95,1.24-6.45,1.97C158.44,197.35,159.79,196.93,162.08,198.49z"/>
	<path d="M685.45,359.36c-0.43,3.85-3.51,2.07,0.11-5.83C685.76,355.51,685.66,357.49,685.45,359.36z"/>
	<path d="M296.23,210.66c-0.31,0-0.52,0-0.73,0.11C293.74,204.3,295.01,190.62,296.23,210.66z"/>
	<path d="M212.72,259.54c-0.61-0.61,6.46-5.07,9.05-5.83C218.86,255.89,216.26,258.5,212.72,259.54z"/>
	<path d="M379.52,494.96c-2.81,0.31-5.51,1.35-8.42,0.93C374.11,494.75,377.13,494.44,379.52,494.96z"/>
	<path d="M293,249.13c-3.87,2.42-12.76,1.08-3.54,0C290.6,249,291.86,249.13,293,249.13z"/>
	<path d="M837.28,499.12c2.91-0.52,5.72-1.56,9.26-1.15C843.31,499.22,840.29,499.12,837.28,499.12z"/>
	<path d="M332.62,207.75c-1.15-1.97-1.97-4.16-1.97-6.55C331.89,203.17,333.03,205.25,332.62,207.75z"/>
	<path d="M255.77,370.59c0.83,2.6,1.56,5.3,2.29,7.91C256.6,376,255.67,373.4,255.77,370.59z"/>
	<path d="M721.74,373.29c1.35,2.39,1.97,4.89,2.08,7.49C722.58,378.5,722.16,375.9,721.74,373.29z"/>
	<path d="M655.91,523.98c-2.39-0.73-4.99-1.24-6.87-3.22C651.45,521.58,654.15,521.69,655.91,523.98z"/>
	<path d="M189.53,520.85c-2.29-0.62-4.57-1.15-6.34-3.02C185.48,518.46,188.07,518.36,189.53,520.85z"/>
	<path d="M258.2,269.76c-1.51,3.02-20.16,11.62-21.97,12.55c11.73-8.05,14.17-6.68,27.24-17.57c-1.04,2.5-1.97,5.1-5.2,5.1
		C258.25,269.81,258.21,269.77,258.2,269.76z"/>
	<path d="M139.82,287.71c2.29-0.52,4.57-1.24,6.96-0.62C144.61,288.34,142.22,288.44,139.82,287.71z"/>
	<path d="M165.4,241.54c-2.5-0.42-3.43,1.77-5.83,2.29C162.91,239.88,163.54,239.67,165.4,241.54z"/>
	<path d="M213.65,236.03c-0.11,2.7,1.24,5.3,0.93,8.63C213.65,241.54,213.24,238.84,213.65,236.03z"/>
	<path d="M538.62,415.93c-0.11,2.18-0.62,4.26-2.5,5.83C536.64,419.57,536.85,417.39,538.62,415.93z"/>
	<path d="M69.63,419.15c-0.31-2.6,1.15-4.57,2.39-6.65C71.92,415,71.2,417.28,69.63,419.15z"/>
	<path d="M216.88,357.7c0-2.6,0.31-4.47,2.29-6.14C218.96,353.96,218.96,355.82,216.88,357.7z"/>
	<path d="M70.25,408.34c-2.14-0.1-6.06-1.1-5.1-3.01C66.93,406.36,68.59,407.3,70.25,408.34z"/>
	<path d="M209.71,241.13c1.35,2.18,1.56,4.57,1.87,6.96C210.44,245.91,209.6,243.62,209.71,241.13z"/>
	<path d="M693.98,317.04c-0.83-1.24-2.18-2.39-0.52-4.16C695.02,314.23,694.39,315.68,693.98,317.04z"/>
	<path d="M531.34,408.55c2.08,1.15,3.74,1.97,5.92,3.22C533.52,411.36,533.21,411.15,531.34,408.55z"/>
	<path d="M212.61,259.63c-1.46,1.66-2.6,3.95-5.41,3.74C212.43,259.09,212.61,258.91,212.61,259.63z"/>
	<path d="M692.63,317.87c1.24,1.87,0.11,2.91-0.73,4.06C691.06,320.36,691.59,319.22,692.63,317.87z"/>
	<path d="M156.88,303.31c-0.62,1.87-1.66,3.33-3.43,3.95C153.16,306.84,152.69,307.5,156.88,303.31z"/>
	<path d="M313.9,197.14c1.56,1.87,1.56,3.74,1.66,5.51C314.63,201.09,314.32,199.43,313.9,197.14z"/>
	<path d="M317.96,215.44c-1.46-1.15-1.56-2.91-2.18-5.3C317.75,212.01,317.64,213.78,317.96,215.44z"/>
	<path d="M338.65,222.62c0.42-1.35,0.93-2.81,1.46-4.16C341.83,221.24,339.07,223.03,338.65,222.62z"/>
	<path d="M114.66,261.09c0.42-2.39,0.42-2.39,1.66-3.74C116.11,258.59,115.8,259.74,114.66,261.09z"/>
	<path d="M66.72,422.69c0.52-1.77,1.56-2.81,3.02-3.43C68.9,420.4,69.01,422.49,66.72,422.69z"/>
	<path d="M755.02,511.81c1.56,0,3.01,0,4.57,0C758.04,512.54,756.47,512.12,755.02,511.81z"/>
	<path d="M179.76,260.89c-0.11,1.24-0.2,2.18-0.42,3.85C179.03,262.96,178.72,261.92,179.76,260.89z"/>
	<path d="M604.73,403.87c0.01-0.04,0.01-0.07,0.03-0.11c1.04,1.04,1.04,1.04,0.11,2.5c-0.8-1.82,0.04-2.03-0.34-2.41
		C604.6,403.84,604.66,403.87,604.73,403.87z"/>
	<path d="M803.37,504.94l-0.11-0.11C803.65,504.88,803.63,504.82,803.37,504.94z"/>
	<path d="M813.28,503.6c-1.49,1.07-3.16,0.73-4.83,0.62C805.8,506.05,796.94,504.35,813.28,503.6z"/>
	<path d="M813.46,503.49l0.11,0.11C813.15,503.64,813.28,503.61,813.46,503.49z"/>
	<path d="M150.22,309.14c0.21-0.21,2.53-2.75,3.12-1.87C152.72,308.2,151.88,308.93,150.22,309.14z"/>
	<path d="M813.74,503.4c1.31-0.62,2.8-0.45,4.19-0.65C816.66,503.74,815.21,503.52,813.74,503.4z"/>
	<path d="M813.74,503.4c-0.05,0.03-0.11,0.05-0.18,0.08C813.44,503.36,813.37,503.36,813.74,503.4z"/>
	<path d="M687.32,340.44c0,0.59-0.82,0.88-1.04,0C686.76,339.48,687.32,339.95,687.32,340.44z"/>
	<path d="M533.32,425.91c0.52-1.35,0.73-2.39,2.5-2.81C535.29,424.46,535.09,425.5,533.32,425.91z"/>
	<path d="M265.47,413.73c-0.82-1.09-0.65-2.35-0.55-3.51C265.01,411.45,265.22,412.59,265.47,413.73z"/>
	<path d="M265.99,416.93c-0.32-0.92-0.43-1.86-0.43-2.87C265.23,412.99,266.15,414.6,265.99,416.93z"/>
	<path d="M144.19,313.4c0.34,0,0.64-1.15,2.7-1.46C141.16,318.33,131.33,323.2,144.19,313.4z"/>
	<path d="M187.66,317.97c0.42-0.73,0.83-1.35,2.08-1.15C187.94,318.63,187.9,318.22,187.66,317.97z"/>
	<path d="M819.81,502.76c-0.73,0-1.24,0-1.87,0C818.55,502.66,819.08,502.03,819.81,502.76z"/>
	<path d="M251.4,489.03c-0.05-0.29-0.06-0.2,0.11-0.11L251.4,489.03z"/>
	<path d="M189.74,255.06c0,0.99,0.09,1.6,0.1,2.19c1.14,1.66,1.66,3.33,1.14,6.02c-0.52-2.48-0.83-4.24-1.14-6c0,0.02,0,0.05,0,0.07
		C189.43,256.73,189.12,256.11,189.74,255.06z"/>
	<path d="M718.1,492.57c0.83,0.2,0.93,0.93,0.93,1.56C718.52,493.71,718.1,493.3,718.1,492.57z"/>
	<path d="M209.6,241.13c-0.42-0.62-0.73-1.15,0-2.39C209.6,239.77,209.6,240.5,209.6,241.13z"/>
	<path d="M690.24,324.32c-0.55-0.55,0.07-0.6,0.31-0.83C690.95,324.28,690.74,324.07,690.24,324.32z"/>
	<path d="M655.91,320.05c-0.11,0.52-0.42,0.83-1.35,0.83C654.98,320.27,655.29,319.74,655.91,320.05z"/>
	<path d="M266.49,418.53c-0.2-0.42-0.31-0.93-0.42-1.35C266.27,417.7,266.9,417.9,266.49,418.53z"/>
	<path d="M731.83,417.39c-0.42-0.62-0.11-1.35-0.11-1.97C731.73,416.04,732.46,416.66,731.83,417.39z"/>
	<path d="M265.96,417.28c0.04-0.47-0.02-0.44,0.11-0.11L265.96,417.28z"/>
	<path d="M94.9,407.09c-0.62,0.52-1.24,0.42-1.87,0.31C93.55,406.99,94.17,406.78,94.9,407.09z"/>
	<path d="M280.52,250.8c0.2,0.2,0.42,0.52,0.62,0.83c-0.19,0.16-11.46,10.19-14.25,10.19C266.95,261.64,277.98,252.89,280.52,250.8z
		"/>
	<path d="M334.38,220.33c0.52-0.2,0.83,0,0.62,0.62C334.49,220.95,334.29,220.75,334.38,220.33z"/>
	<path d="M328.04,218.67c0.62,0.2,1.15,0.2,0.93,0.83C328.57,219.49,328.26,219.49,328.04,218.67z"/>
	<path d="M693.98,278.46c3.83,3.35,6.36,8.39,11.54,10.29c4.07,1.5,3.13,7.28-14.25-10.29c-1.73-1.74-3.04-7.9-0.11-10.5
		C692.87,270.28,690.68,275.58,693.98,278.46z"/>
	<path d="M694.39,156.28c5.41,2.29,8,10.4,4.79,15.08C699.91,165.32,695.65,161.27,694.39,156.28z"/>
	<path d="M673.08,157.1c-1.46,5.83,0.31,11.65,0.62,18.09C669.85,171.04,669.74,161.27,673.08,157.1z"/>
	<path d="M705,157c-0.11-4.16,4.16-7.91,8.63-7.8C710.3,151.38,708.12,154.3,705,157z"/>
	<path d="M689.72,133.37c0.17-0.17,1.17-0.26,1.96,0.34c-4.16,2.91-7.69,6.34-10.61,10.5C679.8,140.37,688.85,134.25,689.72,133.37z
		"/>
	<path d="M697,189.66c0.42-5.2,3.12-9.36,1.97-14.03C700.95,177.8,699.8,185.8,697,189.66z"/>
	<path d="M691.48,153.67c-2.6-1.66-5.41-0.31-8.42-0.73C687.63,149.61,690.24,149.83,691.48,153.67z"/>
	<path d="M708.12,306.33c-4.26-3.43-5.92-6.96-4.57-9.57C705.11,299.88,706.87,302.69,708.12,306.33z"/>
	<path d="M695.65,228.44c0.52,2.81-0.52,4.99-2.7,7.28C692.63,232.5,693.04,230.11,695.65,228.44z"/>
	<path d="M704.48,160.02c3.22,0.31,6.14,1.24,8.22,4.06C709.88,162.82,706.35,162.93,704.48,160.02z"/>
	<path d="M699.59,294.58c-2.5-2.7-4.26-5.61-3.33-9.36C697,288.55,698.55,291.46,699.59,294.58z"/>
	<path d="M758.45,353.65c2.29,0.93,4.68,1.77,6.87,4.16C761.26,358.11,759.8,355.93,758.45,353.65z"/>
	<path d="M705.42,140.47c-1.56,1.77-3.12,3.22-4.26,5.92C700.22,142.23,701.68,140.47,705.42,140.47z"/>
	<path d="M696.58,226.98c0.11-2.6,0.62-4.99,3.54-5.83C700.01,223.86,697.51,224.9,696.58,226.98z"/>
	<path d="M714.05,257.24c0.83,2.5,1.56,4.68,1.24,7.8C713.42,261.72,713.11,259.85,714.05,257.24z"/>
	<path d="M786.74,383.8c-3.33,1.04-4.06,0.31-5.83-5.61C782.68,380.27,783.51,383.28,786.74,383.8z"/>
	<path d="M693.46,237.18c1.04,2.81-0.52,4.79-1.35,6.96C692.63,241.96,690.75,239.26,693.46,237.18z"/>
	<path d="M750.03,348.44c-2.18-0.42-3.01-1.56-4.06-3.12C748.16,345.43,749.3,346.36,750.03,348.44z"/>
	<path d="M710.52,250.17c1.66,1.35,2.18,2.7,1.97,4.47C711.03,253.5,710.52,252.15,710.52,250.17z"/>
	<path d="M674.84,151.8c0.42-2.29,1.04-3.64,2.81-4.37C677.34,149.1,676.82,150.56,674.84,151.8z"/>
	<path d="M718.31,318.08c-1.33-0.97-4.39-3.72-3.22-4.89C719.49,318.33,719,317.38,718.31,318.08z"/>
	<path d="M756.16,351.77c-2.18,0.31-3.12-0.62-4.06-2.08C753.87,349.48,755.23,349.69,756.16,351.77z"/>
	<path d="M789.34,375.06c-0.62,1.15-0.2,2.6-1.46,4.26C787.25,376.94,787.67,375.68,789.34,375.06z"/>
	<path d="M782.37,372.25c2.81,1.46,2.81,1.46,3.22,3.33C784.35,374.64,783.09,374.24,782.37,372.25z"/>
	<path d="M696.58,192.67c0.83,1.24,0.83,2.29-0.52,4.16C695.74,194.85,695.33,193.71,696.58,192.67z"/>
	<path d="M707.39,210.25c-0.31,1.97-1.87,2.08-3.12,2.7C704.79,211.6,705.42,210.34,707.39,210.25z"/>
	<path d="M711.03,293.96c1.56,0.42,2.39,1.04,3.33,2.81C712.69,296.03,711.55,295.62,711.03,293.96z"/>
	<path d="M695.74,266.92c-0.93-0.11-2.08,0.42-3.22-0.52C693.88,265.46,694.81,265.88,695.74,266.92z"/>
	<path d="M711.97,208.27c-0.93,0.52-1.15,2.29-2.91,1.46C709.26,207.64,710.72,208.06,711.97,208.27z"/>
	<path d="M777.38,366.85c0,0,0.31-0.2,0.62-0.52c0.52,0.52,1.45,0.52,1.77,2.09C778.42,368.3,777.69,367.88,777.38,366.85z"/>
	<path d="M720.6,327.65c-12.06-10.56-11.76-9.89-12.68-11.96c0.69,0.43,9.23,7.36,13.21,11.33
		C720.91,327.23,720.81,327.43,720.6,327.65z"/>
	<path d="M685.97,207.02c-1.04,0.52-1.46,0-1.87-0.42C681.66,204.17,684.59,204.48,685.97,207.02z"/>
	<path d="M717.27,298.95c0.93-0.2,1.56,0,1.66,1.24C718.41,299.68,717.37,300.08,717.27,298.95z"/>
	<path d="M709.06,244.98c0.83,0.73,1.46,1.35,0.73,2.39C708.64,246.84,708.43,246.02,709.06,244.98z"/>
	<path d="M726.21,325.57c-0.52-0.93-1.46-0.93-1.04-2.29C725.7,323.9,726.63,324.01,726.21,325.57z"/>
	<path d="M727.98,335.65c-1.15-0.11-1.66-0.42-1.35-1.56C727.46,334.19,727.98,334.5,727.98,335.65z"/>
	<path d="M782.16,371.42c-1.24,0-1.56-0.73-1.77-1.66C781.85,369.45,782.06,370.28,782.16,371.42z"/>
	<path d="M758.35,326.61c-0.93,0-1.15-0.31-1.35-0.73C757.51,325.57,757.73,326.08,758.35,326.61z"/>
	<path d="M778.83,376.41c-0.93,0.31-1.24-0.2-1.46-1.15C778.52,375.27,778.83,375.68,778.83,376.41z"/>
	<path d="M816.69,159.6c7.69,1.77,14.66,10.82,11.75,15.49C823.2,160.9,816.16,162.76,816.69,159.6z"/>
	<path d="M757,222.41c-9.05,2.08-17.99,2.6-27.35,5.3C733.08,224.28,750.75,221.06,757,222.41z"/>
	<path d="M843.41,265.77c-0.83,6.03-3.74,10.82-5.92,15.8C836.96,275.96,839.98,267.54,843.41,265.77z"/>
	<path d="M786.01,221.89c-6.76-0.73-13.52-0.73-20.17-1.15C772.6,219.91,779.35,219.71,786.01,221.89z"/>
	<path d="M822.3,231.24c-4.06-5.2-6.45-11.13-8.84-16.95C814.63,213.52,813.5,212.3,822.3,231.24z"/>
	<path d="M806.8,160.64c3.22-0.11,7.38,4.37,8.22,7.8C812.74,166.36,809.93,163.66,806.8,160.64z"/>
	<path d="M747.64,254.96c-4.16,3.85-8.53,7.49-13.94,9.67C748.72,252.76,746.87,253.81,747.64,254.96z"/>
	<path d="M837.59,293.64c-1.87-3.22-1.77-7.49,0.73-9.98C838.21,286.98,839.14,290.31,837.59,293.64z"/>
	<path d="M831.87,283.24c-0.93-1.24-1.56-2.7-3.02-3.54C837.01,279.38,835.8,287.6,831.87,283.24z"/>
	<path d="M762.3,213.36c-1.46-3.85-1.66-7.18-0.62-10.4C762.72,206.6,762.19,209.93,762.3,213.36z"/>
	<path d="M837.06,263.17c1.15,3.01,1.35,5.61,0.83,8.32C836.86,268.89,836.55,265.15,837.06,263.17z"/>
	<path d="M811.79,207.43c2.18,1.04,4.79-0.2,7.18,1.97C813.25,209.83,813.25,209.83,811.79,207.43z"/>
	<path d="M797.14,204.62c1.24,1.87,2.08,3.95,1.97,6.45C798.18,208.99,796.92,207.02,797.14,204.62z"/>
	<path d="M842.68,258.08c0.73,2.29,0.83,4.06-0.2,5.83C841.22,261.92,841.02,260.16,842.68,258.08z"/>
	<path d="M779.45,199.12c1.97,1.97,2.6,4.37,2.39,6.96C781.12,203.69,780.39,201.4,779.45,199.12z"/>
	<path d="M864.31,310.07c-0.2-3.54-0.62-6.24,0.11-9.57C865.25,303.52,865.35,306.95,864.31,310.07z"/>
	<path d="M752.83,252.87c2.39-0.2,4.57-0.42,6.87-0.62C756.37,254.02,754.4,254.13,752.83,252.87z"/>
	<path d="M864.94,285.74c0.2,1.77,1.35,3.22,0.42,5.41C863.79,287.92,863.79,287.82,864.94,285.74z"/>
	<path d="M837.59,300.92c-0.42-1.66-1.87-3.33-0.2-5.61C838.52,297.49,838,299.26,837.59,300.92z"/>
	<path d="M784.35,218.98c-1.04-1.35-1.56-2.91-1.87-5.1C784.35,215.55,784.24,217.32,784.35,218.98z"/>
	<path d="M726.63,272.42c0.73-1.87,1.87-3.33,3.64-4.16C729.65,270.24,728.3,271.49,726.63,272.42z"/>
	<path d="M812.32,157.94c1.56,0.2,3.12,0.42,4.26,1.77C814.81,160.02,813.25,159.81,812.32,157.94z"/>
	<path d="M807.02,188.2c-0.93-0.73-1.66-1.46-1.87-3.22C806.39,186.11,807.33,186.74,807.02,188.2z"/>
	<path d="M821.36,186.64c0.73,0.93,1.15,1.66,0.83,3.01C821.36,188.61,820.85,187.78,821.36,186.64z"/>
	<path d="M824.38,201.82c-0.62-0.52-1.15-0.93-0.73-2.08C824.9,200.26,824.9,200.88,824.38,201.82z"/>
	<path d="M829.89,176.65c0.62,0.42,1.04,0.93,0.2,1.87C829.58,178,828.96,177.59,829.89,176.65z"/>
	<path d="M830.93,183.52c0.62,0.2,1.15,0.52,0.52,1.24C830.52,184.66,830.52,184.14,830.93,183.52z"/>
	<path d="M593.32,277.11c2.55-7.26,6.14-13.83,11.44-19.13c0.11-2.18-1.24-3.95-0.83-6.14c3.22,4.52-1.33,8.29,8-1.04
		c-0.83,3.22-3.64,4.89-5.41,7.38c2.39,5.61,5.72,10.61,8.73,15.8c-4.99-3.74-6.87-9.46-9.88-14.76
		c-10.6,9.19-4.72,13.1-19.76,28.49C585.78,284.12,591.68,281.77,593.32,277.11z"/>
	<path d="M614.84,247.47c0.83-0.93,1.56,0.11,2.7-0.62c1.04-4.26,1.95-9.23,7.38-11.13c0.34-0.11,1.56-1.81,4.26-2.7
		c-1.67,2.79-8.29,5.29-8.84,8.73c-2.05,12.82-6.6,2.32,2.18,29.95C617.03,264.42,614.33,256.31,614.84,247.47z"/>
	<path d="M639.8,254.54c4.06-0.32,7.69-2.18,12.27-2.6c-4.57,6.45-18.62,8.11-24.23,3.22C631.79,253.82,635.85,254.85,639.8,254.54z
		"/>
	<path d="M616.3,282.93c-3.01-0.42-9.05-4.68-10.19-7.07C611.41,278.25,615.46,281.06,616.3,282.93z"/>
	<path d="M610.58,224.39c2.18,3.12,3.12,5.92,2.91,8.63C612.03,230.11,610.79,227.51,610.58,224.39z"/>
	<path d="M628.57,201.61c-1.66,1.87-4.06,1.04-5.92,1.77C625.24,200.57,626.08,200.36,628.57,201.61z"/>
	<path d="M613.6,290.62c-2.39,1.35-4.79,1.15-7.38,0.83C608.92,290,610.47,289.79,613.6,290.62z"/>
	<path d="M631.69,244.45c-2.18,0.42-3.54,2.08-6.14,3.01C629.71,243.1,629.92,243,631.69,244.45z"/>
	<path d="M581.35,264c-0.31-1.56,0.2-2.5,1.24-3.85C582.81,261.92,582.3,262.76,581.35,264z"/>
	<path d="M780.6,137.35c-2.51-1.11-6.14,0.11-7.91-3.43c2.7-1.97,5.1,1.24,7.59-0.31c-3.85-2.39-9.05-1.24-11.96-5.41
		c7.18,1.46,14.66,1.97,20.39,7.91C785.7,136.2,783.5,138.63,780.6,137.35z"/>
	<path d="M791,164.48c-3.96,4.95-15.66,1.34-18.82-3.22C778.41,162.62,784.24,166.05,791,164.48z"/>
	<path d="M794.12,159.7c-6.25,3.83-7.48-1.49-10.92-3.02c-2.39-1.24-2.39-3.01-0.73-5.41c1.97,4.37,4.47,7.49,9.26,7.59
		c0.83-2.08,0.83-3.95,2.39-5.2C794.85,154.61,794.85,154.61,794.12,159.7z"/>
	<path d="M788.29,169.79c-5,4.36-12.19,0.8-11.23-3.01C780.71,167.71,784.35,168.75,788.29,169.79z"/>
	<path d="M552.97,299.26c-15.42,12.95-15.2,13.41-16.53,12.27C537.16,308.93,549.23,299.57,552.97,299.26z"/>
	<path d="M557.55,322.03c0.42-2.5,0.83-4.57,1.24-7.59c1.97,5.1-3.95,15.29-9.26,16.95c1.46-1.77,2.68-3.35,4.06-4.89
		C554.92,325.02,555.05,322.55,557.55,322.03z"/>
	<path d="M575.12,323.28c-2.91,3.22-5.72,2.7-7.38-2.18C570.44,322.55,573.25,320.78,575.12,323.28z"/>
	<path d="M535.81,312.56c-0.52,1.77-1.56,2.18-3.02,2.29C533.32,313.6,533.83,312.25,535.81,312.56z"/>
	<path d="M531.44,316c-0.52,1.77-1.66,2.5-2.81,3.02C528.74,317.45,529.47,316.52,531.44,316z"/>
	<path d="M547.46,332.22c-0.62,1.46-1.46,1.77-2.91,1.77C545.17,332.43,545.9,332.01,547.46,332.22z"/>
	<path d="M516.78,340.95c0,1.46-0.62,2.08-1.77,2.5C515.01,342.1,515.43,341.26,516.78,340.95z"/>
	<path d="M526.03,322.13c-0.74,1.73-2.59,1.71-1.46,0C525,321.71,525.52,321.4,526.03,322.13z"/>
	<path d="M517.41,329.93c0.31,0.73-0.11,1.15-1.15,1.35C516.47,330.45,516.57,329.93,517.41,329.93z"/>
	<path d="M511.89,346.57c1.46-1.46,1.51,0.31,0.2,0.83C511.58,347.2,511.69,346.89,511.89,346.57z"/>
	<path d="M648.44,286.78c-4.57,6.24-10.61,10.71-16.53,15.39C631.25,301.08,628.84,303.82,648.44,286.78z"/>
	<path d="M660.81,269.2c-0.31-4.68-0.31-9.36-0.52-14.03C661.12,259.85,661.32,264.53,660.81,269.2z"/>
	<path d="M612.66,315.06c-2.08,3.12-4.79,5.51-7.91,7.28C604.06,321.64,603.29,322.35,612.66,315.06z"/>
	<path d="M657.68,267.02c-0.73-3.22-1.56-6.24-2.29-9.26C657.17,261.09,657.9,264.11,657.68,267.02z"/>
	<path d="M646.14,264.42c0,1.77,0,2.81,0,3.85C645.83,267.12,645.62,266.08,646.14,264.42z"/>
	<path d="M617.13,312.25c-0.11,0.83-0.52,1.04-1.46,0.73C615.99,312.36,616.5,312.15,617.13,312.25z"/>
	<path d="M617.03,312.15c0.05,0.01,0.11,0.01,0.16,0.01C617.11,312.27,617.17,312.29,617.03,312.15z"/>
	<path d="M623.26,306.64c-1.19,3.24-3.61,4.32-4,4.06c0.08,0.16-0.63,1.64-2.08,1.46C618.14,310.22,616.28,313.63,623.26,306.64z"/>
	<path d="M885.42,356.97c-33.01,7.56-70.24-35.44-36.6-43.26c2.6-0.61,5.41-1.87,8,0.2c-1.66,0.73-3.64,0.2-5.3,0.31
		c-30.24,4.2-7.19,42.22,27.97,42.22c7.68,0,13.23-3.04,16.53-9.98C895.09,351.77,890.93,355.71,885.42,356.97z"/>
	<path d="M856.82,313.82c2.81-0.83,5.3,0.31,7.91,0.93C862.02,315.48,859.42,314.75,856.82,313.82z"/>
	<path d="M877.73,319.95c2.6,0.31,2.6,0.31,4.06,2.29C880.22,321.71,878.77,321.3,877.73,319.95z"/>
	<path d="M871.17,336.9c0-0.73,0.83-0.62,1.04-1.15c-13.31,3.18-19.7-10.91-9.67-13.52c3.54-0.92,10.64,2.06,12.59,5.3
		C878.24,332.74,873.14,337.81,871.17,336.9z M859.63,327.12c-2.38,4.77,10.79,10.81,12.59,5.3
		C873.87,327.3,862.09,322.2,859.63,327.12z M873.78,329.1c0.29-1.58-0.98-1.82-2.7-3.54c0.11,1.04,0.52,1.46,1.35,1.24
		C872.72,327.01,871.84,327.46,873.78,329.1c0,0.93,0.2,1.87,0.93,2.7C875.33,330.45,874.91,329.62,873.78,329.1z"/>
	<path d="M896.76,342.3c0.62,1.04,0.2,1.66-0.42,3.01C895.82,343.76,895.61,342.93,896.76,342.3z"/>
	<path d="M867.33,315.48c1.15-0.62,1.77,0,2.39,0.73C868.68,316.83,867.95,316.31,867.33,315.48z"/>
	<path d="M775.71,338.87c-10.88-19.32,20.21-24.62,17.99-20.17c-0.93,0.11-1.97,0.11-2.91,0.2c-14.33,1.43-20.1,12.04-11.33,23.4
		c16.53,21.44,42.6,22.17,50.64,14.35c2.57-2.5,2.39-2.91,3.33-2.81C825.17,369.18,789.77,363.83,775.71,338.87z"/>
	<path d="M811.48,340.02c0.52-2,0.48-1.91,0.7-2.35c-0.02-0.02-0.04-0.02-0.07-0.04c-0.65,2.19-3.89,2.39-0.66,2.39
		c0.76,0.76-2.66,3.03-2.66,0.31c-10.98,2.41-18.72-10.85-8.32-13.63C808.7,324.52,819.66,335.77,811.48,340.02z M798.8,335.55
		c6.3,6.3,14.83,2.78,10.82-2.08C804.69,326.74,793.22,329.97,798.8,335.55z M811.49,332.64c-0.11,0.11,0.34-0.77-1.46-1.87
		c-0.16,1.81,1.58,1.75,1.35,1.97c0.21,0.17,0.97,3.16,1.02,4.42c0.02-0.04,0.03-0.07,0.05-0.11
		C813.87,333.74,811.6,333.33,811.49,332.64z"/>
	<path d="M795.99,317.97c2.18,0.42,4.57,0,7.38,1.46C800.26,319.64,797.96,319.54,795.99,317.97z"/>
	<path d="M815.96,324.11c1.46,0.52,3.12,0.62,4.16,2.7C818.14,326.08,816.79,325.67,815.96,324.11z"/>
	<path d="M811.48,340.02l0.11,0.11C811.54,340.08,811.48,340.09,811.48,340.02z"/>
	<path d="M806.6,320.78c-2.65-1.06,0.04-1.89,1.24-0.2C807.43,321.09,807.02,320.99,806.6,320.78z"/>
	<path d="M812.74,322.13c-1.04,0.11-1.77-0.31-2.6-1.04C811.38,320.78,811.9,321.4,812.74,322.13z"/>
	<path d="M834.05,350.21c0.42-1.04-0.52-2.18,0.62-3.22C835.19,348.33,834.99,349.28,834.05,350.21z"/>
	<path d="M833.64,352.19c-0.52-1.04-0.11-1.56,0.52-1.97C834.26,350.94,834.46,351.67,833.64,352.19z"/>
	<path d="M753.15,170.73c-2.7,0.62-4.26-1.24-6.03-2.5C749.3,168.65,751.69,168.65,753.15,170.73z"/>
	<path d="M749.61,188.4c1.77,0.83,4.47-0.52,5.51,2.39C753.04,190.59,751.06,190.17,749.61,188.4z"/>
	<path d="M756.78,177.27c-0.52,1.77-0.62,3.22-1.97,4.57C753.87,178.42,753.87,178.42,756.78,177.27z"/>
	<path d="M510.23,402.1c-5.1,2.39-14.66,1.66-16.64-1.04C496.61,398.36,506.28,398.88,510.23,402.1z"/>
	<path d="M511.27,411.67c-4.47,2.91-11.75,2.18-13.21-1.35C502.74,409.28,507.11,409.79,511.27,411.67z"/>
	<path d="M230.3,136.41c1.67,0.4,3.33,1.35,3.43,4.06c-5.97-6.44-14.61,0.97-20.28-3.22c3.12-0.42,6.34-0.93,9.46-1.35
		c-3.95-2.18-7.69-4.79-12.48-4.37C213.16,128.12,222.59,134.56,230.3,136.41z"/>
	<path d="M207.73,116.03c2.6-1.04,5.51,0.62,7.91-1.66c3.9,3.67,10.81,4.56,9.36,9.88C218.96,121.54,213.97,117.49,207.73,116.03z"
		/>
	<path d="M238.83,132.56c0.73,1.77,1.87,4.16-0.93,6.87c-1.97-3.95-3.74-7.38-4.79-11.54c2.5-1.24,1.97-3.85,2.5-5.92
		C238.14,122.81,234.97,123.24,238.83,132.56z"/>
	<path d="M118.3,134.54c-0.84,0.93-3.02,1.04-4.57,1.04c5.61-4.16,10.92-9.67,18.72-12.37C132.44,128.12,122.92,129.43,118.3,134.54
		z"/>
	<path d="M240.38,150.45c0.67,8.04-10.35,8.75-18.4,8.42C228.32,156.37,236.33,157.83,240.38,150.45z"/>
	<path d="M129.53,143.69c-2.29-2.7-5.1-4.68-8.22-6.14C125.06,136.82,127.45,138.49,129.53,143.69z"/>
	<path d="M230.3,180.92c-0.11,0.2-0.31,0.42-0.42,0.62c-2.81-1.46-5.61-2.91-7.8-5.41C222.89,175.32,221.29,174.44,230.3,180.92z"/>
	<path d="M180.49,118.42c-2.08,2.08-3.95,3.22-6.45,3.22C175.7,120.09,177.16,118.21,180.49,118.42z"/>
	<path d="M237.57,123.1c1.04-2.18,1.87-3.64,3.74-5.51C240.59,120.29,240.38,122.17,237.57,123.1z"/>
	<path d="M170.5,145.98c1.97,0.73,4.26-0.2,6.65,1.46C174.24,147.75,172.27,147.22,170.5,145.98z"/>
	<path d="M123.4,131.83c1.97,0,3.33,0.42,4.89,2.08C125.89,134.23,124.75,133.39,123.4,131.83z"/>
	<path d="M148.35,139.84c2.39,0.31,4.06,0.62,5.83,0.93C152.3,141.3,150.44,141.72,148.35,139.84z"/>
	<path d="M197.02,116.03c-1.15,0.73-2.29,0.42-3.33,0.42C194.63,115.19,195.67,114.88,197.02,116.03z"/>
	<path d="M101.04,111.77c-1.24,0.73-2.18,1.15-3.64-0.62C98.86,111.56,99.89,110.1,101.04,111.77z"/>
	<path d="M216.98,158.25c-0.73,0.83-1.56,0.83-2.7,0C215.32,157.83,215.95,156.9,216.98,158.25z"/>
	<path d="M204.19,115.92c-1.15,0.83-1.87,0.2-3.12-0.73C202.63,114.68,203.57,114.78,204.19,115.92z"/>
	<path d="M210.02,137.86c-0.62,0.73-1.24,0.62-2.6-0.2C208.77,137.24,209.39,136.51,210.02,137.86z"/>
	<path d="M207.42,130.06c-0.83,0.2-1.24-0.2-2.18-1.24C206.69,128.93,207.42,128.93,207.42,130.06z"/>
	<path d="M171.44,122.58c0.2-0.52,0.42-1.04,1.56-0.73C172.47,122.58,172.27,123.21,171.44,122.58z"/>
	<path d="M138.15,133.82L138.15,133.82C138.19,133.84,138.19,133.84,138.15,133.82z"/>
	<path d="M138.15,133.82c-0.03,0.2-0.72,0.38-0.41-0.32C137.89,133.65,138.09,133.79,138.15,133.82z"/>
	<path d="M136.29,146.91c-1.15,0.42-1.56,0-1.56-0.93C135.35,145.87,135.77,146.29,136.29,146.91z"/>
	<path d="M177.88,220.02c1.04,4.26,0.93,8.53,1.35,12.79C176.74,228.75,177.99,224.28,177.88,220.02z"/>
	<path d="M221.45,206.29c-2.08-1.15-2.08-1.15-2.7-2.81C219.9,204.21,220.83,204.93,221.45,206.29z"/>
	<path d="M206.07,222.72c-1.46-0.2-2.08-1.24-2.7-2.29C204.4,221.06,205.54,221.47,206.07,222.72z"/>
	<path d="M209.08,224.8c1.87,0.73,3.43,1.97,4.79,3.54c-1.97-0.73-3.74-1.66-5.1-3.22c0.15-0.15-1.95-0.57-2.7-2.39
		C207.42,222.93,208.25,223.86,209.08,224.8z"/>
	<path d="M375.47,99.7c-4.79,1.87-9.46,3.95-14.56,4.47C365.38,101.68,370.26,100.12,375.47,99.7z"/>
	<path d="M360.59,130.38c2.29,4.37,0.83,8.63,0.11,13C358.82,139.01,361.84,134.65,360.59,130.38z"/>
	<path d="M406.35,92.01c-5.01,1.76-9.42,1.75-11.86,0.93C398.3,91.6,402.41,92.83,406.35,92.01z"/>
	<path d="M393.56,115.51c-4.89,3.02-8.32,2.91-10.92-0.11C385.97,117.07,389.39,116.03,393.56,115.51z"/>
	<path d="M360.49,119.98c-1.46,2.29-1.46,2.29-4.68,3.33C356.32,120.6,358.93,121.02,360.49,119.98z"/>
	<path d="M397.1,116.23c1.35,0.31,2.6,0.62,3.95,0.93C399.48,118,397.92,118.73,397.1,116.23z"/>
	<path d="M422.78,95.02c-1.56,0.31-2.5-0.2-4.16-1.35C420.59,93.47,421.84,93.57,422.78,95.02z"/>
	<path d="M382.74,98.45c0.83-0.62,1.46-1.15,2.39-0.31C384.3,98.98,383.58,98.77,382.74,98.45z"/>
	<path d="M405.41,117.07c-0.83,0.93-1.46,0.93-2.39-0.2C403.95,116.34,404.68,116.23,405.41,117.07z"/>
	<path d="M413.12,92.21c0.26,0.2,0.52,0.43,0.82,0.74C409.35,92.94,411.06,90.65,413.12,92.21z"/>
	<path d="M355.29,139.22c-1.04,0.73-1.56,1.35-2.81,0.62C353.31,139.01,353.94,138.59,355.29,139.22z"/>
	<path d="M353.94,121.95c1.15-0.11,1.24,1.04,1.87,1.46C354.66,123.62,353.84,123.41,353.94,121.95z"/>
	<path d="M443.27,102.93c-0.83,0.73-1.24,0.62-1.46-0.2C442.22,102.31,442.64,102.31,443.27,102.93z"/>
	<path d="M381.6,114.47c0,0.93-0.2,1.35-1.24,0.93C380.35,114.57,380.66,114.06,381.6,114.47z"/>
	<path d="M318.17,134.75c-3.95-1.77-8.53-0.31-12.06-3.95c2.81-2.29,5.41,0.93,7.8-0.52c-3.85-2.29-9.15-1.24-12.06-5.41
		c7.28,1.24,14.45,2.29,20.28,7.49C321.18,134.02,318.17,131.63,318.17,134.75z"/>
	<path d="M327.73,156.28c-3.22,1.97-6.12,2.07-8.53-1.04c-2.33-3.02-6.41-1.7-3.22-6.76c1.77,0.42,0.93,1.87,1.15,3.12
		c3.02,0.42,4.06,5.1,8.22,3.64c0.73-1.77,1.35-3.33,1.87-4.89C330.75,151.13,327.73,152.36,327.73,156.28z"/>
	<path d="M324.72,161.47c-6.34,4.06-12.09,0.89-17.89-1.35c-1.05-0.4-1.56-1.15-0.52-2.7C312.13,159.81,318.06,162.51,324.72,161.47
		z"/>
	<path d="M311.72,163.55c3.13,1.34,6.45,1.66,9.77,2.91c-3.22,3.43-7.49,2.81-11.33-1.35C310.26,164.07,310.99,163.24,311.72,163.55
		z"/>
	<path d="M472.59,71.94c-0.31,1.77-0.92,3.44-1.24,5.2c-7.01,38.09,50.57,57.96,53.77,14.76c1.04,1.35,0.94,2.91,0.62,4.37
		c-3.79,17.34-11.48,22.05-22.46,22.05C474.6,118.32,462.46,83.63,472.59,71.94z"/>
	<path d="M494.3,78.88c0.07-0.02,0.12-0.03,0.19-0.04C494.23,79,494.14,79.1,494.3,78.88z"/>
	<path d="M505.97,92.42c-8.05,5.17-16.4-4.44-11.78-13.36c-0.25,0.05-1.37,0.25-2.68,4.62c-2.35-11.75,17.96-11.72,19.03,2.81
		C510.8,90.04,508.25,90.96,505.97,92.42z M494.11,78.91c0.05,0.05,0.08,0.08,0.11,0.11c1.28-0.58,1.72-0.46,3.64-2.18
		C495.04,76.65,494.51,78.91,494.11,78.91z M497.86,76.72c0.93,0,1.87,0,3.64,0C499.72,76,498.79,75.89,497.86,76.72z M499.83,79.11
		c-7.28-0.11-5.88,12.63,1.97,12.48C509.22,91.45,507.21,79.23,499.83,79.11z M505.04,78.91c0.62,0.73,1.24,1.35,2.29,2.6
		C507.01,79.74,506.17,79.11,505.04,78.91z M508.36,82.76c-0.11,1.35-0.11,2.08,0.83,2.39C509.61,84.21,508.88,83.79,508.36,82.76z"
		/>
	<path d="M524.58,86.6c0.73,0.62,0.93,1.15,0.83,2.18C524.17,88.26,524.37,87.53,524.58,86.6z"/>
	<path d="M82.64,328.06c3.85-2.81,5.1-7.18,8.63-9.77c0.62-1.97-0.11-4.26,1.35-6.14c1.24,3.43,0.06,6.2-2.29,9.05
		C85.24,327.36,85.54,327.65,82.64,328.06z"/>
	<path d="M85.75,296.14c-3.12,2.91-5.92,6.34-10.4,7.18C78.47,300.4,81.07,296.76,85.75,296.14z"/>
	<path d="M101.46,317.97c2.5,1.24,5.2-0.31,7.28,1.97C107.18,322.92,101.23,322.84,101.46,317.97z"/>
	<path d="M69.43,308.1c1.24-2.81,3.43-4.06,6.03-4.79C74.84,306.53,72.96,308.2,69.43,308.1z"/>
	<path d="M66.1,311.42c0.62-1.15,1.35-2.08,2.7-2.18C68.28,311.11,68.28,311.11,66.1,311.42z"/>
	<path d="M61.83,316c0.31-1.87,1.15-2.7,2.81-2.81C64.12,314.33,63.49,315.37,61.83,316z"/>
	<path d="M80.97,329.31c-0.73,0.83-1.24,1.56-2.91,1.04C78.89,329.31,79.51,328.47,80.97,329.31z"/>
	<path d="M57.68,320.27c0.11-1.35,0.73-1.77,1.87-1.97C59.55,319.64,58.82,320.05,57.68,320.27z"/>
	<path d="M49.88,327.96c0-0.83,0.42-1.15,1.35-1.24C51.02,327.74,50.61,328.06,49.88,327.96z"/>
	<path d="M48.63,340.02c-0.2-1.15,0.31-1.87,2.08-2.39C50.08,338.87,49.77,339.71,48.63,340.02z"/>
	<path d="M45.51,343.24c0.93-1.15,1.15-1.87,2.18-1.97C47.59,342.52,47.07,342.83,45.51,343.24z"/>
	<path d="M53.41,324.42c-0.2-0.93,0.11-1.24,1.04-1.04C54.25,324.11,54.14,324.53,53.41,324.42z"/>
	<path d="M266.38,166.15c14.14,9.43,19.19,6.81,18.93,10.29C282.85,179.58,266.61,171.06,266.38,166.15z"/>
	<path d="M263.16,157.52c3.95,0.42,7.69,1.56,11.44,3.33C272.07,165.71,268.84,161.78,263.16,157.52z"/>
	<path d="M278.98,164.27c2.68,0.79,5.77,0.8,8.3,3.34C283.48,168.07,281.49,165.44,278.98,164.27z"/>
	<path d="M278.98,164.27c-0.39-0.11-0.78-0.25-1.16-0.41C278.22,163.96,278.61,164.1,278.98,164.27z"/>
	<path d="M282.6,184.56c2.39,0.93,4.68,0.52,6.76,2.6C286.04,187.47,284.68,187.05,282.6,184.56z"/>
	<path d="M290.4,174.47c-0.31,1.46-1.35,2.5-1.56,3.95C287.17,175.1,287.39,174.47,290.4,174.47z"/>
	<path d="M280.41,183.21c-2.08-0.62-2.08-0.62-3.22-1.87C279.38,181.33,279.38,181.33,280.41,183.21z"/>
	<path d="M263.68,128.71c0.2-1.24,0-2.08,1.56-2.29C265.03,127.36,265.03,127.99,263.68,128.71z"/>
	<path d="M266.27,166.15c-1.04,0.32-1.87,0.21-1.97-1.24C265.55,164.7,265.76,165.52,266.27,166.15z"/>
	<path d="M82.95,138.08c-27.19,12.84-68.21-41.6-38.79-48.45c14.26-3.33,29.07,9.27,17.16,3.22c-11.29-5.73-29.31-2.2-24.65,14.98
		c6.19,22.81,41.14,41.06,51.89,24.02C90.22,129.2,89.76,135.39,82.95,138.08z"/>
	<path d="M67.24,116.76c0.8-0.61,1.6-0.43,2.39-0.32c0.16-1.29,4.87-4.85,0.76-8.58c4.48,16.38-20.37,4.96-13.45-4.93
		c1.56-0.73,3.33-1.15,4.68-2.5c0.83,2.39,2.39,0.11,3.43,0.83c2.7,1.88,5.61,3.44,7.38,6.34
		C76.25,113.82,68.65,118.17,67.24,116.76z M62.14,103.86c-2.55-1.43-5.92,1.1-4.06,4.68c2.15,4.12,8.9,7.88,11.13,4.26
		C71.22,109.55,66.49,104.51,62.14,103.86z M69.12,105.63c-0.1,0.99,0.44,1.51,1.24,2.08C70.57,106.67,69.74,106.25,69.12,105.63z"
		/>
	<path d="M76.81,101.47c2.39,0.83,3.43,1.87,4.57,3.95C79.2,104.48,78.16,103.44,76.81,101.47z"/>
	<path d="M72.44,97.21c1.46,0.52,2.18,0.93,2.5,2.29C73.9,98.87,73.27,98.45,72.44,97.21z"/>
	<path d="M68.08,95.02c1.35,0.31,2.18,0.52,2.7,1.87C69.43,96.68,68.81,96.17,68.08,95.02z"/>
	<path d="M89.4,131.1c0.11-1.04-0.42-2.29,1.35-2.81C90.64,129.55,90.33,130.48,89.4,131.1z"/>
	<path d="M43.74,399.19c-5.83,1.56-11.23,1.15-16.64-0.83C30.53,394.92,40.83,395.65,43.74,399.19z"/>
	<path d="M44.67,408.86c-3.64,2.08-10.4,1.66-13.21-0.93C34.7,405.64,42.18,406.26,44.67,408.86z"/>
	<path d="M43.95,412.19c-3.74,2.6-7.69,2.08-9.26-1.04C37.71,410.83,40.62,411.15,43.95,412.19z"/>
	<path d="M863.27,325.88c1.56,0.2,3.22,0.31,4.26,2.08c-1.15-0.31-2.29-0.62-3.74-0.93c-0.52,4.26,4.47,2.39,5.2,4.79
		C860.35,332.96,859.77,327.23,863.27,325.88z"/>
	<path d="M799.31,333.15c0.2-1.66,1.35-2.5,2.5-3.43c0.93,1.24,3.02,0.73,4.26,2.29c-1.46,0.83-2.5-0.73-4.16-0.31
		c-0.83,4.06,4.47,1.97,4.99,4.57C802.23,337,801.29,336.59,799.31,333.15z"/>
	<path d="M501.49,90.87c-2.08-1.24-3.95-2.39-3.95-5.1c1.24,1.24,1.97,3.22,4.16,2.7s1.35-2.81,1.97-4.57
		C505.35,87.44,504.82,88.88,501.49,90.87z"/>
	<path d="M66.1,111.35c-4.37,0.2-5.83-0.83-6.76-4.79c0.52-1.35,1.77-1.87,2.81-2.7c0.83,1.46,3.12,1.46,3.85,3.44
		c-1.56,0.11-2.29-1.56-4.26-1.15C60.89,109.69,65.68,108.96,66.1,111.35z"/>
<path fill="#e6e6e6" d="m206.8 163.6c0-5.1 4.1-9.2 9.3-9.2s9.2 4.2 9.2 9.2-4.1 9.2-9.3 9.2-9.2-4.1-9.2-9.2zm17.3-.1c0-4.5-3.5-8.2-8.2-8.2s-8.2 3.7-8.2 8.3c0 4.5 3.5 8.2 8.2 8.2s8.2-3.7 8.2-8.3zm-13 0c0-2.8 2.1-5.1 5.1-5.1 1.9 0 2.9.6 3.9 1.5l-1.4 1.7c-.8-.7-1.5-1.1-2.5-1.1-1.7 0-2.8 1.4-2.8 3.1s1.1 3 2.8 3c1.1 0 1.7-.5 2.5-1.1l1.4 1.4c-1.1 1.1-2.1 1.7-4 1.7-2.9 0-5-2.3-5-5.1z"/><path fill="#e6e6e6" d="m226.6 154.7h3.4l4.2 13.2 4.4-13.3h2.6l4.4 13.3 4.2-13.2h3.3l-6.2 18h-2.7l-4.4-12.8-4.4 12.8h-2.7z"/><path fill="#e6e6e6" d="m252.8 165.8c0-3.9 3.1-7 7.2-7 4.2 0 7.2 3.2 7.2 7s-3.1 7-7.3 7c-4 0-7.1-3.1-7.1-7zm11.3 0c0-2.3-1.7-4.3-4.2-4.3s-4.1 2-4.1 4.3 1.7 4.3 4.1 4.3c2.7.1 4.2-1.9 4.2-4.3z"/><path fill="#e6e6e6" d="m269.5 159.1h3.1v3c.8-2 2.4-3.4 4.8-3.3v3.2h-.2c-2.7 0-4.6 1.7-4.6 5.4v5.1h-3.1z"/><path fill="#e6e6e6" d="m279.1 153.9h3.1v11.1l5.6-6h3.8l-5.4 5.5 5.5 8h-3.5l-4.1-5.8-1.9 2v3.9h-3.1z"/><path fill="#e6e6e6" d="m291.7 165.8c0-3.9 3.1-7 7.2-7 4.2 0 7.2 3.2 7.2 7s-3.1 7-7.3 7c-4 0-7.1-3.1-7.1-7zm11.3 0c0-2.3-1.7-4.3-4.2-4.3s-4.1 2-4.1 4.3 1.7 4.3 4.1 4.3c2.6.1 4.2-1.9 4.2-4.3z"/><path fill="#e6e6e6" d="m308.2 167.6v-8.6h3.1v7.6c0 2.1 1.1 3.3 2.9 3.3s3-1.3 3-3.3v-7.6h3.1v13.4h-3.1v-2.1c-.8 1.3-2.1 2.3-4.2 2.3-3.1.2-4.8-1.8-4.8-5z"/><path fill="#e6e6e6" d="m323.9 168.8v-7.1h-1.7v-2.6h1.7v-3.7h3.1v3.7h3.6v2.6h-3.6v6.6c0 1.2.6 1.7 1.7 1.7.7 0 1.3-.2 1.9-.5v2.5c-.8.5-1.7.7-2.8.7-2.3 0-3.9-.9-3.9-3.9z"/><path fill="#e6e6e6" d="m333.2 154.7h3.2v15h9.4v2.9h-12.5v-17.9z"/><path fill="#e6e6e6" d="m356 172.5v-1.7c-.9 1.1-2.3 2-4.4 2-2.6 0-4.8-1.4-4.8-4.2 0-3 2.3-4.4 5.4-4.4 1.7 0 2.6.2 3.7.5v-.2c0-1.9-1.2-2.9-3.3-2.9-1.5 0-2.6.3-3.9.8l-.8-2.5c1.5-.7 2.9-1.1 5.1-1.1 4 0 5.9 2.1 5.9 5.7v8zm.1-5.6c-.8-.3-1.9-.5-3.1-.5-2 0-3.1.8-3.1 2.1s1.1 2 2.6 2c2 0 3.5-1.1 3.5-2.9z"/><path fill="#e6e6e6" d="m364.9 170.5v2.1h-3.1v-18.7h3.1v7.4c1-1.4 2.4-2.5 4.5-2.5 3.2 0 6.3 2.5 6.3 7s-3.1 7-6.3 7c-2.1 0-3.5-1.1-4.5-2.3zm7.7-4.7c0-2.6-1.7-4.3-3.9-4.3s-3.9 1.7-3.9 4.4c0 2.6 1.8 4.3 3.9 4.3s3.9-1.7 3.9-4.4z"/><path fill="#e6e6e6" d="m376.9 170.8 1.4-2.1c1.4 1.1 3 1.7 4.4 1.7s2.1-.5 2.1-1.5-1.3-1.4-2.8-1.8c-.1 0-.2-.1-.2-.1-2-.6-4.2-1.4-4.2-4s2.1-4.1 4.8-4.1c1.7 0 3.5.6 5 1.5l-1.2 2.2c-1.3-.8-2.6-1.3-3.8-1.3s-1.9.5-1.9 1.4 1.3 1.4 2.8 1.8c.1 0 .2.1.2.1 2 .6 4.2 1.5 4.2 4 0 2.9-2.2 4.2-5 4.2-1.9 0-4-.7-5.8-2z"/><path fill="#e6e6e6" d="m505.6 163.6c0-5.1 4.1-9.2 9.3-9.2s9.2 4.2 9.2 9.2-4.1 9.2-9.3 9.2-9.2-4.1-9.2-9.2zm17.4-.1c0-4.5-3.5-8.2-8.2-8.2s-8.2 3.7-8.2 8.3c0 4.5 3.5 8.2 8.2 8.2s8.2-3.7 8.2-8.3zm-13.1 0c0-2.8 2.1-5.1 5.1-5.1 1.9 0 2.9.6 3.9 1.5l-1.4 1.7c-.8-.7-1.5-1.1-2.5-1.1-1.7 0-2.8 1.4-2.8 3.1s1.1 3 2.8 3c1.1 0 1.7-.5 2.5-1.1l1.4 1.4c-1.1 1.1-2.1 1.7-4 1.7-2.9 0-5-2.3-5-5.1z"/><path fill="#e6e6e6" d="m525.4 154.7h3.4l4.2 13.2 4.4-13.3h2.6l4.4 13.3 4.2-13.2h3.3l-6.2 18h-2.7l-4.4-12.8-4.4 12.8h-2.7z"/><path fill="#e6e6e6" d="m551.7 165.8c0-3.9 3.1-7 7.2-7 4.2 0 7.2 3.2 7.2 7s-3.1 7-7.3 7c-4.1 0-7.1-3.1-7.1-7zm11.2 0c0-2.3-1.7-4.3-4.2-4.3s-4.1 2-4.1 4.3 1.7 4.3 4.1 4.3c2.7.1 4.2-1.9 4.2-4.3z"/><path fill="#e6e6e6" d="m568.3 159.1h3.1v3c.8-2 2.4-3.4 4.8-3.3v3.2h-.2c-2.7 0-4.6 1.7-4.6 5.4v5.1h-3.1z"/><path fill="#e6e6e6" d="m577.9 153.9h3.1v11.1l5.6-6h3.8l-5.4 5.5 5.5 8h-3.5l-4.1-5.8-1.9 2v3.9h-3.1z"/><path fill="#e6e6e6" d="m590.6 165.8c0-3.9 3.1-7 7.2-7 4.2 0 7.2 3.2 7.2 7s-3.1 7-7.3 7c-4.1 0-7.1-3.1-7.1-7zm11.2 0c0-2.3-1.7-4.3-4.2-4.3s-4.1 2-4.1 4.3 1.7 4.3 4.1 4.3c2.6.1 4.2-1.9 4.2-4.3z"/><path fill="#e6e6e6" d="m607 167.6v-8.6h3.1v7.6c0 2.1 1.1 3.3 2.9 3.3s3-1.3 3-3.3v-7.6h3.1v13.4h-3.1v-2.1c-.8 1.3-2.1 2.3-4.2 2.3-3 .2-4.8-1.8-4.8-5z"/><path fill="#e6e6e6" d="m622.7 168.8v-7.1h-1.7v-2.6h1.7v-3.7h3.1v3.7h3.6v2.6h-3.6v6.6c0 1.2.6 1.7 1.7 1.7.7 0 1.3-.2 1.9-.5v2.5c-.8.5-1.7.7-2.8.7-2.3 0-3.9-.9-3.9-3.9z"/><path fill="#e6e6e6" d="m632 154.7h3.2v15h9.4v2.9h-12.6z"/><path fill="#e6e6e6" d="m654.8 172.5v-1.7c-.9 1.1-2.3 2-4.4 2-2.6 0-4.8-1.4-4.8-4.2 0-3 2.3-4.4 5.4-4.4 1.7 0 2.6.2 3.7.5v-.2c0-1.9-1.2-2.9-3.3-2.9-1.5 0-2.6.3-3.9.8l-.8-2.5c1.5-.7 2.9-1.1 5.1-1.1 4 0 5.9 2.1 5.9 5.7v8zm.1-5.6c-.8-.3-1.9-.5-3.1-.5-2 0-3.1.8-3.1 2.1s1.1 2 2.6 2c2 0 3.5-1.1 3.5-2.9z"/><path fill="#e6e6e6" d="m663.7 170.5v2.1h-3.1v-18.7h3.1v7.4c1-1.4 2.4-2.5 4.5-2.5 3.2 0 6.3 2.5 6.3 7s-3.1 7-6.3 7c-2.1 0-3.5-1.1-4.5-2.3zm7.8-4.7c0-2.6-1.7-4.3-3.9-4.3-2.1 0-3.9 1.7-3.9 4.4 0 2.6 1.8 4.3 3.9 4.3s3.9-1.7 3.9-4.4z"/><path fill="#e6e6e6" d="m675.8 170.8 1.4-2.1c1.4 1.1 3 1.7 4.4 1.7s2.1-.5 2.1-1.5-1.3-1.4-2.8-1.8c-.1 0-.2-.1-.2-.1-2-.6-4.2-1.4-4.2-4s2.1-4.1 4.8-4.1c1.7 0 3.5.6 5 1.5l-1.2 2.2c-1.3-.8-2.6-1.3-3.8-1.3s-1.9.5-1.9 1.4 1.3 1.4 2.8 1.8c.1 0 .2.1.2.1 2 .6 4.2 1.5 4.2 4 0 2.9-2.2 4.2-5 4.2-2 0-4.1-.7-5.8-2z"/><path fill="#e6e6e6" d="m61 298.6c0-5.1 4.1-9.2 9.3-9.2s9.2 4.2 9.2 9.2-4.1 9.2-9.3 9.2c-5.1 0-9.2-4.2-9.2-9.2zm17.4-.1c0-4.5-3.5-8.2-8.2-8.2s-8.2 3.7-8.2 8.3c0 4.5 3.5 8.2 8.2 8.2s8.2-3.7 8.2-8.3zm-13.1-.1c0-2.8 2.1-5.1 5.1-5.1 1.9 0 2.9.6 3.9 1.5l-1.4 1.7c-.8-.7-1.5-1.1-2.5-1.1-1.7 0-2.8 1.4-2.8 3.1s1.1 3 2.8 3c1.1 0 1.7-.5 2.5-1.1l1.4 1.4c-1.1 1.1-2.1 1.7-4 1.7-2.8.1-5-2.2-5-5.1z"/><path fill="#e6e6e6" d="m80.9 289.7h3.4l4.2 13.2 4.4-13.3h2.6l4.4 13.3 4.2-13.2h3.3l-6.2 18h-2.7l-4.4-12.8-4.4 12.8h-2.7z"/><path fill="#e6e6e6" d="m107.1 300.8c0-3.9 3.1-7 7.2-7s7.2 3.2 7.2 7-3.1 7-7.3 7c-4 0-7.1-3.1-7.1-7zm11.3 0c0-2.3-1.7-4.3-4.2-4.3s-4.1 2-4.1 4.3 1.7 4.3 4.1 4.3c2.6.1 4.2-1.9 4.2-4.3z"/><path fill="#e6e6e6" d="m123.7 294h3.1v3c.8-2 2.4-3.4 4.8-3.3v3.2h-.2c-2.7 0-4.6 1.7-4.6 5.4v5.1h-3.1z"/><path fill="#e6e6e6" d="m133.4 288.9h3.1v11.1l5.6-6h3.8l-5.4 5.5 5.5 8h-3.5l-4.1-5.8-1.9 1.9v3.9h-3.1z"/><path fill="#e6e6e6" d="m146 300.8c0-3.9 3.1-7 7.2-7s7.2 3.2 7.2 7-3.1 7-7.3 7c-4.1 0-7.1-3.1-7.1-7zm11.2 0c0-2.3-1.7-4.3-4.2-4.3s-4.1 2-4.1 4.3 1.7 4.3 4.1 4.3c2.6.1 4.2-1.9 4.2-4.3z"/><path fill="#e6e6e6" d="m162.4 302.6v-8.6h3.1v7.6c0 2.1 1.1 3.3 2.9 3.3s3-1.3 3-3.3v-7.6h3.1v13.4h-3.1v-2.1c-.8 1.3-2.1 2.3-4.2 2.3-3 .2-4.8-1.8-4.8-5z"/><path fill="#e6e6e6" d="m178.1 303.8v-7.1h-1.7v-2.7h1.7v-3.7h3.1v3.7h3.6v2.6h-3.6v6.6c0 1.2.6 1.7 1.7 1.7.7 0 1.3-.2 1.9-.5v2.5c-.8.5-1.7.7-2.8.7-2.3.1-3.9-.9-3.9-3.8z"/><path fill="#e6e6e6" d="m187.4 289.7h3.2v15h9.4v2.9h-12.5v-17.9z"/><path fill="#e6e6e6" d="m210.2 307.5v-1.7c-.9 1.1-2.3 2-4.4 2-2.6 0-4.8-1.4-4.8-4.2 0-3 2.3-4.4 5.4-4.4 1.7 0 2.6.2 3.7.5v-.2c0-1.9-1.2-2.9-3.3-2.9-1.5 0-2.6.3-3.9.8l-.8-2.5c1.5-.7 2.9-1.1 5.1-1.1 4 0 5.9 2.1 5.9 5.7v8zm.1-5.6c-.8-.3-1.9-.5-3.1-.5-2 0-3.1.8-3.1 2.1s1.1 2 2.6 2c2 0 3.5-1.1 3.5-2.9z"/><path fill="#e6e6e6" d="m219.2 305.5v2.1h-3.1v-18.7h3.1v7.4c1-1.4 2.4-2.5 4.5-2.5 3.2 0 6.3 2.5 6.3 7s-3.1 7-6.3 7c-2.2 0-3.6-1.1-4.5-2.3zm7.7-4.7c0-2.6-1.7-4.3-3.9-4.3s-3.9 1.7-3.9 4.4c0 2.6 1.8 4.3 3.9 4.3s3.9-1.7 3.9-4.4z"/><path fill="#e6e6e6" d="m231.2 305.8 1.4-2.1c1.4 1.1 3 1.7 4.4 1.7s2.1-.5 2.1-1.5-1.3-1.4-2.8-1.8c-.1 0-.2-.1-.2-.1-2-.6-4.2-1.4-4.2-4s2.1-4.1 4.8-4.1c1.7 0 3.5.6 5 1.5l-1.2 2.2c-1.3-.8-2.6-1.3-3.8-1.3s-1.9.5-1.9 1.4 1.3 1.4 2.8 1.8c.1 0 .2.1.2.1 2 .6 4.2 1.5 4.2 4 0 2.9-2.2 4.2-5 4.2-2 0-4.1-.7-5.8-2z"/><path fill="#e6e6e6" d="m360.6 298.6c0-5.1 4.1-9.2 9.3-9.2s9.2 4.2 9.2 9.2-4.1 9.2-9.3 9.2-9.2-4.2-9.2-9.2zm17.4-.1c0-4.5-3.5-8.2-8.2-8.2s-8.2 3.7-8.2 8.3c0 4.5 3.5 8.2 8.2 8.2s8.2-3.7 8.2-8.3zm-13.1-.1c0-2.8 2.1-5.1 5.1-5.1 1.9 0 2.9.6 3.9 1.5l-1.4 1.7c-.8-.7-1.5-1.1-2.5-1.1-1.7 0-2.8 1.4-2.8 3.1s1.1 3 2.8 3c1.1 0 1.7-.5 2.5-1.1l1.4 1.4c-1.1 1.1-2.1 1.7-4 1.7-2.8.1-5-2.2-5-5.1z"/><path fill="#e6e6e6" d="m380.5 289.7h3.4l4.2 13.2 4.4-13.3h2.6l4.4 13.3 4.2-13.2h3.3l-6.2 18h-2.7l-4.4-12.8-4.4 12.8h-2.7z"/><path fill="#e6e6e6" d="m406.7 300.8c0-3.9 3.1-7 7.2-7 4.2 0 7.2 3.2 7.2 7s-3.1 7-7.3 7c-4.1 0-7.1-3.1-7.1-7zm11.3 0c0-2.3-1.7-4.3-4.2-4.3s-4.1 2-4.1 4.3 1.7 4.3 4.1 4.3c2.7.1 4.2-1.9 4.2-4.3z"/><path fill="#e6e6e6" d="m423.3 294h3.1v3c.8-2 2.4-3.4 4.8-3.3v3.2h-.2c-2.7 0-4.6 1.7-4.6 5.4v5.1h-3.1z"/><path fill="#e6e6e6" d="m433 288.9h3.1v11.1l5.6-6h3.8l-5.4 5.5 5.5 8h-3.5l-4.1-5.8-1.9 2v3.9h-3.1z"/><path fill="#e6e6e6" d="m445.6 300.8c0-3.9 3.1-7 7.2-7 4.2 0 7.2 3.2 7.2 7s-3.1 7-7.3 7c-4.1 0-7.1-3.1-7.1-7zm11.3 0c0-2.3-1.7-4.3-4.2-4.3s-4.1 2-4.1 4.3 1.7 4.3 4.1 4.3c2.6.1 4.2-1.9 4.2-4.3z"/><path fill="#e6e6e6" d="m462.1 302.6v-8.6h3.1v7.6c0 2.1 1.1 3.3 2.9 3.3s3-1.3 3-3.3v-7.6h3.1v13.4h-3.1v-2.1c-.8 1.3-2.1 2.3-4.2 2.3-3.1.2-4.8-1.8-4.8-5z"/><path fill="#e6e6e6" d="m477.8 303.8v-7.1h-1.8v-2.7h1.7v-3.7h3.1v3.7h3.6v2.6h-3.6v6.6c0 1.2.6 1.7 1.7 1.7.7 0 1.3-.2 1.9-.5v2.5c-.8.5-1.7.7-2.8.7-2.2.1-3.8-.9-3.8-3.8z"/><path fill="#e6e6e6" d="m487.1 289.7h3.2v15h9.4v2.9h-12.5v-17.9z"/><path fill="#e6e6e6" d="m509.9 307.5v-1.7c-.9 1.1-2.3 2-4.4 2-2.6 0-4.8-1.4-4.8-4.2 0-3 2.3-4.4 5.4-4.4 1.7 0 2.6.2 3.7.5v-.2c0-1.9-1.2-2.9-3.3-2.9-1.5 0-2.6.3-3.9.8l-.8-2.5c1.5-.7 2.9-1.1 5.1-1.1 4 0 5.9 2.1 5.9 5.7v8zm.1-5.6c-.8-.3-1.9-.5-3.1-.5-2 0-3.1.8-3.1 2.1s1.1 2 2.6 2c2 0 3.5-1.1 3.5-2.9z"/><path fill="#e6e6e6" d="m518.8 305.5v2.1h-3.1v-18.7h3.1v7.4c1-1.4 2.4-2.5 4.5-2.5 3.2 0 6.3 2.5 6.3 7s-3.1 7-6.3 7c-2.2 0-3.5-1.1-4.5-2.3zm7.7-4.7c0-2.6-1.7-4.3-3.9-4.3s-3.9 1.7-3.9 4.4c0 2.6 1.8 4.3 3.9 4.3s3.9-1.7 3.9-4.4z"/><path fill="#e6e6e6" d="m530.8 305.8 1.4-2.1c1.4 1.1 3 1.7 4.4 1.7s2.1-.5 2.1-1.5-1.3-1.4-2.8-1.8c-.1 0-.2-.1-.2-.1-2-.6-4.2-1.4-4.2-4s2.1-4.1 4.8-4.1c1.7 0 3.5.6 5 1.5l-1.2 2.2c-1.3-.8-2.6-1.3-3.8-1.3s-1.9.5-1.9 1.4 1.3 1.4 2.8 1.8c.1 0 .2.1.2.1 2 .6 4.2 1.5 4.2 4 0 2.9-2.2 4.2-5 4.2-1.9 0-4.1-.7-5.8-2z"/><path fill="#e6e6e6" d="m659.5 298.6c0-5.1 4.1-9.2 9.3-9.2s9.2 4.2 9.2 9.2-4.1 9.2-9.3 9.2-9.2-4.2-9.2-9.2zm17.3-.1c0-4.5-3.5-8.2-8.2-8.2s-8.2 3.7-8.2 8.3c0 4.5 3.5 8.2 8.2 8.2 4.8 0 8.2-3.7 8.2-8.3zm-13-.1c0-2.8 2.1-5.1 5.1-5.1 1.9 0 2.9.6 3.9 1.5l-1.4 1.7c-.8-.7-1.5-1.1-2.5-1.1-1.7 0-2.8 1.4-2.8 3.1s1.1 3 2.8 3c1.1 0 1.7-.5 2.5-1.1l1.4 1.4c-1.1 1.1-2.1 1.7-4 1.7-2.9.1-5-2.2-5-5.1z"/><path fill="#e6e6e6" d="m679.3 289.7h3.4l4.2 13.2 4.4-13.3h2.6l4.4 13.3 4.2-13.2h3.3l-6.2 18h-2.6l-4.4-12.8-4.4 12.8h-2.7z"/><path fill="#e6e6e6" d="m705.5 300.8c0-3.9 3.1-7 7.2-7 4.2 0 7.2 3.2 7.2 7s-3.1 7-7.3 7c-4 0-7.1-3.1-7.1-7zm11.3 0c0-2.3-1.7-4.3-4.2-4.3s-4.1 2-4.1 4.3 1.7 4.3 4.1 4.3c2.7.1 4.2-1.9 4.2-4.3z"/><path fill="#e6e6e6" d="m722.1 294h3.1v3c.8-2 2.4-3.4 4.8-3.3v3.2h-.2c-2.7 0-4.6 1.7-4.6 5.4v5.1h-3.1z"/><path fill="#e6e6e6" d="m731.8 288.9h3.1v11.1l5.6-6h3.8l-5.4 5.5 5.5 8h-3.5l-4.1-5.8-1.9 2v3.9h-3.1z"/><path fill="#e6e6e6" d="m744.4 300.8c0-3.9 3.1-7 7.2-7 4.2 0 7.2 3.2 7.2 7s-3.1 7-7.3 7c-4.1 0-7.1-3.1-7.1-7zm11.3 0c0-2.3-1.7-4.3-4.2-4.3s-4.1 2-4.1 4.3 1.7 4.3 4.1 4.3c2.6.1 4.2-1.9 4.2-4.3z"/><path fill="#e6e6e6" d="m760.9 302.6v-8.6h3.1v7.6c0 2.1 1.1 3.3 2.9 3.3s3-1.3 3-3.3v-7.6h3.1v13.4h-3.1v-2.1c-.8 1.3-2.1 2.3-4.2 2.3-3.1.2-4.8-1.8-4.8-5z"/><path fill="#e6e6e6" d="m776.6 303.8v-7.1h-1.7v-2.7h1.7v-3.7h3.1v3.7h3.6v2.6h-3.6v6.6c0 1.2.6 1.7 1.7 1.7.7 0 1.3-.2 1.9-.5v2.5c-.8.5-1.7.7-2.8.7-2.3.1-3.9-.9-3.9-3.8z"/><path fill="#e6e6e6" d="m785.9 289.7h3.2v15h9.4v2.9h-12.5v-17.9z"/><path fill="#e6e6e6" d="m808.7 307.5v-1.7c-.9 1.1-2.3 2-4.4 2-2.6 0-4.8-1.4-4.8-4.2 0-3 2.3-4.4 5.4-4.4 1.7 0 2.6.2 3.7.5v-.2c0-1.9-1.2-2.9-3.3-2.9-1.5 0-2.6.3-3.9.8l-.8-2.5c1.5-.7 2.9-1.1 5.1-1.1 4 0 5.9 2.1 5.9 5.7v8zm.1-5.6c-.8-.3-1.9-.5-3.1-.5-2 0-3.1.8-3.1 2.1s1.1 2 2.6 2c2 0 3.5-1.1 3.5-2.9z"/><path fill="#e6e6e6" d="m817.6 305.5v2.1h-3.1v-18.7h3.1v7.4c1-1.4 2.4-2.5 4.5-2.5 3.2 0 6.3 2.5 6.3 7s-3.1 7-6.3 7c-2.1 0-3.5-1.1-4.5-2.3zm7.7-4.7c0-2.6-1.7-4.3-3.9-4.3-2.1 0-3.9 1.7-3.9 4.4 0 2.6 1.8 4.3 3.9 4.3 2.2 0 3.9-1.7 3.9-4.4z"/><path fill="#e6e6e6" d="m829.6 305.8 1.4-2.1c1.4 1.1 3 1.7 4.4 1.7s2.1-.5 2.1-1.5-1.3-1.4-2.8-1.8c-.1 0-.2-.1-.2-.1-2-.6-4.2-1.4-4.2-4s2.1-4.1 4.8-4.1c1.7 0 3.5.6 5 1.5l-1.2 2.2c-1.3-.8-2.6-1.3-3.8-1.3s-1.9.5-1.9 1.4 1.3 1.4 2.8 1.8c.1 0 .2.1.2.1 2 .6 4.2 1.5 4.2 4 0 2.9-2.2 4.2-5 4.2-1.9 0-4-.7-5.8-2z"/><path fill="#e6e6e6" d="m206.3 434.2c0-5.1 4.1-9.2 9.3-9.2s9.2 4.2 9.2 9.2-4.1 9.2-9.3 9.2-9.2-4.1-9.2-9.2zm17.4-.1c0-4.5-3.5-8.2-8.2-8.2s-8.2 3.7-8.2 8.3c0 4.5 3.5 8.2 8.2 8.2s8.2-3.7 8.2-8.3zm-13.1-.1c0-2.8 2.1-5.1 5.1-5.1 1.9 0 2.9.6 3.9 1.5l-1.4 1.7c-.8-.7-1.5-1.1-2.5-1.1-1.7 0-2.8 1.4-2.8 3.1s1.1 3 2.8 3c1.1 0 1.7-.5 2.5-1.1l1.4 1.4c-1.1 1.1-2.1 1.7-4 1.7-2.9.1-5-2.2-5-5.1z"/><path fill="#e6e6e6" d="m226.1 425.3h3.4l4.2 13.2 4.4-13.3h2.6l4.4 13.3 4.2-13.2h3.3l-6.2 18h-2.7l-4.4-12.8-4.4 12.8h-2.7z"/><path fill="#e6e6e6" d="m252.4 436.4c0-3.9 3.1-7 7.2-7 4.2 0 7.2 3.2 7.2 7s-3.1 7-7.3 7c-4.1 0-7.1-3.1-7.1-7zm11.2 0c0-2.3-1.7-4.3-4.2-4.3s-4.1 2-4.1 4.3 1.7 4.3 4.1 4.3c2.7.1 4.2-1.9 4.2-4.3z"/><path fill="#e6e6e6" d="m269 429.7h3.1v3c.8-2 2.4-3.4 4.8-3.3v3.2h-.2c-2.7 0-4.6 1.7-4.6 5.4v5.1h-3.1z"/><path fill="#e6e6e6" d="m278.6 424.5h3.1v11.1l5.6-6h3.8l-5.4 5.5 5.5 8h-3.5l-4.1-5.8-1.9 2v3.9h-3.1z"/><path fill="#e6e6e6" d="m291.3 436.4c0-3.9 3.1-7 7.2-7 4.2 0 7.2 3.2 7.2 7s-3.1 7-7.3 7c-4.1 0-7.1-3.1-7.1-7zm11.2 0c0-2.3-1.7-4.3-4.2-4.3s-4.1 2-4.1 4.3 1.7 4.3 4.1 4.3c2.6.1 4.2-1.9 4.2-4.3z"/><path fill="#e6e6e6" d="m307.7 438.2v-8.6h3.1v7.6c0 2.1 1.1 3.3 2.9 3.3s3-1.3 3-3.3v-7.6h3.1v13.4h-3.1v-2.1c-.8 1.3-2.1 2.3-4.2 2.3-3 .2-4.8-1.8-4.8-5z"/><path fill="#e6e6e6" d="m323.4 439.4v-7.1h-1.7v-2.6h1.7v-3.7h3.1v3.7h3.6v2.6h-3.6v6.6c0 1.2.6 1.7 1.7 1.7.7 0 1.3-.2 1.9-.5v2.5c-.8.5-1.7.7-2.8.7-2.3 0-3.9-.9-3.9-3.9z"/><path fill="#e6e6e6" d="m332.7 425.3h3.2v15h9.4v2.9h-12.5v-17.9z"/><path fill="#e6e6e6" d="m355.5 443.1v-1.7c-.9 1.1-2.3 2-4.4 2-2.6 0-4.8-1.4-4.8-4.2 0-3 2.3-4.4 5.4-4.4 1.7 0 2.6.2 3.7.5v-.2c0-1.9-1.2-2.9-3.3-2.9-1.5 0-2.6.3-3.9.8l-.8-2.5c1.5-.7 2.9-1.1 5.1-1.1 4 0 5.9 2.1 5.9 5.7v8zm.1-5.6c-.8-.3-1.9-.5-3.1-.5-2 0-3.1.8-3.1 2.1s1.1 2 2.6 2c2 0 3.5-1.1 3.5-2.9z"/><path fill="#e6e6e6" d="m364.4 441.1v2.1h-3.1v-18.7h3.1v7.4c1-1.4 2.4-2.5 4.5-2.5 3.2 0 6.3 2.5 6.3 7s-3.1 7-6.3 7c-2.1 0-3.5-1.1-4.5-2.3zm7.7-4.7c0-2.6-1.7-4.3-3.9-4.3-2.1 0-3.9 1.7-3.9 4.4 0 2.6 1.8 4.3 3.9 4.3 2.2 0 3.9-1.7 3.9-4.4z"/><path fill="#e6e6e6" d="m376.5 441.4 1.4-2.1c1.4 1.1 3 1.7 4.4 1.7s2.1-.5 2.1-1.5-1.3-1.4-2.8-1.8c-.1 0-.2-.1-.2-.1-2-.6-4.2-1.4-4.2-4s2.1-4.1 4.8-4.1c1.7 0 3.5.6 5 1.5l-1.2 2.2c-1.3-.8-2.6-1.3-3.8-1.3s-1.9.5-1.9 1.4 1.3 1.4 2.8 1.8c.1 0 .2.1.2.1 2 .6 4.2 1.5 4.2 4 0 2.9-2.2 4.2-5 4.2-2 0-4.1-.7-5.8-2z"/><path fill="#e6e6e6" d="m505.1 434.2c0-5.1 4.1-9.2 9.3-9.2s9.2 4.2 9.2 9.2-4.1 9.2-9.3 9.2-9.2-4.1-9.2-9.2zm17.4-.1c0-4.5-3.5-8.2-8.2-8.2s-8.2 3.7-8.2 8.3c0 4.5 3.5 8.2 8.2 8.2s8.2-3.7 8.2-8.3zm-13.1-.1c0-2.8 2.1-5.1 5.1-5.1 1.9 0 2.9.6 3.9 1.5l-1.4 1.7c-.8-.7-1.5-1.1-2.5-1.1-1.7 0-2.8 1.4-2.8 3.1s1.1 3 2.8 3c1.1 0 1.7-.5 2.5-1.1l1.4 1.4c-1.1 1.1-2.1 1.7-4 1.7-2.9.1-5-2.2-5-5.1z"/><path fill="#e6e6e6" d="m525 425.3h3.4l4.2 13.2 4.4-13.3h2.6l4.4 13.3 4.2-13.2h3.3l-6.2 18h-2.7l-4.4-12.8-4.4 12.8h-2.7z"/><path fill="#e6e6e6" d="m551.2 436.4c0-3.9 3.1-7 7.2-7 4.2 0 7.2 3.2 7.2 7s-3.1 7-7.3 7c-4.1 0-7.1-3.1-7.1-7zm11.2 0c0-2.3-1.7-4.3-4.2-4.3s-4.1 2-4.1 4.3 1.7 4.3 4.1 4.3c2.7.1 4.2-1.9 4.2-4.3z"/><path fill="#e6e6e6" d="m567.8 429.7h3.1v3c.8-2 2.4-3.4 4.8-3.3v3.2h-.2c-2.7 0-4.6 1.7-4.6 5.4v5.1h-3.1z"/><path fill="#e6e6e6" d="m577.5 424.5h3.1v11.1l5.6-6h3.8l-5.4 5.5 5.5 8h-3.5l-4.1-5.8-1.9 2v3.9h-3.1z"/><path fill="#e6e6e6" d="m590.1 436.4c0-3.9 3.1-7 7.2-7 4.2 0 7.2 3.2 7.2 7s-3.1 7-7.3 7c-4.1 0-7.1-3.1-7.1-7zm11.2 0c0-2.3-1.7-4.3-4.2-4.3s-4.1 2-4.1 4.3 1.7 4.3 4.1 4.3c2.6.1 4.2-1.9 4.2-4.3z"/><path fill="#e6e6e6" d="m606.5 438.2v-8.6h3.1v7.6c0 2.1 1.1 3.3 2.9 3.3s3-1.3 3-3.3v-7.6h3.1v13.4h-3.1v-2.1c-.8 1.3-2.1 2.3-4.2 2.3-3 .2-4.8-1.8-4.8-5z"/><path fill="#e6e6e6" d="m622.2 439.4v-7.1h-1.7v-2.6h1.7v-3.7h3.1v3.7h3.6v2.6h-3.6v6.6c0 1.2.6 1.7 1.7 1.7.7 0 1.3-.2 1.9-.5v2.5c-.8.5-1.7.7-2.8.7-2.3 0-3.9-.9-3.9-3.9z"/><path fill="#e6e6e6" d="m631.5 425.3h3.2v15h9.4v2.9h-12.5v-17.9z"/><path fill="#e6e6e6" d="m654.3 443.1v-1.7c-.9 1.1-2.3 2-4.4 2-2.6 0-4.8-1.4-4.8-4.2 0-3 2.3-4.4 5.4-4.4 1.7 0 2.6.2 3.7.5v-.2c0-1.9-1.2-2.9-3.3-2.9-1.5 0-2.6.3-3.9.8l-.8-2.5c1.5-.7 2.9-1.1 5.1-1.1 4 0 5.9 2.1 5.9 5.7v8zm.1-5.6c-.8-.3-1.9-.5-3.1-.5-2 0-3.1.8-3.1 2.1s1.1 2 2.6 2c2 0 3.5-1.1 3.5-2.9z"/><path fill="#e6e6e6" d="m663.3 441.1v2.1h-3.1v-18.7h3.1v7.4c1-1.4 2.4-2.5 4.5-2.5 3.2 0 6.3 2.5 6.3 7s-3.1 7-6.3 7c-2.2 0-3.6-1.1-4.5-2.3zm7.7-4.7c0-2.6-1.7-4.3-3.9-4.3s-3.9 1.7-3.9 4.4c0 2.6 1.8 4.3 3.9 4.3s3.9-1.7 3.9-4.4z"/><path fill="#e6e6e6" d="m675.3 441.4 1.4-2.1c1.4 1.1 3 1.7 4.4 1.7s2.1-.5 2.1-1.5-1.3-1.4-2.8-1.8c-.1 0-.2-.1-.2-.1-2-.6-4.2-1.4-4.2-4s2.1-4.1 4.8-4.1c1.7 0 3.5.6 5 1.5l-1.2 2.2c-1.3-.8-2.6-1.3-3.8-1.3s-1.9.5-1.9 1.4 1.3 1.4 2.8 1.8c.1 0 .2.1.2.1 2 .6 4.2 1.5 4.2 4 0 2.9-2.2 4.2-5 4.2-2 0-4.1-.7-5.8-2z"/></g>
</svg>
