<?xml version="1.0" encoding="utf-8"?>
<!-- Generator: Adobe Illustrator 23.0.1, SVG Export Plug-In . SVG Version: 6.00 Build 0)  -->
<svg version="1.2" baseProfile="tiny" id="Layer_1" xmlns="http://www.w3.org/2000/svg" xmlns:xlink="http://www.w3.org/1999/xlink"
	 x="0px" y="0px" viewBox="0 0 900 600" xml:space="preserve">
<g>
	<path d="M610.61,332.66l-0.05,0.05C610.68,332.71,610.4,332.45,610.61,332.66z"/>
	<path d="M576.14,334.91l0.1-0.1C576.23,334.86,576.2,334.91,576.14,334.91z"/>
	<path d="M616.26,332.71l0.1,0.1C616.24,332.81,616.26,332.83,616.26,332.71z"/>
	<path d="M829.76,393.54l0.1-0.1C829.84,393.49,829.81,393.54,829.76,393.54z"/>
	<path d="M566.14,86.8c0-0.01,0.01-0.02,0.02-0.03C566.2,86.79,566.2,86.8,566.14,86.8z"/>
	<path d="M450.79,491.48c1-0.6,2.2-1.3,3.1,0.8c-4,1.9-6.2,5.7-9.5,9.4c9.5,3.7,18.81,0.8,28.11,1.6c0.9-4.5,3.4-7.8,5.9-11.21
		c-2.3-1.15-6.22,7.98-1.9-7.4c3.5-12.45,0.52-11.59,5.1-29.31c1.36-5.27-0.72-8.96,2.3-17.71c5.79-16.76,12.29-16.32,21.21-22.01
		c5.5-3.51,11.71-4.82,18.01-4.2c4.39,0.43,48.27-2.04,55.93-1.8c41.13,1.29,59.77,3.18,69.73,1.3c11.48-2.16,7.8,2.12,26.41,2
		c8.1-0.05,16.1-1,24.21-0.8c0.6,0.01,1.6,0.6,1.8-0.1c-3.84-4.73-3.61-4.5-4.9-4.5c-46.97,0-29.37,1.84-50.42-1.3
		c-0.24,5.18-6.04,0.44-27.41,0.7c-0.1,0-17.57,1.54-33.52-0.9c-15.77-2.41-63.54,1.07-63.83,1.1c-32.5,3.8-60.76,0.22-62.83,0.1
		c-6.95-0.42-7.07-7.72-5.4-14.51c4.38-17.87,13.13-21.29,18.11-25.61c6.8-1.1,13.61-0.06,20.31-1.3c2.6-0.48,5.2-0.59,7.9-0.2
		c12.62,1.82,21.52-2.49,24.61,0.6c-1.54,0.77-17.46,2.3-21.81,1.5c-3.2-0.59-6.51-0.92-9.9-0.3c-6.91,1.26-13.91,0.4-21.21,1.6
		c-2.4,1.7-4.58,4.42-7,6.8c-9.16,9.03-12.06,24.18-7.9,29.51c45.53,3.39,29.25,1.6,44.12,0.7c108.46-6.57,86.82,1.79,115.35-1.2
		c-2.06-1.65-7.6-0.47-14.41-1.4c-28.18-3.87-35.83-1.33-49.72-8.6c-2-1.5-1.52,1.85-1.6,2.6c-0.76,6.85-0.73-1.89-1-3.9
		c-9.7-5.2-19.91-10.1-23.11-21.61c-3.3-1.3-6.5-1.2-9.7-2.2c3.2-0.6,6-0.8,8.6,0.4c0.7-4-0.37-7.51-1.1-11.01
		c-2.1-10.06,5.23-10.53,2.4-19.01c2.42-3.7-3.64-14.97-5.6-23.91c-5.5-25.03-12.26-36.4-12.71-43.22
		c-1.03-15.71-2.77-31.52-0.2-47.32c1.07-6.61,0.24-13.42,1.9-20.11c3.51-14.17,6.87-11.59,9.9-20.11
		c9.98-28.04,2.17-28.32,0.6-42.22c-0.19-0.75-4.51-7.01-4.6-16.71c-0.06-7.03-1.7-2.52-1.7-17.11c0-2.9,1.4-5.6,0.9-8.7
		c-0.3-1.9,2.1-2.6,2.7-4.1c-0.4-1.3-2-0.8-2.4-2.1c0.6-2.2,3.7-2,4.2-4.3c0.7,0.3,1.2,0.5,1.7,0.7c0.7-0.9,0.3-2.4,1.7-2.6
		c1-0.2,1.3,1.4,2.3,0.9c3-3.4,4.01-4.06,8.4-4.9c5.85-1.12,4.49-3.89,6.1-3.2c1.11,0.47-0.7,1.8,0.7,2.3c0.3,0,0.8,0.1,1.2-0.1
		c6.81-2.82,8.69,0.67,13.41-1.1c4.23-1.88,6.15-3.32,7-1.9c0.5,1.1-1,1.5-0.6,2.6c3.7-1,7.4-1,11.11,0.1c0.9,0.8,0.9,2.1,1.6,3.2
		c1.3-1.4,1.3-3.5,3.3-4.2c0.6,1.7,2.5,1.6,3.5,2.4c0,1.87-5.29,4.4,3.7,0.8c3.2,3.2,1.4,7,1.3,10.4c-9.37,5.44-12.1,0.29-6,14.11
		c1.19,2.7,1.8,5.4-0.9,7.7c7.57,14.6,8.39,12.82,3.9,17.31c-0.2,1.3,0.8,2.3,0.6,4.1c0,0.7-1.6,0.6-1.8,1.7
		c3.5,3.93-1,6.96,0.1,8.6c1.89,2.81,0.7,5.5,0.1,7.9c-10.15,6.21-19.52-3.1-13.01,18.81c7.23,0.85,16.37,0.92,22.21,6.1
		c18.42,16.32,3.61,19.46,22.31,22.31c3.8,0.58,7.61,1.39,10.8,3.8c4.11,3.09,9.1,5.1,11.71,9.8c9.84,0,22.04,1.68,30.91,6.2
		c19.94,10.16,17.63,6.93,35.52,13.01c9.23,3.14,3.66,1.59,18.11,5.2c2.4-1.3,5.4-1,7.1-3c2.2-2.6,4.9-4.1,8.4-3.7
		c0.9-2.2,3.3-2.8,4.1-5.1c2.3,0.9,4.6,0.6,6.6,1.6c0.3,1.4,0.1,2.9,0.8,3.5c20.19,9.34,26.41,9.73,26.61,16.61
		c0.12,4.3,0.2,8.6-0.4,12.11c6.44,7.43,17.48,3.68,33.72,5.2c3.66,0.34,3.4-2.97,7.2-1.1c11.19,5.51,83.89-0.37,86.04,3.5
		c-0.63,4.64-29.72-0.45-76.43,2.2c-5.93,0-9.68,6.36-15.41,1.5c-0.62-0.47-21.28-0.98-29.81-1.9c-5.57,6.03-3.62-4.82-5.5,14.91
		c-2.63-1.32-1.36-3.21-0.8-14.01c0.52-10.01-0.83-5.54-0.9-11.01c-0.18-13.03,3.55-10.36-6.4-13.21c-0.1,12.71,1.8,25.01-0.5,37.52
		c2.2,0.1,3.6,1.3,4.9,2.7c-2.1,0.5-4.11-1.03-6-0.2c-18.62,8.14-16.31,2.15-16.81,11.11c11.41-6,21.91-10,25.01-9.5
		c-0.7,1.75-16.69,4.36-28.61,14.81c-2.72,2.38-7.1,1.7-10.4-0.8c0.3-5.8,1.5-11.61,1.3-17.81c-8.06,0.98-9.04-6.79-17.01-9.1
		c-9.41-2.73-0.91-4.91-34.92-0.2c-28.97,4.01-39.69-7.61-49.42-8.8c-10.77-1.32-28.19,0.59-40.22-2.8c1.9,7.6,0.88,14.34-1.8,20.81
		c-1.41,3.4,2.09,4.32,2.8,15.41c4.6-1.7,6.3,1.9,9.3,3.8c-3.6,1.2-4.9-1.6-6.7-3c-1,0.2-1.8,0.4-2.4,1.7c2,6.4-0.4,13.51,2.3,19.91
		c-1.2,1.1-3.4,0.2-3.1,2.4c2,0.5,3.4-1.8,5.2-1.6c2.15,9.82-8.83,10.25-25.91,33.52c10.41-20.05,26.25-24.54,25.01-31.21
		c-4.1,1.4-8.3,2.3-12.01,4.1c-3.7,1.8-6.8,4.9-11.31,6.3c0.49-2.16,2.04-3.07,2.76-4.52c0.96-0.43-2.2-0.31-1.25-2.97
		c1.76,0.39,1.42,1.74,1.59,2.83c6.3-2.69,8.39-2.86,6.01-5.23c-1,0.2-0.6,1.4-1.3,1.8c-0.8,0-0.9-1.6-2.2-0.9
		c-0.8,0.7,0.3,2.2-1,2.9c-0.9-0.6-0.5-2.2-2-2.5c-1.7,0.4-3.6,0.8-5.2,1.1c-1.1,0.8,0,2.4-1.5,2.5c-0.7-0.3-0.2-1.2-1.2-1.4
		c0.78,1.56-1.46,2.08-1.03,3.57c0.02-0.01,0.07,0.02,0.12,0.02l-0.1,0.1c-0.04-0.08-0.04-0.1-0.03-0.11
		c-1.76-0.1-1.89-2.01-2.87-2.98c-2.2-0.1-0.9,3.3-3.9,3c-0.4-0.1,0.6-1.7-0.6-1.9c-0.8,0.2-1.8,0-2,1.2c0.4,0.8,1.7,0.1,1.8,1.2
		c-0.2,1-1.6-0.3-1.8,1c0.5,1.6,2.4,0.5,3.4,1.6c-1.8,0.6-3.3,0.4-4.9-0.2c1.5-1.9,1-2.9-1-3.6c-0.9,0.9,0,2.4-1.2,3.1
		c-0.2-0.8-0.3-1.5-0.5-2.1c-2.22-0.99-4.13,0.51-0.3,3.3c-1.1,1.2-2.2,1.5-3.7,1c0.5-1.4,1.1-2.9-0.3-4.1
		c-9.05,1.09-7.88-0.19-6.1,4.7c0.8,0.3,1.4,0.3,1.9-0.3c0.1-1.2-2.2-1-1.5-2.6c0.7-0.4,1.4-0.4,2.2,0.3c0.5,1.2-0.2,2.8,1.4,4
		c-2,0-3.5,0-5,0c-0.8-1.5-0.5-3.4-1.9-4.6c-0.8,0.9,0.9,1.9-0.3,2.8c-1.3-0.4-0.8-4.3-3.7-2.3c0,1.6,0.2,3.1,2.2,3.6
		c-2.8,2.1-5.8-1.1-8.1,1.3c-1.2-1.5-0.8-3.3-1.3-4.9c-3.72,1.06,2.37,5.99-2,11.21c-4.21,5.01,0.75,11.24,1.4,19.11
		c1.59,19.06,31.8,28.77,51.22,29.21c21.77,0.5,22.04,3.87,64.13,7c-1.52-4.86,10.51-45.85,15.11-54.52c1.91-3.6,2.8-7.8,2.8-11.91
		c-1.37-1.37-18.55-0.2-29.21-2.9c-2.68-0.68-2.62,1.93-8,1.3c-5.1-0.6-9.7-3.9-15.41-2.8c1.93-2.77,0.4-2.04,7.2-2
		c-0.21,2.47,4.44,1.69,7.6,2.8c5.15,1.8,4.31-2.63,11.31-7.4c-0.7,2.3-2.7,3.7-3.8,5.9c4,0.9,7.6,2.4,11.11-0.1
		c1.1,2.2,1.1,2.2,13.21,1.7c3.5-11.61,1.5-23.21,0.2-35.02c-3.8,0.6-7.2,0.12-10.6,0.2c-10.65,0.26-17.05,3.4-22.11,3.1
		c-4.5-0.27-7.9,2.2-11.71,3.8c0.7,2.8,1.4,5.3,2.1,7.8c-1.26,0.63-1.71-4.48-5-8.4c-2-0.1-3.5,1.5-5.5,0.8c2.4-1.2,4.6-3.41,7.7-2
		c1.86,0.84,7.17-4.36,15.11-3.9c3.15,0.18,14.08-3.11,19.51-3c23.48,0.45,20.62-1.03,28.01,0.2c10.58,1.76,14.3-5.52,21.51,1.2
		c5.1,4.75,6.5,3.94,7.5,6.8c1.94,5.56,7.29,2.76,12.21,10.7c5.53,8.93,18.05,14.68,24.11,21.11c8.15,8.64,10.2,7.26,20.01,15.21
		c16.88,13.67,8.39,4.52,15.01,0.6c4.9,1.6,8.8-1.82,13.21-3.3c3.3-1.11,6.68-2.42,9.1-5.2c2.42-2.79,5.18-3.22,5.31-3.09
		c-1.95,2.2,0.21,4.06,0.69,5.99c-1.8,1.9-3.3-2.5-5.3,0.1c4.03,3.67,2.8,3.52,0,5.2c-0.9-1.1-0.7-2.9-3-3.5c-0.3,0-1.1,0.6-2,1.2
		c0.9,2.3,3.4,4.6,0.1,7.2c-1.56-1.32-1.27-7.75-5.5-5.1c1.3,2.5,3.3,4.8,3.4,7.9c-10.38-10.87-3.55-3.87-15.01-5.1
		c-1.3,1.2-1.7,2.8-2.4,4.2c1.2,0.8,1.8-0.4,2.6-0.1c0-5.22,0.65-0.78,6.3,2.5c1.24,0.72,3.81,13.91,0.9,21.41
		c11.21,1.6,8.08,2.2,22.11-0.4c1.31-10.03,2.2-10.18,6.6-14.01c2.74-2.38,10.13-6.22,11.01-16.51c1.3-15.27,5.22-18.62-4-21.61
		c-2.48-0.8-4.73-3.2-11.61,7.1c-3.2,4.79-4.25,2.77-4.89,3.52c-0.1-0.1,6.59-10.98,13.2-13.52c3,0.5,5.7,2.5,9,2.4
		c0.6,1.2,1.3,2.4,2.1,3.8c3.3-3.9,6.7-7.4,8.7-12.21c6.5,4.2,9.3,11.11,13.11,16.51c-8.2,15.11-15.91,30.31-26.01,44.32
		c4.4,0.5,8.4-0.2,12.51,0.5c0.1-0.7-0.3-1.6,0.8-2c2.9,0.3,6.3-0.6,9.5,0.8c-2.72,1.63-8.1-0.04-9.4,1.5
		c-3.2,3.79-31.81,0.19-31.81,1.7c0.4,0.6,1.4,0.1,1.6,1.1c-9.65,2.6-58.97-3.81-60.13-1.5c20.41,18.56,16.63,21.11,31.31,21.11
		c16.43,0,19.93,2.45,26.71,0.7c2-0.51,4.3-0.3,6.3,0.8c-17.31,3.61-5.23,0.89-39.22,0.1c4.2,3.5,8.8,5.6,12.91,8.2
		c1.3-0.2,0.4-1.7,2-2.1c2.8,0.2,6.1,0.1,9.3,1.4c0.99-2.46,8.69-2.37,15.01-7.6c5.7-6.33,15.35-5.3,20.97-15.83
		c0.26-0.08,0.47-0.21,0.66-0.37c-33.58,1.39-41.88-1.31-1.72-1.31c0.86-0.1,1.72,0.09,1.88,1.17c4.89-4.73,8.73-9.2,15.73-5.47
		c1.9-1.7,2.3-4.11,3.7-5.7c14.33-16.27,9.62-25.68,21.11-4.2c5-0.2,10.1,1,15.61-0.3c0.5,0.2,0.1,1.6,1.7,2.3
		c1.5,0.5,4.1-0.3,6.2,1.8c-2,0.6-3.9-0.1-5.6,0.9c2.1,4,6,6.9,5.9,11.81c-2.8-5.2-7.1-9.3-9.5-14.91c-4.1,0.8-8.1,0.4-12.41,0.6
		c1.1,3,3.3,5.3,3.2,8c-0.4,1.6-2.4,1-2.3,2.5c2.76,4.82,6.67-1.83-2.5,15.71c3.9-1.1,7.4-0.4,10.9-0.2c3.4,0.2,7-1.1,10.5,1
		c-3.09,3.09-13.9,0.03-22.61,1c-9.2,16.41-21.91,30.71-29.41,48.52c2.21,2.21,7.57,9.53,6.4,11.49c-0.98-3.11-2.23,0.32-0.3,0.41
		c-1.81,2.11,7.13,11.57,11.81,20.02c12.14,21.94,15.65,23.97,16.01,27.21c-1.77,1.39-1.64,0.92-7.1-7.9
		c-29.17-47.1-17.57-27.83-22.81-36.72c-3.51,6.64-8.25,5.71-7.4,7.4c4,10.1,11.17,18.43,15.81,28.21c2.18,4.61,5.3,8.7,8.6,12.71
		c-2.54,2.11-1.02,1.77-7.9-7.2c-3.43-4.48-4.8-10-8.1-14.41c-2.31-3.08-11.06-15.35-10.8-19.51c-1.94-1.06-0.76,5.31-6.8-7.7
		c-1.3-0.7-2.5,0-3.5-1c0.8-1.2,2.5-0.1,3.1-1.2c0.7-3.2-4.3-2.9-3.5-5.8c5.9-2.2,7.6-7.4,10-12.51c-1.6-1-2.1-2.6-3.2-3.8
		c-1,0.5-2.1,0.5-2.8,1.3c-0.5,1.8,1.3,3.4,0.7,5.3c-1.5-0.7-0.7-2.5-2.1-3.1c-11.02,25.44-7.36,13.83-19.11,23.81
		c-7.15,6.08-7.03-4.65-20.71-10.7c-3.69-1.63-5.5-5.1-6.3-9.3c2.8,0.4,4.5,2.5,6.8,2.9c6.5-6.7,8.5-15.31,4.9-21.81
		c-1.9-0.3-3.9-1-6.1-0.9c-0.8,7.2-4.58,10.89-6.5,13.71c2,1.7,4.8,2.7,5.1,6c-1.8-1.2-3.53-1.88-5-3.3
		c-17.41-16.82-45.25-24.76-49.42-27.31c-4.41-2.7-9.87-1.39-20.11-5.4c-2.8-1.1-5-2.79-8.4-2.9c-5.5-0.18-11.1-0.69-16.51-0.1
		c-16.85,1.85-30.39-2.2-33.72-2.2c-0.94,4.68-83.26-3.65-113.45,0.2c-32.23,4.11-15.33-5.43-43.92,12.31
		c-11.46,7.1-11.15,42.81-15.71,58.33c-3.92,13.35,0.94,4.93,3.2,8c-2.7,4-5.3,7.9-8.1,12.01c-0.1,0.6,1.6,1,0.2,2.5
		c-9.1-0.6-18.61,2-28.11,0.5c-1.1-1.4-2-2.8-3-4.2C445.4,497.15,446.75,493.88,450.79,491.48z M518.42,118.71
		c-1.3,0.5-1.2,1.3-0.8,2.2C518.52,120.51,518.92,119.91,518.42,118.71z M519.72,100.5c-1,0.2-1.1,0.8-0.7,1.8
		C519.62,101.7,520.22,101.4,519.72,100.5z M520.52,113.21c-1.5,0.5-1.8,1.3-1.5,2.8C520.42,115.51,521.02,114.81,520.52,113.21z
		 M521.02,128.02c-0.6,0.6-0.8,1.2,0,2C521.62,129.32,521.82,128.72,521.02,128.02z M522.52,100.7c1.4-0.7,1.3-1.5,1.5-2.6
		C522.52,98.5,522.62,99.4,522.52,100.7z M780.14,271.38c9.3,1.2,18.71,0.4,28.01,1.5c-0.1-0.5-0.1-0.9-0.1-1.2
		C777.05,270.35,780.14,270.3,780.14,271.38z M525.02,130.72c-0.7,1.2-0.4,1.8,0.6,2.3C525.92,132.12,525.42,131.62,525.02,130.72z
		 M526.22,118.61c1.1-0.7,0.6-1.2,0.1-2C525.42,117.41,525.62,118.01,526.22,118.61z M525.52,92.8c-1.64,0.36-0.55,2.45,0.3,1.1
		C526.13,93.41,525.92,93.1,525.52,92.8z M526.72,111.91c0.4,1.3,1.2,1.8,2.8,1.6C528.82,111.91,527.72,112.01,526.72,111.91
		C526.72,109.29,524.13,111.91,526.72,111.91z M528.02,88.9c-0.36,0.36-0.49,0.84,0.4,0.4C528.22,89.2,528.12,89.1,528.02,88.9z
		 M528.72,87.9c1.2,0.4,1.6-0.3,2.1-0.9C529.92,86.5,529.22,86.7,528.72,87.9z M530.62,95.6c-0.8,0.8-1.2,1.6-1.2,2.7
		C534.73,99.36,532.86,98.39,530.62,95.6z M530.52,120.31c0.5,1.2,1,1.5,2.1,1.2C532.62,119.91,531.82,119.91,530.52,120.31z
		 M538.23,97.3c-0.6,1.2-2.1,1.8-0.8,3.3c1.1,0,1.6-0.6,2.3-1.5C539.23,98.4,538.83,98,538.23,97.3z M536.82,123.21
		c0.2,0.8,0.5,1.1,1.2,1.3C538.13,123.71,537.72,123.41,536.82,123.21z M540.53,112.61c-0.21-0.68-1.6-0.5-1,1
		C540.23,113.51,540.74,113.3,540.53,112.61z M540.53,118.11c1.1-0.3,0.7-0.9,1-1.5C540.33,117.01,540.63,117.51,540.53,118.11z
		 M543.43,111.21c1-0.1,1.2-0.6,1.3-1.6C543.43,109.71,543.13,110.31,543.43,111.21z M547.53,96.8c0.9,1.2,1.9,2.4,3.7,1.6
		C550.03,97.7,549.03,96.4,547.53,96.8z M548.03,114.41c1.2,0.1,1.2-0.7,1.8-1.7C548.43,113.01,547.93,113.51,548.03,114.41z
		 M551.83,109.61c4.85-4.51,4.24-3.57,3.5-4.3C553.83,106.41,551.83,107.01,551.83,109.61z M554.73,97c2.41,3.21,1.88,2.26,2.6,1.9
		C556.93,97.8,556.13,97.1,554.73,97z M556.63,84.9c0.7,1.1,0.7,1.1,1.8,0C557.53,84.5,557.03,84.5,556.63,84.9z M555.23,102.7
		c2.1-0.3,2.1-0.3,3.5-2.7C557.23,100.4,556.63,101.7,555.23,102.7z M571.94,87.6c-0.7-0.6-1.1,0.7-1.7,0.2c-0.8-0.4-0.7-1.3-1.4-2
		c-0.89,0-2.08-0.29-2.68,0.97c-0.26-0.08-2.05-0.27-2.52,0.93c1.1,0.56,1.32-0.67,2.57-0.9c2.35-0.07,3.44,1.52,3.93,3.5
		C571.84,89.9,572.34,89,571.94,87.6z M561.24,97.7c2.5,0.5,4.1-0.4,5.8-1.2C564.94,95.6,563.34,96.5,561.24,97.7z M577.44,84.6
		c-0.93-0.93-1.93,0.67-1.2,1.4C576.84,85.7,577.64,85.6,577.44,84.6z M566.44,176.14c-2.91-14.74-2.44-14.05,1.17-17.87
		c-0.38,0.18-1.76,0.42-3.97-0.84c1.68-0.59,2.78,0.18,3.87,0.78c0.1-0.03,0.16-0.04,0.19-0.03c0.02-0.02,0.03-0.03,0.04-0.05
		c3.39-0.72,15.61-0.05,12.81-7.2c-2.68-6.83,3.18-7.13-1-9.7c-1.5-0.1-2.2,2.3-4.2,1.2c1-3,5.09-1.81,6-4.6
		c0.39-1.2-0.8-2.2-0.4-3.8c-1.6,0.3-2.99,1.19-4.2,0.1c-0.79-0.71-0.9-1.4-0.3-2.6c1.3,1,2.8,0.81,4.3,0.6
		c4.91-0.7,3.94-1.88-2.4-11.51c-3.93-5.98,2.65-5.49-0.3-10.7c-1.78-3.16-3-6.6-3.5-10.5c-1.2-0.1-2.4-0.4-3-1.8
		c4.4,1.1,11.11-2.7,12.41-7.7c-4.23,6.48-14.87,7.73-17.71,10c0,1.1,1.2,0.3,1.5,1.1c-1.8,2-4.2,2-6.8,1.4
		c-1.64,5.03-23.55,22.7-12.81,28.61c-1.7,1-2.5-0.8-3.8-0.4c-1,0.4,0.1,1.7-1,2.3c-2.6-1.8-3-5.2-4.9-7.4c-2.6-1-5.2-1.9-7.9-2.9
		c-1.91,3.48-6.31,8.79-2.4,11.61c3.38,2.44,6,5.9,10.3,6.9c1.2,0.2,1.5-1.2,2.6-1.3c0,4.68-3.99,3.22-6.4,1.5
		c-0.99-0.71-2.1-1.1-3.4-0.9c-0.5,0.8,1,1.7-0.3,2.4c-1.6,0.1-0.7-1.9-2-2.3c-0.7,2.6-2.11,5.01-0.9,7.8c0.69,1.6-0.6,2.7-1.1,3.6
		c2.04,17.83,2.59,9.73-4.7,32.92c6-3.8,11.9-5.8,18.21-4.9c34.76,4.94,25.6,15.3,40.22,15.91
		C576.45,182.65,567.59,181.99,566.44,176.14z M527.22,135.52c0.7,1.8,1.3,2.7,2.4,3.2C530.02,137.02,528.72,136.72,527.22,135.52z
		 M581.14,192.15c2.44,8.29,1.56,3.98,10,15.91c-0.48-9.89-5.36-14.8-12.21-22.01C579.94,188.04,580.53,190.05,581.14,192.15z
		 M734.11,237.17c-5-1.33-5.13,6.49-14.51,6.1c0.6,1.1,0.8,1.6,1.1,2c-0.3,0.3-0.7,0.3-0.9,0c-3.79-4.42-6.98-2.5-12.61-4.1
		c-26.17-7.48-27.81-7.91-32.31-10.8c-5.79-3.73-12.5-5.12-18.61-7.7c-10.27-4.35-17.24,1.09-28.51-9
		c-9.47-8.48-16.97-6.16-24.31-10.8c-0.91-0.58-1.8-1.4-2.8-0.1c-4.39-5.48,0.8-0.69,0.8-2.7c-4.56-4.95-5.39-14.64-19.41-20.41
		c-2.52-1.04-18.67-4.41-7.5,0.6c6.17,2.77,10.7,7.1,13.51,13.11c3.5,7.5,6.64,15.03,8.1,23.21c0.53,2.98,3.99,1.85,7,4
		c-2.79,1.71-6.95-1.89-4.6,2.8c7.8,2,15.71,3.6,23.41,5.9c8.01,2.4,12.91,9.3,20.31,12.61c10.55-1.93,30.09,2.42,39.52,8.7
		c1.99,1.33,20.46,4.43,24.61,4.8c5.16,0.46,10.92,4.03,17.21,1.6c5.91-2.28,11.21-5.8,11.51-13.51
		C733.31,241.97,734.21,239.57,734.11,237.17z M733.11,252.67c1.2-0.1,1.2-1,1.5-1.9C733.71,251.07,733.31,251.67,733.11,252.67z
		 M735.62,238.27c1,3.1,1.1,3.1,7.6,2.4c0.5-0.4,0.2-1,0.2-1.8C740.92,239.07,738.32,240.27,735.62,238.27z M740.42,232.26
		c0.5,1.1,1.2,1,2.2,1C741.92,232.16,741.22,232.46,740.42,232.26z M738.82,234.36c-1.1,1.1-1.9,1.9-1.8,3.4c1.5,0,1.6-1.6,2.6-1.8
		c1.7-0.7,3.6,1.7,5.6-0.7C742.72,234.86,740.82,234.56,738.82,234.36z M736.72,243.57c1,3.1-1.1,5.6-1.2,9.1
		c3.9-2.5,7.7-1.6,11.61-0.9c1-3.2-0.2-6.1,0.1-9.5C743.82,243.67,740.42,243.57,736.72,243.57z M746.52,237.87
		c2.9,3.4,6.8,2.8,10.1,4C753.52,240.57,750.82,237.97,746.52,237.87z M770.03,249.37c0.8,0.18,1.8,0.7,2-0.8
		c-7.6-2-15.01-4.2-22.61-7C750.62,243.77,760.57,247.19,770.03,249.37z M763.33,249.87c-4.8-1.8-9.6-3-14.31-5.3
		c-0.9,2.3,0.8,4.4-0.4,6.6c4.3,1.5,4.1,5.6,5.2,8.9c0.1,0.3,0,0.3-1.7,1.3c-1.09-1.64,0.29-8.08-2.7-1.5c1.2,1,2.51,2.09,4.3,2.6
		c2.71,0.78,4.07,7.18,2.2,9.6c-2.68,3.47-0.96,4.54-3.6,6.5c-7.65,5.71,1.13,3.95,10.7,7
		C766.01,272.58,763.33,277.93,763.33,249.87z M748.02,284.49c1.3,1.2,2.9,0.8,4.4,0.8C750.92,284.99,749.52,284.79,748.02,284.49z
		 M758.43,286.69c-1.9-1.5-4.1-0.8-6-1.5C754.12,286.49,756.12,286.79,758.43,286.69z M747.52,293.69c18.17-5.49,16.3-3.84,0-6.8
		C747.52,289.19,747.52,291.19,747.52,293.69z M743.82,304.3c0.9-6,2.2-11.91,1.5-18.11c-2.8,2.3-6,1-9.1,1.7
		c-1.3,5.6-0.1,11.31-1.2,16.81C738.22,306.1,740.92,304.8,743.82,304.3z M608.46,265.78c7.22,2.16,14.41,0.25,21.61,0.3
		c4.84,0.03,4.07,5.16,10,3.8c2.46-0.56,4.9-0.03,7.34,0.18c-1.11,1.85-3.07,0.13-4.44,0.92c0.93,0.93,19.32,8.05,34.12,5.8
		c6.05-0.92,13.55,0.45,22.21-2.8c15.49-5.82,26.4,12.61,34.82,12.01c13.23-0.95,8.1-1.48,8.1-3.1c1.8-1.9,7-0.5,5.9-5.8
		c0.48-0.08,5.46,0.62,4.4-3.6c-2.79-3.14-3.67-0.8-2.2-3c1.1-0.2,1.6,1.1,2.9,1c3.3-1.9,0.8-4.6,0.8-7.1
		c-5.2-1.1-8.6-5.8-13.91-6.5c2.6-0.6,4.9,0.6,7.3,1c1.2-0.6,1.7-2.4,3.4-2.2h-0.1c0-3.79-2.79-2.72-6.3-3.5
		c-2.7-0.6-5.1-0.5-7.9,0.8c-19.07,8.87-31.24,4.61-55.33-0.6c-8.77-1.9-14.24-6.99-27.31-9c-16.58-2.55-12.38,1.27-15.61,0.2
		c-0.7-1,0.5-1,0.8-1.8c-27.44-20.05-41.69-11.77-43.82-22.61c-1.29-6.55-4.65-7.31-7.2-10.8c-10.99-15.01-8.73-13.54-28.41-14.81
		c-1.16-5.24-25.07-3.38-27.41-2.7c-8.72,2.52-11.55,12.69-12.51,21.71c-2.53,23.93-6.03,36.97,22.61,56.43c1.7-1.9,4.1-2.3,5.8-4
		c0.9-0.9,1.8-0.4,2.4,0.7c-0.6,3.2-4.7,1.1-5.7,3.9c1.4,1.5,3.4,1.6,4.8,2.2c1.2,0.1,0.9-1.1,1.6-1.3c0.9-0.2,1.3,0.9,2.6,0.8
		c6.5-3.9,11.11-9.9,13.41-17.71c-2.35-1.96-1.95-1.57-2.9-2.2c-4.92,10.24-7.16,7-2.6-1.8c-1.7-1.1-3.5-2.2-5.3-3.4
		c-1.8,0.6-3.1,2.4-5.7,2.2c1.3-1.2,2.4-2.2,3.6-3.3c-3.9-3-8.2-4.8-12.61-6.5c1.97-2.58,11.82,3.2,14.51,5
		c13.04,8.71,15.81,7.56,22.81,12.91C592.35,267.63,604.92,264.72,608.46,265.78z M588.25,329.51c1.4,0.1,2.4-0.4,3.4-0.9
		c0.2-1.1-2.2-1.6-0.4-3.2c-2.2,0.3-3.9,0.8-5.4,1.9C587.55,327.11,588.15,328.11,588.25,329.51z M585.45,330.41
		c0.6,0.4,1.1,0.2,1.6-0.3c0.2-1.1-1.3-1.6-1.1-2.7C584.65,327.41,584.65,326.81,585.45,330.41z M531.02,339.71
		c1.56,0.52,1.05-2.01,0-0.6C530.92,339.31,531.02,339.51,531.02,339.71z M530.72,337.51c10.6-0.53,60.78-9.11,61.23-17.31
		c1.28-23.54-6.57-26.05-3.7-34.82c1.94-5.92,3.2-12.01,2.4-18.51c-7.8-2.6-14.31-7.6-21.61-11.61c-1.52,3.55-1.1,9.52-12.01,18.21
		c-0.61,0.49-1.9,0.7-1.8,2.1c-0.3-0.1-0.6-0.3-0.9-0.3c-12.58,0.14-12.78-2.11-15.11-3.4c-7.5-5.1-13.5-11.81-18.61-19.21
		c-6.68-9.68-6.06-36.01-0.5-52.22c5.57-16.24,33.79-13.56,42.92-8.5c1.61,0.89,3.2,1.2,5.6,0.8c-6.3-3.7-12.01-7.3-18.71-9
		c-5.68-1.44-23.73-4.02-30.41,6.2c-7.41,11.34-7.62,11.4-8.7,24.91c-1.68,20.81-4.02,50.32,3.7,71.33
		c11.16,30.38,7.55,31.01,10.3,34.02c0.9-1.7,0-3.7,1-5.8c1.3,3.3-0.3,6.7,1.8,9.2c-0.3,0.9-1.1,0.3-1.6,1.1
		C528.22,328.51,528.02,333.41,530.72,337.51z M819.15,384.63c10.3-13.61,18.11-28.81,26.41-44.12c-2.5-4.9-6.1-9.5-10.5-14.11
		c-2.3,4.4-5.6,7.8-8.6,11.41c2.6,3.5,5,6.9,6.4,10.9c-2.5-2.4-4-5.4-6-8.2c-3.2,5.3,1.6,8.3,3.2,12.31c-1.4-1.6-2.9-3.1-4.5-4.9
		c-1.3,2.2-1.4,4.2-0.4,6.3c4.46,9.39,3.47,7.69-0.9,1.3c-1.2,10.79-5.02,5.56-1,13.61c-1.8-0.6-1.9-2.2-3.2-3.1
		c-5.08,6.21-1.5,3.12-1.5,6.3c-1.4-0.1-1.6-1.6-2.9-2.3c-2.1,1.2-4.4,2.4-5,5.2c-2,0.3-2.79,1.9-2.7,3.5
		C808.38,386.56,800.88,384.63,819.15,384.63z M646.37,404.54c5.6-0.3,11,1.79,16.61,1.2c42.26-4.44,37.22,10.95,18.41-24.31
		c-9.8,7.6-20.71,11.61-32.61,12.51C646.67,399.04,646.07,402.04,646.37,404.54z M779.54,385.53c3.3-6.1,1.4-12.01,0.4-17.91
		c-2.4-0.7-4.5-1.2-7-1.9c3,8.5,1.1,14.81-7.4,18.61C770.33,384.93,774.93,384.23,779.54,385.53z M765.03,382.53
		c10.87-10.38,4.86-7.41,3.4-11.31c1.4-0.3,2,1.1,3.4,1.1c1.1-2.3-0.6-4.8,0.3-7.3c-10.9-4.7-19.22-13.29-29.31-19.21
		c-1.7-1-2.68-2.63-4-3.9c-13.02-12.51-12.54-8.54-21.41-17.41c-13.94-13.94-14.83-12.44-16.61-16.61c-0.86-2.03-1.1-0.54-7.6-6.7
		c-5.56-5.27-8.3,1.88-19.91-0.1c-4.99-0.85-9.8-0.4-15.01,0.1c2.6,11.81,2.9,23.21-0.6,34.62c5.62,1.51,13.43,0.83,21.51,0.1
		c24.74-2.22,21.38,9.32,26.71,13.41c2.66,2.03,2.83,2.69,9.6,11.01c6.16,7.56,10.72,2.64,16.21,4.7
		c3.35,1.26,24.93,12.69,27.81,14.81C761.03,380.93,762.23,382.93,765.03,382.53z M760.43,384.83c4.67,0.12-13.29-9.33-19.91-12.31
		c-12.38-5.57-8.35-5.92-17.71-5.4C745.2,387.58,735.86,384.22,760.43,384.83z M843.56,389.14c0.1,0.9,0.4,1.6,1.6,2
		C845.16,389.84,844.56,389.34,843.56,389.14z M871.08,381.33c-2.82-4.49-4.4-9.6-7.6-14.31c-0.8,1.2-1.5,2.2-2.1,3.2
		c20.31,37.64,2.63,9.41-0.7,1.4c-5.57,10.13-13.64,15.14-10.5,19.81c4.3,6.39,3.43,15.62,4.3,17.71c-2.27-0.76,0.06,1.16-3.8,18.81
		c9.63-12.67,14.88-27.7,20.91-36.32C874.58,387.34,873.16,384.64,871.08,381.33z M832.56,475.07c7.8,1.5,10.1-4.5,13.11-9.7
		c-1.3-1.8-2.6-3.6-4.3-5.9c0.2,7.5-5.1,9.1-10.1,11.21C831.36,472.17,832.06,473.57,832.56,475.07z M830.96,467.77
		c5.7-1.2,8.5-4.1,8-8.5c-2.3,3.1-3.9,7.1-8.8,5.6C829.86,466.27,830.26,467.07,830.96,467.77z M829.26,462.17
		c4.6,0.7,4.72,0.31,7-3.1c6.15-9.18,10.3-19.61,17.11-28.31c7.63-9.76,15.96-24.79,22.61-36.92c-2.77-5.09-3.88-0.27-9,10.1
		C856.72,424.71,829.58,461.91,829.26,462.17z M835.56,449.26c2.3-3.4,4.4-6.3,6.4-9.2c-3.1,1.1-5.7,2.9-8.3,4.9
		C833.56,446.66,834.66,447.76,835.56,449.26z M787.04,430.25c1.4,1,3,1.1,4.4,1.4c2.7-1.9-2-5.6,1.8-7.5c1.5,4.7,2.53,9.09,4,13.41
		c2.25,6.59-2.4,16.81-8.9,20.61c-3.65,1.82,2.3,1.53,8,6.5c2.78,2.43,5.4,4.9,8.4,7.6c11.81-9.11,13.95-4.28,17.81-19.71
		c6.62-19.87,26.04-0.78,29.31-44.52c0.46-6.13-2.72-16.89-5.8-16.21c-0.3,1.3,1.7,1.4,1.4,2.7c-4.1,0-6-2.5-6.9-6.4
		c-6.35,1.59-9.74,12.82-18.61,15.91c-2.39,0.83-3.8,3.3-6.9,3.6c2.8,3.2,5.4,6.2,4.6,11.21c-3.9-2.7-4.8-6.5-6.5-10.2
		c-0.9,0.8-1.8,1.7-2.8,2.6c2,3.4,4.9,6.5,3.7,11.21c-5.19-3.17-5.52-12.58-8.7-7.8c2.2,3.5,5,7,3.7,12.31c-3.6-3.3-5.3-7.2-7-11.31
		c-1.4,0.4-2.6,0.7-4.2,1.2c3.3,4.1,6.3,8.2,4.2,13.71c-4.7-2.7-5-8-7.5-12.11c-2.6-0.1-5.4,0.4-8.5-0.4
		C786.54,422.35,785.44,426.45,787.04,430.25z M744.12,425.25c16.13,8.62,25.63,11.12,34.32,19.81c1-0.4,1-1.4,1.5-2.2
		c-1.6-1.8-3.8-2.8-5.4-5.4c2.8,0.7,5.1,1.3,7.3,2.9c1.9-3.9,4.2-7.4,1.6-11.71c-8.9-3.56-1.65-2.15-0.5-2.4
		c-0.95-8.98,6.64-2.31-10.2-12.01c-15.37-8.85-13.72-11.19-36.82-31.41c-8.64-7.56-17.41-15.11-25.11-23.71c-2.7,0.6-4.2-1.8-7-2.7
		c3.63-1.27,10.07,4.53-2.1-9.1c-1.1-3.1-3.8-5.1-5.1-8c-2.1-0.4-4.09-0.52-5.8-1.7c-2.37-1.63-9.95,1.7-27.11,1.7
		c-0.9,5.7-1.5,11.4-4.1,16.51c-5.71,11.2-6.6,23.81-11.01,36.02c5.1-1.4,9.61-2.1,13.91-3.6c4-1.4,7.7-3.51,11.81-4.4
		c2-0.43,7.35-9.68,15.41-3.6c-3.07,0.28-7.44-2.63-5.6,1.1C705.44,424.64,720.77,412.77,744.12,425.25z"/>
	<path d="M10.88,497.38c-4.1,2.1-6.4,5.8-9.6,9.5c9.4,4.1,18.81,0.6,28.11,1.7c0.7-4.8,3.5-7.9,5.8-11.41
		c-2.82-0.85-5.57,8.55-1.6-8.2c3.31-13.98,1.29-12.14,4.9-28.31c1.43-6.4-0.58-8.69,2.1-17.11c5.42-17.02,12.28-17.3,22.01-23.01
		c11.16-6.55,20.76-3.13,25.41-3.6c58.87-5.91,100.68,2.01,117.65-0.9c12.47-2.14,8.84,2.29,28.51,2c7.27-0.11,5.32-0.8,24.21-0.8
		c-3.94-4.6-2.33-5.06-14.01-4.8c-35.34,0.78-23.35,1.62-41.32-1.1c-0.78,4.86-4.98,0.6-19.31,0.9c-25.41,0.53-19.82,0.93-38.22-0.7
		c-41.62-3.7-27.17,0.2-62.73,0.2c-1,0-2,0.12-3,0.3c-10.68,1.97-21.62,0.85-32.41,2c-10.71,1.15-21.61-1.19-32.41-1.7
		c-11.5-0.54-5.05-24.94,6.5-35.12c2.13-1.87,4.7-3.1,6.6-5.2c0.1,0,43.22-1.91,52.32-1.5c-0.4,1.7-1.3,1.7-2,1.7
		c-30.54,1.86-22.42-0.69-27.71,0.3c-7.49,1.4-15.21,0.5-22.91,1.6c-19.12,14.53-19.58,36.42-13.41,36.82
		c37.5,2.4,7.66,3.28,107.25-3.1c7.98-0.51,32.2,3.73,49.52,2.1c-0.1-0.03-32.77-3.53-40.62-3.8c-12.92-0.45-22.46-6.22-24.01-6.3
		c-0.6,1.8,0.1,3.7-0.7,5.6c-0.8-2.2-0.3-4.3-0.7-6.5c-9.6-5.3-19.71-10-23.01-21.61c-3.92-1.31-7.61-1.85-10.42-1.91
		c2.53-0.23,5.88-1.6,9.32,0.21c0.4-3.7-0.28-7.01-1-10.3c-2.17-9.93,2.4-10.99,2.4-12.71c-0.3-2.1-1.8-3.3-1.8-6
		c10.7-0.9,20.11-6.3,30.61-8.7c-1.6-2.6-2.8-4.7-4.9-7c14.83,6.74-4.79,9.51,33.62-7c3.37-1.45,2.8,2,6.4-1.6
		c-1.8-4.1-3.5-8-5.3-12.11c-1.3,1.1-2.4,2-3.5,2.9c2.3,2.3,4,4.5,3.2,8.1c-2.2-0.9-1.9-2.7-2.2-4.1c-1.58-7.44-7.85-2.29-7.6-12.11
		c0.36-14.28,0.43-10.53-9.3-9.6c-28.19,2.67-23.8,20.05-61.13,35.12c-7.41,2.99-15.12,5.17-22.61,7.8c-2.81,0.99-6.4,0.5-8.8-2.3
		c-10.93-12.72-7.74-13.55-10.5-17.91c-10.47-16.48-12.38-44.1-8.5-53.12c0.48-1.11,0.59-2.5,0.1-3.6c-1.52-3.39-1.79-7.11-3.1-10.5
		c-5.8-14.99,1.57-25.2,1-28.41c-3.28-18.6,9.58-16.84,10.6-25.81c1.01-8.89,9.42-17.19,6.8-24.51c-0.1-0.1,0-0.2,0-0.3
		c0.5-5.8-1.42-11.42-0.6-17.11c0.17-1.15-3.13-7.78-1.2-18.21c1.12-6.09-1.1-4.19,1.7-17.11c0.61-2.8,2.3-5.1,2.5-8.1
		c0-1.8,2.6-2,3.4-3.5c-0.2-1.2-1.9-1-1.9-2.4c1.1-2,4.1-1.1,4.9-3.1c0.9-0.1,1,0.8,1.8,0.6c0.6-0.6,0.6-1.81,1.7-2.1
		c1.2-0.31,1.2,1.6,2.5,1.3c7.37-5.98,11.3-0.63,15.31-5.4c1.6,1-0.5,1.8,0.6,2.6c2.12,0.71,4.87-1.34,8.3,0.4
		c7.2,3.65,11.61-1.43,13.21,0.4c0.9,1.4-1.1,1.7-0.6,3c2-1,3.8,0.5,5.8,0.1s2.9,2.3,4.7,1.8c1.2,1,0.7,2.5,1.4,3.5
		c1.5-1.2,1.9-3.2,4.2-3.4c-0.2,2,1.9,2,2.7,3c-0.11,1.36-5.19,3.44,2.9,1.7c3.81,1.98,0.12,8.45-0.1,10.4
		c-8.99,3.65-12.21-2.34-8.8,12.21c0.75,3.19,0.9,6.1-2.3,8.1c5.07,15.71,5.54,13.81,0.5,17.71c-0.4,1.2,0.3,2.4-0.2,3.7
		c-0.2,0.9-1.6,0.6-1.9,1.7c1,2,1,4.1-0.8,5.9c-3,2.5,1.68,1.38-2.2,9.9c-5.2,2.5-10.8-0.7-15.71,2.4c0.1,1.8,0.2,3.4,0.3,5.1
		c2.1,0.8,3,3,4.4,4.7c1,0.5,2.1-0.09,3.2,0.5c2.42,1.3,18.67,8.85,22.31,13.41c6.05,7.58,17.95,24.61,14.01,33.42
		c2.1,3.5,4.2,7,6.3,10.5c1.1-0.7,2.58-0.91,2.9-2.2c0.72-2.91,3.75-3.08,8.3-4.5c0.3-1.1-0.1-2.3,1.3-3.3c3.3-0.2,6.6,0.7,9.8,2.2
		c-0.1,2.7,0,5.1,0.4,7.5c6.22-0.98,15.91,3.25,21.21,1.9c0.83,0,0.18,1.21-0.1,1.9c-4.6,0.4-9,1.91-13.51,2.9
		c-14.35,3.16-8.61,1.69-11.51-1.5c-2.2,0.3-4.7,1.1-7,0c-1,1.2-1.2,2.5-1.6,4.1c25.76,2.42,32.89-7.16,37.32-5.8
		c-2.3,2.1-5.5,2.1-7.5,4.3c0.31-0.31,0.62-0.11-10.8,2.9c2.2,4.6-0.81,8.6-0.5,12.81c0.17,2.25-4.27,3.43-4.93,0.52
		c-0.39,0.31-0.52,1.11-1.37,0.68c0.09-1.04,0.77-0.8,1.34-0.79c-1.55-10.88-0.02-5.75,4.46-9.11c-0.6-1.2-0.2-2.6-1.3-3.9
		c-3.7,0.5-7.5-0.7-11.31,0.3c-1.96,0.52-8.41,0.2-7.5-2.8c0.81-2.7,2.9-4.9,3.1-7.9c1.4,0.6,1,1.7,1.5,2.5c0.8-2,0.8-3.7-0.2-5.7
		c-15.07,9.42-4.05,3.05-16.01,19.61c-7,9.7,0.76,9.44-20.51,18.01c-17.42,7.02-19.04,8.79-27.71,7.6
		c-13.96-1.91-13.05,0.94-15.61-1.9c1.1-0.4,1.8-1.1,2.1-2.2c1,0.6,1.6,1.7,2.7,1.1c10.97-40.89-2.13-32.09,11.01-45.22
		c3,3,6.1,5.5,10.4,6.9c-6.57-29.58-26.97-45.65-35.22-47.02c-4.01-0.67-7.7-3.6-11.71-3c-4,0.6-7.79,2.85-11.81,4.2
		c-3.09,1.04-4.89,3.11-6.4,5.9c-1.69,3.11-1,6.3-0.8,9c0.3,1.2,1.5-0.1,1.5,1.4c-4.34,5.61-7.46,17.62-4.3,26.31
		c7.95,21.88,0.89,13.72,3.2,36.22c0.62,6,0.2,12.1,1.9,18.11c0.93,3.29,8.07,21.08,15.61,31.31c5.79,7.86,16.79,0.17,22.61-1.7
		c38.86-12.45,35.6-28.37,61.43-36.82c16.04-5.25,22.72-1,27.41-4.8c-2-1-0.8-2.3-0.7-3.4c0.8-0.5,1.49,0.6,1.9-0.3
		c0.78-1.71,0-2.8-1.6-3.5c1.2-1.3-0.2-2.8,0.6-4.1c3.26,0.62,0.55,7.08,3.6,0.2c-0.4-1.2-2.3-1.2-1.2-3.2c1.3,0.4,2.5,0.9,3.6,2.7
		c-2.1,3.4-1.4,8.1-4.3,11.71c-1.26,1.89,0.18,8.77,0.8,10.5c6.7-1.8,12.81-5,19.61-6c-17.67,9.98-19.81,5.26-19.81,10.1
		c0,3.11,12.77-7.29,27.71-9.1c-9.1,4.6-18.81,7.9-28.01,12.41c3.1,5,5.8,10,5,16.51c0.3,1.4,2.5,1.8,3.1,3.4
		c-0.9,1.1-1.9-0.5-2.9,0.5c1.7,2.3,5.6,1.1,6.9,4.5c-2.5-0.5-4.4-2.3-6.8-1.9c-4.1,3.9-11.31,7-15.61,6.5
		c8.83-6.08,17.69-8.22,13.21-9.5c-0.5,0.3-0.2,1.3-1,1.5c-3.83-1.04-3.15-1.07-3.5,0.7c-1.4,0.3-1.1-1.6-2.2-1.4
		c-0.6,0.7,0.2,1.7-0.6,2.2c-0.7-0.1-0.7-1.2-1.6-0.9c-0.4,1,0.5,2.1-0.5,3.1c-0.6-0.8-0.6-2-1.6-2.5c-0.7-0.1-1.4,0.4-2.1,0.6
		c-1.22,0.61,1.16,1.58-0.3,4.5c-1-1-1-3-2.8-3.3c-1.8,1.3,1.1,3.7-1.2,4.9c-1.15-1.4-1.39-5.39-3.8-2.5c0.1,1.5,1.1,3.1-0.2,4.7
		c-0.9-0.3-1.7-0.6-2.7-1c0,2.9-3.2,1-4,3c-0.4-1-1.6-1.4-1.3-2.3c1.1-1.5,2.3,0.4,3.2-0.6c-0.1-0.6,0.1-1.2-0.6-1.6
		c-3.3,1.3-6.2,3.5-9.7,4.3c0,1.5,1.5,2.1,1.4,3.5c-1.8-0.7-2.6-2.9-4.6-2.5c-0.9,0.4-0.1,1.3-1,1.8c-1-0.6-2.1-1.7-3.4-0.2
		c0.6,1.6,2.1,3,1,5c-1.3-1-1.1-3.1-2.8-3.5c-0.9,0.9,0.3,2.1-0.7,2.7c-1.7,1.6-2-0.6-3-0.9c-0.7,0.9,0.8,2.1-0.4,2.9
		c-1.2-0.5-1.2-2-2.4-2.2c-2.1,0.3-0.5,2.4-1.6,3.1c-0.9,0-0.6-1.3-1.5-1.4c-0.3,0.6,0,1.5-0.8,1.8c-1.1-0.9-0.3-2.9-2.2-3.1
		c-0.8,1.2,0.4,2.4-0.1,3.5c-1.1,0.2-0.7-1.3-1.9-1.2c0.4,2.1-0.08,4.22-1.5,5.8c-4.2,4.7,0.85,10.18,1.5,18.71
		c1.38,18.1,29.29,28.34,47.42,29.01c14.11,0.52,28.01,2.5,41.82,5.1c8.5,1.6,17.21,1.4,25.91,2.3c0-4.87-1.36,1.16,6-26.91
		c8.45-32.21,11.56-26.48,12.21-39.32c-1.97-2.25-14.21-0.1-28.91-3c-3.27-0.65-2.11,1.55-8.9,1.1c-5.01-0.33-9.3-4.1-14.91-2.4
		c2-3.8,5.7-1.3,8.2-3.1c0,0.8-1,1.1-0.6,2c2.2,1.3,5.1,0.7,7.5,1.7c4.68,1.95,4.02-2.27,11.21-7.5c-0.6,2.5-2.9,3.8-3.7,6.1
		c3.9,0.9,7.7,2.4,11.31-0.6c0.89,2.38-4.77,2.1,12.81,2.1c3.4-11.71,1.5-23.31,0.2-35.02c-3.7,0.6-7.1,0.38-10.5,0.1
		c-6-0.5-16.4,2.81-23.11,3.1c-4,0.17-7.4,2.1-10.7,4.1c2.21,8.83,2.58,7.38,1.3,7.8c-5.05-14.22-5.21-6.15-10.2-7.6
		c3.1-1.9,5.7-3.5,8.9-1.9c15.98-6.9,7.64-2.7,19.51-4.8c4.89-0.86,9.6-2.59,14.71-2.3c7.2,0.41,14.4,0.36,21.51-0.4
		c2.78-0.3,10.03,2.26,18.71-0.9c2.2-0.8,5.22-0.41,6.9,1.2c3.53,3.37,8.73,5.03,10.6,10.1c0.48,1.31,2,1.71,3.2,2.2
		c3.2,1.31,5.91,3.4,7.8,6.4c5.52,8.77,17.75,14.97,22.81,19.91c13.73,13.4,9.06,6.56,21.11,16.31c17.05,13.79,8.76,4.74,15.41,0.7
		c3.6,1.5,6.91-0.88,10.3-2.2c4.81-1.87,9.9-3.41,13.31-7.8c1.02-1.31,2.7-1.39,3.09-1c6-6.04,6.07-10.47,13.92-14.01
		c3.1,0.6,5.8,2.5,9.1,2.4c0.7,1.1,1.3,2.3,2.1,3.7c3.3-3.9,6.6-7.4,8.7-12.11c6.5,4.1,9.2,11.01,13.11,16.51
		c-8.4,15.01-15.91,30.31-26.31,44.52c4.6,0,8.5,0,12.41,0c1.1-2.1,7.7-2.7,11.01-0.7c-3.02,1.65-8.34-0.23-9.7,1.3
		c-1.41,1.59-3.3,1.6-5.2,1.6c-35.59,0-24.72-0.22-25.11,1.1c-10.24,3.41-17.21-1.8-60.03-1.8c14.82,13.83,17.04,21.68,29.91,21.41
		c15.77-0.33,19.1,2.15,25.01,1.1c5.61-1,10.97,0.14,7.2,0.9c-14.65,2.96-11.82-0.52-37.02-0.2c4.4,3.5,8.9,5.7,13.21,8.2
		c0.5-0.9,0.2-1.9,1.5-2.4c14.77,1.58,5.88,1.34,12.81-0.6c13.01-3.65,3.72-2.3,24.01-12.81c3.89-2.02,6.3-5.1,9.8-8.4
		c-10.4-0.3-20.11-0.6-29.71-0.8c3.37-0.23,26.93-1.79,29.91,0c7.7-7.5,8.3-7.6,16.11-5.8c2-1.3,2.2-3.81,3.6-5.4
		c9.63-10.93,9.18-16.72,13.51-16.41c6.7,6.4,6.7,16.11,12.31,22.51c-0.4,1.6-2.2,1-2.2,2.3c0.2,1.4,2.5,1.5,1.7,3.3
		c-1.3,0.2-1.7-1.5-3-1.4c-3.06,4.9-8.94,18.13-16.51,30.21c-1.49,2.37-26.27,39.5-27.01,40.42c3.3,1.2,5.13-0.39,6.2-3
		c1.03-2.49,2.8-4.4,4.3-6.6c5.6-8.21,9.53-17.39,15.81-25.41c7.43-9.48,13.31-20.21,18.61-31.01c2.81-4.69,0.88,3.07-0.1,4.7
		c-24.67,40.93-11.58,15.18-33.22,54.72c2.63,2.73,8.77,10.55,5.86,13.05c0.55-1.25,0.07-1.13-5.26-8.74
		c-0.6,5.83-4.71,9.35-10.4,10.4c-0.2,1.6,0.7,2.9,1.1,4.2c11.82,2.45,11.18-11.25,13.55-8.29c-0.39,3.57,9.17,13.17,17.88,30.2
		c0.61,1.2,0.9,2.2-0.9,3.1c-4.9-10.2-11.31-19.31-17.71-28.71c-7.32,12.34-14.67-5.6,10.3,38.62c0.62,1.09,1.2,2.1-0.4,3.1
		c-2.41-1.88-5.97-10.87-7.3-12.81c-6.79-9.86-13.47-19.11-12.21-22.01c-1.3-1-1.3,1.3-2.5,0.4c-1.7-2.4-3.4-5.1-4.2-7.4
		c-1.3-1.7-2.9-0.4-3.7-1.8c0.8-0.9,2.2,0.1,2.9-1c1-3.3-4.7-2.9-3.6-5.6c5.9-2.8,7.8-7.8,9.9-12.61c-1.1-1.4-2-2.6-2.9-3.8
		c-5.89,0.98-1.38,3.06-2.1,6.5c-1.7-0.5-0.7-2.6-2.2-3.3c-1.1,2.8-2.79,5.21-3.6,8.1c-1.58,5.61-4.42,10.06-10.2,12.21
		c-5.12,1.9-6.13,6.22-10.5,5.3c-4.8-4.6-9-9.52-15.21-12.31c-3.8-1.71-5.7-5.1-6.6-9.5c2.8,0.3,4.4,2.5,6.8,2.9
		c6.7-6.7,8.7-16.01,4.7-22.01c-12.24-2.04-0.11-0.73-12.51,13.01c2.1,1.7,5,2.7,5.1,5.9c-3.5-1.4-5.41-4.39-8-6.7
		c-10.19-9.11-27.6-15.54-48.22-24.61c-2.16-0.95-7.83-0.61-17.41-4.1c-3.21-1.17-5.8-3.32-9.6-3.4c-5.3-0.12-10.7-0.68-15.91-0.1
		c-17.89,1.99-31.37-2.2-33.92-2.2c-0.4,0.5,0.2,1.1-0.5,1.5c-53.78-2.8-134.47-2.23-140.56,1.4c-13.52,8.05-23.19,11.1-24.81,26.61
		c-0.65,6.26-8.67,46.77-8.5,49.02c1.5,0.4,3-0.9,4.8,0.3c-3.2,3.8-5.2,8.2-8.3,11.81c-0.1,0.9,1.3,1.2,0.3,2.8
		c-14.61-0.64-29.14,4.6-31.11-3.8C3.68,498.69,7.28,495.28,10.88,497.38z M144.95,254.67c8.49-2.12,8.32-1.67,7.9-2.5
		C142.53,251.03,144.26,250.57,144.95,254.67z M140.14,256.17c1.4-1.6,2.3-2.8,1.8-4.9C139.44,251.97,139.14,253.47,140.14,256.17z
		 M144.85,267.38c-0.8-0.7-1.6-0.4-2.5,0.5c0.5,1.5,1.4,3.2,0.5,5.5C146.25,271.88,146.25,271.68,144.85,267.38z M132.24,246.27
		c1.37,1.43,0.5,3.1,0.4,4.9c9.2-1.02,4.1,1.03,5.6-8c-2.1-1.2-4.2-1.5-6.3-1.6C131.04,243.37,130.91,244.89,132.24,246.27z
		 M129.34,245.07c-4.4,0.1-5.9,1.2-6.7,4.4C125.54,248.77,127.14,246.47,129.34,245.07z M26.89,132.12c1.3,0.1,1.2-0.9,1.8-2.3
		C26.99,130.42,26.59,131.12,26.89,132.12z M28.39,141.82c1-0.5,1.3-1.1,0.7-2.1C28.09,140.22,27.79,140.82,28.39,141.82z
		 M29.19,127.62c1.5-0.3,2.2-0.9,2.1-2.5C29.59,125.32,29.19,126.12,29.19,127.62z M31.39,114.11c1.5-0.1,1.5-0.9,2.1-1.4
		C31.99,112.31,31.99,113.21,31.39,114.11z M32.39,145.52c0.4-0.7,0.3-1.3,0-2.1C30.89,144.12,31.59,144.72,32.39,145.52z
		 M34.8,109.71c-0.36-0.36-1.24,1.27,0.3,0.5C35,110.01,35,109.81,34.8,109.71z M37.2,110.81c-1.1,0.6-1.5,1.2-1.4,2.5
		C37.1,112.71,37.3,112.01,37.2,110.81z M35.9,131.72c1-0.7,1-1.2,0.1-2.1C35.4,130.42,35.3,130.92,35.9,131.72z M37.3,124.91
		c0.6,1.2,1,2.2,2.5,2.3C40,125.32,38.5,125.52,37.3,124.91z M39,107.11c1,0.7,1.4,0.3,1.5-1C39.4,105.91,39.1,106.31,39,107.11z
		 M39.7,134.42c0.2,1,0.7,1.5,1.8,1.1C41,134.32,41,134.32,39.7,134.42z M44.2,101.6c0.85,1.28,1.8,0.6,2-0.1
		C45.4,100.6,44.9,101.3,44.2,101.6z M44.5,110.01c-1,0.4-1.2,1.3-2.3,2.5c1.8-0.2,2.6,1.2,4.1,0.7
		C46.1,111.81,45,111.11,44.5,110.01z M50.1,129.22c1.4-0.28,1.04-1.39,0.2-1.2C49.81,128.13,49.7,128.52,50.1,129.22z M50,133.72
		c1,0.2,1-0.5,1.6-1.4C50.2,132.62,50,133.02,50,133.72z M51.8,112.91c-3.08,2.05-1.93,4.01,0.8,2.3
		C52.9,114.31,52.1,113.91,51.8,112.91z M55.51,126.22c-1.1,0-1.4,0.5-1.4,1.5C55,127.72,55.61,127.42,55.51,126.22z M58.01,131.72
		c1,0.3,1.4-0.3,1.8-1.2C58.81,130.22,58.31,130.72,58.01,131.72z M60.31,114.11c2.6,2.8,2.6,2.8,4.5,2.2
		C63.21,115.81,62.71,113.91,60.31,114.11z M62.41,127.52c1.8-0.9,3.5-1.7,4.8-3.2C65.21,124.81,63.21,125.21,62.41,127.52z
		 M68.71,115.31c-1.01,0.51-0.86-0.03,0.8,3.3C70.31,116.91,69.01,116.41,68.71,115.31z M67.71,121.81c2,0.1,2.9-1,3.7-2.2
		C70.01,119.91,68.91,120.61,67.71,121.81z M72.21,104.31c0.4,1.4,0.4,1.4,1.7,0.5C73.31,104.11,72.81,104.11,72.21,104.31z
		 M74.81,117.81c1.7,1.1,3.6,0.3,5.4,0.1C78.42,116.41,76.61,117.51,74.81,117.81z M75.41,120.21c0.4,0.5,0.8,0.5,1.3,0.3
		C76.41,119.41,75.81,120.21,75.41,120.21z M86.82,109.71c-2.8,1.6-2-4.2-5.1-1.9c2.1,1.8,2.1,1.8,2.9,4.5
		C86.32,112.31,86.92,111.51,86.82,109.71z M90.22,109.31c1.7,0.1,2.2-0.4,2.7-1.1C91.42,107.21,91.32,108.51,90.22,109.31z
		 M119.43,253.37c0.6-1,1.1-1.8,2-3.3C119.33,250.77,117.93,251.17,119.43,253.37z M62.01,250.57c3.42,24.79-9.09,29.73,5.5,21.11
		c-0.7-1.3-2.5-1.5-2.2-3.4c1.6,0.2,2.2,1.9,3.7,2.1c5.7-2.2,9.9-11.11,8.2-17.81C72.31,252.27,67.51,250.07,62.01,250.57z
		 M89.82,215.46c-14.74,5.16-27.35-13.77-52.72-16.11c19.59,6.86,33.28,19.13,41.62,48.22c5.34,18.63-9.63,25.25-18.71,31.41
		c-0.7,2.6-1.6,5.9-2.6,9.3c18.84,4.61,28.02-4.39,39.12-7.7c4.31-1.28,7.2-5.1,12.01-5.9c0.6-7.3,6.6-11.51,9.9-17.51
		c-2.7-5.4-4.2-11.4-8.5-15.91c-3.15-3.29,3.23-3.59-1.7-13.21c-5.06-9.87-9.37-21.88-18.51-26.21c-11.41-5.4-2.32-2.11-0.1,4.9
		c0.89,2.8,2.4,5.4,2.3,8.4c-1.6,0.1-1.8-0.8-1.9-1.5c-2.8-13.57-18.34-19.82-21.51-24.01c-1,0.7-0.4,2.2-1.8,2.5
		c-1.2-3.6-0.8-7.3-1.6-11.01c0.9-0.8,1.7-1.6,2.6-2.3c-0.5-1.2-2.2-1-2.7-2.2c1.51-1.76,0.99,3.31,14.01,1.9
		c7.46-0.81,0.97-6.87,5.2-11.11c1.1-1.1,0.7-2.4-0.5-3.5c-1.3-0.2-2.4,1.8-4.3,0.4c1.6-2.5,5.4-0.8,6.9-3.4c0.5-1.2-0.5-2.3,0.5-4
		c-4.75,1.25-5.62-1.42-4.1-3.1c1.1,1.8,2.91,1.27,4.5,1.5c2.41,0.35,3.27-0.59,2.7-3c-1.83-7.74-6.82-11.46-2-15.31
		c2.28-1.82-2.23-11.54-0.8-15.01c-0.5-0.8-1.6-0.4-1.8-1.3c4.5-1.2,9.8-0.8,12.71-5.6c-5.8,3.9-12.61,4.3-19.11,5.4
		c-0.3,1.2,1.1,0.7,1.1,1.5c-2.2,1.5-4.5,1.1-7,0.1c-2.71,4.79-27.98,17.67-17.61,25.71c-2.2,0.2-2.7-1.3-3.9-1.5
		c-1.3,0-0.3,1.9-1.6,2.1c-2.27-2.56-1.82-6.19-3.72-8.79c0,0,0.01-0.02,0.01-0.03c0.93-1.08-0.53-1.08-0.99-1.9
		c-0.24,1.03,0.4,1.37,0.62,1.82c-1.58-0.39-2.66-1.93-4.42-2.12c0,0.49-0.19-1.3-2.2-1.3c-2.6,3.03-7.41,7.29-4.4,10.6
		c2.86,3.14,4.8,7.1,8.7,8.8c1.3,0.3,1.8-0.7,2.5-0.8c1.56,1.82-0.94,4.51-4.6,2.1c-1.62-1.07-2.7-3.1-5-3c-0.5,0.7,0.7,2-0.9,2.3
		c-1.3-0.4-0.4-1.8-1.2-2.7c-1.3,0.9-2.09,2.8-2.1,3.8c-0.07,5.03-2.27,3.14-3.2,18.11c-0.4,6.41-9.33,15.12-8,23.31
		C41.89,190.92,70.53,212.13,89.82,215.46z M35.3,152.73c0.8-2.3-0.9-2.8-1.4-3.8C33.6,150.13,34.3,151.13,35.3,152.73z
		 M25.79,199.05c-2.4,1.1-5.8-0.6-7.8,3.6C26.84,199.22,26.22,199.9,25.79,199.05z M139.64,292.79c-2.5,1.2-5,0.7-7.5,1.1
		c0.2,4.4,1.01,8.6,0.4,12.91c-0.77,5.49,8.56,3.91,8.4-0.2C140.78,302.1,140.54,297.69,139.64,292.79z M122.94,338.11
		c-0.4-1.4,0.1-3-2.4-2.6C121.14,336.81,121.84,337.41,122.94,338.11z M387.46,473.57c6.3-1.9,8.5-4.3,8.1-8.8
		c-2.3,3-3.6,7.3-8.5,5.6C385.96,471.67,386.86,472.57,387.46,473.57z M202.67,409.84c16.41,3.1,32.71-0.3,49.32,0.6
		c-5.3-7.4-10.1-14.71-13.81-23.41c-15.93,11.79-26.35,11.02-33.32,12.91C204.47,403.34,202.37,406.44,202.67,409.84z
		 M375.65,390.34c10.3-13.61,18.11-28.91,26.41-44.22c-2.7-5-6.1-9.7-10.5-14.11c-2.3,4.4-5.5,7.7-8.6,11.31
		c2.6,3.1,4.5,6.5,6.2,10.2c-2.6-2-3.7-4.9-5.7-7.3c-2.8,4.7,0.7,7.9,3.5,11.21c-1.16,0.39,0.04,1.04-5-4
		c-2.77,5.55,1.28,7.7,1.9,11.81c-1.7-0.5-1.5-2.6-3.2-3.6c-0.2,3.2-1.3,6-2.9,8.4c0.1,1.9,1.6,3,1.9,4.8c-1.6-0.6-1.8-2.2-2.9-2.9
		c-5.51,3.67-1.45,4.23-1.1,7c-3.06-1.53-2.2-6.61-8.3,0.8c0.2,1.6,1.7,2.5,2.2,4.2c-1.5-0.7-1.7-2.4-3.1-3
		c-3.4,2.2-0.8,6.6-3.7,9.4C367.35,390.34,371.35,390.34,375.65,390.34z M352.14,392.24c2.9-0.17,5.6-2.2,9.1-1.3
		c-0.6-7.6,3.01-12.49,8.7-16.41c8.34-5.74,8.13-11.08,10.1-26.21c1.21-9.28-1.09-8.01-9.2-10.9c-3.4,2.1-5.97,4.92-8.1,8.2
		c-5.15,7.9-7.75-0.9-4.32,9.26c-1.34,2.23-3.4-2.33-5.09,0.25c0.8,1.2,2.5,1.9,2.4,3.9c-0.7,0.4-1.5,0.8-2.6,1.4
		c-0.8-1.2-0.8-2.9-2.6-3.4c-0.7,0-1.4,0.7-2.5,1.1c1.2,2.4,3.5,4.7,0.2,7.3c-1.32-1.06-1.7-8.17-5.5-5c1.4,2.4,3.3,4.7,3.3,7.8
		c-2-2.2-4-4.5-5.7-6.4c-11.82,2.8-8.21-1.4-11.51,5.2c0.8,1,1.6-0.2,2.3,0.3c0.6-0.9-0.7-1.9,0.9-2.7c4.64,5.8,6.47,3.41,6.91,8.29
		c0.9,6,2,12.01-0.3,18.31C343.44,391.64,347.84,392.48,352.14,392.24z M335.93,391.44c3.3-6.3,1.6-12.21,0.5-18.11
		c-2.3-0.7-4.4-1.3-7-2.1c3,8.8,1,15.01-7.6,18.81C326.73,390.84,331.33,389.64,335.93,391.44z M324.13,376.63c2-0.3,2.8,1.2,4.1,1
		c0.8-2.4-0.5-4.8,0.2-7.2c-19.87-8.71-65.83-50.94-65.93-51.02c-7.06-5.37-4.04-6.11-7-7.8c-5.79-3.31-7.12-8.92-13.41-6.2
		c-4.69,2.02-9.7,1.87-14.71,1c-4.2-0.73-8.4,0.1-12.91,0.3c2.65,9.94,3.09,24.6-0.5,35.02c16.4,3.58,27.63-5.18,40.52,2.8
		c4.09,2.54,4.83,8.27,7.9,10.4c6.34,5,10.64,17.38,20.31,15.31c4.48-0.96,11.46,2.64,14.71,4.9c5.72,3.98,12.68,5.83,18.31,10.1
		c1.59,1.21,3,3.1,5.6,3C330.18,378.99,329,380.35,324.13,376.63z M317.92,390.34c-4.7-2.6-8.4-6.62-13.51-8.6
		c-13.92-5.4-17.16-10.82-24.91-8.7c18.37,17.06,17.36,16.2,18.61,16.31C304.61,389.91,311.22,390.24,317.92,390.34z M416.17,419.15
		c4.16-7.17,7.21-15,11.81-21.81c2.9-4.3,1.73-7.12-0.4-10.6c-2.76-4.52-4.4-9.6-7.6-14.21c-6.23,10.91-10.39,14.36-14.31,21.41
		c0,1.7,1.12,2.99,2,4.4c2.24,3.58,1.8,8,3.3,11.91c0.3,1-1.3,2.7,0.3,4c-0.5,0.4-1.4,0.4-1.4,1.2
		C408.62,432.89,403.69,440.66,416.17,419.15z M392.26,454.97c6.81-12,11.89-14.08-2-4.5C390.06,452.26,391.06,453.46,392.26,454.97
		z M347.84,437.16c3-1.8-2.1-5.6,2-7.4c1.2,4.9,2.8,9.6,4.1,14.31c1.8,6.5-2.7,15.81-9,19.71c-4.94,2.47,0.04-2.16,16.21,14.31
		c10.31-8.02,14.05-5.34,16.91-16.41c2.34-9.05,5.28-12.07,11.51-14.21c7.64-2.62,13.78-7.8,15.81-15.81
		c3.22-12.7,5.43-22.74-0.9-33.42c-0.3-0.5-0.9-1-1.8-0.8c-0.4,1.3,1.6,1.4,1.5,2.5c-3.8,0.5-5.7-1.9-7.1-6.1
		c-6.58,0.94-10.21,13.93-18.81,15.71c-1.3,0.4-2,1.4-2.5,2.4c0,0,0,0-0.01,0c0.01-0.01,0.01,0.01,0.01,0.06
		c-0.03,0.02-0.06,0.02-0.1,0.04c0.05-0.05,0.08-0.09,0.09-0.1c-1.3,0.5-2.69,1-4.09,1.5c3,2.9,5.3,5.9,4.7,11.01
		c-4.1-2.6-4.9-6.5-6.6-10.2c-0.9,0.8-1.8,1.7-2.8,2.6c1.8,3.5,5,6.4,3.6,11.21c-5.23-2.97-5.56-12.42-8.7-7.7
		c2.4,3.6,5,7.2,3.8,12.41c-3.7-3.4-5.4-7.3-7.1-11.41c-9.54,2.73-0.15-0.58,1.1,12.51c0.1,1-0.2,2-1.8,2.7
		c-3.7-3.2-4.5-8.2-6.8-12.61c-2.5,0.2-5.3,0.6-8.5-0.3C343.41,433.05,340.47,436.67,347.84,437.16z M307.72,434.26
		c8.7,5.14,18.67,7.45,27.11,16.21c1.2-0.1,0.7-1.5,1.7-1.9c-1.6-2.1-4.1-3-5.4-5.6c2.8,0.8,5,1.4,7.3,3c2.1-3.9,4.1-7.4,1.7-11.61
		c-1.1-0.8-3.2-0.3-4.1-2.2c1.1-0.9,2.4,0.1,3.7-0.5c-0.8-2,0.4-3.7,0.7-5.8c-25.69-11.68-30.72-23.42-46.82-36.62
		c-8.91-7.3-17.42-15.09-25.31-23.51c-0.94-1.01-6.81-2.35-7.6-4.1c1.5-0.2,2.9,0.8,4.9,0.3c-4.4-5.8-9.3-10.9-12.81-17.01
		c-1.9-0.2-3.78-0.33-5.4-1.4c-3.18-2.1-6.21,1.24-27.01,1.5c-1.37,1.37,0.01,9.1-8,24.51c-0.06,0.1-6.33,24.38-6.9,27.91
		c21.41-5.44,18.43-6.19,23.01-7.3c4.79-1.17,10.38-10.71,17.11-4.5c-3.2,0.84-9.93-4.97-1.3,8.2
		C271.39,435.22,273.49,414.03,307.72,434.26z"/>
	<path d="M70.51,375.43c0.37-0.01,0.77-0.01,1.18-0.01C71.28,375.46,70.88,375.47,70.51,375.43z"/>
	<path d="M402.46,471.57c0.09,0.13,0.08,0.04,0.04,0.35C402.29,471.6,402.27,471.65,402.46,471.57z"/>
	<path d="M223.18,275.88c-3-0.19-5,2.6-7.8,2s-5.4-1.54-8.4-1.5c-26.82,0.32-25.91-2.6-33.12,1c-0.12,2.41-0.17,15.4-4.1,16.71
		c-1.18-4.91,7.83-3.17-2.4-37.62c-0.5-1.7-0.9-3.3,0.1-5.1c2.4,4.4,3.1,9.4,4.8,14.21c2.9,0,5.5,0.6,6.4,3.8
		c10.7,1.1,21.21,0.9,31.51,1.6c4.2-4.1,6.3-3.7,11.21,2.1c9.12-0.88,201.17-0.33,210.4-0.3c6.61,0.02,7.43,3.58-0.2,3.6
		C353.41,276.63,227.11,276.13,223.18,275.88z M174.06,270.88c-1.35,2.71,1.35,3.56,1.7,1.7
		C175.97,271.48,175.56,270.68,174.06,270.88z M178.76,271.68c-0.56,2.62,0.24,1.9,18.01,1.9
		C196.77,272.97,199.34,273.37,178.76,271.68z"/>
	<path d="M26.69,443.36c2.18-8.61,5.79-16.68,8.2-25.21c0.31-1.1,0.6-2.3,2.2-2.8c-7.9,27.21-14.51,54.72-24.61,81.24
		C8.17,494.42,15.98,485.71,26.69,443.36z"/>
	<path d="M454.69,488.98c2.7-7.1,3.86-14.52,6.8-21.51c6.5-15.43,14.56-55.33,18.91-58.13c0.5,5.1-22.11,78.74-24.91,81.44
		C454.59,490.38,454.49,489.68,454.69,488.98z"/>
	<path d="M599.55,337.01c0.73-3.5,5.2-4.6,8.6-2.6c-14.21,16.01-26.61,33.52-40.42,49.72c-2.19-1.46,9.72-12.86,12.21-18.31
		C586.71,351.02,597.78,345.51,599.55,337.01z"/>
	<path d="M123.94,389.04c6.19-9.77,10.19-12.34,12.31-16.91c7.64-16.48,17.33-19.75,19.51-28.71c0.92-3.8,4.5-5,8.6-3.7
		C164.3,340.24,127.72,387.14,123.94,389.04z"/>
	<path d="M130.34,350.42c-4.56,6.51-5.7,7.48-5.4,9.8c2.29,17.69-36.38,48.37-14.31,22.91c5.4-6.23,13.11-14.98,13.11-23.11
		c0-2.1,0.24-2.19,6.1-10C129.94,350.22,130.14,350.32,130.34,350.42z"/>
	<path d="M93.92,355.22c2.24-4.82,8.04-4.26,8.9-5.2c3.72-4.08,8.7-4.9,14.11-4.8c3.4-3.8,7.9-5.6,13.11-6.3
		c-5.2,2.9-10.4,5.5-14.01,10.1c-1.2-0.5-0.4-1.5-1.1-1.8c-11.7-0.69-11.86,7.84-13.11,6.6c-0.4-0.3-0.6-0.6-1-0.9
		c-5.5,3.3-5.4,9.5-7.2,14.71c-0.6-4.7,0.3-9,2.8-12.91C95.32,354.32,94.92,355.92,93.92,355.22z"/>
	<path d="M548.03,387.43c-1.84-1.84,8.01-10.46,16.21-23.01c6.68-10.22-1.63-6.66,8.3-18.51c1.02,2.05-4.57,3.54-4,10.5
		C569.35,366.31,555.44,380.77,548.03,387.43z"/>
	<path d="M81.62,346.22c-2.78-7.84-15.05-17.36-11.11-19.61c2.5,2.1,4,5.3,6.2,7.5c1.6,0.4,2.8-0.9,4.3-0.5c-0.5,1.6-2.5,1.1-3,2.5
		c1.91,4.3,5.36-0.05,10.4,0.7c-2.7,1.4-5.3,1.2-7.2,2.9C81.22,341.71,83.42,343.21,81.62,346.22z"/>
	<path d="M158.25,257.08c3.78-1.33,4.58,30.94,4.6,33.82c0.01,0.7,0.3,1.6-1.1,1.9C160.85,280.79,159.85,268.88,158.25,257.08z"/>
	<path d="M154.55,334.91c0.1,3.3-1.94,5.46-4.1,7.4c-15.66,14.06-25.44,28.99-21.11,21.71C138.77,348.18,152.57,341.2,154.55,334.91
		z"/>
	<path d="M151.45,246.97c3.6,0.11,7.1,0.71,10.5,1.4c1.5,0.3,3.5,0.3,4.4,3.1C158.63,248.68,125.87,246.2,151.45,246.97z"/>
	<path d="M22.09,215.46c2.92-1.06,6.1-1.8,9.7,0c-1.9,1.7-3.7,1.13-5.2,1.3c-7.66,0.87-5.28,5.79-9.6,8.6
		C17.89,221.16,17.81,217.01,22.09,215.46z"/>
	<path d="M17.89,257.98c0.7,0.7,1.5,1.4,1.5,2.9c-2.8-1.2-3.59-4.02-5.7-5.4c-4.61-3.02-3.71-7.41-3.1-17.51
		c1.96,4.57-0.06,10.02,1.7,12.21C14.3,252.66,15.59,255.67,17.89,257.98z"/>
	<path d="M155.65,315c0.1,5.7,2.9,10.7,1.7,16.71c-2.4-3-2.27-3-2.5-5.3C153.95,317.33,153.43,318.51,155.65,315z"/>
	<path d="M143.75,379.63c5.9-6.2,11.71-11.81,15.81-19.81C158.95,366.12,149.85,377.23,143.75,379.63z"/>
	<path d="M598.55,321.4c-0.58-13.87-2.86-6.61,0.6-11.81c2.61,14.15,2.19,9.37,2.11,16.1C599.5,324.79,598.63,323.34,598.55,321.4z"
		/>
	<path d="M588.15,374.13c-0.54-0.54-1.57,0.66,7.9-9.5c2.7-2.9,4.7-6.4,7.1-9.5C600.35,363.32,594.75,369.13,588.15,374.13z"/>
	<path d="M630.97,383.93c-7.7,5.4-16.81,8-24.71,12.91C613.56,390.74,622.56,388.03,630.97,383.93z"/>
	<path d="M554.13,343.91c0.91-0.79,2-2.1,3.7-0.5c-6.93,6.93-9.26,7.65-10.1,11.61C547.53,350.02,550.76,346.85,554.13,343.91z"/>
	<path d="M187.47,389.14c0.26,1.66,1.28,0.82-23.81,12.71C164.85,399.27,179.61,393.37,187.47,389.14z"/>
	<path d="M104.33,360.92c-0.8-5.2,5.8-13.11,9.6-11.71C111.03,353.32,105.43,355.22,104.33,360.92z"/>
	<path d="M465.59,403.84c0-3.8,0-7.6,0-11.11c-2.8-0.9-5.3,0.5-8.2-1.2c3.7-0.4,6.6-0.4,9.5,0.2
		C466.89,405.26,466.65,403.84,465.59,403.84z"/>
	<path d="M542.63,377.83c6.33-6.33,11.06-11.9,12.21-19.81C557.83,363.35,545.57,378.42,542.63,377.83z"/>
	<path d="M574.74,335.71c-5.6,1.1-8.3,5.4-11.21,10.3c-0.9-3.6,3-5.6,1.6-8.7C567.59,336.96,572.95,335.44,574.74,335.71z"/>
	<path d="M98.72,384.13c-2.09,0,10.12-6.69,12.81-19.81C112.03,371.03,105.93,380.23,98.72,384.13z"/>
	<path d="M46.4,318.3c-5.79,1.74-9.3-4.56-7.2-9.8C41,312.2,41.1,317.1,46.4,318.3z"/>
	<path d="M620.56,380.63c-0.7,1.87-14.58,7.05-24.11,12.61C592.98,395.55,598.33,389.46,620.56,380.63z"/>
	<path d="M176.26,386.53c0.9-1.1,2-1.8,3.4-1.9c-1.89,2.31-28.11,14.67-28.21,14.71C159.15,393.94,167.76,390.34,176.26,386.53z"/>
	<path d="M604.16,324.11c2.4-4.9,1.2-9.7-0.5-14.51C608.06,312.6,608.36,321.5,604.16,324.11z"/>
	<path d="M161.05,329.51c1.4-5,0.8-9.6-1.1-14.31C164.15,318.1,164.85,326.51,161.05,329.51z"/>
	<path d="M544.43,346.92c-5.4,3.8-5.7,9.7-7.2,14.91C536.12,354.72,539.33,347.52,544.43,346.92z"/>
	<path d="M793.54,393.74c-6.2,0-12.31,0-18.41-0.1C781.24,392.44,787.44,391.84,793.54,393.74z"/>
	<path d="M14.69,397.54c3.1-0.5,6.2-0.5,8.7-0.1c0,4.2,0,8.2,0,12.31c-2.25,0-0.45-6.53-1.5-11.51
		C19.39,397.74,16.89,398.74,14.69,397.54z"/>
	<path d="M349.84,399.94c-6.1-0.2-12.11-0.9-18.31-0.3C336.33,397.64,347.94,397.94,349.84,399.94z"/>
	<path d="M166.46,337.71c-4.2,0.8-5.4-4.6-9.5-4.2c2.4-3.3,3.6-2.8,6.3,2C164.35,336.31,166.16,336.01,166.46,337.71z"/>
	<path d="M605.96,328.61c1.27,2.92,1.69,0.56,4.57,3.95c-8.07-1.95-5.45-4.88-9.77-4.65C599.99,326,604.13,324.41,605.96,328.61z"/>
	<path d="M601.26,325.7c0.07,0.03,0.09,0.12,0.08,0.22C601.21,326.06,601.26,326.05,601.26,325.7z"/>
	<path d="M601.35,325.93C601.33,326.16,601.19,326.41,601.35,325.93L601.35,325.93z"/>
	<path d="M601.35,325.93c0-0.01,0-0.01,0-0.02c0,0,0,0,0.01-0.01C601.35,325.92,601.35,325.92,601.35,325.93z"/>
	<path d="M630.87,316.7c-1.1-4-3.2-7.6-3.8-11.81C629.77,308.3,630.57,312.4,630.87,316.7z"/>
	<path d="M187.37,322.4c-1.1-4-3.3-7.6-3.8-11.81C186.16,314.1,187.07,318.1,187.37,322.4z"/>
	<path d="M145.05,370.63c-1.9,4.2-5.2,7.3-7.7,11.11C138.94,377.23,142.34,374.23,145.05,370.63z"/>
	<path d="M19.39,502.19c3,0,6-1.9,9-0.4C25.39,501.99,22.49,503.49,19.39,502.19z"/>
	<path d="M581.24,375.23c1.5-4.2,4.8-6.9,7.4-10.3C586.55,368.63,584.05,372.03,581.24,375.23z"/>
	<path d="M159.15,313.3c-4.2-0.1-5.4-1.1-5.5-4.6C155.35,310.3,157.35,311.2,159.15,313.3z"/>
	<path d="M88.62,352.52c0.8,2.8,0.1,5.5-0.2,8.3C87.62,358.02,87.32,355.22,88.62,352.52z"/>
	<path d="M541.53,394.64c-0.2,1.3-0.3,2.4-0.5,3.7c-1.1-1.3-0.4-2.6-1-3.6c-0.15-0.7-5.89-0.43,5.7-1.4
		C544.53,394.64,542.83,394.04,541.53,394.64z"/>
	<path d="M462.99,496.58c3-0.3,5.9-2,9-0.6C468.99,496.68,466.09,497.28,462.99,496.58z"/>
	<path d="M97.92,400.44c-0.3,1.1,0.1,2.3-0.5,3.3c-1.6-1.11,0.57-4.37-2.8-3.7c2.4-1.4,5.2-0.1,7.9-1.4
		C101.03,400.64,99.13,399.44,97.92,400.44z"/>
	<path d="M532.12,346.82c0.9,2.8,0,5.6,0,8.5C531.12,352.52,530.92,349.62,532.12,346.82z"/>
	<path d="M527.52,380.83c-2.2,0.7-4.4,0.3-6.6,0.1C523.12,379.73,525.32,379.33,527.52,380.83z"/>
	<path d="M61.21,322.3c-4.1,1.2-4.6,1.3-7.7,0.2C55.2,321.76,60.01,321.79,61.21,322.3z"/>
	<path d="M47.5,317.6c0-1.16-1.66-0.65,5.3-2.2C51.5,317.4,49.8,318.6,47.5,317.6z"/>
	<path d="M634.17,304.3c2.3,1.6,3,4.1,3.1,6.8C636.67,308.6,634.87,306.7,634.17,304.3z"/>
	<path d="M84.32,387.03c-2.4-0.2-4.4-0.3-6.4-0.4C82.22,385.13,82.22,385.13,84.32,387.03z"/>
	<path d="M18.09,232.96c-1.2-2-2.3-4-0.7-6.4C17.69,228.66,17.99,230.86,18.09,232.96z"/>
	<path d="M624.56,339.31c0.6,2.5,0.8,5,0,7.5C624.96,344.31,623.76,341.81,624.56,339.31z"/>
	<path d="M38.4,274.68c-0.9-1.7-3.2-2.6-3.1-5.5C38.4,270.38,37.4,272.98,38.4,274.68z"/>
	<path d="M476.1,392.74c-1.1,2-0.7,4.1-1,6.8C473.7,394.94,473.9,393.94,476.1,392.74z"/>
	<path d="M630.07,338.21c2.1,1,1.9,3.1,2.5,4.8C631.27,341.61,629.87,340.41,630.07,338.21z"/>
	<path d="M885.48,396.84c-2.2-0.3-4.5-0.1-6.6-1.3C881.08,395.54,883.38,395.54,885.48,396.84z"/>
	<path d="M190.17,309.7c2.7,1.9,3.5,3.6,3.4,7.2C193.17,314.3,191.27,312.4,190.17,309.7z"/>
	<path d="M30.29,314.6c1.4,2.4,1.7,4.5,2.1,6.6C30.89,319.4,29.79,317.6,30.29,314.6z"/>
	<path d="M471.99,499.89c-1.4,1-2.8,1.5-4.5,0.2C468.99,498.28,470.49,499.19,471.99,499.89z"/>
	<path d="M181.26,352.32c-0.7-4.6-0.7-6.1,0.2-7.8C181.76,347.42,181.76,349.82,181.26,352.32z"/>
	<path d="M37.4,248.87c0-2,0.5-4,0.3-6.1C39,244.87,38.3,246.87,37.4,248.87z"/>
	<path d="M188.77,349.22c-1.1-1.9-2.4-3.1-2.6-5.7C188.47,345.42,188.77,346.12,188.77,349.22z"/>
	<path d="M32.79,398.14c-1.3,2-0.9,3.8-1.3,5.6C30.09,401.04,30.29,399.74,32.79,398.14z"/>
	<path d="M6.28,506.59c-1.37-1.15,0.97-3.53,2.5-0.9C8.08,506.79,7.38,507.39,6.28,506.59z"/>
	<path d="M318.52,398.84c7.93,0,6.7-0.11,6.7,0.2C317.78,399.04,318.52,399.13,318.52,398.84z"/>
	<path d="M56.31,405.64c0.1-1.8,0.2-3.5,0.4-5.4C57.81,402.24,57.71,404.04,56.31,405.64z"/>
	<path d="M23.99,505.89c1.6-1.7,3-1.2,5,0C27.09,506.49,25.69,506.89,23.99,505.89z"/>
	<path d="M762.93,393.34c7.44,0,6.7-0.09,6.7,0.2C761.47,393.54,762.93,393.62,762.93,393.34z"/>
	<path d="M37.4,233.46c-0.7-1.2-1.2-2.5-0.5-4.6C37.9,230.76,38.1,232.06,37.4,233.46z"/>
	<path d="M22.89,250.47c-0.4-2.6-1.6-4.1-2.3-6.4C23.29,246.77,23.39,247.17,22.89,250.47z"/>
	<path d="M500.31,394.44c1.1,3,1.1,3.7-0.7,5.5C500.49,395.54,499.53,395.44,500.31,394.44z"/>
	<path d="M65.41,398.04c0.7,1.6,1,3,0,5.3C64.8,398.76,64,398.98,65.41,398.04z"/>
	<path d="M34.3,214.26c2.5-0.5,2.5-0.5,2.7,1.2C35.9,215.86,35.2,215.26,34.3,214.26z"/>
	<path d="M110.93,284.69c-1.5,0.5-3,0.3-5.1,0.4C109.43,283.69,109.43,283.69,110.93,284.69z"/>
	<path d="M106.33,330.11c-1.9,0.4-2.6-0.9-3.4-1.9C104.43,328.11,105.73,328.31,106.33,330.11z"/>
	<path d="M41.8,210.45c-1.9,1.5-1.9,1.5-3.6,1.4C38.9,210.65,40,210.45,41.8,210.45z"/>
	<path d="M52.3,211.55c-1.3-0.7-2.6-1.4-4-2.1C50.2,209.25,51.5,209.95,52.3,211.55z"/>
	<path d="M39.2,279.89c-0.4-1.1-1.8-1.8-1.2-3.6C39.9,277.18,39.2,278.68,39.2,279.89z"/>
	<path d="M37.5,326.41c1.4,0.2,2.3,0.4,3.8,0.7C39.5,328.21,38.6,328.01,37.5,326.41z"/>
	<path d="M508.71,392.24c1.1,1.5,0.9,2.9,0.6,4.3C509.21,395.34,507.81,394.14,508.71,392.24z"/>
	<path d="M141.04,264.68c-0.1-1.1-0.6-2.1,0.4-3C142.64,263.18,142.64,263.18,141.04,264.68z"/>
	<path d="M81.12,399.04c-1.1,0-2.1,0-3.4,0C79.02,398.64,80.02,398.74,81.12,399.04z"/>
	<path d="M119.53,351.12c0-1.6,0.4-2.4,2.4-2.5C121.14,349.62,121.14,350.72,119.53,351.12z"/>
	<path d="M97.92,324.11c-1.5-0.1-2.1-1.1-2.9-1.8C96.22,322.3,97.72,321.9,97.92,324.11z"/>
	<path d="M163.85,292.39c1.4-0.4,2.3,0.1,3.2,0.9C165.96,293.39,164.96,293.79,163.85,292.39z"/>
	<path d="M19.79,240.67c-0.7-1.1-1.2-2-0.7-3.6C20.19,238.37,20.19,239.37,19.79,240.67z"/>
	<path d="M552.43,398.54c-0.8-1.3-0.8-1.3-0.2-2.7C553.03,396.74,552.93,397.64,552.43,398.54z"/>
	<path d="M133.74,346.62c-0.7,0.8-1.5,1.7-2.2,2.6C131.74,347.82,132.34,346.82,133.74,346.62z"/>
	<path d="M109.33,403.04c-0.65,3.25-1.67-0.17-1-1.4C109.23,401.94,109.33,402.54,109.33,403.04z"/>
	<path d="M575.04,342.91c-0.4,1.39-2.15,3.6-2.5,2.9C572.94,344.51,573.94,343.61,575.04,342.91z"/>
	<path d="M575.94,342.11c0.4-1.8,1.4-2.4,2.3-3.2C578.04,340.21,577.14,340.91,575.94,342.11z"/>
	<path d="M626.47,396.14c0.6-0.9,1.5-1.6,2.7-1.6C628.57,395.64,627.47,395.84,626.47,396.14z"/>
	<path d="M126.14,298.79c-0.8-0.8-1.4-1.5-1.2-2.9C126.14,296.69,126.64,297.39,126.14,298.79z"/>
	<path d="M187.57,398.94c-0.7,0.8-1.4,1.7-2.7,1.6C185.46,399.44,186.66,399.24,187.57,398.94z"/>
	<path d="M161.55,403.24c0.5-0.8,1.1-1.3,2.1-1.3C163.25,402.74,162.75,403.44,161.55,403.24z"/>
	<path d="M101.83,326.41c-1.1,0.5-1.6-0.1-2-1C100.83,325.11,101.53,325.21,101.83,326.41z"/>
	<path d="M65.31,306c0.5-0.7,1.1-1,2-0.8C66.81,306,66.31,306.4,65.31,306z"/>
	<path d="M523.32,393.54c-0.4,0-0.9,0-1.3,0C522.18,393.5,523.32,393.32,523.32,393.54z"/>
	<path d="M111.83,276.58c0.9,0.3,0.6,1,0.2,1.7C111.73,277.78,110.73,277.38,111.83,276.58z"/>
	<path d="M16.59,214.56c0.8,1,0.2,1.4-0.6,1.9C15.49,215.56,15.89,215.06,16.59,214.56z"/>
	<path d="M30.29,329.01c-0.8-0.1-1.2-0.5-1-1.6C30.19,327.81,30.39,328.31,30.29,329.01z"/>
	<path d="M616.46,332.61c0.2-0.8,0.8-1,1.6-1.3C617.76,332.11,617.36,332.71,616.46,332.61z"/>
	<path d="M136.54,266.58c1.35-0.68,1.74,0.14,0.9,0.7C136.94,267.48,136.64,267.38,136.54,266.58z"/>
	<path d="M129.04,276.38c0.8-0.4,1.2-1.2,1.9-0.3C130.64,276.68,130.14,276.78,129.04,276.38z"/>
	<path d="M30.89,405.94c0.3-0.9,0.4-1.6,0.6-2.2C31.59,404.44,32.09,405.14,30.89,405.94z"/>
	<path d="M28.29,263.08c0.8-0.2,1.1,0.2,1.4,1.1C28.79,263.98,28.19,263.88,28.29,263.08z"/>
	<path d="M22.29,262.48c-0.8,0.1-1.1-0.3-0.8-1.8C21.99,261.48,22.99,261.48,22.29,262.48z"/>
	<path d="M620.46,380.43c0.16,0,0.13,0,0.1,0.1L620.46,380.43z"/>
	<path d="M183.16,401.64c0.4-0.8,1-1.1,1.8-1C184.76,401.44,184.16,401.74,183.16,401.64z"/>
	<path d="M624.06,378.53c-0.48,0.48-0.96,0.86-1.61,0.63c-0.29,1.03-0.94,1.34-1.86,1.28c0.34-1.31,2.31-1.3,1.77-1.3
		C622.86,378.63,623.16,378.03,624.06,378.53z"/>
	<path d="M571.64,333.21c-0.19-0.74,1-0.87,1-0.4C572.64,333.83,571.88,333.93,571.64,333.21z"/>
	<path d="M93.02,400.04c0.56,0,1.13,0,1.7,0C94.12,400.24,93.62,400.74,93.02,400.04z"/>
	<path d="M132.94,275.98c0.3-0.5,0.5-1.1,1.3-0.7C134.14,275.78,133.94,276.08,132.94,275.98z"/>
	<path d="M542.73,377.93c0,0.7-0.6,0.6-1.1,0.8C541.73,378.03,542.13,377.83,542.73,377.93z"/>
	<path d="M630.97,393.24c-0.7,1-1.2,1.4-1.9,1.2C629.37,393.64,630.07,393.64,630.97,393.24z"/>
	<path d="M179.56,384.63c0.2-0.9,0.9-0.9,1.9-1.4C180.66,384.33,180.26,384.63,179.56,384.63z"/>
	<path d="M175.16,336.11c0.2-0.4,0.3-0.8,0.9-0.7C175.86,335.81,175.76,336.11,175.16,336.11z"/>
	<path d="M77.82,301.2c0.2-0.6,0.5-0.8,1.1-0.7C78.92,301.4,78.52,301.6,77.82,301.2z"/>
	<path d="M580.34,376.63c0-0.7,0.2-1.2,0.9-1.4C581.34,375.93,581.14,376.53,580.34,376.63z"/>
	<path d="M52.7,255.97c-0.1,0.6-0.4,0.9-1.2,0.5C51.8,256.17,51.9,255.17,52.7,255.97z"/>
	<path d="M542.73,221.36c2.15,2.1,16.63,14.15,19.61,13.71c2.7-0.4,5,0.8,8.1,0.7C561.74,238.87,541.73,228.36,542.73,221.36z"/>
	<path d="M650.08,256.77c-2.4,1.9-2.4,1.9-5.1,0.7c-6.3,3.1-12.81,3.5-12.71-2.9C636.78,257.54,634.82,256.77,650.08,256.77z"/>
	<path d="M528.22,208.75c-1.5,2.4-3.1,4.8-4.8,7.5C523.42,206.59,529.48,206.24,528.22,208.75z"/>
	<path d="M601.55,233.96c-3.8,1.2-7.6,1.6-11.41,1.2C593.75,233.36,597.65,233.66,601.55,233.96z"/>
	<path d="M656.98,269.48c-4.77,2.4-9.29,0.71-9.29,0.49C650.69,268.18,653.88,269.28,656.98,269.48z"/>
	<path d="M556.23,259.08c1.6,2.5,0.8,3.6-4.8,6.1C553.83,263.78,554.03,260.68,556.23,259.08z"/>
	<path d="M667.18,264.68c-0.1,0.3-0.1,0.7-0.2,1c-2.6-1.6-5.8-0.1-8.5-1.6C658.86,262.94,656.82,263.25,667.18,264.68z"/>
	<path d="M649.78,260.28c2.2,0.4,4.2,1.2,6.3,3.2C653.28,262.88,650.98,262.48,649.78,260.28z"/>
	<path d="M741.82,276.68c-2.4,1.2-3.7,0.6-5.1-1C738.62,275.38,739.92,276.08,741.82,276.68z"/>
	<path d="M750.52,269.58c0-1.6-0.2-2.9,0.9-4.4C752.32,267.08,752.52,268.28,750.52,269.58z"/>
	<path d="M749.52,271.48c0.3,1.2,1.1,2.5-1.3,3.3C748.8,273.28,746.72,272.18,749.52,271.48z"/>
	<path d="M541.63,204.55c-1.2,1.1-2.5,1.6-4.3,1.5c1.08-1.77,2.37-2.38,4.22-1.53c1.4-2.08,3.19-3.17,5.68-2.27
		c4.8-4.3,9.5-5.7,13.11-3.2C541.25,205.5,541.37,204.29,541.63,204.55z"/>
	<path d="M725.01,259.98c1-0.4,1.7-1.5,3.1-1.5C727.01,259.98,727.01,259.98,725.01,259.98z"/>
	<path d="M549.73,195.65c1.3,0.1,2.8-0.4,3.9,0.8C552.13,196.95,550.83,196.65,549.73,195.65z"/>
	<path d="M522.02,220.16c-0.7-1.6-0.2-2.3,1.1-2.9C523.62,218.56,523.42,219.36,522.02,220.16z"/>
	<path d="M745.62,277.28c-0.8,1.2-1.6,1.8-3.2,1.2C743.32,277.58,744.02,276.68,745.62,277.28z"/>
	<path d="M572.64,234.66c1.1-0.5,2-0.6,2.8,0.1C574.54,235.27,573.64,235.77,572.64,234.66z"/>
	<path d="M608.46,235.57c-1.6,0-2.8,0.5-3.5-1C606.26,233.86,607.16,234.36,608.46,235.57z"/>
	<path d="M717.61,262.08c-1.1,0.9-1.9,0.9-2.9-0.1C715.71,261.38,716.61,261.28,717.61,262.08z"/>
	<path d="M684.09,273.08c-0.4,1.21,0.95,0.87-3.3,0.1C681.89,272.68,683.09,272.48,684.09,273.08z"/>
	<path d="M741.72,281.59c-0.8,1.6-1.7,1.7-3.3,1C739.52,281.89,740.02,280.99,741.72,281.59z"/>
	<path d="M735.11,274.58c-1,0.3-1.7,0.3-2.2-0.9C733.81,273.68,734.61,273.38,735.11,274.58z"/>
	<path d="M519.42,226.16c0.1-1.1,0.4-1.8,1.9-2.1C520.92,225.36,520.62,226.16,519.42,226.16z"/>
	<path d="M573.94,245.27c1.1,0.9,1.7,1.7,2.1,3.3C574.64,247.57,573.74,246.97,573.94,245.27z"/>
	<path d="M520.22,222.26c0.1-0.6-0.1-1.6,1.1-1.2C521.42,221.76,521.12,222.26,520.22,222.26z"/>
	<path d="M548.13,249.47c-0.6,1-1.2,1.2-2.3,0.5C546.53,249.27,547.03,248.67,548.13,249.47z"/>
	<path d="M743.52,269.88c0.8,0.8,1.9-0.5,2,1.2C744.72,271.38,744.12,271.28,743.52,269.88z"/>
	<path d="M654.98,254.77c1.1,0.3,2-0.1,2,1C656.28,256.17,655.78,255.87,654.98,254.77z"/>
	<path d="M711.1,261.68c-0.6,0.9-1.2,0.8-1.9,0.2C709.8,261.28,710.3,260.98,711.1,261.68z"/>
	<path d="M730.91,273.68c-0.8-0.3-1.6,0.3-2-1.2C729.61,272.68,730.31,272.48,730.91,273.68z"/>
	<path d="M576.84,249.17c0.2,0.3,1.1,0.3,0.6,1C576.84,250.07,576.64,249.77,576.84,249.17z"/>
	<path d="M528.42,204.95c-0.81-1.08,0.7-1.59,0.7-0.8C529.22,204.65,528.92,204.85,528.42,204.95z"/>
	<path d="M672.39,265.38c-0.5-0.2-1-0.1-1-1C671.89,264.38,672.59,264.08,672.39,265.38z"/>
	<path d="M584.15,230.56c0.1,0,0.1,0.1,0.2,0.2c-0.1,0.1-0.3,0.2-0.4,0.4C583.63,230.85,583.69,231.02,584.15,230.56z"/>
	<path d="M584.75,289.69c2.5,2.7,2.9,7.9,1.1,12.41c-1.3-3.6-0.2-7.8-3.2-10.8c2.3-3.6,1.6-8,3.1-12.01
		C586.85,282.89,586.45,286.39,584.75,289.69z"/>
	<path d="M570.24,325.11c5.5-1.5,11.11-2.4,16.71-2.8C581.44,324.01,575.84,324.71,570.24,325.11z"/>
	<path d="M585.55,306.3c0.2-0.7,0.4-1.3,0.6-2.3c3.1,3,3.7,5.6,2.2,9C587.45,310.6,587.85,307.8,585.55,306.3z"/>
	<path d="M590.15,320.3c-4.1,0.5-8.1,0.2-11.91-1.3C582.15,319.6,586.35,318.8,590.15,320.3z"/>
	<path d="M565.14,331.21c-3.6-1.5-3-4.6-3.6-7C563.44,326.01,565.64,327.61,565.14,331.21z"/>
	<path d="M559.83,277.68c-2.1,0.3-3.4-0.8-4.6-2.1C557.93,274.08,558.33,276.78,559.83,277.68z"/>
	<path d="M586.25,271.78c1.3,1.7,0.7,3.6,0.6,5.5C585.65,275.58,585.75,273.68,586.25,271.78z"/>
	<path d="M559.94,322.2c-1.3-1.1-2.1-1.9-1.9-4.1C559.33,319.4,560.84,319.9,559.94,322.2z"/>
	<path d="M582.95,324.91c-2.8,0.7-4.8,1.2-6.9,1.2C577.94,325.11,580.04,324.91,582.95,324.91z"/>
	<path d="M551.53,282.89c-1.3-0.7-3.5-0.7-2.3-3.3C549.73,280.99,550.93,281.79,551.53,282.89z"/>
	<path d="M554.83,284.59c1.7,0.8,2.4,1.6,3,3.3C556.33,287.19,555.43,286.69,554.83,284.59z"/>
	<path d="M555.13,297.09c-1.2-0.3-2.2-0.7-2.5-2.1C553.73,295.39,554.63,295.89,555.13,297.09z"/>
	<path d="M537.42,276.88c-0.5,1.5-1.3,2-3,2.4C535.32,277.78,536.12,277.38,537.42,276.88z"/>
	<path d="M553.23,313.9c-1.5,0.5-1.8-0.6-2.5-1.7C552.13,312.5,552.93,312.8,553.23,313.9z"/>
	<path d="M557.13,318.2c-1.4,0.2-1.8-0.3-1.7-1.3C556.43,316.7,556.83,317.1,557.13,318.2z"/>
	<path d="M548.83,310.7c-1-0.4-1.6-0.8-1.1-1.7C548.43,309.2,548.93,309.6,548.83,310.7z"/>
	<path d="M576.14,326.21c-0.9,0.4-1.7,0.6-2.9,0.2C574.44,326.11,575.34,326.01,576.14,326.21z"/>
	<path d="M562.34,290.19c-0.6-0.5-1.4-0.3-1.2-1.4C561.74,288.89,562.34,288.99,562.34,290.19z"/>
	<path d="M586.35,269.58c0.8,0.8,0.4,1.5-0.2,2.2C586.35,271.08,585.45,270.38,586.35,269.58z"/>
	<path d="M533.22,279.39c0.2,0.7-0.2,0.9-1.2,1.1C532.42,279.69,532.42,279.19,533.22,279.39z"/>
	<path d="M527.22,307.1c0.42-1.27,1.42-0.01,0.2,0.8C527.32,307.5,527.12,307.3,527.22,307.1z"/>
	<path d="M588.75,317.1c-0.6-0.7-0.8-1.2,0.4-1.7C589.45,316.1,589.55,316.6,588.75,317.1z"/>
	<path d="M563.04,278.18c0.7-0.1,1.1,0.2,1.1,1.1C563.14,279.49,562.84,279.09,563.04,278.18z"/>
	<path d="M687.39,370.93c-1,2.9-4.37,0.29-9.3-2.4C680.9,367.28,688.39,368.01,687.39,370.93z"/>
	<path d="M665.48,369.93c3.3-1.2,6.6-1.7,10-0.7c0,0.5,0,0.9,0.1,1.3C672.19,371.63,668.88,371.03,665.48,369.93z"/>
	<path d="M726.01,414.65c-3.2-3.2-6.6-5.3-9-8.4C721.41,407.94,725.81,411.85,726.01,414.65z"/>
	<path d="M734.61,419.75c-2.6-0.5-3.3-1-6-4.8C730.91,416.05,733.31,416.95,734.61,419.75z"/>
	<path d="M700.7,349.12c-1.8-0.8-3.8-1.5-5.6-2.8c2.4-0.8,4.4,0.5,6.6,1C701.3,347.82,701.8,348.62,700.7,349.12z"/>
	<path d="M714.81,394.84c-4.7-2.5-4.7-2.5-4.7-5C712.1,391.24,713.6,392.94,714.81,394.84z"/>
	<path d="M768.63,433.26c2,0.9,3.8,2.1,5.7,3.1C772.13,435.96,770.03,435.16,768.63,433.26z"/>
	<path d="M686.39,347.52c1.17-1.76,1.28-5.16,3.4-2.5C688.29,346.82,688.29,346.82,686.39,347.52z"/>
	<path d="M718.51,396.74c4.98,3.83,3.72,2.76,3.4,3.7C720.84,399.62,716.73,398.51,718.51,396.74z"/>
	<path d="M691.9,355.02c2.3-1.1,2.3-1.1,3.6-0.2C694.5,355.82,693.4,355.62,691.9,355.02z"/>
	<path d="M661.98,371.53c0.55-1.52,2.56-1.01,2.1-0.1C663.58,372.23,662.78,371.73,661.98,371.53z"/>
	<path d="M761.33,429.85c-0.9-0.3-2-0.3-1.8-1.7C760.43,428.25,761.23,428.45,761.33,429.85z"/>
	<path d="M701.1,355.82c-0.8,0.6-1.3,0.2-2.2-0.3C699.9,355.02,700.6,354.92,701.1,355.82z"/>
	<path d="M773.83,422.85c0.6-0.4,1-0.4,1.2,0.4C774.33,423.85,774.13,423.25,773.83,422.85z"/>
	<path d="M656.78,372.23c0.3-0.8,0.8-1.1,1.8-0.5C657.98,372.53,657.48,372.63,656.78,372.23z"/>
	<path d="M702.6,385.93c-0.6-0.7-1.6-0.5-1.3-1.8C701.7,384.63,702.8,384.43,702.6,385.93z"/>
	<path d="M766.23,432.55c-1-0.3-1.8-0.3-2-1.4C765.13,431.05,765.73,431.15,766.23,432.55z"/>
	<path d="M716.21,335.51c4.3,0.1,7,1.5,9.1,4.8C718.31,337.81,717.21,337.21,716.21,335.51z"/>
	<path d="M675.69,304.3c-4.5,1.8-9.3,1-14.01,1.5C666.18,304.1,670.99,304.8,675.69,304.3z"/>
	<path d="M705,332.01c2.8,0.1,5.4,0.9,7.8,2.4C710.1,333.91,707.1,334.41,705,332.01z"/>
	<path d="M685.29,304.2c3.6,1,4.9,2.5,5.2,5.5C688.89,308,686.99,306.8,685.29,304.2z"/>
	<path d="M681.29,326.21c-2,2.9-3.2,3.3-6.1,2.2C677.19,327.51,678.59,325.91,681.29,326.21z"/>
	<path d="M690.09,320.6c-1.6,2.3-3.1,3.4-5.7,4.3C685.99,322.6,686.69,320.4,690.09,320.6z"/>
	<path d="M725.21,342.01c3.1-0.2,3.7,2.7,5.3,4.5C728.31,345.42,727.61,342.81,725.21,342.01z"/>
	<path d="M677.99,303.1c2-0.3,3.5-1.2,5,0.5C681.39,303.8,679.79,304.9,677.99,303.1z"/>
	<path d="M674.29,328.21c-0.9,0.9-1.7,1.8-3.8,1.6C671.99,328.91,672.59,327.61,674.29,328.21z"/>
	<path d="M668.78,330.01c-0.7,0.9-1.5,1.8-3.4,1C666.68,330.41,667.48,329.71,668.78,330.01z"/>
	<path d="M763.93,369.63c-0.9,0.1-1.3-0.3-1.5-1.4C763.63,368.33,764.33,368.53,763.93,369.63z"/>
	<path d="M760.63,366.42c-0.8,0.2-1-0.3-1.3-0.9C760.13,365.52,760.53,365.72,760.63,366.42z"/>
	<path d="M754.62,362.72c0.7-0.3,1.2-0.4,1.5,1C755.32,363.42,754.72,363.42,754.62,362.72z"/>
	<path d="M660.48,331.61c0.4-1.2,0.9-1.1,1.6-0.6C661.78,331.61,661.38,331.71,660.48,331.61z"/>
	<path d="M534.82,135.62c0.1-2.7-1.3-5.3,0.5-7.8c-1.1-0.6-1.5-1.8-2.9-2c-2.07,5.18,2.24,3.16,0.9,8.5c-1-1.3-1.1-3.2-2.7-4.1
		c-2.6,1.6,0.5,2.7,0.3,4.3c-1.7-0.6-2.7-1.7-3.5-3.5c5.58-3.51-0.31-13.04,11.01-2.2c-2-0.6-2.7,0.3-2.7,1.6
		c0,3.2,3.34,0.36,4.2,3.8C538.73,136.22,536.82,135.92,534.82,135.62z"/>
	<path d="M559.53,116.11c3-4.2,10.5-6,14.91-3.4c-0.26,4.6-7.53-1.02-12.81,3.4C561.24,116.51,560.24,116.71,559.53,116.11z"/>
	<path d="M564.44,120.31c2.6-2.4,4.9-3.8,8.1-3.8C570.86,118.56,576.59,120.52,564.44,120.31z"/>
	<path d="M542.43,140.52c1.6,2,1.58,4.02,2.6,5.5c0.98,1.42,2.5,2.4,4.2,4C545.08,150.03,540.68,145.61,542.43,140.52z"/>
	<path d="M533.32,157.83c0.5,0.9,1.5,1.7,0.8,3.2C533.12,160.13,532.62,159.13,533.32,157.83z"/>
	<path d="M532.42,151.53c0.7,1.9,0.7,1.9,0.1,3.7C531.82,153.33,531.82,153.33,532.42,151.53z"/>
	<path d="M544.03,147.83c-0.2,1.2,1,2.3,0.5,4.1C543.1,149.24,541.74,147.83,544.03,147.83z"/>
	<path d="M538.53,170.14c0.9,0.6,1.8,1.3,1.1,2.7C538.43,172.24,538.43,171.24,538.53,170.14z"/>
	<path d="M553.53,135.82c0.45-0.57,2.38,0.13,1.5,1.3C554.43,136.72,553.63,136.82,553.53,135.82z"/>
	<path d="M557.5,170.24c-0.48-0.07-0.79,0.59-1.67,0.2c-0.6-3.5-2.9-6.4-4.7-9.6c5.58,2.72,5.9,9.81,6.4,9.3
		C560.47,176,556.73,172.48,557.5,170.24z"/>
	<path d="M549.73,133.62c1.2-0.1,1.8,0.3,2.1,1.4C550.73,135.02,550.03,134.82,549.73,133.62z"/>
	<path d="M535.52,166.33c-1.23-1.63,1.63-1.85,1,1.1C536.02,166.83,535.72,166.53,535.52,166.33z"/>
	<path d="M548.33,158.33c-0.4-0.3-0.9-0.5-0.6-1.2C548.53,157.23,548.83,157.63,548.33,158.33z"/>
	<path d="M710.5,249.77c2.8-0.3,5.6-0.2,8.3,0.8C715.91,251.07,713.2,251.07,710.5,249.77z"/>
	<path d="M721.91,250.47c0.6,1.8,0,3.2-0.9,4.6C721.11,253.57,720.61,251.87,721.91,250.47z"/>
	<path d="M640.17,227.86c1.9,0.3,1.9,0.3,3.3,2.2C642.07,229.76,640.67,229.56,640.17,227.86z"/>
	<path d="M704.9,249.07c1.2-0.2,2.1-0.3,3.1,0.6C706.6,250.47,705.9,249.87,704.9,249.07z"/>
	<path d="M605.36,221.56c1.5-0.8,2.4-0.5,3.4,0.6C607.56,222.26,606.66,222.56,605.36,221.56z"/>
	<path d="M716.11,253.47c-1.4,0.8-2.2,0.3-3.4-0.4C714.11,252.77,714.91,252.67,716.11,253.47z"/>
	<path d="M611.06,221.76c0.9,0,1-0.8,1.9,0C612.56,222.16,612.16,222.36,611.06,221.76z"/>
	<path d="M701.3,248.47c0.5-0.3,1-0.4,1.7,0.2C702.3,248.77,701.9,249.07,701.3,248.47z"/>
	<path d="M814.55,444.86c5.32,3.07-0.26,8.53-0.8,9.7c-2.46-1.43-7.93-2.76-5.3-7.7C809.73,444.45,812.34,443.58,814.55,444.86z
		 M811.45,451.46c0.9-0.5,0.21-1.38,1.3-1.9c0.61-0.29,0.9,0.8,1.6,1.1c2.48-2.1-1.01-6.18-3.7-3.9
		C809.05,447.96,809.35,449.46,811.45,451.46z"/>
	<path d="M812.55,440.36c-0.13-6.09,9.1-6.33,9.1-0.4C821.65,446.11,812.68,446.37,812.55,440.36z M817.15,442.96
		c3.47,0.2,4.02-5.16,0.2-5.4C813.84,437.14,813.52,442.96,817.15,442.96z"/>
	<path d="M817.35,433.66c-1.26-2.67,0.8-4.5,2.2-6.5c2.4,1.7,5.2,2.4,7.1,4.4c-1.1,1.8-2.2-0.1-3.1,0.6c-1.3,1.5,1.8,3.2-0.1,4.7
		c-1.2-0.4-1.1-1.8-2.2-2.2C819.75,435.46,818.12,435.27,817.35,433.66z M821.95,431.15c-0.97-2.43-3.6-1-3,1.6
		C820.85,433.96,821.35,432.45,821.95,431.15z"/>
	<path d="M823.76,413.05c-3.7-1.9-5.1-5-3.1-7.4C822.55,408.04,824.56,409.94,823.76,413.05z"/>
	<path d="M822.85,406.64c2.4-1.1,2.5-1.1,3.1,2.1C824.66,408.34,823.35,408.24,822.85,406.64z"/>
	<path d="M838.26,345.42c-2.6-1.7-5.8-6-6.6-9C834.36,339.01,836.16,342.31,838.26,345.42z"/>
	<path d="M812.15,377.53c-0.6-0.7-1.4-1.3-1.5-2.3C811.95,375.43,812.05,376.53,812.15,377.53z"/>
	<path d="M679.29,391.74c1,0.4,2.2,0.2,2.3,0.7c-1.5,3.4-0.7,6.9-2.1,10.6C678.49,398.84,680.89,395.34,679.29,391.74z"/>
	<path d="M672.89,400.14c0.2-2.2,0.2-4.4,0.7-6.6C674.89,396.04,673.49,398.04,672.89,400.14z"/>
	<path d="M651.68,400.44c-0.53,0-0.4,0.67-0.4-4.6C652.21,395.53,652.03,394.84,651.68,400.44z"/>
	<path d="M655.58,397.44c-0.2-0.8-0.6-1.6,0.1-2.7C656.38,395.84,656.18,396.64,655.58,397.44z"/>
	<path d="M672.39,391.44c1.03,0.34,0.06,1.56-0.7,0.8C671.79,391.84,671.89,391.44,672.39,391.44z"/>
	<path d="M857.47,378.93c0.99-0.49-0.68-2.71,9.2,11.41c-0.2,0.2-0.5,0.3-0.7,0.5C863.07,386.93,859.57,383.43,857.47,378.93z"/>
	<path d="M852.17,390.04c2.4,3.6,4.8,7.2,6.1,11.31C855.77,397.84,853.67,394.14,852.17,390.04z"/>
	<path d="M854.37,385.33c3.3,2.1,4.6,5.6,6.5,8.7C857.97,391.74,856.47,388.23,854.37,385.33z"/>
	<path d="M856.67,412.95c-1.5-1.4-2-2.5-2.2-3.8C855.87,409.84,856.07,411.15,856.67,412.95z"/>
	<path d="M589.65,328.51c-0.9,0-1.3-0.2-0.9-1.4C589.65,327.31,590.15,327.61,589.65,328.51z"/>
	<path d="M41,149.93c0.6-2.5,0-5.3,2-7.5c-1.1-0.7-1.1-2.1-2.5-2.3c-0.4,0.8-0.8,1.6-1.2,2.3c0.7,2,1.9,3.9,0.3,6.3
		c-0.5-1.9-0.2-3.7-1.6-4.8c-2.9,0.9,0,2.7-0.7,4.2c-5.76-4.22-0.12-3.79,1.4-9c0.57-1.97,2.2-1.01,2.62-1.35
		c-0.05,0.27-0.25-0.22,4.68,6.16c-1.4,0-2.73-0.41-3,1.1c-0.59,3.35,3.12,1.34,3.4,4.4C44.3,151.33,44,151.33,41,149.93z"/>
	<path d="M103.23,244.87c5.5-2.75,2.79-6.84,2.7-8.9c1.9,1.7,2.63,6.31,1.6,8.5C104.87,250.14,87.88,250.21,103.23,244.87z"/>
	<path d="M84.22,134.92c-2.5,4.32-7.28-2.22-13.01,1.1c-0.5,0.29-1.4,0.1-2.1-0.4C72.31,132.12,80.02,131.72,84.22,134.92z"/>
	<path d="M80.92,141.12c-2.6,1.7-4.7-0.5-7.1-0.4c2.1-2.2,4.8-2.4,7.6-2.7C81.22,139.22,81.02,140.22,80.92,141.12z"/>
	<path d="M46.69,156.56c0,0,0-0.01,0-0.02c2.2,0.06,1.83,2.21,1.81,3.09c-0.08,3.73,3.79,5.9,3.2,7.3
		c-1.98-0.75-3.08-2.39-4.44-3.74C45.89,161.84,46.69,155.62,46.69,156.56z"/>
	<path d="M56.11,188.14c-0.5,0.3-1.29,0.5-1.3-0.3c-0.05-3.6-1.7-6.9-2.8-10.3C55.21,180.34,56.41,183.94,56.11,188.14z"/>
	<path d="M67.01,283.49c4.4,0.8,8.2,2.2,12.21,1.6C75.71,286.89,69.11,286.09,67.01,283.49z"/>
	<path d="M98.22,227.96c3.7,1.5,5.4,3.3,6,6.6C102.13,232.46,100.53,229.86,98.22,227.96z"/>
	<path d="M34.8,168.83c-0.4-1.6-0.6-2.9,0.8-4.2C36,166.23,36.1,167.53,34.8,168.83z"/>
	<path d="M47.4,166.93c-0.7-1.3-1.9-2.6-0.4-4C47.42,164.28,47.69,165.6,47.4,166.93z"/>
	<path d="M35.8,174.84c-1.6-1.1-1.4-2.2-0.8-3.7C36,172.24,35.9,173.24,35.8,174.84z"/>
	<path d="M90.42,220.36c1.7,0.4,3,1.1,3,3C92.52,222.26,91.02,221.76,90.42,220.36z"/>
	<path d="M36.4,181.54c-0.5-1.1-1.2-1.8-0.3-3.4C36.4,179.44,37.4,180.14,36.4,181.54z"/>
	<path d="M38.5,187.14c-0.8-1.5-0.8-1.5-0.3-2.7C38.6,185.34,39.2,186.14,38.5,187.14z"/>
	<path d="M56.81,191.24c-0.7-0.9-1-2-0.7-3.1C56.71,189.14,57.81,189.94,56.81,191.24z"/>
	<path d="M90.52,220.36c-1.1-0.1-2.1-0.2-2.8-1.7C89.12,218.96,90.02,219.26,90.52,220.36z"/>
	<path d="M81.12,252.07c1-0.8,1.6-0.3,2.3,0.7C82.42,253.17,81.52,253.37,81.12,252.07z"/>
	<path d="M85.92,252.47c0.7-0.4,1.2-0.3,1.6,0.5C86.42,253.67,86.12,253.17,85.92,252.47z"/>
	<path d="M60.71,155.03c-0.9,0.1-1.3-0.4-1.5-1.6C60.31,153.83,61.01,154.03,60.71,155.03z"/>
	<path d="M56.11,150.73c1,0.3,1.6,0.8,1.6,1.8C56.81,152.23,55.91,152.13,56.11,150.73z"/>
	<path d="M81.62,283.59c0.8-0.2,1.4-0.5,2.3,0.3C83.02,284.29,82.32,284.69,81.62,283.59z"/>
	<path d="M50.1,175.04c-1-0.3-1-0.9-0.6-1.5C50,173.84,50.2,174.24,50.1,175.04z"/>
	<path d="M48.1,170.44c-0.29,0.29-1.12-0.07-0.5-0.9C48.2,169.64,48.4,169.94,48.1,170.44z"/>
	<path d="M91.12,280.39c-0.5,0.9-1,1.3-1.8,0.8C89.62,280.49,89.92,279.99,91.12,280.39z"/>
	<path d="M243.89,376.83c-1.01,2.66-3.4,0.53-9.2-2.5C237.68,373,245.04,373.79,243.89,376.83z"/>
	<path d="M221.78,375.63c3.4-1.3,6.8-1.5,10.1-0.6c0,0.4,0,0.9,0,1.3C228.58,377.13,225.18,376.93,221.78,375.63z"/>
	<path d="M282.91,419.05c-0.92,0.92,0.64,2.15-9.8-6.9c0.3-0.3,0.6-0.6,0.9-1C276.31,414.65,280.91,415.45,282.91,419.05z"/>
	<path d="M290.81,426.05c-2.7-1.3-4.3-3.2-6.2-5.4C288.61,422.05,290.01,423.25,290.81,426.05z"/>
	<path d="M257.8,354.32c-2,0.1-3.7-0.7-5.6-2.4C254.8,351.92,256.8,351.92,257.8,354.32z"/>
	<path d="M271,400.34c-2-0.9-4-1.7-5.3-4.7C268.7,396.54,269.7,398.54,271,400.34z"/>
	<path d="M245.09,349.62c0.4,0.5,1.3,0.6,1.3,1.5c-1.3,0.5-1.7,2-4,2.3C243.79,352.12,243.39,350.32,245.09,349.62z"/>
	<path d="M274.2,402.74c2.2,0.1,3,1.7,4.1,3C276.71,405.24,275.01,404.84,274.2,402.74z"/>
	<path d="M252.29,360.32c-2.2,1-2.2,1-3.8-0.1C249.69,360.02,250.79,359.22,252.29,360.32z"/>
	<path d="M327.23,440.46c1.3,0.4,2.7,0.3,4,1.7C329.23,442.46,328.13,441.66,327.23,440.46z"/>
	<path d="M317.92,435.66c-1.1-0.3-1.7-0.7-2.3-1.7C317.02,433.86,317.72,434.26,317.92,435.66z"/>
	<path d="M327.23,440.46c-1.2,0.1-1.8-0.5-2.4-1.7C326.33,438.86,326.93,439.46,327.23,440.46z"/>
	<path d="M257.6,362.02c-0.8-0.1-1.5,0.2-2.1-1C256.4,360.62,257.2,360.52,257.6,362.02z"/>
	<path d="M259,391.24c-0.8,0.1-1.3-0.3-1.5-1.4C258.3,390.14,259.1,390.14,259,391.24z"/>
	<path d="M322.53,437.96c-0.8,0.3-1.3,0-1.6-0.9C321.53,437.26,322.43,436.66,322.53,437.96z"/>
	<path d="M218.38,376.83c0.9-0.4,1.5-1,2.6,0.3C219.88,377.43,219.18,377.63,218.38,376.83z"/>
	<path d="M254.6,388.84c-0.7,0.3-1.1,0.2-0.9-0.7C254.2,388.03,254.6,388.23,254.6,388.84z"/>
	<path d="M272.6,341.21c3.5,0.6,7.1,1,8.9,4.7C278.51,344.31,274.91,344.01,272.6,341.21z"/>
	<path d="M232.29,309.9c-4.5,2.1-9.4,1.2-14.21,1.6C222.68,309.7,227.48,310.6,232.29,309.9z"/>
	<path d="M269.9,340.31c-2.9-0.5-6-0.2-8.4-2.5C264.4,337.91,267.2,338.71,269.9,340.31z"/>
	<path d="M237.69,332.11c-2,2.7-3,3-6.3,1.9C233.79,333.41,234.99,331.41,237.69,332.11z"/>
	<path d="M242.79,310.2c2.3,0.9,4,2.5,4.3,5.1C245.69,313.5,242.99,312.8,242.79,310.2z"/>
	<path d="M246.09,326.81c-1,1.8-2.7,2.6-5,4C243.09,326.61,243.79,326.11,246.09,326.81z"/>
	<path d="M234.99,308.8c1.5,0,3.1-1.5,4.4,0.7C237.89,309.2,236.29,310.9,234.99,308.8z"/>
	<path d="M230.89,333.91c-1.1,1-2,1.7-3.3,1.5C228.38,334.61,229.08,333.41,230.89,333.91z"/>
	<path d="M284.81,349.82c-1-0.6-2.1-1.2-3.2-1.8C283.21,347.62,284.41,348.12,284.81,349.82z"/>
	<path d="M225.58,335.51c-1,1.5-2.1,1.8-3.8,1.7C222.88,336.01,223.98,335.41,225.58,335.51z"/>
	<path d="M285.01,350.72c1.3,0.2,1.9,0.5,2.1,1.6C286.01,352.32,285.51,351.82,285.01,350.72z"/>
	<path d="M320.43,375.13c-1,0.4-1.3-0.1-1.5-0.9C319.93,373.83,320.43,374.13,320.43,375.13z"/>
	<path d="M216.98,337.21c0.4-1,0.9-1.1,1.6-0.4C218.18,337.51,217.68,337.51,216.98,337.21z"/>
	<path d="M310.92,368.33c0.9-0.4,1.4-0.2,1.4,0.9C311.52,369.43,311.12,369.13,310.92,368.33z"/>
	<path d="M369.05,452.96c5.12,3.01,0.07,8.03-1,9.9c-1.27-1.56-7.76-2.48-5.1-7.8C364.19,452.58,366.84,451.67,369.05,452.96z
		 M366.05,459.57c0.7-0.6,0.1-1.5,0.9-1.8c0.9-0.4,1.1,0.9,1.9,0.9c2.72-2.72-1.94-6.2-4.1-3.6
		C363.55,456.87,363.85,458.37,366.05,459.57z"/>
	<path d="M367.05,448.26c0.4-6.48,9.35-5.64,9,0C375.66,454.62,366.69,453.99,367.05,448.26z M371.55,445.56
		c-3.46,0-3.47,5.62,0.2,5.4C375.22,450.76,375.4,445.56,371.55,445.56z"/>
	<path d="M371.85,441.66c-1.22-2.49,0.8-4.2,2.1-6.5c2.5,1.8,5.4,2.4,7.1,4.5c-1.1,1.9-2.2-0.3-3,0.5c-1.4,1.6,1.6,3.3-0.2,4.8
		c-1.1-0.4-0.9-1.9-2.1-2.2C374.25,443.56,372.64,443.27,371.85,441.66z M376.45,439.36c-0.33-1.79-3.36-2.27-3.1,1.4
		C375.45,442.06,375.85,440.46,376.45,439.36z"/>
	<path d="M380.05,419.25c-5.11-4.46-4.34-7.27-4.21-7.27C378.58,410.87,381.31,416.43,380.05,419.25z"/>
	<path d="M380.95,411.55c1,0.5,1.7,1.4,1.6,2.8c-1.6,0.2-2.4-1.2-3.7-1.3C379.55,412.55,379.65,411.45,380.95,411.55z"/>
	<path d="M388.46,342.01c7.5,10.71,6.64,8.56,5.7,9.5C391.82,348.33,386.48,343,388.46,342.01z"/>
	<path d="M385.06,367.73c-0.7-0.8-1.4-1.5-1.2-2.5C384.56,365.82,385.16,366.52,385.06,367.73z"/>
	<path d="M238.89,398.74c-2.71,0.39-0.38-0.96-2.8,9.4c-1-3.6,1.2-7.1-0.5-10.9C236.79,397.84,237.99,397.84,238.89,398.74z"/>
	<path d="M230.08,399.24c1.2,2.3,0.2,4.4-0.8,6.5C229.48,403.54,229.58,401.34,230.08,399.24z"/>
	<path d="M207.77,405.84c0-5.07-0.18-4.6,0.7-4.6C208.12,406.53,208.32,405.84,207.77,405.84z"/>
	<path d="M211.78,400.64c1,1,0.9,1.9,0,3.4C211.78,402.54,211.78,401.54,211.78,400.64z"/>
	<path d="M228.08,397.54c0.5-0.3,0.9-0.6,1.8,0.4C229.08,397.84,228.68,398.44,228.08,397.54z"/>
	<path d="M417.74,376.68c0.06-0.28,0.83,0.02,0.83,0.15c3.11,6.73,9.72,16.37,8.6,18.61C418.07,379.65,417.22,379.02,417.74,376.68z
		"/>
	<path d="M414.57,384.13c10.23,14.11,8.73,11.68,7.9,12.51C418.93,391.75,413.01,385.69,414.57,384.13z"/>
	<path d="M414.77,407.24c-2.4-3.6-4.7-7.3-6.1-11.51C410.97,399.44,413.47,403.04,414.77,407.24z"/>
	<path d="M417.37,399.84c-2.8-2.5-4.6-5.8-6.6-8.9C414.07,393.14,415.37,396.74,417.37,399.84z"/>
	<path d="M411.27,414.25c0.4,1.3,1.4,2.3,1.5,4.4C411.67,416.85,410.67,415.85,411.27,414.25z"/>
	<path d="M135.34,303.9c0.5,0.3,1.1,0.6,0.5,1.5C135.04,305,134.64,304.6,135.34,303.9z"/>
	<path d="M135.64,309.4c-0.9-0.6-0.7-1.2-0.2-1.8C135.44,308.2,136.34,308.7,135.64,309.4z"/>
<path fill="#e6e6e6" d="m206.8 163.6c0-5.1 4.1-9.2 9.3-9.2s9.2 4.2 9.2 9.2-4.1 9.2-9.3 9.2-9.2-4.1-9.2-9.2zm17.3-.1c0-4.5-3.5-8.2-8.2-8.2s-8.2 3.7-8.2 8.3c0 4.5 3.5 8.2 8.2 8.2s8.2-3.7 8.2-8.3zm-13 0c0-2.8 2.1-5.1 5.1-5.1 1.9 0 2.9.6 3.9 1.5l-1.4 1.7c-.8-.7-1.5-1.1-2.5-1.1-1.7 0-2.8 1.4-2.8 3.1s1.1 3 2.8 3c1.1 0 1.7-.5 2.5-1.1l1.4 1.4c-1.1 1.1-2.1 1.7-4 1.7-2.9 0-5-2.3-5-5.1z"/><path fill="#e6e6e6" d="m226.6 154.7h3.4l4.2 13.2 4.4-13.3h2.6l4.4 13.3 4.2-13.2h3.3l-6.2 18h-2.7l-4.4-12.8-4.4 12.8h-2.7z"/><path fill="#e6e6e6" d="m252.8 165.8c0-3.9 3.1-7 7.2-7 4.2 0 7.2 3.2 7.2 7s-3.1 7-7.3 7c-4 0-7.1-3.1-7.1-7zm11.3 0c0-2.3-1.7-4.3-4.2-4.3s-4.1 2-4.1 4.3 1.7 4.3 4.1 4.3c2.7.1 4.2-1.9 4.2-4.3z"/><path fill="#e6e6e6" d="m269.5 159.1h3.1v3c.8-2 2.4-3.4 4.8-3.3v3.2h-.2c-2.7 0-4.6 1.7-4.6 5.4v5.1h-3.1z"/><path fill="#e6e6e6" d="m279.1 153.9h3.1v11.1l5.6-6h3.8l-5.4 5.5 5.5 8h-3.5l-4.1-5.8-1.9 2v3.9h-3.1z"/><path fill="#e6e6e6" d="m291.7 165.8c0-3.9 3.1-7 7.2-7 4.2 0 7.2 3.2 7.2 7s-3.1 7-7.3 7c-4 0-7.1-3.1-7.1-7zm11.3 0c0-2.3-1.7-4.3-4.2-4.3s-4.1 2-4.1 4.3 1.7 4.3 4.1 4.3c2.6.1 4.2-1.9 4.2-4.3z"/><path fill="#e6e6e6" d="m308.2 167.6v-8.6h3.1v7.6c0 2.1 1.1 3.3 2.9 3.3s3-1.3 3-3.3v-7.6h3.1v13.4h-3.1v-2.1c-.8 1.3-2.1 2.3-4.2 2.3-3.1.2-4.8-1.8-4.8-5z"/><path fill="#e6e6e6" d="m323.9 168.8v-7.1h-1.7v-2.6h1.7v-3.7h3.1v3.7h3.6v2.6h-3.6v6.6c0 1.2.6 1.7 1.7 1.7.7 0 1.3-.2 1.9-.5v2.5c-.8.5-1.7.7-2.8.7-2.3 0-3.9-.9-3.9-3.9z"/><path fill="#e6e6e6" d="m333.2 154.7h3.2v15h9.4v2.9h-12.5v-17.9z"/><path fill="#e6e6e6" d="m356 172.5v-1.7c-.9 1.1-2.3 2-4.4 2-2.6 0-4.8-1.4-4.8-4.2 0-3 2.3-4.4 5.4-4.4 1.7 0 2.6.2 3.7.5v-.2c0-1.9-1.2-2.9-3.3-2.9-1.5 0-2.6.3-3.9.8l-.8-2.5c1.5-.7 2.9-1.1 5.1-1.1 4 0 5.9 2.1 5.9 5.7v8zm.1-5.6c-.8-.3-1.9-.5-3.1-.5-2 0-3.1.8-3.1 2.1s1.1 2 2.6 2c2 0 3.5-1.1 3.5-2.9z"/><path fill="#e6e6e6" d="m364.9 170.5v2.1h-3.1v-18.7h3.1v7.4c1-1.4 2.4-2.5 4.5-2.5 3.2 0 6.3 2.5 6.3 7s-3.1 7-6.3 7c-2.1 0-3.5-1.1-4.5-2.3zm7.7-4.7c0-2.6-1.7-4.3-3.9-4.3s-3.9 1.7-3.9 4.4c0 2.6 1.8 4.3 3.9 4.3s3.9-1.7 3.9-4.4z"/><path fill="#e6e6e6" d="m376.9 170.8 1.4-2.1c1.4 1.1 3 1.7 4.4 1.7s2.1-.5 2.1-1.5-1.3-1.4-2.8-1.8c-.1 0-.2-.1-.2-.1-2-.6-4.2-1.4-4.2-4s2.1-4.1 4.8-4.1c1.7 0 3.5.6 5 1.5l-1.2 2.2c-1.3-.8-2.6-1.3-3.8-1.3s-1.9.5-1.9 1.4 1.3 1.4 2.8 1.8c.1 0 .2.1.2.1 2 .6 4.2 1.5 4.2 4 0 2.9-2.2 4.2-5 4.2-1.9 0-4-.7-5.8-2z"/><path fill="#e6e6e6" d="m505.6 163.6c0-5.1 4.1-9.2 9.3-9.2s9.2 4.2 9.2 9.2-4.1 9.2-9.3 9.2-9.2-4.1-9.2-9.2zm17.4-.1c0-4.5-3.5-8.2-8.2-8.2s-8.2 3.7-8.2 8.3c0 4.5 3.5 8.2 8.2 8.2s8.2-3.7 8.2-8.3zm-13.1 0c0-2.8 2.1-5.1 5.1-5.1 1.9 0 2.9.6 3.9 1.5l-1.4 1.7c-.8-.7-1.5-1.1-2.5-1.1-1.7 0-2.8 1.4-2.8 3.1s1.1 3 2.8 3c1.1 0 1.7-.5 2.5-1.1l1.4 1.4c-1.1 1.1-2.1 1.7-4 1.7-2.9 0-5-2.3-5-5.1z"/><path fill="#e6e6e6" d="m525.4 154.7h3.4l4.2 13.2 4.4-13.3h2.6l4.4 13.3 4.2-13.2h3.3l-6.2 18h-2.7l-4.4-12.8-4.4 12.8h-2.7z"/><path fill="#e6e6e6" d="m551.7 165.8c0-3.9 3.1-7 7.2-7 4.2 0 7.2 3.2 7.2 7s-3.1 7-7.3 7c-4.1 0-7.1-3.1-7.1-7zm11.2 0c0-2.3-1.7-4.3-4.2-4.3s-4.1 2-4.1 4.3 1.7 4.3 4.1 4.3c2.7.1 4.2-1.9 4.2-4.3z"/><path fill="#e6e6e6" d="m568.3 159.1h3.1v3c.8-2 2.4-3.4 4.8-3.3v3.2h-.2c-2.7 0-4.6 1.7-4.6 5.4v5.1h-3.1z"/><path fill="#e6e6e6" d="m577.9 153.9h3.1v11.1l5.6-6h3.8l-5.4 5.5 5.5 8h-3.5l-4.1-5.8-1.9 2v3.9h-3.1z"/><path fill="#e6e6e6" d="m590.6 165.8c0-3.9 3.1-7 7.2-7 4.2 0 7.2 3.2 7.2 7s-3.1 7-7.3 7c-4.1 0-7.1-3.1-7.1-7zm11.2 0c0-2.3-1.7-4.3-4.2-4.3s-4.1 2-4.1 4.3 1.7 4.3 4.1 4.3c2.6.1 4.2-1.9 4.2-4.3z"/><path fill="#e6e6e6" d="m607 167.6v-8.6h3.1v7.6c0 2.1 1.1 3.3 2.9 3.3s3-1.3 3-3.3v-7.6h3.1v13.4h-3.1v-2.1c-.8 1.3-2.1 2.3-4.2 2.3-3 .2-4.8-1.8-4.8-5z"/><path fill="#e6e6e6" d="m622.7 168.8v-7.1h-1.7v-2.6h1.7v-3.7h3.1v3.7h3.6v2.6h-3.6v6.6c0 1.2.6 1.7 1.7 1.7.7 0 1.3-.2 1.9-.5v2.5c-.8.5-1.7.7-2.8.7-2.3 0-3.9-.9-3.9-3.9z"/><path fill="#e6e6e6" d="m632 154.7h3.2v15h9.4v2.9h-12.6z"/><path fill="#e6e6e6" d="m654.8 172.5v-1.7c-.9 1.1-2.3 2-4.4 2-2.6 0-4.8-1.4-4.8-4.2 0-3 2.3-4.4 5.4-4.4 1.7 0 2.6.2 3.7.5v-.2c0-1.9-1.2-2.9-3.3-2.9-1.5 0-2.6.3-3.9.8l-.8-2.5c1.5-.7 2.9-1.1 5.1-1.1 4 0 5.9 2.1 5.9 5.7v8zm.1-5.6c-.8-.3-1.9-.5-3.1-.5-2 0-3.1.8-3.1 2.1s1.1 2 2.6 2c2 0 3.5-1.1 3.5-2.9z"/><path fill="#e6e6e6" d="m663.7 170.5v2.1h-3.1v-18.7h3.1v7.4c1-1.4 2.4-2.5 4.5-2.5 3.2 0 6.3 2.5 6.3 7s-3.1 7-6.3 7c-2.1 0-3.5-1.1-4.5-2.3zm7.8-4.7c0-2.6-1.7-4.3-3.9-4.3-2.1 0-3.9 1.7-3.9 4.4 0 2.6 1.8 4.3 3.9 4.3s3.9-1.7 3.9-4.4z"/><path fill="#e6e6e6" d="m675.8 170.8 1.4-2.1c1.4 1.1 3 1.7 4.4 1.7s2.1-.5 2.1-1.5-1.3-1.4-2.8-1.8c-.1 0-.2-.1-.2-.1-2-.6-4.2-1.4-4.2-4s2.1-4.1 4.8-4.1c1.7 0 3.5.6 5 1.5l-1.2 2.2c-1.3-.8-2.6-1.3-3.8-1.3s-1.9.5-1.9 1.4 1.3 1.4 2.8 1.8c.1 0 .2.1.2.1 2 .6 4.2 1.5 4.2 4 0 2.9-2.2 4.2-5 4.2-2 0-4.1-.7-5.8-2z"/><path fill="#e6e6e6" d="m61 298.6c0-5.1 4.1-9.2 9.3-9.2s9.2 4.2 9.2 9.2-4.1 9.2-9.3 9.2c-5.1 0-9.2-4.2-9.2-9.2zm17.4-.1c0-4.5-3.5-8.2-8.2-8.2s-8.2 3.7-8.2 8.3c0 4.5 3.5 8.2 8.2 8.2s8.2-3.7 8.2-8.3zm-13.1-.1c0-2.8 2.1-5.1 5.1-5.1 1.9 0 2.9.6 3.9 1.5l-1.4 1.7c-.8-.7-1.5-1.1-2.5-1.1-1.7 0-2.8 1.4-2.8 3.1s1.1 3 2.8 3c1.1 0 1.7-.5 2.5-1.1l1.4 1.4c-1.1 1.1-2.1 1.7-4 1.7-2.8.1-5-2.2-5-5.1z"/><path fill="#e6e6e6" d="m80.9 289.7h3.4l4.2 13.2 4.4-13.3h2.6l4.4 13.3 4.2-13.2h3.3l-6.2 18h-2.7l-4.4-12.8-4.4 12.8h-2.7z"/><path fill="#e6e6e6" d="m107.1 300.8c0-3.9 3.1-7 7.2-7s7.2 3.2 7.2 7-3.1 7-7.3 7c-4 0-7.1-3.1-7.1-7zm11.3 0c0-2.3-1.7-4.3-4.2-4.3s-4.1 2-4.1 4.3 1.7 4.3 4.1 4.3c2.6.1 4.2-1.9 4.2-4.3z"/><path fill="#e6e6e6" d="m123.7 294h3.1v3c.8-2 2.4-3.4 4.8-3.3v3.2h-.2c-2.7 0-4.6 1.7-4.6 5.4v5.1h-3.1z"/><path fill="#e6e6e6" d="m133.4 288.9h3.1v11.1l5.6-6h3.8l-5.4 5.5 5.5 8h-3.5l-4.1-5.8-1.9 1.9v3.9h-3.1z"/><path fill="#e6e6e6" d="m146 300.8c0-3.9 3.1-7 7.2-7s7.2 3.2 7.2 7-3.1 7-7.3 7c-4.1 0-7.1-3.1-7.1-7zm11.2 0c0-2.3-1.7-4.3-4.2-4.3s-4.1 2-4.1 4.3 1.7 4.3 4.1 4.3c2.6.1 4.2-1.9 4.2-4.3z"/><path fill="#e6e6e6" d="m162.4 302.6v-8.6h3.1v7.6c0 2.1 1.1 3.3 2.9 3.3s3-1.3 3-3.3v-7.6h3.1v13.4h-3.1v-2.1c-.8 1.3-2.1 2.3-4.2 2.3-3 .2-4.8-1.8-4.8-5z"/><path fill="#e6e6e6" d="m178.1 303.8v-7.1h-1.7v-2.7h1.7v-3.7h3.1v3.7h3.6v2.6h-3.6v6.6c0 1.2.6 1.7 1.7 1.7.7 0 1.3-.2 1.9-.5v2.5c-.8.5-1.7.7-2.8.7-2.3.1-3.9-.9-3.9-3.8z"/><path fill="#e6e6e6" d="m187.4 289.7h3.2v15h9.4v2.9h-12.5v-17.9z"/><path fill="#e6e6e6" d="m210.2 307.5v-1.7c-.9 1.1-2.3 2-4.4 2-2.6 0-4.8-1.4-4.8-4.2 0-3 2.3-4.4 5.4-4.4 1.7 0 2.6.2 3.7.5v-.2c0-1.9-1.2-2.9-3.3-2.9-1.5 0-2.6.3-3.9.8l-.8-2.5c1.5-.7 2.9-1.1 5.1-1.1 4 0 5.9 2.1 5.9 5.7v8zm.1-5.6c-.8-.3-1.9-.5-3.1-.5-2 0-3.1.8-3.1 2.1s1.1 2 2.6 2c2 0 3.5-1.1 3.5-2.9z"/><path fill="#e6e6e6" d="m219.2 305.5v2.1h-3.1v-18.7h3.1v7.4c1-1.4 2.4-2.5 4.5-2.5 3.2 0 6.3 2.5 6.3 7s-3.1 7-6.3 7c-2.2 0-3.6-1.1-4.5-2.3zm7.7-4.7c0-2.6-1.7-4.3-3.9-4.3s-3.9 1.7-3.9 4.4c0 2.6 1.8 4.3 3.9 4.3s3.9-1.7 3.9-4.4z"/><path fill="#e6e6e6" d="m231.2 305.8 1.4-2.1c1.4 1.1 3 1.7 4.4 1.7s2.1-.5 2.1-1.5-1.3-1.4-2.8-1.8c-.1 0-.2-.1-.2-.1-2-.6-4.2-1.4-4.2-4s2.1-4.1 4.8-4.1c1.7 0 3.5.6 5 1.5l-1.2 2.2c-1.3-.8-2.6-1.3-3.8-1.3s-1.9.5-1.9 1.4 1.3 1.4 2.8 1.8c.1 0 .2.1.2.1 2 .6 4.2 1.5 4.2 4 0 2.9-2.2 4.2-5 4.2-2 0-4.1-.7-5.8-2z"/><path fill="#e6e6e6" d="m360.6 298.6c0-5.1 4.1-9.2 9.3-9.2s9.2 4.2 9.2 9.2-4.1 9.2-9.3 9.2-9.2-4.2-9.2-9.2zm17.4-.1c0-4.5-3.5-8.2-8.2-8.2s-8.2 3.7-8.2 8.3c0 4.5 3.5 8.2 8.2 8.2s8.2-3.7 8.2-8.3zm-13.1-.1c0-2.8 2.1-5.1 5.1-5.1 1.9 0 2.9.6 3.9 1.5l-1.4 1.7c-.8-.7-1.5-1.1-2.5-1.1-1.7 0-2.8 1.4-2.8 3.1s1.1 3 2.8 3c1.1 0 1.7-.5 2.5-1.1l1.4 1.4c-1.1 1.1-2.1 1.7-4 1.7-2.8.1-5-2.2-5-5.1z"/><path fill="#e6e6e6" d="m380.5 289.7h3.4l4.2 13.2 4.4-13.3h2.6l4.4 13.3 4.2-13.2h3.3l-6.2 18h-2.7l-4.4-12.8-4.4 12.8h-2.7z"/><path fill="#e6e6e6" d="m406.7 300.8c0-3.9 3.1-7 7.2-7 4.2 0 7.2 3.2 7.2 7s-3.1 7-7.3 7c-4.1 0-7.1-3.1-7.1-7zm11.3 0c0-2.3-1.7-4.3-4.2-4.3s-4.1 2-4.1 4.3 1.7 4.3 4.1 4.3c2.7.1 4.2-1.9 4.2-4.3z"/><path fill="#e6e6e6" d="m423.3 294h3.1v3c.8-2 2.4-3.4 4.8-3.3v3.2h-.2c-2.7 0-4.6 1.7-4.6 5.4v5.1h-3.1z"/><path fill="#e6e6e6" d="m433 288.9h3.1v11.1l5.6-6h3.8l-5.4 5.5 5.5 8h-3.5l-4.1-5.8-1.9 2v3.9h-3.1z"/><path fill="#e6e6e6" d="m445.6 300.8c0-3.9 3.1-7 7.2-7 4.2 0 7.2 3.2 7.2 7s-3.1 7-7.3 7c-4.1 0-7.1-3.1-7.1-7zm11.3 0c0-2.3-1.7-4.3-4.2-4.3s-4.1 2-4.1 4.3 1.7 4.3 4.1 4.3c2.6.1 4.2-1.9 4.2-4.3z"/><path fill="#e6e6e6" d="m462.1 302.6v-8.6h3.1v7.6c0 2.1 1.1 3.3 2.9 3.3s3-1.3 3-3.3v-7.6h3.1v13.4h-3.1v-2.1c-.8 1.3-2.1 2.3-4.2 2.3-3.1.2-4.8-1.8-4.8-5z"/><path fill="#e6e6e6" d="m477.8 303.8v-7.1h-1.8v-2.7h1.7v-3.7h3.1v3.7h3.6v2.6h-3.6v6.6c0 1.2.6 1.7 1.7 1.7.7 0 1.3-.2 1.9-.5v2.5c-.8.5-1.7.7-2.8.7-2.2.1-3.8-.9-3.8-3.8z"/><path fill="#e6e6e6" d="m487.1 289.7h3.2v15h9.4v2.9h-12.5v-17.9z"/><path fill="#e6e6e6" d="m509.9 307.5v-1.7c-.9 1.1-2.3 2-4.4 2-2.6 0-4.8-1.4-4.8-4.2 0-3 2.3-4.4 5.4-4.4 1.7 0 2.6.2 3.7.5v-.2c0-1.9-1.2-2.9-3.3-2.9-1.5 0-2.6.3-3.9.8l-.8-2.5c1.5-.7 2.9-1.1 5.1-1.1 4 0 5.9 2.1 5.9 5.7v8zm.1-5.6c-.8-.3-1.9-.5-3.1-.5-2 0-3.1.8-3.1 2.1s1.1 2 2.6 2c2 0 3.5-1.1 3.5-2.9z"/><path fill="#e6e6e6" d="m518.8 305.5v2.1h-3.1v-18.7h3.1v7.4c1-1.4 2.4-2.5 4.5-2.5 3.2 0 6.3 2.5 6.3 7s-3.1 7-6.3 7c-2.2 0-3.5-1.1-4.5-2.3zm7.7-4.7c0-2.6-1.7-4.3-3.9-4.3s-3.9 1.7-3.9 4.4c0 2.6 1.8 4.3 3.9 4.3s3.9-1.7 3.9-4.4z"/><path fill="#e6e6e6" d="m530.8 305.8 1.4-2.1c1.4 1.1 3 1.7 4.4 1.7s2.1-.5 2.1-1.5-1.3-1.4-2.8-1.8c-.1 0-.2-.1-.2-.1-2-.6-4.2-1.4-4.2-4s2.1-4.1 4.8-4.1c1.7 0 3.5.6 5 1.5l-1.2 2.2c-1.3-.8-2.6-1.3-3.8-1.3s-1.9.5-1.9 1.4 1.3 1.4 2.8 1.8c.1 0 .2.1.2.1 2 .6 4.2 1.5 4.2 4 0 2.9-2.2 4.2-5 4.2-1.9 0-4.1-.7-5.8-2z"/><path fill="#e6e6e6" d="m659.5 298.6c0-5.1 4.1-9.2 9.3-9.2s9.2 4.2 9.2 9.2-4.1 9.2-9.3 9.2-9.2-4.2-9.2-9.2zm17.3-.1c0-4.5-3.5-8.2-8.2-8.2s-8.2 3.7-8.2 8.3c0 4.5 3.5 8.2 8.2 8.2 4.8 0 8.2-3.7 8.2-8.3zm-13-.1c0-2.8 2.1-5.1 5.1-5.1 1.9 0 2.9.6 3.9 1.5l-1.4 1.7c-.8-.7-1.5-1.1-2.5-1.1-1.7 0-2.8 1.4-2.8 3.1s1.1 3 2.8 3c1.1 0 1.7-.5 2.5-1.1l1.4 1.4c-1.1 1.1-2.1 1.7-4 1.7-2.9.1-5-2.2-5-5.1z"/><path fill="#e6e6e6" d="m679.3 289.7h3.4l4.2 13.2 4.4-13.3h2.6l4.4 13.3 4.2-13.2h3.3l-6.2 18h-2.6l-4.4-12.8-4.4 12.8h-2.7z"/><path fill="#e6e6e6" d="m705.5 300.8c0-3.9 3.1-7 7.2-7 4.2 0 7.2 3.2 7.2 7s-3.1 7-7.3 7c-4 0-7.1-3.1-7.1-7zm11.3 0c0-2.3-1.7-4.3-4.2-4.3s-4.1 2-4.1 4.3 1.7 4.3 4.1 4.3c2.7.1 4.2-1.9 4.2-4.3z"/><path fill="#e6e6e6" d="m722.1 294h3.1v3c.8-2 2.4-3.4 4.8-3.3v3.2h-.2c-2.7 0-4.6 1.7-4.6 5.4v5.1h-3.1z"/><path fill="#e6e6e6" d="m731.8 288.9h3.1v11.1l5.6-6h3.8l-5.4 5.5 5.5 8h-3.5l-4.1-5.8-1.9 2v3.9h-3.1z"/><path fill="#e6e6e6" d="m744.4 300.8c0-3.9 3.1-7 7.2-7 4.2 0 7.2 3.2 7.2 7s-3.1 7-7.3 7c-4.1 0-7.1-3.1-7.1-7zm11.3 0c0-2.3-1.7-4.3-4.2-4.3s-4.1 2-4.1 4.3 1.7 4.3 4.1 4.3c2.6.1 4.2-1.9 4.2-4.3z"/><path fill="#e6e6e6" d="m760.9 302.6v-8.6h3.1v7.6c0 2.1 1.1 3.3 2.9 3.3s3-1.3 3-3.3v-7.6h3.1v13.4h-3.1v-2.1c-.8 1.3-2.1 2.3-4.2 2.3-3.1.2-4.8-1.8-4.8-5z"/><path fill="#e6e6e6" d="m776.6 303.8v-7.1h-1.7v-2.7h1.7v-3.7h3.1v3.7h3.6v2.6h-3.6v6.6c0 1.2.6 1.7 1.7 1.7.7 0 1.3-.2 1.9-.5v2.5c-.8.5-1.7.7-2.8.7-2.3.1-3.9-.9-3.9-3.8z"/><path fill="#e6e6e6" d="m785.9 289.7h3.2v15h9.4v2.9h-12.5v-17.9z"/><path fill="#e6e6e6" d="m808.7 307.5v-1.7c-.9 1.1-2.3 2-4.4 2-2.6 0-4.8-1.4-4.8-4.2 0-3 2.3-4.4 5.4-4.4 1.7 0 2.6.2 3.7.5v-.2c0-1.9-1.2-2.9-3.3-2.9-1.5 0-2.6.3-3.9.8l-.8-2.5c1.5-.7 2.9-1.1 5.1-1.1 4 0 5.9 2.1 5.9 5.7v8zm.1-5.6c-.8-.3-1.9-.5-3.1-.5-2 0-3.1.8-3.1 2.1s1.1 2 2.6 2c2 0 3.5-1.1 3.5-2.9z"/><path fill="#e6e6e6" d="m817.6 305.5v2.1h-3.1v-18.7h3.1v7.4c1-1.4 2.4-2.5 4.5-2.5 3.2 0 6.3 2.5 6.3 7s-3.1 7-6.3 7c-2.1 0-3.5-1.1-4.5-2.3zm7.7-4.7c0-2.6-1.7-4.3-3.9-4.3-2.1 0-3.9 1.7-3.9 4.4 0 2.6 1.8 4.3 3.9 4.3 2.2 0 3.9-1.7 3.9-4.4z"/><path fill="#e6e6e6" d="m829.6 305.8 1.4-2.1c1.4 1.1 3 1.7 4.4 1.7s2.1-.5 2.1-1.5-1.3-1.4-2.8-1.8c-.1 0-.2-.1-.2-.1-2-.6-4.2-1.4-4.2-4s2.1-4.1 4.8-4.1c1.7 0 3.5.6 5 1.5l-1.2 2.2c-1.3-.8-2.6-1.3-3.8-1.3s-1.9.5-1.9 1.4 1.3 1.4 2.8 1.8c.1 0 .2.1.2.1 2 .6 4.2 1.5 4.2 4 0 2.9-2.2 4.2-5 4.2-1.9 0-4-.7-5.8-2z"/><path fill="#e6e6e6" d="m206.3 434.2c0-5.1 4.1-9.2 9.3-9.2s9.2 4.2 9.2 9.2-4.1 9.2-9.3 9.2-9.2-4.1-9.2-9.2zm17.4-.1c0-4.5-3.5-8.2-8.2-8.2s-8.2 3.7-8.2 8.3c0 4.5 3.5 8.2 8.2 8.2s8.2-3.7 8.2-8.3zm-13.1-.1c0-2.8 2.1-5.1 5.1-5.1 1.9 0 2.9.6 3.9 1.5l-1.4 1.7c-.8-.7-1.5-1.1-2.5-1.1-1.7 0-2.8 1.4-2.8 3.1s1.1 3 2.8 3c1.1 0 1.7-.5 2.5-1.1l1.4 1.4c-1.1 1.1-2.1 1.7-4 1.7-2.9.1-5-2.2-5-5.1z"/><path fill="#e6e6e6" d="m226.1 425.3h3.4l4.2 13.2 4.4-13.3h2.6l4.4 13.3 4.2-13.2h3.3l-6.2 18h-2.7l-4.4-12.8-4.4 12.8h-2.7z"/><path fill="#e6e6e6" d="m252.4 436.4c0-3.9 3.1-7 7.2-7 4.2 0 7.2 3.2 7.2 7s-3.1 7-7.3 7c-4.1 0-7.1-3.1-7.1-7zm11.2 0c0-2.3-1.7-4.3-4.2-4.3s-4.1 2-4.1 4.3 1.7 4.3 4.1 4.3c2.7.1 4.2-1.9 4.2-4.3z"/><path fill="#e6e6e6" d="m269 429.7h3.1v3c.8-2 2.4-3.4 4.8-3.3v3.2h-.2c-2.7 0-4.6 1.7-4.6 5.4v5.1h-3.1z"/><path fill="#e6e6e6" d="m278.6 424.5h3.1v11.1l5.6-6h3.8l-5.4 5.5 5.5 8h-3.5l-4.1-5.8-1.9 2v3.9h-3.1z"/><path fill="#e6e6e6" d="m291.3 436.4c0-3.9 3.1-7 7.2-7 4.2 0 7.2 3.2 7.2 7s-3.1 7-7.3 7c-4.1 0-7.1-3.1-7.1-7zm11.2 0c0-2.3-1.7-4.3-4.2-4.3s-4.1 2-4.1 4.3 1.7 4.3 4.1 4.3c2.6.1 4.2-1.9 4.2-4.3z"/><path fill="#e6e6e6" d="m307.7 438.2v-8.6h3.1v7.6c0 2.1 1.1 3.3 2.9 3.3s3-1.3 3-3.3v-7.6h3.1v13.4h-3.1v-2.1c-.8 1.3-2.1 2.3-4.2 2.3-3 .2-4.8-1.8-4.8-5z"/><path fill="#e6e6e6" d="m323.4 439.4v-7.1h-1.7v-2.6h1.7v-3.7h3.1v3.7h3.6v2.6h-3.6v6.6c0 1.2.6 1.7 1.7 1.7.7 0 1.3-.2 1.9-.5v2.5c-.8.5-1.7.7-2.8.7-2.3 0-3.9-.9-3.9-3.9z"/><path fill="#e6e6e6" d="m332.7 425.3h3.2v15h9.4v2.9h-12.5v-17.9z"/><path fill="#e6e6e6" d="m355.5 443.1v-1.7c-.9 1.1-2.3 2-4.4 2-2.6 0-4.8-1.4-4.8-4.2 0-3 2.3-4.4 5.4-4.4 1.7 0 2.6.2 3.7.5v-.2c0-1.9-1.2-2.9-3.3-2.9-1.5 0-2.6.3-3.9.8l-.8-2.5c1.5-.7 2.9-1.1 5.1-1.1 4 0 5.9 2.1 5.9 5.7v8zm.1-5.6c-.8-.3-1.9-.5-3.1-.5-2 0-3.1.8-3.1 2.1s1.1 2 2.6 2c2 0 3.5-1.1 3.5-2.9z"/><path fill="#e6e6e6" d="m364.4 441.1v2.1h-3.1v-18.7h3.1v7.4c1-1.4 2.4-2.5 4.5-2.5 3.2 0 6.3 2.5 6.3 7s-3.1 7-6.3 7c-2.1 0-3.5-1.1-4.5-2.3zm7.7-4.7c0-2.6-1.7-4.3-3.9-4.3-2.1 0-3.9 1.7-3.9 4.4 0 2.6 1.8 4.3 3.9 4.3 2.2 0 3.9-1.7 3.9-4.4z"/><path fill="#e6e6e6" d="m376.5 441.4 1.4-2.1c1.4 1.1 3 1.7 4.4 1.7s2.1-.5 2.1-1.5-1.3-1.4-2.8-1.8c-.1 0-.2-.1-.2-.1-2-.6-4.2-1.4-4.2-4s2.1-4.1 4.8-4.1c1.7 0 3.5.6 5 1.5l-1.2 2.2c-1.3-.8-2.6-1.3-3.8-1.3s-1.9.5-1.9 1.4 1.3 1.4 2.8 1.8c.1 0 .2.1.2.1 2 .6 4.2 1.5 4.2 4 0 2.9-2.2 4.2-5 4.2-2 0-4.1-.7-5.8-2z"/><path fill="#e6e6e6" d="m505.1 434.2c0-5.1 4.1-9.2 9.3-9.2s9.2 4.2 9.2 9.2-4.1 9.2-9.3 9.2-9.2-4.1-9.2-9.2zm17.4-.1c0-4.5-3.5-8.2-8.2-8.2s-8.2 3.7-8.2 8.3c0 4.5 3.5 8.2 8.2 8.2s8.2-3.7 8.2-8.3zm-13.1-.1c0-2.8 2.1-5.1 5.1-5.1 1.9 0 2.9.6 3.9 1.5l-1.4 1.7c-.8-.7-1.5-1.1-2.5-1.1-1.7 0-2.8 1.4-2.8 3.1s1.1 3 2.8 3c1.1 0 1.7-.5 2.5-1.1l1.4 1.4c-1.1 1.1-2.1 1.7-4 1.7-2.9.1-5-2.2-5-5.1z"/><path fill="#e6e6e6" d="m525 425.3h3.4l4.2 13.2 4.4-13.3h2.6l4.4 13.3 4.2-13.2h3.3l-6.2 18h-2.7l-4.4-12.8-4.4 12.8h-2.7z"/><path fill="#e6e6e6" d="m551.2 436.4c0-3.9 3.1-7 7.2-7 4.2 0 7.2 3.2 7.2 7s-3.1 7-7.3 7c-4.1 0-7.1-3.1-7.1-7zm11.2 0c0-2.3-1.7-4.3-4.2-4.3s-4.1 2-4.1 4.3 1.7 4.3 4.1 4.3c2.7.1 4.2-1.9 4.2-4.3z"/><path fill="#e6e6e6" d="m567.8 429.7h3.1v3c.8-2 2.4-3.4 4.8-3.3v3.2h-.2c-2.7 0-4.6 1.7-4.6 5.4v5.1h-3.1z"/><path fill="#e6e6e6" d="m577.5 424.5h3.1v11.1l5.6-6h3.8l-5.4 5.5 5.5 8h-3.5l-4.1-5.8-1.9 2v3.9h-3.1z"/><path fill="#e6e6e6" d="m590.1 436.4c0-3.9 3.1-7 7.2-7 4.2 0 7.2 3.2 7.2 7s-3.1 7-7.3 7c-4.1 0-7.1-3.1-7.1-7zm11.2 0c0-2.3-1.7-4.3-4.2-4.3s-4.1 2-4.1 4.3 1.7 4.3 4.1 4.3c2.6.1 4.2-1.9 4.2-4.3z"/><path fill="#e6e6e6" d="m606.5 438.2v-8.6h3.1v7.6c0 2.1 1.1 3.3 2.9 3.3s3-1.3 3-3.3v-7.6h3.1v13.4h-3.1v-2.1c-.8 1.3-2.1 2.3-4.2 2.3-3 .2-4.8-1.8-4.8-5z"/><path fill="#e6e6e6" d="m622.2 439.4v-7.1h-1.7v-2.6h1.7v-3.7h3.1v3.7h3.6v2.6h-3.6v6.6c0 1.2.6 1.7 1.7 1.7.7 0 1.3-.2 1.9-.5v2.5c-.8.5-1.7.7-2.8.7-2.3 0-3.9-.9-3.9-3.9z"/><path fill="#e6e6e6" d="m631.5 425.3h3.2v15h9.4v2.9h-12.5v-17.9z"/><path fill="#e6e6e6" d="m654.3 443.1v-1.7c-.9 1.1-2.3 2-4.4 2-2.6 0-4.8-1.4-4.8-4.2 0-3 2.3-4.4 5.4-4.4 1.7 0 2.6.2 3.7.5v-.2c0-1.9-1.2-2.9-3.3-2.9-1.5 0-2.6.3-3.9.8l-.8-2.5c1.5-.7 2.9-1.1 5.1-1.1 4 0 5.9 2.1 5.9 5.7v8zm.1-5.6c-.8-.3-1.9-.5-3.1-.5-2 0-3.1.8-3.1 2.1s1.1 2 2.6 2c2 0 3.5-1.1 3.5-2.9z"/><path fill="#e6e6e6" d="m663.3 441.1v2.1h-3.1v-18.7h3.1v7.4c1-1.4 2.4-2.5 4.5-2.5 3.2 0 6.3 2.5 6.3 7s-3.1 7-6.3 7c-2.2 0-3.6-1.1-4.5-2.3zm7.7-4.7c0-2.6-1.7-4.3-3.9-4.3s-3.9 1.7-3.9 4.4c0 2.6 1.8 4.3 3.9 4.3s3.9-1.7 3.9-4.4z"/><path fill="#e6e6e6" d="m675.3 441.4 1.4-2.1c1.4 1.1 3 1.7 4.4 1.7s2.1-.5 2.1-1.5-1.3-1.4-2.8-1.8c-.1 0-.2-.1-.2-.1-2-.6-4.2-1.4-4.2-4s2.1-4.1 4.8-4.1c1.7 0 3.5.6 5 1.5l-1.2 2.2c-1.3-.8-2.6-1.3-3.8-1.3s-1.9.5-1.9 1.4 1.3 1.4 2.8 1.8c.1 0 .2.1.2.1 2 .6 4.2 1.5 4.2 4 0 2.9-2.2 4.2-5 4.2-2 0-4.1-.7-5.8-2z"/></g>
</svg>
