<?xml version="1.0" encoding="utf-8"?>
<!-- Generator: Adobe Illustrator 23.0.1, SVG Export Plug-In . SVG Version: 6.00 Build 0)  -->
<svg version="1.2" baseProfile="tiny" id="Layer_1" xmlns="http://www.w3.org/2000/svg" xmlns:xlink="http://www.w3.org/1999/xlink"
	 x="0px" y="0px" viewBox="0 0 900 600" xml:space="preserve">
<g>
	<path d="M0.23,321.09c1.26-7.68,5.01-6.41,20.43-9.2c20.72-3.74,9.18-1.28,2.35-4.8c4.82-1.96,13.51,3.93,7.05-6.64
		c-5.06-8.29-3.31-12.95-5.52-21.86c-1.54-6.23,1.67-14.3,7.05-17.67c1.01-0.63,1.32-1.64,1.94-2.55c1.52-2.26,0.28-4.81,0.82-7.15
		c0.87-3.79,1.83-7.67,2.76-11.44c1.29-5.25-1.5-1.73,0.72-7.36c5.68-14.43,14.59-46.92,22.78-66
		c7.25-16.87,10.49-15.47,11.85-20.13c0.93-3.19,5.84-17.53,11.65-22.07c26.56-20.75,20.29-23.16,56.19-25.03
		c14.51-0.76,12.85-2.21,17.57-2.04c3.06,0.11,5.52-0.92,7.25-3.37c0.61-1.02-1.14-1.86,0-3.27c0.9-1.11,5.32-2.01,6.33-6.23
		c1.12-4.68,3.96-4.28,11.24-15.43c2.94-4.51,4.8-10.22,11.03-11.65c0.31-0.1,0.51-0.51,0.72-0.72c5.64-5.71,19.07-10.41,23.5-7.15
		c2.65,1.95,2.43-5.14,7.25-1.63c1.12,0.82,1.74,1.94,2.96,3.27c0.31-1.53,0.72-2.84,2.15-3.27c1.64-0.49,2.45,1.02,3.58,1.74
		c1.12-1.33,1.12-3.07,2.66-3.68c2.89,0.64,1.13,5.87,1.02,6.44c2.96,1.43,3.07,5.62,6.23,5.72c0.92,1.23-0.1,1.84,0.1,2.86
		c2.86,1.43,5.29,3.9,7.46,6.33c9.23,10.38,3.71,8.59,5.11,14.41c0.64,2.65,0.82,5.31,0.72,8.07c3.17,1.63,2.76,3.61,1.74,15.94
		c0.82,1.94,3.17,1.23,3.58,3.07c-0.51,1.02-1.84,0.41-2.25,1.63c1.94,1.74,3.88-0.82,6.23,0c0.2,0.92,1.84,1.33,1.94,2.96
		c-1.84,1.12-4.29,0-6.13,1.74c2.15,0.41,4.19-0.2,6.44,0.61c-1.94,2.04-4.39,1.63-6.64,1.94c0.92,1.74,2.35,1.43,3.78,1.84
		c-0.61,1.43-0.92,2.76-1.12,3.98c-0.61,1.43-1.84-0.41-2.45,0.51c0.31,1.33,2.04,1.84,1.84,4.29c-2.35-2.76-5.41-0.51-7.66-2.66
		c-0.51,1.53,1.43,1.63,0.82,3.07c-3.78-0.1-7.46-0.61-11.14-1.94c5.87,4.97,8.22,3.05,6.95,6.13c-5.01-0.31-10.01,0.82-14.1-1.94
		c-1.63,1.12-2.25,2.66-3.98,3.27c-7.42-2.9-7.7,3.29-10.63-0.61c1.84-0.61,3.37-1.03,4.9-1.63c2.24-0.88,6.16,2.61,7.56-2.66
		c-5.31-3.37-9.5-7.76-12.16-12.87c-29.1-5.9-33.23-7.27-39.74-3.98c-1.02,0.51-2.04,1.02-2.76-0.72c7.26-9.08,8.98-6.9,8.58-12.67
		c-0.43-6.13-7.78-5.3-10.73-2.35l0.1-0.1c-6.6,4.26-0.76,8.03-1.94,13.49c0.61,0.92,2.25,0.2,1.94,1.74
		c-1.53,0.51-1.53,0.51-3.27,0c-2.76-7.25-2.96-10.83-1.12-15.63c-6.34,0.27-10.65,15.51-5.82,1.02c-5.03-1.57-3.93,2.03-13.28,2.45
		c-15.89,0.72-9.86,0.08-7.15,9.91c6.66,24.14,7.8,39.79,12.26,51.59c5.2,13.75,14.06,20.45,16.96,20.23
		c5.01-4.29,8.89-15.53,9.81-28.61c-3.58-3.37-6.95-6.64-10.22-9.71c-5.31,0.41-7.36,5.01-11.14,7.36c-0.41-3.17-0.2-3.37,9.4-9.91
		c-0.51-3.47-5.72-4.39-4.9-8.68c1.43,0.51,1.43,2.45,2.86,3.27c-0.1-1.74-1.23-3.27-0.1-5.72c4.07,14.93,17.65,25.05,22.89,19.82
		c1.53-1.53,3.68-0.1,5.82-0.41c-1.94-1.94-4.8-1.43-6.03-3.68c1.42-3.2,5.05,3.3,14.61,1.56c-3.16,4.21-10.67,2.89-15.33,6.3
		c1.73,37.09-0.17,24.45,3.27,34.43c5.16-4.58,6.17-15.06,15.73-13.49c-1.74,0.92-3.27,1.74-4.8,2.55
		c-4.7,7.66-10.42,14.71-14.71,22.78c1.63,7.25,1.74,15.02,5.21,21.97c-1.84-0.92-3.17-2.25-3.37-3.98
		c-0.62-5.31-3.68-9.81-4.19-15.53c-13.61,13.22-9.24,7.31-9.3,15.43c-0.12,16.41,5.19,21.5,8.68,37.09
		c0.97,4.31,7.05,14.36,8.79,12.87c-1.53-2.55-4.19-4.39-4.09-7.76c3.47,3.37,5.62,7.76,7.76,12.16c30.5-2.65,28.56-3.52,30.04,0.92
		c0.36,2.15,0.88,0.91,0.76,1.67c0,0.1-1.22,13.12-2.19,16.32c-2.49-15.27,5.16-19.83-5.11-18.9c1.33,6.23,2.35,12.46,0.72,18.8
		c-2.82-22.58-0.91-17.77-10.32-18.49c2.04,6.64,0.2,13.28,1.33,19.82c-5.37-10.34,2.5-18.8-6.33-18.8c-2.66,0-5.31,0.52-7.97,0.82
		c-1.55,0.18-1.54,1.44-3.98,5.51c1.19,0,2.38,0,3.58,0c1.53-0.72,0.61-2.35,1.74-2.96c1.12,0.31,0.51,1.02,0.41,1.53
		c-2.38,8.32,1.19,13.87-3.78,15.73c-2.75,1.03-5.11,4.28-7.87,3.37c-5.31-1.75-9.7,1.33-14.61,1.43c-3.05,0.06-1.98,2.96-2.45,4.09
		c-1.63-0.31-0.61-2.35-2.45-3.07c-4.7,0.51-9.81,1.94-15.12,3.17c10.46,1.31,8.67,0.78,22.37,4.39
		c19.46,5.13,18.38-2.81,33.92-4.09c1.63-0.13,2.66-1.02,3.88-2.35c3.17,2.76,5.72-2.15,9.2-0.51c1.53-3.27,5.11-0.82,7.76-2.66
		c3.12-17.37-4.07-23.32-2.86-25.75c1.63-0.1,1.63,2.04,3.68,2.35c32.96-6.03,29.16-4.82,29.63-6.23
		c-13.59-6.74-25.03-16.96-39.23-22.58c1.94-1.02,3.47,0.72,5.31,0.1c-8.58-11.24-9.09-12.26-7.36-15.22
		c2.8,0.7-3.64,4.07,18.9,21.35c10.93,8.38,15.66,9.16,21.97,13.69c4.97,3.58,3.32,3.07,23.7-0.51c1.23-5.62,2.76-7.36,6.64-7.05
		c-3.17,1.33-5.31,3.07-4.6,6.74c7.72-2.73,3.75-1.87,3.58-3.27c1.8-5.39,4.93,8.12,6.13,13.69c-0.72,0.92-1.33-0.72-2.04-0.1
		c-0.51,1.33,0.92,2.76-0.1,4.09c-1.74-0.31-0.72-2.45-2.15-3.17c-1.52,4.57-1.83,1.08-3.88,0.92c-1.33,0.41-3.17,0.1-4.7,1.12
		c-0.92,2.66-0.1,5.41-0.61,8.58c-3.37-2.55-1.84-5.52-1.53-8.17c-2.86-0.31-2.55,2.86-4.39,3.58c-0.72-1.12,0.41-1.84,0.1-2.76
		c-1.33-0.1-2.66,0.1-3.78,0.82c-0.41,0.72,0.61,1.43-0.51,1.94c-2.17-2.29-0.77-1.2-36.47,5.01c-1.32,0.23-3.58-0.1-2.86,2.55
		c6.95,1.12,13.89,2.65,20.94,1.12c5.03-1.09,19.89,2.55,29.83,1.84c4.23,0,4.97,3.75,22.07-4.8c5.72-2.86,9.91-8.48,16.76-9.4
		c0.41-0.1,0.72-0.51,1.23-0.82c-0.72-1.94,1.41-3.67,0.2-5.72c-7.13-12.18-1.65-18.33-10.11-16.96c4.19,4.8,3.47,11.24,6.23,16.45
		c-3.14-1.26-5.28-10.96-5.52-12.16c-0.73-3.68-1.63-4.39-5.41-3.88c-1.02,0.2-2.25-0.31-3.17,0.51c3.37,4.7,5.21,10.01,7.76,15.43
		c-6.8-0.32-2.33-16.04-14-14.51c-2.46,0.32-4.1-0.54,4.39,11.54c0.72,1.02,1.74,1.94,0.61,3.47c-2.96-4.7-5.93-9.3-8.79-13.89
		c-1.53-0.82-3.07,0.51-4.7-0.61c9.13-4.57,9.93-12.8,15.22-3.27c2.76-0.72,5.52,0.32,8.07-0.61c2.46-0.9,4.01,0.08,5.41,2.04
		c2.96,4.13-5.31,4.63,30.14-1.53c-4.31-22.14,15.92-43.11,41.58-35.66c12.48,3.63,11.73,6.12,22.78,24.42
		c5.41-1.12,11.03-1.43,16.24-3.27c2.77,0.5,8.55,8.35-1.84,10.52c-17.67,3.69-13.44,0.2-14.3,10.93
		c-1.28,16.02-14.05,33.9-36.78,27.28c-5.96-1.74-12.73-3.6-16.45-8.07c-3.9-4.69-8.28-9.09-10.22-15.22
		c-8.89,1.74-17.57,3.37-26.26,5.11c3.67,11.55-5.53,9.51-8.79,12.77c-6.36,6.36-21.7,13.83-29.53,12.98
		c-43.87-4.8-39.55-0.45-49.24-3.47c0.96,2.05,16.75,6.38,19,14.41c3.99,14.24,0.71,11.1,1.43,14.71c0.66,5.77,3.04,22.87,0.51,32.9
		c-0.78,3.08,0.93,5.92,1.12,8.89c1.83,27.92-6.76,47.61-11.44,103.39c11.93,10.58,7.83,14.99,13.59,19.51
		c12.61,9.89,5.43,7.23,18.59,16.35c10.93,7.57,23.95,9.97,25.95,14.92c1.36,3.36-0.57,6.14-1.33,9.09
		c-0.58,2.26-2.05,3.86-4.29,4.19c-9.11,1.34-17.88,4.98-27.48,4.09c-3.37-0.31-6.54-1.54-9.81-2.15
		c-20.32-3.75-25.92-11.04-38.41-10.11c-5.62,0.42-11.14,1.53-16.76-0.61c9.63,13.59,21.88,7.78,20.74,24.11
		c-0.65,9.26-22.99,10.19-35.66,10.93c-7.67,0.45-9.85-3.75-16.96-4.8c-10.8-1.6-12.55-6.72-21.86-9.91
		c-7.55-2.59-15.54-4.08-21.46-10.42c-2.66-2.86-3.59-3.99-1.33-7.36c2.34-3.48,2.15-7.25,2.55-11.34
		c-2.35,0.72-4.39,0.72-6.44,1.53c-12.3,4.92-18.68,3.17-17.27,3.88c-0.2,0.51,0.82,1.12-0.1,2.04c-2.25-0.31-4.39-1.64-6.85-1.94
		c-8.29-1.01-15.36-1.91-19.51-6.23c3.05-4.67,14.92-3.26,21.45-7.56c-0.61-1.33-1.83-2.25-2.55-3.58
		c-2.12-3.89-4.4-7.76-6.85-11.54c-41.19-63.89-39.12-63.5-48.12-67.53c-3.85-1.73-17.65,2.63-27.59,11.03
		c-6.25,5.29-13.89,8.38-20.84,13.08c0-5.34,0.31-0.82,15.94-12.26c11.59-8.49,26.16-20.93,38.41-11.34
		c8.98,7.02,51.44,78.31,53.84,82.55c-5.82,3.68-12.16,5.82-18.9,7.15c6.74,3.42,14.58,2.98,21.35,6
		c-0.11-1.76-1.27-0.96,24.42-6.61c0.92-3.88,3.88-6.33,6.03-9.3c0-0.18-3.52-1.52-8.58,0.1c-0.2,0.82,0.92,1.63,0,2.66
		c-3.62-1.45-2.53,2.28-38.72-73.25c-4.5-9.4-8.04-19.22-10.93-29.22c-3.82-13.19,16.85-18.35,19-19.92
		c-5.3-12.45-10.23-12.99-13.69-23.6c-3.14-9.63-10.11-10.84-26.97-12.36c-14.2-1.29-50.77-7.98-55.27-7.66
		c-2.66,0-11.65-4.61,22.27,0.2c8.17,1.16,16.14,3.17,24.32,3.17c10.84,0,8.42,1.9,20.84,3.78c-0.82-1.43-1.94-2.14-3.27-2.35
		c-7.17-1.13-9.77-5.93-12.36-5.41c-4.6,0.92-9-0.4-12.16-3.47c-3.89-3.77-9.09-5.21-12.98-8.68c-3.68,0.82,11.51-2.13-31.57,6.03
		C3.15,332.59-1.17,329.6,0.23,321.09z M256.26,102.76c0.31-1.84-0.31-3.37-1.02-5.41C254.31,99.79,255.23,101.33,256.26,102.76z
		 M253.29,83.14c-1.63,1.63,0,2.45,0.51,3.98C254.21,85.49,254.01,84.47,253.29,83.14z M251.56,115.32
		c0.41,0.31,0.72,0.72,0.82,0.61C253.06,115.59,252.32,115.32,251.56,115.32z M251.66,125.54c-1.63-0.82-3.27-1.74-4.9-2.66
		C247.57,125.23,249.61,125.54,251.66,125.54z M245.94,101.63c0.31-0.82,0.1-1.43-0.82-1.84
		C244.81,100.92,245.32,101.33,245.94,101.63z M244.81,75.58c0.41-1.63-0.2-2.25-0.92-3.17C243.59,73.74,244.51,74.15,244.81,75.58z
		 M239.5,79.56c-0.31,1.02-0.2,1.74,0.92,2.25C240.73,80.79,240.01,80.18,239.5,79.56z M240.52,103.06c0.24-1.2-0.72-0.8-0.72-0.51
		C239.7,102.86,239.91,103.06,240.52,103.06z M239.91,96.11c0.2-1.63-0.1-2.76-0.92-3.98C238.78,93.66,238.68,94.79,239.91,96.11z
		 M238.78,115.22c-0.41-1.02,0.51-2.66-1.43-3.27C236.43,113.79,238.27,114.3,238.78,115.22z M236.33,76.19
		c1.53-0.77,1.34-1.76,0.1-2.55C236.03,74.46,236.23,75.37,236.33,76.19z M234.29,95.6c-0.77,0.51-1.33,0.15,0.1,1.94
		C234.8,96.73,234.7,96.22,234.29,95.6z M234.08,123.29c-0.82-1.12-1.43-1.74-2.76-2.25C232.14,122.27,232.65,122.98,234.08,123.29z
		 M222.03,68.43c1.53-1.53,2.35-3.47,2.76-5.52C222.95,64.34,222.44,66.38,222.03,68.43z M222.95,78.34c0.41-0.61,0.41-1.12,0-1.74
		C222.54,77.32,222.74,77.72,222.95,78.34z M229.79,88.15c-0.72,0.92-1.12,1.63-1.02,2.45C229.79,90.19,230,89.47,229.79,88.15z
		 M228.47,58.52c-1.63,0.31-3.98-0.41-3.68,2.66C226.83,61.28,227.34,59.44,228.47,58.52z M224.89,103.67
		c0.61-0.61,1.33-1.23,1.02-2.45C224.99,101.94,224.58,102.65,224.89,103.67z M224.79,98.46c0.41-1.12,0.51-2.15,0.1-3.07
		c-1.94-0.31-1.53,1.23-2.25,2.15C223.46,97.85,223.97,98.16,224.79,98.46z M222.95,111.75c0.2-0.82,0.61-1.63-0.41-2.25
		C221.31,110.62,221.31,110.62,222.95,111.75z M221.01,82.73c-1.02,1.74-1.53,3.07-1.94,4.8C221.01,85.69,221.01,85.69,221.01,82.73
		z M216.61,74.56c0,1.63-0.92,2.96-1.02,4.5C216.31,77.62,217.74,76.5,216.61,74.56z M215.08,72.51c1.94-0.51,1.23-1.94,1.43-3.37
		C214.47,70.16,214.47,70.16,215.08,72.51z M215.18,63.01c-1.12,0-1.43,0.31-1.63,0.82C214.26,64.24,214.47,63.52,215.18,63.01z
		 M207.73,90.6c0.92-0.41,1.12-1.02,1.33-1.63C208.03,88.96,207.83,89.58,207.73,90.6z M212.43,90.8c-1.43,1.33-2.86,2.66-2.04,5.31
		C212.53,94.58,212.32,92.64,212.43,90.8z M210.18,110.42c-0.92-2.76-2.45-1.12-3.68-0.61
		C207.62,110.01,208.75,110.21,210.18,110.42z M205.38,87.84c0.11-0.06,1.85-1.3,1.33-2.35C205.58,85.9,205.17,86.72,205.38,87.84z
		 M205.27,83.85c-1.12-1.12-0.61-3.37-2.96-4.09C202,82.12,203.74,82.94,205.27,83.85z M204.66,52.8c0-1.22,0.11-0.95-5.93,1.63
		C201.6,55.76,202.82,53.31,204.66,52.8z M197.51,100.92c0.41,0.2,0.82,0.1,0.92-0.72C197.07,99.52,197.17,100.92,197.51,100.92z
		 M197.3,73.33c0.1-0.72-0.2-0.92-0.41-1.02C196.28,73.02,196.9,72.92,197.3,73.33z M195.98,70.37c-0.31-0.82-0.41-1.23-1.53-1.33
		C194.85,69.76,195.06,70.16,195.98,70.37z M188.01,108.27c0.72,0.51,1.33,0.72,1.53-0.72
		C188.72,107.46,188.42,107.97,188.01,108.27z M192.5,62.91c0.51-0.72,0.31-1.33-0.51-1.94C190.97,61.99,190.66,62.71,192.5,62.91z
		 M186.48,82.83c0.41-0.61,0-0.92-0.72-1.23C185.66,82.53,185.76,82.94,186.48,82.83z M181.16,75.58c0,0.82,0.2,1.12,0.92,1.12
		C182.29,75.99,182.29,75.48,181.16,75.58z M181.57,92.74c-0.51-0.2-0.82-0.2-1.12,0.31C180.96,93.25,181.26,93.15,181.57,92.74z
		 M173.91,86c-0.95,0.55-1.54,2.52-0.2,2.04C175.04,87.56,175.24,86.82,173.91,86z M173.91,92.85c-0.82-0.61-1.12,0-1.63,0.61
		C173.3,93.66,173.7,93.46,173.91,92.85z M311.43,250.79c-1.63,0.61-3.47,1.23-3.78,3.68c2.15,0.41,3.98-0.82,6.13-1.63
		C312.96,251.82,312.45,251.1,311.43,250.79z M424.01,249.67c13.59-2.31,19.21-2.95,17.88-6.33c-1.62-4.13-4.49-2.33-18.29,0.2
		C423.71,245.69,423.91,247.42,424.01,249.67z M374.36,280.12c2.08,2.1,17.29,7.2,28.91,4.29c14.24-3.57,20.04-22.73,18.08-37.09
		c-1.12-8.17-5.83-14.91-10.52-21.46c-3.58-5-9.4-5.72-15.02-6.95c1.12,1.53,3.17,1.43,4.29,3.37c-1.84-0.1-3.49-0.7-4.6-1.63
		c-8.91-7.52-33.7,2.11-34.63,24.52c-0.1,2.35,0,4.7,0,7.36c6.33-1.12,12.67-2.16,18.9-3.37c7.87-1.54,11.25,9.16,0.31,10.73
		c1.74,1.84,4.51,1.66,6.54-0.2c5.79-5.32,0.34-18.68-10.93-10.63c0.72-3.47,1.12-3.93,4.5-3.98c5.65-0.09,10.01-0.06,11.24,8.07
		c0.71,4.7-4.91,10.71-9.71,10.32c-2.05-0.17-2.76-1.74-3.88-3.17c-5.11,1.02-10.22,1.94-15.73,2.96
		C365.78,269.49,369.53,275.24,374.36,280.12z M381.31,258.05c6.15-1.13,4.01-7.88-0.82-7.05c-51.62,8.86-48.7,8.34-49.35,9.09
		c0.1,2.35,1.02,4.5,1.84,6.44C334.57,267.54,332.26,267.07,381.31,258.05z M28.93,274.09c-0.33,4.49-0.2,8.89,0.92,13.49
		c0.41-7.56,6.74-7.05,11.34-8.79c0.92-0.41,0.41-2.04,1.94-2.25c1.33,1.23,0.2,2.66,0.31,3.98c-2.35,1.94-5.52,2.55-8.28,4.7
		c3.68,0.92,6.83,0.6,9.4-1.23c0.43-0.3,24.92-12.54,26.67-11.54c1.55,3.88-18.61,2.28-27.18,22.68c-2.27,5.4-1.8,4.59-2.76,4.9
		c-0.72-4.29,2.04-7.46,3.37-11.24c-9.01,2.05-8.11-0.2-11.75,0.41c-0.72,4.6,2.66,16.96,4.7,19.72c9.4-1.63,18.9-3.27,29.02-5.01
		c-1.74-0.82-2.86-0.61-3.98-0.51c-8.44,0.74-8.78-10.04-1.94-11.75c16.18-2.94,13.49,3.3,13.49-6.64
		c-0.31-1.02-1.74-0.51-1.94-1.84c4.31-1.37,3.29-11.39,11.14-21.46c-22.01-6.15-32.28,1.19-39.54,2.55
		c1.33-2.45,3.98-2.66,6.23-3.98c-1.74-1.02-3.47-0.82-5.21-1.43C37.92,267.95,29.78,262.59,28.93,274.09z M94.22,315.06
		c1.33,1.33,2.76,1.12,3.98,1.84c2.54-1.48,9.1-4.66,6.33-11.65c-2.82-7.14-6.47-13.37-12.26-7.76c-3.15,3.05,0.37,0.24-5.82-1.33
		c-30.5-7.73-30.23,4.36-25.03,4.8c6.65,0.56,13.29,2.89,20.13,0.41c5.01-1.82,10.63-1.23,16.04-2.86
		C105.37,306,101.43,314.59,94.22,315.06z M116.49,348.57c7.36-0.92,17.44-9.2,19.92-18.19c1.52-5.49,5.09-25.33,3.88-28.81
		c-4.2-12.07-4.46-22.77-20.33-39.13c-6.75-6.95-20.23-6.91-22.68-6.44c13.28,3.58,19.72,13.49,24.62,25.03
		c-2.76-2.45-4.6-5.62-6.64-8.68c-4.55-6.84-16.47-16.93-22.58-14.71c-5.26,1.91-8.99,5.52-10.83,10.83
		c-2.55,7.36-3.98,14.92-4.5,22.78c4.39,1.43,8.99,2.15,13.08,4.29c2.15-0.51,4.09-1.53,5.82-2.86
		c13.81,2.76,15.66,27.15,0.41,25.54c-1.84-0.19-2.66-1.94-4.29-2.86c-16.73,3.42-14.85,1.18-12.46,9.2
		c5.76,19.31,18.62,22.47,24.01,24.52c7.8,2.97,12.67-3.32,14.81-2.96C118.74,347.65,116.9,347.55,116.49,348.57z M85.53,259.07
		c-1.74,0-3.17,0-5.11,0C82.37,260.09,83.8,260.6,85.53,259.07z M58.36,257.64c-0.1-0.31-0.2-0.61-0.31-0.61
		c-0.82,0-2.15-1.43-2.35,0.92C56.83,258.36,57.54,258.05,58.36,257.64z M49.67,254.17c-0.41,1.12-0.82,1.94-1.23,2.96
		C51.34,260.02,54.11,255.46,49.67,254.17z M41.6,258.56c-1.12-1.33-2.45-1.53-3.68-2.04C34.57,265.1,32.45,265.22,41.6,258.56z
		 M37.11,252.02c0.41-1.74,1.63-3.17,2.15-5.01C36.6,248.24,36.09,249.26,37.11,252.02z M39.36,253.45
		c0.34,1.42,1.53,1.33,2.66,1.33c1.33,1.23,3.07,1.53,4.7,1.94c0.51-0.92,0.41-1.84,0.41-2.76c-1.12-0.31-1.02,1.33-2.25,1.12
		c-1.12-0.92,0.31-2.35-0.51-3.88c-1.81,5.78-3.47,3.87-2.55-1.02C41.6,251.82,38.89,251.5,39.36,253.45z M67.76,160.48
		c-19.93,48.39-12.62,28.55-17.67,46.38c-5.22,18.44-8.98,20.17-10.01,38.41c7.75,4.58,17.75,9.93,26.77,9.6
		c14.02-0.5,17.54,3.14,23.7,0.51c3.63-1.55,6.85-1.23,16.86-1.23c-0.25-5.43-3.11-4.66-5.82-14.71c-0.84-3.1-1.75-2.36-15.53-8.17
		c-3.5-1.48-4.71-3.53,13.89,3.98c-0.2-2.76,0-5.31-2.96-6.44c-0.2-1.23,0.92-0.41,1.23-1.63c-11.44-34.31,2.85-34.3-18.49-28.71
		c-0.2,1.23,0.41,2.86,0.1,4.39c-1.94-0.82-1.63-2.96-2.55-4.5c-3.76-1.25-2.66,2.08-2.66,3.58c-0.73,7.99-2.55-0.02-2.25-4.09
		c12.16-3.18,14.09-2.77,18.39-8.79c-0.44-1.32-12.96-6.02-14.41-20.02c-0.6-5.82-2.45-11.44-2.96-17.37
		C71.44,154.66,69.1,157.22,67.76,160.48z M181.26,212.18c-28.63,28.63-4.44,2.19-28.91,34.63c-4.79,7.67-6.19,0.86,34.12,33.51
		c2.04-6.23,8.07-8.07,10.93-12.77C187.19,250.79,181.88,232.61,181.26,212.18z M153.07,238.43c3.37-4.38,6.69-3.78-2.35-3.78
		c-0.92,0.92-1.02,2.35-1.53,3.78C150.51,238.43,151.64,238.43,153.07,238.43z M148.57,239.86c-1.12,2.55-0.61,5.21-1.23,7.66
		C157.12,237.75,153.98,240.82,148.57,239.86z M203.03,273.99c1.3-3.03-1.42-6.88-5.01-3.68c-2.43,2.17-4.7,4.5-7.46,6.13
		c0.51,1.33,2.04,1.12,2.66,2.25c-1.23,0.72-2.25-0.51-3.27-0.51c-1.33,0.82-0.61,2.25-1.63,3.27c-1.87,1.36-6.65-1.87-8.38-3.37
		c-14.93-12.96-31.2-19.87-31.77-21.45c0.82-0.92,1.63,0.1,2.76-0.2c-1.91-2.29-12.18-7.28-7.87-14.71c1.74,0.61,0,2.35,1.02,3.07
		c16.52-38.81-4.63-61.66,2.86-64.16c3.33,14.55,10.64,19.35,5.21,46.49c1.23,0.41,1.12-1.33,2.25-1.12
		c-0.2,2.45-3.58,3.47-2.86,6.33c0.92,0.92,2.34,0.32,3.47,0.72c3.36,1.17,1.26,2.02,1.91,1.8c1.62-0.81,2.8-2.19,3.51-3.84
		c6.08-14.06,26.64-22.76,35.86-39.03c3.37-5.95-3.64-0.06-2.15-27.69c0.46-8.54,2.33-12.25-2.96-11.03
		c-1.93,5.8,3.07,14.52-8.07,28.3c-5.33,6.59-11.55,0.17-16.45-5.62c-17.05-25.57-7.95-33.38-22.58-73.97
		c-2.55,0.2-5.01,0.51-7.87,0.72c12.51,23.35,22.87,47.32,12.46,75.3c-0.77,2.07-1.14,1.74-2.72,1.54
		c-0.91-1.19,3.05-10.44,3.84-19.42c1.79-20.34-6.88-39.17-15.33-56.8c-10.32-0.72-19.67,0.97-27.79,7.76
		c-2.34,1.96-5.34,2.73-7.56,5.01c-6.29,6.43-10.35,19.66-10.01,25.25c-1.08,0.36-2.37-0.4-2.14-3.08
		c0.81-9.2,5.36-12.32,5.01-15.12c-4.75,3.49-10.16,7.45-11.14,10.63c-2.71,8.84-6.42,10.51-3.78,24.32
		c2.66,13.91,1.4,19.99,15.43,28.4c1.05-10.78,1.98-12.51-0.2-15.53c-3.69-5.1-4.67-10.83-3.78-16.86c0.32-2.14-0.92-4.39,0.1-6.33
		c0.41-0.1,0.72-0.1,0.72,0.2c-0.16,7.58,6.68,21.76,6.13,29.32c-0.9,12.31,3.28,43.09,4.09,44.65
		c5.58,10.84,2.75,12.86,11.65,33.61c2.15,0.82,4.29,2.04,6.85,1.63c2.75,6.72,9.36,3.62,22.48,34.23
		c7.46-1.33-0.15,0.11,50.88-8.79c4.56-1.14,10.77-3.47,11.03-3.47C200.71,278.06,202.18,275.96,203.03,273.99z M205.17,291.97
		c0-8.1,0.2-8.65-0.41-10.22c-21.25,3.68-42.5,7.46-64.26,11.24c0.61,3.68,1.12,7.25,1.84,11.14
		C163.49,300.04,184.33,295.95,205.17,291.97z M198.33,318.23c-0.97-5.69-2.91-7.34-6.64-7.87c-14.33-2.03-13.45-4.02-33.82-5.72
		c-7.36,5.93-11.03,13.79-14,22.58c5.11,0.41,10.01,0.41,12.77,5.31c-4.19-1.63-8.99-0.2-13.18-2.55
		c-1.33,5.31-2.45,10.52-4.29,15.94c3.88,0,6.85,2.24,10.42,2.66c3.7,0.43,3.42,5.54,2.15,8.48c-1.85-6.08-1.38-7.54-3.37-3.07
		c0.1,0.92,1.02,0.31,1.23,0.92c-8.9,25.93-5.73,38.58,3.88,97.77c3.73,22.95,3.28,6.19,2.96,37.19c-0.01,0.51,0.1,1.02,0.41,1.63
		c1.33-2.35,0.92-5.41,2.86-7.76c1.7,8.76-5.64,10.84,6.95,9.2c3.37-7.87,6.33-8.89,19.11-11.14c0-3.06-7.27-9.38-1.74-39.23
		c1.58-8.52,2.06-10.47,2.18-10.63c0.19-2.06,1.1-10.02,4.67-36.46c1.38-10.23,4.3-20.64,1.74-26.05
		c-1.33-3.37-1.63-6.95-1.74-10.63c1.94,2.96,2.35,6.33,3.88,9.6c0.79-6.33,0.08-9.72,1.94-13.59c1.96-4.08,0.61-9.09,1.84-13.59
		C200.66,333.44,199.63,325.89,198.33,318.23z M137.54,348.57c-3.78,14.3-10.93,27.69-13.08,43.01c7.2-1.87,11.93-8.48,15.73-12.57
		c1.33-1.43,1.61-3.37,1.74-5.31C143.54,348.8,154.99,350.41,137.54,348.57z M159.2,502.94c9.87-3.5,9.67-1.54,7.56-7.46
		c-2.86-0.31-5.72,1.02-8.79,0.1C158.07,498.04,157.46,500.49,159.2,502.94z M209.26,490.27c5.36-7.4,0.1-14.62,8.38-19.82
		c-0.2-7.29,2.65-26.91,0.2-48.02c-0.83-7.21-1.95-7.72-7.97-26.97c-3.39-10.83,0.76-17.72,5.62-38.11c0.78-3.28,2.15-6.23,3.47-9.6
		c-6.13-2.25-11.44-5.41-17.37-8.07c-5.8,30.18-5.99,55.97-10.63,71.31c-3.18,10.53-0.56,12.17-4.6,31.88
		c-2.41,11.75-0.85,17.18,0.82,36.06c0.49,5.52,4.71,1.57,5.11,8.07c0.28,4.46,2.28,3.27,9.5,17.88c0.61,1.23,1.23,2.66,2.66,3.78
		c0.41-2.45,1.24-4.59,2.04-6.64C208.79,496.19,204.8,496.43,209.26,490.27z M200.06,310.05c0.2,2.96,2.66,5.11,2.86,8.17
		c1.74-4.6,7.05-6.44,8.68-11.44C207.42,307.19,203.84,308.93,200.06,310.05z M302.54,272.86c0-3.47-0.61-6.13-1.94-7.97
		c-20.33,3.58-40.46,7.15-60.89,10.73c0.72,3.17,1.23,6.13,0.92,9.71C261.57,280.83,282.1,277.56,302.54,272.86z M256.77,439.09
		c0.85-5.41-1.64-2.67,1.12-16.65c3.11-15.71,10.76-44.68,6.23-67.33c-2.96,2.76-0.92,6.64-2.76,9.6
		c-2.27-12.27,5.84-4.52,2.86-45.06c-1.17-15.84-1.63-19.82-19.11-25.64c-3.4-1.13-4.02-3.17-4.09-0.1c-0.1,4.4-2.96,7.25-7.36,7.46
		c-6.54,0.31-12.57,3.27-17.78,3.88c-8.99,9.4-14.41,19.51-13.69,32.39c0.47,0.63,21.47,3.87,17.88,15.53
		c-19.93,64.75,2.17,26.37,1.53,98.39c-0.11,12.45-3.55,15.65,2.55,26.05c1.53,0.2,3.07,0.51,4.8,0.82c0.2-3.17-0.72-6.44,2.15-8.99
		c3.45,5.98-2.91,10.73,7.46,7.76c-0.82-9.06-1.44-9.22,1.84-0.2C257.67,474.77,251.38,473.55,256.77,439.09z M226.01,484.76
		c5.21,2.96,9.4,1.23,15.53-4.7C223.07,482.9,224.97,478.48,226.01,484.76z M246.24,478.73c3.76,1.04,5.14,1.8,4.5-1.43
		C249.41,477.71,248.08,478.12,246.24,478.73z M250.12,522.56c9.8,4.3,26.56,7.3,37.9,8.28c7.25,0.62,13.88-2.15,20.84-2.96
		c1.02-0.12,1.94-0.82,2.35-1.74c5.54-15.6-0.66-6.48-21.15-20.43c-1.23,1.02-2.55,2.25-4.29,0.82c0-1.53,1.74-0.72,2.15-1.94
		c-2.09-2.51-2.55,1.27-5.11,1.43c-0.61-0.82-1.43-1.63-2.25-2.66c0.51-1.43,2.45-1.02,3.17-2.25c-3.27-0.92-5.11,4.5-8.68,2.15
		c-0.41-1.23,0.31-2.15-0.2-3.07c2.04-1.12,3.98-0.61,5.93-0.82c0.2-1.23-1.02-1.53-1.53-2.35c-1.79,0-4.81,1.93-7.87,2.45
		c-5.8,1-4.51-5.86,5.31-3.78c-0.92-1.12-2.15-1.94-2.96-3.27c-4.8,1.43-9.3,3.98-14.81,3.17c4.87-8.41,18.16-1.27,10.42-7.46
		c-4.8-0.31-9.4,2.25-14.2,1.12c3.37-2.86,7.56-3.17,11.85-3.68c-4.5-0.73-1.06-1.5-10.52-15.02c-5.64,14.11,0.33,10.63-0.2,14
		c-5.89-0.35-8.2-5.08-13.08,0.31c-3.16,3.49-7.78,5.31-15.53,3.78c-4.07-0.81-3.47-1.02-9.5-15.73
		c-2.45,2.13-2.15,12.97-7.36,20.54c-2.21,3.21,1.77,4.23-2.15,12.36C200.36,522.99,238.03,517.25,250.12,522.56z M144.38,521.23
		c-0.42,1.94-1.43,3.68-2.04,5.31c7.51,10.76,20.26,8.16,34.53,18.8c2.16,1.61,5.01,1.31,7.46,2.25c17.02,6.55,18.15,5.26,25.75,4.9
		c4.5-0.21,21.56-2.13,24.83-5.21c-0.63-22.64,3.02,0.57-24.62-27.48c-10.11,6.03-11.95,6.64-15.53,5.31
		c3.58-4.39,8.58-5.21,13.79-6.23c-1.63-2.15-3.17-3.98-4.8-6.13c-6.23,1.74-12.46,3.27-18.29,5.82c-2.18-3.73,4.09-7.97,16.45-7.97
		c-0.1-1.63-0.81-2.11-2.35-1.74c-6.41,1.56-13.28,0.41-20.13,3.07c0.2-2.66,0.2-2.66,4.19-5.41c-2.76,0-5.31,2.15-8.38,1.12
		c2.15-4.7,11.14-6.85,21.66-5.31c-0.72-1.23-1.43-2.35-2.15-3.68c-7.15,1.63-14.41,2.35-20.94,6.23
		c-1.9-5.48,13.21-8.98,19.51-8.48c-0.61-3.88-2.86-7.15-3.98-10.73c-5.41-1.63-10.31,0.44-15.02,2.25
		c-3.93,1.51-4.39,9.99-3.68,12.46c-3.07,2.96-6.95,4.19-10.63,5.72c-2.5,1.04-5.5-4.09-6.03-6.74
		C148.17,510.35,148.41,502.78,144.38,521.23z M93.91,400.67c2.68,16.93,43.86,98.69,43.93,98.8c1.73-0.35,10.18-0.24,11.44,2.04
		c5.9-9.83,6.53-10.18,3.27-41.48c-1.59-15.31-7.42-27.19-7.56-45.36c-0.06-7-5.85-15.9-4.09-30.45c1.17-9.62-3.61,6.17-17.88,10.11
		c-1.53-4.9-5.31-8.28-10.01-10.93C109.31,385.69,92.11,389.3,93.91,400.67z M48.75,328.34c2.27,0.65,8.64,8.81,16.14,6.23
		c3.35-1.15,6.92,4.82,13.89,6.03c0.51,0.09,1.12,0.31,1.53,0.61c4.7,4.6,11.03,6.85,15.63,11.44c2.32,2.32,2.66,8.04,10.01,16.65
		c5.16,6.05,4.26,9.61,8.17,11.65c3.16,1.65,5.62,4.29,8.28,7.36c3.24-15.89,17.19-46.87,19.41-58.95c1-5.42,2.01-10.8,4.5-15.84
		c1.38-2.79,5.01-9.36,7.87-8.17c0.41,0.1,1.02-0.72,1.12-1.84c-4.39,0.51-8.48,1.53-12.77,2.35c-0.67,10.8-1.41,22.84-7.46,32.28
		c-6.67,10.42-7.27,20.42-21.76,27.99c9.61-10.35,13.96-14.8,16.14-20.94c-8.28,4.19-16.45,7.66-26.05,7.25
		c0.51,3.58,2.15,7.36,1.02,12.06c-2.4-11.41-1.63-12.75-5.82-14.92c-12.43-6.41-19.62-16.55-22.48-30.14
		c-2.15,0.92-4.17,1.87-6.23,2.76c-6.68,2.88-11.05-4.6-18.29,3.88c-1.43-0.51-0.51-1.53-0.72-2.55c-1.94,0.31-3.88,0.72-6.23,1.12
		C46,326.5,46.82,327.79,48.75,328.34z M68.17,320.47c-0.41-0.2-0.82-0.31-1.12,0.1C67.35,320.78,67.76,320.78,68.17,320.47z
		 M97.18,312.91c3.27-5.01,3.07-8.17-0.82-12.16c-29.93,5.21-60.18,10.52-90.72,15.84c2.86,3.98,4.7,7.87,0.72,11.95
		c0.72-3.88,1.23-7.66-2.45-11.03C0.01,337.74-2.08,331.29,97.18,312.91z"/>
	<path d="M569.8,514.18c3.24-0.74-3.74,0.9,22.17-4.8c1.07-4.53,6.03-8.64,6.03-9.33c-2.83-1.07-5.75-0.78-8.58,0.13
		c-0.1,0.82,1.02,1.63,0,2.76c-1.03-0.77-4.57-1.77-9.09-12.26c-16.38-38.03-48.2-88.68-38.82-99.71
		c-7.36-7.76-11.75-16.76-13.18-27.07c-3.51,0,0.67-0.2-44.65,5.72c-21.26,2.78-31.26,6.55-31.26-4.09c0-3.77,1.62-9.44,6.33-10.01
		c78.3-9.48,71.11-8.05,71.11-9.09c-1.11,0.39-62.5-9.97-67.02-9.71c-1.94,0-4.95-1.94-1.33-1.94c25.68,0,53.59,10.73,49.76,1.53
		c-9.58-1.6-11.23-7.28-14.92-8.48c-8.95-2.92-8.05-9.84-12.98-10.83c-20.44-4.09-3.43-2.37,0.82-3.27
		c-0.82-2.35-1.02-4.6-2.35-6.44c-3.17-0.51-6.54-0.41-9.91-2.04c5.7-1.84,13.44,3.94,7.05-6.74c-4.74-7.92-3.24-12.66-5.52-21.97
		c-1.48-6.04,1.91-13.99,6.95-17.37c4.22-2.82,2.31-7.32,2.86-9.71c3.53-15.32,3.43-13.56,3.17-14c-1.13-1.83-0.21-3.48,0.41-5.11
		c5.34-14.08,14.92-47.17,22.68-65.69c6.81-16.25,10.39-15.41,11.75-20.13c7.17-24.97,14.49-21.85,30.14-37.5
		c11.94-11.94,36.21-8.31,47.41-10.52c2.46-0.49,4.9-1.22,7.56-1.12c4.7,0.17,8.41-3.1,7.25-4.6c-1.4-1.81,1.34-2.74,3.07-3.88
		c5.22-3.45,1.58-4.63,7.05-10.01c10.18-10.02,10.33-19.77,18.7-21.35c0.7-0.23,3.9-5.69,16.45-8.58c9.48-2.18,7.42,3.38,10.22-0.2
		c2.82-3.61,4.29-1.5,7.66,2.25c1.53-3.78,2.45-3.98,5.93-1.53c1.02-1.02,0.92-2.76,2.76-3.47c2.45,1.94,1.43,4.29,0.82,6.44
		c2.66,1.94,3.37,5.52,6.44,6.03c0.72,1.12-0.2,1.63,0,2.66c2.76,1.53,5.21,3.88,7.36,6.33c8.9,10.19,4.18,7.61,5.11,14.1
		c0.61,2.76,0.92,5.52,0.82,7.15c3.88,6.33,1.33,12.16,1.74,17.57c0.72,1.43,3.07,0.82,3.47,2.66c-0.31,1.02-2.04,0.31-2.25,1.94
		c2.15,0.92,3.98-0.92,6.23-0.41c0.31,1.02,1.94,1.33,2.04,2.96c-1.84,1.33-4.29,0.2-6.13,1.94c0.66,0.09,14.89-0.09-0.31,2.55
		c1.12,1.53,2.55,1.43,4.5,1.84c-1.74,1.12-1.02,2.76-1.63,3.98c-0.72,1.02-1.74-0.1-2.45,0.41c0.31,1.43,2.04,1.84,1.74,4.19
		c-2.35-2.45-5.41-0.31-7.56-2.45c-0.72,1.43,1.84,1.63,0.72,2.96c-3.78-0.2-7.46-0.51-11.03-1.94c5.89,4.98,8.22,2.95,6.95,6.13
		c-5.01-0.31-10.01,0.72-14.2-1.94c-1.63,1.02-2.15,2.55-4.09,3.27c-5.87-3.32-7.86,3.04-10.52-0.61c3.37-1.63,6.64-2.45,10.22-1.02
		c0.51-1.43,2.04-1.74,2.15-3.47c-5.21-3.27-9.4-7.76-11.95-12.57c-7.66-2.35-15.01-2.78-22.07-4.6
		c-18.97-4.89-18.78,4.35-20.64-0.31c3.37-4.21,4.39-5.51,5.82-6.33c5.16-2.98,2.96-12.56-3.47-10.83
		c-3.27,0.88-6.82,3.24-0.72,0.72c2.76-1.33,5.08,0.31,5.21,3.37c0.17,4.19-0.2,4.6-4.39,5.82c-0.51,2.55-2.35,2.86-4.7,2.66
		c0.2-2.15,0.61-3.98-0.31-6.13c4.46,0,2.36,1,2.04-2.66c-1.33,0.82-1.94,2.15-3.37,2.35c-0.67-1.92,1.19-2.67,1.75-4.03
		c-6.46,4.21-0.68,7.92-1.85,13.53c0.72,0.72,2.25,0.1,1.94,1.74c-1.02,1.02-2.15,0.31-3.47-0.2c-1.12-5.11-3.58-10.01-0.82-15.63
		c-6.34,0.27-10.65,15.51-5.82,1.02c-1.63-0.51-3.06-0.6-4.6,0.31c-6.73,3.96-13.18,0.68-19.51,3.58
		c12.47,23.28,7.83,64.1,29.53,78.97c1.03,0.71,2.04,1.43,3.58,1.33c7.46-8.17,8.48-18.49,9.6-28.61
		c-3.58-3.47-6.95-6.74-10.22-9.81c-5.31,0.41-7.36,5.01-11.14,7.36c-0.41-3.27-0.2-3.47,9.4-9.91c-0.61-3.47-5.82-4.39-5.01-8.68
		c1.53,0.51,1.43,2.45,2.86,3.17c0.1-1.74-1.23-3.17,0-5.52c4.7,16.88,18.48,23.06,21.15,20.74c2.24-1.95,4.5-1.94,7.66-1.02
		c-1.84-2.55-5.11-1.84-6.23-4.19c1.43-3.22,5.3,3.43,14.81,1.53c-3.57,4.67-10.74,3.43-15.33,6.64c2.26,64.03,2.51,18.4,18.9,20.84
		c-1.74,0.92-3.27,1.74-4.09,2.15c-22.22,33.12-14.07,16.44-13.59,34.33c0.1,3.88,3.27,6.85,3.07,11.03
		c-1.53-1.23-2.87-2.55-3.07-4.19c-0.63-5.21-3.68-9.71-4.19-15.53c-12.95,12.58-9.4,7.13-9.4,15.43c0,16.18,4.14,19.08,8.99,37.7
		c1.95,7.49,9.86,15.83,15.22,19.41c36.25,24.25,21.17,1.21,71.82,43.42c0.72-1.23,1.02-2.96,3.37-3.27
		c-2.96,6.58-2.49,3.03-0.61,11.65c7.76-0.82,15.33-1.74,22.89-2.55c0.31-1.81,2.08-3.52-0.21-5.04c-0.33-2.74-3.67-4.07-3.46-7.73
		c3.98,1.63,6.54,3.78,6.54,7.97c1.33-0.31,0.1-1.84,1.53-2.15c0.92,2.04,3.68,1.23,4.9,3.37c0.82-1.23,2.04-0.61,2.76-1.12
		c1.15-1.29,1.49-4.76,4.09-1.12c2.55-2.76,5.21-2.45,7.46,0.72c-1.84,1.02-3.07-1.23-4.7-0.82c-0.51,3.98-0.1,5.21,2.35,6.44
		c2.25-1.12,3.58-3.68,6.13-4.19c10.93-0.2,21.76-2.04,33-3.17c-2.97-19.58,14.25-36.17,30.24-34.94
		c23.95,1.84,23.81,6.53,34.53,27.59c5.31-1.02,10.93-0.72,16.14-2.45c5.62,3.19,5.73,9.38-1.94,10.42
		c-3.45,0.69-9.67,0.91-14.41,2.15c-4.7,50.49-53.52,39.87-64.47,8.17c-56.69,7.59-31.72,2.27-40.25,14.2
		c-1.45,2.03-2.96,3.47-5.11,1.84c-5.62,3.37-10.83,1.74-16.45,0.31c-6.74,2.66-11.44,1.53-20.43-5.52
		c-5.31,0.72-10.73,1.43-16.45,2.25c0.92,4.7,0.44,8.98-0.41,13.28c-0.67,3.36,1.15,6.33,1.23,9.6
		c0.7,30.55-4.29,31.92-11.75,102.47c12.15,10.57,8.02,15.59,13.49,19.41c11.72,8.19,7.46,11,27.38,21.25
		c18.42,9.48,19.82,6.12,16.04,19.31c-0.64,2.24-2.05,3.86-4.29,4.19c-9.21,1.34-18.09,5.12-27.79,4.09
		c-3.48-0.37-6.54-1.71-9.81-2.25c-19.45-3.2-25.01-10.65-37.8-10.01c-7.86,0.39-6.57,1.94-17.47-0.72
		c10.86,14.01,22.17,8,21.05,24.21c-0.46,6.59-8.38,6.84-12.67,8.07c-6.51,1.87-24.85,4.69-32.39,0.72
		c-8.74-4.61-11.3-0.89-22.78-9.4c-6.6-4.9-19.78-4.67-28.1-13.59c-2.66-2.86-3.59-3.99-1.33-7.36c2.34-3.48,2.04-7.25,2.55-11.34
		c-2.35,0.82-4.39,0.82-6.44,1.63C571.34,517.76,563.03,515.72,569.8,514.18z M705.18,101.02c0.1-2.04-0.61-3.68-1.33-5.72
		C703.44,98.36,703.44,98.36,705.18,101.02z M701.91,81.1c-1.43,1.84,0,2.55,0.72,3.88C702.93,83.45,702.72,82.32,701.91,81.1z
		 M700.78,113.79c0.1,0.1,0.41,0,0.72,0c-0.31-0.2-0.61-0.51-0.72-0.51C700.27,113.38,700.68,113.69,700.78,113.79z M700.37,123.6
		c-1.63-0.92-3.27-1.74-5.01-2.76C696.49,123.09,696.49,123.09,700.37,123.6z M694.55,99.59c0.62-1.09-0.66-2.2-0.92-1.43
		C693.53,98.87,693.83,99.38,694.55,99.59z M693.53,73.02c0.31-1.12-0.2-1.74-1.23-2.76C692.4,71.59,692.81,72.31,693.53,73.02z
		 M688.22,77.32c-0.41,1.23-0.2,2.04,1.12,2.04C688.93,78.64,688.62,78.03,688.22,77.32z M689.14,101.02c0-1.3-0.72-0.71-0.72-0.51
		C688.42,100.92,688.62,101.12,689.14,101.02z M688.52,93.97c0.41-1.43-0.2-2.35-0.72-3.37C687.4,91.72,687.19,92.85,688.52,93.97z
		 M687.6,113.59c-0.41-2.96-0.41-2.96-2.25-2.96C685.97,111.75,686.58,112.67,687.6,113.59z M684.95,74.35
		c1.43-1.23,1.33-2.04,0-2.76C684.64,72.51,684.84,73.33,684.95,74.35z M682.7,93.66c-1.02,0.61-0.31,1.12,0.41,1.94
		C683.31,94.79,683.62,94.17,682.7,93.66z M682.6,121.55c-0.51-1.43-1.43-1.74-2.25-2.25C680.66,120.23,681.37,120.84,682.6,121.55z
		 M670.64,67c1.63-2.15,2.35-4.09,2.86-6.13C671.87,62.4,670.95,64.24,670.64,67z M671.77,76.09c0-0.41,0-0.82,0-1.33
		C670.85,75.17,671.46,75.68,671.77,76.09z M673.5,59.23c1.94-0.31,2.45-1.84,4.09-2.76C673.81,56.68,673.81,56.68,673.5,59.23z
		 M677.59,89.07c1.67-2.67,0.72-2.38,0.72-2.76C677.79,87.12,677.08,87.94,677.59,89.07z M674.63,99.28
		c-1.12,0.51-1.12,1.33-1.23,2.15C674.22,101.02,674.73,100.41,674.63,99.28z M673.4,96.11c0.51-0.82,0.51-1.74,0.2-2.86
		C671.38,93.13,670.82,96.48,673.4,96.11z M671.56,109.8c0.2-0.82,0.51-1.53-0.51-2.86C669.62,108.27,669.93,108.99,671.56,109.8z
		 M669.83,80.89c-1.23,1.53-1.74,2.96-2.04,5.01C669.42,84.37,670.03,83.04,669.83,80.89z M657.46,86.72
		c-0.72,0.41-1.23,0.82-0.92,1.74C657.26,88.15,657.77,87.74,657.46,86.72z M665.33,72.51c0.1,1.63-1.23,2.96-1.23,4.5
		C665.23,75.78,666.15,74.35,665.33,72.51z M663.8,70.57c1.74-0.72,1.23-2.04,1.33-3.47C663.08,68.12,663.08,68.12,663.8,70.57z
		 M662.16,61.79c0.32,0.65,1.23-0.19,1.23-0.72C662.67,60.87,662.06,61.58,662.16,61.79z M659.2,94.28
		c1.84-1.84,1.84-3.68,1.84-5.52C659.81,90.09,658.08,91.31,659.2,94.28z M658.79,108.37c-1.02-2.96-2.45-1.23-3.68-0.72
		C656.24,107.97,657.46,108.17,658.79,108.37z M653.99,85.9c0.92-0.61,1.33-1.43,1.63-2.55C654.3,83.96,653.79,84.67,653.99,85.9z
		 M653.99,82.02c-1.02-1.33-0.72-3.58-3.07-4.19C650.72,80.28,652.46,80.99,653.99,82.02z M653.38,50.55
		c-0.68-0.68,1.25-1.28-6.03,1.84C650.31,53.51,651.54,51.47,653.38,50.55z M647.14,98.16c-0.72-0.2-1.12-0.1-1.23,0.61
		C646.43,99.18,646.84,99.18,647.14,98.16z M645.92,70.98c0.1-0.41-0.2-0.61-0.51-0.72C645.1,70.88,645.31,71.08,645.92,70.98z
		 M644.59,68.22c-0.31-0.72-0.61-1.23-1.53-1.12C643.47,67.61,643.57,68.12,644.59,68.22z M636.72,106.33
		c0.72,0.41,1.33,0.61,1.43-0.92C637.34,105.51,637.03,105.82,636.72,106.33z M641.12,60.97c0.72-0.82,0.1-1.33-0.31-2.15
		C639.58,59.95,639.48,60.66,641.12,60.97z M635.09,81.2c0.41-1.12-0.1-1.33-0.41-1.63C634.07,80.28,634.48,80.59,635.09,81.2z
		 M633.15,95.5c0.51,1.02,1.84,1.02,2.25,2.15C635.6,94.89,635.6,94.89,633.15,95.5z M635.29,99.49c-1.33,0-2.66-0.1-3.88-0.31
		C632.43,100.81,633.76,100.51,635.29,99.49z M630.49,73.54c-0.5-0.5-1.46,0.7,0.1,1.23C631,74.15,630.9,73.74,630.49,73.54z
		 M630.19,90.7c-0.41-0.1-0.82-0.2-1.02,0.31C629.57,91.21,629.88,91.11,630.19,90.7z M622.62,83.96c-1.1,0.63-1.5,2.48-0.2,2.04
		C623.65,85.49,623.85,84.77,622.62,83.96z M622.42,91.01c-0.72-0.82-1.02-0.41-1.33,0.41C621.71,91.82,622.11,91.62,622.42,91.01z
		 M898.17,309.54c-1.61-4.44-3.97-2.64-18.49-1.02c0,2.35,0,4.09,0,6.23C894.82,312.71,897.98,313.03,898.17,309.54z M828.29,342.03
		c2.05,2.37,16.88,8.54,28.91,6.23c28.12-5.38,26.97-62.66-3.78-65.8c1.12,1.43,3.07,1.63,4.29,3.37c-2.04-0.1-3.56-0.83-4.6-1.84
		c-8.62-8.39-33.92,0.39-35.96,22.68c-0.41,2.45-0.51,4.6-0.72,7.25c6.64-0.72,12.87-1.45,19.11-2.25
		c7.65-0.98,11.13,9.11-0.2,10.73c3.49,4.48,12.72-1.81,7.66-10.11c-2.63-4.31-4.7-4.5-11.44-1.12c1.3-3.91,1.47-3.4,5.72-3.47
		c15.23-0.25,10.18,19.49-0.2,18.39c-2.04-0.22-3.27-1.33-3.68-3.47c-5.52,0.72-10.63,1.43-16.14,2.15
		C820.52,331.2,823.88,336.93,828.29,342.03z M776.9,328.14c2.61,0.45-2.32,0.39,58.54-7.36c2.9-0.37,5.47-0.98,5.11-3.98
		c-0.58-4.86-4.06-3.3-18.29-1.74C787.83,318.85,773.1,318.27,776.9,328.14z M542.83,399.14c2.5,16.11,43.67,98.28,43.73,98.39
		c3.27-0.72,6.33,0.31,9.4,0.51c1.16,0.23,1.58,0.96,2.04,1.43c2.63-3.16,2.79-6.06,4.9-8.68c1.34-1.66-1.43-30.61-1.63-32.69
		c-1.4-14.61-7.41-26.91-7.56-45.36c-0.05-6.02-6.23-17.61-4.39-31.57c-5.24,8.39-8.34,13.1-20.94,15.94
		c-11.03,2.48-12.19,3.6-23.8-4.7C542.12,394.24,542.44,396.59,542.83,399.14z M605.67,472.5c-0.96,28.82-0.11,12.47,2.76,8.99
		c1.96,8.95-6.14,10.64,7.25,9.09c2.76-9.71,11.34-9.4,19.11-11.34c-3.96-7.7-4.68-15.8-3.98-24.42
		c0.16-1.93,11.6-76.13,11.65-83.37c0.03-4.73-2.33-2.94-2.96-14.71c4.87,7.85,3.3,20.91,4.39-4.7c-1.02-1.33-2.55-2.15-3.17-3.47
		c-1.23-0.31-1.23,0.82-1.94,1.02c-7.12-0.89,14.05-2.76-40.66,4.19C584.71,384.58,606.08,460.07,605.67,472.5z M608.32,500.69
		c10.14-3.51,8.88-1.32,7.15-7.36c-2.96-0.2-5.72,1.12-8.58,0.1C606.58,498.24,606.58,498.55,608.32,500.69z M636.83,480.06
		c5.8,0.58,2.57,5.18,6.33,9.91c5.54,6.98,7.08,14.14,10.01,16.65c0.52-4.64,3.2-8.3,2.76-9.91c-1.16-4.18,1.03-7.35,3.17-10.52
		c3.66-5.44-0.97-5.25,4.5-15.84c0.52-1.01,1.63-1.33,2.66-1.74c-0.25-9.38,4.59-40.63-3.47-61.91c-6.74-17.78-6.29-23.9-3.27-34.33
		c6.23-21.53,5.06-16.16,1.63-17.88c-4.9,5.72-9.6,1.23-14.81-1.02c0.51,9.6-1.56,18.29-2.15,27.18
		c-1.65,25.15-6.8,30.07-6.54,41.07c0.29,12.46-6.47,25.04-2.66,42.91C636.5,471.73,634.41,472.13,636.83,480.06z M657.26,346.12
		c-4.5,0.61-8.89,1.23-13.49,1.84c2.96,4.09,7.45,5.02,11.44,6.54c3.64,1.38,8.88-6.8,8.28-12.16
		C659.29,340.47,660.8,340.96,657.26,346.12z M659.61,340.29c-8.46-7.72-6.39-5.71-65.28,1.02c-0.1,3.88,0.72,7.36,1.02,11.24
		C666.06,343.31,653.6,345.9,659.61,340.29z M532.41,371.35c5.48,15.57,11.12,19.85,20.74,23.4c6.86,2.53,6.87,2.51,13.49-0.72
		c0.82-0.4,1.43-1.12,2.45-0.92c0.31,1.33-1.43,1.23-1.63,2.25c0.31,0,0.61,0.1,0.92,0c23.33-7.32,20.99-28.18,25.13-41.28
		c1.83-5.78-9.86-48-30.14-50.78c-3.28-0.45-6.44-1.94-10.73-1.12c13.59,4.09,19.31,14.3,23.6,25.85
		c-2.93-0.84-7.7-15.98-17.57-21.05c-6.45-3.31-7.97-5.51-13.49-2.25c-3.98,2.35-6.95,5.62-9.3,9.71
		c5.24,5.39,13.77,17.17,15.12,24.52c11.82,3.27,13.97,26.06-1.74,25.13c-1.94-0.11-2.76-1.84-4.29-3.07
		c-4.5,0.2-9.19,1.12-14.2,1.84C530.37,365.94,531.48,368.7,532.41,371.35z M531.59,324.97c19.38,14.24,12.53,13.96,16.86,14.92
		c-1.19-5.71-7.3-14.81-10.63-19.51c-3.05-4.31-1.6-5.52-6.03-6.54C527.25,312.79,521.93,317.87,531.59,324.97z M541.91,338.15
		c-2.55-4.19-6.54-6.95-10.22-10.01C529.36,330.47,530.64,330.32,541.91,338.15z M458.03,356.84c2.86,4.39,4.19,8.28-0.2,12.77
		c1.12-4.39,2.25-8.28-1.53-11.75c-5.09,18.66-7.19,15.56,90.01,1.12c1.23-0.18,2.45-0.41,3.58-0.61c3.58-5.01,3.58-7.87-0.31-12.06
		C519.44,349.79,489.09,353.37,458.03,356.84z M518.82,341.42c15.43,1.49,20.4,5.56,32.08,2.96c7.39,7.94,2.68,15.92-3.88,16.24
		c2.61,4.89,13.41-1.87,10.32-9.6c-6.96-17.41-11.33-6.95-13.08-6.95c-1.41-3.37,3.22,0.55-25.64-18.7
		C516.38,335.75,509.57,340.53,518.82,341.42z M485.72,249.98c0.41-1.74,1.63-3.17,2.15-5.01
		C485.21,246.2,484.8,247.32,485.72,249.98z M490.42,256.31c-1.43-0.92-2.55-1.53-4.09-1.74
		C484.7,261.38,479.38,264.13,490.42,256.31z M490.73,252.84c1.33,1.23,3.07,1.53,4.7,1.94c0.51-0.92,0.41-1.84,0.41-2.76
		c-1.12-0.31-1.02,1.33-2.25,1.12c-1.12-0.92,0.41-2.35-0.51-3.78C492.46,250.79,492.36,252.43,490.73,252.84
		c-0.72-1.43-0.51-2.96,0.1-4.8C487.05,252.02,487.05,252.02,490.73,252.84z M516.58,158.33c-19.76,47.99-12.56,28.46-18.08,47.61
		c-5.2,18.04-8.28,18.23-9.6,36.98c7.04,4.2,17.77,9.94,26.36,9.6c11.8-0.46,16.15,1.75,18.39,1.43c5.84-1.24,8.56,0.2,21.25,1.53
		c-1.53,2.15-1.53,2.15-12.36,1.02c-1.43,1.63-3.27,3.07-5.72,1.63c-12.06,3.16-17.64-5.02-37.6,2.15
		c-2.04,0.73-4.09,1.63-6.23,2.04c0.92-2.86,3.98-2.66,6.03-4.39c-1.53-0.92-3.37-0.41-4.9-1.43c-2.96,3.68-6.64,5.62-10.93,7.05
		c-7.44,2.48-5.67,16.11-4.39,21.76c0.41-7.56,6.74-7.05,11.85-8.99c0.41-0.2,0-1.53,1.23-1.94c1.63,1.12,0.31,2.66,0.41,4.09
		c-2.35,1.94-5.52,2.45-8.17,4.7c7.56,1.6,6.55-0.99,20.74-6.64c18.57-7.39,7.73-6.37,31.77-9.6c-5.92,3.64-9.15,0.82-21.97,7.15
		c-11.36,5.61-16.05,4.22-23.7,23.91c-1.23-1.74-1.23-1.74,2.55-11.24c-5.52,1.38-3.91,1.07-11.95,0.31
		c1.17,12.12,4.97,23.28,7.05,27.89c4.78,10.59,6.08,8.99,12.46,13.79c3.33,2.51,6.95,4.5,11.54,4.29c1.53-1.84,2.04-4.09,3.07-6.64
		c-3.78,0.72-7.05,2.45-10.73,2.76c0-1.63,1.33-1.84,2.25-2.15c24.55-9.69,14.85-4.69,13.79-3.17c2.15,2.35,5.01,3.47,7.36,5.41
		c1.02-0.72,1.12-1.53,1.12-2.55c-2.04-1.74-3.88-3.88-5.72-5.93c0,0.19-0.1-2.36,0.1-3.58c0.98-6,5.83-7.35,10.83-4.5
		c4.45-5.99,10.71-13.75,18.08-12.67c4.99,0.73,26.82-5.36,41.38,39.54c13.59-1.53,27.07-3.07,40.66-4.7
		c1-13.66,4.94-11.82,1.84-15.02c-1.56-1.61-3.48-2.96-4.6-4.9c-2.87-5-8.08-6.22-12.57-8.79c-3.38-1.93-6.74-3.78-10.42-4.8
		c-9.5,5.31-13.08,14.3-16.65,24.01c5.41,0,10.01,0.41,12.87,5.11c-4.5-2.25-10.42,0.92-14.2-4.39
		c1.74-10.32,4.39-20.23,14.61-25.95c-7.66-3.78-15.45-7.64-22.17-13.08c-9.11-7.38-19.86-9.44-22.99-20.94
		c-6.6-24.27-9.22-21.27-10.93-29.93c-0.3-1.5-0.79-0.8-15.12-6.85c-6.88-2.9,2.45-0.7,13.79,3.88c-0.1-2.76-0.1-5.31-2.86-6.54
		c-0.2-1.12,0.82-0.41,1.23-1.53c-3.17-9.81-5.31-20.43-5.62-31.06c-4.7-0.92-8.48,1.53-12.87,2.04c0,1.41,0.59,3.03,0.21,4.65
		c-1.83-0.85-1.66-2.93-2.36-4.34c-5.01-1.67-1.38,3.06-3.58,6.95c-1.33-2.45-1.63-4.8-1.33-7.66c4.29-1.12,8.58-2.25,13.59-3.68
		c6.85-6.85,5.41-4.76,2.35-6.95c-6.34-4.54-11.02-10.12-11.85-18.19c-0.6-5.82-2.35-11.44-2.96-17.37
		C520.25,152.51,517.92,155.07,516.58,158.33z M497.06,255.19c4.16,2.77,4.89-2.34,1.33-2.96
		C497.98,253.25,497.57,254.17,497.06,255.19z M504.32,255.9c2.48,0.68,3.04-0.92,2.55-0.92
		C505.95,255.09,504.72,253.66,504.32,255.9z M529.65,257.13c3.47,2.25,6.54-1.02,9.91-0.31
		C536.19,255.39,533.02,257.84,529.65,257.13z M712.33,304.43c-2.4-1.58-18.68-14.2-30.96-17.27c-2.68,1.34-11.35,3.77-16.55,11.85
		c-3.25,5.04-3.71-1.07,0.82-4.9c3.48-2.95,6.13-6.85,10.83-8.48c-12.18-4.45-27.33-14.69-34.12-25.85
		c-0.96-1.58-11.02-21.17-12.36-48.43c-0.88-0.44,0.27-1.28-12.36,10.42c-3.69,3.41-5.81,9.47-16.55,23.29
		c-4.48,5.77-2.61,5.62,5.31,11.34c21.34,15.4,14.95,12.68,27.28,21.15c12.29,8.44,13.52,13.66,15.94,11.44
		c5.64,6.22,11.09,9.47,13.54,12.89c-16.26-8.13-9.84-9.01-25.69-17.9c-6.45-3.62-11.61-11.36-29.73-22.78
		c-5.13-3.23-9.08-7.89-13.89-11.65c-3.16-2.46-4.5-5.93-2.45-10.11c1.84,0.51-0.1,2.55,1.63,3.37c-0.46-4.86,4.6-5.46,5.93-27.79
		c0.77-12.91-4.27-28.17-5.01-32.8c-0.81-5.09,1.84-3.76,1.84-3.37c1.05,9.6,9.74,18.2,5.82,38.21c-2.38,12.17-0.16,6.54,1.33,6.54
		c-0.2,2.55-3.78,3.68-2.76,6.54c1.63,1.02,4.5-0.72,5.21,2.35c1.74-0.82,2.87-2.24,3.58-3.88c5.61-13.04,22.28-18.68,36.47-39.85
		c2.69-4.01-4.24,0.39-2.76-26.87c0.45-8.28,2.41-12.45-2.86-11.14c-1.96,5.03,3.11,14.38-8.07,28.2
		c-5.31,6.56-11.45,0.39-16.45-5.52c-4.87-4.87-5.66-11.58-8.17-16.65c-6.91-13.92-2.18-25.35-12.67-52.41
		c-2.31-5.96,0.45-5.27-9.6-4.19c9.63,18.32,16.15,29.83,16.45,49.24c0.13,8.58,0.27,17.4-3.68,25.44c-0.6,1.23-0.82,2.86-2.76,2.55
		c-1.52-1.35,2.61-8.86,3.68-19.92c1.94-20.18-7.12-39.3-15.33-56.6c-9.91-0.61-19.3,0.72-27.18,7.36
		c-2.55,2.15-5.72,2.96-8.07,5.41c-6.46,6.74-10.63,20.09-10.11,25.44c-6.55,0,3.09-16.04,2.96-18.39
		c-3.98,3.98-9.34,5.84-11.24,11.34c-6.09,17.64-5.42,9.07-1.63,34.53c1.21,8.18,6.33,13.28,13.38,17.57
		c0.61-4.39,1.23-8.37,1.12-12.46c-0.07-2.87-6.8-6.83-5.01-19.62c0.3-2.15-0.92-4.39,0.1-6.54c1.23,0,0.92,0.92,0.92,1.43
		c-0.58,6.6,3.35,10.51,4.19,18.9c0.3,2.96,2.24,5.52,1.94,8.68c-1.36,14.3,1.87,28.32,3.27,42.4c0.38,3.79,3.39,4.98,7.05,22.68
		c1.3,6.3,5.54,10.85,7.46,21.15c1.7,9.1,7.87,14.61,15.12,20.23c-2.04-4.29-4.5-7.66-7.15-11.65c6.47,1.55,0.43,6.12,17.98,17.57
		c18.45,12.04,16.19,6.09,43.93,23.6c3.57,2.25,5.03,6.52,7.66,9.71c0.93,1.12,0.61,2.55,0.1,3.88c-1.02,3.17-0.72,6.64-2.96,10.11
		c4.29,0.41,7.76-0.61,11.44-0.82c-3.17-4.29-7.76-7.56-6.54-13.59c1.53-0.1,2.04,0.82,2.15,1.63c0.29,2.15,1.79,3.7,2.76,5.52
		c3.52,6.63,10.68,8.29,16.14,12.26c2.4,1.74,4.71-2.37,6.85-1.84c-0.1,2.25-2.04,3.17-3.58,4.5c0.82,3.78-0.31,7.15-2.55,10.42
		c5.53,1.64,7.7-5.53,10.32-11.24c-4.52-9.96-2.19-6.05-3.88-4.6c-2.55-1.53-3.19-4.57-5.31-6.33c-2.06-1.71-5.31-1.43-7.05-3.17
		c-0.1-1.84,1.23-1.53,1.74-2.15c-0.1-5.52,5.93-7.97,6.23-13.79c1.74,3.37,0.49,8.95-2.04,10.42c-1.55,0.9-2.55,2.04-3.37,3.58
		c3.37,3.07,6.23,4.19,12.26,4.7c0.61-2.45,1.52-4.59-0.51-7.25c-3.49-4.6,3.51-8.18-3.98-14.92c-2.95-2.65-5.39-3.33-4.9-5.62
		c-0.1-0.1,10.72,2.54,10.01,13.08c-0.21,3.17,2.76,5.11,2.35,8.28c1.84,0.72,3.27,1.94,4.8,3.58c-1.94,0.72-3.27-0.41-4.7-0.51
		c-2.03,5.19,2.13,3.62,37.7-0.61C713.35,318.53,711.71,311.69,712.33,304.43z M601.88,236.39c2.96-4.28,6.85-3.78-2.35-3.78
		c-0.92,0.92-1.02,2.35-1.53,3.78C599.33,236.39,600.45,236.39,601.88,236.39z M597.39,237.82c-1.43,2.45-0.61,5.11-1.33,7.66
		C606.3,234.22,601.83,240.19,597.39,237.82z M679.23,335.9c1.02,5.21-2.25,9.3-3.68,14.2c1.84-0.72,3.17-1.43,4.6-2.96
		C678.92,343.46,681.78,339.58,679.23,335.9z M676.98,342.13c2.04-3.78-1.33-6.44-0.92-9.91c-1.33-0.1-2.25-0.2-3.58-0.31
		c2.04,6.03,3.17,11.95-1.63,17.67C673.4,349.08,673.29,348.97,676.98,342.13z M668.91,331.61c0.31,1.23,0.92,2.04,1.53,2.86
		C670.44,333.45,671.15,332.02,668.91,331.61z M715.29,307.6c1.94,6.13-1.63,12.06,1.74,17.88c3.88-0.51,8.07-1.02,12.57-1.53
		C727.96,315.57,721.11,312.5,715.29,307.6z M768.42,317.71c-0.31,1.12,0.92,1.63,0.92,2.66
		C769.62,319.41,773.41,316.47,768.42,317.71z M762.59,337.33c0.65-4.39,1.74-8.68,1.84-13.08c1.33,5.82,1.23,11.65-1.23,17.27
		c2.96,0.41,6.44-2.15,5.93-5.01c-0.82-4.6,0.82-8.79,1.12-13.28c1.33,5.62,0.82,11.24-0.1,16.76c6.55-1.31,4.99-9.6,4.39-14
		c-0.43-3.16-2.04-5.21-5.11-5.62c1.3,3.88-2.1-2.04-4.7-1.33c-0.92,0.92,0.82,1.84-0.2,2.96c-1.43-0.72-1.74-2.96-3.78-3.07
		c-1.94-0.1-3.27,0.61-4.19,2.35c0.2,0.92,1.23,0.71,1.84,1.02c1.54,0.8,2.66,2.25,2.35,3.78c-1.01,5.01-1.12,10.52-6.03,14.51
		C757.93,341.31,761.76,342.91,762.59,337.33z M750.74,340.4c3.69-0.99,6.22-3.47,6.64-7.36c0.27-2.48,5.32-9.92-2.76-9.71
		c-2.45,3.98-2.86,8.48-4.8,12.46c-4.7-3.17-9.2,0.1-13.89-0.41C737.22,339,746.78,341.46,750.74,340.4z M749.62,332.02
		c-2.74-11.29,26.07-11.41-71.31-0.41c-1.76,1.76,4.17,0.77,4.39,9.4C705.07,338.05,727.14,335.08,749.62,332.02z M705.58,433.47
		c0-19.13,8.53-30.91,8.68-73.15c0.01-2.35-1.33-4.5-1.23-7.46c-3.17,3.17-1.12,7.15-2.86,10.01c-0.82-2.45-1.02-5.11,0-7.15
		c2.04-4.09,1.69-9.03,4.6-12.87c0.7-0.93,0.41-2.66-0.1-4.29c-10.42,1.33-20.94,2.66-31.57,4.09c-4.6,14.73-6.65,4.75-16.55,12.67
		c-0.51,8.68-3.26,17.27-4.39,26.15c-3.32,26.15,9.5,11.57,8.38,69.06c-0.09,4.7-0.41,9.41-1.12,14.1
		c-0.63,4.1,1.94,7.25,3.17,10.93c1.84,0.31,3.27,0.51,5.01,0.82c0.41-2.96-0.72-6.33,2.25-8.89c4.37,6.82-4.39,9.48,7.46,7.87
		c-0.58-6.95-1.66-11.83,1.74-0.51c0.41,0.1,0.72,0.1,0.92,0.1c12.36-2.76,10.91-1.54,12.98-13.38
		C704.55,452.27,705.58,442.77,705.58,433.47z M674.12,478.83c0,1.43,0.2,2.76,0.61,4.09c6.64,3.27,10.93-0.92,15.94-4.9
		C684.84,478.73,679.63,479.65,674.12,478.83z M695.16,476.79c2.83,0.71,5.27,2.03,4.09-1.53
		C698.02,475.66,696.8,476.17,695.16,476.79z M698.74,520.52c9.8,4.3,26.56,7.3,37.9,8.28c7.25,0.62,13.88-2.15,20.84-2.96
		c3.76-0.44,4.12-9.42,3.68-11.65c-7.76-2.45-15.43-5.62-22.27-10.32c-2.25,1.33-2.25,1.33-4.5,0.72c-0.1-1.53,1.74-0.72,2.15-1.94
		c-2.09-2.51-2.55,1.27-5.11,1.43c-1.02-0.51-1.02-2.15-2.45-2.35c0.72-1.63,2.55-1.33,3.37-2.66c-4.01-0.4-6.19,5.17-8.99,1.84
		c-0.31-0.82,0.41-1.84-0.1-2.76c2.04-0.92,3.98-0.61,5.93-0.72c1.05-6.82-12.75,5.14-13.08-2.66c8.42-3.65,11.72,2.03,5.93-4.29
		c-4.96,1.5-11.96,4.76-14.71,2.55c3.58-4.8,8.48-3.68,12.98-4.29c-0.88-6.16-10.18,0.03-17.06-1.43c2.66-2.55,4.09-2.96,12.36-3.98
		c-4.34-0.59-1.39-1.97-10.52-15.02c-5.57,14.32,0.33,10.61-0.2,14c-5.66,0-8.1-5.1-13.08,0.41c-4.29,4.74-9.55,4.94-15.94,3.78
		c-3.53-0.64-2.88-0.6-9.09-15.73c-2.44,2.27-2.21,13.04-7.36,20.54c-2.21,3.21,1.77,4.23-2.15,12.36
		C648.96,520.87,687.12,515.42,698.74,520.52z M591.06,524.4c7.69,11.08,19.92,7.99,34.33,18.8c2.59,1.95,2.75-0.03,19.51,6.44
		c7.08,2.73,34.85-0.95,38.72-4.5c-0.64-21.83,3.4,0.23-24.72-27.48c-19.93,12.9-19.62,1.64-1.43-0.72
		c-1.74-2.25-3.27-4.19-4.9-6.23c-6.33,1.53-12.46,3.58-18.59,5.72c-1.02-2.45,0.3-3.49,1.53-4.29c6.21-4.05,9.86-3.58,15.12-3.58
		c-0.2-2.45-1.74-1.86-3.17-1.63c-6.35,1.02-12.98,0.51-19.31,2.66c-0.72-3.88,2.86-3.58,4.19-5.21c-2.86-0.1-5.52,2.15-8.68,1.12
		c2.86-4.8,12.46-7.05,21.76-5.21c-0.51-1.43-1.23-2.55-2.15-3.78c-7.05,1.74-14.3,2.35-21.05,6.33
		c-1.12-6.03,13.06-8.58,19.82-8.79c-0.51-1.84-0.7-3.89-1.74-5.31c-1.21-1.65-1.12-3.68-2.55-5.52c-3.07-0.61-6.33-0.72-9.6,0.61
		c-1.8,0.9-6.48,0.62-8.07,5.11c-3.65,10.29,4.89,8.02-11.65,14.81c-2.08,0.85-5.26-3.86-6.13-5.93c-5.17,9.47-5.55,3.97-9.3,21.45
		C592.6,521.13,591.67,522.76,591.06,524.4z"/>
	<path d="M754.32,316.39c0.12,0.08,0.09,0.09,0.1,0.1L754.32,316.39z"/>
	<path d="M472.44,430.91c11.42-8.28,26-21.03,38.41-11.34c8.97,7,49.98,75.81,54.15,82.96c-8.28,2.55,0.13,1.43-15.53,5.72
		c-1.12,0.31-2.55,0.2-3.88,1.43c6.67,2.69,26.83,4.75,21.76,7.56c-8.45-3.69-20.59-1.82-26.15-8.17c4.17-4.9,14.54-2.95,21.45-7.56
		c-4.09-4.6,2.36,3.7-12.87-20.13c-39.01-61.02-38.28-62.97-47-62.73c-16.46,0.45-21.81,10.95-39.54,20.33
		c-9.88,5.23-19.01,15.41-22.17,15.02C443.58,446.91,470.09,432.62,472.44,430.91z"/>
	<path d="M772.91,308.62c-2.13-5.36-7.34-1.97-19.41-8.28c-11.92-6.23-17.87-5.24-22.58-10.73c-17.29-20.13-23.34-23.08-33.2-34.53
		c-9.76-11.33-12.06-6.03-18.7-12.36c1.94-0.72,3.58,1.02,5.62,0.31c-4.29-4.39-8.17-8.68-8.48-15.43
		c3.87,1.07,0.51,4.26,7.36,10.32c6.23,5.52,12.39,11.01,17.67,17.37c5.34,6.42,11.95,11.55,17.78,17.57
		c1.45,1.5,15.21,21.59,49.24,29.32c4.55,1.03,9.8,7.5,12.57,11.24c0.52,0.71,1.43,1.33,0.41,2.86
		C778.43,313.63,774.45,312.5,772.91,308.62z"/>
	<path d="M231.21,208.51c-1.75,13.29-0.43,18.4-7.66,24.11c-4.78,3.77-1.59,3.62-4.8,4.5c0.57-2.06,1.53-1.91,1.69-1.86
		c-0.03-0.01-0.08-0.03-0.16-0.08c8.71-15.89,5.34,0.53,7.15-22.27c0.39-4.94,2.69-1.39-2.76-26.05
		c-3.38-15.33,4.32-16.29,2.66-24.93c-1.56-8.1,0.38-16.53-2.96-22.99c-4.97,9.95-5.55,10.77-12.62,7.58
		c0.12,0.18-0.05-0.01-0.05-0.02c0.68-0.68-4.58-1.42-3.98-4.9c3.37,1.43,5.62,4.7,9.09,4.8c4.09-2.96,5.21-7.76,8.48-11.24
		c1.33,3.88,3.56,6.64,3.98,10.22c3.87,32.66-7.28,29.11-1.63,40.56C228.72,188.13,232.46,199.05,231.21,208.51z"/>
	<path d="M660.63,144.34l-0.1-0.1C660.56,144.25,660.6,144.24,660.63,144.34z"/>
	<path d="M679.23,213.2c-1.65,13.84-9.18,21.14-11.85,21.86c0.84-3.09,2.13-1.15,1.74-2.15c8.71-15.89,5.34,0.53,7.15-22.27
		c0.4-4.97,2.69-1.39-2.76-26.05c-3.38-15.33,4.32-16.29,2.66-24.93c-1.56-8.1,0.38-16.53-2.96-22.99
		c-4.97,9.95-5.55,10.77-12.62,7.58c-0.99-1.75-4.64-1.41-4.04-4.82c3.37,1.23,5.52,4.7,9.09,4.7c3.98-2.86,5.11-7.76,8.48-11.24
		c1.02,3.68,3.26,6.13,3.68,9.3c1.49,11.24,1.95,22.33-2.66,33C672.29,181.78,682.3,187.35,679.23,213.2z"/>
	<path d="M449.55,341.11c0.95-3.79,2.55-2.67,2.55-2.25c0.08,0.18-0.59,17-11.44,34.12c-5.87,9.27-12.46,17.98-19.21,26.56
		c-1.17-3.52-0.68-4.75,12.67-22.17C447.74,359.61,447.12,350.84,449.55,341.11z"/>
	<path d="M178.4,100.71c-0.72-2.04,1.43-2.76,1.84-4.29c1.23,0.1,2.46-0.5,3.78-1.12c2.77-1.31,5.12,0.31,5.21,3.37
		c0.12,4.19-0.2,4.7-4.29,5.82c-1.53,2.66-1.53,2.66-5.01,2.45c0.61-1.94,0.61-3.78-0.1-5.93c4.26,0,2.26,0.95,1.94-2.45
		C180.45,98.98,179.94,100.61,178.4,100.71z M184.13,97.34c1.12,0.92,1.94,1.53,2.96,2.35C187.29,97.54,186.78,96.63,184.13,97.34z
		 M186.68,101.53c-0.65-0.05-3.64-0.19-3.88-0.31C183.62,102.46,184.65,102.88,186.68,101.53z M182.74,101.26
		C182.71,101.28,182.88,101.42,182.74,101.26L182.74,101.26z"/>
	<path d="M666.56,131.26c-3.71,0.84-13.13-5.6-9.6-7.36c4.9,2.76,10.63,4.5,15.84,7.87C670.28,133.32,670.26,130.42,666.56,131.26z"
		/>
	<path d="M217.74,133.51c-2.92,0.69-12.79-5.21-9.5-7.56c5.01,2.76,10.73,4.5,15.73,7.76C222.15,135.53,220.99,132.74,217.74,133.51
		z"/>
	<path d="M634.07,148.83c-4.8,1.63-8.58,5.82-14.51,6.33c1.98-5.57,9.37-4.42,12.77-7.15C632.95,147.52,633.66,147.81,634.07,148.83
		z"/>
	<path d="M185.35,150.88c-3.46,1.05-9.79,6.55-14.51,6.13c2.07-5.27,9.24-4.26,12.87-6.95
		C184.33,149.55,184.94,149.85,185.35,150.88z"/>
	<path d="M456.6,305.76c2.66-1.02,13.08-1.63,14.41-0.82C468.86,306.17,459.06,306.68,456.6,305.76z"/>
	<path d="M461.71,313.83c-3.88-2.04-8.28,2.04-12.16-0.92C453.64,313.42,457.93,310.15,461.71,313.83z"/>
	<path d="M162.67,136.88c-0.31-4.5-3.98-7.97-3.98-12.57C160.83,128.19,162.87,132.18,162.67,136.88z"/>
	<path d="M606.99,122.06c2.76,2.76,5.11,10.32,4.09,12.98c-1.02-2.15-0.64-4.58-1.84-6.44
		C607.99,126.68,606.89,124.72,606.99,122.06z"/>
	<path d="M646.12,257.13c2.96,2.25,4.09,5.62,5.82,8.68C649.39,263.26,646.53,261.01,646.12,257.13z"/>
	<path d="M653.27,256.31c2.66,3.17,3.17,7.05,4.5,10.63C654.81,263.97,653.79,260.3,653.27,256.31z"/>
	<path d="M453.03,332.83c1.63-0.54,3.47-0.31,4.5,1.63c-4.54-1.45-7.26,2.04-12.46-3.17C446.94,330.05,447.83,334.55,453.03,332.83z
		"/>
	<path d="M205.27,257.54c1.53,4.09,2.76,7.46,4.09,10.93C206.09,265.92,204.25,260.91,205.27,257.54z"/>
	<path d="M13.2,307.09c2.96,0.1,5.93-1.74,9.09-0.31C19.43,308.52,15.75,308.62,13.2,307.09z"/>
	<path d="M696.8,261.52c-3.07-1.23-6.54-1.43-9.2-3.68C691.18,257.84,694.75,257.95,696.8,261.52z"/>
	<path d="M672.28,248.55c2.96,2.45,6.54,4.09,9.6,6.44C678,253.86,674.63,252.02,672.28,248.55z"/>
	<path d="M127.93,505.91c-2.96-0.61-6.23-0.41-8.89-2.66C122.01,503.86,125.28,503.86,127.93,505.91z"/>
	<path d="M576.55,503.86c-3.37,0-6.85-0.92-9.4-2.66C571.54,501.31,574.81,502.33,576.55,503.86z"/>
	<path d="M704.66,266.63c-3.91-2.98-7.24-2.48-7.76-5.11C699.76,262.75,703.13,263.16,704.66,266.63z"/>
	<path d="M464.47,313.73c2.96-0.41,5.21-0.61,7.66,1.23C469.17,315.67,467.13,315.16,464.47,313.73z"/>
	<path d="M723.67,286.04c2.15,0.31,4.09,0.61,5.21,3.17C726.22,289.31,724.59,288.19,723.67,286.04z"/>
	<path d="M605.05,117.98c-1.12-1.74-2.86-3.27-2.04-6.33C604.34,113.99,605.26,115.73,605.05,117.98z"/>
	<path d="M156.34,119.92c-1.12-1.63-2.66-3.27-1.94-5.62C155.52,116.04,156.64,117.67,156.34,119.92z"/>
	<path d="M659.81,268.67c2.15,0.92,3.37,1.94,3.88,3.78C662.16,271.74,660.32,271.23,659.81,268.67z"/>
	<path d="M224.48,241.4c-2.45-1.43-2.66-2.04-1.33-5.52c1.02,0.92,0.29,1.84,0.61,2.76C224.06,239.46,224.89,240.27,224.48,241.4z"
		/>
	<path d="M672.28,234.14c-0.61,1.84,0.61,3.37,1.02,5.62C670.44,237.62,670.23,236.29,672.28,234.14z"/>
	<path d="M318.07,280.01c-1.43,1.74-2.86,3.47-5.11,4.29C314.29,282.47,315.92,280.83,318.07,280.01z"/>
	<path d="M741.24,318.94c-1.63,1.02-3.27,1.94-5.93,2.35C737.26,319.04,739.09,318.53,741.24,318.94z"/>
	<path d="M169.31,155.88c-2.25,1.74-2.25,1.74-5.11,0.31C165.74,155.78,167.37,155.06,169.31,155.88z"/>
	<path d="M618.23,154.04c-2.15,1.74-3.78,1.53-5.93,0.1C614.45,153.74,616.09,153.12,618.23,154.04z"/>
	<path d="M665.53,272.25c1.12,1.74,2.55,2.45,3.07,4.6C666.56,275.93,664.62,275.52,665.53,272.25z"/>
	<path d="M318.27,283.18c1.33-2.15,2.66-3.27,4.29-3.98C321.74,280.73,320.72,282.26,318.27,283.18z"/>
	<path d="M652.36,255.49c-2.04,0-2.45-1.23-3.07-2.86C651.13,253.04,652.15,253.66,652.36,255.49z"/>
	<path d="M200.68,254.68c1.74,0.31,2.76,1.02,3.07,2.86C201.7,257.54,201.29,256.31,200.68,254.68z"/>
	<path d="M220.39,175.8c1.43,0.72,2.45,1.12,2.86,2.55C221.11,178.87,220.8,177.64,220.39,175.8z"/>
	<path d="M669.01,173.76c1.53,0.72,2.55,1.12,2.86,2.55C669.72,176.83,669.42,175.7,669.01,173.76z"/>
	<path d="M674.12,243.34c-1.53,0.1-2.45-0.51-3.88-1.63C672.28,241.19,673.4,241.5,674.12,243.34z"/>
	<path d="M653.17,224.33c-1.02-0.72-2.25-1.33-1.84-3.17C653.17,221.68,652.97,223.21,653.17,224.33z"/>
	<path d="M204.66,226.38c-1.23-0.61-2.04-1.33-2.15-3.27C204.56,223.82,204.35,225.25,204.66,226.38z"/>
	<path d="M225.4,245.18c-1.53,0.41-2.55-0.31-3.68-1.43C223.56,243.23,224.69,243.44,225.4,245.18z"/>
	<path d="M237.25,257.13c-0.12-0.02-7.46,1.59-13.69-6.54c2.86,2.35,6.44,3.68,9.2,6.13C234.08,257.03,235.41,255.29,237.25,257.13z
		"/>
	<path d="M209.56,232.61c-1.33-1.02-2.25-1.63-2.35-2.96C208.65,229.75,209.26,230.57,209.56,232.61z"/>
	<path d="M658.28,230.46c-1.33-1.12-2.76-1.43-2.45-3.27C657.36,227.71,657.87,228.62,658.28,230.46z"/>
	<path d="M8.09,307.4c1.12-0.41,2.15-0.2,3.27,0.2C9.62,308.52,9.62,308.52,8.09,307.4z"/>
	<path d="M719.38,282.77c1.12,0.61,2.25,0.72,2.45,2.55C720.5,284.82,719.38,284.61,719.38,282.77z"/>
	<path d="M214.16,239.97c0.82-1.23,1.53-1.94,3.17-1.12C216.51,239.97,215.69,240.48,214.16,239.97z"/>
	<path d="M666.05,236.7c-1.02,1.23-1.74,1.84-3.17,1.23C663.59,236.7,664.21,236.08,666.05,236.7z"/>
	<path d="M220.91,242.62c-1.33,0.31-1.74-0.31-1.94-1.33C220.19,241.09,220.6,241.6,220.91,242.62z"/>
	<path d="M676.16,280.32c0.61,0.31,1.53,0.1,1.84,1.12C677.08,281.45,676.57,281.04,676.16,280.32z"/>
	<path d="M669.52,240.68c-1.23,0.1-1.63-0.41-1.94-1.53C668.91,239.15,669.32,239.66,669.52,240.68z"/>
	<path d="M167.06,106.23c0.1,1.12-0.2,1.74-1.53,2.76C165.63,107.35,165.84,106.54,167.06,106.23z"/>
	<path d="M615.98,104.19c-0.31,1.02-0.31,1.94-1.84,2.66C614.35,105.41,614.45,104.49,615.98,104.19z"/>
	<path d="M154.5,107.66c0.72,1.12,1.12,1.84,0.51,2.86C154.19,109.8,154.09,109.09,154.5,107.66z"/>
	<path d="M603.21,105.72c0.72,1.02,1.02,1.84,0.2,3.07C603.01,107.66,602.5,106.94,603.21,105.72z"/>
	<path d="M754.11,316.18c-0.61,1.43-0.61,1.43-1.84,0.41C752.79,315.98,753.5,316.39,754.11,316.18z"/>
	<path d="M330.33,274.5c0,1.73-2.18,1.05-1.02-0.1C329.61,273.99,330.02,274.09,330.33,274.5z"/>
	<path d="M748.19,308.21c-0.92,0.41-1.43,0-1.84-0.61C747.27,307.19,747.88,307.19,748.19,308.21z"/>
	<path d="M714.78,280.83c-0.61-0.2-1.33,0-0.92-1.12C714.37,279.71,714.68,279.91,714.78,280.83z"/>
	<path d="M8.91,336.62c-0.72-0.1-1.33-0.2-1.12-1.23C8.6,335.39,9.22,335.49,8.91,336.62z"/>
	<path d="M122.62,199.71c0-1.63,2.6-2.62,2.15,1.43c-1.12,9.98-5,18-2.55,25.95c0.5,1.64,0.51,3.47-0.41,5.62
		c-2.15-3.78-3.54-13.19-2.86-17.88C119.69,209.71,122.62,205.02,122.62,199.71z"/>
	<path d="M114.45,180.81c-5.93-1.94-9.99-6.15-14.51-9.5c-4.42-3.28-6.92-13.84,4.19,0.72
		C108.63,177.92,111.32,173.41,114.45,180.81z"/>
	<path d="M110.87,125.33c1.85-3.49,6.01-1.5,9.4-2.45c3.77-1.06,5.82,1.02,7.87,3.58c-2.96-0.31-5.82-0.92-8.58-2.04
		C116.9,123.5,114.04,126.15,110.87,125.33z"/>
	<path d="M155.2,204.81c-2.88-0.82,0.83-0.89,0.83-2.54c3.57,2.49,13.44,1.15,15.22,0.41C169.27,205.13,159.94,206.16,155.2,204.81z
		"/>
	<path d="M127.12,142.5c2.42,2.2,0.14,14.53,0.1,15.33C125.79,155.17,125.89,144.34,127.12,142.5z"/>
	<path d="M94.12,139.84c-0.41,6.23-0.1,12.06,0.31,17.88C92.28,153.74,92.07,142.8,94.12,139.84z"/>
	<path d="M133.55,128.81c3.58,2.15,4.5,5.82,6.13,9.09C136.93,134.18,129.41,131.17,133.55,128.81z"/>
	<path d="M102.39,117.67c0-4.19,11.49-12.35,13.79-10.22C110.77,110.01,105.97,112.87,102.39,117.67z"/>
	<path d="M153.99,223.93c2.98-4.77,8.36-9.55,11.85-14.2C163.08,215.44,158.08,219.35,153.99,223.93z"/>
	<path d="M144.38,174.58c-0.31,3.78-2.15,5.62-6.33,6.64C140.09,179.07,141.93,177.13,144.38,174.58z"/>
	<path d="M133.96,247.53c2.45,2.45,6.13,2.66,8.48,5.01C139.48,251.2,135.8,250.9,133.96,247.53z"/>
	<path d="M122.62,127.79c2.16-1.08,3.25,5.43,3.58,6.74C125.38,135.34,125.71,134.89,122.62,127.79z"/>
	<path d="M122.21,257.54c-2.45-3.17-2.55-4.09-0.82-7.15C121.7,253.04,121.91,254.98,122.21,257.54z"/>
	<path d="M140.19,247.93c-2.25-0.61-3.27-2.35-4.09-4.29C137.95,244.56,139.99,245.38,140.19,247.93z"/>
	<path d="M120.17,243.34c0.31-1.53,0.51-3.07,0.82-4.9C122.62,241.29,122.62,241.6,120.17,243.34z"/>
	<path d="M120.17,243.34c-0.1,1.12,1.23,2.45-0.51,3.78C119.66,245.58,118.13,244.36,120.17,243.34z"/>
	<path d="M121.7,236.7c-0.1,0.1-0.41,0.1-0.72,0.2C119.81,232.77,123.09,234.62,121.7,236.7z"/>
	<path d="M119.66,189.49c-0.82-1.23-2.15-1.43-2.15-3.27C119.25,187.35,119.25,187.35,119.66,189.49z"/>
	<path d="M117.1,184.39c-1.12-0.82-2.04-1.12-2.55-2.86C116.29,181.93,117,182.55,117.1,184.39z"/>
	<path d="M125.07,194.6c0.72,0.82,1.02,1.53,0.2,2.76C124.36,196.54,123.95,195.83,125.07,194.6z"/>
	<path d="M144.08,236.19c-0.2,0.72-0.41,1.53-0.61,2.25C142.75,237.41,142.95,236.7,144.08,236.19z"/>
	<path d="M146.73,229.54c-0.82-1.02-0.61-1.84,0-2.86C147.24,227.71,147.45,228.52,146.73,229.54z"/>
	<path d="M80.43,143.83c0.41,0.92,0.2,1.63-0.41,2.45C79.51,145.36,79.61,144.64,80.43,143.83z"/>
	<path d="M173.91,203.19c0.42,0.42-1.23,1.16-1.23-0.41C173.19,202.57,173.6,202.78,173.91,203.19z"/>
	<path d="M126.3,161.81c0.9,0.9-0.69,1.16-0.41,0.31C125.89,161.91,126.2,161.91,126.3,161.81z"/>
	<path d="M238.17,371.35c-0.12-1.79,0.28-10.43,2.04-10.73c4.97,14.92-10.32,39.23-6.03,27.79
		C236.74,383,238.59,377.48,238.17,371.35z"/>
	<path d="M215.8,317.71c2.07-1.24,5.36,1.26,8.07,1.74c6.73,1.19,10.11,4.5,8.68,13.79C230.51,323.64,223.36,320.57,215.8,317.71z"
		/>
	<path d="M258.09,323.64c-1.74-2.35-2.99-4.88-5.01-6.85c-1.14-1.11-1.53-2.66-0.72-4.7C258.5,319.25,259.22,320.57,258.09,323.64z"
		/>
	<path d="M223.05,342.85c-4.09-2.35-8.48-4.19-12.77-6.23C213.96,336.21,222.44,340.29,223.05,342.85z"/>
	<path d="M233.98,311.48c3.17,0.72,5.93-1.02,9.09-1.33C239.7,314.04,235.72,314.55,233.98,311.48z"/>
	<path d="M232.76,461.05c0.71,6.22-3.03,13.66,0.2-6.64C233.57,456.66,232.5,458.8,232.76,461.05z"/>
	<path d="M232.14,394.03c0.41,2.55-1.12,3.98-2.15,5.62C230,397.71,230,395.67,232.14,394.03z"/>
	<path d="M224.28,351.94c-1.12-1.53-2.04-2.76-3.27-4.39C223.97,348.16,224.07,348.36,224.28,351.94z"/>
	<path d="M253.29,306.37c0.2,2.04,0.2,2.04-1.33,3.98C252.27,308.83,251.56,307.29,253.29,306.37z"/>
	<path d="M248.18,301.27c0.61,1.53,1.12,3.07-0.31,4.5C248.18,304.33,248.08,302.8,248.18,301.27z"/>
	<path d="M242.16,355.52c-1.02-1.02-1.02-1.94-0.51-3.58C242.36,353.37,243.18,354.19,242.16,355.52z"/>
	<path d="M233.68,448.69c-0.1-0.82,0.2-1.63,0.82-3.07C234.6,448.79,234.6,448.9,233.68,448.69z"/>
	<path d="M204.76,334.57c1.12-0.51,1.74,0,2.35,1.02C205.99,335.9,205.27,335.7,204.76,334.57z"/>
	<path d="M224.79,407.83c0.58,0.35-0.19,2.27-1.23,1.53C223.46,408.44,223.87,408.03,224.79,407.83z"/>
	<path d="M233.57,335.9c0.41,0,0.41,0.31,0.51,0.92C233.47,336.51,233.17,336.31,233.57,335.9z"/>
	<path d="M228.26,402.51c0.2,0.61,0,1.02-0.61,1.23C227.14,402.92,227.04,402.41,228.26,402.51z"/>
	<path d="M163.49,383.41c1.84,8.58,1.74,19.11,0,21.35C162.16,396.59,162.06,385.14,163.49,383.41z"/>
	<path d="M181.16,330.59c-1.94-1.74-2.04-4.5-0.31-6.13c1.12,1.02,0.1,2.66,1.02,3.78c4.6,3.58,4.7,3.78,3.98,8.48
		C184.94,333.65,183.1,332.12,181.16,330.59z"/>
	<path d="M166.96,485.37c0.21,1.43,0,2.96-1.74,4.5c0.82-7.25,0.2-13.89,0-20.54C168.62,470.76,166.01,478.85,166.96,485.37z"/>
	<path d="M161.24,435.1c-0.31-7.66,1.43-15.12,2.04-22.68C163.9,420.09,161.85,427.54,161.24,435.1z"/>
	<path d="M162.16,366.96c1.53,4.8,2.25,9.71,1.02,14.61C162.98,376.66,160.52,371.86,162.16,366.96z"/>
	<path d="M151.84,400.78c0.31,0,0.72,0,1.02-0.1C152.86,419.38,151.84,419.06,151.84,400.78z"/>
	<path d="M152.96,397.51c-1.84-7.05-1.84-10.83,0-12.87C152.96,388.82,152.96,392.7,152.96,397.51z"/>
	<path d="M162.77,455.95c2.55,2.55,3.88,6.74,3.27,9.3C164.82,462.08,162.67,459.42,162.77,455.95z"/>
	<path d="M153.07,371.35c0.51,2.25,1.23,4.6-0.72,7.36C151.33,375.74,152.76,373.6,153.07,371.35z"/>
	<path d="M159.71,473.62c0.61,2.04,1.43,3.58,0.31,5.93C158.99,477.3,158.58,475.77,159.71,473.62z"/>
	<path d="M177.79,318.02c0.82,1.23,1.53,2.45,2.04,4.5C176.97,320.17,176.87,319.86,177.79,318.02z"/>
	<path d="M158.99,471.68c-0.51-1.43-0.82-2.86-0.2-5.01C159.61,468.72,159.5,470.15,158.99,471.68z"/>
	<path d="M152.04,423.46c-0.31-1.23-0.31-2.25,0.61-3.07C152.86,421.41,153.07,422.44,152.04,423.46z"/>
	<path d="M186.48,339.88c1.23,0.82,1.33,1.74,0.51,3.17C186.07,341.93,185.86,341.01,186.48,339.88z"/>
	<path d="M158.99,334.57c1.12,0.51,1.33,1.12,0.31,2.66C159.3,336,158.07,335.8,158.99,334.57z"/>
	<path d="M146.22,332.83c0.51,0.61,0.51,1.33,0,2.55C145.91,334.16,145.3,333.45,146.22,332.83z"/>
	<path d="M100.86,268.57c-11.19-8.03-13.65,3.94-15.12,4.19c3.93-20.06,30,0,33.31,22.27C115.29,286.27,111.85,276.46,100.86,268.57
		z"/>
	<path d="M126.4,325.27c0.51-3.27,1.02-6.44,1.53-9.5C129.16,319.14,128.34,323.03,126.4,325.27z"/>
	<path d="M123.64,285.02c1.84,3.17,2.25,4.29,2.04,7.05C124.56,290.03,122.93,288.19,123.64,285.02z"/>
	<path d="M121.7,315.36c-0.72-1.63-0.82-2.66-0.1-4.5C122.31,312.71,122.42,313.83,121.7,315.36z"/>
	<path d="M121.91,304.53c-0.82-1.74-1.33-2.96-0.92-4.39C121.6,301.37,122.21,302.59,121.91,304.53z"/>
	<path d="M122.83,338.35c0.61-1.43,1.02-2.45,1.43-3.58C123.95,335.9,124.56,337.43,122.83,338.35z"/>
	<path d="M83.8,277.77c0.2-0.82-0.41-1.63,1.02-1.94C85.02,276.54,84.82,277.15,83.8,277.77z"/>
	<path d="M119.96,322.52c0,1.45,0.1,1.23-0.31,1.23C119.66,323.64,119.67,322.52,119.96,322.52z"/>
	<path d="M79.3,234.96c7.05,1.53,14.41,2.15,21.25,4.9C93.3,239.15,86.05,237.82,79.3,234.96z"/>
	<path d="M83.9,211.46c-2.25-2.55-5.72-4.29-4.09-8.58C81.96,204.62,84.31,209.21,83.9,211.46z"/>
	<path d="M67.35,240.27c0.92,3.07,2.45,6.13-0.51,9.09C65.71,246.2,66.94,243.23,67.35,240.27z"/>
	<path d="M98.51,245.38c-4.19-0.2-8.28-0.2-12.16-2.45C100.69,245.08,98.51,243.79,98.51,245.38z"/>
	<path d="M74.3,213.3c-1.12-2.15-2.66-4.19-1.33-7.36C74.81,208.5,74.19,210.95,74.3,213.3z"/>
	<path d="M61.01,202.98c0.72,2.35,0.31,3.98-0.41,6.23C60.2,206.86,59.18,205.23,61.01,202.98z"/>
	<path d="M88.29,201.96c-0.92-1.12-2.25-2.15-1.43-4.09C89.31,198.69,88.7,200.32,88.29,201.96z"/>
	<path d="M67.25,223.31c0.61,1.84,0.82,3.27-0.51,5.21C66.22,226.38,65.82,224.95,67.25,223.31z"/>
	<path d="M66.74,230.06c1.74,1.43,1.53,2.55,0.41,4.39C66.33,232.81,66.02,231.69,66.74,230.06z"/>
	<path d="M67.25,235.37c1.53,1.74,1.53,1.74,0.72,3.37C66.53,237.82,66.94,236.7,67.25,235.37z"/>
	<path d="M206.3,517.45c-10.22,3.88-14.2,4.39-16.55,2.15C193.01,516.22,201.6,515,206.3,517.45z"/>
	<path d="M162.87,513.47c4.69,1.39,4.32,12.01-6.13,6.23C158.17,514.18,159.71,512.53,162.87,513.47z M160.32,519.9
		c3.75,0.89,4.45-3.82,2.04-4.7c-1.63-0.41-2.55,0.31-2.96,2.04C161.34,517.45,161.65,518.37,160.32,519.9z"/>
	<path d="M176.05,522.97c-0.82-1.43-1.12-3.05,0.61-4.19c2.16-1.42,3.98,0.1,6.23,1.02c-1.33,2.45-1.12,5.41-3.07,7.36
		c-1.74-0.92,0.1-2.15-0.92-2.76c-1.84-0.92-2.66,2.35-4.5,0.82C174.62,524.19,175.54,523.99,176.05,522.97z M179.83,522.46
		c0-2.15,0-2.15-2.35-1.84C177.18,522.25,178.51,522.25,179.83,522.46z"/>
	<path d="M170.54,516.02c5.71,0.25,5.4,8.61-0.1,8.38C164.67,524.16,165.08,515.78,170.54,516.02z M170.43,522.76
		c2.84-0.39,2.75-5.23-0.1-5.01C167.25,518.2,167.5,523.17,170.43,522.76z"/>
	<path d="M212.94,524.19c-4.29,4.39-9.71,6.54-12.46,4.9C203.03,526.13,209.87,523.48,212.94,524.19z"/>
	<path d="M207.01,530.12c2.15-1.84,2.15-1.84,5.93-2.04C209.56,531.14,209.16,531.24,207.01,530.12z"/>
	<path d="M373.34,231.69c-1.21,1.65-2.25,3.58-3.37,5.31c1.02-7.05,5.12-11.4,11.65-12.67c28.21-5.47,32.31,39.03,24.42,44.95
		c0.41-2.25,1.43-4.29,1.63-6.44C410.97,227.82,384.75,216.19,373.34,231.69z"/>
	<path d="M403.17,224.54c6.44,3.37,10.93,13.18,11.75,20.02C411.55,237.51,409.71,229.65,403.17,224.54z"/>
	<path d="M416.96,261.22c-0.41-3.17-0.2-6.44-0.31-9.71C418.19,254.68,418.19,257.95,416.96,261.22z"/>
	<path d="M412.47,273.68c0.51-2.45,1.63-4.6,2.96-6.64C415.12,269.59,414.1,271.84,412.47,273.68z"/>
	<path d="M410.73,277.05c-0.61,1.74-1.84,2.96-4.19,4.19C408.28,279.5,409.51,278.28,410.73,277.05z"/>
	<path d="M368.33,242.52c-0.2-0.82-0.2-1.63,0.72-2.76C369.15,242.62,369.15,242.83,368.33,242.52z"/>
	<path d="M404.81,270.72c0.41,0.92-0.2,1.02-0.82,1.43C403.99,271.23,404.19,270.82,404.81,270.72z"/>
	<path d="M50.49,268.16c1.92,1.74,3.09,1.13,12.57-1.33c-4.9,6.23-9.5,7.15-15.22,3.37c-6.9,1.2-9.28,5.24-13.49,6.33
		C34.03,273.03,47.37,265.34,50.49,268.16z"/>
	<path d="M75.62,264.28c-3.98,0-7.87-0.1-11.75,1.02C67.14,261.93,71.84,261.42,75.62,264.28z"/>
	<path d="M58.77,291.56c-0.1-2.96,1.33-4.5,2.96-6.74C61.73,287.88,60.91,289.62,58.77,291.56z"/>
	<path d="M56.31,330.89c5.62-3.78,12.36-4.8,18.49-7.56C69.49,328.03,63.06,329.87,56.31,330.89z"/>
	<path d="M68.78,332.12c-1.02,0.72-1.43,1.02-2.35,1.63C66.63,332.02,67.25,332.02,68.78,332.12z"/>
	<path d="M5.23,324.05c0.73,0.54-0.06,2.04-0.82,1.43C4.21,324.76,4.62,324.36,5.23,324.05z"/>
	<path d="M213.55,301.78c-2.96,1.33-5.11,1.02-7.46-1.23C208.95,300.96,211.1,301.27,213.55,301.78z"/>
	<path d="M197.71,302.7c-1.74,1.43-3.07,1.43-4.29,1.43C194.55,303.31,195.67,302.8,197.71,302.7z"/>
	<path d="M201.49,302.18c0.61-1.02,1.33-1.02,2.55-0.61C203.23,302.7,202.52,302.59,201.49,302.18z"/>
	<path d="M148.57,242.72c0.72-0.31,1.33-0.61,1.74,0.51C149.59,243.54,149.08,243.75,148.57,242.72z"/>
	<path d="M572.67,196.34c1.68,0.63,0.87,3.33-0.51,10.01c-4.43,21.41,0.81,18.22-1.63,24.32c-2.25-3.78-3.58-13.08-2.76-18.08
		c0.82-5,3.58-9.6,3.58-14.81C571.34,197.06,571.75,196.44,572.67,196.34z"/>
	<path d="M557.65,173.56c3.97,0.91,13.16,14.12-9.4-4.39c-1.34-1.1-2.25-2.76-3.17-4.29c-0.41-0.82-0.82-1.63,0.72-2.55
		C551.75,166.95,552.6,172.4,557.65,173.56z"/>
	<path d="M567.15,255.6c5.55,4.37,3.73,8.58,5.62,9.2c2.55,0.83,2.04,2.86,2.15,4.8c-3.07-5.11-8.68-7.97-11.44-13.18
		C565.31,254.37,565.49,254.29,567.15,255.6z"/>
	<path d="M559.38,123.39c2.64-3.52,6.27-1.47,9.71-2.45c3.67-1.05,5.82,0.92,7.76,3.47c-3.17-0.1-5.92-1.05-8.68-1.94
		C565.52,121.63,562.76,124.31,559.38,123.39z"/>
	<path d="M654.09,300.04c-2.76-1.74-13.08-7.6-15.43-12.67c1.35-0.67,1.3,1.72,17.88,12.77
		C655.22,300.75,654.6,300.36,654.09,300.04z"/>
	<path d="M604.75,200.53c5.01,1.94,10.01,1.12,15.53,0.1c-2.55,2.76-13.49,3.58-17.47,1.74
		C603.21,201.45,604.64,201.65,604.75,200.53z"/>
	<path d="M575.42,140.56c2.45,5.11,1.02,10.11,0,15.22C574.91,150.77,574.61,145.67,575.42,140.56z"/>
	<path d="M590.85,282.06c5.11,1.94,10.11,3.88,15.43,5.93C602.5,288.8,592.08,284.71,590.85,282.06z"/>
	<path d="M582.06,126.76c3.58,1.94,4.6,5.62,6.13,8.99C585.76,132.18,578.24,129.5,582.06,126.76z"/>
	<path d="M542.83,138c-0.51,6.03-0.2,11.75,0.2,17.57C540.89,151.28,540.69,140.56,542.83,138z"/>
	<path d="M550.8,116.24c0.92-4.8,8.79-10.93,13.79-10.93C559.38,107.97,554.58,111.03,550.8,116.24z"/>
	<path d="M602.8,221.88c3.27-5.31,7.97-9.3,11.75-14.2C611.8,213.4,606.79,217.28,602.8,221.88z"/>
	<path d="M586.87,178.87c6.57-6.94,5.6-5.95,6.44-5.11c-0.72,3.17-3.37,4.39-5.93,5.62C587.28,179.18,587.07,178.97,586.87,178.87z"
		/>
	<path d="M574.2,132.89c-1.02-2.35-1.94-4.7-2.96-7.05C573.79,127.79,573.89,128.09,574.2,132.89z"/>
	<path d="M589.32,246.3c-2.86-0.92-3.68-2.76-4.6-4.7C586.66,242.52,588.6,243.34,589.32,246.3z"/>
	<path d="M620.48,295.95c1.12,0.92,3.07,0.72,3.98,2.76C622.32,298.51,621.19,297.59,620.48,295.95z"/>
	<path d="M568.78,241.29c0.31-1.53,0.51-3.07,0.82-4.9C571.23,239.35,571.23,239.56,568.78,241.29z"/>
	<path d="M568.37,245.28c0-1.63-1.53-2.86,0.51-3.88C568.68,242.42,570.11,243.75,568.37,245.28z"/>
	<path d="M576.34,270.51c1.53,0.61,2.04,1.74,2.76,3.47C577.26,273.27,576.34,272.56,576.34,270.51z"/>
	<path d="M616.39,293.4c0.82,0.41,2.15,0,2.35,1.74C617.52,295.03,616.6,294.83,616.39,293.4z"/>
	<path d="M610.36,290.03c1.63-0.31,2.45,0.31,3.58,2.04C612.1,291.56,611.08,291.25,610.36,290.03z"/>
	<path d="M570.32,232.61c0.72,0.72,0.51,1.43-0.41,2.45C569.29,232.61,569.29,232.3,570.32,232.61z"/>
	<path d="M566.02,184.18c1.63,0.31,2.15,1.33,2.66,3.07C567.25,186.43,566.33,185.92,566.02,184.18z"/>
	<path d="M573.89,195.32c-0.92-0.92-1.12-1.63,0-2.66C574.4,193.58,574.81,194.4,573.89,195.32z"/>
	<path d="M565.82,182.24c-1.23-0.82-2.25-1.02-2.35-2.66C564.9,179.89,565.62,180.5,565.82,182.24z"/>
	<path d="M592.59,234.04c0.1,0.92,0,1.63-0.82,2.25C591.67,235.47,591.36,234.55,592.59,234.04z"/>
	<path d="M595.45,227.71c-0.82-1.23-0.72-2.04,0-2.96C595.96,225.66,595.96,226.48,595.45,227.71z"/>
	<path d="M638.77,287.27c-0.61-0.61-1.43-1.12-1.43-2.25C639.19,285.29,639.33,287.27,638.77,287.27z"/>
	<path d="M529.04,141.78c0.41,1.12,0.2,1.74-0.51,2.66C528.22,143.32,528.12,142.6,529.04,141.78z"/>
	<path d="M583.09,276.85c-0.41-0.31-1.53,0-1.33-1.23C582.47,275.62,582.98,276.03,583.09,276.85z"/>
	<path d="M622.52,201.55c-0.72,0.31-1.23,0.31-1.23-0.72C622.01,200.53,622.42,200.73,622.52,201.55z"/>
	<path d="M574.5,160.07c0.23-0.46,0.82-0.13,0.82,0.1C574.98,160.86,574.3,160.68,574.5,160.07z"/>
	<path d="M557.14,270.62c-19.31,3.58-36.88,10.01-51.39,24.11C509.32,283.08,545.8,268.37,557.14,270.62z"/>
	<path d="M496.55,268.16c-5.01,0.61-8.79,4.29-13.38,6.54c-0.41-1.23-0.1-1.74,0.31-2.04c3.31-3.22,12.76-9.21,15.94-6.33
		c1.84,1.67,3.2,0.73,12.26-1.53C506.97,270.92,502.07,271.94,496.55,268.16z"/>
	<path d="M500.23,324.25c-3.04-3.75,9.73-9.28,20.54-15.12C514.77,316.55,505.16,317.68,500.23,324.25z"/>
	<path d="M549.27,277.66c-8.48,2.86-15.53,7.87-21.97,14.1C532.82,284.31,540.07,279.4,549.27,277.66z"/>
	<path d="M528.02,232.92c7.05,1.53,14.3,2.25,21.15,4.9C541.81,237.1,534.66,235.88,528.02,232.92z"/>
	<path d="M512.49,263.26c3.68-3.58,9.09-3.88,12.16-0.72C520.25,262.44,516.27,262.03,512.49,263.26z"/>
	<path d="M528.46,201.05c0.34-1,4.71,5.32,4.16,8.37C530.31,206.9,527.05,205.19,528.46,201.05z"/>
	<path d="M515.04,248.04c-0.82-3.78,0.61-6.74,0.61-10.11C517.8,242.42,517.8,245.07,515.04,248.04z"/>
	<path d="M507.59,288.8c0.61-3.78,2.86-6.44,5.93-8.58C511.57,283.08,510.55,286.55,507.59,288.8z"/>
	<path d="M547.12,243.54c-4.19-0.41-8.38-0.31-12.16-2.55C548.5,242.68,547.51,242.39,547.12,243.54z"/>
	<path d="M522.81,211.36c-0.92-2.15-2.55-4.29-1.12-6.85C523.22,206.56,523.01,209.01,522.81,211.36z"/>
	<path d="M552.84,265.4c2.35,0.61,4.9,0.82,6.95,2.35C557.14,267.96,554.79,267.45,552.84,265.4z"/>
	<path d="M538.64,266.32c1.94-1.33,4.29-1.33,6.54-1.33C543.24,266.94,540.79,266.32,538.64,266.32z"/>
	<path d="M509.53,201.65c0.72,1.63,0.41,3.17-0.2,4.8C508.81,204.82,507.79,203.08,509.53,201.65z"/>
	<path d="M536.8,200.22c-0.92-1.33-1.94-2.45-1.43-4.5C537.62,197.46,537.62,197.46,536.8,200.22z"/>
	<path d="M515.66,221.06c1.02,2.04,0.92,3.47-0.2,5.41C514.74,224.44,514.74,223.01,515.66,221.06z"/>
	<path d="M515.35,227.71c1.63,1.74,1.74,2.86,0.51,4.29C514.63,230.87,514.74,229.65,515.35,227.71z"/>
	<path d="M516.17,233.32c1.02,1.02,1.74,1.94,0.51,3.78C515.35,235.67,515.25,234.65,516.17,233.32z"/>
	<path d="M547.94,265.4c1.63-0.51,3.27-0.82,4.9,0.1C551.21,265.92,549.58,265.71,547.94,265.4z"/>
	<path d="M594.94,333.14c-0.61-0.92-0.72-1.63-0.2-2.66C595.35,331.51,595.45,332.22,594.94,333.14z"/>
	<path d="M608.22,334.78c-0.31-0.72-1.33-0.92-0.72-2.25C608.73,332.94,609.04,333.65,608.22,334.78z"/>
	<path d="M683.62,384.63c4.23-10.35,2.03-8.4,4.09-24.21c1.16-8.9,5.65,11.68-5.21,28.71C682.19,387.49,682.99,386.16,683.62,384.63
		z"/>
	<path d="M681.57,452.47c0.28,1.07-0.4,13.28-0.41,13.38C679.29,465.86,680.02,465.86,681.57,452.47z"/>
	<path d="M681.06,392.09c-0.1,2.35-1.23,3.98-2.55,5.41C678.92,395.77,678.41,393.42,681.06,392.09z"/>
	<path d="M690.16,350.61c1.12,1.43,1.12,1.43,0.31,2.76C689.95,352.45,689.75,351.53,690.16,350.61z"/>
	<path d="M682.39,446.75c-0.1-0.92,0.2-1.63,0.82-3.17C683.21,446.85,683.21,446.96,682.39,446.75z"/>
	<path d="M672.18,407.31c-0.21-1.9,2.47-1.75,1.23-0.51C673.2,407.31,672.89,407.83,672.18,407.31z"/>
	<path d="M676.16,401.7c-0.43-0.87-0.12-1.75,0.82-1.12C676.98,400.98,676.88,401.49,676.16,401.7z"/>
	<path d="M610.77,383.51c-0.08-0.82,0.1-1.74,1.74-1.74C613.65,397.29,614.4,418.98,610.77,383.51z"/>
	<path d="M613.94,487.52c0.72-6.95,0.1-13.59-0.1-20.23C616.19,469.53,616.19,484.65,613.94,487.52z"/>
	<path d="M609.85,433.06c-0.2-7.66,1.33-15.12,2.04-22.68C612.41,418.04,610.57,425.5,609.85,433.06z"/>
	<path d="M610.26,364.51c2.25,2.86,2.96,11.75,1.23,15.12C611.59,374.72,609.34,370.02,610.26,364.51z"/>
	<path d="M601.58,412.32c-1.33-2.25-1.33-11.03,0-13.59C601.58,403.23,601.58,407.83,601.58,412.32z"/>
	<path d="M601.68,382.9c0,3.98,0,7.87,0,11.75C599.74,388.41,599.84,384.12,601.68,382.9z"/>
	<path d="M614.86,463.3c-1.33-3.27-3.58-5.93-3.68-10.01C613.74,456.05,615.27,460.44,614.86,463.3z"/>
	<path d="M601.68,369.31c0.51,2.35,1.23,4.7-0.72,7.46C599.94,373.6,601.37,371.56,601.68,369.31z"/>
	<path d="M608.53,476.79c-0.82-1.53-1.43-3.07-0.1-5.31C608.83,473.72,609.75,475.15,608.53,476.79z"/>
	<path d="M639.18,354.6c-0.41-1.53-1.33-2.35-0.1-4.19C639.79,352.04,640.2,353.06,639.18,354.6z"/>
	<path d="M607.2,469.53c-0.1-1.43-0.1-2.86-0.2-4.29C608.22,467.49,608.22,467.49,607.2,469.53z"/>
	<path d="M600.97,421.21c-0.51-1.02-0.61-2.04,0.41-3.37C601.88,419.37,601.37,420.29,600.97,421.21z"/>
	<path d="M542.63,314.65c-1.04,0.69-1.88-1.1,1.33-2.45c11.83-5.01,23.65,15.96,26.87,30.24c1.34,5.95,1.79,35.93-2.04-0.2
		c-1.12-10.52-6.73-18.6-13.69-25.95C551.32,312.3,547.53,312.1,542.63,314.65z"/>
	<path d="M578.59,372.48c0.41-3.07,0.72-6.23,2.15-9.09C581.35,366.65,580.12,369.61,578.59,372.48z"/>
	<path d="M579.41,339.37c-1.23-2.04-2.45-4.09-1.63-6.54C578.9,334.88,579.82,336.92,579.41,339.37z"/>
	<path d="M570.72,364.4c0.1,1.02,0.31,2.04-0.92,2.96C569.8,366.04,569.4,365.02,570.72,364.4z"/>
	<path d="M654.6,515.61c-8.17,3.37-13.08,4.09-16.35,2.25C641.73,514.08,650.82,512.95,654.6,515.61z"/>
	<path d="M610.26,512.75c4.27-0.68,6.36,4.72,3.47,7.25c-2.77,2.43-5.11,0.41-7.66-0.82C606.69,516.43,606.48,513.36,610.26,512.75z
		 M610.26,518.06c-0.81,1.62,0.64,1.75,1.63,0.92c3.03-2.53-0.14-6.74-3.17-3.17C608.83,517.14,610.47,516.33,610.26,518.06z"/>
	<path d="M625.38,522.15c-0.92-1.23-1.01-2.84,0.51-3.88c2.17-1.5,3.98,0,6.03,0.82c-0.82,2.66-1.02,5.31-2.76,7.36
		c-1.74-0.82,0-2.15-0.92-2.76c-1.74-0.92-2.55,2.35-4.39,0.92C623.85,523.48,625.08,523.38,625.38,522.15z M629.37,521.84
		c0.31-2.55-0.92-2.45-2.45-2.04C626.51,521.64,627.84,521.54,629.37,521.84z"/>
	<path d="M619.76,515.41c5.62,0.12,5.59,8.61-0.1,8.38C613.9,523.54,614.3,515.29,619.76,515.41z M619.66,522.05
		c2.53-0.18,3.41-4.26,0.41-5.01C616.4,517.5,616.98,522.24,619.66,522.05z"/>
	<path d="M649.19,527.16c3.58-3.17,7.66-5.01,12.36-5.11C657.97,525.21,654.3,528.08,649.19,527.16z"/>
	<path d="M661.96,526.03c-2.15,1.53-3.47,3.58-6.74,2.25C657.26,526.34,659.1,525.83,661.96,526.03z"/>
	<path d="M824,301.57c3.96-23.42,43.49-18.57,39.85,23.91c-0.61,7.07-4.47,8.83-3.07,6.03c5.74-18.35-4.05-40.87-16.65-42.19
		C828.46,287.66,827.85,297.72,824,301.57z"/>
	<path d="M860.37,288.39c7.05,5.01,9.09,12.77,10.83,20.64C867.93,301.98,866.7,293.81,860.37,288.39z"/>
	<path d="M872.22,315.98c1.53,3.58,0.82,7.05-0.51,10.42C872.32,323.03,871.71,319.45,872.22,315.98z"/>
	<path d="M866.91,337.84c0.61-2.45,1.94-4.6,3.37-6.54C869.77,333.86,868.85,336.1,866.91,337.84z"/>
	<path d="M859.96,344.89c1.12-0.82,2.35-1.63,3.47-2.45C862.82,344.07,861.59,344.89,859.96,344.89z"/>
	<path d="M823.18,304.23c0.61,1.02,0.41,1.74,0,2.45C822.46,305.86,822.67,305.15,823.18,304.23z"/>
	<path d="M859.45,334.57c-0.2,0.92-0.31,1.43-0.92,1.33C858.32,335.29,858.53,334.88,859.45,334.57z"/>
	<path d="M701.8,315.06c-1.24-1.21-1.74-2.76-0.72-5.01c2.45,3.78,6.33,6.23,5.82,11.24C705.07,319.25,703.72,316.92,701.8,315.06z"
		/>
	<path d="M682.7,309.75c3.17,0.41,5.82-1.33,8.99-1.43C688.22,311.89,684.95,312.5,682.7,309.75z"/>
	<path d="M696.18,293.91c1.84,3.17,1.53,6.44,0.51,9.81C697.64,299.2,693.89,295.06,696.18,293.91z"/>
	<path d="M702.21,304.43c0.41,1.53-0.41,2.55-1.23,4.39C700.78,305.66,700.78,305.66,702.21,304.43z"/>
	<path d="M456.6,366.04c-0.41-1.02,0-1.33,0.72-1.53C457.73,365.43,457.22,365.63,456.6,366.04z"/>
	<path d="M597.29,240.78c0.72-0.72,1.23-0.41,1.74,0.31C598.1,241.7,597.59,241.6,597.29,240.78z"/>
<path fill="#e6e6e6" d="m206.8 163.6c0-5.1 4.1-9.2 9.3-9.2s9.2 4.2 9.2 9.2-4.1 9.2-9.3 9.2-9.2-4.1-9.2-9.2zm17.3-.1c0-4.5-3.5-8.2-8.2-8.2s-8.2 3.7-8.2 8.3c0 4.5 3.5 8.2 8.2 8.2s8.2-3.7 8.2-8.3zm-13 0c0-2.8 2.1-5.1 5.1-5.1 1.9 0 2.9.6 3.9 1.5l-1.4 1.7c-.8-.7-1.5-1.1-2.5-1.1-1.7 0-2.8 1.4-2.8 3.1s1.1 3 2.8 3c1.1 0 1.7-.5 2.5-1.1l1.4 1.4c-1.1 1.1-2.1 1.7-4 1.7-2.9 0-5-2.3-5-5.1z"/><path fill="#e6e6e6" d="m226.6 154.7h3.4l4.2 13.2 4.4-13.3h2.6l4.4 13.3 4.2-13.2h3.3l-6.2 18h-2.7l-4.4-12.8-4.4 12.8h-2.7z"/><path fill="#e6e6e6" d="m252.8 165.8c0-3.9 3.1-7 7.2-7 4.2 0 7.2 3.2 7.2 7s-3.1 7-7.3 7c-4 0-7.1-3.1-7.1-7zm11.3 0c0-2.3-1.7-4.3-4.2-4.3s-4.1 2-4.1 4.3 1.7 4.3 4.1 4.3c2.7.1 4.2-1.9 4.2-4.3z"/><path fill="#e6e6e6" d="m269.5 159.1h3.1v3c.8-2 2.4-3.4 4.8-3.3v3.2h-.2c-2.7 0-4.6 1.7-4.6 5.4v5.1h-3.1z"/><path fill="#e6e6e6" d="m279.1 153.9h3.1v11.1l5.6-6h3.8l-5.4 5.5 5.5 8h-3.5l-4.1-5.8-1.9 2v3.9h-3.1z"/><path fill="#e6e6e6" d="m291.7 165.8c0-3.9 3.1-7 7.2-7 4.2 0 7.2 3.2 7.2 7s-3.1 7-7.3 7c-4 0-7.1-3.1-7.1-7zm11.3 0c0-2.3-1.7-4.3-4.2-4.3s-4.1 2-4.1 4.3 1.7 4.3 4.1 4.3c2.6.1 4.2-1.9 4.2-4.3z"/><path fill="#e6e6e6" d="m308.2 167.6v-8.6h3.1v7.6c0 2.1 1.1 3.3 2.9 3.3s3-1.3 3-3.3v-7.6h3.1v13.4h-3.1v-2.1c-.8 1.3-2.1 2.3-4.2 2.3-3.1.2-4.8-1.8-4.8-5z"/><path fill="#e6e6e6" d="m323.9 168.8v-7.1h-1.7v-2.6h1.7v-3.7h3.1v3.7h3.6v2.6h-3.6v6.6c0 1.2.6 1.7 1.7 1.7.7 0 1.3-.2 1.9-.5v2.5c-.8.5-1.7.7-2.8.7-2.3 0-3.9-.9-3.9-3.9z"/><path fill="#e6e6e6" d="m333.2 154.7h3.2v15h9.4v2.9h-12.5v-17.9z"/><path fill="#e6e6e6" d="m356 172.5v-1.7c-.9 1.1-2.3 2-4.4 2-2.6 0-4.8-1.4-4.8-4.2 0-3 2.3-4.4 5.4-4.4 1.7 0 2.6.2 3.7.5v-.2c0-1.9-1.2-2.9-3.3-2.9-1.5 0-2.6.3-3.9.8l-.8-2.5c1.5-.7 2.9-1.1 5.1-1.1 4 0 5.9 2.1 5.9 5.7v8zm.1-5.6c-.8-.3-1.9-.5-3.1-.5-2 0-3.1.8-3.1 2.1s1.1 2 2.6 2c2 0 3.5-1.1 3.5-2.9z"/><path fill="#e6e6e6" d="m364.9 170.5v2.1h-3.1v-18.7h3.1v7.4c1-1.4 2.4-2.5 4.5-2.5 3.2 0 6.3 2.5 6.3 7s-3.1 7-6.3 7c-2.1 0-3.5-1.1-4.5-2.3zm7.7-4.7c0-2.6-1.7-4.3-3.9-4.3s-3.9 1.7-3.9 4.4c0 2.6 1.8 4.3 3.9 4.3s3.9-1.7 3.9-4.4z"/><path fill="#e6e6e6" d="m376.9 170.8 1.4-2.1c1.4 1.1 3 1.7 4.4 1.7s2.1-.5 2.1-1.5-1.3-1.4-2.8-1.8c-.1 0-.2-.1-.2-.1-2-.6-4.2-1.4-4.2-4s2.1-4.1 4.8-4.1c1.7 0 3.5.6 5 1.5l-1.2 2.2c-1.3-.8-2.6-1.3-3.8-1.3s-1.9.5-1.9 1.4 1.3 1.4 2.8 1.8c.1 0 .2.1.2.1 2 .6 4.2 1.5 4.2 4 0 2.9-2.2 4.2-5 4.2-1.9 0-4-.7-5.8-2z"/><path fill="#e6e6e6" d="m505.6 163.6c0-5.1 4.1-9.2 9.3-9.2s9.2 4.2 9.2 9.2-4.1 9.2-9.3 9.2-9.2-4.1-9.2-9.2zm17.4-.1c0-4.5-3.5-8.2-8.2-8.2s-8.2 3.7-8.2 8.3c0 4.5 3.5 8.2 8.2 8.2s8.2-3.7 8.2-8.3zm-13.1 0c0-2.8 2.1-5.1 5.1-5.1 1.9 0 2.9.6 3.9 1.5l-1.4 1.7c-.8-.7-1.5-1.1-2.5-1.1-1.7 0-2.8 1.4-2.8 3.1s1.1 3 2.8 3c1.1 0 1.7-.5 2.5-1.1l1.4 1.4c-1.1 1.1-2.1 1.7-4 1.7-2.9 0-5-2.3-5-5.1z"/><path fill="#e6e6e6" d="m525.4 154.7h3.4l4.2 13.2 4.4-13.3h2.6l4.4 13.3 4.2-13.2h3.3l-6.2 18h-2.7l-4.4-12.8-4.4 12.8h-2.7z"/><path fill="#e6e6e6" d="m551.7 165.8c0-3.9 3.1-7 7.2-7 4.2 0 7.2 3.2 7.2 7s-3.1 7-7.3 7c-4.1 0-7.1-3.1-7.1-7zm11.2 0c0-2.3-1.7-4.3-4.2-4.3s-4.1 2-4.1 4.3 1.7 4.3 4.1 4.3c2.7.1 4.2-1.9 4.2-4.3z"/><path fill="#e6e6e6" d="m568.3 159.1h3.1v3c.8-2 2.4-3.4 4.8-3.3v3.2h-.2c-2.7 0-4.6 1.7-4.6 5.4v5.1h-3.1z"/><path fill="#e6e6e6" d="m577.9 153.9h3.1v11.1l5.6-6h3.8l-5.4 5.5 5.5 8h-3.5l-4.1-5.8-1.9 2v3.9h-3.1z"/><path fill="#e6e6e6" d="m590.6 165.8c0-3.9 3.1-7 7.2-7 4.2 0 7.2 3.2 7.2 7s-3.1 7-7.3 7c-4.1 0-7.1-3.1-7.1-7zm11.2 0c0-2.3-1.7-4.3-4.2-4.3s-4.1 2-4.1 4.3 1.7 4.3 4.1 4.3c2.6.1 4.2-1.9 4.2-4.3z"/><path fill="#e6e6e6" d="m607 167.6v-8.6h3.1v7.6c0 2.1 1.1 3.3 2.9 3.3s3-1.3 3-3.3v-7.6h3.1v13.4h-3.1v-2.1c-.8 1.3-2.1 2.3-4.2 2.3-3 .2-4.8-1.8-4.8-5z"/><path fill="#e6e6e6" d="m622.7 168.8v-7.1h-1.7v-2.6h1.7v-3.7h3.1v3.7h3.6v2.6h-3.6v6.6c0 1.2.6 1.7 1.7 1.7.7 0 1.3-.2 1.9-.5v2.5c-.8.5-1.7.7-2.8.7-2.3 0-3.9-.9-3.9-3.9z"/><path fill="#e6e6e6" d="m632 154.7h3.2v15h9.4v2.9h-12.6z"/><path fill="#e6e6e6" d="m654.8 172.5v-1.7c-.9 1.1-2.3 2-4.4 2-2.6 0-4.8-1.4-4.8-4.2 0-3 2.3-4.4 5.4-4.4 1.7 0 2.6.2 3.7.5v-.2c0-1.9-1.2-2.9-3.3-2.9-1.5 0-2.6.3-3.9.8l-.8-2.5c1.5-.7 2.9-1.1 5.1-1.1 4 0 5.9 2.1 5.9 5.7v8zm.1-5.6c-.8-.3-1.9-.5-3.1-.5-2 0-3.1.8-3.1 2.1s1.1 2 2.6 2c2 0 3.5-1.1 3.5-2.9z"/><path fill="#e6e6e6" d="m663.7 170.5v2.1h-3.1v-18.7h3.1v7.4c1-1.4 2.4-2.5 4.5-2.5 3.2 0 6.3 2.5 6.3 7s-3.1 7-6.3 7c-2.1 0-3.5-1.1-4.5-2.3zm7.8-4.7c0-2.6-1.7-4.3-3.9-4.3-2.1 0-3.9 1.7-3.9 4.4 0 2.6 1.8 4.3 3.9 4.3s3.9-1.7 3.9-4.4z"/><path fill="#e6e6e6" d="m675.8 170.8 1.4-2.1c1.4 1.1 3 1.7 4.4 1.7s2.1-.5 2.1-1.5-1.3-1.4-2.8-1.8c-.1 0-.2-.1-.2-.1-2-.6-4.2-1.4-4.2-4s2.1-4.1 4.8-4.1c1.7 0 3.5.6 5 1.5l-1.2 2.2c-1.3-.8-2.6-1.3-3.8-1.3s-1.9.5-1.9 1.4 1.3 1.4 2.8 1.8c.1 0 .2.1.2.1 2 .6 4.2 1.5 4.2 4 0 2.9-2.2 4.2-5 4.2-2 0-4.1-.7-5.8-2z"/><path fill="#e6e6e6" d="m61 298.6c0-5.1 4.1-9.2 9.3-9.2s9.2 4.2 9.2 9.2-4.1 9.2-9.3 9.2c-5.1 0-9.2-4.2-9.2-9.2zm17.4-.1c0-4.5-3.5-8.2-8.2-8.2s-8.2 3.7-8.2 8.3c0 4.5 3.5 8.2 8.2 8.2s8.2-3.7 8.2-8.3zm-13.1-.1c0-2.8 2.1-5.1 5.1-5.1 1.9 0 2.9.6 3.9 1.5l-1.4 1.7c-.8-.7-1.5-1.1-2.5-1.1-1.7 0-2.8 1.4-2.8 3.1s1.1 3 2.8 3c1.1 0 1.7-.5 2.5-1.1l1.4 1.4c-1.1 1.1-2.1 1.7-4 1.7-2.8.1-5-2.2-5-5.1z"/><path fill="#e6e6e6" d="m80.9 289.7h3.4l4.2 13.2 4.4-13.3h2.6l4.4 13.3 4.2-13.2h3.3l-6.2 18h-2.7l-4.4-12.8-4.4 12.8h-2.7z"/><path fill="#e6e6e6" d="m107.1 300.8c0-3.9 3.1-7 7.2-7s7.2 3.2 7.2 7-3.1 7-7.3 7c-4 0-7.1-3.1-7.1-7zm11.3 0c0-2.3-1.7-4.3-4.2-4.3s-4.1 2-4.1 4.3 1.7 4.3 4.1 4.3c2.6.1 4.2-1.9 4.2-4.3z"/><path fill="#e6e6e6" d="m123.7 294h3.1v3c.8-2 2.4-3.4 4.8-3.3v3.2h-.2c-2.7 0-4.6 1.7-4.6 5.4v5.1h-3.1z"/><path fill="#e6e6e6" d="m133.4 288.9h3.1v11.1l5.6-6h3.8l-5.4 5.5 5.5 8h-3.5l-4.1-5.8-1.9 1.9v3.9h-3.1z"/><path fill="#e6e6e6" d="m146 300.8c0-3.9 3.1-7 7.2-7s7.2 3.2 7.2 7-3.1 7-7.3 7c-4.1 0-7.1-3.1-7.1-7zm11.2 0c0-2.3-1.7-4.3-4.2-4.3s-4.1 2-4.1 4.3 1.7 4.3 4.1 4.3c2.6.1 4.2-1.9 4.2-4.3z"/><path fill="#e6e6e6" d="m162.4 302.6v-8.6h3.1v7.6c0 2.1 1.1 3.3 2.9 3.3s3-1.3 3-3.3v-7.6h3.1v13.4h-3.1v-2.1c-.8 1.3-2.1 2.3-4.2 2.3-3 .2-4.8-1.8-4.8-5z"/><path fill="#e6e6e6" d="m178.1 303.8v-7.1h-1.7v-2.7h1.7v-3.7h3.1v3.7h3.6v2.6h-3.6v6.6c0 1.2.6 1.7 1.7 1.7.7 0 1.3-.2 1.9-.5v2.5c-.8.5-1.7.7-2.8.7-2.3.1-3.9-.9-3.9-3.8z"/><path fill="#e6e6e6" d="m187.4 289.7h3.2v15h9.4v2.9h-12.5v-17.9z"/><path fill="#e6e6e6" d="m210.2 307.5v-1.7c-.9 1.1-2.3 2-4.4 2-2.6 0-4.8-1.4-4.8-4.2 0-3 2.3-4.4 5.4-4.4 1.7 0 2.6.2 3.7.5v-.2c0-1.9-1.2-2.9-3.3-2.9-1.5 0-2.6.3-3.9.8l-.8-2.5c1.5-.7 2.9-1.1 5.1-1.1 4 0 5.9 2.1 5.9 5.7v8zm.1-5.6c-.8-.3-1.9-.5-3.1-.5-2 0-3.1.8-3.1 2.1s1.1 2 2.6 2c2 0 3.5-1.1 3.5-2.9z"/><path fill="#e6e6e6" d="m219.2 305.5v2.1h-3.1v-18.7h3.1v7.4c1-1.4 2.4-2.5 4.5-2.5 3.2 0 6.3 2.5 6.3 7s-3.1 7-6.3 7c-2.2 0-3.6-1.1-4.5-2.3zm7.7-4.7c0-2.6-1.7-4.3-3.9-4.3s-3.9 1.7-3.9 4.4c0 2.6 1.8 4.3 3.9 4.3s3.9-1.7 3.9-4.4z"/><path fill="#e6e6e6" d="m231.2 305.8 1.4-2.1c1.4 1.1 3 1.7 4.4 1.7s2.1-.5 2.1-1.5-1.3-1.4-2.8-1.8c-.1 0-.2-.1-.2-.1-2-.6-4.2-1.4-4.2-4s2.1-4.1 4.8-4.1c1.7 0 3.5.6 5 1.5l-1.2 2.2c-1.3-.8-2.6-1.3-3.8-1.3s-1.9.5-1.9 1.4 1.3 1.4 2.8 1.8c.1 0 .2.1.2.1 2 .6 4.2 1.5 4.2 4 0 2.9-2.2 4.2-5 4.2-2 0-4.1-.7-5.8-2z"/><path fill="#e6e6e6" d="m360.6 298.6c0-5.1 4.1-9.2 9.3-9.2s9.2 4.2 9.2 9.2-4.1 9.2-9.3 9.2-9.2-4.2-9.2-9.2zm17.4-.1c0-4.5-3.5-8.2-8.2-8.2s-8.2 3.7-8.2 8.3c0 4.5 3.5 8.2 8.2 8.2s8.2-3.7 8.2-8.3zm-13.1-.1c0-2.8 2.1-5.1 5.1-5.1 1.9 0 2.9.6 3.9 1.5l-1.4 1.7c-.8-.7-1.5-1.1-2.5-1.1-1.7 0-2.8 1.4-2.8 3.1s1.1 3 2.8 3c1.1 0 1.7-.5 2.5-1.1l1.4 1.4c-1.1 1.1-2.1 1.7-4 1.7-2.8.1-5-2.2-5-5.1z"/><path fill="#e6e6e6" d="m380.5 289.7h3.4l4.2 13.2 4.4-13.3h2.6l4.4 13.3 4.2-13.2h3.3l-6.2 18h-2.7l-4.4-12.8-4.4 12.8h-2.7z"/><path fill="#e6e6e6" d="m406.7 300.8c0-3.9 3.1-7 7.2-7 4.2 0 7.2 3.2 7.2 7s-3.1 7-7.3 7c-4.1 0-7.1-3.1-7.1-7zm11.3 0c0-2.3-1.7-4.3-4.2-4.3s-4.1 2-4.1 4.3 1.7 4.3 4.1 4.3c2.7.1 4.2-1.9 4.2-4.3z"/><path fill="#e6e6e6" d="m423.3 294h3.1v3c.8-2 2.4-3.4 4.8-3.3v3.2h-.2c-2.7 0-4.6 1.7-4.6 5.4v5.1h-3.1z"/><path fill="#e6e6e6" d="m433 288.9h3.1v11.1l5.6-6h3.8l-5.4 5.5 5.5 8h-3.5l-4.1-5.8-1.9 2v3.9h-3.1z"/><path fill="#e6e6e6" d="m445.6 300.8c0-3.9 3.1-7 7.2-7 4.2 0 7.2 3.2 7.2 7s-3.1 7-7.3 7c-4.1 0-7.1-3.1-7.1-7zm11.3 0c0-2.3-1.7-4.3-4.2-4.3s-4.1 2-4.1 4.3 1.7 4.3 4.1 4.3c2.6.1 4.2-1.9 4.2-4.3z"/><path fill="#e6e6e6" d="m462.1 302.6v-8.6h3.1v7.6c0 2.1 1.1 3.3 2.9 3.3s3-1.3 3-3.3v-7.6h3.1v13.4h-3.1v-2.1c-.8 1.3-2.1 2.3-4.2 2.3-3.1.2-4.8-1.8-4.8-5z"/><path fill="#e6e6e6" d="m477.8 303.8v-7.1h-1.8v-2.7h1.7v-3.7h3.1v3.7h3.6v2.6h-3.6v6.6c0 1.2.6 1.7 1.7 1.7.7 0 1.3-.2 1.9-.5v2.5c-.8.5-1.7.7-2.8.7-2.2.1-3.8-.9-3.8-3.8z"/><path fill="#e6e6e6" d="m487.1 289.7h3.2v15h9.4v2.9h-12.5v-17.9z"/><path fill="#e6e6e6" d="m509.9 307.5v-1.7c-.9 1.1-2.3 2-4.4 2-2.6 0-4.8-1.4-4.8-4.2 0-3 2.3-4.4 5.4-4.4 1.7 0 2.6.2 3.7.5v-.2c0-1.9-1.2-2.9-3.3-2.9-1.5 0-2.6.3-3.9.8l-.8-2.5c1.5-.7 2.9-1.1 5.1-1.1 4 0 5.9 2.1 5.9 5.7v8zm.1-5.6c-.8-.3-1.9-.5-3.1-.5-2 0-3.1.8-3.1 2.1s1.1 2 2.6 2c2 0 3.5-1.1 3.5-2.9z"/><path fill="#e6e6e6" d="m518.8 305.5v2.1h-3.1v-18.7h3.1v7.4c1-1.4 2.4-2.5 4.5-2.5 3.2 0 6.3 2.5 6.3 7s-3.1 7-6.3 7c-2.2 0-3.5-1.1-4.5-2.3zm7.7-4.7c0-2.6-1.7-4.3-3.9-4.3s-3.9 1.7-3.9 4.4c0 2.6 1.8 4.3 3.9 4.3s3.9-1.7 3.9-4.4z"/><path fill="#e6e6e6" d="m530.8 305.8 1.4-2.1c1.4 1.1 3 1.7 4.4 1.7s2.1-.5 2.1-1.5-1.3-1.4-2.8-1.8c-.1 0-.2-.1-.2-.1-2-.6-4.2-1.4-4.2-4s2.1-4.1 4.8-4.1c1.7 0 3.5.6 5 1.5l-1.2 2.2c-1.3-.8-2.6-1.3-3.8-1.3s-1.9.5-1.9 1.4 1.3 1.4 2.8 1.8c.1 0 .2.1.2.1 2 .6 4.2 1.5 4.2 4 0 2.9-2.2 4.2-5 4.2-1.9 0-4.1-.7-5.8-2z"/><path fill="#e6e6e6" d="m659.5 298.6c0-5.1 4.1-9.2 9.3-9.2s9.2 4.2 9.2 9.2-4.1 9.2-9.3 9.2-9.2-4.2-9.2-9.2zm17.3-.1c0-4.5-3.5-8.2-8.2-8.2s-8.2 3.7-8.2 8.3c0 4.5 3.5 8.2 8.2 8.2 4.8 0 8.2-3.7 8.2-8.3zm-13-.1c0-2.8 2.1-5.1 5.1-5.1 1.9 0 2.9.6 3.9 1.5l-1.4 1.7c-.8-.7-1.5-1.1-2.5-1.1-1.7 0-2.8 1.4-2.8 3.1s1.1 3 2.8 3c1.1 0 1.7-.5 2.5-1.1l1.4 1.4c-1.1 1.1-2.1 1.7-4 1.7-2.9.1-5-2.2-5-5.1z"/><path fill="#e6e6e6" d="m679.3 289.7h3.4l4.2 13.2 4.4-13.3h2.6l4.4 13.3 4.2-13.2h3.3l-6.2 18h-2.6l-4.4-12.8-4.4 12.8h-2.7z"/><path fill="#e6e6e6" d="m705.5 300.8c0-3.9 3.1-7 7.2-7 4.2 0 7.2 3.2 7.2 7s-3.1 7-7.3 7c-4 0-7.1-3.1-7.1-7zm11.3 0c0-2.3-1.7-4.3-4.2-4.3s-4.1 2-4.1 4.3 1.7 4.3 4.1 4.3c2.7.1 4.2-1.9 4.2-4.3z"/><path fill="#e6e6e6" d="m722.1 294h3.1v3c.8-2 2.4-3.4 4.8-3.3v3.2h-.2c-2.7 0-4.6 1.7-4.6 5.4v5.1h-3.1z"/><path fill="#e6e6e6" d="m731.8 288.9h3.1v11.1l5.6-6h3.8l-5.4 5.5 5.5 8h-3.5l-4.1-5.8-1.9 2v3.9h-3.1z"/><path fill="#e6e6e6" d="m744.4 300.8c0-3.9 3.1-7 7.2-7 4.2 0 7.2 3.2 7.2 7s-3.1 7-7.3 7c-4.1 0-7.1-3.1-7.1-7zm11.3 0c0-2.3-1.7-4.3-4.2-4.3s-4.1 2-4.1 4.3 1.7 4.3 4.1 4.3c2.6.1 4.2-1.9 4.2-4.3z"/><path fill="#e6e6e6" d="m760.9 302.6v-8.6h3.1v7.6c0 2.1 1.1 3.3 2.9 3.3s3-1.3 3-3.3v-7.6h3.1v13.4h-3.1v-2.1c-.8 1.3-2.1 2.3-4.2 2.3-3.1.2-4.8-1.8-4.8-5z"/><path fill="#e6e6e6" d="m776.6 303.8v-7.1h-1.7v-2.7h1.7v-3.7h3.1v3.7h3.6v2.6h-3.6v6.6c0 1.2.6 1.7 1.7 1.7.7 0 1.3-.2 1.9-.5v2.5c-.8.5-1.7.7-2.8.7-2.3.1-3.9-.9-3.9-3.8z"/><path fill="#e6e6e6" d="m785.9 289.7h3.2v15h9.4v2.9h-12.5v-17.9z"/><path fill="#e6e6e6" d="m808.7 307.5v-1.7c-.9 1.1-2.3 2-4.4 2-2.6 0-4.8-1.4-4.8-4.2 0-3 2.3-4.4 5.4-4.4 1.7 0 2.6.2 3.7.5v-.2c0-1.9-1.2-2.9-3.3-2.9-1.5 0-2.6.3-3.9.8l-.8-2.5c1.5-.7 2.9-1.1 5.1-1.1 4 0 5.9 2.1 5.9 5.7v8zm.1-5.6c-.8-.3-1.9-.5-3.1-.5-2 0-3.1.8-3.1 2.1s1.1 2 2.6 2c2 0 3.5-1.1 3.5-2.9z"/><path fill="#e6e6e6" d="m817.6 305.5v2.1h-3.1v-18.7h3.1v7.4c1-1.4 2.4-2.5 4.5-2.5 3.2 0 6.3 2.5 6.3 7s-3.1 7-6.3 7c-2.1 0-3.5-1.1-4.5-2.3zm7.7-4.7c0-2.6-1.7-4.3-3.9-4.3-2.1 0-3.9 1.7-3.9 4.4 0 2.6 1.8 4.3 3.9 4.3 2.2 0 3.9-1.7 3.9-4.4z"/><path fill="#e6e6e6" d="m829.6 305.8 1.4-2.1c1.4 1.1 3 1.7 4.4 1.7s2.1-.5 2.1-1.5-1.3-1.4-2.8-1.8c-.1 0-.2-.1-.2-.1-2-.6-4.2-1.4-4.2-4s2.1-4.1 4.8-4.1c1.7 0 3.5.6 5 1.5l-1.2 2.2c-1.3-.8-2.6-1.3-3.8-1.3s-1.9.5-1.9 1.4 1.3 1.4 2.8 1.8c.1 0 .2.1.2.1 2 .6 4.2 1.5 4.2 4 0 2.9-2.2 4.2-5 4.2-1.9 0-4-.7-5.8-2z"/><path fill="#e6e6e6" d="m206.3 434.2c0-5.1 4.1-9.2 9.3-9.2s9.2 4.2 9.2 9.2-4.1 9.2-9.3 9.2-9.2-4.1-9.2-9.2zm17.4-.1c0-4.5-3.5-8.2-8.2-8.2s-8.2 3.7-8.2 8.3c0 4.5 3.5 8.2 8.2 8.2s8.2-3.7 8.2-8.3zm-13.1-.1c0-2.8 2.1-5.1 5.1-5.1 1.9 0 2.9.6 3.9 1.5l-1.4 1.7c-.8-.7-1.5-1.1-2.5-1.1-1.7 0-2.8 1.4-2.8 3.1s1.1 3 2.8 3c1.1 0 1.7-.5 2.5-1.1l1.4 1.4c-1.1 1.1-2.1 1.7-4 1.7-2.9.1-5-2.2-5-5.1z"/><path fill="#e6e6e6" d="m226.1 425.3h3.4l4.2 13.2 4.4-13.3h2.6l4.4 13.3 4.2-13.2h3.3l-6.2 18h-2.7l-4.4-12.8-4.4 12.8h-2.7z"/><path fill="#e6e6e6" d="m252.4 436.4c0-3.9 3.1-7 7.2-7 4.2 0 7.2 3.2 7.2 7s-3.1 7-7.3 7c-4.1 0-7.1-3.1-7.1-7zm11.2 0c0-2.3-1.7-4.3-4.2-4.3s-4.1 2-4.1 4.3 1.7 4.3 4.1 4.3c2.7.1 4.2-1.9 4.2-4.3z"/><path fill="#e6e6e6" d="m269 429.7h3.1v3c.8-2 2.4-3.4 4.8-3.3v3.2h-.2c-2.7 0-4.6 1.7-4.6 5.4v5.1h-3.1z"/><path fill="#e6e6e6" d="m278.6 424.5h3.1v11.1l5.6-6h3.8l-5.4 5.5 5.5 8h-3.5l-4.1-5.8-1.9 2v3.9h-3.1z"/><path fill="#e6e6e6" d="m291.3 436.4c0-3.9 3.1-7 7.2-7 4.2 0 7.2 3.2 7.2 7s-3.1 7-7.3 7c-4.1 0-7.1-3.1-7.1-7zm11.2 0c0-2.3-1.7-4.3-4.2-4.3s-4.1 2-4.1 4.3 1.7 4.3 4.1 4.3c2.6.1 4.2-1.9 4.2-4.3z"/><path fill="#e6e6e6" d="m307.7 438.2v-8.6h3.1v7.6c0 2.1 1.1 3.3 2.9 3.3s3-1.3 3-3.3v-7.6h3.1v13.4h-3.1v-2.1c-.8 1.3-2.1 2.3-4.2 2.3-3 .2-4.8-1.8-4.8-5z"/><path fill="#e6e6e6" d="m323.4 439.4v-7.1h-1.7v-2.6h1.7v-3.7h3.1v3.7h3.6v2.6h-3.6v6.6c0 1.2.6 1.7 1.7 1.7.7 0 1.3-.2 1.9-.5v2.5c-.8.5-1.7.7-2.8.7-2.3 0-3.9-.9-3.9-3.9z"/><path fill="#e6e6e6" d="m332.7 425.3h3.2v15h9.4v2.9h-12.5v-17.9z"/><path fill="#e6e6e6" d="m355.5 443.1v-1.7c-.9 1.1-2.3 2-4.4 2-2.6 0-4.8-1.4-4.8-4.2 0-3 2.3-4.4 5.4-4.4 1.7 0 2.6.2 3.7.5v-.2c0-1.9-1.2-2.9-3.3-2.9-1.5 0-2.6.3-3.9.8l-.8-2.5c1.5-.7 2.9-1.1 5.1-1.1 4 0 5.9 2.1 5.9 5.7v8zm.1-5.6c-.8-.3-1.9-.5-3.1-.5-2 0-3.1.8-3.1 2.1s1.1 2 2.6 2c2 0 3.5-1.1 3.5-2.9z"/><path fill="#e6e6e6" d="m364.4 441.1v2.1h-3.1v-18.7h3.1v7.4c1-1.4 2.4-2.5 4.5-2.5 3.2 0 6.3 2.5 6.3 7s-3.1 7-6.3 7c-2.1 0-3.5-1.1-4.5-2.3zm7.7-4.7c0-2.6-1.7-4.3-3.9-4.3-2.1 0-3.9 1.7-3.9 4.4 0 2.6 1.8 4.3 3.9 4.3 2.2 0 3.9-1.7 3.9-4.4z"/><path fill="#e6e6e6" d="m376.5 441.4 1.4-2.1c1.4 1.1 3 1.7 4.4 1.7s2.1-.5 2.1-1.5-1.3-1.4-2.8-1.8c-.1 0-.2-.1-.2-.1-2-.6-4.2-1.4-4.2-4s2.1-4.1 4.8-4.1c1.7 0 3.5.6 5 1.5l-1.2 2.2c-1.3-.8-2.6-1.3-3.8-1.3s-1.9.5-1.9 1.4 1.3 1.4 2.8 1.8c.1 0 .2.1.2.1 2 .6 4.2 1.5 4.2 4 0 2.9-2.2 4.2-5 4.2-2 0-4.1-.7-5.8-2z"/><path fill="#e6e6e6" d="m505.1 434.2c0-5.1 4.1-9.2 9.3-9.2s9.2 4.2 9.2 9.2-4.1 9.2-9.3 9.2-9.2-4.1-9.2-9.2zm17.4-.1c0-4.5-3.5-8.2-8.2-8.2s-8.2 3.7-8.2 8.3c0 4.5 3.5 8.2 8.2 8.2s8.2-3.7 8.2-8.3zm-13.1-.1c0-2.8 2.1-5.1 5.1-5.1 1.9 0 2.9.6 3.9 1.5l-1.4 1.7c-.8-.7-1.5-1.1-2.5-1.1-1.7 0-2.8 1.4-2.8 3.1s1.1 3 2.8 3c1.1 0 1.7-.5 2.5-1.1l1.4 1.4c-1.1 1.1-2.1 1.7-4 1.7-2.9.1-5-2.2-5-5.1z"/><path fill="#e6e6e6" d="m525 425.3h3.4l4.2 13.2 4.4-13.3h2.6l4.4 13.3 4.2-13.2h3.3l-6.2 18h-2.7l-4.4-12.8-4.4 12.8h-2.7z"/><path fill="#e6e6e6" d="m551.2 436.4c0-3.9 3.1-7 7.2-7 4.2 0 7.2 3.2 7.2 7s-3.1 7-7.3 7c-4.1 0-7.1-3.1-7.1-7zm11.2 0c0-2.3-1.7-4.3-4.2-4.3s-4.1 2-4.1 4.3 1.7 4.3 4.1 4.3c2.7.1 4.2-1.9 4.2-4.3z"/><path fill="#e6e6e6" d="m567.8 429.7h3.1v3c.8-2 2.4-3.4 4.8-3.3v3.2h-.2c-2.7 0-4.6 1.7-4.6 5.4v5.1h-3.1z"/><path fill="#e6e6e6" d="m577.5 424.5h3.1v11.1l5.6-6h3.8l-5.4 5.5 5.5 8h-3.5l-4.1-5.8-1.9 2v3.9h-3.1z"/><path fill="#e6e6e6" d="m590.1 436.4c0-3.9 3.1-7 7.2-7 4.2 0 7.2 3.2 7.2 7s-3.1 7-7.3 7c-4.1 0-7.1-3.1-7.1-7zm11.2 0c0-2.3-1.7-4.3-4.2-4.3s-4.1 2-4.1 4.3 1.7 4.3 4.1 4.3c2.6.1 4.2-1.9 4.2-4.3z"/><path fill="#e6e6e6" d="m606.5 438.2v-8.6h3.1v7.6c0 2.1 1.1 3.3 2.9 3.3s3-1.3 3-3.3v-7.6h3.1v13.4h-3.1v-2.1c-.8 1.3-2.1 2.3-4.2 2.3-3 .2-4.8-1.8-4.8-5z"/><path fill="#e6e6e6" d="m622.2 439.4v-7.1h-1.7v-2.6h1.7v-3.7h3.1v3.7h3.6v2.6h-3.6v6.6c0 1.2.6 1.7 1.7 1.7.7 0 1.3-.2 1.9-.5v2.5c-.8.5-1.7.7-2.8.7-2.3 0-3.9-.9-3.9-3.9z"/><path fill="#e6e6e6" d="m631.5 425.3h3.2v15h9.4v2.9h-12.5v-17.9z"/><path fill="#e6e6e6" d="m654.3 443.1v-1.7c-.9 1.1-2.3 2-4.4 2-2.6 0-4.8-1.4-4.8-4.2 0-3 2.3-4.4 5.4-4.4 1.7 0 2.6.2 3.7.5v-.2c0-1.9-1.2-2.9-3.3-2.9-1.5 0-2.6.3-3.9.8l-.8-2.5c1.5-.7 2.9-1.1 5.1-1.1 4 0 5.9 2.1 5.9 5.7v8zm.1-5.6c-.8-.3-1.9-.5-3.1-.5-2 0-3.1.8-3.1 2.1s1.1 2 2.6 2c2 0 3.5-1.1 3.5-2.9z"/><path fill="#e6e6e6" d="m663.3 441.1v2.1h-3.1v-18.7h3.1v7.4c1-1.4 2.4-2.5 4.5-2.5 3.2 0 6.3 2.5 6.3 7s-3.1 7-6.3 7c-2.2 0-3.6-1.1-4.5-2.3zm7.7-4.7c0-2.6-1.7-4.3-3.9-4.3s-3.9 1.7-3.9 4.4c0 2.6 1.8 4.3 3.9 4.3s3.9-1.7 3.9-4.4z"/><path fill="#e6e6e6" d="m675.3 441.4 1.4-2.1c1.4 1.1 3 1.7 4.4 1.7s2.1-.5 2.1-1.5-1.3-1.4-2.8-1.8c-.1 0-.2-.1-.2-.1-2-.6-4.2-1.4-4.2-4s2.1-4.1 4.8-4.1c1.7 0 3.5.6 5 1.5l-1.2 2.2c-1.3-.8-2.6-1.3-3.8-1.3s-1.9.5-1.9 1.4 1.3 1.4 2.8 1.8c.1 0 .2.1.2.1 2 .6 4.2 1.5 4.2 4 0 2.9-2.2 4.2-5 4.2-2 0-4.1-.7-5.8-2z"/></g>
</svg>
