<?xml version="1.0" encoding="utf-8"?>
<!-- Generator: Adobe Illustrator 23.0.1, SVG Export Plug-In . SVG Version: 6.00 Build 0)  -->
<svg version="1.2" baseProfile="tiny" id="Layer_1" xmlns="http://www.w3.org/2000/svg" xmlns:xlink="http://www.w3.org/1999/xlink"
	 x="0px" y="0px" viewBox="0 0 900 600" xml:space="preserve">
<g>
	<path d="M5.46,488.47c25.56-7.1,51.43-8.01,77.4-13.69c1.32-2.13,3.58-5.05,5.17-8.32c8.27-16.98,11.86-15.92,17.55-28
		c2.82-5.99,7.97-5.19,12.17-21.3c0.97-5.34,13.31-18.43,17.85-47.57c-1.22-1.83-3.04-2.33-4.77-2.74
		c-6.22-13.58-9.79-22.43-11.06-45.34c-2.26-40.91-7.23-106.48-4.26-117.36c1.84-6.73-8.3-19.33-1.62-43.31
		c3.07-11.03,10.31-11.45,12.98-13.49c8.49-6.48,2.97-3.32,7-15.42c5.27-15.82,14.01-21.46,27.18-26.07
		c0.84-6.74-2.03-3.67-2.03-9.23c0-4.26-0.63-8.2-3.14-11.77c-0.71-1.01-1.43-2.24-0.81-3.65c2.08-4.73-7.98-10.17-2.94-23.03
		c1.79-4.57-0.22-4.88,2.13-9.43c3.26-6.32-1.31-6.49,1.93-6.49c5.05,1.68,1.34,1.55,0.3,5.17c2.94-1.93,5.38-4.56,8.32-1.62
		c1.01-0.81,1.42-1.52,1.22-2.54c-1.32-0.91-2.23,0.8-3.35,0.41c-1.21-0.42-1.52-1.72-2.64-2.23c-1.22,0.2-2.43,0.91-3.85,0.81
		c1.22-2.23,0.51-5.48,2.84-6.8c-0.81-1.52-3.04-1.93-2.94-4.16c3.65-2.03,5.48,1.42,7.61,2.33c5.07-0.71,8.42-3.65,10.96-7.1
		c2.23,0.51,1.01,2.23,1.93,3.85c2.13-3.55,5.17-5.18,9.03-4.97c3.75,0.2,7.51-1.52,11.06-0.2c4.06-1.12,7.71-3.65,11.87-3.04
		c1.22,0.1,0,1.62,1.12,1.52c1.93-1.01,2.64-3.25,4.67-4.77c1.83,2.84,1.12,5.78,1.32,8.52c4.06-3.04,5.07-3.14,7-1.12
		c-0.51,2.23-3.25,2.13-4.16,4.16c2.23,0,4.26-1.42,6.49-0.1c-0.3,1.52-0.71,3.04,0.1,4.46c-2.84,3.25-7.2,4.56-9.03,8.42
		c4.3,24.09,5.74,10.31,2.54,27.39c-2.84,0.51-5.07,2.64-7.71,1.42c-1.42,1.52,0.1,3.45-1.12,5.17c-3.04-8.01-1.01-9.84,8.22-14.61
		c0.1-0.91,0.3-2.03,0.51-3.04c-3.96-4.16-3.25-9.84-4.77-14.81c-2.33,0.2-3.96,2.02-6.19,1.83c-5.88-0.52-11.77-0.91-17.65,0.81
		c-0.3,0.81,1.42,2.84-1.32,2.74c-0.61-4.16-4.36-3.75-6.9-5.38c-1.01,1.01-1.93,1.83-2.33,3.14c1.62-1.32,3.45,0,5.07-0.81
		c0.91,1.72,1.83,3.25,2.54,4.46c-0.41,1.93-2.03,1.62-2.84,2.23c-0.61,0.71,0.61,1.12-0.1,1.72c-1.01,0.51-2.33-0.51-3.55,0.51
		c-0.74,0.74-8.19,16.77-8.72,22.52c-0.15,1.61-1.49,5.54-3.45,5.27c0-3.45-2.06-6.38-2.94-9.74c-0.42-1.62-1.42-2.94-3.55-1.72
		c0.2,2.64,2.64,3.45,3.85,4.87c0,2.54,0,4.77,0,6.8c-1.55,2.59-5.96-0.91-1.52,4.16c0.81,0.41,1.52-1.01,2.43,0.1
		c-3.85,5.38-0.61,11.77-3.14,17.45c2.43,0.41,4.26,0.1,6.09-0.81c-1.32-4.77-2.54-9.53-1.72-14.71
		c5.31,22.55,5.62,11.84,18.36,18.36c9.07-6.12,19.08-8.4,29.01-3.75c2.94-5.68,1.02-11.36,1.83-16.74
		c0.82-5.48,1.32-10.96,0.81-16.53c6.55,11.91,1.06,10.6,1.42,23.63c0.1,3.75-0.41,7.3-1.42,10.85
		c13.73,7.81,20.26,21.03,20.9,36.62c7.1,4.46,11.58,11.15,16.33,17.55c1.22,1.64,2.25,3.34,3.15,5.1
		c-10.28-30.31,13.04-76.07,56.19-56.63c3.15,1.42,5.99,1.84,9.33,1.22c35.81-6.64,53.66,39.76,30.63,66.44
		c-13.18,15.27-24.94,12.76-37.23,11.46c-5.3,14.73-2.47,28.46-10.45,45.65c-5.65,12.18-6.99,32.54-12.38,34.69
		c-3.97,1.59-8.11,3.2-12.58,2.43c-8.02-1.37-13.82,2.15-20.08-5.58c-2.45-3.03-5.38-5.48-9.23-8.01
		c0.91,5.98,0.55,11.25,2.23,16.43c1.25,3.84,2.13,7.91-0.3,12.27c2.64-1.01,4.75-1.96,6.9-2.84c4.71-1.93,12.13,1.6,8.62,7.1
		c-0.59,0.93-1.12,1.72-0.41,2.84c2.43-0.51,4.97-1.11,7,0.2c6.32,4.09,7.26,0.41,9.23,0.41c6.88,0.53,10.09-2.51,12.58,1.22
		c2.99,4.48,7.94,1.87,12.38,5.38c4.4,3.47,20.23,7.1,23.74,11.67c1.1,1.43,2.54,2.52,4.16,3.14c10.9,4.23,20.11,11.6,30.53,16.74
		c1.91,0.94,10.41,9.53,9.23,19.88c-1.06,9.36,8.4,11.92,5.98,26.78c-0.12,0.71-0.3,1.42,0.1,2.03
		c10.19,18.81,5.71,98.35,11.16,117.97c3.55-0.51,7.27-1.71,9.13,2.74c1.4,3.36,2.13,6.69-0.2,10.14
		c13.65,12.43,15.18,20.6,29.72,30.63c4.36,3.01,17.62,5.3,11.97,14.81c-7.87,13.24-44.64,5.19-58.12-0.3
		c-7.08-2.89-13.69-6.9-21.61-6.9c-2.66,0-15.31-6.89-16.23-7.3c-4.46-2.03-5.18-6.03-2.64-10.24c1.83-3.04-0.21,2.65,6.9-19.37
		c1.04-3.24,3.72-5.69,4.67-9.03c0.49-1.73,1.32-3.25,3.04-3.65c0-9.21-3.87-27.89-6.19-36.62c-5.61-21.17-13.75-21.84-17.14-37.53
		c-2.27-10.51-2.98-36.34-0.91-44.94c1.06-4.41-3.82-5.02-8.22-7c0.2,5.68-2.44,10.45-3.04,15.72c-0.41,3.55,0.21,7,0.1,10.55
		c-1.34,43.54-4.44,42.55-5.88,63.8c-0.63,9.25-2.04,39.27,1.12,47.88c6.11,0.2,2.05,4.3,8.82,15.42
		c4.61,7.58,11.03,13.71,16.23,20.79c4.85,6.61,10.67,13.04,19.07,16.23c3.23,1.23,6.08,11.57,1.83,13.69
		c-8.64,4.32-5.32-0.04-18.46,3.14c-5.48,1.33-10.65-1-16.03-1.32c-3.35-0.2-6.79-0.12-9.74-1.62c-6.05-3.08-11.64-3.69-14.51-5.58
		c-8.12-5.36-14.81-2.73-20.79-5.98c-3.8-2.07-12.89-1.36-18.26-8.72c3.75-5.78,5.88-11.97,6.9-18.56c0,0-37.02,7.61-37.13,7.61
		c-6.9-3.14-14.2-5.17-21.5-7.4c-1.17-6.17,16.16-2.87,21.61-5.98c-4.36-10.56-42.93-71.77-49.6-79.63
		c-8.85-10.41-22.1-1.09-31.24,9.03c2.33,1.62,5.38,1.32,7.3,3.45c-3.04-0.61-6.19-0.81-9.03-2.54c-10.78,7.7-4.4,3.05-1.93,5.17
		c-9.81,3.27,3.71-7.58-30.33,18.06c-6.91,5.2-13.89,2.8-23.74,0.71c-3.91-1.07-3.79-3.14-0.41-2.43c25.26,5.28,13,4.4,39.66-12.78
		c24.67-15.9,21.02-16.11,32.46-22.92c4.67-2.78,13.1-4.29,16.64,0.3c13.28,17.25,34.03,48.16,50.92,81.25
		c3.97,7.78-10.46,4.24-19.88,7.61c0.1,0.03,19.48,6.09,19.58,6.09c24.72-2.56,26.78-6.87,39.05-7.71
		c4.77-5.64,1.05-5.98-16.74-9.53c0.61,3.45,3.14,5.78,3.35,8.93c-2.64-3.04-4.55-6.6-5.78-10.35c-4.4-13.38-41.03-77.12-42.4-88.05
		c-2.49-19.89,12.62-13.77,29.21-25.16c5.86-4.02,22.73-10.48,29.62-11.97c1.83-7,4.56-13.69,5.48-21.1
		c-2.03,0.2-3.85,0.3-5.58,0.51c-4.31,6.9-6.94,4.22-8.62,8.93c-2.13,5.98-6.59,10.75-8.93,16.43
		c-6.48,1.74-21.82-11.93-25.05-15.32c-2.59-2.71-9.62-4.34-12.98-4.87c-12.22-1.91-15.8-7.16-23.53-7.61
		c-37.4-2.17-40.25,3.87-56.2-4.67c-5.29-3.37-3.08-2.17-4.36,4.67c-3.95,21.04-15.66,35.78-17.24,42.5
		c-2.49,10.56-7.06,14.09-22.32,36.52c-4.19,6.16-7.2,13.09-11.67,19.37c7.91,2.53,12.61-0.04,12.07,7.91
		c-1.83-0.91-1.01-3.14-2.64-4.26c-11.92-1.23-6.68-1.7-14.61-2.13c-1.07-0.06-48.17,6.39-68.06,11.36
		c3.14,1.01,5.58,1.93,8.11,2.74c-4.77,0.61-8.82-3.14-14-1.93c-1.01,5.17-2.64,10.35-4.36,15.52c4.26,1.93,8.32,3.25,12.58,4.36
		c0.91-0.51,1.83-1.01,2.84-1.52c0.1-1.32,0.2-2.74,1.52-3.65c1.01,1.01-0.71,2.13,0.2,3.45c8.62-2.74,17.75-2.93,26.47-5.48
		c21.83-6.37,26.84-1.86,39.97-6.19c15.32-5.05,40.61-5.16,56.8-9.43c8.33-2.2,16.63-4.72,25.46-4.67c1.52,0.01,2.94-1.22,5.07-0.61
		c-4.74,4.13-10.95,1.33-16.94,3.35c-27.95,9.42-38.4,5.87-46.56,8.82c-4.13,1.5-2.68-0.93-10.45,0.91
		c-38.59,9.14-29.31,3.27-46.15,7.4c-29.86,7.33-34.45,5.88-38.24,9.43c-5.17-1.62-10.75-2.54-14.81-6.8
		C2.01,498.82,3.83,493.34,5.46,488.47z M219.28,35.66c1.32-0.91,1.32-2.13,1.93-3.14C218.75,31.29,217.55,33.5,219.28,35.66z
		 M213.91,67.92c1.22,0.1,2.54,0.71,3.96-0.71C216.14,66.5,215.12,67.21,213.91,67.92z M211.78,24.81
		c-0.41,1.42-0.71,2.43-1.12,4.06C212.18,27.55,213.5,26.74,211.78,24.81z M200.31,30.49c-0.41-0.1-0.61,0.1-0.71,0.71
		C200.73,31.65,200.66,30.49,200.31,30.49z M199.1,35.46c0.81,0.61,1.12,0,1.62-0.81C199.71,34.55,199.4,35.05,199.1,35.46z
		 M201.94,42.56c-1.42-1.12-2.84-1.32-4.26-1.52C198.79,42.15,200.11,42.86,201.94,42.56z M195.55,39.21
		c1.01-0.3,1.01-0.71,0.81-1.42C195.65,37.89,195.24,38.3,195.55,39.21z M194.53,41.04c-0.1-1.01-0.51-1.42-1.93-1.32
		C193.01,41.04,193.62,41.04,194.53,41.04z M190.98,33.33c1.12-1.12,2.13-2.13,3.14-3.14C192,30.18,190.68,31.2,190.98,33.33z
		 M179.01,54.02c-1.98-2.38-1.92-0.37-2.13,2.33C178.1,55.95,178.4,55.04,179.01,54.02z M170.59,42.36c0.61-0.3,0.91-0.61,0.91-1.12
		C170.8,40.94,170.59,41.34,170.59,42.36z M171.2,58.89c0.61-0.51,0.81-1.23,0.41-1.32C171.1,57.46,171.1,58.08,171.2,58.89z
		 M171.41,35.46c2.03,0.61,2.33-0.81,3.04-2.23C172.83,33.53,172.12,34.34,171.41,35.46z M176.48,41.65
		c-3.45,1.93-3.65,2.33-4.67,5.48C174.25,45.7,175.36,43.68,176.48,41.65z M171.81,61.33c-1.72,0.71-1.72,0.71-1.83,2.94
		C171.2,63.25,172.22,62.75,171.81,61.33z M171.51,72.89c-1.12,0.81-1.42,1.52-1.62,2.54C171.3,75.22,171.2,74.21,171.51,72.89z
		 M169.48,78.97c0.91-0.1,0.91-0.51,0.51-1.22C169.38,77.96,168.97,78.26,169.48,78.97z M168.87,61.02
		c-2.43-1.01-2.64,0.51-2.84,1.93C166.84,62.44,167.75,61.83,168.87,61.02z M127.38,149.37c-13.72,3.57-15.68,26.83-11.77,42.4
		c3.08,12.26,5.5,11.47,5.27,18.16c-0.61,18.06,10.6,27.02,12.88,34.69c3.31,11.09,36.05,37.12,40.47,22.82
		c4.74-15.32,17.63-20.56,20.08-43.21c6.36-58.8,1.57-22.47,5.07-45.24c-9.23,10.35-20.79,12.27-33.17,11.97
		c-0.91,2.23-1.12,4.56-1.42,6.8c-2.36,17.29-16.67,15.31-21.2,35.1c-0.15,0.65-1.96,2.3-1.12-2.54c0.21-1.22,0.71-2.43,0.1-4.16
		c-2.03,4.67-1.22,9.33-1.62,14.1c-2.86-5.86-0.28-17.28,1.42-17.85c4.97-2.13,7.39-7.32,11.67-10.24
		c5.06-3.47,6.49-9.33,8.22-14.81c0.51-2.13-1.32-3.25-1.72-4.77c1.12-0.3,1.93,0.71,2.94,0.61c0.81-0.61,0.61-1.42,0.81-2.03
		c-0.71-0.91-1.62-0.61-2.33-1.01c-1.86,2.79-0.54,2.39-4.97,3.65c0.41-1.83,2.03-2.64,2.13-4.26
		c-18.56-7.61-26.58-22.42-27.89-41.89C127.75,148.88,127.38,149.53,127.38,149.37z M192.1,182.44c-0.71-0.41-0.91,0.1-0.91,0.81
		C191.49,182.95,191.79,182.74,192.1,182.44z M162.48,59.9c-2.41-1.2-0.97,3.97-0.81,4.87C161.97,63.15,162.17,61.53,162.48,59.9z
		 M159.54,75.83c-2.64,2.03-2.64,2.23,1.22,6.09C159.01,78.43,164.74,78.43,159.54,75.83z M163.19,107.99
		c-38.62,5.15-39.5,67.92-2.94,79.42c21.33,6.72,42.81-10.93,42.81-38.14C203.05,126.95,186.66,104.86,163.19,107.99z
		 M183.78,109.71c23.94,14,28.6,50.82,9.53,71.11c7.2-2.33,14.43-18.46,14.61-31.85C208.16,130.71,196.56,113.77,183.78,109.71z
		 M205.59,105.35c-5.79-1.41-12.07,0.2-16.53,4.16c8.52,5.27,14.49,12.65,17.95,21.91c0.71,1.9,7.58,2.84,5.27,10.85
		c-2.98,10.36-1.62,19.17-8.52,30.73c-1.33,2.23-1.22,4.67-1.52,7.4C239.39,180.41,244.44,114.8,205.59,105.35z M209.65,142.47
		c2.03-2.33,0.3-3.85-0.2-5.58C208.39,136.89,208.75,136.52,209.65,142.47z M221.51,175.34c0.3-0.2,0.61-0.51,1.01-0.71
		C221.82,174.43,221.41,174.63,221.51,175.34z M215.23,106.67c22.1,14.53,26.18,46.06,8.62,66.44
		C244.84,156.98,240.79,117.72,215.23,106.67z M269.39,118.23c-14.16,16.7-14.72,43.27-0.1,58.63
		c30.2,31.74,75.58-14.99,53.35-53.96C310.9,102.29,284.81,100.05,269.39,118.23z M260.25,170.38c1.74,5.19,2.4,10.68,2.34,16.22
		c8.01,4.77,13.09,11.16,14.2,21.1c13.77-19.28,13.91-18.11,10.04-18.66C273.72,187.16,265.04,179.91,260.25,170.38z M348.71,116.61
		c18.97,19.07,13.69,54.07-8.22,67.05C359.28,180.22,375.38,139.29,348.71,116.61z M345.16,177.67
		c26.96-24.42,9.23-74.95-23.43-65.43c-0.28,1.94,11.46,8.41,13.39,29.42c0.09,1.02-0.21,2.04,0.61,3.04
		c1.5,1.84,3.56,3.65,2.94,6.09c-2.14,8.43-4.63,6.77-6.29,11.16c-6.52,17.24-14.2,16.54-14.2,23.43
		C328.63,187.41,337.55,184.56,345.16,177.67z M334.31,153.43c1.83-1.52,2.43-3.35,0.91-5.68
		C334.92,149.88,334.61,151.7,334.31,153.43z M317.37,112.45c20.39,19.48,15.82,57.31-8.11,71.92
		C329.37,181.42,346.48,133.76,317.37,112.45z M253.16,252.83c11.76,9.61,13.36,15.61,21.5,14.2c7.08-1.22,9.77,2.58,18.36-1.42
		c4.81-2.24,6.17-16.74,6.49-18.26c3.05-14.24,4.43-7.33-6.09-5.07c-2.48,2.43-2.65-0.1-0.2-0.41c1.41-1.41,8.96-0.19,14.71-16.94
		c4.53-13.21,1.32-25.05,7.81-40.68c-2.23,1.12-3.96,2.03-5.78,3.04c-1.32,1.32-0.71,3.75-2.64,4.77c-1.32-0.81-0.41-2.23-1.12-3.35
		c-17.76,3.95-11.81-4.97-20.19,11.26c-0.75,1.46-14.29,16.76-18.06,39.36c-0.12,0.71,0.1,1.72-1.12,2.23
		c-0.61-3.25,0.71-6.19,0.91-9.33c-1.72,1.12-1.12,3.25-2.64,4.46c-0.47-6.47,6.89-10.16,8.22-19.48c0.3-2.13,1.22-4.06,2.23-6.09
		c-1.13-2.88-4.05-18.96-11.66-20.9c-4.26-1.08-3.97-4.56-4.67-12.27c-1.42-15.82-16.74-31-19.88-31.24
		c-1.52,9.13-1.76,7.97,0,10.55c11.7,17.12,11.05,15.74,11.56,18.26c4.94,24.33-5.56,30.04-2.54,42.4c2.64,2.43,5.78,4.97,8.32,8.93
		c-5.32-0.71-8.2-7.5-6.9-0.2C252.56,242,246.66,247.52,253.16,252.83z M251.23,267.04c-0.31-0.91-0.7-1.83-0.71-2.74
		c-0.15-9.74-3.86-19.07-2.74-29.01c1.37-12.15-4.38-17.79-1.42-28.1c5-17.41,6.69-26.94-9.33-48.79
		c-6.49,15.82-17.75,24.55-35,23.94c-2.23,8.01-1.83,15.72-2.54,23.74c4.36-0.41,8.42-0.61,12.48-0.91
		c-15.9,4.08-11.76-2.68-13.8,15.62c-1.68,15.13-12,33.23-17.45,39.15c-3.05,3.31-3.69,13.01-10.65,13.19
		c-0.2,1.52,1.42,1.93,1.62,3.14c-0.61,0.61-1.11,0.09-1.42-0.2c-4.53-4.32-5.45-0.9-13.09-5.17c-8.24-4.61-22.49-20.33-20.59-16.53
		c3.26,8.8,7.55,32.07,13.74,34.97c-1.57,0.52,4.67,9.63,9.18,9.35c4.48,0-5.03-3.92-8.19-8.41c4.35,1.86,7.76,5.41,12.14,7.5
		c7.4-0.61,14.91-1.12,22.42-1.12c27.42,0,52.86-12.8,67.96-14.81C252.96,276.88,252.84,271.81,251.23,267.04z M163.49,300.92
		c1.52,1.32,1.72,3.14,2.64,4.97c1.32-2.13,0.71-3.75-0.3-5.38C165.01,300.31,164.41,300.61,163.49,300.92z M168.87,304.87
		c0.51-1.22,0.2-2.13-0.3-3.04C168.16,302.84,168.26,303.76,168.87,304.87z M179.72,301.52c0.71,0,0.61-0.71,0.81-1.32
		C178.32,299.38,178.39,300.86,179.72,301.52z M189.16,299.8c0.3,1.22,0.51,1.32,2.03,1.12c0.91-0.41,2.13-0.1,2.94-0.91
		c-1.62-1.52-1.62-1.52-2.94,0.91C190.17,301.12,189.97,300,189.16,299.8z M418.2,534.22c1.22,0.3,2.03-0.2,3.35-0.81
		C419.72,532.69,418.91,533.2,418.2,534.22z M422.36,536.04c0.41,0.81,0.91,0.61,1.42,0.1
		C423.37,535.13,422.86,535.23,422.36,536.04z M362,503.58c-2.43,5.07-6.08,9.54-6.59,15.42c-0.2,2.33-0.89,4.38-2.33,6.19
		c-3.28,4.11,0.29,3.37-2.54,7c-1.68,2.16-1.93,4.46-0.91,7.2c7,3.65,14.1,7.34,22.52,7.91c11.43,0.77,17.17,6.56,19.78,7.61
		c55.78,16.12,61.2-6.54,46.25-9.03c-5.17-0.86-6.94-5.12-11.56-7.1c-3.96,1.83-4.16,1.83-7.2,1.22c-0.81-0.61-0.3-1.52-0.51-2.23
		c-2.43-0.81-2.43-0.81-3.14-3.04c-1.32-0.51-3.14-0.1-3.75-2.23c1.72-2.33,4.16-1.22,6.39-1.32c-0.1-1.12-0.91-1.62-1.72-2.03
		c-6.49,2.23-7.1,2.23-9.64,0.3c1.93-3.04,5.17-1.93,7.81-2.43c0-6.14-4.83,2.05-10.14-2.43c1.83-2.84,4.77-1.62,7.1-2.33
		c-1.62-6.47-7.12,2.62-13.8-1.62c2.74-3.75,6.19-3.35,9.74-2.64c-0.44-5.78-7.18,1.78-14.2-0.51c3.65-3.04,7.3-3.35,11.46-3.75
		c-3.25-4.06-3.35-8.72-3.14-13.29c-1.93-0.71-3.15,0.29-4.46,0.51c-2.34,0.38-3.35,1.83-3.25,4.26c0.6,13.44-0.56,1.12-9.53,7.71
		c-4.97,3.65-10.95,3.65-16.94,3.14C364.12,515.76,362.21,507.2,362,503.58z M391.11,505.1c-15.27,6.66-18.2,4.99-24.85,4.06
		c0.3,1.83,0.61,3.25,1.83,4.46c5.48,0.91,10.46-0.78,15.11-3.35C390.61,506.19,392.41,510.3,391.11,505.1z M342.83,359.14
		c4.46-0.51,6.39-4.77,10.14-6.29c-0.41,2.94-3.85,5.88-9.64,7.91c2.54,5.07,4.56,10.35,8.72,14.61
		c-4.12,1.21-9.09-10.76-10.04-12.98c-2.05-4.79-4.24-1.86-12.07-7.2c0.71,5.38-0.1,10.55,0.41,15.82c2.74,0.51,4.56,2.75,7.2,3.85
		c5.27,2.19,1.49,12.02,1.93,28.91c0.46,17.81,2.53,28.34,9.53,37.33c16.22,20.82,15.51,63.87,16.23,65.43
		c2.84-0.2,5.48,0.81,8.72,1.01c-5.58-4.56-2.43-10.65-4.16-15.82c4.74,5.24,0.12,11.19,7.1,15.42c5.78-2.03,12.98-1.93,16.53-8.32
		c-5.54-65.01-1.88-102.41-10.85-116.35c-1.11-1.73,0.28-4.26,0.1-6.59c-0.46-5.98-2.96-11.36-4.26-17.04
		c-2.86-12.55-0.85-10.43-8.01-24.75c-8.06-2.76-15.09-13.12-25.05-10.65c-1.8,0.45-9.49-0.31-13.09,5.38
		c-11.3,17.87-5.34,7.79-2.64,23.23C334.11,354.47,338.57,356.91,342.83,359.14z M327.51,529.25c0.61,1.22,1.72,0.91,3.04,1.22
		C329.85,528.43,328.73,528.64,327.51,529.25z M329.95,533.4c1.12,0.1,2.23,0.91,3.45,0.51C332.38,532.49,331.06,533.1,329.95,533.4
		z M338.27,546.29c1.72,0.1,3.45,0.2,5.27,0.91C342.43,544.56,342.43,544.56,338.27,546.29z M280.25,540.71
		c-2.16,4.12-0.31,4.31-7.51,16.13c7.46,7.19,19.01,3.74,46.56,15.11c20.67,8.53,44.41,3.95,47.67,1.32
		c2.43-11.25-4.22-2.31-22.42-25.05c-4.56,0.64-11.16,5.61-13.69,2.43c-0.41-1.22,0.91-1.52,1.42-2.43
		c-2.13-0.51-4.77,1.72-6.49-1.72c4.36-4.26,9.84-3.65,15.22-2.94c-1.6-6.01-7.82-2.56-18.87,0.1c-3.07-4.41,8.62-7.02,13.9-5.98
		c-3.18-5.52-14.86,3.28-18.46,0.71c-0.51-2.43,2.03-2.43,3.14-3.85c-2.43-0.3-4.56,1.42-6.59,0.81c-1.62-1.01-0.2-2.03-0.41-2.94
		c-1.32-0.3-2.43,1.32-3.65,0.2c1.32-3.45,6.49-5.17,18.26-6.09c-1.93-3.96-3.75-7.71-4.87-11.97c-5.17-0.51-10.04,0.46-14.91,0.81
		c-2.54,0.18-4.06,2.94-5.48,5.17c1.12,2.64,2.13,5.17,3.35,8.11c-4.26,2.33-8.93,4.36-12.38,8.82c-2.13-2.84-3.76-5.37-5.78-7.61
		c-2.75-3.04,1.62-5.58,0.3-8.52C283.73,522.95,287.12,527.6,280.25,540.71z M292.62,525.09c-3.04,3.75-0.41,5.98,2.03,8.62
		c2.43-2.23,5.17-3.75,8.42-4.67C301.7,522.56,301.48,524.06,292.62,525.09z M276.29,434c-5.63-14.49,2.87-32.86-1.83-30.63
		c-9.85,4.67-20.7,6.89-29.92,13.09c-4.97,3.34-10.84,4.9-16.33,7.2c-17.71,7.44-5.47,18.55,31.34,93.83
		c1.14,2.32,1.93,4.97,2.94,7.71c6.8,1.01,13.09,3.25,19.78,5.07c4.17-24.49,12.97,10.1,3.14-50.51
		C284.18,472.13,282.92,451.08,276.29,434z M277.81,416.45c-0.04,6.94-0.55,12.18,2.33,17.95c3.42,6.84,6.38,36.98,10.85,59.95
		c2.01,10.31,0.81,27.59,0.81,27.69c5.9,1.57,3.99-3.48,6.9-6.39c0.71,2.13,0,3.96-0.3,5.68c1.32,0.41,1.52-0.2,1.83-0.91
		c3.66-8.62,9.11-8.32,19.17-9.43c-5.13-63.57,2.63-53.67,4.56-111.68c0.38-11.54-0.56-5.83-2.33-6.8c0.2-2.43,1.12-4.67,2.94-6.8
		c-1.93-4.06-0.2-8.11,0.71-12.27c1.42,2.94-0.91,5.98,0.51,8.93c0.61-4.46,2.69-8.52,2.33-13.29c-0.56-7.47,3.28-18.81-8.82-33.37
		c-7.92-9.53-20.97-8.6-31.04-3.25c-5.53,2.94-5.39,3.93-13.9,24.85c1.93,1.62,4.56,0.81,6.69,2.43
		c-6.28,1.83-7.55-4.16-10.04,10.35C295.57,374.05,278,385.86,277.81,416.45z M282.07,377.6c-2.43-5.17-7.51-3.85-11.36-5.38
		c-1.42,1.83-1.52,3.75-1.93,6.29C273.35,376.38,277.61,376.59,282.07,377.6z M273.04,379.93c-1.83-0.2-3.25,0.71-4.77,1.01
		c-0.71,1.42-1.01,2.74-1.32,4.77C268.88,383.28,272.03,382.98,273.04,379.93z M202.95,377.19c6.19,2.94,12.99,3.94,19.58,5.48
		c14.65,3.42,19.13,13.62,34.08,21.2c11.97-18.74,7.55-32.65,22.62-63.8c3.63-7.5,2.52-7.66,15.01-11.77
		c3.23-1.06,6.69-1.22,10.14-1.42c-0.3-1.22-1.52-1.52-2.43-1.72c-7.71-1.72-14.41-6.08-22.21-7.81c-3.65-0.81-7.31-2.21-10.96-3.65
		c-4.75-1.87-6.6,1.37-14-6.29c-6.06-6.28-7.54-2.4-23.84-7.61c2.12-2.94,3.99,0.22,16.03,0.81c9.09,0.45,9.6,9.68,16.94,9.23
		c-0.51-3.75-0.49-7.53-4.56-9.94c-2.43-1.44-4.14-4.08-6.49-5.88c-2.78-2.13-1.46-5.69,5.78,1.93c6.58,6.92,6.64,3.33,7.4,14
		c1.72,1.12,2.04-0.2,2.64-1.32c2.09-3.94,5.87-11.2,8.82-11.06c-0.35,1.15-7.79,12-8.52,13.09c4.32,0.36,8.18,4.52,8.74,3.57
		c1.6,1.7,7.98,1.53,13.77,4.04c2.13-2.94,2.74-6.69,5.78-9.13c-1.01,3.45-1.72,6.9-3.75,10.14c4.77,2.43,9.13,6.19,15.11,3.75
		c0.1,1.32-1.22,1.22-1.62,2.23c6.39,3.25,13.19,6.09,16.43,14c9.25-15.09,8.2-16.51,24.34-18.66c-14.65-8.02-12.83-6.85-13.39-7.3
		c-3.14-3.14-6.9-4.77-11.56-4.06c0.61-1.22,2.03-0.71,2.13-2.43c-9.18-2.94-10.53-2.74-14-5.27c-2.26-1.65-8.85-4.19-12.38-1.93
		c-2.61,1.67-5.58,2.64-8.52,3.85c-0.1-0.2-0.3-0.41-0.41-0.61c8.87-6.48,9.04-5.17,6.29-8.32c-9.83-1.87-10.3,9.07-14,16.53
		c-4.36,8.81-7.51-2.22,2.94-12.68c1.01-1.01,2.23-1.62,3.25-3.14c-0.81-0.3-1.62-0.3-2.23,0.2c-5.69,4.66-9.93-2.1-14.71-0.2
		c-2.12,0.84-3.35,0.1-4.36-1.72c-1.93,0.41-2.84,2.84-5.58,2.94c1.72-4.26,4.36-7.1,8.01-9.33c0.81-2.03,0-3.17-2.33-3.45
		c-4.8-0.58-9.27,3.72-15.72,4.77c0-1.12-1.22-1.52-1.93-2.74c-0.81,1.93-2.54-0.71-3.85,1.01c1.62,0.91,3.75,0.91,4.87,2.94
		c-2.74,1.22-5.17-0.91-7.61-0.51c-0.81,0.91,0.91,1.62,0.1,2.64c-1.42-0.81-1.32-2.74-3.14-3.96c-7.1,2.54-14.1,6.31-22.01,7.2
		c-7.3,0.83-13.9,5.07-21.4,3.45c-0.41,1.83,1.42,0.91,1.32,2.43c-4.87,1.83-10.24,1.62-15.42,2.64c1.52-1.22,3.55-0.91,5.17-2.03
		c0.1-0.91-0.1-1.72-0.91-2.03c-1.62-0.1-0.61,1.72-1.62,1.93c-1.02-0.11-1.62-4.16-5.17,2.94c-1.42-2.03-3.14-3.45-5.78-4.77
		c0.51,1.62,0.81,2.64,1.12,3.45c0.71,0.81,1.83,0,2.23,0.91c-1.12,1.42-3.25,0.71-4.46,2.43c4.26-0.1,6.9,1.72,7.61,5.78
		c1.32,0.2,2.03-1.32,3.55-0.71c-0.51,1.42-1.83,1.71-2.84,2.33c-16.66,10.23-14.08,20.95-18.36,24.55
		c-2.23-0.41-1.84-1.73-1.22-3.14c1.88-4.28,3.75-8.62,6.49-12.78c-1.22-0.61-3.04-0.1-3.25-2.13c1.52-1.52,3.04,0.1,4.67,0.2
		c7.47-5.98,8.41-5.64,6.49-8.82c-2.47-4.1-5.16-0.74-16.13,9.13c-1.12,1.01-2.13,2.13-2.33,4.06c-6.27-3.13,9.94-10.31,13.49-18.06
		c-2.94,0.41-5.48,1.83-8.32,2.94c-1.52-1.83-1.01-4.46-2.74-6.59c-0.3,2.43,1.32,4.26,0.91,6.49c-2.28-0.43-1.32-3.45-3.14-5.27
		c0.3,2.84,1.31,5.27,0.2,8.01c-2.42,5.99-5.28,5.81-4.16,9.23c0.83,2.53,0.98,5.2,2.84,7.51c3.76,4.66-1.04,4.92,4.56,24.75
		C163.9,363.91,173.97,365.26,202.95,377.19z M186.21,374.46c10.78-0.06-25.83-4.56-28.71-24.14c-0.81-1.22-2.43-0.51-3.25-1.72
		c0.51-1.01,1.83-0.1,2.43-1.01c-3.14-11.27,1.94-10.33-5.07-24.34c-1.62-3.25-1.22-5.48,1.32-7.91c9.77-9.35-1.68-15.96-9.64-27.89
		c0,3.14,0.81,6.19-0.1,10.04c-1.46-4.02-2.85-20.47-3.85-22.72c-8.35-18.69-2.94-23.17-12.98-39.05
		c-11.55-18.26-5.24-24.91-8.52-31.75c-1.12,0.2-0.72,1.12-0.71,1.62C120.1,385.03,121.81,374.82,186.21,374.46z"/>
	<path d="M535.25,474.88c5.77-8.66,10.03-18.84,19.27-29.82c1.38-1.64,6.49-10.35,4.36-10.35c-9.95,0-21.34,0.77-32.16-13.09
		c-16.12-20.65-9.56-55.94,15.42-65.12c7.94-2.92,10.96-0.28,10.96-2.84c-4.2-45.27-4.94-53.5-1.42-67.05
		c2.16-8.3-3.02-10.48-0.51-16.23c4.25-9.72-2.62-16.83-1.62-47.27c0.53-16,7.93-18.77,6.39-23.74
		c-3.75-12.06-3.64-34.52,11.46-44.43c4.78-3.13,9.95-5.87,14.3-9.53c7.82-6.58,14.92-13.95,24.34-18.36
		c2.09-0.98,7.71-6.88,7.71-13.59c0-10.25,0.77-11.45-0.71-12.78c-3-2.71,0.41-8.89-4.56-15.93c-3.01-4.26,1.8-3.12-1.93-9.13
		c-6.68-10.77-1.01-15.79-1.01-22.42c0-4.32,4.24-7.19,1.93-10.65c0.4-0.59,0.87-0.52,1.27-0.51c1.34-2.32,0.59-5.5,3.2-7.2
		c-0.91-1.42-3.04-2.03-3.04-4.16c3.45-1.83,5.38,1.01,7.61,2.33c4.97-0.61,8.42-3.55,10.95-7c2.64,0.3,0.91,2.23,2.23,3.55
		c2.03-3.45,5.07-4.97,8.93-4.77c3.75,0.2,7.51-1.52,10.85-0.2c4.36-0.91,7.81-3.65,12.07-2.94c1.22,0.1-0.1,1.62,1.01,1.52
		c2.13-1.01,2.74-3.35,4.67-4.67c2.13,2.74,1.12,5.68,1.42,8.42c4.06-3.04,5.17-3.25,7-1.12c-0.51,2.23-3.25,2.13-4.16,4.06
		c2.23,0.2,4.26-1.42,6.49,0c-0.41,1.52-0.61,3.04,0.1,4.46c-2.84,3.25-7.2,4.46-9.03,8.32c4.24,23.76,5.78,10.52,2.54,27.29
		c-2.84,0.61-5.07,2.74-7.81,1.42c-1.12,1.62,0.2,3.55-1.01,5.27c-3.04-8.01-1.12-9.84,8.22-14.71c0.1-0.91,0.3-2.03,0.51-3.04
		c-3.96-4.16-3.25-9.84-4.77-14.81c-2.33,0.2-3.96,2.02-6.19,1.83c-5.88-0.52-11.77-0.81-17.75,0.91c0.41,1.12,1.22,2.64-1.12,2.84
		c-0.61-4.26-4.36-3.85-6.9-5.48c-1.01,1.01-1.93,1.83-2.33,3.14c1.62-1.32,3.45,0,5.07-0.81c0.91,1.72,1.83,3.25,2.54,4.46
		c-0.3,2.03-2.33,1.52-3.14,2.54c1.19,2.96-1.53,0.64-3.25,1.93c-8.41,12.62-7.97,28.54-12.07,28c0-3.45-2-6.4-2.94-9.74
		c-0.49-1.73-1.62-3.14-3.65-1.52c0.51,2.54,2.74,3.35,3.96,4.67c0,2.54,0,4.87,0,6.69c-1.3,2.91-5.97-0.82-1.52,4.26
		c0.81,0.41,1.52-0.91,2.33,0c-1.62,3.75-2.48,7.61-1.83,11.77c0.7,4.45-0.71-2.04-1.52,13.09c-0.66,12.3-8.13,14.43-9.33,17.24
		c0.34,0.19,17.55,14.82,17.65,14.91c0.42-1.05,0.29-0.85,13.8,1.72c4.26,0.81,6.99,4.52,11.16,5.17c0.71,0.11,1.32,0.41,2.13,1.52
		c-11.25-2.75-1.76-3.09-26.88-8.11c-0.32-0.32,0.2-0.3-0.71,0.61c13.27,13.83,26.47,17.44,33.88,21.71
		c5.38,3.1,17.02,4.51,17.24-1.72c0.36-9.97-1.69-15.86-5.15-21.91c0.21,0.89,1.49,0.23-10.17,3.66c3.12-1.91,6.24-3.92,10.05-3.85
		c-1.39-2.41-3-4.86-4.78-7.61c-1.44-2.22-3.04-3.75-5.48-4.36c-0.71,2.23-0.2,4.46-0.51,6.59c-3.55-5.88-1.52-12.17-1.22-17.95
		c-2.33-1.42-4.46-0.81-6.8-0.81c-0.3-1.72-2.54-1.52-3.45-3.65c3.25,0.81,5.98,1.27,8.82,1.22c13.12-0.23,7.53-0.26,11.56-11.26
		c3.48-9.49-0.09-15.63,2.54-22.62c0.87-2.32,0.15-2.88-0.2-11.36c0.3-0.1,0.71-0.1,1.01-0.1c1.32,4.06,3.52,8.31,2.13,12.48
		c-2.65,7.95-0.1,15.08-2.84,21.1c-2.64,4.91-0.37,14.14-10.35,14.91c-1,14.49-2.13,3.76,7,12.88c3.34,2.96,6.28,0.73,8.52,4.77
		c2.23,0.81,4.56,0.2,6.09,2.03c-1.12,1.52-2.54,0.1-3.65,0.71c6.29,8.32,13.29,16.03,18.77,24.65c2.43-0.91,0.1-2.74,1.42-4.56
		c2.74,7.81,5.38,15.11,6.19,22.92c2.19-16.46-3.37-33.95-19.07-40.88c-5.06-2.23-2.36-3.94,1.52-2.23
		c16.32,7.18,26.66,26.94,16.84,53.86c-2.72,7.46,3.81,10.69,4.36,32.87c0.32,13-0.58,11.67,9.23,31.55
		c4.49,9.11,9.2,30.16,7.91,31.44c-1.42,0.51-1.32-1.52-2.54-1.01c-0.81,0.91-1.93,1.72-1.01,3.45c8.53-1.89,9.77,4.19,16.53,0.81
		c2.03-1.01,5.08-0.37,7.61-0.81c5.4-0.95,4.09,3.85,8.42,4.56c10.45,1.72,13.28,6.73,19.48,7.3c4.16,0.39,6.9,3.65,10.65,4.77
		c0.51,0.1,1.01,0.61,1.32,1.12c3.24,4.69,11.32,6.71,17.04,10.24c23.36,14.42,17.63,9.44,19.68,11.56
		c14.25,14.82,5.09,19.61,9.43,26.27c8.36,12.81,3.66,20.23,4.77,21.71c11.15,18.87,5.39,95.98,11.26,118.27
		c3.85-0.81,7.43-1.63,9.23,2.84c1.34,3.34,1.93,6.69-0.3,10.04c4.56,4.16,8.55,8.5,12.07,13.19c14.14,18.81,23.45,19.7,27.29,22.21
		c6.73,4.41,6.97,21.7-32.26,15.93c-27.13-3.99-31.26-12.33-40.17-12.48c-8.52-0.14-15.01-4.98-22.21-8.22
		c-2.94-1.32-4.35-5.37-2.84-7.81c1.94-3.14,2.34-6.79,4.16-9.94c2.34-4.05,2.02-8.93,4.36-12.98c1.41-2.44,3.33-4.57,4.06-7.4
		c0.5-1.93,1.42-3.35,3.14-3.96c0-9.1-4.25-29.19-6.29-36.72c-5.73-21.17-13.79-22.12-17.14-37.53c-2.32-10.66-3.08-35.3-0.71-45.95
		c-0.61-4.36-5.17-3.65-8.11-5.58c-0.71,3.45-0.72,6.69-1.93,9.64c-1.54,3.75-1.91,7.81-1.52,11.77
		c2.75,28.09-12.15,86.93-4.56,116.24c3.25,0.2,4.18,2.33,4.67,5.17c2.05,11.86,10.3,17.37,20.39,31.04
		c14.45,19.58,19.65,13.41,22.01,19.07c5.21,12.49-7.68,13.23-8.11,13.09c-3.65-0.71-7.21-0.02-10.75,0.91
		c-5.69,1.49-10.96-0.77-16.43-1.22c-13.14-1.07-4.64-0.75-19.58-5.27c-7.75-2.35-5.34-4.81-18.56-6.09
		c-6.21-0.6-5.55-1.99-11.77-3.35c-5.17-1.13-10.24-2.54-13.59-7.4c3.85-5.78,5.88-11.97,7-18.56c-8.26,0-18.33,6.51-34.18,6.59
		c-1.32,0.01-1.94,1.54-3.55,0.81c-6.74-3.05-13.9-4.97-20.9-7.2c-0.58-6.39,16.77-2.55,21.71-6.19
		c-36.17-63.07-32.74-50.2-45.44-73.95c-1.73-3.24-4.46-5.68-6.9-8.42c-2.14-2.94-12.91-3.31-28.5,11.87
		c2.43,1.72,5.48,1.22,7.91,3.75c-3.75-0.61-6.8-1.22-9.53-2.74c-10.51,7.01-4.4,3.25-1.52,5.17c-6.15,0.61-6.48,0.29-7.71,1.22
		c-5.62,4.24-12.03,7.45-17.14,12.38c-10.94,10.52-16.77,7.48-29.72,5.07c-3.84-0.72-3.51-3.14-0.51-2.43
		c26.35,6.22,12.67,3.69,50.21-19.58c7.82-4.85,13.82-12.13,22.11-16.23c4.53-2.24,12.79-4.39,16.53,0.41
		c2.64,3.38,28.49,38.1,50.92,81.25c4.19,8.06-12.55,4.09-19.78,7.71c21,6.67,18.62,6.22,19.58,5.98
		c24.51-2.54,26.97-6.76,39.05-7.71c4.83-6.77,0.39-5.21-16.94-9.74c0.71,3.55,3.35,5.78,3.45,9.03c-2.74-3.04-4.47-6.69-5.78-10.55
		c-3.9-11.49-41.26-77.64-42.5-88.05c-1.51-12.59,2.01-13.14,11.97-17.35c31.9-13.48,15.29-9.53,46.96-19.98
		c1.52-6.69,4.46-13.39,5.27-20.9c-2.13,0.2-3.85,0.3-5.58,0.51c-4.14,6.62-6.85,4.1-8.82,9.33c-2.22,5.89-6.49,10.55-8.72,16.03
		c-2.64,0.61-4.47,0.11-6.29-0.91c-6.88-3.86-18.65-14-19.27-14.61c-5.11-4.93-12.68-4.36-19.37-6.19c0.3,0.51,0.41,0.71,1.01,1.72
		c-11.01-1.34-38.23,0.97-43.11-0.3c8.59,41.98-26.84,68.13-58.02,50.01c-1.53-0.89-2.74-1.01-4.46-0.1
		c-5.58,14.81-16.64,26.68-23.43,41.18c7.4,2.59,11.77-0.56,11.77,7.81c-1.93-0.71-1.12-3.04-2.84-4.26
		c-3.04-0.1-6.4-0.56-9.64-1.52c-6.82-2.02-42.2,6.36-51.73,6.49c-7.1,0.09-13.8,2.64-21.3,4.36c3.14,1.01,5.68,1.93,8.11,2.74
		c-4.87,0.61-8.93-3.25-14-1.83c-1.12,5.27-2.74,10.24-4.36,15.22c7.4,3.96,11.87,4.87,15.32,3.04c0.41-1.22,0.1-2.94,1.72-3.55
		c0.71,1.12-0.81,1.93,0.1,3.35c8.11-2.74,16.76-2.97,25.05-5.17c25.41-6.74,28.22-2.41,40.57-6.39
		c22.49-7.24,37.71-3.27,68.98-12.48c6.19-1.82,12.48-0.51,18.97-2.84c-1.87,4.58-9.89,1.7-17.04,4.06
		c-29.72,9.8-37.51,5.12-45.85,8.62c-3.03,1.27-2.91-0.66-11.36,1.22c-36.87,8.2-32.1,3.44-48.59,8.11
		c-17.29,4.9-23.72,3.27-31.95,7c-5.65,2.55-9.72-0.42-15.11-2.54c-4.49-1.76-2.84-3.14,2.33-18.97
		C483.52,481.47,509.39,480.46,535.25,474.88z M671.99,35.66c1.62-0.71,1.42-2.13,2.13-3.04C672.92,32.02,670.02,31.72,671.99,35.66
		z M666.71,68.02c1.22-0.1,2.64,0.81,3.96-0.91C668.95,66.6,667.73,67.11,666.71,68.02z M664.58,24.81
		c-0.3,1.42-0.71,2.43-1.01,3.45C664.79,27.55,666.31,26.84,664.58,24.81z M653.02,30.39c-0.3,0-0.51,0.3-0.61,0.81
		C653.67,31.62,653.32,30.39,653.02,30.39z M651.9,35.46c0.81,0.61,1.12,0,1.62-0.81C652.51,34.55,652.21,35.05,651.9,35.46z
		 M654.85,42.97c-1.32-1.72-2.94-1.42-4.26-1.93C651.6,42.36,652.92,42.66,654.85,42.97z M648.35,39.21
		c0.81-0.1,0.91-0.61,0.81-1.22C648.25,37.89,648.05,38.3,648.35,39.21z M647.34,41.14c-0.1-1.12-0.51-1.52-1.93-1.32
		C645.82,41.04,646.43,41.14,647.34,41.14z M643.99,33.94c1.32-1.01,2.43-2.13,3.65-3.65C644.91,30.29,643.49,31,643.99,33.94z
		 M629.79,56.46c2.93-1.86,1.75-3.58,0.41-3.25C629.59,54.12,629.69,55.24,629.79,56.46z M623.4,42.36c0.61-0.3,0.91-0.61,0.91-1.12
		C623.6,40.94,623.4,41.34,623.4,42.36z M623.91,58.99c0.81-0.61,0.91-1.32,0.51-1.42C623.81,57.47,624.01,58.18,623.91,58.99z
		 M624.21,35.56c1.93,0.51,2.33-0.81,3.04-2.33C625.63,33.53,624.92,34.34,624.21,35.56z M628.98,41.44
		c-0.89,0.77-5.49,3.88-4.16,5.48C626.95,45.6,628.37,43.78,628.98,41.44z M622.89,63.96c1.12-0.51,1.83-1.22,1.83-2.54
		C622.89,61.83,622.89,61.83,622.89,63.96z M624.21,73.19c-1.01,0.41-1.22,1.22-1.62,2.43C624.11,75.12,624.21,74.21,624.21,73.19z
		 M623,77.86c-1.01-0.1-0.91,0.51-1.12,1.12C623.1,79.08,623.1,78.47,623,77.86z M621.47,61.12c-2.13-1.32-2.33,0.41-2.54,1.93
		C619.75,62.44,620.56,61.83,621.47,61.12z M617.92,45.81c0.71-0.81,1.42-1.42,1.01-2.54c-1.22-0.91-2.13,0.81-3.25,0.51
		c-1.22-0.41-1.52-1.72-2.64-2.23c-1.13,0.08-2.13,0.55-3.21,0.68c-0.91,0.11-1.93-0.29,1.79,0.94c-0.1,1.52-1.72,2.13-2.13,3.85
		C612.44,46.7,612.38,42.82,617.92,45.81z M615.29,59.7c-1.52,1.72-1.52,1.72-0.81,5.68C614.78,63.05,615.08,61.43,615.29,59.7z
		 M612.14,75.93c-2.43,2.13-2.33,2.43,1.72,6.59c-0.81-2.03-0.81-3.45,0.91-4.06C614.07,77.05,613.26,76.24,612.14,75.93z
		 M538.3,428.93c-20.08-15.01-21.71-50.82-0.61-67.86C513.78,376.53,513.95,413.74,538.3,428.93z M589.01,141.76
		c-11.42,12.87-38.66,17.11-30.84,52.54c1.85,8.38-4.3,15.04-5.68,32.36c-0.61,7.64,2.82,45.23,0.91,53.96
		c1.52-0.1,0.91-1.72,1.93-1.52c1.66,0,6.29,15.64,3.45,26.47c-0.69,2.64,0.71,5.07-0.1,8.01c-1.72-2.13-1.87-4.56-1.52-6.69
		c3.48-21.07-2.08-15.13-2.84-22.32c-1.62,9.13-2.16,18.36-2.33,27.59c-0.18,9.34,3.35,1.39,3.35,40.98
		c0,5.88,0.61,11.77-0.41,17.75c5.27-6.69,11.26-12.17,19.58-15.11c-1.12-9.74,3.14-18.36,4.46-27.49c11.07-21.17-2.19-50,7-65.73
		c23.61-40.44,11.15-59.27,15.93-61.47c1.01,5.07,1.42,10.24,1.52,15.32c2.33,2.03,3.65,4.97,6.8,5.98
		c7.61-5.78,11.56-11.87,9.43-15.42c2.03-0.2,1.9-1.73,2.13-3.25c2.08-13.74-3.33-32.66-6.8-44.94
		c-2.72-9.64-8.32-17.45-14.61-25.26C595.91,135.37,592.07,138.32,589.01,141.76z M608.39,338.55c1.18-13.79-9.44-16.83-2.64-23.33
		c5.97-5.71,3.94-12.37-2.13-17.95c-7.48-6.87-8.01-12.82-15.62-31.85c-3.55,4.26-3.48,9.13-3.25,13.49
		c0.36,6.8,0.07,13.7,2.13,20.29c0.7,2.23-1.12,4.36-1.12,6.69c0,8.62-0.38,17.1-4.87,24.95c-2.7,4.71-0.71,7.47,4.26,23.63
		c7.81-0.2,15.11,0.91,21.71,4.97c1.72-2.54,4.26-1.12,7-1.62C610.32,352.83,608.04,342.67,608.39,338.55z M579.07,341.08
		c-2.23,4.87-3.04,9.13-1.52,13.9C587.58,355.54,581.43,350.49,579.07,341.08z M608.49,224.64c-2.54-1.01-2.64-3.65-4.67-5.68
		C603.82,227.31,602.7,228.98,608.49,224.64z M685.68,153.23c-11.55-12.16-10.03-16.53-16.43-17.24
		c5.76,8.45,11.22,14.45,10.75,26.37c-1.03,26.37-50.14-5.23-66.64-23.23c-8.53-9.3-8.14-8.5-10.55-6.69
		c0.03,0.1,29.46,36.63,20.59,77.7c-0.79,3.68-1.82,4.57-8.42,11.56c-3.25,3.45-6.29,7-11.26,8.42c0.61,1.93,2.43,2.74,2.84,4.67
		c-6.73-1.12-0.11-11.77-17.04,28.4c4.64,9.28,9.06,24.06,13.59,26.17c-0.09,3.26,6,10.64,10.55,8.82c-3.04-2.94-7.3-4.46-9.74-8.22
		c4.46,1.93,7.91,5.48,12.38,7.61c7.3-0.61,14.61-1.22,22.01-1.12c7.3,0.1,14.4-1.82,21.71-2.64c22.98-2.58,28.46-9.34,46.66-12.17
		c-0.91-4.97-1.03-10.04-2.64-14.81c-0.31-0.91-0.7-1.83-0.71-2.74c-0.15-9.74-3.86-19.07-2.74-29.01
		c0.71-6.29-0.82-12.68-2.03-18.87C695.79,202,716.53,185.72,685.68,153.23z M616.5,301.12c1.32,1.22,1.52,2.94,2.43,4.77
		C620.73,302.99,619.09,298.9,616.5,301.12z M621.58,304.57c0.81-0.91,0.2-1.72,0.1-2.94C620.76,302.84,621.37,303.65,621.58,304.57
		z M631.62,300.1c0.11,1.03,1.18,2.58,1.72,0.41C632.83,299.7,632.12,300.21,631.62,300.1z M641.96,299.8
		c0.3,1.22,0.51,1.32,2.03,1.12c0.91-0.41,2.13-0.1,2.94-0.91c-1.62-1.42-1.62-1.42-2.94,0.91
		C643.08,301.12,642.67,300.1,641.96,299.8z M707.9,243c-1.01,3.14-1.42,6.69-1.83,10.14c-4.09-8.62,5.37,0.71-3.35-48.69
		c-6.27,10.17,3.28,19.98-0.1,40.07c-0.63,3.73,3.06,8.36,3.55,17.95c0.66,13.03,5.58,16.22,1.12,22.82
		c5.48-2.03,9.94-4.97,15.52-3.65C719.66,267.75,714.29,255.27,707.9,243z M870.9,534.11c1.22,0.41,2.03-0.2,3.25-0.71
		C872.53,532.39,871.92,533.3,870.9,534.11z M875.06,536.24c0.51,0.51,1.01,0.3,1.52,0C876.08,535.03,875.57,535.23,875.06,536.24z
		 M808.22,519.51c-0.1,1.62-0.6,3.26-1.62,4.56c-3.78,4.81-0.46,3.39-2.94,7.61c-1.99,3.37-2.03,3.35-1.01,7.51
		c7,3.55,14,7.31,22.21,7.91c11.54,0.85,17.59,6.57,20.19,7.61c55.04,16.03,61.55-6.46,46.15-9.03c-4.91-0.82-7.1-4.94-11.67-6.9
		c-3.3,1.2-7.71,3.73-7.71-1.01c-2.43-0.81-2.43-0.81-3.25-3.04c-1.52-0.41-3.04-0.2-3.65-1.93c1.83-1.93,1.83-1.93,6.29-1.62
		c-0.47-5.21-6.45,2.53-11.46-1.62c2.33-2.94,5.27-2.13,8.01-2.54c0.73-6.59-4.84,1.96-10.14-2.54c2.76-4.54,11.01,0.49,4.87-4.97
		c-3.55,0.91-7,3.65-11.06,1.42c3.25-7.15,12.48-0.61,8.62-4.46c-1.66-2.77-6.35,2.55-12.68,0.81c2.74-2.94,6.29-3.45,10.65-3.65
		c-3.45-4.06-3.14-8.93-3.35-13.49c-1.72-0.51-2.84,0.4-4.16,0.61c-6.08,0.97-1.83,6.9-3.75,10.55c-1.06,0.67-4.4-2.53-7.61,0.3
		c-5.28,4.66-11.77,4.76-18.26,4.36c-3.83-0.23-5.77-8.85-5.98-12.68C812.37,508.55,808.61,513.32,808.22,519.51z M843.82,505.21
		c-7.91,3.25-15.72,6.69-24.75,3.75c1.32,13.16,17.72-1.88,24.85-0.61C844.53,507.23,844.43,506.32,843.82,505.21z M795.74,359.04
		c4.46-0.51,6.39-4.77,10.14-6.29c-0.51,3.04-4.36,6.19-9.64,7.71c2.33,5.17,4.36,10.35,8.52,14.4c-0.41,0.91-1.22,0.71-1.52,0.41
		c-2.74-3.25-6.11-5.88-7.1-10.55c-1.62-7.64-6.21-3.91-13.29-9.64c0.71,5.38-0.1,10.45,0.41,15.93c2.54,0.51,4.36,2.75,7,3.75
		c7.57,2.87-2.1,16.54,5.07,53.66c0.9,4.67,3.54,8.83,6.39,12.48c10.35,13.23,12.53,29.57,16.33,58.22c0.32,2.43-1.32,4.87,0.1,7.3
		c2.84-0.3,5.38,0.91,8.72,0.91c-2.84-2.33-3.86-4.67-3.25-8.22c0.4-2.33-1.32-4.87-0.81-8.01c4.39,6,0.72,12.16,6.9,15.82
		c3.14-0.41,6.29-1.82,9.53-2.54c3.65-0.81,5.48-3.55,7.1-5.68c-5.86-80.06-2.58-67.89-4.87-92.1c-1.94-20.54-4.95-15.81-5.68-30.33
		c-0.31-6.19-2.98-11.86-4.36-17.75c-1.26-5.37-1.62-10.96-3.96-16.03c-8.34-14.59,2.05-3.28-13.9-14.4
		c-8.35-5.83-10.64-5.76-20.19-4.26c-3.36,0.53-6.41,2.01-8.22,4.87c-11.3,17.87-5.34,7.79-2.64,23.23
		C787.02,354.37,791.48,356.81,795.74,359.04z M780.12,529.25c1.01,1.01,2.03,1.01,3.04,1.01
		C782.76,528.54,781.64,528.64,780.12,529.25z M782.55,533.51c1.12,0.2,2.33,0.41,3.96,0.71
		C785.09,532.49,783.77,533.2,782.55,533.51z M791.07,546.19c1.83,0.3,3.65,0.3,5.88,1.42C795.13,543.65,793,545.88,791.07,546.19z
		 M733.15,541.01c-2.12,3.96-0.32,4.63-7.51,16.13c7.44,7.44,18.19,3.5,46.56,15.22c20.67,8.53,44.41,3.95,47.67,1.32
		c2.42-11.22-4.02-2.07-22.32-25.36c-4.77,0.2-8.62,4.87-13.59,2.74c-0.51-1.62,0.81-1.93,1.22-2.84c-2.13-0.51-4.77,1.72-6.49-1.72
		c4.36-4.26,9.84-3.65,15.32-2.94c-2.02-6.05-8.13-2.48-18.87,0.1c-3.07-4.41,8.62-7.02,13.9-5.98c-3.17-5.5-15.99,3.98-18.46,0.61
		c0-2.13,2.13-2.23,3.35-3.55c-3.41-0.43-8.31,3.63-6.9-2.03c-1.42-0.41-2.54,1.22-3.85,0.2c1.22-3.45,6.59-5.27,18.16-6.09
		c-5.66-12.58-3.94-10.07-4.97-11.77c-3.75-0.81-7.3,0.81-10.96,0.41c-4.67-0.51-7.2,2.03-9.33,5.58c1.12,2.54,2.13,5.17,3.35,8.01
		c-4.26,2.33-8.93,4.26-12.38,8.82c-2.13-2.84-3.76-5.37-5.78-7.61c-2.75-3.04,1.52-5.58,0.3-8.52
		C736.51,523.43,740.19,527.84,733.15,541.01z M755.67,529.04c-0.1-1.83-0.71-3.45-1.83-4.97c-2.84,0.3-5.78,0.71-8.52,1.01
		c-2.03,4.16-2.03,4.16,2.13,8.52C749.79,531.38,752.53,530.06,755.67,529.04z M729.3,434.81c-4.15-10.26-1.72-20.53-0.2-32.66
		c-20.45,9.44-21.26,7.47-25.76,10.65c-14.85,10.48-37.42,10.65-29.52,27.39c31.05,65.78,34.77,66.76,41.49,84.9
		c6.59,1.01,12.88,3.25,19.68,4.97c1.22-4.26,1.72-9.53,7.3-11.56c0.1-10.24,0.11-19.99-2.43-29.52
		C737.01,478.34,737.07,454.04,729.3,434.81z M730.92,422.23c0,12.54,2.17,6.38,5.68,25.97c10.86,60.62,8.52,55.23,8.52,71.51
		c0,1.2-1.11,4.1,3.85,2.03c1.12-1.83,1.12-4.06,2.84-5.98c0.96,1.77-0.38,4.99,0,5.68c0.91,0.41,1.22-0.2,1.52-0.91
		c3.7-8.89,9.55-8.38,19.07-9.43c-5.14-57.62,1.53-41.82,4.67-118.58c-1.22-0.81-1.52,1.12-2.33,0.2c0.51-3.14,1.01-4.46,2.94-6.8
		c-2.03-4.06-0.2-8.22,0.61-12.27c1.52,2.94-0.91,5.98,0.61,8.93c0.17-2.4,6.7-22.13-0.71-38.65c-5.84-13-15.7-17.92-29.31-13.9
		c-14.05,4.15-11.91,4.79-21.4,27.49c1.93,1.52,4.46,0.81,6.8,2.23c-7.97,2.55-6.24-5.13-10.24,10.45
		C749.24,374.4,730.92,382.98,730.92,422.23z M735.18,377.9c-2.84-4.67-2.43-3.65-11.87-5.38c-1.32,1.83-1.22,3.65-1.93,6.19
		C726.15,376.28,730.52,376.79,735.18,377.9z M725.85,379.93c-1.33-0.27,0.13-0.26-4.56,0.91c-0.91,1.32-1.12,2.74-1.42,4.97
		C721.69,383.18,724.84,382.98,725.85,379.93z M675.94,382.16c14.65,3.4,19.13,13.62,34.08,21.2c12.13-19,7.33-31.64,22.52-63.8
		c3.26-6.9,2.81-7.81,15.32-11.77c3.15-1,6.49-1.12,9.84-1.42c-0.3-1.22-1.52-1.53-2.33-1.72c-7.69-1.82-14.41-6.06-22.21-7.81
		c-3.55-0.8-7.3-2.23-10.85-3.65c-4.74-1.89-6.6,1.37-14-6.29c-5.42-5.61-5.88-2.61-23.94-7.51c2.11-3.08,3.59,0.2,16.03,0.81
		c9.2,0.45,10,10.15,16.94,9.43c-0.61-3.96-0.49-7.73-4.56-10.14c-2.43-1.44-4.14-4.08-6.49-5.88c-2.58-1.97-1.86-6.02,5.78,1.83
		c6.67,6.84,6.64,3.33,7.4,14c1.72,1.12,2.03-0.2,2.64-1.22c1.52-2.95,5.58-10.75,8.82-11.26c-0.43,1.33-7.62,11.78-8.62,13.29
		c1.28,0.11,8.99,3.18,8.22,3.96c1.49,1.61,9.39,1.88,13.8,4.16c2.13-3.14,2.84-6.8,5.88-9.23c-1.12,3.35-1.72,7-3.85,10.14
		c4.97,2.23,9.13,6.59,15.11,3.55c0.1,1.52-1.22,1.42-1.62,2.43c6.39,3.25,13.19,6.09,16.43,14c1.83-3.04,3.35-5.17,4.56-7.51
		c9.72-18.62,32.22-4.04,8.52-17.24c-4.25-2.37-7.21-6.71-13.9-5.07c0.71-1.42,2.23-0.91,2.23-2.13c-0.1-0.2-0.1-0.61-0.2-0.61
		c-12.06-1.98-19.7-11.34-26.78-6.8c-2.35,1.5-5.17,2.43-7.81,3.55c-0.1-0.2-0.3-0.41-0.41-0.61c8.63-6.31,9.17-5.34,6.19-8.32
		c-9.8-1.87-10.32,8.89-14.1,16.53c-4.37,8.86-7.03-2.5,3.14-12.67c1.01-1.01,2.23-1.62,3.25-3.14c-0.81-0.3-1.62-0.3-2.23,0.2
		c-5.69,4.66-9.93-2.1-14.71-0.2c-2.12,0.84-3.35,0.1-4.36-1.93c-1.52,1.12-3.04,2.13-4.56,3.25c-0.51-2.84,2.94-7.4,6.9-9.33
		c1.12-8.43-11.12-0.23-17.85,1.12c-1.72-2.74-1.72-2.74-5.88-1.93c1.62,1.12,3.75,1.01,4.97,3.04c-2.74,1.42-5.07-0.81-7.51-0.41
		c-0.91,0.91,0.81,1.62,0.1,2.64c-1.52-0.71-1.42-2.64-3.14-3.85c-13.69,5.98-28.4,9.43-43.62,11.36c-0.3,1.12,1.52,0.2,1.52,1.72
		c-4.87,1.83-10.24,1.62-15.52,2.33c4.01-1.18,6.78-1.21,4.67-3.85c-1.83-0.1-0.91,1.62-1.83,1.93c-0.91,0-0.81-1.53-1.93-1.32
		c-2.13,0.4-2.13,2.74-3.55,4.56c-0.91-2.84-3.25-3.35-5.27-4.56c1.2,3.98,0.24,2.9,3.25,3.65c-1.22,1.52-3.25,0.91-4.36,2.33
		c5.27,1.01,5.98,1.62,7.51,5.98c1.22,0.2,2.03-1.22,3.96-0.61c-22.56,16.25-13.13,14.13-21.3,26.78c-2.43-0.41-2.22-1.62-1.52-3.14
		c1.95-4.25,3.75-8.62,6.59-12.88c-1.12-0.61-3.14,0-3.14-2.13c1.52-1.52,2.94,0,4.56,0.2c2.43-1.93,4.97-3.96,7.4-5.88
		c0.22-2.68-2.55-6.38-5.48-3.85c-15.98,13.75-11.61,9.9-14.4,14.1c-4.1-5.07,11.63-11.07,13.8-18.06
		c-2.94,0.41-5.48,1.83-8.32,2.94c-4.09-13.45-1.3-1.61-1.42-0.3c-2.42-0.14-1.36-3.4-3.04-4.87c0.8,3.61,1.43,7.13-1.72,11.26
		c-6.7,8.78,2.7,11.42,2.13,19.68c-0.42,6.19,1.19,12.18,2.84,18.06c1.4,4.98,5.38,8.51,10.24,10.55
		C665.42,380.87,661.63,378.85,675.94,382.16z M663.98,382.57c-1.34-2.23-22.56-7.97-35.81-14c-14.42-6.57-10.18-8.64-15.22-9.03
		c-15.62,0,3.33-2.81,11.46,23.94C637.5,383.58,650.59,381.86,663.98,382.57z M614.58,425.48c11.8-14.81,13.75-39.02,0-56.3
		c-13.43-16.88-37.22-16.63-50.51,0.3c-12.58,16.03-12.36,40.15,0.41,55.99C577.78,442,601.36,442.07,614.58,425.48z M570.05,434.1
		c-0.51-1.01-1.01-1.32-1.83-1.42c-19.89-19.14-20.17-46.08-5.38-65.12c2.73-3.51,5.43-5.16,7.3-7.2
		C541.62,373.62,544.86,424.94,570.05,434.1z M562.44,431.67c-14.31-13.12-17.7-32.79-12.48-49.5c0.9-2.9,4.03-22.36,2.74-24.95
		c-40.06,5.98-35.73,76.4,5.78,75.47C559.7,432.65,561.02,432.88,562.44,431.67z"/>
	<path d="M190.27,67.11c-2.43-1.32-3.85,2.74-6.49,2.03c0.1-0.41,0-0.71,0.1-0.81c4.62-4.52,10.34-4.35,16.13-3.55
		c2.23,0.31,2.84,2.03,2.94,3.85c-1.12,1.12-2.33,0.21-3.35,1.01c-0.91,0.72-0.51,1.93-1.22,2.54c-4.06,0.71-8.11,1.01-12.27,0.1
		c3.45-2.03,7.1-3.14,11.26-3.65C195.04,66.7,192.51,68.32,190.27,67.11z"/>
	<path d="M650.89,64.67c3.86,0.27,4.06,0.71,4.67,4.26c-0.91,1.01-2.33-0.1-3.35,1.01c-0.71,0.51-0.41,1.62-1.01,2.33
		c-4.06,0.71-8.11,1.01-12.27,0.2c3.14-2.54,6.9-3.14,11.16-3.75c-2.13-2.03-4.79-0.27-7-1.42c-2.46-1.28-3.85,2.74-6.39,2.13
		C635.71,67.48,641.02,63.98,650.89,64.67z"/>
	<path d="M622.89,104.23c-1.43-4.66-2.43-9.33-1.83-14.4c1.62,4.97,2.54,10.24,5.38,15.01c1.51,1.14,19.32,9.19,11.67,10.04
		C633.4,110.18,623.58,106.47,622.89,104.23z"/>
	<path d="M656.27,106.26c0.61-2.13,1.72-3.92,4.26-3.75C672.07,103.24,662.24,109.67,656.27,106.26z"/>
	<path d="M215.23,98.86c-4.97,1.22-10.04,2.15-15.11,2.74c-0.91,0.11-1.62-0.3-1.62-1.42c0.51-0.41,14.2-3.04,15.11-3.04
		C214.41,97.13,214.92,97.54,215.23,98.86z"/>
	<path d="M667.93,98.35c-0.1,0.2-0.2,0.71-0.51,0.81c-15.34,2.56-16.67,3.65-15.93,0.3C662.63,99.02,667.09,95.4,667.93,98.35z"/>
	<path d="M634.25,114.88c5.27,6.29,7.2,14.1,9.84,21.61C640.54,129.39,638.11,121.78,634.25,114.88z"/>
	<path d="M621.47,466.66c0.51-0.1,0.91-0.2,1.32-0.3C628.23,488.1,622.37,480.17,621.47,466.66z"/>
	<path d="M168.67,466.66c0.41-0.1,0.91-0.2,1.42-0.3C175.13,486.52,170.06,482.31,168.67,466.66z"/>
	<path d="M698.16,532.39c5.78,0.41,11.16,2.94,17.45,3.96C712.66,537.67,701.71,535.03,698.16,532.39z"/>
	<path d="M245.25,532.8c5.88-0.2,11.16,2.74,16.84,3.96C256,537.26,250.73,534.42,245.25,532.8z"/>
	<path d="M206.7,91.55c-4.32-2.59,3.73-5.9,6.69-2.94C211.98,91.76,207.92,88.51,206.7,91.55z"/>
	<path d="M659.41,91.55c-3.86-2.73,3.46-5.69,6.8-3.14C664.89,91.86,660.63,88.41,659.41,91.55z"/>
	<path d="M618.94,104.54c0.2,2.74,0.41,5.48,0.71,8.22C617.72,110.12,617.42,107.17,618.94,104.54z"/>
	<path d="M19.96,502.16c0.2-3.25,1.22-5.48,2.54-7.71C22.3,496.99,21.99,499.53,19.96,502.16z"/>
	<path d="M472.77,502.16c0.2-3.25,1.22-5.48,2.54-7.71C475.2,496.99,474.9,499.53,472.77,502.16z"/>
	<path d="M653.43,127.97c0.1,2.13-0.91,3.85-1.93,5.68C650.89,131.32,651.9,129.49,653.43,127.97z"/>
	<path d="M660.42,162.56c0.91,1.42,2.23,2.33,2.33,4.36C660.32,164.99,660.32,164.99,660.42,162.56z"/>
	<path d="M655.15,152.52c-0.2-2.84,1.32-3.65,2.64-4.56C658.74,148.43,658.64,147.96,655.15,152.52z"/>
	<path d="M620.26,119.55c-1.42-1.12-1.72-2.23-0.91-3.75C620.87,116.81,620.56,118.03,620.26,119.55z"/>
	<path d="M654.54,155.46c1.52,0.3,2.23,0.91,2.54,2.43C655.56,157.69,655.25,156.57,654.54,155.46z"/>
	<path d="M655.35,121.98c-0.2-0.91-0.41-1.83,1.12-2.13C656.47,120.87,656.87,121.88,655.35,121.98z"/>
	<path d="M620.16,123.3c-0.71-0.91-0.61-1.52-0.1-2.23C620.97,121.78,621.17,122.39,620.16,123.3z"/>
	<path d="M665.29,142.37c-0.91,0.1-1.72,0.1-2.03-1.32C664.28,140.95,665.09,140.95,665.29,142.37z"/>
	<path d="M650.38,145.11c-0.91-0.1-1.22-0.51-0.81-0.91C649.88,143.99,650.18,144.5,650.38,145.11z"/>
	<path d="M661.64,141.05c-1.01-0.91-1.93-0.91-1.32-2.03C660.83,139.23,661.34,139.43,661.64,141.05z"/>
	<path d="M242,345.45c7.23-5.54,16.64-6.29,24.45-11.87c-0.52,5.67-14.37,5.83-24.95,15.01c-2.28,1.98-14.91,7.19-20.29,10.75
		c-8,5.3-17.04,7-26.37,7.81c-0.51,0-1.01-0.1-1.22-1.42c8.52-1.93,16.64-5.36,24.24-9.84C225.58,351.34,234.93,350.86,242,345.45z"
		/>
	<path d="M242.31,334.59c-27.7,6.04-52.27,23.94-54.27,20.69c21.91-11.56,44.33-21.4,67.96-28.4
		C252.05,330.74,247.58,333.44,242.31,334.59z"/>
	<path d="M257.52,376.59c11.84-18.45-0.41,21.08-20.59,4.87C245.7,382.47,253.55,382.77,257.52,376.59z"/>
	<path d="M188.04,345.34c17.63-19.83,12.73-20.2,14.71-28.6C205.59,327.09,199.4,339.56,188.04,345.34z"/>
	<path d="M239.37,356.5c0.41-0.41,0.91-0.91,1.83-0.3c-9.92,12.08-27.89,12.05-27.89,19.37
		C207.47,370.03,226.01,367.37,239.37,356.5z"/>
	<path d="M226.08,298.99c-6.63-2.24-6.51-0.58-15.01,3.25C218.1,288.37,239.06,303.38,226.08,298.99z"/>
	<path d="M205.79,303.45c-4.67,3.14-9.64,5.58-15.22,6.09C195.24,306.19,203.36,302.84,205.79,303.45z"/>
	<path d="M250.22,298.28c-1.34,2.69-7.87-3.04-10.14-5.48C240.92,291.53,238.95,290.88,250.22,298.28z"/>
	<path d="M217.86,317.45c-1.01-2.43-2.64-4.67-1.12-7.4C218.67,312.28,218.37,314.81,217.86,317.45z"/>
	<path d="M237.14,253.04c-1.32-6.69-3.04-12.78-2.33-19.68C237.14,237.72,238.45,248.57,237.14,253.04z"/>
	<path d="M239.98,271.4c0.41-5.27-2.54-9.84-3.25-15.72C240.38,259.63,242,267.75,239.98,271.4z"/>
	<path d="M231.25,216.52c1.42,3.04,2.23,6.19,2.33,9.64C232.17,223.01,231.35,219.87,231.25,216.52z"/>
	<path d="M224.46,258.62c3.96-1.01,7.4-1.62,10.85-2.84C232.06,258.41,228.41,259.33,224.46,258.62z"/>
	<path d="M173.84,278.3c3.35,0.71,4.67,2.13,5.07,5.17C175.26,281.14,174.85,280.73,173.84,278.3z"/>
	<path d="M232.17,204.15c2.03-0.41,4.16-1.01,6.19,0C236.22,204.86,234.19,204.96,232.17,204.15z"/>
	<path d="M232.37,233.66c-1.12,1.62-2.64,2.13-4.97,1.93C229.22,234.37,230.54,233.36,232.37,233.66z"/>
	<path d="M215.23,260.54c1.62-1.22,3.55-1.01,5.38-1.12C219.08,261.15,217.05,260.14,215.23,260.54z"/>
	<path d="M179.32,285.19c1.93-0.2,2.64,0.71,3.04,2.64C180.74,287.42,179.62,286.92,179.32,285.19z"/>
	<path d="M211.98,205.16c0.16-0.05,0.31-0.08,0.48-0.12C214.07,204.64,223.82,205.16,211.98,205.16z"/>
	<path d="M182.56,290.06c1.52,0.2,2.13,0.71,2.03,2.13C183.48,291.89,182.66,291.58,182.56,290.06z"/>
	<path d="M211.57,261.46c-0.41,0.71-0.81,0.61-1.52,0.2C210.66,261.05,211.17,260.95,211.57,261.46z"/>
	<path d="M183.98,293.71c1.42-0.2,1.42,0.41,1.42,1.32C184.59,294.83,184.19,294.52,183.98,293.71z"/>
	<path d="M221.62,188.32c-0.2,0-0.51,0-0.61,0C219.72,187.03,222.11,186.83,221.62,188.32z"/>
	<path d="M320.62,340.68c-9.15-8.48-15.98-3.22-17.35-8.42C309.86,334.29,316.76,334.39,320.62,340.68z"/>
	<path d="M291.4,406.61c0-0.71,0.3-1.32,1.12-1.52c0.2-4.87,0.3-9.64,0.41-14.51c3.99,0,0.99,10.88-0.18,14.65
		C293.86,405.97,291.4,426.84,291.4,406.61z"/>
	<path d="M308.34,349.2c3.25,1.72,5.88,4.06,9.03,5.48C313.62,355.18,309.86,352.95,308.34,349.2z"/>
	<path d="M318.18,392.41c-0.57,0.57-4.89-3.78-6.49-6.39C314.53,387.54,316.86,389.47,318.18,392.41z"/>
	<path d="M299.62,502.06c-0.2,2.23,1.22,4.36-0.1,6.49C298.71,506.42,298.81,504.29,299.62,502.06z"/>
	<path d="M291.4,418.07c1.01,1.42,0.81,2.84,0.1,4.87C290.39,420.1,290.39,420.1,291.4,418.07z"/>
	<path d="M301.85,333.48c-1.93-0.91-3.45-1.52-5.27-2.33C300.43,331.14,300.43,331.14,301.85,333.48z"/>
	<path d="M320.62,396.77c-2.68-1.41-3.13-3.97-2.33-4.36C319.5,393.53,320.62,394.64,320.62,396.77z"/>
	<path d="M293.63,382.67c1.42,1.83,1.01,3.65,0.91,5.78C293.33,385.01,293.33,385.01,293.63,382.67z"/>
	<path d="M299.72,509.77c0.1,1.83,0.41,3.14-1.52,4.67C298,512.51,297.69,511.19,299.72,509.77z"/>
	<path d="M322.75,360.15c-1.62-0.3-1.32-1.52-1.72-3.14C322.54,358.12,323.56,358.73,322.75,360.15z"/>
	<path d="M310.37,384.7c-1.32-0.51-1.72-1.32-1.72-2.54C309.56,382.77,310.57,383.28,310.37,384.7z"/>
	<path d="M290.19,435.52c-0.81-1.12-0.71-1.72,0.1-2.43C291.4,434,291.2,434.71,290.19,435.52z"/>
	<path d="M287.85,361.67c-0.81,0.51-1.32,0.2-1.83-0.71C287.14,360.46,287.65,360.66,287.85,361.67z"/>
	<path d="M290.79,439.17c0.41,0.61,0.51,1.12-0.2,1.93C289.98,440.29,289.78,439.68,290.79,439.17z"/>
	<path d="M321.43,400.63c-0.81-0.41-1.52-0.61-1.01-1.52C321.33,399,321.63,399.51,321.43,400.63z"/>
	<path d="M324.78,347.58c-0.61-0.41-0.81-0.91-0.61-2.03C325.38,346.26,325.38,346.87,324.78,347.58z"/>
	<path d="M284.81,360.36c-1.01,0.61-1.52,0.2-1.83-0.71C284,359.14,284.61,359.34,284.81,360.36z"/>
	<path d="M289.78,445.87c0,0.81,0.41,1.42-0.41,2.13C289.17,447.18,288.56,446.58,289.78,445.87z"/>
	<path d="M370.73,354.78c1.22,1.32,1.01,2.13-0.41,4.06c-2.33-3.55-3.95-7.61-7.71-9.94c-4.26-2.64-3.55-7-3.85-10.96
		c1.93,1.83,1.62,4.36,2.13,7.1C365.55,346.66,367.28,351.53,370.73,354.78z"/>
	<path d="M368.09,403.16c-1.93-2.23-2.62-5.08-3.75-7.61c-1.1-2.44-3.96-3.96-4.36-7C364.44,392.61,367.58,397.18,368.09,403.16z"/>
	<path d="M367.68,406.1c3.14,2.43,3.75,4.56,2.33,8.42C369.2,411.68,366.97,409.45,367.68,406.1z"/>
	<path d="M356.42,331.45c-3.14-1.62-6.19-3.55-9.53-4.87C350.84,326.78,354.39,327.59,356.42,331.45z"/>
	<path d="M370.02,489.48c-2.03-2.74-2.94-7.71-1.62-9.74C368.7,482.99,370.12,485.93,370.02,489.48z"/>
	<path d="M355.51,384.6c-2.13-1.62-1.62-3.65-2.03-5.38C355.21,380.54,355.61,382.16,355.51,384.6z"/>
	<path d="M369.61,421.22c-0.2,0.3-0.41,0.3-0.51,0c-0.3-1.42-1.93-2.64-0.81-4.46C370.12,418.48,370.12,418.48,369.61,421.22z"/>
	<path d="M367.89,428.32c-0.81-1.22-0.81-2.43,0-3.96C369.41,425.78,368.39,427.1,367.89,428.32z"/>
	<path d="M366.36,474.88c-1.32-0.91-1.12-2.03-0.71-3.14C366.36,472.65,366.77,473.56,366.36,474.88z"/>
	<path d="M186.11,224.64c2.84-12.78,6.59-24.85,10.45-37.02C196.97,194.21,189.16,221.39,186.11,224.64z"/>
	<path d="M147.87,253.34c5.48-2.13,8.82-6.39,13.29-10.14c-1.42,4.06-7.81,9.53-12.88,11.56c-5.98-2.03-8.42-4.67-7.3-8.62
		C142.7,249.49,145.24,251.41,147.87,253.34z"/>
	<path d="M119.37,173.51c1.01,6.09,3.85,11.16,6.9,16.13C121.19,186.19,117.54,177.67,119.37,173.51z"/>
	<path d="M185.71,226.97c-1.62,3.85-1.72,8.52-5.48,11.46C181.45,234.37,183.17,230.52,185.71,226.97z"/>
	<path d="M143.21,203.23c-1.12,3.65-4.67,5.38-5.48,8.82C137.32,209.12,140.37,204.15,143.21,203.23z"/>
	<path d="M171.51,201.41c-0.91-4.26-0.61-7.81,1.01-9.84C172.42,194.81,173.23,197.96,171.51,201.41z"/>
	<path d="M123.73,155.86c-0.6-3.44,2.32-4.48,3.72-6.35c0.06-0.11,0.83,0.11,1.16,0.97C126.37,151.5,126.57,154.85,123.73,155.86z"
		/>
	<path d="M128.4,191.77c1.42,0.71,2.23,1.12,2.94,1.62c0.71,0.51,1.93,0.3,1.93,1.93C131.44,194.71,129.31,194.92,128.4,191.77z"/>
	<path d="M153.05,255.27c1.93-1.93,3.96-2.13,6.59-2.84C157.71,254.66,155.78,255.27,153.05,255.27z"/>
	<path d="M180.33,238.53c0.1,1.42-0.41,2.33-1.72,2.74C178.81,240.05,179.11,238.94,180.33,238.53z"/>
	<path d="M134.48,195.12c1.42,0.3,2.33,0.61,2.84,2.23C135.9,197.05,134.99,196.84,134.48,195.12z"/>
	<path d="M137.53,221.29c-0.51-0.71-1.12-1.42-0.2-2.64C138.03,219.56,138.64,220.27,137.53,221.29z"/>
	<path d="M168.97,209.32c-0.41,1.01-0.3,2.13-2.13,2.33C167.25,210.54,167.04,209.32,168.97,209.32z"/>
	<path d="M152.74,196.44c-0.3,1.22-1.01,1.72-2.43,1.72C150.92,196.64,151.52,196.03,152.74,196.44z"/>
	<path d="M171.41,203.33c0.61,1.01,0.1,1.62-0.71,2.13C170.39,204.45,170.19,203.64,171.41,203.33z"/>
	<path d="M136.92,213.88c1.12,0.41,0.81,1.01,0.41,1.72C136.31,215,136.41,214.49,136.92,213.88z"/>
	<path d="M145.13,198.47c-0.2,0.51-0.61,0.51-1.32,0.2C144.28,197.28,145.43,198.17,145.13,198.47z"/>
	<path d="M140.26,198.67c0-1.09,1-0.94,1.42-0.1C141.18,199.18,140.77,198.97,140.26,198.67z"/>
	<path d="M165.83,204.75c0.2-0.41,0.3-0.81,0.51-1.22C166.44,203.94,167.35,205.06,165.83,204.75z"/>
	<path d="M165.12,246.24c0,0.61-0.3,0.81-1.01,1.01C164.1,246.14,164.41,245.94,165.12,246.24z"/>
	<path d="M300.63,226.06c1.32-4.56,2.74-9.13,6.29-12.68C304.18,217.33,303.58,222.3,300.63,226.06z"/>
	<path d="M291.5,240.16c-2.23,2.33-5.38,3.14-8.22,4.46C285.62,242.59,288.36,240.97,291.5,240.16z"/>
	<path d="M288.26,237.52c-2.43,0.41-4.67,0.41-7-0.1C284.51,236.5,286.23,236.5,288.26,237.52z"/>
	<path d="M292.32,199.68c-1.12,2.84-2.43,5.58-4.67,7.71C288.46,204.45,290.39,202.02,292.32,199.68z"/>
	<path d="M264.02,227.07c-2.03,1.22-4.16,1.42-7,0C259.86,225.85,261.99,227.07,264.02,227.07z"/>
	<path d="M298.13,231.93c1.12-3.96,3.61-0.77-4.9,6.5c-0.64-0.64-1.18,0.23,4.87-6.49C298.11,231.94,298.12,231.93,298.13,231.93z"
		/>
	<path d="M284.51,251.52c-1.32,1.01-2.64,2.03-3.96,3.14C281.26,252.73,282.58,251.72,284.51,251.52z"/>
	<path d="M278.32,222.51c-0.22,0.4-2.12,3.05-2.64,2.54C276.09,223.62,276.9,222.81,278.32,222.51z"/>
	<path d="M285.66,210.83c-0.17,0.61,0.35,1.09-1.36,2.95C284.56,212.56,284.76,211.56,285.66,210.83z"/>
	<path d="M285.66,210.83c0.23-1.42,0.84-2.57,2.09-3.34C287.56,208.86,286.88,210.03,285.66,210.83z"/>
	<path d="M304.89,199.58c-0.41-1.42-0.1-2.23,1.12-2.94C306.31,197.96,306.21,198.87,304.89,199.58z"/>
	<path d="M280.65,254.76c0,0.61,0.1,1.32-1.01,1.32C279.74,255.47,280.04,254.96,280.65,254.76z"/>
	<path d="M306.11,193.5c0.66-1.32,2.24,0.43,0.2,1.01C306.31,194.21,306.11,193.8,306.11,193.5z"/>
	<path d="M294.04,216.93c0-0.62,0.93-0.53,0.51-0.1C294.45,217.03,294.04,217.13,294.04,216.93z"/>
	<path d="M274.16,227.07c0.04-0.01,0.08-0.03,0.12-0.05C274.28,227.24,274.26,227.17,274.16,227.07z"/>
	<path d="M275.58,225.04c0.12,0-0.04,1.53-1.3,1.98C274.32,226.19,274.72,225.52,275.58,225.04z"/>
	<path d="M274.26,227.17c0,0.61,0,1.32-1.01,1.32C273.45,227.88,273.55,227.27,274.26,227.17z"/>
	<path d="M195.85,169.05c-2.34,4.36-5.27,8.52-10.04,10.65c30.19-27.44,0.72-71.12-21.2-67.76c-18.5,2.84-22.9,17.99-25.05,18.56
		c1.32-5.98,5.26-9.86,9.33-13.29C177.48,93.13,213.23,136.69,195.85,169.05z"/>
	<path d="M156.9,139.63c1.98,0.22,14.95-3.36,15.42,10.55c0.19,5.68-3.65,9.79-9.03,10.04c-2.64,0.13-4.56-1.22-7.2-2.84
		c4.77,5.48,10.35,4.97,16.03-0.81c-3.35,6.9-12.32,8.15-16.64,2.64C147.95,149.59,153.73,139.28,156.9,139.63z M163.29,157.69
		c8.42,0.13,8.7-15.93-0.41-15.93C154.28,141.76,154.38,157.55,163.29,157.69z M155.89,142.07c-0.2,0.3-0.41,0.51-0.61,0.91
		C155.99,143.18,155.99,142.57,155.89,142.07z M153.96,146.02c-1.52,2.23-1.12,4.46,0,6.69
		C153.96,150.49,153.96,148.26,153.96,146.02z"/>
	<path d="M177.59,184.37c-0.91,0.51-1.62,0.61-2.33,0C176.07,183.25,176.68,183.25,177.59,184.37z"/>
	<path d="M137.73,135.47c-0.1-1.01-0.1-2.13,1.32-3.25C138.74,133.65,138.74,134.66,137.73,135.47z"/>
	<path d="M136.82,149.17c0.51,0.61,0.61,1.12,0.2,1.93C136.21,150.39,136.11,149.88,136.82,149.17z"/>
	<path d="M136.71,140.34c0-0.92,0.71-0.2,0.1,0.61C136.71,140.75,136.61,140.55,136.71,140.34z"/>
	<path d="M315.04,173.41c-3.13,3.46-6.8,6.49-11.77,7.51c28.84-18.22,22.11-51.42,5.07-65.53c-11.87-9.83-23.38-3.81-34.08,2.84
		c-1.82,1.13-2.74,3.25-4.56,4.46c0.3-1.83,1.33-3.24,2.64-4.36C310.36,85.61,342.29,143.34,315.04,173.41z"/>
	<path d="M281.67,136.39c1.81-1.44,3.25-0.29,4.97-0.3c9.74-0.1,12.46,9.12,9.13,15.93c-4.15,8.47-12.31,3.67-13.8,4.46
		c4.97,2.43,9.23,2.33,13.19-1.32c-1.52,2.74-3.55,4.36-6.69,4.46C276.33,160.01,272.5,143.65,281.67,136.39z M281.16,138.82
		c1.22,0.1,1.72-1.01,3.35-1.83C282.38,137,281.97,138.21,281.16,138.82z M287.55,154.65c9.12-0.26,8.99-15.61,0.71-15.72
		C279.18,138.8,279.09,154.89,287.55,154.65z M279.1,151.11c0.32,1.3-0.14,1.87,1.04,2.93c0.81-1.77-4.51-4.09,1.12-15.11
		C277.73,142.25,276.87,147.29,279.1,151.11z"/>
	<path d="M294.55,183.76c-1.01,0.3-1.83,0.41-2.23-0.71C293.33,182.34,293.94,182.95,294.55,183.76z"/>
	<path d="M266.15,127.26c0.2-0.91,0.51-1.83,1.72-2.64C266.75,127.77,266.75,127.77,266.15,127.26z"/>
	<path d="M262.19,142.07c-0.81-0.91-0.71-1.42,0.61-1.83C262.8,140.95,263,141.46,262.19,142.07z"/>
	<path d="M143.21,302.34c2.77,2.37,0.8,26.45,4.97,40.07C145.13,339.36,141.28,308.22,143.21,302.34z"/>
	<path d="M149.39,352.75c-9.55,18.37-7.23,15.34-8.93,14.91c1.83-5.58,5.38-10.24,8.01-15.42
		C148.79,352.44,149.09,352.65,149.39,352.75z"/>
	<path d="M154.36,360.66c-0.2-1.83-0.51-3.65,0.61-6.19C156.19,357.21,155.28,358.94,154.36,360.66z"/>
	<path d="M149.9,344.94c0.91,1.01,1.83,1.93,2.74,2.94C150.1,347.88,148.65,345.56,149.9,344.94z"/>
	<path d="M158.83,366.24c-0.51-1.32-0.61-2.54,0-4.46C160.15,363.81,159.33,365.02,158.83,366.24z"/>
	<path d="M142.09,357.52c0.2-0.91,0.81-1.01,1.52-1.01C143.31,357.11,142.9,357.52,142.09,357.52z"/>
	<path d="M144.93,355.59c-0.41,0.61-0.81,0.91-1.42,0.91C143.71,355.79,144.22,355.69,144.93,355.59z"/>
	<path d="M296.17,543.24c6.65,1.21,4.28,10.88-2.03,9.33c-1.31-0.32-2.43-1.12-3.96-1.01C290.31,549.65,289.85,542.09,296.17,543.24
		z M294.34,550.55c3.88,1.16,4.88-4.36,1.93-5.17c-1.92-0.53-3.14,0.3-3.55,2.64C294.75,548.52,294.75,548.52,294.34,550.55z"/>
	<path d="M305.6,545.27c6.42,0,6.68,9.3,0.3,9.53C299.32,555.05,299.39,545.27,305.6,545.27z M305.81,552.88
		c3.44-0.61,3.31-5.79-0.3-5.58C302.51,547.48,302.03,552.66,305.81,552.88z"/>
	<path d="M312.4,547.81c2.32-1.74,4.67-0.3,7.1,0.2c-0.41,3.14-0.91,5.88-1.72,8.52c-2.94,0.51-0.72-2.31-2.03-2.74
		c-2.04-0.67-2.64,2.84-4.97,1.62c0-1.42,1.52-1.72,1.42-2.94C311.39,550.95,310.67,549.11,312.4,547.81z M316.25,551.56
		c0.91,0,0.91-1.01,0.91-2.03C313.15,547.52,312.3,551.56,316.25,551.56z"/>
	<path d="M348.51,552.98c-3.65,3.55-11.06,4.56-13.9,1.42C339.18,551.87,343.64,550.85,348.51,552.98z"/>
	<path d="M303.37,310.96c-2.23,2.84-4.26,5.98-7.71,7.51C297.59,315.32,300.33,312.99,303.37,310.96z"/>
	<path d="M289.58,310.15c0.61-0.71,0.81-1.12,1.52-1.93C290.9,309.64,290.59,309.94,289.58,310.15z"/>
	<path d="M311.89,323.03c-1.23,0-0.17-0.1,0.2-0.1C311.99,322.93,311.99,323.03,311.89,323.03z"/>
	<path d="M690.35,252.43c-1.83-5.98-3.35-12.07-2.43-18.56C690.25,239.85,690.65,246.14,690.35,252.43z"/>
	<path d="M625.43,208c8.11,0.81,15.82,1.32,23.43-1.42C642.98,210.43,628.88,211.35,625.43,208z"/>
	<path d="M689.84,256.08c3.35,3.25,4.97,11.36,2.84,15.32C693.8,266.02,689.84,261.56,689.84,256.08z"/>
	<path d="M624.42,276.47c-3.14-1.42-5.58-3.65-8.32-5.98C620.66,270.38,622.39,273.63,624.42,276.47z"/>
	<path d="M684.06,216.42c1.42,3.14,2.33,6.29,2.23,9.64C685.18,222.91,683.96,219.77,684.06,216.42z"/>
	<path d="M677.67,258.82c3.45-1.22,7-1.83,10.45-2.94C685.07,258.31,681.52,259.02,677.67,258.82z"/>
	<path d="M631.92,283.27c-2.23-1.12-4.36-2.54-5.17-5.07C629.39,278.9,631.31,280.43,631.92,283.27z"/>
	<path d="M684.97,204.15c2.13-0.71,4.16-1.01,6.19,0C689.13,204.86,687.1,204.96,684.97,204.15z"/>
	<path d="M652.92,206.17c2.84-0.41,5.27-1.12,8.32-0.61C657.28,207.09,655.45,207.19,652.92,206.17z"/>
	<path d="M680.51,235.19c1.52-0.91,2.84-1.93,4.87-1.93C683.65,235.49,683.45,235.59,680.51,235.19z"/>
	<path d="M607.27,234.78c2.54-0.61,3.45,0.41,4.26,2.33C609.61,237.21,608.49,236.61,607.27,234.78z"/>
	<path d="M668.03,260.54c1.62-1.22,3.55-1.01,5.38-1.12C671.89,261.15,669.86,260.14,668.03,260.54z"/>
	<path d="M635.27,287.93c-1.72-0.61-2.94-1.01-3.04-2.74C634.25,284.89,634.76,286,635.27,287.93z"/>
	<path d="M613.05,226.16c1.62-0.2,2.54,0,3.04,1.52C614.78,228.19,613.97,227.78,613.05,226.16z"/>
	<path d="M666.51,204.86c3.32,0,3.55-0.07,3.55,0.2C666.12,205.06,666.51,205.13,666.51,204.86z"/>
	<path d="M600.78,242.18c0.2,0.91,1.83,1.12,1.42,2.54C600.98,244.21,600.17,243.71,600.78,242.18z"/>
	<path d="M637.6,292.19c-1.22-0.3-2.03-0.61-2.23-2.03C636.79,290.16,637.3,290.67,637.6,292.19z"/>
	<path d="M614.47,238.63c-0.71,0.1-1.32,0.1-1.52-0.81C613.97,237.82,613.97,237.82,614.47,238.63z"/>
	<path d="M668.74,175.24c1.12,0.41,1.32,1.01,0.81,2.13C668.95,176.76,668.13,176.35,668.74,175.24z"/>
	<path d="M610.11,267.85c0.3,0.1,0.51,0.41,0.51,0.91C609.33,269.28,609.34,267.65,610.11,267.85z"/>
	<path d="M663.06,261.66c0.41-0.71,0.81-0.81,1.42-0.2C663.98,261.96,663.57,262.27,663.06,261.66z"/>
	<path d="M638.31,294.83c-1.12,0.2-1.42-0.2-1.32-1.12C638.01,293.51,638.21,294.02,638.31,294.83z"/>
	<path d="M673.61,187c0.61,0.51,1.22,0.71,0.61,1.32C673.51,188.32,673.41,187.92,673.61,187z"/>
	<path d="M610.52,251.11c-0.81,0.41-1.22,0.2-1.42-1.12C609.81,250.3,610.42,250.4,610.52,251.11z"/>
	<path d="M719.87,334.49c-7.92,6.52-15.71,5.8-24.55,13.09c-4.04,3.73-13.88,7.13-18.16,9.94c-8.75,5.75-18.26,8.93-28.71,9.64
		c-0.81,0-1.62,0.3-2.13-1.52c13.19-2.43,23.83-10.88,36.42-14.91C695.51,346.63,706.07,337.94,719.87,334.49z"/>
	<path d="M662.96,343.92c7.1-4.26,15.41-5.6,22.82-9.23c7.29-3.57,14.81-6.9,23.13-7.61c-12.09,11.14-28.07,8-54.88,23.63
		c-3.97,2.31-8.42,3.75-12.68,5.58C639.68,352.95,641.11,357.03,662.96,343.92z"/>
	<path d="M715,370.8c0.53,9.71-18.52,20.9-25.46,10.14C705.28,384.88,709.08,378.04,715,370.8z"/>
	<path d="M641.05,345.55c7.27-10,14.47-13.51,14.2-28.81C658.8,327.8,651.4,340.27,641.05,345.55z"/>
	<path d="M692.58,356.3c0.3-0.3,0.71-0.71,1.42,0c-10.95,12.32-27.41,12.11-28.1,19.17C660.74,370.02,679.47,367.01,692.58,356.3z"
		/>
	<path d="M678.38,298.68c-5.33-1.75-5.69-0.81-14.2,3.45c4.67-7,14.91-8.11,18.87-2.54C681.22,300.41,679.81,299.15,678.38,298.68z"
		/>
	<path d="M643.18,308.93c5.38-1.32,9.64-5.38,15.22-5.88C655.56,306.49,646.73,309.74,643.18,308.93z"/>
	<path d="M693.29,291.99c2.16,1.32,8.24,5.06,10.14,6.69C698.77,298.58,694,295.23,693.29,291.99z"/>
	<path d="M670.47,317.45c-0.51-2.43-2.54-4.77-1.01-7.91C671.18,312.28,671.48,313.9,670.47,317.45z"/>
	<path d="M600.98,195.93c-3.35,4.56-8.42,5.58-12.78,7.71c4.26-4.36,10.35-6.39,13.19-11.77c6.59,4.67,12.98,8.93,17.24,15.62
		C612.24,204.45,604.43,203.84,600.98,195.93z"/>
	<path d="M593.17,151.1c-5.17,3.75-7.81,9.33-11.46,14.71c-1.34-3.07,2.74-5.85,3.96-11.26
		C586.48,150.89,590.03,149.57,593.17,151.1z"/>
	<path d="M587.7,147.24c-2.89-2.89,6.52-6.3,8.93-4.06c1.21,1.13,2.64,1.12,4.16,1.62C597.63,148.67,597.57,142.04,587.7,147.24z"/>
	<path d="M556.96,268.96c-3.96-5.98-0.41-12.38,4.87-15.93c-0.71,2.94-2.55,4.96-3.85,7.2
		C556.44,262.87,557.77,265.72,556.96,268.96z"/>
	<path d="M559.5,349.6c-0.3-3.75-0.81-7.51-1.62-11.16C560.31,341.9,560.92,345.55,559.5,349.6z"/>
	<path d="M554.93,321.41c2.03,3.65,2.84,9.13,2.03,13.19C556.05,330.43,555.24,326.27,554.93,321.41z"/>
	<path d="M562.95,178.08c0.91,3.45,1.93,7,2.84,10.45C563.05,185.1,561.05,178.08,562.95,178.08z"/>
	<path d="M575.22,223.22c1.12,3.14,0.61,5.38-0.81,7.91C573.19,227.78,573.29,226.26,575.22,223.22z"/>
	<path d="M579.38,275.45c-1.62-2.23-1.12-8.11,0.71-9.84C580.6,268.86,579.18,272.01,579.38,275.45z"/>
	<path d="M562.64,328.51c-2.64-2.43-3.04-5.58-3.65-8.72C560.38,319.32,559.56,318.24,562.64,328.51z"/>
	<path d="M589.32,227.68c0.81-4.26,1.62-8.01,2.43-11.77C591.96,220.88,591.04,225.14,589.32,227.68z"/>
	<path d="M579.78,152.52c2.03-1.72,4.26-3.25,7.61-3.85C585.06,151.5,582.32,151.7,579.78,152.52z"/>
	<path d="M560.11,353.76c-0.6,16.08-1.33,4.36-0.71,0C559.6,353.76,559.8,353.76,560.11,353.76z"/>
	<path d="M572.48,353.15c-1.01-2.43-1.12-4.77-0.41-7.2C572.58,348.39,573.49,350.72,572.48,353.15z"/>
	<path d="M602.91,186.9c-0.1-1.93,1.01-3.14,2.54-4.97C605.35,185.99,605.35,186.09,602.91,186.9z"/>
	<path d="M576.74,215.41c0.91,1.62,0.81,3.35-0.1,4.97C575.93,218.65,575.62,217.03,576.74,215.41z"/>
	<path d="M573.19,159.21c0.61-2.03,1.42-3.25,2.84-4.06C575.32,156.37,574.91,157.89,573.19,159.21z"/>
	<path d="M579.28,174.12c0.51-2.03-0.2-4.16,1.22-5.98C579.78,170.06,580.49,172.3,579.28,174.12z"/>
	<path d="M578.57,263.89c-1.22-1.01-1.52-2.03-0.91-3.65C578.67,261.46,579.28,262.47,578.57,263.89z"/>
	<path d="M607.27,180c0.3-1.12,0.61-2.13,1.93-2.74C609.2,178.89,608.69,179.7,607.27,180z"/>
	<path d="M587.7,197.96c-0.71,1.83-1.52,2.74-3.04,3.14C585.16,199.89,585.67,198.67,587.7,197.96z"/>
	<path d="M572.58,200.39c-1.72-2.03-1.72-2.03-1.93-3.75C571.47,197.76,572.28,198.47,572.58,200.39z"/>
	<path d="M572.58,334.29c0.2,0.71,0.1,1.32-0.61,1.83C572.18,335.61,571.36,334.79,572.58,334.29z"/>
	<path d="M611.94,173.11c0.3-1.12,0.61-1.93,1.93-2.33C613.76,171.89,613.36,172.7,611.94,173.11z"/>
	<path d="M578.97,178.18c-0.2-1.62-0.2-2.84,0.41-4.06C579.48,175.34,579.58,176.66,578.97,178.18z"/>
	<path d="M574.2,234.37c-1.01-0.61-1.42-1.22-0.61-2.33C574.81,232.65,574.81,233.46,574.2,234.37z"/>
	<path d="M557.87,272.11c-0.91-0.41-1.42-0.91-0.91-1.93C557.77,270.59,558.08,271.19,557.87,272.11z"/>
	<path d="M574.2,239.45c-0.71-0.71-1.22-1.32-0.61-2.43C574.71,237.62,574.91,238.33,574.2,239.45z"/>
	<path d="M564.06,250.7c-0.3,0.61-0.3,1.52-1.62,1.42C562.54,251.01,562.95,250.5,564.06,250.7z"/>
	<path d="M567.51,277.59c0.81,0.2,1.01,0.61,1.12,1.22C567.51,279.01,567.31,278.6,567.51,277.59z"/>
	<path d="M580.6,279.72c-0.41-0.3-0.41-0.71,0-1.12C580.6,279.01,581.31,279.21,580.6,279.72z"/>
	<path d="M572.07,288.44c0.81,0.2,1.12,0.51,0.81,1.42C572.18,289.66,571.67,289.35,572.07,288.44z"/>
	<path d="M579.68,206.38c0.2-0.61,0.51-1.01,1.22-0.91C581.31,206.78,580.9,207.19,579.68,206.38z"/>
	<path d="M574.71,242.29c-0.71-0.1-0.91-0.51-0.71-1.52C574.81,241.17,575.32,241.58,574.71,242.29z"/>
	<path d="M565.18,248.88c0.41,1.12-0.61,1.32-1.22,1.72C563.96,249.79,563.76,248.78,565.18,248.88z"/>
	<path d="M773.73,341.49c-8.87-9.27-16.75-4.45-17.45-8.62C764.7,333.37,772,336.72,773.73,341.49z"/>
	<path d="M744.21,406.31c0-1.22,1.28-1.09,1.01-1.22c0.71-17.01-0.29-14.4,1.72-14.4c1.72,4.97,0.2,9.74-1.32,14.61
		c0.61,3.55,0.2,6.8-1.12,10.04C744.21,412.29,744.21,409.35,744.21,406.31z"/>
	<path d="M761.45,349.4c2.94,1.83,5.88,3.55,9.23,5.38C766.63,355.28,762.87,353.05,761.45,349.4z"/>
	<path d="M773.42,396.87c-1.83-1.22-2.84-2.43-2.64-4.26C755.25,379.2,773.74,389.94,773.42,396.87z"/>
	<path d="M752.22,502.16c0.2,2.13,1.32,4.26,0.1,6.39C751.41,506.42,751.92,504.29,752.22,502.16z"/>
	<path d="M744.11,418.07c1.12,1.42,0.91,2.84,0.1,4.87C743.2,420,743.2,420,744.11,418.07z"/>
	<path d="M755.17,332.97c-1.75,0.33-4.08-1.03-5.68-1.83C751.72,331.04,753.34,331.14,755.17,332.97z"/>
	<path d="M746.64,382.57c1.12,1.93,0.91,3.65,0.51,5.38C747.05,386.32,745.53,384.8,746.64,382.57z"/>
	<path d="M752.43,510.28c0.2,1.42,0.41,2.74-1.01,3.75C750.7,511.6,750.7,511.6,752.43,510.28z"/>
	<path d="M775.55,360.36c-1.12-1.42-1.12-1.42-1.01-2.74C775.35,358.23,776.26,358.73,775.55,360.36z"/>
	<path d="M763.28,384.7c-1.42-0.3-1.62-1.32-1.83-2.43C762.47,382.67,763.28,383.28,763.28,384.7z"/>
	<path d="M742.99,435.52c-0.71-0.91-0.81-1.62,0-2.43C744.21,433.9,744.01,434.61,742.99,435.52z"/>
	<path d="M743.6,439.17c0.41,0.71,0.71,1.32-0.2,1.93C742.89,440.39,742.59,439.88,743.6,439.17z"/>
	<path d="M740.76,361.57c-0.91,0.71-1.52,0.41-1.83-0.61C739.75,360.36,740.36,360.56,740.76,361.57z"/>
	<path d="M774.24,400.52c-0.81-0.2-1.22-0.51-1.12-1.52C774.34,399.1,774.54,399.61,774.24,400.52z"/>
	<path d="M777.79,347.58c-0.71-0.3-0.91-0.91-0.81-2.33C777.99,346.16,778.29,346.76,777.79,347.58z"/>
	<path d="M735.79,359.65c0.81-0.51,1.42-0.41,1.93,0.61C736.6,360.96,736.2,360.56,735.79,359.65z"/>
	<path d="M742.28,447.89c-0.61-0.81-0.71-1.32-0.1-1.93C742.89,446.58,742.79,447.18,742.28,447.89z"/>
	<path d="M823.33,359.24c-2.54-4.06-4.26-8.11-8.11-10.55c-4.16-2.63-3.14-6.9-3.65-10.75c2.13,1.93,1.42,4.67,2.13,6.9
		C821.71,350.72,824.95,355.39,823.33,359.24z"/>
	<path d="M820.59,403.57c-1.52-2.54-2.27-5.15-3.35-7.71c-1.06-2.52-3.85-4.16-4.67-7.1C817.24,391.4,821.4,399.31,820.59,403.57z"
		/>
	<path d="M809.23,331.85c-1.72-1.01-3.62-1.75-4.77-3.04c-1.38-1.56-3.75-0.41-5.17-2.54C806.09,327.19,808.82,328.71,809.23,331.85
		z"/>
	<path d="M820.59,406c3.14,2.84,3.65,4.87,2.13,8.52C822.21,411.58,819.68,409.55,820.59,406z"/>
	<path d="M822.21,489.08c-1.22-2.94-1.83-5.98-1.83-9.13C821.81,482.28,822.72,486.54,822.21,489.08z"/>
	<path d="M807.91,384.19c-1.42-1.32-1.42-3.25-1.62-4.97C808.01,380.44,808.52,382.16,807.91,384.19z"/>
	<path d="M821.2,416.45c2.03,1.52,1.93,3.14,0.91,5.48C821.71,419.9,820.08,418.68,821.2,416.45z"/>
	<path d="M820.59,428.32c-0.51-1.32-0.81-2.54,0.2-4.06C822.01,425.88,821.3,427.1,820.59,428.32z"/>
	<path d="M818.87,475.08c-0.71-1.32-0.91-2.23-0.41-3.96C819.17,472.65,819.68,473.56,818.87,475.08z"/>
	<path d="M558.18,391.09c5.09-24.22,23.9-33.97,34.49-32.05c12.17,2.2,24.04,13.73,22.82,17.85c-1.73-4.57-10.65-14.03-24.04-15.93
		c-21.17-3-48.78,39.23-18.87,67.35c0.91,0.51,2.13,0.71,2.23,2.23C565.81,427.29,554.17,410.16,558.18,391.09z"/>
	<path d="M587.19,405.29c3.35,6.09,11.56,5.98,15.22-0.2c-15.27,13.81-26.79-17.04-4.77-17.04c0.3,0,0.51,0,0.71-0.1
		c4.37-2.53,13.11,10.47,3.55,20.59C595.47,415.33,583.86,407.29,587.19,405.29z M594.9,390.48c-3.55-0.05-6.85,3.85-6.8,8.01
		c0.05,3.96,3.24,7.86,6.59,7.91C603.42,406.54,603.73,390.61,594.9,390.48z M603.72,402.25c1.52-3.25,1.42-6.29-0.41-9.33
		C604.03,395.96,604.03,399.1,603.72,402.25z"/>
	<path d="M618.53,381.96c-1.01-0.91-1.22-1.93-1.52-3.25C618.27,379.03,619.13,380.97,618.53,381.96z"/>
	<path d="M585.97,433.8c-0.81,0.71-1.32,0.71-2.03,0.1C584.55,433.19,585.06,433.29,585.97,433.8z"/>
	<path d="M620.56,396.77c-0.3-0.61-0.3-1.12,0.71-2.13C621.47,395.86,621.78,396.57,620.56,396.77z"/>
	<path d="M749.59,543.24c6.46,1.18,4.67,10.77-1.83,9.33c-1.32-0.2-2.43-1.22-3.96-0.91C743.89,550.33,743.05,542.05,749.59,543.24z
		 M748.06,548.32c0.81,0.91,0,1.52-0.2,2.23c1.72,0.61,2.73-0.11,3.25-1.32c1.72-4.03-4.31-5.95-4.77-1.42
		C746.85,548.82,747.86,547.4,748.06,548.32z"/>
	<path d="M759.22,545.27c6.55,0.25,6.4,9.65,0,9.53C752.72,554.69,753.08,545.04,759.22,545.27z M759.02,552.88
		c3.48,0,3.5-5.22,0.51-5.48C756.06,547.11,755.59,552.68,759.02,552.88z"/>
	<path d="M773.12,548.01c-0.51,3.04-0.91,5.88-1.83,8.52c-2.74,0.3-1.01-1.93-1.72-2.64c-2.33-1.01-2.94,2.94-5.17,1.52
		c-0.1-1.42,1.42-1.72,1.42-2.84C764.09,548.1,765.16,546.02,773.12,548.01z M769.97,551.56c2.49-1.87-1.58-4.24-2.94-1.52
		C767.74,551.66,768.96,551.56,769.97,551.56z"/>
	<path d="M801.42,552.98c-3.75,3.55-11.06,4.56-13.9,1.42C792.09,551.87,796.55,550.85,801.42,552.98z"/>
	<path d="M589.22,309.03c0.81,2.43,1.42,4.87,1.42,7.71C589.01,314.3,588.61,312.07,589.22,309.03z"/>
	<path d="M599.77,349c1.22,1.93,1.62,3.96,1.32,6.29C599.67,353.46,599.67,351.23,599.77,349z"/>
	<path d="M593.17,326.48c0.91,2.23,1.83,4.56,1.72,7.1C594.19,331.24,592.97,329.01,593.17,326.48z"/>
	<path d="M756.08,310.96c-3.45,5.17-5.48,7.1-8.01,7.4C750.3,315.22,753.14,312.99,756.08,310.96z"/>
	<path d="M770.48,306.6c-0.3,0.51-0.71,0.61-1.12,0.3C769.57,306.29,769.97,306.39,770.48,306.6z"/>
	<path d="M742.59,310.04c0.51-0.61,0.71-1.01,1.42-1.83C743.7,309.64,743.5,309.94,742.59,310.04z"/>
	<path d="M764.19,322.93c0.3,0,0.51,0,0.71,0C764.7,322.93,764.5,323.33,764.19,322.93z"/>
	<path d="M166.84,148.86c-1.32-1.32-1.83-3.35-3.85-3.25c-2.23,0.3-2.74,2.43-3.85,4.36C158.91,141.77,167.71,140.71,166.84,148.86z
		"/>
	<path d="M158.83,151.91c-0.81-0.41-1.01-0.81-0.2-1.42C159.44,150.89,159.54,151.4,158.83,151.91z"/>
	<path d="M290.19,140.75c1.64,0.79,2.33,3.75,1.32,5.98c-0.71-1.83-1.01-3.85-3.45-4.06c-4.24,1.16-1.48,3.04-4.87,3.04
		c0.51-0.81,0.79-1.84,1.22-2.64C285.28,141.44,288.88,140.12,290.19,140.75z"/>
	<path d="M283.19,147.95c-1.01-0.81-0.1-1.42,0.1-2.13C283.49,146.43,284.51,147.24,283.19,147.95z"/>
	<path d="M291.1,147.44c0.69-0.14,1.14,1.08,0.2,1.32C290.68,148.76,290.13,147.76,291.1,147.44z"/>
	<path d="M594.59,394.13c-2.13,0.2-2.54,2.13-3.75,3.35c0.24-9.76,8.14-5.39,7.61,0.61C597.43,396.06,596.52,394.34,594.59,394.13z"
		/>
	<path d="M591.55,398.39c0.71,0.91,0.3,1.32-0.41,1.62C590.33,399.1,590.74,398.8,591.55,398.39z"/>
	<path d="M599.67,398.7c0.51,0.71,0.41,1.22-0.61,1.32C598.45,399.21,598.75,398.8,599.67,398.7z"/>
<path fill="#e6e6e6" d="m206.8 163.6c0-5.1 4.1-9.2 9.3-9.2s9.2 4.2 9.2 9.2-4.1 9.2-9.3 9.2-9.2-4.1-9.2-9.2zm17.3-.1c0-4.5-3.5-8.2-8.2-8.2s-8.2 3.7-8.2 8.3c0 4.5 3.5 8.2 8.2 8.2s8.2-3.7 8.2-8.3zm-13 0c0-2.8 2.1-5.1 5.1-5.1 1.9 0 2.9.6 3.9 1.5l-1.4 1.7c-.8-.7-1.5-1.1-2.5-1.1-1.7 0-2.8 1.4-2.8 3.1s1.1 3 2.8 3c1.1 0 1.7-.5 2.5-1.1l1.4 1.4c-1.1 1.1-2.1 1.7-4 1.7-2.9 0-5-2.3-5-5.1z"/><path fill="#e6e6e6" d="m226.6 154.7h3.4l4.2 13.2 4.4-13.3h2.6l4.4 13.3 4.2-13.2h3.3l-6.2 18h-2.7l-4.4-12.8-4.4 12.8h-2.7z"/><path fill="#e6e6e6" d="m252.8 165.8c0-3.9 3.1-7 7.2-7 4.2 0 7.2 3.2 7.2 7s-3.1 7-7.3 7c-4 0-7.1-3.1-7.1-7zm11.3 0c0-2.3-1.7-4.3-4.2-4.3s-4.1 2-4.1 4.3 1.7 4.3 4.1 4.3c2.7.1 4.2-1.9 4.2-4.3z"/><path fill="#e6e6e6" d="m269.5 159.1h3.1v3c.8-2 2.4-3.4 4.8-3.3v3.2h-.2c-2.7 0-4.6 1.7-4.6 5.4v5.1h-3.1z"/><path fill="#e6e6e6" d="m279.1 153.9h3.1v11.1l5.6-6h3.8l-5.4 5.5 5.5 8h-3.5l-4.1-5.8-1.9 2v3.9h-3.1z"/><path fill="#e6e6e6" d="m291.7 165.8c0-3.9 3.1-7 7.2-7 4.2 0 7.2 3.2 7.2 7s-3.1 7-7.3 7c-4 0-7.1-3.1-7.1-7zm11.3 0c0-2.3-1.7-4.3-4.2-4.3s-4.1 2-4.1 4.3 1.7 4.3 4.1 4.3c2.6.1 4.2-1.9 4.2-4.3z"/><path fill="#e6e6e6" d="m308.2 167.6v-8.6h3.1v7.6c0 2.1 1.1 3.3 2.9 3.3s3-1.3 3-3.3v-7.6h3.1v13.4h-3.1v-2.1c-.8 1.3-2.1 2.3-4.2 2.3-3.1.2-4.8-1.8-4.8-5z"/><path fill="#e6e6e6" d="m323.9 168.8v-7.1h-1.7v-2.6h1.7v-3.7h3.1v3.7h3.6v2.6h-3.6v6.6c0 1.2.6 1.7 1.7 1.7.7 0 1.3-.2 1.9-.5v2.5c-.8.5-1.7.7-2.8.7-2.3 0-3.9-.9-3.9-3.9z"/><path fill="#e6e6e6" d="m333.2 154.7h3.2v15h9.4v2.9h-12.5v-17.9z"/><path fill="#e6e6e6" d="m356 172.5v-1.7c-.9 1.1-2.3 2-4.4 2-2.6 0-4.8-1.4-4.8-4.2 0-3 2.3-4.4 5.4-4.4 1.7 0 2.6.2 3.7.5v-.2c0-1.9-1.2-2.9-3.3-2.9-1.5 0-2.6.3-3.9.8l-.8-2.5c1.5-.7 2.9-1.1 5.1-1.1 4 0 5.9 2.1 5.9 5.7v8zm.1-5.6c-.8-.3-1.9-.5-3.1-.5-2 0-3.1.8-3.1 2.1s1.1 2 2.6 2c2 0 3.5-1.1 3.5-2.9z"/><path fill="#e6e6e6" d="m364.9 170.5v2.1h-3.1v-18.7h3.1v7.4c1-1.4 2.4-2.5 4.5-2.5 3.2 0 6.3 2.5 6.3 7s-3.1 7-6.3 7c-2.1 0-3.5-1.1-4.5-2.3zm7.7-4.7c0-2.6-1.7-4.3-3.9-4.3s-3.9 1.7-3.9 4.4c0 2.6 1.8 4.3 3.9 4.3s3.9-1.7 3.9-4.4z"/><path fill="#e6e6e6" d="m376.9 170.8 1.4-2.1c1.4 1.1 3 1.7 4.4 1.7s2.1-.5 2.1-1.5-1.3-1.4-2.8-1.8c-.1 0-.2-.1-.2-.1-2-.6-4.2-1.4-4.2-4s2.1-4.1 4.8-4.1c1.7 0 3.5.6 5 1.5l-1.2 2.2c-1.3-.8-2.6-1.3-3.8-1.3s-1.9.5-1.9 1.4 1.3 1.4 2.8 1.8c.1 0 .2.1.2.1 2 .6 4.2 1.5 4.2 4 0 2.9-2.2 4.2-5 4.2-1.9 0-4-.7-5.8-2z"/><path fill="#e6e6e6" d="m505.6 163.6c0-5.1 4.1-9.2 9.3-9.2s9.2 4.2 9.2 9.2-4.1 9.2-9.3 9.2-9.2-4.1-9.2-9.2zm17.4-.1c0-4.5-3.5-8.2-8.2-8.2s-8.2 3.7-8.2 8.3c0 4.5 3.5 8.2 8.2 8.2s8.2-3.7 8.2-8.3zm-13.1 0c0-2.8 2.1-5.1 5.1-5.1 1.9 0 2.9.6 3.9 1.5l-1.4 1.7c-.8-.7-1.5-1.1-2.5-1.1-1.7 0-2.8 1.4-2.8 3.1s1.1 3 2.8 3c1.1 0 1.7-.5 2.5-1.1l1.4 1.4c-1.1 1.1-2.1 1.7-4 1.7-2.9 0-5-2.3-5-5.1z"/><path fill="#e6e6e6" d="m525.4 154.7h3.4l4.2 13.2 4.4-13.3h2.6l4.4 13.3 4.2-13.2h3.3l-6.2 18h-2.7l-4.4-12.8-4.4 12.8h-2.7z"/><path fill="#e6e6e6" d="m551.7 165.8c0-3.9 3.1-7 7.2-7 4.2 0 7.2 3.2 7.2 7s-3.1 7-7.3 7c-4.1 0-7.1-3.1-7.1-7zm11.2 0c0-2.3-1.7-4.3-4.2-4.3s-4.1 2-4.1 4.3 1.7 4.3 4.1 4.3c2.7.1 4.2-1.9 4.2-4.3z"/><path fill="#e6e6e6" d="m568.3 159.1h3.1v3c.8-2 2.4-3.4 4.8-3.3v3.2h-.2c-2.7 0-4.6 1.7-4.6 5.4v5.1h-3.1z"/><path fill="#e6e6e6" d="m577.9 153.9h3.1v11.1l5.6-6h3.8l-5.4 5.5 5.5 8h-3.5l-4.1-5.8-1.9 2v3.9h-3.1z"/><path fill="#e6e6e6" d="m590.6 165.8c0-3.9 3.1-7 7.2-7 4.2 0 7.2 3.2 7.2 7s-3.1 7-7.3 7c-4.1 0-7.1-3.1-7.1-7zm11.2 0c0-2.3-1.7-4.3-4.2-4.3s-4.1 2-4.1 4.3 1.7 4.3 4.1 4.3c2.6.1 4.2-1.9 4.2-4.3z"/><path fill="#e6e6e6" d="m607 167.6v-8.6h3.1v7.6c0 2.1 1.1 3.3 2.9 3.3s3-1.3 3-3.3v-7.6h3.1v13.4h-3.1v-2.1c-.8 1.3-2.1 2.3-4.2 2.3-3 .2-4.8-1.8-4.8-5z"/><path fill="#e6e6e6" d="m622.7 168.8v-7.1h-1.7v-2.6h1.7v-3.7h3.1v3.7h3.6v2.6h-3.6v6.6c0 1.2.6 1.7 1.7 1.7.7 0 1.3-.2 1.9-.5v2.5c-.8.5-1.7.7-2.8.7-2.3 0-3.9-.9-3.9-3.9z"/><path fill="#e6e6e6" d="m632 154.7h3.2v15h9.4v2.9h-12.6z"/><path fill="#e6e6e6" d="m654.8 172.5v-1.7c-.9 1.1-2.3 2-4.4 2-2.6 0-4.8-1.4-4.8-4.2 0-3 2.3-4.4 5.4-4.4 1.7 0 2.6.2 3.7.5v-.2c0-1.9-1.2-2.9-3.3-2.9-1.5 0-2.6.3-3.9.8l-.8-2.5c1.5-.7 2.9-1.1 5.1-1.1 4 0 5.9 2.1 5.9 5.7v8zm.1-5.6c-.8-.3-1.9-.5-3.1-.5-2 0-3.1.8-3.1 2.1s1.1 2 2.6 2c2 0 3.5-1.1 3.5-2.9z"/><path fill="#e6e6e6" d="m663.7 170.5v2.1h-3.1v-18.7h3.1v7.4c1-1.4 2.4-2.5 4.5-2.5 3.2 0 6.3 2.5 6.3 7s-3.1 7-6.3 7c-2.1 0-3.5-1.1-4.5-2.3zm7.8-4.7c0-2.6-1.7-4.3-3.9-4.3-2.1 0-3.9 1.7-3.9 4.4 0 2.6 1.8 4.3 3.9 4.3s3.9-1.7 3.9-4.4z"/><path fill="#e6e6e6" d="m675.8 170.8 1.4-2.1c1.4 1.1 3 1.7 4.4 1.7s2.1-.5 2.1-1.5-1.3-1.4-2.8-1.8c-.1 0-.2-.1-.2-.1-2-.6-4.2-1.4-4.2-4s2.1-4.1 4.8-4.1c1.7 0 3.5.6 5 1.5l-1.2 2.2c-1.3-.8-2.6-1.3-3.8-1.3s-1.9.5-1.9 1.4 1.3 1.4 2.8 1.8c.1 0 .2.1.2.1 2 .6 4.2 1.5 4.2 4 0 2.9-2.2 4.2-5 4.2-2 0-4.1-.7-5.8-2z"/><path fill="#e6e6e6" d="m61 298.6c0-5.1 4.1-9.2 9.3-9.2s9.2 4.2 9.2 9.2-4.1 9.2-9.3 9.2c-5.1 0-9.2-4.2-9.2-9.2zm17.4-.1c0-4.5-3.5-8.2-8.2-8.2s-8.2 3.7-8.2 8.3c0 4.5 3.5 8.2 8.2 8.2s8.2-3.7 8.2-8.3zm-13.1-.1c0-2.8 2.1-5.1 5.1-5.1 1.9 0 2.9.6 3.9 1.5l-1.4 1.7c-.8-.7-1.5-1.1-2.5-1.1-1.7 0-2.8 1.4-2.8 3.1s1.1 3 2.8 3c1.1 0 1.7-.5 2.5-1.1l1.4 1.4c-1.1 1.1-2.1 1.7-4 1.7-2.8.1-5-2.2-5-5.1z"/><path fill="#e6e6e6" d="m80.9 289.7h3.4l4.2 13.2 4.4-13.3h2.6l4.4 13.3 4.2-13.2h3.3l-6.2 18h-2.7l-4.4-12.8-4.4 12.8h-2.7z"/><path fill="#e6e6e6" d="m107.1 300.8c0-3.9 3.1-7 7.2-7s7.2 3.2 7.2 7-3.1 7-7.3 7c-4 0-7.1-3.1-7.1-7zm11.3 0c0-2.3-1.7-4.3-4.2-4.3s-4.1 2-4.1 4.3 1.7 4.3 4.1 4.3c2.6.1 4.2-1.9 4.2-4.3z"/><path fill="#e6e6e6" d="m123.7 294h3.1v3c.8-2 2.4-3.4 4.8-3.3v3.2h-.2c-2.7 0-4.6 1.7-4.6 5.4v5.1h-3.1z"/><path fill="#e6e6e6" d="m133.4 288.9h3.1v11.1l5.6-6h3.8l-5.4 5.5 5.5 8h-3.5l-4.1-5.8-1.9 1.9v3.9h-3.1z"/><path fill="#e6e6e6" d="m146 300.8c0-3.9 3.1-7 7.2-7s7.2 3.2 7.2 7-3.1 7-7.3 7c-4.1 0-7.1-3.1-7.1-7zm11.2 0c0-2.3-1.7-4.3-4.2-4.3s-4.1 2-4.1 4.3 1.7 4.3 4.1 4.3c2.6.1 4.2-1.9 4.2-4.3z"/><path fill="#e6e6e6" d="m162.4 302.6v-8.6h3.1v7.6c0 2.1 1.1 3.3 2.9 3.3s3-1.3 3-3.3v-7.6h3.1v13.4h-3.1v-2.1c-.8 1.3-2.1 2.3-4.2 2.3-3 .2-4.8-1.8-4.8-5z"/><path fill="#e6e6e6" d="m178.1 303.8v-7.1h-1.7v-2.7h1.7v-3.7h3.1v3.7h3.6v2.6h-3.6v6.6c0 1.2.6 1.7 1.7 1.7.7 0 1.3-.2 1.9-.5v2.5c-.8.5-1.7.7-2.8.7-2.3.1-3.9-.9-3.9-3.8z"/><path fill="#e6e6e6" d="m187.4 289.7h3.2v15h9.4v2.9h-12.5v-17.9z"/><path fill="#e6e6e6" d="m210.2 307.5v-1.7c-.9 1.1-2.3 2-4.4 2-2.6 0-4.8-1.4-4.8-4.2 0-3 2.3-4.4 5.4-4.4 1.7 0 2.6.2 3.7.5v-.2c0-1.9-1.2-2.9-3.3-2.9-1.5 0-2.6.3-3.9.8l-.8-2.5c1.5-.7 2.9-1.1 5.1-1.1 4 0 5.9 2.1 5.9 5.7v8zm.1-5.6c-.8-.3-1.9-.5-3.1-.5-2 0-3.1.8-3.1 2.1s1.1 2 2.6 2c2 0 3.5-1.1 3.5-2.9z"/><path fill="#e6e6e6" d="m219.2 305.5v2.1h-3.1v-18.7h3.1v7.4c1-1.4 2.4-2.5 4.5-2.5 3.2 0 6.3 2.5 6.3 7s-3.1 7-6.3 7c-2.2 0-3.6-1.1-4.5-2.3zm7.7-4.7c0-2.6-1.7-4.3-3.9-4.3s-3.9 1.7-3.9 4.4c0 2.6 1.8 4.3 3.9 4.3s3.9-1.7 3.9-4.4z"/><path fill="#e6e6e6" d="m231.2 305.8 1.4-2.1c1.4 1.1 3 1.7 4.4 1.7s2.1-.5 2.1-1.5-1.3-1.4-2.8-1.8c-.1 0-.2-.1-.2-.1-2-.6-4.2-1.4-4.2-4s2.1-4.1 4.8-4.1c1.7 0 3.5.6 5 1.5l-1.2 2.2c-1.3-.8-2.6-1.3-3.8-1.3s-1.9.5-1.9 1.4 1.3 1.4 2.8 1.8c.1 0 .2.1.2.1 2 .6 4.2 1.5 4.2 4 0 2.9-2.2 4.2-5 4.2-2 0-4.1-.7-5.8-2z"/><path fill="#e6e6e6" d="m360.6 298.6c0-5.1 4.1-9.2 9.3-9.2s9.2 4.2 9.2 9.2-4.1 9.2-9.3 9.2-9.2-4.2-9.2-9.2zm17.4-.1c0-4.5-3.5-8.2-8.2-8.2s-8.2 3.7-8.2 8.3c0 4.5 3.5 8.2 8.2 8.2s8.2-3.7 8.2-8.3zm-13.1-.1c0-2.8 2.1-5.1 5.1-5.1 1.9 0 2.9.6 3.9 1.5l-1.4 1.7c-.8-.7-1.5-1.1-2.5-1.1-1.7 0-2.8 1.4-2.8 3.1s1.1 3 2.8 3c1.1 0 1.7-.5 2.5-1.1l1.4 1.4c-1.1 1.1-2.1 1.7-4 1.7-2.8.1-5-2.2-5-5.1z"/><path fill="#e6e6e6" d="m380.5 289.7h3.4l4.2 13.2 4.4-13.3h2.6l4.4 13.3 4.2-13.2h3.3l-6.2 18h-2.7l-4.4-12.8-4.4 12.8h-2.7z"/><path fill="#e6e6e6" d="m406.7 300.8c0-3.9 3.1-7 7.2-7 4.2 0 7.2 3.2 7.2 7s-3.1 7-7.3 7c-4.1 0-7.1-3.1-7.1-7zm11.3 0c0-2.3-1.7-4.3-4.2-4.3s-4.1 2-4.1 4.3 1.7 4.3 4.1 4.3c2.7.1 4.2-1.9 4.2-4.3z"/><path fill="#e6e6e6" d="m423.3 294h3.1v3c.8-2 2.4-3.4 4.8-3.3v3.2h-.2c-2.7 0-4.6 1.7-4.6 5.4v5.1h-3.1z"/><path fill="#e6e6e6" d="m433 288.9h3.1v11.1l5.6-6h3.8l-5.4 5.5 5.5 8h-3.5l-4.1-5.8-1.9 2v3.9h-3.1z"/><path fill="#e6e6e6" d="m445.6 300.8c0-3.9 3.1-7 7.2-7 4.2 0 7.2 3.2 7.2 7s-3.1 7-7.3 7c-4.1 0-7.1-3.1-7.1-7zm11.3 0c0-2.3-1.7-4.3-4.2-4.3s-4.1 2-4.1 4.3 1.7 4.3 4.1 4.3c2.6.1 4.2-1.9 4.2-4.3z"/><path fill="#e6e6e6" d="m462.1 302.6v-8.6h3.1v7.6c0 2.1 1.1 3.3 2.9 3.3s3-1.3 3-3.3v-7.6h3.1v13.4h-3.1v-2.1c-.8 1.3-2.1 2.3-4.2 2.3-3.1.2-4.8-1.8-4.8-5z"/><path fill="#e6e6e6" d="m477.8 303.8v-7.1h-1.8v-2.7h1.7v-3.7h3.1v3.7h3.6v2.6h-3.6v6.6c0 1.2.6 1.7 1.7 1.7.7 0 1.3-.2 1.9-.5v2.5c-.8.5-1.7.7-2.8.7-2.2.1-3.8-.9-3.8-3.8z"/><path fill="#e6e6e6" d="m487.1 289.7h3.2v15h9.4v2.9h-12.5v-17.9z"/><path fill="#e6e6e6" d="m509.9 307.5v-1.7c-.9 1.1-2.3 2-4.4 2-2.6 0-4.8-1.4-4.8-4.2 0-3 2.3-4.4 5.4-4.4 1.7 0 2.6.2 3.7.5v-.2c0-1.9-1.2-2.9-3.3-2.9-1.5 0-2.6.3-3.9.8l-.8-2.5c1.5-.7 2.9-1.1 5.1-1.1 4 0 5.9 2.1 5.9 5.7v8zm.1-5.6c-.8-.3-1.9-.5-3.1-.5-2 0-3.1.8-3.1 2.1s1.1 2 2.6 2c2 0 3.5-1.1 3.5-2.9z"/><path fill="#e6e6e6" d="m518.8 305.5v2.1h-3.1v-18.7h3.1v7.4c1-1.4 2.4-2.5 4.5-2.5 3.2 0 6.3 2.5 6.3 7s-3.1 7-6.3 7c-2.2 0-3.5-1.1-4.5-2.3zm7.7-4.7c0-2.6-1.7-4.3-3.9-4.3s-3.9 1.7-3.9 4.4c0 2.6 1.8 4.3 3.9 4.3s3.9-1.7 3.9-4.4z"/><path fill="#e6e6e6" d="m530.8 305.8 1.4-2.1c1.4 1.1 3 1.7 4.4 1.7s2.1-.5 2.1-1.5-1.3-1.4-2.8-1.8c-.1 0-.2-.1-.2-.1-2-.6-4.2-1.4-4.2-4s2.1-4.1 4.8-4.1c1.7 0 3.5.6 5 1.5l-1.2 2.2c-1.3-.8-2.6-1.3-3.8-1.3s-1.9.5-1.9 1.4 1.3 1.4 2.8 1.8c.1 0 .2.1.2.1 2 .6 4.2 1.5 4.2 4 0 2.9-2.2 4.2-5 4.2-1.9 0-4.1-.7-5.8-2z"/><path fill="#e6e6e6" d="m659.5 298.6c0-5.1 4.1-9.2 9.3-9.2s9.2 4.2 9.2 9.2-4.1 9.2-9.3 9.2-9.2-4.2-9.2-9.2zm17.3-.1c0-4.5-3.5-8.2-8.2-8.2s-8.2 3.7-8.2 8.3c0 4.5 3.5 8.2 8.2 8.2 4.8 0 8.2-3.7 8.2-8.3zm-13-.1c0-2.8 2.1-5.1 5.1-5.1 1.9 0 2.9.6 3.9 1.5l-1.4 1.7c-.8-.7-1.5-1.1-2.5-1.1-1.7 0-2.8 1.4-2.8 3.1s1.1 3 2.8 3c1.1 0 1.7-.5 2.5-1.1l1.4 1.4c-1.1 1.1-2.1 1.7-4 1.7-2.9.1-5-2.2-5-5.1z"/><path fill="#e6e6e6" d="m679.3 289.7h3.4l4.2 13.2 4.4-13.3h2.6l4.4 13.3 4.2-13.2h3.3l-6.2 18h-2.6l-4.4-12.8-4.4 12.8h-2.7z"/><path fill="#e6e6e6" d="m705.5 300.8c0-3.9 3.1-7 7.2-7 4.2 0 7.2 3.2 7.2 7s-3.1 7-7.3 7c-4 0-7.1-3.1-7.1-7zm11.3 0c0-2.3-1.7-4.3-4.2-4.3s-4.1 2-4.1 4.3 1.7 4.3 4.1 4.3c2.7.1 4.2-1.9 4.2-4.3z"/><path fill="#e6e6e6" d="m722.1 294h3.1v3c.8-2 2.4-3.4 4.8-3.3v3.2h-.2c-2.7 0-4.6 1.7-4.6 5.4v5.1h-3.1z"/><path fill="#e6e6e6" d="m731.8 288.9h3.1v11.1l5.6-6h3.8l-5.4 5.5 5.5 8h-3.5l-4.1-5.8-1.9 2v3.9h-3.1z"/><path fill="#e6e6e6" d="m744.4 300.8c0-3.9 3.1-7 7.2-7 4.2 0 7.2 3.2 7.2 7s-3.1 7-7.3 7c-4.1 0-7.1-3.1-7.1-7zm11.3 0c0-2.3-1.7-4.3-4.2-4.3s-4.1 2-4.1 4.3 1.7 4.3 4.1 4.3c2.6.1 4.2-1.9 4.2-4.3z"/><path fill="#e6e6e6" d="m760.9 302.6v-8.6h3.1v7.6c0 2.1 1.1 3.3 2.9 3.3s3-1.3 3-3.3v-7.6h3.1v13.4h-3.1v-2.1c-.8 1.3-2.1 2.3-4.2 2.3-3.1.2-4.8-1.8-4.8-5z"/><path fill="#e6e6e6" d="m776.6 303.8v-7.1h-1.7v-2.7h1.7v-3.7h3.1v3.7h3.6v2.6h-3.6v6.6c0 1.2.6 1.7 1.7 1.7.7 0 1.3-.2 1.9-.5v2.5c-.8.5-1.7.7-2.8.7-2.3.1-3.9-.9-3.9-3.8z"/><path fill="#e6e6e6" d="m785.9 289.7h3.2v15h9.4v2.9h-12.5v-17.9z"/><path fill="#e6e6e6" d="m808.7 307.5v-1.7c-.9 1.1-2.3 2-4.4 2-2.6 0-4.8-1.4-4.8-4.2 0-3 2.3-4.4 5.4-4.4 1.7 0 2.6.2 3.7.5v-.2c0-1.9-1.2-2.9-3.3-2.9-1.5 0-2.6.3-3.9.8l-.8-2.5c1.5-.7 2.9-1.1 5.1-1.1 4 0 5.9 2.1 5.9 5.7v8zm.1-5.6c-.8-.3-1.9-.5-3.1-.5-2 0-3.1.8-3.1 2.1s1.1 2 2.6 2c2 0 3.5-1.1 3.5-2.9z"/><path fill="#e6e6e6" d="m817.6 305.5v2.1h-3.1v-18.7h3.1v7.4c1-1.4 2.4-2.5 4.5-2.5 3.2 0 6.3 2.5 6.3 7s-3.1 7-6.3 7c-2.1 0-3.5-1.1-4.5-2.3zm7.7-4.7c0-2.6-1.7-4.3-3.9-4.3-2.1 0-3.9 1.7-3.9 4.4 0 2.6 1.8 4.3 3.9 4.3 2.2 0 3.9-1.7 3.9-4.4z"/><path fill="#e6e6e6" d="m829.6 305.8 1.4-2.1c1.4 1.1 3 1.7 4.4 1.7s2.1-.5 2.1-1.5-1.3-1.4-2.8-1.8c-.1 0-.2-.1-.2-.1-2-.6-4.2-1.4-4.2-4s2.1-4.1 4.8-4.1c1.7 0 3.5.6 5 1.5l-1.2 2.2c-1.3-.8-2.6-1.3-3.8-1.3s-1.9.5-1.9 1.4 1.3 1.4 2.8 1.8c.1 0 .2.1.2.1 2 .6 4.2 1.5 4.2 4 0 2.9-2.2 4.2-5 4.2-1.9 0-4-.7-5.8-2z"/><path fill="#e6e6e6" d="m206.3 434.2c0-5.1 4.1-9.2 9.3-9.2s9.2 4.2 9.2 9.2-4.1 9.2-9.3 9.2-9.2-4.1-9.2-9.2zm17.4-.1c0-4.5-3.5-8.2-8.2-8.2s-8.2 3.7-8.2 8.3c0 4.5 3.5 8.2 8.2 8.2s8.2-3.7 8.2-8.3zm-13.1-.1c0-2.8 2.1-5.1 5.1-5.1 1.9 0 2.9.6 3.9 1.5l-1.4 1.7c-.8-.7-1.5-1.1-2.5-1.1-1.7 0-2.8 1.4-2.8 3.1s1.1 3 2.8 3c1.1 0 1.7-.5 2.5-1.1l1.4 1.4c-1.1 1.1-2.1 1.7-4 1.7-2.9.1-5-2.2-5-5.1z"/><path fill="#e6e6e6" d="m226.1 425.3h3.4l4.2 13.2 4.4-13.3h2.6l4.4 13.3 4.2-13.2h3.3l-6.2 18h-2.7l-4.4-12.8-4.4 12.8h-2.7z"/><path fill="#e6e6e6" d="m252.4 436.4c0-3.9 3.1-7 7.2-7 4.2 0 7.2 3.2 7.2 7s-3.1 7-7.3 7c-4.1 0-7.1-3.1-7.1-7zm11.2 0c0-2.3-1.7-4.3-4.2-4.3s-4.1 2-4.1 4.3 1.7 4.3 4.1 4.3c2.7.1 4.2-1.9 4.2-4.3z"/><path fill="#e6e6e6" d="m269 429.7h3.1v3c.8-2 2.4-3.4 4.8-3.3v3.2h-.2c-2.7 0-4.6 1.7-4.6 5.4v5.1h-3.1z"/><path fill="#e6e6e6" d="m278.6 424.5h3.1v11.1l5.6-6h3.8l-5.4 5.5 5.5 8h-3.5l-4.1-5.8-1.9 2v3.9h-3.1z"/><path fill="#e6e6e6" d="m291.3 436.4c0-3.9 3.1-7 7.2-7 4.2 0 7.2 3.2 7.2 7s-3.1 7-7.3 7c-4.1 0-7.1-3.1-7.1-7zm11.2 0c0-2.3-1.7-4.3-4.2-4.3s-4.1 2-4.1 4.3 1.7 4.3 4.1 4.3c2.6.1 4.2-1.9 4.2-4.3z"/><path fill="#e6e6e6" d="m307.7 438.2v-8.6h3.1v7.6c0 2.1 1.1 3.3 2.9 3.3s3-1.3 3-3.3v-7.6h3.1v13.4h-3.1v-2.1c-.8 1.3-2.1 2.3-4.2 2.3-3 .2-4.8-1.8-4.8-5z"/><path fill="#e6e6e6" d="m323.4 439.4v-7.1h-1.7v-2.6h1.7v-3.7h3.1v3.7h3.6v2.6h-3.6v6.6c0 1.2.6 1.7 1.7 1.7.7 0 1.3-.2 1.9-.5v2.5c-.8.5-1.7.7-2.8.7-2.3 0-3.9-.9-3.9-3.9z"/><path fill="#e6e6e6" d="m332.7 425.3h3.2v15h9.4v2.9h-12.5v-17.9z"/><path fill="#e6e6e6" d="m355.5 443.1v-1.7c-.9 1.1-2.3 2-4.4 2-2.6 0-4.8-1.4-4.8-4.2 0-3 2.3-4.4 5.4-4.4 1.7 0 2.6.2 3.7.5v-.2c0-1.9-1.2-2.9-3.3-2.9-1.5 0-2.6.3-3.9.8l-.8-2.5c1.5-.7 2.9-1.1 5.1-1.1 4 0 5.9 2.1 5.9 5.7v8zm.1-5.6c-.8-.3-1.9-.5-3.1-.5-2 0-3.1.8-3.1 2.1s1.1 2 2.6 2c2 0 3.5-1.1 3.5-2.9z"/><path fill="#e6e6e6" d="m364.4 441.1v2.1h-3.1v-18.7h3.1v7.4c1-1.4 2.4-2.5 4.5-2.5 3.2 0 6.3 2.5 6.3 7s-3.1 7-6.3 7c-2.1 0-3.5-1.1-4.5-2.3zm7.7-4.7c0-2.6-1.7-4.3-3.9-4.3-2.1 0-3.9 1.7-3.9 4.4 0 2.6 1.8 4.3 3.9 4.3 2.2 0 3.9-1.7 3.9-4.4z"/><path fill="#e6e6e6" d="m376.5 441.4 1.4-2.1c1.4 1.1 3 1.7 4.4 1.7s2.1-.5 2.1-1.5-1.3-1.4-2.8-1.8c-.1 0-.2-.1-.2-.1-2-.6-4.2-1.4-4.2-4s2.1-4.1 4.8-4.1c1.7 0 3.5.6 5 1.5l-1.2 2.2c-1.3-.8-2.6-1.3-3.8-1.3s-1.9.5-1.9 1.4 1.3 1.4 2.8 1.8c.1 0 .2.1.2.1 2 .6 4.2 1.5 4.2 4 0 2.9-2.2 4.2-5 4.2-2 0-4.1-.7-5.8-2z"/><path fill="#e6e6e6" d="m505.1 434.2c0-5.1 4.1-9.2 9.3-9.2s9.2 4.2 9.2 9.2-4.1 9.2-9.3 9.2-9.2-4.1-9.2-9.2zm17.4-.1c0-4.5-3.5-8.2-8.2-8.2s-8.2 3.7-8.2 8.3c0 4.5 3.5 8.2 8.2 8.2s8.2-3.7 8.2-8.3zm-13.1-.1c0-2.8 2.1-5.1 5.1-5.1 1.9 0 2.9.6 3.9 1.5l-1.4 1.7c-.8-.7-1.5-1.1-2.5-1.1-1.7 0-2.8 1.4-2.8 3.1s1.1 3 2.8 3c1.1 0 1.7-.5 2.5-1.1l1.4 1.4c-1.1 1.1-2.1 1.7-4 1.7-2.9.1-5-2.2-5-5.1z"/><path fill="#e6e6e6" d="m525 425.3h3.4l4.2 13.2 4.4-13.3h2.6l4.4 13.3 4.2-13.2h3.3l-6.2 18h-2.7l-4.4-12.8-4.4 12.8h-2.7z"/><path fill="#e6e6e6" d="m551.2 436.4c0-3.9 3.1-7 7.2-7 4.2 0 7.2 3.2 7.2 7s-3.1 7-7.3 7c-4.1 0-7.1-3.1-7.1-7zm11.2 0c0-2.3-1.7-4.3-4.2-4.3s-4.1 2-4.1 4.3 1.7 4.3 4.1 4.3c2.7.1 4.2-1.9 4.2-4.3z"/><path fill="#e6e6e6" d="m567.8 429.7h3.1v3c.8-2 2.4-3.4 4.8-3.3v3.2h-.2c-2.7 0-4.6 1.7-4.6 5.4v5.1h-3.1z"/><path fill="#e6e6e6" d="m577.5 424.5h3.1v11.1l5.6-6h3.8l-5.4 5.5 5.5 8h-3.5l-4.1-5.8-1.9 2v3.9h-3.1z"/><path fill="#e6e6e6" d="m590.1 436.4c0-3.9 3.1-7 7.2-7 4.2 0 7.2 3.2 7.2 7s-3.1 7-7.3 7c-4.1 0-7.1-3.1-7.1-7zm11.2 0c0-2.3-1.7-4.3-4.2-4.3s-4.1 2-4.1 4.3 1.7 4.3 4.1 4.3c2.6.1 4.2-1.9 4.2-4.3z"/><path fill="#e6e6e6" d="m606.5 438.2v-8.6h3.1v7.6c0 2.1 1.1 3.3 2.9 3.3s3-1.3 3-3.3v-7.6h3.1v13.4h-3.1v-2.1c-.8 1.3-2.1 2.3-4.2 2.3-3 .2-4.8-1.8-4.8-5z"/><path fill="#e6e6e6" d="m622.2 439.4v-7.1h-1.7v-2.6h1.7v-3.7h3.1v3.7h3.6v2.6h-3.6v6.6c0 1.2.6 1.7 1.7 1.7.7 0 1.3-.2 1.9-.5v2.5c-.8.5-1.7.7-2.8.7-2.3 0-3.9-.9-3.9-3.9z"/><path fill="#e6e6e6" d="m631.5 425.3h3.2v15h9.4v2.9h-12.5v-17.9z"/><path fill="#e6e6e6" d="m654.3 443.1v-1.7c-.9 1.1-2.3 2-4.4 2-2.6 0-4.8-1.4-4.8-4.2 0-3 2.3-4.4 5.4-4.4 1.7 0 2.6.2 3.7.5v-.2c0-1.9-1.2-2.9-3.3-2.9-1.5 0-2.6.3-3.9.8l-.8-2.5c1.5-.7 2.9-1.1 5.1-1.1 4 0 5.9 2.1 5.9 5.7v8zm.1-5.6c-.8-.3-1.9-.5-3.1-.5-2 0-3.1.8-3.1 2.1s1.1 2 2.6 2c2 0 3.5-1.1 3.5-2.9z"/><path fill="#e6e6e6" d="m663.3 441.1v2.1h-3.1v-18.7h3.1v7.4c1-1.4 2.4-2.5 4.5-2.5 3.2 0 6.3 2.5 6.3 7s-3.1 7-6.3 7c-2.2 0-3.6-1.1-4.5-2.3zm7.7-4.7c0-2.6-1.7-4.3-3.9-4.3s-3.9 1.7-3.9 4.4c0 2.6 1.8 4.3 3.9 4.3s3.9-1.7 3.9-4.4z"/><path fill="#e6e6e6" d="m675.3 441.4 1.4-2.1c1.4 1.1 3 1.7 4.4 1.7s2.1-.5 2.1-1.5-1.3-1.4-2.8-1.8c-.1 0-.2-.1-.2-.1-2-.6-4.2-1.4-4.2-4s2.1-4.1 4.8-4.1c1.7 0 3.5.6 5 1.5l-1.2 2.2c-1.3-.8-2.6-1.3-3.8-1.3s-1.9.5-1.9 1.4 1.3 1.4 2.8 1.8c.1 0 .2.1.2.1 2 .6 4.2 1.5 4.2 4 0 2.9-2.2 4.2-5 4.2-2 0-4.1-.7-5.8-2z"/></g>
</svg>
