<?xml version="1.0" encoding="utf-8"?>
<!-- Generator: Adobe Illustrator 23.0.1, SVG Export Plug-In . SVG Version: 6.00 Build 0)  -->
<svg version="1.2" baseProfile="tiny" id="Layer_1" xmlns="http://www.w3.org/2000/svg" xmlns:xlink="http://www.w3.org/1999/xlink"
	 x="0px" y="0px" viewBox="0 0 900 600" xml:space="preserve">
<g>
	<path d="M4,315.29c0.86-0.49-1.77-0.2,28.87-5.37c-3.44-1.32-7.39-2.7-10.53-2.23c-4.35,0.65-8.71-0.61-12.97,0.81
		c-0.61,0.2-1.62-0.1-1.62-0.91c8.1-1.62,16.31-1.22,24.72-0.51c-1.79-8.06-5.35-8.91-6.28-17.22c-1.13-10.05-5.91-21.66,5.17-29.07
		c3.88-2.6,2.43-7.07,2.84-9.32c4.71-26.33,23.38-85.69,33.63-98.66c4.13-5.23,5.84-11.53,7.8-15.8c7.64-16.68,4.06-7.8,27.25-28.87
		c9.11-8.28,26.73-9.53,34.64-9.22c7.6,0.3,14.78-2.02,22.29-2.33c3.54-0.15,5.06-2.53,4.56-6.08c4.38-2.79,5.9-3.54,6.28-5.27
		c1.13-5.11,2.89-4.12,11.85-16.92c3.05-4.35,4.87-9.88,10.94-11.35c0.41-0.1,0.61-0.71,0.91-1.01c5.36-5.29,18.98-10.3,23.4-6.99
		c3.46,2.3,1.53-7.94,10.13,1.52c0.51-1.32,0.82-2.72,2.33-3.14c1.73-0.48,2.53,1.11,3.65,1.72c0.91-1.22,1.01-2.94,2.63-3.65
		c2.94,1.82,1.52,4.25,1.01,6.08c2.23,2.63,3.75,5.57,6.58,6.48c0.71,2.84-4.47-0.99,7.5,9.02c2.32,1.94,3.39,4.93,5.06,7.5
		c0.52,0.8,0.2,1.62-0.1,2.53c-1.33,4.05,1.01,8,0.71,12.16c0,1.04,3.57-0.49,1.32,16.21c0.81,1.72,3.14,1.22,3.65,2.74
		c-0.3,1.42-2.03,0.41-2.23,1.92c2.87,2.12,5.12-3.38,8.41,2.73c-1.92,1.42-4.56,0.2-6.48,1.92c1.23,0.29,13.94,0,0.1,2.63
		c0.91,1.82,2.43,1.32,3.95,1.82c-1.32,1.22-0.81,2.84-1.11,3.55c-1.01,1.42-2.03,0.2-2.63,0.91c0.51,1.22,1.92,1.92,1.92,3.44
		c-1.92,0.3-2.84-1.22-4.15-1.62c-0.89,2.67-2.02-0.2-3.95-0.2c0,1.38,2.04,2.11,1.11,3.04c-3.55-0.1-7.09-0.61-10.84-1.92
		c2.23,2.74,5.57,2.84,7.5,5.17c-2.84,1.62-9.52,1.11-15.09-0.81c-1.52,0.61-1.92,2.53-4.05,3.14c-5.87-3.2-6.84,2.44-10.41-0.31
		c6.29-4.85,11.07,1.52,12.64-4.75c-5.37-3.14-9.62-7.5-12.05-12.66c-7.8-2.13-15.19-2.65-22.49-4.56
		c-17.76-4.64-18.16,3.89-20.26,0c1.72-2.53,3.65-4.96,6.28-6.99c3.65-2.83,3.14-8.41-0.91-10.23c-4.2-1.88-11.19,4.59-3.85,0.81
		c5.81-2.99,8.34,7.61,0.91,9.02c-0.71,2.53-2.33,3.44-5.06,2.63c0.71-1.92,0.71-3.75,0-5.37c1.11-1.43,2.81,1.42,1.62-2.73
		c-1.22,0.51-1.62,1.82-2.94,1.82c0.18-1.85,0.16-2.19,2.23-4.25c-7.08,2.93-1.15,8.94-2.33,13.68c0.61,0.71,2.03,0,2.13,1.52
		c-1.32,1.32-2.53,0.51-3.85-0.2c-0.81-5.17-4.05-10.23-0.51-15.4c-3.75-0.3-4.76,2.94-6.89,4.86c-0.61-1.62,0.91-2.53,0.81-3.85
		c-1.72-0.51-3.15-0.52-4.76,0.41c-6.47,3.68-12.63,0.91-19.65,3.44c13.03,23.45,7.49,64.24,29.78,79.21
		c0.91,0.71,1.92,1.52,3.55,1.32c7.5-8.1,8.41-18.54,9.72-28.87c-6.72-5.23-1.53-1.87-10.64-9.62c-5.27,0.61-7.39,5.06-11.14,7.09
		c0.3-5.88,5.77-6.79,9.62-9.52c-0.91-1.22-0.92-2.72-2.74-3.55c-1.73-0.79-2.33-2.94-2.53-5.17c1.52,0.41,1.32,2.23,2.53,2.63
		c0.71-1.42-0.91-2.84,0.1-4.86c7.18,15.73,5.11,12.48,17.52,21.17c0.91-0.1,2.52,0.29,3.55-0.41c2.41-1.65,4.86-2.53,7.8-1.42
		c-1.62-2.13-4.66-1.72-5.98-3.95c2.01-3.34,5.76,3.92,13.88,1.42c0.1,0,0.2,0.3,0.61,0.81c-1.52,0.71-2.83,1.84-4.36,2.23
		c-3.64,0.94-7.5,1.32-10.84,3.34c2.54,35.57-1.19,21.76,3.34,34.54c5.54-5.18,5.38-14.09,15.5-13.47
		c-7.72,3.63-2.79,1.11-7.09,6.69c-1.67,2.17-12.88,17.17-12.16,19.85c1.79,6.59-0.45,3.71,5.17,20.56
		c-2.57,1.71-5.62-12.94-8-19.15c-12.92,13.32-9.1,5.55-9.02,15.6c0.15,16.93,4.47,19.14,8.1,34.24c3.22,13.37,8.36,13.43,7.9,15.7
		c-2.92,2.25-7.5-7.49-8.81-10.94c-12.46-32.75-6.96-27.29-10.33-43.76c-5.88,6.38-13.21,10.41-16.82,18.03
		c-0.3,0.64-10.99,15.87-12.86,18.03c-2.66,3.07,0.42,6,3.75,7.7c7.22,3.69,12.71,9.95,19.55,14.18c2.35,1.46,5.21,7.42,18.23,11.55
		c1.42-9.32,8.21-11.65,16.31-12.26c-2.53-3.85-4.15-7.29-4.25-11.35c2.63,3.04,2.74,7.19,5.06,10.43
		c5.06-1.72,10.15-3.38,15.5-2.33c2.63,0.52,3.41-3.04,7.8,0c12.33,8.53-7,9.86,36.97,2.03c-8.51-6.48-18.18-10.07-25.93-16.61
		c-4.61-3.89-8.59-2.72-14.18-7.09c2.63-0.51,4.36,0.91,6.28,0.91c-9.12-12.46-9.12-12.46-8-15.7c2.8,0.23-1.48,5.36,12.86,15.9
		c2.86,2.1,4.87,4.85,7.9,6.79c8.22,5.24,16.82,9.83,24.92,15.19c12.85-2.27,9.28-0.03,15.19-10.33c1.92-3.35,4.76-5.67,8.61-5.77
		c3.95-0.1,7.7-1.01,11.65-1.22c3.95-0.2,7.9,0.42,11.85,0.2c5.17-0.28,6.79,0.2,8.41,6.79c0,0.9,0.08,0.8,29.48-4.46
		c0-0.61,0-0.81,0-1.01c-3.04-12.66,5.98-29.68,20.77-34.44c9.79-3.15,28.13-1.85,34.64,8.91c3.01,4.98,6.08,10.13,9.12,15.3
		c5.37-1.22,10.94-1.32,16.11-3.34c6.06,3.03,5.95,9.21-1.42,10.43c-0.58,0,0.91-0.22-14.18,2.74c-0.55,3.28,1.41,13.38-7.09,26.03
		c-9.22,13.72-22.67,12.33-38.09,6.79c-8.27-2.97-16.32-14.33-18.74-20.56c-11.45,2.03-22.69,4.25-33.93,6.69
		c-1.14,6.38-7.47,0.96-7.7,4.15c-0.24,3.24-2.74,5.27-4.05,7.9c-10.5,20.99-31.29,7.51-57.13,9.83c-3.44,0.31-6.89,0.2-10.33-0.91
		c1.08,2.16,8.44,2.87,15.3,9.72c7.36,7.36,4.34,16.38,4.86,21.98c2.91,31.28-0.6,28.8,1.01,37.99c3.6,20.49-5.5,42.04-11.04,104.64
		c12.22,10.59,7.67,15.31,13.68,19.55c11.39,8.05,7.04,11.07,26.24,20.66c20.86,10.43,20.32,7.26,17.22,19.04
		c-0.77,2.95-2.63,4.56-5.57,5.06c-0.1,0.03-19.27,4.59-26.54,3.85c-1.1-0.11-18.59-3.2-33.53-9.52
		c-14.93-6.32-21.78,1.02-31.71-3.44c10.1,13.02,21.82,9.64,21.17,21.78c-0.33,6.08-0.3,7.01-6.48,9.02
		c-9.51,3.08-19.45,4.2-29.48,4.46c-7.96,0.2-9.73-3.92-18.33-5.27c-10.42-1.64-11.49-7.15-23.4-10.53
		c-6.6-1.88-13.16-3.86-18.23-9.32c-6.27-6.74,0.14-3.2,0.91-18.94c-2.33,1.01-4.35,0.92-6.38,1.72
		c-14.27,5.6-22.33,3.57-15.09,1.82c2.68-0.65,1-0.17,21.88-4.76c1.88-6.47,11.63-12.21,11.24-23.8c-0.08-2.32-1.9-28.32-1.92-28.46
		c-11.31-57.36-6.54-45.38-9.72-55c-4.5-13.61-0.35-19.75-1.92-22.89c-4.86,6.18-10.03,11.45-17.52,13.88
		c-1.32-0.81-0.51-2.53-1.11-3.65c-11.34-9.51-6.32-8.04-13.47-5.37c-19.5,7.27-20.99,12.86,8.81,70.71
		c28.92,56.14,11.56,39.06,31,44.77c-2.73-0.61-5.27,0.2-7.9,0.61c-0.3,1.01,1.32,1.82,0,2.94c-6.85-4.4-3.02-2.19-39.2-74.76
		c-4.45-8.92-7.72-18.23-10.33-27.76c-3.75-13.67,16.26-18.37,19.15-20.16c-7.34-14.68-10.4-13.11-13.88-23.7
		c-3.17-9.65-10.99-10.81-27.15-12.26c-34.84-3.13-45.2-8.54-55-7.7c-2.35,0.2-12.29-4.59,22.18,0.3c8.1,1.15,16.11,3.28,24.31,3.14
		c8.26-0.14,8.06,1.46,20.87,3.75c-1.01-1.52-2.23-2.24-3.75-2.53c-6.68-1.28-9.65-5.76-11.75-5.37
		c-10.21,1.92-14.88-6.73-18.33-7.9c-6.93-2.35-4.73-4.42-9.32-3.85c-9.9,1.88-30.46,5.96-31.1,5.98
		C-2.02,332.24-1.62,318.53,4,315.29z M255.92,103.28c0.51-2.53-0.61-4.15-1.11-5.77C253.9,99.53,254.81,101.15,255.92,103.28z
		 M253.49,86.56c0.41-1.11,0-2.23-0.1-3.34C252.17,84.34,252.17,84.34,253.49,86.56z M251.47,125.87c-1.82-1.62-4.36-2.03-6.08-3.85
		C246.4,124.96,248.93,125.36,251.47,125.87z M246.1,101.96c-0.51-1.01-0.51-1.72-1.11-2.13
		C244.48,100.75,244.68,101.35,246.1,101.96z M244.58,75.12c0.2-1.62-0.71-2.33-1.42-3.04C243.26,73.19,243.67,74,244.58,75.12z
		 M239.11,79.37c-0.61,0.91-0.2,1.62,0.71,2.33C240.22,80.59,239.72,80.08,239.11,79.37z M239.72,95.58
		c-0.72-3.99-0.55-3.24-1.52-3.24C238.5,93.55,238.4,94.67,239.72,95.58z M238.2,115.33c0.71-1.42,0.1-2.33-0.91-3.65
		C236.17,113.61,237.59,114.22,238.2,115.33z M236.17,76.23c0.91-0.61,1.42-1.32,0-2.33C235.87,74.71,235.76,75.42,236.17,76.23z
		 M233.13,95.48c-0.3,1.11,0.51,1.52,0.91,2.13C234.35,96.59,234.45,95.68,233.13,95.48z M234.65,124.45
		c-0.71-1.42-1.32-2.33-2.63-2.43C232.52,123.03,233.23,123.74,234.65,124.45z M231.92,122.12c0.1-0.91-0.51-1.32-1.11-1.82
		C230.4,121.41,231.31,121.61,231.92,122.12z M221.68,68.53c1.42-1.62,2.23-3.65,2.73-5.67C222.7,64.38,221.99,66.3,221.68,68.53z
		 M222.39,77.85c1.01-0.2,0.61-0.81,0.3-1.62C221.79,76.94,221.99,77.45,222.39,77.85z M229.38,88.59
		c-1.22,0.51-0.71,1.52-1.32,2.43C229.38,90.41,229.28,89.6,229.38,88.59z M227.96,58.4c-1.72,0.1-3.75-0.2-3.85,2.63
		C226.24,61.24,226.85,59.42,227.96,58.4z M224.82,102.87c0.41-0.41,1.11-0.71,0.61-1.62C224.62,101.56,224.42,102.16,224.82,102.87
		z M224.32,98.21c1.42-3.54-1.39-3.94-1.72-0.91C223,98.01,223.61,98.11,224.32,98.21z M222.29,111.79c0.3-1.01,0.81-1.72-0.1-2.33
		C220.98,110.27,220.98,110.27,222.29,111.79z M220.77,82.31c-1.22,2.13-1.72,3.75-2.03,5.47
		C220.06,86.46,221.08,85.04,220.77,82.31z M207.3,90.51c1.22-0.1,1.01-1.32,1.42-2.03C207.91,88.89,207.3,89.5,207.3,90.51z
		 M213.68,63.37c0.61,0.1,1.01-0.2,1.32-0.81C214.29,62.46,213.88,62.76,213.68,63.37z M216.21,74.51c-0.1,1.62-1.01,3.04-1.22,4.56
		C215.91,77.75,217.33,76.54,216.21,74.51z M214.49,72.59c1.92-0.81,1.62-2.23,1.72-3.55c-1.01-0.1-1.52,0.41-2.23,0.91
		C214.09,70.76,214.29,71.57,214.49,72.59z M213.78,63.47c-0.61-0.1-1.01,0.2-1.42,1.01C213.07,64.18,213.68,64.18,213.78,63.47z
		 M210.14,96.09c1.82-1.82,1.82-3.65,2.13-5.77C210.44,91.83,209.22,93.25,210.14,96.09z M209.73,110.37
		c-0.91-2.73-2.43-1.22-3.75-0.71C207.1,109.86,208.31,110.06,209.73,110.37z M205.17,87.37c0.81-0.41,1.11-0.91,1.22-2.03
		C205.27,85.65,204.97,86.26,205.17,87.37z M205.07,84.03c-1.22-1.11-0.71-3.75-3.14-4.25C201.73,82.21,203.55,83.02,205.07,84.03z
		 M204.57,52.12c-2.03,0.3-3.85,1.11-5.98,2.23C201.53,55.47,202.74,53.14,204.57,52.12z M198.28,100.34
		c-0.81-0.61-1.11-0.3-1.32,0.2C197.68,101.25,197.78,100.54,198.28,100.34z M196.56,74.91c0.3-0.91,0.41-1.52,0-2.13
		C196.36,73.4,196.26,74,196.56,74.91z M187.65,108.44c1.11,0.2,1.52-0.1,1.52-1.01C188.26,107.03,188.15,107.84,187.65,108.44z
		 M192.21,62.76c0.2-0.81,0.1-1.42-0.41-2.13C190.89,61.54,190.28,62.35,192.21,62.76z M181.87,77.04c0.1-1.11-0.2-1.32-0.61-1.52
		C180.36,76.23,181.06,76.43,181.87,77.04z M183.9,97.3c1.01,0.81,1.72,1.52,2.73,2.23C187.04,97.1,186.23,96.49,183.9,97.3z
		 M186.43,102.06c-1.42-0.71-1.42-0.71-3.65,0.1C184.2,102.57,185.22,102.47,186.43,102.06z M172.45,87.68
		c1.01,0.71,1.42,0,2.33-0.61C173.03,84.96,173.87,85.21,172.45,87.68z M173.97,93.35c-0.71-0.91-1.32-1.11-1.82-0.1
		C172.66,93.86,173.26,93.25,173.97,93.35z M423.57,249.35c2.38,0.22,12.41-1.82,14.59-2.33c6.34-1.49,3.59-7.01-1.92-5.77
		C421.59,244.52,423.57,240.78,423.57,249.35z M28.31,273.56c-0.28,4.66-0.51,9.42,0.91,14.08c-0.18-9.5,11.53-6.31,13.27-11.14
		c2.22,6.65-2.72,4.57-7.6,8.71c3.75,1.11,7.08,0.29,10.03-1.52c7.48-4.59,16.04-6.72,23.6-10.94c2.46-1.38,3.28,0.45,1.32,1.42
		c-13.08,6.43-19.86,6.27-26.03,20.87c-0.73,1.72-1.01,3.55-2.53,4.96c-0.81-4.15,1.72-7.39,3.34-11.35
		c-12.71,5.08-16.28-10.16-7.9,20.56c9.93-1.72,19.45-3.34,29.07-5.06c-1.22-0.91-2.33-0.71-3.55-0.61
		c-8.01,0.67-9.33-9.77-1.82-11.75c15.21-4.02,13.17,4.32,13.17-6.58c-0.39-1.43-2.85-0.99-1.42-2.43
		c3.92-2.45,2.39-10.07,10.43-21.17c-23.13-5.78-31.36,1.1-39.4,2.74c2.26-4.89,12.46-3.06,1.01-5.47
		C37.65,267.45,28.93,263.26,28.31,273.56z M117.35,348.72c15.92-5.81,20.22-16.88,21.68-34.14c0.78-9.25,2.18-8.32,0.91-12.26
		c-4.01-12.47-4.9-23.94-20.87-39.91c-3.24-3.24-7.09-5.02-11.65-5.37c-3.45-0.27-6.79-1.42-10.23-0.91
		c-0.58,2.31,8.26-0.53,18.84,14.49c3.95,5.61,5.72,9.75,5.43,10.43c0.05,0,0.04,0.01,0.04,0.13c-0.02-0.03-0.04-0.06-0.07-0.09
		c-0.23,0.29-1.16-0.6-2.77-3.08c-4.62-7.13-10.21-14.68-16.11-17.32c-6.71-3-8.83-4.97-14.28-1.11
		c-8.85,6.26-10.99,23.24-11.45,31.71c4.46,1.52,9.02,2.23,13.17,4.36c2.03-0.81,4.15-1.22,5.47-2.84
		c8.44,1.49,13.86,12.73,10.64,19.65c-2.63,5.64-10.57,8.29-13.57,3.04c-4.96,0.81-9.83,1.62-14.89,2.94
		c6.72,26.87,20.73,28.8,25.53,30.69c8.17,3.23,13.17-3.18,14.89-2.84C118.77,347.4,116.84,347.5,117.35,348.72z M85.44,259.17
		c-1.92,0-3.34,0-5.17,0C82.1,260.19,83.41,260.49,85.44,259.17z M103.77,304.86c-3.22-6.93-6.4-12.93-12.36-6.89
		c-2.1,2.13-4.22-4.46-23.4-4.46c-12.58,0-11.6,7.49-6.08,7.7c8.11,0.3,7.49,2.87,13.47,1.32c7.18-1.87,14.38-2.33,21.78-3.85
		c7.6,6.81,3.76,15.86-3.24,16.51C97.21,319.76,107.2,312.23,103.77,304.86z M58.19,257.45c-0.81-0.71-1.72-0.61-2.74-1.01
		C55.46,256.93,54.83,259.13,58.19,257.45z M49.28,254.21c-0.81,0.81-0.81,1.82-1.22,2.73c0.61,1.01,1.62,1.11,2.94,1.11
		C51.71,256.13,51.61,254.62,49.28,254.21z M44.21,251.68c-1.32,0.41-0.51,2.53-2.23,2.74c-1.52-1.01-0.61-2.43-0.81-4.05
		c-0.51,1.22-1.62,1.52-2.74,2.53c1.92,2.94,5.27,2.43,7.6,4.05c0.81-1.11,0.71-1.92,0.51-2.84c-0.91,0.1-1.01,1.62-2.23,1.11
		C43.4,254.01,45.12,252.89,44.21,251.68z M35.7,262.31c6.25-4.41,6.79-3.76,1.82-5.67c-1.11,1.82-1.62,3.85-2.63,5.98
		C35.2,262.52,35.5,262.42,35.7,262.31z M36.61,251.98c0.61-1.62,1.32-3.24,1.92-4.76C36.21,248.13,35.6,249.75,36.61,251.98z
		 M54.54,191c-2.87,5.9-3.77,15.82-10.64,32.92c-2.73,6.79-3.75,13.98-4.15,21.27c22.41,13.32,24.69,8.21,39,10.33
		c3.34,0.5,6.79,1.42,9.93,0.2c5.98-2.32,12.16-1.11,18.64-1.92c-2.03-5.06-4.96-9.62-6.79-14.49c0.55-2.33-0.12-2.1-16.82-8.71
		c-3.12-1.04-4.82-3.37,16.11,4.86c-1.01-2.73-0.41-5.57-4.15-6.89c1.01-0.3,1.42-0.41,2.23-0.61c-3.55-10.33-5.47-21.07-5.98-31.71
		c-4.66-0.81-8.41,1.52-12.66,2.03c-1.11,4.96,4.15,8.21,4.76,13.07c-5.88-2.63-4.56-8.71-7.39-12.97c-0.71-0.3-1.62,0.1-2.74,0.3
		c1.36,9.95-2.58,6.91-2.03-0.81c4.36-1.22,8.81-2.33,13.78-3.65c9.63-9.63,3.6-0.98-6.08-15.19c-1.93-2.83-3.25-5.87-3.55-9.32
		c-0.52-6.08-2.63-11.95-2.63-18.54C65.61,160.21,63.96,171.61,54.54,191z M147.94,240.03c0.2,1.92,0.2,1.92,1.72,2.94
		c-0.86,2.39-2.14-3.29-3.14,5.67C152.23,239.77,157.23,240.54,147.94,240.03z M146.93,256.44c1.01-1.52,1.92-0.41,2.94-0.91
		c-2.16-2.26-12.23-7.34-7.8-14.79c1.32,1.11-0.2,3.14,1.72,3.95c-0.82-4.53,4.32-7.6,5.57-26.64c1.44-21.86-8.25-34.98-3.44-38.09
		c2.94,10.43,8.16,20.37,7.09,31.71c-1.51,15.98-2.86,14.13-0.1,14.59c-0.71,1.92-2.94,3.14-2.43,5.57c1.62,0.61,3.75-0.1,5.37,1.42
		c-2.83,2.68-6.18-2.42-7.19,4.66c1.22,0,2.43,0,3.65,0c3.75-3.14,6.79-6.69,9.02-11.14c4.74-9.48,38.84-31.74,34.34-39.91
		c-6.15-11.17-1.12-26.61-1.62-33.73c-1.32-0.71-2.43-0.51-3.75-0.41c-0.2,2.13-0.52,4.15-0.41,6.08
		c0.71,11.37-7.5,29.79-17.02,23.5c-5.1-3.37-14.16-15.43-13.17-18.94c0.2-0.71-0.73-1.81-1.22-2.73
		c-6.1-11.46-5.41-23.76-8.71-38.59c-1.6-7.2-4.66-13.78-6.48-20.87c-2.84,0.3-5.27,0.51-8.1,0.81
		c10.2,18.6,17.07,32.83,16.31,52.98c-0.03,0.69-0.54,25.68-6.69,24.01c-0.91-2.87,3.72-9.91,3.95-24.82
		c0.3-19.56-8.79-37.45-15.4-51.76c-10.23-0.61-19.54,0.92-27.65,7.6c-3.11,2.56-14.71,5.27-18.13,30.39
		c-2.03,0.51-1.91-1.21-1.82-2.53c0.55-7.99,4.58-12.28,5.57-15.8c-2.77,1.97-10.77,7.66-11.55,10.94
		c-2.18,9.21-5.58,9.31-4.46,19.25c1.59,14,2.8,27.73,15.9,32.92c4.74-21.33-5.9-12.33-3.85-31.91c0.22-2.13-0.51-4.25,0.3-6.28
		c1.52,0.95-0.74,2.63,2.43,10.64c6.4,16.13,3.03,24.22,4.56,34.54c2.15,14.49,2.38,26.14,3.85,28.97
		c5.86,11.27,3.07,14.58,11.55,32.82c1.03,2.22,4.25,2.43,6.99,2.63c0.91,4.87,9.7,3.45,22.49,34.14c15.6-2.73,31.3-5.47,47-8.21
		C173.26,273.56,161.41,263.02,146.93,256.44z M208.72,271.84c-4.46-0.39-8.28,1.25-11.85,3.75c-1.91,1.34-1.82,3.95-2.94,5.98
		c4.76-2.43,10.64-1.32,14.69-5.06c1.82,2.84,3.44,5.57,7.19,5.77c-2.03,2.23-3.44,1.82-8.31-2.43c-0.71,1.32-1.92,1.43-3.24,1.72
		c-75.08,16.48-64.25,5.02-62.4,22.59c25.73-4.56,51.05-9.93,76.38-15.09c0.1-2.63-0.83-5.07-0.1-7.6c0.29-1.02-0.92-2.02-1.62-2.73
		C210.55,272.57,211.53,272.08,208.72,271.84z M210.74,270.42c3.13,2.18,9.83,8.23,8.81,11.95c-0.5,1.83,0.1,3.75,0.51,5.67
		c0.71,3.34,2.03,3.95,5.88,2.13c-0.54-10.23,5.47-2.75-7.19-21.17C216.11,268.59,213.58,269,210.74,270.42z M220.27,267.99
		c10.19,16.01,9.12,10.83,7.09,21.68c3.24,1.22,5.21,0.32,5.98-2.53c0.82-3.07,3-4.81,0.1-9.22
		C226.95,268.07,228.82,266.86,220.27,267.99z M239.11,278.12c-0.5-4.26-7.09-10.94-11.04-11.04c2.84,3.24,4.14,6.8,6.28,9.93
		c2.01,2.95,3.55,5.98,1.52,9.52c1.01,0.51,1.92-0.1,1.92-0.51C237.79,283.28,239.42,280.75,239.11,278.12z M235.26,288.85
		c-3.44,4.15-5.17,4.76-8.81,2.94c-2.94,2.23-5.37,0.3-7.8-1.01c-9.42,1.42-18.54,3.65-27.65,5.77c0,2.43,2.53,4.05,1.62,6.58
		c-2.13-0.71-1.82-3.04-3.14-4.36c-1.01,1.32-0.91,3.04-2.43,4.25c-3.19-6.37,13.33-8.13-25.93-0.91c-0.32,1.93,8.56-0.87,32.72,8.1
		c11.09,4.12,16.2-2.12,25.63-4.56c4.73-1.22,6.76-6.99,14.38-6.99c4.25,0,7.9-1.82,10.94-4.86
		C241.94,289.77,241.94,289.77,235.26,288.85z M209.12,490.43c5.1-7.36,0.12-14.36,8.1-19.75c5.99-77.83-15.57-64.59-6.58-95.93
		c5.25-18.29,3.51-17,8-26.84c-20.25-7.42-17.18-13.8-18.84,2.13c-0.62,5.91-2.25,6.96-2.23,8c0,0.12-2.23,35.16-7.6,56.22
		c-2.2,8.64,0.83,3.12-3.95,29.98c-2.58,14.49-0.16,13.12,0.71,31.4c0.1,2.13,0.3,4.25,1.11,6.58c3.14,0.3,4.17,2.63,4.36,5.57
		c0.22,3.47,1.65,2.13,9.52,17.52c0.62,1.21,1.11,2.43,2.33,3.55c1.11-4.56,3.83-8.61,2.94-13.57
		C206.69,493.58,208.08,491.94,209.12,490.43z M201.93,317.82c0.8,0.4,0.73,0.24,2.94-3.34c-1.11-0.41-1.92,0-2.84,0.3
		C201.83,315.8,202.94,316.81,201.93,317.82z M371.1,276.8c10.14,12.45,53.21,19.4,50.55-27.86c-0.42-7.46-7.94-19.71-11.65-23.8
		c-3.95-4.36-9.22-5.37-14.49-6.08c1.11,1.42,3.14,1.52,4.46,3.24c-7.19,0-3.66-6.14-17.32-3.44
		c-12.45,2.46-21.88,14.08-21.98,26.74c-0.02,2.23,0,4.46,0,7.09c16.53-2.84,24.04-6,26.03,0.61c0.68,2.24-1.5,5.63-4.25,6.38
		c-0.81,0.22-1.82,0-2.43,0.81c4.69,3.46,13.28-3.68,6.18-12.16c-2.22-2.64-5.57-2.33-10.53,1.01c0.41-3.14,1.11-3.8,3.95-3.85
		c5.92-0.11,7.7-1.18,10.43,4.15c1.92,3.75,2.1,7.27-1.11,10.43c-1.12,1.11-1.72,2.55-3.34,3.14c-3.43,1.25-5.37,0.81-7.7-2.53
		c-4.96,0.91-10.03,1.92-15.8,2.94C365.22,268.29,367.82,272.78,371.1,276.8z M381.53,257.96c5.32-1.39,3.21-7.77-1.42-6.99
		c-8.89,1.49-42.94,7.54-50.04,8.81c0.61,2.43,0.32,4.4-2.23,5.37c-1.11,0.42-0.91,1.62-1.11,2.84
		C329.9,268.46,381.43,258,381.53,257.96z M327.24,263.23c1.72-2.94,0-8.1-3.34-10.43C324.5,256.54,326.83,259.48,327.24,263.23z
		 M322.68,271.84c4.36-5.37,2.09-10.72,0-16.11c-0.82-2.12-1.92-2.74-4.36-3.04c1.52,3.04,2.27,6.25,4.05,9.12
		c1.02,1.64,0.66,1.9-2.03,9.62C321.36,271.84,322.07,271.94,322.68,271.84z M321.46,263.73c-5.91-7.98-1.74-12.6-11.45-11.24
		c1.73,4.56,6.71,7.66,5.17,13.57c-0.63,2.42-1.32,4.86-0.81,7.9C319.84,272.14,318.63,266.67,321.46,263.73z M312.04,281.97
		c-8.94-0.99-5.29,4.36-13.78,10.23C302.92,292.2,309.1,287.64,312.04,281.97z M262.3,289.97c8.7-1.32,8.25,1.6,31.5,1.82
		c3.04,0.03,6.09-3.62,8.81-6.89c-0.2-0.41-0.41-0.91-0.61-1.32c2.73-2.33,5.47-4.13,9.42-3.55c2.57,0.38,4.01-1.84,3.43-2.42
		c0,0.15-3.03-0.48-0.7-2.64c-0.71-1.52-2.23-2.23-3.65-1.62c-4.86,2.53-10.33,0.7-15.4,2.13c-26.15,7.35-103.08,18.66-9.93,1.01
		c3.34-0.63,6.28-2.46,9.83-3.04c4.55-0.74,9.12-0.2,13.78-1.42c-4.47-9.88-0.91-11.28-0.61-9.02c0.6,4.46,0.17,7.9,3.75,7.9
		c4.15-7.8-0.51-12.97-5.17-18.64c-3.44,1.32-7.18,1.17-10.64,2.03c-7.89,1.96-5.94,6.71-10.03,11.04c3.24,0,5.88-0.71,8.31-1.42
		c0.52-0.78-2.8-4.29,4.15-0.81c2.33-1.22,5.47-1.42,5.17-5.77c6.45,7.21,9.88,5.6-63.21,18.03c1.22,3.95-0.61,7.8-0.2,11.75
		C247.41,290.58,254.71,291.12,262.3,289.97z M258.45,418.11c11.16-55.04,5.57-57.39,5.57-63.61c-2.74,3.55-1.72,7.19-2.94,10.33
		c-2.4-7.2,4.42-13.62,3.65-25.73c-2.32-36.6,1.39-36.08-18.13-44.57c-4.36,4.05-9.22,6.89-15.5,5.47
		c-5.57,4.56-11.45,8.31-18.23,10.64c-9.94,3.41-10.39,21.62-11.65,26.64c22.37,7.88,20.3,9.27,17.42,20.06
		c-16.36,61.32,7.34,23.91,2.03,105.65c-0.49,7.61-0.61,7.6,3.14,14.69c1.42,0.2,2.94,0.51,4.66,0.81c0.51-3.04-0.61-6.48,2.43-9.02
		c1.42,2.63,1.01,5.47,1.22,8.31c2.23,0.41,4.15,0.2,6.18-0.51c-0.2-2.23-0.41-4.25-0.71-6.99c3.31,6.11,1.14,7.56,3.44,6.79
		c12.83-2.84,12.12,1.01,15.09-36.67C256.72,432.9,256.96,425.51,258.45,418.11z M225.43,484.76c5.27,3.14,9.22,1.62,15.9-4.56
		C222.72,482.66,224.96,479.11,225.43,484.76z M246.2,478.89c3.21,0.8,5.14,1.99,4.15-1.62
		C248.93,477.77,247.82,478.28,246.2,478.89z M249.54,522.65c9.67,4.41,27.29,7.3,37.89,8.21c7.29,0.62,13.97-2.1,20.87-2.94
		c3.51-0.43,4.43-8.12,4.05-11.65c-8-2.53-15.7-5.67-22.79-10.53c-1.32,0.71-2.73,2.33-4.46,0.71c0.41-1.42,1.92-0.71,2.43-1.62
		c-1.22-0.81-1.22-0.81-5.17,1.32c-0.71-0.81-1.52-1.72-2.33-2.63c0.41-1.42,2.43-0.91,2.94-2.33c-3.14-0.51-4.96,4.15-8.1,2.53
		c-0.91-1.32,0-2.43-0.71-3.34c4.07-2.65,9.02,1.78,4.46-3.44c-6.27,2.17-11.12,4.76-11.45,0.2c7.45-4.11,14.42,2.56,5.98-4.36
		c-4.76,1.22-9.12,3.95-14.18,2.63c4.9-8.11,16.88-0.34,10.13-7.09c-4.86-0.41-9.42,2.53-14.28,0.91c3.44-2.73,7.5-3.04,11.85-3.55
		c-3.65-0.51-3.75-3.55-4.76-5.88c-1.41-3.24-3.65-5.88-5.77-9.22c-5.3,14.01,0.09,10.54-0.1,13.98c-5.25,0.62-7.67-5.28-13.37,0.71
		c-3.3,3.47-7.44,5-15.4,3.55c-5.9-1.08-4.3-6.11-9.62-15.7c-2.35,1.51-2.09,12.6-7.29,20.46c-1.78,2.7,1.04,4.63-1.82,11.45
		c-0.84,2.01-1.92,4.05-1.72,6.58C212.87,523.36,236.39,516.64,249.54,522.65z M153.41,499.25c-3.22,8.04-6.64,7.46-7.6,13.37
		c-0.79,4.87-1.82,9.62-4.15,13.98c8.24,11.07,20.54,8.44,34.44,18.74c2.21,1.64,5.06,1.32,7.5,2.33
		c16.26,6.72,18.65,5.39,26.03,4.96c6.32-0.36,21.57-2.51,24.72-5.17c1.12-19.64,0.26-2.42-24.62-27.65
		c-4.76,3.04-9.12,6.08-14.89,6.28c0.61-3.55,1.32-3.95,13.17-7.29c-1.52-1.92-3.04-3.85-4.66-5.88
		c-6.38,1.52-12.46,3.34-18.33,5.77c-2.1-3.74,4.16-8,16.51-8c-0.2-2.13-1.41-1.91-2.94-1.62c-6.27,1.18-12.76,0.61-18.94,2.43
		c-0.2,0.1-0.51-0.3-0.91-0.51c-0.2-2.43,2.13-2.63,3.44-4.05c-2.63-0.41-4.96,1.92-7.39,0.61c2.23-4.66,11.75-6.89,21.47-5.17
		c-0.3-1.32-1.22-2.33-2.03-3.65c-7.09,1.72-14.38,2.43-21.07,5.98c1.22-4.96,10.74-8.71,19.65-8.21
		c-0.51-3.85-2.94-6.99-3.75-10.64c-4.19-1.84-16.27-0.2-18.23,5.98c-2.94,9.22,4.04,8.17-11.14,14.28
		C156.89,507.26,153.94,502.23,153.41,499.25z M166.58,495.5c-3.14-0.2-5.98,1.11-9.42,0c0.81,2.73-0.1,5.17,1.72,7.5
		C172.56,498.89,166.26,500.56,166.58,495.5z M145,395.22c12.96,99.76,11.35,54.07,11.35,95.83c0,0.3,0,0.71,0.71,0.81
		c0.71-2.63,0.91-5.57,2.53-8c0.61,9.17-4.33,11.17,7.29,9.02c3.81-12.78,20.25-9.01,18.74-12.05c-8.12-16.35-1.39-29.64,5.57-87.12
		c1.04-8.59,4.82-19.36,0.51-28.26c-0.13-0.26-3.39-16.03,2.73,3.44c1.56-6.23-0.19-10.87,1.92-12.66
		c0.69-0.52,3.33-21.68,3.34-21.78c0.75-6.78-0.51-13.68-2.53-20.26c-12.86-4.66-25.83-8.41-39.2-9.32
		c-7.29,6.08-11.14,13.88-13.98,22.69c4.56,0,9.42,0.1,12.26,4.86c-4.25-1.42-8.91-0.2-13.17-2.43c-1.32,5.27-2.43,10.43-4.15,15.8
		c3.55,0.41,6.59,1.91,9.83,2.73c2.74,0.7,3.58,1.42,3.34,4.15c-0.32,3.71,0.06,2.69-0.51,3.55c-2.29-4.07-0.3-7.88-3.44-2.23
		C152,356.3,141.13,365.42,145,395.22z M130.42,388.53c3.76-2.52,6.38-6.28,9.42-9.52c3.23-3.44-0.57-6.4,7.39-28.46
		c-2.94-1.11-6.18-1.62-9.52-1.72c-1.22,1.62-2.14,3.44-2.53,5.17c-1.9,8.39-6,15.97-8.21,24.11
		C123.01,392.67,122.41,393.9,130.42,388.53z M46.24,327.25c3.92,1.91,11.64,9.89,17.52,7.6c4.14-1.62,7.28,4.92,14.89,5.98
		c0.3,0,0.71,0.2,0.91,0.41c4.81,4.71,11.4,7.04,16.11,11.85c2.25,2.3,2.21,7.33,9.32,15.9c4.9,5.92-0.26,4.64,17.02,19.04
		c7.35-28.18,17.08-44.31,20.36-62.91c1.12-6.38,3.24-12.36,7.39-17.42c0.91-1.11,1.5-2.98,3.85-2.13c0.3,0.11,0.91-0.81,1.22-1.82
		c-4.66,0.2-8.71,1.52-13.07,2.23c-1.79,33.38-10.43,34.21-11.65,38.8c-2.73,10.28-9.52,16.92-18.33,21.88
		c6.28-6.28,13.17-12.16,17.02-20.97c-8.51,3.85-16.51,7.8-26.13,6.89c0.81,3.55,2.53,7.6,1.22,11.75
		c-2.34-12.04-2.21-13.03-4.96-14.38c-12.72-6.26-20.26-16.51-23.2-30.49c-1.42,0.61-2.83,1.12-4.25,1.82
		c-8.37,4.12-15.18-4.1-20.06,4.76c-1.92-0.2-0.41-1.82-1.42-2.43c-1.72,0.3-3.55,0.71-5.37,1.01
		C44.62,326.03,45.42,326.85,46.24,327.25z M7.85,329.88c8.2-1.58,80.78-15.49,88.74-17.12c3.55-4.36,3.44-8.1-0.61-12.16
		c-133.85,23.43-74.28,10.9-90.26,28.46c0.51-4.25,1.62-8.31-2.43-11.45C2.64,320.99-0.9,331.57,7.85,329.88z"/>
	<path d="M118.26,517.78c0.2,0,0.14-0.02,0.1,0.1L118.26,517.78z"/>
	<path d="M224.22,133.57l-0.1-0.1C224.15,133.49,224.27,133.57,224.22,133.57z"/>
	<path d="M123.23,285.2c-0.05-0.11-0.1-0.22-0.16-0.33c2.11,3.32,1.51,2.06,2.08,6.83C122.83,288.44,121.76,283.81,123.23,285.2z"/>
	<path d="M752.18,338.79c-2.47,2.19,1.23,3.14-8,3.14c-4.35,4.57-7.13,1.1-9.42,2.23c-4.95,2.45-9.14-0.44-13.47-2.03
		c-1.32-0.49-2.33-1.72-2.53-3.34c1.69-0.48,5.08,4.05,12.86,4.15c5.09,0.07,2.4-2.79,6.18-13.78c0.31-1.09,4.83-6.63-1.22,12.36
		c1.92,1.01,3.65,0.71,5.57-0.2c2.12-8.84,0.64-12.85,4.25-14.99c-0.3,4.46-1.42,8.81-1.52,13.27c8.13,1.91,2.27-3.81,6.48-13.78
		c1.82,2.33-0.41,5.47,2.63,6.89c-1.82,0.91-2.63,1.92-1.72,3.65c1.11-1.01,2.23-1.92,2.94-2.53c0.81-2.33,0.4-4.45-0.51-5.98
		c-3.26-5.46-4.87-11.84-8.71-17.02c-11.49-15.49-11.98-19-15.09-21.68c-6.09-5.25-10.54-11.95-16.51-17.22
		c-18.36-16.19-3.34-3.59-15.09-15.19c-14.2-14.02-13.69-8.07-20.56-14.08c2.33-0.51,4.05,1.01,6.18,0.91c-8-8.91-9.83-12.66-8-15.7
		c2.11,0.3-0.44,4.6,7.39,11.24c23.48,19.91,55.31,54.77,69.49,82.05c66.1-7.6,60.36-6.67,60.88-7.7
		c-2.76-15.32,11.93-40.5,42.54-32.62c12.61,3.24,13.33,8.72,22.39,25.93c5.37-0.71,10.94-0.71,16.31-2.33
		c2.13,0.81,3.27,2.52,3.85,4.46c2.02,6.73-10,6.38-20.56,7.8c0.5,16.25-8.64,33.4-25.83,35.15c-9.11,0.93-24.97-5.47-28.46-10.13
		c-3.78-5.04-8.1-9.83-9.83-16.41c-19.04,2.43-37.89,4.96-56.83,7.39C756.94,335.55,756.33,339.1,752.18,338.79z M879.81,314.89
		c13.71-1.85,18.97-1.58,18.23-5.17c-0.86-4.18-3.81-2.85-18.23-1.11C879.61,310.84,879.51,312.66,879.81,314.89z M825.11,338.49
		c8.44,11.78,49.54,24.26,52.47-22.59c0.52-8.31-3.94-15-7.29-22.08c-4.03-8.52-15.26-12.12-17.02-11.14
		c1.32,1.42,3.24,1.52,4.36,3.34c-6.23,0-3.68-6.13-16.71-4.56c-15.37,1.86-26.12,17.35-24.31,32.41c12.47,0,24.38-5.74,26.03,2.43
		c0.43,2.12-2.02,5.4-4.46,5.98c-0.91,0.21-2.03-0.1-2.84,0.51c4.16,3.92,12.58-1.93,7.8-10.03c-2.63-4.46-4.15-4.66-11.95-1.32
		c2.44-5.62,4.05-2.94,6.18-3.44c4.04-0.96,6.67,0.62,8.31,4.36c2,4.57,1.71,7.08-1.62,10.74c-4.59,5.03-8.42,4.23-10.94,0.2
		c-2.19-0.34-13.81,1.53-16.11,1.82C819.84,329.78,822.11,334.31,825.11,338.49z M770.81,329.37c70.69-8.59,69.9-8.04,69.59-12.56
		c-0.35-5.07-5.99-3.12-17.52-1.82c-1.45,0.16-57.4,6.41-68.58,8C759.16,333.07,753.08,331.53,770.81,329.37z"/>
	<path d="M443.32,450.42c15.86-13.61,23.32-15.13,28.36-19.04c12.75-9.89,26.39-21.25,39.51-11.55
		c6.23,4.61,49.94,76.19,53.79,82.76c-5.09,0.89-2.1,2.61-19.85,6.79c5.07,3,17.88,3.75,21.43,6.08c0.53-1.65-0.39-1.44,24.87-6.78
		c1.56-7.14,12.51-11.78,11.04-26.54c-1.98-19.97-1.07-22.12-1.82-25.83c-11.1-54.72-6.86-45.47-10.53-57.84
		c-3.07-10.33,0.04-17.29-1.01-18.13c-1.22,0.97-4.5,11.84-17.52,15.6c-16.34,4.72-17.6,3.11-27.45-3.85
		c-5.02,4.14,1.59,20.5,4.46,26.24c49.32,98.65,28.92,74.13,48.12,80.53c-2.74-0.71-5.27,0.1-7.9,0.51c-0.41,1.01,1.32,1.82,0,2.84
		c-1.52-0.71-2.94-1.72-3.95-3.24c-2.5-3.78-32.57-65.94-32.62-66.05c-5.99-12.7-17.2-35.34-11.35-42.75
		c-7.39-7.8-11.65-16.61-13.07-26.94c-4.33,0-37.76,5.03-67.97,8.71c-5.97,0.73-9.91-3.37-7.09-12.26
		c1.96-6.19,1.04-3.38,69.79-12.26c17.22-2.22-33.85-6.51-40.92-8.81c-7.31-2.39-14.99-1.72-22.59-3.44
		c1.88-3.49,27.06,2.23,51.46,4.36c0.2-1.52,0.41-2.63,0.61-3.85c-5.27-0.71-9.44-3.02-12.86-6.89c-2.25-2.54-7.19-1.47-11.75-9.52
		c-2.63-4.64-7.44-2.04-12.76-5.88c3.14,0,6.38,0,9.93,0c-0.91-2.43-1.22-4.76-2.63-6.89c-6.62,0.29-9.16-2.14-10.53-1.52
		c-4.17,1.89-8.61-0.3-12.86,1.11c-0.51,0.1-1.52-0.2-1.82-1.01c39.41-5.77,21.94,14.8,16.92-30.09
		c-1.38-12.31,6.09-14.45,9.02-18.94c1.44-2.21,0.22-4.55,0.71-6.79c3.48-15.88,23.42-88.29,34.54-99.88
		c2.34-2.44,2.03-2.45,10.23-21.27c2.26-5.17,4.86-5.81,14.79-13.98c13.91-11.44,11.09-12.66,35.15-17.22
		c1.43-0.27,2.83,0.59,4.36,0.2c4.14-1.06,8.41-0.49,12.66-0.91c4.86-0.48,9.62-1.8,14.59-1.92c3.34-0.08,4.66-2.74,3.95-5.67
		c1.61-2.22,5.75-2.31,6.89-6.99c1.16-4.76,4.38-4.63,10.64-14.38c3.12-4.87,5.27-10.64,11.65-12.46c0.3,0,0.51-0.51,0.71-0.71
		c5.54-5.54,19.02-10.36,23.6-6.99c2.38,1.75,2.64-5.28,7.29-1.42c1,0.83,1.82,1.92,2.73,2.84c1.52-3.75,2.53-3.95,5.88-1.32
		c1.01-1.01,0.91-3.04,2.63-3.55c2.13,2.23,2.13,2.23,1.22,5.98c1.82,3.14,3.95,5.47,6.48,6.69c0.41,1.22-0.91,1.42-0.2,2.43
		c4.62,2.81,14.23,11.91,12.76,16.61c-1.29,4.13,1.01,8,0.71,12.16c0,1.14,3.69-1.38,1.32,16.21c0.91,1.62,3.14,1.11,3.75,2.73
		c-0.3,1.32-2.13,0.41-2.23,1.72c1.7,1.7,3.63-0.57,5.98-0.1c0.71,0.81,1.62,1.72,2.53,2.73c-1.92,1.62-4.66,0.3-6.48,2.03
		c2.23,0.51,4.36-0.3,6.48,0.71c-1.82,2.03-4.25,1.52-6.38,1.92c0.91,1.82,2.43,1.32,4.36,1.92c-2.13,0.91-1.01,2.74-1.82,3.95
		c-0.61,1.32-1.72-0.41-2.23,0.41c0.3,1.42,1.92,2.03,1.82,3.55c-1.92,0.3-2.73-1.22-4.15-1.62c-0.99,0.4,1.83,2.42-3.95-0.2
		c0,1.42,1.72,1.52,1.32,2.94c-3.55,0.1-7.09-0.61-10.84-1.82c2.13,2.63,5.47,2.73,7.19,5.37c-5.17,0.61-10.23,1.32-14.69-1.32
		c-1.62,1.01-2.13,2.63-3.95,3.24c-7.67-2.88-6.94,2.75-10.74-0.2c3.14-2.33,6.69-2.33,10.23-1.42c0.51-1.32,1.82-1.62,2.13-3.14
		c-5.06-3.44-9.62-7.5-11.85-12.66c-8-2.33-15.6-2.84-22.99-4.76c-17.51-4.54-18.15,4.1-19.85,0c1.72-2.53,3.65-4.96,6.28-6.99
		c5.97-4.62,0.18-15.31-8.1-8.21c0.1-0.1-3.85,0.64-3.34,5.47c0.29,2.74,1.92,5.27,1.22,8c0.61,0.91,2.13,0,2.13,1.62
		c-1.32,1.32-2.53,0.51-3.85-0.2c-0.81-5.17-4.05-10.23-0.41-15.5c-3.75-0.2-4.76,2.94-6.89,4.86c-0.71-1.62,1.22-2.53,0.71-3.85
		c-4.99-1.39-4.13,2.26-12.66,2.53c-16.97,0.54-10.1,0.51-7.9,9.32c9.48,37.93,7.71,40.07,12.46,52.57
		c4.79,12.62,13.62,20.42,17.12,19.96c7.6-8.1,8.41-18.54,9.72-28.87c-0.89-0.69-2.05-0.9-2.67-1.85
		c-13.69,7.04-13.73,7.23-14.74,5.7c0.29-3.5,9.89-4.37,13.07-6.48c0.52-0.35,5.59,3.84-5.98-6.79c-5.27,0.61-7.5,4.96-11.24,6.99
		c0.51-5.67,5.67-6.89,9.72-9.52c-0.91-1.01-0.72-2.61-2.23-3.24c-2.34-0.98-2.63-3.14-3.24-5.77c1.52,0.91,1.62,2.43,2.73,2.94
		c0.61-1.42-1.01-2.84,0.3-5.17c4.3,15.2,16.83,23.63,20.87,21.07c2.47-1.56,4.76-2.53,7.8-1.42c-1.62-2.13-4.66-1.72-5.98-3.95
		c1.99-3.39,5.5,3.78,13.78,1.32c1.37,0-0.49,2.22-3.65,3.04c-17.35,4.48-8.13-0.52-9.93,28.97c-0.2,3.24,1.42,5.88,2.33,8.91
		c6.63-5.77,4.33-13.78,16-13.78c-2.13,1.11-3.65,1.82-5.37,2.74c-0.27,3.22-15.14,20.13-14.38,23.3
		c1.36,5.69,0.89,11.71,3.65,17.02c0.73,1.41,1.01,2.94,1.52,4.46c-3.13,1.04-5.58-13.15-8.31-19.45
		c-12.16,13.33-8.88,7.77-8.81,15.8c0.05,5.98,0.71,11.85,2.74,17.52c7.76,21.77,5.64,25.82,16.61,35.25
		c23.2,19.95,38.96,14.93,64.62,37.29c0-0.08,0-0.01,0.1,0.09c-0.03-0.03-0.06-0.05-0.09-0.07c2.49,10.39-1.72,14.58-0.2,20.13
		c3.75-0.51,7.39-0.91,11.04-1.42c0.51-0.61-0.51-1.32,0.3-1.82c0.71-0.3,1.32-0.1,1.62,0.61c-1.72,2.84,1.01,5.27,0.81,8
		c-0.21,2.84-1.42,5.17-2.23,7.8c-1.22-0.3-0.61-1.62-1.92-1.92c-2.94,0.91-6.48,0.41-9.83,1.72c0.51,2.73,0.8,5.27,0.3,7.8
		c-2.15,11.03,2.84,4.24-1.92,48.62c-0.34,3.19-4.97,19.59-9.32,68.78c4.56,3.95,8.24,8.43,9.93,14.18
		c1.7,5.83,6.36,5.7,10.84,11.45c7.68,9.84,18.58,14.2,36.06,22.69c3.73,1.81,0.41,10.43,0.3,10.84c-1.21,4.61-4.44,4.96-9.22,5.77
		c-7.6,1.29-14.99,3.93-22.89,3.14c-3.14-0.31-6.08-1.52-9.12-2.03c-21.03-3.53-25.96-11.04-38.49-10.23
		c-5.88,0.38-11.75,1.82-17.63-0.71c8.92,11.81,19.69,9.94,20.87,18.44c1.29,9.31-0.62,11.01-8.71,13.17
		c-9.14,2.44-28.42,6.05-36.67,1.32c-7.16-4.11-11-0.84-21.98-8.91c-7.44-5.47-20.2-4.85-28.36-13.68
		c-6.24-6.74,0.11-3.21,0.91-18.84c-12.94,3.38-16.06,5.23-24.27,5.27c0.93,0.61,1.23,1.34,0.55,2.24
		c-8.32-3.86-19.56-1.45-26.74-8.81c6.99-4.36,15.3-2.94,21.78-6.99c-23.58-38.08-28.98-44.62-48.93-76.78
		c-6.55-10.56-21.71-5.63-30.09,0.51c-27.27,19.96-1.5,0.94-39.2,27.05C438.84,456.19,441.05,452.37,443.32,450.42z M704.77,100.54
		c0.2-1.82-0.3-3.44-1.22-5.57C702.84,97.5,703.65,99.02,704.77,100.54z M702.64,84.23c-0.1-1.11-0.2-2.13-0.41-3.44
		C700.01,82.31,701.93,83.32,702.64,84.23z M700.82,124.04c-2.43-1.82-4.86-2.43-6.69-3.95
		C695.45,122.63,697.58,123.64,700.82,124.04z M694.94,99.94c-0.51-1.01-0.41-1.72-1.11-2.13
		C693.42,98.62,693.63,99.23,694.94,99.94z M693.73,73.09c-0.3-1.62-0.81-2.53-2.03-3.55C692.21,71.07,692.61,71.98,693.73,73.09z
		 M687.95,77.24c-0.41,1.22,0,1.72,0.81,2.53C689.07,78.66,688.66,77.95,687.95,77.24z M687.85,93.76c0.74,0,1,0.14,0-3.55
		C686.84,91.63,687.65,92.64,687.85,93.76z M687.35,113c0.1-1.32,0-2.33-1.11-3.24C685.02,111.69,686.64,112.29,687.35,113z
		 M684.91,74c0.91-0.91,0.91-0.91,0-2.63C684.91,72.69,684.91,73.29,684.91,74z M681.98,93.55c0,0.91,0.2,1.62,1.22,2.13
		C683.19,94.67,683.5,93.76,681.98,93.55z M683.5,122.42c-0.6-1.41-1.21-2.32-2.61-2.43C680.98,120.21,681.41,121.38,683.5,122.42z
		 M680.86,120.09c0-0.05,0-0.08,0-0.1l0,0c0.04-0.84-0.54-1.24-1.11-1.72C679.34,119.38,680.25,119.59,680.86,120.09z M670.53,66.51
		c1.62-1.62,2.23-3.65,2.94-5.67C671.44,62.15,671.04,64.38,670.53,66.51z M671.54,76.03c0.61-0.51,0.41-1.01,0.2-1.72
		C670.73,75.02,670.94,75.42,671.54,76.03z M678.23,86.26c-0.91,0.91-0.81,1.82-1.22,2.84C678.23,88.29,678.33,87.48,678.23,86.26z
		 M676.91,56.38c-1.72,0.1-3.75-0.2-3.85,2.63C675.19,59.21,675.8,57.39,676.91,56.38z M673.77,100.85
		c0.41-0.41,1.11-0.71,0.61-1.62C673.47,99.53,673.37,100.14,673.77,100.85z M673.27,96.29c0.1-1.22,0.71-2.23-0.3-3.04
		C671.14,94.87,671.14,94.87,673.27,96.29z M671.34,109.76c0.2-1.01,0.61-1.72,0-2.33C669.72,108.14,669.72,108.14,671.34,109.76z
		 M669.72,81.09c-1.32,1.32-1.72,3.04-2.13,4.76C669.21,84.64,669.82,83.02,669.72,81.09z M656.04,88.49
		c1.52-0.1,1.01-1.42,1.62-1.92C656.65,86.87,656.35,87.48,656.04,88.49z M662.63,61.34c0.61,0.1,1.01-0.2,1.32-0.81
		C663.14,60.43,662.83,60.73,662.63,61.34z M665.06,72.48c0,1.62-0.91,2.94-1.11,4.56C664.66,75.62,666.38,74.51,665.06,72.48z
		 M663.54,70.56c1.72-0.81,1.52-2.13,1.62-3.65C662.53,67.42,662.63,68.74,663.54,70.56z M662.73,61.44
		c-0.61-0.1-1.01,0.2-1.42,1.01C662.02,62.15,662.53,62.15,662.73,61.44z M659.19,94.06c1.72-1.72,1.72-3.55,1.82-5.27
		C659.49,90.01,658.07,91.22,659.19,94.06z M656.55,107.84c0.51,0.2,1.11,0.3,1.92,0.41c-1.11-1.82-1.11-1.82-3.55-0.91
		C655.23,108.14,655.94,107.73,656.55,107.84z M654.02,85.45c0.81-0.51,1.22-1.01,1.22-2.13C654.02,83.63,653.92,84.34,654.02,85.45
		z M653.92,82.01c-1.11-1.22-0.71-3.65-3.04-4.36C650.57,80.18,652.5,80.89,653.92,82.01z M653.51,50.1
		c-2.03,0.2-3.85,1.11-6.28,2.33C650.47,53.24,651.79,51.21,653.51,50.1z M646.22,98.82c0.51,0.13,0.96-0.53,0.2-0.91
		C645.89,97.73,645.85,98.82,646.22,98.82z M645.31,70.76c0,0.61-0.1,1.22-0.1,2.23C646.02,71.98,645.51,71.37,645.31,70.76z
		 M638.01,105.3c-0.91-0.1-1.32,0.3-1.01,1.22C637.71,106.42,638.32,106.22,638.01,105.3z M640.85,60.73
		c0.71-0.71,0.2-1.32-0.2-2.23C639.63,59.62,639.23,60.43,640.85,60.73z M630.72,74.81c0.1-0.81-0.2-1.11-0.61-1.32
		C629.3,74.21,629.71,74.51,630.72,74.81z M622.72,83.53c-1.01,0.71-1.32,1.42-1.11,2.33c0.81,0.41,1.22-0.51,1.72-0.41
		C623.73,84.44,622.72,84.23,622.72,83.53z M622.72,91.32c-0.81-1.01-1.32-0.91-1.72-0.1C621.5,91.93,622.11,91.32,622.72,91.32z
		 M602.97,455.99c3.99,14.21,1.18,27.29,2.33,33.83c1.22-2.63,1.22-5.67,3.04-8.71c0.54,10.29-4.67,11.92,7.19,9.72
		c2.43-9.72,11.24-9.12,18.54-11.35c0.82-1.64-5.52-6.81-3.24-26.54c2.53-21.84,2.93-15.21,3.55-20.66
		c8.89-78.28,9.84-46.88,4.46-75.16c3.02-1.51,4.86,23.33,4.86-0.81c-1.42-1.42-3.04-2.03-4.76-2.23c-4.07-6.11,10.24-7.06-41.13,0
		c-1.92,5.06-2.4,10.34-3.65,15.4C590.25,385.32,601.1,449.34,602.97,455.99z M606.41,493.47c0.2,2.63-0.3,5.17,1.32,7.39
		c12.71-3.69,8.26-2.22,7.6-7.5C612.39,493.17,609.55,494.59,606.41,493.47z M657.97,488.41c5.22-7.28,0.09-14.2,8.1-19.96
		c5.64-78.95-15.74-64.49-6.38-96.43c0.73-2.48,4.9-15.05,3.85-16.31c-1.71,0-2.26,3.94-8.1,1.92c-3.02-1.04-6.6,2.73-8.61,0.1
		c-2.1,10.66-3.36,39.13-6.99,49.84c-2.48,7.31-0.38,6.49-5.27,35.56c-2.12,12.63-0.14,11.17,1.01,30.49
		c0.13,2.13,0.2,4.25,1.22,6.58c3.04,0.3,4.07,2.63,4.25,5.57c0.22,3.47,1.65,2.13,9.52,17.52c0.62,1.21,1.11,2.43,2.33,3.44
		c1.11-4.56,3.78-8.62,2.94-13.57C655.55,491.45,656.95,489.82,657.97,488.41z M642.27,346.29c0-5.71,3.8-10.98-5.06-9.83
		c-53.59,7-42.62,1.05-42.24,16.31C610.87,350.44,626.47,348.42,642.27,346.29z M553.43,395.11c5.96,2.11,5.81,2.26,8.31,1.01
		c11.91-5.18,5.66-2.02,5.27-0.3c17.93-5.1,21.74-16.41,24.62-34.74c1.05-6.73,2.13-6.44,1.42-10.53
		c-3.13-17.98-13.17-45.11-30.09-47.2c-3.24-0.4-6.28-1.72-9.83-1.01c12.86,4.36,18.74,14.59,22.79,26.34
		c-3.97-3.38-2.11-4.94-12.86-18.03c-2.15-2.62-4.14-3.23-13.07-7.7c-6.69,1.11-10.84,5.77-14.49,11.45
		c6.69,7.5,12.16,15.09,15.4,24.72c11.13,2.92,13.98,25.99-1.82,25.22c-2.13-0.1-2.84-1.92-4.46-3.14
		c-4.66,0.61-9.42,1.22-14.59,1.92C532.2,377.89,539.16,390.07,553.43,395.11z M547.05,339.5c0.21,0.41,2.37,0.71-0.91-5.47
		c-5.89-11.09-9.66-14.59-10.23-16.51c-2.61-8.81-17.2-1.53-5.57,6.69C536.56,328.6,542.8,333.02,547.05,339.5z M542.59,338.59
		c-3.14-4.05-7.09-7.29-11.35-10.53C529.84,330.59,529.89,331.04,542.59,338.59z M457.81,356.93c2.73,4.15,4.25,8.21-0.2,12.76
		c0.91-4.36,2.03-8.21-1.42-11.65c-1.01,2.74-1.87,5.27-2.13,8c-0.25,2.74,3.44,4.94,6.48,4.46c23.78-3.77,74.2-9.55,89.24-12.05
		c3.34-5.06,3.24-7.8-0.3-12.05C519.29,349.83,488.91,353.38,457.81,356.93z M529.73,346.9c-0.41-0.91-1.01-0.91-1.82-0.41
		C528.41,347.4,529.12,347.1,529.73,346.9z M514.03,340.52c3.49,1.65,1.9,0.04,24.41,4.96c2.94,0.64,10.7-0.65,12.16-1.01
		c7.22,6.47,3.48,15.72-3.65,16.41c0.71,1.42,2.23,1.01,3.04,1.92c9.06-3.88,9.4-9.36,4.46-18.03c-4.45-7.8-9.41-0.37-10.84-0.61
		c0.47-2.26,1.5-0.79-25.43-18.74C517.47,331.09,513.42,335.15,514.03,340.52z M485.26,249.85c0.61-1.62,1.92-3.04,1.92-5.27
		C485.16,246.11,484.55,247.73,485.26,249.85z M483.23,260.19c1.03,0.69-0.4,1.19,6.99-3.95c-1.42-0.61-2.43-1.11-3.75-1.72
		C485.16,256.34,484.85,258.67,483.23,260.19z M494.58,254.72c1.32-0.71,0.61-1.72,1.01-2.53c-1.11-0.2-1.22,1.42-2.43,1.01
		c-0.91-1.22,0.81-2.33-0.1-3.55c-1.22,0.51-0.41,2.63-2.33,2.63c-1.42-1.01-0.41-2.53-0.51-4.46c-0.81,1.42-1.82,1.92-3.04,3.04
		C489.21,253.5,492.45,253.3,494.58,254.72z M644.09,190.19c3.5-6.45-3.38-1.64-2.13-26.13c0.54-10.55,3.18-14.25-2.84-12.97
		c-0.98,8.81,1.4,16.32-8,28.16c-8.61,10.84-23.61-14.15-22.69-17.42c0.53-1.86-3.77-2.94-6.69-21.98
		c-5.01-32.68-3.34-18.18-9.72-40.21c-2.63,0.2-5.17,0.51-8,0.71c3.24,6.38,6.41,12.65,9.42,18.94
		c12.73,26.65,5.48,59.23,0.51,58.35c-2.81-2.5,7.7-13.11,2.13-40.01c-2.83-13.65-12.38-34.14-14.18-36.57
		c-12.71-0.51-22.54,1.58-35.05,13.17c-6.99,6.48-9.22,15.5-10.33,24.92c-6.17,0.56,3.3-16.92,3.55-18.33
		c-15.47,11.29-8.65,7.36-14.59,19.65c-2.75,5.69-1.13,13.7,1.72,28.46c1.13,5.87,6.79,12.46,12.97,15.09
		c5.16-21.2-5.68-11.74-3.95-31.2c0.21-2.33-0.51-4.66,0.3-6.99c1.36,0.54-0.23,4.52,4.76,18.23c2.13,5.86,3.58,51.01,6.18,55.81
		c2.76,5.1,4.33,10.54,5.47,16.21c2.43,12.09,6.18,12.66,9.02,27.35c1.37,7.11,8.12,12.87,13.78,17.22
		c-1.32-3.85-3.75-7.09-6.18-10.33c3.87-1.81,4.98,10.03,13.68,14.18c3.76,1.8,6.78,4.77,10.33,6.89
		c9.24,5.52,20.91,7.41,36.06,18.33c-1.02,3.84-3.73-1.63-20.46-8c-9.63,5.33-15.45,17.47-16.61,23.91c4.86,0.3,9.72,0.3,12.46,5.17
		c-5.65-1.94-15.1,0.93-13.68-6.79c1.69-9.15,5.76-20.13,14.49-23.4c-7.7-3.95-15.27-7.63-21.88-12.97
		c-9.94-8.03-20.48-9.82-23.6-21.37c-4.03-14.93-2.64-10.82-10.89-28.67c0.1,0,0.87-1.73-2.08-2.84
		c-29.75-11.2-13.07-7.02,0.81-1.22c-0.2-4.46-0.41-4.76-2.94-6.58c-0.1-1.11,0.81-0.2,1.22-0.61c-0.71-5.37-3.04-10.43-3.95-15.8
		c-0.91-5.37-1.01-10.94-1.92-16c-4.56-0.81-8.31,1.52-12.56,2.03c-0.91,4.96,3.95,8.21,4.96,13.27c-6.08-2.74-4.66-8.91-7.8-13.27
		c-0.51-0.3-1.42,0.41-2.73,0.2c0.61,2.53,0.71,4.76-0.41,7.09c-1.22-2.43-1.72-4.76-1.42-7.6c4.36-1.22,8.81-2.33,13.68-3.65
		c6.43-6.43,5.23-4.97,2.84-6.69c-6.79-4.25-11.41-10.03-12.36-18.23c-0.68-5.88-2.53-11.55-2.94-17.73
		c-10.24,16.16-3.85,6.82-18.74,40.11c-3.17,7.08-4.73,19.36-10.33,31.91c-2.83,6.34-3.56,15.01-4.25,21.58
		c25.99,14.94,23.81,7.33,42.65,10.94c3.95,0.76,1.75-1.73,18.03,1.11c1.72,0.3,3.44,0.3,5.37,0.41c-1.73,2.84-1.26,2.51-12.26,1.01
		c-1.52,1.72-3.34,3.04-5.77,1.72c-14.78,3.83-13.15-6.53-41.13,3.55c-1.01,0.3-1.92,1.22-3.34,0.3c1.62-2.33,4.46-2.43,6.89-4.15
		c-2.13-0.41-3.65-0.71-5.47-1.11c-2.73,3.44-6.38,5.38-10.53,6.79c-7.06,2.38-6.36,15.58-4.46,22.39c0.2-8,6.48-7.6,11.85-9.62
		c0.2-0.1-0.1-1.62,1.42-1.92c0,0.1,1.91,4.05-2.43,5.67c-1.83,0.69-3.75,1.42-5.57,3.04c7.07,2.21,6.01-0.98,36.47-13.57
		c4.84-2,24.49-4.38,11.85-1.01c-6.3,1.68-7.89,0.84-16,4.66c-12.97,6.1-17.1,5.87-23.2,19.25c-0.83,1.82-1.52,3.65-2.63,5.37
		c-1.11-4.15,1.72-7.29,3.14-11.35c-4.05,1.72-7.9,1.11-11.85,0.51c-1.07,7.78,6.62,36.02,16.51,39.51
		c1.34,0.47,6.54,6.84,14.49,6.48c1.42-1.82,1.92-4.15,2.94-6.69c-3.85,0.61-7.09,2.74-10.84,2.33c5.57-3.75,12.36-4.66,18.44-8
		c0.2,2.03-2.03,1.82-2.33,3.14c2.33,2.03,5.06,3.55,7.7,5.37c3.4-4.82-9.31-6.47-3.55-15.4c1.95-3.02,4.56-3.34,9.32-1.32
		c2.62-2.01,8.63-14.92,21.47-12.46c1.74,0.33,25.92-3.29,38.09,39.3c15.09-1.72,30.09-3.34,45.38-5.06
		c-0.61-1.82-1.03-3.44-1.82-4.86c-4.62-8.27-0.9-15.72-6.99-18.94c1.42-1.22,2.33,1.01,3.34-0.1c-0.2-3.24-3.95-3.75-5.47-6.18
		c4.66,0,9.13,5.27,8.71,9.72c-0.69,7.41,1.84,19.37,8.21,21.78c-1.22,5.17-1.11,9.12,0.51,16.41c-5,0.34-1.17-5.99-5.98-3.24
		c-0.15,1.46,1.2,3.93,3.34,4.15c3.24,0.33,5.67,4.96,9.72,1.32c0.1-4.86,0.3-10.03,3.85-14.49c0.3,5.37-2.13,10.43-1.11,16
		c1.11,0.61,2.33-0.41,3.95-0.3c1.82-5.17,1.72-10.74,3.24-16c3.24,4.46-0.41,8.91,0.3,13.37c4.66-0.1,4.78-0.1,5.57-4.86
		c0.52-3.14,0.71-6.38,3.14-9.02c0.71,4.15-2.03,8-0.91,12.26c7.16-0.42,4.05-8.22,6.89-16.21c0.79-2.23-0.8-4.87-1.82-6.99
		c-5.97-12.33-5.54-18.03-10.53-22.69c-5.67-4.66-11.95-8.81-17.12-14.08c-2.84-3.34-6.69-5.47-10.53-7.39
		c-13.08-9.58-11.76-11.42-30.49-23.5c-4.98-3.21-9.05-7.65-13.68-11.45c-3.78-3.1-4.05-5.88-2.03-9.83
		c1.11,0.91-0.3,2.74,1.11,3.55c2.23-7.19,4.55-14.28,5.47-21.88c3.19-26.39-8.16-40.2-3.34-42.85c1.01,0.3,1.02,0.91,1.11,1.62
		c1.31,9.68,9.16,16.56,5.37,37.99c-1.31,7.38-0.7,6.38,0.71,6.99c-0.71,1.82-2.84,2.94-2.33,5.37c1.62,0.61,3.75-0.2,5.37,1.62
		c-1.92,1.42-4.05-0.1-6.18,0.91c-1.31,4.38-2.35,3.65,2.53,3.65c3.85-3.24,6.91-6.88,9.12-11.24
		C615.39,215.4,635.97,205.15,644.09,190.19z M497.01,255.02c0.71,1.11,1.72,1.22,2.94,1.01c0.51-1.82,0.61-3.34-1.72-3.75
		C497.41,253.1,497.41,254.11,497.01,255.02z M504.3,255.12c0.61,2.23,1.72,0.3,2.53,0.51C506.4,254.76,504.3,254.11,504.3,255.12z
		 M529.53,257.15c3.34,2.23,6.38-1.11,9.52-0.51C535.81,255.73,532.77,257.55,529.53,257.15z M595.37,246.31
		c6.71-9.06,10.23-7.77,1.72-8.31c-0.2,1.82-0.2,1.82,1.52,2.94C597.61,243.34,596.91,237.57,595.37,246.31z M629.81,210.25
		c-14.6,13.36-14.05,12.7-15.5,15.09c-8.47,13.96-15.27,20.22-15.8,24.21c0.22,0.41,63,50.27,63.11,50.34
		c3.34-6.38,8.61-10.84,14.89-14.59C644.05,274.09,629.81,244.25,629.81,210.25z M712.06,306.07c0.23-2.7-13.22-10.96-15.5-12.36
		c0.71,3.75,1.11,6.89,0.1,10.13c0.81-3.65-1.82-6.79-1.22-10.43c-4.56-2.33-8.91-5.06-14.08-6.18c-7.6,2.53-14.18,6.48-18.13,14.18
		c12.2,5.07,10.03,21.01,16.71,25.22c-2.04,3.39-6.42,4.6,32.92-0.81C713.58,319.04,711.5,312.65,712.06,306.07z M727.26,334.94
		c1.32-3.04,0.91-5.67-0.41-8.81c-15.5,1.72-31.3,3.55-47.51,5.37c0.3,3.65,0.51,6.79-0.51,9.93
		C695.35,339.6,711.35,337.27,727.26,334.94z M705.17,436.14c0.19-1.62,0.88-3.11-0.41-4.76c-1.98-2.53,11.36-36.64,7.9-78.1
		c-2.43,2.84-1.52,6.48-2.63,9.62c-1.32-8.51,4.05-15.8,4.76-24.41c-12.26,1.62-23.91,3.14-35.56,4.66
		c-1.82,8.71-3.95,9.93-12.36,12.26c-1.01,1.22-0.9,2.74-1.01,4.15c-0.64,8.01-3.45,15.6-4.15,23.5c-0.41,4.56,0.41,8.91,0.3,13.47
		c-0.05,2.3,3.58,3.74,6.28,19.55c6.15,35.97-6.26,57.57,8.71,60.37c0.71-6.89,0.71-6.89,2.63-8.81c1.32,2.53,0.91,5.27,1.11,7.9
		c1.92,1.01,3.85,0.2,5.98,0c0.3-2.33-0.41-4.56-0.51-7.39c1.22,2.63,2.13,4.56,2.13,7.19C704.7,472.62,700.87,472.9,705.17,436.14z
		 M674.28,482.63c5.47,3.24,9.62,1.42,15.8-4.56C671.33,480.96,673.76,476.43,674.28,482.63z M698.99,477.97
		c0.61-1.01,0.61-1.72,0.3-2.53C692.65,477.1,696.19,477.04,698.99,477.97z M691.6,518.19c3.48,0.54,34.19,15.77,60.78,8.81
		c7.2-1.89,8.26-2.84,9.02-10.13c0.52-4.98-5.47-1.68-23.3-13.07c-1.22,1.32-2.63,2.03-4.25,0.91c0.3-1.52,1.82-0.81,2.43-1.82
		c0.2-0.71-1.32-1.22-2.23-0.61c-0.91,0.61-1.42,1.82-3.04,1.92c-0.51,0-0.71-0.81-1.01-1.32c-1.7-2.13-2.25-0.85,2.13-3.55
		c-3.55-0.81-5.27,4.15-8.21,2.53c-1.42-1.32,0.1-2.53-1.32-3.24c2.23-1.42,4.46-0.91,6.69-1.01c-1.59-6.35-12.67,4.95-13.47-2.23
		c7.89-4.63,14.68,3.42,5.98-4.56c-4.36,1.52-8.51,3.44-13.17,3.55c-0.3,0.01-0.71-0.51-1.42-1.11c3.34-4.56,8.41-3.34,12.97-4.15
		c-2.77-6-9.67,0.04-16.71-1.72c3.44-2.94,7.6-3.04,11.85-3.85c-3.04-0.2-3.62-2.34-4.25-4.46c-1.16-3.87-3.95-6.69-6.28-10.74
		c-5.44,15.15,0.82,10.63-0.3,14.38c-1.72-0.41-3.36-0.58-4.96-1.42c-8.3-4.35-7.9,8.05-20.87,5.67c-7.6-1.39-4.96,1.29-12.16-15.8
		c-1.5-0.75-2.71,11.11-3.85,12.26c-4.15,6.69-3.34,14.84-6.48,21.88c-0.63,1.41-0.1,2.84-0.71,4.05
		C661.45,519.89,682.48,516.78,691.6,518.19z M625.35,543.11c2.12,1.63,4.85,1.24,7.19,2.23c17.27,7.34,19.25,5.3,26.34,5.17
		c4.79-0.09,21.13-2.25,24.92-5.17c1.69-19.76-0.27-2.45-25.02-27.55c-4.96,2.94-9.12,6.38-14.99,6.08
		c1.01-3.55,3.44-4.76,13.37-6.99c-1.62-2.03-3.24-4.05-4.76-6.08c-6.28,1.72-12.46,3.24-18.13,5.88c-2.75-4.12,5.18-8,16.51-8
		c-0.2-1.32-0.81-2.14-2.23-1.82c-4.77,1.07-9.62,0.88-14.38,1.42c-2.02,0.23-3.95,1.42-6.18,0.91c-0.51-2.74,2.13-2.84,3.34-4.36
		c-2.63-0.2-4.96,1.92-7.6,0.61c3.04-4.86,12.76-7.09,21.68-5.06c-0.3-1.52-1.32-2.53-2.03-3.85c-7.09,1.72-14.38,2.33-20.97,6.28
		c-1.5-5.8,13.5-9.1,19.55-8.61c-0.51-3.95-2.94-7.09-3.85-10.74c-5.57-1.62-10.55,0.27-15.3,2.33c-2.54,1.1-3.2,3.95-3.44,6.58
		c-0.59,6.48,3.2,5.86-10.64,11.55c-2.41,0.99-5.54-3.98-5.98-6.79c-4.24,9.04-6.37,6.96-7.7,13.78c-0.89,4.56-1.62,9.22-3.95,13.37
		C599.46,535.75,611.88,532.74,625.35,543.11z"/>
	<path d="M9.37,441.31c19.31-10.56,37.47-31.28,52.27-19.55c6.68,5.29,50.23,75.61,54.19,82.96c-4.72,0.62-1.92,2.51-19.65,6.69
		c6.24,3.97,25.21,3.74,21.98,8.41c-7.65-4.01-19.3-1.18-26.74-8.81c6.99-4.46,15.3-3.04,21.78-6.99
		c-53.05-85.69-52.27-83.41-59.87-83.06c-15.05,0.7-15.9,6.78-43.86,22.99c-0.71,0.41-1.32,1.32-2.33,0.81
		C7.24,442.62,7.14,442.52,9.37,441.31z"/>
	<path d="M678.84,215.92c-0.28,7.19-2.94,12.97-9.42,16.61c1.42-2.94,3.24-5.77,6.08-7.9c0.94-20.25,2.05-17.27,1.62-19.85
		c-3.62-21.61-6.17-27.8-2.53-35.96c2.21-4.96,1.8-5.28,0.71-21.58c-0.22-3.34-0.41-6.89-2.23-10.43
		c-7.18,14.36-8.14,9.15-15.09,5.88c-1.11-0.61-2.33-1.42-1.52-3.14c3.44,1.22,5.47,4.76,9.22,4.66c3.75-2.94,5.17-7.5,8-11.14
		c1.92,3.85,4.04,6.99,4.46,10.84c3.55,32.49-7.34,27.89-1.72,40.32C682.69,198.12,679.08,209.75,678.84,215.92z"/>
	<path d="M229.89,217.95c-0.1,7.19-2.94,12.97-9.42,16.61c1.42-3.04,3.24-5.77,5.98-7.8c0.96-22.58,2.25-17.18,1.72-19.85
		c-10.09-51.26,0.35-16.59-1.82-57.23c-0.19-3.55-0.3-7.09-2.13-10.64c-1.62,2.53-2.73,5.17-4.56,7.29
		c-3.74,4.33-5.3,0.89-10.64-1.62c-1.11-0.61-2.23-1.42-1.52-3.14c3.44,1.22,5.47,4.76,9.22,4.66c3.75-2.94,5.17-7.5,8-11.14
		c1.92,3.85,4.04,6.99,4.46,10.84c3.59,32.8-7.36,27.98-1.72,40.32C234.54,201.74,229.99,210.49,229.89,217.95z"/>
	<path d="M452.13,338.19c-3.9,20.46-2.36,25.04-31.2,61.99c-0.8-7.16,3.96-8.38,18.23-30.19
		C452.02,350.36,446.25,339.36,452.13,338.19z"/>
	<path d="M626.97,98.52c-0.61-2.03,1.32-2.84,2.13-4.15c1.11,0,2.23-0.61,3.44-1.32c5.92-2.78,8.23,7.73,0.91,9.12
		c-0.71,2.53-2.33,3.44-5.06,2.63c0.71-1.92,0.71-3.75,0-5.37c1.01-1.3,2.94,1.22,1.62-2.74C628.8,97.2,628.39,98.52,626.97,98.52z
		 M632.85,95.48c0.81,0.71,1.62,1.22,2.33,1.92C635.48,94.77,635.48,94.77,632.85,95.48z M635.58,99.43
		c-1.42-0.41-2.43-0.1-3.65,0.1C633.46,100.34,633.46,100.34,635.58,99.43z"/>
	<path d="M212.57,132.65c-2.42-0.86-3.85-3.44-5.57-5.37c-0.2-0.3,0.1-0.81,0.61-1.32c8.83,4.17,19.51,8.31,15.19,8.31
		C219.46,132.96,215.83,133.81,212.57,132.65z"/>
	<path d="M661.52,130.63c-2.42-0.86-3.85-3.44-5.57-5.37c-0.2-0.3,0.1-0.81,0.61-1.32c8.13,3.99,19.75,8.31,15.19,8.31
		C668.4,130.93,664.78,131.78,661.52,130.63z"/>
	<path d="M185.62,150.48c-14.35,7.36-13.89,7.27-14.89,5.77c0.29-3.5,9.88-4.39,13.07-6.48
		C184.1,149.57,185.01,150.28,185.62,150.48z"/>
	<path d="M716.62,305.37c-1.08-4.88-4.54-4.13-5.67-9.12c2.53,1.72,3.44,4.25,5.77,5.17c0.61-0.51,0.51-1.72,1.82-1.32
		c0,1.72-0.41,3.44,0,5.27C717.73,305.37,717.13,305.37,716.62,305.37z"/>
	<path d="M461.66,313.77c-8.74-1.46-8.9,2.71-12.36-1.22C453.45,313.37,457.71,310.33,461.66,313.77z"/>
	<path d="M453.05,332.92c1.62-0.61,3.34-0.3,4.46,1.62c-5.89-1.28-7.99,1.82-12.76-3.24C447.09,329.99,447.17,334.63,453.05,332.92z
		"/>
	<path d="M653.31,256.34c2.13,3.14,3.14,6.79,4.15,10.33C654.73,263.73,653.61,260.19,653.31,256.34z"/>
	<path d="M158.17,124.15c2.33,3.85,4.05,7.9,3.95,12.56C162.12,132.15,158.17,128.8,158.17,124.15z"/>
	<path d="M611.17,134.78c-0.3-4.56-3.85-8-3.95-12.56C609.25,126.17,611.37,130.12,611.17,134.78z"/>
	<path d="M732.52,311.75c1.92,3.85,6.08,5.98,7.9,9.93C735.97,319.65,733.84,316,732.52,311.75z"/>
	<path d="M646.12,257.15c2.63,2.43,4.25,5.47,5.47,8.71C649.46,263.12,646.22,261.1,646.12,257.15z"/>
	<path d="M197.17,259.17c2.74,2.23,4.05,5.37,5.47,8.41C200.31,265.15,197.47,263.02,197.17,259.17z"/>
	<path d="M696.16,261.3c-3.14-1.11-6.28-1.22-9.52-3.44C691.4,257.35,693.93,258.36,696.16,261.3z"/>
	<path d="M223.51,250.46c3.24,2.53,6.48,5.06,10.43,6.38C232.43,258.79,221.93,252.24,223.51,250.46z"/>
	<path d="M127.48,505.83c-4.15,0.2-7.6-0.81-9.12-2.84C121.7,503.91,124.74,504.21,127.48,505.83z"/>
	<path d="M576.32,504.11c-3.04-0.81-6.28-0.41-8.81-2.74C570.45,502.08,573.79,501.88,576.32,504.11z"/>
	<path d="M672.25,248.64c2.94,2.33,6.38,4.05,9.42,6.28C677.82,253.91,674.58,252.08,672.25,248.64z"/>
	<path d="M704.46,266.77c-2.03-2.23-5.27-2.43-7.39-4.56C700.01,263.02,703.25,263.33,704.46,266.77z"/>
	<path d="M471.08,315.09c-2.03,0-4.25,0.41-6.69-1.42C467.13,313.37,469.35,313.06,471.08,315.09z"/>
	<path d="M603.17,111.79c0.81,2.23,1.92,4.05,1.92,6.18C602.36,114.72,602.26,114.22,603.17,111.79z"/>
	<path d="M154.22,114.12c1.22,1.82,1.82,3.75,2.03,5.88C153.51,116.85,153.41,116.45,154.22,114.12z"/>
	<path d="M665.57,272.34c0.81,1.62,2.33,2.43,2.94,4.25C664.96,275.38,664.96,275.38,665.57,272.34z"/>
	<path d="M223.1,235.88c0,2.03,0.3,3.65,1.22,5.17C222.26,242.27,220.45,237.9,223.1,235.88z"/>
	<path d="M671.95,234.25c-0.2,1.82,0.91,3.34,1.22,5.27C670.33,237.8,670.13,236.99,671.95,234.25z"/>
	<path d="M168.91,156.26c-1.82,1.42-3.44,1.22-5.06-0.1C165.36,155.85,166.98,154.84,168.91,156.26z"/>
	<path d="M617.45,154.13c-2.23,1.52-2.73,1.52-4.66-0.1C615.63,153.52,615.63,153.52,617.45,154.13z"/>
	<path d="M659.79,268.8c2.13,0.81,3.24,1.82,3.75,3.65C662.02,271.73,660.2,271.23,659.79,268.8z"/>
	<path d="M723.71,285.71c1.42,1.32,3.14,1.82,4.56,3.55C724.62,288.35,724.62,288.35,723.71,285.71z"/>
	<path d="M206.69,229.19c1.52,0.71,2.33,1.42,2.03,2.94C208.01,231.22,206.49,231.01,206.69,229.19z"/>
	<path d="M657.77,230c-0.91-0.61-2.23-1.01-2.23-2.74C657.16,227.57,657.77,228.48,657.77,230z"/>
	<path d="M221.38,243.57c1.82-0.2,3.04-0.1,3.75,1.72C223.41,245.5,222.39,244.99,221.38,243.57z"/>
	<path d="M670.33,241.55c1.72-0.3,2.74,0,3.95,1.72C672.35,243.47,671.24,242.97,670.33,241.55z"/>
	<path d="M219.96,175.5c1.01,0.71,2.43,1.11,2.84,3.04C220.27,178.44,220.27,176.82,219.96,175.5z"/>
	<path d="M668.71,173.58c1.11,0.71,2.84,0.91,2.73,3.04C669.52,175.81,669.52,175.81,668.71,173.58z"/>
	<path d="M213.68,239.83c1.62-1.22,1.62-1.22,2.84-0.61C215.91,240.13,215.1,240.54,213.68,239.83z"/>
	<path d="M665.57,236.48c-0.51,1.82-1.42,1.92-2.84,1.52C663.34,236.79,663.95,236.28,665.57,236.48z"/>
	<path d="M718.95,283.08c1.52,0,2.23,0.61,2.94,2.23C720.17,285,719.36,284.4,718.95,283.08z"/>
	<path d="M653.61,224.83c-1.72-1.11-2.73-1.82-2.23-3.85C652.9,222,653.01,223.11,653.61,224.83z"/>
	<path d="M204.46,226.66c-2.03-1.62-2.03-1.62-1.62-3.44C203.96,224.13,204.16,225.14,204.46,226.66z"/>
	<path d="M651.79,255.73c-1.52-0.41-2.13-1.32-2.43-3.14C650.98,253.4,652.3,253.7,651.79,255.73z"/>
	<path d="M203.05,257.55c-1.72,0-2.03-1.22-2.73-2.84C202.03,255.22,203.15,255.73,203.05,257.55z"/>
	<path d="M746.5,315.9c1.98,0.28,2.22,2.33,1.62,2.33C747.21,317.82,746.3,317.32,746.5,315.9z"/>
	<path d="M615.63,104.09c-0.1,1.11-0.1,2.03-1.52,2.33C614.01,105.3,614.21,104.49,615.63,104.09z"/>
	<path d="M603.17,105.61c0.2,1.11,1.11,1.62,0.2,3.14C602.66,107.63,602.46,106.92,603.17,105.61z"/>
	<path d="M166.68,106.11c0.1,1.22-0.2,1.92-1.32,2.43C165.06,107.23,165.46,106.52,166.68,106.11z"/>
	<path d="M669.42,232.63c0.2,1.52-0.71,2.13-2.23,2.53C667.49,233.65,668.5,233.14,669.42,232.63z"/>
	<path d="M220.57,234.66c0.1,1.52-0.71,2.13-2.33,2.63C218.75,235.77,219.56,235.17,220.57,234.66z"/>
	<path d="M8.56,336.56c-1.01,0.3-1.22-0.2-1.42-1.01C8.15,335.45,8.66,335.55,8.56,336.56z"/>
	<path d="M236.98,256.44c-1.22,1.01-2.13,0.61-3.04,0.3C234.75,255.53,235.66,256.34,236.98,256.44z"/>
	<path d="M154.22,108.04c0,0.81,1.72,1.42,0.1,2.33C153.51,109.66,153.71,108.85,154.22,108.04z"/>
	<path d="M220.37,242.97c-1.11-0.3-1.92-0.41-1.62-1.82C219.76,241.24,220.47,241.65,220.37,242.97z"/>
	<path d="M667.29,239.12c1.42,0.1,2.03,0.51,2.03,1.62C668.1,240.94,667.69,240.33,667.29,239.12z"/>
	<path d="M749.34,320.46c-1.33-0.31-1.44-1.9-0.91-2.43C749.34,318.63,750.15,319.24,749.34,320.46z"/>
	<path d="M743.67,311.04c-0.71-1.01-1.22-1.52-0.91-2.84C743.67,309.11,743.97,309.72,743.67,311.04z"/>
	<path d="M617.35,100.04c0.3,0.61,0.3,1.11-0.91,1.72C616.54,100.75,616.44,100.14,617.35,100.04z"/>
	<path d="M168.5,102.16c0.2,0.61,0.3,1.11-0.61,1.32C167.39,102.67,167.59,102.26,168.5,102.16z"/>
	<path d="M705.88,291.39c-0.91,0-1.32-0.3-1.32-1.32C705.38,290.17,705.88,290.37,705.88,291.39z"/>
	<path d="M709.53,295.44c-0.91-0.1-1.32-0.51-1.32-1.52C709.33,294.22,709.63,294.63,709.53,295.44z"/>
	<path d="M713.38,279.13c0.71,0.71,1.62,0.61,1.01,1.62C713.78,280.75,713.38,280.45,713.38,279.13z"/>
	<path d="M677.93,281.46c-0.81,0-1.11-0.2-1.11-0.71C677.32,280.55,677.62,280.75,677.93,281.46z"/>
	<path d="M123.63,197.79c1.32,2.53,0.71,4.66,0.41,6.79c-5.98,25.43,0.69,23.25-2.94,28.46c-2.13-5.67-2.48-11.14-2.53-16.71
		c-0.06-6.1,1.88-5.92,3.04-11.85C122.02,202.35,121.4,200.02,123.63,197.79z"/>
	<path d="M108.64,175.6c2.82,0.78,4.76,2.74,5.37,5.77c-4.83-2.47-22.15-13.69-17.83-16.71C99.05,164,102.64,173.94,108.64,175.6z"
		/>
	<path d="M110.56,125.66c0.3-1.72,1.42-2.1,2.53-2.23c9.67-1.08,11.97-1.75,14.79,3.24C122.21,125.06,116.64,123.74,110.56,125.66z"
		/>
	<path d="M155.54,202.45c3.85,1.52,9.62,1.62,15.7,0.1c-2.63,2.73-16.82,3.85-17.52,1.82C154.12,203.56,155.44,203.56,155.54,202.45
		z"/>
	<path d="M126.36,142.48c2.33,5.06,0.91,10.23-0.1,15.3C126.36,152.71,124.95,147.54,126.36,142.48z"/>
	<path d="M131.83,129.01c3.44,0.61,6.99,5.27,6.99,9.12C137.71,134.27,132.34,133.87,131.83,129.01z"/>
	<path d="M93.65,139.85c-0.71,6.69,0.2,13.07,0.51,19.55C91.92,154.33,91.52,142.78,93.65,139.85z"/>
	<path d="M101.85,118.17c0.51-4.36,7.29-9.93,13.47-11.04C110.36,109.96,105.4,112.9,101.85,118.17z"/>
	<path d="M143.99,175.3c-0.61,3.44-3.14,4.86-6.08,5.77C139.84,179.15,141.36,176.62,143.99,175.3z"/>
	<path d="M133.56,247.52c2.63,2.84,6.99,2.73,9.62,5.67C139.84,251.48,135.78,251.17,133.56,247.52z"/>
	<path d="M121.81,257.55c-2.53-3.14-2.63-4.66-0.81-6.89C121.3,252.99,121.5,255.02,121.81,257.55z"/>
	<path d="M140.55,248.33c-3.24-0.61-3.95-2.73-4.86-4.66C137.51,244.59,139.53,245.6,140.55,248.33z"/>
	<path d="M122.82,127.49c1.82,1.82,2.33,4.15,2.13,6.89C121.93,127,121.45,127.95,122.82,127.49z"/>
	<path d="M120.18,242.66c0-1.32,0-2.63,0-4.66C122.01,241.04,122.01,241.14,120.18,242.66z"/>
	<path d="M119.27,188.87c-1.01-0.51-2.23-1.01-2.43-2.73C118.67,186.44,119.07,187.56,119.27,188.87z"/>
	<path d="M119.58,247.02c-0.81-1.22-0.91-2.13-0.51-3.85C120.18,244.69,120.59,245.7,119.58,247.02z"/>
	<path d="M156.25,220.17c2.84-3.75,6.48-6.79,9.12-10.64c-1.72,4.66-5.37,7.7-8.61,11.14C153.29,225.88,152.53,223.27,156.25,220.17
		z"/>
	<path d="M145.91,230.2c-0.2-1.52-0.41-2.43,0.2-3.55C147.03,227.77,147.13,228.68,145.91,230.2z"/>
	<path d="M116.44,183.81c-1.52-0.41-2.33-1.11-2.43-2.53C115.12,181.78,116.44,181.99,116.44,183.81z"/>
	<path d="M124.74,194.45c0.51,1.22,1.52,1.92-0.2,2.73C123.93,196.47,123.73,195.66,124.74,194.45z"/>
	<path d="M80.17,143.7c0.1,1.01,0.1,1.82-0.81,2.73C78.86,145.21,79.06,144.51,80.17,143.7z"/>
	<path d="M121,234.36c0.81,0.91,0.71,1.62-0.1,2.73C120.08,235.88,119.68,235.07,121,234.36z"/>
	<path d="M143.48,235.98c0.2,1.01,0.2,1.82-0.91,2.63C142.27,237.39,142.57,236.69,143.48,235.98z"/>
	<path d="M234.95,386.2c5.2-13.62,1.45-5.99,3.75-23.6c0.11-0.81,0.1-1.62,1.11-1.82c2.6,1.12-0.79,26.55-6.28,30.39
		C232.75,390.38,234.51,387.36,234.95,386.2z"/>
	<path d="M225.74,322.99c-2.86-3.02-7.29-2.74-10.23-5.17c0.3-0.81,0.71-0.81,1.01-0.71c10.28,3.33,14,3.8,15.09,7.29
		c0.82,2.63,1.62,5.37,0.41,8.41C231.81,328.16,228.45,325.85,225.74,322.99z"/>
	<path d="M251.87,312.56c3,2.88,8.4,8.31,5.47,11.24C256.53,319.34,251.16,317.82,251.87,312.56z"/>
	<path d="M222.6,343.25c-6.19-4.02-24.35-12.26-0.61-2.43C222.7,341.11,223.61,341.73,222.6,343.25z"/>
	<path d="M232.93,311.34c3.75,0.91,6.58-0.71,10.13-1.32C239.11,313.98,235.76,314.48,232.93,311.34z"/>
	<path d="M231.71,467.95c-0.51-2.74-0.91-5.37,0.41-8C233.43,462.68,231.71,465.21,231.71,467.95z"/>
	<path d="M232.22,394c-0.61,2.53-1.22,4.25-2.84,5.57C229.99,397.85,229.38,395.52,232.22,394z"/>
	<path d="M223.51,351.35c-1.01-1.11-2.03-2.33-3.04-3.44C223.2,347.5,224.01,348.42,223.51,351.35z"/>
	<path d="M251.57,310.43c0-1.72-0.1-3.14,1.62-3.85C252.98,307.9,253.19,309.32,251.57,310.43z"/>
	<path d="M247.62,301.41c0.61,1.62,1.52,3.14-0.3,4.96C247.41,304.35,247.51,302.83,247.62,301.41z"/>
	<path d="M232.83,454.47c-0.61,1.72,0,3.65-0.81,5.37C232.32,458.12,231.41,456.09,232.83,454.47z"/>
	<path d="M233.54,449.11c0-1.82,0-1.82,0.91-2.74C234.85,447.38,234.45,448.09,233.54,449.11z"/>
	<path d="M241.74,355.61c-0.81-1.01-1.01-1.82-0.71-3.65C242.25,353.48,242.55,354.29,241.74,355.61z"/>
	<path d="M204.67,334.44c0.81-0.1,1.42,0.2,2.03,1.42C205.48,335.65,204.57,335.86,204.67,334.44z"/>
	<path d="M225.03,407.88c-0.71,0.91-0.61,1.92-1.82,1.52C223,408.49,223.41,408.08,225.03,407.88z"/>
	<path d="M233.54,391.16c-0.2,0.51-0.1,1.32-1.32,1.22C232.63,391.56,232.88,390.51,233.54,391.16z"/>
	<path d="M163.44,383.06c0.3,7.7,1.62,14.69,0.3,21.78C161.82,399.37,161.51,385.59,163.44,383.06z"/>
	<path d="M166.68,485.37c0.2,1.62-0.3,3.04-1.62,4.05c0.81-6.69-0.41-13.37-0.51-20.56C168.58,471.49,165.48,478.71,166.68,485.37z"
		/>
	<path d="M160.8,435.23c-0.51-7.7,1.32-15.19,1.92-22.69C163.34,420.13,161.51,427.63,160.8,435.23z"/>
	<path d="M185.52,336.16c-1.54-5.51-9.57-5.78-4.86-12.05C180.66,331.09,188.04,329.55,185.52,336.16z"/>
	<path d="M161.62,367.05c1.82,4.66,2.03,9.52,1.22,14.59C162.12,376.78,160.5,372.02,161.62,367.05z"/>
	<path d="M152.5,396.84c-1.72-8.31-1.72-9.83,0-11.85C151.99,388.93,153.41,392.89,152.5,396.84z"/>
	<path d="M165.87,464.4c-3.44-4.86-4.05-6.69-2.94-8.71C164.35,458.53,165.77,461.26,165.87,464.4z"/>
	<path d="M151.69,400.89c1.52,3.85,1.32,11.75,0,13.78C151.69,409.9,151.69,405.45,151.69,400.89z"/>
	<path d="M152.7,371.41c0.1,2.33,1.32,4.66-0.71,7.19C150.98,375.77,152.09,373.54,152.7,371.41z"/>
	<path d="M159.59,479.7c-1.11-2.23-1.52-3.75-0.41-6.08C159.99,475.75,160.5,477.16,159.59,479.7z"/>
	<path d="M179.44,322.59c-2.43-1.92-2.43-1.92-2.33-4.46C178.33,319.34,179.04,320.66,179.44,322.59z"/>
	<path d="M158.78,471.9c-1.01-2.33-1.01-2.33-0.41-4.76C159.59,468.76,159.08,470.38,158.78,471.9z"/>
	<path d="M152.19,423.38c-1.45,0-0.79-2,0-3.24C152.6,421.55,152.5,422.46,152.19,423.38z"/>
	<path d="M186.33,340.01c0.91,0.81,0.81,1.72,0.2,3.14C185.93,341.83,184.81,340.92,186.33,340.01z"/>
	<path d="M146.22,334.64c0,1.11-1.86-0.72-0.51-1.92C146.52,333.32,146.12,334.03,146.22,334.64z"/>
	<path d="M159.29,336.77c-2.02-1.01-0.64-3.2,0.3-1.32C159.79,335.96,160.1,336.46,159.29,336.77z"/>
	<path d="M101.34,269.2c-5.86-4.68-12.16-4.76-15.3,2.74c-0.1,0.51-0.3,1.11-1.52,1.11c0.81-1.01,0.91-2.03,1.11-3.14
		c1.01-2.84,5.36-6.15,7.7-5.57c9.87,2.46,6.77,1.93,13.68,8.21c6.69,6.08,10.03,13.78,11.75,22.39
		C116.82,292.99,115.05,280.16,101.34,269.2z"/>
	<path d="M126.36,324.71c0.3-2.94,0.3-5.88,1.52-8.71C128.59,319.14,127.88,321.98,126.36,324.71z"/>
	<path d="M121.1,303.44c-0.2-1.01-1.11-1.92-0.71-3.55C121.5,301.11,121.4,302.22,121.1,303.44z"/>
	<path d="M120.89,315.8c-0.1-1.82-0.51-2.94,0.2-4.46C122.01,312.86,122.01,313.98,120.89,315.8z"/>
	<path d="M121.58,281.29c-0.35-0.94,1.31,1.66,1.03,3.41C122.52,284.29,120.99,280.7,121.58,281.29z"/>
	<path d="M122.21,338.89c0.3-0.81,0.51-1.32,1.01-2.53C123.43,337.98,123.22,338.49,122.21,338.89z"/>
	<path d="M83.52,277.2c-0.2-0.51-0.2-1.01,0.51-1.32C84.63,276.6,84.63,277.1,83.52,277.2z"/>
	<path d="M119.07,325.22c-0.2-0.41-0.2-0.81,0.3-1.72C119.27,324.51,119.48,325.02,119.07,325.22z"/>
	<path d="M97.49,239.93c-10.74-1.68-38.07-9.74,3.04-0.61C99.93,241.24,98.41,240.13,97.49,239.93z"/>
	<path d="M65.48,249.45c0.3-3.24,0.61-6.28,0.91-9.22C68.93,245.5,68.73,248.03,65.48,249.45z"/>
	<path d="M87.26,243.68c3.65,0,7.29,0.1,10.94,1.32C94.46,245.5,90.81,245.09,87.26,243.68z"/>
	<path d="M73.89,213.39c-1.52-2.13-2.53-4.36-1.42-7.7C74.09,208.53,73.69,211.06,73.89,213.39z"/>
	<path d="M88.07,202.65c-1.22-1.82-2.63-2.94-1.32-4.86C88.58,198.9,88.48,200.42,88.07,202.65z"/>
	<path d="M60.42,203.06c0.71,2.23,0.51,3.85,0,5.77C59.51,206.9,58.7,205.39,60.42,203.06z"/>
	<path d="M66.9,235.17c1.11,1.11,1.72,2.03,0.71,3.95C66.29,237.8,65.99,236.69,66.9,235.17z"/>
	<path d="M66.4,223.21c1.42,1.92,1.01,3.34-0.2,5.17C65.79,226.45,65.69,225.04,66.4,223.21z"/>
	<path d="M66.4,230.3c1.82,1.11,1.32,2.23,0.51,4.15C65.79,232.74,65.69,231.62,66.4,230.3z"/>
	<path d="M71.97,213.79c0.1,0.51-0.41,0.61-1.01,0.71C70.71,212.82,71.97,213.42,71.97,213.79z"/>
	<path d="M369.17,237.5c4.26-23.58,44.66-18.38,39.91,24.31c-0.62,5.62-4.08,9.62-3.14,5.88c6.05-18.72-4.29-41.28-16.61-42.44
		C373.4,223.74,373.23,233.66,369.17,237.5z"/>
	<path d="M402.9,224.43c7.39,4.66,9.83,12.26,11.95,19.96C411.31,237.5,409.49,229.7,402.9,224.43z"/>
	<path d="M416.48,262.21c0.2-3.55-0.1-7.19-0.1-10.74C417.69,255.02,417.79,258.57,416.48,262.21z"/>
	<path d="M412.22,273.66c0.41-2.43,1.62-4.46,2.84-6.38C414.96,269.81,413.84,271.84,412.22,273.66z"/>
	<path d="M410.3,277.41c-0.51,1.52-1.42,2.63-3.04,3.04C407.77,278.93,409.08,278.22,410.3,277.41z"/>
	<path d="M404.63,270.82c0.1,0.61-0.2,1.01-0.81,1.22C403.61,271.33,403.71,270.82,404.63,270.82z"/>
	<path d="M368.16,242.76c-0.1-0.81-0.3-1.52,0.41-2.23C368.77,241.14,369.17,241.95,368.16,242.76z"/>
	<path d="M407.16,280.45c-0.1,0.71-0.61,0.81-1.32,0.81C406.15,280.65,406.55,280.34,407.16,280.45z"/>
	<path d="M159.49,513.73c6.96,1.77,3.82,11.67-2.84,9.12c-1.11-0.51-2.03-1.32-3.65-1.22C153.01,517.01,155.01,512.59,159.49,513.73
		z M155.94,517.89c0.3,1.11,1.62-0.2,1.82,0.91c0.71,1.01-0.41,1.42-0.51,2.13c1.33,1.33,4.28-0.16,3.85-2.94
		C160.7,515.36,156.52,514.6,155.94,517.89z"/>
	<path d="M205.68,517.89c-5.47,1.42-10.53,4.25-16.21,2.33C193.22,516.27,201.83,515.15,205.68,517.89z"/>
	<path d="M168.1,516.27c6.61-0.24,7.35,9.47,0.61,9.72C162.38,526.23,161.76,516.5,168.1,516.27z M168.3,524.06
		c3.95-0.66,3.63-5.67,0.3-5.67C165.01,518.39,164.35,523.57,168.3,524.06z"/>
	<path d="M174.99,524.57c-0.71-1.72-1.22-3.55,0.41-4.66c2.53-1.73,4.76-0.1,7.29,0.91c-1.32,2.94-1.11,6.28-3.34,8.71
		c-1.52-1.22-0.1-2.53-1.01-3.44c-2.03-1.11-3.04,2.84-5.27,1.01C173.26,525.99,174.58,525.69,174.99,524.57z M179.24,524.17
		c2.46-2.46-1.6-4.31-2.94-2.03C176.61,523.86,177.92,523.86,179.24,524.17z"/>
	<path d="M200.21,529.33c3.65-3.14,7.7-5.06,12.46-5.06C209.02,527.31,205.38,530.24,200.21,529.33z"/>
	<path d="M212.16,528.52c-1.62,1.22-2.94,3.55-5.98,1.82C208.11,528.72,209.93,528.12,212.16,528.52z"/>
	<path d="M50.19,268.29c2.11,1.84,3.57,0.7,12.36-1.42c-4.86,6.08-9.22,6.99-15.19,3.34c-5.06,0.71-8.71,4.25-13.17,6.48
		c-1.85-3.44,9.07-8.06,12.86-9.12C48.16,267.27,49.27,267.49,50.19,268.29z"/>
	<path d="M75.82,264.24c-4.66,0.3-8.61,0.61-12.66,0.81C66.6,261.91,71.46,261.5,75.82,264.24z"/>
	<path d="M58.09,291.28c0.3-2.63,1.32-4.36,3.55-6.38C60.93,287.74,60.72,289.87,58.09,291.28z"/>
	<path d="M55.76,330.99c5.67-3.75,12.36-4.86,18.44-7.5C68.93,328.06,62.55,329.98,55.76,330.99z"/>
	<path d="M67.41,332.21c0.1,1.11-0.51,1.11-1.42,1.01C66.19,332.21,66.6,331.9,67.41,332.21z"/>
	<path d="M4.3,325.73c-0.91-0.71-0.2-1.11,0.3-1.92C5.01,324.81,5.11,325.42,4.3,325.73z"/>
	<path d="M208.31,305.97c-1.82-3.14-3.75-6.48-1.42-10.53C205.97,300.22,210.72,304.77,208.31,305.97z"/>
	<path d="M226.75,295.54c1.42,0.61,2.13,1.11,1.92,2.33C227.26,297.87,226.95,297.06,226.75,295.54z"/>
	<path d="M213.58,298.58c0.2-0.71,0.41-1.42,1.32-1.62C214.9,297.87,214.29,298.27,213.58,298.58z"/>
	<path d="M208.41,306.07c0.41,1.11,0.2,1.92-1.42,2.74C207.3,307.49,207.5,306.58,208.41,306.07z"/>
	<path d="M557.18,270.62c-19.65,3.75-37.18,10.03-51.66,24.21C509.06,283.48,544.21,268.8,557.18,270.62z"/>
	<path d="M572.98,196.47c1.55,3.88-2.12,8.51-2.94,21.58c-0.49,7.87,2.47,8.58-0.1,12.86c-6.68-16.7,1.26-26.42,1.32-33.63
		C571.26,196.67,571.87,196.07,572.98,196.47z"/>
	<path d="M496.3,268.19c-6.89,0.83-16.34,10.49-13.37,4.56c3.83-3.93,13.05-8.55,14.99-7.09c2.87,2.64,5.2,1.06,13.17-0.71
		C507.44,270.72,501.77,271.94,496.3,268.19z"/>
	<path d="M562.85,179.35c-21.42-10.95-23.28-25.68-10.84-9.93C556.72,175.39,561.39,172.51,562.85,179.35z"/>
	<path d="M566.6,255.32c5.97,4.6,4.04,8.5,5.67,9.12c2.43,0.91,2.33,2.94,2.63,4.96c-0.1-0.1-10.37-10.72-10.84-11.65
		C562.43,255.58,564.65,253.82,566.6,255.32z"/>
	<path d="M499.95,324.21c-3.09-3.65,10.79-9.76,20.66-15.4C520.07,313.37,505.6,317.54,499.95,324.21z"/>
	<path d="M559.21,123.44c1.82-3.64,6.05-1.56,9.32-2.53c3.93-1.17,6.08,1.01,8.1,3.65c-2.94-0.61-5.76-1.04-8.61-2.13
		C565.29,121.38,562.45,123.94,559.21,123.44z"/>
	<path d="M655.54,300.5c-7.09-3.34-13.47-7.7-18.13-14.28c-0.51-0.81-0.1-1.22,0.2-1.82C644.98,295.13,658.22,299.16,655.54,300.5z"
		/>
	<path d="M549.08,277.81c-8.91,2.84-16,8.41-22.69,14.69C532.16,284.7,539.45,279.43,549.08,277.81z"/>
	<path d="M527.6,232.53c23.22,5.16,22.04,4.5,21.77,5.06C548.56,239.31,530.28,234.8,527.6,232.53z"/>
	<path d="M602.46,202.35c4.92-3.69,0.82,1.37,17.52-1.72C617.65,203.26,606.92,204.27,602.46,202.35z"/>
	<path d="M575.82,140.56c1.62,5.17,0.41,10.23-0.2,15.9c-1.92-3.14-0.61-5.87-0.91-8.41C573.98,141.97,574.2,141.97,575.82,140.56z"
		/>
	<path d="M581.39,126.68c3.34,1.62,6.58,6.48,6.28,9.52C583.77,130.03,579.53,130.69,581.39,126.68z"/>
	<path d="M605.6,287.84c-0.83,2.49-13.01-3.59-15.3-4.76C591.05,281.96,588.49,281.21,605.6,287.84z"/>
	<path d="M551,115.74c-0.1-3.85,8.41-10.64,13.37-10.43C559.21,107.94,554.44,110.88,551,115.74z"/>
	<path d="M542.59,137.41c-0.71,6.99,0.2,13.27,0.51,19.75C540.87,152.61,540.36,141.06,542.59,137.41z"/>
	<path d="M512.3,263.33c3.14-3.55,8.81-3.95,12.26-0.71C520.1,262.52,516.15,262.01,512.3,263.33z"/>
	<path d="M514.43,247.32c0.3-3.14,0.61-6.18,0.91-9.12C517.88,243.57,517.57,246.01,514.43,247.32z"/>
	<path d="M507.24,289.26c0.2-3.55,2.94-7.5,6.28-8.91C511.09,282.98,510.38,286.83,507.24,289.26z"/>
	<path d="M586.56,179.55c2.43-3.44,4.96-5.77,6.48-6.08C592.43,176.41,591.22,177.63,586.56,179.55z"/>
	<path d="M535.91,241.24c3.95,0.51,7.7,0.51,11.65,1.52C543.91,243.68,538.54,242.97,535.91,241.24z"/>
	<path d="M672.25,330.69c-3.04-4.96-3.04-4.96-3.14-7.09C672.56,327.14,673.06,328.36,672.25,330.69z"/>
	<path d="M538.44,266.37c2.03-1.32,4.36-1.42,6.69-1.32C543.1,266.87,540.67,266.37,538.44,266.37z"/>
	<path d="M521.32,203.97c1.92,2.43,1.11,4.96,1.52,7.29C521.32,209.23,520.31,207.01,521.32,203.97z"/>
	<path d="M589.19,246.11c-2.94-0.41-3.75-2.63-4.66-4.56C586.45,242.56,588.38,243.47,589.19,246.11z"/>
	<path d="M571.77,125.46c1.82,1.82,2.33,4.15,2.13,6.89C570.51,124.9,570.73,125.81,571.77,125.46z"/>
	<path d="M536.72,199.92c-0.81-1.11-2.23-2.13-1.32-4.36C537.43,196.77,537.43,198.19,536.72,199.92z"/>
	<path d="M553.53,265.86c2.13,0.41,4.25,0.41,5.98,1.82C557.18,268.19,555.25,267.58,553.53,265.86z"/>
	<path d="M509.37,201.03c0.71,2.33,0.3,3.95,0.1,5.67C508.46,204.98,507.65,203.36,509.37,201.03z"/>
	<path d="M515.75,232.94c1.11,1.32,1.82,2.33,0.91,3.85C514.84,235.88,515.14,234.76,515.75,232.94z"/>
	<path d="M569.44,236.08c1.32,2.13,1.52,3.44-0.3,5.17C569.03,239.42,568.83,238.1,569.44,236.08z"/>
	<path d="M565.79,184.01c1.72,0.61,2.53,1.42,2.23,3.14C567.11,186.24,565.99,185.83,565.79,184.01z"/>
	<path d="M575.92,270.72c1.92,0.41,2.33,1.72,3.14,3.34C577.13,273.46,576.32,272.54,575.92,270.72z"/>
	<path d="M515.34,227.97c1.52,1.62,1.52,2.73,0.2,4.05C514.74,230.71,514.63,229.6,515.34,227.97z"/>
	<path d="M624.34,298.48c-2.13,0.2-3.24-0.71-3.85-2.33C621.71,296.75,623.33,296.96,624.34,298.48z"/>
	<path d="M515.45,220.98c0.91,3.04,0.91,3.04-0.41,4.86C514.63,224.33,514.74,223.01,515.45,220.98z"/>
	<path d="M605.09,218.15c0.1,0.1,7.22-7.95,9.02-11.24c0.71,1.52,0.1,2.03-0.2,2.53c-2.59,3.83-8.01,9.11-8.34,9.27
		C602.3,223.59,601.32,221.29,605.09,218.15z"/>
	<path d="M568.22,245.09c-0.41-1.32-0.91-2.33-0.3-3.44C569.03,243.17,569.03,243.17,568.22,245.09z"/>
	<path d="M618.77,295.13c-1.62,0-2.43-0.41-2.84-1.72C617.25,293.41,618.06,293.82,618.77,295.13z"/>
	<path d="M594.96,227.77c-0.71-0.91-0.41-1.92,0.1-2.84C595.67,225.85,596.18,226.76,594.96,227.77z"/>
	<path d="M663.03,328.97c-1.11-1.22-1.62-1.92-1.22-3.75C662.83,326.33,663.44,327.14,663.03,328.97z"/>
	<path d="M551.51,265.56c-1.32,0-2.63,0-4.25,0C549.58,264.95,549.58,264.95,551.51,265.56z"/>
	<path d="M565.38,181.78c-1.62-0.41-2.33-1.11-2.43-2.53C564.07,179.76,565.38,179.96,565.38,181.78z"/>
	<path d="M573.79,195.26c-1.11-0.71-1.01-1.42-0.41-2.73C574.3,193.53,574.7,194.24,573.79,195.26z"/>
	<path d="M660.4,321.07c-1.22-1.32-2.03-1.92-1.52-3.14C660.2,318.43,660.3,319.34,660.4,321.07z"/>
	<path d="M613.4,291.99c-1.52-0.41-2.43-0.71-3.24-2.13C611.68,290.07,612.69,290.27,613.4,291.99z"/>
	<path d="M594.56,330.49c0.91,0.91,0.71,1.72,0.2,2.84C594.36,332.31,593.75,331.7,594.56,330.49z"/>
	<path d="M528.11,144.1c-0.3-1.01-0.1-1.82,0.91-2.33C529.12,142.78,529.42,143.7,528.11,144.1z"/>
	<path d="M665.16,333.83c-1.22-0.81-1.62-1.52-1.42-2.74C664.86,331.6,665.47,332.21,665.16,333.83z"/>
	<path d="M669.01,322.28c-0.91-0.51-1.22-1.22-0.71-2.43C669.42,320.66,669.82,321.27,669.01,322.28z"/>
	<path d="M607.32,332.51c1.11,0.61,1.62,1.22,1.11,2.23C607.32,334.54,606.92,333.93,607.32,332.51z"/>
	<path d="M569.94,232.43c0.81,0.81,0.71,1.62-0.2,2.84C569.13,233.85,568.42,233.04,569.94,232.43z"/>
	<path d="M591.52,236.48c-0.41-1.01,0-1.72,0.81-2.53C592.63,235.07,592.53,235.88,591.52,236.48z"/>
	<path d="M661.92,322.59c0.53,2.36-1.84,0.71-1.01-0.61C661.41,321.98,661.83,322.18,661.92,322.59z"/>
	<path d="M583.21,276.8c-1.01,0.2-1.52-0.2-1.92-1.01C582.4,275.38,582.71,276.09,583.21,276.8z"/>
	<path d="M520.1,212.37c-0.86-0.65,0.49-1.77,0.81-0.81C521.02,212.17,520.51,212.27,520.1,212.37z"/>
	<path d="M664.35,313.87c1.11,0.3,1.22,0.71,0.81,1.52C664.55,315.19,664.15,314.79,664.35,313.87z"/>
	<path d="M682.38,389.14c-0.66-0.66,1.31-4.43,1.52-4.96c5.2-13.62,1.45-5.99,3.75-23.6c1.03-7.88,5.63,7.53-3.44,26.24
		C683.81,387.62,683.29,388.53,682.38,389.14z"/>
	<path d="M680.56,465.92c-0.41-2.74-0.91-5.37,0.41-8C682.38,460.65,680.66,463.19,680.56,465.92z"/>
	<path d="M680.76,392.08c0,2.43-1.01,4.15-2.43,5.47C678.74,395.72,678.43,393.49,680.76,392.08z"/>
	<path d="M681.77,452.45c-0.61,1.72,0,3.65-0.81,5.37C681.17,456.09,680.36,454.07,681.77,452.45z"/>
	<path d="M683.29,444.14c0.51,1.11,0,1.92-1.01,3.34C682.38,445.76,681.88,444.75,683.29,444.14z"/>
	<path d="M689.98,350.44c1.32,0.81,1.32,1.82,0.81,3.55C689.88,352.47,689.47,351.66,689.98,350.44z"/>
	<path d="M681.27,390.35c-0.2-0.71,0.3-1.11,0.81-1.52C682.58,389.34,682.24,390.45,681.27,390.35z"/>
	<path d="M672.15,407.47c-0.2-0.91,0.2-1.42,1.42-1.52C673.37,406.97,673.16,407.67,672.15,407.47z"/>
	<path d="M611.68,381.54c1.82,5.47,2.13,18.64,0.51,21.27C610.87,397.44,610.36,383.87,611.68,381.54z"/>
	<path d="M613.6,467.44c3.61,3.25,0.25,9.68,1.72,15.8c0.37,1.53,0,3.14-1.92,4.66C614.61,480.81,613.6,474.13,613.6,467.44z"/>
	<path d="M609.75,433.2c-0.41-7.6,1.32-15.09,2.03-22.69C612.18,418.11,610.56,425.6,609.75,433.2z"/>
	<path d="M611.27,364.72c0.91,5.06,1.52,9.93,0.71,15.3C609.85,373.54,609.45,366.45,611.27,364.72z"/>
	<path d="M601.45,394.81c-1.92-7.6-1.82-10.23,0.41-12.36C600.94,386.91,602.26,390.86,601.45,394.81z"/>
	<path d="M614.41,462.78c-1.52-3.04-3.24-5.57-3.65-9.52C613.5,456.09,614.92,459.94,614.41,462.78z"/>
	<path d="M600.64,398.86c0.3,0,0.51,0,0.81,0c0,4.56,0.61,9.02,0,13.57C600.29,412.44,600.64,414.8,600.64,398.86z"/>
	<path d="M601.65,369.38c0.1,2.33,1.32,4.66-0.71,6.69C600.13,373.64,600.84,371.51,601.65,369.38z"/>
	<path d="M608.44,477.47c-1.01-2.13-1.62-3.65-0.1-5.17C608.64,473.82,609.65,475.24,608.44,477.47z"/>
	<path d="M607.73,470.68c-1.11-3.14-1.11-3.14-0.41-5.67C608.33,466.73,608.13,468.35,607.73,470.68z"/>
	<path d="M601.24,420.74c0,1.35-2.27,0.52-0.2-2.43C601.55,419.22,601.24,420.03,601.24,420.74z"/>
	<path d="M553.23,315.29c-5.93-5.55-10.78,0.63-11.95-0.71c0.91-2.72,7.27-5.02,13.57,0c9.28,7.38,16.01,23.36,16.11,30.39
		c0.06,4.5,1.38,11.25,0.3,14.79c-1.96-0.28,0.6,0.19-3.75-21.58C565.63,328.78,560.03,321.67,553.23,315.29z"/>
	<path d="M580.78,363.51c0.1,3.44-0.91,6.58-2.94,9.52C580.19,362.32,579.77,363.17,580.78,363.51z"/>
	<path d="M578.05,332.61c1.94,7.13,2.21,6.56,0.91,6.89c-1.01-2.13-2.13-4.25-1.92-6.69C577.44,332.82,577.74,332.72,578.05,332.61z
		"/>
	<path d="M569.94,367.36c-0.41-1.22-0.51-2.13,0.2-3.34C571.06,365.43,570.55,366.24,569.94,367.36z"/>
	<path d="M575.21,382.55c0.51,0.81,0.1,1.22-0.71,1.42C574.5,383.36,574.7,382.96,575.21,382.55z"/>
	<path d="M611.27,512.42c6.96,2.02,3.51,11.89-3.04,9.02c-5.63-2.47-4.07,1.52-2.94-5.17C605.79,513.33,608.53,511.62,611.27,512.42
		z M609.25,517.18c0.71,0.91,0.3,1.62-0.41,2.13c2.17,3.03,6.62-3.84,2.13-4.96c-1.72-0.3-3.04,0.3-3.55,2.53
		C608.13,516.97,608.64,517.08,609.25,517.18z"/>
	<path d="M654.73,515.76c-11.95,3.95-14.08,4.15-16.41,2.03C641.56,514.34,650.37,513.12,654.73,515.76z"/>
	<path d="M619.78,514.95c6.57-0.25,7.09,9.62,0.41,9.62C613.81,524.57,613.5,515.19,619.78,514.95z M619.88,522.65
		c3.85-0.43,3.86-5.48,0.51-5.67C616.71,516.76,616.01,522.16,619.88,522.65z"/>
	<path d="M627.07,518.49c2.43-1.62,4.66,0.2,7.29,0.81c-1.22,3.04-1.11,6.38-3.65,8.81c-1.32-1.32,0.1-2.63-0.81-3.34
		c-2.13-1.01-3.14,2.94-5.77,0.61c1.01-0.61,1.82-1.11,2.53-1.52C625.96,521.63,625.25,519.71,627.07,518.49z M630.52,522.75
		c1.11-0.41,1.01-1.32,1.22-2.33c-1.52-0.61-2.84-1.42-3.85,0.41C628.29,522.55,629.61,522.34,630.52,522.75z"/>
	<path d="M661.92,522.04c-4.86,4.66-10.13,6.79-12.76,5.17C651.28,524.57,657.46,521.94,661.92,522.04z"/>
	<path d="M661.11,526.6c-1.72,0.91-3.04,3.55-5.77,1.82C657.56,526.39,657.77,526.39,661.11,526.6z"/>
	<path d="M701.02,310.53c2.13,3.44,6.58,5.77,5.57,10.84C705.38,317.42,699.91,315.7,701.02,310.53z"/>
	<path d="M681.98,309.11c3.65,1.11,6.38-0.51,10.13-1.11C687.75,312.05,684.61,312.56,681.98,309.11z"/>
	<path d="M702.44,304.76c-0.3,1.22-0.51,2.43-1.72,3.65C700.62,305.16,700.62,305.16,702.44,304.76z"/>
	<path d="M457,364.52c0,0.81,0,0.81-0.61,1.42C456.39,365.13,456.39,365.13,457,364.52z"/>
	<path d="M827.64,295.74c-1.24,1.7-1.82,3.85-3.85,5.67c1.11-4.66,4.85-10.96,7.39-11.95c31.26-12.17,38.66,36.14,28.87,44.37
		C870.41,298.88,841.66,276.54,827.64,295.74z"/>
	<path d="M860.26,288.55c5.98,2.84,10.64,14.49,10.64,20.56C867.96,301.92,866.64,293.92,860.26,288.55z"/>
	<path d="M871.91,325.93c-0.3-3.24,0.2-6.48,0.41-9.83C873.02,319.45,873.53,322.79,871.91,325.93z"/>
	<path d="M867.05,337.37c0.51-2.13,1.72-3.95,2.94-5.67C869.88,333.93,868.87,335.86,867.05,337.37z"/>
	<path d="M860.66,344.57c1.42-1.11,2.84-2.33,4.25-3.55C864.11,342.95,862.79,344.26,860.66,344.57z"/>
	<path d="M822.88,306.78c-0.51-1.01-0.41-1.82,0.61-2.94C823.79,305.16,823.89,306.07,822.88,306.78z"/>
	<path d="M859.15,334.84c0.41,0.71-0.2,0.91-0.61,1.22C858.13,335.25,858.64,335.05,859.15,334.84z"/>
<path fill="#e6e6e6" d="m206.8 163.6c0-5.1 4.1-9.2 9.3-9.2s9.2 4.2 9.2 9.2-4.1 9.2-9.3 9.2-9.2-4.1-9.2-9.2zm17.3-.1c0-4.5-3.5-8.2-8.2-8.2s-8.2 3.7-8.2 8.3c0 4.5 3.5 8.2 8.2 8.2s8.2-3.7 8.2-8.3zm-13 0c0-2.8 2.1-5.1 5.1-5.1 1.9 0 2.9.6 3.9 1.5l-1.4 1.7c-.8-.7-1.5-1.1-2.5-1.1-1.7 0-2.8 1.4-2.8 3.1s1.1 3 2.8 3c1.1 0 1.7-.5 2.5-1.1l1.4 1.4c-1.1 1.1-2.1 1.7-4 1.7-2.9 0-5-2.3-5-5.1z"/><path fill="#e6e6e6" d="m226.6 154.7h3.4l4.2 13.2 4.4-13.3h2.6l4.4 13.3 4.2-13.2h3.3l-6.2 18h-2.7l-4.4-12.8-4.4 12.8h-2.7z"/><path fill="#e6e6e6" d="m252.8 165.8c0-3.9 3.1-7 7.2-7 4.2 0 7.2 3.2 7.2 7s-3.1 7-7.3 7c-4 0-7.1-3.1-7.1-7zm11.3 0c0-2.3-1.7-4.3-4.2-4.3s-4.1 2-4.1 4.3 1.7 4.3 4.1 4.3c2.7.1 4.2-1.9 4.2-4.3z"/><path fill="#e6e6e6" d="m269.5 159.1h3.1v3c.8-2 2.4-3.4 4.8-3.3v3.2h-.2c-2.7 0-4.6 1.7-4.6 5.4v5.1h-3.1z"/><path fill="#e6e6e6" d="m279.1 153.9h3.1v11.1l5.6-6h3.8l-5.4 5.5 5.5 8h-3.5l-4.1-5.8-1.9 2v3.9h-3.1z"/><path fill="#e6e6e6" d="m291.7 165.8c0-3.9 3.1-7 7.2-7 4.2 0 7.2 3.2 7.2 7s-3.1 7-7.3 7c-4 0-7.1-3.1-7.1-7zm11.3 0c0-2.3-1.7-4.3-4.2-4.3s-4.1 2-4.1 4.3 1.7 4.3 4.1 4.3c2.6.1 4.2-1.9 4.2-4.3z"/><path fill="#e6e6e6" d="m308.2 167.6v-8.6h3.1v7.6c0 2.1 1.1 3.3 2.9 3.3s3-1.3 3-3.3v-7.6h3.1v13.4h-3.1v-2.1c-.8 1.3-2.1 2.3-4.2 2.3-3.1.2-4.8-1.8-4.8-5z"/><path fill="#e6e6e6" d="m323.9 168.8v-7.1h-1.7v-2.6h1.7v-3.7h3.1v3.7h3.6v2.6h-3.6v6.6c0 1.2.6 1.7 1.7 1.7.7 0 1.3-.2 1.9-.5v2.5c-.8.5-1.7.7-2.8.7-2.3 0-3.9-.9-3.9-3.9z"/><path fill="#e6e6e6" d="m333.2 154.7h3.2v15h9.4v2.9h-12.5v-17.9z"/><path fill="#e6e6e6" d="m356 172.5v-1.7c-.9 1.1-2.3 2-4.4 2-2.6 0-4.8-1.4-4.8-4.2 0-3 2.3-4.4 5.4-4.4 1.7 0 2.6.2 3.7.5v-.2c0-1.9-1.2-2.9-3.3-2.9-1.5 0-2.6.3-3.9.8l-.8-2.5c1.5-.7 2.9-1.1 5.1-1.1 4 0 5.9 2.1 5.9 5.7v8zm.1-5.6c-.8-.3-1.9-.5-3.1-.5-2 0-3.1.8-3.1 2.1s1.1 2 2.6 2c2 0 3.5-1.1 3.5-2.9z"/><path fill="#e6e6e6" d="m364.9 170.5v2.1h-3.1v-18.7h3.1v7.4c1-1.4 2.4-2.5 4.5-2.5 3.2 0 6.3 2.5 6.3 7s-3.1 7-6.3 7c-2.1 0-3.5-1.1-4.5-2.3zm7.7-4.7c0-2.6-1.7-4.3-3.9-4.3s-3.9 1.7-3.9 4.4c0 2.6 1.8 4.3 3.9 4.3s3.9-1.7 3.9-4.4z"/><path fill="#e6e6e6" d="m376.9 170.8 1.4-2.1c1.4 1.1 3 1.7 4.4 1.7s2.1-.5 2.1-1.5-1.3-1.4-2.8-1.8c-.1 0-.2-.1-.2-.1-2-.6-4.2-1.4-4.2-4s2.1-4.1 4.8-4.1c1.7 0 3.5.6 5 1.5l-1.2 2.2c-1.3-.8-2.6-1.3-3.8-1.3s-1.9.5-1.9 1.4 1.3 1.4 2.8 1.8c.1 0 .2.1.2.1 2 .6 4.2 1.5 4.2 4 0 2.9-2.2 4.2-5 4.2-1.9 0-4-.7-5.8-2z"/><path fill="#e6e6e6" d="m505.6 163.6c0-5.1 4.1-9.2 9.3-9.2s9.2 4.2 9.2 9.2-4.1 9.2-9.3 9.2-9.2-4.1-9.2-9.2zm17.4-.1c0-4.5-3.5-8.2-8.2-8.2s-8.2 3.7-8.2 8.3c0 4.5 3.5 8.2 8.2 8.2s8.2-3.7 8.2-8.3zm-13.1 0c0-2.8 2.1-5.1 5.1-5.1 1.9 0 2.9.6 3.9 1.5l-1.4 1.7c-.8-.7-1.5-1.1-2.5-1.1-1.7 0-2.8 1.4-2.8 3.1s1.1 3 2.8 3c1.1 0 1.7-.5 2.5-1.1l1.4 1.4c-1.1 1.1-2.1 1.7-4 1.7-2.9 0-5-2.3-5-5.1z"/><path fill="#e6e6e6" d="m525.4 154.7h3.4l4.2 13.2 4.4-13.3h2.6l4.4 13.3 4.2-13.2h3.3l-6.2 18h-2.7l-4.4-12.8-4.4 12.8h-2.7z"/><path fill="#e6e6e6" d="m551.7 165.8c0-3.9 3.1-7 7.2-7 4.2 0 7.2 3.2 7.2 7s-3.1 7-7.3 7c-4.1 0-7.1-3.1-7.1-7zm11.2 0c0-2.3-1.7-4.3-4.2-4.3s-4.1 2-4.1 4.3 1.7 4.3 4.1 4.3c2.7.1 4.2-1.9 4.2-4.3z"/><path fill="#e6e6e6" d="m568.3 159.1h3.1v3c.8-2 2.4-3.4 4.8-3.3v3.2h-.2c-2.7 0-4.6 1.7-4.6 5.4v5.1h-3.1z"/><path fill="#e6e6e6" d="m577.9 153.9h3.1v11.1l5.6-6h3.8l-5.4 5.5 5.5 8h-3.5l-4.1-5.8-1.9 2v3.9h-3.1z"/><path fill="#e6e6e6" d="m590.6 165.8c0-3.9 3.1-7 7.2-7 4.2 0 7.2 3.2 7.2 7s-3.1 7-7.3 7c-4.1 0-7.1-3.1-7.1-7zm11.2 0c0-2.3-1.7-4.3-4.2-4.3s-4.1 2-4.1 4.3 1.7 4.3 4.1 4.3c2.6.1 4.2-1.9 4.2-4.3z"/><path fill="#e6e6e6" d="m607 167.6v-8.6h3.1v7.6c0 2.1 1.1 3.3 2.9 3.3s3-1.3 3-3.3v-7.6h3.1v13.4h-3.1v-2.1c-.8 1.3-2.1 2.3-4.2 2.3-3 .2-4.8-1.8-4.8-5z"/><path fill="#e6e6e6" d="m622.7 168.8v-7.1h-1.7v-2.6h1.7v-3.7h3.1v3.7h3.6v2.6h-3.6v6.6c0 1.2.6 1.7 1.7 1.7.7 0 1.3-.2 1.9-.5v2.5c-.8.5-1.7.7-2.8.7-2.3 0-3.9-.9-3.9-3.9z"/><path fill="#e6e6e6" d="m632 154.7h3.2v15h9.4v2.9h-12.6z"/><path fill="#e6e6e6" d="m654.8 172.5v-1.7c-.9 1.1-2.3 2-4.4 2-2.6 0-4.8-1.4-4.8-4.2 0-3 2.3-4.4 5.4-4.4 1.7 0 2.6.2 3.7.5v-.2c0-1.9-1.2-2.9-3.3-2.9-1.5 0-2.6.3-3.9.8l-.8-2.5c1.5-.7 2.9-1.1 5.1-1.1 4 0 5.9 2.1 5.9 5.7v8zm.1-5.6c-.8-.3-1.9-.5-3.1-.5-2 0-3.1.8-3.1 2.1s1.1 2 2.6 2c2 0 3.5-1.1 3.5-2.9z"/><path fill="#e6e6e6" d="m663.7 170.5v2.1h-3.1v-18.7h3.1v7.4c1-1.4 2.4-2.5 4.5-2.5 3.2 0 6.3 2.5 6.3 7s-3.1 7-6.3 7c-2.1 0-3.5-1.1-4.5-2.3zm7.8-4.7c0-2.6-1.7-4.3-3.9-4.3-2.1 0-3.9 1.7-3.9 4.4 0 2.6 1.8 4.3 3.9 4.3s3.9-1.7 3.9-4.4z"/><path fill="#e6e6e6" d="m675.8 170.8 1.4-2.1c1.4 1.1 3 1.7 4.4 1.7s2.1-.5 2.1-1.5-1.3-1.4-2.8-1.8c-.1 0-.2-.1-.2-.1-2-.6-4.2-1.4-4.2-4s2.1-4.1 4.8-4.1c1.7 0 3.5.6 5 1.5l-1.2 2.2c-1.3-.8-2.6-1.3-3.8-1.3s-1.9.5-1.9 1.4 1.3 1.4 2.8 1.8c.1 0 .2.1.2.1 2 .6 4.2 1.5 4.2 4 0 2.9-2.2 4.2-5 4.2-2 0-4.1-.7-5.8-2z"/><path fill="#e6e6e6" d="m61 298.6c0-5.1 4.1-9.2 9.3-9.2s9.2 4.2 9.2 9.2-4.1 9.2-9.3 9.2c-5.1 0-9.2-4.2-9.2-9.2zm17.4-.1c0-4.5-3.5-8.2-8.2-8.2s-8.2 3.7-8.2 8.3c0 4.5 3.5 8.2 8.2 8.2s8.2-3.7 8.2-8.3zm-13.1-.1c0-2.8 2.1-5.1 5.1-5.1 1.9 0 2.9.6 3.9 1.5l-1.4 1.7c-.8-.7-1.5-1.1-2.5-1.1-1.7 0-2.8 1.4-2.8 3.1s1.1 3 2.8 3c1.1 0 1.7-.5 2.5-1.1l1.4 1.4c-1.1 1.1-2.1 1.7-4 1.7-2.8.1-5-2.2-5-5.1z"/><path fill="#e6e6e6" d="m80.9 289.7h3.4l4.2 13.2 4.4-13.3h2.6l4.4 13.3 4.2-13.2h3.3l-6.2 18h-2.7l-4.4-12.8-4.4 12.8h-2.7z"/><path fill="#e6e6e6" d="m107.1 300.8c0-3.9 3.1-7 7.2-7s7.2 3.2 7.2 7-3.1 7-7.3 7c-4 0-7.1-3.1-7.1-7zm11.3 0c0-2.3-1.7-4.3-4.2-4.3s-4.1 2-4.1 4.3 1.7 4.3 4.1 4.3c2.6.1 4.2-1.9 4.2-4.3z"/><path fill="#e6e6e6" d="m123.7 294h3.1v3c.8-2 2.4-3.4 4.8-3.3v3.2h-.2c-2.7 0-4.6 1.7-4.6 5.4v5.1h-3.1z"/><path fill="#e6e6e6" d="m133.4 288.9h3.1v11.1l5.6-6h3.8l-5.4 5.5 5.5 8h-3.5l-4.1-5.8-1.9 1.9v3.9h-3.1z"/><path fill="#e6e6e6" d="m146 300.8c0-3.9 3.1-7 7.2-7s7.2 3.2 7.2 7-3.1 7-7.3 7c-4.1 0-7.1-3.1-7.1-7zm11.2 0c0-2.3-1.7-4.3-4.2-4.3s-4.1 2-4.1 4.3 1.7 4.3 4.1 4.3c2.6.1 4.2-1.9 4.2-4.3z"/><path fill="#e6e6e6" d="m162.4 302.6v-8.6h3.1v7.6c0 2.1 1.1 3.3 2.9 3.3s3-1.3 3-3.3v-7.6h3.1v13.4h-3.1v-2.1c-.8 1.3-2.1 2.3-4.2 2.3-3 .2-4.8-1.8-4.8-5z"/><path fill="#e6e6e6" d="m178.1 303.8v-7.1h-1.7v-2.7h1.7v-3.7h3.1v3.7h3.6v2.6h-3.6v6.6c0 1.2.6 1.7 1.7 1.7.7 0 1.3-.2 1.9-.5v2.5c-.8.5-1.7.7-2.8.7-2.3.1-3.9-.9-3.9-3.8z"/><path fill="#e6e6e6" d="m187.4 289.7h3.2v15h9.4v2.9h-12.5v-17.9z"/><path fill="#e6e6e6" d="m210.2 307.5v-1.7c-.9 1.1-2.3 2-4.4 2-2.6 0-4.8-1.4-4.8-4.2 0-3 2.3-4.4 5.4-4.4 1.7 0 2.6.2 3.7.5v-.2c0-1.9-1.2-2.9-3.3-2.9-1.5 0-2.6.3-3.9.8l-.8-2.5c1.5-.7 2.9-1.1 5.1-1.1 4 0 5.9 2.1 5.9 5.7v8zm.1-5.6c-.8-.3-1.9-.5-3.1-.5-2 0-3.1.8-3.1 2.1s1.1 2 2.6 2c2 0 3.5-1.1 3.5-2.9z"/><path fill="#e6e6e6" d="m219.2 305.5v2.1h-3.1v-18.7h3.1v7.4c1-1.4 2.4-2.5 4.5-2.5 3.2 0 6.3 2.5 6.3 7s-3.1 7-6.3 7c-2.2 0-3.6-1.1-4.5-2.3zm7.7-4.7c0-2.6-1.7-4.3-3.9-4.3s-3.9 1.7-3.9 4.4c0 2.6 1.8 4.3 3.9 4.3s3.9-1.7 3.9-4.4z"/><path fill="#e6e6e6" d="m231.2 305.8 1.4-2.1c1.4 1.1 3 1.7 4.4 1.7s2.1-.5 2.1-1.5-1.3-1.4-2.8-1.8c-.1 0-.2-.1-.2-.1-2-.6-4.2-1.4-4.2-4s2.1-4.1 4.8-4.1c1.7 0 3.5.6 5 1.5l-1.2 2.2c-1.3-.8-2.6-1.3-3.8-1.3s-1.9.5-1.9 1.4 1.3 1.4 2.8 1.8c.1 0 .2.1.2.1 2 .6 4.2 1.5 4.2 4 0 2.9-2.2 4.2-5 4.2-2 0-4.1-.7-5.8-2z"/><path fill="#e6e6e6" d="m360.6 298.6c0-5.1 4.1-9.2 9.3-9.2s9.2 4.2 9.2 9.2-4.1 9.2-9.3 9.2-9.2-4.2-9.2-9.2zm17.4-.1c0-4.5-3.5-8.2-8.2-8.2s-8.2 3.7-8.2 8.3c0 4.5 3.5 8.2 8.2 8.2s8.2-3.7 8.2-8.3zm-13.1-.1c0-2.8 2.1-5.1 5.1-5.1 1.9 0 2.9.6 3.9 1.5l-1.4 1.7c-.8-.7-1.5-1.1-2.5-1.1-1.7 0-2.8 1.4-2.8 3.1s1.1 3 2.8 3c1.1 0 1.7-.5 2.5-1.1l1.4 1.4c-1.1 1.1-2.1 1.7-4 1.7-2.8.1-5-2.2-5-5.1z"/><path fill="#e6e6e6" d="m380.5 289.7h3.4l4.2 13.2 4.4-13.3h2.6l4.4 13.3 4.2-13.2h3.3l-6.2 18h-2.7l-4.4-12.8-4.4 12.8h-2.7z"/><path fill="#e6e6e6" d="m406.7 300.8c0-3.9 3.1-7 7.2-7 4.2 0 7.2 3.2 7.2 7s-3.1 7-7.3 7c-4.1 0-7.1-3.1-7.1-7zm11.3 0c0-2.3-1.7-4.3-4.2-4.3s-4.1 2-4.1 4.3 1.7 4.3 4.1 4.3c2.7.1 4.2-1.9 4.2-4.3z"/><path fill="#e6e6e6" d="m423.3 294h3.1v3c.8-2 2.4-3.4 4.8-3.3v3.2h-.2c-2.7 0-4.6 1.7-4.6 5.4v5.1h-3.1z"/><path fill="#e6e6e6" d="m433 288.9h3.1v11.1l5.6-6h3.8l-5.4 5.5 5.5 8h-3.5l-4.1-5.8-1.9 2v3.9h-3.1z"/><path fill="#e6e6e6" d="m445.6 300.8c0-3.9 3.1-7 7.2-7 4.2 0 7.2 3.2 7.2 7s-3.1 7-7.3 7c-4.1 0-7.1-3.1-7.1-7zm11.3 0c0-2.3-1.7-4.3-4.2-4.3s-4.1 2-4.1 4.3 1.7 4.3 4.1 4.3c2.6.1 4.2-1.9 4.2-4.3z"/><path fill="#e6e6e6" d="m462.1 302.6v-8.6h3.1v7.6c0 2.1 1.1 3.3 2.9 3.3s3-1.3 3-3.3v-7.6h3.1v13.4h-3.1v-2.1c-.8 1.3-2.1 2.3-4.2 2.3-3.1.2-4.8-1.8-4.8-5z"/><path fill="#e6e6e6" d="m477.8 303.8v-7.1h-1.8v-2.7h1.7v-3.7h3.1v3.7h3.6v2.6h-3.6v6.6c0 1.2.6 1.7 1.7 1.7.7 0 1.3-.2 1.9-.5v2.5c-.8.5-1.7.7-2.8.7-2.2.1-3.8-.9-3.8-3.8z"/><path fill="#e6e6e6" d="m487.1 289.7h3.2v15h9.4v2.9h-12.5v-17.9z"/><path fill="#e6e6e6" d="m509.9 307.5v-1.7c-.9 1.1-2.3 2-4.4 2-2.6 0-4.8-1.4-4.8-4.2 0-3 2.3-4.4 5.4-4.4 1.7 0 2.6.2 3.7.5v-.2c0-1.9-1.2-2.9-3.3-2.9-1.5 0-2.6.3-3.9.8l-.8-2.5c1.5-.7 2.9-1.1 5.1-1.1 4 0 5.9 2.1 5.9 5.7v8zm.1-5.6c-.8-.3-1.9-.5-3.1-.5-2 0-3.1.8-3.1 2.1s1.1 2 2.6 2c2 0 3.5-1.1 3.5-2.9z"/><path fill="#e6e6e6" d="m518.8 305.5v2.1h-3.1v-18.7h3.1v7.4c1-1.4 2.4-2.5 4.5-2.5 3.2 0 6.3 2.5 6.3 7s-3.1 7-6.3 7c-2.2 0-3.5-1.1-4.5-2.3zm7.7-4.7c0-2.6-1.7-4.3-3.9-4.3s-3.9 1.7-3.9 4.4c0 2.6 1.8 4.3 3.9 4.3s3.9-1.7 3.9-4.4z"/><path fill="#e6e6e6" d="m530.8 305.8 1.4-2.1c1.4 1.1 3 1.7 4.4 1.7s2.1-.5 2.1-1.5-1.3-1.4-2.8-1.8c-.1 0-.2-.1-.2-.1-2-.6-4.2-1.4-4.2-4s2.1-4.1 4.8-4.1c1.7 0 3.5.6 5 1.5l-1.2 2.2c-1.3-.8-2.6-1.3-3.8-1.3s-1.9.5-1.9 1.4 1.3 1.4 2.8 1.8c.1 0 .2.1.2.1 2 .6 4.2 1.5 4.2 4 0 2.9-2.2 4.2-5 4.2-1.9 0-4.1-.7-5.8-2z"/><path fill="#e6e6e6" d="m659.5 298.6c0-5.1 4.1-9.2 9.3-9.2s9.2 4.2 9.2 9.2-4.1 9.2-9.3 9.2-9.2-4.2-9.2-9.2zm17.3-.1c0-4.5-3.5-8.2-8.2-8.2s-8.2 3.7-8.2 8.3c0 4.5 3.5 8.2 8.2 8.2 4.8 0 8.2-3.7 8.2-8.3zm-13-.1c0-2.8 2.1-5.1 5.1-5.1 1.9 0 2.9.6 3.9 1.5l-1.4 1.7c-.8-.7-1.5-1.1-2.5-1.1-1.7 0-2.8 1.4-2.8 3.1s1.1 3 2.8 3c1.1 0 1.7-.5 2.5-1.1l1.4 1.4c-1.1 1.1-2.1 1.7-4 1.7-2.9.1-5-2.2-5-5.1z"/><path fill="#e6e6e6" d="m679.3 289.7h3.4l4.2 13.2 4.4-13.3h2.6l4.4 13.3 4.2-13.2h3.3l-6.2 18h-2.6l-4.4-12.8-4.4 12.8h-2.7z"/><path fill="#e6e6e6" d="m705.5 300.8c0-3.9 3.1-7 7.2-7 4.2 0 7.2 3.2 7.2 7s-3.1 7-7.3 7c-4 0-7.1-3.1-7.1-7zm11.3 0c0-2.3-1.7-4.3-4.2-4.3s-4.1 2-4.1 4.3 1.7 4.3 4.1 4.3c2.7.1 4.2-1.9 4.2-4.3z"/><path fill="#e6e6e6" d="m722.1 294h3.1v3c.8-2 2.4-3.4 4.8-3.3v3.2h-.2c-2.7 0-4.6 1.7-4.6 5.4v5.1h-3.1z"/><path fill="#e6e6e6" d="m731.8 288.9h3.1v11.1l5.6-6h3.8l-5.4 5.5 5.5 8h-3.5l-4.1-5.8-1.9 2v3.9h-3.1z"/><path fill="#e6e6e6" d="m744.4 300.8c0-3.9 3.1-7 7.2-7 4.2 0 7.2 3.2 7.2 7s-3.1 7-7.3 7c-4.1 0-7.1-3.1-7.1-7zm11.3 0c0-2.3-1.7-4.3-4.2-4.3s-4.1 2-4.1 4.3 1.7 4.3 4.1 4.3c2.6.1 4.2-1.9 4.2-4.3z"/><path fill="#e6e6e6" d="m760.9 302.6v-8.6h3.1v7.6c0 2.1 1.1 3.3 2.9 3.3s3-1.3 3-3.3v-7.6h3.1v13.4h-3.1v-2.1c-.8 1.3-2.1 2.3-4.2 2.3-3.1.2-4.8-1.8-4.8-5z"/><path fill="#e6e6e6" d="m776.6 303.8v-7.1h-1.7v-2.7h1.7v-3.7h3.1v3.7h3.6v2.6h-3.6v6.6c0 1.2.6 1.7 1.7 1.7.7 0 1.3-.2 1.9-.5v2.5c-.8.5-1.7.7-2.8.7-2.3.1-3.9-.9-3.9-3.8z"/><path fill="#e6e6e6" d="m785.9 289.7h3.2v15h9.4v2.9h-12.5v-17.9z"/><path fill="#e6e6e6" d="m808.7 307.5v-1.7c-.9 1.1-2.3 2-4.4 2-2.6 0-4.8-1.4-4.8-4.2 0-3 2.3-4.4 5.4-4.4 1.7 0 2.6.2 3.7.5v-.2c0-1.9-1.2-2.9-3.3-2.9-1.5 0-2.6.3-3.9.8l-.8-2.5c1.5-.7 2.9-1.1 5.1-1.1 4 0 5.9 2.1 5.9 5.7v8zm.1-5.6c-.8-.3-1.9-.5-3.1-.5-2 0-3.1.8-3.1 2.1s1.1 2 2.6 2c2 0 3.5-1.1 3.5-2.9z"/><path fill="#e6e6e6" d="m817.6 305.5v2.1h-3.1v-18.7h3.1v7.4c1-1.4 2.4-2.5 4.5-2.5 3.2 0 6.3 2.5 6.3 7s-3.1 7-6.3 7c-2.1 0-3.5-1.1-4.5-2.3zm7.7-4.7c0-2.6-1.7-4.3-3.9-4.3-2.1 0-3.9 1.7-3.9 4.4 0 2.6 1.8 4.3 3.9 4.3 2.2 0 3.9-1.7 3.9-4.4z"/><path fill="#e6e6e6" d="m829.6 305.8 1.4-2.1c1.4 1.1 3 1.7 4.4 1.7s2.1-.5 2.1-1.5-1.3-1.4-2.8-1.8c-.1 0-.2-.1-.2-.1-2-.6-4.2-1.4-4.2-4s2.1-4.1 4.8-4.1c1.7 0 3.5.6 5 1.5l-1.2 2.2c-1.3-.8-2.6-1.3-3.8-1.3s-1.9.5-1.9 1.4 1.3 1.4 2.8 1.8c.1 0 .2.1.2.1 2 .6 4.2 1.5 4.2 4 0 2.9-2.2 4.2-5 4.2-1.9 0-4-.7-5.8-2z"/><path fill="#e6e6e6" d="m206.3 434.2c0-5.1 4.1-9.2 9.3-9.2s9.2 4.2 9.2 9.2-4.1 9.2-9.3 9.2-9.2-4.1-9.2-9.2zm17.4-.1c0-4.5-3.5-8.2-8.2-8.2s-8.2 3.7-8.2 8.3c0 4.5 3.5 8.2 8.2 8.2s8.2-3.7 8.2-8.3zm-13.1-.1c0-2.8 2.1-5.1 5.1-5.1 1.9 0 2.9.6 3.9 1.5l-1.4 1.7c-.8-.7-1.5-1.1-2.5-1.1-1.7 0-2.8 1.4-2.8 3.1s1.1 3 2.8 3c1.1 0 1.7-.5 2.5-1.1l1.4 1.4c-1.1 1.1-2.1 1.7-4 1.7-2.9.1-5-2.2-5-5.1z"/><path fill="#e6e6e6" d="m226.1 425.3h3.4l4.2 13.2 4.4-13.3h2.6l4.4 13.3 4.2-13.2h3.3l-6.2 18h-2.7l-4.4-12.8-4.4 12.8h-2.7z"/><path fill="#e6e6e6" d="m252.4 436.4c0-3.9 3.1-7 7.2-7 4.2 0 7.2 3.2 7.2 7s-3.1 7-7.3 7c-4.1 0-7.1-3.1-7.1-7zm11.2 0c0-2.3-1.7-4.3-4.2-4.3s-4.1 2-4.1 4.3 1.7 4.3 4.1 4.3c2.7.1 4.2-1.9 4.2-4.3z"/><path fill="#e6e6e6" d="m269 429.7h3.1v3c.8-2 2.4-3.4 4.8-3.3v3.2h-.2c-2.7 0-4.6 1.7-4.6 5.4v5.1h-3.1z"/><path fill="#e6e6e6" d="m278.6 424.5h3.1v11.1l5.6-6h3.8l-5.4 5.5 5.5 8h-3.5l-4.1-5.8-1.9 2v3.9h-3.1z"/><path fill="#e6e6e6" d="m291.3 436.4c0-3.9 3.1-7 7.2-7 4.2 0 7.2 3.2 7.2 7s-3.1 7-7.3 7c-4.1 0-7.1-3.1-7.1-7zm11.2 0c0-2.3-1.7-4.3-4.2-4.3s-4.1 2-4.1 4.3 1.7 4.3 4.1 4.3c2.6.1 4.2-1.9 4.2-4.3z"/><path fill="#e6e6e6" d="m307.7 438.2v-8.6h3.1v7.6c0 2.1 1.1 3.3 2.9 3.3s3-1.3 3-3.3v-7.6h3.1v13.4h-3.1v-2.1c-.8 1.3-2.1 2.3-4.2 2.3-3 .2-4.8-1.8-4.8-5z"/><path fill="#e6e6e6" d="m323.4 439.4v-7.1h-1.7v-2.6h1.7v-3.7h3.1v3.7h3.6v2.6h-3.6v6.6c0 1.2.6 1.7 1.7 1.7.7 0 1.3-.2 1.9-.5v2.5c-.8.5-1.7.7-2.8.7-2.3 0-3.9-.9-3.9-3.9z"/><path fill="#e6e6e6" d="m332.7 425.3h3.2v15h9.4v2.9h-12.5v-17.9z"/><path fill="#e6e6e6" d="m355.5 443.1v-1.7c-.9 1.1-2.3 2-4.4 2-2.6 0-4.8-1.4-4.8-4.2 0-3 2.3-4.4 5.4-4.4 1.7 0 2.6.2 3.7.5v-.2c0-1.9-1.2-2.9-3.3-2.9-1.5 0-2.6.3-3.9.8l-.8-2.5c1.5-.7 2.9-1.1 5.1-1.1 4 0 5.9 2.1 5.9 5.7v8zm.1-5.6c-.8-.3-1.9-.5-3.1-.5-2 0-3.1.8-3.1 2.1s1.1 2 2.6 2c2 0 3.5-1.1 3.5-2.9z"/><path fill="#e6e6e6" d="m364.4 441.1v2.1h-3.1v-18.7h3.1v7.4c1-1.4 2.4-2.5 4.5-2.5 3.2 0 6.3 2.5 6.3 7s-3.1 7-6.3 7c-2.1 0-3.5-1.1-4.5-2.3zm7.7-4.7c0-2.6-1.7-4.3-3.9-4.3-2.1 0-3.9 1.7-3.9 4.4 0 2.6 1.8 4.3 3.9 4.3 2.2 0 3.9-1.7 3.9-4.4z"/><path fill="#e6e6e6" d="m376.5 441.4 1.4-2.1c1.4 1.1 3 1.7 4.4 1.7s2.1-.5 2.1-1.5-1.3-1.4-2.8-1.8c-.1 0-.2-.1-.2-.1-2-.6-4.2-1.4-4.2-4s2.1-4.1 4.8-4.1c1.7 0 3.5.6 5 1.5l-1.2 2.2c-1.3-.8-2.6-1.3-3.8-1.3s-1.9.5-1.9 1.4 1.3 1.4 2.8 1.8c.1 0 .2.1.2.1 2 .6 4.2 1.5 4.2 4 0 2.9-2.2 4.2-5 4.2-2 0-4.1-.7-5.8-2z"/><path fill="#e6e6e6" d="m505.1 434.2c0-5.1 4.1-9.2 9.3-9.2s9.2 4.2 9.2 9.2-4.1 9.2-9.3 9.2-9.2-4.1-9.2-9.2zm17.4-.1c0-4.5-3.5-8.2-8.2-8.2s-8.2 3.7-8.2 8.3c0 4.5 3.5 8.2 8.2 8.2s8.2-3.7 8.2-8.3zm-13.1-.1c0-2.8 2.1-5.1 5.1-5.1 1.9 0 2.9.6 3.9 1.5l-1.4 1.7c-.8-.7-1.5-1.1-2.5-1.1-1.7 0-2.8 1.4-2.8 3.1s1.1 3 2.8 3c1.1 0 1.7-.5 2.5-1.1l1.4 1.4c-1.1 1.1-2.1 1.7-4 1.7-2.9.1-5-2.2-5-5.1z"/><path fill="#e6e6e6" d="m525 425.3h3.4l4.2 13.2 4.4-13.3h2.6l4.4 13.3 4.2-13.2h3.3l-6.2 18h-2.7l-4.4-12.8-4.4 12.8h-2.7z"/><path fill="#e6e6e6" d="m551.2 436.4c0-3.9 3.1-7 7.2-7 4.2 0 7.2 3.2 7.2 7s-3.1 7-7.3 7c-4.1 0-7.1-3.1-7.1-7zm11.2 0c0-2.3-1.7-4.3-4.2-4.3s-4.1 2-4.1 4.3 1.7 4.3 4.1 4.3c2.7.1 4.2-1.9 4.2-4.3z"/><path fill="#e6e6e6" d="m567.8 429.7h3.1v3c.8-2 2.4-3.4 4.8-3.3v3.2h-.2c-2.7 0-4.6 1.7-4.6 5.4v5.1h-3.1z"/><path fill="#e6e6e6" d="m577.5 424.5h3.1v11.1l5.6-6h3.8l-5.4 5.5 5.5 8h-3.5l-4.1-5.8-1.9 2v3.9h-3.1z"/><path fill="#e6e6e6" d="m590.1 436.4c0-3.9 3.1-7 7.2-7 4.2 0 7.2 3.2 7.2 7s-3.1 7-7.3 7c-4.1 0-7.1-3.1-7.1-7zm11.2 0c0-2.3-1.7-4.3-4.2-4.3s-4.1 2-4.1 4.3 1.7 4.3 4.1 4.3c2.6.1 4.2-1.9 4.2-4.3z"/><path fill="#e6e6e6" d="m606.5 438.2v-8.6h3.1v7.6c0 2.1 1.1 3.3 2.9 3.3s3-1.3 3-3.3v-7.6h3.1v13.4h-3.1v-2.1c-.8 1.3-2.1 2.3-4.2 2.3-3 .2-4.8-1.8-4.8-5z"/><path fill="#e6e6e6" d="m622.2 439.4v-7.1h-1.7v-2.6h1.7v-3.7h3.1v3.7h3.6v2.6h-3.6v6.6c0 1.2.6 1.7 1.7 1.7.7 0 1.3-.2 1.9-.5v2.5c-.8.5-1.7.7-2.8.7-2.3 0-3.9-.9-3.9-3.9z"/><path fill="#e6e6e6" d="m631.5 425.3h3.2v15h9.4v2.9h-12.5v-17.9z"/><path fill="#e6e6e6" d="m654.3 443.1v-1.7c-.9 1.1-2.3 2-4.4 2-2.6 0-4.8-1.4-4.8-4.2 0-3 2.3-4.4 5.4-4.4 1.7 0 2.6.2 3.7.5v-.2c0-1.9-1.2-2.9-3.3-2.9-1.5 0-2.6.3-3.9.8l-.8-2.5c1.5-.7 2.9-1.1 5.1-1.1 4 0 5.9 2.1 5.9 5.7v8zm.1-5.6c-.8-.3-1.9-.5-3.1-.5-2 0-3.1.8-3.1 2.1s1.1 2 2.6 2c2 0 3.5-1.1 3.5-2.9z"/><path fill="#e6e6e6" d="m663.3 441.1v2.1h-3.1v-18.7h3.1v7.4c1-1.4 2.4-2.5 4.5-2.5 3.2 0 6.3 2.5 6.3 7s-3.1 7-6.3 7c-2.2 0-3.6-1.1-4.5-2.3zm7.7-4.7c0-2.6-1.7-4.3-3.9-4.3s-3.9 1.7-3.9 4.4c0 2.6 1.8 4.3 3.9 4.3s3.9-1.7 3.9-4.4z"/><path fill="#e6e6e6" d="m675.3 441.4 1.4-2.1c1.4 1.1 3 1.7 4.4 1.7s2.1-.5 2.1-1.5-1.3-1.4-2.8-1.8c-.1 0-.2-.1-.2-.1-2-.6-4.2-1.4-4.2-4s2.1-4.1 4.8-4.1c1.7 0 3.5.6 5 1.5l-1.2 2.2c-1.3-.8-2.6-1.3-3.8-1.3s-1.9.5-1.9 1.4 1.3 1.4 2.8 1.8c.1 0 .2.1.2.1 2 .6 4.2 1.5 4.2 4 0 2.9-2.2 4.2-5 4.2-2 0-4.1-.7-5.8-2z"/></g>
</svg>
