<?xml version="1.0" encoding="utf-8"?>
<!-- Generator: Adobe Illustrator 23.0.1, SVG Export Plug-In . SVG Version: 6.00 Build 0)  -->
<svg version="1.2" baseProfile="tiny" id="Layer_1" xmlns="http://www.w3.org/2000/svg" xmlns:xlink="http://www.w3.org/1999/xlink"
	 x="0px" y="0px" viewBox="0 0 900 600" xml:space="preserve">
<g>
	<path d="M0.39,499.83c3.37-11.98,2.45-12.68,5.06-14.16c22.39-12.67,67.04-28.48,60.67-53.29c-8.27-32.25-0.47,3.52-21.44-75.44
		c-11.94,0-12.47,0.37-12.71-1.41c8.44,0.59,16.8-0.7,25.25-0.92c19.84-0.51,2.36,1.73,35.49-0.81c4.31-0.33,10.47-0.29,6.17-1.72
		c-15.4-3.42-18-6.38-28.21-6.57c-37.57-0.71-2.18,1.02-39.13-0.3c-0.79,3.45,1,6.8,0.35,10.05c-2.39-1-1.8-7.78-3.08-11.16
		c-20.56-3.49-22.69,6.68-23.36-13.45c-0.17-5.14,3.5-6.82,8.09-6.47c7.89,0.61,15.67-2.02,23.56-1.21c1.81,0-0.5-1.91-0.71-4.35
		c-0.69-8.1-2.55-16.08-3.34-24.17c-1.22-12.51,3.52-17.44,4.35-24.17c0.67-5.45,0.32-23.28-1.01-28.82
		c-1.56-6.49-5.06-12.03-8.39-17.7c-6.67-11.33-8.24-24.39-11.73-36.81c-1.39-4.96-1.22-10.11-1.82-15.27
		c-0.61-5.26,2.43-10.11,0.91-15.37c-0.36-0.9,2.45-8.36,7.38-11.43c7.37-4.58-0.4-4.95,14.66-17.19c5.67-4.6,9.09-13.66,6.57-16.08
		c-2.18-2.1-0.75-5.99-1.82-7.79c-2.98-4.99-3.42-10.93-4.95-16.28c-1.89-6.58-1.33-13.76,0.91-20.53c0.76-2.29-1.6,0.13-2.63-1.11
		c1.11-2.43,3.64-3.44,5.36-5.16c-0.1-1.01-1.62-1.01-1.52-2.12c-0.1-1.31,2.73-1.62,0.61-3.54c8.41,0,2.97-0.41,3.13-3.54
		c1.62,2.33,2.63,0.4,3.94,0c1.21,0,1.21,1.72,2.43,1.92c0.61-0.81,1.01-1.63,2.22-2.02c13.69-4.39,1.28-4.79,17.6-2.93
		c6.27,0.72,12.64,3.64,19.11,0.51c0.1,0,0.4,0.3,0.71,0.61c-0.81,1.92-3.03,1.92-4.55,3.34c3.64,0.81,4.95-2.22,6.78-3.84
		c1.52,0.61,0.1,1.72,0.91,2.12c2.93,2.53,5.46-1.72,8.19-0.61c1.82,2.12,0.81,3.54-0.91,4.85c1.01,0.71,1.92-1.01,2.83,0.3
		c-0.11,2.32-4.63,4.13-5.16,5.06c0.28,0.47,1.3,0.34,1.39-0.02c0.95,1.89,2.02,1.31,1.85,2.75c-0.81,1.11-1.92,2.02-3.74,1.82
		c0.1-1.01,1.42-0.91,1.11-2.02c-1.62,0.61-3.13,1.11-4.65,2.22c1.31,5.16,3.34,9.91,5.66,15.07c-3.2,2.59-0.91,4.69,2.53,12.24
		c3.58,7.86-1.26,4.74-2.83,7.18c0.71,3.03-0.71,9.4-2.33,11.12c3.88,15.53-10.07,8.61-14.36,12.03
		c-0.62,12.69-6.76,10.88,1.92,15.77c7.54,4.25,17.23,1.12,24.17,9.81c3.28,4.1,9.6,14.68,8.29,20.43
		c-2.61,11.46,5.01,13.66,4.45,28.01c-0.21,5.36-0.1,10.72-1.31,16.28c8.09-1.52,13.37-6.16,16.79-12.94
		c2.87-5.69,6.56-4.44,7.58-5.87c2.94-3.63,5.48-0.51,10.11-1.62c4.37-1.05,4.77,2.74,1.72,5.97c5.21,0.45,2.04,7.58,2.02,7.69
		c1.31,0.4,2.43,0.71,3.24,1.01c6.37-5.06,10.92-11.33,14.36-18.71c2.73,1.92,4.55-1.62,6.88-0.3c2.02,1.82,0.71,3.74,0.51,5.76
		c4.25,2.33,1.31,6.07,1.62,9.3c7.21,1.39,6.54,6.77,3.03,8.29c0.99-4.45,2.13-4.95-3.94-6.78c2.84,5.69-7.08,2.18-12.84,6.37
		c13.43,2.1,10.93,3.51,16.58,1.42c-5.33,6.17-6.85,0.1-19.11,0.1c0,1.21,0,2.33,0,3.34c7.79,6.17,18,5.76,21.74-0.71
		c0.1-1.11-1.82-1.42-1.01-3.03c1.92,0.71,2.82,1.82,2.02,3.94c-2.42,6.45,0.35,8.86-4.95,10.62c-10.71,3.54-24.76-4.52-18.2-6.98
		c-1.47,7.08,23.83,9.64,19.62,0.61c-10.5,2.28-5.66,0.62-5.66,2.33c0.1,0.39-1.15,1.66-1.2-0.91c-6.52,0-10.84-2.08-14.17-5.66
		c0.3-1.52,0.61-2.93,0.91-4.45c1.52-1.01,2.63-2.63,4.35-3.34c0.69-4.15,1.57-8.1,1.71-12.24c-2.55,5.04-7.12,8.45-10.91,12.74
		c3.92,4.8-3,10.87-0.61,16.28c2.43,1.21,4.85,2.53,7.28,1.11c3.29,0.99,6.14,8.26,10.61,5.06c3.18,0.24,5.18-2.14,7.49-4.15
		c0.71,2.12-1.31,2.63-1.31,3.94c0.3,0.91,1.62,0.4,2.02,1.52c-1.83,5.69,0.72,12.36-4.95,13.75c-16.61,4.09-33.76,15.5-52.89,12.74
		c-3.44-1.31-7.28-0.81-10.62-2.83c-0.3-0.91,1.01-1.01,0.71-1.92c-1.31-0.2-2.33,1.01-3.74,0.91c-6.3-0.43-4.91,7.88-6.27,14.46
		c-0.73,3.54,1.01,6.99,3.44,7.38c4.45,0.72,8.31,3.16,12.64,4.04c0.91,0.19,2.43,0.2,2.93,1.82c-3.74-0.1-7.08-1.4-10.62-2.02
		c-5.06-0.89-9-2.93-10.21-8.39c0-2.08-4.44,2.82-8.6,0.81c-0.71-0.4,0.71-2.22-1.11-2.33c-1.21,0.4-0.3,2.53-2.02,2.53
		c-0.71-0.71,0.1-2.43-1.72-2.33c-1.62,0.3-0.91,3.03-2.83,3.13c-0.51-1.01,0.91-2.02-0.1-3.24c-1.92,0.1-3.94-0.1-5.86,0.4
		c-0.51,1.11-0.4,2.02,0.4,2.93c-2.93,0.61-5.66,1.11-7.99-0.61c-1.01-1.31,1.52-1.01,0.81-1.92c-9.3-1.62-18.4-1.11-28.01-0.4
		c1.52,1.21,3.03,2.12,1.82,4.15c-5.44-0.78-7.62,1.49-8.49,0.3c-1.33-1.81-3.13-1.52-4.95-1.82c-7.47,11.84-3.86,22.54-0.91,42.07
		c3.3,21.82,74.33,34.1,76.95,39.34c3.03,5.16,8.39,8.09,12.24,13.25c7.28-14.66,11.63-29.12,8.49-45.3
		c-21.84,5.56-43.58,8.39-65.83,6.98c22.35,0.3,44.19-3.74,65.83-8.39c1.11-6.47,1.96-12.83,3.24-19.01
		c3.37-16.3,9.17-14.99,8.9-21.03c-5.66,1.42-10.92,4.65-17.09,1.82c0.51-0.61,0.71-0.91,0.81-0.91
		c10.68,2.75,16.94-6.85,26.59-7.69c10.47-0.91,15.26-1.33,18.4-4.25c13.01-12.07,16.91,2.93,11.33-21.44
		c2.02-0.71,1.72-2.33,1.82-3.44c-0.81-1.72-3.13-0.81-3.34-2.83c8.59-0.54,3.36,9.13,4.04,12.44c0.71,3.44,1.31,6.67,0.81,10.21
		c10.39,1.73,18.7,3.94,27.2,14.97c6.77,8.78-1.79,11.04,1.42,24.57c1.67,7.06-0.4,5.03-0.4,15.98c0,16.29-3.73,1.43-2.12-6.78
		c1.82-9.29-3.24-22.55,2.33-26.09c-2.73-5.97-5.75-11.14-11.83-14.16c-17.49-8.67-18.23-3.98-19.72-5.76
		c-2.39-2.86-4.98-0.84-11.12,3.13c4.25,4.65,4.45,7.18,0.81,11.53c7.8,7.8,2.31,14.42,4.35,26.29c2.63-0.3,4.75-3.03,7.58-1.42
		c-0.4,1.92-2.22,1.62-3.03,2.73c0,1.21,1.92,1.52,1.31,2.93c-2.33,0.51-2.93-3.44-6.27-1.72c2.73,6.17-1.72,12.74,0.71,19.62
		c7.99-0.71,15.77,1.42,23.56-0.2c1.01-3.03,0.71-6.27,1.42-9.71c5.88,8.44-4.56,10.57,7.28,9.81c73.11-4.67,42.21,0.11,73.82-1.31
		c11.12-0.5,22.25-1.72,33.37-1.62c1.01,0.01,2.22,0.2,3.34-1.01c-14.16-3.03-27-8.49-38.73-17.09c1.39-4.79,9.73-44.92,2.53-0.4
		c21.72,16.71,66.95,22.65,70.08,22.65c14.66,0-4.11,4.42,43.68,4.95c3.69,0.04,26.61-0.12,29.02-2.93c0-6.37,0-12.54,0-19.01
		c-12.03,3.03-23.76,2.48-35.49,2.43c-20.47-0.09-15.84-2.62-48.03-8.09c-33.02-5.61-54.86-20.18-54.71-22.15
		c3.49-3.93,21.64-4.65,26.9-3.74c9.61,1.65,21.29-1.03,36.5,1.42c1.95-4.77,0.61-5.03,3.03-17.09
		c3.02-15.07,10.92-28.92,12.24-44.7c6.07-0.4,11.43,2.33,17.49,1.82c-1.42,3.44-1.02,6.67-1.72,9.71
		c-3.87,16.68-14.63,44.1-15.27,52.79c31.59,7.29,25.19,4.23,54,18.1c3.34,1.61,6.88,3.24,8.7,7.18c-1.42,1.31-1.4,3.24-1.42,5.16
		c-0.19,17.88,1.48,18.24-3.94,19.31c-16.46,3.25-40.44,1.49-56.83,0c-12.74-1.15-9.77-3.72-11.33,1.72
		c-3.8,13.26,2.95,5.53-72.71,9.61c-9.1,0.49-18.2-1.92-27.2,0.3c-11.5,0,7.87-2.23-42.98,0.4c-3.13,19.01-3.13,37.52,1.62,55.92
		c1.01-0.4,1.62-1.82,3.44-1.62c-2.74,4.86-1.23,5.59-17.39,10.72c-7.37,2.34-15.23-2.11-13.85-13.55
		c-7.65,7.32-6.87,7.85-6.47,9.51c3.32,13.81,3.4,13.4,2.33,14.36c-1.01-0.3-1.11-1.01-1.21-1.72c-1.92-9.3-5.44-18.21-7.38-27.4
		c-5.03-23.79,1.66-24.16-1.21-40.75c-1.22-7.05-0.85-24.61-0.3-26.29c4.44-13.72-0.16-23.5,1.21-28.82
		c3.18-12.28-4.3-16.76-10.62-22.35c-4.65-4.11-9.7,0.54-14.26,0.2c-8.8,9.81-13.95,20.93-14.76,33.67
		c3.54,1.52,6.88-0.51,10.72,0.3c-4.89,3.91-5.26-2.99-8.09,16.89c-4.62,32.47,2.99,24.98,9.3,49.04
		c5.07,19.32,12.32,28.46,12.64,42.07c0.23,9.65,12.11,8.37,15.17,12.13c7.66-2.14,5.19-7.97,19.31-9.1
		c-0.81,7.69,1.01,19.52,3.94,26.39c54.22-9.04,33.3-5.54,47.73-3.74c1.31-4.85-3.64-9.1-13.25-11.63c-2.43,3.13-3.74,3.24-6.67,0.3
		c0.4-1.21,2.12-0.4,2.43-1.82c-3.24-1.72-6.17,1.31-9.61,0.4c-0.3-3.54-5.16-0.71-5.97-4.15c2.22-2.83,5.87-2.12,8.8-2.93
		c0.32-4.87-8.17,1.8-11.22-2.43c0.91-2.53,3.54-1.82,5.26-2.93c-2.02-0.61-4.04,1.01-5.66-0.91c2.12-2.83,5.16-1.52,7.79-2.12
		c1.31-1.72,2.63-3.54,3.64-4.95c0.91-3.84-1.11-6.98-0.91-10.72c4.45,3.03,4.25,7.48-0.1,15.77c0.4,2.22,2.42,3.85,3.13,5.97
		c3.94,11.7,14.34,4.24,23.97,15.98c7.79,9.5-12.52,2.16,23.76,19.82c25.77,12.54,53.99,26,69.27,31.04
		c7.47,2.47,18.83,9.46,25.48,11.43c2.02-2.02,2.12-5.46,5.86-6.98c-1.11,4.04-3.03,6.67-4.95,9.1c-3.02,0.65-13.2-5.62-17.7-7.69
		c-17.38-7.99-14.45-2.17-89.29-40.65c-6.88-3.54-12.64-9.3-21.03-9.2c-0.3,0-0.51-0.2-0.71-0.3c-6.08-2.64-22.56,2.7-38.53,4.85
		c-0.3,0-0.4,0.51-0.2,1.11c1.31,0.71,2.73-0.62,4.25-0.3c7.34,1.54,32.48-5.72,36.71-1.82c-5.95,0.44-14.21-0.54-25.18,2.63
		c2.63,1.42,5.27,1.41,6.78,3.54c1.63,2.32,1.72,4.75-0.1,6.57c-1.46-1.29-0.12-4.9-3.13-5.97c-3.74-1.32-7.48-4.04-11.73-1.21
		c-0.43,0.24-2.45,0.8-3.03,0.51c-0.1-0.4,0.51-0.81,0.1-1.31c-2.02,0.2-2.02,0.2-2.83,2.53c-3.84,0.2-6.37,4.25-10.42,4.15
		c-0.61-0.71,0.4-1.01,0.3-1.62c-3.95-0.23-9.15,0.61-6.17-4.45c-5.99,0-9.36,0.75-9.2-3c0.79-0.59,1.66-1.16,2.53-1.75
		c-0.1-1.01-1.42-1.62-0.91-3.24c0.51-2.02,3.03-1.92,4.65-3.13c-2.12-1.11-4.65,0.71-6.47-2.02c5.76-2.22,11.83-0.61,17.49-2.33
		c-1.21-4.85-1.72-9.61-1.82-14.46c-12.54,3.67-7.71,6.42-13.15,7.89c-4.71,1.27-14.42,2.55-19.11,1.21
		c-8.87-2.53-3.32-9.62-3.54-10.92c-0.3-1.82,0.3-3.13,1.92-4.04c-10.66,2.94-6.58,11.48-15.98,14.76
		c-13.97,4.87,0.47,21.07,16.79,26.7c21.75,7.5,16.13,18.44,30.74,16.99c1.72-0.17,20.89-6.11,30.64-16.18
		c-0.33,7.66-7.77,8.89-21.03,15.27c-13.21,6.35-18.7,1.73-17.7,2.73c-3.24-2.93-7.4-4.74-9.81-8.29c-6-8.87-18.81-5.45-32.06-20.12
		c-2.74-3.03-4.64-6.59-7.99-9.4c-4.84-4.07-8.91-9.4-12.24-14.97c-11.87-19.89-22.54-23.08-28.41-34.99
		c-1.98-4-4.97-5.32-30.94-36.71c-6.07-0.2-12.03-0.1-18.1,0.81c20.72,79.44,30.15,84.75,8.39,102.74c-2.22,1.83-4.5,3.35-5.36,6.37
		c-0.29,1.02-0.91,2.22-2.33,2.53c-0.81-1.31,1.11-2.22,0.61-3.94c-13.55,9.2-28.92,14.46-42.88,23.56
		c-0.4,4.55-1.82,9.4-3.44,14.97c6.88,0.2,12.94,1.82,19.11,2.63c3.84-5.36,1.82-11.73,4.04-17.09c2.45,16.77-12.1,19.46,31.25-7.79
		c-0.3-0.81-1.92-0.1-1.52-1.92c17.71,1.77,22.37,4.33,33.77,4.95c33.95,1.87,79.38,10.99,89.49,9.61c0.61-1.92-1.21-4.15,0.61-6.37
		c2.53,4.45,1.62,9.51,3.94,13.75c19.45-5.43,22.07,0.58,27.81-5.36c5.31-5.5,11.87-9.72,16.48-15.98c0.68-0.93,1.72-2.12,3.64-0.61
		c-21.3,19.45-22.57,19.44-18.51,20.02c63.27,13.38,93.34,10.21,137.12,19.72c3.43,0.74,7.08,0.4,10.42,1.82
		c6.06-9.96,8.61-7.67-6.17,12.74c0.51,4.15-1.01,8.49-0.71,12.94c34.45,1.24,21.02,2.57,28.92-5.66
		c7.72-8.04,14.87-26.68,17.8-33.47c0.91-2.12,0.4-4.04-0.2-6.67c-1.92,3.74-2.83,7.38-5.56,10.01c2.12-4.15,2.73-8.9,5.66-12.84
		c-2.44-4.27-21.02-2.87-22.85-3.64c3.84-3.03,19.21-2.02,25.18,1.31c-0.51,1.92,0.18,3.75,0.61,5.56
		c1.88,7.96-13.55,32.25-22.95,48.13c-1.01,1.34-27.57-0.91-28.72-1.01c-0.71-5.46,1.21-10.72,1.11-15.98
		c2.73-2.93,4.95-6.07,6.88-9.4c-3.47-2.32,0.42,2.27-16.79-2.12c-26.67-6.82-43.95-4.17-85.85-11.12
		c-14.42-2.39-43.49-7.24-48.34-9.61c-4.3,2.15-8.63-0.33-18.71,1.52c-13.58,2.49-7.28-2.02-11.12-3.94
		c-1.21-0.02-58.97-9.62-74.22-10.31c-39.78-1.8-37.89-9.55-48.34-2.83c-11.68,7.51-23.66,14.56-34.79,23.36
		C2.36,503.65-1.48,506.47,0.39,499.83z M180.25,222.39c0.1-0.1,0.03-0.03-0.07-0.03C180.2,222.37,180.23,222.38,180.25,222.39z
		 M182,196.98c-9.54-1.83-6.1,4.03-8.8,11.22C181.8,208.91,182.61,205.98,182,196.98z M178.97,194.55c1.42,0,2.02-1.11,2.63-2.12
		c0-0.91-0.61-1.52-1.21-2.22c-1.52,0.91-3.03,1.72-4.85,1.62c-0.79,1.67-2.15,2.87-2.5,4.61
		C172.9,197.08,175.92,194.55,178.97,194.55z M43.97,69.97c-0.71,0.81-0.1,1.21,0.71,1.82C44.88,70.68,45.18,69.97,43.97,69.97z
		 M46.4,59.96c-0.71,0.61-1.52,0.81-0.81,1.52C46.5,61.47,46.4,60.87,46.4,59.96z M45.89,107.18c1.21-0.61,0.71-1.42,1.11-2.33
		C45.49,105.26,45.39,106.07,45.89,107.18z M47.31,72.9c0.61-0.4,0.61-0.81,0.4-1.31C46.5,71.89,46.6,72.29,47.31,72.9z
		 M47.71,60.56c1.92,0.1,1.92,0.1,2.93-2.02C49.73,59.15,48.82,59.86,47.71,60.56z M50.24,85.84c1.42-2.73,1.52-2.73,4.55-4.04
		C51.35,81.9,50.24,82.81,50.24,85.84z M52.46,85.14c0.81,0.1,1.42-0.1,1.72-1.31C53.17,84.02,52.57,84.23,52.46,85.14z
		 M52.36,61.68c1.21,0.3,2.33,0.71,3.03-1.11C53.98,59.25,53.17,60.06,52.36,61.68z M61.06,61.88c-0.81,0.1-1.11,0.51-0.91,1.21
		C61.46,63.29,61.57,62.79,61.06,61.88z M64.5,63.29c-0.3,0.91,0.51,1.31,0.61,1.92c1.11,0,1.42-0.91,2.02-1.31
		C66.32,62.49,65.41,62.38,64.5,63.29z M67.84,54.5c1.31,0.4,1.62-0.4,2.53-0.91C69.05,53.28,68.34,53.38,67.84,54.5z M80.07,53.89
		c0.91,0.71,1.31,0.2,1.82-0.2C81.28,52.98,80.78,52.78,80.07,53.89z M88.56,63.09c1.01,0.51,1.82,0.3,2.73,0
		C90.39,61.98,89.58,62.79,88.56,63.09z M97.77,57.33c-1.92,0.2-3.44,1.62-5.36,1.82C94.33,59.05,96.25,58.74,97.77,57.33z
		 M86.14,144.7c-1.31-1.22-0.51-3.02-2.22-3.64c-1.62-0.59-3.13-1.62-4.65-2.43c-0.3,1.31,1.31,2.53,0.2,4.15
		c-5.09-3.89,0.04-12.05,0.91-19.62c0.21-1.82,2.02-2.64,3.74-2.73c18.13-0.99,6.34-4.24,12.24-12.94
		c-1.52-2.83-4.25,1.21-6.17-1.21c1.92-2.12,4.85-1.31,6.98-2.43c0.81-1.72-1.52-3.34,0.3-5.46c-1.92,0.3-3.64,0.71-4.04-1.62
		c2.33,0.81,4.75-1.11,6.98,0.61c2.88-3.54-8.13-12.1-3.84-17.19c-2.02-5.26-4.04-10.31-6.17-15.67c-4.75,0.91-9.51-1.21-13.95,1.92
		c4.98,2.1-9.59,6.42-11.33,25.79c0,0.61,0.1,1.21-0.81,2.33c-1.72-4.65-0.61-10.31-5.86-12.64c-1.51,3.21,1.26,4.96-0.91,5.16
		c-0.9,0.24,3.69,3.99,0.3,6.78c-7.38-6.18,1.95-4.97-1.92-9.4c-1.01,0.81-2.02,1.82-3.74,1.82c1.11,1.72,2.83,3.24,0.61,4.65
		c2.63,4.95,4.65,5.86,8.8,3.74c-2.43,8.29,4.25,11.63,8.19,16.48c-16.48-9.58-4.1-10.68-15.07-14.66
		c-1.62,0.91-1.92,2.63-2.43,4.04c0.2,1.31,1.82,1.92,1.72,3.34c-0.61,1.62-1.92,0.51-2.73,0.81c-1.92,2.93,1.52,7.89-4.15,9.3
		c0.61,4.95-2.73,8.29-5.36,12.24c8.19,2.53,13.93,8.32,19.92,13.85c6.35,5.86,7.03,1.05,11.22,3.34
		c-3.85,4.36-11.68-4.85,4.65,11.22c6.53,6.43,8.28,7.95,12.81,7.38c-4.6,3.76-5.41,4.09-22.62-13.75
		c-8.87-9.2-25.31-22.42-27.71-20.02c-0.42,0.42-1.36,1.43-0.61,1.82c7.47,3.87,12.68,9.35,28.41,24.07
		c9.13,8.54,12.96,24.83,10.82,34.99c0.61,1.82,2.83,1.42,3.13,3.13c-1.01,1.01-2.22,0.3-3.64,0.4c-2.63,6.47-7.18,10.52-14.97,9.51
		c-0.82,5.19-1.61,6,2.73,6.78c37.39,6.69,13.53,7.81,44.49,5.56c-5.3-20.98,8.1-24.65-1.31-46.52c-1.14-3.42-3.18,2.73-15.88-17.9
		c-1.01,1.72,0.2,2.83,0.3,4.04c1.4,8.85-3.04,7.82-3.14,7.87c-0.61-2.32-2.33-4.03-3.43-6.35c1.82,0.61,2.43,2.43,3.84,3.13
		C92.91,151.78,90.7,148.93,86.14,144.7z M62.27,200.52c6.57-0.1,10.11-4.04,14.06-8.8c-5.76-0.61-10.82-1.01-15.57-3.74
		C61.46,192.43,62.48,196.27,62.27,200.52z M90.39,143.99c5.36,7.18,9.81,14.86,16.58,21.03c0.1-4.45-2.43-7.38-4.45-10.82
		c4.74-1.42,8.89,17.24,10.92,17.8C114.96,156.83,105.25,145,90.39,143.99z M117.69,204.66c-1-6.97,1.32-13.03-2.53-21.84
		c-0.91,11.02-5.97,20.73-3.44,31.55c1.42,0.51,3.03,0.3,4.85,0.1C117.49,211.23,118.18,208.1,117.69,204.66z M160.56,226.91
		c-6.31,4.73-1.86-0.13-3.13,6.67c2.93,0.2,5.46-1.72,7.99-1.11c1.42-0.51,0.81-1.72,2.53-2.43
		C164.51,229.74,162.48,228.22,160.56,226.91z M174.52,233.38c-5.93-4.89-5.1-4.11-6.17-3.84c-0.61,1.21-0.2,2.33,0.4,3.64
		C175.4,234.28,174.52,234.27,174.52,233.38z M158.74,234.8c-11.97,4.64-19.28,0.87-20.43,2.93c3.54,2.43,7.08,2.93,10.62-0.1
		c1.01,2.63-0.5,3.77-1.92,3.94c-4.75,0.58-9.56,1.5-11.93-2.22c-2.63,0.81-4.95,2.53-8.29,2.83c1.82,1.52,3.54,0.8,4.95,1.31
		c8.84,3.2,16.52-2.26,43.28-7.28C169.56,235.6,164.42,232.6,158.74,234.8z M179.37,235.2c1.82-0.4,3.24-0.61,4.75-1.62
		C181.09,233.38,181.09,233.38,179.37,235.2z M161.27,253.1c32.58-13.39,20.17-3.15,24.47-17.49c-15.47,3.44-30.74,6.98-46.21,10.42
		c-0.71,4.15,0.3,8.49-1.62,13.25C146,257.14,153.98,256.1,161.27,253.1z M136.7,258.56c1.62-4.04,0.81-7.89,1.31-11.83
		c-4.55-1.62-8.9-1.52-13.35-2.53c-0.91,4.15-1.92,8.29-2.83,12.64C126.99,257.04,131.74,258.56,136.7,258.56z M108.59,262.2
		c0.51-1.82,0.1-3.94,1.21-5.76c3.34-2.12,7.58-0.81,10.72-3.24c0.81-1.11,0.4-2.53,1.31-3.94c-3.94-1.31-7.89-1.72-11.43-3.34
		C108.69,251.38,107.58,256.64,108.59,262.2z M81.89,274.44c1.21,0.1,1.62-0.51,1.72-1.82C81.79,272.31,81.49,273.02,81.89,274.44z
		 M48.52,274.54c1.72-0.4,1.31-1.21,1.01-2.43C48.32,272.82,48.22,273.42,48.52,274.54z M46.8,274.64c0.2-1.42-0.61-2.02-1.92-2.53
		C44.88,274.74,44.88,274.74,46.8,274.64z M40.13,254.92c6.47-0.2,12.84,0,19.11,2.12c-6.17-0.1-12.34-1.21-18.91-0.61
		c0.71,2.02-1.11,4.35,1.21,5.86c-3.54,2.02-0.61,5.26-1.82,7.69c22.39,1.87,11.52-2.11,23.46-3.44c-2.02,2.12-4.65,2.02-6.17,4.04
		c8.8-2.33,17.6,0.24,26.49-0.91c4.55-0.59,9.3-0.59,13.85,0.61c2.32,0.61,4.75-0.1,7.08-0.1c1.21,0,2.73-0.3,2.93-2.43
		c-2.43-1.11-2.21-3.34-2.02-5.66c0.22-2.63-0.3-5.66,0.81-7.79c3.43-6.56,0.21-15,3.24-15.67c1.92,1.21,0.2,3.54,1.31,5.36
		c19.09,4.36,6.95,2.6,14.56-2.93c3.34-0.2,6.98-2.43,11.22-3.44c-1.21-2.33-3.03-2.94-5.06-2.63c-6.63,1.01-5.06-3.12-27,2.73
		c-3.38,0.68-0.57,4.55-3.03,7.28c-0.81-2.02-0.3-3.84-0.1-5.66c-40.17,12.73-31.91,9.3-61.68,6.67c-2.63,5.26,6.08,4.33,14.56,6.98
		C43.04,253.45,36.8,247.16,40.13,254.92z M43.97,245.01c6.92,0,9.07,4.78,35.49-0.51c17.99-3.6,28.65-13.25,46.92-11.43
		c14.36,1.43,13.1,3.92,22.04,1.92c2.23-0.5,4.35-1.01,6.47-1.11c1.72-1.62,1.42-3.24,2.22-4.35c-3.81,0.63-3.77,1.13-4.15,0
		c2.73-1.62,6.98-1.92,6.17-6.78c-1.72-0.2-3.54,0-5.56,0.4c-0.3-2.53,3.64-2.33,2.33-5.16c1.82,0.51,0.61,2.22,1.82,2.83
		c2.53-0.4,3.44-1.92,2.73-4.55c-1.52-1.42-3.94-1.01-5.36-2.83c-0.51-1.21,0.4-2.12,0.71-3.24c2.02,0.61,0.4,2.22,1.11,3.13
		c1.31,0.2,2.73,0.3,4.35,0.51c3.06-4.78-6.28-5.54-8.09-7.08c2.83-0.61,3.54-2.43,2.93-5.16c-5.27-2.96-5.85-1.51-7.58,0.81
		c0.81,1.62,2.93,1.92,3.34,3.74c-4.85-0.81-5.66-2.93-2.63-7.48c2.12-0.81,5.56,0.61,6.27-3.44c-2.12,0-4.35,0.51-6.17-0.81
		c-0.41-0.41-9.7,2.58-12.24,7.38c-4.36,8.26-13.32,14.66-25.79,14.97c-20.68,0.51-10.31,3.97-26.09-0.4
		c-22.05-6.12-14.72-5.54-32.86-7.08c2.63-1.92,5.26-1.52,7.99-1.72c-0.51-9.3-2.83-18.2-2.12-27.61c1.42-1.72,2.73-3.74,3.84-5.97
		c0.2,2.22-0.2,4.35-1.31,6.37c5.56,2.22,11.22,3.74,16.08,8.19c0.71-5.66-0.1-10.82-1.31-15.77c-3.12-12.72-5.56-13.48-28.01-34.99
		c-2.94-2.82-6.57-4.75-10.31-6.88c-3.44,3.34-7.22,6.3-9.4,10.82c-2.82,5.84-6,4.18-9.81,12.74c-2.24,5.03,0.93,4.86-0.1,7.38
		c-3.64,8.93-0.11,27.53,3.03,36.71c2.02,5.9,8.71,7.3,8.71,9.62c-2.78,0.44-4.59-1.44-6.99-3.04
		c3.32,16.91,10.93,21.98,14.76,34.89C38.33,243.18,40.43,245.01,43.97,245.01z M65.91,341.38c-2.53-0.88-4.26,3.89-15.77-1.52
		c-4.78-2.24-16.59-2.07-24.07-4.75c1.78-1.04,5.3,0.89,15.67,1.72c11.41,0.91,12.56,5.22,21.13,3.34
		c-6.07-3.74-12.64-5.97-17.6-11.33c-3.54,0.3-7.38-0.51-11.33-1.11c2.53-1.82,5.46-0.71,8.29-0.61c-2.18-4.67-6.43-1.22-34.79,0.1
		c0.71,5.06,0.1,9.3,1.52,13.25c2.31,1.81,10.67-1.45,17.8,1.21c8.12,3.03,25.58,2.43,46.52,2.43
		C70.87,343.2,68.45,342.26,65.91,341.38z M387.18,228.63c-17.05-1.62-10.67-7.24-14.16,7.48c-3.02,12.73-11.39,29.77-12.24,46.11
		c-0.29,5.66-3.03,10.72-4.65,16.28c3.84,1.62,7.79,2.93,12.13,3.03c1.11-4.04,1.55-7.98,2.33-11.83
		C374.62,269.78,389.04,236.57,387.18,228.63z M425.6,309.02c-24.7-12.35-21.1-11.2-52.48-18.71c-1.92,3.54-1.31,7.89-2.53,11.53
		c-5.26,2.63-13.85,0.2-16.38-4.55c0.51-2.93,1.72-5.66,2.83-8.6c-15.41-2.42-21.11,0.48-37.41-1.92
		c-7.58-1.12-14.86,0.71-22.25,2.63c16.39,12.39,46.25,19.42,66.44,22.25c6.57,0.92,12.74,3.31,19.31,3.94
		c16.3,1.57,42.47,1.62,49.55-1.92C430.76,311.04,428.03,310.23,425.6,309.02z M213.45,411.35c-5.97-2.63-12.34-3.24-17.6-6.67
		C192.75,415.11,207.6,415.33,213.45,411.35z M193.33,399.22c6.98,6.47,15.98,7.18,24.67,9.2c2.89-10.13-6.89-13.27-0.61-57.23
		c-2.63-0.91-5.16,0.61-7.79,0.1c-2.02,2.53-2.73,5.86-5.46,8.49c0.2-3.03,0.4-5.66,0.61-8.49
		C171.75,353.95,192.55,337.47,193.33,399.22z M185.44,406.9c4.55-2.93,5.87-6.88,5.87-11.83c0-14.76-3.13-29.02-6.88-43.18
		c-1.01-0.1-1.92-0.1-3.03-0.2C183.38,363.79,177.96,389.45,185.44,406.9z M181.09,348.86c3.74,2.24,52.37-0.75,58.25-1.31
		c6.42-0.62,45.46,1.42,64.21-0.2c67.56-5.83,50.64,6.93,58.04-10.72c-0.71-0.81-1.72-1.03-2.53-1.01
		c-7.69,0.15-14.86-2.25-22.25-3.84c-13.33-2.88-51.31,2.7-70.18,0.1c-8.03-1.11-41.13,0.97-43.38,1.31
		c-13.22,2.02-38.42,0.71-38.53,0.71C179.94,334.01,181.09,331.99,181.09,348.86z M176.74,282.73c0.71-0.2,1.21-0.71,1.62-1.31
		c-0.4-1.21-1.62,0.51-2.02-0.71c0.51-1.31,2.93-1.72,2.02-3.94C175.12,278.48,174.52,280.4,176.74,282.73z M172.5,278.58
		c1.31-0.3,1.21-1.52,1.92-2.63c-1.52,0.2-2.33,0.61-2.83,1.62C171.89,277.87,172.19,278.18,172.5,278.58z M204.15,454.94
		c-1.52,0.71-2.63,1.21-3.84,1.72C201.92,457.06,203.24,457.06,204.15,454.94z M200.61,450.08c-0.91-0.2-1.01,0.3-1.11,0.91
		C200.51,451.3,200.91,451.09,200.61,450.08z M188.57,448.46c3.84,1.11,7.69-1.01,11.53-0.1c0.3-1.11,0-2.12-0.81-3.03
		C195.65,446.44,192.11,447.45,188.57,448.46z M162.69,427.94c-0.61,0.4-1.11,0.71-1.62,1.01c1.52,4.65,5.56,6.07,13.35,4.35
		c-3.34-1.31-6.47-2.12-8.6-4.55C165.06,428.59,163.12,431.37,162.69,427.94z M143.37,316c-2.53-0.4-2.53-0.4-3.44,1.62
		C142.46,317.92,142.46,317.92,143.37,316z M139.53,321.96c-0.4,2.83-0.2,5.56,0.3,8.29C145,318.2,140.99,321.67,139.53,321.96z
		 M96.15,389.61c4.55,11.84,18.75,18.96,25.99,31.75c4.41,7.8,9.91,14.46,16.18,21.64c1.21-6.67,6.17-9,11.22-11.22
		c1.11-3.54,3.83-5.97,5.36-9.3c1.21-2.63,4.75-3.44,7.79-4.45c0.26-7.9-7.39-23.17-9.71-29.83c-4.82-13.87-3.59-18.94-6.67-21.84
		c-7.02-6.6-5.93-15.4-7.48-20.83c-1.75,12.89-11.01,23.83-6.88,27.5c-4.93,0.68-5.61-0.75-18-14.06
		c-3.34-3.59,1.76-5.02-34.79-1.92c2.93,3.54,4.56,7.17,7.18,10.31c28.66,34.43,24.12,29.46,39.44,50.26
		c5.35,7.26,11.84,8.36,12.03,14.16c-25.55-24.15-10.09-11.17-38.53-45.1c-29.21-34.86-18.41-29.18-31.25-30.03
		C78.82,372.71,95.7,387.82,96.15,389.61z"/>
	<path d="M181.19,453.22c0,0.04-0.06,0.07-0.1,0.1L181.19,453.22z"/>
	<path d="M530.26,291.83l-0.1-0.1C530.61,291.73,530.69,291.68,530.26,291.83z"/>
	<path d="M490.12,477.28c13.4-4.97,31.71-15.1,38.53-27.81c7.32-13.65,1.35-15.05-19.21-92.73c-4.45-1.01-8.7-2.02-12.94-2.93
		c-2.02-3.54,1.31-6.57,1.11-9.71c-6.88-4.45-16.08-2.73-22.35-8.6c0.71-2.33,0.79-4.55,0.4-6.88c-2.1-12.58,18.1-10.46,25.48-15.77
		c-0.2-5.66,0.5-11.22,0.61-16.89c0.1-5.36,1.21-10.82,4.35-14.97c6.03-7.96,6.39-26.61,7.48-31.55
		c3.39-15.34-7.28-12.57-10.01-49.95c-2.88-39.31,3.4-34.32,3.03-42.57c-0.11-2.53,2.02-5.16,4.15-6.47
		c6.06-3.75,10.54-9.18,15.47-14.06c2.03-2.01,5.05-3.15,7.58-4.65c8.93-5.27,3.25-11.65,3.24-13.04
		c-0.05-5.76-3.03-10.92-3.44-16.68c-0.51-3.58-4.93-7.57,0-26.8c-0.81-0.81-1.92,0.81-2.63-0.61c1.11-2.33,3.74-3.13,5.66-5.26
		c-4.45-1.31,0.91-3.44-0.81-5.06c1.52-0.71,3.03,0.3,4.45-0.3c0-1.21-1.52-1.52-1.42-2.93c0.91,0.4,1.62,0.81,2.33,1.11
		c0.4-0.51,0-1.63,1.42-1.52c1.11,0.09,1.42,1.52,2.43,2.22c1.52-2.93,4.85-2.23,6.98-3.84c7.29-5.51,23.52,4.47,32.36,0.2
		c1.74,1.74-2.72,2.31-4.15,3.94c3.64,0.71,5.06-2.22,6.88-3.84c1.42,0.61,0.1,1.62,0.3,1.82c4.35,2.53,7.69-1.52,11.53-0.71
		c0.71,3.03-2.83,3.54-3.44,5.56c0.91,0.4,1.72-1.21,2.73,0.1c-1.01,2.43-3.64,3.13-5.26,4.65c0.61,1.31,2.12,1.62,2.93,2.83
		c-1.11,1.52-2.33,2.43-4.15,2.02c0-1.11,1.62-0.61,1.31-1.92c-1.62,0.4-3.13,0.91-4.85,1.92c4.28,18.54,6.9,11.94,3.54,18
		c0.66,3.45,5.53,10.9,5.26,14.16c-1.01,2.02-3.44,1.01-4.45,2.73c-0.3,1.31,0.8,2.63,0.2,4.15c-4.67,11.83-0.19,18.19-9.71,17.6
		c-3.51-0.22-7.61-1.21-7.99,1.82c-0.55,4.44-2.52,8.48-3.13,12.94c-0.24,1.71,0.4,3.64-0.61,5.36c-3.77-2.83,1.29-12.68,2.22-19.01
		c0.59-3.97,5.41-2.7,10.11-2.93c7.37-0.36,3.74-7.75,3.74-8.49c0-2.02,3.13-2.43,2.43-4.75c-1.82-1.42-3.94,1.42-5.86-0.61
		c2.12-2.22,5.16-1.11,7.28-2.43c0.51-1.82-1.42-3.34,0-5.16c-1.72-0.1-3.34,0.3-3.54-1.82c2.53,0.2,4.95-0.2,7.48,0.71
		c0.9-5.1-8.44-13-3.74-17.29c-2.53-5.06-3.64-10.42-5.97-15.57c-4.65,1.01-9.4-1.52-13.75,1.31c1.01,2.43-0.7,3.85-2.12,5.26
		c-10.25,10.11-8.38,15.51-11.02,22.35c-1.62-4.25-0.4-9.71-5.66-12.34c-2.43,3.64,2.12,7.99-0.81,11.93
		c-2.12-1.52-3.03-3.24-2.93-5.06c0.51-1.62,3.44-2.33,0.91-4.45c-0.61,1.52-2.33,1.11-3.64,2.12c1.92,1.52,2.22,3.13,0.51,4.65
		c2.12,3.44,2.12,3.44,5.97,4.95c1.31,0.2,1.11-2.02,2.63-0.91c-2.21,10.37,5.92,11.13,6.78,15.67
		c-14.51-9.15-3.35-11.96-13.55-14.36c-1.31,1.01-2.02,2.53-2.43,4.15c0.3,1.21,1.92,1.92,1.52,3.34c-0.71,1.31-2.22,0-2.93,1.11
		c0.1,1.21-0.82,2.12-0.71,3.44c0.28,3.24-0.3,4.04-3.64,5.26c0,7.94-1.93,4.93-3.74,8.41c1.41,0.1,2.39,1.21,3.54,1.9
		c11.14,6.68,13.94,19.47,21.13,18.91c1.21-0.09,2.63-0.1,3.44,1.42c-1.92,0.71-3.74-0.2-5.97-0.1
		c15.07,19.46,15.92,21.88,20.33,19.92c-0.71-2.12-1.42-4.04-2.33-6.37c1.72,1.31,2.02,3.13,3.54,4.04c3.34-6.98,0-12.64-3.84-15.98
		c1.72-3.74-4.55-3.44-3.64-7.08c14.6,9.73,12.99,5.1,21.44,11.43c6.2,4.64,5.69,9.27,8.9,17.29c5,12.52-5.25,15.8,0,25.99
		c2.36,4.58,5.68,18.35,2.22,22.95c0.1-8.8-1.31-17.39-5.26-25.58c-4.55,9.91-8.49,19.82-7.89,31.25c0.81,0.71,2.33,1.52,1.82,3.44
		c-0.91,0.4-0.91-1.31-2.02-0.71c-0.61,2.93-1.01,5.97-3.24,8.8c10.52,2.93,20.93,4.15,31.55,5.66c2.02-2.63,5.76-4.15,6.27-8.19
		l-0.1,0.1c2.53-4.25,7.58-5.06,11.43-7.99c3.44,0.51,7.18,0.71,10.72,0.71c1.42,2.63,0,4.35-1.11,5.97
		c4.25,1.92,1.92,4.95,1.52,7.79c1.11,0.4,2.22,0.81,3.44,1.31c2.22-3.24,5.84-4.98,8.29-7.99c2.4-2.95,3.64-6.67,6.57-9.61
		c2.33,1.31,4.35-1.52,6.67-0.51c2.02,2.02,0.3,3.94,0.3,6.07c4.25,2.22,0.51,5.97,1.31,9c2.33,0.71,4.63,1.42,4.95,4.15
		c0.19,1.62-0.2,3.24-2.12,4.04c-1.14-2.61,3.75-4.14-3.84-6.67c-0.61,0.91,0.4,2.12-0.71,2.73c-3.85,2.11-8.6,0.1-12.44,2.83
		c4.04,1.52,8.39,1.72,11.53,3.54c2.02,0,3.13-1.52,5.36-1.21c-5.41,4.06-4.03,3.02-18.1-0.91c-0.71-0.2-1.11,0.1-1.92,0.61
		c0.81,0.81-0.2,1.82,0.1,2.83c7.58,6.67,17.9,6.67,21.84,0.2c0-1.11-1.72-1.52-1.01-2.83c5.33,3.08-0.15,4.58,0.4,9.2
		c0.84,6.94-12.11,8.46-23.56,0.51c0.2-1.52,0.3-2.73,1.62-3.13c1.01,1.01-0.61,2.02,0.3,2.93c9.4,6.05,21.9,5.32,19.72-1.21
		c-3.84-0.1-7.7,1.96-11.33,0.51c-3.45-1.38-7.79-1.82-9.61-6.17c0.1-3.64,2.53-5.76,5.56-7.28c0.61-3.03,1.2-5.97,1.82-8.9
		c1.74-8.21,6.78-2.33,9.3-7.38c-0.4-0.71-0.4-1.72-1.52-2.12c-1.11,1.42-2.83,1.21-4.75,1.52c-3.34,6.57-7.99,12.24-14.26,16.79
		c3.97,5.71-3.53,10.52-1.21,16.48c1.62,0.91,3.64,2.52,5.16,1.92c2.83-1.12,3.84,0.5,5.16,2.12c3.44,4.24,8.24,4.71,12.44,1.21
		c0.72-0.6,1.21-1.82,2.63-1.31c0,1.42-1.42,1.92-1.72,3.03c0.2,1.11,1.92,0.61,2.02,1.92c-1.21,2.93-1.19,6.27-1.82,9.4
		c-0.98,4.87-2.62,2.79-20.73,8.8c-33.92,11.26-38.78,3.29-36.61,5.46c-1.03-0.51,1.21,0.81,0.1,1.92
		c-1.62,1.62-2.93,3.74-5.36,4.65c1-2.71,2.41-5.13,4.9-6.74c-3.19-1.49-7.14-0.72-10.06-2.76c-0.1-0.71,1.11-1.01,0.4-1.92
		c-0.91,0.2-1.72,0.8-2.43,0.71c-6.53-0.83-3.44,5.58-7.89,13.25c-1.75,3.02,0.82,8.16,4.15,9.1c13.52,3.81,15.83,6.94,12.74,6.17
		c-4.65-0.61-8.9-2.63-13.35-4.04c-5.06-1.61-7.38-8.8-4.35-13.35c6.55-9.83-10.95-6.75-31.85-5.97c24.12-5.54,22.38-0.1,11.53-7.79
		c-1.62,0.71-4.35,0.5-4.95,1.42c-1.33,2.01-2.43,1.92-4.55,1.11c6.31-2.84-1.5-3.14-5.03-2.21c0.17,0.09,0.35,0.24,0.58,0.5
		c-21.28,12.12-18.88,10.11-2.39-0.16c-6.91,0.92-13.28,3.36-19.46,6.63c3.94-4.35,9.51-5.76,15.07-7.79
		c-6.78-1.42-6.75-1.27-11.83,1.31c-10.64,5.43-18.27,7.53-29.83,13.95c-0.3,0.1-0.71,0.1-0.91-0.4
		c10.01-6.67,21.84-9.71,32.16-15.67c-5.23-0.69-10.26,0.54-15.39,0.51c6.19-2.53,12.85-3.1,19.03-1.62
		c8.09,1.93,16.28-0.61,24.17,2.12c0.4,0.1,1.01-0.1,1.42-0.3c3.97-1.63,5.21,3.24,10.42,3.24c-1.11-4.35,2.12-9.3-3.13-12.64
		c-1.01,1.52-2.02,2.83-0.71,5.16c-4.35-1.11-7.99,2.83-12.03,0.2c-0.4-0.81,0.91-1.82-0.4-2.53c-1.62-0.2-0.91,2.43-2.93,2.12
		c0-0.91,0.81-2.53-1.21-2.63c-1.42,0.4-1.21,2.83-3.13,2.73c-0.2-1.21,1.11-1.92,0.61-3.24c-7.55-2.39-6.37,0.83-6.37,2.02
		c-2.83,0.61-5.36-0.1-7.38-1.42c-0.51-1.31,1.11-1.31,0.91-2.02c-8.8-3.13-17.8-4.25-27-4.85c0.71,1.31,2.12,2.43,0.51,4.35
		c-2.12-1.31-4.55-0.61-6.88-0.71s-2.83-3.54-6.37-2.53c-8.4,8.57-7.92,21.35-7.28,39.23c0.77,21.43,63.25,32.84,75.54,39.64
		c5.06,5.97,10.21,9.81,14.26,14.86c6.28-6.56,12.99-21.65,13.45-22.15c7.02-7.54,12.74-16.08,19.11-24.17
		c-2.22-0.61-4.65-0.3-6.37-2.33c3.06-2.5,0.92,4.6,18.2-4.04c10.03-5.02,10-1.47,26.79-4.63c-0.03,1.57-2.22,1.33-2.62,2.71
		c12.98,0,4.68,14.41-1.82,11.73c-1.81-0.74-2.53,0.3-3.84,0.71c1.31,5.06-1.52,9.4-2.22,14.26c1.21-0.1,1.82-1.92,3.03-0.61
		c1.05,1.84-1.75,0.82-3.03,8.09c-2.26,12.74,0.88,5.85-3.34,20.02c4.35,1.21,8.6,1.92,12.44,3.74c1.92-1.21,2.33-3.64,4.25-4.95
		c0.61,2.22,0,4.04-0.61,6.17c10.66,2.06,8.42,7.46,12.84-14.66c-1.11-0.61-1.42,1.31-2.73,0.4c7.54-23.29,14.44-24.4,10.52-40.85
		c-4.65-3.44-4.65-3.44-4.04-6.37c2.83,3.84,7.05,5.66,7.18,10.92c0.17,7.08-0.84,13.7-5.16,19.62c-6.2,8.48-1.83,9.76-3.94,20.02
		c-2.7,13.12-6.93,12.92-1.21,14.16c2.65,0.57-10.35-2.16,29.73,6.57c36.5,7.95,20.68,7.86,45.61,13.45
		c0.1,0.02,33.87,7.39,34.58,7.48c-4.35-3.03-8.12-6.71-12.74-9.3c-1.94-1.09-3.64-2.43-5.06-4.04
		c-14.35-16.4-14.67-16.19-13.25-18.61c8.19-13.93,8.66-20.7,11.83-20.53c-8.34,23.23-12.7,19.73-7.38,26.19
		c5.3,6.44,10.31,13.15,17.9,17.39c8.87,4.96,27.71,19.93,40.04,23.56c13.3,3.92-6.47,2.1,33.88,15.57
		c5.11,1.71,30.54,9.06,35.19,6.37c4.98-20.54,6.78-20.69,4.25-20.73c-15.43-0.26-43.83-9.36-53.29-15.98
		c-18.85-13.19-46.58-20.3-68.16-50.66c-0.51-0.81-1.42-1.31-1.11-2.53c0.71-0.91,1.82-1.4,2.83-1.31
		c27.96,2.32,15.07,3.45,38.22,9.1c35.13,8.57,9.67,16.59,40.15-29.53c15.65-23.69,12.89-24.66,15.47-27.61
		c5.76,1.42,9.91,5.87,16.18,6.88c-1.62,1.62-2.12,3.14-2.63,4.55c-5.63,15.66-31.06,49.93-33.88,59.96
		c25.28,14.92,27.26,15.61,37.62,26.8c5.25,5.67,12.54,9.61,14.56,18c-5.16,4.02-5.73,24.65-11.73,26.49
		c-30.33-4.11-49.37-12.98-66.05-21.66c-0.73,3.71-3.02,6.82-4.43,9.93c-1.11,1.72-2.82,2-4.75,1.52
		c-3.43-0.85-6.87-1.44-10.11-2.63c-23.43-8.6-54.73-13.02-66.44-18.1c-8.18-3.55-48.3-13.76-66.44-16.99
		c-10.73,17.96-14.49,32.81,6.37,34.28c1.11,1.01,2.13,2.4,3.94,2.63c7.19,0.91,14.46,2.1,21.74,1.92c5.06-0.12,9.4,3.84,9.3,9
		c9.73,2.43,36.79,19.77,45.2,21.94c5.77,1.49,11.03,4.34,16.08,7.69c0.82,0.54,63.3,27.47,63.4,27.5c2.12-1.92,2.33-5.46,5.56-6.27
		c-4.88,13.76-3.19,8.6-38.83-5.66c-52.12-20.86-32.71-16.66-40.25-18.71c-19.83-5.38-42.21-23.9-52.89-24.67
		c-14.82-1.07,0.03-1.49-52.18,6.47c6.37,1.52,12.37,0.4,18.2-1.92c4.95-1.97,0.52,1.74,12.54,0c3-0.43,17.44-3.73,24.47-0.81
		c-10.01-0.4-19.21,0.61-28.62,2.63c6.15,7.78,4.51,3.68-0.51,13.35c1.01,0.4,1.42-1.11,2.33-0.4
		c-5.66,6.67-13.45,11.73-16.68,10.62c1.07-1.83,5.3-2.29,6.07-3.44c3.33-4.96,7.48-9.4,10.11-14.66c-1.53-2.71-6.29-6.05-9-4.95
		c-5.38,2.17-11.02,3.24-16.28,3.74c-1.72,1.21-1.82,3.74-4.25,3.64c-1.01-1.52,2.53-4.35-1.62-4.95c-0.2,3.24-1.72,5.46-4.15,6.98
		c-1.21-0.91,0.1-2.02-0.51-2.83c-1.92,0.61-2.83,3.24-5.56,2.73c-0.4-3.64,2.73-5.56,4.04-8.29c-4.75,2.33-7.28,7.79-13.04,9.51
		c0.45-4.35,3.09-6.14,8.39-10.82c-5.66,0.71-8.9,5.56-14.26,7.48c0-2.22,1.11-3.23,2.02-4.35c6.82-8.36,13.62-5.98,19.42-16.28
		c-4.15,1.42-7.99,0.91-11.22,3.13c-0.1,2.12,0.61,4.55-1.92,5.86c-0.51-2.12,0.3-3.84,0.81-5.56c-0.91-1.62-1.62-3.13-2.93-4.04
		c-7.16,1.67-5.19,8.73-9.3,12.84c-0.61,0.61-0.59,1.61-0.3,2.43c1.69,4.73-0.98,7.72-4.35,10.42c-7.66,6.14-8.47,7.96-14.56,4.25
		c-3.46-2.11-2.9-6.34-5.46-0.2c1.55,4.13,4.45,5.24,4.45,13.65c0,5.36,2.02,10.52,2.02,15.27c14.06,2.43,24.27-6.07,36.2-10.62
		c2.07,4.38,1.61,13.72,4.45,12.84c16.58-5.13,21.38,0.44,26.09-4.55c5.35-5.67,12.43-9.54,16.79-16.18
		c0.72-1.1,1.72-2.33,4.25-1.31c-7.18,6.57-14.06,12.94-21.24,19.52c38.72,9.11,145.39,18.79,150.06,22.45
		c1.52-2.12,2.02-4.75,4.25-6.17c2.32,2.32-9.99,17.46-10.11,18.81c-0.38,4.14-1.31,8.29-0.91,12.74c23.26,1.72,25.4,1.7,25.99-1.52
		c-1.1,1.1,7.74-8.35,14.36-22.85c6.65-14.55,7.44-16.78,5.97-21.34c-8.85,17.23-6.35,11.22,0.1-4.15
		c-7.89-1.72-15.17-2.02-22.85-2.02c3.44-3.24,18.51-2.53,25.08,0.91c-0.24,5.6,2.29,7.28,0.3,12.13
		c-6.66,16.24-22.51,42.21-23.16,42.37c-9.51-0.51-18.71-1.01-27.81-1.52c-1.21-5.66,1.01-10.92,0.71-16.18
		c2.93-2.93,4.85-6.17,7.08-9.51c-0.81-0.3-1.42-0.71-1.92-0.61c-8.85,2.26-15.01-4.67-53.19-7.28
		c-35.29-2.41-89.96-12.07-95.96-15.07c-6.36,2.78-2.83-1.13-21.24,2.02c-5.87,1-5.87,1.01-7.58-4.75c0-1.1-0.92-0.72-7.58-2.43
		c-6.73-1.72-5.7,5.28-16.18,6.07c-14.16,1.07-14.36,0.74-15.17-0.71c3.26-11-3.11-7.62-10.92-9.71
		c-19.04-5.08-33.18-1.99-57.54-7.38c-11.58-2.56-8.35-3.75-20.83,3.94c-33.89,20.87-29.13,20.68-31.25,20.12
		c-5.86-1.54-11.93-2.12-18.71-3.13c-0.2-6.27,2.73-11.73,3.54-17.7C476.06,484.87,482.53,480.1,490.12,477.28z M592.75,68.05
		c-1.42-0.61-2.02,0.81-3.13,1.11C590.83,69.36,591.84,68.86,592.75,68.05z M587.29,65.92c0.2-0.51-0.37-0.78-0.81,0.1
		C586.79,66.33,587.09,66.33,587.29,65.92z M585.88,73.41c-1.01-0.61-1.82-0.3-3.03,0.3C584.16,74.01,585.07,73.91,585.88,73.41z
		 M578.9,69.16c-1.21-0.4-1.62,0.2-2.02,0.81C577.79,70.47,578.4,69.97,578.9,69.16z M575.97,64.51c1.35-0.34,0.38-2-0.71-0.91
		C575.16,64.2,575.36,64.51,575.97,64.51z M565.45,63.6c-1.31-0.4-2.02-0.2-2.73,0.81C563.93,64.91,564.34,64.1,565.45,63.6z
		 M559.79,75.13c2.84-0.85,1.41-3.68-0.81-2.12C558.78,73.91,559.38,74.32,559.79,75.13z M555.95,72.4c0.3-0.51-0.1-0.81-0.61-1.01
		C553.59,73.13,555.46,73.6,555.95,72.4z M550.79,83.01c0.78,0,0.28-1.2-0.3-0.91c0,0.1-0.1,0.4-0.2,0.61
		C550.49,82.81,550.69,83.11,550.79,83.01z M543.81,67.14c0.81,0.4,1.21-0.71,1.82-0.4C544.62,65.32,544.32,66.53,543.81,67.14z
		 M545.82,68.14c-0.1,0.13-0.12,0.09-0.01,0.19c0.26-0.38,0.53-0.79,0.83-1.3C545.39,66.62,545.75,66.17,545.82,68.14z
		 M548.97,69.16c-1.21,0.2-1.42,1.21-2.12,2.12c1.31,0.2,2.34,0.81,2.93-0.51C550.19,69.87,549.37,69.56,548.97,69.16z
		 M548.16,93.63c-1.11-0.2-1.21,0.3-1.62,0.81C547.45,94.95,547.65,94.34,548.16,93.63z M544.72,104.86
		c0.38,0.77,1.31-0.51,0.2-0.51C544.82,104.45,544.62,104.75,544.72,104.86z M544.42,95.35c2.12-4.25,1.23-3.54,5.36-3.54
		C547.76,90.62,543.59,91.6,544.42,95.35z M545.8,68.35c-1.49-0.28-2.2,0.92-3.51,1.52C543.74,70.56,544.61,70.08,545.8,68.35z
		 M541.18,69.46c-0.81,0.2-1.31,0.4-1.01,1.21C540.98,70.88,541.18,70.47,541.18,69.46z M539.46,116.48
		c0.71-0.61,1.01-1.21,0.61-2.43C538.86,114.77,538.76,115.47,539.46,116.48z M538.86,79.07c-1.21,0.81-0.51,1.21-0.2,1.82
		C539.56,80.18,539.16,79.68,538.86,79.07z M673.75,239.35c-3.34-1.62-4.85-1.42-7.58,1.11c-0.2,3.03-0.61,6.07-1.82,8.9
		c5.06,1.92,9.52-0.5,9-6.17C673.23,241.88,674.06,240.66,673.75,239.35z M514.28,241.17c2.33,0.2,4.35,0.61,6.78,1.62
		c-2.22,1.11-4.15-0.1-5.97,0.4c0,1.01,0,2.02,0,3.24c3.24,0.91,6.57,1.31,10.11,1.42c-6.8-31.06-13.95-25.31-16.28-39.54
		C506.99,196.53,498.33,193.31,514.28,241.17z M507.91,199.71c1.82-4.55-2.43-6.17-3.54-9.2
		C503.67,194.25,505.99,196.77,507.91,199.71z M601.96,179.58c-2.66-10.95-5.29-14.1-11.53-19.42c-2.3-1.96-5.46-2.02-8.29-3.03
		c3.94,7.99,6.98,16.18,12.84,23.76c-0.38-9.96-2.4-8.13-2.22-11.83c3.01,1.37,3.21,3.82,7.38,20.83
		C603.27,186.76,602.79,183.02,601.96,179.58z M590.13,226.3c-0.55-15.08,10.96-24.32,6.57-40.85c-1.81-6.83-0.98,1.57-9.2-13.15
		c-3.64-6.51-4.32-12.31-4.25-4.65c0.05,5.56-1.92,8.07-7.38,8.49c-7.58,0.58-18.72-27.53-37.62-41.36c-4.18-1.88,0.64-4.4-4.95-0.2
		c7.55,6.23,28.1,30.57,30.13,40.15c1.81,8.5,2.53,17.09-0.61,25.18c0.45,1.91,6.54,4.4-1.01,3.24c-1.82,2.73-4.35,4.65-7.58,5.66
		c0.33,6.98-4.66,20.22,6.27,22.55c9.33,1.99,13.3,6.7,26.29,11.43C589.01,237.43,590.33,232.07,590.13,226.3z M560.09,201.83
		c-7.75-0.86-8.18-8.3-5.87,4.65C556.35,204.86,558.47,204.06,560.09,201.83z M651.81,255.12c2.5-6.25-4.79-4.94-7.69-7.99
		c3.24-0.3,3.94-2.12,3.44-4.85c-5.41-3.04-5.53-1.84-7.58,0.51c0.81,1.62,2.83,2.12,3.34,3.84c-5.06-0.81-5.76-3.24-2.22-7.58
		c2.12-0.81,5.56,1.01,6.27-3.24c-2.02-0.1-3.94,0.4-5.66-0.81c-1.15-0.92-10.87,2.44-13.15,6.88c-3.5,6.84-8.1,10.74-16.58,8.49
		c-9.12-2.41-27.48-4.59-46.01-15.17c-5.82-3.32-14.79-1.47-14.16-12.84c1.05-18.82-3.35-34.59-3.84-35.19
		c1.42-3.94,3.74-7.18,4.95-10.92c0.61,3.94-0.3,7.48-3.03,10.62c0.4,1.31,0.71,2.63,1.11,3.94c4.04,1.82,7.38,4.45,10.52,8.09
		c2.06-7.46,2.29-23.75-2.33-29.93c-22.07-29.55-17.06-24.69-27.4-33.37c-4.04,2.73-8.17,5.07-11.02,9.1
		c-4.06,5.74-8.25,3.51-13.25,13.75c2.08,5.93-2.52,3.79-2.83,17.49c-0.42,18.24,4.82,9.59,6.78,31.65
		c0.93,10.55,9.8,11.97,14.86,34.99c2.98,13.56,2.75,14.65,5.97,15.67c60.42,19.17,40.11,4.8,83.02,9.81
		c2.63,0.31,4.65,1.93,6.67,3.34c9.51,6.62,17.22,2.63,23.06,2.63c1.01-1.01,1.42-2.02,1.31-3.13c-0.91-1.01-2.12,0.3-3.03-0.51
		c-0.39-0.79,0.55-0.81,0.79-1.27c-0.67-1.49-0.26-2.69,0.73-4.39c1.21,2.22-0.4,3.13-0.71,4.45c4.25-0.81,4.65-1.11,5.46-5.46
		c-1.82-0.71-3.64-0.3-5.66,0.1c0-2.53,3.64-2.43,2.73-5.16c1.92,0.61,0.3,2.22,1.52,2.93c2.43-0.3,3.64-1.72,3.03-4.35
		c-1.52-1.52-3.94-1.31-5.26-3.03c-0.51-1.21,0.61-2.12,0.71-3.24c2.12,0.61,0.51,2.12,1.11,3.13
		C648.98,254.82,650.6,254.31,651.81,255.12z M650.6,267.56c-5.65,4.52-1.32,0.52-3.34,6.57c3.34-1.11,7.18,0.61,10.21-3.24
		C654.34,270.59,652.62,268.97,650.6,267.56z M658.58,270.29c-1.01,1.42-0.61,2.53-0.2,3.74c1.82,1.01,3.94,0.61,5.97,1.11
		C662.22,273.73,661.21,271,658.58,270.29z M639.07,276.96c-2.33,0.5-4.04-0.71-6.17-0.3c-1.52,0.51-3.13,0.2-4.65,0.2
		c3.13,3.13,6.47,3.94,10.21,1.01c1.21,2.63-0.71,3.84-1.92,3.74c-4.15-0.1-8.7,1.52-11.93-2.73c-2.83,0.51-5.06,2.33-7.99,2.63
		c4.85,0.61,9.2,3,14.36,2.22c11.21-1.69,22.15-5.26,33.47-5.87C666.24,277.87,659.88,272.5,639.07,276.96z M669,276.26
		c2.12,1.01,3.24-0.61,4.75-0.3C672.24,274.44,670.92,275.14,669,276.26z M673.35,286.87c1.52-2.93,1.31-6.27,1.82-9.3
		c-15.67,2.73-31.04,5.46-46.41,8.19c-0.81,4.35-0.4,8.7-1.92,12.84C643.11,297.59,657.78,290.61,673.35,286.87z M625.01,298.3
		c2.02-3.94,1.82-7.89,2.02-11.93c-4.35-1.72-8.7-2.02-13.15-3.03c-1.21,4.15-2.33,8.19-3.54,12.34
		C615.3,296.58,620.06,297.39,625.01,298.3z M587.09,296.78c1.52,0.51,2.93-0.1,4.55-0.2C585.91,284.71,587.09,283.55,587.09,296.78
		z M552.2,284.65c1.62,0.3,1.82-0.71,2.22-1.72C552.31,282.42,552.1,283.33,552.2,284.65z M519.64,279.39
		c1.01-0.61,1.21-1.31,1.11-2.43C519.34,277.37,519.04,278.08,519.64,279.39z M517.32,279.09c0.61-1.31,0.3-2.22-1.31-2.93
		C515.7,278.68,515.7,278.68,517.32,279.09z M522.27,275.55c5.81,0.34,3.29-1.93,13.15-2.22c-2.33,2.02-4.95,1.42-6.88,2.63
		c0.1,0.2,0.2,0.61,0.3,0.61c10.92-0.05,21.44,3.82,32.36,4.25c4.29,0.17,9.84,4.46,13.04,1.62c0.91,0.4,0.4,1.01,0.81,1.42
		c7.12,1.53,3.09-6.96,8.63-13.86c2.06,0-0.52,10.43-0.54,10.53c5.76,4.15,10.11,9.4,11.33,17.09c1.31,0.4,2.73,1.11,4.15,2.02
		c1.21-3.64,2.12-7.18,0.61-11.22c2.63,1.21,1.52,3.34,2.43,4.75c2.63,0.71,5.16,0.3,7.58-1.01c0.91-1.21,1.01-2.63,1.21-4.45
		c-7.69-1.42-14.66-5.86-22.95-4.95c0.69-5.85,17.62,3.13,23.56,3.13c0.61-2.02,1.42-4.04,3.13-5.66c4.04,0.2,7.69-2.12,11.83-3.03
		c-0.91-2.22-2.93-2.22-4.25-3.24c-4.05-3.13-8.7-4.19-13.75-4.25c-43.55-0.46-37.9,4.42-78.57-10.72c-3.82-1.42-1.81-5.13-3.74-9.2
		c-3.64-0.51-6.98-1.01-10.42-2.33c-1.82,6.17-1.11,12.24-1.11,18.3c0.2,1.11-1.01-0.2-1.21,0.4c-1.21,2.53-0.71,5.16-1.62,7.48
		C515.19,273.53,518.53,275.33,522.27,275.55z M660.3,328.43c3.74-0.91,5.56-4.15,4.35-8.09
		C660.71,321.66,659.49,323.98,660.3,328.43z M880.24,313.97c-11.33-5.51-11.17-7.6-11.73-5.36c-7.55,20.27-17.18,25.18-30.94,57.74
		c-2.43,5.76-6.27,10.72-9.61,16.28c10.49,8.02,10.47,7.48,12.13,4.15C852.24,357.74,878.62,325.34,880.24,313.97z M894.5,416.71
		c-25.85-29.66-24.4-22.54-47.43-38.63c-2.73,3.94-3.84,8.6-6.17,12.54c-5.76,1.01-13.04-3.74-14.36-9.51
		c1.62-3.34,3.54-6.07,5.56-9.1c-12.68-6.45-19.49-5.25-36.4-12.94c-6.59-3-13.85-2.93-20.83-3.13
		c-4.65,7.56,70.88,63.23,121.75,65.02C896.52,419.04,895.54,417.9,894.5,416.71z M641.49,496.9c1.01-1.01,0.61-2.02,0.3-3.24
		c-1.42,0.61-2.83,1.21-4.55,1.92C638.87,496.6,640.38,496.09,641.49,496.9z M553.01,352.5c-0.15-2.2-18.41-5.63-32.46-13.75
		c-14.81-8.57-5.09-4.25-13.25-9.51c-9.48-6.11-6.31-11.72-6.98-13.04c-0.9-0.9,2.94-1.4-19.11,5.46c-7.07,2.2-4.17,6.86-5.16,13.75
		c2.53,2.43,5.96,3.25,9.1,3.84c8.18,1.55,15.87,4.48,23.86,6.37c4.06,0.96,33.27,5.96,41.16,9.51c2.3,0.77,10.66,0.22,14.97,0.4
		C561.31,353.92,557.56,352.3,553.01,352.5z M578.5,361.2c-3.78-4.43-9.88-5.51-12.94-3.94c-5.92,3.03-60.16-10.74-65.83-12.24
		c-1.52,2.53-2.22,5.06-2.93,7.89c15.37,2.83,30.34,6.56,45.71,8.29c21.9,2.47,43.38,11.7,47.02,11.53
		C586.08,368.28,581.85,365.12,578.5,361.2z M545.23,363.83c13.36,12.98,36.43,44.29,45.2,56.12c2.31,3.12-0.74-0.48,14.66,14.46
		c-3.05-32.05-9.45-38.44-1.42-54.5C584.36,374.55,565.55,367.87,545.23,363.83z M604.59,377.68c2.83-5.06,4.85-10.21,6.37-15.67
		c-3.44,5.86-7.48,10.72-14.66,12.13C596.64,375.19,595.18,374.54,604.59,377.68z M595.99,372.12c9.79-4.13,6.72-3.26,14.97-14.26
		C600.43,355.95,607.35,358.21,595.99,372.12z M658.69,320.04c-1.62,0.91-2.02,1.92-1.82,3.34
		C658.08,322.77,658.48,321.66,658.69,320.04z M656.97,327.42c0.4-1.42-0.51-1.62-1.52-2.02
		C654.94,327.42,655.75,327.62,656.97,327.42z M648.17,318.73c2.02,1.72,4.04,2.22,5.26,4.35
		C655.04,317.6,656.8,318.73,648.17,318.73z M708.13,406.5c6.91,1.42-4.38,1.89,106.58,29.63c3.42-3.26,5.04-9.36,7.35-9.59
		c-14.99-7.81-28.09-15.46-45.78-19.34c-25.9-5.68-35.91-7.42-44.59-12.03c-7.45-3.96-67.55-16.47-67.65-16.48
		c-2.27-0.33-0.35-1.71-14.86-5.06c-1.42,5.86-2.73,11.53-4.25,17.6C661.34,396.49,645.54,393.66,708.13,406.5z M643.21,453.02
		c4.95,3.54,10.31,2.59,15.57,1.52c7.77-1.58,15.57-2.22,23.36-4.04c0.1-0.02,19.93-4.65,26.19-3.44c0.61-3.94-3.64-3.44-4.25-5.86
		c-5.46-0.1-10.42,0.2-15.37-0.91c-0.91,1.42-1.31,3.84-3.84,2.73c-0.61-1.21,1.11-1.72,0.61-3.03c-2.83-1.42-1.82,3.44-3.44,2.93
		c-1.72-0.3-0.81-1.52-1.52-2.12c-1.72,0.71-2.73,3.24-5.16,1.82c-0.51-2.12,1.92-2.63,2.33-4.25c-2.03-2.84-5.42,7.11-10.11,4.35
		c-0.3-2.93,2.43-3.84,3.84-5.66c-3.88-2.28-0.76,1.63-8.9,3.74c0.4-3.13,2.73-4.25,4.55-6.07c-3.03-1.52-5.76-3.44-7.18-6.47
		c-4.69-0.67-2.55,3.02-3.54,6.78c-1.93,7.35-2.97,3.33-4.25,8.39C650.91,448.16,647.97,451.4,643.21,453.02z M638.06,443.61
		c1.52-3.94,1.31-7.99,2.73-12.03c1.41,3.09-1.56,5.83-0.71,10.92c1.52-0.4,1.72-0.51,2.12-2.12c1.31-0.1,1.62,1.31,2.73,1.72
		c1.52-0.2,3.24-0.51,4.85-0.71c6.25-8.18,3.94-1.33,3.94-9.2c-0.3-5.06-0.3-5.06,4.55-6.57c1.11-9,4.75-17.29,8.6-25.99
		c-25.4-6.35-20.31-11.1-25.48-0.51c-0.6,1.23,0.89,24.33-4.65,39.34C636.24,440.17,636.14,441.99,638.06,443.61z M612.17,471.52
		c4.25-5.25,12.46-7.42,10.11-12.64c-4.95,4.15-12.24,1.62-16.99,6.27C605.77,471.83,611.21,472.71,612.17,471.52z M608.73,460.19
		c1.21-1.42,0.61-3.24,1.82-4.45c1.42,0.81,0.71,2.43,1.11,3.64c6.89-1.29,4.36-0.65,6.17-3.54c1.62-0.2,0.2,1.52,1.42,1.72
		c6.35-1.49,4.87-17.09,14.56-17.09c4.45-10.92,4.04-22.04,4.35-33.37c-1.52,3.44-3.13,6.88-4.55,10.42
		c-6.35,15.78-1.38,16.76-4.15,23.16c-7.58-16.32,16.38-46.53,16.38-63.81c0-5.75,1.54-0.27,3.74-14.36
		c0.19-1.22,0.01-2.62,0.4-3.84c2.1-6.55,0.34-13.74,2.73-20.12c1.44-3.83,0.42-7.08-0.2-10.72c-0.69-4.05-3.32-6.41-6.88-8.09
		c-2.66-1.26-3.16-0.39-9.1,1.92c0.71,1.52,2.83,0.51,3.24,2.33c-2.02,0.51-3.64-0.2-4.95-0.91c-9.17,0.31-15.45,15.26-28.72,30.03
		c5.16,2.12,10.62-1.11,15.57,2.12c-1.11,2.73-2.22,5.16-4.75,6.57c-0.1-2.02,1.21-3.54,2.02-5.36c-3.03,0.61-4.05,2.63-5.06,5.06
		c-7.86,18.91-15.32,28.72-11.43,40.45c0.84,2.52,0.57,5.48,1.62,7.69c4.88,10.31,1.75,45.09,0.91,51.17
		C606.71,461.51,607.62,460.19,608.73,460.19z M604.38,445.43c3.76-12.21-10.05-15.18-18.51-27.5c-7.5-10.93-37.17-47.5-38.63-49.14
		c-4.46-5.04-4.45-5.06-11.93-5.76c7.91,11.45,24.56,27.16,24.98,28.82c4.73,12.25,17.47,17.44,27.5,34.28
		C589.4,428.8,602.97,448.25,604.38,445.43z M486.07,508.53c2.87-10.06,1.03-13.47,2.94-17.29c3.87,14.43-14.54,21.56,31.25-7.79
		c0.2-1.01-1.72-0.4-1.42-1.72c4.85-0.3,9.71,0.48,14.46,1.62c22.24,5.34,35.48,2.14,54.81,6.27c4.75,1.01,9.51,2.02,14.56,1.92
		c1.01-7.28-1.42-13.65-4.65-19.62c6.36-10.59,4.66-7.28,5.87-22.35c0.18-2.3-7.4-6.11-18.91-24.67
		c-7.86-12.67-19.22-18.54-24.67-28.92c-4.54-8.65-13.64-14.41-24.67-29.83c-3.65-5.1-4.84-4.5-25.48-8.7
		c0.03,0.1,20.89,74.15,21.44,76.95c1.42,7.28,0.03,14.69-5.66,20.63c-3.12,3.25-5.75,6.91-9.81,9.2c-1.24,0.7-1.4,5.07-4.35,6.98
		c-0.81-1.42,0.71-2.22,0.51-3.44c-0.61-0.51-1.11-0.1-1.62,0.2c-11.02,7.74-25.36,12.42-35.67,19.63c-0.2,0-3.11,1.36-5.49,2.32
		c-0.61,5.06-1.92,10.01-3.44,15.47C473.33,506.1,479.7,507.62,486.07,508.53z"/>
	<path d="M663.74,315.49l0.1,0.1C663.66,315.64,663.76,315.59,663.74,315.49z"/>
	<path d="M862.55,427.84c-12.02,0-25.36-8.95-31.85-12.34c-1.05-0.55-35.21-19.22-37.92-21.03c-0.61-0.4-1.31-0.71-1.52-2.22
		c8.16,5.44,51.77,28.56,51.88,28.62C850.33,424.97,860.4,425.52,862.55,427.84z"/>
	<path d="M368.06,324.29c22.57,4.59,26.22,2.79,34.38,3.34C392.89,334.58,252.93,300.89,368.06,324.29z"/>
	<path d="M682.45,314.48c-6.86-3.43-6.26-7.01-14.76-1.31c-9.18,6.15-0.9-4.07,7.48-4.65c6.52-0.45,3.24-2.62,2.43-15.98
		c2.02-0.51,1.31-2.33,1.82-3.34c-0.71-1.72-3.03-0.91-3.34-2.93c2.77-1.49,5.62,2.6,4.85,5.76c-2.98,12.4,2.1,12.24-1.92,17.8
		C680.02,311.34,681.84,312.15,682.45,314.48z"/>
	<path d="M544.62,333.19c20.12,0.1,39.13-4.85,58.35-7.79C590.63,330.56,552.71,335.82,544.62,333.19z"/>
	<path d="M66.42,327.22c20.53-4.65,41.46-7.08,62.29-10.01C108.18,321.96,87.15,323.38,66.42,327.22z"/>
	<path d="M592.25,319.84c-20.43,4.35-41.36,5.97-61.78,10.01C534.1,327.83,585.17,319.54,592.25,319.84z"/>
	<path d="M62.37,284.35c0.22,0,0.22-0.06,0.1,0.1L62.37,284.35z"/>
	<path d="M82.7,279.9c10.41,0.55,12.73-2.89,16.79-1.42c-8.8,2.63-17.29,5.97-24.77,11.33c3.03-4.15,7.69-6.17,11.83-8.9
		c-3.24-0.1-6.37-0.61-9.2,1.21c-2.14-2.31-9.33,2-14.78,2.21C64.07,281.87,77.11,279.6,82.7,279.9z"/>
	<path d="M157.93,320.14c3.72,7.98-1.23,15.18,0.71,20.22c2.04,5.31-0.22,8.08-0.91,4.65c-2.46-16.95,0.71-20.24-1.92-23.86
		c-0.72-1-1.72-2.33-0.4-3.74C157.33,317.51,157.42,319.03,157.93,320.14z"/>
	<path d="M657.57,330.76c4.99,0.54,5.91-0.94,22.65-5.66c-0.17,4.87-8.03,4.12-11.22,5.97
		C665.73,332.95,656.72,333.55,657.57,330.76z"/>
	<path d="M608.43,230.14c-2.77-0.99-4.2,2.33-5.87,1.82c0.51-2.02,2.02-3.13,3.44-4.55c11.29,2.18,20.71,11.8,20.12,13.55
		C620.72,239.83,624.53,235.91,608.43,230.14z"/>
	<path d="M202.22,483.35c-8.19,1.62-16.58,1.11-24.77,3.24c1.82-3.74,4.95-5.16,8.7-5.66c-0.71,1.62-2.93,1.62-4.15,3.74
		C188.98,482.74,195.55,482.95,202.22,483.35z"/>
	<path d="M206.47,288.29c-3.94,6.37-14.16,9.51-18.1,5.26C194.74,292.43,200.91,291.22,206.47,288.29z"/>
	<path d="M641.6,488.91c7.89-3.94,16.38-3.84,24.88-3.34C658.18,487.3,649.69,486.59,641.6,488.91z"/>
	<path d="M618.44,485.68c-1.31-2.43-3.68-4.48-1.31-7.28c2.93-3.48,7.67-1.11,7.28,3.03C624.08,484.97,621.17,484.97,618.44,485.68z
		 M618.24,481.94c1.21-0.1,2.83-0.91,2.73,1.72C626.4,479.31,616.86,475.72,618.24,481.94z"/>
	<path d="M47.41,302.65c0.94-3.04,26.9-18.91,29.93-20.43C77.11,283.58,47.51,302.7,47.41,302.65z"/>
	<path d="M167.03,445.73c4.07-2.65,8.39,1.72,6.17,5.36c-2.2,3.61-8.69,2.53-7.4-4.02c-3.62,2.81-4.84,2.6-8.88-1.54
		c1.16-2.08,1.54-5.49,5.46-4.85c3.44,0.56,3.81,3.07,3.45,6.26C166.24,446.63,166.53,446.14,167.03,445.73z M169.87,451.3
		c2.95-0.21,2.81-4.91-0.2-4.45C166.47,447.06,166.86,451.51,169.87,451.3z M159.96,443.51c1.31,0.81,1.82,1.92,0.71,3.13
		C165.77,448.83,164.62,439.47,159.96,443.51z"/>
	<path d="M668.6,483.45c3.03,3.03,4.95,11.63,3.64,14.97C670.72,496.8,667.89,485.98,668.6,483.45z"/>
	<path d="M632.8,477.99c-0.88,4.39-6.18,4.84-7.89,1.11C621.91,472.54,633.7,470.8,632.8,477.99z M628.45,475.06
		c-2.82,0-2.88,4.75,0.3,4.75C631.96,479.81,631.36,475.06,628.45,475.06z"/>
	<path d="M205.26,488.91c-0.26-2.52-2.33-4.75-0.91-7.48c3.44,4.35,3.74,9.4,3.64,14.56C205.56,494.07,205.51,491.35,205.26,488.91z
		"/>
	<path d="M180.89,453.52c-1.82,1.11-1.82,3.84-3.94,4.95c-1.52-0.91,0.51-2.12-0.71-3.13c-1.21-0.51-2.63,1.72-4.15,0
		c0.71-0.91,2.53-0.91,2.22-2.73C173.58,448.2,180.44,448.84,180.89,453.52z M178.46,454.03c0.2-2.53-0.91-2.53-2.43-2.53
		C175.93,453.22,176.94,453.52,178.46,454.03z"/>
	<path d="M637.25,469.8c6.17,11.31,0.42,5.5-0.3,5.86c-1.01,0.71,0.1,2.83-1.82,3.03c-0.61-2.33-0.61-2.33-2.43-3.24
		C631.79,471.82,632.29,471.22,637.25,469.8z M636.94,473.04c-1.42-1.62-2.12-1.11-2.73,0.61
		C635.43,474.45,636.24,474.25,636.94,473.04z"/>
	<path d="M588.71,365.04c9.3-12.44,8.49-16.48,4.75-25.38C600.14,345.52,597.51,359.48,588.71,365.04z"/>
	<path d="M124.56,362.61c8.29-11.22,8.49-15.47,4.85-24.77C135.59,343.6,132.86,357.56,124.56,362.61z"/>
	<path d="M667.38,480.72c-6.27,0.61-12.24,2.22-18.1,4.15C652.62,481.13,662.63,478.7,667.38,480.72z"/>
	<path d="M85.63,311.34c-8.6,4.25-17.09,8.6-24.98,14.06C67.94,318.83,76.43,314.48,85.63,311.34z"/>
	<path d="M782.26,385.97c-8.7-5.46-15.27-11.22-17.29-15.37C767.19,371.92,781.55,384.66,782.26,385.97z"/>
	<path d="M525.91,327.12c5.26-5.26,19.01-12.74,24.07-13.04C541.28,317.92,533.4,322.06,525.91,327.12z"/>
	<path d="M589.01,90.8c-4.75-0.1-9.4-2.73-14.36-0.71C578.8,86.35,584.97,87.06,589.01,90.8z"/>
	<path d="M291.82,302.75c7.08,4.35,14.56,5.76,21.24,9.2C304.66,310.74,294.35,306.39,291.82,302.75z"/>
	<path d="M161.78,386.07c1.11,5.76,2.83,11.53,0.61,17.49C162.89,397.7,161.07,391.94,161.78,386.07z"/>
	<path d="M167.44,316.1c-2.26-4.26-10.52-2.26-10.52-6.27C162.18,309.52,167.14,312.25,167.44,316.1z"/>
	<path d="M49.94,280.3c-3.34,3.34-7.38,5.56-11.73,7.28C41.95,284.95,44.78,280.7,49.94,280.3z"/>
	<path d="M531.17,280.3c4.15,2.12,8.9,0.81,13.04,3.34c-4.35-0.51-9.1,0.3-13.35-1.82C530.97,281.31,531.07,280.81,531.17,280.3z"/>
	<path d="M73.8,274.64c-3.74,1.52-10.92,1.52-13.35-0.2C64.9,274.64,69.35,273.53,73.8,274.64z"/>
	<path d="M519.74,284.95c-3.74,2.83-7.99,4.45-12.54,5.36C511.25,288.19,514.79,284.85,519.74,284.95z"/>
	<path d="M547.86,302.04l-0.1-0.1C548.03,301.85,547.93,301.78,547.86,302.04z"/>
	<path d="M161.37,381.02c-1.92-3.84-2.12-9.91-0.2-13.15C161.07,372.02,161.57,376.26,161.37,381.02z"/>
	<path d="M578.19,95.75c1.61-2.1,2.6,0.18,6.78-3.24c1.82,2.43-1.52,3.54-1.11,5.56C582.54,95.86,579.71,97.37,578.19,95.75z"/>
	<path d="M81.59,300.83c4.35-3.94,9.51-6.57,14.76-8.9C91.7,295.27,86.95,298.6,81.59,300.83z"/>
	<path d="M153.89,356.55c1.52,3.44,3.03,6.88,4.55,10.21C153.89,362.41,152.47,358.87,153.89,356.55z"/>
	<path d="M167.74,382.43c-1.01-3.84-2.02-7.28-1.82-10.92C168.05,374.85,168.75,379.3,167.74,382.43z"/>
	<path d="M115.36,297.39c-4.55,0.2-9.2,0.4-13.75,0.61C106.46,296.28,112.73,295.97,115.36,297.39z"/>
	<path d="M124.56,267.05c1.31-3.03,2.73-5.46,5.16-7.28C130.53,262,128.51,265.23,124.56,267.05z"/>
	<path d="M165.21,281.82c-2.63,0.71-5.36,1.52-8.9-0.1C159.75,280.2,162.38,280.91,165.21,281.82z"/>
	<path d="M391.32,515.61c-0.1,3.94-1.92,7.38-4.65,10.52C387.88,522.49,390.11,519.35,391.32,515.61z"/>
	<path d="M822.8,535.73c4.85-0.2,9.51,1.21,14.36,1.21C832.31,537.45,827.46,537.15,822.8,535.73z"/>
	<path d="M278.87,467.37c4.04,1.11,8.19,1.62,11.63,4.15C286.76,469.7,282.41,469.6,278.87,467.37z"/>
	<path d="M855.97,517.43c-0.4,4.15-2.12,7.79-4.85,10.82C852.74,524.61,854.46,521.07,855.97,517.43z"/>
	<path d="M372.21,534.42c-4.45,0.61-9,0.71-13.45-0.91C363.21,533.2,367.66,534.72,372.21,534.42z"/>
	<path d="M649.48,315.09c-2.63-1.31-5.87,0-8.49-1.82C644.02,312.76,646.96,313.16,649.48,315.09z"/>
	<path d="M25.77,486.59c2.93-2.12,5.97-4.04,9.61-4.55C32.24,483.86,29.51,486.18,25.77,486.59z"/>
	<path d="M216.58,292.23c0.3,3.03-0.61,4.95-3.44,5.66C214.66,296.28,213.85,293.24,216.58,292.23z"/>
	<path d="M743.63,469.7c4.04,0.61,7.89,1.82,11.33,4.04C751.31,471.92,746.96,472.13,743.63,469.7z"/>
	<path d="M892.17,434.51c-3.24,0.2-5.87,0.3-8.39-1.11C886.41,433.5,889.24,432.18,892.17,434.51z"/>
	<path d="M606.81,241.57c-2.43,0.2-4.95,0.91-7.38-1.21C602.46,239.14,604.69,240.46,606.81,241.57z"/>
	<path d="M153.18,272.41c2.83-0.1,5.76-0.1,8.39,1.92C151.66,273.27,153.18,273.78,153.18,272.41z"/>
	<path d="M691.75,477.39c-1.01-3.03-1.82-6.07-1.72-9.3C691.14,471.01,691.95,474.15,691.75,477.39z"/>
	<path d="M431.67,326.71c-6.64,1.05-6.84,1.47-7.79,0.4C426.69,326.47,430.94,324.54,431.67,326.71z"/>
	<path d="M143.37,261.59c2.33-1.82,5.06-1.62,7.58-1.82C148.73,261.39,146.1,261.59,143.37,261.59z"/>
	<path d="M225.89,466.67c0.91,2.63,1.82,5.26,1.52,8.09C226.29,472.13,225.48,469.5,225.89,466.67z"/>
	<path d="M683.06,336.12c-1.21,2.02-2.73,2.22-5.36,1.52C679.72,336.42,680.73,334.6,683.06,336.12z"/>
	<path d="M565.05,135.5c-1.21-1.82-2.53-3.13-2.73-5.76C565.05,131.96,565.35,132.46,565.05,135.5z"/>
	<path d="M846.37,538.16c0.1-2.63,1.01-4.95,3.13-6.78C848.49,533.61,847.38,535.93,846.37,538.16z"/>
	<path d="M126.59,338.75c0,2.12-0.4,4.15-2.22,5.66C124.77,342.39,124.87,340.27,126.59,338.75z"/>
	<path d="M520.29,293.48c3.04-1.56,6.35-1.86,9.67-2.05C526.86,292.49,523.58,292.99,520.29,293.48z"/>
	<path d="M299.2,477.49c2.43,1.21,5.46,1.31,7.48,3.44C304.15,480.12,301.53,479.1,299.2,477.49z"/>
	<path d="M631.99,301.43c2.12-1.11,4.45-1.42,7.38-1.52C636.94,302.04,634.42,301.23,631.99,301.43z"/>
	<path d="M591.14,340.67c-0.1,2.83-0.61,4.85-2.73,6.17C589.42,345.02,589.01,342.59,591.14,340.67z"/>
	<path d="M168.86,390.72c1.11,1.92,0,3.34-0.4,4.85C167.84,394.06,166.43,392.44,168.86,390.72z"/>
	<path d="M377.77,544.53c-0.4-1.92-0.3-3.74,0.71-5.36C378.78,541.09,378.78,542.91,377.77,544.53z"/>
	<path d="M382.22,535.23c0.1-2.43,0.71-4.45,2.73-5.86C384.04,531.28,383.13,533.31,382.22,535.23z"/>
	<path d="M560.19,123.16c2.12,1.01,2.33,2.83,2.12,4.85C561,126.7,560.4,125.08,560.19,123.16z"/>
	<path d="M545.83,121.03c0.71,1.52,1.01,3.13,0.4,5.26C545.03,124.17,544.62,122.55,545.83,121.03z"/>
	<path d="M541.28,334c0,0.29,1.33,0.2-6.27,0.2C535.01,333.91,534.3,334,541.28,334z"/>
	<path d="M630.88,305.48c-0.81-1.21-2.63-1.92-1.92-4.45C630.98,302.14,631.08,303.76,630.88,305.48z"/>
	<path d="M140.64,261.29c2.02,0.81,1.92,2.63,2.12,4.15C141.65,264.42,139.73,263.72,140.64,261.29z"/>
	<path d="M843.13,541.09c-0.1,2.12-0.2,4.35-0.3,6.47C840.91,545.44,842.52,543.21,843.13,541.09z"/>
	<path d="M656.87,295.87c-2.02,1.11-3.94,1.21-5.76,1.31C652.82,296.48,654.44,295.57,656.87,295.87z"/>
	<path d="M168.45,254.41c-1.52,1.11-3.34,1.72-5.16,1.62C164.81,254.82,166.63,254.72,168.45,254.41z"/>
	<path d="M55.3,471.82c1.62,1.82,1.62,1.82,0.3,4.15C55.19,474.55,54.89,473.24,55.3,471.82z"/>
	<path d="M149.84,326.92c-0.71-2.02-0.81-4.15,0.3-6.07C150.05,322.87,149.95,324.89,149.84,326.92z"/>
	<path d="M546.54,128.01c0.1,1.62,1.62,2.83,1.72,4.95C546.04,130.74,545.83,130.14,546.54,128.01z"/>
	<path d="M124.06,264.93c0.4-3.13,0.4-3.13,2.53-4.55C125.68,261.9,124.87,263.41,124.06,264.93z"/>
	<path d="M52.97,469.8c-1.31,0-2.73,0.81-4.45-0.61C50.54,468.18,51.66,469.4,52.97,469.8z"/>
	<path d="M158.84,358.77c-0.51-1.52-1.52-2.63-0.61-4.15C159.65,356.34,159.65,356.34,158.84,358.77z"/>
	<path d="M207.08,286.17c0-1.31,0.81-2.02,2.02-3.24C209,285.46,209,285.46,207.08,286.17z"/>
	<path d="M737.26,467.58l0.1-0.1C737.57,467.68,737.69,467.66,737.26,467.58z"/>
	<path d="M743.63,469.8c-2.24-0.19-4.39-0.59-6.08-2.16C739.6,468.1,741.89,468.36,743.63,469.8z"/>
	<path d="M186.05,265.64c-0.1-1.82-0.2-3.13,1.11-4.25C187.46,262.91,187.56,264.12,186.05,265.64z"/>
	<path d="M675.37,303.76c0.2,1.21,0.4,2.43-1.11,4.04C674.26,305.88,674.36,304.77,675.37,303.76z"/>
	<path d="M149.04,365.95c-0.51-1.21-1.21-2.43-0.91-4.55C149.14,363.22,149.84,364.33,149.04,365.95z"/>
	<path d="M208.19,320.04c-0.81-1.21-0.81-2.22,0-3.54C209.2,318.42,209.2,318.42,208.19,320.04z"/>
	<path d="M167.74,384.56c1.31,1.11,1.01,2.02-0.1,3.03C166.83,386.48,166.12,385.47,167.74,384.56z"/>
	<path d="M612.47,240.26c1.31-1.11,2.53-0.4,3.54,0.51C614.8,240.96,613.38,241.98,612.47,240.26z"/>
	<path d="M62.27,284.35l0.1,0.1C62,284.45,62,284.48,62.27,284.35z"/>
	<path d="M56.51,286.47c1.64-1.16,3.47-2.03,5.57-2.02C60.32,285.42,58.56,286.28,56.51,286.47z"/>
	<path d="M65.41,280.5c-1.52,0-3.03,0-4.55,0C62.17,280,63.79,279.59,65.41,280.5z"/>
	<path d="M15.45,486.79c-1.62,0.3-2.83,0.4-3.94-0.71C12.72,485.98,14.04,485.58,15.45,486.79z"/>
	<path d="M571.11,155.21c1.56-1.94,4.24,0.39,1.52,0.81C571.92,156.13,571.32,156.22,571.11,155.21z"/>
	<path d="M668.8,361.7c1.11,1.62,0.4,2.43-0.71,3.54C667.48,363.62,667.79,362.71,668.8,361.7z"/>
	<path d="M615.2,299.41c-0.71,1.21-1.21,2.33-2.33,3.13C613.28,300.32,613.28,300.32,615.2,299.41z"/>
	<path d="M140.84,277.87c0-0.1-0.1-0.1-0.3-0.4c0.71-0.61,0.2-1.72,1.01-2.83C142.56,276.26,141.96,277.06,140.84,277.87z"/>
	<path d="M534.51,287.48c-1.31-0.2-2.73,0.4-4.35-0.4C531.88,286.77,533.3,286.77,534.51,287.48z"/>
	<path d="M170.97,283.51c0-0.1,1.19,1.05,0.92,1.85c-1.55-0.29-0.98-1.13-0.92-1.82c-1.3,0.1-2.32-0.2-3.12-1.92
		C169.65,281.61,170.67,282.02,170.97,283.51z"/>
	<path d="M630.47,311.85c-0.71-0.81-0.81-1.52,0-2.43C631.48,310.23,631.48,310.94,630.47,311.85z"/>
	<path d="M672.64,254.21c0.2-0.81,0.4-1.52,0.71-2.63C674.5,252.74,673.75,254.54,672.64,254.21z"/>
	<path d="M668.6,356.65c1.11,0.51,1.11,1.11,0.1,1.72C667.99,357.86,668.09,357.25,668.6,356.65z"/>
	<path d="M181.9,212.55c-0.1-0.91,0-1.82,0.91-2.53C183.68,211.62,182.38,213.03,181.9,212.55z"/>
	<path d="M148.83,354.83c0.1,1.01,0.1,2.02,0.1,3.03C148.79,357.86,148.83,358.2,148.83,354.83z"/>
	<path d="M170.27,411.56c-1.11-1.01-0.91-2.33-1.31-4.25C170.27,408.93,169.97,410.34,170.27,411.56z"/>
	<path d="M271.7,464.95c1.21,0.1,2.33,0.4,3.64,1.42C273.72,466.26,272.61,465.96,271.7,464.95z"/>
	<path d="M598.92,236.21c0.66-2.66,2.57-1.25,1.62-0.3C600.14,236.31,599.73,236.82,598.92,236.21z"/>
	<path d="M730.38,465.45c-0.81-0.4-1.52-0.71-2.22-1.01C729.17,464.24,729.98,464.24,730.38,465.45z"/>
	<path d="M628.75,317.41c0-1.11-0.1-2.02,0.81-2.83C630.17,315.79,629.97,316.6,628.75,317.41z"/>
	<path d="M879.43,432.29c-0.91,0.2-1.62,0.1-2.02-0.81C878.32,431.17,878.93,431.38,879.43,432.29z"/>
	<path d="M567.37,156.93c1.31-0.39,2.96,1.03,2.33,1.92C568.49,158.65,568.08,157.74,567.37,156.93z"/>
	<path d="M737.16,467.58c-1.01,0.1-2.02-0.1-3.13-1.11C735.44,466.46,736.35,466.97,737.16,467.58z"/>
	<path d="M142.26,271.71c-0.4-0.71-0.61-1.42,0.4-2.22C142.97,271,142.97,271,142.26,271.71z"/>
	<path d="M580.22,292.23c0.61-1.62,1.21-2.33,2.63-2.33C582.24,290.92,581.93,291.83,580.22,292.23z"/>
	<path d="M56.51,286.57c-0.81,0.71-1.72,1.01-3.24,1.11C54.49,286.77,55.4,286.47,56.51,286.57z"/>
	<path d="M48.02,289.7c0.51-0.4,1.01-0.81,1.92-0.61C49.33,289.2,48.93,290.41,48.02,289.7z"/>
	<path d="M156.21,306.79c-1.08,1.08-2.01,2.17-2.63,0.81C154.19,307.3,154.7,306.49,156.21,306.79z"/>
	<path d="M679.21,340.47c0.2-0.81,0.2-1.52,1.62-1.52C680.73,340.06,680.43,340.67,679.21,340.47z"/>
	<path d="M268.86,463.83c1.21-0.1,2.02,0.4,2.83,1.11C270.68,464.95,269.67,464.85,268.86,463.83z"/>
	<path d="M263.5,461.51c0.61,0.2,1.11,0.51,1.62,0.71C264.41,462.42,263.61,462.62,263.5,461.51z"/>
	<path d="M767.79,481.83c-0.71-0.3-1.31-0.51-1.92-0.81C766.88,480.82,767.49,480.92,767.79,481.83z"/>
	<path d="M309.51,482.24c-1.31-0.61-2.02-1.01-2.73-1.31C307.59,480.82,308.5,480.72,309.51,482.24z"/>
	<path d="M761.32,478.5c0.71,0.4,1.11,0.61,2.02,1.01C762.23,479.71,761.83,479.41,761.32,478.5z"/>
	<path d="M417.21,327.22c0.51-0.4,1.01-0.4,1.92,0C418.22,327.93,417.71,327.73,417.21,327.22z"/>
	<path d="M598.01,236.82c0.3,1.01-0.2,1.42-1.01,1.62C596.6,237.43,596.9,236.92,598.01,236.82z"/>
	<path d="M188.88,323.18c-0.81-0.71-0.71-1.31,0.3-1.92C189.89,322.16,189.79,322.67,188.88,323.18z"/>
	<path d="M189.28,317.82c0.1,1.01,0.71,1.52-0.2,1.92C188.37,319.33,187.97,318.93,189.28,317.82z"/>
	<path d="M206.27,308.82c-0.2-0.4-0.2-0.81,0.4-1.42C207.38,308.31,207.48,308.82,206.27,308.82z"/>
	<path d="M680.22,325c0.2-0.91,0.51-1.62,1.72-1.11C681.84,325.3,681.03,325.1,680.22,325z"/>
	<path d="M670.21,271.5c0,0.61,0.2,1.31-1.62,1.72C669.3,272.21,668.9,271.4,670.21,271.5z"/>
	<path d="M519.97,293.64c-0.51,0,0.22-0.14,0.32-0.16C519.87,293.71,520.11,293.64,519.97,293.64z"/>
	<path d="M519.8,293.61c-1.16,0.53-2.33,0.44-3.49,0.65C517.35,293.3,518.57,293.43,519.8,293.61z"/>
	<path d="M566.26,140.35c0.3,0.4,1.01,0.61,0.4,1.62C565.45,141.56,565.35,141.06,566.26,140.35z"/>
	<path d="M179.27,231.96c-0.3-0.91-0.4-1.72,0.71-2.22C180.89,230.85,179.78,231.36,179.27,231.96z"/>
	<path d="M192.62,309.22c-1.03,0.51-1.06-0.61-0.81-0.61C192.32,308.41,192.52,308.72,192.62,309.22z"/>
	<path d="M80.48,301.54c0.3-0.4,0.71-0.61,1.21-0.61C81.39,301.33,81.08,301.74,80.48,301.54z"/>
	<path d="M671.53,264.83c0.26,1.32-0.91,1.09-0.91,0.61C670.62,264.83,670.92,264.63,671.53,264.83z"/>
	<path d="M565.55,139.14c-0.61-0.61-1.11-0.91-0.71-1.72C565.96,137.32,565.86,138.02,565.55,139.14z"/>
	<path d="M311.03,483.05c0.4,0.3,0.61,0.51,0.91,0.71C311.54,483.76,310.93,484.06,311.03,483.05z"/>
	<path d="M546.34,302.85c0.4-0.61,0.81-0.81,1.52-0.71C547.55,302.75,547.15,303.15,546.34,302.85z"/>
	<path d="M524.8,279.49c1.11-0.3,1.42,0.1,0.91,1.11C524.9,280.6,524.7,280.2,524.8,279.49z"/>
	<path d="M207.89,280.4c-0.18-0.74,0.72-1.09,1.01-0.51C209.18,281,207.89,280.67,207.89,280.4z"/>
	<path d="M170.47,413.58c-0.51-0.71-0.3-1.31-0.2-2.02C170.37,412.26,170.98,412.87,170.47,413.58z"/>
	<path d="M54.08,273.63c1.11,0.2,1.62,0.51,0.81,1.42C54.08,275.04,53.88,274.64,54.08,273.63z"/>
	<path d="M514.39,294.26c0.81,0,1.42,0,1.92,0C515.8,294.46,515.3,294.86,514.39,294.26z"/>
	<path d="M173.1,419.44c0.61,0.3,0.71,0.61,0.2,1.11C173,420.25,172.8,419.85,173.1,419.44z"/>
	<path d="M667.38,367.67c-0.2-0.1-0.1-0.61,0.4-1.01C667.89,367.26,668.09,367.77,667.38,367.67z"/>
	<path d="M573.54,162.8c-0.71-0.3-1.21-0.61-0.81-1.42C573.64,161.48,573.95,161.89,573.54,162.8z"/>
	<path d="M59.95,236.41c8.9,3.13,17.29,5.06,26.09,2.12c-2.43,1.82-5.16,2.7-7.99,2.63c-13.36-0.35-24.24,4.77-25.18,1.01
		c4.15-0.91,8.49-0.61,12.64-2.02C63.99,238.74,61.46,239.14,59.95,236.41z"/>
	<path d="M52.26,225.49c-5.26,3.34-13.85,1.21-15.37-3.94C41.44,225.39,46.8,225.49,52.26,225.49z"/>
	<path d="M134.27,224.89c4.75,0.71,8.9-1.01,13.15-3.03C143.68,225.59,139.33,227.01,134.27,224.89z"/>
	<path d="M42.96,215.58c4.15-1.31,8.29-1.52,12.54-1.72c0,0.3,0.1,0.61,0.1,0.91C40.65,216.96,43.37,217.22,42.96,215.58z"/>
	<path d="M44.68,185.65c2.02-2.93,4.65-4.25,7.69-5.16C51.86,183.53,49.73,184.94,44.68,185.65z"/>
	<path d="M139.23,230.75c-3.34,0.91-6.07-0.51-8.9-2.12C133.56,227.92,136.4,229.44,139.23,230.75z"/>
	<path d="M29.91,207.9c5.16,0.81,4.85,5.06,5.76,8.6C34.26,216.96,35.2,213.04,29.91,207.9z"/>
	<path d="M49.03,198.09c-0.61-3.03-1.21-5.97-1.72-9C49.84,192.12,50.24,193.84,49.03,198.09z"/>
	<path d="M149.84,231.26c-2.93,0.91-6.37,0.2-7.99-1.42C144.89,228.53,147.01,231.66,149.84,231.26z"/>
	<path d="M35.88,171.9c0.71,2.53,2.12,4.85,1.72,7.79C36.39,177.26,35.68,174.73,35.88,171.9z"/>
	<path d="M57.32,177.16c0.1,2.93-1.42,3.64-3.24,4.35C54.69,179.89,54.89,178.07,57.32,177.16z"/>
	<path d="M23.34,178.07c1.82,0.71,3.74,1.42,5.16,3.64C25.57,181.71,24.66,179.58,23.34,178.07z"/>
	<path d="M72.89,219.12c1.92-1.31,3.54-1.01,5.06-0.71C77.95,219.36,79.24,219.12,72.89,219.12z"/>
	<path d="M94.53,236.82c-3.34,1.62-3.34,1.62-5.66,0.91C90.59,237.12,92.31,236.51,94.53,236.82z"/>
	<path d="M52.16,243.49c-2.53,0.2-4.04-0.3-5.26-1.62C48.62,241.67,50.24,241.87,52.16,243.49z"/>
	<path d="M34.57,143.58c2.53-1.52,2.53-1.52,4.55-0.3C37.8,143.99,36.49,144.09,34.57,143.58z"/>
	<path d="M50.44,201.22c0.51,1.82-0.1,2.83-1.62,3.44C48.82,203.45,49.13,202.34,50.44,201.22z"/>
	<path d="M22.94,154.2c0.61-1.72,1.42-3.13,3.13-3.84C25.57,152.08,24.45,153.39,22.94,154.2z"/>
	<path d="M101.81,235.3c-1.72,1.01-2.83,1.42-4.95,1.31C98.68,235.5,99.79,235,101.81,235.3z"/>
	<path d="M49.13,234.9c-1.33,1-3.38,0.23-2.73-0.91C47.31,233.89,48.32,233.78,49.13,234.9z"/>
	<path d="M154.7,224.48c0.71,1.52,0.61,2.43-0.81,3.24C153.69,226.5,153.48,225.39,154.7,224.48z"/>
	<path d="M152.78,231.26c0.77-0.39,0.77,2.08-1.31,1.92C151.46,232.17,151.56,231.36,152.78,231.26z"/>
	<path d="M107.07,232.98c-0.61,1.21-1.52,1.11-2.93,0.81C105.25,232.98,105.96,232.17,107.07,232.98z"/>
	<path d="M148.83,222.16c0.71-0.81,1.31-1.31,2.83-1.01C150.75,221.85,150.45,222.76,148.83,222.16z"/>
	<path d="M44.68,240.76c-0.91,0.81-1.72,0.3-2.63-0.71C43.26,239.35,44.07,239.55,44.68,240.76z"/>
	<path d="M146.31,225.7c0.91,0.3,1.82-0.1,2.43,1.01C147.62,227.11,146.91,226.91,146.31,225.7z"/>
	<path d="M59.85,222.26c1.21-0.3,1.92-0.3,2.53,0.61C61.46,223.27,60.76,223.47,59.85,222.26z"/>
	<path d="M38,147.73c0.61,1.11,0.1,1.72-0.71,2.22C36.79,148.94,36.79,148.24,38,147.73z"/>
	<path d="M63.69,214.88c0.81-0.81,1.31-1.52,1.92,0C65,215.28,64.5,215.38,63.69,214.88z"/>
	<path d="M141.05,218.31c0-0.77,0.93-0.82,1.11,0.1C141.86,218.92,141.45,218.82,141.05,218.31z"/>
	<path d="M53.68,235.1c-0.81,0.71-1.42,0.51-2.22-0.2C52.36,234.59,52.97,234.29,53.68,235.1z"/>
	<path d="M55.19,224.28c0.77-1.16,1.42-0.93,1.31-0.2C56.41,224.58,55.9,224.58,55.19,224.28z"/>
	<path d="M140.64,434.61c-1.31-0.2-1.72-0.91-2.22-1.92C139.73,432.89,140.64,432.99,140.64,434.61z"/>
	<path d="M87.76,78.97c-2.53-0.79-4.75,1.82-7.38,0.71C88.55,72.47,104.75,84.27,87.76,78.97z"/>
	<path d="M90.49,82.1c0.81,0.4,1.21,0.81,1.52,1.72c-1.82,0.51-1.52,2.43-2.43,4.04c-1.21-2.43-3.94-0.91-5.56-2.63
		C86.04,83.52,89.07,84.33,90.49,82.1z"/>
	<path d="M69.45,119.62c1.92,1.72,3.13,3.13,3.13,5.97C70.67,123.77,69.35,122.35,69.45,119.62z"/>
	<path d="M66.52,113.55c1.49-1.49,2.9,1.8,3.03,4.25C68.53,118.14,69.03,118.93,66.52,113.55z"/>
	<path d="M52.46,111.02c1.31,2.02,1.01,3.74,0.71,5.46C51.76,114.97,51.55,113.35,52.46,111.02z"/>
	<path d="M53.27,118.51c0.1,1.72,2.02,2.83,1.72,5.46C53.68,121.94,52.57,120.53,53.27,118.51z"/>
	<path d="M79.46,144.29c1.31-1.11,1.31-1.11,2.93-0.81C81.49,144.29,80.78,145.1,79.46,144.29z"/>
	<path d="M75.32,145.3c1.72,0.61,3.03,0.61,3.74,2.83C77.54,147.23,76.43,146.92,75.32,145.3z"/>
	<path d="M81.99,149.35c0.91,0.4,1.42,0.71,1.01,1.82C82.4,150.66,81.79,150.46,81.99,149.35z"/>
	<path d="M72.18,127.41c1.11,0.2,1.01,0.81,0.61,1.52C72.08,128.62,71.48,128.21,72.18,127.41z"/>
	<path d="M279.58,337.13c8.39,0,16.68,0,24.98,0C296.27,338.14,287.87,337.64,279.58,337.13z"/>
	<path d="M319.42,337.13c12.68,0,11.73-0.05,11.73,0.1C317.35,337.23,319.42,337.29,319.42,337.13z"/>
	<path d="M190.49,338.14c0.61,0.2,1.21,0.3,1.82,0.51C191.61,338.85,191.1,338.55,190.49,338.14z"/>
	<path d="M190.39,338.24c-0.71-0.1-1.52-0.1-2.33-0.1C188.07,337.63,187.71,337.91,190.39,338.24z"/>
	<path d="M349.15,338.34c-1.21-0.1-1.62-0.61-1.72-1.62C348.55,336.93,348.95,337.33,349.15,338.34z"/>
	<path d="M98.27,182.52c-1.52-5.46-5.36-10.11-6.37-15.67c0.61-0.2,1.11-0.4,1.62-0.61C94.43,171.9,98.17,176.65,98.27,182.52z"/>
	<path d="M92.1,212.55c1.72-4.95,3.24-9.91,4.35-15.17C96.76,202.94,94.53,207.8,92.1,212.55z"/>
	<path d="M98.58,187.77c-0.61-1.21-0.81-2.02,0-3.24C99.79,185.55,99.99,186.46,98.58,187.77z"/>
	<path d="M86.14,193.54c-1.78-0.3-0.59-2.47,1.31-1.11C87.45,193.34,86.95,193.74,86.14,193.54z"/>
	<path d="M97.26,189.8c0,1.11-0.2,1.62-1.01,1.82C95.74,190.81,95.95,190.2,97.26,189.8z"/>
	<path d="M90.89,192.02c-1.2,1.03-2.23-0.35-1.31-0.81C90.28,190.91,90.69,191.21,90.89,192.02z"/>
	<path d="M99.99,252.9c2.02,4.04,1.52,5.97-1.72,7.58C99.38,258.05,100.4,256.03,99.99,252.9z"/>
	<path d="M42.45,247.84c-0.91,0.61-1.62,0.81-2.12-0.61C41.34,246.53,42.05,246.53,42.45,247.84z"/>
	<path d="M61.87,257.35c-1.01,0.4-1.82,0.2-2.63-0.3C60.05,257.04,60.96,256.94,61.87,257.35z"/>
	<path d="M201.92,397.2c0.1,0.2,0,0.51,0,0.71c-4.04-0.58-3.03-11.98-3.03-16.08C202.42,382.58,198.08,390.85,201.92,397.2z"/>
	<path d="M202.63,403.97c-1.31-2.43-0.71-4.25-0.71-6.07C203.54,399.52,203.94,401.24,202.63,403.97z"/>
	<path d="M200.71,369.89c-0.71-1.42-0.51-2.22,0.91-2.83C202.12,368.28,201.82,368.98,200.71,369.89z"/>
	<path d="M16.26,329.34c4.85,0.2,9.51-1.11,14.36-0.81C25.97,330.05,21.22,330.96,16.26,329.34z"/>
	<path d="M490.02,488.91c3.03-2.22,6.17-3.94,9.91-4.75C496.79,485.98,493.86,488.41,490.02,488.91z"/>
	<path d="M520.15,478.7c-0.81-1.62-0.61-2.93-0.2-4.95C521.46,475.77,521.57,477.08,520.15,478.7z"/>
	<path d="M517.72,472.23c-1.84,0.3-3.16,0.19-4.85-0.81C514.88,470.83,516.13,471.13,517.72,472.23z"/>
	<path d="M475.05,487.8c1.52,0.25,2.73,0.24,4.75,1.21C477.77,489.28,475.96,489.65,475.05,487.8z"/>
	<path d="M534.71,252.69c2.53,1.42,4.15,4.13,7.18,4.65c9.64,1.65,11.41,0.13,12.74,1.01c3.98,2.63,9.73,1.44,13.65,5.36
		c-14.99-2.14-13.24-4.75-18.61-4.04c-6.37,0.84-11.85-1.88-17.29-4.55c-0.2-0.1-0.1-0.61-0.2-0.91
		C532.79,253.2,534.41,254.21,534.71,252.69z"/>
	<path d="M530.67,233.78c3.13,6.98,9.51,7.28,15.37,8.8C541.13,244.72,525.89,240.47,530.67,233.78z"/>
	<path d="M505.99,178.67c0.74,4.25,5.55,12.86,6.67,12.84c2.63-0.05,2.63,1.62,2.83,3.74C508.22,191.72,506.9,185.25,505.99,178.67z
		"/>
	<path d="M546.44,246.12c3.54,2.12,7.38,3.24,11.43,4.25C552,251.38,547.86,249.86,546.44,246.12z"/>
	<path d="M560.09,251.08c3.64,0.1,7.28,0.2,10.31,2.53C566.67,254.11,563.13,253.6,560.09,251.08z"/>
	<path d="M515.6,209.52c1.82,3.74,6.27,4.04,7.69,7.69C514.69,212.45,514.69,212.45,515.6,209.52z"/>
	<path d="M624.41,264.12c4.75,1.52,9-0.2,13.15-2.12C633.2,266.14,628.05,266.95,624.41,264.12z"/>
	<path d="M620.46,267.66c3.24,0,5.97,1.31,9.1,2.53C626.83,271.4,623.19,270.49,620.46,267.66z"/>
	<path d="M582.64,265.13c0-0.3,0.1-0.71,0.1-1.01c3.03-0.2,6.07,0.2,9,0.91C591.31,266.34,594.01,266.27,582.64,265.13z"/>
	<path d="M571.62,263.01c2.22,0.61,4.55,0.61,7.58,1.11C575.06,265.94,573.64,265.74,571.62,263.01z"/>
	<path d="M542.5,188.28c4.5-7.07,3.95-6.57,4.65-6.57C547.25,184.84,545.83,186.86,542.5,188.28z"/>
	<path d="M631.89,270.19c3.03-1.62,5.06,1.72,7.89,1.31C636.74,273.12,634.42,271,631.89,270.19z"/>
	<path d="M600.24,262.81c2.63-0.61,4.55,0.61,6.57,1.01C604.59,264.32,602.46,264.53,600.24,262.81z"/>
	<path d="M581.23,256.44c-2.43-0.71-5.26-0.1-7.58-1.42C576.27,255.32,579,254.82,581.23,256.44z"/>
	<path d="M523.59,183.53c-0.17-1.39-0.39-15.61,0.91,0C524.19,183.53,523.89,183.63,523.59,183.53z"/>
	<path d="M536.23,191.21c2.12-0.61,2.22-2.83,4.35-2.83C540.37,191.41,540.27,191.52,536.23,191.21z"/>
	<path d="M534.91,226.2c-0.3-2.63,0.51-3.74,2.43-5.06C537.14,223.27,536.53,224.48,534.91,226.2z"/>
	<path d="M538.86,215.79c-0.61-1.31-1.42-2.63-0.2-3.94C538.96,213.16,539.77,214.37,538.86,215.79z"/>
	<path d="M547.65,241.77c1.82-0.71,1.82-0.71,3.44,0.4C549.78,242.68,548.67,243.19,547.65,241.77z"/>
	<path d="M527.63,147.53c1.31-1.21,2.53-1.11,3.94,0.4C530.06,148.54,528.85,148.34,527.63,147.53z"/>
	<path d="M516.71,193.13c2.02,1.01,2.43,2.73,4.65,2.93C518.53,196.88,517.42,195.86,516.71,193.13z"/>
	<path d="M537.54,220.23c-0.81-1.92-0.4-2.73,1.21-3.13C539.46,218.52,539.06,219.32,537.54,220.23z"/>
	<path d="M529.86,152.48c-0.2,1.01-0.3,1.82-1.72,2.22C528.24,153.49,528.24,152.48,529.86,152.48z"/>
	<path d="M514.69,155.52c0.4-1.72,1.42-2.33,2.73-3.03C517.22,154.4,516.21,154.81,514.69,155.52z"/>
	<path d="M639.37,262.4c0.4-0.91,1.21-1.11,2.63-1.11C641.09,262.4,640.58,263.11,639.37,262.4z"/>
	<path d="M643.01,271.71c0.51,1.11-0.61,1.62-1.01,2.33C641.49,272.51,641.49,272.51,643.01,271.71z"/>
	<path d="M636.34,265.94c1.01,0,1.82,0,2.73,0.71C637.65,267.56,637.05,266.85,636.34,265.94z"/>
	<path d="M525.1,217.71c0.81,0.91,0.51,1.42,0.1,2.22C524.19,219.12,523.79,218.52,525.1,217.71z"/>
	<path d="M554.53,241.87c0.4-0.4,0.81-0.61,1.31,0C555.44,242.48,554.94,242.99,554.53,241.87z"/>
	<path d="M646.55,348.05c1.11-0.2,1.52-1.42,2.63-1.11c-0.91,2.83-2.13,3.55-4.85,2.93C642.53,349.46,625.65,342.35,646.55,348.05z"
		/>
	<path d="M624.91,360.39c0.81,3.94-1.92,10.52-5.26,13.25C621.57,369.08,623.39,364.84,624.91,360.39z"/>
	<path d="M608.63,411.66c0.81-3.94,0.51-8.09,2.33-11.93C609.94,403.67,611.16,408.02,608.63,411.66z"/>
	<path d="M643.31,358.06c-2.53-1.11-5.26-1.01-7.48-3.74C640.18,354.62,641.39,355.23,643.31,358.06z"/>
	<path d="M638.16,338.95c1.82,1.42,2.63,3.24,2.63,5.36C639.27,342.89,637.65,341.48,638.16,338.95z"/>
	<path d="M646.85,367.87c-0.61-3.03-1.11-5.26-1.62-7.38C647.36,362.31,647.66,364.53,646.85,367.87z"/>
	<path d="M619.75,449.27c0.3,2.02,0,3.44-1.92,5.26C617.33,452,617.33,450.49,619.75,449.27z"/>
	<path d="M614.9,365.85c0.1-2.02,0.3-3.34,2.02-4.04C617.83,363.73,616.62,364.64,614.9,365.85z"/>
	<path d="M633.61,387.19c-0.61,1.72-0.81,3.24-2.02,4.65C631.58,388.5,631.58,388.5,633.61,387.19z"/>
	<path d="M618.54,447.45c-0.51-1.21-0.4-2.22,0.61-3.13C619.96,445.73,620.06,446.75,618.54,447.45z"/>
	<path d="M610.65,451.4c0.81,0.91,0.51,1.72-0.51,2.73C609.74,452.91,609.44,452.1,610.65,451.4z"/>
	<path d="M622.69,355.84c1.82,0.61,2.22,1.42,1.82,2.73C623.29,358.16,623.09,357.25,622.69,355.84z"/>
	<path d="M615.81,386.48c0.3,0.81-0.2,1.31-0.81,2.22C615,387.39,615.3,386.88,615.81,386.48z"/>
	<path d="M621.07,341.78c1.42-0.1,2.12-0.51,3.13,0.2C623.19,342.49,622.38,342.39,621.07,341.78z"/>
	<path d="M631.99,346.74c-1.01-0.4-1.82-0.61-2.22-2.02C630.67,345.32,631.69,345.22,631.99,346.74z"/>
	<path d="M610.35,448.97c-0.2-0.81-0.1-1.31,0.61-1.72C610.96,447.86,611.16,448.36,610.35,448.97z"/>
	<path d="M609.84,376.47c0.1-0.61-0.4-1.31,1.01-1.21C610.85,375.86,610.85,376.37,609.84,376.47z"/>
	<path d="M613.18,368.98c0.4,1.31-0.1,1.52-1.01,1.62C611.87,369.69,612.17,369.29,613.18,368.98z"/>
	<path d="M642.91,324.39c1.01-0.1,1.62-0.3,1.72,0.81C643.92,325.91,643.42,325.6,642.91,324.39z"/>
	<path d="M617.33,382.53c-0.4-0.3-0.3-0.61,0.1-1.01C617.43,381.83,617.33,382.13,617.33,382.53z"/>
	<path d="M763.45,410.54c-3.54-0.71-7.18-0.81-10.42-2.73C756.57,408.12,760.01,409.23,763.45,410.54z"/>
	<path d="M741.5,404.17c1.92,0.81,3.54,0.71,4.75,1.72C744.84,405.59,743.22,405.69,741.5,404.17z"/>
	<path d="M808.75,424.9c-1.11-1.11-1.11-1.11-1.01-2.22C808.45,423.08,808.75,423.69,808.75,424.9z"/>
	<path d="M752.94,407.92c-1.38,0.07-2.46-0.53-3.45-1.52C750.77,406.4,751.95,406.78,752.94,407.92z"/>
	<path d="M753.03,407.92v0.1C752.94,407.9,752.89,407.92,753.03,407.92z"/>
	<path d="M656.76,381.02c-1.31,0-1.82-0.3-2.33-0.81C655.25,379.8,655.75,380.41,656.76,381.02z"/>
	<path d="M793.88,418.94c0.1,0,1.13,0.2-0.91,0.2C793.68,418.94,793.78,418.84,793.88,418.94z"/>
	<path d="M810.97,429.86c0,0.1,0,0.3-0.1,0.3C809.3,430.95,810.36,428.33,810.97,429.86z"/>
	<path d="M689.83,391.84c-0.2-0.1-0.4-0.1-0.71-0.1C689.43,391.63,689.73,391.33,689.83,391.84z"/>
	<path d="M693.67,392.44C693.17,392.34,693.37,392.34,693.67,392.44L693.67,392.44z"/>
	<path d="M697.21,393.15C696.81,393.05,697.01,393.05,697.21,393.15L697.21,393.15z"/>
	<path d="M701.46,393.86C701.26,393.86,701.05,393.76,701.46,393.86L701.46,393.86z"/>
	<path d="M719.76,398.11c-0.51,0-0.81-0.1-0.71-0.71C719.56,397.4,719.86,397.6,719.76,398.11z"/>
	<path d="M749.39,406.4c-0.96,0-1.92-0.01-2.87-0.61C747.54,405.76,748.55,405.65,749.39,406.4z"/>
	<path d="M746.36,405.69c0.16,0.13,0.31,0.1-0.1,0.1L746.36,405.69z"/>
	<path d="M783.67,416.31c-0.4-0.1-0.71-0.1-1.31-0.2C782.96,416,783.27,415.8,783.67,416.31z"/>
	<path d="M788.63,417.72c-0.39,0-0.35,0.25-0.81-0.2C788.12,417.52,788.42,417.32,788.63,417.72z"/>
	<path d="M581.43,179.79c-0.2,5.56,2.73,10.52,2.02,16.28C579.66,181.23,577.91,179.97,581.43,179.79z"/>
	<path d="M579.1,210.53c-0.51,4.65-2.22,8.8-5.36,12.34C575.06,218.62,578.09,214.98,579.1,210.53z"/>
	<path d="M569.29,228.53c0.91-1.31,1.52-2.73,3.03-3.44C572.02,226.81,570.61,227.62,569.29,228.53z"/>
	<path d="M568.59,204.36c1.21-0.81,2.02-0.61,2.63,0.4C570.2,205.98,569.5,205.77,568.59,204.36z"/>
	<path d="M583.55,198.59c0.71,1.01,0.61,1.92-0.61,3.13C582.34,200.11,582.14,199.2,583.55,198.59z"/>
	<path d="M580.82,203.35c0.2,1.21-0.1,1.72-1.01,1.72C579.31,204.16,580.01,203.85,580.82,203.35z"/>
	<path d="M573.14,204.36c-0.49-0.98,1.53-1.3,1.31,0.2C573.84,205.07,573.34,205.07,573.14,204.36z"/>
	<path d="M572.33,225.09c0-1.01,0.4-1.72,1.42-2.12C573.74,223.98,573.34,224.78,572.33,225.09z"/>
	<path d="M521.36,252.19c-2.22,0.4-4.04,0.4-5.56-1.11C517.72,250.77,519.54,250.37,521.36,252.19z"/>
	<path d="M519.95,344.01c-4.35-0.2-8.29-1.62-11.22-4.85C512.57,340.77,516.31,342.39,519.95,344.01z"/>
	<path d="M482.63,323.98c1.92,0.3,3.74,0.81,5.16,2.33C485.87,326.11,483.85,326.11,482.63,323.98z"/>
	<path d="M495.68,327.93c1.72,0.4,3.24,0.51,4.65,1.62C497.3,329.65,497.3,329.65,495.68,327.93z"/>
	<path d="M529.65,345.73c1.72-0.61,2.83,0.1,4.65,1.11C532.08,347.24,530.87,347.04,529.65,345.73z"/>
	<path d="M643.42,422.58c0.51,2.02,0.3,3.54-0.81,4.85C642,425.71,642.1,424.3,643.42,422.58z"/>
	<path d="M641.7,438.86c-0.4-2.02,0-3.13,1.01-4.65C643.01,435.93,643.01,437.14,641.7,438.86z"/>
<path fill="#e6e6e6" d="m206.8 163.6c0-5.1 4.1-9.2 9.3-9.2s9.2 4.2 9.2 9.2-4.1 9.2-9.3 9.2-9.2-4.1-9.2-9.2zm17.3-.1c0-4.5-3.5-8.2-8.2-8.2s-8.2 3.7-8.2 8.3c0 4.5 3.5 8.2 8.2 8.2s8.2-3.7 8.2-8.3zm-13 0c0-2.8 2.1-5.1 5.1-5.1 1.9 0 2.9.6 3.9 1.5l-1.4 1.7c-.8-.7-1.5-1.1-2.5-1.1-1.7 0-2.8 1.4-2.8 3.1s1.1 3 2.8 3c1.1 0 1.7-.5 2.5-1.1l1.4 1.4c-1.1 1.1-2.1 1.7-4 1.7-2.9 0-5-2.3-5-5.1z"/><path fill="#e6e6e6" d="m226.6 154.7h3.4l4.2 13.2 4.4-13.3h2.6l4.4 13.3 4.2-13.2h3.3l-6.2 18h-2.7l-4.4-12.8-4.4 12.8h-2.7z"/><path fill="#e6e6e6" d="m252.8 165.8c0-3.9 3.1-7 7.2-7 4.2 0 7.2 3.2 7.2 7s-3.1 7-7.3 7c-4 0-7.1-3.1-7.1-7zm11.3 0c0-2.3-1.7-4.3-4.2-4.3s-4.1 2-4.1 4.3 1.7 4.3 4.1 4.3c2.7.1 4.2-1.9 4.2-4.3z"/><path fill="#e6e6e6" d="m269.5 159.1h3.1v3c.8-2 2.4-3.4 4.8-3.3v3.2h-.2c-2.7 0-4.6 1.7-4.6 5.4v5.1h-3.1z"/><path fill="#e6e6e6" d="m279.1 153.9h3.1v11.1l5.6-6h3.8l-5.4 5.5 5.5 8h-3.5l-4.1-5.8-1.9 2v3.9h-3.1z"/><path fill="#e6e6e6" d="m291.7 165.8c0-3.9 3.1-7 7.2-7 4.2 0 7.2 3.2 7.2 7s-3.1 7-7.3 7c-4 0-7.1-3.1-7.1-7zm11.3 0c0-2.3-1.7-4.3-4.2-4.3s-4.1 2-4.1 4.3 1.7 4.3 4.1 4.3c2.6.1 4.2-1.9 4.2-4.3z"/><path fill="#e6e6e6" d="m308.2 167.6v-8.6h3.1v7.6c0 2.1 1.1 3.3 2.9 3.3s3-1.3 3-3.3v-7.6h3.1v13.4h-3.1v-2.1c-.8 1.3-2.1 2.3-4.2 2.3-3.1.2-4.8-1.8-4.8-5z"/><path fill="#e6e6e6" d="m323.9 168.8v-7.1h-1.7v-2.6h1.7v-3.7h3.1v3.7h3.6v2.6h-3.6v6.6c0 1.2.6 1.7 1.7 1.7.7 0 1.3-.2 1.9-.5v2.5c-.8.5-1.7.7-2.8.7-2.3 0-3.9-.9-3.9-3.9z"/><path fill="#e6e6e6" d="m333.2 154.7h3.2v15h9.4v2.9h-12.5v-17.9z"/><path fill="#e6e6e6" d="m356 172.5v-1.7c-.9 1.1-2.3 2-4.4 2-2.6 0-4.8-1.4-4.8-4.2 0-3 2.3-4.4 5.4-4.4 1.7 0 2.6.2 3.7.5v-.2c0-1.9-1.2-2.9-3.3-2.9-1.5 0-2.6.3-3.9.8l-.8-2.5c1.5-.7 2.9-1.1 5.1-1.1 4 0 5.9 2.1 5.9 5.7v8zm.1-5.6c-.8-.3-1.9-.5-3.1-.5-2 0-3.1.8-3.1 2.1s1.1 2 2.6 2c2 0 3.5-1.1 3.5-2.9z"/><path fill="#e6e6e6" d="m364.9 170.5v2.1h-3.1v-18.7h3.1v7.4c1-1.4 2.4-2.5 4.5-2.5 3.2 0 6.3 2.5 6.3 7s-3.1 7-6.3 7c-2.1 0-3.5-1.1-4.5-2.3zm7.7-4.7c0-2.6-1.7-4.3-3.9-4.3s-3.9 1.7-3.9 4.4c0 2.6 1.8 4.3 3.9 4.3s3.9-1.7 3.9-4.4z"/><path fill="#e6e6e6" d="m376.9 170.8 1.4-2.1c1.4 1.1 3 1.7 4.4 1.7s2.1-.5 2.1-1.5-1.3-1.4-2.8-1.8c-.1 0-.2-.1-.2-.1-2-.6-4.2-1.4-4.2-4s2.1-4.1 4.8-4.1c1.7 0 3.5.6 5 1.5l-1.2 2.2c-1.3-.8-2.6-1.3-3.8-1.3s-1.9.5-1.9 1.4 1.3 1.4 2.8 1.8c.1 0 .2.1.2.1 2 .6 4.2 1.5 4.2 4 0 2.9-2.2 4.2-5 4.2-1.9 0-4-.7-5.8-2z"/><path fill="#e6e6e6" d="m505.6 163.6c0-5.1 4.1-9.2 9.3-9.2s9.2 4.2 9.2 9.2-4.1 9.2-9.3 9.2-9.2-4.1-9.2-9.2zm17.4-.1c0-4.5-3.5-8.2-8.2-8.2s-8.2 3.7-8.2 8.3c0 4.5 3.5 8.2 8.2 8.2s8.2-3.7 8.2-8.3zm-13.1 0c0-2.8 2.1-5.1 5.1-5.1 1.9 0 2.9.6 3.9 1.5l-1.4 1.7c-.8-.7-1.5-1.1-2.5-1.1-1.7 0-2.8 1.4-2.8 3.1s1.1 3 2.8 3c1.1 0 1.7-.5 2.5-1.1l1.4 1.4c-1.1 1.1-2.1 1.7-4 1.7-2.9 0-5-2.3-5-5.1z"/><path fill="#e6e6e6" d="m525.4 154.7h3.4l4.2 13.2 4.4-13.3h2.6l4.4 13.3 4.2-13.2h3.3l-6.2 18h-2.7l-4.4-12.8-4.4 12.8h-2.7z"/><path fill="#e6e6e6" d="m551.7 165.8c0-3.9 3.1-7 7.2-7 4.2 0 7.2 3.2 7.2 7s-3.1 7-7.3 7c-4.1 0-7.1-3.1-7.1-7zm11.2 0c0-2.3-1.7-4.3-4.2-4.3s-4.1 2-4.1 4.3 1.7 4.3 4.1 4.3c2.7.1 4.2-1.9 4.2-4.3z"/><path fill="#e6e6e6" d="m568.3 159.1h3.1v3c.8-2 2.4-3.4 4.8-3.3v3.2h-.2c-2.7 0-4.6 1.7-4.6 5.4v5.1h-3.1z"/><path fill="#e6e6e6" d="m577.9 153.9h3.1v11.1l5.6-6h3.8l-5.4 5.5 5.5 8h-3.5l-4.1-5.8-1.9 2v3.9h-3.1z"/><path fill="#e6e6e6" d="m590.6 165.8c0-3.9 3.1-7 7.2-7 4.2 0 7.2 3.2 7.2 7s-3.1 7-7.3 7c-4.1 0-7.1-3.1-7.1-7zm11.2 0c0-2.3-1.7-4.3-4.2-4.3s-4.1 2-4.1 4.3 1.7 4.3 4.1 4.3c2.6.1 4.2-1.9 4.2-4.3z"/><path fill="#e6e6e6" d="m607 167.6v-8.6h3.1v7.6c0 2.1 1.1 3.3 2.9 3.3s3-1.3 3-3.3v-7.6h3.1v13.4h-3.1v-2.1c-.8 1.3-2.1 2.3-4.2 2.3-3 .2-4.8-1.8-4.8-5z"/><path fill="#e6e6e6" d="m622.7 168.8v-7.1h-1.7v-2.6h1.7v-3.7h3.1v3.7h3.6v2.6h-3.6v6.6c0 1.2.6 1.7 1.7 1.7.7 0 1.3-.2 1.9-.5v2.5c-.8.5-1.7.7-2.8.7-2.3 0-3.9-.9-3.9-3.9z"/><path fill="#e6e6e6" d="m632 154.7h3.2v15h9.4v2.9h-12.6z"/><path fill="#e6e6e6" d="m654.8 172.5v-1.7c-.9 1.1-2.3 2-4.4 2-2.6 0-4.8-1.4-4.8-4.2 0-3 2.3-4.4 5.4-4.4 1.7 0 2.6.2 3.7.5v-.2c0-1.9-1.2-2.9-3.3-2.9-1.5 0-2.6.3-3.9.8l-.8-2.5c1.5-.7 2.9-1.1 5.1-1.1 4 0 5.9 2.1 5.9 5.7v8zm.1-5.6c-.8-.3-1.9-.5-3.1-.5-2 0-3.1.8-3.1 2.1s1.1 2 2.6 2c2 0 3.5-1.1 3.5-2.9z"/><path fill="#e6e6e6" d="m663.7 170.5v2.1h-3.1v-18.7h3.1v7.4c1-1.4 2.4-2.5 4.5-2.5 3.2 0 6.3 2.5 6.3 7s-3.1 7-6.3 7c-2.1 0-3.5-1.1-4.5-2.3zm7.8-4.7c0-2.6-1.7-4.3-3.9-4.3-2.1 0-3.9 1.7-3.9 4.4 0 2.6 1.8 4.3 3.9 4.3s3.9-1.7 3.9-4.4z"/><path fill="#e6e6e6" d="m675.8 170.8 1.4-2.1c1.4 1.1 3 1.7 4.4 1.7s2.1-.5 2.1-1.5-1.3-1.4-2.8-1.8c-.1 0-.2-.1-.2-.1-2-.6-4.2-1.4-4.2-4s2.1-4.1 4.8-4.1c1.7 0 3.5.6 5 1.5l-1.2 2.2c-1.3-.8-2.6-1.3-3.8-1.3s-1.9.5-1.9 1.4 1.3 1.4 2.8 1.8c.1 0 .2.1.2.1 2 .6 4.2 1.5 4.2 4 0 2.9-2.2 4.2-5 4.2-2 0-4.1-.7-5.8-2z"/><path fill="#e6e6e6" d="m61 298.6c0-5.1 4.1-9.2 9.3-9.2s9.2 4.2 9.2 9.2-4.1 9.2-9.3 9.2c-5.1 0-9.2-4.2-9.2-9.2zm17.4-.1c0-4.5-3.5-8.2-8.2-8.2s-8.2 3.7-8.2 8.3c0 4.5 3.5 8.2 8.2 8.2s8.2-3.7 8.2-8.3zm-13.1-.1c0-2.8 2.1-5.1 5.1-5.1 1.9 0 2.9.6 3.9 1.5l-1.4 1.7c-.8-.7-1.5-1.1-2.5-1.1-1.7 0-2.8 1.4-2.8 3.1s1.1 3 2.8 3c1.1 0 1.7-.5 2.5-1.1l1.4 1.4c-1.1 1.1-2.1 1.7-4 1.7-2.8.1-5-2.2-5-5.1z"/><path fill="#e6e6e6" d="m80.9 289.7h3.4l4.2 13.2 4.4-13.3h2.6l4.4 13.3 4.2-13.2h3.3l-6.2 18h-2.7l-4.4-12.8-4.4 12.8h-2.7z"/><path fill="#e6e6e6" d="m107.1 300.8c0-3.9 3.1-7 7.2-7s7.2 3.2 7.2 7-3.1 7-7.3 7c-4 0-7.1-3.1-7.1-7zm11.3 0c0-2.3-1.7-4.3-4.2-4.3s-4.1 2-4.1 4.3 1.7 4.3 4.1 4.3c2.6.1 4.2-1.9 4.2-4.3z"/><path fill="#e6e6e6" d="m123.7 294h3.1v3c.8-2 2.4-3.4 4.8-3.3v3.2h-.2c-2.7 0-4.6 1.7-4.6 5.4v5.1h-3.1z"/><path fill="#e6e6e6" d="m133.4 288.9h3.1v11.1l5.6-6h3.8l-5.4 5.5 5.5 8h-3.5l-4.1-5.8-1.9 1.9v3.9h-3.1z"/><path fill="#e6e6e6" d="m146 300.8c0-3.9 3.1-7 7.2-7s7.2 3.2 7.2 7-3.1 7-7.3 7c-4.1 0-7.1-3.1-7.1-7zm11.2 0c0-2.3-1.7-4.3-4.2-4.3s-4.1 2-4.1 4.3 1.7 4.3 4.1 4.3c2.6.1 4.2-1.9 4.2-4.3z"/><path fill="#e6e6e6" d="m162.4 302.6v-8.6h3.1v7.6c0 2.1 1.1 3.3 2.9 3.3s3-1.3 3-3.3v-7.6h3.1v13.4h-3.1v-2.1c-.8 1.3-2.1 2.3-4.2 2.3-3 .2-4.8-1.8-4.8-5z"/><path fill="#e6e6e6" d="m178.1 303.8v-7.1h-1.7v-2.7h1.7v-3.7h3.1v3.7h3.6v2.6h-3.6v6.6c0 1.2.6 1.7 1.7 1.7.7 0 1.3-.2 1.9-.5v2.5c-.8.5-1.7.7-2.8.7-2.3.1-3.9-.9-3.9-3.8z"/><path fill="#e6e6e6" d="m187.4 289.7h3.2v15h9.4v2.9h-12.5v-17.9z"/><path fill="#e6e6e6" d="m210.2 307.5v-1.7c-.9 1.1-2.3 2-4.4 2-2.6 0-4.8-1.4-4.8-4.2 0-3 2.3-4.4 5.4-4.4 1.7 0 2.6.2 3.7.5v-.2c0-1.9-1.2-2.9-3.3-2.9-1.5 0-2.6.3-3.9.8l-.8-2.5c1.5-.7 2.9-1.1 5.1-1.1 4 0 5.9 2.1 5.9 5.7v8zm.1-5.6c-.8-.3-1.9-.5-3.1-.5-2 0-3.1.8-3.1 2.1s1.1 2 2.6 2c2 0 3.5-1.1 3.5-2.9z"/><path fill="#e6e6e6" d="m219.2 305.5v2.1h-3.1v-18.7h3.1v7.4c1-1.4 2.4-2.5 4.5-2.5 3.2 0 6.3 2.5 6.3 7s-3.1 7-6.3 7c-2.2 0-3.6-1.1-4.5-2.3zm7.7-4.7c0-2.6-1.7-4.3-3.9-4.3s-3.9 1.7-3.9 4.4c0 2.6 1.8 4.3 3.9 4.3s3.9-1.7 3.9-4.4z"/><path fill="#e6e6e6" d="m231.2 305.8 1.4-2.1c1.4 1.1 3 1.7 4.4 1.7s2.1-.5 2.1-1.5-1.3-1.4-2.8-1.8c-.1 0-.2-.1-.2-.1-2-.6-4.2-1.4-4.2-4s2.1-4.1 4.8-4.1c1.7 0 3.5.6 5 1.5l-1.2 2.2c-1.3-.8-2.6-1.3-3.8-1.3s-1.9.5-1.9 1.4 1.3 1.4 2.8 1.8c.1 0 .2.1.2.1 2 .6 4.2 1.5 4.2 4 0 2.9-2.2 4.2-5 4.2-2 0-4.1-.7-5.8-2z"/><path fill="#e6e6e6" d="m360.6 298.6c0-5.1 4.1-9.2 9.3-9.2s9.2 4.2 9.2 9.2-4.1 9.2-9.3 9.2-9.2-4.2-9.2-9.2zm17.4-.1c0-4.5-3.5-8.2-8.2-8.2s-8.2 3.7-8.2 8.3c0 4.5 3.5 8.2 8.2 8.2s8.2-3.7 8.2-8.3zm-13.1-.1c0-2.8 2.1-5.1 5.1-5.1 1.9 0 2.9.6 3.9 1.5l-1.4 1.7c-.8-.7-1.5-1.1-2.5-1.1-1.7 0-2.8 1.4-2.8 3.1s1.1 3 2.8 3c1.1 0 1.7-.5 2.5-1.1l1.4 1.4c-1.1 1.1-2.1 1.7-4 1.7-2.8.1-5-2.2-5-5.1z"/><path fill="#e6e6e6" d="m380.5 289.7h3.4l4.2 13.2 4.4-13.3h2.6l4.4 13.3 4.2-13.2h3.3l-6.2 18h-2.7l-4.4-12.8-4.4 12.8h-2.7z"/><path fill="#e6e6e6" d="m406.7 300.8c0-3.9 3.1-7 7.2-7 4.2 0 7.2 3.2 7.2 7s-3.1 7-7.3 7c-4.1 0-7.1-3.1-7.1-7zm11.3 0c0-2.3-1.7-4.3-4.2-4.3s-4.1 2-4.1 4.3 1.7 4.3 4.1 4.3c2.7.1 4.2-1.9 4.2-4.3z"/><path fill="#e6e6e6" d="m423.3 294h3.1v3c.8-2 2.4-3.4 4.8-3.3v3.2h-.2c-2.7 0-4.6 1.7-4.6 5.4v5.1h-3.1z"/><path fill="#e6e6e6" d="m433 288.9h3.1v11.1l5.6-6h3.8l-5.4 5.5 5.5 8h-3.5l-4.1-5.8-1.9 2v3.9h-3.1z"/><path fill="#e6e6e6" d="m445.6 300.8c0-3.9 3.1-7 7.2-7 4.2 0 7.2 3.2 7.2 7s-3.1 7-7.3 7c-4.1 0-7.1-3.1-7.1-7zm11.3 0c0-2.3-1.7-4.3-4.2-4.3s-4.1 2-4.1 4.3 1.7 4.3 4.1 4.3c2.6.1 4.2-1.9 4.2-4.3z"/><path fill="#e6e6e6" d="m462.1 302.6v-8.6h3.1v7.6c0 2.1 1.1 3.3 2.9 3.3s3-1.3 3-3.3v-7.6h3.1v13.4h-3.1v-2.1c-.8 1.3-2.1 2.3-4.2 2.3-3.1.2-4.8-1.8-4.8-5z"/><path fill="#e6e6e6" d="m477.8 303.8v-7.1h-1.8v-2.7h1.7v-3.7h3.1v3.7h3.6v2.6h-3.6v6.6c0 1.2.6 1.7 1.7 1.7.7 0 1.3-.2 1.9-.5v2.5c-.8.5-1.7.7-2.8.7-2.2.1-3.8-.9-3.8-3.8z"/><path fill="#e6e6e6" d="m487.1 289.7h3.2v15h9.4v2.9h-12.5v-17.9z"/><path fill="#e6e6e6" d="m509.9 307.5v-1.7c-.9 1.1-2.3 2-4.4 2-2.6 0-4.8-1.4-4.8-4.2 0-3 2.3-4.4 5.4-4.4 1.7 0 2.6.2 3.7.5v-.2c0-1.9-1.2-2.9-3.3-2.9-1.5 0-2.6.3-3.9.8l-.8-2.5c1.5-.7 2.9-1.1 5.1-1.1 4 0 5.9 2.1 5.9 5.7v8zm.1-5.6c-.8-.3-1.9-.5-3.1-.5-2 0-3.1.8-3.1 2.1s1.1 2 2.6 2c2 0 3.5-1.1 3.5-2.9z"/><path fill="#e6e6e6" d="m518.8 305.5v2.1h-3.1v-18.7h3.1v7.4c1-1.4 2.4-2.5 4.5-2.5 3.2 0 6.3 2.5 6.3 7s-3.1 7-6.3 7c-2.2 0-3.5-1.1-4.5-2.3zm7.7-4.7c0-2.6-1.7-4.3-3.9-4.3s-3.9 1.7-3.9 4.4c0 2.6 1.8 4.3 3.9 4.3s3.9-1.7 3.9-4.4z"/><path fill="#e6e6e6" d="m530.8 305.8 1.4-2.1c1.4 1.1 3 1.7 4.4 1.7s2.1-.5 2.1-1.5-1.3-1.4-2.8-1.8c-.1 0-.2-.1-.2-.1-2-.6-4.2-1.4-4.2-4s2.1-4.1 4.8-4.1c1.7 0 3.5.6 5 1.5l-1.2 2.2c-1.3-.8-2.6-1.3-3.8-1.3s-1.9.5-1.9 1.4 1.3 1.4 2.8 1.8c.1 0 .2.1.2.1 2 .6 4.2 1.5 4.2 4 0 2.9-2.2 4.2-5 4.2-1.9 0-4.1-.7-5.8-2z"/><path fill="#e6e6e6" d="m659.5 298.6c0-5.1 4.1-9.2 9.3-9.2s9.2 4.2 9.2 9.2-4.1 9.2-9.3 9.2-9.2-4.2-9.2-9.2zm17.3-.1c0-4.5-3.5-8.2-8.2-8.2s-8.2 3.7-8.2 8.3c0 4.5 3.5 8.2 8.2 8.2 4.8 0 8.2-3.7 8.2-8.3zm-13-.1c0-2.8 2.1-5.1 5.1-5.1 1.9 0 2.9.6 3.9 1.5l-1.4 1.7c-.8-.7-1.5-1.1-2.5-1.1-1.7 0-2.8 1.4-2.8 3.1s1.1 3 2.8 3c1.1 0 1.7-.5 2.5-1.1l1.4 1.4c-1.1 1.1-2.1 1.7-4 1.7-2.9.1-5-2.2-5-5.1z"/><path fill="#e6e6e6" d="m679.3 289.7h3.4l4.2 13.2 4.4-13.3h2.6l4.4 13.3 4.2-13.2h3.3l-6.2 18h-2.6l-4.4-12.8-4.4 12.8h-2.7z"/><path fill="#e6e6e6" d="m705.5 300.8c0-3.9 3.1-7 7.2-7 4.2 0 7.2 3.2 7.2 7s-3.1 7-7.3 7c-4 0-7.1-3.1-7.1-7zm11.3 0c0-2.3-1.7-4.3-4.2-4.3s-4.1 2-4.1 4.3 1.7 4.3 4.1 4.3c2.7.1 4.2-1.9 4.2-4.3z"/><path fill="#e6e6e6" d="m722.1 294h3.1v3c.8-2 2.4-3.4 4.8-3.3v3.2h-.2c-2.7 0-4.6 1.7-4.6 5.4v5.1h-3.1z"/><path fill="#e6e6e6" d="m731.8 288.9h3.1v11.1l5.6-6h3.8l-5.4 5.5 5.5 8h-3.5l-4.1-5.8-1.9 2v3.9h-3.1z"/><path fill="#e6e6e6" d="m744.4 300.8c0-3.9 3.1-7 7.2-7 4.2 0 7.2 3.2 7.2 7s-3.1 7-7.3 7c-4.1 0-7.1-3.1-7.1-7zm11.3 0c0-2.3-1.7-4.3-4.2-4.3s-4.1 2-4.1 4.3 1.7 4.3 4.1 4.3c2.6.1 4.2-1.9 4.2-4.3z"/><path fill="#e6e6e6" d="m760.9 302.6v-8.6h3.1v7.6c0 2.1 1.1 3.3 2.9 3.3s3-1.3 3-3.3v-7.6h3.1v13.4h-3.1v-2.1c-.8 1.3-2.1 2.3-4.2 2.3-3.1.2-4.8-1.8-4.8-5z"/><path fill="#e6e6e6" d="m776.6 303.8v-7.1h-1.7v-2.7h1.7v-3.7h3.1v3.7h3.6v2.6h-3.6v6.6c0 1.2.6 1.7 1.7 1.7.7 0 1.3-.2 1.9-.5v2.5c-.8.5-1.7.7-2.8.7-2.3.1-3.9-.9-3.9-3.8z"/><path fill="#e6e6e6" d="m785.9 289.7h3.2v15h9.4v2.9h-12.5v-17.9z"/><path fill="#e6e6e6" d="m808.7 307.5v-1.7c-.9 1.1-2.3 2-4.4 2-2.6 0-4.8-1.4-4.8-4.2 0-3 2.3-4.4 5.4-4.4 1.7 0 2.6.2 3.7.5v-.2c0-1.9-1.2-2.9-3.3-2.9-1.5 0-2.6.3-3.9.8l-.8-2.5c1.5-.7 2.9-1.1 5.1-1.1 4 0 5.9 2.1 5.9 5.7v8zm.1-5.6c-.8-.3-1.9-.5-3.1-.5-2 0-3.1.8-3.1 2.1s1.1 2 2.6 2c2 0 3.5-1.1 3.5-2.9z"/><path fill="#e6e6e6" d="m817.6 305.5v2.1h-3.1v-18.7h3.1v7.4c1-1.4 2.4-2.5 4.5-2.5 3.2 0 6.3 2.5 6.3 7s-3.1 7-6.3 7c-2.1 0-3.5-1.1-4.5-2.3zm7.7-4.7c0-2.6-1.7-4.3-3.9-4.3-2.1 0-3.9 1.7-3.9 4.4 0 2.6 1.8 4.3 3.9 4.3 2.2 0 3.9-1.7 3.9-4.4z"/><path fill="#e6e6e6" d="m829.6 305.8 1.4-2.1c1.4 1.1 3 1.7 4.4 1.7s2.1-.5 2.1-1.5-1.3-1.4-2.8-1.8c-.1 0-.2-.1-.2-.1-2-.6-4.2-1.4-4.2-4s2.1-4.1 4.8-4.1c1.7 0 3.5.6 5 1.5l-1.2 2.2c-1.3-.8-2.6-1.3-3.8-1.3s-1.9.5-1.9 1.4 1.3 1.4 2.8 1.8c.1 0 .2.1.2.1 2 .6 4.2 1.5 4.2 4 0 2.9-2.2 4.2-5 4.2-1.9 0-4-.7-5.8-2z"/><path fill="#e6e6e6" d="m206.3 434.2c0-5.1 4.1-9.2 9.3-9.2s9.2 4.2 9.2 9.2-4.1 9.2-9.3 9.2-9.2-4.1-9.2-9.2zm17.4-.1c0-4.5-3.5-8.2-8.2-8.2s-8.2 3.7-8.2 8.3c0 4.5 3.5 8.2 8.2 8.2s8.2-3.7 8.2-8.3zm-13.1-.1c0-2.8 2.1-5.1 5.1-5.1 1.9 0 2.9.6 3.9 1.5l-1.4 1.7c-.8-.7-1.5-1.1-2.5-1.1-1.7 0-2.8 1.4-2.8 3.1s1.1 3 2.8 3c1.1 0 1.7-.5 2.5-1.1l1.4 1.4c-1.1 1.1-2.1 1.7-4 1.7-2.9.1-5-2.2-5-5.1z"/><path fill="#e6e6e6" d="m226.1 425.3h3.4l4.2 13.2 4.4-13.3h2.6l4.4 13.3 4.2-13.2h3.3l-6.2 18h-2.7l-4.4-12.8-4.4 12.8h-2.7z"/><path fill="#e6e6e6" d="m252.4 436.4c0-3.9 3.1-7 7.2-7 4.2 0 7.2 3.2 7.2 7s-3.1 7-7.3 7c-4.1 0-7.1-3.1-7.1-7zm11.2 0c0-2.3-1.7-4.3-4.2-4.3s-4.1 2-4.1 4.3 1.7 4.3 4.1 4.3c2.7.1 4.2-1.9 4.2-4.3z"/><path fill="#e6e6e6" d="m269 429.7h3.1v3c.8-2 2.4-3.4 4.8-3.3v3.2h-.2c-2.7 0-4.6 1.7-4.6 5.4v5.1h-3.1z"/><path fill="#e6e6e6" d="m278.6 424.5h3.1v11.1l5.6-6h3.8l-5.4 5.5 5.5 8h-3.5l-4.1-5.8-1.9 2v3.9h-3.1z"/><path fill="#e6e6e6" d="m291.3 436.4c0-3.9 3.1-7 7.2-7 4.2 0 7.2 3.2 7.2 7s-3.1 7-7.3 7c-4.1 0-7.1-3.1-7.1-7zm11.2 0c0-2.3-1.7-4.3-4.2-4.3s-4.1 2-4.1 4.3 1.7 4.3 4.1 4.3c2.6.1 4.2-1.9 4.2-4.3z"/><path fill="#e6e6e6" d="m307.7 438.2v-8.6h3.1v7.6c0 2.1 1.1 3.3 2.9 3.3s3-1.3 3-3.3v-7.6h3.1v13.4h-3.1v-2.1c-.8 1.3-2.1 2.3-4.2 2.3-3 .2-4.8-1.8-4.8-5z"/><path fill="#e6e6e6" d="m323.4 439.4v-7.1h-1.7v-2.6h1.7v-3.7h3.1v3.7h3.6v2.6h-3.6v6.6c0 1.2.6 1.7 1.7 1.7.7 0 1.3-.2 1.9-.5v2.5c-.8.5-1.7.7-2.8.7-2.3 0-3.9-.9-3.9-3.9z"/><path fill="#e6e6e6" d="m332.7 425.3h3.2v15h9.4v2.9h-12.5v-17.9z"/><path fill="#e6e6e6" d="m355.5 443.1v-1.7c-.9 1.1-2.3 2-4.4 2-2.6 0-4.8-1.4-4.8-4.2 0-3 2.3-4.4 5.4-4.4 1.7 0 2.6.2 3.7.5v-.2c0-1.9-1.2-2.9-3.3-2.9-1.5 0-2.6.3-3.9.8l-.8-2.5c1.5-.7 2.9-1.1 5.1-1.1 4 0 5.9 2.1 5.9 5.7v8zm.1-5.6c-.8-.3-1.9-.5-3.1-.5-2 0-3.1.8-3.1 2.1s1.1 2 2.6 2c2 0 3.5-1.1 3.5-2.9z"/><path fill="#e6e6e6" d="m364.4 441.1v2.1h-3.1v-18.7h3.1v7.4c1-1.4 2.4-2.5 4.5-2.5 3.2 0 6.3 2.5 6.3 7s-3.1 7-6.3 7c-2.1 0-3.5-1.1-4.5-2.3zm7.7-4.7c0-2.6-1.7-4.3-3.9-4.3-2.1 0-3.9 1.7-3.9 4.4 0 2.6 1.8 4.3 3.9 4.3 2.2 0 3.9-1.7 3.9-4.4z"/><path fill="#e6e6e6" d="m376.5 441.4 1.4-2.1c1.4 1.1 3 1.7 4.4 1.7s2.1-.5 2.1-1.5-1.3-1.4-2.8-1.8c-.1 0-.2-.1-.2-.1-2-.6-4.2-1.4-4.2-4s2.1-4.1 4.8-4.1c1.7 0 3.5.6 5 1.5l-1.2 2.2c-1.3-.8-2.6-1.3-3.8-1.3s-1.9.5-1.9 1.4 1.3 1.4 2.8 1.8c.1 0 .2.1.2.1 2 .6 4.2 1.5 4.2 4 0 2.9-2.2 4.2-5 4.2-2 0-4.1-.7-5.8-2z"/><path fill="#e6e6e6" d="m505.1 434.2c0-5.1 4.1-9.2 9.3-9.2s9.2 4.2 9.2 9.2-4.1 9.2-9.3 9.2-9.2-4.1-9.2-9.2zm17.4-.1c0-4.5-3.5-8.2-8.2-8.2s-8.2 3.7-8.2 8.3c0 4.5 3.5 8.2 8.2 8.2s8.2-3.7 8.2-8.3zm-13.1-.1c0-2.8 2.1-5.1 5.1-5.1 1.9 0 2.9.6 3.9 1.5l-1.4 1.7c-.8-.7-1.5-1.1-2.5-1.1-1.7 0-2.8 1.4-2.8 3.1s1.1 3 2.8 3c1.1 0 1.7-.5 2.5-1.1l1.4 1.4c-1.1 1.1-2.1 1.7-4 1.7-2.9.1-5-2.2-5-5.1z"/><path fill="#e6e6e6" d="m525 425.3h3.4l4.2 13.2 4.4-13.3h2.6l4.4 13.3 4.2-13.2h3.3l-6.2 18h-2.7l-4.4-12.8-4.4 12.8h-2.7z"/><path fill="#e6e6e6" d="m551.2 436.4c0-3.9 3.1-7 7.2-7 4.2 0 7.2 3.2 7.2 7s-3.1 7-7.3 7c-4.1 0-7.1-3.1-7.1-7zm11.2 0c0-2.3-1.7-4.3-4.2-4.3s-4.1 2-4.1 4.3 1.7 4.3 4.1 4.3c2.7.1 4.2-1.9 4.2-4.3z"/><path fill="#e6e6e6" d="m567.8 429.7h3.1v3c.8-2 2.4-3.4 4.8-3.3v3.2h-.2c-2.7 0-4.6 1.7-4.6 5.4v5.1h-3.1z"/><path fill="#e6e6e6" d="m577.5 424.5h3.1v11.1l5.6-6h3.8l-5.4 5.5 5.5 8h-3.5l-4.1-5.8-1.9 2v3.9h-3.1z"/><path fill="#e6e6e6" d="m590.1 436.4c0-3.9 3.1-7 7.2-7 4.2 0 7.2 3.2 7.2 7s-3.1 7-7.3 7c-4.1 0-7.1-3.1-7.1-7zm11.2 0c0-2.3-1.7-4.3-4.2-4.3s-4.1 2-4.1 4.3 1.7 4.3 4.1 4.3c2.6.1 4.2-1.9 4.2-4.3z"/><path fill="#e6e6e6" d="m606.5 438.2v-8.6h3.1v7.6c0 2.1 1.1 3.3 2.9 3.3s3-1.3 3-3.3v-7.6h3.1v13.4h-3.1v-2.1c-.8 1.3-2.1 2.3-4.2 2.3-3 .2-4.8-1.8-4.8-5z"/><path fill="#e6e6e6" d="m622.2 439.4v-7.1h-1.7v-2.6h1.7v-3.7h3.1v3.7h3.6v2.6h-3.6v6.6c0 1.2.6 1.7 1.7 1.7.7 0 1.3-.2 1.9-.5v2.5c-.8.5-1.7.7-2.8.7-2.3 0-3.9-.9-3.9-3.9z"/><path fill="#e6e6e6" d="m631.5 425.3h3.2v15h9.4v2.9h-12.5v-17.9z"/><path fill="#e6e6e6" d="m654.3 443.1v-1.7c-.9 1.1-2.3 2-4.4 2-2.6 0-4.8-1.4-4.8-4.2 0-3 2.3-4.4 5.4-4.4 1.7 0 2.6.2 3.7.5v-.2c0-1.9-1.2-2.9-3.3-2.9-1.5 0-2.6.3-3.9.8l-.8-2.5c1.5-.7 2.9-1.1 5.1-1.1 4 0 5.9 2.1 5.9 5.7v8zm.1-5.6c-.8-.3-1.9-.5-3.1-.5-2 0-3.1.8-3.1 2.1s1.1 2 2.6 2c2 0 3.5-1.1 3.5-2.9z"/><path fill="#e6e6e6" d="m663.3 441.1v2.1h-3.1v-18.7h3.1v7.4c1-1.4 2.4-2.5 4.5-2.5 3.2 0 6.3 2.5 6.3 7s-3.1 7-6.3 7c-2.2 0-3.6-1.1-4.5-2.3zm7.7-4.7c0-2.6-1.7-4.3-3.9-4.3s-3.9 1.7-3.9 4.4c0 2.6 1.8 4.3 3.9 4.3s3.9-1.7 3.9-4.4z"/><path fill="#e6e6e6" d="m675.3 441.4 1.4-2.1c1.4 1.1 3 1.7 4.4 1.7s2.1-.5 2.1-1.5-1.3-1.4-2.8-1.8c-.1 0-.2-.1-.2-.1-2-.6-4.2-1.4-4.2-4s2.1-4.1 4.8-4.1c1.7 0 3.5.6 5 1.5l-1.2 2.2c-1.3-.8-2.6-1.3-3.8-1.3s-1.9.5-1.9 1.4 1.3 1.4 2.8 1.8c.1 0 .2.1.2.1 2 .6 4.2 1.5 4.2 4 0 2.9-2.2 4.2-5 4.2-2 0-4.1-.7-5.8-2z"/></g>
</svg>
