<?xml version="1.0" encoding="utf-8"?>
<!-- Generator: Adobe Illustrator 23.0.1, SVG Export Plug-In . SVG Version: 6.00 Build 0)  -->
<svg version="1.2" baseProfile="tiny" id="Layer_1" xmlns="http://www.w3.org/2000/svg" xmlns:xlink="http://www.w3.org/1999/xlink"
	 x="0px" y="0px" viewBox="0 0 900 600" xml:space="preserve">
<g>
	<path d="M388.88,247.41c-1.12-8.67-4.6-16.94-4.49-26.02c0.14-10.82-7.58-34.13-11.83-39.79c-2.89-3.84,0.18-10.38-7.65-19.18
		c-14.79-16.63-6.26-27.14-16.12-38.16c-4.07-4.54-8.14-8.47-8.77-15.71c-2.38-27.14-23.52-39.95-41.93-36.12
		c-0.95,0.2-5.16,4.3-12.65,3.16c-9.19-1.4-3.55,2.92-26.22-0.31c-4.24-0.6-4.01-1.99-8.16-15.1c-0.71-2.25-1.09-4.33,1.43-5.92
		c1.24-0.79,1.5-2.22,0.61-3.26c-2.73-3.2,3.28-13.49-8.16-17.45c-5.6-1.94,3.88-3.02-17.65-24.08c-1.34-1.31-2.96-1.94-4.49-0.31
		c-1.22-0.82-2.24-1.43-3.37-2.14c-0.2-1.43,0.31-2.86-0.31-4.49c-2.24,0.41-3.98-0.92-5.51-2.55c-2.45,1.63-3.37,4.39-5.41,6.63
		c0-2.24,1.02-3.98-0.2-5.92c-3.06,1.12-2.65,3.88-3.47,6.43c-1.12-0.41-2.02-1.81-3.37-0.92c-1.37,0.91-1,1.3-3.67,7.55
		c-9.72,1.5-11.17,11.9-14.08,20.3c-2.08,5.99,1.81,9.46,1.43,15.41c-0.09,1.43,0.92,2.75,2.86,2.75c-0.1,1.53,0.07,2.98,1.02,4.18
		c2.21,2.79,0.48,13.22,7.86,18.57c3.02,2.19,3.43,4.98,5.41,4.49c3.78-1.47,0.23-11.46,11.32,15c4.44,10.58-7.46,11.67-15.41,31.63
		c-5.31,13.34-25.8,15.39-25.51,45.3c0.02,2.14-1.02,4.49,0.82,6.63c-2.75,2.96-4.1,6.82-6.53,9.9c-2.57,3.25-4.27,6.94-3.98,11.02
		c0.53,7.45-1.33,14.59-1.73,21.93c-1.4,25.5,14.19,24.26,30.29,33.27c8.1,4.53,29.21,8.93,35.91,9.39
		c7.91,0.54,6.58-2.58,20.71,2.65c0.61,1.02,0.42,2.25,0.1,3.26c-8.65,27.95-6.86,70.06-18.26,104.06
		c-1.44,4.28-0.82,8.88-2.75,13.16c6.33,2.45,12.04,5.51,18.67,6.63c0.51,7.45,0.43,14.59,1.63,21.63
		c2.1,12.31-4.67,26.36-2.55,39.59c2.91,18.14,8,45.08,8.57,47.03c0.03,0.1,11.34,41.95,13.37,45.09c5.99,9.31,2.71,1.23,3.57-0.71
		c0.68-1.08,1.94-1.21,3.31-1.04c-4.04,5.67-0.04,6.87-3.2,9.41c-1.02,0.2-1.02-1.53-2.04-1.12c-1.43,5.1-4.08,10.1-2.35,15.71
		c-2.86,3.47-3.67,7.86-4.9,11.94c1.84,2.65,5.31,3.47,6.63,6.73c0.61-2.35,0.61-2.35-4.18-7.24c0.22-2.38,4.76-8.61,3.88-15.61
		c-0.42-3.36-0.13-7.1,4.18-9.08c2.74-1.26,2.75-4.8,3.06-7.86c4.8-2.65,9.79-3.77,15.2-2.96c0.2,2.75-0.41,4.69-1.12,6.63
		c1.33,0.31,2.55,0.92,1.84,2.96c-10.63-4.09-18.6,2.82-14.82,4.43c-0.1,0.1-0.28,1.67,0.54,2.31c3.47-2.45,7.24-0.41,10.92-0.31
		c-3.57,1.22-7.75,0.92-10.71,4.28c1.8,1.58,5.22-0.22,4.39,0.61c0.99-0.5-1.93,0.95-1.84,2.86c4.9,0.51,9.69-1.43,15.3-0.71
		c-3.31-4.36-7.49-2.53-13.24-2.24c4.52-2.21,9.14-1.41,13.85,0c0-1.54,1.1-1.42-4.27-4.09c0.82-0.72,1.7,0.2,2.24-0.71
		c-2.24-3.57-9.49-4.69-16.43-2.65c4.8-4.18,9.9-1.96,14.69-0.51c4.01,1.22,3.59,6.33,4.08,6.53c0.51,0.2,0.71,0.71,0.71,1.22
		c0.05,7.45,5.23,12.01,9.59,17.04c3.42,3.94,1.1,7.62,4.39,11.73c0.41-0.2,0.82-0.41,0.82-0.51c-0.51-5,0.2-10.2-4.69-14.08
		c-8.46-6.7-4.91-15.18-12.04-25.61c-4.06-5.93,1.54-7.63-5.1-15.81c-1.11-0.28-2.24-0.35-2.24-2.24
		c-0.64-7.32-4.46-26.39,1.63-51.62c5.52-22.86-4.47-38.44-2.86-58.97c0-3.19,3.71-3.28,4.49-21.02c0.11-2.45,1.43-4.49,2.04-6.84
		c15.64-3.13,5.87-0.59,10-44.18c0-0.1-0.1-0.2-0.41-0.61c-1.73,3.57-1.96,7.24-2.45,10.92c-3.06,23.19,4.53,31.26-5.31,30.71
		c-19.25-1.07-12.16,3.12-31.83-1.33c-10.9-2.47-23.53-3.57-30.91-7.96c-1.19-5.07,1.76-1.94,8.06-40.1
		c3.63-21.97,3.16-0.71,3.16-23.47c2.65-0.1,1.94,4.18,5.1,3.47c-0.41-3.37-3.37-4.9-4.9-7.24c0.2-17.55,8.04-38.82,7.04-41.83
		c-1.69-5.08,4.53-7.94,2.86-10c1.94-0.41,3.57-1.22,4.59,0.82c3.77-2.96-5.98-5.04,20.1-8.67c4.81-0.67,4.1,3.71,12.04,2.55
		c5.92-0.87,11.93-0.61,17.85-0.51c0.51,0.01,0.92,0.31,1.12,1.12c-1.63,0.82-3.57-1.02-5.31,0.31c2.1,1.83,23.18,4.06,27.65,2.14
		c5.8-2.49,12.14-0.92,17.96-3.16c1.33,3.57,3.37,6.02,5.71,8.26c-0.41,3.26-1.63,6.33-1.73,9.9c-1.73-1.02-1.53-4.08-4.49-3.57
		c0.61,5,4.28,9.39,3.16,14.49c1.33,0.71,1.22-0.71,1.84-0.92c3.56,14.97,9.69,14.78,10.51,21.12c3.17,24.64-0.95,4.18,3.37,34.59
		c2.37,16.71-0.36,30.94,0.2,32.44c2.34,6.23-0.92,11.94-0.92,17.96c-3.16,1.02-5.72,2.59-9.08,2.04
		c-3.82-0.62,0.05,1.17-28.46,5.31c-3.42,0.5-23.09-11.45-27.04-10.51c1.9,4.32,9.86,3.27,8.67,8.47c-0.28,1.23,1.52,1.94,2.14,3.16
		c8.17,16.05-2.42,36.36,3.37,71.52c0.02,0.11,12.72,24.8,16.32,43.05c1.25,6.32,1.72,12.86,3.88,19.08
		c2.27,6.57-3.07,11.26-1.63,18.77c0.1,0.51,0.2,1.12,0,1.43c-2.54,4.02-3.37,8.77-5.2,13.06c-2.33,5.44,2.71,9.33,6.94,10.3
		c5.62,1.3,11.53,0.41,17.14,2.65c0.92,4.39,4.91,5.16,8.47,5.92c4.04,0.86,15.87,2.54,18.77-0.41c2.78-2.83,8.98-3.47,13.16-1.43
		c-4.08,1.02-8.16,0.71-11.73,2.75c4.9-0.31,9.79-0.41,14.79-1.94c1.62-20.74-16.05-22.66-17.55-29.48
		c-1.46-6.65-7.97-6.66-11.32-13.37c-1.63-2.14-3.47-3.47-5.92-3.37c0.31,1.02-0.1,1.33-1.43,1.73c-6.7,1.18-13,5.51-8.47,5.51
		c-0.51,1.33-1.43,2.86,0.41,3.67c3.47-3.67,7.35-1.33,11.02-1.43c-2.45,1.33-6.22,0.51-7.24,4.8c2.71,0.52,15.13-2.69,17.75,0.41
		c-5.1,1.02-10.71,0.51-15.2,4.49c3.21,3.21,17.21-4.05,17.65,0.61c-4.28-0.1-8.47,0-12.14,2.65c4.69,1.43,9.18,0,13.57-0.51
		c2.18,0.95,14.05,9.48,14.28,11.32c0.2,3.47,1.53,6.63,2.35,10.2c-14.84-3.32-16.94,4.43-23.06,3.67
		c-23.26-2.88-12.72-5.38-19.89-12.55c-1.02,1.63,1.22,2.75,0,4.18c-3.04-2.02-5.55-0.81-16.02-2.45
		c-13.23-2.07,2.66-15.3,0.51-31.02c3.67,3.26,7.04,3.98,8.16,1.94c1.63-2.96,3.88-4.9,7.14-6.12c-3.57-1.33-2.75-4.69-4.39-6.94
		c4.28-1.43,8.67-0.2,12.55-2.35c1.04,3.82-1.08,9.08,2.45,8.16c1.55-4.83,1.36-11.1-3.57-10.61c-1.84,0.18-3.67,0-5.82,0
		c-0.41-3.37-0.82-6.84-1.33-10.51c-2.41,14.89,4.19,9.27-9.49,11.63c-1.22-3.26-1.12-6.63-2.65-10.2c-1.02,3.88,0,7.04,0.61,10.1
		c-0.71,0.92-1.84,0.92-3.06,1.33c-0.92-6.12-1.93-12.04-2.65-17.96c-1.83-14.9-15.28-34.49-17.24-51.11
		c-1.13-9.56,1.02-21.47-0.31-31.73c-0.47-3.61,4.27-7.23,0.92-19.38c-1.26-4.58-2.65-9.08-4.08-13.98
		c10.32,3.61,11.18,10.18,36.32,0.31c1.84,2.96,1.84,5.1,1.33,7.35c-3.55,15.39,2.09,40.53,2.55,43.67
		c3.06,20.77,0.3,73.97,2.75,79.58c2.69-0.45,0.16,1.1,1.22-57.24c0-0.11,0.73-20.22-1.12-23.47c-2.5-5.8-5.65-27.87-1.94-49.07
		c5.1-0.82,10.3-1.33,15-4.49c0-6.33,1.97-12.66,1.12-19.38c-0.49-3.88,0.71-8.06,0.71-12.24c0-15.05-4.74-45.9-4.28-53.26
		c0.92-0.31,1.53,0.41,2.24,0.82C410.33,339,446.36,264.65,388.88,247.41z M288.49,541.64c-3.13,0.53-10.43,1.74-15.1,3.06
		C279,541.54,285.74,540.01,288.49,541.64z M252.78,403.4c0.51-2.24-0.31-4.69,0.71-7.14c11.32,3.67,22.55,0.1,33.67,0.41
		c0.61,5-3.98,5.31-6.02,7.65c-0.82,5,0,10.61-5.92,13.67c1.34,0.67-0.54,1.11,7.04-2.86c1.33-3.16,0.82-6.73,0.82-10.2
		c0.82-0.31,1.63-0.61,2.55-1.02c3.32,5.37-3.01,12.82-3.26,19.79c-0.79,21.59,6.14,32.71,3.67,51.83
		c-1.58,12.25-3.88,24.49-4.59,36.93c-0.51-3.37-1.12-6.63-1.63-10c-1.12,5.51-0.1,10.81,1.84,15.81
		c2.45,6.32,1.33,13.06,3.16,19.38c-6.12,1.63-11.83,3.16-17.65,5.61c-0.2-5.41-2.93-9.91-4.39-14.79
		c-2.34-7.84-15.23-66.32-15.3-72.33c-0.46-39.55,5.31-8.43,0.82-62.34C252.68,396.06,250.03,400.95,252.78,403.4z M353.78,283.73
		c0-5.67-0.09-5.1,0.2-5.1C353.99,284.29,354.08,283.73,353.78,283.73z M357.76,546.74c5.31-1.63,5.61-1.63,7.65,1.02
		C362.76,547.56,360.42,547.66,357.76,546.74z M338.18,536.95c1.43-2.14,3.67-2.04,6.02-1.94c1.22,2.14,2.45,4.08,2.96,7.04
		c-2.65,0.92-3.67,3.67-5.31,5.41C338.79,546.34,337.97,543.89,338.18,536.95z M282.57,77.64c7.85-0.26,11.54-1.15,13.68-2.04
		c-1.88,1-3.22,2.88-2.87,4.79c2.14-2.24,4.8-3.47,7.96-5c-1.38-0.69-2.91-0.65-4.27-0.16c4.08-2,1.9-3.41,25.8,3.93
		c1.7,0.52,10.72,16.49,11.63,18.06c5.86,10.04-0.72,15.62,2.55,17.65c3.71,2.29,5.5,6.34,8.26,9.49c3.15,3.58,5.91,7.75,6.22,12.55
		c1.4,21.68,16.07,27.81,17.55,39.69c1.17,9.42,6.7,8.13,9.9,26.83c2.49,14.58,3.16,29.48,7.86,44.07
		c-4.69-0.71-8.88,0.41-13.37,1.33c-0.2-3.47-2.74-5.41-3.67-8.16c-5.21-15.32-24.32-40.33-24.49-40.91
		c-20.43-57.51-16.46-53.8-14.08-70.91c1.63-11.73-4.59-20.71-10.71-29.69c-0.1-0.1-0.31,0-1.22-0.1
		c2.86,6.63,6.43,12.75,7.14,19.69c0.72,7.04,2.04,14.08-0.71,21.02c-23.42-8.29-28.48-25.66-45.2-47.95
		c-0.72-1.43,1.63-1.65,1.63-3.47c-3.61,1.97-1.46,3.02-12.24-8.77C274.51,79.27,278.49,77.77,282.57,77.64z M251.46,73.86
		c1.43,0.92,1.53,2.24,2.45,3.26c7.65,1.12,7.75,1.22,11.73,7.45c6.9,6.9,13.14,51.83-1.94,48.87
		c-20.12-3.95-40.05-11.23-46.93-30.51c2.86-5-0.41-9.28-1.63-13.77c4.08-0.41,3.37,4.59,6.33,5.41c-0.2-1.43-1.43-2.14-1.43-3.88
		c5,3.37,10,5.82,15.51,1.63c7.09,7.09,12.26,3.94,10.61,1.63c-1.63-0.41-2.65,1.43-4.59,0.82c-0.71-1.43-2.45-2.35-3.88-4.08
		C247.27,89.07,250.23,82.13,251.46,73.86z M249.62,42.03c2.24,2.24-0.1,4.69,0.1,7.04C247.48,46.73,249.31,44.38,249.62,42.03z
		 M244.82,35.81c1.02,1.02,0.41,1.73-0.41,2.65C243.91,37.24,243.91,36.52,244.82,35.81z M229.11,17.34
		c-0.92,2.04-1.22,2.35-1.94,1.53C227.58,18.06,227.89,17.24,229.11,17.34z M206.97,26.42c-1.12-0.31-1.02-1.22-1.22-2.55
		C206.77,24.79,207.28,25.4,206.97,26.42z M199.32,27.65c-0.41,0.51-0.82,0.51-1.12-0.31C198.61,27.34,199.22,26.73,199.32,27.65z
		 M194.53,21.94c0.44,0.22,0.85,0.03,0.41,0.92C194.49,22.63,194.08,22.83,194.53,21.94z M193.4,62.13c0.71,0.1,1.33,0.31,1.02,1.53
		C193.71,63.46,192.89,63.56,193.4,62.13z M195.55,71.11c-1.12-1.33-1.94-2.75-1.94-4.59C196.26,67.34,195.95,69.17,195.55,71.11z
		 M198.4,73.46c-0.71-0.1-1.22-0.31-1.12-1.22C198.46,72.38,198.57,73.29,198.4,73.46z M200.85,76.01
		c-1.39-0.97-2.62-2.38-2.24-2.75C201.36,72.74,201.36,72.84,200.85,76.01z M212.99,83.46c-6.69-10.36-13.81-12.71-16.22-26.63
		c-2.5-14.43,1.16-17.86-0.51-21.12c-0.1-0.2,0.2-0.41,0.31-0.71c0.92-0.1,1.12,2.04,2.35,0.71c0.51-0.92-0.61-1.22-0.71-1.94
		c9-7.55,13.33-0.9,14.49-5.2c0.77-2.87,3.65-3.18,5.41-4.8c1.01-0.93,2.96-0.82,4.69-1.22c0.31,0.61,0.31,1.63,1.33,1.63
		c1.22-0.2,0.51-1.84,1.73-2.35c0.51,1.22,0.51,2.75,1.94,3.16c3.25,0.62,4.73,5.85,8.16,9.28c3.6,3.6,0.29-2.94,11.02,16.43
		c3.6,6.49-2.14,3.43,1.33,21.53c0.7,3.67-0.48,7.06-2.04,10.41c-2.33,4.99-6.2,3.21-8.98,5.92c-4.13,4.03-8.88,3.38-13.57,1.43
		C219.82,88.37,215.43,87.24,212.99,83.46z M256.86,261.59c-3.37,2.84-5.34,0.5-7.14-0.1c-1.02,0.2-0.82,1.63-2.14,1.94
		c-0.92-0.31-2.54-0.21-3.57-0.92c-8.23-5.67-11.48,4.47-41.93-7.65c3.77,1.02,7.74,0.22,11.43,2.45c2.54,1.54,5.71,1.73,9.18,0.92
		c-9.79-4.08-20.2-3.06-29.48-7.45c-0.61,0.1,0.31,1.12-0.71,1.43c-15.17-10.11-23.69-6.46-27.24-16.02
		c-5.57-15,0.31-23.5-0.41-30.91c-0.94-9.69,3.88-17.04,9.08-24.18c1.63,2.65,1.53,5.82,4.08,8.26c0.73-3.29-5.68-14-2.96-24.49
		c1.8-6.95,4.18-13.16,9.28-18.26c16.39-16.39,20.32-30.85,27.34-36.12c2.35,4.18,4.69,8.16,6.94,12.14
		c-1.22,1.33-3.06,1.22-3.88,2.75c1.84,0.41,3.37-1.02,5-0.82c11.12,15.3,16.32,48.26,9.59,60.4c-15.33-2.67-16.08-7.48-19.69-7.14
		c-4.89,0.46-9.49,2.55-13.26,5.92c4.18-0.61,8.77-0.31,11.83-4.39c3.09,3.47,2.66-1.39,0,8.77c-1.55,5.92-2.88,24.76-15.92,33.77
		c-3.88-1.12-7.75-2.96-12.04-2.55c10.61,4.59,21.73,7.75,30.71,15c0.1,1.22-1.53,0.61-1.22,1.94c12.47,4.75,11.08,5.48,28.97,8.77
		c3.98,0.73,5.09-0.31,6.84-3.98c7.01-14.69,1.34-6.26,25.1-8.06c1.86,0-0.15,0.19,11.53,5c-21.64-0.46-22.2-3.53-27.44-3.06
		c11.12,5,23.47,3.16,34.99,6.73c-1.33,3.67-4.18,2.32-6.22,2.14c-6.73-0.59-13.57,0.41-20.3-0.51c-0.97,4.87,15.69-0.58,25.91,6.02
		c-1.22,5.42-6.27-0.42-24.59,0.92c-1.23,0.09-2.55,0-2.04,2.45c6.94,0.71,14.28-1.43,21.42,0.61
		C281.06,259,265.95,253.91,256.86,261.59z M223.91,185.99c7.26,1.38,6.94-0.14,3.37,5.82
		C226.05,189.76,225.13,188.03,223.91,185.99z M230.54,202.41c18.45,18.96,17.39,24.96,19.38,27.95
		c-6.92,7.72-4.09,14.78-10.81,12.96c-1.66-0.45-21.31-5.77-24.18-8.37c-5.84-5.28-11.63-10.61-19.89-11.73
		c0.41-1.63,1.43-2.56,2.65-3.26c5.45-3.15,10.85-17.97,11.22-24.89c0.24-4.39,1.94-8.47,2.96-12.96c6.23,2.57,8.52,1.31,10.92,8.06
		C224.45,194.85,227.07,198.85,230.54,202.41z M303.49,256.49c1.12,0.1,2.04-0.31,2.45,1.02
		C305.02,257.92,304.2,258.12,303.49,256.49z M290.12,254.55c2.96,1.53,6.12,1.84,9.18,2.65c-5.82,0.41-11.53,3.06-18.06,0.41
		c2.35-1.12,3.88-2.24,4.39-4.08c1.33-0.51,2.96,0,4.18-1.33c-0.41-1.12,1.26-1.95,0.82-3.26c-0.86-2.57-3.77-1.94-5.51-3.37
		c1.94,0.2,3.67-0.2,5.41-0.51c0.31-1.33,0.61-2.86-0.41-4.59c-3.47-0.82-5.92-3.88-9.28-5.82c3.98,0,8.06,0,12.04,0
		c-4.39-1.43-8.98-1.62-13.26-1.02c-3.67,0.52-5.51-1.53-8.16-2.45c8.16-2.45,16.73-3.16,24.69-6.12
		c-20.95,2.77-26.74,5.82-40.81,5.82c6.84-2.35,14.18-2.55,21.02-4.9c-5.9,0.29-19.34,1.64-24.38,4.69
		c-4.28-14.9-14.59-25.71-23.87-37.24c1.22-2.14,3.37-3.67,3.16-6.22c0.92-0.71,2.24-0.1,3.06-1.02c-0.71-0.61-2.14-0.1-2.35-1.53
		c12.9-25.8-14.28-69.46-17.04-75.09c-0.5-1.02-1.12-2.24,0.61-3.16c3.94,7.09,3.16,8.18,5.41,10.61
		c20.74,22.44,38.97,17.12,43.97,17.85c13.5,1.97,15.08-38.26,0.82-52.64c-2.98-3-0.69-4.12,1.94-1.12
		c14.32,16.31,12.85,18.34,27.55,37.34c18.97,24.52,27.75,20.29,29.38,25.2c-0.92,0.82-1.53-1.02-2.65,0.2
		c-0.51,1.63-2.55,2.86-2.86,5.41c2.86-0.61,4.08-3.67,7.14-2.96c3.9,14.32,2.9,11.8,3.98,15.2c2.9,9.11-2.79,9.93,0.1,13.37
		c0.82-1.94,1.43-3.47,2.24-5.61c2.35,7.04,1.53,13.98,4.59,20.4c-1.43-0.51-1.12-2.14-2.65-1.84c-0.6,4.23,3.36-1.76,8.77,30.2
		c2.25,13.26-1.78,4.15,3.26,29.38c-5,2.24-10,3.26-15.2,3.67c1.84-11.94,2.65-23.67,3.37-35.2c-2.55,11.83-2.86,24.08-4.69,36.12
		C312.19,258.63,292.96,251.14,290.12,254.55z M327.16,261.69c-1.94-0.51-2.86-2.65-4.8-3.16c-0.92,0.82-0.1,2.04-0.71,2.65
		c-2.04-0.2-2.55-2.35-4.18-2.35c-1.53,0.61-0.41,2.35-1.12,3.06c-2.04-0.71-2.14-3.47-4.18-3.57c-1.43,0.82,0.82,2.35-0.92,3.06
		c-1.63-0.71-3.16-1.43-3.06-4.08c6.02,0,12.04,1.12,18.16-0.92C326.44,258.43,327.56,259.85,327.16,261.69z M335.42,258.73
		c-3.57,2.96-5.2,3.57-8.16,2.86c3.37-1.12,0-3.77,1.22-5.61c3.43-2.29,2.4,1.21,4.28,1.84c0.41-1.12-0.51-2.24,0.1-3.37
		c0.82-0.41,1.53-0.61,2.55,0.1C335.42,256.57,336.15,257.71,335.42,258.73z M337.16,257.41c-0.41-1.22,0-2.45,0-3.98
		c3.47-0.71,3.26,1.43,3.47,3.37C339.3,256.9,338.38,257.81,337.16,257.41z M337.67,259.75c1.53-1.43,3.37-0.71,5.1-0.92
		C341.13,259.14,339.6,260.36,337.67,259.75z M342.87,256.28c-0.41-1.33-0.82-2.55-1.12-3.77
		C344.19,253.73,344.19,253.73,342.87,256.28z M347.66,250.47c-0.41,0.82-1.43,1.43-0.82,2.55c0.51,0.92,1.12,1.84,0.31,2.96
		C345.52,251.79,345.52,251.69,347.66,250.47z M346.85,258.02c1.02-0.71,1.94-1.33,3.16-0.61
		C348.99,257.41,348.17,258.94,346.85,258.02z M343.89,201.8c6.22,7.45,17.04,25.2,25.51,43.26c-7.45,2.24-12.55,7.24-16.83,13.37
		C347.46,239.76,347.46,220.78,343.89,201.8z M355.16,258.29c0.14-0.66,0.16-1.42,1.07-1.6
		C356.7,258.57,356.74,256.94,355.16,258.29z M354.99,258.68c-0.18,2.06,1.79,0.69,1.56-0.87c2.52-0.9,8.43-9.66,14.68-10.1
		c2.31,5.14-3.56-2.01-16.02,18.06C353.84,264.56,351.54,259.88,354.99,258.68z M367.66,254.24c-0.1,0.41-0.2,1.43-1.02,0.92
		C366.95,254.85,367.35,254.55,367.66,254.24z M365.01,256.79c-0.51,0.71-1.02,1.73-2.55,2.24
		C363.17,257.81,363.89,257.1,365.01,256.79z M359.5,263.02c0.2-1.12,0.71-2.14,2.14-2.45C361.03,261.59,360.62,262.61,359.5,263.02
		z M359.6,263.02c-0.51,1.94-1.63,3.47-2.75,5C357.46,266.18,357.87,264.24,359.6,263.02z M354.4,275.36
		c-0.1-0.82-0.1-1.43,0.61-1.94c0.2-0.61-0.2-1.33,0.51-1.94c0.51,0.82,0,1.43-0.51,1.94C354.91,274.04,355.32,274.85,354.4,275.36z
		 M379.9,314.33c-24.59-6.32-31.66-37.27-14.28-55.09c18.91-19.4,50.78-4.69,51.01,22.85C416.81,303.73,398.93,319.22,379.9,314.33z
		"/>
	<path d="M734.03,25.91c1.63-0.92,3.98,0.2,5-2.24c-1.63-2.35-3.88-1.43-6.33-1.02c0.61-2.45,2.75-4.39,1.73-7.24
		c-2.24,0.51-3.88,2.04-6.33,2.35c0.31-0.71,1.02-1.12,0.71-1.84c-3.37-3.26-8.26-0.62-12.24-3.06c-3.67-2.25-8.37-3.06-12.45-4.49
		c-1.63,0.1-2.24,2.35-4.18,1.63c-1.33-0.82,1.22-2.04-0.82-3.16c-15.66,6.85-10.09-3.37-16.63-3.16c-1.33,1.53,0.71,2.65,0.31,4.28
		c-1.84,2.04-4.28,4.09-6.33,6.53c-2.74,3.27-5.22,6.62-8.06,9.79c-8.03,8.99-3.67,15.98-4.69,17.65
		c-4.34,7.11,0.57,10.03-5.92,25.61c-21.99,0-41.77-20.09-67.64-12.24c-7.29,2.21-6.84,10.73-26.02,13.26
		c-17.56,2.32-22,14.34-30.1,18.87c-5.23,2.93-6.67,5.57-16.43,14.69c-2.43,2.27-3.61,4.7-3.06,8.26
		c1.93,12.55,1.62,39.37,19.49,61.62c9.68,12.06,0.87,16.72,18.77,22.55c2.76,0.9,5.51,2.45,8.57,1.43
		c4.69,5.2,7.48,11.59,11.94,16.83c0.7,0.83,0.94,1.74,0.71,2.75c-1.11,4.92-0.42,9.9-0.71,14.9c-0.37,6.35-4.17,6.73-3.57,11.43
		c0.52,4.09-8.37,7.51-8.88,18.06c-0.48,10-4.02,19.27-6.02,28.87c-9.09,43.75-4.15,57.74-11.73,76.52
		c-2.26,5.6-2.45,11.63-3.77,17.34c6.22,2.45,12.04,5.51,18.67,6.53c0.82,37.1,3.98,20.32-0.82,45.3
		c-4.97,25.85,20.06,104.66,20.2,105.39c0.5,2.65,2.14,5,4.59,7.04c1.99-5.32-5.83-3.79,8.26-7.45c3.26-1.63,6.53-2.96,10.3-1.94
		c-3.26,1.12-6.73,1.84-10.3,1.94c-0.1,0.61-0.61,0.82-1.02,0.92c-8.02,1.87-2.92,7.39-6.43,10.2c-0.92,0-0.71-1.33-1.73-1.22
		c-0.31,0-0.61,0.31-0.51,0.71c0.31,2.65-2.14,4.39-2.04,7.04c0.2,5.31-0.98,10.17-3.26,14.9c-4.14,8.58,3.45,6.12,5.1,11.73
		c0.92-2.14,0.92-2.14-4.08-7.45c1.02-2.55,2.01-5.11,3.06-7.75c2.67-6.74-2.15-13.4,5-16.73c2.86-1.33,2.65-4.8,3.26-7.96
		c4.69-2.65,9.69-3.67,15.41-2.96c-0.41,2.75-0.31,4.8-1.73,6.73c2.04,0.2,2.65,1.33,2.55,3.26c-6.02-2.86-11.53-2.55-16.12,2.04
		c-0.61,2.14,2.14,2.45,1.02,4.59c4.08-2.75,7.96-0.41,11.73-0.61c-3.67,1.22-7.96,1.02-10.92,4.39c2.73,2.55,8.83-3.22,17.65,0.41
		c0.46,0.19,0.84,0.02,1.13-0.4c0.2,0.19,0.5,0.3,0.5,0.5c0,10.75,11.24,15.37,11.53,21.63c0.11,2.45,0.82,4.8,2.24,7.04
		c0.51-0.41,1.02-0.61,0.92-0.82c-0.92-4.8,0.24-10.04-4.59-13.77c-2.94-2.27-5.44-5.81-6.12-9.69
		c-2.28-12.98-8.52-17.78-7.86-21.73c0.61-2.55,0.9-5.08-1.63-7.14c-0.62-0.5-0.61-1.84-0.82-2.55c-0.82-1.02-2.14-0.31-2.86-1.12
		c-8.17-44.33,7.86-49.02,1.02-85.6c-7.07-37.8,0.64-19.74,1.94-48.26c0.1-2.14,1.43-3.98,2.24-6.33c3.93-0.19,8.12-0.41,8.8-5.5
		c0.42,1.37,1.66,1.89,2.83,2.44c9.79,4.6,3.19,1.21,7.65,8.57c9.06,14.97-2.4,38.95,3.57,71.11c0.21,1.13,13.97,26.26,17.75,51.93
		c1.42,9.68,4.57,12.7,2.55,18.77c-3.37,10.12-0.51,11.51-1.63,12.96c-2.91,3.74-3.06,8.57-5.1,12.65c-1.02,2.04-1.04,3.59,0,5.2
		c5.45,8.44,15.04,4.04,23.98,7.55c2.22,7.51,18.58,7.52,26.02,6.84c3.47-3.88,9.39-5,14.59-2.75c-4.08,1.12-8.37,0.61-12.04,2.86
		c4.9-0.31,9.9-0.41,14.9-2.04c1.02-6.12-0.46-11.47-4.08-16.32c-8.12-10.88-11.67-6.71-13.37-13.37
		c-1.63-6.37-7.8-6.58-11.12-12.96c-1.34-2.57-5.32-3.63-4.8-4.29c1.86-10.24-1.2-9.69-9.79-9.69c-0.92-3.47-0.31-6.94-1.02-10
		c-1.12,2.96-0.92,6.33-0.51,9.9c-2.96,1.22-6.02,0.61-9.08,1.12c-0.63-1.5-4.79-21.2-2.14,0c-7.09,5.32,1.42-8.51-15.81-45.5
		c-12.14-26.07-5.12-36.33-7.35-54.58c-0.36-2.94,4.37-7.06,0.71-19.69c-1.24-4.28-2.45-8.57-3.88-13.47
		c3.26,1.63,5.92,2.96,8.57,4.18c7.09,3.28,20.27-0.16,24.79-2.75c1.23-0.7,2.65-0.41,4.08-0.1c0.41,2.75,0.5,5.4-0.1,8.06
		c-1.96,8.67,0.26,13.98-1.02,19.69c-0.89,3.98,5.95,21.38,5.2,47.03c-0.09,2.95-0.78,52.94,1.53,54.89
		c2.56-0.32-0.44-1.54,1.02-56.11c0-0.11,0.86-21.14-1.43-26.02c-3.32-7.09-4.58-32.54-2.55-40.1c0.74-2.75,0.71-5.61,1.02-8.26
		c1.79-1.68,4.43-1.31,6.03-2.83c0.67,0.15,1.28,0.77,2.44,0.38c-2.45-7.86-5-15.71-2.45-24.69c1.53,2.14,2.77,4.07,4.08,5.82
		c8.37,11.15,20.6,14.27,33.06,8.16c29.51-14.47,23.2-59.67-8.98-61.42c-2.53-8.43,5.88-62.02,5.92-62.13
		c2.41-6.43,0.42-11.65-3.57-25.61c10.04-38-0.12-33.16,9.49-50.71c12.13-22.15,1.49-33.16-1.33-40.2
		c-4.25-10.61-12.82-8.33-15-17.75c-1.06-4.59-5.52-9.62-9.08-15.92c-3.31-5.85-3.06-8.37,1.33-13.37c5.49,0,7.07,2.69,10.51-1.63
		c4.61-5.8,10.24-10.94,12.45-18.36c1.42-4.76,4.52,0.3,6.02-15.1c-6.63,12.24-11.94,25.2-22.45,34.69
		c-5.82-1.53-10.51-4.39-14.79-8.26c-1.76,3.52,3.36,3.16,3.95,5.63c-2.93,1.94,0.08,3.77-5.68,6.92c0.1,1.22-0.1,2.45-0.71,4.18
		c3.44-2.04,6.43-7.83,6.43-6.53c-3.67,6.63-3.07,14.08-4.59,21.12c-3.29,15.21-13.18,16.61-17.85,12.34
		c-7.74-7.07-6.82-11.3-10.41-34.59c-0.17-1.09-0.66-2.36,0.51-3.37c-0.92-1.84-1.37-3.67-1.33-5.71
		c0.44-22.74-4.97-14.84,7.24-15.81c0.51,1.43-0.31,2.86,0.61,4.9c1.63-8.57,5.51-15.3,10.81-21.32c-2.14-1.63-2.14-1.63-2.75-4.08
		c1.02-0.51,1.73,0.92,3.16,0c0.82-1.53,1.84-3.47,2.75-5.31c-0.51-2.04-2.45-3.47-1.12-5.71c2.55,1.53,2.65,2.65,1.12,12.55
		c4.39-2.65,6.43-6.94,9.59-10.1c3.16-3.16,7.35-5.51,9.9-8.67c1.84-0.71,2.55,0.71,3.77,0.61c0.2-2.24,2.55-0.51,3.37-1.73
		c0.71-1.43-0.2-2.86,0.1-4.28c-0.82-1.22-2.86-0.71-3.06-2.55c2.35-1.33,4.69,1.02,5.61,6.12c1.63,0.41,1.02-1.43,1.84-1.84
		c4.8,0.71,9.18,2.66,13.26,5.2c2.14,1.33,4.59,0.71,7.04,1.63c-2.14,5.1-2.24,10.51-2.86,15.71c-10.92,1.02-12.96,2.45-12.55,8.57
		c1.43-0.61,1.02-2.55,2.55-3.47c1.84,1.84,4.39,1.33,7.04,1.53c2-2.8,5.66-7.75,5.51-8.67c-0.82-5,1.73-9.49,2.45-14.18
		c3.27-3.05,6.98-1.72,10.3-3.67c0.71-1.12,0.41-2.86,1.84-3.47C737.9,26.42,735.45,27.34,734.03,25.91z M605.53,555.4
		c2.14,1.42,2.24,3.47,2.62,5.45c0.3,1.53-0.38-1.8-4.92-2.88c0.61-1.22,1.94,0.31,2.45-0.92c-0.1-0.61-0.31-1.22-0.41-1.84
		c-4.49-1.63-9.28-1.84-14.08-1.84c2.75-1.63,5.69-1.67,8.47-0.71C601.72,553.37,603.96,552.58,605.53,555.4z M677.91,543.99
		c-2.55-0.2-5.2-0.41-7.75-0.61C672.81,542.87,675.57,540.32,677.91,543.99z M656.9,531.44c1.33,2.14,2.65,4.18,3.06,7.04
		c-2.75,0.71-3.57,3.57-5.71,5.61c-3.98-2.65-2.55-7.04-3.77-10.41C652.31,531.24,654.55,531.03,656.9,531.44z M651.29,545.62
		c6.82,3.74,4.48-3.7,12.65-6.43c-3.37-1.43-2.86-4.59-4.39-7.04c4.39-1.12,8.77-0.31,12.65-2.24c1.16,3.47-1.52,9.91,2.75,7.35
		c-1.17,4.7-5.21,1.16-12.34,7.55c3.37,0.2,0.31,3.47,2.75,4.18c3.26-3.77,7.14-1.33,10.81-1.53c-2.24,1.63-6.12,0.41-7.04,5
		c4.13,0,15.09-2.56,17.96,0.31c-5.2,0.92-10.71,0.51-15.2,4.29c1.55,2.32,1.95,1.03,14.39-0.71c1.23-0.17,2.86-0.61,3.06,1.53
		c-4.18,0-8.37-0.2-11.94,2.75c4.49,1.22,8.88,0,13.57-0.61c2.05,0.91,13.77,9.43,13.98,11.02c0.45,3.46,1.73,6.84,2.45,10.51
		c-14.19-3.44-16.87,4.32-23.06,3.57c-24.36-2.96-12.64-7.07-20.3-12.55c-0.41,1.63,1.33,2.65,0.51,4.28
		c-5.86-3.63-20.75,1.12-21.94-8.06c1.22-1.53,1.67-3.56,2.04-5.71c1.31-7.72,4.36-5.34,3.98-11.32
		C647.87,539.77,650.55,545.22,651.29,545.62z M595.89,401.26c0.92-0.41,1.94-0.92,2.86-1.33c4.29,8.15-6.99,11.18-2.86,36.22
		c7.41,44.88,0.05,34.11-1.22,73.25c-1.33-3.57-1.12-6.73-2.35-9.59c0,11.63,5.51,22.45,4.69,34.28
		c-5.51,1.53-11.32,3.06-16.94,5.41c-0.41-2.86-1.12-5.51-2.14-8.26c-9.42-25.49-7.74-35.85-13.98-57.64
		c-9.14-31.95,1.88-33.34-2.75-83.56c4.28,2.45,1.84,7.24,4.49,9.69c0.2-2.35-0.2-4.69,0.41-7.35c11.32,3.77,22.55,0.41,33.67,0.51
		c1.5,4.89-3.33,4.92-5.71,7.75c-0.31,2.45-0.92,5.1-0.92,7.65c0,3.16-4.08,3.47-4.39,6.63
		C596.4,410.64,597.01,409.52,595.89,401.26z M670.76,368.61c-0.79,8.14-0.89,16.69,2.86,24.18c-5.93-2.07-29.33,12.17-46.22,0.1
		c-2.48-1.77-12.14-5.41-13.86-5.41c0-27.97,1.9-45.69-0.41-35.4c-6.24,27.87,4.87,39.34-7.65,38.56
		c-12.83-0.8-17.37,1.88-25.91-0.41c-47.05-12.61-37.61,2.06-29.08-38.05c-0.61,7.65-1.12,15.3-2.55,22.85
		c2.47-2.47,3.28-17.15,3.37-19.28c0.11-2.55,1.63-5.2-0.41-7.65c-0.37-0.37,2.36-18.08,2.24-29.08c-0.5-4.98,4.41-3.19,7.04,10.51
		c2.35-5.1,1.33-7.75-5.31-15.71c0.82-12.96,2.36-25.67,6.73-37.85c0.18-0.49-0.18-14.17,7.55-25.3c5.23-7.54,2.24-7.61,5.69-5.7
		c-1.2,4.64-9.66,12.39,2.65,2.54c0.82,4.92,0.51,4.44,0.92-1.22c5,1.12,9.49,3.26,14.18,4.69c-1.94-2.45-5-2.96-7.45-4.69
		c0.51-0.82,0.51-2.04,1.84-2.35c0.82,0.92,0.61,2.24,1.43,2.86c1.33,0.61,1.43-1.53,2.75-0.92c0.31,0.71-1.33,0.82-0.61,1.84
		c5.05,3.84,10.69,6.77,16.15,10.1c-3.45-0.27-2.27,7.7-0.43,10.2c0.2-3.31,1.21-6.82,0.61-10.18c2.08,0.23,3.49,1.54,4.9,3.24
		c1.63-0.82,3.07,0.08,4.59,0.61c17.65,6.18,17.83,2.3,21.73,4.9c0,0,0.01,0,0.01,0c0.03,0.27-1.13,0.58-0.1,4.39
		c1.13,4.18,2.35,8.37,2.75,12.65c1.41-13.54-2.48-15.7-2.65-17.04c1.73,0.4,2.85-0.92,4.38-1.84c1.73,1.84,3.98,1.84,6.22,1.22
		c0.1-0.71,0.41-1.22,1.33-0.71c-0.1,0.77-0.48,0.98-1.12,0.92c1.63,1.22,4.08,1.61,5.51,1.22c4.37-1.18,8.88,0.1,12.55-1.33
		c11,14.29,3.75,35.15,6.63,52.75c1.43,8.71,0.2,23.23-1.84,29.48C669.98,353.83,672.09,354.97,670.76,368.61z M577.73,240.37
		c0-3.88-1.59-0.7-1.94-2.96c0.71,0,1.43,0.1,1.73,0.92c1.22,0.1,2.35,0.51,3.06,1.53C579.66,239.45,578.95,240.57,577.73,240.37z
		 M579.56,244.55c-1.84-1.12-0.92-2.04,0.31-3.47C580.38,242.61,580.79,243.53,579.56,244.55z M575.89,242
		c0,0.51,0.1,1.02-0.61,1.02C574.77,242.2,575.07,242,575.89,242z M580.69,239.76c1.94,0.61,3.67,1.53,5.1,2.65
		c-0.92,1.33-1.73,2.24-2.45,3.26C580.45,245.47,582.55,243.48,580.69,239.76z M592.93,245.77c4.9,2.75,9.59,5.31,14.59,8.16
		c-1.63,2.35-2.97,0.63-4.08,0.1C595.2,250.11,593.23,248.33,592.93,245.77z M611.7,255.67c1.53,1.12,1.53,1.12,0.41,2.24
		C611.29,257.51,611.39,256.79,611.7,255.67z M617.31,259.75c0.61-1.43,1.53-1.84,3.06-0.71
		C619.35,261.89,619.35,261.89,617.31,259.75z M628.33,262.51c3.77-0.1,7.35,0.92,10.92,2.14
		C635.47,264.24,631.7,264.34,628.33,262.51z M656.28,264.04c0.51-0.61,0.92-1.12,1.84-0.41
		C657.71,264.24,657.3,264.75,656.28,264.04z M670.26,248.84c0.82-7.04,0-13.57,1.12-20.3C674.44,235.37,674.75,241.9,670.26,248.84
		z M672.1,269.24c-0.1-1.43-0.31-2.96-0.41-4.39C672.91,266.28,672.51,267.71,672.1,269.24z M726.58,342.19
		c9.91,28.52-27.66,55.73-45.81,32.75c-4.91-6.22-6.12-13.36-5-21.12C679.86,325.49,717.41,315.8,726.58,342.19z M710.66,324.84
		c-19.08-2.45-34.79,11.32-37.75,32.55C672.11,332.76,694.06,318.49,710.66,324.84z M675.57,312.5c0-6.12,0.31-12.14,1.12-18.16
		c3.55,12.19,6.19,30.66,6.12,31.73c-0.3,4.69-4.39,7.04-6.94,10.51c0.92-6.22-0.41-12.55,1.84-18.36c-0.82-0.82-1.53,0.82-2.55-0.2
		c-0.41-3.57,4.08-2.65,5.2-4.9C678.93,310.87,677.1,313.42,675.57,312.5z M689.44,117.02c9.73,10.85,5.59,10.79,11.53,15.92
		c6.43,5.55,7.74,3.82,13.26,18.26c8.91,23.31-8.63,33.07-7.55,48.67c0.52,7.55-1.47,14.89-1.84,22.34
		c-0.51,10.36-4.86,12.89-3.67,13.77c0.82,0.31,0.92-1.33,2.14-0.61c3.65,21.89,3.61,11.66,0.92,30.2
		c-11.64,80.03,3.23,45.19-19.59,62.03c-0.2-5.71,0.36-10.8-0.71-15.92c-1.12-5.31,2.88-6.11-0.51-11.63
		c-0.2,1.73-0.41,2.86-0.51,3.98c-1.73-4.39-3.24-8.78-4.18-13.26c-7.31-34.66-6.78-35.65-2.86-49.89c0.92,0.1,1.22,0.92,1.63,0.71
		c-2.96-9.08-3.26-18.26-2.35-27.95c-1.43,1.12-0.41,2.45-1.84,3.26c-0.31-3.88,0.92-7.04,2.35-10.3c0.31,2.65,0.2,5.31,1.63,7.75
		c0.2-4.08,1.94-8.16-0.51-12.65c1.14-7.99,1.02-9.91,2.55-12.14c7.24-10.57,4.32-13.82,11.73-14.69c2.35,3.37,5.1,5.92,7.75,8.57
		c0.49-0.97,1.85,1.38-5.2-9.39c6.22-4.49,8.16-7.86,7.14-12.75c-3.06,3.06-4.9,7.04-8.88,8.67
		C688.32,152.32,688.73,134.77,689.44,117.02z M685.46,92.13c2.55,1.53,1.33,3.06,0,4.59C684.75,94.57,686.22,93.64,685.46,92.13z
		 M663.63,134.06c2.03,1.24,4.59,2.34,6.73,1.33c12.33-5.82,13.61-12.83,14.59-26.93c2.65,2.86,2.16,5.92,1.33,8.67
		c-3.26,10.76,2.14,35.74,2.14,54.07c-3.16,0.51-5.82,0.51-7.75,3.16c2.14,1.53-0.18,3.66,0.41,5c1.65,3.77-6.08,6.35-6.43,17.75
		c-0.18,5.92-2.86,11.02-3.98,16.43c-1.94,0.41-3.57-0.92-5.41-0.31c1.53,1.43,3.67,0.92,5,2.24c1.22,3.06,0.92,6.02-0.82,8.98
		c-6.22-0.41-11.73-3.47-17.55-5.2c5.31,3.26,11.02,5.51,17.14,6.43c0,2.45-1.63,4.18-1.22,6.43c-2.55-0.82-4.18-3.06-7.65-2.55
		c2.96,1.63,5.31,3.06,8.06,4.59c0,8.26,0,16.53,0,24.69c-15.37,1.02-30.07,7.54-5-9.9c-6.63,2.14-11.94,5.92-15.3,12.34
		c-13.5-0.9-19.32-0.09-43.87-13.37c-9.07-4.91-18.87-8.26-27.85-13.88c1.53-6.63-1.12-13.67,0.71-20.71
		c1.84,0.82,2.86,3.78,5.41,2.24c2.35-1.42,1.84-3.77,1.33-6.12c1.53,0.82,1.94,2.45,3.57,2.96c0.92-0.2,2.45,0.31,3.06-1.53
		c-6.93,0-5.32-6.96-10.81-13.77c0,1.96,0.69,2.74,3.26,13.77c0.78,3.35-2.39,5.39-4.28,1.53c-2.53-5.16-2.75-11.48-5.41-12.55
		c0.31,4.28,2.75,7.86,2.96,11.94c-6.53-5-8.88-13.47-15-18.67c-0.92,5.05-12.06-2.71-15.81-3.88c-0.67-0.34-5.83-6.83-3.16-13.06
		c-3.59,0.48-3.69-0.55-11.12-14.39c-11.4-21.23-8.66-29.86-13.77-51.73c-0.7-3.01,0.29-3.59,0.7-2.35c0.1,0.51,0.2,1.02,0.82,1.12
		c1.43-2.45,1.43-2.45,0.2-4.69c0.5-0.45,35.09-29.31,35.2-29.38c3.26-2.54,14.36-0.86,26.12-8.47c0.92,0.61-0.51,1.63,0.82,1.94
		c1.12-1.02,2.99-1.93,3.16-3.06c1.48-9.38,30.16-10.06,38.26-5.2c-3.42,4.56,0.16,1.22,5.31,5.51c0.51-1.22-0.71-1.84-0.31-2.75
		c5.61,0.31,10.81,2.35,15.81,5.1c1.02,9.69,0.92,19.38-1.63,28.97c-2.24-0.41-3.98-1.94-6.73-2.04c2.14,2.04,4.59,2.75,6.22,4.59
		c-1.73,7.55-4.82,14.37-8.26,21.02c-3.8,7.33-8.87,12.99-17.75,13.57c-3.26,0.21-5.81,2.74-9.28,2.14
		c-4.83-0.83-18.51-2.16-21.63-8.26c3.69-30.89-4.27-15.76,8.26-26.02c1.22,0,2.45,1.12,3.57,0c0.61-1.22-1.12-1.02-1.22-2.04
		c0.92-0.61,1.43-1.94,2.96-2.45c1.87,7.76,0.68,19.05,10.3,31.22c-2.04-6.02-2.66-12.34-5.1-18.16c-2.46-5.87,0.33-25.8-5.31-17.14
		c-6.95,10.68-34.22,19.25-46.01,22.85c-0.51-3.57-1.22-6.84-2.75-9.79c-2.69,1.57,2.13-1.09-1.53,36.12
		c-1.37,13.91,4.75,15.81,7.65,29.69c1.3,0.4,2.5,0.98,3.88,1.01c-6.44-15.38-11.01-23.57-8.37-35.6
		c7.14-32.47-12.99-10.61,32.14-29.48c-6.07,27.68,0.02,43.33-5.31,62.13c-0.52,1.83-1.33,3.47-0.1,5.41
		c-6.89-3.08-12.67-1.19-18.26-2.43c0.68,4.6,11.4-1.34,17.75,6.1c1.63-0.51,0-1.63,1.22-1.94c1.63-0.1,2.23,0.82,2.86,2.24
		c2.77,6.34,6.52,5.63,5.72,6.43c6.6,8.25,6.03,17.03,4.05,17.03c-4.58-1.37-1.63-8.15-7.52-14.27c-1.9-1.98-2.86-4.49-3.88-7.45
		c-0.41,2.14,7.45,20.4,11.73,28.36c1.02-1.94-0.41-3.37-0.82-5.2c7.92-1.76,2.89-12.82-3.16-18.87c-0.73-1.96-7.85-7.89-7.04-13.06
		c0.97-6.2,2.71-23.88,4.28-25.4c2.91-2.81,3.37-7.04,5.71-10.1c0.2-0.31,0.1-0.92-0.51-1.53c-2.86,1.33-2.96,5.1-5.92,6.73
		c0.2-3.57-1.53-6.94,0.92-10.41c3.16,2.75,7.55,2.86,10.3,6.12c2.4-1.74,10.59,4.93,20.81-1.02c2.39-1.59,12.73-0.83,19.38-13.77
		c9.76-18.98,7.73-25.14,8.88-26.83c3.95-5.86,2.79-20.85,2.14-27.85c1.43-0.2,2.35,0.1,3.57,0.82
		C645.96,74.7,648.25,124.66,663.63,134.06z M667.1,46.52c-1.12-3.67-1.12-3.67,1.12-5.41C671.11,44,668.83,44.05,667.1,46.52z
		 M674.44,33.46c0.71-3.47,0.71-3.47,2.75-4.18C676.28,30.71,675.46,31.93,674.44,33.46z M678.73,44.48
		c-0.31,0.41-0.82,0.71-1.02,0.2C677.34,44.14,679.35,43.25,678.73,44.48z M678.32,33.46c1.02-1.22,1.43-2.35,3.26-0.82
		C680.46,32.95,679.65,33.16,678.32,33.46z M681.79,35.61c0.31-1.53,0.82-2.04,2.04-1.43C683.83,35.3,682.91,35.4,681.79,35.61z
		 M684.34,18.77c-1.43-2.86-4.08-2.65-7.04-1.94c1.73-0.71,2.45-2.75,4.49-3.37c0.51,1.02,0.92,2.04,1.22,2.75
		c1.02,0.92,2.24-0.1,2.96,0.92C686.08,18.06,685.46,18.36,684.34,18.77z M690.87,32.04c-0.1,0.1-0.41-0.1-0.82-0.2
		c0.82-0.61,0.61-1.84,1.84-2.14C693.52,31.22,691.79,31.42,690.87,32.04z M689.44,22.34c2.45-2.14,2.55-2.24,5.61-2.24
		C693.22,20.81,691.89,22.65,689.44,22.34z M693.73,13.16c0.71-0.92,1.43-1.33,2.55-0.82C695.56,13.47,694.85,13.88,693.73,13.16z
		 M713.52,17.85c-1.02,0.51-2.14,1.02-3.37,1.12C711.58,16.53,711.58,16.53,713.52,17.85z M712.7,27.44
		c0.92,0.51,1.94,0.92,2.45,2.55C713.83,29.18,713.01,28.67,712.7,27.44z M715.97,23.57c0.2-0.51,0.51-0.71,1.33-0.61
		C716.99,23.98,716.58,24.08,715.97,23.57z M722.29,33.46c-0.82,0.1-0.92-0.31-0.71-0.92C722.19,32.65,722.5,32.85,722.29,33.46z
		 M716.07,55.19c1.33-0.2,2.14,0,2.96,0.82C717.8,56.62,717.09,56.01,716.07,55.19z M728.11,21.83c0.82-0.92,1.43-1.53,2.24-2.45
		C730.56,21.63,729.64,21.83,728.11,21.83z M732.39,30.91c0.51-2.45,0.51-2.45,2.75-1.63C734.23,29.89,733.72,30.91,732.39,30.91z"
		/>
	<path d="M307.47,328.11c4.59-3.06,1.76-27.67,2.75-38.05c0.5-5.2,1.63-10.41,2.45-15.71c2.96,0-3.17,2.83,3.16,42.54
		c-2.15-26.81-2.96-23.62-1.53-34.18c0.8-5.92-0.82-11.53-1.63-17.34c-2.81,20.76-1.79,18.06-3.16,18.06
		c0-24.27-2.06,10.15-0.71,24.08C309.89,318.88,306.67,326.68,307.47,328.11z"/>
	<path d="M300.63,330.96c-6.53,0.31-12.96-0.84-19.49-0.61c-14.47,0.5-30,19.24-21.73,13.67c7.97-5.36,17.07-12.19,25.91-11.94
		C299.33,332.49,299.53,332.24,300.63,330.96z"/>
	<path d="M619.76,587.86c-8.06-0.51-15.51,1.73-23.16,5.51c-5.41-1.73-13.16,0.31-15.92-8.47c-3.19,10.84,11.78,8.83,20.2,11.63
		c0.71-1.84-0.82-1.94-0.92-3.16C606.4,591.23,612.82,588.88,619.76,587.86z"/>
	<path d="M337.56,385.04c-2.15,1.1-2.35,2.45-1.53,7.65c3.16,0.41,6.43,1.22,8.37-2.96c1.73,1.43,3.17,3.1,5.51,2.55
		c8.57-2,0.9-14.32-5.61-5.1C341.64,384.42,339.8,383.89,337.56,385.04z M340.11,391.36c-0.41-1.12-1.53-2.04-2.86-2.35
		c0-1.63,1.02-2.55,2.55-2.55C342.8,386.46,343.16,390.82,340.11,391.36z M349.19,385.55c3.76,0.75,2.92,5.31-0.2,5.1
		C346.15,390.46,345.61,386.02,349.19,385.55z"/>
	<path d="M286.55,597.25c6.84-2.45,13.37-4.59,20.61-5.2c-3.77-2.14-16.53,0.82-22.96,5.1c-5.92-1.84-13.77,0.1-16.53-8.98
		c-1.77,9.75,5.88,9.11,20.61,11.83C288.39,598.37,287.47,598.16,286.55,597.25z"/>
	<path d="M701.79,52.95c1.12-1.63,2.65-2.45,4.69-0.61c0.61-1.84,0.91-3.05-0.1-4.28c-2.67-3.25-10.92-5.1-15.51-3.26
		c1.73,1.84,3.37,0.1,5.51,0.51c1.22,1.94,3.88,2.14,6.22,4.39C683.08,45.29,695.1,51.32,701.79,52.95z"/>
	<path d="M324.81,375.65c-3.98-11.73-9.59-22.65-18.06-31.93C312.67,354.43,319.3,364.73,324.81,375.65z"/>
	<path d="M661.39,403.4c-1.84,2.04-1.02,4.59-1.53,6.94c-1.43,2.14-4.39,2.45-5.71,5c4.8,3.67,0.2,8.47,1.73,13.06
		c2.96-4.08,3.57-8.06,1.73-12.65C663.53,413.09,660.98,407.79,661.39,403.4z"/>
	<path d="M348.68,407.18c-2.04,1.94-0.82,4.49-1.63,6.94c-1.22,2.04-4.49,2.35-5.51,4.69c-0.2,1.73,1.73,1.43,2.04,3.37
		c-0.1,2.75-1.02,6.12-0.92,9.59c3.26-2.86,4.08-7.24,2.14-12.24C350.42,416.77,348.68,411.66,348.68,407.18z"/>
	<path d="M669.24,70.19c0.31-4.28-0.2-8.57,1.73-12.65c-2.75,3.47-4.08,7.35-4.08,11.94C676.2,84.47,683.6,90.19,669.24,70.19z"/>
	<path d="M672.2,87.84c0-4.48,3.13-1.31,0.51-9.18c-1.84,0.41-0.2,2.04-1.02,2.75c-0.89,0-1.94-4.81-1.94,8.57
		c0,3.06,1.53,6.12,1.53,9.9C674.48,96.96,672.2,94.94,672.2,87.84z"/>
	<path d="M290.33,357.69c-3.47,1.22-5.14,4.18-5.31,7.35c-0.44,8.3-3.71,21.74-1.12,24.79c-0.41-7.75,2.25-14.69,2.45-21.94
		C286.45,364.12,287.98,360.75,290.33,357.69z"/>
	<path d="M262.17,290.56c-0.71,0.72-1.43,1.53-1.22,2.65c1.53,5.82,1.43,12.14,3.26,18.06c1.15-23.84-9.34-11.05,9.49-29.38
		C271.49,280.17,271.8,280.75,262.17,290.56z"/>
	<path d="M591.4,564.7c5.41,0.71,10.2-1.33,15.41-0.51C603.13,560.31,594.87,560.52,591.4,564.7z"/>
	<path d="M280.12,260.26c-3.57,5.51-2.35,16.83,2.24,20.3C278.9,273.73,280.33,266.89,280.12,260.26z"/>
	<path d="M358.07,389.32c1.93-0.84,0.82,2.04,2.96,1.73c0.51-2.55,0.2-5-0.2-7.45c-2.09-1.18-8.32-0.23-6.53,3.47
		c0.73,1.52,1.63,2.86,0.2,4.49C356.95,391.87,356.94,389.82,358.07,389.32z M359.29,385.75c-1.02,1.84-2.04,1.94-3.67,0.2
		C357.05,384.93,358.07,384.53,359.29,385.75z"/>
	<path d="M705.87,79.48c-4.49-2.04-9.59-2.45-14.08-4.29c-1.47,2.93,0.5,2.33,13.67,5.92C705.56,80.5,705.66,79.99,705.87,79.48z"/>
	<path d="M693.22,82.54c2.14,2.75,5.51,3.77,8.37,2.35C699.85,80.5,696.79,79.68,693.22,82.54z"/>
	<path d="M345.11,322.29c-4.18-7.45-8.77-14.69-13.77-21.93C331.44,303.21,340.83,318.21,345.11,322.29z"/>
	<path d="M333.89,455.13c-1.63,3.98-1.63,7.55,0.1,17.34C335.22,469.21,335.01,457.27,333.89,455.13z"/>
	<path d="M331.34,413.3c-2.14,1.02-4.9,0.2-7.35,1.73c3.92,2.8,10.61,2.21,10.61-7.04C332.46,409.62,332.87,412.07,331.34,413.3z"/>
	<path d="M647.1,451.25c-3.06,5.61-0.92,11.22-0.1,16.73C648.73,462.37,646.39,456.76,647.1,451.25z"/>
	<path d="M607.82,594.8c4.9,1.94,9.49-0.2,14.28-0.41c0-0.51-0.1-1.02-0.2-1.53C617.11,592.35,612.52,593.98,607.82,594.8z"/>
	<path d="M643.53,409.93c-1.43,0.92-4.39-0.51-6.63,1.63c3.68,2.32,10.51,2.14,10.51-7.14C645.16,405.85,645.67,408.2,643.53,409.93
		z"/>
	<path d="M294.92,598.37c3.47,1.63,7.96,1.33,14.28-0.61C307.36,595.92,307.06,595.92,294.92,598.37z"/>
	<path d="M595.89,569.19c3.37,0,6.53-1.02,9.9-2.24C602.21,565.01,598.44,565.82,595.89,569.19z"/>
	<path d="M283.29,573.17c3.26-0.41,6.43-1.12,9.59-2.55C289,568.68,285.12,569.6,283.29,573.17z"/>
	<path d="M325.73,273.22c-0.93,3.34,0.71,2.91,2.14,14.39C327.77,282.71,329.5,277.5,325.73,273.22z"/>
	<path d="M336.03,276.08c0.51,3.47,2.86,5.2,5.82,6.53C341.34,278.42,338.99,275.77,336.03,276.08z"/>
	<path d="M659.96,430.33c-1.94,3.57-2.04,7.35-1.73,11.12C660.06,437.88,660.47,434.21,659.96,430.33z"/>
	<path d="M346.85,434.11c-1.53,3.57-1.73,7.24-1.84,11.32C347.05,442.99,347.97,437.99,346.85,434.11z"/>
	<path d="M668.43,115.49c2.75-3.67,0.61-7.24-3.98-10.71c1.22,1.94,2.35,3.98,3.67,6.12C668.32,112.33,666.49,114.06,668.43,115.49z
		"/>
	<path d="M708.52,71.42c-4.28-2.86-5.82-2.96-7.86-0.2C703.11,70.4,705.36,73.46,708.52,71.42z"/>
	<path d="M306.14,376.77c0.1-4.49-1.53-8.67-2.45-13.06C303.08,368.3,304.81,372.49,306.14,376.77z"/>
	<path d="M656.79,453.19c2.65-2.55,3.16-6.53,1.22-9.49C657.1,446.86,656.79,449.82,656.79,453.19z"/>
	<path d="M344.4,456.76c2.24-2.65,2.04-5.71,1.22-8.88C344.09,450.74,344.4,453.8,344.4,456.76z"/>
	<path d="M292.06,263.32c-0.41,3.37-0.51,6.02,1.12,8.47C292.98,269.24,295.53,266.38,292.06,263.32z"/>
	<path d="M645.16,443.19c-0.2-3.37-0.71-6.63-2.65-9.59C642.41,437.07,643.74,440.13,645.16,443.19z"/>
	<path d="M302.88,342.19c2.45-3.16,2.86-7.04,3.77-10.71C304.81,334.84,303.49,338.41,302.88,342.19z"/>
	<path d="M294.41,341.27c-3.16-0.2-5,2.04-7.24,3.57C289.61,343.72,292.88,344.33,294.41,341.27z"/>
	<path d="M332.16,446.35c0-3.16-0.61-6.22-2.35-8.88C329.4,440.74,330.83,443.5,332.16,446.35z"/>
	<path d="M637,409.52c-1.94-2.14-3.67-4.39-5.51-6.63C631.8,406.46,633.84,408.5,637,409.52z"/>
	<path d="M284.41,573.98c2.14,2.35,5,2.35,7.96,0.1C289.51,573.27,286.96,574.49,284.41,573.98z"/>
	<path d="M605.58,570.31c-3.26,0-5.82,0-8.57,0C599.25,572.56,601.6,572.56,605.58,570.31z"/>
	<path d="M321.24,409.93c-0.82-1.02-1.02-2.55-2.45-3.16c-0.1,3.06,1.12,4.69,5.61,6.84C323.59,411.66,322.15,411.06,321.24,409.93z
		"/>
	<path d="M316.95,333.92c-0.71-2.24-1.94-4.08-3.57-5.71C313.49,330.86,314.91,332.49,316.95,333.92z"/>
	<path d="M678.02,118.35c-1.63-1.53-3.26-3.37-5.92-1.94C674.04,117.02,675.77,118.55,678.02,118.35z"/>
	<path d="M239.31,387.28c1.02,0.51,1.94,0,2.24-1.53C238.95,382.49,236.61,385.93,239.31,387.28z"/>
	<path d="M276.15,266.59c0.1-1.73,0.51-3.57-0.51-5.41C274.51,263.12,274.51,263.12,276.15,266.59z"/>
	<path d="M653.33,92.13c0.71,2.45,2.86,3.67,4.69,5.2C656.69,95.29,655.47,93.35,653.33,92.13z"/>
	<path d="M275.53,313.21c0.71,1.94-0.51,3.67-0.51,5.82C276.86,316.58,276.86,316.17,275.53,313.21z"/>
	<path d="M333.69,474c-1.22,1.63-1.22,1.63-0.2,4.49C334.3,476.65,334.4,475.43,333.69,474z"/>
	<path d="M269.92,577.55c-1.12,1.94-1.02,3.06-0.61,4.49C270.84,580.72,270.33,579.49,269.92,577.55z"/>
	<path d="M646.08,470.12c-1.22,1.43-0.31,2.75,0,4.08C647,472.88,647.31,471.55,646.08,470.12z"/>
	<path d="M331.65,422.89c-1.12,1.63-0.41,2.65,0,3.88C333.18,425.23,332.36,424.32,331.65,422.89z"/>
	<path d="M663.32,128.75c1.43-1.12,1.12-2.35,1.22-4.08C663.32,126.1,662.81,127.02,663.32,128.75z"/>
	<path d="M672.3,102.64c-1.33,1.22-1.22,2.14-0.82,3.16C672.51,105.08,672.71,104.17,672.3,102.64z"/>
	<path d="M651.8,515.12c0.41-1.12-0.1-1.94-0.51-2.96C651.08,513.38,650.78,514.3,651.8,515.12z"/>
	<path d="M333.58,487.57c0.61-1.22,0.61-2.24-0.61-3.47C332.46,485.53,333.38,486.45,333.58,487.57z"/>
	<path d="M645.57,480.43c0.1,1.12,0.31,2.14,0.41,3.37C647.25,483.16,646.68,480.76,645.57,480.43z"/>
	<path d="M644.14,418.91c-0.71,2.04-0.2,2.86,0.61,3.98C645.37,421.46,645.27,420.44,644.14,418.91z"/>
	<path d="M659.65,77.54c-0.82,0.51-1.43,1.02-0.61,2.04C660.06,79.17,660.16,78.46,659.65,77.54z"/>
	<path d="M650.47,505.73c-0.1,1.33-0.41,2.24,0.82,2.55C651.8,507.26,651.29,506.65,650.47,505.73z"/>
	<path d="M677.71,88.35c-0.51,1.02-0.51,1.84,0,2.75C677.71,90.19,678.32,89.47,677.71,88.35z"/>
	<path d="M582.62,574.7c-0.82,1.12-0.92,2.24-0.2,3.37C583.34,576.94,582.83,575.82,582.62,574.7z"/>
	<path d="M259.41,272.5c-1.02,0.82-0.41,1.22-0.1,1.94C259.92,273.63,259.62,273.22,259.41,272.5z"/>
	<path d="M658.73,84.99c0.61-0.71,0.41-1.12,0-1.84C657.81,83.86,657.92,84.37,658.73,84.99z"/>
	<path d="M338.07,510.32c-0.61,0.61-0.31,1.12,0.2,2.04C338.58,511.34,338.79,510.73,338.07,510.32z"/>
	<path d="M338.79,517.26c-0.51,0.51-0.31,1.02,0.1,1.53C339.4,518.28,339.3,517.77,338.79,517.26z"/>
	<path d="M266.15,320.46c0.4,0,0.06-0.19,0.31-0.92C266.04,319.54,266.15,319.35,266.15,320.46z"/>
	<path d="M311.04,200.78c-1.22-5.2-0.71-10.71-5.1-14.59c1.73,4.9,2.55,9.9,3.47,15.2c3.47,0.92,3.47,4.39,4.69,7.14
		C314,205.48,314.4,202.21,311.04,200.78z"/>
	<path d="M264.72,174.56c-5.71,2.96-10.51,6.02-16.02,7.65C252.99,183.95,258.6,181.19,264.72,174.56z"/>
	<path d="M325.01,153.75c1.33,5.92-0.51,10.1-4.69,13.37C326.54,166.3,328.99,159.36,325.01,153.75z"/>
	<path d="M233.3,192.72c4.69,2.04,9.18,4.8,14.49,5.61C243.19,195.68,238.8,192.82,233.3,192.72z"/>
	<path d="M301.96,175.99c-1.63-4.9-3.06-9.79-6.73-13.67C296.45,167.42,299.2,171.71,301.96,175.99z"/>
	<path d="M332.05,183.23c0.2-3.88-2.24-5.92-5.51-7.35C328.59,178.24,330.83,180.38,332.05,183.23z"/>
	<path d="M320.12,170.38c-2.45-2.96-4.59-5.1-7.75-6.43C313.18,165.99,316.34,168.64,320.12,170.38z"/>
	<path d="M317.06,147.63c-1.33,3.47-5.31,1.94-7.35,4.28C314.1,152.22,316.95,150.69,317.06,147.63z"/>
	<path d="M245.44,207.01c0.92,2.86,3.88,2.75,5.92,3.98C250.23,208.33,247.48,208.33,245.44,207.01z"/>
	<path d="M256.05,200.78c-2.14-0.1-3.57-1.94-5.82-2.14C252.37,201.29,254.01,201.9,256.05,200.78z"/>
	<path d="M314.61,199.76c3.37,1.02,6.02,0.71,8.67-0.41C320.63,199.46,317.87,198.33,314.61,199.76z"/>
	<path d="M318.08,222.82c0-2.65-0.2-4.9-1.33-6.94C316.95,218.02,316.14,220.47,318.08,222.82z"/>
	<path d="M296.14,246.08c-1.73-0.92-3.67-1.22-5.61-1.02C292.06,247.1,294.2,246.18,296.14,246.08z"/>
	<path d="M304.3,164.05c1.63,1.63,3.16,1.84,5.41,1.94C308.08,164.05,306.55,163.95,304.3,164.05z"/>
	<path d="M252.78,213.13c1.12,1.63,2.55,1.02,3.98,0.82C255.64,212.62,254.01,213.54,252.78,213.13z"/>
	<path d="M320.32,252.51c0.82-1.53,1.02-2.86,0.71-5C320.32,249.65,319.81,250.98,320.32,252.51z"/>
	<path d="M241.56,185.38c-1.84-0.51-3.06-0.71-4.18,0.71C239.01,186.8,240.13,186.19,241.56,185.38z"/>
	<path d="M305.94,152.42c-0.82-0.92-1.53-0.61-2.35,0.1C304.3,153.14,305.02,153.04,305.94,152.42z"/>
	<path d="M261.15,220.68c1.22,0.41,1.73-0.2,2.75-0.82C262.47,219.66,261.96,220.37,261.15,220.68z"/>
	<path d="M255.94,200.68c0.92,0.2,1.84,0.41,2.96,0.61C257.98,199.86,257.07,199.97,255.94,200.68z"/>
	<path d="M335.11,212.41c0-0.31,0-0.51,0-0.82C335.11,212.51,334.9,212.41,335.11,212.41z"/>
	<path d="M267.37,174.36c0.45,0.11,0.92-0.41,0.31-1.02C266.83,173.34,266.79,174.36,267.37,174.36z"/>
	<path d="M173.92,235.37c-3.06-1.73-6.12-3.57-8.67-6.43c-1.12,1.63-0.32,2.77,0.61,3.37c4.57,2.91,7.92,9.94,11.63,9.69
		C169.49,233.53,173.15,237.66,173.92,235.37z"/>
	<path d="M210.44,157.83c-0.44,6.64,2.09,8.92-4.08,16.02C212.38,172.52,214.73,162.63,210.44,157.83z"/>
	<path d="M196.46,142.63c-4.39,2.24-9.39,3.57-10.92,9.08C187.89,147.02,193.51,146.51,196.46,142.63z"/>
	<path d="M209.73,149.57c1.36,0,1.02,1.69,1.02-7.45C208.81,144.87,209.83,147.32,209.73,149.57z"/>
	<path d="M177.9,209.86c1.43-2.04,1.94-4.29,1.12-6.73C176.77,205.07,178.1,207.62,177.9,209.86z"/>
	<path d="M197.69,140.49c2.45,0.51,4.28,0.31,5.71,1.53C201.97,138.85,201.57,138.75,197.69,140.49z"/>
	<path d="M169.02,209.05c-0.1-2.04-0.92-3.06-2.75-4.28C166.78,206.7,167.08,208.13,169.02,209.05z"/>
	<path d="M179.02,203.13c0.92-1.22,2.04-2.35,2.14-4.8C179.02,199.86,178.71,201.39,179.02,203.13z"/>
	<path d="M238.4,250.26c1.53-1.12,2.04-2.04,2.04-3.57C238.6,247.2,238.29,248.33,238.4,250.26z"/>
	<path d="M223.5,258.63c1.53,1.43,2.45,1.73,3.77,0.41C226.26,258.22,225.24,258.43,223.5,258.63z"/>
	<path d="M252.48,240.47c0.2-0.92,0.71-1.73,0-3.37C251.25,238.53,251.35,239.45,252.48,240.47z"/>
	<path d="M211.56,174.05c1.12-0.61,1.43-1.43,0.92-2.65C211.46,172.01,210.95,172.73,211.56,174.05z"/>
	<path d="M193.3,184.87c1.53,0.82,2.24-0.2,3.06-1.12C195.04,183.23,194.02,183.34,193.3,184.87z"/>
	<path d="M186.57,239.55v-0.1C183.21,239.45,184.26,239.55,186.57,239.55z"/>
	<path d="M230.74,257.61c1.43-0.41,1.63-1.02,1.02-1.94C230.54,255.67,230.64,256.38,230.74,257.61z"/>
	<path d="M214.22,135.79c-1.12,0.1-1.33,0.71-1.22,1.43C214.11,137.22,214.22,136.71,214.22,135.79z"/>
	<path d="M181.88,244.65c0.31,0.71,0.82,0.61,1.33,0.31C183,243.94,182.49,244.14,181.88,244.65z"/>
	<path d="M350.11,179.46c-2.35,3.47-1.63,7.04,0,10.71C350.11,186.5,350.11,182.93,350.11,179.46z"/>
	<path d="M337.26,118.55c0.2-1.02,0.1-1.73-0.71-2.35c-3.81,1.9-3.53,1.21-2.45,4.18C335.01,118.96,336.24,118.76,337.26,118.55z"/>
	<path d="M355.11,155.38c-1.43,2.86-0.2,4.9-0.2,7.14C356.44,160.48,356.44,159.56,355.11,155.38z"/>
	<path d="M295.84,99.17c-2.65,0.1-4.39,1.43-6.02,3.16C290.97,103.48,289.23,103.57,295.84,99.17z"/>
	<path d="M354.19,166.2c-1.17-0.39-0.93-0.98-2.86,5.92C353.68,170.07,353.99,168.13,354.19,166.2z"/>
	<path d="M347.56,176.19c-0.61-2.14-1.73-2.65-3.16-3.06C344.6,174.97,345.62,175.58,347.56,176.19z"/>
	<path d="M350.72,173.44c-1.43,0.61-0.82,1.73-0.61,2.75C350.93,175.48,351.34,174.66,350.72,173.44z"/>
	<path d="M320.22,95.8c1.12-0.41-0.1-1.02,0-1.63C319.4,94.78,319.4,95.39,320.22,95.8z"/>
	<path d="M305.63,76.72c-0.71-0.71-1.12-0.61-1.63,0.1C304.51,77.44,304.92,77.23,305.63,76.72z"/>
	<path d="M260.23,405.44c-0.2,4.69,0.2,8.47,0.71,12.85C262.78,415.64,262.47,408.71,260.23,405.44z"/>
	<path d="M252.17,444.01c-1.02,3.37-1.43,6.73-0.71,10.2C252.88,450.84,252.99,447.47,252.17,444.01z"/>
	<path d="M278.49,489.2c-1.53,3.88-1.02,7.14,1.33,10C279.1,495.53,278.8,492.37,278.49,489.2z"/>
	<path d="M277.06,422.38c-0.82,2.04-1.53,4.18-2.45,6.63C277.47,426.87,277.88,426.05,277.06,422.38z"/>
	<path d="M253.5,439.01c1.33-1.43,1.02-3.26,0.92-5.1C252.48,435.33,253.39,437.27,253.5,439.01z"/>
	<path d="M276.35,459.51c-0.92,2.45-0.92,2.45,0.41,4.59C276.66,462.68,276.45,461.35,276.35,459.51z"/>
	<path d="M251.05,466.15c-0.41,1.63-0.1,2.65,0.92,3.67C252.58,468.49,252.48,467.37,251.05,466.15z"/>
	<path d="M275.94,481.96c-0.82,1.73-0.1,2.86,1.12,4.49C277.37,484.2,277.17,482.98,275.94,481.96z"/>
	<path d="M253.19,408.81c-0.92,1.43-0.41,2.24,0.41,3.47C253.9,410.85,254.11,409.83,253.19,408.81z"/>
	<path d="M251.25,457.98c-0.51,0.82-0.41,1.43,0,2.14C252.27,459.31,251.97,458.7,251.25,457.98z"/>
	<path d="M277.68,402.18c-0.2-0.82-0.61-1.22-1.53-1.02C276.25,402.18,276.66,402.48,277.68,402.18z"/>
	<path d="M276.45,473.29c0.51-0.41,0.31-1.02-0.1-1.12C275.41,471.85,275.78,473.29,276.45,473.29z"/>
	<path d="M368.27,305.76c-9.18-11.63-11.65-23.99-4.08-37.14c7.53-13.07,18.67-18.16,33.67-13.37
		C365.85,239.26,344.2,289.5,368.27,305.76z"/>
	<path d="M389.09,288.93c14.21-8.59-1.72-19.73-6.33-8.67c-1.58,3.8-1.12,5.1,3.26,8.77c-2.24,0.1-2.86-1.73-4.18-2.35
		c0.71,3.16,2.75,4.26,6.84,3.98c4.79-0.33,7.04-2.45,7.75-8.37C394.19,285.16,393.68,289.44,389.09,288.93z M387.35,287.4
		c-5.66,0.1-4.31-9.37,1.33-9.59C395.03,277.56,393.18,287.29,387.35,287.4z"/>
	<path d="M410.92,297.91c-1.73,1.12-2.24,2.24-2.75,4.08C410,300.97,410.51,299.85,410.92,297.91z"/>
	<path d="M399.49,256.38c0.92,1.53,1.73,1.94,3.16,2.14C401.84,257.3,401.02,256.9,399.49,256.38z"/>
	<path d="M413.47,274.44c0.1-1.12-0.41-2.04-0.82-1.73C411.84,273.42,412.75,273.83,413.47,274.44z"/>
	<path d="M407.86,263.42c-0.82-1.02-1.12-1.33-1.43-1.73C405.92,262.51,406.43,262.81,407.86,263.42z"/>
	<path d="M237.68,41.93c-2.14-1.02-2.14-1.02-9.69,1.02c0.41-1.22,1.73-1.33,2.55-2.04c0.82-0.71,1.43-1.73,2.24-2.45
		c1.63-0.51,3.67,1.33,5-0.61c-7.04-2.04-15.51,2.55-14.79,8.06C229.11,48.36,232.99,44.28,237.68,41.93z"/>
	<path d="M216.56,49.99c-4.8-4.9-13.16-1.43-16.53,5.82c2.35-0.2,2.45-2.75,4.39-3.67c1.94,0.61,3.77-1.22,6.22-1.12
		c-2.55,2.35-5.71,3.57-8.16,7.14c4.18-1.12,7.24-2.55,10.51-4.49C213.3,52.24,212.89,49.79,216.56,49.99z"/>
	<path d="M227.99,79.37c2.65,0.82,9.49-2.04,11.32-4.69C235.23,71.72,228.7,74.38,227.99,79.37z"/>
	<path d="M223.71,76.93c3.75-1.31,16.12-7.86,16.94-9.28c-4.49,0.51-16.12,5.82-18.67,8.47C222.28,76.93,222.88,77.21,223.71,76.93z
		"/>
	<path d="M227.99,62.64c-2.45,0.2-3.26,1.33-2.86,4.39c1.94-1.43,3.37-2.75,5.61-2.04C230.95,62.23,229.42,62.44,227.99,62.64z"/>
	<path d="M223.4,97.53c1.53,4.39,5.2,5.92,9.49,7.65C232.39,102.68,225.39,98.6,223.4,97.53z"/>
	<path d="M247.99,112.74c-3.67,0.1-7.04,0.82-10.3,2.45C241.25,115.18,244.82,114.88,247.99,112.74z"/>
	<path d="M266.66,98.66c-2.96,1.43-6.22,2.65-7.55,6.33C262.17,103.55,264.41,101,266.66,98.66z"/>
	<path d="M255.13,111.1c-1.84-0.61-3.37-0.61-4.9-0.1C251.66,112.63,253.19,112.74,255.13,111.1z"/>
	<path d="M259.21,104.98c-2.45,0.2-2.86,2.75-4.28,4.18C257.27,108.76,258.7,107.43,259.21,104.98z"/>
	<path d="M234.42,105.8c0,1.02,0.61,1.22,1.73,1.22C235.85,105.9,235.23,105.7,234.42,105.8z"/>
	<path d="M241.46,110.29c-0.41-1.02-1.02-1.43-2.14-1.22C239.62,110.29,240.33,110.39,241.46,110.29z"/>
	<path d="M264.11,126.71c-0.61,0.81,0.63,2.49,0.92,1.63C265.13,127.63,264.62,127.22,264.11,126.71z"/>
	<path d="M258.49,117.53c0,1.33,0.41,1.73,1.02,2.04C260.03,118.45,259.41,118.25,258.49,117.53z"/>
	<path d="M369.9,566.13c1.56,1.45,1.27,1,9.69,1.53C376.94,564.71,373.79,565.42,369.9,566.13z"/>
	<path d="M346.75,572.05c0.31,1.43,0.92,1.84,2.24,1.63C348.89,572.05,347.87,572.15,346.75,572.05z"/>
	<path d="M665.67,161.91c-0.61-0.71-1.43-1.12-2.65-0.2c5.1,4.9,10.2,9.69,15.41,14.69C682.64,171.25,676.86,173.44,665.67,161.91z"
		/>
	<path d="M537.12,167.22c-3.47-7.55-8.16-14.59-10.92-22.65C527.33,153.34,532.63,160.07,537.12,167.22z"/>
	<path d="M598.74,160.79c-3.98-3.98-3.77-9.79-6.43-14.49C591.81,152.12,594.66,158.44,598.74,160.79z"/>
	<path d="M656.69,148.95c3.67-3.88,3.88-4.18,4.39-8.16c-5.92,5.92-6.73,10.61-2.55,14.69C659.14,152.73,656.79,151.2,656.69,148.95
		z"/>
	<path d="M532.53,96.11c-4.69,0.41-5.92,2.75-4.69,8.37C529.37,101.31,530.39,98.35,532.53,96.11z"/>
	<path d="M643.53,216.6c2.24-3.26,2.55-9.08,0.71-12.24C644.45,208.54,643.43,212.51,643.53,216.6z"/>
	<path d="M602.93,152.53c-0.61-3.06-3.37-4.8-4.59-7.55C597.21,149.06,600.99,150.28,602.93,152.53z"/>
	<path d="M576.4,77.54c0.71-2.35,1.94-4.69,1.73-7.55c-3.77,1.73-2.35,5.1-3.06,7.75C575.58,77.84,576.3,78.05,576.4,77.54z"/>
	<path d="M602.72,89.27c2.14-2.45,4.28-4.8,6.53-7.04C604.97,83.86,603.44,85.5,602.72,89.27z"/>
	<path d="M572.93,187.01c0.82,3.16,2.65,5.82,4.69,8.37c0.31-0.1,0.51-0.31,0.82-0.41C573.34,185.44,574.05,186.26,572.93,187.01z"
		/>
	<path d="M567.42,190.78c0.71,2.96,2.35,5.41,4.69,7.55C571.2,195.48,569.97,192.72,567.42,190.78z"/>
	<path d="M667.3,220.06c-2.45-1.94-5.51-1.94-8.37-2.35C661.49,219.25,664.34,219.76,667.3,220.06z"/>
	<path d="M648.22,184.97c-0.61,2.86-1.12,5.71-1.73,8.67C648.22,190.99,648.53,188.13,648.22,184.97z"/>
	<path d="M529.88,113.25c0.31-2.65-0.1-3.98-2.24-6.33C527.63,109.27,528.76,111.1,529.88,113.25z"/>
	<path d="M575.07,77.74c-0.71,2.24-1.63,4.49-1.02,7.04C574.87,82.54,576.4,80.29,575.07,77.74z"/>
	<path d="M634.25,69.17c-1.33-2.04-2.45-3.06-4.9-3.26C630.37,68.15,632,68.46,634.25,69.17z"/>
	<path d="M541.3,172.93c2.55,0.31,3.88-0.92,5.41-1.63C544.67,170.69,543.14,171.2,541.3,172.93z"/>
	<path d="M597.62,91.62c-2.04-1.43-3.37-0.51-4.8,0C594.15,92.33,595.58,92.74,597.62,91.62z"/>
	<path d="M622.72,74.38c-1.84-0.31-2.86,0.61-3.67,1.94C620.58,76.42,621.8,75.91,622.72,74.38z"/>
	<path d="M570.38,84.99c-2.24-0.51-3.06,1.33-4.39,2.14C567.83,87.33,569.36,86.92,570.38,84.99z"/>
	<path d="M595.07,126.61c2.14-1.02,2.04-2.24,2.14-3.77C595.58,123.45,595.68,124.77,595.07,126.61z"/>
	<path d="M610.07,133.24c0.82-1.53,0-2.45-0.82-4.18C608.33,131.3,608.84,132.32,610.07,133.24z"/>
	<path d="M672.4,172.73c-0.72-0.3-1.43,0-1.94,0.82C672.67,175.74,674.59,173.63,672.4,172.73z"/>
	<path d="M604.46,152.12c0.1,1.84,1.43,1.73,2.75,2.75C606.91,152.73,606.19,152.01,604.46,152.12z"/>
	<path d="M619.45,142.02c-0.41,2.04,1.12,1.94,2.45,2.65C621.49,142.83,620.47,142.63,619.45,142.02z"/>
	<path d="M651.29,226.59c-0.92-0.51-1.84-1.02-3.77-0.71C651.21,227.04,650.85,227.03,651.29,226.59z"/>
	<path d="M592.83,130.79c1.53-0.31,1.63-1.33,1.94-2.86C593.13,128.65,592.72,129.47,592.83,130.79z"/>
	<path d="M533.14,132.83c-0.51,1.02,0.2,1.73,0.61,2.65C534.26,134.36,533.75,133.65,533.14,132.83z"/>
	<path d="M599.66,161.81c-0.31,1.94,0.82,1.94,1.73,2.65C601.8,162.52,600.58,162.52,599.66,161.81z"/>
	<path d="M630.27,76.11c-1.43-0.61-2.14-1.43-3.26-0.51C627.72,76.82,628.74,76.31,630.27,76.11z"/>
	<path d="M663.32,242.51c-0.61-1.02-1.33-1.22-2.35-0.71C661.49,242.82,662.2,242.71,663.32,242.51z"/>
	<path d="M650.37,176.3c-0.82,0.92-0.82,1.94-0.41,3.57C650.06,178.23,650.16,177.21,650.37,176.3z"/>
	<path d="M628.64,92.54c-0.82-0.51-1.22-1.02-2.04-0.82C627,92.43,627.51,92.74,628.64,92.54z"/>
	<path d="M588.85,160.79c-0.2,1.22,0.2,1.73,1.02,2.24C590.48,161.91,589.97,161.3,588.85,160.79z"/>
	<path d="M522.63,132.94c-0.92,1.02-0.1,1.63,0.71,2.65C523.86,134.26,523.65,133.45,522.63,132.94z"/>
	<path d="M650.67,173.85c-0.51,0.71-0.31,1.63-0.41,2.35C650.78,175.48,650.88,174.66,650.67,173.85z"/>
	<path d="M639.04,259.75c1.33-0.61,1.33-1.22,1.22-1.84C639.45,258.12,639.55,258.73,639.04,259.75z"/>
	<path d="M569.77,180.17c0-1.33-0.71-1.12-1.63-0.82C568.65,180.17,569.05,180.38,569.77,180.17z"/>
	<path d="M525.29,141.71c0.92-1.33,0-1.73-0.51-2.45C524.06,140.38,524.57,141,525.29,141.71z"/>
	<path d="M543.55,181.7c-0.2-0.31-0.41-0.61-0.61-0.92C542.12,181.5,542.83,181.7,543.55,181.7z"/>
	<path d="M562.52,178.23c0.41,1.22,1.12,0.92,1.73,0.82C563.85,177.93,563.34,178.03,562.52,178.23z"/>
	<path d="M593.85,326.78c-15.24,2.29-24.46,12.31-23.47,14.79c22.08-15.18,18.1-13.16,37.85-13.16c1.84,0.1,3.67,0.1,5.31-1.12
		C606.91,327.7,600.38,325.8,593.85,326.78z"/>
	<path d="M657.81,381.87c-2.56-2.02-5.31-1.12-7.86,2.55c-1.73-2.65-3.97-3.56-6.63-2.24c-3.56,1.75-2.04,4.8-1.73,7.55
		c3.47,0.82,6.73,1.22,8.57-2.75C657.8,393.52,661.72,384.95,657.81,381.87z M645.88,388.3c-1.22-0.31,0.1-1.33-0.71-1.94
		c-0.71-0.41-1.84,0.82-2.24-0.82c0.7-3.25,4.48-2.67,4.9-0.51C648.11,386.57,647.82,387.79,645.88,388.3z M654.75,387.69
		c-2.76,0-3.57-4.34,0-5.1C658.58,383.1,657.9,387.69,654.75,387.69z"/>
	<path d="M637.92,372.18c-4.08-11.83-9.9-22.65-18.26-33.06C619.86,340.96,636.19,370.45,637.92,372.18z"/>
	<path d="M622.31,271.79c-0.31,8.37-1.56,16.84-1.12,25.3c0.47,9.08,1.12,18.16-1.12,27.14
		C625.21,321.46,622.31,295.48,622.31,271.79z"/>
	<path d="M598.23,359.63c-0.92,8.56-2.86,17.24-2.04,26.12c0.51-6.33,2.01-12.45,2.65-18.67c0.49-4.7,0.92-9.39,4.39-13.06
		C600.17,354.74,598.51,357.08,598.23,359.63z"/>
	<path d="M666.59,379.94c-1.33,0.2-2.86,0.31-4.28,0.51c-5.12,1.11-0.88,4.63-1.73,8.06c2.14,0.51,1.94-2.55,3.77-2.45
		c1.22,0.2,0.41,1.94,2.24,2.24c0.77-3.48,1.06-7.16,2.41-10.95c0.79-2.21,1.5-2.88,0.01-1.78
		C667.28,376.86,667.74,378.78,666.59,379.94z M661.69,382.69c1.02-0.61,1.94-1.12,3.26,0
		C663.12,384.42,663.12,384.42,661.69,382.69z"/>
	<path d="M577.52,308.01c-1.12-24.65-8.09-14.59,8.47-30.71c-1.63-0.71-2.24,0.31-2.86,0.92c-8.91,8.91-9.77,9.55-9.28,11.63
		C576.55,301.5,574.77,306.26,577.52,308.01z"/>
	<path d="M594.56,276.38c-2.96-7.86-2.14-15.71,0-23.67c-2.55,1.33-3.62,4.39-3.67,12.14C590.86,269.04,590.38,273.52,594.56,276.38
		z"/>
	<path d="M628.33,312.4c0.1-12.75-3.47-25.3-1.33-38.16c-1.22,6.33-2.54,12.85-1.22,19.08C627.12,299.64,626.7,306.17,628.33,312.4z
		"/>
	<path d="M663.73,286.38c2.96-5.82,1.02-14.18-3.67-15C661.49,276.48,664.24,280.77,663.73,286.38z"/>
	<path d="M655.16,278.22c-2.45-2.65-2.65-6.63-5.41-9.28C647.41,272.91,649.96,277.1,655.16,278.22z"/>
	<path d="M619.56,373c-0.92-4.39-1.84-8.77-2.65-13.06C615.99,363.71,617.21,369.53,619.56,373z"/>
	<path d="M625.17,266.89c-1.12,4.8-1.94,9.49-1.63,14.28C624.56,276.48,625.27,271.69,625.17,266.89z"/>
	<path d="M599.97,341.17c2.45-1.02,5.61-0.61,7.24-3.57C604.05,337.19,602.21,339.53,599.97,341.17z"/>
	<path d="M615.78,338.41c2.04-3.06,2.65-6.53,3.47-10C617.31,331.47,616.39,334.94,615.78,338.41z"/>
	<path d="M587.83,254.96c-1.12,2.96,0.1,5.51,1.12,8.16C588.85,260.36,589.36,257.51,587.83,254.96z"/>
	<path d="M588.13,315.35c0.92-1.94,2.35-3.77,0.2-5.92C588.44,311.38,588.03,313.31,588.13,315.35z"/>
	<path d="M625.58,324.13c0.61,2.75,1.94,4.49,3.77,6.12C628.84,327.5,628.13,326.27,625.58,324.13z"/>
	<path d="M634.04,309.85c0.31-0.92-0.51-1.12-0.82-1.63c0.1,0.31,0.1,0.61,0.2,0.92C633.64,309.34,633.84,309.54,634.04,309.85z"/>
	<path d="M572.01,268.93c-0.41,0.51-0.41,1.02,0,1.53C572.52,269.95,572.42,269.44,572.01,268.93z"/>
	<path d="M657.61,318.62c0.04,0.26,6.96,9.44-13.37-21.93c-1.03,1.13-1.7-0.05,11.94,20.4
		C656.74,317.93,657.76,318.47,657.61,318.62z"/>
	<path d="M677.91,215.98c-2.24,3.06-1.94,5.92,1.53,9.59C679.14,221.9,678.83,219.04,677.91,215.98z"/>
	<path d="M688.83,243.63c2.75-2.14,6.33-3.26,8.06-6.63C693.11,237.92,690.87,240.57,688.83,243.63z"/>
	<path d="M703.32,143.14c-0.1,2.45-0.2,4.08,1.63,6.12C705.26,146.71,704.95,145.18,703.32,143.14z"/>
	<path d="M681.38,247c0.31,1.63,0.71,3.16,2.24,4.8C684.03,249.24,682.81,248.12,681.38,247z"/>
	<path d="M699.44,293.83c0.31-2.24,0.2-4.18-0.1-6.12C698.93,289.64,698.73,291.58,699.44,293.83z"/>
	<path d="M679.75,230.68c0.71-1.33,0.82-2.35-0.51-3.67C678.63,228.53,678.32,229.65,679.75,230.68z"/>
	<path d="M684.44,283.32c-1.63,0.51-0.82,1.43-0.71,2.04C684.75,284.75,684.44,284.03,684.44,283.32z"/>
	<path d="M684.54,292.4c1.33-0.71,0.51-1.53-0.1-2.75C683.93,290.87,683.93,291.69,684.54,292.4z"/>
	<path d="M698.62,279.65c0-0.82,0-1.63,0-2.65C697.91,278.01,698.42,278.83,698.62,279.65z"/>
	<path d="M699.64,185.07c-0.41,0.92-0.1,1.43,0.61,1.84C701.23,187.23,701.02,185.38,699.64,185.07z"/>
	<path d="M703.42,154.36c-1.12,0.71-0.92,1.33-0.41,2.24C703.73,155.79,703.62,155.18,703.42,154.36z"/>
	<path d="M703.01,160.38c0.61-0.41,1.53-0.51,0.92-1.94C703.11,158.85,702.3,159.16,703.01,160.38z"/>
	<path d="M574.46,414.11c0.31-3.88,1.02-7.86-0.92-11.63C573.14,406.36,572.83,410.34,574.46,414.11z"/>
	<path d="M564.26,450.33c1.84-3.26,1.33-6.73,0.71-10.1C563.85,443.6,563.75,446.96,564.26,450.33z"/>
	<path d="M591.09,485.43c-1.12,3.26-1.02,6.43,1.12,9.39C591.5,491.65,592.21,488.49,591.09,485.43z"/>
	<path d="M589.87,418.6c-0.82,2.14-1.53,4.28-2.35,6.43C590.07,423.5,590.99,421.46,589.87,418.6z"/>
	<path d="M589.05,456.04c-1.22,1.33-1.12,2.86,0.2,5.1C589.77,459,589.46,457.47,589.05,456.04z"/>
	<path d="M567.12,429.42c-1.53,2.35-1.33,4.08-0.31,5.92C566.71,433.6,568.14,431.97,567.12,429.42z"/>
	<path d="M590.17,482.57c0.2-2.04-0.41-3.16-1.33-5C588.23,479.92,588.44,481.35,590.17,482.57z"/>
	<path d="M564.67,465.94c0.51-1.22,0.51-2.45-0.71-3.67C563.24,464,564.26,464.92,564.67,465.94z"/>
	<path d="M565.99,405.14c-0.71,1.33-0.31,2.24,0,3.98C566.81,407.28,566.61,406.36,565.99,405.14z"/>
	<path d="M564.36,454.31c-0.92,0.61-0.51,1.22-0.1,1.73C564.97,455.53,564.97,455.02,564.36,454.31z"/>
	<path d="M590.68,398.5c-0.31-0.92-0.82-1.33-1.94-1.22C588.95,398.2,589.36,398.71,590.68,398.5z"/>
	<path d="M589.15,469.51c0.51-0.51,0.41-1.02,0-1.53C588.64,468.49,588.64,469,589.15,469.51z"/>
	<path d="M703.11,328.92c-22.95,4.81-32.29,33.39-21.42,43.05c0.24-0.71-0.44,1.07,1.12,1.22c0-2.53-10.06-11.61,1.22-28.97
		c6.56-10.09,20.52-17.68,30.91-11.02c1.31,0.84,2.75,1.63,4.39,2.55C716.89,330.96,708.93,327.7,703.11,328.92z"/>
	<path d="M702.09,348.72c-3.16-0.16-6.32,3.37-6.43,7.04c-0.35,12.03,14.17,4.87,12.85,1.02
		C708.13,355.64,707.15,348.98,702.09,348.72z M700.56,359.33c-5.01-0.7-3.5-8.67,1.53-8.67
		C707.87,350.65,705.24,359.98,700.56,359.33z"/>
	<path d="M693.01,563.88c-3.24-3.03-6.3-2.06-9.49-1.63C683.2,563.72,682.3,563.58,693.01,563.88z"/>
	<path d="M661.69,569.9c0.1-1.53-0.92-1.43-2.14-1.63C659.86,569.7,660.57,570.01,661.69,569.9z"/>
	<path d="M386.74,283.73c1.63,0.71,2.45-0.51,3.47-0.92C390.21,279.45,386.52,280.62,386.74,283.73z"/>
	<path d="M701.48,353.41c-1.34,0.48-1.84,1.43-1.12,2.86C703.29,357,704.08,352.48,701.48,353.41z"/>
<path fill="#e6e6e6" d="m206.8 163.6c0-5.1 4.1-9.2 9.3-9.2s9.2 4.2 9.2 9.2-4.1 9.2-9.3 9.2-9.2-4.1-9.2-9.2zm17.3-.1c0-4.5-3.5-8.2-8.2-8.2s-8.2 3.7-8.2 8.3c0 4.5 3.5 8.2 8.2 8.2s8.2-3.7 8.2-8.3zm-13 0c0-2.8 2.1-5.1 5.1-5.1 1.9 0 2.9.6 3.9 1.5l-1.4 1.7c-.8-.7-1.5-1.1-2.5-1.1-1.7 0-2.8 1.4-2.8 3.1s1.1 3 2.8 3c1.1 0 1.7-.5 2.5-1.1l1.4 1.4c-1.1 1.1-2.1 1.7-4 1.7-2.9 0-5-2.3-5-5.1z"/><path fill="#e6e6e6" d="m226.6 154.7h3.4l4.2 13.2 4.4-13.3h2.6l4.4 13.3 4.2-13.2h3.3l-6.2 18h-2.7l-4.4-12.8-4.4 12.8h-2.7z"/><path fill="#e6e6e6" d="m252.8 165.8c0-3.9 3.1-7 7.2-7 4.2 0 7.2 3.2 7.2 7s-3.1 7-7.3 7c-4 0-7.1-3.1-7.1-7zm11.3 0c0-2.3-1.7-4.3-4.2-4.3s-4.1 2-4.1 4.3 1.7 4.3 4.1 4.3c2.7.1 4.2-1.9 4.2-4.3z"/><path fill="#e6e6e6" d="m269.5 159.1h3.1v3c.8-2 2.4-3.4 4.8-3.3v3.2h-.2c-2.7 0-4.6 1.7-4.6 5.4v5.1h-3.1z"/><path fill="#e6e6e6" d="m279.1 153.9h3.1v11.1l5.6-6h3.8l-5.4 5.5 5.5 8h-3.5l-4.1-5.8-1.9 2v3.9h-3.1z"/><path fill="#e6e6e6" d="m291.7 165.8c0-3.9 3.1-7 7.2-7 4.2 0 7.2 3.2 7.2 7s-3.1 7-7.3 7c-4 0-7.1-3.1-7.1-7zm11.3 0c0-2.3-1.7-4.3-4.2-4.3s-4.1 2-4.1 4.3 1.7 4.3 4.1 4.3c2.6.1 4.2-1.9 4.2-4.3z"/><path fill="#e6e6e6" d="m308.2 167.6v-8.6h3.1v7.6c0 2.1 1.1 3.3 2.9 3.3s3-1.3 3-3.3v-7.6h3.1v13.4h-3.1v-2.1c-.8 1.3-2.1 2.3-4.2 2.3-3.1.2-4.8-1.8-4.8-5z"/><path fill="#e6e6e6" d="m323.9 168.8v-7.1h-1.7v-2.6h1.7v-3.7h3.1v3.7h3.6v2.6h-3.6v6.6c0 1.2.6 1.7 1.7 1.7.7 0 1.3-.2 1.9-.5v2.5c-.8.5-1.7.7-2.8.7-2.3 0-3.9-.9-3.9-3.9z"/><path fill="#e6e6e6" d="m333.2 154.7h3.2v15h9.4v2.9h-12.5v-17.9z"/><path fill="#e6e6e6" d="m356 172.5v-1.7c-.9 1.1-2.3 2-4.4 2-2.6 0-4.8-1.4-4.8-4.2 0-3 2.3-4.4 5.4-4.4 1.7 0 2.6.2 3.7.5v-.2c0-1.9-1.2-2.9-3.3-2.9-1.5 0-2.6.3-3.9.8l-.8-2.5c1.5-.7 2.9-1.1 5.1-1.1 4 0 5.9 2.1 5.9 5.7v8zm.1-5.6c-.8-.3-1.9-.5-3.1-.5-2 0-3.1.8-3.1 2.1s1.1 2 2.6 2c2 0 3.5-1.1 3.5-2.9z"/><path fill="#e6e6e6" d="m364.9 170.5v2.1h-3.1v-18.7h3.1v7.4c1-1.4 2.4-2.5 4.5-2.5 3.2 0 6.3 2.5 6.3 7s-3.1 7-6.3 7c-2.1 0-3.5-1.1-4.5-2.3zm7.7-4.7c0-2.6-1.7-4.3-3.9-4.3s-3.9 1.7-3.9 4.4c0 2.6 1.8 4.3 3.9 4.3s3.9-1.7 3.9-4.4z"/><path fill="#e6e6e6" d="m376.9 170.8 1.4-2.1c1.4 1.1 3 1.7 4.4 1.7s2.1-.5 2.1-1.5-1.3-1.4-2.8-1.8c-.1 0-.2-.1-.2-.1-2-.6-4.2-1.4-4.2-4s2.1-4.1 4.8-4.1c1.7 0 3.5.6 5 1.5l-1.2 2.2c-1.3-.8-2.6-1.3-3.8-1.3s-1.9.5-1.9 1.4 1.3 1.4 2.8 1.8c.1 0 .2.1.2.1 2 .6 4.2 1.5 4.2 4 0 2.9-2.2 4.2-5 4.2-1.9 0-4-.7-5.8-2z"/><path fill="#e6e6e6" d="m505.6 163.6c0-5.1 4.1-9.2 9.3-9.2s9.2 4.2 9.2 9.2-4.1 9.2-9.3 9.2-9.2-4.1-9.2-9.2zm17.4-.1c0-4.5-3.5-8.2-8.2-8.2s-8.2 3.7-8.2 8.3c0 4.5 3.5 8.2 8.2 8.2s8.2-3.7 8.2-8.3zm-13.1 0c0-2.8 2.1-5.1 5.1-5.1 1.9 0 2.9.6 3.9 1.5l-1.4 1.7c-.8-.7-1.5-1.1-2.5-1.1-1.7 0-2.8 1.4-2.8 3.1s1.1 3 2.8 3c1.1 0 1.7-.5 2.5-1.1l1.4 1.4c-1.1 1.1-2.1 1.7-4 1.7-2.9 0-5-2.3-5-5.1z"/><path fill="#e6e6e6" d="m525.4 154.7h3.4l4.2 13.2 4.4-13.3h2.6l4.4 13.3 4.2-13.2h3.3l-6.2 18h-2.7l-4.4-12.8-4.4 12.8h-2.7z"/><path fill="#e6e6e6" d="m551.7 165.8c0-3.9 3.1-7 7.2-7 4.2 0 7.2 3.2 7.2 7s-3.1 7-7.3 7c-4.1 0-7.1-3.1-7.1-7zm11.2 0c0-2.3-1.7-4.3-4.2-4.3s-4.1 2-4.1 4.3 1.7 4.3 4.1 4.3c2.7.1 4.2-1.9 4.2-4.3z"/><path fill="#e6e6e6" d="m568.3 159.1h3.1v3c.8-2 2.4-3.4 4.8-3.3v3.2h-.2c-2.7 0-4.6 1.7-4.6 5.4v5.1h-3.1z"/><path fill="#e6e6e6" d="m577.9 153.9h3.1v11.1l5.6-6h3.8l-5.4 5.5 5.5 8h-3.5l-4.1-5.8-1.9 2v3.9h-3.1z"/><path fill="#e6e6e6" d="m590.6 165.8c0-3.9 3.1-7 7.2-7 4.2 0 7.2 3.2 7.2 7s-3.1 7-7.3 7c-4.1 0-7.1-3.1-7.1-7zm11.2 0c0-2.3-1.7-4.3-4.2-4.3s-4.1 2-4.1 4.3 1.7 4.3 4.1 4.3c2.6.1 4.2-1.9 4.2-4.3z"/><path fill="#e6e6e6" d="m607 167.6v-8.6h3.1v7.6c0 2.1 1.1 3.3 2.9 3.3s3-1.3 3-3.3v-7.6h3.1v13.4h-3.1v-2.1c-.8 1.3-2.1 2.3-4.2 2.3-3 .2-4.8-1.8-4.8-5z"/><path fill="#e6e6e6" d="m622.7 168.8v-7.1h-1.7v-2.6h1.7v-3.7h3.1v3.7h3.6v2.6h-3.6v6.6c0 1.2.6 1.7 1.7 1.7.7 0 1.3-.2 1.9-.5v2.5c-.8.5-1.7.7-2.8.7-2.3 0-3.9-.9-3.9-3.9z"/><path fill="#e6e6e6" d="m632 154.7h3.2v15h9.4v2.9h-12.6z"/><path fill="#e6e6e6" d="m654.8 172.5v-1.7c-.9 1.1-2.3 2-4.4 2-2.6 0-4.8-1.4-4.8-4.2 0-3 2.3-4.4 5.4-4.4 1.7 0 2.6.2 3.7.5v-.2c0-1.9-1.2-2.9-3.3-2.9-1.5 0-2.6.3-3.9.8l-.8-2.5c1.5-.7 2.9-1.1 5.1-1.1 4 0 5.9 2.1 5.9 5.7v8zm.1-5.6c-.8-.3-1.9-.5-3.1-.5-2 0-3.1.8-3.1 2.1s1.1 2 2.6 2c2 0 3.5-1.1 3.5-2.9z"/><path fill="#e6e6e6" d="m663.7 170.5v2.1h-3.1v-18.7h3.1v7.4c1-1.4 2.4-2.5 4.5-2.5 3.2 0 6.3 2.5 6.3 7s-3.1 7-6.3 7c-2.1 0-3.5-1.1-4.5-2.3zm7.8-4.7c0-2.6-1.7-4.3-3.9-4.3-2.1 0-3.9 1.7-3.9 4.4 0 2.6 1.8 4.3 3.9 4.3s3.9-1.7 3.9-4.4z"/><path fill="#e6e6e6" d="m675.8 170.8 1.4-2.1c1.4 1.1 3 1.7 4.4 1.7s2.1-.5 2.1-1.5-1.3-1.4-2.8-1.8c-.1 0-.2-.1-.2-.1-2-.6-4.2-1.4-4.2-4s2.1-4.1 4.8-4.1c1.7 0 3.5.6 5 1.5l-1.2 2.2c-1.3-.8-2.6-1.3-3.8-1.3s-1.9.5-1.9 1.4 1.3 1.4 2.8 1.8c.1 0 .2.1.2.1 2 .6 4.2 1.5 4.2 4 0 2.9-2.2 4.2-5 4.2-2 0-4.1-.7-5.8-2z"/><path fill="#e6e6e6" d="m61 298.6c0-5.1 4.1-9.2 9.3-9.2s9.2 4.2 9.2 9.2-4.1 9.2-9.3 9.2c-5.1 0-9.2-4.2-9.2-9.2zm17.4-.1c0-4.5-3.5-8.2-8.2-8.2s-8.2 3.7-8.2 8.3c0 4.5 3.5 8.2 8.2 8.2s8.2-3.7 8.2-8.3zm-13.1-.1c0-2.8 2.1-5.1 5.1-5.1 1.9 0 2.9.6 3.9 1.5l-1.4 1.7c-.8-.7-1.5-1.1-2.5-1.1-1.7 0-2.8 1.4-2.8 3.1s1.1 3 2.8 3c1.1 0 1.7-.5 2.5-1.1l1.4 1.4c-1.1 1.1-2.1 1.7-4 1.7-2.8.1-5-2.2-5-5.1z"/><path fill="#e6e6e6" d="m80.9 289.7h3.4l4.2 13.2 4.4-13.3h2.6l4.4 13.3 4.2-13.2h3.3l-6.2 18h-2.7l-4.4-12.8-4.4 12.8h-2.7z"/><path fill="#e6e6e6" d="m107.1 300.8c0-3.9 3.1-7 7.2-7s7.2 3.2 7.2 7-3.1 7-7.3 7c-4 0-7.1-3.1-7.1-7zm11.3 0c0-2.3-1.7-4.3-4.2-4.3s-4.1 2-4.1 4.3 1.7 4.3 4.1 4.3c2.6.1 4.2-1.9 4.2-4.3z"/><path fill="#e6e6e6" d="m123.7 294h3.1v3c.8-2 2.4-3.4 4.8-3.3v3.2h-.2c-2.7 0-4.6 1.7-4.6 5.4v5.1h-3.1z"/><path fill="#e6e6e6" d="m133.4 288.9h3.1v11.1l5.6-6h3.8l-5.4 5.5 5.5 8h-3.5l-4.1-5.8-1.9 1.9v3.9h-3.1z"/><path fill="#e6e6e6" d="m146 300.8c0-3.9 3.1-7 7.2-7s7.2 3.2 7.2 7-3.1 7-7.3 7c-4.1 0-7.1-3.1-7.1-7zm11.2 0c0-2.3-1.7-4.3-4.2-4.3s-4.1 2-4.1 4.3 1.7 4.3 4.1 4.3c2.6.1 4.2-1.9 4.2-4.3z"/><path fill="#e6e6e6" d="m162.4 302.6v-8.6h3.1v7.6c0 2.1 1.1 3.3 2.9 3.3s3-1.3 3-3.3v-7.6h3.1v13.4h-3.1v-2.1c-.8 1.3-2.1 2.3-4.2 2.3-3 .2-4.8-1.8-4.8-5z"/><path fill="#e6e6e6" d="m178.1 303.8v-7.1h-1.7v-2.7h1.7v-3.7h3.1v3.7h3.6v2.6h-3.6v6.6c0 1.2.6 1.7 1.7 1.7.7 0 1.3-.2 1.9-.5v2.5c-.8.5-1.7.7-2.8.7-2.3.1-3.9-.9-3.9-3.8z"/><path fill="#e6e6e6" d="m187.4 289.7h3.2v15h9.4v2.9h-12.5v-17.9z"/><path fill="#e6e6e6" d="m210.2 307.5v-1.7c-.9 1.1-2.3 2-4.4 2-2.6 0-4.8-1.4-4.8-4.2 0-3 2.3-4.4 5.4-4.4 1.7 0 2.6.2 3.7.5v-.2c0-1.9-1.2-2.9-3.3-2.9-1.5 0-2.6.3-3.9.8l-.8-2.5c1.5-.7 2.9-1.1 5.1-1.1 4 0 5.9 2.1 5.9 5.7v8zm.1-5.6c-.8-.3-1.9-.5-3.1-.5-2 0-3.1.8-3.1 2.1s1.1 2 2.6 2c2 0 3.5-1.1 3.5-2.9z"/><path fill="#e6e6e6" d="m219.2 305.5v2.1h-3.1v-18.7h3.1v7.4c1-1.4 2.4-2.5 4.5-2.5 3.2 0 6.3 2.5 6.3 7s-3.1 7-6.3 7c-2.2 0-3.6-1.1-4.5-2.3zm7.7-4.7c0-2.6-1.7-4.3-3.9-4.3s-3.9 1.7-3.9 4.4c0 2.6 1.8 4.3 3.9 4.3s3.9-1.7 3.9-4.4z"/><path fill="#e6e6e6" d="m231.2 305.8 1.4-2.1c1.4 1.1 3 1.7 4.4 1.7s2.1-.5 2.1-1.5-1.3-1.4-2.8-1.8c-.1 0-.2-.1-.2-.1-2-.6-4.2-1.4-4.2-4s2.1-4.1 4.8-4.1c1.7 0 3.5.6 5 1.5l-1.2 2.2c-1.3-.8-2.6-1.3-3.8-1.3s-1.9.5-1.9 1.4 1.3 1.4 2.8 1.8c.1 0 .2.1.2.1 2 .6 4.2 1.5 4.2 4 0 2.9-2.2 4.2-5 4.2-2 0-4.1-.7-5.8-2z"/><path fill="#e6e6e6" d="m360.6 298.6c0-5.1 4.1-9.2 9.3-9.2s9.2 4.2 9.2 9.2-4.1 9.2-9.3 9.2-9.2-4.2-9.2-9.2zm17.4-.1c0-4.5-3.5-8.2-8.2-8.2s-8.2 3.7-8.2 8.3c0 4.5 3.5 8.2 8.2 8.2s8.2-3.7 8.2-8.3zm-13.1-.1c0-2.8 2.1-5.1 5.1-5.1 1.9 0 2.9.6 3.9 1.5l-1.4 1.7c-.8-.7-1.5-1.1-2.5-1.1-1.7 0-2.8 1.4-2.8 3.1s1.1 3 2.8 3c1.1 0 1.7-.5 2.5-1.1l1.4 1.4c-1.1 1.1-2.1 1.7-4 1.7-2.8.1-5-2.2-5-5.1z"/><path fill="#e6e6e6" d="m380.5 289.7h3.4l4.2 13.2 4.4-13.3h2.6l4.4 13.3 4.2-13.2h3.3l-6.2 18h-2.7l-4.4-12.8-4.4 12.8h-2.7z"/><path fill="#e6e6e6" d="m406.7 300.8c0-3.9 3.1-7 7.2-7 4.2 0 7.2 3.2 7.2 7s-3.1 7-7.3 7c-4.1 0-7.1-3.1-7.1-7zm11.3 0c0-2.3-1.7-4.3-4.2-4.3s-4.1 2-4.1 4.3 1.7 4.3 4.1 4.3c2.7.1 4.2-1.9 4.2-4.3z"/><path fill="#e6e6e6" d="m423.3 294h3.1v3c.8-2 2.4-3.4 4.8-3.3v3.2h-.2c-2.7 0-4.6 1.7-4.6 5.4v5.1h-3.1z"/><path fill="#e6e6e6" d="m433 288.9h3.1v11.1l5.6-6h3.8l-5.4 5.5 5.5 8h-3.5l-4.1-5.8-1.9 2v3.9h-3.1z"/><path fill="#e6e6e6" d="m445.6 300.8c0-3.9 3.1-7 7.2-7 4.2 0 7.2 3.2 7.2 7s-3.1 7-7.3 7c-4.1 0-7.1-3.1-7.1-7zm11.3 0c0-2.3-1.7-4.3-4.2-4.3s-4.1 2-4.1 4.3 1.7 4.3 4.1 4.3c2.6.1 4.2-1.9 4.2-4.3z"/><path fill="#e6e6e6" d="m462.1 302.6v-8.6h3.1v7.6c0 2.1 1.1 3.3 2.9 3.3s3-1.3 3-3.3v-7.6h3.1v13.4h-3.1v-2.1c-.8 1.3-2.1 2.3-4.2 2.3-3.1.2-4.8-1.8-4.8-5z"/><path fill="#e6e6e6" d="m477.8 303.8v-7.1h-1.8v-2.7h1.7v-3.7h3.1v3.7h3.6v2.6h-3.6v6.6c0 1.2.6 1.7 1.7 1.7.7 0 1.3-.2 1.9-.5v2.5c-.8.5-1.7.7-2.8.7-2.2.1-3.8-.9-3.8-3.8z"/><path fill="#e6e6e6" d="m487.1 289.7h3.2v15h9.4v2.9h-12.5v-17.9z"/><path fill="#e6e6e6" d="m509.9 307.5v-1.7c-.9 1.1-2.3 2-4.4 2-2.6 0-4.8-1.4-4.8-4.2 0-3 2.3-4.4 5.4-4.4 1.7 0 2.6.2 3.7.5v-.2c0-1.9-1.2-2.9-3.3-2.9-1.5 0-2.6.3-3.9.8l-.8-2.5c1.5-.7 2.9-1.1 5.1-1.1 4 0 5.9 2.1 5.9 5.7v8zm.1-5.6c-.8-.3-1.9-.5-3.1-.5-2 0-3.1.8-3.1 2.1s1.1 2 2.6 2c2 0 3.5-1.1 3.5-2.9z"/><path fill="#e6e6e6" d="m518.8 305.5v2.1h-3.1v-18.7h3.1v7.4c1-1.4 2.4-2.5 4.5-2.5 3.2 0 6.3 2.5 6.3 7s-3.1 7-6.3 7c-2.2 0-3.5-1.1-4.5-2.3zm7.7-4.7c0-2.6-1.7-4.3-3.9-4.3s-3.9 1.7-3.9 4.4c0 2.6 1.8 4.3 3.9 4.3s3.9-1.7 3.9-4.4z"/><path fill="#e6e6e6" d="m530.8 305.8 1.4-2.1c1.4 1.1 3 1.7 4.4 1.7s2.1-.5 2.1-1.5-1.3-1.4-2.8-1.8c-.1 0-.2-.1-.2-.1-2-.6-4.2-1.4-4.2-4s2.1-4.1 4.8-4.1c1.7 0 3.5.6 5 1.5l-1.2 2.2c-1.3-.8-2.6-1.3-3.8-1.3s-1.9.5-1.9 1.4 1.3 1.4 2.8 1.8c.1 0 .2.1.2.1 2 .6 4.2 1.5 4.2 4 0 2.9-2.2 4.2-5 4.2-1.9 0-4.1-.7-5.8-2z"/><path fill="#e6e6e6" d="m659.5 298.6c0-5.1 4.1-9.2 9.3-9.2s9.2 4.2 9.2 9.2-4.1 9.2-9.3 9.2-9.2-4.2-9.2-9.2zm17.3-.1c0-4.5-3.5-8.2-8.2-8.2s-8.2 3.7-8.2 8.3c0 4.5 3.5 8.2 8.2 8.2 4.8 0 8.2-3.7 8.2-8.3zm-13-.1c0-2.8 2.1-5.1 5.1-5.1 1.9 0 2.9.6 3.9 1.5l-1.4 1.7c-.8-.7-1.5-1.1-2.5-1.1-1.7 0-2.8 1.4-2.8 3.1s1.1 3 2.8 3c1.1 0 1.7-.5 2.5-1.1l1.4 1.4c-1.1 1.1-2.1 1.7-4 1.7-2.9.1-5-2.2-5-5.1z"/><path fill="#e6e6e6" d="m679.3 289.7h3.4l4.2 13.2 4.4-13.3h2.6l4.4 13.3 4.2-13.2h3.3l-6.2 18h-2.6l-4.4-12.8-4.4 12.8h-2.7z"/><path fill="#e6e6e6" d="m705.5 300.8c0-3.9 3.1-7 7.2-7 4.2 0 7.2 3.2 7.2 7s-3.1 7-7.3 7c-4 0-7.1-3.1-7.1-7zm11.3 0c0-2.3-1.7-4.3-4.2-4.3s-4.1 2-4.1 4.3 1.7 4.3 4.1 4.3c2.7.1 4.2-1.9 4.2-4.3z"/><path fill="#e6e6e6" d="m722.1 294h3.1v3c.8-2 2.4-3.4 4.8-3.3v3.2h-.2c-2.7 0-4.6 1.7-4.6 5.4v5.1h-3.1z"/><path fill="#e6e6e6" d="m731.8 288.9h3.1v11.1l5.6-6h3.8l-5.4 5.5 5.5 8h-3.5l-4.1-5.8-1.9 2v3.9h-3.1z"/><path fill="#e6e6e6" d="m744.4 300.8c0-3.9 3.1-7 7.2-7 4.2 0 7.2 3.2 7.2 7s-3.1 7-7.3 7c-4.1 0-7.1-3.1-7.1-7zm11.3 0c0-2.3-1.7-4.3-4.2-4.3s-4.1 2-4.1 4.3 1.7 4.3 4.1 4.3c2.6.1 4.2-1.9 4.2-4.3z"/><path fill="#e6e6e6" d="m760.9 302.6v-8.6h3.1v7.6c0 2.1 1.1 3.3 2.9 3.3s3-1.3 3-3.3v-7.6h3.1v13.4h-3.1v-2.1c-.8 1.3-2.1 2.3-4.2 2.3-3.1.2-4.8-1.8-4.8-5z"/><path fill="#e6e6e6" d="m776.6 303.8v-7.1h-1.7v-2.7h1.7v-3.7h3.1v3.7h3.6v2.6h-3.6v6.6c0 1.2.6 1.7 1.7 1.7.7 0 1.3-.2 1.9-.5v2.5c-.8.5-1.7.7-2.8.7-2.3.1-3.9-.9-3.9-3.8z"/><path fill="#e6e6e6" d="m785.9 289.7h3.2v15h9.4v2.9h-12.5v-17.9z"/><path fill="#e6e6e6" d="m808.7 307.5v-1.7c-.9 1.1-2.3 2-4.4 2-2.6 0-4.8-1.4-4.8-4.2 0-3 2.3-4.4 5.4-4.4 1.7 0 2.6.2 3.7.5v-.2c0-1.9-1.2-2.9-3.3-2.9-1.5 0-2.6.3-3.9.8l-.8-2.5c1.5-.7 2.9-1.1 5.1-1.1 4 0 5.9 2.1 5.9 5.7v8zm.1-5.6c-.8-.3-1.9-.5-3.1-.5-2 0-3.1.8-3.1 2.1s1.1 2 2.6 2c2 0 3.5-1.1 3.5-2.9z"/><path fill="#e6e6e6" d="m817.6 305.5v2.1h-3.1v-18.7h3.1v7.4c1-1.4 2.4-2.5 4.5-2.5 3.2 0 6.3 2.5 6.3 7s-3.1 7-6.3 7c-2.1 0-3.5-1.1-4.5-2.3zm7.7-4.7c0-2.6-1.7-4.3-3.9-4.3-2.1 0-3.9 1.7-3.9 4.4 0 2.6 1.8 4.3 3.9 4.3 2.2 0 3.9-1.7 3.9-4.4z"/><path fill="#e6e6e6" d="m829.6 305.8 1.4-2.1c1.4 1.1 3 1.7 4.4 1.7s2.1-.5 2.1-1.5-1.3-1.4-2.8-1.8c-.1 0-.2-.1-.2-.1-2-.6-4.2-1.4-4.2-4s2.1-4.1 4.8-4.1c1.7 0 3.5.6 5 1.5l-1.2 2.2c-1.3-.8-2.6-1.3-3.8-1.3s-1.9.5-1.9 1.4 1.3 1.4 2.8 1.8c.1 0 .2.1.2.1 2 .6 4.2 1.5 4.2 4 0 2.9-2.2 4.2-5 4.2-1.9 0-4-.7-5.8-2z"/><path fill="#e6e6e6" d="m206.3 434.2c0-5.1 4.1-9.2 9.3-9.2s9.2 4.2 9.2 9.2-4.1 9.2-9.3 9.2-9.2-4.1-9.2-9.2zm17.4-.1c0-4.5-3.5-8.2-8.2-8.2s-8.2 3.7-8.2 8.3c0 4.5 3.5 8.2 8.2 8.2s8.2-3.7 8.2-8.3zm-13.1-.1c0-2.8 2.1-5.1 5.1-5.1 1.9 0 2.9.6 3.9 1.5l-1.4 1.7c-.8-.7-1.5-1.1-2.5-1.1-1.7 0-2.8 1.4-2.8 3.1s1.1 3 2.8 3c1.1 0 1.7-.5 2.5-1.1l1.4 1.4c-1.1 1.1-2.1 1.7-4 1.7-2.9.1-5-2.2-5-5.1z"/><path fill="#e6e6e6" d="m226.1 425.3h3.4l4.2 13.2 4.4-13.3h2.6l4.4 13.3 4.2-13.2h3.3l-6.2 18h-2.7l-4.4-12.8-4.4 12.8h-2.7z"/><path fill="#e6e6e6" d="m252.4 436.4c0-3.9 3.1-7 7.2-7 4.2 0 7.2 3.2 7.2 7s-3.1 7-7.3 7c-4.1 0-7.1-3.1-7.1-7zm11.2 0c0-2.3-1.7-4.3-4.2-4.3s-4.1 2-4.1 4.3 1.7 4.3 4.1 4.3c2.7.1 4.2-1.9 4.2-4.3z"/><path fill="#e6e6e6" d="m269 429.7h3.1v3c.8-2 2.4-3.4 4.8-3.3v3.2h-.2c-2.7 0-4.6 1.7-4.6 5.4v5.1h-3.1z"/><path fill="#e6e6e6" d="m278.6 424.5h3.1v11.1l5.6-6h3.8l-5.4 5.5 5.5 8h-3.5l-4.1-5.8-1.9 2v3.9h-3.1z"/><path fill="#e6e6e6" d="m291.3 436.4c0-3.9 3.1-7 7.2-7 4.2 0 7.2 3.2 7.2 7s-3.1 7-7.3 7c-4.1 0-7.1-3.1-7.1-7zm11.2 0c0-2.3-1.7-4.3-4.2-4.3s-4.1 2-4.1 4.3 1.7 4.3 4.1 4.3c2.6.1 4.2-1.9 4.2-4.3z"/><path fill="#e6e6e6" d="m307.7 438.2v-8.6h3.1v7.6c0 2.1 1.1 3.3 2.9 3.3s3-1.3 3-3.3v-7.6h3.1v13.4h-3.1v-2.1c-.8 1.3-2.1 2.3-4.2 2.3-3 .2-4.8-1.8-4.8-5z"/><path fill="#e6e6e6" d="m323.4 439.4v-7.1h-1.7v-2.6h1.7v-3.7h3.1v3.7h3.6v2.6h-3.6v6.6c0 1.2.6 1.7 1.7 1.7.7 0 1.3-.2 1.9-.5v2.5c-.8.5-1.7.7-2.8.7-2.3 0-3.9-.9-3.9-3.9z"/><path fill="#e6e6e6" d="m332.7 425.3h3.2v15h9.4v2.9h-12.5v-17.9z"/><path fill="#e6e6e6" d="m355.5 443.1v-1.7c-.9 1.1-2.3 2-4.4 2-2.6 0-4.8-1.4-4.8-4.2 0-3 2.3-4.4 5.4-4.4 1.7 0 2.6.2 3.7.5v-.2c0-1.9-1.2-2.9-3.3-2.9-1.5 0-2.6.3-3.9.8l-.8-2.5c1.5-.7 2.9-1.1 5.1-1.1 4 0 5.9 2.1 5.9 5.7v8zm.1-5.6c-.8-.3-1.9-.5-3.1-.5-2 0-3.1.8-3.1 2.1s1.1 2 2.6 2c2 0 3.5-1.1 3.5-2.9z"/><path fill="#e6e6e6" d="m364.4 441.1v2.1h-3.1v-18.7h3.1v7.4c1-1.4 2.4-2.5 4.5-2.5 3.2 0 6.3 2.5 6.3 7s-3.1 7-6.3 7c-2.1 0-3.5-1.1-4.5-2.3zm7.7-4.7c0-2.6-1.7-4.3-3.9-4.3-2.1 0-3.9 1.7-3.9 4.4 0 2.6 1.8 4.3 3.9 4.3 2.2 0 3.9-1.7 3.9-4.4z"/><path fill="#e6e6e6" d="m376.5 441.4 1.4-2.1c1.4 1.1 3 1.7 4.4 1.7s2.1-.5 2.1-1.5-1.3-1.4-2.8-1.8c-.1 0-.2-.1-.2-.1-2-.6-4.2-1.4-4.2-4s2.1-4.1 4.8-4.1c1.7 0 3.5.6 5 1.5l-1.2 2.2c-1.3-.8-2.6-1.3-3.8-1.3s-1.9.5-1.9 1.4 1.3 1.4 2.8 1.8c.1 0 .2.1.2.1 2 .6 4.2 1.5 4.2 4 0 2.9-2.2 4.2-5 4.2-2 0-4.1-.7-5.8-2z"/><path fill="#e6e6e6" d="m505.1 434.2c0-5.1 4.1-9.2 9.3-9.2s9.2 4.2 9.2 9.2-4.1 9.2-9.3 9.2-9.2-4.1-9.2-9.2zm17.4-.1c0-4.5-3.5-8.2-8.2-8.2s-8.2 3.7-8.2 8.3c0 4.5 3.5 8.2 8.2 8.2s8.2-3.7 8.2-8.3zm-13.1-.1c0-2.8 2.1-5.1 5.1-5.1 1.9 0 2.9.6 3.9 1.5l-1.4 1.7c-.8-.7-1.5-1.1-2.5-1.1-1.7 0-2.8 1.4-2.8 3.1s1.1 3 2.8 3c1.1 0 1.7-.5 2.5-1.1l1.4 1.4c-1.1 1.1-2.1 1.7-4 1.7-2.9.1-5-2.2-5-5.1z"/><path fill="#e6e6e6" d="m525 425.3h3.4l4.2 13.2 4.4-13.3h2.6l4.4 13.3 4.2-13.2h3.3l-6.2 18h-2.7l-4.4-12.8-4.4 12.8h-2.7z"/><path fill="#e6e6e6" d="m551.2 436.4c0-3.9 3.1-7 7.2-7 4.2 0 7.2 3.2 7.2 7s-3.1 7-7.3 7c-4.1 0-7.1-3.1-7.1-7zm11.2 0c0-2.3-1.7-4.3-4.2-4.3s-4.1 2-4.1 4.3 1.7 4.3 4.1 4.3c2.7.1 4.2-1.9 4.2-4.3z"/><path fill="#e6e6e6" d="m567.8 429.7h3.1v3c.8-2 2.4-3.4 4.8-3.3v3.2h-.2c-2.7 0-4.6 1.7-4.6 5.4v5.1h-3.1z"/><path fill="#e6e6e6" d="m577.5 424.5h3.1v11.1l5.6-6h3.8l-5.4 5.5 5.5 8h-3.5l-4.1-5.8-1.9 2v3.9h-3.1z"/><path fill="#e6e6e6" d="m590.1 436.4c0-3.9 3.1-7 7.2-7 4.2 0 7.2 3.2 7.2 7s-3.1 7-7.3 7c-4.1 0-7.1-3.1-7.1-7zm11.2 0c0-2.3-1.7-4.3-4.2-4.3s-4.1 2-4.1 4.3 1.7 4.3 4.1 4.3c2.6.1 4.2-1.9 4.2-4.3z"/><path fill="#e6e6e6" d="m606.5 438.2v-8.6h3.1v7.6c0 2.1 1.1 3.3 2.9 3.3s3-1.3 3-3.3v-7.6h3.1v13.4h-3.1v-2.1c-.8 1.3-2.1 2.3-4.2 2.3-3 .2-4.8-1.8-4.8-5z"/><path fill="#e6e6e6" d="m622.2 439.4v-7.1h-1.7v-2.6h1.7v-3.7h3.1v3.7h3.6v2.6h-3.6v6.6c0 1.2.6 1.7 1.7 1.7.7 0 1.3-.2 1.9-.5v2.5c-.8.5-1.7.7-2.8.7-2.3 0-3.9-.9-3.9-3.9z"/><path fill="#e6e6e6" d="m631.5 425.3h3.2v15h9.4v2.9h-12.5v-17.9z"/><path fill="#e6e6e6" d="m654.3 443.1v-1.7c-.9 1.1-2.3 2-4.4 2-2.6 0-4.8-1.4-4.8-4.2 0-3 2.3-4.4 5.4-4.4 1.7 0 2.6.2 3.7.5v-.2c0-1.9-1.2-2.9-3.3-2.9-1.5 0-2.6.3-3.9.8l-.8-2.5c1.5-.7 2.9-1.1 5.1-1.1 4 0 5.9 2.1 5.9 5.7v8zm.1-5.6c-.8-.3-1.9-.5-3.1-.5-2 0-3.1.8-3.1 2.1s1.1 2 2.6 2c2 0 3.5-1.1 3.5-2.9z"/><path fill="#e6e6e6" d="m663.3 441.1v2.1h-3.1v-18.7h3.1v7.4c1-1.4 2.4-2.5 4.5-2.5 3.2 0 6.3 2.5 6.3 7s-3.1 7-6.3 7c-2.2 0-3.6-1.1-4.5-2.3zm7.7-4.7c0-2.6-1.7-4.3-3.9-4.3s-3.9 1.7-3.9 4.4c0 2.6 1.8 4.3 3.9 4.3s3.9-1.7 3.9-4.4z"/><path fill="#e6e6e6" d="m675.3 441.4 1.4-2.1c1.4 1.1 3 1.7 4.4 1.7s2.1-.5 2.1-1.5-1.3-1.4-2.8-1.8c-.1 0-.2-.1-.2-.1-2-.6-4.2-1.4-4.2-4s2.1-4.1 4.8-4.1c1.7 0 3.5.6 5 1.5l-1.2 2.2c-1.3-.8-2.6-1.3-3.8-1.3s-1.9.5-1.9 1.4 1.3 1.4 2.8 1.8c.1 0 .2.1.2.1 2 .6 4.2 1.5 4.2 4 0 2.9-2.2 4.2-5 4.2-2 0-4.1-.7-5.8-2z"/></g>
</svg>
