<?xml version="1.0" encoding="utf-8"?>
<!-- Generator: Adobe Illustrator 23.0.1, SVG Export Plug-In . SVG Version: 6.00 Build 0)  -->
<svg version="1.2" baseProfile="tiny" id="Layer_1" xmlns="http://www.w3.org/2000/svg" xmlns:xlink="http://www.w3.org/1999/xlink"
	 x="0px" y="0px" viewBox="0 0 900 600" xml:space="preserve">
<g>
	<path d="M706.21,93.96l0.1-0.1C706.23,93.86,706.23,93.88,706.21,93.96z"/>
	<path d="M897.11,127.3c-2.33-2.33-17.12-0.24-17.12-4.1c-4.43-59.07-76.71-57.8-88.19-21.72c-1.33,4.17-3.16,8.45-3.7,9.81
		c-0.16-0.05-6.48-3.2-5.99-1.73c1.54,6.22,3.69,1.45,11.19,14.95c8.94,0-1.8,14.55-1.6,34.74c0.18,18.53-10.59,33.57-12.11,37.14
		c-0.81,1.9-0.36,6.64-5.51,3.7c-10.84-6.19-18.15-9.55-23.52-20.12c0-4.67,0.6-3.87,3.5-5.61c4.74-9.55,0.26-2.36-4.4,0.9
		c-0.01,0.1-10.29,69.37-10.31,69.47c-16.6,1.12-14.35,0.45-44.65-8.51c-5.08-1.5-3.62,0.09-14.82-4.5c-1.96,0,0.17-14.59-1.4-23.32
		c-1.35-7.51-0.15-10.09-2.4-13.31c-3.96-5.67-5.23-7.22-6.21-10.91c-3.33-12.6-4.43-15.72-2.37-15.72c4.39,0,3.66,7.25,15.71,3.22
		c5.47-1.83,6.27-3.8,9.36-4.66c2.38-0.66,0.58,2,8.34,3.89c-1.23-1.73-1.97-2.7-5.51-5.46c-3.16-2.47,2.29-5.45,3.7-15.92
		c4.51-33.52-16.02-41.79-11.8-43.95c1.96-1.24,10.02,4.84,11.8,6.31c17.83,14.68,27.24,34.83,42.14,21.62
		c3.45-3.06,2.45-15.3,0.7-19.62c-0.37-0.71,0.26-0.73,0.86-0.29c4.23,3.06,6.13,16.61,10.34,20.7c7.03,6.84,7.38,16.85,5.96,26.56
		c2.53-4.3,3.28-7.78,2.44-12.64c-1.9-11.06-0.14-3.53-7.81-16.72c-2.16-3.73-3.2-7.91-5.11-11.71c0.5-0.8,0.9-0.4,1.3-0.2
		c15.05,7.52,12.71,20.79,14.52,25.43c1.6-0.25,1.56-14.86-5.01-21.42c-0.8-0.8-1.6-1.5-2.8-2.7c17.96,0.86,9.26,3.16,13.24,4.96
		c13.46,6.06,18.17,3.38,12.18,14.57c-2.17,4.06-9.25,20.67-6.78,18.29c1.28-1.24,12.57-24.62,10.78-27.6
		c-0.29-0.66,0.78-1.39,0.3-2.1c-0.8-0.2-1,0.7-1.6,0.8c-12.49-6.26-14.87-2.66-14.42-8.51c1.7-1.6,3.8-2.3,6.31-2.4
		c1-2.7,0.2-5.71,1.3-8.61c1.66-1.66,4.3-0.44,4.3-1.3c0.32-2.58-3.19-4.73-5.51-1.6c-0.3,0.4-0.4,0.9-0.7,1.4
		c-2.2-0.9-4,0.2-5.81,1.6c-37.66-4.43-34.63-2.15-33.64-14.11c1.2-0.9,2.71-1.6,3.1-3.1c0.29-1.12,10.41-24.19,6.61-30.53
		c-0.6,2.1-0.7,4.1-0.4,6.21c-2.64,4.74-4.69,23.84-8.91,25.83c-1.51-0.14-10.63-0.88-10.81-0.7c-1.1,0.55,0.84,1.71,1.4,1.8
		c6.19,0.69,6.62,0.06,7.21,1c0.4,2.6-0.9,5.11-0.4,7.91c1.3,0.8,1.9,2.41,2.9,3.6c5.19,6.16,4.51,13.17,4.3,21.12
		c-0.38,3.42-3.13,5.11-6.21,5.11c-1.09-4.74-1.04-6.17-2.5-7.21c0,2.7,1.5,5.11,1.3,7.61c-3,0.8-5.1,0.8-6.71-0.6
		c-7.55-6.58-2.46,0.71-17.12-15.12c-1.98-2.64-0.77-0.67,10.01-0.2c9.14,0.4,8.71,4.48,12.21,3.6c1.1-2.5,4.3-1.3,6.11-3.4
		c-2.8-0.8-4.91-0.1-6.91,1.8c-4.69-3.75-15.05-3.3-21.42-4.81c-0.8-0.19-1.6,0.1-2.5,0.2c-12.36-12.36-18.57-11.75-15.42-14.11
		c3.57-2.38,7.09-3.54,11.81-7.51c0.58-0.48,1.26-0.78,1.93-0.89c0.3-0.77,0.65-1.55,0.47-2.41c-1.4-6.79-0.3-13.71-0.4-20.02
		c0.4-1.1,1.3-1.3,1.1-2.1c-0.5-0.9-2-0.3-2.3-1.5c-0.65-1.96,1.26-0.47,2.1-2c-0.2-1.4,0.9-3,0.5-4.81
		c-0.46-0.62-3.11-2.76-1.8-3.8c2.39-1.02,2,4.61,2.9,5.81c0.62,0.93-0.78,8.9,5.21-5.41c1.62-3.87,2.02-1.92,6.21-10.01
		c0.6-1.15,2.26-0.13,3-0.6c-0.69-2.07,1.78-0.33,2.1-2.6c-0.6-0.9-0.5-2.2-1.6-3.1c-0.96,0.1-1.92-0.27-2.88-0.83
		c0.3-0.49,0.69-0.97,1.28-1.17c3.5,1.7,3.5,1.7,5.21,4.1c1-0.1,0.2-1,0.6-1.4c6.22-1.13,4.53,0.18,6.41,0c2-0.19,3.9,0.44,5.81,0.8
		c3.33,0.63,4.21-1.49,5.41-0.1c0.5,3.5-0.3,7.31,1.9,10.61c-1.48,5.91-9.17,1.3-8.11,10.81c0,0.2,0.3,0.3,0.5,0.5
		c0.4-0.9,0-2.1,0.9-2.8c2.68,0,0.12,0.98,5.91-0.6c4.37-13.64-0.13-5.35,1-19.82c1.5-2.9,5.21-2.5,7.01-5.21c-0.8-1,0.3-1.9,0.1-3
		c-1.89-3.14-2.48,0.53-3.9-0.9c0.3-0.5,1.1-0.6,1.1-1.4c-1.48-2.59-2.31-0.44-3.3-1c-0.3-1.8,0.9-3.8-0.5-5.61
		c-1.4,0.8-2.1,2.2-3.7,2.6c-0.3-0.3-0.5-0.7-0.9-1.2c-2.9-0.7-5.61,0.9-8.21,1.1c-4.3-1.1-8.51-0.7-12.51-0.8
		c-4.52,4.24-2.33,0.52-4.2-0.1c-7.15,6.85-10.18,2.41-11.01,1.7c-5.41-0.6-1.2,1.63-1.2,3.4c-1.93,0.24-1.06,2.16-1.6,2.7
		c-0.8,0.6-0.9,1.8-1.9,2.2c0.6,1.1-0.5,2-0.6,3c0,1.26-1.71,1.18-2,3.8c-0.23,4.18-3.49,6.32-2.3,9.91c1.48,4.45,0.34,8,1.1,12.11
		c3.08,16.52,4.93,17.45,3.9,22.22c0.3,1.5,1.6,2.3,1.1,3.9c-5.83,6.36,0.68,1.36-9.01,7.01c-7.84,4.57,3.8,4.51-53.66-2.4
		c-3.31-2.04,0.14-2.71-7.41-1.2c-5.78-3.56-5.25-1.94-8.51-4.5c-3.8,1-7.81,0.5-11.61,1.8c-0.35-1.42,0.62-39.68-28.03-53.26
		c-35.23-16.7-66.52,3.7-72.48,40.64c-0.36,2.2-0.57,2.29-4.2,1.9c-7.05-0.75-27.89-3.16-31.53-4.2c-2.08-0.6-10.54,2.27-4.2,10.01
		c10.51,2.39,33.06,4.09,38.34,5.41c0,57.24,48.97,65.94,68.57,57.46c19.49-8.43,25.92-23.87,31.33-41.74
		c2.7,3.4,5.91,6.11,6.21,10.91c-1.14,4.54-4.17,37.17-6.31,41.34c-1.19,2.31-0.9,21.4,4.4,35.54c6.21,0.89,17.49-1.22,22.42-4.91
		c3.8-2.83,15.77-9.65,16.32-10.11c19.02-15.8,2.67-6.84,21.42,19.12c1.27,11.4,1.87,15.7,0.7,21.42c-0.82,4-0.72,7.78-1.8,10.91
		c-0.87,2.51-1,5.21-0.8,7.91c2,1.3,4.1,1.7,6.31,2.1c0.4-4,0.4-4.3,1.6-5.51c0.7,1.4,0.2,3.3,1.5,4.4c0.63-0.38-0.06-3.48,2.1,0.3
		c3-3,0.82,1.04,3.2,1.6c0.1-0.9,0.3-1.9,0.3-2.8c0-1-0.1-1.9-0.1-2.9c2.96-0.59-0.6-1.68,4,10.01c3.18-2.12,0.03-0.98,9.51,0.6
		c0.4,5.61,0.4,5.61,1.3,6.61c0.69-6.51,0.41-6.2,6.51-4.1c18.82,6.46,11.97,0.28,14.42,7.01c0.4,1.1,0,2.6,1.3,3.3
		c0.8-0.7,0.3-1.4,0.2-2.1c-1.25-8.74,2.63-0.74,13.11-6.31c-16.88,0-10.46,2.73-29.43-4.1c2.61-6.79,4.07-1.17,10.61-0.4
		c1.7,0.2,3.4,0.1,4.5,0.5c1.3,0.8,1.1,1.9,2,2.2c0.8-0.5,0.4-1.91,1.6-1.8c1,0.09,0.6,1.6,1.7,1.7c1-0.2,0.5-1.8,1.7-1.7
		c0.48,0.27,2.16,3.79,3.4,1.3c-0.78-1.17-0.52-0.75-0.2-1.3c0.74,0.35,0.2,0.79,0.2,1.3c0.9,0,1.2,1.7,2,1.1c0.8-1,0.2-2.2,0.8-3.2
		c3.7-2.22,0.06,4.51,4.1,3.7c0.3,0.8,0.7,1.5,1.1,2.3c2.4,1.2,3.81,3.4,5.71,5.21c3.34,3.16,2.86,6.41,3.6,15.82
		c0.24,3.06-1.17,2.21-2.1,8.91c-0.54,3.9-0.38,18.26,1.9,21.42c-0.84-33.44,2.37-23.29,1.6-12.41c-0.89,12.54,3.41,14.42,1.9,26.43
		c-3.08,24.54,7.22,43.41,4.1,44.45c-15.68,6.31-21.6,9.49-30.73,10.51c-3.52,0.39-11.09-0.62-10.51-4.1
		c0.24-0.93,1.1-21.32,1.1-21.42c0.31-6.73,4.93-9.35,2.2-10.71c-0.2,0.4-0.5,0.9-0.9,1.4c-5.01,5.59-2.87,8.88-3.4,12.71
		c-3.1,22.41,6.06,21.24-16.42,15.62c0.65-11.78,1.13-10.16,0-11.01c-1.93,9.91,0.18,11.25-3.8,10.71c-5.85-0.78,4.6-0.37-15.42-0.6
		c-11.03-0.13-5.44-0.09-5.61-10.81c-1.21,1.09-1.26,2.48-2.9,9.71c-1.7-1-3.4-0.1-5.01-0.4c-11.78-2.21-9.83,3.49-10.91-4.6
		c3.21-5.35,1.96-5.45-0.1-30.83c-0.41-5.03-0.66-3.89,2.4-7.11c2.21-2.32,4.42-8.36,2-9.81c-1.94,1.94,0.23,4.71-4.3,9.81
		c-0.51-2.04,0.26-6.56-0.1-11.71c-0.32-4.49,0.95-10.38,1.6-14.72c0.46-3.04-1.5-1.89,0-11.31c2.22-13.89,3.11-15.03,1.7-16.72
		c-0.96-1.44,0.18-8.99,3.5-12.31c4.21-4.21,7.07-11.18,8.41-13.81c0.71-1.4-1.1-2.72-2.1-0.5c-6.21,13.74-10.44,13.32-11.11,18.42
		c-0.46,3.45-0.01,10.06-1.2,15.32c-6.9,30.47-1.69,41.03-1.8,43.45c-4.19,8.38,1.84,28.93-0.8,35.04c-0.02,0.03-0.8,7.54-0.8,11.41
		c0,4.42,6.92,0.15,12.81,3.4c0.74,2.4-0.67,8.07,0.6,12.21c2.88,9.36-5.51,24.65-10.11,32.83c-8.09,14.39,1.9,21.72,1.9,79.98
		c-5.88,3.86-3.64,6.13-7.31,9.01c-6.44,5.05-6.6,2.7-8.81,9.71c-4.38,13.89,10.72,15.57,9.61,21.12
		c-1.03,3.67-0.17,12.99,3.7,16.32c3.5,2.63-8.55,2.38-5.71,5.71c0.38,0,0.86,0.09,1.34,0.19c0.42-1.33,7.63-3.67,8.37-1.09
		c-0.6,0.7-2.1,0.1-2.3,1.6c1.6,0.8,3-0.9,4.6-0.3c13.67,6.83-2.89,1.27-5.41,1.5c6.09,4.87,31.37,3.22,37.14-0.9
		c3.3-0.4,6.61,0.5,9.41-1.6c-0.8-2.4-9.11,1.07-9.11-2.3c0-2.81,39.54,2.94,40.24,2.7c-1.06-3.19-30.31-4.43-39.34-4.2
		c-0.9,0.02-1.6-0.22-1.6-1.1c1.93-1.07,13.68,0.8,16.52-1c8.81,1.92,31.13,3.48,31.13,6.41c-9.37,6.4-27.4,5.69-38.84,6.41
		c-0.66,0-1.76,1,1.4,1c11.3,0,21.08-1.87,23.93-1.9c9-0.09,14.25-4.5,15.62-4.5c1.7,2.4,0.5,5.41,1.1,8.01
		c-2.1,1.3-4.21,2.39-6.11,3.7c-10.87,7.55-87.46,3.67-90.1-1.6c0.1-2.4-0.4-10.41-0.8-12.01c-0.7,0-1.08,0.5-1.1,1.2
		c-0.32,13.46-0.54,13.07,10.51,15.22c21.7,4.22,38.61,1.98,50.45,3.6c6.64,0.91,39.05-2.43,39.94-12.21
		c5.07-0.56,69.03,5.73,73.78-8.51c0-10.72-6.2-10.45-19.52-13.11c-12.92-3.52-35.88-0.29-37.14-1.3c-3.57-10-2.02-7.7-9.21-12.61
		c-1.72-5.25-5.66-21.05-3.9-26.33c0.97-3.57-1.04-3.6-2.1-4.3c-3.35-1.83-3.45,3.04-4.4-7.41c-2.08-8.31,11.31-87.18,8.21-93.9
		c2.8-5.81,3.1-11.71,0.6-17.62c2.1-2.8,1.2-6.21,1.7-9.21c7.34-4.99,8.66-1.89,6.71-8.51c-3.94-13.35-5.84-27.82-4.2-41.34
		c0.54-4.42-0.6-0.1-0.6-10.31c0-6.64-1.3-6.3-1.3-9.81c0-1.63,0.04-9.86-0.4-11.11c-5-14.12,3.7-25.83-12.31-35.84
		c-0.7-3.3-0.4-6.81-1.9-9.81c0.28-1.8,1.21-29.91,4.81-38.04c2.66-6.03,1.81-21.08,4.81-16.62c2.41,3.58,6.26,7.25,11.81,10.41
		c11.04,6.29,11.59,7.21,13.81,5.91c1.01-2.78,4.86-4.58,3.9-8.21c6.1-9.86,11.11-17.19,11.11-35.14
		c0.87-14.79,3.05,10.4,32.23,13.31c13.71,2.28,22.1,3.6,33.84-4.3c11.2-7.55,17.43-19.76,19.52-30.73
		c0.36-3.61-0.98-2.83,17.62-0.8C900.34,132.89,901.68,131.22,897.11,127.3z M785.37,113.01c-0.09-0.32,0.08-0.3-0.58-0.63
		c0.72-0.48,0.09,0.2,0.94,0.56C785.84,113,785.47,113.36,785.37,113.01z M780.39,108.58c-0.81,0.29-1.56,0.31-2.29,0.1
		C778.68,107.58,778.68,107.58,780.39,108.58z M776.18,111.68c-1.5,1-2.5,0.5-3.5-0.2C773.78,109.88,773.78,109.88,776.18,111.68z
		 M743.84,110.39c2.6,0.48,30.85,3.05,31.84,3.79c0.2,1.3,0.1,2.6-0.2,3.9c-1.6,0.6-2.99,1.23-4.5,1.8
		c-1.93,0.73-21.88-1.87-22.89-3.39C746.39,114.34,740.2,109.72,743.84,110.39z M741.04,112.18c0.61,0,0.79,0.32,0.8,0.9
		C741.85,113.29,741.23,113.1,741.04,112.18z M743.75,59.63c0.58-0.38,1.11-1.01,1.9-0.5C745.15,59.83,745.15,59.83,743.75,59.63z
		 M749.95,34.7c1.7-1.36,2.53,0.86,0.4,1.8C749.35,36.1,749.75,35.4,749.95,34.7z M745.85,28.69c0.1,1.2,0.1,1.2-0.9,1.7
		C744.85,29.69,745.05,29.09,745.85,28.69z M731.37,38.13c-0.8,0.2-0.96-0.41-0.44-0.83C731.04,37.41,731.62,38.04,731.37,38.13z
		 M736.74,31.4c0,0.05,0,0.15,0,0.2C736.48,31.47,736.49,31.52,736.74,31.4z M736.64,40.2c0.08,0.09-0.03,0.04-0.17-0.03
		C736.61,40.21,736.67,40.2,736.64,40.2z M735.94,34.5c0.26,0,0.23-0.05,0.1,0.2C735.79,34.46,735.81,34.5,735.94,34.5z
		 M736.34,40.11c-1.59-0.27-1.26-0.7-1.41-0.7C735.68,39.41,736.11,39.27,736.34,40.11z M734.83,39.39
		c-0.28-0.07-0.62-0.09-0.89-0.18C734.06,38.72,734.57,38.61,734.83,39.39z M733.04,36.5c0.13,0.25,0.16,0.2-0.1,0.2L733.04,36.5z
		 M732.23,30.6c-1.1,1.7-1.1,1.7-2.4,1.5C729.93,30.5,730.93,30.5,732.23,30.6z M719.02,46.11c-0.2,0.8-0.8,1.2-1.6,1.7
		C717.42,46.36,718,44.58,719.02,46.11z M716.21,31.26c1.63-0.66,1.04,1.64-1.19,1.03C715.4,31.85,715.75,31.44,716.21,31.26z
		 M718.22,37.1c-0.46,0.72-0.88,1.35-1.5,1.96C713.54,42.19,713.57,38.96,718.22,37.1z M713.21,48.61c-0.07,0-0.13,0-0.2,0
		C713.14,48.36,713.09,48.36,713.21,48.61z M712.81,50.62c0,0.97,0.02,1-1.3,1.7C711.51,51.12,711.91,50.72,712.81,50.62z
		 M705.61,64.73c0,0.05,0,0.15,0,0.2C705.35,64.8,705.35,64.86,705.61,64.73z M705.96,50.9c-1.16,3.59-0.84-4.16,0.55-1.78
		C706.31,49.71,706.15,50.31,705.96,50.9z M710.11,63.23c-0.36-0.36,0.1-0.83,0.1-0.3C710.21,63.03,710.11,63.13,710.11,63.23z
		 M709.11,50.42c0.2-0.82,1.24-0.64,1.4-0.3C710.78,50.52,709.11,51.47,709.11,50.42z M710.91,60.13c0.36,0-0.02,0.05-0.1,0.2
		C710.81,60.33,710.81,60.13,710.91,60.13z M709.3,30.96c0.05-0.29,0.67,0.5,0.32,0.58C709.2,31.58,709.27,31.15,709.3,30.96z
		 M704.91,35.8c1.41-0.47,1.62-0.67,1.62-0.57c0.42,0.49,1.56,1.87,1.78,1.87c2.11,0,2.72-0.29,2.13,0.82
		c-0.99,1.88-2.15-0.56-3.52-0.13C701.21,40.37,705.86,37.35,704.91,35.8z M702.53,68.34c-0.47-0.13-0.35-0.83,0.21-0.27
		C702.87,68.19,702.69,68.39,702.53,68.34z M702.69,64.12c-1.61-2.72-1.59-2.7-0.09-4.09C704.88,61.55,704.76,61.36,702.69,64.12z
		 M476.96,84.15c-6.21,0.83-5.26-4.03-1.6-5.41C477.77,80.35,478.05,81.27,476.96,84.15z M503.89,88.86
		c-32.31-3.87-24-2.18-23.95-5.82c0.04-2.92-1.65-4.21,1.22-3.79c81.43,11.87,78.14,8.33,80.19,11.51
		C561.89,97.76,556.49,95.15,503.89,88.86z M557.85,97.46c0.83,0.33,0.66,3.12,2,5.81c2.65,5.31,3.07,17.14-1.2,18.13
		c-0.75-0.25-1.68-0.18-1.96-1.29c-0.09-0.35-0.35-12.12,0.16-16.64C557.44,98.17,554.98,98.66,557.85,97.46z M559.45,97.47
		c3.3-2.4,3.3-2.4,4.1-6.41c-0.9-3.9-4.1-4.1-6.71-4.81c-0.06-0.67,0.2-0.99,0.54-1.18c9.46-5.44,16.79,14.07,3.96,15.4
		C559.85,99.77,560.05,98.47,559.45,97.47z M555.34,97.37c-5.71,7.68-4.64,5.53-11.3,20.82c-10.83-5.58-2.08-13.52,7.6-20.82
		C552.72,96.55,553.93,96.67,555.34,97.37z M515,109.18c-0.71-3.08-2.56-14.11-1.4-17.02c8.78-2.93-2.28,12.31,16.42,38.74
		c6.76,9.56,18.38,13.46,23.19,11.64c2.46-0.93-9.56,1.2-17.99-8.04c-13.63-14.94-17.27-37.94-15.52-41.44
		c1.21-0.6,28.34,3.09,29.73,3.3c-8.54,5.34-9.02,8.22-13.21,11.01c-0.82,3.69-0.17,6.98,2.4,9.81
		c10.76,11.83,8.27-5.94,15.92-16.02c0.79,0.49,0.3,0.9,0.2,1.3c-2.47,9.86-0.57,11.7-2.1,15.02c-2.1,4.54,7.59,11.93,11.31,3.8
		c2.58-5.62,0.86-12.5-2.29-18.82c0.43-1.07,5.95-1.04,8.31-6.11c3.35-7.18-4.64-14.93-9.41-14.01c-2.7,0.52-5.31,1-6.81,3.5
		c-2.9,0-27.83-2.9-32.53-3.9c-0.49-0.49-0.32-1.04-0.2-1.7c5.45-30.24,30.32-44.18,43.05-39.84c18.71,6.37,0.91-4.13-7.71-2.5
		c-20.85,3.94-34.14,23.24-37.44,42.14c0,1.76-2.03,1.6-3.7,1.1c-0.67-0.67-0.51-1.26-0.4-1.9c6.46-37.42,39.48-56.73,63.77-37.34
		c22.06,17.61,25.86,57.29,9.01,83.89C565.38,160.87,524.88,151.74,515,109.18z M553.44,149.42c50.96-5.88,60.24-81.04,27.13-107.91
		c-7.43-6.03-12.36-6.51-9.3-6.59c1.24-0.03,11.92,1.73,21.91,10.39C628.1,75.57,611.53,160.49,553.44,149.42z M674.57,169.54
		c-3.31-0.28-4.75-2.91-4.67-3.06c0.64-2.18,1.98-1.51,2.87-5.55c14.17-11.96,2.86-11.65,17.72,3.2
		C686.17,167.59,679.8,169.54,674.57,169.54z M686.4,103.15c2.06,0.85-3.43,4.9-4.81,6.32c-0.3,0.31-34.24-3.54-37.25-4.29
		c-1.01-2.83-1.1-1.47-2-6.91C643.31,97.3,686.29,103.11,686.4,103.15z M673.97,112.58c-21.7,6.06-21.1,22.99-24.73,28.43
		c-5.02,2.77-8.6,7.91-12.51,12.21c-1.08-1.58-2.31-3.27-3.5-4.81c-3.26-34.42,0.3-17.73,1.7-30.33c0.38-3.42,5.35-9.19,7.71-10.41
		C642.74,107.68,680.23,111.19,673.97,112.58z M633.63,100.47c-0.6,0.4-1,0.8-1.7,0.5C632.23,100.17,632.73,100.07,633.63,100.47z
		 M630.33,95.26c0.32,2.24,1.2,5.18-0.48,4.93c-1.28-0.19,0.67-2.12-2.52-5.21c-0.11-0.1-3.25-3.4-3.14-3.45
		C626.31,90.28,625.57,93.01,630.33,95.26z M626.92,98.85c-0.91,0.38-1.77-0.24-2.8-0.47c-0.76-1.53,0.85-0.41-3.3-6.41
		C623.96,92.78,629.6,97.72,626.92,98.85z M622.52,96.17c-0.62,3.08-4.45-0.95-7.01-2.6C618.81,89.44,620.3,95.06,622.52,96.17z
		 M613.31,96.07c0.74-0.67,3.3-0.5,3.37-0.4c0.99,1.41,2.03,3,3.72,3.3c2.2,0.4,4.11,1.65,6.31,1.8c1.1,0.08,1.9,0.6,2.8,1.3
		c-0.5,2.17-1.43,1.46-7.91,0.7C608.97,101.28,613.71,102.89,613.31,96.07z M657.26,176.44c-2.43,2.67-2.99,1.69-8.61,4.81
		c-18.96,10.52-15.73,11.81-28.73,11.81c-4.5,0-4.04-13.64-5.91-19.32c-2-6.09-0.65-20.8,2.29-21.61c-0.88-2.06,3.4-26.7,3.4-34.74
		c0-6.18-2.32-5.03-6.88-12.62c-0.58-0.97,2.25-1.09,3.77-0.39c3.13,1.44,6.41-0.95,9.91,0.1c3.25,4.22,2.93,4.15,3.6,3.66
		c1.59-1.15-2.49-1.68,1.3-5.97c1.85-0.44,4.14-1,6.21-1c-0.49-1.27,0.86-1.68,1.2-2.4c-0.4-0.2-0.5-0.5-0.7-0.5
		c-1.06,0.12-4.57,1.1-5.33-1.41c-0.34-1.12,2.01-0.59,2.92-1.29c3.81-2.91,5.22,2.01,5.11,4c-0.18,3.15,2.34,3.19,0.65,5.94
		c-0.92,1.5-2.55,2.47-3.35,3.97c-1.12,2.09-2.6,3.9-4.1,5.51c-1.7,6.8-3.59,9.57-3.59,18.11c0,18.99,1.03,13.99,8.51,33.94
		c1.36,0,0.91-1.08,1.2-3.7c0.7-0.2,1.33,0.5,1.9,0c-0.99-2.98-3.67-4.89-4.38-7.96c0-2.4,10.8-11.72,18.5-15.57
		c0.99-0.3,1.83,0.68,2.7,0c-0.7-0.7-0.3-1.9-1.3-2.6c-1.92,0-7.08,3.52-5.21,0.7c5.3-7.95,8.09-20.58,24.13-24.13
		c5.27-1.16,6.52-3.34,8.61-4.91c1.2,0.8,1.82,1.9,2.1,3.3c0.22,1.1,1.7,1.7,2,3.1c-1.85,0.92-4.51-0.58-5.61,1.6
		c8.76,1.4,7.76-0.03,10.51,6.31c6.76,15.56,1.55,36.82-1.7,37.24c-11.36-14.29-10.3-17.3-15.12-18.22
		c-2.75-0.53-4.59-2.04-6.75-1.41c-1.29-0.59-2.48-0.78-4.06-0.39c1.48,0.79,2.86,0.03,4.05,0.39c-0.16,0,0.06,1.2,1.35,0.71
		c2.1,1.3,4.4,2,6.81,2.6c2.31,5.94,2.12,4.96,1.68,5.76c-4.41,8.09-25.23,18.89-21.8,17.75
		C667.83,166.08,676.52,155.25,657.26,176.44z M676.98,238.72c-0.44,0.44-0.66-0.35-0.59-0.62
		C676.55,237.49,677.24,237.67,676.98,238.72z M678.21,238.79c0.17-0.83,0.15,0.09,0.37,0.53
		C678.43,239.17,678.17,239.08,678.21,238.79z M678.88,236.51c0-0.4,0-0.7,0-1.1C679.28,235.81,679.28,236.11,678.88,236.51z
		 M687.19,237.72c-0.12-0.24-0.22-0.2,0.09-0.2L687.19,237.72z M692.29,242.52l0.1,0.2C692.13,242.72,692.17,242.77,692.29,242.52z
		 M692.9,239.89c-0.18,0.05-1.04-0.8-0.12-0.9C693.06,238.99,693.4,239.74,692.9,239.89z M694.89,244.02c-1.2-1.3-1.2-1.3-0.2-3.3
		C695.09,241.62,694.89,242.52,694.89,244.02z M703.01,243.82c-0.29,3.14-1.37,1.83-6.71,0.2c-0.56-2.43,0.4-3.39,0.4-3.6
		C704.14,243.25,703.01,242.61,703.01,243.82z M704.81,246.42c0,0.17-0.62,0.31-0.62,0.18c-0.11-0.06-0.19-0.31-0.28-0.49
		c0.2-0.1,0.4-0.4,0.4-0.4C704.66,245.71,704.9,245.95,704.81,246.42z M706.41,247.13c0.07-0.1,1.9-3.29,2.52-2.67
		C710.3,247,708.43,248.48,706.41,247.13z M657.97,431.42c-0.59-5.39,0.9-4.82,0.9-8.71c0.45-8.32,3.94-10.87,10.81-24.43
		c6.63-13.1-3.32-32.92,3.49-29.03c1.22,2.89,0.61,7.72,2.2,10.11c2.29-2.82,0.03-3.43,1.2-8.91c0-0.82,14.85-2.05,30.03,2.2
		c0.57,2.87-2.93,8.75-3.8,10.21c-3,5.02,0.27,3.03-5.41,14.92c-2.67,5.59-3.32,7.94-4.32,9.46c-1.75,2.63-1.89-0.43-2.68,8.66
		c-1.48-2.97-1.49-6.19-3.8-9.11c0,3.65,1.6,5.77,1.6,10.61c1.52,16.74-12.45,58.55-9.91,79.78c0.63,5.3,0.16,5.21-0.33,5.49
		c-0.79,0.45-2.8,0.84-3.27-0.58c-0.2-1.5-0.5-2.9-0.8-4.71c-1.67,2.62,0.64,5.31-1.51,6.33c-0.55,0.26-1.07,0.44-1.28,1.08
		c-0.57,1.7-1.78,2.49-1.94,2.49c-2.29-0.78-5.18-0.7-6.97-3.59c1.3-2.8,3.2-5.51,2.8-8.91c-2.13,0.43-1.73,1.55-1.9-10.11
		C662.6,452.5,660.65,455.8,657.97,431.42z M664.26,509c-5.53,1.06-6.11-1.15-5.5-4.41C661.6,507.42,659.61,506.29,664.26,509z
		 M659.87,495.8c2.02-0.08-0.28,3.08-1.91,5.9C657.96,499.91,658.38,495.86,659.87,495.8z M685.48,557.26
		c1.21-1.82,1.71-1.77,4.91-1.4C689.49,557.36,689.49,557.36,685.48,557.26z M692.99,552.85c-1.63,2.17-8.84-1.72-9.71,5.01
		c-2.39,0.23-9.9,0.56-12.01-0.8c-10.01-6.46-16.71-5.65-15.42-23.32c0.67-9.13-12.7-3.36-8.41-23.93c2.06-2.41,2.66-1.22,8.74-5.36
		c1.17-0.8-0.32,3.22,1.17,5.46c3.22,2.11,7.12,0.8,10.71,2c6.48-2.43,0.01-5.91,13.47-6.21c1.73-0.04,1.29-0.09,2.34,0.7
		c0.62,3.92-1.37,9.17-1,11.51c-1.78,1.2-16.21-0.27-16.92,2.2c0.96,2.39,12.67,0.77,14.71,0.56c0.82-0.08,2.67,0.92-2.99,1.34
		c-5.33,0.4-6.9,0.79-8.01,1.9c-0.47,5.13,14.81-2.69,12.01,2.2c-3.4,1.5-7.51,0.6-10.71,2.8c-0.59,3.54,7.56,1.07,11.11,0.1
		c3.47,4.05-9.39,1.22-9.71,5.11c1.06,2.12,8.51,0.08,10.71-0.8c3.98,4.59,0.55,7.12,4.4,10.01c1.24,0.62-0.85,0.79,5.21,5.51
		C693.03,552.19,692.99,550.72,692.99,552.85z M787.19,540.54c9.21,2.3,34.74,3.24,28.83,6.71c-9.28,5.44-35.77,4.35-36.54,5.51
		c0.1,0,7.54,0.77,21.02-1.1c3.52-0.78,9.52,0.61,17.72-4.2c2.43-1.22,1.85,4.25,2,7.21c-9.64,5.11-6.42,7.03-49.3,7.03
		c-40.46,0-6.78-6.13-41.7-11.95c-1.25-1.16-0.19-2.96-1.36-3.98c-0.84-0.84-1.04,2.49-2.02,3.26c-0.1,0.1-6.71-0.39-9.23-0.78
		c-10.46-1.64-12.58,1.36-21.82-0.3c-4.08-2.55-7.35-4.97-7.71-10.01c-0.38-5.28-6.29-4.12-1.6-26.03c0.6-3.92,0.53-6.83-2.5-8.01
		c-5.57-2.79-0.95-32.04,0.3-37.64c0.39-1.76-0.93-2.39,0.2-4.3c2.62-4.44,6.76-44.8,10.51-51.96c2.66-5.07,4.67-7.7,7.11-14.22
		c2.6-6.94,1.09-9.65,3.5-11.51c0.3-0.3,0.6-0.6,0.7-0.9c0.7-3.5,3.1-6.31,3.8-10.11c2.6,0,6.99,1.23,10.11,1.5
		c2.3,6.51,4.6,12.91,6.91,19.62c-1.8,3.4-1.82,7.51-2.5,11.51c-6.67,39.03,3.6,20.77,3.6,78.98c-4.54,4.09-6.74,8.47-11.21,10.71
		c-5.35,2.68-11.53,9.21-7.41,14.42c6.26,7.92,9.58,9.18,16.42,14.01c0.23,1.49,0.59,5.36,1.6,6.51c1.78,2.03,4.06,10.3,9.91,10.41
		c0.9,0.02,1.7,0.5,2.2,1.2c-2.1,0.5-4.3,1.1-6.41,1.7c-1.45,0.53-2.25,2.4-1.11,2.37c0.1,0,0.94-0.26,1.31,0.48
		c-0.13-0.32-0.36-0.46-0.7-0.55c0.31,0,0.4-0.75,3.41-1.46c1.55-0.37,9.23-2.09,10.68-1.05c-2.6,1.7-5.71,1.5-8.31,2.5
		c-0.4,0.7-0.7,1.3-1,1.9c1.35,1.96,9.89,2.72,13.41,2.1c-3.69-0.65-10.82-0.92-11.61-2.5c0-2.81,29.78-3.25,32.16-4.17
		c3.12-1.56,31.72,1.93,37.55,2.8c4.64,0.7,1-1.71-5.11-2c-3.69-0.18-7.8-1.14-8.8-1.3c-2.95-0.47-21.98-0.49-23.24-0.7
		c-2.7,0-4,1.41-5.21,0.2C765.25,539.85,785.03,542.47,787.19,540.54z M728.73,489.08c2.5,11.26,14.16,8.76,11.12,9.67
		c-5.22,1.56-8.97,0.91-12.82-2.36C727.03,493.79,727.33,491.39,728.73,489.08z M751.76,498.29c0,3.05-0.61,0.92-0.61,8.02
		c-2.49,1.96-10.88-0.27-8.6,4.29c7.03-0.94,8.59-2.44,8.79-0.75c0.17,1.47-8.15,0.32-8.69,2.75c0.52,2.44,3.34,0.5,9.11,0.5
		c3.54,3.54-8.56,0.76-6.84,3.99c0.75,1.4,5.93,0.53,7.64-0.09c0.78,1.1,0.33,0.89,1.43,5.98c0.72,3.34-2.6,1.43-4.13,3.24
		c-0.09,0.76,0.45,0.89,1.1,1.1c1.3,0.42,2.4-0.3,3.6-0.9c4.49,5.05,8.41,4.91,8.41,9.61c-2.87,1.67-5.5-0.06-7.01,3.8
		c1.35,0,2.63-0.8,3.8-1c6.76-1.14,3.3,3.13-1.3,2.8c-9.16-0.65-24.56,0.29-28.23-9.81c-3.93-10.8-1.6-8.9-8.31-12.51
		c-3.91-2.11-12.51-11.66-12.51-12.71c-0.54-1.62,0.16-2.57,1-5.11c3.4-1.6,6.01-4.5,9.51-6.11c1.89-0.71,9.02-12.61,6.41-5.91
		c-5.23,13.42,8.72,10.82,11.31,12.01C741.94,503.49,742.58,496,751.76,498.29z M755.56,382.77c0,8.76-1.27,5.36-2.7,17.02
		c-0.43,3.47,1.13,0.81-0.8,18.02c-3.22,28.71-8.94,58.33-6.21,77.48c-2.2,2-4.62,2.34-7.21,1.2c-7.58-3.35-10.23-5.75-8.21-14.01
		c2.01-8.23-0.12-6.72-0.47-7.69c-0.11-0.29-1.45-11.56-1.63-16.34c-0.44-4.85,0.78-7.22-1.9-15.62
		c-6.19-19.43-3.96-21.14,1.9-48.05c0.92-0.1,1.35,0.67,1.99,0.87c0.5,0.15-0.24-2.38-1.2-3.89c-2.05-3.23-2.8-1.78-6.11-15
		c1.61-1.61-1.47,1.17,12.61-0.2c3.15-0.31,19.02-7.21,19.02-7.31c2.3,4.85-3.24,9.75-6.91,13.01c1.44,10.63,3,11.13,3,0.4
		C753.47,380.72,755.56,378.16,755.56,382.77z M793.4,120.9c-5.46-7.82-11.68-5.68,31.93-1.01c4.47,3.78,2.25,6.89-0.3,6.61
		C791.65,122.83,795.72,124.23,793.4,120.9z M816.22,129.3c-3.1-3.1,11.89,2.87,14.01-5.21c1.62-6.17-10.71-7.52-13.11-8.01
		c2.11-5.9,11.25-9.83,17.32-1.17C843.86,128.35,827.49,145.75,816.22,129.3z M835.64,114.08c1.17,0.39,0.47,1.18,0.06,0.21
		c-0.12-0.23,0.11-0.09-0.4-0.51C834.58,113.2,835.52,113.58,835.64,114.08z M836.52,115.05c2.35,0.69,4.44,11.86,2.03,15.36
		c-4.29,6.21-4.96,4.06-4.4,3.5C839.78,128.28,838.64,122.42,836.52,115.05z M811.02,166.44c-1.46-1.05-11.35-5.47-14.82-14.32
		c-1.4-3.57-1.96-0.08-0.1-9.61c3.21-16.42,2.05-7.58,3.5-16.32c17.17,1.12,11.86,1.09,16.52,6.51
		c9.19,10.68,32.95,1.53,22.72-17.02c-4.83-8.76-19.09-10.41-24.13,0.3c-27.25-2.69-24.41-2.77-24.39-4.73
		c0.17-15.56,25.53-38.1,46.31-32.9c24.23,6.06,36.44,33.16,31.53,57.56C861.53,168.96,829.21,179.45,811.02,166.44z M835.34,173.15
		c5.13-1.86,5.83-0.69,13.71-5.41c31.38-18.79,28.06-71.88-3.5-87.5c-7.86-3.89,26.04,1.69,31.76,36.45
		C882.13,145.87,865.66,174.83,835.34,173.15z M882.19,133.3c-2.87-0.37-2.33-0.14-2-6.04c0-0.13,0.96-0.37,1.1-0.37
		c13.09,1.6,15.36,1.08,16.62,4.5C896.39,135.56,896.83,135.18,882.19,133.3z"/>
	<path d="M653.35,555.75l0.1-0.1C653.34,555.65,653.42,555.65,653.35,555.75z"/>
	<path d="M676.98,355.74l-0.1-0.1C676.88,355.95,676.86,355.83,676.98,355.74z"/>
	<path d="M223.69,553.85c0,0-0.01,0-0.02,0.01C223.56,553.97,223.56,553.98,223.69,553.85z"/>
	<path d="M288.56,180.86l0.1,0.1C288.66,180.5,288.68,180.68,288.56,180.86z"/>
	<path d="M285.16,190.77l-0.1-0.1C285.06,190.81,284.97,190.81,285.16,190.77z"/>
	<path d="M250.14,61c0.02-0.02,0.03-0.04,0.03-0.05C250.12,60.96,250.12,60.98,250.14,61z"/>
	<path d="M409.49,145.02c0-43.74-55.45-68.55-85.39-28.43c-5.22,7-4.4,16.99-8.11,14.82c-1.3-0.76-2.92-2.45-4.2-0.8
		c0,4.61,6.28,3.87,10.71,14.32c8.8,0-1.4,13.3-1.4,33.34c0,25.47-11.9,34.12-12.61,40.34c-0.18,1.6-1.1,2.7-2.9,3
		c-8.29-4.74-30.28-16.63-24.93-25.33c5.3-1.57,5.44-9.31,1.2-2.8c-0.71,1.09-1.9,1.5-2.7,2.1c-1.02,4.29-0.94,12.8-2.2,18.42
		c-5.91,26.25-7.52,46.87-8.21,51.15c-21.37,0.56-11.96,0.28-33.51-5.04c1.59-0.26-0.14-3.23-1.03-4.57
		c-2.57-3.86-1.46,2.08,0.71,4.49c-0.17-0.04-15.53-4.24-25.94-7.9c-0.4-2.4-0.71-10.21-0.5-12.41c0.69-7.08-0.79-12.27-1.3-19.12
		c-0.32-4.28-1.55-4.97-4.71-9.41c-2.95-4.15-2.95-5.35-6.81-21.12c2.98-5.21,6.82,10.63,23.32-1.3c4.51-3.26,4.43-0.88,5.81,0.1
		c2.96,2.11,8.42,3.88,0.1-3c-0.91-0.75-1.98-1.24-1-2.7c8.88-16.87,7.79-37.7-7.91-55.76c-0.61-0.61,0.87-1.8,2-1.8
		c3.56,2.32,9.11,2.74,24.23,19.82c5.3,5.99,7.18,6.63,12.31,10.41c7.8,5.74,13.74-0.3,14.52-0.7c5.74-2.98,4.4-17.08,2.01-21.85
		c-0.06-0.77,1.69,1.32,1.89,1.64c4.07,6.47,2.93,5.46,6.51,14.82c1.87,4.9,2.84,4.07,6.71,9.91c3.06,4.62,2.5,8.34,2.5,21.03
		c3.82-6.65,2.3-10.73,1.2-18.43c-5.11-6.71-9.51-14.11-12.01-23.12c11.87,7.42,13.25,9.7,15.12,23.63c0.11,0.8-0.2,1.8,0.7,2.4
		c1-0.6,0.8-1.5,0.7-2.3c-0.52-7.54-0.31-13.33-5.61-18.62c-3.34-3.9-3.31-2.18,7.91-1.5c1.23,0,0.82,2.45,1.7,3.2
		c5.14,2.2,5.31,2.58,6.31,2.7c2.81,0.36,5.09,2.03,7.61,2.9c3.97,1.37-0.16,6.01-8.41,26.53c-0.95,2.37,2.28,1.09,3.6-3.9
		c0.42-1.6,8.65-19.54,7.91-21.02c-0.4-1.1,0-2.3,0-3.7c-3.13,1.79,1.41,1.08-14.62-3.9c-1.45-0.45-1.81-2.68-1.4-3.8
		c1.8-1.6,4-2.3,6.41-2.4c1-2.8,0.2-5.71,1-8.41c1.47-1.47,4.15-0.54,4.4-2.3c-3.08-5.54-6.14,0.58-6.31,0.7
		c-2.4-1.3-4.2,0.6-6.01,1.9c-38.43-5.28-26.44-1.16-33.94-7.51c0-10.8,1.77-5.98,3.6-10.11c12.28-27.59,6.21-33.56,6.21-29.83
		c0,7.75-3.43,13.28-4,20.92c0,0.66-0.05,0.55-2.8,7.61c-1.14,2.91-0.68,2.3-7.51,2.3c-1.9,0-3.8-0.8-5.71-0.2
		c0,2.98,7.32,1.39,8.71,2.4c0.7,2.6-0.6,5.11-0.3,7.61c4.19,5.16,9.63,10.39,7.21,26.03c-0.44,2.82-3.38,4.07-5.91,4.3
		c-1.43-5.01-1.11-6.4-3.1-7.81c0.7,3,1.7,5.51,1.9,8.31c-3.2,0.6-6.03,0.43-8.41-1.9c-2.41-2.36-5.18-2.88-9.11-6.91
		c-12.01-12.28-8.48-7.72,4.4-7.31c6.94,0.22,7.68,4.07,11.21,3.6c1.26-2.52,4.71-1.27,6.01-3.3c-1.05-0.76-4.39-0.75-6.71,1.8
		c-5.47-3.98-15.16-3.5-21.52-5.01c-3.42-0.81,2.19,4.2-10.31-6.41c-7.81-6.63-12.79-5.06-3.9-9.51c6.44-3.23,7.58-5.79,10.31-6.31
		c0.53-2.1-1.99-20.28,0.9-24.23c-0.6-1-2.1-0.4-2.3-1.7c0-0.3-0.1-0.6-0.2-0.9c0.7-0.5,1.6,0,2.2-0.7c0.8-1.3,0.1-3.1,1.4-4.3
		c0.58,0.58,0.33,1.53,1.22,1.77c-0.1,0.1-0.41,1.63-0.12,2.13c2.26,0.68,4.35-9.22,5.71-10.61c5.51-5.64,3.16-8.11,7.91-8.11
		c0.41-2.89,4.02,0.94,1.2-5.41c-0.09-0.03-2.85-0.73-2.99-0.94c-0.04,0.05-0.1,0.12-0.21,0.23c0-0.1,0.1-0.2,0.1-0.2
		c0.06-0.06,0.18-0.14,0.15-0.08c0.03-0.01,0.08-0.01,0.15-0.01c-0.35-2.84,3.69-0.25,6.11,2.8c0.8-0.2,0.2-1.2,0.8-1.5
		c1.2-0.2,2.4-0.4,3.8-0.6c1.7,1,3.8,0.32,5.61,0.9c2.59,0.83,5.11,0.9,7.81-0.1c0.8,4,0.1,8.11,2.2,11.41c-0.2,0.8-0.4,1.3-0.6,2
		c-4.45,1.37-8.11,2.73-7.81,7.31c0.23,0.92-0.11,1.81,0.5,1.4c0.6-0.7,0.4-1.9,1.4-2.7c1.8,0.9,3.6-0.1,5.61-0.5
		c1.6-5.34,2.55-6.69,1.9-8.51c-1.33-3.73-0.8-7.51-1.4-11.11c4.16-5.34,6.94-1.21,7.61-8.61c-2.75-2.75-2.3,0.78-4.1-0.7
		c0.4-0.6,1.4-0.7,1.4-1.7c-0.4-0.4-0.9-0.8-1.3-1.2c-1.38-0.86-2,3.41-2-3.9c-0.48-2.88-2.37,0.93-4.5,1.5c-0.4-0.3,0-1-0.6-1.3
		c-3.1-0.8-5.91,0.8-7.61,1c-17.47-3.02-13.26,1.81-16.12,1.3c-0.9-0.4,0.3-2.2-1.5-2c-8.41,8.78-10.43-0.87-13.31,1.6
		c-0.5,1.3,1.1,1.8,1.2,2.9c-3.4,3.93-0.83,5.01-3.3,5.01c-0.22,4.37-2.53,4.44-2.8,6.91c-0.85,5.11-3.98,6.97-2.2,10.91
		c1.25,2.77-0.6,12.53,4.4,26.43c0.69,1.91,1.1,4,0.4,6.11c-0.67,2,1.76,2.41,1.2,4.5c-4.43,6.64-3.45,2.68-14.42,10.81
		c-6.11-0.4-45.65-5.21-48.65-5.91c-3.67-2.62,0.73-2.53-6.91-1.1c-9.28-5.3-8.42-4.42-20.02-3.2
		c-3.51-38.57-20.63-60.59-59.86-57.66C66.91,54.65,46.91,71.61,42.5,99.28c-0.25,1.6-0.69,2.42-2.3,2.1
		c-0.75-0.09-29.94-3.44-33.44-4.3c-3.15-0.78-7.66,2.4-6.61,5.91c1.63,5.42,3.66,4.48,21.42,6.9c20.3,2.76,19.32,0.9,19.32,5.61
		c0,65.59,83.6,79.18,99.01,15.42c0.19-0.8,0.2-1.7,1.1-2.4c2.4,2.9,5.31,5.51,5.71,10.01c-0.58,1.01-4.8,37.75-5.31,38.74
		c-4.33,8.39-0.09,28.47,3.2,38.34c8.11,1.01,18.28-1.73,22.22-4.71c10.34-7.8,9.5-4.12,24.33-16.72c0.7-0.6,1.3-1.5,2.4-1.9
		c2.98,8.93,1.1,13.05,7.41,21.82c6.15,8.56,2.87,2.39,5.01,16.42c0.74,4.83-0.13,8.77-1.5,17.62c-1.79,11.59-4.95,11.7,4.6,13.61
		c0.6-4.5,0.6-4.5,1.7-5.41c0.7,1.2,0,2.8,1.2,3.8c0.8-0.2,0.8-1.1,1.5-1.1c2.43,4.26,1.13-0.01,2.47-1.09
		c-0.29,1.71,0.46,3.16,1.13,4.9c1-2.9,1-2.9,0.8-5.81c1.58-1.58,1.52,2.26,1.6,3.2c0.1,1.2,1.1,2.1,1.1,3.4c0,1.1,0.7,2.2,1.2,3.4
		c2.35-1.17-0.72-1.81,9.71,0.6c0.2,2.4,0,4.7,1.4,7.11c0.81-6.18-0.48-7.09,6.41-4.6c19.29,6.97,12.69-0.29,14.52,7.01
		c0.2,1.1,0.1,2.4,1.6,3.4c-0.1-2.4-0.3-4.5-0.4-6.51c6.11,0.3,10.11-0.3,13.21-2c-14.41-0.34-11.76,2.62-28.93-4.2
		c0.3-1.2,0.9-2.2,1.9-3.1c6.66,0.51,1.75,1.99,8.81,2.8c1.6,0.18,3.21-0.02,4.71,0.7c0.81,0.39,0.5,1.9,1.8,1.9
		c0.5-0.6,0.1-1.6,0.9-1.8c1.4-0.1,1,1.7,2.2,1.7c0.7-0.4,0.5-1.5,1.4-1.7c1.63,0.3,0.43,2.99,4,1.8c0.7,0.1,1,1.2,2,0.8
		c0.2-1,0.3-2.1,0.5-3.1c3.57-1.19,0.8,0.65,2.8,3.9c2.83-0.57,1.11,1.43,3.2,2.6c1.91,1.06,7.12,6.02,7.71,9.51
		c0.26,1.56,1.35,12.02,0.4,13.91c-3.21,7.42-2.03,22.86,0.3,26.83c0-11.76-0.22-18.65,0.5-21.42c1.37,5.5,1.44,4.51,1.1,9.01
		c-0.67,8.97,2.1,16.93,2.1,17.22c0.23,13.14-0.85,12.4-0.7,18.42c0.47,19.12,5.54,32.69,5.71,35.14c-1.1,1.1-19.02,8.1-24.13,9.71
		c-5.94,1.88-12.61,2.57-17.82-0.9c0-36.11,5.1-28.93,3.6-34.04c-6.97,6.37-4.43,9.87-4.91,13.61c-2.06,16.39-0.16,14.9-1.4,19.62
		c-5.53-0.55-14.27-3.09-14.92-3.5c-0.3-3.6,1-7.11,0.2-11.41c-2.8,14.69,3.48,10.78-19.42,10.51c-9.59-0.11-7.03,0.51-5.41-11.21
		c-2.19,1.46-2.34,7.78-3.4,9.91c-0.7,0.1-0.7-0.9-1.4-1c-1.12,2.23-5.71-1.01-13.21,0.6c-1.01,0-0.84-0.89-1.1-4.6
		c1.59-3.18,2.54-4.76,2.1-8.51c-3.73-31.63-2.65-25.99,0.1-29.13c2.43-2.78,4.73-9.25,1.9-9.81c-1.48,5.02-1.3,6.8-4,9.71
		c0-16.56-0.51-14.43,0.4-19.82c2.93-17.41-2.4-1.25,3-28.83c1.24-6.32-0.4-4.39-0.4-7.21c0.84-10.05,3.36-8.9,8.31-16.82
		c0.56-0.9,4.48-7.98,4.1-9.11c-2.81-1.88-4.62,8.11-7.51,10.41c-1.36,1.09-5.51,6.53-5.51,8.11c-0.01,0.11-0.72,13.57-1.3,15.52
		c-3.13,10.49-4.77,32.76-3.2,38.34c2.84,10.14-0.1,2.08-0.1,14.32c0,11.53,2.43,23.33,0.6,26.43c-0.09,0.18-0.78,9.66-0.8,9.91
		c-0.53,7.24,5.22,1.35,12.91,5.01c0,9.19-0.32,11.94,1.2,14.22c-1.16,25.43-14.01,22.96-14.01,46.75c0,10.41,3.78,7.94,4.7,51.86
		c0.43,20.43,1.21,19.95-1.7,24.53c-10.4,1.86,0.78,6.43-5.71,31.23c-0.84,3.22,0.77,4.39,3,3.7c2.28-0.71,15.92,1.5,15.92-1.7
		c-3.4-0.6-6.71,1-10.41,0c2.6-0.4,4.4-1.6,6.01-3.2c1.1,0.5,2.1,1,2.8,1.3c1.2,0.1,2.1-0.9,3.1,0.2c0.2,4-0.9,8.31,1.5,12.21
		c13.31,5.7,97.85,11.97,99.51-6.21c0.1-0.01,68.32,5.34,73.78-8.31c0.46-5.04-0.27-9.73-9.91-11.51
		c-32.33-5.96-29.97-2.71-35.14-2.9c-25.49-0.97-29.17,4.44-20.12-2.3c5.38-4.01,3.98-10.44,0.9-13.21
		c-0.36,3.63,4.76,6.76-3.1,11.11c-9.16,5.07-7.91,5.58-9.07,5.1c-1.56-0.65,4.46-2.99,4.46-7c-1.17,0-16.88,9.16-7.51,5.21
		c0.87-0.37,1.63-1.29,2.73-1.21c-3.99,6.15-16.65,4.12-16.05,7.72c0.39,0.7,34.35-9.19,81.49-1.7c12.28,1.95-0.65,5.46-4.6,5.91
		c-8.66,0.97-35.88,2.72-25.33,2.8c11.44,0.09,19.26-1.52,21.31-1.51c16.75,0.04,16.93-11.26,16.93,3.21
		c-6.23,3.56-6.86,4.65-12.21,5.41c-17.96,2.53-41.41,1.53-41.74,1.5c-21.77-1.56-15.85-0.1-18.42-4.6
		c-5.31-7.08-17.74-6.26-18.84-7.53c-1.05-1.2,0.03-2.96-1.28-3.88c-1.4,0.7-0.6,2.4-1.8,3.4c-2.07,0.19-4.73-0.6-7.81-0.5
		c3.37-2.12-0.36,0.83,12.61-7.11c-2.1-1.75-5.15,2.5-10.91,3.9c2.36-3.6,4.29-4.91,8.62-4.91c4.97,0.67,7.67-1.36,19.42-7.81
		c0.92-1.14-0.49-1.21,3.2-4.91c1.68-1.68,0.62-3.7,7.31-3.7c-1.18-4.72-23.95,2.94-32.93-12.21c-3.62-6.1-4.25-2.92-4.2-6.11
		c0.07-4.73,0.62-30.02,5.61-55.86c2.12-10.99,2.81-34.44,2.5-35.84c2.7-5.91,3.1-11.61,0.5-17.32c1.9-2.7,1.5-6.01,1.8-9.31
		c8.05-5.03,8.36-2.28,6.81-8.01c-2.86-10.52-6.09-27.17-4.71-37.54c1.02-7.59-0.08-2.21-0.3-16.22c-0.04-2.3-0.1-4.71-1.4-6.71
		c0.88-4.38-0.95-19.61-1.7-20.62c-2.55-3.83,4.77-18.66-10.81-27.63c-1.4-9.8-2.17-9.35-1.4-15.52c0.43-1.71-0.87-5.1,1.1-16.12
		c4.07-22.8,3.83-16.12,4.4-20.62c0.01-0.1,1.72-14.4,2.4-13.71c5.66,5.66-2,2.73,21.92,17.22c1.51,0.92,4.34,2.05,5.01,0.4
		c0.85-2.09,1.39-0.76,4-6.51c-1.02-2.03,2.34-4.52,5.21-10.21c6.06-12.03,5.11-19.61,5.81-27.93c1.21-7.89-1.55-4.22,8.51,4.6
		c14.54,12.75,52.88,22.87,70.57-7.11c5.02-8.51,5.77-13.57,7.31-19.72c11.51,0.2,19.43,4.86,20.52-3.5
		C429.32,144.37,413,147.74,409.49,145.02z M315.03,133.64c-0.11,0.2-0.2,0.42-0.26,0.63c-0.17-0.76-1.18-1.22-1.18-2.06
		C314.49,132.2,315.14,133.43,315.03,133.64z M308.88,128.7c-1.83,0.92-2.14-0.43-2.38-0.95
		C307.36,127.93,308.42,127.59,308.88,128.7z M302.42,131.18c1.06-0.53,2.66,0.52,2.66,1.83c-0.19,0-2.12,1-3.47-0.77
		C301.51,132.14,301.76,131.46,302.42,131.18z M304.48,134.71c0.65,1.38,0.43,2.45,0.1,3.9c-4.77,1.96-5.47,2.47-8.01,2.2
		c-17.93-1.87-13.7-1.33-19.32-3.4C272.6,129.9,259.13,130.04,304.48,134.71z M270.54,132.5c0.27,0,0.18-0.04,0.35,0.23
		C270.68,132.75,270.54,132.66,270.54,132.5z M273.55,80.55c-1.09,0,1.1-1.68,1.1-0.4C274.45,80.85,273.95,80.55,273.55,80.55z
		 M278.85,55.52c1.4-1.17,3.25-0.09,0.6,1.9C278.65,56.72,278.65,56.22,278.85,55.52z M274.62,49.88c0.65,0.08,0.82,0.39,0.36,0.83
		C274.07,51.59,273.93,49.79,274.62,49.88z M267.34,59.63c0.38,0.13,0.42,0.1,0,0.1V59.63z M259.63,58.33
		c0.49-0.18,0.82-0.26,0.82,0.24C260.33,59.37,259.75,58.68,259.63,58.33z M265.64,52.22c-0.13,0.26-0.07,0.25-0.2,0H265.64z
		 M264.94,55.25c0.11-0.42,1.01,0.17,0.3,0.17C265.02,55.42,264.9,55.36,264.94,55.25z M265.75,60.72
		c-0.54-0.01-1.16,0.17-1.29-0.68C265.32,60.18,266.14,60.72,265.75,60.72z M263.67,59.54c0.18,0,1.15,0.46,0.21,0.51
		C263.38,60.08,262.96,59.55,263.67,59.54z M261.83,57.32c0,0.07,0,0.13,0,0.2C261.58,57.39,261.58,57.45,261.83,57.32z
		 M259.53,51.62c1.74-0.87,3.51-0.05-0.8,2.1C258.83,52.62,259.03,52.12,259.53,51.62z M234.41,85.75l-0.1-0.2
		C234.57,85.55,234.53,85.5,234.41,85.75z M235.01,69.44c0.75,0.22,0.84,0.65-0.6,3.5C234.21,71.44,234.11,70.34,235.01,69.44z
		 M236.71,81.35c-2.79-0.56-2.89-5-0.5-3C237.07,79.21,237.16,80.24,236.71,81.35z M238.52,83.81c0.03-0.17,0.09-0.34,0.09-0.26
		C238.69,83.47,238.64,83.64,238.52,83.81z M239.26,71.39c-1.38,1.66-1.5-1.8,0.25-0.44C239.44,71.11,239.35,71.26,239.26,71.39z
		 M247.82,66.63c0.82,0.55-1,2.27-1,0.3C246.82,66.65,247.28,66.1,247.82,66.63z M244.22,61.23c-1.28-0.93,0.26-1.54,2.7-3.7
		C246.72,59.43,245.32,60.23,244.22,61.23z M246.22,51.82c-0.5,1.3-0.5,1.3-2.5,1.2C244.72,52.82,245.12,51.72,246.22,51.82z
		 M242.61,68.84c-0.13,0.38-0.07,0.4-0.2,0H242.61z M241.81,71.24c0,1.2,0,1.2-0.8,1.8C240.31,71.94,241.11,71.74,241.81,71.24z
		 M240.31,80.45c0.5,0.8-0.57,0.97-0.48,0.59C239.85,80.94,240.06,80.7,240.31,80.45z M238.81,52.22c-0.26,0-0.16,0.05-0.27-0.2
		C238.5,51.88,238.42,51.83,238.81,52.22z M233.99,57.11c0.98-1.29-3.3-1.1,1.92-1.59c1.98,2.64,2.8,0.71,3.7,2
		c-1.54,2.31-2.12-0.22-3.7,0.3C232.02,59.11,233.16,58.2,233.99,57.11z M233.08,58.63c-0.03,0.14-0.1,0.24-0.18,0.4
		C232.55,58.6,232.81,58.61,233.08,58.63z M231.5,88.66c-0.13,0-0.13,0.05,0-0.2C231.63,88.71,231.63,88.66,231.5,88.66z
		 M232.1,85.05c-2.17-2.89-2.03-2.94-0.4-4.1c0.86,0,1.1,0.69,1.67,1.27C233.47,82.32,233.45,82.1,232.1,85.05z M6.76,104.87
		c-5.07,2.76-6.76-3.59-1.5-4.91C6.97,101.37,7.72,102.88,6.76,104.87z M35.39,110.28c-27.95-3.35-26.23-3-27.03-3.8
		c4.56-7.61-10.6-7.69,24.63-3.4c58.46,7.12,55.7,5.93,57.76,8.81C91.25,118.88,87.63,116.53,35.39,110.28z M89.51,119.87
		c-1.21-3.03,3.54-1.17,3.54-8.29c-0.82-5.23-10.63-3.48-5.71-5.51c6.26-2.57,11.46,3.66,10.21,9.21
		C96.84,118.49,91.28,124.32,89.51,119.87z M90.45,140.01c-0.86,2.66-2.84,3.04-4,1.4c-0.55-1.64,0.03-22.39,0.1-22.47
		c0.29-0.35,0.67-0.44,1.3-0.25C88.95,124.89,93.47,130.71,90.45,140.01z M84.85,118.29c-7.71,11.11-5.11,7.41-11.41,21.12
		c-3.1-1.8-4.91-4.1-5.01-7.61c3.2-5.61,8.01-9.81,13.31-13.61C82.79,117.77,83.79,117.91,84.85,118.29z M43.4,113.98
		c1.05-0.48,3.43-0.46,3.97,0.57c0.91,1.71-1.1,0.39,2.03,15.55c2.01,9.73,10.16,25.44,18.52,30.23c10.17,5.83,9.03,2.73,7.81,2.5
		c-22.92-8.09-27.63-46.05-26.13-48.15c1.4-0.7,18.28,1.64,28.9,2.97c2.36,0.3-4.88,2.83-9.78,9.24c-0.8,0.9-1.9,1.2-2.6,2
		c-1.36,6.77,1.92,11.17,8.31,13.71c3.37,0,5.99-16.12,10.17-20.19c0.1-0.1,0.33,0.12,0.04,1.07c-2.8,9.04-0.59,12.11-2.2,15.22
		c-2.37,4.56,8.36,12.41,11.51,3.1c3.24-9.59-2.95-17.96-2.61-18.3c0.7-0.71,1.65-0.74,2.51-1.02c9.73-3.17,7.93-16.16-2-19.22
		c-3.2,0.6-6.71,0.6-8.61,3.8c-3.2,0-29.53-3.2-32.43-3.9c-1.93-1.64,5.47-30.3,27.33-39.84c13.82-6.03,17.08,0.51,23.21,0.4
		c2.26-0.04-6.54-3.03-8.7-3.7c-11.68-3.64-37.09,10.3-43.65,40.34c-0.21,0.97-0.18,5.09-4.5,2.2
		c1.78-28.43,30.55-57.31,58.16-42.65c39.62,21.04,29.82,101.82-14.32,108.72C53.53,174.08,39.13,125.1,43.4,113.98z M138,133.4
		c-13.7,45.45-53.13,38.42-52.94,37.64c0.19-1.18,1.04-0.52,5.69-1.5c24.33-5.12,38.84-34.88,38.75-59.96
		c-0.14-40.89-27.85-52.25-28.87-53.27c-6.48-1.58,11.55-0.43,24.05,11.91C140.8,84.15,144.12,113.11,138,133.4z M197.26,185.1
		c-0.02,0.09-0.11,0.04-0.2,0.07C197.24,184.98,197.31,184.88,197.26,185.1z M203.58,190.3c-2.04,0-2.95-0.75-4.72-3.13
		c1.2-1.9,3.1-3.2,2.7-5.41c14.76-11.28,2.44-12.57,18.12,3.1C214.38,188.59,208.62,190.3,203.58,190.3z M173.33,119.19
		c47.38,7.81,47.17,1.37,36.83,11.71c-41.24-4.69-37.13-4.15-37.13-4.86C173.02,122.83,169.41,118.54,173.33,119.19z M203.57,133.1
		c-26.64,8.88-19.75,25.48-26.83,29.74c-4.14,2.49-10.21,10.2-10.71,11.31c-1.3-1.81-2.4-3.21-3.3-4.61
		c-0.62-1.23-1.91-17.02-1.9-17.12c1.16-12.21,1.83-3.72,3.5-14.11c0.29-1.8-0.08-1.35,1.87-4.06c5.16-7.18,4.56-5.69,13.63-4.6
		C205.87,132.76,202.25,132.12,203.57,133.1z M162.44,121.09c-0.19,0.58-0.57,0.4-1.01,0.4
		C161.53,120.99,161.87,120.99,162.44,121.09z M154.22,111.88c1.6,1.3,2.8,3.4,4.91,3.9c0.9,1.7,0.8,3.3,0.8,4.91
		c-0.4,0.1-0.7,0.2-1.2,0.4c-0.3-1.8-0.57-3.63-1.9-5.01C152.58,111.68,152.96,112.51,154.22,111.88z M150.95,113.05
		c2.33,0.89,4.36,3.09,5.44,4.16c1.16,1.58,0.07,2.87-1.45,2.46c-4.17-1.12-0.83-0.58-2.22-2.8
		C152.38,116.35,149.16,112.37,150.95,113.05z M147.01,112.78c2.2,0.8,3.1,3,4.7,4.7c-1.3,0.7-2.39,0.58-3.3-0.2
		C145.43,114.75,143.82,113.85,147.01,112.78z M142.91,116.89c2.55-1.79,3.91,0.8,4,0.9c3.21,3.35,11.91,3.28,11.65,5.37
		c-0.07,0.37-0.61,0.89-0.84,1.24c-3.3,0.1-11.11-0.8-15.12-1.7C142.04,121.83,142.46,121.83,142.91,116.89z M186.25,197.87
		c-2.31,2.52-3.3,1.84-7.61,4.2c-21.51,11.79-14.71,10.67-21.67,11.61c-14.61,1.99-8.83,1.44-13.76-19.22
		c-2.04-8.55,0.03-19.79,1.83-21c0.1,0.05,5.09-34.02,3.27-38.66c-1.2-3.07-10.19-11.41-3.8-9.41c4.14,1.29,9.12-0.76,11.31,0.4
		c2.98,4.32,4.56,5.17,2.9,0.2c0.4-0.72,1.46-2.43,1.7-2.9c1.84-0.19,4.23-1.03,6.01-0.9c0.1-0.5,0.1-0.9,0.1-1.2
		c1.74-1.39,1.5-1.25,1.5-1.7c-2.07-0.39-4.89,1.33-6.26-2.17c-0.11-0.28,0.24,0.08,1.52-0.16c1.64-0.31,3.06-1.45,4.43-1.77
		c3.91,3.39,1.24,5.82,3.8,9.41c-2.82,6.59-10.67,9.43-11.41,23.93c-1.6,31.24,2.83,18.83,8.61,41.94c0.94-10.87,1.09-4.67,2.6-6.41
		c-2.47-6.29-12.93-8.12,14.22-23.63c1.09,0.28,1.89,0.32,2.5,0.4c-0.83-2.78-0.38-3.3-2.57-2.62c-5.71,1.77-5.82,4.36,0.07-6.59
		c4.73-8.77,8.71-13.76,20.12-17.02c6.21-1.38,6.41-3.44,8.61-4.91c1.3,0.6,1.92,1.8,2.3,3.1c0.32,1.1,1.6,1.8,1.9,3.2
		c-1.51,0.72-12.63,0.44,2.1,2.79c9.42,11.44,5.61,39.07,1.4,42.34c-2.27,0.21-10.62-15.44-13.61-17.62
		c-14.73-4.56-15.56-2.1-9.81-2.1c2.5,2,5.61,3.2,8.91,4c0.6,1.7,1.3,3.4,1.9,5.01c-2.51,5.95-16.61,14.84-22.32,18.02
		C189.51,191.35,207.71,174.43,186.25,197.87z M205.98,259.74c-1.36,0-0.41-2.65,0.2-0.6C206.57,259.54,205.88,259.74,205.98,259.74
		z M207.78,260.24c-0.68-2.95,0.29-4,0.29-3.53C207.94,258.18,207.86,259.31,207.78,260.24z M216.04,257.65
		c-0.06-0.26-0.07-0.55,0.25-0.71C216.56,257.3,216.19,257.42,216.04,257.65z M221.59,260.54c-0.6-0.6,0.28-1.17,0.4-0.54
		C222.12,260.65,221.87,260.68,221.59,260.54z M223.99,264.24c-1.83,0.5-0.89-2.14,0.3-3.8
		C224.09,262.14,224.39,263.24,223.99,264.24z M231.2,266.75c-5.05-1.59-7.26-1.31-5.61-5.61
		C231.77,263.67,233.53,262.87,231.2,266.75z M233.3,267.45c-0.97-0.31,0.61-1.88,0.61-0.2C233.8,267.45,233.61,267.54,233.3,267.45
		z M235.75,267.87c0.68-1.18,0.9-2.62,2.96-2.62C238.71,270.04,235.68,268.06,235.75,267.87z M264.74,269.65
		c-0.3-0.3-0.22-0.28,0-0.5C264.84,269.15,265.03,269.36,264.74,269.65z M302.38,537.43c-0.09,0.85-0.56,1.15-1.29,1.1
		C301.16,537.75,302,537.81,302.38,537.43z M251.82,404.89c1.5,3.1,1.2,6.81,3.7,9.51c-2.5,3.98-3.06,15.95-3.6,17.52
		c-5.97,17.18,4.91,22.76,4.91,88.69c-9.92,5.95,0.6,7.95-6.48,25.86c-1.75,4.42-0.15,3.08-13.64,3.57c0.1,0,5.18-5.96,6.01-7.61
		c0.1-2.4-1.5-4.71-0.4-7.11c-3.31-8.98-16.3-3.55-16.4-3.65c-4.17-2.39-8.26-5.07-12.93-6.76c-0.5-2.1-0.03-4.29-0.8-6.31
		c-3.43-8.92-3.68,1.25-1.8-15.32c2.85-25.2,4.92-27.01,10.51-64.67c1.82-12.28,10.77-17.1,11.61-32.43c2.99-2.46,2.78-5.3,3.2-6.11
		c0.75-1.43,2.6-5.34,2.6-6.61C253.48,396.08,246,392.85,251.82,404.89z M229.19,546.03c-11.47,6.21-2.28,4.12-14.81,6.81
		c-0.1,0-0.07-1.44,1.49-1.9c2.86-0.86,9.99-5.12,10.81-7.31c0.79-2.11,3.25-3.86,4.7-6.21c2.77-4.46,8.4-4.6,8.4-1.3
		c0.21,3.71,2.01,4.7,1.87,4.97c-1.51,2.92-5.65,5.08-7.68,9.35c-0.1,0.01-5.49,0.51-5.59,0.51
		C228.99,548.69,233.61,546.92,229.19,546.03z M227.5,549.08c-0.61,0.42,0.04,1.46-3.8,2.37
		C225.61,549.53,229.65,547.6,227.5,549.08z M214.68,529.03c-0.57,0.69-2.62,0.73-0.18,0.03
		C214.56,529.05,214.62,529.04,214.68,529.03z M189.9,472.26c-5.19-29-2.73-21.35-2.15-30.33c0.84-13.03,15.7-20.94,12.91-40.27
		c-0.01-0.1-2.22-12.17-0.4-12.17c4.22-1.41,1.18,8.83,4.4,10.11c1.92-3.14-0.71-4.66,1.1-8.8c25.74-1.32,24.27,1.83,30.13,2.3
		c-0.35,3.52-1.49,5.78-3.5,9.21c-1.73,2.95-8.48,25.04-11.31,26.83c-1.22,0.77-1.11,2.39-1.4,5.61c-0.95,4.76-1.39-3.75-4-7.31
		c-0.38,1.49,0.16,2.55,0.5,3.8c1.4,5.2,0.45,7.7,1.9,9.31c-0.26,1.68-2.65,22.5-6.91,35.84c-2.59,8.1-4.27,32.49-4,35.74
		c-2.28,2.53-7.97-2.5-10.71,11.21c-4.32,2.88-4.45,3.77-6.01,2.6c1.37-4.11,2.09-4.53,1.9-9.51
		C190.85,476.96,191.53,481.4,189.9,472.26z M188.76,529.93c0.17,0,0.5,0.18,0.5,0.3C189.26,531.42,187.51,530.64,188.76,529.93z
		 M197.04,554.97c-1.04-0.52-3.16,2.02-3.97,2.58c-15.89,5.3-6.89,1.11-7.21-19.12c-0.03-1.7-0.6-3.04-1-7.31
		c-0.14-1.47,1.05-2.51,1.12-2.16c0.38,2.59-0.11,5.17,2.28,5.17c0.51,0,1.03-0.49,3-2.9c5.01-6.11,8.11-6.18,8.61-10.71
		c0-0.36,0.67-4.73,4.6-4.91c4.44-0.49,1.85-2.04,6.41,8.41c-3.2,0.9-6.61,1-8.81,3.7c-0.34,0.51,0.26,1.26,1.02,1.2
		c1.21-0.09,7.42-4.4,8.49-2c-1.76,1.23-8.51,1.6-5.91,4.2c2.16,0,3.4-0.98,5.31-1.2c0.95,0.48-0.29,2.25,1.97,2.25
		c0.89,0,2.13-0.41,3.23-0.07c0.23,0.07,0.13-0.41,0.54-0.42c0.62-0.01-0.04,0.04-0.44,0.44c-0.71,2.3,2.57,0.75,4.71,2.1
		c0.96,0.61,1.14-0.77,4.38-0.7c1.09,0.02,2.22,0.15,3.22-0.1c0.18-0.18,1.25-1.2,1.6-1.2c7.27,0,3.29-1.59-4,9.51
		c-2.01,3.07-3.62,3.46-8.91,6.41c-7.29,4.06-3.98,4.09-6.91,5.11C196.44,558.06,200.93,555.93,197.04,554.97z M297.97,556.85
		c-4.23,2.12-4.02,5.88-37.64,6.41c-3.56,0.06-2.74,1.52,1.9,1.2c28.03-1.93,29.55-2.56,37.44-6.51c1.98,2.47,0.63,5.47,1.5,8.1
		c-9.29,5.64-8.79,5.4-11.81,5.91c-19.31,3.24-69.43,3.19-84.47-3.15c-0.1-0.05-0.66-10.04-0.02-12.46c1.4-0.3,2,1.4,3.2,0.9
		l-0.1,0.1c0.59,0-1.37-0.7,1.8-1.8c8.93-3.12,12.9-1.29,13.89-1.69c1.69-1.97,11.67-0.96,22.74-2.52c7.81-1.1,17.21,1.04,20.02-1
		C271.68,551.81,296.62,553.7,297.97,556.85z M280.65,517.41c-1.7,1.1-3.5,1.7-4.71,3.2c-0.22,0.32-2.76,2.92-0.3,3.9
		c1.9,0,3.31-3.77,5.78-3.5c0.17,0-0.13-1.29,1.53-1.1c-0.28,1.41-1.31,0.63-1.66,1.48c-0.25,0.61-0.54,1.23-1.04,1.72
		c0.75,2,2.84-0.63,5.91-1.2c0.87,0.54-0.39,1.4,0,1.7c1.95,1.95,3.73-0.85,5.31-0.3c1.34,0.46,0.66,1.9,1.8,1.9
		c17.8,0,13.06-0.29,9.81,4.71c-2.97,4.57-6.86,5.54-10.81,7.91c-7.62,4.57-11.98,0.05-18.02,6.21c-1.49,1.52-3.4,2.6-3.9,4.4
		c-1.1,0.8-1.9,0.59-2.8,0.6c-9.36,0.14-17.46,2.68-14.82-2.3c6-11.31-2.46-22.01,2.6-23.53c1.35,0.49,1.64,2.41,3.4,3
		c11.34-2.27,5.59-8.56,16.92-16.12C277.18,510.43,276.27,512.2,280.65,517.41z M258.15,522.76c0.34-1.51,0.62-3.21,1.28-2.54
		C262.88,525.35,257.61,523.85,258.15,522.76z M281.86,424.81c0.4,23.98-6.4,50.9-6.61,60.56c-0.08,3.8-0.25,20.37-2.2,23.63
		c-10.27,6.84-5.63,10.53-10.11,13.21c-1.31-0.83,0.19-0.73-4.1-5.51c-0.38-14.35,1.06-13.84,1.3-17.32
		c0.24-3.43-1.26-2.52-1.6-6.01c-2.69-27.41-0.45-21.04-1.7-25.03c-7.82-24.89-5.64-23.05,0.5-52.36c0.51-0.44,0.95-0.28,1.45-0.25
		c1.75,0.1-1.5-4.65-2.85-6.26c-1.24-1.86-0.64,0.93-4.2-12.61c5.88,1.07,9.7,0.4,11.21,0.4c6.28-0.45,20.92-8,20.92-7.19
		c1.49,5.02-3.31,8.93-7.41,13.19c0.47,1.31,0.75,8.41,2.4,7.7c1.16-0.61,1-6.45,0.9-7.7c0.12-0.1,4.1-3.14,4.14-2.81
		C285.93,408.28,281.62,410.41,281.86,424.81z M374.77,100.77c-0.91,0.08-1.69-0.26-2.13-0.7
		C373.22,100.32,374.35,99.92,374.77,100.77z M318.59,136.61c4.13-0.47-2.65,0.25,36.14,4.4c1.34,0.95,3.06,2.84,2.5,4.5
		c-0.9,2.7-2.28,2.04-13.01,0.8C319.51,143.47,325.52,145.62,318.59,136.61z M364.34,152.32c-7.28,12.14-22.56-3-18.27-3
		c0.94,0-0.93,0.88,7.16,0.5c3.97-0.19,5.42-1.5,6.41-5.71c-2.32-6.8-10.43-5.59-12.81-6.51c-0.68-2.08,6.74-10.21,14.22-4.3
		C367.81,138.65,367.23,149.44,364.34,152.32z M365.35,135c0.62,0.56,1.22,1.09,1.01,1.9C365.25,136.22,365.07,134.79,365.35,135z
		 M323.7,169.74c6.27-25.06,0.64-23.53,13.91-21.42c3.28,0.52,4.64,0.58,4.73,0.76c4.09,6.71,8.8,10.79,18.69,9.05
		c1.55-0.27,3.59-0.7,4.16-2.41c1.55-0.19,1.42-1.39,1.52-1.49c0-0.32-1-0.04-1.55,1.41c-5.19,0.11,3.26-0.35,2.56-12.31
		c-0.11-1.94-0.6-3.79-0.92-5.73c1.2,1.6,1.55,3.55,1.82,5.43c0.75,8.98-1.25,7.94-2.3,11.11c5.55-3.03,4.49-12.2,1.8-17.32
		c-3.9-7.44-14.7-8.65-18.22-6.01c-11.05,7.36,0.94,6.22-13.91,5.41c-2.72-0.15-14.76-1.73-15.31-1.89
		c-2.98-0.9,0.96-9.2,2.39-11.92c6.95-13.21,18.36-19.16,30.33-23.32c8.73-3.03,32.18,2.72,41.34,27.23
		C414.28,178.48,353.73,222.3,323.7,169.74z M365.85,194.17c0.93-0.72,19.1-3.14,28.83-22.62c10.59-21.21,6.35-45.5-7.01-60.36
		c-6.86-7.63-11.76-9.06-12.6-10.12c3.86-0.62,25.37,8.15,31.32,34.15C413.03,164.2,395.99,196.21,365.85,194.17z M409.49,154.13
		c-0.07-0.48-0.1-0.95-0.11-1.41c-0.09-4.84,0.67-4.74,2.51-4.49c14.96,2,13.55,0.9,15.62,4.71
		C426.24,156.43,424.92,156.47,409.49,154.13z"/>
	<path d="M229.4,190.57l0.1-0.1C229.3,190.51,229.36,190.45,229.4,190.57z"/>
	<path d="M258.03,342.53c-0.25,3.45-2.18,11.37-4.7,13.81c-0.6,0.58,0.42,1.24,1.6,0c2.2-2.31,2.35-5.77,3-8.21
		c2.28-8.52,5.75,12.41,5.91,12.71c0.9-6.81,0-13.21-4.6-18.92c4.5-14.62,1.04-11.76,2.1-27.73c0-2.61-1.01-1.71-0.7-5.11
		c0.5-5.51-0.1-11.11,0.5-16.62c0.41-1.63-2.37-3.13-1.5,8.71c0.54,7.4-0.99,10.39,0.5,13.21c0.24,0.36,0,8.06,0,18.02
		C260.13,338.25,258.26,339.44,258.03,342.53z"/>
	<path d="M728.93,326.41c1.95-5.86,4.9,8.2,5.61,14.92c1.1-7.21,0.6-14.01-4.4-19.92c2.11-8.46,2.21-2.36,2.1-13.11
		c-0.35-33.63,0.01-36.93-0.6-37.74c-2.14,0.36-1.11,22.2-1,22.42c1.15,2.29-0.43,11.33,0.2,17.22c0.47,4.43-0.65,5.67-2.1,12.21
		c-1.04,4.7-1.6,9.71-4.81,13.61C726.31,338.41,728.82,326.82,728.93,326.41z"/>
	<path d="M199.57,296.78c-2,3.14,0.64,1.99-3.2,31.73c-0.3,2.35-1.85,19.12-0.2,19.12c0.53-5.25-0.44-8.59,1.3-12.31
		c0.29-0.71-0.42,2.49,1.6-12.51c2.09-15.49-0.96-18.07,0.8-24.23C199.97,297.98,200.17,297.38,199.57,296.78z"/>
	<path d="M669.97,276.06c-0.63,5.03-0.94,6.41-0.7,8.11c1.63,11.4-3.67,21.34-2.7,35.64c0.07,0.98-0.39,7.01-0.4,7.11
		C667.54,326.09,672.66,279.42,669.97,276.06z"/>
	<path d="M304.28,192.87c0.3-2.8-0.48-5.41-0.6-8.11c-0.73-16.87-11.47-17.5-9.01-13.81c4.77,3.48,4.67,6.52,6.21,8.51
		c3.37,4.34,0,13.04,4.91,18.52C306.48,195.97,304.88,194.57,304.28,192.87z"/>
	<path d="M255.73,79.75c-1.2,0.4-2.8-0.5-3.8,1.3c3,0.8,5.71,0.8,8.41,0.6c4.07-3.53,4.42-0.21,3.3-4.1
		c-1.76-1.76-6.33-1.4-8.11-1.7c-2.08-0.35-9.21,4.28-1,1.2c1.4,1.4,3.6,0.6,5.51,2.2C258.23,79.15,256.93,79.25,255.73,79.75z"/>
	<path d="M722.62,60.33c8.91,1.84,9.25-0.33,10.11-0.9c0.6-0.4,1.5,0,2.1-0.7c1.32-5.74-15.79-3.78-13.21-1.2
		c1.3,0.1,2.2-1.1,3.7-1.2c1.4,1.1,3.6,0.7,5.71,2c-1.8,0.1-3.2-0.1-4.4,0.5C725.43,59.43,723.63,58.33,722.62,60.33z"/>
	<path d="M710.11,81.95c-2.19-8.76-1.29-9.23-1.9-9.91c-2,0.73-1.71,4.51-0.8,6.41c2.55,5.31-5.64-1.1,11.41,12.01
		C719.95,87.82,713.15,84.88,710.11,81.95z"/>
	<path d="M241.31,213.99c3.91-1.69,13.09-4.16,17.12-12.71c-2.54-2.54-3.16,5.26-9.91,7.61
		C246.92,209.44,240.83,212.37,241.31,213.99z"/>
	<path d="M248.22,110.38c-4.67-8.17-8.71-0.48-10.71-17.52c-2.64,0.29-0.7,5.53-0.7,9.21C238.37,103.64,247.64,111.55,248.22,110.38
		z"/>
	<path d="M256.33,192.07c1.12,3.08,7.44-2.28,9.51-12.61C262.29,178.69,265.67,182.72,256.33,192.07z"/>
	<path d="M255.23,379.17c-1.94-12.87-0.78-10.19-1.7-11.11C249.19,370.94,258.16,398.69,255.23,379.17z"/>
	<path d="M261.03,224c-1.48,0.4-1-0.44-1,14.22C262.8,234.82,263.89,226.69,261.03,224z"/>
	<path d="M726.33,360.75c-0.56-4.4-1.8-8.61-1.7-13.01C718.8,345.4,728.36,376.57,726.33,360.75z"/>
	<path d="M666.46,338.82c-2.26,4.51-0.27,18.83,1.3,23.63C671.47,361.03,666.46,363.5,666.46,338.82z"/>
	<path d="M680.08,317.4c-1.93-3.69-1.78-4.23-2.8-4.1c0.12,2,2.86,7.52,3.8,10.21c2.25,6.43-1.8,9.22-1.6,10.81
		C685.3,329.33,683.38,323.72,680.08,317.4z"/>
	<path d="M277.75,301.61c0.01,0.69,0.22,1.38,1.6,1.57c-0.59-0.78-0.7-1.47-1.55-1.59c0.19-0.19-0.35-1.2-2.05-3.41
		c-8.23-10.68-6.9-10.08-8.01-9.71C266.91,292.07,276.78,301.94,277.75,301.61z"/>
	<path d="M739.04,270.05c1.32,2.64,6.26,9.31,8.41,9.31c0.31-1.84-4.02-5.16-7.71-11.51C738.94,266.64,737.81,267.58,739.04,270.05z
		"/>
	<path d="M227.1,286.77c0.71,0.79,7.88,7.7,8.91,6.41c-3-3.6-9.71-9.21-12.81-10.71C222.99,285.54,224.26,283.6,227.1,286.77z"/>
	<path d="M263.44,326.51c0.99,2.64,14.38-3.55,14.23-4.91c0.2-0.09,0.49,0,0.59,0c0.47,0,0.63-0.4,0-0.4
		C274.33,323.16,263.44,324.74,263.44,326.51z"/>
	<path d="M198.37,381.67c-2.87-5.58-2.46-19.49-3.2-23.12C193.74,368.31,196.28,387.93,198.37,381.67z"/>
	<path d="M734.24,305.69c2.56,2.09,10.58-1.93,13.41-3.6C753.97,298.34,734.63,304.7,734.24,305.69z"/>
	<path d="M705.71,272.55c0.4,0.2,0.7,0.2,1-0.2c-0.34-1.02,0.1-0.61-10.21-9.41c-1.99-1.7-2.35-0.95-2.8-0.8
		c-0.24,1.95,1.42,1.22,4.6,4.4C700.6,268.85,703.2,270.55,705.71,272.55z"/>
	<path d="M742.34,316.4c0-1.01-6.81-7.11-7.51-7.11C732.12,311.62,738.98,315.77,742.34,316.4z"/>
	<path d="M745.15,263.24c-0.8-2.6-2.3-4.6-4.4-6.21C739.88,256.46,735.17,258.64,745.15,263.24z"/>
	<path d="M680.28,560.96c-5.02,0,9.41,2.59,17.62,0.3C697.28,561.24,681.36,560.96,680.28,560.96z"/>
	<path d="M272.15,283.16c0.7,0.31,1.1,1.4,2.2,0.8c-0.6-2-1.18-2.93-3-4.81C267.77,275.49,266.03,280.43,272.15,283.16z"/>
	<path d="M269.84,101.47c-13.72,0-9.72-0.08-11.61,0.3c0.17,1.82,0.52,1.16,11.21,1C269.94,102.76,270.14,102.27,269.84,101.47z"/>
	<path d="M257.33,313.7c-2.82-10.32-1.13-6.53-2.5-14.01c-1.9-10.35-0.59,5.48,0.7,11.51C255.74,312.19,256.03,313.2,257.33,313.7z"
		/>
	<path d="M263.54,332.52c2.4,2.5,5.51,4.2,9.01,5.41c0-0.19-8.17-8.25-8.71-7.71C263.54,330.81,263.14,331.42,263.54,332.52z"/>
	<path d="M728.43,293.68c-3.42-9.7-1.41-13.28-3.6-18.62C724.63,276.96,724.8,291.46,728.43,293.68z"/>
	<path d="M729.93,80.75c-0.96,0.01-2.85,2.8,10.91,1C740.84,80.39,742.7,80.56,729.93,80.75z"/>
	<path d="M732.03,86.46c2.5,0.8,4.6,0.7,6.81-0.1C738.37,83.71,733.36,81.8,732.03,86.46z"/>
	<path d="M267.84,107.18c0.66-1.75-1.94-2.7-3.8-2.7C261.1,104.47,258.93,109.1,267.84,107.18z"/>
	<path d="M261.63,208.58c1.2,4.4-0.8,8.31,0,12.51C262.49,218.18,264.62,210.08,261.63,208.58z"/>
	<path d="M270.64,206.08c-1.9-3.5-3.1-4.5-6.91-5.21C271.44,207.39,269.79,206.51,270.64,206.08z"/>
	<path d="M211.58,207.18c2.29-11.09-0.12-10.45-0.5-5.21C210.73,206.87,210.44,207.33,211.58,207.18z"/>
	<path d="M323.3,148.52c-1.2,2.6-0.8,5.31-1.1,8.21c1.9-0.9,1.1-2.1,0.7-3.3C323.81,151.62,325.32,148.3,323.3,148.52z"/>
	<path d="M260.33,262.74c0.3-2.4,0.2-4.91,0.1-8.01C259.86,256.88,257.88,263.05,260.33,262.74z"/>
	<path d="M740.54,73.74c-2.41-1.27-6.99-0.11-4.81,1.8C738.35,74.12,740.54,76.09,740.54,73.74z"/>
	<path d="M266.34,95.76c1.68,0,3.41,0.42,3.2-1.4c-3.12-1.37-6.44,0.42-4.91,1.7C265.34,96.47,265.74,95.76,266.34,95.76z"/>
	<path d="M240.11,107.68c-0.2-0.2-0.4-0.1-0.7,0.4c0.7,1.2,1.37,2.62,2.1,4C244.17,117.11,245.1,115.33,240.11,107.68z"/>
	<path d="M216.09,201.18c-1.44,1.44,1.07,4.11,3.1,4C217.29,201.7,217.16,200.82,216.09,201.18z"/>
	<path d="M198.37,292.87c-0.9,1.5-2.6,2.3-3.8,3.9C197.39,296.48,200.38,294.08,198.37,292.87z"/>
	<path d="M669.17,272.25c-0.9,1.3-2.5,1.9-3.1,3.4C668.29,276.07,671.23,272.87,669.17,272.25z"/>
	<path d="M267.94,313.3c0.8-0.6,2.1-0.5,2.6-2C264.59,311.62,266.62,314.62,267.94,313.3z"/>
	<path d="M226.8,207.98c1,0.9,2.2,1.2,4,1.5C229.87,207.09,226.8,206.74,226.8,207.98z"/>
	<path d="M211.98,210.89c2.04,0.82,1.54-1.97-1-2.6C210.26,209.37,209.89,208.8,211.98,210.89z"/>
	<path d="M736.64,292.87c2.4-0.2,3.7-0.8,5.31-2.6C739.74,290.77,738.34,290.87,736.64,292.87z"/>
	<path d="M673.07,260.04c0.7-2.6,1.4-4.5,1-6.61C673.07,255.33,672.67,257.24,673.07,260.04z"/>
	<path d="M728.43,266.95c-1.3,0.8-2.9,1.3-3.8,2.8c1.6,0.1,2.8-1.1,4.1-2.1C728.93,267.45,728.83,267.25,728.43,266.95z"/>
	<path d="M202.27,280.16c1.1-1.5,0.4-3.4,1.2-5.01C203.47,273.6,201.76,275.07,202.27,280.16z"/>
	<path d="M257.83,122.89c1.5-1.1,2.6-1.9,3.1-3.4C258.73,120.69,258.73,120.69,257.83,122.89z"/>
	<path d="M705.91,99.97c0.2,0.8,0.3,1.7,0.4,2.5C707.52,98.82,704.42,94.01,705.91,99.97z"/>
	<path d="M663.46,298.28c1.8,0.1,1.9,0.2,2.5-1.1C666.44,296.47,664.79,295.88,663.46,298.28z"/>
	<path d="M209.08,215.09c1-0.6,1.5-1.5,1.7-2.6c0-0.1-0.3-0.2-1-0.9C209.78,213.09,208.48,213.79,209.08,215.09z"/>
	<path d="M716.12,98.17c0.5-1.5,0.3-2.59-1.19-3.3c0.07-0.58-1.61-4.28-3.82-7.82c-0.3-0.3-0.7-0.2-1,0.3
		c3.37,6.13,4.73,7.96,4.82,7.53C715.5,95.89,714.43,97.37,716.12,98.17z"/>
	<path d="M230.3,222.9c1.04-0.52,0.45-1.87-1.5-0.7C226.25,223.48,228.77,223.66,230.3,222.9z"/>
	<path d="M192.76,319.3c1.3,0.1,2.1-0.4,2.6-2C193.76,317.8,193.76,317.8,192.76,319.3z"/>
	<path d="M243.62,114.89c-0.2,1.2,1.1,1.9,0.8,3.1C244.16,118.76,246.82,118.42,243.62,114.89z"/>
	<path d="M731.83,99.37c0.85-1.24-1.35-1.32-2.3,1.3C730.15,101.29,731.33,100.1,731.83,99.37z"/>
	<path d="M277.35,193.97c-2.4-1-2.4-1-3.5-0.4C275.85,194.47,275.85,194.47,277.35,193.97z"/>
	<path d="M238.81,214.79c-1.2,0.1-1.6,0.9-2.3,2.4C238.61,215.99,238.61,215.99,238.81,214.79z"/>
	<path d="M306.88,199.37c-0.7,1.4-0.1,2.4,0.9,3.4C308.08,201.38,308.18,200.28,306.88,199.37z"/>
	<path d="M301.58,211.39c0,0.1,0.2,0.3,0.7,0.7C303.36,209.28,300.62,207.08,301.58,211.39z"/>
	<path d="M222.39,206.88c0.9,0.9,0.9,0.9,2.1,0.9C223.59,206.78,223.59,206.78,222.39,206.88z"/>
	<path d="M258.63,246.12c0,1.06,1.36-0.44,1-2.8C258.63,244.22,258.43,245.12,258.63,246.12z"/>
	<path d="M252.73,291.37c0.43-0.2,4.33-1.58,3.5-2.4C255.13,289.05,252.73,290.27,252.73,291.37z"/>
	<path d="M287.86,191.77c-0.83-2.28-2.7-1.8-2.7-0.5C286.16,190.77,286.76,191.97,287.86,191.77z"/>
	<path d="M233.91,219.7c-1.4,0.4-2.1,0.9-2.1,2.6C233,221.6,233.8,221.1,233.91,219.7z"/>
	<path d="M244.12,193.67c-1.4-1.2-1.5-1.2-2.1,0.2C242.88,194.08,243.98,194.6,244.12,193.67z"/>
	<path d="M234.11,117.89c0.3,1.1,0.4,1.9,1.1,2.5C235.31,118.89,235.31,118.89,234.11,117.89z"/>
	<path d="M242.01,273.15c-0.86-0.43-2.07,0.1,0.9,1.8C242.91,274.25,242.71,273.55,242.01,273.15z"/>
	<path d="M747.55,279.36c0.2,1.2,0.7,2.1,2.1,2.5C749.15,280.76,748.65,279.86,747.55,279.36z"/>
	<path d="M215.69,211.79c0.8,1,0.8,1,2.3,0.5C216.79,211.49,216.79,211.49,215.69,211.79z"/>
	<path d="M670.97,270.45c0-2.41,0.07-1.74-0.2-2C670.53,269.4,670.3,270.34,670.97,270.45z"/>
	<path d="M235.71,194.07c0.2-0.1,0.5-0.1,0.6-0.2c0.2-0.3-0.6-1.1-1.1-1C234.67,192.87,234.54,194.07,235.71,194.07z"/>
	<path d="M713.41,253.43c-0.6-1.1-0.6-1.1-1.7-0.9C712.01,253.33,712.61,253.63,713.41,253.43z"/>
	<path d="M256.13,288.87c0.33,0.33,1.84,0.31,1.6-1.1C256.93,287.77,256.43,288.17,256.13,288.87z"/>
	<path d="M742.24,316.5c0.3,0.8,0.9,1.2,1.9,1.2C743.65,316.8,743.15,316.3,742.24,316.5z"/>
	<path d="M227.9,201.48c0.3,0.8,0.9,0.9,1.7,0.8C228.9,200.98,228.9,200.98,227.9,201.48z"/>
	<path d="M290.77,193.87c0.79,1.18,1.71,1.22,1.1,0C291.67,193.57,291.37,193.57,290.77,193.87z"/>
	<path d="M202.57,377.96c-0.5,0.4-0.3,0.9-0.4,1.4C202.67,378.97,202.87,378.57,202.57,377.96z"/>
	<path d="M199.77,290.97c0-1-0.69,0.01-0.1,0.3C199.77,291.17,199.87,291.07,199.77,290.97z"/>
	<path d="M252.62,291.37c-0.08,0.06-0.19,0.06,0.1,0.1L252.62,291.37z"/>
	<path d="M250.42,292.07c0.67-0.1,1.42-0.2,2.1-0.64C251.7,291.26,250.97,291.24,250.42,292.07z"/>
	<path d="M721.52,271.15c-0.66,0.09-1.5,0.11-2.02,0.7C720.26,271.88,721.06,271.98,721.52,271.15z"/>
	<path d="M719.5,271.85c-0.23,0-0.21-0.03-0.08,0.1C719.45,271.91,719.48,271.89,719.5,271.85z"/>
	<path d="M319.1,147.12c-1.3-0.1-1.3-0.1-0.9,0.9C318.7,147.92,319,147.62,319.1,147.12z"/>
	<path d="M235.81,123.09c0.3-0.3,0.4-0.7,0-1.1C235.41,122.39,235.41,122.79,235.81,123.09z"/>
	<path d="M654.85,556.65c-0.27-0.91-0.88-0.83-1.36-0.8C653.7,556.48,654.09,556.84,654.85,556.65z"/>
	<path d="M653.45,555.75l-0.1,0.1C653.56,555.85,653.48,555.87,653.45,555.75z"/>
	<path d="M287.36,185.26c-0.01,0.06-0.01,0.12-0.02,0.18C287.49,185.33,287.49,185.39,287.36,185.26z"/>
	<path d="M286.76,187.56c0.65-0.56,0.53-1.37,0.58-2.12C286.58,185.95,286.66,186.8,286.76,187.56z"/>
	<path d="M672.87,358.64c0,0.1,0.1,0.2,0.1,0.3C673.32,358.59,673.08,358.01,672.87,358.64z"/>
	<path d="M202.07,379.27c0,0.4-0.4,0.5-0.2,0.9C201.97,379.87,201.97,379.57,202.07,379.27z"/>
	<path d="M723.12,270.55c0.48-0.1,1.13-0.02,1.28-0.79C723.85,269.77,723.31,269.9,723.12,270.55z"/>
	<path d="M724.43,269.65c0,0.04-0.02,0.07-0.02,0.11C724.57,269.76,724.53,269.76,724.43,269.65z"/>
	<path d="M723.02,270.45c-0.01,0.04-0.03,0.06-0.04,0.1C723.17,270.55,723.15,270.58,723.02,270.45z"/>
	<path d="M722.98,270.55c-0.55-0.01-1.08-0.04-1.36,0.7C722.1,271.15,722.75,271.23,722.98,270.55z"/>
	<path d="M288.66,182.66c0.1-0.4,0.1-0.8,0.2-1.1C288.46,181.76,288.06,181.96,288.66,182.66z"/>
	<path d="M287.46,185.36c0.1-0.3,0.5-0.4,0.2-1C287.56,184.76,287.56,185.06,287.46,185.36z"/>
	<path d="M229.6,191.17l-0.1,0.1C229.71,191.27,229.66,191.29,229.6,191.17z"/>
	<path d="M229.66,191.27c0.31,0.58,0.88,0.5,1.44,0.6C230.74,191.32,230.2,191.28,229.66,191.27z"/>
	<path d="M749.05,300.88c0.2-0.1,0.5-0.2,0.9-0.3C749.35,300.08,749.15,300.38,749.05,300.88z"/>
	<path d="M248.82,292.67c-0.3,0.2-0.5,0.2-0.9,0.3C248.52,293.27,248.62,292.97,248.82,292.67z"/>
	<path d="M248.82,292.77c0.48-0.19,1.22-0.03,1.37-0.7C249.63,292.06,249.1,292.03,248.82,292.77z"/>
	<path d="M250.22,291.97c0,0.11-0.12,0.1,0.1,0.1L250.22,291.97z"/>
	<path d="M706.01,94.06l-0.1,0.1C706.28,94.29,706.27,94.33,706.01,94.06z"/>
	<path d="M729.03,101.57c0.48,0.19,1.07-0.33,0.5-0.9C729.13,100.77,728.83,101.07,729.03,101.57z"/>
	<path d="M728.73,101.57c0,0,0,0.1,0,0.2C728.73,101.55,728.99,101.57,728.73,101.57z"/>
	<path d="M713.51,253.63c0,0.09,0.38,0.28-0.1-0.2C713.51,253.53,713.41,253.63,713.51,253.63z"/>
	<path d="M719.12,272.25c0-0.17,0.13-0.2,0-0.2C719.12,272.05,719.12,272.15,719.12,272.25z"/>
	<path d="M719.18,272.05c0.08-0.01,0.14-0.04,0.14-0.2C719.27,271.9,719.22,271.97,719.18,272.05z"/>
	<path d="M243.01,275.06c-0.12-0.12-0.07-0.1-0.2-0.1L243.01,275.06z"/>
	<path d="M665.86,275.86c0.1-0.1,0.1-0.1,0.1-0.3C665.96,275.66,665.86,275.76,665.86,275.86z"/>
	<path d="M202.17,280.06C201.97,280.36,202.17,280.16,202.17,280.06L202.17,280.06z"/>
	<path d="M678.68,334.92l0.1,0.1C678.73,334.83,678.86,334.74,678.68,334.92z"/>
	<path d="M678.78,334.82c0.19-0.19,0.43-0.43,0.6-0.6C679.04,334.3,678.79,334.47,678.78,334.82z"/>
	<path d="M678.01,335.49c-0.16,0.16-0.16,0.1-0.03,0.23C677.98,335.63,677.99,335.56,678.01,335.49z"/>
	<path d="M678.01,335.49c0.19-0.19,0.41-0.41,0.57-0.57C678.25,335,678.06,335.16,678.01,335.49z"/>
	<path d="M677.88,335.72C677.58,336.02,678.08,335.62,677.88,335.72L677.88,335.72z"/>
	<path d="M273.05,338.12c-0.1-0.1-0.3-0.1-0.5-0.2C272.95,338.33,272.48,338.69,273.05,338.12z"/>
	<path d="M208.88,354.24c0-0.18,0.06-0.06-0.1-0.1L208.88,354.24z"/>
	<path d="M210.78,341.83c-1.27-2.62-2.6-5.21-3.9-7.91c-1.39,1.86,2.23,5.56,3.7,11.81c1.15,4.86-1.63,7.69-1.69,8.41
		C209.52,354.19,214.77,350.05,210.78,341.83z"/>
	<path d="M208.68,354.14c0.04,0.19-0.05,0.15,0.1,0.1L208.68,354.14z"/>
	<path d="M208.69,354.28c-0.44,0.17-0.91,0.93-0.51,0.66C208.08,354.84,208.75,355.04,208.69,354.28z"/>
	<path d="M208.01,355.09c-0.21,0.18-0.39,0.39-0.63,0.55C207.71,355.64,207.89,355.43,208.01,355.09z"/>
	<path d="M677.18,355.64l-0.1,0.1C677.2,355.74,677.18,355.77,677.18,355.64z"/>
	<path d="M207.18,355.94c0,0,0.1-0.1,0.1-0.4C207.28,355.74,207.18,355.84,207.18,355.94z"/>
	<path d="M286.66,187.46C286.36,187.76,286.66,187.56,286.66,187.46L286.66,187.46z"/>
	<path d="M229.65,202.41c0.13,0.31,0.38,0.5,0.65,0.67C230.21,202.73,230.03,202.46,229.65,202.41c0,0-0.03-0.02-0.05-0.13l-0.1,0.1
		C229.61,202.38,229.65,202.41,229.65,202.41z"/>
	<path d="M230.4,203.18c-0.13-0.13-0.07-0.13-0.2,0H230.4z"/>
	<path d="M219.29,205.38c-0.13-0.25-0.1-0.24-0.1-0.1L219.29,205.38z"/>
	<path d="M231.6,253.23c0.13,0.38,0.07,0.33,0.2,0.2L231.6,253.23z"/>
	<path d="M674.27,253.33c-0.25,0.13-0.24,0.1-0.1,0.1L674.27,253.33z"/>
	<path d="M232.6,254.23c-0.26-0.26-0.19-0.16-0.1,0.1L232.6,254.23z"/>
	<path d="M231.7,253.53c0.24,0.16,0.48,0.33,0.71,0.54C232.29,253.77,232.09,253.53,231.7,253.53z"/>
	<path d="M756.06,169.44l-0.1-0.1C755.96,169.59,755.9,169.57,756.06,169.44z"/>
	<path d="M701,171.04l0.1-0.1C700.81,170.86,700.9,170.88,701,171.04z"/>
	<path d="M758.96,161.13l0.1,0.1C759.15,160.71,759.14,160.81,758.96,161.13z"/>
	<path d="M145.41,173.35l0.1-0.1C145.45,173.26,145.38,173.29,145.41,173.35z"/>
	<path d="M295.17,540.84l0.1,0.1C295.27,540.78,295.36,540.88,295.17,540.84z"/>
	<path d="M775.08,172.15c0-27.61-12.37-24.89-9.11-21.62c4.15,2.89,4.88,7.16,5.41,7.71c3.79,3.91,0.17,12.42,5.41,19.62
		C777.44,175.55,775.77,173.6,775.08,172.15z"/>
	<path d="M712.41,193.07c2.14-0.75,11.02-4.55,11.02-4.66c0-1.37,1.32-1.97,2.19-2.84c5.83-5.83,3.01-6.45,1.71-4.8
		c-2.62,3.34-4.07,6.03-7.92,7.4C717.92,188.7,712,191.52,712.41,193.07z"/>
	<path d="M730.03,168.43c-3.44,3.29-3.02,2.97-2.98,3.07c0.95,2.88,7.39-2.28,9.58-12.58C733.96,156.59,734.02,164.62,730.03,168.43
		z"/>
	<path d="M731.73,203.18c-0.53,0.23-1.01,0.64-0.9,1.2c0.88,4.36-0.2,7.89,0.5,12.81C733.93,213.69,734.55,205.13,731.73,203.18z"/>
	<path d="M733.94,189.16c-0.47-0.93-1.29-1.29-1.29-0.96c0.55,3.91-0.51,8.12-0.51,12.58C733.93,198.27,734.71,191.61,733.94,189.16
		z"/>
	<path d="M683.67,180.16c0.76-2.81-1-2.84-1-2.4C682.12,179.71,680.88,194.85,683.67,180.16z"/>
	<path d="M741.14,185.86c0.32-4.77-7.27-6.29-5.91-5.33C737.39,182.05,738.94,184.26,741.14,185.86z"/>
	<path d="M705.31,239.32l0.1,0.1C705.38,239.33,705.39,239.32,705.31,239.32z"/>
	<path d="M706.81,238.82c-1.3-4.64-5.19-9.4-1.54,0.21C705.53,239.56,706.5,239.63,706.81,238.82z"/>
	<path d="M701.11,202.25c5.66-2.2,3.2-4.37,1.49-1.87c-0.07,0.1-6.02,1.99-3,2.13C700.11,202.53,700.6,202.45,701.11,202.25z"/>
	<path d="M687.39,180.15c-1.73,1.44,0.25,3.94,2.3,4.3C689.29,182.86,688.79,181.26,687.39,180.15z"/>
	<path d="M730.8,241.91c0.56-0.05,0.42-0.04,0.44-0.81C731.6,229.18,729.05,242.15,730.8,241.91z"/>
	<path d="M697.1,186.86c2.4,1.5,2.4,1.5,4.2,1.5C700,186.66,700,186.66,697.1,186.86z"/>
	<path d="M794.6,127.5c-1.4,1.4-1.2,2.9-0.9,4.4C794.93,130.55,795.33,129.25,794.6,127.5z"/>
	<path d="M773.28,191.57c0.4-1.4,0.4-2.5-0.8-3.3C772.37,189.44,771.69,190.56,773.28,191.57z"/>
	<path d="M681.58,188.46c0.7,1.86,3.57,2.65,2.44,0.52C683.44,187.89,681.58,186.69,681.58,188.46z"/>
	<path d="M744.95,172.75c3.49,2.05,3.87,0.16,1.9-0.2C746.25,172.44,745.45,171.75,744.95,172.75z"/>
	<path d="M681.48,190.87c-1.5,2.1-1.5,2.1-1.6,3.9C680.88,193.57,681.78,192.87,681.48,190.87z"/>
	<path d="M699.2,180.25c-0.08,1.27-0.17,1.3,1.9,1.5C700.6,181.06,700.2,180.35,699.2,180.25z"/>
	<path d="M777.88,181.36c0.79,0.79,1.38-0.99,0.1-2.9C777.48,179.95,777.48,179.95,777.88,181.36z"/>
	<path d="M715.12,173.15c-1.2-1.4-1.2-1.4-2.2-0.2C713.51,173.75,714.32,173.55,715.12,173.15z"/>
	<path d="M729.83,226.1c0.71-1.32,0.69-1.33,0.2-3.1C729.73,224.1,729.03,225,729.83,226.1z"/>
	<path d="M793.1,136.11c1-0.5,1.4-1.3,0.8-2.4C792.9,134.31,792.6,135.11,793.1,136.11z"/>
	<path d="M686.39,190.97c0.98,1.07,1.01,1.12,2.4,0.6C688.09,190.77,687.39,190.27,686.39,190.97z"/>
	<path d="M708.28,196.09c0.63,0.03,1.46-1.3,2.13-2.12C708.49,194.78,707.44,196,708.28,196.09z"/>
	<path d="M756.66,169.51c-0.33,0.05,1.01,1.55,2,1.63C758.42,169.92,758.14,169.28,756.66,169.51z"/>
	<path d="M756.4,169.49C756.31,169.41,756.34,169.45,756.4,169.49L756.4,169.49z"/>
	<path d="M756.46,169.54c-0.02-0.02-0.05-0.05-0.05-0.05c0,0-0.01-0.01-0.01-0.01C756.42,169.5,756.43,169.51,756.46,169.54z"/>
	<path d="M706.61,172.27c-0.53-0.71-1.66,0.24-0.7,0.88C706.35,173.39,707.57,173.34,706.61,172.27z"/>
	<path d="M693.19,186.26c1.99,2.38,2.25-0.14,0.97-0.1C693.93,186.17,693.62,186.21,693.19,186.26z"/>
	<path d="M790,126.3c-0.84-0.47-1.2-0.15-1.4,0.8C789.6,127.7,789.8,127,790,126.3z"/>
	<path d="M762.77,173.95c0.08-0.41,0.05-0.29,0.05-0.53C762.71,172.16,760.66,173.25,762.77,173.95z"/>
	<path d="M757.87,165.5c-0.01-0.09-0.01-0.17-0.01-0.26C756.61,166.81,758.09,167.58,757.87,165.5z"/>
	<path d="M758.61,163.79c0.03,0.03,0.03,0.03,0.05,0.05C758.82,163.22,758.25,164.15,758.61,163.79z"/>
	<path d="M758.83,163.49c0.45-0.54,0.35-1.2,0.43-2.05C759.02,161.78,758.55,163.49,758.83,163.49z"/>
	<path d="M703.76,233.23c-0.34-0.2-0.68-0.44-1.16-0.92C702.73,233.45,703.99,233.36,703.76,233.23z"/>
	<path d="M757.96,165.32c0,0.1,0.42-0.02,0.53-1.29C758.49,163.44,757.99,165.22,757.96,165.32z"/>
	<path d="M701.5,171.25l-0.1,0.1C701.8,171.35,701.77,171.38,701.5,171.25z"/>
	<path d="M758.76,171.45c0.39,0,0.08-0.05-0.11-0.14C758.68,171.34,758.71,171.39,758.76,171.45z"/>
	<path d="M758.65,171.3c-0.02-0.03-0.04-0.06-0.09-0.06C758.58,171.26,758.61,171.28,758.65,171.3z"/>
	<path d="M689.59,184.56l0.2,0.1C689.66,184.41,689.72,184.43,689.59,184.56z"/>
	<path d="M731.23,217.09C730.93,217.39,731.23,217.19,731.23,217.09L731.23,217.09z"/>
	<path d="M699.38,226.7c0.1,0-0.07-0.04-0.18-0.1C699.32,226.72,699.28,226.7,699.38,226.7z"/>
	<path d="M779.88,544.74c-6.75,0-9.73,0.04-11.31,0.4c-1.04,0.23-1.23,1.59-0.2,1.6c3.3,0.05,6.61,0.1,9.91,0.1
		C781.52,546.84,781.45,544.74,779.88,544.74z"/>
	<path d="M770.98,551.45c-26.14-0.61-8.89,1.73,3.2,0C773.08,551.45,771.98,551.35,770.98,551.45z"/>
	<path d="M733.02,546.89c-0.7-0.23-0.31,0.9,0.21,0.25C733.24,547.03,733.14,546.94,733.02,546.89z"/>
	<path d="M732.73,546.84c-0.25-0.25-0.17-0.12-0.15-0.06C732.59,547.03,732.67,546.91,732.73,546.84z"/>
	<path d="M574.79,43.28c-1.75-0.53-0.65,1.66,1.18,0.93C575.62,43.84,575.25,43.42,574.79,43.28z"/>
	<path d="M558.45,141.81c-0.55,0-0.34,0.7,0,0.7C558.75,142.51,560.45,141.81,558.45,141.81z"/>
	<path d="M619.41,167.84c-2.28-3.81-3.96,2.61,8.31,8.41C628.8,174.13,622.42,173.62,619.41,167.84z"/>
	<path d="M627.02,161.94c-2.26-2.55-3.74-5.11-5.42-7.57C620.98,153.32,621.95,159.52,627.02,161.94z"/>
	<path d="M660.74,129.72c0.01-0.02,0.01-0.05,0.02-0.07c0,0.01,0,0.02,0,0.05l0.2-0.1c-0.16,0-0.19-0.01-0.2,0.02
		c-0.02-0.04-0.25,0.14-1.48,1.23c-2.59,2.29-3.27,7.03,0.74,1.01C660.32,131.33,660.61,130.53,660.74,129.72z"/>
	<path d="M622.42,122.59c3.63-6.05-0.8-8.92-0.04-0.57C622.39,122.21,622.41,122.4,622.42,122.59z"/>
	<path d="M678.64,117.8c0.83-0.4,1.55-0.81,2.84-1.82C679.41,114.25,673.27,120.78,678.64,117.8z"/>
	<path d="M649.95,172.35c1.14,0.46,1.86,0.28,2.5-1C651.19,170.94,650.45,171.35,649.95,172.35z"/>
	<path d="M694.35,137.35c-0.87,0.33-1.12,0.83-0.66,1.77C694.99,138.73,695.17,137.03,694.35,137.35z"/>
	<path d="M629.63,114.58c-0.87-0.74-2.33,0.39-2.33,0.67C627.29,115.76,628.8,115.97,629.63,114.58z"/>
	<path d="M617.41,158.63c-0.66,1.97,0.04,2.81,0.3,1.87C617.83,160.07,617.98,158.97,617.41,158.63z"/>
	<path d="M622.52,124.4c-0.2,0.4-0.2,0.8,0.1,1.2C623.62,124.7,623.62,124.7,622.52,124.4z"/>
	<path d="M645.84,174.45c0.53-0.11,1-0.2,1.2-0.7C645.94,173.53,645.92,173.59,645.84,174.45z"/>
	<path d="M629.12,117.99c-0.19,0.68-0.81,1.21,0.3,1.8C629.73,119.09,629.93,118.59,629.12,117.99z"/>
	<path d="M621.22,115.99c0.33-0.33,0.16-1.71-0.6-0.2C620.82,115.89,621.12,116.09,621.22,115.99z"/>
	<path d="M638.94,170.54c0.17,0.17,0.03,0.14,0.2-0.2C639.14,170.22,638.94,170.16,638.94,170.54z"/>
	<path d="M621.52,154.07c0-0.39,0-0.88,0-1.25C621.52,152.41,620.6,153.53,621.52,154.07z"/>
	<path d="M621.52,154.23l0.1-0.1C621.49,154.06,621.52,154,621.52,154.23z"/>
	<path d="M622.02,152.21c-0.01-0.14-0.4-1.06-0.4,0.51C621.82,152.6,622.04,152.47,622.02,152.21z"/>
	<path d="M663.26,140.51c0-0.34-0.13-0.27-0.4-0.1C663.05,140.79,663.01,140.51,663.26,140.51z"/>
	<path d="M623.62,130.5c0-0.58-0.58-0.22-0.22,0.26C623.48,130.82,623.55,130.72,623.62,130.5z"/>
	<path d="M629.33,124.9c0.3-0.3,0.3-0.6,0-0.9C628.82,124.3,629.02,124.6,629.33,124.9z"/>
	<path d="M668.47,124.9c-0.1-0.1-0.25-0.16-0.4,0C668.17,125,668.31,125.05,668.47,124.9z"/>
	<path d="M675.67,119.39l0.1,0.1C675.71,119.34,675.82,119.34,675.67,119.39z"/>
	<path d="M676.37,118.59c-0.23,0-0.66,0.26-0.63,0.68C675.74,119.49,676.37,119.18,676.37,118.59z"/>
	<path d="M675.37,119.39c0,0-0.1,0.1-0.1,0.2c0.11-0.11,0.18-0.17,0.25-0.22C675.48,119.38,675.43,119.39,675.37,119.39z"/>
	<path d="M675.52,119.37C675.7,119.32,675.73,119.21,675.52,119.37L675.52,119.37z"/>
	<path d="M693.89,372.96c-3,3.8-4,6.31-12.31,12.01C683.8,386.07,699.55,374.8,693.89,372.96z"/>
	<path d="M685.68,389.88c-2.47,1.55-1.73,4.93-2.6,5.81c0.35,1.22,0.99,2.14,2.1,2.69c0.5,0.3,0.9,1.3,1.9,0.6
		c0.3-1.9-1.6-2.9-1.9-4.4C684.98,392.68,686.49,391.48,685.68,389.88z"/>
	<path d="M666.33,454.53c-0.99,3.08-1.08,4.14-0.07,7.02C666.68,458.45,667.17,451.93,666.33,454.53z"/>
	<path d="M663.66,428.62c-1.64,3.09-2.27,5.61-0.7,8.91C663.98,429.72,663.66,431.78,663.66,428.62z"/>
	<path d="M698.1,375.26c-2.54-0.36-0.33,2.92,1.3,4.7C702.3,381.93,698.77,375.76,698.1,375.26z"/>
	<path d="M668.17,448.84c0-1.7,0.4-3.4-0.6-5.11C666.97,448.54,666.65,449.41,668.17,448.84z"/>
	<path d="M689.79,403.38c-0.89,0.14-1.06,1.65,0.7,3.21C690.49,405.98,691.27,403.15,689.79,403.38z"/>
	<path d="M664.06,423.62c-0.41,0.63-0.67,1.03-0.77,1.33C662.95,425.94,665.29,427.73,664.06,423.62z"/>
	<path d="M665.66,489.48c-0.58,3.58,1.36,1.91,0.84,0.87C666.38,490.07,666.11,489.78,665.66,489.48z"/>
	<path d="M673.43,490.52c0.08-1.23-0.88-2.44-0.78-0.28C672.71,491.5,673.33,492.06,673.43,490.52z"/>
	<path d="M683.88,402.69c-0.1,0.9,0,1.4,1.4,1.4C684.78,403.39,684.78,402.79,683.88,402.69z"/>
	<path d="M668.77,439.33c-0.7,0.5-0.5,1.1-0.1,1.7C668.87,440.43,669.07,439.93,668.77,439.33z"/>
	<path d="M675.37,386.17c-0.9,0.2-1.1,0.5-0.9,1.1C674.97,387.27,675.17,386.87,675.37,386.17z"/>
	<path d="M672.27,424.71h0.2C672.34,424.34,672.4,424.32,672.27,424.71z"/>
	<path d="M695.8,371.66c0.25,0-0.08-0.2-0.2-0.2C695.4,371.56,695.5,371.66,695.8,371.66z"/>
	<path d="M684.48,411.4c-0.1-0.2-0.2-0.4-0.2-0.6C683.69,411.4,684.25,412.11,684.48,411.4z"/>
	<path d="M681.08,400.59c-0.05-0.1-0.11-0.21-0.21-0.31C680.89,400.38,680.83,400.59,681.08,400.59z"/>
	<path d="M735.01,410.2c-1.52-0.13-0.35,2.33,0.33,3.7c2.58,5.27,1.78,8.68,1.81,11.03c0.07,6.22,2.89-0.53,0.99-8.21
		C737.72,415.03,736.71,410.47,735.01,410.2z"/>
	<path d="M741.14,488.68c-0.55,6.47,4.18,10.38,1.06,2.66C741.69,490.06,741.36,489.31,741.14,488.68z"/>
	<path d="M740.94,382.27c-1.54-1.21-4.24-5.79-4.81-2.4C737.14,381.77,739.04,382.07,740.94,382.27z"/>
	<path d="M734.66,475.91c-0.35,1-1.21,3.22-1.21,4.26C735.15,478.75,734.92,474.86,734.66,475.91z"/>
	<path d="M732.73,407.5c0.1-1.2,0.1-2.4-1.3-3.5C731.03,405.69,731.43,406.8,732.73,407.5z"/>
	<path d="M733.04,459.15c1.4-1.4,1.4-1.4,0.6-3.1C733.03,457.05,732.53,457.99,733.04,459.15z"/>
	<path d="M730.83,471.86c1.2-0.9,1.2-0.9,0.8-3.1C730.83,469.66,730.93,470.76,730.83,471.86z"/>
	<path d="M733.44,482.68c0.4-1.2,0.4-1.2-0.1-2.6C732.71,481.7,732.78,481.71,733.44,482.68z"/>
	<path d="M734.93,433.65c-0.02,2.02,2.05,0.24,1.11-1.23C735.25,432.73,734.93,433.14,734.93,433.65z"/>
	<path d="M732.23,465.86c0.7-0.7,0.7-1.5,0.2-2.6C731.43,465.06,731.43,465.06,732.23,465.86z"/>
	<path d="M732.03,487.48c1.35-1.01,1.27-1.05,0.7-2.1C732.03,485.88,731.63,486.58,732.03,487.48z"/>
	<path d="M740.34,463.86c-0.25,0.88-0.31,1.4,0.4,2.4C740.95,464.83,740.92,464.81,740.34,463.86z"/>
	<path d="M741.14,483.58c-0.4,0.7-0.5,1.3,0.1,1.8C741.54,484.78,741.74,484.18,741.14,483.58z"/>
	<path d="M733.14,439.03c0.2-0.2,0.5-0.4,0.7-0.6c-0.3-0.4-0.9-0.41-0.73,0.44C733.13,438.93,733.14,438.98,733.14,439.03z"/>
	<path d="M730.13,441.33c-0.34,0.23-0.47,0.63-0.1,0.9C730.98,442,730.63,440.84,730.13,441.33z"/>
	<path d="M740.34,478.67c-0.47,0.71,0.4,1.51,0.34,0.48C740.68,478.98,740.58,478.81,740.34,478.67z"/>
	<path d="M741.24,458.25c-0.09,0.27-0.2,0.41-0.2,0.6C741.33,459.14,741.83,458.84,741.24,458.25z"/>
	<path d="M741.14,472.36c0.2-0.2,0.5-0.4,0-0.6C741.14,471.96,741.14,472.16,741.14,472.36z"/>
	<path d="M732.83,407.7c0-0.1-0.1-0.1-0.2-0.1C732.73,407.6,732.83,407.7,732.83,407.7z"/>
	<path d="M740.84,382.37c0.03,0.03,0.06,0.06,0.09,0.09c0,0,0,0,0,0C740.92,382.41,740.9,382.37,740.84,382.37z"/>
	<path d="M741.14,382.67c-0.18-0.18-0.21-0.21-0.21-0.21C740.96,382.54,740.92,382.67,741.14,382.67z"/>
	<path d="M730.33,395.78c0.26,0.26,0.45,0.51,0.76,0.57C730.99,395.98,730.84,395.78,730.33,395.78z"/>
	<path d="M731.09,396.36C731.09,396.56,731.37,396.36,731.09,396.36L731.09,396.36z"/>
	<path d="M731.43,396.68c-0.08-0.12-0.18-0.2-0.3-0.2C731.23,396.58,731.33,396.68,731.43,396.68z"/>
	<path d="M683.58,537.23c-3.6-3.24-10.62,0.28-6.27,1.9c1.15,0.43,2.69,0.17,3.86,0.51c-0.4,0.8-1.5,0.6-1.6,1.7
		c0.8,2.18,6.78,1.46,3.1-2.21C682.98,538.54,683.18,538.03,683.58,537.23z"/>
	<path d="M748.54,522.37c1.63,0.35,2.89,0.25,4.31-0.74c-0.92-0.92-0.58-1.1-1.85-1.36C748.32,519.71,745.7,521.76,748.54,522.37z"
		/>
	<path d="M679.28,156.73c1,0.2,1.9,0,3.1-0.9C680.68,155.03,679.98,155.83,679.28,156.73z"/>
	<path d="M697.6,241.92c-0.74,0.26,0.37,0.94,0.05,0.15C697.62,242.02,697.6,241.97,697.6,241.92z"/>
	<path d="M82.44,163.24c-3.2-0.26-4.99,0.32-4.43,0.44C83.25,164.79,83.25,163.24,82.44,163.24z"/>
	<path d="M105.57,65.53c-0.6-1-1.3-1.2-2.2-0.8C103.97,65.43,104.57,65.73,105.57,65.53z"/>
	<path d="M88.95,163.44c-0.85-0.43,0.09-0.37-1.5-0.1C88.27,163.66,88.3,163.76,88.95,163.44z"/>
	<path d="M101.76,64.03c-0.18,0-0.43-0.29-0.2,0C101.56,64.03,101.66,64.03,101.76,64.03z"/>
	<path d="M147.71,187.46c-2.39,1.49,3.16,7.19,9.21,9.61C158.31,194.97,154.58,196.62,147.71,187.46z"/>
	<path d="M189.56,150.62c-3.23,2.69-4.95,6.46-2.43,4.82c1.31-1.31,1.84-2.68,2.83-4.21C190.06,151.02,189.96,150.82,189.56,150.62z
		"/>
	<path d="M153.92,180.86c0.25-1.13-3.3-4.27-3.3-8.21C150.02,176.15,151.02,178.85,153.92,180.86z"/>
	<path d="M151.92,142.41c1.53-1.81,1.41-4.2,0.87-4.48c-0.21-0.11-0.51-0.22-0.77-0.42C151.5,138.97,150.54,143.1,151.92,142.41z"/>
	<path d="M210.88,136.01c-1.39,0.4-5.23,1.68-4.2,2.7C209.18,137.91,209.18,137.91,210.88,136.01z"/>
	<path d="M223.49,157.93c-0.95,0.43-1.27,0.95-0.6,2.2C223.89,158.73,223.89,158.73,223.49,157.93z"/>
	<path d="M158.93,135.01c-1.4,0-2.1,0.5-3.1,1.1C157.32,136.51,158.22,136.41,158.93,135.01z"/>
	<path d="M180.04,192.08c-0.39,0.19-0.74,0.59-1.09,1.09C181.93,193.86,181.7,191.28,180.04,192.08z"/>
	<path d="M158.85,139.74c-0.08-1.82-1.75-0.62-0.82,1.47C158.47,140.7,158.87,140.27,158.85,139.74z"/>
	<path d="M156.32,183.66c-0.65-1.49-1.15-2.34-2.3-2.8C154.02,182.18,155.12,182.86,156.32,183.66z"/>
	<path d="M146.21,181.96c0.6-1,0.6-1.9,0-2.9C145.71,180.05,145.71,180.96,146.21,181.96z"/>
	<path d="M158.93,147.62c-0.05,0-0.08,0-0.1,0C158.52,147.62,158.93,150.2,158.93,147.62z"/>
	<path d="M206.68,138.71c-0.34-0.34-1.55,0.29-2.24,1.31C205.44,140.13,206.11,139.47,206.68,138.71z"/>
	<path d="M204.37,140.11c0.07-0.1,0.12-0.09-0.11-0.09L204.37,140.11z"/>
	<path d="M151.66,145.72c0.02,0.19,0.38,0.95,0.74,0.24C152.79,145.2,151.55,144.61,151.66,145.72z"/>
	<path d="M150.43,136.48c0.29-0.58,0.24-0.21-0.31-0.57C149.41,136.26,150.1,137.36,150.43,136.48z"/>
	<path d="M192.16,161.23c0,0-0.1-0.1-0.1-0.2C191.6,161.03,191.64,161.41,192.16,161.23z"/>
	<path d="M152.82,151.22c0.14-0.14,0.16-0.4-0.1-0.4C152.72,151.04,152.52,151.22,152.82,151.22z"/>
	<path d="M158.22,144.42c-0.41,0.51-0.36,0.8,0.29,0.8C158.53,144.92,158.42,144.62,158.22,144.42z"/>
	<path d="M174.77,194.82c-0.07,0.13,0.64,0.39,1.17-0.15C175.58,194.12,175.14,194.1,174.77,194.82z"/>
	<path d="M204.24,140.13c0,0-0.01,0.01-0.02,0.02C204.17,140.26,204.11,140.65,204.24,140.13z"/>
	<path d="M158.54,145.33c-0.17-0.06-0.04,0,0.02,0.06C158.61,145.49,158.69,145.36,158.54,145.33z"/>
	<path d="M197.47,145.52c-0.13,0.04-0.06,0.02-0.3,0.1C197.42,145.74,197.34,145.78,197.47,145.52z"/>
	<path d="M174.48,195.1c0.2,0,0.16-0.02,0.16-0.33C174.49,194.99,174.4,195.1,174.48,195.1z"/>
	<path d="M212.68,405.59c3.4-2.48,8.6-4.78,11.01-9.01c0.85-1.06,1.31-2.71-0.61-3.08c-0.18-0.06,0.68-0.7-5.3,6.69
		c-1.94,2.4-4.9,3.49-7.21,5.51C211.48,406.29,212.18,405.89,212.68,405.59z"/>
	<path d="M214.98,410.9c-2.41,0-2.02,3.63-2.9,5.51c1.3,2.4,1.3,2.4,3.9,3.4c0.89-1.33-1.39-3.07-1.8-4.71
		C213.98,413.7,215.59,412.4,214.98,410.9z"/>
	<path d="M196.27,473.87c-1.8,3.3-2,5.41-1,10.31C195.66,480.67,195.96,477.57,196.27,473.87z"/>
	<path d="M192.46,450.84c-2.21,3.99-1.44,7.33,0,6.61C192.38,455.26,193.06,453.22,192.46,450.84z"/>
	<path d="M197.37,463.66c-1.5,2.1-1.2,4.1-0.9,6.61C197.67,467.46,197.67,467.46,197.37,463.66z"/>
	<path d="M229.4,400.89c-0.39-2.37-1.81-6.28-3.5-4.4C227.3,399.29,227.3,399.29,229.4,400.89z"/>
	<path d="M218.36,425.48c0.02,0.72,0.45,1.06,1.53,1.63c-0.02-0.33,0-0.89,0-1.3C219.88,424.26,218.28,422.53,218.36,425.48z"/>
	<path d="M192.96,444.23c-0.7,1.1-0.9,1.9-0.1,2.9C193.76,446.14,193.36,445.34,192.96,444.23z"/>
	<path d="M197.87,459.45c-0.1,0.9-1,1.3-0.2,2.2C197.86,461.07,198.46,460.52,197.87,459.45z"/>
	<path d="M212.68,423.41c0.36,1.63,1.11,1.72,1.21,0.84C213.95,423.77,213.51,423.56,212.68,423.41z"/>
	<path d="M201.77,444.64c-0.4,0.3-0.1,0.6-0.1,0.8C202.07,445.24,201.87,444.94,201.77,444.64z"/>
	<path d="M203.97,408c0.29-0.18,0.4-0.59,0.1-0.9C203.32,407.1,203.41,408.56,203.97,408z"/>
	<path d="M210.13,421.22c0.14-0.21-0.09-0.49-0.35-0.32C209.78,421.41,210.03,421.42,210.13,421.22z"/>
	<path d="M225.01,392.46c0.59,0.12,0.13-0.35-0.11-0.11C224.88,392.4,224.92,392.44,225.01,392.46z"/>
	<path d="M193.76,441.63l-0.1-0.3C193.54,441.71,193.5,441.63,193.76,441.63z"/>
	<path d="M269.24,435.73c0,2.44,1.21,6.74,1.1,9.81c-10.36,27.84,0.64,7.16,1,5.01c0.83-3.31,0.18-3.07-0.3-4.5
		C273.09,435.61,269.24,434.45,269.24,435.73z"/>
	<path d="M269.54,403.19c-0.75-2.13-3.93-5.17-4.3-2.9C265.24,402.07,267.51,402.38,269.54,403.19z"/>
	<path d="M260.73,489.18c-0.87,1.39-0.83,2.39-0.6,4C261.33,491.89,261.43,490.88,260.73,489.18z"/>
	<path d="M262.3,478.2c0,3.61,1.08,0.06,1.1-0.59C263.46,475.77,262.3,477.5,262.3,478.2z"/>
	<path d="M260.83,508.5c1.3-0.7,1.3-0.7,1.1-2.4C261.13,506.5,260.83,507.3,260.83,508.5z"/>
	<path d="M263.54,464.66c-1.25-0.39-1.28-0.44-2.1,1.4C262.52,466.22,263,465.72,263.54,464.66z"/>
	<path d="M261.13,486.68c0.31-0.5,0.71-0.96,0.76-1.52C262.12,482.88,259.88,484.92,261.13,486.68z"/>
	<path d="M263.87,430.3c0,0.67,1.04,2.87,1.04,1.09C264.91,430.81,263.87,428.42,263.87,430.3z"/>
	<path d="M262.94,500.19c-1,1.6-1,1.6-0.3,3.3C263.28,502.22,262.81,501.21,262.94,500.19z"/>
	<path d="M263.04,500.29c0.79-0.79,0.71-1.63,0.4-2.7C262.94,498.59,262.94,499.49,263.04,500.29z"/>
	<path d="M268.85,426.01c0.17-1.12-0.41-1.75-1.51-2.06C267.35,425.2,267.93,425.78,268.85,426.01z"/>
	<path d="M267.34,423.81c-0.17,0.17-0.11,0.09,0.01,0.13C267.35,423.89,267.34,423.91,267.34,423.81z"/>
	<path d="M261.23,466.87c0.64-1.17-0.7-0.79-0.7,0.59C260.88,467.31,261.1,467.11,261.23,466.87z"/>
	<path d="M269.81,403.44c0.76,0.45,0.54-0.43-0.2-0.2C269.32,403.33,269.42,403.21,269.81,403.44z"/>
	<path d="M260.01,416.81c0.05,0.45,0.31,0.87,0.62,1.1C260.63,417.33,260.01,416.09,260.01,416.81z"/>
	<path d="M265.64,460.95c0-0.3,0.1-0.6,0.2-0.9C265.74,460.33,265.35,460.56,265.64,460.95z"/>
	<path d="M260.63,417.91c-0.06,0.06-0.04,0.04-0.1,0.1C260.91,418.13,260.9,418.17,260.63,417.91z"/>
	<path d="M267.43,423.81c-0.24-0.24-0.18-0.23-0.23-0.13C267.3,423.78,267.25,423.81,267.43,423.81z"/>
	<path d="M260.03,416.52c0.12-0.12,0.13-0.1,0-0.1c0-0.11,0.04-0.14-0.06-0.04c-0.72-1.5-1.19,0.03-0.03,0.03
		c0.1,0.1,0.09,0.09,0.09,0.1V416.52z"/>
	<path d="M268.94,426.32c0,0,0.1,0,0.2,0C268.92,426.32,268.94,426.05,268.94,426.32z"/>
	<path d="M268.84,426.12C269.01,426.29,268.91,426.12,268.84,426.12L268.84,426.12z"/>
	<path d="M240.61,553.35c-4.5,0.05-17.41,0.74-18.56,1.13c-6.77,2.31-7.65,1.27-7.97,2.87c2.63,0.88,11.56-3.3,27.23-3.3
		c0.71,0,27.94-1.87,37.74,1.6c8.9,0,10.9,1.89,11.52,1.19c0.96-1.07-3.49-1.84-4.92-1.99c-14.98-1.56-11.77-1.94-14.22-2
		C237.36,552.02,253,553.2,240.61,553.35z"/>
	<path d="M245.34,556.89c-0.39,1.96,16.87,1.74,13.89-1.24C246.45,555.65,245.47,555.77,245.34,556.89z"/>
	<path d="M253.13,562.67c-0.93,0-5.76-0.21-15.22-0.21C227.95,562.46,244.66,565,253.13,562.67z"/>
	<path d="M226.8,561.16c-8.6-1.12-4.8-0.49-13.21-2.4C217.59,561.46,223.69,562.36,226.8,561.16z"/>
	<path d="M208.12,557.35c0.03,0.09,0.09,0.25,0.13,0.33C208.99,559.09,210.48,557.35,208.12,557.35z"/>
	<path d="M365.45,547.45c-2.82-4.23-74.75-5.55-73.78,2.19c4.1,1.87,8.44,2.64,12.1,1.98c4.72-0.84-10.72-0.11-10.32-2.87
		C320.5,539.74,363.76,548.18,365.45,547.45z"/>
	<path d="M335.41,546.34c-9.76,0-10.72-0.32-12.21,0.3c-5.31,2.22,10.52,2.4,12.16,1.11C336.03,547.23,335.76,547.04,335.41,546.34z
		"/>
	<path d="M312.19,553.15c4.42,0.55,13.19,0.64,17.42-0.2C312.75,552.95,311.6,551.78,312.19,553.15z"/>
	<path d="M295.57,541.64c-0.21,0.21-0.57,0.21-0.8,0.3C294.98,542.15,295.39,542.15,295.57,541.64z"/>
	<path d="M287.96,548.65c0-0.46-1.02-0.31-0.44,0.2C287.59,548.92,287.72,548.89,287.96,548.65z"/>
	<path d="M286.74,547.72c-0.14-0.14-0.18-0.18-0.18-0.18C286.36,547.74,286.44,547.58,286.74,547.72z"/>
	<path d="M286.74,547.72c0.57,0.57,0.46,0.45,0.56,0.55C287.48,548.46,287.28,547.91,286.74,547.72z"/>
	<path d="M208.88,177.55c0.9-0.1,1.8,0.1,2.3-1.5C209.88,176.25,208.78,176.15,208.88,177.55z"/>
	<path d="M231.45,546.84c0.27-0.08,0.08-0.23-0.15-0.4C231.16,546.31,230.76,547.12,231.45,546.84z"/>
	<path d="M227.1,262.64h-0.2C226.9,262.9,226.85,262.89,227.1,262.64z"/>
<path fill="#e6e6e6" d="m206.8 163.6c0-5.1 4.1-9.2 9.3-9.2s9.2 4.2 9.2 9.2-4.1 9.2-9.3 9.2-9.2-4.1-9.2-9.2zm17.3-.1c0-4.5-3.5-8.2-8.2-8.2s-8.2 3.7-8.2 8.3c0 4.5 3.5 8.2 8.2 8.2s8.2-3.7 8.2-8.3zm-13 0c0-2.8 2.1-5.1 5.1-5.1 1.9 0 2.9.6 3.9 1.5l-1.4 1.7c-.8-.7-1.5-1.1-2.5-1.1-1.7 0-2.8 1.4-2.8 3.1s1.1 3 2.8 3c1.1 0 1.7-.5 2.5-1.1l1.4 1.4c-1.1 1.1-2.1 1.7-4 1.7-2.9 0-5-2.3-5-5.1z"/><path fill="#e6e6e6" d="m226.6 154.7h3.4l4.2 13.2 4.4-13.3h2.6l4.4 13.3 4.2-13.2h3.3l-6.2 18h-2.7l-4.4-12.8-4.4 12.8h-2.7z"/><path fill="#e6e6e6" d="m252.8 165.8c0-3.9 3.1-7 7.2-7 4.2 0 7.2 3.2 7.2 7s-3.1 7-7.3 7c-4 0-7.1-3.1-7.1-7zm11.3 0c0-2.3-1.7-4.3-4.2-4.3s-4.1 2-4.1 4.3 1.7 4.3 4.1 4.3c2.7.1 4.2-1.9 4.2-4.3z"/><path fill="#e6e6e6" d="m269.5 159.1h3.1v3c.8-2 2.4-3.4 4.8-3.3v3.2h-.2c-2.7 0-4.6 1.7-4.6 5.4v5.1h-3.1z"/><path fill="#e6e6e6" d="m279.1 153.9h3.1v11.1l5.6-6h3.8l-5.4 5.5 5.5 8h-3.5l-4.1-5.8-1.9 2v3.9h-3.1z"/><path fill="#e6e6e6" d="m291.7 165.8c0-3.9 3.1-7 7.2-7 4.2 0 7.2 3.2 7.2 7s-3.1 7-7.3 7c-4 0-7.1-3.1-7.1-7zm11.3 0c0-2.3-1.7-4.3-4.2-4.3s-4.1 2-4.1 4.3 1.7 4.3 4.1 4.3c2.6.1 4.2-1.9 4.2-4.3z"/><path fill="#e6e6e6" d="m308.2 167.6v-8.6h3.1v7.6c0 2.1 1.1 3.3 2.9 3.3s3-1.3 3-3.3v-7.6h3.1v13.4h-3.1v-2.1c-.8 1.3-2.1 2.3-4.2 2.3-3.1.2-4.8-1.8-4.8-5z"/><path fill="#e6e6e6" d="m323.9 168.8v-7.1h-1.7v-2.6h1.7v-3.7h3.1v3.7h3.6v2.6h-3.6v6.6c0 1.2.6 1.7 1.7 1.7.7 0 1.3-.2 1.9-.5v2.5c-.8.5-1.7.7-2.8.7-2.3 0-3.9-.9-3.9-3.9z"/><path fill="#e6e6e6" d="m333.2 154.7h3.2v15h9.4v2.9h-12.5v-17.9z"/><path fill="#e6e6e6" d="m356 172.5v-1.7c-.9 1.1-2.3 2-4.4 2-2.6 0-4.8-1.4-4.8-4.2 0-3 2.3-4.4 5.4-4.4 1.7 0 2.6.2 3.7.5v-.2c0-1.9-1.2-2.9-3.3-2.9-1.5 0-2.6.3-3.9.8l-.8-2.5c1.5-.7 2.9-1.1 5.1-1.1 4 0 5.9 2.1 5.9 5.7v8zm.1-5.6c-.8-.3-1.9-.5-3.1-.5-2 0-3.1.8-3.1 2.1s1.1 2 2.6 2c2 0 3.5-1.1 3.5-2.9z"/><path fill="#e6e6e6" d="m364.9 170.5v2.1h-3.1v-18.7h3.1v7.4c1-1.4 2.4-2.5 4.5-2.5 3.2 0 6.3 2.5 6.3 7s-3.1 7-6.3 7c-2.1 0-3.5-1.1-4.5-2.3zm7.7-4.7c0-2.6-1.7-4.3-3.9-4.3s-3.9 1.7-3.9 4.4c0 2.6 1.8 4.3 3.9 4.3s3.9-1.7 3.9-4.4z"/><path fill="#e6e6e6" d="m376.9 170.8 1.4-2.1c1.4 1.1 3 1.7 4.4 1.7s2.1-.5 2.1-1.5-1.3-1.4-2.8-1.8c-.1 0-.2-.1-.2-.1-2-.6-4.2-1.4-4.2-4s2.1-4.1 4.8-4.1c1.7 0 3.5.6 5 1.5l-1.2 2.2c-1.3-.8-2.6-1.3-3.8-1.3s-1.9.5-1.9 1.4 1.3 1.4 2.8 1.8c.1 0 .2.1.2.1 2 .6 4.2 1.5 4.2 4 0 2.9-2.2 4.2-5 4.2-1.9 0-4-.7-5.8-2z"/><path fill="#e6e6e6" d="m505.6 163.6c0-5.1 4.1-9.2 9.3-9.2s9.2 4.2 9.2 9.2-4.1 9.2-9.3 9.2-9.2-4.1-9.2-9.2zm17.4-.1c0-4.5-3.5-8.2-8.2-8.2s-8.2 3.7-8.2 8.3c0 4.5 3.5 8.2 8.2 8.2s8.2-3.7 8.2-8.3zm-13.1 0c0-2.8 2.1-5.1 5.1-5.1 1.9 0 2.9.6 3.9 1.5l-1.4 1.7c-.8-.7-1.5-1.1-2.5-1.1-1.7 0-2.8 1.4-2.8 3.1s1.1 3 2.8 3c1.1 0 1.7-.5 2.5-1.1l1.4 1.4c-1.1 1.1-2.1 1.7-4 1.7-2.9 0-5-2.3-5-5.1z"/><path fill="#e6e6e6" d="m525.4 154.7h3.4l4.2 13.2 4.4-13.3h2.6l4.4 13.3 4.2-13.2h3.3l-6.2 18h-2.7l-4.4-12.8-4.4 12.8h-2.7z"/><path fill="#e6e6e6" d="m551.7 165.8c0-3.9 3.1-7 7.2-7 4.2 0 7.2 3.2 7.2 7s-3.1 7-7.3 7c-4.1 0-7.1-3.1-7.1-7zm11.2 0c0-2.3-1.7-4.3-4.2-4.3s-4.1 2-4.1 4.3 1.7 4.3 4.1 4.3c2.7.1 4.2-1.9 4.2-4.3z"/><path fill="#e6e6e6" d="m568.3 159.1h3.1v3c.8-2 2.4-3.4 4.8-3.3v3.2h-.2c-2.7 0-4.6 1.7-4.6 5.4v5.1h-3.1z"/><path fill="#e6e6e6" d="m577.9 153.9h3.1v11.1l5.6-6h3.8l-5.4 5.5 5.5 8h-3.5l-4.1-5.8-1.9 2v3.9h-3.1z"/><path fill="#e6e6e6" d="m590.6 165.8c0-3.9 3.1-7 7.2-7 4.2 0 7.2 3.2 7.2 7s-3.1 7-7.3 7c-4.1 0-7.1-3.1-7.1-7zm11.2 0c0-2.3-1.7-4.3-4.2-4.3s-4.1 2-4.1 4.3 1.7 4.3 4.1 4.3c2.6.1 4.2-1.9 4.2-4.3z"/><path fill="#e6e6e6" d="m607 167.6v-8.6h3.1v7.6c0 2.1 1.1 3.3 2.9 3.3s3-1.3 3-3.3v-7.6h3.1v13.4h-3.1v-2.1c-.8 1.3-2.1 2.3-4.2 2.3-3 .2-4.8-1.8-4.8-5z"/><path fill="#e6e6e6" d="m622.7 168.8v-7.1h-1.7v-2.6h1.7v-3.7h3.1v3.7h3.6v2.6h-3.6v6.6c0 1.2.6 1.7 1.7 1.7.7 0 1.3-.2 1.9-.5v2.5c-.8.5-1.7.7-2.8.7-2.3 0-3.9-.9-3.9-3.9z"/><path fill="#e6e6e6" d="m632 154.7h3.2v15h9.4v2.9h-12.6z"/><path fill="#e6e6e6" d="m654.8 172.5v-1.7c-.9 1.1-2.3 2-4.4 2-2.6 0-4.8-1.4-4.8-4.2 0-3 2.3-4.4 5.4-4.4 1.7 0 2.6.2 3.7.5v-.2c0-1.9-1.2-2.9-3.3-2.9-1.5 0-2.6.3-3.9.8l-.8-2.5c1.5-.7 2.9-1.1 5.1-1.1 4 0 5.9 2.1 5.9 5.7v8zm.1-5.6c-.8-.3-1.9-.5-3.1-.5-2 0-3.1.8-3.1 2.1s1.1 2 2.6 2c2 0 3.5-1.1 3.5-2.9z"/><path fill="#e6e6e6" d="m663.7 170.5v2.1h-3.1v-18.7h3.1v7.4c1-1.4 2.4-2.5 4.5-2.5 3.2 0 6.3 2.5 6.3 7s-3.1 7-6.3 7c-2.1 0-3.5-1.1-4.5-2.3zm7.8-4.7c0-2.6-1.7-4.3-3.9-4.3-2.1 0-3.9 1.7-3.9 4.4 0 2.6 1.8 4.3 3.9 4.3s3.9-1.7 3.9-4.4z"/><path fill="#e6e6e6" d="m675.8 170.8 1.4-2.1c1.4 1.1 3 1.7 4.4 1.7s2.1-.5 2.1-1.5-1.3-1.4-2.8-1.8c-.1 0-.2-.1-.2-.1-2-.6-4.2-1.4-4.2-4s2.1-4.1 4.8-4.1c1.7 0 3.5.6 5 1.5l-1.2 2.2c-1.3-.8-2.6-1.3-3.8-1.3s-1.9.5-1.9 1.4 1.3 1.4 2.8 1.8c.1 0 .2.1.2.1 2 .6 4.2 1.5 4.2 4 0 2.9-2.2 4.2-5 4.2-2 0-4.1-.7-5.8-2z"/><path fill="#e6e6e6" d="m61 298.6c0-5.1 4.1-9.2 9.3-9.2s9.2 4.2 9.2 9.2-4.1 9.2-9.3 9.2c-5.1 0-9.2-4.2-9.2-9.2zm17.4-.1c0-4.5-3.5-8.2-8.2-8.2s-8.2 3.7-8.2 8.3c0 4.5 3.5 8.2 8.2 8.2s8.2-3.7 8.2-8.3zm-13.1-.1c0-2.8 2.1-5.1 5.1-5.1 1.9 0 2.9.6 3.9 1.5l-1.4 1.7c-.8-.7-1.5-1.1-2.5-1.1-1.7 0-2.8 1.4-2.8 3.1s1.1 3 2.8 3c1.1 0 1.7-.5 2.5-1.1l1.4 1.4c-1.1 1.1-2.1 1.7-4 1.7-2.8.1-5-2.2-5-5.1z"/><path fill="#e6e6e6" d="m80.9 289.7h3.4l4.2 13.2 4.4-13.3h2.6l4.4 13.3 4.2-13.2h3.3l-6.2 18h-2.7l-4.4-12.8-4.4 12.8h-2.7z"/><path fill="#e6e6e6" d="m107.1 300.8c0-3.9 3.1-7 7.2-7s7.2 3.2 7.2 7-3.1 7-7.3 7c-4 0-7.1-3.1-7.1-7zm11.3 0c0-2.3-1.7-4.3-4.2-4.3s-4.1 2-4.1 4.3 1.7 4.3 4.1 4.3c2.6.1 4.2-1.9 4.2-4.3z"/><path fill="#e6e6e6" d="m123.7 294h3.1v3c.8-2 2.4-3.4 4.8-3.3v3.2h-.2c-2.7 0-4.6 1.7-4.6 5.4v5.1h-3.1z"/><path fill="#e6e6e6" d="m133.4 288.9h3.1v11.1l5.6-6h3.8l-5.4 5.5 5.5 8h-3.5l-4.1-5.8-1.9 1.9v3.9h-3.1z"/><path fill="#e6e6e6" d="m146 300.8c0-3.9 3.1-7 7.2-7s7.2 3.2 7.2 7-3.1 7-7.3 7c-4.1 0-7.1-3.1-7.1-7zm11.2 0c0-2.3-1.7-4.3-4.2-4.3s-4.1 2-4.1 4.3 1.7 4.3 4.1 4.3c2.6.1 4.2-1.9 4.2-4.3z"/><path fill="#e6e6e6" d="m162.4 302.6v-8.6h3.1v7.6c0 2.1 1.1 3.3 2.9 3.3s3-1.3 3-3.3v-7.6h3.1v13.4h-3.1v-2.1c-.8 1.3-2.1 2.3-4.2 2.3-3 .2-4.8-1.8-4.8-5z"/><path fill="#e6e6e6" d="m178.1 303.8v-7.1h-1.7v-2.7h1.7v-3.7h3.1v3.7h3.6v2.6h-3.6v6.6c0 1.2.6 1.7 1.7 1.7.7 0 1.3-.2 1.9-.5v2.5c-.8.5-1.7.7-2.8.7-2.3.1-3.9-.9-3.9-3.8z"/><path fill="#e6e6e6" d="m187.4 289.7h3.2v15h9.4v2.9h-12.5v-17.9z"/><path fill="#e6e6e6" d="m210.2 307.5v-1.7c-.9 1.1-2.3 2-4.4 2-2.6 0-4.8-1.4-4.8-4.2 0-3 2.3-4.4 5.4-4.4 1.7 0 2.6.2 3.7.5v-.2c0-1.9-1.2-2.9-3.3-2.9-1.5 0-2.6.3-3.9.8l-.8-2.5c1.5-.7 2.9-1.1 5.1-1.1 4 0 5.9 2.1 5.9 5.7v8zm.1-5.6c-.8-.3-1.9-.5-3.1-.5-2 0-3.1.8-3.1 2.1s1.1 2 2.6 2c2 0 3.5-1.1 3.5-2.9z"/><path fill="#e6e6e6" d="m219.2 305.5v2.1h-3.1v-18.7h3.1v7.4c1-1.4 2.4-2.5 4.5-2.5 3.2 0 6.3 2.5 6.3 7s-3.1 7-6.3 7c-2.2 0-3.6-1.1-4.5-2.3zm7.7-4.7c0-2.6-1.7-4.3-3.9-4.3s-3.9 1.7-3.9 4.4c0 2.6 1.8 4.3 3.9 4.3s3.9-1.7 3.9-4.4z"/><path fill="#e6e6e6" d="m231.2 305.8 1.4-2.1c1.4 1.1 3 1.7 4.4 1.7s2.1-.5 2.1-1.5-1.3-1.4-2.8-1.8c-.1 0-.2-.1-.2-.1-2-.6-4.2-1.4-4.2-4s2.1-4.1 4.8-4.1c1.7 0 3.5.6 5 1.5l-1.2 2.2c-1.3-.8-2.6-1.3-3.8-1.3s-1.9.5-1.9 1.4 1.3 1.4 2.8 1.8c.1 0 .2.1.2.1 2 .6 4.2 1.5 4.2 4 0 2.9-2.2 4.2-5 4.2-2 0-4.1-.7-5.8-2z"/><path fill="#e6e6e6" d="m360.6 298.6c0-5.1 4.1-9.2 9.3-9.2s9.2 4.2 9.2 9.2-4.1 9.2-9.3 9.2-9.2-4.2-9.2-9.2zm17.4-.1c0-4.5-3.5-8.2-8.2-8.2s-8.2 3.7-8.2 8.3c0 4.5 3.5 8.2 8.2 8.2s8.2-3.7 8.2-8.3zm-13.1-.1c0-2.8 2.1-5.1 5.1-5.1 1.9 0 2.9.6 3.9 1.5l-1.4 1.7c-.8-.7-1.5-1.1-2.5-1.1-1.7 0-2.8 1.4-2.8 3.1s1.1 3 2.8 3c1.1 0 1.7-.5 2.5-1.1l1.4 1.4c-1.1 1.1-2.1 1.7-4 1.7-2.8.1-5-2.2-5-5.1z"/><path fill="#e6e6e6" d="m380.5 289.7h3.4l4.2 13.2 4.4-13.3h2.6l4.4 13.3 4.2-13.2h3.3l-6.2 18h-2.7l-4.4-12.8-4.4 12.8h-2.7z"/><path fill="#e6e6e6" d="m406.7 300.8c0-3.9 3.1-7 7.2-7 4.2 0 7.2 3.2 7.2 7s-3.1 7-7.3 7c-4.1 0-7.1-3.1-7.1-7zm11.3 0c0-2.3-1.7-4.3-4.2-4.3s-4.1 2-4.1 4.3 1.7 4.3 4.1 4.3c2.7.1 4.2-1.9 4.2-4.3z"/><path fill="#e6e6e6" d="m423.3 294h3.1v3c.8-2 2.4-3.4 4.8-3.3v3.2h-.2c-2.7 0-4.6 1.7-4.6 5.4v5.1h-3.1z"/><path fill="#e6e6e6" d="m433 288.9h3.1v11.1l5.6-6h3.8l-5.4 5.5 5.5 8h-3.5l-4.1-5.8-1.9 2v3.9h-3.1z"/><path fill="#e6e6e6" d="m445.6 300.8c0-3.9 3.1-7 7.2-7 4.2 0 7.2 3.2 7.2 7s-3.1 7-7.3 7c-4.1 0-7.1-3.1-7.1-7zm11.3 0c0-2.3-1.7-4.3-4.2-4.3s-4.1 2-4.1 4.3 1.7 4.3 4.1 4.3c2.6.1 4.2-1.9 4.2-4.3z"/><path fill="#e6e6e6" d="m462.1 302.6v-8.6h3.1v7.6c0 2.1 1.1 3.3 2.9 3.3s3-1.3 3-3.3v-7.6h3.1v13.4h-3.1v-2.1c-.8 1.3-2.1 2.3-4.2 2.3-3.1.2-4.8-1.8-4.8-5z"/><path fill="#e6e6e6" d="m477.8 303.8v-7.1h-1.8v-2.7h1.7v-3.7h3.1v3.7h3.6v2.6h-3.6v6.6c0 1.2.6 1.7 1.7 1.7.7 0 1.3-.2 1.9-.5v2.5c-.8.5-1.7.7-2.8.7-2.2.1-3.8-.9-3.8-3.8z"/><path fill="#e6e6e6" d="m487.1 289.7h3.2v15h9.4v2.9h-12.5v-17.9z"/><path fill="#e6e6e6" d="m509.9 307.5v-1.7c-.9 1.1-2.3 2-4.4 2-2.6 0-4.8-1.4-4.8-4.2 0-3 2.3-4.4 5.4-4.4 1.7 0 2.6.2 3.7.5v-.2c0-1.9-1.2-2.9-3.3-2.9-1.5 0-2.6.3-3.9.8l-.8-2.5c1.5-.7 2.9-1.1 5.1-1.1 4 0 5.9 2.1 5.9 5.7v8zm.1-5.6c-.8-.3-1.9-.5-3.1-.5-2 0-3.1.8-3.1 2.1s1.1 2 2.6 2c2 0 3.5-1.1 3.5-2.9z"/><path fill="#e6e6e6" d="m518.8 305.5v2.1h-3.1v-18.7h3.1v7.4c1-1.4 2.4-2.5 4.5-2.5 3.2 0 6.3 2.5 6.3 7s-3.1 7-6.3 7c-2.2 0-3.5-1.1-4.5-2.3zm7.7-4.7c0-2.6-1.7-4.3-3.9-4.3s-3.9 1.7-3.9 4.4c0 2.6 1.8 4.3 3.9 4.3s3.9-1.7 3.9-4.4z"/><path fill="#e6e6e6" d="m530.8 305.8 1.4-2.1c1.4 1.1 3 1.7 4.4 1.7s2.1-.5 2.1-1.5-1.3-1.4-2.8-1.8c-.1 0-.2-.1-.2-.1-2-.6-4.2-1.4-4.2-4s2.1-4.1 4.8-4.1c1.7 0 3.5.6 5 1.5l-1.2 2.2c-1.3-.8-2.6-1.3-3.8-1.3s-1.9.5-1.9 1.4 1.3 1.4 2.8 1.8c.1 0 .2.1.2.1 2 .6 4.2 1.5 4.2 4 0 2.9-2.2 4.2-5 4.2-1.9 0-4.1-.7-5.8-2z"/><path fill="#e6e6e6" d="m659.5 298.6c0-5.1 4.1-9.2 9.3-9.2s9.2 4.2 9.2 9.2-4.1 9.2-9.3 9.2-9.2-4.2-9.2-9.2zm17.3-.1c0-4.5-3.5-8.2-8.2-8.2s-8.2 3.7-8.2 8.3c0 4.5 3.5 8.2 8.2 8.2 4.8 0 8.2-3.7 8.2-8.3zm-13-.1c0-2.8 2.1-5.1 5.1-5.1 1.9 0 2.9.6 3.9 1.5l-1.4 1.7c-.8-.7-1.5-1.1-2.5-1.1-1.7 0-2.8 1.4-2.8 3.1s1.1 3 2.8 3c1.1 0 1.7-.5 2.5-1.1l1.4 1.4c-1.1 1.1-2.1 1.7-4 1.7-2.9.1-5-2.2-5-5.1z"/><path fill="#e6e6e6" d="m679.3 289.7h3.4l4.2 13.2 4.4-13.3h2.6l4.4 13.3 4.2-13.2h3.3l-6.2 18h-2.6l-4.4-12.8-4.4 12.8h-2.7z"/><path fill="#e6e6e6" d="m705.5 300.8c0-3.9 3.1-7 7.2-7 4.2 0 7.2 3.2 7.2 7s-3.1 7-7.3 7c-4 0-7.1-3.1-7.1-7zm11.3 0c0-2.3-1.7-4.3-4.2-4.3s-4.1 2-4.1 4.3 1.7 4.3 4.1 4.3c2.7.1 4.2-1.9 4.2-4.3z"/><path fill="#e6e6e6" d="m722.1 294h3.1v3c.8-2 2.4-3.4 4.8-3.3v3.2h-.2c-2.7 0-4.6 1.7-4.6 5.4v5.1h-3.1z"/><path fill="#e6e6e6" d="m731.8 288.9h3.1v11.1l5.6-6h3.8l-5.4 5.5 5.5 8h-3.5l-4.1-5.8-1.9 2v3.9h-3.1z"/><path fill="#e6e6e6" d="m744.4 300.8c0-3.9 3.1-7 7.2-7 4.2 0 7.2 3.2 7.2 7s-3.1 7-7.3 7c-4.1 0-7.1-3.1-7.1-7zm11.3 0c0-2.3-1.7-4.3-4.2-4.3s-4.1 2-4.1 4.3 1.7 4.3 4.1 4.3c2.6.1 4.2-1.9 4.2-4.3z"/><path fill="#e6e6e6" d="m760.9 302.6v-8.6h3.1v7.6c0 2.1 1.1 3.3 2.9 3.3s3-1.3 3-3.3v-7.6h3.1v13.4h-3.1v-2.1c-.8 1.3-2.1 2.3-4.2 2.3-3.1.2-4.8-1.8-4.8-5z"/><path fill="#e6e6e6" d="m776.6 303.8v-7.1h-1.7v-2.7h1.7v-3.7h3.1v3.7h3.6v2.6h-3.6v6.6c0 1.2.6 1.7 1.7 1.7.7 0 1.3-.2 1.9-.5v2.5c-.8.5-1.7.7-2.8.7-2.3.1-3.9-.9-3.9-3.8z"/><path fill="#e6e6e6" d="m785.9 289.7h3.2v15h9.4v2.9h-12.5v-17.9z"/><path fill="#e6e6e6" d="m808.7 307.5v-1.7c-.9 1.1-2.3 2-4.4 2-2.6 0-4.8-1.4-4.8-4.2 0-3 2.3-4.4 5.4-4.4 1.7 0 2.6.2 3.7.5v-.2c0-1.9-1.2-2.9-3.3-2.9-1.5 0-2.6.3-3.9.8l-.8-2.5c1.5-.7 2.9-1.1 5.1-1.1 4 0 5.9 2.1 5.9 5.7v8zm.1-5.6c-.8-.3-1.9-.5-3.1-.5-2 0-3.1.8-3.1 2.1s1.1 2 2.6 2c2 0 3.5-1.1 3.5-2.9z"/><path fill="#e6e6e6" d="m817.6 305.5v2.1h-3.1v-18.7h3.1v7.4c1-1.4 2.4-2.5 4.5-2.5 3.2 0 6.3 2.5 6.3 7s-3.1 7-6.3 7c-2.1 0-3.5-1.1-4.5-2.3zm7.7-4.7c0-2.6-1.7-4.3-3.9-4.3-2.1 0-3.9 1.7-3.9 4.4 0 2.6 1.8 4.3 3.9 4.3 2.2 0 3.9-1.7 3.9-4.4z"/><path fill="#e6e6e6" d="m829.6 305.8 1.4-2.1c1.4 1.1 3 1.7 4.4 1.7s2.1-.5 2.1-1.5-1.3-1.4-2.8-1.8c-.1 0-.2-.1-.2-.1-2-.6-4.2-1.4-4.2-4s2.1-4.1 4.8-4.1c1.7 0 3.5.6 5 1.5l-1.2 2.2c-1.3-.8-2.6-1.3-3.8-1.3s-1.9.5-1.9 1.4 1.3 1.4 2.8 1.8c.1 0 .2.1.2.1 2 .6 4.2 1.5 4.2 4 0 2.9-2.2 4.2-5 4.2-1.9 0-4-.7-5.8-2z"/><path fill="#e6e6e6" d="m206.3 434.2c0-5.1 4.1-9.2 9.3-9.2s9.2 4.2 9.2 9.2-4.1 9.2-9.3 9.2-9.2-4.1-9.2-9.2zm17.4-.1c0-4.5-3.5-8.2-8.2-8.2s-8.2 3.7-8.2 8.3c0 4.5 3.5 8.2 8.2 8.2s8.2-3.7 8.2-8.3zm-13.1-.1c0-2.8 2.1-5.1 5.1-5.1 1.9 0 2.9.6 3.9 1.5l-1.4 1.7c-.8-.7-1.5-1.1-2.5-1.1-1.7 0-2.8 1.4-2.8 3.1s1.1 3 2.8 3c1.1 0 1.7-.5 2.5-1.1l1.4 1.4c-1.1 1.1-2.1 1.7-4 1.7-2.9.1-5-2.2-5-5.1z"/><path fill="#e6e6e6" d="m226.1 425.3h3.4l4.2 13.2 4.4-13.3h2.6l4.4 13.3 4.2-13.2h3.3l-6.2 18h-2.7l-4.4-12.8-4.4 12.8h-2.7z"/><path fill="#e6e6e6" d="m252.4 436.4c0-3.9 3.1-7 7.2-7 4.2 0 7.2 3.2 7.2 7s-3.1 7-7.3 7c-4.1 0-7.1-3.1-7.1-7zm11.2 0c0-2.3-1.7-4.3-4.2-4.3s-4.1 2-4.1 4.3 1.7 4.3 4.1 4.3c2.7.1 4.2-1.9 4.2-4.3z"/><path fill="#e6e6e6" d="m269 429.7h3.1v3c.8-2 2.4-3.4 4.8-3.3v3.2h-.2c-2.7 0-4.6 1.7-4.6 5.4v5.1h-3.1z"/><path fill="#e6e6e6" d="m278.6 424.5h3.1v11.1l5.6-6h3.8l-5.4 5.5 5.5 8h-3.5l-4.1-5.8-1.9 2v3.9h-3.1z"/><path fill="#e6e6e6" d="m291.3 436.4c0-3.9 3.1-7 7.2-7 4.2 0 7.2 3.2 7.2 7s-3.1 7-7.3 7c-4.1 0-7.1-3.1-7.1-7zm11.2 0c0-2.3-1.7-4.3-4.2-4.3s-4.1 2-4.1 4.3 1.7 4.3 4.1 4.3c2.6.1 4.2-1.9 4.2-4.3z"/><path fill="#e6e6e6" d="m307.7 438.2v-8.6h3.1v7.6c0 2.1 1.1 3.3 2.9 3.3s3-1.3 3-3.3v-7.6h3.1v13.4h-3.1v-2.1c-.8 1.3-2.1 2.3-4.2 2.3-3 .2-4.8-1.8-4.8-5z"/><path fill="#e6e6e6" d="m323.4 439.4v-7.1h-1.7v-2.6h1.7v-3.7h3.1v3.7h3.6v2.6h-3.6v6.6c0 1.2.6 1.7 1.7 1.7.7 0 1.3-.2 1.9-.5v2.5c-.8.5-1.7.7-2.8.7-2.3 0-3.9-.9-3.9-3.9z"/><path fill="#e6e6e6" d="m332.7 425.3h3.2v15h9.4v2.9h-12.5v-17.9z"/><path fill="#e6e6e6" d="m355.5 443.1v-1.7c-.9 1.1-2.3 2-4.4 2-2.6 0-4.8-1.4-4.8-4.2 0-3 2.3-4.4 5.4-4.4 1.7 0 2.6.2 3.7.5v-.2c0-1.9-1.2-2.9-3.3-2.9-1.5 0-2.6.3-3.9.8l-.8-2.5c1.5-.7 2.9-1.1 5.1-1.1 4 0 5.9 2.1 5.9 5.7v8zm.1-5.6c-.8-.3-1.9-.5-3.1-.5-2 0-3.1.8-3.1 2.1s1.1 2 2.6 2c2 0 3.5-1.1 3.5-2.9z"/><path fill="#e6e6e6" d="m364.4 441.1v2.1h-3.1v-18.7h3.1v7.4c1-1.4 2.4-2.5 4.5-2.5 3.2 0 6.3 2.5 6.3 7s-3.1 7-6.3 7c-2.1 0-3.5-1.1-4.5-2.3zm7.7-4.7c0-2.6-1.7-4.3-3.9-4.3-2.1 0-3.9 1.7-3.9 4.4 0 2.6 1.8 4.3 3.9 4.3 2.2 0 3.9-1.7 3.9-4.4z"/><path fill="#e6e6e6" d="m376.5 441.4 1.4-2.1c1.4 1.1 3 1.7 4.4 1.7s2.1-.5 2.1-1.5-1.3-1.4-2.8-1.8c-.1 0-.2-.1-.2-.1-2-.6-4.2-1.4-4.2-4s2.1-4.1 4.8-4.1c1.7 0 3.5.6 5 1.5l-1.2 2.2c-1.3-.8-2.6-1.3-3.8-1.3s-1.9.5-1.9 1.4 1.3 1.4 2.8 1.8c.1 0 .2.1.2.1 2 .6 4.2 1.5 4.2 4 0 2.9-2.2 4.2-5 4.2-2 0-4.1-.7-5.8-2z"/><path fill="#e6e6e6" d="m505.1 434.2c0-5.1 4.1-9.2 9.3-9.2s9.2 4.2 9.2 9.2-4.1 9.2-9.3 9.2-9.2-4.1-9.2-9.2zm17.4-.1c0-4.5-3.5-8.2-8.2-8.2s-8.2 3.7-8.2 8.3c0 4.5 3.5 8.2 8.2 8.2s8.2-3.7 8.2-8.3zm-13.1-.1c0-2.8 2.1-5.1 5.1-5.1 1.9 0 2.9.6 3.9 1.5l-1.4 1.7c-.8-.7-1.5-1.1-2.5-1.1-1.7 0-2.8 1.4-2.8 3.1s1.1 3 2.8 3c1.1 0 1.7-.5 2.5-1.1l1.4 1.4c-1.1 1.1-2.1 1.7-4 1.7-2.9.1-5-2.2-5-5.1z"/><path fill="#e6e6e6" d="m525 425.3h3.4l4.2 13.2 4.4-13.3h2.6l4.4 13.3 4.2-13.2h3.3l-6.2 18h-2.7l-4.4-12.8-4.4 12.8h-2.7z"/><path fill="#e6e6e6" d="m551.2 436.4c0-3.9 3.1-7 7.2-7 4.2 0 7.2 3.2 7.2 7s-3.1 7-7.3 7c-4.1 0-7.1-3.1-7.1-7zm11.2 0c0-2.3-1.7-4.3-4.2-4.3s-4.1 2-4.1 4.3 1.7 4.3 4.1 4.3c2.7.1 4.2-1.9 4.2-4.3z"/><path fill="#e6e6e6" d="m567.8 429.7h3.1v3c.8-2 2.4-3.4 4.8-3.3v3.2h-.2c-2.7 0-4.6 1.7-4.6 5.4v5.1h-3.1z"/><path fill="#e6e6e6" d="m577.5 424.5h3.1v11.1l5.6-6h3.8l-5.4 5.5 5.5 8h-3.5l-4.1-5.8-1.9 2v3.9h-3.1z"/><path fill="#e6e6e6" d="m590.1 436.4c0-3.9 3.1-7 7.2-7 4.2 0 7.2 3.2 7.2 7s-3.1 7-7.3 7c-4.1 0-7.1-3.1-7.1-7zm11.2 0c0-2.3-1.7-4.3-4.2-4.3s-4.1 2-4.1 4.3 1.7 4.3 4.1 4.3c2.6.1 4.2-1.9 4.2-4.3z"/><path fill="#e6e6e6" d="m606.5 438.2v-8.6h3.1v7.6c0 2.1 1.1 3.3 2.9 3.3s3-1.3 3-3.3v-7.6h3.1v13.4h-3.1v-2.1c-.8 1.3-2.1 2.3-4.2 2.3-3 .2-4.8-1.8-4.8-5z"/><path fill="#e6e6e6" d="m622.2 439.4v-7.1h-1.7v-2.6h1.7v-3.7h3.1v3.7h3.6v2.6h-3.6v6.6c0 1.2.6 1.7 1.7 1.7.7 0 1.3-.2 1.9-.5v2.5c-.8.5-1.7.7-2.8.7-2.3 0-3.9-.9-3.9-3.9z"/><path fill="#e6e6e6" d="m631.5 425.3h3.2v15h9.4v2.9h-12.5v-17.9z"/><path fill="#e6e6e6" d="m654.3 443.1v-1.7c-.9 1.1-2.3 2-4.4 2-2.6 0-4.8-1.4-4.8-4.2 0-3 2.3-4.4 5.4-4.4 1.7 0 2.6.2 3.7.5v-.2c0-1.9-1.2-2.9-3.3-2.9-1.5 0-2.6.3-3.9.8l-.8-2.5c1.5-.7 2.9-1.1 5.1-1.1 4 0 5.9 2.1 5.9 5.7v8zm.1-5.6c-.8-.3-1.9-.5-3.1-.5-2 0-3.1.8-3.1 2.1s1.1 2 2.6 2c2 0 3.5-1.1 3.5-2.9z"/><path fill="#e6e6e6" d="m663.3 441.1v2.1h-3.1v-18.7h3.1v7.4c1-1.4 2.4-2.5 4.5-2.5 3.2 0 6.3 2.5 6.3 7s-3.1 7-6.3 7c-2.2 0-3.6-1.1-4.5-2.3zm7.7-4.7c0-2.6-1.7-4.3-3.9-4.3s-3.9 1.7-3.9 4.4c0 2.6 1.8 4.3 3.9 4.3s3.9-1.7 3.9-4.4z"/><path fill="#e6e6e6" d="m675.3 441.4 1.4-2.1c1.4 1.1 3 1.7 4.4 1.7s2.1-.5 2.1-1.5-1.3-1.4-2.8-1.8c-.1 0-.2-.1-.2-.1-2-.6-4.2-1.4-4.2-4s2.1-4.1 4.8-4.1c1.7 0 3.5.6 5 1.5l-1.2 2.2c-1.3-.8-2.6-1.3-3.8-1.3s-1.9.5-1.9 1.4 1.3 1.4 2.8 1.8c.1 0 .2.1.2.1 2 .6 4.2 1.5 4.2 4 0 2.9-2.2 4.2-5 4.2-2 0-4.1-.7-5.8-2z"/></g>
</svg>
