<?xml version="1.0" encoding="utf-8"?>
<!-- Generator: Adobe Illustrator 23.0.1, SVG Export Plug-In . SVG Version: 6.00 Build 0)  -->
<svg version="1.2" baseProfile="tiny" id="Layer_1" xmlns="http://www.w3.org/2000/svg" xmlns:xlink="http://www.w3.org/1999/xlink"
	 x="0px" y="0px" viewBox="0 0 900 600" xml:space="preserve">
<g>
	<path d="M312.53,328.91C311.9,333.96,313.63,331.93,312.53,328.91L312.53,328.91z"/>
	<path d="M419.14,170.25c3.26,14.35,14.4,20.36,17,52.75c0.08,1.02-0.71,1.22-1.12,1.73c0.41,2.85,1.43,5.6,0.31,8.35
		c-5.5,2.75-8.24,4.36-13.75,3.36c-5.9-1.07-5.68,2.26-21.69-1.53c-20.84-4.92-20.25-9.27-25.05-9.27c-2.81,0,0.57-6.66-2.85-9.47
		c12.29-23.8,6.02-20.46,5.7-18.63c-0.6,3.45-2.94,6.11-3.77,9.47c-0.2,0.82-0.51,1.63-1.43,1.93c-1.8,0.36-7.75,14.47-10.69,15.27
		c-2.14-2.14-4.32-4.31-5.91-7.23c-3.96-7.27-10.23-11.55-11.61-23.83c-0.7-6.21,0-12.63-1.63-19.55c4.38,2.44,8.76,3.26,12.02,6.52
		c11.92,0,14.83-2.41,20.57,0.92c5.02,2.91,8.45,7.13,10.49,12.63c12.38,6.75,5.6-1.12,20.67,13.95c4.5,4.5,1.72,6.92,4.99,7.43
		c-2.58-7.09,1.46-26.29-4.28-42.36c-0.43-1.21-0.31-2.34,0-3.36c0.41-0.81,1.63-0.31,1.63-1.63c-6.92-0.51-9.88-5.7-12.73-11.2
		c1.22-2.55-0.41-5.19,0.2-7.94c2.34-0.51,3.97-2.24,5.19-4.07c1.02,0.41,1.32,1.02,1.43,2.04c-3.93,3.93-1.2,12.97,1.12,9.16
		c-0.41-0.31-0.81-0.51-1.32-0.71c0.11-1.99,0.3-3.79-0.71-5.5c3.54-0.62,0.01,2.17,2.03,6.2c1.12-0.1,2.04-0.51,1.93-1.53
		c0-2.24-0.2-4.48-1.43-6.21c1.22-4.48,0.5-2.73-0.83-4.28c-0.19-0.13-1.55-1.15-3.04-0.61c-1.63,1.02-2.34,3.16-4.48,3.36
		c-0.71-0.81-0.42-1.83-0.51-2.75c-1.95-19.55-3.54-19.87-10.28-19.45c-9.58,0.59-7.6,39.61-4.68,48.88
		c1.67,5.31,9.95,7.82,12.42,0.41c1.15-3.45,1.72-7.31,2.44-12.22c3.36,3.16,5.8,6.42,9.16,8.25c0.15,3.62,3.5,13.88,3.26,18.63
		c-0.79,15.78,1.23,15.6,0.41,18.74c-13.71-17.71-20.84-9.56-21.69-16.39c-0.49-3.96-3.02-5.75-11.4-12.42
		c-3.04-2.42-11.83-1.9-15.38-0.61c-5.43,1.97-6.97-2.91-23.73-8.96c-4.81-1.74-4.93-10.82-4.68-13.34
		c1.81-18.19,1.96-10.45,4.38-10.9c8.31-8.1-1.13-21.15,2.85-25.76c-1.43-2.24-2.01-4.69-2.14-7.23
		c-0.23-4.68-13.18-17.69-18.33-14.26c-2.44-1.12-3.16-4.17-5.6-4.07c-1.63,0.81-0.92,2.14-1.63,3.36
		c-0.81-2.44-1.63-4.68-4.38-5.19c-0.71,2.04,1.43,2.75,1.53,4.48c-2.04-0.92-3.67-2.55-6.01-2.95c-0.31,1.83-1.32,3.05-3.05,3.67
		c1.75,3.85,1.91,2.23-0.41,5.7c-3.52-1.06-4.19,5.12-6.42,12.42c-1.09,3.57-0.92,7.03-0.1,10.59c-8.62,9.4,0.08,11.24-0.81,16.8
		c0.92,1.43,2.44,0.92,3.26,2.04c1.73,6.72,0.71,19.86-2.24,26.37c-6.92,1.63-14.05,3.67-20.47,7.43
		c-4.07-1.63-8.35-1.48-12.52-1.22c-3.51,0.22-10.2,6.48-12.73,8.96c-4.22,4.15-0.37,7.61-8.25,9.06
		c-7.34,1.36-11.4,6.4-15.88,11.91c-1.28-1.79,0.48,0.8,0.31-17.31c-0.05-5.12,0.01-3.64,3.36-20.06c3.36-1.73,5.6-5.29,9.06-7.94
		c1.24,9.32,2.31,20.46,11,15.88c7.11-3.75,5.98-28.25,5.5-36.35c-0.96-16.17-4.01-16.58-8.45-16.8c-7.03-0.36-7.12,6.37-8.76,22.2
		c-3.53-0.28-3.51-4.79-6.93-3.23c-0.29-3.65-3.84,0.84-13.13,0.17c-1.02,0.61-0.51,2.14-1.63,2.44c-2.78-0.4-1.68,0.99-3.26-8.25
		c-0.76-4.47-1.73-12.22-6.11-13.34c-4.69-1.2-7.77,0.4-8.86,5.19c-3.96,17.36-2.02,37.68,0.71,44.8c2.26,5.89,9.2,3.97,11.2,1.83
		c1.63-3.56,1.93-7.43,2.95-11c1.31,0,0.83,2.18,2.95,1.22c-0.51-2.85-0.92-5.91-2.04-8.86c3.16,0.1,6.21-0.31,9.27,0.61
		c0.51-0.31,1.02-0.61,1.43-0.92c1.53,0.81,2.95,2.65,4.99,0.41c-1.12-0.71-2.75-0.1-3.26-1.22c-1.22-4.68,0.92-8.66,1.53-12.63
		c0.99-0.66,2.55-0.1,2.44,0c0.1,0-1.17,0.75-1.22,0.92c-0.45,1.52,0.51,2.44,0.41,3.56c-1.1,1.6-2.94,7.39,0.94,7.83
		c0.73,3.88,6.29-5.49,1-9.36c1.36-4.54,1.88,0.57,6.82,2.14c0.41,2.75-0.92,5.4,0.2,7.94c-2.85,5.5-5.8,10.69-12.83,11.2
		c0.43,1.72,3.42,0.25,1.53,5.6c-5.34,15.09-2.03,34.01-3.36,39.51c-0.1,0.71-0.71,1.43,0,2.24c0.61-0.2,1.03-0.71,1.12-1.32
		c0.49-3.45,2.66-5.79,5.09-7.94c3.67-3.23,4.15-6.61,12.32-9.27c2.45-0.8,4.58-1.93,7.03-3.26c-0.31-2.04,0.93-3.56,2.14-4.99
		c5.24-6.2,8.92-10.72,20.37-8.35c6.39,1.32,8.55-3.06,16.5-4.99c0.51,2.22,0,0.4-0.06,15.24c-2.72-1.6-5.15-2.01-7.68-2.11
		c2.32,1.01,4.45,2.32,7.68,2.14c-0.03,10.63,0.69,14.33-3.4,20.67c-3.57,4.87-3.65,8.66-8.96,14.56
		c-9.67-7.94-15.88-18.02-19.96-29.43c-1.53,0.41-1.52,1.12-1.32,2.04c1.55,7.09,9.62,21.73,10.39,22.91
		c-7.95,5.3-14.69,9.99-25.25,12.73c-11.49,2.98-15.05,3.67-18.74,3.16c-12.15-1.71-9.24,2.82-22.2-3.67
		c-1.02-2.95,0.1-5.8,0.31-8.55c-0.31-0.1-0.61-0.2-1.12-0.41c2-34.01,13.57-38,17.31-55.09c0.37-1.68-0.74-1.6-1.02-1.02
		c-5.46,11.54-18.74,28.84-18.43,59.16c0.11,10.32,2.05,6.62,5.8,9.98c4.24,3.8,6.9,1.47,19.96,2.24
		c19.29,1.14,39.68-10.93,44.29-14.97c0.08,0.1,0.62,11.5,4.07,21.08c3.36,9.32,0.99,3.89,1.93,9.57c1.57,6.3,3.64,7.12,4.17,11.4
		c3.77,29.94,3.73,30.41,2.14,33.81c-1.59,3.4,0.41,5.56-0.41,8.55c-0.41,1.93-0.2,3.56,0.81,4.99c-1.91,2.33-0.5,4.65-2.75,6.72
		c-11.3,10.39-5.26,39.37-9.88,53.87c-1.3,4.09-0.56,9.55-1.93,17.82c-0.81,4.89-2.56,9.57-2.24,14.56
		c0.67,10.42-4.84,18.45-1.22,20.37c3.57-11.6,2.11-14.64,4.61-15.55c2.74-6.09,5.68-12.08,7.4-18.56
		c-2.34-0.81-0.31-3.05-1.53-4.58c0.71,8.25-3.56,14.56-6.92,21.18c-0.88-8.37,1.33-9.89,2.65-22.4c0.43-4.07-0.2-8.35,1.32-12.42
		c1.83-4.89,2.44-10.08,2.44-15.17c0-39.58,3.77-31.38,9.16-41.04c5.28,1.57,5.28,0.17,18.43,2.04c0.61,0.09,1.22,0.41,1.43-0.51
		c-1.02-1.53-2.75-1.12-4.17-1.73c0-1.47-0.29-0.68,1.93-1.43c0.2-0.81-0.61-1.73,0.31-2.65c2.87-1.15,1.13,1.55,2.55,4.17
		c1.53-1.22,0.2-3.05,1.43-4.17c2.34-0.61,4.38,0.61,6.52,1.12c-0.96,3.36-3.05,0.88-5.09,1.83c1.12,1.32,2.34,0.92,3.46,1.02
		c12.26,1.05,5.88-1.86,6.21,7.74c0.96-2.49,2.01-4.98,2.97-7.47c2.51,0.69-0.38,2.61-1.96,9.82c0.81-0.1,1.32-0.2,1.83-0.31
		c0.17,0.32,0.31,0.63,0.42,0.93c0.27-2.17,0.98-5.65,2.53-10.91c6.63-1.42,3.17,1.21,4.58,2.44c1.32-0.71,0.31-2.55,1.53-2.85
		c1.53-0.1,1.73,1.63,2.95,1.53c1.53,0.1,2.34-1.63,3.56-1.53c1.63,0.71,1.53,2.24,2.14,3.26c1.83-0.51,2.34-2.34,3.56-2.85
		c1.43-0.1,0.61,1.43,1.53,1.63c2.05-2.05,1.05,5.35,2.95,9.67c0.41-4.58,0.2-8.66-1.73-12.32c1.9-2.22,2.44,0.41,3.26,0.41
		c1.43-2.65,1.83-2.75,4.89-1.02c1.91-4.3,4.17,2.45,4.17-1.53c3.6-1.89,3.49,4.03,5.19-0.51c1.22,1.53,2.65-0.51,3.97,0.61
		c1.12-2.65-1.83-4.58,0-7.13c-14.59-0.32-9.75,4-23.62,2.85c-3.86-0.32-20.75,1.67-33.7,0c-11.84-1.52-26.34,3.17-21.49-4.79
		c0-3.97-1.01-7.53-0.71-11.3c0.6-7.67-1.19-17.25-2.44-26.68c2.41-1.2,0.56,5.84-8.76-34.21c10-6.1,8.28-8.69,14.36-15.58
		c13.43-30,0.54-46.6,8.76-44.7c0.61,8.45-0.81,16.9,3.05,25.35c2.87,2.15,7.7,14.89,20.16,12.02c2.79-0.64,12.03,2.53,19.45-6.52
		c8.95-10.92,6.91-22.43,4.79-31.36c-0.37-1.55,2.11-0.91,3.16,0.92c0.43,19.1-0.79,26.65,7.03,36.45c2.56,3.22-0.77,0.95,3.36,6.01
		c6.27,7.68,8.37,11.76,16.9,15.78c1.16,0-2.77,10.74-3.16,11.81c-2.1,5.86-0.13,0.19-1.53,12.73c-5.14,5.72-0.58,2.46-0.2,2.55
		c0.46,1.62-1.81,6.78-1.32,20.37c1.02,28.53-5.27,22.47-0.41,34.01c6.25,14.83,2.62,2.28,10.28,35.74
		c10.48,45.76,11.73,48.29,9.78,54.88c-2.59,8.73,0.11,20.17-0.41,22.3c-16.5,6.72-33.3,9.98-51.12,6.82
		c-10.9-34.53,1.69-8.01,6.62-12.52c-2.55-3.67-5.78-6.35-9.47-8.25c-3.63-1.86-3.53-3-7.23-15.78
		c-6.34,12.68-0.32,38.14-6.92,36.45c-7-1.79-16.01,2.03-22.4-0.1c-2.24-0.56-6.34,2.89-20.57-1.63
		c-13.45-4.27-14.34-4.71-15.68-3.36c1.12,1.53,3.16,1.32,4.38,2.85c0.71,3.26,0.33,6.92,0.61,10.49
		c1.33,16.72-12.26,21.1-8.55,48.77c3.68,27.49,10.18,48.13,8.04,54.17c-4.79,2.34-5.7,5.19-2.55,8.35c1.53-1.73,0.1-4.28,1.73-6.11
		c2.34,0.51,4.79,0.1,7.03,0.92c0.41,1.73-1.22,3.26,0,5.29c2.75,0.71,6.11,0.92,7.94,2.55c2.04,0.31,1.83-1.53,3.05-1.32
		c0.94,2.6-0.55,4.63,0.51,6.31c2.12,3.37,2.34,7.43,4.07,11c-1.43,2.44-4.18,2.84-6.21,4.28c-3.8,2.69-7.48,1.35-7.54,3.87
		c-0.19,8.19-5.95,9.31-6.72,10.08c-2.86,2.27-10.22,4.85-8.04,1.22c-3.26-1.43-6.52-3.05-10.59-1.83c2.75,0.2,5.29,0,7.84,2.34
		c-6.6-1.22-20.72,0.51,1.53,2.24c2.34,0.18,4.97,0.68,7.03-0.71c4.14-2.81,9.27-4.68,10.79-10.18c0.41-1.12-0.71-2.14,0-3.16
		c5.09-1.93,11.1-2.44,13.85-8.35c-2.34-3.77-1.79-8.31-4.28-11.91c-0.7-1.01,1.56-5.68-2.55-8.25c0.1-1.02,0.2-1.83,0.31-2.65
		c-3.06-2.75-5.52,0.98-9.16-2.34c-1.66-1.52-5.14-1.01-6.62-2.24c4.24-1.79-3.81-29.08-4.58-32.58c-0.5-2.24,0-4.28-0.41-6.42
		c-3.28-17.16-4.2-35.87,4.48-51.12c4.29-7.53,0.83-21.78,1.43-22.61c4.99,1.22,9.68,3.31,14.76,4.38
		c19.61,4.12,16.06-8.08,12.83,12.32c-0.29,1.84-1.83,3.26-1.22,5.7c9.26-10.42,3.27-15.39,5.7-18.13c8.35-0.61,16.9,1.22,25.25,0
		c1.12-10.28-0.41-20.37,1.73-30.65c1.73,2.14,0.92,4.07,0.81,6.01c2.14,2.04,2.83,4.69,3.16,7.43c0.48,3.98,2.45,7.43,2.85,11.4
		c0.21,2.04,1.02,4.07,2.34,5.8c12.11-1.25,8.74,1.83,16.9,1.83c1.24,3.1-1.23,2.16,4.17,12.83c3.14,6.2,3.02,8.16,1.22,18.74
		c-0.87,5.13,0.31,4.51,0.31,12.83c0,12.8,6.23,16.67,6.31,24.03c0,0.4,2.63,7.42,3.67,9.78c4.33,9.83,2.57,21.05,1.53,33.3
		c-4.29,2.26-0.5,5.83-3.56,10.28c-1.35,2.36-0.76,5.97-3.05,9.57c2.95,5.6,8.76,6.31,13.85,8.15c0.51,1.43-0.3,2.95,0.41,4.28
		c3.11,5.83,11.05,9.98,13.64,9.98c4.07,0.31,8.04-0.71,12.12-0.71c1.43,0,3.16-0.1,4.17-2.14c-8.98,0-15.71,0.49-5.13-2.01
		c-0.65-1.58-7.07,1.31-8.21,1.9c-0.2,0.81,0.41,1.12,0,1.63c-4.48,0.81-7.43-2.56-10.9-4.48c-4.07-2.25-3.26-6.62-4.58-9.98
		c-5.19-0.81-9.37-3.36-13.44-6.42c1.63-3.05,1.55-6.5,3.26-8.96c1.96-2.83,0.31-6.11,1.73-9.16c0.71,1.12,1.02,2.14,2.55,2.24
		c2.14-2.44,6.01-1.63,8.66-3.26c0.41-1.93-1.02-3.36-0.2-5.19c2.24,0.1,4.48-0.92,6.82-0.51c1.53,1.83-0.1,4.48,1.73,6.11
		c2.63-2.22,2.68-6.14-2.95-8.55c-0.4-4.52,1.62-19.26,4.17-27.7c1.54-5.09,1.76-10.38,2.65-15.58c7.5-43.71-8.41-32.55-6.72-69.14
		c1.12-1.53,2.95-1.32,3.77-3.05c0.31-1.93-0.4-3.97-0.71-6.11c-2.3-15.77,3.61-14.42,0.61-29.12c-3.64-17.88-8.35-35.9-12.42-51.93
		c0.1-0.41,1.02-0.71,1.02-1.63c-3.36-9.27-5.29-19.25-10.28-27.49c0.53-11.02,4.19-12.09,2.14-33.6
		c-1.16-12.11,1.45-8.85,2.04-21.69c0.56-12.34,5.03-14.32,6.72-27.29c5.05,1.44,14.82,12.71,39,12.12
		c15.59-0.38,16.14,0.85,18.84-1.12c6.39-4.66,7.27-1.39,7.33-11.3c0.17-29.6-10.86-43.01-18.32-58.85
		C419.9,167.59,418.21,166.18,419.14,170.25z M384.62,175.75c-7.55-4.1-4.36-58.85,1.04-49.05c0.7,1.28-0.63-0.04-0.95,0.38
		c-0.81,0.61-0.24,0.53,0.63,1.77C389.85,135.32,387.65,174.23,384.62,175.75z M393.17,169.64c-1.14,6.68-3.46,6.59-5.51,6.61
		c-0.83,0.01-0.69,0.6,0.2-3.22c7.59-32.33-3.16-48.21,0.18-48.19C397.28,124.89,394.8,160.15,393.17,169.64z M338.08,132.48
		c0.51,1.63,0.41,2.75,0.2,4.07C336.75,134.41,336.79,134.38,338.08,132.48z M336.66,129.12c1.31,1.45-0.89,2.97-0.77,1.24
		C335.91,129.91,336.33,129.57,336.66,129.12z M335.94,141.74c-0.81-0.41-1.12-1.12-1.02-2.34
		C338.75,136.67,338.34,135.97,335.94,141.74z M293.48,138.99c-1.02-1.83-2.95-3.05-2.44-5.4
		C292.16,135.23,294.3,136.35,293.48,138.99z M293.58,129.62c-1.02-0.31-1.43-0.81-1.12-1.83
		C293.5,128.1,293.97,128.61,293.58,129.62z M250.3,134.61c3.99,28.78-3.93,61.47-6.31,23.32c-0.39-6.33-1.12-26.48,3.68-30.65
		c-1.13-0.38-0.7-0.52-1.73,0C245.25,125.82,248.59,122.26,250.3,134.61z M243.09,125.11c4.6-0.04-7.96,15.87,1.42,51.16
		c-4.59,0-5.14-2.89-5.19-3.46c-0.01-0.14-3.74-11.53-2.14-31.69C237.15,141.01,237.66,125.16,243.09,125.11z M212.33,147.44
		c0.4,1.37-0.4,2.41-0.71,3.67C209.13,150.28,209.55,147.64,212.33,147.44z M195.68,130.87c0.76-3.45,1.73-5.84,5.03-6.04
		c3.9-0.24-8.26,17.15,0.93,51.23C191.4,178.07,193.56,140.44,195.68,130.87z M203.98,175.65c-4.94-2.47-6.98-41.85,0.31-50.71
		c3.79,6.89,3.94,13.71,4.48,21.08c-0.3,0-3.73-0.34-4.79-0.41c0,0.1-4,6.53,0.41,12.02c1.07,0.67,2.31,0.02,3.36,0
		C208.55,157.61,208.25,171.23,203.98,175.65z M204.59,156.1c-1.93-2.83-0.81-5.84-0.61-8.76c5.66-1.51,3.26,2.78,4.89,4.48
		c1.38,1.43,3.42-0.79,3.61,1.96C212.69,156.76,208.45,154.4,204.59,156.1z M216.72,154.98c-1.27-1.46-4.31,1.58-1.76-7.33
		c0.62-2.15,0.13-3.29,1.93-3.39C219.43,144.11,214.56,150.38,216.72,154.98z M219.56,155.59c-2.83-1.65-0.96-8.16,0.51-11.1
		c0.92-0.21,1.49,0.09,2.44,0.41C218.26,155.1,222.6,155.59,219.56,155.59z M228.6,149.36c0.75,0.42-1.06,0.75-0.29,5.42
		c-0.1,0.05-1.02,0.5-1.28,0.64C228.32,150.94,226.23,148.04,228.6,149.36z M355.6,310.36c0.62,0.8-0.02,1.22-0.42,1.93
		c-1.12,0.1-2.44-1.43-3.46,0C347.96,310.15,353.83,309.54,355.6,310.36z M330.85,318.61c-0.7-0.7-0.1-2.04,0.71-1.22
		C331.57,318,331.26,318.41,330.85,318.61z M348.27,311.18c-4.07,2.85-9.47,1.73-14.05,4.79c-2.65,0.31-5.91-0.72-9.27-0.31
		c-0.49,0.06-0.97,0.01-1.37-0.36C321.12,313.09,325.24,315.08,348.27,311.18z M321.89,314.44c-1.84,1.65-3.59,1.57-5.8,0.71
		C317.82,314.03,319.65,314.34,321.89,314.44z M307.74,315.66c-0.51,1.43-1.02,1.02-1.73,0.2
		C306.62,315.46,307.23,315.36,307.74,315.66z M289.73,314.32c0.78-0.38,1.48-0.16,2.23-0.08c0.46,1.02,0,1.96-0.08,2.88
		c-0.06,0.45-0.17,0.14-1.44,0.78C289.77,317.07,288.66,314.84,289.73,314.32z M287.78,313.63c0.99,3.96,1.16,3.77,0.18,3.86
		c-1.6,0.15-0.97-2.41-2.21-2.25c-0.78,0.03-0.47,1.13-1.44,1.46C281.83,312.95,283.43,313.08,287.78,313.63z M278.92,312.51
		c2.95,0,2.47,2.59,3.77,4.69c-2.82-0.48-0.96-2.42-3.26-3.56c-1.62,0.43-0.13,3.16-1.41,3.18c-0.77,0.01-1.37-0.27-1.65-1.55
		C277.19,314.44,278.01,313.52,278.92,312.51z M270.69,227.85c-1.3,1.13-2.36,2.13-3.89,2.89c-1.31-6.9-1.29-6.24-1.11-6.15
		C272.33,228,273.32,225.57,270.69,227.85z M315.58,107.12c0.81,0.31,0.61,0.92,0.51,1.83
		C315.07,108.34,315.38,107.73,315.58,107.12z M299.29,110.28c-1,1.16-1.42,0.31-2.14-0.41
		C298.06,109.26,298.78,109.46,299.29,110.28z M295.52,139.09c1.14-14.05,0.95-12.97,1.63-14.05c2.53-4.05,0.54-8.4,3.46-10.59
		c0.62-0.39,0.39-1.04,0.42-1.56c-0.08-2.02,1.32-0.07,2.03-0.07c0.23-0.34,0.31-0.93,0.51-1.73c0.09-0.12,4.94-1.64,8.55,0.71
		c3.89,2.53,2.91-3.27,12.12-0.81c0,0.68-0.3,1.23,0.31,1.63c0.92,0.1,0.61-1.02,1.12-1.22c0.35-0.18,10.43,17.96,7.03,28
		c-5.61,16.57,0.25,7.35-7.03,18.02c-5.98,8.78-10.11,2.57-16.29,4.99c-4.28-1.93-6.72-4.99-7.94-9.37
		C297.86,140.24,295.12,144.02,295.52,139.09z M336.36,188.79c-1.85,9.56-3.03,17.59-15.71,18.73c-3.99,0-1.96,1.19-3.16-4.04
		c-0.29-1.26-1.2,0.46-1.2,1.77c0,0.82,0.08,1.61-0.19,2.27c-7.47,2.14-12.63,0-16.6-5.5c-8.7-12.05-7.03-18.71-7.03-29.22
		c1.02-1.43,2.95-2.04,4.07-3.97c0.1-5.8,2.44-11.81,0.81-18.74c1.59,1.19,1.57,3.23,2.14,4.38c5.7,11.39,6.03,6.45,10.18,9.98
		c4.79-0.56,4.8-0.75,5.2-0.4c0.32,0.28,0.49,0.88,1.11,1.01c1.02-1.43,2.75-0.51,4.38-0.81c3.67-1.83,5.4-5.8,9.06-8.15
		c0.97,4.84,0.49,9.84,4.48,14.16c-0.88,2.87-1.08,8.84-0.91,8.58c2.12-3.08,0.99-10.28,3.09-7.93
		C336.66,171.54,338.06,180.01,336.36,188.79z M267.52,548.74c4.94,2.2,6.7-0.6,6.91,2.67c0.22,3.38-2.3-0.46-7.32-0.02
		C266.41,550.38,267.02,549.76,267.52,548.74z M373.01,548.44c-1.32,0.44-4.62,0.63-6.92,2.33c-2.75-5.49,2.63-2.36,5.91-4.48
		C373.11,546.81,373.01,547.52,373.01,548.44z M379.12,541.41c-11.12,2.97-13.61,6.32-13.03-0.1c2.97-33.31-16.24-47-11.3-74.33
		c0.51-2.85-0.09-6.3,0.8-6.86c0.23-0.14,0.53-0.16,0.47-0.22c-2.07-2.41,1.01-1.77-2.9-9.41c-2.32-4.53-4.05-13.64-3.95-13.67
		c27.3-4.44,16.06-3.83,28.59-7.41c1.82,10.01-2.64,2.77,1.53,20.26c-0.41,0.71-1.52,0.82-1.63,1.73
		c-0.59,4.79-2.67,11.82-2.12,10.89c4.17-7.02,3.81-11.88,4.22-11.07C397.7,487.04,372.55,535.25,379.12,541.41z M369.55,228.7
		c-9.22-4.06-4.9-4.39-3.56-6.62c0.92-0.31,1.63,0.51,2.34-0.1C370.97,220.15,372.87,211.6,369.55,228.7z"/>
	<path d="M239.31,172.81C239.31,172.81,239.31,172.81,239.31,172.81C239.31,172.66,239.3,172.68,239.31,172.81z"/>
	<path d="M403.55,143.56c0.03,0.04,0.06,0.07,0.09,0.1C403.68,143.7,403.66,143.68,403.55,143.56z"/>
	<path d="M395.82,586.11l0.1-0.1C395.71,586.05,395.8,586.05,395.82,586.11z"/>
	<path d="M261.71,411.58l0.1-0.1C261.72,411.51,261.75,411.5,261.71,411.58z"/>
	<path d="M657.21,18.13l0.1,0.1C657.31,18.1,657.37,18.17,657.21,18.13z"/>
	<path d="M565.66,417.69l0.1-0.1C565.67,417.62,565.71,417.61,565.66,417.69z"/>
	<path d="M616.21,336.42C616.12,337.75,616.25,337.79,616.21,336.42L616.21,336.42z"/>
	<path d="M699.42,592.56c-0.65-1.57-6.99,1.19-8.11,1.8c-0.31,0.81,0.31,1.12-0.1,1.63c-4.48,0.81-7.43-2.56-10.9-4.48
		c-4.07-2.25-3.26-6.62-4.58-9.98c-5.19-0.92-9.37-3.46-13.44-6.52c1.63-3.05,1.5-6.54,3.26-8.96c2.01-2.77,0.31-6.01,1.63-8.86
		c1.02,0.71,1.02,2.04,2.85,1.93c1.83-2.75,5.8-1.53,8.35-3.26c0.51-1.93-1.02-3.36-0.1-5.19c2.24,0.1,4.48-0.92,6.82-0.51
		c1.63,1.83-0.1,4.48,1.73,6.11c3.28-4.1,1.71-6.73-2.85-8.55c0-19.52,7.62-30.53,8.66-63.23c0.43-13.63-5.6-21.85-7.74-28.72
		c-2.1-6.73-1.12-13.75-0.81-20.37c1.12-1.53,2.95-1.32,3.77-3.05c0.48-3.06-2.89-11.53-0.2-20.77
		c3.68-12.7-12.38-66.19-12.42-66.29c0.41-0.61,1.22-0.92,1.22-1.73c-3.26-9.37-5.4-19.25-10.49-28c1.12-2.34,0.31-4.99,1.12-7.43
		c4.42-13.36-0.85-27.3,1.93-38.08c3.04-11.76-0.49-12.75,0-16.6c3.1-24.54,2.33-10.65,9.06-35.33c-0.1-1.12-1.12-1.22-1.22-2.14
		c3.24-14.04,2.1-24.19,9.88-36.66c2.36-3.78,6.57-13.04,6.21-17.41c-0.01-0.1,1.19-33.11,0.1-39.1c1.22-2.34,2.53-4.78,2.04-7.43
		c-1.14-6.19,0.63-32.44-6.62-46.43c-4.71-9.09-8.22-13.91-7.84-15.17c4.33,0,7.43,2.18,9.47-4.99C692.84,39.13,695.85,0,683.88,0
		c-5.99,0-6.15,4.3-7.23,7.84c-3.74,12.29,0.16,12.21-4.79,12.83c-0.85-0.64-0.59-2.67-2.14-2.65c-3.46,0.05-6.94,0.23-10.18-1.63
		c-1.21-0.69-2.2,0.17-2.23,1.75c1.1,0.32,2.37-0.51,3.35,0.39c0.51,4.17,2.85,8.15,1.43,12.42c-0.81,1.12-2.14,0.71-3.36,1.43
		c3.84,3.11,8.35-1.96,3.67-12.42c1.02-0.31,1.83-0.71,2.85,0c1.61,4.62,3.38,9.41-1.12,11.91c2.85,3.36,6.62,0.92,9.47,2.14
		c0.41,0.92,0,1.53-0.1,2.24c-3,15.01,13.18,29.84,15.17,41.34c8.28,47.89,2.54,31.7,1.02,73.93c-1.01,28.06-9.42,27.46-11.61,42.67
		c-0.71,4.96-3.67,28.36-6.42,32.48c-3.56-3.16-7.74-5.6-10.9-9.06c-0.1-1.22,1.12-2.24,0.2-3.46c-0.81,0.61-0.31,2.14-1.63,2.24
		c-12.19-12.6-11.72-27.07-16.8-41.24c9.33-9.33,8.8-9.55,13.75-11.91c1.73-0.82,3.36-1.83,4.58-3.46c-1.43,0.1-2.85,1.03-4.07,0.81
		c-11.01-1.92-17.72,32.32-18.94-10.28c1.12-0.31,1.73,0.81,2.85,0.1c3.26-5.8,4.38-11.91,0.92-18.33c1.12-2.24-0.51-4.89,1.22-7.03
		c-1.22-2.44-2.04-4.79-2.04-7.33c0-3.54-11.31-16.96-18.53-14.26c-2.34-1.02-2.95-4.17-5.5-3.97c-1.63,0.81-0.92,2.14-1.63,3.26
		c-0.71-2.44-1.53-4.58-4.28-5.19c-0.71,2.14,1.43,2.85,1.53,4.48c-2.14-0.81-3.56-2.55-5.91-2.85c-2.38,6.75-4.42,0.01-1.73,6.72
		c-5.11,7.67-2.11-5.12-8.25,15.07c-1.09,3.57-0.92,7.03-0.1,10.59c-3.36,3.67-3.87,5.09-3.56,10.28c1.73,1.73,2.95,3.97,2.65,6.52
		c0.92,1.43,2.44,0.92,3.36,2.24c0.61,1.12,0.31,2.55,0.61,3.97c1.75,8.18-0.39,1.45,0.61,8.45c1.85,12.94-4.96-4.56-18.63-5.4
		c19.12,14.87,17.36,6.48,17.21,29.22c-0.1,15.95-5.52,23.15-9.06,31.36c-2.15,4.99-6.14,8.81-9.27,13.14
		c-0.9,1.24-2.44,1.83-3.56,2.55c-3.86-0.96-8.26-36.27-12.52-42.97c3.16-2.34,3.97-4.28,3.36-8.15c-1.12,2.44-1.83,4.79-3.77,6.62
		c-2.94-4.9-16.81-24.65-17.01-41.85c-0.18-15.2-6.65-32.23-3.05-47.45c-0.44-2.18-1.95,1.42-0.31-6.82
		c0.51-0.81,1.73-0.71,1.83-1.73c0.27-5.97,4.97-15.37,8.35-22.81c1.52-3.35,5.1-16.36,4.38-18.53c-2.16,0.46-0.31,1.66-4.79,10.9
		c-2.23,4.59-4.94,9.08-6.52,13.95c-0.49,1.53-1.22,2.85-2.44,3.56c-10.73,48.26,1.12,51.59-0.2,54.17
		c-1.19,2.32,0.81,9.97,0.2,13.85c-2.21,14.23,4.94,23.64,16.7,43.58c0.79,1.34,0.63,3.23,1.83,4.28c2.28,1.99,2.46,4.58,2.55,7.23
		c0.82,24.15,10.86,39.14,11.91,55.09c0.59,8.96,1.63,17.82,2.44,26.68c-0.41,1.02-1.53,1.32-1.63,2.34
		c1.48,12.59,2.13,17.06,0.51,20.57c-1.57,3.41,0.34,5.55-0.41,8.55c-0.45,1.82-0.1,3.46,0.81,4.89
		c-9.66,16.1-10.49,24.7-10.49,43.48c0,15.77-2.48,14.35-2.95,23.83c-0.78,15.7-4.14,19.95-3.36,29.63c0,1.6-2.02,11.54-2.24,12.73
		c-0.66,3.59,1.08,5.43,2.14,0.1c2.17-10.94,1.95-11.39,3.59-11.98c2.74-6.09,5.68-12.08,7.4-18.56c-2.44-0.81-0.31-3.05-1.53-4.58
		c0.71,8.25-3.56,14.56-6.92,21.18c-0.41-3.87-0.13-7.64,0.81-11.4c3.17-12.66,0.95-17.69,3.16-23.42
		c4.42-11.47,0.52-20.46,4.79-47.55c2.14-2.65,4.89-5.19,6.82-8.55c10.85,1.6,1.42,0.07,20.57,2.04c-1.63-1.93-3.36-1.83-4.79-2.24
		c0-1.37-0.39-0.86,1.93-1.53c0-0.81-0.61-1.63,0.1-2.44c0.61-0.41,1.22-0.41,1.93,0c0.31,1.32-0.2,2.75,0.92,4.07
		c1.32-1.22,0.1-3.05,1.32-4.17c2.34-0.61,4.28,0.71,6.52,1.12c-1.11,3.32-3.02,0.77-5.09,1.73c0.92,1.22,2.04,1.02,3.05,1.02
		c6.81,0,2.33,0.36,8.97,0.16c-2.37,0.29-2.99,4.91-2.76,7.98c3-7.78,3.2-8.92,4.38-7.13c-4.23,10.77-3.56,9.09-1.22,8.76
		c0.09,1.01,0.13,1.78,0.14,2.33c0.13-1.8,0.67-5.96,2.6-12.21c6.4-1.71,3.51,0.73,4.58,2.44c1.32-0.71,0.41-2.65,1.83-2.95
		c1.32-0.1,1.53,1.53,2.75,1.53c2.46,0,3.36-4.42,5.6,1.73c1.83-0.51,2.34-2.34,3.56-2.85c1.43-0.1,0.61,1.43,1.53,1.63
		c2.04-2.04,1.03,5.32,3.05,9.88c0.2-4.79,0.2-8.86-1.83-12.52c1.9-2.22,2.44,0.41,3.26,0.41c1.43-2.65,1.93-2.75,4.89-1.02
		c1.63-1.73,1.63-1.73,3.46-0.2c0.56,0.56,0.71-0.33,0.71-1.12c2.14-1.53,3.05,0.41,4.28,1.22c0.71-0.51,0.2-1.32,0.92-1.63
		c1.32,0.81,2.75-0.51,4.07,0.2c1.12-2.44-1.93-4.48-0.1-6.92c-13.34-0.89-9.26,4.09-23.83,2.75c-4.16-0.38-19.59,1.6-33.7-0.1
		c-7.82-0.94-14.95,1.1-21.59-0.71c-1.53-1.93,0.2-2.95,0.61-3.77c0-0.1-1.84-26.51-1.12-31.36c0.98-6.66-1.43-12.4-0.81-22.2
		c2.75,0.61,4.79,2.75,8.25,2.34c-3.16-1.83-6.21-2.75-8.96-4.89c0.08-4.32-3.17-20.06-3.16-20.16c13.7-7.21,26-37.73,24.34-47.65
		c-0.77-4.59,0.71-9.06,0-13.64c4.59,15.85,0.84,42.03,29.12,36.96c7.64-1.37,9.22-8.53,9.37-23.62c0.1-10.11-4.11-15.38-1.02-15.38
		c0.41,2.04,1.77,3.96,1.22,6.42c-0.11,0.51-0.01,1.33,0.31,1.73c4,5.09,1.97,30.06,30.45,47.86c-0.51,3.56-1.53,6.92-1.12,10.28
		c-3.13,3.67-3.68,17.89-2.65,23.22c-0.81,1.53-2.34,2.14-2.34,3.97c5-3.12-0.15-1.38,0.71,19.25c1.19,28.46-5.36,21.56-0.31,34.01
		c6.06,14.91,2.62,2.28,10.28,35.74c10.27,44.83,11.94,48,9.57,55.9c-2.23,7.43,0.25,18.58-0.2,21.28
		c-16.5,6.72-33.3,9.98-51.12,6.82c-11.45-34.35,1.99-8,6.52-12.52c-2.44-3.67-5.7-6.32-9.37-8.25c-3.84-2.02-3.7-3.71-7.13-15.38
		c-3.02,3.35-3,13.69-3.26,18.23c-1.64,29.29,1.28,12.73-18.74,18.13c-4.44,1.2-5.11-1.48-10.28-0.41
		c-14.01,2.91-30.29-8.4-33.5-5.19c1.12,1.53,3.16,1.43,4.38,2.85c4.31,19.72-6.61,31.32-7.84,40.22
		c-3.72,26.97,11.11,63.94,7.84,73.21c-4.68,2.34-5.6,5.19-2.44,8.35c1.63-1.63,0.1-4.28,1.83-6.11c2.34,0.61,4.68,0.1,7.13,1.02
		c0.1,1.73-1.22,3.26-0.1,5.5c2.95,0.1,6.01,1.02,8.25,2.55c1.63,0.2,1.43-1.53,2.65-1.43c1.08,2.15-0.41,4.75,0.61,6.42
		c2.06,3.35,2.34,7.43,4.17,11.3c-4.17,2.95-8.25,5.6-13.34,6.42c-1.01,2.52-0.14,8.25-6.62,11.1c-0.48,0.16-3.24,3.36-8.76,3.36
		c-0.87,0-0.23-1.02,0.2-1.73c-3.36-1.22-6.62-3.05-10.69-1.73c2.75,0.2,5.29,0,7.84,2.34c-5.9-1.09-14.99,0.18-7.23,1.53
		c2.74,0.48,5.61,0.28,8.45,0.81c2.04,0.39,4.57,0.7,6.62-0.51c15.78-9.29,10.57-11.5,11.51-13.75c5.09-1.83,11-2.34,13.95-8.25
		c-2.44-3.67-1.69-8.28-4.28-11.81c-0.7-0.96,1.46-5.8-2.34-8.04c-0.51-1.32,0.51-2.24-0.1-3.16c-0.92-0.61-1.62-1.4-3.16-0.81
		c-1.42,0.54-3.27,0.42-4.48-0.51c-2.25-1.71-4.99-1.93-8.25-2.65c5.83-3.05-7.13-31.51-7.13-63.44c0-19.63,6.73-20.53,8.96-37.37
		c0.4-3.06-1.11-5.9-0.61-8.86c0.21-1.22-0.1-2.24-0.71-3.67c10.08,3.56,19.75,7.23,30.65,4.79c-1.22,6.21-2.44,11.91-3.97,17.51
		c7.73-10.17,4.68-9.04,5.19-17.82c22.97,0,24.52,1.6,25.97-0.2c0.92-9.98-0.41-20.06,1.63-30.45c1.22,3.16,1.22,3.16,0.81,6.42
		c2.14,1.63,2.72,4.38,3.05,7.13c0.47,3.87,2.46,7.43,2.85,11.4c0.96,9.74,6.19,3.77,11,6.01c6.81,3.17,8.96,0.14,8.96,3.97
		c0,3.86,1.24,6.07,3.77,11c5.74,11.2-0.39,7.03,1.93,37.47c0.36,4.74,5.11,12.55,6.01,18.63c1.51,10.19,9.41,10.18,4.68,42.56
		c-1.83,0.92-2.44,2.75-2.14,4.79c0.61,4.09-1.71,4.8-2.14,7.74c-0.36,2.45-0.81,4.99-2.24,7.23c2.95,5.6,8.76,6.31,13.85,8.15
		c0.41,1.73-0.13,3.48,0.92,5.19c1.69,2.78,9.06,8.55,12.12,9.06c8.42,0,9.23-0.71,13.24-0.71c1.43,0,3.16-0.1,4.17-2.14
		c-3.46,0-6.72,0-9.98,0C696.06,593.37,697.74,592.96,699.42,592.56z M670.44,29.33c-3.01,1-1.09,1.32-0.92,2.34
		c-0.94,0.79-2.23,0.68-1.93-0.91c0.2-1.08,2.18-2.75-0.52-10.5c0.61-1.02,1.22-0.71,2.24-0.41
		C669.22,22.95,671.65,25.96,670.44,29.33z M688.37,49.18c-1.13,3.22-1.53,3.46-5.6,3.46c4.99-9.98,4.89-41.55,0-50.71
		C693.89-0.2,691.37,40.59,688.37,49.18z M674.82,24.34c-0.2,0.81-0.61,1.53-1.63,1.63c-0.69-0.9-0.91-1.99-1.2-3.26
		C671.9,22.44,673.89,22.28,674.82,24.34z M672.37,27.7c1.22-0.41,2.55-0.1,3.36-0.81c1.61-0.88,0.32-4.13,4.89-2.95
		c0.51,2.75,1.32,5.5-0.2,8.55c-0.85-0.28-1.8-0.43-2.67-0.52C667.39,30.91,672.8,33.55,672.37,27.7z M679.76,51.4
		c-2.82-6.08-3-11.08-3-17.28c4.37,0.64,5.57-0.63,5.7-4.68c0.34-10.25-2.85-6.09-6.01-7.22c0.31-21.49,6.57-29.13,8.45-3.46
		C686.38,38.93,682.15,56.56,679.76,51.4z M641.53,138.89c0.51,1.53,0.51,2.75,0.2,4.28C640.51,141.74,639.9,140.52,641.53,138.89z
		 M640.41,135.73c0.7,1.09,0.41,1.63-0.71,1.93C639.33,136.76,639.57,136.2,640.41,135.73z M640.61,144.29
		c0.66,0.66,0.58,0.18-1.12,3.97C636.6,146.18,640.09,144.98,640.61,144.29z M597.03,145.1c-0.92-1.71-3.18-2.8-2.55-5.8
		C596.01,141.44,597.54,142.76,597.03,145.1z M597.03,136.14c-0.81-0.41-1.32-0.81-0.92-2.04
		C596.72,134.61,597.64,134.72,597.03,136.14z M658.97,316.77c1.15,0.37,0.77,0.05-0.13,2.15c-1.22-0.31-2.44-1.12-3.56-0.1
		c-0.71-0.61-1.12-1.02-1.22-1.73C654.31,317.09,656.4,315.94,658.97,316.77z M634.4,325.13c-0.98-0.98,0.15-1.79,0.58-1.27
		C635.43,324.4,634.94,324.7,634.4,325.13z M651.81,317.7c-1.95,1.95-9.53,2.29-14.55,4.88c-2.7,0-7.67-0.78-10.6-1.22
		C635.01,320.14,643.46,319.12,651.81,317.7z M625.84,321.06c-2.44,1.53-4.28,1.53-6.72,0.71
		C621.36,320.35,623.2,320.75,625.84,321.06z M610.22,322.03c0.33-0.13,0.75,0,1.26,0.25C610.47,323.97,609.19,322.46,610.22,322.03
		z M594.47,324.01c-0.29-0.29-1.29-1.61-1.29-3.18C596.28,318.33,597.74,322.9,594.47,324.01z M591.32,319.94
		c0.41,1.43,0.71,2.55,1.02,3.67c-2.34,1.32-1.53-1.73-3.16-2.04c-2.15,3.63-1.35-0.29-3.16-1.32
		C588.17,319.43,589.8,319.94,591.32,319.94z M582.57,319.02c2.95-0.1,2.44,2.44,3.36,3.97c-2.33,2.04-0.79-2.23-2.65-2.95
		c-1.2,0.37-0.98,1.21-1.01,2.12c-0.06,2.09-2.13,1.23-2.25-0.38C580.84,320.96,581.65,320.04,582.57,319.02z M619.02,113.74
		c1.22,0.2,0.61,1.02,1.12,1.73C618.63,114.97,619.02,114.37,619.02,113.74z M603.03,116.79c-0.89,0.89-1.49,0.34-2.34-0.41
		C601.81,115.67,602.32,116.18,603.03,116.79z M600.39,149.68c-1.57-1.54-1.41-3.14-0.1-16.19c0.48-2.38,1.62-1.78,2.24-7.43
		c0.19-1.73,0.21-3.55,1.83-4.79c0.92-0.7,0-1.83,0.71-2.65c2.82,1.69,1.38,0.24,2.34-0.71c8.88-1.59,8.82,3.15,11.61,1.02
		c2.43-1.86,5.86-1.98,8.76-1.02c0.1,0.5-0.29,1.25,0.41,1.63c0.9,0.2,0.56-1.22,1.53-1.22c-0.15,2.21,7.35,11.62,7.13,21.18
		c-0.24,10.45-2.59,9.67-3.16,16.7c-0.33,4.1-4.53,8.26-7.84,11.1c-4.06,4.06-7.51-0.34-12.83,1.83
		C602.33,164.18,606.89,156.07,600.39,149.68z M636.13,203.55c-1.24,7.56-10.48,6.62-18.02,5.8c-6.59-0.72-10.24-10.31-11.4-16.8
		c-2.48-13.82,0.24-11.17-3.26-20.06c-1.47-3.73-1.17-7.61-0.81-11.71c5.86,9.55,5.84,7.19,10.79,9.98c1.53-0.1,3.05-0.31,4.48-0.51
		c0.92,0.1,0.71,1.02,1.63,1.22c1.12-1.43,2.75-0.41,4.79-0.92c13.37-10.97,12.17-16.69,11.95-4.45c-0.03,1.79,0.55,2.17,0.53,4.45
		c-0.05,4.95-3.3,7.93-3.52,11.01c2.33-2.33,1.75-2.56,2.95-3.26C636.77,181.68,638.75,187.65,636.13,203.55z M570.96,555.36
		c2.04,0.71,4.17,1.02,6.31,0.92c0.92,1.12,1.02,2.04,0.1,3.26C570.59,556.3,569.15,559.43,570.96,555.36z M676.55,554.95
		c-2.24,0.61-4.68,0.61-6.52,2.14c-1.43-1.02-1.22-2.14-0.2-3.46C674.08,554.24,677.03,551.28,676.55,554.95z M658.53,489.68
		c-2.01-22.68,3.67-22.17-2.44-34.62c-1.86-3.78-2.32-7.85-3.26-12.32c18.19-1.09,28.58-8.25,28.77-7.21
		c1.64,9.36-2.22,2.95,1.37,20.04c-3.05,3.97-2.14,8.96-4.58,13.54c2.61-0.87,1.65-2.78,2.44-3.77c3.52-4.4,0.13-17.53,7.76,5.33
		c6.59,24.7-10.39,72.79-6.03,77.15c-2.85,1.02-5.4,0.92-7.54,2.34c-1.02,0.92-3.16,0.81-4.79,0.71c-1.09-1.09-0.61-2.6-0.51-3.77
		C672.33,517.24,660.4,510.76,658.53,489.68z"/>
	<path d="M699.46,592.63l0.1-0.1C699.36,592.57,699.44,592.56,699.46,592.63z"/>
	<path d="M657.31,18.33c-0.11-0.11-0.16-0.15-0.01,0H657.31z"/>
	<path d="M646.82,50c2.53-6.64,1.6-11.94,2.95-13.44c2.85,2.04,4.38,5.4,7.74,6.72c9.27,29.28,3.74,38.3,8.96,54.78
		c10.62,33.51-5.5,28.83-5.5,46.13c0,26.74,2.22,15.05,2.14,13.24c-0.7-15.45,4.29-20.61,10.08-39.51
		c-1.39-4.03,0.77-1.13-4.68-20.37c-6.72-23.71,2.8-18.43-8.15-52.85c0.31-1.02,1.63-0.71,1.63-1.83c-1.93-0.71-4.38-0.41-5.91-2.14
		c-2.44-2.75-5.5-5.09-6.72-9.06c1.32-2.34-0.41-5.09,0.2-7.84c1.02-0.51,1.94-1,2.85-1.53c1.54-0.89,2.01-4.8,3.67-0.81
		c-3.05,3.97-2.75,8.66,0.81,10.08c0.1-0.39,0.29-0.87,0.39-1.26c0.28,0.57,2.53,0.71,2.36-2c-0.11-1.83-0.41-3.77-1.43-5.29
		c0.2-1.02,0.81-1.93,0.51-3.05c-4.46-5.51-5.28,0.78-8.86,1.63c-0.61-0.61-0.32-1.32-0.41-2.04c-2.25-17.87-3.04-19.86-9.98-19.04
		c-9.98,1.18-7.96,39.07-4.89,49.18C636.09,54.6,644.36,56.45,646.82,50z M657.26,30.24c-0.35,0-0.67-0.01-0.98,0.1
		c-0.51-1.53,0.22-3.64-0.81-5.19c0.35-0.52,0.7-0.71,1.53-0.71C657.09,26.37,656.3,28.39,657.26,30.24z M643.94,2.35
		c3.96,2.64,5.62,29.68,2.47,43.27c-1.46,6.3-1.9,6.98-5.49,7.02c-1.95,0.02,7.51-19.95-0.52-50.7
		C641.51,1.79,643.16,1.58,643.94,2.35z M637.35,2.95c-0.18,0.64-0.12,1.25,0.5,1.51c0.62,0.26,0.51,0.18,0.79-1.09
		c0.36,0.15,0.21-0.16-0.18,1.42c4.94,12.67,1.6,46.81,0.1,45.31c-3.14-1.57-0.04,2.74,0.22,0.75c0.07,0.59-1.59,3.3-3.28-2.09
		C631.9,37.25,632.74,5.26,637.35,2.95z"/>
	<path d="M573.76,26.06c0.01-0.03,0.04-0.06,0.05-0.09C573.68,26.09,573.66,26.06,573.76,26.06z"/>
	<path d="M572.79,30.75c-3.53,4.81-0.06,9.9,1.18,6.84c0.97-2.39-0.88-5.28,0.54-5.37c0.32-0.02,0.62,0.2,1.14,0.26
		c-1.02,1.83-0.81,3.56-0.71,5.19c-0.51,0.71-1.02,0.51-1.32,0.61c0.1,0.41,0,1.12,1.02,0.92c6.57-4.66-2.52-11.12,1.93-12.02
		c1.02,2.14,3.26,3.16,5.09,4.68c-0.51,2.65-0.71,5.29,0,8.04c-2.95,4.79-5.7,9.98-12.42,10.39c-0.1,1.32,1.32,1.02,1.63,1.83
		c-0.02,0.12-2.05,13.76-2.95,17.01c-6.06,21.82-0.02,36.91-3.77,49.89c-2.12,7.34,11.48,19.51,12.63,29.43
		c1.29,11.2,0.45,13.35,3.75,12.65c0,0.01,0.01,0.03,0.01,0.07l0.1-0.1c-0.07,0.02-0.1,0.02-0.1,0.02
		c-1.82-8.07,1.28-19.62-14.04-34.94c-2.54-5.5,3-10.66,2.44-27.8c-0.73-22.31,0-18.16,3.77-44.29c0.55-3.84,1.48-2.23,6.01-7.13
		c6.82-8.76-0.64,19.28,13.34,15.07c9.24-2.78,8.02-42,3.46-50.81c-1.36-2.64-2.89-2.49-6.21-2.55c-6.96-0.12-6.85,8.9-7.94,20.57
		c-4.12-0.63-2.29-4.46-7.59-3.17C572.85,27.84,571.48,26.83,572.79,30.75z M591.94,11.12c0.14-1.09,1.98-1.56,3.26,4.15
		c3.34,14.86,2.35,43.97-2.7,44.67c-0.17,0.03-0.36-0.16-0.58-0.54c0.15,0.15,0.32,0.3,0.52,0.47c0.72-0.53,0.82-1.45,1.22-2.24
		c-0.99,0.1-1.93,0.15-2.27,0.46c-1.63-5.08-3.47-20.32-0.58-41.5c0.28-2.02,2.14-4.28,2.14-4.38
		C592.95,11.31,591.83,11.9,591.94,11.12z M586.23,10.69c1.4-0.56,2.85-1.43,4.17-0.92c-9.51,35.5,3.1,51.32-1.15,51.23
		C579.88,60.81,582.08,19.2,586.23,10.69z"/>
	<path d="M546.22,62.42c9.18-0.2,6.16-5.94,9.67-15.17c0.81,0.71,0.81,2.44,2.55,1.63c0.41-2.24-1.32-4.48-0.92-6.72
		c3.05-1.02,6.92,1.32,9.37-2.75c-4.06-1.23-2.68-8.4-0.61-12.22c0.81,0.41,1.73-0.2,2.24,1.02c-4.16,11.1,0.03,14.88,3.56,11.71
		c-6.2-0.89-3.06-5.48-1.63-13.64c1.12-0.61,2.24,0.1,3.26-0.31c-0.31-2.24-2.04-1.73-3.16-1.53c-8.37,3.41-8.31-2.02-11.4,4.17
		c-0.81-1.02-1.83,0.1-2.65-0.61c-2.62-4.8,0.23-21.94-11.4-19.65c-8.38,1.65-7.1,33.14-6.01,41.14
		C539.83,54.97,540.73,62.54,546.22,62.42z M558.64,30.24c0.08,1.58-0.44,2.39-1.02,3.77C555.33,32.97,555.5,31.2,558.64,30.24z
		 M558.12,35.64c0.28,0,0.43,2.12,0.81,2.89c1.16,2.35,3.7,0.06,2.87-0.77c-0.34-0.34-1.4-0.38-1.58-1.12
		c-1.1-2.81,1.26-5.62,1.26-8.53c0.67-0.67,1.16-0.68,2.01-0.45c0.23,0.06,0.24-0.84-1.4,7.98c0.51,1.43,1.12,2.95,1.73,4.68
		c-4.68,0-9.16-0.71-13.75,0.51c-1.5-2.63-0.8-5.62-0.51-8.25c3.26-0.71,3.36-0.71,5.4,2.34C555.89,35.54,557.01,35.44,558.12,35.64
		z M550.19,9.98c3.36,6.72,4.07,13.54,3.97,20.47c-1.53,0.71-3.16-0.61-4.68,0c-2.11,3.93-2.18,8.69,0.71,11.91
		c1.92,0.96,4.05-0.97,3.86-0.41c-0.62,10.32-2.92,24.86-6.3,15.08C544.51,47.7,543.82,14.96,550.19,9.98z M547.74,9.78
		c-3.36,8.35-3.67,17.01-3.67,25.66c0,26.41,5.83,25.77,2.96,25.64c-3.34-0.15-3.91-0.69-4.9-3.65
		C539.3,48.9,536.48,7.27,547.74,9.78z"/>
	<path d="M430.34,123.62c-3.97,0.42-4.83,0.6-6.21,4.28c-3.57,9.48-1.72,19.27-5.8,17.51c-0.61-0.71-0.41-1.93-1.22-2.24
		c-2.24-1.12-4.28-0.1-6.42-0.31c-1.61-0.15-6.72-4.06-6.72,0.61c1.12-0.1,2.24-1.22,3.05-0.1c0.61,4.28,2.85,8.25,1.53,12.52
		c-0.81,1.12-2.24,0.71-3.36,1.32c2.14,2.34,3.56,0.41,5.09-0.41c3.16,1.9-1.79,0.11,11,0.51c-1.53,2.65-2.34,7.13-1.63,8.96
		c1.22,0.31,1.02-1.43,2.24-1.63c1.12,3.67,1.43,7.43,2.95,11c17.56,13,16.1-35.12,11.3-48.16
		C435.13,124.74,433.09,123.32,430.34,123.62z M410.79,155.6c1.45-8.96-4.47-11.2,0.71-11.2C413.57,147.8,415.16,155.6,410.79,155.6
		z M417.41,153.86c-0.78,0.87-1.85,0.19-2.29,0.92c1.45-4.98-3.75-13.55,0.96-9.98C416.18,147.75,418.42,150.6,417.41,153.86z
		 M420.05,151.11c-0.57-0.57-1.01-2.86-1.12-3.67C421.87,147.64,422.44,150.31,420.05,151.11z M419.34,152.43
		c3.5-0.58,4.19,0.33,4.19-4.28c1.14-1.14,2.51-1.21,4.07-0.81c0.31,2.99,1.2,5.71-0.41,8.55
		C421.18,153.97,418.23,157.29,419.34,152.43z M429.31,172.98c-2.88,8.2-6.59-7.56-5.49-15.15c1.12-0.1,2.24,0.71,3.46,0
		c3.65-4.56,1.3-11.47,0.77-11.73c-0.78-0.55-1.09-0.25-4.85,0.22c0-5.93,0.32-16.39,4.48-20.57
		C432.62,130.01,433.51,161.03,429.31,172.98z M436.24,168.52c-1.38,7.43-2.74,7.73-5.17,7.75c-4.16,0.03,8.11-15.8-1.14-51.33
		C439.23,119.96,438.29,157.53,436.24,168.52z"/>
	<path d="M590.92,461.17c-7.18,4.79,4.58,21.69-8.76,54.48c-2.54,6.23-6.4,12.97-5.09,32.58c0.45,6.75,2.63,2.65,2.14,1.02
		c-0.67-2.8-1.61-16.45,2.65-26.07c4.77-10.77,2.64-11.07,5.6-16.8C596.44,488.98,588.13,469.52,590.92,461.17z"/>
	<path d="M281.57,506.48c1.09-7.82,8.33-11.7,6.21-36.15c-0.45-5.19-2.14-10.18-0.81-15.48c-7.18,9.07,4.59,21.67-8.15,53.26
		c-3.79,9.41-6.79,15.59-5.6,33.6c0.43,6.57,2.8,3.34,2.24,1.12c-0.91-3.65-1.17-16.2,1.53-23.11
		C278.7,515.34,280.93,511.06,281.57,506.48z"/>
	<path d="M552.02,572.37c2.44,1.32,4.79,1.53,7.03,2.34c-2.34,0.31-4.79-0.41-7.03,0.71c2.44,1.12,4.99,1.63,8.04,1.12
		c-0.56-2.36,8.34-4.33-6.72-4.89c0.31-1.32,1.02-1.34,1.93-1.02c2.16,0.77,4.48,0.51,6.72,0.61c2.15,0.31,3.95-2.56-7.33-2.14
		c0-3.46,8.04,0.77,12.02-1.22c-3.67-2.24-7.33-1.73-10.9-1.93c3.77-2.75,8.15,0.51,12.73-1.32c-4.17-1.63-7.74-1.73-11.4-1.12
		c0.2-1.73,1.32-1.82,2.44-1.53c2.94,0.76,6.01,0.2,8.86,1.22c0.41,0.2,1.02,0.1,1.12-0.81c-2.65-1.12-4.87-3.63-8.35-2.14
		c-3.55,1.52-2.38-4.41-7.94,5.8c-9.39,17.25-11.04,11.03-13.75,20.67c-0.88,3.12-0.14,9.19,3.16,7.64
		c-0.81-1.43-1.83-2.55-1.83-4.28C543.49,578.65,547.23,580.51,552.02,572.37z"/>
	<path d="M237.17,583.26c2.94-12.25,6.32-9.18,10.9-17.62c2.34,1.63,4.89,1.43,7.03,2.55c-2.34,0.2-4.68-0.31-7.64,0.41
		c2.95,1.73,5.6,1.63,8.55,1.53c0.1-1.43,1.43-2.14,2.44-3.36c-2.95-1.63-6.01-1.32-8.96-2.14c3.46-0.81,7.03,1.02,11.1-0.81
		c-3.46-1.53-6.62-1.12-9.88-1.43c1.73-1.43,1.73-1.43,2.65-1.32c8.47,0.98,8.87,1.5,9.27-0.2c-3.36-1.43-6.82-1.53-10.18-1.02
		c-1.53-3.05,8.76-0.5,12.63-1.43c-3.45-2.3-8.69-1.3-11.71-1.93c4.07-1.22,8.25,0.2,12.42-0.1c-2.55-1.12-4.45-3.78-7.84-2.65
		c-1.31,0.44-2.75,0.51-3.97-0.51c-5.02,5.02-6.78,13.96-13.64,19.35c-7.09,5.56-5.46,18.37-1.43,15.27
		C237.89,586.42,236.73,585.09,237.17,583.26z"/>
	<path d="M702.11,575.52c-7.01-6.34-8.18-14.28-12.63-18.43c-1.12-0.2-1.83,1.01-2.85,0.51c-3.15-1.55-5.72,0.27-8.45,1.32
		c-0.51,0.2-1.12,0.51-0.81,1.32c1.34,1.34,12.15-3.16,12.42,0.61c-3.77-0.31-7.43-0.71-11.2,0.92c1.84,2.54,11.97-1.61,12.52,1.73
		c-8.76,0.1-8.76,0.1-10.18,2.14c3.35,1.17,9.4-2.41,11.81,1.02c-5.72,0-8.07-1.14-9.88,0.92c3.67,2.24,7.33-0.61,11.51,0.81
		c-8.25,1.02-8.25,1.02-9.27,2.95c3.56,0.81,6.72-0.92,10.18-1.63c1.73,2.85,3.89,5.17,6.21,7.43c2.66,2.6,5.93,9.8,3.67,13.03
		c-1.79,1.79,1.34,3.42,2.24-1.32C708.45,583.39,706.02,579.06,702.11,575.52z"/>
	<path d="M398.47,569.11c-6.98-6.31-8.38-14.57-12.63-18.53c-2.04,0.51-2.03,0.47-4.58,0c-4.18-0.77-9.96,4.01-6.21,3.26
		c9.49-1.31,10.78-1.82,11.1,0.41c-11.05-0.9-13.16,1.81-9.06,1.73c8.81-0.16,9.98-1.06,10.28,0.92c-8.76,0.2-8.76,0.2-10.18,2.14
		c3.46,1.21,9.37-2.43,11.71,0.81c-3.26,0.51-6.52-0.31-9.88,1.32c3.97,2.44,7.64-0.41,11.71,1.02c-8.15,1.12-8.15,1.12-9.27,2.95
		c3.67,0.71,6.82-0.92,10.08-1.73c1.73,2.14,3.03,4.51,5.09,6.21c3.64,3.01,8.08,11.58,4.38,15.78c2.34,0.31,2.65-1.22,2.75-2.95
		C404.68,576.95,402.37,572.64,398.47,569.11z"/>
	<path d="M579.31,164.55c-0.34,5.38-0.35,19.74,3.05,23.93c-0.36-5.78-0.83-18.16-0.92-24.03
		C581.4,161.5,579.61,159.84,579.31,164.55z"/>
	<path d="M580.43,161.19l-0.2,0.1C580.35,161.42,580.28,161.38,580.43,161.19z"/>
	<path d="M339.51,389.49c-3.87,0.51-7.64-0.92-12.32,0C336.06,396.14,368.77,385.64,339.51,389.49z"/>
	<path d="M643.15,396c-3.87,0.51-7.74-0.92-12.32,0C639.88,402.58,672.59,392.13,643.15,396z"/>
	<path d="M586.64,430.01c0.86,3.96,5.21,3.2,7.94,2.75c-0.28-1.83,1.56-3.84-0.1-5.5C591.97,423.08,585.67,425.57,586.64,430.01z
		 M590.71,426.45c2.24,1.02,2.24,1.02,2.55,3.16c-0.81,0.81-1.74-0.54-2.13,0.51c-0.19,0.52,0.6,1.21-0.32,1.63
		C588,431.34,587.08,427.66,590.71,426.45z"/>
	<path d="M281.57,422.48c-0.24,5.53,6.75,3.96,7.64,3.87c0.49-0.49,2.53-6.99-2.95-7.64C283.81,418.42,281.67,420.14,281.57,422.48z
		 M285.64,420.14c1.98,0.99,2.06,0.59,2.65,3.05c-0.81,0.71-1.32-0.2-1.93,0.2c-1.02,0.41,0.31,1.32-0.51,1.83
		C284.22,425.55,281.16,422.75,285.64,420.14z"/>
	<path d="M569.74,431.34c1.83,0.1,1.02-2.34,2.65-2.14c1.12,0.41,1.22,1.73,2.24,2.24c1.67,0.56,0.69-0.88,0.31-2.24
		c0.51-1.02,1.63-1.63,1.53-3.36c-0.92-2.85-3.77-1.73-6.42-2.24C569.94,426.55,569.13,428.89,569.74,431.34z M574.83,426.26
		c-0.51,1.93-1.73,1.43-2.75,1.32C570.61,426.11,571.98,424.12,574.83,426.26z"/>
	<path d="M265.17,417.18c-1.58,13.72,0.01,5.24,2.44,5.5c4.74,5.53,2.3,0.27,2.44-0.2c0.51-0.81,1.53-1.32,1.43-3.05
		C270.47,416.47,267.72,417.59,265.17,417.18z M266.91,418.71c0.11,0.01,2.84,0.11,2.84,1.24
		C269.15,421.73,265.57,421.72,266.91,418.71z"/>
	<path d="M577.17,428.59c0.24,5.25,8.55,5.24,8.55-0.1C585.72,423.19,576.92,423.01,577.17,428.59z M581.35,425.74
		c4.35,1.36,2.6,5.19,0.2,5.19C579.04,431.12,577.25,427.28,581.35,425.74z"/>
	<path d="M272.3,421.97c0.13,5.41,8.94,5.33,8.55-0.2C280.48,416.38,272.18,416.9,272.3,421.97z M276.38,419.32
		c3.59,0.26,3.62,4.9-0.1,5.29C273.02,422.48,273.02,421.26,276.38,419.32z"/>
	<path d="M631.34,387.04c3.11-0.74,25.74-6.62,21.49-6.62c-6.72,0.41-12.93,3.16-19.55,4.38
		C632.36,384.9,631.24,385.51,631.34,387.04z"/>
	<path d="M327.9,380.42c7.19-1.65,29.12-7.62,19.45-6.42c-5.7,0.71-11,3.05-16.7,3.87C329.31,378.14,326.83,379.62,327.9,380.42z"/>
	<path d="M586.95,341.42c2.75-4.07,6.21-7.54,6.21-12.52c-1.53-0.81-2.44-0.51-3.56,0.61C592.44,331.6,585.36,337.57,586.95,341.42z
		"/>
	<path d="M289.61,322.48c-1.32-1.12-2.34-0.81-3.36,0.1c0.72,3.98-0.21,2.96-2.24,8.04C280.29,339.92,289.19,329.2,289.61,322.48z"
		/>
	<path d="M659.75,168.73c-2.47,1.81-1.81,2.77,0.2,11c0.38,1.54,1.12,3.05,2.44,5.09C661.18,179.21,662.09,173.92,659.75,168.73z"/>
	<path d="M562.1,147.75c0.31-5.09-0.51-9.47-3.46-13.34C557.93,137.06,560.37,145.41,562.1,147.75z"/>
	<path d="M389.81,216.18c-9.81-5.14-8.08-5.99-10.49-6.21C378.41,213.53,382.48,215.97,389.81,216.18z"/>
	<path d="M251.53,209.66c-2.65,2.55-5.91,4.68-9.27,6.62C250.65,215.52,255.05,211.73,251.53,209.66z"/>
	<path d="M629.82,229.62c-2.14-1.63-4.38-1.93-5.8-3.56c-3.05,1.73-6.82,0.61-10.18,2.85c2.95,0,5.29-0.2,6.82-0.71
		C624.11,228.4,626.25,230.64,629.82,229.62z"/>
	<path d="M282.08,439.69c-2.34-0.31-4.07,0-5.7,0.1c-1.63-1.02-2.44-2.85-4.89-3.36c0.41,3.46,3.16,4.17,4.68,5.8
		C278.21,441.62,280.35,441.82,282.08,439.69z"/>
	<path d="M576.25,461.27c0.95-0.81,0.17-0.08,3.97-7.13c-0.41-1.43,0.71-3.36-1.22-4.58c-0.81,1.22-0.2,2.44-0.51,3.97
		C576.56,455.57,574.83,457.71,576.25,461.27z"/>
	<path d="M580.02,446.2c-1.73-1.02-2.55-2.95-4.68-3.26c0.31,2.34,0.31,2.34,4.48,5.7c1.93-0.61,4.07-0.41,6.01-2.55
		C583.48,445.9,581.65,445.9,580.02,446.2z"/>
	<path d="M273.02,454.65c1.43-2.44,2.14-4.99,3.87-7.13c-0.51-1.53,0.51-3.36-1.32-4.48c-0.92,1.32-0.2,2.75-0.61,3.97
		C271.9,450.58,271.69,451.4,273.02,454.65z"/>
	<path d="M651.3,277.68c-19.86-12.41-17.02-10.78-17.82-9.98C651.86,278.99,650.56,279.15,651.3,277.68z"/>
	<path d="M329.33,260.88c6.42,3.87,11.91,7.94,18.13,10.69C342.26,267.19,332.69,261.59,329.33,260.88z"/>
	<path d="M377.18,380.83c-0.61-7.33-4.48-13.64-6.01-20.67C371.48,367.49,375.66,373.8,377.18,380.83z"/>
	<path d="M680.63,387.55c0.22-3.51,0.82-1.3-5.91-20.77C675.23,374.01,679.1,380.32,680.63,387.55z"/>
	<path d="M667.39,173c0.08,3.94,2.73,9.06,4.68,7.33c-1.63-2.55-1.83-5.7-3.16-8.66C667.9,172.19,667.38,172.49,667.39,173z"/>
	<path d="M317.62,390.3c-5.29,1.12-10.49,1.83-15.27,3.77C311.51,393.46,315.99,392.34,317.62,390.3z"/>
	<path d="M621.16,396.92c-5.29,1.02-10.49,1.73-15.27,3.67C614.64,400.08,619.53,398.85,621.16,396.92z"/>
	<path d="M622.18,279.21c-2.71,3.99,2.05,5.5-0.2,14.15C625.74,288.88,622.79,284.4,622.18,279.21z"/>
	<path d="M318.74,286.54c3.16-4.48,0.41-8.76-0.51-13.14c-1.12,2.34,0.16,4.28,0.51,6.42C319.1,282.07,318.63,284.3,318.74,286.54z"
		/>
	<path d="M564.85,459.54c-1.02,4.38,1.22,7.94,2.85,11.71C566.78,467.28,566.58,463.31,564.85,459.54z"/>
	<path d="M260.9,452.82c-0.81,4.68,1.73,8.25,3.16,12.73C264.26,462.6,262.22,454.35,260.9,452.82z"/>
	<path d="M338.9,262.92c-3.45-3.02-5.75-4.7-11.51-10.79C329.33,256.4,334.62,261.29,338.9,262.92z"/>
	<path d="M631.14,258.64c-2.51,0,4.86,7.1,10.59,10.49C638.06,265.87,634.4,262.41,631.14,258.64z"/>
	<path d="M325.56,233.79c-1.83-0.51-3.26-1.83-4.99-2.55c2.24,4.38,6.62,4.17,10.59,4.68C329.53,234.4,327.49,234.2,325.56,233.79z"
		/>
	<path d="M320.98,305.17c2.55-3.56,1.73-6.72,0.1-10.69c-1.02,2.34,0,3.97,0.1,5.5C321.28,301.61,319.96,303.14,320.98,305.17z"/>
	<path d="M624.11,301.1c0.2,3.67,1.32,6.82-0.1,10.08C626.86,308.74,626.86,305.07,624.11,301.1z"/>
	<path d="M634.09,402.62c3.46,1.93,7.13,2.85,10.39,5.09c-1.02-2.14-1.02-2.14-7.03-4.99C636.43,402.32,635.42,401.4,634.09,402.62z
		"/>
	<path d="M330.45,396.1c3.67,1.73,7.13,3.26,10.9,5.09C338.59,397.94,333.3,395.39,330.45,396.1z"/>
	<path d="M378.61,400.08c-0.51,0.1-0.92,0.1-0.92,0.2c-0.92,3.26-3.36,5.91-4.48,9.06C375.25,406.39,379.02,404.35,378.61,400.08z"
		/>
	<path d="M676.86,416.16c2.04-3.16,5.4-5.19,4.99-9.57c-1.83,1.93-2.14,4.79-4.07,6.72C677.16,413.92,676.55,414.74,676.86,416.16z"
		/>
	<path d="M263.65,448.65c2.55,1.02,4.99,1.22,6.72,0.61C268.43,447.02,266.4,446.81,263.65,448.65z"/>
	<path d="M285.03,254.46c-2.95-1.53-6.01-2.95-8.96-4.38C278.11,252.94,281.06,254.46,285.03,254.46z"/>
	<path d="M566.78,455.06c4.07,1.22,5.8,1.32,7.23,0.51C571.77,453.53,570.35,453.43,566.78,455.06z"/>
	<path d="M299.9,322.08c0.92,3.67,0,7.23,0.81,10.69C300.46,326.54,303.64,322.97,299.9,322.08z"/>
	<path d="M314.11,257.36c0.08,0.16,1.16-0.38,1.57-1.47c-2.55-0.63-9.24,10.54-9.67,11.2C307.01,268.09,311.32,260.47,314.11,257.36
		z"/>
	<path d="M603.44,328.49c0.92,3.77,0.1,7.33,0.81,10.79C604.26,332.23,607.14,329.5,603.44,328.49z"/>
	<path d="M319.86,258.84c-1.04,4.68,1.33,0.06-2.95,11C320.87,265.46,321.59,262.2,319.86,258.84z"/>
	<path d="M617.7,263.73c-1.36-1.36-7.7,9.19-8.15,9.88C610.54,274.59,614.76,266.99,617.7,263.73z"/>
	<path d="M623.5,265.46c0.31,3.67-1.63,6.82-2.75,10.79C624.42,271.77,625.03,269.13,623.5,265.46z"/>
	<path d="M686.84,572.98c2.14,1.53,4.99,1.43,8.35-0.2C692.44,572.06,689.28,572.06,686.84,572.98z"/>
	<path d="M383.29,566.56c2.44,1.43,5.4,1.32,8.45-0.41C388.38,565.54,385.33,565.65,383.29,566.56z"/>
	<path d="M276.58,472.68c-1.12,2.95-1.53,5.6-1.53,8.76C277.09,477.67,277.5,475.43,276.58,472.68z"/>
	<path d="M361.5,244.38c-1.93,2.04-3.87,4.17-5.7,6.21C360.59,248.05,361.91,246.32,361.5,244.38z"/>
	<path d="M665.25,250.49c-2.14,2.34-3.97,4.48-5.91,6.62C664.54,253.95,665.25,253.14,665.25,250.49z"/>
	<path d="M580.43,479.5c-1.32,2.14-1.93,5.19-1.32,8.04C580.73,483.68,580.94,481.94,580.43,479.5z"/>
	<path d="M660.67,185.83c-1.12,2.75-1.02,5.5,0.51,8.15C660.97,191.33,662.5,188.48,660.67,185.83z"/>
	<path d="M324.34,383.07c-1.02,2.95-1.43,6.01-1.73,9.06C324.23,389.99,324.85,386.13,324.34,383.07z"/>
	<path d="M627.88,389.18c-0.71,3.46-1.32,6.42-1.93,9.37C627.78,396.41,628.39,392.64,627.88,389.18z"/>
	<path d="M581.45,190.92c-0.61,2.95-0.41,4.99,1.63,7.64C582.97,195.71,583.48,193.47,581.45,190.92z"/>
	<path d="M273.63,498.75c0.2-2.85,0.31-5.7,0.92-8.66C273.02,492.84,272.4,495.69,273.63,498.75z"/>
	<path d="M646.21,360.77c-1.14,0.06-10.11,0.94-11.2,1.43C638.78,362.4,642.65,362.5,646.21,360.77z"/>
	<path d="M342.66,354.25c-1.12,0.06-10.21,0.94-11.3,1.43C335.23,355.98,339.1,355.98,342.66,354.25z"/>
	<path d="M563.93,52.14c-2.04,1.73-0.81,4.07-0.92,6.72C563.93,56.51,564.65,54.48,563.93,52.14z"/>
	<path d="M577.78,497.42c-1.22,2.55-1.83,5.09-0.51,7.84C577.48,502.72,577.58,500.07,577.78,497.42z"/>
	<path d="M674.62,163.02c-1.43,2.24-3.05,3.97-2.85,6.92C673.91,167.61,674.72,165.67,674.62,163.02z"/>
	<path d="M217.83,168.93c-2.14,1.73-1.63,3.87-1.83,5.7C217.21,173.1,218.23,171.48,217.83,168.93z"/>
	<path d="M413.74,169.54c-0.1,2.04,0.41,3.77,1.93,5.09C415.37,172.8,415.98,170.66,413.74,169.54z"/>
	<path d="M357.43,229.01c-0.31,3.05-3.56,2.75-5.19,5.09C356.39,232.98,360.53,231.48,357.43,229.01z"/>
	<path d="M312.63,381.34c3.87,0.51,6.01,0.31,9.67-0.92C318.84,379.91,315.78,381.24,312.63,381.34z"/>
	<path d="M616.17,387.86c3.26,0.51,6.42,0.1,10.08-0.81C622.38,386.33,619.33,387.75,616.17,387.86z"/>
	<path d="M311.81,400.79c2.34-1.32,5.29-1.53,6.92-4.07C316.29,397.84,313.54,398.45,311.81,400.79z"/>
	<path d="M615.05,407.31c5.8-2.04,6.21-2.24,7.13-4.38C619.73,404.35,617.09,404.96,615.05,407.31z"/>
	<path d="M302.75,419.83c1.63-2.44,2.85-5.29,3.05-8.35C304.17,414.03,303.56,416.88,302.75,419.83z"/>
	<path d="M606.4,426.35c1.63-2.65,2.75-5.4,2.95-8.45C607.92,420.54,607.01,423.39,606.4,426.35z"/>
	<path d="M667.69,45.72c-0.1,2.14,0.92,3.87,2.14,5.6C669.73,49.28,669.53,47.25,667.69,45.72z"/>
	<path d="M355.49,184.61c2.24-0.31,3.46-0.92,4.17-2.85C357.53,181.66,356,181.86,355.49,184.61z"/>
	<path d="M563.22,154.27c-0.31-1.73,0-3.67-2.14-5.4C561.08,151.31,561.59,153.04,563.22,154.27z"/>
	<path d="M391.95,568.29c-1.53,1.02-3.46-0.41-5.29,0.51C389.5,570.63,389.81,570.63,391.95,568.29z"/>
	<path d="M691.62,115.37c-1.53,1.22-3.36,1.12-4.17,2.65C688.4,120.4,691.62,117.92,691.62,115.37z"/>
	<path d="M690.2,575.32c2.95,1.73,3.16,1.73,5.29-0.61C693.97,575.83,692.13,574.4,690.2,575.32z"/>
	<path d="M551,577.56c1.93,1.83,3.56,1.93,5.19,0.92C556.19,577.25,557.54,577.56,551,577.56z"/>
	<path d="M279.33,320.14c-0.1,2.34-2.55,3.26-2.75,5.4C279.94,322.89,280.14,322.48,279.33,320.14z"/>
	<path d="M253.46,571.04c-2.44,0-3.97,0-5.6,0C250,572.98,250.41,573.08,253.46,571.04z"/>
	<path d="M582.87,326.66c-0.1,2.34-2.55,3.26-2.75,5.4C583.48,329.41,583.79,328.9,582.87,326.66z"/>
	<path d="M673.29,425.74c1.63-2.04,2.34-3.77,2.65-5.7C674.42,421.46,673.09,422.88,673.29,425.74z"/>
	<path d="M372.4,413.52c-1.53,1.32-2.65,2.85-2.55,5.09C371.28,417.28,371.99,415.45,372.4,413.52z"/>
	<path d="M577.37,462.29c-0.61,1.53-2.14,2.44-3.05,4.48C576.66,465.65,578.09,464.63,577.37,462.29z"/>
	<path d="M273.42,455.57c0,1.93-1.63,2.65-2.34,4.07C274.24,458.32,274.34,458.22,273.42,455.57z"/>
	<path d="M659.24,322.99c0.31,1.83,0.81,3.36,1.93,5.4C661.08,324.52,661.08,324.52,659.24,322.99z"/>
	<path d="M355.7,316.99c1.38,3.31,0.68,2.59,1.93,4.48C357.53,317.7,357.53,317.49,355.7,316.99z"/>
	<path d="M553.55,122.7c1.53-1.53,1.43-3.16,1.73-4.58C553.85,119.24,552.83,120.46,553.55,122.7z"/>
	<path d="M564.04,44.19c-1.12,2.65-1.12,2.65,0.71,3.87C565.46,46.64,564.24,45.72,564.04,44.19z"/>
	<path d="M666.68,36.25c-0.2,1.53-1.32,2.55-0.31,4.17C667.9,39.2,668.2,38.08,666.68,36.25z"/>
	<path d="M218.33,165.26c1.12-1.53-0.1-2.55-0.51-3.56C216.81,163.02,216.81,164.14,218.33,165.26z"/>
	<path d="M412.92,165.16c2.04-0.92,1.83-2.14,0.81-3.56C413.43,162.62,412.42,163.43,412.92,165.16z"/>
	<path d="M660.36,207.22c1.22-1.32,1.43-2.44,1.22-3.87C660.57,204.26,659.85,205.38,660.36,207.22z"/>
	<path d="M572.49,392.34c0.29,0,0.2,0.64,0.2-5.91C572.4,386.43,572.49,384.53,572.49,392.34z"/>
	<path d="M269.04,385.92c0-6.79,0.06-6.11-0.1-6.11C268.94,386.6,268.9,385.92,269.04,385.92z"/>
	<path d="M343.99,318.92c-0.61,1.73-1.22,3.46-0.92,6.11C344.29,322.59,344.7,320.85,343.99,318.92z"/>
	<path d="M647.13,325.03c0,2.24-0.92,3.87-0.51,6.21C648.14,327.88,648.14,327.68,647.13,325.03z"/>
	<path d="M280.65,230.94c-1.32-1.12-1.83-2.55-3.56-1.22C277.7,231.15,278.62,231.45,280.65,230.94z"/>
	<path d="M571.67,178.2c-1.43,0.2-2.44,0.92-2.85,2.44C570.25,180.33,571.16,179.52,571.67,178.2z"/>
	<path d="M663.42,357.31c2.55-1.53,2.55-1.53,4.28-3.87C666.07,354.66,664.84,355.58,663.42,357.31z"/>
	<path d="M360.69,350.69c1.12-1.02,2.34-2.04,3.46-3.05C361.81,348.65,361.81,348.65,360.69,350.69z"/>
	<path d="M263.04,415.96c-0.71-1.83,0-3.36-0.92-4.79C262.73,412.6,260.69,414.33,263.04,415.96z"/>
	<path d="M577.07,333.38c-1.12,1.53-1.32,3.26-1.22,5.09C576.76,336.84,577.27,335.21,577.07,333.38z"/>
	<path d="M313.24,234.81c2.04-0.2,2.85-1.53,3.16-3.46C315.27,232.47,314.26,233.69,313.24,234.81z"/>
	<path d="M557.62,132.37c0-1.43-0.71-2.14-1.73-2.75C556.09,130.64,555.79,131.87,557.62,132.37z"/>
	<path d="M566.89,422.68c-1.22-1.93-0.2-3.67-1.22-4.99C566.38,419.02,564.34,420.85,566.89,422.68z"/>
	<path d="M571.98,378.69c-0.41,2.04-0.41,2.04,0.81,3.36C572.59,380.73,572.79,379.61,571.98,378.69z"/>
	<path d="M594.18,225.65c-1.02-0.81-1.93-1.53-2.85-2.24C592.04,225.55,592.04,225.55,594.18,225.65z"/>
	<path d="M585.22,210.07c0.31-0.92,0.2-1.73-0.71-2.44C583.79,208.74,584.4,209.46,585.22,210.07z"/>
	<path d="M411.3,221.78c0.2,1.32,0.61,2.34,1.83,3.46C412.62,223.81,412.42,222.69,411.3,221.78z"/>
	<path d="M633.38,375.43c1.83-0.71,2.95-1.12,3.77-2.14C635.92,373.5,634.8,373.7,633.38,375.43z"/>
	<path d="M562.1,66.8c-0.92,1.73-1.63,2.85-1.02,4.99C561.29,69.95,562.41,69.04,562.1,66.8z"/>
	<path d="M661.58,358.73c-0.71,0.92-2.14,1.12-2.44,2.95C662.27,358.85,662.27,359.42,661.58,358.73z"/>
	<path d="M358.24,352.42c-1.32,0.41-2.14,1.22-2.85,2.34C356.61,354.36,357.53,353.54,358.24,352.42z"/>
	<path d="M248.58,193.57c0.31,0.92,0.51,1.83,1.83,2.04C250.31,194.39,249.39,193.98,248.58,193.57z"/>
	<path d="M381.16,195.71c1.22-0.31,1.53-1.22,2.34-2.75C382.28,193.98,381.36,194.39,381.16,195.71z"/>
	<path d="M273.73,183.8c0.51-1.93-0.2-2.24-1.63-2.14C272,182.88,272.61,183.29,273.73,183.8z"/>
	<path d="M582.57,201.51c0.1,1.32,0.41,2.14,1.53,2.65C584.2,203.04,584.2,202.02,582.57,201.51z"/>
	<path d="M573.1,552.1c0.2-1.02,0.1-2.04-0.81-3.26C571.98,550.27,571.88,551.39,573.1,552.1z"/>
	<path d="M268.33,372.28c-0.31,2.04-0.31,2.04,0.92,3.26C268.84,374.21,269.04,373.19,268.33,372.28z"/>
	<path d="M269.66,546.09c0.41-1.53-0.2-2.44-0.71-3.77C268.54,543.96,268.23,544.97,269.66,546.09z"/>
	<path d="M671.46,53.36c-0.51,1.22,0,1.93,0.81,2.65C672.68,54.99,672.58,54.17,671.46,53.36z"/>
	<path d="M430.95,222.29c0.1,1.22-1.32,2.04-0.51,3.36C431.15,224.63,431.56,223.51,430.95,222.29z"/>
	<path d="M201.43,225.95c0.1-1.63-0.41-2.55-0.92-3.46C200.21,223.71,200.41,224.83,201.43,225.95z"/>
	<path d="M399.48,586.21c-1.22,0-2.34,0-3.56,0C397.14,587.13,398.36,586.42,399.48,586.21z"/>
	<path d="M660.87,165.37c-0.92,0.51-0.71,1.32-0.51,2.14C661.18,166.89,661.38,166.28,660.87,165.37z"/>
	<path d="M703.13,592.73c-1.22,0-2.34,0-3.56,0C700.69,593.55,701.91,592.93,703.13,592.73z"/>
	<path d="M351.83,357.72c1.12-0.2,1.63-0.81,2.65-2.04C352.95,356.29,352.24,356.7,351.83,357.72z"/>
	<path d="M563.32,62.11c-0.92,0.71-1.32,1.43-0.81,2.55C563.63,64.05,563.83,63.34,563.32,62.11z"/>
	<path d="M558.13,107.02c-0.41,0.81-1.43,1.43-0.41,2.44C558.64,108.85,558.64,107.94,558.13,107.02z"/>
	<path d="M655.78,364.23c0.61-0.51,1.22-1.02,1.83-1.53C656.6,362.81,655.78,363.11,655.78,364.23z"/>
	<path d="M585.11,221.57c-0.41-0.81-0.71-1.53-2.24-1.63C583.48,221.07,583.89,221.78,585.11,221.57z"/>
	<path d="M675.03,187.46c-0.71,1.02-0.31,1.63,0.92,2.85C675.64,188.89,676.25,187.97,675.03,187.46z"/>
	<path d="M661.58,195.4c-1.34,0.4-1.01,2.47-0.2,1.93C661.79,196.73,662.5,196.22,661.58,195.4z"/>
	<path d="M567.7,478.58c0.31-0.61,0.31-1.12-0.71-2.04C566.89,477.77,566.78,478.38,567.7,478.58z"/>
	<path d="M557.52,112.72c-0.81,0.41-1.43,0.81-0.71,1.73C557.93,114.15,558.03,113.54,557.52,112.72z"/>
	<path d="M264.05,472.17c0.31-0.61,0.31-1.12-0.31-1.83C262.93,471.35,263.34,471.76,264.05,472.17z"/>
	<path d="M575.75,338.47c-0.87,0.96-0.56,2.19-0.6,3.43C576.01,340.9,575.75,339.64,575.75,338.47z"/>
	<path d="M575.13,342.14c0.05-0.37,0-0.2-0.1-0.1L575.13,342.14z"/>
	<path d="M649.16,360.36c-1.02,0-2.04-0.41-2.85,0.41C647.23,360.77,648.25,360.97,649.16,360.36z"/>
	<path d="M330.34,368.31c1.12,0.41,1.43-0.31,2.24-0.71C331.36,367.19,330.85,367.59,330.34,368.31z"/>
	<path d="M217.93,218.52c1.43,0.61,1.32-0.41,1.63-1.22C218.23,217.2,218.13,217.91,217.93,218.52z"/>
	<path d="M411.91,217.4c0.51,0.61,0.31,1.63,1.83,1.32C413.33,218.01,413.43,217.2,411.91,217.4z"/>
	<path d="M272.2,332.02c0-0.15-0.73,0.16-0.62,3.39c0.87-0.98,0.64-2.21,0.62-3.35c1.02-1.73,1.53-3.36,1.43-5.6
		C272.31,329.09,272.3,329.1,272.2,332.02z"/>
	<path d="M271.59,335.62c0-0.31,0.01-0.21-0.1-0.1L271.59,335.62z"/>
	<path d="M345.82,353.95c-1.22-0.2-2.14-0.41-3.05,0.41C343.68,354.25,344.7,354.46,345.82,353.95z"/>
	<path d="M219.35,223.1c-0.31,0.61-0.51,1.12-0.81,1.63C219.25,224.43,219.96,224.02,219.35,223.1z"/>
	<path d="M565.36,157.63c-0.2-1.12-0.2-1.12-1.02-1.63C564.14,156.91,564.34,157.53,565.36,157.63z"/>
	<path d="M605.27,373.6c0.81,0.1,1.43,0.1,2.14,0.2C606.9,372.99,606.19,373.09,605.27,373.6z"/>
	<path d="M609.86,373.91c-0.81,0-1.63,0-2.44,0C608.13,374.52,608.94,374.52,609.86,373.91z"/>
	<path d="M296.03,343.87c0,0.3,1.22,0.31,1.32,0.31C297.35,343.77,297.59,343.87,296.03,343.87z"/>
	<path d="M320.06,226.05c-0.41,0.51-0.2,1.12,0.1,1.63C320.57,227.07,320.67,226.56,320.06,226.05z"/>
	<path d="M571.77,530.72c0,0.51,0,1.02,0,2.14C572.18,531.64,572.49,531.13,571.77,530.72z"/>
	<path d="M268.43,526.14c0.1-0.81,0.51-1.43-0.2-2.14C268.03,524.71,267.92,525.22,268.43,526.14z"/>
	<path d="M306.72,367.49c-1.22-0.1-1.93-0.1-2.75-0.2C304.58,368.2,305.4,368,306.72,367.49z"/>
	<path d="M301.43,366.98c1.12,0.1,1.83,0.2,2.55,0.2C303.36,366.57,302.55,366.68,301.43,366.98z"/>
	<path d="M312.02,236.14c0.2-0.61,1.32-0.31,1.22-1.32C312.42,234.81,311.91,235.12,312.02,236.14z"/>
	<path d="M291.24,235.83c0.41,0.81,0.81,1.32,1.73,0.81C292.67,236.03,292.36,235.63,291.24,235.83z"/>
	<path d="M674.01,59.26c0.35-0.88-0.81-1.16-0.81-0.71C673.19,59.06,673.4,59.47,674.01,59.26z"/>
	<path d="M626.66,358.12c-0.37,0-0.1-0.19-0.1,1.02C626.7,359.14,626.66,359.3,626.66,358.12z"/>
	<path d="M604.66,351.2c-0.61-0.2-1.12-0.41-1.63,0C603.65,351.2,604.05,351.2,604.66,351.2z"/>
	<path d="M322.91,351.5c-0.23,0,0-0.18,0,1.12C323.01,352.32,323.01,351.91,322.91,351.5z"/>
	<path d="M599.57,350.28c0,0.3,1.22,0.31,1.32,0.31C600.9,350.19,601.14,350.28,599.57,350.28z"/>
	<path d="M574.01,347.94c-0.08,0.33-0.21,1.01,0.1,1.32C574.12,347.84,574.44,347.94,574.01,347.94z"/>
	<path d="M301.12,344.58c-0.61,0-1.12-0.1-1.73-0.1C300,344.78,300.51,344.89,301.12,344.58z"/>
	<path d="M619.33,262.3c-1.22-0.31-1.53,0.51-1.93,1.12C618.07,264.1,619,263.16,619.33,262.3z"/>
	<path d="M304.79,269.43c0.74-0.74,1.81-1.65,1.12-2.34C305.09,267.6,304.48,268.21,304.79,269.43z"/>
	<path d="M608.43,275.95c0.71-0.71,1.76-1.71,1.12-2.34C608.74,274.12,608.23,274.63,608.43,275.95z"/>
	<path d="M676.86,156.91c-0.41,0.31-0.61,0.61-0.51,1.43C677.27,157.93,677.57,157.53,676.86,156.91z"/>
	<path d="M275.46,327.07c0.71-0.31,1.02-0.81,1.02-1.53C275.87,325.74,275.56,326.25,275.46,327.07z"/>
	<path d="M579.11,333.48c0.71-0.31,1.02-0.81,1.02-1.53C579.41,332.26,579.21,332.77,579.11,333.48z"/>
	<path d="M271.18,338.17c0.1-1.12,0.1-1.93,0.2-2.65C270.78,336.23,270.78,336.94,271.18,338.17z"/>
	<path d="M278.92,470.13c0.51-0.81,1.22-1.02,0.81-1.73C279.23,468.6,278.92,469.01,278.92,470.13z"/>
	<path d="M674.21,185.63c0.51-1.02,0-1.53-1.02-1.73C672.79,184.92,673.29,185.43,674.21,185.63z"/>
	<path d="M582.57,476.55c0.51-0.71,1.22-0.92,0.81-1.73C582.87,475.02,582.57,475.43,582.57,476.55z"/>
	<path d="M216.3,224.02c0.61-0.51,1.02-0.92,0.92-1.93C216.3,222.49,215.89,223,216.3,224.02z"/>
	<path d="M414.55,223.2c0.2,0.2,0.31,0.92,0.92,0.41C415.47,221.56,413.4,222.43,414.55,223.2z"/>
	<path d="M273.32,501.6c-0.2,0.41-0.1,0.61,0.31,0.71C274.24,502.62,274.18,500.74,273.32,501.6z"/>
	<path d="M577.58,508.42c0.12-0.25-0.48-0.77-0.81-0.1C576.76,509.06,577.58,509.11,577.58,508.42z"/>
	<path d="M574.83,344.68c0.1-1.12,0.1-1.93,0.2-2.65C574.32,342.75,574.42,343.46,574.83,344.68z"/>
	<path d="M363.54,440.2c-0.28,1.68-0.48,3.32-0.61,4.89c1.83,2.14,2.44,4.68,3.87,7.23c2.14-3.67-0.51-5.8-2.14-8.35
		c0.63-1.53,0.08-3.1-0.61-4.58c1.53-1.73,3.97-2.44,4.07-5.19c-2.57,0-3,2.26-5.09,3.05c-1.63-0.61-3.26-0.2-5.29,0
		C359.36,439.48,361.91,438.67,363.54,440.2z"/>
	<path d="M376.67,446.2c-3.16-2.04-6.11-1.63-7.13,1.02C371.99,447.32,374.23,446.81,376.67,446.2z"/>
	<path d="M365.07,479.19c-0.61-3.16-0.51-6.11-1.93-9.06C362.32,472.68,363.03,476.24,365.07,479.19z"/>
	<path d="M365.88,496.81c1.63-3.36,1.43-5.5-0.71-9.06C365.98,490.5,365.78,493.45,365.88,496.81z"/>
	<path d="M366.19,453.23c-0.22,3.18-0.03,3.17,2.85,3.77C367.61,455.77,367.1,454.45,366.19,453.23z"/>
	<path d="M370.26,543.65c1.22-1.12,1.42-2.18,1.02-3.87C370.06,540.9,370.06,542.02,370.26,543.65z"/>
	<path d="M354.78,453.03c1.23,0.86,1.83,1.54,3.56,0.41C356.96,453.13,356.38,452.04,354.78,453.03z"/>
	<path d="M354.04,447.14c-1.38-0.23-1,1.24,0.23,1.33C356.75,448.67,354.48,447.21,354.04,447.14z"/>
	<path d="M371.5,522.76c0.15-2.99-1.42-0.61,0.09,1.04C371.47,523.41,371.49,523.07,371.5,522.76z"/>
	<path d="M372.19,451.91c0.61,0.51,1.02,0.41,1.22-0.41C372.7,450.99,372.4,451.19,372.19,451.91z"/>
	<path d="M375.44,468.98c-0.11,1.23,1.67,0.59,0.82-0.89C375.83,468.35,375.47,468.64,375.44,468.98z"/>
	<path d="M311.38,174.09c2.6,0.37,3.97-2.02,5.1-4.46c-2.83-0.83-2.15,2.25-3.36,2.95C313.02,172.63,306.96,173.46,311.38,174.09z"
		/>
	<path d="M299.05,170.2c0.12,1.9,0.95,3.56,2.47,4.94C300.42,170.04,298.78,165.75,299.05,170.2z"/>
	<path d="M317.62,198.66c1.32-2.34,3.26-4.38,4.79-6.62C319.96,193.67,317.82,195.4,317.62,198.66z"/>
	<path d="M319.14,191.84c-4.5,0.51-6.98,1.75-2.56,1.81C317.77,193.67,318.1,193.22,319.14,191.84z"/>
	<path d="M326.17,163.23c-1.43,1.63-2.55,2.75-3.67,3.97C324.44,166.69,325.97,165.77,326.17,163.23z"/>
	<path d="M326.58,170.97c1.32-0.71,1.93-1.53,1.22-3.26C326.84,168.77,326.18,169.57,326.58,170.97z"/>
	<path d="M309.16,194.08c1.02,0.78,2.39,1.33,3.68,1.13C311.71,194.59,310.69,193.67,309.16,194.08z"/>
	<path d="M297.05,176.16c0.25-1.26,0.47-2.3-0.31-3.16C295.93,174.12,296.23,174.94,297.05,176.16z"/>
	<path d="M328.51,164.35c0.51-1.22,0.51-1.73,0.2-2.55C328.61,162.51,328.61,163.02,328.51,164.35z"/>
	<path d="M330.75,180.84c0.92-0.41,0.92-0.41,0.92-1.32C331.16,179.83,330.85,180.23,330.75,180.84z"/>
	<path d="M305.56,127.77c-1.16,0.39-4.03-0.02-6.17,1.65c7.02,1.75,8.99,0.47,11.51-2.04c-1.53-3.87-4.99-2.23-7.64-2.75
		c-2.91-0.57-4.96,2.44-4.81,2.44c1.27,0.14,2.09-1.02,3.58-1.02C303.11,126.95,309.64,127.09,305.56,127.77z"/>
	<path d="M319.8,128.95c1.64,2,8.72,0.47,8.82,0.47c-3.14-1.75-6.6-1.62-8.25-2.04c2.04-1.12,4.17-0.41,5.4-1.32
		c1.63,0,2.34,1.43,4.17,1.12c-1.68-1.96-3.83-2.53-6.31-2.56c-3.82-0.03-6.56-0.35-6.72,3.37
		C318.02,127.44,319.03,128,319.8,128.95z"/>
	<path d="M311.82,150.92c-1.63-0.3-2.44,0.81-2.95,2.55c3.26,1.02,6.21-0.2,9.47,0.1C316.96,149.1,313.9,151.3,311.82,150.92z"/>
	<path d="M317.72,148.16c-5.51-0.79-5.05-0.27-8.15,0.2c-0.82,0.07-3.23-1.02-3.97,1.22c4.79,0.41,9.14-0.92,13.44-0.1
		c1.97,0.37,1.82-0.5,2.14-0.81C320.29,147.14,318.8,148.16,317.72,148.16z"/>
	<path d="M316.5,143.08c-1.38-3.64-5.49-2.65-5.19,0.31C312.11,142.84,314.22,142.38,316.5,143.08z"/>
	<path d="M386.35,150.24c-0.03-14.54-7.55,1.5-1.63,8.81C386.72,156.15,386.35,153.15,386.35,150.24z M384.83,147.69
		c0.22,0.76-0.57,1.46-0.42,2.2c0.1,0.93,0,1.85-0.31,2.75C384.11,149.87,383.96,144.65,384.83,147.69z M384.11,154.57
		c0.53,0.18,0.94,0.48,0.81,1.02C384.55,156.69,383.36,155.82,384.11,154.57z"/>
	<path d="M247.25,158.65c2.75-3.26,2.65-11.1-0.51-14.66C245.03,147.5,244.08,158.01,247.25,158.65z M247.36,156.2
		c-1.02-0.61-0.92-1.02-0.2-1.53C247.86,154.98,247.66,155.49,247.36,156.2z M246.54,147.14c0.31-0.1,0.71-0.1,1.02-0.1
		C247.56,157.74,247.65,150.48,246.54,147.14z"/>
	<path d="M666.64,451.81c0.16,0.05,1.02,0.75,3.7,7.23c2.66-4.67-1.83-7.3-1.83-8.25c0-1.77,0.07-3.41-0.81-4.99
		c1.25-1.25,3.85-2.25,4.28-4.99c-3.1,0-2.88,1.91-4.99,2.85c-2.83-0.72-5.28,0.1-5.4,0.1c1.22,2.44,4.16,1.22,5.6,2.85
		C667.19,451.16,666.76,451.75,666.64,451.81z"/>
	<path d="M666.64,451.81C666.6,451.79,666.6,451.83,666.64,451.81L666.64,451.81z"/>
	<path d="M679.91,452.41c-3.16-1.53-5.29-1.32-6.82,0.92C675.75,453.83,677.26,453.64,679.91,452.41z"/>
	<path d="M668.41,485.51c-0.2-2.95-0.31-5.8-1.83-8.55C666.17,480.01,666.78,482.86,668.41,485.51z"/>
	<path d="M668.81,494.06c0.81,2.95,0.41,5.91,0.71,9.27C670.93,499.9,671.02,498.83,668.81,494.06z"/>
	<path d="M672.07,463.51c-1.02-1.12-1.22-2.75-2.65-4.07C668.92,461.99,670.04,463.11,672.07,463.51z"/>
	<path d="M673.8,550.07c1.43-1.22,1.32-2.34,1.02-3.77C673.6,547.32,673.7,548.44,673.8,550.07z"/>
	<path d="M658.53,459.14c0.28,0.91,0.96,1.53,2.14,1.53C662.2,460.66,660.62,458.65,658.53,459.14z"/>
	<path d="M656.49,453.84c0.61,1.22,1.32,1.43,2.34,0.92C658.43,453.74,657.72,453.33,656.49,453.84z"/>
	<path d="M676.47,457.75c-1.19,0.03-0.89,1.56,0.4,0.6C677.48,457.9,677.78,457.65,676.47,457.75z"/>
	<path d="M674.52,528.91c0,0.4,0.12,0.78,0.31,1.1C675.47,528.49,674.52,526.55,674.52,528.91z"/>
	<path d="M679.51,476.24c0.61-0.41,0.92-0.92,0.1-2.04C679.61,475.11,678.39,475.43,679.51,476.24z"/>
	<path d="M614.34,134.11c-0.25-2.75-2.43-2.81-7.2-2.99c-2.62-0.1-4.28,0.79-5.44,2.39c1.46,0.42,2.23-0.93,3.67-1.01
		c0.83,0.51,1.93,0.56,3.02,0.77c6.13,1.22-2.5,0.66-5.77,2.8C607.36,136.61,611.17,137.77,614.34,134.11z"/>
	<path d="M624.11,136.24c2.51,0.5,17.2,0.55-0.2-2.35c2.23-1.02,4.26-0.52,5.58-1.31c1.44,0,2.19,1.54,4.09,1.11
		c-2.93-3.11-6.23-2.76-10.49-2.23c-1.53,0.1-2.34,1.02-2.44,2.85C622.18,134.51,623.4,135.23,624.11,136.24z"/>
	<path d="M619.27,157.11c-4,0.3-6.04-0.24-6.76,2.56c1.9,0.82,5.96,0.94,9.16-0.19C621.4,158.03,620.51,157.02,619.27,157.11z"/>
	<path d="M617.93,154.31c-7.35-0.02-13.06,2.16-3.29,1.59c7.72-0.45,6.92,0.23,8.42,0.18C625.17,156.01,626.71,154.34,617.93,154.31
		z"/>
	<path d="M616.98,149.07c0.78,0,1.17,0.31,1.69,0.3c1.98-0.07-0.62-2.41-1.92-2.05c-0.87,0.24-1.45,1.22-1.9,2.06
		C615.76,150.3,616.37,149.18,616.98,149.07z"/>
	<path d="M623.4,198.87c-1.11,0.46-0.92,4.83-1.61,1.77c-0.18-0.78-0.4-1.25-1.34-1.37c0.64,8.9,4.12,9.8,3.68,2.39
		C624.06,200.54,623.82,199.52,623.4,198.87z"/>
	<path d="M616.93,178.86c-0.94,0.94-2.46-0.13-3.63,1.26c3.52,1.46,5.01-0.18,6.72-4.07C617.03,175.34,617.68,178.86,616.93,178.86z
		"/>
	<path d="M626.15,173.72c3.05-1.53,3.05-1.53,3.36-3.67C628.29,171.37,627.27,172.49,626.15,173.72z"/>
	<path d="M629,188.99c1.63-1.22,2.85-2.14,3.67-3.77C630.53,185.73,629.2,186.44,629,188.99z"/>
	<path d="M631.34,174.63c-0.92,0.61-1.43,1.43-1.63,2.75C631.34,176.87,631.85,176.06,631.34,174.63z"/>
	<path d="M624.62,192.04c-0.31,0.2-1.02,0.2-0.71,0.92C625.84,193.6,626.46,190.82,624.62,192.04z"/>
	<path d="M632.56,168.62c-0.52,0.52-0.5,1.06-0.2,1.73C632.46,169.64,632.56,169.13,632.56,168.62z"/>
	<path d="M637.66,35.33c2.34-2.04,1.73-4.68,1.83-7.03c0.39-9.19-4.44-11.41-3.87,2.04C635.7,32.35,635.74,34.18,637.66,35.33z
		 M637.66,32.89c-0.71-0.51-0.61-1.02-0.31-1.73C638.57,31.77,638.06,32.28,637.66,32.89z M637.45,26.88c0,2.79,0.07,2.44-0.2,2.44
		C637.25,26.14,637.16,26.88,637.45,26.88z M637.35,23.42c0.83,0.65,1.09,1.09,0.2,1.63C636.94,24.63,637.06,24.12,637.35,23.42z"/>
	<path d="M593.16,43.48c1.42-1.67,1.55-3.49,1.49-5.63C593.94,15.55,587.2,42.49,593.16,43.48z M593.6,35.72
		c-0.15,2.3-0.42,2.76-0.52-1.48C593.07,34.14,593.66,34.76,593.6,35.72z M592.55,31.77c0.64,0.45,0.67,0.93,0.59,1.44
		C592.87,34.83,592.27,33.03,592.55,31.77z M592.65,39.41c0.71,0.71,0.51,1.22,0.2,1.93C592.14,40.63,592.44,40.12,592.65,39.41z"/>
<path fill="#e6e6e6" d="m206.8 163.6c0-5.1 4.1-9.2 9.3-9.2s9.2 4.2 9.2 9.2-4.1 9.2-9.3 9.2-9.2-4.1-9.2-9.2zm17.3-.1c0-4.5-3.5-8.2-8.2-8.2s-8.2 3.7-8.2 8.3c0 4.5 3.5 8.2 8.2 8.2s8.2-3.7 8.2-8.3zm-13 0c0-2.8 2.1-5.1 5.1-5.1 1.9 0 2.9.6 3.9 1.5l-1.4 1.7c-.8-.7-1.5-1.1-2.5-1.1-1.7 0-2.8 1.4-2.8 3.1s1.1 3 2.8 3c1.1 0 1.7-.5 2.5-1.1l1.4 1.4c-1.1 1.1-2.1 1.7-4 1.7-2.9 0-5-2.3-5-5.1z"/><path fill="#e6e6e6" d="m226.6 154.7h3.4l4.2 13.2 4.4-13.3h2.6l4.4 13.3 4.2-13.2h3.3l-6.2 18h-2.7l-4.4-12.8-4.4 12.8h-2.7z"/><path fill="#e6e6e6" d="m252.8 165.8c0-3.9 3.1-7 7.2-7 4.2 0 7.2 3.2 7.2 7s-3.1 7-7.3 7c-4 0-7.1-3.1-7.1-7zm11.3 0c0-2.3-1.7-4.3-4.2-4.3s-4.1 2-4.1 4.3 1.7 4.3 4.1 4.3c2.7.1 4.2-1.9 4.2-4.3z"/><path fill="#e6e6e6" d="m269.5 159.1h3.1v3c.8-2 2.4-3.4 4.8-3.3v3.2h-.2c-2.7 0-4.6 1.7-4.6 5.4v5.1h-3.1z"/><path fill="#e6e6e6" d="m279.1 153.9h3.1v11.1l5.6-6h3.8l-5.4 5.5 5.5 8h-3.5l-4.1-5.8-1.9 2v3.9h-3.1z"/><path fill="#e6e6e6" d="m291.7 165.8c0-3.9 3.1-7 7.2-7 4.2 0 7.2 3.2 7.2 7s-3.1 7-7.3 7c-4 0-7.1-3.1-7.1-7zm11.3 0c0-2.3-1.7-4.3-4.2-4.3s-4.1 2-4.1 4.3 1.7 4.3 4.1 4.3c2.6.1 4.2-1.9 4.2-4.3z"/><path fill="#e6e6e6" d="m308.2 167.6v-8.6h3.1v7.6c0 2.1 1.1 3.3 2.9 3.3s3-1.3 3-3.3v-7.6h3.1v13.4h-3.1v-2.1c-.8 1.3-2.1 2.3-4.2 2.3-3.1.2-4.8-1.8-4.8-5z"/><path fill="#e6e6e6" d="m323.9 168.8v-7.1h-1.7v-2.6h1.7v-3.7h3.1v3.7h3.6v2.6h-3.6v6.6c0 1.2.6 1.7 1.7 1.7.7 0 1.3-.2 1.9-.5v2.5c-.8.5-1.7.7-2.8.7-2.3 0-3.9-.9-3.9-3.9z"/><path fill="#e6e6e6" d="m333.2 154.7h3.2v15h9.4v2.9h-12.5v-17.9z"/><path fill="#e6e6e6" d="m356 172.5v-1.7c-.9 1.1-2.3 2-4.4 2-2.6 0-4.8-1.4-4.8-4.2 0-3 2.3-4.4 5.4-4.4 1.7 0 2.6.2 3.7.5v-.2c0-1.9-1.2-2.9-3.3-2.9-1.5 0-2.6.3-3.9.8l-.8-2.5c1.5-.7 2.9-1.1 5.1-1.1 4 0 5.9 2.1 5.9 5.7v8zm.1-5.6c-.8-.3-1.9-.5-3.1-.5-2 0-3.1.8-3.1 2.1s1.1 2 2.6 2c2 0 3.5-1.1 3.5-2.9z"/><path fill="#e6e6e6" d="m364.9 170.5v2.1h-3.1v-18.7h3.1v7.4c1-1.4 2.4-2.5 4.5-2.5 3.2 0 6.3 2.5 6.3 7s-3.1 7-6.3 7c-2.1 0-3.5-1.1-4.5-2.3zm7.7-4.7c0-2.6-1.7-4.3-3.9-4.3s-3.9 1.7-3.9 4.4c0 2.6 1.8 4.3 3.9 4.3s3.9-1.7 3.9-4.4z"/><path fill="#e6e6e6" d="m376.9 170.8 1.4-2.1c1.4 1.1 3 1.7 4.4 1.7s2.1-.5 2.1-1.5-1.3-1.4-2.8-1.8c-.1 0-.2-.1-.2-.1-2-.6-4.2-1.4-4.2-4s2.1-4.1 4.8-4.1c1.7 0 3.5.6 5 1.5l-1.2 2.2c-1.3-.8-2.6-1.3-3.8-1.3s-1.9.5-1.9 1.4 1.3 1.4 2.8 1.8c.1 0 .2.1.2.1 2 .6 4.2 1.5 4.2 4 0 2.9-2.2 4.2-5 4.2-1.9 0-4-.7-5.8-2z"/><path fill="#e6e6e6" d="m505.6 163.6c0-5.1 4.1-9.2 9.3-9.2s9.2 4.2 9.2 9.2-4.1 9.2-9.3 9.2-9.2-4.1-9.2-9.2zm17.4-.1c0-4.5-3.5-8.2-8.2-8.2s-8.2 3.7-8.2 8.3c0 4.5 3.5 8.2 8.2 8.2s8.2-3.7 8.2-8.3zm-13.1 0c0-2.8 2.1-5.1 5.1-5.1 1.9 0 2.9.6 3.9 1.5l-1.4 1.7c-.8-.7-1.5-1.1-2.5-1.1-1.7 0-2.8 1.4-2.8 3.1s1.1 3 2.8 3c1.1 0 1.7-.5 2.5-1.1l1.4 1.4c-1.1 1.1-2.1 1.7-4 1.7-2.9 0-5-2.3-5-5.1z"/><path fill="#e6e6e6" d="m525.4 154.7h3.4l4.2 13.2 4.4-13.3h2.6l4.4 13.3 4.2-13.2h3.3l-6.2 18h-2.7l-4.4-12.8-4.4 12.8h-2.7z"/><path fill="#e6e6e6" d="m551.7 165.8c0-3.9 3.1-7 7.2-7 4.2 0 7.2 3.2 7.2 7s-3.1 7-7.3 7c-4.1 0-7.1-3.1-7.1-7zm11.2 0c0-2.3-1.7-4.3-4.2-4.3s-4.1 2-4.1 4.3 1.7 4.3 4.1 4.3c2.7.1 4.2-1.9 4.2-4.3z"/><path fill="#e6e6e6" d="m568.3 159.1h3.1v3c.8-2 2.4-3.4 4.8-3.3v3.2h-.2c-2.7 0-4.6 1.7-4.6 5.4v5.1h-3.1z"/><path fill="#e6e6e6" d="m577.9 153.9h3.1v11.1l5.6-6h3.8l-5.4 5.5 5.5 8h-3.5l-4.1-5.8-1.9 2v3.9h-3.1z"/><path fill="#e6e6e6" d="m590.6 165.8c0-3.9 3.1-7 7.2-7 4.2 0 7.2 3.2 7.2 7s-3.1 7-7.3 7c-4.1 0-7.1-3.1-7.1-7zm11.2 0c0-2.3-1.7-4.3-4.2-4.3s-4.1 2-4.1 4.3 1.7 4.3 4.1 4.3c2.6.1 4.2-1.9 4.2-4.3z"/><path fill="#e6e6e6" d="m607 167.6v-8.6h3.1v7.6c0 2.1 1.1 3.3 2.9 3.3s3-1.3 3-3.3v-7.6h3.1v13.4h-3.1v-2.1c-.8 1.3-2.1 2.3-4.2 2.3-3 .2-4.8-1.8-4.8-5z"/><path fill="#e6e6e6" d="m622.7 168.8v-7.1h-1.7v-2.6h1.7v-3.7h3.1v3.7h3.6v2.6h-3.6v6.6c0 1.2.6 1.7 1.7 1.7.7 0 1.3-.2 1.9-.5v2.5c-.8.5-1.7.7-2.8.7-2.3 0-3.9-.9-3.9-3.9z"/><path fill="#e6e6e6" d="m632 154.7h3.2v15h9.4v2.9h-12.6z"/><path fill="#e6e6e6" d="m654.8 172.5v-1.7c-.9 1.1-2.3 2-4.4 2-2.6 0-4.8-1.4-4.8-4.2 0-3 2.3-4.4 5.4-4.4 1.7 0 2.6.2 3.7.5v-.2c0-1.9-1.2-2.9-3.3-2.9-1.5 0-2.6.3-3.9.8l-.8-2.5c1.5-.7 2.9-1.1 5.1-1.1 4 0 5.9 2.1 5.9 5.7v8zm.1-5.6c-.8-.3-1.9-.5-3.1-.5-2 0-3.1.8-3.1 2.1s1.1 2 2.6 2c2 0 3.5-1.1 3.5-2.9z"/><path fill="#e6e6e6" d="m663.7 170.5v2.1h-3.1v-18.7h3.1v7.4c1-1.4 2.4-2.5 4.5-2.5 3.2 0 6.3 2.5 6.3 7s-3.1 7-6.3 7c-2.1 0-3.5-1.1-4.5-2.3zm7.8-4.7c0-2.6-1.7-4.3-3.9-4.3-2.1 0-3.9 1.7-3.9 4.4 0 2.6 1.8 4.3 3.9 4.3s3.9-1.7 3.9-4.4z"/><path fill="#e6e6e6" d="m675.8 170.8 1.4-2.1c1.4 1.1 3 1.7 4.4 1.7s2.1-.5 2.1-1.5-1.3-1.4-2.8-1.8c-.1 0-.2-.1-.2-.1-2-.6-4.2-1.4-4.2-4s2.1-4.1 4.8-4.1c1.7 0 3.5.6 5 1.5l-1.2 2.2c-1.3-.8-2.6-1.3-3.8-1.3s-1.9.5-1.9 1.4 1.3 1.4 2.8 1.8c.1 0 .2.1.2.1 2 .6 4.2 1.5 4.2 4 0 2.9-2.2 4.2-5 4.2-2 0-4.1-.7-5.8-2z"/><path fill="#e6e6e6" d="m61 298.6c0-5.1 4.1-9.2 9.3-9.2s9.2 4.2 9.2 9.2-4.1 9.2-9.3 9.2c-5.1 0-9.2-4.2-9.2-9.2zm17.4-.1c0-4.5-3.5-8.2-8.2-8.2s-8.2 3.7-8.2 8.3c0 4.5 3.5 8.2 8.2 8.2s8.2-3.7 8.2-8.3zm-13.1-.1c0-2.8 2.1-5.1 5.1-5.1 1.9 0 2.9.6 3.9 1.5l-1.4 1.7c-.8-.7-1.5-1.1-2.5-1.1-1.7 0-2.8 1.4-2.8 3.1s1.1 3 2.8 3c1.1 0 1.7-.5 2.5-1.1l1.4 1.4c-1.1 1.1-2.1 1.7-4 1.7-2.8.1-5-2.2-5-5.1z"/><path fill="#e6e6e6" d="m80.9 289.7h3.4l4.2 13.2 4.4-13.3h2.6l4.4 13.3 4.2-13.2h3.3l-6.2 18h-2.7l-4.4-12.8-4.4 12.8h-2.7z"/><path fill="#e6e6e6" d="m107.1 300.8c0-3.9 3.1-7 7.2-7s7.2 3.2 7.2 7-3.1 7-7.3 7c-4 0-7.1-3.1-7.1-7zm11.3 0c0-2.3-1.7-4.3-4.2-4.3s-4.1 2-4.1 4.3 1.7 4.3 4.1 4.3c2.6.1 4.2-1.9 4.2-4.3z"/><path fill="#e6e6e6" d="m123.7 294h3.1v3c.8-2 2.4-3.4 4.8-3.3v3.2h-.2c-2.7 0-4.6 1.7-4.6 5.4v5.1h-3.1z"/><path fill="#e6e6e6" d="m133.4 288.9h3.1v11.1l5.6-6h3.8l-5.4 5.5 5.5 8h-3.5l-4.1-5.8-1.9 1.9v3.9h-3.1z"/><path fill="#e6e6e6" d="m146 300.8c0-3.9 3.1-7 7.2-7s7.2 3.2 7.2 7-3.1 7-7.3 7c-4.1 0-7.1-3.1-7.1-7zm11.2 0c0-2.3-1.7-4.3-4.2-4.3s-4.1 2-4.1 4.3 1.7 4.3 4.1 4.3c2.6.1 4.2-1.9 4.2-4.3z"/><path fill="#e6e6e6" d="m162.4 302.6v-8.6h3.1v7.6c0 2.1 1.1 3.3 2.9 3.3s3-1.3 3-3.3v-7.6h3.1v13.4h-3.1v-2.1c-.8 1.3-2.1 2.3-4.2 2.3-3 .2-4.8-1.8-4.8-5z"/><path fill="#e6e6e6" d="m178.1 303.8v-7.1h-1.7v-2.7h1.7v-3.7h3.1v3.7h3.6v2.6h-3.6v6.6c0 1.2.6 1.7 1.7 1.7.7 0 1.3-.2 1.9-.5v2.5c-.8.5-1.7.7-2.8.7-2.3.1-3.9-.9-3.9-3.8z"/><path fill="#e6e6e6" d="m187.4 289.7h3.2v15h9.4v2.9h-12.5v-17.9z"/><path fill="#e6e6e6" d="m210.2 307.5v-1.7c-.9 1.1-2.3 2-4.4 2-2.6 0-4.8-1.4-4.8-4.2 0-3 2.3-4.4 5.4-4.4 1.7 0 2.6.2 3.7.5v-.2c0-1.9-1.2-2.9-3.3-2.9-1.5 0-2.6.3-3.9.8l-.8-2.5c1.5-.7 2.9-1.1 5.1-1.1 4 0 5.9 2.1 5.9 5.7v8zm.1-5.6c-.8-.3-1.9-.5-3.1-.5-2 0-3.1.8-3.1 2.1s1.1 2 2.6 2c2 0 3.5-1.1 3.5-2.9z"/><path fill="#e6e6e6" d="m219.2 305.5v2.1h-3.1v-18.7h3.1v7.4c1-1.4 2.4-2.5 4.5-2.5 3.2 0 6.3 2.5 6.3 7s-3.1 7-6.3 7c-2.2 0-3.6-1.1-4.5-2.3zm7.7-4.7c0-2.6-1.7-4.3-3.9-4.3s-3.9 1.7-3.9 4.4c0 2.6 1.8 4.3 3.9 4.3s3.9-1.7 3.9-4.4z"/><path fill="#e6e6e6" d="m231.2 305.8 1.4-2.1c1.4 1.1 3 1.7 4.4 1.7s2.1-.5 2.1-1.5-1.3-1.4-2.8-1.8c-.1 0-.2-.1-.2-.1-2-.6-4.2-1.4-4.2-4s2.1-4.1 4.8-4.1c1.7 0 3.5.6 5 1.5l-1.2 2.2c-1.3-.8-2.6-1.3-3.8-1.3s-1.9.5-1.9 1.4 1.3 1.4 2.8 1.8c.1 0 .2.1.2.1 2 .6 4.2 1.5 4.2 4 0 2.9-2.2 4.2-5 4.2-2 0-4.1-.7-5.8-2z"/><path fill="#e6e6e6" d="m360.6 298.6c0-5.1 4.1-9.2 9.3-9.2s9.2 4.2 9.2 9.2-4.1 9.2-9.3 9.2-9.2-4.2-9.2-9.2zm17.4-.1c0-4.5-3.5-8.2-8.2-8.2s-8.2 3.7-8.2 8.3c0 4.5 3.5 8.2 8.2 8.2s8.2-3.7 8.2-8.3zm-13.1-.1c0-2.8 2.1-5.1 5.1-5.1 1.9 0 2.9.6 3.9 1.5l-1.4 1.7c-.8-.7-1.5-1.1-2.5-1.1-1.7 0-2.8 1.4-2.8 3.1s1.1 3 2.8 3c1.1 0 1.7-.5 2.5-1.1l1.4 1.4c-1.1 1.1-2.1 1.7-4 1.7-2.8.1-5-2.2-5-5.1z"/><path fill="#e6e6e6" d="m380.5 289.7h3.4l4.2 13.2 4.4-13.3h2.6l4.4 13.3 4.2-13.2h3.3l-6.2 18h-2.7l-4.4-12.8-4.4 12.8h-2.7z"/><path fill="#e6e6e6" d="m406.7 300.8c0-3.9 3.1-7 7.2-7 4.2 0 7.2 3.2 7.2 7s-3.1 7-7.3 7c-4.1 0-7.1-3.1-7.1-7zm11.3 0c0-2.3-1.7-4.3-4.2-4.3s-4.1 2-4.1 4.3 1.7 4.3 4.1 4.3c2.7.1 4.2-1.9 4.2-4.3z"/><path fill="#e6e6e6" d="m423.3 294h3.1v3c.8-2 2.4-3.4 4.8-3.3v3.2h-.2c-2.7 0-4.6 1.7-4.6 5.4v5.1h-3.1z"/><path fill="#e6e6e6" d="m433 288.9h3.1v11.1l5.6-6h3.8l-5.4 5.5 5.5 8h-3.5l-4.1-5.8-1.9 2v3.9h-3.1z"/><path fill="#e6e6e6" d="m445.6 300.8c0-3.9 3.1-7 7.2-7 4.2 0 7.2 3.2 7.2 7s-3.1 7-7.3 7c-4.1 0-7.1-3.1-7.1-7zm11.3 0c0-2.3-1.7-4.3-4.2-4.3s-4.1 2-4.1 4.3 1.7 4.3 4.1 4.3c2.6.1 4.2-1.9 4.2-4.3z"/><path fill="#e6e6e6" d="m462.1 302.6v-8.6h3.1v7.6c0 2.1 1.1 3.3 2.9 3.3s3-1.3 3-3.3v-7.6h3.1v13.4h-3.1v-2.1c-.8 1.3-2.1 2.3-4.2 2.3-3.1.2-4.8-1.8-4.8-5z"/><path fill="#e6e6e6" d="m477.8 303.8v-7.1h-1.8v-2.7h1.7v-3.7h3.1v3.7h3.6v2.6h-3.6v6.6c0 1.2.6 1.7 1.7 1.7.7 0 1.3-.2 1.9-.5v2.5c-.8.5-1.7.7-2.8.7-2.2.1-3.8-.9-3.8-3.8z"/><path fill="#e6e6e6" d="m487.1 289.7h3.2v15h9.4v2.9h-12.5v-17.9z"/><path fill="#e6e6e6" d="m509.9 307.5v-1.7c-.9 1.1-2.3 2-4.4 2-2.6 0-4.8-1.4-4.8-4.2 0-3 2.3-4.4 5.4-4.4 1.7 0 2.6.2 3.7.5v-.2c0-1.9-1.2-2.9-3.3-2.9-1.5 0-2.6.3-3.9.8l-.8-2.5c1.5-.7 2.9-1.1 5.1-1.1 4 0 5.9 2.1 5.9 5.7v8zm.1-5.6c-.8-.3-1.9-.5-3.1-.5-2 0-3.1.8-3.1 2.1s1.1 2 2.6 2c2 0 3.5-1.1 3.5-2.9z"/><path fill="#e6e6e6" d="m518.8 305.5v2.1h-3.1v-18.7h3.1v7.4c1-1.4 2.4-2.5 4.5-2.5 3.2 0 6.3 2.5 6.3 7s-3.1 7-6.3 7c-2.2 0-3.5-1.1-4.5-2.3zm7.7-4.7c0-2.6-1.7-4.3-3.9-4.3s-3.9 1.7-3.9 4.4c0 2.6 1.8 4.3 3.9 4.3s3.9-1.7 3.9-4.4z"/><path fill="#e6e6e6" d="m530.8 305.8 1.4-2.1c1.4 1.1 3 1.7 4.4 1.7s2.1-.5 2.1-1.5-1.3-1.4-2.8-1.8c-.1 0-.2-.1-.2-.1-2-.6-4.2-1.4-4.2-4s2.1-4.1 4.8-4.1c1.7 0 3.5.6 5 1.5l-1.2 2.2c-1.3-.8-2.6-1.3-3.8-1.3s-1.9.5-1.9 1.4 1.3 1.4 2.8 1.8c.1 0 .2.1.2.1 2 .6 4.2 1.5 4.2 4 0 2.9-2.2 4.2-5 4.2-1.9 0-4.1-.7-5.8-2z"/><path fill="#e6e6e6" d="m659.5 298.6c0-5.1 4.1-9.2 9.3-9.2s9.2 4.2 9.2 9.2-4.1 9.2-9.3 9.2-9.2-4.2-9.2-9.2zm17.3-.1c0-4.5-3.5-8.2-8.2-8.2s-8.2 3.7-8.2 8.3c0 4.5 3.5 8.2 8.2 8.2 4.8 0 8.2-3.7 8.2-8.3zm-13-.1c0-2.8 2.1-5.1 5.1-5.1 1.9 0 2.9.6 3.9 1.5l-1.4 1.7c-.8-.7-1.5-1.1-2.5-1.1-1.7 0-2.8 1.4-2.8 3.1s1.1 3 2.8 3c1.1 0 1.7-.5 2.5-1.1l1.4 1.4c-1.1 1.1-2.1 1.7-4 1.7-2.9.1-5-2.2-5-5.1z"/><path fill="#e6e6e6" d="m679.3 289.7h3.4l4.2 13.2 4.4-13.3h2.6l4.4 13.3 4.2-13.2h3.3l-6.2 18h-2.6l-4.4-12.8-4.4 12.8h-2.7z"/><path fill="#e6e6e6" d="m705.5 300.8c0-3.9 3.1-7 7.2-7 4.2 0 7.2 3.2 7.2 7s-3.1 7-7.3 7c-4 0-7.1-3.1-7.1-7zm11.3 0c0-2.3-1.7-4.3-4.2-4.3s-4.1 2-4.1 4.3 1.7 4.3 4.1 4.3c2.7.1 4.2-1.9 4.2-4.3z"/><path fill="#e6e6e6" d="m722.1 294h3.1v3c.8-2 2.4-3.4 4.8-3.3v3.2h-.2c-2.7 0-4.6 1.7-4.6 5.4v5.1h-3.1z"/><path fill="#e6e6e6" d="m731.8 288.9h3.1v11.1l5.6-6h3.8l-5.4 5.5 5.5 8h-3.5l-4.1-5.8-1.9 2v3.9h-3.1z"/><path fill="#e6e6e6" d="m744.4 300.8c0-3.9 3.1-7 7.2-7 4.2 0 7.2 3.2 7.2 7s-3.1 7-7.3 7c-4.1 0-7.1-3.1-7.1-7zm11.3 0c0-2.3-1.7-4.3-4.2-4.3s-4.1 2-4.1 4.3 1.7 4.3 4.1 4.3c2.6.1 4.2-1.9 4.2-4.3z"/><path fill="#e6e6e6" d="m760.9 302.6v-8.6h3.1v7.6c0 2.1 1.1 3.3 2.9 3.3s3-1.3 3-3.3v-7.6h3.1v13.4h-3.1v-2.1c-.8 1.3-2.1 2.3-4.2 2.3-3.1.2-4.8-1.8-4.8-5z"/><path fill="#e6e6e6" d="m776.6 303.8v-7.1h-1.7v-2.7h1.7v-3.7h3.1v3.7h3.6v2.6h-3.6v6.6c0 1.2.6 1.7 1.7 1.7.7 0 1.3-.2 1.9-.5v2.5c-.8.5-1.7.7-2.8.7-2.3.1-3.9-.9-3.9-3.8z"/><path fill="#e6e6e6" d="m785.9 289.7h3.2v15h9.4v2.9h-12.5v-17.9z"/><path fill="#e6e6e6" d="m808.7 307.5v-1.7c-.9 1.1-2.3 2-4.4 2-2.6 0-4.8-1.4-4.8-4.2 0-3 2.3-4.4 5.4-4.4 1.7 0 2.6.2 3.7.5v-.2c0-1.9-1.2-2.9-3.3-2.9-1.5 0-2.6.3-3.9.8l-.8-2.5c1.5-.7 2.9-1.1 5.1-1.1 4 0 5.9 2.1 5.9 5.7v8zm.1-5.6c-.8-.3-1.9-.5-3.1-.5-2 0-3.1.8-3.1 2.1s1.1 2 2.6 2c2 0 3.5-1.1 3.5-2.9z"/><path fill="#e6e6e6" d="m817.6 305.5v2.1h-3.1v-18.7h3.1v7.4c1-1.4 2.4-2.5 4.5-2.5 3.2 0 6.3 2.5 6.3 7s-3.1 7-6.3 7c-2.1 0-3.5-1.1-4.5-2.3zm7.7-4.7c0-2.6-1.7-4.3-3.9-4.3-2.1 0-3.9 1.7-3.9 4.4 0 2.6 1.8 4.3 3.9 4.3 2.2 0 3.9-1.7 3.9-4.4z"/><path fill="#e6e6e6" d="m829.6 305.8 1.4-2.1c1.4 1.1 3 1.7 4.4 1.7s2.1-.5 2.1-1.5-1.3-1.4-2.8-1.8c-.1 0-.2-.1-.2-.1-2-.6-4.2-1.4-4.2-4s2.1-4.1 4.8-4.1c1.7 0 3.5.6 5 1.5l-1.2 2.2c-1.3-.8-2.6-1.3-3.8-1.3s-1.9.5-1.9 1.4 1.3 1.4 2.8 1.8c.1 0 .2.1.2.1 2 .6 4.2 1.5 4.2 4 0 2.9-2.2 4.2-5 4.2-1.9 0-4-.7-5.8-2z"/><path fill="#e6e6e6" d="m206.3 434.2c0-5.1 4.1-9.2 9.3-9.2s9.2 4.2 9.2 9.2-4.1 9.2-9.3 9.2-9.2-4.1-9.2-9.2zm17.4-.1c0-4.5-3.5-8.2-8.2-8.2s-8.2 3.7-8.2 8.3c0 4.5 3.5 8.2 8.2 8.2s8.2-3.7 8.2-8.3zm-13.1-.1c0-2.8 2.1-5.1 5.1-5.1 1.9 0 2.9.6 3.9 1.5l-1.4 1.7c-.8-.7-1.5-1.1-2.5-1.1-1.7 0-2.8 1.4-2.8 3.1s1.1 3 2.8 3c1.1 0 1.7-.5 2.5-1.1l1.4 1.4c-1.1 1.1-2.1 1.7-4 1.7-2.9.1-5-2.2-5-5.1z"/><path fill="#e6e6e6" d="m226.1 425.3h3.4l4.2 13.2 4.4-13.3h2.6l4.4 13.3 4.2-13.2h3.3l-6.2 18h-2.7l-4.4-12.8-4.4 12.8h-2.7z"/><path fill="#e6e6e6" d="m252.4 436.4c0-3.9 3.1-7 7.2-7 4.2 0 7.2 3.2 7.2 7s-3.1 7-7.3 7c-4.1 0-7.1-3.1-7.1-7zm11.2 0c0-2.3-1.7-4.3-4.2-4.3s-4.1 2-4.1 4.3 1.7 4.3 4.1 4.3c2.7.1 4.2-1.9 4.2-4.3z"/><path fill="#e6e6e6" d="m269 429.7h3.1v3c.8-2 2.4-3.4 4.8-3.3v3.2h-.2c-2.7 0-4.6 1.7-4.6 5.4v5.1h-3.1z"/><path fill="#e6e6e6" d="m278.6 424.5h3.1v11.1l5.6-6h3.8l-5.4 5.5 5.5 8h-3.5l-4.1-5.8-1.9 2v3.9h-3.1z"/><path fill="#e6e6e6" d="m291.3 436.4c0-3.9 3.1-7 7.2-7 4.2 0 7.2 3.2 7.2 7s-3.1 7-7.3 7c-4.1 0-7.1-3.1-7.1-7zm11.2 0c0-2.3-1.7-4.3-4.2-4.3s-4.1 2-4.1 4.3 1.7 4.3 4.1 4.3c2.6.1 4.2-1.9 4.2-4.3z"/><path fill="#e6e6e6" d="m307.7 438.2v-8.6h3.1v7.6c0 2.1 1.1 3.3 2.9 3.3s3-1.3 3-3.3v-7.6h3.1v13.4h-3.1v-2.1c-.8 1.3-2.1 2.3-4.2 2.3-3 .2-4.8-1.8-4.8-5z"/><path fill="#e6e6e6" d="m323.4 439.4v-7.1h-1.7v-2.6h1.7v-3.7h3.1v3.7h3.6v2.6h-3.6v6.6c0 1.2.6 1.7 1.7 1.7.7 0 1.3-.2 1.9-.5v2.5c-.8.5-1.7.7-2.8.7-2.3 0-3.9-.9-3.9-3.9z"/><path fill="#e6e6e6" d="m332.7 425.3h3.2v15h9.4v2.9h-12.5v-17.9z"/><path fill="#e6e6e6" d="m355.5 443.1v-1.7c-.9 1.1-2.3 2-4.4 2-2.6 0-4.8-1.4-4.8-4.2 0-3 2.3-4.4 5.4-4.4 1.7 0 2.6.2 3.7.5v-.2c0-1.9-1.2-2.9-3.3-2.9-1.5 0-2.6.3-3.9.8l-.8-2.5c1.5-.7 2.9-1.1 5.1-1.1 4 0 5.9 2.1 5.9 5.7v8zm.1-5.6c-.8-.3-1.9-.5-3.1-.5-2 0-3.1.8-3.1 2.1s1.1 2 2.6 2c2 0 3.5-1.1 3.5-2.9z"/><path fill="#e6e6e6" d="m364.4 441.1v2.1h-3.1v-18.7h3.1v7.4c1-1.4 2.4-2.5 4.5-2.5 3.2 0 6.3 2.5 6.3 7s-3.1 7-6.3 7c-2.1 0-3.5-1.1-4.5-2.3zm7.7-4.7c0-2.6-1.7-4.3-3.9-4.3-2.1 0-3.9 1.7-3.9 4.4 0 2.6 1.8 4.3 3.9 4.3 2.2 0 3.9-1.7 3.9-4.4z"/><path fill="#e6e6e6" d="m376.5 441.4 1.4-2.1c1.4 1.1 3 1.7 4.4 1.7s2.1-.5 2.1-1.5-1.3-1.4-2.8-1.8c-.1 0-.2-.1-.2-.1-2-.6-4.2-1.4-4.2-4s2.1-4.1 4.8-4.1c1.7 0 3.5.6 5 1.5l-1.2 2.2c-1.3-.8-2.6-1.3-3.8-1.3s-1.9.5-1.9 1.4 1.3 1.4 2.8 1.8c.1 0 .2.1.2.1 2 .6 4.2 1.5 4.2 4 0 2.9-2.2 4.2-5 4.2-2 0-4.1-.7-5.8-2z"/><path fill="#e6e6e6" d="m505.1 434.2c0-5.1 4.1-9.2 9.3-9.2s9.2 4.2 9.2 9.2-4.1 9.2-9.3 9.2-9.2-4.1-9.2-9.2zm17.4-.1c0-4.5-3.5-8.2-8.2-8.2s-8.2 3.7-8.2 8.3c0 4.5 3.5 8.2 8.2 8.2s8.2-3.7 8.2-8.3zm-13.1-.1c0-2.8 2.1-5.1 5.1-5.1 1.9 0 2.9.6 3.9 1.5l-1.4 1.7c-.8-.7-1.5-1.1-2.5-1.1-1.7 0-2.8 1.4-2.8 3.1s1.1 3 2.8 3c1.1 0 1.7-.5 2.5-1.1l1.4 1.4c-1.1 1.1-2.1 1.7-4 1.7-2.9.1-5-2.2-5-5.1z"/><path fill="#e6e6e6" d="m525 425.3h3.4l4.2 13.2 4.4-13.3h2.6l4.4 13.3 4.2-13.2h3.3l-6.2 18h-2.7l-4.4-12.8-4.4 12.8h-2.7z"/><path fill="#e6e6e6" d="m551.2 436.4c0-3.9 3.1-7 7.2-7 4.2 0 7.2 3.2 7.2 7s-3.1 7-7.3 7c-4.1 0-7.1-3.1-7.1-7zm11.2 0c0-2.3-1.7-4.3-4.2-4.3s-4.1 2-4.1 4.3 1.7 4.3 4.1 4.3c2.7.1 4.2-1.9 4.2-4.3z"/><path fill="#e6e6e6" d="m567.8 429.7h3.1v3c.8-2 2.4-3.4 4.8-3.3v3.2h-.2c-2.7 0-4.6 1.7-4.6 5.4v5.1h-3.1z"/><path fill="#e6e6e6" d="m577.5 424.5h3.1v11.1l5.6-6h3.8l-5.4 5.5 5.5 8h-3.5l-4.1-5.8-1.9 2v3.9h-3.1z"/><path fill="#e6e6e6" d="m590.1 436.4c0-3.9 3.1-7 7.2-7 4.2 0 7.2 3.2 7.2 7s-3.1 7-7.3 7c-4.1 0-7.1-3.1-7.1-7zm11.2 0c0-2.3-1.7-4.3-4.2-4.3s-4.1 2-4.1 4.3 1.7 4.3 4.1 4.3c2.6.1 4.2-1.9 4.2-4.3z"/><path fill="#e6e6e6" d="m606.5 438.2v-8.6h3.1v7.6c0 2.1 1.1 3.3 2.9 3.3s3-1.3 3-3.3v-7.6h3.1v13.4h-3.1v-2.1c-.8 1.3-2.1 2.3-4.2 2.3-3 .2-4.8-1.8-4.8-5z"/><path fill="#e6e6e6" d="m622.2 439.4v-7.1h-1.7v-2.6h1.7v-3.7h3.1v3.7h3.6v2.6h-3.6v6.6c0 1.2.6 1.7 1.7 1.7.7 0 1.3-.2 1.9-.5v2.5c-.8.5-1.7.7-2.8.7-2.3 0-3.9-.9-3.9-3.9z"/><path fill="#e6e6e6" d="m631.5 425.3h3.2v15h9.4v2.9h-12.5v-17.9z"/><path fill="#e6e6e6" d="m654.3 443.1v-1.7c-.9 1.1-2.3 2-4.4 2-2.6 0-4.8-1.4-4.8-4.2 0-3 2.3-4.4 5.4-4.4 1.7 0 2.6.2 3.7.5v-.2c0-1.9-1.2-2.9-3.3-2.9-1.5 0-2.6.3-3.9.8l-.8-2.5c1.5-.7 2.9-1.1 5.1-1.1 4 0 5.9 2.1 5.9 5.7v8zm.1-5.6c-.8-.3-1.9-.5-3.1-.5-2 0-3.1.8-3.1 2.1s1.1 2 2.6 2c2 0 3.5-1.1 3.5-2.9z"/><path fill="#e6e6e6" d="m663.3 441.1v2.1h-3.1v-18.7h3.1v7.4c1-1.4 2.4-2.5 4.5-2.5 3.2 0 6.3 2.5 6.3 7s-3.1 7-6.3 7c-2.2 0-3.6-1.1-4.5-2.3zm7.7-4.7c0-2.6-1.7-4.3-3.9-4.3s-3.9 1.7-3.9 4.4c0 2.6 1.8 4.3 3.9 4.3s3.9-1.7 3.9-4.4z"/><path fill="#e6e6e6" d="m675.3 441.4 1.4-2.1c1.4 1.1 3 1.7 4.4 1.7s2.1-.5 2.1-1.5-1.3-1.4-2.8-1.8c-.1 0-.2-.1-.2-.1-2-.6-4.2-1.4-4.2-4s2.1-4.1 4.8-4.1c1.7 0 3.5.6 5 1.5l-1.2 2.2c-1.3-.8-2.6-1.3-3.8-1.3s-1.9.5-1.9 1.4 1.3 1.4 2.8 1.8c.1 0 .2.1.2.1 2 .6 4.2 1.5 4.2 4 0 2.9-2.2 4.2-5 4.2-2 0-4.1-.7-5.8-2z"/></g>
</svg>
