<?xml version="1.0" encoding="utf-8"?>
<!-- Generator: Adobe Illustrator 23.0.1, SVG Export Plug-In . SVG Version: 6.00 Build 0)  -->
<svg version="1.2" baseProfile="tiny" id="Layer_1" xmlns="http://www.w3.org/2000/svg" xmlns:xlink="http://www.w3.org/1999/xlink"
	 x="0px" y="0px" viewBox="0 0 900 600" xml:space="preserve">
<g>
	<path d="M639.11,182.44l0.1-0.1C639.12,182.34,639.11,182.25,639.11,182.44z"/>
	<path d="M676.44,242.79l-0.1,0.1C676.47,242.96,676.44,243.01,676.44,242.79z"/>
	<path d="M652.12,181.64c-0.15-0.03-0.18-0.02-0.1,0.1L652.12,181.64z"/>
	<path d="M532.51,88.26l0.1-0.1C532.45,88.12,532.47,88.06,532.51,88.26z"/>
	<path d="M774.73,107.58c0-0.8,0-1.4,0.1-2c7.04-43.95-55.34-63.86-73.06-21.02c-2.02,4.04,0.56,0.65-11.21-3.5
		c-7.28,0.99-7.44,1.11-8.71,0.7c-31-10.01-52.66-11.22-61.65-20.22c-0.9-0.8-2.1-1.3-3.2-1.9c-0.48-4.31-1.34-6.65-6.51-5.1
		c-0.49-4.22-3.99-2.3-10.31-3.2c0-4.83,0.97-10.5-1.8-20.92c-2.21-8.3-8.08-17.46-15.51-21.82c-3.23-1.89-0.8,1.94,1.6,1.7
		c28.82,23.85,9.45,84.27-25.52,88.58c-8.09,1-21.74-2.21-15-2.39c-6.63-0.32-13.11-3.22-18.73-9.42
		c-9.71-10.71-12.18-28.53-8.91-41.64c6.62-1.53,0.36,4.33,3.5,20.82c1.27,6.69,6.06,20.12,12.68,21.88
		c-0.36-1.98-3.9-1.59-7.28-10.17c-3.32-8.44-6.99-18.6-3.8-31.33c5.22,0.65,21.04,5.32,23.82,6.71c-2.61,1.57-6.43,2.63-9.91,6.11
		c-0.7,0.6-1.6,1-2.4,1.4c-1.7,5.6,0.2,10.11,5.6,12.21c8.85-13.27,0.59-1.04,7.61-11.81c2.75-4.21,3.49-3.32,2.4-1.5
		c-0.38,1.34-2.55,8.64-3.5,10.81c-2.23,5.05,4.71,9.78,7.61,6.11c7.32-9.28-0.5-16.8,3.8-17.52c2.56-0.18,9.97-4.08,6.31-11.41
		c-2.51-4.39-3.97-5.02-6.71-4.9c-2.3,0.1-4.2,0.7-5.91,2.3c-8.71-2.4-17.42-4.9-26.22-7.31c0.96-7.66,15.95-32.31,38.43-30.33
		c1.66,0.15,5.64,2.32,9.41,4.2c2.33-5.25-32.06-16.9-49.44,24.82c0,0.46-1.77,0.72-3.3-0.5c0.97-4.83,6.64-15.54,14.91-23.22
		c17.5-16.25,41.5-12.8,50.34,9.51c13.62,34.36-11.32,71.44-36.31,74.05c26.16-2.33,49.79-40.12,38.61-72.85
		c-4.62-13.51-12.83-17.83-14.41-19.42c2.9,0.13,2.33,0.32,9.01,3.1c-11.1-11.1-46.81-13.52-62.46,23.82
		c-1.82,4.33-0.79,4.06-5.2,2.8c-6.66-1.9-20.2-5.81-24.22-7.21c-3.56-1.24-8.63,1.64-6.11,6.41c0.55,1.64,11.64,4.73,20.54,7.18
		c-4.3-1.31-8.96-2.73-14.03-4.28c-2.03-0.62-0.58-0.71-0.1-1.9c0.23-0.79,0.43-3.57,0.5-4.1c0.1,0.03,64.49,16.69,66.06,20.22
		c-2.08,4.16,2.49,6.62-41.64-6.67c-0.14,0.85-6.53,35.55,16.02,48.7c14.12,8.24,26.25,11.45,40.84,4.2
		c8.58-4.26,16.4-12.94,20.42-20.82c4.48-8.77,2.8,2.95,1.8,5.71c-3.98,10.95-9.02,68.98-0.1,75.67c1.34-3.75-3-11.99-2.3-24.12
		c0.12-2.16,0.58-43.33,3.2-48.84c1.47-3.09,3.66-10.61,1.3-14.01c-1.01-1.45-0.54-1.22,0.9-3.8c13.17,3.81,10.71,3.83,15.01,0.8
		c1.48-1.04,1.62,0.11,3.4-0.6c-3.74-4.76-3.08-3.85-2-6.01c3.94,0.79,6.3,0.66,6.51,3.8c0.32,5.03,0.81,6.99-2,8.41
		c-2.71,1.36-6.49,5.1-6.71,6.61c-3.49,15.95-0.68,32.41,3.2,48.34c3.99,16.36-1.1,23.92,1,25.32c1.89,0.88,5.9,10.16,7.01,12.31
		c4.21,8.19,3.58,12.04,5.7,26.72c0.63,4.33,1.97,5.28,2.1,6.31c0.1,0.8-0.3,1.6-0.4,2.4c4.3,4.3,6.91,9.41,8.51,15.11
		c0.65,2.94,2.56,3.25,3,8.71c1.01,12.4,1.73,13.92-2.2,25.92c-3.04,9.28-12.14,16.45-22.92,14.91c-5.99-17.96,0.2-18.9-8.21-30.93
		c-4.9-7.01-12.41-49.85-12.41-61.05c0-37.57-8.18,11.14,3.9,38.33c0.31,0.7,0.79,1.3,0.8,2c0.05,2.9,1.1,5.6,1.7,8.41
		c0.07,0.23-0.13,4.16,0.5,6.21c2.92,9.43,6.99,8.8,7.91,15.21c1.07,7.45-0.21,4.89,0.3,9.11c1.74,14.34,6.01,19,11.71,30.03
		c1.76,3.42,1.61,3.04,5.91,21.22c0.42,2.95-0.78,7.01,0.8,14.21c-3.49,1.25-1.45,2.09-4.5,8.41c-4.55,9.42-6.2,21.52-9.01,22.22
		c-1.47,23.49,1.25,72.94-1.8,84.87c-0.16,0.61-0.89,5.22,1.7,5.5c1.62,0.27,1.97-2.05,1.6,10.41
		c-0.38,12.73-15.95,23.57-16.71,51.85c-0.26,9.42,4.46,42.6,1,58.65c-0.32,0.96-0.38,1-3,1c-6.06,12.11-1.9,19.12-7.51,30.33
		c7.26,10.46,18.44,1.05,31.43,6.51c10.81,4.54,29.79,1.44,34.13-1.6c0.91-3.64-2.69-9.82,2.4-8.41c3.43,0.95,6.91-0.41,10.01-1.3
		c5.89,2.14,11.88,4.5,19.52,3.2c2.6-0.44,7.28,1.75,13.41-0.2c3.89-1.24,6.11-0.07,12.41-4c-2.54-5.72,3.16-7.03-4.6-13.31
		c-2-1.62-2.54,1.1-13.11-5c-19.67-11.36-12.71-16.11-21.32-19.62c2.09-16.05-0.14-12.3,3.5-44.74c3.38-30.12-0.14-37.59,1.7-39.23
		c3.85-3.44,0.44-12.95,5.2-18.52c9.47,0,13.04,0.85,13.51-3.2c0.55-4.69,1.46-15.12-0.5-19.42c-1.85-4.07-0.36-6.93-1.5-21.22
		c-1.29-16.14,3.25-12.23-1.6-49.84c-0.43,0.43-1.06,0.36-0.7,2.5c0.54,4.83,2.52,32.66,0.2,36.83c-0.42,0.76-0.2,1.2,0.5,8.81
		c1.37,14.8-1.26,19,1.2,22.22c1.63,2.12,1.77,6.31,1.6,8.21c-1.86,20.61,2.84,10.14-24.02,14.61c-1.22-8.08,2.55-13.69,3.5-18.72
		c-10.11,15.16-3.9,21.8-9.61,21.02c-34.21-4.66-35.26-4.25-43.84-8.41c-5.63-2.73-7.41-0.14-7.41-3.9c0-1.1,0.28-2.1,0.3-3.2
		c0.22-9.61-0.63-10.67,0.2-19.52c1.28-13.65-0.93-17.83-0.2-25.62c1.39-14.83,1.25-25.36,0.4-34.23c-0.54-3.24,0.5-1.18,7.41-20.22
		c4.44-12.23,3.68-5.67,5.81-9.91c2.36,1.42,1.18,1.34,2.8-1.5c1.5,0.1,0.7,1.7,1.8,2.2c1.08,0.1,0.71-2.59,1.8-1.5
		c0.6,0.8-0.2,2.3,1.7,2.6c-2.65,0.79-6.11,1.04,3.45,1.93c-0.84-0.15-1.71-0.35-2.65-0.63c0.52-2.61,0.23-3.91,8.51-0.6
		c0.52,0,0.4,1.1,0.4,1.2c-2.28,0.36-1.36-0.41,1.5,1.4c1.1-0.5,0.3-1.7,0.9-2.5c2-0.5,1.8,1.5,2.5,2.3c3.44-3.08,2.21,1.6,3.8,0.8
		c2.25-1.68,2.01-0.37,2.4,2.8c1.5-0.3,0.9-1.7,1.5-2.3c0.59-0.29,0.29-0.29,3.4,0.4c0,0.34,0.34-0.5,0.7-0.5
		c0.9,0.2,1.8,0.6,2.8,0.9c0.32,3.49,0.69,4.57,2.1,0.8c1.94,2.72,0.62,3.08,2.5,1.2c1.3,0.3,2.9,0.3,4.2,1.3
		c2.51-2.3,9.12,0.47-2.2,1.8c1.86,0.65,2.24,0.5,8.91,0.5c1.2,4.3,3.3,8.01,5.71,12.31c0.22-2.91,1.25-1.48-4.79-13.1
		c3.05-2.42,5.17,4.28,10.7,17.71c0.39-0.79,1.18-0.48,0.4-3.2c-8.89-24.45-9.6-17.74-8.71-28.12c2.89-33.54,6.91-6.92,4.7-45.24
		c0-2.29-0.74-0.6-0.4-10.71c0.62-18.57-4.17-23.79-4.35-26.36c3.77-1.37-1.51-15.61,4.75-24.68c4.9-7.11,8.53-26.54,5.81-37.53
		c-2.37-9.56,2.99-6.6,6.01-22.92c1.11-6.01-0.66-1.64,0.7-22.72c1-4.99,2.26,4.94,15.81,9.91c8.17,3,18.12,6.34,26.32,3.6
		c11.05-3.69,19.5-10.86,25.22-23.62c2.77-6.18-0.26-2.63,15.41,0.1C797.1,111.33,782.51,110.91,774.73,107.58z M486.07,33.81
		c-2.59-0.35-2.45-2.69-1.5-3.5C488.28,26.59,490.21,34.37,486.07,33.81z M557.54,51.13c1.07-3.33-1.83-4.36-5.1-5.91
		c4.85-2.11,8.5,0.59,9.11,4.6c0.66,4.41-3.89,8.68-7.21,8.11C552.29,52.48,555.76,56.62,557.54,51.13z M552.93,58.63
		c0.95,4.6,2.76,10.75-3.1,16.61c-0.7-0.5-1.3-0.9-1.7-1.2c-0.5-2.02,3.47-18.88,3.9-19.32C553.31,55.37,552.19,55.02,552.93,58.63z
		 M549.14,58.04c0.09-0.07,0.19-0.14,0.19-0.21C549.33,58.09,549.24,58.01,549.14,58.04z M550.63,54.53
		c-5.91,4.2-9.11,10.11-12.81,15.71c-2.2-0.63-3.2-3.56-3.4-5.81C534.42,61.92,546.15,52.16,550.63,54.53z M604.68,53.43
		c2.3,3.2,2.5,6.61,1.2,10.61c-6.41-1.42-2.47-1.67-4-5.71C600.15,53.8,599.05,53.83,604.68,53.43z M599.27,58.03
		c0.63,0,0.1,1.11-0.1,0.3C599.17,58.23,599.27,58.13,599.27,58.03z M597.07,65.54c0.4-1.3,0.3-2.6,1.5-3.5
		c4.18,5.01-0.11,1.65,7.61,5.5C608.78,64.07,612.08,71.23,597.07,65.54z M610.08,61.44c-0.52,1.35,0.27,2.53-0.4,3.2
		c-0.31-0.21-1.54-0.17-1.2-2.5c0.61-4.17-1.38-6.82-1.8-8.51C609.3,55.37,611.22,58.5,610.08,61.44z M612.08,55.53
		c2.3,0.1,2.1,1.6,2.2,3C612.68,57.93,612.68,57.93,612.08,55.53z M653.82,595.01c-0.14,6.83-31.32,1-32.23,1.4
		c-0.4,0.1-1,0.1-1.4-0.1c-3.02-1.29-7.1-0.85-8.01-1.3c-4.85-1.79-5.87,2.25-17.12-1.3c-3.54-1.33-1.93-0.07,0.5-11.61
		c1.16-5.5-0.27-14.68,2.3-12.11c3.45,3.45,4.29,5.21,7.81,3.9c4.67-1.74,3.93-5.15,10.91-9.41c1.6-0.97,4.07-5.84,7.21-2.7
		c3.26,2.85,0.57,3.44-0.7,4.2c-2.26,1.37-8.12,5.22-6.01,6.81c2.46-1.79,10.09-7.13,11.91-4.7c2.02,2.02-2.84-0.64-7.61,4.5
		c-2.89,3.11-2.06,4.56,0,3.3c4.59-2.81,5.46-3.91,7.91-3.5c1.53,0.34,3.8-1.1,3.8,0.8c-3.39,0.68-9.3,4.11-7.21,5.91
		c3.1-1.1,5.81-4.1,10.21-2.6c-2.12,1.14-4.62,2.12-5.1,3.9c-1.11,2.22,1.57,0.64,7.11-0.8c0.6-0.2,0.6-0.1,1.9,0.7
		c-0.5,0.6-0.9,1.3-1.4,2.1c1.3,0.8,2-0.4,3.1-0.7C652.38,587.75,654.03,584.94,653.82,595.01z M679.84,556.37
		c-3.72,1.12-10.45,3.66-9.51,7.41c1.81,0,2.1-2.68,9.01-4c4.04-0.77,3.3,1.08,2.4,1.3c-2.52,0.98-6.69,3.3-5,5.4
		c2.7-0.7,5.2-2.5,8.71-2.5c-1.3,1.6-3.4,2.1-3.8,4.2c2.18,0.31,0.32,0.55,6.51-1c6.95-1.16-9,6.02,4.4,2.1c2.39-0.7,2.5,0.9,3.6,2
		c4.9,1.2,9.51,2.7,14.21,4.1c0.5,2.6,0.9,5.2,1.4,7.81c-2.8,4.48-14.18,5.38-16.61,5.2c-3.9,0-0.62-1.26-9.91-0.8
		c-5.11,0.25-9.62-0.93-16.11-2.9c-3.64-0.73-0.74,0.24-7.31,1c-5.27,0.62-2.24,2.67-15.21-4.2c4.37-4.95,2.95-13.28,6.11-24.02
		c0.98-4.88,5.52,4.24,8.41,5.2c7.76-4.71,7.15-11.73,11.81-12.21C675.81,550.17,679.18,553.4,679.84,556.37z M660.43,560.27
		c1.49-0.59,1.67-0.06,1.4,0.3C661.4,561.43,661.02,560.72,660.43,560.27z M651.82,453.68c0.51,4.35,1.46,4.99-0.3,9.41
		c-11.01,27.7-1.06,37.74,0.3,48.44c4.01,31.41,0.5,31.42,3.2,42.24c2.68-4.02-0.1-33.8-1.1-42.04c-0.17-1.39-6.31-24.4-6.31-30.33
		c0-1.97,3.5-10.63,6.11-20.42c1.41-5.31-0.72-11.35-0.3-12.61c1.85-1.23,11.66,2.74,18.12,0.4c2.33-0.84,0.86-2.01,3.9-1.7
		c-0.04,0.04-0.07,0.07-0.08,0.08c0.01-0.01,0.04-0.04,0.08-0.08c0.55-0.65,5.83-1.2,7.01-1.2c0.4,1.59-1.46,1.6-1.7,6.11
		c-0.71,13.44-7.69,14.31-3.9,16.41c0.27,5.49,1.39,12.75,0.3,23.22c-9.4,90.06-0.53,40.44-12.71,66.16c-1.9,0.4-3.7,0.1-5.71,0.1
		c-4.15-4.53-2.96-4.49-7.21-1.3c-4.4,15.42-0.29,8.68-6.61,23.42c-2.6-1.04-5.67-2.02-6.51-3.6c-1.54-2.93-4.27-4.84-6.31-7.21
		c-2.05-2.38-4.91-9.17-9.31-10.71c-0.85-1.17-1.02-1.48-1.2-14.91c-0.33-25.12,13.61-47.17,14.01-61.55
		c0.38-3.79,3.15-7.46,3.9-15.51c0.51-2.04,2.14-1.58,3.4-3.3c4.38-5.97,2.06-10.85,6.51-15.61
		C651.32,447.79,651.17,448.16,651.82,453.68z M619.29,440.57c6.84,1.71,10.7,5.18,19.62,5.6c-0.9,2.8-3,3.6-5.1,4.6
		c6.59,1.55,6.51-7.21,12.91-3.6c-0.8,1.2-1.6,2.2-2.3,3.2c1.82,8.62-8.99,14.59-7.51,16.71c0.86,1.24,0.58,1.24-3.8,11.11
		c0,0.2-0.3,0.3-0.7,0.8c-0.4-0.9-0.6-1.7-0.5-2.9c-1.1,2.1-1.1,2.1-0.9,6.71c7.33,2.44-9.42,34.46-8.61,41.24
		c0.13,1.05-2.8,13.35-2.8,33.93c-5.86,5.33-6.85,5.9-7.91,8.11c-0.46,0.96-3.13,2.68-3.5,3.9c-1.88,6.07-12.81-3.29-8.21-6.51
		c1.3,0.6,0.4,2,1.1,2.8c0.9,0.6,1.2-0.5,2.1-0.6c1.9,0.7,4,2.2,6.61,1c-0.6-1.6-2-1.2-3-1.7c-5.83-2.91-2.18,1.36-0.7-7.21
		c0.73-4.25-1.1-2.63-1.1-5.71c0-7.61-1.33-12.18-1.4-18.52c-0.62-53.37-2.89-38.79,8.31-64.66
		C623.75,441.48,617.66,451.95,619.29,440.57z M604.28,556.07c-0.1,0.8-0.2,1.5-0.4,2.4C603.38,557.17,603.38,557.17,604.28,556.07z
		 M698.76,87.56c-0.5,0.7-0.5,0.1-0.6-0.1C698.36,87.56,698.56,87.56,698.76,87.56z M693.46,84.16c1.8,0.2,1.8,1.7,2.3,2.7
		c-0.19,1.03-1.51,1.46-1.25,2.59C692.24,87.8,692.77,88.94,693.46,84.16z M690.85,86.96c-0.5-1.7-0.8-2.7-1-3.8
		C691.95,83.45,692.05,83.95,690.85,86.96z M675.84,82.25c7.98,2.54,7.92-0.33,6.31,6.11c-3.18,1.87-1.88-0.12-24.62-6.11
		c-6.65-1.75-28.97-7.42-35.43-10.01C623.16,62.6,611.87,65.57,675.84,82.25z M630.9,171.43c0.53,1.07,0.28,0.34-0.1,1.1
		C630.26,171.44,630.62,171.99,630.9,171.43z M631.7,195.35c-0.35,0-0.27,0.34-0.9-2.2C632.14,192.85,631.7,194.42,631.7,195.35z
		 M628.3,174.63c-1.7-1.39-1.53-3.75-10.41-21.52c-1.42-2.84,0.99-0.61-0.1-11.91c-2.72-28.05-15.32-63.74,2.8-67.36
		c2.93,0.76,45.93,12.56,57.25,16.91c-1.15,9.19,10.95,4.83,9.81,14.61c-1.13,9.73-2.95,22.46-8.21,30.73
		c-4.78,7.52-1.1,11.31-3.5,13.71c-0.83,0-0.55-0.52-1.4-1.8c-9.05-2.78-9.03,0.53-7.61-2.8c-3.1-1.03-5.56,1.98-9.11,0.7
		c-5.35-1.93-6.49,1.65-8.41-1.7c-2.78,3.21-7.17,0.35-11.01,4.9c-0.6-0.3-1.1-0.6-1.6-0.8c-1,0-0.69,1.78-2.1,1.4
		c-1.2-0.32-1.4,1.1-2.4,1.3c-0.7,0.1-1.2,0.8-1.9,1.3c0.5,0.6,1,1.1,1.4,1.6C631.8,156.94,628.3,150.77,628.3,174.63z
		 M681.14,156.62c-10.93,4.86-7.27,1.26-4.1,0.8C679.42,157.07,682.34,155.43,681.14,156.62z M681.36,156.02
		c0.03-0.47,0.28-0.65,0.67-0.61C682.01,155.85,681.82,156.1,681.36,156.02z M672.34,153.42c-0.68-2.04-0.66-1.59,1.1-1.9
		C674.04,152.92,674.04,152.92,672.34,153.42z M665.23,158.42c1.6-0.4,2.6-0.7,4.2-1C667.83,158.62,667.83,158.62,665.23,158.42z
		 M667.03,159.92c-0.38,0.13-0.3,0.16-0.3-0.1L667.03,159.92z M668.33,150.91c0.33-0.3,3.95-2.03,3.43,0.74
		C670.78,150.8,669.6,150.42,668.33,150.91z M663.53,148.61c-0.1,0.2-0.2,0.4-0.3,0.6C662.81,149.63,662.22,147.95,663.53,148.61z
		 M662.93,159.82c0,0.99-0.41,1.09-0.93,1.02C662.28,160.57,662.56,160.28,662.93,159.82z M661.83,161
		c-0.01,0.36-0.27,0.52-0.7,0.52C661.39,161.43,661.59,161.19,661.83,161z M661.13,158.12c0.4,0.2,0.7,0.4,0.3,1.2
		C661.33,158.72,661.23,158.32,661.13,158.12z M660.83,157.72c0.19,0,0.19,0.14,0.25,0.24C661.01,157.86,660.9,157.79,660.83,157.72
		z M660.83,161.92c0.1-0.1,0.1-0.2,0.1-0.2C661.15,161.5,660.93,161.82,660.83,161.92z M654.72,157.02c0.2-0.1,0.3-0.3,0.5-0.4
		c0.7,0.4,1.4,0.8,2.1,1.1C657.32,159.32,655.98,158.03,654.72,157.02z M654.82,169.63c-0.2,0-0.3,0.2-0.5,0.3
		C654.22,169.33,654.52,169.63,654.82,169.63z M658.32,165.23c0.4-0.5,0.9-0.9,1.5-1.5C659.73,165.03,659.13,165.23,658.32,165.23
		c-0.3,0.4-0.6,0.8-1,1.4C657.02,165.43,657.52,165.23,658.32,165.23z M651.52,166.73c-0.42,0.42-0.38,0.32-0.7,0
		C651.63,166.32,651.12,166.33,651.52,166.73z M648.72,171.63c-0.1,0.1-0.2,0.37-0.2-0.1C648.62,171.43,648.72,171.16,648.72,171.63
		z M647.32,158.62c-0.9-0.9-0.1-1.3,0.6-2.1C648.62,158.12,648.62,158.12,647.32,158.62z M648.12,168.43
		c-0.25,0.25-0.2,0.33-0.2-0.3C648.02,168.23,648.22,168.33,648.12,168.43z M645.31,175.74c0,0.09-0.06,0.18-0.17,0.22
		C645.2,175.88,645.25,175.8,645.31,175.74z M641.21,156.22c0.83-2.07,0.73-1.6,2.4,0.4C642.81,156.92,642.81,156.92,641.21,156.22z
		 M641.81,173.83c-0.9,0.6-0.42,0.28-1.1-0.4C641.21,172.93,641.35,173.37,641.81,173.83z M641.51,148.31
		c0.97-0.32,0.56-0.24,0.9,0.1C641.74,148.75,641.61,148.41,641.51,148.31z M639.61,167.43c-0.32,0.65-0.27,0.31-0.49-0.08
		C639.28,167.37,639.45,167.43,639.61,167.43z M638.99,167.31c-0.36-0.04-0.53-0.28-0.57-0.65
		C638.61,166.88,638.83,167.07,638.99,167.31z M637.91,152.62c0.26-0.26,0.28-0.26,0.8,0C638.71,153.08,638.33,152.76,637.91,152.62
		z M637.51,170.83c-0.1,0.2-0.2,0.3-0.3,0.6c-0.1-0.1-0.2-0.2-0.2-0.3C637.46,170.22,637.24,170.56,637.51,170.83z M636.51,157.12
		c-0.28-0.57-0.26-0.65,0-0.9C636.89,156.99,636.51,156.87,636.51,157.12z M635.91,176.34c-0.13,0.13-0.1,0.16-0.1-0.1
		L635.91,176.34z M635.4,181.74C635.2,181.34,635.4,181.64,635.4,181.74L635.4,181.74z M633.6,157.82c-0.13,0.13-0.04,0.1-0.4,0.1
		C633.4,157.92,633.5,157.82,633.6,157.82z M632,168.43c-0.17-1.05,2.2-1.97,0.6,0.7C632.3,168.73,632,168.63,632,168.43z
		 M632.8,179.24c-0.52,0.52-1-0.1,0-0.6C632.8,178.84,632.9,179.14,632.8,179.24z M682.15,333.37c-0.8,0-0.75-0.8-0.6-1.1
		C681.64,332.09,683.14,331.39,682.15,333.37z M684.08,333.47c-0.38-0.58-0.8-1.24-0.33-2
		C684.39,332.02,684.19,332.73,684.08,333.47z M685.75,330.97c-0.13-0.38-0.16-0.3,0.1-0.3L685.75,330.97z M688.65,267.52
		c-0.99,16.04,4.12,13.17-3,41.64c-0.02,0.1-2.26,14.28-2,15.11c2.36,7.51-9.16,6.98-15.91,3c-0.42-3.46-1.99-7.5-5.2-10.71
		c0.08,0.83,2.55,8.61,2.8,9.51c-10.43,0-17.42-6.41-32.93-6.41c-4.34-11.56,1.09-6.44-6.31-32.13c-0.77-2.67-1.35-2.99-8.81-17.92
		c-2.89-4.34,12.48,4.31,21.92-14.91c1.61-3.27,0.86-4.48,3.3-6.01c0.4-0.3,0.6-0.9,0.9-1.4c1.4,0.9,1.8,2.7,3.4,3.3
		c-0.76-7.39-4.94,0.4-3.4-13.91c1.22-11.35-2.76-19.43,2.6-10.61c2.28,3.75,16.59,18.35,29.93,21.32c1.67,0.37,1.34,0.27,3.6,4.8
		c-0.1-1-0.11-1.5-0.2-1.9c-0.11-0.5-0.3-1.1-0.4-1.7c4.99-2.08,3.5-1.13,4.1-10.81C690.47,251.16,689.17,259.12,688.65,267.52z
		 M696.26,166.13c-1.49,2.86-0.84,12.12-0.2,15.51c0.79,4.25-1.38,12.13-1.8,16.61c-1.07,11.29-8.34,15.29-8.11,28.63
		c0.08,4.84-0.64,8.29-0.23,9.9c-4.13-0.79-1.2-9.52-7.28-14.3c0.1,2.1,1.6,3.8,1.3,6.11c-2.2-0.8-4.01-1.9-5.5-3.3
		c-6.36-5.96-9.81-4.61-8.31-3.1c1.24,1.55,4.69,1.68,12.51,10.41c4.99,5.58,2.55,17.31-0.8,12.61c-1.56-2.5-1.4-3.34-1.4-0.4
		c-5.25,1.05-21.51-9.6-28.73-20.42c2.81,0.47,10.65,2.07,15.51,3.8c3.93-3.27-14.17-2.43-17.11-6.41
		c-6.14-8.3-7.47-9.43-8.41-13.41c-1.39-5.91-4.7-6.05-4.8-10.31c-0.01-0.22-0.22-0.12,2.2-2c0.1-1.2,0.1-2.6,0.2-4.2
		c1.29-1.48,2.67-3.07,3.28-5.13c2.38-1.12,2.59,2.24,5.72,3.13c1.8,0.36,3.18-0.12,2.5-1.6c-0.47,0.08-2.15,1.14-4.9-1.3
		c-3.1-2.74-6.75-6.13-4.1-9.31c5.04-6.06,2.67-1.78-0.1,3.3c0.1,0.58,0.49,1.24,1.41,1.38c0.08-0.66,0.09-1.32,0.19-1.98
		c1.7,0.3,1.6,1.8,2.3,2.7c1.1-1.6-0.3-2.7-0.8-4.2c0.98-2.46,0.44-2.16,2.6-0.3c-3.76,9.67,5.72,5.71,2.1,3.9
		c-0.4-0.2-0.8-0.3-1.2-0.6c-0.8-0.6-0.7-1.5,0.4-2.2c0.73-0.73,1.89,0.73-2.5-4c2.35,0.43,3.61,0.18,4.9,3.4
		c2.48,6.19,2.43,2.84,3.1,2.5c2.35,0,1.86,0.85,0.8-2.4c0.61-8.23,12.23-13.62,13.31-17.22c2-0.3,3.9,0.7,5.3-1
		c-0.53-1.58-2.1-0.74,3.8-2c2.13,2.13,0.63-0.14,3.4,9.21c1.45,4.89-2.9,3.9-0.5,8.31c1.11,2.04,2.67,4.9,3.4,7.11
		c0.58,2.3-3.84,2.25-5.1,1.3c-0.58-0.58-2.26,2.3,2.4,2.3c0.1,0.8,0.3,1.6,0.4,2.2c-0.9,2.1-3.2,1.6-4.5,2.8c0,0.8,0.4,1,1.1,0.7
		c1.43-0.48,0.5-1.17,2.7,0.3c-0.47,2.38-1.68,2.31-1.1,5.81c1.36,8.24-9.34,3.31-12.91,4.5c-1,2.3-0.8,4.9-1.3,7.31
		c2.69,3.52,0.59,3.49,3.1,8.51c0.9,0,1-0.6,0.9-1.2c-1.1-4.1-0.3-8.21-0.6-12.41c2.04-1.22,3.9-0.34,6.61-0.3
		c3.7,0.05,6.16-2.59,5.6-6.11c-0.7-4.46,2.38-4.7,0.3-7.71c0.5-0.6,1.19-1.21,1.4-1.9c0.29-0.94-0.63-2.29,0.2-2.7
		c3.34-2.15,2.45-2.84-1.9-12.41c0.27-1.88,2.76-2.22,0.8-7.11c-1.7-4.24-1.26-5.52-1.4-6.91c2.4-0.8,4.7-1.5,6.91-2.2
		c0.1-1.2,1.29-1.9,1-3.3c-0.21-1,0.2-2.1,0.3-3.1c-1.75-3.85-6.63,2.07-4-2.3c-1.45-1.21-1.85-1.17-1.5-4.9
		c0.88-9.37,3.31-4.97,7.11-18.82c0.91-3.31,2.08-12.12,3.2-18.92c1.93-11.72-9.69-10.62-9.11-15.01c1.79-0.6,2.81-0.65,3.4-2.4
		c2.14-6.31,1.02-6.51,4.5-6.31c0.63,0.63,0.63,1.29,0.9,3.2c5.14,4.35,3.36,2.45,5.2,7.61c1.5,1.3,3.5,0.7,5.5,1.3
		c0.6,0.6,1.5,1.4,2.3,2.2C700.74,121.1,705.96,147.57,696.26,166.13z M637.71,184.84c0.16,0.16,0.23,0.06,0.17,0.3
		C637.85,185.04,637.79,184.92,637.71,184.84z M637.95,185.35c0.94-0.02,0.68,0.61,0.58,1.15
		C638.35,186.15,638.13,185.76,637.95,185.35z M682.35,154.52c0.27,0.53,0.31,0.5-0.2,0.75
		C682.15,154.99,682.1,154.76,682.35,154.52z M696.86,93.66c-1.52-0.41-1.42-1.19-2.18-4.02c3.85-0.76,2.76,0.62,5.69,0.62
		c1.28,1.28,0.94,1.17,2.7-0.3c1.12,0,9.82,2.81,20.12,5.6c4.77,1.29,7.57,1.66,8.51,4.3C729.94,103.69,732.4,103.37,696.86,93.66z
		 M740.4,97.47c-0.99-7.17,4.53,7.48-3.3,12.01C735.82,109.48,741,105.56,740.4,97.47z M739.64,94.09c0.62,0.16,0.57,0.76,0.65,1.23
		C739.69,95.1,739.76,94.55,739.64,94.09z M735.79,108.18c-5.68,5.76-14.94,3.14-15.61-6.31c8.41,2.34,11.17,3.09,13.51-1.9
		c-0.72-1.2-0.84-3.46-3.7-4.1c-1.25-0.28-6.02-1.61-7.61-2.4C731.43,79.89,746.57,97.25,735.79,108.18z M736.76,109.74
		c-0.11,0.58-0.37,0.24-1.17,1.04c0,0-0.2,0-0.3,0c0.3-0.61-0.2-0.5,0.9-0.5C736.01,109.73,736.26,109.54,736.76,109.74z
		 M703.96,122.29c0-7.48-0.3-6.96-0.3-17.12c0.78-5.05,0.5-4.87,0.5-7.41c2.6,0.1,8.21,1.5,14.51,3.7
		c1.15,6.89,4.03,9.49,10.51,11.11c13.83,4.47,21.5-24.92,0.1-24.92c-4.28,0-6.49,3.48-8.51,5.5c-19.76-5.33-19.19-4.91-18.02-7.41
		c11.2-23.76,35.63-30.21,51.04-16.91c29.76,25.67,2.97,82.64-33.03,70.26C713.16,136.48,703.96,129.01,703.96,122.29z
		 M731.29,142.11c-1.95,0-0.23-0.22,0-0.3C731.29,141.91,731.29,142.01,731.29,142.11z M763.42,130.1
		c-15.25,19.3-35.27,11.81-29.63,11.81c30.49-4.63,49.27-47.79,18.11-75.79C762.98,64.24,787.96,99.03,763.42,130.1z M788.34,116.08
		c-0.93,4.42-8.69,0.61-15.11-1.3c1.35-5.74-0.44-5.65,12.11-2C787.6,113.23,788.61,114.8,788.34,116.08z"/>
	<path d="M503.71,40.19c3.88,1.18,7.47,2.27,10.78,3.27c0-0.01,0.01-0.04,0.01-0.04C513.33,42.83,508.89,41.62,503.71,40.19z"/>
	<path d="M543.93,96.47c1.34,0.06,2.68,0.02,4.02-0.12c-0.97,0.09-1.95,0.13-2.93,0.12C544.61,96.46,544.26,96.46,543.93,96.47z"/>
	<path d="M645.91,325.66c-1.3,0.06-2.62-0.03-3.95-0.16C644.93,326.01,648.72,325.54,645.91,325.66z"/>
	<path d="M161.89,231.48c-0.25-0.04-0.26-0.1-0.1,0.1L161.89,231.48z"/>
	<path d="M384.44,204.93c2.17,1.33,4.23,2.88,6.13,4.62C388.47,207.46,386.36,205.89,384.44,204.93z"/>
	<path d="M280.19,198.06c0-0.4-0.2-0.9-0.3-1.5c1.4-1.6,2-3.5,0.9-5.5c1.51-2.27,1.43-0.77,1-4.2c0.74-1.02,3.12-2.13,2.27-3.93
		c0.37,1.73-1.83,1.98-3.57,1.73c-0.6-0.2-1.3-0.5-1.9-0.7c-0.7,0.6-0.5,1.1,0,1.8c0.6,1,1.7,0.5,2.7,0.7c1.12,4.5-1.03,3.12-4,4.9
		c-0.1,0.1-0.05,0.8,0.3,0.8c3.19-0.8,2.07-1.03,3.5,0.4c-0.33,1.66-2,3.01-1,6.01c0.13,0.4,0.21,0.77,0.24,1.11
		C280.34,199.14,280.3,198.6,280.19,198.06z"/>
	<path d="M280.34,199.67c-0.01,0.45-0.06,0.89-0.15,1.31C280.33,200.6,280.39,200.17,280.34,199.67z"/>
	<path d="M414.81,248.4c-18.51-3.42-7.67-1.61-12.71-19.92c-2.09-7.58-6.2-14.03-11.52-18.93c10.45,10.39,20.49,33.54,2.92,57.76
		c-8.15,11.23-21.61,16.11-29.83,13.61c-0.71-0.22-1.27-0.35-1.7-0.44c2.14-0.01,7.47-0.74,15.42-5.47
		c21.55-12.81,28.92-51.53,3.9-70.36c-0.4-0.3-0.7-0.6-1.2-0.8c1.21-0.14,2.71,0.24,4.36,1.07c-17.68-10.83-43.08-7.14-56.01,21.95
		c-18.98-3.89-7.71-6.31-15.91-6.31c-1-1.5-2.4-2.2-4.1-2.5c-7.71-1.93-8.23-2.07-10.41-1.2c-4.81,1.6,0.64,1.93-8.11-0.1
		c-28.21-6.56-18.38-4.05-23.32-5.91c1.02-7.45-0.6-6.1,8.21-5.91c3.09,0.07,4.89-1.67,5.4-3.98c-1.15,3.03-8.08,2.27-13.03,1.29
		c-0.49,2.56-0.99,5.03-1.58,7.7c-3,0-18.32-4.57-18.42-4.6c-0.95-0.16-1.8-0.38-1.8-1.3c-0.33-5.36-3.54-4.09-6.01-4.5
		c-1.4-0.1-2.18-1.48-1.2-2.5c1.43-1.48,1.3-3.1,1-5c2.76-3.87,3.51-3.56,2.74-7.23c1.17,0.61,1.96,1.81,3.29,1.99
		c0.27,1.87,2.88,2.63,4.77,2.63c0.8,0,0.9-0.6,0.6-1.8c-1.51,0.94-1.97,0.46-5.28-0.95c0.1-1.13-0.88-1.52-2.32-3.25
		c-5.2-2.08,1.44-11.01,2.19-8.83c-4.33,7.24-3.78,5.46-1.99,8.33c1.3-1.01-1.5-2.9,1.1-2.9c0.4,0.9,0.9,1.7,1.4,2.7
		c0.5-1.1,0.4-2-0.1-2.9c-0.68-1.71-1.03-0.41,0.3-3.4c3.78,3.78-0.57,1.01,1.1,7.71c3.4,1.02,3.97-1.22,3.1-1.8
		c-0.7-0.6-1.5-1-2.2-1.5c0.3-1.5,0.3-1.5,1.5-2.1c-0.47-1.42-2.09-1.95-2.52-3.36c0.93,0.2,1.78,0.47,2.72,0.66
		c0-1.43-0.23-0.55,0.7-0.4c0,0.6-1-1.37,1.6,3.6c2.52,4.82,1.74,2.11,3.1,1.8c0.3,0,0.9,0.2,1.6,0.4c0.1-0.2,0.3-0.4,0.2-0.5
		c-5.82-6.6,11.3-16.07,12.01-19.82c2.01,0,5.1,1.27,5.1-1.9c4.5-1.3,9.01-2.2,12.81-5c1.24,1.74-6.24,4.12-8.31,4.9
		c1.6,1.07,0.85-0.33,1.32,2.83c-0.57-4.58,7.87-2.51,7.29-5.74c1.5-0.9,0.08-2.41,0.7-3.6c0.78-1.51-0.1-2.5-1.2-2.9
		c-7.11,0.48,0.24,0.91-5.1-3.1c-1.75,0.87-1.8,3.81-3.3,0.8c-3.76-3.18-8.84,0.03-8.01-3.3c-1.62-1.26-5.11,2.16-8.91,0.8
		c-2.92-1.04-4.43-0.3-7.61-0.3c-0.22-1.3-0.02-1.5-0.6-1.5c-3.36,3.15-7.08,0.76-10.31,4.1c-1.5,1.55-1.97-0.73-3.1,0.4
		c-1.7,1.7-4.54,2.03-5.6,3.8c0.6,0.6,1,1.1,1.6,1.7c-1.6,1.3-2.8,2.7-2.4,4.8c0,0.75-2.41,5.24-1.2,14.41
		c0.37,2.78-0.82,6.8,0.8,9.01c1.13,1.13-1.5-1.51,2.2,10.01c0.78,2.41,0.6,4.6,0.2,6.81c-3.4,1.1-5.71-0.5-7.91-2.1
		c0.21-6.77,1.61-20.95-7.01-34.33c-15.35-23.83-59.32-27.42-74.77,15.41c-1.12,2.62-0.35,2.75-3.8,1.9
		c-23.4-5.75-21.71-5.51-25.12-6.71c-3.26-1.14-7.45,1.56-6.71,4.4c1.48,5.67,2.52,3,32.43,11.71c0,0.48-5.38,35.11,16.61,47.94
		c16.57,9.67,31.19,11.51,46.74,0.4c0.44,2.66-1.87,1.97,0.2,5.81c2.56,4.75,3.54,5.27,3.9,9.41c0.24,2.8,0.4,12.54-2.2,14.41
		c-2.29,1.65-3.15,8.92-3.6,12.11c-0.64,2.9,3.14,7.72,4.3,9.01c3.54,3.91,3.44,7.32,7.51,8.71c8.62,2.95,12.74-1.04,14.41-1.5
		c4.49,13.46,0.35,11.61,3,23.02c-1.6,0.4-2.6,1.5-2.6,3c0,2.91-1.58,3.55-4,10.61c-12.34,35.9-6.07,20.9-7.81,89.28
		c-0.45,17.53-3.5,16.92,2.1,18.32c0,24.16-1.1,13.27-8.51,30.63c-10.64,24.92-8.89,15.22-6.61,59.45
		c1.15,22.24,0.88,22.33-0.8,30.53c-0.27,0.8-0.43,0.85-3.2,1.2c-6.14,12.61-1.57,18.45-7.41,30.13c5.86,10.05,19.5,1.4,32.13,6.61
		c9.86,4.07,26.87,1.77,33.83-2.2c-0.89-6.68-0.98-6.96-0.6-8.01c7.42,0,4.57,0.55,12.71-1.3c12.75,5.54,17.69,2.35,23.92,3.6
		c4.32,0.87,10.4-0.72,15.51-1.8c8.09-1.71,4.55-3.57,5.3-8.01c0.85-5.03-4.31-9.08-7.21-8.91c-4.4,0-11.33-4.99-13.11-5.91
		c-11.54-5.95-10.71-14.16-18.02-17.82c0-4.13,1.28-13.56,1.2-26.82c-0.02-2.89,0.86-3.56,1.7-13.01
		c4.01-45.32-0.11-41.94,2.3-44.24c3.48-3.31,0.15-12.17,5.2-18.42c10.03,0,13.19,0.5,13.41-3c0.34-5.46,1.7-13.5-0.9-20.12
		c-1.86-4.75,0.1-11.21-1.6-23.72c-0.65-4.8,0.7-3.05,0.7-18.82c0-23.67-2.2-25.75-1.7-27.72c0.74-1.91,0.28-2.85-3.6-12.01
		c-4.3-10.15-3.31-9.6-5.6-11.71c0.93-12.15,0.5-9.44,2.5-22.82c9.12,6.97,9.21,7.74,19.22,6.31c1-1.1,1.81-2.2,2-3.7
		c0.7-5.42,6.08-6.26,8.31-21.32c0-0.6,0.11-1.3-0.1-1.8c-0.68-1.61-0.4-3.2-0.4-4.9c0-23.01-1.9-15.1-1.4-30.23
		c0.39-11.78-1.22-8.55-1.2-6.31c0.22,31.01,1.83,40.02,0,45.14c-1.92,5.36-6.9,16.17-7.41,19.92c-0.59,4.44-9.83,3.44-18.32-5.4
		c2.43-9.01,0.05-8.1,3.6-7.51c-1.68-2.97-1.02-0.17-2.7-15.11c-1.4-12.44-1.99-9.03,2.2-15.31c4.94,5.6,5.09,9.23,6.31,16.01
		c0.21,1.19,1.37,1.63,1.4-0.4c0.12-7.28-2.75-9.26-2.3-12.09c1.85-2.6,6.32-21.89,6.11-28.45c-14.03-11.92-4.6-3.53-11.71-8.51
		c-1.31-4.79-1.2-3.51,3.4-2.8c2.3-1.88-0.71-8.33-0.6-9.41c2.6-0.6,2.89-0.59,3.7,0.5c3.25,4.36,7.84,3.72,8.21,7.81
		c0.23,0.94,2.06,2.75,3.1,3.9c8.23,2.74,3.03,2.62,4.6,8.91c2.8-1.1,1.4-4,3-5.71c5.89,1.04,5.43,1.42,5.1,3.4
		c-2.68,24.38,13.86,37.23,14.08,35.93c5.33,6.23,45.07,23.24,60.28-17.82c1.15-2.3-0.76-2.26,14.61,1.5
		c0.68-0.6,4.96-2.98,2.7-6.51C417.39,249.52,416.41,248.7,414.81,248.4z M281.49,148.91c0.63-0.63,0.7,0.09,0.6,0.3
		c0,0.1-0.3,0.1-0.5,0.2C281.59,149.21,281.39,149.01,281.49,148.91z M277.79,150.61c0.4,0.9,0.1,1.5-0.9,1.7
		c-0.89-0.3-0.61-1.28-0.99-1.98C276.55,150.42,277.13,150.52,277.79,150.61z M275.79,150.24c-0.48-0.37-1.05-0.66-1.8-1.13
		C275.85,148.91,275.89,148.92,275.79,150.24z M270.58,159.02c0.1,0,0.3-0.1,0.3-0.1C271.25,159.29,270.58,159.36,270.58,159.02z
		 M272.28,149.61c0,0.32,0.34,0.3-0.2,0.3c-0.1,0-0.1-0.1-0.1-0.2C272.08,149.71,272.18,149.71,272.28,149.61z M273.19,156.42
		c0.42,0.84,0.23,0.83-3.3,1.1C270.98,156.12,272.18,156.92,273.19,156.42z M267.08,147.51c0.85,0,0.5,0.5,0.1,0.5
		C267.07,148.12,266.67,147.51,267.08,147.51z M266.69,159.59c0.09-0.19,0.09-0.38,0.09-0.57
		C267.17,159.35,267.05,159.38,266.69,159.59z M266.64,159.62c-0.18,0.11-0.41,0.26-0.66,0.51
		C265.98,159.71,266.23,159.55,266.64,159.62z M266.08,157.62c-0.64,0-0.7-0.01-0.78-0.86
		C265.56,157.04,265.82,157.36,266.08,157.62z M265.38,160.32c0.56-0.28,0.43,0.4-0.2,0.4
		C265.28,160.62,265.28,160.32,265.38,160.32z M264.98,156.32c0.26,0.26-0.04,0.08-0.2,0C264.88,156.32,264.98,156.32,264.98,156.32
		z M263.68,163.02c0.19,0.47-0.08,0.67-0.61,0.69C262.96,163.22,263.31,163.11,263.68,163.02z M261.28,165.23
		c0.48-1.15,0.51-1.2,1.65-1.38C262.7,164.66,262.13,165.13,261.28,165.23z M260.07,155.72c0.51,0.39,0.9,0.7,1.8,1.4
		C259.11,157.64,258.46,154.47,260.07,155.72z M258.57,168.23c0.1,0,0.3,0.06,0.3,0.3C258.51,168.89,258.57,168.37,258.57,168.23z
		 M255.37,165.43c0.49,0.49,0.19,0.01-0.1,0.6C255.37,165.83,255.37,165.63,255.37,165.43z M252.17,167.43c0,0.1-0.3,0-0.4-0.1
		C251.77,166.11,253.15,167.43,252.17,167.43z M252.67,170.73c-0.13-0.25-0.16-0.2,0.1-0.2L252.67,170.73z M251.67,155.82
		c0.91-0.38,0.8,0.6,1.2,1.1C250.54,158.58,250.41,156.35,251.67,155.82z M249.36,175.04c0.01,0.01-0.06,0-0.1,0H249.36z
		 M246.36,146.81c1.11,0,0.2,0.5,0,0.7C246.28,147.35,245.79,146.81,246.36,146.81z M246.06,153.82c1.01,0.34,3.48,3.21-0.8,1.3
		C245.56,154.72,245.76,154.32,246.06,153.82z M244.96,172.33c1.13,0.38,0.76,0.19,0.5,0.7c-0.2-0.2-0.4-0.3-0.7-0.5
		C244.86,172.53,244.86,172.33,244.96,172.33z M243.16,166.03c1.33,0,0.55,0.49,0.57,0.58c-0.28-0.1-0.48-0.29-0.77-0.38
		C243.06,166.23,243.06,166.03,243.16,166.03z M242.66,151.11c0.12,0.12,0.58,0.46-0.1,0.8
		C242.26,151.76,242.34,151.75,242.66,151.11z M241.36,169.33c0.19,0.38,0.51,0.8-0.1,0.8
		C240.95,169.52,241.26,169.43,241.36,169.33z M240.56,155.42c0.15,0.3,0.29,0.7-0.1,0.7C240.35,156.02,240.26,155.72,240.56,155.42
		z M240.06,180.84c-0.1-0.1-0.3-0.1-0.4-0.1C239.66,179.97,240.06,179.92,240.06,180.84z M280.49,244.8
		c-10.38,0-28.61-18.62-29.5-21.03c0.1-0.02,13.58,3.17,15.88,4.11c1.51-1.29-2.28-2.55-2.8-2.6c-9.97-1.07-13.21-2.61-13.21-2.2
		c0,0.88,0.62,0.92-4.6-4.3c-0.87-6.55-0.78-4.3,20.72,1c2.53,4.55,1.15,2.27,4.6,3.9c1.01,0.48,1.5,1.6,2.2,2.3
		c6.15,6.15,13.96,6.28,12.01,16.31c-1.08,4.3-2.98,4.08-3.9,2.6C279.73,241.99,280.13,240.98,280.49,244.8z M241.06,201.26
		c2.3-0.3,2.3-0.3,2.9,3.1C242.26,203.76,240.76,203.36,241.06,201.26z M239.36,203.26c-1-1.1-1-1.1-1.2-2.9
		C240.16,201.46,240.26,201.66,239.36,203.26z M238.05,209.57c0.1-0.1,0.1-0.2,0.2-0.3c0.3,0,0.5-0.1,0.7,0.1
		C241.24,210.51,237.15,211.84,238.05,209.57z M237.75,156.82c0.13,0.25,0.16,0.2-0.1,0.2L237.75,156.82z M236.95,166.33
		c0.38,0,0.6,0.6,0.5,0.7C236.01,169.2,235.59,166.6,236.95,166.33z M236.45,178.04c0.2-0.2,0.3-0.3,0.4-0.5
		C237.28,178.39,236.87,178.45,236.45,178.04z M234.95,171.43c-0.22-0.67-0.66-0.47,0.4-1C235.69,170.77,235.6,170.46,234.95,171.43
		z M233.65,200.26c4.89,0.19,3.53,4.64,3.3,9.91C231.01,208.68,233.96,206.38,233.65,200.26z M227.75,198.26
		c3.72,2.12,5.36,2.46,4.5,5.91c-1.35,1.19-1.86,0.16-5.2-4.4C227.25,199.36,227.45,198.86,227.75,198.26z M228.05,203.76
		c1.99,3.48,4.27,1.9,3.4,4.8c-2.1,0.5-4-0.6-6.11-1.2C226.47,203.53,226.3,200.71,228.05,203.76z M114.95,178.64
		c-0.8,0-1.4,0.1-2,0c-1.88-0.47-2.47-2.69-0.4-4c0.49-0.31,1-0.5,1.5-0.8C116.05,175.74,116.15,176.04,114.95,178.64z
		 M118.35,180.74c-3.37-0.89-1.63-0.43-1-3.1c0.59-2.49-0.6-3.32,2-2.8c66.32,16.98,66.18,15.36,63.96,19.82
		C182.36,197.49,179.44,196.94,118.35,180.74z M179.2,198.86c0-0.3,0.6-0.6,1.4-1.6c1.15,8.03,2.7,12.09-0.2,18.12
		c-0.47,0.97-1.58,2.84-2.6,2.5C174.2,216.43,179.87,202.19,179.2,198.86z M185.51,194.05c1.1-3.51-1.95-4.29-5-5.71
		c2.7-4.05,14.92,2.2,5.6,11.51c-1.2,1-1.2,1-4,0.9C181.01,195.27,183.9,199.2,185.51,194.05z M178.5,197.66
		c-6.18,5.47-5.21,4.94-12.51,16.41c-3.15-3.78-4.64-5.71-1.6-8.91c2-2.1,4.31-4.1,6.91-5.5
		C176.57,196.8,175.11,196.24,178.5,197.66z M155.78,232.19c-11.35-10.3-14.69-29.78-11.41-43.04c1.04-0.28,3.2,0.43,3.2,1.3
		c-2.4,21.57,7.1,39.99,14.1,41c-1.97-2.5-4.25-2.39-7.7-10.17c-7.14-16.13-5.64-28.46-4.5-30.73c2.3,0,17.82,3.7,24.02,5.71
		c-0.6,0.4-0.9,0.79-1.4,1c-7.52,3.15-6.31,4.35-10.91,6.91c-2.23,4.25,0.64,10.21,5.2,12.11c2.37-0.22,6.76-12.46,10.81-15.31
		c-3.2,12.81-6.6,16.52-0.8,19.42c3.34,2.04,6.18-1.15,7.21-5c1.87-7.01-0.6-11.55-0.6-12.61c3.1-1.38,12.61-4.32,7.51-12.61
		c-1.63-2.65-2.88-4.4-5.91-4.4c-2.5,0-4.7,0.3-6.51,2.4c-8.81-2.2-17.52-4.4-26.02-6.51c-2.03-2.9,11.84-32.71,36.83-31.53
		c3.51,0.17,6.62,3.45,9.91,3.6c0-1.16-1.65-1.77-6.21-4c-10.31-5.06-34.34,6.73-41.94,29.53c-0.46,2.29-2.46,2-3.9,0.7
		c1.18-5.89,6.34-15.81,14.01-23.42c18.41-18.26,42.87-12.95,51.45,9.31C229.18,209.82,184.65,258.39,155.78,232.19z M172.7,241.79
		c-5.3-1.06,1.07-0.65,5.91-1.6c29.5-5.8,46.49-47.73,34.03-75.97c-5.64-12.78-13.74-15.6-13.98-16.89
		C248.54,156.95,224.67,257.38,172.7,241.79z M209.83,244.5c-1.47-2.45-2.89-4.59-2.5-7.31c0.2-1.02,0.18-1.5,0.08-1.7
		c0.76-0.46,2.86-2.32,8.02-8.41c2.53-2.98,4.3-6.51,6.31-10.21c1.4,1.9,2.4,3.5,2,5.71c-0.63,3.51-1.11,14.64-6.81,29.73
		c-1.64,4.34,0.07,5.14-2.6,7.81C207.62,266.82,217.01,256.46,209.83,244.5z M217.24,295.14c-3.26-0.79-5.45-5.69-6.9-8.59
		c2.72,0.67,1.38-4.33,1.48-4.23c-1.41-0.24-2.38-0.59-2.38,1.12c0,0.1-0.03,2.27,0.37,2.67c-2.4-1.2-2.12-2.38-3.47-4.47
		c-0.71-1.1-0.57-2.49-0.2-4.9c1.91-12.6,2.25-2.77,10.21-17.82c1.48-2.81,0.01-1.7,1.3-5.1c4.39-11.52,3.89-13.67,4.6-15.01
		c3.22-6.08,2.9-16.28,3.1-17.01c0.83-2.97-1.08-4.18-3-6.11c0.7-2,1.5-4.1,2.3-6.11c12.55,0.57,9.3,7.32,17.72,0.1
		c-0.4-1.1-1.6-1-2.4-1.9c0-2.98-0.53-2.97,4.7-1.1c0.33,6.98,0.39,13.76-6.91,14.91c-2.57,17.32-2.64,12.46,1.4,40.24
		c1.4,9.64-1.17,25.21-8.11,29.13C228.15,292.59,227.91,297.72,217.24,295.14z M240.96,245.7c-0.2-1.3,0.4-2.9-1.2-4.2
		c-2.02,6.07-3.2-9.65-0.5-19.42c3.99,0.8,8.86,16.71,6.01,23.22C243.54,249.22,245.88,253.08,240.96,245.7z M241.26,264.31
		c-2.77-16.61-2.3-4.12-2.3-18.12C239.75,247.28,244.18,257.98,241.26,264.31z M203.42,562.78c1.6,0.5,0.5,2.1,1.7,2.8
		c0.6,0.3,0.8-0.6,1.4-0.8c2.22,0,5.2,2.94,6.91,0.5c-1.7-1.5-4.3-1.1-6.01-2.8c5-8.99,1.27-8.21,1.3-11.31
		c0.08-7.59-5.47-55.74,0.7-69.36c0.06-0.12,13.81-29.42,13.81-33.33c0-15.89-2.4-6.52,19.72-3.2c-0.6,2.7-3,3.5-5.6,4.6
		c4.5,0,6.31-1.2,9.11-4.7c1.3-0.2,2.7,0.4,4.2,0.6c-0.1,1.6-1.7,2.3-2.1,3.6c1.61,6.81-4.47,9.89-8.21,16.11
		c0.97,1.95,1.47,0.88-3.7,12.21c-1.4-0.3-0.8-1.7-1.5-2.2c-1.28,0.64-0.9,4.51-1,6.81c0.6,0.2,1,0.3,1.6,0.4c0.5,0.6-0.2,1.3,0,1.9
		c0.2,0.6,0.6,1.2,1,2c-2.1,6.91-3.46,14.29-6.51,21.22c-5.73,13.05-3.64,11.69-4.8,19.42c-2.46,16.31-2.1,19.74-2.1,29.63
		c-3.34,3.12-6.32,5.47-6.71,6.21c-1.9,3.6-4.42,4.44-4.7,5.6c-0.55,2.29-3.85,2.8-5.91,1.2c-1.63-1.27-2.6-3-3.8-4.8
		C202.62,564.38,203.02,563.58,203.42,562.78z M208.63,554.97c-0.3,0.9-0.5,1.8-0.7,2.6C207.23,557.47,207.43,555.97,208.63,554.97z
		 M251.07,492.21c-0.22,1.83,4.7,15.69,4.9,17.82c2.6,27.32,0.98,28.96,3,42.64c-8.13,6.25-3.52,14.89-8.41,22.82
		c-1.76,2.86,0.23,4.65-5.81,1.2c-0.7-0.4-1.5-0.9-1.9-1.6c-1.71-3-4.49-4.91-6.61-7.41c-2.61-3.08-4.63-8.75-9.41-10.71
		c-3.16-12.63,1.49-25.81,2.2-37.83c0.31-5.22,4.66-12.94,8.61-27.12c2.46-8.83,1.89-11.78,2.7-14.31c2.75-8.63,1.23-1.84,3.6-13.71
		c1.65-1.1,2.28-0.61,3.7-3.2c5.02-9.14,0.84-9.45,5.6-14.21c2.48-2.48,3.99,10.81,2.7,14.51
		C245.79,490.36,252.09,483.64,251.07,492.21z M234.05,567.98c0-0.16-0.11-0.2,0-0.2C234.15,567.88,234.05,567.88,234.05,567.98z
		 M245.06,596.51c-11.18,1.28-15.64-2.57-19.32-1.7c-0.4,0.09-1,0.1-1.4-0.1c-3-1.1-6.3-0.63-9.41-1.6c-1-0.31-1.9-0.18-2.8,0
		c-3.79,0.77-7.59,0.43-11.31-0.5c-5.08-1.27-3.32-0.86-0.9-13.21c0.78-3.97-0.25-6.61,0.9-11.81c1.6,1.5,3,2.7,4.3,4
		c2.43,2.43,6.61,0.58,8.61-2.1c3.87-5.18,4.63-4.13,9.51-9.01c3.17-3.17,5.43,0.68,6.71,2.6c-3.53,2.25-9.01,4.69-9.01,8.21
		c1.73-0.22,3.63-2.36,7.41-4.1c4.29-2.31,4.66-0.54,5.6,0.4c-4.59,0.51-10.57,3.5-10.01,8.01c3.37-2.53,9.82-6.44,13.71-4.1
		c-6.21,2.5-7.01,3-8.21,6.11c3.58,0,5.33-3.75,10.31-2.5c-2.13,1.7-6.31,3.9-4.3,5.4c2.7-0.6,5.2-2.7,8.21-1.8
		c0.7,1.3-1.2,1.6-0.6,2.8c1,0.3,1.7-0.7,2.5-0.9c1.07,0,3.03,1.46,6.51,2.9c6.77,2.8,5.73,4.04,6.01,11.21
		C250.43,598.1,248.37,596.13,245.06,596.51z M279.49,550.07c1.99,1.23,3.5,2.8,4.4,5.1c-0.8,1.06-8.92,2.25-9.71,6.61
		c-0.1,0.2,0.2,0.5,0.4,1.1c2.86-2.54,10.12-5.88,11.91-3.5c-2.81,1.41-8.31,4.38-5.6,6.01c16.5-6.11,4.92-1.13,4.8,1.7
		c0.3,0.2,0.5,0.4,0.7,0.4c13.01-2.71,5.91-1.13,4.5,1.9c4.52,0.75,7.16-3.83,9.11,0.8c17.41,5.12,13.78,2.04,15.71,12.11
		c-2.45,3.68-9.13,4.48-13.51,5.1c-7.12,1.02-4.31-1.56-12.61-0.9c-5.32,0.42-9.31-0.63-16.11-2.8c-3-0.96-11.69,2.79-13.91,1.3
		c-2.3-1.8-5.23-2.37-7.61-3.9c-1.55-1-0.97-0.59,0.4-3.5c3.01-6.38,1.9-17.98,5.6-22.62c5.39,3.13,5.86,13.25,14.01-0.5
		C273.72,551.54,276,547.91,279.49,550.07z M264.88,559.27c0.78-0.78,0.91-0.49,1.2-0.2C265.49,560.25,265.64,560.03,264.88,559.27z
		 M281.69,462.59c-2.74,3.37-1.31,4.1-0.5,4.9c1.83,32.89-1.49,22.3-4.4,74.77c-0.68,12.15,0.39-1.72-8.21,14.61
		c-6.51-0.34-5.26,0.46-8.51-3.5c2.63-65.65-15.11-54.85-3-90.28c6.42-18.79-10.13-16.96,13.71-14.31c5.32,0.59,5.27-2.44,8.91-2.8
		c-0.86,1.73-5.89,5.51-6.81,7.71c3.19,1.91,8.98-4.41,8.11-7.91c1.9-0.8,3.7-0.8,5.6-0.7c0,1.9-1.82,2.8-1.6,4.7
		C285.09,450.62,284.66,458.93,281.69,462.59z M290,332.77c2.75,3.21-0.12-0.71,8.21,16.61c0.61,1.26-0.49,1.72-0.2,3.8
		c1.46,10.38,1.2,25.48,1.2,32.73c0,5.63-1.76,1.06-0.9,9.41c0.69,6.72,1.13,14.32,0.5,21.62c-0.42,4.88,2.7,3.66,2.7,10.41
		c0,7.16-0.28,6.91-1,15.11c-1.56,0.26,0.19,0.58-7.21,0.5c-9.55-0.1-13.47,1.2-15.71,1.2c-0.72-5.01,0.34-9.36,2.1-14.11
		c4.29-11.57-3.49,3.08-4.5,9.41c-1.93,9.03,4.09,8.75-24.62,4c-6.58-1.09-9.33-0.27-14.11-1.9c-11.29-3.84-5.76-2.79-12.31-4.5
		c-3.32-0.87-4.63-0.06-3.6-5.1c1.24-6.12-0.58-9.67,0.4-20.22c1.37-14.75-0.93-19.48-0.3-24.52c1.35-10.7,1.64-22.79,0.6-35.23
		c-0.56-3.66,0.34-0.61,7.91-22.02c3.39-9.6,2.73-4.01,5.3-8.51c1.89,0.95,1.7,1.27,2.8-1.3c1.7-0.2,0.7,2,2.1,2.2
		c2.05-4.77,0.93,0.46,3.1,0.8c-9.25,2.52,9.73,0.94,11.11,3.7c1.6-0.4,0.5-2,1.4-2.7c1.6-0.2,1.7,1.2,2.1,2.3
		c1.45-1.21,2.04-2.42,3.4,1c0.7-0.3,1.3-0.7,1.9-1c1.2,1.1,0.2,2.5,1.2,3.5c1.5-0.1,0.5-1.8,1.4-2.4c0.1,0.01,2.45,0.35,2.3,0.5
		c0.4-0.2,0.9-0.7,1.2-0.6c4.15,1.04,3.6,1.23,3.6,4.3c1.5-0.2,0.7-1.6,1.5-2.2c1.2-0.2,0.9,1,1.4,1.6c0.9,0,1.7-1.11,2.8-0.5
		c0.9,0.5,1.9,0.6,3,0.9c1.1-0.9,1.1-0.9,3.6-0.4c1.24,3.31-20.86,2.9,2.9,2.9c2.47,9.19,8.87,16.62,4.1,5.5
		c-3.92-7.88-4.05-6.18-1.6-7.41C289.8,332.37,289.9,332.57,290,332.77z M243.66,323.97c0.19-2.08,0.1-3,0.9-3
		c7.85,2.29,7.04,1.64,8.11,2.7C251.58,325.3,245.57,324.31,243.66,323.97z M286.7,330.57c-0.1,1-0.2,1.5-0.3,2.5
		C285.1,331.77,285.6,331.37,286.7,330.57z M287.9,331.47c0,0.45,0,0.97,0,1.44C287.22,332.52,287.33,332.04,287.9,331.47z
		 M292.5,266.02c-2.18,3.37,1.46,21.08,0.3,28.93c-2.01,13.53-2.96,16.02-3.8,20.22c-2.22,11.14,0.35,8.55-2.2,13.01
		c-8.01,2.24-14.35-1.91-14.61-2c-1.06-3.02-1.59-7.18-5.5-11.31c0.95,5.25,2.31,6.17,2.8,10.11c-2.66,0-9-1.18-14.61-3.2
		c-24.87-8.97-15.75,8.42-22.72-27.32c10.24-10.24,5.97-21.86,11.41-30.03c0.86-1.15,0.6-5.54,0.6-7.01c0.9,0.3,1.8,0.6,2.7,0.9
		c0.5-2-0.8-3.4-1.2-5.1c1.09-5.84,5.65-13.02-3.6-31.53c0.5-1,1.5-1.6,2.7-2.2c30.45,31.66,28.05,23.03,36.83,27.42
		c1.37,2.54,2.01,3.83,2.18,3.9c-0.02,0-0.04,0-0.07,0l0.1,0.1c0-0.08,0.01-0.1-0.02-0.1c0.14,0.03-0.19-1.14-0.78-3.5
		c3.6-1.66,3.6-5.59,3.6-9.61C293.33,237.69,296.8,259.39,292.5,266.02z M305.61,243.4c-0.76,3.4,1.78,4.67-1.2,9.61
		c-0.8,1.33-3.65,9.58-3.2,11.51c0.24,1.03,0.12,2.07,0.01,3.1c-6.81-7.07-5.6-0.74-5.5-11.91c0.09-10.69-5.65-15.9-6.81-19.52
		c-2.49-7.82-10.77-7.07-14.91-13.81c28.67,6.69,12.15,2.8,19.22,7.71c1,0.7,0.9,1.9,1.8,2.8
		C299.46,234.37,306.64,238.82,305.61,243.4z M298.91,225.78c-59.65-14.49-52.99-11.43-52.25-18.52
		c9.61,1.07,35.95,10.62,48.44,12.11C298.88,219.82,298.75,223.93,298.91,225.78z M305.61,218.97c1.19-0.6,1.33,0.08,2,1.7
		C306.41,220.78,305.91,220.07,305.61,218.97z M380.01,203.62c-0.03-0.06-0.08-0.11-0.13-0.16
		C379.98,203.46,379.96,203.52,380.01,203.62z M315.12,221.88c0.3,0.4,0.6,0.8,1.1,1.3c-0.5,0.2-0.9,0.5-0.9,0.4
		C314.35,222.6,314.77,222.23,315.12,221.88z M309.72,222.28c0-1.1,0-1.7,0-2.4c1.72-0.57,3.81,2.38,3,4
		C311.42,223.88,310.92,222.58,309.72,222.28z M318.13,230.08c-0.8-0.7-2.2-0.8-3.5-1.2c-2.78-4.45-2.49-2.55,0.2-3
		c4.88-0.81-2.93-2.16,27.62,5.6c15.55,3.95,16.06,3.79,17.52,5.4c1.58,1.32,0.35,3.65-1.2,3.8
		C356.62,240.69,321.12,232.69,318.13,230.08z M369.47,235.59c0-6.94,3.7,9.43-2.87,11.7C367.06,245.33,370.15,242.02,369.47,235.59
		z M369.37,233.59c0,0,0,0.02,0,0.04C369.24,233.4,369.21,233.27,369.37,233.59z M355.96,249.9c-2.81-0.48-6.52-3.51-7.01-8.41
		c3.71-0.53,11.8,4.09,13.41-2.9c-2.46-4.91-0.82-2.89-11.21-6.01c0.3-3.88,10.85-9.43,15.51-0.2
		C370.75,240.46,365.18,251.48,355.96,249.9z M365.87,248c0,0.44-0.24,0.63-0.7,0.54C365.17,248.17,365.43,248,365.87,248
		C365.87,246.5,367.36,248,365.87,248z M364.67,249c0,0.1-0.69-0.3-0.1-0.3C365.08,248.7,364.77,248.95,364.67,249z M340.47,273.22
		c-0.2-0.32-0.59-0.78-1.22-1.4c-8.55-8.42-11.7-19.51-11.51-31.83c0.09-5.8,1.7-3.74,7.01-2.6c0.1,0.02,11.74,2.91,12.71,3.3
		c1.13,4.52,2.58,8.35,7.71,10.01c18.6,6.02,22.69-23.72,4.4-23.72c-3.14-2-7.63,2.21-10.11,5c-3.05-0.19-4.56-0.89-19.02-4.5
		c1.02-5.89,7.8-16.96,17.42-22.42c39.35-22.35,66.67,40.49,29.83,68.06C359.42,286.78,343.8,274.83,340.47,273.22z M414.21,255.11
		c-12.78-3.03-12.13-2.71-10.31-7.81c1.25,0-0.53-0.56,10.91,2.3C420.34,250.52,417.28,256.13,414.21,255.11z"/>
	<path d="M282.79,179.74c-1.09-2.11,0.01,0.23,1.28,3.17C283.88,182.03,283.16,180.55,282.79,179.74z"/>
	<path d="M267.18,202.16l-0.1,0.1C267.2,202.3,267.15,202.26,267.18,202.16z"/>
	<path d="M282.38,178.93c-0.72-1.73-1.45-3.5-2.19-5.29c3.42-3.24,0.53-6.81-0.43-11.37c0.85,5.24,3.3,7.12,0.73,9.77
		C278.88,173.7,280.94,176.07,282.38,178.93z"/>
	<path d="M637.71,234.79c1.58,3.16,2.41-2.81-2.6-10.11C632.45,220.81,630.76,223.09,637.71,234.79z"/>
	<path d="M631.5,222.88c1.66-1.93-1.11-1.08-1.7-3.8c-2.68-12.28-1.73-7.88-2.5-10.21C624.56,209.71,626.48,219.37,631.5,222.88z"/>
	<path d="M608.38,161.92c-2.41,1.61-1.5,9.44-0.4,12.11C609.82,172.69,608.97,164.14,608.38,161.92z"/>
	<path d="M618.09,225.28c-1.18-0.59-2.29,5.95-1.7,8.81C618.18,233.19,620.55,225.9,618.09,225.28z"/>
	<path d="M599.47,156.52c-2.45-2.36-1.85-3.94-3.3-4.3c0.2,3.5,1.4,6.41,4.6,9.11C600.85,160.85,601.7,158.66,599.47,156.52z"/>
	<path d="M621.19,193.75c0.3-2-0.9-3.6-1.2-5.4C618.99,190.75,619.29,192.15,621.19,193.75z"/>
	<path d="M614.19,239.59c0.3,1,0.5,2,1,3.6C616.02,241.71,615.53,238.44,614.19,239.59z"/>
	<path d="M619.39,184.14c0.9-1.4,0.9-1.4-0.1-2.1C619.29,182.84,619.39,183.44,619.39,184.14z"/>
	<path d="M317.12,237.99c0.61-3.04-2.33-1.84-0.7,0.6C316.62,238.39,317.12,238.29,317.12,237.99z"/>
	<path d="M606.78,176.74c0,2.14,2.17-1.4,0.6-1.4C606.68,175.54,606.78,176.24,606.78,176.74z"/>
	<path d="M606.18,181.04c-1.1,0.7-1.1,0.7-1.1,1.8C606.08,182.24,606.08,182.24,606.18,181.04z"/>
	<path d="M638.71,238.99c0.42,0.84,1-0.2,1.1-0.3c-0.15-0.3-0.57-1.63-0.9-1.3C638.39,237.91,638.16,238.17,638.71,238.99z"/>
	<path d="M315.92,242.19c0.44-0.64,2.22-2.6,0.1-2.6C315.92,240.09,315.92,240.69,315.92,242.19z"/>
	<path d="M605.78,75.35c-0.6,1.1-0.6,1.9,0,3C606.38,77.35,606.38,76.45,605.78,75.35z"/>
	<path d="M606.48,86.56c0.12,0.58,0.06,0.61,1,0.3c-0.1-0.3-0.2-0.5-0.2-0.7C606.98,86.26,606.68,86.36,606.48,86.56z"/>
	<path d="M301.11,297.64c0.46,0-0.4-0.6-0.5-0.7C300.22,297.34,300.59,297.13,301.11,297.64z"/>
	<path d="M605.88,81.45c0.5-0.4,0.6-0.9,0-1.4C605.18,80.55,605.08,81.05,605.88,81.45z"/>
	<path d="M603.88,185.74c-0.1-0.2-0.1-0.3-0.1-0.4c-0.2-0.1-0.5-0.2-0.6-0.1C602.77,186.45,602.89,186.74,603.88,185.74z"/>
	<path d="M628.9,202.96c0-0.5-0.6-0.1-0.6,0C628.3,204.03,628.9,205.02,628.9,202.96z"/>
	<path d="M610.38,226.78c0-0.73-0.23-0.57-0.5-0.3C609.88,226.93,610.38,227.18,610.38,226.78z"/>
	<path d="M619.59,178.64c-0.1,0-0.1-0.1-0.2-0.1C619.29,178.54,619.23,178.99,619.59,178.64z"/>
	<path d="M304.91,284.63c0,0,0.1-0.1,0.1-0.2C305.01,284.33,304.91,283.74,304.91,284.63z"/>
	<path d="M679.34,400.63c-0.6,4.9-0.9,9.91-2,14.71c-2.72,1.36-5.15,2.82-6.76,5.29c5.18-2.3,6.26-6.96,6.26-0.29
		c0,10.41,1.64-10.46,5-23.92C679.65,394.96,683,370.77,679.34,400.63z"/>
	<path d="M670.24,345.99c-1.5-1.8-1.1-4.2-2.5-6.41c-0.35,2.24,2.24,20.53,3.7,22.72c1.55-4.86-0.78-6.27-0.5-18.32
		C670.98,342.29,670.27,345.83,670.24,345.99z"/>
	<path d="M654.42,335.48c3.64,9.01,3.46,15.35,4.1,17.92c1.98,3.97,1.73-12.96-4.2-20.22C653.62,333.98,654.14,334.77,654.42,335.48
		z"/>
	<path d="M630.7,382.82c-4.54,4.54-4.82,6.48-11.61,20.82c0.3-0.3,1.34-0.39,3.3-4.3C630.47,383.18,631.67,384.44,630.7,382.82z"/>
	<path d="M639.91,344.28c0.9-1.2,1.2-2.3,1.1-3.5c-1.44,0.36-1.4,1.37-1.4-6.01C639.61,318.89,636.87,338.21,639.91,344.28z"/>
	<path d="M619.19,382.02c0.79-3.41,2.38-13.94,2.6-16.01C624.4,341.74,619.19,374.02,619.19,382.02z"/>
	<path d="M625.3,416.25c0.24-13.68-0.3-28.29-0.3,0C625.1,416.25,625.2,416.25,625.3,416.25z"/>
	<path d="M620.79,434.86c-0.1,0.2,0.4,0.4,0.8,0.8C624.76,420.87,622.96,417.52,620.79,434.86z"/>
	<path d="M687.55,387.62c-4.01,5.7-5.49,8.15-5.61,8.7c-0.01-0.03-0.03-0.01-0.09,0.01l0.09,0.09c0.17,0.46,4.91-5.61,6.32-9.3
		C688.05,387.42,687.65,387.52,687.55,387.62z"/>
	<path d="M688.45,364.3c-0.1,2.9-0.1,5.4,0.1,7.81C689.85,367.7,689.85,366.3,688.45,364.3z"/>
	<path d="M680.34,353.59l0.1-0.1C680.29,353.34,680.34,353.48,680.34,353.59z"/>
	<path d="M680.33,353.42c-0.24-4.14-2.23-11.14-2.89-11.14C680.58,353.9,679.85,353.23,680.33,353.42z"/>
	<path d="M635.4,422.85c9.72,5.92,10.84,5.56,0.9-0.2C633.71,421.62,635.21,422.8,635.4,422.85z"/>
	<path d="M643.41,427.06c-0.22,0-0.2,0-0.1,0.1L643.41,427.06z"/>
	<path d="M682.85,339.38c-0.1,2.2,0.7,3.9,2.8,5.6C685.05,342.58,684.45,340.88,682.85,339.38z"/>
	<path d="M647.72,429.56c-1.3-1.1-2.5-2.3-4.4-2.4C644.31,428.76,646.11,428.96,647.72,429.56z"/>
	<path d="M633.6,330.27c0,5.22-0.04,4.7,0.1,4.7C633.7,329.75,633.75,330.27,633.6,330.27z"/>
	<path d="M667.1,423.47c2.47-1.21,2.51-1.48,3.48-2.83C670.44,420.71,667.92,421.09,667.1,423.47z"/>
	<path d="M666.93,423.55l0.1,0.1C667.11,423.39,667.18,423.47,666.93,423.55z"/>
	<path d="M634.8,422.05c-1.4-1.3-1.5-1.2-3.5-1.8C632.6,421.15,633.4,422.15,634.8,422.05z"/>
	<path d="M684.63,419.55c0.04-0.03,0.08-0.07,0.12-0.1C684.61,419.31,684.66,419.31,684.63,419.55z"/>
	<path d="M683.25,422.85c0.95-0.95,1.34-2.08,1.38-3.3C683.63,420.36,683.35,421.6,683.25,422.85z"/>
	<path d="M681.75,426.36c0,0.18-0.02,0.1,0.1,0.1C681.82,426.26,681.91,426.14,681.75,426.36z"/>
	<path d="M683.15,422.75c-0.66,1.14-1.32,2.1-1.3,3.48C682.7,425.27,683.34,424.1,683.15,422.75z"/>
	<path d="M633,341.68c-0.1,0.6-0.1,1.2-0.1,1.9C633.05,343.58,633,343.86,633,341.68z"/>
	<path d="M664.91,424.85c0.66-0.45,1.38-0.83,2.02-1.29C665.42,423.64,665.33,423.66,664.91,424.85z"/>
	<path d="M623.38,422.76c0.85-0.7,0.41-1.75,0.61-2.71C623.15,420.8,623.36,421.82,623.38,422.76z"/>
	<path d="M623.29,422.85l0.1,0.1C623.39,422.71,623.4,422.75,623.29,422.85z"/>
	<path d="M681.85,378.61c-0.9,0.7-0.6,1.5,0,3.1C681.85,380.12,681.85,379.42,681.85,378.61z"/>
	<path d="M622.69,357.3c0.4-0.7,0.7-1.5,0.1-2.5C622.79,355.79,622.69,356.49,622.69,357.3z"/>
	<path d="M680.44,353.59c0.1,0.7,0.1,1.4,0.3,2.5C681.24,354.89,681.24,354.19,680.44,353.59z"/>
	<path d="M686.82,412.35c-0.83,0.69-0.58,1.64-0.67,2.59C686.99,414.3,686.71,413.29,686.82,412.35z"/>
	<path d="M686.82,412.35c0.05-0.04,0.08-0.07,0.13-0.11C686.82,412.11,686.86,412.09,686.82,412.35z"/>
	<path d="M624.19,418.35c0,0.7-0.1,1.3-0.1,1.8C624.39,419.55,624.9,419.15,624.19,418.35z"/>
	<path d="M684.75,419.25l0.1,0.1C684.85,418.85,684.86,418.93,684.75,419.25z"/>
	<path d="M684.84,418.99c0.17-0.55,0.38-1.1,0.55-1.66C684.72,417.7,684.79,418.35,684.84,418.99z"/>
	<path d="M685.46,417.16c0-0.1,0.06-0.21-0.07,0.18C685.59,417.22,685.58,417.28,685.46,417.16z"/>
	<path d="M686.05,414.95c-0.74,0.55-0.54,1.36-0.59,2.11C686.13,416.55,686.05,415.71,686.05,414.95z"/>
	<path d="M687.05,410.54c0,0.7-0.1,1.2-0.1,1.7C687.15,411.74,687.55,411.34,687.05,410.54z"/>
	<path d="M625.9,398.13c-0.31-0.31-0.3,1.2-0.3,1.3C625.6,398.93,625.7,398.53,625.9,398.13z"/>
	<path d="M676.64,340.38c0.4,0.9,0.7,1.3,0.9,1.8C677.44,341.78,677.84,341.08,676.64,340.38z"/>
	<path d="M660.33,333.37c0.3,0,0.6,0.1,1,0.1C661.03,333.18,660.99,333.04,660.33,333.37z"/>
	<path d="M657.62,332.57c0.2,0,0.5,0,1.1,0.1C658.3,332.5,658.03,332.37,657.62,332.57z"/>
	<path d="M681.75,426.48c-0.68,0.15-0.6,0.81-0.6,1.38C681.8,427.58,681.76,427.04,681.75,426.48z"/>
	<path d="M628,362.7c-0.1,0.1-0.16,0.25,0,0.4C628,362.87,628.21,362.91,628,362.7z"/>
	<path d="M662.71,428.94c0.04-0.09,0.08-0.14,0.02-0.08C662.73,428.74,662.73,428.81,662.71,428.94z"/>
	<path d="M662.71,428.94c-0.04,0.08-0.08,0.19-0.08,0.32C662.67,429.14,662.69,429.03,662.71,428.94z"/>
	<path d="M680.34,429.16l0.1,0.1C680.44,429.05,680.46,429.13,680.34,429.16z"/>
	<path d="M681.04,427.76c-0.55,0.28-0.59,0.81-0.6,1.36C681.03,428.89,681.04,428.33,681.04,427.76z"/>
	<path d="M661.13,432.06c0.41-0.69,1.27-2.11,1.4-2.9C662.39,429.51,661.66,430.74,661.13,432.06z"/>
	<path d="M679.8,430.51c0.18-0.45,0.36-0.9,0.54-1.35C679.74,429.5,679.73,430,679.8,430.51z"/>
	<path d="M679.84,430.76c-0.04-0.34-0.03-0.28-0.1-0.1L679.84,430.76z"/>
	<path d="M628.9,431.46l0.1-0.1C628.13,429.19,628.23,429.79,628.9,431.46z"/>
	<path d="M663.19,333.91c0.1,0.03,0.17,0.07,0.24,0.07C663.29,333.84,663.35,333.87,663.19,333.91z"/>
	<path d="M663.19,333.91c-0.05-0.02-0.09-0.03-0.16-0.03C663.08,333.93,663.14,333.93,663.19,333.91z"/>
	<path d="M632.2,347.89v0.2C632.33,347.84,632.33,347.89,632.2,347.89z"/>
	<path d="M623.75,352.2c0.02-0.06,0.04-0.12,0.04-0.21C623.72,352.06,623.72,352.13,623.75,352.2z"/>
	<path d="M623.79,352.29c-0.03-0.03-0.03-0.06-0.04-0.09C623.7,352.32,623.63,352.46,623.79,352.29z"/>
	<path d="M630.4,432.76c-0.39-0.39-1.16-0.96-0.1,0.1L630.4,432.76z"/>
	<path d="M631.1,433.56c-0.74-0.74-1.24-1.14-0.1,0C631.24,433.64,631.47,433.75,631.1,433.56z"/>
	<path d="M688.41,387.13c0.04-0.03,0.09-0.06,0.14-0.11C688.55,386.63,688.5,386.95,688.41,387.13z"/>
	<path d="M688.41,387.13c-0.03,0.02-0.06,0.04-0.06,0.09C688.37,387.2,688.39,387.17,688.41,387.13z"/>
	<path d="M618.99,403.54c-0.03,0.03-0.06,0.06-0.09,0.09C618.95,403.62,618.99,403.6,618.99,403.54z"/>
	<path d="M618.69,403.84c0.28-0.28,0.23-0.2,0.1-0.2C618.69,403.64,618.69,403.74,618.69,403.84z"/>
	<path d="M627.64,429.22c1.13,1.58,0.86-0.04-0.74-0.56C627,428.76,627.54,429.32,627.64,429.22z"/>
	<path d="M663.93,329.37l0.2,0.1C664,329.22,664.06,329.24,663.93,329.37z"/>
	<path d="M679.04,431.36c1.49-1.49,0-0.2-0.1-0.1L679.04,431.36z"/>
	<path d="M629.8,432.16c-0.3-0.3-0.5-0.5-0.8-0.8C628.82,431.54,629.48,432,629.8,432.16z"/>
	<path d="M678.84,431.26c0,0.1,0,0.2,0,0.3C678.94,431.56,678.94,431.46,678.84,431.26z"/>
	<path d="M664.75,424.98c0.11,0.11,0.05,0.13,0.16-0.13C664.38,425.2,664.72,425.17,664.75,424.98z"/>
	<path d="M626.9,428.66v-0.1C626.75,428.41,626.77,428.41,626.9,428.66z"/>
	<path d="M677.04,448.38c0.21-0.7-0.4-1.1-1.68-1.2c-2.63,2.96-6.07,6.25-6.33,7.51C672.88,455.32,675.94,452.07,677.04,448.38z"/>
	<path d="M662.33,468.59c-0.23,0.23,0.5,8.3,1.8,10.91C665.45,474.35,663.8,468.59,662.33,468.59z"/>
	<path d="M659.43,546.36c-1,1.27-2.68,6.65-1.4,7.61C659.63,552.37,660.13,550.17,659.43,546.36z"/>
	<path d="M660.43,539.66c0-1.77-1.69-0.62-1.2,2.8C660.33,541.66,660.43,540.76,660.43,539.66z"/>
	<path d="M666.73,453.78c-1.3-0.3-2.3-0.3-3.2,0.9C664.83,455.28,665.83,454.98,666.73,453.78z"/>
	<path d="M663.53,481.61c-0.5,1-0.5,1.9,0,2.9C664.73,482.61,664.73,482.61,663.53,481.61z"/>
	<path d="M663.43,488.01c0.2,0.8,0.2,1.5,1,2.2C664.53,488.71,664.53,488.71,663.43,488.01z"/>
	<path d="M659.73,534.25c-0.5,0.3-0.7,0.8-0.2,1.5C659.63,535.15,659.63,534.75,659.73,534.25z"/>
	<path d="M660.33,529.55c0-0.2-0.4-0.63-0.4-0.1C659.93,530.3,660.33,529.94,660.33,529.55z"/>
	<path d="M662.83,494.92c0,0.1,0.1,0.3,0.2,0.5C663.53,494.91,662.83,494.38,662.83,494.92z"/>
	<path d="M659.83,533.95c0,0.08,0,0.19,0,0.3C659.83,533.95,660.03,533.75,659.83,533.95z"/>
	<path d="M670.64,283.93c-2.01,2.7-2.7,5.91-3.1,9.81c2.64-3.63,2.05-8.05,5.71-10.11C673.04,283.56,671.79,282.38,670.64,283.93z"
		/>
	<path d="M680.74,256.71c-2.49,9.95-3.21,8.1-3.1,10.61C680.01,265.74,682.19,260.84,680.74,256.71z"/>
	<path d="M681.85,297.74c1.84-2.82,2.68-9.22,1.1-12.21C682.55,289.64,682.25,293.44,681.85,297.74z"/>
	<path d="M674.15,282.79c2.19-1.39,3.82-3.33,4.79-5.56C676.81,278.58,675.16,280.41,674.15,282.79z"/>
	<path d="M651.72,281.93c-0.3-1.1-1-1.9-2.3-2.5C650.22,281.23,650.22,281.23,651.72,281.93z"/>
	<path d="M664.73,299.95c1.6-2,1.6-2,0.9-3.4C665.33,297.74,665.03,298.84,664.73,299.95z"/>
	<path d="M675.24,267.72c-1.8-0.5-3-0.4-4.2,0C672.24,268.22,673.44,268.02,675.24,267.72z"/>
	<path d="M681.45,307.85c0.5-1.7,0.4-3,0-4.3C681.04,304.95,680.84,306.25,681.45,307.85z"/>
	<path d="M658.93,310.25c0.4,1.6,0.4,1.6,1.3,2.2C660.33,311.46,659.83,310.85,658.93,310.25z"/>
	<path d="M665.83,303.45c0-0.2-0.2-0.5-0.3-0.8c-0.2,0.2-0.5,0.3-0.5,0.4C665.03,304.47,665.83,303.55,665.83,303.45z"/>
	<path d="M649.32,252.1c-0.36,1.09-0.58,0.32,0.4,1.3C650.05,252.75,650.39,252.82,649.32,252.1z"/>
	<path d="M646.51,288.13c-0.1,1.1,0.1,1.7,1.1,1.9C647.72,289.24,647.32,288.64,646.51,288.13z"/>
	<path d="M651.52,305.55c0.2,0.9,0.7,1.1,1.5,0.6C652.72,305.35,652.32,304.95,651.52,305.55z"/>
	<path d="M666.03,307.35c-0.1-0.1-0.2-0.3-0.2-0.6C665.49,307.09,665.51,307.87,666.03,307.35z"/>
	<path d="M651.32,292.44c-0.16,0,0.09-0.1-0.9-0.1C650.7,292.48,650.86,292.9,651.32,292.44z"/>
	<path d="M662.63,316.46l-0.2-0.1C662.55,316.61,662.5,316.59,662.63,316.46z"/>
	<path d="M673.34,283.73c0.17-0.26,0.35-0.52,0.52-0.78C673.41,282.99,673.25,283.2,673.34,283.73z"/>
	<path d="M673.95,282.94c0.13,0.13,0.05,0.14,0.2-0.15C673.97,282.9,673.74,282.94,673.95,282.94z"/>
	<path d="M654.22,283.93c0,0.27,0.4,0.38,0.4,0.1C654.62,283.52,654.09,283.93,654.22,283.93z"/>
	<path d="M679.04,277.33c0.3-0.1,0.7-0.1,0.3-0.6C679.24,276.92,679.14,277.13,679.04,277.33z"/>
	<path d="M650.42,292.04c-0.09,0-0.4-0.3,0.01,0.11C650.42,292.12,650.42,292.08,650.42,292.04z"/>
	<path d="M650.52,292.24c-0.03-0.03-0.06-0.06-0.09-0.09C650.44,292.2,650.46,292.24,650.52,292.24z"/>
	<path d="M647.52,290.14c0.03,0.03,0.06,0.06,0.09,0.08C647.59,290.18,647.56,290.14,647.52,290.14z"/>
	<path d="M647.92,290.44c-0.14-0.07-0.23-0.14-0.31-0.22C647.73,290.46,647.82,290.44,647.92,290.44z"/>
	<path d="M669.43,171.43c0.63,0.13,3.27,0.76,3.8,0.4c4.62-1.54-9.06-4.88-10.41,0.5C666.29,171.9,665.96,170.72,669.43,171.43z"/>
	<path d="M666.33,176.14c2.16-0.76,5.5,1.34,5.5-1.7C671.84,172.47,667.44,173.55,666.33,176.14z"/>
	<path d="M686.55,201.76c-0.1,1.9-0.1,3.9,1,5.71c0.9-2.2,1-4.4-0.3-6.61C686.95,201.26,686.55,201.46,686.55,201.76z"/>
	<path d="M651.82,196.15c-2.4-1.4-2.7-4-4-7.01C646.35,194.86,651.31,197.67,651.82,196.15z"/>
	<path d="M674.64,241.69c0-0.77,1.03-2.05-3.4-4.9C668.41,235.66,671.89,240.07,674.64,241.69z"/>
	<path d="M699.26,111.78c1.1-2.1,1.2-3.8,0.2-5.81C698.06,107.98,698.56,109.68,699.26,111.78z"/>
	<path d="M692.66,166c0-0.02,0-0.04,0-0.07c-0.03,0.03-0.07,0.06-0.1,0.09C692.64,166.02,692.66,166.05,692.66,166
		c0,0.01,0,0.02,0,0.03c0.4-0.3,1.1-0.6,1.3-1C696.81,159.32,692.67,160.37,692.66,166z"/>
	<path d="M657.32,200.56c-0.1,0.4-0.3,0.7-0.2,0.8c1.2,1.2,2.7,1.6,4.8,1.6C660.33,201.66,658.83,200.96,657.32,200.56z"/>
	<path d="M641.61,191.85c-1.7,1.8-1.7,1.8-1.7,3.6C641.41,193.45,641.41,193.45,641.61,191.85z"/>
	<path d="M650.12,198.56c0.5,1.1,0.1,2.6,1.8,3.5C651.62,200.56,651.22,199.36,650.12,198.56z"/>
	<path d="M697.86,116.48c1.1-1.2,1.1-1.2,1.3-3C697.96,114.18,697.96,115.28,697.86,116.48z"/>
	<path d="M676.94,218.67c0.26,1.05,0.26,2.16,1.3,1.9C677.16,218.05,677.48,218.67,676.94,218.67z"/>
	<path d="M663.83,220.98c-0.93,0.46,1.24,4.62,0.5,0.2C664.33,221.08,664.03,220.98,663.83,220.98z"/>
	<path d="M690.65,167.73c0.84-0.75,1.42-1.24,1.9-1.71C690.63,165.92,690.89,165.84,690.65,167.73z"/>
	<path d="M675.74,216.67c0.4-1-0.1-1.5-0.7-2.1C674.54,215.57,675.14,215.97,675.74,216.67z"/>
	<path d="M654.32,184.74c0,0.83-0.72,0.38,1.2,1.1C654.92,185.14,654.62,184.94,654.32,184.74z"/>
	<path d="M687.45,196.65c0-2.73-1.02-0.32-0.4,0.3C687.15,196.85,687.45,196.75,687.45,196.65z"/>
	<path d="M688.75,168.13c-0.88,0.44-0.5,0.6,0,1.1c0.2-0.2,0.4-0.5,0.6-0.7C689.05,168.33,688.85,168.03,688.75,168.13z"/>
	<path d="M692.15,98.67c0,0.1,0,0.2-0.1,0.3C692.14,98.88,692.67,98.67,692.15,98.67z"/>
	<path d="M657.12,186.75c-0.39,0-0.53,0.62,0.3,0.2C657.32,186.85,657.22,186.75,657.12,186.75z"/>
	<path d="M676.14,243.7c-0.62-0.62-0.22-0.97-0.5-0.4C675.74,243.5,675.94,243.6,676.14,243.7z"/>
	<path d="M639.51,183.34c-0.1-0.1-0.3-0.2-0.5-0.3C639.11,183.24,639.01,183.74,639.51,183.34z"/>
	<path d="M652.32,182.54c-0.2,0-0.3-0.1-0.5-0.2C651.82,182.64,651.92,182.94,652.32,182.54z"/>
	<path d="M666.53,233.49l-0.1-0.2C666.31,233.54,666.27,233.49,666.53,233.49z"/>
	<path d="M687.95,191.25l-0.1-0.1C687.85,191.55,687.82,191.52,687.95,191.25z"/>
	<path d="M663.53,231.99c0.26,0,0.23,0.05,0.1-0.2L663.53,231.99z"/>
	<path d="M537.62,90.76c0.9,0.7,1.8,1.1,3.7,0.5C539.62,91.16,538.82,90.16,537.62,90.76z"/>
	<path d="M536.32,89.96c-1.4-0.5-2.2-0.8-3-1.1C533.92,89.86,534.62,90.26,536.32,89.96z"/>
	<path d="M574.15,12.99c0.88,0.44,0.41-0.17,0.3-0.4C574.05,12.59,573.76,12.99,574.15,12.99z"/>
	<path d="M546.03,92.06c0.17,0,0.48,0.18,0.1-0.2C546.13,91.96,546.03,91.96,546.03,92.06z"/>
	<path d="M532.84,88.19c0.19,0.19,0.41,0.41,0.57,0.57C533.41,88.43,533.19,88.24,532.84,88.19z"/>
	<path d="M532.71,88.06l-0.1,0.1C532.87,88.16,532.93,88.27,532.71,88.06z"/>
	<path d="M574.75,13.19c0.1,0,0.2,0.1,0.3,0.1C574.95,13.19,574.85,13.19,574.75,13.19z"/>
	<path d="M617.59,468.39c0-3.48-5.25,6.16-4,9.71C615.39,475,616.59,471.8,617.59,468.39z"/>
	<path d="M629.9,471.9c0.7-0.9,0.2-1.4-0.6-1.8C628.8,470.9,628.9,471.5,629.9,471.9z"/>
	<path d="M612.88,484.41c0.06-0.13,0.56-1.4-0.1-1.4C611.79,485,612.88,484.51,612.88,484.41z"/>
	<path d="M606.68,550.37c0.1-0.3,0.3-0.5,0.3-0.7c0-0.3-0.2-0.5-0.3-0.9C606.1,549.63,606.51,549.67,606.68,550.37z"/>
	<path d="M626.4,463.89c-0.1-0.3-0.3-0.5-0.8-1.2C625.78,464.17,625.73,464.22,626.4,463.89z"/>
	<path d="M608.38,500.22c-0.46,0-0.2,0.2-0.1,0.3c0.1-0.1,0.2-0.1,0.3-0.1C608.48,500.32,608.48,500.22,608.38,500.22z"/>
	<path d="M628.2,466.59c0-0.1-0.1-0.7-0.5-0.5C628.13,466.95,627.88,466.91,628.2,466.59z"/>
	<path d="M276.79,417.95c0.08-0.16,0.1-0.1-0.1-0.1L276.79,417.95z"/>
	<path d="M285.11,387.4C285.43,383.58,285.15,384.33,285.11,387.4L285.11,387.4z"/>
	<path d="M290.3,388.62c-3.7,5.24-3.05,4.65-4.8,6.41c-0.35-3.06-0.42-5.77-0.39-7.63c-0.19,2.28-0.6,6.19-1.41,12.24
		c-0.66,4.91-0.7,9.91-2.1,14.61c-1.86,1.08-3.82,1.68-4.74,3.59c1.76-0.01,3.22-3.12,4.44-1.69c0,20.51,1.66-15.96,4.5-19.92
		C294.43,384.22,290.99,387.24,290.3,388.62z"/>
	<path d="M275.59,353.69c-0.77-4.82-0.98-7.72-0.96-9.39c-0.12,0.11-0.27,0.21-0.44,0.28c-1.2-1.6-0.7-3.9-2.2-5.71
		c-0.48,1.78,2.68,20.92,2.7,21.02c0.1,0.5,0.5,0.9,1.2,1.9C276.19,358.6,275.99,356.2,275.59,353.69z"/>
	<path d="M274.63,344.3C275.94,343.14,274.67,340.49,274.63,344.3L274.63,344.3z"/>
	<path d="M231.85,385.22c-1.35,2.47-8.89,17.49-8.91,17.52c3.14-0.52,3.88-5.94,12.01-19.22
		C237.03,380.13,232.91,383.28,231.85,385.22z"/>
	<path d="M260.97,342.28c1.88,7.53,0.67,8.75,2.6,10.51c1.24-4.03-0.69-14.53-5.2-20.82C258.15,334.08,259.26,335.41,260.97,342.28z
		"/>
	<path d="M223.34,381.22c0.9-4.4,1.58-8.81,2.2-13.31C229.16,341.7,223.34,372.27,223.34,381.22z"/>
	<path d="M228.45,406.94c1.1,21.53,0.69-2.41,1.1-8.31C228.35,401.33,228.3,404.14,228.45,406.94z"/>
	<path d="M225.54,434.56c0.3-0.8,0.4-1.2,0.5-1.6C231.79,403.06,223.68,431.31,225.54,434.56z"/>
	<path d="M245.06,340.08c-0.5,0-0.8,0-1.4,0.1c0-26.39-0.86-4.45-0.6-0.6C243.37,344.25,245.36,343.11,245.06,340.08z"/>
	<path d="M292.6,371.11c1.46-1.8,1.4-5.51,0.2-7.51C292.5,366,292.5,368.31,292.6,371.11z"/>
	<path d="M289.6,343.68c-0.1-2.3-1-3.9-2.7-5.6C287.1,340.78,287.8,342.18,289.6,343.68z"/>
	<path d="M282.99,345.89c0.3,3,1,5.91,2.2,8.61C285.13,352.79,283.9,346.39,282.99,345.89z"/>
	<path d="M286.45,423.89c-1.43,2.14-2.58,4.45-3.35,6.87C284.92,428.75,286.09,426.46,286.45,423.89z"/>
	<path d="M286.5,423.55c-0.01,0.12-0.04,0.23-0.05,0.34C286.63,423.61,286.62,423.68,286.5,423.55z"/>
	<path d="M237.75,330.41c-0.04,0.57-0.1,2.2-0.1,6.66C237.8,337.08,237.76,337.81,237.75,330.41z"/>
	<path d="M237.78,330.14C237.78,330.12,237.78,330.12,237.78,330.14L237.78,330.14z"/>
	<path d="M237.75,330.17c0,0.09,0,0.16,0,0.24c0.01-0.18,0.02-0.25,0.02-0.27C237.78,330.15,237.77,330.17,237.75,330.17z"/>
	<path d="M243.24,423.63c1.5,1.47,2.61,2.15,4.82,2.72C246.53,424.83,245.44,424.2,243.24,423.63z"/>
	<path d="M272.38,421.45c1.54-0.48,2.71-1.34,3.33-2.84C274.21,419.04,273.06,420.01,272.38,421.45z"/>
	<path d="M275.79,418.45c-0.02,0.06-0.05,0.11-0.07,0.16C275.94,418.54,275.9,418.57,275.79,418.45z"/>
	<path d="M286.3,376.61c-0.4,0.9-1.2,1.8-0.5,3.2C286.7,378.71,286.4,377.61,286.3,376.61z"/>
	<path d="M239.56,421.35c-0.06,0-0.12-0.01-0.19-0.01C239.47,421.49,239.45,421.46,239.56,421.35z"/>
	<path d="M235.85,419.35c1.06,0.96,2.02,1.91,3.51,1.99C238.48,420.1,237.4,419.25,235.85,419.35z"/>
	<path d="M282.49,342.78c-0.2-1.2-0.3-2.5-1.3-3.4C281.59,340.58,281.29,341.98,282.49,342.78z"/>
	<path d="M243.02,423.49c-0.1,0.1-0.09,0.04,0.22,0.14C243.14,423.53,242.95,423.35,243.02,423.49z"/>
	<path d="M239.46,421.45c0.87,1.25,2.02,1.94,3.53,1.99C242.18,422.13,240.92,421.64,239.46,421.45z"/>
	<path d="M237.05,341.98h-0.1C236.95,344.62,237.05,343.46,237.05,341.98z"/>
	<path d="M226.74,354.29c0,1,0,2,0,3C227.35,356.29,227.25,355.29,226.74,354.29z"/>
	<path d="M270.78,422.95c0.7-0.7,1.1-1.1,1.5-1.6C271.58,421.45,270.98,421.65,270.78,422.95z"/>
	<path d="M292.7,385.12c-0.5,1-0.7,1.5-1,2.1C292.4,386.92,292.7,386.42,292.7,385.12z"/>
	<path d="M282.99,345.89l0.1-0.1C282.97,345.67,283.03,345.67,282.99,345.89z"/>
	<path d="M283.01,345.71c0.09-1.03,0.14-1.97-0.62-2.82C282.29,343.85,282.11,344.91,283.01,345.71z"/>
	<path d="M290.1,414.15l0.1,0.1C290.24,413.94,290.2,414.07,290.1,414.15z"/>
	<path d="M290.9,411.44c-0.83,0.74-0.64,1.74-0.69,2.6C291.05,413.35,290.71,412.3,290.9,411.44z"/>
	<path d="M287.4,422.15c0.74-0.56,0.63-1.28,0.6-2.03C287.32,420.63,287.4,421.39,287.4,422.15z"/>
	<path d="M288,419.95c0,0.06,0,0.12,0,0.17C288.13,420.03,288.11,420.06,288,419.95z"/>
	<path d="M228.15,419.35c0.4-0.5,0.8-1,0.1-1.8C228.25,418.25,228.15,418.85,228.15,419.35z"/>
	<path d="M289.51,416.43c0.67-0.67,0.59-1.42,0.59-2.18C289.36,414.8,289.56,415.61,289.51,416.43z"/>
	<path d="M288.91,418.44c0.48-0.49,0.69-1.9,0.6-1.98C289.51,416.36,288.93,416.87,288.91,418.44z"/>
	<path d="M291,411.54c0.3-0.5,0.6-0.9,0.1-1.7C291.1,410.54,291,411.04,291,411.54z"/>
	<path d="M229.65,398.73c0.2-0.5,0.5-0.9,0.1-1.6C229.75,397.73,229.65,398.23,229.65,398.73z"/>
	<path d="M232.05,362.9c0-0.2,0-0.5,0-0.7C232,362.3,231.84,362.9,232.05,362.9z"/>
	<path d="M227.85,350.99c-0.38,0.96-0.1,0.79-0.1,1.2C227.75,351.89,227.75,351.69,227.85,350.99z"/>
	<path d="M265.78,332.57c0.5,0,0.9,0.22,0.9,0C266.18,332.57,265.78,332.36,265.78,332.57z"/>
	<path d="M263.88,331.77c-1.06,0-0.9-0.05-0.9,0.2C264.03,331.97,263.88,332.03,263.88,331.77z"/>
	<path d="M267.88,425.36c0,0.2,0.1-0.1,0.1-0.4C267.88,425.26,267.78,425.46,267.88,425.36z"/>
	<path d="M232.85,360.1c-0.27-0.13-0.23-0.2-0.1,0.3L232.85,360.1z"/>
	<path d="M286.7,423.51c0.68-0.23,0.6-0.89,0.6-1.46C286.65,422.33,286.69,422.95,286.7,423.51z"/>
	<path d="M286.6,423.55l0.1,0.1C286.7,423.45,286.72,423.52,286.6,423.55z"/>
	<path d="M288.1,420.05c0.64-0.28,0.61-0.89,0.68-1.37C288.02,418.83,288.1,419.48,288.1,420.05z"/>
	<path d="M288.91,418.44c-0.16,0.16-0.1,0.09-0.13,0.24C288.92,418.64,288.91,418.69,288.91,418.44z"/>
	<path d="M249.56,427.06c-0.04,0.01-0.08,0.01-0.13,0.02C249.47,427.18,249.45,427.17,249.56,427.06z"/>
	<path d="M248.06,426.46c0.19,0.66,0.73,0.77,1.37,0.62C249.22,426.37,248.73,426.36,248.06,426.46z"/>
	<path d="M249.46,427.16c0.18,0.74,0.79,0.71,1.36,0.62C250.6,427.17,250.04,427.06,249.46,427.16z"/>
	<path d="M250.97,427.76c-0.05,0.01-0.09,0.01-0.14,0.02C250.86,427.89,250.87,427.86,250.97,427.76z"/>
	<path d="M232.35,429.26c-0.2-0.5-0.4-1-0.6-1.4C232.36,429.38,232.11,429.49,232.35,429.26z"/>
	<path d="M251.47,427.96c-0.15,0-0.27-0.01-0.36-0.02c0.11,0.07,0.25,0.2,0.36,0.42C251.71,428.12,251.57,427.96,251.47,427.96z"/>
	<path d="M251.11,427.94C250.86,427.78,250.71,427.89,251.11,427.94L251.11,427.94z"/>
	<path d="M265.98,429.96c0.1-0.3,0.2-0.5,0.1-0.4C266.08,429.36,266.08,429.66,265.98,429.96z"/>
	<path d="M265.18,431.26l0.1,0.1C266.3,429.32,265.91,429.43,265.18,431.26z"/>
	<path d="M265.08,431.56c0,0.2,0,0,0.1-0.3C265.08,431.56,264.98,431.76,265.08,431.56z"/>
	<path d="M261.17,331.17c-0.26-0.26-0.73,0-0.3,0C260.97,331.27,261.07,331.17,261.17,331.17z"/>
	<path d="M235.25,432.16c0.2,0.2,0.4,0.4,0.6,0.7C235.75,432.56,235.55,432.36,235.25,432.16z"/>
	<path d="M235.85,432.86c0.26,0.13,0.23,0.16,0.1-0.1L235.85,432.86z"/>
	<path d="M276.59,417.75c0.01,0.04,0,0.07,0,0.11C276.74,417.86,276.7,417.86,276.59,417.75z"/>
	<path d="M275.99,418.55c0.37,0,0.64-0.19,0.6-0.69C276.16,417.87,275.9,417.99,275.99,418.55z"/>
	<path d="M235.65,418.85c0.07,0.14,0.14,0.23,0.21,0.3C235.84,419.05,235.9,418.85,235.65,418.85z"/>
	<path d="M275.29,342.38v-0.3C275.17,342.32,275.16,342.26,275.29,342.38z"/>
	<path d="M234.55,431.26c-0.19,0.19-1.29-1.57-2.3-1.9C232.61,429.6,237.08,433.79,234.55,431.26z"/>
	<path d="M268.08,425.06C268.38,424.66,267.98,424.96,268.08,425.06L268.08,425.06z"/>
	<path d="M280.99,425.66h-0.2C280.92,425.78,280.87,425.78,280.99,425.66z"/>
	<path d="M231.05,427.06c-0.14,0.14-0.01,0.29,0.8,0.7C231.55,427.56,231.35,427.26,231.05,427.06z"/>
	<path d="M278.09,281.23c-2.15,1.61-2.89,0-4.2,3c-0.83,1.9-2.56,6.23-1.9,8.21c2.3-3.36,2.09-8.27,5.5-9.61
		c0.82-0.32,5.35-4.73,6.31-7.61C280.74,277.94,282.1,276.94,278.09,281.23z"/>
	<path d="M286,294.94c0,5.05,2.98-5.46,1.2-10.21C286.8,288.33,286.4,291.64,286,294.94z"/>
	<path d="M281.79,265.82c3.1-1.65,4.21-6.83,2.9-10.11C284.09,262.33,281.62,263.55,281.79,265.82z"/>
	<path d="M268.88,298.74c1.7-1.9,1.7-2,1.1-3.4C269.58,296.54,269.18,297.64,268.88,298.74z"/>
	<path d="M285.6,306.55c0.2-1.4,0.6-2.9-0.2-5.2C285.2,303.55,285.1,305.05,285.6,306.55z"/>
	<path d="M250.37,286.73c0.4,1.3,0.6,2.2,2,2.9C251.87,288.44,251.67,287.53,250.37,286.73z"/>
	<path d="M256.27,280.93c-0.7-1-1.2-2-2.5-2.2C254.47,280.73,254.67,280.93,256.27,280.93z"/>
	<path d="M247.96,259.31c1.56,1.56,0.67,0.9,1.9,0.9C249.22,258.27,248.58,258.69,247.96,259.31z"/>
	<path d="M275.29,267.02c0.9,0,1.8,0,2.7,0C276.99,266.72,275.99,265.72,275.29,267.02z"/>
	<path d="M263.58,309.55c-0.54,1.99,1.38,2.74,0.8,1C264.18,310.15,263.88,309.85,263.58,309.55z"/>
	<path d="M255.57,263.51c0.54,0-0.04-1.04-0.3-1.3C254.85,261.8,253.86,262.94,255.57,263.51z"/>
	<path d="M254.57,291.34c1.06,0,0.9,0.05,0.9-0.2C254.34,290.76,254.57,291.07,254.57,291.34z"/>
	<path d="M270.08,302.35c-0.2-0.2-0.3-0.3-0.3-0.4c-0.42,0.42-0.34,0.52-0.1,1C269.78,302.75,269.98,302.55,270.08,302.35z"/>
	<path d="M269.58,306.05c0,2.72,0.5,0.21,0.5,0.1C270.35,305.88,269.58,305.74,269.58,306.05z"/>
	<path d="M255.77,304.55c0.37,0.74,0.11,0.5,1.3,0.5C256.61,304.35,256.94,304.16,255.77,304.55z"/>
	<path d="M260.57,265.41c0.59,0.59,0.6,0.85,1.1,0.1C261.34,265.4,260.82,265.17,260.57,265.41z"/>
	<path d="M258.27,282.63c0.1,0.2,0.1,0.4,0.2,0.6c0.1-0.1,0.2-0.1,0.2-0.2C258.5,282.86,258.59,282.31,258.27,282.63z"/>
	<path d="M253.87,278.63l-0.3-0.1C253.81,278.77,253.74,278.76,253.87,278.63z"/>
	<path d="M170.4,234.69c-0.94-0.13-2.71-0.6-3.6-0.9C168.49,234.99,168.49,235.09,170.4,234.69z"/>
	<path d="M164.89,233.19c-1-0.3-1.7-0.6-2.5-0.9C163.39,233.49,163.39,233.49,164.89,233.19z"/>
	<path d="M201.42,155.62c0,0.08,1.07-0.3-0.5-0.3C201.12,155.42,201.22,155.62,201.42,155.62z"/>
	<path d="M201.02,155.22C200.72,154.92,200.92,155.22,201.02,155.22L201.02,155.22z"/>
	<path d="M198.72,153.82c0.06,0.06,0.12,0.08,0.19,0.11C198.9,153.87,198.86,153.82,198.72,153.82z"/>
	<path d="M199.12,154.02c-0.27-0.12-0.2-0.11-0.2,0C199.02,154.02,199.02,154.02,199.12,154.02z"/>
	<path d="M162.49,232.19c-0.08,0.01-0.13,0-0.2,0C162.41,232.31,162.36,232.31,162.49,232.19z"/>
	<path d="M161.69,231.58c0,0.35,0.17,0.6,0.6,0.6C162.1,232,161.86,231.76,161.69,231.58z"/>
	<path d="M218.04,477.2c0.69-1.37,3.89-9.06,3.4-10.51C219.72,467.55,215.95,476.97,218.04,477.2z"/>
	<path d="M234.15,471c0.4-1.1,0.1-1.8-0.9-2.3C233.05,469.79,233.25,470.5,234.15,471z"/>
	<path d="M210.43,549.46c1.3-0.6,1-1.2,0.1-2.5C210.53,548.16,210.43,548.76,210.43,549.46z"/>
	<path d="M230.65,462.89c-0.1-0.1-0.1-0.4-0.3-0.5c-0.1-0.1-0.4,0.1-0.6,0.1c0.1,0.1,0.2,0.4,0.3,0.5
		C230.25,463.09,230.45,462.89,230.65,462.89z"/>
	<path d="M217.24,481.91c-0.33,0-0.5-0.23-0.5,1.2C217.7,483.11,217.24,483.65,217.24,481.91z"/>
	<path d="M231.95,497.02v0.3C232.07,496.96,232.08,497.02,231.95,497.02z"/>
	<path d="M212.53,499.22c0,0.16,0.3,0.48,0.3,0C212.83,499.07,212.8,498.95,212.53,499.22z"/>
	<path d="M212.03,543.56c0.13,0,0.13,0.05,0-0.2V543.56z"/>
	<path d="M232.35,465.39c-0.39-0.79,0.03-0.66-0.5-0.4C231.85,465.23,231.98,465.76,232.35,465.39z"/>
	<path d="M266.18,468.49c1.97,10.56,1.21,8.44,2.3,9.81C270.23,469.54,265.59,465.35,266.18,468.49z"/>
	<path d="M261.88,553.07c2.22-2.04,2.78-5.73,1.4-7.91C262.28,548.06,261.48,550.37,261.88,553.07z"/>
	<path d="M263.38,541.66c1.2-1.1,1.4-2.3,0.8-4.1C263.18,539.16,263.08,540.26,263.38,541.66z"/>
	<path d="M267.48,480.3c0,1,0,1.9,0,3.4C268.98,481.3,268.98,481.2,267.48,480.3z"/>
	<path d="M267.78,453.08c0.7,0.9,0.7,0.9,3.3-0.1C270.14,452.51,270.7,452.35,267.78,453.08z"/>
	<path d="M264.18,528.45c0.1,0.3,0.21,0.68,0.6-0.1c-0.1-0.1-0.1-0.2-0.1-0.2C264.48,528.25,264.28,528.35,264.18,528.45z"/>
	<path d="M268.08,487.11c0.1,0.5,0.1,1.1,0.1,2C268.98,488.21,269.18,487.51,268.08,487.11z"/>
	<path d="M267.08,493.62c0,0.78,0.21,0.4,0.4,0.4C267.48,493.75,267.35,493.62,267.08,493.62z"/>
	<path d="M263.98,531.85c-0.1,1-0.2,1.3-0.2,1.6C264.06,532.88,264.2,533.61,263.98,531.85z"/>
	<path d="M263.68,533.35c0,0.3-0.1,0.5,0,0.3C263.68,533.57,263.68,533.46,263.68,533.35z"/>
	<path d="M267.88,487.01c0,0,0.1,0.1,0.3,0C268.08,487.01,267.98,487.01,267.88,487.01z"/>
	<path d="M211.93,282.33l-0.1-0.1C211.83,282.32,211.83,282.33,211.93,282.33z"/>
	<path d="M223.74,287.33c0.16,1.46-0.21,4.48,1.2,4.1C226.59,291,225.93,286.79,223.74,287.33z"/>
	<path d="M231.95,281.93c0,0.3,0.5,0.6,1,1.1C234.01,274.92,231.48,275.37,231.95,281.93z"/>
	<path d="M211.79,282.16c1.43-1.43,1.42-1.66,0.14-3.23C211.46,280.07,211.53,281.12,211.79,282.16z"/>
	<path d="M214.13,273.62c0.2-1,0.3-1.6,0.4-2.7C213.73,272.42,213.73,272.42,214.13,273.62z"/>
	<path d="M213.53,277.83c0.7-1.1,0.7-2,0-2.9C212.83,275.92,212.83,276.72,213.53,277.83z"/>
	<path d="M234.65,221.88c-0.5,1.1-0.6,2.1,0.2,3C235.55,222.98,235.55,222.98,234.65,221.88z"/>
	<path d="M233.45,271.22c-0.4,0-0.3-0.27-0.3,1.8C233.55,273.02,233.45,273.36,233.45,271.22z"/>
	<path d="M214.33,267.62c-0.68,2.04,0.84,0.44,0.3-0.1C214.53,267.52,214.33,267.62,214.33,267.62z"/>
	<path d="M223.64,285.13c-0.9,1-0.6,1.6,0.2,2.1C223.74,286.63,223.64,286.03,223.64,285.13z"/>
	<path d="M233.45,231.48c-0.25-0.13-0.23-0.19-0.1,0.2L233.45,231.48z"/>
	<path d="M234.25,226.98l-0.1-0.2C233.89,227.04,233.87,226.98,234.25,226.98z"/>
	<path d="M277.29,169.03c-0.24-0.48-8.44-1.89-10.51,1.9c1,0.7,1.79,0.39,2.4,0C272.63,168.72,279.4,173.25,277.29,169.03z"/>
	<path d="M276.09,174.23c0-0.6-0.1-1.2-0.2-1.8c-3,0.2-3,0.2-5,2C273.39,175.24,274.19,175.24,276.09,174.23z"/>
	<path d="M255.47,194.75c-3.34-3.34-1.56-3.24-3.6-6.11C250.19,194.69,256.84,196.13,255.47,194.75z"/>
	<path d="M265.18,201.56c-1.5-1.5-2-1.8-4.2-1.8C262.08,201.26,263.48,201.76,265.18,201.56z"/>
	<path d="M254.57,198.76c1.32,3.95,1.4,0.18-0.2-1.6C254.27,197.76,254.37,198.26,254.57,198.76z"/>
	<path d="M245.96,190.35c-1.3,1.3-1.9,2.3-2.2,4.4C244.96,193.25,245.76,192.25,245.96,190.35z"/>
	<path d="M261.48,185.74c-0.1-0.1-0.3-0.1-0.5-0.2C260.97,186.7,262.6,186.31,261.48,185.74z"/>
	<path d="M265.08,201.66c0.07,0.02,0.13,0.04,0.2,0.07C265.13,201.54,265.23,201.5,265.08,201.66z"/>
	<path d="M265.28,201.73c0.29,0.41,0.8,0.3,1.28,0.38C266.12,202.02,265.71,201.88,265.28,201.73z"/>
	<path d="M258.27,184.14c0.61,0.3,0.48,0.22,0.7,0C258.57,183.74,258.68,183.74,258.27,184.14z"/>
	<path d="M274.39,235.19c0.2,1.6,1.6,3.5,3.4,4.9c0.3,0.2,0.9,0,1.6,0C278.09,237.79,276.49,236.29,274.39,235.19z"/>
	<path d="M270.88,232.49c-0.46-0.46-0.2,0.2-0.2,0.3C271.07,232.79,271.02,232.49,270.88,232.49z"/>
	<path d="M280.14,242.19C280.04,242.11,279.87,242.17,280.14,242.19L280.14,242.19z"/>
	<path d="M280.29,242.19c-0.06,0-0.11,0-0.15-0.01c0.03,0.02,0.05,0.05,0.05,0.11C280.25,242.35,280.12,242.28,280.29,242.19z"/>
	<path d="M213.53,241.79c-0.26-0.13-1.38,0.08-1.6,1.6C211.04,246.96,215.24,246.91,213.53,241.79z"/>
	<path d="M217.74,234.19c-0.56-0.19-0.9-0.44-0.9,0.4C216.84,235.24,217.29,234.48,217.74,234.19z"/>
	<path d="M215.84,238.09c-0.1-0.2-0.2-0.3-0.3-0.6C215.18,237.85,215.34,238.58,215.84,238.09z"/>
<path fill="#e6e6e6" d="m206.8 163.6c0-5.1 4.1-9.2 9.3-9.2s9.2 4.2 9.2 9.2-4.1 9.2-9.3 9.2-9.2-4.1-9.2-9.2zm17.3-.1c0-4.5-3.5-8.2-8.2-8.2s-8.2 3.7-8.2 8.3c0 4.5 3.5 8.2 8.2 8.2s8.2-3.7 8.2-8.3zm-13 0c0-2.8 2.1-5.1 5.1-5.1 1.9 0 2.9.6 3.9 1.5l-1.4 1.7c-.8-.7-1.5-1.1-2.5-1.1-1.7 0-2.8 1.4-2.8 3.1s1.1 3 2.8 3c1.1 0 1.7-.5 2.5-1.1l1.4 1.4c-1.1 1.1-2.1 1.7-4 1.7-2.9 0-5-2.3-5-5.1z"/><path fill="#e6e6e6" d="m226.6 154.7h3.4l4.2 13.2 4.4-13.3h2.6l4.4 13.3 4.2-13.2h3.3l-6.2 18h-2.7l-4.4-12.8-4.4 12.8h-2.7z"/><path fill="#e6e6e6" d="m252.8 165.8c0-3.9 3.1-7 7.2-7 4.2 0 7.2 3.2 7.2 7s-3.1 7-7.3 7c-4 0-7.1-3.1-7.1-7zm11.3 0c0-2.3-1.7-4.3-4.2-4.3s-4.1 2-4.1 4.3 1.7 4.3 4.1 4.3c2.7.1 4.2-1.9 4.2-4.3z"/><path fill="#e6e6e6" d="m269.5 159.1h3.1v3c.8-2 2.4-3.4 4.8-3.3v3.2h-.2c-2.7 0-4.6 1.7-4.6 5.4v5.1h-3.1z"/><path fill="#e6e6e6" d="m279.1 153.9h3.1v11.1l5.6-6h3.8l-5.4 5.5 5.5 8h-3.5l-4.1-5.8-1.9 2v3.9h-3.1z"/><path fill="#e6e6e6" d="m291.7 165.8c0-3.9 3.1-7 7.2-7 4.2 0 7.2 3.2 7.2 7s-3.1 7-7.3 7c-4 0-7.1-3.1-7.1-7zm11.3 0c0-2.3-1.7-4.3-4.2-4.3s-4.1 2-4.1 4.3 1.7 4.3 4.1 4.3c2.6.1 4.2-1.9 4.2-4.3z"/><path fill="#e6e6e6" d="m308.2 167.6v-8.6h3.1v7.6c0 2.1 1.1 3.3 2.9 3.3s3-1.3 3-3.3v-7.6h3.1v13.4h-3.1v-2.1c-.8 1.3-2.1 2.3-4.2 2.3-3.1.2-4.8-1.8-4.8-5z"/><path fill="#e6e6e6" d="m323.9 168.8v-7.1h-1.7v-2.6h1.7v-3.7h3.1v3.7h3.6v2.6h-3.6v6.6c0 1.2.6 1.7 1.7 1.7.7 0 1.3-.2 1.9-.5v2.5c-.8.5-1.7.7-2.8.7-2.3 0-3.9-.9-3.9-3.9z"/><path fill="#e6e6e6" d="m333.2 154.7h3.2v15h9.4v2.9h-12.5v-17.9z"/><path fill="#e6e6e6" d="m356 172.5v-1.7c-.9 1.1-2.3 2-4.4 2-2.6 0-4.8-1.4-4.8-4.2 0-3 2.3-4.4 5.4-4.4 1.7 0 2.6.2 3.7.5v-.2c0-1.9-1.2-2.9-3.3-2.9-1.5 0-2.6.3-3.9.8l-.8-2.5c1.5-.7 2.9-1.1 5.1-1.1 4 0 5.9 2.1 5.9 5.7v8zm.1-5.6c-.8-.3-1.9-.5-3.1-.5-2 0-3.1.8-3.1 2.1s1.1 2 2.6 2c2 0 3.5-1.1 3.5-2.9z"/><path fill="#e6e6e6" d="m364.9 170.5v2.1h-3.1v-18.7h3.1v7.4c1-1.4 2.4-2.5 4.5-2.5 3.2 0 6.3 2.5 6.3 7s-3.1 7-6.3 7c-2.1 0-3.5-1.1-4.5-2.3zm7.7-4.7c0-2.6-1.7-4.3-3.9-4.3s-3.9 1.7-3.9 4.4c0 2.6 1.8 4.3 3.9 4.3s3.9-1.7 3.9-4.4z"/><path fill="#e6e6e6" d="m376.9 170.8 1.4-2.1c1.4 1.1 3 1.7 4.4 1.7s2.1-.5 2.1-1.5-1.3-1.4-2.8-1.8c-.1 0-.2-.1-.2-.1-2-.6-4.2-1.4-4.2-4s2.1-4.1 4.8-4.1c1.7 0 3.5.6 5 1.5l-1.2 2.2c-1.3-.8-2.6-1.3-3.8-1.3s-1.9.5-1.9 1.4 1.3 1.4 2.8 1.8c.1 0 .2.1.2.1 2 .6 4.2 1.5 4.2 4 0 2.9-2.2 4.2-5 4.2-1.9 0-4-.7-5.8-2z"/><path fill="#e6e6e6" d="m505.6 163.6c0-5.1 4.1-9.2 9.3-9.2s9.2 4.2 9.2 9.2-4.1 9.2-9.3 9.2-9.2-4.1-9.2-9.2zm17.4-.1c0-4.5-3.5-8.2-8.2-8.2s-8.2 3.7-8.2 8.3c0 4.5 3.5 8.2 8.2 8.2s8.2-3.7 8.2-8.3zm-13.1 0c0-2.8 2.1-5.1 5.1-5.1 1.9 0 2.9.6 3.9 1.5l-1.4 1.7c-.8-.7-1.5-1.1-2.5-1.1-1.7 0-2.8 1.4-2.8 3.1s1.1 3 2.8 3c1.1 0 1.7-.5 2.5-1.1l1.4 1.4c-1.1 1.1-2.1 1.7-4 1.7-2.9 0-5-2.3-5-5.1z"/><path fill="#e6e6e6" d="m525.4 154.7h3.4l4.2 13.2 4.4-13.3h2.6l4.4 13.3 4.2-13.2h3.3l-6.2 18h-2.7l-4.4-12.8-4.4 12.8h-2.7z"/><path fill="#e6e6e6" d="m551.7 165.8c0-3.9 3.1-7 7.2-7 4.2 0 7.2 3.2 7.2 7s-3.1 7-7.3 7c-4.1 0-7.1-3.1-7.1-7zm11.2 0c0-2.3-1.7-4.3-4.2-4.3s-4.1 2-4.1 4.3 1.7 4.3 4.1 4.3c2.7.1 4.2-1.9 4.2-4.3z"/><path fill="#e6e6e6" d="m568.3 159.1h3.1v3c.8-2 2.4-3.4 4.8-3.3v3.2h-.2c-2.7 0-4.6 1.7-4.6 5.4v5.1h-3.1z"/><path fill="#e6e6e6" d="m577.9 153.9h3.1v11.1l5.6-6h3.8l-5.4 5.5 5.5 8h-3.5l-4.1-5.8-1.9 2v3.9h-3.1z"/><path fill="#e6e6e6" d="m590.6 165.8c0-3.9 3.1-7 7.2-7 4.2 0 7.2 3.2 7.2 7s-3.1 7-7.3 7c-4.1 0-7.1-3.1-7.1-7zm11.2 0c0-2.3-1.7-4.3-4.2-4.3s-4.1 2-4.1 4.3 1.7 4.3 4.1 4.3c2.6.1 4.2-1.9 4.2-4.3z"/><path fill="#e6e6e6" d="m607 167.6v-8.6h3.1v7.6c0 2.1 1.1 3.3 2.9 3.3s3-1.3 3-3.3v-7.6h3.1v13.4h-3.1v-2.1c-.8 1.3-2.1 2.3-4.2 2.3-3 .2-4.8-1.8-4.8-5z"/><path fill="#e6e6e6" d="m622.7 168.8v-7.1h-1.7v-2.6h1.7v-3.7h3.1v3.7h3.6v2.6h-3.6v6.6c0 1.2.6 1.7 1.7 1.7.7 0 1.3-.2 1.9-.5v2.5c-.8.5-1.7.7-2.8.7-2.3 0-3.9-.9-3.9-3.9z"/><path fill="#e6e6e6" d="m632 154.7h3.2v15h9.4v2.9h-12.6z"/><path fill="#e6e6e6" d="m654.8 172.5v-1.7c-.9 1.1-2.3 2-4.4 2-2.6 0-4.8-1.4-4.8-4.2 0-3 2.3-4.4 5.4-4.4 1.7 0 2.6.2 3.7.5v-.2c0-1.9-1.2-2.9-3.3-2.9-1.5 0-2.6.3-3.9.8l-.8-2.5c1.5-.7 2.9-1.1 5.1-1.1 4 0 5.9 2.1 5.9 5.7v8zm.1-5.6c-.8-.3-1.9-.5-3.1-.5-2 0-3.1.8-3.1 2.1s1.1 2 2.6 2c2 0 3.5-1.1 3.5-2.9z"/><path fill="#e6e6e6" d="m663.7 170.5v2.1h-3.1v-18.7h3.1v7.4c1-1.4 2.4-2.5 4.5-2.5 3.2 0 6.3 2.5 6.3 7s-3.1 7-6.3 7c-2.1 0-3.5-1.1-4.5-2.3zm7.8-4.7c0-2.6-1.7-4.3-3.9-4.3-2.1 0-3.9 1.7-3.9 4.4 0 2.6 1.8 4.3 3.9 4.3s3.9-1.7 3.9-4.4z"/><path fill="#e6e6e6" d="m675.8 170.8 1.4-2.1c1.4 1.1 3 1.7 4.4 1.7s2.1-.5 2.1-1.5-1.3-1.4-2.8-1.8c-.1 0-.2-.1-.2-.1-2-.6-4.2-1.4-4.2-4s2.1-4.1 4.8-4.1c1.7 0 3.5.6 5 1.5l-1.2 2.2c-1.3-.8-2.6-1.3-3.8-1.3s-1.9.5-1.9 1.4 1.3 1.4 2.8 1.8c.1 0 .2.1.2.1 2 .6 4.2 1.5 4.2 4 0 2.9-2.2 4.2-5 4.2-2 0-4.1-.7-5.8-2z"/><path fill="#e6e6e6" d="m61 298.6c0-5.1 4.1-9.2 9.3-9.2s9.2 4.2 9.2 9.2-4.1 9.2-9.3 9.2c-5.1 0-9.2-4.2-9.2-9.2zm17.4-.1c0-4.5-3.5-8.2-8.2-8.2s-8.2 3.7-8.2 8.3c0 4.5 3.5 8.2 8.2 8.2s8.2-3.7 8.2-8.3zm-13.1-.1c0-2.8 2.1-5.1 5.1-5.1 1.9 0 2.9.6 3.9 1.5l-1.4 1.7c-.8-.7-1.5-1.1-2.5-1.1-1.7 0-2.8 1.4-2.8 3.1s1.1 3 2.8 3c1.1 0 1.7-.5 2.5-1.1l1.4 1.4c-1.1 1.1-2.1 1.7-4 1.7-2.8.1-5-2.2-5-5.1z"/><path fill="#e6e6e6" d="m80.9 289.7h3.4l4.2 13.2 4.4-13.3h2.6l4.4 13.3 4.2-13.2h3.3l-6.2 18h-2.7l-4.4-12.8-4.4 12.8h-2.7z"/><path fill="#e6e6e6" d="m107.1 300.8c0-3.9 3.1-7 7.2-7s7.2 3.2 7.2 7-3.1 7-7.3 7c-4 0-7.1-3.1-7.1-7zm11.3 0c0-2.3-1.7-4.3-4.2-4.3s-4.1 2-4.1 4.3 1.7 4.3 4.1 4.3c2.6.1 4.2-1.9 4.2-4.3z"/><path fill="#e6e6e6" d="m123.7 294h3.1v3c.8-2 2.4-3.4 4.8-3.3v3.2h-.2c-2.7 0-4.6 1.7-4.6 5.4v5.1h-3.1z"/><path fill="#e6e6e6" d="m133.4 288.9h3.1v11.1l5.6-6h3.8l-5.4 5.5 5.5 8h-3.5l-4.1-5.8-1.9 1.9v3.9h-3.1z"/><path fill="#e6e6e6" d="m146 300.8c0-3.9 3.1-7 7.2-7s7.2 3.2 7.2 7-3.1 7-7.3 7c-4.1 0-7.1-3.1-7.1-7zm11.2 0c0-2.3-1.7-4.3-4.2-4.3s-4.1 2-4.1 4.3 1.7 4.3 4.1 4.3c2.6.1 4.2-1.9 4.2-4.3z"/><path fill="#e6e6e6" d="m162.4 302.6v-8.6h3.1v7.6c0 2.1 1.1 3.3 2.9 3.3s3-1.3 3-3.3v-7.6h3.1v13.4h-3.1v-2.1c-.8 1.3-2.1 2.3-4.2 2.3-3 .2-4.8-1.8-4.8-5z"/><path fill="#e6e6e6" d="m178.1 303.8v-7.1h-1.7v-2.7h1.7v-3.7h3.1v3.7h3.6v2.6h-3.6v6.6c0 1.2.6 1.7 1.7 1.7.7 0 1.3-.2 1.9-.5v2.5c-.8.5-1.7.7-2.8.7-2.3.1-3.9-.9-3.9-3.8z"/><path fill="#e6e6e6" d="m187.4 289.7h3.2v15h9.4v2.9h-12.5v-17.9z"/><path fill="#e6e6e6" d="m210.2 307.5v-1.7c-.9 1.1-2.3 2-4.4 2-2.6 0-4.8-1.4-4.8-4.2 0-3 2.3-4.4 5.4-4.4 1.7 0 2.6.2 3.7.5v-.2c0-1.9-1.2-2.9-3.3-2.9-1.5 0-2.6.3-3.9.8l-.8-2.5c1.5-.7 2.9-1.1 5.1-1.1 4 0 5.9 2.1 5.9 5.7v8zm.1-5.6c-.8-.3-1.9-.5-3.1-.5-2 0-3.1.8-3.1 2.1s1.1 2 2.6 2c2 0 3.5-1.1 3.5-2.9z"/><path fill="#e6e6e6" d="m219.2 305.5v2.1h-3.1v-18.7h3.1v7.4c1-1.4 2.4-2.5 4.5-2.5 3.2 0 6.3 2.5 6.3 7s-3.1 7-6.3 7c-2.2 0-3.6-1.1-4.5-2.3zm7.7-4.7c0-2.6-1.7-4.3-3.9-4.3s-3.9 1.7-3.9 4.4c0 2.6 1.8 4.3 3.9 4.3s3.9-1.7 3.9-4.4z"/><path fill="#e6e6e6" d="m231.2 305.8 1.4-2.1c1.4 1.1 3 1.7 4.4 1.7s2.1-.5 2.1-1.5-1.3-1.4-2.8-1.8c-.1 0-.2-.1-.2-.1-2-.6-4.2-1.4-4.2-4s2.1-4.1 4.8-4.1c1.7 0 3.5.6 5 1.5l-1.2 2.2c-1.3-.8-2.6-1.3-3.8-1.3s-1.9.5-1.9 1.4 1.3 1.4 2.8 1.8c.1 0 .2.1.2.1 2 .6 4.2 1.5 4.2 4 0 2.9-2.2 4.2-5 4.2-2 0-4.1-.7-5.8-2z"/><path fill="#e6e6e6" d="m360.6 298.6c0-5.1 4.1-9.2 9.3-9.2s9.2 4.2 9.2 9.2-4.1 9.2-9.3 9.2-9.2-4.2-9.2-9.2zm17.4-.1c0-4.5-3.5-8.2-8.2-8.2s-8.2 3.7-8.2 8.3c0 4.5 3.5 8.2 8.2 8.2s8.2-3.7 8.2-8.3zm-13.1-.1c0-2.8 2.1-5.1 5.1-5.1 1.9 0 2.9.6 3.9 1.5l-1.4 1.7c-.8-.7-1.5-1.1-2.5-1.1-1.7 0-2.8 1.4-2.8 3.1s1.1 3 2.8 3c1.1 0 1.7-.5 2.5-1.1l1.4 1.4c-1.1 1.1-2.1 1.7-4 1.7-2.8.1-5-2.2-5-5.1z"/><path fill="#e6e6e6" d="m380.5 289.7h3.4l4.2 13.2 4.4-13.3h2.6l4.4 13.3 4.2-13.2h3.3l-6.2 18h-2.7l-4.4-12.8-4.4 12.8h-2.7z"/><path fill="#e6e6e6" d="m406.7 300.8c0-3.9 3.1-7 7.2-7 4.2 0 7.2 3.2 7.2 7s-3.1 7-7.3 7c-4.1 0-7.1-3.1-7.1-7zm11.3 0c0-2.3-1.7-4.3-4.2-4.3s-4.1 2-4.1 4.3 1.7 4.3 4.1 4.3c2.7.1 4.2-1.9 4.2-4.3z"/><path fill="#e6e6e6" d="m423.3 294h3.1v3c.8-2 2.4-3.4 4.8-3.3v3.2h-.2c-2.7 0-4.6 1.7-4.6 5.4v5.1h-3.1z"/><path fill="#e6e6e6" d="m433 288.9h3.1v11.1l5.6-6h3.8l-5.4 5.5 5.5 8h-3.5l-4.1-5.8-1.9 2v3.9h-3.1z"/><path fill="#e6e6e6" d="m445.6 300.8c0-3.9 3.1-7 7.2-7 4.2 0 7.2 3.2 7.2 7s-3.1 7-7.3 7c-4.1 0-7.1-3.1-7.1-7zm11.3 0c0-2.3-1.7-4.3-4.2-4.3s-4.1 2-4.1 4.3 1.7 4.3 4.1 4.3c2.6.1 4.2-1.9 4.2-4.3z"/><path fill="#e6e6e6" d="m462.1 302.6v-8.6h3.1v7.6c0 2.1 1.1 3.3 2.9 3.3s3-1.3 3-3.3v-7.6h3.1v13.4h-3.1v-2.1c-.8 1.3-2.1 2.3-4.2 2.3-3.1.2-4.8-1.8-4.8-5z"/><path fill="#e6e6e6" d="m477.8 303.8v-7.1h-1.8v-2.7h1.7v-3.7h3.1v3.7h3.6v2.6h-3.6v6.6c0 1.2.6 1.7 1.7 1.7.7 0 1.3-.2 1.9-.5v2.5c-.8.5-1.7.7-2.8.7-2.2.1-3.8-.9-3.8-3.8z"/><path fill="#e6e6e6" d="m487.1 289.7h3.2v15h9.4v2.9h-12.5v-17.9z"/><path fill="#e6e6e6" d="m509.9 307.5v-1.7c-.9 1.1-2.3 2-4.4 2-2.6 0-4.8-1.4-4.8-4.2 0-3 2.3-4.4 5.4-4.4 1.7 0 2.6.2 3.7.5v-.2c0-1.9-1.2-2.9-3.3-2.9-1.5 0-2.6.3-3.9.8l-.8-2.5c1.5-.7 2.9-1.1 5.1-1.1 4 0 5.9 2.1 5.9 5.7v8zm.1-5.6c-.8-.3-1.9-.5-3.1-.5-2 0-3.1.8-3.1 2.1s1.1 2 2.6 2c2 0 3.5-1.1 3.5-2.9z"/><path fill="#e6e6e6" d="m518.8 305.5v2.1h-3.1v-18.7h3.1v7.4c1-1.4 2.4-2.5 4.5-2.5 3.2 0 6.3 2.5 6.3 7s-3.1 7-6.3 7c-2.2 0-3.5-1.1-4.5-2.3zm7.7-4.7c0-2.6-1.7-4.3-3.9-4.3s-3.9 1.7-3.9 4.4c0 2.6 1.8 4.3 3.9 4.3s3.9-1.7 3.9-4.4z"/><path fill="#e6e6e6" d="m530.8 305.8 1.4-2.1c1.4 1.1 3 1.7 4.4 1.7s2.1-.5 2.1-1.5-1.3-1.4-2.8-1.8c-.1 0-.2-.1-.2-.1-2-.6-4.2-1.4-4.2-4s2.1-4.1 4.8-4.1c1.7 0 3.5.6 5 1.5l-1.2 2.2c-1.3-.8-2.6-1.3-3.8-1.3s-1.9.5-1.9 1.4 1.3 1.4 2.8 1.8c.1 0 .2.1.2.1 2 .6 4.2 1.5 4.2 4 0 2.9-2.2 4.2-5 4.2-1.9 0-4.1-.7-5.8-2z"/><path fill="#e6e6e6" d="m659.5 298.6c0-5.1 4.1-9.2 9.3-9.2s9.2 4.2 9.2 9.2-4.1 9.2-9.3 9.2-9.2-4.2-9.2-9.2zm17.3-.1c0-4.5-3.5-8.2-8.2-8.2s-8.2 3.7-8.2 8.3c0 4.5 3.5 8.2 8.2 8.2 4.8 0 8.2-3.7 8.2-8.3zm-13-.1c0-2.8 2.1-5.1 5.1-5.1 1.9 0 2.9.6 3.9 1.5l-1.4 1.7c-.8-.7-1.5-1.1-2.5-1.1-1.7 0-2.8 1.4-2.8 3.1s1.1 3 2.8 3c1.1 0 1.7-.5 2.5-1.1l1.4 1.4c-1.1 1.1-2.1 1.7-4 1.7-2.9.1-5-2.2-5-5.1z"/><path fill="#e6e6e6" d="m679.3 289.7h3.4l4.2 13.2 4.4-13.3h2.6l4.4 13.3 4.2-13.2h3.3l-6.2 18h-2.6l-4.4-12.8-4.4 12.8h-2.7z"/><path fill="#e6e6e6" d="m705.5 300.8c0-3.9 3.1-7 7.2-7 4.2 0 7.2 3.2 7.2 7s-3.1 7-7.3 7c-4 0-7.1-3.1-7.1-7zm11.3 0c0-2.3-1.7-4.3-4.2-4.3s-4.1 2-4.1 4.3 1.7 4.3 4.1 4.3c2.7.1 4.2-1.9 4.2-4.3z"/><path fill="#e6e6e6" d="m722.1 294h3.1v3c.8-2 2.4-3.4 4.8-3.3v3.2h-.2c-2.7 0-4.6 1.7-4.6 5.4v5.1h-3.1z"/><path fill="#e6e6e6" d="m731.8 288.9h3.1v11.1l5.6-6h3.8l-5.4 5.5 5.5 8h-3.5l-4.1-5.8-1.9 2v3.9h-3.1z"/><path fill="#e6e6e6" d="m744.4 300.8c0-3.9 3.1-7 7.2-7 4.2 0 7.2 3.2 7.2 7s-3.1 7-7.3 7c-4.1 0-7.1-3.1-7.1-7zm11.3 0c0-2.3-1.7-4.3-4.2-4.3s-4.1 2-4.1 4.3 1.7 4.3 4.1 4.3c2.6.1 4.2-1.9 4.2-4.3z"/><path fill="#e6e6e6" d="m760.9 302.6v-8.6h3.1v7.6c0 2.1 1.1 3.3 2.9 3.3s3-1.3 3-3.3v-7.6h3.1v13.4h-3.1v-2.1c-.8 1.3-2.1 2.3-4.2 2.3-3.1.2-4.8-1.8-4.8-5z"/><path fill="#e6e6e6" d="m776.6 303.8v-7.1h-1.7v-2.7h1.7v-3.7h3.1v3.7h3.6v2.6h-3.6v6.6c0 1.2.6 1.7 1.7 1.7.7 0 1.3-.2 1.9-.5v2.5c-.8.5-1.7.7-2.8.7-2.3.1-3.9-.9-3.9-3.8z"/><path fill="#e6e6e6" d="m785.9 289.7h3.2v15h9.4v2.9h-12.5v-17.9z"/><path fill="#e6e6e6" d="m808.7 307.5v-1.7c-.9 1.1-2.3 2-4.4 2-2.6 0-4.8-1.4-4.8-4.2 0-3 2.3-4.4 5.4-4.4 1.7 0 2.6.2 3.7.5v-.2c0-1.9-1.2-2.9-3.3-2.9-1.5 0-2.6.3-3.9.8l-.8-2.5c1.5-.7 2.9-1.1 5.1-1.1 4 0 5.9 2.1 5.9 5.7v8zm.1-5.6c-.8-.3-1.9-.5-3.1-.5-2 0-3.1.8-3.1 2.1s1.1 2 2.6 2c2 0 3.5-1.1 3.5-2.9z"/><path fill="#e6e6e6" d="m817.6 305.5v2.1h-3.1v-18.7h3.1v7.4c1-1.4 2.4-2.5 4.5-2.5 3.2 0 6.3 2.5 6.3 7s-3.1 7-6.3 7c-2.1 0-3.5-1.1-4.5-2.3zm7.7-4.7c0-2.6-1.7-4.3-3.9-4.3-2.1 0-3.9 1.7-3.9 4.4 0 2.6 1.8 4.3 3.9 4.3 2.2 0 3.9-1.7 3.9-4.4z"/><path fill="#e6e6e6" d="m829.6 305.8 1.4-2.1c1.4 1.1 3 1.7 4.4 1.7s2.1-.5 2.1-1.5-1.3-1.4-2.8-1.8c-.1 0-.2-.1-.2-.1-2-.6-4.2-1.4-4.2-4s2.1-4.1 4.8-4.1c1.7 0 3.5.6 5 1.5l-1.2 2.2c-1.3-.8-2.6-1.3-3.8-1.3s-1.9.5-1.9 1.4 1.3 1.4 2.8 1.8c.1 0 .2.1.2.1 2 .6 4.2 1.5 4.2 4 0 2.9-2.2 4.2-5 4.2-1.9 0-4-.7-5.8-2z"/><path fill="#e6e6e6" d="m206.3 434.2c0-5.1 4.1-9.2 9.3-9.2s9.2 4.2 9.2 9.2-4.1 9.2-9.3 9.2-9.2-4.1-9.2-9.2zm17.4-.1c0-4.5-3.5-8.2-8.2-8.2s-8.2 3.7-8.2 8.3c0 4.5 3.5 8.2 8.2 8.2s8.2-3.7 8.2-8.3zm-13.1-.1c0-2.8 2.1-5.1 5.1-5.1 1.9 0 2.9.6 3.9 1.5l-1.4 1.7c-.8-.7-1.5-1.1-2.5-1.1-1.7 0-2.8 1.4-2.8 3.1s1.1 3 2.8 3c1.1 0 1.7-.5 2.5-1.1l1.4 1.4c-1.1 1.1-2.1 1.7-4 1.7-2.9.1-5-2.2-5-5.1z"/><path fill="#e6e6e6" d="m226.1 425.3h3.4l4.2 13.2 4.4-13.3h2.6l4.4 13.3 4.2-13.2h3.3l-6.2 18h-2.7l-4.4-12.8-4.4 12.8h-2.7z"/><path fill="#e6e6e6" d="m252.4 436.4c0-3.9 3.1-7 7.2-7 4.2 0 7.2 3.2 7.2 7s-3.1 7-7.3 7c-4.1 0-7.1-3.1-7.1-7zm11.2 0c0-2.3-1.7-4.3-4.2-4.3s-4.1 2-4.1 4.3 1.7 4.3 4.1 4.3c2.7.1 4.2-1.9 4.2-4.3z"/><path fill="#e6e6e6" d="m269 429.7h3.1v3c.8-2 2.4-3.4 4.8-3.3v3.2h-.2c-2.7 0-4.6 1.7-4.6 5.4v5.1h-3.1z"/><path fill="#e6e6e6" d="m278.6 424.5h3.1v11.1l5.6-6h3.8l-5.4 5.5 5.5 8h-3.5l-4.1-5.8-1.9 2v3.9h-3.1z"/><path fill="#e6e6e6" d="m291.3 436.4c0-3.9 3.1-7 7.2-7 4.2 0 7.2 3.2 7.2 7s-3.1 7-7.3 7c-4.1 0-7.1-3.1-7.1-7zm11.2 0c0-2.3-1.7-4.3-4.2-4.3s-4.1 2-4.1 4.3 1.7 4.3 4.1 4.3c2.6.1 4.2-1.9 4.2-4.3z"/><path fill="#e6e6e6" d="m307.7 438.2v-8.6h3.1v7.6c0 2.1 1.1 3.3 2.9 3.3s3-1.3 3-3.3v-7.6h3.1v13.4h-3.1v-2.1c-.8 1.3-2.1 2.3-4.2 2.3-3 .2-4.8-1.8-4.8-5z"/><path fill="#e6e6e6" d="m323.4 439.4v-7.1h-1.7v-2.6h1.7v-3.7h3.1v3.7h3.6v2.6h-3.6v6.6c0 1.2.6 1.7 1.7 1.7.7 0 1.3-.2 1.9-.5v2.5c-.8.5-1.7.7-2.8.7-2.3 0-3.9-.9-3.9-3.9z"/><path fill="#e6e6e6" d="m332.7 425.3h3.2v15h9.4v2.9h-12.5v-17.9z"/><path fill="#e6e6e6" d="m355.5 443.1v-1.7c-.9 1.1-2.3 2-4.4 2-2.6 0-4.8-1.4-4.8-4.2 0-3 2.3-4.4 5.4-4.4 1.7 0 2.6.2 3.7.5v-.2c0-1.9-1.2-2.9-3.3-2.9-1.5 0-2.6.3-3.9.8l-.8-2.5c1.5-.7 2.9-1.1 5.1-1.1 4 0 5.9 2.1 5.9 5.7v8zm.1-5.6c-.8-.3-1.9-.5-3.1-.5-2 0-3.1.8-3.1 2.1s1.1 2 2.6 2c2 0 3.5-1.1 3.5-2.9z"/><path fill="#e6e6e6" d="m364.4 441.1v2.1h-3.1v-18.7h3.1v7.4c1-1.4 2.4-2.5 4.5-2.5 3.2 0 6.3 2.5 6.3 7s-3.1 7-6.3 7c-2.1 0-3.5-1.1-4.5-2.3zm7.7-4.7c0-2.6-1.7-4.3-3.9-4.3-2.1 0-3.9 1.7-3.9 4.4 0 2.6 1.8 4.3 3.9 4.3 2.2 0 3.9-1.7 3.9-4.4z"/><path fill="#e6e6e6" d="m376.5 441.4 1.4-2.1c1.4 1.1 3 1.7 4.4 1.7s2.1-.5 2.1-1.5-1.3-1.4-2.8-1.8c-.1 0-.2-.1-.2-.1-2-.6-4.2-1.4-4.2-4s2.1-4.1 4.8-4.1c1.7 0 3.5.6 5 1.5l-1.2 2.2c-1.3-.8-2.6-1.3-3.8-1.3s-1.9.5-1.9 1.4 1.3 1.4 2.8 1.8c.1 0 .2.1.2.1 2 .6 4.2 1.5 4.2 4 0 2.9-2.2 4.2-5 4.2-2 0-4.1-.7-5.8-2z"/><path fill="#e6e6e6" d="m505.1 434.2c0-5.1 4.1-9.2 9.3-9.2s9.2 4.2 9.2 9.2-4.1 9.2-9.3 9.2-9.2-4.1-9.2-9.2zm17.4-.1c0-4.5-3.5-8.2-8.2-8.2s-8.2 3.7-8.2 8.3c0 4.5 3.5 8.2 8.2 8.2s8.2-3.7 8.2-8.3zm-13.1-.1c0-2.8 2.1-5.1 5.1-5.1 1.9 0 2.9.6 3.9 1.5l-1.4 1.7c-.8-.7-1.5-1.1-2.5-1.1-1.7 0-2.8 1.4-2.8 3.1s1.1 3 2.8 3c1.1 0 1.7-.5 2.5-1.1l1.4 1.4c-1.1 1.1-2.1 1.7-4 1.7-2.9.1-5-2.2-5-5.1z"/><path fill="#e6e6e6" d="m525 425.3h3.4l4.2 13.2 4.4-13.3h2.6l4.4 13.3 4.2-13.2h3.3l-6.2 18h-2.7l-4.4-12.8-4.4 12.8h-2.7z"/><path fill="#e6e6e6" d="m551.2 436.4c0-3.9 3.1-7 7.2-7 4.2 0 7.2 3.2 7.2 7s-3.1 7-7.3 7c-4.1 0-7.1-3.1-7.1-7zm11.2 0c0-2.3-1.7-4.3-4.2-4.3s-4.1 2-4.1 4.3 1.7 4.3 4.1 4.3c2.7.1 4.2-1.9 4.2-4.3z"/><path fill="#e6e6e6" d="m567.8 429.7h3.1v3c.8-2 2.4-3.4 4.8-3.3v3.2h-.2c-2.7 0-4.6 1.7-4.6 5.4v5.1h-3.1z"/><path fill="#e6e6e6" d="m577.5 424.5h3.1v11.1l5.6-6h3.8l-5.4 5.5 5.5 8h-3.5l-4.1-5.8-1.9 2v3.9h-3.1z"/><path fill="#e6e6e6" d="m590.1 436.4c0-3.9 3.1-7 7.2-7 4.2 0 7.2 3.2 7.2 7s-3.1 7-7.3 7c-4.1 0-7.1-3.1-7.1-7zm11.2 0c0-2.3-1.7-4.3-4.2-4.3s-4.1 2-4.1 4.3 1.7 4.3 4.1 4.3c2.6.1 4.2-1.9 4.2-4.3z"/><path fill="#e6e6e6" d="m606.5 438.2v-8.6h3.1v7.6c0 2.1 1.1 3.3 2.9 3.3s3-1.3 3-3.3v-7.6h3.1v13.4h-3.1v-2.1c-.8 1.3-2.1 2.3-4.2 2.3-3 .2-4.8-1.8-4.8-5z"/><path fill="#e6e6e6" d="m622.2 439.4v-7.1h-1.7v-2.6h1.7v-3.7h3.1v3.7h3.6v2.6h-3.6v6.6c0 1.2.6 1.7 1.7 1.7.7 0 1.3-.2 1.9-.5v2.5c-.8.5-1.7.7-2.8.7-2.3 0-3.9-.9-3.9-3.9z"/><path fill="#e6e6e6" d="m631.5 425.3h3.2v15h9.4v2.9h-12.5v-17.9z"/><path fill="#e6e6e6" d="m654.3 443.1v-1.7c-.9 1.1-2.3 2-4.4 2-2.6 0-4.8-1.4-4.8-4.2 0-3 2.3-4.4 5.4-4.4 1.7 0 2.6.2 3.7.5v-.2c0-1.9-1.2-2.9-3.3-2.9-1.5 0-2.6.3-3.9.8l-.8-2.5c1.5-.7 2.9-1.1 5.1-1.1 4 0 5.9 2.1 5.9 5.7v8zm.1-5.6c-.8-.3-1.9-.5-3.1-.5-2 0-3.1.8-3.1 2.1s1.1 2 2.6 2c2 0 3.5-1.1 3.5-2.9z"/><path fill="#e6e6e6" d="m663.3 441.1v2.1h-3.1v-18.7h3.1v7.4c1-1.4 2.4-2.5 4.5-2.5 3.2 0 6.3 2.5 6.3 7s-3.1 7-6.3 7c-2.2 0-3.6-1.1-4.5-2.3zm7.7-4.7c0-2.6-1.7-4.3-3.9-4.3s-3.9 1.7-3.9 4.4c0 2.6 1.8 4.3 3.9 4.3s3.9-1.7 3.9-4.4z"/><path fill="#e6e6e6" d="m675.3 441.4 1.4-2.1c1.4 1.1 3 1.7 4.4 1.7s2.1-.5 2.1-1.5-1.3-1.4-2.8-1.8c-.1 0-.2-.1-.2-.1-2-.6-4.2-1.4-4.2-4s2.1-4.1 4.8-4.1c1.7 0 3.5.6 5 1.5l-1.2 2.2c-1.3-.8-2.6-1.3-3.8-1.3s-1.9.5-1.9 1.4 1.3 1.4 2.8 1.8c.1 0 .2.1.2.1 2 .6 4.2 1.5 4.2 4 0 2.9-2.2 4.2-5 4.2-2 0-4.1-.7-5.8-2z"/></g>
</svg>
