<?xml version="1.0" encoding="utf-8"?>
<!-- Generator: Adobe Illustrator 23.0.1, SVG Export Plug-In . SVG Version: 6.00 Build 0)  -->
<svg version="1.2" baseProfile="tiny" id="Layer_1" xmlns="http://www.w3.org/2000/svg" xmlns:xlink="http://www.w3.org/1999/xlink"
	 x="0px" y="0px" viewBox="0 0 900 600" xml:space="preserve">
<g>
	<path d="M894.71,444.19c-5.54,0.92-11.18,1.64-17.13,2.15c-17.31-64.9-73.62-60.73-92.61-21.95c-7.04,14.38-6.45,28.63-7.08,33.85
		c-6.26,0.21-12.2,1.74-18.87,1.64c0.51-2.56,1.12-4.72,0.92-6.97c-0.45-5.14,0.66-6.63,6.67-35.49
		c4.88-23.44,0.12-26.35,2.67-28.61c1.58-1.4,3.62-9.33,2.87-21.74c-0.44-7.29,4.17-9.11,7.18-25.74
		c2.68-14.81,9.82-14.25,12.2-27.49c1.13-6.26,3.49-12.62-0.21-18.97c1.23-1.44,0.21-3.28,0.82-4.82c3.34-0.65,5.94-0.99,4.62-9.64
		c-1.01-6.65-0.92-6.67,4.92-10.15c-1.13-2.15,0.62-4.31-0.21-6.77c-1.23-3.69-0.51-7.49,1.64-10.15c2.61-1.53,9.48-1.85,8.51-3.79
		c-0.72-1.23-1.74,0.21-2.56-0.31c0.92-1.54-0.82-3.38,0.31-4.62c-1.03-2.97-4.92-3.28-5.23-6.36c-2.26-1.44-4.82,0.21-7.28-1.13
		c1.66-1.73,14.54-7.99,2.26-3.9c-9.23-4.21-18.15-9.33-28.41-10.97c-7.21,3.75-7.86-0.51-10.67,0.72c-2.78,1.21-5.44-0.1-7.79-0.31
		c-1.54,0.41-0.41,1.64-1.23,2.36c-1.33,0-2.67-2.36-4.21-0.31c0.41,2.05,2.56,2.05,3.69,3.28c-6.17,6.52-10.85,6.52-10.67,13.03
		c0.49,5.34-2.65,2.81-3.18,8.92c-13.94-5.33-53.81-4.08-60-2.05c-2.77,0.91-5.32,2.39-8,3.59c-2.41,1.08-44.45,4.63-45.33,4
		c-3.08-2.21-25.27-4.09-48.61,20.61c-11.87,12.56-9.81,23.86-11.49,26.56c-3.32,5.34-0.87,14.94,1.13,20.92
		c2.05,6.15-2.22,2.35,2.67,10.15c4.19,6.69,8.01,9.26,10.77,16.41c22.92,59.44,7.87,48.18,26.87,45.54
		c28.19,23.36,18.41,19.17,20.72,36.61c0.85,6.42-15.15,19.36-6.97,44.51c-52.31,6.75-46.53,7.72-47.49,2.97
		c-15.35-76.64-79.11-73.7-99.48-31.9c-11.02,22.61-8.83,44.3-9.64,48.2c-13.03,1.13-25.85,3.38-39.18,4.31
		c-6.15,4.21-6.46,8-0.72,13.64c13.85-0.41,27.49-3.38,41.02-4.21c2.2,1.92,3.6,30.83,24.2,50.26
		c20.03,18.88,62.22,20.24,78.87-22.05c8.26-20.98,6.14-37.76,7.18-41.74c14.26-1.74,28.51-3.38,42.67-5.13
		c1.33,0.92,1.85,3.08,4,2.36c0.31-1.23-0.92-1.33-1.23-2.26c1.13-0.72,2.36-1.54,3.28-2.15c2.24-12.98-5.91-24.29,6.36-28.92
		c4.74-16.35,0.45-24.64,1.13-48.2c0.09-2.97,1.23-6.05-0.51-9.03c-0.34-0.68,7.38-22.35,7.49-22.67c1.13-0.31,1.23,1.03,2.26,0.62
		c-0.21-2.46,0.21-4.92,1.23-7.38c13.87-17.84,5.94-45.7,10.36-54.77c3.05-6.27,5.44-12.92,9.03-19.08
		c-0.21-2.36-0.51-4.92-0.72-7.38c-2.05,2.46-0.92,5.23-1.95,8c-6.16-4.11-3.3-16.66,3.28-21.95c12.27-9.86,13.87-11.09,18.05-11.9
		c7-1.36,23.27-9.02,33.85,4.72c2.69,3.5,1.09,3.7,2.26,9.64c3.1,15.78-7.06,32.17-10.56,34.15c-4.04,2.29-8.2,4.21-13.33,4.92
		c-2.56,7.08-2.56,14.97-6.15,22.87c-2.28-0.95-1.57,2.36-2.87,5.23c-12.77,28.2-13.5,24.31-15.79,32
		c-0.61,2.05-0.51,4.72-1.95,6.15c-1.23,1.23-1.35,2.57-1.03,3.69c1.8,6.3-3.19,15.44-4.92,20.41c-13.29,38.12-8.95,38.12-12,45.43
		c-3.53,8.48-1.85,12.17,0.82,28c0.66,3.89-0.29,3.71-2.15,5.85c-3.31,3.79-2.89,0.06-9.13-0.72c-5.58,6.05-7.7-0.93-14.97,5.64
		c3.79,1.55,1.94,4.56,5.44,18.46c8.66,34.41,4.67,16.33,2.36,24.92c-0.61,2.26-0.11,4.61-0.92,6.67
		c-2.18,5.53-1.64,11.69-4.31,17.03c-1.69,4.22-0.55,7.97,4.21,9.74c4.46,1.67,12.03-0.3,17.54,7.49
		c4.84,6.84,20.44,9.56,25.95,10.87c4.04,0.96,17.53-4.27,21.33-5.85c8.25-3.41,2.51-15.93-4.92-17.23
		c-5.66-0.99-18.42-13.67-19.49-16.31c-1.34-3.33-0.65,0.89-6.26-13.13c-0.62-1.85-1.95-2.75-3.79-2.77
		c-13.99-0.16-14.29,9.73-23.38,4.82c-2.36-15.28-7.49-29.74-9.23-44.92c1.44-0.62,1.54,1.54,2.87,1.23c2.87,0.1,5.23-1.85,8.1-2.36
		c-0.92,2.75-1.97,2.66,3.28,2.26c3.28-3.69,8.1-4.92,11.49-8.2c1.63,2.56-5.34,30.06,4,45.23c-2.36-15.08-5.13-30.05-0.92-45.54
		c16.2-2.05,32.41-4.1,48.61-5.85c2.67,10.46,2.15,20.51,1.74,30.87c-4.03,1.66-0.13,4.35-4,13.03c-1.92,4.3-1.73,11.32-5.85,17.33
		c-0.21,0.3-0.1,0.72-0.21,1.44c2.15,0.72,3.9,1.94,5.85,2.97c16.96,9.03,20.33,1.31,28.51,4.72c19.68,8.19,22.69,12.02,34.46,7.59
		c3.89-1.46,7.79-3.38,10.87-7.79c-10.19,5.53-15.08,9.81-24.92,6.26c-6.65-2.4-13.74-4.1-19.69-8.31
		c-2.53-1.79-8.27-1.06-10.36-0.62c-8.28,1.77-14.97-2.15-21.54-5.85c3.28-8.62,4.62-17.33,7.69-25.54
		c3.45,12.08,10.49,7.73,20.82,2.36c0.92,0.51,1.54,0.92,2.15,1.33c3.38-1.13,6.77-1.64,10.15-1.33c-2.43,2.43-8.17-0.02-10.26,4.31
		c7.82,0.52,14.84-3.34,14.46,1.54c-3.49,1.23-7.28,0.62-11.49,1.95c3.59,1.44,6.05,3.69,9.23,2.67c4.67,3.21-1.3,6.12,12.82,3.38
		c5.26,5.05,12.24,3.08,15.18,9.85c1.15,2.66,3.9,4.1,4.72,6.87c1.03-0.31,1.13-0.92,1.03-1.44c-1.65-8.47-1.03-8.22-4-10.67
		c-3.42-2.82-9.46-2.26-12.51-4.72c-4.99-4.02-13.37-8.61-13.74-12c-0.39-3.59-2.46-5.85-4.92-8c-2.89-10.12-3.73-2.88-7.38-3.69
		c-0.62-1.23-1.84-1.95-1.95-3.59c-0.16-2.43-1.74-24.46,0.92-25.13c1.23,0.82,0.71,2.79,2.36,3.28c3.89,1.17,6.56-1.64,9.74-3.08
		c5.07,2.11,10.88-3.88,14.67-6.97c7.49-1.13,14.97-1.85,22.36-2.36c3.32,5.53,9.65,62.11,66.46,49.33
		c23.53-5.29,33.74-34.51,33.74-61.54c6.56-0.82,12.61-1.64,18.46-2.36C901.38,448.91,900.97,447.27,894.71,444.19z M422.32,510.76
		c-2.05-0.19-4.07-3.6,0.41-7.9C426.38,505.82,427.59,509.32,422.32,510.76z M448.37,508.71c-29.28,3.51-20.11,3.44-20.11-0.58
		c-1.02-4.6-1.69-5.51-1.94-5.64c0.02-0.01,0.04-0.03,0.06-0.05c17.36-2.3,31.92-3.15,84.16-10.04c5.24-0.69,6.85,2.82,4.92,6.67
		C511.97,501.76,513.81,500.87,448.37,508.71z M515.07,503.01c-0.24-0.23,3.52-2.21,3.35-6.78c-0.27-7.3-5.34-6.4-8.93-6.29
		c1.17-2.09,3.06-4.02,5.45-4.05c10.63-0.13,10.96,18.92,2.66,20.67C516.19,505.77,516.24,504.16,515.07,503.01z M520.95,532.65
		c-4.95,9.33-6.4-24.06-8.17-26.72c-0.51-0.67-0.31-1.85,1.24-2.46C516.29,508.39,525.17,524.7,520.95,532.65z M511.34,503.99
		c-4.84,9.11-5.05,14.7-7.79,29.95c-13.11-3.75-4.24-17.31,3.49-28.72C508.06,503.71,509.55,503.57,511.34,503.99z M465.7,509.83
		c1.13-1.03,2.56-0.72,3.79-0.72c1.12,0.62,0.93,1.75,1.13,2.67c4.74,22.46,22.15,54.79,41.54,52.1c2.05-0.28,4.31,0.51,6.46-1.54
		c-5.15-0.86-4.89,1.99-11.9-0.31c-12.36-4.06-28.12-23.19-33.75-49.58c-1.06-4.96-3.78-3.65,31.23-7.72
		c1.66-0.19-2.63,3.16-7.53,12.07c-1.13,2.05-1.54,4.51-3.59,5.74c-0.25,8.72,5.39,14.29,12,15.08c3.12-1.56,2.96-26.02,6.77-28.31
		c-0.65,13.52,1.3,16.56,0.82,20.92c-0.47,4.27,2.28,7.55,6.15,8.1c10.16,1.45,7.83-18.07-0.1-29.54
		c14.53-10.9,6.14-24.32-3.28-25.85c-3.59,1.44-7.49,2.77-8.72,7.59c-11.79,1.33-23.49,2.77-34.87,4.1
		c-3.38-2.59,0.61-50.2,27.69-63.69c6.57-3.27,8.64-0.43,17.85-0.72c-0.74-0.99-11.35-4.99-19.18-0.62
		c-31.33,17.51-29.35,64.45-29.64,65.23c-1.33,0.92-2.67,0.62-4.21,0.62c-1.53-9.93,1.76-32.43,9.85-48.2
		c13.13-25.6,37.06-32.26,57.33-13.64c29.46,27.06,33.63,98.03,4,125.95C505.13,588.23,469.32,550.91,465.7,509.83z M550.34,559.18
		c-10.07,9.63-25.35,12.33-30.05,11.5c-2.13-0.53,10.5-0.2,22.23-16.12c29.81-40.48,14.92-125.32-31.08-134.05
		C573.92,415.16,586.99,524.13,550.34,559.18z M647.26,539.66c-0.56-1.68,8.39-1.04,11.15-3.98c1.74,2.87,0.31,6.56,3.28,9.54
		c-0.12,0-8.19,1.41-15.38,2.56C646.11,544.84,648.62,542.49,647.26,539.66z M649.39,549.73c-1.28,1.16-2.66,0.34-4.2,2.67
		c4.49,1.36,13.25-1.69,18.36-2.15c-4,2.56-8.92,2.56-13.54,4.82c1.36,1.36,3.45,1.18,4.18,2.64c0.57,1.13,13.63-3.64,14.92-2.34
		c0.17,0.17,0.37,0.62,0.69,0.93c-2.61,1.56-13.45,3.63-10.78,4.98c3.21,1.64,13.04-2.11,13.14-2.22c5.3,3.54-4.29,0.38-9.64,5.74
		c5.51,1.63,9.63-3.94,14.87-1.85c-1.21,1.99-7.47,2.06-5.28,3.38c2.85,1.72,4.77-1.31,7.33-1.95c2.64,2.23,6,3.81,9.33,4.82
		c3,0.91,3.28,3.99,4.92,6.05c-0.31,3.49-1.95,5.73-5.23,6.97c-18.54,7.01-17.7,3.73-28.1,1.64c-16.94-3.4-12.9-13.31-25.74-14.46
		c-1.1-0.1-4.95-0.43-6.65-1.15c-4.77-2.01-3.45-7.34-0.74-10.34c0.57-3.03,0.05-9.41,1.55-9.63c0.38-0.06,0.55,0.57,0.91,0.5
		c1.74-1.3,1.18-1.28,2.22-0.63c3.78,2.38,10.96-0.75,13.07,2.06C646.7,550.54,647.94,549.13,649.39,549.73z M631.95,542.14
		c2.26-1.03,4.41,0.17,6.56,0.41c2.36,0.27,4.2-1.13,6.46-1.95c1.62,7.27-1.58,6.26-10.87,5.74
		C632.1,546.23,631.49,544.11,631.95,542.14z M630.62,539.37c-0.63-1.08-0.22-1.53,0.72-2.05
		C632.36,538.65,631.54,538.96,630.62,539.37z M796.56,251.48c1.56-1.23,2.82-1.13,4.42-1.53
		C799.64,251.79,798.31,251.38,796.56,251.48z M797.79,246.76c0.74-1.16,1.7-1.87,3.38-2.05
		C800.15,246.25,799.13,246.66,797.79,246.76z M796.05,240.2c10.94,0.78,0.47-0.08-0.72,3.08
		C795.13,241.94,796.67,241.53,796.05,240.2z M794.92,249.02c0,2.44,0.77,2.72-3.2,2.54c-1.19-0.05-2.38-0.28-3.36-0.58
		C790.31,248.92,792.67,249.84,794.92,249.02z M785.27,247.85c2.48,0.02,0.64,1.09-0.52,1.12
		C780.97,249.05,784.39,247.84,785.27,247.85z M776.39,250.45c-0.12-0.19-0.6-0.57,0.79-0.91
		C787.08,246.49,776.68,250.84,776.39,250.45z M778.2,226.66c-1.31,0-2.5-0.13-3.51-0.95C773.96,225.11,776.94,225.18,778.2,226.66z
		 M774.01,225.3c-1.84-0.21-3.6,0.99-5.55,0.34C770.28,224.25,772.1,223.91,774.01,225.3z M767.85,251.89
		c-1.23,0.51-1.95,0.41-3.08-0.72C766.33,250.81,766.81,251.22,767.85,251.89z M765.49,233.23c-0.62,0.72-1.13,1.33-2.36,1.23
		C763.54,233.02,764.36,233.02,765.49,233.23z M760.87,263.79c0.51,1.74-0.72,2.26-1.54,3.28
		C759.03,265.33,759.64,264.61,760.87,263.79z M751.49,246.73c0.84-0.28,0.63-0.22,0.91,0.5c0.46,1.17-1.97,0.77-2.4,0.96
		C750.29,247.34,750.74,246.98,751.49,246.73z M752.15,258.66c-1.54-0.1-1.03-0.82-0.51-2.15
		C752.36,257.63,752.46,258.15,752.15,258.66z M753.08,262.76c-2.97,0-4.41,0.92-6.46,4.31c1.24,0.17,1.87-1.18,2.81-1.28
		c0.97-0.1-0.37,3.98-1.58,4.66c1.13,1.85,1.54,4.1,3.59,4.82c-0.21,1.03-0.62,1.44-1.33,1.95c-5.47-5.47-7.42-10.12-1.54-14.67
		C751.34,260.4,752.86,260.77,753.08,262.76z M752.77,268.06c-1.81,0.14-1.31-2.42-1.74-2.41c-0.11,0-1.15,0.08-1.05,0.08
		c0.35-0.59,0.94-0.9,1.56-1.21C752.9,265.88,754.69,267.91,752.77,268.06z M746,255.99c-0.21,1.23-0.82,1.44-1.74,1.13
		C744.46,255.79,745.28,255.99,746,255.99z M747.85,260.4c-4.72,5.08-3.9,4.61-4.72,3.79C744.05,262.35,745.69,261.12,747.85,260.4z
		 M739.85,267.97c1.66,0.83-1.12,1.74,2.97,2.26c1.44,4.31,5.74,6.67,7.79,11.18c0.28,0.92-0.67,2.21-0.71,3.71
		c0,0.14,2.84,5.77,5.63,7.47c-0.7-2.33-3.15-5.11-4-8.41c1.98-5.94,1.14-8.53,1.74-14.15c0.7-1.53,2.44,0.57,2.47-1.32
		c0.05-2.49-1.33-0.88-1.33-3.5c6.51,5.27-3.6,21.17,8.6,3.19c20.21-12.3,9.75-10.1,19.79-12.72c3.49,1.64,6.97,4.92,10.77,0.31
		c1.74,0,3.59,0,5.85,0c0,3.69,0,10.98,0,13.33c-2.34,1.4-4.49,2.04-4.63,4.72c-0.39,7.81,1.57,11.54-0.19,14.26
		c-5.03-1.03-5.03-1.03-6.77-3.38c-0.21,0.1-0.62,0-0.72,0.21c-2.03,2.71,2.23,3.05,3.59,4.41c-0.21,1.44-0.51,3.08-0.72,4.62
		c-3.25,1.72-7.04-0.89-10.87,1.03c2.92,2.02,6.15,0.17,8.4,2.36c0.35,0.26-2.46,1.6-3.17,4.21c-0.42,1.54-0.72,3.28-2.36,4.41
		c-6.67,1.85-11.59-2.36-17.03-5.33c-1.09,2.71-11.57,0.38-14.46,5.44c3.42,0.1,6.68-3.27,9.64-0.31c-3,4.11-6.36,5.15-20,10.15
		c-6.46,2.37-11.9,0.92-16-3.69c-2.58-10.99-1-21.75-1.64-31.91c0-15.76,6.69-14.93,7.38-15.28c-2.57,4.56,1.08,0.96,2.46,1.23
		c1.33-0.82,0.52-2.76,2.44-2.46c1.41,0-3.81,6.99-4.08,8.92c1.94,0,1.64-2.55,3.47-2.56c0.86,0-2.94,6.83,0.02,12.72
		c1.74-5.23,1.03-9.95,2.46-14.56C737.39,267.77,738.92,269,739.85,267.97z M619.34,488.09c-15.28,1.85-30.77,3.69-46.56,5.64
		c-1.41-14.05-7.51-5.39,44.82-14.77C620.32,481.6,620.95,484.32,619.34,488.09z M619.75,465.22c-3.18-10.26-0.1-16.51,7.38-28.1
		C627.75,452.5,627.85,455.58,619.75,465.22z M627.01,397.49c-3.28,11.77,0.55,9-3.67,10.4c-4.51-4.72-8.72-9.74-14.87-13.85
		c18.29-2.19,12.55-3.04,17.64-3.21C630.61,390.68,628.77,391.16,627.01,397.49z M644.36,346.97c-0.49,3.48-1.8,17.88-4.31,21.33
		c-3.82,5.26-3.56,7.46-9.95,20.72c-6.65,1.75-5.44-0.26-6.56,0.31c-6.36,2.26-13.35,0.48-19.59,3.38c-1.95,0.91-4,1.48-6.15,1.44
		c-4.14-0.09-3.24-2.29-4.36-7.1c-6.13-26.39-2.34-4.51-8.87-25.93c-2.05-6.71-7.08-20.56-11.49-25.64
		c-20.81-24.01,4.32-65.82,24.41-72.51c-2.52,3.68-4.24,7.6-2.91,11.83c0.38,1.2-3.9,0.79-5.45,2.37c-0.84,0.86,4.47-0.16,7.13,1.81
		c0.41,3.23,4.45,5.17,3.79,9.75c6.46,4.41,10.36,11.18,15.38,17.03c1.36,6.34,5.91,8.82,11.9,16.31c-2.73,1.09-2.19-0.39,7.59,8.41
		c-3.03-0.47-2.42-0.11-12-6.67c-0.07,0.14-0.29,0.47-0.51,0.72c10.81,10.46,16.3,7.56,19.08,15.69
		C643,341.17,645.6,338.11,644.36,346.97z M702.31,317.22c0.73,1.01-0.68,2.13-0.05,2.02c5.94-1.07,17.48-20.26,14.2-38.63
		c-0.82-4.6,0.2-7.71-1.54-12.92c-2.93-0.88-11.43-8.44-23.28-7.28c-13.54,0-55.04,20.31-37.02,41.64
		c-3.24,6.48-4.04,12.27-7.59,17.54c-1.26,1.88-1.37,4.48-2.67,15.08c-0.72-0.93-2.79-3.52-2.97-3.79c0.52-1.45,2.77-0.62,2.77-2.77
		c-2.65-4.24-9.14-1.51-14.92-10.28c-0.68-1.03-2.19-4.29-5.07-5.73c0.96-1.12,0.4-1.65-0.92-2.05c-0.12,0.24-0.26,0.53-0.29,0.79
		c0.01-0.26,0.22-0.69,0.29-0.79c-3.02-1.61-4.52-4.77-6.97-7.17c-0.1-0.1,0.41-0.72,0.62-1.13c-2.77-2.36-5.95-4.31-7.38-7.79
		c0.52-2.61,5.25,2.49-1.04-5.95c-6.37-8.55-11.81-18.72-4.82-26.26c2.01-1.11,4.54-0.85,6.87-1.23c30.48-4.98,18.8-0.89,33.54-2.77
		c15.37-1.96,13.17-0.27,16.5-0.91c3.39-0.65,11.86-5.68,27.63-6.92c29.18-2.29,11.7-0.74,49.4,3.53c-2.67,2.46,0.82,5.44-1.44,7.38
		c0.38,0.7,3.2,1.55,1.51,2.16c-1.47,0.53-2.38-1.24-3.98-1.24c-8.32,1.51-10.09,1.75-10.77,4c-2.47,8.12-4.69,9.32-3.38,19.08
		c2.24,16.7-2.14,19.48,3.28,28.31c1.6,2.61-0.32,4.4,3.38,6.26c3.75-0.99,7.83,1.29,9.43,0.9c7.37-1.77,30.21-9.2,29.24-16.7
		c2.26-0.11,3.74,0.99,5.44,2.05c-2.35,8.02-3.2,16.17-9.33,17.23c-0.54,8.06-38.03,19.91-46.46,15.69
		c2.86-3.07,7.16-4.21,9.21-7.77c0.67,1.01,4.09-3.24,1.13-1.52c-0.92,0.53-1.09,1.27-1.2,1.37c-0.42-0.65-9.86,5.64-21.04,7.11
		c-4.85,0.63-1.27-0.51-13.23-0.51C694.82,313.77,690.61,325.29,702.31,317.22z M737.9,388.4c-20.92-32.23-9.03-18.02-22.47-40.92
		c-0.11-0.11-5.86-6.95-5.94-7.07c1.85-1.76,3.78-1.13,6.05-0.21c9.32,3.81,24.15,0.93,26.26,0.21
		C736.51,374.26,742.37,359.33,737.9,388.4z M727.44,463.89c-4.82,0.31-9.64,1.74-15.28,1.03c-2.6,1.83-10.56,1.84-10.62,1.73
		c-8.53-16.63,2.4-52.11-1.27-56.04c-0.44-0.47-0.94-0.56-0.94-0.68c-0.07-5.25-13.43-14.36-16.3-18.66
		c5.36-3.07,35.6-6.19,44.61-15.18c3.92,7.02,13.02,13.59,8.62,25.95c-4.18,11.73,1.14,23.49-2.77,30.46
		C732.2,435.4,735.47,447.81,727.44,463.89z M736.67,436.3c0.42-4,1.1-7.89-0.1-12c-0.84-2.87,0.36-6.27-0.31-9.23
		c-0.68-3.01,0.45-5.33,1.54-8.72c1.37,10.86,10.3,39.36-0.51,45.02C732.7,453.78,734.2,459.85,736.67,436.3z M667.13,386.55
		c2.41-3.91,1.03-8.48,3.08-11.9c4.51,0.62,9.03,1.85,13.74,1.23c-4,0.08-6.81-1.98-9.85-4.6c2.03,2.61,4.94,4.8-3.08,1.85
		c5.64-9.75,13.05-19.59,16.92-30.68c11.02-3.44,17.45-3.28,20.18,0.55c0.34,0.42-5.5,1.8-8.39,2.52c-2.81,0.7-4.39,0.44-9.44,1.03
		c6.77,1.23,12.62-0.62,18.15-2.36c7.35,8.88,12.05,18.98,17.36,29.1c1.28,2.45-35.36,13.11-37.77,13.88
		c-12.3,3.92-16.12,0.01-19.49,3.38C666.7,389.72,666.41,387.72,667.13,386.55z M648.05,460.4c2.03-4.57,1.17-11.51,3.69-13.03
		c0-1.54-1.54-3.28,0.82-4.62c1.52,3.04-1.08,7.91,1.54,11.59c0.78-3.1,0.92-12.32-1.03-15.69c3.91-20.12,9.13-31.85,9.5-31.3
		c3.5,4.19,2.82,9.93,3.41,9.36c4.09-3.96-2.3-4.55,0.23-15.7c1.73-7.64-5.2-9.44,14.15-9.44c16.27,17.69,19.34,18.39,18.87,18.39
		c-0.33-0.11,0.88-2.45-2.77,24.58c-2.9,21.44,1.19,26.19,2.36,32.61c-4.89,0.58-41.41,4.82-41.54,4.82
		c2.69-14.79,3.7-19.71,0.72-24.72c3.49-7.69,3.56-17.04,8.31-24.92c1.41-2.33,1.23-2.47,0.25-4.92c-0.05-0.16-3.89,5.35-4.76,9.33
		c-2.83,12.99-5.85,16.71-5.85,29.13c0.2,3.27-0.98,5.5-0.5,5.14c2.51-1.88,1.55-8.4,2.18-6.82c1.04,3.97-0.59,12.42-3.43,18.09
		c-3.01,0.44-3.62,0.72-6.97,0.72C646.31,468.71,646.19,464.59,648.05,460.4z M727.13,477.63c-4.36,31.79,7.85,28.62-6.15,34.26
		c-0.77-0.77-1.31-3.65-2.07-2.64c-0.65,1.08,0.56,1.92-0.29,3.15c-1.73,0.86-5.16,1.66-7.9,1.03c-0.24-1.76,1.02-7.84-0.51-6.19
		c-1.1,1.18-1.23,6.1-1.76,5.57c-2.7-1.15-3.17-3.46-2.54-10.04C708.45,475.85,694.38,482,727.13,477.63z M707.33,519.37
		c-0.41-1.33-0.41-2.67,0.1-4.41c5.33,2.46,10.26,0.31,15.18-1.23c1.16,1.16,1.72,2.35,2.46,3.79
		C714.13,521.9,712.65,523.62,707.33,519.37z M733.9,509.73c0.82,2.87,2.97,4,3.79,6.36c-3.28,1.64-6.97,0.62-10.26,2.05
		C720.87,508.84,730.36,513.86,733.9,509.73z M756.97,470.76c-4.31,3.08-8.51,6.36-14.26,5.54c-3.68,4.68-9.18,6.25-12.51,1.64
		c4.71,1.13,7.85-2.76,4.71-6.36c-0.65-0.87-1.09,1.9-1.94,2.46c-2.38,0.29-83.2,10.18-83.33,10.11c-1.71-1.32-2.08-7.18-2.21-8.16
		c101.59-11.91,79.52-10.68,86.46-6.26c-0.62-2.87-1.74-5.13-2.87-7.49c1.38-7.19,12.37-8.04,13.23-17.54
		c3.9-42.84-8.81-7,0.72-101.84c0.67-6.62,5.74-3.96,18.05-15.28c4.26,1.33,5.63-3.38,6.15-3.38c-1.1-1.1-1.81,1.07-2.77,0.1
		c4.37-6.18,4.54-10.19,6.46-16.92c2.5-0.77,10.17,4.35,13.13-4.82c0.8-2.47,0.82-2.46,3.49-4.21c0,6.24,3.01,10.71-7.59,26.77
		c-7.19,10.89-2.76,21.83-12,33.74c-0.21,7.18-0.51,14.46-0.72,21.54c-2.24,3.36-2.05-6.9-3.28,18.87
		c-0.76,15.91-3.69,15.78-9.33,53.84C755.26,461.92,760.46,463.28,756.97,470.76z M759.85,470.55c1.22-7.95-2.64-8.72,6.38-8.72
		c53.42-5.99,53.29-7.66,55.89-2.67c-0.56,3.14-1.28,5.33-4.84,5.33C817.16,464.51,762.04,470.94,759.85,470.55z M827.22,473.97
		c-6.57,7.41-15.61,1.93-18.45-6.08c0.62-0.12,8.41-0.52,12.56-3.07c4.4-2.7,3.91-9.86-1.79-11.6c-2.06,0.22-8.02,0.95-12.31,1.44
		c2.77-12.11,11.16-14.93,17.54-9.85C832.53,451,834.44,465.83,827.22,473.97z M829.49,446.6c0.16-3.43,12.17,17.15-0.22,28.26
		c0.47-2.07,4.26-6.24,4.08-14.39C833.17,451.96,829.43,447.95,829.49,446.6z M781.38,471.07c9.3-1.1,16.06-1.86,25.13-3.08
		c2.75,1.6,3.66,11.79,17.64,10.56c18.25-1.6,15.98-39.81-4.62-38.15c-12.64,1.01-13.01,14.26-14.12,14.48
		c-8.05,0.91-16.3,1.94-24.65,2.95c-1.03-2.56-0.52-5.13-0.31-7.59c3.74-43.72,36.13-63.49,63.28-42.36
		c32.26,25.1,30.94,92.89-3.28,109.8C812.31,531.59,785.09,501.55,781.38,471.07z M869.89,496.71
		c-9.77,22.05-29.57,23.37-29.47,23.3c3.02-2.09,16.42-8.16,23.31-26.89c13.38-36.34,0.87-84.6-35.6-94.66
		C859.79,395.46,892.48,445.72,869.89,496.71z M879.02,456.81c-0.41-2.65-1.02-5.06-0.92-7.9c13.65-1.61,19.1-3.53,19.59,1.33
		C898.24,455.68,892.59,455.52,879.02,456.81z"/>
	<path d="M232.82,351.93c-0.01-0.03-0.02-0.06-0.02-0.09C232.78,351.86,232.79,351.89,232.82,351.93z"/>
	<path d="M232.82,351.93c1.25,5.17,4.29,9.44,6.42,14.32C236.24,354.22,233.18,352.34,232.82,351.93z"/>
	<path d="M200.58,94.66c1.54-2.26,3.4-3.45,5.33-4.62c6.39-3.84,3.71-7.36,5.03-12.92c1.97-8.35-1.82-11.06,1.54-16.2
		c-1.85-0.1-3.08-0.62-3.28-2.46c2.08-0.89,2.35,1.7,3.28-5.74c-0.92-1.64-3.08-2.26-2.67-4.72c2.79-0.47,2.47,1.72,4.72,9.44
		c3.31-1.66,3.22-8.71,5.44-11.69c2.14-2.88,3.69-5.95,5.23-9.13c0.82-1.03,2.55,0.41,2.97-1.03c0.4-1.34,2.56-0.51,2.67-2.26
		c-0.41-1.13-1.54-2.15-1.44-3.69c-1.27,0.46-2.4,0.76-3.18-0.41c1.33-1.33,1.33-1.33,3.18,0.41c2.15-0.62,2.36,1.44,4.1,2.87
		c1.9-5.46,12.72,0.15,19.9-2.67c0.41,4.51,0.1,8.82,2.67,12.31c-0.41,0.92-0.41,1.85-1.13,2.36c-5.35,2.23-8.57,3.47-7.49,9.33
		c0.1,0.41,0.41,0.72,0.92,0.62c0.41-1.03,0-2.26,0.82-3.38c2.05,1.03,3.9-0.21,6.05-0.72c1.81-6.33,3.35-2.1-0.1-21.33
		c1.85-3.08,5.23-3.79,7.49-6.05c-0.51-1.23,0.31-2.56,0-3.59c-1.74-1.03-3.28,0.31-4.82-0.1c0.62-1.74,3.08-1.33,3.59-3.59
		c-2.15-1.54-3.79,0.21-5.64,1.13c-0.21-2.26,0.62-4.41-0.51-6.56c-1.95,0.62-2.36,3.08-4.31,3.08c-1.98-3.79-7.42,0.97-10.26,0.31
		c-4.41-1.03-8.72,0-13.03-0.31c-1.03,0.92-1.23,2.46-2.77,2.56c-1.13-0.41,0.1-2.05-1.54-2.36c-10.1,10.1-10.26-0.13-14.97,2.56
		c0.1,1.44,1.44,1.95,2.05,3.08c-0.51,0.92-1.03,2.36-1.64,2.97c-2.26,2.67-1.46,6.54-4,9.03c-0.72,0.7,0.2,2.66-1.74,6.46
		c-2.5,4.89-0.78,10.43,1.74,15.28c0.41,1.33-0.92,2.36-0.41,4.21c2.99,4.92,3.22,12.74,3.79,13.95c2.54,5.34,0.73,13.55-3.69,17.33
		c-11.67,9.99-24.5,8.46-28.82,11.49c-4.77,3.34-9.66,2.34-13.95,8.72c-7.5,11.16-8.37,17.62-7.79,25.44
		c3.57-3.74,1.89-14.85,10.36-22.56c1.13-1.03,0.92-2.46,1.13-3.38c8.51-5.95,17.95-8.31,27.69-10.15c0.39,1.07,2.03,4.7,1.85,5.54
		c-0.62,1.03-2.15-0.31-2.67,1.03c0.62,0.21,1.23,0.63,1.85,0.82c0.71,0.22,1.44,0.31,1.85,1.03c5.74,15.69,7.49,31.49,1.44,47.9
		c-2.77-2.15-4.21-5.74-8.41-5.74c-0.92,3.49,3.08,7.18-0.51,10.05c0.51,1.33,1.03,2.36,1.44,3.49c-1.54,2.26-1.64,4.31,0.51,5.74
		c3.19,17.43-3.79,25.99-2.67,34.97c2.56-5.33,4.41-10.26,5.85-15.49c2.87,1.74,5.74,3.18,10.05,2.67c-6.79-3.4-6.96-2.45-9.64-6.46
		c0.62-16.23,0.68-0.96,15.9-1.74c-6.05-1.03-10.36-4.92-14.87-9.33c1.03-3.28-0.62-7.18,0.31-11.38c2.68,1.05,5.64,6.65,12.31,3.59
		c-5.23-2.26-6.67-3.28-9.33-6.97c1.08-3.78,4.36,1.41,5.85-0.41c-0.61-0.43-3.6-2.73-3.79-3.79c11.01-34.04-9.86-57.86-0.72-58.56
		c12.97,27.34,11.85,25.62,14.46,29.74c2.26,3.56,4.71,6.53,7.26,8.94c-3.77-5.32-12.59-18.66-12.59-25.05
		C204.89,104.1,203.66,98.77,200.58,94.66z M252.57,48.78c-0.47,0.04-1.02-0.11-1.63-0.16C253.52,46.31,254.69,48.59,252.57,48.78z
		 M258.18,20.75c1.53-0.03,0.33,1.8-0.88,2.74C256.02,23.23,256.02,20.79,258.18,20.75z M251.76,14.56
		c1.33,1.44,0.51,2.05-1.33,3.08C251.04,16.21,251.35,15.49,251.76,14.56z M241.19,26.67c0.41,0.2,1.03,0.31,1.13,0.92
		c-1.13,0.51-1.74-0.31-2.67-0.62C240.15,25.67,240.82,26.48,241.19,26.67z M237.99,24.41c0.07-0.66,0.88-1.18,0.93-0.45
		c0.14,1.76-3.52,2.93-2.95,1.57c0.56-1.35,1.39,0.42,1.94,0.01C238.07,25.24,237.94,24.87,237.99,24.41z M237.71,17.85
		c-0.65,1.31-1.65,1.89-2.97,2.46C234.93,18.19,235.71,17.43,237.71,17.85z M222.32,37.44c-0.31-1.33,0.31-2.05,0.72-2.97
		C223.76,35.79,223.76,35.79,222.32,37.44z M221.71,18.87c-0.51,1.13-1.03,1.85-2.36,1.44C219.76,19.18,220.37,18.67,221.71,18.87z
		 M222.42,25.23c-0.1,2.26-1.95,2.97-3.38,4.1C219.14,27.08,221.21,26.34,222.42,25.23z M217.81,40.51c0.2,1.39-0.61,1.58-1.64,2.15
		C215.92,41.12,216.53,40.61,217.81,40.51z M209.58,42.2c0,0.84-0.44-1.79-0.31-2.44c0.18-0.86,1.17-2.48,1.22-0.62
		C210.53,40.33,209.59,41.17,209.58,42.2z M209.81,24.21c0.92-0.12,1.03,1.54,2.05,1.85c0.72,0.32,4.1-1.85,2.05,1.74
		c-1.95-0.72-4-1.44-6.26,0C208.68,26.67,207.24,24.55,209.81,24.21z M207.77,56.6c-1.33-2.26-3.08-3.59-1.13-5.54
		c1.23-0.1,1.54,0.82,2.46,1.54C208.19,53.97,207.77,54.98,207.77,56.6z"/>
	<path d="M413.7,286.56c-15.05,0-14.56,3.67-15.79-2.77c-4.34-22.63-19.4-42.37-43.38-41.54c-48.13,1.66-39.08,64.71-44.72,50.15
		c-1.94-5.01-6-15.54-6.05-20.92c-0.1-9.35-3.69-11.78-4.41-17.33c-3.62-27.92-3.8-30.82-2.67-33.85
		c2.28-6.12,0.82-11.88-2.67-18.05c-1.99-3.52-2.99-7.48-5.33-10.87c-1.34-1.94-0.63-4.61-1.64-6.46
		c-3.56-6.53,2.46-9.17-1.13-22.67c-5.21-19.58,3.27-28.83-1.85-44.51c-0.4-1.23,0.13-2.9-0.92-4c-2.9-3.04-5.35-6.54-9.23-8.51
		c-14.23-7.25-17-3.42-27.69-10.56c-6.2-4.14,2.24-4.93,3.49-12c0.78-4.44,3.67-5.1,4-14.05c0.23-6.19,4.72-10.9,0.21-16.92
		c-0.82,2.56,0.49,5.32-0.51,7.9c-1.15,2.96-1.33,6.05-1.44,9.13c-0.21,6.27-5.1,17.58-6.26,18.15c-10.33,0-10.58-0.36-12.82,0.41
		c2.97,2.26,6.05,1.33,8.82,1.85c-1.95,6.56-2.56,12.82,0.82,19.79c0.72-2.67,0.31-4.72,0.82-6.77c0.51-2.05-1.13-4.31-0.21-6.56
		c9.34,4.82,19.39,36.16,3.08,42.36c-8.16,3.1-17.06,0.99-21.8-1.8c20.77,15.79,45.39-2.66,26.83-36.25
		c3.79,1.03,5.35,3.89,6.05,6.36c2,7.06,6.21,12.94,8.82,19.59c0.79,2.02,1.79,0.39,3.79,5.95c2.29,6.34,3.4,8.52,3.18,9.95
		c-1.13,7.47-0.82,15.18-4.82,22.26c1.64,1.95,0.2,4.72,1.64,6.77c3.4,4.83,0.1,7.03,0.72,25.33c0.4,11.77-2.78,18.02-1.85,24.2
		c0.22,1.43-0.31,2.97-1.33,3.59c1.64,7.08-1.44,13.64-0.41,20.61c-25.64-2.05-50.77,0.21-76.31-1.13
		c0.31-5.13,1.54-10.26-0.92-15.28c1.23-6.15,0.1-12.31-0.92-19.08c4.41,1.33,8.41,3.08,12.72,2.87
		c-20.33-6.78-9.67-2.19-15.79-8.82c-1.37,1.37,1.99,8.25,1.33,22.15c-0.34,7.32,1.89,8.67,0.41,17.95
		c-2.07,12.97,1.03,14,1.03,20.1c0,5.54,1.44,10.87,0.92,16.41c0,4.02,10.07,21.96,11.38,24.31c-0.41,3.08-1.97,5.33-2.56,7.9
		c-0.64,2.76-3.18,4.21-4.72,6.77c4.1-0.1,4.1-4,6.77-5.54c26.46-1.64,53.23-4,80.41-5.33c-0.49,3.4-0.09,4.73,3.79,27.9
		c1.01,6.02-2.18,8.43,1.54,16.51c3.16,6.86,0.98,20.21,0.51,29.13c-42.77,0-21.61,3.42-53.13-4.2c-1.93-12.79-2.56-20.77-0.72-9.13
		c2.68,10.17,2.73,7.22,0.51-2.15c-2.38-10.06-3.68-8.15-2.46-9.03c0.29-1.98-2.24-4.19,1.96-4.99c0,0.01,0.01,0.02,0.01,0.02
		c0.04-0.05,0.23-0.06,0.6-0.14c0.06-1.41-0.91-2.72-0.62-4.33c2.18-12.11,1.21-14.3,3.42-15.61c0.96,6.58,4.71,12.08,7.15,18.28
		c-0.47-2.11-5.54-17.84-6.95-18.38c0.54-0.3,0.77-4.13-0.94-6.54c-3.36,5.29-9.71,24.58-9.95,37.95c-0.1,5.44-1.03,10.56-3.9,15.59
		c-17.13,1.95-34.56,2.05-52.2,2.87c3.18-11.21,0.04-14.4-0.21-29.13c-0.03-1.95,1.45-3.18,1.54-5.13
		c0.18-3.94,1.17-27.5,2.36-31.59c4.1,1.13,7.88,1.77,11.38,3.69c1.09,0.6,7.7,1.48,8.41-1.74c0.79-3.59,4.57-7.97,2.15-8.82
		c-1.44,2.97-2.97,5.95-4.31,8.72c-3.74,0.75-2.97,0.14,1.95-8.72c-3.48-5.8-5.24,14.41-10.67,7.18c1.85-3.28,3.59-6.56,3.08-10.87
		c-1.95,3.28-3.69,6.26-5.33,9.13c-8.88-0.55,2.94-7.1-6.56-13.95c1.03-1.85,0.6-3.69,0.1-5.44c-1.69-5.95,4-7.77,2.36-14.05
		c-6.16-23.58-17.31-41.68-14.05-59.49c0.41-2.26,0.1-4.62-0.31-6.87c-1.64,0.41-1.44,1.54-1.44,2.46c0,6.05-2.46,7.13-1.33,16.31
		c2.17,17.63,11.46,33.27,15.08,50.97c-4.72,6.26-4.1,12.41,0.1,19.08c-13.44,0.92-26.56,1.74-39.49,2.67
		c-1.38-3.63-5.5-61.9-52.51-57.23c-41.97,4.17-41.8,59.66-43.18,63.79c-11.38,0.72-22.67,1.54-34.26,2.26
		c-5.33,3.9-5.64,6.26-1.13,11.49c12,0.62,23.9-1.74,36-1.64c10.75,64.48,54.67,63.73,73.13,48.31
		c16.38-13.69,19.9-33.85,21.95-54.87c5.33-1.23,33.23-2.77,35.9-1.95c-1.85,10.36-0.51,21.03-3.38,31.49
		c-1.44,5.23-0.9,10.87,0.1,16.31c2.62,14.17-2.32,4.01-0.92,20.72c10.22-3.11,4.44,1.42,8.41,14.67
		c3.93,13.12-4.49,14.11-7.59,35.49c-3.87,26.65-0.18,9.4,8,94.97c-1,2.23-2.94,7.59-0.51,7.59c0.72-0.31,0.1-1.44,1.03-1.64
		c3.18,2.46,4.21,2.26,7.28-1.85c0.1-2.46-0.62-4.92,0.51-7.49c3.79-0.72,7.49-2.15,11.18-2.15c0.72,0.62-0.21,1.33,0.41,1.64
		c2.05,0.82,4.1-7.23-0.1,11.9c-3.69,0.41-7.38,0.31-10.97,1.54c0.81,10.87,0.04,6.6,8.92,8.82c2.46,0.62,5.23-1.23,7.59,1.13
		c-2.05,1.03-13.44-1.95-13.44,0.62c0.21,1.44,2.26,1.13,2.56,2.87c0.51,0.82-1.44,1.64,0,3.28c4.21,2.05,9.23,1.85,14.36,1.44
		c3.08,7.49,2.71,7.91,3.69,8.51c2.99,1.82,2.46,4.92,3.49,7.59c-2.56,1.33-5.23,0.4-7.59,1.03c-8.63,2.31-16.92,1.74-25.02-2.15
		c-0.41-4.1-2.97-6.87-6.05-9.23c-1.13-4.21-1.51-8.08,1.85-11.38c0.83-0.81,1.25-2.06,0.72-3.08c-2.24-4.3,1.87-8.98-1.23-9.64
		c-1.74,3.69-2.26,7.38-0.51,11.18c-10.27,16.69,2.98,14.69,2.46,21.33c-0.31,3.95,10.82,6.89,14.77,7.08
		c4.55,0.22,20.59-0.43,23.18-4.31c-1.64-2.26-1.24-5.53-2.97-7.69c-3.72-4.64-5.14-12.22-12-25.64c0.72-0.21,1.44,0.31,1.54-0.62
		c-0.31-1.54-2.26-1.64-2.56-3.9c2.03-7.55,4.12-16.13-4-15.59c-2.35-16.45,5.17-35.5,7.69-46.87c2.87-17.2,5.2,2.37,2.77-53.64
		c-6.04,4.77,7.64,13.1-10.36,71.59c-2.19-6.03,0.96-22.04-1.23-23.79c-3.07,11.84,0.24,14.81-0.72,29.54
		c-1.09,16.65-1.47,8.46,0.1,23.18c-2.97,1.13-6.05,0.92-8.92,1.64c-0.62-2.46,0.1-4.62-0.92-6.97c-1.29,3.88,1.12,9.51-5.74,7.9
		c-3.01-42.17-13.12-77.81-5.23-98.05c6.58-16.88,5.64-13.98,5.64-30.15c0-1.58-1.74-3.24-1.74-9.23
		c3.39-4.69,16.04-0.15,37.23-4.41c0.51-0.1,1.13-0.1,1.33,0.62c-1.54,4.82-2.36,9.85-4.62,14.36c-0.21,0.21-0.21,0.51-0.21,0.82
		c0.41,2.97-1.02,5.74-1.33,8.62c-0.61,5.64-2.3,10.64-6.97,14.26c-0.81,0.63-2.05,1.54-1.44,3.28c13.87-11.8,8.69-22.47,12.31-28.2
		c2.46-3.9,3.69-8.2,4.92-12.31c1.54-2.56,4.21-2.05,6.36-2.56c1.54-1.13,1.85-3.28,3.59-3.69c1.33-4.31,0.78-10.71,3.49-14.05
		c1.85,6.05-0.62,12.1,1.44,17.23c2.05,1.85,4.41,0.51,6.15,1.95c0,21,8.81,19.76,3.9,47.59c-3.34,18.92,1.27,23.05,2.77,32.72
		c3.6,23.24,8.09,37.83,7.79,52c-0.06,3.06,3.11,1.32,2.77-4.72c-1.69-29.55-12.99-54.77-12.1-72c0.88-17.08,5.18-21.52,0.62-39.18
		c-2.63-10.19-3.03-5.75-3.38-12.92c-0.44-8.9,12.6,3.03,34.87-1.13c3.12,4.85-0.81,2.74-0.21,12.51c0.34,5.53-1.51,8.64-3.08,13.33
		c0.31,0.72,1.44,1.03,1.23,2.15c-2.36,2.67-2.26,5.95-2.05,9.33c1.33-1.74,0.82-4.21,2.67-6.15c6.87,27.9,1.53,38.2,1.23,51.28
		c-0.35,15.38-2.77,30.77-2.87,46.15c-4-0.92-7.79,1.44-12,1.23c-0.51-3.08,0.21-6.15-1.03-8.92c-1.54,3.08-0.51,6.36-1.13,9.44
		c-6.61,3.3-2.74,2.49-3.9,5.03c-6.24,4.39-1.85,7.6-3.49,11.79c-2.79,7.14-3.95,8.24-3.38,10.26c1.39,4.95-4.53,5.34-0.72,9.64
		c2.94,3.31,5.95,6.63,10.77,7.28c2.16,0.29,4.1,1.15,6.26,0.92c8.57-0.91,1.42,7.73,13.95,8.62c27.59,1.94,21.21-5.14,27.18-5.85
		c3.18,0,2.04-7.49-2.67-11.59c-4-3.49-7.85-10.09-13.03-14.87c-5.44-5.02-8.62-10.77-8.92-17.85c-3.85-4.14-7.2,10.82-2.97-41.54
		c2.26-28.03,3.97-24.68,3.18-32.61c-2.4-24.07-2.63-27.46-5.13-33.54c2.05-1.54,2.36-3.49,2.26-5.74
		c-0.75-16.14,2.27-13.09,3.08-20c3.28-0.92,6.15,0.41,8.72-0.62c1.13-1.69,2.81-32.77-1.54-41.64c0.41-1.54,0.82-3.08,0.92-3.69
		c-3.49-9.64-3.9-19.08-5.44-28.41c2.56,2.67,5.23,3.49,8.31,1.64c1.64,1.13,3.28,1.13,5.23,0.41c1.23-1.85,2.56-3.9,4.31-6.67
		c-5.02,0.9-3.99,8.42-8.51,5.03c0-2.56,3.49-3.38,2.87-6.36c-2.87,1.54-3.79,4.31-5.23,6.36c-3.28,1.44-4.51-1.33-6.67-2.77
		c4.41-1.44,4.82-4.72,4.41-8.62c-1.13-1.23-2.26-2.46-3.08-3.38c-2.26-0.82-4.51,0.62-6.36-1.23c7.93-19.26,15.22-16.65,3.38-42.46
		c-7.77-16.94-9.81-24.36-9.54-32.31c0.19-5.53,4.1-17.74,0.41-21.03c0.62-3.65,2.96-26.16-1.03-29.95
		c8.3-26.87,2.66-12.81,4.82-21.85c1.43-6,1.26-18.89,0.72-19.69c-2.46,2.26-0.92,5.95-3.28,8.62
		c-5.74-11.08-10.36-22.26-15.69-33.54c11.63,1.7,22.47,7.87,24.82,20.1c2.73,14.22-2.44,13.45,1.85,43.59
		c1.25,8.82-2.69,11.46,1.74,22.26c12.84,31.3,9.24,21.93,8.72,28.41c-0.21,2.67,0.26,5.3-1.23,7.79c-0.42,0.71-0.7,2.23,0.41,3.08
		c2.33,1.78,1.98,26.4,6.26,34.87c1.14,2.25,1.63,4.82,1.33,7.38c-0.45,3.9,0.65,0.45,1.85,8.92c1.36,9.6,11.95,21.25,0.01,30.57
		c1.13,1.83,2.14,0.81,3.17-0.22c1.32-1.47,0.15-5.23,6.36-3.9c1.04,2.09,6.96,42.58,36.51,45.95c11.82,1.35,24.45-0.01,33.23-8.1
		c16.61-15.32,16.43-36.51,17.74-44.2c11.18-1.75,17.32,1.53,18.15-7.59C416.68,288.3,416.68,288.3,413.7,286.56z M189.4,253.63
		c-0.25-0.4-0.32-0.75-0.33-1.08C189.04,250.37,189.96,252.32,189.4,253.63z M2.53,323.79c-1.75-3.38-1.72-3.41,1.13-6.46
		C7.31,320.34,7.3,323.47,2.53,323.79z M7.87,324.61c-1.4,0,0.51-2,0.42-2.96c-1.29-6.45-12.69-4.42,71.28-9.54
		c5.3-0.32,5.52,1.61,4.71,4.79C83.39,320.38,81.71,319.47,7.87,324.61z M85.55,311.15c-1.42-1.65-3.84-1.57-6.2-1.72
		c1.04-2.26,3.09-2.46,4.63-3.08c10.23,3.13,8.51,14.81,1.64,17.95C80.16,320.34,90.46,318.53,85.55,311.15z M87.9,335.35
		c2.48,11.58-3.06,15.45-3.73,10.08c-0.55-4.34-1.38-8.88-1.6-13.09c-0.55-10.85-2.29-9.44-0.04-11.02
		C84.11,326.24,86.88,330.55,87.9,335.35z M80.13,321.91c-4.8,8.76-4.9,12.42-7.86,25.47c-11.25-3.73-3.05-14.91,4-24.41
		C77.77,320.95,80.3,321.74,80.13,321.91z M67.25,375.17c-18.75-10.09-26.66-39.77-26.66-49.95c0.25-1.27,2.39-1.32,3.68-0.62
		c2.64,10.57,3.99,28,21.23,44.31c3.37,3.19,7.79,4.1,12.31,4.51c-2.16-0.97-3.77-1.74-5.44-2.36
		c-11.73-4.39-25.03-28.49-25.85-46.87c31.92,0,31.86-7.72,22.06,5.54c-2.15,2.91-1.59,4.25-4.82,7.49
		c0.41,7.55,3.02,11.93,10.36,13.33c3.71-10.82,5.78-35.47,5.93-16.35c0.05,6.39,0.67,7.05,0.65,8.47
		c-0.01,0.98-0.46,1.76-0.54,2.87c-0.48,6.72,12.51,11.11,11.61-3.1c-0.84-13.29-6.14-15.69-5.24-16.27
		c18.56-11.92-3.81-31.95-9.84-16.04c-32.66,1.96-30.87,2.34-30.86,1.85c0.37-29.55,19.09-64.78,45.53-52.1
		c0.21,0.1,0.51-0.1,1.13-0.31c-13.14-6.57-23.32-5.41-34.56,9.33c-10.74,14.09-12.56,27.83-14.05,42.77
		c-1.37,1.15-3.79,0.67-3.78,0.31c0.8-57.23,42.63-78.26,65.73-43.9C137.49,315.2,107.62,396.89,67.25,375.17z M128.08,342.48
		c-11.22,38.35-39.48,38.19-40.83,37.4c-0.56-2.44,25.06-4.23,32.1-47.18c5.09-31.01-4.7-75.3-34.67-82.66
		C124.02,247.28,139.31,304.07,128.08,342.48z M134.12,315.68c-0.92-2.46-0.51-4.62-0.72-7.38c44.6-3.43,39.42-3.49,41.85-0.41
		C171.71,314.45,185.06,312.18,134.12,315.68z M191.66,541.11c1.54-0.1,2.97-0.82,4.72,0.51
		C194.41,542.24,192.93,541.11,191.66,541.11z M202,556.11c-0.55,0.34-0.91-0.2-0.91-0.33C201.4,554.63,202.56,555.76,202,556.11z
		 M201.3,552.91c-0.51,0.82-1.13,0.31-1.95,0C200.17,551.92,200.79,551.75,201.3,552.91z M176.58,527.37
		c1.19-1.19,2.29-1.5,3.79-1.33c0.81,1.94,0.02,4.17,0.62,5.85c-2.5,3.01-2.17,2.18-4.2,2.86
		C174.02,532.29,176.78,529.73,176.58,527.37z M229.6,359.68c-0.07-0.95,0.13-1.69,0.62-2.3
		C230.22,360.4,230.38,360.29,229.6,359.68z M255.65,518.14c4.8-0.65,9.21-2.15,13.99-1.63c6.94,0.75-7.45,1.94-9.17,3.07
		c-0.85,4.08,4.54,4.03,0.62,9.13c-1.54-1.43-4.13,0.7-5.43-1.03c-1.38-1.36-0.15-3.58-2.27-4.51
		C254.01,522.55,255.29,520.45,255.65,518.14z M289.81,543.68c-1.44-0.31-2.77-0.51-4.21-0.82
		C287.97,541.21,287.97,541.23,289.81,543.68z M277.99,527.78c-1.98-0.12-8.35-1.95-9.23,0.86c-0.17,0.55,0.25,1.2,0.1,1.7
		c-1.5,0.9-3.72-0.38-5.03,0.92c0.31,1.15,0.87,2.26,4.82,2.26c-0.41,1.23-2.36,0.95-2.36,2.67c1.64,2.15,4.21,0.31,6.25,1.33
		c0.1,0-0.09,1-0.09,1.85c1.82,2.33,3.45,0.82,7.18,0.82c-1.15,1.52-2.31,0.66-3.18,3.28c1.44,1.54,2.67-0.1,4,0
		c2.67,2.36,4.92,2.67,10.77,1.44c3.54,7.79,22.78,16.27,0.84,20.51c-5.92,1.14-17.37,1.61-20.82-0.92
		c-1.64-1.44-0.92-3.08-1.85-4.31c-4.04-4.51-5.44-1.22-15.69-4.41c-3.28-1.02-4.92-3.9-7.28-6.67c4.45-7.13,0.08-6.63,2.43-10.22
		c1.2-1.82,3.28-3.29,3.31-10.1c0.02-5.38,0.12,5.05,8.3,2.37c3.07-1.01,3.9-5.74,3.77-5.99c-0.14-0.45-2.8-3.96-2.02-3.96
		c2.05-0.71,4.19,0,6.35-0.21C280.58,519.89,274.11,522.61,277.99,527.78z M273.4,530.24c-0.72,0-1.23,0-1.95,0
		C272.27,529.83,272.78,529.83,273.4,530.24z M263.24,249.22c1.46-0.77,3.96-0.86,3.96,1.12c-0.08,1.09-1.29,2.51-1.38,0.59
		c-0.01-0.25-0.08-0.46-0.43-0.5c-1.13-0.21-0.82,2.15-2.36,1.44C262.42,250.87,263.55,250.15,263.24,249.22z M267.14,257.43
		c-1.44-1.33-2.77-2.26-1.44-4.62C266.83,254.35,267.14,255.58,267.14,257.43z M199.14,298.04c-8.35-14.89-7.81-16.66-8.1-21.33
		c-0.96-15.54-3.02-22.2,2.87-24.1c0.51-0.1,0.82-1.03,1.23-1.64c1.03,0.31,0.41,1.54,1.23,1.95c1.74,0.29,0.41-1.7,1.13-1.85
		c3.12-1.87,3.84,1.95,3.98,0.67c0.17-1.52,4.93-0.8,3.81-1.36c-1.63-1.26-3.83-1.56-10.14-1.66c-0.72-0.62-0.1-2.15-1.74-2.05
		c-0.3,0.33-3.35,11.28-2.67-0.41c27.53,0,67.47,1.93,71.18,2.67c-0.63,7.23-3.39,0.34-4.29,1.49c-0.29,0.37-0.23,1.08-0.43,1.08
		c-3.52,0.19-1.87-3.87-3.07-1.75c-1.48,2.61,1.67,3.12,3.58,3.8c-0.52,4.13,0.36,10.15,3.49,12.92
		c-0.92-5.51-3.67-14.97,1.44-12.62c0,6.36,9.41,6.01,10.15,16.61c0.63,9.11,6.83,15.55,2.17,25.09
		c-0.71,1.45-48.32,3.84-72.12,5.78C200.89,300.61,199.88,299.36,199.14,298.04z M284.37,305.12c-90.48,6.32-83.92,5.99-83.74,5.1
		c0.38-1.92,0.3-3.68,2.51-3.87c0.52-1.2-0.74-1.83,0.32-2.96C280.68,297.33,289.03,294.59,284.37,305.12z M284.99,273.74
		c-1.02,3.77-1.84,7.95-5.99,10.52c-0.12,0.06-1.7-6.1-3.24-12.06c-4.56-17.64-6.05-11.77-6.05-18.67c0-10.38-2.2-13.4,0.62-21.85
		C276.14,254.97,281.1,253.36,284.99,273.74z M309.91,303.17c-0.95-2.22,1.5-4.06,0.38-6.56c0.1,0,24.89-2.98,34.84-2.98
		c1.93-0.19,3.57,0.31,4.78,1.85c1.04,1.32,0.31,2.56-0.1,3.79C347.39,301.2,348.43,300.83,309.91,303.17z M343.04,310.04
		c-1.96-1.62-3.38-3.59-4.1-6.36c2.24-0.85,4.29-0.65,6.35-0.89c10.82-1.27,8.46-13.45-0.3-11.31c-2.05,0.5-4.21,0.31-6.26,0.41
		c0.44-10.59,13.14-14.45,18.26-2.87C363,302.62,352.52,317.87,343.04,310.04z M357.09,285.22c1.74,1.35,0.81,1.28,2.11,3.23
		c7.87,11.81-6.73,28.3-1.6,19.13c5.3-9.49,0.85-19.79,0.75-19.85C357.26,287.11,357.09,286.35,357.09,285.22z M332.37,342.04
		c-7.85-6.84-15.31-19.24-17.64-37.02c25.6-1.73,21.35-2.37,24.72,3.28c4.58,7.68,17.4,7.21,21.23-1.33
		c9.7-21.62-14.88-37.41-22.77-19.08c-2.43,5.64,2.19,3.86-23.08,5.64c-1.61-11.23,6.98-44.28,32.51-48.31
		c16.59-2.62,36.94,12.94,41.23,43.18C394.95,333.39,360.19,366.31,332.37,342.04z M363.75,349.83
		c37.28-19.91,34.52-81.72,3.47-101.55c-2.76-1.76-5.85-2.77-9.54-4.41C409.16,248.13,410.97,342.47,363.75,349.83z M411.24,296.1
		c-3.69,0.16-7.38,1.03-11.38,0.62c-0.86-8.98-3.19-6.37,13.13-7.69c1.25-0.1,1.23,0.09,3.28,2.56
		C415.03,295.69,414.83,295.94,411.24,296.1z"/>
	<path d="M221.5,133.74c0.56,0.79,1.58,1.62,2.92,2.41c-1.03-0.78-2.04-1.64-3.05-2.59C221.41,133.62,221.46,133.69,221.5,133.74z"
		/>
	<path d="M236.78,331.48c-0.1,0.03-0.1,0-0.1,0.1L236.78,331.48z"/>
	<path d="M230.83,356.8C230.94,356.73,231,356.63,230.83,356.8L230.83,356.8z"/>
	<path d="M233.4,351.79l0.1-0.1C233.38,351.72,233.4,351.66,233.4,351.79z"/>
	<path d="M302.8,309.46c-0.61-1.3,1.45-2.52,0.13-4.34c-1.95,2.15-2.26,5.33-5.13,6.56c1.89,1.32,2.56,0.23,5.04-2.25
		c0,0,0-0.01-0.01-0.01L302.8,309.46z"/>
	<path d="M157.81,199.89c-0.01,0.62,0.1,1.33,0.31,2.05c1.56,5.38-1.84,8.64,3.9,10.77c0.31-1.33,0.31-2.56,1.44-3.28
		c-5.78-1.65,0.47-7.31-6.46-34.87c-4.55-18.09-2.84-20.22-1.13-37.95c0-2.91-1.73-2.73-2.46,1.33c-5.84,32.61-0.52,27.23,0.82,36.1
		C155.53,182.67,157.96,191.07,157.81,199.89z"/>
	<path d="M647.75,387.17c-3.32-7.77-2.44-13.31-3.18-14.05c-2.29-0.46-3.42,6-1.33,9.23c3.81,5.9,4.3,23.07,7.9,26.67
		c-2.75-20.13-3.38-12.1-3.38-18.56C647.75,389.43,648.14,388.1,647.75,387.17z"/>
	<path d="M238.42,50.46c0-2.36,2.36-1.54,3.59-2.26c0-1.64-0.72-2.66-2.05-2.97c-4.41-1.04-11.83-1.18-13.03,2.15
		c2.05,0.31,3.08-1.44,4.82-1.44c1.33,1.44,3.79,0.41,5.64,1.74c-2.97,0.82-6.05,0.51-9.44,2.77
		C232.06,50.67,235.04,51.18,238.42,50.46z"/>
	<path d="M179.66,417.73c-1.95,2.05-4.1,3.9-4.21,7.38c1.85-1.44,1.74-4,4.21-4.82c0,4.38-3.83,6.37-3.59,12
		c0.21,4.92,1.54,9.95-0.21,14.87c2.46-4.31,2.71-6.04,1.74-11.08c-1.75-9.12,2.55-8.9,4.1-17.44
		C180.89,418.35,180.58,417.53,179.66,417.73z"/>
	<path d="M259.24,432.19c0.82,6.97,0.72,14.05,1.54,21.74C263.29,448.77,263.64,434.3,259.24,432.19z"/>
	<path d="M202.32,388.4c-3.69,5.23-8,9.13-14.15,10.77c-2.26-0.62-4.82-1.23-7.79-1.95C185.11,405.84,203.82,396.49,202.32,388.4z"
		/>
	<path d="M226.63,82.46c-6.16-7.76-12.72-3.67-12.72-19.69c-3.28,4.51,0.1,8-0.31,11.59c3.9,2.97,7.79,5.85,12,8.41
		C225.81,82.87,226.12,82.67,226.63,82.46z"/>
	<path d="M165.19,200.82c-0.07-2.87-4.26-0.96-1.74,6.05c1.28,3.57,3.79,5.74,7.79,5.64C171.61,210.67,165.41,209.91,165.19,200.82z
		"/>
	<path d="M190.63,371.07c-0.52,5.42,5.43,4.36,7.79,4.21c0.25-1.89,2.36-7.96-3.79-7.69C192.37,367.68,190.84,368.91,190.63,371.07z
		 M193.21,369.55c1.13-0.94,3.45-1,3.98,1.62c-0.23,1.59-1.86-0.04-2.04,1.37C194.67,376.32,190.62,371.7,193.21,369.55z"/>
	<path d="M179.96,368.5c-1.51-1.57-3.49-2.05-5.85-0.72c0.1,2.46-1.33,5.03,0.31,7.59c1.33-0.51,0.82-1.64,1.44-2.36
		c1.64,0.62,2.26,2.56,4.31,2.15c-0.41-0.92-0.72-1.74-1.03-2.56C180.17,371.27,181.32,369.91,179.96,368.5z M175.66,369.73
		c1.64-0.31,1.64-0.31,3.69,0.41C176.89,370.86,176.89,370.86,175.66,369.73z"/>
	<path d="M246.63,215.99c-0.31,1.95-0.41,3.38-1.54,3.9c1.54,6.87,1.23,13.33-0.1,19.9C248.17,236.71,248.58,230.35,246.63,215.99z"
		/>
	<path d="M185.4,375.58c5.62,0.12,5.78-7.77,0.31-8C179.79,367.33,179.69,375.46,185.4,375.58z M187.96,371.48
		c0,3.09-4.43,3.22-4.83,0.31C182.68,368.48,187.71,367.66,187.96,371.48z"/>
	<path d="M163.35,229.94c-3.59,4.42,2.79,12.63,3.69,19.49C168.46,248.96,168.71,252.08,163.35,229.94z"/>
	<path d="M159.04,167.18c-0.51-0.72-0.72-1.85-2.26-1.85c-0.62,3.08,1.15,5.19,3.38,6.36c7.12,3.71,2.33,6.66,6.05,7.08
		C166.22,169.62,164.55,174.84,159.04,167.18z"/>
	<path d="M660.26,291.48c1.03-1.13,3.9-12.41,4-13.85C660.67,281.84,659.13,286.25,660.26,291.48z"/>
	<path d="M189.91,420.81c-2.6-13-1.34-7.38,0.41-15.28C185.91,408.09,185.6,415.99,189.91,420.81z"/>
	<path d="M257.91,402.86c8.65-2.74,11.04-2.67,10.67-8.1c-3.47,4.92-0.35,3.28-13.13,6.67
		C255.96,402.96,256.89,403.18,257.91,402.86z"/>
	<path d="M276.68,210.15c0-2.26,1.33-4.1-0.31-6.87c-1.74,6.26,0.41,11.28,0.72,16.41C279.86,216.2,278.73,213.02,276.68,210.15z"/>
	<path d="M246.01,180.41c0.62-5.54-0.21-10.15-0.82-15.08C243.24,167.89,243.55,174.35,246.01,180.41z"/>
	<path d="M233.91,116c-1.95-1.74-4.31-3.28-7.59-2.26c1.74,1.13,3.92,1.4,5.44,2.67c3.24,2.7,6.05,1.03,9.64-0.31
		C238.53,114.87,236.47,116.92,233.91,116z"/>
	<path d="M631.54,515.37c-0.82-5.64-1.23-10.87-2.67-15.9C628.16,506.76,629.08,512.29,631.54,515.37z"/>
	<path d="M266.12,438.14c0.12-7.04,6.09-7.98,4.1-13.44c-2.63,8.11-6.73,7.92-4.82,15.08C265.7,439.07,266.11,438.66,266.12,438.14z
		"/>
	<path d="M173.91,164.82c-0.21-3.9-0.31-7.79-3.18-10.87C170.84,157.84,171.45,161.64,173.91,164.82z"/>
	<path d="M240.37,78.05c2.56,1.03,5.03,0.82,7.79-0.62C244.06,74.15,242.22,74.36,240.37,78.05z"/>
	<path d="M237.81,71.9c-1.21-0.22-4.08,4.09,11.79,0.31C245.71,70.77,241.69,72.59,237.81,71.9z"/>
	<path d="M224.07,113.33c-4.1-1.95-8-2.56-11.79-3.49C217.09,113.33,220.78,114.46,224.07,113.33z"/>
	<path d="M246.94,186.15c0.62,3.79-0.51,7.49-0.41,11.28C247.86,193.64,249.71,189.94,246.94,186.15z"/>
	<path d="M695.95,314.56c-4,0.31-6.56,2.56-10.15,4.72C692.46,318.04,693.69,317.53,695.95,314.56z"/>
	<path d="M248.17,215.89c0.41-3.9,0.1-7.79-1.44-11.38C245.54,204.51,245.48,203.82,248.17,215.89z"/>
	<path d="M243.55,203.58c-0.34-1.02,1.21-1.19-11.49,0.92C236.06,205.23,239.96,205.43,243.55,203.58z"/>
	<path d="M625.8,486.14c-1.8,2.81,3.7,4.42,6.56,2.46c-1.13-1.13-2.36-0.72-3.38-1.03S627.34,486.04,625.8,486.14z"/>
	<path d="M219.24,165.74c-2.15-1.03-4.1-2.05-7.08-1.85C214.53,167.59,215.04,167.69,219.24,165.74z"/>
	<path d="M171.14,212.61c1.23,2.77,3.18,5.03,5.03,7.38C176.07,216.51,175.04,213.53,171.14,212.61z"/>
	<path d="M163.76,215.17c-1.85,2.77-1.95,5.74-1.54,9.85C163.55,221.33,163.86,218.25,163.76,215.17z"/>
	<path d="M177.3,232.2c-0.51-2.77-1.03-5.64-1.44-8.51C174.32,226.97,175.25,229.74,177.3,232.2z"/>
	<path d="M255.96,418.66c-0.21,3.18,1.03,6.05,2.67,8.82C258.01,424.5,258.42,421.12,255.96,418.66z"/>
	<path d="M222.42,88.31c-1.74-2.87-2.67-6.36-5.54-8.41C218.32,82.97,219.65,86.15,222.42,88.31z"/>
	<path d="M156.58,130.87c-0.41,3.59,1.23,5.54,3.38,7.18C159.04,135.69,159.25,132.82,156.58,130.87z"/>
	<path d="M224.17,347.07c-1.03,3.18-2.36,6.36-1.85,9.74C223.55,353.73,224.68,350.56,224.17,347.07z"/>
	<path d="M267.65,408.5c-2.67,0.51-4.31,1.44-6.05,2.46C265.09,412.3,265.29,412.19,267.65,408.5z"/>
	<path d="M260.47,462.35c1.33-2.26,1.13-4.62,0.82-7.08C259.86,457.53,259.96,459.89,260.47,462.35z"/>
	<path d="M249.09,64c-4.41-1.03-5.33-0.72-5.85,2.46C244.88,64.31,247.45,66.67,249.09,64z"/>
	<path d="M247.76,391.58c0,2.1,8.37,2.1,10.05,2.05C254.12,392.91,250.94,392.2,247.76,391.58z"/>
	<path d="M295.45,289.63c-2.26,2.77,1.54,5.33,0.31,8.1C298.01,294.97,294.63,292.4,295.45,289.63z"/>
	<path d="M168.99,150.25c-0.21-2.15-1.03-3.9-3.18-5.23C165.19,148.1,167.25,149.12,168.99,150.25z"/>
	<path d="M194.22,456.19c-1.03,2.67-1.44,5.33,0,8C194.22,461.53,194.22,458.86,194.22,456.19z"/>
	<path d="M272.27,197.02c0.41,2.05,1.33,3.38,3.28,4.51C276.37,198.66,276.17,198.46,272.27,197.02z"/>
	<path d="M232.58,165.23c4,0.1,4,0.1,6.46-2.36C236.58,162.56,234.63,162.97,232.58,165.23z"/>
	<path d="M162.94,137.54c-0.1,3.59,0.21,3.9,3.49,4.62C165.71,140.3,164.89,138.87,162.94,137.54z"/>
	<path d="M196.07,197.84c-1.64-0.21-2.56-2.46-4.72-1.64C192.78,198.87,192.89,198.87,196.07,197.84z"/>
	<path d="M635.44,504.91c1.33-2.97,1.44-5.44,1.03-8.51C635.23,499.27,635.03,501.63,635.44,504.91z"/>
	<path d="M277.81,197.23c1.33-1.54,2.46-2.87,3.28-5.03C277.5,194.46,277.4,194.56,277.81,197.23z"/>
	<path d="M649.28,327.79c0.41,2.67,0.72,4.41,2.36,5.85C651.75,331.68,652.05,329.63,649.28,327.79z"/>
	<path d="M183.86,201.43c0.31-1.85-0.1-3.49-2.05-4.82C181.4,198.76,182.32,200.2,183.86,201.43z"/>
	<path d="M227.14,99.28c-1.54-3.38-1.54-3.38-3.9-4C224.37,97.02,225.5,98.36,227.14,99.28z"/>
	<path d="M172.38,262.63c0.04,2.25,0.32,4.43,2.14,6.7C174.53,266.56,172.71,264.73,172.38,262.63z"/>
	<path d="M172.38,262.63c-0.01-0.4-0.01-0.8-0.01-1.2C172.31,261.85,172.32,262.24,172.38,262.63z"/>
	<path d="M180.07,338.35c-0.62,2.36-0.1,4.51,1.13,7.08C181.3,342.76,179.96,340.71,180.07,338.35z"/>
	<path d="M178.83,239.76c0.03-0.2,0-0.17-0.06-0.23C178.73,239.7,178.71,239.68,178.83,239.76z"/>
	<path d="M180.78,244.2c-0.21-1.71-0.41-3.42-1.96-4.44C178.65,241.53,179,243.2,180.78,244.2z"/>
	<path d="M631.34,483.99c1.54-2.46,1.54-2.46-0.1-4.51C631.13,481.01,630.52,482.24,631.34,483.99z"/>
	<path d="M675.54,342.35c1.13-2.05,1.03-4,0-5.95C675.54,338.35,675.54,340.3,675.54,342.35z"/>
	<path d="M178.76,239.53c0.36-1.57,0.11-2.86-1.88-4.05C176.78,237.59,177.38,238.72,178.76,239.53z"/>
	<path d="M282.22,186.15c-1.95,2.15-1.95,2.15-1.33,3.79C282.11,189.23,282.01,188,282.22,186.15z"/>
	<path d="M196.48,239.99c-1.54-0.1-2.77-1.44-4.92-0.92C193.3,240.61,194.84,240.4,196.48,239.99z"/>
	<path d="M203.04,394.45c0,1.54,0.82,2.56,2.36,3.79C204.68,394.76,204.68,394.76,203.04,394.45z"/>
	<path d="M238.83,128.72c0.62,3.08,0.62,3.08,2.15,4.41C240.78,131.38,240.37,130.05,238.83,128.72z"/>
	<path d="M177.81,146.97c1.54-0.31,2.56-1.23,4.1-3.08C179.55,144.71,178.12,145.13,177.81,146.97z"/>
	<path d="M291.86,301.22c1.13,1.33,2.26,1.64,4.1,0.31C294.52,301.12,293.4,299.99,291.86,301.22z"/>
	<path d="M256.68,498.55c0,5.99-0.15,4.72,0.41,4.72C257.09,497.86,257.23,498.55,256.68,498.55z"/>
	<path d="M194.42,303.38c0.1-1.74-0.51-2.56-2.05-3.49C192.48,301.53,192.78,302.66,194.42,303.38z"/>
	<path d="M189.81,203.69c1.54,0.72,2.77-0.1,3.49,0C192.58,203.79,191.25,202.05,189.81,203.69z"/>
	<path d="M228.89,320.5c1.64-0.82,2.87-1.13,2.97-2.97C230.53,318.25,229.81,318.97,228.89,320.5z"/>
	<path d="M169.19,142.36c-0.21-1.44-0.62-2.15-2.26-2.15C167.25,141.64,167.66,142.46,169.19,142.36z"/>
	<path d="M241.6,149.43c-0.31,1.33-0.72,2.56,0,4.92C242.42,152.2,242.01,150.87,241.6,149.43z"/>
	<path d="M170.22,256.1c-0.62-1.44-0.82-2.56-1.95-3.08C168.58,254.05,168.68,255.17,170.22,256.1z"/>
	<path d="M675.13,331.17c1.13-0.62,1.64-1.44,0.31-3.18C674.92,329.43,674.41,330.15,675.13,331.17z"/>
	<path d="M191.45,298.56c1.03-1.33,0-2.05-0.92-3.38C190.32,296.81,190.42,297.74,191.45,298.56z"/>
	<path d="M638.72,483.06c0.82-1.23,0.41-1.95-0.72-2.77C637.59,481.53,637.39,482.55,638.72,483.06z"/>
	<path d="M203.55,189.53c0.72,1.13,1.64,1.33,3.18,0.82C205.6,189.33,204.78,188.61,203.55,189.53z"/>
	<path d="M180.99,512.09c0-1.33,0-2.05,0-2.87C180.48,510.04,179.45,510.76,180.99,512.09z"/>
	<path d="M171.86,145.33c0.04-0.01,0.06-0.01,0.1-0.01c0,0,0.02,0,0.03,0l0,0c0.32,0.74-0.18,1.96,1.3,2.06
		c0.5-1.4,0.69-2.4-1.29-2.07l0.06-0.08C171.91,145.02,172.02,145.16,171.86,145.33z"/>
	<path d="M288.99,262.35c0.41-1.33,0.21-2.26-0.92-2.97C287.65,260.61,287.96,261.43,288.99,262.35z"/>
	<path d="M652.36,336.3c-0.62,1.33,0,1.95,1.03,2.56C653.9,337.33,653.49,336.71,652.36,336.3z"/>
	<path d="M661.9,366.25c-0.51,0.92-1.03,1.64-0.1,2.36C662.93,368.09,663.13,367.48,661.9,366.25z"/>
	<path d="M662.51,374.25c-0.62,1.23-0.62,2.36,0.21,4.1C663.44,376.61,663.13,375.48,662.51,374.25z"/>
	<path d="M631.34,468.81c-0.86,0-1.72,1.29,0,2.05C631.85,470.04,632.05,469.32,631.34,468.81z"/>
	<path d="M637.7,473.32c-0.62,1.13-0.31,1.95,0.82,3.28C638.62,474.96,638.93,474.04,637.7,473.32z"/>
	<path d="M677.28,316.2c0.51,0.21,1.03,0.21,1.74-0.41C677.9,314.76,677.39,314.86,677.28,316.2z"/>
	<path d="M234.63,124.72c0-1.33-0.51-1.95-2.05-2.56C233.09,123.69,233.4,124.51,234.63,124.72z"/>
	<path d="M196.07,171.59c0.62,0.62,1.23,1.03,2.56,1.03C197.71,171.59,197.09,170.87,196.07,171.59z"/>
	<path d="M170.53,142.87c-0.29,1.35,0.79,1.62,1.43,2.25C171.95,144.11,172.54,142.78,170.53,142.87z"/>
	<path d="M196.07,306.76c1.03-0.31,2.05-0.31,2.05-1.95C196.99,304.92,196.37,305.43,196.07,306.76z"/>
	<path d="M278.01,224.3c0.62-0.82,0.51-1.54-0.41-2.67C276.37,223.07,276.99,223.69,278.01,224.3z"/>
	<path d="M255.65,489.73c-0.1,1.23-0.41,2.26,0.72,4.1C256.27,491.99,257.09,490.86,255.65,489.73z"/>
	<path d="M654,341.02c-0.51,1.13-0.51,1.95,0.72,2.77C655.23,342.45,654.93,341.63,654,341.02z"/>
	<path d="M168.07,185.53c0.72-0.62,0.92-1.23,0.31-2.05C166.94,184.2,167.04,184.82,168.07,185.53z"/>
	<path d="M224.07,92.31c0.95,0.38,1.37-1.23-0.31-1.23C223.45,91.79,223.65,92.2,224.07,92.31z"/>
	<path d="M239.96,121.84c0.72,0.31,1.03,0,1.03-0.72C240.68,121.33,240.37,121.54,239.96,121.84z"/>
	<path d="M244.58,112.61c-0.31,0.31-1.13,0.41-0.51,1.13C246.41,113.74,245.67,111.52,244.58,112.61z"/>
	<path d="M228.68,102.05c-0.31,0.82,0.31,1.13,1.03,1.44C230.22,102.46,229.91,101.95,228.68,102.05z"/>
	<path d="M287.24,252.3c0.31-0.72,0.21-1.33,0-1.95C286.83,251.07,287.04,251.69,287.24,252.3z"/>
	<path d="M166.12,178.87c0.1,0.92,0.1,2.05,1.54,2.15C167.96,179.69,167.45,178.97,166.12,178.87z"/>
	<path d="M682.1,317.43c-0.24-1.2-1.6-0.26-1.23,0.1C681.28,317.94,681.8,318.04,682.1,317.43z"/>
	<path d="M300.47,294.04c-0.62,0.92-0.41,1.54,0.51,2.05C301.6,295.07,301.19,294.45,300.47,294.04z"/>
	<path d="M631.34,477.53c0.62-0.72,0.72-1.33-0.1-2.67C630.82,476.09,630.21,476.81,631.34,477.53z"/>
	<path d="M184.89,296.2c-0.37-0.37-1.38,0.93,0.1,1.23C185.5,297.02,185.5,296.61,184.89,296.2z"/>
	<path d="M201.39,252.63l0.11-0.23C201.67,252.07,201.39,251.85,201.39,252.63z"/>
	<path d="M518.93,430.45c0.82,1.03,1.64,1.23,2.77,0.82C521.08,430.04,520.16,429.94,518.93,430.45z"/>
	<path d="M523.34,560.6c0.88,0.48,1.39,0.07,1.85-0.82C524.26,559.37,523.75,559.88,523.34,560.6z"/>
	<path d="M624.36,376.32c-5.58-3.72-12.19,10.79,2.16,6.44C626.34,380.66,626.02,377.42,624.36,376.32z M623.08,380.3
		c-1,0.45,0.08,1.25-0.15,1.95c-1.79,0.21-2.84-0.51-2.97-2.36c-0.17-2.3,3.33-3.89,4.62-0.31
		C624.31,380.43,623.56,380.08,623.08,380.3z"/>
	<path d="M608.89,381.43c-0.22,5.08,6.39,5.51,7.98,1.57C619.26,377.07,609.15,375.17,608.89,381.43z M612.46,383.99
		c-2.51-0.63-2.35-4.11-0.21-4.72C615.91,378.24,616.4,384.69,612.46,383.99z"/>
	<path d="M606.41,379.68c-1.67-0.45-3.44-0.25-5.04,0.41c-0.42,2.77,0.42,5.03,1.12,7.6c2.01-0.82,0.01-2.72,2-2.7
		c1.34,0.01,1.87,1.89,3.65,1.25C605.49,384.5,609.39,381.63,606.41,379.68z M603.23,383.07c0.81-2.67,0.85-2.65,2.77-1.03
		C605.39,383.27,604.36,383.17,603.23,383.07z"/>
	<path d="M586,310.86c6.63,7.76,24.85,9.04,24.75,9C584.07,313,591.67,312.53,586,310.86z"/>
	<path d="M581.18,338.76c0.78-0.78,2.18,1.36-8.72-14.46C574.31,329.84,577.59,334.35,581.18,338.76z"/>
	<path d="M595.85,296.4c-4.62-0.59-9.08-0.26-13.74,1.13C586.41,297.96,592.44,298.44,595.85,296.4z"/>
	<path d="M590.31,287.17c-4.72-2.67-9.74-1.54-14.77-0.62C580.36,287.48,585.44,286.25,590.31,287.17z"/>
	<path d="M598.6,306.98c-0.41-0.01,4.8,3.89,12.33,3.89C597.62,306.43,599.37,306.99,598.6,306.98z"/>
	<path d="M596.06,291.38c1.51,1.51,3.22,2.69,5.12,3.71C609.75,299.72,599.79,292.54,596.06,291.38z"/>
	<path d="M591.44,280.61c-1.85-2.05-3.18-1.03-4.92,0.21C588.36,281.12,589.8,281.33,591.44,280.61z"/>
	<path d="M625.39,331.27c1.1,0,1.95,0.82,3.08-0.41C627.44,330.97,626.52,330.04,625.39,331.27z"/>
	<path d="M577.41,324.87c-0.01,0.47,0.23,0.81,1.01,0.96C577.6,324.62,577.43,323.96,577.41,324.87z"/>
	<path d="M576.06,322.76c-0.21-0.92-0.51-1.44-1.54-1.74C574.72,321.94,574.93,322.45,576.06,322.76z"/>
	<path d="M624.68,263.38c-6.45,12.79-4.47,25.15,2.67,37.43C621.85,282.5,619.17,283.08,624.68,263.38z"/>
	<path d="M614.68,268.92c-0.27,1.19-0.37,2.28-0.37,3.38C617.07,266.78,616.76,259.6,614.68,268.92z"/>
	<path d="M610.5,270.16c-0.59,1.22-0.59,2.35-0.3,3.69C611.87,271.56,611.87,267.3,610.5,270.16z"/>
	<path d="M629.59,277.33c0.07-0.67,0.2-2.77,0-2.77C629.59,275.48,629.59,276.4,629.59,277.33z"/>
	<path d="M618.62,301.02c-0.58,1.25-0.08,1.7,0.88,2.47c0.36,0.29,0.39,0.46,0.35-0.25C619.78,302.15,619.22,301.69,618.62,301.02z"
		/>
	<path d="M621.18,305.84c-0.31,0.92,0.21,1.33,0.92,1.74C622.21,306.66,621.8,306.15,621.18,305.84z"/>
	<path d="M746.51,374.72c-0.99,1.72-1.45,4.66-1.11,4.32c1.89-1.87,2.76-4.28,3.5-6.72C749.07,371.77,747.34,373.28,746.51,374.72z"
		/>
	<path d="M747.33,407.78c1.93-3.23,2.16-4.79,1.13-8.1C748.36,402.45,748.05,405.12,747.33,407.78z"/>
	<path d="M747.1,440.2c0.16-1.28,0.06-2.71-0.17-3.91C746.44,440.18,746.64,443.81,747.1,440.2z"/>
	<path d="M772.56,321.63c1.13-2.82-2.18-1.28-1.54,0.92C771.85,322.45,772.36,322.15,772.56,321.63z"/>
	<path d="M746.92,418.86c0.2-1.01,0.41-1.96-0.1-2.87C747.24,417.01,745.9,417.71,746.92,418.86z"/>
	<path d="M775.89,317.81c1.59-2.97-1.58-0.92-1.89,1.06C774.97,318.8,775.53,318.48,775.89,317.81z"/>
	<path d="M749.07,372.03c0.75-0.41,1.15-1.02,1.34-2.09C748.74,371,748.96,372.13,749.07,372.03z"/>
	<path d="M749.08,372.2c-0.01-0.05-0.01-0.1-0.02-0.15C748.95,372.11,748.96,372.07,749.08,372.2z"/>
	<path d="M754.41,445.01c-0.1,1.03,0.41,1.44,1.13,1.95C755.84,445.71,755.39,445.34,754.41,445.01z"/>
	<path d="M654.31,459.37c-1.97,5.74-1.52,6.4-0.3,9.03C653.39,465.32,654.62,462.35,654.31,459.37z"/>
	<path d="M659.64,428.09c-1.22-0.61-1.92-0.44-2.26,0.82C658.51,429.63,659.13,429.32,659.64,428.09z"/>
	<path d="M782.94,269.91c4.39-0.58,5.15,3.54,11.26,1.26c-3.55-3.66-8.24-2.38-11.08-3.79c-1.95,1.95-5.13,1.13-7.49,3.08
		C779.09,271.78,781.04,270.16,782.94,269.91z"/>
	<path d="M777.38,273.53c4.12,1.37,6.07,2.44,9.85-1.33C783.74,271.48,780.67,271.48,777.38,273.53z"/>
	<path d="M733.92,305.47c2.11,0.62,4.34,0.98,6.54,0.78C737.68,304.55,723.87,302.54,733.92,305.47z"/>
	<path d="M738.21,278.76c0.21-2.77,0.41-5.54-0.51-8.1C737.08,273.43,736.87,276.2,738.21,278.76z"/>
	<path d="M747.85,285.84c-0.92,1.33-1.03,2.77-1.54,5.23C748.87,287.79,748.87,287.79,747.85,285.84z"/>
	<path d="M724.56,301.43c0.62,1.13,1.44,1.64,3.18,1.13C726.72,301.63,726.31,300.2,724.56,301.43z"/>
	<path d="M744.87,293.22c1.05-0.68,0.71-1.41-0.15-1.2C742.96,292.46,743.63,294.15,744.87,293.22z"/>
	<path d="M712.87,424.5c-1.57,4.96,3.43,5.34,2.87,9.44c-0.43,3.18,0.82,5.74,1.44,8.62c-2.4,5.59,0.63,17.38,2.05,6.67
		C719.98,443.55,717.76,426.6,712.87,424.5z"/>
	<path d="M723.85,402.55c-10.96,1.04-4.54,1.57-17.12-6.97C711.59,410.7,729.09,402.55,723.85,402.55z"/>
	<path d="M725.18,401.12c4.88-2.8,5.48-11.03,3.69-12.82c-1.33,1.23-2.15,2.56-1.85,4.62c0.62,0.21,1.85-0.21,1.54,1.33
		C725.71,395.39,727.01,396.85,725.18,401.12z"/>
	<path d="M695.79,394.26c-2.18,0.92,7.08,5.11,9.1,6.25C703.66,398.44,698.01,393.32,695.79,394.26z"/>
	<path d="M729.47,412.56c-0.01-2.25,1.14-4.24-0.49-6.93C728.61,411.45,729.47,414.02,729.47,412.56z"/>
	<path d="M715.85,455.58c-0.92,1.02-0.61,1.91-0.1,3.18C717.03,457.48,717.32,456.63,715.85,455.58z"/>
	<path d="M727.44,401.43c-0.41,1.33,0.1,1.95,1.03,2.36C729.08,402.66,728.77,401.94,727.44,401.43z"/>
	<path d="M702,412.3c0.41,1.13,0.72,1.85,1.85,1.64C703.74,413.12,703.44,412.4,702,412.3z"/>
	<path d="M726.62,418.35c0.46-0.35,0.99-0.81,1.08-1.35C727.97,415.26,725.84,416.22,726.62,418.35z"/>
	<path d="M715.64,496.19c2.08-9.95,2.65-11.92-0.21-14.78C717.73,485.46,714.87,492.95,715.64,496.19z"/>
	<path d="M710.82,497.73c-1,3.11-0.84,4.34-0.21,7.79C711.97,502.22,711.93,502.2,710.82,497.73z"/>
	<path d="M717.28,506.24c-1.59-6.28-3.67-4.95-1.91-2.27C715.9,504.78,716.64,505.48,717.28,506.24z"/>
	<path d="M711.44,492.71c-0.21,0.62-0.31,1.13,0,1.64C711.85,493.83,711.85,493.32,711.44,492.71z"/>
	<path d="M79.15,372.71c1.93,1.44,3.21,0.7,5.34-0.42C82.22,372.09,80.89,371.89,79.15,372.71z"/>
	<path d="M219.48,268.02c0.1,7.75,1.29-7.56,1.26-9.63c-0.16-12.4-2.22-6.1-1.51,4.79C219.33,264.7,219.46,266.52,219.48,268.02z"/>
	<path d="M224.99,252.4c-1.64,2.87-1.13,6.67,2.05,14.46C226.42,262.15,225.71,257.53,224.99,252.4z"/>
	<path d="M201.67,252.21c-0.11,0.06-1.81,7.42-1.81,10.65c0.01,3.05,3.45-10.66,3.49-10.76
		C202.64,251.77,202.16,251.9,201.67,252.21z"/>
	<path d="M197.5,276.92c1.64-3.18,1.44-5.54-0.21-7.9C197.81,271.38,197.3,273.84,197.5,276.92z"/>
	<path d="M268.37,272.3c-0.21,2.87,0.72,4.72,2.05,6.36C270.32,276.61,269.5,274.76,268.37,272.3z"/>
	<path d="M237.5,283.48c-1.56-0.78-1.35,3.22-0.72,5.03C236.98,286.87,237.29,285.19,237.5,283.48z"/>
	<path d="M216.99,249.84c-1.85-0.21-3.28,0.62-5.54,0.92C214.73,251.58,214.73,251.69,216.99,249.84z"/>
	<path d="M232.06,251.99c-2.26-1.03-3.9-0.72-5.95-1.23C228.06,252.61,229.6,251.99,232.06,251.99z"/>
	<path d="M244.17,253.12c-0.43,0-0.31-0.66-0.31,4.62C244.27,258.15,244.17,258.51,244.17,253.12z"/>
	<path d="M199.78,265.34c0.15-0.82,0.08-1.75-0.02-2.27C198.67,264.57,199.13,268.85,199.78,265.34z"/>
	<path d="M249.3,250.97c3.18-1.56-1.73-2.56-0.07-0.11C249.24,250.9,249.26,250.93,249.3,250.97z"/>
<path fill="#e6e6e6" d="m206.8 163.6c0-5.1 4.1-9.2 9.3-9.2s9.2 4.2 9.2 9.2-4.1 9.2-9.3 9.2-9.2-4.1-9.2-9.2zm17.3-.1c0-4.5-3.5-8.2-8.2-8.2s-8.2 3.7-8.2 8.3c0 4.5 3.5 8.2 8.2 8.2s8.2-3.7 8.2-8.3zm-13 0c0-2.8 2.1-5.1 5.1-5.1 1.9 0 2.9.6 3.9 1.5l-1.4 1.7c-.8-.7-1.5-1.1-2.5-1.1-1.7 0-2.8 1.4-2.8 3.1s1.1 3 2.8 3c1.1 0 1.7-.5 2.5-1.1l1.4 1.4c-1.1 1.1-2.1 1.7-4 1.7-2.9 0-5-2.3-5-5.1z"/><path fill="#e6e6e6" d="m226.6 154.7h3.4l4.2 13.2 4.4-13.3h2.6l4.4 13.3 4.2-13.2h3.3l-6.2 18h-2.7l-4.4-12.8-4.4 12.8h-2.7z"/><path fill="#e6e6e6" d="m252.8 165.8c0-3.9 3.1-7 7.2-7 4.2 0 7.2 3.2 7.2 7s-3.1 7-7.3 7c-4 0-7.1-3.1-7.1-7zm11.3 0c0-2.3-1.7-4.3-4.2-4.3s-4.1 2-4.1 4.3 1.7 4.3 4.1 4.3c2.7.1 4.2-1.9 4.2-4.3z"/><path fill="#e6e6e6" d="m269.5 159.1h3.1v3c.8-2 2.4-3.4 4.8-3.3v3.2h-.2c-2.7 0-4.6 1.7-4.6 5.4v5.1h-3.1z"/><path fill="#e6e6e6" d="m279.1 153.9h3.1v11.1l5.6-6h3.8l-5.4 5.5 5.5 8h-3.5l-4.1-5.8-1.9 2v3.9h-3.1z"/><path fill="#e6e6e6" d="m291.7 165.8c0-3.9 3.1-7 7.2-7 4.2 0 7.2 3.2 7.2 7s-3.1 7-7.3 7c-4 0-7.1-3.1-7.1-7zm11.3 0c0-2.3-1.7-4.3-4.2-4.3s-4.1 2-4.1 4.3 1.7 4.3 4.1 4.3c2.6.1 4.2-1.9 4.2-4.3z"/><path fill="#e6e6e6" d="m308.2 167.6v-8.6h3.1v7.6c0 2.1 1.1 3.3 2.9 3.3s3-1.3 3-3.3v-7.6h3.1v13.4h-3.1v-2.1c-.8 1.3-2.1 2.3-4.2 2.3-3.1.2-4.8-1.8-4.8-5z"/><path fill="#e6e6e6" d="m323.9 168.8v-7.1h-1.7v-2.6h1.7v-3.7h3.1v3.7h3.6v2.6h-3.6v6.6c0 1.2.6 1.7 1.7 1.7.7 0 1.3-.2 1.9-.5v2.5c-.8.5-1.7.7-2.8.7-2.3 0-3.9-.9-3.9-3.9z"/><path fill="#e6e6e6" d="m333.2 154.7h3.2v15h9.4v2.9h-12.5v-17.9z"/><path fill="#e6e6e6" d="m356 172.5v-1.7c-.9 1.1-2.3 2-4.4 2-2.6 0-4.8-1.4-4.8-4.2 0-3 2.3-4.4 5.4-4.4 1.7 0 2.6.2 3.7.5v-.2c0-1.9-1.2-2.9-3.3-2.9-1.5 0-2.6.3-3.9.8l-.8-2.5c1.5-.7 2.9-1.1 5.1-1.1 4 0 5.9 2.1 5.9 5.7v8zm.1-5.6c-.8-.3-1.9-.5-3.1-.5-2 0-3.1.8-3.1 2.1s1.1 2 2.6 2c2 0 3.5-1.1 3.5-2.9z"/><path fill="#e6e6e6" d="m364.9 170.5v2.1h-3.1v-18.7h3.1v7.4c1-1.4 2.4-2.5 4.5-2.5 3.2 0 6.3 2.5 6.3 7s-3.1 7-6.3 7c-2.1 0-3.5-1.1-4.5-2.3zm7.7-4.7c0-2.6-1.7-4.3-3.9-4.3s-3.9 1.7-3.9 4.4c0 2.6 1.8 4.3 3.9 4.3s3.9-1.7 3.9-4.4z"/><path fill="#e6e6e6" d="m376.9 170.8 1.4-2.1c1.4 1.1 3 1.7 4.4 1.7s2.1-.5 2.1-1.5-1.3-1.4-2.8-1.8c-.1 0-.2-.1-.2-.1-2-.6-4.2-1.4-4.2-4s2.1-4.1 4.8-4.1c1.7 0 3.5.6 5 1.5l-1.2 2.2c-1.3-.8-2.6-1.3-3.8-1.3s-1.9.5-1.9 1.4 1.3 1.4 2.8 1.8c.1 0 .2.1.2.1 2 .6 4.2 1.5 4.2 4 0 2.9-2.2 4.2-5 4.2-1.9 0-4-.7-5.8-2z"/><path fill="#e6e6e6" d="m505.6 163.6c0-5.1 4.1-9.2 9.3-9.2s9.2 4.2 9.2 9.2-4.1 9.2-9.3 9.2-9.2-4.1-9.2-9.2zm17.4-.1c0-4.5-3.5-8.2-8.2-8.2s-8.2 3.7-8.2 8.3c0 4.5 3.5 8.2 8.2 8.2s8.2-3.7 8.2-8.3zm-13.1 0c0-2.8 2.1-5.1 5.1-5.1 1.9 0 2.9.6 3.9 1.5l-1.4 1.7c-.8-.7-1.5-1.1-2.5-1.1-1.7 0-2.8 1.4-2.8 3.1s1.1 3 2.8 3c1.1 0 1.7-.5 2.5-1.1l1.4 1.4c-1.1 1.1-2.1 1.7-4 1.7-2.9 0-5-2.3-5-5.1z"/><path fill="#e6e6e6" d="m525.4 154.7h3.4l4.2 13.2 4.4-13.3h2.6l4.4 13.3 4.2-13.2h3.3l-6.2 18h-2.7l-4.4-12.8-4.4 12.8h-2.7z"/><path fill="#e6e6e6" d="m551.7 165.8c0-3.9 3.1-7 7.2-7 4.2 0 7.2 3.2 7.2 7s-3.1 7-7.3 7c-4.1 0-7.1-3.1-7.1-7zm11.2 0c0-2.3-1.7-4.3-4.2-4.3s-4.1 2-4.1 4.3 1.7 4.3 4.1 4.3c2.7.1 4.2-1.9 4.2-4.3z"/><path fill="#e6e6e6" d="m568.3 159.1h3.1v3c.8-2 2.4-3.4 4.8-3.3v3.2h-.2c-2.7 0-4.6 1.7-4.6 5.4v5.1h-3.1z"/><path fill="#e6e6e6" d="m577.9 153.9h3.1v11.1l5.6-6h3.8l-5.4 5.5 5.5 8h-3.5l-4.1-5.8-1.9 2v3.9h-3.1z"/><path fill="#e6e6e6" d="m590.6 165.8c0-3.9 3.1-7 7.2-7 4.2 0 7.2 3.2 7.2 7s-3.1 7-7.3 7c-4.1 0-7.1-3.1-7.1-7zm11.2 0c0-2.3-1.7-4.3-4.2-4.3s-4.1 2-4.1 4.3 1.7 4.3 4.1 4.3c2.6.1 4.2-1.9 4.2-4.3z"/><path fill="#e6e6e6" d="m607 167.6v-8.6h3.1v7.6c0 2.1 1.1 3.3 2.9 3.3s3-1.3 3-3.3v-7.6h3.1v13.4h-3.1v-2.1c-.8 1.3-2.1 2.3-4.2 2.3-3 .2-4.8-1.8-4.8-5z"/><path fill="#e6e6e6" d="m622.7 168.8v-7.1h-1.7v-2.6h1.7v-3.7h3.1v3.7h3.6v2.6h-3.6v6.6c0 1.2.6 1.7 1.7 1.7.7 0 1.3-.2 1.9-.5v2.5c-.8.5-1.7.7-2.8.7-2.3 0-3.9-.9-3.9-3.9z"/><path fill="#e6e6e6" d="m632 154.7h3.2v15h9.4v2.9h-12.6z"/><path fill="#e6e6e6" d="m654.8 172.5v-1.7c-.9 1.1-2.3 2-4.4 2-2.6 0-4.8-1.4-4.8-4.2 0-3 2.3-4.4 5.4-4.4 1.7 0 2.6.2 3.7.5v-.2c0-1.9-1.2-2.9-3.3-2.9-1.5 0-2.6.3-3.9.8l-.8-2.5c1.5-.7 2.9-1.1 5.1-1.1 4 0 5.9 2.1 5.9 5.7v8zm.1-5.6c-.8-.3-1.9-.5-3.1-.5-2 0-3.1.8-3.1 2.1s1.1 2 2.6 2c2 0 3.5-1.1 3.5-2.9z"/><path fill="#e6e6e6" d="m663.7 170.5v2.1h-3.1v-18.7h3.1v7.4c1-1.4 2.4-2.5 4.5-2.5 3.2 0 6.3 2.5 6.3 7s-3.1 7-6.3 7c-2.1 0-3.5-1.1-4.5-2.3zm7.8-4.7c0-2.6-1.7-4.3-3.9-4.3-2.1 0-3.9 1.7-3.9 4.4 0 2.6 1.8 4.3 3.9 4.3s3.9-1.7 3.9-4.4z"/><path fill="#e6e6e6" d="m675.8 170.8 1.4-2.1c1.4 1.1 3 1.7 4.4 1.7s2.1-.5 2.1-1.5-1.3-1.4-2.8-1.8c-.1 0-.2-.1-.2-.1-2-.6-4.2-1.4-4.2-4s2.1-4.1 4.8-4.1c1.7 0 3.5.6 5 1.5l-1.2 2.2c-1.3-.8-2.6-1.3-3.8-1.3s-1.9.5-1.9 1.4 1.3 1.4 2.8 1.8c.1 0 .2.1.2.1 2 .6 4.2 1.5 4.2 4 0 2.9-2.2 4.2-5 4.2-2 0-4.1-.7-5.8-2z"/><path fill="#e6e6e6" d="m61 298.6c0-5.1 4.1-9.2 9.3-9.2s9.2 4.2 9.2 9.2-4.1 9.2-9.3 9.2c-5.1 0-9.2-4.2-9.2-9.2zm17.4-.1c0-4.5-3.5-8.2-8.2-8.2s-8.2 3.7-8.2 8.3c0 4.5 3.5 8.2 8.2 8.2s8.2-3.7 8.2-8.3zm-13.1-.1c0-2.8 2.1-5.1 5.1-5.1 1.9 0 2.9.6 3.9 1.5l-1.4 1.7c-.8-.7-1.5-1.1-2.5-1.1-1.7 0-2.8 1.4-2.8 3.1s1.1 3 2.8 3c1.1 0 1.7-.5 2.5-1.1l1.4 1.4c-1.1 1.1-2.1 1.7-4 1.7-2.8.1-5-2.2-5-5.1z"/><path fill="#e6e6e6" d="m80.9 289.7h3.4l4.2 13.2 4.4-13.3h2.6l4.4 13.3 4.2-13.2h3.3l-6.2 18h-2.7l-4.4-12.8-4.4 12.8h-2.7z"/><path fill="#e6e6e6" d="m107.1 300.8c0-3.9 3.1-7 7.2-7s7.2 3.2 7.2 7-3.1 7-7.3 7c-4 0-7.1-3.1-7.1-7zm11.3 0c0-2.3-1.7-4.3-4.2-4.3s-4.1 2-4.1 4.3 1.7 4.3 4.1 4.3c2.6.1 4.2-1.9 4.2-4.3z"/><path fill="#e6e6e6" d="m123.7 294h3.1v3c.8-2 2.4-3.4 4.8-3.3v3.2h-.2c-2.7 0-4.6 1.7-4.6 5.4v5.1h-3.1z"/><path fill="#e6e6e6" d="m133.4 288.9h3.1v11.1l5.6-6h3.8l-5.4 5.5 5.5 8h-3.5l-4.1-5.8-1.9 1.9v3.9h-3.1z"/><path fill="#e6e6e6" d="m146 300.8c0-3.9 3.1-7 7.2-7s7.2 3.2 7.2 7-3.1 7-7.3 7c-4.1 0-7.1-3.1-7.1-7zm11.2 0c0-2.3-1.7-4.3-4.2-4.3s-4.1 2-4.1 4.3 1.7 4.3 4.1 4.3c2.6.1 4.2-1.9 4.2-4.3z"/><path fill="#e6e6e6" d="m162.4 302.6v-8.6h3.1v7.6c0 2.1 1.1 3.3 2.9 3.3s3-1.3 3-3.3v-7.6h3.1v13.4h-3.1v-2.1c-.8 1.3-2.1 2.3-4.2 2.3-3 .2-4.8-1.8-4.8-5z"/><path fill="#e6e6e6" d="m178.1 303.8v-7.1h-1.7v-2.7h1.7v-3.7h3.1v3.7h3.6v2.6h-3.6v6.6c0 1.2.6 1.7 1.7 1.7.7 0 1.3-.2 1.9-.5v2.5c-.8.5-1.7.7-2.8.7-2.3.1-3.9-.9-3.9-3.8z"/><path fill="#e6e6e6" d="m187.4 289.7h3.2v15h9.4v2.9h-12.5v-17.9z"/><path fill="#e6e6e6" d="m210.2 307.5v-1.7c-.9 1.1-2.3 2-4.4 2-2.6 0-4.8-1.4-4.8-4.2 0-3 2.3-4.4 5.4-4.4 1.7 0 2.6.2 3.7.5v-.2c0-1.9-1.2-2.9-3.3-2.9-1.5 0-2.6.3-3.9.8l-.8-2.5c1.5-.7 2.9-1.1 5.1-1.1 4 0 5.9 2.1 5.9 5.7v8zm.1-5.6c-.8-.3-1.9-.5-3.1-.5-2 0-3.1.8-3.1 2.1s1.1 2 2.6 2c2 0 3.5-1.1 3.5-2.9z"/><path fill="#e6e6e6" d="m219.2 305.5v2.1h-3.1v-18.7h3.1v7.4c1-1.4 2.4-2.5 4.5-2.5 3.2 0 6.3 2.5 6.3 7s-3.1 7-6.3 7c-2.2 0-3.6-1.1-4.5-2.3zm7.7-4.7c0-2.6-1.7-4.3-3.9-4.3s-3.9 1.7-3.9 4.4c0 2.6 1.8 4.3 3.9 4.3s3.9-1.7 3.9-4.4z"/><path fill="#e6e6e6" d="m231.2 305.8 1.4-2.1c1.4 1.1 3 1.7 4.4 1.7s2.1-.5 2.1-1.5-1.3-1.4-2.8-1.8c-.1 0-.2-.1-.2-.1-2-.6-4.2-1.4-4.2-4s2.1-4.1 4.8-4.1c1.7 0 3.5.6 5 1.5l-1.2 2.2c-1.3-.8-2.6-1.3-3.8-1.3s-1.9.5-1.9 1.4 1.3 1.4 2.8 1.8c.1 0 .2.1.2.1 2 .6 4.2 1.5 4.2 4 0 2.9-2.2 4.2-5 4.2-2 0-4.1-.7-5.8-2z"/><path fill="#e6e6e6" d="m360.6 298.6c0-5.1 4.1-9.2 9.3-9.2s9.2 4.2 9.2 9.2-4.1 9.2-9.3 9.2-9.2-4.2-9.2-9.2zm17.4-.1c0-4.5-3.5-8.2-8.2-8.2s-8.2 3.7-8.2 8.3c0 4.5 3.5 8.2 8.2 8.2s8.2-3.7 8.2-8.3zm-13.1-.1c0-2.8 2.1-5.1 5.1-5.1 1.9 0 2.9.6 3.9 1.5l-1.4 1.7c-.8-.7-1.5-1.1-2.5-1.1-1.7 0-2.8 1.4-2.8 3.1s1.1 3 2.8 3c1.1 0 1.7-.5 2.5-1.1l1.4 1.4c-1.1 1.1-2.1 1.7-4 1.7-2.8.1-5-2.2-5-5.1z"/><path fill="#e6e6e6" d="m380.5 289.7h3.4l4.2 13.2 4.4-13.3h2.6l4.4 13.3 4.2-13.2h3.3l-6.2 18h-2.7l-4.4-12.8-4.4 12.8h-2.7z"/><path fill="#e6e6e6" d="m406.7 300.8c0-3.9 3.1-7 7.2-7 4.2 0 7.2 3.2 7.2 7s-3.1 7-7.3 7c-4.1 0-7.1-3.1-7.1-7zm11.3 0c0-2.3-1.7-4.3-4.2-4.3s-4.1 2-4.1 4.3 1.7 4.3 4.1 4.3c2.7.1 4.2-1.9 4.2-4.3z"/><path fill="#e6e6e6" d="m423.3 294h3.1v3c.8-2 2.4-3.4 4.8-3.3v3.2h-.2c-2.7 0-4.6 1.7-4.6 5.4v5.1h-3.1z"/><path fill="#e6e6e6" d="m433 288.9h3.1v11.1l5.6-6h3.8l-5.4 5.5 5.5 8h-3.5l-4.1-5.8-1.9 2v3.9h-3.1z"/><path fill="#e6e6e6" d="m445.6 300.8c0-3.9 3.1-7 7.2-7 4.2 0 7.2 3.2 7.2 7s-3.1 7-7.3 7c-4.1 0-7.1-3.1-7.1-7zm11.3 0c0-2.3-1.7-4.3-4.2-4.3s-4.1 2-4.1 4.3 1.7 4.3 4.1 4.3c2.6.1 4.2-1.9 4.2-4.3z"/><path fill="#e6e6e6" d="m462.1 302.6v-8.6h3.1v7.6c0 2.1 1.1 3.3 2.9 3.3s3-1.3 3-3.3v-7.6h3.1v13.4h-3.1v-2.1c-.8 1.3-2.1 2.3-4.2 2.3-3.1.2-4.8-1.8-4.8-5z"/><path fill="#e6e6e6" d="m477.8 303.8v-7.1h-1.8v-2.7h1.7v-3.7h3.1v3.7h3.6v2.6h-3.6v6.6c0 1.2.6 1.7 1.7 1.7.7 0 1.3-.2 1.9-.5v2.5c-.8.5-1.7.7-2.8.7-2.2.1-3.8-.9-3.8-3.8z"/><path fill="#e6e6e6" d="m487.1 289.7h3.2v15h9.4v2.9h-12.5v-17.9z"/><path fill="#e6e6e6" d="m509.9 307.5v-1.7c-.9 1.1-2.3 2-4.4 2-2.6 0-4.8-1.4-4.8-4.2 0-3 2.3-4.4 5.4-4.4 1.7 0 2.6.2 3.7.5v-.2c0-1.9-1.2-2.9-3.3-2.9-1.5 0-2.6.3-3.9.8l-.8-2.5c1.5-.7 2.9-1.1 5.1-1.1 4 0 5.9 2.1 5.9 5.7v8zm.1-5.6c-.8-.3-1.9-.5-3.1-.5-2 0-3.1.8-3.1 2.1s1.1 2 2.6 2c2 0 3.5-1.1 3.5-2.9z"/><path fill="#e6e6e6" d="m518.8 305.5v2.1h-3.1v-18.7h3.1v7.4c1-1.4 2.4-2.5 4.5-2.5 3.2 0 6.3 2.5 6.3 7s-3.1 7-6.3 7c-2.2 0-3.5-1.1-4.5-2.3zm7.7-4.7c0-2.6-1.7-4.3-3.9-4.3s-3.9 1.7-3.9 4.4c0 2.6 1.8 4.3 3.9 4.3s3.9-1.7 3.9-4.4z"/><path fill="#e6e6e6" d="m530.8 305.8 1.4-2.1c1.4 1.1 3 1.7 4.4 1.7s2.1-.5 2.1-1.5-1.3-1.4-2.8-1.8c-.1 0-.2-.1-.2-.1-2-.6-4.2-1.4-4.2-4s2.1-4.1 4.8-4.1c1.7 0 3.5.6 5 1.5l-1.2 2.2c-1.3-.8-2.6-1.3-3.8-1.3s-1.9.5-1.9 1.4 1.3 1.4 2.8 1.8c.1 0 .2.1.2.1 2 .6 4.2 1.5 4.2 4 0 2.9-2.2 4.2-5 4.2-1.9 0-4.1-.7-5.8-2z"/><path fill="#e6e6e6" d="m659.5 298.6c0-5.1 4.1-9.2 9.3-9.2s9.2 4.2 9.2 9.2-4.1 9.2-9.3 9.2-9.2-4.2-9.2-9.2zm17.3-.1c0-4.5-3.5-8.2-8.2-8.2s-8.2 3.7-8.2 8.3c0 4.5 3.5 8.2 8.2 8.2 4.8 0 8.2-3.7 8.2-8.3zm-13-.1c0-2.8 2.1-5.1 5.1-5.1 1.9 0 2.9.6 3.9 1.5l-1.4 1.7c-.8-.7-1.5-1.1-2.5-1.1-1.7 0-2.8 1.4-2.8 3.1s1.1 3 2.8 3c1.1 0 1.7-.5 2.5-1.1l1.4 1.4c-1.1 1.1-2.1 1.7-4 1.7-2.9.1-5-2.2-5-5.1z"/><path fill="#e6e6e6" d="m679.3 289.7h3.4l4.2 13.2 4.4-13.3h2.6l4.4 13.3 4.2-13.2h3.3l-6.2 18h-2.6l-4.4-12.8-4.4 12.8h-2.7z"/><path fill="#e6e6e6" d="m705.5 300.8c0-3.9 3.1-7 7.2-7 4.2 0 7.2 3.2 7.2 7s-3.1 7-7.3 7c-4 0-7.1-3.1-7.1-7zm11.3 0c0-2.3-1.7-4.3-4.2-4.3s-4.1 2-4.1 4.3 1.7 4.3 4.1 4.3c2.7.1 4.2-1.9 4.2-4.3z"/><path fill="#e6e6e6" d="m722.1 294h3.1v3c.8-2 2.4-3.4 4.8-3.3v3.2h-.2c-2.7 0-4.6 1.7-4.6 5.4v5.1h-3.1z"/><path fill="#e6e6e6" d="m731.8 288.9h3.1v11.1l5.6-6h3.8l-5.4 5.5 5.5 8h-3.5l-4.1-5.8-1.9 2v3.9h-3.1z"/><path fill="#e6e6e6" d="m744.4 300.8c0-3.9 3.1-7 7.2-7 4.2 0 7.2 3.2 7.2 7s-3.1 7-7.3 7c-4.1 0-7.1-3.1-7.1-7zm11.3 0c0-2.3-1.7-4.3-4.2-4.3s-4.1 2-4.1 4.3 1.7 4.3 4.1 4.3c2.6.1 4.2-1.9 4.2-4.3z"/><path fill="#e6e6e6" d="m760.9 302.6v-8.6h3.1v7.6c0 2.1 1.1 3.3 2.9 3.3s3-1.3 3-3.3v-7.6h3.1v13.4h-3.1v-2.1c-.8 1.3-2.1 2.3-4.2 2.3-3.1.2-4.8-1.8-4.8-5z"/><path fill="#e6e6e6" d="m776.6 303.8v-7.1h-1.7v-2.7h1.7v-3.7h3.1v3.7h3.6v2.6h-3.6v6.6c0 1.2.6 1.7 1.7 1.7.7 0 1.3-.2 1.9-.5v2.5c-.8.5-1.7.7-2.8.7-2.3.1-3.9-.9-3.9-3.8z"/><path fill="#e6e6e6" d="m785.9 289.7h3.2v15h9.4v2.9h-12.5v-17.9z"/><path fill="#e6e6e6" d="m808.7 307.5v-1.7c-.9 1.1-2.3 2-4.4 2-2.6 0-4.8-1.4-4.8-4.2 0-3 2.3-4.4 5.4-4.4 1.7 0 2.6.2 3.7.5v-.2c0-1.9-1.2-2.9-3.3-2.9-1.5 0-2.6.3-3.9.8l-.8-2.5c1.5-.7 2.9-1.1 5.1-1.1 4 0 5.9 2.1 5.9 5.7v8zm.1-5.6c-.8-.3-1.9-.5-3.1-.5-2 0-3.1.8-3.1 2.1s1.1 2 2.6 2c2 0 3.5-1.1 3.5-2.9z"/><path fill="#e6e6e6" d="m817.6 305.5v2.1h-3.1v-18.7h3.1v7.4c1-1.4 2.4-2.5 4.5-2.5 3.2 0 6.3 2.5 6.3 7s-3.1 7-6.3 7c-2.1 0-3.5-1.1-4.5-2.3zm7.7-4.7c0-2.6-1.7-4.3-3.9-4.3-2.1 0-3.9 1.7-3.9 4.4 0 2.6 1.8 4.3 3.9 4.3 2.2 0 3.9-1.7 3.9-4.4z"/><path fill="#e6e6e6" d="m829.6 305.8 1.4-2.1c1.4 1.1 3 1.7 4.4 1.7s2.1-.5 2.1-1.5-1.3-1.4-2.8-1.8c-.1 0-.2-.1-.2-.1-2-.6-4.2-1.4-4.2-4s2.1-4.1 4.8-4.1c1.7 0 3.5.6 5 1.5l-1.2 2.2c-1.3-.8-2.6-1.3-3.8-1.3s-1.9.5-1.9 1.4 1.3 1.4 2.8 1.8c.1 0 .2.1.2.1 2 .6 4.2 1.5 4.2 4 0 2.9-2.2 4.2-5 4.2-1.9 0-4-.7-5.8-2z"/><path fill="#e6e6e6" d="m206.3 434.2c0-5.1 4.1-9.2 9.3-9.2s9.2 4.2 9.2 9.2-4.1 9.2-9.3 9.2-9.2-4.1-9.2-9.2zm17.4-.1c0-4.5-3.5-8.2-8.2-8.2s-8.2 3.7-8.2 8.3c0 4.5 3.5 8.2 8.2 8.2s8.2-3.7 8.2-8.3zm-13.1-.1c0-2.8 2.1-5.1 5.1-5.1 1.9 0 2.9.6 3.9 1.5l-1.4 1.7c-.8-.7-1.5-1.1-2.5-1.1-1.7 0-2.8 1.4-2.8 3.1s1.1 3 2.8 3c1.1 0 1.7-.5 2.5-1.1l1.4 1.4c-1.1 1.1-2.1 1.7-4 1.7-2.9.1-5-2.2-5-5.1z"/><path fill="#e6e6e6" d="m226.1 425.3h3.4l4.2 13.2 4.4-13.3h2.6l4.4 13.3 4.2-13.2h3.3l-6.2 18h-2.7l-4.4-12.8-4.4 12.8h-2.7z"/><path fill="#e6e6e6" d="m252.4 436.4c0-3.9 3.1-7 7.2-7 4.2 0 7.2 3.2 7.2 7s-3.1 7-7.3 7c-4.1 0-7.1-3.1-7.1-7zm11.2 0c0-2.3-1.7-4.3-4.2-4.3s-4.1 2-4.1 4.3 1.7 4.3 4.1 4.3c2.7.1 4.2-1.9 4.2-4.3z"/><path fill="#e6e6e6" d="m269 429.7h3.1v3c.8-2 2.4-3.4 4.8-3.3v3.2h-.2c-2.7 0-4.6 1.7-4.6 5.4v5.1h-3.1z"/><path fill="#e6e6e6" d="m278.6 424.5h3.1v11.1l5.6-6h3.8l-5.4 5.5 5.5 8h-3.5l-4.1-5.8-1.9 2v3.9h-3.1z"/><path fill="#e6e6e6" d="m291.3 436.4c0-3.9 3.1-7 7.2-7 4.2 0 7.2 3.2 7.2 7s-3.1 7-7.3 7c-4.1 0-7.1-3.1-7.1-7zm11.2 0c0-2.3-1.7-4.3-4.2-4.3s-4.1 2-4.1 4.3 1.7 4.3 4.1 4.3c2.6.1 4.2-1.9 4.2-4.3z"/><path fill="#e6e6e6" d="m307.7 438.2v-8.6h3.1v7.6c0 2.1 1.1 3.3 2.9 3.3s3-1.3 3-3.3v-7.6h3.1v13.4h-3.1v-2.1c-.8 1.3-2.1 2.3-4.2 2.3-3 .2-4.8-1.8-4.8-5z"/><path fill="#e6e6e6" d="m323.4 439.4v-7.1h-1.7v-2.6h1.7v-3.7h3.1v3.7h3.6v2.6h-3.6v6.6c0 1.2.6 1.7 1.7 1.7.7 0 1.3-.2 1.9-.5v2.5c-.8.5-1.7.7-2.8.7-2.3 0-3.9-.9-3.9-3.9z"/><path fill="#e6e6e6" d="m332.7 425.3h3.2v15h9.4v2.9h-12.5v-17.9z"/><path fill="#e6e6e6" d="m355.5 443.1v-1.7c-.9 1.1-2.3 2-4.4 2-2.6 0-4.8-1.4-4.8-4.2 0-3 2.3-4.4 5.4-4.4 1.7 0 2.6.2 3.7.5v-.2c0-1.9-1.2-2.9-3.3-2.9-1.5 0-2.6.3-3.9.8l-.8-2.5c1.5-.7 2.9-1.1 5.1-1.1 4 0 5.9 2.1 5.9 5.7v8zm.1-5.6c-.8-.3-1.9-.5-3.1-.5-2 0-3.1.8-3.1 2.1s1.1 2 2.6 2c2 0 3.5-1.1 3.5-2.9z"/><path fill="#e6e6e6" d="m364.4 441.1v2.1h-3.1v-18.7h3.1v7.4c1-1.4 2.4-2.5 4.5-2.5 3.2 0 6.3 2.5 6.3 7s-3.1 7-6.3 7c-2.1 0-3.5-1.1-4.5-2.3zm7.7-4.7c0-2.6-1.7-4.3-3.9-4.3-2.1 0-3.9 1.7-3.9 4.4 0 2.6 1.8 4.3 3.9 4.3 2.2 0 3.9-1.7 3.9-4.4z"/><path fill="#e6e6e6" d="m376.5 441.4 1.4-2.1c1.4 1.1 3 1.7 4.4 1.7s2.1-.5 2.1-1.5-1.3-1.4-2.8-1.8c-.1 0-.2-.1-.2-.1-2-.6-4.2-1.4-4.2-4s2.1-4.1 4.8-4.1c1.7 0 3.5.6 5 1.5l-1.2 2.2c-1.3-.8-2.6-1.3-3.8-1.3s-1.9.5-1.9 1.4 1.3 1.4 2.8 1.8c.1 0 .2.1.2.1 2 .6 4.2 1.5 4.2 4 0 2.9-2.2 4.2-5 4.2-2 0-4.1-.7-5.8-2z"/><path fill="#e6e6e6" d="m505.1 434.2c0-5.1 4.1-9.2 9.3-9.2s9.2 4.2 9.2 9.2-4.1 9.2-9.3 9.2-9.2-4.1-9.2-9.2zm17.4-.1c0-4.5-3.5-8.2-8.2-8.2s-8.2 3.7-8.2 8.3c0 4.5 3.5 8.2 8.2 8.2s8.2-3.7 8.2-8.3zm-13.1-.1c0-2.8 2.1-5.1 5.1-5.1 1.9 0 2.9.6 3.9 1.5l-1.4 1.7c-.8-.7-1.5-1.1-2.5-1.1-1.7 0-2.8 1.4-2.8 3.1s1.1 3 2.8 3c1.1 0 1.7-.5 2.5-1.1l1.4 1.4c-1.1 1.1-2.1 1.7-4 1.7-2.9.1-5-2.2-5-5.1z"/><path fill="#e6e6e6" d="m525 425.3h3.4l4.2 13.2 4.4-13.3h2.6l4.4 13.3 4.2-13.2h3.3l-6.2 18h-2.7l-4.4-12.8-4.4 12.8h-2.7z"/><path fill="#e6e6e6" d="m551.2 436.4c0-3.9 3.1-7 7.2-7 4.2 0 7.2 3.2 7.2 7s-3.1 7-7.3 7c-4.1 0-7.1-3.1-7.1-7zm11.2 0c0-2.3-1.7-4.3-4.2-4.3s-4.1 2-4.1 4.3 1.7 4.3 4.1 4.3c2.7.1 4.2-1.9 4.2-4.3z"/><path fill="#e6e6e6" d="m567.8 429.7h3.1v3c.8-2 2.4-3.4 4.8-3.3v3.2h-.2c-2.7 0-4.6 1.7-4.6 5.4v5.1h-3.1z"/><path fill="#e6e6e6" d="m577.5 424.5h3.1v11.1l5.6-6h3.8l-5.4 5.5 5.5 8h-3.5l-4.1-5.8-1.9 2v3.9h-3.1z"/><path fill="#e6e6e6" d="m590.1 436.4c0-3.9 3.1-7 7.2-7 4.2 0 7.2 3.2 7.2 7s-3.1 7-7.3 7c-4.1 0-7.1-3.1-7.1-7zm11.2 0c0-2.3-1.7-4.3-4.2-4.3s-4.1 2-4.1 4.3 1.7 4.3 4.1 4.3c2.6.1 4.2-1.9 4.2-4.3z"/><path fill="#e6e6e6" d="m606.5 438.2v-8.6h3.1v7.6c0 2.1 1.1 3.3 2.9 3.3s3-1.3 3-3.3v-7.6h3.1v13.4h-3.1v-2.1c-.8 1.3-2.1 2.3-4.2 2.3-3 .2-4.8-1.8-4.8-5z"/><path fill="#e6e6e6" d="m622.2 439.4v-7.1h-1.7v-2.6h1.7v-3.7h3.1v3.7h3.6v2.6h-3.6v6.6c0 1.2.6 1.7 1.7 1.7.7 0 1.3-.2 1.9-.5v2.5c-.8.5-1.7.7-2.8.7-2.3 0-3.9-.9-3.9-3.9z"/><path fill="#e6e6e6" d="m631.5 425.3h3.2v15h9.4v2.9h-12.5v-17.9z"/><path fill="#e6e6e6" d="m654.3 443.1v-1.7c-.9 1.1-2.3 2-4.4 2-2.6 0-4.8-1.4-4.8-4.2 0-3 2.3-4.4 5.4-4.4 1.7 0 2.6.2 3.7.5v-.2c0-1.9-1.2-2.9-3.3-2.9-1.5 0-2.6.3-3.9.8l-.8-2.5c1.5-.7 2.9-1.1 5.1-1.1 4 0 5.9 2.1 5.9 5.7v8zm.1-5.6c-.8-.3-1.9-.5-3.1-.5-2 0-3.1.8-3.1 2.1s1.1 2 2.6 2c2 0 3.5-1.1 3.5-2.9z"/><path fill="#e6e6e6" d="m663.3 441.1v2.1h-3.1v-18.7h3.1v7.4c1-1.4 2.4-2.5 4.5-2.5 3.2 0 6.3 2.5 6.3 7s-3.1 7-6.3 7c-2.2 0-3.6-1.1-4.5-2.3zm7.7-4.7c0-2.6-1.7-4.3-3.9-4.3s-3.9 1.7-3.9 4.4c0 2.6 1.8 4.3 3.9 4.3s3.9-1.7 3.9-4.4z"/><path fill="#e6e6e6" d="m675.3 441.4 1.4-2.1c1.4 1.1 3 1.7 4.4 1.7s2.1-.5 2.1-1.5-1.3-1.4-2.8-1.8c-.1 0-.2-.1-.2-.1-2-.6-4.2-1.4-4.2-4s2.1-4.1 4.8-4.1c1.7 0 3.5.6 5 1.5l-1.2 2.2c-1.3-.8-2.6-1.3-3.8-1.3s-1.9.5-1.9 1.4 1.3 1.4 2.8 1.8c.1 0 .2.1.2.1 2 .6 4.2 1.5 4.2 4 0 2.9-2.2 4.2-5 4.2-2 0-4.1-.7-5.8-2z"/></g>
</svg>
