<?xml version="1.0" encoding="utf-8"?>
<!-- Generator: Adobe Illustrator 23.0.1, SVG Export Plug-In . SVG Version: 6.00 Build 0)  -->
<svg version="1.2" baseProfile="tiny" id="Layer_1" xmlns="http://www.w3.org/2000/svg" xmlns:xlink="http://www.w3.org/1999/xlink"
	 x="0px" y="0px" viewBox="0 0 900 600" xml:space="preserve">
<g>
	<path d="M76.4,299.13c-0.11-0.08-27.6-22.72-28.85-23.88c-14.37-13.33-25.57-33.05-25.33-35.57c0.37-4.04-0.3-8.06,0-12.1
		c0.53-7.03,4.03-13.44,4.55-20.47c0-0.21,0-0.31,0.1-0.41c4.92-10.99,3.71-24.73,13.23-37.22c6.17-8.1,4.16-16.51,10.96-24.4
		c-0.1-3.31-0.32-6.31-0.1-9.31c0.5-6.93,7.55-14.79,13.75-15.82c6.31-1.04,12.52-2.33,18.71-3.83c1.24-0.3,2.27,0.21,3.52,0
		c5.62-7.67,12.1-10.15,14.37-13.34c2.58-3.62,3.72-7.96,5.69-11.68c-2.07-5.07-1.14-10.55-3.41-14.58c-0.1-1.96,0.83-3,0.41-4.45
		c-1.53-5.28-2.97-10.56-5.27-15.51c-4.93-10.61-0.91-20.35-1.03-26.68c-0.22-2.37,3.26-3.18,3.1-4.76
		c-0.31-1.14-2.17-0.52-2.58-2.07c1.24-2.17,4.14-2.58,5.38-4.76c3.02,2.01,1.37-1.75,3.31-2.07c1.24-0.1,1.55,1.24,2.58,1.03
		c4.03-3.93,4.03-3.93,13.03-5.89c1.55-0.62,1.76-3.21,3.83-2.58c0.62,0.83-0.62,1.65,0.31,2.27c2.33,0.64,5.38-2.27,9.41-1.03
		c8.66,2.65,13.07-4.68,14.99-1.55c0.41,1.03-0.93,1.55-0.62,2.69c2.07-0.83,4.34,0.09,6.41-0.72c2.16-0.85,3.62,2.27,5.58,0.93
		c1.45,1.03,1.24,2.58,2.17,3.62c1.45-1.24,1.45-3.72,3.83-4.45c0.52,1.96,2.48,2.07,3.83,2.79c-0.1,1.55-1.86,1.65-1.96,3.1
		c3.18,0,6.02-4.25,7.96,0.1c0.52,2.17-1.34,4.24,0.62,6.1c-0.52,0.62-1.03,1.24-1.55,1.76c0.56,2.78,2.22,0.35-10.34,5.89
		c0.22,8.72,8.3,15.08,2.27,19.65c1.96,5.48,5.48,9.93,7.03,14.06c0.1,3.41-2.27,3.83-3.1,5.17c-0.31,1.65,1.03,2.9,0.41,4.55
		c-0.1,1.03-1.76,0.93-1.86,2.17c2.69,3,0.93,5.79-0.62,8.69c5.02,8.46-3.76,14.2-11.06,10.65c0.6-0.38,13,0.15,10.24-7.34
		c-1.54-4.19-0.44-5.3,0.83-9.1c-2.75-4.4-3.46,1.79-6.51-0.83c1.76-2.69,6-1.76,7.13-5.07c-0.31-1.14-0.62-2.38-0.93-3.62
		c-4.03,0.93-5.17,0.21-4.55-3.1c1.14-0.41,1.34,1.14,2.69,1.03c1.14-1.03,3,0.1,4.55-0.62c3.44-6.56-9.4-13.5-5.48-18.3
		c4.03-4.94-2.35-7.79-2.9-17.89c-1.04-0.38-2.51-0.08-2.58-1.64c-0.66,0.39,0.13,0.09-7.34,2.47c0.1,0.72,0.41,0.83,0.83,0.83
		c2.34,0-1.11,3.7-7.03,1.86c-1.4,6.64-17.48,14.28-18.09,27.4c0.31,1.76,1.96,2.79,2.9,4.24c-1.76,0.83-2.69-1.45-4.14-0.72
		c-1.03,0.41,0.41,2.17-1.24,2.38c-2.48-2.17-3-5.58-5.17-8.38c-1.84-0.41-3.27-0.84-4.36-1.22c1.26,0.9,2.9,2.28,4.77,4.32
		c-1.76,0.21-3.1,0.62-2.9,2.17c0.62,2.79,4.34,1.14,4.65,4.24c-1.55,2.27-3.62,1.96-5.89,1.34c0-3.1-1.14-6,0.52-8.58
		c-0.93-1.03-1.55-1.96-3-2.27c-2.32,5.79,2.72,3.65,0.62,9.72c-0.83-1.86-0.72-4.03-2.69-4.86c-3.03,1.3,0.44,2.56,0.31,4.76
		c-1.76-0.93-3-1.96-3.83-4.03c2.67-1.85,2.9-5.34,4.43-8.32c-0.47-0.14-0.94-0.27-1.43-0.36c-3.4,5.57-7.09,9.57-1.34,13.86
		c6.11,4.56,6.02,5.43,10.34,6.51c1.14,0.21,1.34-1.65,2.58-1.24c0.83,1.55-0.1,2.38-1.14,3.21c-4.59,1.15-8.11-5.33-11.58-2.69
		c-0.41,3,0.38,6.28-1.45,9.1c-1.26,1.95-1.86,4.03-0.62,6c-5.87,7.39,0.78,5.11-14.37,20.78c1.85,1.85,11,4.54,19.13,10.55
		c2.66,1.96,5.44,3.9,8.72,4.94c0.2,0.49,0.4,0.97,0.8,1.26c13.69,10.05,9.82,5.26,23.16,10.34c3.52,1.34,6.82,0.52,10.13-0.62
		c0.93-3,0.74-6,1.03-9c0.6-6-5.09-9.16-6.31-15.1c0-0.31-0.62-0.41-0.93-0.62c-2.07,1.55,0,3.83-0.93,5.69
		c-4.14-4.55-2.48-17.78,2.79-22.54c1.14,2.69-1.45,4.34-1.55,6.51c-0.35,7.78-2.39,6.88,7.03,12.2c5.08,2.86,9.22,0.25,14.79,9.41
		c4.36,7.16,2.62,13.02,3.93,16.85c5.43,15.94,14.17,26.55,4.03,41.67c0.18,0.13,12.27,36.76,15.2,56.56
		c-0.62,0.93-1.14,1.76-1.86,2.69c10.24-1.08,8.79-6.07,20.68-9.82c7.94,1.8,7,4.65,10.24,5.27c22.84,4.43,23.23,0.71,29.99,3.52
		c5.08,2.11,6.53-2.77,15.1-1.24c5.63,1.01,28.83,5.6,37.95,8.69c10.28,3.48,8.35,14.12,9.31,16.03
		c29.38,11.75,17.71,14.39,27.5,47.15c8.77,29.34,5.02,82.65,13.86,91.4c21.13,20.93,42.88,9.74,56.97,6.31
		c6.82-1.66,12.69,4.25,11.27,11.06c-0.25,1.21-0.5,1.06-2.2,4.47c5.85,0-11.2,17.2-15.89,21.18c-11.03,9.35-11.61,4.64-12.41,7.03
		c0.72,0.52,1.86-0.31,2.9,1.03c2.07,4.65,1.65,10.34,2.79,15.1c-1.03,2.27-2.79,3-3.93,4.76c3.52,1.65,5.38,4.76,7.65,7.34
		c0.66,9.97-8.25,10.55-16.75,18.92c-1.29,1.27-16.34,10.68-18.61,11.68c-1.26,8.21-5.87,11.68-9.93,17.89
		c-0.61,0.94-1.86,1.45-3.62,1.45c-1.86-1.76-4.96-1.66-7.34-3.31c-2.69-1.86-2.58-5.17-4.55-7.34c2.19-8.15,10.43-6.21-2.58-8.38
		c-0.83,1.55-2.38,1.64-3.93,1.76c-9.03,0.71-5.3,5.27-20.16,3.62c-5.52-8.4-5.77-26.51-8.69-28.85
		c-8.54,16.01-11.43,19.66-16.96,17.99c-2.24-3.23-7.86-7.83-3-13.65c4.42-5.29,7.44-11.58,11.37-17.06
		c-0.98-1.34-52.32-20-52.32-68.04c-3.41-1.24-6.62-2.38-10.44-3.72c1.14,3.31,1.96,6,2.79,8.58c-1.47,3.2-17.65,16.8-21.51,19.96
		c-12.68,10.39-11.61,12.65-27.19,27.3c-13.97,13.12-9.9,11.02-16.13,17.37c-9.79,9.99-4.92,7.2-7.65,9.93
		c-3.41-0.21-17.16-4.96-19.34-6.62c0.41-6.41,2.27-12.72,3.21-19.03c3.56-2.13,10.78-10.25,15.3-13.34
		c13.66-9.33,18.42-18.09,22.95-17.27c-2.48,1.65-4.34,3.83-6.2,5.89c-9.89,10.99-17,14.08-17.68,15.3
		c-3.49,6.28-11.03,8.98-10.86,11.58c2.63,3.25,17.96,9.14,0.52,3.1c-3.1,3.21-4.24,7.75-3.1,11.79c4.76,2.69,9.72,4.34,14.79,6.41
		c-0.83-4.86,1.14-9.31,0.21-14.17c1.03,0.1,1.45-1.24,2.69-0.41c1.34,2.17-0.21,4.65,0.1,7.55c2.38-2.38,4.86-4.14,6.51-6.62
		c6.96-10.43,18.99-17.8,25.23-26.47c9.6-13.34,25.77-21.33,35.78-32.36c-2.48-2.69-3.1-6.1-4.14-9.31
		c-8.66-1.31-13.61-2.55-15.2-0.1c-1.79,2.77-4.66,3.61-7.03,5.27c-3.22,2.26-6.41,4.86-10.13,6.72
		c-8.38-4.29-14.63-3.82-22.64-7.13c-52.74-21.82-48.31-18.24-59.35-24.4c3.01-0.55,2.49,1.67,11.68-38.36
		c-2.9,0.93-5.17,1.65-7.03,2.27c-1.14,0.83-0.83,2.27-2.07,2.48c-1.8-1.44,4.12-2.96-11.89,0.93c-2.79,11.48-6.31,22.54-9.51,34.43
		C41.32,418.11,41.07,406.08,60,415.55c2.11,5.91,1.79,1.5-1.65,16.65c6.34-3.41,14.78-8.67,24.4-12.51
		c23.66-9.44,22.41-14.59,28.02-12.3c0.93-2.48,1.03-2.68,3.21-1.86c38.12,14.39,39.54,14.65,55.63,23.47
		c6.75,3.7,13.48,4.25,13.34,6.82c-2.91,2.46-9.1-3.85-55.94-22.64c-17.54-7.04-10.36-5.59-16.85-2.79
		c-15.86,6.82-11.23,8.23-22.33,12.61c-8.38,3.3-16.55,7.12-24.3,11.58c-3.93,2.27-8.48,2.9-12.72,4.55
		c-4.86-3-10.75-3.62-14.58-7.96c0.1-1.14-0.1-2.07,0.93-2.58c14.98,6.59,16.71,8.74,18.3,3.52c6.69-22.03,6.54-9.25-9.51-21.2
		c-2.79,5.58-2.38,12.2-6.82,16.54c0.72-2.58,2.58-4.86,1.76-7.44c-0.83-0.41-0.52,0.72-1.24,0.31c0.41-4.76,1.55-7.55,4.55-11.48
		c0.1,0.01,50.07-22.91,56.66-24.82c9.99-32.79,12.33-33.75,6.31-31.64c-11.33,3.97-22.63-2.59-24.71-14.89
		c-3.22-19.03-3.58-24.23,1.24-29.05C81.47,305.13,79.61,301.6,76.4,299.13z M101.73,50.36c-1.26,0.68-1.68,1.28-0.93,2.48
		C101.94,52.43,101.94,51.6,101.73,50.36z M103.49,30.3c-0.83,0.31-1.24,0.83-0.72,1.86C103.49,31.56,104.09,31.28,103.49,30.3z
		 M104.22,44.46c-1.76,0.21-1.86,1.34-1.76,2.69C103.91,46.84,104.73,46.12,104.22,44.46z M104.53,60.7
		c-0.93,0.69-1.13,1.52-0.31,2.58C105.04,62.45,105.15,61.73,104.53,60.7z M166.67,15.62c1.34,0,1.86-0.52,2.17-1.55
		C167.29,13.44,167.19,14.58,166.67,15.62z M164.08,29.47c4.21-1.58,11.17-4,11.17-8.08C169.15,28.46,160.39,26.96,164.08,29.47z
		 M160.36,20.06c3.42-0.65,2.18-3.34,1.97-3.27c-0.5,0.17-0.53,0.24-0.97,0.41c-2.39,1.13-0.58-2.81-3.79-2.01
		C152.78,16.4,160.36,15.12,160.36,20.06z M157.05,27.51c-1.96-1.45-3-1.34-6.82,0.83C152.92,28.85,154.78,27.61,157.05,27.51z
		 M145.27,14.06c0,1.46,1.46,1.82,1.96-0.21C146.3,13.44,145.68,13.44,145.27,14.06z M146.31,32.44c0.82-0.58,1.33-1.49,1.86-2.45
		C145.13,31.35,143.86,34.19,146.31,32.44z M145.17,29.88c0.83-1.86-1.03-2.07-1.55-3.1C142.98,28.39,144.92,28.64,145.17,29.88z
		 M143.3,36.4c-2.32,1.5-3.59,2.01-4.14,4.76C144.21,36.45,144.19,37.29,143.3,36.4z M136.16,46.04c0.27-0.31,0.42-0.81,0.63-1.38
		C133.82,45.15,134.97,47.42,136.16,46.04z M139.37,28.23c-1.9-0.12-2.69-2.17-5.27-1.34C139.13,30.29,137.54,30.06,139.37,28.23z
		 M131.31,41.46c-1.96-0.94-1.25,0.43-1.55,1.34C130.79,42.6,131.2,42.19,131.31,41.46z M126.65,50.15c0.93,0,0.83-0.62,0.83-1.24
		C126.27,48.71,126.54,49.37,126.65,50.15z M125.27,44.82c0.18,0.84,1.66,0.45,1.18-1.08C125.63,43.74,125.05,43.82,125.27,44.82z
		 M123.35,30.61c1.34,0.52,1.76-0.72,2.48-1.03C125.58,26.86,122.66,26.47,123.35,30.61z M114.05,73.21c0-2.17-1.45-2.69-2.58-3.41
		C111.79,71.51,112.66,72.56,114.05,73.21z M110.32,21.72c-0.45,0.26-0.99,0.39-1.1,0.82C108.8,24.23,111.73,23.65,110.32,21.72z
		 M114.25,16.55c1.03,0.21,1.55-0.1,1.86-1.03C115.18,15.2,114.45,15.2,114.25,16.55z M117.35,53.87c0-1.65-0.52-2.07-2.17-1.14
		C115.59,53.67,116.11,54.18,117.35,53.87z M118.07,28.75c0.64-1.91-1.65-1.78-1.65-3.52c-1.76,0.41-1.65,1.65-2.17,3.1
		C115.69,27.82,116.73,28.75,118.07,28.75z M114.35,44.57c-1.45-1.45-3.31-1.55-4.45-2.9C111.87,44.46,111.87,44.46,114.35,44.57z
		 M111.04,49.54c0.03-0.52-0.53-0.85-0.83-1.15C109.05,50.06,110.93,51.3,111.04,49.54z M109.18,66.38
		c0.62-1.03,0.21-1.65-0.83-2.48C108.05,65.07,108.14,65.93,109.18,66.38z M107.94,27.82c-1.03,0.52-1.34,1.14-1.14,2.69
		C108.15,29.68,108.35,28.95,107.94,27.82z M53.14,140.31c3.59-3.17,5.9-7.66,9.93-9.62c0.77-1.77-0.27-3.04,1.34-4.65
		c0.93,0.72-0.18,1.79,0.72,2.69c11.39-5.41,16.12-1.14,19.65-9.51C69.14,123.14,53.14,122.25,53.14,140.31z M163.05,119.22
		c4.96,4.65,7.34,10.44,11.89,14.79C171.02,119.97,167,120.35,163.05,119.22z M193.97,238.13c0.81-3.32-2.2-9.63-5.38-31.12
		c-0.39-2.63-0.24-2.04-7.44-22.13c-0.59-1.98,0.72-5.19,1.45-7.13c1.97-5.24,1.27-6.22-0.83-20.27
		c-1.39-9.32-6.78-21.88-20.06-35.16c1.86,4.96,2.17,9.93,1.14,15.1c-1.65,1.14-3.1,2.5-4.86,3.31c-8.45,3.9-15.33-4.71-17.58-1.34
		c-9.82-6.8-8.47-2.87-10.34-3.62c-10.6-5.89-3.47-2.57-2.48-3.21c-7.57-6.88-18.97-14.26-31.54-19.85
		c-0.81,0.35-1.44,0.89-1.65,1.76c19.33,10.06,33.55,41.8,27.3,54.8c-2,4.17-0.48,8.13-4.65,12.72
		c-23.47,25.81-33.47,5.61-36.19,17.37c3.74,6.65,13.02,16.24,18.4,21.62c2.96,2.96,0.28,1.09,4.18,6.94
		c10.82,12.84,6.04,10.15,13.08,23.87c2.49,4.86,3.52,10.03,3.52,15.82c-0.62,0.83-1.55,1.86-2.9,3.52
		c1.02-8.8-1.95-15.25-5.89-23.06c-0.05-0.1-7.84-14.73-9.51-16.96c-10.71-12.77-7.63-10.03-9.1-11.17
		c-4.82-3.74-9.6-9.95-9.29-9.33c1.86,7.21,4.53,14.11,4.94,21.64c-6.62-21.4-6.36-21.5-7.96-21.61c0.83-2.89,0.89-3.53-1.55-6.51
		c-2.14,4.27-8.87,10.46-11.37,12.72c8.52,17.2,10.94,32.01,13.55,37.64c0.89,1.93,12.67,28.65,12.3,32.67
		c8.27,9.4,5.49,9.69,9.51,11.58c2.59,1.22,9.28,5.38,11.06,5.38c2.04,1.73,2.62,4.99,4.55,6.93c-0.27-1.23-3.36-11.43-3.47-11.46
		c-0.63-0.13-3.23,1.05-3.23-0.06c0.54-1.38,1.95-0.79,2.98-1.41c0-19.58,1.85-8.6,3.21-22.44c0.19-1.97,0.21-1.96,2.07-3.1
		c1.26,0.63-1.72,14.06-1.96,14.99c-1.99,7.45,2.87,18.11,4.55,24.3c1.97,7.25,16.79,12.05,21.82,12.2
		c16.58,0.48,22.72,7.03,31.74,9.62c24.58,7.05,32.69,5.96,42.19,14.99c3.05,2.9,14.68,11.63,18.82,12.51
		c-2.54,6.67-15.66-9.6-32.36-15.41c-7.24,3.21-14.89,5.38-22.54,8.38c2.32,3.48,0.97,4.5,0.31,8.48
		c7.84,3.05,31.76,6.96,37.74,7.65c4.65,0.54,9,2.67,13.65,3.1c4.34,0.4,8.61,1.05,12.61,2.48c2.19,0.78,4.65-0.31,7.03,1.76
		c2.07-13.75,2.9-26.88,3.41-40.33c-3.79-0.76-11.78,0.16-17.06-0.21c1.89,6.42-1.88,11.85-2.17,17.37
		c3.88-2.79,8.07-6.21,12.1-8.89c-0.62,2.69-0.57,2.75-6.2,7.13c-13.58,10.56-5.6,3.66-9.04,1.01c-1.31-1,4.34-9.27,2.94-14.56
		c-1.88-7.08-3.89-51.92,16.23-59.97c-3.97-1.54-8.89-2.27-12.2-2.9c-22.45-4.24-13.01-3.91-29.16-6.93
		c-11.66-2.18-29.72-3.26-35.57-4.96c-8.87-2.58-15.87,0-20.27,0c6.35-2.65,11.32-3.07,15.41-2.48c1.34-1.34-0.93-2.79,0.72-3.72
		c2.36-5.15,10.75-0.85,15.1,3.1c-3.78,0.52-8.67-7.16-14.79-2.79c1.25,1.25-2.71,3.5,11.79,5.27c5.59,0.68,11.27,1.14,16.96,1.76
		c-0.3-12.47-8.44-7.57-13.86-12.61c2.69,0,4.12-1.36,5.89,0.41c-2.7-8.47-27.52,2.41-34.64,4.55c-0.1,0.03-35.87,12.45-35.48,11.04
		c0.67-2.38,8.38-4.43,10.76-5.05c16.8-4.33,20.92-9.32,28.74-9.93c1.59-0.6,1.07-4.32,3.14-3.28c0.57,0.29,0.79,1.02,0.99,1.62
		c0.93-0.41,1.65-0.72,2.27-0.93c0.62-1.24,0-2.9,1.55-3.52c1.16,0.23,1.02,1.52,1.64,2.33c1.55,2.01-1.55-1.51,5.19-3.46
		c15.7-4.54,14.19-1.68,16.75-4.24C193.97,241.23,193.56,239.78,193.97,238.13z M90.57,183.74c5.98,5.12-1.46,14.46,14.48,4.76
		c-7.76-2.76-14.05-6.34-20.07-11.79c-0.21,5.38-1.34,10.03-2.17,15.2c3.53-0.1,6.73,0.83,10.25,0.93
		C92.74,189.32,89.33,187.46,90.57,183.74z M67.3,222.81c-0.41-1.24-0.52-2.48-1.65-3.72c-6.55,6.55-12.31,9.22-10.03,11.48
		c12.86,12.75,11.14,30.81,32.86,50.31C85.6,274.69,79.36,258.99,67.3,222.81z M122.93,318.88c1.17,5.08-0.01,3.53,6.69,6.59
		c24.06,10.99,21.85,14.47,19.99,1.89c-22.71,0.8-23.57-12-23.57-6.62C125.12,321.65,124.49,319.24,122.93,318.88z M151.16,328.6
		c1.63,11.03-0.14,6.41,10.34,11.48c0.1-2.69-0.52-5.07-0.93-7.55C157.69,331.33,154.37,330.57,151.16,328.6z M267.68,375.52
		c0,11.67,14.92,29.47,15.92,29.47c-1.32,3.31-0.03-0.34,29.47,62.13c1.65,0.31,2.79,1.65,2.9,4.55c0.72-2.79,0.31-4.65,0.21-6.61
		c1.55,2.27,2.27,4.96,2.9,7.75c2.07-0.52,3.41-2.27,4.96-3.1c0.88-1.77,0.42-3.02-1.13-4.24c0-3.72,5.29-10.95,6.99-14.19
		c0.4-1.2-2.3-1.79-2.54-1.94c-2.2-3-12.24-35.37-13.84-56.76c0-18.6-7.97-43.01-7.25-48.81c1.4-11.22-3.64-18.15-3.1-21.4
		c-0.16,0,1.61-7.03-4.18-12.85c-0.1-0.1-0.83-0.96-1-1.31c0-1.71-6.53-6.93-10.77-11.18c-0.39-0.49-1.05-0.6-1.64-0.7
		c0.68,2.39-3.44-0.46-5.98-1.97c-0.03,0,2.33-0.19,5.77,1.64c-10.35-12.45-27.88-15.61-28.24-15.61
		c-12.51,6.25-11.94,9.41-17.78,29.68c0,1.43-0.71-2.67-0.71,14.49c2.04,1.22,4.32,0.31,6.19,1.75c-6.26,2.44-6.59-3.18-5.69,8.07
		c15.26,0,14.82-2.1,27.92,2.17C270.12,348.55,260.24,356.38,267.68,375.52z M279.48,416.39c6.73,18.4,10.16,25.34,20.68,29.47
		c-7.01-12.99-14.24-25.96-21.13-39.18C278.82,406.3,277.73,411.62,279.48,416.39z M314.42,478.94c2.06,3.2,2.81,3.87,6.26,1.86
		c1.81-1.05,3.14-2.59,3.66-5.17C321.04,477.49,318.35,479.56,314.42,478.94z M316.8,472.84c-0.52,0.52-0.31,0.93,0.1,1.65
		C318.25,473.56,317.53,473.25,316.8,472.84z M339.44,429.21c-1.65-8.38-3.46-16.63-6.62-24.51c-5.67-14.13-7.91-30.28-14.78-39.7
		c-2.63-3.61-5.48-8.16-8.7-15.61c0.31,4.45,1.41,8.7,2.69,13.13c3.32,11.54,3.97,28.36,6.51,46.74c0.81,5.85,2.77,10.55,6.57,24.31
		c0.03,0.1,12.77,4.4,12.87,4.44C338.3,434.89,336.44,431.58,339.44,429.21z M306.88,320.64c-0.64,1.65-0.8,1.83,0.21,4.34
		C307.5,323.43,307.6,322.19,306.88,320.64z M187.69,245.99c-0.53,0.04-1.11,0.35-1.79,0.83
		C189.13,248.43,189.79,245.82,187.69,245.99z M238.22,271.63c-2.23-2.23-1.32-6.33-0.52-9.41c4.2-16.15,12.11-14.79,19.23-14.79
		c1.76-3.87,2.88-2.98-1.03-4.55c-8.03-3.22-3.13,0.99-25.23-3.1c-9.42-1.75-3.58-3.07-13.65-5.58c-1.63,0-20.44,10.45-23.99,14.79
		c0.62,1.55,2.69,2.48,2.58,4.45c1.55,0.93,3,1.86,4.55,2.17c1.34,3.1,4.86,5.38,3.31,9.41c3.9,1.13,7.8,1.03,11.99,1.75
		c0.31,0.1-0.27,0.46,1.03-9.61c0.94-7.24,9.11-15.41,6.06-10.21c-0.97,1.65-1.98,2.16-1.82,2.24c-3.52,6.62-3.93,8.89-3.41,17.37
		c1.96,0.62,4.13,1.36,6.1,2.17c8.23,3.37,6.61,0.93,7.65,0.41c0.83,0.31,0.1,1.45,1.34,2.07c18.89,3.66,44.2,10.11,57.52,24.02
		c0.65,0.68,0.35-4.38,1.95-5.95c1.05-1.03-1.26,5.8-0.33,8.09c6.88,5.31,3.06,6.58,8.79-20.58c2.06-9.78-4.39-18.14-11.06-19.65
		c-15.39-3.47-35.19-11.31-42.6-5.38c1.86,0.41,3.72,0.31,5.48,1.76C243.63,254.48,244.08,246.63,238.22,271.63z M269.45,240.3
		c-3.93,1.14-8.48,1.45-9.31,6.93c1.31,1.31,3.31,1.17,4.55,1.34c8.99,1.27,17.26,4.78,26.06,6.62c3.51,0.73,6.59,2.39,8.38,5.79
		c1.74,3.31,3.39,0.48,4.32,5.22c0.76,3.85-5.74,37.2-5.64,37.31c4.83,3.52,6.59,8.77,8.13,14.03c7.62-0.46,6.03-8.42,8.69-20.89
		c0.2-0.96,0.32-1.74-0.38-2.45c-0.12-0.12,0.26-0.29,0.84-2.71c1.14-4.78,0.32-7.96,1.66-20.58
		C319.27,247.15,312.07,249.83,269.45,240.3z M350.5,364.4c0-6.45-1.86-8.59-2.17-19.75c-0.87-31.22-8.01-45.04-9-59.25
		c-0.71-10.14-6.71-11.26-16.34-16.85c-0.91-0.53-2.16-1.47-3.71-1.47c-1.3,10.44-0.9,28.14-4.65,38.88
		c1.15,1.24,5.56,1.02,4.9,1.71c-2.98,3.11-4.45-4.45-7.19,10.6c-0.61,1.54-2.48,1.22-2.48,3.41c0,12.69-1.71,16.51,4.55,30.81
		c3.42,7.81,9.94,14.73,13.44,27.5c7.76,28.31,15.45,47.73,12.92,50.77c1.8,2.33,4.54,3.4,6.51,4.14c3.3-2.48,8.99-2.73,9.1-9.19
		c-3.47,3.47-7.99,6.94-13.34,6.94c0.5-1.8,2.12-2.6,3.52-3.72c0-11.2-1.38-13.63,2.48-1.55c2.99-1.59,5.68-4.17,7.24-6.51
		c0.21-3,1.23-6.1,0.72-9.41c-0.32-2.07,0.72-3.83,1.65-5.79C353.03,391.41,350.5,375.35,350.5,364.4z M426.35,425.08
		c-0.36-0.14-0.78-0.25-1.19-0.42c0.31-3.31,2.48-6.41,0.31-9.93c-2.69,2.96-3.24,6.4-4.97,9.62c-3.08-11.97,14.95-17.05-17.89-7.86
		c-2.44,3.14-2.37,7.92-6.81,9.31c-1.76-3.1,0.52-5.17,1.76-7.44c-1.32-0.76-2.71-0.16-3.62-0.31c0,4.95-3.95,6.74-6.93,9.93
		c-1.69-4.18,0.18-6.64,3-9.82c-0.36,0-2.98-0.53-6.5-0.02c-0.7,0.17-1.35,7.97-7.14,11.8c-1.65-3-1.65-3,1.76-12.72
		c-0.62-0.78-2.79-1.45-2.9-1.45c-2.31,3.59-3.83,10.48-6,12.92c-2.17-3-1.65-5.69,2.48-14.48c-3.52-1.86-6.62-4.45-9.82-7.03
		c-3.09,4.47-1.32,5.75-1.55,6.2c-1.96,4.76-0.79,9.82-1.03,14.68c-0.24,4.82-6.64,7.72-6.82,7.86c-9.08,6.51-11.32-4.23-12.61,2.69
		c11.51,4.73,18.7,5,30.3,6.72c9.88,1.46,16.07,5.82,20.37,4.45c1.76,0.52,1.96,2.79,4.03,2.07c0.06-0.1,0.05-0.19,0.01-0.26
		C392.01,447.04,406.35,453.44,426.35,425.08z M367.16,515.65c1.45,0,1.14-1.45,2.48-2.38c-1.96,0-2.75,0.54-3.52,0.83
		C366.23,514.82,366.54,515.23,367.16,515.65z M362.92,524.75c3.44-6.36,3.28-6.01,2.48-7.39c-0.43-0.74-1.06-1.45-0.94-2.44
		c-2.48-1.24-3.62,0.92-5.58,1.85C361.06,518.96,363.33,520.71,362.92,524.75z M360.92,524.45c-1.73-5.3-6.28-6.5-7.17-6.15
		c-0.51,0.2-0.94,0.84-1.9,2.21C354.77,528.87,360.96,524.55,360.92,524.45z M316.71,496.51c2.16,7.39,2.32,14.31,5.26,18.73
		c7.72,1.04,7.91-0.6,16.96-3.93c0.62-0.52-0.21-1.34,0.93-1.96c4.97,1.34,10.55,1.04,15.63,3.24c10.58,4.58,42.34-21.56,45.27-23.3
		c3.17-1.88,6.14-6.66,2.56-9.25c-0.44-0.25-5.15,2.96-6.39,5.53c0-3.3,0.98-4.52,4.14-7.86c-4-6.09-14.57,1.35-26.57-4.86
		c-13.98-7.23-3.85-2.71-14.79,5.27c-2.03,1.48-3.22,1.74-5.27-0.83c1.09-4.26,8.84-7.88,7.12-9.3c-0.68-0.56-2.15-0.4-2.77-1.56
		c0,0.27-3.72,6.8-9.93,8.69c-0.72,0.14-2.57-1.17-2.57-1.27c1.24-3.64,10.73-8.89,8.99-10.61c-0.57-0.56-1.94-0.87-3.31-1.56
		c-2.68,4.79-10.46,14.08-13.94,10.35c-2.11-2.27,7.91-7.66,10.42-12.21c-1.89-1.89-4.44-2.7-5.74-4.93
		c-1.54-2.64,0.53-1.96,1.48-0.98c7.42,7.61,13.27,4.2,23.69,8.71c1.95,0.84-7.94-0.74-9.81-0.63c0.84,2.38,2.57,3.6,5.07,3.93
		c10.79,1.43,12.64,7.94,24.51,6.72c12.72-1.31,7.63,2.32,13.34-4.34c-3.68-7.63-1.96-10.06-2.58-9.75
		c-3.12,1.97-4.17,5.12-6.51,6.86c0.31,2.9-0.1,3.72-3.1,6.1c-0.1-0.07-2.67-1.67-2.56-1.78c4.75-3.31,7.01-8.68,10.01-13.42
		c0.62-0.62,1.14,1.03,1.65,0.1c-0.48-0.97-17.25-5.86-41.15-10.03c-24.23-4.23-26.23-8.37-28.95-7.24
		c1.09,3.47,3.85,8.88,4.76,10.24c2.61,0.68,6.19,0.4,8.17,2.38c-0.93,1.55-0.93,1.55-6.41,0.93c-2.48,2.9-4.12,6.46-6.1,9.82
		c-1.75,2.97,6.02,19.98-10.96,23.68C314.25,486.42,311.46,478.57,316.71,496.51z M312.36,476.88c2.27-0.32,1.31-1.94,0.62-5.38
		C311.12,472.54,311.12,472.54,312.36,476.88z M296.71,501.34c1.6,0,1.16-1.5-0.13-1.5C294.76,499.94,295.85,501.42,296.71,501.34z
		 M293.43,496.42c2.9,0.41,5.89,0.62,7.65,3.1C307.76,497.98,296.03,490.72,293.43,496.42z M297.26,491.87
		c2.79,0.1,4.55,2.07,6.51,4.65c7.3-12.06,9.41-11.34,5.38-18.6c0-1.45,0.93-2.79,0-4.14C304.5,479.25,300.57,485.14,297.26,491.87z
		 M196.31,410.03c2.73,0.87,5.46,1.78,8.2,2.84c4.46-3.99,11.05-7.7,16.32-11.7c0.45-0.34-6.56-2.68-13.21-2.99
		c-14.74-0.68-27.73-4.31-27.73-3.82C178.6,402.82,147.2,394.47,196.31,410.03z M171.53,396.53c1.34-0.41,1.03-1.45,1.76-1.86
		c0.83,0,0.83,1.03,1.55,1.14c0.83-0.31,1.55-0.83,1.86-1.76c-1.25-1.87-3.93-1.15-5.17-3.1c0.69-0.46,1.48-0.45,2.27-0.21
		c20.94,6.33,49.77,4.47,76.31,14.37c1.35,0.5,2.38,0.41,3.62,0.31c2.38,33.81,19.85,56.25,50.46,68.76
		c1.76-0.62,1.65-2.38,2.58-2.9c3.83-4.87,8.09,5.38-4.55-21.3c-8.17-3.52-14.53-8.19-18.3-16.23c-3.58-7.63-10-17.59-7.96-26.68
		c0.66-2.94,0.21-5.82-1.86-8.07c-5.05-5.46-4.24-16.3-4.24,15.41c0,0.27,0.13,0.21-0.72,0.21c-0.21-4.12-0.91-8.21-0.41-12.3
		c2.62-21.56-11.52-22.96-4.03-62.87c-2.29-2.29-3.6-0.93-5.89-2.07c-1.55,16.13-1.65,32.05-4.96,47.67
		c-1.45-1.96,0.93-4.14-0.62-6.2c-7.66,0.62-59.62-10.06-71.86-13.86c-6.62,3.1-13.03,1.24-19.96-0.93
		c-0.21,3.11-0.25,6.42,0.1,9.51C162.64,383.58,157.28,398.81,171.53,396.53z M174.19,363.44c1.64,0,3.38-1.66,5.2-2.57
		c-1.64-13.13-1.75,1.51-15.2-4.24c-3.21-1.37-3-2.19-3.07,0.01C160.86,364.3,168.17,360.68,174.19,363.44z M160.88,396.64
		c-0.52-4.24-2.69-7.86-1.96-12.3c-4.65,2.48-8.79,4.65-13.96,6.62C150.75,392.91,155.5,395.19,160.88,396.64z M132.25,361.79
		c-1.1,5.34-3.08,12.42-5.38,16.44c6.72-2.69,12.82-5.69,20.27-6c-3.98,2.68-17.4,6.88-20.26,6c-1.54,3.08-0.74,5.28-0.74,5.69
		c5.27,2.07,10.75,4.14,16.13,6.2c4.14-3,9.1-4.14,13.55-6.82c-2.84-7.82-0.7-5.9-3.83-6.41c0.24-0.37,2.49-1.17,1.24-2.01
		c-0.04,0-3.34-0.55-3.72-0.71c-0.56-0.25-1.07-0.66-1.44-1.42c2.84-1.01,5.09,0.75,7.53,0.62c1.13,0,2.52,6.13,3,7.42
		c1.59,4.31-0.19-24.73,0.43-26.66c-5.9-3.66-12.16-6.86-18.51-9.93C134.09,346.69,136.53,340.99,132.25,361.79z M84.47,305.6
		c-1.69-2.18-1.34-1.71-1.34-4.31c0-1.12-0.09-0.02,0.86,0.11c0.73,0.1,1.51-0.44,2.24,0.51c0.28,3.08,1.04,5.03-0.78,4.86
		c0.27,0.3,1.84,10.68,1.91,12.92c0.28,9.02,4.77,8.31,2.58,11.48c-3.98-5.23-5.28-11.8-5.48-18.3c-1.45,1.93-1.66,4.27-1.55,6.62
		c0.83,18.52,5.67,36.02,23.68,31.85c5.31-1.23,25.61-6.04,29.88-9.51c-1.31-1.39-6.45-4.5-6.71-4.32
		c-6.08,4.02-19.3,8.45-26.27,9.18c-13.21,1.39-9.22-11.27-13.23-15.1c1.53,0,2.8,0.34,3.96,0.78c6.7,2.53,1.7-0.03,2.55-1.6
		c3.08-2.72,6.6,8.47,17.06,5.07c0-1.69-2.14-2.6-1.45-4.55c6.65,6.65,8.94-1.27,3.41-7.13c-11.02,0-3.69,6.49-4.65,9.93
		c-3.93-2.72-5.49-6.3-6-11.06c-0.24-2.27,1.45-3.83,3.41-5.27c3.12,0,4.63,0,6.62,0c2.9,3.21,5.17,6.93,6,11.17
		c57.13,31.62,41.41,30.08,77.76,15.92c2.49-1.24-2.5-1.09-12.61-5.27c-1.12-1.28-9.74-2.85-16.86-5.48
		c-2.22-0.82-4.54-0.83-7.03-1.24c1.06,8.84-1,7.21,7.27,9.57c3.13,0.69,6.34,0.76,9.39-0.17c-5.95,4.46-8.58,3.86-14.35,1.99
		c-17.93-5.82-36.93-16.5-39.62-17.81c-2.33-0.93-2.55,4.88-3.93-7.54c-12.97-16.32-4.6-10.69-15.82-16.03
		c-9.43-4.49-8.19-8.14-13.03-12.92c-7.96-7.87-24.27-31.59-25.54-34.53c-11.82-27.45-21.71-28.92-21.71-30.81
		c1.54-0.51,1.63-0.48,7.55,2.88c0.33,0.19-1.06,1.04,13.95-13.53c13.82-13.42,13.28-33.03,16.03-35.78
		c-1.64-2.97-4.41-2.08-7.03-2.17c0.38,0,3.59-3.14,11.06-2.6c6.36,4.92,13.68,8.56,20.41,13.83c0.1,0.08,10.83-6.77,10.71-16.11
		c-0.03-2.5,3.57-5.89,2.17-14.06c-1.33-7.75-5.35-16.87-6.1-17.99c-33.16-40.23-17.92-14.26-33.81-11.68
		c-4.87,0.79-9.2,3.41-13.75,5.27c-0.7,0.18-11.61,11.22-15.1,17.78c-3.62,6.83-1.53,10.45-8.48,20.58
		c-10.7,15.59-4.11,18.98-13.86,42.39c-1.43,3.43-3.78,11.67-1.34,16.54c2.82,5.64,3.92,5.94,2.76,5.37
		c-5.59-2.78-4.98-4.03-5.06-3.11c-0.41,5.04-0.78,9.32,2.19,13.67c18.47,27.01,32.24,33.25,37.95,40.95
		c1.89,2.55,8.86,10.17,11.79,10.34C79.07,297.16,79.57,299.62,84.47,305.6z M127.17,335.73c-9.78-6.98-0.76-0.3-9.93,0.11
		c-1.02,1.24-0.62,2.78-1.44,4.11C116.13,339.93,121.01,339.61,127.17,335.73z M114.14,339.66c-0.45-1.98,1.11-1.38-4.86-1.24
		c-2.11,0.05-2.45,0.59-2.64,0.5c-2.29-0.86-5.05-3.59-5.72-3.59c-2.29,0.41-4.59-0.46-6.84-1.35c1.59,8.28,2.54,9.5,8.18,11.37
		C107.01,341.64,114.93,343.18,114.14,339.66z M114.74,321.06c-1.65-1.62-6.68-1.91-7.38,0.96
		C106.82,324.22,107,321.81,114.74,321.06z"/>
	<path d="M124.79,126.77c-0.08-0.04-0.06,0.02-0.1-0.1L124.79,126.77z"/>
	<path d="M589.98,117.57c-0.08-0.04-0.06,0.02-0.1-0.1L589.98,117.57z"/>
	<path d="M711.68,540.05c0.02,0.05,0.05,0.07-0.1,0.1L711.68,540.05z"/>
	<path d="M487.62,214.14c0.23-0.7,6.68-24.73,8.89-34.64c2.02-9.05,4.44-11.81,10.13-20.99c2.98-4.81,3.02-14.36,8.69-20.68
		c0-4.84-2.16-21.84,14.37-25.44c2.25-0.49,19.31-4.11,21.61-3.62c6.55-9.39,12.53-8.99,16.44-16.65c1.47-2.88,2.58-6,3.62-8.38
		c-1.65-5.38-1.14-10.65-3.21-14.58c-0.21-1.96,0.83-3,0.41-4.45c-1.56-5.48-3.11-11.06-5.48-16.23
		c-4.81-10.51-0.5-23.35-0.62-23.68c-1.53-4.1,2.25-4.98,3-7.24c-0.62-1.14-2.48-0.62-2.58-2.27c1.24-2.17,4.14-2.27,5.07-4.55
		c0.72,0.21,1.03,0.83,1.76,0.52c0.83-0.72,0.41-2.38,1.86-2.69c1.03-0.1,1.45,1.55,2.9,0.93c2.9-4.65,8.17-4.65,12.92-5.89
		c1.24-0.62,1.45-2.9,3.62-2.38c0.5,0.59-1.48,3.27,2.38,2.17c9.64-3.66,6.74,3.18,19.65-2.9c0.83-0.52,1.96-0.93,2.69,0.21
		c0.41,1.03-0.93,1.65-0.52,2.79c2.07-0.93,4.25,0.13,6.31-0.72c2.18-0.9,3.62,2.38,5.58,0.93c1.34,1.03,1.24,2.69,2.17,3.72
		c1.34-1.34,1.45-3.72,4.14-4.65c-0.21,2.58,2.38,1.86,3.52,2.9c-0.26,1.92-6.34,5.22,3.31,1.24c5.42,1.81,0.51,5.37,3.21,8.07
		c-1.64,1.96-1.82,1.5-1.14,3.21c-10.58,6.41-14.02-0.4-7.24,15.92c1.24,3,1.76,6-1.24,8.17c1.96,5.38,5.48,9.93,7.03,14.06
		c0.1,3.41-2.17,3.83-3.1,5.17c-0.31,1.65,1.03,2.9,0.52,4.34c-0.31,1.14-1.86,1.03-1.96,2.27c2.58,3,0.93,5.79-0.72,8.69
		c5.23,8.1-3.37,14.13-11.37,10.34c6.03-0.45,12.87-1.43,10.65-7.34c-1.56-4.17-0.44-5.28,0.83-9.1c-2.46-4.43-3.56,1.7-6.41-0.72
		c1.81-3.38,8.24-1.66,6.51-6.82c-0.1-0.52,0-1.24-0.52-1.76c-3.93,1.03-5.07,0.21-4.45-3.1c1.14-0.41,1.24,1.14,2.69,1.03
		c2.08-1.89,10.91,4.11-0.21-13.13c-4.66-7.22,3.52-4.84-0.52-12.92c-1.65-3.31-2.9-6.82-3.1-10.65c-1.86-0.52-1.86-0.52-2.58-2.07
		c0.78,0.64,1.46,0.67,2.27-0.52c3.72-1.28,10.37-3.74,11.2-7.56c0.68-3.13-0.67,2.36-7.89,4.77c-4.9,1.63-1.37,1.14-12.1,4.55
		c0.1,1.24,1.55,0.41,1.65,1.45c-2.27,2.07-4.86,2.17-7.86,1.24c-1.48,7.04-17.47,14.02-18.09,27.4c0.31,1.76,1.86,2.79,2.9,4.34
		c-1.76,0.62-2.69-1.45-4.14-0.83c-1.03,0.62,0.31,2.27-1.24,2.48c-2.58-2.17-3.1-5.69-5.17-8.38c-2.9-0.83-5.69-2.58-8.89-3.21
		c-3.29,5.59-7.17,9.59-1.34,13.96c6.35,4.77,5.41,5.08,10.34,6.51c1.14,0.21,1.34-1.65,2.58-1.24c0.72,1.55-0.21,2.48-1.24,3.31
		c-4.73,0.99-8.18-5.28-11.58-2.69c-0.41,3,0.38,6.28-1.45,9.1c-1.26,1.95-1.86,4.03-0.62,6c-5.87,7.39,0.78,5.11-14.37,20.78
		c1.7,1.87,10.69,4.31,19.13,10.55c9.07,6.7,7.99,3.56,8.94,5.46c1.31-0.79,2.69-0.33,3.98,0.23c-1.17,0.84-2.34,0.72-3.56,0.38
		c4.2,3.36,9.05,6.82,14,7.79c10.82,2.1,9.86,5.27,19.44,2.27c0.76-2.28,2.67-11.24-1.65-16.96c-4.98-6.59-2.09-7.14-4.65-7.65
		c-2.07,1.55,0,3.83-0.93,5.79c-5.41-4.21-1.32-19.19,3-23.16c0.94,4.15-3.08,4.82-1.86,14.58c6.21,4.24,8.44,5.89,10.86,6.1
		c8.56,0.75,13.51,9.58,14.37,18.09c2.04,20.2,17.01,30.37,4.65,48.7c2.64,1.7,0.82,5.25,3.1,10.44
		c6.33,14.39,12.63,47.8,12.82,48.18c5.39-2.16,1.14-0.73,1.96-3c23.67-6.41,12.2-2.55,17.89-1.55c7.86-0.74,13.45-5.74,18.92-4.96
		c9.79,1.39,8.69,0.24,14.37,0.21c32.82-0.2,23.23,3.01,28.33-3.1c5.05-6.05,2-3.65,21.09-6.51c7.55-1.13,15.3-0.67,22.95-0.72
		c2.79-0.02,5,1.21,6.72,3.31c5.7,6.97,4.55-3.19,4.55,17.16c0.46,5.47,15.93,73.01,21.4,92.95c4.44,16.2,3.62,11.33,5.89,11.37
		c10.57,0.2,12.36-5.46,16.75-8.07c15.76-9.35,16.06-9.65,18.2-9.51c1.86,0.12,3-0.93,4.24-2.69c2.9,3.93,8.17,3.93,10.86,8.27
		c-2.27,6.2,0.72,12.72-0.83,18.51c-0.93,1.34-1.96,0.31-2.48,1.03c-4.34,4.65-8.07,9.82-13.23,13.75c1.86,1.86,2.9,4.24,5.27,5.38
		c0.52,4.45,0.21,8.58-0.93,12.51c-3.94,3.25-24.8,4.58-32.78,7.96c-6.42,2.72-10.01,1.78-14.48,2.69
		c-15.95,3.26-39.65,5.12-49.01-8.07c-1.5-2.12-8.52-8.14-9.93-15.3c-0.57-2.89-1.34-5.69-2.17-8.48c-6.75,0-8.79-1.68-12.92-1.14
		c-8.38,1.11-37.87-4.4-39.6-3.72c0.1,4.24-1.76,7.55-4.76,9.82c0,14.19-5.49,81.72,3,109.5c0.03,0.11,15.36,44.46,15.41,44.56
		c2.57,6.46,14.83,21.87,19.75,26.88c16.56,16.9,12.02,8.78,18.71,18.82c2.05-0.88,3-1.65,4.45,1.24c-0.98,1.37-0.9,0.14,6.2,25.95
		c-5.65,5.96-35.23,7.71-35.47,7.55c-0.82-4.92-7.34-5.05-12.72-18.51c-6.93,3-14.27,3.41-20.47,5.58
		c-1.55,2.07-0.72,4.24-2.27,5.79c-1.24-1.76,0.93-3.52,0-5.38c-3.31,0.52-6.51,0.83-9.62,2.07c-0.41,1.65,0.21,3.62-1.65,4.86
		c-0.72-1.55,0.83-3,0.1-4.86c-4.55,1.96-10.34,0.72-13.44,6c2.23,7.24,31.17,7.95,39.6-5.17c0-2.07-1.34-3.93,0.21-6.1
		c2.27,2.07,1.86,4.65,2.17,6.93c-3.32,4.75-2.4,6.21-8.27,9.2c-10.51,5.35-21.18,5.33-31.95,0.83c-2.99-1.25-4.55-3.62-3.93-7.13
		c-2.69-0.1-3.43-2.17-3.93-4.24c-0.03-0.1-3.45-13.16-2.48-15.2c3.02-3.02,9.01-0.72,7.66-4.21c2.42-1.39,1.16-4.61,3.09-6.65
		c2.38-0.1,2.9-2.9,4.24-4.03c1.34-0.31,1.24,0.83,1.76,0.93c4.76-2.48,8.05-7.08,13.44-8.48c0.41-0.11,0.72-0.41,0.93-0.72
		c3.62-4.53,14.81-1.19,19.65,1.96c-0.92-3.48-1.75-6.16-2.46-8.83c0.54-0.18,0.88-0.87,1.84-0.58c1.76,3.62,3,7.34,0.72,11.48
		c-2.07,1.03-3.72-0.32-5.48-1.14c-10.32-4.76-22.36,1.21-28.85,9.2c-0.96,0.61-4.58,0.11-5.38,4.86c4.24-1.14,8.17-2.17,11.89-3.1
		c0.52-6,2.58-8.48,6.1-8.07c-3.62,2.27-4.55,4.14-4.03,7.65c5.07-1.34,10.55-0.83,14.89-3.52c0.52-1.65-1.03-2.69,0-4.03
		c1.65,0.72,0.52,3.1,2.27,3.83c5.87-0.59,2.87-1.5,1.24-5.69c2.48,1.03,2.48,3.31,3.31,4.76c3.62,0.52,6.93-2.17,10.44-0.41
		c-0.46,4.15-32.26,7.42-44.36,10.86c-2.17,3.52-6.72,3.1-10.55,4.96c6.91,20.29-3,15.08,16.03,10.75
		c32.78-7.46,26.66-5.54,39.81-9.93c0.93-0.31,1.65,0.41,1.76,1.34c-0.1,1.65-2.07,1.76-2.48,3.1c3.83,5.48,7.75,10.86,13.23,14.58
		c-0.19-6.15-0.59-9.94-5.58-18.92c-1.24,0-1.65,1.76-2.9,0.83c1.96-7.24-2.58-15.2-6-21.09c5.48,2.27,7.65,7.13,9.93,11.79
		c3.72-0.52,7.13-1.86,11.58-1.86c-3.83,2.38-7.55,2.38-10.86,3.62c1.45,9.2,5.17,17.68,7.34,26.68c31.7-6.65,26.7,1.87,19.75-27.3
		c-0.32-1.34-1.86-1.34-2.17-2.38c-5.05,1.84-2.72-0.66-3.83-1.45c-4.45,1.34-4.45,1.34-5.79,0.1c1.96-0.93,4.34-0.52,6.1-1.96
		c-0.48-1.9-7.04-5.76-17.37-16.34c-17.84-18.27-38.57-63.97-38.36-106.09c0.42-84.29,2.26-69.97,1.24-74.76
		c-4.45,1.24-8.79,1.76-13.03,2.17c-0.93,2.58-0.93,2.58-2.48,4.03c1.49,2.17,2.22,13.99,5.48,21.71
		c14.21,33.62-5.9,54.04,5.69,100.4c0.83-0.62-0.1-1.86,1.24-2.58c1.24,4.45,1.86,9,3.93,13.03c0.1,0.31-0.1,0.72-0.21,1.34
		c-2.17-2.69-3-5.69-4.24-8.48c0.41,5.07,1.65,9.93,1.65,14.89c0.83,1.24,2.48,0.72,3,2.58c-1.14,4.45,3.52,8.07,3.41,13.55
		c-3.54-2.26-4.29-5.26-7.34-11.37c-9.72-0.31-13.34,0.31-16.03,2.79c1.39,6.38,3.39,11.61-1.14,13.96
		c-2.68-2.01,0.66-3.65-1.76-10.75c-0.92-2.69-0.72-5.07,1.24-7.03c-1.31-15.77,1.42-1.68,2.27-0.72c4.34-2.38,9.41-1.24,13.96-2.48
		c-1.64-14.74-4.21-8.56-6.1-36.19c-3.49-50.86,7.55-45.33-1.86-80.24c-1.95-7.24-3.48-19.22-5.27-25.33
		c-1.36-5.8,2.81-6.82,0.93-19.23c-3.71-24.52,1.15-2.08-3.1-28.95c-1.02-6.42-4.76-9.8-7.96-16.85
		c-6.56-14.43-37.12-19.45-46.94,37.53c2.27,1.55,4.24,3.61,6.62,4.24c5.12,1.36,5.3,6.76,6.93,7.34c0.41-1.96-0.83-4.03,0.83-5.48
		c3.43,1.25,0.01,12.86,3.93,18.71c1.83,2.74,3.08,4.65,2.48,7.65c-0.62,0.72-1.34,1.45-1.96,2.07c-1.01,9.81-1.47,42.76,2.69,52.11
		c14.16,31.88,26.77,62.62,29.57,90.37c0.21,1.24,0.41,2.58-1.45,3.21c-3.38-2.06-2.3-12.15-4.96-21.2
		c-5.77-19.62-10.11-29.63-14.48-41.05c-12.96,13.64-16.13,23.4-20.06,24.71c-4.34-4.34-10.75-4.45-15.2-8.69
		c0.41-5.27,1.55-10.86,1.45-16.13c7.96-8.89,15.61-17.68,23.37-26.47c-2.4-4.53,5.21-2.95-64.62-30.61
		c-1.45,2.9-8.93,3.37-16.96,10.13c-6.4,5.39-16.66,6.8-32.05,16.03c-4.26,2.55-9.2,3.31-13.75,5.17
		c-4.96-2.9-10.75-3.72-14.68-7.86c0-4.03-0.44-3.24,16.34,4.14c2.84-1.98,1.9-0.03,7.13-17.47c-4.86-1.86-9.51-3.62-13.65-7.13
		c-3,5.58-2.48,12.2-7.03,16.65c0.83-2.58,2.48-4.96,1.76-7.65c-0.83-0.31-0.52,0.83-1.34,0.52c0.41-4.14,1.55-8.07,4.45-11.48
		c4.1,0.68-0.44-1.98,56.97-25.02c9.47-31.16,12.58-33.79,6-31.33c-11.49,4.29-22.84-3.21-24.61-15.61
		c-2.17-15.27-4.31-22.78,1.45-28.54c-10.24-14.94-19.58-17.9-36.4-33.6c-7.78-7.26-26.91-29.92-24.71-39.7
		C487.02,225.05,485.05,221.97,487.62,214.14z M566.4,42.81c-1.34,0.1-1.45,0.93-1.24,2.27C566.51,44.57,566.61,43.84,566.4,42.81z
		 M568.16,22.44c-2.41,1.21,0.21,2.65,0.21,0.72C568.35,22.97,568.3,22.73,568.16,22.44z M568.68,36.5
		c-1.55,0.52-1.96,1.45-1.96,3.1C568.63,39.09,569.2,38.41,568.68,36.5z M569.4,53.51c-0.09-0.25-0.23-0.51-0.41-0.78
		C566.9,56.01,570.16,55.67,569.4,53.51z M633.41,6c-1.45-0.1-1.65,0.72-2.07,1.96C632.58,7.55,633.2,7.24,633.41,6z M625.13,12.2
		c2.07-0.41,2.48-1.55,2.07-3.1c-0.83-0.41-1.03,0.62-1.76,0.52c-1.14-0.41-1.03-1.65-1.55-2.38c-1.37-0.15-2.39,0.15-3.41,0.93
		C623.27,8.38,624.41,10.14,625.13,12.2z M622.24,19.44c-3.1-1.76-4.86,0.41-6.93,0.62C617.48,20.99,619.45,19.96,622.24,19.44z
		 M609.52,5.79c0.91,2.11,1.52,1.82,2.29,0.73C611.38,5.17,610.56,5.9,609.52,5.79z M612.42,22.75c-2.17,1.14-2.17,1.14-2.69,2.79
		C610.87,24.92,611.8,24.09,612.42,22.75z M610.04,22.44c0.32-1.25,0.02-1.92-0.79-2.67c-1.19-1.1-0.68-1.26-1.27-0.74
		C607.67,19.3,607.18,19.01,610.04,22.44z M608.18,28.95c-2.07,0.62-3.93,1.65-5.07,4.45C605.59,32.26,606.83,30.5,608.18,28.95z
		 M601.25,36.81c-0.91,0.33-1.65,0.46-1.65,1.96C600.73,38.47,601.25,38.05,601.25,36.81z M602.59,21.61
		c0.63-0.38,1.03-0.58,1.14-1.34c-1.17-0.08-3.98-2.42-4.27-1.55C599.16,19.63,598.59,19.43,602.59,21.61z M591.22,42.4
		c0.93-0.1,0.93-0.62,0.72-1.34C590.81,41.05,591.01,41.67,591.22,42.4z M590.19,37.43c2.09,0,0.75-2.52-0.29-1.12
		C589.64,36.66,589.79,37.04,590.19,37.43z M588.01,22.75c1.03,0.31,3.83-0.61,1.24-3.19C588.12,19.54,587.7,20.68,588.01,22.75z
		 M578.09,65.45c0.29-1.93,0.34-1.96-2.38-3.72C576.23,63.39,577.16,64.32,578.09,65.45z M579.85,7.5
		c-0.45,0.05-0.82,0.41-1.14,1.19C580.64,9.13,581.43,7.34,579.85,7.5z M580.67,17.58c-1.55,0.1-0.93,1.65-2.27,2.17
		c1.65,0.93,3,0.52,4.24,1.14C582.64,19.13,581.19,18.72,580.67,17.58z M581.5,46.22c0.21-1.65,0.21-1.65-1.86-1.24
		C580.26,45.81,580.78,46.12,581.5,46.22z M577.61,36.64c3.61-0.16,0.29-0.05-3.04-2.82C575.9,36.07,576.34,36.69,577.61,36.64z
		 M575.3,42.71c0.46-0.94,0.76-1.37-0.52-2.07C574.17,41.58,574.42,42.19,575.3,42.71z M575.09,13.65
		c-1.14,0.62-1.45,1.14-1.03,1.76C575.71,15.82,575.5,15,575.09,13.65z M573.85,58.73c0.36-1.05,0.32-1.93-0.72-2.27
		C572.35,57.51,572.94,58.05,573.85,58.73z M571.68,22.75c1.03-1.03,1.45-1.76,0.83-2.79C571.78,20.68,571.16,21.3,571.68,22.75z
		 M620.69,458.16c-0.21,4.96-0.41,9.82-1.34,14.79c9.78,3.92,13.63,5.58,13.96,5.69c6.1-7.86,10.75-16.85,19.13-22.95
		c-1.24-3.21-2.38-6-3.72-9.2c-0.11,0.11-9.79,11.18-8.62,8.87c1.96-3.88,5.23-6.84,7.9-10.53c-1.34-3.62-2.58-7.24-3.62-10.24
		C632.71,442.35,628.7,453,620.69,458.16z M526.62,116.98c-5.26,2.76-9.58,8.35-8.6,15.38c3.52-3.21,5.69-7.44,9.72-9.51
		c0.52-1.76-0.31-3.62,1.45-5.07c0,0.1,0.18,3.2,0.31,3.16c12.45-5.55,15.71-1.19,19.85-9.06
		C548.58,111.11,529.53,115.45,526.62,116.98z M633.51,113.84c-1.31-1.5-3.21-1.76-5.28-2.17c4.55,4.12,6.74,10.35,11.37,14.48
		C638.37,121.7,636.69,117.48,633.51,113.84z M874.43,342.25c0.65-4.2-1.44-7.47,0.62-15.72c-5.89-4.42-10.12-5.55-17.58-1.34
		c-27.01,15.25-11.91,11.15-10.03,19.13c-3.05,5.09-6.93-9.61-11.79-4.76c1.44,2.47,5.59,3.46,4.45,8.27
		c-10.98-10.58-5-5.34-12.49-7.13c-0.13,0,0.89,1.2,1.75,3.91c4.79,15.16-3.63,19.73-4.03,22.14c2.21,0.79,7.17-2.87,10.96-1.65
		c1.25,0.4,3.12-0.4,4.55-1.65c3.14-2.75,7.13-3.52,11.06-4.34c1.14-0.31,1.96,0.52,2.9,0.62
		C860.57,357.03,870.39,348.35,874.43,342.25z M795.84,360.34c8.27,12.42,7.93,12.6,13.96,10.34
		C795.72,353.31,801.64,358.89,795.84,360.34z M797.08,356.62c-0.29-1.68-4.62-1.15-3.63,0.48
		C794.59,358.94,796.7,357.9,797.08,356.62z M811.25,370.27c4.07-0.65,7.25-1.3,7.12-1.43c-2.98-2.24-8.73-3.09-10.11-4.48
		C808.89,366.44,810.73,367.77,811.25,370.27z M816.94,366.24c5.89,0.31,8.38-3.52,11.06-7.13c0-23.18,3.89,2.2-15.61,4.24
		C814.1,364.95,816.52,364.65,816.94,366.24z M758.52,353.52c1.03,1.76,1.24,3.72,1.96,4.24c9.58,46.84,57.37,25.72,103.91,17.27
		c0-22.62-0.18-12.61-30.5-9.41c-5.1,0.54-8.74,3.44-29.88,7.65c-6.44,1.28-6.14-0.27-13.75-1.55
		c-16.41-2.76-18.96-17.01-16.7-14.82c4.25,4.11-4.29,8.9,28.8,14.51c-4.65-4.65-7.44-9.82-11.37-14.06
		c-0.35-2.39,0.45-4.12,2.17-5.48c5.69-0.93,7.96,4.24,11.68,7.13c7.53-2.79,0.53-10.89-3-18.09c-9.47-19.3-11.75-23.17-14.48-26.16
		c-16.26-17.82-5.45-24.68-11.79,16.75c-1.65,10.76-0.04,21.9-1.65,24.4c-2.56-20.5,2.07-26.89,2.07-62.14
		c0-2.61,0.83-3.95,1.52-1.94c0.33,0.97,0.01,1.95,0.24,2.56c0.41,1.45,1.45,0.52,2.17,2.07c1.42,9.8,7.77,11.59,16.34,28.23
		c23.31,45.3,14,29.44,13.34,34.53c0,1.3,1.35,0.95,1.76,1.55c2.08-0.42,3.24-2.49,5.48-1.65c0.3-2.79-0.36-5.21-1.14-7.86
		c1.65,1.65,2.38,3.83,3.1,5.89c4.96-2.43,8.17-8.77,7.34-15.3c-3.14-1.66-7.78-17.13-7.96-19.85
		c-0.65-9.84-11.38-39.38-15.72-67.42c-3.07-19.87-0.52-1.29-4.86,20.16c1.65,4.45,4.45,8.07,5.17,12.61
		c-1-1.54-4.48-7.12-4.55-7.24c-2.74,5.48-9.66,8.12-15.61,6.93c0.33-2.62,13.92-1.76,12.92-8.07c-1.31-8.3,3.2-14.19,2.27-34.53
		c-0.3-6.6,1.14-6.38,1.14-23.06c-0.31-0.72-1.45-0.1-2.07-1.14c-2.17-3.62-5.48-5.21-9.82-5.07c-7.47,0.24-16.56-0.16-17.37,1.86
		c-6.62-1.14-13.03,0.31-19.34,0.62c-10.8,9.14-6.2,21.42-7.33,23.83c-1,2.13,0.28,23.37-2.27,41.41
		c-0.87,6.12,0.65,8.19,4.36,10.04c0.05,0.02,1.5-37.24,2.05-41.06c10.24-0.93,20.27-2.07,29.68-1.86
		c4.57,3.13,1.05,26.94,0.87,25.05c-0.73-7.43,0.44-14.95-0.56-22.47c-3.52-1.03-22.13-0.41-28.54,0.83
		c-1.45,12.22,0.33,27.06-1.65,41.26c3.44-0.18,11.73,1.53,12.06,0.54c0.85-2.58,0.11-5.64,2.53-7.47
		c10.03-2.79,14.99-2.27,17.99,1.86c0.06,0.78-0.08,1.47-0.32,2.16c-1.06,3.06-0.85-0.6-1.23-1.13c-2.23-2.68-0.12-2.03-6.2,0
		c-2.52,0.84-5-0.42-5.3,2.35c-0.21,1.95,0.14,5.05-0.81,7.17c-1.24-3.93,0.93-8.38-3.62-11.27c-0.01,0.11-3.13,40.53-4.08,40.53
		c-15.99,0.1-50.41-3.09-50.51-3.1c-1,7.32-1.13,15.14-2.69,22.64C714.98,350.12,748.19,353.79,758.52,353.52z M766.38,288.48
		c9.36,0,7.76,0.11,7.44-0.21C771.2,286.92,768.86,288.48,766.38,288.48z M623.27,325.91c1.7-5.66,2.56-22.48,16.85-31.54
		c9.21-5.84,16.73-5.64,25.2-2.66c1.99,0.7-4.95-14.56,2.78-28.78c1.51-2.79,1.69-6.03,2.52-9.09c7.85,4.85,14.3-5.34,21.2,2.17
		c7.05,7.67,17.55,23.83,15.51,27.92c-1.81,1.2-9.19-23.11-22.02-28.54c-6.04,3.19-13,0.27-13.57,4.25
		c-0.07,1.02,1.26,1.17,1.26,1.85c0,0.41,0.1,0.52,0,0.62c-3.81,3.81-2.84,8.99-5.58,13.34c0,3.43,1.86,10.2-0.47,16.31
		c-0.37,0.98-0.97-0.05,3.27,3.24c1.85,7.21,7.2,12.78,10.82,19.98c0.26,0.77,1-6.45,1.87-9.34c1.69-5.56,0.35,5.88-1.31,12.52
		c1.54,7.21-1.34,19.28,1.65,26.57c1.54,3.75,0.88,5.54-0.1,16.34c5.35,0.84,17.62-0.21,19.86-6.62c0.59-1.67-0.04,2.3,2.26-29.68
		c2.79-38.59,0.52-35.71,1.1-38.39c0.25-1.16,1.27-1.6,1.8,0.44c1.78,6.84-0.07,24.51-0.31,37.22c11.35,2.62,49.01,3.31,49.11,3.31
		c0.72-10.13,1.45-19.96,2.17-29.88c-2.69-0.21-5.17-0.41-7.44-0.62c-1.34,0-1.65,1.45-2.9,1.55c-1.14-0.31-2.57-0.43-3.52-1.34
		c-5.37-5.16-13.19-1.96-21.3-7.75c-3.77-2.69-10.37-1.45-14.49-3.27c-4.29-1.89,9.26,0.49,12.73,0.17
		c0.52-0.52,1.03-1.24,1.65-1.86c0.5,0.92-0.72,1.45-0.22,2.29c4.78,3.5,11.51,5.48,16.13,5.48c-2.69-8.58,1.14-17.27-0.31-25.95
		c0.23-1.15,1.03-2.42,1.03-4.03c0-33.1,3.41-22.6-2.79-21.71c-0.54-0.54-1.05,0.25,3.72-4.86c-0.93-2.9,0.93-5.89,0.72-9.2
		c-3.62,0-7.15-1.33-10.75-0.52c-0.83,0.19-1.86,0.31-2.69,0c-3.41-1.26-6.93-0.88-10.44-0.93c-6.97-0.1-6.88,3.38-12.1,1.65
		c-6.48-2.14-15.57,2.75-15.74,2.92c-0.32,0.32-0.5,1.46-0.65,1.31c-2.77-0.59-5.55,0.66-8.32,0.22c-1.24-0.2-1.14-1.76-2.27-2.27
		c-4.51,1.13-4.15,0.98-4.1,1.11c0.66,1.53,3.22,1.33,2.98,3.3c0-0.01,0.02,0,0.09,0.02l-0.1,0.1c0.01-0.07,0.01-0.1,0.01-0.12
		c0,0.01,0,0.01,0,0.01c-4.87-1.62-8.74-0.46-13.36,1.89c-8.8,4.49-19.14,2.75-21.72,6l0,0c-0.05,0.07-0.08,0.1-0.01,0
		c-15.48,3.87-26.61,12.27-48.36,17.26c-2.27,0.52-4.28,1.96-7.13,1.96c2.86-4.39,12.68-4.74,27.57-10.9
		c-2.37-2.23-3.3-4.65-4.92-6.37c2.04,1.43,4.66,2.55,5.05,6.32c3.01-1.25,5.99-2.61,8.91-4.04c40.65-16.26,32.09-7.45,35.36-11.17
		c-1.65-1.86-0.54-4.24-0.93-6.51c-10.85-63.07-16.26-44.69-11.06-59.25c1.29-3.6,1.42-4.02-1.76-23.47
		c-1.29-7.9-9.83-20.26-10.86-22.13c-1.99-3.61-5.48-6.31-8.58-9.31c2.54,6.35,1.83,14.02,0.99,14.96
		c-9.21,10.35-18.09-0.7-22.29,2.1c-2.48-1.65-4.96-2.9-7.65-3.93c-0.83-0.41-1.34,0.72-2.38,0.52c-7.05-3.89-5.85-3.24-6-3.31
		c0.99-1.17,1.82,0.23,2.71,0.22c0.42-0.01,0.8-0.29,0.29-0.63c-6.68-4.53-31.53-23.61-32.84-17.7c-0.2,1.27,8.72,2.58,19.5,19.98
		c5.99,9.66,12.43,25.45,7.55,35.67c-1.24,2.6-0.47,5.21-2.34,9.09c-2.04,4.25-10.49,12.55-19.48,15.93
		c-8.3,3.12-8.47-0.05-16.96,0.72c-5.92,4.84,10.05,17.22,18.61,27.61c-0.52,1.86,1.03,3.21,2.27,4.65
		c8.12,9.47,4.72,5.29,14.27,26.57c1.84,4.09,2.57,12.27,2.07,13.2c-1.75,3.24-5.03,3.96-5.65,5.39c-0.81,1.88-1.75,3.54-3.14,5.61
		c-7.12,10.63,2.93,18.58,0.6,19.28c-0.29,0.09-9.46-9.23-5.36-16.39c2.82-4.91,5.29-6.47,6.51-11.37c13.52,0-6.19-29.37-9.31-36.71
		c-0.08-0.2-10.79-13.52-10.96-13.65c-3.4-2.7-6.41-5.89-9.31-9.41c1.69,6.61,4.44,14,4.96,21.71c-6.56-21.23-6.28-21.47-7.96-21.61
		c1.14-2.58,0.31-4.55-1.55-6.72c-15.47,25.78-13.91-7.86,0.83,47.25c0.52,1.95,14.06,32.24,13.55,35.98
		c9.29,10.5,4.51,10.64,16.07,14.32c-0.07-0.2-0.16-0.39-0.25-0.57c0.6-0.11,3.3-0.37,3.3,0.24c-0.6,1.83-2.46,0.59-1.97,1.08
		c0.59,0.66,1.45,0.95,2.19,1.69c3.2-6.48,0.24-6.03-2.05-12.76c-0.83-1.65,8.78-7.76,10.94-10.82c3.7,2.36-5.6,7.71-7.65,11.06
		c5.09,7.63,0.93,9.91,0.94,10.84c0.03,3.61,1.97,5.96,3.4,8.4c0.93,0.62,1.03-0.41,1.65-0.72c1.24,0.72,1.55,2.38,2.9,3.21
		c0.93-0.21,1.96-1.03,3.1-0.31c0.86-0.58,0.16-1.54,0.21-2.26c0.05-0.91,0.93-0.52,0.93-0.41c1.96,6.38-0.38,2.86,4.65,6.41
		c4.91,3.46,2.97,4.29,5.58,7.75c9.99,13.26,13.08,33.34,17.99,37.43C620.39,349.2,617.91,343.78,623.27,325.91z M555.33,176.07
		c0.59-1.77,3.7,8.4,3.85,8.7c0,1.61,10.65-3.97,10.75-4.02c-7.65-2.66-14.47-6.35-20.37-11.99c-0.11,5.79-1.5,10.56-1.86,15.3
		c2.98,0,5.71,0.87,8.7,0.88C560.46,184.94,553.81,180.62,555.33,176.07z M555.13,276.59c-0.22-1.33-9.47-20.49-14.58-35.88
		c-0.79-2.37-9.07-27.01-10.13-29.68c-7.02,7.02-12.66,9.28-10.24,11.68c12.89,12.77,11.53,32.07,33.71,51.08
		C553.58,274.94,553.58,275.97,555.13,276.59z M586.46,308.75c3.18,8.35-0.82,4.89,15.41,12.82c-1.03-6.2-6.2-8.79-9.62-12.61
		C590.19,309.27,588.32,309.78,586.46,308.75z M622.45,342.66c-0.4,5.67-0.21,11.24,1.76,16.65c4.7,3.21,8.12,7.75,14.79,7.75
		C636.3,357.14,630.41,349.49,622.45,342.66z M639.09,371.3c-17.79-6.08-15.57-13.08-19.96-12.2c-5.27-5.69-7.65-12.82-9.51-20.06
		c-1.55-1.03-2.79-1.86-4.24-2.79c-1.65,0.21-3,1.65-4.76,0.83c-1.46,3.46-1.44,6.76-2.27,10.13c-6.79,27.44-8.54,23.49-7.65,28.54
		c5.07,2.48,10.65,4.34,16.23,6.41c4.02-2.88,8.87-4.14,13.41-6.71c0.12,0-0.14-0.31-1.73-6.01c-0.74-0.64-1.55-0.31-2.17-0.52
		c0.36-0.53,1.81-0.82,1.55-1.86c-1.7-0.74-3.97,0.25-5.58-2.17c3-0.93,5.38,0.62,8.07,0.72c5.57,12.21,2.57,11.61-10.87,17.58
		c19.69,7.09,22.06,7.33,26.37,10.44C638.01,388.95,639.57,376.97,639.09,371.3z M567.65,377.82
		c-47.84,25.38-57.48,23.22-53.46,25.68c4.63,2.83,9.66,3.76,9.84,4.14c8.16,17.02-25.09,27.9,40.1-3.76
		c4.19-2.04,6.14-6.19,10.65-4.03c0.52-1.76,1.24-2.79,3.41-1.96c14.28,5.46,28.68,10.36,42.5,16.65c16,7.29-2.84,0.2,18.2,8.48
		c-0.02-0.11-1.76-9.72-1.76-9.82c-13.6-5.88-12.13-5.2-11.01-5.2c3.79,0.01,6.98,2.23,10.7,3.12c0-22.51,7.54-9.98-49.73-34.53
		c2.62-2.14,2.06-0.91,10.65-37.22c0.52-2.21-1.45-0.91-6.31,0.52c-1.45,0.72-1.14,2.17-2.17,2.69c-0.84-0.14-0.33-0.98-1.05-1.45
		c-0.29-0.19,0.62-0.22-10.94,2.27C574.16,354.55,571.06,365.72,567.65,377.82z M492.06,238.13c9.94,14.72,20.23,24.83,33.71,36.4
		c4.98,4.28,4.54,6.53,12.41,12.82c4.79,3.83,3.27-0.02,6.72,4.65c0.08,0.11,4.31,6.02,5.07,7.44c0.31,4.24,1.52,8.38,1.65,12.61
		c0.27,8.72,4.68,8.56,2.69,11.37c-3.52-4.24-4.65-7.96-5.48-17.99c-2.15-0.2-1.71,8.2-1.45,10.34
		c4.39,35.79,16.11,31.43,48.7,20.99c1.96-0.63,3.62-2.38,6.1-2.07c-1.4-0.91-7.85-4.9-7.96-4.96c-7.24,5.07-15.5,6.75-23.57,9.2
		c-6.32,1.92-12.85-0.99-13.75-8.58c-0.21-1.14-0.1-2.38-0.21-3.52c-0.1-1.03-1.45-1.45-1.45-2.9c3.22,0,4.12,1.41,7.03,1.86
		c-0.39-1.03-1.33-1.56-1.28-2.41c0-1.07,1.42-0.7,2.42-0.07c6.44,4.72,7.59,6.56,14.79,4.96c-0.25-1.78-1.69-2.58-1.66-4.45
		c0.02-1.64,1.85,3.22,5.7,2.17c1.63-3.97,1.29-5.94-1.96-9.41c-11.1,0-3.87,6.68-4.65,10.03c-3.94-2.95-5.92-7.32-5.88-11.8
		c0.02-1.94,1.71-3.25,3.4-4.64c1.96,0,4.14,0,6.62,0c2.9,3.21,5.17,6.82,6,11.27c7.44,4.03,14.89,7.86,22.33,12.92
		c-3.72-12.64-1.21-6.41-18.51-15.61c-1.14-0.31-1.55,0.93-2.69,0.52c-0.41-2.58-0.72-5.38-1.14-8.07
		c-3.31-3.93-6.62-7.86-8.69-12.51c-22.33-10.72-7.61-5.1-32.57-31.12c-12.88-13.43-18.36-39.91-33.81-49.32
		c-0.86-0.64-0.93-1.2-0.75-1.26c1.48-0.49,1.58-0.44,7.68,3.02c11.05-11.84,24.95-19.67,27.81-44.15c0.78-6.71,2.2-4.59,1.61-5.64
		c-1.92-3.47-8.9-1.03-6.17-2.44c3.25-1.68,6.57-2.44,10.45-2.06c6.31,4.96,13.75,8.69,20.16,13.65
		c10.98-5.84,9.97-14.32,12.1-19.65c4.21-10.51-4.8-27.85-4.96-28.02c-34.58-41.71-16.55-14.81-34.02-12.1
		c-4.08,0.63-13.62,4.79-14.68,5.89c-5.86,6.1-14.65,14.1-16.44,23.26c-3.07,15.75-12.05,16.39-13.96,35.16
		c-2.06,20.25-13.55,27.82-6,40.64c3.01,5.1,2,3.55-3.62,0C489.58,229.58,489.09,233.72,492.06,238.13z M587.08,324.57
		c-0.83,2.9-3,3.41-5.48,3.52c-0.48,2.09-0.84,3.74-1.04,4.55C596.18,327.84,591.88,328.49,587.08,324.57z M578.5,330.46
		c-2.48,0.72-5.07-0.41-7.24,0.72c-2.27-0.83-3.62-2.48-5.69-3.62c-2.48,0.47-6.72-1.14-6.82-1.24c1.03,5.17,1.65,10.03,7.96,11.27
		C572.13,333.19,579.14,336.48,578.5,330.46z M580.16,313.19c-2.72-1.71-9.06-1.88-8.15,1.81c0.2,0.81,0.02-0.25,2.26-0.9
		C575.98,313.61,577.96,313.76,580.16,313.19z"/>
	<path d="M711.68,540.15l-0.1,0.31C711.57,540.2,711.51,540.21,711.68,540.15z"/>
	<path d="M676.32,541.81c-5.57-4.85,3.42-6.98,6-9c4.22-3.3,9.16-2.87,16.13-3.31c3.64-0.23,2.88,1.96,4.45,2.48
		c0.62-0.21,1.45-1.34,2.17,0c0.21,0.72-1.24,0.62-0.72,1.45c6,4,7.1,4.26,7.23,6.77c-0.6,0.29-1.27,0.59-2.06,0.98
		c-4.96-2.27-8.69-6.72-14.06-7.65c-5.58,2.79-11.58,4.65-15.51,9.82c-2.07-1.55,0.62-2.58,0.1-3.83
		C678.07,539.12,677.87,541.6,676.32,541.81z"/>
	<path d="M590.08,60.39c-2.27,2.27-2.27,2.27-5.79,1.14c0-2.9-1.14-5.79,0.52-8.38c-2.37-2.63-3.26-3.52-3.72,0.62
		c2.07,3.52,2.27,4.14,1.34,6.82c-0.83-1.86-0.83-3.93-2.79-4.86c-0.72,0.41-1.24,0.72-1.14,2.38c-0.1,0.31,1.76,0.62,1.45,2.38
		c-1.76-0.83-3-1.86-3.72-3.83c2.48-2.17,3.1-5.38,4.34-8.58c3.21,1.65,5.48,3.52,7.75,6c-1.76,0.31-3.1,0.62-2.9,2.17
		C586.05,59.04,589.77,57.39,590.08,60.39z"/>
	<path d="M670.94,566.21c0.03-0.17,0-0.17,0.1-0.21L670.94,566.21z"/>
	<path d="M669.49,566.11c-2.17-7.44,1.06-13.9,4.03-20.47c0.32-0.72,1.24-0.93,2.07,0.1c-1.24,3.21-0.83,6.62-0.93,9.93
		c-2.01,1.2-1.34-6.46-3.68,10.3C671.28,565.66,670.57,566.74,669.49,566.11z"/>
	<path d="M162.22,43.95c3.25,0.43,2.76,1.51,1.55,3.21c-6.17,0.65-8.69-1.8-12.1,1.03c-1.13,0.94-2.48,0.93-4.03,0.62
		C150.64,44.88,156.1,43.14,162.22,43.95z"/>
	<path d="M626.89,36.09c3.25,0.43,2.76,1.51,1.55,3.21c-5.5,0.82-8.63-1.93-12.2,1.03c-1.13,0.94-2.48,0.93-4.03,0.62
		C615.31,37.02,620.77,35.28,626.89,36.09z"/>
	<path d="M671.66,541.7c-1.14-0.31-1.25-1.34-1.24-2.17c0.07-5.17-2.98-13.03,0.52-13.03C673.11,538.5,673.21,538.81,671.66,541.7z"
		/>
	<path d="M128.1,75.38c1.76,1.86,1.45,4.34,2.69,6c1.24,1.65,3.1,3,4.65,4.45c-0.93,0.72-1.76-0.62-2.79,0.21
		c0.62,1.03,0.31,2.07-0.31,3.62c-0.93-2.38-2.38-4.03-2.17-6.41c-0.83-0.72-1.76-1.45-2.69-2.27
		C127.89,79.1,126.65,77.34,128.1,75.38z"/>
	<path d="M597.01,81.48c-4.4-7.91,0.2-4.01-4.65-8.17c0-2.07-0.93-3.72,0.31-5.69c1.86,1.86,1.55,4.34,2.79,6
		c1.24,1.66,3.1,3,4.65,4.45c-1.03,0.83-1.76-0.62-2.69,0.1C597.53,79.21,597.84,80.34,597.01,81.48z"/>
	<path d="M677.14,567.76c3.52,4.14,3.93,11.37,1.03,14.06C677.97,576.96,676.52,572.52,677.14,567.76z"/>
	<path d="M61.31,416.8c9.08-5.09,41.62-16.19,1.14,0.62C62.34,417.52,62.03,417.21,61.31,416.8z"/>
	<path d="M150.02,128.11c-1.76,1.55-2.38,1.98-4.45,1.34c-5.87-1.8-11.26-0.53-12.41-3.21C141.4,127.78,148.85,126.35,150.02,128.11
		z"/>
	<path d="M613.45,119.22c2.15-0.04,1.24,3.95-3.41,2.38c-5-1.69-10.64-0.27-12.41-3.21C603.11,119.32,608.28,119.32,613.45,119.22z"
		/>
	<path d="M659.77,356.31c1.86,3.62-0.31,6.31-1.86,8.89c0.31,1.55,0.72,2.79,1.14,4.65c-1.96-1.45-1.96-3.31-2.58-4.86
		c1.34-2.38,1.65-4.86,0.62-7.34C657.91,356.83,658.64,356.21,659.77,356.31z"/>
	<path d="M618.52,45.39c2.07-2.69,4.96-3.72,8.17-4.24c0,1.24,0,2.38,0,3.52C624.31,46.84,621.41,45.19,618.52,45.39z"/>
	<path d="M153.54,53.56c2.69-3,7.34-5.27,8.58-4.34c0.1,0.93-0.41,1.96,0.31,3C159.64,54.7,156.74,52.94,153.54,53.56z"/>
	<path d="M188.9,450.3c3.74-5.33,14.54-15.13,15.3-14.37C201.03,439.81,199.43,440.61,188.9,450.3z"/>
	<path d="M176.8,421.04c-5.48-1.45-10.96-2.69-15.92-5.38C166.57,416.59,171.94,418.04,176.8,421.04z"/>
	<path d="M123.24,350.31c-0.31,6.41-2.38,12.3-5.69,17.78C119.73,362.2,121.59,356.31,123.24,350.31z"/>
	<path d="M675.7,409.15c1.54-0.38,0.91-0.98,2.9,14.58c-0.31,0-0.52,0.1-0.83,0.1C677.35,418.87,675.39,414.21,675.7,409.15z"/>
	<path d="M698.75,591.13c6.63-1.96,6.77-8.41,7.13-9.62c0.93,3.21,0.83,3.62-0.21,5.38c-2.75,4.69-10.66,6.52-11.12,6.02
		c-2.15,1.01-4.41,1.34-6.56,1.73c-2.37,0.43-3.93-0.31-5.58-2.48c3.93,1.59,3.88,1.91,12.13,0.73
		C694.42,592.68,695.54,592.08,698.75,591.13z"/>
	<path d="M235.22,407.08c-3.1,4.03-7.34,6.51-11.37,9.31C221.83,415.38,231.99,409.55,235.22,407.08z"/>
	<path d="M651.91,372.65c-0.1-0.1,0-0.41,0.1-1.45C665.55,385.13,663.3,384.03,651.91,372.65z"/>
	<path d="M707.65,532.91c-5.8-6.53-5.15-5.24-4.03-7.75C706.51,527.02,706.51,530.23,707.65,532.91z"/>
	<path d="M674.77,378.02c1.55-6.2,2.38-7.96,4.45-9.62C678.8,372.34,676.63,375.13,674.77,378.02z"/>
	<path d="M183.83,457.43c-1.96,3.83-4.96,6.82-7.86,7.44C178.66,462.4,181.25,459.92,183.83,457.43z"/>
	<path d="M678.38,348.25c-1.14-2.07-2.07-4.03-1.24-6.93C679,343.8,678.69,346.07,678.38,348.25z"/>
	<path d="M653.57,342.35c0.93,1.96,2.79,3.72,0.31,6.62C653.47,346.38,652.74,344.42,653.57,342.35z"/>
	<path d="M677.04,332.01c-1.14,0.76-0.07,1.45-5.07-5.69C674.35,327.77,676.21,329.53,677.04,332.01z"/>
	<path d="M209.79,428.79c-0.93,3.1-3,5.27-5.48,7.13C203.34,435.44,203.78,435.74,209.79,428.79z"/>
	<path d="M700.3,511.2c1.86,1.96,2.48,4.03,2.79,6.2C701.96,515.54,699.68,514.3,700.3,511.2z"/>
	<path d="M664.32,376.58c-2.27-1.34-2.27-1.34-3.31-4.14C663.91,374.3,663.91,374.3,664.32,376.58z"/>
	<path d="M718.09,548.32c-0.41-1.45-1.96-2.27-1.34-4.03C718.4,545.84,718.4,545.84,718.09,548.32z"/>
	<path d="M125.1,126.15c1.45-1.14,3-0.62,4.45-0.1C128.1,127.08,126.65,126.66,125.1,126.15z"/>
	<path d="M118.38,77.45c0.52,2.69,0.52,2.69-1.24,4.55C117.04,80.45,116.83,79.1,118.38,77.45z"/>
	<path d="M583.05,69.59c0.41,2.69,0.41,2.69-1.24,4.55C581.71,72.59,581.5,71.24,583.05,69.59z"/>
	<path d="M675.08,401.6c1.03,1.03,0.83,2.07,0.31,3.62C674.04,403.15,674.04,403.15,675.08,401.6z"/>
	<path d="M677.25,354.66c-0.21-1.24-0.52-2.27,0.72-3.62C679,353.31,679,353.31,677.25,354.66z"/>
	<path d="M626.48,337.18c1.86,1.24,2.58,2.27,2.69,3.72C627.93,340.18,627,339.25,626.48,337.18z"/>
	<path d="M219.4,419.49c1.55-1.76,2.58-2.9,4.03-3.52C224.44,416.98,220.91,418.94,219.4,419.49z"/>
	<path d="M692.34,555.66c0.52,1.24,0.72,2.17-0.52,3.21C691.62,557.63,691.31,556.7,692.34,555.66z"/>
	<path d="M141.65,410.28c-0.97,0.65-3.3-0.09-3.93-0.93C139.16,409.04,140.3,409.77,141.65,410.28z"/>
	<path d="M640.13,332.32c0.93,0.62,1.45,1.34,0.52,2.38C639.4,334.08,639.61,333.25,640.13,332.32z"/>
	<path d="M154.05,124.39c0.52-1.45,1.34-1.96,2.38-2.27C156.02,123.05,155.71,124.08,154.05,124.39z"/>
	<path d="M621.21,114.36c-0.72,0.72-0.83,1.96-2.9,2.17C619.34,115.19,620.07,114.46,621.21,114.36z"/>
	<path d="M136.37,67.93c0.52-0.52,1.03-0.41,1.34,0C140.77,69.77,135.76,69.76,136.37,67.93z"/>
	<path d="M600.84,60.08c1.45-0.62,2.07,0.21,2.69,1.34C602.08,61.63,601.25,61.42,600.84,60.08z"/>
	<path d="M150.02,93.68c1.34,0.1,2.38,0.21,3.52,1.03C151.99,95.44,151.06,94.92,150.02,93.68z"/>
	<path d="M110.52,388.78c0.83-1.76,0.93-3.1,2.17-3.83C112.59,386.3,112.28,387.43,110.52,388.78z"/>
	<path d="M667.94,390.23c-1.45-0.93-2.27-1.55-2.58-3.31C666.8,387.74,667.42,388.57,667.94,390.23z"/>
	<path d="M679,439.34c-0.65-3.6-0.8-2.39,0.31-3.72C679.42,437.06,680.25,438,679,439.34z"/>
	<path d="M618.1,86.86c-0.72,0.62-1.24,0.52-1.65,0.31C612.92,85.99,616.71,85.74,618.1,86.86z"/>
	<path d="M607.45,63.59c-1.65-0.31-1.65-0.31-2.07-1.45C606.32,62.04,606.83,62.56,607.45,63.59z"/>
	<path d="M673.01,526.61c-0.72-0.62-1.55-1.03-0.72-2.38C673.52,524.85,673.63,525.57,673.01,526.61z"/>
	<path d="M675.28,493.83c0.83,1.24,0.83,1.24,0.62,2.27C675.18,495.69,674.97,495.07,675.28,493.83z"/>
	<path d="M112.59,384.95c-0.1-1.24,0.41-2.27,1.65-3.83C113.63,382.88,113.73,384.13,112.59,384.95z"/>
	<path d="M140.41,70.21c1.34-0.31,1.96,0.1,2.27,1.03C141.54,71.97,140.92,71.24,140.41,70.21z"/>
	<path d="M639.4,340.28c0.21,0.83,0.52,1.65-0.62,2.17C638.06,341.32,638.78,340.9,639.4,340.28z"/>
	<path d="M673.94,486.7c1.03,0.41,1.14,0.93,0.62,1.65C673.94,488.04,673.52,487.63,673.94,486.7z"/>
	<path d="M120.24,387.85c0.52-0.62,0.93-1.45,2.07-1.03C121.9,387.64,121.38,388.26,120.24,387.85z"/>
	<path d="M699.79,504.17c0.1,0.52,0.21,0.93,0.62,2.17C699.27,505.2,698.96,504.79,699.79,504.17z"/>
	<path d="M697.31,552.35c0.93,0.93,0.52,1.24-0.21,1.45C696.58,553.39,696.79,552.97,697.31,552.35z"/>
	<path d="M673.11,396.95c-0.62-0.21-1.45-0.21-0.93-1.24C672.9,395.81,673.42,396.02,673.11,396.95z"/>
	<path d="M111.97,396.43c-0.62-0.72-0.21-1.24,0.41-1.76C112.59,395.5,112.8,396.12,111.97,396.43z"/>
	<path d="M114.04,93.16c-0.1,0.62-0.52,1.14-1.03,1.45C112.59,93.68,112.9,93.16,114.04,93.16z"/>
	<path d="M578.4,85.1c0.31,0.93-0.21,1.24-0.83,1.65C577.16,85.82,577.78,85.51,578.4,85.1z"/>
	<path d="M550.73,294.01c0.11,0.1,1.37,5.37-0.77,5.01c-2.73-3.75-2.27-2.72-2.27-5.48C548.7,294.06,549.74,293.06,550.73,294.01z"
		/>
	<path d="M143.61,269.77c-2.79,0.83-5.19,2.44-7.75,3.93c-2.61,1.51-5.69,1.65-8.69,2.48c-0.58,4.9,3.27,16.88,3.1,19.62
		c0,0.83-3.3-7.04-4-13.33c-0.36-2.14-3,11.95-5.23,16.69c-0.36,0.6-0.7-2.09,0.65-8.61c1.17-5.63,3.43-11.37,3.72-17.16
		C134.18,276.16,142.38,264.7,143.61,269.77z"/>
	<path d="M178.15,313.92c12.6,7.44,20.17,3.5,32.26,9.2c3.44,1.62,9.39,1.43,12.39,2.98c1.47,0.76-8.91,0.09-13.63-2.36
		c-12.64-6.56-21.75-0.52-33.09-10.34C177.22,312.78,177.63,313.4,178.15,313.92z"/>
	<path d="M135.03,293.15c0.15,5.53-4.62,5.46,6.3,10.23c0.7,0.31-2.78,0.35-4.82-1.45c-0.6-0.53-0.48-0.53-0.55-0.42
		c-1.03,0.1-1.34-1.24-2.58-1.14c-1.24,3-2.9,5.79-5.48,8.17c1.53-3.81,3.56-10.49,4.96-18.2
		C134.41,290.05,134.99,291.6,135.03,293.15z"/>
	<path d="M175.57,202.99c3.31,3,4.34,9.72,2.58,16.65C177.44,214.73,177.98,208.23,175.57,202.99z"/>
	<path d="M125.58,188.56c-0.27-1.6-0.76-0.48,16.07-0.48C138.56,189.59,126.73,190.87,125.58,188.56z"/>
	<path d="M162.95,159.75c2.79,4.55,5.38,9.2,5.27,14.99C166.36,173.95,168.12,176.75,162.95,159.75z"/>
	<path d="M224.57,335.84c3.17,2.68,3.6,10.35-0.72,12.82C225.51,344.51,225.5,344.44,224.57,335.84z"/>
	<path d="M176.7,265.22c-1.45,4.65-1.76,9.1-5.17,12.2c0.31-2.07,1.75-3.83,2.07-6C173.9,269.35,174.11,267.08,176.7,265.22z"/>
	<path d="M92.53,249.81c-1.34-4.76-2.69-9.62-4.14-14.27C91.19,239.78,92.02,244.64,92.53,249.81z"/>
	<path d="M170.6,178.36c0.35-3.52,3.93-1.25,4.65,1.45C173.31,180.39,171.69,180.11,170.6,178.36z"/>
	<path d="M202.03,309.16c-1.03,2.69-2.48,5.17-4.55,7.34C198.31,313.61,199.86,311.13,202.03,309.16z"/>
	<path d="M145.47,250.85c2.17,1.45,4.76,2.58,4.65,5.79C148.16,254.98,147.13,252.71,145.47,250.85z"/>
	<path d="M165.94,190.46c-0.93,2.81-2.38,5.16-4.76,6.93c-2.26,5.52-3.85,1.91-0.1-0.1C162.33,194.7,163.77,192.43,165.94,190.46z"
		/>
	<path d="M112.49,188.91c3-1.03,4.55,1.14,6.51,1.86C116.43,190.87,114.46,190.88,112.49,188.91z"/>
	<path d="M161.33,182.32c-0.24-0.04,1.41-3.27,3.78-3.86C162.26,183.11,162.94,182.63,161.33,182.32z"/>
	<path d="M104.4,214.15c-1.25-0.65-1.4-1.41-2.05-3.01C104.13,212.23,109.41,216.76,104.4,214.15z"/>
	<path d="M105.04,285.28c1.14,1.76,1.86,3.41,1.96,6.1C105.39,289.46,104.6,287.71,105.04,285.28z"/>
	<path d="M99.77,201.73c2.38,0.31,2.38,0.31,4.24,3.21C102.15,203.8,100.6,203.39,99.77,201.73z"/>
	<path d="M103.8,281.24c0.1,0.83,0.21,1.14,0.31,1.86C94.45,284.29,102.24,282.95,103.8,281.24z"/>
	<path d="M181.13,227.17c0.93,1.96,2.27,3,1.45,4.86C181.99,230.67,180.22,229.91,181.13,227.17z"/>
	<path d="M114.76,208.04c-1.55,0.31-2.79,0.31-4.34-1.34C112.38,206.69,113.73,206.49,114.76,208.04z"/>
	<path d="M153.23,214.76c0.41-1.76,0.21-3,1.55-4.14C155.01,212.4,154.68,213.41,153.23,214.76z"/>
	<path d="M95.74,201.32c-2.34-3.13,0.15-3.63,0.52-1.45C96.25,200.38,96.67,201.01,95.74,201.32z"/>
	<path d="M213.61,319.92c0.21-1.45,0.72-2.38,2.17-3.62C215.16,317.95,214.96,318.98,213.61,319.92z"/>
	<path d="M106.49,295.31c1.23,0.96,2.13,1.97,1.86,3.52C107.01,297.99,107.11,296.86,106.49,295.31z"/>
	<path d="M171.63,191.6c-0.51-0.46-0.95-0.97-1.14-1.73C169.73,186.83,171.86,189.88,171.63,191.6z"/>
	<path d="M141.75,248.78c-1.21-0.37-2.07-1.41-2.9-2.48C140.3,246.75,142.93,248.07,141.75,248.78z"/>
	<path d="M167.08,266.77c-1.19,5.95-11.21,16.32-13.62,16.95C152.48,283.72,155.03,283.62,167.08,266.77z"/>
	<path d="M98.83,274.26c-2.27,0.95-0.87-1.74,0.73-0.67C99.36,273.94,99.11,274.15,98.83,274.26z"/>
	<path d="M155.4,268.84c-0.87,0.65-1.38,1.23-2.48,0.72C153.84,269.32,154.14,268.66,155.4,268.84z"/>
	<path d="M120.04,206.69c1.04,0.92,1.7,0.77,1.45,1.96C120.98,208.25,120.04,208.45,120.04,206.69z"/>
	<path d="M117.43,208.6c-1.99-1.39,2.93-0.72,0.65,0.06C117.9,208.72,117.69,208.78,117.43,208.6z"/>
	<path d="M112.38,219.1c-1.25-0.25-1.86-0.53-2.17-2.16C111.45,217.55,112.28,217.86,112.38,219.1z"/>
	<path d="M187.56,294.89c0.62-1.03,0.93-1.86,2.79-2.07C189.11,293.65,188.9,294.58,187.56,294.89z"/>
	<path d="M158.71,200.49c0.14,1.25-0.88,1.75-1.86,1.75C157.88,201.61,157.76,200.72,158.71,200.49z"/>
	<path d="M136.79,244.64c-0.72,0.93-2.28-0.4-1.86-1.03C135.96,243.4,136.37,244.02,136.79,244.64z"/>
	<path d="M159.02,151.69c-1.05-1.05-1.62-3.58,0.1-1.03C159.43,151.12,159.53,151.43,159.02,151.69z"/>
	<path d="M95.75,203.81c1.2,0-0.06,3.01-0.53,0.92C95.02,204.24,95.13,203.85,95.75,203.81z"/>
	<path d="M117.86,221.07c-0.84,0.08-1.4-0.01-1.86-0.83C116.93,219.93,117.45,220.03,117.86,221.07z"/>
	<path d="M170.08,296.34c0.31,0.83-0.41,1.14-0.72,1.65C168.74,297.06,169.36,296.65,170.08,296.34z"/>
	<path d="M96.77,151.48c0-4.22-1.25-7.15,1.33-9.92c2.28,4.35,0.19,11.39-3.83,14.06C94.6,153.34,94.6,153.34,96.77,151.48z"/>
	<path d="M77.02,132.45c-4.14,2.07-8.07,4.03-11.79,6.62C68.34,134.11,73.09,131.42,77.02,132.45z"/>
	<path d="M45.59,200.27c0.42-3.04,2-5.29,3.52-7.96C48.8,195.31,48.69,198.41,45.59,200.27z"/>
	<path d="M41.69,251.4c-1.47-1.12-2.36-2.11-2.91-3.15C34.73,240.53,45.39,254.23,41.69,251.4z"/>
	<path d="M184.14,341.22c-1.22,0.12-2.69,1.46-4.24-0.31c2.18-1.14,4.25-0.72,6.2-1.34C186.31,341.11,185.08,341.13,184.14,341.22z"
		/>
	<path d="M32.25,235.44c2.71,0.38,3.85,1.92,5.17,4.06C35.41,238.82,33.15,238.33,32.25,235.44z"/>
	<path d="M37.42,239.5c0.17,0.05,0.2,0.06,0.18,0.1c0.04-0.04,0.02,0,0.11,0.09c-0.07,0-0.14-0.01-0.19-0.01
		C37.49,239.62,37.45,239.56,37.42,239.5z"/>
	<path d="M72.58,174.95c-1.65,1.24-1.65,1.24-3.83-0.21C69.99,174.02,71.13,173.61,72.58,174.95z"/>
	<path d="M93.67,126.15c-1.58,0-2.68,0.73-3.83-0.62C91.08,124.91,92.33,124.39,93.67,126.15z"/>
	<path d="M48.2,260.46c-0.52-0.51-0.81-1.14-0.74-1.96C49.66,259.97,50.25,262.46,48.2,260.46z"/>
	<path d="M48.35,187.42c0.05-1.89,2.3-2.3,1.4,0.06C49.54,188.03,48.28,190.48,48.35,187.42z"/>
	<path d="M93.57,328.19c-1.34-0.52-1.65-1.34-1.24-3C93.26,326.22,94.08,326.84,93.57,328.19z"/>
	<path d="M92.12,157.37c0,1.45-0.52,2.17-2.07,3.31C90.67,159.13,90.36,157.89,92.12,157.37z"/>
	<path d="M105.85,313.9c0.11,0.04,0.46,0.1,1.16,0.54C104.41,315.84,103.47,313.28,105.85,313.9z"/>
	<path d="M64.88,174.08c1.61,0.5,0.34,2.11-1.41,0.87C63.99,174.24,64.43,173.94,64.88,174.08z"/>
	<path d="M37.72,239.69c1.32,0.05,2.09,0.68,2.38,2.16C38.63,241.65,38.38,240.52,37.72,239.69z"/>
	<path d="M40.52,222.82c0.93-0.41,1.65-0.1,2.38,0.83C41.56,224.27,41.04,223.55,40.52,222.82z"/>
	<path d="M62.75,271.52c1.56,0.11,1.44,0.92,2.27,2.07C63.68,272.87,62.96,272.66,62.75,271.52z"/>
	<path d="M61.72,174.23c-1.03,0.52-1.65,1.03-2.79,0.31C59.93,173.67,60.47,173.09,61.72,174.23z"/>
	<path d="M100.18,139.38c-0.21-1.45-0.21-1.45,0.62-2.27C100.91,137.83,101.11,138.56,100.18,139.38z"/>
	<path d="M37.32,216.31c0.83-0.1,1.45,0.31,1.86,1.14C38.15,217.76,37.63,217.34,37.32,216.31z"/>
	<path d="M49.52,183.43c-0.93-0.93-0.54-1.32,0.31-2.07C50.26,182.23,50.32,182.73,49.52,183.43z"/>
	<path d="M53.99,265.64c-0.07-1,0.77-0.53,1.74,1.54C54.52,266.38,54.02,266.08,53.99,265.64z"/>
	<path d="M173.54,338.49c0.04-0.15,0.07-0.29,0.16-0.48C174.99,340.07,173.11,340.09,173.54,338.49z"/>
	<path d="M288.06,311.95c0,3.5,2.57,5.88,3.62,9.2C284.32,318.64,283.92,312.15,288.06,311.95z"/>
	<path d="M285.99,333.47c0.07-3.94,0.09-1.89,5.69,8.05C287.63,338.66,285.94,336.36,285.99,333.47z"/>
	<path d="M292.42,400.18c0.96,3.46,2.41,6.73,1.94,10.52C291.94,403.23,291.36,396.35,292.42,400.18z"/>
	<path d="M294.88,324.46c6.29,1.58,2.35,4.17,2.9,5.79C295.3,329.12,296.12,326.43,294.88,324.46z"/>
	<path d="M289.71,386.81c-1.73-1.82-1.77-3.98-1.14-6.41C289.51,382.47,290.13,384.54,289.71,386.81z"/>
	<path d="M302.22,333.77c-1.86-1.45-4.14-1.03-4.34-3.62C300.47,330.57,300.47,330.57,302.22,333.77z"/>
	<path d="M297.47,347.52c-0.93-1.45-3.52-1.65-3.41-4.45C296.02,344.32,297.16,345.56,297.47,347.52z"/>
	<path d="M315.81,460.13c0.21,2.98-1.91,0.15-1.91-2.91C314.75,458.08,315.72,458.87,315.81,460.13z"/>
	<path d="M275.75,345.14c-1.55-0.72-2.27-1.45-2.27-2.69C274.31,343.08,275.55,343.28,275.75,345.14z"/>
	<path d="M312.92,452.74c1.34,2.35-1.74,1.88-0.67-0.79C312.53,452.19,312.76,452.45,312.92,452.74z"/>
	<path d="M287.75,375.54c-0.1-0.83-0.93-1.24-0.1-2.27C288.37,373.99,288.57,374.61,287.75,375.54z"/>
	<path d="M253.32,325.91c0.83-0.31,1.45-0.31,1.86,0.83C254.25,327.15,253.52,327.36,253.32,325.91z"/>
	<path d="M266.41,294.64c-0.45,0.16-1.1-0.29-1.51-0.58C267,292.73,267.31,294.32,266.41,294.64z"/>
	<path d="M304.7,353.73c-0.72-0.52-1.55-0.83-0.93-1.76C304.54,352.3,304.89,352.62,304.7,353.73z"/>
	<path d="M281.23,355.59c-0.72-0.52-1.03-1.03-0.41-1.86C281.34,354.24,281.54,354.66,281.23,355.59z"/>
	<path d="M272.44,294.89c-0.83,0.83-1.14,0.41-1.45-0.31C271.62,294.17,272.13,294.07,272.44,294.89z"/>
	<path d="M311.67,447.02c0.05,1.54-1.17,0.48-1.21-0.06C310.36,445.62,311.65,446.18,311.67,447.02z"/>
	<path d="M286.52,367.79c0,0.94-1.26-0.33-0.67-0.62C286.28,367,286.52,367.65,286.52,367.79z"/>
	<path d="M185.03,373.14c2.68,1.42-13.19-3.06-13.3-3.08C176.24,370.89,180.78,370.89,185.03,373.14z"/>
	<path d="M280.7,444.53c13.62,10.06,7.42,6.81,6.6,6.03c-0.71-0.68-0.48-0.77-0.68-0.57C282.13,448.09,279.8,443.87,280.7,444.53z"
		/>
	<path d="M187.11,373.27c0.59,0.14,6.9,2.56-0.3,0.75C184.16,372.94,185.94,372.99,187.11,373.27z"/>
	<path d="M248.15,385.37c-0.33,0.07-0.64,0.13-0.92,0.14C246.26,385.57,242.41,383.28,248.15,385.37z"/>
	<path d="M171.78,386.14c-0.27,0.4-1.08,0.63-0.35-2.53C171.63,384.16,172.27,385.41,171.78,386.14z"/>
	<path d="M328.18,318.26c2.79,5.58,4.03,10.55,4.96,16.54C330.04,329.53,327.45,321.78,328.18,318.26z"/>
	<path d="M334.38,341.94c1.96,2.79,1.96,4.24,0.21,9.1C334.59,347.73,333.76,344.83,334.38,341.94z"/>
	<path d="M331.07,285.28c2.27,1.14,2.38,3.1,2.48,5.07C332.31,289,330.24,287.97,331.07,285.28z"/>
	<path d="M345.06,411.69c1.3,1.39,1.2,1.64,0.28,3.56C343.71,412.57,343.77,410.31,345.06,411.69z"/>
	<path d="M329.03,282.67c-0.01-0.95,0.18-1.81,1.21-2.46c0.34,2.14,0.44,2.49-0.63,3.69C329.09,284.49,329.05,284.92,329.03,282.67z
		"/>
	<path d="M343.1,400.9c-0.01,0.55-0.09,1.1-0.13,1.63C339.87,397.88,343.18,397,343.1,400.9z"/>
	<path d="M343.69,404.7c1.24,1.65,1.55,2.69,0.72,4.14C343.27,407.8,342.96,406.87,343.69,404.7z"/>
	<path d="M340.58,394.05c-0.83-0.83-0.41-1.45-0.1-2.27C341.41,392.6,341.62,393.33,340.58,394.05z"/>
	<path d="M323.94,307.51c0.72-0.93,1.45-0.72,2.27-0.31C325.49,308.23,324.87,308.54,323.94,307.51z"/>
	<path d="M336.24,491.97c1.3,6.99-6.78,5.64-9.62,6.93c0.93-2.17,0.1-3.1-0.21-4.14C323.68,487.54,334.95,485.04,336.24,491.97z
		 M330.86,493.83c0.85,1.63-0.2,1.55,0.62,1.96c7.16-3.26-3.21-11.02-2.9-1.96C329.31,494.55,329.83,493.11,330.86,493.83z"/>
	<path d="M342.86,485.56c5.14,0.17,6.97,6.61,2.66,9.23C337.59,499.62,333.6,485.25,342.86,485.56z M345.44,490.21
		c-0.44-4.05-5.8-3.77-5.58,0.31C340.09,494.87,345.9,494.44,345.44,490.21z"/>
	<path d="M356.2,483.49c1.14,3.42,2.34,7.24,0.83,9.51c-1.11-0.28-1.59-4.69-3.83-1.34c-0.64,1.28-1.41,3.22-2.78,2.24
		c-0.17-0.12,0.92-2.58,0.92-2.97C345.03,486.2,352.45,482.63,356.2,483.49z M354.75,488.35c1.06-3.52-2.97-2.84-3.49-1.25
		C350.49,489.01,352.73,488.87,354.75,488.35z"/>
	<path d="M370.78,472.53c2.38,2.18,2.43,2.87,0.41,5.17C366.19,483.4,361.31,478.99,370.78,472.53z"/>
	<path d="M377.13,475.98c0.17-0.09,1.38,0.48,1.91,2.75c-1.19,1.87-3.27,2.29-3.58,1.36C374.72,477.82,374.86,477.69,377.13,475.98z
		"/>
	<path d="M371.81,463.84c2.6,0.38,4.8,0.5,6.72,1.86C375.93,466.2,373.97,465.99,371.81,463.84z"/>
	<path d="M382.38,465.4c0.66,0.2,1.87,1.38-0.1,1.59C380.56,467.18,380.57,464.85,382.38,465.4z"/>
	<path d="M215.58,241.33c-4.68,9.35-4.18,9.33-4.26,8.62c-0.5-4.53,0.88-7.67,2.3-11.62c3.74-0.38,4.83-1.98,9-0.31
		C220.85,240.82,217.54,239.68,215.58,241.33z"/>
	<path d="M229.33,264.91c0.21-5.58,1.76-10.03,5.69-13.44c-1.03,2.27-1.67,4.64-2.79,6.72
		C231.17,260.14,232.22,263.05,229.33,264.91z"/>
	<path d="M292.4,268.94c1.04,0,2.08,0,2.81,0C294.45,269.23,293.65,270.77,292.4,268.94z"/>
	<path d="M295.61,268.94c-0.17,0-0.23,0-0.39,0C295.39,268.88,295.47,268.89,295.61,268.94z"/>
	<path d="M296.64,277.52c-0.83,1.14-1.76,1.14-3.1,0.62C294.68,277.11,295.61,277.32,296.64,277.52z"/>
	<path d="M261.59,255.5c0.1,0.09,0.32,0.26,0.32,0.27C262.37,256.15,261.8,255.78,261.59,255.5z"/>
	<path d="M265.2,256.04c0.89,0.66,0.4,0.87-0.54,0.88c-1.33,0.01-2.34-0.82-2.54-0.99C263.01,256.36,264.33,255.4,265.2,256.04z"/>
	<path d="M262.12,255.92L262.12,255.92C262.06,255.87,262.08,255.89,262.12,255.92z"/>
	<path d="M265.83,256.74c1.34,0.1,2.69,0.41,4.14,1.45C268.21,258.19,266.86,257.88,265.83,256.74z"/>
	<path d="M282.16,258.6c-0.42,0.08-0.84,0.28-1.26,0.5C276.9,261.11,278.94,257.35,282.16,258.6z"/>
	<path d="M241.22,266.67c1.14-1.14,1.65-2.38,3.1-2.58C243.71,265.1,243.79,266.99,241.22,266.67z"/>
	<path d="M288.9,265.07c0.15,1.01-1.59,0.18-2.6-0.99C288.05,264.38,288.84,264.69,288.9,265.07z"/>
	<path d="M405.72,416.39c3.75,1.55-0.04,7.01-4.65,6.62C404.28,421.24,402.93,417.52,405.72,416.39z"/>
	<path d="M275.75,244.74c27.1,5.31,31.94,8.33,33.4,14.17C303.02,249.2,285.96,250.26,275.75,244.74z"/>
	<path d="M311.63,263.05c1.76,13.13-0.83,25.02-3.93,32.88C311.83,274.08,310.65,289.21,311.63,263.05z"/>
	<path d="M264.17,242.99c7.93,0,7.13-0.13,7.13,0.31C263.38,243.3,264.17,243.43,264.17,242.99z"/>
	<path d="M311.94,295.93c-0.16-1.13,1.13-1.65,2.27-1.65C313.8,295.2,313.29,296.03,311.94,295.93z"/>
	<path d="M145.68,379.37c-4.65,2.17-8.89,4.03-13.65,6.1C134.62,382.47,141.03,379.68,145.68,379.37z"/>
	<path d="M127.17,322.79c0,0.12-1.13-0.63-1.45-1.74C126.3,320.48,127.39,321.52,127.17,322.79z"/>
	<path d="M595.36,278.97c-6.75,4.96-4.99,1.57-3.62,15.3c1.82-2.73,2.2-5.22,3.31-7.86c0.59,5.6-0.01,7.66-5.19,13.64
		c-0.23,0.27-0.16,2.27-1.22-17.46c3-3.83,7.75-5.07,10.96-8.27C598.98,276.62,597.14,277.66,595.36,278.97z"/>
	<path d="M698.96,255.5c11.37-10.96,24.92-19.03,38.26-27.4C724.81,237.61,711.47,245.99,698.96,255.5z"/>
	<path d="M642.89,241.15C642.89,241.14,642.89,241.14,642.89,241.15L642.89,241.15z"/>
	<path d="M641.47,243.5c-26.13,11.98-40.54,25.59-43.53,27.09c1.3-1.82,2.9-3.6,4.89-4.61c-0.11-0.11,1.79-1.88,2.24-2.21
		c25.62-18.97,35.57-20.27,37.81-22.61c0.01-0.01,0-0.01,0-0.01c0.01,0.02,0.16,0.08,1.32,0.08
		C646.32,241.23,643.37,242.63,641.47,243.5z"/>
	<path d="M678.12,233.39c0.13-0.27,0.01-0.02-0.02,0.08C677.99,233.47,678.05,233.5,678.12,233.39z"/>
	<path d="M667.94,239.26c4.17-2.47,9.81-4.87,10.16-5.79c1.01,0.17,1.93-1.66,3.18-0.41c0.33,2.11,0.12,1.7-14.48,9
		C664.31,243.31,663.52,241.88,667.94,239.26z"/>
	<path d="M706.92,273.39c4.55-8.38,10.44-14.79,16.85-21.2C723.26,253.43,708.47,272.15,706.92,273.39z"/>
	<path d="M633.41,258.5c8.58-2.48,17.58-2.79,26.37-3.83C651.09,256.84,642.3,257.67,633.41,258.5z"/>
	<path d="M642.71,211.76c-0.83-5.48,0.1-11.27-2.48-16.54C643.64,198.32,644.78,206.07,642.71,211.76z"/>
	<path d="M607.56,258.81c-4.65,3.41-9.82,5.38-14.27,8.58C595.05,263.77,601.77,259.84,607.56,258.81z"/>
	<path d="M606.31,180.83c-3.1,0.81-15.21,2.52-16.22-0.52C592.66,179.62,608.06,180.83,606.31,180.83z"/>
	<path d="M667.32,252.5c-3.62-4.24-8.48-7.24-11.06-12.51C660.08,244.02,664.74,247.33,667.32,252.5z"/>
	<path d="M632.79,166.89c-1.52-0.38-0.27,1.57-5.17-14.89C630.1,156.65,633.1,161.1,632.79,166.89z"/>
	<path d="M632.48,271.84c-5.03,0.97-9.81,1.68-15.1,0.93C619.88,272.67,629.31,269.88,632.48,271.84z"/>
	<path d="M584.6,287.14c0-3.93,0.41-5.79,1.96-7.75C589.18,282.08,588.02,285.28,584.6,287.14z"/>
	<path d="M702.08,229.83c-1.56,0.9-13.98,8.11-13.98,6.33C692.98,233.28,705.03,228.14,702.08,229.83z"/>
	<path d="M557.2,241.95c-1.34-4.76-2.79-9.51-4.03-14.27C555.65,232.03,557.1,237.4,557.2,241.95z"/>
	<path d="M685.31,311.75c2.24-0.75,14.47,2.27,11.58,2.27C688.88,313.35,686.72,313.28,685.31,311.75z"/>
	<path d="M635.27,170.3c0.47-2.36,2.87-2.08,4.86,1.65C637.85,172.47,636.2,172.37,635.27,170.3z"/>
	<path d="M685.54,274.54c2-0.42,4.02-0.54,6.5-0.12C684.11,275.62,677.12,276.32,685.54,274.54z"/>
	<path d="M693.89,331.5c-3.31-0.21-6.62,0.31-10.65-1.14C687.38,329.74,690.45,330.85,693.89,331.5z"/>
	<path d="M673.11,266.15c4.62,6.16,5.21,5.88,4.34,6.93C673.94,269.77,673.42,268.94,673.11,266.15z"/>
	<path d="M652.22,268.73c2.48-0.93,4.65-2.27,7.34-2.48C656.69,268.68,655.03,268.97,652.22,268.73z"/>
	<path d="M576.74,180.74c3.03-0.31,4.61,0.89,6.72,2.38C581.4,182.81,579.12,183.33,576.74,180.74z"/>
	<path d="M630.51,182.71c-1.47,4.4-6.86,10.12-3.87,4.94C627.7,185.83,628.96,184.17,630.51,182.71z"/>
	<path d="M687.38,283.62c1.76-0.31,3.52-0.41,5.38,0.41C689.76,284.97,689.76,284.97,687.38,283.62z"/>
	<path d="M721.5,272.97c-0.88,2.91-5.18,9.18-2.79,3.93C719.4,275.38,720.28,274.05,721.5,272.97z"/>
	<path d="M681.49,239.47c0.54,1.08,0.99,0.25-5.89,4.03C676.92,242.18,678.14,240.74,681.49,239.47z"/>
	<path d="M629.48,170.51c-1.37,1.16-0.51,4.14-3.83,4.14C626.79,172.78,627.62,171.23,629.48,170.51z"/>
	<path d="M566.3,203.28c3.72,2.17,3.72,2.17,4.65,4.24C568.37,206.18,568.37,206.18,566.3,203.28z"/>
	<path d="M619.13,266.35c-2.05,0.22-3.84,0.91-5.99,0.83C615.03,265.81,617.24,266.59,619.13,266.35z"/>
	<path d="M566.65,196.07c-0.96-0.45-1.76-1.04-2.21-2.09c0.2-0.2,0.38-0.38,0.58-0.58C565.32,193.09,571.46,198.33,566.65,196.07z"
		/>
	<path d="M647.26,224.17c-0.72-1.24-2.27-2.07-1.65-4.76C646.74,221.27,647.88,222.31,647.26,224.17z"/>
	<path d="M579.64,200.18c-1.85,0.41-3.1,0.31-4.45-1.03C576.85,198.73,578.09,198.73,579.64,200.18z"/>
	<path d="M563.82,276.07c1.76-1.65,3.41-1.24,4.65-2.58C568.7,275.5,569.41,275.24,563.82,276.07z"/>
	<path d="M688.07,236.28c0.55,0.71-2.61,2.26-4.66,2.45C682.16,238.85,687.79,235.71,688.07,236.28z"/>
	<path d="M618.31,206.59c-0.42-1.55-0.1-2.58,0.93-3.83C619.86,204.42,619.34,205.45,618.31,206.59z"/>
	<path d="M650.98,246.3c0.84,0,1.69-0.32,2.52-0.36C655.52,245.84,655.86,247.38,650.98,246.3z"/>
	<path d="M588.12,265.22c0.15,1.5-0.02,2.4-1.34,3.72C586.56,267.25,586.68,266.14,588.12,265.22z"/>
	<path d="M636.42,183.26c0.17,2.16-1.55-0.84-1.35-2.83C635.75,181.59,636.35,182.41,636.42,183.26z"/>
	<path d="M559.37,191.7c-0.09-0.33,0.11-0.63,0.31-1.24C561.99,192.19,560.54,195.78,559.37,191.7z"/>
	<path d="M597.32,306.58c-1.14-0.72-1.55-1.55-1.76-3.41C596.66,304.26,597.53,305.07,597.32,306.58z"/>
	<path d="M624.33,190.54c0.23-0.28,1.15-1.18,1.42-0.91C624.03,193.75,622.23,193.08,624.33,190.54z"/>
	<path d="M737.53,240.51c-0.89,1.02-1.82,1.75-3.41,2.17C734.94,241.92,737.53,239.1,737.53,240.51z"/>
	<path d="M606.73,240.61c-0.49,0.49-0.84,0.34-1.83-0.51C602.12,237.74,606.06,238.94,606.73,240.61z"/>
	<path d="M562.06,266.15c0.62-0.52,1.24-0.93,2.27-0.31C563.61,266.36,563.1,266.87,562.06,266.15z"/>
	<path d="M653.36,260.56c-0.6,0.6-1.27,0.92-2.07,0.62C652.33,260.46,652.33,260.46,653.36,260.56z"/>
	<path d="M584.73,199.75c0.07-0.81,1.31-0.5,1.74,1.36C585.65,200.56,584.66,200.57,584.73,199.75z"/>
	<path d="M581.6,200.08c0.51-0.39,1-0.44,1.65,0.41C582.33,201.11,581.91,200.8,581.6,200.08z"/>
	<path d="M577.26,211.35c-1.34-0.31-2.17-0.52-2.27-2.07C576.02,209.69,576.74,210.11,577.26,211.35z"/>
	<path d="M682.52,285.38c-0.02,0.1,0.32,2.71-0.27,1.73C681.87,286.46,681.97,284,682.52,285.38z"/>
	<path d="M623.07,143.21c-0.97-1.45,1.12-1.28,0.93,1.03C623.48,143.73,623.27,143.52,623.07,143.21z"/>
	<path d="M732.46,244.74c-0.28,0.28-0.95,0.8-1.76,1.45C731.32,244.64,731.63,244.12,732.46,244.74z"/>
	<path d="M601.87,237.2c-1.55,0-2.07-0.52-2.58-1.24C600.73,235.44,600.84,236.37,601.87,237.2z"/>
	<path d="M582.12,213.52c-0.41-0.31-1.24-0.21-1.34-1.03C581.31,211.78,582.92,212.56,582.12,213.52z"/>
	<path d="M599.6,279.8c-0.16,0.95-0.8,1.05-1.76,0.93C598.56,280.11,598.77,279.28,599.6,279.8z"/>
	<path d="M681.38,279.8c-0.76,0.15-1.58-1.41-0.31-1.55C681.07,278.77,681.89,279.17,681.38,279.8z"/>
	<path d="M678.59,270.28c1.03-0.1,1.76-0.21,2.48-0.31C680.45,270.7,679.73,270.59,678.59,270.28z"/>
	<path d="M684.17,269.87c-0.97,0-1.94,0-2.91,0C680.67,269.87,682.09,269.22,684.17,269.87z"/>
	<path d="M724.19,268.53c-0.21,0.72-0.31,1.45-1.34,1.65C723.05,269.46,723.36,268.73,724.19,268.53z"/>
	<path d="M724.49,267.45c1.17-1.61,1.04,0.46-0.28,0.92C723.93,268.51,724.37,267.61,724.49,267.45z"/>
	<path d="M622.78,192.98c1.01-1.04,1.09,1.02-1.25,1.41C622.25,193.96,622.41,193.36,622.78,192.98z"/>
	<path d="M560.41,197.6c-0.62-0.52-1.14-1.03-0.1-1.65C561.13,196.46,561.13,196.98,560.41,197.6z"/>
	<path d="M793.36,218.28c-3,1.86-11.17,2.58-14.48,1.24C784.06,219.1,788.71,218.69,793.36,218.28z"/>
	<path d="M763.58,278.25c-0.52,1.45,0.21,3.41-2.07,4.03c-1.34-0.21-1.86-1.24-2.17-2.69C761.21,277.01,761.21,277.01,763.58,278.25
		z"/>
	<path d="M762.03,260.56c-3.03-1.68-1.96-4.32,0.52-4.65C765.09,257.76,764.77,260.76,762.03,260.56z"/>
	<path d="M816.19,381.24c0.67,0,1.32,0.62,2.4,1.85c-1.02,1.35-2.69,1.15-3.72,1.65C811.98,383.66,815.29,381.24,816.19,381.24z"/>
	<path d="M862.33,371.3c-0.41,1.45-0.83,2.79-1.76,4.03C856.7,376.11,858.64,369.28,862.33,371.3z"/>
	<path d="M799.15,380.71c-5.58-0.83-5.58-0.83-8.07-2.58C792.29,377.65,797.13,379.65,799.15,380.71z"/>
	<path d="M813.84,378.74c-2.17,1.65-2.17,1.65-5.79,0.93C810.33,379.46,811.76,378.03,813.84,378.74z"/>
	<path d="M836.28,373.26c0.55-0.02,1.13,0.03,1.75,0.22C826.73,376.04,834.45,373.33,836.28,373.26z"/>
	<path d="M776.57,279.73c-0.55,1.18,1.11,2.25,0.04,3.78C775.87,282.24,775.73,281.1,776.57,279.73z"/>
	<path d="M716.23,331.39c-4.12,0-3.72,0.04-3.72-0.1C716.63,331.29,716.23,331.24,716.23,331.39z"/>
	<path d="M825.62,374.3c-1.03-0.1-1.96,1.45-3.41,0.72C823.24,373.89,824.38,373.89,825.62,374.3z"/>
	<path d="M805.87,296.96c0.62,0.93,1.03,1.76,0.52,3.21C805.67,298.93,805.15,298.1,805.87,296.96z"/>
	<path d="M814.64,346.42c0.07,1.52-1.21,0.59-1.24-0.13C813.34,344.92,814.61,345.73,814.64,346.42z"/>
	<path d="M805.87,307.82c-0.72-0.31-1.03-0.72-0.41-1.45C806.29,306.68,806.29,307.2,805.87,307.82z"/>
	<path d="M561.44,143.62c0.34-3.02-1.48-6.68,1.34-9.93c1.67,3.48,1.48,8.74-3.83,14.06C559.27,145.59,559.27,145.59,561.44,143.62z
		"/>
	<path d="M529.91,131.21c3.04-4.31,6.64-6.74,10-6.88c2.63-0.1,3.57-0.33-4.21,3.36C533.61,128.69,531.97,130.18,529.91,131.21z"/>
	<path d="M509.74,192.22c1.24-2.58,2.38-5.17,3.62-7.75C513.15,187.46,513.36,190.77,509.74,192.22z"/>
	<path d="M507.36,244.54c-2.27-1.55-3.93-3.62-4.96-6.2C504.68,239.89,506.23,242.06,507.36,244.54z"/>
	<path d="M501.98,231.64c-2.02-0.68-4.27-1.17-5.17-4.06C499.57,227.96,500.7,229.56,501.98,231.64z"/>
	<path d="M502.19,231.72c0.02,0.02,0.06,0.08,0.09,0.11C502.08,231.83,501.85,231.6,502.19,231.72z"/>
	<path d="M537.25,167.2c-1.65,2.17-2.69,0.41-4.76,0C534.56,166.27,535.7,165.54,537.25,167.2z"/>
	<path d="M557.93,118.08c-1.2,0.22-2.48,1.13-3.72-0.31C555.58,116.89,556.84,116.89,557.93,118.08z"/>
	<path d="M514.29,177.74c0.62,1.34,0.21,2.27-1.03,3.41C512.84,179.5,512.64,178.47,514.29,177.74z"/>
	<path d="M513.57,253.22c-0.93-0.62-1.65-1.34-1.86-2.9C514.19,251.39,514.31,253.97,513.57,253.22z"/>
	<path d="M556.63,150.39c-0.06,0.99-0.72,1.5-1.5,2.12C554.91,150.83,556.8,147.74,556.63,150.39z"/>
	<path d="M558.24,320.33c-1.45-0.62-1.55-1.45-1.34-2.9C557.82,318.26,558.55,318.88,558.24,320.33z"/>
	<path d="M528.97,166.37c0.45-0.32,0.94-0.09,1.24,0.3c-0.1,0.21-0.1,0.41-0.1,0.72C528.47,168.49,527.69,166.8,528.97,166.37z"/>
	<path d="M571.57,306.47c-1.24,0.93-1.96,0.83-2.58-0.21C569.82,305.65,570.54,305.85,571.57,306.47z"/>
	<path d="M504.68,233.99c-1.48-0.2-1.74-1.33-2.4-2.16C503.61,231.87,504.38,232.41,504.68,233.99z"/>
	<path d="M504.99,214.97c1.16-0.28,1.94-0.19,2.38,0.93C506.38,216.43,505.68,215.85,504.99,214.97z"/>
	<path d="M528.87,272.46c-1.34-0.62-2.17-1.03-2.48-2.48C527.73,270.39,528.35,270.9,528.87,272.46z"/>
	<path d="M527.63,263.67c0.92,0.29,1.45,0.79,1.34,1.75C528.46,264.91,527.32,264.91,527.63,263.67z"/>
	<path d="M565.57,130.4c-0.14,2.06-2.27,0.51-0.4-1.35C565.46,129.59,565.59,130.03,565.57,130.4z"/>
	<path d="M526.18,166.27c-0.71,0.81-1.31,1.04-2.69,0.41C524.42,165.96,525.05,165.13,526.18,166.27z"/>
	<path d="M513.57,175.68c0-1.06-0.05-1.67,1.03-2.07C514.73,174.48,515.04,175.18,513.57,175.68z"/>
	<path d="M501.88,208.76c1.01-0.62,1.3,0.06,1.95,0.71C502.71,210.11,502.4,209.28,501.88,208.76z"/>
	<path d="M520.08,258.91c-1.08-0.26-1.7-0.64-1.24-1.65C519.67,257.46,520.08,257.88,520.08,258.91z"/>
	<path d="M526.8,409.77c-0.19-0.28-0.6-1.08-0.62-1.14C531.66,405.81,568.9,391.61,526.8,409.77z"/>
	<path d="M581.91,360.14c2.38-5.69,4.34-11.48,5.79-17.58C588.12,347.42,585.02,356.72,581.91,360.14z"/>
	<path d="M606.52,402.74c-1.96,0.1-3.1-0.62-5.17-1.14C603.57,401.29,604.71,401.88,606.52,402.74z"/>
	<path d="M575.3,380.82c0.72-1.65,0.83-2.9,2.07-3.62C577.16,378.44,576.85,379.68,575.3,380.82z"/>
	<path d="M578.61,373.58c-0.09,1.28-0.18,2.74-1.33,3.52C577.16,375.8,577.82,374.65,578.61,373.58z"/>
	<path d="M586.98,378.96c-0.62,1.03-1.14,1.45-2.17,0.72C585.54,379.68,585.71,378.45,586.98,378.96z"/>
	<path d="M576.8,388.42c-0.44,0.32-1.07-0.04,0.05-1.6C577.21,387.54,577.34,388.03,576.8,388.42z"/>
	<path d="M592.15,370.79c3.41-2.9,13.96-6.31,19.44-6.1C606.73,367.48,594.74,371.1,592.15,370.79z"/>
	<path d="M596.91,376.99c4.03-2.48,8.07-5.17,13.23-5.38C605.59,373.16,601.56,375.85,596.91,376.99z"/>
	<path d="M838.55,361.17c-1.91-2.29-3.94-4.18-1.66-6.8C841.36,349.88,849.28,356.97,838.55,361.17z M838.03,358.07
		c1.15-0.57,2.2-0.47,3.1,0.21C845.06,354.35,835.33,352.68,838.03,358.07z"/>
	<path d="M851.58,342.46c-2.17-0.72-3.18-2.09-4.45-3.21c-1.32-1.16-3.31-1.45-4.34-3.21c2.69-2.17,4.46-0.02,6.2,1.24
		C850.55,338.41,852.71,339.35,851.58,342.46z"/>
	<path d="M843.69,354.38C843.89,354.51,843.79,354.48,843.69,354.38L843.69,354.38z"/>
	<path d="M843.72,354.44v0.01c-0.04-0.04-0.08-0.03-0.08-0.09l-0.02-0.01c0.02,0-0.06-0.21,0.07,0.03L843.72,354.44z"/>
	<path d="M851.47,351.97c-2.17,4.23-3.41,4.6-7.65,2.48c0-1.24-0.41-2.58,0.1-3.83C847.27,346.98,849.96,347.09,851.47,351.97z
		 M845.41,351.6c-0.54,3.3,4.35,3.49,4.3-0.05C849.68,349.41,845.65,348.95,845.41,351.6z"/>
	<path d="M853.94,351.93c-0.75,0.25,1.2-0.31-3.3-4.09c-0.41-2.9,2.07-3.31,4.14-4.65c6.78,9.95,1.3,5.25,0.72,5.58
		C854.19,349.37,855.34,351.27,853.94,351.93z M855.3,346.59c-0.97-1.21-0.74-1.03-0.92-1.02
		C850.92,345.62,852.78,350.18,855.3,346.59z"/>
	<path d="M849.92,332.53c3.52-0.1,4.76,1.96,6.41,4.96C852.92,336.67,851.06,335.42,849.92,332.53z"/>
	<path d="M854.06,330.36c2.12-0.41,3.18,0.26,4.14,2.07C856.14,333.04,854.98,332.23,854.06,330.36z"/>
	<path d="M632.68,463.12c0.83,2.27,1.14,5.38,0.72,8.58C632.99,468.39,632.27,466.02,632.68,463.12z"/>
	<path d="M623.07,459.4c1.34-0.41,2.48,0,3.72,1.03C625.13,460.95,624.1,460.12,623.07,459.4z"/>
	<path d="M634.54,461.99c-0.34-0.8,1.29-2.26,1.64-2.22C637.14,459.77,635.24,462.34,634.54,461.99z"/>
<path fill="#e6e6e6" d="m206.8 163.6c0-5.1 4.1-9.2 9.3-9.2s9.2 4.2 9.2 9.2-4.1 9.2-9.3 9.2-9.2-4.1-9.2-9.2zm17.3-.1c0-4.5-3.5-8.2-8.2-8.2s-8.2 3.7-8.2 8.3c0 4.5 3.5 8.2 8.2 8.2s8.2-3.7 8.2-8.3zm-13 0c0-2.8 2.1-5.1 5.1-5.1 1.9 0 2.9.6 3.9 1.5l-1.4 1.7c-.8-.7-1.5-1.1-2.5-1.1-1.7 0-2.8 1.4-2.8 3.1s1.1 3 2.8 3c1.1 0 1.7-.5 2.5-1.1l1.4 1.4c-1.1 1.1-2.1 1.7-4 1.7-2.9 0-5-2.3-5-5.1z"/><path fill="#e6e6e6" d="m226.6 154.7h3.4l4.2 13.2 4.4-13.3h2.6l4.4 13.3 4.2-13.2h3.3l-6.2 18h-2.7l-4.4-12.8-4.4 12.8h-2.7z"/><path fill="#e6e6e6" d="m252.8 165.8c0-3.9 3.1-7 7.2-7 4.2 0 7.2 3.2 7.2 7s-3.1 7-7.3 7c-4 0-7.1-3.1-7.1-7zm11.3 0c0-2.3-1.7-4.3-4.2-4.3s-4.1 2-4.1 4.3 1.7 4.3 4.1 4.3c2.7.1 4.2-1.9 4.2-4.3z"/><path fill="#e6e6e6" d="m269.5 159.1h3.1v3c.8-2 2.4-3.4 4.8-3.3v3.2h-.2c-2.7 0-4.6 1.7-4.6 5.4v5.1h-3.1z"/><path fill="#e6e6e6" d="m279.1 153.9h3.1v11.1l5.6-6h3.8l-5.4 5.5 5.5 8h-3.5l-4.1-5.8-1.9 2v3.9h-3.1z"/><path fill="#e6e6e6" d="m291.7 165.8c0-3.9 3.1-7 7.2-7 4.2 0 7.2 3.2 7.2 7s-3.1 7-7.3 7c-4 0-7.1-3.1-7.1-7zm11.3 0c0-2.3-1.7-4.3-4.2-4.3s-4.1 2-4.1 4.3 1.7 4.3 4.1 4.3c2.6.1 4.2-1.9 4.2-4.3z"/><path fill="#e6e6e6" d="m308.2 167.6v-8.6h3.1v7.6c0 2.1 1.1 3.3 2.9 3.3s3-1.3 3-3.3v-7.6h3.1v13.4h-3.1v-2.1c-.8 1.3-2.1 2.3-4.2 2.3-3.1.2-4.8-1.8-4.8-5z"/><path fill="#e6e6e6" d="m323.9 168.8v-7.1h-1.7v-2.6h1.7v-3.7h3.1v3.7h3.6v2.6h-3.6v6.6c0 1.2.6 1.7 1.7 1.7.7 0 1.3-.2 1.9-.5v2.5c-.8.5-1.7.7-2.8.7-2.3 0-3.9-.9-3.9-3.9z"/><path fill="#e6e6e6" d="m333.2 154.7h3.2v15h9.4v2.9h-12.5v-17.9z"/><path fill="#e6e6e6" d="m356 172.5v-1.7c-.9 1.1-2.3 2-4.4 2-2.6 0-4.8-1.4-4.8-4.2 0-3 2.3-4.4 5.4-4.4 1.7 0 2.6.2 3.7.5v-.2c0-1.9-1.2-2.9-3.3-2.9-1.5 0-2.6.3-3.9.8l-.8-2.5c1.5-.7 2.9-1.1 5.1-1.1 4 0 5.9 2.1 5.9 5.7v8zm.1-5.6c-.8-.3-1.9-.5-3.1-.5-2 0-3.1.8-3.1 2.1s1.1 2 2.6 2c2 0 3.5-1.1 3.5-2.9z"/><path fill="#e6e6e6" d="m364.9 170.5v2.1h-3.1v-18.7h3.1v7.4c1-1.4 2.4-2.5 4.5-2.5 3.2 0 6.3 2.5 6.3 7s-3.1 7-6.3 7c-2.1 0-3.5-1.1-4.5-2.3zm7.7-4.7c0-2.6-1.7-4.3-3.9-4.3s-3.9 1.7-3.9 4.4c0 2.6 1.8 4.3 3.9 4.3s3.9-1.7 3.9-4.4z"/><path fill="#e6e6e6" d="m376.9 170.8 1.4-2.1c1.4 1.1 3 1.7 4.4 1.7s2.1-.5 2.1-1.5-1.3-1.4-2.8-1.8c-.1 0-.2-.1-.2-.1-2-.6-4.2-1.4-4.2-4s2.1-4.1 4.8-4.1c1.7 0 3.5.6 5 1.5l-1.2 2.2c-1.3-.8-2.6-1.3-3.8-1.3s-1.9.5-1.9 1.4 1.3 1.4 2.8 1.8c.1 0 .2.1.2.1 2 .6 4.2 1.5 4.2 4 0 2.9-2.2 4.2-5 4.2-1.9 0-4-.7-5.8-2z"/><path fill="#e6e6e6" d="m505.6 163.6c0-5.1 4.1-9.2 9.3-9.2s9.2 4.2 9.2 9.2-4.1 9.2-9.3 9.2-9.2-4.1-9.2-9.2zm17.4-.1c0-4.5-3.5-8.2-8.2-8.2s-8.2 3.7-8.2 8.3c0 4.5 3.5 8.2 8.2 8.2s8.2-3.7 8.2-8.3zm-13.1 0c0-2.8 2.1-5.1 5.1-5.1 1.9 0 2.9.6 3.9 1.5l-1.4 1.7c-.8-.7-1.5-1.1-2.5-1.1-1.7 0-2.8 1.4-2.8 3.1s1.1 3 2.8 3c1.1 0 1.7-.5 2.5-1.1l1.4 1.4c-1.1 1.1-2.1 1.7-4 1.7-2.9 0-5-2.3-5-5.1z"/><path fill="#e6e6e6" d="m525.4 154.7h3.4l4.2 13.2 4.4-13.3h2.6l4.4 13.3 4.2-13.2h3.3l-6.2 18h-2.7l-4.4-12.8-4.4 12.8h-2.7z"/><path fill="#e6e6e6" d="m551.7 165.8c0-3.9 3.1-7 7.2-7 4.2 0 7.2 3.2 7.2 7s-3.1 7-7.3 7c-4.1 0-7.1-3.1-7.1-7zm11.2 0c0-2.3-1.7-4.3-4.2-4.3s-4.1 2-4.1 4.3 1.7 4.3 4.1 4.3c2.7.1 4.2-1.9 4.2-4.3z"/><path fill="#e6e6e6" d="m568.3 159.1h3.1v3c.8-2 2.4-3.4 4.8-3.3v3.2h-.2c-2.7 0-4.6 1.7-4.6 5.4v5.1h-3.1z"/><path fill="#e6e6e6" d="m577.9 153.9h3.1v11.1l5.6-6h3.8l-5.4 5.5 5.5 8h-3.5l-4.1-5.8-1.9 2v3.9h-3.1z"/><path fill="#e6e6e6" d="m590.6 165.8c0-3.9 3.1-7 7.2-7 4.2 0 7.2 3.2 7.2 7s-3.1 7-7.3 7c-4.1 0-7.1-3.1-7.1-7zm11.2 0c0-2.3-1.7-4.3-4.2-4.3s-4.1 2-4.1 4.3 1.7 4.3 4.1 4.3c2.6.1 4.2-1.9 4.2-4.3z"/><path fill="#e6e6e6" d="m607 167.6v-8.6h3.1v7.6c0 2.1 1.1 3.3 2.9 3.3s3-1.3 3-3.3v-7.6h3.1v13.4h-3.1v-2.1c-.8 1.3-2.1 2.3-4.2 2.3-3 .2-4.8-1.8-4.8-5z"/><path fill="#e6e6e6" d="m622.7 168.8v-7.1h-1.7v-2.6h1.7v-3.7h3.1v3.7h3.6v2.6h-3.6v6.6c0 1.2.6 1.7 1.7 1.7.7 0 1.3-.2 1.9-.5v2.5c-.8.5-1.7.7-2.8.7-2.3 0-3.9-.9-3.9-3.9z"/><path fill="#e6e6e6" d="m632 154.7h3.2v15h9.4v2.9h-12.6z"/><path fill="#e6e6e6" d="m654.8 172.5v-1.7c-.9 1.1-2.3 2-4.4 2-2.6 0-4.8-1.4-4.8-4.2 0-3 2.3-4.4 5.4-4.4 1.7 0 2.6.2 3.7.5v-.2c0-1.9-1.2-2.9-3.3-2.9-1.5 0-2.6.3-3.9.8l-.8-2.5c1.5-.7 2.9-1.1 5.1-1.1 4 0 5.9 2.1 5.9 5.7v8zm.1-5.6c-.8-.3-1.9-.5-3.1-.5-2 0-3.1.8-3.1 2.1s1.1 2 2.6 2c2 0 3.5-1.1 3.5-2.9z"/><path fill="#e6e6e6" d="m663.7 170.5v2.1h-3.1v-18.7h3.1v7.4c1-1.4 2.4-2.5 4.5-2.5 3.2 0 6.3 2.5 6.3 7s-3.1 7-6.3 7c-2.1 0-3.5-1.1-4.5-2.3zm7.8-4.7c0-2.6-1.7-4.3-3.9-4.3-2.1 0-3.9 1.7-3.9 4.4 0 2.6 1.8 4.3 3.9 4.3s3.9-1.7 3.9-4.4z"/><path fill="#e6e6e6" d="m675.8 170.8 1.4-2.1c1.4 1.1 3 1.7 4.4 1.7s2.1-.5 2.1-1.5-1.3-1.4-2.8-1.8c-.1 0-.2-.1-.2-.1-2-.6-4.2-1.4-4.2-4s2.1-4.1 4.8-4.1c1.7 0 3.5.6 5 1.5l-1.2 2.2c-1.3-.8-2.6-1.3-3.8-1.3s-1.9.5-1.9 1.4 1.3 1.4 2.8 1.8c.1 0 .2.1.2.1 2 .6 4.2 1.5 4.2 4 0 2.9-2.2 4.2-5 4.2-2 0-4.1-.7-5.8-2z"/><path fill="#e6e6e6" d="m61 298.6c0-5.1 4.1-9.2 9.3-9.2s9.2 4.2 9.2 9.2-4.1 9.2-9.3 9.2c-5.1 0-9.2-4.2-9.2-9.2zm17.4-.1c0-4.5-3.5-8.2-8.2-8.2s-8.2 3.7-8.2 8.3c0 4.5 3.5 8.2 8.2 8.2s8.2-3.7 8.2-8.3zm-13.1-.1c0-2.8 2.1-5.1 5.1-5.1 1.9 0 2.9.6 3.9 1.5l-1.4 1.7c-.8-.7-1.5-1.1-2.5-1.1-1.7 0-2.8 1.4-2.8 3.1s1.1 3 2.8 3c1.1 0 1.7-.5 2.5-1.1l1.4 1.4c-1.1 1.1-2.1 1.7-4 1.7-2.8.1-5-2.2-5-5.1z"/><path fill="#e6e6e6" d="m80.9 289.7h3.4l4.2 13.2 4.4-13.3h2.6l4.4 13.3 4.2-13.2h3.3l-6.2 18h-2.7l-4.4-12.8-4.4 12.8h-2.7z"/><path fill="#e6e6e6" d="m107.1 300.8c0-3.9 3.1-7 7.2-7s7.2 3.2 7.2 7-3.1 7-7.3 7c-4 0-7.1-3.1-7.1-7zm11.3 0c0-2.3-1.7-4.3-4.2-4.3s-4.1 2-4.1 4.3 1.7 4.3 4.1 4.3c2.6.1 4.2-1.9 4.2-4.3z"/><path fill="#e6e6e6" d="m123.7 294h3.1v3c.8-2 2.4-3.4 4.8-3.3v3.2h-.2c-2.7 0-4.6 1.7-4.6 5.4v5.1h-3.1z"/><path fill="#e6e6e6" d="m133.4 288.9h3.1v11.1l5.6-6h3.8l-5.4 5.5 5.5 8h-3.5l-4.1-5.8-1.9 1.9v3.9h-3.1z"/><path fill="#e6e6e6" d="m146 300.8c0-3.9 3.1-7 7.2-7s7.2 3.2 7.2 7-3.1 7-7.3 7c-4.1 0-7.1-3.1-7.1-7zm11.2 0c0-2.3-1.7-4.3-4.2-4.3s-4.1 2-4.1 4.3 1.7 4.3 4.1 4.3c2.6.1 4.2-1.9 4.2-4.3z"/><path fill="#e6e6e6" d="m162.4 302.6v-8.6h3.1v7.6c0 2.1 1.1 3.3 2.9 3.3s3-1.3 3-3.3v-7.6h3.1v13.4h-3.1v-2.1c-.8 1.3-2.1 2.3-4.2 2.3-3 .2-4.8-1.8-4.8-5z"/><path fill="#e6e6e6" d="m178.1 303.8v-7.1h-1.7v-2.7h1.7v-3.7h3.1v3.7h3.6v2.6h-3.6v6.6c0 1.2.6 1.7 1.7 1.7.7 0 1.3-.2 1.9-.5v2.5c-.8.5-1.7.7-2.8.7-2.3.1-3.9-.9-3.9-3.8z"/><path fill="#e6e6e6" d="m187.4 289.7h3.2v15h9.4v2.9h-12.5v-17.9z"/><path fill="#e6e6e6" d="m210.2 307.5v-1.7c-.9 1.1-2.3 2-4.4 2-2.6 0-4.8-1.4-4.8-4.2 0-3 2.3-4.4 5.4-4.4 1.7 0 2.6.2 3.7.5v-.2c0-1.9-1.2-2.9-3.3-2.9-1.5 0-2.6.3-3.9.8l-.8-2.5c1.5-.7 2.9-1.1 5.1-1.1 4 0 5.9 2.1 5.9 5.7v8zm.1-5.6c-.8-.3-1.9-.5-3.1-.5-2 0-3.1.8-3.1 2.1s1.1 2 2.6 2c2 0 3.5-1.1 3.5-2.9z"/><path fill="#e6e6e6" d="m219.2 305.5v2.1h-3.1v-18.7h3.1v7.4c1-1.4 2.4-2.5 4.5-2.5 3.2 0 6.3 2.5 6.3 7s-3.1 7-6.3 7c-2.2 0-3.6-1.1-4.5-2.3zm7.7-4.7c0-2.6-1.7-4.3-3.9-4.3s-3.9 1.7-3.9 4.4c0 2.6 1.8 4.3 3.9 4.3s3.9-1.7 3.9-4.4z"/><path fill="#e6e6e6" d="m231.2 305.8 1.4-2.1c1.4 1.1 3 1.7 4.4 1.7s2.1-.5 2.1-1.5-1.3-1.4-2.8-1.8c-.1 0-.2-.1-.2-.1-2-.6-4.2-1.4-4.2-4s2.1-4.1 4.8-4.1c1.7 0 3.5.6 5 1.5l-1.2 2.2c-1.3-.8-2.6-1.3-3.8-1.3s-1.9.5-1.9 1.4 1.3 1.4 2.8 1.8c.1 0 .2.1.2.1 2 .6 4.2 1.5 4.2 4 0 2.9-2.2 4.2-5 4.2-2 0-4.1-.7-5.8-2z"/><path fill="#e6e6e6" d="m360.6 298.6c0-5.1 4.1-9.2 9.3-9.2s9.2 4.2 9.2 9.2-4.1 9.2-9.3 9.2-9.2-4.2-9.2-9.2zm17.4-.1c0-4.5-3.5-8.2-8.2-8.2s-8.2 3.7-8.2 8.3c0 4.5 3.5 8.2 8.2 8.2s8.2-3.7 8.2-8.3zm-13.1-.1c0-2.8 2.1-5.1 5.1-5.1 1.9 0 2.9.6 3.9 1.5l-1.4 1.7c-.8-.7-1.5-1.1-2.5-1.1-1.7 0-2.8 1.4-2.8 3.1s1.1 3 2.8 3c1.1 0 1.7-.5 2.5-1.1l1.4 1.4c-1.1 1.1-2.1 1.7-4 1.7-2.8.1-5-2.2-5-5.1z"/><path fill="#e6e6e6" d="m380.5 289.7h3.4l4.2 13.2 4.4-13.3h2.6l4.4 13.3 4.2-13.2h3.3l-6.2 18h-2.7l-4.4-12.8-4.4 12.8h-2.7z"/><path fill="#e6e6e6" d="m406.7 300.8c0-3.9 3.1-7 7.2-7 4.2 0 7.2 3.2 7.2 7s-3.1 7-7.3 7c-4.1 0-7.1-3.1-7.1-7zm11.3 0c0-2.3-1.7-4.3-4.2-4.3s-4.1 2-4.1 4.3 1.7 4.3 4.1 4.3c2.7.1 4.2-1.9 4.2-4.3z"/><path fill="#e6e6e6" d="m423.3 294h3.1v3c.8-2 2.4-3.4 4.8-3.3v3.2h-.2c-2.7 0-4.6 1.7-4.6 5.4v5.1h-3.1z"/><path fill="#e6e6e6" d="m433 288.9h3.1v11.1l5.6-6h3.8l-5.4 5.5 5.5 8h-3.5l-4.1-5.8-1.9 2v3.9h-3.1z"/><path fill="#e6e6e6" d="m445.6 300.8c0-3.9 3.1-7 7.2-7 4.2 0 7.2 3.2 7.2 7s-3.1 7-7.3 7c-4.1 0-7.1-3.1-7.1-7zm11.3 0c0-2.3-1.7-4.3-4.2-4.3s-4.1 2-4.1 4.3 1.7 4.3 4.1 4.3c2.6.1 4.2-1.9 4.2-4.3z"/><path fill="#e6e6e6" d="m462.1 302.6v-8.6h3.1v7.6c0 2.1 1.1 3.3 2.9 3.3s3-1.3 3-3.3v-7.6h3.1v13.4h-3.1v-2.1c-.8 1.3-2.1 2.3-4.2 2.3-3.1.2-4.8-1.8-4.8-5z"/><path fill="#e6e6e6" d="m477.8 303.8v-7.1h-1.8v-2.7h1.7v-3.7h3.1v3.7h3.6v2.6h-3.6v6.6c0 1.2.6 1.7 1.7 1.7.7 0 1.3-.2 1.9-.5v2.5c-.8.5-1.7.7-2.8.7-2.2.1-3.8-.9-3.8-3.8z"/><path fill="#e6e6e6" d="m487.1 289.7h3.2v15h9.4v2.9h-12.5v-17.9z"/><path fill="#e6e6e6" d="m509.9 307.5v-1.7c-.9 1.1-2.3 2-4.4 2-2.6 0-4.8-1.4-4.8-4.2 0-3 2.3-4.4 5.4-4.4 1.7 0 2.6.2 3.7.5v-.2c0-1.9-1.2-2.9-3.3-2.9-1.5 0-2.6.3-3.9.8l-.8-2.5c1.5-.7 2.9-1.1 5.1-1.1 4 0 5.9 2.1 5.9 5.7v8zm.1-5.6c-.8-.3-1.9-.5-3.1-.5-2 0-3.1.8-3.1 2.1s1.1 2 2.6 2c2 0 3.5-1.1 3.5-2.9z"/><path fill="#e6e6e6" d="m518.8 305.5v2.1h-3.1v-18.7h3.1v7.4c1-1.4 2.4-2.5 4.5-2.5 3.2 0 6.3 2.5 6.3 7s-3.1 7-6.3 7c-2.2 0-3.5-1.1-4.5-2.3zm7.7-4.7c0-2.6-1.7-4.3-3.9-4.3s-3.9 1.7-3.9 4.4c0 2.6 1.8 4.3 3.9 4.3s3.9-1.7 3.9-4.4z"/><path fill="#e6e6e6" d="m530.8 305.8 1.4-2.1c1.4 1.1 3 1.7 4.4 1.7s2.1-.5 2.1-1.5-1.3-1.4-2.8-1.8c-.1 0-.2-.1-.2-.1-2-.6-4.2-1.4-4.2-4s2.1-4.1 4.8-4.1c1.7 0 3.5.6 5 1.5l-1.2 2.2c-1.3-.8-2.6-1.3-3.8-1.3s-1.9.5-1.9 1.4 1.3 1.4 2.8 1.8c.1 0 .2.1.2.1 2 .6 4.2 1.5 4.2 4 0 2.9-2.2 4.2-5 4.2-1.9 0-4.1-.7-5.8-2z"/><path fill="#e6e6e6" d="m659.5 298.6c0-5.1 4.1-9.2 9.3-9.2s9.2 4.2 9.2 9.2-4.1 9.2-9.3 9.2-9.2-4.2-9.2-9.2zm17.3-.1c0-4.5-3.5-8.2-8.2-8.2s-8.2 3.7-8.2 8.3c0 4.5 3.5 8.2 8.2 8.2 4.8 0 8.2-3.7 8.2-8.3zm-13-.1c0-2.8 2.1-5.1 5.1-5.1 1.9 0 2.9.6 3.9 1.5l-1.4 1.7c-.8-.7-1.5-1.1-2.5-1.1-1.7 0-2.8 1.4-2.8 3.1s1.1 3 2.8 3c1.1 0 1.7-.5 2.5-1.1l1.4 1.4c-1.1 1.1-2.1 1.7-4 1.7-2.9.1-5-2.2-5-5.1z"/><path fill="#e6e6e6" d="m679.3 289.7h3.4l4.2 13.2 4.4-13.3h2.6l4.4 13.3 4.2-13.2h3.3l-6.2 18h-2.6l-4.4-12.8-4.4 12.8h-2.7z"/><path fill="#e6e6e6" d="m705.5 300.8c0-3.9 3.1-7 7.2-7 4.2 0 7.2 3.2 7.2 7s-3.1 7-7.3 7c-4 0-7.1-3.1-7.1-7zm11.3 0c0-2.3-1.7-4.3-4.2-4.3s-4.1 2-4.1 4.3 1.7 4.3 4.1 4.3c2.7.1 4.2-1.9 4.2-4.3z"/><path fill="#e6e6e6" d="m722.1 294h3.1v3c.8-2 2.4-3.4 4.8-3.3v3.2h-.2c-2.7 0-4.6 1.7-4.6 5.4v5.1h-3.1z"/><path fill="#e6e6e6" d="m731.8 288.9h3.1v11.1l5.6-6h3.8l-5.4 5.5 5.5 8h-3.5l-4.1-5.8-1.9 2v3.9h-3.1z"/><path fill="#e6e6e6" d="m744.4 300.8c0-3.9 3.1-7 7.2-7 4.2 0 7.2 3.2 7.2 7s-3.1 7-7.3 7c-4.1 0-7.1-3.1-7.1-7zm11.3 0c0-2.3-1.7-4.3-4.2-4.3s-4.1 2-4.1 4.3 1.7 4.3 4.1 4.3c2.6.1 4.2-1.9 4.2-4.3z"/><path fill="#e6e6e6" d="m760.9 302.6v-8.6h3.1v7.6c0 2.1 1.1 3.3 2.9 3.3s3-1.3 3-3.3v-7.6h3.1v13.4h-3.1v-2.1c-.8 1.3-2.1 2.3-4.2 2.3-3.1.2-4.8-1.8-4.8-5z"/><path fill="#e6e6e6" d="m776.6 303.8v-7.1h-1.7v-2.7h1.7v-3.7h3.1v3.7h3.6v2.6h-3.6v6.6c0 1.2.6 1.7 1.7 1.7.7 0 1.3-.2 1.9-.5v2.5c-.8.5-1.7.7-2.8.7-2.3.1-3.9-.9-3.9-3.8z"/><path fill="#e6e6e6" d="m785.9 289.7h3.2v15h9.4v2.9h-12.5v-17.9z"/><path fill="#e6e6e6" d="m808.7 307.5v-1.7c-.9 1.1-2.3 2-4.4 2-2.6 0-4.8-1.4-4.8-4.2 0-3 2.3-4.4 5.4-4.4 1.7 0 2.6.2 3.7.5v-.2c0-1.9-1.2-2.9-3.3-2.9-1.5 0-2.6.3-3.9.8l-.8-2.5c1.5-.7 2.9-1.1 5.1-1.1 4 0 5.9 2.1 5.9 5.7v8zm.1-5.6c-.8-.3-1.9-.5-3.1-.5-2 0-3.1.8-3.1 2.1s1.1 2 2.6 2c2 0 3.5-1.1 3.5-2.9z"/><path fill="#e6e6e6" d="m817.6 305.5v2.1h-3.1v-18.7h3.1v7.4c1-1.4 2.4-2.5 4.5-2.5 3.2 0 6.3 2.5 6.3 7s-3.1 7-6.3 7c-2.1 0-3.5-1.1-4.5-2.3zm7.7-4.7c0-2.6-1.7-4.3-3.9-4.3-2.1 0-3.9 1.7-3.9 4.4 0 2.6 1.8 4.3 3.9 4.3 2.2 0 3.9-1.7 3.9-4.4z"/><path fill="#e6e6e6" d="m829.6 305.8 1.4-2.1c1.4 1.1 3 1.7 4.4 1.7s2.1-.5 2.1-1.5-1.3-1.4-2.8-1.8c-.1 0-.2-.1-.2-.1-2-.6-4.2-1.4-4.2-4s2.1-4.1 4.8-4.1c1.7 0 3.5.6 5 1.5l-1.2 2.2c-1.3-.8-2.6-1.3-3.8-1.3s-1.9.5-1.9 1.4 1.3 1.4 2.8 1.8c.1 0 .2.1.2.1 2 .6 4.2 1.5 4.2 4 0 2.9-2.2 4.2-5 4.2-1.9 0-4-.7-5.8-2z"/><path fill="#e6e6e6" d="m206.3 434.2c0-5.1 4.1-9.2 9.3-9.2s9.2 4.2 9.2 9.2-4.1 9.2-9.3 9.2-9.2-4.1-9.2-9.2zm17.4-.1c0-4.5-3.5-8.2-8.2-8.2s-8.2 3.7-8.2 8.3c0 4.5 3.5 8.2 8.2 8.2s8.2-3.7 8.2-8.3zm-13.1-.1c0-2.8 2.1-5.1 5.1-5.1 1.9 0 2.9.6 3.9 1.5l-1.4 1.7c-.8-.7-1.5-1.1-2.5-1.1-1.7 0-2.8 1.4-2.8 3.1s1.1 3 2.8 3c1.1 0 1.7-.5 2.5-1.1l1.4 1.4c-1.1 1.1-2.1 1.7-4 1.7-2.9.1-5-2.2-5-5.1z"/><path fill="#e6e6e6" d="m226.1 425.3h3.4l4.2 13.2 4.4-13.3h2.6l4.4 13.3 4.2-13.2h3.3l-6.2 18h-2.7l-4.4-12.8-4.4 12.8h-2.7z"/><path fill="#e6e6e6" d="m252.4 436.4c0-3.9 3.1-7 7.2-7 4.2 0 7.2 3.2 7.2 7s-3.1 7-7.3 7c-4.1 0-7.1-3.1-7.1-7zm11.2 0c0-2.3-1.7-4.3-4.2-4.3s-4.1 2-4.1 4.3 1.7 4.3 4.1 4.3c2.7.1 4.2-1.9 4.2-4.3z"/><path fill="#e6e6e6" d="m269 429.7h3.1v3c.8-2 2.4-3.4 4.8-3.3v3.2h-.2c-2.7 0-4.6 1.7-4.6 5.4v5.1h-3.1z"/><path fill="#e6e6e6" d="m278.6 424.5h3.1v11.1l5.6-6h3.8l-5.4 5.5 5.5 8h-3.5l-4.1-5.8-1.9 2v3.9h-3.1z"/><path fill="#e6e6e6" d="m291.3 436.4c0-3.9 3.1-7 7.2-7 4.2 0 7.2 3.2 7.2 7s-3.1 7-7.3 7c-4.1 0-7.1-3.1-7.1-7zm11.2 0c0-2.3-1.7-4.3-4.2-4.3s-4.1 2-4.1 4.3 1.7 4.3 4.1 4.3c2.6.1 4.2-1.9 4.2-4.3z"/><path fill="#e6e6e6" d="m307.7 438.2v-8.6h3.1v7.6c0 2.1 1.1 3.3 2.9 3.3s3-1.3 3-3.3v-7.6h3.1v13.4h-3.1v-2.1c-.8 1.3-2.1 2.3-4.2 2.3-3 .2-4.8-1.8-4.8-5z"/><path fill="#e6e6e6" d="m323.4 439.4v-7.1h-1.7v-2.6h1.7v-3.7h3.1v3.7h3.6v2.6h-3.6v6.6c0 1.2.6 1.7 1.7 1.7.7 0 1.3-.2 1.9-.5v2.5c-.8.5-1.7.7-2.8.7-2.3 0-3.9-.9-3.9-3.9z"/><path fill="#e6e6e6" d="m332.7 425.3h3.2v15h9.4v2.9h-12.5v-17.9z"/><path fill="#e6e6e6" d="m355.5 443.1v-1.7c-.9 1.1-2.3 2-4.4 2-2.6 0-4.8-1.4-4.8-4.2 0-3 2.3-4.4 5.4-4.4 1.7 0 2.6.2 3.7.5v-.2c0-1.9-1.2-2.9-3.3-2.9-1.5 0-2.6.3-3.9.8l-.8-2.5c1.5-.7 2.9-1.1 5.1-1.1 4 0 5.9 2.1 5.9 5.7v8zm.1-5.6c-.8-.3-1.9-.5-3.1-.5-2 0-3.1.8-3.1 2.1s1.1 2 2.6 2c2 0 3.5-1.1 3.5-2.9z"/><path fill="#e6e6e6" d="m364.4 441.1v2.1h-3.1v-18.7h3.1v7.4c1-1.4 2.4-2.5 4.5-2.5 3.2 0 6.3 2.5 6.3 7s-3.1 7-6.3 7c-2.1 0-3.5-1.1-4.5-2.3zm7.7-4.7c0-2.6-1.7-4.3-3.9-4.3-2.1 0-3.9 1.7-3.9 4.4 0 2.6 1.8 4.3 3.9 4.3 2.2 0 3.9-1.7 3.9-4.4z"/><path fill="#e6e6e6" d="m376.5 441.4 1.4-2.1c1.4 1.1 3 1.7 4.4 1.7s2.1-.5 2.1-1.5-1.3-1.4-2.8-1.8c-.1 0-.2-.1-.2-.1-2-.6-4.2-1.4-4.2-4s2.1-4.1 4.8-4.1c1.7 0 3.5.6 5 1.5l-1.2 2.2c-1.3-.8-2.6-1.3-3.8-1.3s-1.9.5-1.9 1.4 1.3 1.4 2.8 1.8c.1 0 .2.1.2.1 2 .6 4.2 1.5 4.2 4 0 2.9-2.2 4.2-5 4.2-2 0-4.1-.7-5.8-2z"/><path fill="#e6e6e6" d="m505.1 434.2c0-5.1 4.1-9.2 9.3-9.2s9.2 4.2 9.2 9.2-4.1 9.2-9.3 9.2-9.2-4.1-9.2-9.2zm17.4-.1c0-4.5-3.5-8.2-8.2-8.2s-8.2 3.7-8.2 8.3c0 4.5 3.5 8.2 8.2 8.2s8.2-3.7 8.2-8.3zm-13.1-.1c0-2.8 2.1-5.1 5.1-5.1 1.9 0 2.9.6 3.9 1.5l-1.4 1.7c-.8-.7-1.5-1.1-2.5-1.1-1.7 0-2.8 1.4-2.8 3.1s1.1 3 2.8 3c1.1 0 1.7-.5 2.5-1.1l1.4 1.4c-1.1 1.1-2.1 1.7-4 1.7-2.9.1-5-2.2-5-5.1z"/><path fill="#e6e6e6" d="m525 425.3h3.4l4.2 13.2 4.4-13.3h2.6l4.4 13.3 4.2-13.2h3.3l-6.2 18h-2.7l-4.4-12.8-4.4 12.8h-2.7z"/><path fill="#e6e6e6" d="m551.2 436.4c0-3.9 3.1-7 7.2-7 4.2 0 7.2 3.2 7.2 7s-3.1 7-7.3 7c-4.1 0-7.1-3.1-7.1-7zm11.2 0c0-2.3-1.7-4.3-4.2-4.3s-4.1 2-4.1 4.3 1.7 4.3 4.1 4.3c2.7.1 4.2-1.9 4.2-4.3z"/><path fill="#e6e6e6" d="m567.8 429.7h3.1v3c.8-2 2.4-3.4 4.8-3.3v3.2h-.2c-2.7 0-4.6 1.7-4.6 5.4v5.1h-3.1z"/><path fill="#e6e6e6" d="m577.5 424.5h3.1v11.1l5.6-6h3.8l-5.4 5.5 5.5 8h-3.5l-4.1-5.8-1.9 2v3.9h-3.1z"/><path fill="#e6e6e6" d="m590.1 436.4c0-3.9 3.1-7 7.2-7 4.2 0 7.2 3.2 7.2 7s-3.1 7-7.3 7c-4.1 0-7.1-3.1-7.1-7zm11.2 0c0-2.3-1.7-4.3-4.2-4.3s-4.1 2-4.1 4.3 1.7 4.3 4.1 4.3c2.6.1 4.2-1.9 4.2-4.3z"/><path fill="#e6e6e6" d="m606.5 438.2v-8.6h3.1v7.6c0 2.1 1.1 3.3 2.9 3.3s3-1.3 3-3.3v-7.6h3.1v13.4h-3.1v-2.1c-.8 1.3-2.1 2.3-4.2 2.3-3 .2-4.8-1.8-4.8-5z"/><path fill="#e6e6e6" d="m622.2 439.4v-7.1h-1.7v-2.6h1.7v-3.7h3.1v3.7h3.6v2.6h-3.6v6.6c0 1.2.6 1.7 1.7 1.7.7 0 1.3-.2 1.9-.5v2.5c-.8.5-1.7.7-2.8.7-2.3 0-3.9-.9-3.9-3.9z"/><path fill="#e6e6e6" d="m631.5 425.3h3.2v15h9.4v2.9h-12.5v-17.9z"/><path fill="#e6e6e6" d="m654.3 443.1v-1.7c-.9 1.1-2.3 2-4.4 2-2.6 0-4.8-1.4-4.8-4.2 0-3 2.3-4.4 5.4-4.4 1.7 0 2.6.2 3.7.5v-.2c0-1.9-1.2-2.9-3.3-2.9-1.5 0-2.6.3-3.9.8l-.8-2.5c1.5-.7 2.9-1.1 5.1-1.1 4 0 5.9 2.1 5.9 5.7v8zm.1-5.6c-.8-.3-1.9-.5-3.1-.5-2 0-3.1.8-3.1 2.1s1.1 2 2.6 2c2 0 3.5-1.1 3.5-2.9z"/><path fill="#e6e6e6" d="m663.3 441.1v2.1h-3.1v-18.7h3.1v7.4c1-1.4 2.4-2.5 4.5-2.5 3.2 0 6.3 2.5 6.3 7s-3.1 7-6.3 7c-2.2 0-3.6-1.1-4.5-2.3zm7.7-4.7c0-2.6-1.7-4.3-3.9-4.3s-3.9 1.7-3.9 4.4c0 2.6 1.8 4.3 3.9 4.3s3.9-1.7 3.9-4.4z"/><path fill="#e6e6e6" d="m675.3 441.4 1.4-2.1c1.4 1.1 3 1.7 4.4 1.7s2.1-.5 2.1-1.5-1.3-1.4-2.8-1.8c-.1 0-.2-.1-.2-.1-2-.6-4.2-1.4-4.2-4s2.1-4.1 4.8-4.1c1.7 0 3.5.6 5 1.5l-1.2 2.2c-1.3-.8-2.6-1.3-3.8-1.3s-1.9.5-1.9 1.4 1.3 1.4 2.8 1.8c.1 0 .2.1.2.1 2 .6 4.2 1.5 4.2 4 0 2.9-2.2 4.2-5 4.2-2 0-4.1-.7-5.8-2z"/></g>
</svg>
