<?xml version="1.0" encoding="utf-8"?>
<!-- Generator: Adobe Illustrator 23.0.1, SVG Export Plug-In . SVG Version: 6.00 Build 0)  -->
<svg version="1.2" baseProfile="tiny" id="Layer_1" xmlns="http://www.w3.org/2000/svg" xmlns:xlink="http://www.w3.org/1999/xlink"
	 x="0px" y="0px" viewBox="0 0 900 600" xml:space="preserve">
<g>
	<path d="M806.66,185.56C809.96,184.22,810.25,183.68,806.66,185.56L806.66,185.56z"/>
	<path d="M769.95,522.72c36.46-13.12,21.85-8.12,48.78-17.42c5.06-1.75,4.15-2.63-0.41-30.66c-7.82-48.12-6.62-41.71-22.92-46.64
		c-19.99-6.05-61.18-6.85-63.45-7.33c-6.83-1.46-113.96-19.63-114.07-19.66c-6.99-1.47-16.87,0.4-18.94-1.32
		c5.45-10.29,4.61-13.43,5.81-15.89c7-14.43,3.05-16.41,9.57-25.16c2.05-2.74,5.5-4.48,6.52-8.05c1.83-6.39,8.76-9.36,9.78-20.78
		c17.72-0.61,39.52,1.12,42.16,3.46c-0.81,1.02-2.55,0.41-2.95,1.94c2.24,0.92,4.37-0.8,6.72,0c14.65,4.99,17.92,0.82,17.92,3.87
		c14.08-0.31,41.36,0.59,21.18-2.04c0.61-1.12,1.12-2.04,1.63-3.06c28.62,4.18,57.54,4.48,86.06,9.47c-0.35,1.74-1.46,7.5-0.61,9.06
		c3.58,6.64,4.32,16.66,11.3,12.93c4.59-1.93,4.16-7.02,3.16-11.92c1.63-0.1,2.95-0.2,4.68-0.31c-1.02,4.89,2.75,8.35,3.26,12.43
		c-0.31,1.22-1.53,0.61-1.73,1.63c0.51,1.83,0.51,3.87,0,6.11c4.64-1.24,3.99-9.28,2.04-13.24c-5.15-10.45,3.63-8.29-9.27-9.37
		c-0.51-1.32-0.92-2.44-1.43-3.67c-3.44,2.36,6.57,16.6-4.48,16.6c-3.36-3.67-2.95-9.06-5.91-12.93c-0.2-0.31-0.1-0.92,0-1.32
		c1.98-10.28,4.77-10.57,3.06-15.38c4.2-2.7,0.89-5.75-0.2-11.61c-2.5-13.42-7-19.17-8.05-21.79c-2.79-9.43-7.09-27.22-3.97-36.56
		c0.81,0.1,0.61,1.63,1.94,1.12c0-1.32,0.31-2.96-0.71-3.87c-3.56-3.17-0.78-10.42-1.63-13.95c-3.58-14.88-5.68-48.84-5.6-51.23
		c8.83-5.84,14.48-9.08,17.46-10.65c-2.62,1.07-7.11,2.64-13.09,3.92c6.72-8.55,11.41-17.72,12.93-28.41
		c3.97,0.82,11.7-0.46,13.55-6.01c2.44,4.68,3.69,9.27,3.97,13.95c0.9,14.97-6.56,13.87-7.84,24.75c1.32-1.53,2.65-2.95,3.87-4.38
		c1.12,4.89,1.12,10.08,5.4,14.87c1.07,4.03-1.97,11.91-2.34,17.72c-1.01,15.87-7.91,16.56-4.18,18.54
		c3.36-1.32,2.65-4.79,3.67-8.05c0.41,10.59,4.99,19.86,5.19,30.25c-0.1,0.51-1.32-0.1-1.53,0.92c0.1,3.49-0.3,6.99-0.69,10.58
		c1.16-0.98,3.37-7.94,2.32,6.63c-1.14,15.9-5.19,27.69,2.34,50.01c4.05,12.01-0.96,5.32-3.97,6.82c2.75,2.44,6.52,1.83,9.06,3.67
		c0.2,0.71-0.71,1.43,0.2,1.94c5.7-0.51,5.7-0.51,13.65,2.95c1.12,1.94-0.53,3.98,0.41,6.01c1.99,4.3,1.8,8.96,1.94,13.55
		c0.08,2.65-1.63,4.58-4.07,5.91c1.83-3.56,2.11-7.02,1.22-10.8c-0.84-3.56-0.41-7.33-2.24-11.3c-2.02,2.8-0.33,9.92,0.71,14.16
		c1.05,4.29-5.77,15.03-7.43,17.62c3.91,0.17,4.65-6.87,10.29-9.37c5.56-2.47,3.18-13.99,2.65-20.06c4.79,3.16,7.13,11,6.11,18.33
		c-3.26,3.46-7.43,4.28-11.2,5.7c9.06,0.61,16.43-4.32,13.14-14.26c-1.85-5.6-2.7-11.32-8.35-12.63c-0.51-1.53,0.19-3.33-1.32-4.28
		c-11.1-6.94-17.35-4.94-17.42-8.76c-0.1-5.78-5.57-24.79-5.5-27.6c0.32-12.73,2.86-25.36,3.16-38.09c0.49-21.05-5.96-28-6.01-35.95
		c-0.2-29.75,9.38-20.34-2.55-45.52c2.14-2.95,0.83-6.82,2.34-9.88c3.55-7.16,3.89-16.48-3.36-28.01c0.92-1.32,1.5-2.65,1.73-4.18
		c0.28-1.84,2.24-2.04,3.26-3.26c0.52-0.62,0.65-0.75,2.55-8.35c5.69,0.79,4.03,1.95,6.72-16.91c9.33-3.03,5.94-11.65,9.06-20.57
		c15.38-0.31,15.38-0.31,17.21-2.75c-2.65-1.22-5.91,0.61-8.25-1.83c2.24-1.22,5.5-0.61,7.23-3.97c-3.16-0.61-5.5,2.34-8.86,1.22
		c3.77-0.71,6.31-3.26,9.88-3.46c-1.22-2.04-3.56-0.81-4.58-2.44c1.53-0.61,2.65,0.61,4.18,0c0.2-1.53,2.24-1.73,2.95-3.77
		c-2.65-1.73-5.4-0.31-8.25-0.31c-1.12-2.14-3.56-1.53-5.6-1.94c0-0.81,1.02-1.22,0.61-2.14c-2.44-2.34-4.47-5.31-7.84-6.82
		c-12.42-5.58-24.89-17.05-35.54-15.17c-8.58,1.51-7.36,2.35-8.96,1.73c-0.5-5.95-0.19-6.36-1.22-7.13
		c-2.46,0.62-2.41,3.26-2.95,6.52c-0.93-0.47-5.19-7.49-5.6,1.94c-2.85,1.02-4.98,3.07-7.64,4.18c-2.74,1.14-3.24,4.3-5.4,6.01
		c-2.62,2.07-2.65,4.68-2.04,6.93c-5.09,7.03-6.82,14.67-7.94,23.02c-0.41,0.92-1.73,1.22-3.16,1.32c-0.2,1.43,0.41,3.16-1.53,3.87
		c0.31,1.73-1.22,3.16-1.02,4.79c1.02,1.43,2.04-0.2,3.36-0.2c-2.22,5.19-7.86,7.44-10.39,14.97c-0.69,2.05-1.34,4.16-2.44,6.01
		c-3.21,5.37-3.63,11.84-7.03,17.01c-0.4,0.61-0.61,1.53-0.61,2.34c0.55,8-5.3,16.99-5.3,26.89c0,4.01-4.46,12.8-2.14,15.89
		c19.12,5.07,55.78-9.58,62.33-34.73c6.79,4.65,7.23,1.81-2.95,25.56c-2.72,6.35-5.53,11.53-12.43,14.05
		c-23.66,8.66-28.26,6.96-39.11,4.99c-11.96-2.17-42.68,13.53-66.91,3.67c-19.27-7.85-25.46-19.16-28.94-19.74
		c-0.15,0.15,9.51,13.04,28.23,21.27c-19.7,5.71-34.91-11.63-37.78-11.92c-1.42-0.71,3.11,3.64,12.93,10.18
		c-12.02-4.18-24.85-6.42-34.32-16.19c2.95-5.5,1.43-10.18-1.83-14.67c0.81,3.67,0.81,7.33-0.41,11.41
		c-2.95-5.7-6.72-10.29-8.76-15.99c-2.04-5.7-3.16-11.71-5.6-17.72c9.27-6.72,18.54-13.14,28.11-19.25
		c1.53,0.51,2.85,1.02,4.28,1.53c-0.92,2.14-2.55,3.77-2.55,6.21c4.19-6.13,2.56-6.97,10.18-4.68c0.51,10.8,2.24,21.39,4.48,31.98
		c-0.1-10.49-2.85-20.78-2.95-31.67c5.5,0.31,10.39,2.14,15.79,2.65c1.32,10.18,3.97,19.86,9.68,28.41
		c-3.67-8.96-6.93-17.92-7.54-27.5c0.61-0.61,1.22-0.52,1.73-0.51c9.59,0.12-1.04,8.23,7.13,17.72
		c6.97,8.11,15.17,15.29,26.28,17.42c6.41,1.23,12.93,2.75,19.66,0.92c4.48-1.22,9.23-1.56,13.04-4.89
		c0.71-0.62,1.63-1.02,2.04-1.73c26.83-40.24,1.64-60.19,2.34-66.71c0.27-2.5-3.25-4.6-7.74-8.15c6.31,1.32,11.97,1.85,17.01,4.99
		c6.07,3.77,13.34,3.87,20.17,5.4c0-4.23-4.64-1.61-20.17-7.54c-3.69-1.41-6.59-6.08-43.18-7.54c-2.14-0.08-4.18,0.1-4.89,2.65
		c-2.14-0.31-4.39-0.09-5.91-1.02c-33.76-20.68-56.02-1.57-71.19-8.55c-8.46-3.9-9.78,1.43-17.42-1.32
		c-8.97-3.23-18.44-3.42-27.8-4.07c-2.75-0.19-5.3-1.24-8.15-0.81c-57.31,8.52-22.76,2.04-52.55,2.04c0-1.43,0-2.75,0-4.28
		c7.64-0.31,14.87-1.73,22.2-2.95c1.76-5.85,1.45-9.07-4.68-8.45c-6.51,0.65-13.04,0.51-19.45,1.83c-1.12-2.44-0.41-5.3-2.24-7.33
		c-4.28-0.81-8.05,0.81-11.92,1.63c-1.12,2.55-0.31,4.99-0.61,7.33c-4.55,2.16-26.08,0.22-24.04,7.54c1.22,4.38,1.12,5.89,4.89,5.7
		c7.13-0.35,14.16-1.12,21.18-2.85c0.71,1.12,0.81,2.34,0.1,3.77c-4.66,0.6-5.83,7.19-5.3,9.88c0.22,1.12,0.6,2.54-0.1,3.36
		c-2.07,2.42-1.43,4.58,0.31,6.93c-3.67,4.58,0.2,7.74,2.24,11.2c-4.68,6.55-4.47,10.6,3.56,11c10.14,0.51,12.43-2.58,16.7,1.02
		c-3.56-0.41-7.13,2.24-10.59-0.61c-1.02,0.71-1.63,1.83-3.06,2.04c-5.7,0.81-11.3,2.62-17.31,2.14c-2.75-0.22-4.18,1.73-3.87,4.48
		c0.9,7.98,5.64,7.04,11.3,6.52c22.65-2.1,10.01-2.35,15.28,7.84c1.83-0.41,3.27,1.55,5.19,0.71c6.74-2.92,10.67,2.34,9.17-11.2
		c12.62-2.58,21.92,1.4,19.15-9.98c-1.56-6.4,2.25-3.86-15.38-3.16c2.75-2.65,4.49-5.8,4.79-9.17c0.42-4.79,4.07-9.37,8.66-8.86
		c30.83,3.41,22.64,5.3,43.49,11.81c16.38,5.12,16.26,1.07,27.5,3.36c7.55,1.54,11.51,7.74,16.7,12.12
		c-2.34,3.56-5.71,5.39-9.06,7.03c-11.5,5.61-16.85,11.73-22,14.67c-8.12,4.63-13.44,11.61-16.7,20.47
		c-2.65,0.51-3.26,2.95-4.07,5.19c-4.73,13.07,1.34,25.78,1.83,49.09c0.19,9.06-1.85,17.8-2.75,26.68
		c-0.2,1.99-12.71,13.96-10.39,21.49c2.59,8.37-6.37,3.89-16.4,21.39c-7.12,12.42-2.34,18.41-2.34,25.16
		c-4.06-1.46-30.22,3.64-31.37,11.92c-0.78,5.61-0.57,11.19,1.02,16.7c1.56,5.4,3.96,4.97,19.15,7.64c2.34,0.41,4.99,0.31,7.33,1.32
		c-2.5,21.38,1.53,78.62-0.61,92.98c-4.32,1.29-35.57,7.76-57.95,14.16c-0.92,0.2-1.22-1.12-2.44-0.31
		c-2.04,6.21-1.73,13.24-4.28,19.76c9.29,3.55,16.13,4.38,20.78,4.79c1.63-1.73,33.81-10.49,39.62-10.8
		c-5.37,5.01-2.31,8.35-7.64,15.99c2.14,3.06,4.07,6.31,7.84,7.03c8.73,1.65,5.69,13.19,14.97,14.97c0.61,0.12,1.22,0.51,1.43,0.92
		c3.44,6.62,25.48,5.5,38.9,6.01c9.45-7.33,0.4-13.55-6.31-21.79c-7.06-8.66-5.53-29.83-10.39-30.76c-2.04,2.68,2.21,6.42-1.94,6.42
		c0.92-2.44-0.71-3.06-2.55-3.56c-6.55-1.78-8.88,3.08-16.09-0.2c-4.47-2.03-3.36-3.34-1.73-8.45c0.74-2.33,2.75-3.28,4.68-3.26
		c20.97,0.24,9.78,3.74,16.6,8.86c0.2-2.14,1.33-2.94,3.06-3.26c0.11-0.02,33.98-6.96,35.24-9.47c-1.53-7.03-4.58-12.43-7.94-13.34
		c7.59,17.71,15.13,9.1-27.8,20.88c-0.51-7.23,0.41-13.65,1.32-20.06c4.38-1.73,8.85-1.45,13.04-2.65
		c4.37-1.25,8.45,1.53,12.83,0.71c-3.97-1.93-7.94-3.23-12.43-2.24c-4.27,0.94-8.66,0.92-13.24,2.24
		c2.95-16.4,13.95-28.11,21.39-41.35c42.19,0,68.59,9.8,78.83,11.41c99.98,15.65,97.23,8.84,125.07,17.01
		c10.26,3.01,8.9,7.21,19.04,68.54c0.66,4.01,0.78,3.17-47.87,19.86c-1.83,0.63-3.65,1.54-4.38,3.16
		c-2.78,6.14-4.07,12.63-4.38,19.76c4.07-2.24,6.02,1.57,21.79,2.44c0.81,0.1,1.63,0.31,2.24-1.12c-2.89-1.75-0.37,0.09-21.8-4.07
		C766.38,533.52,767.6,527.92,769.95,522.72z M844.9,94.06c2.04-0.51,3.26-0.2,4.68,0.81C847.86,95.18,846.74,94.77,844.9,94.06z
		 M852.64,87.13c-1.83,1.22-3.77,2.04-6.52,1.63C848.47,87.64,850.51,87.24,852.64,87.13z M848.67,84.49
		c-1.32,0.61-2.24,1.43-3.87,0.2C846.33,84.08,847.35,84.18,848.67,84.49z M845.72,74c0.81,1.53,0.81,1.53-0.1,3.16
		c-0.92,0.31-1.43-0.41-2.34-0.81C844.29,75.63,844.5,74.3,845.72,74z M838.79,70.13c-1.32,1.73-2.03,0.5-2.65-0.31
		c-0.7-0.92-1.83-0.71-2.55-1.53C835.64,68.09,837.06,69.41,838.79,70.13z M830.95,89.27c-1.63,1.02-2.75-0.1-3.97-0.61
		C828.3,88.36,829.73,88.15,830.95,89.27z M826.16,63.1c1.82-0.52,1.09,2.06,0,0.61C826.06,63.61,826.16,63.3,826.16,63.1z
		 M820.97,60.15c3.38,1.01,4.15,2.35-1.22,1.94C820.05,61.27,820.26,60.55,820.97,60.15z M821.17,79.09
		c-0.31,0.92-0.81,1.02-1.43,0.92C819.85,79.09,820.46,79.09,821.17,79.09z M820.77,82.96c1.22,0.1,1.53,1.02,2.24,1.73
		c-1.02,0.2-2.04,0.41-3.06,0.51C819.44,84.28,819.65,83.57,820.77,82.96z M819.65,77.26c-0.61,1.63-1.63,1.63-3.26,1.94
		C817.41,77.76,818.12,77.05,819.65,77.26z M813.74,79.29c-1.73,0.41-2.44-0.41-2.95-1.83c1.63-1.22,3.46-1.53,5.81-2.14
		C815.27,77.05,814.15,77.97,813.74,79.29z M809.16,75.12c0.81-1.63,1.83-2.95,3.97-3.87C813.74,75.32,810.38,73.89,809.16,75.12z
		 M812.31,57.09c-1.32,0.31-2.65,0.51-4.38,0.92C809.36,56.38,810.79,56.58,812.31,57.09z M807.22,71.55
		c-0.31,1.12-0.92,1.22-1.73,0.41C805.9,71.04,806.41,70.84,807.22,71.55z M806.71,89.07c-1.22,1.73-2.34,2.34-4.79,1.22
		C803.66,89.17,804.88,88.56,806.71,89.07z M800.4,88.76c0.1,0,0.1,0.2,0.2,0.41c-0.2,0.1-0.41,0.31-0.51,0.31
		C799.75,89.48,799.48,89.22,800.4,88.76z M797.14,64.73c1.22,3.06-0.71,2.85-2.24,3.06c-1.53,0.31-2.65-1.63-4.28-0.41
		C792.15,64.93,794.9,66.15,797.14,64.73z M795.92,88.87c-0.2-0.81,0.2-1.02,0.61-1.12C797.04,88.36,796.73,88.66,795.92,88.87z
		 M795.1,81.74c-0.2,1.12-0.1,2.14-1.02,3.06C793.17,83.16,793.07,82.14,795.1,81.74z M792.15,63.3c-0.2,1.22-1.22,1.53-2.24,2.44
		c-1.02-0.81-1.83-1.43-2.95-2.34C788.89,62.9,790.42,62.39,792.15,63.3z M789.6,99.97c0,0.51-0.2,0.71-0.61,0.71
		C788.79,99.97,789.5,100.27,789.6,99.97z M779.62,90.29c-0.61,1.22-1.22,1.63-1.94,1.94C777.48,91.11,778.4,90.9,779.62,90.29z
		 M776.57,78.89c0.95,0,0.82,0.81,0.41,1.02C776.61,80.14,775.95,80.12,776.57,78.89z M777.99,94.67c3.95,1.98,1.02-0.42,2.04-1.32
		c1.12,0.61,1.12,1.83,1.53,2.95c-1.63,0.92-4.07,0.61-4.28,3.67C774.46,96.89,775.56,96.56,777.99,94.67z M802.84,155.27
		c-17.92-15.35-12.79-7.66-13.14-6.62c-2.85,2.95-6.62,5.09-9.78,8.05c-4.87-2.03,1.13-0.32-13.85-0.1
		c-2.65,0.04-4.89,0.92-6.52,3.26c4.48-2.34,9.27-1.32,14.26-1.83c-1.43,1.94-3.97,1.94-5.5,4.48c4.18-1.83,7.84-2.85,11.71-3.36
		c3.4-0.26,6.46-8.94,12.43-7.94c4.66,3.81,5.48,2.86-4.48,17.11c-4.98,7.13-12.94,9.47-19.96,13.55
		c-7.98,4.63-16.17,4.51-29.74,7.64c0.81-6.42,0.83-12.72,2.95-18.84c5.43-15.66,5.66-18.71,5.19-21.9
		c4.79-4.58,9.27-9.27,15.48-11.81c-4.89,1.83-9.88,3.46-14.46,6.31c5.7-11,9.17-23.22,17.31-33.1c-0.51,4.07-0.61,8.05,0.61,11.92
		c0.51-4.38,0-9.06,3.16-12.93c1.94,0.41,3.67-0.92,5.5-1.43c2.34,1.12,0.92,4.07,2.85,5.3c-2.75,7.84-2.34,13.04,1.53,15.48
		c-2.82-10.71,6.89-29.54,0.1-18.23c-2.24-4.18-2.14-8.25-4.68-11.3c0.2-0.1,0.41-0.2,0.61-0.41c4.35,6.53,4.42,8.03,6.72,6.93
		c2.42-1.16,1.73-3.06,0.51-4.79c0.61-1.12,2.14-0.71,2.65-1.73c0.1-1.32-0.92-2.34-1.02-3.56c2.75,0.1,3.47,0.82,2.44,3.36
		c-1.32,3.26-1.6,6.61-2.24,9.98c-0.23,1.22-0.31,2.44,0.92,4.07c1.15-3.29,6.78-12.11,11.61-14.05
		c23.02-9.27,10.25-11.19,37.07-5.6c3.56,0.41,5.81,3.36,9.27,3.87c0.36,7.63-2.57,5.15-5.19,7.03c1.63,0.71,1.63,0.71,4.18,0.2
		c-0.81,2.95-0.1,5.91-1.53,8.55c-4.48-0.2-6.25,1.53-6.52,6.42c-1.33,24.33-5.24,10.3-9.78,11.71c-0.92-0.71,0.2-1.73-0.71-2.24
		c-3.19-0.64-2.08,6.08,1.32,4.99c0.61-0.2,1.22-0.61,2.24,0.1c0,2.65-0.31,5.5-1.43,8.76c-3.67-2.24-7.85-1.3-11.41-3.06
		c-1.23-0.6-2.44-0.1-2.95,1.53c0.81,3.85,4.84,0.24,12.12,3.36c-1.88,6.11-5.54,0.64-10.29,2.44c1.22,3.16,4.28,2.75,6.42,3.97
		c-0.92,3.16-1.22,7.12-5.4,7.23C809.87,158.11,806.02,157.99,802.84,155.27z M505.46,57.8c2.44,6.52,3.64,5.15-8.05,6.21
		C495.7,55.88,498.04,58.6,505.46,57.8z M473.07,70.53c3.97-1.83,51.84-8.05,57.85-7.54c0.92,1.53,1.22,3.16,1.53,4.68
		c-9.78,1.53-19.35,2.44-29.03,3.36C486.53,72.64,472.01,79.5,473.07,70.53z M508.92,75.93c-2.95,0.51-5.81,1.02-8.76,1.53
		c-2.67-4.58,0.5-3.85,7.74-4.89C508.82,73.59,508.82,74.71,508.92,75.93z M517.98,140.3c-1.89,1.26-10.25,4.11-10.49,0.81
		c-0.14-1.93-1.32-3.87-0.31-6.31c3.36-0.51,6.72,0.1,9.98-0.81C517.88,136.22,518.59,138.16,517.98,140.3z M536.21,121.97
		c2.95,6.01,1.73,7.94-4.89,7.64c-2.98-0.13-29.77,4.07-47.26,4.07c-2.18-0.55-3.56-3.63-1.53-5.91
		C504.83,126.75,534.54,120.29,536.21,121.97z M622.58,124.31c-12.75-18.41-21.74-2.98-54.08-17.82c-5.3-2.43-10.59-4.83-16.6-5.3
		c-6.22-0.49-15.42-4.12-18.23-0.31c-3.97-1.12-6.42,0.41-7.03,4.18c-0.51,3.16-2.26,6.01-1.94,9.37c0.25,2.62-4.1,3.65-3.36,6.62
		c-1.32,0.2-2.45,0.62-3.56-0.2c-13.56-10.01-24.13,4.33-24.65-6.52c0.81-0.92,1.73-1.83,2.55-2.65c0.2-1.53-0.09-3.07-0.92-3.97
		c-3.97-4.31,0.24-7.59-0.71-9.17c-2.39-4.95,0.98-7.01,0.1-11.41c-0.51-1.94-0.1-3.67,1.22-4.99c7.94-2.85,16.09-2.7,24.34-2.55
		c4.97,0.09,1.18,3.39,17.62,1.73c19.86-2.01,17.17-4.58,37.17-2.95c11.29,0.92,13.41-0.17,21.18,2.24c0.61,0.51-0.31,0.92-0.2,1.43
		c0.2,0.41,0.61,0.71,1.12,0.71c4.68-0.81,9.37,0.41,14.05-0.92c5.05-1.43,6.98,6.91,28.82,2.14c7.03-1.53,14.15-1.17,21.18-1.63
		c1.73-0.11,3.87-0.41,4.18,2.44c2.85-1.83,5.2-0.83,7.54,0.2c9.05,3.99,13.54,4.24,15.17,5.5c8.04,6.18,34.95-6.26,40.74,10.49
		c5.4,15.62,12.6,15.07,8.76,43.59c-1.03,7.64-5.1,13.94-9.27,20.17c-4.72,7.05-28.06,11.19-45.42,0.61
		c-5.03-3.07-0.83-2.16-4.68-4.99c-4.22-3.1-6.51-7.64-8.55-12.32c-0.71-1.63-0.41-3.36-0.31-5.81
		c18.38,18.72,26.42,11.05,39.01,9.57c-2.27-2.27-16.7,4.47-33-7.03c-0.72-0.51-1.22-0.91-1.63-1.63c-2.36-4.17-5.91-7.23-9.68-9.98
		c-2.5,0.33,2.58,3.27-7.03,1.43C639.31,131.3,626.38,129.79,622.58,124.31z M631.34,327.18c-0.92-1.02-0.41-2.14-0.61-3.26
		c2.75-2.14,3.56-5.3,4.38-8.76c9.27,4.79,19.15,7.33,29.43,11.1c0.41,0.71,1.22,1.83,2.65,2.65
		C655.17,326.98,643.15,328,631.34,327.18z M712.91,336.15c-5.3,1.43-29.84-0.81-37.78-3.97c1.12-0.92,2.65,0.81,3.77-0.81
		c-6.09-4.4-9.71-1.66-1.43-4.28c-14.36-4.79-28.31-8.96-41.65-14.97c0.61-5.81,1.94-11.2,2.14-17.31
		c8.96,1.02,17.82,1.73,25.26,7.64c-0.45-3.59-12.07-5.71,0.1-3.56c1.12,1.73,1.73,3.77,3.77,4.99c1.12-1.22,0.1-2.75,0.51-4.28
		c10.59-1.83,20.98,1.52,31.27-0.2c18.79-3.15,18.84-5.24,19.35-1.22C719.76,310.32,721.07,327.11,712.91,336.15z M716.17,208.43
		c12.7-1.2,15.96-7.46,24.75-5.81c4.49,0.85,4.49,4.08,12.32,3.36c28.38-2.61,28.11-9.02,33-6.93c0.2,8.25,2.85,16.5,2.55,25.05
		c-0.82,23.42,3.53,18.78,3.87,23.22c-1.02,2.75-0.8,6-0.1,9.27c1.86,8.76-4.01,26.36,8.15,53.06c3.27,7.19,7.89,23.8,3.36,31.88
		c-28.11-5.3-56.83-5.4-84.84-9.57c2.85-12.02,3.26-24.04,1.02-36.46c3.74-2.5,4.71,2.61,1.32-19.55
		c-1.02-6.66,2.89-6.31-0.41-10.08c-1.61-1.85-3.77-3.77-1.63-6.62c-1.53-4.48,0.59-8.86,0.2-13.34
		c-0.88-10.16-13.64-15.44-10.39-19.55c0.49-0.62-1.32-1.43-1.32-2.65c0.91-3.64,8.96-8.41,0.41-12.83
		C706.6,209.93,704.95,209.49,716.17,208.43z M575.42,200.69c-0.84-5.47-1.55-17.35,2.44-23.83c2.57-4.17,12.28-20.56,17.21-22.2
		c5.72,14.49,6.2,9.15-0.2,19.15c2.85,1.73,4.28,4.89,7.13,6.62c-0.51-3.26-3.67-4.48-5.4-7.03c1.22-1.73,2.44-3.56,3.87-5.7
		c3.86,4.18,8.79,33.02,58.46,40.94c21.14,3.37,15.68-1.88,26.89,1.32c3.97,1.14,7.95,0.95,11.81,0.51c5-0.57,8.05,2.55,11.81,4.58
		c-0.71,2.95-3.26,4.48-3.77,6.82c-6.11,1.73-11.71,4.07-16.8,7.54c5.09-1.73,10.59-1.63,15.58-3.56c1.02,0.41,0.92,1.43,1.22,2.24
		c-2.77,4.62-6.96,6.32-4.51,7.82c1.13-2.27,3.02-3.78,4.92-5.78c2.55,3.77,5.31,7.02,8.05,10.29c6.07,7.24-0.25,12.82,2.24,19.25
		c-4.89-2.65-9.47-4.58-14.16-6.21c4.48,4.07,11.3,4.89,14.77,10.69c-8.45,1.22-16.91,0.92-25.16,0.81
		c-0.31,1.12,0.31,1.31,0.81,1.32c8.15,0.15,16.2,1.66,24.34,0.61c1.53-0.2,2.34,0.61,3.26,1.83c-0.92,2.75-2.34,5.6-0.61,8.35
		c-0.92,1.22-1.94,0.71-2.55,1.32c0.41,1.02,1.63,0.61,2.24,1.22c1.02,4.18,1.83,8.45,1.53,13.04c-7.52,1.17-26.09,5.19-48.27,4.68
		c-12.36-0.28-25.78-6.16-32.39-4.38c-3.26-4.48-1.88-8.98-0.31-13.34c0.59-1.64,0-4.07,2.24-4.89c0.1,0.1,5.05,7.53,3.53,4.78
		c0.33,0.37,0.65,0.74,0.95,1.14c-1.32-2.14-1.32-5.09-4.07-6.31c-0.62-1.24-0.91,0.18,2.44-12.63c5.56,5.7,14.23,18.95,20.06,23.22
		c-6.52-8.05-10.9-17.62-18.13-25.36c0.81-1.43,1.44-2.94,2.44-4.18c4.39-5.38,18.13-2.6,19.15-6.42
		c-4.89,0.51-9.47,1.02-14.97,1.63c14.04-16.15,5.63-7.74,25.26-17.31c-5.09,0.2-9.57,2.44-14.67,3.77
		c0.61-3.26,2.34-6.01,2.55-9.27c-3.06,1.63-5.72,5.6-4.99,8.55c0.5,2.04-0.22,3.04-1.53,4.07c-6.51,5.13-7.62,8.15-8.35,8.15
		c-16.14,1.92-16.62,62.27-21.18,72.11c-17.54,6.76-32.14-0.7-46.24-5.81c-4.78-1.73-14.06-25.75-7.64-72.63
		C580.4,215.57,577.38,213.45,575.42,200.69z M576.65,310.58c1.46,7.28,9.29,3.69,6.82,10.59c-6.62-1.22-13.34-0.41-20.27-1.53
		C567.17,315.98,571.04,312.42,576.65,310.58z M547.92,297.55c9.4-17.21,19.06-12.74,16.8-22.81c-1.47-6.53,1.94-11.1,6.42-15.99
		c-1.43,13.04,0.51,25.46,1.22,37.99c-0.71,0.51-1.43,1.43-1.83,2.85c-0.81-0.2-1.32-1.22-2.55-0.81c-1.53,2.65,0.51,4.99,1.32,7.54
		c-2.91,2.18-1.68-1.12-3.67-0.81c-1.22,2.34-1.22,2.34,1.12,6.31c-11.21,11.83-6.71,8.19-8.15,11.2c-1.92,4.04-5.61,2-8.55,2.55
		c-2.04,0.38-3.34-1.12-3.67-3.26C544.16,307.85,542.2,308.02,547.92,297.55z M515.54,351.83c-3.36-8.86-3.26-17.52-0.2-22.2
		c4.89-1.02,9.06-3.46,13.75-4.48c4.68-1.02,9.57-0.92,14.46-2.75c0.92,2.44,1.94,4.96,4.89,5.6c2.65,0.58,5.41,1.55,7.94-0.1
		c2.15-1.41,4.48-2.85,5.19-5.91c7.54,0.51,14.87,0.1,22,1.32c0.2,6.11-1.73,11.1-5.81,15.38c-5.71,6-9.98,13.14-14.87,19.35
		C546.7,356.51,530.71,356.41,515.54,351.83z M573.18,481.27c-0.41,1.12-1.02,0-1.32,0.2C572.27,481.07,572.67,480.97,573.18,481.27
		z M550.37,477.81c5.53-2.06,11,0.2,16.5,0.1c-4.68,0.31-9.37,0.71-13.95,2.14c5.65,1.83,20.36-0.27,1.83,3.56
		c6.42,1.73,12.73,1.63,19.25,1.94c1.02,1.94,1.22,4.07,1.83,6.62c-6.11-0.61-11.81-0.31-17.21,2.44
		c5.91,1.43,11.81,2.85,18.03,0.31c4.46,15.07,15.63,16.22,13.95,23.53c-0.42,1.83-1.53,2.64-3.46,2.65
		c-6.24,0.04-26.62-0.38-31.57-2.55c1.12-0.61,2.24,0.51,3.26-0.51c-0.54-2.17-10.94-1.17-12.83-7.43
		c-0.71-2.34-2.66-4.48-3.46-7.03c-1.05-3.34-4.8-1.08-9.98-6.52c-0.6-0.63-1.53-0.92-2.55-1.53c1.43-5.3,2.66-10.68,6.52-14.97
		c4.58-5.09-1.68-11.56,8.35-20.67c-1.12,2.85-1.21,5.21-3.56,6.93C536.18,470.53,541.86,480.99,550.37,477.81z M547.21,475.06
		c-4.07,0-4.79-1.02-4.48-5.91c1.12-0.31,1.83-1.22,3.36-2.65C546.19,469.87,545.48,472.62,547.21,475.06z M547.21,461.62
		c2.44,1.53,1.32,2.55,0.2,3.77C545.89,464.16,546.91,463.04,547.21,461.62z M549.05,457.14c-1.02,0.51-2.04,1.22-2.65,1.94
		c-1.32,0-0.61-1.73-1.83-1.63c-0.31,0.1-0.81,0.1-0.92,0.31c-4.61,6.43-14.05,3.86-17.82,6.93c4.68,0.51,8.55-1.12,12.73-1.83
		c-2.04,4.58-2.65,9.27-3.36,14.16c-8.96-0.41-16.82,3.4-24.95,5.81c-20.79,6.14-19.34,4.98-33.81,1.22
		c1.53-5.4,1.94-10.8,2.95-16.09c16.36-2.39,54.79-16.46,61.72-13.24c-0.92-32.08-1.53-63.86,0.41-95.84
		c6.11,0.81,12.73,1.53,19.96,1.22C553.43,382.34,557.77,412.05,549.05,457.14z M572.37,465.39c-1.22-1.83-0.61-4.38-3.16-4.58
		c0.6-5.19,0.22-10.19,0.98-15.08c-2.29,4.61-2.12,9.7-2.81,14.78c-3.67,0.31-7.23-1.32-11.1,0.1c-1.34-16.03-1.35-2.4-2.95,0.81
		c-4.98,3.17-0.25-7.62,0.51-17.72c0.81-10.76,5.67-35.19,5.5-55.4c-0.2-24.2,10.12-33.56,23.63-51.33
		c1.92,5.12,1.26,12.07,3.26-18.33c17.95,6.97,19.99,8.47,41.55,6.93c1.12,10.69-3.16,18.13-13.55,22.41c1.73,0.81,3.26,0,4.58,0.61
		c0,1.83-0.61,3.26-2.04,4.68c-1.63,1.63-2.24,4.59-4.07,5.81c-5.95,3.93-7.9,22.95-10.29,20.91c0-13.09,6.01-20.66,2.75-21.32
		c-2.07,0.52-0.91,6.52-3.97,19.96c-0.21,0.92-0.71,2.34,0.92,2.85C598.79,411.6,575.73,409.39,572.37,465.39z"/>
	<path d="M815.88,364.87l0.1-0.1C815.94,364.76,815.91,364.83,815.88,364.87z"/>
	<path d="M825.45,274.33l0.1,0.1C825.6,274.11,825.59,274.22,825.45,274.33z"/>
	<path d="M292.19,545.95c0.92-6.21,2.14-11.81,4.38-17.01c17.42-6.01,34.12-13.14,51.13-18.13c0.92-2.34,1.33-3.87,1.02-5.7
		c-7.05-41.32-7.57-66.05-17.21-68.34c-5.89-1.4-16.17-5.83-36.66-7.23c-72.36-4.96-135.77-23.43-164.99-23.32
		c-6.7,0.02-3.8,1.34,0.2-10.39c0.7-2.04,0.62-4.38,1.63-6.31c2.87-5.49,4.47-11.32,5.6-17.31c1.54-8.19,9.17-11.02,10.49-15.89
		c1.55-5.73,8.92-9.56,9.68-20.88c14.26,0.81,28.41-0.1,42.37,2.95c-0.71,1.94-2.85,0.92-3.06,2.85c2.24,0.1,4.38-1.02,6.72-0.31
		c15.98,4.88,17.22,0.27,18.03,4.58c1.53-0.81,3.26-0.92,5.09-1.12c38.11,1.55,17.58-1.7,16.6-2.24c0.31-0.92,0.51-1.83,1.43-2.65
		c28.31,4.18,57.24,4.48,85.75,9.47c-0.63,5.04-1.3,8.02-0.51,9.27c3.99,6.29,4.42,19.1,13.34,11.41c3.24-2.79,0.93-8.65,1.43-10.49
		c1.43,0,2.75,0,4.38,0c-1.12,4.89,2.95,8.25,3.16,12.53c-0.61,0.61-1.73,0.31-1.63,1.83c0.71,1.43,0.2,3.36,0,5.4
		c1.12,0,1.94-0.41,2.14-0.61c4.19-10.59-3.79-14.51-1.63-20.98c-2.65-0.61-5.3,0.2-7.74-0.92c-0.51-1.22-1.02-2.24-1.53-3.46
		c-2.96,2.75,6.25,17.48-4.68,16.3c-3.16-3.67-2.94-8.79-5.7-12.73c-0.21-0.3-0.1-0.92,0-1.32c1.98-10.31,4.78-10.48,3.06-15.48
		c2.75-1.32,2.36-3.77,1.43-5.91c-1.2-2.76-1.56-5.7-2.24-8.55c-2.48-10.42-15.68-30.64-11.51-55.1c0-0.2,0.2-0.31,0.41-0.51
		c0.41,0.51,0.41,1.63,1.63,1.43c0.1-1.22,0.41-2.75-0.51-3.56c-3.78-3.32-1.28-12.13-1.83-14.26c-3.92-15.21-5.82-50.22-5.81-51.23
		c7.93-5.45,28.78-15.6,16.91-11c-1.75,0.68-3.16,2.26-5.19,2.44c-3.56,0.33-6.72,2.04-9.88,3.56c-6.73,3.85,3.35-3.99,9.98-26.48
		c3.67,2.85,6.41,6.97,11.3,7.13c4.48,0.14,8.96-0.1,11.51-5.09c1.37,12.32-1.65,12.66-8.15,26.58c0.31,0.1,0.51,0.31,0.81,0.41
		c1.32-1.43,2.14-3.36,3.67-4.28c0.24,1.27,2.59,13.14,3.87,13.14c2.52,0,1.74,5.64,1.22,7.94c-3.85,17.21-1.51,18.83-6.31,26.17
		c-0.6,0.92-1.73,2.04-0.31,3.67c3.87-1.22,3.16-4.89,3.97-7.64c0.41,10.18,5.19,19.55,5.3,29.74c-0.51,0.2-1.02,0.41-1.73,0.71
		c0.71,2.95-0.71,6.01,0.2,9.06c0.81-0.2,1.02-0.92,1.83-0.71c0,18.3-1.94,15.98-2.34,35.65c-0.25,12.1,5.84,24.96,5.6,30.76
		c-1.83,0.61-3.26-1.43-5.19-0.31c2.75,2.44,6.52,1.73,9.17,3.67c0,0.71-0.92,1.43,0.51,2.04c4.89-2.75,8.76,1.43,13.14,2.55
		c1.12,2.04-0.49,3.96,0.41,5.91c1.97,4.26,1.75,8.96,1.94,13.55c0.12,2.95-1.73,4.89-4.48,6.93c0.71-3.26,2.48-5.3,2.04-8.05
		c-1.86-11.55-1.01-12.27-3.16-13.95c-1.83,1.68,0.24,10.81,0.81,13.24c1.24,5.27-7.03,16.52-7.03,17.72
		c1.83,0.2,2.24-1.12,2.95-2.14c7.13-10.16,8.89-5.75,10.18-12.63c1.11-5.91-1.05-12.81-0.51-14.56c4.58,3.26,6.93,11.1,5.81,18.54
		c-3.26,3.26-7.33,4.07-11.2,5.6c4.61,1.44,15.95-2.37,13.65-12.63c-1.35-6.03-3.3-13.01-8.96-14.46c-0.2-1.94,0.11-4.1-2.24-4.99
		c-2.74-1.04-5.09-2.87-8.15-3.46c-2.75-0.53-5.4-1.93-8.25-3.06c0-7.54-2.51-14.47-4.18-21.59c-3.25-13.89,1.26-25.88,1.73-45.73
		c0.49-20.72-6.11-27.79-6.11-35.24c0-24.27,7.55-28.37-0.2-40.94c-0.93-1.52-2.36-3.47-1.93-4.68c1.28-3.68,0.63-7.73,2.34-11.3
		c2.38-4.97,3.06-10.08-0.1-15.17c1.94-1.32,1.31-4.41,3.56-5.3c3.07-1.21,2.84-2.95,5.6-9.27c5.02,0.67,3.58,3.96,8.45-16.3
		c8.95-1.05,7.11-10.26,11.1-19.35c15.28,1.43,15.28,1.43,17.52-0.81c-2.55-1.53-6.11-0.1-8.15-2.85c2.55-0.81,5.7,0,7.84-3.36
		c-3.26-0.51-5.7,2.04-8.76,0.61c3.56-0.51,6.42-2.44,10.08-2.65c-1.43-1.73-3.46-1.22-4.58-2.85c1.53-0.31,2.75,0.92,4.38,0.41
		c0.31-1.53,2.55-1.32,3.16-3.26c-1.83-2.24-4.49-0.79-6.62-1.32c-2.35-0.59-4.28-2.34-6.82-2.44c0.2-0.81,1.12-1.12,1.02-2.04
		c-2.14-2.44-3.78-5.59-6.82-7.43c-14.09-8.55-26.74-23.97-41.35-18.13c-3.65,1.46-0.71-4.62-2.55-7.43
		c-2.85,1.22-2.65,3.97-3.36,6.11c-1.83-0.71-1.73-3.36-4.07-3.16c-1.73,1.22-1.12,3.36-1.94,5.09c-0.71-0.1-1.63-0.1-2.44-0.2
		c-0.71,0.71-0.51,2.14-2.04,1.94c-1.43-0.1-2.55,0.9-3.77,1.43c-2.76,1.19-3.47,4.16-5.91,5.6c-2.56,1.51-2.55,4.28-2.24,7.13
		c-1.32,0.31-2.12,1.44-2.85,2.55c-8.6,13.14-5.08,18.35-9.57,19.76c-2.34-1.73-4.99-2.54-7.74-2.44
		c-6.31,0.22-12.53-2.04-18.84-1.63c-1.41,0.35-9.06-5.34-27.7-2.55c-15.11,2.27-17.9,9.02-21.9,8.86
		c-9.95-0.4-35.1-14.97-48.07-12.93c-18.29,2.88-21.63,2.58-24.95,4.58c-3.17,1.91-6.99,1.94-12.32,3.06
		c-7.31,1.53-14.75,7.64-13.75,17.11c2.31,21.82-0.43,13.07,0.81,24.65c0.11,1.02,0.41,2.04-0.41,3.67
		c-9.06,6.11-18.54,12.83-22,24.95c-5.81,0.25-6.52,15.56-5.5,23.73c4.47,35.75,3.27,34.31,0.51,55.71
		c-0.71,5.5-3.95,3.12-9.68,16.3c-3.39,7.81,3,9.59-4.48,13.85c-9.75,5.55-19.52,20.92-15.89,33.2c0.51,1.73,1.22,3.67,0.51,6.01
		c-2.65-1.43-5.1-0.64-7.54,0c-7.63,1.99-22.59,4.83-23.63,11.92c-1.15,7.86-0.89,20.41,6.93,21.79c6.93,1.22,13.75,2.44,20.88,3.46
		c-2.97,18.18,1.34,76.89-0.81,93.9c-20.37,2.55-39.82,9.78-60.5,13.75c-1.83,5.91-1.53,12.83-4.07,19.35
		c6.82,2.34,13.44,4.38,20.47,4.68c1.94-1.73,34.02-10.39,39.92-10.69c-5.11,4.21-2.72,8.78-7.74,15.99
		c2.24,3.36,4.38,6.54,8.25,7.23c8.18,1.45,5.24,12.49,14.67,14.77c2.47,0.6-0.03,3.34,9.57,5.09c9.77,1.78,19.67,1.27,29.43,1.94
		c1.22,0.08,2.03-0.52,2.65-1.32c5.85-7.64,0.38-11.22-6.72-19.25c-9.27-10.48-6.18-31.38-11.61-31.88
		c-1.67,2.7,2.07,6.31-1.73,6.31c0.81-2.65-0.82-3.13-2.75-3.56c-6.49-1.45-12.43,4.33-18.43-2.14c-1.9-2.04,0.8-10.4,5.91-9.88
		c4.17,0.42,8.45,0.31,12.53,1.43c1.32,2.24,0.92,5.19,3.06,7.03c1.32-0.41,0.92-2.04,2.04-2.24c12.22-3.46,25.05-4.99,36.97-9.37
		c-1.63-7.74-4.68-12.93-7.94-13.65c8.71,18.8,12.3,8.81-26.99,20.67c-1.53-2.85-0.81-15.38,0.92-20.17
		c4.28-1.53,8.75-1.35,12.93-2.44c4.37-1.15,8.35,1.43,12.63,0.81c-3.36-1.73-6.82-3.17-10.59-2.55c-4.89,0.8-9.78,1.12-15.07,2.44
		c3.06-16.3,13.95-28.01,21.49-41.35c5.91,0.2,11.51,0.03,17.11,0.2c3.97,0.12,7.64,1.52,11.51,1.83
		c26.21,2.09,40.45,7.84,50.92,9.47c91.18,14.18,103.33,9.63,126.49,17.62c7.91,2.73,7.17,12.95,16.7,67.52
		c0.39,2.24-0.61,3.38-2.65,4.07c-47.29,16.16-49.31,16.55-50.72,21.79c-0.15,0.57-3.88,11.5-2.75,17.31
		c1.32-2.04,2.75-1.13,3.97-0.81c2.63,0.67,18.11,4.41,19.76,1.93c-3.36-2.24-7.23-1.11-10.69-1.94
		C299.73,547.39,295.96,546.66,292.19,545.95z M381.51,114.73c1.32-0.61,2.24,0,3.56,0.81
		C383.65,115.96,382.63,115.65,381.51,114.73z M390.07,108.32c-2.55,1.63-4.58,1.32-6.52,1.22
		C385.38,108.73,387.32,108.22,390.07,108.32z M381.61,105.57c1.53-0.81,2.55-0.51,3.97-0.31
		C384.26,106.28,383.34,106.38,381.61,105.57z M383.8,94.92C383.43,94.73,383.83,94.89,383.8,94.92c1.74,1.11,0.05,2.22-0.15,3.52
		C380.37,96.39,379.88,97.83,383.8,94.92z M157.15,332.89c-0.1-4.79,4.79-7.43,4.18-12.12c9.06,4.89,18.43,7.66,27.8,10.49
		c1.8,0.54,1.27,0.87,4.99,3.97C181.59,332.99,169.47,333.7,157.15,332.89z M239.44,341.75c-5.3,1.53-28.11-0.51-37.38-3.56
		c0.81-0.92,2.14,0.1,3.06-0.92c-1.43-1.53-3.87-1.53-6.21-3.26c11.32-2.83,0.56,0.76-36.87-16.09c0.81-5.91,1.93-11.3,2.34-17.31
		c8.86,1.32,17.72,1.53,24.95,7.84c-0.98-4.4-11.32-5.04,0.51-3.56c4.56,10.26,4.13,1.02,4.18,0.92c10.86-3.97,11.2,4.11,49.39-4.38
		C245.92,303.17,248.29,331.06,239.44,341.75z M168.45,279.11c6.51-16.73-4.73-18.11,21.39,10.49c0.82-0.41,1.19,0.58-5.5-9.37
		c-11.56-17.18-11.87-13.81-13.55-18.23c5.37-1.87,3.72,3.2,21.08,13.65c15.91,9.57,14.21,10.67,19.45,13.14
		c-10.69-9.88-21.9-19.04-33.81-28.01c2.04-1.43,2.04-3.46,3.06-5.81c16.44,22.61,40.65,10.6,30.55-27.7
		c2.75-1.63,5.7-2.44,8.96-2.95c-3.26-1.94-6.52-0.61-10.08-0.1c-1.83-3.77-3.06-7.74-6.11-11.1c6.93,0.22,6.71,4.7,20.88,3.26
		c4.79-0.49,7.84,2.55,11.41,4.48c-0.81,2.95-3.36,4.48-3.87,7.13c-4.07,0.31-14.36,4.79-17.21,7.74c5.6-2.24,11-2.24,15.99-3.97
		c5.33,1.33-6.44,8.96-3.56,9.57c1.53-1.93,3.06-3.67,5.09-5.5c7.08,10.77,12.56,12.08,10.18,21.69
		c-2.62,10.61,7.45,10.17-14.16,1.53c3.88,4.23,13.27,5.58,14.87,11.1c-8.66,1.22-17.01,0.71-25.36,1.12
		c5.53,1.6,20.89,2.41,25.56,1.43c1.52-0.32,2.34,0.71,3.16,2.04c-4.42,9.59,4.55,8.17-6.82,9.88c2.04,0.1,4.18-0.1,6.11,0.71
		c0.92,4.28,1.94,8.55,1.43,13.14c-69.12,11.02-64.96-2.7-80.66,0.2c-3.97-6.31-0.2-11.92,1.02-18.13c2.04,1.22,2.65,3.26,4.38,4.48
		C171.51,282.88,170.9,280.54,168.45,279.11z M191.06,205.48c6.62,4.89,13.14,10.18,15.89,18.43c3.89,9.82,5.23,20.9,1.83,32.28
		c-3.13,10.49-16.82,10.75-25.77-2.04C165.87,229.65,177.69,195.62,191.06,205.48z M316.13,248.66c1.53,0.92,2.14,2.44,2.95,4.18
		c-1.22,3.16-0.94,6.52-0.2,9.98c1.6,7.48-4.29,26.01,7.84,52.45c3.42,7.46,8.04,24.74,3.87,32.18c-28.21-5.3-56.83-5.6-85.04-9.57
		c2.55-12.73,3.56-18.64,1.22-36.46c3.35-3.72,4.93,5.79,0.92-21.08c-0.54-3.64,2.97-5.17-0.31-8.66c-1.63-1.73-3.26-3.67-1.53-6.31
		c-1.53-4.89,0.96-9.77,0.1-14.67c-1.58-9.07-12.82-14.16-10.18-17.92c0.71-1.02-1.32-1.73-1.32-3.06
		c0.97-3.88,8.62-8.24,0.41-12.93c-2.53-1.26-2.27-1.62,11.1-2.85c7.87-0.73,4.8-2.59,16.3-5.19c8.83-2,6.67,3.83,18.13,3.06
		c16.06-1.08,24.06-4.88,31.67-8.15C315.11,218.62,314.8,233.59,316.13,248.66z M377.74,90.29c-2.34,1.43-2.55-0.81-3.16-1.93
		C375.6,88.97,376.52,89.58,377.74,90.29z M366.74,82.65c-1.12,0.2-1.32-0.31-1.53-0.81C366.03,81.53,366.23,82.14,366.74,82.65z
		 M367.15,108.52c-1.32-0.2-2.75-0.2-3.97-1.43C364.91,107.1,366.23,107.4,367.15,108.52z M360.23,78.27
		c1.43,0.2,2.14,1.22,2.85,2.34c-1.22-0.1-2.44-0.1-3.77-0.2C358.9,79.39,360.23,79.19,360.23,78.27z M360.33,103.23
		c-1.53-0.41-2.65-0.2-3.87,0.81c0.2-1.53,0.41-2.55,1.73-3.06C359.31,101.19,359.51,102,360.33,103.23z M356.97,98.03
		c0.51-1.02,1.12-0.61,1.83-0.81C358.19,98.13,357.68,98.24,356.97,98.03z M357.68,95.28c-0.71,1.43-1.73,1.22-3.06,1.32
		C355.44,95.38,356.15,94.98,357.68,95.28z M351.36,96.91c-2.37-0.43-2.79-1.64-2.44-2.55C358.69,91.11,352.22,94.52,351.36,96.91z
		 M352.28,74.2c-1.12,0.61-2.14,0.2-3.06,0.2C350.14,73.69,351.06,73.69,352.28,74.2z M351.06,88.76c0.92,0.61,0.61,1.32,0.61,2.04
		C343.21,93.97,349.45,89.17,351.06,88.76z M345.76,87.95c-0.51,0.81-0.51,0.81-1.83,0.81C344.44,87.64,345.05,87.64,345.76,87.95z
		 M343.62,105.98c-1.83,0.71-3.06,2.55-4.48,0C340.47,105.87,341.79,104.75,343.62,105.98z M337.41,104.96
		c-0.2,0.51-0.51,0.51-0.92,0.2C336.7,104.65,337,104.45,337.41,104.96z M337,82.25c-2.75,2.85-5.09-0.71-7.54,0.1
		C333.03,80.41,335.37,80.41,337,82.25z M332.73,104.24c0.1-0.92,0.51-1.22,1.12-1.32C334.15,103.84,333.75,104.14,332.73,104.24z
		 M332.63,97.32c-0.2,1.02-0.41,1.94-0.71,2.85C330.28,98.13,330.28,98.13,332.63,97.32z M331.71,78.58
		c-0.41,1.22-1.63,1.43-2.55,2.14c-0.71-0.92-1.43-1.63-2.44-2.65C328.45,77.97,330.08,77.36,331.71,78.58z M325.9,96.2
		c0.51,0.81,0,0.92-1.12,0.92C325.39,96.61,325.6,96.4,325.9,96.2z M315.11,92.33c0.1,1.12-0.41,1.32-1.12,1.32
		C313.78,92.84,314.09,92.43,315.11,92.33z M315.11,104.86c0.41-0.81,1.02-1.32,2.24-1.12
		C316.64,104.45,316.02,104.96,315.11,104.86c0,0.92-0.81,0.71-1.43,1.83C313.89,105.06,314.5,104.86,315.11,104.86z M314.29,108.22
		c4.08,2.04,0.73-0.46,2.34-1.32c0.71,1.02,1.12,2.14,1.12,3.56c-1.83,0.31-3.97,0.2-4.79,2.55
		C309.7,110.1,313.43,108.82,314.29,108.22z M311.75,114.53c-1.32-0.61-1.32-1.94-1.73-3.06
		C311.14,112.19,311.54,113.21,311.75,114.53z M300.03,121.35c-1.22,4.28-2.04,8.25-1.12,12.43c1.22-4.28,0.81-9.06,4.79-12.53
		c1.83,1.02,3.56-0.81,5.5-0.81c2.04,1.53,0.41,4.28,2.14,5.81c-3.56,6.72-3.67,12.22-0.2,15.58c-1.02-7.74,2.85-14.05,5.09-21.08
		c-1.43,0.2-1.94,1.73-3.56,1.83c-0.31-2.55-1.22-5.19-1.02-8.05c1.84,1,1.85,6.41,5.09,4.68c2.15-1.14,1.69-2.62,0.71-4.58
		c0.61-1.22,2.14-0.31,2.85-1.73c-0.2-1.02-0.61-2.34-0.92-3.67c4.8,1.49,2.41,1.09-1.12,14.05c-0.31,1.12-0.71,2.24,0.71,3.26
		c7.26-12.29,13.58-12.1,29.53-18.54c5.8-2.34,15.65,2.49,21.79,4.58c2.87,0.98,4.79,3.87,7.94,4.68c-1.23,7.41-1.97,4.67-6.21,6.42
		c1.32,1.63,2.85,0.1,4.28,0.71c-0.92,2.75-0.71,5.6-2.24,8.05c-4.68-0.41-6.53,1.12-7.33,6.11c-3.83,23.73-6.15,9.1-11.1,10.18
		c-0.81-0.81,0.71-1.63-0.51-2.24c-1.53,0.1-2.14,1.12-2.04,2.55c0.41,3.06,2.95,2.44,5.3,2.65c-0.51,3.06-0.81,6.01-2.55,8.86
		c-3.06-2.75-7.34-2.03-10.59-4.18c-3.25-2.15-5.12,3.26-1.02,3.26c2.15,0,7.46,0.89,9.17,2.44c-2.07,6.22-5.59-0.23-10.39,1.53
		c0.92,3.06,3.87,3.06,6.11,4.38c-0.71,1.63-1.32,3.16-2.14,4.68c-2.45,4.59-12.1,0.82-14.67-2.04
		c-0.78-0.87-10.79-11.04-11.92-10.59c-1.02,0.81,0.41,1.73-0.31,3.06c-3.16,2.04-6.82,4.38-9.88,6.31
		c-5.6-1.53-10.89-0.58-15.99-1.22c-1.83-0.23-3.77,0.71-4.99,2.55c4.68-1.63,9.37-0.51,14.46-0.2c-1.94,1.53-4.28,1.53-6.11,3.77
		c11.12-4.04,9.72,0.88,17.72-5.7c10.25-8.43,0.64,3.16-0.81,5.3c-4.37,6.42-11.53,8.73-17.82,12.43
		c-9.81,5.76-20.98,5.81-31.67,8.76c0.27-21.86,8.71-29.34,8.05-40.94c4.79-4.58,9.17-9.37,15.48-11.71
		c-4.89,1.73-9.57,3.56-14.16,6.21c-0.1-1.83,0.64-3.04,1.32-4.38c11.04-21.46,7.46-18.82,13.24-25.16
		c4.76-5.21,5.01,2.97,10.08-0.61c-1.43,3.06-3.16,4.79-4.18,7.64C297.18,124.82,297.79,122.68,300.03,121.35z M269.48,107.81
		c14.26,4.14,24.5,1.78,29.43,4.38c0.13,1.73-1.57,3.48-4.38,2.55c-10.88-3.63-20.67,31.08-23.53,36.05
		c-0.52,0.91-0.9,1.93-0.81,2.95c0.66,7.73-5.3,17.12-5.3,26.79c0,4.19-4.18,11.71-2.24,15.58c21.18,4.48,51.84-9.37,60.5-30.35
		c0.92,0.61,1.73,1.43,2.34,2.55c-3.29,9.99-12.32,27.77-12.32,27.8c-2.58,7.75-21.44,11.04-29.43,11.61
		c-10.22,0.73-14.91-5.37-30.04,0.61c-8.7,3.44-12.61,1.93-19.86,3.77c-13.04,3.31-25.9-0.53-31.57-1.63
		c-4.13-0.8-11.12-15.11-25.16-4.58c-8.02-4.01-12.48-4.58-12.83-16.6c-0.74-25.39,3.88-21.04,1.63-36.77
		c4.07,2.75,8.35,4.68,11.3,8.15c2.34,0.1,4.18,1.73,6.62,1.73c-0.41,3.67-1.73,6.82-0.61,10.59c2.86-12.51,1.11-10.72,5.5-8.96
		c-0.92,6.82-0.2,13.44,1.94,19.86c-0.41-6.31,1.02-12.53,0.71-18.74c1,0,0.55-1.52,3.16,8.05c0.87,3.18,5.41,12.59,8.66,15.28
		c-3.56-7.13-6.82-14.36-8.35-22.61c3.56,0.61,6.82,0.1,10.08-0.2c0.56,1.2-0.71,1.13-0.71,2.63c3.11,2.26,4.21,4.92,5.5,5.32
		c6.25,1.92,11.41,7.23,18.64,6.01c6.43,2.51,24.08,0.32,29.54-8.66c9.06-14.93,11.62-20.42,9.78-40.43
		c-1.48-16.1-12.89-19.68-21.49-23.12C254.41,105.57,262.15,105.68,269.48,107.81z M167.13,209.76c-0.61-1.94-0.81-3.67-0.51-5.7
		c1.43,3.67,4.68,5.19,7.84,6.42c0,1.32-1.02,1.32-1.53,1.83C171,211.39,169.57,209.45,167.13,209.76z M172.42,214.64
		c-1.02-0.1-1.43-0.61-1.83-1.22C171.51,213.22,172.02,213.52,172.42,214.64z M244.73,107.91c-0.71,2.14-2.24,1.22-3.56,0.92
		C242.19,108.01,243.31,107.61,244.73,107.91z M127.92,122.27c1.33-6.72,7.24-11.57,14.16-12.12c1.02-0.08,1.22,0.92,1.94,0.92
		c14.2-9.61,41.11-8.16,59.27-1.53c10.45,3.82,14.43,5.76,19.76,5.19c-1.53,2.44-4.48,3.16-5.81,6.31c3.36-1.73,6.43-2.73,9.06-4.68
		c9.22-6.83,25.36-7.06,33,2.24c5.17,6.29,6.93,12.41,4.07,31.98c-1.12,7.64-4.97,14.07-9.37,20.06c-3.14,4.29-8.56,5.69-13.65,6.52
		c-17.21,2.79-25.51-4.02-29.03-5.19c0.1-0.2,0.2-0.41,0.31-0.71c2.24,0.81,4.68,1.23,6.52,2.55c5.38,3.83,13.51,1.96,16.8-0.1
		c-8.35-0.6-14.86,0.79-27.4-8.45c-6.92-5.1-8.82-0.01-18.54-4.18c-4.07-1.74-8.55-2.35-12.73-3.97c-3.97-1.54-6.84-4.64-10.49-6.42
		c-2.19-1.06-0.98-5.33-6.82-15.99c-1.6-2.92-1.82-1.28-1.63-0.71c9.6,22,2.67,38.04,4.89,61.31c0.4,4.18,2.2,8.24,2.65,12.43
		c0.48,4.47,2.65,7.43,6.82,9.27c-1.41,30.29,10.25,35.23,7.03,37.38c-9.66-11.33-8.64-10.81-9.47-9.98
		c1.73,4.38,4.79,8.15,7.43,12.02c-1.02,1.73-2.55,2.04-4.68,1.94c-2.24-5.09-7.74-7.23-11-11.61c1.12,4.68,3.77,8.66,7.23,12.22
		c-3.97,1.32-8.76-1.02-10.8-4.89c-1.02-1.94-2.04-3.97-4.28-4.89c2.24,3.67,4.07,7.54,6.82,10.8c-2.14,1.12-4.67,0.7-6.21-1.43
		c-4.07-5.59-9.15-8.28-9.17-9.57c-0.05-5.7-1.63-11.1-1.63-16.91c0-6.93,0.43-13.96-2.65-20.78c-3.31-7.31,0.1-9.3-5.4-31.06
		c-0.12-0.46-8.69-28.27-5.81-42.98C130.4,130.82,127.04,126.68,127.92,122.27z M143.91,251.1c-3.97-2.24-4.38-3.56-2.75-9.27
		c0.61,1.53,2.75,2.44,1.32,4.89C141.87,247.64,143.91,249.37,143.91,251.1z M140.34,237.97c-7.6,7.82,1.62,19.52,5.7,15.89
		c4.18,2.34,5.4,7.84,10.59,9.17c-5.91,18.98-23.1,9.79-28.21,2.24c-3.43-5.07-4.85-12.68-6.21-25.16
		c-1.38-12.66,7.14-21.84,8.45-22.41c3.26-1.41,6.21-0.41,9.27,0.81C141.97,225.13,139.83,231.55,140.34,237.97z M103.07,212.71
		c-2.84-12.11-1.87-24.65,0.2-28.21c12.4-21.3,16-22.31,23.12-28.52c0.81,1.22,0.73,2.65,0.92,3.87
		c2.37,15.25,10.33,30.52,9.17,41.55c-8.35-2.24-15.07-6.72-21.59-11.92c-1.14,3.23,12.73,14.02,22,14.36
		c0.51,4.28,1.02,8.35,2.85,12.32c-12.1-4.51-20.19,5.92-20.06,21.49c0.02,2.24,0.09,4.27-1.32,6.42
		c-2.15,3.25-1.12,7.43,2.04,10.29c2.92,2.65,1.64,5.89,5.4,10.08c9.55,10.64,23.42,18,30.04,5.7c1.1-2.05,1.53-4.28,2.34-6.62
		c1.83-0.1,3.46-0.41,4.07-2.44c3.67,1.53,3.67,1.53,7.64-0.61c-7.07,20.2-10.88,63.53-12.73,66c-10.49,4.38-20.99,3.08-31.37-0.2
		c-17.01-5.39-17.54-6.63-18.33-8.86C90.08,268.2,111.06,246.75,103.07,212.71z M109.89,326.98c-6.62-1.32-13.34-0.61-19.96-1.22
		c2.24-3.36,7.33-7.03,12.93-9.27C104.71,323.33,112.84,321.09,109.89,326.98z M74.35,303.25c9.21-17.32,18.53-12.56,16.8-22.41
		c-2.25-6.75,3.48-12.81,6.52-16.3c-1.32,13.14,0.51,25.56,1.32,38.29c-1.12,0.31-2.14,1.12-1.73,2.85
		c-1.02-0.61-1.63-1.53-2.85-0.71c-1.02,2.55,0.41,4.68,1.43,6.93c-0.1,0.71-0.71,0.81-1.32,1.32c-1.02-0.2-0.81-1.83-2.04-1.83
		c-1.73-0.1-1.53,2.14,0.71,6.42c-0.41,0.92-1.12,1.32-2.04,1.43c-0.63,2.67-5.91,4.87-5.91,9.06c0,0.41-0.3,0.92-0.51,1.22
		c-2.22,3.28-5.7,1.63-8.66,1.94c-2.83,0.29-3.78-2.55-5.5-15.89C69.99,310.99,72.29,307.11,74.35,303.25z M41.55,357.74
		c-1.53-7.54-3.87-14.97-0.31-21.69c5.6-1.83,9.79-3.94,14.36-4.99c4.69-1.08,9.57-0.92,14.56-2.75c0.7,7.3,12.9,10.19,17.72-0.2
		c7.33-0.2,14.67,0.1,22,1.12c0.2,6.01-1.73,11.1-5.81,15.38c-5.81,6.11-10.18,13.24-15.07,19.45
		C73.12,362.32,57.24,362.32,41.55,357.74z M100.11,487.18c-1.32,0.71-2.04,0.1-2.95,0C98.08,486.67,98.89,486.77,100.11,487.18z
		 M75.98,484.13c5.21-2.75,10.7-0.38,16.12-0.45c-4.36,0.24-8.55,1.26-12.76,2.28c3.56,1.12,7.23,0.51,11.3,1.12
		c-3.16,1.53-6.52,1.22-9.98,3.06c20.06,3.25,20.6-2.31,21.49,7.94c-6.09-0.41-8.55-1.14-17.01,2.44
		c5.91,1.63,11.81,2.65,18.03,0.41c5.55,17.67,17.74,15.47,13.04,25.66c-11,0.92-22.1,0.2-33.3-1.63c0.71-1.53,1.94,0.41,2.75-1.32
		c-3.97-1.73-8.66-1.73-12.22-4.79c-0.51-3.46-3.72-6-4.48-9.57c-0.22-1.02-1.32-1.63-2.34-1.83c-5.58-1.49-5.94-3.76-9.98-6.01
		c5.04-19.09,8.75-12.43,8.66-22.1c-0.05-5.09,1.73-9.27,5.6-12.83c-0.1,2.95-0.71,4.07-2.75,6.21
		C61.92,479.25,71.66,485.74,75.98,484.13z M74.04,480.87c-4.18,0.2-4.99-0.92-4.79-5.6c0.2-0.81,1.13-0.71,1.53-1.22
		c0.31-0.4,0.41-1.12,1.73-0.81C72.92,475.67,71.6,478.63,74.04,480.87z M73.53,467.93c1.73,1.12,1.73,1.12,0.31,3.26
		C72.51,469.97,73.43,468.95,73.53,467.93z M72.82,466c-3.07-6.15,0.95-0.67-14.87,2.85c-1.74,0.39-3.67,0-5.81,1.94
		c4.68,0.2,8.35-1.22,12.63-2.04c-8.1,23.79,5.07,8.83-16.6,16.3c-4.05,1.4-27.8,8.78-30.76,8.35c-4.9-0.71-9.57-2.14-14.46-3.56
		c1.53-5.3,1.94-10.69,2.95-15.99c17.85-2.86,35.87-10.54,45.42-11.2c2.14-0.15,8.39-1.76,10.39-2.65c2.25-0.99,4.18,0.81,6.52,0.31
		c-1.43-2.44-1.34-4.89-0.92-7.43c1.99-11.94-0.57,10,0.61-83.11c0.12-9.1-4.81-3.31,20.27-3.67c-8.18,18.17-2.78,42.69-12.32,96.14
		C75.47,463.76,73.33,463.65,72.82,466z M119.06,412.12c-7.74,13.78-19.35,21.34-20.17,59.07c-1.32-2.04-1.22-4.28-2.95-4.68
		c-0.41-7.84,0.41-15.28,3.46-22.41c-2.44,1.53-5.5,15.07-5.5,22.41c-17.25-1.4-9.06,1.91-12.12-7.64
		c-1.74,3.05-0.59,11.38-4.48,8.05c-0.05-0.1,8.75-49.87,8.55-72.82c-0.19-23.16,9.34-32.91,23.63-51.23
		c0.71,1.43,0.1,3.06,1.63,4.18c1.12-7.43,0.71-14.87,1.94-22.41c26.15,8.72,14.1,6.72,41.25,6.72c2.3,7.73-2.65,19.05-13.24,22.2
		c1.53,0.81,2.95-0.1,4.48,0.51c-0.2,1.63-0.1,3.16-1.83,4.38c-1.77,1.06-3.33,6.62-6.21,7.54c-1.46,0.47-5.2,13.59-5.6,15.07
		c-0.42,1.53-0.92,2.85-2.75,3.67c1.02-3.26,0.2-6.52,0.71-9.57c-0.71,3.16-1.25,6.51-2.24,9.57
		C126.58,387.93,134.29,385.01,119.06,412.12z"/>
	<path d="M845.01,494.51c-2.59-14.94-1.87,3.17-5.91-39.92c-7.03-74.99-7.2-69.94-4.18-70.27c3.78-0.42,4.81-3.33,8.05-14.56
		c0.9-3.12,0.88-1.66-1.83-17.21c-0.47-2.7-3.03-0.09-1.32,4.48c3.27,8.77,0.58,25.86-8.76,26.38c8.97-13.71,4.46-18.55,2.14-34.83
		c-5.16,9.1,8.47,18.1-4.58,34.12c-4.33-2.71-1.01-6.29-2.55-9.37c-3.36,4.07,0,7.33,0.61,11c-5.91,1.32-11.61,3.06-17.42,4.18
		c13.6,3.4,22.44-9.5,21.39,0.51c0.71,14.56,4.03,28.92,4.58,43.49c1.46,38.9,5.71,56.34,8.35,66.91c1.16,4.64,1.17,7.45,3.56,5.91
		c0.38-10.95-7.67-7.13,8.76-11.61c0.11-0.03,16.86-4.45,19.15-7.03c-5.4-0.61-9.78,2.32-14.67,3.56
		C855.29,491.54,850.3,492.99,845.01,494.51z"/>
	<path d="M386.7,495.94c-4.99,1.22-9.98,2.75-15.17,4.28c-8.52-49.25-5.4-51.02-12.63-108.87c3.59-2.25,5.77-0.62,7.74-7.23
		c2.22-7.44,4.09-9.77,3.06-14.56c-2.43-11.29-1.42-12.43-3.36-12.43c-2.78,5.86,5.43,7.19-1.53,26.48
		c-1.37,3.79-4.07,4.68-7.13,5.7c0.61-1.63,1.6-2.97,2.34-4.48c6.62-13.4,0.29-19.3-0.31-30.25c-2.55,0.79-1.8,8.22,0.31,12.43
		c2.95,5.91-0.17,9.15-0.2,11.81c-0.05,3.77-2.24,6.62-4.58,9.37c-4.33-0.79-1.77-5.97-2.95-8.45c-3.16,3.46-0.1,6.82,0.61,10.49
		c-6.01,1.43-11.61,3.06-17.42,4.18c7.54,1.63,14.05-0.92,20.57-4.07c1.25,2.92,5.54,43.28,5.7,47.77
		c1.41,39.64,6.4,60.5,9.17,70.99c0.3,1.12,0.31,2.65,2.44,2.34c0.71-3.06-1.12-5.91-1.22-9.17c9.88-2.95,19.96-5.4,29.43-9.78
		C396.18,491.66,391.7,494.72,386.7,495.94z"/>
	<path d="M137.8,373.62c1.37,2.75-5.5-1.49,88.2,11.3c1.64,0.22,39.02,1.79,57.03,5.6c13.55,2.87,37.17,1.85,48.38,2.95
		c1.02,0.1,2.04,0.41,3.16-0.81c-2.35-0.61-105.61-9.97-105.71-9.98c-9.88-0.95-19.65-3.31-29.64-3.87
		c-3.97-0.22-8.15,0.31-12.02-0.51c-14.36-3.04-29.06-3.12-43.59-5.3C141.76,372.74,139.83,372.4,137.8,373.62z"/>
	<path d="M611.37,367.92c0.96,3.21,45.09,4.56,85.86,11.2c4.55,0.74,42.13,2.33,53.06,4.58c20.66,4.25,75.89,5.19,52.14,2.34
		c-9.98-1.2-20.06-0.74-30.15-1.73c-6.77-0.67-53.61-6.74-64.16-6.52c-2.53,0.05-26.52-3.98-32.69-4.48
		c-4.99-0.4-10.09,0.02-15.07-0.81C660,372.44,614.29,365.39,611.37,367.92z"/>
	<path d="M402.9,493.5c5.91,3.16,12.83,1.53,18.84,3.77c0.51,4.79,1.63,9.17,3.16,13.95c-17.44,5.58,8.22,0.51-90.34,31.88
		c-16.11,5.13-17.57,3.39-19.45,6.21c1.99,2.66,51.22-13.91,51.33-13.95c19.24-8.59-0.51,2.76,57.75-22
		c4.85-2.06,0.57-7.91-0.92-18.94C416.14,494.72,409.62,492.99,402.9,493.5z"/>
	<path d="M897.97,494.72c-0.58-2.15-0.2-4.58-1.43-6.21c-7.03,0.2-13.55-1.53-20.17-0.81c5.91,3.16,12.63,1.53,18.74,3.67
		c0.71,4.68,1.63,9.17,3.36,14.16c-5.3,1.53-9.76,3.91-14.36,6.11c-13.13,6.28-80.14,28.14-91.25,29.74
		c-5.19,0.75-4.91,3.45-1.83,2.75c16.95-3.88,69.85-20.34,106.53-36.56C901.52,505.8,899.91,501.99,897.97,494.72z"/>
	<path d="M242.7,367.11c3.46,1.43,45.63,3.56,51.64,2.85C277.02,367.21,259.7,369.24,242.7,367.11z"/>
	<path d="M767.6,364.46c-16.7-3.06-33.81-0.81-50.72-2.85C733.69,364.56,750.8,362.22,767.6,364.46z"/>
	<path d="M813.13,371.28c-1.02-1.12-1.12-3.06-3.77-3.46c4.58,5.19,2.95,11.1,3.77,16.6c0.81-1.94,0.41-4.07,0.92-6.62
		c1.43,2.75,0.41,5.3,1.73,7.43c0.71-5.91-1.02-11.51-2.04-17.82C812.62,369.14,814.25,370.36,813.13,371.28z"/>
	<path d="M335.88,373.73c3.84,5.21,3.36,6.39,3.36,16.7c1.22-2.04,1.02-4.18,1.12-7.03c1.63,2.95,0.41,5.7,1.83,7.94
		c0.61-6.01-0.92-11.71-2.14-18.13c-1.02,1.73,0.41,2.85-0.41,3.87C338.43,376.17,338.43,374.03,335.88,373.73z"/>
	<path d="M201.75,364.66c0.31-0.81-0.1-1.73,0.92-2.14c6.11-0.31,12.12,0.81,18.23-0.31c-37.55-1.71-33.81-1.86-33.81-1.22
		C205.47,362.59,200.19,361.54,201.75,364.66z"/>
	<path d="M676.25,356.41c5.91,0,12.02,1.22,18.13,0.1c-10.18-0.2-20.27-1.73-30.45-1.22c8.15,0.71,8.15,0.71,11.41,3.16
		C675.54,357.84,675.43,357.02,676.25,356.41z"/>
	<path d="M325.8,373.11c-3.67-1.53-7.33-1.94-11.1-1.02c-0.1,4.38-0.71,8.66,0.92,13.14c0.61-4.28-1.32-8.35,0.71-12.22
		C319.49,372.81,322.64,373.01,325.8,373.11z"/>
	<path d="M799.07,367.41c-3.46-1.63-6.52-1.83-12.73-0.71c3.66-0.5-0.59,6.22,3.06,14.36c0.1-4.68-1.43-9.17,0.1-13.85
		C792.86,366.29,796.02,367.51,799.07,367.41z"/>
	<path d="M340.98,251.82c-2.44,2.34-6.21,3.16-7.54,6.72C337.21,257.83,339.04,254.67,340.98,251.82z"/>
	<path d="M814.55,245.91c-2.44,2.34-6.31,3.16-7.54,6.82C810.79,251.92,812.62,248.97,814.55,245.91z"/>
	<path d="M328.25,279.52c-1.45,0-1.05-1.33,1.93,15.28C330.28,289.6,329.37,284.51,328.25,279.52z"/>
	<path d="M324.17,286.24c0.2-4.38,0.31-8.55,0.92-13.24c-3.2,1.32-0.74,7.13-2.34,11C322.36,284.93,322.95,285.83,324.17,286.24z"/>
	<path d="M796.53,280.23c1.37,0,1.12,2.21,1.83-12.83C797.04,267.4,797.21,265.97,796.53,280.23z"/>
	<path d="M804.27,288.58c-0.61-5.09-1.32-10.08-2.65-14.97c-0.2,0-0.51,0.1-0.71,0.1C804.14,290.94,803.03,287.97,804.27,288.58z"/>
	<path d="M865.78,502.25c13.26-4.31,12.41-3.32,12.02-4.48C864.33,501.48,865.36,500.98,865.78,502.25z"/>
	<path d="M338.94,227.07c0.81-3.46-0.31-6.82-0.92-10.18C336.7,220.45,337.92,223.81,338.94,227.07z"/>
	<path d="M812.52,221.37c0.81-3.46-0.2-6.72-0.92-10.08C810.18,214.85,811.5,218.01,812.52,221.37z"/>
	<path d="M392,508.16c4.38-1.32,8.45-2.65,12.53-3.87C398.52,504.6,393.63,506.33,392,508.16z"/>
	<path d="M814.45,227.68c-1.22-0.41-0.92-0.37-0.92,8.96C815.27,233.59,815.17,230.63,814.45,227.68z"/>
	<path d="M340.77,233.28c-1,0.5-0.71-1.98-0.71,9.17c0.2,0,0.51,0,0.71,0C341.59,239.39,341.79,236.34,340.77,233.28z"/>
	<path d="M827.79,512.44c-3.36,0.61-6.62,1.02-9.17,3.56C821.68,514.98,825.04,514.37,827.79,512.44z"/>
	<path d="M354.22,518.04c-3.26,0.81-6.52,1.32-9.06,4.07C355.08,518.47,354.68,518.97,354.22,518.04z"/>
	<path d="M322.34,255.89c1.32,3.46,3.77,4.28,6.31,4.89C326.72,259.25,325.5,256.81,322.34,255.89z"/>
	<path d="M353.91,345.62c-2.55,0-4.99,0-7.74,0C349.43,347.35,352.28,347.25,353.91,345.62z"/>
	<path d="M825.66,326.88c0.92,2.55,1.43,4.89,3.06,6.82C828.91,330.44,828.3,329.12,825.66,326.88z"/>
	<path d="M308.39,529.75c2.65,0.61,5.19,1.63,7.84,0.61C313.68,528.84,311.03,529.55,308.39,529.75z"/>
	<path d="M352.59,332.89c0.2,2.44,1.12,4.68,2.65,6.72C355.85,336.86,354.32,334.82,352.59,332.89z"/>
	<path d="M781.46,523.74c4.18,1.53,7.03,1.63,8.55,0.31C787.16,523.34,784.41,523.44,781.46,523.74z"/>
	<path d="M365.22,515.7c2.65-1.02,5.7-0.71,8.15-2.44C370.51,513.86,367.56,513.66,365.22,515.7z"/>
	<path d="M125.17,451.64c-3.26,0-5.5,0.92-7.54,2.34C119.97,453.57,122.52,453.67,125.17,451.64z"/>
	<path d="M796.32,250.6c1.02,2.75,3.16,3.87,5.91,4.28C800.3,253.35,799.07,251,796.32,250.6z"/>
	<path d="M336.39,328.51c0.51-2.55,0.92-4.68,0-7.43C335.37,324.23,335.37,325.86,336.39,328.51z"/>
	<path d="M154.29,355.8c-1.22,2.65-1.02,5.4-0.92,8.96C154.09,361.3,154.7,358.65,154.29,355.8z"/>
	<path d="M804.17,190.41c2.24-0.41,4.38-0.81,6.52-1.83C806.61,188.16,804.98,188.67,804.17,190.41z"/>
	<path d="M598.03,446.24c-2.44-0.51-4.48,0.51-6.42,1.63C593.96,448.07,596.1,447.46,598.03,446.24z"/>
	<path d="M169.67,359.98c3.36,0,6.82,0,10.18,0C176.5,358.35,173.03,359.26,169.67,359.98z"/>
	<path d="M337.21,194.17c-2.34,0.41-4.89-0.31-7.43,1.83C332.93,196.11,335.07,195.4,337.21,194.17z"/>
	<path d="M627.87,350.1c-1.12,2.44-1.02,5.09-0.81,7.64C627.77,355.19,628.18,352.75,627.87,350.1z"/>
	<path d="M783.7,376.48c0-3.26,0-6.11,0-8.96C782.47,370.36,783.08,373.22,783.7,376.48z"/>
	<path d="M359.41,348.47c-2.04-1.43-3.56-1.32-5.19,0.81C356.25,349.49,357.88,350.1,359.41,348.47z"/>
	<path d="M809.36,314.96c-0.31,2.95-0.2,5.19,0.41,7.33C810.18,320.16,811.3,317.91,809.36,314.96z"/>
	<path d="M822.19,364.05c-4.63,0.49-7.18,0.29-5.81,1.93C818.32,365.48,820.56,366.09,822.19,364.05z"/>
	<path d="M827.39,339.91c-2.44,0-4.99,0-7.43,0C822.4,340.52,824.84,341.75,827.39,339.91z"/>
	<path d="M342.4,371.49c2.44,0.41,4.48,0.1,6.31-1.02C346.58,370.06,344.54,369.96,342.4,371.49z"/>
	<path d="M309.4,373.22c-0.41,2.55,0.1,4.99,0.81,7.43C310.22,372.09,310.49,373.22,309.4,373.22z"/>
	<path d="M838.79,509.89c2.44-0.81,5.19-0.81,7.54-2.24C843.68,507.96,840.93,507.75,838.79,509.89z"/>
	<path d="M795.82,524.46c2.24-0.2,4.28-1.02,6.11-2.24C799.79,522.72,797.55,522.72,795.82,524.46z"/>
	<path d="M350.14,324.74c0.41-1.73-0.1-3.06-1.32-4.99C348.31,323.11,348.31,323.11,350.14,324.74z"/>
	<path d="M823.62,319.04c0.41-1.73,0.1-3.16-1.22-4.89C821.79,317.2,821.79,317.2,823.62,319.04z"/>
	<path d="M322.14,530.36c2.04-0.2,4.07-0.81,5.81-2.04C325.8,528.53,323.87,528.94,322.14,530.36z"/>
	<path d="M337.82,209.25c1.12-2.55,1.12-2.55,0.81-4.48C337.11,206.19,337.21,207.62,337.82,209.25z"/>
	<path d="M812.52,199.16c-1.83,1.73-1.83,1.73-0.92,4.99C811.91,202.22,812.72,200.9,812.52,199.16z"/>
	<path d="M835.64,504.9c2.14,1.32,3.87,1.12,5.5,1.02C839.61,505.41,838.08,504.6,835.64,504.9z"/>
	<path d="M832.99,342.56c-2.04-1.02-3.56-1.22-5.09,0.71C829.73,343.58,831.26,343.99,832.99,342.56z"/>
	<path d="M362.36,511.01c2.04,0.92,3.46,1.32,5.91,1.12C366.23,510.61,364.6,510.71,362.36,511.01z"/>
	<path d="M824.33,278.7c2.04-1.32,1.53-2.85,1.53-4.28C823.11,274.94,824.74,276.87,824.33,278.7z"/>
	<path d="M645.7,353.36c1.22,0.2,2.44,1.32,3.87,0C648.24,352.64,647.02,353.15,645.7,353.36z"/>
	<path d="M339.65,204.46c1.53-1.22,2.55-1.93,2.75-3.56C340.57,200.9,340.37,202.32,339.65,204.46z"/>
	<path d="M816.08,194.48c-2.04,0.61-2.34,1.83-2.65,3.97C814.76,197.03,816.29,196.52,816.08,194.48z"/>
	<path d="M346.58,311.4c0.2-1.83,0.2-2.85-0.81-4.07C345.25,308.95,345.05,310.07,346.58,311.4z"/>
	<path d="M820.05,305.08c0.41-1.32,0.31-2.34-0.81-3.77C818.93,302.94,818.32,304.27,820.05,305.08z"/>
	<path d="M351.57,279.93c-0.81,1.73-0.92,2.85-0.41,4.38C352.48,282.98,352.79,281.86,351.57,279.93z"/>
	<path d="M660.57,354.68c-1.63-0.2-3.26-0.31-4.89-0.41C657.31,355.29,658.94,354.78,660.57,354.68z"/>
	<path d="M576.85,451.74c3.71-1.24,3.94-0.67,3.46-1.63C576.33,451.11,576.53,451.09,576.85,451.74z"/>
	<path d="M106.94,456.02c-1.12,0.71-2.65,0.2-3.46,1.43C104.49,456.53,106.12,457.34,106.94,456.02z"/>
	<path d="M343.42,246.93c-0.92,1.12-1.53,1.94-1.22,3.16C343.01,249.37,344.24,248.76,343.42,246.93z"/>
	<path d="M352.79,509.99c-0.71-1.22-1.53-1.53-2.85-1.22C350.65,509.89,351.47,510.1,352.79,509.99z"/>
	<path d="M816.69,241.12c-0.61,1.02-1.43,1.73-1.12,3.46C816.69,243.36,817.92,242.75,816.69,241.12z"/>
	<path d="M347.8,290.11c0.41-1.32,1.53-1.94,0.81-3.36C347.7,287.67,347.29,288.48,347.8,290.11z"/>
	<path d="M826.67,503.88c-1.22-0.61-1.83-1.43-3.46-1.02C824.23,504.19,825.15,504.19,826.67,503.88z"/>
	<path d="M184.14,360.08c-1.83,0-3.06,0-4.28,0C181.08,360.38,182.3,360.69,184.14,360.08z"/>
	<path d="M157.15,357.23c0.81,0.41,1.63,0.81,2.55,0.2C158.67,357.33,157.86,357.33,157.15,357.23z"/>
	<path d="M632.66,352.03c0.92,0.1,1.73,0.1,2.55,0.2C634.49,351.83,633.68,351.42,632.66,352.03z"/>
	<path d="M821.17,283.49c1.02-0.71,1.63-1.43,1.02-2.65C821.28,281.35,820.97,282.07,821.17,283.49z"/>
	<path d="M652.83,354.27c0.95,0,1.9,0,2.85,0c0.03,0,0.07,0,0.1,0C654.76,353.87,653.84,353.76,652.83,354.27z"/>
	<path d="M316.64,546.45c0.81-0.51,0.61-1.12,0.31-1.73C316.33,545.23,316.23,545.74,316.64,546.45z"/>
	<path d="M333.44,355.6c0.81-0.2,1.53,0,1.73-1.22C334.36,354.38,333.64,354.17,333.44,355.6z"/>
	<path d="M807.22,349.49c0.71,0.2,1.32,0.31,1.53-0.92C807.73,348.26,807.22,348.47,807.22,349.49z"/>
	<path d="M346.37,293.68c-0.71,0.71-0.71,1.12,0,1.43C346.99,294.8,346.88,294.29,346.37,293.68z"/>
	<path d="M819.75,288.07c-0.51,0.41-0.51,0.81,0.31,1.12C820.05,288.79,820.77,288.18,819.75,288.07z"/>
	<path d="M318.16,536.47c0,0.59,0.28,0.49,0.41,0.1C318.74,536.07,318.16,536.05,318.16,536.47z"/>
	<path d="M790.42,540.34c0.1-0.71,0.41-1.12-0.41-2.14C790.32,539.22,789.7,539.63,790.42,540.34z"/>
	<path d="M821.68,311.19c-0.1-0.71,0.31-1.43-1.02-1.43C820.67,310.38,820.87,310.79,821.68,311.19z"/>
	<path d="M809.67,313.84c0.61-0.41,0.51-0.81-0.1-1.43C809.46,312.92,808.65,313.43,809.67,313.84z"/>
	<path d="M220.19,346.64c0.51-0.41,0.92-0.71,1.32-1.12C220.8,345.51,220.09,345.31,220.19,346.64z"/>
	<path d="M348.11,316.69c0.1-0.61,0.1-1.12-0.81-1.02C346.99,316.49,347.19,316.9,348.11,316.69z"/>
	<path d="M372.85,353.36c-0.34-0.51-1.45,0.19,0,1.02C372.85,353.87,373.06,353.56,372.85,353.36z"/>
	<path d="M650.08,258.34c10.29,10.08,23.83,15.28,34.22,25.05c0.51-0.92,0.41-1.22,0.2-1.43
		C654.78,258.43,655.53,255.88,650.08,258.34z"/>
	<path d="M645.19,251c-11.51-5.91-22.41-11.51-33.61-17.31C617.89,241.33,638.26,252.02,645.19,251z"/>
	<path d="M588.26,222.69c-3.77,7.03-5.4,30.66-2.75,44.2C583.92,238.38,587.61,232.08,588.26,222.69z"/>
	<path d="M604.55,196.52c-0.71-4.28-4.67-4.71-7.43-6.42c-3.04-1.87-5.81-3.97-8.86-5.91C591.82,190.71,598.13,193.66,604.55,196.52
		z"/>
	<path d="M606.69,315.57c-9.47-9.78-19.25-19.05-25.16-31.27C584.79,293.88,601.09,313.94,606.69,315.57z"/>
	<path d="M692.24,233.89c-7.64,3.77-13.44,10.29-21.49,13.34C679.2,244.89,685.82,239.49,692.24,233.89z"/>
	<path d="M693.36,218.51c-3.16-1.79-11.39-1.9-8.35,2.44C687.76,219.84,690.51,218.82,693.36,218.51z"/>
	<path d="M605.77,225.44c0.51-5.91-2.04-10.69-5.4-15.17C602.41,215.26,604.55,220.14,605.77,225.44z"/>
	<path d="M632.86,281.86c-5.3,1.73-10.69,1.63-15.38,3.97C623.19,285.83,631.74,283.7,632.86,281.86z"/>
	<path d="M621.36,221.16c21.74,12.32,25.77,24.98,28.72,24.75c-1.26-4.55-8.82-11.71-12.32-14.87
		c-11.44-10.34-27.65-14.61-26.89-26.07C604.61,206.68,617.4,218.92,621.36,221.16z"/>
	<path d="M589.58,313.64c-2.44-3.97-4.89-7.64-6.93-11.51C583.16,306.71,586.42,312.01,589.58,313.64z"/>
	<path d="M588.66,188.16c-1.83,3.46-1.63,7.13-0.2,10.69C588.36,195.29,588.05,191.83,588.66,188.16z"/>
	<path d="M653.23,219.53c1.02,2.55,2.04,4.99,3.06,7.54C656.9,223.4,656.08,221.77,653.23,219.53z"/>
	<path d="M625.63,295.31c4.68-2.14,7.03-4.07,8.15-6.93C631.13,291.23,627.97,292.86,625.63,295.31z"/>
	<path d="M624.82,304.57c-2.44,1.93-5.81,2.04-8.25,3.97C619.62,307.73,622.88,307.53,624.82,304.57z"/>
	<path d="M625.63,272.19c2.55,0,4.99,0,7.03,1.43C630.83,271.27,628.59,270.76,625.63,272.19z"/>
	<path d="M577.87,277.99c0.51,2.14,1.32,3.26,2.34,4.28C580.01,280.74,579.4,279.52,577.87,277.99z"/>
	<path d="M606.49,205.48c-0.61-0.92-1.32-0.41-2.04-0.31C605.06,205.58,605.57,206.19,606.49,205.48z"/>
	<path d="M701.81,237.56c0.9-1.24,0.81-1.9-0.81-1.63C701.3,236.34,700.79,237.15,701.81,237.56z"/>
	<path d="M712.91,279.01c0.41,0,0.61-0.1,1.02-0.1C713.63,278.6,713.32,278.5,712.91,279.01z"/>
	<path d="M653.23,88.87c4.87-3.59,9.46-2.61,10.08-5.4c-2.75-1.02-8.39-0.54-10.59,2.24c-2.8,3.53-6.34,5.23-10.08,7.03
		c-2.87,1.38-5.57,5.06-9.78,3.77c-0.92-0.28-1.94,0.1-2.24,1.53c1.43,1.02,3.56-0.51,4.58,1.22c2.34-0.92,4.81-1.4,6.42-2.85
		c3-2.7,6.11-3.67,9.88-3.26C653.49,93.14,649.7,91.48,653.23,88.87z"/>
	<path d="M707.11,123.7c3.36-3.77,3.85-6.09,1.73-8.55c-2.78-3.23-6.31-4.38-8.66-2.95c-5.09-2.04-10.49-1.32-16.09-1.63
		c3.68,1.72,5.72,0.31,16.09,3.06C710.49,116.34,705.46,123.28,707.11,123.7z"/>
	<path d="M637.34,112.09c4.08,0.45,7.84,2.95,12.22,1.94c-7.43-5.6-16.19-3.67-24.44-4.68C629.1,110.97,633.18,111.62,637.34,112.09
		z"/>
	<path d="M567.89,98.95c8.45,1.53,16.7,1.63,24.95-1.02C590.9,96.71,569.62,97.93,567.89,98.95z"/>
	<path d="M714.54,101.39c0.81-2.65,0.52-3.78-1.63-4.99c-4.57-2.57-9.47-3.46-14.87-2.44C703.54,96.61,710.27,95.79,714.54,101.39z"
		/>
	<path d="M580.92,92.23c-4.38-1.94-11.1-1.94-15.58-0.71C567.28,92.43,579.6,92.94,580.92,92.23z"/>
	<path d="M584.08,92.84c3.87,2.44,10.18,2.24,11.71-0.51C591.82,93.04,588.05,91.62,584.08,92.84z"/>
	<path d="M662.3,131.54c-0.81-3.16-3.77-4.79-4.79-7.74C657.51,129.3,659.04,131.64,662.3,131.54z"/>
	<path d="M552.41,98.03c4.28-0.61,8.35,0.71,12.63,0.81C560.96,97.12,556.68,96.5,552.41,98.03z"/>
	<path d="M498.63,108.73c1.73-2.14,4.68-2.24,6.93-4.07C501.79,104.24,499.85,105.26,498.63,108.73z"/>
	<path d="M496.9,110.05c-0.92,3.67-0.51,4.58,2.75,5.6C498.94,113.72,499.14,111.58,496.9,110.05z"/>
	<path d="M602.92,91.51c4.38-0.41,5.4-1.53,4.68-4.58C605.47,88.05,605.26,90.9,602.92,91.51z"/>
	<path d="M626.04,100.07c0.61-1.22,1.12-2.24,1.73-3.36c-3.36-0.1-4.58,0.41-5.6,2.44c1.32,0.41,1.94-1.83,3.36-0.92
		C625.94,98.74,625.23,99.36,626.04,100.07z"/>
	<path d="M569.62,80.11c-2.65-1.02-5.3-1.32-7.94-0.31C564.32,80.11,566.97,80.92,569.62,80.11z"/>
	<path d="M687.55,101.29c2.95,0.41,5.7,0.81,8.45,1.22C692.95,100.37,690.81,100.17,687.55,101.29z"/>
	<path d="M652.01,117.28c2.04,4.07,2.04,4.07,4.07,4.07C655.57,119.42,654.35,118.3,652.01,117.28z"/>
	<path d="M677.27,102.11c-2.04,0.61-4.38,0.1-6.31,1.94C678,102.98,677.27,103.15,677.27,102.11z"/>
	<path d="M704.56,136.53c-2.65,0.31-4.58,0.81-6.82,1.94C700.18,138.16,702.32,138.46,704.56,136.53z"/>
	<path d="M502.3,100.88c-2.04-0.1-3.56-0.1-4.79,1.73C499.55,103.02,500.77,102.21,502.3,100.88z"/>
	<path d="M694.38,93.55c-1.82-0.73-2.91,0.41-4.15,0.66C691.52,94.14,692.82,94.83,694.38,93.55z"/>
	<path d="M690.23,94.21c-0.15,0.01-0.29,0.02-0.44,0.05C689.94,94.26,690.09,94.24,690.23,94.21z"/>
	<path d="M502.91,92.02c-2.04-0.1-2.04-0.1-3.36,1.02C501.48,93.14,501.48,93.14,502.91,92.02z"/>
	<path d="M593.65,81.53c-1.02-0.41-2.04-0.31-3.36,0.31C592.43,82.65,592.43,82.65,593.65,81.53z"/>
	<path d="M587.54,82.35c-1.53-0.2-2.55-0.92-3.77,0C584.89,82.86,586.02,83.98,587.54,82.35z"/>
	<path d="M704.15,105.57c-1.22-1.43-2.44-1.73-4.28-2.04C701.1,105.16,702.32,105.36,704.15,105.57z"/>
	<path d="M511.06,99.66c1.02,0.2,1.73-0.2,2.65-1.12C512.28,98.34,511.36,98.24,511.06,99.66z"/>
	<path d="M679.71,97.52c-1.63-0.61-2.34,0.51-3.06,1.53C677.68,98.74,679,99.05,679.71,97.52z"/>
	<path d="M706.8,129.91c1.12-0.51,2.24-1.02,1.73-2.95C707.31,127.67,706.9,128.69,706.8,129.91z"/>
	<path d="M613.51,96.1c0.92-0.92,1.63-1.63,1.22-3.26C613.31,93.65,612.7,94.37,613.51,96.1z"/>
	<path d="M575.73,105.36c0.92-0.1,1.83,0.81,3.16-0.1C577.56,104.86,576.65,105.06,575.73,105.36z"/>
	<path d="M671.36,110.15c1.22,1.12,1.94,0.51,2.75-0.1C673.09,109.54,672.38,109.44,671.36,110.15z"/>
	<path d="M548.03,81.02c0.38,0.38-0.58,0.31,2.85,0.31C550.06,80.92,549.05,80.51,548.03,81.02z"/>
	<path d="M621.36,106.59c0.41,0.92,0.71,1.63,2.14,1.63C623.19,107.1,622.68,106.59,621.36,106.59z"/>
	<path d="M506.37,103.94c1.02,0.61,1.43-0.2,1.94-0.81C507.29,102.51,506.68,102.82,506.37,103.94z"/>
	<path d="M502.71,110.86c0.92,0.1,1.32-0.2,1.53-0.92C503.52,109.74,502.91,109.74,502.71,110.86z"/>
	<path d="M704.05,127.16c0,1.02,0.31,1.32,1.22,0.92C705.28,127.36,704.87,127.06,704.05,127.16z"/>
	<path d="M684.91,138.97c-0.51-0.31-0.92-0.2-1.43,0C683.99,139.38,684.4,139.28,684.91,138.97z"/>
	<path d="M600.27,97.01c0,0.48,0.87,1.17,1.32-0.2C600.88,96.5,600.48,96.5,600.27,97.01z"/>
	<path d="M656.08,176.35c2.92-0.97-5.54-10.67-9.88-39.31C645.9,151.09,650.99,163.72,656.08,176.35z"/>
	<path d="M690,181.75c0,2.46,21.14,8.14,29.23,22.3C718.16,196.95,700.48,183.6,690,181.75z"/>
	<path d="M714.85,200.59c-6.52-5.81-28.62-18.94-33.2-19.66C693.05,186.94,703.85,193.87,714.85,200.59z"/>
	<path d="M708.23,176.66c3.36,2.65,12.43,2.44,15.79-0.2C718.62,176.45,713.42,177.27,708.23,176.66z"/>
	<path d="M726.36,174.42c3.06-1.83,6.62-2.85,9.17-5.5C731.96,169.83,728.7,171.46,726.36,174.42z"/>
	<path d="M725.34,188.57c4.07,1.43,5.81,1.53,7.94,0.2C730.74,187.45,728.29,188.47,725.34,188.57z"/>
	<path d="M680.63,183.28c-0.1-0.05-0.46-1.1-2.75-2.14c-1.22-1.22-2.34-2.55-4.68-3.46C678.35,184.2,698.89,194.97,680.63,183.28z"
		/>
	<path d="M610.05,167.08c0.92-1.53,1.43-3.16,1.12-5.19C609.44,163.62,608.83,165.15,610.05,167.08z"/>
	<path d="M622.68,168.51c0.31,1.53,0.31,3.06,1.73,4.18C623.13,168.19,623.64,168.03,622.68,168.51z"/>
	<path d="M675.03,170.75c-0.37,0.55-0.83-1.91-4.38-1.53c1.85,0.79,4.1,2.01,4.22,1.89C676.44,173.57,678.34,171.85,675.03,170.75z"
		/>
	<path d="M680.53,195.8c0.51,0.92,1.43,1.12,2.65,1.22C682.36,196.11,681.44,195.9,680.53,195.8z"/>
	<path d="M677.47,194.78c1.12,0.71,2.04,1.22,3.06,1.02C679.71,195.19,678.9,194.68,677.47,194.78z"/>
	<path d="M735.62,169.02c0.92,0,1.53-0.41,2.24-1.32C736.75,167.69,736.03,168.1,735.62,169.02z"/>
	<path d="M692.04,199.47c-0.41,0-0.71,0-1.12,0C691.32,199.98,691.63,199.98,692.04,199.47z"/>
	<path d="M628.38,143.45c0.71-0.1,0.92-0.51,1.02-1.53C628.69,142.54,628.18,142.74,628.38,143.45z"/>
	<path d="M678.9,173.6c-0.71-0.92-1.12-1.32-1.94-1.22C677.17,173.3,677.88,173.4,678.9,173.6z"/>
	<path d="M680.63,175.13c0.81,0.81,0.64-0.64-0.31-0.41C680.43,174.92,680.43,175.13,680.63,175.13z"/>
	<path d="M671.67,175.74c0,0.81,0.41,1.12,0.92,1.43C672.79,176.25,672.38,176.05,671.67,175.74z"/>
	<path d="M636.53,192.65c0.53,1.04,2.14,1.65,1.71,0.93C637.88,192.96,637.45,192.55,636.53,192.65z"/>
	<path d="M812.21,111.58c3.46,2.65,7.64,2.85,12.02,3.26c-0.51-1.12,0.61-1.43,0.92-2.24c-1.02-0.92-2.04-1.83-3.06-2.75
		C818.37,109.73,809.62,108.99,812.21,111.58z"/>
	<path d="M819.55,106.08c2.54,1.84,5.19,3.56,8.96,3.97c-2.85-5.4-12.12-8.35-17.92-5.91C813.23,107.1,816.89,104.15,819.55,106.08z
		"/>
	<path d="M740.62,188.27c3.16-1.22,5.7-3.06,6.52-6.52C740.65,185.29,737.99,186.34,740.62,188.27z"/>
	<path d="M748.36,180.83c2.75-0.1,3.06-1.94,4.38-3.77C750.29,177.57,748.76,178.18,748.36,180.83z"/>
	<path d="M760.88,122.88c0-1.83,1.12-3.56,0.61-5.6C759.86,119.52,759.76,120.74,760.88,122.88z"/>
	<path d="M775.24,150.79c2.24-0.2,2.24-0.2,3.16-1.22C777.18,149.16,776.36,149.67,775.24,150.79z"/>
	<path d="M756.91,171.87c-1.57,2.1,1.02,1.71,1.22-0.1C757.62,171.26,757.22,171.56,756.91,171.87z"/>
	<path d="M754.16,167.8c1.02,0.41,1.63,0.2,2.24-0.92C755.59,167.08,754.77,166.37,754.16,167.8z"/>
	<path d="M573.79,390.43c2.23-0.74,1.23-4.16,2.85-5.4c2.36-1.81,2.65-4.07,1.32-6.93C575.32,380.75,573.18,387.68,573.79,390.43z"
		/>
	<path d="M586.32,351.32c0.51,3.97,2.95,7.13,4.99,10.49C590.28,358,589.71,349.29,586.32,351.32z"/>
	<path d="M555.16,439.62c0,13.01-0.31,11.3,0.92,11.3C556.07,438.39,556.54,439.62,555.16,439.62z"/>
	<path d="M567.17,401.43c2.95-1.53,3.67-4.48,3.77-7.64C569.72,396.34,567.68,398.37,567.17,401.43z"/>
	<path d="M586.63,341.44c0.2,2.44,0.2,4.99,1.73,7.03C588.97,345.82,588.46,343.48,586.63,341.44z"/>
	<path d="M608.32,344.7c-1.63-1.22-1.63-3.16-3.67-3.97C603.53,343.48,604.45,344.6,608.32,344.7z"/>
	<path d="M572.37,438.09c-1.83,2.14-2.14,4.68-2.14,7.33C572.22,443.43,572.26,440.71,572.37,438.09z"/>
	<path d="M610.97,357.53c-1.94-1.83-3.56-0.41-5.91-0.31C607.4,358.65,609.03,359.26,610.97,357.53z"/>
	<path d="M592.23,362.32c-0.31,2.34,0.2,3.87,1.94,5.5C594.57,365.48,595.38,363.44,592.23,362.32z"/>
	<path d="M624.72,334.31c-1.43,0.61-3.26,1.12-1.94,3.36C623.49,336.55,624.1,335.43,624.72,334.31z"/>
	<path d="M579.5,376.88c1.22-1.63,0.92-3.06,0.31-4.48C579.8,373.73,578.38,375.05,579.5,376.88z"/>
	<path d="M595.38,374.44c0.41-1.12,1.32-2.34,0.1-3.77C594.16,371.99,594.26,373.22,595.38,374.44z"/>
	<path d="M594.67,379.84c1.12-1.02,2.04-1.73,1.32-3.36C594.67,377.29,593.96,378.11,594.67,379.84z"/>
	<path d="M580.11,369.24c0.51-1.02,0.92-1.63,0.1-2.75C579.5,367.31,578.99,368.02,580.11,369.24z"/>
	<path d="M556.89,434.43c0.61-0.51,0.81-1.12,0.51-1.83C556.79,433.1,556.38,433.61,556.89,434.43z"/>
	<path d="M514.93,466c-6.01,1.83-11.51,3.77-17.31,4.68C501.89,471.5,511.16,468.95,514.93,466z"/>
	<path d="M486.51,470.99c1.43,0.41,2.55,0.71,3.77,0C489.16,470.17,488.04,469.77,486.51,470.99z"/>
	<path d="M495.27,477.2c0.51-0.92,1.73-1.73,0.81-3.26C494.76,474.76,494.97,475.88,495.27,477.2z"/>
	<path d="M494.05,482.39c0,0.41-0.71,0.92,0.2,1.22C494.35,483.21,494.56,482.8,494.05,482.39z"/>
	<path d="M690.71,328.2c-2.34-4.89-4.58-9.78-6.93-14.67C682.05,317.81,685.92,325.15,690.71,328.2z"/>
	<path d="M706.4,334.41c2.34-1.94,4.07-4.38,5.81-6.62C707.41,330.75,706.5,331.87,706.4,334.41z"/>
	<path d="M667.59,305.69c0.51,2.24,1.43,4.07,3.56,4.89C670.04,308.85,670.75,306,667.59,305.69z"/>
	<path d="M714.44,316.9c-0.61-2.14,1.73-4.38-0.2-6.72C713.93,312.42,712.61,314.66,714.44,316.9z"/>
	<path d="M677.98,327.18c1.83,1.43,3.36,1.12,5.4,0.81C681.65,326.27,680.12,326.47,677.98,327.18z"/>
	<path d="M682.67,310.07c0-1.32-0.51-2.34-2.14-3.26C681.04,308.55,681.44,309.56,682.67,310.07z"/>
	<path d="M713.83,322.7c1.02-2.14,1.22-3.87,0.51-5.7C714.34,318.73,713.32,320.36,713.83,322.7z"/>
	<path d="M672.68,313.74c0,1.43,0.51,2.04,1.63,2.34C674.31,314.86,674.01,314.15,672.68,313.74z"/>
	<path d="M690.71,328.2c0.41,1.22,1.02,2.34,2.95,2.65C692.75,329.53,692.24,328.2,690.71,328.2z"/>
	<path d="M694.58,331.97c-0.1,0.1,0.31,0.71,0.51,1.12c0.2-0.2,0.41-0.41,0.61-0.61C695.5,331.97,695.19,331.46,694.58,331.97z"/>
	<path d="M572.06,339.71c-5.5-1.12-11.1-0.61-16.7-0.71C560.86,340.63,566.46,339.71,572.06,339.71z"/>
	<path d="M524.4,336.86c2.63,0.88-0.44,6.92,1.73,11.51c-0.92-3.87,0.71-7.64,0.61-11.41C525.72,336.76,525.11,336.35,524.4,336.86z
		"/>
	<path d="M547.11,349.69c0.31-3.77,1.43-7.54,0.81-11.3C547.92,342.26,546.5,345.92,547.11,349.69z"/>
	<path d="M574.3,489.12c-2.44-3.26-14.36-4.18-17.82-1.22C560.31,489.17,573.26,493.09,574.3,489.12z"/>
	<path d="M576.54,497.26c-4.07,1.02-7.84-0.2-12.22,1.22c2.55,1.63,5.19,1.32,7.03,3.26C572.57,499.81,576.34,501.24,576.54,497.26z
		"/>
	<path d="M552.2,499.91c1.06-1.41,4.78-4.38,1.94-7.23c-2.16-2.16-4.68,0.4-5.4,0.92C547.62,497.67,547.92,498.18,552.2,499.91z
		 M553.22,496.75c-1.12-0.51-2.34-0.81-2.85,1.02C547.27,492.86,555.87,491.89,553.22,496.75z"/>
	<path d="M541,483.31c-1.63,1.73-2.95,3.67-4.07,5.7c1.32,1.02,1.63-1.02,2.55-0.31c0.92,0.92-0.51,2.55,1.12,3.06
		c1.12-0.41,0.5-1.54,1.22-2.24C545.23,486.21,545.18,485.55,541,483.31z M542.12,487.69c-1.63-0.81-1.63-0.81-0.51-2.34
		C542.83,486.16,543.04,486.88,542.12,487.69z"/>
	<path d="M543.14,489.73c-2.08,3.68,1.1,6.92,4.48,4.58c0.3-0.21,0.71-0.51,1.12-0.71C550.55,486.56,544.92,486.58,543.14,489.73z
		 M547.82,490.85c0,3.06-3.87,3.67-3.87,1.02C543.95,489.02,547.82,488.27,547.82,490.85z"/>
	<path d="M563.91,313.03c0.49,0.49,1.49-0.97-0.61-2.65C562.08,311.8,562.69,312.52,563.91,313.03z"/>
	<path d="M140.24,136.02c1.55-0.93-2.71-9.2,2.44-15.79c1.12-1.43,1.63-3.26,0.51-4.89c-3.24-1.21-4.3,5.92-6.42,10.08
		c-4.76,9.36-2.52,15.44-3.67,18.03c-2.24,4.38-1.12,8.66,0.2,13.44C137.79,114.39,137.25,132.44,140.24,136.02z"/>
	<path d="M249.62,145.08c0.41-4.95-6.06-9.17-10.8-10.18c-6.93-1.48-13.26-5.18-15.38-1.32c5.09,1.22,10.08,0.32,14.77,1.94
		C243.3,137.26,245.55,142.13,249.62,145.08z"/>
	<path d="M212.96,164.64c-5.91-3.67-11.61-7.54-15.17-13.85c1.02-2.34-0.31-3.87-2.14-5.3
		C194.12,151.19,205.32,165.25,212.96,164.64z"/>
	<path d="M163.97,125.43c-3.16-1.83-5.4-4.07-9.47-2.44C157.76,124.61,160.1,126.65,163.97,125.43z"/>
	<path d="M186.17,139.28c-3.16-0.81-5.6,0.81-8.05,2.55C181.18,141.93,184.14,141.93,186.17,139.28z"/>
	<path d="M147.67,242.75c1.5,0,1.24,1,0.2-9.68c-0.31,0-0.71,0.1-1.02,0.1C146.35,236.44,146.25,239.7,147.67,242.75z"/>
	<path d="M143.7,199.57c0.41-2.75-1.12-4.99-1.63-7.54C140.85,194.99,141.97,197.33,143.7,199.57z"/>
	<path d="M160.71,194.48c-2.55,2.85-2.55,3.97,0.1,8.15C160.81,199.57,159.69,197.03,160.71,194.48z"/>
	<path d="M192.49,134.29c-7.65-3.48-6.48-3.34-6.93-2.44c2.04,1.32,3.87,3.16,6.42,3.56C192.08,135,192.28,134.59,192.49,134.29z"/>
	<path d="M133.52,158.53c-0.61,2.65,0.41,4.68,2.34,6.93C135.66,162.5,134.94,160.36,133.52,158.53z"/>
	<path d="M146.96,148.14c-1.63-4.07-1.63-4.07-3.36-4.28C144.21,145.49,144.62,147.12,146.96,148.14z"/>
	<path d="M244.43,151.19c3.46-1.32,3.46-1.32,3.26-3.97C246.46,148.65,245.45,149.97,244.43,151.19z"/>
	<path d="M216.73,119.93c-2.24-0.31-3.36,0.1-3.97,1.83C213.98,121.46,215.5,121.97,216.73,119.93z"/>
	<path d="M155.31,241.02c2.14-2.04,0.81-3.16-0.31-4.79C154.7,237.97,155.01,239.19,155.31,241.02z"/>
	<path d="M167.74,219.74c-0.61-2.55-1.73-3.67-3.46-4.38C164.99,216.78,165.29,218.62,167.74,219.74z"/>
	<path d="M161.53,207.92c1.22-2.34,1.22-2.34-0.61-4.07C161.32,205.17,160.41,206.5,161.53,207.92z"/>
	<path d="M152.56,230.23c0.51,1.32,0,2.75,1.12,4.48C154.29,231.75,154.29,231.75,152.56,230.23z"/>
	<path d="M148.8,246.73c1.02,0.71,1.94,1.73,4.07,1.22C151.44,246.32,150.42,245.81,148.8,246.73z"/>
	<path d="M151.75,120.44c-1.02-1.02-1.43-3.06-3.77-2.95C148.9,119.22,150.42,119.72,151.75,120.44z"/>
	<path d="M227.62,156.59c-1.32-1.02-2.55-0.92-4.48-0.61C224.87,157.41,225.99,157.71,227.62,156.59z"/>
	<path d="M164.58,234.5c-0.2-2.04-0.31-3.26-1.73-4.48C162.75,231.75,162.95,232.98,164.58,234.5z"/>
	<path d="M172.22,126.04c-2.24-1.32-2.24-1.32-4.07-0.31C169.47,126.34,170.59,126.55,172.22,126.04z"/>
	<path d="M141.16,137.14c-0.92,1.53,0.31,2.14,0.71,2.95C142.28,139.08,142.58,138.06,141.16,137.14z"/>
	<path d="M201.96,133.88c-1.32,0.61-1.94,1.22-1.83,2.55C201.55,136.22,201.75,135.31,201.96,133.88z"/>
	<path d="M154.5,128.28c0.2-1.43-0.51-2.14-2.04-2.95C153.07,126.75,153.17,127.87,154.5,128.28z"/>
	<path d="M194.42,137.04c-0.71,1.32-0.81,2.14,0.31,3.26C195.44,138.97,195.34,138.16,194.42,137.04z"/>
	<path d="M236.48,155.07c1.53,0.2,2.65,0.41,3.56-0.61C239.03,154.45,237.91,154.25,236.48,155.07z"/>
	<path d="M163.05,212.51c0.2-1.63,0-2.44-0.81-3.36C161.53,210.37,161.83,211.18,163.05,212.51z"/>
	<path d="M221.41,132.76c-0.92-0.71-1.53-0.41-2.24,1.02C220.29,133.68,221.11,133.88,221.41,132.76z"/>
	<path d="M167.74,142.54c0.78,0.39,1.47-1.1,0.2-1.53C166.84,141.01,166.89,142.26,167.74,142.54z"/>
	<path d="M176.4,126.14c-0.51-0.81-1.02-0.61-1.63-0.2C175.48,126.65,175.48,126.65,176.4,126.14z"/>
	<path d="M158.47,245.4c-0.31-0.61-0.81-1.02-1.73-0.51C157.75,246.91,158.34,245.53,158.47,245.4z"/>
	<path d="M137.59,173.3c-0.41,0.61-0.31,1.12,0.2,1.73C138.71,174.01,138.51,173.6,137.59,173.3z"/>
	<path d="M135.76,166.78c-0.41,1.02-0.41,1.73,0.81,2.24C136.78,168.1,137.18,167.18,135.76,166.78z"/>
	<path d="M163.77,237.15c-0.2,0.81-0.2,1.32,0.92,1.22C164.78,237.66,164.58,237.36,163.77,237.15z"/>
	<path d="M164.68,242.75c0.2,0.92,0.61,1.53,1.73,1.43C166.21,243.36,165.91,242.75,164.68,242.75z"/>
	<path d="M146.66,223.61c0-0.7-1.15-0.91-0.92,0.51C146.25,224.12,146.55,224.01,146.66,223.61z"/>
	<path d="M211.12,124.21c-0.71-0.1-1.22,0.1-1.02,1.22C210.72,125.22,211.23,125.12,211.12,124.21z"/>
	<path d="M178.84,126.75c0.38,0,0.65-1.13-0.81-0.92C178.02,126.55,178.33,126.85,178.84,126.75z"/>
	<path d="M194.63,142.13c-0.2,0.71-0.41,1.12,0.41,1.53C195.44,143.15,195.64,142.74,194.63,142.13z"/>
	<path d="M139.83,186.84c0.51-0.51,0.51-1.12-0.1-1.83C139.12,185.82,139.12,186.33,139.83,186.84z"/>
	<path d="M114.78,228.6c-5.09,14.56-4.48,29.43-2.85,44.4C111.32,258.03,111.42,243.26,114.78,228.6z"/>
	<path d="M134.23,322.19c-11.81-11.3-22.41-22.71-28.82-37.17C109.59,297.34,126.49,319.04,134.23,322.19z"/>
	<path d="M122.93,179c1.32-2.04,3.06-3.67,2.95-6.31c-6.36,9.33-6.44,3.6,9.17,21.39C132.81,187.55,127,183.89,122.93,179z"/>
	<path d="M159.29,287.87c-5.4,1.43-10.69,1.63-15.48,3.77C147.98,292.05,157.96,289.7,159.29,287.87z"/>
	<path d="M115.59,319.44c-1.94-3.97-4.48-7.64-6.52-11.51C109.79,312.62,112.33,316.18,115.59,319.44z"/>
	<path d="M115.9,192.95c-3,1.38-2.34,9.27-0.71,12.43C114.88,201.2,114.68,197.03,115.9,192.95z"/>
	<path d="M151.44,309.87c-2.85,2.55-6.31,2.75-8.96,4.79C148.9,313.23,150.02,312.52,151.44,309.87z"/>
	<path d="M159.79,295.41c-2.27,1.44-4.82,3.19-6.72,5.09C153.51,300.93,157.83,298.35,159.79,295.41z"/>
	<path d="M152.46,277.48c2.44,0.51,4.89,0.81,7.03,2.14C157.86,276.57,155.11,277.28,152.46,277.48z"/>
	<path d="M136.78,211.39c-1.53-0.31-3.16-0.92-4.58,0C133.72,211.59,135.25,213.22,136.78,211.39z"/>
	<path d="M125.37,212c-0.61,0-1.12-0.1-1.63-0.1C124.35,212.71,124.86,213.32,125.37,212z"/>
	<path d="M151.75,301.82c0.58-0.08,1.84-0.8,1.32-1.32C152.36,300.7,151.75,300.8,151.75,301.82z"/>
	<path d="M346.48,127.26c2.55,4.38,7.03,4.79,11.3,5.81c0.61-0.71,1.12-1.43,1.73-2.04C356.15,126.14,351.06,127.57,346.48,127.26z"
		/>
	<path d="M362.57,128.89c-1.43-5.4-11.41-10.08-17.11-7.54c2.55,2.75,6.44,0.38,8.96,2.65
		C356.78,126.12,359.21,128.08,362.57,128.89z"/>
	<path d="M265.61,193.26c3.97,0.71,7.43-2.14,7.64-6.01C271.42,189.9,267.55,189.79,265.61,193.26z"/>
	<path d="M293.11,118.71c-0.92,2.44,0.2,4.68,0.41,7.13C295.25,123.29,293.82,121.05,293.11,118.71z"/>
	<path d="M275.08,187.04c2.34-0.71,3.06-2.34,4.18-4.38C276.81,183.58,274.98,183.99,275.08,187.04z"/>
	<path d="M294.23,134.7c0.71-2.04,1.32-3.77,1.53-6.01C293.62,131.03,293.41,131.64,294.23,134.7z"/>
	<path d="M309.61,162.91c-1.73-0.31-2.75-0.41-3.67,1.02C307.16,163.82,308.18,164.43,309.61,162.91z"/>
	<path d="M280.58,173.5c0.81,0.51,1.53,0.41,2.65-0.51C281.91,172.48,281.09,172.48,280.58,173.5z"/>
	<path d="M284.15,177.37c-1.94,0.73-1.5,2.62-0.1,1.22C284.35,178.29,285.06,177.88,284.15,177.37z"/>
	<path d="M279.77,181.85c0.51-0.2,0.92-0.51,0.71-1.53C279.67,180.73,279.05,181.04,279.77,181.85z"/>
	<path d="M204.2,168.85c-1.09-4.14-2.63,7.96,8.05,17.48c0.51,0.61,1.22,1.43,2.75,0.71C209.39,182.03,206.05,175.86,204.2,168.85z"
		/>
	<path d="M234.65,182.77c5.19,2.75,10.39,1.22,15.68,0C245.14,182.87,239.84,182.56,234.65,182.77z"/>
	<path d="M188.62,198.86c0-4.38,0-8.66-1.53-12.93C186.99,190.2,186.89,194.58,188.62,198.86z"/>
	<path d="M173.85,170.24c1.32-3.16,3.36-6.01,3.36-9.57C174.72,160.67,173.85,167.84,173.85,170.24z"/>
	<path d="M262.66,174.42c-3.87,1.02-7.23,2.95-10.08,5.81C256.04,178.39,259.81,177.17,262.66,174.42z"/>
	<path d="M252.47,194.89c2.44-0.41,4.89,1.94,7.64-0.2C257.36,192.95,254.92,194.58,252.47,194.89z"/>
	<path d="M179.04,167.9c0-0.51,0.1-0.81,0.1-1.22C178.64,167.08,178.74,167.39,179.04,167.9z"/>
	<path d="M178.43,172.07c0-0.51,0.1-0.81,0.1-1.22C178.02,171.26,178.13,171.56,178.43,172.07z"/>
	<path d="M262.76,174.52c0.61,0,1.22-0.1,1.32-1.02C263.37,173.5,262.86,173.8,262.76,174.52z"/>
	<path d="M186.58,180.22C186.58,180.53,186.68,180.73,186.58,180.22L186.58,180.22z"/>
	<path d="M100.22,396.34c2.56-6.3,7.07-7.68,3.97-12.83C101.23,387.58,100.83,391.96,100.22,396.34z"/>
	<path d="M112.74,357.13c0.71,3.87,2.95,7.13,5.09,10.49C116.66,363.65,116.31,355.34,112.74,357.13z"/>
	<path d="M81.68,445.32c0,21.2,1.9,8.05,0.81,0C82.19,445.32,81.99,445.32,81.68,445.32z"/>
	<path d="M131.79,364.06c-1.82,3.46-2.03,7.22-1.94,11.09C130.66,373.81,134.05,366.27,131.79,364.06z"/>
	<path d="M131.79,364.06v-0.01C131.61,363.88,131.68,363.98,131.79,364.06z"/>
	<path d="M92.98,407.54c3.16-1.22,4.48-3.87,3.77-6.93C95.63,402.85,93.9,404.69,92.98,407.54z"/>
	<path d="M113.15,347.25c-0.1,2.65,0.41,4.99,1.63,7.23C115.39,351.83,114.88,349.38,113.15,347.25z"/>
	<path d="M118.85,368.12c-0.2,3.26,0,3.67,1.93,5.3C120.89,371.38,121.91,369.35,118.85,368.12z"/>
	<path d="M134.44,350.61c-1.32-1.12-1.12-3.26-3.16-3.87C129.85,349.18,130.46,350,134.44,350.61z"/>
	<path d="M137.18,363.24c-1.94-0.41-3.97-1.83-5.4,0.81C133.52,363.85,135.56,365.37,137.18,363.24z"/>
	<path d="M121.91,380.65c0.41-1.53,1.43-2.75-0.1-4.18C120.69,377.9,120.58,379.12,121.91,380.65z"/>
	<path d="M106.33,382.59c0.71-1.53,0.61-2.85,0.2-4.38C105.51,380.85,105.51,380.85,106.33,382.59z"/>
	<path d="M121.09,385.44c1.32-0.51,1.83-1.32,1.63-3.16C121.2,383.1,120.58,383.91,121.09,385.44z"/>
	<path d="M150.12,340.32c-1.22,0.92-2.24,1.53-1.32,3.26C149.92,342.66,150.53,341.95,150.12,340.32z"/>
	<path d="M83.11,440.13c0.21,0.62,1.06-0.32,0.71-2.24C83.51,438.91,83,439.42,83.11,440.13z"/>
	<path d="M106.63,375.25c0.31-1.22,0.71-1.93,0.1-2.75C105.82,373.11,105.61,373.83,106.63,375.25z"/>
	<path d="M106.73,368.23c-0.51,0.41-0.51,0.92,0,1.32C107.24,369.14,107.34,368.74,106.73,368.23z"/>
	<path d="M228.23,243.26c0.85-0.92,0.89-1.62-0.71-1.94C227.93,241.84,227.22,242.86,228.23,243.26z"/>
	<path d="M41.76,472.01c-5.81,1.53-11.61,3.56-17.52,4.68C30.55,476.89,36.26,474.86,41.76,472.01z"/>
	<path d="M21.79,482.8c1.68-2.02,1.01-2.59,0.81-3.16C21.39,480.66,21.49,481.78,21.79,482.8z"/>
	<path d="M13.44,476.79c1.02,0.2,2.14,0.71,3.67-0.2C15.58,476.18,14.56,475.98,13.44,476.79z"/>
	<path d="M20.37,488.4c0,0.41,0,0.71,0,1.02C20.78,488.91,20.98,488.61,20.37,488.4z"/>
	<path d="M209.39,319.65c0.41,4.07,1.36,7.81,4.07,11c1.03,1.21,1.73,3.16,3.87,2.85C214.28,329.22,213.06,323.82,209.39,319.65z"/>
	<path d="M232.31,339.4c1.29,0.86-0.55,2.32,6.62-5.6c-0.2-0.1-0.41-0.31-0.61-0.51C236.28,335.23,233.73,336.76,232.31,339.4z"/>
	<path d="M193.91,310.89c0.31,2.95,1.63,4.58,3.77,5.7C196.66,314.76,197.07,312.01,193.91,310.89z"/>
	<path d="M240.86,323.21c-1.03-2.84,2.22-3.3-0.41-7.03C240.56,318.53,239.13,320.87,240.86,323.21z"/>
	<path d="M204.71,333.19c1.53,1.22,3.16,1.02,4.68,0.61C208.07,332.17,206.54,331.97,204.71,333.19z"/>
	<path d="M217.34,333.6c0,2.24,1.73,3.06,3.36,3.87C219.88,335.94,218.66,334.72,217.34,333.6z"/>
	<path d="M240.35,328.1c0.71-1.53,1.32-3.16,0.41-4.79C240.76,324.84,239.84,326.37,240.35,328.1z"/>
	<path d="M209.19,315.88c-0.1-1.32-0.61-2.24-1.83-2.65C207.56,314.35,207.66,315.57,209.19,315.88z"/>
	<path d="M199.11,319.85c0.1,1.12,0.51,1.63,1.53,1.94C200.84,320.46,200.33,319.95,199.11,319.85z"/>
	<path d="M98.48,346.02c0-2.09-10.43-1.02-16.6-1.02C86.3,346.39,85.63,346.02,98.48,346.02z"/>
	<path d="M52.25,343.78c-0.51,3.16-0.71,6.21,0.1,9.27c-0.41-3.36,0.92-6.72,0.81-10.08C43.9,341.23,51.51,342.77,52.25,343.78z"/>
	<path d="M73.63,355.9c0.2-3.87,1.43-7.74,0.81-11.71C74.45,348.06,73.02,351.93,73.63,355.9z"/>
	<path d="M198.5,237.97c4.79,3.72,3.31-1.67,7.94-0.51c3.55-6.42-0.41-18.01-10.59-12.53C195.44,229.51,193.68,234.23,198.5,237.97z
		 M201.55,226.15c2.55,2.75,3.16,5.91,4.07,9.47C201.86,233.18,200.63,230.33,201.55,226.15z M198.29,227.17
		c-0.2,3.87,2.85,6.42,4.07,9.88C198.19,235.42,197.07,232.87,198.29,227.17z"/>
	<path d="M179.45,226.46c0.41,5.09,2.75,9.47,4.68,13.95c0.2-0.1,0.41-0.2,0.71-0.41C179.59,224.24,180.89,225.98,179.45,226.46z"/>
	<path d="M191.98,255.99c-1.93-2.75-3.06-6.01-5.3-8.55C187.09,251.1,189.33,253.65,191.98,255.99z"/>
	<path d="M179.65,214.14c-1.73,2.34-1.22,4.48-0.81,6.52C179.04,218.62,180.16,216.78,179.65,214.14z"/>
	<path d="M196.36,259.25c1.22,0.92,2.44,1.73,4.79,0.92C199.21,259.35,197.99,258.54,196.36,259.25z"/>
	<path d="M100.83,494.72c-3.36-3.06-14.97-3.67-17.82-0.81C86.9,495.2,100.22,499.34,100.83,494.72z"/>
	<path d="M94.31,505.92c1.22,0.31,2.24,1.12,3.36,1.53c4.38-2.65,4.79-2.95,4.99-3.87c-6.52-0.51-8.55-0.31-11.3,0.92
		C92.07,505.72,93.39,505.51,94.31,505.92z"/>
	<path d="M78.52,505.41c2.41-2.19,4.36-4.81,2.04-7.13c-2.16-2.16-4.68,0.4-5.4,0.92C74.04,503.17,74.35,503.78,78.52,505.41z
		 M79.24,499.2c1.12,0.61,0.81,1.63,0.51,3.26c-1.32-0.92-2.34-0.92-2.85,0.61C74.95,500.64,77.62,498.19,79.24,499.2z"/>
	<path d="M67.52,488.71c-7.35,9.8-2.37,4.97-1.43,5.6c0.92,0.81-0.51,2.34,1.12,3.06c1.02-0.41,0.5-1.74,1.32-2.44
		C71.88,492.04,71.7,491.36,67.52,488.71z M68.54,493.29c-1.73-0.41-2.24-1.12-0.61-2.44C69.15,491.46,69.56,492.17,68.54,493.29z"
		/>
	<path d="M69.56,495.23c-2.17,3.84,1.29,6.86,4.58,4.58c0.3-0.21,0.71-0.51,1.12-0.71C77.06,492.13,71.37,492.03,69.56,495.23z
		 M74.35,497.26c-1.81,3.91-5.79,0.87-2.85-1.94C72.84,494.04,75.06,495.36,74.35,497.26z"/>
	<path d="M142.07,270.96c-1.94-3.36-6.01-4.38-8.55-7.13C135.56,267.2,138.71,269.13,142.07,270.96z"/>
	<path d="M128.32,251.51c-0.81-2.85-0.2-5.7-1.83-8.45C125.78,246.22,126.39,249.07,128.32,251.51z"/>
	<path d="M126.19,227.88c-1.63,2.44-0.51,5.19,0,7.94C127.24,227.03,127.41,228.29,126.19,227.88z"/>
	<path d="M144.42,272.08c-0.61-1.02-1.43-1.22-2.34-1.02C142.68,271.68,143.4,272.08,144.42,272.08z"/>
	<path d="M89.52,316.39c-0.1,1.83-0.11,1.98,1.63,2.85C91.15,318.02,91.05,316.9,89.52,316.39z"/>
<path fill="#e6e6e6" d="m206.8 163.6c0-5.1 4.1-9.2 9.3-9.2s9.2 4.2 9.2 9.2-4.1 9.2-9.3 9.2-9.2-4.1-9.2-9.2zm17.3-.1c0-4.5-3.5-8.2-8.2-8.2s-8.2 3.7-8.2 8.3c0 4.5 3.5 8.2 8.2 8.2s8.2-3.7 8.2-8.3zm-13 0c0-2.8 2.1-5.1 5.1-5.1 1.9 0 2.9.6 3.9 1.5l-1.4 1.7c-.8-.7-1.5-1.1-2.5-1.1-1.7 0-2.8 1.4-2.8 3.1s1.1 3 2.8 3c1.1 0 1.7-.5 2.5-1.1l1.4 1.4c-1.1 1.1-2.1 1.7-4 1.7-2.9 0-5-2.3-5-5.1z"/><path fill="#e6e6e6" d="m226.6 154.7h3.4l4.2 13.2 4.4-13.3h2.6l4.4 13.3 4.2-13.2h3.3l-6.2 18h-2.7l-4.4-12.8-4.4 12.8h-2.7z"/><path fill="#e6e6e6" d="m252.8 165.8c0-3.9 3.1-7 7.2-7 4.2 0 7.2 3.2 7.2 7s-3.1 7-7.3 7c-4 0-7.1-3.1-7.1-7zm11.3 0c0-2.3-1.7-4.3-4.2-4.3s-4.1 2-4.1 4.3 1.7 4.3 4.1 4.3c2.7.1 4.2-1.9 4.2-4.3z"/><path fill="#e6e6e6" d="m269.5 159.1h3.1v3c.8-2 2.4-3.4 4.8-3.3v3.2h-.2c-2.7 0-4.6 1.7-4.6 5.4v5.1h-3.1z"/><path fill="#e6e6e6" d="m279.1 153.9h3.1v11.1l5.6-6h3.8l-5.4 5.5 5.5 8h-3.5l-4.1-5.8-1.9 2v3.9h-3.1z"/><path fill="#e6e6e6" d="m291.7 165.8c0-3.9 3.1-7 7.2-7 4.2 0 7.2 3.2 7.2 7s-3.1 7-7.3 7c-4 0-7.1-3.1-7.1-7zm11.3 0c0-2.3-1.7-4.3-4.2-4.3s-4.1 2-4.1 4.3 1.7 4.3 4.1 4.3c2.6.1 4.2-1.9 4.2-4.3z"/><path fill="#e6e6e6" d="m308.2 167.6v-8.6h3.1v7.6c0 2.1 1.1 3.3 2.9 3.3s3-1.3 3-3.3v-7.6h3.1v13.4h-3.1v-2.1c-.8 1.3-2.1 2.3-4.2 2.3-3.1.2-4.8-1.8-4.8-5z"/><path fill="#e6e6e6" d="m323.9 168.8v-7.1h-1.7v-2.6h1.7v-3.7h3.1v3.7h3.6v2.6h-3.6v6.6c0 1.2.6 1.7 1.7 1.7.7 0 1.3-.2 1.9-.5v2.5c-.8.5-1.7.7-2.8.7-2.3 0-3.9-.9-3.9-3.9z"/><path fill="#e6e6e6" d="m333.2 154.7h3.2v15h9.4v2.9h-12.5v-17.9z"/><path fill="#e6e6e6" d="m356 172.5v-1.7c-.9 1.1-2.3 2-4.4 2-2.6 0-4.8-1.4-4.8-4.2 0-3 2.3-4.4 5.4-4.4 1.7 0 2.6.2 3.7.5v-.2c0-1.9-1.2-2.9-3.3-2.9-1.5 0-2.6.3-3.9.8l-.8-2.5c1.5-.7 2.9-1.1 5.1-1.1 4 0 5.9 2.1 5.9 5.7v8zm.1-5.6c-.8-.3-1.9-.5-3.1-.5-2 0-3.1.8-3.1 2.1s1.1 2 2.6 2c2 0 3.5-1.1 3.5-2.9z"/><path fill="#e6e6e6" d="m364.9 170.5v2.1h-3.1v-18.7h3.1v7.4c1-1.4 2.4-2.5 4.5-2.5 3.2 0 6.3 2.5 6.3 7s-3.1 7-6.3 7c-2.1 0-3.5-1.1-4.5-2.3zm7.7-4.7c0-2.6-1.7-4.3-3.9-4.3s-3.9 1.7-3.9 4.4c0 2.6 1.8 4.3 3.9 4.3s3.9-1.7 3.9-4.4z"/><path fill="#e6e6e6" d="m376.9 170.8 1.4-2.1c1.4 1.1 3 1.7 4.4 1.7s2.1-.5 2.1-1.5-1.3-1.4-2.8-1.8c-.1 0-.2-.1-.2-.1-2-.6-4.2-1.4-4.2-4s2.1-4.1 4.8-4.1c1.7 0 3.5.6 5 1.5l-1.2 2.2c-1.3-.8-2.6-1.3-3.8-1.3s-1.9.5-1.9 1.4 1.3 1.4 2.8 1.8c.1 0 .2.1.2.1 2 .6 4.2 1.5 4.2 4 0 2.9-2.2 4.2-5 4.2-1.9 0-4-.7-5.8-2z"/><path fill="#e6e6e6" d="m505.6 163.6c0-5.1 4.1-9.2 9.3-9.2s9.2 4.2 9.2 9.2-4.1 9.2-9.3 9.2-9.2-4.1-9.2-9.2zm17.4-.1c0-4.5-3.5-8.2-8.2-8.2s-8.2 3.7-8.2 8.3c0 4.5 3.5 8.2 8.2 8.2s8.2-3.7 8.2-8.3zm-13.1 0c0-2.8 2.1-5.1 5.1-5.1 1.9 0 2.9.6 3.9 1.5l-1.4 1.7c-.8-.7-1.5-1.1-2.5-1.1-1.7 0-2.8 1.4-2.8 3.1s1.1 3 2.8 3c1.1 0 1.7-.5 2.5-1.1l1.4 1.4c-1.1 1.1-2.1 1.7-4 1.7-2.9 0-5-2.3-5-5.1z"/><path fill="#e6e6e6" d="m525.4 154.7h3.4l4.2 13.2 4.4-13.3h2.6l4.4 13.3 4.2-13.2h3.3l-6.2 18h-2.7l-4.4-12.8-4.4 12.8h-2.7z"/><path fill="#e6e6e6" d="m551.7 165.8c0-3.9 3.1-7 7.2-7 4.2 0 7.2 3.2 7.2 7s-3.1 7-7.3 7c-4.1 0-7.1-3.1-7.1-7zm11.2 0c0-2.3-1.7-4.3-4.2-4.3s-4.1 2-4.1 4.3 1.7 4.3 4.1 4.3c2.7.1 4.2-1.9 4.2-4.3z"/><path fill="#e6e6e6" d="m568.3 159.1h3.1v3c.8-2 2.4-3.4 4.8-3.3v3.2h-.2c-2.7 0-4.6 1.7-4.6 5.4v5.1h-3.1z"/><path fill="#e6e6e6" d="m577.9 153.9h3.1v11.1l5.6-6h3.8l-5.4 5.5 5.5 8h-3.5l-4.1-5.8-1.9 2v3.9h-3.1z"/><path fill="#e6e6e6" d="m590.6 165.8c0-3.9 3.1-7 7.2-7 4.2 0 7.2 3.2 7.2 7s-3.1 7-7.3 7c-4.1 0-7.1-3.1-7.1-7zm11.2 0c0-2.3-1.7-4.3-4.2-4.3s-4.1 2-4.1 4.3 1.7 4.3 4.1 4.3c2.6.1 4.2-1.9 4.2-4.3z"/><path fill="#e6e6e6" d="m607 167.6v-8.6h3.1v7.6c0 2.1 1.1 3.3 2.9 3.3s3-1.3 3-3.3v-7.6h3.1v13.4h-3.1v-2.1c-.8 1.3-2.1 2.3-4.2 2.3-3 .2-4.8-1.8-4.8-5z"/><path fill="#e6e6e6" d="m622.7 168.8v-7.1h-1.7v-2.6h1.7v-3.7h3.1v3.7h3.6v2.6h-3.6v6.6c0 1.2.6 1.7 1.7 1.7.7 0 1.3-.2 1.9-.5v2.5c-.8.5-1.7.7-2.8.7-2.3 0-3.9-.9-3.9-3.9z"/><path fill="#e6e6e6" d="m632 154.7h3.2v15h9.4v2.9h-12.6z"/><path fill="#e6e6e6" d="m654.8 172.5v-1.7c-.9 1.1-2.3 2-4.4 2-2.6 0-4.8-1.4-4.8-4.2 0-3 2.3-4.4 5.4-4.4 1.7 0 2.6.2 3.7.5v-.2c0-1.9-1.2-2.9-3.3-2.9-1.5 0-2.6.3-3.9.8l-.8-2.5c1.5-.7 2.9-1.1 5.1-1.1 4 0 5.9 2.1 5.9 5.7v8zm.1-5.6c-.8-.3-1.9-.5-3.1-.5-2 0-3.1.8-3.1 2.1s1.1 2 2.6 2c2 0 3.5-1.1 3.5-2.9z"/><path fill="#e6e6e6" d="m663.7 170.5v2.1h-3.1v-18.7h3.1v7.4c1-1.4 2.4-2.5 4.5-2.5 3.2 0 6.3 2.5 6.3 7s-3.1 7-6.3 7c-2.1 0-3.5-1.1-4.5-2.3zm7.8-4.7c0-2.6-1.7-4.3-3.9-4.3-2.1 0-3.9 1.7-3.9 4.4 0 2.6 1.8 4.3 3.9 4.3s3.9-1.7 3.9-4.4z"/><path fill="#e6e6e6" d="m675.8 170.8 1.4-2.1c1.4 1.1 3 1.7 4.4 1.7s2.1-.5 2.1-1.5-1.3-1.4-2.8-1.8c-.1 0-.2-.1-.2-.1-2-.6-4.2-1.4-4.2-4s2.1-4.1 4.8-4.1c1.7 0 3.5.6 5 1.5l-1.2 2.2c-1.3-.8-2.6-1.3-3.8-1.3s-1.9.5-1.9 1.4 1.3 1.4 2.8 1.8c.1 0 .2.1.2.1 2 .6 4.2 1.5 4.2 4 0 2.9-2.2 4.2-5 4.2-2 0-4.1-.7-5.8-2z"/><path fill="#e6e6e6" d="m61 298.6c0-5.1 4.1-9.2 9.3-9.2s9.2 4.2 9.2 9.2-4.1 9.2-9.3 9.2c-5.1 0-9.2-4.2-9.2-9.2zm17.4-.1c0-4.5-3.5-8.2-8.2-8.2s-8.2 3.7-8.2 8.3c0 4.5 3.5 8.2 8.2 8.2s8.2-3.7 8.2-8.3zm-13.1-.1c0-2.8 2.1-5.1 5.1-5.1 1.9 0 2.9.6 3.9 1.5l-1.4 1.7c-.8-.7-1.5-1.1-2.5-1.1-1.7 0-2.8 1.4-2.8 3.1s1.1 3 2.8 3c1.1 0 1.7-.5 2.5-1.1l1.4 1.4c-1.1 1.1-2.1 1.7-4 1.7-2.8.1-5-2.2-5-5.1z"/><path fill="#e6e6e6" d="m80.9 289.7h3.4l4.2 13.2 4.4-13.3h2.6l4.4 13.3 4.2-13.2h3.3l-6.2 18h-2.7l-4.4-12.8-4.4 12.8h-2.7z"/><path fill="#e6e6e6" d="m107.1 300.8c0-3.9 3.1-7 7.2-7s7.2 3.2 7.2 7-3.1 7-7.3 7c-4 0-7.1-3.1-7.1-7zm11.3 0c0-2.3-1.7-4.3-4.2-4.3s-4.1 2-4.1 4.3 1.7 4.3 4.1 4.3c2.6.1 4.2-1.9 4.2-4.3z"/><path fill="#e6e6e6" d="m123.7 294h3.1v3c.8-2 2.4-3.4 4.8-3.3v3.2h-.2c-2.7 0-4.6 1.7-4.6 5.4v5.1h-3.1z"/><path fill="#e6e6e6" d="m133.4 288.9h3.1v11.1l5.6-6h3.8l-5.4 5.5 5.5 8h-3.5l-4.1-5.8-1.9 1.9v3.9h-3.1z"/><path fill="#e6e6e6" d="m146 300.8c0-3.9 3.1-7 7.2-7s7.2 3.2 7.2 7-3.1 7-7.3 7c-4.1 0-7.1-3.1-7.1-7zm11.2 0c0-2.3-1.7-4.3-4.2-4.3s-4.1 2-4.1 4.3 1.7 4.3 4.1 4.3c2.6.1 4.2-1.9 4.2-4.3z"/><path fill="#e6e6e6" d="m162.4 302.6v-8.6h3.1v7.6c0 2.1 1.1 3.3 2.9 3.3s3-1.3 3-3.3v-7.6h3.1v13.4h-3.1v-2.1c-.8 1.3-2.1 2.3-4.2 2.3-3 .2-4.8-1.8-4.8-5z"/><path fill="#e6e6e6" d="m178.1 303.8v-7.1h-1.7v-2.7h1.7v-3.7h3.1v3.7h3.6v2.6h-3.6v6.6c0 1.2.6 1.7 1.7 1.7.7 0 1.3-.2 1.9-.5v2.5c-.8.5-1.7.7-2.8.7-2.3.1-3.9-.9-3.9-3.8z"/><path fill="#e6e6e6" d="m187.4 289.7h3.2v15h9.4v2.9h-12.5v-17.9z"/><path fill="#e6e6e6" d="m210.2 307.5v-1.7c-.9 1.1-2.3 2-4.4 2-2.6 0-4.8-1.4-4.8-4.2 0-3 2.3-4.4 5.4-4.4 1.7 0 2.6.2 3.7.5v-.2c0-1.9-1.2-2.9-3.3-2.9-1.5 0-2.6.3-3.9.8l-.8-2.5c1.5-.7 2.9-1.1 5.1-1.1 4 0 5.9 2.1 5.9 5.7v8zm.1-5.6c-.8-.3-1.9-.5-3.1-.5-2 0-3.1.8-3.1 2.1s1.1 2 2.6 2c2 0 3.5-1.1 3.5-2.9z"/><path fill="#e6e6e6" d="m219.2 305.5v2.1h-3.1v-18.7h3.1v7.4c1-1.4 2.4-2.5 4.5-2.5 3.2 0 6.3 2.5 6.3 7s-3.1 7-6.3 7c-2.2 0-3.6-1.1-4.5-2.3zm7.7-4.7c0-2.6-1.7-4.3-3.9-4.3s-3.9 1.7-3.9 4.4c0 2.6 1.8 4.3 3.9 4.3s3.9-1.7 3.9-4.4z"/><path fill="#e6e6e6" d="m231.2 305.8 1.4-2.1c1.4 1.1 3 1.7 4.4 1.7s2.1-.5 2.1-1.5-1.3-1.4-2.8-1.8c-.1 0-.2-.1-.2-.1-2-.6-4.2-1.4-4.2-4s2.1-4.1 4.8-4.1c1.7 0 3.5.6 5 1.5l-1.2 2.2c-1.3-.8-2.6-1.3-3.8-1.3s-1.9.5-1.9 1.4 1.3 1.4 2.8 1.8c.1 0 .2.1.2.1 2 .6 4.2 1.5 4.2 4 0 2.9-2.2 4.2-5 4.2-2 0-4.1-.7-5.8-2z"/><path fill="#e6e6e6" d="m360.6 298.6c0-5.1 4.1-9.2 9.3-9.2s9.2 4.2 9.2 9.2-4.1 9.2-9.3 9.2-9.2-4.2-9.2-9.2zm17.4-.1c0-4.5-3.5-8.2-8.2-8.2s-8.2 3.7-8.2 8.3c0 4.5 3.5 8.2 8.2 8.2s8.2-3.7 8.2-8.3zm-13.1-.1c0-2.8 2.1-5.1 5.1-5.1 1.9 0 2.9.6 3.9 1.5l-1.4 1.7c-.8-.7-1.5-1.1-2.5-1.1-1.7 0-2.8 1.4-2.8 3.1s1.1 3 2.8 3c1.1 0 1.7-.5 2.5-1.1l1.4 1.4c-1.1 1.1-2.1 1.7-4 1.7-2.8.1-5-2.2-5-5.1z"/><path fill="#e6e6e6" d="m380.5 289.7h3.4l4.2 13.2 4.4-13.3h2.6l4.4 13.3 4.2-13.2h3.3l-6.2 18h-2.7l-4.4-12.8-4.4 12.8h-2.7z"/><path fill="#e6e6e6" d="m406.7 300.8c0-3.9 3.1-7 7.2-7 4.2 0 7.2 3.2 7.2 7s-3.1 7-7.3 7c-4.1 0-7.1-3.1-7.1-7zm11.3 0c0-2.3-1.7-4.3-4.2-4.3s-4.1 2-4.1 4.3 1.7 4.3 4.1 4.3c2.7.1 4.2-1.9 4.2-4.3z"/><path fill="#e6e6e6" d="m423.3 294h3.1v3c.8-2 2.4-3.4 4.8-3.3v3.2h-.2c-2.7 0-4.6 1.7-4.6 5.4v5.1h-3.1z"/><path fill="#e6e6e6" d="m433 288.9h3.1v11.1l5.6-6h3.8l-5.4 5.5 5.5 8h-3.5l-4.1-5.8-1.9 2v3.9h-3.1z"/><path fill="#e6e6e6" d="m445.6 300.8c0-3.9 3.1-7 7.2-7 4.2 0 7.2 3.2 7.2 7s-3.1 7-7.3 7c-4.1 0-7.1-3.1-7.1-7zm11.3 0c0-2.3-1.7-4.3-4.2-4.3s-4.1 2-4.1 4.3 1.7 4.3 4.1 4.3c2.6.1 4.2-1.9 4.2-4.3z"/><path fill="#e6e6e6" d="m462.1 302.6v-8.6h3.1v7.6c0 2.1 1.1 3.3 2.9 3.3s3-1.3 3-3.3v-7.6h3.1v13.4h-3.1v-2.1c-.8 1.3-2.1 2.3-4.2 2.3-3.1.2-4.8-1.8-4.8-5z"/><path fill="#e6e6e6" d="m477.8 303.8v-7.1h-1.8v-2.7h1.7v-3.7h3.1v3.7h3.6v2.6h-3.6v6.6c0 1.2.6 1.7 1.7 1.7.7 0 1.3-.2 1.9-.5v2.5c-.8.5-1.7.7-2.8.7-2.2.1-3.8-.9-3.8-3.8z"/><path fill="#e6e6e6" d="m487.1 289.7h3.2v15h9.4v2.9h-12.5v-17.9z"/><path fill="#e6e6e6" d="m509.9 307.5v-1.7c-.9 1.1-2.3 2-4.4 2-2.6 0-4.8-1.4-4.8-4.2 0-3 2.3-4.4 5.4-4.4 1.7 0 2.6.2 3.7.5v-.2c0-1.9-1.2-2.9-3.3-2.9-1.5 0-2.6.3-3.9.8l-.8-2.5c1.5-.7 2.9-1.1 5.1-1.1 4 0 5.9 2.1 5.9 5.7v8zm.1-5.6c-.8-.3-1.9-.5-3.1-.5-2 0-3.1.8-3.1 2.1s1.1 2 2.6 2c2 0 3.5-1.1 3.5-2.9z"/><path fill="#e6e6e6" d="m518.8 305.5v2.1h-3.1v-18.7h3.1v7.4c1-1.4 2.4-2.5 4.5-2.5 3.2 0 6.3 2.5 6.3 7s-3.1 7-6.3 7c-2.2 0-3.5-1.1-4.5-2.3zm7.7-4.7c0-2.6-1.7-4.3-3.9-4.3s-3.9 1.7-3.9 4.4c0 2.6 1.8 4.3 3.9 4.3s3.9-1.7 3.9-4.4z"/><path fill="#e6e6e6" d="m530.8 305.8 1.4-2.1c1.4 1.1 3 1.7 4.4 1.7s2.1-.5 2.1-1.5-1.3-1.4-2.8-1.8c-.1 0-.2-.1-.2-.1-2-.6-4.2-1.4-4.2-4s2.1-4.1 4.8-4.1c1.7 0 3.5.6 5 1.5l-1.2 2.2c-1.3-.8-2.6-1.3-3.8-1.3s-1.9.5-1.9 1.4 1.3 1.4 2.8 1.8c.1 0 .2.1.2.1 2 .6 4.2 1.5 4.2 4 0 2.9-2.2 4.2-5 4.2-1.9 0-4.1-.7-5.8-2z"/><path fill="#e6e6e6" d="m659.5 298.6c0-5.1 4.1-9.2 9.3-9.2s9.2 4.2 9.2 9.2-4.1 9.2-9.3 9.2-9.2-4.2-9.2-9.2zm17.3-.1c0-4.5-3.5-8.2-8.2-8.2s-8.2 3.7-8.2 8.3c0 4.5 3.5 8.2 8.2 8.2 4.8 0 8.2-3.7 8.2-8.3zm-13-.1c0-2.8 2.1-5.1 5.1-5.1 1.9 0 2.9.6 3.9 1.5l-1.4 1.7c-.8-.7-1.5-1.1-2.5-1.1-1.7 0-2.8 1.4-2.8 3.1s1.1 3 2.8 3c1.1 0 1.7-.5 2.5-1.1l1.4 1.4c-1.1 1.1-2.1 1.7-4 1.7-2.9.1-5-2.2-5-5.1z"/><path fill="#e6e6e6" d="m679.3 289.7h3.4l4.2 13.2 4.4-13.3h2.6l4.4 13.3 4.2-13.2h3.3l-6.2 18h-2.6l-4.4-12.8-4.4 12.8h-2.7z"/><path fill="#e6e6e6" d="m705.5 300.8c0-3.9 3.1-7 7.2-7 4.2 0 7.2 3.2 7.2 7s-3.1 7-7.3 7c-4 0-7.1-3.1-7.1-7zm11.3 0c0-2.3-1.7-4.3-4.2-4.3s-4.1 2-4.1 4.3 1.7 4.3 4.1 4.3c2.7.1 4.2-1.9 4.2-4.3z"/><path fill="#e6e6e6" d="m722.1 294h3.1v3c.8-2 2.4-3.4 4.8-3.3v3.2h-.2c-2.7 0-4.6 1.7-4.6 5.4v5.1h-3.1z"/><path fill="#e6e6e6" d="m731.8 288.9h3.1v11.1l5.6-6h3.8l-5.4 5.5 5.5 8h-3.5l-4.1-5.8-1.9 2v3.9h-3.1z"/><path fill="#e6e6e6" d="m744.4 300.8c0-3.9 3.1-7 7.2-7 4.2 0 7.2 3.2 7.2 7s-3.1 7-7.3 7c-4.1 0-7.1-3.1-7.1-7zm11.3 0c0-2.3-1.7-4.3-4.2-4.3s-4.1 2-4.1 4.3 1.7 4.3 4.1 4.3c2.6.1 4.2-1.9 4.2-4.3z"/><path fill="#e6e6e6" d="m760.9 302.6v-8.6h3.1v7.6c0 2.1 1.1 3.3 2.9 3.3s3-1.3 3-3.3v-7.6h3.1v13.4h-3.1v-2.1c-.8 1.3-2.1 2.3-4.2 2.3-3.1.2-4.8-1.8-4.8-5z"/><path fill="#e6e6e6" d="m776.6 303.8v-7.1h-1.7v-2.7h1.7v-3.7h3.1v3.7h3.6v2.6h-3.6v6.6c0 1.2.6 1.7 1.7 1.7.7 0 1.3-.2 1.9-.5v2.5c-.8.5-1.7.7-2.8.7-2.3.1-3.9-.9-3.9-3.8z"/><path fill="#e6e6e6" d="m785.9 289.7h3.2v15h9.4v2.9h-12.5v-17.9z"/><path fill="#e6e6e6" d="m808.7 307.5v-1.7c-.9 1.1-2.3 2-4.4 2-2.6 0-4.8-1.4-4.8-4.2 0-3 2.3-4.4 5.4-4.4 1.7 0 2.6.2 3.7.5v-.2c0-1.9-1.2-2.9-3.3-2.9-1.5 0-2.6.3-3.9.8l-.8-2.5c1.5-.7 2.9-1.1 5.1-1.1 4 0 5.9 2.1 5.9 5.7v8zm.1-5.6c-.8-.3-1.9-.5-3.1-.5-2 0-3.1.8-3.1 2.1s1.1 2 2.6 2c2 0 3.5-1.1 3.5-2.9z"/><path fill="#e6e6e6" d="m817.6 305.5v2.1h-3.1v-18.7h3.1v7.4c1-1.4 2.4-2.5 4.5-2.5 3.2 0 6.3 2.5 6.3 7s-3.1 7-6.3 7c-2.1 0-3.5-1.1-4.5-2.3zm7.7-4.7c0-2.6-1.7-4.3-3.9-4.3-2.1 0-3.9 1.7-3.9 4.4 0 2.6 1.8 4.3 3.9 4.3 2.2 0 3.9-1.7 3.9-4.4z"/><path fill="#e6e6e6" d="m829.6 305.8 1.4-2.1c1.4 1.1 3 1.7 4.4 1.7s2.1-.5 2.1-1.5-1.3-1.4-2.8-1.8c-.1 0-.2-.1-.2-.1-2-.6-4.2-1.4-4.2-4s2.1-4.1 4.8-4.1c1.7 0 3.5.6 5 1.5l-1.2 2.2c-1.3-.8-2.6-1.3-3.8-1.3s-1.9.5-1.9 1.4 1.3 1.4 2.8 1.8c.1 0 .2.1.2.1 2 .6 4.2 1.5 4.2 4 0 2.9-2.2 4.2-5 4.2-1.9 0-4-.7-5.8-2z"/><path fill="#e6e6e6" d="m206.3 434.2c0-5.1 4.1-9.2 9.3-9.2s9.2 4.2 9.2 9.2-4.1 9.2-9.3 9.2-9.2-4.1-9.2-9.2zm17.4-.1c0-4.5-3.5-8.2-8.2-8.2s-8.2 3.7-8.2 8.3c0 4.5 3.5 8.2 8.2 8.2s8.2-3.7 8.2-8.3zm-13.1-.1c0-2.8 2.1-5.1 5.1-5.1 1.9 0 2.9.6 3.9 1.5l-1.4 1.7c-.8-.7-1.5-1.1-2.5-1.1-1.7 0-2.8 1.4-2.8 3.1s1.1 3 2.8 3c1.1 0 1.7-.5 2.5-1.1l1.4 1.4c-1.1 1.1-2.1 1.7-4 1.7-2.9.1-5-2.2-5-5.1z"/><path fill="#e6e6e6" d="m226.1 425.3h3.4l4.2 13.2 4.4-13.3h2.6l4.4 13.3 4.2-13.2h3.3l-6.2 18h-2.7l-4.4-12.8-4.4 12.8h-2.7z"/><path fill="#e6e6e6" d="m252.4 436.4c0-3.9 3.1-7 7.2-7 4.2 0 7.2 3.2 7.2 7s-3.1 7-7.3 7c-4.1 0-7.1-3.1-7.1-7zm11.2 0c0-2.3-1.7-4.3-4.2-4.3s-4.1 2-4.1 4.3 1.7 4.3 4.1 4.3c2.7.1 4.2-1.9 4.2-4.3z"/><path fill="#e6e6e6" d="m269 429.7h3.1v3c.8-2 2.4-3.4 4.8-3.3v3.2h-.2c-2.7 0-4.6 1.7-4.6 5.4v5.1h-3.1z"/><path fill="#e6e6e6" d="m278.6 424.5h3.1v11.1l5.6-6h3.8l-5.4 5.5 5.5 8h-3.5l-4.1-5.8-1.9 2v3.9h-3.1z"/><path fill="#e6e6e6" d="m291.3 436.4c0-3.9 3.1-7 7.2-7 4.2 0 7.2 3.2 7.2 7s-3.1 7-7.3 7c-4.1 0-7.1-3.1-7.1-7zm11.2 0c0-2.3-1.7-4.3-4.2-4.3s-4.1 2-4.1 4.3 1.7 4.3 4.1 4.3c2.6.1 4.2-1.9 4.2-4.3z"/><path fill="#e6e6e6" d="m307.7 438.2v-8.6h3.1v7.6c0 2.1 1.1 3.3 2.9 3.3s3-1.3 3-3.3v-7.6h3.1v13.4h-3.1v-2.1c-.8 1.3-2.1 2.3-4.2 2.3-3 .2-4.8-1.8-4.8-5z"/><path fill="#e6e6e6" d="m323.4 439.4v-7.1h-1.7v-2.6h1.7v-3.7h3.1v3.7h3.6v2.6h-3.6v6.6c0 1.2.6 1.7 1.7 1.7.7 0 1.3-.2 1.9-.5v2.5c-.8.5-1.7.7-2.8.7-2.3 0-3.9-.9-3.9-3.9z"/><path fill="#e6e6e6" d="m332.7 425.3h3.2v15h9.4v2.9h-12.5v-17.9z"/><path fill="#e6e6e6" d="m355.5 443.1v-1.7c-.9 1.1-2.3 2-4.4 2-2.6 0-4.8-1.4-4.8-4.2 0-3 2.3-4.4 5.4-4.4 1.7 0 2.6.2 3.7.5v-.2c0-1.9-1.2-2.9-3.3-2.9-1.5 0-2.6.3-3.9.8l-.8-2.5c1.5-.7 2.9-1.1 5.1-1.1 4 0 5.9 2.1 5.9 5.7v8zm.1-5.6c-.8-.3-1.9-.5-3.1-.5-2 0-3.1.8-3.1 2.1s1.1 2 2.6 2c2 0 3.5-1.1 3.5-2.9z"/><path fill="#e6e6e6" d="m364.4 441.1v2.1h-3.1v-18.7h3.1v7.4c1-1.4 2.4-2.5 4.5-2.5 3.2 0 6.3 2.5 6.3 7s-3.1 7-6.3 7c-2.1 0-3.5-1.1-4.5-2.3zm7.7-4.7c0-2.6-1.7-4.3-3.9-4.3-2.1 0-3.9 1.7-3.9 4.4 0 2.6 1.8 4.3 3.9 4.3 2.2 0 3.9-1.7 3.9-4.4z"/><path fill="#e6e6e6" d="m376.5 441.4 1.4-2.1c1.4 1.1 3 1.7 4.4 1.7s2.1-.5 2.1-1.5-1.3-1.4-2.8-1.8c-.1 0-.2-.1-.2-.1-2-.6-4.2-1.4-4.2-4s2.1-4.1 4.8-4.1c1.7 0 3.5.6 5 1.5l-1.2 2.2c-1.3-.8-2.6-1.3-3.8-1.3s-1.9.5-1.9 1.4 1.3 1.4 2.8 1.8c.1 0 .2.1.2.1 2 .6 4.2 1.5 4.2 4 0 2.9-2.2 4.2-5 4.2-2 0-4.1-.7-5.8-2z"/><path fill="#e6e6e6" d="m505.1 434.2c0-5.1 4.1-9.2 9.3-9.2s9.2 4.2 9.2 9.2-4.1 9.2-9.3 9.2-9.2-4.1-9.2-9.2zm17.4-.1c0-4.5-3.5-8.2-8.2-8.2s-8.2 3.7-8.2 8.3c0 4.5 3.5 8.2 8.2 8.2s8.2-3.7 8.2-8.3zm-13.1-.1c0-2.8 2.1-5.1 5.1-5.1 1.9 0 2.9.6 3.9 1.5l-1.4 1.7c-.8-.7-1.5-1.1-2.5-1.1-1.7 0-2.8 1.4-2.8 3.1s1.1 3 2.8 3c1.1 0 1.7-.5 2.5-1.1l1.4 1.4c-1.1 1.1-2.1 1.7-4 1.7-2.9.1-5-2.2-5-5.1z"/><path fill="#e6e6e6" d="m525 425.3h3.4l4.2 13.2 4.4-13.3h2.6l4.4 13.3 4.2-13.2h3.3l-6.2 18h-2.7l-4.4-12.8-4.4 12.8h-2.7z"/><path fill="#e6e6e6" d="m551.2 436.4c0-3.9 3.1-7 7.2-7 4.2 0 7.2 3.2 7.2 7s-3.1 7-7.3 7c-4.1 0-7.1-3.1-7.1-7zm11.2 0c0-2.3-1.7-4.3-4.2-4.3s-4.1 2-4.1 4.3 1.7 4.3 4.1 4.3c2.7.1 4.2-1.9 4.2-4.3z"/><path fill="#e6e6e6" d="m567.8 429.7h3.1v3c.8-2 2.4-3.4 4.8-3.3v3.2h-.2c-2.7 0-4.6 1.7-4.6 5.4v5.1h-3.1z"/><path fill="#e6e6e6" d="m577.5 424.5h3.1v11.1l5.6-6h3.8l-5.4 5.5 5.5 8h-3.5l-4.1-5.8-1.9 2v3.9h-3.1z"/><path fill="#e6e6e6" d="m590.1 436.4c0-3.9 3.1-7 7.2-7 4.2 0 7.2 3.2 7.2 7s-3.1 7-7.3 7c-4.1 0-7.1-3.1-7.1-7zm11.2 0c0-2.3-1.7-4.3-4.2-4.3s-4.1 2-4.1 4.3 1.7 4.3 4.1 4.3c2.6.1 4.2-1.9 4.2-4.3z"/><path fill="#e6e6e6" d="m606.5 438.2v-8.6h3.1v7.6c0 2.1 1.1 3.3 2.9 3.3s3-1.3 3-3.3v-7.6h3.1v13.4h-3.1v-2.1c-.8 1.3-2.1 2.3-4.2 2.3-3 .2-4.8-1.8-4.8-5z"/><path fill="#e6e6e6" d="m622.2 439.4v-7.1h-1.7v-2.6h1.7v-3.7h3.1v3.7h3.6v2.6h-3.6v6.6c0 1.2.6 1.7 1.7 1.7.7 0 1.3-.2 1.9-.5v2.5c-.8.5-1.7.7-2.8.7-2.3 0-3.9-.9-3.9-3.9z"/><path fill="#e6e6e6" d="m631.5 425.3h3.2v15h9.4v2.9h-12.5v-17.9z"/><path fill="#e6e6e6" d="m654.3 443.1v-1.7c-.9 1.1-2.3 2-4.4 2-2.6 0-4.8-1.4-4.8-4.2 0-3 2.3-4.4 5.4-4.4 1.7 0 2.6.2 3.7.5v-.2c0-1.9-1.2-2.9-3.3-2.9-1.5 0-2.6.3-3.9.8l-.8-2.5c1.5-.7 2.9-1.1 5.1-1.1 4 0 5.9 2.1 5.9 5.7v8zm.1-5.6c-.8-.3-1.9-.5-3.1-.5-2 0-3.1.8-3.1 2.1s1.1 2 2.6 2c2 0 3.5-1.1 3.5-2.9z"/><path fill="#e6e6e6" d="m663.3 441.1v2.1h-3.1v-18.7h3.1v7.4c1-1.4 2.4-2.5 4.5-2.5 3.2 0 6.3 2.5 6.3 7s-3.1 7-6.3 7c-2.2 0-3.6-1.1-4.5-2.3zm7.7-4.7c0-2.6-1.7-4.3-3.9-4.3s-3.9 1.7-3.9 4.4c0 2.6 1.8 4.3 3.9 4.3s3.9-1.7 3.9-4.4z"/><path fill="#e6e6e6" d="m675.3 441.4 1.4-2.1c1.4 1.1 3 1.7 4.4 1.7s2.1-.5 2.1-1.5-1.3-1.4-2.8-1.8c-.1 0-.2-.1-.2-.1-2-.6-4.2-1.4-4.2-4s2.1-4.1 4.8-4.1c1.7 0 3.5.6 5 1.5l-1.2 2.2c-1.3-.8-2.6-1.3-3.8-1.3s-1.9.5-1.9 1.4 1.3 1.4 2.8 1.8c.1 0 .2.1.2.1 2 .6 4.2 1.5 4.2 4 0 2.9-2.2 4.2-5 4.2-2 0-4.1-.7-5.8-2z"/></g>
</svg>
