<?xml version="1.0" encoding="utf-8"?>
<!-- Generator: Adobe Illustrator 23.0.1, SVG Export Plug-In . SVG Version: 6.00 Build 0)  -->
<svg version="1.2" baseProfile="tiny" id="Layer_1" xmlns="http://www.w3.org/2000/svg" xmlns:xlink="http://www.w3.org/1999/xlink"
	 x="0px" y="0px" viewBox="0 0 900 600" xml:space="preserve">
<g>
	<path d="M313.61,253.94c0.51-3.03,2.33-6.27-1.42-8.29c0.2-5.76-0.3-6.67-4.45-8.59c-0.51-3.64-1.52-4.45-5.66-4.15
		c-3.64-4.25-7.68,0.2-11.83-0.81c-2.43-1.52-3.94-4.75-7.68-5.46c1.11-2.73,0.82-5.16-0.61-7.48c-1.35-2.19,0.82,0.74-2.43-20.93
		c5.56-3.54,6.53-9.57,2.33-14.46c-2.11-2.46,1.87,13.23,6.07-168.55c0.05-2.25,0.43-5.06-1.72-5.06
		c-5.19,0-6.69,167.77-10.62,170.67c-9.71,7.17,0.65,13.13-1.11,25.07c-1.43,9.7-0.35,11-4.45,13.95
		c1.21-9.3-6.88-13.25-10.11-19.82c5.56-12.96,7.59-32.12,0.1-45.5c-3.1-5.54,2.59-14.24-8.59-25.98c-2.71-2.85-5.98-4.72-9.71-5.76
		c-2.43-0.68-3.64-2.73-5.76-3.74c1.27-2.32,1.23-3.59,5.06-2.12c4.79,1.84,11.15-2.42,11.63-7.58c1.47-15.74,3.34-2.55,3.34-17.29
		c4.49-2.42,4.29,3.7,2.63-15.77c5.65-3.1,4.11-6.67,3.44-18.71c4.95-1.52,10.31-1.31,14.76-5.36c-3.13-0.91-5.56,1.52-7.79-0.4
		c1.72-1.31,4.35-1.52,5.06-4.55c-2.73,0.1-3.84,2.83-6.37,2.43c8.07-6.24,8.61-5.03,2.53-5.46c1.21-1.21,2.53-0.51,3.64-1.31
		c-0.51-1.42,1.82-1.72,1.31-3.84c-3.74,0.4-7.48,1.82-11.43,0.61c0-0.3,0-0.91,0-1.52c-2.63-1.62-4.95-3.75-7.99-4.35
		c-6.87-1.34-13.15-4.23-19.92-5.86c-13.22-3.19-14.21,1.72-19.62,3.24c-1.52-1.72-0.81-4.35-2.73-5.76
		c-2.33,1.52-1.11,3.74-1.21,5.76c-1.72-0.3-2.53-2.53-4.45-1.21c-0.51,1.42,0.3,2.83,0,4.25c-5.06,2.93-12.34,12.74-9,17.49
		c-0.71,0.61-1.19,1.32-1.42,2.22c-7.61,31.13,18.95,38.64-23.26,63.9c-8.73,5.22-25.49,22.33-25.58,22.45
		c-6.44,8.61-12.5,24.83-9.5,34.28c2.8,8.85-0.59,18.32-1.42,27.7c-1.61,18.3,7.88,28.29,5.76,52.68c-0.29,3.31,2.41,3.57,0.51,7.38
		c9.3,2.93,16.48,9.2,24.97,12.23c1.72,6.17,0.71,11.93,1.92,17.49c-4.17,7.51-0.19,1.98-5.86,10.82
		c-2.27,3.53-3.77,0.62-4.35,11.53c-1.07,20.37,3.15,59.39,3.94,75.33c1,20.13-4.64,28.18,5.86,36.7c1.12,0.91,2.53,1.52,3.44,2.93
		c-0.1,2.02,0.8,4.25,0.51,6.47c-0.71,5.32-2.76,10.46-2.93,15.77c-0.27,8.23-3.34,5.8-4.65,30.53c-0.51,9.59,5.95,16.7,7.99,24.27
		c9.31,34.57,10.61,33.46,11.12,40.95c-7.42,9.27-3.16,11.42-5.36,12.84c-3.72,2.4-0.86,11.04-6.98,15.67
		c-0.3,0.3-0.4,0.81-0.61,1.11c6.67,8.29,8.4,8.74,17.8,10.21c21.97,3.44,23.37,19.99,62.28,9.2c4.18-1.16,2.25-3.52,3.13-4.85
		c0.61-0.4,1.21,1.11,1.92,0.3c4.55-6.07,0.68-12.07-4.35-14.76c-7.15-3.83-8.36-2.12-8.8-4.15c21.05,3.3,18.83-1.76,28.31-5.36
		c3.44-1.31,4.15-9.2,1.42-11.93c-2.33-2.33-5.36-3.45-8.49-4.45c-12.67-4.05-9.99-9.93-23.86-17.69c-1.42-0.8-2.93-1.52-3.94-2.73
		c-1.01-4.45-0.91-9.3-5.26-11.53c-2.93,0.2-1.72,3.74-4.35,3.74c-0.34-7.83,1.36-6.39,1.01-10.62c-0.66-7.99,1.02-15.78,1.31-23.66
		c0.33-8.7,4.7-18.48,6.27-26.39c5.25-26.55,1.48-40.27,3.13-42.67c1.53-1.14,8.9,0.99,13.14-3.74c1.44-1.6,3.04-2.81,5.06-3.64
		c2.64-1.09,5.96-6.98,5.26-9.5c-1.05-3.78,1.32-9.96,0.3-20.63c-3.43-36-1.22-32.62-3.03-42.06c-2.46-12.78,0.24-9.73-1.42-22.35
		c-5.68-43.2-13.75-18.28,14.36-24.87c2.12-2.33,2.92-4.95,2.73-8.19c-0.21-3.64-2.73-4.85-5.66-5.97c4.07-1.36,6.55,0.52,8.49-4.75
		c0.52-1.41-0.7-3.03-0.2-3.84c1.76-2.91,0.1-5.06-1.21-7.38c-1.26-1.48-3.47-1.14-4.95-1.42c-1.01,1.42,0.4,2.63-0.71,4.25
		c1.82-0.71,1.42-2.33,2.73-2.83c-0.1,2.43,4.35,2.83,2.63,6.07c-1.21,0.2-1.82-1.52-3.34-0.71c-0.31,2.97,5.96,2.77,1.62,8.19
		c-2.02-1.11-4.05-0.61-6.07-0.2c-3.44,0.7-6.86-0.54-10.31,0.4c-6.67,1.81-7.7,6.57-12.54,4.55c-14.11-5.89-56.26,8.09-93.53-17.8
		c-3.25-2.25-8.32-1.98-8.09-8.29c0.94-25.27-5.97-33.92-5.97-48.84c3.77,6.28,11.27,6.06,10.72,11.63
		c-0.1,2.22,0.55,4.68-1.01,6.77c-0.69,0.92-0.61,2.02,0.51,3.24c2.43-4.55,2.84-9.1,1.62-13.45c-0.8-2.83-4.35-3.74-6.67-5.56
		c-0.71-3.34-2.73-6.37-4.25-9.71c0.24-11.47,5.06-14.3,3.24-19.41c-4.01-11.24-2.55-21.95,2.53-32.46
		c1.91-3.95,4.85-7.18,7.48-10.72c2.55-2.55-0.14,2.23,11.02-8.8c4.02-3.97,7.89-8.29,13.85-10.41c4.85,3.44,9.3,7.48,13.65,12.64
		c-3.94,0.3-7.28-1.11-10.72-0.3c1.82,2.43,7.18,3.03,11.53,1.31c14.85,24.85,20.73,25.03,8.19,67.24
		c-6.07-1.82-6.36-7.99-9.5-11.93c-3.63-4.56,0-10.11,0.4-15.27c-2.43,1.52-1.82,4.65-3.94,6.47c-0.81,0.1-1.52-1.42-2.73-0.3
		c0.3,4.45-3.94,6.67-6.17,10.01c1.42,0.61,2.02-0.81,3.44-0.91c4.25,16.48,1.11,32.35-4.45,48.63c-1.31,0.91-4.15-0.71-6.07,1.21
		c0.71,1.42,1.82,0.79,2.73,0.81c8.22,0.14,8.14,4.76,14.36,6.57c3.13,0.91,5.23,3.58,7.79,5.36c3.4,2.38,7.56,3.77,10.62,6.88
		c1.08,1.09,2.23,0.26,5.76,1.31c49.32,14.76,24.52-5.14,55-8.8c2.83,3.24,8.7,3.64,9.61,9.61c-3.13-1.11-4.45-4.15-7.28-4.75
		c0.81,2.12,1.72,3.94,1.92,5.97c1.31,0,0.91-1.21,1.72-1.62c3.31,2.09,2.9,4.45,3.64,5.36c3.79-9.47,1.43-8.96-1.62-11.32
		c-1.02-0.79-0.91-1.42-0.1-2.02c6.77,2.83,12.03,8.49,19.72,9.5c-3.84,5.56-3.34,8.29,2.22,13.04c3.16-0.79,13.04,0.49,16.78-11.43
		C316.34,257.28,316.34,256.27,313.61,253.94z M183.68,527.14c-8.55-36.6-15.08-27.74-13.14-53.18c0.93-12.2,4.55-15.24,4.55-23.86
		c0-6.3,2.83-2.38,2.83-18.1c1.62,0,2.02,0.91,1.82,2.12c11.22,1.87,15.17,6.54,29.02,7.38c2.12,3.03-2.64,48.03-4.04,57.94
		c-0.81,5.74-0.58,27.6,3.84,44.49c-1.92,3.34-6.37,2.53-8.8,5.56c-0.61,1.21,0.4,2.53,0.51,3.84c-4.15,3.44-7.48,3.34-10.21-0.2
		c0.4-3.34,1.01-6.77-0.4-10.11c-1.01,0.2-0.51,1.31-1.62,1.82C187.73,538.56,185.08,533.11,183.68,527.14z M208.36,531.58
		c2.83,1.31,5.07,1.74,7.48,0.1c1.63-1.1,4.35-0.1,5.06,1.31C212.6,536.03,209.97,535.83,208.36,531.58z M217.56,556.15
		c-3.64,1.31-7.48,1.82-10.92,4.04c-1.42-1.92-3.46-3.14-3.13-6.17c0.65-6.05,3.52-3.61,10.92-9.4
		C218.67,547.46,216.44,552.11,217.56,556.15z M197.84,566.57c-4.75,0.4-6.3-0.39-7.89-4.45c-3.42-8.71-4.22-7.91-3.03-9.3
		c3.84,7.48,4.85,7.79,12.23,3.34C203.51,559.29,202.46,560.92,197.84,566.57z M255.78,583.45c6.99,9.62-26.45,19.81-47.93,5.36
		c-0.87-0.59-12.35-4.16-18-4.55c-4.15-0.29-8.29-3.34-12.03-8.7c8.64-13.87,5.68-24.75,9.2-12.54c1.75,6.06,9.87,8.45,14.56,4.04
		c5.41-5.08,0.16-3.94,8.39-4.85c-0.61,1.82-3.03,1.72-3.34,3.74c2.63,0.4,5.16-0.51,7.79-0.51c-0.51,1.62-2.22,2.22-2.83,3.94
		c3.74-0.1,7.28-1.21,10.82-0.61c-2.02,1.82-5.16,2.53-6.07,6.07c4.95-1.11,9.81-1.42,13.75-5.26c1.21,1.21,2.73,2.22,4.25,2.83
		c0,1.42-0.51,1.92-1.72,2.43c-0.49-5.06-7.2-2.09-9.71,1.31c6.43-0.52,12.36,4.88,15.57-0.3
		C246.66,580.41,250.56,576.28,255.78,583.45z M219.58,560.5c0-0.91,0.61-1.01,1.72-1.01C220.79,560.4,220.19,560.5,219.58,560.5z
		 M224.84,564.85c1.42,0.3,1.62,1.42,2.73,2.12c-1.82,1.11-3.34,1.72-5.06,1.82C224.43,568.19,225.24,566.87,224.84,564.85z
		 M228.27,562.22c1.42,0.71,2.02,1.31,2.63,2.53C229.79,564.14,229.08,563.64,228.27,562.22z M238.28,570.71
		c1.31-0.4,1.92,0.51,3.24,1.21C239.9,572.03,239.19,571.42,238.28,570.71z M250.11,543.41c0.91,1.01,0.1,1.21-0.4,1.52
		C249.2,544.22,249.41,543.82,250.11,543.41z M243.14,537.45c3.37,1.44,0.53,1.48-0.3,1.62
		C242.43,538.56,242.83,538.06,243.14,537.45z M229.18,524.91c2.85,0.39,4.59-2.17,6.07,1.11c2.43,5.4-4.38,6.38-10.41,11.02
		c-3.54,2.72,1.34,0.78,2.43,1.11c0.1,1.42-1.92,2.02-1.52,3.84c13.68-6.02,4.94-0.71,4.85,1.11c2.22,0.4,4.04-1.31,6.17-0.91
		c-0.1,1.42-2.02,1.31-2.02,2.73c4.85,1.01,9.91-1.01,11.73-4.55c0.91,0.3,1.52,0.91,2.12,1.82c-1.34,1.79-5.96,1.15-7.08,3.94
		c1.82,1.42,4.75-0.91,5.86,2.12c1.92-0.51,3.64-1.01,4.75-1.31c5.66,3.34,10,8,16.58,8.49c2.02,0.15,6.01,2.79,4.25,5.97
		c-6.15,11.09-27.48,9.83-28.82,8.8c-4.39-3.38-10.34-4.43-13.95-8.9c-0.81-1.01-1.82-0.4-2.83-0.2c-2.12-2.22-4.04-4.65-6.57-6.77
		c2.92-9.31-5.74-15.58-9.2-11.32c-1.92-1.52-1.72-3.64-2.43-6.27c5.36,3.64,9.3,0.91,13.65-1.01
		C223.96,533.19,222.22,523.95,229.18,524.91z M229.59,480.83c-1.22,4.02-2.42,21.35-1.92,27.7c0.39,4.96-1.01,9.71-0.91,14.76
		c-2.22,0.81-4.35,1.52-5.06,4.25c-1.62-3.34-2.22-6.88-4.35-9.71c0.4,3.54,0.51,7.18,2.22,10.62c-3.84,2.02-7.79,1.52-11.83,1.42
		c-0.38-2.01-1.56-24.04,0.61-0.91c4.26-1.25-1.63-15.08-0.3-20.02c0.11-0.4,0.2-1.01,0-1.31c-3.09-4.7,4.61-26.72,3.74-65.11
		c6.57-0.61,10.81-6.08,16.99-7.89c8.21-2.4,3.3-13.84,8.19-13.14C237.47,422.48,237.28,455.45,229.59,480.83z M273.37,282.35
		c1.32,1.32,3.83,9.04-4.45,10.01c-5.65,0.66-13.58-1.34-15.87-8.59C259.82,279.01,266.59,279.92,273.37,282.35z M200.17,283.06
		c0.13,0.09,40.45-0.79,41.15-0.71c3.44,0.42,6.77,1.52,10.41,1.42c-0.3,2.83-3.54,2.12-3.34,4.65c-9.33-4.08,6.77,0.98-28.31,4.35
		c-0.91-0.71-0.61-1.82-1.11-2.53c-1.11,0.61-0.1,1.82-1.01,2.43c-9.1,1.62-18.6,1.21-21.33-0.91c-5.53,4.21-6.79-4.79-9-11.43
		C191.98,281.85,196.46,280.67,200.17,283.06z M246.47,294.79c-0.61-1.01,0.3-1.82,0.2-3.13
		C247.96,292.48,249.06,295.31,246.47,294.79z M174.59,277.19c12.4,4.48,10.97-1.97,14.56,14.76c-8.72,0.32-5.2-3.4-8.19-1.01
		c-1.21-1.72-1.52-3.94-3.13-5.76c-0.61,1.92,1.11,3.24,0.81,5.06c-1.72,0.2-3.03-0.51-4.35-2.12
		C175.09,284.47,174.69,280.94,174.59,277.19z M183.08,298.33c-2.02,0-2.02,0-2.83-2.33C181.46,297.11,182.17,297.62,183.08,298.33z
		 M174.28,298.33c1.21,0.2,1.82,1.11,2.33,2.53c-1.62,3.54-2.95,7.57-5.16,11.02c-2.69,4.19-4.12,16.48,1.21,22.04
		c-2.12-5.76-0.51-11.93-2.02-18c2.93-5.06,6.77-9.91,8.09-15.98c2.12-0.51,4.25,0.2,6.37,0.4c0.2-1.21-1.72-1.92-0.3-3.13
		c1.01-0.61,2.02-0.3,3.24,0.3c0.51,3.84-1.01,7.68-0.61,11.73c2.93-2.53,3.84-6.67,2.12-11.12c2.33,1.62,4.75-2.63,6.27,0.3
		c32.14-1.24,7.07,1.52,44.59-4.65c-1.52,2.73-4.64,2.04-6.88,3.44c-2.31,1.44-5.26,0.4-7.68,1.92c1.72,0.71,3.44-0.71,5.46,1.01
		c0.1,7.68-0.81,15.98,0.2,24.16c4.52-23.16-4.12-26.83,10.41-27.3c1.31,2.93,1.92,6.07,2.83,9.2c1.02-4.5-4.67-16.31,4.55-4.35
		c-0.1-2.12-1.31-3.44-1.72-5.46c6.6,1.8,2.09-16.5,10.21,25.18c0.09,0.47,0.16,43.44,4.04,79.47c0.84,7.82-22.69,18.82-26.39,16.89
		c-0.47-7.82,1.61-1.4,4.55-40.75c2.12-0.61,3.54,0.51,5.26,0.81c-0.71-2.12-3.03-2.43-4.45-3.84c-0.3-2.02,0.71-3.84,1.31-5.56
		c1.42-0.81,2.73,0,4.15,0.3c-0.83-2.48-6.13-0.85-1.62-6.37c2.22,0.51,3.64,1.92,5.06,3.44c-0.3-2.63-2.53-3.74-4.04-5.66
		c0.91-3.03,3.44-5.66,3.03-9.2c-5.76,7.28-9.1,15.47-10.21,24.87c-4.52,38.37-6.13,35.88-6.77,50.45
		c-0.3,6.86-6.52,5.33-17.9,12.74c-3.21,2.09-26.08-5.45-39.33-13.85c-2.34-1.49-3.85-3.93-6.37-5.26
		c-4.15-2.19,0.28-5.27-1.52-53.08c0.1-1.21-0.4-2.53,1.11-3.24c-1.21-1.72-1.5-3.44-1.62-5.26c-2.42-37.35-6.18-20.12-2.22-49.85
		c0.5-3.74,4.15-5.86,6.17-8.8c1.21,0.3,0,1.31,1.11,1.72C172.77,301.36,172.66,298.83,174.28,298.33z M311.39,248.68
		c0.2,3.64-0.71,6.98-2.73,10.01c-0.61,0.91-1.72,0.61-2.93-0.2C310.48,256.77,308.96,251.72,311.39,248.68z M308.05,239.78
		c4.3,2.63-0.15,7.79-0.51,13.95c-0.43,3.47-7.2,3.57-7.99,3.64C306.22,255.9,308.58,245.37,308.05,239.78z M299.45,233.31
		c1.31,4.15,1.01,8.7,2.83,12.74c-6.3,6.93-7.51,6.04-8.59,0.61c5.25-5.64-1.42-9.82-1.42-12.34
		C294.5,233.92,296.72,233.01,299.45,233.31z M274.38,191.25c1.42-0.2,2.02,0.91,3.03,0.91c0.61-1.01-0.91-1.62-0.61-2.63
		c0.71-0.1,1.52-0.3,2.33-1.31c0.2,2.93-1.31,4.55-2.33,6.67c2.22,0.2,2.63-1.82,4.15-2.43c-0.1,2.93-3.34,3.13-3.84,5.86
		C274.99,196,275.59,193.38,274.38,191.25z M277.41,205.21c-0.96,0-0.72,0.23-0.4-4.55C277.61,202.17,277.72,203.69,277.41,205.21z
		 M275.9,213.09c0.81,3.54-0.71,7.18,1.72,10.62C273.57,221.38,273.97,220.88,275.9,213.09z M255.57,146.56
		c-3.64-7.48-9.1-13.75-14.16-20.93C249.71,128.57,255.67,137.36,255.57,146.56z M261.54,54.25c1.01-1.01,1.82-0.81,2.93-0.4
		C263.56,54.76,262.65,54.65,261.54,54.25z M266.39,46.97c-1.01,1.31-2.33,2.02-4.45,2.53C263.56,47.78,264.98,47.38,266.39,46.97z
		 M262.35,45.45c-0.81,1.01-1.52,1.31-2.93,1.31C260.43,45.66,261.24,45.45,262.35,45.45z M257.8,37.06
		c1.21,1.31,1.21,1.31,0.81,3.13C255.83,39.27,256.45,40.44,257.8,37.06z M251.93,35.34c-2.07,1.7-2.83-0.83-4.16-0.52
		C249.08,34.36,250.34,35.06,251.93,35.34z M248.29,52.94c-1.01,0.51-1.92,0.51-2.93,0C246.47,52.63,247.38,52.33,248.29,52.94z
		 M240.81,50.31c-0.91,0.61-1.62,1.01-2.43,1.52C237.76,51.04,238.3,48.05,240.81,50.31z M237.58,31.4
		c-1.42,0.4-2.43,0.71-3.34,0.91C234.95,30.39,234.95,30.39,237.58,31.4z M237.17,44.95c-0.51,1.31-1.21,1.62-2.63,1.92
		C235.35,45.76,235.65,44.95,237.17,44.95z M229.79,41.41c2.24,0.2,0.75,3.03-1.82,3.03C228.27,43.03,228.88,42.12,229.79,41.41z
		 M233.13,44.34c0,3.14-1.71,5.03-3.54,2.43C230.4,45.66,231.61,45.15,233.13,44.34z M228.07,57.08c-1.01,2.22-1.01,2.22-3.13,1.62
		C225.85,57.99,226.66,57.08,228.07,57.08z M226.76,29.28c-0.81,0.81-1.52,1.11-2.53,1.01C224.94,29.28,225.64,28.97,226.76,29.28z
		 M225.54,42.22c-0.1,0.71-0.1,1.52-1.52,0.91C224.33,42.32,224.63,41.92,225.54,42.22z M219.58,57.59c0.81,0.81,0,1.01,0.3,1.82
		C218.87,58.4,219.38,58.09,219.58,57.59z M217.46,56.27c-1.62-1.11-1.92-1.82-0.71-2.83C217.46,54.15,217.35,55.06,217.46,56.27z
		 M216.34,39.39c0.57,3.6-4.45,1.56-6.07,3.03C212.6,39.99,213.21,39.69,216.34,39.39z M209.67,40.9c-0.71-0.51-1.62-0.91-2.53-1.42
		C212.11,37.36,212.35,38.56,209.67,40.9z M207.34,62.74c-1.11,1.11-1.62,1.72-2.22,2.33C205.12,63.96,205.52,63.05,207.34,62.74z
		 M206.94,67.8c1.01-0.81-0.91-1.31,0-2.22c0.91,0.61,1.31,1.42,1.72,2.22c-0.2,1.11-1.31,1.01-2.02,1.52
		c-0.81,0.51-0.61,1.62-1.31,2.12c-0.91-0.3-1.11-1.11-1.62-1.72C204.51,68.51,204.92,66.89,206.94,67.8z M201.48,54.05
		c0.71,0.91,0.2,1.21-0.1,1.72C200.67,55.06,201.08,54.65,201.48,54.05z M190.05,108.34c0.4-1.01,1.21-0.2,1.72,0.61
		c11.97-10.86,7.15-15.64,15.67-26.29c-0.3,5.06-0.2,9.91,4.35,13.35c-3.03-6.07-1.01-12.44-1.62-18.91
		c-0.61,0.91-1.21,1.62-2.12,2.83c-6.47-11.32-1.68-4.08,0.51-3.64c2.83-1.42,2.83-1.62,1.01-4.65c0.1-1.01,1.42-0.71,1.62-1.62
		c0.4-1.31-0.81-2.02-1.21-3.24c2.53-0.51,3.01,0.6,2.63,2.63c-0.34,1.81-0.79,10.66,1.52,11.53c1.06-2.64,1.46-10.85,11.12-16.68
		c6.04-3.65,6.23-9.04,18.91-8.8c5.26,0.1,10.52,0,15.57,2.43c0.3,4.04,0.61,8.39,0.91,12.64c-7.88,2.93-3.24,5.53-3.24,18.6
		c-1.62,1.82-3.13,0.71-4.55-0.1c-1.21-0.61-3.24,0.71-3.44-1.82c-2.02,2.33-2.02,2.33,0.71,4.25c1.01,0.3,1.72-1.01,3.03-0.61
		c2.71,12.49-1.37,4.2-11.83,8.49c3.34,3.13,7.38-0.51,10.72,1.42c0,5.41-4.79,1.14-7.89,3.94c1.42,2.22,3.64,1.42,5.46,1.82
		c0.71,4.15,0.11,6.59-2.73,7.18c-10.24,2.12-5.89-0.23-22.65-6.27c2.02,4.95,5.86,6.47,9.5,8.39c-2.53,3.84-4.95,7.68-4.65,12.74
		c2.43,0.1,1.72-2.43,3.44-3.24c4.71,6.84,8.03,15.96,9.1,21.44c0.81,4.15-0.3,8.19-3.13,11.73c-2.53-1.01-5.06-0.2-7.68,0.2
		c-17.37-11.58-29.35-35.54-39.53-39.94c-2.33-1.01-3.34-3.74-5.36-5.56C187.22,111.38,189.35,110.47,190.05,108.34z M200.06,200.45
		c-15.14,19.4-11.12,10.64-11.12,8.59c0.91-1.11,2.33,0,3.34-1.11c-4.55-3.34-2.93-8.7-4.65-13.75
		C191.67,197.22,195.41,199.64,200.06,200.45z M256.28,249.19c-3.64,0.3-4.85,3.74-6.98,6.57c-1.01-2.63,0.61-5.46-1.52-7.48
		c-1.72,1.31-1.72,1.31-0.2,9.2c-5.07,4.43-11.31,2.46-22.55-0.71c-5.87-1.66-1.57,0.82-14.36-3.44c1.11-1.62,2.93-0.71,4.55-1.62
		c-4.25-0.3-8.7,1.52-11.83-2.93c1.42,0,2.53,0,3.74,0c-6.88-0.2-11.63-5.26-17.9-7.89c2.33-1.21,4.35-0.81,6.37-1.72
		c-7.61,0-8.74,0.47-10.62-1.72c-3.4-3.97-6.15,0-2.83-7.79c5.94-13.93,4.81-15.52,8.9-16.08c1.92,2.33,4.35,4.04,7.68,4.15
		c-1.62-1.92-3.24-3.74-5.06-5.86c7.4-5.15,10.27-12.91,11.83-12.13c0-0.2-0.2-0.4-0.1-0.61c1.42-3.74,0.82-7.78,2.12-11.63
		c2.76-8.11,6.36-25.47,1.01-36.6c-18.57-38.66-32.4-31.87-24.67-36.7c1.21,0.51,1.8,1.64,2.53,2.53
		c9.88,12.07,9.46,7.69,12.64,11.83c12.66,16.47,14.44,18.9,19.31,22.24c3.46,2.77,4.68,8.05,15.67,10.62
		c0.61-0.4,1.01-1.59,2.53-1.72c5.77-0.5,9.2-5.06,8.09-11.02c-1.29-6.9-1.24-15.79-7.68-21.23c-1.81-1.53-2.73-3.64-2.83-6.47
		c1.92,1.01,2.8,2.54,3.64,4.04c5.66,10.19,24.12,27.33,23.36,49.95c-0.83,24.74-7.31,24.34-6.27,29.52
		C257.8,219.16,257.49,234.02,256.28,249.19z M261.24,247.57c-0.61,0.51-1.31,0.51-2.83,0.51c1.01-1.52,1.62-2.43,2.33-3.34
		C261.94,245.65,261.54,246.66,261.24,247.57z M260.22,240.59c-0.21-23.94,0.05-16.64,2.02-16.89c-2.37-6.82-1.98-2.56-4.15-20.93
		c4.25,4.45,8.6,8.09,9.2,14.16c0.41,4.15,3.74,6.77,5.46,10.82c-4.75,3.64-8.7,8.19-10.41,14.16
		C261.03,241.6,260.23,241.3,260.22,240.59z M273.57,249.19c-5.03-4.02-4.01-1.97-4.65-6.77c-1.21,1.31-2.12,2.33-1.82,3.94
		c-0.81,0.81-1.72,0.91-2.83,0.71c-0.1-8.49,5.36-14.05,10.52-19.72c-0.2-1.82-1.82-2.83-1.72-4.55c0.92,0,2.15,4.5,5.16,2.53
		c1.71-1.12,2.02-3.13,0.91-4.75c-1.52-2.22-0.91-4.65-1.01-7.08c1.29,0.82,0.5,4.49,1.42,5.76c2.95,4.09-0.3,6.37-0.3,8.59
		c5.06,0.2,7.12,4.19,9.91,7.38c2.78,3.18,5.56,6.57,4.55,11.32c-6.88-3.54-7.18-3.74-11.22-9.61c0.91-0.71,2.43-0.3,3.03-1.52
		C279.01,230.39,274.77,241.47,273.57,249.19z M280.85,238.57c-0.81,1.62-2.02,2.93-2.93,4.55
		C278.42,241.3,278.83,239.38,280.85,238.57z M287.02,253.03c-4.54-4.66-8.5-3.58-9-7.58c0.91-1.72,2.93-2.73,4.45-4.55
		c2.22,1.42,1.93,4.72,4.75,5.26c0.51,0.1,0.91,0.71,1.52,0.71c3.44,0.4,4.55,2.83,5.06,5.76
		C291.47,255.25,289.51,255.59,287.02,253.03z M294.2,256.57c0.2-1.11,0.61-1.21,1.11-0.2C295.01,256.77,294.6,256.67,294.2,256.57z
		 M295.81,254.65c0.3-1.21,0.41-2.02,2.02-2.43c4.35-1.1,6.46-5.56,5.36-9.91c-0.61-2.42-1.42-4.95-0.71-7.68
		c1.72-0.51,2.91-0.2,3.13,1.72c0.83,6.94,1.18,3.55-2.22,15.17c-1.03,3.53-1.72,4.04-5.56,3.64
		C297.33,255.15,296.62,255.36,295.81,254.65z M296.62,267.79c-2.02-3.54,0.4-5.66,1.72-7.99c3.94,1.21,7.79,1.72,11.83,0.81
		c-0.1,1.42-1.42,2.33-1.72,3.94c3.54-2.43,4.15-3.54,4.15-8.19C316.36,261.39,307.15,272.3,296.62,267.79z"/>
	<path d="M678.21,11.08c-2.73,0.85,1.06-10.74-27.3,198.68c-8.32,61.43-4.66,18.79-7.28-2.63c-1.17-9.57,4.84-6.25,5.97-33.57
		c0.45-10.85-5.62-16.51-6.27-28.31c-1.13-20.61-18.19-20.79-22.55-26.39c0.95-2.54,1.53-3.05,4.35-2.12
		c5.71,1.88,11.55-2.02,12.13-7.99c1.47-15.09,3.34-2.17,3.34-16.89c1.42-0.51,2.83,0.1,3.74-1.52c0-4.65-1.31-9.4-0.91-14.16
		c6.83-4.47,2.53-10.38,3.44-18.81c4.75-1.52,10.01-1.31,14.16-5.06c-2.61-1.53-4.97,1.47-7.28-0.61c1.72-1.42,4.35-1.52,4.75-4.25
		c-2.22-0.91-2.83,2.33-4.75,1.52c1.42-1.82,3.34-2.83,5.06-4.15c-1.11-0.91-2.43,0-3.44-0.91c0.81-0.91,2.02-0.3,3.13-1.11
		c-0.51-1.31,1.82-1.62,1.42-3.74c-17.04,2.24-10.07,0.32-11.63-1.01c-2.53-1.42-4.65-3.54-7.58-4.15
		c-10.99-2.27-23.64-9.4-32.86-6.07c-2.53,0.91-4.55,2.83-7.08,3.44c-1.11-1.82-0.91-4.15-2.43-5.86c-2.43,1.42-1.01,3.94-1.62,5.76
		c-1.62-0.51-2.63-2.63-4.45-0.81c0.58,6.97,0.44,0.9-6.88,10.41c-0.2,0.3-0.11,0.81-0.3,1.21c-1.46,3.01-3.54,5.97-1.72,9.61
		c0,0.49-3.72,4.81-2.12,21.64c1.11,11.69,5.46,21.94-2.93,29.62c-23.35,21.36-14,7.03-38.83,31.65
		c-20.62,20.45-19.26,43.55-10.21,49.75c-2.2,18.31-0.2,17.07,1.11,27.91c0.69,5.69,3.43,8.21,7.38,12.84
		c9.06,10.63,2.77,16.82,10.31,26.19c-2.21,3.1,2.92,12,3.34,19.72c0.6,11.25,9.87,16.66,7.18,21.03
		c-7.29,11.84-11.72,11.34-12.34,18c-1.43,15.46,0.52,38.18,0.71,40.14c6.68,67.82-0.08,59.62,3.44,69.46
		c3.54,9.92,12.73,5.57,8.19,21.84c-2.89,10.35-1.36,13.72-3.54,18.71c-2.82,6.47-2.07,13.56-3.03,20.32
		c-1.92,13.53,11.61,21.83,19.11,66.83c-2.53,3.34-4.75,6.47-4.75,10.62c0,4.45-2.09,0.51-2.83,6.77
		c-1.2,10.18-4.8,10.16-5.36,12.94c1.03,0.82,6.07,7.98,12.54,8.8c20.01,2.52,29.54,13.86,41.66,13.25
		c6.89-0.35,26.03-0.31,29.02-5.97c0.2-0.71-1.31-1.21-0.2-2.02c0.81-0.81,1.21,1.11,2.02,0.2c4.19-5.33,2.81-13.28-10.82-17.39
		c-0.7-0.21-2.02,0-2.33-1.31c1.57-1.17,14.79,5.89,26.09-5.16c1.02-1,1.82,0.4,2.93-1.21c8.6-17.2-9.57-11.73-18.6-22.55
		c-10.84-12.98-18.13-10.07-17.8-17.29c0.07-1.56-2.07-7.58-4.95-7.89c-2.33,0.3-1.42,3.24-3.24,3.84c-2.3-1.04,0.49-7.48,0.3-9.71
		c-0.66-7.89,1.11-15.57,1.21-23.36c0.1-7.57,4.76-20.56,5.97-26.39c5.64-27.32,2.19-40.19,3.03-43.58
		c1.61-1.76,8.87,0.62,13.45-4.04c1.5-1.53,3.03-2.73,5.06-3.64c2.73-1.22,6.06-6.77,5.36-9.4c-1.1-4.09,1.55-12.33,0.1-23.96
		c-2.07-16.61-3.94-66.23-4.75-69.77c4.95,0,9.4,1.92,14.66,0.81c-2.63,1.42-2.22,2.12-8.59,1.11c1.42,1.82,3.39,2.93,3.44,5.36
		c0.11,5.29,24.76-1.77,12.94-10.01c-0.1-0.1-0.2-0.4-0.3-0.81c1.82-2.33,0.71-5.46,1.82-7.89c-0.51-1.42-1.72-1.72-2.43-2.63
		c0-0.91,1.31-1.72,0.3-2.83c-6.86-5.07-10.95,0.53-17.19-10.01c-0.9-1.52-0.91-3.64-2.73-4.75c3.83-15.05,0.51-21.36,5.06-27.1
		c2.01-2.54,2.27-5.7,0.1-8.39C648.17,238,682.78,11.99,678.21,11.08z M640.39,146.06c-3.74-7.18-9-13.25-13.55-19.92
		C634.02,127.66,641.1,137.87,640.39,146.06z M646.86,54.15c0.71-0.91,1.62-0.71,2.83-0.3C648.58,54.65,647.77,54.76,646.86,54.15z
		 M651.41,46.97c-1.21,1.42-2.83,2.22-4.65,2.53C648.08,48.18,649.69,47.48,651.41,46.97z M647.37,45.35
		c-0.61,1.11-1.52,1.31-2.43,1.11C645.55,45.76,646.26,45.45,647.37,45.35z M643.02,37.37c1.52,0.71,1.01,1.62,0.81,2.53
		c-0.81,0.61-1.42-0.3-2.22,0C642.01,38.78,642.21,37.97,643.02,37.37z M636.95,35.55c-2.12,1.29-2.98-0.87-4.36-0.87
		C633.98,34.51,635.39,34.9,636.95,35.55z M633.52,52.53c-1.11,1.31-2.12,0.51-3.03,0.61C631.29,52.33,632.3,52.63,633.52,52.53z
		 M625.93,50.31c-1.01,0.61-1.72,0.91-2.53,1.42C623.2,49.7,623.61,48.79,625.93,50.31z M623.31,46.26c0,0.61-0.3,0.91-0.91,0.81
		C622.29,46.46,622.9,46.46,623.31,46.26z M619.46,30.49c1.01-0.2,1.92-0.2,2.83,0.91C618.15,32.53,618.61,33.04,619.46,30.49z
		 M621.79,44.95c-0.1,1.21-0.61,1.52-1.72,1.42C620.47,45.66,620.68,45.05,621.79,44.95z M615.01,41.01
		c0.71,2.43,0.71,2.43-2.43,3.74C613.19,43.33,613.9,42.32,615.01,41.01z M618.86,44.04c-1.45,3.32-1.93,5.45-4.35,2.73
		C615.72,45.55,617.04,44.85,618.86,44.04z M613.09,57.59c-0.71,1.11-1.52,2.02-3.44,1.92C610.57,57.79,611.58,57.28,613.09,57.59z
		 M609.15,43.13c-0.1-0.81,0.4-0.91,1.31-1.11C610.46,43.43,610.06,43.63,609.15,43.13z M611.78,29.28
		c-0.91,1.01-2.02,1.01-2.93,1.42C609.45,29.68,610.26,29.07,611.78,29.28z M604.8,57.69c0.4,0.61,0.3,1.01-0.61,1.31
		C603.79,58.09,604.3,57.89,604.8,57.69z M601.97,55.77c-1.01-0.71-1.21-1.42,0.1-2.63C602.38,54.25,602.68,54.96,601.97,55.77z
		 M601.97,39.59c-1.52,2.63-3.54,2.12-6.27,2.02C597.93,40.2,599.44,38.98,601.97,39.59z M596.21,38.48
		c0.2,1.01-0.61,1.42-1.21,2.12c-1.01,0.1-1.72-0.71-3.03-1.11C593.58,38.78,594.69,37.77,596.21,38.48z M592.06,67.6
		c0.4-0.81-0.91-1.21-0.2-2.02c4.67,4.16-1.81,2.12-1.11,5.97C587.32,70.68,589.28,66.57,592.06,67.6z M586.7,54.05
		c0.4,1.11-0.2,1.31-0.61,1.62C585.59,54.96,586,54.55,586.7,54.05z M575.18,108.44c0.1-0.4,0.81-0.91,1.31-0.91
		c8.29-0.55,9.16-16.38,16.18-24.87c0,4.95-0.2,9.91,4.45,13.35c-2.93-5.97-1.01-12.34-1.62-18.6c-1.11,0.1-1.01,1.82-2.22,1.92
		c-1.92-2.43-2.73-5.76-5.26-7.89c2.53,1.11,3.64,3.94,6.17,4.85c2.53-1.82,2.53-1.92,0.71-4.75c0.15-0.74,0.67-0.57,1.62-1.52
		c0.4-1.31-1.31-1.92-0.91-3.24c5.16-1.24-0.21,12.08,3.74,14.05c0.48-2.62,3.56-11.21,7.08-13.55
		c12.91-8.58,10.99-11.86,19.92-11.93c25.47-0.21,17.22,2.65,19.92,14.66c-6.47,2.81-4.97,2.93-3.24,19.01
		c-2.43,0.81-7.28-0.3-8.59-1.92c-1.42,2.12-1.42,2.12,0.91,3.94c1.11,0.4,1.82-0.81,2.83-0.61c1.01,0.61,1.31,4.25,0.61,7.58
		c-3.13-1.01-6.36,0.37-9.61-0.2c-1.21-0.21-2.43,0.2-2.22,1.72c0.4,2.88,2.96,0.05,10.41,0.61c0.2,1.21-0.51,2.12-1.11,3.03
		c-2.12,0.61-4.65-0.51-6.77,1.11c1.52,2.33,3.74,1.62,5.56,2.02c0.91,5.16-0.51,6.45-5.26,7.48c-6.04,1.31-12.07-4.26-19.31-6.37
		c0.1,3.03,2.83,5.56,8.7,7.89c-1.12,1.96-6.24,9.21-4.35,12.84c2.02-0.2,1.42-2.53,3.13-3.24c5.1,7.77,8.28,16.58,9.2,21.43
		c0.79,4.15-0.3,8.19-3.24,11.63c-2.63-0.91-5.06-0.1-7.68,0.3c-17.2-11.64-29.86-35.93-39.63-39.84c-2.43-0.81-3.44-3.54-5.46-5.46
		C572.65,111.17,574.67,110.47,575.18,108.44z M569.11,114.21c16.35,18.39,6.4,2.72,27.6,30.53c2.71,3.56,8.38,7.13,11.63,11.53
		c2.41,3.25,6.47,4.25,10.62,5.36c0.61-0.61,1.01-1.82,2.53-1.72c11.15,1.5,8.8-18.09,4.55-26.89c-3.13-6.48-7.55-5.48-6.47-11.53
		c10.11,15.87,30.23,33.79,25.88,60.56c-4.03,24.84-6.78,18.25-5.86,21.74c1.56,5.93,4.78,37.42,0.81,42.06
		c-0.7,0.82-0.81,1.92-0.4,2.83c1.62,4.85-0.34,9.19-1.62,13.65c-4.92,17.14,1.75,13.2-4.25,18c-0.51,2.02-0.81,4.04-0.2,6.07
		c-3.54,3.94-3.44,2.43-18.81,5.06c-3.54-5.76-5.26-12.34-7.58-18.6c3.85,22.41,11.75,18.23-2.33,19.92
		c-1.21-0.61-0.4-1.82-1.01-2.43c-2.15-0.92,1.77,5.81-8.49-9.81c1.11,4.55,4.15,7.99,6.57,12.03c-3.34,1.01-6.47,0.51-9.91,0.91
		c-2.53-10.61-3.51-1.44-4.65-32.15c-0.21-5.6-3.64-7.87-2.02-9.2c-2.33-0.81-2.83-3.03-4.04-5.36c9.3,4.35,18.81,4.45,28.31,3.94
		c-8.09-0.1-16.07-1.54-23.96-3.44c-3.84-0.92-6.75-3.74-6.88-7.79c-0.17-5.56-1.01-11.22,2.33-16.68c0.71,0,1.92,1.52,2.83,0
		c-0.2-1.62-1.92-0.81-2.63-2.02c0.81-2.12-0.1-4.85,1.92-7.18c-0.91-1.01-1.62-2.53-1.42-4.55c12.35-11.92,8.2-14.91,10.41-21.54
		c8.45-25.34,2.49-37.94-10.92-57.03c-4.05-5.76-10.01-9.5-15.17-14.46C567.39,115.42,568.2,114.81,569.11,114.21z M613.09,298.73
		c-0.96,0-2.1,0.2-2.99,0.91c1.88,0.14,3.85-0.79,5.82,0.2c-0.36,7.47,1.39,6.2-6.07,6.57c-1.39-6.6-1.55-5.54,0.06-6.74
		c-1.36,0.29-2.73,0.59-3.9,0.88c2.12,1.72,1.21,4.25,1.72,6.27c-1.31,1.72-4.65,0.4-4.55,3.54c-3.34-3.24-4.55-7.79-7.38-11.83
		c10.31-0.61,19.92-2.63,29.83-4.95c-0.51,1.82-1.72,2.33-2.93,2.63C619.46,297.01,616.53,298.73,613.09,298.73z M621.59,298.12
		c-1.21,1.01-2.12,1.82-3.13,2.63C618.55,298.83,618.55,298.83,621.59,298.12z M578.92,196.91c1.42,2.12,3.03,3.64,5.86,3.54
		c-0.91,1.52-1.82,2.83-3.44,4.15C578.03,196.77,577.85,197.27,578.92,196.91z M556.17,278.1c-3.27-5.69-1.94-13.88-5.06-17.49
		c-2.1-2.43-0.49-6.75-2.12-11.32c-4.73-13.28-3.3-19.95-8.7-25.68c-4.36-4.63-7.36-10.1-6.07-16.38c4.45,0.51,7.38,5.06,12.13,4.75
		c0.16,0.07,0.3,0.15,0.46,0.22c5.61,7.4,2.35,8.7,4.7,9.48c0-3.52,1.95-7.88-4.55-10.21c-2.97-5.35-8.21-2.95-10.52-6.88
		c-1.84-3.15-4.8-3.49-1.52-5.26c-3.78-4.78,1.05-12.62-5.06-16.08c-0.23-1.8-9.78-22.84,6.98-43.48c6.29-7.74,4.72-1.94,11.12-9.3
		c2.84-3.26,9.85-10.47,16.08-12.84c4.95,3.34,9.3,7.58,13.75,12.64c-4.04,0.1-7.48-1.11-10.92,0c3.64,1.62,7.38,2.93,11.53,0.91
		c17.16,25.93,19.54,28.82,8.29,66.43c-0.96,1.91-4.36-3.23-5.56-4.65c2.02-5.46,3.84-10.82,3.74-16.68
		c-1.82,4.85-4.35,9.4-6.37,14.05c-5.66-0.71-3.84,5.97-7.58,7.18c2.22,0.91,3.84,0.61,5.36-1.21c1.46,14.37,4,21.84,0.91,32.86
		c-2.26,8.07,1.99,19.82,5.56,25.88c2.1,3.55,2.11,7.69,2.33,11.73c1.3,23.82,3.97,25.48,15.67,43.48c1.32,2.03,1.82,1.18,2.63,0.1
		c-0.59,0,1.46-0.17,2.12-0.51c6.29-3.2,11.25,1.04,16.58,2.73c0.61,0.19,1.21,0.71,1.62,1.62c-2.17,7.06,6.83,8.69,1.11,10.82
		c-5.32,1.98-2.32,4.78-4.65,6.27c-2.45,1.57-3.41,10.39-10.01,6.37c-9.79-5.97-12.9-2.87-14.86-6.37
		c-2.77-4.93-7.39-8.29-10.41-13.04c-1.93-3.03-3.04-6.46-5.36-9.3C567.35,293.99,569.65,301.57,556.17,278.1z M613.6,340.19
		c-2.33,3.16-1.37,2.27-20.02-5.06c2.43-1.52,4.25,1.01,6.47,0.81C604.15,335.57,610.37,340.6,613.6,340.19z M557.69,494.98
		c-4.29-8.69-1.88-25.97,1.31-35.99c3.03-9.53,0.32-7.71,1.52-10.11c1.42-5.36,3.03-10.82,2.73-16.89c1.72,3.24,5.06,2.3,7.48,3.34
		c23.23,9.93,23.63,2.59,23.56,8.8c-0.54,48.44-10.02,65.36-0.71,99.9c-1.82,3.44-6.57,2.33-9.1,5.97
		c-0.51,0.91,1.01,2.22,0.51,3.94c-1.72,1.72-4.25,1.6-6.57,2.12c-1.72,0.39-3.45-2.02-3.24-4.15c0.29-2.93,0.51-5.76-0.4-8.59
		c-1.73,0.22-0.84,4.06-1.72,1.42C569.21,527.74,565.45,510.72,557.69,494.98z M593.28,531.58c2.83,1.42,5.35,1.6,7.99,0
		c0.57-0.35,5.37-1.04,4.45,1.72C595.8,535.83,594.69,535.73,593.28,531.58z M602.78,556.05c-3.94,1.21-7.79,2.02-11.32,4.04
		c-1.01-1.92-3.14-2.83-2.93-5.46c0.61-7.71,4.44-3.83,11.02-10.41C605.01,550.99,600.48,550.08,602.78,556.05z M582.86,566.57
		c-4.65,0.51-6.37-0.4-7.99-4.65c-6.66-17.53-1.96-3.54,1.92-3.03c2.93,0.39,5.16-1.21,7.28-3.03
		C588.13,559.66,587.93,560.24,582.86,566.57z M640.59,583.15c7.49,9.42-25.87,20.27-47.72,5.56c-0.97-0.65-12.16-4.08-18-4.55
		c-5.56-0.45-8.7-4.55-12.13-8.59c8.3-13.18,5.83-24.65,9.3-12.44c1.58,5.57,9.29,7.97,13.85,4.45c5.12-3.95,0.34-4.76,9.3-5.26
		c-0.91,1.62-2.83,1.72-3.54,3.54c2.63,1.11,5.16-0.61,7.79,0c-0.51,1.42-2.12,2.02-2.73,3.64c3.54,0.4,6.98-1.72,10.52-0.2
		c-2.43,1.31-4.75,2.63-5.97,5.76c5.06-1.21,10.01-1.42,13.85-5.26c1.61,1.76,6.57,2.99,3.03,4.95c-1.14-0.57-0.35-3.26-4.15-2.43
		c-4.94,1.09-7.83,5.26-3.64,3.94c3.78-1.19,8.01,5.08,13.25-0.4C631.58,580.42,634.92,576.02,640.59,583.15z M604.3,560.5
		c0.61-0.81,0.91-1.31,2.02-0.71C605.71,560.3,605.21,560.5,604.3,560.5z M609.35,567.78c1.17-1.32-0.8-5.02,3.03-0.71
		C611.37,567.58,610.67,568.29,609.35,567.78z M623.31,570.61c1.52,0.2,2.83,0.91,3.84,2.02
		C625.63,572.43,624.42,571.72,623.31,570.61z M634.22,544.73c0.41-2.04,2.2-1.15,0.4,0.2
		C634.43,545.13,634.12,545.03,634.22,544.73z M627.96,537.65c1.63-0.41,2.16,2.21-0.51,1.21
		C627.65,538.46,627.86,538.06,627.96,537.65z M621.89,533.71c0.2,0,0.51,0.61,0.4,0.61C621.21,535.4,620.75,533.48,621.89,533.71z
		 M618.25,524.3c2.18-0.87,3.92,5.55,0.4,7.38c-17.41,9.06-6.84,6.23-6.37,6.47c0.1,1.42-1.62,2.02-1.72,4.15
		c2.53-1.62,4.95-2.63,7.68-2.93c-0.2,1.72-2.73,1.62-2.53,3.94c10.39-2.6,3.82-0.16,3.94,1.72c4.75,1.01,9.71-0.91,11.83-4.55
		c6.14,3.07-2.99,2.13-5.26,5.86c2.02,1.11,4.95-0.71,6.07,2.12c1.92-0.51,3.64-1.01,5.36-1.52c3.24,4.15,8.29,5.67,12.64,8.19
		c1.46,0.85,10.3,0.43,6.98,6.98c-5.31,10.46-27.34,8.96-28.01,8.29c-4.35-3.44-10.2-4.46-14.05-8.9c-0.71-0.81-0.81-0.71-3.13-0.51
		c-1.92-2.22-3.94-4.55-6.37-6.67c2.68-9.97-6.38-15.83-9.2-11.22c-1.62-1.72-1.92-3.64-2.12-6.17c5.06,3.03,9.2,0.61,13.45-1.52
		c0.87-3.84-0.27-9.3,3.94-10.52C613.9,524.3,616.03,525.01,618.25,524.3z M612.39,510.76c0.61,4.25-1.21,8.19-0.4,12.74
		c-2.93,0.2-4.25,2.02-5.66,4.45c-0.91-3.94-2.02-7.28-3.94-10.21c0.3,3.54,0.51,7.18,2.22,10.62c-3.74,2.12-7.68,1.52-11.83,1.52
		c-0.81-3.44-0.2-6.77-0.3-10.11c0.81,2.93-0.1,6.17,1.01,9.3c4.01-2.25-2.05-15.62-0.61-20.53c0.76-2.59-1.85-1.66-1.11-5.36
		c3.08-11.23,4.94-60.66,4.95-60.77c4.65-0.3,8.05-3.52,11.93-5.56c5.74-3.02,9.72-2.77,10.41-10.52c0.4-4.47-0.03-4.03,2.73-4.95
		C619.75,478.49,610.62,476.57,612.39,510.76z M646.76,401.46c0.4,8.5-23.6,18.68-26.39,16.68c0-5.76,1.82-14.05,3.44-15.57
		c-1.31-4.45,0.3-9,0.1-14.26c1.01,1.18,8.11,11.35,10.21,12.03c-0.55-3.29-10.8-11.03-9-23.15c2.02-0.81,3.44,0.71,5.56,1.01
		c-1.86-4.64-7.53-1.23-3.54-9.71c1.42-0.81,2.73,0.1,4.15,0.1c-1.07-2.84-5.32,0.28-1.62-6.07c2.33,0.3,3.64,2.02,5.26,3.34
		c-0.4-2.63-2.73-3.74-4.04-5.66c1.01-3.13,3.54-5.66,2.93-9.2c-10.46,14.74-8.8,13.6-16.18,66.63
		c-1.44,10.34,0.26,12.18-4.55,14.46c-16.71,7.91-14.35,7.98-17.29,7.18c-31.73-6.8-40.09-18.07-42.36-19.31
		c-2.4-1.31-2.04-2.82-1.01-25.48c1.26-27.68-2.87-28.73,0.51-30.64c-3.45-3.88-1.02-15.44-4.65-28.71
		c-2.63-9.6-0.1-18.81,0.61-28.01c3.74-3.94,6.98-7.99,10.11-11.93c10.29-1.71,23.26,25.51,28.92,29.62
		c2.63,1.91,3.34,5.26,5.06,7.79c-0.25,1.1-2.95,2.25-1.31,3.34c2.72,2.14,16.96,7.1,18.2,7.48c2.93,0.9,5.26-0.61,5.66-3.74
		c2.83-1.01,4.35-3.13,4.55-6.37c3.24-0.51,3.34-3.03,3.24-5.16c1.21-1.52,2.73-1.11,4.04-1.62c0.51-0.91,1.01-1.92,1.52-2.93
		c0.91,0.81,0,1.92,0.91,3.03c0.33-5.63,0-4.83,2.53-5.46c2.33,9-2.22,17.49-1.11,26.29c1.31-0.1,1.21-1.21,1.11-1.92
		c-0.92-6.88,3.63-15.02,0.81-25.48c-1.92-0.4-3.64-0.2-4.35,1.72c-4.35-2.22-2.22-6.17-3.13-9.3c3.34-2.93,4.55-7.99,9.4-9.5
		c1.52,2.83,1.72,6.07,4.15,8.49c-1.52-3.34-1.11-6.98-1.72-10.31c1.01-0.91,2.12-1.11,3.34-1.62
		C641.41,301.3,646.76,401.36,646.76,401.46z M644.44,300.45c-0.3-0.61-0.71-1.21,0.61-1.52
		C645.25,299.84,644.84,300.15,644.44,300.45z M649.29,307.22c-3.23,2.02-2.24-1.63-4.25-4.65c0.51-1.11,1.21-1.82,1.92-2.53
		C650.1,300.85,650.5,302.17,649.29,307.22z M660.92,311.07c0.51-1.31,1.62-1.92,2.83-2.43
		C663.04,309.75,662.23,310.76,660.92,311.07c-0.35,0.88-1.08,0.99-1.8,1.2c-0.26,0.26-0.2,0.23-0.32,0.11
		C659.71,312.02,659.77,311.07,660.92,311.07z M660.61,308.03c0.61-1.21,1.52-1.92,2.53-2.63
		C662.43,307.02,662.43,307.02,660.61,308.03z M656.17,313.59c0.81-0.81,1.72-1.01,2.53-1.21
		C658.19,313.29,657.58,314,656.17,313.59z M666.18,309.04c2.33,1.71-1.04,7.44-8.29,6.67
		C660.82,313.19,664.05,311.77,666.18,309.04z M660.51,305.3c1.42-2.73,3.84-4.95,3.74-8.59
		C666.78,299.34,666.07,300.75,660.51,305.3z M663.75,293.27c-4.72,10.38-5.52,14.54-10.72,13.25c-0.4-0.1-0.91,0.1-1.21,0.81
		c1.62,1.82,3.74,0.81,5.66,0.81c-2.12,1.21-4.35,1.42-6.77-0.61c1.01-1.92,1.72-3.64,0.91-5.56c5.56-2.02,6.98-6.07,3.34-11.12
		C658.19,291.15,661.02,291.86,663.75,293.27z M647.77,285.28c1.31,0.71,0.81,1.72,0.71,2.93
		C645.95,287.41,647.37,286.29,647.77,285.28z M644.64,288.72c6.02,2.74,14.83,5.57,7.89,11.53c-4.75-3.46-2.96-2.59-7.18-3.24
		c-0.51-0.61-0.1-1.52-1.42-1.92c-4.04,0.71-7.09,4.02-10.62,6.37c-3.76,2.5-6.07,6.17-9,9.71c-2.93-0.61-5.76-1.42-7.89-3.84
		c5.36-7.38,11.73-13.04,17.69-19.31c0.81-0.61,1.62,0.91,2.63-0.2c-0.4-2.12-2.22-4.35-0.3-6.98c2.02,1.52-0.81,4.45,1.52,5.86
		c1.31,0.61,3.03,0.3,4.15,1.42c3.74-2.12,3.94-5.26,0.61-7.38c-0.91,0.1-0.51,1.01-0.61,1.62c-5.78-1.76-3.14-4.07-3.34-4.85
		c-2.57-10.23,5.86-22.08,4.04-26.39c7.19-1.35-6.71,10.52-1.82,27.2C647.57,280.43,647.57,280.53,644.64,288.72z M638.77,284.07
		c1.72-0.4,3.64,0.81,4.95-1.01C642.01,286.4,640.9,286.5,638.77,284.07z M646.96,264.86c-2.83,26.23-6.88,4.26-2.93-3.64
		c0.1,3.94-1.31,7.48-0.3,11.83c1.72-6.37,1.31-12.44,2.73-18.2C646.96,258.19,647.32,261.53,646.96,264.86z M646.05,251.51
		c-2.02-2.12-1.01-3.34,0.51-4.75C648.78,248.68,647.47,250,646.05,251.51z M648.68,250.4c0.61-1.72,1.21-3.54,0.91-5.36
		C650.1,246.96,650.3,248.88,648.68,250.4z"/>
	<path d="M359.71,575.67c2.53,0,1.89,7.9,0.61-94.13C346.06-654.34,354.43,575.67,359.71,575.67z"/>
	<path d="M724.51,543.62c0.34,31.5-0.47,30.65,1.92,31.44C731.5,573.74,711.08-691.25,724.51,543.62z"/>
	<path d="M746.56,574.05c0.01-0.1-6.15-571.75-8.8-572.88C736.17,1.65,741.83,622.72,746.56,574.05z"/>
	<path d="M352.31,198.47c0.81,90.85,1.81,214.06,2.95,371.84c0.03,4.56,2.18,3.01,2.02,2.22
		C355.07,417.99,353.44,292.28,352.31,198.47z"/>
	<path d="M352.31,198.47C349.88-75.59,349.27-55.26,352.31,198.47L352.31,198.47z"/>
	<path d="M762.33,2.38c-5.52-4.54-3.45-1.54-3.13,162.58c0.83,429.43,0.17,400.93,2.12,401.91
		C764.99,564.63,758.63,6.54,762.33,2.38z"/>
	<path d="M731.79,4.3c-0.01,0.1,7.56,569.32,10.62,569.04C735.32,60.3,734.97-13.15,731.79,4.3z"/>
	<path d="M377.11,2.28c-4.3-0.69-3.16,0.87-3.13,17.8c0.89,582.52-0.37,546.96,2.83,546.69C378.73,564.99,374.66,8.38,377.11,2.28z"
		/>
	<path d="M729.37,83.07c-0.71,2.02-3.03,1.21-3.94,2.83C727.71,89.33,732.24,87.26,729.37,83.07z"/>
	<path d="M344.85,83.37c-1.31,1.11-3.03,1.11-4.45,2.43C342.18,88.64,346.72,88.45,344.85,83.37z"/>
	<path d="M352.64,558.78c-0.01,0.01-0.03,0.01-0.04,0.01c-0.36-18.04-1.18-50.46-2.25-90.9c1.69,0.47,2.99-1.11-0.08-3.12
		c-0.69-26.03-1.48-55.24-2.33-86c1.57-0.2,3.13-2.34,1.46-4.01c-0.48,0.44-1.02,0.81-1.54,1.19
		c-4.52-164.27-10.5-370.8-10.49-370.85c0.43-2.45-3.86-4.15-3.64,2.83c11.03,346,16.35,504.2,18.24,550.99
		c-1.02,0.09-2.11-0.35-3.27,0.56c0.45,2.1,2.28,2.56,3.38,1.93c0.77,18.59,0.89,16.31,0.57-0.52
		C352.97,560.4,353.06,559.68,352.64,558.78z"/>
	<path d="M343.74,189.33c2.4,2.59,6.34-0.94,2.73-2.63C345.66,187.61,344.14,187.71,343.74,189.33z"/>
	<path d="M734.42,374.87c-5.77,3.55-1.94,4.99-0.2,3.03C735.03,377.19,736.14,376.08,734.42,374.87z"/>
	<path d="M737.46,466.47c-1.31-0.71-2.02-2.43-3.94-2.22C732.59,466.37,735.83,469.95,737.46,466.47z"/>
	<path d="M731.59,186.8c-1.01,0.61-2.12,1.11-3.13,2.43C731.47,191.87,734.73,188.37,731.59,186.8z"/>
	<path d="M733.72,559.09c0.39,4.06,5.26,2.68,4.04-0.1C736.55,558.78,735.23,558.78,733.72,559.09z"/>
	<path d="M346.17,284.98c0.91,1.31,1.72,1.31,2.53,0.4C350.78,283.3,347.93,281.11,346.17,284.98z"/>
	<path d="M733.61,282.65c-1.31,0.51-2.12,1.11-2.33,2.43C732.65,287.34,735.64,284.68,733.61,282.65z"/>
	<path d="M244.65,326.13c1.01-2.12-0.3-5.06,2.53-6.07c3.22,9.32-2.42,15.42-0.61,27c0.91-10.01,4.15-19.92,1.01-30.23
		c-2.34-1.75,1.49,8.24-7.28-17.19c-1.39,0.46-1.74-1.77,5.56,20.12C243.54,321.48,244.15,323.81,244.65,326.13z"/>
	<path d="M198.75,408.74c-1.62-5.16-21.74-17.39-27.8-16.68C180.45,397.21,191.27,400.14,198.75,408.74z"/>
	<path d="M220.29,395.8c-0.4,10.72-0.61,21.33,1.52,31.85C220.99,417.03,221.3,406.41,220.29,395.8z"/>
	<path d="M205.63,315.21c-0.05-3.54,1.52-7.08,0.3-10.72c-2.53,7.28-1.92,14.56,0.2,21.74
		C205.63,322.49,205.68,318.85,205.63,315.21z"/>
	<path d="M222.71,316.63c2.63-4.45,2.73-11.93,0.2-16.38C218.07,300.94,224.72,297.55,222.71,316.63z"/>
	<path d="M193.09,417.13c0-2.33-0.3-3.84-1.82-5.56C191.47,413.79,191.98,415.21,193.09,417.13z"/>
	<path d="M217.56,358.18c-0.01,0.11-0.24,2.53,0,2.53C217.56,359.9,217.56,358.99,217.56,358.18z"/>
	<path d="M193.49,300.65c-0.59-1.46-1.59-0.37-1.31-0.1C192.58,301.16,192.99,300.96,193.49,300.65z"/>
	<path d="M161.24,247.57c-3.24-0.51-6.37-0.61-9.3-1.42c-1.52-1.11-0.51-4.15-3.24-4.55C146.77,247.97,155.45,251.87,161.24,247.57z
		"/>
	<path d="M158.1,139.08c1.62-0.91,4.15,0.81,4.75-2.33c-2.42-0.9-4.43,0.98-6.53,0.21c-0.1,0-4.02,2.91-1.66,7.47
		C155.98,142.42,157.09,140.6,158.1,139.08z"/>
	<path d="M161.95,247.77c2.43,2.93,6.27,2.63,10.72-0.3C168.92,246.36,165.69,247.87,161.95,247.77z"/>
	<path d="M166.09,137.26c4.15-0.3,7.99-1.01,11.83-2.02C172.36,133.52,167.41,134.43,166.09,137.26z"/>
	<path d="M157.19,144.44c-1.52,4.35-3.94,8.29-2.73,13.04C153.9,153.96,159.72,147.19,157.19,144.44z"/>
	<path d="M150.32,253.54c0.3,4.65,2.83,6.88,7.28,6.67C154.67,258.89,152.75,256.37,150.32,253.54z"/>
	<path d="M148.5,181.75c-1.72-3.13-0.81-6.88-2.83-9.91C145.06,175.58,146.07,178.82,148.5,181.75z"/>
	<path d="M192.18,145.45c0.3-3.24-2.22-5.97-6.98-7.58C188.44,139.38,189.55,143.02,192.18,145.45z"/>
	<path d="M166.19,207.94c-0.49-1.74,1.24-8.84-2.83-7.48C165.9,209.52,164.9,207.94,166.19,207.94z"/>
	<path d="M165.38,263.85c-1.67-1.67-2.52,2.69,5.36,4.95c9.87,2.84,15.71,4.52,17.44,2.79c2.62,2.95,6.04,1.67,9.25,1.76
		C194.21,271.09,169.85,269.26,165.38,263.85z"/>
	<path d="M207.75,275.78c-3.13-1.11-5.97-1.82-9.2-2.22C200.77,276.08,204.41,276.99,207.75,275.78z"/>
	<path d="M176.41,130.69c-3.34-0.2-6.57-0.51-9.81,0.51C169.93,132.41,173.17,131.6,176.41,130.69z"/>
	<path d="M241.32,274.97c-2.12,0.3-4.04,0.61-6.17,0.91C236.87,278.81,239.09,278.41,241.32,274.97z"/>
	<path d="M173.68,190.34c1.92-1.21,4.85-1.52,5.16-5.46C176,186.4,174.89,188.42,173.68,190.34z"/>
	<path d="M232.72,263.85c3.54,0.2,6.27,1.11,9.2,0.61C239.18,262.8,235.89,263.31,232.72,263.85z"/>
	<path d="M263.16,255.76c1.92-2.02,4.25-1.92,5.86-3.64C266.39,251.11,264.98,251.92,263.16,255.76z"/>
	<path d="M149,248.58c-0.2,2.83-0.1,3.03,3.54,3.84C151.23,251.31,151.13,248.99,149,248.58z"/>
	<path d="M166.7,214c-0.3-1.42,1.72-2.83,0.1-4.45C165.38,211.47,165.38,211.47,166.7,214z"/>
	<path d="M195.31,163.14c-0.47-1.41-2.47,2.78-2.73,4.25C194.3,166.58,194.91,164.86,195.31,163.14z"/>
	<path d="M167.1,235.54c1.42-0.1,2.93,1.11,4.55-1.21C169.63,234.22,168.22,234.02,167.1,235.54z"/>
	<path d="M198.75,253.84c-2.12-0.91-3.54-1.82-5.76-1.01C194.91,254.14,196.42,254.24,198.75,253.84z"/>
	<path d="M164.98,199.95c0.4-1.82,0.91-2.83-0.1-4.15C163.67,197.02,162.86,198.03,164.98,199.95z"/>
	<path d="M206.43,153.94c-1.63,0.53-3.25,0.42-4.45,1.72C203.3,154.75,205.83,156.77,206.43,153.94z"/>
	<path d="M268.82,258.09c-1.42,0.3-2.53,0.4-4.04,1.52C267.5,259.7,267.5,259.7,268.82,258.09z"/>
	<path d="M212.7,276.69c1.21,1.21,2.33,0.91,4.25,0.71C215.23,275.98,214.22,275.78,212.7,276.69z"/>
	<path d="M171.55,189.13c-1.31,0.51-1.72,1.31-1.82,2.93C170.95,191.15,171.96,190.75,171.55,189.13z"/>
	<path d="M222.21,263.14c1.01,0.4,1.72,0.71,3.03,0.51C224.43,262.33,223.52,262.43,222.21,263.14z"/>
	<path d="M159.92,262.33c1.11,0.51,1.82,0.71,3.44,0C161.85,262.03,161.14,261.22,159.92,262.33z"/>
	<path d="M273.97,269.51c-0.71,0.91-1.11,1.72-0.1,3.13C274.15,271.46,275.49,270.65,273.97,269.51z"/>
	<path d="M166.6,217.84c-0.51,0.71-0.51,1.21,0.4,1.52C167.51,218.65,167.61,218.15,166.6,217.84z"/>
	<path d="M259.82,255.66c0.71-0.1,1.31,0,1.62-1.01C260.43,254.34,259.92,254.55,259.82,255.66z"/>
	<path d="M144.05,166.89c-0.61,0.91-0.4,1.31,0.4,1.72C144.86,167.9,144.86,167.49,144.05,166.89z"/>
	<path d="M266.7,272.75c1.11,0.2,1.82,0.51,2.63-0.4C268.41,271.84,267.71,271.84,266.7,272.75z"/>
	<path d="M150.62,230.18c1.09-0.61,0.72-1.27-0.4-2.02C150.22,229.17,149.6,229.77,150.62,230.18z"/>
	<path d="M256.08,257.58c0.81,0.1,1.42-0.1,1.31-1.21C256.58,256.27,255.98,256.57,256.08,257.58z"/>
	<path d="M219.07,276.28c-0.6,0.6-0.1,1.08,0.4,0.91C220.06,276.61,219.58,276.11,219.07,276.28z"/>
	<path d="M236.56,200.76c-3.84,0.51-7.68-0.3-10.82,2.22c9.44,1.95,19.92-2.98,18.3-10.82C242.23,195.8,238.49,197.62,236.56,200.76
		z"/>
	<path d="M247.99,221.28c-0.61,7.99-2.22,15.87-1.42,23.96C251.09,218.16,249.49,221.53,247.99,221.28z"/>
	<path d="M244.25,206.72c2.12,4.25,3.03,8.7,4.75,12.94C249.51,213.8,247.28,207.53,244.25,206.72z"/>
	<path d="M187.22,221.08c-1.52,1.11-0.61,2.22,0.1,3.03c1.21,1.72,2.93,2.12,6.17,1.62c-1.11-0.91-2.53-1.01-3.54-1.92
		C188.94,223,188.74,221.48,187.22,221.08z"/>
	<path d="M243.34,188.52c2.12-1.82,2.53-4.04,1.31-7.18C243.64,184.07,243.24,186.2,243.34,188.52z"/>
	<path d="M247.48,196.11c1.21,3.03,4.25,2.12,6.47,3.13C252.24,197.32,250.01,196.41,247.48,196.11z"/>
	<path d="M203.4,215.92c0.81,2.83,1.52,2.93,4.65,1.01C206.43,217.34,205.12,215.52,203.4,215.92z"/>
	<path d="M242.33,172.55c-0.1,2.12-0.1,3.84,1.31,5.97C243.84,176.09,244.25,174.37,242.33,172.55z"/>
	<path d="M196.42,226.94c0.91,1.72,2.33,1.52,4.45,1.31C199.26,226.74,198.24,225.93,196.42,226.94z"/>
	<path d="M210.48,217.74c0.91,1.42,2.02,1.62,3.64,1.31C213.11,217.64,212.1,217.24,210.48,217.74z"/>
	<path d="M203.5,227.85c-0.1,0.2-0.2,0.3-0.3,0.51C204.69,230.22,205.67,228.22,203.5,227.85z"/>
	<path d="M237.68,72.85c2.53,0.81,3.44,4.95,6.88,3.44c1.11-0.4,0.6-1.63,1.52-1.92c1.01-0.32,1.72,1.21,2.83,0.3
		c-0.81-1.42-2.43-2.22-2.63-4.15C243.24,70.93,240.51,71.44,237.68,72.85z"/>
	<path d="M252.74,70.12c-4.25-4.35-13.95-4.15-17.49,0.2C241.11,68.51,246.88,68.91,252.74,70.12z"/>
	<path d="M223.83,133.12c-6.07,1.52-11.22-1.72-16.68-1.92C211.39,135.44,219.98,136.45,223.83,133.12z"/>
	<path d="M221.1,113.5c-4.86-7.87-4.95-14.64-9-12.13C215.23,105.51,215.94,111.07,221.1,113.5z"/>
	<path d="M223.83,134.83c2.43,0.61,3.94,2.53,5.97,3.94c0.61-2.43,3.64-1.01,4.55-3.34C230.7,136.65,227.57,133.82,223.83,134.83z"
		/>
	<path d="M237.07,152.33c-0.71-4.04-2.12-7.79-4.04-10.31C234.34,148.18,235.05,150,237.07,152.33z"/>
	<path d="M197.23,117.54c-1.21-1.11,0.4-3.24-1.52-4.35C194.5,115.32,195.21,116.63,197.23,117.54z"/>
	<path d="M206.23,110.16c-1.52,1.42-1.72,2.53-0.1,4.04C206.43,112.89,206.64,111.88,206.23,110.16z"/>
	<path d="M224.43,121.08c0.1-1.42,0.4-2.53-0.91-3.94C222.81,118.96,223.02,119.97,224.43,121.08z"/>
	<path d="M226.55,127.76c-0.3-1.11-0.1-2.53-1.52-3.03C224.94,125.94,224.94,127.25,226.55,127.76z"/>
	<path d="M229.59,133.52c0.84-0.84-0.14-1.91-0.71-1.01C228.57,133.01,228.98,133.22,229.59,133.52z"/>
	<path d="M222.71,131.9c-0.3-0.81-0.51-1.21-1.52-1.42C221.2,131.7,221.5,132.1,222.71,131.9z"/>
	<path d="M190.36,501.66c0.71-6.17,0.61-11.73,0.3-17.29C187.93,486.69,187.83,494.28,190.36,501.66z"/>
	<path d="M189.45,449.89c-4.04,3.44-0.4,6.98-0.1,10.41C190.16,453.84,193.76,450.91,189.45,449.89z"/>
	<path d="M190.26,439.88c-1.62,2.63-1.31,5.26-0.51,8.09C190.26,445.24,192.68,442.71,190.26,439.88z"/>
	<path d="M177.52,442.1c1.27,3.81,3.31-0.98,3.03-4.75C178.73,439.07,178.63,440.89,177.52,442.1z"/>
	<path d="M189.65,540.48c0.1-1.82,0.1-3.03-1.42-4.65C188.34,537.75,187.83,539.07,189.65,540.48z"/>
	<path d="M202.09,533.2c-0.3,1.62-0.71,2.63,0.51,3.94C203.2,535.83,203.3,534.82,202.09,533.2z"/>
	<path d="M188.84,513.49c-0.91,0.61-0.91,1.42-0.3,2.73C189.04,515.1,190.05,514.4,188.84,513.49z"/>
	<path d="M189.55,508.03c1.01-0.51,0.91-1.21,0.61-2.02C189.55,506.61,189.04,507.12,189.55,508.03z"/>
	<path d="M188.03,519.45c-0.71,0.51-1.62,0.91-0.51,1.92C188.34,520.87,188.64,520.26,188.03,519.45z"/>
	<path d="M189.25,461.41c-0.3,0.71-0.4,1.21,0.3,1.82C189.65,462.63,190.16,462.22,189.25,461.41z"/>
	<path d="M217.35,512.58c0.3-3.44-0.4-6.67-1.42-10.01C215.84,506,216.14,509.34,217.35,512.58z"/>
	<path d="M215.74,498.12c0.3-2.12-0.3-3.84-1.11-5.56C214.42,494.38,213.92,496.4,215.74,498.12z"/>
	<path d="M214.32,575.16c-1.48-1.27-3.78-1.48-6.37,1.11c-2.62-4.03-4.34-4.35-8.16-1.54c0.02-0.03,0.04-0.05,0.07-0.08
		c-1.42-2.93-2.02-3.24-6.07-2.93c-3.13,10.96,1.01,4.84,1.11,4.85c1.72,0.3,1.31,2.83,3.54,2.63c-1.08-2.06,0.22-3.16,1.31-4.43
		c-0.89,5.92,4.06,7.55,7.89,3.72c1.21,3.84,4.25,3.44,7.08,3.54C215.43,579.51,216.95,577.18,214.32,575.16z M194.4,574.35
		c1.72-1.11,1.72-1.11,3.34,0.2C196.73,575.57,195.72,574.96,194.4,574.35z M203.6,578.9c-3.07-0.24-2.7-4.56,0.1-4.35
		C206.66,574.77,206.45,579.12,203.6,578.9z M211.39,580.32c-2.8-1.15-1.62-4.35,0.4-4.35c1.42,0,2.22,0.81,2.33,2.22
		C213.41,578.4,211.69,579.61,211.39,580.32z"/>
	<path d="M270.33,240.09c1.62-0.91,1.92-2.12,1.82-3.94C270.64,237.16,269.53,238.07,270.33,240.09z"/>
	<path d="M263.86,226.14c0.1-1.43-0.79-1.88-1.62-2.43C261.94,225.02,262.25,225.93,263.86,226.14z"/>
	<path d="M265.08,227.35c-0.3,1.31,0.2,1.52,1.11,1.21C266.29,227.85,265.79,227.55,265.08,227.35z"/>
	<path d="M265.48,284.17c2.01,0-3.7-3.5-11.12-0.2c0,0.51,0,1.01,0.1,1.42C258.1,283.16,261.84,285.08,265.48,284.17z"/>
	<path d="M270.84,285.52c0.11,1.19,0.72,2,2.02,2.7c0.1-1.8-0.79-2.32-1.98-2.71c0.1-0.05-1.18-2.27-4.29-1.23
		C267.98,285.76,269.36,285.98,270.84,285.52z"/>
	<path d="M298.85,246.36c0.2-1.01-0.1-1.62-1.11-2.02C297.33,245.55,297.63,246.15,298.85,246.36z"/>
	<path d="M302.59,267.08c1.82,0.1,3.03,0.2,3.74-1.52C304.81,265.16,303.8,265.77,302.59,267.08z"/>
	<path d="M298.24,266.88c0.71,0.71,1.21,0.71,1.62-0.3C299.25,266.17,298.75,266.07,298.24,266.88z"/>
	<path d="M557.99,334.12c-2.43-5.97-1.01-12.13-2.43-18.1c3.3-5.41,8.58-11.63,4.55-11.63c-0.05,0.1-6.07,12.78-6.07,12.84
		C554.68,322.38,552.18,329.76,557.99,334.12z"/>
	<path d="M606.82,427.75c-0.61-10.62-1.11-21.23-1.31-31.85C604.9,406.61,604.6,417.23,606.82,427.75z"/>
	<path d="M577.91,416.22c-0.1-1.42,0-3.03-1.62-4.45C576.49,413.79,576.9,415.21,577.91,416.22z"/>
	<path d="M556.57,299.94c-0.91,0.4-1.52,0.81-0.71,1.72C556.88,301.66,557.08,301.16,556.57,299.94z"/>
	<path d="M581.04,404.59c-6.89-5.84-15.19-9.06-23.05-12.94c-0.61-0.3-1.52-0.61-2.12,0.91c33.66,14.96,24.03,14.07,26.35,14.07
		C583.28,409.11,585.4,408.29,581.04,404.59z"/>
	<path d="M634.02,400.35c0,0.71,0.2,1.42,1.21,1.42C635.03,401.05,634.73,400.55,634.02,400.35z"/>
	<path d="M572.25,259.5c-4.65-2.63-8.29-6.67-13.95-9c0.71-2.83,0.91-5.86,0-8.59c1.62-2.12,4.55-2.63,5.16-5.26
		c-0.51-1.21-1.21-1.52-2.33-1.11c-1.62,1.92-2.33,4.75-5.76,5.06c0.51,3.13,1.71,5.96,1.01,9.1c-0.46,2.03,5.5,6.13,6.88,6.47
		c1.11,4.85,2.02,9.3,5.06,12.94c-1.11-4.04-1.42-8.09-3.34-12.64C567.29,259,569.72,259.4,572.25,259.5z"/>
	<path d="M565.07,206.01c-1.05-2.63-2.07-2.39-3.13-1.42c3.03,4.35,0.81,9.81,2.63,14.76C564.76,214.91,566.89,210.56,565.07,206.01
		z"/>
	<path d="M542.01,144.64c-2.33,6.17-4.95,12.34-3.34,19.31C538.95,150.03,546.42,144.64,542.01,144.64z"/>
	<path d="M542.72,137.26c-3.54,0-5.06,3.44-2.93,6.88c1.21-1.82,2.22-3.54,3.24-5.06c1.62-0.61,3.84,0.61,4.65-1.62
		C546.12,135.38,544.65,137.26,542.72,137.26z"/>
	<path d="M562.64,134.83c-3.94,0.2-8.19-1.72-11.63,1.92C555.06,136.96,558.9,136.35,562.64,134.83z"/>
	<path d="M573.85,279.34c-0.42-3.6-2.63-6.12-4.54-9.42c-1.01,4.45,0.91,8.39,4.25,9.71c0-0.18-0.24,1.12,1.92,2.43
		C575.38,280.86,575.37,279.58,573.85,279.34z"/>
	<path d="M570.73,153.84c-1.42-6.47-4.15-9-8.9-7.99C566.58,146.46,567.49,151.31,570.73,153.84z"/>
	<path d="M533.22,181.04c-1.92-2.83,0-6.88-2.83-9.5C529.88,175.08,530.89,178.21,533.22,181.04z"/>
	<path d="M577.3,145.05c-0.51-4.15-3.74-5.76-7.08-7.38C573.36,139.38,574.57,143.02,577.3,145.05z"/>
	<path d="M561.53,130.69c-3.34-0.2-6.67-0.61-9.91,0.61C555.06,132.31,558.29,131.7,561.53,130.69z"/>
	<path d="M552.73,227.04c-1.11,3.03,0.81,4.95,1.52,7.18C553.44,232,555.36,229.27,552.73,227.04z"/>
	<path d="M549.5,190.65c1.11,1.92,2.53,3.44,5.26,4.35C553.24,192.47,551.42,191.56,549.5,190.65z"/>
	<path d="M580.84,265.87c-0.81-2.02-2.12-3.44-4.85-3.74C577.6,263.95,578.72,265.57,580.84,265.87z"/>
	<path d="M551.42,221.79c0,1.42-0.4,2.93,1.92,3.84C553.94,223.51,553.84,222.19,551.42,221.79z"/>
	<path d="M568.91,198.84c-1.42,0.81-2.12,1.92-2.73,3.44C568.81,201.16,568.81,201.16,568.91,198.84z"/>
	<path d="M597.62,318.04c-1.11,1.11-2.22,2.33-3.74,3.94C596.71,321.38,597.62,320.06,597.62,318.04z"/>
	<path d="M620.68,324.72c-1.82-0.61-2.93-1.31-4.65-0.81C617.44,325.02,618.65,325.63,620.68,324.72z"/>
	<path d="M563.85,224.11c0.61-1.42,1.11-2.43,0-3.54C562.34,221.69,562.84,222.7,563.85,224.11z"/>
	<path d="M590.75,154.45c-1.31,0.2-2.83,0-3.84,1.11C588.12,154.95,589.84,156.27,590.75,154.45z"/>
	<path d="M577.71,286.09c-0.46,1.37,0.5,2.61,1.21,2.43C579.22,287.41,579.02,286.6,577.71,286.09z"/>
	<path d="M541.61,176.19c-0.51,0.51-1.01,0.91-0.2,1.62C542.01,177.3,542.42,176.79,541.61,176.19z"/>
	<path d="M559.1,201.26c0.83,1.65,1.9,0.55,0-1.11C558.7,200.45,558.8,200.96,559.1,201.26z"/>
	<path d="M573.76,162.34c0,0.61,0,1.01,0.81,1.01C574.77,162.64,574.87,162.13,573.76,162.34z"/>
	<path d="M620.07,317.84c0.42-0.83-0.8-1.26-1.42-0.91C618.86,317.74,619.36,317.84,620.07,317.84z"/>
	<path d="M528.87,166.99c-0.3,0.71-0.4,1.31,0.71,1.62C529.88,167.69,529.78,167.19,528.87,166.99z"/>
	<path d="M611.58,320.37c-0.4-0.61-0.71-0.2-0.91,0.51C611.37,320.87,611.78,320.67,611.58,320.37z"/>
	<path d="M572.85,158.09c0.2-0.3,0.1-0.61-0.4-1.11C572.35,157.58,572.25,158.09,572.85,158.09z"/>
	<path d="M629.27,206.72c7.74,15.48,1.21,18.49,1.92,38.83C633.4,244.22,638.14,205.03,629.27,206.72z"/>
	<path d="M628.77,191.35c-1.52,4.45-5.26,6.27-7.18,9.4c-3.84,0.51-7.79-0.3-11.73,2.12C618.48,205.59,630.96,200.85,628.77,191.35z
		"/>
	<path d="M587.21,255.36c6.37,1.92,12.74,1.42,19.11-0.1C600.05,255.36,593.68,255.56,587.21,255.36z"/>
	<path d="M638.98,199.24c-1.72-1.92-3.94-2.93-6.67-3.13C633.21,198.13,633.31,198.23,638.98,199.24z"/>
	<path d="M632.2,254.04c2.22-2.22,2.22-3.24-0.1-5.46C630.18,250.5,632,252.12,632.2,254.04z"/>
	<path d="M629.37,181.45c-0.61,2.63-1.11,4.75-1.52,6.77C630.48,186.6,630.79,185.39,629.37,181.45z"/>
	<path d="M622.29,243.93c-3.54,0.4-6.98,0.71-10.52,1.01C615.32,245.45,618.86,245.45,622.29,243.93z"/>
	<path d="M588.42,215.92c0.61,2.63,1.01,2.73,4.65,1.21C591.46,217.24,590.14,215.72,588.42,215.92z"/>
	<path d="M627.55,172.75c-0.3,2.02-0.61,3.64,1.01,5.36C628.77,176.09,629.27,174.47,627.55,172.75z"/>
	<path d="M599.04,219.06c-0.91-1.42-1.82-1.72-3.34-1.42C596.92,219.06,596.92,219.06,599.04,219.06z"/>
	<path d="M606.42,255.25c1.72,0,3.54,0,5.36-0.1C611.78,254.57,612.32,254.93,606.42,255.25z"/>
	<path d="M590.85,261.12c0.81,0.1,1.62,0.3,2.53-0.2C592.47,260.71,591.66,260.31,590.85,261.12z"/>
	<path d="M588.12,228.06c0.3,0.81,0.91,1.11,1.92,0.91C589.53,228.46,589.23,227.45,588.12,228.06z"/>
	<path d="M630.89,70.43c-11.63,2.49-7.09,1.33-8.49,2.73c2.73,0.51,3.74,4.45,7.48,2.93c0.71-0.4,0.3-1.52,0.91-1.72
		c1.21-0.51,1.82,1.11,3.44,0.1C632.51,73.56,632.1,71.84,630.89,70.43z"/>
	<path d="M637.76,70.12c-4.04-4.35-14.26-4.25-17.9,0.4C626.14,68.61,631.9,68.71,637.76,70.12z"/>
	<path d="M608.44,134.63c-0.1-0.4,0.2-1.01-0.51-1.52c-5.46,1.72-10.52-2.22-16.08-1.82C598.83,137.49,605.82,134.26,608.44,134.63z
		"/>
	<path d="M606.42,114.01c-4.65-8.21-6.46-16.07-9.2-12.34C600.25,105.92,601.16,111.48,606.42,114.01z"/>
	<path d="M608.44,134.73c1.82,1.52,4.55,1.72,6.17,4.25c0.91-2.33,3.54-1.42,4.85-3.24c-1.72-0.81-3.24-0.61-4.65,0.1
		C612.79,134.83,610.97,132.91,608.44,134.73z"/>
	<path d="M621.69,151.92c0.1-3.94-2.33-6.88-3.64-10.21C618.76,145.25,619.56,148.89,621.69,151.92z"/>
	<path d="M582.05,117.54c-0.81-1.21,0.51-3.13-1.42-4.35C579.73,115.12,580.03,116.63,582.05,117.54z"/>
	<path d="M590.95,113.9c0-1.21,1.21-2.33-0.1-3.74C589.94,111.58,589.43,112.79,590.95,113.9z"/>
	<path d="M608.64,117.24c-1.31,1.82-0.1,2.83,0.71,3.94C609.55,119.87,609.76,118.66,608.64,117.24z"/>
	<path d="M611.58,127.86c-0.3-1.11-0.1-2.53-1.82-3.84C609.76,126.04,610.06,127.25,611.58,127.86z"/>
	<path d="M607.53,132c-0.2-1.01-0.51-1.62-1.52-1.21C606.12,131.6,606.42,132.1,607.53,132z"/>
	<path d="M590.14,103.59c0-1.79,0.1-1.52-0.3-1.52C590.15,103.63,589.88,103.59,590.14,103.59z"/>
	<path d="M614.81,133.72c0.1-0.91,0.3-1.42-0.71-1.52C613.7,132.71,613.7,133.12,614.81,133.72z"/>
	<path d="M574.98,500.95c1.21-4.04,1.31-15.27-0.1-17.39C572.45,489.73,573.86,495.39,574.98,500.95z"/>
	<path d="M575.18,449.69c-3.44,2.33-3.44,2.63-0.61,10.62C573.66,456.86,578.11,453.53,575.18,449.69z"/>
	<path d="M574.77,439.68c-1.31,2.73-0.51,5.36-0.3,8.09C576.9,443.11,577,441.19,574.77,439.68z"/>
	<path d="M563.45,443.42c2.02-2.02,2.12-2.43,1.92-5.76C562.84,440.89,562.64,441.29,563.45,443.42z"/>
	<path d="M574.37,539.98c0.2-1.31,0.2-2.43-0.81-3.54C572.75,537.75,573.05,538.97,574.37,539.98z"/>
	<path d="M573.96,513.59c-1.37,0-1.36,1.9-0.4,2.33C574.17,515.2,574.77,514.5,573.96,513.59z"/>
	<path d="M587.21,533.61c-0.51,1.21-0.51,2.12,0.2,3.74C588.22,535.63,588.22,534.72,587.21,533.61z"/>
	<path d="M572.75,519.45c-1.54,1.54,0.12,3.2,0.61,0.3C573.16,519.65,572.95,519.55,572.75,519.45z"/>
	<path d="M574.77,507.92c0.4-0.61,1.01-1.11,0.1-2.02C574.57,506.61,573.76,507.12,574.77,507.92z"/>
	<path d="M574.47,461.41c-0.61,0.61-0.91,1.11,0,1.72C575.08,462.63,575.08,462.12,574.47,461.41z"/>
	<path d="M600.15,502.57c0.81,3.24,0.51,6.67,1.72,9.91c0.3,0,0.61-0.1,0.91-0.1C601.4,500.96,601.49,502.3,600.15,502.57z"/>
	<path d="M599.54,492.56c-0.71,2.12-0.2,4.04,1.21,5.66C600.45,496.3,600.96,494.17,599.54,492.56z"/>
	<path d="M598.33,575.16c-2.66-1.66-4.24-1.02-6.37,1.11c-2.63-4.04-4.35-4.35-8.19-1.52c-0.92,6.12,4.17,7.46,7.89,3.74
		c1.31,3.94,4.25,3.44,7.08,3.54C600.15,577.49,600.05,576.38,598.33,575.16z M589.74,577.08c-0.21,2.75-4.67,2.34-4.25-0.61
		C585.72,573.7,590.16,574.15,589.74,577.08z M595.7,580.22c-5.76-1.28,1.8-8.04,2.43-1.42C596.51,578.09,595.4,578.3,595.7,580.22z
		"/>
	<path d="M583.77,574.66c-1.31-2.93-1.92-3.24-6.17-2.93c-2.69,11.29,0.57,4.81,0.91,4.85c2.03,0.28,1.62,2.83,3.84,2.63
		C581.24,577.08,582.66,575.97,583.77,574.66z M578.51,574.45c1.21-2.12,2.12-1.01,3.34-0.3
		C580.64,575.77,579.73,574.76,578.51,574.45z"/>
<path fill="#e6e6e6" d="m206.8 163.6c0-5.1 4.1-9.2 9.3-9.2s9.2 4.2 9.2 9.2-4.1 9.2-9.3 9.2-9.2-4.1-9.2-9.2zm17.3-.1c0-4.5-3.5-8.2-8.2-8.2s-8.2 3.7-8.2 8.3c0 4.5 3.5 8.2 8.2 8.2s8.2-3.7 8.2-8.3zm-13 0c0-2.8 2.1-5.1 5.1-5.1 1.9 0 2.9.6 3.9 1.5l-1.4 1.7c-.8-.7-1.5-1.1-2.5-1.1-1.7 0-2.8 1.4-2.8 3.1s1.1 3 2.8 3c1.1 0 1.7-.5 2.5-1.1l1.4 1.4c-1.1 1.1-2.1 1.7-4 1.7-2.9 0-5-2.3-5-5.1z"/><path fill="#e6e6e6" d="m226.6 154.7h3.4l4.2 13.2 4.4-13.3h2.6l4.4 13.3 4.2-13.2h3.3l-6.2 18h-2.7l-4.4-12.8-4.4 12.8h-2.7z"/><path fill="#e6e6e6" d="m252.8 165.8c0-3.9 3.1-7 7.2-7 4.2 0 7.2 3.2 7.2 7s-3.1 7-7.3 7c-4 0-7.1-3.1-7.1-7zm11.3 0c0-2.3-1.7-4.3-4.2-4.3s-4.1 2-4.1 4.3 1.7 4.3 4.1 4.3c2.7.1 4.2-1.9 4.2-4.3z"/><path fill="#e6e6e6" d="m269.5 159.1h3.1v3c.8-2 2.4-3.4 4.8-3.3v3.2h-.2c-2.7 0-4.6 1.7-4.6 5.4v5.1h-3.1z"/><path fill="#e6e6e6" d="m279.1 153.9h3.1v11.1l5.6-6h3.8l-5.4 5.5 5.5 8h-3.5l-4.1-5.8-1.9 2v3.9h-3.1z"/><path fill="#e6e6e6" d="m291.7 165.8c0-3.9 3.1-7 7.2-7 4.2 0 7.2 3.2 7.2 7s-3.1 7-7.3 7c-4 0-7.1-3.1-7.1-7zm11.3 0c0-2.3-1.7-4.3-4.2-4.3s-4.1 2-4.1 4.3 1.7 4.3 4.1 4.3c2.6.1 4.2-1.9 4.2-4.3z"/><path fill="#e6e6e6" d="m308.2 167.6v-8.6h3.1v7.6c0 2.1 1.1 3.3 2.9 3.3s3-1.3 3-3.3v-7.6h3.1v13.4h-3.1v-2.1c-.8 1.3-2.1 2.3-4.2 2.3-3.1.2-4.8-1.8-4.8-5z"/><path fill="#e6e6e6" d="m323.9 168.8v-7.1h-1.7v-2.6h1.7v-3.7h3.1v3.7h3.6v2.6h-3.6v6.6c0 1.2.6 1.7 1.7 1.7.7 0 1.3-.2 1.9-.5v2.5c-.8.5-1.7.7-2.8.7-2.3 0-3.9-.9-3.9-3.9z"/><path fill="#e6e6e6" d="m333.2 154.7h3.2v15h9.4v2.9h-12.5v-17.9z"/><path fill="#e6e6e6" d="m356 172.5v-1.7c-.9 1.1-2.3 2-4.4 2-2.6 0-4.8-1.4-4.8-4.2 0-3 2.3-4.4 5.4-4.4 1.7 0 2.6.2 3.7.5v-.2c0-1.9-1.2-2.9-3.3-2.9-1.5 0-2.6.3-3.9.8l-.8-2.5c1.5-.7 2.9-1.1 5.1-1.1 4 0 5.9 2.1 5.9 5.7v8zm.1-5.6c-.8-.3-1.9-.5-3.1-.5-2 0-3.1.8-3.1 2.1s1.1 2 2.6 2c2 0 3.5-1.1 3.5-2.9z"/><path fill="#e6e6e6" d="m364.9 170.5v2.1h-3.1v-18.7h3.1v7.4c1-1.4 2.4-2.5 4.5-2.5 3.2 0 6.3 2.5 6.3 7s-3.1 7-6.3 7c-2.1 0-3.5-1.1-4.5-2.3zm7.7-4.7c0-2.6-1.7-4.3-3.9-4.3s-3.9 1.7-3.9 4.4c0 2.6 1.8 4.3 3.9 4.3s3.9-1.7 3.9-4.4z"/><path fill="#e6e6e6" d="m376.9 170.8 1.4-2.1c1.4 1.1 3 1.7 4.4 1.7s2.1-.5 2.1-1.5-1.3-1.4-2.8-1.8c-.1 0-.2-.1-.2-.1-2-.6-4.2-1.4-4.2-4s2.1-4.1 4.8-4.1c1.7 0 3.5.6 5 1.5l-1.2 2.2c-1.3-.8-2.6-1.3-3.8-1.3s-1.9.5-1.9 1.4 1.3 1.4 2.8 1.8c.1 0 .2.1.2.1 2 .6 4.2 1.5 4.2 4 0 2.9-2.2 4.2-5 4.2-1.9 0-4-.7-5.8-2z"/><path fill="#e6e6e6" d="m505.6 163.6c0-5.1 4.1-9.2 9.3-9.2s9.2 4.2 9.2 9.2-4.1 9.2-9.3 9.2-9.2-4.1-9.2-9.2zm17.4-.1c0-4.5-3.5-8.2-8.2-8.2s-8.2 3.7-8.2 8.3c0 4.5 3.5 8.2 8.2 8.2s8.2-3.7 8.2-8.3zm-13.1 0c0-2.8 2.1-5.1 5.1-5.1 1.9 0 2.9.6 3.9 1.5l-1.4 1.7c-.8-.7-1.5-1.1-2.5-1.1-1.7 0-2.8 1.4-2.8 3.1s1.1 3 2.8 3c1.1 0 1.7-.5 2.5-1.1l1.4 1.4c-1.1 1.1-2.1 1.7-4 1.7-2.9 0-5-2.3-5-5.1z"/><path fill="#e6e6e6" d="m525.4 154.7h3.4l4.2 13.2 4.4-13.3h2.6l4.4 13.3 4.2-13.2h3.3l-6.2 18h-2.7l-4.4-12.8-4.4 12.8h-2.7z"/><path fill="#e6e6e6" d="m551.7 165.8c0-3.9 3.1-7 7.2-7 4.2 0 7.2 3.2 7.2 7s-3.1 7-7.3 7c-4.1 0-7.1-3.1-7.1-7zm11.2 0c0-2.3-1.7-4.3-4.2-4.3s-4.1 2-4.1 4.3 1.7 4.3 4.1 4.3c2.7.1 4.2-1.9 4.2-4.3z"/><path fill="#e6e6e6" d="m568.3 159.1h3.1v3c.8-2 2.4-3.4 4.8-3.3v3.2h-.2c-2.7 0-4.6 1.7-4.6 5.4v5.1h-3.1z"/><path fill="#e6e6e6" d="m577.9 153.9h3.1v11.1l5.6-6h3.8l-5.4 5.5 5.5 8h-3.5l-4.1-5.8-1.9 2v3.9h-3.1z"/><path fill="#e6e6e6" d="m590.6 165.8c0-3.9 3.1-7 7.2-7 4.2 0 7.2 3.2 7.2 7s-3.1 7-7.3 7c-4.1 0-7.1-3.1-7.1-7zm11.2 0c0-2.3-1.7-4.3-4.2-4.3s-4.1 2-4.1 4.3 1.7 4.3 4.1 4.3c2.6.1 4.2-1.9 4.2-4.3z"/><path fill="#e6e6e6" d="m607 167.6v-8.6h3.1v7.6c0 2.1 1.1 3.3 2.9 3.3s3-1.3 3-3.3v-7.6h3.1v13.4h-3.1v-2.1c-.8 1.3-2.1 2.3-4.2 2.3-3 .2-4.8-1.8-4.8-5z"/><path fill="#e6e6e6" d="m622.7 168.8v-7.1h-1.7v-2.6h1.7v-3.7h3.1v3.7h3.6v2.6h-3.6v6.6c0 1.2.6 1.7 1.7 1.7.7 0 1.3-.2 1.9-.5v2.5c-.8.5-1.7.7-2.8.7-2.3 0-3.9-.9-3.9-3.9z"/><path fill="#e6e6e6" d="m632 154.7h3.2v15h9.4v2.9h-12.6z"/><path fill="#e6e6e6" d="m654.8 172.5v-1.7c-.9 1.1-2.3 2-4.4 2-2.6 0-4.8-1.4-4.8-4.2 0-3 2.3-4.4 5.4-4.4 1.7 0 2.6.2 3.7.5v-.2c0-1.9-1.2-2.9-3.3-2.9-1.5 0-2.6.3-3.9.8l-.8-2.5c1.5-.7 2.9-1.1 5.1-1.1 4 0 5.9 2.1 5.9 5.7v8zm.1-5.6c-.8-.3-1.9-.5-3.1-.5-2 0-3.1.8-3.1 2.1s1.1 2 2.6 2c2 0 3.5-1.1 3.5-2.9z"/><path fill="#e6e6e6" d="m663.7 170.5v2.1h-3.1v-18.7h3.1v7.4c1-1.4 2.4-2.5 4.5-2.5 3.2 0 6.3 2.5 6.3 7s-3.1 7-6.3 7c-2.1 0-3.5-1.1-4.5-2.3zm7.8-4.7c0-2.6-1.7-4.3-3.9-4.3-2.1 0-3.9 1.7-3.9 4.4 0 2.6 1.8 4.3 3.9 4.3s3.9-1.7 3.9-4.4z"/><path fill="#e6e6e6" d="m675.8 170.8 1.4-2.1c1.4 1.1 3 1.7 4.4 1.7s2.1-.5 2.1-1.5-1.3-1.4-2.8-1.8c-.1 0-.2-.1-.2-.1-2-.6-4.2-1.4-4.2-4s2.1-4.1 4.8-4.1c1.7 0 3.5.6 5 1.5l-1.2 2.2c-1.3-.8-2.6-1.3-3.8-1.3s-1.9.5-1.9 1.4 1.3 1.4 2.8 1.8c.1 0 .2.1.2.1 2 .6 4.2 1.5 4.2 4 0 2.9-2.2 4.2-5 4.2-2 0-4.1-.7-5.8-2z"/><path fill="#e6e6e6" d="m61 298.6c0-5.1 4.1-9.2 9.3-9.2s9.2 4.2 9.2 9.2-4.1 9.2-9.3 9.2c-5.1 0-9.2-4.2-9.2-9.2zm17.4-.1c0-4.5-3.5-8.2-8.2-8.2s-8.2 3.7-8.2 8.3c0 4.5 3.5 8.2 8.2 8.2s8.2-3.7 8.2-8.3zm-13.1-.1c0-2.8 2.1-5.1 5.1-5.1 1.9 0 2.9.6 3.9 1.5l-1.4 1.7c-.8-.7-1.5-1.1-2.5-1.1-1.7 0-2.8 1.4-2.8 3.1s1.1 3 2.8 3c1.1 0 1.7-.5 2.5-1.1l1.4 1.4c-1.1 1.1-2.1 1.7-4 1.7-2.8.1-5-2.2-5-5.1z"/><path fill="#e6e6e6" d="m80.9 289.7h3.4l4.2 13.2 4.4-13.3h2.6l4.4 13.3 4.2-13.2h3.3l-6.2 18h-2.7l-4.4-12.8-4.4 12.8h-2.7z"/><path fill="#e6e6e6" d="m107.1 300.8c0-3.9 3.1-7 7.2-7s7.2 3.2 7.2 7-3.1 7-7.3 7c-4 0-7.1-3.1-7.1-7zm11.3 0c0-2.3-1.7-4.3-4.2-4.3s-4.1 2-4.1 4.3 1.7 4.3 4.1 4.3c2.6.1 4.2-1.9 4.2-4.3z"/><path fill="#e6e6e6" d="m123.7 294h3.1v3c.8-2 2.4-3.4 4.8-3.3v3.2h-.2c-2.7 0-4.6 1.7-4.6 5.4v5.1h-3.1z"/><path fill="#e6e6e6" d="m133.4 288.9h3.1v11.1l5.6-6h3.8l-5.4 5.5 5.5 8h-3.5l-4.1-5.8-1.9 1.9v3.9h-3.1z"/><path fill="#e6e6e6" d="m146 300.8c0-3.9 3.1-7 7.2-7s7.2 3.2 7.2 7-3.1 7-7.3 7c-4.1 0-7.1-3.1-7.1-7zm11.2 0c0-2.3-1.7-4.3-4.2-4.3s-4.1 2-4.1 4.3 1.7 4.3 4.1 4.3c2.6.1 4.2-1.9 4.2-4.3z"/><path fill="#e6e6e6" d="m162.4 302.6v-8.6h3.1v7.6c0 2.1 1.1 3.3 2.9 3.3s3-1.3 3-3.3v-7.6h3.1v13.4h-3.1v-2.1c-.8 1.3-2.1 2.3-4.2 2.3-3 .2-4.8-1.8-4.8-5z"/><path fill="#e6e6e6" d="m178.1 303.8v-7.1h-1.7v-2.7h1.7v-3.7h3.1v3.7h3.6v2.6h-3.6v6.6c0 1.2.6 1.7 1.7 1.7.7 0 1.3-.2 1.9-.5v2.5c-.8.5-1.7.7-2.8.7-2.3.1-3.9-.9-3.9-3.8z"/><path fill="#e6e6e6" d="m187.4 289.7h3.2v15h9.4v2.9h-12.5v-17.9z"/><path fill="#e6e6e6" d="m210.2 307.5v-1.7c-.9 1.1-2.3 2-4.4 2-2.6 0-4.8-1.4-4.8-4.2 0-3 2.3-4.4 5.4-4.4 1.7 0 2.6.2 3.7.5v-.2c0-1.9-1.2-2.9-3.3-2.9-1.5 0-2.6.3-3.9.8l-.8-2.5c1.5-.7 2.9-1.1 5.1-1.1 4 0 5.9 2.1 5.9 5.7v8zm.1-5.6c-.8-.3-1.9-.5-3.1-.5-2 0-3.1.8-3.1 2.1s1.1 2 2.6 2c2 0 3.5-1.1 3.5-2.9z"/><path fill="#e6e6e6" d="m219.2 305.5v2.1h-3.1v-18.7h3.1v7.4c1-1.4 2.4-2.5 4.5-2.5 3.2 0 6.3 2.5 6.3 7s-3.1 7-6.3 7c-2.2 0-3.6-1.1-4.5-2.3zm7.7-4.7c0-2.6-1.7-4.3-3.9-4.3s-3.9 1.7-3.9 4.4c0 2.6 1.8 4.3 3.9 4.3s3.9-1.7 3.9-4.4z"/><path fill="#e6e6e6" d="m231.2 305.8 1.4-2.1c1.4 1.1 3 1.7 4.4 1.7s2.1-.5 2.1-1.5-1.3-1.4-2.8-1.8c-.1 0-.2-.1-.2-.1-2-.6-4.2-1.4-4.2-4s2.1-4.1 4.8-4.1c1.7 0 3.5.6 5 1.5l-1.2 2.2c-1.3-.8-2.6-1.3-3.8-1.3s-1.9.5-1.9 1.4 1.3 1.4 2.8 1.8c.1 0 .2.1.2.1 2 .6 4.2 1.5 4.2 4 0 2.9-2.2 4.2-5 4.2-2 0-4.1-.7-5.8-2z"/><path fill="#e6e6e6" d="m360.6 298.6c0-5.1 4.1-9.2 9.3-9.2s9.2 4.2 9.2 9.2-4.1 9.2-9.3 9.2-9.2-4.2-9.2-9.2zm17.4-.1c0-4.5-3.5-8.2-8.2-8.2s-8.2 3.7-8.2 8.3c0 4.5 3.5 8.2 8.2 8.2s8.2-3.7 8.2-8.3zm-13.1-.1c0-2.8 2.1-5.1 5.1-5.1 1.9 0 2.9.6 3.9 1.5l-1.4 1.7c-.8-.7-1.5-1.1-2.5-1.1-1.7 0-2.8 1.4-2.8 3.1s1.1 3 2.8 3c1.1 0 1.7-.5 2.5-1.1l1.4 1.4c-1.1 1.1-2.1 1.7-4 1.7-2.8.1-5-2.2-5-5.1z"/><path fill="#e6e6e6" d="m380.5 289.7h3.4l4.2 13.2 4.4-13.3h2.6l4.4 13.3 4.2-13.2h3.3l-6.2 18h-2.7l-4.4-12.8-4.4 12.8h-2.7z"/><path fill="#e6e6e6" d="m406.7 300.8c0-3.9 3.1-7 7.2-7 4.2 0 7.2 3.2 7.2 7s-3.1 7-7.3 7c-4.1 0-7.1-3.1-7.1-7zm11.3 0c0-2.3-1.7-4.3-4.2-4.3s-4.1 2-4.1 4.3 1.7 4.3 4.1 4.3c2.7.1 4.2-1.9 4.2-4.3z"/><path fill="#e6e6e6" d="m423.3 294h3.1v3c.8-2 2.4-3.4 4.8-3.3v3.2h-.2c-2.7 0-4.6 1.7-4.6 5.4v5.1h-3.1z"/><path fill="#e6e6e6" d="m433 288.9h3.1v11.1l5.6-6h3.8l-5.4 5.5 5.5 8h-3.5l-4.1-5.8-1.9 2v3.9h-3.1z"/><path fill="#e6e6e6" d="m445.6 300.8c0-3.9 3.1-7 7.2-7 4.2 0 7.2 3.2 7.2 7s-3.1 7-7.3 7c-4.1 0-7.1-3.1-7.1-7zm11.3 0c0-2.3-1.7-4.3-4.2-4.3s-4.1 2-4.1 4.3 1.7 4.3 4.1 4.3c2.6.1 4.2-1.9 4.2-4.3z"/><path fill="#e6e6e6" d="m462.1 302.6v-8.6h3.1v7.6c0 2.1 1.1 3.3 2.9 3.3s3-1.3 3-3.3v-7.6h3.1v13.4h-3.1v-2.1c-.8 1.3-2.1 2.3-4.2 2.3-3.1.2-4.8-1.8-4.8-5z"/><path fill="#e6e6e6" d="m477.8 303.8v-7.1h-1.8v-2.7h1.7v-3.7h3.1v3.7h3.6v2.6h-3.6v6.6c0 1.2.6 1.7 1.7 1.7.7 0 1.3-.2 1.9-.5v2.5c-.8.5-1.7.7-2.8.7-2.2.1-3.8-.9-3.8-3.8z"/><path fill="#e6e6e6" d="m487.1 289.7h3.2v15h9.4v2.9h-12.5v-17.9z"/><path fill="#e6e6e6" d="m509.9 307.5v-1.7c-.9 1.1-2.3 2-4.4 2-2.6 0-4.8-1.4-4.8-4.2 0-3 2.3-4.4 5.4-4.4 1.7 0 2.6.2 3.7.5v-.2c0-1.9-1.2-2.9-3.3-2.9-1.5 0-2.6.3-3.9.8l-.8-2.5c1.5-.7 2.9-1.1 5.1-1.1 4 0 5.9 2.1 5.9 5.7v8zm.1-5.6c-.8-.3-1.9-.5-3.1-.5-2 0-3.1.8-3.1 2.1s1.1 2 2.6 2c2 0 3.5-1.1 3.5-2.9z"/><path fill="#e6e6e6" d="m518.8 305.5v2.1h-3.1v-18.7h3.1v7.4c1-1.4 2.4-2.5 4.5-2.5 3.2 0 6.3 2.5 6.3 7s-3.1 7-6.3 7c-2.2 0-3.5-1.1-4.5-2.3zm7.7-4.7c0-2.6-1.7-4.3-3.9-4.3s-3.9 1.7-3.9 4.4c0 2.6 1.8 4.3 3.9 4.3s3.9-1.7 3.9-4.4z"/><path fill="#e6e6e6" d="m530.8 305.8 1.4-2.1c1.4 1.1 3 1.7 4.4 1.7s2.1-.5 2.1-1.5-1.3-1.4-2.8-1.8c-.1 0-.2-.1-.2-.1-2-.6-4.2-1.4-4.2-4s2.1-4.1 4.8-4.1c1.7 0 3.5.6 5 1.5l-1.2 2.2c-1.3-.8-2.6-1.3-3.8-1.3s-1.9.5-1.9 1.4 1.3 1.4 2.8 1.8c.1 0 .2.1.2.1 2 .6 4.2 1.5 4.2 4 0 2.9-2.2 4.2-5 4.2-1.9 0-4.1-.7-5.8-2z"/><path fill="#e6e6e6" d="m659.5 298.6c0-5.1 4.1-9.2 9.3-9.2s9.2 4.2 9.2 9.2-4.1 9.2-9.3 9.2-9.2-4.2-9.2-9.2zm17.3-.1c0-4.5-3.5-8.2-8.2-8.2s-8.2 3.7-8.2 8.3c0 4.5 3.5 8.2 8.2 8.2 4.8 0 8.2-3.7 8.2-8.3zm-13-.1c0-2.8 2.1-5.1 5.1-5.1 1.9 0 2.9.6 3.9 1.5l-1.4 1.7c-.8-.7-1.5-1.1-2.5-1.1-1.7 0-2.8 1.4-2.8 3.1s1.1 3 2.8 3c1.1 0 1.7-.5 2.5-1.1l1.4 1.4c-1.1 1.1-2.1 1.7-4 1.7-2.9.1-5-2.2-5-5.1z"/><path fill="#e6e6e6" d="m679.3 289.7h3.4l4.2 13.2 4.4-13.3h2.6l4.4 13.3 4.2-13.2h3.3l-6.2 18h-2.6l-4.4-12.8-4.4 12.8h-2.7z"/><path fill="#e6e6e6" d="m705.5 300.8c0-3.9 3.1-7 7.2-7 4.2 0 7.2 3.2 7.2 7s-3.1 7-7.3 7c-4 0-7.1-3.1-7.1-7zm11.3 0c0-2.3-1.7-4.3-4.2-4.3s-4.1 2-4.1 4.3 1.7 4.3 4.1 4.3c2.7.1 4.2-1.9 4.2-4.3z"/><path fill="#e6e6e6" d="m722.1 294h3.1v3c.8-2 2.4-3.4 4.8-3.3v3.2h-.2c-2.7 0-4.6 1.7-4.6 5.4v5.1h-3.1z"/><path fill="#e6e6e6" d="m731.8 288.9h3.1v11.1l5.6-6h3.8l-5.4 5.5 5.5 8h-3.5l-4.1-5.8-1.9 2v3.9h-3.1z"/><path fill="#e6e6e6" d="m744.4 300.8c0-3.9 3.1-7 7.2-7 4.2 0 7.2 3.2 7.2 7s-3.1 7-7.3 7c-4.1 0-7.1-3.1-7.1-7zm11.3 0c0-2.3-1.7-4.3-4.2-4.3s-4.1 2-4.1 4.3 1.7 4.3 4.1 4.3c2.6.1 4.2-1.9 4.2-4.3z"/><path fill="#e6e6e6" d="m760.9 302.6v-8.6h3.1v7.6c0 2.1 1.1 3.3 2.9 3.3s3-1.3 3-3.3v-7.6h3.1v13.4h-3.1v-2.1c-.8 1.3-2.1 2.3-4.2 2.3-3.1.2-4.8-1.8-4.8-5z"/><path fill="#e6e6e6" d="m776.6 303.8v-7.1h-1.7v-2.7h1.7v-3.7h3.1v3.7h3.6v2.6h-3.6v6.6c0 1.2.6 1.7 1.7 1.7.7 0 1.3-.2 1.9-.5v2.5c-.8.5-1.7.7-2.8.7-2.3.1-3.9-.9-3.9-3.8z"/><path fill="#e6e6e6" d="m785.9 289.7h3.2v15h9.4v2.9h-12.5v-17.9z"/><path fill="#e6e6e6" d="m808.7 307.5v-1.7c-.9 1.1-2.3 2-4.4 2-2.6 0-4.8-1.4-4.8-4.2 0-3 2.3-4.4 5.4-4.4 1.7 0 2.6.2 3.7.5v-.2c0-1.9-1.2-2.9-3.3-2.9-1.5 0-2.6.3-3.9.8l-.8-2.5c1.5-.7 2.9-1.1 5.1-1.1 4 0 5.9 2.1 5.9 5.7v8zm.1-5.6c-.8-.3-1.9-.5-3.1-.5-2 0-3.1.8-3.1 2.1s1.1 2 2.6 2c2 0 3.5-1.1 3.5-2.9z"/><path fill="#e6e6e6" d="m817.6 305.5v2.1h-3.1v-18.7h3.1v7.4c1-1.4 2.4-2.5 4.5-2.5 3.2 0 6.3 2.5 6.3 7s-3.1 7-6.3 7c-2.1 0-3.5-1.1-4.5-2.3zm7.7-4.7c0-2.6-1.7-4.3-3.9-4.3-2.1 0-3.9 1.7-3.9 4.4 0 2.6 1.8 4.3 3.9 4.3 2.2 0 3.9-1.7 3.9-4.4z"/><path fill="#e6e6e6" d="m829.6 305.8 1.4-2.1c1.4 1.1 3 1.7 4.4 1.7s2.1-.5 2.1-1.5-1.3-1.4-2.8-1.8c-.1 0-.2-.1-.2-.1-2-.6-4.2-1.4-4.2-4s2.1-4.1 4.8-4.1c1.7 0 3.5.6 5 1.5l-1.2 2.2c-1.3-.8-2.6-1.3-3.8-1.3s-1.9.5-1.9 1.4 1.3 1.4 2.8 1.8c.1 0 .2.1.2.1 2 .6 4.2 1.5 4.2 4 0 2.9-2.2 4.2-5 4.2-1.9 0-4-.7-5.8-2z"/><path fill="#e6e6e6" d="m206.3 434.2c0-5.1 4.1-9.2 9.3-9.2s9.2 4.2 9.2 9.2-4.1 9.2-9.3 9.2-9.2-4.1-9.2-9.2zm17.4-.1c0-4.5-3.5-8.2-8.2-8.2s-8.2 3.7-8.2 8.3c0 4.5 3.5 8.2 8.2 8.2s8.2-3.7 8.2-8.3zm-13.1-.1c0-2.8 2.1-5.1 5.1-5.1 1.9 0 2.9.6 3.9 1.5l-1.4 1.7c-.8-.7-1.5-1.1-2.5-1.1-1.7 0-2.8 1.4-2.8 3.1s1.1 3 2.8 3c1.1 0 1.7-.5 2.5-1.1l1.4 1.4c-1.1 1.1-2.1 1.7-4 1.7-2.9.1-5-2.2-5-5.1z"/><path fill="#e6e6e6" d="m226.1 425.3h3.4l4.2 13.2 4.4-13.3h2.6l4.4 13.3 4.2-13.2h3.3l-6.2 18h-2.7l-4.4-12.8-4.4 12.8h-2.7z"/><path fill="#e6e6e6" d="m252.4 436.4c0-3.9 3.1-7 7.2-7 4.2 0 7.2 3.2 7.2 7s-3.1 7-7.3 7c-4.1 0-7.1-3.1-7.1-7zm11.2 0c0-2.3-1.7-4.3-4.2-4.3s-4.1 2-4.1 4.3 1.7 4.3 4.1 4.3c2.7.1 4.2-1.9 4.2-4.3z"/><path fill="#e6e6e6" d="m269 429.7h3.1v3c.8-2 2.4-3.4 4.8-3.3v3.2h-.2c-2.7 0-4.6 1.7-4.6 5.4v5.1h-3.1z"/><path fill="#e6e6e6" d="m278.6 424.5h3.1v11.1l5.6-6h3.8l-5.4 5.5 5.5 8h-3.5l-4.1-5.8-1.9 2v3.9h-3.1z"/><path fill="#e6e6e6" d="m291.3 436.4c0-3.9 3.1-7 7.2-7 4.2 0 7.2 3.2 7.2 7s-3.1 7-7.3 7c-4.1 0-7.1-3.1-7.1-7zm11.2 0c0-2.3-1.7-4.3-4.2-4.3s-4.1 2-4.1 4.3 1.7 4.3 4.1 4.3c2.6.1 4.2-1.9 4.2-4.3z"/><path fill="#e6e6e6" d="m307.7 438.2v-8.6h3.1v7.6c0 2.1 1.1 3.3 2.9 3.3s3-1.3 3-3.3v-7.6h3.1v13.4h-3.1v-2.1c-.8 1.3-2.1 2.3-4.2 2.3-3 .2-4.8-1.8-4.8-5z"/><path fill="#e6e6e6" d="m323.4 439.4v-7.1h-1.7v-2.6h1.7v-3.7h3.1v3.7h3.6v2.6h-3.6v6.6c0 1.2.6 1.7 1.7 1.7.7 0 1.3-.2 1.9-.5v2.5c-.8.5-1.7.7-2.8.7-2.3 0-3.9-.9-3.9-3.9z"/><path fill="#e6e6e6" d="m332.7 425.3h3.2v15h9.4v2.9h-12.5v-17.9z"/><path fill="#e6e6e6" d="m355.5 443.1v-1.7c-.9 1.1-2.3 2-4.4 2-2.6 0-4.8-1.4-4.8-4.2 0-3 2.3-4.4 5.4-4.4 1.7 0 2.6.2 3.7.5v-.2c0-1.9-1.2-2.9-3.3-2.9-1.5 0-2.6.3-3.9.8l-.8-2.5c1.5-.7 2.9-1.1 5.1-1.1 4 0 5.9 2.1 5.9 5.7v8zm.1-5.6c-.8-.3-1.9-.5-3.1-.5-2 0-3.1.8-3.1 2.1s1.1 2 2.6 2c2 0 3.5-1.1 3.5-2.9z"/><path fill="#e6e6e6" d="m364.4 441.1v2.1h-3.1v-18.7h3.1v7.4c1-1.4 2.4-2.5 4.5-2.5 3.2 0 6.3 2.5 6.3 7s-3.1 7-6.3 7c-2.1 0-3.5-1.1-4.5-2.3zm7.7-4.7c0-2.6-1.7-4.3-3.9-4.3-2.1 0-3.9 1.7-3.9 4.4 0 2.6 1.8 4.3 3.9 4.3 2.2 0 3.9-1.7 3.9-4.4z"/><path fill="#e6e6e6" d="m376.5 441.4 1.4-2.1c1.4 1.1 3 1.7 4.4 1.7s2.1-.5 2.1-1.5-1.3-1.4-2.8-1.8c-.1 0-.2-.1-.2-.1-2-.6-4.2-1.4-4.2-4s2.1-4.1 4.8-4.1c1.7 0 3.5.6 5 1.5l-1.2 2.2c-1.3-.8-2.6-1.3-3.8-1.3s-1.9.5-1.9 1.4 1.3 1.4 2.8 1.8c.1 0 .2.1.2.1 2 .6 4.2 1.5 4.2 4 0 2.9-2.2 4.2-5 4.2-2 0-4.1-.7-5.8-2z"/><path fill="#e6e6e6" d="m505.1 434.2c0-5.1 4.1-9.2 9.3-9.2s9.2 4.2 9.2 9.2-4.1 9.2-9.3 9.2-9.2-4.1-9.2-9.2zm17.4-.1c0-4.5-3.5-8.2-8.2-8.2s-8.2 3.7-8.2 8.3c0 4.5 3.5 8.2 8.2 8.2s8.2-3.7 8.2-8.3zm-13.1-.1c0-2.8 2.1-5.1 5.1-5.1 1.9 0 2.9.6 3.9 1.5l-1.4 1.7c-.8-.7-1.5-1.1-2.5-1.1-1.7 0-2.8 1.4-2.8 3.1s1.1 3 2.8 3c1.1 0 1.7-.5 2.5-1.1l1.4 1.4c-1.1 1.1-2.1 1.7-4 1.7-2.9.1-5-2.2-5-5.1z"/><path fill="#e6e6e6" d="m525 425.3h3.4l4.2 13.2 4.4-13.3h2.6l4.4 13.3 4.2-13.2h3.3l-6.2 18h-2.7l-4.4-12.8-4.4 12.8h-2.7z"/><path fill="#e6e6e6" d="m551.2 436.4c0-3.9 3.1-7 7.2-7 4.2 0 7.2 3.2 7.2 7s-3.1 7-7.3 7c-4.1 0-7.1-3.1-7.1-7zm11.2 0c0-2.3-1.7-4.3-4.2-4.3s-4.1 2-4.1 4.3 1.7 4.3 4.1 4.3c2.7.1 4.2-1.9 4.2-4.3z"/><path fill="#e6e6e6" d="m567.8 429.7h3.1v3c.8-2 2.4-3.4 4.8-3.3v3.2h-.2c-2.7 0-4.6 1.7-4.6 5.4v5.1h-3.1z"/><path fill="#e6e6e6" d="m577.5 424.5h3.1v11.1l5.6-6h3.8l-5.4 5.5 5.5 8h-3.5l-4.1-5.8-1.9 2v3.9h-3.1z"/><path fill="#e6e6e6" d="m590.1 436.4c0-3.9 3.1-7 7.2-7 4.2 0 7.2 3.2 7.2 7s-3.1 7-7.3 7c-4.1 0-7.1-3.1-7.1-7zm11.2 0c0-2.3-1.7-4.3-4.2-4.3s-4.1 2-4.1 4.3 1.7 4.3 4.1 4.3c2.6.1 4.2-1.9 4.2-4.3z"/><path fill="#e6e6e6" d="m606.5 438.2v-8.6h3.1v7.6c0 2.1 1.1 3.3 2.9 3.3s3-1.3 3-3.3v-7.6h3.1v13.4h-3.1v-2.1c-.8 1.3-2.1 2.3-4.2 2.3-3 .2-4.8-1.8-4.8-5z"/><path fill="#e6e6e6" d="m622.2 439.4v-7.1h-1.7v-2.6h1.7v-3.7h3.1v3.7h3.6v2.6h-3.6v6.6c0 1.2.6 1.7 1.7 1.7.7 0 1.3-.2 1.9-.5v2.5c-.8.5-1.7.7-2.8.7-2.3 0-3.9-.9-3.9-3.9z"/><path fill="#e6e6e6" d="m631.5 425.3h3.2v15h9.4v2.9h-12.5v-17.9z"/><path fill="#e6e6e6" d="m654.3 443.1v-1.7c-.9 1.1-2.3 2-4.4 2-2.6 0-4.8-1.4-4.8-4.2 0-3 2.3-4.4 5.4-4.4 1.7 0 2.6.2 3.7.5v-.2c0-1.9-1.2-2.9-3.3-2.9-1.5 0-2.6.3-3.9.8l-.8-2.5c1.5-.7 2.9-1.1 5.1-1.1 4 0 5.9 2.1 5.9 5.7v8zm.1-5.6c-.8-.3-1.9-.5-3.1-.5-2 0-3.1.8-3.1 2.1s1.1 2 2.6 2c2 0 3.5-1.1 3.5-2.9z"/><path fill="#e6e6e6" d="m663.3 441.1v2.1h-3.1v-18.7h3.1v7.4c1-1.4 2.4-2.5 4.5-2.5 3.2 0 6.3 2.5 6.3 7s-3.1 7-6.3 7c-2.2 0-3.6-1.1-4.5-2.3zm7.7-4.7c0-2.6-1.7-4.3-3.9-4.3s-3.9 1.7-3.9 4.4c0 2.6 1.8 4.3 3.9 4.3s3.9-1.7 3.9-4.4z"/><path fill="#e6e6e6" d="m675.3 441.4 1.4-2.1c1.4 1.1 3 1.7 4.4 1.7s2.1-.5 2.1-1.5-1.3-1.4-2.8-1.8c-.1 0-.2-.1-.2-.1-2-.6-4.2-1.4-4.2-4s2.1-4.1 4.8-4.1c1.7 0 3.5.6 5 1.5l-1.2 2.2c-1.3-.8-2.6-1.3-3.8-1.3s-1.9.5-1.9 1.4 1.3 1.4 2.8 1.8c.1 0 .2.1.2.1 2 .6 4.2 1.5 4.2 4 0 2.9-2.2 4.2-5 4.2-2 0-4.1-.7-5.8-2z"/></g>
</svg>
