<?xml version="1.0" encoding="utf-8"?>
<!-- Generator: Adobe Illustrator 23.0.1, SVG Export Plug-In . SVG Version: 6.00 Build 0)  -->
<svg version="1.2" baseProfile="tiny" id="Layer_1" xmlns="http://www.w3.org/2000/svg" xmlns:xlink="http://www.w3.org/1999/xlink"
	 x="0px" y="0px" viewBox="0 0 900 600" xml:space="preserve">
<g>
	<path d="M223.33,520.41l0.1-0.1C223.38,520.25,223.35,520.33,223.33,520.41z"/>
	<path d="M208.17,147.15c-0.01,0.12-0.01,0.24,0.01,0.36C208.5,147.14,208.53,147.19,208.17,147.15z"/>
	<path d="M286.63,201.57C284.03,201.64,285.25,204.35,286.63,201.57L286.63,201.57z"/>
	<path d="M405.67,164.39c2.86,19.66,5.87,22.88,16.7,23.52c6.21,0.37,9.08-3.69,11.61-9.37c8.58-0.19,7.01-8.35,5.7-16.09
		c-1.04-6.13-1.12-0.75-0.1-11.91c1.02-0.58-3.46-1.4,52.84,0.71c5.94,0.22,6.71-5.55,4.99-9.06c-1.18-2.41,0.77-2.14-52.74-2.65
		c-7.9-0.07-3.04,0.96-6.41-17.92c-1.62-9.09-4.06-18.34-12.73-18.53c-8.26-0.18-16.04-1.09-19.65,30.34
		c-1.08,9.44,6.77,3.37-73.81,4.38c-1.22-3.77-1.63-7.33-1.12-11.3c2.14-1.63,4.89-1.63,7.64-1.73c9.54-0.35,19.95-8.9,20.87-14.56
		c0.55-3.37,1.22-6.82,2.65-9.88c-7.89-14.38-16.42-9.31-18.63-10.08c-9.52-3.33-17.3,1.66-25.45,4.89
		c-6.31,2.49-5.62,4.96-9.16,5.29c-10.1,0.96-17.91,1.86-24.64,8.76c-2.13,2.19-10.39,3.84-12.12,11.1
		c-4.74-1.95-3.5-4.59-1.22-4.89c2.64-0.34,3.79-1.92,4.58-4.28c1.86-5.55,7.89-28.62,2.95-30.14c1.32,5.9-1.27,11.2-1.12,16.9
		c0.15,5.7-3.16,10.59-4.07,15.68c-5.29,1.22-9.67-0.2-14.15-0.81c6.09,4.06,10.25-0.89,8.04,14.56c4.15-4.36,0.05-14.03,7.02,7.84
		c-3.77,0.71-7.23,0.31-10.79,0.2c0.61-1.63,2.55-1.53,3.16-3.26c-1.83-0.41-3.37,0.5-4.38,1.53c-2.67,2.72-5.7,1.53-8.45,1.43
		c-1.43-5.5-2.14-10.79-4.99-15.58c0.51,5.19,3.36,9.88,3.67,15.27c-7.02,1.53-12.01-3.67-18.33-5.7c0.92,2.55,4.78,2.44,4.28,5.6
		c-3.05,0-6.11,0-9.77,0c-1.83-6.82,0.41-13.44-0.2-20.16c3.05-0.92,5.5-2.04,8.25-2.24c4.45-8.9,0.5-11.06,4.58-21.38
		c-1.63-0.1-2.95-0.41-3.26-2.14c0.41-0.92,1.53,0.2,2.34-1.32c0.42-3.75,0.41-4.49,0.41-4.07c1.73,0.81,1.83,2.44,1.83,4.48
		c2.55-1.63,3.05-4.18,3.36-6.31c0.7-4.79,4.34-8.16,5.7-12.62c0.59-1.94,3.46-1.12,4.48-2.85c0.2-0.31,0.81-0.51,0.92-1.22
		c-0.1-1.02-1.22-1.63-1.12-2.44c-0.92-1.32-2.75,0.2-3.16-1.53c2.04-1.32,4.07-0.41,6.31,2.85c1.22-0.31,0-1.22,0.41-1.63
		c5.7-2.34,11.61,1.32,17.31-1.43c1.02,3.77,0.56,7.77,2.85,11.1c2.84,4.12-10.28,2.03-6.82,11.91c1.02-0.81,0-2.14,1.02-3.05
		c3.44,0,1.58,0.32,5.6-1.02c0.41-3.36,2.52-6.4,0.71-10.38c-1.24-2.74-1.12-6.11-1.53-9.16c1.32-2.85,4.38-3.56,6.52-5.6
		c0.31-1.12-0.41-2.44,0.31-3.46c-1.73-0.92-3.16-0.1-4.68-0.2c0.51-1.63,2.95-1.22,2.95-3.36c-1.93-1.53-3.26,0.41-5.09,1.22
		c0-10.94-1.04-4.3-3.87-3.36c-0.92-1.32-2.43-1.61-3.77-0.92c-3.93,2.04-6.22,1.19-17.82,1.83c-1.22,0.31-1.12,2.34-2.85,2.55
		c-1.22-0.2,0.61-2.04-1.32-2.14c-10.05,9.55-8.73,0.44-13.34,2.55c-0.51,1.53,1.32,1.83,1.63,2.95c-1.2,0.96-2,5.43-2.65,4.78
		c-0.03,0.13-0.07,0.26-0.1,0.4c2.41-0.38,4.44,1.89,6.82,1.23c0.41,0.81,0,1.22-0.61,1.83c-1.53-0.61-3.26-1.22-5.7,0.71
		c1.34-2.42,0.47-3.02-0.59-3.48c-1.02,4.23-2.47,8.3-3.69,12.44c-2.61,8.93,3.47,11.83,1.93,15.47c-0.21,0.51-0.2,1.32,0.1,1.73
		c2.75,4.38,2.52,9.68,4.17,14.35c0.9,2.55,0.41,5.4-0.92,8.04c-22.15,7.58-19.75-3.97-31.56-9.57
		c-11.05-5.23-13.41-1.12-16.19-5.19c-10.38-15.19-16.75-16.51-28.2-17.21c-3.59,0-1.32,3.28-8.35,1.53
		c-4.67-1.17-7.84,1.83-11.4,3.87c-0.2,2.55-0.1,4.89-0.51,7.23c-1.82,10.48,22.16,28.79,31.36,34c10.97,6.22,10.37,0.57,17.82,9.57
		c-30.85-0.81-60.88-1.63-91.42-2.44c-0.91-12.78-1.46-36.94-14.35-36.14c-4.64,0.29-8.95-1.92-12.93,5.19
		c-4.16,7.43-6.24,19.79-6.72,26.47c-0.37,5.06,4.91,3.88-61.8,2.55c-3.05,3.26-1.22,6.72-0.4,10.58
		c20.36,0.51,40.72,0.92,61.39,1.43c0.36,4.55,0.09,18.13,4.17,29.12c2.68,7.21,5.19,8.75,13.54,9.16
		c13.49,0.66,15.71-24.08,17.21-37.57c31.36,0.81,62.61,0.92,93.97,2.04c8.77,31.78,8.9,23.29,12.32,46.63
		c4.55,31.12,1.73,31.08,2.95,37.36c3.34,17.12-0.24,27.69,1.99,28.19c2.4-22.28-2.08-59.64-5.65-81.74
		c-0.58-3.6,0.31-1.18,4.17-11.1c1.31-3.36,2.65-6.72,4.17-10.49c7.16,10.11,5.89,7.59,0.61-3.67c2.95-2.85,2.63-6.82,3.56-10.28
		c0.3-1.12-0.1-1.53-1.32-1.12c-0.31,1.73-0.81,3.56-1.43,5.4c-0.65,3.47-1.31,4.17-4.36,3.79c-0.33,1.95,0.91,1.27,1.4,3.03
		c-2.14,6.41-4.99,12.73-7.74,19.45c-3.46-8.04-7.23-15.68-6.62-24.54c2.04,0,3.87,0,6.01,0c2.9,4.27,6.13,1.93,6.23,1.95
		c0.9-3.02,1.09-6.06,0.29-9.08c-1.93,2.14-0.71,4.99-1.73,7.33c-1.22,0.71-2.34,0.61-3.46-0.41c-0.39-12.34-3.57-4.76-4.58-21.89
		c-44.79-18.73-40.31-10.26-44.8-14.25c-11.05-9.82-13.11-11.86-11.2-20.16c1.83,2.95,3.87,4.58,6.62,5.09
		c-1.32-1.53-3.12-2.87-3.87-4.68c-0.68-1.64-4.48-1.12-2.85-4.17c4.89-3.05,4.89-3.1,10.49-2.44c5.32,0.62,3.57-2.06,8.04-2.04
		c16.57,0.1,21.84,12.98,27.79,19.45c15.13,16.43,19.74,11.28,23.92,19.24c6.15,11.7,12.7,11.7,12.42,15.88
		c-0.29,4.38-1.22,8.86-1.93,13.34c-1.12,0-1.93-0.1-2.75-0.1c0.1-2.95,2.04-5.4,1.73-8.86c-2.75,2.44-2.24,5.8-3.97,7.94
		c-1.04,1.05-3.68,0.35-3.04,1.94c6.16,1.37,9.83,3.2,10.68-3.57c1.63-0.2,3.05-0.31,4.58,0.2c6.11,8.45,16.1,9.9,25.04,13.13
		c1.3,0.47,14.95-0.74,19.24-11.61c0.48-1.44,4.52-0.92,6.01-0.61c7.93,25.11,5.71,14.16,2.68,21.01c0.46,1.59,2.5-1.15,4.14-1.26
		c1.91,0.79,2.2-0.16,1.02,24.84c-0.27,5.75-1.04,8.74-1.77,10.21c0.25-0.01,0.53,0.01,0.85,0.06c-0.79,2.99,0.73,6.76-3.31,8.35
		c0.11,1.43,1.68-0.19,2.6,0.72c-0.31,4.48-0.24,9.15-2.14,13.54c-3.33,7.7,0.55,7.05,0.1,14.97c-0.43,7.64-1.22,15.27,0,22.7
		c-2.34,3.05-5.29,2.04-8.25,1.93c1.12-2.95,2.24-5.6,0-8.25c0.51,3.26-1.02,6.01-2.04,9.16c-11.86,0-14.27,1.43-23.01,0.81
		c-1.93-0.14-2.85-1.64-4.78-1.73c-12.59-0.57-35.66-9.23-37.87-7.02c-0.51,1.43,0.71,3.05-0.41,4.58
		c-1.63-0.71-0.31-2.44-1.22-3.46c-1.22-0.31-1.43,0.71-1.32,1.43c0.73,4.98-7.29,31.21-11,50.6c-5.52,28.84-0.88,36.4-8.86,59.35
		c-1.31,3.77-1.02,7.74-2.24,11.5c4.99,1.93,9.67,4.48,15.17,5.4c0.23,18.09,2.48,22.65,0.71,29.63
		c-7.08,27.91,14.02,93.33,18.63,97.74c1.66-3.88-4.14-3.35,6.66-6.44c2.22-0.63,4.9-2.12,7.8-0.98c-2.6,0.7-5.29,1.78-8.08,1.15
		c0.09,0.64-0.52,0.9-0.98,0.99c-6.28,1.22-2.42,6.21-4.99,8.04c-0.89,0.3-1.93-2.27-1.93,0.41c-0.1,1.53-1.72,2.65-1.63,4.28
		c0.34,6-2.34,11.3-4.07,16.7c1.53,2.24,4.28,2.85,5.6,5.09c0.41-2.85-2.65-3.36-3.67-5.4c-0.21-1.48,3.84-6.43,3.16-12.73
		c-0.3-2.75,0-5.6,3.36-7.13c2.24-1.02,2.24-3.77,2.55-6.31c3.87-2.04,7.94-3.46,12.73-2.24c-0.31,1.83-0.61,3.26-0.92,5.09
		c6.77,6.77-5.29-3.41-11.61,5.09c0.1,0.68,0.67,0.8,1.17,1.09c1.24-3.74,15.22-5.11,16.14,5.63c0.44,5.19,3.57,8.44,6.52,11.91
		c5.07,5.98,1.55,6.49,4.78,10.89c1.12-3.05-0.1-9.16-2.24-11c-3.56-3.05-5.85-6.73-6.52-11.5c-0.94-6.76-6.65-10.85-5.8-18.02
		c0.18-1.53-1.02-4.68-4.28-5.29c-4.77-46.31,6.29-40.4,1.02-68.82c-0.75-4.06-3.84-20.22-1.63-24.03
		c4.02-6.93,1.26-13.22,4.99-20.97c12.08,0.75,3.95-7.76,7.84-35.73c-3.56,4.75-3.03,22.05-2.34,28.4c0.41,3.77-1.12,5.7-4.78,5.29
		c-7-0.77-16.18,1.07-18.63,0.41c-36.62-9.92-34.95-1.1-28.3-24.23c2.36-8.2,4.3-33.61,4.48-37.06c3.87,3.16,4.38,7.02,5.5,11
		c1.53-4.28,0.92-5.9-4.58-12.52c0.76-15.63,12.22-51.36,12.42-61.59c4.58,0.92,8.86,1.63,13.03,2.44c0.61,2.65,0.2,5.29,2.04,7.74
		c0.81-2.55-0.51-4.78,0.51-7.33c8.55,2.65,17.21,4.28,25.86,3.67c0.92,1.73,0.81,3.56,2.44,4.48c0.31-1.53-0.92-2.65-0.31-4.17
		c3.97,0.41,8.04-1.83,12.12,0.2c0.81,3.77,1.32,4.78,4.07,7.84c0.2-3.26-2.24-5.9-1.83-9.16c-2.55-0.81-5.29-0.2-7.84-0.81
		c3.36-1.53,6.82-0.2,10.08-0.92c0.61,0.71-0.1,1.43,0.1,2.14c0.61,0.71,1.83,0.51,2.14,1.43c0.2,2.65-0.71,5.29,1.22,7.64
		c-0.31-2.65,0.41-5.09,1.12-7.74c3.87,0.41,7.43-0.2,10.38-0.81c2.44-1.22-0.61-3.77,1.83-4.68c0.81,0.81,0.61,1.83,0.41,2.44
		c-1.58,4.74,3.44,7.87,4.17,17.31c1,12.98-0.56,27.48,0,30.03c1.91,8.68,1.93,66.39,1.93,73.51c-14.33,2.74-26.38,8.89-37.06,0.81
		c-1.39-1.05-9.01-4.12-10.61-4.25c0.4,1.6,5.23,3.08,6.84,4.55c-0.93,4.65,6.21,2.65,4.17,26.06c-1.02,11.71-1.93,23.33,0.2,35.02
		c0.59,3.23,13.14,25.49,14.56,43.78c0.29,3.77,2.74,7.13,2.34,11.1c-0.27,2.71-3.56,20.45-5.4,23.11
		c-3.08,4.46,1.57,8.21,4.78,8.86c7.23,1.45,8.97,0.32,14.05,2.14c1.83,5.82,14.18,6.1,18.63,5.8c4.08-0.27,7.66-6.14,14.56-2.44
		c-3.36,0.92-6.62,0.61-9.47,2.24c3.67-0.31,7.33-0.2,11.1-1.53c3.07-7.34-4.8-17.63-10.59-19.85c-4.85-1.86-0.79-5.47-7.74-9.57
		c-3.61-2.13-4.89-6.52-8.86-8.04c0.36,3.03-3.72,0.44-9.67,5.4c2.55,0.41,0.1,2.55,1.73,3.46c2.75-2.65,6.01-1.53,9.88-0.81
		c-5.7,1.12-5.7,1.12-6.11,3.87c4.68-0.61,9.37-1.53,13.95-0.2c-4.75,1.58-10.17,1.08-12.57,4.6c0.44,1.31,9.15-2.4,14.09-0.53
		c-3.16,0.92-6.72,0.41-9.77,2.44c2.44,1.32,5.09,1.22,11.2-0.2c10.89,6.92,11.5,7.74,13.13,17.21c-11.79-0.7-14.47,3.9-18.53,3.26
		c-7.69-1.21-12.42-0.68-13.44-5.6c-0.3-1.43-1.02-2.85-2.24-3.97c-1.02,0.81,0.71,1.73-0.1,2.65c-5.69-2.05-16.8,0-17.61-4.89
		c1.32-8.14,6.01-14.15,4.68-22.09c7.78,6.13,4.99-0.24,12.52-3.26c-2.85-1.32-2.55-3.67-3.46-5.8c3.56-0.71,7.02-0.31,10.18-1.73
		c0.92,2.34-0.71,4.68,1.02,6.72c1.21-0.48,1.21-0.08,1.53-2.95c0.67-5.99-2.57-5.6-8.25-5.6c-0.92-1.93-0.41-3.87-1.12-6.11
		c-2.89,7.59,4.89,5.34-7.74,6.92c-0.61-2.55-1.12-4.89-1.63-7.23c-2.35,4.53,2.87,7.47-2.24,8.04c-0.59-1.76-1.66-10.02-1.83-11.91
		c-1.81-19.36-17.38-32.67-14.35-57.01c1.29-10.38-1.17-12.22,0.2-14.97c3.2-7.65,0.04-14.23-2.85-24.74
		c5.29,2.04,9.47,5.31,15.37,4.38c18.45-2.91,16.01-11.59,14.46,13.34c-0.89,14.29,3.85,14.32,3.97,45.81
		c0.16,40.09-0.29,39.76,1.02,42.15c2.28-0.19-0.48-13.58,1.02-47.95c1.09-25.01-6.93-18.57-2.55-57.42
		c1.19-1.78,4.17-0.6,4.73-3.02c0.59,0.41,1.09,0.98,1.99,0.58c-2.18-9.75,0.12,1.02-0.51-63.53c-0.02-2.14-0.57-4.25,0.51-6.31
		c0.21-0.4,0.2-1.02,0.1-1.43c-3.63-14.53,3.42-23.74-4.89-42.56c-1.12-2.54-2.15-4.69-1.22-7.64c0.61-1.94-0.72-4.17-0.81-6.21
		c-0.37-8.17,0.53-17.07,0-32.27c-0.37-10.5,6.48-5.52,5.5-60.58c-0.08-4.58,0.74-9.05,3.26-13.03c4.42-6.99-0.08-9.01,8.65-8.04
		c0.92,2.85,1.12,5.9,3.46,8.25c1.22,0.31,2.55,0.51,3.05-1.12c-0.2-1.53-1.53-0.2-2.14-1.22c1.12-0.51,2.44-0.61,3.05-1.43
		c4.78,2.55,8.76-0.31,13.44-0.92c2.44,1.32,2.95,1.02,5.19-3.26c24.64,0.61,49.38,1.22,74.52,1.83
		C405.06,154.41,404.96,159.5,405.67,164.39z M440.08,141.99c18.53,0.31,37.06,0.71,55.49,1.12c1.12,2.14,1.02,3.87-0.31,5.9
		c-18.53-0.41-37.06-0.81-55.69-1.22C439.57,145.66,439.27,143.83,440.08,141.99z M275.77,77.96c0.71-0.1,1.32-0.92,2.04-0.1
		C277.19,78.87,276.48,78.57,275.77,77.96z M282.18,52.51c-0.71,1.12-0.81,2.14-2.04,2.55C279.02,53.12,279.94,52.61,282.18,52.51z
		 M275.66,47.41c0.31,1.02,0,1.63-1.12,1.83C275.05,48.74,274.34,47.62,275.66,47.41z M266.5,59.12c-0.92,0.31-1.63,0-2.24-0.81
		C265.38,57.9,265.89,58.72,266.5,59.12z M262.63,50.27c-0.81,1.32-1.63,2.04-2.75,2.65C259.58,50.77,260.49,50.16,262.63,50.27z
		 M249.3,68.49c-0.76,0.76-0.79-1.31,0.2-2.44C251.03,67.37,249.8,67.88,249.3,68.49z M249.19,56.98c-1.53,3.26-1.53,3.26-3.87,4.28
		C245.94,59.43,247.46,58.61,249.19,56.98z M247.67,51.79c-0.41,1.32-0.92,1.93-2.44,1.63C245.83,52.51,246.55,52,247.67,51.79z
		 M244.82,71.64c0.1,1.43-0.41,1.73-1.12,2.14C242.98,72.46,243.9,72.26,244.82,71.64z M235.17,57.17c0.53,0.06,1.08,0.02,1.59,0.21
		C236.25,57.2,235.69,57.28,235.17,57.17z M242.27,71.64c-0.31,0.51-0.71,1.12-1.63,1.22C240.64,71.85,241.05,71.34,242.27,71.64z
		 M235.86,86.51c-1.12-1.43-2.95-2.65-0.71-4.58C237.72,82.79,236.72,84.12,235.86,86.51z M240.13,83.56
		c-0.31-1.73-3.16-2.24-2.14-4.78C240.54,79.69,240.85,81.42,240.13,83.56z M237.18,73.68c-0.2-1.73-0.2-1.73,0.61-3.26
		C237.89,72.05,237.89,72.05,237.18,73.68z M3.63,138.33c0.31-2.14,0.51-3.87,0.1-5.9c71.6,1.59,70.29-0.57,67.6,7.23
		C48.73,139.25,26.34,138.74,3.63,138.33z M73.98,144.84c3.17,4.55,3.45,9.88,4.89,14.86c0.71,2.45-0.31,4.38-2.04,6.01
		c-4.59-2.16-1.77-21.47-4.68-22.09c-1.53-0.1-0.61,2.04-2.34,1.53c-0.35-2.79-1.29-2.92,2.75-3.26c4.89-15.56-4.56-7.47-2.55-12.83
		c0.65-1.72,1.12-3.77,3.67-3.67c5.35,0.22,3.9,18.43,2.24,18.43c-1.22-0.1-1.02-1.32-1.73-1.63
		C73.68,144.03,73.56,144.24,73.98,144.84z M70.32,162.25c0-3.97-0.61-8.04,0.71-12.01C70.62,155.67,73.73,162.94,70.32,162.25z
		 M67.67,159c-0.71-5.6-2.55-11.1-1.32-16.9c1.32,0.71,1.32,0.71,3.36,6.11C66.14,151.06,69.2,155.33,67.67,159z M69.5,175.08
		c-4.95-7.98-6-21.92-6.21-31.36c-0.05-2.09,1.12-1.5,1.12-1.12c0,10.42,1.39,21.79,6.62,29.63c-0.1-2.55-2.14-4.78-2.04-7.64
		c1.82,1.51,2.91-1.2,4.17,1.32c4.29,6.82,9.24-1.66,7.94-6.21c-1.22-4.28-1.71-8.77-3.67-12.73c-1.18-2.4,2.38-8.56,0.1-18.73
		c-1.28-5.74-7.01-5.23-8.65-0.31c-0.41,1.22-0.1,2.85-2.34,3.87c0.71-11.91,2.55-22.91,9.47-32.68c-7.75,0-10.15,25.19-11.2,32.27
		c-2.52-2.31,1.67-24.3,7.23-31.46c11.69-15.06,19.84,38.77,9.16,68.52C78.42,176.23,73.8,182.01,69.5,175.08z M89.86,171.31
		c-2.92,6.73-4.99,7.84-13.23,7.33c10.09-10.65,17.03-51.59,3.87-81.45c5.57-0.54,10.06-0.26,12.83,12.42
		C98.5,133.29,95.38,158.6,89.86,171.31z M200.94,142.61c-34.72-0.81-69.23-1.63-103.74-2.34c-0.41-2.04-0.41-3.77,0.2-5.6
		C204.14,136.89,202.01,134.41,200.94,142.61z M196.05,124.48c1.63,3.05,0.2,6.31,1.12,9.67c-2.04,0-4.07,0.31-5.9-0.2
		c-1.83-2.44-3.06-5.28-6.21-6.21c-19.26-5.69-21.95-10.52-28.81-16.09C170.8,113.49,183.53,119.09,196.05,124.48z M204.3,393.46
		c0.71-1.43-0.2-3.05,0.81-4.68c8.96,3.16,18.12,0,27.18,0.41c1.08,5.87-5.5,1.38-5.5,12.32c0,2.34-2.75,2.85-3.77,5.5
		c6.74-3.67,6.01-2.19,6.01-11.2c0.71-0.41,1.53-0.71,2.34-1.12c1.43,3.36,0.17,6.4-1.02,9.16c-6.66,15.41,3.64,31.27,0.71,51.21
		c-5.57,37.91-1.32,29.22-4.99,22.3c0.51,8.86,4.28,17.21,3.77,26.37c-4.58,1.02-9.16,2.55-13.54,4.28
		c-11.28-34.33-8.83-38.28-13.85-55.49c-3.47-11.91-3.4-24.03-0.92-36.14c1.49-7.25,0.74-10.04-0.81-29.42
		C204.5,388.17,202.06,392.03,204.3,393.46z M211.32,258.97c1.43-0.41,2.85-0.92,4.28,1.22
		C213.66,259.99,212.64,258.56,211.32,258.97z M212.34,262.53c-1-0.33-0.35-1.33,0.1-1.22C213.33,261.61,212.98,262.7,212.34,262.53
		z M215.8,263.76c-0.71-1.53-0.51-2.34,0.71-2.85C216.72,261.82,217.12,262.64,215.8,263.76z M218.14,263.35
		c0.31-1.12,0.71-2.24,1.93-3.26C222.01,261.72,221.11,265.72,218.14,263.35z M222.72,264.37c0-0.71-0.2-1.32,1.22-2.04
		C223.74,263.35,224.15,264.16,222.72,264.37z M226.08,265.39c-1.24,0.5-1.96-1.93,0.41-1.93
		C226.9,264.27,226.9,264.98,226.08,265.39z M229.55,266.1c-1.53-0.1-1.93-0.51-0.71-1.63C229.75,264.67,229.85,265.28,229.55,266.1
		z M231.58,265.69c5.8,0.71,11.71,1.22,17.51,1.53C243.09,268.95,237.28,267.93,231.58,265.69z M252.35,267.93
		c0.81-0.92,1.53-0.41,2.34,0.2C253.88,268.34,253.06,268.64,252.35,267.93z M273.4,268.48c-0.14,1.55-1.03,1.26-2.12,0.77
		c-0.61-0.2-1.73,0.31-1.83-1.12c1.32-0.61,1.63,0.1,1.83,1.12C272.94,268.55,273.83,268.37,273.4,268.48z M274.85,268.54
		c-0.41-0.1-0.92-0.2-1.32-0.31C273.11,265.34,276.02,266.5,274.85,268.54z M277.5,268.34c-0.81-0.61-1.32-1.12-0.81-2.44
		C278.72,266.4,278.41,267.22,277.5,268.34z M289.1,510.95c2.24-1.22,4.48-2.24,7.13,0.41C293.38,511.15,291.24,511.05,289.1,510.95
		z M278.51,501.07c0.81,1.83,2.14,3.36,2.24,5.7c-2.04,0.92-2.85,3.05-4.68,4.78c-3.05-2.34-2.24-5.8-2.95-8.55
		C274.75,500.87,276.48,500.87,278.51,501.07z M434.89,176.71c1.12-4.68,2.14-8.76,3.05-12.83
		C438.45,173.96,438.35,174.37,434.89,176.71z M435.81,117.36c5.34,22.66,1.91,49.55-3.36,61.39c-3.08,6.91-5.09,8.04-13.44,7.53
		c12.96-13.28,15.24-64.56,3.26-81.34C429.32,104.56,432.84,104.76,435.81,117.36z M408.22,125.91
		c8.48-43.79,25.74-12.43,19.45,33.8c-4.88,35.83-18.5,33.33-21.07,1.02c-0.29-3.67-1.02-7.33-0.31-11.2
		c4.92,0.66,3.81-1.33,5.19,3.97c0.92,3.52,6.46,4.36,7.74,0.31c2-6.35,3.55-22.3-3.05-22.3c-7.2,0-2.48,10.69-9.67,6.82
		C406.39,134.15,407.2,129.88,408.22,125.91z M415.75,139.65c-1.12-1.02-2.65-0.1-3.67-1.43c0.51-1.73,0.61-3.77,2.44-5.09
		c3.67,4.78,3.26,17-0.71,21.48c-1.43-1.32-1.83-2.95-1.83-4.58c1.02-0.71,2.14,0.1,3.26-1.12
		C416.16,146.17,416.67,142.81,415.75,139.65z M416.87,132.53c4.07,5.6,3.77,17.21-0.41,22.09
		C418.6,147.49,418.5,140.37,416.87,132.53z M218.75,124.18c-7.48-9.81-4.85-9.56-12.93-13.54c-5.51-2.72-9.67-7.13-14.35-11
		c4.6-0.88,3.6,0.69,15.68,6.82c5.7,2.89-1.91,0.15,13.03,8.55C219.98,118.07,219.77,120.92,218.75,124.18z M220.38,126.11
		c1.83-3.26,1.93-7.02,2.34-10.49c3.79-1.14,2.19-2.28,3.16,15.78C223.84,129.57,221.5,128.86,220.38,126.11z M254.28,156.45
		c-4.95-1.34-18.67-5.83-21.38-10.79c13.54,0.31,26.67,0.61,39.91,0.81C270.68,153.6,261.51,158.41,254.28,156.45z M289.31,164.6
		c0-0.61,0-0.92,0.41-1.02C289.92,163.88,289.92,164.19,289.31,164.6z M288.08,162.76c-1.63-5.8-3.05-10.79-4.48-15.78
		c12.33,0,10.79-0.2,11.61,0.61C291.44,151.67,291.44,157.47,288.08,162.76z M226.39,143.01c0-2.14,0-3.77,0-5.5
		c2.2-0.37,61.32,0.71,74.22,1.32c3.5,0.17,3.7,2.5,3.97,1.83C304.58,146.51,313.82,144.73,226.39,143.01z M275.77,131.71
		c1.02,1.32,1.43,2.34,1.53,4.38C275.46,134.66,275.77,133.34,275.77,131.71z M328.5,148c-1.02,0.31-1.63,1.32-2.95,1.02
		c0-2.8,0.3-5.61-0.18-8.41c-4.03,1.6,2.61,9.15-4.91,9.73c0-3.16,1.53-6.21-0.51-9.37c-2.17,2.74,1.78,11.7-6.41,9.77
		c-0.81-1.12,0.51-2.95-1.32-3.77c-1.12,1.22,0,3.56-2.55,4.17c-4.88-1.46-3.36-1.26-3.36-5.19c0-1.9,0.49-4-1.64-5.23
		c0,0.1-1.81-4.42,1.23-7.09c9.31-8.15,5.93-12.32,10.28-15.88c9.99-8.18,12.32-11.84,9.88-18.12c-2.7,4.29,0.6,6.39-8.14,14.25
		c-2.24,2.24-4.41,3.1-6.21,8.04c-1.78,4.87-4.89,10.38-9.47,10.79c0.2-6.21,6.11-9.98,6.52-16.19c-3.53,7.71-8.97,7.22-8.86,15.07
		c0.09,6.35-2.38,4.75-19.04,4.17c-1.53-5.6-3.77-10.69-6.62-15.27c2.14-3.97,2.96-4.97,6.01-6.31c4.97-2.18,4.28-3.46,6.41-4.68
		c13.02-9.12,20.65-3.65,28.61-10.59c6.03-5.26,11.3-4.48,18.73-7.64c4.07-1.73,7.53,0.1,10.89,2.24c1.53-1.93,6.38-2.82,8.35-0.71
		c2.21,2.37,4.99,4.17,6.92,7.13c-2.34,4.58-1.65,10.16-5.7,14.46c-11.54,12.26-17.4,5.91-24.03,10.49c0-3.36,2.24-5.19,3.67-7.84
		c-4.28,2.34-5.69,5.09-5.19,9.16C330.99,143.37,327.72,137.62,328.5,148z M330.13,145.56c0-8.48-4.18-5.58,83.79-4.28
		c1.32,2.04,0.92,3.87,0,5.9C386.02,146.68,358.13,146.07,330.13,145.56z"/>
	<path d="M591.27,215.4c0,1.94,1.36,1.89,2.04,1.22c3.67-5.88-3.95-16.87-0.2-30.14c1.65-5.83,3.77-11.39,1.73-17.1
		c-0.52-1.17,0.46-13.3,7.74-24.94c7.84-12.55,11.86-4.4,25.96-15.58c5.53-4.38,7.57-1.5,7.33-4.17c12.07-5.89,17.32-4.9,16.7-21.99
		c-0.1-2.75,2.04-4.78,1.63-7.84c-0.92-0.2-2.75,0.1-2.65-2.14c0.2-1.02,1.63,0.71,1.93-0.71c0.71-1.53,0.51-3.26,0.61-4.99
		c-0.92-1.32-2.65-1.93-2.65-3.77c2.24-0.1,3.87,2.95,4.58,8.55c2.55-2.04,3.07-4.99,3.56-7.53c0.84-4.37,4.17-7.43,5.6-11.5
		c0.61-1.73,3.87-1.73,5.19-3.56c-0.18-1.07-1.13-1.89-1.3-3.03c-4.08,0.79-1.87-3.59,0.63-0.85c1.48,0.07,1.59,1.82,2.61,2.66
		c0.71-2.75,3.05-2.83,4.89-2.55c2.74,0.43,5.48-0.27,8.14,0.61c1.62,0.53,2.95-0.81,4.99-1.12c0.1,4.48,1.02,8.76,2.85,12.62
		c-8.65,5.09-8.76,5.19-7.23,10.38c0.92-0.81-0.1-2.14,1.02-3.16c1.73,0.61,3.46-0.2,5.5-0.92c2.19-10.63,2.13,0.17-0.71-19.75
		c1.53-2.65,4.38-3.46,6.52-5.5c0.31-1.02-0.41-2.34,0.2-3.46c-1.32-0.92-2.75,0-3.87-0.61c0.31-1.32,2.55-1.02,2.34-3.05
		c-1.73-1.32-3.16,0.31-4.68,0.92c-0.61-1.83,0.31-3.77-0.92-5.9c-6.4,5.94-3.18,2.98-4.89,1.73c-6.21,2.24-13.13,1.83-19.85,2.04
		c-1.32,0.61-1.32,2.24-2.95,2.65c-1.32-0.1,0.31-2.24-1.63-2.24c-1.93,2.34-4.48,4.48-8.14,4.48c-1.53-0.81-2.75-2.85-5.19-1.83
		c-0.2,1.53,1.43,1.93,1.73,3.05c-1.63,1.12-1.22,3.26-2.24,4.78c0,0.01,0.01,0.01,0.01,0.01c-1.72,1.72-1.57,4.2-2.25,6.2
		c-0.44,1.31-3.82,10.09-2.44,13.54c2.14,4.28,2.19,8.97,3.56,13.44c3.07,9.98,6.49,21.5-3.46,24.74
		c-20.27,6.6-20.6,12.65-29.22,13.85c-14.23,1.97-19.39,15.95-23.31,30.54c-2.16,8.04,3.77,10.15-0.1,18.83
		C585.53,194.48,591.69,207.56,591.27,215.4z M690.12,82.64c0.71-0.92,1.53-1.02,2.44-0.51C691.96,83.35,691.14,82.95,690.12,82.64z
		 M695.72,56.88c1.77-0.59,0.66,1.54-0.81,2.75C694.2,58.1,694.09,57.19,695.72,56.88z M690.53,51.69c0.31,1.02-0.1,1.53-1.32,2.04
		C689.51,52.71,689,51.69,690.53,51.69z M682.08,63.91c-0.81,0.2-1.32-0.1-1.83-0.61C681.06,62.79,681.57,62.99,682.08,63.91z
		 M678.42,60.34c0,0.61-0.31,0.81-0.92,0.31C677.8,60.55,677.91,59.73,678.42,60.34z M677.4,54.74c-1.02,1.12-1.73,1.93-3.05,2.55
		C674.45,55.36,675.16,54.44,677.4,54.74z M664.26,70.42c1.22,1.12,0.41,1.63-0.92,2.75C663.65,71.85,663.25,71.03,664.26,70.42z
		 M652.35,78.77c-0.92-1.73-0.92-2.85,0.41-3.97C652.66,75.92,652.56,77.04,652.35,78.77z M662.43,56.27
		c-0.51,0.92-0.81,1.83-2.55,1.43C660.7,56.98,661.11,56.07,662.43,56.27z M662.74,62.79c-0.31,1.73-1.12,2.44-2.85,3.36
		C660.5,64.31,661.11,63.4,662.74,62.79z M659.68,76.43c-0.41,0.61-0.31,1.73-1.63,1.53C658.05,76.84,658.36,76.33,659.68,76.43z
		 M659.07,85.19c-0.41,0.51-0.61,0.92-1.22,1.83C657.85,85.69,657.85,85.19,659.07,85.19z M657.65,75.92
		c-1.02,0.61-1.32,1.22-2.34,1.12C655.51,76.23,655.61,75.51,657.65,75.92z M656.22,62.69c-0.31,1.53-0.92,2.14-2.04,1.53
		c-2.74-1.51-3.33,1.33-4.89,1.02c0.16-1.92,2.53-1.14-0.1-3.77C651.64,60.96,653.57,63.5,656.22,62.69z M650.01,86.1
		c2.15,1.84,2.33,1.19,0.2,4.38C648.99,88.95,647.87,87.73,650.01,86.1z"/>
	<path d="M898.74,307.23c-1.02-1.42-2.54-1.15-3.87-1.22c-0.16-0.01-44.88-1.22-52.94-1.22c-1.65-5.97,0.12-35.68-14.76-36.24
		c-9.63-0.37-16.75-0.25-20.26,35.63c-24.84-0.92-49.78-0.92-74.52-1.12c-10.59-40.98,2.79-31.38-1.12-66.58
		c0-2.66,2.67-5.76-0.92-15.68c-3.05-8.43,2.99-17.61-2.14-29.63c-4.42-10.35,3.91-14.4,1.22-32.07
		c-3.3-21.75-21.82-19.68-31.76-27.69c-9.67-7.79-16.21-6.35-14.97-10.79c1.6-2.4,4.28,0.52,6.31-5.4
		c2.24-6.53,6.09-23.14,4.58-27.79c-2.01-6.22-0.76,3.59-2.34,8.55c-1.17,3.65,0.09,7.63-1.22,11.3
		c-3.98,11.14-0.94,12.88-17.31,9.16c-0.44,1.31-1.02,0.57,7.64,3.56c1.02,3.46,1.22,7.13,0,11.4c4.21-3.03-1.05-8.85,7.74-3.36
		c2.65,7.33,1.75,14.36-0.41,21.58c-2.01,6.73-7.13,9.06-13.03,10.69c-4.82,1.33-7.24,0.31-21.07-5.4
		c-9.4-3.88-10.1-11.07-12.22-18.53c-1.18-4.16-1.83-8.35,0.61-12.83c-2.75,1.53-3.59,3.06-3.36,6.01
		c1.12,14.42,5.44,26.13,19.34,29.32c5.03,1.15,9.93,6.39,18.02,3.05c9.85-4.06,10.87-4.94,12.42-8.35
		c6.78-14.88,0.88-22.62,1.73-24.33c6.43,0.58,3.4,21.16,11.3,49.27c0.92,3.26,0.41,6.62,1.43,9.57c-1.02,1.02-2.14,0.31-2.95,0.81
		c-0.42,2.11,5.67-0.89,4.99,7.74c-2.77,35.34-10.48,31.94-6.52,41.64c1.12,2.74-1.29,16.75,0,25.76c0.66,4.6-3.38,3.87-7.94,3.87
		c0.81-2.95,2.14-5.7,0.2-8.55c0.2,3.05-1.12,5.8-1.93,8.76c-2.55,1.02-5.39,0.54-8.04,0.81c-5.39,0.57-10.89,1.7-16.29,0.2
		c-8.95-2.49-18.34-3.32-27.28-6.11c-21.35-6.67-12.91,3.54-13.44-10.08c-1.79-46.45-6.6-25.84-2.44-43.68
		c1.53,0.41,1.83,2.14,3.46,2.44c-0.2-1.93-1.73-2.75-2.85-3.97c2.14-11.75,1.83-5.01,4.78-5.7c-2.75-2.34-3.5-5.2-2.95-8.55
		c0.48-2.96-0.71-6.31,3.26-8.86c0.41-0.2,1.53,1.12,2.65,0.41c0-1.32-1.83-0.92-2.04-2.34c4.78-6.62,6.24-14.85,9.06-22.5
		c4.26-11.55,0.7-20.76-0.55-33.81c-1.99,3.31-0.74,6.45,0.04,9.68c-4.77,1.06-0.4,0.62,0.51,2.44c0.81,4.48,0.71,9.16,0.41,13.23
		c-0.92,1.53-2.14,0.61-2.85,1.43c0.61,0.51,1.73-0.2,2.24,0.71c-0.41,8.25-5.7,24.03-9.88,28.81c-2.65-1.12-1.6-3.88-2.34-5.8
		c-0.79-2.05-1.53-4.07-1.32-6.31c-3.39,6.41-0.89,1.1-0.81,16.7c0.16,33.57-10.87,29.83-6.31,46.63
		c5.21,19.22-1.96,23.38,1.83,36.85c1.32,4.68,1.62,9.67,3.67,14.15c4.82,10.56,6.2,8.55,5.5,19.14c-1.43,0.61-2.95,1.22-3.05,3.05
		c1.12,1.02,2.65-0.41,3.56,1.22c-1.02,2.44-1.63,5.4-4.99,6.21c-1.02-2.14,0.71-4.28-0.41-6.41c-2.58,2.82,0.67,8.87-6.31,6.41
		c-0.24-1.9,1.31-6.26,0.37-7.68c-2.09,2.73-1.9,5.36-3.01,7.78c-7.48,0-1.59,1.46-2.76-8.35c-2.04,2.24-1.43,4.78-2.44,6.62
		c-3.59,0.85-1.18-3.78-2.75-6.11c-5.9-8.75,2.95-15.33,0.81-24.94c-3.49-15.69-13.95-40.19-10.59-61.49
		c1.43,3.4,4.05,6.41,4.48,5.44c-4.12-9.48-1.88-11.64-2.39-12.15c-2.55,0.54-0.83,3.78-3.34,3.85c-5.77,19.16,6.66,50.42,9.4,61.09
		c2.82,11.01-1.28,10.94-2.44,21.38c-33.6-0.41-67.19-1.53-100.89-2.44c-1.33-14.12-1.56-36.02-14.86-36.24
		c-9.37-0.15-11.55,1.1-14.97,9.98c-3.09,8.03-4.17,16.39-4.99,25.35c-67.08,0.66-64.92-6.44-61.89,9.57
		c20.36,0.41,40.72,0.92,61.19,1.32c1.31,12.88,0.65,35.42,13.34,37.97c8.04,1.62,12.33-0.1,15.58-7.64
		c3.99-9.24,5.42-19.37,6.01-29.42c34.72,0.71,69.33,0.81,103.74,2.34c1.46,1.46-0.08,4.25,4.8,3.7c-2.25,13,1.56,18.71-10.29,70.42
		c4.99,1.93,9.57,4.38,14.86,5.29c0.71,5.8-0.01,11.61,1.12,17.21c1.97,9.76-3.68,21.09-2.14,31.97
		c1.65,11.62,12.37,72.33,20.46,78.29c1.35-2.51-4.41-4.33,7.84-5.8c2.44-1.63,4.99-2.34,7.74-1.53c-4.3,2.15-14.46,0.63-13.24,8.86
		c0.11,0.71-0.41,1.32-1.12,1.73c-0.51-0.31-0.92-0.51-1.43-0.81c-1.53,4.07-3.26,8.14-2.04,12.62c-2.24,2.85-2.95,6.21-3.87,9.67
		c1.53,2.14,4.17,2.95,5.6,5.09c0.41-3.05-2.75-3.46-3.77-5.5c-0.27-1.36,3.78-6.84,3.05-12.62c-0.33-2.64-0.29-5.68,3.16-7.23
		c2.45-1.1,2.34-3.97,2.75-6.41c3.87-2.34,7.94-2.95,12.22-2.65c0.51,2.14-0.1,3.67-0.51,5.19c0.41,0.81,1.93,1.12,1.43,2.55
		c-1.03,1.03-4.79-3.39-11.4,0.92c-0.92,0.6-2.65,1.32-0.71,2.85c0.27,0.16,0.2-0.24,0.2,1.83c7.53-2.74,13.02,2.97,13.43-1.51
		c2.06,1.16,2.47,3.5,2.56,5.27c0.25,5.29,3.53,8.78,6.62,12.32c4.95,5.67,1.47,6.98,4.48,10.59c1.7-0.62,1.29-1.2-0.2-7.84
		c-0.98-4.35-6.64-4.61-8.35-14.15c-1.69-9.46-6.65-10.83-5.6-16.19c0.7-3.57-1.63-6.01-4.48-8.14c-2.44-13.95-2.24-28,1.02-42.05
		c4.49-19.33-3.41-31.12-2.24-47.95c0.63-4.43,3.01-3.3,3.56-16.19c0.07-1.7,1.04-6.35,2.75-6.92c10.64-0.75,3.71-3.23,6.82-32.99
		c0-0.51,0-0.92,0-2.24c-1.73,3.46-1.87,6.51-2.14,9.47c-1.64,17.87,2.8,23.95-3.36,23.52c-12.34-0.87-9.79,2.4-25.55-0.71
		c-43.53-8.59-19.33,2.6-18.53-55.79c0.02-1.63,0-1.63,1.12-3.67c3.26,2.55,3.67,6.41,5.09,9.88c1.43-4.99-1.43-8.45-4.89-11.71
		c0.41-4.28,0.81-8.65,1.22-13.64c4.58,2.04,8.86,0.41,13.54,0.1c0.92-1.32,1.93-2.85,3.05-4.58c25.76,0.41,51.62,0.81,77.78,1.63
		c-0.51,26.67,0.92,53.04,0.2,79.92c-15.33,2.47-23.48,8.64-35.84,1.22c-1.4-0.84-10.39-5.56-11.91-4.38
		c1.63,2.24,4.68,2.34,6.72,4.17c-0.51,2.14,1.26,3.44,2.14,5.19c6.18,12.32-0.64,26.74,1.43,48.36
		c1.58,16.52,13.71,29.28,15.37,51.01c0.29,3.82,3.54,9.94,2.24,14.05c-3.22,10.16-0.27,9.81-1.63,11.5
		c-2.65,2.95-2.42,7.14-4.28,10.49c-1.41,2.55,1.73,6.63,5.5,7.33c7.2,1.34,8.98,0.37,14.05,2.14c1.22,4.48,8.04,5.7,15.98,5.5
		c-2.44-1.63-5.09-1.3-7.43-1.63c-9.12-1.27-5.25-5.8-9.16-9.06c-0.71,1.12,0.81,1.93-0.1,2.95c-6.95-2.45-16.12,1-17.61-6.11
		c2.44-2.65,1.04-6.9,3.67-9.77c2.77-3.03,0.31-7.02,1.83-10.38c1.02-0.41,1.02,0.92,1.73,1.32c6.18,2.91,3.08-3.41,10.49-4.89
		c-3.05-1.22-2.55-3.87-3.97-5.7c3.36-1.53,7.13-0.2,10.28-2.24c1.24,3.97-1.28,6.12,2.55,7.53c-14.63,4.47-7.63,3.61-8.76,7.84
		c3.26-2.75,6.62-1.43,10.49-0.92c-2.75,1.02-5.7,0.41-6.92,3.87c5.09-0.2,9.77-1.43,14.46-0.2c-3.97,1.63-8.65,1.02-12.62,4.48
		c5.4,1.02,9.98-2.34,14.56-0.2c-3.26,0.61-6.72,0.2-9.67,2.55c3.77,1.32,7.33-0.1,10.89-0.51c3.87,1.63,6.45,4.93,9.88,7.13
		c3.18,2.04,1.18,5.69,4.28,10.69c0.51-0.2,0.93-0.51,0.81-1.02c-0.85-3.88-1.31-7.75-4.28-11.1c-5.95-6.73-9.37-6.18-9.88-8.96
		c-0.56-3.05-2.35-5.08-4.89-6.72c-3.47-2.23-4.68-6.62-8.76-8.25c2.65-11.05-5.52-7.34-7.84-8.14c-0.81-1.73,0-3.56-0.92-5.5
		c-1.22,1.83-0.2,3.67-0.41,5.5c-2.34,0.81-4.78,0.71-7.23,1.02c-1.12-2.34-0.81-4.99-2.14-7.64c-1.5,4.5,2.58,8.79-1.83,8.35
		c-1.17-1.75-1.34-9.3-3.56-19.55c-2.37-10.96-15.09-27.21-12.93-48.56c0.85-8.42-0.42-13.99-0.1-14.66
		c3.97-8.37-0.06-16.44-2.75-25.86c10.62,5.31,12.17,6.25,25.55,1.93c11.07-3.58,0.16-0.8,6.92,38.69
		c3.31,19.35-0.33,63.27,2.65,65.26c1.02-0.31,0.61-1.12,0.61-1.73c-0.34-51.7,1.79-57.23-2.44-69.03
		c-0.25-0.7-2.5-20.44-0.71-27.59c2.08-8.3-2.85-6.29,7.74-9.98c-2.32-8.91,1.7-16.22-0.81-64.75c-0.19-3.67,0.51-7.33,0.81-10.89
		c5.82-0.81,13.58,0.63,14.35,0c2.42-1.96,5.62-1.9,8.25-3.56c1.37-0.87,74.74,0.77,75.95,1.83c0.69,9.47,1.26,34.73,11.3,36.96
		c10.2,2.27,13.34,1.02,18.02-8.35c11.33-0.25,4.16-11.37,5.5-27.9c1.53-0.81,2.95-0.51,4.38-0.41c52.37,0.98,52.09,2.53,53.65-1.53
		C900.25,311.7,900.36,309.48,898.74,307.23z M624.36,183.94c0.81,0.51,0.92,1.02,0,1.83C624.05,184.96,623.64,184.45,624.36,183.94
		z M406.49,303.87c0-2.24,0-3.77,0-5.9c22.8,0.51,45.3,1.02,67.7,1.53C475.75,307.27,478.41,305.17,406.49,303.87z M476.33,309.98
		c3.05,4.65,3.55,10.08,4.99,15.27c0.71,2.55-0.2,4.38-2.14,5.8c-2.96-1.48-2.97-14.05-3.16-17.51c-0.45-8.5-2.83-2.63-3.26-2.44
		c-4.05-7.28,5.27,2.86,3.05-13.24c-1.32-1.12-2.75-0.2-3.87-1.43c3.45-12.65,10.65-2.71,6.62,12.83c-1.63-0.1-1.12-1.73-2.14-1.83
		C475.82,308.45,475.8,309.17,476.33,309.98z M474.29,327.9c-2.04-1.83-2.14-9.67-0.31-12.32
		C473.68,319.95,474.19,323.92,474.29,327.9z M470.32,318.63c0.4,1.94,1.12,3.87-0.31,5.9c-2.24-14.25-2.24-14.97,0-17.31
		c0.71,2.14,1.32,4.07,1.93,5.9C471.54,315.17,469.9,316.6,470.32,318.63z M466.04,308.55c0.01-1.21,1.14-1.18,1.12,0
		c-0.1,7.21,1.47,25.05,6.21,27.9c-2.47-6.71-2.89-5.94,1.63-6.31c0.51,0.71,0.91,1.63,1.53,2.34c3.98,4.56,8.2-3.08,7.33-6.62
		c-1.03-4.17-1.69-8.42-3.36-12.42c-1.97-4.7,2.38-11.16-0.61-20.77c-1.41-4.51-6.95-3.67-7.94-0.31
		c-5.3,18.02-2.7-19.67,7.02-27.69c-2.04,0-3.27,1.01-4.28,2.85c-8.41,15.34-4.45,21.62-7.43,29.32c-0.81-0.51-0.92-0.92-0.81-1.43
		c9.46-72.56,33.88-7.52,17.61,37.77C475.13,358.06,465.9,333.87,466.04,308.55z M492.01,337.57c-2.89,6.19-5.4,7.43-12.73,6.52
		c11.5-12.52,15.39-59.46,3.26-81.24c6.43-0.66,10.03-0.35,12.93,10.89C501.72,297.93,497.51,325.78,492.01,337.57z M500.05,305.7
		c-0.71-1.93-0.41-3.56-0.1-5.7c33.9,1.02,67.5,1.02,101.6,2.34C600.41,310.32,627.21,308.72,500.05,305.7z M651.33,524.79
		c-4.1-1.28-7.3-1.43-11.91-1.43C643.5,521.43,648.89,522.14,651.33,524.79z M615.5,391.22c3.46,0.71,1.32,4.28,3.36,5.7
		c0.81-1.12-0.2-2.65,1.02-3.97c13.82,4.87,38.02-5.78,22.4,6.72c-0.31,2.04-0.81,3.97-0.81,6.01c0,3.1-9.62,8.93,1.73,2.55
		c0.51-2.75,0.81-5.4,0.41-7.94c0.81-0.51,1.53-1.02,2.34-1.02c3.25,5.77-6.26,9.96-1.53,33.39c3.23,16.01,3.04,18.51-1.93,53.96
		c-0.81-1.83-0.71-3.97-1.83-5.7c0.51,9.06,4.68,17.61,3.97,26.98c-4.68,1.02-9.16,2.65-13.85,4.28c-0.2-4.68-2.52-8.56-3.77-12.83
		c-4.48-15.3-6.4-31.06-10.59-46.42c-2.64-9.67-2.4-19.66-0.61-29.52C618.04,411.02,616.95,408.63,615.5,391.22z M710.08,515.73
		c-2.04-0.1-3.97-0.31-6.01-0.51C706.21,514.1,708.35,512.98,710.08,515.73z M693.08,505.35c1.12,1.73,2.04,3.46,2.44,5.7
		c-2.24,0.81-2.75,3.56-5.29,4.68C688.71,513.68,684.54,504.45,693.08,505.35z M704.89,220.69c3.18,6.22-0.99,15.73,1.32,27.79
		c3.53,18.38,12.91,35.07,1.43,43.98c-1.12-6.11-3.52-11.62-5.6-17.21c-0.8-2.14,0.81-4.07,0.1-6.21
		c-2.31-6.92,0.72-24.65-1.12-36.96C700.83,230.81,701.44,230.4,704.89,220.69z M699.8,269.36c0.41,1.53,0.61,2.95-0.31,4.17
		C699.18,272.21,697.76,270.78,699.8,269.36z M694.7,270.68c0.51,0.1,0.81,0.31,0.71,0.71C695.42,271.96,694.3,271.9,694.7,270.68z
		 M692.77,272.21c-0.1,0.2-0.41,0.2-0.61,0.31c-0.71-0.41-0.81-1.12-1.02-2.04C693.08,270.27,693.08,271.09,692.77,272.21z
		 M688.29,270.98c1.53-0.31,1.73,0.51,1.43,2.04C688.49,272.51,687.88,272.1,688.29,270.98z M684.73,272
		c0.61,0.41,1.32,0.51,0.92,1.53c0.71,0,1.32-0.81,2.34-0.1c-0.92,0.61-1.63,0.61-2.34,0.1C684.83,273.43,683.91,273.53,684.73,272z
		 M669.76,272.41c-1.12,0.2-1.83,0.51-2.95-0.2C668.03,271.39,668.74,272,669.76,272.41z M664.06,271.49
		c-6.01,2.04-11.81,0.61-17.41-0.51C644.96,268.03,650.62,271.26,664.06,271.49z M643.6,268.54c0.61,0.71,1.32,1.12,0.51,1.93
		C642.99,270.27,642.27,269.97,643.6,268.54z M641.05,267.63c0.61,1.22,0.71,1.93-0.92,2.04
		C639.53,268.54,639.63,267.93,641.05,267.63z M638,266.91c0.71,0.61,0.41,1.22,0,1.83C637.29,268.13,637.49,267.52,638,266.91z
		 M635.25,264.16c0.31,1.63,0.41,2.85,0.61,3.97C630.66,268.93,633.38,265.26,635.25,264.16z M631.48,264.77
		c-0.51,1.43,0.92,2.65-1.32,2.95C629.65,266.61,630.16,265.89,631.48,264.77z M629.45,264.67c-0.81-1.32-2.04-1.32-3.26-1.22
		C628.73,262.84,628.73,262.84,629.45,264.67z M626.7,266.71c-0.51-0.71,0-1.02,0.51-1.32C628.81,266.99,626.87,267.06,626.7,266.71
		z M618.15,234.45c-1.54-4.68-0.31-8.76,0.1-13.34c1.74,1.3,2.68,13.05,3.05,15.98c1.58,12.39,0.93,23.53,0.82,23.61
		c0.21,0.49,1.11,0.64,1.11,0.41c0.1,1.53,1.12,3.05-0.2,4.4c-1.63-0.71,0.31-2.75-1.73-3.46c-1.93,2.14,0.61,5.29-1.93,8.04
		C617.73,248.74,622.87,248.8,618.15,234.45z M625.59,288.8c-1.84-2.85-2.24-6.31-4.17-9.06c-0.6-1.21,4.43-2.39,5.28-9.67
		c-1.3,2.91-3.89,5.23-4.74,8.33c-2.57-3.53-2.3-5.69,1.28-10.87c19.5,3.81,9.58,0.1,14.35,10.38c0.61-2.85-0.2-5.09,0.51-7.64
		c8.55,2.55,17.1,4.28,25.86,3.67c0.58,0.85,4.05,10.27,2.04,0.2c4.38,0.31,8.45-1.83,12.52,0.2c0.61,3.46,1.32,4.89,4.07,7.84
		c0.2-3.16-2.55-5.8-1.83-9.16c-2.65-0.61-5.4-0.2-8.14-0.61c3.36-1.93,7.13-0.2,10.69-1.22c-0.2,0.92-0.31,1.63-0.41,2.24
		c0.71,0.71,2.04,0.51,2.24,1.73c0,8.17,0.09,9.71,2.34-0.2c17.8,1.3,8.85-6.53,14.76,5.29c4.93,12.14,2.84,24.86-2.14,21.38
		c-0.92-2.24-0.51-5.29-4.28-6.82c0.81,2.65,1.43,4.78,2.14,6.82c-5.9,0-11.61,0-17.1,0c-1.12-2.85,0-6.01-2.85-8.35
		c-0.1,3.05,1.63,5.4,1.12,8.14c-4.78,0.1-9.47,0.2-14.15-1.02c-0.59-8.19,0.08-1.14-0.92,0.51c-31.76,0-29.08-1.41-34.82-0.41
		C629.14,295.93,628.22,292.88,625.59,288.8z M726.06,306.82c1.43,1.22,2.75,0.1,4.17-0.1c0,5.09-0.2,5.6-3.16,6.21
		c-0.71-0.41,0.2-1.63-0.81-1.93c-1.43,1.02-0.71,2.75-1.83,3.97c-5.86,1.95-0.94-1.39-2.65-4.17c-1.53,1.43-1.32,3.56-2.75,4.89
		c-1.32-0.31-2.75-0.1-3.97-0.71c-0.31-1.63,1.63-2.85,0.51-4.58c-2.14,0.92-1.83,3.36-3.46,4.89c-1.12-0.2-2.65,0.41-3.77-0.92
		c0.51-2.75,0.71-5.4,0-8.35c-6.6,5.77,15.21,4.52-79.41,2.65c0-2.04,0-3.67,0-5.8c26.37,0.61,52.74,0.61,79,1.83
		c0.2-1.83-0.81-2.75-1.93-3.46c-1.41-7.97,8.31-10.23,8.35-14.05c0.05-4.79,1.22-9.47-0.1-14.25c-1.34-4.86-7.49-27.61-6.52-32.58
		c1.26-6.43,0-12.83,0.2-19.24c0.41-0.2,0.71,1.32,1.53,0.51c-1.02-3.77-2.83-7.53-2.34-11.4c0.86-6.82-0.1-13.74,1.43-20.97
		c8.76-8.04,13.54-20.46,11.2-28.3c-0.2,1.53-1.22,2.04-1.93,2.55c0.61,13.89-9.99,21.02-11.61,24.84
		c-5.5-18.12-6.52-36.85-9.88-55.38c12.89,9.92,19.61,5.56,25.15,12.83c15.6,20.49-0.22,33.13,5.8,46.63
		c2.68,6,1.64,12.92,1.43,18.43c-0.73,18.68,4.75,14.59,2.04,21.58c-0.88,2.26-0.99,4.69-1.32,7.02c-0.28,1.94,1.82,2.24,1.53,4.07
		c-0.43,2.75-0.02,5.49-0.41,8.25c-5.17,36.77-4.68,35.09-0.1,47.85C732.33,304.87,726.35,305.65,726.06,306.82z M732.07,311
		c1.21-8.88-8.53-5.3,84.81-4.28c0.41,2.34,0.61,4.07-0.41,5.9C788.37,312.12,760.27,311.5,732.07,311z M819.62,298.88
		c3.97,4.58,3.46,17.92-0.81,21.18C820.74,313.03,821.46,306.11,819.62,298.88z M816.47,320.36c-1.63-1.63-1.93-3.16-2.04-4.78
		c1.71-1.09,5.6,1.85,3.97-10.38c-1.43-1.12-2.75-0.31-3.77-1.22C817.65,289.76,822.84,311.13,816.47,320.36z M810.46,336.24
		c-1.32-6.92-2.24-13.85-1.73-21.07c1.53,0,2.85-0.31,4.07,0.2c1.28,1.7,0.32,6.24,4.99,6.52c6.54,0.39,6.1-14.85,4.78-21.18
		c-1.02-4.91-6.86-4.98-8.45-0.2c-0.41,1.22-0.31,2.65-1.22,3.67c-1.32,0.2-2.55,0.51-3.97-0.31c1.61-28.94,14.26-46.48,19.85-21.38
		C838.68,326.91,818.32,377.58,810.46,336.24z M837.54,341.64c0.92-3.97,1.93-7.94,2.85-11.91
		C841.41,338.28,840.8,340.72,837.54,341.64z M834.18,346.12c-2.71,5.31-5.8,6.62-12.22,5.4c10.21-11.64,11.16-39.49,10.08-54.87
		c-1.72-24.37-7.96-23.78-6.72-26.27c5.69-0.34,10.18-0.72,13.34,13.74C842.71,302.65,841.78,331.21,834.18,346.12z M842.43,313.34
		c-0.51-2.04-0.31-3.77,0-5.9c18.73,0.41,37.16,0.81,55.38,1.22C901.66,316.62,898.66,314.58,842.43,313.34z"/>
	<path d="M623.24,351.72c23.25-16.61,19.4-8.23,34.72-10.89C637.7,336.5,624.88,345.55,623.24,351.72z"/>
	<path d="M662.94,551.26c-1.73-1.12-3.66-1.01-5.19-0.31c-3.97,1.84-8.73,1.36-12.42,4.38c-1.01,0.82-2.34-0.02-3.46-0.2
		c-4.26-0.69-8.76-0.71-10.59-5.9c-0.31,3.77,1.12,5.72,4.38,6.41c12.98,2.75,13.3,2.41,10.89,0
		C652.15,553.71,657.34,551.97,662.94,551.26z"/>
	<path d="M248.28,547.39c-2.04-1.12-3.67-1.32-5.9-0.41c-3.97,1.63-8.35,1.53-12.12,4.17c-2.03,1.43-10.69-1.73-12.32-3.87
		c-0.41-0.71-0.61-1.63-1.53-1.93c-0.2,3.26,1.12,5.31,4.48,6.01c16.92,3.53,11.24,1.55,11.4-0.1
		C237.28,549.63,242.47,547.8,248.28,547.39z"/>
	<path d="M267.01,78.57c-1.12-4.48-8.55-4.89-13.64-0.71c1.73,0.51,2.44-0.92,3.87-1.22c1.53,0.92,3.77,0.2,6.01,1.43
		c-2.65,0.2-6.82,1.53-8.45,2.65C266.54,82.27,262.67,78.57,267.01,78.57z"/>
	<path d="M678.31,85.08c0.51-1.43,1.63-2.44,3.46-2.04c0.1-1.93-0.71-3.06-2.24-3.26c-4.07-0.53-8.14-1.22-11.61,2.34
		c1.73,0.71,2.44-0.92,3.97-1.22c1.53,0.71,3.56,0.51,5.9,1.12c-2.95,1.12-5.7,0.92-8.86,2.75
		C672.51,85.49,675.06,85.39,678.31,85.08z"/>
	<path d="M662.84,350.8c4.99,8.35,10.08,16.59,14.35,25.96C676.99,371.47,668.13,355.38,662.84,350.8z"/>
	<path d="M671.29,235.66c-0.41-7.53,3.77-14.56,1.32-22.19C673.03,220.71,666.47,234.21,671.29,235.66z"/>
	<path d="M281.98,397.84c-1.43,1.73-0.71,3.77-1.32,5.5c-1.12,1.63-3.36,1.83-4.38,3.87c3.46,2.85,0.31,6.52,1.22,10.59
		c2.34-3.56,2.85-6.62,1.22-10.18C283.5,405.47,281.87,401.3,281.98,397.84z"/>
	<path d="M678.92,391.32c5.9,0.41,7.79-0.41,7.84-3.67c0.04-2.44-1.73-4.16-4.28-4.07C679.13,383.7,678.31,385.52,678.92,391.32z
		 M684.83,386.94c0.3,1.73-0.2,3.05-2.14,3.26c-1.35-0.54,1.57-2.5-2.44-1.83C679.29,384.52,684.38,384.31,684.83,386.94z"/>
	<path d="M696.64,402.01c-1.22,1.53-0.71,3.46-1.02,5.29c-1.02,1.83-3.46,2.04-4.68,4.17c3.87,2.55,0.2,6.41,1.53,9.88
		c2.34-3.16,2.34-6.21,1.12-9.67C698.06,409.55,696.54,405.47,696.64,402.01z"/>
	<path d="M687.07,387.05c4.97,10.55,13.72-2.85,5.19-4.07C689.82,382.46,688.39,383.69,687.07,387.05z M691.35,384.4
		c3.34-0.22,3.93,4.35,0.2,5.09C688.2,389.01,688.37,384.6,691.35,384.4z"/>
	<path d="M700.81,387.66c0.92,0.51,0.31,1.83,1.93,2.24c0.71-2.44,0.31-4.89-0.1-7.23c-2.32-1.66-8.6,0.67-5.9,3.36
		c1.43,1.43,0.41,2.55,0.31,3.87C699.18,390.41,698.98,387.55,700.81,387.66z M701.22,384.09c-1.12,2.44-1.53,2.55-3.16,0.51
		C698.88,383.79,699.8,383.48,701.22,384.09z"/>
	<path d="M638.41,530.59c5.09-1.12,9.77-2.65,14.76-0.61C650.62,525.5,641.76,525.71,638.41,530.59z"/>
	<path d="M645.53,367.19c-0.49,6.63-2.04,13.03-1.73,19.55c0.51-6.01,2.43-11.81,2.65-17.82c0.09-2.55,1.32-4.78,3.16-6.72
		C648.43,360.89,645.71,364.84,645.53,367.19z"/>
	<path d="M241.46,95.67c-0.31,4.38-0.01,7.85,3.97,10.08c2.74,1.54,5.09,3.77,8.35,5.19C253.99,109.41,243.64,99.79,241.46,95.67z"
		/>
	<path d="M656.73,98.83c-1.63,5.6,0.1,9.57,4.58,12.22c2.55,0.81,4.28,3.26,7.43,4.07C666.29,108.57,658.66,113.45,656.73,98.83z"/>
	<path d="M224.15,525.91c4.68-0.71,9.26-2.14,14.05-0.31C236.06,521.33,227.71,521.43,224.15,525.91z"/>
	<path d="M223.44,522.04c4.38-2.14,8.76,0.81,13.13-0.1C233.61,517.35,221.33,518.89,223.44,522.04z"/>
	<path d="M640.03,532.53c4.28,0.2,8.04-1.02,11.81-0.92C648.48,529.07,643.09,529.37,640.03,532.53z"/>
	<path d="M225.17,528.25c4.38,0.2,8.14-1.12,12.62-0.61C233.82,524.79,228.53,525.1,225.17,528.25z"/>
	<path d="M664.57,316.09c0.1,6.92,0.92,13.95-1.12,20.77C665.89,333.19,666.5,321.89,664.57,316.09z"/>
	<path d="M667.83,145.05c-3.67-5.19-9.57-5.9-15.17-7.13C657.34,140.98,663.45,141.18,667.83,145.05z"/>
	<path d="M666.3,383.38c-0.2-5.9-4.99-10.08-5.8-15.78C659.48,374.01,664.67,377.98,666.3,383.38z"/>
	<path d="M644.21,185.06c4.78-1.02,9.67-0.92,14.56-1.83C655.41,181.7,648.99,182.51,644.21,185.06z"/>
	<path d="M684.42,440.7c-0.31,2.24-1.08,4.47-0.71,6.62c2.78,16.34,1.37-4.24,1.93-6.62C685.24,440.8,684.83,440.7,684.42,440.7z"/>
	<path d="M681.06,110.13c2.44,1.12,4.68,0.61,6.92-0.51C685.54,106.46,682.9,106.67,681.06,110.13z"/>
	<path d="M697.76,188.62c0.83-1.66,1.09-0.99-10.89-3.26C686.08,187.71,694.95,188.7,697.76,188.62z"/>
	<path d="M730.13,545.76c0.31,1.22,1.73,0.61,2.34,1.73c-2.95,0.81-6.21,0.61-8.96,2.14C741.54,549.63,734.02,544.55,730.13,545.76z
		"/>
	<path d="M717,549.33c4.48,1.32,7.02-3.67,11.3-3.46C723.82,544.85,720.56,547.6,717,549.33z"/>
	<path d="M270.27,436.42c-1.83,4.28-0.92,8.65,0.2,12.93C271.18,445.08,270.27,440.7,270.27,436.42z"/>
	<path d="M263.04,100.25c0,3.43,7.14,0.7,11.71,0.1C270.78,99.03,267.01,100.97,263.04,100.25z"/>
	<path d="M685.14,402.83c-1.43,1.02-1.22,2.85-2.34,3.97c-1.63,1.12-3.87,0.2-6.01,1.63C682.49,410.26,685.44,408.53,685.14,402.83z
		"/>
	<path d="M270.57,398.65c-1.63,0.92-1.22,2.75-2.55,3.97c-1.32,1.02-3.67,0-5.7,1.43C265.7,406.3,271.12,405.18,270.57,398.65z"/>
	<path d="M689.51,105.24c-0.1-0.41-0.1-0.81-0.1-1.32c-3.87-0.41-7.64,1.12-11.5,1.43C681.88,106.77,685.64,105.04,689.51,105.24z"
		/>
	<path d="M266.3,105.75c2.44,1.32,4.58,0.61,7.23-0.41C270.37,102.29,268.23,102.49,266.3,105.75z"/>
	<path d="M686.66,140.37c-5.19,1.63-10.49,1.83-15.27,4.58C674.04,145.15,683.1,142.4,686.66,140.37z"/>
	<path d="M653.68,556.96c3.97,0.92,7.53-0.2,11.2-0.71C663.04,554.72,659.68,554.93,653.68,556.96z"/>
	<path d="M238.71,552.79c4.48,0.61,7.94-0.1,11.5-0.92C248.07,550.45,244.71,550.65,238.71,552.79z"/>
	<path d="M607.15,362c-1.02,5.6-1.02,11.1-2.34,16.29C606.64,375.03,607.56,367.7,607.15,362z"/>
	<path d="M643.29,536.6c3.16-0.81,5.6-1.22,8.25-2.44C647.47,532.94,645.53,533.55,643.29,536.6z"/>
	<path d="M228.73,532.02c2.95-0.31,5.29-1.02,8.04-2.14C233.01,528.66,230.87,529.17,228.73,532.02z"/>
	<path d="M659.99,113.28c0.86,2.73,1.53,5.4,3.16,8.55c0.51-4.17-2.44-7.23-1.73-10.69C659.89,111.15,659.6,112.06,659.99,113.28z"
		/>
	<path d="M248.07,116.75c0.51-3.46-1.32-6.41-2.34-9.47C245.02,110.84,246.95,113.69,248.07,116.75z"/>
	<path d="M665.59,133.44c1.22-3.77-1.22-6.41-2.55-9.37C663.14,127.33,664.47,130.29,665.59,133.44z"/>
	<path d="M670.88,241.46c-0.71,2.95,0.71,5.7,1.12,8.55C673.12,246.96,671.9,244.21,670.88,241.46z"/>
	<path d="M695.42,424c-1.53,2.55-1.12,5.5-1.43,8.35C695.52,429.8,695.93,426.95,695.42,424z"/>
	<path d="M280.86,419.52c-1.43,2.55-1.73,5.4-1.32,8.35C280.86,425.22,281.06,422.47,280.86,419.52z"/>
	<path d="M692.97,441.82c0.31,0,0.61,0.1,0.92,0.1c0.92-2.24,1.53-4.48,0.71-6.92C693.81,434.73,693.65,434.01,692.97,441.82z"/>
	<path d="M721.48,531.61c-2.04-2.34-4.38-1.53-7.53-0.81C716.9,532.02,719.24,531.21,721.48,531.61z"/>
	<path d="M278.82,437.34c1.63-2.04,1.43-4.38,1.12-7.43C278.21,432.76,278.62,435.1,278.82,437.34z"/>
	<path d="M268.44,95.06c1.83-1.43,4.07-0.2,5.6-1.83C271.49,91.5,269.56,92.01,268.44,95.06z"/>
	<path d="M688.8,97.4c-2.95-1.43-4.28-1.02-5.7,1.32c0.31,0.1,0.81,0.41,0.92,0.31C685.34,97.71,687.48,99.23,688.8,97.4z"/>
	<path d="M670.88,262.43c1.93-2.04,0.61-4.38,1.02-6.41C670.55,255.12,670.88,256.03,670.88,262.43z"/>
	<path d="M627.1,315.07c-0.41,2.85,0.51,5.6,0.81,9.06C628.63,320.57,628.43,318.22,627.1,315.07z"/>
	<path d="M653.37,265.59c-0.92-2.65-3.05-4.07-4.99-5.7C647.47,260.34,647.54,260.09,653.37,265.59z"/>
	<path d="M268.64,428.89c-0.1-2.24-0.31-4.58-1.73-6.52C266.6,424.71,267.62,426.75,268.64,428.89z"/>
	<path d="M258.05,397.02c0,3.16,0.92,4.17,4.38,5.29C260.6,400.69,259.27,399.16,258.05,397.02z"/>
	<path d="M262.84,117.87c-1.63,0.81-3.16,1.73-5.29,2.85C260.39,121.12,262.23,120.61,262.84,117.87z"/>
	<path d="M645.02,537.92c1.83,1.02,3.77,0.41,5.6-0.92C644.17,537.01,645.02,536.7,645.02,537.92z"/>
	<path d="M668.74,235.56c-1.83,0.41-3.67,0.81-5.5,1.12C665.38,237.69,667.32,237.49,668.74,235.56z"/>
	<path d="M235.86,533.34c-1.53-1.02-1.53-1.02-5.7-0.31C232.19,534.36,232.4,534.46,235.86,533.34z"/>
	<path d="M677.7,122.45c-1.73,0.61-3.26,1.53-4.78,2.44C675.16,125.4,676.89,124.89,677.7,122.45z"/>
	<path d="M643.39,214.99c0.61-1.93,1.22-3.97,1.73-6.11C643.19,210.51,643.29,212.75,643.39,214.99z"/>
	<path d="M653.07,348.26c-2.85,0.2-4.28,1.93-5.9,3.16C648.99,350.5,651.64,351.11,653.07,348.26z"/>
	<path d="M683.4,433.37c0-2.75-0.61-4.78-1.83-6.72C681.47,428.89,681.98,431.03,683.4,433.37z"/>
	<path d="M676.58,406.69c-1.12-1.83-2.85-3.26-3.97-5.09C672.61,404.35,674.45,405.68,676.58,406.69z"/>
	<path d="M665.49,195.85c2.04-1.02,2.14-2.85,2.44-4.68C666.3,192.29,666.4,194.32,665.49,195.85z"/>
	<path d="M661.72,343.37c-0.92,1.73-1.83,3.46-1.73,5.5C661.11,347.24,661.72,345.41,661.72,343.37z"/>
	<path d="M671.49,342.66c-1.22-2.04-2.04-3.36-3.05-5.19C668.54,340.42,668.54,340.42,671.49,342.66z"/>
	<path d="M668.85,169.79c-0.1,3.16-0.92,5.4,0,8.04C669.86,175.18,669.25,172.84,668.85,169.79z"/>
	<path d="M665.69,133.34c0.31,1.63,0.61,3.36,1.02,4.99C667.52,136.29,667.42,134.56,665.69,133.34z"/>
	<path d="M686.87,217.43c-0.41-1.63-0.2-3.36-1.53-4.68C685.75,214.28,685.64,216.11,686.87,217.43z"/>
	<path d="M699.49,207.66c1.63-0.61,2.34-2.04,2.85-3.56C700.81,204.81,700.3,206.34,699.49,207.66z"/>
	<path d="M676.58,159.1c2.22-0.74-4.99,0.59-5.09,0.61C673.53,160.32,675.06,159.81,676.58,159.1z"/>
	<path d="M669.56,320.87c-0.14,0-0.1-0.46-0.1,4.17C669.6,325.04,669.56,325.51,669.56,320.87z"/>
	<path d="M679.43,198.7c-0.31-1.12-1.02-1.93-2.04-2.44c0.31,1.7,0.19,0.48,4.28,6.82C681.78,201.14,680.86,199.82,679.43,198.7z"/>
	<path d="M692.47,251.34c0.27,0,0.2,0.42,0.2-3.77C692.4,247.57,692.47,247.15,692.47,251.34z"/>
	<path d="M698.78,214.79c1.43,0.1,2.34,0,3.16-1.63C700.41,213.06,699.69,213.67,698.78,214.79z"/>
	<path d="M684.52,459.13c0.51-1.22,0.81-2.04-0.31-3.16C683.4,457.19,683.71,458.01,684.52,459.13z"/>
	<path d="M634.03,207.15c-0.92-1.53-1.93-2.04-3.77-2.14C631.28,206.44,632.4,206.85,634.03,207.15z"/>
	<path d="M690.02,363.83c0.61,0.51,0.92,0.92,1.43,1.32C691.35,364.44,690.94,364.14,690.02,363.83z"/>
	<path d="M639.22,185.36c-1.22-0.41-2.14-0.61-3.16,0.31C637.29,186.59,638.1,186.18,639.22,185.36z"/>
	<path d="M641.46,219.98c-0.2,0.81-0.51,1.63-0.81,2.85C642.27,222.02,641.66,220.9,641.46,219.98z"/>
	<path d="M681.98,185.26c1.43,0.71,2.14,0.71,2.85-0.1C683.81,184.14,683.3,185.06,681.98,185.26z"/>
	<path d="M682.79,414.94c-0.71,1.02-0.31,1.63,0.51,2.24C683.61,416.37,683.91,415.55,682.79,414.94z"/>
	<path d="M627.51,213.26c0.31,1.63,1.12,1.93,2.34,1.93C629.24,214.07,628.63,213.67,627.51,213.26z"/>
	<path d="M637.9,326.37c-0.1,0.71-0.41,1.53,0.1,2.55C638.41,327.9,638.3,327.08,637.9,326.37z"/>
	<path d="M685.03,358.84c-0.41-0.31-0.81-0.71-1.32-1.12C683.71,358.84,684.42,358.74,685.03,358.84z"/>
	<path d="M693.89,209.8c1.02,0.51,1.73,0,2.34-0.71C695.21,208.68,694.4,208.68,693.89,209.8z"/>
	<path d="M695.32,535.79c0.41,0.71,0.71,1.22,1.53,0.71C697.05,535.28,696.33,535.48,695.32,535.79z"/>
	<path d="M269.66,451.8c-0.92,1.02-0.41,1.83-0.2,2.85C270.57,453.53,270.27,452.71,269.66,451.8z"/>
	<path d="M218.04,536.3c-0.51,0.81-0.61,1.53,0,2.24C218.45,537.72,218.65,537.01,218.04,536.3z"/>
	<path d="M632.91,540.47c-0.61,0.92-0.51,1.53-0.2,2.34C633.42,542.1,633.31,541.39,632.91,540.47z"/>
	<path d="M672.71,199.31c-0.61,0.91-0.51,1.52,0.3,2.13c-0.09,0.57-0.1,1.07-0.19,1.84C673.63,202.57,673.15,202.71,672.71,199.31z"
		/>
	<path d="M268.23,410.67c-0.81,0.81-0.51,1.53,0.1,2.34C269.05,412.09,268.84,411.38,268.23,410.67z"/>
	<path d="M625.88,219.37c0-1.22-0.41-1.22-0.92-1.22C624.86,219.06,625.48,218.76,625.88,219.37z"/>
	<path d="M662.23,195.65c0.92,0.31,1.22-0.2,1.53-0.81C662.94,194.53,662.64,195.04,662.23,195.65z"/>
	<path d="M269.76,461.98c0.2-0.41,0.2-0.81-0.1-1.12C269.45,461.26,269.35,461.67,269.76,461.98z"/>
	<path d="M258.56,125.3c1.22,0.2,1.32-0.41,1.63-0.81C259.17,123.97,259.17,124.79,258.56,125.3z"/>
	<path d="M684.12,318.83c0.2,0.92,0.71,1.63,1.43,2.24c0.47-0.24,2.48,5.83,6.72,9.77c-1.36-3.6-7.39-12.77-9.77-15.37
		C682.69,317.21,683.3,318.12,684.12,318.83z"/>
	<path d="M692.16,330.95c-0.1,0.81,0.41,1.32,1.22,1.93C693.28,331.76,693.18,331.05,692.16,330.95z"/>
	<path d="M231.99,335.43c-11.23-0.79-22.32,6.86-23.92,12.22c6.33-4.34,14.04-10.62,21.38-10.89
		C246.83,336.09,246.68,336.47,231.99,335.43z"/>
	<path d="M252.25,293.18c-5.8,7.68-0.3,25.73-3.77,39.6C252.86,333.18,249.42,307.3,252.25,293.18z"/>
	<path d="M229.65,272.21c-3.08-0.66-1.51,4.03-4.07,10.79c-1.39,3.68-1.22,8.04,1.93,11.5C225.71,287.6,230.57,276.23,229.65,272.21
		z"/>
	<path d="M262.63,371.67c-3.26-9.26-7.74-17.92-14.35-25.25C253.06,354.87,258.25,363.02,262.63,371.67z"/>
	<path d="M271.69,280.96c-2.34,5.29,0.31,13.74,5.19,15.37C273.73,291.55,274.65,285.65,271.69,280.96z"/>
	<path d="M263.85,387.66c5.9,0.41,7.79-0.41,7.84-3.67c0.04-2.44-1.73-4.2-4.28-4.07C264.06,380.09,263.24,381.96,263.85,387.66z
		 M269.86,383.38c0.24,1.62-0.2,2.85-2.34,3.26c-0.41-1.93-0.41-1.93-2.44-2.24C264.69,380.95,269.45,380.58,269.86,383.38z"/>
	<path d="M280.75,383.28c0-3.98-6.14-6.54-8.76,0.1C274.98,390.15,280.75,387.09,280.75,383.28z M276.48,380.73
		c3.57,0.55,3.11,5.09-0.1,5.09C273.63,385.82,272.82,381.52,276.48,380.73z"/>
	<path d="M281.57,382.46c1.35,1.4,0.51,2.75,0.41,3.97c2.14,0.2,1.83-2.34,3.46-2.34c1.43,0,0.31,2.14,2.14,2.04
		c0.92-2.44,0.31-4.89,0-7.13C284.65,377.54,279.14,379.94,281.57,382.46z M286.05,380.63c-0.92,2.14-0.92,2.14-3.26,0.61
		C283.91,380.12,284.93,379.72,286.05,380.63z"/>
	<path d="M229.34,382.57c-0.1-5.9,2.03-11.5,2.24-17.31c0.1-2.85,1.22-5.29,2.95-7.53c-2.14,0.71-3.47,2.44-3.67,4.48
		C230.23,368.92,228.63,375.64,229.34,382.57z"/>
	<path d="M265.38,297.96c0.51-5.4-0.31-10.49-2.55-15.47C262.53,287.27,263.35,292.57,265.38,297.96z"/>
	<path d="M248.79,373.2c1.43,1.43,1.73,4.07,2.85,6.01c-0.2-6.11-5.4-10.18-5.9-16.09C246.04,366.68,245.83,370.25,248.79,373.2z"/>
	<path d="M281.06,290.63c1.12,3.46,2.14,6.62,3.16,9.77C285.54,295.32,284.42,292.06,281.06,290.63z"/>
	<path d="M254.49,316.9c0.18-2.37,1.27,0.5,0.1-8.86C252.76,311,254.69,313.95,254.49,316.9z"/>
	<path d="M192.14,360.24c-0.44,0.53-1.68,12.96-1.69,13.06C192.21,369.42,192.94,359.29,192.14,360.24z"/>
	<path d="M208.4,273.22c2.29-2.08,3.27-4.51,4.14-7.13C210.01,267.11,207.58,273.97,208.4,273.22z"/>
	<path d="M212.64,310.79c-0.31,2.85-0.1,5.7,0.92,9.06C214.27,316.39,213.15,313.64,212.64,310.79z"/>
	<path d="M253.88,302.34c0.1-3.67,1.02-6.41,0.31-9.26C253.16,295.83,253.16,298.68,253.88,302.34z"/>
	<path d="M232.4,347.14c1.93-0.81,4.28-0.71,6.11-2.75C236.06,344.18,235.45,344.49,232.4,347.14z"/>
	<path d="M237.34,270.54c-0.08,1.86,0.9,3.38,2.28,5.23C239.76,271.92,237.4,269.31,237.34,270.54z"/>
	<path d="M247.36,338.18c-1.22,1.93-1.83,4.17-2.24,6.31C246.75,342.66,246.95,340.42,247.36,338.18z"/>
	<path d="M235.04,271.6c-1.83,1.83-1.12,4.17-1.53,6.11C234.64,275.77,234.84,273.73,235.04,271.6z"/>
	<path d="M256.22,338.18c-0.41-2.04-1.63-3.05-2.55-4.28C253.67,335.63,254.49,336.85,256.22,338.18z"/>
	<path d="M236.16,286.46c0.1,0.61,0.2,1.12,1.02,1.63C238.58,285.29,236.16,283.29,236.16,286.46z"/>
	<path d="M250.21,291.55c-0.15,0-0.1-0.37-0.1,3.36C250.26,294.91,250.21,295.28,250.21,291.55z"/>
	<path d="M286.38,276.81c-0.08-1.65-0.71-2.79-2.68-3.69C286.66,278.73,286.49,279.04,286.38,276.81z"/>
	<path d="M275.49,324c1.42,4.05,8.33,8.78-7.46-12.08C270.86,317.86,275.39,324.1,275.49,324z"/>
	<path d="M223.54,322.7c-0.81,1.12-1.02,2.04-0.61,3.05C223.33,324.84,223.84,324.03,223.54,322.7z"/>
	<path d="M217.33,298.07c1.83-0.51,2.55-1.53,3.16-2.55C219.06,295.62,218.35,296.54,217.33,298.07z"/>
	<path d="M192.88,358.4c0.13-1.89-0.19-3.82-0.19-4.13C192.16,357.45,192.6,362.48,192.88,358.4z"/>
	<path d="M252.25,288.8c-0.2,1.63-0.31,3.05,0,4.38C252.25,291.75,252.86,290.43,252.25,288.8z"/>
	<path d="M250.92,280.25c0,0.61-0.41,1.32,0.2,1.83C251.33,281.47,251.43,280.86,250.92,280.25z"/>
	<path d="M271.59,355.79c-0.1,0.81,0.61,0.81,1.12,1.12C272.61,356.3,272.2,355.89,271.59,355.79z"/>
	<path d="M266.6,351.41c-0.31,0.41,0.1,0.51,0.41,0.51C266.91,351.82,266.7,351.62,266.6,351.41z"/>
	<path d="M257.95,209.09c0.51,7.43-4.68,14.46-2.04,22.09C256.12,223.75,260.39,216.72,257.95,209.09z"/>
	<path d="M254.9,171.42c-0.42,0.7-1.22,1.12-1.93,1.83c4.68-0.51,6.41-4.48,4.38-10.38C256.02,165.92,256.37,168.94,254.9,171.42z"
		/>
	<path d="M197.98,120.61c0.4,0.73,0.24,1.28,0.43,0.21c0.52-3.03-0.62-4.3-5.31-6.12C192.91,118.19,196.77,118.38,197.98,120.61z"/>
	<path d="M256.42,236.98c-1.25,0.42-1.18-1.27,0.61,8.76C258.36,242.68,257.34,239.83,256.42,236.98z"/>
	<path d="M225.88,169.38c-1.73-1.73-3.46-3.36-5.6-5.29C220.79,167.55,223.74,167.96,225.88,169.38z"/>
	<path d="M220.89,133.04c0.71,2.14-1.93,3.05-1.93,4.99C222.01,137.82,222.62,136.5,220.89,133.04z"/>
	<path d="M254.9,231.08c-2.65,0.61-4.68,1.02-6.62,1.32C251.94,233.11,251.94,233.11,254.9,231.08z"/>
	<path d="M228.83,210.31c0.61-2.04,1.12-4.07,1.73-6.01C228.83,206.13,228.63,206.74,228.83,210.31z"/>
	<path d="M157.5,82.94c1.07,1.55,2.68,1.24,4.14,1.32C159.7,81.97,156.63,81.69,157.5,82.94z"/>
	<path d="M256.02,257.95c1.93-2.24,0.71-4.78,0.81-7.23C255.91,253.17,256.52,255.61,256.02,257.95z"/>
	<path d="M215.02,136.61c0.46-0.72,0.9-1.54,0.27-2.96c-1.01,1.47-2.98,2.09-1.5,3.81C214.57,138.35,214.15,137.98,215.02,136.61z"
		/>
	<path d="M242.68,194.32c1.83-0.92,3.67-1.83,5.5-2.75C246.04,191.88,244.1,192.59,242.68,194.32z"/>
	<path d="M250.52,191.47c2.24-0.81,2.34-2.75,3.05-4.38C252.38,186.3,253.04,186.74,250.52,191.47z"/>
	<path d="M216,200.74c1.63,1.93,1.63,1.93,4.48,2.04C218.75,202.47,217.94,200.33,216,200.74z"/>
	<path d="M167.54,88.04c-0.61-1.32-1.63-2.34-3.97-2.44C164.8,87.63,166.22,87.83,167.54,88.04z"/>
	<path d="M188.31,111.76c0.51,1.63,1.43,2.65,3.67,2.95C191.37,112.47,189.53,112.47,188.31,111.76z"/>
	<path d="M277.9,170.4c1.22-0.2,2.14-0.61,2.65-2.04C278.82,168.16,278.41,169.48,277.9,170.4z"/>
	<path d="M226.39,218.55c0.71-1.02,1.02-1.83,0.92-3.16C226.29,216.21,226.08,217.23,226.39,218.55z"/>
	<path d="M270.98,208.47c-0.41,1.73,0.31,2.75,0.81,4.17C272.3,211.12,271.59,210,270.98,208.47z"/>
	<path d="M233.41,172.94c0.81,1.53,1.93,1.93,3.67,2.04C235.96,173.55,235.14,172.94,233.41,172.94z"/>
	<path d="M257.75,196.05c0.77,6.13,0.42-0.19,0.2-0.41C257.95,195.75,257.85,195.85,257.75,196.05z"/>
	<path d="M235.55,258.16c0.81,0.71,1.63,1.53,2.44,2.24C237.79,258.97,236.98,258.16,235.55,258.16z"/>
	<path d="M277.39,248.38c0.4,0,0.1,0.2,0.41-2.24C277.26,246.14,277.39,245.44,277.39,248.38z"/>
	<path d="M262.02,190.76c-0.2,1.32,0.61,1.83,1.53,2.24C263.55,191.98,262.84,191.37,262.02,190.76z"/>
	<path d="M212.24,128.45c0.31,1.22,0.51,1.93,1.83,1.93C214.17,129.27,213.46,128.86,212.24,128.45z"/>
	<path d="M263.45,193.1c0.29,1.88,2.08,3.03,2.17,2.91c0.5,1.1,1,2.3,1.6,3.4c0.26-3.58-1.68-3.29-1.43-3.67
		C265.08,193.63,263.57,192.98,263.45,193.1z"/>
	<path d="M212.64,209.09c0.51,1.22,1.12,1.83,2.34,1.83C214.58,209.8,213.87,209.39,212.64,209.09z"/>
	<path d="M279.23,205.42c0.92,0.71,1.43,0,2.85-0.61C280.35,204.4,279.53,204.3,279.23,205.42z"/>
	<path d="M172.33,90.68c0.31,1.43,1.22,1.12,2.04,1.53C174.16,90.89,173.55,90.58,172.33,90.68z"/>
	<path d="M229.04,171.01c-0.2,1.12,0.31,1.32,1.02,1.43C230.46,171.21,229.44,171.42,229.04,171.01z"/>
	<path d="M211.22,196.97c-0.1,1.12,0.41,1.32,1.12,1.53C212.64,197.68,212.03,197.48,211.22,196.97z"/>
	<path d="M278.01,217.43c0.1,0.2,0.2,0.31,0.41,0C277.21,216.23,277.95,217.33,278.01,217.43z"/>
	<path d="M210.91,127.23c0.41-1.73-0.2-2.04-1.12-2.24C209.29,126.11,210.1,126.42,210.91,127.23z"/>
	<path d="M169.99,88.85c0,1.32,0.61,1.43,1.63,1.12C171.31,89.05,170.9,88.55,169.99,88.85z"/>
	<path d="M274.65,171.72c-0.81-0.51-1.32-0.41-1.63,0.61C273.83,172.84,274.24,172.33,274.65,171.72z"/>
	<path d="M186.58,110.64c-0.2,1.43,1.12,0.71,1.63,1.22C187.6,111.55,187.7,110.23,186.58,110.64z"/>
	<path d="M211.93,406.08c-0.26-3.89,0.76-9.16-1.63-9.16C211,407.37,210.79,406.08,211.93,406.08z"/>
	<path d="M203.99,427.57c-1.02,2.44-0.81,4.89-0.61,7.43C204.7,432.66,204.6,430.11,203.99,427.57z"/>
	<path d="M226.08,472.06c-0.31-3.16-0.61-5.5-0.81-7.74C224.35,466.76,224.25,469.1,226.08,472.06z"/>
	<path d="M224.66,409.95c-1.63,1.53-1.73,3.26-2.04,4.99C224.15,413.72,224.96,412.29,224.66,409.95z"/>
	<path d="M205.52,422.98c0.2-1.12,0.41-2.24,0.61-3.46C204.6,420.44,204.6,420.44,205.52,422.98z"/>
	<path d="M223.74,461.57c0.92-1.53,0.1-2.24-0.2-3.87C222.62,459.53,223.33,460.35,223.74,461.57z"/>
	<path d="M223.64,443.75c0.2-1.02,0.41-1.83-0.71-2.65C222.52,442.23,222.62,443.04,223.64,443.75z"/>
	<path d="M204.7,401.4c0.61-0.81,0.51-1.22,0.31-1.63C204.3,400.18,204.81,400.59,204.7,401.4z"/>
	<path d="M203.69,447.52c0.31-0.61,0.51-1.22-0.41-1.63C202.77,446.6,202.97,447.11,203.69,447.52z"/>
	<path d="M286.56,112.47c2.72-1.28,5.9-1.83,8.65-4.17c-4.17,0-7.13,1.73-10.18,2.85C285.13,111.96,285.32,113.05,286.56,112.47z"/>
	<path d="M313.13,133.85c1.73-2.24,2.75-4.78,3.67-7.43C313.74,128.05,314.05,131.2,313.13,133.85z"/>
	<path d="M310.38,138.02c0.81,2.55,1.22,5.09,1.73,7.64C312.11,143.01,313.33,140.06,310.38,138.02z"/>
	<path d="M341.84,101.17c-1.32,1.63-2.75,3.26-2.85,5.5C340.92,105.34,341.74,103.41,341.84,101.17z"/>
	<path d="M325.27,140.48c1.19,0,4.05,1.01-0.44-3.47C324.35,138.48,325.65,139.4,325.27,140.48z"/>
	<path d="M325.24,140.57c0.04-0.09,0.04-0.14-0.1-0.1L325.24,140.57z"/>
	<path d="M320.97,128.45c-1.12,0.71-1.12,1.63-1.02,3.46C321.17,130.59,321.99,129.88,320.97,128.45z"/>
	<path d="M353.04,111.55c-2.34,0.61-2.95,2.04-3.87,2.95C350.8,114.3,351.61,113.28,353.04,111.55z"/>
	<path d="M319.54,138.02c-0.31,1.53,0.1,2.24,1.83,2.65C321.68,138.84,320.76,138.43,319.54,138.02z"/>
	<path d="M325.14,98.32c1.83-0.41,1.83-1.32,2.04-2.14C325.65,95.88,325.75,97.1,325.14,98.32z"/>
	<path d="M316.69,126.32c0.61-1.02,2.04-1.22,2.14-3.26C317.1,123.87,316.9,125.09,316.69,126.32z"/>
	<path d="M283.1,115.02c0.92,0.1,1.32-0.31,1.83-1.02C283.6,113.28,283.5,114.51,283.1,115.02z"/>
	<path d="M312.93,137.92c0,1.02,0.41,1.53,1.53,1.53C314.45,138.33,314.15,137.82,312.93,137.92z"/>
	<path d="M319.95,132.93c-0.81,0.71-0.81,1.32-0.31,1.83C320.87,134.36,320.46,133.75,319.95,132.93z"/>
	<path d="M297.65,107.38c0.61,0.81,1.02,0.41,1.43-0.31C298.57,106.67,298.06,106.67,297.65,107.38z"/>
	<path d="M339.8,112.47c1.02,0.41,1.53,0,1.63-1.02C340.52,111.25,340.11,111.76,339.8,112.47z"/>
	<path d="M336.85,114.61c-1.22,0.1-1.53,0.41-1.32,1.12C336.24,115.93,336.24,115.32,336.85,114.61z"/>
	<path d="M343.57,96.38c-0.41,0.31-0.92,0.61-0.61,1.32C343.98,97.61,343.98,97.1,343.57,96.38z"/>
	<path d="M72.56,173.96c-0.1-1.12-0.61-1.63-1.53-1.73C70.93,173.25,71.23,173.96,72.56,173.96z"/>
	<path d="M192.28,129.47c-0.31-0.92-0.81-1.22-1.63-0.92C190.65,129.68,191.06,129.88,192.28,129.47z"/>
	<path d="M74.8,132.12c0,2.24,0,4.58,0,6.82C76.22,136.5,76.32,134.26,74.8,132.12z"/>
	<path d="M73.37,126.32c-0.41,1.53,0.31,1.83,1.02,2.44C74.59,127.64,73.98,127.33,73.37,126.32z"/>
	<path d="M596.05,226.49c0.1,3.26,0.2,6.21,1.22,9.06C597.38,232.6,598.29,229.55,596.05,226.49z"/>
	<path d="M616.82,140.26c-1.93-1.12-2.75-0.71-5.29,3.36C613.36,142.61,615.5,142.1,616.82,140.26z"/>
	<path d="M606.85,279.62c-1.07-0.18,0.64,2.63,2.43,3.07C610.46,280.46,610.31,280.2,606.85,279.62z"/>
	<path d="M611.94,306.31c1.83,0.1,3.16-0.2,4.38-1.93C613.67,302.85,613.16,304.89,611.94,306.31z"/>
	<path d="M609.08,144.54c-2.04,0.81-3.36,2.24-3.87,4.58C607.35,148.41,607.66,145.96,609.08,144.54z"/>
	<path d="M601.65,231.48c0.81-2.14,0-3.36-1.32-5.29C600.33,228.84,600.33,228.84,601.65,231.48z"/>
	<path d="M614.28,220.08c0.61-1.97-0.01-3.28-1.22-4.89C612.27,217.25,612.77,218.58,614.28,220.08z"/>
	<path d="M622.12,298.88c-1.22,1.32-1.12,2.34-0.61,3.67C622.93,301.53,622.52,300.41,622.12,298.88z"/>
	<path d="M614.68,171.93c-1.02,1.43-1.12,2.55-0.71,4.07C615.29,174.78,615.29,173.76,614.68,171.93z"/>
	<path d="M618.76,307.95c0.53-0.19,1.8-0.46,2.45-1.02C623.12,305.29,620.05,304.6,618.76,307.95z"/>
	<path d="M619.06,158.08c0.81-1.12,0.81-1.83,0-2.65C617.74,156.35,618.35,157.06,619.06,158.08z"/>
	<path d="M601.55,234.33c-0.71,1.53,0.1,2.34,0.71,3.77C602.47,236.47,602.67,235.45,601.55,234.33z"/>
	<path d="M606.64,304.78c1.32,0.51,2.24,0.31,2.55-1.53C607.66,303.16,606.95,303.56,606.64,304.78z"/>
	<path d="M603.18,179.87c1.32,0,2.04-0.71,2.85-2.04C604.3,178.14,603.59,178.54,603.18,179.87z"/>
	<path d="M597.78,244.21c0.31-0.81,0.61-1.53-0.51-2.14C596.54,242.96,596.84,243.64,597.78,244.21z"/>
	<path d="M601.96,155.53c-0.41-0.1-0.61-0.2-0.81-0.2c-0.31,0.61-0.51,1.22-0.1,1.93C602.06,156.86,601.65,156.04,601.96,155.53z"/>
	<path d="M614.17,293.79c-0.31,0.71-0.31,1.32,0.71,1.83C615.19,294.6,614.89,294.1,614.17,293.79z"/>
	<path d="M604.81,150.34c0.51-0.2,0.41-0.81,0.51-1.22C604.91,149.43,604.81,149.83,604.81,150.34z"/>
	<path d="M597.17,182.11c0.61,0,1.02-0.31,1.12-1.12C597.38,180.99,596.87,181.09,597.17,182.11z"/>
	<path d="M726.06,212.65c1.93-3.36,0.92-6.92,0.92-10.49C725.25,205.52,725.76,209.09,726.06,212.65z"/>
	<path d="M717.82,227.51c3.97-2.14,6.11-5.8,8.45-9.37C725.31,217.2,726.65,216.3,717.82,227.51z"/>
	<path d="M722.09,181.39c-0.31-2.24-1.43-4.28-2.95-6.01C718.94,177.83,720.26,179.66,722.09,181.39z"/>
	<path d="M715.68,226.49c-1.73,0-3.46-0.41-5.29-1.02C712.42,228.23,712.83,228.33,715.68,226.49z"/>
	<path d="M717,306.62c-2.14-0.31-3.56-0.51-5.19-0.71C713.74,308.35,713.84,308.35,717,306.62z"/>
	<path d="M712.32,259.38c1.32-1.93,1.32-3.56,1.12-5.9C711.91,255.51,711.91,257.14,712.32,259.38z"/>
	<path d="M729.52,242.78c-0.92,1.73-0.61,3.67-1.22,5.5C729.73,246.65,730.13,244.82,729.52,242.78z"/>
	<path d="M715.07,246.75c-1.83,1.32-2.14,2.65-1.22,4.99C714.76,249.81,715.17,248.59,715.07,246.75z"/>
	<path d="M718.12,232.2c2.14-0.71,2.24-0.81,3.36-4.17C719.85,229.24,719.04,230.67,718.12,232.2z"/>
	<path d="M716.7,305.29c1.02-1.43,0.92-2.44,0.2-3.77C715.78,302.65,715.47,303.66,716.7,305.29z"/>
	<path d="M717.41,157.98c0.92-2.75,0.92-2.75-0.51-4.78C716.39,154.72,717.41,155.94,717.41,157.98z"/>
	<path d="M727.08,200.13c0-1.03,0.1-3.56-0.92-3.56C725.55,197.78,725.65,198.8,727.08,200.13z"/>
	<path d="M717.82,295.11c-0.51,0.71-0.61,1.22,0,1.93C718.83,296.44,718.83,295.83,717.82,295.11z"/>
	<path d="M725.55,194.12c0.41-0.71,0.61-1.32-0.61-1.93C724.53,193.1,724.84,193.61,725.55,194.12z"/>
	<path d="M722.6,308.35c0.92,0.51,1.43,0.31,1.63-0.81C723.31,306.92,722.91,307.53,722.6,308.35z"/>
	<path d="M701.22,142.91c0.31,0.51,0.71,0.41,1.12,0.2C702.04,142.71,701.73,142.5,701.22,142.91z"/>
	<path d="M722.91,301.93c-0.92,0.41-0.81,0.92-0.51,1.93C723.21,302.95,723.21,302.55,722.91,301.93z"/>
	<path d="M717.61,299.29c-0.1-0.1-0.81,0.2-0.81,0.31C717.15,301.34,718.78,300.22,717.61,299.29z"/>
	<path d="M718.02,293.48c0.71-0.2,0.81-0.71,0.41-1.32C717.82,292.47,717.51,292.77,718.02,293.48z"/>
	<path d="M640.64,475.41c-0.35-7.73-0.27-6.72-1.22-6.72C638.81,471.04,639.22,473.28,640.64,475.41z"/>
	<path d="M618.55,431.33c-0.81,2.95-0.92,5.5-0.92,8.25C619.27,437.64,619.47,435.51,618.55,431.33z"/>
	<path d="M625.68,400.79c-1.22,2.24-0.41,3.87,0.41,5.4C626.9,403.95,626.9,403.95,625.68,400.79z"/>
	<path d="M639.53,414.64c-1.29,0-0.28-1.61-2.75,5.19C639.02,418.1,639.42,416.47,639.53,414.64z"/>
	<path d="M626.39,410.56c1.02-1.63,0-2.95-0.31-4.28C625.17,408.43,625.17,408.43,626.39,410.56z"/>
	<path d="M619.98,427.87c0.41-1.73,0.61-2.85,0.81-3.97C619.11,422.78,619.41,425.81,619.98,427.87z"/>
	<path d="M637.9,462.69c-0.41,1.22-0.1,2.14,0.92,2.95C639.22,464.22,638.81,463.5,637.9,462.69z"/>
	<path d="M638,445.08c-0.51,0.92-0.51,1.83,0.1,2.95C638.61,446.91,638.41,446.09,638,445.08z"/>
	<path d="M618.65,452.41c0.2-1.22,0-1.83-0.81-2.44C617.33,450.98,617.64,451.59,618.65,452.41z"/>
	<path d="M619.37,403.64c-0.51,0.31-0.2,0.71,0,1.32C619.67,404.35,619.67,403.95,619.37,403.64z"/>
	<path d="M640.54,286.56c-0.81,4.28-1.73,8.65,1.93,12.32C640.54,295.01,641.46,290.63,640.54,286.56z"/>
	<path d="M691.24,300.61c-1.63-1.93-1.32-5.29-4.58-6.41C686.36,297.86,688.49,299.49,691.24,300.61z"/>
	<path d="M652.15,274.34c-0.41,2.85,1.73,4.78,2.95,7.02C654.39,278.93,654.29,276.28,652.15,274.34z"/>
	<path d="M647.98,282.39c1.53-1.93,1.43-4.17,1.73-6.31C647.57,277.7,649.1,280.35,647.98,282.39z"/>
	<path d="M698.88,277.3c0.41,2.24,1.02,3.77,2.75,5.5C701.22,280.45,700.92,278.82,698.88,277.3z"/>
	<path d="M666.61,295.52c0,1.02,0,2.04,0,3.26C667.12,297.66,666.91,296.64,666.61,295.52z"/>
	<path d="M651.95,289.31c-1.64,0-0.81,1.85-0.41,3.56C652.45,291.14,652.25,290.23,651.95,289.31z"/>
	<path d="M637.49,285.95c-0.51,0.81,0,1.32,0.61,2.14C638.1,287.07,638.51,286.36,637.49,285.95z"/>
	<path d="M666,284.53c-0.41,0.61-0.41,1.22,0,1.83C666.3,285.75,666.3,285.24,666,284.53z"/>
	<path d="M475.41,339.81c-0.92-1.53-1.53-2.44-2.04-3.36C473.27,337.77,473.17,338.99,475.41,339.81z"/>
	<path d="M477.45,304.28c1.02-2.14,0.92-4.38,0.31-6.62C477.24,299.8,477.75,302.04,477.45,304.28z"/>
	<path d="M475.51,292.36c-0.1,1.12,0.61,1.43,2.04,2.24C476.73,293.28,476.73,292.26,475.51,292.36z"/>
	<path d="M300,527.03c2.24,0.1,4.38,0.2,6.62,0.41C304.58,525.1,302.34,525.71,300,527.03z"/>
<path fill="#e6e6e6" d="m206.8 163.6c0-5.1 4.1-9.2 9.3-9.2s9.2 4.2 9.2 9.2-4.1 9.2-9.3 9.2-9.2-4.1-9.2-9.2zm17.3-.1c0-4.5-3.5-8.2-8.2-8.2s-8.2 3.7-8.2 8.3c0 4.5 3.5 8.2 8.2 8.2s8.2-3.7 8.2-8.3zm-13 0c0-2.8 2.1-5.1 5.1-5.1 1.9 0 2.9.6 3.9 1.5l-1.4 1.7c-.8-.7-1.5-1.1-2.5-1.1-1.7 0-2.8 1.4-2.8 3.1s1.1 3 2.8 3c1.1 0 1.7-.5 2.5-1.1l1.4 1.4c-1.1 1.1-2.1 1.7-4 1.7-2.9 0-5-2.3-5-5.1z"/><path fill="#e6e6e6" d="m226.6 154.7h3.4l4.2 13.2 4.4-13.3h2.6l4.4 13.3 4.2-13.2h3.3l-6.2 18h-2.7l-4.4-12.8-4.4 12.8h-2.7z"/><path fill="#e6e6e6" d="m252.8 165.8c0-3.9 3.1-7 7.2-7 4.2 0 7.2 3.2 7.2 7s-3.1 7-7.3 7c-4 0-7.1-3.1-7.1-7zm11.3 0c0-2.3-1.7-4.3-4.2-4.3s-4.1 2-4.1 4.3 1.7 4.3 4.1 4.3c2.7.1 4.2-1.9 4.2-4.3z"/><path fill="#e6e6e6" d="m269.5 159.1h3.1v3c.8-2 2.4-3.4 4.8-3.3v3.2h-.2c-2.7 0-4.6 1.7-4.6 5.4v5.1h-3.1z"/><path fill="#e6e6e6" d="m279.1 153.9h3.1v11.1l5.6-6h3.8l-5.4 5.5 5.5 8h-3.5l-4.1-5.8-1.9 2v3.9h-3.1z"/><path fill="#e6e6e6" d="m291.7 165.8c0-3.9 3.1-7 7.2-7 4.2 0 7.2 3.2 7.2 7s-3.1 7-7.3 7c-4 0-7.1-3.1-7.1-7zm11.3 0c0-2.3-1.7-4.3-4.2-4.3s-4.1 2-4.1 4.3 1.7 4.3 4.1 4.3c2.6.1 4.2-1.9 4.2-4.3z"/><path fill="#e6e6e6" d="m308.2 167.6v-8.6h3.1v7.6c0 2.1 1.1 3.3 2.9 3.3s3-1.3 3-3.3v-7.6h3.1v13.4h-3.1v-2.1c-.8 1.3-2.1 2.3-4.2 2.3-3.1.2-4.8-1.8-4.8-5z"/><path fill="#e6e6e6" d="m323.9 168.8v-7.1h-1.7v-2.6h1.7v-3.7h3.1v3.7h3.6v2.6h-3.6v6.6c0 1.2.6 1.7 1.7 1.7.7 0 1.3-.2 1.9-.5v2.5c-.8.5-1.7.7-2.8.7-2.3 0-3.9-.9-3.9-3.9z"/><path fill="#e6e6e6" d="m333.2 154.7h3.2v15h9.4v2.9h-12.5v-17.9z"/><path fill="#e6e6e6" d="m356 172.5v-1.7c-.9 1.1-2.3 2-4.4 2-2.6 0-4.8-1.4-4.8-4.2 0-3 2.3-4.4 5.4-4.4 1.7 0 2.6.2 3.7.5v-.2c0-1.9-1.2-2.9-3.3-2.9-1.5 0-2.6.3-3.9.8l-.8-2.5c1.5-.7 2.9-1.1 5.1-1.1 4 0 5.9 2.1 5.9 5.7v8zm.1-5.6c-.8-.3-1.9-.5-3.1-.5-2 0-3.1.8-3.1 2.1s1.1 2 2.6 2c2 0 3.5-1.1 3.5-2.9z"/><path fill="#e6e6e6" d="m364.9 170.5v2.1h-3.1v-18.7h3.1v7.4c1-1.4 2.4-2.5 4.5-2.5 3.2 0 6.3 2.5 6.3 7s-3.1 7-6.3 7c-2.1 0-3.5-1.1-4.5-2.3zm7.7-4.7c0-2.6-1.7-4.3-3.9-4.3s-3.9 1.7-3.9 4.4c0 2.6 1.8 4.3 3.9 4.3s3.9-1.7 3.9-4.4z"/><path fill="#e6e6e6" d="m376.9 170.8 1.4-2.1c1.4 1.1 3 1.7 4.4 1.7s2.1-.5 2.1-1.5-1.3-1.4-2.8-1.8c-.1 0-.2-.1-.2-.1-2-.6-4.2-1.4-4.2-4s2.1-4.1 4.8-4.1c1.7 0 3.5.6 5 1.5l-1.2 2.2c-1.3-.8-2.6-1.3-3.8-1.3s-1.9.5-1.9 1.4 1.3 1.4 2.8 1.8c.1 0 .2.1.2.1 2 .6 4.2 1.5 4.2 4 0 2.9-2.2 4.2-5 4.2-1.9 0-4-.7-5.8-2z"/><path fill="#e6e6e6" d="m505.6 163.6c0-5.1 4.1-9.2 9.3-9.2s9.2 4.2 9.2 9.2-4.1 9.2-9.3 9.2-9.2-4.1-9.2-9.2zm17.4-.1c0-4.5-3.5-8.2-8.2-8.2s-8.2 3.7-8.2 8.3c0 4.5 3.5 8.2 8.2 8.2s8.2-3.7 8.2-8.3zm-13.1 0c0-2.8 2.1-5.1 5.1-5.1 1.9 0 2.9.6 3.9 1.5l-1.4 1.7c-.8-.7-1.5-1.1-2.5-1.1-1.7 0-2.8 1.4-2.8 3.1s1.1 3 2.8 3c1.1 0 1.7-.5 2.5-1.1l1.4 1.4c-1.1 1.1-2.1 1.7-4 1.7-2.9 0-5-2.3-5-5.1z"/><path fill="#e6e6e6" d="m525.4 154.7h3.4l4.2 13.2 4.4-13.3h2.6l4.4 13.3 4.2-13.2h3.3l-6.2 18h-2.7l-4.4-12.8-4.4 12.8h-2.7z"/><path fill="#e6e6e6" d="m551.7 165.8c0-3.9 3.1-7 7.2-7 4.2 0 7.2 3.2 7.2 7s-3.1 7-7.3 7c-4.1 0-7.1-3.1-7.1-7zm11.2 0c0-2.3-1.7-4.3-4.2-4.3s-4.1 2-4.1 4.3 1.7 4.3 4.1 4.3c2.7.1 4.2-1.9 4.2-4.3z"/><path fill="#e6e6e6" d="m568.3 159.1h3.1v3c.8-2 2.4-3.4 4.8-3.3v3.2h-.2c-2.7 0-4.6 1.7-4.6 5.4v5.1h-3.1z"/><path fill="#e6e6e6" d="m577.9 153.9h3.1v11.1l5.6-6h3.8l-5.4 5.5 5.5 8h-3.5l-4.1-5.8-1.9 2v3.9h-3.1z"/><path fill="#e6e6e6" d="m590.6 165.8c0-3.9 3.1-7 7.2-7 4.2 0 7.2 3.2 7.2 7s-3.1 7-7.3 7c-4.1 0-7.1-3.1-7.1-7zm11.2 0c0-2.3-1.7-4.3-4.2-4.3s-4.1 2-4.1 4.3 1.7 4.3 4.1 4.3c2.6.1 4.2-1.9 4.2-4.3z"/><path fill="#e6e6e6" d="m607 167.6v-8.6h3.1v7.6c0 2.1 1.1 3.3 2.9 3.3s3-1.3 3-3.3v-7.6h3.1v13.4h-3.1v-2.1c-.8 1.3-2.1 2.3-4.2 2.3-3 .2-4.8-1.8-4.8-5z"/><path fill="#e6e6e6" d="m622.7 168.8v-7.1h-1.7v-2.6h1.7v-3.7h3.1v3.7h3.6v2.6h-3.6v6.6c0 1.2.6 1.7 1.7 1.7.7 0 1.3-.2 1.9-.5v2.5c-.8.5-1.7.7-2.8.7-2.3 0-3.9-.9-3.9-3.9z"/><path fill="#e6e6e6" d="m632 154.7h3.2v15h9.4v2.9h-12.6z"/><path fill="#e6e6e6" d="m654.8 172.5v-1.7c-.9 1.1-2.3 2-4.4 2-2.6 0-4.8-1.4-4.8-4.2 0-3 2.3-4.4 5.4-4.4 1.7 0 2.6.2 3.7.5v-.2c0-1.9-1.2-2.9-3.3-2.9-1.5 0-2.6.3-3.9.8l-.8-2.5c1.5-.7 2.9-1.1 5.1-1.1 4 0 5.9 2.1 5.9 5.7v8zm.1-5.6c-.8-.3-1.9-.5-3.1-.5-2 0-3.1.8-3.1 2.1s1.1 2 2.6 2c2 0 3.5-1.1 3.5-2.9z"/><path fill="#e6e6e6" d="m663.7 170.5v2.1h-3.1v-18.7h3.1v7.4c1-1.4 2.4-2.5 4.5-2.5 3.2 0 6.3 2.5 6.3 7s-3.1 7-6.3 7c-2.1 0-3.5-1.1-4.5-2.3zm7.8-4.7c0-2.6-1.7-4.3-3.9-4.3-2.1 0-3.9 1.7-3.9 4.4 0 2.6 1.8 4.3 3.9 4.3s3.9-1.7 3.9-4.4z"/><path fill="#e6e6e6" d="m675.8 170.8 1.4-2.1c1.4 1.1 3 1.7 4.4 1.7s2.1-.5 2.1-1.5-1.3-1.4-2.8-1.8c-.1 0-.2-.1-.2-.1-2-.6-4.2-1.4-4.2-4s2.1-4.1 4.8-4.1c1.7 0 3.5.6 5 1.5l-1.2 2.2c-1.3-.8-2.6-1.3-3.8-1.3s-1.9.5-1.9 1.4 1.3 1.4 2.8 1.8c.1 0 .2.1.2.1 2 .6 4.2 1.5 4.2 4 0 2.9-2.2 4.2-5 4.2-2 0-4.1-.7-5.8-2z"/><path fill="#e6e6e6" d="m61 298.6c0-5.1 4.1-9.2 9.3-9.2s9.2 4.2 9.2 9.2-4.1 9.2-9.3 9.2c-5.1 0-9.2-4.2-9.2-9.2zm17.4-.1c0-4.5-3.5-8.2-8.2-8.2s-8.2 3.7-8.2 8.3c0 4.5 3.5 8.2 8.2 8.2s8.2-3.7 8.2-8.3zm-13.1-.1c0-2.8 2.1-5.1 5.1-5.1 1.9 0 2.9.6 3.9 1.5l-1.4 1.7c-.8-.7-1.5-1.1-2.5-1.1-1.7 0-2.8 1.4-2.8 3.1s1.1 3 2.8 3c1.1 0 1.7-.5 2.5-1.1l1.4 1.4c-1.1 1.1-2.1 1.7-4 1.7-2.8.1-5-2.2-5-5.1z"/><path fill="#e6e6e6" d="m80.9 289.7h3.4l4.2 13.2 4.4-13.3h2.6l4.4 13.3 4.2-13.2h3.3l-6.2 18h-2.7l-4.4-12.8-4.4 12.8h-2.7z"/><path fill="#e6e6e6" d="m107.1 300.8c0-3.9 3.1-7 7.2-7s7.2 3.2 7.2 7-3.1 7-7.3 7c-4 0-7.1-3.1-7.1-7zm11.3 0c0-2.3-1.7-4.3-4.2-4.3s-4.1 2-4.1 4.3 1.7 4.3 4.1 4.3c2.6.1 4.2-1.9 4.2-4.3z"/><path fill="#e6e6e6" d="m123.7 294h3.1v3c.8-2 2.4-3.4 4.8-3.3v3.2h-.2c-2.7 0-4.6 1.7-4.6 5.4v5.1h-3.1z"/><path fill="#e6e6e6" d="m133.4 288.9h3.1v11.1l5.6-6h3.8l-5.4 5.5 5.5 8h-3.5l-4.1-5.8-1.9 1.9v3.9h-3.1z"/><path fill="#e6e6e6" d="m146 300.8c0-3.9 3.1-7 7.2-7s7.2 3.2 7.2 7-3.1 7-7.3 7c-4.1 0-7.1-3.1-7.1-7zm11.2 0c0-2.3-1.7-4.3-4.2-4.3s-4.1 2-4.1 4.3 1.7 4.3 4.1 4.3c2.6.1 4.2-1.9 4.2-4.3z"/><path fill="#e6e6e6" d="m162.4 302.6v-8.6h3.1v7.6c0 2.1 1.1 3.3 2.9 3.3s3-1.3 3-3.3v-7.6h3.1v13.4h-3.1v-2.1c-.8 1.3-2.1 2.3-4.2 2.3-3 .2-4.8-1.8-4.8-5z"/><path fill="#e6e6e6" d="m178.1 303.8v-7.1h-1.7v-2.7h1.7v-3.7h3.1v3.7h3.6v2.6h-3.6v6.6c0 1.2.6 1.7 1.7 1.7.7 0 1.3-.2 1.9-.5v2.5c-.8.5-1.7.7-2.8.7-2.3.1-3.9-.9-3.9-3.8z"/><path fill="#e6e6e6" d="m187.4 289.7h3.2v15h9.4v2.9h-12.5v-17.9z"/><path fill="#e6e6e6" d="m210.2 307.5v-1.7c-.9 1.1-2.3 2-4.4 2-2.6 0-4.8-1.4-4.8-4.2 0-3 2.3-4.4 5.4-4.4 1.7 0 2.6.2 3.7.5v-.2c0-1.9-1.2-2.9-3.3-2.9-1.5 0-2.6.3-3.9.8l-.8-2.5c1.5-.7 2.9-1.1 5.1-1.1 4 0 5.9 2.1 5.9 5.7v8zm.1-5.6c-.8-.3-1.9-.5-3.1-.5-2 0-3.1.8-3.1 2.1s1.1 2 2.6 2c2 0 3.5-1.1 3.5-2.9z"/><path fill="#e6e6e6" d="m219.2 305.5v2.1h-3.1v-18.7h3.1v7.4c1-1.4 2.4-2.5 4.5-2.5 3.2 0 6.3 2.5 6.3 7s-3.1 7-6.3 7c-2.2 0-3.6-1.1-4.5-2.3zm7.7-4.7c0-2.6-1.7-4.3-3.9-4.3s-3.9 1.7-3.9 4.4c0 2.6 1.8 4.3 3.9 4.3s3.9-1.7 3.9-4.4z"/><path fill="#e6e6e6" d="m231.2 305.8 1.4-2.1c1.4 1.1 3 1.7 4.4 1.7s2.1-.5 2.1-1.5-1.3-1.4-2.8-1.8c-.1 0-.2-.1-.2-.1-2-.6-4.2-1.4-4.2-4s2.1-4.1 4.8-4.1c1.7 0 3.5.6 5 1.5l-1.2 2.2c-1.3-.8-2.6-1.3-3.8-1.3s-1.9.5-1.9 1.4 1.3 1.4 2.8 1.8c.1 0 .2.1.2.1 2 .6 4.2 1.5 4.2 4 0 2.9-2.2 4.2-5 4.2-2 0-4.1-.7-5.8-2z"/><path fill="#e6e6e6" d="m360.6 298.6c0-5.1 4.1-9.2 9.3-9.2s9.2 4.2 9.2 9.2-4.1 9.2-9.3 9.2-9.2-4.2-9.2-9.2zm17.4-.1c0-4.5-3.5-8.2-8.2-8.2s-8.2 3.7-8.2 8.3c0 4.5 3.5 8.2 8.2 8.2s8.2-3.7 8.2-8.3zm-13.1-.1c0-2.8 2.1-5.1 5.1-5.1 1.9 0 2.9.6 3.9 1.5l-1.4 1.7c-.8-.7-1.5-1.1-2.5-1.1-1.7 0-2.8 1.4-2.8 3.1s1.1 3 2.8 3c1.1 0 1.7-.5 2.5-1.1l1.4 1.4c-1.1 1.1-2.1 1.7-4 1.7-2.8.1-5-2.2-5-5.1z"/><path fill="#e6e6e6" d="m380.5 289.7h3.4l4.2 13.2 4.4-13.3h2.6l4.4 13.3 4.2-13.2h3.3l-6.2 18h-2.7l-4.4-12.8-4.4 12.8h-2.7z"/><path fill="#e6e6e6" d="m406.7 300.8c0-3.9 3.1-7 7.2-7 4.2 0 7.2 3.2 7.2 7s-3.1 7-7.3 7c-4.1 0-7.1-3.1-7.1-7zm11.3 0c0-2.3-1.7-4.3-4.2-4.3s-4.1 2-4.1 4.3 1.7 4.3 4.1 4.3c2.7.1 4.2-1.9 4.2-4.3z"/><path fill="#e6e6e6" d="m423.3 294h3.1v3c.8-2 2.4-3.4 4.8-3.3v3.2h-.2c-2.7 0-4.6 1.7-4.6 5.4v5.1h-3.1z"/><path fill="#e6e6e6" d="m433 288.9h3.1v11.1l5.6-6h3.8l-5.4 5.5 5.5 8h-3.5l-4.1-5.8-1.9 2v3.9h-3.1z"/><path fill="#e6e6e6" d="m445.6 300.8c0-3.9 3.1-7 7.2-7 4.2 0 7.2 3.2 7.2 7s-3.1 7-7.3 7c-4.1 0-7.1-3.1-7.1-7zm11.3 0c0-2.3-1.7-4.3-4.2-4.3s-4.1 2-4.1 4.3 1.7 4.3 4.1 4.3c2.6.1 4.2-1.9 4.2-4.3z"/><path fill="#e6e6e6" d="m462.1 302.6v-8.6h3.1v7.6c0 2.1 1.1 3.3 2.9 3.3s3-1.3 3-3.3v-7.6h3.1v13.4h-3.1v-2.1c-.8 1.3-2.1 2.3-4.2 2.3-3.1.2-4.8-1.8-4.8-5z"/><path fill="#e6e6e6" d="m477.8 303.8v-7.1h-1.8v-2.7h1.7v-3.7h3.1v3.7h3.6v2.6h-3.6v6.6c0 1.2.6 1.7 1.7 1.7.7 0 1.3-.2 1.9-.5v2.5c-.8.5-1.7.7-2.8.7-2.2.1-3.8-.9-3.8-3.8z"/><path fill="#e6e6e6" d="m487.1 289.7h3.2v15h9.4v2.9h-12.5v-17.9z"/><path fill="#e6e6e6" d="m509.9 307.5v-1.7c-.9 1.1-2.3 2-4.4 2-2.6 0-4.8-1.4-4.8-4.2 0-3 2.3-4.4 5.4-4.4 1.7 0 2.6.2 3.7.5v-.2c0-1.9-1.2-2.9-3.3-2.9-1.5 0-2.6.3-3.9.8l-.8-2.5c1.5-.7 2.9-1.1 5.1-1.1 4 0 5.9 2.1 5.9 5.7v8zm.1-5.6c-.8-.3-1.9-.5-3.1-.5-2 0-3.1.8-3.1 2.1s1.1 2 2.6 2c2 0 3.5-1.1 3.5-2.9z"/><path fill="#e6e6e6" d="m518.8 305.5v2.1h-3.1v-18.7h3.1v7.4c1-1.4 2.4-2.5 4.5-2.5 3.2 0 6.3 2.5 6.3 7s-3.1 7-6.3 7c-2.2 0-3.5-1.1-4.5-2.3zm7.7-4.7c0-2.6-1.7-4.3-3.9-4.3s-3.9 1.7-3.9 4.4c0 2.6 1.8 4.3 3.9 4.3s3.9-1.7 3.9-4.4z"/><path fill="#e6e6e6" d="m530.8 305.8 1.4-2.1c1.4 1.1 3 1.7 4.4 1.7s2.1-.5 2.1-1.5-1.3-1.4-2.8-1.8c-.1 0-.2-.1-.2-.1-2-.6-4.2-1.4-4.2-4s2.1-4.1 4.8-4.1c1.7 0 3.5.6 5 1.5l-1.2 2.2c-1.3-.8-2.6-1.3-3.8-1.3s-1.9.5-1.9 1.4 1.3 1.4 2.8 1.8c.1 0 .2.1.2.1 2 .6 4.2 1.5 4.2 4 0 2.9-2.2 4.2-5 4.2-1.9 0-4.1-.7-5.8-2z"/><path fill="#e6e6e6" d="m659.5 298.6c0-5.1 4.1-9.2 9.3-9.2s9.2 4.2 9.2 9.2-4.1 9.2-9.3 9.2-9.2-4.2-9.2-9.2zm17.3-.1c0-4.5-3.5-8.2-8.2-8.2s-8.2 3.7-8.2 8.3c0 4.5 3.5 8.2 8.2 8.2 4.8 0 8.2-3.7 8.2-8.3zm-13-.1c0-2.8 2.1-5.1 5.1-5.1 1.9 0 2.9.6 3.9 1.5l-1.4 1.7c-.8-.7-1.5-1.1-2.5-1.1-1.7 0-2.8 1.4-2.8 3.1s1.1 3 2.8 3c1.1 0 1.7-.5 2.5-1.1l1.4 1.4c-1.1 1.1-2.1 1.7-4 1.7-2.9.1-5-2.2-5-5.1z"/><path fill="#e6e6e6" d="m679.3 289.7h3.4l4.2 13.2 4.4-13.3h2.6l4.4 13.3 4.2-13.2h3.3l-6.2 18h-2.6l-4.4-12.8-4.4 12.8h-2.7z"/><path fill="#e6e6e6" d="m705.5 300.8c0-3.9 3.1-7 7.2-7 4.2 0 7.2 3.2 7.2 7s-3.1 7-7.3 7c-4 0-7.1-3.1-7.1-7zm11.3 0c0-2.3-1.7-4.3-4.2-4.3s-4.1 2-4.1 4.3 1.7 4.3 4.1 4.3c2.7.1 4.2-1.9 4.2-4.3z"/><path fill="#e6e6e6" d="m722.1 294h3.1v3c.8-2 2.4-3.4 4.8-3.3v3.2h-.2c-2.7 0-4.6 1.7-4.6 5.4v5.1h-3.1z"/><path fill="#e6e6e6" d="m731.8 288.9h3.1v11.1l5.6-6h3.8l-5.4 5.5 5.5 8h-3.5l-4.1-5.8-1.9 2v3.9h-3.1z"/><path fill="#e6e6e6" d="m744.4 300.8c0-3.9 3.1-7 7.2-7 4.2 0 7.2 3.2 7.2 7s-3.1 7-7.3 7c-4.1 0-7.1-3.1-7.1-7zm11.3 0c0-2.3-1.7-4.3-4.2-4.3s-4.1 2-4.1 4.3 1.7 4.3 4.1 4.3c2.6.1 4.2-1.9 4.2-4.3z"/><path fill="#e6e6e6" d="m760.9 302.6v-8.6h3.1v7.6c0 2.1 1.1 3.3 2.9 3.3s3-1.3 3-3.3v-7.6h3.1v13.4h-3.1v-2.1c-.8 1.3-2.1 2.3-4.2 2.3-3.1.2-4.8-1.8-4.8-5z"/><path fill="#e6e6e6" d="m776.6 303.8v-7.1h-1.7v-2.7h1.7v-3.7h3.1v3.7h3.6v2.6h-3.6v6.6c0 1.2.6 1.7 1.7 1.7.7 0 1.3-.2 1.9-.5v2.5c-.8.5-1.7.7-2.8.7-2.3.1-3.9-.9-3.9-3.8z"/><path fill="#e6e6e6" d="m785.9 289.7h3.2v15h9.4v2.9h-12.5v-17.9z"/><path fill="#e6e6e6" d="m808.7 307.5v-1.7c-.9 1.1-2.3 2-4.4 2-2.6 0-4.8-1.4-4.8-4.2 0-3 2.3-4.4 5.4-4.4 1.7 0 2.6.2 3.7.5v-.2c0-1.9-1.2-2.9-3.3-2.9-1.5 0-2.6.3-3.9.8l-.8-2.5c1.5-.7 2.9-1.1 5.1-1.1 4 0 5.9 2.1 5.9 5.7v8zm.1-5.6c-.8-.3-1.9-.5-3.1-.5-2 0-3.1.8-3.1 2.1s1.1 2 2.6 2c2 0 3.5-1.1 3.5-2.9z"/><path fill="#e6e6e6" d="m817.6 305.5v2.1h-3.1v-18.7h3.1v7.4c1-1.4 2.4-2.5 4.5-2.5 3.2 0 6.3 2.5 6.3 7s-3.1 7-6.3 7c-2.1 0-3.5-1.1-4.5-2.3zm7.7-4.7c0-2.6-1.7-4.3-3.9-4.3-2.1 0-3.9 1.7-3.9 4.4 0 2.6 1.8 4.3 3.9 4.3 2.2 0 3.9-1.7 3.9-4.4z"/><path fill="#e6e6e6" d="m829.6 305.8 1.4-2.1c1.4 1.1 3 1.7 4.4 1.7s2.1-.5 2.1-1.5-1.3-1.4-2.8-1.8c-.1 0-.2-.1-.2-.1-2-.6-4.2-1.4-4.2-4s2.1-4.1 4.8-4.1c1.7 0 3.5.6 5 1.5l-1.2 2.2c-1.3-.8-2.6-1.3-3.8-1.3s-1.9.5-1.9 1.4 1.3 1.4 2.8 1.8c.1 0 .2.1.2.1 2 .6 4.2 1.5 4.2 4 0 2.9-2.2 4.2-5 4.2-1.9 0-4-.7-5.8-2z"/><path fill="#e6e6e6" d="m206.3 434.2c0-5.1 4.1-9.2 9.3-9.2s9.2 4.2 9.2 9.2-4.1 9.2-9.3 9.2-9.2-4.1-9.2-9.2zm17.4-.1c0-4.5-3.5-8.2-8.2-8.2s-8.2 3.7-8.2 8.3c0 4.5 3.5 8.2 8.2 8.2s8.2-3.7 8.2-8.3zm-13.1-.1c0-2.8 2.1-5.1 5.1-5.1 1.9 0 2.9.6 3.9 1.5l-1.4 1.7c-.8-.7-1.5-1.1-2.5-1.1-1.7 0-2.8 1.4-2.8 3.1s1.1 3 2.8 3c1.1 0 1.7-.5 2.5-1.1l1.4 1.4c-1.1 1.1-2.1 1.7-4 1.7-2.9.1-5-2.2-5-5.1z"/><path fill="#e6e6e6" d="m226.1 425.3h3.4l4.2 13.2 4.4-13.3h2.6l4.4 13.3 4.2-13.2h3.3l-6.2 18h-2.7l-4.4-12.8-4.4 12.8h-2.7z"/><path fill="#e6e6e6" d="m252.4 436.4c0-3.9 3.1-7 7.2-7 4.2 0 7.2 3.2 7.2 7s-3.1 7-7.3 7c-4.1 0-7.1-3.1-7.1-7zm11.2 0c0-2.3-1.7-4.3-4.2-4.3s-4.1 2-4.1 4.3 1.7 4.3 4.1 4.3c2.7.1 4.2-1.9 4.2-4.3z"/><path fill="#e6e6e6" d="m269 429.7h3.1v3c.8-2 2.4-3.4 4.8-3.3v3.2h-.2c-2.7 0-4.6 1.7-4.6 5.4v5.1h-3.1z"/><path fill="#e6e6e6" d="m278.6 424.5h3.1v11.1l5.6-6h3.8l-5.4 5.5 5.5 8h-3.5l-4.1-5.8-1.9 2v3.9h-3.1z"/><path fill="#e6e6e6" d="m291.3 436.4c0-3.9 3.1-7 7.2-7 4.2 0 7.2 3.2 7.2 7s-3.1 7-7.3 7c-4.1 0-7.1-3.1-7.1-7zm11.2 0c0-2.3-1.7-4.3-4.2-4.3s-4.1 2-4.1 4.3 1.7 4.3 4.1 4.3c2.6.1 4.2-1.9 4.2-4.3z"/><path fill="#e6e6e6" d="m307.7 438.2v-8.6h3.1v7.6c0 2.1 1.1 3.3 2.9 3.3s3-1.3 3-3.3v-7.6h3.1v13.4h-3.1v-2.1c-.8 1.3-2.1 2.3-4.2 2.3-3 .2-4.8-1.8-4.8-5z"/><path fill="#e6e6e6" d="m323.4 439.4v-7.1h-1.7v-2.6h1.7v-3.7h3.1v3.7h3.6v2.6h-3.6v6.6c0 1.2.6 1.7 1.7 1.7.7 0 1.3-.2 1.9-.5v2.5c-.8.5-1.7.7-2.8.7-2.3 0-3.9-.9-3.9-3.9z"/><path fill="#e6e6e6" d="m332.7 425.3h3.2v15h9.4v2.9h-12.5v-17.9z"/><path fill="#e6e6e6" d="m355.5 443.1v-1.7c-.9 1.1-2.3 2-4.4 2-2.6 0-4.8-1.4-4.8-4.2 0-3 2.3-4.4 5.4-4.4 1.7 0 2.6.2 3.7.5v-.2c0-1.9-1.2-2.9-3.3-2.9-1.5 0-2.6.3-3.9.8l-.8-2.5c1.5-.7 2.9-1.1 5.1-1.1 4 0 5.9 2.1 5.9 5.7v8zm.1-5.6c-.8-.3-1.9-.5-3.1-.5-2 0-3.1.8-3.1 2.1s1.1 2 2.6 2c2 0 3.5-1.1 3.5-2.9z"/><path fill="#e6e6e6" d="m364.4 441.1v2.1h-3.1v-18.7h3.1v7.4c1-1.4 2.4-2.5 4.5-2.5 3.2 0 6.3 2.5 6.3 7s-3.1 7-6.3 7c-2.1 0-3.5-1.1-4.5-2.3zm7.7-4.7c0-2.6-1.7-4.3-3.9-4.3-2.1 0-3.9 1.7-3.9 4.4 0 2.6 1.8 4.3 3.9 4.3 2.2 0 3.9-1.7 3.9-4.4z"/><path fill="#e6e6e6" d="m376.5 441.4 1.4-2.1c1.4 1.1 3 1.7 4.4 1.7s2.1-.5 2.1-1.5-1.3-1.4-2.8-1.8c-.1 0-.2-.1-.2-.1-2-.6-4.2-1.4-4.2-4s2.1-4.1 4.8-4.1c1.7 0 3.5.6 5 1.5l-1.2 2.2c-1.3-.8-2.6-1.3-3.8-1.3s-1.9.5-1.9 1.4 1.3 1.4 2.8 1.8c.1 0 .2.1.2.1 2 .6 4.2 1.5 4.2 4 0 2.9-2.2 4.2-5 4.2-2 0-4.1-.7-5.8-2z"/><path fill="#e6e6e6" d="m505.1 434.2c0-5.1 4.1-9.2 9.3-9.2s9.2 4.2 9.2 9.2-4.1 9.2-9.3 9.2-9.2-4.1-9.2-9.2zm17.4-.1c0-4.5-3.5-8.2-8.2-8.2s-8.2 3.7-8.2 8.3c0 4.5 3.5 8.2 8.2 8.2s8.2-3.7 8.2-8.3zm-13.1-.1c0-2.8 2.1-5.1 5.1-5.1 1.9 0 2.9.6 3.9 1.5l-1.4 1.7c-.8-.7-1.5-1.1-2.5-1.1-1.7 0-2.8 1.4-2.8 3.1s1.1 3 2.8 3c1.1 0 1.7-.5 2.5-1.1l1.4 1.4c-1.1 1.1-2.1 1.7-4 1.7-2.9.1-5-2.2-5-5.1z"/><path fill="#e6e6e6" d="m525 425.3h3.4l4.2 13.2 4.4-13.3h2.6l4.4 13.3 4.2-13.2h3.3l-6.2 18h-2.7l-4.4-12.8-4.4 12.8h-2.7z"/><path fill="#e6e6e6" d="m551.2 436.4c0-3.9 3.1-7 7.2-7 4.2 0 7.2 3.2 7.2 7s-3.1 7-7.3 7c-4.1 0-7.1-3.1-7.1-7zm11.2 0c0-2.3-1.7-4.3-4.2-4.3s-4.1 2-4.1 4.3 1.7 4.3 4.1 4.3c2.7.1 4.2-1.9 4.2-4.3z"/><path fill="#e6e6e6" d="m567.8 429.7h3.1v3c.8-2 2.4-3.4 4.8-3.3v3.2h-.2c-2.7 0-4.6 1.7-4.6 5.4v5.1h-3.1z"/><path fill="#e6e6e6" d="m577.5 424.5h3.1v11.1l5.6-6h3.8l-5.4 5.5 5.5 8h-3.5l-4.1-5.8-1.9 2v3.9h-3.1z"/><path fill="#e6e6e6" d="m590.1 436.4c0-3.9 3.1-7 7.2-7 4.2 0 7.2 3.2 7.2 7s-3.1 7-7.3 7c-4.1 0-7.1-3.1-7.1-7zm11.2 0c0-2.3-1.7-4.3-4.2-4.3s-4.1 2-4.1 4.3 1.7 4.3 4.1 4.3c2.6.1 4.2-1.9 4.2-4.3z"/><path fill="#e6e6e6" d="m606.5 438.2v-8.6h3.1v7.6c0 2.1 1.1 3.3 2.9 3.3s3-1.3 3-3.3v-7.6h3.1v13.4h-3.1v-2.1c-.8 1.3-2.1 2.3-4.2 2.3-3 .2-4.8-1.8-4.8-5z"/><path fill="#e6e6e6" d="m622.2 439.4v-7.1h-1.7v-2.6h1.7v-3.7h3.1v3.7h3.6v2.6h-3.6v6.6c0 1.2.6 1.7 1.7 1.7.7 0 1.3-.2 1.9-.5v2.5c-.8.5-1.7.7-2.8.7-2.3 0-3.9-.9-3.9-3.9z"/><path fill="#e6e6e6" d="m631.5 425.3h3.2v15h9.4v2.9h-12.5v-17.9z"/><path fill="#e6e6e6" d="m654.3 443.1v-1.7c-.9 1.1-2.3 2-4.4 2-2.6 0-4.8-1.4-4.8-4.2 0-3 2.3-4.4 5.4-4.4 1.7 0 2.6.2 3.7.5v-.2c0-1.9-1.2-2.9-3.3-2.9-1.5 0-2.6.3-3.9.8l-.8-2.5c1.5-.7 2.9-1.1 5.1-1.1 4 0 5.9 2.1 5.9 5.7v8zm.1-5.6c-.8-.3-1.9-.5-3.1-.5-2 0-3.1.8-3.1 2.1s1.1 2 2.6 2c2 0 3.5-1.1 3.5-2.9z"/><path fill="#e6e6e6" d="m663.3 441.1v2.1h-3.1v-18.7h3.1v7.4c1-1.4 2.4-2.5 4.5-2.5 3.2 0 6.3 2.5 6.3 7s-3.1 7-6.3 7c-2.2 0-3.6-1.1-4.5-2.3zm7.7-4.7c0-2.6-1.7-4.3-3.9-4.3s-3.9 1.7-3.9 4.4c0 2.6 1.8 4.3 3.9 4.3s3.9-1.7 3.9-4.4z"/><path fill="#e6e6e6" d="m675.3 441.4 1.4-2.1c1.4 1.1 3 1.7 4.4 1.7s2.1-.5 2.1-1.5-1.3-1.4-2.8-1.8c-.1 0-.2-.1-.2-.1-2-.6-4.2-1.4-4.2-4s2.1-4.1 4.8-4.1c1.7 0 3.5.6 5 1.5l-1.2 2.2c-1.3-.8-2.6-1.3-3.8-1.3s-1.9.5-1.9 1.4 1.3 1.4 2.8 1.8c.1 0 .2.1.2.1 2 .6 4.2 1.5 4.2 4 0 2.9-2.2 4.2-5 4.2-2 0-4.1-.7-5.8-2z"/></g>
</svg>
